<svg width="442" height="305" viewBox="0 0 442 305" fill="none" xmlns="http://www.w3.org/2000/svg">
<path fill-rule="evenodd" clip-rule="evenodd" d="M243.128 0.00455947C466.756 1.32677 456.937 199.848 421.942 257.899C386.947 315.95 268.682 284.91 214.427 286.358C160.172 287.806 122.659 324.073 35.99 291.395C-50.6793 258.717 19.4996 -1.25469 243.128 0.00455947Z" fill="#CFEDEE"/>
<path fill-rule="evenodd" clip-rule="evenodd" d="M138.958 73.115C156.695 73.115 171.036 79.7414 171.036 87.9456C171.036 88.8923 170.847 89.7758 170.533 90.6593C186.131 92.1108 197.453 96.7178 197.453 102.145C197.453 108.772 180.534 114.136 159.714 114.136C147.764 114.136 137.134 112.369 130.215 109.592C125.875 111.233 120.277 112.243 114.113 112.243C100.401 112.243 89.2684 107.32 89.2684 101.199C89.2684 96.1498 96.942 91.8584 107.383 90.5962C107.069 89.7758 106.88 88.8923 106.88 87.9456C106.88 79.7414 121.221 73.115 138.958 73.115Z" fill="white" stroke="white" stroke-width="2.52377"/>
<path fill-rule="evenodd" clip-rule="evenodd" d="M293.132 32.3066C304.597 32.3066 313.921 36.511 313.921 41.7193C313.921 42.284 313.795 42.786 313.606 43.2881C323.623 44.2293 330.93 47.2414 330.93 50.8182C330.93 55.148 320.095 58.662 306.676 58.662C298.928 58.662 291.998 57.4698 287.588 55.65C284.753 56.7168 281.1 57.407 277.068 57.407C268.185 57.407 261.003 54.2067 261.003 50.1907C261.003 46.9276 265.917 44.1038 272.595 43.2253C272.406 42.7233 272.343 42.2213 272.343 41.7193C272.343 36.511 281.667 32.3066 293.132 32.3066Z" fill="white" stroke="white" stroke-width="2.52377"/>
<path d="M245.049 204.762H226.561C212.844 204.762 201.661 215.945 201.661 229.664V256.653C201.661 270.371 212.844 281.554 226.71 281.554H245.198C256.679 281.554 266.072 264.257 266.072 243.233C265.923 221.91 256.53 204.762 245.049 204.762Z" fill="#4B4F69"/>
<path d="M367.758 184.93H366.864C366.118 184.93 365.522 184.334 365.522 183.588V174.791C365.522 174.045 366.118 173.449 366.864 173.449H367.758C368.504 173.449 369.1 174.045 369.1 174.791V183.588C369.1 184.334 368.504 184.93 367.758 184.93Z" fill="#272C3B"/>
<path d="M367.757 104.112H366.863V187.018H367.757V104.112Z" fill="#272C3B"/>
<path d="M368.503 104.111C368.503 104.708 367.907 105.304 367.31 105.304C366.714 105.304 366.118 104.708 366.118 104.111C366.118 103.515 366.714 102.918 367.31 102.918C367.907 102.918 368.503 103.366 368.503 104.111Z" fill="#272C3B"/>
<path d="M379.388 258.144H83.1273V191.491H374.467L379.388 258.144Z" fill="#1D1D1B"/>
<path d="M112.948 179.86H96.5468C93.5648 179.86 91.1792 177.474 91.1792 174.492C91.1792 167.931 96.5468 162.563 103.107 162.563H113.395C116.228 162.563 118.464 164.799 118.464 167.633V174.343C118.464 177.474 116.079 179.86 112.948 179.86Z" fill="#272C3B"/>
<path d="M282.175 177.176H109.667L142.767 118.575C147.538 110.076 156.633 104.708 166.324 104.409C166.474 104.409 166.772 104.409 166.921 104.409H280.535L282.175 177.176Z" fill="#AAEAF0"/>
<path d="M212.992 195.517H183.023C177.954 195.517 174.525 191.491 175.568 186.422L182.129 151.231C183.023 146.161 187.944 142.135 193.013 142.135H222.982C228.051 142.135 231.481 146.161 230.437 151.231L223.877 186.422C222.982 191.342 218.062 195.517 212.992 195.517Z" fill="#6BB5C1"/>
<path d="M244.9 124.689C242.067 110.673 229.543 100.533 215.229 100.533H202.705V108.287H215.229C225.815 108.287 235.06 115.891 237.296 126.18L247.137 174.045H202.705V181.799H256.679L244.9 124.689Z" fill="#6BB5C1"/>
<path d="M201.102 105.995L193.373 106.601L198.918 177.358L206.647 176.752L201.102 105.995Z" fill="#6BB5C1"/>
<path d="M214.186 120.812H186.304C184.515 120.812 183.322 119.022 183.919 117.382L185.409 113.505C185.708 112.461 186.751 111.865 187.795 111.865H215.677C217.466 111.865 218.659 113.654 218.062 115.295L216.571 119.171C216.124 120.215 215.229 120.812 214.186 120.812Z" fill="#6BB5C1"/>
<path d="M202.556 104.409L164.387 177.176H158.572L196.593 104.409H202.556Z" fill="#C6F4F7"/>
<path d="M191.672 104.409L153.651 177.176H132.33L170.351 104.409C170.5 104.409 170.798 104.409 170.947 104.409H191.672Z" fill="#C6F4F7"/>
<path d="M286.051 181.053H102.957L139.337 116.637C145.003 106.647 155.589 100.533 166.921 100.533H284.411L286.051 181.053ZM116.376 173.299H278.149L276.807 108.287H166.921C158.273 108.287 150.371 112.909 146.047 120.514L116.376 173.299Z" fill="#08BA58"/>
<path d="M347.332 177.922H223.878L234.911 158.09L241.769 145.863L256.978 118.576C261.898 109.778 271.142 104.261 281.281 104.261H310.802C314.53 104.261 317.959 105.006 321.239 106.348C322.73 106.945 324.072 107.69 325.414 108.585C327.203 109.778 328.694 111.12 330.185 112.611C333.316 116.041 335.553 120.365 336.597 125.136L347.332 177.922Z" fill="#AAEAF0"/>
<path d="M248.478 141.986L245.944 130.355L240.129 140.793L242.514 152.573L246.987 174.045H255.039L248.478 141.986Z" fill="#538CA6"/>
<path d="M286.648 195.815H256.679C251.61 195.815 248.18 191.789 249.224 186.719L255.785 151.529C256.679 146.459 261.599 142.433 266.669 142.433H296.638C301.707 142.433 305.136 146.459 304.093 151.529L297.532 186.719C296.638 191.789 291.717 195.815 286.648 195.815Z" fill="#538CA6"/>
<path d="M326.905 212.367H296.936C291.867 212.367 288.437 208.341 289.481 203.271L299.321 173.001C300.216 167.931 301.856 158.985 306.926 158.985H336.894C341.964 158.985 345.393 163.011 344.349 168.081L337.789 203.271C336.745 208.191 331.974 212.367 326.905 212.367Z" fill="#6BB5C1"/>
<path d="M260.556 159.73C256.232 161.967 249.075 172.106 247.733 172.554C246.54 173.001 227.903 157.941 227.903 157.941L224.325 161.669C224.325 161.669 242.813 183.886 247.286 184.184C251.759 184.483 261.898 177.027 261.898 177.027L260.556 159.73Z" fill="#FF4537"/>
<path d="M339.131 133.487L306.627 169.274L298.874 177.773L296.638 149.144L304.391 140.644L330.781 111.269L339.131 133.487Z" fill="#C6F4F7"/>
<path d="M340.323 149.74L313.933 178.518H304.987L339.578 140.346L340.323 149.74Z" fill="#C6F4F7"/>
<path d="M290.824 175.535C290.227 187.613 288.289 203.27 287.991 205.805C287.991 206.103 287.991 206.103 287.991 206.103C287.991 206.103 287.394 206.103 286.649 206.103C285.903 206.103 285.009 206.103 284.412 206.252C282.474 206.699 280.685 206.699 274.572 206.848C265.626 207.147 262.047 202.077 261.6 201.48C261.6 201.48 261.153 191.49 261.004 181.649C261.004 180.903 261.004 180.307 261.004 179.561V179.412C261.004 177.175 258.32 161.071 260.258 159.58C265.477 155.554 289.482 155.256 292.613 162.115C293.656 163.904 291.271 168.676 290.824 175.535Z" fill="#E82E2A"/>
<path d="M279.491 157.642C279.491 157.642 278 159.729 274.571 159.729C271.142 159.729 269.8 157.642 269.8 157.642C269.8 157.642 270.545 156.449 270.844 155.107C270.844 154.809 270.993 154.66 270.993 154.361C270.993 153.318 270.694 151.677 270.545 150.634C270.396 150.037 270.247 149.59 270.247 149.59L278.448 149.888C278.448 149.888 278.448 150.037 278.298 150.485C278.149 151.23 278 152.721 278.149 154.212C278.149 154.361 278.149 154.511 278.149 154.511C278.597 156.449 279.491 157.642 279.491 157.642Z" fill="#FFB286"/>
<path d="M278.149 154.064C278.149 154.213 278.149 154.362 278.149 154.362C277.404 154.511 276.062 154.809 274.422 154.958C272.931 155.108 271.738 155.108 270.844 154.958C270.844 154.66 270.993 154.511 270.993 154.213C270.993 153.169 270.694 151.529 270.545 150.485C272.484 150.336 276.658 150.187 278.298 150.187C278.149 151.082 278 152.573 278.149 154.064Z" fill="#FF9B6C"/>
<path d="M262.196 141.687C262.047 141.538 258.767 139.6 258.32 136.021C257.872 132.443 261.6 132.293 261.6 132.293L262.196 141.687Z" fill="#F9866B"/>
<path d="M285.605 141.687C285.754 141.538 289.034 139.6 289.482 136.021C289.929 132.443 286.052 132.293 286.052 132.293L285.605 141.687Z" fill="#F9866B"/>
<path d="M260.258 120.96C260.109 121.109 257.425 123.644 257.873 127.819C258.171 131.994 261.6 137.661 261.6 137.362C261.6 137.064 263.091 124.837 263.091 124.837L260.258 120.96Z" fill="#30221B"/>
<path d="M286.947 123.197C286.947 123.197 288.587 125.881 288.289 129.162C288.14 132.293 285.605 137.214 285.605 137.214C285.605 137.214 284.263 134.231 284.263 134.082C284.263 133.933 284.114 126.179 284.114 126.179L286.947 123.197Z" fill="#30221B"/>
<path d="M260.407 122.899C260.407 122.899 260.854 131.1 260.854 135.872C260.854 140.494 260.854 146.31 263.389 149.441C267.265 154.064 279.343 154.213 283.368 149.143C287.394 143.924 285.903 139.003 285.456 134.828C285.008 130.653 285.157 123.496 285.157 123.496L277.852 117.83L260.407 122.899Z" fill="#FFB286"/>
<path d="M262.941 141.389C263.985 143.476 269.204 141.091 268.011 139.003C266.669 136.916 261.898 139.45 262.941 141.389Z" fill="#FF9571"/>
<path d="M277.554 139.003C276.361 140.494 280.834 143.626 282.176 141.538C283.667 139.6 278.896 137.363 277.554 139.003Z" fill="#FF9571"/>
<path d="M271.292 140.494C271.292 140.494 270.248 141.985 271.888 142.134C273.528 142.283 273.528 140.345 273.528 140.345L271.292 140.494Z" fill="#FF9B6C"/>
<path d="M276.808 128.416C276.659 128.864 276.808 129.46 277.106 129.46C277.404 129.609 278.15 129.162 278.895 129.758C279.641 130.355 279.641 131.1 280.237 131.1C280.834 131.1 281.281 130.504 281.132 130.206C280.983 129.908 280.684 128.715 279.641 128.118C278.448 127.522 276.957 127.671 276.808 128.416Z" fill="#231C18"/>
<path d="M269.353 129.311C269.353 129.758 269.055 130.206 268.756 130.355C268.458 130.355 267.713 129.908 266.818 130.206C265.923 130.653 265.774 131.25 265.178 131.25C264.582 131.1 264.283 130.504 264.582 130.206C264.88 129.908 265.327 128.864 266.52 128.416C267.862 128.118 269.353 128.715 269.353 129.311Z" fill="#231C18"/>
<path d="M286.35 130.951C286.201 130.951 284.114 129.162 282.623 127.671C281.132 126.031 280.386 123.496 280.386 123.496C280.386 123.496 278.299 126.627 276.361 127.969C274.571 129.311 271.739 128.864 271.739 128.864C271.739 128.864 269.353 130.057 267.713 130.206C266.222 130.206 265.178 128.715 265.178 128.715C265.178 128.715 262.047 129.013 260.556 128.566C259.214 128.118 258.767 126.329 258.767 126.329L259.065 122.601C259.065 122.601 255.338 120.215 255.487 117.382C255.636 114.549 258.32 113.953 260.109 113.804C261.898 113.654 265.476 113.953 265.476 113.953C265.476 113.953 261.6 112.312 261.898 111.269C262.345 110.225 266.371 109.479 268.458 110.225C270.546 110.821 270.695 110.374 270.695 110.374C270.695 110.374 270.844 109.33 272.186 108.286C273.379 107.094 277.553 108.286 280.088 110.821C282.623 113.207 282.325 113.654 282.325 113.654C282.325 113.654 282.474 111.567 283.667 112.312C285.008 113.058 285.158 117.084 285.158 117.084C285.158 117.084 288.885 119.619 289.183 123.943C289.63 128.118 286.35 130.951 286.35 130.951Z" fill="#30221B"/>
<path d="M278.001 136.468C279.642 136.468 279.642 132.74 278.001 132.74C276.51 132.591 276.361 136.468 278.001 136.468Z" fill="#222221"/>
<path d="M268.011 136.468C269.652 136.468 269.652 132.74 268.011 132.74C266.52 132.591 266.371 136.468 268.011 136.468Z" fill="#222221"/>
<path d="M273.378 134.53C273.378 134.53 273.229 137.661 272.335 138.258C271.44 138.854 269.8 138.854 269.949 140.047C270.098 141.24 272.036 141.687 273.08 141.24C274.273 140.644 273.378 134.53 273.378 134.53Z" fill="#F9866B"/>
<path d="M270.695 147.055C270.695 147.055 271.888 147.651 273.23 147.651C274.87 147.651 276.212 147.055 276.212 147.055C276.212 147.055 275.317 148.397 273.379 148.397C271.739 148.248 270.695 147.055 270.695 147.055Z" fill="#FF9B6C"/>
<path d="M268.906 143.775C268.906 143.775 268.757 146.31 273.379 146.31C278.001 146.31 278.15 143.477 278.15 143.477C278.15 143.477 276.212 144.371 273.379 144.371C270.397 144.371 268.906 143.775 268.906 143.775Z" fill="white"/>
<path d="M290.823 175.536C290.227 187.614 288.289 203.27 287.991 205.805C287.543 205.954 287.096 205.954 286.649 206.103C284.412 206.551 280.685 207.147 275.764 207.296C266.222 207.744 261.749 204.463 261.749 204.463C261.749 204.463 261.749 203.419 261.6 201.63C261.451 197.306 261.004 188.807 261.004 181.649C261.004 180.904 261.004 180.307 261.004 179.562V179.413C262.196 180.456 264.731 181.649 270.546 182.097C279.343 182.991 287.991 177.623 290.823 175.536Z" fill="#F22C27"/>
<path d="M217.019 198.797C202.855 198.797 192.12 195.815 192.12 181.65C192.12 167.484 203.6 156.003 217.765 156.003C231.929 156.003 243.41 167.484 243.41 181.65C243.41 195.815 231.184 198.797 217.019 198.797ZM217.616 160.774C206.135 160.774 196.742 170.168 196.742 181.65C196.742 193.131 205.389 192.982 216.87 192.982C228.351 192.982 238.49 193.131 238.49 181.65C238.49 170.168 229.245 160.774 217.616 160.774Z" fill="#696D6D"/>
<path d="M299.802 106.004L292.073 106.61L297.618 177.367L305.347 176.761L299.802 106.004Z" fill="#008923"/>
<path d="M340.324 124.689C337.491 110.673 324.967 100.533 310.653 100.533H281.281C269.8 100.533 259.214 106.796 253.548 116.786L245.944 130.355L240.129 140.793L221.641 174.045H230.587L242.664 152.424L248.479 141.986L260.407 120.514C264.582 112.909 272.633 108.287 281.281 108.287H310.803C321.389 108.287 330.633 115.891 332.72 126.18L342.561 174.045H254.89L256.53 181.799H352.103L340.324 124.689Z" fill="#009E2D"/>
<path d="M227.753 157.941C227.753 157.941 224.622 152.573 217.316 153.766C214.036 154.362 214.036 156.301 214.036 158.537C214.185 160.774 214.931 161.221 215.975 161.519C216.571 161.669 217.167 161.37 217.167 161.37C217.167 161.37 217.615 162.414 218.658 162.265C219.553 162.116 220 161.818 220 161.818C220 161.818 220.149 162.712 221.193 162.712C222.237 162.712 223.131 161.669 223.131 161.669C223.131 161.669 221.789 160.923 222.535 159.283C223.131 157.493 224.026 157.643 225.07 157.493C225.964 157.195 227.753 157.941 227.753 157.941Z" fill="#FFB286"/>
<path d="M258.618 198.35L255.487 196.859C255.785 196.263 261.898 182.992 274.572 168.081C281.728 159.731 289.482 154.959 289.78 154.81L291.569 157.792C291.42 157.792 283.965 162.415 277.106 170.317C264.731 184.93 258.618 198.201 258.618 198.35Z" fill="#538CA6"/>
<path d="M217.466 281.405H198.978C185.261 281.405 173.929 270.221 173.929 256.503V229.514C173.929 215.796 185.112 204.612 198.829 204.612H217.317V281.405H217.466Z" fill="#1D1D1B"/>
<path d="M238.341 243.083C238.341 264.256 229.096 281.404 217.467 281.404C205.986 281.404 196.593 264.107 196.593 243.083C196.593 221.909 205.986 204.761 217.467 204.761C228.947 204.761 238.341 221.909 238.341 243.083Z" fill="#272C3B"/>
<path d="M232.525 243.083C232.525 258.888 225.816 271.712 217.466 271.712C209.117 271.712 202.258 258.888 202.258 243.083C202.258 227.277 209.117 214.453 217.466 214.453C225.816 214.453 232.525 227.277 232.525 243.083Z" fill="#CCCCCC"/>
<path d="M231.034 243.082C231.034 258.143 224.921 270.37 217.466 270.37C217.168 270.37 216.721 270.37 216.423 270.37C209.415 269.326 203.749 257.546 203.749 243.082C203.749 228.768 209.415 216.988 216.423 215.944C216.721 215.944 217.019 215.944 217.466 215.944C224.921 215.795 231.034 228.022 231.034 243.082Z" fill="#A0A0A0"/>
<path d="M229.096 243.082C229.096 257.397 223.579 269.326 216.423 270.37C209.415 269.326 203.749 257.546 203.749 243.082C203.749 228.768 209.415 216.988 216.423 215.944C223.43 216.988 229.096 228.768 229.096 243.082Z" fill="#878B8C"/>
<path d="M216.125 243.083C216.125 245.767 215.081 247.854 213.739 247.854C212.398 247.854 211.354 245.767 211.354 243.083C211.354 240.399 212.398 238.311 213.739 238.311C215.081 238.311 216.125 240.399 216.125 243.083Z" fill="#272C3B"/>
<path d="M222.685 227.128C222.685 228.171 221.94 229.961 220.747 231.601C218.958 234.136 216.423 236.522 215.081 235.776C213.292 235.03 213.59 225.935 215.379 221.61C215.976 220.119 216.721 219.225 217.616 219.374C220.15 219.672 222.536 223.102 222.685 227.128Z" fill="#272C3B"/>
<path d="M227.009 241.89C226.562 242.486 224.475 242.934 222.387 242.934C220.747 242.785 219.107 242.337 218.511 241.294C217.765 239.802 219.405 236.224 221.344 233.987C222.536 232.645 223.729 231.75 224.624 232.198C227.158 233.54 227.904 240.399 227.009 241.89Z" fill="#272C3B"/>
<path d="M211.056 238.311C209.714 239.951 208.074 238.609 207.03 236.075C205.688 232.943 207.626 224.593 209.863 225.488C211.652 226.233 212.248 236.671 211.056 238.311Z" fill="#272C3B"/>
<path d="M222.386 260.081C222.237 264.107 219.703 267.536 217.168 267.835C216.124 267.984 215.379 266.791 214.782 265.001C213.142 260.528 212.993 252.029 214.782 251.283C216.273 250.687 218.808 253.073 220.597 255.607C221.492 257.248 222.386 259.037 222.386 260.081Z" fill="#272C3B"/>
<path d="M224.474 255.459C223.58 255.907 222.238 254.863 221.045 253.521C219.256 251.284 217.616 247.705 218.51 246.363C219.107 245.32 220.598 244.872 222.387 244.872C224.474 244.723 226.711 245.32 227.009 245.916C227.904 247.407 226.86 254.266 224.474 255.459Z" fill="#272C3B"/>
<path d="M209.863 261.124C207.626 262.019 205.539 253.818 207.03 250.537C208.074 248.002 209.863 246.511 211.056 248.301C212.397 250.09 211.801 260.379 209.863 261.124Z" fill="#272C3B"/>
<path d="M209.564 245.17C209.266 246.065 206.284 247.407 205.539 246.512C204.942 245.618 204.644 240.697 205.39 239.504C205.986 238.609 208.968 240.399 209.415 241.741C210.012 243.083 209.863 244.276 209.564 245.17Z" fill="#272C3B"/>
<path d="M205.687 246.512C205.091 245.618 204.793 240.697 205.538 239.504C206.135 238.609 209.117 240.399 209.564 241.741C210.011 243.083 209.862 244.127 209.564 245.021C209.266 245.916 206.284 247.407 205.687 246.512Z" fill="#1D1D1B"/>
<path d="M206.88 236.075C205.538 232.943 207.477 224.593 209.713 225.488C211.651 226.233 212.099 236.671 210.906 238.311C209.713 240.101 208.073 238.61 206.88 236.075Z" fill="#1D1D1B"/>
<path d="M211.055 248.302C212.396 249.942 211.8 260.38 209.862 261.125C207.625 262.02 205.538 253.819 207.029 250.538C208.073 248.003 209.862 246.661 211.055 248.302Z" fill="#1D1D1B"/>
<path d="M213.738 247.854C212.397 247.854 211.353 245.767 211.353 243.083C211.353 240.399 212.397 238.311 213.738 238.311C215.08 238.311 216.124 240.399 216.124 243.083C216.124 245.767 215.08 247.854 213.738 247.854Z" fill="#1D1D1B"/>
<path d="M215.229 247.854C213.887 247.854 212.844 245.767 212.844 243.083C212.844 240.399 213.887 238.311 215.229 238.311C216.571 238.311 217.615 240.399 217.615 243.083C217.615 245.767 216.571 247.854 215.229 247.854Z" fill="#CCCCCC"/>
<path d="M220.448 255.609C219.107 259.784 217.168 263.064 214.783 265.003C213.143 260.529 212.994 252.03 214.783 251.285C216.125 250.688 218.659 253.074 220.448 255.609Z" fill="#1D1D1B"/>
<path d="M215.38 221.76C217.765 223.997 219.554 227.426 220.896 231.751C219.107 234.285 216.572 236.671 215.23 235.926C213.292 235.18 213.59 226.084 215.38 221.76Z" fill="#1D1D1B"/>
<path d="M222.238 244.724C222.089 247.855 221.642 250.837 221.045 253.521C219.256 251.285 217.616 247.706 218.51 246.364C218.958 245.171 220.598 244.724 222.238 244.724Z" fill="#1D1D1B"/>
<path d="M221.343 233.987C221.939 236.671 222.238 239.803 222.238 242.934C220.598 242.785 218.958 242.338 218.361 241.294C217.765 239.803 219.405 236.224 221.343 233.987Z" fill="#1D1D1B"/>
<path d="M215.23 246.513C214.335 246.513 213.739 245.022 213.739 243.083C213.739 241.145 214.485 239.654 215.23 239.654C216.125 239.654 216.721 241.145 216.721 243.083C216.721 245.022 216.125 246.513 215.23 246.513Z" fill="#878B8C"/>
<path d="M108.027 204.762H89.539C75.8218 204.762 64.6394 215.945 64.6394 229.664V256.653C64.6394 270.371 75.8218 281.554 89.6881 281.554H108.176C119.657 281.554 129.05 264.257 129.05 243.233C128.901 221.91 119.657 204.762 108.027 204.762Z" fill="#4B4F69"/>
<path d="M354.339 281.405H335.851C322.134 281.405 310.802 270.221 310.802 256.503V229.514C310.802 215.796 321.985 204.612 335.702 204.612H354.19V281.405H354.339Z" fill="#1D1D1B"/>
<path d="M375.213 243.083C375.213 264.256 365.969 281.404 354.339 281.404C342.859 281.404 333.465 264.107 333.465 243.083C333.465 221.909 342.859 204.761 354.339 204.761C365.969 204.761 375.213 221.909 375.213 243.083Z" fill="#272C3B"/>
<path d="M369.398 243.083C369.398 258.888 362.689 271.712 354.339 271.712C345.99 271.712 339.131 258.888 339.131 243.083C339.131 227.277 345.99 214.453 354.339 214.453C362.689 214.453 369.398 227.277 369.398 243.083Z" fill="#CCCCCC"/>
<path d="M367.907 243.082C367.907 258.143 361.794 270.37 354.339 270.37C354.041 270.37 353.594 270.37 353.295 270.37C346.288 269.326 340.622 257.546 340.622 243.082C340.622 228.768 346.288 216.988 353.295 215.944C353.594 215.944 353.892 215.944 354.339 215.944C361.943 215.795 367.907 228.022 367.907 243.082Z" fill="#A0A0A0"/>
<path d="M365.969 243.082C365.969 257.397 360.452 269.326 353.295 270.37C346.288 269.326 340.622 257.546 340.622 243.082C340.622 228.768 346.288 216.988 353.295 215.944C360.452 216.988 365.969 228.768 365.969 243.082Z" fill="#878B8C"/>
<path d="M352.997 243.083C352.997 245.767 351.953 247.854 350.611 247.854C349.269 247.854 348.226 245.767 348.226 243.083C348.226 240.399 349.269 238.311 350.611 238.311C351.953 238.311 352.997 240.399 352.997 243.083Z" fill="#272C3B"/>
<path d="M359.706 227.128C359.706 228.171 358.961 229.961 357.768 231.601C355.979 234.136 353.444 236.522 352.102 235.776C350.313 235.03 350.611 225.935 352.401 221.61C352.997 220.119 353.743 219.225 354.637 219.374C357.023 219.672 359.408 223.102 359.706 227.128Z" fill="#272C3B"/>
<path d="M363.881 241.89C363.434 242.486 361.346 242.934 359.259 242.934C357.619 242.785 355.979 242.337 355.382 241.294C354.637 239.802 356.277 236.224 358.215 233.987C359.408 232.645 360.601 231.75 361.495 232.198C364.03 233.54 364.925 240.399 363.881 241.89Z" fill="#272C3B"/>
<path d="M347.927 238.311C346.585 239.952 344.945 238.61 343.902 236.075C342.56 232.943 344.498 224.593 346.734 225.488C348.673 226.233 349.269 236.671 347.927 238.311Z" fill="#272C3B"/>
<path d="M359.259 260.081C359.11 264.107 356.576 267.536 354.041 267.835C352.997 267.984 352.252 266.791 351.655 265.001C350.164 260.528 349.866 252.029 351.655 251.283C353.146 250.687 355.681 253.073 357.47 255.607C358.514 257.248 359.259 259.037 359.259 260.081Z" fill="#272C3B"/>
<path d="M361.347 255.459C360.453 255.907 359.111 254.863 357.918 253.521C356.129 251.284 354.489 247.705 355.383 246.363C355.98 245.32 357.471 244.872 359.26 244.872C361.347 244.723 363.584 245.32 363.882 245.916C364.777 247.407 363.882 254.266 361.347 255.459Z" fill="#272C3B"/>
<path d="M346.884 261.124C344.648 262.019 342.56 253.818 344.051 250.537C345.095 248.002 346.884 246.511 348.077 248.301C349.27 250.09 348.673 260.379 346.884 261.124Z" fill="#272C3B"/>
<path d="M346.586 245.17C346.288 246.065 343.306 247.407 342.56 246.512C341.964 245.618 341.666 240.697 342.411 239.504C343.008 238.609 345.99 240.399 346.437 241.741C347.033 243.083 346.884 244.276 346.586 245.17Z" fill="#272C3B"/>
<path d="M342.56 246.512C341.964 245.618 341.666 240.697 342.411 239.504C343.007 238.609 345.989 240.399 346.437 241.741C346.884 243.083 346.735 244.127 346.437 245.021C346.288 245.916 343.157 247.407 342.56 246.512Z" fill="#1D1D1B"/>
<path d="M343.902 236.075C342.56 232.943 344.498 224.593 346.734 225.488C348.673 226.233 349.12 236.671 347.927 238.311C346.585 240.101 344.945 238.61 343.902 236.075Z" fill="#1D1D1B"/>
<path d="M348.077 248.302C349.419 249.942 348.823 260.38 346.884 261.125C344.648 262.02 342.56 253.819 344.051 250.538C345.095 248.003 346.735 246.661 348.077 248.302Z" fill="#1D1D1B"/>
<path d="M350.611 247.854C349.269 247.854 348.226 245.767 348.226 243.083C348.226 240.399 349.269 238.311 350.611 238.311C351.953 238.311 352.997 240.399 352.997 243.083C352.997 245.767 351.953 247.854 350.611 247.854Z" fill="#1D1D1B"/>
<path d="M352.102 247.854C350.76 247.854 349.716 245.767 349.716 243.083C349.716 240.399 350.76 238.311 352.102 238.311C353.444 238.311 354.488 240.399 354.488 243.083C354.488 245.767 353.444 247.854 352.102 247.854Z" fill="#CCCCCC"/>
<path d="M357.321 255.609C355.979 259.784 354.041 263.064 351.655 265.003C350.164 260.529 349.866 252.03 351.655 251.285C352.997 250.688 355.532 253.074 357.321 255.609Z" fill="#1D1D1B"/>
<path d="M352.252 221.76C354.638 223.997 356.427 227.426 357.769 231.751C355.98 234.285 353.445 236.671 352.103 235.926C350.165 235.18 350.463 226.084 352.252 221.76Z" fill="#1D1D1B"/>
<path d="M359.259 244.724C359.11 247.855 358.663 250.837 358.067 253.521C356.277 251.285 354.637 247.706 355.532 246.364C355.979 245.171 357.47 244.724 359.259 244.724Z" fill="#1D1D1B"/>
<path d="M358.365 233.987C358.961 236.671 359.26 239.803 359.26 242.934C357.619 242.785 355.979 242.338 355.383 241.294C354.637 239.803 356.427 236.224 358.365 233.987Z" fill="#1D1D1B"/>
<path d="M352.103 246.513C351.208 246.513 350.612 245.022 350.612 243.083C350.612 241.145 351.357 239.654 352.103 239.654C352.998 239.654 353.594 241.145 353.594 243.083C353.743 245.022 352.998 246.513 352.103 246.513Z" fill="#878B8C"/>
<path d="M389.229 220.568V242.636C389.229 250.241 385.948 255.609 378.643 256.951C379.09 243.68 377.152 195.07 351.656 199.394C351.357 199.394 351.208 199.543 350.91 199.543C324.221 205.06 327.651 247.259 328.694 258.144H243.857C245.05 244.575 240.726 194.026 217.466 194.026C185.559 194.026 185.857 249.048 186.006 258.144H57.4827C48.984 258.144 41.9764 251.136 41.9764 242.636V239.207C41.9764 231.751 43.1692 224.445 45.5547 217.735C45.8529 216.84 46.1511 215.946 46.5984 215.051C50.7732 204.464 57.6318 195.219 66.4286 188.062C67.1741 187.465 67.9196 186.869 68.8142 186.272C79.6985 178.22 93.1174 173.449 107.729 173.449H342.113C368.057 173.598 389.229 194.623 389.229 220.568Z" fill="#08BA58"/>
<path d="M122.341 258.143H44.809C38.0995 258.143 32.7319 252.775 32.7319 246.065V241.592C32.7319 234.882 38.0995 229.514 44.809 229.514H122.341C129.05 229.514 134.418 234.882 134.418 241.592V246.065C134.418 252.775 129.05 258.143 122.341 258.143Z" fill="#08BA58"/>
<path d="M389.229 220.568V242.636C389.229 250.241 385.949 255.609 378.643 256.951C379.09 243.68 377.152 195.07 351.656 199.394C348.376 196.114 359.707 194.026 354.936 194.026C323.029 194.026 323.327 249.048 323.476 258.144H243.857C245.05 244.575 240.726 194.026 217.466 194.026C185.559 194.026 185.857 249.048 186.006 258.144H180.042C171.544 258.144 167.965 251.136 167.965 242.636V239.207C167.965 231.751 169.158 224.445 171.544 217.735C171.842 216.84 172.14 215.946 172.587 215.051C176.762 204.464 183.621 195.219 192.418 188.062C193.163 187.465 193.909 186.869 194.803 186.272C205.687 178.22 219.106 173.449 233.718 173.449H342.113C368.057 173.598 389.229 194.623 389.229 220.568Z" fill="#009E2D"/>
<path d="M134.715 206.849L128.453 233.54C127.857 235.776 126.068 237.417 123.831 237.566C123.682 237.566 123.384 237.566 123.235 237.566H122.042L77.6104 237.118C74.9266 237.118 72.6901 235.031 72.3919 232.347C72.3919 232.049 72.3919 231.9 72.3919 231.601V231.452L72.6901 224.295C72.8392 219.672 73.5847 214.901 75.0757 210.577C75.8212 208.34 76.5667 206.402 77.4613 204.463C78.654 201.928 81.3378 200.288 84.1707 200.288H129.646C132.926 200.139 135.461 203.419 134.715 206.849Z" fill="#474E4F"/>
<path d="M134.715 206.849L128.453 233.54C127.857 235.776 126.068 237.417 123.831 237.566L81.6361 237.118C78.9523 237.118 76.7158 235.031 76.4176 232.347C76.4176 232.049 76.4176 231.9 76.4176 231.601V231.452L76.7158 224.295C76.8649 219.672 77.6104 214.901 79.1014 210.577C79.8469 208.34 80.5924 206.402 81.487 204.463C82.6798 201.928 85.3636 200.288 88.1964 200.288H129.646C132.926 200.139 135.461 203.419 134.715 206.849Z" fill="#272C3B"/>
<path d="M163.343 242.934C163.343 244.574 162.598 246.065 161.554 247.258C160.51 248.302 159.019 249.048 157.23 249.048H138.891C135.611 249.048 132.927 246.364 132.927 243.083C132.927 241.443 133.672 239.952 134.716 238.759C135.76 237.715 137.251 236.97 139.04 236.97H157.23C160.659 236.97 163.343 239.654 163.343 242.934Z" fill="#474E4F"/>
<path d="M163.343 242.934C163.343 244.574 162.597 246.065 161.553 247.258C160.51 248.302 159.019 249.048 157.23 249.048H142.767C139.487 249.048 136.803 246.364 136.803 243.083C136.803 241.443 137.548 239.952 138.592 238.759C139.636 237.715 141.127 236.97 142.916 236.97H157.379C160.659 236.97 163.343 239.654 163.343 242.934Z" fill="#272C3B"/>
<path d="M159.765 243.083C159.765 245.32 158.125 247.258 156.037 247.258C153.95 247.258 152.31 245.469 152.31 243.083C152.31 240.846 153.95 238.908 156.037 238.908C158.125 238.908 159.765 240.846 159.765 243.083Z" fill="white"/>
<path d="M69.4107 242.934C69.4107 244.574 68.6652 246.065 67.6215 247.258C66.5779 248.302 65.0869 249.048 63.2977 249.048H44.9584C41.6783 249.048 38.9945 246.364 38.9945 243.083C38.9945 241.443 39.74 239.952 40.7837 238.759C41.8274 237.715 43.3184 236.97 45.1075 236.97H63.2977C66.5778 236.97 69.4107 239.654 69.4107 242.934Z" fill="#474E4F"/>
<path d="M69.41 242.934C69.41 244.574 68.6646 246.065 67.6209 247.258C66.5772 248.302 65.0862 249.048 63.297 249.048H48.8343C45.5542 249.048 42.8704 246.364 42.8704 243.083C42.8704 241.443 43.6159 239.952 44.6596 238.759C45.7033 237.715 47.1943 236.97 48.9835 236.97H63.297C66.5772 236.97 69.41 239.654 69.41 242.934Z" fill="#272C3B"/>
<path d="M52.8602 243.083C52.8602 245.32 51.2201 247.258 49.1327 247.258C47.0454 247.258 45.4053 245.469 45.4053 243.083C45.4053 240.846 47.0454 238.908 49.1327 238.908C51.2201 238.908 52.8602 240.846 52.8602 243.083Z" fill="white"/>
<path d="M380.432 248.004C380.432 250.688 380.283 253.521 380.133 256.205C379.984 257.398 379.09 258.143 377.897 258.143V257.398C377.897 225.637 370.442 199.841 354.041 199.841C336.447 199.841 330.185 225.637 330.185 257.398C330.185 257.994 329.738 258.442 329.141 258.442H319.748C319.45 255.161 319.301 251.433 319.301 248.004C319.301 216.392 333.018 190.745 349.866 190.745C370.74 190.745 380.432 216.392 380.432 248.004Z" fill="#08BA58"/>
<path d="M247.286 255.161C247.286 256.951 245.944 258.293 244.155 258.293H243.558C242.813 224.892 234.612 198.499 216.571 198.499C201.363 198.499 192.716 218.182 192.119 254.118C192.119 256.504 190.181 258.293 187.795 258.293H179.595C179.595 257.249 179.595 256.205 179.595 255.161C179.595 219.375 192.119 190.298 214.931 190.298C238.191 190.298 247.286 219.375 247.286 255.161Z" fill="#08BA58"/>
<path d="M304.988 173.896C304.988 173.747 304.988 173.598 304.988 173.449H304.093C304.093 173.598 304.093 173.747 304.093 173.896C304.54 183.141 304.838 192.684 304.838 202.227C304.838 215.2 304.391 228.172 303.347 240.847C303.049 245.022 299.471 248.153 295.445 248.153H258.618C257.872 248.153 257.127 247.855 256.53 247.259C255.934 246.662 255.636 245.917 255.636 245.171C255.636 236.373 254.741 214.305 245.646 200.587C243.26 197.008 241.919 192.833 241.769 188.509C241.62 183.588 241.471 178.518 241.173 173.598C241.173 173.449 241.173 173.3 241.173 173.15H240.278C240.278 173.3 240.278 173.449 240.278 173.598C240.577 178.518 240.726 183.439 240.875 188.36C241.024 192.833 242.366 197.157 244.901 200.885C253.847 214.305 254.741 236.224 254.741 245.022C254.741 246.066 255.188 246.96 255.785 247.706C256.53 248.451 257.425 248.899 258.469 248.899H295.296C299.918 248.899 303.795 245.32 304.093 240.698C304.988 228.172 305.584 215.051 305.584 202.078C305.733 192.684 305.584 183.141 304.988 173.896Z" fill="#008923"/>
<path d="M295.892 190.894C295.892 191.789 295.594 192.683 294.998 193.131C294.401 193.727 293.656 194.025 292.761 194.025H284.262C282.473 194.025 280.982 192.534 280.982 190.745V190.596C280.982 189.701 281.43 188.956 281.877 188.359C282.473 187.763 283.219 187.464 284.113 187.464H292.612C294.401 187.614 295.892 189.105 295.892 190.894Z" fill="#008923"/>
<path d="M295.893 190.746H280.834C280.834 189.851 281.281 189.106 281.728 188.509C282.325 187.913 283.07 187.614 283.965 187.614H292.463C294.402 187.614 295.893 189.106 295.893 190.746Z" fill="#08BA58"/>
<path d="M134.567 216.393H67.7702V227.576H134.567V216.393Z" fill="#08BA58"/>
<path d="M232.525 179.114H221.789C220.149 179.114 218.807 177.772 218.807 176.132V175.536C218.807 173.895 220.149 172.553 221.789 172.553H232.525C234.165 172.553 235.507 173.895 235.507 175.536V176.132C235.507 177.772 234.165 179.114 232.525 179.114Z" fill="#272C3B"/>
<path d="M233.42 179.86H249.821C252.803 179.86 255.189 177.474 255.189 174.492C255.189 167.931 249.821 162.563 243.261 162.563H232.973C230.14 162.563 227.903 164.799 227.903 167.633V174.343C227.903 177.474 230.289 179.86 233.42 179.86Z" fill="#272C3B"/>
<path d="M67.9191 192.088C72.243 192.088 74.9268 196.71 72.8394 200.438C71.4975 202.973 70.1556 205.508 69.1119 208.192C68.8137 209.086 68.3664 209.981 68.0682 210.876C67.0246 213.709 64.0426 217.586 59.1223 219.226L57.4822 219.673V192.088H67.9191Z" fill="#009E2D"/>
<path d="M166.474 192.088C171.543 192.088 174.674 197.456 172.289 201.929C171.245 204.017 170.201 206.104 169.307 208.341C169.009 209.235 168.561 210.13 168.263 211.025C167.219 213.858 164.237 217.735 159.317 219.375L157.677 219.822V192.237H166.474V192.088Z" fill="#009E2D"/>
<path d="M67.6216 205.954C67.6216 212.813 62.5522 218.48 56.29 218.48C54.5008 218.48 52.7116 218.032 51.2207 217.138C47.4932 215.05 44.9585 210.875 44.9585 205.954C44.9585 199.095 50.0279 193.429 56.29 193.429C59.4211 193.429 62.254 194.92 64.3414 197.157C66.4288 199.393 67.6216 202.525 67.6216 205.954Z" fill="white"/>
<path d="M67.6217 205.954C67.6217 212.813 62.5523 218.48 56.2902 218.48C54.501 218.48 52.7118 218.032 51.2208 217.138C54.2028 208.191 59.1231 201.034 64.3415 197.157C66.4289 199.393 67.6217 202.525 67.6217 205.954Z" fill="#D8D8D8"/>
<path d="M56.2896 219.822C54.2022 219.822 52.413 219.375 50.6238 218.331C46.2999 215.945 43.6161 211.174 43.6161 205.955C43.6161 198.35 49.2819 192.088 56.2896 192.088C59.7189 192.088 62.999 193.579 65.3846 196.263C67.7702 198.947 68.963 202.376 68.963 205.955C69.1121 213.56 63.2972 219.822 56.2896 219.822ZM56.2896 194.772C50.7729 194.772 46.2999 199.841 46.2999 205.955C46.2999 210.279 48.3873 214.007 51.8166 215.945C53.1585 216.691 54.6495 217.138 56.1405 217.138C61.6571 217.138 66.1301 212.069 66.1301 205.955C66.1301 202.973 65.0864 200.14 63.1481 198.052C61.508 195.965 58.9734 194.772 56.2896 194.772Z" fill="#272C3B"/>
<path d="M168.114 205.954C168.114 212.813 163.044 218.48 156.782 218.48C154.993 218.48 153.204 218.032 151.713 217.138C147.985 215.05 145.451 210.875 145.451 205.954C145.451 199.095 150.52 193.429 156.782 193.429C159.913 193.429 162.746 194.92 164.833 197.157C166.921 199.393 168.114 202.525 168.114 205.954Z" fill="white"/>
<path d="M168.114 205.954C168.114 212.813 163.045 218.48 156.782 218.48C154.993 218.48 153.204 218.032 151.713 217.138C154.695 208.191 159.615 201.034 164.834 197.157C166.921 199.393 168.114 202.525 168.114 205.954Z" fill="#D8D8D8"/>
<path d="M156.783 219.822C154.695 219.822 152.906 219.375 151.117 218.331C146.793 215.945 144.109 211.174 144.109 205.955C144.109 198.35 149.775 192.088 156.783 192.088C160.212 192.088 163.492 193.579 165.878 196.263C168.263 198.947 169.456 202.376 169.456 205.955C169.456 213.56 163.79 219.822 156.783 219.822ZM156.783 194.772C151.266 194.772 146.793 199.841 146.793 205.955C146.793 210.279 148.88 214.007 152.31 215.945C153.652 216.691 155.143 217.138 156.634 217.138C162.15 217.138 166.623 212.069 166.623 205.955C166.623 202.973 165.58 200.14 163.641 198.052C161.852 195.965 159.467 194.772 156.783 194.772Z" fill="#272C3B"/>
<path d="M266.37 171.063C266.37 171.063 265.327 169.571 263.09 169.422C260.704 169.273 258.319 170.317 257.424 171.212C256.53 172.106 256.082 173.597 256.082 173.597C256.082 173.597 258.468 173.448 259.661 173.896C260.704 174.343 261.45 174.939 262.345 175.089C263.239 175.238 265.177 174.939 265.177 174.939L266.37 171.063Z" fill="#FFB286"/>
<path d="M289.48 160.475C292.91 159.879 294.848 165.694 295.743 167.782C296.637 169.72 302.005 182.991 290.375 184.184C278.894 185.377 265.177 176.281 265.177 176.281C265.177 176.281 263.686 174.939 264.134 173.299C264.581 171.658 266.072 170.615 266.072 170.615C266.072 170.615 283.964 177.772 287.393 176.43C290.822 175.088 287.244 165.843 287.244 165.843C287.244 165.843 285.604 161.221 289.48 160.475Z" fill="#FF4537"/>
<path d="M389.825 281.404C389.825 283.343 389.079 285.132 387.738 286.474C386.396 287.816 384.607 288.562 382.668 288.562H53.6061C49.5804 288.562 46.4493 285.43 46.4493 281.404H389.825Z" fill="#878B8C"/>
</svg>
