<svg id="Capa_1" data-name="Capa 1" xmlns="http://www.w3.org/2000/svg" viewBox="0 0 887 478"><defs><style>.cls-1{fill:#aa8566;}.cls-12,.cls-2{fill:#d61309;}.cls-3{fill:#ff8a80;}.cls-4{fill:#ffe57f;}.cls-12,.cls-5{opacity:0.3;}.cls-14,.cls-6{fill:#fff;}.cls-7{fill:#fff8d1;}.cls-8{fill:#231f20;}.cls-10,.cls-8{fill-rule:evenodd;}.cls-9{fill:#1bf4f4;}.cls-11{fill:none;stroke:#62211d;stroke-linecap:round;stroke-linejoin:round;stroke-width:2px;stroke-dasharray:0 4;}.cls-13{font-size:17px;}.cls-13,.cls-14{font-family:Arial-BoldMT, Arial;font-weight:700;}.cls-14{font-size:33.1px;letter-spacing:-0.04em;}</style></defs><title>modelocanva</title><path class="cls-1" d="M48,164.16c2.37-9,8-2,7.53,1.75A74.94,74.94,0,0,1,53.6,176.3L53,179H69.1a4.47,4.47,0,0,1,1.14,8.79H71a4.48,4.48,0,0,1,0,9h-.59a4.47,4.47,0,0,1-1.06,8.81h-2A4.49,4.49,0,0,1,71.9,210a4.74,4.74,0,0,1-4.48,4.76H36.2c-1.63,0-4.94-1.24-4.94-2.86V182.52C31.26,179,44.17,178.81,48,164.16Z"/><path d="M67.42,215.24H36.2c-1.66,0-5.45-1.27-5.45-3.36V182.52c0-1.5,1.66-2.38,4-3.6,4.12-2.19,10.35-5.5,12.8-14.89,1-4,2.68-4.79,3.88-4.79a3.9,3.9,0,0,1,2.8,1.53A7.24,7.24,0,0,1,56,166a74.82,74.82,0,0,1-2,10.47l-.47,2H69.1a5,5,0,0,1,3,8.91,5,5,0,0,1,.2,9.67,5,5,0,0,1-2,8.9A5,5,0,0,1,72.41,210,5.26,5.26,0,0,1,67.42,215.24Zm-16-55c-1.19,0-2.22,1.43-2.9,4-2.57,9.82-9,13.25-13.31,15.52-1.91,1-3.43,1.82-3.43,2.71v29.35c0,1.14,2.88,2.35,4.44,2.35H67.42a4.23,4.23,0,0,0,4-4.25,4,4,0,0,0-4-4,.5.5,0,1,1,0-1h2a4,4,0,0,0,.94-7.82.5.5,0,0,1,.12-1H71a4,4,0,0,0,0-7.94h-.8a.5.5,0,0,1-.13-1,4,4,0,0,0-1-7.79H53a.51.51,0,0,1-.49-.62l.63-2.66A75.4,75.4,0,0,0,55,165.85a6.26,6.26,0,0,0-1.6-4.41A2.94,2.94,0,0,0,51.4,160.25Z"/><path class="cls-2" d="M17.68,217.61h11a2.47,2.47,0,0,0,2.59-2.3V178.53a2.47,2.47,0,0,0-2.59-2.31h-11a2.47,2.47,0,0,0-2.59,2.31v36.78A2.47,2.47,0,0,0,17.68,217.61Z"/><path d="M28.67,218.12h-11a3,3,0,0,1-3.09-2.81V178.53a3,3,0,0,1,3.09-2.82h11a3,3,0,0,1,3.09,2.82v36.78A3,3,0,0,1,28.67,218.12Zm-11-41.39a2,2,0,0,0-2.08,1.81v36.78a2,2,0,0,0,2.08,1.8h11a2,2,0,0,0,2.08-1.8V178.53a2,2,0,0,0-2.08-1.81Z"/><rect class="cls-3" x="20.15" y="182.08" width="6.05" height="6.05" transform="translate(-124.09 70.59) rotate(-44.99)"/><path d="M23.17,189.89a.5.5,0,0,1-.36-.15l-4.28-4.28a.5.5,0,0,1,0-.71l4.28-4.28a.52.52,0,0,1,.71,0l4.28,4.28a.51.51,0,0,1,0,.71l-4.28,4.28A.5.5,0,0,1,23.17,189.89Zm-3.56-4.78,3.56,3.56,3.56-3.56-3.56-3.56Z"/><path class="cls-1" d="M108.09,164.16c-2.37-9-8-2-7.53,1.75a74.94,74.94,0,0,0,1.94,10.39l.63,2.66H87a4.47,4.47,0,0,0-1.14,8.79h-.8a4.48,4.48,0,0,0,0,9h.59a4.47,4.47,0,0,0,1.06,8.81h2A4.49,4.49,0,0,0,84.19,210a4.74,4.74,0,0,0,4.48,4.76H119.9c1.63,0,4.94-1.24,4.94-2.86V182.52C124.84,179,111.92,178.81,108.09,164.16Z"/><path d="M83.69,210a5,5,0,0,1,2.09-4.05,5,5,0,0,1-2-8.9,5,5,0,0,1,.2-9.67,5,5,0,0,1,3-8.91h15.49l-.47-2a74.82,74.82,0,0,1-2-10.47,7.24,7.24,0,0,1,1.84-5.21,3.9,3.9,0,0,1,2.8-1.53c1.19,0,2.84.83,3.88,4.79,2.46,9.39,8.68,12.7,12.8,14.89,2.3,1.22,4,2.1,4,3.6v29.35c0,2.09-3.78,3.36-5.45,3.36H88.67A5.26,5.26,0,0,1,83.69,210Zm19-48.54a6.26,6.26,0,0,0-1.6,4.41A75.4,75.4,0,0,0,103,176.19l.63,2.66a.51.51,0,0,1-.49.62H87a4,4,0,0,0-1,7.79.5.5,0,0,1-.13,1h-.8a4,4,0,0,0,0,7.94h.59a.5.5,0,0,1,.12,1A4,4,0,0,0,86.7,205h2a.5.5,0,1,1,0,1,4,4,0,0,0-4,4,4.23,4.23,0,0,0,4,4.25H119.9c1.55,0,4.44-1.21,4.44-2.35V182.52c0-.89-1.51-1.7-3.43-2.71-4.28-2.27-10.74-5.7-13.31-15.52-.68-2.6-1.71-4-2.9-4A2.94,2.94,0,0,0,102.66,161.44Z"/><path class="cls-2" d="M138.42,217.61h-11a2.47,2.47,0,0,1-2.59-2.3V178.53a2.47,2.47,0,0,1,2.59-2.31h11a2.47,2.47,0,0,1,2.59,2.31v36.78A2.47,2.47,0,0,1,138.42,217.61Z"/><path d="M124.34,215.31V178.53a3,3,0,0,1,3.09-2.82h11a3,3,0,0,1,3.09,2.82v36.78a3,3,0,0,1-3.09,2.81h-11A3,3,0,0,1,124.34,215.31Zm3.09-38.58a2,2,0,0,0-2.08,1.81v36.78a2,2,0,0,0,2.08,1.8h11a2,2,0,0,0,2.08-1.8V178.53a2,2,0,0,0-2.08-1.81Z"/><rect class="cls-3" x="129.9" y="182.08" width="6.05" height="6.05" transform="translate(-91.96 148.23) rotate(-45.01)"/><path d="M132.57,189.74l-4.28-4.28a.51.51,0,0,1,0-.71l4.28-4.28a.52.52,0,0,1,.71,0l4.28,4.28a.5.5,0,0,1,0,.71l-4.28,4.28a.51.51,0,0,1-.71,0Zm.36-8.2-3.56,3.56,3.56,3.56,3.56-3.56Z"/><path class="cls-2" d="M781.85,154.78a22.61,22.61,0,1,1-8.27,30.9A22.62,22.62,0,0,1,781.85,154.78Z"/><path d="M793.17,197.6a23.24,23.24,0,1,1,11.6-3.12A23.29,23.29,0,0,1,793.17,197.6Zm0-45.23a22,22,0,1,0,19.07,11A22,22,0,0,0,793.13,152.37Z"/><path class="cls-4" d="M807.32,192l16.42,28.43a3.47,3.47,0,0,1-1.27,4.72h0a3.46,3.46,0,0,1-4.71-1.26l-16.42-28.43a23,23,0,0,0,6-3.45Z"/><path d="M820.76,226.23a4.09,4.09,0,0,1-3.53-2l-16.42-28.43a.62.62,0,0,1,.31-.88,22.41,22.41,0,0,0,5.82-3.36.62.62,0,0,1,.92.17l16.42,28.43a4.07,4.07,0,0,1-3.52,6.1Zm-18.53-30.47,16.06,27.82a2.85,2.85,0,0,0,2.46,1.41,2.82,2.82,0,0,0,1.4-.38,2.85,2.85,0,0,0,1-3.88l-16.07-27.82a23.54,23.54,0,0,1-2.37,1.56A24,24,0,0,1,802.23,195.76Z"/><g class="cls-5"><path class="cls-6" d="M784.52,159.42A17.26,17.26,0,1,1,778.21,183,17.26,17.26,0,0,1,784.52,159.42Z"/></g><path d="M793.17,192.25a17.88,17.88,0,0,1-17.28-22.5,17.88,17.88,0,0,1,17.25-13.25,17.88,17.88,0,0,1,0,35.75Zm0-34.52A16.64,16.64,0,1,0,807.57,166,16.66,16.66,0,0,0,793.14,157.72Z"/><g class="cls-5"><polygon class="cls-2" points="244.72 72.81 290.93 72.81 303.37 85.23 303.37 146.66 244.72 146.66 244.72 72.81"/></g><path d="M303.37,147.28H244.71a.62.62,0,0,1-.62-.62V72.81a.62.62,0,0,1,.62-.62h46.22a.62.62,0,0,1,.44.18L303.8,84.8a.62.62,0,0,1,.18.44v61.43A.62.62,0,0,1,303.37,147.28Zm-58-1.23h57.42V85.49L290.68,73.42H245.33Z"/><polyline class="cls-2" points="302.44 85.23 290.93 85.23 290.93 73.84"/><path d="M302.44,85.85H290.93a.62.62,0,0,1-.62-.62V73.84a.62.62,0,0,1,1.23,0V84.61h10.89a.62.62,0,1,1,0,1.23Z"/><polygon class="cls-4" points="274.04 84.79 279.62 102.06 297.76 102.02 283.06 112.66 288.7 129.91 274.04 119.22 259.37 129.91 265.02 112.66 250.31 102.02 268.47 102.06 274.04 84.79"/><path d="M288.7,130.53a.62.62,0,0,1-.36-.12L274,120l-14.3,10.43a.62.62,0,0,1-.95-.69l5.5-16.82L250,102.52a.62.62,0,0,1,.36-1.12h0l17.71,0,5.43-16.85a.62.62,0,0,1,1.17,0l5.44,16.85,17.7,0h0a.62.62,0,0,1,.36,1.12L283.79,112.9l5.5,16.82a.62.62,0,0,1-.59.81ZM274,118.6a.62.62,0,0,1,.36.12l13.12,9.57-5.05-15.43a.62.62,0,0,1,.23-.69l13.15-9.52-16.23,0h0a.62.62,0,0,1-.59-.43L274,86.8l-5,15.46a.61.61,0,0,1-.59.43h0l-16.25,0,13.16,9.52a.62.62,0,0,1,.23.69l-5.05,15.43,13.12-9.57A.62.62,0,0,1,274,118.6Z"/><polygon class="cls-4" points="221.44 247.51 236.1 247.51 290.48 247.51 305.12 247.51 305.12 262.33 305.12 279.06 305.12 293.87 290.48 293.87 236.1 293.87 221.44 293.87 221.44 279.06 221.44 262.33 221.44 247.51"/><path d="M305.12,294.57H221.44a.7.7,0,0,1-.7-.7V247.51a.7.7,0,0,1,.7-.7h83.68a.7.7,0,0,1,.7.7v46.36A.7.7,0,0,1,305.12,294.57Zm-83-1.4h82.28v-45H222.13Z"/><path class="cls-2" d="M236.77,251.44h53A11.52,11.52,0,0,0,301.31,263v15.45A11.53,11.53,0,0,0,289.79,290h-53a11.53,11.53,0,0,0-11.52-11.53V263A11.53,11.53,0,0,0,236.77,251.44Z"/><path d="M289.79,290.65h-53a.7.7,0,0,1-.7-.7,10.84,10.84,0,0,0-10.83-10.84.7.7,0,0,1-.7-.7V263a.7.7,0,0,1,.7-.7,10.84,10.84,0,0,0,10.83-10.82.7.7,0,0,1,.7-.7h53a.7.7,0,0,1,.7.7,10.84,10.84,0,0,0,10.82,10.82.7.7,0,0,1,.7.7v15.45a.7.7,0,0,1-.7.7A10.84,10.84,0,0,0,290.49,290,.7.7,0,0,1,289.79,290.65Zm-52.34-1.4h51.66a12.25,12.25,0,0,1,11.5-11.51V263.64a12.24,12.24,0,0,1-11.5-11.5H237.45a12.24,12.24,0,0,1-11.51,11.5v14.09A12.25,12.25,0,0,1,237.45,289.25Z"/><path class="cls-7" d="M263.29,259.16a11.53,11.53,0,1,1-11.53,11.53A11.53,11.53,0,0,1,263.29,259.16Z"/><path d="M263.29,282.92a12.23,12.23,0,1,1,12.22-12.22A12.24,12.24,0,0,1,263.29,282.92Zm0-23.06a10.83,10.83,0,1,0,10.82,10.83A10.85,10.85,0,0,0,263.29,259.86Z"/><path class="cls-8" d="M259.61,276l-.37.61-.05.09m0,0v-.91m-.28,1.37h.28v-.46l-.2.32Zm4.92-5.64c1.25.54,2.28,1.23,2.28,2.66a2.71,2.71,0,0,1-2.28,2.79Zm-.92-7.28v4.91c-1.21-.5-2.15-1.11-2.15-2.42A2.36,2.36,0,0,1,262.9,264.22Zm-3.71,11.55c-.26,0-.8.86-.8,1.23,0,.62,1.94,1.61,4.52,1.66v1.12c0,.25.14.37.45.37s.46-.12.46-.37v-1.14c2.66-.23,4.35-1.87,4.35-4.48,0-3.14-2.32-4-4.35-4.69v-5.32a7.6,7.6,0,0,1,2.87.86c.23,0,.73-.86.73-1.21,0-.75-2.31-1.27-3.6-1.3v-.91c0-.26-.14-.37-.46-.37s-.45.11-.45.37v1c-2.57.27-4.22,1.82-4.22,4.06,0,2.95,2.22,3.75,4.22,4.52V277a6.38,6.38,0,0,1-3.11-.94h0l-.17-.11A1.31,1.31,0,0,0,259.19,275.77Z"/><path d="M263.36,280.24c-.36,0-.54-.15-.54-.45v-1c-2.44-.08-4.52-1-4.52-1.75,0-.37.54-1.31.89-1.31a1.2,1.2,0,0,1,.46.21l.18.11a6.4,6.4,0,0,0,3,.93V271.2l-.05,0c-2-.75-4.17-1.61-4.17-4.56,0-2.25,1.62-3.83,4.22-4.14v-.88c0-.45.41-.45.54-.45s.55,0,.55.45v.82c1.27,0,3.6.55,3.6,1.38,0,.35-.51,1.3-.82,1.3a1.32,1.32,0,0,1-.51-.2,5,5,0,0,0-2.27-.66v5.17c2,.74,4.35,1.58,4.35,4.75,0,2.59-1.63,4.29-4.35,4.56v1.06C263.91,280.09,263.72,280.24,263.36,280.24Zm-4.25-4.34a2.07,2.07,0,0,0-.63,1.1c0,.52,1.83,1.52,4.43,1.58H263v1.21c0,.17.06.28.37.28s.38-.11.38-.28v-1.22h.08c2.68-.23,4.28-1.88,4.28-4.39,0-3.06-2.27-3.88-4.26-4.6l-.09,0v-5.47h.09a5.17,5.17,0,0,1,2.43.68,1.37,1.37,0,0,0,.43.18,1.89,1.89,0,0,0,.64-1.13c0-.63-2.13-1.18-3.51-1.21h-.09v-1c0-.18-.06-.28-.38-.28s-.37.1-.37.28v1h-.08c-2.56.27-4.14,1.79-4.14,4,0,2.83,2.06,3.63,4.06,4.4l.17.06v6h-.09a6.5,6.5,0,0,1-3.15-.95h0l-.09-.06-.36.61v.52h-.52l.36-.57Zm.17,0v.47l.21-.35Zm4.46,1.17v-5.69l.12.05c1.21.53,2.33,1.22,2.33,2.74a2.8,2.8,0,0,1-2.35,2.87Zm.17-5.42v5.21a2.63,2.63,0,0,0,2.1-2.68C266,272.8,265,272.14,263.91,271.64Zm-.92-2.38-.12,0c-1.14-.47-2.2-1.1-2.2-2.5a2.44,2.44,0,0,1,2.22-2.57l.1,0Zm-.17-4.93a2.26,2.26,0,0,0-2,2.38c0,1.19.78,1.79,2,2.29Z"/><rect class="cls-4" x="415.09" y="165.01" width="62.23" height="66.67"/><path d="M477.31,232.4H415.09a.72.72,0,0,1-.72-.72V165a.72.72,0,0,1,.72-.72h62.23a.72.72,0,0,1,.72.72v66.67A.72.72,0,0,1,477.31,232.4ZM415.81,231h60.79V165.73H415.81Z"/><path d="M461.29,174.43a.72.72,0,0,1-.72-.72V160.28c0-9.54-7.26-13.89-14-13.89s-14,4.35-14,13.89v13.43a.72.72,0,1,1-1.44,0V160.28c0-10.53,8-15.32,15.44-15.32S462,149.75,462,160.28v13.43A.72.72,0,0,1,461.29,174.43Z"/><path class="cls-7" d="M431.85,171a2.68,2.68,0,1,1-2.68,2.68A2.68,2.68,0,0,1,431.85,171Z"/><path d="M431.85,177.12a3.4,3.4,0,1,1,3.4-3.4A3.41,3.41,0,0,1,431.85,177.12Zm0-5.36a2,2,0,1,0,2,2A2,2,0,0,0,431.85,171.75Z"/><circle class="cls-7" cx="461.29" cy="173.72" r="2.68"/><path d="M461.29,177.12a3.4,3.4,0,1,1,3.4-3.4A3.41,3.41,0,0,1,461.29,177.12Zm0-5.36a2,2,0,1,0,2,2A2,2,0,0,0,461.29,171.75Z"/><path class="cls-3" d="M434.95,200.78c-.16-4.28.66-7,4.21-9.09,3.93-2.35,8.84-1.37,11,2.18,3.86,6.44.6,17.12-2.65,27.82-11-2.17-21.93-4.36-25.79-10.8-2.13-3.55-.67-8.33,3.25-10.69C428.5,198.08,431.24,198.63,434.95,200.78Z"/><path d="M447.44,222.41h-.11c-10.93-2.17-22.23-4.41-26.26-11.13-2.33-3.88-.76-9.12,3.49-11.68a9.07,9.07,0,0,1,4.7-1.45,10.56,10.56,0,0,1,4.94,1.41c0-3.6,1-6.32,4.58-8.48a9.6,9.6,0,0,1,4.92-1.38,8.06,8.06,0,0,1,7,3.81c4,6.7.67,17.69-2.56,28.32A.83.83,0,0,1,447.44,222.41Zm-18.18-22.83a7.59,7.59,0,0,0-4,1.24c-3.57,2.15-4.92,6.51-3,9.71,3.63,6.06,14.25,8.27,24.67,10.33,3.08-10.16,6.15-20.58,2.53-26.62a6.64,6.64,0,0,0-5.8-3.11,8.16,8.16,0,0,0-4.18,1.18c-3.05,1.83-4,4-3.86,8.45a.72.72,0,0,1-1.08.65A10.64,10.64,0,0,0,429.27,199.58Z"/><path class="cls-3" d="M457.89,192.55c.15-4.28-.67-7-4.22-9.09-3.92-2.35-8.84-1.37-11,2.18a12.72,12.72,0,0,0-1.64,5.18,7.7,7.7,0,0,1,9,3c2.74,4.57,1.89,11.29,0,18.63,9.24-1.94,17.73-4.33,21-9.83,2.12-3.56.66-8.34-3.26-10.7C464.34,189.85,461.59,190.4,457.89,192.55Z"/><path d="M450.12,213.22a.72.72,0,0,1-.7-.9c1.53-5.93,2.92-13.35.08-18.08a6.64,6.64,0,0,0-5.8-3.11,8,8,0,0,0-2.41.38.73.73,0,0,1-.67-.13.72.72,0,0,1-.26-.64,13.3,13.3,0,0,1,1.74-5.47,8,8,0,0,1,7-3.81,9.59,9.59,0,0,1,4.92,1.38c3.6,2.16,4.54,4.88,4.58,8.48a10.55,10.55,0,0,1,4.94-1.41,9,9,0,0,1,4.69,1.45c4.25,2.55,5.82,7.8,3.51,11.68-3.58,6-13,8.37-21.5,10.16Zm-6.42-23.53a8.07,8.07,0,0,1,7,3.81c2.92,4.87,1.91,11.76.36,18.06,7.91-1.7,16.3-4,19.43-9.25,1.91-3.21.56-7.57-3-9.71a7.55,7.55,0,0,0-4-1.24,10.61,10.61,0,0,0-5.31,1.82.72.72,0,0,1-1.08-.65c.16-4.49-.82-6.62-3.87-8.45a8.15,8.15,0,0,0-4.18-1.18,6.62,6.62,0,0,0-5.79,3.11,11.2,11.2,0,0,0-1.39,3.85A9.31,9.31,0,0,1,443.7,189.69Z"/><path class="cls-3" d="M620.6,93.53c3.58-6.48,7.16-9.72,14.32-9.72,7.9,0,14.32,5.8,14.32,13,0,13-14.32,25.93-28.63,38.89C606.29,122.7,592,109.74,592,96.77c0-7.15,6.41-13,14.32-13C613.44,83.81,617,87,620.6,93.53Z"/><path d="M620.6,136.14a.48.48,0,0,1-.32-.12c-14.15-12.81-28.79-26.06-28.79-39.24,0-7.41,6.64-13.43,14.79-13.43,7.37,0,11,3.51,14.32,9.22,3.28-5.71,6.94-9.22,14.32-9.22,8.16,0,14.79,6,14.79,13.43,0,13.18-14.64,26.43-28.79,39.24A.48.48,0,0,1,620.6,136.14ZM606.29,84.29c-7.63,0-13.84,5.6-13.84,12.47,0,12.66,14.26,25.66,28.15,38.24,13.9-12.58,28.15-25.58,28.15-38.24,0-6.88-6.21-12.47-13.84-12.47-7.25,0-10.59,3.47-13.9,9.47a.5.5,0,0,1-.84,0C616.87,87.77,613.53,84.29,606.29,84.29Z"/><path class="cls-4" d="M620.6,265.28V299l-27.29-9.52V268.81L610,274ZM593.31,258l27.29,7.24-27.29-7.15Z"/><path d="M620.6,299.65a.64.64,0,0,1-.21,0L593.1,290.1a.65.65,0,0,1-.44-.61V268.81a.65.65,0,0,1,.84-.62l16.37,5.1,9.34-7.69-26.06-6.83a.65.65,0,0,1-.49-.63.74.74,0,0,1,.25-.56.67.67,0,0,1,.56-.16l27.23,7.22a.65.65,0,0,1,.56.64.66.66,0,0,1,0,.16V299a.65.65,0,0,1-.65.65ZM594,289l26,9.06V266.66l-9.52,7.85a.65.65,0,0,1-.61.12L594,269.69Z"/><path class="cls-4" d="M620.6,265.28v33.84l27.29-9.54V268.81l-16.7,5.2ZM647.89,258l-27.29,7.24,27.29-7.15Z"/><path d="M620.6,299.77a.65.65,0,0,1-.65-.65V265.3a.66.66,0,0,1,.07-.3h0l0-.06h0a.64.64,0,0,1,.34-.27h0l27.28-7.24a.65.65,0,0,1,.82.63.77.77,0,0,1-.49.72L622,265.59l9.34,7.69,16.36-5.1a.65.65,0,0,1,.84.62v20.77a.65.65,0,0,1-.44.61l-27.29,9.54A.65.65,0,0,1,620.6,299.77Zm.65-33.11V298.2l26-9.09V269.69l-15.86,4.94a.64.64,0,0,1-.61-.12Z"/><polygon class="cls-3" points="620.6 265.28 647.89 258.14 659.53 265.18 631.19 274.01 620.6 265.28"/><path d="M631.19,274.66a.65.65,0,0,1-.41-.15l-10.59-8.73a.65.65,0,0,1,.25-1.13l27.29-7.15a.65.65,0,0,1,.5.07l11.63,7a.65.65,0,0,1-.14,1.18l-28.33,8.83A.63.63,0,0,1,631.19,274.66Zm-9.2-9.07,9.34,7.69L658,265l-10.17-6.16Z"/><polygon class="cls-3" points="620.6 265.28 593.31 258.14 581.68 265.18 610.01 274.01 620.6 265.28"/><path d="M610,274.66a.63.63,0,0,1-.19,0l-28.34-8.83a.65.65,0,0,1-.14-1.18l11.63-7a.65.65,0,0,1,.5-.07l27.29,7.15a.65.65,0,0,1,.25,1.13l-10.59,8.73A.65.65,0,0,1,610,274.66ZM583.25,265l26.62,8.29,9.34-7.69-25.79-6.76Z"/><polygon class="cls-3" points="620.6 250.99 593.31 258.14 581.68 251.09 610.01 242.26 620.6 250.99"/><path d="M593.31,258.79a.65.65,0,0,1-.34-.09l-11.63-7a.65.65,0,0,1,.14-1.18l28.34-8.83a.65.65,0,0,1,.61.12L621,250.49a.65.65,0,0,1-.25,1.13l-27.29,7.15Zm-10.06-7.51,10.16,6.16,25.79-6.76L609.87,243Z"/><polygon class="cls-3" points="620.6 250.99 647.89 258.14 659.53 251.09 631.19 242.26 620.6 250.99"/><path d="M647.89,258.79l-.16,0-27.29-7.15a.65.65,0,0,1-.25-1.13l10.59-8.73a.64.64,0,0,1,.61-.12l28.33,8.83a.65.65,0,0,1,.14,1.18l-11.63,7A.65.65,0,0,1,647.89,258.79Zm-25.9-8.1,25.79,6.76L658,251.28,631.33,243Z"/><path class="cls-3" d="M213.88,390.17a36.57,36.57,0,1,1-36.57,36.57A36.57,36.57,0,0,1,213.88,390.17Z"/><path d="M213.88,463.93a37.19,37.19,0,1,1,37.18-37.19A37.23,37.23,0,0,1,213.88,463.93Zm0-73.15a36,36,0,1,0,36,36A36,36,0,0,0,213.88,390.78Z"/><path class="cls-7" d="M213.88,394.85A31.89,31.89,0,1,1,182,426.74,31.89,31.89,0,0,1,213.88,394.85Z"/><path d="M213.88,459.25a32.5,32.5,0,1,1,32.5-32.51A32.55,32.55,0,0,1,213.88,459.25Zm0-63.79a31.28,31.28,0,1,0,31.28,31.28A31.32,31.32,0,0,0,213.88,395.46Z"/><path class="cls-4" d="M215.55,429.27c3.91,1.7,7.11,3.83,7.11,8.31a8.43,8.43,0,0,1-7.11,8.67ZM212.7,406.6v15.28c-3.76-1.56-6.68-3.48-6.68-7.54C206,409.86,208.65,407.3,212.7,406.6Zm1.42-9.31c-1,0-1.42.36-1.42,1.13v3c-8,.85-13.14,5.69-13.14,12.66,0,9.17,6.89,11.65,13.14,14.07v18.34c-6.9-.21-10.73-3.91-11.58-3.91s-2.49,2.7-2.49,3.84c0,1.92,6,5,14.07,5.19v3.48c0,.78.43,1.13,1.42,1.13s1.42-.36,1.42-1.13v-3.56c8.31-.71,13.58-5.82,13.58-13.93,0-9.81-7.26-12.37-13.58-14.64V406.38c5.33.14,7.88,2.69,9,2.69.71,0,2.27-2.69,2.27-3.76,0-2.35-7.18-4-11.23-4.05v-2.85C215.55,397.64,215.12,397.28,214.13,397.28Z"/><path d="M214.13,456.81c-1.77,0-2-1.09-2-1.74v-2.89c-7.84-.35-14.07-3.39-14.07-5.78,0-1.33,1.83-4.45,3.1-4.45a3.79,3.79,0,0,1,1.62.73,19.88,19.88,0,0,0,9.35,3.15V428.55c-6.17-2.38-13.14-5.1-13.14-14.49,0-7.13,5-12.15,13.14-13.2v-2.44c0-.65.27-1.74,2-1.74s2,1.09,2,1.74v2.26c3.75.2,11.23,1.64,11.23,4.64,0,1.17-1.64,4.37-2.88,4.37a4.29,4.29,0,0,1-1.78-.67,15.31,15.31,0,0,0-6.56-2v15.49c6.13,2.21,13.58,5,13.58,15.07,0,8-5.19,13.55-13.58,14.48v3C216.16,455.72,215.9,456.81,214.13,456.81Zm-13-13.65a6.39,6.39,0,0,0-1.84,3.23c0,1.25,5.23,4.36,13.47,4.58a.61.61,0,0,1,.59.61v3.48c0,.29,0,.52.81.52s.81-.23.81-.52v-3.56a.61.61,0,0,1,.56-.61c8.15-.7,13-5.67,13-13.32,0-9.33-6.94-11.83-13.07-14l-.1,0a.61.61,0,0,1-.4-.57V406.38a.61.61,0,0,1,.19-.44.57.57,0,0,1,.44-.17,16.53,16.53,0,0,1,7.73,2.16,5,5,0,0,0,1.21.53,6.63,6.63,0,0,0,1.66-3.15c0-1.61-6.18-3.36-10.62-3.44a.61.61,0,0,1-.6-.61v-2.85c0-.29,0-.52-.81-.52s-.81.23-.81.52v3a.61.61,0,0,1-.55.61c-7.77.82-12.6,5.44-12.6,12,0,8.58,6.31,11,12.41,13.37l.34.13a.61.61,0,0,1,.39.57v18.34a.61.61,0,0,1-.19.44.57.57,0,0,1-.44.17,20.85,20.85,0,0,1-10.57-3.35A7.18,7.18,0,0,0,201.08,443.16Zm14.47,3.7a.61.61,0,0,1-.61-.61v-17a.61.61,0,0,1,.86-.56c3.88,1.69,7.47,3.93,7.47,8.87a9,9,0,0,1-7.6,9.27Zm.61-16.65v15.27a7.85,7.85,0,0,0,5.88-7.9C222,433.87,219.73,431.89,216.16,430.22Zm-3.46-7.73a.61.61,0,0,1-.23,0c-3.67-1.52-7.06-3.56-7.06-8.1s2.62-7.55,7.19-8.34a.62.62,0,0,1,.5.13.61.61,0,0,1,.22.47v15.28a.61.61,0,0,1-.61.61Zm-.61-15.14a6.66,6.66,0,0,0-5.46,7c0,3.34,2.15,5.12,5.46,6.61Z"/><path class="cls-9" d="M669.28,413.16a13.56,13.56,0,1,1-13.56,13.57A13.57,13.57,0,0,1,669.28,413.16Zm0-23a36.57,36.57,0,1,1-36.58,36.58A36.58,36.58,0,0,1,669.28,390.17Z"/><path d="M669.28,463.93a37.19,37.19,0,1,1,37.18-37.18A37.23,37.23,0,0,1,669.28,463.93Zm0-73.15a36,36,0,1,0,36,36A36,36,0,0,0,669.28,390.78Zm0,50.11a14.17,14.17,0,1,1,14.17-14.17A14.19,14.19,0,0,1,669.28,440.89Zm0-27.12a12.95,12.95,0,1,0,12.94,13A13,13,0,0,0,669.28,413.77Z"/><path class="cls-7" d="M669.44,463.32c-11.67-8.6-19.13-21.81-19.13-36.64s7.39-27.91,18.95-36.51h0"/><path d="M669.44,463.93a.61.61,0,0,1-.36-.12c-12.31-9.07-19.38-22.61-19.38-37.13s7-27.92,19.2-37a.64.64,0,0,1,1,.49.61.61,0,0,1-.34.55c-11.83,8.84-18.62,21.94-18.62,36S657.8,454,669.8,462.83a.61.61,0,0,1-.36,1.1Z"/><path class="cls-7" d="M669.38,390.17c11.51,8.61,18.87,21.74,18.87,36.44,0,14.87-7.5,28.11-19.21,36.71"/><path d="M669,463.93a.61.61,0,0,1-.36-1.1c12.05-8.85,19-22,19-36.21,0-14-6.79-27.1-18.62-36a.61.61,0,1,1,.73-1c12.15,9.08,19.11,22.54,19.11,36.93,0,14.56-7.09,28.12-19.46,37.2A.61.61,0,0,1,669,463.93Z"/><path d="M694.2,454.15a.61.61,0,0,1-.42-.16,36.63,36.63,0,0,0-24.51-9.65A35.82,35.82,0,0,0,644.77,454a.61.61,0,1,1-.83-.89,37,37,0,0,1,25.35-10,37.87,37.87,0,0,1,25.34,10,.61.61,0,0,1-.42,1.06Zm-24.92-43.7c-7.1,0-18.4-3.5-25.35-10a.61.61,0,0,1,.83-.89c6.48,6,17.55,9.65,24.51,9.65a35.85,35.85,0,0,0,24.5-9.65.61.61,0,1,1,.83.89A37.07,37.07,0,0,1,669.28,410.45Z"/><path d="M669.28,463.9a.61.61,0,0,1-.61-.61v-23a.61.61,0,1,1,1.22,0v23A.61.61,0,0,1,669.28,463.9Zm0-50.13a.61.61,0,0,1-.61-.61v-23a.61.61,0,1,1,1.22,0v23A.61.61,0,0,1,669.28,413.77Z"/><path d="M705.83,427.34h-23a.61.61,0,0,1,0-1.22h23a.61.61,0,0,1,0,1.22Zm-50.11,0h-23a.61.61,0,0,1,0-1.22h23a.61.61,0,0,1,0,1.22Z"/><path class="cls-4" d="M669.28,413.18a13.56,13.56,0,1,1-13.56,13.56A13.56,13.56,0,0,1,669.28,413.18Z"/><path d="M669.28,440.91a14.17,14.17,0,1,1,14.17-14.17A14.19,14.19,0,0,1,669.28,440.91Zm0-27.12a12.95,12.95,0,1,0,12.94,13A13,13,0,0,0,669.28,413.79Z"/><path class="cls-10" d="M665,433l-.43.72-.06.1m0,0v-1.07m-.34,1.62s.67,0,.34,0v-.53l-.23.38Zm5.78-6.64c1.47.64,2.68,1.45,2.68,3.13a3.19,3.19,0,0,1-2.68,3.28Zm-1.08-8.57v5.77c-1.42-.59-2.52-1.32-2.52-2.84A2.78,2.78,0,0,1,668.83,419.13Zm-4.37,13.59c-.3,0-.94,1-.94,1.45,0,.72,2.28,1.89,5.31,2v1.32c0,.29.17.43.53.43s.55-.14.55-.43V436.1c3.13-.27,5.12-2.2,5.12-5.27,0-3.7-2.73-4.66-5.12-5.52V419c2,.06,3,1,3.37,1s.86-1,.86-1.42c0-.89-2.71-1.5-4.23-1.53V416c0-.29-.17-.43-.55-.43s-.53.13-.53.43v1.13c-3,.32-5,2.15-5,4.78,0,3.47,2.61,4.4,5,5.32v6.93a7.55,7.55,0,0,1-3.65-1.1h0L665,433A1.63,1.63,0,0,0,664.46,432.72Z"/><path d="M669.37,437.95c-.41,0-.61-.17-.61-.51V436.2c-3.08-.09-5.31-1.27-5.31-2,0-.46.66-1.52,1-1.52a1.23,1.23,0,0,1,.46.21l.07,0,.22.14a7.54,7.54,0,0,0,3.54,1.09v-6.79l-.12,0c-2.27-.89-4.84-1.89-4.84-5.33,0-2.64,1.9-4.49,5-4.84V416c0-.33.21-.5.61-.5s.62.16.62.5v1c1.48,0,4.23.64,4.23,1.6,0,.39-.59,1.5-.94,1.5a1.54,1.54,0,0,1-.59-.24,6,6,0,0,0-2.7-.79v6.13c2.41.86,5.12,1.85,5.12,5.57,0,3-1.91,5-5.12,5.34v1.27C670,437.78,669.78,437.95,669.37,437.95Zm-5-5.13a2.36,2.36,0,0,0-.79,1.35c0,.62,2.16,1.81,5.23,1.88h.07v1.39c0,.18.06.35.46.35s.47-.17.47-.35V436h.07c3.16-.27,5.05-2.22,5.05-5.19,0-3.63-2.68-4.59-5-5.44l-.08,0V419h.08a6.14,6.14,0,0,1,2.85.81,1.6,1.6,0,0,0,.52.22c.19,0,.78-.95.78-1.35,0-.78-2.52-1.42-4.16-1.45h-.07V416c0-.18-.06-.35-.47-.35s-.46.17-.46.35v1.2h-.07c-3,.32-4.9,2.13-4.9,4.7,0,3.33,2.41,4.27,4.74,5.18l.22.09v7.06h-.08a7.67,7.67,0,0,1-3.69-1.11h0l-.14-.09-.44.74v.44c.06,0,.09,0,.09.08s0,.07-.08.08h-.4v-.06l-.08,0,0,0,.31-.52Zm.15,0v.69l.31-.52Zm5.29,1.39v-6.62l.11,0c1.42.62,2.73,1.43,2.73,3.2a3.27,3.27,0,0,1-2.74,3.35Zm.15-6.39V434a3.12,3.12,0,0,0,2.53-3.19C672.52,429.2,671.31,428.41,670,427.82Zm-1.08-2.8-.11,0c-1.33-.55-2.57-1.29-2.57-2.91a2.85,2.85,0,0,1,2.59-3l.09,0Zm-.15-5.79a2.69,2.69,0,0,0-2.37,2.84c0,1.49,1.13,2.2,2.37,2.73Z"/><line class="cls-11" x1="177.55" y1="1.54" x2="177.55" y2="326.15"/><line class="cls-11" x1="354.83" y1="1.54" x2="354.83" y2="326.15"/><line class="cls-11" x1="532.1" y1="1.54" x2="532.1" y2="326.15"/><line class="cls-11" x1="709.38" y1="1.54" x2="709.38" y2="326.15"/><line class="cls-11" x1="443.18" y1="330.92" x2="443.18" y2="477.54"/><rect class="cls-12" x="0.27" y="1" width="885.81" height="50.3"/><rect class="cls-12" x="1.36" y="326.15" width="885.81" height="50.3"/><rect class="cls-12" x="177.55" y="163.59" width="177.3" height="50.3"/><rect class="cls-12" x="531.73" y="163.59" width="177.3" height="50.3"/><text class="cls-13" transform="translate(30.94 35.96)">Alianzas clave</text><text class="cls-13" transform="translate(193.04 35.96)">Actividades clave</text><text class="cls-13" transform="translate(200.91 194.26)">Recursos clave</text><text class="cls-13" transform="translate(598.91 357.57)">Flujo de Ingresos</text><text class="cls-13" transform="translate(129.79 357.57)">Estructura de costes</text><text class="cls-13" transform="translate(588 194.26)">Canales</text><text class="cls-13" transform="translate(376.11 35.96)">Propuesta valor</text><text class="cls-13" transform="translate(541.48 35.96)">Relaciones clientes</text><text class="cls-13" transform="translate(722.26 35.96)">Segmento clientes</text><circle class="cls-2" cx="80.07" cy="80.5" r="23.35"/><text class="cls-14" transform="translate(71.45 92.47)">5</text><circle class="cls-2" cx="211.11" cy="80.5" r="23.35"/><text class="cls-14" transform="translate(202.49 92.47)">6</text><circle class="cls-2" cx="402.83" cy="80.5" r="23.35"/><text class="cls-14" transform="translate(394.2 92.47)">2</text><circle class="cls-2" cx="565.83" cy="80.5" r="23.35"/><text class="cls-14" transform="translate(557.21 92.47)">3</text><circle class="cls-2" cx="775.27" cy="80.5" r="23.35"/><text class="cls-14" transform="translate(766.65 92.47)">1</text><circle class="cls-2" cx="565.83" cy="247.78" r="23.35"/><text class="cls-14" transform="translate(557.01 260.75)">4</text><circle class="cls-2" cx="211.11" cy="247.78" r="23.35"/><text class="cls-14" transform="translate(202.49 260.75)">7</text><circle class="cls-2" cx="75.52" cy="426.74" r="23.35"/><text class="cls-14" transform="translate(66.89 437.71)">8</text><circle class="cls-2" cx="501.38" cy="426.74" r="23.35"/><text class="cls-14" transform="translate(492.75 437.71)">9</text></svg>