<svg id="Capa_1" data-name="Capa 1" xmlns="http://www.w3.org/2000/svg" viewBox="0 0 307.56 171.72"><polygon points="268.58 37.42 49.66 37.42 49.66 130.14 206.64 130.14 209.7 135.43 220.23 153.67 230.76 135.43 233.81 130.14 268.58 130.14 268.58 37.42" style="fill:#174c7f"/><polyline points="197.41 141.54 41.17 141.54 41.17 27.78 276.75 27.78 276.75 141.19 242.35 141.19" style="fill:none;stroke:#00aeef;stroke-linecap:round;stroke-miterlimit:10;stroke-width:3px;stroke-dasharray:0,8"/><path d="M58.83,55.51l.85-.08v.23a1.43,1.43,0,0,0,.17.68,1.1,1.1,0,0,0,.57.48,2.43,2.43,0,0,0,.94.17,1.79,1.79,0,0,0,1.18-.34,1,1,0,0,0,.4-.77.87.87,0,0,0-.21-.56,4.29,4.29,0,0,0-1.2-.66,8.36,8.36,0,0,1-1-.51,2.11,2.11,0,0,1-.64-.62,1.44,1.44,0,0,1-.21-.77,1.6,1.6,0,0,1,.28-.9,1.68,1.68,0,0,1,.8-.61A3.1,3.1,0,0,1,61.89,51a3,3,0,0,1,1.33.27A1.68,1.68,0,0,1,64,52a1.76,1.76,0,0,1,.25.84s0,.07,0,.13l-.83.07a1.58,1.58,0,0,0,0-.43,1.13,1.13,0,0,0-.27-.45,1.25,1.25,0,0,0-.51-.3,2.31,2.31,0,0,0-.72-.11,1.66,1.66,0,0,0-1.1.32.77.77,0,0,0-.29.64.74.74,0,0,0,.12.42,1.21,1.21,0,0,0,.44.37c.15.08.52.25,1.09.5a7.89,7.89,0,0,1,1,.49,1.7,1.7,0,0,1,.54.56,1.56,1.56,0,0,1,.19.76,1.63,1.63,0,0,1-.32,1,2.15,2.15,0,0,1-.88.68,3.3,3.3,0,0,1-1.29.24,3.08,3.08,0,0,1-1.79-.47A2,2,0,0,1,58.83,55.51Z" style="fill:#fff"/><path d="M64.47,57.6l1-4.67h.79l-1,4.67Zm1.16-5.55.19-.9h.79l-.19.9Z" style="fill:#fff"/><path d="M72.19,56.75a2.36,2.36,0,0,1-1.72,1,1.2,1.2,0,0,1-.87-.31,1,1,0,0,1-.33-.76,5.88,5.88,0,0,1,.15-1L70,52.93h.8l-.63,3a3.37,3.37,0,0,0-.08.58.5.5,0,0,0,.16.41.69.69,0,0,0,.48.15,1.42,1.42,0,0,0,.65-.16,1.94,1.94,0,0,0,.55-.44,2.22,2.22,0,0,0,.37-.66,5.38,5.38,0,0,0,.23-.85l.42-2h.79l-1,4.67H72Z" style="fill:#fff"/><path d="M74,57.6l1-4.67h.72l-.17.81a3.86,3.86,0,0,1,.87-.7,1.85,1.85,0,0,1,.84-.22,1.27,1.27,0,0,1,.89.31,1.11,1.11,0,0,1,.32.82,5,5,0,0,1-.11.82l-.6,2.83H77l.62-3a3.5,3.5,0,0,0,.09-.64.49.49,0,0,0-.16-.38.7.7,0,0,0-.46-.14,1.53,1.53,0,0,0-1.09.44,2.76,2.76,0,0,0-.7,1.5L74.8,57.6Z" style="fill:#fff"/><path d="M82.16,57a3.34,3.34,0,0,1-.79.52,2.07,2.07,0,0,1-.82.16,1.45,1.45,0,0,1-1-.38,1.27,1.27,0,0,1-.4-1,1.38,1.38,0,0,1,.18-.7,1.44,1.44,0,0,1,.47-.48,2.11,2.11,0,0,1,.72-.26,7.35,7.35,0,0,1,1-.08,3.84,3.84,0,0,0,1.08-.16,2.15,2.15,0,0,0,.09-.54.52.52,0,0,0-.21-.44,1.29,1.29,0,0,0-.8-.22,1.45,1.45,0,0,0-.82.22,1.24,1.24,0,0,0-.47.64l-.8-.07a2.06,2.06,0,0,1,.78-1.07,2.36,2.36,0,0,1,1.35-.37,2.1,2.1,0,0,1,1.37.42,1,1,0,0,1,.38.8,3.67,3.67,0,0,1-.11.86l-.26,1.16A4.46,4.46,0,0,0,83,57a2.78,2.78,0,0,0,.1.64h-.81A3.74,3.74,0,0,1,82.16,57Zm.3-1.79a1.48,1.48,0,0,1-.36.1,6.33,6.33,0,0,1-.64.08,5.2,5.2,0,0,0-1,.15.88.88,0,0,0-.43.3.77.77,0,0,0-.15.46.73.73,0,0,0,.23.55,1,1,0,0,0,.66.22,1.5,1.5,0,0,0,.76-.21,1.56,1.56,0,0,0,.58-.59A3.32,3.32,0,0,0,82.46,55.23Z" style="fill:#fff"/><path d="M86.63,57.6l.85-4.06h-.71l.12-.61h.72l.13-.66a3.13,3.13,0,0,1,.22-.72.86.86,0,0,1,.37-.36A1.29,1.29,0,0,1,89,51a4.87,4.87,0,0,1,.88.13l-.14.69a2.78,2.78,0,0,0-.68-.1.46.46,0,0,0-.35.12,1.13,1.13,0,0,0-.21.55l-.11.5h.89l-.13.61h-.88l-.85,4.06Z" style="fill:#fff"/><path d="M92.21,56.75a2.36,2.36,0,0,1-1.72,1,1.2,1.2,0,0,1-.87-.31,1,1,0,0,1-.33-.76,5.58,5.58,0,0,1,.14-1L90,52.93h.79l-.62,3a3.37,3.37,0,0,0-.08.58.5.5,0,0,0,.16.41.66.66,0,0,0,.47.15,1.39,1.39,0,0,0,.65-.16,1.7,1.7,0,0,0,.55-.44,2.24,2.24,0,0,0,.38-.66,5.68,5.68,0,0,0,.22-.85l.43-2h.79l-1,4.67H92Z" style="fill:#fff"/><path d="M97.46,56l.77.08a2.32,2.32,0,0,1-.77,1.09A2.1,2.1,0,0,1,96,57.7a1.94,1.94,0,0,1-1-.24,1.57,1.57,0,0,1-.66-.69,2.38,2.38,0,0,1-.23-1.05,3.26,3.26,0,0,1,.36-1.48,2.49,2.49,0,0,1,.91-1.07,2.33,2.33,0,0,1,1.22-.35,1.81,1.81,0,0,1,1.34.52,2,2,0,0,1,.49,1.42,4.23,4.23,0,0,1-.06.7H95a1.1,1.1,0,0,0,0,.25,1.49,1.49,0,0,0,.3,1,.94.94,0,0,0,.74.34,1.4,1.4,0,0,0,.8-.27A1.78,1.78,0,0,0,97.46,56Zm-2.32-1.16h2.62a1.31,1.31,0,0,0,0-.17,1.29,1.29,0,0,0-.3-.92,1,1,0,0,0-.77-.32,1.44,1.44,0,0,0-.93.35A2.16,2.16,0,0,0,95.14,54.85Z" style="fill:#fff"/><path d="M99,57.6l1-4.67h.7l-.2,1a3.39,3.39,0,0,1,.71-.8,1.17,1.17,0,0,1,.7-.26,1.45,1.45,0,0,1,.59.17l-.33.74a.72.72,0,0,0-.45-.15,1.25,1.25,0,0,0-.86.47,3.61,3.61,0,0,0-.69,1.67l-.39,1.88Z" style="fill:#fff"/><path d="M101.91,57.6,102,57l2.51-2.83.6-.62q-.57.06-.81.06h-1.74l.14-.66h3.61l-.1.5-2.54,2.84c-.14.16-.35.38-.64.67.44,0,.75,0,.91,0h1.84l-.15.7Z" style="fill:#fff"/><path d="M109.68,57a3.39,3.39,0,0,1-.8.52,2,2,0,0,1-.82.16,1.46,1.46,0,0,1-1-.38,1.3,1.3,0,0,1-.39-1,1.48,1.48,0,0,1,.17-.7,1.38,1.38,0,0,1,.48-.48,2,2,0,0,1,.72-.26,7.35,7.35,0,0,1,1-.08,3.82,3.82,0,0,0,1.07-.16,2.15,2.15,0,0,0,.09-.54.54.54,0,0,0-.2-.44,1.3,1.3,0,0,0-.81-.22,1.47,1.47,0,0,0-.82.22,1.28,1.28,0,0,0-.46.64l-.81-.07a2.17,2.17,0,0,1,.78-1.07,2.39,2.39,0,0,1,1.35-.37,2.06,2.06,0,0,1,1.37.42,1,1,0,0,1,.39.8,4.3,4.3,0,0,1-.11.86l-.26,1.16a4.46,4.46,0,0,0-.12.9,3.29,3.29,0,0,0,.09.64h-.8A2.83,2.83,0,0,1,109.68,57Zm.29-1.79a1.36,1.36,0,0,1-.36.1,6,6,0,0,1-.64.08,5.2,5.2,0,0,0-1,.15.93.93,0,0,0-.43.3.83.83,0,0,0-.14.46.73.73,0,0,0,.23.55.94.94,0,0,0,.66.22,1.53,1.53,0,0,0,1.33-.8A3.32,3.32,0,0,0,110,55.23Z" style="fill:#fff"/><path d="M117.46,56l.78.08a2.39,2.39,0,0,1-.77,1.09,2.1,2.1,0,0,1-1.43.52,1.92,1.92,0,0,1-1-.24,1.57,1.57,0,0,1-.66-.69,2.38,2.38,0,0,1-.23-1.05,3.26,3.26,0,0,1,.36-1.48,2.49,2.49,0,0,1,.91-1.07,2.3,2.3,0,0,1,1.22-.35,1.77,1.77,0,0,1,1.33.52,1.94,1.94,0,0,1,.5,1.42,4.23,4.23,0,0,1-.06.7H115a2.18,2.18,0,0,0,0,.25,1.49,1.49,0,0,0,.3,1,.92.92,0,0,0,.73.34,1.43,1.43,0,0,0,.81-.27A1.7,1.7,0,0,0,117.46,56Zm-2.31-1.16h2.62c0-.08,0-.14,0-.17a1.34,1.34,0,0,0-.3-.92,1,1,0,0,0-.77-.32,1.44,1.44,0,0,0-.93.35A2.16,2.16,0,0,0,115.15,54.85Z" style="fill:#fff"/><path d="M118.73,57.6l2-2.37-1.17-2.3h.88l.4.83c.15.31.28.61.39.89l1.35-1.72h1l-2,2.36,1.18,2.31h-.88l-.47-1c-.1-.21-.21-.46-.33-.76l-1.39,1.71Z" style="fill:#fff"/><path d="M125.4,57l-.13.65a2.2,2.2,0,0,1-.56.07,1.12,1.12,0,0,1-.75-.23.6.6,0,0,1-.21-.48,5.35,5.35,0,0,1,.11-.7l.57-2.72h-.63l.13-.61h.63l.24-1.15.91-.55-.36,1.7h.78l-.13.61h-.78l-.54,2.58c-.06.33-.1.53-.1.59a.29.29,0,0,0,.08.22.41.41,0,0,0,.27.07A2.19,2.19,0,0,0,125.4,57Z" style="fill:#fff"/><path d="M129.47,56l.77.08a2.37,2.37,0,0,1-.76,1.09,2.11,2.11,0,0,1-1.44.52,1.94,1.94,0,0,1-.95-.24,1.57,1.57,0,0,1-.66-.69,2.38,2.38,0,0,1-.22-1.05,3.38,3.38,0,0,1,.35-1.48,2.51,2.51,0,0,1,.92-1.07,2.28,2.28,0,0,1,1.22-.35,1.78,1.78,0,0,1,1.33.52,2,2,0,0,1,.5,1.42,4.23,4.23,0,0,1-.06.7H127a2.29,2.29,0,0,0,0,.25,1.49,1.49,0,0,0,.3,1,.94.94,0,0,0,.74.34,1.4,1.4,0,0,0,.8-.27A1.71,1.71,0,0,0,129.47,56Zm-2.31-1.16h2.62v-.17a1.29,1.29,0,0,0-.3-.92,1,1,0,0,0-.77-.32,1.44,1.44,0,0,0-.93.35A2.08,2.08,0,0,0,127.16,54.85Z" style="fill:#fff"/><path d="M131.05,57.6l1-4.67h.71l-.2,1a3.38,3.38,0,0,1,.7-.8,1.2,1.2,0,0,1,.71-.26,1.41,1.41,0,0,1,.58.17l-.32.74a.76.76,0,0,0-.45-.15,1.23,1.23,0,0,0-.86.47,3.5,3.5,0,0,0-.69,1.67l-.4,1.88Z" style="fill:#fff"/><path d="M134,57.6l1-4.67h.72l-.17.81a3.68,3.68,0,0,1,.88-.7,1.81,1.81,0,0,1,.83-.22,1.25,1.25,0,0,1,.89.31,1.08,1.08,0,0,1,.33.82,4.3,4.3,0,0,1-.12.82l-.59,2.83H137l.62-3a3.5,3.5,0,0,0,.09-.64.49.49,0,0,0-.16-.38.68.68,0,0,0-.46-.14,1.53,1.53,0,0,0-1.09.44,2.76,2.76,0,0,0-.7,1.5l-.45,2.18Z" style="fill:#fff"/><path d="M142.2,57a3.6,3.6,0,0,1-.8.52,2.07,2.07,0,0,1-.82.16,1.45,1.45,0,0,1-1-.38,1.3,1.3,0,0,1-.39-1,1.48,1.48,0,0,1,.17-.7,1.38,1.38,0,0,1,.48-.48,2,2,0,0,1,.72-.26,7.16,7.16,0,0,1,1-.08,3.84,3.84,0,0,0,1.08-.16,2.15,2.15,0,0,0,.09-.54.54.54,0,0,0-.2-.44,1.35,1.35,0,0,0-.81-.22,1.47,1.47,0,0,0-.82.22,1.23,1.23,0,0,0-.46.64l-.81-.07a2.17,2.17,0,0,1,.78-1.07,2.39,2.39,0,0,1,1.35-.37,2.08,2.08,0,0,1,1.37.42,1,1,0,0,1,.39.8,4.3,4.3,0,0,1-.11.86l-.26,1.16a4.46,4.46,0,0,0-.12.9,3.29,3.29,0,0,0,.09.64h-.8A2.28,2.28,0,0,1,142.2,57Zm.29-1.79a1.36,1.36,0,0,1-.36.1,6.33,6.33,0,0,1-.64.08,5.2,5.2,0,0,0-1,.15.93.93,0,0,0-.43.3.76.76,0,0,0-.14.46.7.7,0,0,0,.23.55.93.93,0,0,0,.65.22,1.48,1.48,0,0,0,.76-.21,1.5,1.5,0,0,0,.58-.59A3.32,3.32,0,0,0,142.49,55.23Z" style="fill:#fff"/><path d="M146.55,57.6l1-4.67h.72l-.17.81A3.89,3.89,0,0,1,149,53a1.81,1.81,0,0,1,.83-.22,1.25,1.25,0,0,1,.89.31A1.08,1.08,0,0,1,151,54a4.3,4.3,0,0,1-.12.82l-.59,2.83h-.8l.62-3a3.5,3.5,0,0,0,.09-.64.49.49,0,0,0-.16-.38.68.68,0,0,0-.46-.14,1.53,1.53,0,0,0-1.09.44,2.84,2.84,0,0,0-.7,1.5l-.45,2.18Z" style="fill:#fff"/><path d="M155,56l.77.08a2.37,2.37,0,0,1-.76,1.09,2.13,2.13,0,0,1-1.44.52,1.94,1.94,0,0,1-.95-.24,1.57,1.57,0,0,1-.66-.69,2.38,2.38,0,0,1-.22-1.05,3.38,3.38,0,0,1,.35-1.48,2.51,2.51,0,0,1,.92-1.07,2.27,2.27,0,0,1,1.21-.35,1.79,1.79,0,0,1,1.34.52,2,2,0,0,1,.5,1.42,4.23,4.23,0,0,1-.06.7h-3.44a2.29,2.29,0,0,0,0,.25,1.49,1.49,0,0,0,.3,1,.94.94,0,0,0,.74.34,1.4,1.4,0,0,0,.8-.27A1.71,1.71,0,0,0,155,56Zm-2.31-1.16h2.62v-.17a1.29,1.29,0,0,0-.3-.92,1,1,0,0,0-.77-.32,1.44,1.44,0,0,0-.93.35A2.08,2.08,0,0,0,152.68,54.85Z" style="fill:#fff"/><path d="M158.43,57l-.14.65a2.13,2.13,0,0,1-.55.07,1.13,1.13,0,0,1-.76-.23.6.6,0,0,1-.21-.48,4.43,4.43,0,0,1,.12-.7l.56-2.72h-.62l.12-.61h.63l.24-1.15.91-.55-.35,1.7h.78l-.13.61h-.78l-.54,2.58a4.39,4.39,0,0,0-.1.59.26.26,0,0,0,.08.22A.38.38,0,0,0,158,57,2.26,2.26,0,0,0,158.43,57Z" style="fill:#fff"/><path d="M162.21,57a3.34,3.34,0,0,1-.79.52,2.07,2.07,0,0,1-.82.16,1.45,1.45,0,0,1-1-.38,1.27,1.27,0,0,1-.4-1,1.38,1.38,0,0,1,.18-.7,1.44,1.44,0,0,1,.47-.48,2.11,2.11,0,0,1,.72-.26,7.35,7.35,0,0,1,1-.08,3.84,3.84,0,0,0,1.08-.16,2.15,2.15,0,0,0,.09-.54.54.54,0,0,0-.2-.44,1.35,1.35,0,0,0-.81-.22,1.45,1.45,0,0,0-.82.22,1.3,1.3,0,0,0-.47.64l-.8-.07a2.06,2.06,0,0,1,.78-1.07,2.39,2.39,0,0,1,1.35-.37,2.1,2.1,0,0,1,1.37.42,1,1,0,0,1,.38.8,3.67,3.67,0,0,1-.11.86l-.25,1.16a3.94,3.94,0,0,0-.13.9,2.78,2.78,0,0,0,.1.64h-.81A3.74,3.74,0,0,1,162.21,57Zm.3-1.79a1.36,1.36,0,0,1-.36.1,6.33,6.33,0,0,1-.64.08,5.2,5.2,0,0,0-1,.15.93.93,0,0,0-.43.3.77.77,0,0,0-.15.46.73.73,0,0,0,.23.55,1,1,0,0,0,.66.22,1.48,1.48,0,0,0,.76-.21,1.56,1.56,0,0,0,.58-.59A3.32,3.32,0,0,0,162.51,55.23Z" style="fill:#fff"/><path d="M169.72,57a3.39,3.39,0,0,1-.8.52,2,2,0,0,1-.81.16,1.49,1.49,0,0,1-1.05-.38,1.3,1.3,0,0,1-.39-1,1.38,1.38,0,0,1,.18-.7,1.35,1.35,0,0,1,.47-.48,2.11,2.11,0,0,1,.72-.26,7.35,7.35,0,0,1,1-.08,3.76,3.76,0,0,0,1.07-.16,2.15,2.15,0,0,0,.09-.54.51.51,0,0,0-.2-.44,1.3,1.3,0,0,0-.81-.22,1.49,1.49,0,0,0-.82.22,1.28,1.28,0,0,0-.46.64l-.8-.07a2.06,2.06,0,0,1,.78-1.07,2.33,2.33,0,0,1,1.34-.37,2.06,2.06,0,0,1,1.37.42,1,1,0,0,1,.39.8,4.3,4.3,0,0,1-.11.86l-.26,1.16a4.46,4.46,0,0,0-.12.9,2.78,2.78,0,0,0,.1.64h-.81A3.74,3.74,0,0,1,169.72,57Zm.29-1.79a1.4,1.4,0,0,1-.35.1c-.13,0-.35.05-.64.08a5.06,5.06,0,0,0-1,.15.83.83,0,0,0-.43.3.77.77,0,0,0-.15.46.73.73,0,0,0,.23.55.94.94,0,0,0,.66.22,1.53,1.53,0,0,0,1.33-.8A3.32,3.32,0,0,0,170,55.23Z" style="fill:#fff"/><path d="M174.8,55.89l.79.09a2.65,2.65,0,0,1-.85,1.3,2,2,0,0,1-1.25.42,1.6,1.6,0,0,1-1.23-.49,1.9,1.9,0,0,1-.47-1.38,3.94,3.94,0,0,1,.3-1.5,2.37,2.37,0,0,1,.87-1.12,2.19,2.19,0,0,1,1.29-.39,1.63,1.63,0,0,1,1.19.43,1.48,1.48,0,0,1,.44,1.12l-.79.05a1,1,0,0,0-.25-.69.9.9,0,0,0-.67-.25,1.23,1.23,0,0,0-.83.3,2,2,0,0,0-.55.92,4,4,0,0,0-.2,1.19,1.36,1.36,0,0,0,.26.9.85.85,0,0,0,.65.3,1.12,1.12,0,0,0,.74-.3A1.88,1.88,0,0,0,174.8,55.89Z" style="fill:#fff"/><path d="M177.94,57l-.14.65a2.13,2.13,0,0,1-.55.07,1.1,1.1,0,0,1-.75-.23.6.6,0,0,1-.21-.48,4,4,0,0,1,.11-.7l.57-2.72h-.63l.12-.61h.63l.24-1.15.91-.55-.35,1.7h.78l-.13.61h-.78l-.54,2.58a4.39,4.39,0,0,0-.1.59.29.29,0,0,0,.08.22.38.38,0,0,0,.27.07A2.26,2.26,0,0,0,177.94,57Z" style="fill:#fff"/><path d="M181.76,56.75a2.36,2.36,0,0,1-1.71,1,1.23,1.23,0,0,1-.88-.31,1,1,0,0,1-.33-.76,5.88,5.88,0,0,1,.15-1l.56-2.69h.8l-.63,3a3.15,3.15,0,0,0-.07.58.5.5,0,0,0,.16.41.65.65,0,0,0,.47.15,1.39,1.39,0,0,0,.65-.16,1.81,1.81,0,0,0,.55-.44,2.48,2.48,0,0,0,.38-.66,5.68,5.68,0,0,0,.22-.85l.42-2h.8l-1,4.67h-.73Zm-.91-4.39.83-1.21h1l-1.17,1.21Z" style="fill:#fff"/><path d="M186.73,57a3.34,3.34,0,0,1-.79.52,2.07,2.07,0,0,1-.82.16,1.45,1.45,0,0,1-1-.38,1.27,1.27,0,0,1-.4-1,1.38,1.38,0,0,1,.18-.7,1.35,1.35,0,0,1,.47-.48,2.11,2.11,0,0,1,.72-.26,7.35,7.35,0,0,1,1-.08,3.7,3.7,0,0,0,1.07-.16,1.83,1.83,0,0,0,.1-.54.52.52,0,0,0-.21-.44,1.3,1.3,0,0,0-.81-.22,1.43,1.43,0,0,0-.81.22,1.24,1.24,0,0,0-.47.64l-.8-.07a2.06,2.06,0,0,1,.78-1.07,2.33,2.33,0,0,1,1.34-.37,2.11,2.11,0,0,1,1.38.42,1,1,0,0,1,.38.8,3.67,3.67,0,0,1-.11.86l-.26,1.16a4.46,4.46,0,0,0-.12.9,2.78,2.78,0,0,0,.1.64h-.81A3.74,3.74,0,0,1,186.73,57Zm.3-1.79a1.61,1.61,0,0,1-.36.1,6.33,6.33,0,0,1-.64.08,5.06,5.06,0,0,0-1,.15.88.88,0,0,0-.43.3.77.77,0,0,0-.15.46.73.73,0,0,0,.23.55,1,1,0,0,0,.66.22,1.5,1.5,0,0,0,.76-.21,1.64,1.64,0,0,0,.58-.59A3.32,3.32,0,0,0,187,55.23Z" style="fill:#fff"/><path d="M191.16,56l.8,0a1.48,1.48,0,0,0,.11.59.84.84,0,0,0,.38.39,1.41,1.41,0,0,0,.67.16,1.2,1.2,0,0,0,.79-.22.62.62,0,0,0,.26-.49A.56.56,0,0,0,194,56a2.35,2.35,0,0,0-.79-.46,6.74,6.74,0,0,1-.81-.38,1.37,1.37,0,0,1-.44-.42,1,1,0,0,1-.15-.56,1.24,1.24,0,0,1,.44-1,1.74,1.74,0,0,1,1.23-.4,2,2,0,0,1,1.34.41,1.43,1.43,0,0,1,.47,1.07l-.77.05a1,1,0,0,0-.3-.67,1.19,1.19,0,0,0-.8-.24,1,1,0,0,0-.64.19.53.53,0,0,0-.23.41.5.5,0,0,0,.2.38,2.75,2.75,0,0,0,.68.35,4.84,4.84,0,0,1,1.15.63,1.19,1.19,0,0,1,.38.89,1.28,1.28,0,0,1-.21.68,1.45,1.45,0,0,1-.65.53,2.52,2.52,0,0,1-1,.2,2.32,2.32,0,0,1-1.38-.4A1.42,1.42,0,0,1,191.16,56Z" style="fill:#fff"/><path d="M195.73,55.82a3.25,3.25,0,0,1,.81-2.26,2.23,2.23,0,0,1,1.74-.74,1.8,1.8,0,0,1,1.35.53,1.93,1.93,0,0,1,.52,1.42,3.57,3.57,0,0,1-.32,1.5,2.42,2.42,0,0,1-.93,1.06,2.34,2.34,0,0,1-1.26.37,2.13,2.13,0,0,1-1-.23,1.61,1.61,0,0,1-.68-.66A2,2,0,0,1,195.73,55.82Zm.8-.07a1.38,1.38,0,0,0,.31,1,1.05,1.05,0,0,0,.81.35,1.29,1.29,0,0,0,.5-.11,1.53,1.53,0,0,0,.47-.31,2.15,2.15,0,0,0,.36-.48,2.48,2.48,0,0,0,.25-.58,2.89,2.89,0,0,0,.14-.84,1.41,1.41,0,0,0-.32-1,1,1,0,0,0-.81-.35,1.36,1.36,0,0,0-.68.18,1.79,1.79,0,0,0-.55.52,2.22,2.22,0,0,0-.37.79A3.26,3.26,0,0,0,196.53,55.75Z" style="fill:#fff"/><path d="M200.6,57.6l1.34-6.45h.8l-.48,2.31a2.52,2.52,0,0,1,.68-.49,1.47,1.47,0,0,1,1.74.34,2.08,2.08,0,0,1,.43,1.42,3.67,3.67,0,0,1-.17,1.13,3.37,3.37,0,0,1-.44.87,2.87,2.87,0,0,1-.53.56,2.67,2.67,0,0,1-.57.31,1.62,1.62,0,0,1-.56.1,1.38,1.38,0,0,1-.81-.24,1.55,1.55,0,0,1-.55-.75l-.19.89Zm1.17-1.92v.15a1.31,1.31,0,0,0,.28.91.94.94,0,0,0,.72.31,1.19,1.19,0,0,0,.76-.29,2.08,2.08,0,0,0,.58-.91,3.42,3.42,0,0,0,.22-1.15,1.34,1.34,0,0,0-.28-.91.9.9,0,0,0-.7-.33,1.11,1.11,0,0,0-.79.34,2.46,2.46,0,0,0-.61,1A2.69,2.69,0,0,0,201.77,55.68Z" style="fill:#fff"/><path d="M205.6,57.6l1-4.67h.7l-.2,1a3.39,3.39,0,0,1,.71-.8,1.17,1.17,0,0,1,.7-.26,1.45,1.45,0,0,1,.59.17l-.33.74a.76.76,0,0,0-.45-.15,1.25,1.25,0,0,0-.86.47,3.61,3.61,0,0,0-.69,1.67l-.39,1.88Z" style="fill:#fff"/><path d="M212,56l.77.08a2.32,2.32,0,0,1-.77,1.09,2.08,2.08,0,0,1-1.43.52,1.94,1.94,0,0,1-.95-.24,1.57,1.57,0,0,1-.66-.69,2.38,2.38,0,0,1-.22-1.05,3.25,3.25,0,0,1,.35-1.48,2.51,2.51,0,0,1,.92-1.07,2.27,2.27,0,0,1,1.21-.35,1.81,1.81,0,0,1,1.34.52,2,2,0,0,1,.49,1.42,4.23,4.23,0,0,1-.06.7h-3.43a2.29,2.29,0,0,0,0,.25,1.49,1.49,0,0,0,.3,1,.94.94,0,0,0,.74.34,1.4,1.4,0,0,0,.8-.27A1.78,1.78,0,0,0,212,56Zm-2.32-1.16h2.62a1.31,1.31,0,0,0,0-.17,1.29,1.29,0,0,0-.3-.92,1,1,0,0,0-.77-.32,1.44,1.44,0,0,0-.93.35A2.16,2.16,0,0,0,209.71,54.85Z" style="fill:#fff"/><path d="M219.29,56.75a2.36,2.36,0,0,1-1.72,1,1.2,1.2,0,0,1-.87-.31,1,1,0,0,1-.33-.76,5.88,5.88,0,0,1,.15-1l.56-2.69h.79l-.62,3a3.37,3.37,0,0,0-.08.58.5.5,0,0,0,.16.41.68.68,0,0,0,.47.15,1.43,1.43,0,0,0,.66-.16,1.94,1.94,0,0,0,.55-.44,2.22,2.22,0,0,0,.37-.66,5.38,5.38,0,0,0,.23-.85l.42-2h.79l-1,4.67h-.74Z" style="fill:#fff"/><path d="M221.11,57.6l1-4.67h.73l-.18.81a4.12,4.12,0,0,1,.88-.7,1.85,1.85,0,0,1,.84-.22,1.27,1.27,0,0,1,.89.31,1.11,1.11,0,0,1,.32.82,5,5,0,0,1-.11.82l-.6,2.83h-.79l.62-3a3.5,3.5,0,0,0,.09-.64.49.49,0,0,0-.16-.38.7.7,0,0,0-.46-.14,1.53,1.53,0,0,0-1.09.44,2.76,2.76,0,0,0-.7,1.5l-.46,2.18Z" style="fill:#fff"/><path d="M231.84,55.89l.79.09a2.71,2.71,0,0,1-.85,1.3,2,2,0,0,1-1.25.42,1.64,1.64,0,0,1-1.24-.49,1.94,1.94,0,0,1-.47-1.38,3.94,3.94,0,0,1,.3-1.5,2.5,2.5,0,0,1,.87-1.12,2.23,2.23,0,0,1,1.29-.39,1.61,1.61,0,0,1,1.19.43,1.45,1.45,0,0,1,.44,1.12l-.78.05a.94.94,0,0,0-.26-.69.87.87,0,0,0-.66-.25,1.23,1.23,0,0,0-.83.3,1.92,1.92,0,0,0-.55.92,3.67,3.67,0,0,0-.2,1.19,1.31,1.31,0,0,0,.26.9.83.83,0,0,0,.65.3,1.14,1.14,0,0,0,.74-.3A1.88,1.88,0,0,0,231.84,55.89Z" style="fill:#fff"/><path d="M236.3,56.75a2.36,2.36,0,0,1-1.72,1,1.2,1.2,0,0,1-.87-.31,1,1,0,0,1-.33-.76,5.88,5.88,0,0,1,.15-1l.56-2.69h.8l-.63,3a3.37,3.37,0,0,0-.08.58.53.53,0,0,0,.16.41.69.69,0,0,0,.48.15,1.39,1.39,0,0,0,.65-.16,1.94,1.94,0,0,0,.55-.44,2.22,2.22,0,0,0,.37-.66,5.38,5.38,0,0,0,.23-.85l.42-2h.79l-1,4.67h-.74Z" style="fill:#fff"/><path d="M241.55,56l.77.08a2.29,2.29,0,0,1-.76,1.09,2.11,2.11,0,0,1-1.44.52,1.94,1.94,0,0,1-1-.24,1.57,1.57,0,0,1-.66-.69,2.38,2.38,0,0,1-.22-1.05,3.38,3.38,0,0,1,.35-1.48,2.51,2.51,0,0,1,.92-1.07,2.28,2.28,0,0,1,1.22-.35,1.78,1.78,0,0,1,1.33.52,2,2,0,0,1,.5,1.42,4.23,4.23,0,0,1-.06.7h-3.44a2.29,2.29,0,0,0,0,.25,1.49,1.49,0,0,0,.3,1,.94.94,0,0,0,.74.34,1.4,1.4,0,0,0,.8-.27A1.71,1.71,0,0,0,241.55,56Zm-2.31-1.16h2.62v-.17a1.29,1.29,0,0,0-.3-.92,1,1,0,0,0-.77-.32,1.44,1.44,0,0,0-.93.35A2.08,2.08,0,0,0,239.24,54.85Z" style="fill:#fff"/><path d="M243.13,57.6l1-4.67h.71l-.2,1a3.38,3.38,0,0,1,.7-.8,1.2,1.2,0,0,1,.71-.26,1.41,1.41,0,0,1,.58.17l-.32.74a.76.76,0,0,0-.45-.15,1.23,1.23,0,0,0-.86.47,3.5,3.5,0,0,0-.69,1.67l-.4,1.88Z" style="fill:#fff"/><path d="M245.73,59.38l1.35-6.45h.74l-.14.65a2.84,2.84,0,0,1,.73-.59,1.49,1.49,0,0,1,.68-.17,1.44,1.44,0,0,1,1.11.49,2,2,0,0,1,.44,1.39A3.54,3.54,0,0,1,250.4,56a3,3,0,0,1-.59,1,2.42,2.42,0,0,1-.72.54,1.73,1.73,0,0,1-.73.17,1.41,1.41,0,0,1-1.3-.85l-.53,2.53Zm1.58-3.69a2.35,2.35,0,0,0,.07.72.91.91,0,0,0,.36.46,1,1,0,0,0,.58.18,1.26,1.26,0,0,0,1.11-.77,3.25,3.25,0,0,0,.42-1.58,1.32,1.32,0,0,0-.28-.91.91.91,0,0,0-.71-.33,1.1,1.1,0,0,0-.56.16,1.82,1.82,0,0,0-.48.48,3.14,3.14,0,0,0-.37.78A2.65,2.65,0,0,0,247.31,55.69Z" style="fill:#fff"/><path d="M251.27,55.82a3.29,3.29,0,0,1,.8-2.26,2.26,2.26,0,0,1,1.74-.74,1.81,1.81,0,0,1,1.36.53,1.93,1.93,0,0,1,.52,1.42,3.57,3.57,0,0,1-.32,1.5,2.42,2.42,0,0,1-.93,1.06,2.34,2.34,0,0,1-1.26.37,2.13,2.13,0,0,1-1-.23,1.69,1.69,0,0,1-.69-.66A2.07,2.07,0,0,1,251.27,55.82Zm.79-.07a1.39,1.39,0,0,0,.32,1,1.05,1.05,0,0,0,.81.35,1.29,1.29,0,0,0,.5-.11,1.53,1.53,0,0,0,.47-.31,2.15,2.15,0,0,0,.36-.48,3,3,0,0,0,.25-.58,2.87,2.87,0,0,0,.13-.84,1.36,1.36,0,0,0-.32-1,1,1,0,0,0-.8-.35,1.33,1.33,0,0,0-.68.18,1.79,1.79,0,0,0-.55.52,2.22,2.22,0,0,0-.37.79A3.31,3.31,0,0,0,252.06,55.75Z" style="fill:#fff"/><path d="M256.32,57.6l.19-.91h.91l-.16.79a2.15,2.15,0,0,1-.47,1,1.24,1.24,0,0,1-.74.38l.08-.35c.34-.1.57-.42.69-.95Z" style="fill:#fff"/><path d="M63.44,66.81l.77.08A2.32,2.32,0,0,1,63.44,68,2.08,2.08,0,0,1,62,68.5a1.94,1.94,0,0,1-.95-.24,1.57,1.57,0,0,1-.66-.69,2.38,2.38,0,0,1-.22-1A3.25,3.25,0,0,1,60.53,65,2.51,2.51,0,0,1,61.45,64a2.27,2.27,0,0,1,1.21-.35,1.81,1.81,0,0,1,1.34.52,2,2,0,0,1,.5,1.42,4.37,4.37,0,0,1-.07.7H61a2.29,2.29,0,0,0,0,.25,1.49,1.49,0,0,0,.3,1,.94.94,0,0,0,.74.34,1.4,1.4,0,0,0,.8-.27A1.78,1.78,0,0,0,63.44,66.81Zm-2.32-1.16h2.62a1.31,1.31,0,0,0,0-.17,1.29,1.29,0,0,0-.3-.92,1,1,0,0,0-.77-.32,1.44,1.44,0,0,0-.93.35A2.16,2.16,0,0,0,61.12,65.65Z" style="fill:#fff"/><path d="M65.09,66.8l.79,0a1.48,1.48,0,0,0,.11.59.82.82,0,0,0,.39.39,1.4,1.4,0,0,0,.66.16,1.2,1.2,0,0,0,.79-.22.59.59,0,0,0,.11-.88,2.43,2.43,0,0,0-.8-.46,5.68,5.68,0,0,1-.8-.38,1.31,1.31,0,0,1-.45-.42,1.07,1.07,0,0,1-.15-.56,1.24,1.24,0,0,1,.44-1,1.77,1.77,0,0,1,1.23-.4,2,2,0,0,1,1.34.41,1.4,1.4,0,0,1,.48,1.07l-.78.05a.9.9,0,0,0-.3-.67,1.18,1.18,0,0,0-.79-.24,1,1,0,0,0-.65.19.52.52,0,0,0-.22.41.49.49,0,0,0,.19.38,2.89,2.89,0,0,0,.69.35,5.07,5.07,0,0,1,1.15.63,1.19,1.19,0,0,1,.37.89,1.28,1.28,0,0,1-.21.68,1.45,1.45,0,0,1-.65.53,2.49,2.49,0,0,1-1,.2,2.32,2.32,0,0,1-1.38-.4A1.44,1.44,0,0,1,65.09,66.8Z" style="fill:#fff"/><path d="M71.37,67.75l-.13.65a2.13,2.13,0,0,1-.55.07,1.13,1.13,0,0,1-.76-.23.6.6,0,0,1-.21-.48,5.35,5.35,0,0,1,.11-.7l.57-2.72h-.63l.13-.61h.63l.24-1.15.91-.55-.36,1.7h.79l-.14.61H71.2l-.54,2.58a5.47,5.47,0,0,0-.11.59.27.27,0,0,0,.09.22.37.37,0,0,0,.26.07A2.19,2.19,0,0,0,71.37,67.75Z" style="fill:#fff"/><path d="M75.44,66.81l.77.08A2.29,2.29,0,0,1,75.45,68,2.1,2.1,0,0,1,74,68.5a1.89,1.89,0,0,1-1-.24,1.57,1.57,0,0,1-.66-.69,2.38,2.38,0,0,1-.23-1A3.38,3.38,0,0,1,72.53,65,2.58,2.58,0,0,1,73.45,64a2.3,2.3,0,0,1,1.22-.35,1.78,1.78,0,0,1,1.33.52,2,2,0,0,1,.5,1.42,4.32,4.32,0,0,1-.06.7H73a2.29,2.29,0,0,0,0,.25,1.44,1.44,0,0,0,.31,1,.92.92,0,0,0,.73.34,1.45,1.45,0,0,0,.81-.27A1.76,1.76,0,0,0,75.44,66.81Zm-2.31-1.16h2.62v-.17a1.33,1.33,0,0,0-.29-.92,1,1,0,0,0-.77-.32,1.44,1.44,0,0,0-.93.35A2.16,2.16,0,0,0,73.13,65.65Z" style="fill:#fff"/><path d="M79.59,66.8l.8,0a1.32,1.32,0,0,0,.11.59.84.84,0,0,0,.38.39,1.4,1.4,0,0,0,.66.16,1.21,1.21,0,0,0,.8-.22.62.62,0,0,0,.26-.49.56.56,0,0,0-.16-.39,2.35,2.35,0,0,0-.79-.46,6.74,6.74,0,0,1-.81-.38,1.37,1.37,0,0,1-.44-.42,1.07,1.07,0,0,1-.15-.56,1.24,1.24,0,0,1,.44-1,1.74,1.74,0,0,1,1.23-.4,2,2,0,0,1,1.34.41,1.43,1.43,0,0,1,.47,1.07l-.77.05a1,1,0,0,0-.3-.67,1.19,1.19,0,0,0-.8-.24,1,1,0,0,0-.64.19.53.53,0,0,0-.23.41.5.5,0,0,0,.2.38,2.75,2.75,0,0,0,.68.35A4.84,4.84,0,0,1,83,66.2a1.19,1.19,0,0,1,.38.89,1.28,1.28,0,0,1-.21.68,1.51,1.51,0,0,1-.65.53,2.52,2.52,0,0,1-1,.2,2.32,2.32,0,0,1-1.38-.4A1.42,1.42,0,0,1,79.59,66.8Z" style="fill:#fff"/><path d="M87.45,66.81l.77.08A2.32,2.32,0,0,1,87.45,68,2.08,2.08,0,0,1,86,68.5a1.94,1.94,0,0,1-1-.24,1.57,1.57,0,0,1-.66-.69,2.38,2.38,0,0,1-.22-1A3.25,3.25,0,0,1,84.54,65,2.51,2.51,0,0,1,85.46,64a2.27,2.27,0,0,1,1.21-.35,1.81,1.81,0,0,1,1.34.52,2,2,0,0,1,.5,1.42,4.32,4.32,0,0,1-.06.7H85a2.29,2.29,0,0,0,0,.25,1.49,1.49,0,0,0,.3,1,.94.94,0,0,0,.74.34,1.4,1.4,0,0,0,.8-.27A1.71,1.71,0,0,0,87.45,66.81Zm-2.31-1.16h2.61a1.31,1.31,0,0,0,0-.17,1.29,1.29,0,0,0-.3-.92,1,1,0,0,0-.77-.32,1.44,1.44,0,0,0-.93.35A2.08,2.08,0,0,0,85.14,65.65Z" style="fill:#fff"/><path d="M94.67,67.82a3.34,3.34,0,0,1-.79.52,2.07,2.07,0,0,1-.82.16,1.45,1.45,0,0,1-1-.38,1.27,1.27,0,0,1-.4-1,1.38,1.38,0,0,1,.18-.7,1.44,1.44,0,0,1,.47-.48,2.11,2.11,0,0,1,.72-.26,7.35,7.35,0,0,1,1-.08,3.7,3.7,0,0,0,1.07-.16,1.83,1.83,0,0,0,.1-.54.52.52,0,0,0-.21-.44,1.29,1.29,0,0,0-.8-.22,1.45,1.45,0,0,0-.82.22,1.24,1.24,0,0,0-.47.64l-.8-.07A2.06,2.06,0,0,1,92.86,64a2.34,2.34,0,0,1,1.35-.37,2.1,2.1,0,0,1,1.37.42,1,1,0,0,1,.38.8,3.67,3.67,0,0,1-.11.86l-.26,1.16a4.46,4.46,0,0,0-.12.9,2.78,2.78,0,0,0,.1.64h-.81A3.74,3.74,0,0,1,94.67,67.82ZM95,66a2.12,2.12,0,0,1-.36.1,6.33,6.33,0,0,1-.64.08,5.2,5.2,0,0,0-1,.15.88.88,0,0,0-.43.3.77.77,0,0,0-.15.46.73.73,0,0,0,.23.55,1,1,0,0,0,.66.22,1.5,1.5,0,0,0,.76-.21,1.56,1.56,0,0,0,.58-.59A3.32,3.32,0,0,0,95,66Z" style="fill:#fff"/><path d="M99.75,66.69l.8.09a2.71,2.71,0,0,1-.85,1.3,2,2,0,0,1-1.26.42A1.63,1.63,0,0,1,97.21,68a1.94,1.94,0,0,1-.47-1.38,3.94,3.94,0,0,1,.3-1.5A2.37,2.37,0,0,1,97.91,64a2.21,2.21,0,0,1,1.29-.39,1.61,1.61,0,0,1,1.19.43,1.48,1.48,0,0,1,.44,1.12l-.78,0a1,1,0,0,0-.26-.69.9.9,0,0,0-.67-.25,1.25,1.25,0,0,0-.83.3,2,2,0,0,0-.55.92,4,4,0,0,0-.2,1.19,1.31,1.31,0,0,0,.27.9.82.82,0,0,0,.65.3,1.16,1.16,0,0,0,.74-.3A1.87,1.87,0,0,0,99.75,66.69Z" style="fill:#fff"/><path d="M104.46,66.81l.77.08a2.29,2.29,0,0,1-.76,1.09,2.1,2.1,0,0,1-1.43.52,2,2,0,0,1-1-.24,1.63,1.63,0,0,1-.66-.69,2.38,2.38,0,0,1-.22-1,3.38,3.38,0,0,1,.35-1.48,2.51,2.51,0,0,1,.92-1.07,2.28,2.28,0,0,1,1.22-.35,1.78,1.78,0,0,1,1.33.52,2,2,0,0,1,.5,1.42,4.32,4.32,0,0,1-.06.7H102a2.29,2.29,0,0,0,0,.25,1.49,1.49,0,0,0,.3,1,.94.94,0,0,0,.74.34,1.4,1.4,0,0,0,.8-.27A1.71,1.71,0,0,0,104.46,66.81Zm-2.31-1.16h2.62v-.17a1.29,1.29,0,0,0-.3-.92,1,1,0,0,0-.77-.32,1.44,1.44,0,0,0-.93.35A2.15,2.15,0,0,0,102.15,65.65Z" style="fill:#fff"/><path d="M106,68.4,107.32,62h.8l-1.35,6.45Z" style="fill:#fff"/><path d="M111.46,66.81l.78.08a2.32,2.32,0,0,1-.77,1.09,2.1,2.1,0,0,1-1.43.52,1.94,1.94,0,0,1-1-.24,1.57,1.57,0,0,1-.66-.69,2.38,2.38,0,0,1-.23-1,3.26,3.26,0,0,1,.36-1.48,2.49,2.49,0,0,1,.91-1.07,2.3,2.3,0,0,1,1.22-.35,1.81,1.81,0,0,1,1.34.52,2,2,0,0,1,.49,1.42,4.32,4.32,0,0,1-.06.7H109a1.1,1.1,0,0,0,0,.25,1.49,1.49,0,0,0,.3,1,.94.94,0,0,0,.73.34,1.4,1.4,0,0,0,.81-.27A1.7,1.7,0,0,0,111.46,66.81Zm-2.31-1.16h2.62a1.31,1.31,0,0,0,0-.17,1.29,1.29,0,0,0-.3-.92,1,1,0,0,0-.77-.32,1.44,1.44,0,0,0-.93.35A2.16,2.16,0,0,0,109.15,65.65Z" style="fill:#fff"/><path d="M113,68.4l1-4.67h.7l-.2,1a3.39,3.39,0,0,1,.71-.8,1.17,1.17,0,0,1,.7-.26,1.45,1.45,0,0,1,.59.17l-.33.74a.72.72,0,0,0-.45-.15,1.25,1.25,0,0,0-.86.47,3.61,3.61,0,0,0-.69,1.67l-.39,1.88Z" style="fill:#fff"/><path d="M119.19,67.82a3.39,3.39,0,0,1-.8.52,2,2,0,0,1-.82.16,1.46,1.46,0,0,1-1-.38,1.3,1.3,0,0,1-.39-1,1.48,1.48,0,0,1,.17-.7,1.38,1.38,0,0,1,.48-.48,2,2,0,0,1,.72-.26,7.35,7.35,0,0,1,1-.08,3.82,3.82,0,0,0,1.07-.16,2.15,2.15,0,0,0,.09-.54.54.54,0,0,0-.2-.44,1.3,1.3,0,0,0-.81-.22,1.47,1.47,0,0,0-.82.22,1.28,1.28,0,0,0-.46.64l-.81-.07a2.17,2.17,0,0,1,.78-1.07,2.39,2.39,0,0,1,1.35-.37,2.08,2.08,0,0,1,1.37.42,1,1,0,0,1,.39.8,4.3,4.3,0,0,1-.11.86l-.26,1.16a4.46,4.46,0,0,0-.12.9,3.29,3.29,0,0,0,.09.64h-.8A2.83,2.83,0,0,1,119.19,67.82Zm.29-1.79a1.89,1.89,0,0,1-.36.1,6,6,0,0,1-.64.08,5.2,5.2,0,0,0-1,.15.93.93,0,0,0-.43.3.83.83,0,0,0-.14.46.7.7,0,0,0,.23.55.94.94,0,0,0,.66.22,1.53,1.53,0,0,0,1.33-.8A3.32,3.32,0,0,0,119.48,66Z" style="fill:#fff"/><path d="M121.26,68.4l.19-.91h.9l-.19.91Z" style="fill:#fff"/><path d="M126.11,68.4,127.45,62h.86l-1.19,5.72h3.35l-.16.73Z" style="fill:#fff"/><path d="M134.2,67.82a3.39,3.39,0,0,1-.8.52,2,2,0,0,1-.82.16,1.46,1.46,0,0,1-1-.38,1.3,1.3,0,0,1-.39-1,1.38,1.38,0,0,1,.18-.7,1.27,1.27,0,0,1,.47-.48,2,2,0,0,1,.72-.26,7.35,7.35,0,0,1,1-.08,3.76,3.76,0,0,0,1.07-.16,2.15,2.15,0,0,0,.09-.54.54.54,0,0,0-.2-.44,1.3,1.3,0,0,0-.81-.22,1.47,1.47,0,0,0-.82.22,1.28,1.28,0,0,0-.46.64l-.81-.07a2.17,2.17,0,0,1,.78-1.07,2.39,2.39,0,0,1,1.35-.37,2.06,2.06,0,0,1,1.37.42,1,1,0,0,1,.39.8,4.3,4.3,0,0,1-.11.86l-.26,1.16a4.46,4.46,0,0,0-.12.9,3.29,3.29,0,0,0,.09.64h-.8A2.83,2.83,0,0,1,134.2,67.82Zm.29-1.79a1.89,1.89,0,0,1-.36.1,6,6,0,0,1-.64.08,5.2,5.2,0,0,0-1,.15.93.93,0,0,0-.43.3.83.83,0,0,0-.14.46.73.73,0,0,0,.23.55.94.94,0,0,0,.66.22,1.53,1.53,0,0,0,1.33-.8A3.32,3.32,0,0,0,134.49,66Z" style="fill:#fff"/><path d="M141.7,67.72a1.91,1.91,0,0,1-1.42.78,1.44,1.44,0,0,1-1.11-.49,2.08,2.08,0,0,1-.44-1.42,3.5,3.5,0,0,1,.35-1.56A2.68,2.68,0,0,1,140,64a1.91,1.91,0,0,1,1-.35,1.4,1.4,0,0,1,1.31.84l.53-2.51h.79L142.3,68.4h-.74Zm-2.18-1.28a2.61,2.61,0,0,0,.1.77,1,1,0,0,0,.33.47.87.87,0,0,0,.56.18,1.24,1.24,0,0,0,1-.56,2.9,2.9,0,0,0,.59-1.84,1.25,1.25,0,0,0-.29-.87,1,1,0,0,0-.73-.31,1.11,1.11,0,0,0-.52.12,1.47,1.47,0,0,0-.47.44,2.91,2.91,0,0,0-.39.77A2.86,2.86,0,0,0,139.52,66.44Z" style="fill:#fff"/><path d="M143.53,68.4l1-4.67h.79l-1,4.67Zm1.16-5.55.19-.9h.79l-.19.9Z" style="fill:#fff"/><path d="M145.56,68.4l1-4.67h.7l-.2,1a3.39,3.39,0,0,1,.71-.8,1.17,1.17,0,0,1,.7-.26,1.45,1.45,0,0,1,.59.17l-.33.74a.74.74,0,0,0-.45-.15,1.25,1.25,0,0,0-.86.47,3.61,3.61,0,0,0-.69,1.67l-.39,1.88Z" style="fill:#fff"/><path d="M152,66.81l.77.08A2.32,2.32,0,0,1,152,68a2.08,2.08,0,0,1-1.43.52,1.94,1.94,0,0,1-.95-.24,1.57,1.57,0,0,1-.66-.69,2.38,2.38,0,0,1-.22-1,3.25,3.25,0,0,1,.35-1.48A2.51,2.51,0,0,1,150,64a2.27,2.27,0,0,1,1.21-.35,1.81,1.81,0,0,1,1.34.52,2,2,0,0,1,.5,1.42,4.32,4.32,0,0,1-.06.7h-3.44a2.29,2.29,0,0,0,0,.25,1.49,1.49,0,0,0,.3,1,.94.94,0,0,0,.74.34,1.4,1.4,0,0,0,.8-.27A1.71,1.71,0,0,0,152,66.81Zm-2.31-1.16h2.61a1.31,1.31,0,0,0,0-.17,1.29,1.29,0,0,0-.3-.92,1,1,0,0,0-.77-.32,1.44,1.44,0,0,0-.93.35A2.08,2.08,0,0,0,149.68,65.65Z" style="fill:#fff"/><path d="M156.79,66.69l.79.09a2.71,2.71,0,0,1-.85,1.3,2,2,0,0,1-1.25.42,1.64,1.64,0,0,1-1.24-.49,1.94,1.94,0,0,1-.47-1.38,3.94,3.94,0,0,1,.3-1.5,2.5,2.5,0,0,1,.87-1.12,2.23,2.23,0,0,1,1.29-.39,1.61,1.61,0,0,1,1.19.43,1.45,1.45,0,0,1,.44,1.12l-.78,0a.92.92,0,0,0-.26-.69.89.89,0,0,0-.66-.25,1.23,1.23,0,0,0-.83.3,1.92,1.92,0,0,0-.55.92,3.67,3.67,0,0,0-.2,1.19,1.31,1.31,0,0,0,.26.9.82.82,0,0,0,.65.3,1.14,1.14,0,0,0,.74-.3A1.88,1.88,0,0,0,156.79,66.69Z" style="fill:#fff"/><path d="M161.29,66.69l.79.09a2.71,2.71,0,0,1-.85,1.3,2,2,0,0,1-1.25.42,1.64,1.64,0,0,1-1.24-.49,1.94,1.94,0,0,1-.47-1.38,3.94,3.94,0,0,1,.3-1.5,2.5,2.5,0,0,1,.87-1.12,2.23,2.23,0,0,1,1.29-.39,1.61,1.61,0,0,1,1.19.43,1.45,1.45,0,0,1,.44,1.12l-.78,0a.92.92,0,0,0-.26-.69.89.89,0,0,0-.66-.25,1.23,1.23,0,0,0-.83.3,1.92,1.92,0,0,0-.55.92,3.67,3.67,0,0,0-.2,1.19,1.31,1.31,0,0,0,.26.9.82.82,0,0,0,.65.3,1.14,1.14,0,0,0,.74-.3A1.88,1.88,0,0,0,161.29,66.69Z" style="fill:#fff"/><path d="M162.53,68.4l1-4.67h.79l-1,4.67Zm1.16-5.55.19-.9h.79l-.19.9Z" style="fill:#fff"/><path d="M164.71,66.62a3.24,3.24,0,0,1,.8-2.26,2.23,2.23,0,0,1,1.74-.74,1.82,1.82,0,0,1,1.36.53,2,2,0,0,1,.52,1.42,3.43,3.43,0,0,1-.33,1.5,2.4,2.4,0,0,1-.92,1.06,2.37,2.37,0,0,1-1.27.37,2.19,2.19,0,0,1-1-.23,1.66,1.66,0,0,1-.68-.66A2,2,0,0,1,164.71,66.62Zm.79-.07a1.39,1.39,0,0,0,.32,1,1,1,0,0,0,.8.35,1.34,1.34,0,0,0,.51-.11,1.49,1.49,0,0,0,.46-.31A1.92,1.92,0,0,0,168,67a3.38,3.38,0,0,0,.38-1.42,1.41,1.41,0,0,0-.32-1,1,1,0,0,0-.8-.35,1.3,1.3,0,0,0-.68.18,1.71,1.71,0,0,0-.56.52,2.2,2.2,0,0,0-.36.79A3.31,3.31,0,0,0,165.5,66.55Zm1.12-3.39.83-1.21h1l-1.17,1.21Z" style="fill:#fff"/><path d="M169.57,68.4l1-4.67h.72l-.17.81a3.86,3.86,0,0,1,.87-.7,1.85,1.85,0,0,1,.84-.22,1.27,1.27,0,0,1,.89.31,1.11,1.11,0,0,1,.32.82,5,5,0,0,1-.11.82l-.6,2.83h-.79l.62-3a3.5,3.5,0,0,0,.09-.64.49.49,0,0,0-.16-.38.7.7,0,0,0-.46-.14,1.53,1.53,0,0,0-1.09.44,2.76,2.76,0,0,0-.7,1.5l-.45,2.18Z" style="fill:#fff"/><path d="M180.22,67.72a1.91,1.91,0,0,1-1.42.78,1.44,1.44,0,0,1-1.11-.49,2.08,2.08,0,0,1-.44-1.42A3.5,3.5,0,0,1,177.6,65a2.68,2.68,0,0,1,.88-1.06,1.91,1.91,0,0,1,1.05-.35,1.4,1.4,0,0,1,1.31.84l.53-2.51h.79l-1.34,6.45h-.74ZM178,66.44a2.61,2.61,0,0,0,.1.77,1,1,0,0,0,.33.47.87.87,0,0,0,.56.18,1.24,1.24,0,0,0,1-.56,2.9,2.9,0,0,0,.59-1.84,1.25,1.25,0,0,0-.29-.87,1,1,0,0,0-.73-.31,1.11,1.11,0,0,0-.52.12,1.47,1.47,0,0,0-.47.44,2.91,2.91,0,0,0-.39.77A2.86,2.86,0,0,0,178,66.44Z" style="fill:#fff"/><path d="M185.51,66.81l.77.08a2.29,2.29,0,0,1-.76,1.09,2.1,2.1,0,0,1-1.43.52,2,2,0,0,1-1-.24,1.61,1.61,0,0,1-.65-.69,2.25,2.25,0,0,1-.23-1A3.38,3.38,0,0,1,182.6,65a2.51,2.51,0,0,1,.92-1.07,2.28,2.28,0,0,1,1.22-.35,1.78,1.78,0,0,1,1.33.52,2,2,0,0,1,.5,1.42,4.32,4.32,0,0,1-.06.7h-3.44a2.29,2.29,0,0,0,0,.25,1.49,1.49,0,0,0,.3,1,.94.94,0,0,0,.74.34,1.4,1.4,0,0,0,.8-.27A1.71,1.71,0,0,0,185.51,66.81Zm-2.31-1.16h2.62v-.17a1.29,1.29,0,0,0-.3-.92,1,1,0,0,0-.77-.32,1.44,1.44,0,0,0-.93.35A2.15,2.15,0,0,0,183.2,65.65Z" style="fill:#fff"/><path d="M189.53,68.4,190.87,62h.8l-1.35,6.45Z" style="fill:#fff"/><path d="M194.73,67.82a3.34,3.34,0,0,1-.79.52,2.07,2.07,0,0,1-.82.16,1.45,1.45,0,0,1-1-.38,1.3,1.3,0,0,1-.4-1,1.38,1.38,0,0,1,.18-.7,1.44,1.44,0,0,1,.47-.48,2.09,2.09,0,0,1,.73-.26,7,7,0,0,1,1-.08,3.84,3.84,0,0,0,1.08-.16,2.15,2.15,0,0,0,.09-.54.54.54,0,0,0-.2-.44,1.35,1.35,0,0,0-.81-.22,1.45,1.45,0,0,0-.82.22,1.23,1.23,0,0,0-.46.64l-.81-.07a2.17,2.17,0,0,1,.78-1.07,2.39,2.39,0,0,1,1.35-.37,2.08,2.08,0,0,1,1.37.42,1,1,0,0,1,.39.8,4.3,4.3,0,0,1-.11.86l-.26,1.16a4.6,4.6,0,0,0-.13.9,3.48,3.48,0,0,0,.1.64h-.8A2.77,2.77,0,0,1,194.73,67.82ZM195,66a1.89,1.89,0,0,1-.36.1,6.33,6.33,0,0,1-.64.08,5.2,5.2,0,0,0-1,.15.93.93,0,0,0-.43.3.76.76,0,0,0-.14.46.7.7,0,0,0,.23.55.93.93,0,0,0,.65.22,1.48,1.48,0,0,0,.76-.21,1.5,1.5,0,0,0,.58-.59A3.32,3.32,0,0,0,195,66Z" style="fill:#fff"/><path d="M202.24,67.82a3.56,3.56,0,0,1-.79.52,2.07,2.07,0,0,1-.82.16,1.45,1.45,0,0,1-1-.38,1.27,1.27,0,0,1-.4-1,1.38,1.38,0,0,1,.18-.7,1.35,1.35,0,0,1,.47-.48,2.11,2.11,0,0,1,.72-.26,7.35,7.35,0,0,1,1-.08,3.7,3.7,0,0,0,1.07-.16,2.24,2.24,0,0,0,.1-.54.52.52,0,0,0-.21-.44,1.3,1.3,0,0,0-.81-.22,1.49,1.49,0,0,0-.82.22,1.28,1.28,0,0,0-.46.64l-.8-.07a2.06,2.06,0,0,1,.78-1.07,2.33,2.33,0,0,1,1.34-.37,2.11,2.11,0,0,1,1.38.42,1,1,0,0,1,.38.8,3.67,3.67,0,0,1-.11.86l-.26,1.16a4.46,4.46,0,0,0-.12.9,2.78,2.78,0,0,0,.1.64h-.81A3.74,3.74,0,0,1,202.24,67.82Zm.3-1.79a2.42,2.42,0,0,1-.36.1,6.33,6.33,0,0,1-.64.08,5.06,5.06,0,0,0-1,.15.88.88,0,0,0-.43.3.77.77,0,0,0-.15.46.73.73,0,0,0,.23.55,1,1,0,0,0,.66.22,1.5,1.5,0,0,0,.76-.21,1.64,1.64,0,0,0,.58-.59A3.32,3.32,0,0,0,202.54,66Z" style="fill:#fff"/><path d="M207.32,66.69l.8.09a2.79,2.79,0,0,1-.85,1.3,2,2,0,0,1-1.26.42,1.6,1.6,0,0,1-1.23-.49,1.9,1.9,0,0,1-.47-1.38,3.94,3.94,0,0,1,.3-1.5,2.37,2.37,0,0,1,.87-1.12,2.19,2.19,0,0,1,1.29-.39,1.63,1.63,0,0,1,1.19.43,1.48,1.48,0,0,1,.44,1.12l-.78,0a1,1,0,0,0-.26-.69.9.9,0,0,0-.67-.25,1.25,1.25,0,0,0-.83.3,2,2,0,0,0-.55.92,4,4,0,0,0-.2,1.19,1.36,1.36,0,0,0,.26.9.85.85,0,0,0,.65.3,1.12,1.12,0,0,0,.74-.3A1.81,1.81,0,0,0,207.32,66.69Z" style="fill:#fff"/><path d="M212,66.81l.77.08A2.32,2.32,0,0,1,212,68a2.08,2.08,0,0,1-1.43.52,1.94,1.94,0,0,1-.95-.24,1.57,1.57,0,0,1-.66-.69,2.38,2.38,0,0,1-.22-1,3.25,3.25,0,0,1,.35-1.48A2.51,2.51,0,0,1,210,64a2.27,2.27,0,0,1,1.21-.35,1.81,1.81,0,0,1,1.34.52,2,2,0,0,1,.5,1.42,4.32,4.32,0,0,1-.06.7h-3.44a2.29,2.29,0,0,0,0,.25,1.49,1.49,0,0,0,.3,1,.94.94,0,0,0,.74.34,1.4,1.4,0,0,0,.8-.27A1.71,1.71,0,0,0,212,66.81Zm-2.31-1.16h2.61a1.31,1.31,0,0,0,0-.17,1.29,1.29,0,0,0-.3-.92,1,1,0,0,0-.77-.32,1.44,1.44,0,0,0-.93.35A2.08,2.08,0,0,0,209.72,65.65Z" style="fill:#fff"/><path d="M213.54,68.4,214.89,62h.79l-1.34,6.45Z" style="fill:#fff"/><path d="M219,66.81l.78.08A2.32,2.32,0,0,1,219,68a2.1,2.1,0,0,1-1.43.52,1.92,1.92,0,0,1-1-.24,1.57,1.57,0,0,1-.66-.69,2.38,2.38,0,0,1-.23-1,3.26,3.26,0,0,1,.36-1.48A2.49,2.49,0,0,1,217,64a2.3,2.3,0,0,1,1.22-.35,1.77,1.77,0,0,1,1.33.52,1.94,1.94,0,0,1,.5,1.42,4.32,4.32,0,0,1-.06.7h-3.44a2.18,2.18,0,0,0,0,.25,1.49,1.49,0,0,0,.3,1,.92.92,0,0,0,.73.34,1.43,1.43,0,0,0,.81-.27A1.7,1.7,0,0,0,219,66.81Zm-2.31-1.16h2.62c0-.08,0-.14,0-.17a1.29,1.29,0,0,0-.3-.92,1,1,0,0,0-.77-.32,1.44,1.44,0,0,0-.93.35A2.16,2.16,0,0,0,216.72,65.65Z" style="fill:#fff"/><path d="M220.61,68.4l1-4.67h.7l-.2,1a3.39,3.39,0,0,1,.71-.8,1.17,1.17,0,0,1,.7-.26,1.45,1.45,0,0,1,.59.17l-.33.74a.76.76,0,0,0-.45-.15,1.25,1.25,0,0,0-.86.47,3.61,3.61,0,0,0-.69,1.67l-.39,1.88Z" style="fill:#fff"/><path d="M226.75,67.82a3.34,3.34,0,0,1-.79.52,2.07,2.07,0,0,1-.82.16,1.45,1.45,0,0,1-1-.38,1.3,1.3,0,0,1-.39-1,1.29,1.29,0,0,1,.65-1.18,2,2,0,0,1,.72-.26,7,7,0,0,1,1-.08,3.84,3.84,0,0,0,1.08-.16,2.15,2.15,0,0,0,.09-.54.54.54,0,0,0-.2-.44,1.35,1.35,0,0,0-.81-.22,1.45,1.45,0,0,0-.82.22,1.23,1.23,0,0,0-.46.64l-.81-.07a2.17,2.17,0,0,1,.78-1.07,2.39,2.39,0,0,1,1.35-.37,2.08,2.08,0,0,1,1.37.42,1,1,0,0,1,.39.8,4.3,4.3,0,0,1-.11.86l-.26,1.16a4.6,4.6,0,0,0-.13.9,3.48,3.48,0,0,0,.1.64h-.8A2.77,2.77,0,0,1,226.75,67.82Zm.3-1.79a1.89,1.89,0,0,1-.36.1,6.33,6.33,0,0,1-.64.08,5.2,5.2,0,0,0-1,.15.93.93,0,0,0-.43.3.76.76,0,0,0-.14.46.7.7,0,0,0,.23.55.93.93,0,0,0,.65.22,1.48,1.48,0,0,0,.76-.21,1.5,1.5,0,0,0,.58-.59A3.32,3.32,0,0,0,227.05,66Z" style="fill:#fff"/><path d="M231.83,66.69l.8.09a2.71,2.71,0,0,1-.85,1.3,2,2,0,0,1-1.25.42,1.64,1.64,0,0,1-1.24-.49,1.94,1.94,0,0,1-.47-1.38,3.94,3.94,0,0,1,.3-1.5A2.43,2.43,0,0,1,230,64a2.23,2.23,0,0,1,1.29-.39,1.61,1.61,0,0,1,1.19.43,1.48,1.48,0,0,1,.44,1.12l-.78,0a.92.92,0,0,0-.26-.69.89.89,0,0,0-.66-.25,1.27,1.27,0,0,0-.84.3,2.09,2.09,0,0,0-.55.92,4,4,0,0,0-.2,1.19,1.31,1.31,0,0,0,.27.9.82.82,0,0,0,.65.3,1.14,1.14,0,0,0,.74-.3A1.87,1.87,0,0,0,231.83,66.69Z" style="fill:#fff"/><path d="M233.08,68.4l1-4.67h.79l-1,4.67Zm1.16-5.55.19-.9h.79l-.19.9Z" style="fill:#fff"/><path d="M235.25,66.62a3.25,3.25,0,0,1,.81-2.26,2.23,2.23,0,0,1,1.74-.74,1.84,1.84,0,0,1,1.36.53,2,2,0,0,1,.51,1.42,3.42,3.42,0,0,1-.32,1.5,2.42,2.42,0,0,1-.93,1.06,2.34,2.34,0,0,1-1.26.37,2.19,2.19,0,0,1-1-.23,1.66,1.66,0,0,1-.68-.66A2,2,0,0,1,235.25,66.62Zm.8-.07a1.34,1.34,0,0,0,.32,1,1,1,0,0,0,.8.35,1.34,1.34,0,0,0,.51-.11,1.49,1.49,0,0,0,.46-.31,2.19,2.19,0,0,0,.37-.48,3.38,3.38,0,0,0,.38-1.42,1.41,1.41,0,0,0-.32-1,1,1,0,0,0-.8-.35,1.3,1.3,0,0,0-.68.18,1.71,1.71,0,0,0-.56.52,2.2,2.2,0,0,0-.36.79A3.31,3.31,0,0,0,236.05,66.55Zm1.12-3.39L238,62h1l-1.17,1.21Z" style="fill:#fff"/><path d="M240.12,68.4l1-4.67h.73l-.18.81a4.12,4.12,0,0,1,.88-.7,1.81,1.81,0,0,1,.84-.22,1.27,1.27,0,0,1,.89.31,1.11,1.11,0,0,1,.32.82,5,5,0,0,1-.11.82l-.6,2.83h-.79l.62-3a3.5,3.5,0,0,0,.09-.64.49.49,0,0,0-.16-.38.7.7,0,0,0-.46-.14,1.53,1.53,0,0,0-1.09.44,2.76,2.76,0,0,0-.7,1.5l-.46,2.18Z" style="fill:#fff"/><path d="M251.05,66.81l.78.08a2.39,2.39,0,0,1-.77,1.09,2.1,2.1,0,0,1-1.43.52,1.92,1.92,0,0,1-.95-.24,1.57,1.57,0,0,1-.66-.69,2.38,2.38,0,0,1-.23-1,3.26,3.26,0,0,1,.36-1.48,2.49,2.49,0,0,1,.91-1.07,2.3,2.3,0,0,1,1.22-.35,1.77,1.77,0,0,1,1.33.52,1.94,1.94,0,0,1,.5,1.42,4.32,4.32,0,0,1-.06.7h-3.44a2.18,2.18,0,0,0,0,.25,1.49,1.49,0,0,0,.3,1,.92.92,0,0,0,.73.34,1.43,1.43,0,0,0,.81-.27A1.7,1.7,0,0,0,251.05,66.81Zm-2.31-1.16h2.62c0-.08,0-.14,0-.17a1.34,1.34,0,0,0-.3-.92,1,1,0,0,0-.77-.32,1.44,1.44,0,0,0-.93.35A2.16,2.16,0,0,0,248.74,65.65Z" style="fill:#fff"/><path d="M252.71,66.8l.79,0a1.48,1.48,0,0,0,.11.59.82.82,0,0,0,.39.39,1.34,1.34,0,0,0,.66.16,1.2,1.2,0,0,0,.79-.22.62.62,0,0,0,.26-.49.56.56,0,0,0-.16-.39,2.35,2.35,0,0,0-.79-.46A6.74,6.74,0,0,1,254,66a1.37,1.37,0,0,1-.44-.42,1.07,1.07,0,0,1-.15-.56,1.24,1.24,0,0,1,.44-1,1.74,1.74,0,0,1,1.23-.4,2,2,0,0,1,1.34.41,1.47,1.47,0,0,1,.48,1.07l-.78.05a.9.9,0,0,0-.3-.67,1.19,1.19,0,0,0-.8-.24,1,1,0,0,0-.64.19.53.53,0,0,0-.23.41.5.5,0,0,0,.2.38,3,3,0,0,0,.68.35,4.84,4.84,0,0,1,1.15.63,1.19,1.19,0,0,1,.38.89,1.28,1.28,0,0,1-.21.68,1.45,1.45,0,0,1-.65.53,2.52,2.52,0,0,1-1,.2,2.32,2.32,0,0,1-1.38-.4A1.39,1.39,0,0,1,252.71,66.8Z" style="fill:#fff"/><path d="M66,79.19l1.34-6.44h.8l-1.35,6.44Z" style="fill:#fff"/><path d="M71.16,78.61a3.12,3.12,0,0,1-.79.53,2.07,2.07,0,0,1-.82.16,1.45,1.45,0,0,1-1-.38,1.3,1.3,0,0,1-.4-1,1.38,1.38,0,0,1,.18-.7,1.44,1.44,0,0,1,.47-.48,2.09,2.09,0,0,1,.73-.26,7,7,0,0,1,1-.08,3.84,3.84,0,0,0,1.08-.16,2.15,2.15,0,0,0,.09-.54.54.54,0,0,0-.2-.44,1.35,1.35,0,0,0-.81-.22,1.45,1.45,0,0,0-.82.22,1.3,1.3,0,0,0-.47.64l-.8-.07a2.17,2.17,0,0,1,.78-1.07,2.39,2.39,0,0,1,1.35-.37,2.08,2.08,0,0,1,1.37.42,1,1,0,0,1,.39.8,4.3,4.3,0,0,1-.11.86l-.26,1.16a3.94,3.94,0,0,0-.13.9,3.29,3.29,0,0,0,.1.63h-.8A2.55,2.55,0,0,1,71.16,78.61Zm.3-1.78a1.89,1.89,0,0,1-.36.1,6.33,6.33,0,0,1-.64.08,5.2,5.2,0,0,0-1,.15.93.93,0,0,0-.43.3.76.76,0,0,0-.14.46.7.7,0,0,0,.23.55.93.93,0,0,0,.65.22,1.48,1.48,0,0,0,.76-.21,1.5,1.5,0,0,0,.58-.59A3.32,3.32,0,0,0,71.46,76.83Z" style="fill:#fff"/><path d="M75.52,79.19l1-4.66h.8l-.16.77a3.27,3.27,0,0,1,.79-.69,1.65,1.65,0,0,1,.76-.19,1.18,1.18,0,0,1,.73.23,1.12,1.12,0,0,1,.38.65,2.51,2.51,0,0,1,.75-.66,1.64,1.64,0,0,1,.83-.22,1.27,1.27,0,0,1,.88.28,1,1,0,0,1,.29.78,5,5,0,0,1-.1.71l-.63,3H81l.64-3.08a2.66,2.66,0,0,0,.09-.54.46.46,0,0,0-.15-.36.56.56,0,0,0-.41-.13,1.48,1.48,0,0,0-.72.21,1.59,1.59,0,0,0-.58.57,3.91,3.91,0,0,0-.35,1.07l-.48,2.26h-.79L78.92,76a3.15,3.15,0,0,0,.07-.45.48.48,0,0,0-.15-.37.48.48,0,0,0-.37-.14,1.47,1.47,0,0,0-.71.21,1.72,1.72,0,0,0-.6.6,3.25,3.25,0,0,0-.38,1.1l-.47,2.2Z" style="fill:#fff"/><path d="M83,79.19l1-4.66h.79l-1,4.66Zm1.16-5.54.19-.9h.79l-.19.9Z" style="fill:#fff"/><path d="M85.09,77.6l.8,0a1.32,1.32,0,0,0,.11.59.84.84,0,0,0,.38.39,1.4,1.4,0,0,0,.66.16,1.27,1.27,0,0,0,.8-.22A.62.62,0,0,0,88.1,78a.56.56,0,0,0-.16-.39,2.35,2.35,0,0,0-.79-.46,8.91,8.91,0,0,1-.81-.38,1.37,1.37,0,0,1-.44-.42,1.07,1.07,0,0,1-.15-.56,1.24,1.24,0,0,1,.44-1,1.74,1.74,0,0,1,1.23-.4,2,2,0,0,1,1.34.41,1.43,1.43,0,0,1,.47,1.07l-.77,0a1,1,0,0,0-.3-.67,1.19,1.19,0,0,0-.8-.24,1,1,0,0,0-.64.19.53.53,0,0,0-.23.41.5.5,0,0,0,.2.38,2.75,2.75,0,0,0,.68.35,4.84,4.84,0,0,1,1.15.63,1.19,1.19,0,0,1,.38.89,1.28,1.28,0,0,1-.21.68,1.51,1.51,0,0,1-.65.53,2.52,2.52,0,0,1-1,.2,2.32,2.32,0,0,1-1.38-.4A1.42,1.42,0,0,1,85.09,77.6Z" style="fill:#fff"/><path d="M89.52,79.19l1-4.66h.8l-.17.77a3.28,3.28,0,0,1,.8-.69,1.61,1.61,0,0,1,.75-.19,1.16,1.16,0,0,1,.73.23,1.14,1.14,0,0,1,.39.65,2.29,2.29,0,0,1,.75-.66,1.6,1.6,0,0,1,.82-.22,1.25,1.25,0,0,1,.88.28,1,1,0,0,1,.29.78,3.84,3.84,0,0,1-.1.71l-.63,3H95l.64-3.08a2.46,2.46,0,0,0,.08-.54.45.45,0,0,0-.14-.36.58.58,0,0,0-.41-.13,1.42,1.42,0,0,0-.72.21,1.59,1.59,0,0,0-.58.57,3.86,3.86,0,0,0-.36,1.07l-.47,2.26h-.8L92.91,76a2.14,2.14,0,0,0,.07-.45.51.51,0,0,0-.14-.37.49.49,0,0,0-.37-.14,1.44,1.44,0,0,0-.71.21,1.84,1.84,0,0,0-.61.6,3.76,3.76,0,0,0-.38,1.1l-.46,2.2Z" style="fill:#fff"/><path d="M100.16,78.61a3.12,3.12,0,0,1-.79.53,2.07,2.07,0,0,1-.82.16,1.45,1.45,0,0,1-1-.38,1.3,1.3,0,0,1-.4-1,1.38,1.38,0,0,1,.18-.7,1.44,1.44,0,0,1,.47-.48,2.11,2.11,0,0,1,.72-.26,7.35,7.35,0,0,1,1-.08,3.84,3.84,0,0,0,1.08-.16,2.15,2.15,0,0,0,.09-.54.54.54,0,0,0-.2-.44,1.35,1.35,0,0,0-.81-.22,1.45,1.45,0,0,0-.82.22,1.3,1.3,0,0,0-.47.64l-.8-.07a2.06,2.06,0,0,1,.78-1.07,2.39,2.39,0,0,1,1.35-.37,2.1,2.1,0,0,1,1.37.42,1,1,0,0,1,.39.8,3.75,3.75,0,0,1-.12.86l-.25,1.16a3.94,3.94,0,0,0-.13.9,3.29,3.29,0,0,0,.1.63h-.81A3.39,3.39,0,0,1,100.16,78.61Zm.3-1.78a1.89,1.89,0,0,1-.36.1,6.33,6.33,0,0,1-.64.08,5.2,5.2,0,0,0-1,.15.93.93,0,0,0-.43.3.77.77,0,0,0-.15.46.73.73,0,0,0,.23.55,1,1,0,0,0,.66.22,1.48,1.48,0,0,0,.76-.21,1.56,1.56,0,0,0,.58-.59A3.32,3.32,0,0,0,100.46,76.83Z" style="fill:#fff"/><path d="M107.54,78.67a2,2,0,0,1-1.31.63,1.43,1.43,0,0,1-1.1-.49,2,2,0,0,1-.45-1.41,3.65,3.65,0,0,1,.34-1.57,2.66,2.66,0,0,1,.87-1.06,2,2,0,0,1,1.1-.35,1.32,1.32,0,0,1,.77.24,1.68,1.68,0,0,1,.57.72l.18-.85h.68L107.85,81h-.8Zm-2.07-1.37a1.53,1.53,0,0,0,.29,1,.89.89,0,0,0,.71.33,1.17,1.17,0,0,0,.73-.3,2.22,2.22,0,0,0,.6-.9A3.23,3.23,0,0,0,108,76.3a1.33,1.33,0,0,0-.29-.9,1,1,0,0,0-.72-.32,1.08,1.08,0,0,0-.73.27,2.26,2.26,0,0,0-.64,1A2.87,2.87,0,0,0,105.47,77.3Z" style="fill:#fff"/><path d="M112.71,78.35a2.36,2.36,0,0,1-1.71,1,1.21,1.21,0,0,1-.88-.31,1,1,0,0,1-.33-.76,5.88,5.88,0,0,1,.15-1l.56-2.69h.8l-.63,3a3.06,3.06,0,0,0-.07.58.51.51,0,0,0,.16.41.65.65,0,0,0,.47.15,1.39,1.39,0,0,0,.65-.16,1.81,1.81,0,0,0,.55-.44,2.48,2.48,0,0,0,.38-.66,7.31,7.31,0,0,0,.22-.85l.42-2h.8l-1,4.66h-.73Z" style="fill:#fff"/><path d="M118,77.61l.77.08a2.29,2.29,0,0,1-.76,1.09,2.1,2.1,0,0,1-1.43.52,1.89,1.89,0,0,1-1-.24,1.55,1.55,0,0,1-.66-.7,2.31,2.31,0,0,1-.23-1,3.38,3.38,0,0,1,.35-1.48,2.51,2.51,0,0,1,.92-1.07,2.28,2.28,0,0,1,1.22-.35,1.78,1.78,0,0,1,1.33.52,2,2,0,0,1,.5,1.42,4.32,4.32,0,0,1-.06.7h-3.44a2.29,2.29,0,0,0,0,.25,1.46,1.46,0,0,0,.31,1,1,1,0,0,0,.73.34,1.45,1.45,0,0,0,.81-.27A1.76,1.76,0,0,0,118,77.61Zm-2.31-1.16h2.62v-.17a1.29,1.29,0,0,0-.3-.92,1,1,0,0,0-.76-.32,1.44,1.44,0,0,0-.93.35A2.16,2.16,0,0,0,115.65,76.45Z" style="fill:#fff"/><path d="M122,79.19l1.34-6.44h.8l-1.35,6.44Z" style="fill:#fff"/><path d="M127.19,78.61a3.34,3.34,0,0,1-.8.53,2.07,2.07,0,0,1-.82.16,1.45,1.45,0,0,1-1-.38,1.3,1.3,0,0,1-.39-1,1.48,1.48,0,0,1,.17-.7,1.38,1.38,0,0,1,.48-.48,2,2,0,0,1,.72-.26,7.16,7.16,0,0,1,1-.08,3.84,3.84,0,0,0,1.08-.16,2.15,2.15,0,0,0,.09-.54.54.54,0,0,0-.2-.44,1.35,1.35,0,0,0-.81-.22,1.47,1.47,0,0,0-.82.22,1.23,1.23,0,0,0-.46.64l-.81-.07a2.17,2.17,0,0,1,.78-1.07,2.39,2.39,0,0,1,1.35-.37,2.08,2.08,0,0,1,1.37.42,1,1,0,0,1,.39.8,4.3,4.3,0,0,1-.11.86l-.26,1.16a4.46,4.46,0,0,0-.12.9,3.12,3.12,0,0,0,.09.63h-.8A2.14,2.14,0,0,1,127.19,78.61Zm.29-1.78a1.89,1.89,0,0,1-.36.1,6.33,6.33,0,0,1-.64.08,5.2,5.2,0,0,0-1,.15.93.93,0,0,0-.43.3.76.76,0,0,0-.14.46.7.7,0,0,0,.23.55.93.93,0,0,0,.65.22,1.48,1.48,0,0,0,.76-.21,1.5,1.5,0,0,0,.58-.59A3.32,3.32,0,0,0,127.48,76.83Z" style="fill:#fff"/><path d="M134.69,78.52a1.91,1.91,0,0,1-1.42.78,1.44,1.44,0,0,1-1.11-.49,2.08,2.08,0,0,1-.44-1.42,3.5,3.5,0,0,1,.35-1.56,2.66,2.66,0,0,1,.87-1.06,1.94,1.94,0,0,1,1.06-.35,1.41,1.41,0,0,1,1.31.84l.53-2.51h.79l-1.34,6.44h-.74Zm-2.18-1.28a2.32,2.32,0,0,0,.1.77,1,1,0,0,0,.33.47.87.87,0,0,0,.56.18,1.24,1.24,0,0,0,1-.56,2.89,2.89,0,0,0,.58-1.84,1.25,1.25,0,0,0-.28-.87,1,1,0,0,0-.74-.31,1.14,1.14,0,0,0-.52.12,1.56,1.56,0,0,0-.46.44,2.91,2.91,0,0,0-.39.77A2.56,2.56,0,0,0,132.51,77.24Z" style="fill:#fff"/><path d="M140,77.61l.77.08a2.37,2.37,0,0,1-.76,1.09,2.13,2.13,0,0,1-1.44.52,1.94,1.94,0,0,1-1-.24,1.55,1.55,0,0,1-.66-.7,2.31,2.31,0,0,1-.22-1,3.38,3.38,0,0,1,.35-1.48,2.51,2.51,0,0,1,.92-1.07,2.28,2.28,0,0,1,1.22-.35,1.78,1.78,0,0,1,1.33.52,2,2,0,0,1,.5,1.42,4.32,4.32,0,0,1-.06.7h-3.44a2.29,2.29,0,0,0,0,.25,1.51,1.51,0,0,0,.3,1,1,1,0,0,0,.74.34,1.4,1.4,0,0,0,.8-.27A1.71,1.71,0,0,0,140,77.61Zm-2.31-1.16h2.62v-.17a1.29,1.29,0,0,0-.3-.92,1,1,0,0,0-.77-.32,1.44,1.44,0,0,0-.93.35A2.08,2.08,0,0,0,137.67,76.45Z" style="fill:#fff"/><path d="M144,79.19l1.34-6.44h.79l-1.34,6.44Z" style="fill:#fff"/><path d="M149.2,78.61a3.12,3.12,0,0,1-.79.53,2.07,2.07,0,0,1-.82.16,1.45,1.45,0,0,1-1-.38,1.3,1.3,0,0,1-.4-1,1.38,1.38,0,0,1,.18-.7,1.44,1.44,0,0,1,.47-.48,2.11,2.11,0,0,1,.72-.26,7.35,7.35,0,0,1,1-.08,3.84,3.84,0,0,0,1.08-.16,2.15,2.15,0,0,0,.09-.54.54.54,0,0,0-.2-.44,1.35,1.35,0,0,0-.81-.22,1.45,1.45,0,0,0-.82.22,1.3,1.3,0,0,0-.47.64l-.8-.07a2.06,2.06,0,0,1,.78-1.07,2.39,2.39,0,0,1,1.35-.37,2.1,2.1,0,0,1,1.37.42,1,1,0,0,1,.39.8,3.75,3.75,0,0,1-.12.86l-.25,1.16a3.94,3.94,0,0,0-.13.9,3.29,3.29,0,0,0,.1.63h-.81A3.39,3.39,0,0,1,149.2,78.61Zm.3-1.78a1.89,1.89,0,0,1-.36.1,6.33,6.33,0,0,1-.64.08,5.2,5.2,0,0,0-1,.15.93.93,0,0,0-.43.3.77.77,0,0,0-.15.46.73.73,0,0,0,.23.55,1,1,0,0,0,.66.22,1.48,1.48,0,0,0,.76-.21,1.56,1.56,0,0,0,.58-.59A3.32,3.32,0,0,0,149.5,76.83Z" style="fill:#fff"/><path d="M153.67,79.19l.85-4h-.71l.13-.61h.71l.13-.67a3.18,3.18,0,0,1,.22-.71.86.86,0,0,1,.37-.36,1.32,1.32,0,0,1,.68-.15,4.76,4.76,0,0,1,.88.13l-.14.69a2.78,2.78,0,0,0-.68-.1.48.48,0,0,0-.35.12,1.13,1.13,0,0,0-.21.55l-.11.5h.89l-.13.61h-.88l-.85,4Z" style="fill:#fff"/><path d="M159.25,78.35a2.36,2.36,0,0,1-1.72,1,1.2,1.2,0,0,1-.87-.31,1,1,0,0,1-.33-.76,5.88,5.88,0,0,1,.15-1l.56-2.69h.79l-.62,3a3.25,3.25,0,0,0-.08.58.51.51,0,0,0,.16.41.66.66,0,0,0,.47.15,1.43,1.43,0,0,0,.66-.16,1.77,1.77,0,0,0,.54-.44,2.24,2.24,0,0,0,.38-.66,4.65,4.65,0,0,0,.22-.85l.43-2h.79l-1,4.66h-.74Z" style="fill:#fff"/><path d="M164.5,77.61l.77.08a2.32,2.32,0,0,1-.77,1.09,2.08,2.08,0,0,1-1.43.52,1.94,1.94,0,0,1-.95-.24,1.55,1.55,0,0,1-.66-.7,2.31,2.31,0,0,1-.22-1,3.25,3.25,0,0,1,.35-1.48,2.51,2.51,0,0,1,.92-1.07,2.27,2.27,0,0,1,1.21-.35,1.81,1.81,0,0,1,1.34.52,2,2,0,0,1,.49,1.42,4.32,4.32,0,0,1-.06.7h-3.43a1.1,1.1,0,0,0,0,.25,1.51,1.51,0,0,0,.3,1,1,1,0,0,0,.74.34,1.4,1.4,0,0,0,.8-.27A1.78,1.78,0,0,0,164.5,77.61Zm-2.32-1.16h2.62a1.31,1.31,0,0,0,0-.17,1.29,1.29,0,0,0-.3-.92,1,1,0,0,0-.77-.32,1.44,1.44,0,0,0-.93.35A2.16,2.16,0,0,0,162.18,76.45Z" style="fill:#fff"/><path d="M166.07,79.19l1-4.66h.7l-.2,1a3.39,3.39,0,0,1,.71-.8,1.2,1.2,0,0,1,.71-.26,1.46,1.46,0,0,1,.58.17l-.33.74a.72.72,0,0,0-.45-.15,1.21,1.21,0,0,0-.85.47,3.41,3.41,0,0,0-.69,1.67l-.4,1.87Z" style="fill:#fff"/><path d="M169,79.19l.13-.61,2.5-2.83.6-.62q-.57.06-.81.06h-1.74l.14-.66h3.61l-.1.5-2.53,2.84-.65.67c.45,0,.75,0,.91,0h1.84l-.14.69Z" style="fill:#fff"/><path d="M176.72,78.61a3.16,3.16,0,0,1-.8.53,2,2,0,0,1-.82.16,1.46,1.46,0,0,1-1-.38,1.3,1.3,0,0,1-.39-1,1.38,1.38,0,0,1,.18-.7,1.27,1.27,0,0,1,.47-.48,2,2,0,0,1,.72-.26,7.35,7.35,0,0,1,1-.08,3.76,3.76,0,0,0,1.07-.16,2.15,2.15,0,0,0,.09-.54.51.51,0,0,0-.2-.44,1.3,1.3,0,0,0-.81-.22,1.49,1.49,0,0,0-.82.22,1.28,1.28,0,0,0-.46.64l-.81-.07a2.13,2.13,0,0,1,.79-1.07,2.33,2.33,0,0,1,1.34-.37,2.06,2.06,0,0,1,1.37.42,1,1,0,0,1,.39.8,4.3,4.3,0,0,1-.11.86l-.26,1.16a4.46,4.46,0,0,0-.12.9,3.12,3.12,0,0,0,.09.63h-.8A3.39,3.39,0,0,1,176.72,78.61Zm.29-1.78a1.89,1.89,0,0,1-.36.1A6,6,0,0,1,176,77a5.2,5.2,0,0,0-1,.15.93.93,0,0,0-.43.3.83.83,0,0,0-.14.46.73.73,0,0,0,.23.55.94.94,0,0,0,.66.22,1.53,1.53,0,0,0,1.33-.8A3.32,3.32,0,0,0,177,76.83Z" style="fill:#fff"/><path d="M181.08,79.19l1-4.66h.72l-.17.81a3.89,3.89,0,0,1,.88-.7,1.81,1.81,0,0,1,.83-.22,1.29,1.29,0,0,1,.9.31,1.11,1.11,0,0,1,.32.82,4.3,4.3,0,0,1-.12.82l-.59,2.82H184l.61-3a3,3,0,0,0,.1-.64.51.51,0,0,0-.16-.38.73.73,0,0,0-.47-.14,1.51,1.51,0,0,0-1.08.44,2.77,2.77,0,0,0-.71,1.5l-.45,2.17Z" style="fill:#fff"/><path d="M189.51,77.61l.77.08a2.29,2.29,0,0,1-.76,1.09,2.1,2.1,0,0,1-1.43.52,2,2,0,0,1-1-.24,1.58,1.58,0,0,1-.65-.7,2.18,2.18,0,0,1-.23-1,3.38,3.38,0,0,1,.35-1.48,2.51,2.51,0,0,1,.92-1.07,2.28,2.28,0,0,1,1.22-.35,1.78,1.78,0,0,1,1.33.52,2,2,0,0,1,.5,1.42,4.32,4.32,0,0,1-.06.7h-3.44a2.29,2.29,0,0,0,0,.25,1.51,1.51,0,0,0,.3,1,1,1,0,0,0,.74.34,1.4,1.4,0,0,0,.8-.27A1.71,1.71,0,0,0,189.51,77.61Zm-2.31-1.16h2.62v-.17a1.29,1.29,0,0,0-.3-.92,1,1,0,0,0-.77-.32,1.44,1.44,0,0,0-.93.35A2.15,2.15,0,0,0,187.2,76.45Z" style="fill:#fff"/><path d="M193,78.55l-.14.65a2.13,2.13,0,0,1-.55.07,1.1,1.1,0,0,1-.75-.23.61.61,0,0,1-.22-.48,4.43,4.43,0,0,1,.12-.7l.57-2.72h-.63l.12-.61h.63l.24-1.15.91-.55-.35,1.7h.78l-.13.61h-.78l-.54,2.58a4.39,4.39,0,0,0-.1.59.29.29,0,0,0,.08.22.38.38,0,0,0,.27.07A2.26,2.26,0,0,0,193,78.55Z" style="fill:#fff"/><path d="M196.73,78.61a3.12,3.12,0,0,1-.79.53,2.07,2.07,0,0,1-.82.16,1.45,1.45,0,0,1-1-.38,1.3,1.3,0,0,1-.4-1,1.38,1.38,0,0,1,.18-.7,1.44,1.44,0,0,1,.47-.48,2.09,2.09,0,0,1,.73-.26,7,7,0,0,1,1-.08,3.84,3.84,0,0,0,1.08-.16,2.15,2.15,0,0,0,.09-.54.54.54,0,0,0-.2-.44,1.35,1.35,0,0,0-.81-.22,1.45,1.45,0,0,0-.82.22,1.23,1.23,0,0,0-.46.64l-.81-.07a2.17,2.17,0,0,1,.78-1.07,2.39,2.39,0,0,1,1.35-.37,2.08,2.08,0,0,1,1.37.42,1,1,0,0,1,.39.8,4.3,4.3,0,0,1-.11.86l-.26,1.16a4.6,4.6,0,0,0-.13.9,3.29,3.29,0,0,0,.1.63h-.8A2.55,2.55,0,0,1,196.73,78.61Zm.3-1.78a1.89,1.89,0,0,1-.36.1A6.33,6.33,0,0,1,196,77a5.2,5.2,0,0,0-1,.15.93.93,0,0,0-.43.3.76.76,0,0,0-.14.46.7.7,0,0,0,.23.55.93.93,0,0,0,.65.22,1.48,1.48,0,0,0,.76-.21,1.5,1.5,0,0,0,.58-.59A3.32,3.32,0,0,0,197,76.83Z" style="fill:#fff"/><path d="M198.81,79.19l.19-.9h.9l-.19.9Z" style="fill:#fff"/><path d="M203.7,79.19l1.35-6.44h4.65l-.16.74h-3.78l-.43,2H209l-.16.73h-3.69l-.47,2.25h4.06l-.15.72Z" style="fill:#fff"/><path d="M209.54,79.19l1.34-6.44h.79l-1.34,6.44Z" style="fill:#fff"/><path d="M215.27,79.19l-.76-4.66h.77l.4,2.57c0,.28.1.74.16,1.37.16-.33.35-.71.59-1.13L218,74.53h.84l-2.67,4.66Z" style="fill:#fff"/><path d="M222,77.61l.78.08a2.32,2.32,0,0,1-.77,1.09,2.1,2.1,0,0,1-1.43.52,1.92,1.92,0,0,1-.95-.24,1.55,1.55,0,0,1-.66-.7,2.31,2.31,0,0,1-.23-1,3.26,3.26,0,0,1,.36-1.48,2.49,2.49,0,0,1,.91-1.07,2.3,2.3,0,0,1,1.22-.35,1.77,1.77,0,0,1,1.33.52,1.94,1.94,0,0,1,.5,1.42,4.32,4.32,0,0,1-.06.7h-3.44a2.18,2.18,0,0,0,0,.25,1.51,1.51,0,0,0,.3,1,1,1,0,0,0,.73.34,1.43,1.43,0,0,0,.81-.27A1.7,1.7,0,0,0,222,77.61Zm-2.31-1.16h2.62c0-.08,0-.14,0-.17a1.29,1.29,0,0,0-.3-.92,1,1,0,0,0-.77-.32,1.44,1.44,0,0,0-.93.35A2.16,2.16,0,0,0,219.71,76.45Z" style="fill:#fff"/><path d="M226.82,77.49l.8.09a2.71,2.71,0,0,1-.85,1.3,2,2,0,0,1-1.26.42,1.63,1.63,0,0,1-1.23-.49,1.94,1.94,0,0,1-.47-1.38,3.94,3.94,0,0,1,.3-1.5,2.37,2.37,0,0,1,.87-1.12,2.23,2.23,0,0,1,1.29-.39,1.61,1.61,0,0,1,1.19.43A1.48,1.48,0,0,1,227.9,76l-.78,0a1,1,0,0,0-.26-.69.9.9,0,0,0-.67-.25,1.25,1.25,0,0,0-.83.3,2.09,2.09,0,0,0-.55.92,4,4,0,0,0-.2,1.19,1.31,1.31,0,0,0,.27.9.82.82,0,0,0,.65.3,1.16,1.16,0,0,0,.74-.3A1.92,1.92,0,0,0,226.82,77.49Z" style="fill:#fff"/><path d="M230,78.55l-.13.65a2.18,2.18,0,0,1-.55.07,1.13,1.13,0,0,1-.76-.23.6.6,0,0,1-.21-.48,5.35,5.35,0,0,1,.11-.7l.57-2.72h-.63l.13-.61h.63l.24-1.15.91-.55-.36,1.7h.78l-.13.61h-.77l-.55,2.58c-.06.33-.1.53-.1.59a.29.29,0,0,0,.08.22.41.41,0,0,0,.27.07A2.19,2.19,0,0,0,230,78.55Z" style="fill:#fff"/><path d="M230.74,77.42a3.25,3.25,0,0,1,.81-2.26,2.23,2.23,0,0,1,1.74-.74,1.84,1.84,0,0,1,1.36.53,2,2,0,0,1,.51,1.42,3.57,3.57,0,0,1-.32,1.5,2.42,2.42,0,0,1-.93,1.06,2.34,2.34,0,0,1-1.26.37,2.19,2.19,0,0,1-1-.23,1.61,1.61,0,0,1-.68-.66A2,2,0,0,1,230.74,77.42Zm.8-.07a1.4,1.4,0,0,0,.31,1,1.05,1.05,0,0,0,.81.35,1.25,1.25,0,0,0,.5-.11,1.42,1.42,0,0,0,.47-.31,2.19,2.19,0,0,0,.37-.48,3.38,3.38,0,0,0,.38-1.42,1.41,1.41,0,0,0-.32-1,1,1,0,0,0-.8-.35,1.37,1.37,0,0,0-.69.18,1.68,1.68,0,0,0-.55.52,2.22,2.22,0,0,0-.37.79A3.79,3.79,0,0,0,231.54,77.35Z" style="fill:#fff"/><path d="M235.61,79.19l1-4.66h.71l-.2,1a3.38,3.38,0,0,1,.7-.8,1.2,1.2,0,0,1,.71-.26,1.41,1.41,0,0,1,.58.17l-.32.74a.76.76,0,0,0-.45-.15,1.23,1.23,0,0,0-.86.47,3.61,3.61,0,0,0-.69,1.67l-.4,1.87Z" style="fill:#fff"/><path d="M244.25,78.52a1.91,1.91,0,0,1-1.42.78,1.44,1.44,0,0,1-1.11-.49,2.08,2.08,0,0,1-.44-1.42,3.5,3.5,0,0,1,.35-1.56,2.75,2.75,0,0,1,.87-1.06,2,2,0,0,1,1.06-.35,1.4,1.4,0,0,1,1.31.84l.53-2.51h.79l-1.34,6.44h-.74Zm-2.18-1.28a2.32,2.32,0,0,0,.1.77,1,1,0,0,0,.33.47.87.87,0,0,0,.56.18,1.24,1.24,0,0,0,1-.56,2.89,2.89,0,0,0,.58-1.84,1.25,1.25,0,0,0-.28-.87,1,1,0,0,0-.73-.31,1.15,1.15,0,0,0-.53.12,1.56,1.56,0,0,0-.46.44,2.91,2.91,0,0,0-.39.77A2.56,2.56,0,0,0,242.07,77.24Z" style="fill:#fff"/><path d="M249.54,77.61l.77.08a2.29,2.29,0,0,1-.76,1.09,2.1,2.1,0,0,1-1.43.52,2,2,0,0,1-1-.24,1.6,1.6,0,0,1-.66-.7,2.31,2.31,0,0,1-.22-1,3.38,3.38,0,0,1,.35-1.48,2.51,2.51,0,0,1,.92-1.07,2.28,2.28,0,0,1,1.22-.35,1.78,1.78,0,0,1,1.33.52,2,2,0,0,1,.5,1.42,4.32,4.32,0,0,1-.06.7H247.1a2.29,2.29,0,0,0,0,.25,1.51,1.51,0,0,0,.3,1,1,1,0,0,0,.74.34,1.4,1.4,0,0,0,.8-.27A1.71,1.71,0,0,0,249.54,77.61Zm-2.31-1.16h2.62v-.17a1.29,1.29,0,0,0-.3-.92,1,1,0,0,0-.77-.32,1.44,1.44,0,0,0-.93.35A2.15,2.15,0,0,0,247.23,76.45Z" style="fill:#fff"/><path d="M76.37,90l.85-4h-.71l.13-.61h.71l.14-.67a2.72,2.72,0,0,1,.22-.71.78.78,0,0,1,.36-.36,1.36,1.36,0,0,1,.69-.15,5,5,0,0,1,.88.13l-.15.69a2.72,2.72,0,0,0-.68-.1.48.48,0,0,0-.35.12,1.13,1.13,0,0,0-.21.55l-.1.5H79l-.12.61H78l-.85,4Z" style="fill:#fff"/><path d="M82,89.15a2.36,2.36,0,0,1-1.72.95,1.2,1.2,0,0,1-.87-.31A1,1,0,0,1,79,89a5.88,5.88,0,0,1,.15-1l.56-2.69h.8l-.63,3a3.25,3.25,0,0,0-.08.58.55.55,0,0,0,.16.41.69.69,0,0,0,.48.15,1.39,1.39,0,0,0,.65-.16,1.94,1.94,0,0,0,.55-.44,2.35,2.35,0,0,0,.37-.66,5.38,5.38,0,0,0,.23-.85l.42-2h.8l-1,4.66h-.73Z" style="fill:#fff"/><path d="M87.2,88.41l.77.08a2.29,2.29,0,0,1-.76,1.09,2.1,2.1,0,0,1-1.43.52,2,2,0,0,1-1-.24,1.66,1.66,0,0,1-.66-.7,2.31,2.31,0,0,1-.22-1,3.38,3.38,0,0,1,.35-1.48,2.51,2.51,0,0,1,.92-1.07,2.28,2.28,0,0,1,1.22-.35,1.78,1.78,0,0,1,1.33.52,2,2,0,0,1,.5,1.42,4.32,4.32,0,0,1-.06.7H84.76a2.29,2.29,0,0,0,0,.25,1.51,1.51,0,0,0,.3,1,1,1,0,0,0,.74.34,1.4,1.4,0,0,0,.8-.27A1.71,1.71,0,0,0,87.2,88.41Zm-2.31-1.16h2.62v-.17a1.29,1.29,0,0,0-.3-.92,1,1,0,0,0-.77-.32,1.44,1.44,0,0,0-.93.35A2.15,2.15,0,0,0,84.89,87.25Z" style="fill:#fff"/><path d="M88.78,90l1-4.66h.71l-.2,1a3.19,3.19,0,0,1,.7-.8,1.2,1.2,0,0,1,.71-.26,1.41,1.41,0,0,1,.58.17l-.32.74a.76.76,0,0,0-.45-.15,1.23,1.23,0,0,0-.86.47,3.61,3.61,0,0,0-.69,1.67L89.53,90Z" style="fill:#fff"/><path d="M91.65,90l.13-.61,2.51-2.83.6-.62c-.38,0-.65.06-.82.06H92.34l.14-.66h3.6l-.1.5-2.53,2.84-.64.67c.44,0,.74,0,.91,0h1.83l-.14.69Z" style="fill:#fff"/><path d="M99.42,89.41a3.12,3.12,0,0,1-.79.53,2.07,2.07,0,0,1-.82.16,1.45,1.45,0,0,1-1-.38,1.27,1.27,0,0,1-.4-1,1.38,1.38,0,0,1,.18-.7,1.44,1.44,0,0,1,.47-.48,2.11,2.11,0,0,1,.72-.26,7.35,7.35,0,0,1,1-.08,3.7,3.7,0,0,0,1.07-.16,1.83,1.83,0,0,0,.1-.54.52.52,0,0,0-.21-.44,1.3,1.3,0,0,0-.81-.22,1.43,1.43,0,0,0-.81.22,1.24,1.24,0,0,0-.47.64l-.8-.08a2.07,2.07,0,0,1,.78-1.06A2.34,2.34,0,0,1,99,85.22a2.1,2.1,0,0,1,1.37.42,1,1,0,0,1,.38.8,3.67,3.67,0,0,1-.11.86l-.26,1.16a4.46,4.46,0,0,0-.12.9,2.64,2.64,0,0,0,.1.63h-.81A3.39,3.39,0,0,1,99.42,89.41Zm.3-1.78a2.42,2.42,0,0,1-.36.1,6.33,6.33,0,0,1-.64.08,5.06,5.06,0,0,0-1,.15.88.88,0,0,0-.43.3.77.77,0,0,0-.15.46.73.73,0,0,0,.23.55,1,1,0,0,0,.66.22,1.5,1.5,0,0,0,.76-.21,1.56,1.56,0,0,0,.58-.59A3.4,3.4,0,0,0,99.72,87.63Z" style="fill:#fff"/><path d="M103.78,90l1-4.66h.73l-.18.81a4.12,4.12,0,0,1,.88-.7,1.85,1.85,0,0,1,.84-.22,1.22,1.22,0,0,1,.89.31,1.11,1.11,0,0,1,.32.82,5,5,0,0,1-.11.82l-.6,2.82h-.79l.62-2.95a3.5,3.5,0,0,0,.09-.64.48.48,0,0,0-.16-.38.7.7,0,0,0-.46-.14,1.53,1.53,0,0,0-1.09.44,2.76,2.76,0,0,0-.7,1.5L104.57,90Z" style="fill:#fff"/><path d="M112.21,88.41l.78.08a2.39,2.39,0,0,1-.77,1.09,2.1,2.1,0,0,1-1.43.52,1.92,1.92,0,0,1-1-.24,1.55,1.55,0,0,1-.66-.7,2.31,2.31,0,0,1-.23-1,3.26,3.26,0,0,1,.36-1.48,2.49,2.49,0,0,1,.91-1.07,2.3,2.3,0,0,1,1.22-.35,1.77,1.77,0,0,1,1.33.52,1.94,1.94,0,0,1,.5,1.42,4.32,4.32,0,0,1-.06.7h-3.44a2.18,2.18,0,0,0,0,.25,1.51,1.51,0,0,0,.3,1,1,1,0,0,0,.73.34,1.43,1.43,0,0,0,.81-.27A1.7,1.7,0,0,0,112.21,88.41Zm-2.31-1.16h2.62c0-.08,0-.14,0-.17a1.34,1.34,0,0,0-.3-.92,1,1,0,0,0-.77-.32,1.44,1.44,0,0,0-.93.35A2.16,2.16,0,0,0,109.9,87.25Z" style="fill:#fff"/><path d="M115.65,89.35l-.13.65a2.2,2.2,0,0,1-.56.07,1.12,1.12,0,0,1-.75-.23.6.6,0,0,1-.21-.48,5.67,5.67,0,0,1,.11-.71l.57-2.71h-.63l.13-.61h.63l.24-1.15.91-.55-.36,1.7h.78l-.13.61h-.78l-.54,2.58c-.06.33-.1.53-.1.59a.29.29,0,0,0,.08.22.41.41,0,0,0,.27.07A2.19,2.19,0,0,0,115.65,89.35Z" style="fill:#fff"/><path d="M119.44,89.41a3.16,3.16,0,0,1-.8.53,2,2,0,0,1-.82.16,1.46,1.46,0,0,1-1-.38,1.3,1.3,0,0,1-.39-1,1.38,1.38,0,0,1,.18-.7,1.27,1.27,0,0,1,.47-.48,2,2,0,0,1,.72-.26,7.35,7.35,0,0,1,1-.08,3.76,3.76,0,0,0,1.07-.16,2.15,2.15,0,0,0,.09-.54.54.54,0,0,0-.2-.44,1.3,1.3,0,0,0-.81-.22,1.49,1.49,0,0,0-.82.22,1.28,1.28,0,0,0-.46.64l-.81-.08a2.19,2.19,0,0,1,.78-1.06,2.39,2.39,0,0,1,1.35-.37,2.06,2.06,0,0,1,1.37.42,1,1,0,0,1,.39.8,4.3,4.3,0,0,1-.11.86l-.26,1.16a4.46,4.46,0,0,0-.12.9,3.12,3.12,0,0,0,.09.63h-.8A3.39,3.39,0,0,1,119.44,89.41Zm.29-1.78a1.89,1.89,0,0,1-.36.1,6,6,0,0,1-.64.08,5.2,5.2,0,0,0-1,.15.93.93,0,0,0-.43.3.83.83,0,0,0-.14.46.73.73,0,0,0,.23.55.94.94,0,0,0,.66.22,1.53,1.53,0,0,0,1.33-.8A3.4,3.4,0,0,0,119.73,87.63Z" style="fill:#fff"/><path d="M127.22,88.41l.78.08a2.32,2.32,0,0,1-.77,1.09,2.1,2.1,0,0,1-1.43.52,1.94,1.94,0,0,1-1-.24,1.55,1.55,0,0,1-.66-.7,2.31,2.31,0,0,1-.23-1,3.26,3.26,0,0,1,.36-1.48,2.49,2.49,0,0,1,.91-1.07,2.3,2.3,0,0,1,1.22-.35,1.81,1.81,0,0,1,1.34.52,2,2,0,0,1,.49,1.42,4.32,4.32,0,0,1-.06.7h-3.43a1.1,1.1,0,0,0,0,.25,1.51,1.51,0,0,0,.3,1,1,1,0,0,0,.73.34,1.4,1.4,0,0,0,.81-.27A1.7,1.7,0,0,0,127.22,88.41Zm-2.31-1.16h2.62a1.31,1.31,0,0,0,0-.17,1.29,1.29,0,0,0-.3-.92,1,1,0,0,0-.77-.32,1.44,1.44,0,0,0-.93.35A2.16,2.16,0,0,0,124.91,87.25Z" style="fill:#fff"/><path d="M128.88,88.4l.79-.05a1.48,1.48,0,0,0,.11.59.82.82,0,0,0,.39.39,1.4,1.4,0,0,0,.66.16,1.26,1.26,0,0,0,.79-.22.62.62,0,0,0,.26-.49.56.56,0,0,0-.16-.39,2.24,2.24,0,0,0-.79-.46,8.91,8.91,0,0,1-.81-.38,1.37,1.37,0,0,1-.44-.42,1.07,1.07,0,0,1-.15-.56,1.24,1.24,0,0,1,.44-.95,1.74,1.74,0,0,1,1.23-.4,2,2,0,0,1,1.34.41A1.43,1.43,0,0,1,133,86.7l-.78,0a.9.9,0,0,0-.3-.67,1.19,1.19,0,0,0-.8-.24,1,1,0,0,0-.64.19.52.52,0,0,0-.22.41.49.49,0,0,0,.19.38,3,3,0,0,0,.68.35,4.63,4.63,0,0,1,1.15.63,1.16,1.16,0,0,1,.38.89,1.28,1.28,0,0,1-.21.68,1.45,1.45,0,0,1-.65.53,2.52,2.52,0,0,1-1,.2,2.32,2.32,0,0,1-1.38-.4A1.44,1.44,0,0,1,128.88,88.4Z" style="fill:#fff"/><path d="M135.77,90l1-4.66h.79l-1,4.66Zm1.16-5.54.19-.9h.79l-.19.9Z" style="fill:#fff"/><path d="M137.76,90.42l.8.07a.89.89,0,0,0,.07.41.5.5,0,0,0,.24.21,1.26,1.26,0,0,0,.55.1,1.29,1.29,0,0,0,1-.38,2.65,2.65,0,0,0,.38-1.09l.08-.37a1.82,1.82,0,0,1-1.32.62,1.53,1.53,0,0,1-1.18-.52,2.07,2.07,0,0,1-.48-1.47,2.91,2.91,0,0,1,.38-1.45,2.79,2.79,0,0,1,.89-1,1.91,1.91,0,0,1,1.07-.34,1.56,1.56,0,0,1,1.42.87l.15-.76h.73l-.94,4.5a3.62,3.62,0,0,1-.4,1.16,1.67,1.67,0,0,1-.7.64,2.12,2.12,0,0,1-1,.23,3.1,3.1,0,0,1-1-.14,1.2,1.2,0,0,1-.6-.43,1,1,0,0,1-.2-.64A.93.93,0,0,1,137.76,90.42Zm1-2.49a2.17,2.17,0,0,0,.09.72,1.16,1.16,0,0,0,.38.52.94.94,0,0,0,.54.17,1.36,1.36,0,0,0,.78-.27,1.9,1.9,0,0,0,.63-.85,2.84,2.84,0,0,0,.24-1.1,1.32,1.32,0,0,0-.32-.92,1.08,1.08,0,0,0-.79-.34,1.16,1.16,0,0,0-.56.16,1.6,1.6,0,0,0-.51.47,2.28,2.28,0,0,0-.36.77A2.79,2.79,0,0,0,138.75,87.93Z" style="fill:#fff"/><path d="M146,89.15a2.36,2.36,0,0,1-1.71.95,1.23,1.23,0,0,1-.88-.31,1,1,0,0,1-.33-.76,5.88,5.88,0,0,1,.15-1l.56-2.69h.8l-.62,3a2.52,2.52,0,0,0-.08.58.51.51,0,0,0,.16.41.65.65,0,0,0,.47.15,1.39,1.39,0,0,0,.65-.16,1.81,1.81,0,0,0,.55-.44,2.37,2.37,0,0,0,.38-.66,5.68,5.68,0,0,0,.22-.85l.42-2h.8l-1,4.66h-.73Z" style="fill:#fff"/><path d="M151,89.41a3.12,3.12,0,0,1-.79.53,2.07,2.07,0,0,1-.82.16,1.45,1.45,0,0,1-1-.38,1.27,1.27,0,0,1-.4-1,1.38,1.38,0,0,1,.18-.7,1.44,1.44,0,0,1,.47-.48,2.11,2.11,0,0,1,.72-.26,7.35,7.35,0,0,1,1-.08,3.7,3.7,0,0,0,1.07-.16,1.83,1.83,0,0,0,.1-.54.52.52,0,0,0-.21-.44,1.29,1.29,0,0,0-.8-.22,1.45,1.45,0,0,0-.82.22,1.24,1.24,0,0,0-.47.64l-.8-.08a2.07,2.07,0,0,1,.78-1.06,2.34,2.34,0,0,1,1.35-.37,2.1,2.1,0,0,1,1.37.42,1,1,0,0,1,.38.8,3.67,3.67,0,0,1-.11.86l-.26,1.16a4.46,4.46,0,0,0-.12.9,2.64,2.64,0,0,0,.1.63h-.81A3.39,3.39,0,0,1,151,89.41Zm.3-1.78a2.42,2.42,0,0,1-.36.1,6.33,6.33,0,0,1-.64.08,5.06,5.06,0,0,0-1,.15.88.88,0,0,0-.43.3.77.77,0,0,0-.15.46.73.73,0,0,0,.23.55,1,1,0,0,0,.66.22,1.5,1.5,0,0,0,.76-.21,1.56,1.56,0,0,0,.58-.59A3.4,3.4,0,0,0,151.26,87.63Z" style="fill:#fff"/><path d="M152.76,90l1.34-6.44h.8L153.55,90Z" style="fill:#fff"/><path d="M160.47,89.41a3.16,3.16,0,0,1-.8.53,2,2,0,0,1-.82.16,1.46,1.46,0,0,1-1-.38,1.3,1.3,0,0,1-.39-1,1.48,1.48,0,0,1,.17-.7,1.38,1.38,0,0,1,.48-.48,2,2,0,0,1,.72-.26,7.35,7.35,0,0,1,1-.08,3.82,3.82,0,0,0,1.07-.16,2.15,2.15,0,0,0,.09-.54.54.54,0,0,0-.2-.44,1.3,1.3,0,0,0-.81-.22,1.47,1.47,0,0,0-.82.22,1.28,1.28,0,0,0-.46.64l-.81-.08a2.19,2.19,0,0,1,.78-1.06,2.39,2.39,0,0,1,1.35-.37,2.06,2.06,0,0,1,1.37.42,1,1,0,0,1,.39.8,4.3,4.3,0,0,1-.11.86l-.26,1.16a4.46,4.46,0,0,0-.12.9,3.12,3.12,0,0,0,.09.63h-.8A2.62,2.62,0,0,1,160.47,89.41Zm.29-1.78a1.89,1.89,0,0,1-.36.1,6,6,0,0,1-.64.08,5.2,5.2,0,0,0-1,.15.93.93,0,0,0-.43.3.83.83,0,0,0-.14.46.73.73,0,0,0,.23.55.94.94,0,0,0,.66.22,1.53,1.53,0,0,0,1.33-.8A3.4,3.4,0,0,0,160.76,87.63Z" style="fill:#fff"/><path d="M164.76,90l1.35-6.44h.79L165.56,90Z" style="fill:#fff"/><path d="M170,89.41a3.12,3.12,0,0,1-.79.53,2.07,2.07,0,0,1-.82.16,1.45,1.45,0,0,1-1-.38,1.27,1.27,0,0,1-.4-1,1.38,1.38,0,0,1,.18-.7,1.44,1.44,0,0,1,.47-.48,2.11,2.11,0,0,1,.72-.26,7.35,7.35,0,0,1,1-.08,3.84,3.84,0,0,0,1.08-.16,2.15,2.15,0,0,0,.09-.54.54.54,0,0,0-.2-.44,1.35,1.35,0,0,0-.81-.22,1.45,1.45,0,0,0-.82.22,1.3,1.3,0,0,0-.47.64l-.8-.08a2.07,2.07,0,0,1,.78-1.06,2.36,2.36,0,0,1,1.35-.37,2.1,2.1,0,0,1,1.37.42,1,1,0,0,1,.38.8,3.67,3.67,0,0,1-.11.86l-.25,1.16a3.94,3.94,0,0,0-.13.9,2.64,2.64,0,0,0,.1.63h-.81A3.39,3.39,0,0,1,170,89.41Zm.3-1.78a1.89,1.89,0,0,1-.36.1,6.33,6.33,0,0,1-.64.08,5.2,5.2,0,0,0-1,.15.93.93,0,0,0-.43.3.77.77,0,0,0-.15.46.73.73,0,0,0,.23.55,1,1,0,0,0,.66.22,1.48,1.48,0,0,0,.76-.21,1.56,1.56,0,0,0,.58-.59A3.4,3.4,0,0,0,170.27,87.63Z" style="fill:#fff"/><path d="M174.33,90l1-4.66h.8l-.16.77a3.27,3.27,0,0,1,.79-.69,1.61,1.61,0,0,1,.76-.19,1.13,1.13,0,0,1,.72.23,1.09,1.09,0,0,1,.39.65,2.51,2.51,0,0,1,.75-.66,1.64,1.64,0,0,1,.83-.22,1.23,1.23,0,0,1,.87.28,1,1,0,0,1,.3.78,4.12,4.12,0,0,1-.11.71l-.62,3h-.8l.64-3.08a2.66,2.66,0,0,0,.09-.54.46.46,0,0,0-.15-.36.58.58,0,0,0-.41-.13,1.42,1.42,0,0,0-.72.21,1.59,1.59,0,0,0-.58.57,3.91,3.91,0,0,0-.35,1.07L177.86,90h-.79l.65-3.15a2.14,2.14,0,0,0,.07-.45.48.48,0,0,0-.51-.51,1.44,1.44,0,0,0-.71.21,1.72,1.72,0,0,0-.6.6,3.47,3.47,0,0,0-.39,1.1l-.46,2.2Z" style="fill:#fff"/><path d="M185,89.41a3.34,3.34,0,0,1-.8.53,2.07,2.07,0,0,1-.82.16,1.45,1.45,0,0,1-1-.38,1.3,1.3,0,0,1-.39-1,1.48,1.48,0,0,1,.17-.7,1.38,1.38,0,0,1,.48-.48,2,2,0,0,1,.72-.26,7.16,7.16,0,0,1,1-.08,3.84,3.84,0,0,0,1.08-.16,2.15,2.15,0,0,0,.09-.54.54.54,0,0,0-.2-.44,1.35,1.35,0,0,0-.81-.22,1.47,1.47,0,0,0-.82.22,1.23,1.23,0,0,0-.46.64l-.81-.08a2.19,2.19,0,0,1,.78-1.06,2.39,2.39,0,0,1,1.35-.37,2.08,2.08,0,0,1,1.37.42,1,1,0,0,1,.39.8,4.3,4.3,0,0,1-.11.86l-.26,1.16a4.46,4.46,0,0,0-.12.9,3.12,3.12,0,0,0,.09.63h-.8A2.14,2.14,0,0,1,185,89.41Zm.29-1.78a1.89,1.89,0,0,1-.36.1,6.33,6.33,0,0,1-.64.08,5.2,5.2,0,0,0-1,.15.93.93,0,0,0-.43.3.76.76,0,0,0-.14.46.7.7,0,0,0,.23.55.93.93,0,0,0,.65.22,1.48,1.48,0,0,0,.76-.21,1.5,1.5,0,0,0,.58-.59A3.4,3.4,0,0,0,185.27,87.63Z" style="fill:#fff"/><path d="M186.91,88.4l.79-.05a1.48,1.48,0,0,0,.11.59.82.82,0,0,0,.39.39,1.4,1.4,0,0,0,.66.16,1.26,1.26,0,0,0,.79-.22.59.59,0,0,0,.11-.88,2.43,2.43,0,0,0-.8-.46,7.18,7.18,0,0,1-.8-.38,1.31,1.31,0,0,1-.45-.42,1.07,1.07,0,0,1-.15-.56,1.24,1.24,0,0,1,.44-.95,1.77,1.77,0,0,1,1.23-.4,2,2,0,0,1,1.34.41,1.4,1.4,0,0,1,.48,1.07l-.78,0a.9.9,0,0,0-.3-.67,1.18,1.18,0,0,0-.79-.24.94.94,0,0,0-.64.19.5.5,0,0,0-.23.41.49.49,0,0,0,.19.38,2.89,2.89,0,0,0,.69.35,5.07,5.07,0,0,1,1.15.63,1.19,1.19,0,0,1,.37.89,1.28,1.28,0,0,1-.21.68,1.45,1.45,0,0,1-.65.53,2.49,2.49,0,0,1-1,.2,2.27,2.27,0,0,1-1.37-.4A1.42,1.42,0,0,1,186.91,88.4Z" style="fill:#fff"/><path d="M194.48,89.41a3.12,3.12,0,0,1-.79.53,2.07,2.07,0,0,1-.82.16,1.45,1.45,0,0,1-1-.38,1.27,1.27,0,0,1-.4-1,1.38,1.38,0,0,1,.18-.7,1.35,1.35,0,0,1,.47-.48,2.11,2.11,0,0,1,.72-.26,7.35,7.35,0,0,1,1-.08,3.7,3.7,0,0,0,1.07-.16,1.83,1.83,0,0,0,.1-.54.52.52,0,0,0-.21-.44,1.3,1.3,0,0,0-.81-.22,1.43,1.43,0,0,0-.81.22,1.24,1.24,0,0,0-.47.64l-.8-.08a2.07,2.07,0,0,1,.78-1.06,2.33,2.33,0,0,1,1.34-.37,2.11,2.11,0,0,1,1.38.42,1,1,0,0,1,.38.8,3.67,3.67,0,0,1-.11.86l-.26,1.16a4.46,4.46,0,0,0-.12.9,2.64,2.64,0,0,0,.1.63h-.81A3.39,3.39,0,0,1,194.48,89.41Zm.3-1.78a2.42,2.42,0,0,1-.36.1,6.33,6.33,0,0,1-.64.08,5.06,5.06,0,0,0-1,.15.88.88,0,0,0-.43.3.77.77,0,0,0-.15.46.73.73,0,0,0,.23.55,1,1,0,0,0,.66.22,1.5,1.5,0,0,0,.76-.21,1.64,1.64,0,0,0,.58-.59A3.4,3.4,0,0,0,194.78,87.63Z" style="fill:#fff"/><path d="M202,89.32a1.93,1.93,0,0,1-1.43.78,1.4,1.4,0,0,1-1.1-.49,2,2,0,0,1-.44-1.42,3.37,3.37,0,0,1,.35-1.56,2.66,2.66,0,0,1,.87-1.06,1.91,1.91,0,0,1,1-.35,1.43,1.43,0,0,1,1.32.84l.52-2.51h.79L202.58,90h-.73ZM199.81,88a2.66,2.66,0,0,0,.09.77,1.12,1.12,0,0,0,.33.47.89.89,0,0,0,.56.18,1.23,1.23,0,0,0,1-.56,2.9,2.9,0,0,0,.59-1.84,1.25,1.25,0,0,0-.29-.87,1,1,0,0,0-.73-.31,1.14,1.14,0,0,0-.52.12,1.58,1.58,0,0,0-.47.44,2.91,2.91,0,0,0-.39.77A2.81,2.81,0,0,0,199.81,88Z" style="fill:#fff"/><path d="M207.27,88.41l.78.08a2.32,2.32,0,0,1-.77,1.09,2.1,2.1,0,0,1-1.43.52,1.92,1.92,0,0,1-.95-.24,1.55,1.55,0,0,1-.66-.7,2.31,2.31,0,0,1-.23-1,3.26,3.26,0,0,1,.36-1.48,2.49,2.49,0,0,1,.91-1.07,2.3,2.3,0,0,1,1.22-.35,1.77,1.77,0,0,1,1.33.52,1.94,1.94,0,0,1,.5,1.42,4.32,4.32,0,0,1-.06.7h-3.44a2.18,2.18,0,0,0,0,.25,1.51,1.51,0,0,0,.3,1,1,1,0,0,0,.73.34,1.43,1.43,0,0,0,.81-.27A1.7,1.7,0,0,0,207.27,88.41ZM205,87.25h2.62c0-.08,0-.14,0-.17a1.29,1.29,0,0,0-.3-.92,1,1,0,0,0-.77-.32,1.44,1.44,0,0,0-.93.35A2.16,2.16,0,0,0,205,87.25Z" style="fill:#fff"/><path d="M208.79,90l1.34-6.44h.8L209.59,90Z" style="fill:#fff"/><path d="M216.57,88.29l.8.09a2.71,2.71,0,0,1-.85,1.3,2,2,0,0,1-1.26.42,1.63,1.63,0,0,1-1.23-.49,1.94,1.94,0,0,1-.47-1.38,3.94,3.94,0,0,1,.3-1.5,2.37,2.37,0,0,1,.87-1.12,2.23,2.23,0,0,1,1.29-.39,1.61,1.61,0,0,1,1.19.43,1.48,1.48,0,0,1,.44,1.12l-.78,0a1,1,0,0,0-.26-.69.9.9,0,0,0-.67-.25,1.25,1.25,0,0,0-.83.3,2.09,2.09,0,0,0-.55.92,4,4,0,0,0-.2,1.19,1.31,1.31,0,0,0,.27.9.82.82,0,0,0,.65.3,1.16,1.16,0,0,0,.74-.3A1.92,1.92,0,0,0,216.57,88.29Z" style="fill:#fff"/><path d="M221,89.15a2.36,2.36,0,0,1-1.72.95,1.2,1.2,0,0,1-.87-.31,1,1,0,0,1-.33-.76,5.58,5.58,0,0,1,.14-1l.57-2.69h.79l-.62,3a3.25,3.25,0,0,0-.08.58.51.51,0,0,0,.16.41.66.66,0,0,0,.47.15,1.46,1.46,0,0,0,.66-.16,1.77,1.77,0,0,0,.54-.44,2.37,2.37,0,0,0,.38-.66,5.68,5.68,0,0,0,.22-.85l.43-2h.79l-1,4.66h-.74Z" style="fill:#fff"/><path d="M226.29,88.41l.77.08a2.32,2.32,0,0,1-.77,1.09,2.1,2.1,0,0,1-1.43.52,1.94,1.94,0,0,1-1-.24,1.55,1.55,0,0,1-.66-.7,2.31,2.31,0,0,1-.23-1,3.26,3.26,0,0,1,.36-1.48,2.49,2.49,0,0,1,.91-1.07,2.33,2.33,0,0,1,1.22-.35,1.81,1.81,0,0,1,1.34.52,2,2,0,0,1,.49,1.42,4.32,4.32,0,0,1-.06.7h-3.43a1.1,1.1,0,0,0,0,.25,1.51,1.51,0,0,0,.3,1,1,1,0,0,0,.74.34,1.4,1.4,0,0,0,.8-.27A1.78,1.78,0,0,0,226.29,88.41ZM224,87.25h2.62a1.31,1.31,0,0,0,0-.17,1.29,1.29,0,0,0-.3-.92,1,1,0,0,0-.77-.32,1.44,1.44,0,0,0-.93.35A2.16,2.16,0,0,0,224,87.25Z" style="fill:#fff"/><path d="M227.86,90l1-4.66h.7l-.2,1a3.2,3.2,0,0,1,.71-.8,1.17,1.17,0,0,1,.7-.26,1.45,1.45,0,0,1,.59.17l-.33.74a.72.72,0,0,0-.45-.15,1.21,1.21,0,0,0-.85.47,3.5,3.5,0,0,0-.7,1.67L228.62,90Z" style="fill:#fff"/><path d="M230.47,91.78l1.35-6.45h.73l-.13.65a2.69,2.69,0,0,1,.73-.59,1.46,1.46,0,0,1,.68-.17,1.41,1.41,0,0,1,1.11.49,2,2,0,0,1,.44,1.39,3.54,3.54,0,0,1-.24,1.33,3,3,0,0,1-.6,1,2.27,2.27,0,0,1-.71.54,1.78,1.78,0,0,1-.74.17,1.42,1.42,0,0,1-1.3-.85l-.53,2.53ZM232,88.09a2.26,2.26,0,0,0,.08.72.91.91,0,0,0,.36.46,1,1,0,0,0,.58.18,1.26,1.26,0,0,0,1.1-.77,3.19,3.19,0,0,0,.43-1.58,1.32,1.32,0,0,0-.29-.91.89.89,0,0,0-.7-.33A1.1,1.1,0,0,0,233,86a1.71,1.71,0,0,0-.49.48,3.13,3.13,0,0,0-.36.78A2.7,2.7,0,0,0,232,88.09Z" style="fill:#fff"/><path d="M236,88.22a3.24,3.24,0,0,1,.8-2.26,2.23,2.23,0,0,1,1.74-.74,1.82,1.82,0,0,1,1.36.53,2,2,0,0,1,.52,1.42,3.43,3.43,0,0,1-.33,1.5,2.4,2.4,0,0,1-.92,1.06,2.34,2.34,0,0,1-1.27.37,2.19,2.19,0,0,1-1-.23,1.66,1.66,0,0,1-.68-.66A2,2,0,0,1,236,88.22Zm.79-.07a1.4,1.4,0,0,0,.32,1,1,1,0,0,0,.8.35,1.34,1.34,0,0,0,.51-.11,1.49,1.49,0,0,0,.46-.31,1.92,1.92,0,0,0,.37-.48,3.38,3.38,0,0,0,.38-1.42,1.41,1.41,0,0,0-.32-1,1,1,0,0,0-.8-.35,1.3,1.3,0,0,0-.68.18,1.71,1.71,0,0,0-.56.52,2.39,2.39,0,0,0-.36.79A3.31,3.31,0,0,0,236.8,88.15Z" style="fill:#fff"/><path d="M94,100.79l1-4.66h.79l-.16.77a3.27,3.27,0,0,1,.79-.69,1.65,1.65,0,0,1,.76-.19,1.18,1.18,0,0,1,.73.23,1.12,1.12,0,0,1,.38.65,2.51,2.51,0,0,1,.75-.66,1.64,1.64,0,0,1,.83-.22,1.22,1.22,0,0,1,.88.28,1,1,0,0,1,.29.78,5,5,0,0,1-.1.71l-.63,3h-.8l.65-3.08a3.3,3.3,0,0,0,.08-.54.46.46,0,0,0-.15-.36.55.55,0,0,0-.4-.13,1.57,1.57,0,0,0-1.3.78A3.55,3.55,0,0,0,98,98.53l-.48,2.26h-.79l.66-3.15a3.15,3.15,0,0,0,.07-.45.48.48,0,0,0-.52-.51,1.47,1.47,0,0,0-.71.21,1.91,1.91,0,0,0-.6.6,3.49,3.49,0,0,0-.38,1.1l-.46,2.2Z" style="fill:#fff"/><path d="M104.72,100a2.36,2.36,0,0,1-1.72,1,1.2,1.2,0,0,1-.87-.31,1,1,0,0,1-.33-.76,5.88,5.88,0,0,1,.15-1l.56-2.69h.79l-.62,3a3.25,3.25,0,0,0-.08.58.51.51,0,0,0,.16.41.66.66,0,0,0,.47.15,1.43,1.43,0,0,0,.66-.16,1.77,1.77,0,0,0,.54-.44,2.37,2.37,0,0,0,.38-.66,5.68,5.68,0,0,0,.22-.85l.43-2h.79l-1,4.66h-.74Z" style="fill:#fff"/><path d="M106.48,100.79l1.34-6.44h.8l-1.35,6.44Z" style="fill:#fff"/><path d="M110.4,100.15l-.14.65a2.13,2.13,0,0,1-.55.07,1.09,1.09,0,0,1-.75-.23.58.58,0,0,1-.22-.48,4.68,4.68,0,0,1,.12-.71l.56-2.71h-.62l.12-.61h.63l.24-1.15.91-.55-.35,1.7h.78l-.13.61h-.78l-.54,2.58a4.39,4.39,0,0,0-.1.59.29.29,0,0,0,.08.22.38.38,0,0,0,.27.07A2.26,2.26,0,0,0,110.4,100.15Z" style="fill:#fff"/><path d="M111,100.79l1-4.66h.8l-1,4.66Zm1.16-5.54.19-.9h.79l-.19.9Z" style="fill:#fff"/><path d="M112.65,102.58,114,96.13h.73l-.14.65a3,3,0,0,1,.73-.59A1.53,1.53,0,0,1,116,96a1.44,1.44,0,0,1,1.11.49,2,2,0,0,1,.43,1.39,3.54,3.54,0,0,1-.24,1.33,3,3,0,0,1-.59,1,2.43,2.43,0,0,1-.71.54,1.78,1.78,0,0,1-.74.17,1.42,1.42,0,0,1-1.3-.85l-.53,2.53Zm1.57-3.69a2.35,2.35,0,0,0,.07.72,1,1,0,0,0,.36.46,1,1,0,0,0,.58.18,1.26,1.26,0,0,0,1.11-.77,3.28,3.28,0,0,0,.42-1.58,1.32,1.32,0,0,0-.28-.91.89.89,0,0,0-.7-.33,1.11,1.11,0,0,0-.57.16,1.82,1.82,0,0,0-.48.48,3.14,3.14,0,0,0-.37.78A3,3,0,0,0,114.22,98.89Z" style="fill:#fff"/><path d="M118,100.79l1.35-6.44h.79l-1.34,6.44Z" style="fill:#fff"/><path d="M120,100.79l1-4.66h.79l-1,4.66Zm1.16-5.54.19-.9h.79l-.19.9Z" style="fill:#fff"/><path d="M125.26,99.09l.8.09a2.71,2.71,0,0,1-.85,1.3,2,2,0,0,1-1.25.42,1.64,1.64,0,0,1-1.24-.49,1.94,1.94,0,0,1-.47-1.38,3.94,3.94,0,0,1,.3-1.5,2.37,2.37,0,0,1,.87-1.12,2.23,2.23,0,0,1,1.29-.39,1.61,1.61,0,0,1,1.19.43,1.48,1.48,0,0,1,.44,1.12l-.78.05a.92.92,0,0,0-.26-.69.89.89,0,0,0-.66-.25,1.27,1.27,0,0,0-.84.3,2.09,2.09,0,0,0-.55.92,4,4,0,0,0-.2,1.19,1.31,1.31,0,0,0,.27.9.81.81,0,0,0,.65.29,1.12,1.12,0,0,0,.74-.29A1.92,1.92,0,0,0,125.26,99.09Z" style="fill:#fff"/><path d="M129.69,100.21a3.16,3.16,0,0,1-.8.53,2,2,0,0,1-.81.16,1.45,1.45,0,0,1-1-.38,1.27,1.27,0,0,1-.4-1,1.38,1.38,0,0,1,.18-.7,1.35,1.35,0,0,1,.47-.48,2.11,2.11,0,0,1,.72-.26,7.35,7.35,0,0,1,1-.08,3.7,3.7,0,0,0,1.07-.16,2.24,2.24,0,0,0,.1-.54.52.52,0,0,0-.21-.44,1.3,1.3,0,0,0-.81-.22,1.49,1.49,0,0,0-.82.22,1.28,1.28,0,0,0-.46.64l-.8-.08a2.07,2.07,0,0,1,.78-1.06,2.33,2.33,0,0,1,1.34-.37,2.06,2.06,0,0,1,1.37.42,1,1,0,0,1,.39.8,4.3,4.3,0,0,1-.11.86l-.26,1.16a4.46,4.46,0,0,0-.12.9,2.64,2.64,0,0,0,.1.63h-.81A3.39,3.39,0,0,1,129.69,100.21Zm.29-1.78a2,2,0,0,1-.35.1,6.33,6.33,0,0,1-.64.08,5.06,5.06,0,0,0-1,.15.82.82,0,0,0-.43.3.77.77,0,0,0-.15.46.73.73,0,0,0,.23.55,1,1,0,0,0,.66.21,1.52,1.52,0,0,0,.76-.2,1.54,1.54,0,0,0,.57-.59A3.4,3.4,0,0,0,130,98.43Z" style="fill:#fff"/><path d="M134.7,100.12a1.93,1.93,0,0,1-1.43.78,1.4,1.4,0,0,1-1.1-.49,2,2,0,0,1-.45-1.42,3.5,3.5,0,0,1,.35-1.56,2.77,2.77,0,0,1,.88-1.06A1.91,1.91,0,0,1,134,96a1.4,1.4,0,0,1,1.31.84l.53-2.51h.79l-1.34,6.44h-.74Zm-2.18-1.28a2.66,2.66,0,0,0,.09.77,1.12,1.12,0,0,0,.33.47.89.89,0,0,0,.56.18,1.23,1.23,0,0,0,1-.56,2.9,2.9,0,0,0,.59-1.84,1.25,1.25,0,0,0-.29-.87,1,1,0,0,0-.73-.31,1.14,1.14,0,0,0-.52.12,1.58,1.58,0,0,0-.47.44,2.91,2.91,0,0,0-.39.77A2.81,2.81,0,0,0,132.52,98.84Z" style="fill:#fff"/><path d="M139.7,100.21a3.12,3.12,0,0,1-.79.53,2.07,2.07,0,0,1-.82.16,1.45,1.45,0,0,1-1-.38,1.27,1.27,0,0,1-.4-1,1.38,1.38,0,0,1,.18-.7,1.44,1.44,0,0,1,.47-.48,2.11,2.11,0,0,1,.72-.26,7.35,7.35,0,0,1,1-.08,3.7,3.7,0,0,0,1.07-.16,1.83,1.83,0,0,0,.1-.54.52.52,0,0,0-.21-.44,1.29,1.29,0,0,0-.8-.22,1.45,1.45,0,0,0-.82.22,1.24,1.24,0,0,0-.47.64l-.8-.08a2.07,2.07,0,0,1,.78-1.06,2.34,2.34,0,0,1,1.35-.37,2.1,2.1,0,0,1,1.37.42,1,1,0,0,1,.38.8,3.67,3.67,0,0,1-.11.86l-.26,1.16a4.46,4.46,0,0,0-.12.9,2.64,2.64,0,0,0,.1.63h-.81A3.39,3.39,0,0,1,139.7,100.21Zm.3-1.78a2.42,2.42,0,0,1-.36.1,6.33,6.33,0,0,1-.64.08,5.2,5.2,0,0,0-1,.15.82.82,0,0,0-.43.3.77.77,0,0,0-.15.46.73.73,0,0,0,.23.55,1,1,0,0,0,.66.21,1.49,1.49,0,0,0,.76-.2,1.56,1.56,0,0,0,.58-.59A3.4,3.4,0,0,0,140,98.43Z" style="fill:#fff"/><path d="M143.67,102.58,145,96.13h.73l-.13.65a2.69,2.69,0,0,1,.73-.59A1.46,1.46,0,0,1,147,96a1.41,1.41,0,0,1,1.11.49,2,2,0,0,1,.44,1.39,3.54,3.54,0,0,1-.24,1.33,3,3,0,0,1-.6,1,2.43,2.43,0,0,1-.71.54,1.78,1.78,0,0,1-.74.17,1.42,1.42,0,0,1-1.3-.85l-.53,2.53Zm1.57-3.69a2.26,2.26,0,0,0,.08.72.91.91,0,0,0,.36.46,1,1,0,0,0,.58.18,1.28,1.28,0,0,0,1.11-.77,3.28,3.28,0,0,0,.42-1.58,1.32,1.32,0,0,0-.29-.91.89.89,0,0,0-.7-.33,1.1,1.1,0,0,0-.56.16,1.71,1.71,0,0,0-.49.48,3.13,3.13,0,0,0-.36.78A2.7,2.7,0,0,0,145.24,98.89Z" style="fill:#fff"/><path d="M149.21,99a3.24,3.24,0,0,1,.8-2.26,2.23,2.23,0,0,1,1.74-.74,1.82,1.82,0,0,1,1.36.53,1.93,1.93,0,0,1,.52,1.42,3.43,3.43,0,0,1-.33,1.5,2.39,2.39,0,0,1-.92,1.06,2.34,2.34,0,0,1-1.27.37,2.19,2.19,0,0,1-1-.23,1.73,1.73,0,0,1-.68-.66A2.1,2.1,0,0,1,149.21,99Zm.79-.08a1.41,1.41,0,0,0,.32,1,1,1,0,0,0,.8.34,1.32,1.32,0,0,0,.51-.1,1.49,1.49,0,0,0,.46-.31,1.92,1.92,0,0,0,.37-.48,3.49,3.49,0,0,0,.25-.59,2.76,2.76,0,0,0,.13-.83,1.36,1.36,0,0,0-.32-1,1,1,0,0,0-.8-.35,1.3,1.3,0,0,0-.68.18,1.71,1.71,0,0,0-.56.52,2.39,2.39,0,0,0-.36.79A3.31,3.31,0,0,0,150,98.94Z" style="fill:#fff"/><path d="M154.07,100.79l1-4.66h.7l-.2,1a3.2,3.2,0,0,1,.71-.8A1.17,1.17,0,0,1,157,96a1.45,1.45,0,0,1,.59.17l-.33.74a.76.76,0,0,0-.45-.15,1.25,1.25,0,0,0-.86.47,3.61,3.61,0,0,0-.69,1.67l-.39,1.87Z" style="fill:#fff"/><path d="M159.64,99.2l.8,0a1.51,1.51,0,0,0,.11.59.84.84,0,0,0,.38.39,1.41,1.41,0,0,0,.67.15,1.26,1.26,0,0,0,.79-.21.62.62,0,0,0,.26-.49.56.56,0,0,0-.16-.39,2.35,2.35,0,0,0-.79-.46,8.91,8.91,0,0,1-.81-.38,1.37,1.37,0,0,1-.44-.42,1.07,1.07,0,0,1-.15-.56,1.24,1.24,0,0,1,.44-1A1.74,1.74,0,0,1,162,96a2,2,0,0,1,1.34.41,1.47,1.47,0,0,1,.48,1.07l-.78,0a.9.9,0,0,0-.3-.67,1.19,1.19,0,0,0-.8-.24,1,1,0,0,0-.64.19.53.53,0,0,0-.23.41.5.5,0,0,0,.2.38,2.75,2.75,0,0,0,.68.35,4.5,4.5,0,0,1,1.15.63,1.19,1.19,0,0,1,.38.89,1.28,1.28,0,0,1-.21.68,1.45,1.45,0,0,1-.65.53,2.52,2.52,0,0,1-1,.2,2.32,2.32,0,0,1-1.38-.4A1.42,1.42,0,0,1,159.64,99.2Z" style="fill:#fff"/><path d="M167.26,100a2.37,2.37,0,0,1-1.72,1,1.2,1.2,0,0,1-.87-.31,1,1,0,0,1-.34-.76,5.88,5.88,0,0,1,.15-1l.57-2.69h.79l-.62,3a2.52,2.52,0,0,0-.08.58.51.51,0,0,0,.16.41.66.66,0,0,0,.47.15,1.39,1.39,0,0,0,.65-.16,1.7,1.7,0,0,0,.55-.44,2.37,2.37,0,0,0,.38-.66,5.68,5.68,0,0,0,.22-.85l.42-2h.8l-1,4.66h-.73Z" style="fill:#fff"/><path d="M174.72,100.21a3.12,3.12,0,0,1-.79.53,2.07,2.07,0,0,1-.82.16,1.45,1.45,0,0,1-1-.38,1.27,1.27,0,0,1-.4-1,1.38,1.38,0,0,1,.18-.7,1.44,1.44,0,0,1,.47-.48,2.11,2.11,0,0,1,.72-.26,7.35,7.35,0,0,1,1-.08,3.84,3.84,0,0,0,1.08-.16,2.15,2.15,0,0,0,.09-.54.54.54,0,0,0-.2-.44,1.35,1.35,0,0,0-.81-.22,1.45,1.45,0,0,0-.82.22,1.3,1.3,0,0,0-.47.64l-.8-.08a2.07,2.07,0,0,1,.78-1.06,2.36,2.36,0,0,1,1.35-.37,2.1,2.1,0,0,1,1.37.42,1,1,0,0,1,.38.8,3.67,3.67,0,0,1-.11.86l-.25,1.16a3.94,3.94,0,0,0-.13.9,2.64,2.64,0,0,0,.1.63h-.81A3.39,3.39,0,0,1,174.72,100.21Zm.3-1.78a1.89,1.89,0,0,1-.36.1,6.33,6.33,0,0,1-.64.08,5.2,5.2,0,0,0-1,.15.86.86,0,0,0-.43.3.77.77,0,0,0-.15.46.73.73,0,0,0,.23.55,1,1,0,0,0,.66.21,1.47,1.47,0,0,0,.76-.2,1.56,1.56,0,0,0,.58-.59A3.4,3.4,0,0,0,175,98.43Z" style="fill:#fff"/><path d="M179.8,99.09l.8.09a2.71,2.71,0,0,1-.85,1.3,2,2,0,0,1-1.26.42,1.63,1.63,0,0,1-1.23-.49,1.94,1.94,0,0,1-.47-1.38,3.94,3.94,0,0,1,.3-1.5,2.37,2.37,0,0,1,.87-1.12,2.23,2.23,0,0,1,1.29-.39,1.61,1.61,0,0,1,1.19.43,1.48,1.48,0,0,1,.44,1.12l-.78.05a1,1,0,0,0-.26-.69.9.9,0,0,0-.67-.25,1.27,1.27,0,0,0-.83.3,2.09,2.09,0,0,0-.55.92,4,4,0,0,0-.2,1.19,1.31,1.31,0,0,0,.27.9.81.81,0,0,0,.65.29,1.14,1.14,0,0,0,.74-.29A1.92,1.92,0,0,0,179.8,99.09Z" style="fill:#fff"/><path d="M184.51,99.21l.77.08a2.29,2.29,0,0,1-.76,1.09,2.1,2.1,0,0,1-1.43.52,2,2,0,0,1-1-.24,1.58,1.58,0,0,1-.65-.7,2.18,2.18,0,0,1-.23-1,3.38,3.38,0,0,1,.35-1.48,2.51,2.51,0,0,1,.92-1.07,2.28,2.28,0,0,1,1.22-.35,1.75,1.75,0,0,1,1.33.52,2,2,0,0,1,.5,1.42,4.32,4.32,0,0,1-.06.7h-3.44a2.32,2.32,0,0,0,0,.24,1.48,1.48,0,0,0,.3,1,1,1,0,0,0,.74.35,1.4,1.4,0,0,0,.8-.27A1.71,1.71,0,0,0,184.51,99.21Zm-2.31-1.16h2.62v-.17a1.29,1.29,0,0,0-.3-.92,1,1,0,0,0-.77-.32,1.44,1.44,0,0,0-.93.35A2.15,2.15,0,0,0,182.2,98.05Z" style="fill:#fff"/><path d="M186,100.79l1.34-6.44h.8l-1.35,6.44Z" style="fill:#fff"/><path d="M191.52,99.21l.77.08a2.32,2.32,0,0,1-.77,1.09,2.08,2.08,0,0,1-1.43.52,1.94,1.94,0,0,1-1-.24,1.55,1.55,0,0,1-.66-.7,2.31,2.31,0,0,1-.23-1,3.26,3.26,0,0,1,.36-1.48,2.45,2.45,0,0,1,.92-1.07,2.27,2.27,0,0,1,1.21-.35,1.77,1.77,0,0,1,1.34.52,2,2,0,0,1,.49,1.42,4.32,4.32,0,0,1-.06.7h-3.43a1.06,1.06,0,0,0,0,.24,1.48,1.48,0,0,0,.3,1,1,1,0,0,0,.74.35,1.4,1.4,0,0,0,.8-.27A1.78,1.78,0,0,0,191.52,99.21Zm-2.32-1.16h2.62a1.31,1.31,0,0,0,0-.17,1.29,1.29,0,0,0-.3-.92,1,1,0,0,0-.77-.32,1.44,1.44,0,0,0-.93.35A2.16,2.16,0,0,0,189.2,98.05Z" style="fill:#fff"/><path d="M193.09,100.79l1-4.66h.7l-.2,1a3.2,3.2,0,0,1,.71-.8A1.2,1.2,0,0,1,196,96a1.46,1.46,0,0,1,.58.17l-.33.74a.72.72,0,0,0-.45-.15,1.21,1.21,0,0,0-.85.47,3.41,3.41,0,0,0-.69,1.67l-.4,1.87Z" style="fill:#fff"/><path d="M199.24,100.21a3.16,3.16,0,0,1-.8.53,2,2,0,0,1-.82.16,1.46,1.46,0,0,1-1-.38,1.3,1.3,0,0,1-.39-1,1.38,1.38,0,0,1,.18-.7,1.27,1.27,0,0,1,.47-.48,2,2,0,0,1,.72-.26,7.35,7.35,0,0,1,1-.08,3.76,3.76,0,0,0,1.07-.16,2.15,2.15,0,0,0,.09-.54.54.54,0,0,0-.2-.44,1.3,1.3,0,0,0-.81-.22,1.47,1.47,0,0,0-.82.22,1.28,1.28,0,0,0-.46.64l-.81-.08a2.19,2.19,0,0,1,.78-1.06,2.39,2.39,0,0,1,1.35-.37,2.06,2.06,0,0,1,1.37.42,1,1,0,0,1,.39.8,4.3,4.3,0,0,1-.11.86l-.26,1.16a4.46,4.46,0,0,0-.12.9,3.12,3.12,0,0,0,.09.63h-.8A2.62,2.62,0,0,1,199.24,100.21Zm.29-1.78a1.89,1.89,0,0,1-.36.1,6,6,0,0,1-.64.08,5.2,5.2,0,0,0-1,.15.86.86,0,0,0-.43.3.83.83,0,0,0-.14.46.73.73,0,0,0,.23.55.93.93,0,0,0,.66.21,1.52,1.52,0,0,0,.76-.2,1.54,1.54,0,0,0,.57-.59A3.4,3.4,0,0,0,199.53,98.43Z" style="fill:#fff"/><path d="M204.32,99.09l.79.09a2.71,2.71,0,0,1-.85,1.3,2,2,0,0,1-1.25.42,1.64,1.64,0,0,1-1.24-.49A1.94,1.94,0,0,1,201.3,99a3.77,3.77,0,0,1,.31-1.5,2.41,2.41,0,0,1,.86-1.12,2.23,2.23,0,0,1,1.29-.39,1.61,1.61,0,0,1,1.19.43,1.45,1.45,0,0,1,.44,1.12l-.78.05a.92.92,0,0,0-.26-.69.87.87,0,0,0-.66-.25,1.23,1.23,0,0,0-.83.3,1.92,1.92,0,0,0-.55.92,3.67,3.67,0,0,0-.2,1.19,1.31,1.31,0,0,0,.26.9.82.82,0,0,0,.65.29,1.1,1.1,0,0,0,.74-.29A1.93,1.93,0,0,0,204.32,99.09Z" style="fill:#fff"/><path d="M205.56,100.79l1-4.66h.8l-1,4.66Zm1.16-5.54.19-.9h.8l-.19.9Z" style="fill:#fff"/><path d="M207.74,99a3.24,3.24,0,0,1,.8-2.26,2.23,2.23,0,0,1,1.74-.74,1.82,1.82,0,0,1,1.36.53,1.93,1.93,0,0,1,.52,1.42,3.43,3.43,0,0,1-.33,1.5,2.39,2.39,0,0,1-.92,1.06,2.34,2.34,0,0,1-1.27.37,2.19,2.19,0,0,1-1-.23A1.73,1.73,0,0,1,208,100,2,2,0,0,1,207.74,99Zm.79-.08a1.41,1.41,0,0,0,.32,1,1,1,0,0,0,.8.34,1.32,1.32,0,0,0,.51-.1,1.49,1.49,0,0,0,.46-.31,1.92,1.92,0,0,0,.37-.48,2.81,2.81,0,0,0,.24-.59,2.49,2.49,0,0,0,.14-.83,1.41,1.41,0,0,0-.32-1,1,1,0,0,0-.8-.35,1.3,1.3,0,0,0-.68.18,1.71,1.71,0,0,0-.56.52,2.39,2.39,0,0,0-.36.79A3.31,3.31,0,0,0,208.53,98.94Zm1.12-3.38.83-1.21h1l-1.17,1.21Z" style="fill:#fff"/><path d="M212.6,100.79l1-4.66h.72l-.17.81a3.68,3.68,0,0,1,.88-.7,1.81,1.81,0,0,1,.83-.22,1.22,1.22,0,0,1,.89.31,1.06,1.06,0,0,1,.32.82,5.15,5.15,0,0,1-.11.82l-.59,2.82h-.8l.62-3a3.5,3.5,0,0,0,.09-.64.48.48,0,0,0-.16-.38.68.68,0,0,0-.46-.14,1.53,1.53,0,0,0-1.09.44,2.76,2.76,0,0,0-.7,1.5l-.45,2.17Z" style="fill:#fff"/><path d="M218.52,95.28l.19-.9h.91l-.17.79a2.06,2.06,0,0,1-.46,1,1.18,1.18,0,0,1-.74.38l.07-.34q.52-.15.69-1Zm1.45,0,.19-.9h.91l-.17.79a2.06,2.06,0,0,1-.46,1,1.18,1.18,0,0,1-.74.38l.07-.34q.53-.15.69-1Z" style="fill:#fff"/><path d="M220.82,100.79l.19-.9h.9l-.19.9Z" style="fill:#fff"/><path d="M215,111.6h-1.24l-1.74-4.33-.91,4.33h-1.23l1.34-6.45h1.24l1.75,4.31.9-4.31h1.23Z" style="fill:#fff"/><path d="M220.91,109.65h-3.16a.57.57,0,0,0,0,.12,1,1,0,0,0,.27.75.83.83,0,0,0,.65.28,1.08,1.08,0,0,0,1-.65l1.13.19a2.36,2.36,0,0,1-.89,1,2.26,2.26,0,0,1-1.23.34,2,2,0,0,1-1.53-.59,2.12,2.12,0,0,1-.59-1.58,2.9,2.9,0,0,1,.53-1.7,2.39,2.39,0,0,1,2.07-1,1.76,1.76,0,0,1,1.36.53,2,2,0,0,1,.51,1.48A3.37,3.37,0,0,1,220.91,109.65Zm-1.06-.77v-.12a1.15,1.15,0,0,0-.23-.78.83.83,0,0,0-.63-.26,1,1,0,0,0-.7.29,1.69,1.69,0,0,0-.42.87Z" style="fill:#fff"/><path d="M226.25,111.6h-1.19l-.23-3-1.42,3h-1.17l-.58-4.67h1.12l.32,3.13,1.46-3.13h1.15l.15,3.13,1.45-3.13h1.26Z" style="fill:#fff"/><path d="M228.69,107.86l.19-.93h.62l.15-.75,1.45-.87-.34,1.62h.77l-.2.93h-.77l-.41,2c-.07.35-.11.56-.11.61a.28.28,0,0,0,.09.22.52.52,0,0,0,.34.08l.42,0-.2.94a3.71,3.71,0,0,1-.67.06,1.48,1.48,0,0,1-1-.25.89.89,0,0,1-.3-.72,6.4,6.4,0,0,1,.16-1l.39-1.88Z" style="fill:#fff"/><path d="M231.55,109.66a2.87,2.87,0,0,1,.74-2.07,2.52,2.52,0,0,1,1.92-.77,2.2,2.2,0,0,1,1.61.57,2,2,0,0,1,.58,1.53,2.88,2.88,0,0,1-.72,2,2.74,2.74,0,0,1-3.12.56,1.67,1.67,0,0,1-.76-.75A2.27,2.27,0,0,1,231.55,109.66Zm3.6-.9a1,1,0,0,0-.26-.72.91.91,0,0,0-.68-.27,1.11,1.11,0,0,0-.72.25,1.57,1.57,0,0,0-.49.73,2.56,2.56,0,0,0-.18.89,1.16,1.16,0,0,0,.27.8.91.91,0,0,0,.69.29,1.1,1.1,0,0,0,.87-.44A2.4,2.4,0,0,0,235.15,108.76Z" style="fill:#fff"/><path d="M237.86,106.93h1.19l-.12.6a3.52,3.52,0,0,1,.84-.55,2.07,2.07,0,0,1,.82-.16,1.26,1.26,0,0,1,.91.33,1.18,1.18,0,0,1,.33.87,5.18,5.18,0,0,1-.15.93l-.55,2.65h-1.26l.56-2.66a6,6,0,0,0,.12-.7.52.52,0,0,0-.14-.38.57.57,0,0,0-.4-.14,1.16,1.16,0,0,0-.62.23,1.69,1.69,0,0,0-.53.62,5.49,5.49,0,0,0-.32,1.11l-.4,1.92h-1.26Z" style="fill:#fff"/><path d="M242.65,110.38h1.25l-.25,1.22H242.4Z" style="fill:#fff"/></svg>