<svg id="Capa_1" data-name="Capa 1" xmlns="http://www.w3.org/2000/svg" viewBox="0 0 68.22 73.53"><line x1="17.01" y1="14.55" x2="43.33" y2="14.55" style="fill:none;stroke:#000;stroke-miterlimit:10;stroke-width:2px"/><polygon points="38.98 18.25 42.68 14.55 38.98 10.86 42.12 10.86 45.82 14.55 42.12 18.25 38.98 18.25"/><path d="M28.38,54.7a15.24,15.24,0,0,1-1.81,5,6.86,6.86,0,0,1-2.81,2.64,9.1,9.1,0,0,1-4,.8,5.51,5.51,0,0,1-1.53-.2l.44-1.71a4.72,4.72,0,0,0,1.36.15,4.4,4.4,0,0,0,1.68-.27,3.41,3.41,0,0,0,1.2-.89,6.37,6.37,0,0,0,1-1.8,19.75,19.75,0,0,0,.94-3.11l3.94-17.6H26.5l.23-1a5.36,5.36,0,0,0,1.34-.27A1.64,1.64,0,0,0,28.7,36a2.56,2.56,0,0,0,.44-.8c.12-.34.31-.94.56-1.78a10.36,10.36,0,0,1,3.17-5.29,8.34,8.34,0,0,1,5.46-1.76,14.82,14.82,0,0,1,3.27.31L40.85,30H39.14a3.74,3.74,0,0,0-.71-1.6,1.62,1.62,0,0,0-1.29-.49,3,3,0,0,0-1.88.6,4.93,4.93,0,0,0-1.33,1.83,18.13,18.13,0,0,0-1,3.27l-.49,2.13h4.44l-.42,2H32Z"/><path d="M43.19,53.1a3,3,0,0,0-.71-1.79,2.37,2.37,0,0,0-1.73-.56,2.7,2.7,0,0,0-1.16.24,1.87,1.87,0,0,0-1.13,1.78,2.18,2.18,0,0,0,.2.93,3.24,3.24,0,0,0,.7.88,10.64,10.64,0,0,0,1.37,1,6.52,6.52,0,0,1,1.87,1.74,3.49,3.49,0,0,1,.54,1.94,3.79,3.79,0,0,1-.62,2.19,3.72,3.72,0,0,1-1.7,1.34,6.18,6.18,0,0,1-2.42.44,13.36,13.36,0,0,1-2.26-.18,18.91,18.91,0,0,1-2-.45l.64-3h1.07a2.93,2.93,0,0,0,.73,1.89,2.44,2.44,0,0,0,1.82.63,2.76,2.76,0,0,0,1.91-.62A2,2,0,0,0,41,60a2.54,2.54,0,0,0-.21-1.06,2.88,2.88,0,0,0-.64-.9,9.83,9.83,0,0,0-1.25-1,11,11,0,0,1-1.41-1.12,4,4,0,0,1-.83-1.15,3.11,3.11,0,0,1-.3-1.38,3.44,3.44,0,0,1,.57-2,3.48,3.48,0,0,1,1.6-1.28,6.24,6.24,0,0,1,2.43-.44,12.48,12.48,0,0,1,4,.59l-.63,2.83Z"/></svg>