<svg id="Capa_1" data-name="Capa 1" xmlns="http://www.w3.org/2000/svg" viewBox="0 0 68.22 75.27"><line x1="14.33" y1="15.18" x2="40.65" y2="15.18" style="fill:none;stroke:#000;stroke-miterlimit:10;stroke-width:2px"/><polygon points="36.3 18.87 40 15.18 36.3 11.48 39.44 11.48 43.14 15.18 39.44 18.87 36.3 18.87"/><path d="M25.7,55.33a15.66,15.66,0,0,1-1.81,5,6.89,6.89,0,0,1-2.81,2.63,9,9,0,0,1-4,.81,5.51,5.51,0,0,1-1.53-.2L16,61.81a4.34,4.34,0,0,0,1.36.16A4.2,4.2,0,0,0,19,61.69a3.38,3.38,0,0,0,1.2-.88A6.37,6.37,0,0,0,21.29,59a20.26,20.26,0,0,0,.94-3.12L26.16,38.3H23.82l.23-1A5,5,0,0,0,25.39,37a1.64,1.64,0,0,0,.63-.45,2.81,2.81,0,0,0,.44-.8c.12-.35.31-.94.56-1.79a10.37,10.37,0,0,1,3.17-5.28A8.29,8.29,0,0,1,35.65,27a15.45,15.45,0,0,1,3.27.31l-.75,3.32H36.46a3.8,3.8,0,0,0-.71-1.6,1.66,1.66,0,0,0-1.29-.49,3,3,0,0,0-1.88.61,4.77,4.77,0,0,0-1.33,1.83,18.13,18.13,0,0,0-1,3.27l-.49,2.13h4.44l-.42,2H29.31Z"/><path d="M36.49,56h.44a2.88,2.88,0,0,0,.92-.16,4.69,4.69,0,0,0,1.06-.52,17.33,17.33,0,0,0,1.52-1.1,9.06,9.06,0,0,0,1.06-1,2.54,2.54,0,0,0,.46-.71,1.38,1.38,0,0,0,.13-.57c0-.45-.31-.71-.94-.76l.15-.68h4.46l.26.68c-.76.69-1.57,1.36-2.42,2l-3.48,2.71,2.06,5.22a5.28,5.28,0,0,0,.57,1.08,1.75,1.75,0,0,0,.67.55,2.53,2.53,0,0,0,1,.22l-.16.68H40.55l-2-5.66a3.8,3.8,0,0,0-.33-.73.81.81,0,0,0-.32-.27,1.35,1.35,0,0,0-.57-.08h-1l-1.43,6.74H32.49L36,48c.1-.46.18-.79.22-1s.07-.39.09-.57,0-.33,0-.47A.9.9,0,0,0,36,45.1a2.63,2.63,0,0,0-1.26-.26l.17-.71L38.39,44h.8Z"/><path d="M51.76,50.49V53H49.6v-2.5Z"/></svg>