<svg id="Capa_1" data-name="Capa 1" xmlns="http://www.w3.org/2000/svg" viewBox="0 0 1101.93 64.34"><path d="M525.17,40.2v.2a1.83,1.83,0,0,1,0,.21A10.52,10.52,0,0,1,527.6,38a4.42,4.42,0,0,1,2.52-.84,2.65,2.65,0,0,1,2,.77,3.2,3.2,0,0,1,.7,2.26,10.23,10.23,0,0,1-.28,2.19l-1.19,5.08a7.66,7.66,0,0,0-.24,1.63,1.39,1.39,0,0,0,.14.67.91.91,0,0,0,.44.37,4,4,0,0,0,1,.2l-.13.7h-4.45l1.79-7.25c.13-.52.24-1,.34-1.59a8,8,0,0,0,.15-1.46,2.37,2.37,0,0,0-.35-1.46,1.37,1.37,0,0,0-1.12-.44,2.27,2.27,0,0,0-1.24.46,6.42,6.42,0,0,0-1.44,1.4,10.4,10.4,0,0,0-1.22,1.86,8.89,8.89,0,0,0-.76,2.24L523,51h-2.45l1.63-7.25c.2-.88.33-1.54.4-2a6.9,6.9,0,0,0,.11-1.09,2.3,2.3,0,0,0-.36-1.46,1.39,1.39,0,0,0-1.13-.44,2.29,2.29,0,0,0-1.25.47,6.43,6.43,0,0,0-1.45,1.43,11.27,11.27,0,0,0-1.23,1.9,9,9,0,0,0-.71,2.22L515.27,51h-2.45L515,41.29c0-.21.11-.54.19-1a5.9,5.9,0,0,0,.12-1.06,1.36,1.36,0,0,0-.12-.63.75.75,0,0,0-.41-.32,3.93,3.93,0,0,0-1-.15l.17-.76,3.22-.13h.8L517,41l.17.05a11.47,11.47,0,0,1,2.6-2.9,4.35,4.35,0,0,1,2.6-.95,2.65,2.65,0,0,1,2.07.78A3.25,3.25,0,0,1,525.17,40.2Z"/><path d="M539.93,52.54a4.48,4.48,0,0,0-.13.94.61.61,0,0,0,.2.5,1.52,1.52,0,0,0,.7.26,10,10,0,0,0,1.52.11l-.2.91h-7.19l.18-.91a12.41,12.41,0,0,0,1.4-.11,2.5,2.5,0,0,0,.78-.23,1.27,1.27,0,0,0,.46-.4,2,2,0,0,0,.29-.79l1.41-6.4c0-.13,0-.23.06-.32s0-.16,0-.2a.31.31,0,0,0-.11-.28.57.57,0,0,0-.31-.07,2.49,2.49,0,0,0-.84.24q-.57.24-1.56.75l-.45-1,5-2.3H542c-.2.76-.4,1.59-.59,2.5Z"/><path d="M561.43,43.65l-1.19,5.43h-2.13l1.19-5.43h-4.83l.43-1.93h4.81l1.18-5.42H563l-1.17,5.42h4.87l-.43,1.93Z"/><path d="M561.26,11.34v.19a1.8,1.8,0,0,1,0,.22,10.52,10.52,0,0,1,2.45-2.6,4.43,4.43,0,0,1,2.53-.84,2.66,2.66,0,0,1,2,.76,3.25,3.25,0,0,1,.7,2.27,10.31,10.31,0,0,1-.28,2.19l-1.19,5.08a7.58,7.58,0,0,0-.24,1.63,1.39,1.39,0,0,0,.14.67,1,1,0,0,0,.44.37,4.08,4.08,0,0,0,1,.2l-.13.7h-4.45L566,14.93c.13-.52.25-1,.34-1.59a8,8,0,0,0,.15-1.46,2.35,2.35,0,0,0-.35-1.47A1.4,1.4,0,0,0,565,10a2.27,2.27,0,0,0-1.24.46,6.58,6.58,0,0,0-1.44,1.39,10.83,10.83,0,0,0-1.22,1.87,8.89,8.89,0,0,0-.76,2.24l-1.29,6.24h-2.45l1.63-7.25c.2-.88.33-1.54.4-2a6.9,6.9,0,0,0,.11-1.09,2.35,2.35,0,0,0-.36-1.47,1.42,1.42,0,0,0-1.13-.43,2.3,2.3,0,0,0-1.25.46,6.73,6.73,0,0,0-1.45,1.44,10.89,10.89,0,0,0-1.23,1.9,9.2,9.2,0,0,0-.71,2.22l-1.29,6.18h-2.45l2.15-9.75c.05-.22.11-.54.19-1a5.9,5.9,0,0,0,.12-1.07,1.34,1.34,0,0,0-.12-.62.72.72,0,0,0-.41-.32,3.17,3.17,0,0,0-1-.15l.17-.76,3.23-.13h.79l-.94,3.7.17.05a11.47,11.47,0,0,1,2.6-2.9,4.39,4.39,0,0,1,2.6-.95,2.65,2.65,0,0,1,2.07.78A3.25,3.25,0,0,1,561.26,11.34Z"/><path d="M575.54,24.79a2.07,2.07,0,0,0,.76-.11,1.26,1.26,0,0,0,.46-.35,3.21,3.21,0,0,0,.45-.76h1.09l-.72,2.83h-8l.14-.66a18.33,18.33,0,0,1,4-4.22L575,20.45a17.67,17.67,0,0,0,1.36-1.25,5.69,5.69,0,0,0,.69-.89,2.84,2.84,0,0,0,.34-.77,2.88,2.88,0,0,0,.1-.78,1.26,1.26,0,0,0-.46-1,2,2,0,0,0-1.31-.38,2.35,2.35,0,0,0-1.46.45,3,3,0,0,0-1,1.22h-1.46l.42-1.94a12.46,12.46,0,0,1,4-.78,4.88,4.88,0,0,1,1.47.2,2.94,2.94,0,0,1,1,.55,2.06,2.06,0,0,1,.58.75,2,2,0,0,1,.18.82,3.44,3.44,0,0,1-.31,1.52,5.41,5.41,0,0,1-1.14,1.44c-.56.54-1.49,1.32-2.79,2.33a25.54,25.54,0,0,0-3.16,2.89Z"/><path d="M588.58,40.2v.2a1.62,1.62,0,0,1,0,.21A10.33,10.33,0,0,1,591,38a4.37,4.37,0,0,1,2.52-.84,2.65,2.65,0,0,1,2.05.77,3.25,3.25,0,0,1,.7,2.26,10.32,10.32,0,0,1-.29,2.19l-1.19,5.08a7.66,7.66,0,0,0-.24,1.63,1.39,1.39,0,0,0,.14.67,1,1,0,0,0,.44.37,4.08,4.08,0,0,0,1,.2L596,51h-4.44l1.78-7.25c.13-.52.25-1,.35-1.59a8,8,0,0,0,.15-1.46,2.3,2.3,0,0,0-.36-1.46,1.36,1.36,0,0,0-1.12-.44,2.27,2.27,0,0,0-1.24.46,6.62,6.62,0,0,0-1.43,1.4,11.06,11.06,0,0,0-1.23,1.86,8.89,8.89,0,0,0-.76,2.24L586.41,51H584l1.63-7.25c.2-.88.34-1.54.41-2a6.76,6.76,0,0,0,.1-1.09,2.3,2.3,0,0,0-.36-1.46,1.37,1.37,0,0,0-1.12-.44,2.32,2.32,0,0,0-1.26.47,6.43,6.43,0,0,0-1.45,1.43,10.6,10.6,0,0,0-1.22,1.9,9,9,0,0,0-.72,2.22L578.68,51h-2.45l2.15-9.75c0-.21.11-.54.19-1a5.9,5.9,0,0,0,.12-1.06,1.36,1.36,0,0,0-.12-.63.72.72,0,0,0-.41-.32,3.93,3.93,0,0,0-1-.15l.17-.76,3.23-.13h.79l-.93,3.7.17.05a11.46,11.46,0,0,1,2.59-2.9,4.39,4.39,0,0,1,2.61-.95,2.64,2.64,0,0,1,2.06.78A3.2,3.2,0,0,1,588.58,40.2Z"/><path d="M602.86,53.65a2.07,2.07,0,0,0,.76-.11,1.18,1.18,0,0,0,.46-.35,3.33,3.33,0,0,0,.45-.75h1.09l-.72,2.82H597l.14-.66a18.19,18.19,0,0,1,4-4.22l1.27-1.07a17.67,17.67,0,0,0,1.36-1.25,5.69,5.69,0,0,0,.69-.89,2.71,2.71,0,0,0,.34-.77,2.88,2.88,0,0,0,.1-.78,1.26,1.26,0,0,0-.46-1A2,2,0,0,0,603,44.2a2.37,2.37,0,0,0-1.46.45,3.23,3.23,0,0,0-1,1.22h-1.46l.43-1.94a12.36,12.36,0,0,1,4-.78,4.57,4.57,0,0,1,1.47.21,2.77,2.77,0,0,1,1,.54,2,2,0,0,1,.58.75,1.89,1.89,0,0,1,.19.82,3.58,3.58,0,0,1-.31,1.52,5.48,5.48,0,0,1-1.15,1.44q-.84.81-2.79,2.34a24.83,24.83,0,0,0-3.16,2.88Z"/><line x1="511.58" y1="31.13" x2="608.83" y2="31.13" style="fill:none;stroke:#000;stroke-miterlimit:10;stroke-width:1.3279123209217758px"/><path d="M980.74,41.77V42a1.7,1.7,0,0,1,0,.22,10.33,10.33,0,0,1,2.45-2.6,4.37,4.37,0,0,1,2.52-.84,2.64,2.64,0,0,1,2,.76,3.29,3.29,0,0,1,.7,2.26,10.48,10.48,0,0,1-.29,2.2L987,49.05a7.59,7.59,0,0,0-.24,1.62,1.44,1.44,0,0,0,.14.68,1,1,0,0,0,.44.37,4.08,4.08,0,0,0,1,.2l-.13.69h-4.44l1.78-7.24c.13-.52.25-1,.35-1.59a8.12,8.12,0,0,0,.15-1.46,2.33,2.33,0,0,0-.36-1.47,1.35,1.35,0,0,0-1.12-.43,2.33,2.33,0,0,0-1.24.45,7.13,7.13,0,0,0-1.43,1.4,11.92,11.92,0,0,0-1.23,1.86,9.11,9.11,0,0,0-.76,2.25l-1.29,6.23h-2.45l1.63-7.24c.2-.89.34-1.54.41-2a6.86,6.86,0,0,0,.1-1.09,2.33,2.33,0,0,0-.36-1.47,1.36,1.36,0,0,0-1.12-.43,2.3,2.3,0,0,0-1.26.46,6.73,6.73,0,0,0-1.45,1.44,10.26,10.26,0,0,0-1.22,1.9,8.77,8.77,0,0,0-.72,2.22l-1.29,6.17h-2.45l2.15-9.74c.05-.22.11-.54.19-1a5.3,5.3,0,0,0,.13-1.07,1.22,1.22,0,0,0-.13-.62.69.69,0,0,0-.41-.33,3.93,3.93,0,0,0-1-.15l.17-.75,3.23-.13h.79l-.93,3.69.17.06a11.46,11.46,0,0,1,2.59-2.9,4.39,4.39,0,0,1,2.61-1,2.64,2.64,0,0,1,2.06.78A3.17,3.17,0,0,1,980.74,41.77Z"/><path d="M995.5,54.11a5.39,5.39,0,0,0-.13.94.63.63,0,0,0,.2.5,1.45,1.45,0,0,0,.7.27,10.43,10.43,0,0,0,1.52.1l-.19.92h-7.2l.19-.92a13.09,13.09,0,0,0,1.4-.1,2.5,2.5,0,0,0,.78-.23,1.27,1.27,0,0,0,.46-.4,2.26,2.26,0,0,0,.29-.79l1.4-6.41a2.49,2.49,0,0,0,.06-.32.8.8,0,0,0,0-.19.32.32,0,0,0-.11-.29.65.65,0,0,0-.31-.07,2.34,2.34,0,0,0-.84.25c-.37.16-.89.41-1.55.75l-.46-1,5-2.29h.8c-.19.76-.39,1.59-.59,2.49Z"/><path d="M1017,45.23l-1.19,5.43h-2.12l1.19-5.43h-4.83l.42-1.93h4.82l1.17-5.42h2.13l-1.18,5.42h4.87l-.42,1.93Z"/><path d="M1044.16,41.77V42a1.8,1.8,0,0,1,0,.22,10.33,10.33,0,0,1,2.45-2.6,4.37,4.37,0,0,1,2.52-.84,2.64,2.64,0,0,1,2.05.76,3.24,3.24,0,0,1,.7,2.26,10.39,10.39,0,0,1-.28,2.2l-1.19,5.08a7.59,7.59,0,0,0-.24,1.62,1.32,1.32,0,0,0,.14.68.91.91,0,0,0,.44.37,4,4,0,0,0,1,.2l-.12.69h-4.45l1.78-7.24c.14-.52.25-1,.35-1.59a8.12,8.12,0,0,0,.15-1.46,2.4,2.4,0,0,0-.35-1.47,1.36,1.36,0,0,0-1.12-.43,2.33,2.33,0,0,0-1.24.45,6.9,6.9,0,0,0-1.44,1.4,11.16,11.16,0,0,0-1.22,1.86,9.11,9.11,0,0,0-.76,2.25L1042,52.61h-2.45l1.63-7.24c.2-.89.33-1.54.4-2a7,7,0,0,0,.11-1.09,2.33,2.33,0,0,0-.36-1.47,1.4,1.4,0,0,0-1.13-.43,2.25,2.25,0,0,0-1.25.46,6.74,6.74,0,0,0-1.46,1.44,11.41,11.41,0,0,0-1.22,1.9,8.77,8.77,0,0,0-.72,2.22l-1.28,6.17h-2.45l2.15-9.74c0-.22.11-.54.19-1a6,6,0,0,0,.12-1.07,1.34,1.34,0,0,0-.12-.62.73.73,0,0,0-.41-.33,4,4,0,0,0-1-.15l.17-.75,3.23-.13h.8l-.94,3.69.17.06a11.46,11.46,0,0,1,2.59-2.9,4.39,4.39,0,0,1,2.61-1,2.65,2.65,0,0,1,2.07.78A3.22,3.22,0,0,1,1044.16,41.77Z"/><path d="M1058.43,55.23a2.13,2.13,0,0,0,.77-.11,1.26,1.26,0,0,0,.46-.35,3.64,3.64,0,0,0,.44-.76h1.09l-.72,2.83h-7.94l.14-.66a18.11,18.11,0,0,1,3.95-4.22l1.28-1.07a15.26,15.26,0,0,0,1.35-1.26,4.86,4.86,0,0,0,.7-.88,3.19,3.19,0,0,0,.34-.77,3.35,3.35,0,0,0,.1-.79,1.29,1.29,0,0,0-.46-1,2,2,0,0,0-1.31-.38,2.39,2.39,0,0,0-1.46.44,3.26,3.26,0,0,0-1,1.23h-1.45l.42-1.94a12.41,12.41,0,0,1,4-.78,4.86,4.86,0,0,1,1.46.2,3.09,3.09,0,0,1,1,.55,2.24,2.24,0,0,1,.58.74,2.11,2.11,0,0,1,.18.83,3.36,3.36,0,0,1-.31,1.51A5.5,5.5,0,0,1,1061,50a35.52,35.52,0,0,1-2.79,2.33,25.54,25.54,0,0,0-3.16,2.89Z"/><path d="M996.7,11.34v.19a1.8,1.8,0,0,1,0,.22,10.33,10.33,0,0,1,2.45-2.6,4.37,4.37,0,0,1,2.52-.84,2.68,2.68,0,0,1,2.05.76,3.25,3.25,0,0,1,.7,2.27,10.31,10.31,0,0,1-.28,2.19l-1.19,5.08a7.58,7.58,0,0,0-.24,1.63,1.28,1.28,0,0,0,.14.67.91.91,0,0,0,.44.37,4,4,0,0,0,1,.2l-.13.7h-4.45l1.79-7.25c.13-.52.24-1,.34-1.59a8,8,0,0,0,.15-1.46,2.42,2.42,0,0,0-.35-1.47,1.4,1.4,0,0,0-1.12-.43,2.27,2.27,0,0,0-1.24.46,6.58,6.58,0,0,0-1.44,1.39,10.83,10.83,0,0,0-1.22,1.87,8.89,8.89,0,0,0-.76,2.24l-1.29,6.24h-2.45l1.63-7.25c.2-.88.33-1.54.4-2a6.9,6.9,0,0,0,.11-1.09,2.35,2.35,0,0,0-.36-1.47,1.42,1.42,0,0,0-1.13-.43,2.27,2.27,0,0,0-1.25.46A6.73,6.73,0,0,0,990,11.88a10.89,10.89,0,0,0-1.23,1.9,8.78,8.78,0,0,0-.71,2.22l-1.29,6.18h-2.45l2.15-9.75c0-.22.11-.54.19-1a5.9,5.9,0,0,0,.12-1.07,1.34,1.34,0,0,0-.12-.62.75.75,0,0,0-.41-.32,3.17,3.17,0,0,0-1-.15l.17-.76,3.22-.13h.8l-.94,3.7.17.05a11.47,11.47,0,0,1,2.6-2.9,4.35,4.35,0,0,1,2.6-.95,2.65,2.65,0,0,1,2.07.78A3.25,3.25,0,0,1,996.7,11.34Z"/><path d="M1011.46,23.67a4.56,4.56,0,0,0-.13.95.59.59,0,0,0,.2.49,1.41,1.41,0,0,0,.7.27,10,10,0,0,0,1.52.11l-.2.91h-7.19l.18-.91a12.41,12.41,0,0,0,1.4-.11,2.5,2.5,0,0,0,.78-.23,1.27,1.27,0,0,0,.46-.4,2.08,2.08,0,0,0,.29-.79l1.4-6.41c0-.12,0-.23.07-.32s0-.15,0-.19a.31.31,0,0,0-.11-.28.58.58,0,0,0-.32-.08,2.6,2.6,0,0,0-.83.25q-.57.24-1.56.75l-.45-1,5-2.29h.81q-.3,1.14-.6,2.49Z"/><path d="M1035.81,11.34v.19a1.7,1.7,0,0,1,0,.22,10.16,10.16,0,0,1,2.45-2.6,4.37,4.37,0,0,1,2.52-.84,2.66,2.66,0,0,1,2,.76,3.25,3.25,0,0,1,.71,2.27,10.4,10.4,0,0,1-.29,2.19L1042,18.61a7.58,7.58,0,0,0-.24,1.63,1.39,1.39,0,0,0,.14.67,1,1,0,0,0,.44.37,4.08,4.08,0,0,0,1,.2l-.13.7h-4.45l1.79-7.25c.13-.52.25-1,.35-1.59a8,8,0,0,0,.15-1.46,2.35,2.35,0,0,0-.36-1.47,1.4,1.4,0,0,0-1.12-.43,2.27,2.27,0,0,0-1.24.46,6.58,6.58,0,0,0-1.44,1.39,11.45,11.45,0,0,0-1.22,1.87,8.89,8.89,0,0,0-.76,2.24l-1.29,6.24h-2.45l1.63-7.25c.2-.88.33-1.54.41-2a6.76,6.76,0,0,0,.1-1.09,2.35,2.35,0,0,0-.36-1.47,1.42,1.42,0,0,0-1.13-.43,2.3,2.3,0,0,0-1.25.46,6.73,6.73,0,0,0-1.45,1.44,10.89,10.89,0,0,0-1.23,1.9,9.2,9.2,0,0,0-.71,2.22l-1.29,6.18h-2.45l2.15-9.75c.05-.22.11-.54.19-1a5.9,5.9,0,0,0,.12-1.07,1.34,1.34,0,0,0-.12-.62.72.72,0,0,0-.41-.32,3.17,3.17,0,0,0-1-.15l.17-.76,3.23-.13h.79l-.93,3.7.17.05a11.27,11.27,0,0,1,2.59-2.9,4.39,4.39,0,0,1,2.6-.95,2.65,2.65,0,0,1,2.07.78A3.25,3.25,0,0,1,1035.81,11.34Z"/><path d="M1050.09,24.79a2.07,2.07,0,0,0,.76-.11,1.18,1.18,0,0,0,.46-.35,3.21,3.21,0,0,0,.45-.76h1.09l-.72,2.83h-8l.14-.66a18.33,18.33,0,0,1,4-4.22l1.28-1.07a17.67,17.67,0,0,0,1.36-1.25,5.69,5.69,0,0,0,.69-.89,2.84,2.84,0,0,0,.34-.77,2.88,2.88,0,0,0,.1-.78,1.26,1.26,0,0,0-.46-1,2,2,0,0,0-1.31-.38,2.35,2.35,0,0,0-1.46.45,3.13,3.13,0,0,0-1,1.22h-1.46l.43-1.94a12.36,12.36,0,0,1,4-.78,4.88,4.88,0,0,1,1.47.2,2.94,2.94,0,0,1,1,.55,2,2,0,0,1,.58.75,2,2,0,0,1,.19.82,3.44,3.44,0,0,1-.32,1.52,5.41,5.41,0,0,1-1.14,1.44c-.56.54-1.49,1.32-2.79,2.33a25.54,25.54,0,0,0-3.16,2.89Z"/><line x1="967.16" y1="32.71" x2="1064.4" y2="32.71" style="fill:none;stroke:#000;stroke-miterlimit:10;stroke-width:1.3279123209217758px"/><path d="M495.82,27.2h-18.9V23.92h18.9Zm0,8.69h-18.9V32.61h18.9Z"/><path d="M945.48,27.2H926.57V23.92h18.91Zm0,8.69H926.57V32.61h18.91Z"/><path d="M912.7,36.61H906l.17-.79a2.88,2.88,0,0,0,.93-.25,1.73,1.73,0,0,0,.54-.51,4.77,4.77,0,0,0,.47-1.06,21.26,21.26,0,0,0,.56-2.19L912.06,16h-2a3.65,3.65,0,0,0-1.58.29,3.43,3.43,0,0,0-1.19,1.08A16.53,16.53,0,0,0,905.82,20h-1.53l1.2-5.43h16.7l-1.25,5.67h-1.53c0-1,0-1.82-.08-2.34a3.33,3.33,0,0,0-.31-1.19,1.27,1.27,0,0,0-.55-.57,3.12,3.12,0,0,0-1.16-.15h-2.37l-3.47,15.89c-.1.42-.16.75-.2,1s-.07.5-.1.78,0,.52,0,.73a1.62,1.62,0,0,0,.16.78.92.92,0,0,0,.48.41,4,4,0,0,0,1.11.2Z"/><path d="M1081,38.44a5.38,5.38,0,0,0-.51.73,3,3,0,0,0-.3.7,3.18,3.18,0,0,0-.09.81,1.94,1.94,0,0,0,.87,1.76,4.85,4.85,0,0,0,2.6.56,5.49,5.49,0,0,0,2.64-.57,4.79,4.79,0,0,0,1.8-1.73,12.49,12.49,0,0,0,1.28-2.88,42.15,42.15,0,0,0,1.13-4.59l-.22,0a14.81,14.81,0,0,1-2.88,3.13,4.7,4.7,0,0,1-2.87,1,3.17,3.17,0,0,1-2.71-1.32,6.34,6.34,0,0,1-1-3.77,13.64,13.64,0,0,1,.47-3.53,12.62,12.62,0,0,1,1.29-3.14,10.14,10.14,0,0,1,1.88-2.33,7.51,7.51,0,0,1,2.22-1.38,6.71,6.71,0,0,1,2.43-.45,7.4,7.4,0,0,1,1.91.24,6.72,6.72,0,0,1,1.8.83l1.48-1.07,1,.26-1.66,7.56c-.12.54-.24,1.14-.37,1.82l-.42,2.11q-.75,3.8-1.2,5.24a11.54,11.54,0,0,1-1.28,2.77,6.77,6.77,0,0,1-1.63,1.7,7.23,7.23,0,0,1-2.18,1.05,10.16,10.16,0,0,1-2.92.37c-4,0-6-1.18-6-3.54a2.71,2.71,0,0,1,.54-1.64,7.33,7.33,0,0,1,1.75-1.57Zm4.59-3a2.83,2.83,0,0,0,1.62-.56,8,8,0,0,0,1.73-1.79,12.71,12.71,0,0,0,1.43-2.34,12.94,12.94,0,0,0,.88-2.77,13.91,13.91,0,0,0,.36-2.88,2.65,2.65,0,0,0-.53-1.83,2.31,2.31,0,0,0-1.76-.57,3.86,3.86,0,0,0-1.28.21,4.19,4.19,0,0,0-1.23.73,6.29,6.29,0,0,0-1.2,1.33,10.33,10.33,0,0,0-1,2,13.69,13.69,0,0,0-.72,2.52,14,14,0,0,0-.25,2.62,5.12,5.12,0,0,0,.48,2.5A1.62,1.62,0,0,0,1085.56,35.39Z"/><path d="M13.86,30.63l2.3-.21a5.17,5.17,0,0,0,.77,2.3,4.14,4.14,0,0,0,1.85,1.44,7,7,0,0,0,2.84.56,6.73,6.73,0,0,0,2.47-.42,3.48,3.48,0,0,0,1.6-1.15,2.75,2.75,0,0,0,.52-1.6,2.44,2.44,0,0,0-.5-1.52A3.66,3.66,0,0,0,24,28.93,30,30,0,0,0,20.75,28a16.92,16.92,0,0,1-3.57-1.16,5,5,0,0,1-2-1.74,4.28,4.28,0,0,1-.65-2.31,4.78,4.78,0,0,1,.8-2.64,5,5,0,0,1,2.32-1.86,8.75,8.75,0,0,1,3.39-.63,9.1,9.1,0,0,1,3.62.67,5.2,5.2,0,0,1,2.42,2,5.65,5.65,0,0,1,.9,2.93l-2.34.18a3.86,3.86,0,0,0-1.28-2.67,5,5,0,0,0-3.22-.9,5.14,5.14,0,0,0-3.24.82,2.46,2.46,0,0,0-1,2,2.12,2.12,0,0,0,.72,1.65,9.66,9.66,0,0,0,3.68,1.33,23.9,23.9,0,0,1,4.1,1.19A5.66,5.66,0,0,1,27.8,28.7a4.68,4.68,0,0,1,.77,2.65,5,5,0,0,1-.85,2.8A5.57,5.57,0,0,1,25.3,36.2a8.56,8.56,0,0,1-3.57.72,10.57,10.57,0,0,1-4.2-.73A5.86,5.86,0,0,1,14.87,34,6.28,6.28,0,0,1,13.86,30.63Z"/><path d="M40.78,32.27l2.35.29a5.76,5.76,0,0,1-2.06,3.21,6.16,6.16,0,0,1-3.83,1.14,6.12,6.12,0,0,1-4.66-1.82A7.13,7.13,0,0,1,30.86,30,7.47,7.47,0,0,1,32.6,24.7a5.87,5.87,0,0,1,4.51-1.88,5.69,5.69,0,0,1,4.39,1.84,7.37,7.37,0,0,1,1.7,5.18c0,.14,0,.34,0,.61h-10a5.2,5.2,0,0,0,1.24,3.4A3.69,3.69,0,0,0,37.25,35a3.46,3.46,0,0,0,2.13-.66A4.34,4.34,0,0,0,40.78,32.27Zm-7.45-3.7h7.48A4.6,4.6,0,0,0,40,26a3.46,3.46,0,0,0-2.81-1.32,3.6,3.6,0,0,0-2.63,1.05A4.2,4.2,0,0,0,33.33,28.57Z"/><path d="M62.31,32.27l2.35.29a5.76,5.76,0,0,1-2.06,3.21,6.93,6.93,0,0,1-8.49-.68A7.13,7.13,0,0,1,52.39,30a7.47,7.47,0,0,1,1.74-5.28,5.87,5.87,0,0,1,4.51-1.88A5.69,5.69,0,0,1,63,24.66a7.37,7.37,0,0,1,1.7,5.18c0,.14,0,.34,0,.61h-10A5.2,5.2,0,0,0,56,33.85,3.69,3.69,0,0,0,58.78,35a3.46,3.46,0,0,0,2.13-.66A4.34,4.34,0,0,0,62.31,32.27Zm-7.45-3.7h7.48A4.6,4.6,0,0,0,61.48,26a3.46,3.46,0,0,0-2.81-1.32A3.6,3.6,0,0,0,56,25.75,4.2,4.2,0,0,0,54.86,28.57Z"/><path d="M67.45,36.61V18h2.27V36.61Z"/><path d="M73.25,20.62V18h2.27v2.62Zm0,16V23.12h2.27V36.61Z"/><path d="M79,36.61V23.12h2V25a4.66,4.66,0,0,1,4-2.2,4.39,4.39,0,0,1,2.44.62,3.35,3.35,0,0,1,1.35,1.74A4.79,4.79,0,0,1,93,22.82,4,4,0,0,1,96,23.93a4.74,4.74,0,0,1,1.07,3.42v9.26H94.86v-8.5a6.5,6.5,0,0,0-.22-2,1.94,1.94,0,0,0-.8-1,2.45,2.45,0,0,0-1.36-.37,3.16,3.16,0,0,0-2.35.95,4.18,4.18,0,0,0-.93,3v7.84H86.93V27.85a3.88,3.88,0,0,0-.56-2.29,2.07,2.07,0,0,0-1.81-.76,3.26,3.26,0,0,0-1.77.51,2.87,2.87,0,0,0-1.18,1.48,8.53,8.53,0,0,0-.37,2.82v7Z"/><path d="M100.49,20.62V18h2.27v2.62Zm0,16V23.12h2.27V36.61Z"/><path d="M106.22,36.61V23.12h2V25a4.8,4.8,0,0,1,4.26-2.22,5.53,5.53,0,0,1,2.22.44,3.39,3.39,0,0,1,1.52,1.15A4.38,4.38,0,0,1,117,26.1a13.76,13.76,0,0,1,.12,2.22v8.29h-2.26v-8.2a6.09,6.09,0,0,0-.27-2.09,2.25,2.25,0,0,0-.94-1.11A3,3,0,0,0,112,24.8a3.64,3.64,0,0,0-2.5.93c-.7.62-1.06,1.79-1.06,3.51v7.37Z"/><path d="M129.31,34.94a8.52,8.52,0,0,1-2.43,1.53,7.06,7.06,0,0,1-2.5.44A4.86,4.86,0,0,1,121,35.83a3.61,3.61,0,0,1-1.19-2.78,3.71,3.71,0,0,1,.45-1.81,3.8,3.8,0,0,1,1.17-1.31,5.58,5.58,0,0,1,1.64-.75,15.57,15.57,0,0,1,2-.34,20.17,20.17,0,0,0,4.05-.79c0-.31,0-.51,0-.6a2.51,2.51,0,0,0-.64-2,3.75,3.75,0,0,0-2.58-.78,4,4,0,0,0-2.37.57,3.45,3.45,0,0,0-1.13,2L120.19,27a5.76,5.76,0,0,1,1-2.32,4.35,4.35,0,0,1,2-1.35,8.86,8.86,0,0,1,3-.48,8,8,0,0,1,2.79.41,3.63,3.63,0,0,1,1.57,1,3.53,3.53,0,0,1,.71,1.55,12.66,12.66,0,0,1,.11,2.11V31a31.48,31.48,0,0,0,.15,4,5.4,5.4,0,0,0,.57,1.62h-2.37A5.11,5.11,0,0,1,129.31,34.94Zm-.19-5.1a16.08,16.08,0,0,1-3.71.86,8.53,8.53,0,0,0-2,.46,2,2,0,0,0-.9.74,2,2,0,0,0-.32,1.09,1.93,1.93,0,0,0,.69,1.52,2.93,2.93,0,0,0,2,.61,4.58,4.58,0,0,0,2.33-.58,3.42,3.42,0,0,0,1.5-1.58,5.39,5.39,0,0,0,.37-2.28Z"/><path d="M147.1,36.61V20.19H141V18h14.64v2.19h-6.11V36.61Z"/><path d="M165.05,41.77V23.12h2.06v1.76a5.23,5.23,0,0,1,1.65-1.55,4.58,4.58,0,0,1,2.24-.51,5.26,5.26,0,0,1,3,.89,5.43,5.43,0,0,1,2,2.51,9.26,9.26,0,0,1,.67,3.54,9.1,9.1,0,0,1-.74,3.73A5.54,5.54,0,0,1,173.79,36a5.46,5.46,0,0,1-3,.88,4.25,4.25,0,0,1-2-.48,4.47,4.47,0,0,1-1.48-1.22v6.56Zm2-11.83a5.88,5.88,0,0,0,1.05,3.85A3.18,3.18,0,0,0,170.68,35a3.27,3.27,0,0,0,2.59-1.29,6.12,6.12,0,0,0,1.08-4,6,6,0,0,0-1-3.86,3.19,3.19,0,0,0-2.52-1.28A3.28,3.28,0,0,0,168.22,26,6.12,6.12,0,0,0,167.1,29.94Z"/><path d="M188.14,34.94a8.52,8.52,0,0,1-2.43,1.53,7.06,7.06,0,0,1-2.5.44,4.86,4.86,0,0,1-3.39-1.08,3.61,3.61,0,0,1-1.19-2.78,3.71,3.71,0,0,1,.45-1.81,3.8,3.8,0,0,1,1.17-1.31,5.58,5.58,0,0,1,1.64-.75,15.57,15.57,0,0,1,2-.34,20.17,20.17,0,0,0,4-.79c0-.31,0-.51,0-.6a2.51,2.51,0,0,0-.64-2,3.75,3.75,0,0,0-2.58-.78,4,4,0,0,0-2.37.57,3.45,3.45,0,0,0-1.13,2L179,27a5.62,5.62,0,0,1,1-2.32,4.33,4.33,0,0,1,2-1.35,8.76,8.76,0,0,1,3-.48,8,8,0,0,1,2.79.41,3.63,3.63,0,0,1,1.57,1,3.53,3.53,0,0,1,.71,1.55,12.66,12.66,0,0,1,.11,2.11V31a31.48,31.48,0,0,0,.15,4,5.4,5.4,0,0,0,.57,1.62h-2.37A5.11,5.11,0,0,1,188.14,34.94Zm-.19-5.1a16.08,16.08,0,0,1-3.71.86,8.53,8.53,0,0,0-2,.46,2,2,0,0,0-.9.74,2,2,0,0,0-.32,1.09,1.93,1.93,0,0,0,.69,1.52,2.93,2.93,0,0,0,2,.61,4.58,4.58,0,0,0,2.33-.58,3.42,3.42,0,0,0,1.5-1.58,5.39,5.39,0,0,0,.37-2.28Z"/><path d="M193.74,36.61V23.12h2v2.05a5.48,5.48,0,0,1,1.44-1.89,2.48,2.48,0,0,1,1.46-.46,4.42,4.42,0,0,1,2.33.74l-.78,2.12a3.26,3.26,0,0,0-1.67-.5,2.14,2.14,0,0,0-1.33.45,2.44,2.44,0,0,0-.85,1.25,9.07,9.07,0,0,0-.38,2.67v7.06Z"/><path d="M211.09,34.94a8.62,8.62,0,0,1-2.42,1.53,7.12,7.12,0,0,1-2.51.44,4.86,4.86,0,0,1-3.39-1.08,3.61,3.61,0,0,1-1.18-2.78,3.77,3.77,0,0,1,1.62-3.12,5.52,5.52,0,0,1,1.63-.75,16.13,16.13,0,0,1,2-.34,20,20,0,0,0,4-.79c0-.31,0-.51,0-.6a2.51,2.51,0,0,0-.65-2,3.75,3.75,0,0,0-2.58-.78,3.92,3.92,0,0,0-2.36.57,3.4,3.4,0,0,0-1.13,2L202,27a5.5,5.5,0,0,1,1-2.32,4.35,4.35,0,0,1,2-1.35,8.82,8.82,0,0,1,3-.48,8,8,0,0,1,2.78.41,3.67,3.67,0,0,1,1.58,1,3.63,3.63,0,0,1,.7,1.55,12.35,12.35,0,0,1,.12,2.11V31a34.49,34.49,0,0,0,.14,4,5.17,5.17,0,0,0,.58,1.62h-2.37A4.87,4.87,0,0,1,211.09,34.94Zm-.19-5.1a16,16,0,0,1-3.7.86,8.79,8.79,0,0,0-2,.46,2,2,0,0,0-.9.74A2,2,0,0,0,204,33a1.93,1.93,0,0,0,.69,1.52,2.89,2.89,0,0,0,2,.61,4.6,4.6,0,0,0,2.33-.58,3.52,3.52,0,0,0,1.5-1.58,5.58,5.58,0,0,0,.36-2.28Z"/><path d="M223.89,36.61V18h2.27v6.67a5.06,5.06,0,0,1,4-1.85,5.4,5.4,0,0,1,2.58.59A3.48,3.48,0,0,1,234.32,25a7.68,7.68,0,0,1,.47,3v8.55h-2.27V28.06a3.5,3.5,0,0,0-.74-2.49,2.71,2.71,0,0,0-2.08-.78,3.67,3.67,0,0,0-1.9.52,3.08,3.08,0,0,0-1.27,1.43,6.66,6.66,0,0,0-.37,2.49v7.38Z"/><path d="M247,34.94a8.52,8.52,0,0,1-2.43,1.53,7.06,7.06,0,0,1-2.5.44,4.86,4.86,0,0,1-3.39-1.08,3.61,3.61,0,0,1-1.18-2.78,3.81,3.81,0,0,1,.44-1.81,3.73,3.73,0,0,1,1.18-1.31,5.41,5.41,0,0,1,1.63-.75,15.8,15.8,0,0,1,2-.34,20,20,0,0,0,4-.79c0-.31,0-.51,0-.6a2.51,2.51,0,0,0-.64-2,3.75,3.75,0,0,0-2.58-.78,4,4,0,0,0-2.37.57,3.44,3.44,0,0,0-1.12,2L237.87,27a5.62,5.62,0,0,1,1-2.32,4.33,4.33,0,0,1,2-1.35,8.76,8.76,0,0,1,3-.48,8,8,0,0,1,2.79.41,3.73,3.73,0,0,1,1.58,1,3.63,3.63,0,0,1,.7,1.55,12.35,12.35,0,0,1,.12,2.11V31a32.26,32.26,0,0,0,.14,4,5.4,5.4,0,0,0,.57,1.62h-2.37A5.11,5.11,0,0,1,247,34.94Zm-.19-5.1a16.1,16.1,0,0,1-3.7.86,8.51,8.51,0,0,0-2,.46,2,2,0,0,0-.9.74A2,2,0,0,0,239.9,33a2,2,0,0,0,.68,1.52,2.93,2.93,0,0,0,2,.61,4.62,4.62,0,0,0,2.34-.58,3.52,3.52,0,0,0,1.5-1.58,5.58,5.58,0,0,0,.36-2.28Z"/><path d="M252.55,36.61V18h2.27V36.61Z"/><path d="M258.29,36.61V18h2.27V36.61Z"/><path d="M272.81,34.94a8.52,8.52,0,0,1-2.43,1.53,7.06,7.06,0,0,1-2.5.44,4.86,4.86,0,0,1-3.39-1.08,3.61,3.61,0,0,1-1.19-2.78,3.71,3.71,0,0,1,.45-1.81,3.8,3.8,0,0,1,1.17-1.31,5.58,5.58,0,0,1,1.64-.75,15.57,15.57,0,0,1,2-.34,20.17,20.17,0,0,0,4.05-.79c0-.31,0-.51,0-.6a2.51,2.51,0,0,0-.64-2,3.75,3.75,0,0,0-2.58-.78,4,4,0,0,0-2.37.57,3.45,3.45,0,0,0-1.13,2L263.69,27a5.76,5.76,0,0,1,1-2.32,4.35,4.35,0,0,1,2-1.35,8.86,8.86,0,0,1,3-.48,8,8,0,0,1,2.79.41,3.63,3.63,0,0,1,1.57,1,3.53,3.53,0,0,1,.71,1.55,12.66,12.66,0,0,1,.11,2.11V31a31.48,31.48,0,0,0,.15,4,5.4,5.4,0,0,0,.57,1.62h-2.37A5.11,5.11,0,0,1,272.81,34.94Zm-.19-5.1a16.08,16.08,0,0,1-3.71.86,8.53,8.53,0,0,0-2,.46,2,2,0,0,0-.9.74,2,2,0,0,0-.32,1.09,1.93,1.93,0,0,0,.69,1.52,2.93,2.93,0,0,0,2,.61,4.58,4.58,0,0,0,2.33-.58,3.42,3.42,0,0,0,1.5-1.58,5.39,5.39,0,0,0,.37-2.28Z"/><path d="M278.41,36.61V23.12h2v2.05a5.48,5.48,0,0,1,1.44-1.89,2.48,2.48,0,0,1,1.46-.46,4.42,4.42,0,0,1,2.33.74l-.78,2.12a3.26,3.26,0,0,0-1.67-.5,2.14,2.14,0,0,0-1.33.45,2.44,2.44,0,0,0-.85,1.25,9.07,9.07,0,0,0-.38,2.67v7.06Z"/><path d="M302.94,34.94a8.52,8.52,0,0,1-2.43,1.53,7.1,7.1,0,0,1-2.5.44,4.86,4.86,0,0,1-3.39-1.08,3.61,3.61,0,0,1-1.19-2.78,3.71,3.71,0,0,1,.45-1.81,3.8,3.8,0,0,1,1.17-1.31,5.52,5.52,0,0,1,1.63-.75,16.13,16.13,0,0,1,2-.34,20.32,20.32,0,0,0,4.05-.79c0-.31,0-.51,0-.6a2.51,2.51,0,0,0-.64-2,3.77,3.77,0,0,0-2.59-.78,4,4,0,0,0-2.36.57,3.4,3.4,0,0,0-1.13,2L293.82,27a5.63,5.63,0,0,1,1-2.32,4.35,4.35,0,0,1,2-1.35,8.86,8.86,0,0,1,3-.48,8.06,8.06,0,0,1,2.79.41,3.21,3.21,0,0,1,2.28,2.57,13.89,13.89,0,0,1,.11,2.11V31a31.48,31.48,0,0,0,.15,4,4.91,4.91,0,0,0,.57,1.62h-2.37A4.66,4.66,0,0,1,302.94,34.94Zm-.19-5.1a16.21,16.21,0,0,1-3.71.86,8.79,8.79,0,0,0-2,.46,2,2,0,0,0-.89.74,2,2,0,0,0-.32,1.09,1.93,1.93,0,0,0,.69,1.52,2.93,2.93,0,0,0,2,.61,4.6,4.6,0,0,0,2.33-.58,3.52,3.52,0,0,0,1.5-1.58,5.55,5.55,0,0,0,.37-2.28Z"/><path d="M309.15,36.61V34h2.58v2.61a4.58,4.58,0,0,1-.5,2.31,3.3,3.3,0,0,1-1.6,1.37l-.63-1a2.16,2.16,0,0,0,1.06-.93,4.16,4.16,0,0,0,.38-1.77Z"/><path d="M322,32.58l2.24-.35a3.21,3.21,0,0,0,1.05,2.08,3.68,3.68,0,0,0,2.42.72,3.53,3.53,0,0,0,2.32-.64,1.93,1.93,0,0,0,.75-1.5,1.37,1.37,0,0,0-.67-1.22,10.11,10.11,0,0,0-2.32-.78,21.2,21.2,0,0,1-3.46-1.09,3.36,3.36,0,0,1-1.46-1.29,3.42,3.42,0,0,1-.5-1.81,3.56,3.56,0,0,1,.41-1.67,3.8,3.8,0,0,1,1.12-1.27,4.84,4.84,0,0,1,1.44-.67,6.93,6.93,0,0,1,2-.27,7.59,7.59,0,0,1,2.77.46,3.7,3.7,0,0,1,1.76,1.24,4.72,4.72,0,0,1,.78,2.08l-2.22.31a2.45,2.45,0,0,0-.87-1.63,3.21,3.21,0,0,0-2-.58,3.64,3.64,0,0,0-2.23.52,1.51,1.51,0,0,0-.67,1.22,1.31,1.31,0,0,0,.27.8,2.11,2.11,0,0,0,.87.61c.23.08.9.28,2,.58a29.12,29.12,0,0,1,3.36,1.06,3.49,3.49,0,0,1,1.49,1.2,3.4,3.4,0,0,1,.54,2,3.88,3.88,0,0,1-.66,2.15,4.32,4.32,0,0,1-1.91,1.56,6.86,6.86,0,0,1-2.82.55,6.25,6.25,0,0,1-4-1.09A5.09,5.09,0,0,1,322,32.58Z"/><path d="M345,32.27l2.34.29a5.75,5.75,0,0,1-2.05,3.21,6.17,6.17,0,0,1-3.84,1.14,6.1,6.1,0,0,1-4.65-1.82A7.13,7.13,0,0,1,335.06,30a7.51,7.51,0,0,1,1.73-5.28,5.89,5.89,0,0,1,4.52-1.88,5.67,5.67,0,0,1,4.38,1.84,7.32,7.32,0,0,1,1.71,5.18c0,.14,0,.34,0,.61h-10a5.15,5.15,0,0,0,1.25,3.4,3.69,3.69,0,0,0,2.8,1.18,3.46,3.46,0,0,0,2.13-.66A4.48,4.48,0,0,0,345,32.27Zm-7.45-3.7H345a4.6,4.6,0,0,0-.86-2.55,3.46,3.46,0,0,0-2.81-1.32,3.6,3.6,0,0,0-2.63,1.05A4.15,4.15,0,0,0,337.53,28.57Z"/><path d="M356.5,29.87q0-3.75,2.07-5.55a6.19,6.19,0,0,1,4.21-1.5,6,6,0,0,1,4.51,1.82,7,7,0,0,1,1.75,5,8.91,8.91,0,0,1-.78,4.09A5.47,5.47,0,0,1,366,36.09a6.55,6.55,0,0,1-3.23.82,6,6,0,0,1-4.55-1.81A7.27,7.27,0,0,1,356.5,29.87Zm2.33,0A5.73,5.73,0,0,0,360,33.74a3.73,3.73,0,0,0,5.64,0,6,6,0,0,0,1.12-4A5.61,5.61,0,0,0,365.58,26a3.57,3.57,0,0,0-2.8-1.29A3.61,3.61,0,0,0,360,26,5.76,5.76,0,0,0,358.83,29.87Z"/><path d="M373.79,36.61h-2.1V18H374v6.64a4.47,4.47,0,0,1,3.66-1.82,5.62,5.62,0,0,1,2.34.5,4.91,4.91,0,0,1,1.82,1.41,7,7,0,0,1,1.11,2.19,9.08,9.08,0,0,1,.41,2.74A7.72,7.72,0,0,1,381.59,35a5.29,5.29,0,0,1-4.08,1.89,4.25,4.25,0,0,1-3.72-2Zm0-6.85a7,7,0,0,0,.65,3.51,3.23,3.23,0,0,0,5.47.46A5.91,5.91,0,0,0,381,29.85a6,6,0,0,0-1-3.89,3.17,3.17,0,0,0-2.52-1.26,3.24,3.24,0,0,0-2.57,1.3A5.75,5.75,0,0,0,373.77,29.76Z"/><path d="M391,34.56l.33,2a8,8,0,0,1-1.72.2,3.86,3.86,0,0,1-1.91-.39,2.21,2.21,0,0,1-1-1,8.39,8.39,0,0,1-.28-2.7V24.9h-1.66V23.12h1.66V19.79l2.26-1.38v4.71H391V24.9h-2.28v7.89a3.93,3.93,0,0,0,.12,1.25,1,1,0,0,0,.39.45,1.51,1.51,0,0,0,.78.16A7.17,7.17,0,0,0,391,34.56Z"/><path d="M393.24,20.62V18h2.27v2.62Zm0,16V23.12h2.27V36.61Z"/><path d="M408.13,32.27l2.34.29a5.75,5.75,0,0,1-2.05,3.21,6.93,6.93,0,0,1-8.49-.68A7.13,7.13,0,0,1,398.21,30,7.47,7.47,0,0,1,400,24.7a5.87,5.87,0,0,1,4.51-1.88,5.71,5.71,0,0,1,4.39,1.84,7.37,7.37,0,0,1,1.7,5.18c0,.14,0,.34,0,.61h-10a5.2,5.2,0,0,0,1.25,3.4A3.69,3.69,0,0,0,404.6,35a3.46,3.46,0,0,0,2.13-.66A4.41,4.41,0,0,0,408.13,32.27Zm-7.45-3.7h7.47A4.6,4.6,0,0,0,407.3,26a3.48,3.48,0,0,0-2.81-1.32,3.59,3.59,0,0,0-2.63,1.05A4.15,4.15,0,0,0,400.68,28.57Z"/><path d="M413.32,36.61V23.12h2V25a4.82,4.82,0,0,1,4.26-2.22,5.62,5.62,0,0,1,2.23.44,3.45,3.45,0,0,1,1.52,1.15,4.37,4.37,0,0,1,.7,1.69,12.39,12.39,0,0,1,.13,2.22v8.29h-2.27v-8.2a6.4,6.4,0,0,0-.26-2.09,2.25,2.25,0,0,0-.94-1.11,3,3,0,0,0-1.58-.41,3.68,3.68,0,0,0-2.51.93q-1,.93-1.05,3.51v7.37Z"/><path d="M436.84,32.27l2.35.29a5.76,5.76,0,0,1-2.06,3.21,6.93,6.93,0,0,1-8.49-.68A7.18,7.18,0,0,1,426.92,30a7.47,7.47,0,0,1,1.74-5.28,5.89,5.89,0,0,1,4.52-1.88,5.67,5.67,0,0,1,4.38,1.84,7.32,7.32,0,0,1,1.7,5.18c0,.14,0,.34,0,.61h-10a5.15,5.15,0,0,0,1.25,3.4A3.67,3.67,0,0,0,433.31,35a3.42,3.42,0,0,0,2.13-.66A4.34,4.34,0,0,0,436.84,32.27Zm-7.45-3.7h7.48A4.6,4.6,0,0,0,436,26a3.46,3.46,0,0,0-2.81-1.32,3.6,3.6,0,0,0-2.63,1.05A4.2,4.2,0,0,0,429.39,28.57Z"/><path d="M442.67,25.73V23.12h2.58v2.61Zm0,10.88V34h2.58v2.61Z"/><path d="M465.12,34.94a8.52,8.52,0,0,1-2.43,1.53,7.1,7.1,0,0,1-2.5.44,4.86,4.86,0,0,1-3.39-1.08,3.61,3.61,0,0,1-1.19-2.78,3.71,3.71,0,0,1,.45-1.81,3.8,3.8,0,0,1,1.17-1.31,5.58,5.58,0,0,1,1.64-.75,15.57,15.57,0,0,1,2-.34,20.17,20.17,0,0,0,4.05-.79c0-.31,0-.51,0-.6a2.51,2.51,0,0,0-.64-2,3.75,3.75,0,0,0-2.58-.78,4,4,0,0,0-2.37.57,3.45,3.45,0,0,0-1.13,2L456,27a5.76,5.76,0,0,1,1-2.32,4.35,4.35,0,0,1,2-1.35,8.86,8.86,0,0,1,3-.48,8,8,0,0,1,2.79.41,3.63,3.63,0,0,1,1.57,1,3.53,3.53,0,0,1,.71,1.55,12.66,12.66,0,0,1,.11,2.11V31a31.48,31.48,0,0,0,.15,4,5.4,5.4,0,0,0,.57,1.62h-2.37A5.11,5.11,0,0,1,465.12,34.94Zm-.19-5.1a16.08,16.08,0,0,1-3.71.86,8.79,8.79,0,0,0-2,.46,2,2,0,0,0-.89.74A2,2,0,0,0,458,33a1.93,1.93,0,0,0,.69,1.52,2.93,2.93,0,0,0,2,.61,4.58,4.58,0,0,0,2.33-.58,3.52,3.52,0,0,0,1.5-1.58,5.39,5.39,0,0,0,.37-2.28Z"/><path d="M632.52,38.17l2.21.33a2.14,2.14,0,0,0,.77,1.5,3.76,3.76,0,0,0,2.3.63,4.1,4.1,0,0,0,2.44-.63,3.21,3.21,0,0,0,1.16-1.78,15.3,15.3,0,0,0,.16-2.93,4.67,4.67,0,0,1-3.71,1.76,5,5,0,0,1-4.27-2,7.73,7.73,0,0,1-1.51-4.81,9.07,9.07,0,0,1,.69-3.56,5.53,5.53,0,0,1,2-2.52,5.43,5.43,0,0,1,3.1-.89,4.78,4.78,0,0,1,3.9,1.93V23.57h2.1V35.22a11.24,11.24,0,0,1-.64,4.47,4.69,4.69,0,0,1-2,2.07,6.91,6.91,0,0,1-3.39.76A6.38,6.38,0,0,1,634,41.44,3.69,3.69,0,0,1,632.52,38.17Zm1.88-8.1a5.85,5.85,0,0,0,1.05,3.87,3.31,3.31,0,0,0,2.62,1.22A3.37,3.37,0,0,0,640.69,34a5.68,5.68,0,0,0,1.06-3.81,5.54,5.54,0,0,0-1.09-3.73A3.36,3.36,0,0,0,638,25.15a3.27,3.27,0,0,0-2.57,1.24A5.52,5.52,0,0,0,634.4,30.07Z"/><path d="M654.37,42.24l-.26-2.14a5.29,5.29,0,0,0,1.3.2,2.45,2.45,0,0,0,1.21-.25,2.12,2.12,0,0,0,.75-.71,11.92,11.92,0,0,0,.69-1.71l.2-.55-5.08-13.51h2.45l2.78,7.81a30.79,30.79,0,0,1,1,3.12,31.19,31.19,0,0,1,.94-3.07l2.86-7.86h2.27l-5.09,13.71a28.16,28.16,0,0,1-1.28,3.06A4.51,4.51,0,0,1,657.69,42a3.25,3.25,0,0,1-1.86.52A4.36,4.36,0,0,1,654.37,42.24Z"/><path d="M683.28,35.39a8.43,8.43,0,0,1-2.42,1.52,6.89,6.89,0,0,1-2.5.45A4.84,4.84,0,0,1,675,36.27a3.59,3.59,0,0,1-1.19-2.77,3.68,3.68,0,0,1,.45-1.81,3.75,3.75,0,0,1,1.17-1.32,5.52,5.52,0,0,1,1.63-.75,18.25,18.25,0,0,1,2-.34,20.32,20.32,0,0,0,4.05-.79c0-.31,0-.51,0-.59a2.57,2.57,0,0,0-.64-2,3.78,3.78,0,0,0-2.59-.78,3.94,3.94,0,0,0-2.36.57,3.43,3.43,0,0,0-1.13,2l-2.22-.31a5.45,5.45,0,0,1,1-2.31,4.37,4.37,0,0,1,2-1.36,8.82,8.82,0,0,1,3-.48,8,8,0,0,1,2.78.41,3.67,3.67,0,0,1,1.58,1,3.63,3.63,0,0,1,.71,1.56,13.73,13.73,0,0,1,.11,2.1v3a34.37,34.37,0,0,0,.14,4,5.17,5.17,0,0,0,.58,1.62h-2.37A4.82,4.82,0,0,1,683.28,35.39Zm-.18-5.11a16.67,16.67,0,0,1-3.71.87,8.92,8.92,0,0,0-2,.45,2,2,0,0,0-1.21,1.83,2,2,0,0,0,.69,1.53,3,3,0,0,0,2,.61,4.71,4.71,0,0,0,2.33-.58,3.57,3.57,0,0,0,1.5-1.58,5.64,5.64,0,0,0,.37-2.29Z"/><path d="M688.86,37.05V18.44h2.26V37.05Z"/><path d="M701.79,37.05V23.57h2v2a5.56,5.56,0,0,1,1.45-1.89,2.52,2.52,0,0,1,1.45-.46,4.4,4.4,0,0,1,2.33.74l-.78,2.12a3.22,3.22,0,0,0-1.66-.5,2.18,2.18,0,0,0-1.34.46,2.39,2.39,0,0,0-.84,1.25,8.68,8.68,0,0,0-.38,2.66v7.06Z"/><path d="M719.58,32.71l2.34.29a5.76,5.76,0,0,1-2.06,3.21A6.14,6.14,0,0,1,716,37.36a6.06,6.06,0,0,1-4.65-1.83,7.12,7.12,0,0,1-1.73-5.11,7.49,7.49,0,0,1,1.74-5.28,5.89,5.89,0,0,1,4.52-1.88,5.71,5.71,0,0,1,4.38,1.84A7.34,7.34,0,0,1,722,30.28c0,.14,0,.34,0,.61H712a5.2,5.2,0,0,0,1.25,3.41,3.73,3.73,0,0,0,2.8,1.18,3.46,3.46,0,0,0,2.13-.66A4.52,4.52,0,0,0,719.58,32.71ZM712.13,29h7.47a4.6,4.6,0,0,0-.86-2.55,3.46,3.46,0,0,0-2.81-1.32,3.57,3.57,0,0,0-2.63,1.06A4.14,4.14,0,0,0,712.13,29Z"/><path d="M733.93,32.71l2.35.29a5.76,5.76,0,0,1-2.06,3.21,6.16,6.16,0,0,1-3.83,1.15,6.09,6.09,0,0,1-4.66-1.83A7.16,7.16,0,0,1,724,30.42a7.49,7.49,0,0,1,1.74-5.28,5.89,5.89,0,0,1,4.51-1.88,5.73,5.73,0,0,1,4.39,1.84,7.34,7.34,0,0,1,1.7,5.18c0,.14,0,.34,0,.61h-10a5.2,5.2,0,0,0,1.25,3.41,3.71,3.71,0,0,0,2.79,1.18,3.46,3.46,0,0,0,2.13-.66A4.37,4.37,0,0,0,733.93,32.71ZM726.48,29H734a4.6,4.6,0,0,0-.86-2.55,3.46,3.46,0,0,0-2.81-1.32,3.57,3.57,0,0,0-2.63,1.06A4.19,4.19,0,0,0,726.48,29Z"/><path d="M739.13,37.05V23.57h2v1.89a4.72,4.72,0,0,1,1.67-1.59,4.61,4.61,0,0,1,2.38-.61,4.31,4.31,0,0,1,2.44.63A3.29,3.29,0,0,1,749,25.62a4.8,4.8,0,0,1,4.13-2.36,4,4,0,0,1,3.06,1.11,4.77,4.77,0,0,1,1.08,3.43v9.25H755V28.56a6.26,6.26,0,0,0-.22-2,2,2,0,0,0-.8-1,2.54,2.54,0,0,0-1.36-.37,3.17,3.17,0,0,0-2.35,1,4.19,4.19,0,0,0-.93,3v7.83h-2.27V28.29a3.85,3.85,0,0,0-.55-2.28,2.1,2.1,0,0,0-1.82-.77,3.26,3.26,0,0,0-1.77.51,2.89,2.89,0,0,0-1.18,1.49,8.53,8.53,0,0,0-.36,2.82v7Z"/><path d="M760.63,42.22V23.57h2.07v1.75a5.08,5.08,0,0,1,1.65-1.54,4.54,4.54,0,0,1,2.23-.52,5.32,5.32,0,0,1,3,.89,5.41,5.41,0,0,1,2,2.51,9.79,9.79,0,0,1-.06,7.27,5.62,5.62,0,0,1-2.15,2.54,5.44,5.44,0,0,1-3,.89,4.27,4.27,0,0,1-2-.49,4.55,4.55,0,0,1-1.48-1.22v6.57Zm2.06-11.83a5.87,5.87,0,0,0,1,3.84,3.21,3.21,0,0,0,2.54,1.25,3.28,3.28,0,0,0,2.59-1.29,6.2,6.2,0,0,0,1.07-4,6,6,0,0,0-1-3.86,3.15,3.15,0,0,0-2.51-1.29,3.26,3.26,0,0,0-2.57,1.37A6.16,6.16,0,0,0,762.69,30.39Z"/><path d="M774.94,37.05V18.44h2.27V37.05Z"/><path d="M789.46,35.39A8.46,8.46,0,0,1,787,36.91a6.85,6.85,0,0,1-2.5.45,4.86,4.86,0,0,1-3.39-1.09A3.59,3.59,0,0,1,780,33.5a3.68,3.68,0,0,1,.45-1.81,3.75,3.75,0,0,1,1.17-1.32,5.58,5.58,0,0,1,1.64-.75,17.57,17.57,0,0,1,2-.34,20.17,20.17,0,0,0,4-.79c0-.31,0-.51,0-.59a2.53,2.53,0,0,0-.64-2,3.75,3.75,0,0,0-2.58-.78,4,4,0,0,0-2.37.57,3.48,3.48,0,0,0-1.13,2l-2.21-.31a5.58,5.58,0,0,1,1-2.31,4.35,4.35,0,0,1,2-1.36,8.76,8.76,0,0,1,3-.48,8,8,0,0,1,2.79.41,3.63,3.63,0,0,1,1.57,1,3.51,3.51,0,0,1,.71,1.56,12.52,12.52,0,0,1,.11,2.1v3a31.37,31.37,0,0,0,.15,4,5.4,5.4,0,0,0,.57,1.62h-2.37A5,5,0,0,1,789.46,35.39Zm-.19-5.11a16.53,16.53,0,0,1-3.71.87,8.66,8.66,0,0,0-2,.45,2,2,0,0,0-.9.75,1.93,1.93,0,0,0-.32,1.08,2,2,0,0,0,.69,1.53,3,3,0,0,0,2,.61A4.68,4.68,0,0,0,787.4,35a3.46,3.46,0,0,0,1.5-1.58,5.47,5.47,0,0,0,.37-2.29Z"/><path d="M793.88,37.05V35.2l8.52-9.85c-1,0-1.81.07-2.55.07h-5.46V23.57h10.94v1.51l-7.25,8.56-1.4,1.56c1-.08,2-.12,2.86-.12h6.19v2Z"/><path d="M816.73,35.39a8.6,8.6,0,0,1-2.43,1.52,6.89,6.89,0,0,1-2.5.45,4.84,4.84,0,0,1-3.39-1.09,3.59,3.59,0,0,1-1.19-2.77,3.68,3.68,0,0,1,.45-1.81,3.75,3.75,0,0,1,1.17-1.32,5.52,5.52,0,0,1,1.63-.75,18.25,18.25,0,0,1,2-.34,20.32,20.32,0,0,0,4-.79c0-.31,0-.51,0-.59a2.57,2.57,0,0,0-.64-2,3.78,3.78,0,0,0-2.59-.78,3.94,3.94,0,0,0-2.36.57,3.43,3.43,0,0,0-1.13,2l-2.22-.31a5.58,5.58,0,0,1,1-2.31,4.37,4.37,0,0,1,2-1.36,8.82,8.82,0,0,1,3-.48,8.06,8.06,0,0,1,2.79.41,3.69,3.69,0,0,1,1.57,1,3.63,3.63,0,0,1,.71,1.56,13.73,13.73,0,0,1,.11,2.1v3a31.37,31.37,0,0,0,.15,4,4.91,4.91,0,0,0,.57,1.62h-2.37A4.6,4.6,0,0,1,816.73,35.39Zm-.19-5.11a16.67,16.67,0,0,1-3.71.87,8.92,8.92,0,0,0-2,.45,2,2,0,0,0-1.21,1.83,2,2,0,0,0,.69,1.53,3,3,0,0,0,2,.61,4.71,4.71,0,0,0,2.33-.58,3.57,3.57,0,0,0,1.5-1.58,5.64,5.64,0,0,0,.37-2.29Z"/><path d="M822.32,37.05V23.57h2v2a5.69,5.69,0,0,1,1.45-1.89,2.52,2.52,0,0,1,1.45-.46,4.43,4.43,0,0,1,2.34.74l-.79,2.12a3.22,3.22,0,0,0-1.66-.5,2.18,2.18,0,0,0-1.34.46,2.45,2.45,0,0,0-.84,1.25,9,9,0,0,0-.38,2.66v7.06Z"/><path d="M847.28,32.71l2.34.29a5.7,5.7,0,0,1-2,3.21,6.16,6.16,0,0,1-3.83,1.15,6.09,6.09,0,0,1-4.66-1.83,7.12,7.12,0,0,1-1.72-5.11,7.49,7.49,0,0,1,1.74-5.28,5.87,5.87,0,0,1,4.51-1.88A5.74,5.74,0,0,1,848,25.1a7.38,7.38,0,0,1,1.7,5.18c0,.14,0,.34,0,.61h-10A5.25,5.25,0,0,0,841,34.3a3.73,3.73,0,0,0,2.8,1.18,3.46,3.46,0,0,0,2.13-.66A4.37,4.37,0,0,0,847.28,32.71ZM839.83,29h7.48a4.68,4.68,0,0,0-.86-2.55,3.46,3.46,0,0,0-2.81-1.32A3.57,3.57,0,0,0,841,26.2,4.19,4.19,0,0,0,839.83,29Z"/><path d="M852.47,37.05V23.57h2v1.92a4.78,4.78,0,0,1,4.26-2.23,5.6,5.6,0,0,1,2.22.44,3.52,3.52,0,0,1,1.52,1.15,4.45,4.45,0,0,1,.71,1.69,13.76,13.76,0,0,1,.12,2.22v8.29h-2.27v-8.2a6.4,6.4,0,0,0-.26-2.09,2.18,2.18,0,0,0-.94-1.1,2.94,2.94,0,0,0-1.58-.42,3.64,3.64,0,0,0-2.5.93c-.71.62-1.06,1.79-1.06,3.52v7.36Z"/><path d="M879,37.05V20.64h-6.09v-2.2h14.64v2.2h-6.11V37.05Z"/><path d="M890.37,37.05v-2.6H893v2.6a4.72,4.72,0,0,1-.5,2.32,3.29,3.29,0,0,1-1.6,1.36l-.64-1a2.12,2.12,0,0,0,1.06-.93,3.88,3.88,0,0,0,.38-1.77Z"/></svg>