<svg id="Capa_1" data-name="Capa 1" xmlns="http://www.w3.org/2000/svg" viewBox="0 0 779.89 105.65"><path d="M603.52,64.26q-6.22,0-6.22-7.87A27.34,27.34,0,0,1,600.94,43q3.63-6.59,9.22-6.58,5.85,0,5.85,7.71a28.28,28.28,0,0,1-3.55,13.48Q608.92,64.25,603.52,64.26Zm-2-13.56a33.27,33.27,0,0,0-1,7.41c0,3,1.12,4.51,3.37,4.51,1.61,0,3.07-1,4.4-3.15a29.2,29.2,0,0,0,3.3-8.77Zm.48-1.83h10a38.89,38.89,0,0,0,.76-6.37c0-3-1-4.43-3-4.43-1.51,0-2.94.93-4.29,2.81A25.75,25.75,0,0,0,602,48.87Z"/><path d="M74.5,50.89H55.6V47.61H74.5Zm0,8.69H55.6V56.3H74.5Z"/><path d="M394.41,50.39H375.5V47.11h18.91Zm0,8.69H375.5V55.8h18.91Z"/><path d="M643,51.56h-18.9V48.28H643Zm0,8.69h-18.9V57H643Z"/><path d="M100.8,46.1a9.32,9.32,0,0,0-.24-2.14,1.88,1.88,0,0,0-.66-1,2.2,2.2,0,0,0-1.29-.33,4.83,4.83,0,0,0-3.52,1.57,11.57,11.57,0,0,0-2.55,4.45,17,17,0,0,0-1,5.54,8.32,8.32,0,0,0,.14,1.54A3.43,3.43,0,0,0,92.2,57a2.47,2.47,0,0,0,1,.83,3.15,3.15,0,0,0,1.5.31,6.52,6.52,0,0,0,3.06-.68,11.35,11.35,0,0,0,2.72-2.12l1.18,1.19a12.69,12.69,0,0,1-3.67,3,8.65,8.65,0,0,1-4,.94,5.33,5.33,0,0,1-4.26-1.68,7.26,7.26,0,0,1-1.46-4.88A15.5,15.5,0,0,1,89,49.27a13.31,13.31,0,0,1,2.27-4.4A9.69,9.69,0,0,1,94.77,42,10,10,0,0,1,99,41.1a17.8,17.8,0,0,1,2.71.18,20,20,0,0,1,2.05.41l-1,4.41Z"/><path d="M111.68,60.42a6.24,6.24,0,0,1-4.67-1.7,6.72,6.72,0,0,1-1.65-4.88,15.07,15.07,0,0,1,.29-2.76,16.72,16.72,0,0,1,1-3.63A12.15,12.15,0,0,1,108.93,44a9.44,9.44,0,0,1,3.15-2.18,9.67,9.67,0,0,1,3.81-.76,7,7,0,0,1,3.65.86,5,5,0,0,1,2.07,2.34,8.61,8.61,0,0,1,.64,3.41,15.34,15.34,0,0,1-.49,3.71,15.22,15.22,0,0,1-2,4.9,9,9,0,0,1-3.36,3.06A10.13,10.13,0,0,1,111.68,60.42Zm-2.93-5.74a4.76,4.76,0,0,0,.88,3.17,3.32,3.32,0,0,0,2.67,1,4.36,4.36,0,0,0,3.37-1.72A12.32,12.32,0,0,0,118,52.34a20.69,20.69,0,0,0,.85-5.44,5.2,5.2,0,0,0-.81-3.17,3,3,0,0,0-2.54-1.06,4.54,4.54,0,0,0-3.52,1.7,12.12,12.12,0,0,0-2.37,4.86A21.39,21.39,0,0,0,108.75,54.68Z"/><path d="M136.68,46a4.37,4.37,0,0,0-1-2.55,3.32,3.32,0,0,0-2.44-.79,3.82,3.82,0,0,0-1.64.34A2.69,2.69,0,0,0,130,45.5a2.91,2.91,0,0,0,.3,1.32,4.58,4.58,0,0,0,1,1.24,16.82,16.82,0,0,0,1.93,1.48A9.1,9.1,0,0,1,135.84,52a5,5,0,0,1,.76,2.76,5.39,5.39,0,0,1-.87,3.11,5.33,5.33,0,0,1-2.39,1.91,9,9,0,0,1-3.41.62,18.85,18.85,0,0,1-3.19-.25,28.78,28.78,0,0,1-2.88-.65l.91-4.22h1.51a4.12,4.12,0,0,0,1,2.69,3.47,3.47,0,0,0,2.57.89,3.87,3.87,0,0,0,2.69-.87,2.93,2.93,0,0,0,1-2.3,3.59,3.59,0,0,0-.29-1.5,3.9,3.9,0,0,0-.91-1.27,13.5,13.5,0,0,0-1.76-1.39,13.94,13.94,0,0,1-2-1.58,5.34,5.34,0,0,1-1.17-1.63,4.53,4.53,0,0,1-.42-2,4.93,4.93,0,0,1,.79-2.81,5,5,0,0,1,2.26-1.82,8.64,8.64,0,0,1,3.43-.63,17.34,17.34,0,0,1,5.64.84l-.89,4Z"/><path d="M168.42,40.17a6.92,6.92,0,0,0-.17,1.29.85.85,0,0,0,.27.68,2,2,0,0,0,1,.36,13.62,13.62,0,0,0,2.08.15l-.27,1.25h-9.85l.25-1.25a17.43,17.43,0,0,0,1.92-.15,3.72,3.72,0,0,0,1.07-.31,1.77,1.77,0,0,0,.63-.55,3.18,3.18,0,0,0,.4-1.08l1.92-8.77c0-.17.06-.32.08-.44a2,2,0,0,0,0-.27.45.45,0,0,0-.15-.39.89.89,0,0,0-.43-.09,3.33,3.33,0,0,0-1.14.33c-.52.22-1.23.56-2.14,1l-.62-1.36,6.87-3.15h1.1q-.4,1.56-.81,3.42Z"/><path d="M197.66,54V51.72h14.72V54Z"/><path d="M144.81,38.19V35.93h14.72v2.26Z"/><path d="M24.34,52c5.3-6.71,6.21-7.28,10.33-6.38L34.18,48c-3.73.66-8.2,4.45-8.2,6.91,0,2.62,4.42,6.37,8.14,6.77l.58,2.27c-3.91,1.48-5.19.71-10.37-6.15a41.54,41.54,0,0,1-3.26,3.84c-3.5,3.27-8,2.31-10-2.06a11,11,0,0,1,.08-9.37c2.08-4.55,6.88-5.35,10.35-1.73C22.53,49.5,23.34,50.7,24.34,52ZM12.51,54.74c0,3.59,1.58,5.78,4.26,5.75,2.2,0,6.19-3.75,6.11-5.7s-4-5.43-6.06-5.5C14.23,49.2,12.54,51.33,12.51,54.74Z"/><path d="M356.56,49.85c5.3-6.71,6.21-7.28,10.33-6.38l-.49,2.42c-3.73.66-8.2,4.45-8.2,6.91,0,2.62,4.42,6.37,8.14,6.77l.58,2.27c-3.91,1.48-5.19.71-10.37-6.15a41.54,41.54,0,0,1-3.26,3.84c-3.5,3.27-8,2.31-10-2.06a11,11,0,0,1,.08-9.37c2.08-4.55,6.88-5.35,10.35-1.73C354.75,47.4,355.56,48.6,356.56,49.85Zm-11.83,2.79c0,3.59,1.58,5.77,4.26,5.75,2.2,0,6.19-3.75,6.11-5.7s-4-5.43-6.06-5.5C346.45,47.1,344.77,49.22,344.73,52.64Z"/><path d="M271.74,19.07,256.11,44.93h-2.89l.23-1.09,14.12-22.15.06-.29h-8.05a4.69,4.69,0,0,0-1.54.21,2.52,2.52,0,0,0-1,.75,8.23,8.23,0,0,0-1.05,2.1h-1.78l1.57-6.32H272Z"/><path d="M244.87,87.81a6.37,6.37,0,0,0,1.12-.08,2.35,2.35,0,0,0,.65-.22,2.76,2.76,0,0,0,.52-.44,3.56,3.56,0,0,0,.49-.69c.15-.26.34-.64.58-1.15H250l-1.44,5.7h-15.2l.19-.93a28.75,28.75,0,0,1,2.94-4.26,58.8,58.8,0,0,1,4.92-5.2Q244,78.07,245,77a27.86,27.86,0,0,0,2.69-3.11A9.88,9.88,0,0,0,249,71.48a7,7,0,0,0,.39-2.3,3.35,3.35,0,0,0-.92-2.53,3.61,3.61,0,0,0-2.63-.89,4.68,4.68,0,0,0-2.86.95A6.73,6.73,0,0,0,241,69.43h-2.5l.84-3.75a26.18,26.18,0,0,1,4.06-1.3A17,17,0,0,1,247.1,64a7.76,7.76,0,0,1,3.29.64,4.67,4.67,0,0,1,2.09,1.75,4.58,4.58,0,0,1,.71,2.47,8,8,0,0,1-.31,2.32,8.45,8.45,0,0,1-1,2.08,21.44,21.44,0,0,1-2.5,3c-1,1-2.67,2.58-5,4.66a51.63,51.63,0,0,0-6.73,6.94Z"/><path d="M262.71,75.91a11.21,11.21,0,0,1,3.86-.64A7.14,7.14,0,0,1,270,76a5.23,5.23,0,0,1,2.19,2.18,6.91,6.91,0,0,1,.75,3.29,11.37,11.37,0,0,1-1.15,5,7.64,7.64,0,0,1-3.39,3.59,11.59,11.59,0,0,1-5.46,1.19,18.58,18.58,0,0,1-3.58-.38,16.4,16.4,0,0,1-3.42-1l.89-4.14H259q.12,3.87,4,3.87a5.38,5.38,0,0,0,3.47-1.1,6.69,6.69,0,0,0,2.08-3,10.83,10.83,0,0,0,.7-3.77,4.81,4.81,0,0,0-1-3.34,3.93,3.93,0,0,0-3-1.15,12.39,12.39,0,0,0-1.69.1,11.26,11.26,0,0,0-1.82.41L260,76.52l2.69-12.25h9.68a3.2,3.2,0,0,0,1-.1,1.24,1.24,0,0,0,.51-.37,3,3,0,0,0,.45-.82h1.57l-1.24,4.54H264.56Z"/><path d="M423.25,56.56a12.57,12.57,0,0,0-.37,2.41,1.51,1.51,0,0,0,.43,1.16,2.74,2.74,0,0,0,1.38.56,19.12,19.12,0,0,0,2.87.19l-.37,1.78H411.25l.36-1.78a27.77,27.77,0,0,0,3-.27,3.36,3.36,0,0,0,1.43-.55,2.74,2.74,0,0,0,.81-1,10.53,10.53,0,0,0,.66-2.19l2.79-12.76a7.9,7.9,0,0,0,.21-1.58,1.17,1.17,0,0,0-.23-.82.81.81,0,0,0-.64-.25,2.74,2.74,0,0,0-.85.14,7.61,7.61,0,0,0-1.13.5c-.44.23-1.31.72-2.61,1.45l-1-2,11.15-5.84h2.64c-.37,1.38-.77,3.12-1.21,5.2Z"/><path d="M440.8,63a6.17,6.17,0,0,1-5-2.08Q434,58.81,434,54.79a28.08,28.08,0,0,1,.72-5.88,25.62,25.62,0,0,1,1.94-5.82A15.51,15.51,0,0,1,439.51,39a10.74,10.74,0,0,1,3.5-2.46,10.11,10.11,0,0,1,4-.81,7.15,7.15,0,0,1,4,1,5.57,5.57,0,0,1,2.2,2.81,12.71,12.71,0,0,1,.67,4.41,27.3,27.3,0,0,1-.48,4.72,33.79,33.79,0,0,1-1.2,4.77,20.26,20.26,0,0,1-1.8,3.85,13.32,13.32,0,0,1-2.53,3.06A10.32,10.32,0,0,1,440.8,63Zm-1.65-5.1a3.9,3.9,0,0,0,.49,2.23,1.82,1.82,0,0,0,1.59.68,2.35,2.35,0,0,0,1.45-.55,8.34,8.34,0,0,0,2.25-3.16,42.69,42.69,0,0,0,2.54-7.91,36.09,36.09,0,0,0,1.18-7.87,8.14,8.14,0,0,0-.17-1.88,2.22,2.22,0,0,0-.62-1.13,1.78,1.78,0,0,0-1.24-.41,2.67,2.67,0,0,0-1.79.82,13.17,13.17,0,0,0-2.81,5A53.84,53.84,0,0,0,439.85,52,34.47,34.47,0,0,0,439.15,57.87Z"/><path d="M476,37l-.26,1.21a12.61,12.61,0,0,0-9,4.61,18.49,18.49,0,0,0-2.84,4.83l.19.07a14,14,0,0,1,2.74-1,11.35,11.35,0,0,1,2.53-.27,6.29,6.29,0,0,1,3.33.84,5.28,5.28,0,0,1,2.08,2.33,7.74,7.74,0,0,1,.7,3.36,10.92,10.92,0,0,1-1.18,5,8.42,8.42,0,0,1-3.55,3.66,11.65,11.65,0,0,1-5.7,1.31,8.5,8.5,0,0,1-4.28-1,6.31,6.31,0,0,1-2.65-2.91,10.67,10.67,0,0,1-.9-4.59,20.16,20.16,0,0,1,.67-5.08,18.07,18.07,0,0,1,2.25-5.07A17.84,17.84,0,0,1,464.11,40a19.64,19.64,0,0,1,5.26-3,20.31,20.31,0,0,1,6-1.3Zm-6.11,16q0-3.85-2.7-3.85a5.72,5.72,0,0,0-1.53.2,5,5,0,0,0-1.34.6,3.17,3.17,0,0,0-.85.78,4.2,4.2,0,0,0-.58,1.14,11.67,11.67,0,0,0-.49,2.13,16.49,16.49,0,0,0-.19,2.44,6.19,6.19,0,0,0,.69,3.28,2.45,2.45,0,0,0,2.22,1.07,3.56,3.56,0,0,0,2.46-1A6.45,6.45,0,0,0,469.31,57,12.74,12.74,0,0,0,469.93,53Z"/><path d="M483.74,56.76c0,.83-.08,1.59-.16,2.28a13.58,13.58,0,0,1-.38,2,7.51,7.51,0,0,1-.69,1.76,8.54,8.54,0,0,1-1.33,1.76,21.1,21.1,0,0,1-2.06,1.89,30.34,30.34,0,0,1-2.71,1.91l-1.32-1.84a9.73,9.73,0,0,0,2.24-2.25,9.46,9.46,0,0,0,1.29-3.13,27.27,27.27,0,0,0,.64-4.4Z"/><path d="M499.41,57.87a6.91,6.91,0,0,0,1.56-.14,2.08,2.08,0,0,0,.94-.55,5.15,5.15,0,0,0,.85-1.52h2.37l-1.73,7H486.32l.27-1.29a27.5,27.5,0,0,1,2.81-3.91,67.3,67.3,0,0,1,5-5.19,59.45,59.45,0,0,0,4.43-4.56,15.85,15.85,0,0,0,2.25-3.41,8,8,0,0,0,.77-3.4,3.31,3.31,0,0,0-.74-2.26,2.52,2.52,0,0,0-2-.83,3.82,3.82,0,0,0-2.71,1.08,8.62,8.62,0,0,0-2,3.3h-3.53L492,37.5A38.34,38.34,0,0,1,497,36.09a21.09,21.09,0,0,1,4-.39,10,10,0,0,1,3.88.66,4.66,4.66,0,0,1,2.28,1.77,4.53,4.53,0,0,1,.72,2.52,7.24,7.24,0,0,1-.42,2.47A9.49,9.49,0,0,1,506,45.54a23.54,23.54,0,0,1-2.66,2.81q-1.68,1.56-4.68,4c-.95.78-2,1.68-3.06,2.7s-2,1.88-2.6,2.6l0,.19Z"/><path d="M530.47,37l-.25,1.21a12.61,12.61,0,0,0-9,4.61,19.06,19.06,0,0,0-2.84,4.83l.2.07a13.74,13.74,0,0,1,2.74-1,11.28,11.28,0,0,1,2.53-.27,6.34,6.34,0,0,1,3.33.84,5.28,5.28,0,0,1,2.08,2.33A7.74,7.74,0,0,1,530,53a11,11,0,0,1-1.18,5,8.47,8.47,0,0,1-3.55,3.66,11.65,11.65,0,0,1-5.7,1.31,8.47,8.47,0,0,1-4.28-1,6.33,6.33,0,0,1-2.66-2.91,10.67,10.67,0,0,1-.9-4.59,20.18,20.18,0,0,1,.68-5.08,17.52,17.52,0,0,1,2.25-5.07A17.84,17.84,0,0,1,518.55,40a19.43,19.43,0,0,1,5.25-3,20.45,20.45,0,0,1,6-1.3Zm-6.11,16c0-2.57-.89-3.85-2.69-3.85a5.61,5.61,0,0,0-1.53.2,5,5,0,0,0-1.34.6,3.21,3.21,0,0,0-.86.78,4.51,4.51,0,0,0-.58,1.14,12.67,12.67,0,0,0-.48,2.13,16.57,16.57,0,0,0-.2,2.44,6.19,6.19,0,0,0,.69,3.28,2.45,2.45,0,0,0,2.22,1.07,3.59,3.59,0,0,0,2.47-1A6.35,6.35,0,0,0,523.74,57,12.46,12.46,0,0,0,524.36,53Z"/><path d="M541.72,47.75A6.07,6.07,0,0,1,538.6,47a5.42,5.42,0,0,1-2.07-2.15,6.7,6.7,0,0,1-.72-3.14,6.28,6.28,0,0,1,.76-3.11,5.31,5.31,0,0,1,2.16-2.12,6.56,6.56,0,0,1,3.18-.77,6.32,6.32,0,0,1,3.14.77,5.28,5.28,0,0,1,2.11,2.13,6.43,6.43,0,0,1,.75,3.12,6.09,6.09,0,0,1-.81,3.14A5.47,5.47,0,0,1,544.88,47,6.53,6.53,0,0,1,541.72,47.75Zm.12-9.55a3.56,3.56,0,0,0-1.74.43,3,3,0,0,0-1.19,1.24,3.8,3.8,0,0,0-.43,1.83,3.86,3.86,0,0,0,.43,1.85,3.05,3.05,0,0,0,1.19,1.25,3.78,3.78,0,0,0,3.52,0,3,3,0,0,0,1.19-1.25,3.93,3.93,0,0,0,.42-1.84,3.81,3.81,0,0,0-.42-1.81,3,3,0,0,0-1.19-1.24A3.49,3.49,0,0,0,541.84,38.2Z"/><path d="M649.24,62.73l1-4.76h3.14a4.59,4.59,0,0,0,1,3.05,3.36,3.36,0,0,0,2.64,1,4.36,4.36,0,0,0,2.87-1,6.12,6.12,0,0,0,1.81-2.72,10.09,10.09,0,0,0,.62-3.33,4.18,4.18,0,0,0-.92-2.93,3.51,3.51,0,0,0-2.75-1,10,10,0,0,0-1.83.16,11.34,11.34,0,0,0-1.83.49l-1.63-1.23,2.87-13.25h10.22a3.75,3.75,0,0,0,1-.1,1.64,1.64,0,0,0,.56-.32,5.19,5.19,0,0,0,.64-.86h2L669,42.23H658.3l-1.55,7a14.57,14.57,0,0,1,4.58-.67,8.3,8.3,0,0,1,3.53.71,5.25,5.25,0,0,1,2.33,2.06,6.13,6.13,0,0,1,.83,3.25,10.57,10.57,0,0,1-1,4.51,8.31,8.31,0,0,1-1.51,2.21,8.2,8.2,0,0,1-2.1,1.56,10.71,10.71,0,0,1-3,1.07,18.08,18.08,0,0,1-3.46.32,21.7,21.7,0,0,1-4.14-.42A15.05,15.05,0,0,1,649.24,62.73Z"/><path d="M675.62,43.48l1.1-4.67a34,34,0,0,1,4.76-1.39,21.59,21.59,0,0,1,4.36-.45,9.88,9.88,0,0,1,3.41.54,5,5,0,0,1,2.33,1.68,4.6,4.6,0,0,1,.85,2.84,6.46,6.46,0,0,1-.55,2.73,7.31,7.31,0,0,1-1.52,2.15,10.54,10.54,0,0,1-2.29,1.69,18.52,18.52,0,0,1-2.85,1.28l0,.26a6.53,6.53,0,0,1,3.49,2.06A5.21,5.21,0,0,1,690,55.7a8.28,8.28,0,0,1-.67,3.35,7.74,7.74,0,0,1-2.09,2.81,8.71,8.71,0,0,1-3.41,1.83,17.7,17.7,0,0,1-4.84.57,20.32,20.32,0,0,1-4.07-.44,17.34,17.34,0,0,1-3.56-1.09l1-4.74h3.1c.13,2.72,1.32,4.08,3.55,4.08a4.28,4.28,0,0,0,2.71-.91,5.72,5.72,0,0,0,1.8-2.46,8.34,8.34,0,0,0,.63-3.17A3.78,3.78,0,0,0,683,52.48a5.19,5.19,0,0,0-3.42-1h-1.73l.48-2.22a10.93,10.93,0,0,0,4.31-.94,7.14,7.14,0,0,0,3-2.52,6.81,6.81,0,0,0,1.11-3.91,2.9,2.9,0,0,0-.71-2.08,2.71,2.71,0,0,0-2-.73,5.18,5.18,0,0,0-1.28.17,3.61,3.61,0,0,0-1.3.65,5.77,5.77,0,0,0-1.23,1.34,10.45,10.45,0,0,0-1.08,2.22Z"/><path d="M699.84,58.05q0,1.25-.15,2.28a14.57,14.57,0,0,1-.38,2,8.81,8.81,0,0,1-.69,1.77,8.91,8.91,0,0,1-1.34,1.76,20,20,0,0,1-2.06,1.88,28.91,28.91,0,0,1-2.71,1.92l-1.32-1.84a9.73,9.73,0,0,0,2.24-2.25,9.46,9.46,0,0,0,1.29-3.13,27.27,27.27,0,0,0,.64-4.4Z"/><path d="M716.54,57.85a12.61,12.61,0,0,0-.37,2.4,1.52,1.52,0,0,0,.43,1.17A2.7,2.7,0,0,0,718,62a20.41,20.41,0,0,0,2.86.19l-.37,1.77H704.53l.37-1.77a24.92,24.92,0,0,0,3-.28,3.48,3.48,0,0,0,1.43-.54,2.83,2.83,0,0,0,.81-1,11.85,11.85,0,0,0,.66-2.2l2.79-12.75a7.9,7.9,0,0,0,.21-1.58,1.22,1.22,0,0,0-.23-.82.84.84,0,0,0-.64-.26,2.77,2.77,0,0,0-.85.15,6.69,6.69,0,0,0-1.13.5c-.44.23-1.31.71-2.62,1.44l-1-2L718.53,37h2.64q-.54,2.07-1.2,5.2Z"/><path d="M730.05,43.48l1.11-4.67a34,34,0,0,1,4.76-1.39,21.57,21.57,0,0,1,4.35-.45,9.94,9.94,0,0,1,3.42.54A5,5,0,0,1,746,39.19a4.67,4.67,0,0,1,.85,2.84,6.47,6.47,0,0,1-.56,2.73,7,7,0,0,1-1.52,2.15,10.3,10.3,0,0,1-2.29,1.69,17.7,17.7,0,0,1-2.85,1.28l0,.26a6.56,6.56,0,0,1,3.5,2.06,5.21,5.21,0,0,1,1.28,3.5,8.45,8.45,0,0,1-.67,3.35,7.89,7.89,0,0,1-2.1,2.81,8.67,8.67,0,0,1-3.4,1.83,17.77,17.77,0,0,1-4.85.57,20.22,20.22,0,0,1-4.06-.44,17.15,17.15,0,0,1-3.56-1.09l1-4.74h3.1q.2,4.08,3.55,4.08a4.26,4.26,0,0,0,2.7-.91,5.66,5.66,0,0,0,1.81-2.46,8.34,8.34,0,0,0,.63-3.17,3.78,3.78,0,0,0-1.16-3.05,5.19,5.19,0,0,0-3.42-1h-1.72l.48-2.22a11,11,0,0,0,4.31-.94,7.2,7.2,0,0,0,3-2.52,6.81,6.81,0,0,0,1.11-3.91,2.9,2.9,0,0,0-.71-2.08,2.74,2.74,0,0,0-2-.73,5.3,5.3,0,0,0-1.28.17,3.69,3.69,0,0,0-1.3.65,6,6,0,0,0-1.22,1.34,10.43,10.43,0,0,0-1.09,2.22Z"/><path d="M757.82,49a6.07,6.07,0,0,1-3.12-.78,5.29,5.29,0,0,1-2.06-2.16,6.51,6.51,0,0,1-.73-3.13,6.16,6.16,0,0,1,.77-3.11,5.4,5.4,0,0,1,2.16-2.13A6.61,6.61,0,0,1,758,37a6.42,6.42,0,0,1,3.13.76,5.24,5.24,0,0,1,2.11,2.14A6.43,6.43,0,0,1,764,43a6.19,6.19,0,0,1-.8,3.14A5.56,5.56,0,0,1,761,48.28,6.51,6.51,0,0,1,757.82,49Zm.12-9.55a3.59,3.59,0,0,0-1.74.43A3,3,0,0,0,755,41.16a4.22,4.22,0,0,0,0,3.67,3.05,3.05,0,0,0,1.19,1.25,3.39,3.39,0,0,0,1.74.44,3.53,3.53,0,0,0,1.79-.45,3.05,3.05,0,0,0,1.19-1.25,4,4,0,0,0,.41-1.83,3.92,3.92,0,0,0-.41-1.81,3.09,3.09,0,0,0-1.19-1.24A3.53,3.53,0,0,0,757.94,39.49Z"/><path d="M196.2,97.32a6.81,6.81,0,0,1-5.38-2.38,17.12,17.12,0,0,1-3.25-7.27A79.39,79.39,0,0,1,185.89,75q-.52-7.82-.53-21.17t.52-21.15a81.28,81.28,0,0,1,1.67-12.83,17.87,17.87,0,0,1,3.26-7.44,6.74,6.74,0,0,1,5.39-2.47v3.83a5.06,5.06,0,0,0-2.4.56,5.18,5.18,0,0,0-2,2.52,23.44,23.44,0,0,0-1.51,5.75,109.47,109.47,0,0,0-1,11.41q-.34,7.53-.35,19.44,0,10.51.29,17.88t1,12a30.54,30.54,0,0,0,1.36,6.12,8.05,8.05,0,0,0,1.71,2.9,4.08,4.08,0,0,0,3,1.12Z"/><path d="M287.56,9.92a6.82,6.82,0,0,1,5.38,2.38,17.06,17.06,0,0,1,3.25,7.27,80.22,80.22,0,0,1,1.68,12.69q.53,7.8.53,21.17t-.52,21.15a81.44,81.44,0,0,1-1.67,12.83A18,18,0,0,1,293,94.84a6.73,6.73,0,0,1-5.39,2.48V93.49a5.06,5.06,0,0,0,2.4-.56,5.17,5.17,0,0,0,2-2.53,23.19,23.19,0,0,0,1.51-5.75,109,109,0,0,0,1-11.4q.35-7.53.35-19.44,0-10.53-.29-17.88t-1-12a30.92,30.92,0,0,0-1.36-6.12,8,8,0,0,0-1.71-2.9,4,4,0,0,0-3-1.12Z"/><line x1="223.87" y1="52.93" x2="283.1" y2="54.31" style="fill:none;stroke:#000;stroke-miterlimit:10;stroke-width:2px"/></svg>