<svg id="Capa_1" data-name="Capa 1" xmlns="http://www.w3.org/2000/svg" viewBox="0 0 777.63 91.15"><path d="M108.3,42.73H90.81v-3H108.3Zm0,8H90.81v-3H108.3Z"/><path d="M325.83,42.73H308.34v-3h17.49Zm0,8H308.34v-3h17.49Z"/><path d="M479,40.05H461.53V37H479Zm0,8H461.53v-3H479Z"/><polyline points="336.44 44.86 355.2 62.01 365.75 13.78 463.9 13.78" style="fill:none;stroke:#000;stroke-miterlimit:10;stroke-width:1.8450843403395534px"/><polyline points="489.63 48.42 508.39 65.56 518.94 17.34 767.67 17.34" style="fill:none;stroke:#000;stroke-miterlimit:10;stroke-width:1.8450843403395534px"/><path d="M133,11.24l-.21.95a2.48,2.48,0,0,0-1.33.51,2.2,2.2,0,0,0-.67,1.14,8,8,0,0,0-.19,2c0,.26,0,.53,0,.82l.58,15.23v1.56h.19l8.4-15.25a19,19,0,0,0,1.1-2.31,4.85,4.85,0,0,0,.37-1.71,1.84,1.84,0,0,0-.45-1.28,2.59,2.59,0,0,0-1.49-.68l.22-.95h7.93l-.22.95a2.56,2.56,0,0,0-1,.4,5.18,5.18,0,0,0-1.07,1.08,26.45,26.45,0,0,0-1.83,2.9L131,38.21h-2.58l-1.3-21.78a14.76,14.76,0,0,0-.28-2.18,3.3,3.3,0,0,0-.64-1.41,2.22,2.22,0,0,0-1.39-.65l.21-.95Z"/><path d="M155.19,19.5a2.75,2.75,0,0,0,1-.15,1.61,1.61,0,0,0,.63-.48,4.59,4.59,0,0,0,.62-1H159l-1,3.87H147.1l.19-.9A24.9,24.9,0,0,1,152.7,15l1.75-1.47a20.65,20.65,0,0,0,1.86-1.72,6.88,6.88,0,0,0,.95-1.21,4,4,0,0,0,.47-1.05,4.21,4.21,0,0,0,.13-1.08,1.71,1.71,0,0,0-.63-1.41,2.73,2.73,0,0,0-1.79-.52,3.27,3.27,0,0,0-2,.6,4.5,4.5,0,0,0-1.32,1.68h-2l.58-2.65a16.78,16.78,0,0,1,5.52-1.08,6.27,6.27,0,0,1,2,.29,4.16,4.16,0,0,1,1.39.74,3,3,0,0,1,.79,1,2.76,2.76,0,0,1,.25,1.14,4.78,4.78,0,0,1-.42,2.07,7.85,7.85,0,0,1-1.57,2q-1.16,1.11-3.82,3.19a34.32,34.32,0,0,0-4.33,3.95Z"/><path d="M136.81,68a5.71,5.71,0,0,1,1.5,1.68,8.94,8.94,0,0,1,.92,2.72l.45,2.26c.09.47.19.91.3,1.31a9.85,9.85,0,0,0,.38,1.16,3.48,3.48,0,0,0,.49.89,2.64,2.64,0,0,0,.56.55,2.55,2.55,0,0,0,.68.34,6.19,6.19,0,0,0,1,.23l-.19,1h-5.38a30.47,30.47,0,0,1-1.1-4.14l-.86-4.14A9.65,9.65,0,0,0,135,70a3.29,3.29,0,0,0-.72-1.14,2,2,0,0,0-1-.52,5.67,5.67,0,0,0-1.34-.13h-2.21l-1.36,6.19c-.12.51-.2.91-.24,1.21s-.09.62-.12.95-.05.63-.05.89a1.88,1.88,0,0,0,.2.94,1.06,1.06,0,0,0,.58.5,5.12,5.12,0,0,0,1.33.24l-.21,1h-8l.22-1a2.55,2.55,0,0,0,1.1-.39,2,2,0,0,0,.62-.73,7,7,0,0,0,.47-1.14c.14-.45.35-1.32.64-2.61l3.29-15a15.08,15.08,0,0,0,.43-3.09,1.65,1.65,0,0,0-.45-1.33,2.47,2.47,0,0,0-1.45-.43l.21-1h8.63a19.18,19.18,0,0,1,3.36.24,8,8,0,0,1,2.22.73,5.13,5.13,0,0,1,1.54,1.26,5.5,5.5,0,0,1,.93,1.74,6.58,6.58,0,0,1,.31,2.06,7.48,7.48,0,0,1-2.13,5.45,9.41,9.41,0,0,1-2.3,1.72,15.59,15.59,0,0,1-2.76,1.15Zm-4.39-1.46a12.39,12.39,0,0,0,3.51-.42,5.91,5.91,0,0,0,2.33-1.28,6.52,6.52,0,0,0,1.53-2.26,7.72,7.72,0,0,0,.6-3,6.8,6.8,0,0,0-.15-1.5,4.2,4.2,0,0,0-.41-1.08,2.91,2.91,0,0,0-.64-.76,3.89,3.89,0,0,0-1-.58,5.54,5.54,0,0,0-1.35-.35,15.91,15.91,0,0,0-2.08-.11c-.69,0-1.41,0-2.17.08l-2.49,11.31Z"/><path d="M201.76,37.76V38c0,.09,0,.19,0,.29a13.93,13.93,0,0,1,3.35-3.55,6,6,0,0,1,3.45-1.16,3.6,3.6,0,0,1,2.8,1.05,4.43,4.43,0,0,1,1,3.09,14.09,14.09,0,0,1-.38,3l-1.63,6.95A10.38,10.38,0,0,0,210,50a1.83,1.83,0,0,0,.19.92,1.27,1.27,0,0,0,.6.51,5.58,5.58,0,0,0,1.34.27l-.17,1h-6.09l2.44-9.92c.18-.72.34-1.45.48-2.18a11.65,11.65,0,0,0,.2-2,3.26,3.26,0,0,0-.48-2,1.9,1.9,0,0,0-1.54-.59,3.17,3.17,0,0,0-1.69.62,9,9,0,0,0-2,1.92A15.1,15.1,0,0,0,201.59,41a12.51,12.51,0,0,0-1,3.07l-1.76,8.54h-3.36l2.23-9.92c.28-1.22.46-2.11.56-2.69a10.06,10.06,0,0,0,.14-1.49,3.19,3.19,0,0,0-.49-2,1.92,1.92,0,0,0-1.54-.59,3.17,3.17,0,0,0-1.72.63,9.37,9.37,0,0,0-2,2,14.61,14.61,0,0,0-1.68,2.6,12.35,12.35,0,0,0-1,3l-1.77,8.46h-3.35l2.94-13.34c.07-.3.16-.74.27-1.33a8.13,8.13,0,0,0,.16-1.46,1.79,1.79,0,0,0-.16-.85.94.94,0,0,0-.57-.45,5.08,5.08,0,0,0-1.34-.21l.23-1,4.42-.18h1.09l-1.28,5.06.23.08a15.64,15.64,0,0,1,3.55-4,6,6,0,0,1,3.56-1.3,3.65,3.65,0,0,1,2.84,1.07A4.43,4.43,0,0,1,201.76,37.76Z"/><path d="M288,25.58l-.21,1a2.33,2.33,0,0,0-1.33.51,2.23,2.23,0,0,0-.67,1.14,7.93,7.93,0,0,0-.19,2c0,.26,0,.54,0,.82l.58,15.24v1.56h.2l8.39-15.26a20.1,20.1,0,0,0,1.11-2.31,5,5,0,0,0,.36-1.71,1.84,1.84,0,0,0-.45-1.28,2.56,2.56,0,0,0-1.48-.67l.21-1h7.93l-.21,1a2.27,2.27,0,0,0-1,.4A5.08,5.08,0,0,0,300.14,28a30,30,0,0,0-1.83,2.9L285.9,52.55h-2.58L282,30.78a13.23,13.23,0,0,0-.28-2.18,3.29,3.29,0,0,0-.64-1.42,2.14,2.14,0,0,0-1.39-.64l.22-1Z"/><line x1="117.72" y1="45.15" x2="172.6" y2="45.15" style="fill:none;stroke:#000;stroke-miterlimit:10;stroke-width:2px"/><path d="M13.78,35.38h5.35L17,44.08c-.16.64-.29,1.27-.41,1.91a9.33,9.33,0,0,0-.18,1.73,2.89,2.89,0,0,0,.41,1.74,1.53,1.53,0,0,0,1.3.53,2.86,2.86,0,0,0,1.58-.57,8.07,8.07,0,0,0,1.8-1.78A14.32,14.32,0,0,0,23,45.36a10.24,10.24,0,0,0,.86-2.56l1.54-7.42h2.94L25.73,47.05c-.07.31-.15.72-.24,1.22a7.14,7.14,0,0,0-.13,1.23,1.19,1.19,0,0,0,.39,1,2.89,2.89,0,0,0,1.49.37l-.19.84H22.2l1.08-4.29-.22-.07a14.84,14.84,0,0,1-3.18,3.5A5.19,5.19,0,0,1,16.79,52a3.25,3.25,0,0,1-2.5-.91,3.88,3.88,0,0,1-.85-2.71,8.27,8.27,0,0,1,.1-1.21c.06-.46.15-.94.26-1.44l1.42-6.07c.12-.5.19-.9.23-1.19a5.86,5.86,0,0,0,.06-.75,1.26,1.26,0,0,0-.4-1.08,2.85,2.85,0,0,0-1.46-.39Z"/><path d="M33.94,47.75l-.86,4H29.85l.87-4Z"/><path d="M53,38.73V39c0,.08,0,.16,0,.26a12.34,12.34,0,0,1,2.94-3.11,5.19,5.19,0,0,1,3-1,3.16,3.16,0,0,1,2.45.91,3.88,3.88,0,0,1,.84,2.71,12.22,12.22,0,0,1-.34,2.63l-1.42,6.09a8.63,8.63,0,0,0-.29,1.94,1.55,1.55,0,0,0,.17.81,1.08,1.08,0,0,0,.52.44,4.65,4.65,0,0,0,1.17.24l-.15.84H56.54L58.68,43c.16-.63.3-1.26.42-1.91a9.55,9.55,0,0,0,.17-1.75,2.83,2.83,0,0,0-.42-1.75,1.62,1.62,0,0,0-1.34-.52,2.81,2.81,0,0,0-1.49.54,8.35,8.35,0,0,0-1.72,1.68,12.68,12.68,0,0,0-1.46,2.23,10.45,10.45,0,0,0-.91,2.69l-1.55,7.47H47.45L49.4,43c.24-1.06.4-1.85.48-2.35A7.59,7.59,0,0,0,50,39.38a2.76,2.76,0,0,0-.43-1.75,1.65,1.65,0,0,0-1.35-.52,2.72,2.72,0,0,0-1.5.55A8.2,8.2,0,0,0,45,39.38a13.24,13.24,0,0,0-1.47,2.28,10.94,10.94,0,0,0-.86,2.66l-1.54,7.4H38.18l2.58-11.67c.06-.27.14-.65.23-1.17a6.9,6.9,0,0,0,.15-1.28,1.51,1.51,0,0,0-.15-.74.82.82,0,0,0-.49-.39,4.27,4.27,0,0,0-1.18-.18l.2-.91,3.87-.15h1l-1.12,4.42.21.07a13.77,13.77,0,0,1,3.1-3.48,5.27,5.27,0,0,1,3.12-1.13,3.18,3.18,0,0,1,2.48.93A3.84,3.84,0,0,1,53,38.73Z"/><path d="M66.2,53.19a5.31,5.31,0,0,0-.55.78,3.08,3.08,0,0,0-.31.74,3.52,3.52,0,0,0-.09.85,2.08,2.08,0,0,0,.91,1.88,5.23,5.23,0,0,0,2.77.59,5.89,5.89,0,0,0,2.8-.6,5.13,5.13,0,0,0,1.9-1.84A13.67,13.67,0,0,0,75,52.53a44.42,44.42,0,0,0,1.19-4.86L76,47.62a15.29,15.29,0,0,1-3.06,3.31,5,5,0,0,1-3,1A3.33,3.33,0,0,1,67,50.57a6.62,6.62,0,0,1-1-4,14.39,14.39,0,0,1,.49-3.74,13.1,13.1,0,0,1,1.38-3.33,10.4,10.4,0,0,1,2-2.47,7.76,7.76,0,0,1,2.35-1.46,7.11,7.11,0,0,1,2.58-.48,7.76,7.76,0,0,1,2,.26,7.07,7.07,0,0,1,1.92.87l1.56-1.13,1.08.27-1.76,8c-.13.57-.25,1.21-.39,1.93l-.44,2.24c-.53,2.69-1,4.54-1.27,5.55A12.22,12.22,0,0,1,76.11,56a7.47,7.47,0,0,1-1.73,1.81A7.68,7.68,0,0,1,72.06,59a10.61,10.61,0,0,1-3.1.4c-4.27,0-6.41-1.26-6.41-3.76a2.83,2.83,0,0,1,.58-1.74A7.4,7.4,0,0,1,65,52.2ZM71.07,50a3,3,0,0,0,1.72-.6,8.58,8.58,0,0,0,1.83-1.9A13.67,13.67,0,0,0,76.14,45a16.89,16.89,0,0,0,1.31-6,2.81,2.81,0,0,0-.56-1.94A2.43,2.43,0,0,0,75,36.44a4.13,4.13,0,0,0-1.36.23,4.57,4.57,0,0,0-1.3.77,6.8,6.8,0,0,0-1.27,1.41A10.72,10.72,0,0,0,70,41a14.53,14.53,0,0,0-.76,2.67A14.25,14.25,0,0,0,69,46.42a5.44,5.44,0,0,0,.51,2.66A1.73,1.73,0,0,0,71.07,50Z"/><path d="M386.27,41.14a5,5,0,0,1,1.31,1.47,7.55,7.55,0,0,1,.81,2.38l.39,2c.08.41.17.79.26,1.14a10.16,10.16,0,0,0,.34,1,3.14,3.14,0,0,0,.43.78,2.47,2.47,0,0,0,.49.48,2.16,2.16,0,0,0,.59.29,5.22,5.22,0,0,0,.84.2l-.17.84h-4.7a27.66,27.66,0,0,1-1-3.62l-.74-3.63a9.9,9.9,0,0,0-.45-1.58,2.91,2.91,0,0,0-.63-1,1.77,1.77,0,0,0-.85-.46,5.57,5.57,0,0,0-1.18-.11h-1.93l-1.19,5.42q-.15.66-.21,1c0,.27-.08.54-.1.83a7.78,7.78,0,0,0-.05.78,1.74,1.74,0,0,0,.17.83,1.1,1.1,0,0,0,.51.44,4.4,4.4,0,0,0,1.17.2l-.18.84h-7l.19-.84a2.43,2.43,0,0,0,1-.33,2,2,0,0,0,.54-.64,6.45,6.45,0,0,0,.41-1c.12-.4.31-1.16.56-2.28l2.88-13.16a13.33,13.33,0,0,0,.37-2.7,1.47,1.47,0,0,0-.39-1.17,2.2,2.2,0,0,0-1.27-.37l.19-.84h7.55a16.77,16.77,0,0,1,2.94.21,7,7,0,0,1,1.94.65,4.38,4.38,0,0,1,1.35,1.1,4.63,4.63,0,0,1,.81,1.52,5.85,5.85,0,0,1,.27,1.8,6.6,6.6,0,0,1-1.86,4.77,8.37,8.37,0,0,1-2,1.5,13.58,13.58,0,0,1-2.42,1Zm-3.84-1.28a10.6,10.6,0,0,0,3.07-.37,5,5,0,0,0,2-1.12,5.71,5.71,0,0,0,1.34-2,6.73,6.73,0,0,0,.53-2.67,5.63,5.63,0,0,0-.14-1.3,3.25,3.25,0,0,0-.36-1,2.53,2.53,0,0,0-.56-.67,3.06,3.06,0,0,0-.84-.5,4.42,4.42,0,0,0-1.18-.31,14.24,14.24,0,0,0-1.83-.1c-.6,0-1.23,0-1.9.07l-2.17,9.9Z"/><path d="M397.21,47.75l-.86,4h-3.23l.87-4Z"/><path d="M402.57,35.38h5.35l-2.16,8.7c-.15.64-.29,1.27-.41,1.91a9.33,9.33,0,0,0-.18,1.73,2.81,2.81,0,0,0,.42,1.74,1.51,1.51,0,0,0,1.29.53,2.86,2.86,0,0,0,1.58-.57,8.07,8.07,0,0,0,1.8-1.78,14.32,14.32,0,0,0,1.5-2.28,9.85,9.85,0,0,0,.86-2.56l1.54-7.42h2.94l-2.58,11.67c-.07.31-.15.72-.24,1.22a7.14,7.14,0,0,0-.13,1.23,1.19,1.19,0,0,0,.39,1,2.92,2.92,0,0,0,1.49.37l-.19.84H411l1.09-4.29-.22-.07a15.07,15.07,0,0,1-3.19,3.5A5.19,5.19,0,0,1,405.58,52a3.25,3.25,0,0,1-2.5-.91,3.88,3.88,0,0,1-.85-2.71,10,10,0,0,1,.1-1.21c.06-.46.15-.94.26-1.44L404,39.65c.11-.5.18-.9.22-1.19a5.86,5.86,0,0,0,.06-.75,1.26,1.26,0,0,0-.4-1.08,2.82,2.82,0,0,0-1.46-.39Z"/><path d="M422.73,47.75l-.86,4h-3.23l.87-4Z"/><path d="M427.23,53.19a4.57,4.57,0,0,0-.54.78,2.77,2.77,0,0,0-.32.74,3.52,3.52,0,0,0-.09.85,2.08,2.08,0,0,0,.91,1.88A5.26,5.26,0,0,0,430,58a5.89,5.89,0,0,0,2.8-.6,5.13,5.13,0,0,0,1.9-1.84A13.67,13.67,0,0,0,436,52.53a44.42,44.42,0,0,0,1.19-4.86l-.23-.05a15.29,15.29,0,0,1-3.06,3.31,5,5,0,0,1-3,1,3.33,3.33,0,0,1-2.87-1.4,6.62,6.62,0,0,1-1-4,14.39,14.39,0,0,1,.49-3.74,13.1,13.1,0,0,1,1.38-3.33,10.4,10.4,0,0,1,2-2.47,7.76,7.76,0,0,1,2.35-1.46,7.11,7.11,0,0,1,2.58-.48,7.76,7.76,0,0,1,2,.26,7.07,7.07,0,0,1,1.92.87l1.56-1.13,1.08.27-1.76,8c-.12.57-.25,1.21-.39,1.93l-.44,2.24c-.53,2.69-1,4.54-1.27,5.55A12.22,12.22,0,0,1,437.14,56a7.47,7.47,0,0,1-1.73,1.81A7.68,7.68,0,0,1,433.09,59a10.61,10.61,0,0,1-3.1.4c-4.27,0-6.41-1.26-6.41-3.76a2.83,2.83,0,0,1,.58-1.74A7.4,7.4,0,0,1,426,52.2ZM432.1,50a3,3,0,0,0,1.72-.6,8.58,8.58,0,0,0,1.83-1.9A13.67,13.67,0,0,0,437.17,45a16.89,16.89,0,0,0,1.31-6,2.81,2.81,0,0,0-.56-1.94,2.43,2.43,0,0,0-1.87-.61,4.13,4.13,0,0,0-1.36.23,4.57,4.57,0,0,0-1.3.77,6.8,6.8,0,0,0-1.27,1.41A10.72,10.72,0,0,0,431,41a14.53,14.53,0,0,0-.76,2.67,14.25,14.25,0,0,0-.28,2.78,5.44,5.44,0,0,0,.51,2.66A1.73,1.73,0,0,0,432.1,50Z"/><path d="M530.94,36.6l.7-3.28a20.22,20.22,0,0,1,3.49-1.15,15,15,0,0,1,3.33-.35,8.23,8.23,0,0,1,2.08.25,5.49,5.49,0,0,1,1.73.79,3.86,3.86,0,0,1,1.17,1.36,4.18,4.18,0,0,1,.43,2,6.17,6.17,0,0,1-.61,2.8,6.53,6.53,0,0,1-2,2.24,15.51,15.51,0,0,1-3.72,2l0,.19a6,6,0,0,1,3.23,1.79,4.75,4.75,0,0,1,1.12,3.18,7.23,7.23,0,0,1-.62,2.86,6.76,6.76,0,0,1-1.72,2.44,7.44,7.44,0,0,1-2.72,1.53,12.31,12.31,0,0,1-3.79.52,16.87,16.87,0,0,1-3.34-.35,13.53,13.53,0,0,1-2.92-.86l.78-3.62h2a3.51,3.51,0,0,0,1,2.56,4,4,0,0,0,2.73.82,5.37,5.37,0,0,0,2.9-.75,5,5,0,0,0,1.88-2.21,7.66,7.66,0,0,0,.67-3.28,3.3,3.3,0,0,0-1.18-2.77,5.73,5.73,0,0,0-3.54-.92h-1.69l.32-1.5a12.15,12.15,0,0,0,3.63-.76,7.7,7.7,0,0,0,2.56-1.55,5.62,5.62,0,0,0,1.4-2,5.78,5.78,0,0,0,.42-2.14,2.86,2.86,0,0,0-.83-2.18,3.18,3.18,0,0,0-2.28-.79,4.31,4.31,0,0,0-2.68.8,6.37,6.37,0,0,0-1.8,2.41Z"/><path d="M551.93,42.28a9.71,9.71,0,0,1,3.38-.57,6.2,6.2,0,0,1,3,.67,4.51,4.51,0,0,1,1.91,1.91,5.88,5.88,0,0,1,.67,2.87,10,10,0,0,1-1,4.35,6.79,6.79,0,0,1-3,3.15,10.14,10.14,0,0,1-4.78,1,17,17,0,0,1-3.13-.32,15.5,15.5,0,0,1-3-.89l.78-3.62h2c.06,2.25,1.23,3.38,3.49,3.38a4.73,4.73,0,0,0,3-1,5.86,5.86,0,0,0,1.82-2.6,9.52,9.52,0,0,0,.61-3.29,4.24,4.24,0,0,0-.92-2.93,3.42,3.42,0,0,0-2.66-1,11.1,11.1,0,0,0-1.48.08,11.8,11.8,0,0,0-1.6.36l-1.44-1.09,2.36-10.72h8.47a2.87,2.87,0,0,0,.84-.09,1.17,1.17,0,0,0,.45-.32,3.22,3.22,0,0,0,.39-.72h1.37l-1.08,4h-8.83Z"/><path d="M585.43,39.73l-1.21,1.85-3.58-3.08L580,43.85h-2.36l1.63-5.35-4.48,3.14-1-2L579,37.41l-4.09-2.29,1.26-1.88,3.6,3.07.64-5.35h2.36l-1.61,5.35,4.43-3.13,1,2-5.17,2.24Z"/><path d="M600.06,55.69a5.61,5.61,0,0,1-2.7-.6,3.92,3.92,0,0,1-1.74-2,8.71,8.71,0,0,1-.62-3.61,24.53,24.53,0,0,1,.41-4.33,29.18,29.18,0,0,1,1.11-4.4A20.58,20.58,0,0,1,598.21,37a13,13,0,0,1,2.16-2.85,9.21,9.21,0,0,1,2.52-1.76,6.66,6.66,0,0,1,2.76-.6,5.73,5.73,0,0,1,2.37.44,4.08,4.08,0,0,1,1.56,1.24,5.11,5.11,0,0,1,.87,1.9,10.69,10.69,0,0,1,.26,2.42,27.05,27.05,0,0,1-1.08,7.44,21.53,21.53,0,0,1-2.74,6.24,10.07,10.07,0,0,1-3.31,3.24A6.94,6.94,0,0,1,600.06,55.69Zm-2.13-5.09a7.65,7.65,0,0,0,.24,2.16,2.05,2.05,0,0,0,.73,1.13,2.34,2.34,0,0,0,1.36.35A3.48,3.48,0,0,0,602.73,53,12,12,0,0,0,605,49.4a35,35,0,0,0,1.93-6.17,29.37,29.37,0,0,0,.87-6.49,5,5,0,0,0-.54-2.64,1.87,1.87,0,0,0-1.7-.83,3.09,3.09,0,0,0-1.46.38,5.2,5.2,0,0,0-1.68,1.52,14.38,14.38,0,0,0-1.87,3.38,33,33,0,0,0-1.37,4.26c-.3,1.16-.55,2.3-.75,3.41A23.24,23.24,0,0,0,597.93,50.6Z"/><path d="M615.67,51.45a10.8,10.8,0,0,1-.12,1.47,9.55,9.55,0,0,1-.37,1.64,7.18,7.18,0,0,1-.57,1.39,7.09,7.09,0,0,1-.84,1.23,10.5,10.5,0,0,1-1.38,1.37,20.23,20.23,0,0,1-2.24,1.64l-.78-1.06c.54-.46,1-.85,1.27-1.16a5.3,5.3,0,0,0,.73-1,5.85,5.85,0,0,0,.52-1.15,18.31,18.31,0,0,0,.5-1.89,22.86,22.86,0,0,0,.41-2.5Z"/><path d="M625.31,42.28a9.61,9.61,0,0,1,3.37-.57,6.2,6.2,0,0,1,3,.67,4.48,4.48,0,0,1,1.92,1.91,6,6,0,0,1,.66,2.87,10,10,0,0,1-1,4.35,6.69,6.69,0,0,1-3,3.15,10.14,10.14,0,0,1-4.78,1,17,17,0,0,1-3.13-.32,15.5,15.5,0,0,1-3-.89l.78-3.62h2c.07,2.25,1.23,3.38,3.5,3.38a4.7,4.7,0,0,0,3-1,5.78,5.78,0,0,0,1.82-2.6,9.29,9.29,0,0,0,.61-3.29,4.24,4.24,0,0,0-.92-2.93,3.42,3.42,0,0,0-2.66-1,11.2,11.2,0,0,0-1.48.08,11.38,11.38,0,0,0-1.59.36L623,42.81l2.36-10.72h8.46a2.78,2.78,0,0,0,.84-.09,1,1,0,0,0,.45-.32,2.57,2.57,0,0,0,.39-.72h1.38l-1.09,4h-8.82Z"/><path d="M646.41,52.68a6.12,6.12,0,0,0,1-.06,2.22,2.22,0,0,0,.57-.2,2.14,2.14,0,0,0,.46-.38,4.6,4.6,0,0,0,.43-.6c.13-.23.3-.57.5-1h1.58l-1.26,5h-13.3l.17-.82a24.83,24.83,0,0,1,2.57-3.73,51.91,51.91,0,0,1,4.3-4.54c1.52-1.45,2.56-2.47,3.14-3.08a22.92,22.92,0,0,0,2.36-2.72,8.34,8.34,0,0,0,1.15-2.13,6.12,6.12,0,0,0,.34-2,3,3,0,0,0-.8-2.21,3.19,3.19,0,0,0-2.3-.78,4.06,4.06,0,0,0-2.51.84A6,6,0,0,0,643,36.6h-2.19l.73-3.28a23.24,23.24,0,0,1,3.56-1.13,14.58,14.58,0,0,1,3.27-.37,6.87,6.87,0,0,1,2.87.55,4.12,4.12,0,0,1,1.83,1.54,3.94,3.94,0,0,1,.62,2.16,7.17,7.17,0,0,1-.27,2,7.1,7.1,0,0,1-.85,1.82,17.5,17.5,0,0,1-2.19,2.61q-1.32,1.35-4.36,4.09a45.87,45.87,0,0,0-5.88,6.06Z"/><path d="M659.4,36.6l.69-3.28a20.3,20.3,0,0,1,3.5-1.15,15,15,0,0,1,3.32-.35,8.31,8.31,0,0,1,2.09.25,5.33,5.33,0,0,1,1.72.79,3.86,3.86,0,0,1,1.17,1.36,4.18,4.18,0,0,1,.44,2,6.17,6.17,0,0,1-.62,2.8,6.39,6.39,0,0,1-2,2.24,15.41,15.41,0,0,1-3.73,2v.19a5.93,5.93,0,0,1,3.22,1.79,4.7,4.7,0,0,1,1.12,3.18,7.22,7.22,0,0,1-.61,2.86A6.88,6.88,0,0,1,668,53.64a7.41,7.41,0,0,1-2.73,1.53,12.2,12.2,0,0,1-3.78.52,16.79,16.79,0,0,1-3.34-.35,13.53,13.53,0,0,1-2.92-.86l.78-3.62h2a3.51,3.51,0,0,0,1,2.56,4,4,0,0,0,2.73.82,5.37,5.37,0,0,0,2.9-.75,4.93,4.93,0,0,0,1.87-2.21,7.66,7.66,0,0,0,.67-3.28A3.3,3.3,0,0,0,666,45.23a5.68,5.68,0,0,0-3.53-.92h-1.7l.32-1.5a12.15,12.15,0,0,0,3.63-.76,7.65,7.65,0,0,0,2.57-1.55,5.75,5.75,0,0,0,1.4-2,6,6,0,0,0,.41-2.14,2.86,2.86,0,0,0-.83-2.18,3.14,3.14,0,0,0-2.27-.79,4.31,4.31,0,0,0-2.68.8,6.17,6.17,0,0,0-1.8,2.41Z"/><path d="M695.52,39.73l-1.2,1.85-3.58-3.08-.66,5.35h-2.36l1.63-5.35-4.48,3.14-1-2,5.2-2.25L685,35.12l1.25-1.88,3.6,3.07.65-5.35h2.35l-1.61,5.35,4.43-3.13,1,2-5.18,2.24Z"/><path d="M716.43,44.4A10.42,10.42,0,0,1,714,45.62a8.2,8.2,0,0,1-2.56.4,5.27,5.27,0,0,1-2.74-.7,4.66,4.66,0,0,1-1.84-2,6.85,6.85,0,0,1-.63-3,11,11,0,0,1,.29-2.39,8.44,8.44,0,0,1,.94-2.35,7.69,7.69,0,0,1,1.63-1.94,7.25,7.25,0,0,1,2.34-1.32,8.56,8.56,0,0,1,2.92-.47,6.16,6.16,0,0,1,2.69.55,5.42,5.42,0,0,1,1.91,1.54,6.88,6.88,0,0,1,1.16,2.33,10.65,10.65,0,0,1,.39,3,19.49,19.49,0,0,1-.32,3.3,16.88,16.88,0,0,1-.84,3,18.48,18.48,0,0,1-1.37,2.87,15.87,15.87,0,0,1-1.83,2.48,16.35,16.35,0,0,1-2.18,2,14.17,14.17,0,0,1-2.44,1.48,14.46,14.46,0,0,1-2.7,1,13,13,0,0,1-2.8.39l-.63-.94.17-.84a13,13,0,0,0,5.07-1.34,10.47,10.47,0,0,0,3.59-3.1,17.19,17.19,0,0,0,2.41-5Zm-3.84-.11a5.79,5.79,0,0,0,2-.37,5.73,5.73,0,0,0,1.61-.89,3.52,3.52,0,0,0,.8-.8,3.86,3.86,0,0,0,.47-1.42,15.85,15.85,0,0,0,.15-2.43,6.5,6.5,0,0,0-.93-3.82A3.18,3.18,0,0,0,714,33.27a3.73,3.73,0,0,0-2.43.91,6,6,0,0,0-1.73,2.54,10.17,10.17,0,0,0-.62,3.59,4.65,4.65,0,0,0,.8,3A3.21,3.21,0,0,0,712.59,44.29Z"/><path d="M725.76,51.45a10.8,10.8,0,0,1-.12,1.47,10.59,10.59,0,0,1-.36,1.64,8.71,8.71,0,0,1-.57,1.39,8.42,8.42,0,0,1-.84,1.23,11.91,11.91,0,0,1-1.38,1.37,22.33,22.33,0,0,1-2.24,1.64l-.78-1.06c.54-.46,1-.85,1.26-1.16a5.37,5.37,0,0,0,.74-1,7.3,7.3,0,0,0,.52-1.15,18.31,18.31,0,0,0,.5-1.89,22.84,22.84,0,0,0,.4-2.5Z"/><path d="M741.86,43.3v.22a4.48,4.48,0,0,1,2.72,4.35,8.68,8.68,0,0,1-.17,1.55,8,8,0,0,1-.75,2.26A6.8,6.8,0,0,1,742,53.8a8.17,8.17,0,0,1-2.58,1.39,10.77,10.77,0,0,1-3.36.5,8.88,8.88,0,0,1-3.49-.63,5,5,0,0,1-2.27-1.82,4.89,4.89,0,0,1-.79-2.79,7.85,7.85,0,0,1,.5-2.75,6.48,6.48,0,0,1,1.64-2.47,9.59,9.59,0,0,1,3-1.84v-.23a5.31,5.31,0,0,1-1.73-1.93,5.26,5.26,0,0,1-.56-2.42,7.7,7.7,0,0,1,.14-1.39,6.09,6.09,0,0,1,.66-1.94,6.35,6.35,0,0,1,1.6-1.89,8.19,8.19,0,0,1,2.48-1.29,10,10,0,0,1,3.15-.48,9,9,0,0,1,3.71.66,4.53,4.53,0,0,1,2.09,1.77,4.74,4.74,0,0,1,.65,2.47,6.92,6.92,0,0,1-.53,2.65,6.5,6.5,0,0,1-1.67,2.33A7.52,7.52,0,0,1,741.86,43.3Zm-9.31,7.45a3.46,3.46,0,0,0,.92,2.6,3.82,3.82,0,0,0,2.73.89,4.77,4.77,0,0,0,2.42-.59,4.63,4.63,0,0,0,1.64-1.56,7.68,7.68,0,0,0,.94-2.26,9.75,9.75,0,0,0,.32-2.44A3,3,0,0,0,738.13,44a5,5,0,0,0-2.46.58,5.15,5.15,0,0,0-1.75,1.56,7.51,7.51,0,0,0-1,2.22A8.42,8.42,0,0,0,732.55,50.75Zm2.66-11.4a5,5,0,0,0,.15,1.24,2.53,2.53,0,0,0,.52,1,2.63,2.63,0,0,0,1,.71,4.33,4.33,0,0,0,1.66.27,4.76,4.76,0,0,0,2.63-.74A5.33,5.33,0,0,0,743,39.7a7.12,7.12,0,0,0,.7-3.15,3.3,3.3,0,0,0-.84-2.47,3.47,3.47,0,0,0-2.5-.81,4.65,4.65,0,0,0-4.61,3.14A8.24,8.24,0,0,0,735.21,39.35Z"/><path d="M757,50.48a11,11,0,0,0-.3,2,1.37,1.37,0,0,0,.35,1,2.32,2.32,0,0,0,1.18.47,18.18,18.18,0,0,0,2.56.2l-.26,1.25h-12l.26-1.25A20.24,20.24,0,0,0,751,54a4.93,4.93,0,0,0,1.23-.32,2.34,2.34,0,0,0,.75-.5,2.71,2.71,0,0,0,.51-.77A7,7,0,0,0,753.9,51l2.71-12.39c.1-.48.18-.86.23-1.15a4.16,4.16,0,0,0,.08-.7.83.83,0,0,0-.87-.94,3.59,3.59,0,0,0-1.34.44c-.6.29-1.49.79-2.68,1.49l-.66-1.36,8.6-4.53h1.17l-.49,2c-.18.73-.37,1.58-.58,2.54Z"/></svg>