<svg id="Capa_1" data-name="Capa 1" xmlns="http://www.w3.org/2000/svg" viewBox="0 0 977.22 80.71"><path d="M359.09,54.49V45.85h-8.57V42.24h8.57V33.67h3.65v8.57h8.58v3.61h-8.58v8.64Z"/><path d="M574.59,56.18V47.54H566V43.93h8.57V35.36h3.66v8.57h8.57v3.61h-8.57v8.64Z"/><path d="M146.83,51.35q-.14.59-.21,1c-.05.28-.1.61-.14,1s-.06.74-.06,1a1.92,1.92,0,0,0,.2,1,1.14,1.14,0,0,0,.58.5,5.32,5.32,0,0,0,1.34.23l-.21,1h-8l.21-1a2.55,2.55,0,0,0,1.1-.38,2,2,0,0,0,.62-.73,6.23,6.23,0,0,0,.47-1.14c.14-.45.36-1.32.64-2.61l3.3-15a15.58,15.58,0,0,0,.42-3.08,1.69,1.69,0,0,0-.44-1.33,2.53,2.53,0,0,0-1.46-.43l.22-1h17.49l-1.34,6h-1.86c-.06-.93-.13-1.65-.22-2.18a4,4,0,0,0-.34-1.18,1.38,1.38,0,0,0-1.08-.84,5.79,5.79,0,0,0-1.08-.08h-6l-2.31,10.62h3.63a3.59,3.59,0,0,0,1.41-.23,2.66,2.66,0,0,0,1-.85,12.7,12.7,0,0,0,1.2-2.1h1.77l-1.88,8.24H154.2c0-.8,0-1.44,0-1.89a2.08,2.08,0,0,0-.23-1,1,1,0,0,0-.52-.38,4.82,4.82,0,0,0-1.24-.11h-3.8Z"/><path d="M171.5,48.79q-2.67,2.85-5.58,5.62l1.28,3c.34.81.61,1.4.81,1.78a3.57,3.57,0,0,0,.55.83,1.79,1.79,0,0,0,.5.37,2.8,2.8,0,0,0,.78.18l-.15.68h-3.43l-1.91-5.53c-.22.19-.51.46-.87.8a13.83,13.83,0,0,0-1.06,1.1,7.15,7.15,0,0,0-.71.94,2.37,2.37,0,0,0-.27.62,2.48,2.48,0,0,0-.06.54.73.73,0,0,0,.2.56,1.17,1.17,0,0,0,.68.29l-.15.68h-3.92l-.27-.68c2-2.15,4-4.14,5.93-6l-1.3-3.07c-.27-.63-.48-1.1-.65-1.43a3.64,3.64,0,0,0-.47-.75,1.76,1.76,0,0,0-.53-.42,2.34,2.34,0,0,0-.84-.18l.15-.68h3.42l1.83,5.19c.45-.41.88-.84,1.28-1.28a9.25,9.25,0,0,0,.86-1,3.11,3.11,0,0,0,.34-.69,2.25,2.25,0,0,0,.1-.64c0-.5-.3-.79-.88-.86l.15-.68h3.92Z"/><path d="M29.83,43.78a5.86,5.86,0,0,1,1.5,1.68,8.94,8.94,0,0,1,.92,2.72l.44,2.26c.09.47.2.91.31,1.31a8.75,8.75,0,0,0,.38,1.16,3.48,3.48,0,0,0,.49.89,2.48,2.48,0,0,0,1.24.89,6.31,6.31,0,0,0,1,.22l-.2,1H30.5a30.47,30.47,0,0,1-1.1-4.14l-.86-4.14A9.77,9.77,0,0,0,28,45.78a3.33,3.33,0,0,0-.72-1.13,2,2,0,0,0-1-.53A6.33,6.33,0,0,0,25,44H22.79l-1.36,6.19c-.12.5-.2.91-.24,1.21s-.09.61-.12,1S21,53,21,53.23a1.81,1.81,0,0,0,.2,1,1.06,1.06,0,0,0,.58.5,5.22,5.22,0,0,0,1.33.23l-.21,1H15l.21-1a2.47,2.47,0,0,0,1.11-.38,2,2,0,0,0,.62-.73,7,7,0,0,0,.47-1.14c.14-.45.35-1.32.64-2.61l3.29-15a15,15,0,0,0,.43-3.08,1.65,1.65,0,0,0-.45-1.33,2.47,2.47,0,0,0-1.45-.43l.21-1h8.63a18.14,18.14,0,0,1,3.36.25,7.72,7.72,0,0,1,2.22.73,5,5,0,0,1,1.54,1.26,5.4,5.4,0,0,1,.93,1.74A6.89,6.89,0,0,1,37,35.25a7.53,7.53,0,0,1-2.13,5.45,9.37,9.37,0,0,1-2.3,1.71,15.63,15.63,0,0,1-2.76,1.16Zm-4.39-1.46A12.39,12.39,0,0,0,29,41.9a5.91,5.91,0,0,0,2.33-1.28,6.47,6.47,0,0,0,1.53-2.27,7.64,7.64,0,0,0,.6-3,6.8,6.8,0,0,0-.15-1.5,4.2,4.2,0,0,0-.41-1.08,2.91,2.91,0,0,0-.64-.76,3.61,3.61,0,0,0-1-.58A5.54,5.54,0,0,0,29.89,31a15.91,15.91,0,0,0-2.08-.11c-.69,0-1.41,0-2.17.08L23.15,42.32Z"/><path d="M49.4,48.49c-1.69,1.82-3.46,3.61-5.31,5.39l1.22,2.89c.32.77.58,1.34.77,1.7a3.24,3.24,0,0,0,.52.79,1.48,1.48,0,0,0,.47.36,3.15,3.15,0,0,0,.75.18l-.15.64H44.41l-1.82-5.3-.83.78a14.32,14.32,0,0,0-1,1,6.18,6.18,0,0,0-.68.9,2.33,2.33,0,0,0-.25.6,2.16,2.16,0,0,0-.06.51.73.73,0,0,0,.19.54,1.2,1.2,0,0,0,.65.28l-.15.64H36.73l-.25-.64q2.87-3.11,5.64-5.71l-1.24-2.94c-.25-.6-.46-1-.62-1.37a3.22,3.22,0,0,0-.45-.72,1.69,1.69,0,0,0-.49-.4,2.23,2.23,0,0,0-.81-.17l.15-.65h3.25l1.75,5c.42-.4.83-.8,1.21-1.23a6.77,6.77,0,0,0,.81-1,2.53,2.53,0,0,0,.33-.66,2,2,0,0,0,.09-.6c0-.49-.28-.76-.83-.83l.14-.65h3.73Z"/><path d="M101.18,12.82l12.93,26v2.68L99.61,68h17.47a8.51,8.51,0,0,0,2.48-.28A3.76,3.76,0,0,0,121,66.8a5.49,5.49,0,0,0,1.08-1.62,15.42,15.42,0,0,0,1-2.87,48.53,48.53,0,0,0,.85-4.79H127l-.77,17.19H92.55v-2L109,42.83,93.56,11.16v-2h32.79V24.83h-2.87q-.66-3.34-1.26-5.46A20.16,20.16,0,0,0,121,16a7.27,7.27,0,0,0-1.28-1.88,4.46,4.46,0,0,0-1.5-1,6.33,6.33,0,0,0-2.25-.33Z"/><path d="M83.35,42.73H64.44V39.45H83.35Zm0,8.69H64.44V48.14H83.35Z"/><path d="M206.46,40.2H187.55V36.91h18.91Zm0,8.69H187.55V45.6h18.91Z"/><path d="M794.69,39h-18.9V35.76h18.9Zm0,8.69h-18.9V44.45h18.9Z"/><path d="M401.82,65.88a8.85,8.85,0,0,1-4.46-1,5.74,5.74,0,0,1-2.47-2.9,12.89,12.89,0,0,1-.77-4.78,32.65,32.65,0,0,1,.35-4.49q.46-3.16,1.35-7.05t1.74-6.44a23.67,23.67,0,0,1,2.13-4.76,11.29,11.29,0,0,1,2.5-2.92,9.18,9.18,0,0,1,3.09-1.6,15.51,15.51,0,0,1,4.55-.59l-.35,1.6a8.32,8.32,0,0,0-2.81.4,6,6,0,0,0-2,1.17A9.88,9.88,0,0,0,402.77,35a28.44,28.44,0,0,0-2,5.06c-.57,1.79-1.14,4-1.71,6.58-.46,2.12-.84,4-1.12,5.72a37.55,37.55,0,0,0-.58,5.9,9.42,9.42,0,0,0,.55,3.59,3.55,3.55,0,0,0,1.59,1.85,5.91,5.91,0,0,0,2.72.53Z"/><path d="M417,48.61h-8.48l.64-3h8.48Z"/><path d="M435.84,56.42a3,3,0,0,0,1.11-.31,2,2,0,0,0,.63-.62,4.85,4.85,0,0,0,.53-1.21c.17-.52.37-1.35.62-2.49l.54-2.5H429l.37-1.83,14.12-16.88h3.22L443,47.4h.65a4.86,4.86,0,0,0,1.5-.17,1.82,1.82,0,0,0,.79-.56,5.9,5.9,0,0,0,.74-1.4h1.75l-1.11,4h-4.73L442,52.11a12.77,12.77,0,0,0-.24,1.5,9.74,9.74,0,0,0-.07,1.07A1.69,1.69,0,0,0,442,56a2.46,2.46,0,0,0,1.5.46l-.21,1h-7.7Zm-3.41-9h7.29l1-4.86q.84-3.84,1.87-7.66h-.27l-9.88,12.25Z"/><path d="M460.76,51.74a12.5,12.5,0,0,0-.35,2.28,1.48,1.48,0,0,0,.41,1.16,2.58,2.58,0,0,0,1.34.55,21.08,21.08,0,0,0,2.92.22l-.29,1.43H451.1l.29-1.43a24.85,24.85,0,0,0,2.5-.21,6,6,0,0,0,1.41-.37,2.61,2.61,0,0,0,1.44-1.45,8.28,8.28,0,0,0,.49-1.64l3.1-14.16c.12-.54.21-1,.26-1.31a4.52,4.52,0,0,0,.09-.8.93.93,0,0,0-1-1.07,3.9,3.9,0,0,0-1.53.5q-1,.5-3.06,1.71l-.76-1.57,9.83-5.17h1.34L465,32.69q-.31,1.26-.66,2.91Z"/><path d="M492.29,31.66,476.66,57.52h-2.89l.23-1.1,14.12-22.15.06-.29h-8.05a4.41,4.41,0,0,0-1.54.22,2.41,2.41,0,0,0-1,.75,8.65,8.65,0,0,0-1,2.1h-1.79l1.57-6.33H492.5Z"/><path d="M495.94,52.85a12.6,12.6,0,0,1-.14,1.68,11.08,11.08,0,0,1-.42,1.87,8,8,0,0,1-1.61,3A12.32,12.32,0,0,1,492.19,61a23.56,23.56,0,0,1-2.56,1.87l-.89-1.21c.62-.52,1.1-1,1.45-1.33a6,6,0,0,0,.84-1.11,7.37,7.37,0,0,0,.59-1.32,17.54,17.54,0,0,0,.57-2.16,24.9,24.9,0,0,0,.47-2.85Z"/><path d="M507,42.36a11.17,11.17,0,0,1,3.86-.64,7.07,7.07,0,0,1,3.39.76,5.2,5.2,0,0,1,2.2,2.18,6.91,6.91,0,0,1,.75,3.29,11.4,11.4,0,0,1-1.15,5,7.65,7.65,0,0,1-3.4,3.59,11.52,11.52,0,0,1-5.45,1.18,18.53,18.53,0,0,1-3.58-.37,17.13,17.13,0,0,1-3.43-1l.9-4.14h2.23c.07,2.57,1.41,3.86,4,3.86a5.37,5.37,0,0,0,3.47-1.09,6.69,6.69,0,0,0,2.08-3,10.88,10.88,0,0,0,.7-3.77,4.8,4.8,0,0,0-1-3.34,3.9,3.9,0,0,0-3.05-1.15,12.24,12.24,0,0,0-1.68.1,11.58,11.58,0,0,0-1.83.41L504.26,43,507,30.72h9.68a3.13,3.13,0,0,0,1-.11,1.14,1.14,0,0,0,.51-.36,3.11,3.11,0,0,0,.45-.82h1.57L518.88,34H508.79Z"/><path d="M535.32,43.53v.26a5.1,5.1,0,0,1,3.11,5,9.48,9.48,0,0,1-.2,1.77,8.89,8.89,0,0,1-.85,2.58,7.6,7.6,0,0,1-1.94,2.42,9.07,9.07,0,0,1-3,1.6,12.19,12.19,0,0,1-3.84.57,10.14,10.14,0,0,1-4-.72,5.44,5.44,0,0,1-3.5-5.27,9.15,9.15,0,0,1,.57-3.14,7.32,7.32,0,0,1,1.88-2.82A10.79,10.79,0,0,1,527,43.63v-.25a6.25,6.25,0,0,1-2-2.22,6,6,0,0,1-.63-2.76,9.06,9.06,0,0,1,.15-1.59,7.1,7.1,0,0,1,.76-2.22,7,7,0,0,1,1.83-2.15A9.05,9.05,0,0,1,530,31a11.61,11.61,0,0,1,3.6-.54,10.18,10.18,0,0,1,4.24.76,5.2,5.2,0,0,1,2.39,2,5.48,5.48,0,0,1,.74,2.83,7.91,7.91,0,0,1-.6,3,7.46,7.46,0,0,1-1.91,2.67A8.82,8.82,0,0,1,535.32,43.53Zm-10.64,8.52a4,4,0,0,0,1.05,3,4.38,4.38,0,0,0,3.12,1,5.44,5.44,0,0,0,2.77-.67,5.35,5.35,0,0,0,1.87-1.79A8.86,8.86,0,0,0,534.57,51a11.64,11.64,0,0,0,.37-2.79,3.4,3.4,0,0,0-3.88-3.83,5.7,5.7,0,0,0-2.81.67,5.54,5.54,0,0,0-2,1.78,8.32,8.32,0,0,0-1.17,2.54A9.8,9.8,0,0,0,524.68,52.05Zm3-13a5.94,5.94,0,0,0,.17,1.42,2.92,2.92,0,0,0,.6,1.19,3,3,0,0,0,1.16.82,5.06,5.06,0,0,0,1.89.3,5.43,5.43,0,0,0,3-.84,6,6,0,0,0,2.1-2.5,8,8,0,0,0,.81-3.59,3.75,3.75,0,0,0-1-2.82,4,4,0,0,0-2.86-.93,5.46,5.46,0,0,0-3.28,1,5.57,5.57,0,0,0-2,2.64A9.41,9.41,0,0,0,527.72,39Z"/><path d="M545.72,29.35a8.74,8.74,0,0,1,4.46,1,5.69,5.69,0,0,1,2.47,2.9,12.87,12.87,0,0,1,.77,4.77,31.21,31.21,0,0,1-.35,4.4q-.47,3.39-1.44,7.56c-.6,2.56-1.19,4.66-1.74,6.29a23.38,23.38,0,0,1-2.07,4.56,11,11,0,0,1-2.48,2.88,9.23,9.23,0,0,1-3.09,1.58,15.54,15.54,0,0,1-4.54.59l.35-1.61a8.46,8.46,0,0,0,2.8-.39,5.81,5.81,0,0,0,1.95-1.15,9.56,9.56,0,0,0,2-2.6,27.85,27.85,0,0,0,2-5q1-3.09,1.82-7.12.68-3.13,1.06-5.55a36.22,36.22,0,0,0,.53-5.49,9.23,9.23,0,0,0-.57-3.61,3.49,3.49,0,0,0-1.59-1.84,6.05,6.05,0,0,0-2.71-.53Z"/><path d="M612,61.17a8.69,8.69,0,0,1-4.46-1,5.71,5.71,0,0,1-2.48-2.9,12.89,12.89,0,0,1-.76-4.77,31.18,31.18,0,0,1,.35-4.5q.46-3.16,1.35-7a66.41,66.41,0,0,1,1.73-6.44,23.67,23.67,0,0,1,2.13-4.76,11.31,11.31,0,0,1,2.51-2.92,9.32,9.32,0,0,1,3.08-1.6,15.58,15.58,0,0,1,4.56-.59l-.35,1.61a8.63,8.63,0,0,0-2.82.39,5.89,5.89,0,0,0-2,1.17,9.45,9.45,0,0,0-1.92,2.52,28.38,28.38,0,0,0-2.06,5.06c-.57,1.79-1.14,4-1.71,6.58-.46,2.12-.84,4-1.12,5.72a37.55,37.55,0,0,0-.58,5.9,9.42,9.42,0,0,0,.55,3.59A3.51,3.51,0,0,0,609.57,59a5.91,5.91,0,0,0,2.73.54Z"/><path d="M627.13,43.9h-8.47l.64-3h8.47Z"/><path d="M649.36,49.55a6.24,6.24,0,0,0,1.11-.08,2,2,0,0,0,.65-.23,2,2,0,0,0,.52-.44,3.23,3.23,0,0,0,.5-.68c.15-.26.34-.64.57-1.15h1.8l-1.43,5.7h-15.2l.19-.94A29.22,29.22,0,0,1,641,47.48a58.49,58.49,0,0,1,4.91-5.2c1.74-1.65,2.93-2.82,3.59-3.51a27.07,27.07,0,0,0,2.7-3.11,9.88,9.88,0,0,0,1.32-2.44,7.36,7.36,0,0,0,.38-2.31,3.35,3.35,0,0,0-.92-2.53,3.64,3.64,0,0,0-2.63-.88,4.62,4.62,0,0,0-2.86.95,6.71,6.71,0,0,0-2,2.72H643l.83-3.75a26.52,26.52,0,0,1,4.06-1.3,17,17,0,0,1,3.74-.42,7.87,7.87,0,0,1,3.28.63,4.72,4.72,0,0,1,2.1,1.76,4.56,4.56,0,0,1,.71,2.47,8.4,8.4,0,0,1-.31,2.32,8.84,8.84,0,0,1-1,2.08,21.05,21.05,0,0,1-2.51,3c-1,1-2.67,2.59-5,4.67a52.28,52.28,0,0,0-6.73,6.94Z"/><path d="M666.94,51.71a2.8,2.8,0,0,0,1.12-.31,2,2,0,0,0,.63-.62,5,5,0,0,0,.52-1.2c.17-.53.38-1.36.62-2.49l.55-2.5H660.06l.37-1.84,14.12-16.88h3.22l-3.69,16.82h.66a4.5,4.5,0,0,0,1.49-.17A1.77,1.77,0,0,0,677,42a6.07,6.07,0,0,0,.74-1.4h1.74l-1.1,4h-4.74l-.62,2.81q-.16.84-.24,1.5c0,.44-.07.8-.07,1.08a1.72,1.72,0,0,0,.41,1.28,2.49,2.49,0,0,0,1.49.45l-.21,1h-7.7Zm-3.41-9h7.29l1-4.86c.56-2.55,1.18-5.11,1.86-7.66h-.27l-9.87,12.25Z"/><path d="M702.41,27,686.78,52.81h-2.89l.24-1.1,14.12-22.14,0-.3h-8a4.45,4.45,0,0,0-1.54.22,2.33,2.33,0,0,0-1,.75,8.23,8.23,0,0,0-1,2.1h-1.79L686.41,26h16.22Z"/><path d="M706.06,48.14a12.6,12.6,0,0,1-.14,1.68,12.14,12.14,0,0,1-.41,1.87,9.9,9.9,0,0,1-.65,1.59,9.75,9.75,0,0,1-1,1.4,13.77,13.77,0,0,1-1.58,1.58,26.24,26.24,0,0,1-2.56,1.86l-.89-1.21a15.85,15.85,0,0,0,1.44-1.33,6,6,0,0,0,.84-1.11,8.14,8.14,0,0,0,.6-1.32,22.14,22.14,0,0,0,.57-2.16,27.28,27.28,0,0,0,.46-2.85Z"/><path d="M714.07,31.17l.79-3.75a23.55,23.55,0,0,1,4-1.32,17.43,17.43,0,0,1,3.8-.4A9.64,9.64,0,0,1,725,26a6,6,0,0,1,2,.9,4.28,4.28,0,0,1,1.34,1.55,4.83,4.83,0,0,1,.5,2.26,7.1,7.1,0,0,1-.7,3.19,7.48,7.48,0,0,1-2.26,2.57,18.49,18.49,0,0,1-4.26,2.23l0,.21A6.76,6.76,0,0,1,725.3,41a5.39,5.39,0,0,1,1.28,3.64,8.4,8.4,0,0,1-.7,3.26,8,8,0,0,1-2,2.79,8.43,8.43,0,0,1-3.11,1.75,14,14,0,0,1-4.33.59,19.62,19.62,0,0,1-3.82-.4,15.19,15.19,0,0,1-3.33-1l.89-4.14h2.23a4.07,4.07,0,0,0,1.18,2.93,4.63,4.63,0,0,0,3.13.93,6.07,6.07,0,0,0,3.31-.86,5.62,5.62,0,0,0,2.14-2.52,8.82,8.82,0,0,0,.77-3.75A3.76,3.76,0,0,0,721.62,41a6.5,6.5,0,0,0-4-1.05h-1.94l.37-1.72a14.12,14.12,0,0,0,4.15-.86,8.82,8.82,0,0,0,2.93-1.78,6.56,6.56,0,0,0,1.6-2.28,6.83,6.83,0,0,0,.47-2.45,3.3,3.3,0,0,0-.95-2.5,3.66,3.66,0,0,0-2.6-.89,4.9,4.9,0,0,0-3.06.91,7.26,7.26,0,0,0-2.06,2.76Z"/><path d="M738.06,37.65a11.13,11.13,0,0,1,3.86-.64,7.13,7.13,0,0,1,3.39.76A5.12,5.12,0,0,1,747.5,40a6.8,6.8,0,0,1,.76,3.29,11.41,11.41,0,0,1-1.16,5,7.63,7.63,0,0,1-3.39,3.59A11.54,11.54,0,0,1,738.25,53a18.69,18.69,0,0,1-3.58-.37,16.59,16.59,0,0,1-3.42-1l.89-4.14h2.23q.12,3.85,4,3.86a5.41,5.41,0,0,0,3.47-1.09,6.59,6.59,0,0,0,2.07-3,10.65,10.65,0,0,0,.7-3.77,4.84,4.84,0,0,0-1-3.34A3.92,3.92,0,0,0,740.52,39a12.5,12.5,0,0,0-1.69.1,11.49,11.49,0,0,0-1.82.41l-1.65-1.25L738.06,26h9.68a2.92,2.92,0,0,0,1-.11,1.14,1.14,0,0,0,.51-.36,3.42,3.42,0,0,0,.45-.82h1.57L750,29.25H739.9Z"/><path d="M755.84,24.64a8.82,8.82,0,0,1,4.46,1,5.69,5.69,0,0,1,2.47,2.9,12.69,12.69,0,0,1,.77,4.78,31.19,31.19,0,0,1-.35,4.39q-.47,3.4-1.43,7.56-.91,3.84-1.75,6.29A23.4,23.4,0,0,1,758,56.12,11.16,11.16,0,0,1,755.46,59a9.05,9.05,0,0,1-3.09,1.58,15.54,15.54,0,0,1-4.54.59l.35-1.6a8.46,8.46,0,0,0,2.8-.39A6,6,0,0,0,752.93,58a9.5,9.5,0,0,0,2-2.59,28.24,28.24,0,0,0,2.05-5c.64-2.05,1.24-4.43,1.81-7.12q.68-3.13,1.07-5.55a36,36,0,0,0,.52-5.49,9.48,9.48,0,0,0-.56-3.61,3.54,3.54,0,0,0-1.6-1.84,6,6,0,0,0-2.71-.52Z"/><path d="M242.46,43.53v.26a5.1,5.1,0,0,1,3.1,5,9.39,9.39,0,0,1-.19,1.77,8.89,8.89,0,0,1-.85,2.58,7.6,7.6,0,0,1-1.94,2.42,9.17,9.17,0,0,1-3,1.6,12.19,12.19,0,0,1-3.84.57,10.15,10.15,0,0,1-4-.72,5.71,5.71,0,0,1-2.6-2.08,5.65,5.65,0,0,1-.9-3.19,9.15,9.15,0,0,1,.57-3.14,7.35,7.35,0,0,1,1.89-2.82,10.86,10.86,0,0,1,3.36-2.11l0-.25a6.28,6.28,0,0,1-2-2.22,6,6,0,0,1-.63-2.76,8.24,8.24,0,0,1,.16-1.59,7.09,7.09,0,0,1,.75-2.22,6.92,6.92,0,0,1,1.84-2.15A8.94,8.94,0,0,1,237.1,31a11.5,11.5,0,0,1,3.59-.54,10.15,10.15,0,0,1,4.24.76,5.18,5.18,0,0,1,2.4,2,5.47,5.47,0,0,1,.73,2.83,7.91,7.91,0,0,1-.6,3,7.34,7.34,0,0,1-1.91,2.67A8.69,8.69,0,0,1,242.46,43.53Zm-10.65,8.52a3.92,3.92,0,0,0,1.06,3A4.34,4.34,0,0,0,236,56a5.23,5.23,0,0,0,4.65-2.46A8.59,8.59,0,0,0,241.7,51a11.16,11.16,0,0,0,.37-2.79,3.4,3.4,0,0,0-3.88-3.83,5.7,5.7,0,0,0-4.81,2.45,8.82,8.82,0,0,0-1.17,2.54A10.2,10.2,0,0,0,231.81,52.05Zm3.05-13a5.94,5.94,0,0,0,.16,1.42,2.92,2.92,0,0,0,.6,1.19,3,3,0,0,0,1.17.82,5,5,0,0,0,1.89.3,5.37,5.37,0,0,0,3-.84,6,6,0,0,0,2.11-2.5,8.18,8.18,0,0,0,.8-3.59,3.75,3.75,0,0,0-1-2.82,4,4,0,0,0-2.86-.93,5.45,5.45,0,0,0-3.27,1,5.51,5.51,0,0,0-2,2.64A9.19,9.19,0,0,0,234.86,39Z"/><path d="M255.8,56.42a3,3,0,0,0,1.12-.31,2,2,0,0,0,.63-.62,5.29,5.29,0,0,0,.52-1.21c.17-.52.38-1.35.62-2.49l.54-2.5H248.92l.37-1.83L263.4,30.58h3.22L262.94,47.4h.66a4.83,4.83,0,0,0,1.49-.17,1.85,1.85,0,0,0,.8-.56,6,6,0,0,0,.73-1.4h1.75l-1.11,4h-4.73l-.62,2.82a12.77,12.77,0,0,0-.24,1.5,9.74,9.74,0,0,0-.07,1.07A1.69,1.69,0,0,0,262,56a2.42,2.42,0,0,0,1.49.46l-.21,1h-7.7Zm-3.41-9h7.29l1.05-4.86q.82-3.84,1.86-7.66h-.27l-9.87,12.25Z"/><path d="M276.78,56.42a3,3,0,0,0,1.12-.31,2,2,0,0,0,.63-.62,4.88,4.88,0,0,0,.52-1.21c.17-.52.38-1.35.62-2.49l.55-2.5H269.9l.37-1.83,14.12-16.88h3.22L283.92,47.4h.66a4.79,4.79,0,0,0,1.49-.17,1.85,1.85,0,0,0,.8-.56,6.29,6.29,0,0,0,.74-1.4h1.74l-1.1,4h-4.74l-.62,2.82q-.17.84-.24,1.5c0,.44-.07.8-.07,1.07A1.69,1.69,0,0,0,283,56a2.42,2.42,0,0,0,1.49.46l-.21,1h-7.7Zm-3.41-9h7.29l1-4.86q.84-3.84,1.86-7.66h-.27l-9.87,12.25Z"/><path d="M294.92,52.85a12.6,12.6,0,0,1-.14,1.68,11.08,11.08,0,0,1-.42,1.87,8,8,0,0,1-1.61,3A12.32,12.32,0,0,1,291.17,61a23.56,23.56,0,0,1-2.56,1.87l-.89-1.21a17.84,17.84,0,0,0,1.45-1.33,6,6,0,0,0,.84-1.11,7.37,7.37,0,0,0,.59-1.32,17.54,17.54,0,0,0,.57-2.16,24.9,24.9,0,0,0,.47-2.85Z"/><path d="M302.93,35.88l.79-3.75a21.9,21.9,0,0,1,4-1.32,17.43,17.43,0,0,1,3.8-.4,9.64,9.64,0,0,1,2.38.29,6,6,0,0,1,2,.9,4.37,4.37,0,0,1,1.34,1.55,4.83,4.83,0,0,1,.49,2.26A7.09,7.09,0,0,1,317,38.6a7.48,7.48,0,0,1-2.26,2.57,18.7,18.7,0,0,1-4.26,2.23l0,.21a6.73,6.73,0,0,1,3.68,2,5.33,5.33,0,0,1,1.28,3.63,8.39,8.39,0,0,1-.69,3.27,8,8,0,0,1-2,2.79,8.51,8.51,0,0,1-3.11,1.75,14.35,14.35,0,0,1-4.33.59,19.62,19.62,0,0,1-3.82-.4,15.29,15.29,0,0,1-3.34-1l.9-4.14h2.23a4,4,0,0,0,1.18,2.93,4.61,4.61,0,0,0,3.12.93,6.08,6.08,0,0,0,3.32-.86,5.62,5.62,0,0,0,2.14-2.52,8.82,8.82,0,0,0,.77-3.75,3.76,3.76,0,0,0-1.35-3.16,6.52,6.52,0,0,0-4-1.06H304.5l.37-1.71a14.18,14.18,0,0,0,4.15-.86,8.76,8.76,0,0,0,2.92-1.78,6.37,6.37,0,0,0,1.6-2.29A6.54,6.54,0,0,0,314,35.6a3.3,3.3,0,0,0-.95-2.5,3.62,3.62,0,0,0-2.6-.9,4.91,4.91,0,0,0-3.06.92,7.09,7.09,0,0,0-2.06,2.76Z"/><path d="M330.6,51.74a12.5,12.5,0,0,0-.35,2.28,1.52,1.52,0,0,0,.41,1.16,2.58,2.58,0,0,0,1.34.55,21.22,21.22,0,0,0,2.92.22l-.29,1.43H320.94l.29-1.43a24.85,24.85,0,0,0,2.5-.21,6,6,0,0,0,1.41-.37,2.61,2.61,0,0,0,1.44-1.45,8.28,8.28,0,0,0,.49-1.64l3.1-14.16c.12-.54.21-1,.26-1.31a4.52,4.52,0,0,0,.09-.8.93.93,0,0,0-1-1.07,4,4,0,0,0-1.53.5c-.68.33-1.71.9-3.06,1.71l-.76-1.57L334,30.41h1.34l-.56,2.28q-.32,1.26-.66,2.91Z"/><path d="M822.64,46.62a12.61,12.61,0,0,0-.37,2.4,1.53,1.53,0,0,0,.42,1.16,2.69,2.69,0,0,0,1.39.57,19.15,19.15,0,0,0,2.86.18l-.37,1.78H810.63l.37-1.78a23.45,23.45,0,0,0,3-.27,3.47,3.47,0,0,0,1.43-.55,2.67,2.67,0,0,0,.8-1,10.88,10.88,0,0,0,.66-2.2l2.8-12.76a7.81,7.81,0,0,0,.21-1.58,1.22,1.22,0,0,0-.23-.82.83.83,0,0,0-.64-.25,3.14,3.14,0,0,0-.86.14,7.56,7.56,0,0,0-1.12.5l-2.62,1.45-1-2,11.15-5.84h2.64q-.54,2.07-1.2,5.19Z"/><path d="M855.14,27.34,839.68,52.77h-4.09l.29-1.35,13.38-19.86.06-.3h-7.78a5.14,5.14,0,0,0-1.64.21,2.15,2.15,0,0,0-1,.74,8.16,8.16,0,0,0-1,1.94h-2.33l2-8.1h17.88Z"/><path d="M857.77,51.69l.26-1.21a13.43,13.43,0,0,0,6.67-2.9,15.3,15.3,0,0,0,4.46-6.53L869,41a13,13,0,0,1-2.71,1,11.06,11.06,0,0,1-2.41.25,6.4,6.4,0,0,1-3.36-.85,5.49,5.49,0,0,1-2.16-2.32,7.43,7.43,0,0,1-.74-3.35A9.86,9.86,0,0,1,859,30.58,9.26,9.26,0,0,1,862.69,27a11.38,11.38,0,0,1,5.42-1.26,8.23,8.23,0,0,1,4.23,1A6.62,6.62,0,0,1,875,29.7a10.58,10.58,0,0,1,.89,4.51,20.8,20.8,0,0,1-.66,5,18.56,18.56,0,0,1-2.14,5.12,17.18,17.18,0,0,1-3.72,4.31,19.13,19.13,0,0,1-5,3,20.33,20.33,0,0,1-5.86,1.4Zm5.4-15.89q0,3.78,2.71,3.78a6,6,0,0,0,1.29-.13,4.55,4.55,0,0,0,1.11-.4,6,6,0,0,0,.83-.53,2.82,2.82,0,0,0,.61-.67,4.54,4.54,0,0,0,.45-.91,9.87,9.87,0,0,0,.32-1.32c.09-.55.17-1.09.23-1.64a16.17,16.17,0,0,0,.09-1.76,6,6,0,0,0-.69-3.24,2.41,2.41,0,0,0-2.16-1,3.55,3.55,0,0,0-2.46,1,6.81,6.81,0,0,0-1.7,2.84A12.37,12.37,0,0,0,863.17,35.8Z"/><path d="M883.12,46.81c0,.83-.08,1.6-.15,2.29a14.57,14.57,0,0,1-.38,2,8.81,8.81,0,0,1-.69,1.77,8.51,8.51,0,0,1-1.34,1.75,19.78,19.78,0,0,1-2,1.89,30.61,30.61,0,0,1-2.72,1.91l-1.32-1.83a9.75,9.75,0,0,0,2.24-2.26A9.4,9.4,0,0,0,878,51.22a26.48,26.48,0,0,0,.64-4.41Z"/><path d="M890.59,32.24l1.1-4.67a35.21,35.21,0,0,1,4.76-1.38,21.59,21.59,0,0,1,4.36-.45,10.13,10.13,0,0,1,3.41.53A5,5,0,0,1,906.55,28a4.63,4.63,0,0,1,.85,2.85,6.42,6.42,0,0,1-.55,2.72,7.49,7.49,0,0,1-1.52,2.16A10.54,10.54,0,0,1,903,37.37a19.53,19.53,0,0,1-2.85,1.28l0,.25A6.66,6.66,0,0,1,903.64,41a5.26,5.26,0,0,1,1.28,3.51,8.32,8.32,0,0,1-.67,3.35,8,8,0,0,1-2.09,2.81,8.71,8.71,0,0,1-3.41,1.83,18.16,18.16,0,0,1-4.85.56,19.59,19.59,0,0,1-4.06-.44,17.38,17.38,0,0,1-3.56-1.08l1-4.75h3.1c.13,2.72,1.32,4.08,3.55,4.08a4.33,4.33,0,0,0,2.71-.9,5.85,5.85,0,0,0,1.8-2.46,8.42,8.42,0,0,0,.63-3.18,3.79,3.79,0,0,0-1.15-3,5.2,5.2,0,0,0-3.43-1H892.8l.48-2.23a10.93,10.93,0,0,0,4.31-.94,7,7,0,0,0,3-2.52,6.78,6.78,0,0,0,1.11-3.9A2.88,2.88,0,0,0,901,28.6a2.68,2.68,0,0,0-2-.73,5.28,5.28,0,0,0-1.28.16,3.52,3.52,0,0,0-1.29.66A5.7,5.7,0,0,0,895.2,30a10.45,10.45,0,0,0-1.08,2.22Z"/><path d="M925.86,39.31a5.9,5.9,0,0,1,2.35,2,5.4,5.4,0,0,1,.78,3,8.26,8.26,0,0,1-1.31,4.63A8.39,8.39,0,0,1,924,52,14,14,0,0,1,918.32,53a13.17,13.17,0,0,1-4.59-.72,6.23,6.23,0,0,1-3-2.14,5.61,5.61,0,0,1-1-3.41A7.78,7.78,0,0,1,911.19,42a10.53,10.53,0,0,1,4.39-3.27l0-.25a7.34,7.34,0,0,1-2-2.29,5.77,5.77,0,0,1-.68-2.77,6.84,6.84,0,0,1,1.32-4.23,7.81,7.81,0,0,1,3.63-2.61,15,15,0,0,1,5.29-.87,12.36,12.36,0,0,1,4.72.77,5.6,5.6,0,0,1,2.71,2.07,5.2,5.2,0,0,1,.85,2.94,7.1,7.1,0,0,1-1.38,4.39,10.73,10.73,0,0,1-4.25,3.15Zm-10.61,8.2A3.49,3.49,0,0,0,916,50a3.14,3.14,0,0,0,2.36.79,4.44,4.44,0,0,0,1.62-.26,4.08,4.08,0,0,0,1.31-.85,5.71,5.71,0,0,0,1.11-1.54,9.25,9.25,0,0,0,.78-2.23,12.83,12.83,0,0,0,.28-2.69,3.53,3.53,0,0,0-.75-2.44,2.74,2.74,0,0,0-2.16-.84A4.07,4.07,0,0,0,917.78,41a6.83,6.83,0,0,0-1.87,3A10.76,10.76,0,0,0,915.25,47.51Zm3-13a5.47,5.47,0,0,0,.24,1.69,2.41,2.41,0,0,0,.88,1.19,2.89,2.89,0,0,0,1.71.46,4.16,4.16,0,0,0,2.56-.84,5.58,5.58,0,0,0,1.77-2.39,9,9,0,0,0,.64-3.43,3.58,3.58,0,0,0-.71-2.45,2.69,2.69,0,0,0-2.12-.8,4.25,4.25,0,0,0-2.32.62,4.52,4.52,0,0,0-1.57,1.65,7.29,7.29,0,0,0-.84,2.24A10.69,10.69,0,0,0,918.28,34.49Z"/><path d="M945.37,26.05h7.37l3.74,11.05c1,3,1.83,5.67,2.43,8h.25q.57-3.37,1.47-7.48L962,31.32a10.68,10.68,0,0,0,.25-2.28,1.64,1.64,0,0,0-.37-1.2,2.13,2.13,0,0,0-1.24-.5l.28-1.29H968l-.27,1.29a3,3,0,0,0-1.25.64,3.42,3.42,0,0,0-.75,1.16,15.18,15.18,0,0,0-.62,2.18l-4.67,21.39h-4.42L951.4,39.06c-.36-1.07-.68-2.07-1-3s-.62-2.11-1-3.55l-.29,0c-.11.88-.31,2.08-.6,3.61s-.63,3.18-1,5l-1.4,6.37c-.08.33-.13.6-.16.8s0,.4-.06.63,0,.51,0,.85a1.6,1.6,0,0,0,.38,1.2,2.07,2.07,0,0,0,1.23.5l-.27,1.29H940l.27-1.29a3.12,3.12,0,0,0,1.25-.64,3.47,3.47,0,0,0,.75-1.17,14.6,14.6,0,0,0,.62-2.17l3.53-16.12a10.54,10.54,0,0,0,.25-2.28,1.64,1.64,0,0,0-.38-1.2,2.07,2.07,0,0,0-1.23-.5Z"/></svg>