<svg id="Capa_1" data-name="Capa 1" xmlns="http://www.w3.org/2000/svg" viewBox="0 0 338.92 105.65"><path d="M135.72,23.2a13.36,13.36,0,0,1,3.63-3.38,7.9,7.9,0,0,1,4.07-1.07A4.64,4.64,0,0,1,146.85,20a4.61,4.61,0,0,1,1.23,3.41,16.15,16.15,0,0,1-.43,3.33l-1.75,7.94c-.14.66-.24,1.17-.29,1.53a6.79,6.79,0,0,0-.07.92,1.66,1.66,0,0,0,.48,1.36,3.2,3.2,0,0,0,1.65.51l-.26,1.42h-8.85L141.5,27.5c.16-.67.28-1.23.36-1.66s.13-.8.17-1.11.05-.6.05-.86a2.34,2.34,0,0,0-.39-1.47,1.42,1.42,0,0,0-1.19-.51,2.75,2.75,0,0,0-1.47.55,9.73,9.73,0,0,0-1.8,1.62,10,10,0,0,0-1.57,2.29,12.25,12.25,0,0,0-1,3l-2.35,11h-6.14l3.07-13.47c.14-.57.24-1,.3-1.37s.1-.64.12-.89,0-.46,0-.66a2.72,2.72,0,0,0-.38-1.62,1.44,1.44,0,0,0-1.22-.51,3.9,3.9,0,0,0-2.4,1.31,11.84,11.84,0,0,0-2.18,2.68,11.88,11.88,0,0,0-1.2,3.51l-2.35,11h-6.12l3.35-15.17c.07-.34.17-.83.29-1.47a8.94,8.94,0,0,0,.18-1.6,1.37,1.37,0,0,0-.5-1.23,3.25,3.25,0,0,0-1.57-.42L116,19.1l5.87-.24h2.24l-1.22,4.64.26.09a20,20,0,0,1,2.74-2.89,8.3,8.3,0,0,1,2.48-1.49,7.78,7.78,0,0,1,2.75-.46,4.61,4.61,0,0,1,3.36,1.19A4.48,4.48,0,0,1,135.72,23.2Z"/><path d="M167.59,57.61V53l16.47-6.19-16.47-6.17v-4.6l20.75,8.45v4.64Z"/><path d="M120.71,84.05a6.19,6.19,0,0,0,.63,2.48,3,3,0,0,0,1.29,1.29,4.22,4.22,0,0,0,1.8.35,3.76,3.76,0,0,0,2.6-.82A3,3,0,0,0,128,85a3.51,3.51,0,0,0-.3-1.53,3.93,3.93,0,0,0-1-1.21,18.21,18.21,0,0,0-2.22-1.54,10.24,10.24,0,0,1-3.11-2.67,5.36,5.36,0,0,1-1-3.11,5.64,5.64,0,0,1,2.35-4.85,11,11,0,0,1,6.57-1.7,25,25,0,0,1,3.53.27,25.48,25.48,0,0,1,3.45.72l-1.11,5.13h-2.71a5.19,5.19,0,0,0-1-2.94,2.94,2.94,0,0,0-2.35-1,3.43,3.43,0,0,0-2.3.74,2.54,2.54,0,0,0-.86,2,2.87,2.87,0,0,0,.33,1.4,4.23,4.23,0,0,0,1.06,1.2,17.91,17.91,0,0,0,2.15,1.46,10.18,10.18,0,0,1,3.24,2.8,5.79,5.79,0,0,1,1,3.37,6,6,0,0,1-1.16,3.74,6.81,6.81,0,0,1-3.18,2.3,13.07,13.07,0,0,1-4.59.75,29.63,29.63,0,0,1-4.25-.28,31.63,31.63,0,0,1-3.69-.75l1.2-5.33Z"/><line x1="109.14" y1="52.62" x2="146.23" y2="52.62" style="fill:none;stroke:#000;stroke-miterlimit:10;stroke-width:2px"/><path d="M307.23,21.7a13.2,13.2,0,0,1,3.63-3.38,7.88,7.88,0,0,1,4.07-1.07,4.56,4.56,0,0,1,3.42,1.24,4.61,4.61,0,0,1,1.23,3.4,15.49,15.49,0,0,1-.43,3.33l-1.74,8c-.15.66-.24,1.17-.29,1.53a6.87,6.87,0,0,0-.08.92,1.62,1.62,0,0,0,.48,1.35,3.29,3.29,0,0,0,1.66.52l-.26,1.42h-8.85L313,26c.16-.68.27-1.23.35-1.66s.14-.8.17-1.12a6.79,6.79,0,0,0,.06-.86,2.38,2.38,0,0,0-.4-1.47,1.42,1.42,0,0,0-1.18-.5,2.72,2.72,0,0,0-1.47.55,9.4,9.4,0,0,0-1.81,1.62,10,10,0,0,0-1.56,2.29,12.25,12.25,0,0,0-1,3l-2.35,11h-6.14l3.07-13.47c.14-.58.24-1,.3-1.38s.09-.63.11-.88,0-.46,0-.66a2.7,2.7,0,0,0-.39-1.63,1.43,1.43,0,0,0-1.21-.5,3.9,3.9,0,0,0-2.4,1.31,11.33,11.33,0,0,0-2.18,2.67,11.83,11.83,0,0,0-1.21,3.52l-2.34,11h-6.12l3.35-15.17c.07-.34.16-.83.28-1.47a8.94,8.94,0,0,0,.18-1.6,1.37,1.37,0,0,0-.5-1.24,3.42,3.42,0,0,0-1.57-.42l.32-1.41,5.87-.24h2.24L294.35,22l.25.09a20.58,20.58,0,0,1,2.74-2.89,8.26,8.26,0,0,1,2.49-1.5,8,8,0,0,1,2.75-.45,4.68,4.68,0,0,1,3.36,1.18A4.52,4.52,0,0,1,307.23,21.7Z"/><path d="M292.22,82.55a5.92,5.92,0,0,0,.63,2.48,3,3,0,0,0,1.29,1.29,4.33,4.33,0,0,0,1.79.35,3.74,3.74,0,0,0,2.61-.83,3,3,0,0,0,.91-2.33,3.46,3.46,0,0,0-.3-1.52,3.81,3.81,0,0,0-1-1.22A17.91,17.91,0,0,0,296,79.24a10.07,10.07,0,0,1-3.1-2.68,5.23,5.23,0,0,1-1-3.1,5.63,5.63,0,0,1,2.35-4.86,11,11,0,0,1,6.57-1.69,26.58,26.58,0,0,1,3.53.26,25.65,25.65,0,0,1,3.44.72L306.66,73H304a5.12,5.12,0,0,0-1-2.94,3,3,0,0,0-2.36-1,3.42,3.42,0,0,0-2.29.74,2.51,2.51,0,0,0-.86,2,2.87,2.87,0,0,0,.33,1.4,4.34,4.34,0,0,0,1.05,1.2A18.18,18.18,0,0,0,301,76a10.27,10.27,0,0,1,3.24,2.79,5.89,5.89,0,0,1,1,3.38A6.1,6.1,0,0,1,304,85.86a6.9,6.9,0,0,1-3.18,2.29,13.13,13.13,0,0,1-4.6.76,31.11,31.11,0,0,1-4.24-.28,29.65,29.65,0,0,1-3.69-.76l1.19-5.32Z"/><line x1="280.65" y1="51.11" x2="317.73" y2="51.11" style="fill:none;stroke:#000;stroke-miterlimit:10;stroke-width:2px"/><path d="M25.9,62.54a9.11,9.11,0,0,1-5.07-1.33,8.49,8.49,0,0,1-3.15-4.33,22.58,22.58,0,0,1-1.1-7.73,22.26,22.26,0,0,1,1.12-7.57A9.75,9.75,0,0,1,21,36.87a8.59,8.59,0,0,1,5.24-1.61c3.18,0,5.56,1.09,7.12,3.27s2.35,5.52,2.35,10-.83,8.1-2.5,10.46A8.38,8.38,0,0,1,25.9,62.54Zm-3.43-14a49.1,49.1,0,0,0,.38,6.84A9.31,9.31,0,0,0,24,59.16a2.51,2.51,0,0,0,2.17,1.2A2.29,2.29,0,0,0,27.5,60a3.23,3.23,0,0,0,1-1.14,8.23,8.23,0,0,0,.75-2,20.35,20.35,0,0,0,.45-3.18c.09-1.27.13-2.69.13-4.25a56.56,56.56,0,0,0-.26-5.88,15.71,15.71,0,0,0-.75-3.67A4.34,4.34,0,0,0,27.67,38a2.35,2.35,0,0,0-1.53-.54,2.38,2.38,0,0,0-1.74.68,4.81,4.81,0,0,0-1.13,2.07,16.64,16.64,0,0,0-.61,3.48C22.53,45.07,22.47,46.7,22.47,48.58Z"/><path d="M45,56.33c.11.54.2,1.13.27,1.78s.1,1.24.1,1.76a7.35,7.35,0,0,1-.53,2.87,8.49,8.49,0,0,1-1.67,2.47,22.86,22.86,0,0,1-3.25,2.71l-1.5-1.7a6.25,6.25,0,0,0,1.31-1.57,5.67,5.67,0,0,0,.68-1.82,12.43,12.43,0,0,0,.21-2.49,38.3,38.3,0,0,0-.24-4Z"/><path d="M61.74,57.45a6.74,6.74,0,0,0,1.88-.19,1.88,1.88,0,0,0,1-.64,3.73,3.73,0,0,0,.59-1.38h2.23l-.44,7H49.21V60.94a24.2,24.2,0,0,1,2.36-4.08q1.55-2.2,3.75-4.82T58.51,48a14.44,14.44,0,0,0,1.64-3,8.29,8.29,0,0,0,.55-3,5.38,5.38,0,0,0-1-3.37,3.13,3.13,0,0,0-2.6-1.22,3.36,3.36,0,0,0-2.57,1.1A7.14,7.14,0,0,0,53.09,42H49.6V37.37A37.39,37.39,0,0,1,53.31,36,21.59,21.59,0,0,1,56,35.45a19.42,19.42,0,0,1,2.84-.19,12,12,0,0,1,4.66.77,5.48,5.48,0,0,1,2.61,2.09,5.86,5.86,0,0,1,.8,3.08,7.21,7.21,0,0,1-.57,2.87,13.28,13.28,0,0,1-2,3A64.18,64.18,0,0,1,59.57,52c-1,1-1.93,2-2.79,3s-1.51,1.77-1.92,2.33v.2Z"/><path d="M85.27,57.45a6.79,6.79,0,0,0,1.88-.19,1.92,1.92,0,0,0,1-.64,3.9,3.9,0,0,0,.59-1.38H91l-.45,7H72.74V60.94a24.08,24.08,0,0,1,2.35-4.08q1.55-2.2,3.76-4.82C80.24,50.38,81.31,49,82,48a14.92,14.92,0,0,0,1.64-3,8.28,8.28,0,0,0,.54-3,5.38,5.38,0,0,0-1-3.37,3.13,3.13,0,0,0-2.6-1.22,3.36,3.36,0,0,0-2.57,1.1A7.14,7.14,0,0,0,76.62,42H73.13V37.37A37.4,37.4,0,0,1,76.83,36a21.33,21.33,0,0,1,2.65-.58,19.33,19.33,0,0,1,2.84-.19A12,12,0,0,1,87,36a5.48,5.48,0,0,1,2.61,2.09,5.78,5.78,0,0,1,.81,3.08,7.21,7.21,0,0,1-.58,2.87,13.28,13.28,0,0,1-2,3A60.42,60.42,0,0,1,83.09,52c-1,1-1.92,2-2.79,3s-1.51,1.77-1.92,2.33v.2Z"/><path d="M219.26,64.05a9.07,9.07,0,0,1-5.07-1.34A8.41,8.41,0,0,1,211,58.38a22.83,22.83,0,0,1-1.1-7.73,22.3,22.3,0,0,1,1.12-7.57,9.91,9.91,0,0,1,3.31-4.71,8.6,8.6,0,0,1,5.25-1.61q4.77,0,7.11,3.27t2.35,10q0,6.91-2.49,10.46A8.36,8.36,0,0,1,219.26,64.05Zm-3.44-14a48.9,48.9,0,0,0,.38,6.84,9.31,9.31,0,0,0,1.19,3.74,2.52,2.52,0,0,0,2.18,1.2,2.32,2.32,0,0,0,1.29-.36,3.39,3.39,0,0,0,1-1.13,8.41,8.41,0,0,0,.74-2,19.52,19.52,0,0,0,.45-3.19c.09-1.27.13-2.68.13-4.25a53.91,53.91,0,0,0-.26-5.88,15.91,15.91,0,0,0-.74-3.67A4.34,4.34,0,0,0,221,39.5a2.3,2.3,0,0,0-1.53-.55,2.44,2.44,0,0,0-1.74.68,4.81,4.81,0,0,0-1.13,2.07,16.77,16.77,0,0,0-.61,3.48C215.89,46.57,215.82,48.21,215.82,50.08Z"/><path d="M238.3,57.84a13.79,13.79,0,0,1,.27,1.77,16.67,16.67,0,0,1,.1,1.76,7.53,7.53,0,0,1-.52,2.87,8.21,8.21,0,0,1-1.68,2.47,21.68,21.68,0,0,1-3.25,2.71l-1.49-1.7A6.88,6.88,0,0,0,233,66.16a6.06,6.06,0,0,0,.67-1.83,12.43,12.43,0,0,0,.21-2.49,38,38,0,0,0-.24-4Z"/><path d="M255.09,59a6.82,6.82,0,0,0,1.89-.19,1.79,1.79,0,0,0,1-.64,3.81,3.81,0,0,0,.6-1.38h2.23l-.45,7H242.57V62.45a24.53,24.53,0,0,1,2.35-4.09q1.54-2.2,3.76-4.82c1.39-1.65,2.46-3,3.19-4.08a14.67,14.67,0,0,0,1.63-3,8,8,0,0,0,.55-3,5.4,5.4,0,0,0-1-3.37,3.13,3.13,0,0,0-2.6-1.22,3.36,3.36,0,0,0-2.57,1.1,7.14,7.14,0,0,0-1.48,3.49H243V38.87c1.58-.64,2.82-1.08,3.71-1.34a21.28,21.28,0,0,1,2.65-.57,19.27,19.27,0,0,1,2.84-.2,12,12,0,0,1,4.65.77,5.48,5.48,0,0,1,2.61,2.09,5.77,5.77,0,0,1,.8,3.08,7.17,7.17,0,0,1-.57,2.87,12.86,12.86,0,0,1-2,3,60.42,60.42,0,0,1-4.74,4.86c-1,1-1.92,2-2.79,3s-1.51,1.77-1.92,2.33V59Z"/></svg>