<svg id="Capa_1" data-name="Capa 1" xmlns="http://www.w3.org/2000/svg" viewBox="0 0 677.59 84.77"><path d="M353.77,55.6q-5.44,0-5.44-6.89A24,24,0,0,1,351.51,37q3.18-5.76,8.07-5.76,5.12,0,5.12,6.75a24.81,24.81,0,0,1-3.1,11.8Q358.49,55.6,353.77,55.6ZM352,43.74a29.26,29.26,0,0,0-.9,6.47q0,3.95,3,3.95,2.1,0,3.84-2.75a25.51,25.51,0,0,0,2.89-7.67Zm.43-1.61h8.72a33.59,33.59,0,0,0,.66-5.57q0-3.89-2.61-3.88-2,0-3.75,2.46A22.14,22.14,0,0,0,352.47,42.13Z"/><path d="M582.23,54.09q-5.44,0-5.44-6.88A24,24,0,0,1,580,35.5q3.18-5.76,8.07-5.76,5.12,0,5.12,6.75a24.74,24.74,0,0,1-3.1,11.79Q587,54.1,582.23,54.09ZM580.5,42.23a29.41,29.41,0,0,0-.9,6.48q0,3.95,3,3.95,2.1,0,3.84-2.75a25.48,25.48,0,0,0,2.89-7.68Zm.43-1.6h8.72a33.59,33.59,0,0,0,.66-5.57q0-3.89-2.61-3.88-2,0-3.75,2.46A22.14,22.14,0,0,0,580.93,40.63Z"/><path d="M153.79,59.93a7.13,7.13,0,0,1-3.39-.75,5.07,5.07,0,0,1-2.19-2.48,11.22,11.22,0,0,1-.77-4.53,31.86,31.86,0,0,1,.51-5.44,35.61,35.61,0,0,1,1.4-5.54,25.54,25.54,0,0,1,2.12-4.72,16.58,16.58,0,0,1,2.72-3.58,11,11,0,0,1,3.17-2.21,8.3,8.3,0,0,1,3.47-.77,7.14,7.14,0,0,1,3,.56,5.13,5.13,0,0,1,2,1.56,6.27,6.27,0,0,1,1.09,2.38,13.18,13.18,0,0,1,.33,3,33.81,33.81,0,0,1-1.36,9.36,27.41,27.41,0,0,1-3.44,7.85,12.6,12.6,0,0,1-4.16,4.06A8.62,8.62,0,0,1,153.79,59.93Zm-2.66-6.4a9.6,9.6,0,0,0,.3,2.71,2.52,2.52,0,0,0,.91,1.42,2.92,2.92,0,0,0,1.71.44,4.39,4.39,0,0,0,3.1-1.52A15.19,15.19,0,0,0,160,52a43.72,43.72,0,0,0,2.42-7.75,37,37,0,0,0,1.09-8.17,6.3,6.3,0,0,0-.67-3.32,2.39,2.39,0,0,0-2.15-1,4,4,0,0,0-1.83.47,6.84,6.84,0,0,0-2.11,1.91,18.53,18.53,0,0,0-2.35,4.26,43.86,43.86,0,0,0-1.73,5.35c-.37,1.46-.68,2.89-.94,4.3A30,30,0,0,0,151.13,53.53Z"/><path d="M652.06,55.67a7.13,7.13,0,0,1-3.39-.76,4.94,4.94,0,0,1-2.18-2.47,11,11,0,0,1-.78-4.53,32,32,0,0,1,.51-5.45,36.64,36.64,0,0,1,1.4-5.53,26,26,0,0,1,2.12-4.73,16.51,16.51,0,0,1,2.72-3.57,11,11,0,0,1,3.17-2.22,8.45,8.45,0,0,1,3.47-.76,7.11,7.11,0,0,1,3,.56,5,5,0,0,1,2,1.56,6.2,6.2,0,0,1,1.09,2.38,13.18,13.18,0,0,1,.33,3,34.16,34.16,0,0,1-1.35,9.36,27.69,27.69,0,0,1-3.45,7.85,12.6,12.6,0,0,1-4.16,4.06A8.62,8.62,0,0,1,652.06,55.67Zm-2.66-6.41a9.68,9.68,0,0,0,.3,2.72,2.55,2.55,0,0,0,.91,1.42,2.94,2.94,0,0,0,1.71.44,4.36,4.36,0,0,0,3.1-1.53,15,15,0,0,0,2.84-4.55A43.59,43.59,0,0,0,660.68,40a36.89,36.89,0,0,0,1.09-8.16,6.3,6.3,0,0,0-.67-3.32,2.37,2.37,0,0,0-2.15-1,4,4,0,0,0-1.83.47A6.84,6.84,0,0,0,655,29.86a18.53,18.53,0,0,0-2.35,4.26,45.06,45.06,0,0,0-1.73,5.35c-.37,1.46-.68,2.89-.94,4.29A30.13,30.13,0,0,0,649.4,49.26Z"/><path d="M68.33,53.9c-.09.39-.16.72-.21,1s-.1.61-.14,1-.06.75-.06,1.05a1.88,1.88,0,0,0,.2.94,1.1,1.1,0,0,0,.58.5,4.73,4.73,0,0,0,1.34.24l-.22.95h-8l.22-.95a2.69,2.69,0,0,0,1.1-.38,2.08,2.08,0,0,0,.62-.74,6.23,6.23,0,0,0,.47-1.14c.14-.45.35-1.32.64-2.61l3.3-15a15.67,15.67,0,0,0,.42-3.09,1.69,1.69,0,0,0-.44-1.33,2.61,2.61,0,0,0-1.46-.43l.21-1h17.5l-1.34,6H81.23c-.06-.92-.13-1.65-.22-2.18a4.12,4.12,0,0,0-.34-1.18,1.5,1.5,0,0,0-.45-.57,1.65,1.65,0,0,0-.63-.27,5.87,5.87,0,0,0-1.08-.08h-6L70.23,45.27h3.63A3.57,3.57,0,0,0,75.27,45a2.57,2.57,0,0,0,1-.85,12.1,12.1,0,0,0,1.2-2.09h1.77l-1.88,8.24H75.7c0-.81,0-1.44,0-1.9a2.07,2.07,0,0,0-.23-1,1,1,0,0,0-.53-.39,4.81,4.81,0,0,0-1.23-.1h-3.8Z"/><path d="M82.53,53.67a11,11,0,0,0-.26-1.46,1.11,1.11,0,0,0-.4-.61,1.59,1.59,0,0,0-.89-.26l.15-.67h3.53l1,10.94q4.65-6.36,4.65-9.11a1.13,1.13,0,0,0-.27-.88,1.64,1.64,0,0,0-.94-.28l.14-.67h3.55l.37.69a33.09,33.09,0,0,1-1.86,4c-.76,1.36-1.69,2.86-2.78,4.48s-2.32,3.32-3.66,5.07a30,30,0,0,1-2.58,3,8.33,8.33,0,0,1-1.5,1.19,5,5,0,0,1-1.32.58,5.37,5.37,0,0,1-1.35.17,5.27,5.27,0,0,1-.84-.07,4.44,4.44,0,0,1-.8-.2L77.11,67h1.07a1.29,1.29,0,0,0,.23.75A.69.69,0,0,0,79,68a2.83,2.83,0,0,0,.76-.09,3.09,3.09,0,0,0,.66-.29,5.86,5.86,0,0,0,.86-.66,14.19,14.19,0,0,0,1.13-1.21c.42-.5.9-1.1,1.42-1.81Z"/><path d="M22.68,15.37l12.93,26v2.67L21.11,70.5H38.58a8.18,8.18,0,0,0,2.48-.28,3.87,3.87,0,0,0,1.44-.86,5.63,5.63,0,0,0,1.08-1.62,16.49,16.49,0,0,0,1-2.87c.3-1.23.58-2.82.85-4.79h3.1l-.77,17.19H14.05v-2l16.41-29.9L15.06,13.72v-2H47.84V27.39H45c-.44-2.24-.87-4.06-1.26-5.46a19.82,19.82,0,0,0-1.22-3.35,7.81,7.81,0,0,0-1.28-1.89,4.29,4.29,0,0,0-1.5-1,6.36,6.36,0,0,0-2.26-.34Z"/><path d="M128.76,42.75h-18.9V39.47h18.9Zm0,8.69h-18.9V48.16h18.9Z"/><path d="M634.12,39.67h-18.9V36.39h18.9Zm0,8.7h-18.9V45.08h18.9Z"/><path d="M250.21,53.82h-7.14l.18-.84a2.73,2.73,0,0,0,1-.26,1.81,1.81,0,0,0,.57-.54,4.87,4.87,0,0,0,.5-1.12c.17-.51.36-1.28.59-2.33L249.53,32h-2.15a3.79,3.79,0,0,0-1.68.31,3.62,3.62,0,0,0-1.26,1.14,16.35,16.35,0,0,0-1.53,2.8h-1.62l1.27-5.76h17.71l-1.32,6h-1.63c0-1.11,0-1.93-.08-2.49a3.45,3.45,0,0,0-.33-1.26,1.3,1.3,0,0,0-.58-.6A3.19,3.19,0,0,0,255.1,32h-2.51l-3.68,16.85c-.11.44-.18.8-.22,1.06s-.07.54-.1.83a7.5,7.5,0,0,0,0,.77,1.71,1.71,0,0,0,.17.83,1,1,0,0,0,.51.44,4.24,4.24,0,0,0,1.17.2Z"/><path d="M264.26,55.62a5.76,5.76,0,0,0-.15,1.12.74.74,0,0,0,.24.6,1.83,1.83,0,0,0,.84.32,13.66,13.66,0,0,0,1.82.13l-.24,1.09h-8.62l.22-1.09a16.49,16.49,0,0,0,1.68-.13,3.3,3.3,0,0,0,.94-.28,1.57,1.57,0,0,0,.55-.47,2.67,2.67,0,0,0,.35-.95l1.68-7.68a3.48,3.48,0,0,0,.07-.38,1.58,1.58,0,0,0,0-.23.37.37,0,0,0-.14-.34.65.65,0,0,0-.37-.09,3,3,0,0,0-1,.29c-.46.2-1.08.5-1.87.91l-.54-1.2,6-2.75h1c-.24.91-.47,1.91-.71,3Z"/><path d="M283.59,49.86l-.87,4H279.5l.87-4Z"/><path d="M296.71,48.51a4.35,4.35,0,0,0,1,3.08,3.87,3.87,0,0,0,3,1,5.86,5.86,0,0,0,2.68-.58A4,4,0,0,0,305,50.38a5.21,5.21,0,0,0,.58-2.54,4.44,4.44,0,0,0-.36-1.84,5.46,5.46,0,0,0-1.11-1.52A15,15,0,0,0,302,42.82a14.84,14.84,0,0,1-2.08-1.69,6.64,6.64,0,0,1-1.33-1.85,5.23,5.23,0,0,1-.49-2.29,6.51,6.51,0,0,1,1-3.56,6.34,6.34,0,0,1,2.73-2.37,9.37,9.37,0,0,1,4.07-.84,18.73,18.73,0,0,1,2.9.21,22.4,22.4,0,0,1,2.94.73l-.95,4.39h-1.63a6.47,6.47,0,0,0-.44-2.28,2.41,2.41,0,0,0-1.07-1.19,4,4,0,0,0-1.85-.36,5.11,5.11,0,0,0-2.48.59,4,4,0,0,0-1.63,1.58,4.5,4.5,0,0,0-.56,2.23,4,4,0,0,0,.31,1.59,4.54,4.54,0,0,0,1,1.37,13.65,13.65,0,0,0,2,1.57,17.15,17.15,0,0,1,2.53,2.07,6.32,6.32,0,0,1,1.29,1.94,6.24,6.24,0,0,1,.42,2.38,6.84,6.84,0,0,1-1,3.68,6.47,6.47,0,0,1-2.8,2.49,9.2,9.2,0,0,1-4.11.88,26.7,26.7,0,0,1-3.35-.23,24.88,24.88,0,0,1-3.25-.65l1-4.7Z"/><path d="M324.55,50.42a15.06,15.06,0,0,1-2.41,2.19,8,8,0,0,1-2.31,1.14,8.77,8.77,0,0,1-2.54.34,5.64,5.64,0,0,1-2.31-.43,4.39,4.39,0,0,1-1.6-1.2,4.73,4.73,0,0,1-.94-1.81,7.91,7.91,0,0,1-.31-2.28,13.32,13.32,0,0,1,.65-3.92,11.57,11.57,0,0,1,2-3.76,9.26,9.26,0,0,1,3.17-2.58,8.8,8.8,0,0,1,3.94-.92A4.78,4.78,0,0,1,325,38a3.2,3.2,0,0,1,1,2.62A4.66,4.66,0,0,1,323.27,45q-2.7,1.45-8,1.46a11,11,0,0,0-.21,2.22,3.92,3.92,0,0,0,.7,2.6,2.81,2.81,0,0,0,2.27.81,5.87,5.87,0,0,0,2.84-.68,11.36,11.36,0,0,0,2.66-2.1Zm-9-5.42a21.3,21.3,0,0,0,2.74-.18,10.49,10.49,0,0,0,2-.44,5.14,5.14,0,0,0,1.41-.68,3.66,3.66,0,0,0,.89-.86,3,3,0,0,0,.46-1,4.85,4.85,0,0,0,.13-1.09,2.48,2.48,0,0,0-.49-1.63,1.75,1.75,0,0,0-1.43-.59,3.82,3.82,0,0,0-2.33.87,7.83,7.83,0,0,0-2,2.32A13.2,13.2,0,0,0,315.52,45Z"/><path d="M342.62,53.82h-5.34l2.15-8.68c.14-.56.27-1.17.4-1.85a9.61,9.61,0,0,0,.2-1.81,2.81,2.81,0,0,0-.42-1.74,1.56,1.56,0,0,0-1.3-.53,2.78,2.78,0,0,0-1.53.55,8.77,8.77,0,0,0-1.73,1.66,14.44,14.44,0,0,0-1.51,2.24,9.7,9.7,0,0,0-1,2.76L331,53.82H328.1l2.58-11.67.23-1.16a7.82,7.82,0,0,0,.14-1.29,1.68,1.68,0,0,0-.14-.74.88.88,0,0,0-.5-.39,4.2,4.2,0,0,0-1.18-.18l.21-.91,3.85-.15h1l-1.14,4.44.2.07a15,15,0,0,1,3.21-3.49,5.19,5.19,0,0,1,3.09-1.14,3.21,3.21,0,0,1,2.49.91,3.85,3.85,0,0,1,.85,2.71,9.4,9.4,0,0,1-.11,1.34q-.11.73-.24,1.29l-1.43,6.09a9.24,9.24,0,0,0-.29,2,1.61,1.61,0,0,0,.17.8,1.13,1.13,0,0,0,.53.45,4.23,4.23,0,0,0,1.17.23Z"/><path d="M377.32,46.15h-7.41l.56-2.65h7.41Z"/><path d="M403.18,40.83v.24a2.35,2.35,0,0,1,0,.26,12.32,12.32,0,0,1,2.93-3.11,5.28,5.28,0,0,1,3-1,3.17,3.17,0,0,1,2.46.91,3.94,3.94,0,0,1,.83,2.71,12.79,12.79,0,0,1-.33,2.63l-1.43,6.09a9.24,9.24,0,0,0-.29,2,1.61,1.61,0,0,0,.17.8,1.13,1.13,0,0,0,.53.45,4.23,4.23,0,0,0,1.17.23l-.15.84h-5.33l2.14-8.68c.15-.63.29-1.26.41-1.91a9.54,9.54,0,0,0,.18-1.75,2.83,2.83,0,0,0-.42-1.75,1.64,1.64,0,0,0-1.35-.52,2.72,2.72,0,0,0-1.48.55,7.79,7.79,0,0,0-1.72,1.67A13.78,13.78,0,0,0,403,43.66a11,11,0,0,0-.91,2.69l-1.54,7.47h-2.94l2-8.68c.24-1.06.4-1.84.49-2.35a8.58,8.58,0,0,0,.12-1.31,2.76,2.76,0,0,0-.43-1.75,1.65,1.65,0,0,0-1.35-.52,2.75,2.75,0,0,0-1.5.55,8.45,8.45,0,0,0-1.74,1.72,13.63,13.63,0,0,0-1.47,2.28,11.09,11.09,0,0,0-.85,2.66l-1.55,7.4h-2.93L391,42.15,391.2,41a7.82,7.82,0,0,0,.14-1.29,1.68,1.68,0,0,0-.14-.74.88.88,0,0,0-.5-.39,4.2,4.2,0,0,0-1.18-.18l.21-.91,3.87-.15h.95l-1.12,4.43.2.06a13.55,13.55,0,0,1,3.11-3.47,5.22,5.22,0,0,1,3.12-1.14,3.21,3.21,0,0,1,2.48.93A3.89,3.89,0,0,1,403.18,40.83Z"/><path d="M418.83,49.86l-.87,4h-3.22l.87-4Z"/><path d="M423.33,55.29a5.31,5.31,0,0,0-.55.78,3.25,3.25,0,0,0-.31.74,3.6,3.6,0,0,0-.09.86,2.07,2.07,0,0,0,.91,1.87,5.23,5.23,0,0,0,2.77.59,5.89,5.89,0,0,0,2.8-.6,5.13,5.13,0,0,0,1.9-1.84,13.28,13.28,0,0,0,1.36-3.06,46.51,46.51,0,0,0,1.2-4.86l-.24-.05A15.12,15.12,0,0,1,430,53a5,5,0,0,1-3,1,3.36,3.36,0,0,1-2.87-1.4,6.66,6.66,0,0,1-1-4,14.41,14.41,0,0,1,.49-3.75A13.45,13.45,0,0,1,425,41.6a10.43,10.43,0,0,1,2-2.47,7.84,7.84,0,0,1,2.35-1.46,7.07,7.07,0,0,1,2.58-.48,7.82,7.82,0,0,1,2,.26,7.07,7.07,0,0,1,1.92.87l1.56-1.13,1.08.28-1.76,8c-.13.57-.26,1.21-.39,1.93l-.44,2.24c-.54,2.69-1,4.54-1.28,5.56a12.21,12.21,0,0,1-1.35,2.94,7.61,7.61,0,0,1-1.73,1.8,7.94,7.94,0,0,1-2.32,1.12,11,11,0,0,1-3.1.39q-6.4,0-6.41-3.76a2.88,2.88,0,0,1,.57-1.74,7.77,7.77,0,0,1,1.85-1.66Zm4.87-3.23a3,3,0,0,0,1.72-.6,8.73,8.73,0,0,0,1.83-1.89,14.07,14.07,0,0,0,1.52-2.48,16.89,16.89,0,0,0,1.31-6,2.81,2.81,0,0,0-.56-1.94,2.49,2.49,0,0,0-1.87-.61,4.09,4.09,0,0,0-1.36.23,4.57,4.57,0,0,0-1.3.77A6.53,6.53,0,0,0,428.22,41a10.21,10.21,0,0,0-1.09,2.12,14.42,14.42,0,0,0-.77,2.68,14.84,14.84,0,0,0-.27,2.77,5.44,5.44,0,0,0,.51,2.66A1.71,1.71,0,0,0,428.2,52.06Z"/><path d="M456.55,46.15h-7.42l.57-2.65h7.41Z"/><path d="M478.22,53.82h-7.14l.18-.84a2.79,2.79,0,0,0,1-.26,1.69,1.69,0,0,0,.56-.54,4.43,4.43,0,0,0,.51-1.12c.17-.51.36-1.28.59-2.33L477.54,32h-2.15a3.73,3.73,0,0,0-1.68.31,3.62,3.62,0,0,0-1.26,1.14,16.35,16.35,0,0,0-1.53,2.8h-1.63l1.28-5.76h17.71l-1.32,6h-1.63c0-1.11,0-1.93-.09-2.49a3.28,3.28,0,0,0-.32-1.26,1.35,1.35,0,0,0-.58-.6,3.26,3.26,0,0,0-1.23-.16h-2.52l-3.68,16.85c-.1.44-.17.8-.21,1.06s-.07.54-.1.83a7.5,7.5,0,0,0,0,.77,1.61,1.61,0,0,0,.17.83,1,1,0,0,0,.51.44,4.24,4.24,0,0,0,1.17.2Z"/><path d="M491.69,57a2.39,2.39,0,0,0,.92-.13,1.35,1.35,0,0,0,.55-.42,4.57,4.57,0,0,0,.54-.9H495l-.86,3.38h-9.52l.17-.79A21.72,21.72,0,0,1,489.52,53l1.53-1.29a21.38,21.38,0,0,0,1.63-1.5,6.63,6.63,0,0,0,.83-1.06,3.84,3.84,0,0,0,.41-.92,3.61,3.61,0,0,0,.11-.94,1.5,1.5,0,0,0-.55-1.24,2.41,2.41,0,0,0-1.57-.45,2.83,2.83,0,0,0-1.74.52A3.92,3.92,0,0,0,489,47.63h-1.75l.51-2.32a14.72,14.72,0,0,1,4.84-.94,5.45,5.45,0,0,1,1.76.25,3.57,3.57,0,0,1,1.21.65,2.39,2.39,0,0,1,.69.89,2.46,2.46,0,0,1,.23,1,4.12,4.12,0,0,1-.38,1.81,6.69,6.69,0,0,1-1.37,1.73c-.67.65-1.78,1.58-3.35,2.8A30.12,30.12,0,0,0,487.62,57Z"/><path d="M511.6,49.86l-.87,4h-3.22l.86-4Z"/><path d="M524.71,48.51a4.4,4.4,0,0,0,.95,3.08,3.9,3.9,0,0,0,3,1,5.83,5.83,0,0,0,2.68-.58,3.93,3.93,0,0,0,1.7-1.65,5.21,5.21,0,0,0,.58-2.54,4.29,4.29,0,0,0-.37-1.84,5.22,5.22,0,0,0-1.1-1.52A15,15,0,0,0,530,42.82a15,15,0,0,1-2.09-1.69,6.81,6.81,0,0,1-1.32-1.85,5.23,5.23,0,0,1-.49-2.29,6.51,6.51,0,0,1,1-3.56,6.34,6.34,0,0,1,2.73-2.37,9.34,9.34,0,0,1,4.07-.84,18.6,18.6,0,0,1,2.89.21,22.13,22.13,0,0,1,3,.73l-1,4.39h-1.63a6.7,6.7,0,0,0-.44-2.28,2.41,2.41,0,0,0-1.07-1.19,4.06,4.06,0,0,0-1.85-.36,5.08,5.08,0,0,0-2.48.59,3.94,3.94,0,0,0-1.63,1.58,4.5,4.5,0,0,0-.56,2.23,3.86,3.86,0,0,0,.31,1.59,4.68,4.68,0,0,0,1,1.37,14.89,14.89,0,0,0,2,1.57,16.79,16.79,0,0,1,2.54,2.07,6.32,6.32,0,0,1,1.29,1.94,6.24,6.24,0,0,1,.42,2.38,6.93,6.93,0,0,1-1,3.68,6.47,6.47,0,0,1-2.8,2.49,9.2,9.2,0,0,1-4.11.88,26.7,26.7,0,0,1-3.35-.23,24.55,24.55,0,0,1-3.25-.65l1-4.7Z"/><path d="M552.56,50.42a15.06,15.06,0,0,1-2.41,2.19,8,8,0,0,1-2.31,1.14,8.87,8.87,0,0,1-2.54.34,5.57,5.57,0,0,1-2.31-.43,4.3,4.3,0,0,1-1.6-1.2,4.89,4.89,0,0,1-.95-1.81,8.27,8.27,0,0,1-.3-2.28,13.32,13.32,0,0,1,.65-3.92,11.57,11.57,0,0,1,2-3.76,9.26,9.26,0,0,1,3.17-2.58,8.77,8.77,0,0,1,3.94-.92A4.8,4.8,0,0,1,553,38a3.2,3.2,0,0,1,1,2.62A4.67,4.67,0,0,1,551.28,45c-1.81,1-4.48,1.46-8,1.46a11.82,11.82,0,0,0-.2,2.22,3.92,3.92,0,0,0,.7,2.6,2.81,2.81,0,0,0,2.27.81,5.81,5.81,0,0,0,2.83-.68,11.19,11.19,0,0,0,2.67-2.1Zm-9-5.42a21.43,21.43,0,0,0,2.74-.18,10.66,10.66,0,0,0,2-.44,5.14,5.14,0,0,0,1.41-.68,3.66,3.66,0,0,0,.89-.86,3,3,0,0,0,.46-1,4.85,4.85,0,0,0,.13-1.09,2.53,2.53,0,0,0-.49-1.63,1.75,1.75,0,0,0-1.43-.59,3.87,3.87,0,0,0-2.34.87,8.13,8.13,0,0,0-2,2.32A13.57,13.57,0,0,0,543.53,45Z"/><path d="M570.63,53.82h-5.34l2.15-8.68c.14-.56.27-1.17.4-1.85a9.61,9.61,0,0,0,.2-1.81,2.81,2.81,0,0,0-.42-1.74,1.56,1.56,0,0,0-1.3-.53,2.76,2.76,0,0,0-1.53.55,8.77,8.77,0,0,0-1.73,1.66,15.27,15.27,0,0,0-1.52,2.24,10,10,0,0,0-.95,2.76L559,53.82h-2.93l2.58-11.67c0-.26.13-.65.22-1.16a7,7,0,0,0,.15-1.29,1.54,1.54,0,0,0-.15-.74.86.86,0,0,0-.49-.39,4.2,4.2,0,0,0-1.18-.18l.21-.91,3.85-.15h1l-1.14,4.44.2.07a15,15,0,0,1,3.21-3.49,5.19,5.19,0,0,1,3.09-1.14,3.23,3.23,0,0,1,2.49.91,3.85,3.85,0,0,1,.85,2.71,9.4,9.4,0,0,1-.11,1.34c-.07.49-.16.92-.25,1.29l-1.42,6.09a9.24,9.24,0,0,0-.29,2,1.61,1.61,0,0,0,.17.8,1.13,1.13,0,0,0,.53.45,4.14,4.14,0,0,0,1.17.23Z"/></svg>