<svg id="Capa_1" data-name="Capa 1" xmlns="http://www.w3.org/2000/svg" viewBox="0 0 528.07 64.53"><path d="M23.72,43.63H15.89l.21-.92a3.17,3.17,0,0,0,1.08-.29,1.92,1.92,0,0,0,.62-.59,5.23,5.23,0,0,0,.55-1.23c.18-.55.4-1.4.65-2.55l4-18.33H20.62a4.27,4.27,0,0,0-1.84.33,4.16,4.16,0,0,0-1.38,1.26,17.22,17.22,0,0,0-1.67,3.07H13.94l1.4-6.31H34.75L33.3,24.66H31.51q0-1.82-.09-2.73a3.61,3.61,0,0,0-.36-1.38,1.41,1.41,0,0,0-.64-.66,3.71,3.71,0,0,0-1.34-.17H26.32l-4,18.46c-.11.48-.19.87-.23,1.16s-.08.59-.11.91a6.73,6.73,0,0,0-.05.85,1.79,1.79,0,0,0,.19.91,1.06,1.06,0,0,0,.55.47,4.91,4.91,0,0,0,1.29.23Z"/><path d="M39.11,45.59A6.42,6.42,0,0,0,39,46.83a.78.78,0,0,0,.26.65,2,2,0,0,0,.92.35,12.78,12.78,0,0,0,2,.14l-.26,1.2H32.42l.24-1.2a14.26,14.26,0,0,0,1.84-.14,3.44,3.44,0,0,0,1-.3,1.78,1.78,0,0,0,.6-.52,2.84,2.84,0,0,0,.38-1l1.84-8.41q.06-.24.09-.42c0-.12,0-.2,0-.25a.41.41,0,0,0-.15-.38.74.74,0,0,0-.4-.09,3.05,3.05,0,0,0-1.1.32c-.5.21-1.18.54-2.05,1l-.59-1.31,6.58-3h1.06c-.26,1-.52,2.09-.78,3.28Z"/><path d="M190.47,42.64h-7.82l.2-.92a3.17,3.17,0,0,0,1.08-.29,1.82,1.82,0,0,0,.62-.59,4.85,4.85,0,0,0,.55-1.23,24.91,24.91,0,0,0,.65-2.55l4-18.33h-2.36a4.3,4.3,0,0,0-1.84.33,4.16,4.16,0,0,0-1.38,1.26,17.9,17.9,0,0,0-1.67,3.07h-1.79l1.4-6.31H201.5l-1.45,6.59h-1.79c0-1.21,0-2.12-.09-2.72a3.82,3.82,0,0,0-.35-1.39,1.51,1.51,0,0,0-.64-.66,3.81,3.81,0,0,0-1.35-.17h-2.75l-4,18.46c-.11.49-.19.87-.23,1.16s-.08.59-.11.91,0,.6,0,.85a1.79,1.79,0,0,0,.19.91,1,1,0,0,0,.56.47,4.37,4.37,0,0,0,1.28.23Z"/><path d="M205.87,44.6a6.59,6.59,0,0,0-.17,1.24.81.81,0,0,0,.26.65,2,2,0,0,0,.92.35,12.89,12.89,0,0,0,2,.14l-.26,1.2h-9.45l.25-1.2a14.58,14.58,0,0,0,1.84-.14,3.46,3.46,0,0,0,1-.3,1.6,1.6,0,0,0,.6-.52,2.83,2.83,0,0,0,.39-1l1.83-8.41q.06-.24.09-.42a1.75,1.75,0,0,0,0-.25.41.41,0,0,0-.15-.38.8.8,0,0,0-.41-.09,3.05,3.05,0,0,0-1.1.32c-.49.21-1.18.54-2,1l-.6-1.31,6.58-3h1.06c-.26,1-.52,2.09-.78,3.28Z"/><path d="M81.27,24.74h5.86l-2.36,9.53c-.18.7-.33,1.39-.46,2.09a10.26,10.26,0,0,0-.19,1.9,3.18,3.18,0,0,0,.45,1.91,1.73,1.73,0,0,0,1.42.58,3.12,3.12,0,0,0,1.73-.63,9.18,9.18,0,0,0,2-1.95,14.88,14.88,0,0,0,1.65-2.5,10.89,10.89,0,0,0,.94-2.81L94,24.74h3.22L94.36,37.53c-.07.33-.16.78-.26,1.33A7.77,7.77,0,0,0,94,40.2a1.32,1.32,0,0,0,.44,1.12,3.2,3.2,0,0,0,1.63.4l-.21.92H90.49l1.19-4.7-.24-.08A16.27,16.27,0,0,1,88,41.69a5.72,5.72,0,0,1-3.4,1.25,3.57,3.57,0,0,1-2.73-1,4.23,4.23,0,0,1-.93-3,11.46,11.46,0,0,1,.1-1.32c.07-.51.17-1,.29-1.58l1.56-6.65a12.86,12.86,0,0,0,.25-1.31,5.54,5.54,0,0,0,.07-.83,1.39,1.39,0,0,0-.45-1.18,3.32,3.32,0,0,0-1.6-.43Z"/><path d="M103.36,38.29l-1,4.35H98.88l1-4.35Z"/><path d="M123.92,42.64h-5.85l2.36-9.51c.15-.62.29-1.29.43-2a10,10,0,0,0,.22-2,3.08,3.08,0,0,0-.46-1.91,1.68,1.68,0,0,0-1.42-.58,3,3,0,0,0-1.68.61,9.2,9.2,0,0,0-1.89,1.81A15.87,15.87,0,0,0,114,31.51a10.47,10.47,0,0,0-1,3l-1.7,8.11H108l2.82-12.79c.07-.29.15-.71.25-1.28a7.39,7.39,0,0,0,.16-1.4,1.64,1.64,0,0,0-.16-.81.89.89,0,0,0-.53-.43,5,5,0,0,0-1.3-.2l.23-1,4.22-.17h1.06l-1.25,4.87.22.07a16.75,16.75,0,0,1,3.52-3.83,5.67,5.67,0,0,1,3.38-1.24,3.54,3.54,0,0,1,2.73,1,4.23,4.23,0,0,1,.93,3,9.9,9.9,0,0,1-.12,1.47q-.12.8-.27,1.41L122.34,38a9.92,9.92,0,0,0-.31,2.13,1.78,1.78,0,0,0,.18.88,1.23,1.23,0,0,0,.58.49,4.82,4.82,0,0,0,1.28.26Z"/><path d="M246.77,47a6.15,6.15,0,0,1-3-.66,4.32,4.32,0,0,1-1.91-2.15,9.73,9.73,0,0,1-.68-3.95,27.58,27.58,0,0,1,.45-4.75,31.74,31.74,0,0,1,1.22-4.82,22.54,22.54,0,0,1,1.85-4.12,15,15,0,0,1,2.37-3.12,9.56,9.56,0,0,1,2.76-1.92,7.18,7.18,0,0,1,3-.67,6,6,0,0,1,2.59.49,4.33,4.33,0,0,1,1.71,1.36,5.48,5.48,0,0,1,1,2.07,11.57,11.57,0,0,1,.29,2.65,29.65,29.65,0,0,1-1.18,8.16,24.17,24.17,0,0,1-3,6.84,11.07,11.07,0,0,1-3.63,3.54A7.55,7.55,0,0,1,246.77,47Zm-2.32-5.58a8.62,8.62,0,0,0,.26,2.37,2.2,2.2,0,0,0,.8,1.23,2.49,2.49,0,0,0,1.49.39A3.83,3.83,0,0,0,249.7,44a13.13,13.13,0,0,0,2.47-4,38.15,38.15,0,0,0,2.11-6.76,32,32,0,0,0,.95-7.12,5.51,5.51,0,0,0-.58-2.89,2.08,2.08,0,0,0-1.87-.91,3.43,3.43,0,0,0-1.6.41,6,6,0,0,0-1.84,1.67,16.18,16.18,0,0,0-2.05,3.71,39.5,39.5,0,0,0-1.5,4.66c-.32,1.27-.6,2.52-.82,3.74A25.43,25.43,0,0,0,244.45,41.38Z"/><path d="M263.88,42.32a13.39,13.39,0,0,1-.13,1.61,11.37,11.37,0,0,1-.4,1.79,9.05,9.05,0,0,1-.62,1.52,9.25,9.25,0,0,1-.92,1.35,12.75,12.75,0,0,1-1.52,1.5,22.17,22.17,0,0,1-2.45,1.79L257,50.72a16.33,16.33,0,0,0,1.39-1.27,6.33,6.33,0,0,0,.8-1.07,6.71,6.71,0,0,0,.57-1.26,19,19,0,0,0,.55-2.07,25.06,25.06,0,0,0,.45-2.73Z"/><path d="M271.56,26l.76-3.59a22.22,22.22,0,0,1,3.83-1.27,17.28,17.28,0,0,1,3.64-.38,8.93,8.93,0,0,1,2.29.28,5.85,5.85,0,0,1,1.89.86,4.29,4.29,0,0,1,1.28,1.49,4.71,4.71,0,0,1,.47,2.16,6.76,6.76,0,0,1-.67,3.07,7,7,0,0,1-2.16,2.46,17.38,17.38,0,0,1-4.08,2.13l0,.21a6.52,6.52,0,0,1,3.53,2,5.15,5.15,0,0,1,1.23,3.49,8,8,0,0,1-.67,3.12A7.58,7.58,0,0,1,281,44.71a8,8,0,0,1-3,1.68,13.56,13.56,0,0,1-4.15.57,18.71,18.71,0,0,1-3.66-.39,14.89,14.89,0,0,1-3.2-.94l.86-4H270a3.91,3.91,0,0,0,1.14,2.81,4.4,4.4,0,0,0,3,.9,5.88,5.88,0,0,0,3.18-.83,5.37,5.37,0,0,0,2.05-2.41,8.34,8.34,0,0,0,.74-3.6,3.6,3.6,0,0,0-1.29-3,6.2,6.2,0,0,0-3.88-1h-1.86l.36-1.65a13.36,13.36,0,0,0,4-.82,8.37,8.37,0,0,0,2.81-1.71,6,6,0,0,0,1.53-2.19,6.21,6.21,0,0,0,.46-2.34,3.15,3.15,0,0,0-.91-2.4,3.5,3.5,0,0,0-2.49-.86,4.76,4.76,0,0,0-2.94.88,7,7,0,0,0-2,2.64Z"/><path d="M294.55,32.26a10.8,10.8,0,0,1,3.7-.62,6.94,6.94,0,0,1,3.26.73,5.1,5.1,0,0,1,2.1,2.09,6.62,6.62,0,0,1,.72,3.15,11,11,0,0,1-1.1,4.77A7.43,7.43,0,0,1,300,45.83,11.14,11.14,0,0,1,294.74,47a17.79,17.79,0,0,1-3.43-.36,16,16,0,0,1-3.28-1l.85-4H291c.08,2.47,1.35,3.71,3.83,3.71a5.18,5.18,0,0,0,3.33-1,6.42,6.42,0,0,0,2-2.85,10.42,10.42,0,0,0,.67-3.61,4.58,4.58,0,0,0-1-3.2,3.72,3.72,0,0,0-2.91-1.11,11.35,11.35,0,0,0-1.62.1,11.17,11.17,0,0,0-1.75.39L292,32.84l2.58-11.74h9.28a2.94,2.94,0,0,0,.92-.1,1.14,1.14,0,0,0,.49-.35,2.89,2.89,0,0,0,.43-.79h1.51L306,24.21h-9.67Z"/><path d="M331,29.47l-1.32,2-3.92-3.37L325,34h-2.58l1.78-5.86-4.9,3.45-1.1-2.17,5.69-2.48-4.48-2.51,1.37-2.06,3.94,3.38.71-5.87h2.59l-1.77,5.87,4.85-3.43,1.12,2.17-5.67,2.45Z"/><path d="M349.77,43.66a6,6,0,0,0,1.07-.07,1.87,1.87,0,0,0,.62-.22A2,2,0,0,0,352,43a4.21,4.21,0,0,0,.48-.65q.21-.37.54-1.11h1.73l-1.37,5.47H338.76l.19-.9a27.78,27.78,0,0,1,2.81-4.08,57.12,57.12,0,0,1,4.72-5c1.66-1.59,2.8-2.71,3.44-3.37a26.94,26.94,0,0,0,2.58-3A9,9,0,0,0,353.76,28a6.71,6.71,0,0,0,.38-2.21,3.22,3.22,0,0,0-.89-2.43,3.52,3.52,0,0,0-2.52-.85,4.46,4.46,0,0,0-2.74.92,6.46,6.46,0,0,0-2,2.6h-2.4l.8-3.59a26,26,0,0,1,3.9-1.25,16.15,16.15,0,0,1,3.57-.4,7.49,7.49,0,0,1,3.16.61,4.58,4.58,0,0,1,2,1.68,4.31,4.31,0,0,1,.68,2.37,8.12,8.12,0,0,1-.29,2.22,8.16,8.16,0,0,1-.93,2,20,20,0,0,1-2.4,2.86Q352.67,34,349.34,37a50,50,0,0,0-6.45,6.64Z"/><path d="M366.87,32.26a10.76,10.76,0,0,1,3.7-.62,6.9,6.9,0,0,1,3.25.73,5.06,5.06,0,0,1,2.11,2.09,6.62,6.62,0,0,1,.72,3.15,10.89,10.89,0,0,1-1.11,4.77,7.36,7.36,0,0,1-3.25,3.45A11.16,11.16,0,0,1,367.06,47a17.79,17.79,0,0,1-3.43-.36,15.85,15.85,0,0,1-3.28-1l.85-4h2.14q.11,3.71,3.83,3.71a5.18,5.18,0,0,0,3.33-1,6.42,6.42,0,0,0,2-2.85,10.42,10.42,0,0,0,.67-3.61,4.58,4.58,0,0,0-1-3.2,3.73,3.73,0,0,0-2.92-1.11,11.54,11.54,0,0,0-1.62.1,11.33,11.33,0,0,0-1.74.39l-1.58-1.2,2.58-11.74h9.28a2.94,2.94,0,0,0,.92-.1,1.14,1.14,0,0,0,.49-.35,2.89,2.89,0,0,0,.43-.79h1.51l-1.19,4.35h-9.67Z"/><path d="M431.19,33.85a5.49,5.49,0,0,1,2.25,1.94,5.16,5.16,0,0,1,.75,2.84A7.7,7.7,0,0,1,429.36,46a13.27,13.27,0,0,1-5.4,1,12.52,12.52,0,0,1-4.39-.7,5.93,5.93,0,0,1-2.84-2,5.36,5.36,0,0,1-1-3.26,7.5,7.5,0,0,1,1.38-4.54,10,10,0,0,1,4.21-3.12l0-.25a7.06,7.06,0,0,1-1.88-2.2,5.59,5.59,0,0,1-.65-2.65,6.5,6.5,0,0,1,1.27-4.05,7.55,7.55,0,0,1,3.48-2.51,14.49,14.49,0,0,1,5.07-.83,11.86,11.86,0,0,1,4.53.74,5.46,5.46,0,0,1,2.6,2,5.06,5.06,0,0,1,.81,2.82,6.8,6.8,0,0,1-1.32,4.21,10.26,10.26,0,0,1-4.08,3ZM421,41.72a3.35,3.35,0,0,0,.74,2.4,3,3,0,0,0,2.26.76,4.31,4.31,0,0,0,1.55-.25,3.84,3.84,0,0,0,1.26-.82,5.49,5.49,0,0,0,1.07-1.48,9,9,0,0,0,.74-2.13,11.9,11.9,0,0,0,.27-2.59,3.41,3.41,0,0,0-.72-2.34,2.64,2.64,0,0,0-2.07-.8,3.92,3.92,0,0,0-2.68,1,6.56,6.56,0,0,0-1.78,2.84A10.4,10.4,0,0,0,421,41.72Zm2.91-12.49a5,5,0,0,0,.23,1.62A2.25,2.25,0,0,0,425,32a2.81,2.81,0,0,0,1.65.44,4,4,0,0,0,2.45-.81,5.3,5.3,0,0,0,1.7-2.28,8.74,8.74,0,0,0,.61-3.3,3.47,3.47,0,0,0-.68-2.35,2.6,2.6,0,0,0-2-.76,4.14,4.14,0,0,0-2.23.59,4.58,4.58,0,0,0-1.5,1.59,6.9,6.9,0,0,0-.8,2.14A9.86,9.86,0,0,0,423.93,29.23Z"/><path d="M442.4,41c0,.8-.07,1.53-.14,2.19a13.44,13.44,0,0,1-.37,1.93,7.33,7.33,0,0,1-.66,1.7A8.5,8.5,0,0,1,440,48.54a19.32,19.32,0,0,1-2,1.81,29.34,29.34,0,0,1-2.6,1.83l-1.27-1.76a8.1,8.1,0,0,0,3.39-5.16,26.34,26.34,0,0,0,.61-4.22Z"/><path d="M467.77,22.37,453,46.75H449l.28-1.29,12.83-19,.06-.28h-7.46a5.15,5.15,0,0,0-1.58.19,2.12,2.12,0,0,0-1,.71,8,8,0,0,0-.95,1.87H449l1.91-7.77H468Z"/><path d="M467.89,45.53l1-4.56h3a4.43,4.43,0,0,0,.91,2.92,3.22,3.22,0,0,0,2.53,1,4.13,4.13,0,0,0,2.75-.94,5.69,5.69,0,0,0,1.73-2.61,9.47,9.47,0,0,0,.6-3.19,4,4,0,0,0-.88-2.81,3.39,3.39,0,0,0-2.64-1,10,10,0,0,0-1.75.15,11.54,11.54,0,0,0-1.76.47l-1.56-1.18,2.75-12.69h9.8a3.33,3.33,0,0,0,1-.11,1.42,1.42,0,0,0,.54-.3,4.68,4.68,0,0,0,.62-.83h1.93l-1.64,6h-10.2l-1.49,6.73a13.75,13.75,0,0,1,4.39-.64,7.93,7.93,0,0,1,3.38.67,5,5,0,0,1,2.24,2,5.88,5.88,0,0,1,.79,3.12,9.4,9.4,0,0,1-.17,1.94,9.5,9.5,0,0,1-.76,2.38,7.61,7.61,0,0,1-3.46,3.62,10.41,10.41,0,0,1-2.87,1,17.42,17.42,0,0,1-3.32.31,20.83,20.83,0,0,1-4-.41A14.55,14.55,0,0,1,467.89,45.53Z"/><path d="M502.09,21.14h7.06l3.59,10.6c1,2.88,1.75,5.43,2.32,7.63h.24c.36-2.15.83-4.55,1.42-7.17l1.3-6a10.48,10.48,0,0,0,.24-2.19,1.59,1.59,0,0,0-.36-1.15,2.09,2.09,0,0,0-1.18-.48l.26-1.23h6.84l-.26,1.23a2.94,2.94,0,0,0-1.2.62,3.1,3.1,0,0,0-.72,1.12,13,13,0,0,0-.59,2.08L516.57,46.7h-4.24l-4.46-13.09c-.35-1-.66-2-.93-2.88s-.6-2-1-3.4h-.28c-.1.83-.28,2-.56,3.45s-.61,3.06-1,4.77l-1.34,6.1c-.07.33-.12.58-.15.77s0,.39-.06.61,0,.49,0,.81a1.57,1.57,0,0,0,.36,1.15,2,2,0,0,0,1.18.48l-.26,1.24H497l.26-1.24a2.94,2.94,0,0,0,1.2-.62,3.14,3.14,0,0,0,.72-1.11,13.2,13.2,0,0,0,.59-2.09l3.39-15.45a10.2,10.2,0,0,0,.24-2.19,1.59,1.59,0,0,0-.36-1.15,2.12,2.12,0,0,0-1.19-.48Z"/><path d="M133.76,46.16l.12-.52a1.41,1.41,0,0,0,.76-.28,1.27,1.27,0,0,0,.38-.66,4.17,4.17,0,0,0,.12-1.11c0-.27,0-.58,0-.91L135,41.3H130.3l-.59,1.05a8.79,8.79,0,0,0-.61,1.27,2.8,2.8,0,0,0-.19.94q0,.9,1.08,1.08l-.12.52h-4.39l.12-.52a1.35,1.35,0,0,0,.63-.27,3.36,3.36,0,0,0,.62-.66,15.13,15.13,0,0,0,.94-1.48l6.88-11.9h1.63l.77,12a7,7,0,0,0,.19,1.33,1.63,1.63,0,0,0,.38.71,1.37,1.37,0,0,0,.71.3l-.12.52Zm-3-5.8H135l-.19-3.46c0-.47,0-1.06-.05-1.77s0-1.22,0-1.54h-.12Z"/><path d="M70.58,31H56.4V28.54H70.58Zm0,6.52H56.4V35.06H70.58Z"/><path d="M231.73,30H217.55V27.55h14.18Zm0,6.52H217.55V34.07h14.18Z"/><path d="M403.31,31H389.13V28.54h14.18Zm0,6.52H389.13V35.06h14.18Z"/></svg>