<svg id="Capa_1" data-name="Capa 1" xmlns="http://www.w3.org/2000/svg" viewBox="0 0 512.37 84.77"><path d="M248.43,63.72q-6.27,0-6.28-7.94a27.6,27.6,0,0,1,3.67-13.5q3.68-6.64,9.31-6.64,5.91,0,5.91,7.78A28.66,28.66,0,0,1,257.46,57Q253.88,63.73,248.43,63.72Zm-2-13.68a34,34,0,0,0-1,7.47q0,4.56,3.41,4.56,2.41,0,4.43-3.18A29,29,0,0,0,256.57,50Zm.49-1.85H257a39.61,39.61,0,0,0,.76-6.42c0-3-1-4.48-3-4.48q-2.3,0-4.33,2.84A25.63,25.63,0,0,0,246.93,48.19Z"/><path d="M470.58,26.52v.2a1.7,1.7,0,0,1,0,.22A10.5,10.5,0,0,1,473,24.32a4.4,4.4,0,0,1,2.55-.85,2.67,2.67,0,0,1,2.06.77,3.29,3.29,0,0,1,.71,2.28,10.57,10.57,0,0,1-.29,2.22l-1.2,5.12a7.82,7.82,0,0,0-.24,1.65,1.39,1.39,0,0,0,.14.67.94.94,0,0,0,.45.38,4,4,0,0,0,1,.2l-.13.7h-4.48l1.8-7.31c.13-.53.25-1.06.35-1.6a8.33,8.33,0,0,0,.15-1.48,2.38,2.38,0,0,0-.36-1.48,1.39,1.39,0,0,0-1.13-.43,2.3,2.3,0,0,0-1.25.46A6.3,6.3,0,0,0,471.7,27a11.06,11.06,0,0,0-1.24,1.88,8.92,8.92,0,0,0-.76,2.26l-1.3,6.29h-2.48l1.65-7.31c.2-.89.33-1.55.4-2a6,6,0,0,0,.11-1.1,2.38,2.38,0,0,0-.36-1.48,1.41,1.41,0,0,0-1.14-.43,2.3,2.3,0,0,0-1.26.46,7.08,7.08,0,0,0-1.47,1.45A10.45,10.45,0,0,0,462.62,29a8.66,8.66,0,0,0-.73,2.24l-1.3,6.23h-2.47l2.17-9.83c0-.22.11-.55.2-1a6.09,6.09,0,0,0,.12-1.08,1.31,1.31,0,0,0-.12-.62.75.75,0,0,0-.42-.33,3.44,3.44,0,0,0-1-.16l.17-.76,3.26-.13h.8l-.94,3.73.17.06a11.51,11.51,0,0,1,2.61-2.93,4.42,4.42,0,0,1,2.63-1,2.66,2.66,0,0,1,2.09.79A3.21,3.21,0,0,1,470.58,26.52Z"/><path d="M493.61,23.7l.39.72c-.36.86-.62,1.49-.81,1.9s-.44.93-.76,1.55-.68,1.27-1.07,1.95S490.51,31.23,490,32s-1.08,1.63-1.72,2.56-1.4,2-2.27,3.12h-1.79L482.9,26.83a8.23,8.23,0,0,0-.27-1.51,1.3,1.3,0,0,0-.44-.66,1.76,1.76,0,0,0-.9-.25l.16-.71h3.67l1.09,11.45a45.78,45.78,0,0,0,3.64-5.75A9,9,0,0,0,491,25.62a1.22,1.22,0,0,0-.29-.93,1.69,1.69,0,0,0-1-.28l.14-.71Z"/><path d="M473.36,55.41h.86l-1,3.54.17,0A12,12,0,0,1,476,56.21a4.6,4.6,0,0,1,2.66-.9,8.57,8.57,0,0,1,1.75.15l-.69,3.23h-1.47a3,3,0,0,0-.36-1.14.82.82,0,0,0-.75-.39,2.14,2.14,0,0,0-1.29.58,8.51,8.51,0,0,0-1.49,1.58,9.74,9.74,0,0,0-1.13,1.86,8,8,0,0,0-.58,1.88l-1.3,6.24h-2.48l2.18-9.83a10.47,10.47,0,0,0,.3-2.06,1.35,1.35,0,0,0-.13-.63.78.78,0,0,0-.42-.33,3.83,3.83,0,0,0-1-.15l.16-.76Z"/><line x1="442.41" y1="46.77" x2="500.5" y2="46.77" style="fill:none;stroke:#000;stroke-miterlimit:10;stroke-width:1.0310436750901006px"/><path d="M147.43,59.36h-9.06l.23-1.07a3.63,3.63,0,0,0,1.25-.33,2,2,0,0,0,.72-.69,6,6,0,0,0,.64-1.41,27.79,27.79,0,0,0,.75-3l4.61-21.23h-2.73a4.88,4.88,0,0,0-2.13.39,4.59,4.59,0,0,0-1.6,1.45,21.08,21.08,0,0,0-1.94,3.56h-2.06l1.61-7.31H160.2l-1.68,7.63h-2.07a30.87,30.87,0,0,0-.11-3.15,4.21,4.21,0,0,0-.41-1.61,1.63,1.63,0,0,0-.74-.75,4,4,0,0,0-1.56-.21h-3.19l-4.67,21.38c-.13.56-.22,1-.27,1.34s-.09.68-.12,1a9.32,9.32,0,0,0-.06,1,2.05,2.05,0,0,0,.22,1,1.24,1.24,0,0,0,.64.55,5.22,5.22,0,0,0,1.49.26Z"/><path d="M59.71,51.06c-.09.4-.17.73-.22,1s-.1.61-.14,1-.05.76-.05,1.06a1.93,1.93,0,0,0,.19,1,1.19,1.19,0,0,0,.59.51,5.33,5.33,0,0,0,1.35.23l-.22,1h-8l.22-1a2.65,2.65,0,0,0,1.11-.38,2.19,2.19,0,0,0,.63-.74,7.58,7.58,0,0,0,.47-1.15c.14-.46.36-1.33.64-2.63l3.33-15.18A15.24,15.24,0,0,0,60,32.64a1.66,1.66,0,0,0-.45-1.34,2.54,2.54,0,0,0-1.47-.44l.22-1H76L74.6,36H72.72a17.68,17.68,0,0,0-.22-2.2,4.11,4.11,0,0,0-.34-1.19A1.57,1.57,0,0,0,71.7,32a1.51,1.51,0,0,0-.63-.27A6,6,0,0,0,70,31.63H64L61.62,42.35h3.66a3.89,3.89,0,0,0,1.43-.23,2.78,2.78,0,0,0,1.06-.86A12.27,12.27,0,0,0,69,39.14h1.78l-1.9,8.32H67.14c0-.82,0-1.45,0-1.91a2.13,2.13,0,0,0-.23-1,1.06,1.06,0,0,0-.53-.39,5,5,0,0,0-1.24-.1H61.25Z"/><path d="M84.61,48.48q-2.7,2.88-5.64,5.68l1.29,3c.34.81.62,1.41.82,1.8a3.93,3.93,0,0,0,.55.83,2,2,0,0,0,.5.38,3,3,0,0,0,.8.18l-.16.68H79.31l-1.92-5.58-.89.81c-.36.35-.72.72-1.06,1.11a7.33,7.33,0,0,0-.72,1,2.37,2.37,0,0,0-.27.62,2.48,2.48,0,0,0-.06.54.76.76,0,0,0,.2.57,1.17,1.17,0,0,0,.68.29l-.15.68h-4l-.26-.68c2-2.17,4-4.18,6-6l-1.32-3.1c-.27-.63-.49-1.1-.66-1.43a3.44,3.44,0,0,0-.48-.77,1.46,1.46,0,0,0-.52-.41,2.44,2.44,0,0,0-.86-.19l.16-.68h3.45L78.51,53q.67-.62,1.29-1.29a7.54,7.54,0,0,0,.86-1.05A3,3,0,0,0,81,50a2.19,2.19,0,0,0,.1-.63c0-.51-.3-.81-.89-.88l.15-.68h4Z"/><path d="M391.59,54.33a6.07,6.07,0,0,0-.18-1.53,1.31,1.31,0,0,0-.47-.71,1.55,1.55,0,0,0-.92-.23A3.47,3.47,0,0,0,387.5,53a8.14,8.14,0,0,0-1.83,3.17,12.07,12.07,0,0,0-.71,3.93,5.47,5.47,0,0,0,.11,1.1,2.45,2.45,0,0,0,.36.89,1.77,1.77,0,0,0,.68.59,2.39,2.39,0,0,0,1.07.22,4.66,4.66,0,0,0,2.19-.48,7.92,7.92,0,0,0,1.95-1.51l.85.85a9.41,9.41,0,0,1-2.63,2.11,6.36,6.36,0,0,1-2.86.66,3.81,3.81,0,0,1-3.05-1.19,5.1,5.1,0,0,1-1-3.47,11,11,0,0,1,.55-3.26,9.42,9.42,0,0,1,1.63-3.13,6.75,6.75,0,0,1,2.5-2,7,7,0,0,1,3.05-.67,12.25,12.25,0,0,1,1.94.13,13.45,13.45,0,0,1,1.46.29L393,54.33Z"/><path d="M501.89,27.88a2.79,2.79,0,0,0,.56,0,.86.86,0,0,0,.32-.11,1,1,0,0,0,.27-.22,2.3,2.3,0,0,0,.25-.34c.07-.13.17-.32.29-.58h.9l-.72,2.85H496.1l.1-.46a14.49,14.49,0,0,1,1.48-2.13,29.32,29.32,0,0,1,2.48-2.6c.87-.83,1.47-1.41,1.8-1.76a13.23,13.23,0,0,0,1.36-1.55,5,5,0,0,0,.67-1.22,3.51,3.51,0,0,0,.19-1.15,1.68,1.68,0,0,0-.46-1.27,1.83,1.83,0,0,0-1.33-.44,2.41,2.41,0,0,0-1.44.47,3.46,3.46,0,0,0-1,1.36h-1.26l.42-1.87a12.91,12.91,0,0,1,2.05-.65A8.6,8.6,0,0,1,503,16a4,4,0,0,1,1.65.31,2.46,2.46,0,0,1,1.06.88,2.27,2.27,0,0,1,.36,1.24,4.22,4.22,0,0,1-.16,1.16,4.44,4.44,0,0,1-.49,1,10.5,10.5,0,0,1-1.26,1.49c-.51.52-1.34,1.29-2.51,2.33a26.36,26.36,0,0,0-3.39,3.47Z"/><path d="M13.64,12.18l13,26.27v2.71L12.06,67.82H29.68a8.29,8.29,0,0,0,2.51-.29,3.76,3.76,0,0,0,1.44-.87A5.39,5.39,0,0,0,34.73,65a15.84,15.84,0,0,0,1-2.9,46.17,46.17,0,0,0,.86-4.84h3.14L38.9,74.64h-34v-2L21.49,42.47,6,10.51v-2H39V24.31H36.14c-.45-2.26-.87-4.09-1.27-5.51a19,19,0,0,0-1.24-3.38,7.43,7.43,0,0,0-1.28-1.9,4.48,4.48,0,0,0-1.51-1,6.52,6.52,0,0,0-2.28-.34Z"/><path d="M120.69,39.81H101.61V36.5h19.08Zm0,8.77H101.61V45.27h19.08Z"/><path d="M305.29,47.82H286.21V44.51h19.08Zm0,8.77H286.21V53.28h19.08Z"/><path d="M428.42,45.31H409.34V42h19.08Zm0,8.77H409.34V50.77h19.08Z"/><path d="M181.65,44a4.08,4.08,0,0,0-1-2.44,3.17,3.17,0,0,0-2.34-.76,3.69,3.69,0,0,0-1.58.33,2.64,2.64,0,0,0-1.11,1,2.58,2.58,0,0,0-.41,1.47,2.79,2.79,0,0,0,.28,1.27,4.08,4.08,0,0,0,.93,1.19,16.29,16.29,0,0,0,1.85,1.42,8.61,8.61,0,0,1,2.53,2.36,4.76,4.76,0,0,1,.73,2.64,5.18,5.18,0,0,1-.84,3,5.06,5.06,0,0,1-2.29,1.82,8.44,8.44,0,0,1-3.27.6,18.44,18.44,0,0,1-3.06-.24,27.64,27.64,0,0,1-2.76-.62l.88-4h1.45a4,4,0,0,0,1,2.57,3.34,3.34,0,0,0,2.47.85,3.76,3.76,0,0,0,2.58-.83,2.82,2.82,0,0,0,.93-2.2,3.46,3.46,0,0,0-.28-1.44,3.73,3.73,0,0,0-.87-1.22,13,13,0,0,0-1.69-1.33,13.37,13.37,0,0,1-1.9-1.52,5.45,5.45,0,0,1-1.13-1.56,4.45,4.45,0,0,1-.39-1.88,4.73,4.73,0,0,1,.76-2.7A4.81,4.81,0,0,1,175.3,40a8.33,8.33,0,0,1,3.29-.6,16.59,16.59,0,0,1,5.41.81L183.14,44Z"/><path d="M199.05,53.85a15.16,15.16,0,0,1-2.64,2.39,8.74,8.74,0,0,1-2.52,1.26,9.86,9.86,0,0,1-2.79.37,6.11,6.11,0,0,1-2.53-.48,4.73,4.73,0,0,1-1.76-1.31,5.34,5.34,0,0,1-1-2,9.05,9.05,0,0,1-.33-2.5,14.36,14.36,0,0,1,.71-4.3,12.61,12.61,0,0,1,2.17-4.12,10,10,0,0,1,3.47-2.82,9.59,9.59,0,0,1,4.32-1,5.25,5.25,0,0,1,3.37.92,3.49,3.49,0,0,1,1.13,2.87,5.11,5.11,0,0,1-3,4.77q-3,1.59-8.8,1.59a12.44,12.44,0,0,0-.22,2.44,4.32,4.32,0,0,0,.76,2.85,3.12,3.12,0,0,0,2.49.89,6.43,6.43,0,0,0,3.1-.75,12.55,12.55,0,0,0,2.92-2.3Zm-9.89-5.94a23.68,23.68,0,0,0,3-.2,12.36,12.36,0,0,0,2.22-.48,6.32,6.32,0,0,0,1.54-.74,3.87,3.87,0,0,0,1-1,3.12,3.12,0,0,0,.5-1.08,5.23,5.23,0,0,0,.14-1.19,2.77,2.77,0,0,0-.53-1.79,1.92,1.92,0,0,0-1.57-.65,4.24,4.24,0,0,0-2.56,1,8.79,8.79,0,0,0-2.21,2.54A15.09,15.09,0,0,0,189.16,47.91Z"/><path d="M218.85,57.57H213l2.36-9.51c.15-.61.29-1.29.44-2a10.79,10.79,0,0,0,.21-2,3.1,3.1,0,0,0-.46-1.91,1.7,1.7,0,0,0-1.42-.58,3.1,3.1,0,0,0-1.68.61A9.28,9.28,0,0,0,210.56,44a16,16,0,0,0-1.66,2.45,11.23,11.23,0,0,0-1.05,3l-1.69,8.11h-3.22l2.83-12.79c.06-.28.14-.71.25-1.27a8.43,8.43,0,0,0,.16-1.4,1.8,1.8,0,0,0-.16-.82,1,1,0,0,0-.54-.43,5.42,5.42,0,0,0-1.29-.2l.22-1,4.22-.17h1.06l-1.25,4.87.23.08a16.31,16.31,0,0,1,3.51-3.83,5.71,5.71,0,0,1,3.38-1.25,3.58,3.58,0,0,1,2.74,1,4.23,4.23,0,0,1,.93,3,9.9,9.9,0,0,1-.12,1.47c-.09.53-.18,1-.27,1.42l-1.57,6.66A9.92,9.92,0,0,0,217,55a1.85,1.85,0,0,0,.18.89,1.21,1.21,0,0,0,.58.48,4.82,4.82,0,0,0,1.28.26Z"/><path d="M239.7,65.72a8.4,8.4,0,0,1-4.28-1A5.46,5.46,0,0,1,233.05,62a12.35,12.35,0,0,1-.73-4.58,31.28,31.28,0,0,1,.33-4.3q.45-3,1.29-6.76c.57-2.49,1.12-4.55,1.67-6.18a22.44,22.44,0,0,1,2-4.56,10.71,10.71,0,0,1,2.4-2.8,8.89,8.89,0,0,1,3-1.54,15,15,0,0,1,4.36-.56L247,32.24a8.26,8.26,0,0,0-2.7.37,5.7,5.7,0,0,0-1.89,1.13,9,9,0,0,0-1.84,2.41,27.28,27.28,0,0,0-2,4.85c-.55,1.72-1.09,3.83-1.64,6.31-.45,2-.81,3.86-1.08,5.49a36.41,36.41,0,0,0-.56,5.65,9.18,9.18,0,0,0,.53,3.45,3.47,3.47,0,0,0,1.53,1.77,5.72,5.72,0,0,0,2.61.51Z"/><path d="M265.72,30.7a8.4,8.4,0,0,1,4.28,1,5.46,5.46,0,0,1,2.37,2.78,12.3,12.3,0,0,1,.74,4.58,30.06,30.06,0,0,1-.34,4.21q-.45,3.26-1.38,7.25-.87,3.68-1.67,6a22.69,22.69,0,0,1-2,4.38,10.37,10.37,0,0,1-2.38,2.76,8.74,8.74,0,0,1-3,1.51,14.71,14.71,0,0,1-4.35.57l.33-1.54a8.15,8.15,0,0,0,2.69-.37,5.62,5.62,0,0,0,1.87-1.11,9.1,9.1,0,0,0,1.89-2.49,25.83,25.83,0,0,0,2-4.84c.62-2,1.2-4.24,1.74-6.82q.66-3,1-5.32a34.16,34.16,0,0,0,.51-5.26,9,9,0,0,0-.54-3.47A3.37,3.37,0,0,0,268,32.74a5.8,5.8,0,0,0-2.59-.5Z"/><path d="M339.48,44.74V45c0,.09,0,.18,0,.28a13.45,13.45,0,0,1,3.22-3.4A5.72,5.72,0,0,1,346,40.77a3.51,3.51,0,0,1,2.69,1,4.28,4.28,0,0,1,.92,3,13.58,13.58,0,0,1-.38,2.88l-1.56,6.67a9.92,9.92,0,0,0-.31,2.13,1.85,1.85,0,0,0,.18.89,1.17,1.17,0,0,0,.58.48,4.82,4.82,0,0,0,1.28.26l-.17.92h-5.83l2.34-9.51c.17-.69.32-1.38.45-2.09a10.62,10.62,0,0,0,.2-1.92,3.07,3.07,0,0,0-.47-1.92,1.79,1.79,0,0,0-1.47-.57,3,3,0,0,0-1.62.6,8.68,8.68,0,0,0-1.89,1.84,14.64,14.64,0,0,0-1.61,2.44,12.26,12.26,0,0,0-1,2.95L336.64,59h-3.22l2.14-9.51c.26-1.16.44-2,.53-2.58a9.13,9.13,0,0,0,.14-1.43,3,3,0,0,0-.48-1.92,1.8,1.8,0,0,0-1.47-.57,3,3,0,0,0-1.65.61,9,9,0,0,0-1.91,1.88,13.92,13.92,0,0,0-1.6,2.5,11.43,11.43,0,0,0-.94,2.91L326.49,59h-3.22l2.83-12.79c.06-.28.14-.71.25-1.27a8.27,8.27,0,0,0,.15-1.41,1.8,1.8,0,0,0-.15-.81,1,1,0,0,0-.54-.43,5.43,5.43,0,0,0-1.3-.2l.23-1L329,40.9h1l-1.23,4.85.22.08A15,15,0,0,1,332.42,42a5.71,5.71,0,0,1,3.42-1.25,3.48,3.48,0,0,1,2.71,1A4.24,4.24,0,0,1,339.48,44.74Z"/><path d="M376,42l1.71-1.24,1.19.3L376,53.77c-.17.75-.29,1.32-.35,1.73a7,7,0,0,0-.09,1,1.33,1.33,0,0,0,.43,1.11,3,3,0,0,0,1.63.44l-.17.92h-5.31l1.17-4.7-.24-.07A16.45,16.45,0,0,1,369.69,58a5.43,5.43,0,0,1-3.38,1.22,3.7,3.7,0,0,1-3.17-1.55A7.34,7.34,0,0,1,362,53.34a16.52,16.52,0,0,1,.41-3.61,15.1,15.1,0,0,1,1.24-3.43,12.26,12.26,0,0,1,2-2.85,8.9,8.9,0,0,1,2.67-2,7.6,7.6,0,0,1,3.3-.73,8.65,8.65,0,0,1,2.19.27A8,8,0,0,1,376,42Zm-1.64,5.58a13.37,13.37,0,0,0,.23-1.33c0-.38.05-.78.05-1.22A3.05,3.05,0,0,0,374,42.9a2.66,2.66,0,0,0-2.05-.67,4.66,4.66,0,0,0-1.49.25,4.94,4.94,0,0,0-1.43.85,7.26,7.26,0,0,0-1.38,1.54,11.65,11.65,0,0,0-1.2,2.32,16.6,16.6,0,0,0-.84,2.93,16.24,16.24,0,0,0-.3,3.05,6.26,6.26,0,0,0,.53,2.91,1.88,1.88,0,0,0,1.78,1,3,3,0,0,0,1.2-.26,5,5,0,0,0,1.38-1,15,15,0,0,0,3.12-4.55,15.49,15.49,0,0,0,.84-2.9Z"/></svg>