<svg id="Capa_1" data-name="Capa 1" xmlns="http://www.w3.org/2000/svg" viewBox="0 0 844.13 352.44"><path d="M824,287.66a9.9,9.9,0,0,1,2.72-2.54,5.91,5.91,0,0,1,3-.8,3.2,3.2,0,0,1,3.49,3.48,12,12,0,0,1-.32,2.5l-1.31,6c-.11.5-.18.88-.22,1.15a4.65,4.65,0,0,0,0,.69,1.26,1.26,0,0,0,.36,1,2.44,2.44,0,0,0,1.24.38l-.2,1.07h-6.64l2.21-9.69c.12-.5.21-.92.27-1.24s.1-.6.12-.84a5,5,0,0,0,0-.64,1.8,1.8,0,0,0-.29-1.1,1.05,1.05,0,0,0-.89-.38,2,2,0,0,0-1.1.41,7.44,7.44,0,0,0-1.36,1.21,7.7,7.7,0,0,0-1.17,1.72,9.29,9.29,0,0,0-.72,2.28l-1.76,8.27h-4.61l2.3-10.11c.11-.43.19-.77.23-1s.07-.48.09-.66,0-.35,0-.5a2,2,0,0,0-.29-1.21,1,1,0,0,0-.91-.38,2.9,2.9,0,0,0-1.8,1,8.62,8.62,0,0,0-1.63,2,9,9,0,0,0-.91,2.63l-1.76,8.27h-4.59l2.51-11.38c.06-.26.13-.63.22-1.1a6.8,6.8,0,0,0,.14-1.2,1,1,0,0,0-.38-.93,2.46,2.46,0,0,0-1.17-.31l.23-1.07,4.41-.18h1.67l-.91,3.48.19.07a16.36,16.36,0,0,1,2.06-2.17,6.49,6.49,0,0,1,1.86-1.12,6.15,6.15,0,0,1,2.07-.34,3.51,3.51,0,0,1,2.52.89A3.45,3.45,0,0,1,824,287.66Z"/><path d="M816.23,333.9a4.36,4.36,0,0,0,.47,1.86,2.16,2.16,0,0,0,1,1A3.11,3.11,0,0,0,819,337a2.83,2.83,0,0,0,2-.62,2.25,2.25,0,0,0,.69-1.75,2.65,2.65,0,0,0-.22-1.15,3,3,0,0,0-.74-.91,13.64,13.64,0,0,0-1.66-1.15,7.57,7.57,0,0,1-2.33-2,4,4,0,0,1-.73-2.33,4.22,4.22,0,0,1,1.76-3.64,8.3,8.3,0,0,1,4.93-1.28,19.64,19.64,0,0,1,2.65.2,20.84,20.84,0,0,1,2.58.54l-.83,3.85h-2a3.93,3.93,0,0,0-.76-2.2,2.19,2.19,0,0,0-1.77-.71,2.56,2.56,0,0,0-1.72.55,1.92,1.92,0,0,0-.65,1.51,2.09,2.09,0,0,0,.25,1,3.19,3.19,0,0,0,.79.9,13.25,13.25,0,0,0,1.62,1.1,7.53,7.53,0,0,1,2.43,2.09,4.38,4.38,0,0,1,.73,2.53,4.51,4.51,0,0,1-.87,2.8,5.11,5.11,0,0,1-2.38,1.73,10,10,0,0,1-3.45.56,22.53,22.53,0,0,1-3.18-.21,23.77,23.77,0,0,1-2.77-.56l.9-4Z"/><line x1="800.69" y1="311.75" x2="837.77" y2="311.75" style="fill:none;stroke:#000;stroke-miterlimit:10;stroke-width:2px"/><path d="M729,303.43l.91-3.85a29.47,29.47,0,0,1,3.92-1.14,17.6,17.6,0,0,1,3.6-.37,8.33,8.33,0,0,1,2.81.44,4.1,4.1,0,0,1,1.92,1.39,3.81,3.81,0,0,1,.71,2.34,5.38,5.38,0,0,1-.46,2.25,5.9,5.9,0,0,1-1.26,1.78,8.41,8.41,0,0,1-1.88,1.39,15,15,0,0,1-2.36,1.06l0,.21a5.42,5.42,0,0,1,2.88,1.7,4.28,4.28,0,0,1,1.06,2.89,7.09,7.09,0,0,1-.55,2.77,6.74,6.74,0,0,1-1.73,2.32,7.18,7.18,0,0,1-2.81,1.5,14.78,14.78,0,0,1-4,.47,16.63,16.63,0,0,1-3.35-.36,14.51,14.51,0,0,1-2.94-.9l.85-3.91h2.56c.11,2.24,1.08,3.36,2.93,3.36A3.58,3.58,0,0,0,734,318a4.79,4.79,0,0,0,1.49-2,7.07,7.07,0,0,0,.52-2.62,3.14,3.14,0,0,0-.95-2.52,4.34,4.34,0,0,0-2.83-.8h-1.42l.4-1.84a9.09,9.09,0,0,0,3.55-.77,5.93,5.93,0,0,0,2.51-2.08,5.61,5.61,0,0,0,.91-3.22,2.36,2.36,0,0,0-.58-1.72,2.23,2.23,0,0,0-1.67-.6,4.45,4.45,0,0,0-1.06.13,2.92,2.92,0,0,0-1.07.54,4.8,4.8,0,0,0-1,1.11,7.91,7.91,0,0,0-.89,1.82Z"/><path d="M749,315.46c0,.68-.07,1.31-.13,1.88a11.31,11.31,0,0,1-.31,1.66,7.4,7.4,0,0,1-.57,1.46,7.48,7.48,0,0,1-1.1,1.45,17.14,17.14,0,0,1-1.7,1.55A23.13,23.13,0,0,1,743,325l-1.09-1.51a7.93,7.93,0,0,0,1.85-1.86,7.71,7.71,0,0,0,1.06-2.58,21.18,21.18,0,0,0,.53-3.63Z"/><path d="M757.41,319.26a2.06,2.06,0,0,0,1.28-.82,5.27,5.27,0,0,0,.81-2.1l.53-2.4h-8.27l.37-1.74,12.08-14H768l-3,13.7h.43a3.85,3.85,0,0,0,1.07-.1,1.5,1.5,0,0,0,.6-.41,4.15,4.15,0,0,0,.63-1h1.68l-.93,3.56h-4l-.43,2a8.42,8.42,0,0,0-.21,1.72,1.76,1.76,0,0,0,.29,1.14,1.65,1.65,0,0,0,1,.43l-.22,1.06h-7.83Zm-2.16-7.35h5.21l1.32-5.87c.24-1.05.46-2,.67-2.7h-.18l-7,8.3Z"/><path d="M773.93,303.43l.92-3.85a29,29,0,0,1,3.92-1.14,17.6,17.6,0,0,1,3.6-.37,8.33,8.33,0,0,1,2.81.44,4.1,4.1,0,0,1,1.92,1.39,3.81,3.81,0,0,1,.71,2.34,5.38,5.38,0,0,1-.46,2.25,6.08,6.08,0,0,1-1.26,1.78,8.26,8.26,0,0,1-1.89,1.39,14.43,14.43,0,0,1-2.35,1.06l0,.21a5.42,5.42,0,0,1,2.88,1.7,4.28,4.28,0,0,1,1.06,2.89,6.93,6.93,0,0,1-.56,2.77,6.59,6.59,0,0,1-1.72,2.32,7.18,7.18,0,0,1-2.81,1.5,14.78,14.78,0,0,1-4,.47,16.63,16.63,0,0,1-3.35-.36,14.51,14.51,0,0,1-2.94-.9l.85-3.91h2.56c.11,2.24,1.08,3.36,2.93,3.36A3.6,3.6,0,0,0,779,318a4.87,4.87,0,0,0,1.49-2,7.07,7.07,0,0,0,.52-2.62,3.14,3.14,0,0,0-1-2.52,4.34,4.34,0,0,0-2.83-.8h-1.42l.4-1.84a9.09,9.09,0,0,0,3.55-.77,5.93,5.93,0,0,0,2.51-2.08,5.61,5.61,0,0,0,.91-3.22,2.36,2.36,0,0,0-.58-1.72,2.23,2.23,0,0,0-1.67-.6,4.39,4.39,0,0,0-1.06.13,2.92,2.92,0,0,0-1.07.54,4.8,4.8,0,0,0-1,1.11,7.91,7.91,0,0,0-.89,1.82Z"/><path d="M434,134.2l-1.57,7.13h-2.78l1.56-7.13h-6.34l.55-2.53h6.33l1.54-7.11h2.79l-1.54,7.11H441l-.56,2.53Z"/><path d="M464.17,143.9h-7.82l.2-.92a3.17,3.17,0,0,0,1.08-.29,1.82,1.82,0,0,0,.62-.59,5.32,5.32,0,0,0,.55-1.22,26,26,0,0,0,.65-2.56l4-18.33h-2.36a4.14,4.14,0,0,0-1.84.34,4,4,0,0,0-1.38,1.25,17.6,17.6,0,0,0-1.67,3.07h-1.79l1.4-6.31H475.2l-1.45,6.59H472c0-1.21,0-2.12-.09-2.72a3.82,3.82,0,0,0-.35-1.39,1.45,1.45,0,0,0-.65-.65,3.45,3.45,0,0,0-1.34-.18h-2.75l-4,18.46c-.11.49-.19.87-.23,1.16s-.08.59-.11.91,0,.6,0,.85a1.79,1.79,0,0,0,.19.91,1.08,1.08,0,0,0,.55.48,5,5,0,0,0,1.29.22Z"/><path d="M478.94,147.33a2.8,2.8,0,0,0,1-.14,1.73,1.73,0,0,0,.6-.46,4.6,4.6,0,0,0,.59-1h1.43l-.95,3.71H471.18l.19-.86a24,24,0,0,1,5.19-5.54l1.67-1.41A22,22,0,0,0,480,140a7.2,7.2,0,0,0,.91-1.16,4.08,4.08,0,0,0,.45-1,3.75,3.75,0,0,0,.13-1,1.66,1.66,0,0,0-.6-1.36,2.67,2.67,0,0,0-1.72-.5,3.17,3.17,0,0,0-1.92.58,4.2,4.2,0,0,0-1.26,1.61h-1.92l.56-2.55a16.41,16.41,0,0,1,5.3-1,6.08,6.08,0,0,1,1.92.28,3.81,3.81,0,0,1,1.33.71,2.69,2.69,0,0,1,.76,1,2.55,2.55,0,0,1,.25,1.09,4.51,4.51,0,0,1-.41,2,7.35,7.35,0,0,1-1.51,1.9q-1.09,1.07-3.66,3.06a33.49,33.49,0,0,0-4.15,3.79Z"/><path d="M274.16,142.5a3.85,3.85,0,0,1,1.75,1.29,3.12,3.12,0,0,1,.61,1.9,5.23,5.23,0,0,1-.46,2.25,4.58,4.58,0,0,1-1.45,1.74,5.92,5.92,0,0,1-2.27,1,14,14,0,0,1-3.16.31h-5.43l.13-.6a1.67,1.67,0,0,0,.7-.24,1.27,1.27,0,0,0,.39-.46,3.72,3.72,0,0,0,.29-.71c.09-.28.23-.83.41-1.63l2.07-9.4a9.58,9.58,0,0,0,.27-1.93,1,1,0,0,0-.28-.83,1.67,1.67,0,0,0-.92-.27l.14-.6h6a9.09,9.09,0,0,1,2.94.39,2.89,2.89,0,0,1,2.14,3,4.26,4.26,0,0,1-1,2.79,6.05,6.05,0,0,1-2.9,1.83Zm-6.86,7.41c.64,0,1.23.05,1.78.05a7,7,0,0,0,2.85-.46,3.61,3.61,0,0,0,1.63-1.52,4.77,4.77,0,0,0,.63-2.51,2.74,2.74,0,0,0-.31-1.34,2.2,2.2,0,0,0-1-.88,4.33,4.33,0,0,0-1.86-.33h-2.21Zm3.49-8.07a9.5,9.5,0,0,0,2-.17,3.39,3.39,0,0,0,1.26-.51,4.14,4.14,0,0,0,.87-.8,3.45,3.45,0,0,0,.61-1.08,4.05,4.05,0,0,0,.23-1.47,2.67,2.67,0,0,0-.18-1,1.87,1.87,0,0,0-.63-.78,2.93,2.93,0,0,0-1-.46,6.4,6.4,0,0,0-1.54-.14q-1.06,0-2,0l-1.38,6.36Z"/><path d="M252.94,136.27h-8.12l.61-2.91h8.13Z"/><path d="M259.78,145a14.93,14.93,0,0,1-1.73,4.76,6.74,6.74,0,0,1-2.69,2.53,8.72,8.72,0,0,1-3.83.76,5.48,5.48,0,0,1-1.47-.18l.43-1.65a5.36,5.36,0,0,0,2.91-.11,3.27,3.27,0,0,0,1.15-.86,6,6,0,0,0,1-1.72,18.8,18.8,0,0,0,.91-3l3.77-16.87H258l.22-1a5.15,5.15,0,0,0,1.29-.25,1.68,1.68,0,0,0,.6-.43,3,3,0,0,0,.42-.77c.12-.33.3-.9.54-1.72a9.94,9.94,0,0,1,3-5.06,7.94,7.94,0,0,1,5.23-1.7,14.29,14.29,0,0,1,3.14.3l-.72,3.19H270.1a3.58,3.58,0,0,0-.68-1.54,1.58,1.58,0,0,0-1.23-.47,2.9,2.9,0,0,0-1.81.58,4.67,4.67,0,0,0-1.27,1.75,17.62,17.62,0,0,0-1,3.14l-.46,2h4.26l-.41,1.89h-4.28Z"/><path d="M523.45,30.12a60.09,60.09,0,0,0,4.64-7.64,12.88,12.88,0,0,0,1.6-5.31,1.61,1.61,0,0,0-.39-1.26,2.25,2.25,0,0,0-1.33-.4l.19-1h5.05l.53,1c-.46,1.17-.82,2.07-1.1,2.7s-.63,1.39-1.07,2.28-.92,1.77-1.41,2.65-1.08,1.85-1.75,2.91-1.43,2.2-2.26,3.44-1.82,2.64-3,4.19h-2.33l-.8-8.24c-.06-.64-.13-1.48-.2-2.52s-.12-1.84-.15-2.4l-.22,0a49.17,49.17,0,0,1-2.87,5.83q-1.83,3.21-4.5,7.35h-2.63L508,18.86a13.47,13.47,0,0,0-.3-1.85,1.94,1.94,0,0,0-.58-1.06,2.44,2.44,0,0,0-1.35-.44l.21-1h5.13l1.17,15.55c1.84-3,3.17-5.32,4-6.9a30.19,30.19,0,0,0,1.81-4.09,22.06,22.06,0,0,0,.91-3.6l.21-1H522Z"/><path d="M541.47,31.22a3.91,3.91,0,0,1,1.75,1.28,3.21,3.21,0,0,1,.61,1.9,5.31,5.31,0,0,1-.46,2.26,4.48,4.48,0,0,1-1.45,1.73,6.09,6.09,0,0,1-2.27,1.06,14.11,14.11,0,0,1-3.16.3h-5.43l.13-.6a1.67,1.67,0,0,0,.7-.24,1.44,1.44,0,0,0,.39-.45,4.14,4.14,0,0,0,.29-.72c.09-.28.23-.82.41-1.63l2.07-9.4a9.4,9.4,0,0,0,.27-1.93A1,1,0,0,0,535,24a1.6,1.6,0,0,0-.92-.26l.14-.6h6a9.41,9.41,0,0,1,2.94.38,3.2,3.2,0,0,1,1.62,1.13,3.25,3.25,0,0,1,.52,1.87,4.28,4.28,0,0,1-1,2.79,6.12,6.12,0,0,1-2.9,1.82Zm-6.86,7.41c.64,0,1.23,0,1.78,0a7,7,0,0,0,2.85-.47,3.59,3.59,0,0,0,1.63-1.51,4.81,4.81,0,0,0,.63-2.52,2.76,2.76,0,0,0-.31-1.34,2.2,2.2,0,0,0-1-.88,4.38,4.38,0,0,0-1.87-.33h-2.21Zm3.49-8.07a10.19,10.19,0,0,0,2-.17,3.77,3.77,0,0,0,1.26-.51,4.43,4.43,0,0,0,.87-.8,3.5,3.5,0,0,0,.61-1.09,4.26,4.26,0,0,0,.23-1.46,2.63,2.63,0,0,0-.18-1,1.75,1.75,0,0,0-.63-.78,2.94,2.94,0,0,0-1-.47,7,7,0,0,0-1.54-.14c-.71,0-1.37,0-2,0l-1.38,6.36Z"/><path d="M297.1,139.47h-8.55l.65-3.06h8.55Z"/><path d="M318.49,145a59.59,59.59,0,0,0,4.65-7.63,13,13,0,0,0,1.59-5.32,1.64,1.64,0,0,0-.39-1.26,2.3,2.3,0,0,0-1.33-.39l.2-1h5l.53,1c-.45,1.17-.82,2.07-1.09,2.7s-.64,1.39-1.08,2.28-.91,1.77-1.41,2.65-1.08,1.85-1.75,2.9-1.42,2.21-2.26,3.45-1.82,2.64-2.95,4.19h-2.33l-.8-8.24q-.11-1-.21-2.52c-.07-1-.12-1.84-.15-2.41h-.21a51.8,51.8,0,0,1-2.88,5.83q-1.82,3.21-4.5,7.35h-2.62l-1.49-14.84a15.49,15.49,0,0,0-.29-1.85,2,2,0,0,0-.59-1.07,2.38,2.38,0,0,0-1.35-.43l.22-1h5.12L307.34,145c1.84-3,3.16-5.32,4-6.89a31.5,31.5,0,0,0,1.81-4.09,23.11,23.11,0,0,0,.9-3.6l.21-1h2.82Z"/><path d="M336.9,146.14a4,4,0,0,1,1.74,1.29,3.12,3.12,0,0,1,.61,1.9,5.23,5.23,0,0,1-.46,2.25,4.41,4.41,0,0,1-1.44,1.74,6,6,0,0,1-2.27,1.05,13.55,13.55,0,0,1-3.16.31h-5.44l.14-.6a1.62,1.62,0,0,0,.69-.24,1.18,1.18,0,0,0,.39-.46,3.7,3.7,0,0,0,.3-.71c.09-.28.22-.83.4-1.63l2.08-9.4a9.35,9.35,0,0,0,.26-1.93,1,1,0,0,0-.28-.83,1.64,1.64,0,0,0-.91-.27l.13-.6h6.05a9,9,0,0,1,2.93.39,3.12,3.12,0,0,1,1.62,1.13,3.15,3.15,0,0,1,.52,1.87,4.24,4.24,0,0,1-1,2.78,6,6,0,0,1-2.91,1.83ZM330,153.55c.63,0,1.23,0,1.78,0a7,7,0,0,0,2.85-.46,3.69,3.69,0,0,0,1.63-1.51,4.93,4.93,0,0,0,.62-2.52,2.63,2.63,0,0,0-.31-1.34,2.2,2.2,0,0,0-1-.88,4.3,4.3,0,0,0-1.86-.33h-2.21Zm3.49-8.06a9.31,9.31,0,0,0,2-.18,3.44,3.44,0,0,0,1.27-.51,4.7,4.7,0,0,0,.87-.8,3.53,3.53,0,0,0,.61-1.08,4.27,4.27,0,0,0,.22-1.46,2.72,2.72,0,0,0-.18-1,1.79,1.79,0,0,0-.63-.78,2.88,2.88,0,0,0-1-.46,7.06,7.06,0,0,0-1.55-.14c-.7,0-1.36,0-2,0l-1.38,6.36Z"/><path d="M421.3,53.64A3.82,3.82,0,0,1,423,54.93a3.12,3.12,0,0,1,.61,1.9,5.38,5.38,0,0,1-.45,2.25,4.59,4.59,0,0,1-1.45,1.74,6,6,0,0,1-2.27,1,14.11,14.11,0,0,1-3.16.31h-5.43l.13-.6a1.73,1.73,0,0,0,.7-.24,1.38,1.38,0,0,0,.39-.46,4.51,4.51,0,0,0,.29-.71c.09-.28.22-.83.4-1.63l2.08-9.4a9.49,9.49,0,0,0,.27-1.93,1,1,0,0,0-.28-.83,1.7,1.7,0,0,0-.92-.27l.13-.6h6.05a9,9,0,0,1,2.93.39A3.13,3.13,0,0,1,424.69,47a3.21,3.21,0,0,1,.51,1.86,4.25,4.25,0,0,1-1,2.79,6,6,0,0,1-2.91,1.83Zm-6.86,7.41c.63,0,1.23.05,1.78.05a7,7,0,0,0,2.85-.46,3.66,3.66,0,0,0,1.63-1.52,4.77,4.77,0,0,0,.62-2.51,2.63,2.63,0,0,0-.31-1.34,2.2,2.2,0,0,0-1-.88,4.3,4.3,0,0,0-1.86-.33H416ZM417.93,53a9.34,9.34,0,0,0,2-.17,3.44,3.44,0,0,0,1.27-.51,4.7,4.7,0,0,0,.87-.8,3.34,3.34,0,0,0,.61-1.08A4.26,4.26,0,0,0,423,49a2.72,2.72,0,0,0-.19-1,1.79,1.79,0,0,0-.63-.78,2.88,2.88,0,0,0-1-.46,6.49,6.49,0,0,0-1.55-.14c-.7,0-1.36,0-2,0L416.21,53Z"/><path d="M403.48,144.24q-5.6,0-5.6-7.09a24.68,24.68,0,0,1,3.27-12q3.28-5.92,8.3-5.92,5.28,0,5.27,6.94a25.46,25.46,0,0,1-3.19,12.13Q408.34,144.25,403.48,144.24ZM401.7,132a30.49,30.49,0,0,0-.92,6.66q0,4.06,3,4.06,2.16,0,3.95-2.83a26.3,26.3,0,0,0,3-7.89Zm.44-1.65h9a33.88,33.88,0,0,0,.68-5.73c0-2.66-.89-4-2.69-4q-2,0-3.85,2.53A22.89,22.89,0,0,0,402.14,130.39Z"/><path d="M601.58,222.69q-5.61,0-5.6-7.09a24.68,24.68,0,0,1,3.27-12q3.27-5.92,8.3-5.92,5.26,0,5.27,6.94a25.47,25.47,0,0,1-3.2,12.13C607.5,220.7,604.81,222.69,601.58,222.69Zm-1.78-12.2a30.05,30.05,0,0,0-.93,6.66c0,2.71,1,4.06,3,4.06q2.16,0,4-2.83a26,26,0,0,0,3-7.89Zm.44-1.65h9a35,35,0,0,0,.68-5.73q0-4-2.69-4-2,0-3.86,2.53A22.9,22.9,0,0,0,600.24,208.84Z"/><path d="M468.39,225.91q-5.61,0-5.6-7.08a24.69,24.69,0,0,1,3.27-12.05q3.27-5.91,8.3-5.92,5.26,0,5.27,6.94a25.43,25.43,0,0,1-3.19,12.13Q473.25,225.91,468.39,225.91Zm-1.78-12.2a30.05,30.05,0,0,0-.93,6.66c0,2.71,1,4.06,3,4.06q2.16,0,3.95-2.83a25.81,25.81,0,0,0,3-7.89Zm.44-1.65h9a35,35,0,0,0,.68-5.73q0-4-2.69-4-2,0-3.86,2.53A23,23,0,0,0,467.05,212.06Z"/><path d="M527.17,69.76a4.39,4.39,0,0,0-.46.66,2.49,2.49,0,0,0-.26.62,2.55,2.55,0,0,0-.08.72,1.75,1.75,0,0,0,.77,1.58,4.39,4.39,0,0,0,2.33.49,4.94,4.94,0,0,0,2.36-.5,4.3,4.3,0,0,0,1.6-1.55,11.23,11.23,0,0,0,1.15-2.57,40.94,40.94,0,0,0,1-4.1l-.2,0a12.8,12.8,0,0,1-2.58,2.79,4.17,4.17,0,0,1-2.55.88,2.86,2.86,0,0,1-2.43-1.18,5.69,5.69,0,0,1-.86-3.37,12.38,12.38,0,0,1,.41-3.15,10.91,10.91,0,0,1,1.16-2.81,8.68,8.68,0,0,1,1.68-2.08,6.52,6.52,0,0,1,2-1.23,6,6,0,0,1,2.17-.4,6.65,6.65,0,0,1,1.7.21,5.84,5.84,0,0,1,1.62.74l1.31-.95.92.23-1.49,6.75q-.15.72-.33,1.62L537.73,65c-.45,2.27-.8,3.82-1.07,4.68a10.76,10.76,0,0,1-1.14,2.47,5.88,5.88,0,0,1-1.46,1.52,6.32,6.32,0,0,1-1.95.95,9.2,9.2,0,0,1-2.61.33q-5.4,0-5.4-3.17a2.44,2.44,0,0,1,.48-1.47,6.51,6.51,0,0,1,1.56-1.39Zm4.1-2.72a2.54,2.54,0,0,0,1.45-.5,7.43,7.43,0,0,0,1.55-1.6,11.81,11.81,0,0,0,1.27-2.09,11.63,11.63,0,0,0,.78-2.47,12.13,12.13,0,0,0,.33-2.58,2.35,2.35,0,0,0-.48-1.64,2.06,2.06,0,0,0-1.57-.51,3.33,3.33,0,0,0-1.14.2,3.65,3.65,0,0,0-1.1.65,5.65,5.65,0,0,0-1.07,1.18,9,9,0,0,0-.92,1.79,12,12,0,0,0-.64,2.25,12.7,12.7,0,0,0-.23,2.34,4.55,4.55,0,0,0,.43,2.24A1.44,1.44,0,0,0,531.27,67Z"/><line x1="500.45" y1="46" x2="558.54" y2="46" style="fill:none;stroke:#000;stroke-miterlimit:10;stroke-width:1.0310436750901006px"/><path d="M305.36,51.37c-.09.4-.16.73-.21,1s-.1.61-.14,1-.06.75-.06,1.06a2,2,0,0,0,.2.95,1.12,1.12,0,0,0,.59.5,4.82,4.82,0,0,0,1.35.24l-.22,1h-8l.21-1a2.8,2.8,0,0,0,1.12-.38,2.19,2.19,0,0,0,.63-.74,7.37,7.37,0,0,0,.46-1.16c.15-.45.36-1.33.65-2.63l3.33-15.17a16.07,16.07,0,0,0,.43-3.12,1.68,1.68,0,0,0-.45-1.34,2.54,2.54,0,0,0-1.47-.43l.22-1h17.65l-1.35,6h-1.88a19.89,19.89,0,0,0-.22-2.19,4.11,4.11,0,0,0-.34-1.19,1.71,1.71,0,0,0-.46-.59,1.62,1.62,0,0,0-.64-.26,5,5,0,0,0-1.08-.08h-6l-2.33,10.72h3.66a3.68,3.68,0,0,0,1.43-.24,2.66,2.66,0,0,0,1.06-.85,13,13,0,0,0,1.21-2.12h1.78l-1.9,8.31H312.8c0-.81,0-1.45-.05-1.91a2.08,2.08,0,0,0-.23-1,1,1,0,0,0-.53-.39,4.82,4.82,0,0,0-1.24-.11h-3.84Z"/><path d="M330.26,48.79c-1.79,1.91-3.67,3.81-5.63,5.68l1.29,3c.34.81.61,1.41.82,1.79a3.46,3.46,0,0,0,.55.84,1.61,1.61,0,0,0,.5.37,2.92,2.92,0,0,0,.79.19l-.15.68H325L323,55.8c-.22.19-.51.46-.88.81s-.72.72-1.06,1.11a7.38,7.38,0,0,0-.72,1,2.28,2.28,0,0,0-.27.63,1.9,1.9,0,0,0-.07.54.81.81,0,0,0,.2.57,1.31,1.31,0,0,0,.69.29l-.15.68h-4l-.26-.68c2-2.17,4-4.18,6-6l-1.32-3.1c-.27-.63-.48-1.11-.65-1.44a4,4,0,0,0-.48-.76,1.64,1.64,0,0,0-.53-.42,2.35,2.35,0,0,0-.85-.18l.15-.68h3.46l1.85,5.23c.45-.41.88-.85,1.29-1.29a9.16,9.16,0,0,0,.86-1,3.24,3.24,0,0,0,.35-.7,2.25,2.25,0,0,0,.09-.64c0-.51-.29-.8-.88-.87l.15-.68h4Z"/><path d="M259.29,12.49l13,26.27v2.7L257.71,68.13h17.63a8.34,8.34,0,0,0,2.51-.29,3.76,3.76,0,0,0,1.44-.87,5.64,5.64,0,0,0,1.1-1.64,15.7,15.7,0,0,0,.95-2.89,46.66,46.66,0,0,0,.86-4.84h3.13L284.56,75h-34V73l16.55-30.18-15.53-32v-2h33.08V24.61H281.8c-.45-2.25-.87-4.08-1.28-5.51a19.19,19.19,0,0,0-1.23-3.37A7.78,7.78,0,0,0,278,13.82a4.49,4.49,0,0,0-1.52-1,6.2,6.2,0,0,0-2.27-.34Z"/><path d="M366.35,40.12H347.27V36.81h19.08Zm0,8.77H347.27V45.58h19.08Z"/><path d="M242.3,216.83h-18v-3.11h18Zm0,8.26h-18V222h18Z"/><path d="M711.35,312h-18V308.9h18Zm0,8.25h-18v-3.11h18Z"/><path d="M51.27,311.6H32.84v-3.2H51.27Zm0,8.47H32.84v-3.2H51.27Z"/><path d="M485.54,42.67H466.46V39.36h19.08Zm0,8.78H466.46V48.13h19.08Z"/><path d="M520,135.71H500.9V132.4H520Zm0,8.77H500.9v-3.31H520Z"/><path d="M359.9,132a3.57,3.57,0,0,0-.85-2.16,2.78,2.78,0,0,0-2.06-.68,3.38,3.38,0,0,0-1.41.29,2.38,2.38,0,0,0-1,.85,2.28,2.28,0,0,0-.37,1.3,2.56,2.56,0,0,0,.25,1.12,3.9,3.9,0,0,0,.83,1.06A13.87,13.87,0,0,0,357,135a7.84,7.84,0,0,1,2.25,2.09,4.37,4.37,0,0,1,.64,2.34,4.62,4.62,0,0,1-.74,2.65,4.41,4.41,0,0,1-2,1.62,7.64,7.64,0,0,1-2.9.53,16.47,16.47,0,0,1-2.71-.21c-.84-.15-1.66-.33-2.45-.55l.77-3.59h1.29a3.51,3.51,0,0,0,.86,2.28,2.93,2.93,0,0,0,2.19.76,3.32,3.32,0,0,0,2.29-.74,2.48,2.48,0,0,0,.82-1.95,3.25,3.25,0,0,0-.24-1.28,3.77,3.77,0,0,0-.78-1.08,12.1,12.1,0,0,0-1.5-1.18,12.45,12.45,0,0,1-1.68-1.34,4.76,4.76,0,0,1-1-1.39,4,4,0,0,1-.35-1.66,4.25,4.25,0,0,1,.67-2.4,4.3,4.3,0,0,1,1.92-1.54,7.45,7.45,0,0,1,2.91-.53,14.88,14.88,0,0,1,4.8.71l-.76,3.42Z"/><path d="M375.33,140.65a13.85,13.85,0,0,1-2.34,2.13,7.79,7.79,0,0,1-2.24,1.11,8.73,8.73,0,0,1-2.47.33,5.43,5.43,0,0,1-2.24-.42,4.17,4.17,0,0,1-1.56-1.17,4.8,4.8,0,0,1-.92-1.75,8.22,8.22,0,0,1-.29-2.22,12.9,12.9,0,0,1,.63-3.81,11,11,0,0,1,1.92-3.65,9.05,9.05,0,0,1,3.08-2.51,8.58,8.58,0,0,1,3.83-.89,4.6,4.6,0,0,1,3,.82,3.09,3.09,0,0,1,1,2.54,4.54,4.54,0,0,1-2.63,4.23q-2.64,1.41-7.81,1.41a11.2,11.2,0,0,0-.19,2.16,3.87,3.87,0,0,0,.67,2.53,2.76,2.76,0,0,0,2.21.79,5.73,5.73,0,0,0,2.75-.66,11.18,11.18,0,0,0,2.59-2.05Zm-8.77-5.26a20.53,20.53,0,0,0,2.67-.18,11,11,0,0,0,2-.43,5.38,5.38,0,0,0,1.36-.65,3.68,3.68,0,0,0,.87-.84,3,3,0,0,0,.44-1,4.11,4.11,0,0,0,.13-1.06,2.44,2.44,0,0,0-.47-1.58,1.69,1.69,0,0,0-1.4-.58,3.73,3.73,0,0,0-2.26.84,7.68,7.68,0,0,0-2,2.26A13,13,0,0,0,366.56,135.39Z"/><path d="M392.89,144H387.7l2.09-8.44c.13-.54.26-1.14.39-1.79a9.9,9.9,0,0,0,.19-1.76,2.74,2.74,0,0,0-.41-1.69,1.49,1.49,0,0,0-1.26-.52,2.7,2.7,0,0,0-1.49.54,8.23,8.23,0,0,0-1.67,1.61,13.76,13.76,0,0,0-1.48,2.18,9.65,9.65,0,0,0-.93,2.68l-1.5,7.19h-2.85l2.5-11.34c.06-.26.13-.63.23-1.13a7.41,7.41,0,0,0,.14-1.25,1.56,1.56,0,0,0-.14-.72.89.89,0,0,0-.48-.38,4.49,4.49,0,0,0-1.15-.18l.2-.88,3.74-.14h.94l-1.1,4.31.19.07a14.87,14.87,0,0,1,3.12-3.4,5.08,5.08,0,0,1,3-1.1,3.14,3.14,0,0,1,2.42.89,3.74,3.74,0,0,1,.83,2.63,8.88,8.88,0,0,1-.11,1.3c-.07.47-.15.89-.24,1.25l-1.38,5.91a8.65,8.65,0,0,0-.28,1.9,1.56,1.56,0,0,0,.16.78,1,1,0,0,0,.51.43,4,4,0,0,0,1.14.23Z"/><path d="M400,38.71V39c0,.08,0,.18,0,.28a13.49,13.49,0,0,1,3.21-3.41,5.73,5.73,0,0,1,3.31-1.1,3.46,3.46,0,0,1,2.69,1,4.25,4.25,0,0,1,.92,3,13.65,13.65,0,0,1-.37,2.89l-1.56,6.66a9.43,9.43,0,0,0-.32,2.14,1.69,1.69,0,0,0,.19.88,1.21,1.21,0,0,0,.57.49,4.82,4.82,0,0,0,1.28.26l-.16.92h-5.84l2.34-9.52c.18-.68.33-1.38.46-2.08a10.72,10.72,0,0,0,.19-1.92,3.07,3.07,0,0,0-.46-1.92,1.79,1.79,0,0,0-1.47-.57,3,3,0,0,0-1.63.6,8.37,8.37,0,0,0-1.88,1.83,14.43,14.43,0,0,0-1.61,2.44,11.83,11.83,0,0,0-1,2.95L397.14,53h-3.22l2.14-9.52c.26-1.16.44-2,.53-2.57a8.15,8.15,0,0,0,.14-1.43,3.07,3.07,0,0,0-.47-1.92,1.82,1.82,0,0,0-1.48-.57,3.07,3.07,0,0,0-1.65.6,9.08,9.08,0,0,0-1.9,1.89,14,14,0,0,0-1.61,2.5,12,12,0,0,0-.94,2.91L387,53h-3.22l2.83-12.79c.06-.29.14-.71.25-1.28a7.48,7.48,0,0,0,.16-1.4,1.71,1.71,0,0,0-.16-.82,1,1,0,0,0-.54-.43A4.89,4.89,0,0,0,385,36l.22-1,4.24-.16h1l-1.22,4.85.22.07a15,15,0,0,1,3.4-3.81,5.74,5.74,0,0,1,3.42-1.24,3.5,3.5,0,0,1,2.72,1A4.22,4.22,0,0,1,400,38.71Z"/><path d="M433.9,48.6,433,53h-3.53l.94-4.35Z"/><path d="M452.43,36l1.71-1.23,1.19.3-2.84,12.71c-.17.75-.29,1.33-.35,1.73a6.08,6.08,0,0,0-.1,1,1.37,1.37,0,0,0,.43,1.12,3.11,3.11,0,0,0,1.64.44l-.17.92h-5.32l1.17-4.7-.24-.08A16.54,16.54,0,0,1,446.17,52a5.53,5.53,0,0,1-3.39,1.22,3.68,3.68,0,0,1-3.17-1.56,7.32,7.32,0,0,1-1.12-4.36,16.36,16.36,0,0,1,.41-3.6,14.45,14.45,0,0,1,1.23-3.43,12.89,12.89,0,0,1,2-2.86,8.7,8.7,0,0,1,2.66-2,7.46,7.46,0,0,1,3.3-.73,8.78,8.78,0,0,1,2.2.27A7.88,7.88,0,0,1,452.43,36Zm-1.63,5.58a12.59,12.59,0,0,0,.22-1.33,11.39,11.39,0,0,0,.06-1.21,3.06,3.06,0,0,0-.62-2.13,2.69,2.69,0,0,0-2-.66,4.36,4.36,0,0,0-1.49.25,5,5,0,0,0-1.43.84,7.1,7.1,0,0,0-1.39,1.55,11.38,11.38,0,0,0-1.2,2.32,16.35,16.35,0,0,0-.83,2.93,16.14,16.14,0,0,0-.3,3,6.26,6.26,0,0,0,.53,2.91,1.85,1.85,0,0,0,1.78,1,3,3,0,0,0,1.2-.27,5,5,0,0,0,1.38-1,13.72,13.72,0,0,0,1.73-2.07,13.45,13.45,0,0,0,1.38-2.48,15.34,15.34,0,0,0,.85-2.89Z"/><path d="M559,26.18l-1,4.34h-3.53l.94-4.34Z"/><path d="M577.53,13.54l1.71-1.24,1.19.3-2.84,12.71c-.18.75-.29,1.33-.36,1.74a7,7,0,0,0-.09,1,1.33,1.33,0,0,0,.43,1.11,3.1,3.1,0,0,0,1.63.44l-.16.92h-5.32l1.17-4.7-.24-.07a16.67,16.67,0,0,1-3.38,3.83,5.53,5.53,0,0,1-3.39,1.22,3.7,3.7,0,0,1-3.17-1.55,7.36,7.36,0,0,1-1.12-4.37,15.84,15.84,0,0,1,.41-3.6,14.45,14.45,0,0,1,1.23-3.43,12.57,12.57,0,0,1,2-2.85,8.9,8.9,0,0,1,2.67-2,7.46,7.46,0,0,1,3.3-.73,8.65,8.65,0,0,1,2.19.27A7.85,7.85,0,0,1,577.53,13.54Zm-1.63,5.58c.11-.52.18-1,.22-1.33a11.71,11.71,0,0,0,0-1.22,3.1,3.1,0,0,0-.61-2.13,2.69,2.69,0,0,0-2-.66A4.32,4.32,0,0,0,572,14a4.81,4.81,0,0,0-1.43.85,7,7,0,0,0-1.39,1.54,11.65,11.65,0,0,0-1.2,2.32,15.57,15.57,0,0,0-.83,2.93,16.14,16.14,0,0,0-.3,3,6.33,6.33,0,0,0,.53,2.92,1.85,1.85,0,0,0,1.77,1,3.13,3.13,0,0,0,1.2-.26,5.12,5.12,0,0,0,1.39-1,13.08,13.08,0,0,0,1.73-2.06,13.51,13.51,0,0,0,1.38-2.49,15.88,15.88,0,0,0,.85-2.89Z"/><path d="M554.62,119.91a61.51,61.51,0,0,0,4.65-7.64,13,13,0,0,0,1.59-5.31,1.61,1.61,0,0,0-.39-1.26,2.23,2.23,0,0,0-1.33-.4l.19-1h5l.53,1c-.46,1.17-.82,2.07-1.09,2.7s-.64,1.39-1.08,2.28-.91,1.77-1.41,2.65-1.08,1.85-1.75,2.91-1.43,2.2-2.26,3.44-1.82,2.64-3,4.19H552l-.81-8.24c-.06-.64-.13-1.48-.2-2.52s-.12-1.84-.15-2.4l-.21,0a51.8,51.8,0,0,1-2.88,5.83q-1.81,3.21-4.5,7.35h-2.62l-1.49-14.84a15.49,15.49,0,0,0-.29-1.85,2,2,0,0,0-.59-1.06,2.31,2.31,0,0,0-1.35-.44l.21-1h5.13l1.18,15.55q2.74-4.55,4-6.9a31.5,31.5,0,0,0,1.81-4.09,23.11,23.11,0,0,0,.9-3.6l.21-1h2.82Z"/><path d="M572.65,121a3.93,3.93,0,0,1,1.74,1.28,3.12,3.12,0,0,1,.61,1.9,5.23,5.23,0,0,1-.46,2.25,4.41,4.41,0,0,1-1.44,1.74,6,6,0,0,1-2.27,1,13.58,13.58,0,0,1-3.17.31h-5.43l.14-.6a1.62,1.62,0,0,0,.69-.24,1.23,1.23,0,0,0,.39-.45,4.11,4.11,0,0,0,.3-.72c.09-.28.22-.82.4-1.63l2.07-9.4a9.49,9.49,0,0,0,.27-1.93,1,1,0,0,0-.28-.83,1.66,1.66,0,0,0-.91-.27l.13-.59h6a9.12,9.12,0,0,1,2.94.38,3.12,3.12,0,0,1,1.62,1.13,3.17,3.17,0,0,1,.52,1.87,4.29,4.29,0,0,1-1,2.79,6.2,6.2,0,0,1-2.91,1.82Zm-6.87,7.41c.64,0,1.23,0,1.79,0a7,7,0,0,0,2.85-.46,3.69,3.69,0,0,0,1.63-1.51,4.9,4.9,0,0,0,.62-2.52,2.66,2.66,0,0,0-.31-1.34,2.2,2.2,0,0,0-1-.88,4.3,4.3,0,0,0-1.86-.33H567.3Zm3.5-8.07a10.15,10.15,0,0,0,2-.17,3.49,3.49,0,0,0,1.26-.52,4.17,4.17,0,0,0,.88-.8,3.53,3.53,0,0,0,.61-1.08,4.27,4.27,0,0,0,.22-1.46,2.63,2.63,0,0,0-.18-1,1.76,1.76,0,0,0-.63-.79,3,3,0,0,0-1-.46,7.13,7.13,0,0,0-1.55-.14c-.71,0-1.37,0-2,0l-1.38,6.36Z"/><path d="M558.34,159.55a6,6,0,0,0-.46.65,2.72,2.72,0,0,0-.26.63,3,3,0,0,0-.08.72,1.75,1.75,0,0,0,.77,1.58,4.39,4.39,0,0,0,2.33.49,4.91,4.91,0,0,0,2.36-.5,4.3,4.3,0,0,0,1.6-1.55,11.23,11.23,0,0,0,1.15-2.57,38.35,38.35,0,0,0,1-4.1l-.2,0a13,13,0,0,1-2.57,2.79,4.27,4.27,0,0,1-2.56.88,2.83,2.83,0,0,1-2.42-1.18,5.61,5.61,0,0,1-.87-3.37,12,12,0,0,1,.42-3.15,10.9,10.9,0,0,1,1.15-2.81,8.68,8.68,0,0,1,1.68-2.08,6.76,6.76,0,0,1,2-1.23,6,6,0,0,1,2.17-.41,6.73,6.73,0,0,1,1.71.22,6.19,6.19,0,0,1,1.61.73l1.32-.95.91.24-1.49,6.75c-.1.48-.21,1-.32,1.62l-.38,1.89c-.44,2.26-.8,3.82-1.07,4.68a10,10,0,0,1-1.14,2.47,6,6,0,0,1-1.46,1.52,6.56,6.56,0,0,1-2,.95,9.2,9.2,0,0,1-2.61.33q-5.4,0-5.4-3.17a2.44,2.44,0,0,1,.48-1.47,6.72,6.72,0,0,1,1.56-1.4Zm4.1-2.72a2.54,2.54,0,0,0,1.45-.5,7.21,7.21,0,0,0,1.55-1.6,11.9,11.9,0,0,0,1.28-2.09,12.79,12.79,0,0,0,.78-2.48,12.55,12.55,0,0,0,.32-2.57,2.4,2.4,0,0,0-.47-1.64,2.08,2.08,0,0,0-1.58-.51,3.33,3.33,0,0,0-1.14.2,3.82,3.82,0,0,0-1.1.64,6,6,0,0,0-1.07,1.19,9.6,9.6,0,0,0-.92,1.79,13.11,13.11,0,0,0-.87,4.59,4.55,4.55,0,0,0,.43,2.24A1.45,1.45,0,0,0,562.44,156.83Z"/><line x1="531.63" y1="135.79" x2="589.72" y2="135.79" style="fill:none;stroke:#000;stroke-miterlimit:10;stroke-width:1.0310436750901006px"/><path d="M590.17,116l-.95,4.35h-3.53l.95-4.35Z"/><path d="M608.7,103.33l1.71-1.24,1.19.3-2.84,12.71c-.17.75-.29,1.33-.35,1.74a6,6,0,0,0-.1,1,1.36,1.36,0,0,0,.43,1.11,3.14,3.14,0,0,0,1.64.44l-.17.92h-5.32l1.17-4.7-.24-.08a16.54,16.54,0,0,1-3.38,3.84,5.53,5.53,0,0,1-3.39,1.22,3.7,3.7,0,0,1-3.17-1.55,7.38,7.38,0,0,1-1.12-4.37,16.36,16.36,0,0,1,.41-3.6,14.05,14.05,0,0,1,1.24-3.43,12.26,12.26,0,0,1,2-2.85,8.73,8.73,0,0,1,2.66-2,7.46,7.46,0,0,1,3.3-.73,8.78,8.78,0,0,1,2.2.27A7.63,7.63,0,0,1,608.7,103.33Zm-1.63,5.58c.11-.52.18-1,.22-1.33a11.59,11.59,0,0,0,.06-1.22,3.08,3.08,0,0,0-.62-2.13,2.69,2.69,0,0,0-2-.66,4.36,4.36,0,0,0-1.49.25,5,5,0,0,0-1.43.84,7.62,7.62,0,0,0-1.39,1.55,11.65,11.65,0,0,0-1.2,2.32,17.22,17.22,0,0,0-.83,2.93,16.14,16.14,0,0,0-.3,3,6.33,6.33,0,0,0,.53,2.92,1.87,1.87,0,0,0,1.78,1,3.21,3.21,0,0,0,1.2-.26,5.25,5.25,0,0,0,1.38-1,13.08,13.08,0,0,0,1.73-2.06,13.51,13.51,0,0,0,1.38-2.49,14.43,14.43,0,0,0,.85-2.89Z"/><path d="M278.27,241.31a58.46,58.46,0,0,0,4.65-7.63,13,13,0,0,0,1.6-5.31,1.61,1.61,0,0,0-.4-1.27,2.3,2.3,0,0,0-1.33-.39l.2-1H288l.53,1c-.46,1.17-.83,2.07-1.1,2.7s-.63,1.39-1.08,2.28-.91,1.77-1.4,2.65-1.08,1.85-1.76,2.9-1.42,2.21-2.26,3.45-1.82,2.64-3,4.19h-2.33l-.8-8.24q-.11-1-.21-2.52c-.07-1-.12-1.84-.14-2.4l-.22,0a48.59,48.59,0,0,1-2.88,5.83q-1.81,3.21-4.5,7.35h-2.62l-1.49-14.84a12.26,12.26,0,0,0-.29-1.85,2,2,0,0,0-.59-1.07,2.38,2.38,0,0,0-1.35-.43l.22-1H266l1.17,15.55q2.76-4.53,4-6.89a30.19,30.19,0,0,0,1.81-4.09,23.11,23.11,0,0,0,.9-3.6l.22-1h2.81Z"/><path d="M295.38,237.78a3.85,3.85,0,0,1,1.75,1.29,3.19,3.19,0,0,1,.61,1.9,5.42,5.42,0,0,1-.46,2.25,4.67,4.67,0,0,1-1.45,1.74,6.07,6.07,0,0,1-2.27,1,14.11,14.11,0,0,1-3.16.3H285l.13-.59a1.73,1.73,0,0,0,.7-.24,1.49,1.49,0,0,0,.39-.46,5,5,0,0,0,.29-.71c.09-.29.22-.83.4-1.63l2.08-9.4a9.58,9.58,0,0,0,.27-1.93,1,1,0,0,0-.28-.83,1.55,1.55,0,0,0-.92-.27l.14-.6h6a9,9,0,0,1,2.93.39,3.13,3.13,0,0,1,1.63,1.13,3.19,3.19,0,0,1,.52,1.86,4.26,4.26,0,0,1-1,2.79,6.11,6.11,0,0,1-2.91,1.83Zm-6.86,7.41c.63,0,1.23.05,1.78.05a7,7,0,0,0,2.85-.46,3.66,3.66,0,0,0,1.63-1.52,4.79,4.79,0,0,0,.62-2.51,2.7,2.7,0,0,0-.31-1.35,2.14,2.14,0,0,0-1-.87,4.3,4.3,0,0,0-1.86-.33H290Zm3.49-8.07a10.19,10.19,0,0,0,2.05-.17,3.46,3.46,0,0,0,1.26-.51,4.73,4.73,0,0,0,.87-.8,3.56,3.56,0,0,0,.61-1.08,4.32,4.32,0,0,0,.23-1.47,2.67,2.67,0,0,0-.18-1,1.88,1.88,0,0,0-.63-.78,2.76,2.76,0,0,0-1-.46,6.46,6.46,0,0,0-1.54-.14q-1.06,0-2,0l-1.38,6.36Z"/><path d="M405.6,222.75a3.33,3.33,0,0,1,1.53,1.13,2.76,2.76,0,0,1,.54,1.67,4.64,4.64,0,0,1-.4,2,3.87,3.87,0,0,1-1.28,1.53,5.29,5.29,0,0,1-2,.93,12.25,12.25,0,0,1-2.79.27h-4.78l.12-.53a1.31,1.31,0,0,0,.61-.21,1.14,1.14,0,0,0,.35-.4,3.88,3.88,0,0,0,.26-.63c.08-.25.19-.73.35-1.44l1.83-8.27a8.81,8.81,0,0,0,.23-1.69.91.91,0,0,0-.24-.73,1.39,1.39,0,0,0-.81-.24l.12-.53h5.32a8.22,8.22,0,0,1,2.58.34,2.54,2.54,0,0,1,1.89,2.64,3.76,3.76,0,0,1-.86,2.45,5.41,5.41,0,0,1-2.56,1.61Zm-6,6.52c.56,0,1.08,0,1.57,0a6.2,6.2,0,0,0,2.51-.41,3.15,3.15,0,0,0,1.43-1.33,4.22,4.22,0,0,0,.55-2.21,2.27,2.27,0,0,0-.28-1.18,1.93,1.93,0,0,0-.86-.78,3.89,3.89,0,0,0-1.64-.29h-1.95Zm3.07-7.1a8.63,8.63,0,0,0,1.8-.15,3,3,0,0,0,1.11-.45,3.72,3.72,0,0,0,.77-.71,2.94,2.94,0,0,0,.54-1,3.8,3.8,0,0,0,.2-1.29,2.43,2.43,0,0,0-.16-.86,1.61,1.61,0,0,0-.56-.69,2.47,2.47,0,0,0-.9-.41,6.15,6.15,0,0,0-1.36-.12q-.93,0-1.74,0l-1.21,5.6Z"/><path d="M540.54,222.85a3.36,3.36,0,0,1,1.54,1.13,2.81,2.81,0,0,1,.53,1.67,4.64,4.64,0,0,1-.4,2,4,4,0,0,1-1.27,1.54,5.47,5.47,0,0,1-2,.92,12.15,12.15,0,0,1-2.78.27h-4.78l.11-.53a1.4,1.4,0,0,0,.62-.21,1.13,1.13,0,0,0,.34-.4,3.88,3.88,0,0,0,.26-.63c.08-.25.2-.72.35-1.43l1.83-8.28a8.21,8.21,0,0,0,.24-1.69.91.91,0,0,0-.25-.73,1.37,1.37,0,0,0-.81-.24l.12-.53h5.32a8.22,8.22,0,0,1,2.58.34,2.78,2.78,0,0,1,1.43,1,2.74,2.74,0,0,1,.46,1.64,3.78,3.78,0,0,1-.86,2.46,5.47,5.47,0,0,1-2.56,1.6Zm-6,6.52c.56,0,1.08,0,1.57,0a6,6,0,0,0,2.51-.41,3.15,3.15,0,0,0,1.43-1.33,4.19,4.19,0,0,0,.55-2.21,2.37,2.37,0,0,0-.27-1.18,2,2,0,0,0-.87-.78,3.89,3.89,0,0,0-1.64-.29h-1.95Zm3.08-7.1a8.59,8.59,0,0,0,1.79-.15,3.12,3.12,0,0,0,1.12-.45,3.93,3.93,0,0,0,.76-.71,2.84,2.84,0,0,0,.54-1,3.8,3.8,0,0,0,.2-1.29,2.27,2.27,0,0,0-.16-.86,1.58,1.58,0,0,0-.55-.69,2.79,2.79,0,0,0-.91-.41,6.15,6.15,0,0,0-1.36-.12q-.93,0-1.74,0l-1.21,5.6Z"/><path d="M675.18,212.75l-.64,2.91h-1a3.29,3.29,0,0,0-.58-1.9,1.93,1.93,0,0,0-1.57-.59,3,3,0,0,0-1.7.53,6,6,0,0,0-1.5,1.54,10.61,10.61,0,0,0-1.24,2.35,16,16,0,0,0-.8,2.75,12.84,12.84,0,0,0-.28,2.53,4.55,4.55,0,0,0,.57,2.57,2,2,0,0,0,1.8.83,3.59,3.59,0,0,0,1.41-.25,3.1,3.1,0,0,0,1.12-.81,7.12,7.12,0,0,0,1-1.61h1l-.66,3.05a14.38,14.38,0,0,1-2.11.43,16,16,0,0,1-2.1.13,4.33,4.33,0,0,1-2.26-.55,3.39,3.39,0,0,1-1.41-1.6,6,6,0,0,1-.47-2.52,10.64,10.64,0,0,1,.1-1.51,17.71,17.71,0,0,1,.41-2,13.39,13.39,0,0,1,.89-2.41,11.1,11.1,0,0,1,1.32-2,7.43,7.43,0,0,1,1.52-1.36,6.41,6.41,0,0,1,1.62-.79,6.23,6.23,0,0,1,1.85-.28,12.79,12.79,0,0,1,1.81.12A12.34,12.34,0,0,1,675.18,212.75Z"/><path d="M281.78,205.45a4.77,4.77,0,0,0-.45.65,2.39,2.39,0,0,0-.27.63,3,3,0,0,0-.08.72,1.75,1.75,0,0,0,.77,1.58,4.42,4.42,0,0,0,2.33.49,4.91,4.91,0,0,0,2.36-.5,4.23,4.23,0,0,0,1.6-1.55,10.81,10.81,0,0,0,1.15-2.57,38.35,38.35,0,0,0,1-4.1l-.2,0a13,13,0,0,1-2.57,2.79,4.24,4.24,0,0,1-2.56.88,2.83,2.83,0,0,1-2.42-1.18,5.61,5.61,0,0,1-.87-3.37,12,12,0,0,1,.42-3.15,10.57,10.57,0,0,1,1.16-2.81,8.42,8.42,0,0,1,1.67-2.08,6.76,6.76,0,0,1,2-1.23,6,6,0,0,1,2.18-.4,6.71,6.71,0,0,1,1.7.21,5.92,5.92,0,0,1,1.61.74l1.32-.95.91.23-1.48,6.75q-.17.72-.33,1.62l-.37,1.89q-.68,3.39-1.08,4.68a10,10,0,0,1-1.14,2.47,6,6,0,0,1-1.46,1.52,6.56,6.56,0,0,1-1.95.95,9.2,9.2,0,0,1-2.61.33q-5.4,0-5.4-3.17a2.39,2.39,0,0,1,.49-1.47,6.23,6.23,0,0,1,1.55-1.39Zm4.1-2.72a2.59,2.59,0,0,0,1.46-.5,7.42,7.42,0,0,0,1.54-1.6,11.9,11.9,0,0,0,1.28-2.09,12.79,12.79,0,0,0,.78-2.48,12.55,12.55,0,0,0,.32-2.57,2.4,2.4,0,0,0-.47-1.64,2.07,2.07,0,0,0-1.57-.51,3.39,3.39,0,0,0-1.15.2,3.82,3.82,0,0,0-1.1.64,5.67,5.67,0,0,0-1.06,1.19,9,9,0,0,0-.93,1.79,13.11,13.11,0,0,0-.87,4.59,4.67,4.67,0,0,0,.43,2.24A1.46,1.46,0,0,0,285.88,202.73Z"/><line x1="254.9" y1="219.11" x2="313" y2="219.11" style="fill:none;stroke:#000;stroke-miterlimit:10;stroke-width:1.0310436750901006px"/><path d="M82.27,344.92a6.11,6.11,0,0,0,1.08-.08,1.7,1.7,0,0,0,.65-.27,1.5,1.5,0,0,0,.39-.5c.09-.21.21-.53.35-.95H85.9l-.23,4H74.5v-.66a17.65,17.65,0,0,1,1.57-2.94A32.59,32.59,0,0,1,78.88,340c1.05-1.17,1.81-2.05,2.27-2.65a12.67,12.67,0,0,0,1.13-1.7,6.4,6.4,0,0,0,.54-1.36A5,5,0,0,0,83,333a4.89,4.89,0,0,0-.32-1.82,2.7,2.7,0,0,0-1-1.23,3,3,0,0,0-1.69-.45c-1.7,0-2.84.94-3.42,2.84H74.9V329.7A15.93,15.93,0,0,1,78,328.58a10.57,10.57,0,0,1,2.57-.35,5.73,5.73,0,0,1,3.82,1.11,4.09,4.09,0,0,1,1.29,3.24,5.58,5.58,0,0,1-.15,1.33,4.89,4.89,0,0,1-.45,1.2,8.18,8.18,0,0,1-.82,1.28c-.34.46-.72.92-1.14,1.39S82,339,80.94,340.12a28.11,28.11,0,0,0-3.78,4.8Z"/><path d="M90.17,346.36v-2.9h1.65a3.94,3.94,0,0,0,1.23,2.05,3.26,3.26,0,0,0,2.12.66,3.38,3.38,0,0,0,2.73-1.1,5,5,0,0,0,.92-3.27,5.21,5.21,0,0,0-.49-2.4A3,3,0,0,0,97,338a4.25,4.25,0,0,0-1.93-.42,10.24,10.24,0,0,0-1.59.11,10,10,0,0,0-1.42.37L91,337.44v-9h7.48a2,2,0,0,0,.66-.08.73.73,0,0,0,.33-.23,2.26,2.26,0,0,0,.28-.6h1.06l-.2,3.18H92.79v6a7.44,7.44,0,0,1,1.54-.45,9.23,9.23,0,0,1,1.66-.15,6,6,0,0,1,2.86.66,4.69,4.69,0,0,1,1.93,1.89,5.75,5.75,0,0,1,.68,2.83,6.28,6.28,0,0,1-.76,3.15,5,5,0,0,1-2.2,2,7.83,7.83,0,0,1-3.41.69A14.09,14.09,0,0,1,90.17,346.36Z"/><path d="M66.49,308.77v-.67a6.18,6.18,0,0,0,3.29-.85A6.05,6.05,0,0,0,72,304.74a12.65,12.65,0,0,0,1.13-4.35l-.13-.06a8.87,8.87,0,0,1-2.25,1.21,7.45,7.45,0,0,1-2.4.38,4.83,4.83,0,0,1-2.61-.68,4.14,4.14,0,0,1-1.62-1.9,7,7,0,0,1-.54-2.86,6.67,6.67,0,0,1,.4-2.33,5.44,5.44,0,0,1,1.21-1.93,5.66,5.66,0,0,1,2-1.31,7.35,7.35,0,0,1,2.81-.49,5.09,5.09,0,0,1,4.34,2,9.36,9.36,0,0,1,1.49,5.71,14.37,14.37,0,0,1-1.1,5.89,9.07,9.07,0,0,1-3.08,3.89A9.43,9.43,0,0,1,67,309.52Zm2.82-8.29a5.19,5.19,0,0,0,1-.08,5.7,5.7,0,0,0,.92-.26,5.56,5.56,0,0,0,.88-.44,5.79,5.79,0,0,0,.76-.57.82.82,0,0,0,.22-.29,1.77,1.77,0,0,0,.15-.46,5,5,0,0,0,0-.9,12,12,0,0,0-.37-3.21,4.07,4.07,0,0,0-1.14-2,2.76,2.76,0,0,0-1.89-.68,3.78,3.78,0,0,0-1.73.36,3,3,0,0,0-1.14,1,4.14,4.14,0,0,0-.65,1.46,8.08,8.08,0,0,0-.2,1.83,5.15,5.15,0,0,0,.83,3.15A2.72,2.72,0,0,0,69.31,300.48Z"/><path d="M81.83,306.13A10.27,10.27,0,0,1,82,308a4.51,4.51,0,0,1-.33,1.75,5.52,5.52,0,0,1-1,1.58,14.51,14.51,0,0,1-2,1.73l-.73-.84a6,6,0,0,0,1-1.18,3.74,3.74,0,0,0,.45-1.2,8.57,8.57,0,0,0,.14-1.68c0-.69,0-1.37-.1-2.05Z"/><path d="M94.08,299.45l0,.17a4.84,4.84,0,0,1,2.32,1.76,4.79,4.79,0,0,1,.79,2.78,5.18,5.18,0,0,1-.76,2.82,4.94,4.94,0,0,1-2.21,1.88,8,8,0,0,1-3.37.66,7.66,7.66,0,0,1-3.17-.61,4.74,4.74,0,0,1-2.12-1.77,5,5,0,0,1-.75-2.76,4.85,4.85,0,0,1,.41-2.06,4.16,4.16,0,0,1,1.06-1.45,7.47,7.47,0,0,1,1.67-1l0-.18A4.42,4.42,0,0,1,85,295.3a4.31,4.31,0,0,1,.77-2.51A5.09,5.09,0,0,1,88,291.05a7.71,7.71,0,0,1,3.15-.63,8.54,8.54,0,0,1,3.28.56,4.1,4.1,0,0,1,2,1.6,5,5,0,0,1-.06,5.09A5.16,5.16,0,0,1,94.08,299.45Zm-6.65,4.7a6.34,6.34,0,0,0,.21,1.66,3.58,3.58,0,0,0,.64,1.33,3.06,3.06,0,0,0,1.14.89,3.87,3.87,0,0,0,1.68.33A3.73,3.73,0,0,0,93,307.9a2.86,2.86,0,0,0,1.2-1.36,5,5,0,0,0,.42-2.13,5.21,5.21,0,0,0-.45-2.26,3.27,3.27,0,0,0-1.26-1.45,3.49,3.49,0,0,0-1.89-.5,4.05,4.05,0,0,0-1.69.31,2.89,2.89,0,0,0-1.11.85,3.11,3.11,0,0,0-.61,1.25A5.85,5.85,0,0,0,87.43,304.15Zm.15-9a6.2,6.2,0,0,0,.19,1.52,3.38,3.38,0,0,0,.61,1.23,3,3,0,0,0,1.1.82,3.83,3.83,0,0,0,1.65.31,3.77,3.77,0,0,0,1.89-.44,2.74,2.74,0,0,0,1.14-1.3,4.89,4.89,0,0,0,.37-2,4.41,4.41,0,0,0-.44-2.08A2.92,2.92,0,0,0,92.88,292a3.8,3.8,0,0,0-1.78-.41,3.47,3.47,0,0,0-2.61.94A3.64,3.64,0,0,0,87.58,295.18Z"/><path d="M108.16,305.73a6,6,0,0,0,.09,1.2,1.45,1.45,0,0,0,.31.66,1.43,1.43,0,0,0,.65.39,4.89,4.89,0,0,0,1.06.22,16.45,16.45,0,0,0,1.68.1v1h-10v-1a17.08,17.08,0,0,0,2.15-.18,2.46,2.46,0,0,0,1-.35,1.32,1.32,0,0,0,.5-.65,4.63,4.63,0,0,0,.15-1.39V294.65a1.31,1.31,0,0,0-.19-.8.64.64,0,0,0-.55-.26,2.88,2.88,0,0,0-1.24.45c-.53.31-1.19.72-2,1.25l-.6-1.05,6.36-3.82h.74c0,.88-.08,2.09-.08,3.64Z"/><line x1="58.48" y1="317.74" x2="120.1" y2="317.74" style="fill:none;stroke:#000;stroke-miterlimit:10"/><path d="M208.44,209l1.71-1.24,1.19.3-2.84,12.71q-.27,1.13-.36,1.74a7,7,0,0,0-.09,1,1.33,1.33,0,0,0,.43,1.11,3.1,3.1,0,0,0,1.63.44L210,226h-5.32l1.17-4.7-.24-.08a16.54,16.54,0,0,1-3.38,3.84,5.53,5.53,0,0,1-3.39,1.22,3.68,3.68,0,0,1-3.17-1.56,7.32,7.32,0,0,1-1.12-4.36,15.78,15.78,0,0,1,.41-3.6,14.45,14.45,0,0,1,1.23-3.43,12.26,12.26,0,0,1,2-2.85,8.9,8.9,0,0,1,2.67-2,7.46,7.46,0,0,1,3.3-.73,8.65,8.65,0,0,1,2.19.27A7.56,7.56,0,0,1,208.44,209Zm-1.64,5.58a11.32,11.32,0,0,0,.23-1.33,11.71,11.71,0,0,0,.05-1.22,3.08,3.08,0,0,0-.61-2.13,2.7,2.7,0,0,0-2.05-.66,4.3,4.3,0,0,0-1.48.25,5,5,0,0,0-1.43.84,7.33,7.33,0,0,0-1.39,1.55,11.65,11.65,0,0,0-1.2,2.32,16.36,16.36,0,0,0-.84,2.93,17,17,0,0,0-.29,3,6.2,6.2,0,0,0,.53,2.92,1.85,1.85,0,0,0,1.77,1,3.13,3.13,0,0,0,1.2-.26,5.12,5.12,0,0,0,1.39-1,13.08,13.08,0,0,0,1.73-2.06,13.51,13.51,0,0,0,1.38-2.49,15.88,15.88,0,0,0,.85-2.89Z"/><path d="M20.51,304.27,22.22,303l1.19.3-2.85,12.71c-.17.75-.29,1.33-.35,1.73a7.17,7.17,0,0,0-.09,1,1.33,1.33,0,0,0,.43,1.11,3.1,3.1,0,0,0,1.63.44l-.17.92H16.7l1.17-4.7-.24-.08a16.32,16.32,0,0,1-3.39,3.84,5.49,5.49,0,0,1-3.38,1.22A3.68,3.68,0,0,1,7.69,320a7.32,7.32,0,0,1-1.13-4.36A16.36,16.36,0,0,1,7,312a14.93,14.93,0,0,1,1.24-3.43,12.54,12.54,0,0,1,2-2.86,8.87,8.87,0,0,1,2.67-2,7.46,7.46,0,0,1,3.3-.73,8.65,8.65,0,0,1,2.19.27A7.93,7.93,0,0,1,20.51,304.27Zm-1.64,5.58a12.9,12.9,0,0,0,.23-1.33c0-.37,0-.78,0-1.21a3.08,3.08,0,0,0-.61-2.13,2.7,2.7,0,0,0-2.05-.66,4.4,4.4,0,0,0-1.49.25,5.12,5.12,0,0,0-1.43.84,7.59,7.59,0,0,0-1.38,1.55,11.38,11.38,0,0,0-1.2,2.32,16.36,16.36,0,0,0-.84,2.93,16.1,16.1,0,0,0-.29,3,6.27,6.27,0,0,0,.52,2.91,1.87,1.87,0,0,0,1.78,1,3.21,3.21,0,0,0,1.2-.26,4.94,4.94,0,0,0,1.38-1A13.15,13.15,0,0,0,16.47,316a12.66,12.66,0,0,0,1.39-2.48,15.37,15.37,0,0,0,.84-2.89Z"/><path d="M336.15,229.63a7.41,7.41,0,0,1-3.79-.85,4.84,4.84,0,0,1-2.1-2.46,10.86,10.86,0,0,1-.65-4.06,27,27,0,0,1,.29-3.82q.41-2.69,1.15-6c.5-2.21,1-4,1.47-5.48a20,20,0,0,1,1.82-4.05,9.61,9.61,0,0,1,2.12-2.48,8,8,0,0,1,2.62-1.36,13.35,13.35,0,0,1,3.88-.5l-.3,1.36a7,7,0,0,0-2.39.34,4.91,4.91,0,0,0-1.68,1,8.32,8.32,0,0,0-1.63,2.14,23.87,23.87,0,0,0-1.75,4.3c-.48,1.53-1,3.4-1.45,5.6-.4,1.8-.71,3.42-1,4.86a32.12,32.12,0,0,0-.49,5,8.09,8.09,0,0,0,.47,3.05,3,3,0,0,0,1.35,1.57,5.11,5.11,0,0,0,2.32.46Z"/><path d="M349.06,215h-7.21l.55-2.57h7.2Z"/><path d="M353.46,206.54h5.19L356.56,215c-.16.62-.29,1.23-.41,1.85a9.56,9.56,0,0,0-.17,1.68,2.74,2.74,0,0,0,.4,1.69,1.49,1.49,0,0,0,1.26.52,2.8,2.8,0,0,0,1.54-.56,8,8,0,0,0,1.74-1.72,12.94,12.94,0,0,0,1.46-2.22,9.82,9.82,0,0,0,.84-2.49l1.5-7.2h2.85l-2.51,11.33c-.06.3-.14.7-.23,1.18a6.85,6.85,0,0,0-.13,1.2,1.17,1.17,0,0,0,.39,1,2.84,2.84,0,0,0,1.44.35l-.18.82h-4.72l1.06-4.17-.22-.07a14.39,14.39,0,0,1-3.09,3.4,5,5,0,0,1-3,1.1,3.12,3.12,0,0,1-2.42-.89,3.74,3.74,0,0,1-.82-2.63,9,9,0,0,1,.09-1.17c.06-.45.14-.91.25-1.4l1.39-5.89c.11-.49.18-.88.22-1.17a5.34,5.34,0,0,0,.06-.73,1.2,1.2,0,0,0-.4-1,2.75,2.75,0,0,0-1.41-.38Z"/><path d="M373,218.55l-.84,3.86h-3.13l.84-3.86Z"/><path d="M391.87,219.65a51.35,51.35,0,0,0,3.91-6.43,10.82,10.82,0,0,0,1.34-4.48,1.36,1.36,0,0,0-.33-1.06,1.88,1.88,0,0,0-1.12-.33l.17-.81h4.25l.45.83c-.39,1-.7,1.74-.93,2.27s-.53,1.17-.9,1.92-.77,1.49-1.19,2.23-.91,1.56-1.48,2.45-1.2,1.86-1.9,2.9-1.53,2.23-2.49,3.53h-2l-.68-6.94c-.05-.54-.11-1.25-.17-2.12s-.1-1.55-.12-2h-.18a43.34,43.34,0,0,1-2.43,4.91c-1,1.8-2.28,3.87-3.79,6.19h-2.21l-1.25-12.5a12.17,12.17,0,0,0-.25-1.56,1.7,1.7,0,0,0-.49-.9,2,2,0,0,0-1.14-.36l.18-.81h4.32l1,13.09q2.32-3.81,3.35-5.81a25.12,25.12,0,0,0,1.53-3.44,19.75,19.75,0,0,0,.76-3l.18-.81h2.37Z"/><path d="M426,210.4a3.73,3.73,0,0,0-.85-2.16,2.82,2.82,0,0,0-2.07-.68,3.19,3.19,0,0,0-1.4.3,2.26,2.26,0,0,0-1,.84,2.35,2.35,0,0,0-.36,1.3,2.63,2.63,0,0,0,.24,1.13,4.1,4.1,0,0,0,.84,1.05,13.08,13.08,0,0,0,1.64,1.26,7.92,7.92,0,0,1,2.24,2.09,4.28,4.28,0,0,1,.64,2.34,4.62,4.62,0,0,1-.74,2.65,4.41,4.41,0,0,1-2,1.62,7.42,7.42,0,0,1-2.9.53,16.47,16.47,0,0,1-2.71-.21c-.84-.15-1.66-.33-2.45-.55l.77-3.59h1.29a3.56,3.56,0,0,0,.87,2.29,2.94,2.94,0,0,0,2.18.75,3.32,3.32,0,0,0,2.29-.74,2.49,2.49,0,0,0,.83-2,3.28,3.28,0,0,0-.25-1.28,3.59,3.59,0,0,0-.78-1.08,12.1,12.1,0,0,0-1.5-1.18,12.45,12.45,0,0,1-1.68-1.34,4.55,4.55,0,0,1-1-1.39,3.81,3.81,0,0,1-.36-1.66,4.25,4.25,0,0,1,.68-2.4,4.3,4.3,0,0,1,1.92-1.54,7.45,7.45,0,0,1,2.91-.53,14.86,14.86,0,0,1,4.79.71l-.75,3.42Z"/><path d="M441.46,219.1a13.85,13.85,0,0,1-2.34,2.13,7.66,7.66,0,0,1-2.24,1.11,8.73,8.73,0,0,1-2.47.33,5.43,5.43,0,0,1-2.24-.42,4.26,4.26,0,0,1-1.56-1.16,4.76,4.76,0,0,1-.91-1.76,7.84,7.84,0,0,1-.3-2.22,13,13,0,0,1,.63-3.81,11.39,11.39,0,0,1,1.92-3.65,9,9,0,0,1,3.09-2.51,8.51,8.51,0,0,1,3.82-.89,4.6,4.6,0,0,1,3,.82,3.07,3.07,0,0,1,1,2.54,4.54,4.54,0,0,1-2.63,4.23q-2.62,1.41-7.81,1.41a11.28,11.28,0,0,0-.19,2.16,3.85,3.85,0,0,0,.67,2.53,2.76,2.76,0,0,0,2.21.79,5.73,5.73,0,0,0,2.75-.66,11.18,11.18,0,0,0,2.59-2Zm-8.76-5.26a22.45,22.45,0,0,0,2.66-.17,10.94,10.94,0,0,0,2-.44,5.46,5.46,0,0,0,1.37-.65,3.63,3.63,0,0,0,.86-.84,2.9,2.9,0,0,0,.45-1,4.59,4.59,0,0,0,.12-1.06,2.44,2.44,0,0,0-.47-1.58,1.7,1.7,0,0,0-1.39-.58,3.74,3.74,0,0,0-2.27.84,7.68,7.68,0,0,0-2,2.26A13,13,0,0,0,432.7,213.84Z"/><path d="M459,222.41h-5.19l2.09-8.44c.13-.54.26-1.14.39-1.79a9,9,0,0,0,.19-1.76,2.74,2.74,0,0,0-.41-1.69,1.46,1.46,0,0,0-1.26-.52,2.7,2.7,0,0,0-1.49.54,8.23,8.23,0,0,0-1.67,1.61,14.47,14.47,0,0,0-1.48,2.18,9.77,9.77,0,0,0-.93,2.68l-1.5,7.19h-2.85l2.51-11.34c.05-.26.12-.63.22-1.13a7.3,7.3,0,0,0,.14-1.25,1.56,1.56,0,0,0-.14-.72.85.85,0,0,0-.48-.38,4.51,4.51,0,0,0-1.15-.17l.2-.88,3.74-.15h.94l-1.1,4.31.2.07a14.63,14.63,0,0,1,3.11-3.4,5.08,5.08,0,0,1,3-1.1,3.16,3.16,0,0,1,2.43.89,3.74,3.74,0,0,1,.82,2.63,8.88,8.88,0,0,1-.11,1.3q-.11.71-.24,1.26l-1.38,5.91a8.5,8.5,0,0,0-.28,1.89,1.56,1.56,0,0,0,.16.78,1,1,0,0,0,.52.43,4,4,0,0,0,1.13.23Z"/><path d="M500.16,215H493l.54-2.57h7.21Z"/><path d="M525.62,219.65a51.35,51.35,0,0,0,3.91-6.43,10.82,10.82,0,0,0,1.34-4.48,1.36,1.36,0,0,0-.33-1.06,1.88,1.88,0,0,0-1.12-.33l.17-.81h4.25l.45.83c-.39,1-.7,1.74-.93,2.27s-.53,1.17-.9,1.92-.77,1.49-1.19,2.23-.91,1.56-1.48,2.45-1.2,1.86-1.9,2.9-1.53,2.23-2.49,3.53h-2l-.68-6.94c0-.54-.11-1.25-.17-2.12s-.1-1.55-.12-2h-.18a43.34,43.34,0,0,1-2.43,4.91c-1,1.8-2.28,3.87-3.79,6.19h-2.21l-1.25-12.5a12.17,12.17,0,0,0-.25-1.56,1.7,1.7,0,0,0-.49-.9,2,2,0,0,0-1.14-.36l.18-.81h4.32l1,13.09q2.32-3.81,3.35-5.81a25.12,25.12,0,0,0,1.53-3.44,19.75,19.75,0,0,0,.76-3l.18-.81h2.37Z"/><path d="M559.79,210.4a3.73,3.73,0,0,0-.85-2.16,2.82,2.82,0,0,0-2.07-.68,3.19,3.19,0,0,0-1.4.3,2.26,2.26,0,0,0-1,.84,2.35,2.35,0,0,0-.36,1.3,2.63,2.63,0,0,0,.24,1.13,4.1,4.1,0,0,0,.84,1.05,13.08,13.08,0,0,0,1.64,1.26,7.92,7.92,0,0,1,2.24,2.09,4.28,4.28,0,0,1,.64,2.34,4.62,4.62,0,0,1-.74,2.65,4.41,4.41,0,0,1-2,1.62,7.42,7.42,0,0,1-2.9.53,16.47,16.47,0,0,1-2.71-.21c-.84-.15-1.66-.33-2.45-.55l.77-3.59H551a3.56,3.56,0,0,0,.87,2.29,2.94,2.94,0,0,0,2.18.75,3.32,3.32,0,0,0,2.29-.74,2.49,2.49,0,0,0,.83-2,3.28,3.28,0,0,0-.25-1.28,3.59,3.59,0,0,0-.78-1.08,12.1,12.1,0,0,0-1.5-1.18,12.45,12.45,0,0,1-1.68-1.34,4.55,4.55,0,0,1-1-1.39,3.81,3.81,0,0,1-.36-1.66,4.25,4.25,0,0,1,.68-2.4,4.3,4.3,0,0,1,1.92-1.54,7.45,7.45,0,0,1,2.91-.53,14.86,14.86,0,0,1,4.79.71l-.75,3.42Z"/><path d="M575.21,219.1a13.85,13.85,0,0,1-2.34,2.13,7.66,7.66,0,0,1-2.24,1.11,8.73,8.73,0,0,1-2.47.33,5.43,5.43,0,0,1-2.24-.42,4.26,4.26,0,0,1-1.56-1.16,4.76,4.76,0,0,1-.91-1.76,7.84,7.84,0,0,1-.3-2.22,13,13,0,0,1,.63-3.81,11.39,11.39,0,0,1,1.92-3.65,9,9,0,0,1,3.09-2.51,8.51,8.51,0,0,1,3.82-.89,4.6,4.6,0,0,1,3,.82,3.07,3.07,0,0,1,1,2.54,4.54,4.54,0,0,1-2.63,4.23q-2.62,1.41-7.81,1.41a11.28,11.28,0,0,0-.19,2.16,3.85,3.85,0,0,0,.67,2.53,2.76,2.76,0,0,0,2.21.79,5.73,5.73,0,0,0,2.75-.66,11.18,11.18,0,0,0,2.59-2Zm-8.76-5.26a22.45,22.45,0,0,0,2.66-.17,10.94,10.94,0,0,0,2-.44,5.46,5.46,0,0,0,1.37-.65,3.63,3.63,0,0,0,.86-.84,2.9,2.9,0,0,0,.45-1,4.59,4.59,0,0,0,.12-1.06,2.44,2.44,0,0,0-.47-1.58,1.7,1.7,0,0,0-1.39-.58,3.74,3.74,0,0,0-2.27.84,7.68,7.68,0,0,0-2,2.26A13,13,0,0,0,566.45,213.84Z"/><path d="M592.77,222.41h-5.19l2.09-8.44c.13-.54.26-1.14.39-1.79a9,9,0,0,0,.19-1.76,2.74,2.74,0,0,0-.41-1.69,1.46,1.46,0,0,0-1.26-.52,2.7,2.7,0,0,0-1.49.54,8.23,8.23,0,0,0-1.67,1.61,14.47,14.47,0,0,0-1.48,2.18,9.77,9.77,0,0,0-.93,2.68l-1.5,7.19h-2.85l2.51-11.34c.05-.26.12-.63.22-1.13a7.3,7.3,0,0,0,.14-1.25,1.56,1.56,0,0,0-.14-.72.85.85,0,0,0-.48-.38,4.51,4.51,0,0,0-1.15-.17l.2-.88,3.74-.15h.94l-1.1,4.31.2.07a14.63,14.63,0,0,1,3.11-3.4,5.08,5.08,0,0,1,3-1.1,3.16,3.16,0,0,1,2.43.89,3.74,3.74,0,0,1,.82,2.63,8.88,8.88,0,0,1-.11,1.3q-.11.71-.24,1.26l-1.38,5.91a8.5,8.5,0,0,0-.28,1.89,1.56,1.56,0,0,0,.16.78,1,1,0,0,0,.52.43,4,4,0,0,0,1.13.23Z"/><path d="M627.88,213.81l-1.38,6.32H624l1.39-6.32h-5.62l.49-2.24h5.61l1.36-6.31h2.48l-1.37,6.31H634l-.5,2.24Z"/><path d="M659,219.65a50.39,50.39,0,0,0,3.92-6.43,11,11,0,0,0,1.34-4.48,1.36,1.36,0,0,0-.33-1.06,1.88,1.88,0,0,0-1.12-.33l.17-.81h4.25l.44.83c-.38,1-.69,1.74-.92,2.27s-.53,1.17-.91,1.92-.77,1.49-1.18,2.23-.91,1.56-1.48,2.45-1.2,1.86-1.9,2.9-1.54,2.23-2.49,3.53h-2l-.68-6.94c0-.54-.11-1.25-.17-2.12s-.1-1.55-.13-2h-.18a41.51,41.51,0,0,1-2.42,4.91c-1,1.8-2.29,3.87-3.79,6.19h-2.21L646,210.17a12.17,12.17,0,0,0-.25-1.56,1.7,1.7,0,0,0-.49-.9,2,2,0,0,0-1.14-.36l.18-.81h4.32l1,13.09c1.55-2.54,2.66-4.48,3.35-5.81a25.12,25.12,0,0,0,1.53-3.44,18.64,18.64,0,0,0,.75-3l.19-.81h2.37Z"/><path d="M679.05,198.58a7.52,7.52,0,0,1,3.79.85,4.84,4.84,0,0,1,2.1,2.46,11.07,11.07,0,0,1,.65,4.06,25.9,25.9,0,0,1-.3,3.74c-.26,1.93-.67,4.07-1.21,6.42-.52,2.18-1,4-1.49,5.35a20.07,20.07,0,0,1-1.75,3.88,9.56,9.56,0,0,1-2.11,2.45,8.08,8.08,0,0,1-2.63,1.34,13.3,13.3,0,0,1-3.86.5l.3-1.36a7,7,0,0,0,2.38-.34,4.89,4.89,0,0,0,1.65-1,8.31,8.31,0,0,0,1.69-2.21,23.9,23.9,0,0,0,1.73-4.29c.55-1.75,1.06-3.76,1.55-6.06q.57-2.66.9-4.71a30.51,30.51,0,0,0,.45-4.67,8,8,0,0,0-.48-3.07,3,3,0,0,0-1.36-1.56,5.06,5.06,0,0,0-2.3-.45Z"/><path d="M136,326.08a8.64,8.64,0,0,1-3.76-.7,5,5,0,0,1-2.28-2.13,11.17,11.17,0,0,1-1.18-3.71,53.4,53.4,0,0,1,0-12.38,11.13,11.13,0,0,1,1.17-3.75,5.14,5.14,0,0,1,2.28-2.17,8.41,8.41,0,0,1,3.77-.73v1.12a7.69,7.69,0,0,0-1.68.17,2.91,2.91,0,0,0-1.41.74,4.22,4.22,0,0,0-1.06,1.68,14.24,14.24,0,0,0-.71,3.33,54.61,54.61,0,0,0-.24,5.69c0,2.05.07,3.79.2,5.23a15.35,15.35,0,0,0,.68,3.52,5.17,5.17,0,0,0,.95,1.79,3.17,3.17,0,0,0,1.2.85A5.47,5.47,0,0,0,136,325Z"/><path d="M144.13,320.35a4.78,4.78,0,0,1-4.37-2.32c-.95-1.55-1.43-3.91-1.43-7.06a19,19,0,0,1,.44-4.35,9.4,9.4,0,0,1,1.24-3,5,5,0,0,1,4.33-2.34,4.87,4.87,0,0,1,4.43,2.31q1.46,2.31,1.45,7t-1.55,7.32A5,5,0,0,1,144.13,320.35ZM141,310.56a19.09,19.09,0,0,0,.82,6.54,2.73,2.73,0,0,0,2.54,2.09,2.62,2.62,0,0,0,2.44-2,17.31,17.31,0,0,0,.79-6.08,25.84,25.84,0,0,0-.4-5.09,6.32,6.32,0,0,0-1.14-2.8,2.21,2.21,0,0,0-1.75-.85,2.29,2.29,0,0,0-1.57.56,4,4,0,0,0-1,1.62,10.77,10.77,0,0,0-.55,2.56A31.75,31.75,0,0,0,141,310.56Z"/><path d="M156.17,317a10.27,10.27,0,0,1,.19,1.89,4.55,4.55,0,0,1-.33,1.75,5.48,5.48,0,0,1-1,1.57,13.26,13.26,0,0,1-2,1.73l-.73-.83a6,6,0,0,0,1-1.18,3.74,3.74,0,0,0,.45-1.2,8.64,8.64,0,0,0,.14-1.68c0-.69,0-1.38-.1-2.05Z"/><path d="M159.83,305.34v-2.6a17.68,17.68,0,0,1,2.95-1.12,9.94,9.94,0,0,1,2.64-.37,7,7,0,0,1,2.69.48,3.92,3.92,0,0,1,1.77,1.37,3.77,3.77,0,0,1,.61,2.14,4.46,4.46,0,0,1-.46,2.05,4.72,4.72,0,0,1-1.3,1.53,11.39,11.39,0,0,1-2.17,1.29v.12a6,6,0,0,1,1.6.52,5.13,5.13,0,0,1,1.36.93,4.27,4.27,0,0,1,1,1.38,4.38,4.38,0,0,1,.36,1.82,5.77,5.77,0,0,1-.68,2.82,4.78,4.78,0,0,1-2.1,1.94,7.64,7.64,0,0,1-3.44.71,12.8,12.8,0,0,1-2.51-.27,13.94,13.94,0,0,1-2.48-.7v-2.9h1.63a4.3,4.3,0,0,0,1.25,2.06,3.24,3.24,0,0,0,2.13.65,3.48,3.48,0,0,0,2.66-1,4.05,4.05,0,0,0,.91-2.87,3.83,3.83,0,0,0-1.2-3.05,5.09,5.09,0,0,0-3.5-1.06h-1.22V310a8.28,8.28,0,0,0,3.09-.71,4.45,4.45,0,0,0,1.86-1.54,3.81,3.81,0,0,0,.61-2.12,3.18,3.18,0,0,0-.8-2.34,3.09,3.09,0,0,0-2.33-.82,3,3,0,0,0-2.08.7,4.11,4.11,0,0,0-1.18,2.13Z"/><path d="M175.1,319.38v-2.9h1.65a4,4,0,0,0,1.22,2,3.3,3.3,0,0,0,2.13.66,3.38,3.38,0,0,0,2.73-1.1,5,5,0,0,0,.92-3.26,5.15,5.15,0,0,0-.49-2.4,3,3,0,0,0-1.31-1.38,4.25,4.25,0,0,0-1.93-.42,9,9,0,0,0-3,.48l-1.08-.65v-9h7.48a2,2,0,0,0,.66-.08.66.66,0,0,0,.33-.23,2.16,2.16,0,0,0,.28-.59h1.06l-.2,3.17h-7.81v6a7.1,7.1,0,0,1,1.54-.45,9.21,9.21,0,0,1,1.65-.15,6,6,0,0,1,2.87.66,4.69,4.69,0,0,1,1.93,1.89,5.76,5.76,0,0,1,.67,2.84,6.14,6.14,0,0,1-.76,3.14,4.92,4.92,0,0,1-2.2,2,7.9,7.9,0,0,1-3.4.68A13.82,13.82,0,0,1,175.1,319.38Z"/><path d="M205.4,307.55l-.88,1.52L201,306.6l.39,4.28h-1.79l.41-4.28-3.5,2.47-.9-1.52,3.88-1.83-3.88-1.82.9-1.53,3.5,2.48-.41-4.28h1.79l-.39,4.28,3.49-2.48.88,1.53-3.87,1.82Z"/><path d="M222.11,317.94a5.34,5.34,0,0,0,1.08-.08,1.49,1.49,0,0,0,.65-.27,1.36,1.36,0,0,0,.38-.5,8.27,8.27,0,0,0,.36-.95h1.16l-.23,4H214.33v-.66a17.28,17.28,0,0,1,1.58-2.93,31.63,31.63,0,0,1,2.81-3.55c1.05-1.16,1.81-2.05,2.27-2.65a12.07,12.07,0,0,0,1.13-1.7,6.54,6.54,0,0,0,.54-1.35,5.1,5.1,0,0,0,.16-1.28,4.6,4.6,0,0,0-.33-1.81,2.66,2.66,0,0,0-1-1.24,3,3,0,0,0-1.69-.45q-2.55,0-3.43,2.84h-1.64v-2.62a16,16,0,0,1,3.08-1.13,11.08,11.08,0,0,1,2.57-.35,5.7,5.7,0,0,1,3.81,1.11,4.05,4.05,0,0,1,1.29,3.24,5.54,5.54,0,0,1-.14,1.33,4.61,4.61,0,0,1-.45,1.2,7.74,7.74,0,0,1-.82,1.28c-.34.46-.72.92-1.14,1.39s-1.13,1.25-2.16,2.34a28.91,28.91,0,0,0-3.78,4.8Z"/><path d="M230,319.38v-2.9h1.65a4,4,0,0,0,1.22,2,3.3,3.3,0,0,0,2.13.66,3.38,3.38,0,0,0,2.73-1.1,5,5,0,0,0,.92-3.26,5.15,5.15,0,0,0-.49-2.4,3,3,0,0,0-1.31-1.38,4.25,4.25,0,0,0-1.93-.42,9,9,0,0,0-3,.48l-1.08-.65v-9h7.48a2,2,0,0,0,.66-.08.66.66,0,0,0,.33-.23,2.16,2.16,0,0,0,.28-.59h1.06l-.2,3.17h-7.81v6a7.26,7.26,0,0,1,1.54-.45,9.21,9.21,0,0,1,1.65-.15,6,6,0,0,1,2.87.66,4.69,4.69,0,0,1,1.93,1.89,5.76,5.76,0,0,1,.67,2.84,6.14,6.14,0,0,1-.76,3.14,4.92,4.92,0,0,1-2.2,2,7.9,7.9,0,0,1-3.4.68A13.82,13.82,0,0,1,230,319.38Z"/><path d="M260.31,307.55l-.88,1.52-3.49-2.47.4,4.28h-1.8l.41-4.28-3.5,2.47-.9-1.52,3.89-1.83-3.89-1.82.9-1.53,3.5,2.48-.41-4.28h1.8l-.4,4.28,3.49-2.48.88,1.53-3.87,1.82Z"/><path d="M281.64,301.87v3.78h-1.35a6,6,0,0,0-.82-1.89,3,3,0,0,0-1.17-1,3.87,3.87,0,0,0-1.6-.3,3.75,3.75,0,0,0-2.49.94,6.15,6.15,0,0,0-1.72,2.82,14.35,14.35,0,0,0-.62,4.54,17.87,17.87,0,0,0,.51,4.58,6,6,0,0,0,1.52,2.85,3.4,3.4,0,0,0,2.47,1,4.5,4.5,0,0,0,1.82-.32,3,3,0,0,0,1.19-1,7.86,7.86,0,0,0,.91-2.05h1.35v3.91a22.3,22.3,0,0,1-2.61.51,24.15,24.15,0,0,1-2.94.17,6.12,6.12,0,0,1-5.22-2.35q-1.75-2.36-1.76-7a13.07,13.07,0,0,1,.92-5.12,7.09,7.09,0,0,1,6.94-4.61,18,18,0,0,1,2.28.13A18.51,18.51,0,0,1,281.64,301.87Z"/><path d="M290.35,320.35a5.47,5.47,0,0,1-4.31-1.68,7.23,7.23,0,0,1-1.48-4.95,8.47,8.47,0,0,1,.78-3.82,5.23,5.23,0,0,1,2.14-2.31,6.15,6.15,0,0,1,3.09-.76,5.56,5.56,0,0,1,4.4,1.7,7.17,7.17,0,0,1,1.49,4.89,9,9,0,0,1-.74,3.83,5.18,5.18,0,0,1-2.12,2.33A6.59,6.59,0,0,1,290.35,320.35Zm-3.23-6.92a8.66,8.66,0,0,0,.89,4.33,2.8,2.8,0,0,0,2.55,1.51,2.72,2.72,0,0,0,1.55-.44,3.36,3.36,0,0,0,1-1.2,5.84,5.84,0,0,0,.58-1.74,11.75,11.75,0,0,0,.18-2.08,10.79,10.79,0,0,0-.44-3.33,4.16,4.16,0,0,0-1.21-2,2.66,2.66,0,0,0-1.73-.62,2.79,2.79,0,0,0-2.52,1.43A7.94,7.94,0,0,0,287.12,313.43Z"/><path d="M308.3,310.05H307a4.32,4.32,0,0,0-.71-1.29,2.32,2.32,0,0,0-.92-.66,3.63,3.63,0,0,0-1.26-.19,2.73,2.73,0,0,0-1.74.51,1.72,1.72,0,0,0-.64,1.4,1.93,1.93,0,0,0,.26,1,2.69,2.69,0,0,0,.8.77,14.63,14.63,0,0,0,1.91.94,13.2,13.2,0,0,1,2.14,1.11,4,4,0,0,1,1.18,1.17,2.88,2.88,0,0,1,.43,1.6,4,4,0,0,1-.37,1.82,3.08,3.08,0,0,1-1,1.2,4.27,4.27,0,0,1-1.58.67,9,9,0,0,1-2,.21,14.68,14.68,0,0,1-2.22-.17,20.4,20.4,0,0,1-2.09-.45v-2.85h1.33a3.51,3.51,0,0,0,1.09,1.82,3.11,3.11,0,0,0,2,.57,4.34,4.34,0,0,0,1-.1,2.68,2.68,0,0,0,.83-.34,1.76,1.76,0,0,0,.59-.65,2.27,2.27,0,0,0,.22-1,2,2,0,0,0-.28-1.13,2.5,2.5,0,0,0-.84-.8,14.53,14.53,0,0,0-2-1,13.76,13.76,0,0,1-2-1,3.84,3.84,0,0,1-1.17-1.17,2.81,2.81,0,0,1-.43-1.58,3.23,3.23,0,0,1,.6-2,3.8,3.8,0,0,1,1.75-1.26,7.26,7.26,0,0,1,2.67-.44,16,16,0,0,1,1.73.09,20.67,20.67,0,0,1,2.1.35Z"/><path d="M326,326.08a8.69,8.69,0,0,1-3.77-.7,5,5,0,0,1-2.27-2.13,10.94,10.94,0,0,1-1.18-3.71,40.12,40.12,0,0,1-.37-6.19,42,42,0,0,1,.36-6.19,11.35,11.35,0,0,1,1.17-3.75,5.24,5.24,0,0,1,2.28-2.17,8.46,8.46,0,0,1,3.78-.73v1.12a7.63,7.63,0,0,0-1.68.17,2.9,2.9,0,0,0-1.42.74,4.45,4.45,0,0,0-1.06,1.68,14.3,14.3,0,0,0-.7,3.33,54.21,54.21,0,0,0-.25,5.69c0,2.05.07,3.79.21,5.23a14.83,14.83,0,0,0,.68,3.52,5,5,0,0,0,1,1.79,3.14,3.14,0,0,0,1.19.85A5.56,5.56,0,0,0,326,325Z"/><path d="M328.73,305.34v-2.6a17.68,17.68,0,0,1,2.95-1.12,9.94,9.94,0,0,1,2.64-.37,7,7,0,0,1,2.69.48,3.92,3.92,0,0,1,1.77,1.37,3.77,3.77,0,0,1,.61,2.14,4.46,4.46,0,0,1-.46,2.05,4.72,4.72,0,0,1-1.3,1.53,11.39,11.39,0,0,1-2.17,1.29v.12a6,6,0,0,1,1.6.52,5.13,5.13,0,0,1,1.36.93,4.27,4.27,0,0,1,1,1.38,4.38,4.38,0,0,1,.36,1.82,5.66,5.66,0,0,1-.69,2.82,4.7,4.7,0,0,1-2.09,1.94,7.64,7.64,0,0,1-3.44.71,13,13,0,0,1-2.52-.27,14.07,14.07,0,0,1-2.47-.7v-2.9h1.63a4.3,4.3,0,0,0,1.25,2.06,3.24,3.24,0,0,0,2.13.65,3.48,3.48,0,0,0,2.66-1,4.05,4.05,0,0,0,.91-2.87,3.83,3.83,0,0,0-1.2-3.05,5.09,5.09,0,0,0-3.5-1.06h-1.22V310a8.28,8.28,0,0,0,3.09-.71,4.45,4.45,0,0,0,1.86-1.54,3.81,3.81,0,0,0,.61-2.12,3.18,3.18,0,0,0-.8-2.34,3.09,3.09,0,0,0-2.33-.82,3,3,0,0,0-2.08.7,4.11,4.11,0,0,0-1.18,2.13Z"/><path d="M354.33,302v.67a7.45,7.45,0,0,0-3.7.9,7.34,7.34,0,0,0-2.68,2.66,12,12,0,0,0-1.5,4.15l.13.06a8.87,8.87,0,0,1,2.25-1.21,7.44,7.44,0,0,1,2.39-.38,4.84,4.84,0,0,1,2.62.68,4.14,4.14,0,0,1,1.62,1.9,7,7,0,0,1,.54,2.86,6.85,6.85,0,0,1-.68,3.14,4.9,4.9,0,0,1-2.09,2.14,7.19,7.19,0,0,1-3.5.78,5.46,5.46,0,0,1-4.49-1.86,8.58,8.58,0,0,1-1.51-5.48,13.29,13.29,0,0,1,.76-4.55,11.24,11.24,0,0,1,2.16-3.7,10.42,10.42,0,0,1,3.24-2.49,9.81,9.81,0,0,1,3.89-1Zm-4,8.29a5.34,5.34,0,0,0-1.28.15,4.7,4.7,0,0,0-1.17.44,5.78,5.78,0,0,0-1,.72,1.18,1.18,0,0,0-.25.31,1.72,1.72,0,0,0-.17.65,12,12,0,0,0-.05,1.28,7.46,7.46,0,0,0,.87,4,2.92,2.92,0,0,0,2.64,1.37,3.67,3.67,0,0,0,1.71-.36,3,3,0,0,0,1.12-1,4.1,4.1,0,0,0,.61-1.46,8.71,8.71,0,0,0,.18-1.82,5.24,5.24,0,0,0-.83-3.15A2.7,2.7,0,0,0,350.29,310.29Z"/><path d="M361.55,317a9.47,9.47,0,0,1,.19,1.89,4.54,4.54,0,0,1-.32,1.75,5.48,5.48,0,0,1-1,1.57,13.26,13.26,0,0,1-2,1.73l-.73-.83a6,6,0,0,0,1-1.18,3.74,3.74,0,0,0,.45-1.2,8.74,8.74,0,0,0,.13-1.68c0-.69,0-1.38-.09-2.05Z"/><path d="M367.31,319.6v-.67a6.13,6.13,0,0,0,3.29-.85,6,6,0,0,0,2.24-2.51,12.48,12.48,0,0,0,1.14-4.35l-.14-.06a8.87,8.87,0,0,1-2.25,1.21,7.35,7.35,0,0,1-2.39.38,4.86,4.86,0,0,1-2.62-.68,4.26,4.26,0,0,1-1.62-1.9,7,7,0,0,1-.54-2.86,6.68,6.68,0,0,1,.41-2.33,5.31,5.31,0,0,1,1.21-1.93,5.66,5.66,0,0,1,2-1.31,7.3,7.3,0,0,1,2.8-.49,5.09,5.09,0,0,1,4.34,2,9.3,9.3,0,0,1,1.5,5.7,14.58,14.58,0,0,1-1.1,5.9,9.07,9.07,0,0,1-3.08,3.89,9.46,9.46,0,0,1-4.63,1.63Zm2.82-8.29a5.21,5.21,0,0,0,1-.09A5.05,5.05,0,0,0,372,311a5.4,5.4,0,0,0,.87-.43,5.91,5.91,0,0,0,.77-.57,1.16,1.16,0,0,0,.22-.29,1.57,1.57,0,0,0,.14-.46,5,5,0,0,0,.06-.91,12.4,12.4,0,0,0-.37-3.2,4,4,0,0,0-1.15-2,2.76,2.76,0,0,0-1.89-.68,3.74,3.74,0,0,0-1.72.36,3,3,0,0,0-1.15,1,4.13,4.13,0,0,0-.64,1.46A7.51,7.51,0,0,0,367,307a5.26,5.26,0,0,0,.83,3.16A2.72,2.72,0,0,0,370.13,311.31Z"/><path d="M379,300.51a8.72,8.72,0,0,1,3.77.7,5,5,0,0,1,2.27,2.13,10.94,10.94,0,0,1,1.18,3.71,40.12,40.12,0,0,1,.37,6.19,42,42,0,0,1-.36,6.19,11.12,11.12,0,0,1-1.18,3.75,5.14,5.14,0,0,1-2.28,2.17,8.38,8.38,0,0,1-3.77.73V325a7.69,7.69,0,0,0,1.68-.17,2.83,2.83,0,0,0,1.41-.74,4.22,4.22,0,0,0,1.06-1.68,13.75,13.75,0,0,0,.71-3.33,54.61,54.61,0,0,0,.24-5.69c0-2.05-.06-3.79-.2-5.23a15.35,15.35,0,0,0-.68-3.52,5,5,0,0,0-.95-1.79,3.14,3.14,0,0,0-1.19-.85,5.56,5.56,0,0,0-2.08-.33Z"/><path d="M403,314h-6.3v-2.12H403Z"/><path d="M420.08,317.94a5.24,5.24,0,0,0,1.07-.08,1.44,1.44,0,0,0,.65-.27,1.5,1.5,0,0,0,.39-.5c.09-.21.21-.52.36-.95h1.15l-.23,4H412.3v-.66a17.2,17.2,0,0,1,1.57-2.93,31.63,31.63,0,0,1,2.81-3.55c1.05-1.16,1.81-2.05,2.27-2.65a11.24,11.24,0,0,0,1.13-1.7,6.54,6.54,0,0,0,.54-1.35,5.1,5.1,0,0,0,.16-1.28,4.8,4.8,0,0,0-.32-1.81,2.68,2.68,0,0,0-1-1.24,3,3,0,0,0-1.69-.45q-2.53,0-3.42,2.84H412.7v-2.62a16.26,16.26,0,0,1,3.08-1.13,11.08,11.08,0,0,1,2.57-.35,5.71,5.71,0,0,1,3.82,1.11,4.05,4.05,0,0,1,1.29,3.24,5.52,5.52,0,0,1-.15,1.33,5,5,0,0,1-.44,1.2,8.58,8.58,0,0,1-.83,1.28c-.34.46-.72.92-1.14,1.39s-1.13,1.25-2.15,2.34a29.05,29.05,0,0,0-3.79,4.8Z"/><path d="M428,319.38v-2.9h1.64a3.94,3.94,0,0,0,1.23,2,3.28,3.28,0,0,0,2.12.66,3.36,3.36,0,0,0,2.73-1.1,4.91,4.91,0,0,0,.92-3.26,5.28,5.28,0,0,0-.48-2.4,3.1,3.1,0,0,0-1.32-1.38,4.22,4.22,0,0,0-1.93-.42,9.2,9.2,0,0,0-1.59.12,8.7,8.7,0,0,0-1.42.36l-1.09-.65v-9h7.48a2.12,2.12,0,0,0,.67-.08.68.68,0,0,0,.32-.23,2.43,2.43,0,0,0,.29-.59h1.06l-.21,3.17h-7.8v6a7.17,7.17,0,0,1,1.53-.45,9.32,9.32,0,0,1,1.66-.15,6,6,0,0,1,2.86.66,4.63,4.63,0,0,1,1.93,1.89,5.76,5.76,0,0,1,.68,2.84,6.24,6.24,0,0,1-.76,3.14,5,5,0,0,1-2.2,2,8,8,0,0,1-3.41.68A13.81,13.81,0,0,1,428,319.38Z"/><path d="M458.28,307.55l-.89,1.52-3.48-2.47.39,4.28h-1.79l.4-4.28-3.5,2.47-.89-1.52,3.88-1.83-3.88-1.82.89-1.53,3.5,2.48-.4-4.28h1.79l-.39,4.28,3.48-2.48.89,1.53-3.87,1.82Z"/><path d="M475.87,310.05h-1.3a4.32,4.32,0,0,0-.71-1.29,2.32,2.32,0,0,0-.92-.66,3.63,3.63,0,0,0-1.26-.19,2.73,2.73,0,0,0-1.74.51,1.69,1.69,0,0,0-.64,1.4,1.93,1.93,0,0,0,.26,1,2.69,2.69,0,0,0,.8.77,14.63,14.63,0,0,0,1.91.94,13.2,13.2,0,0,1,2.14,1.11,4,4,0,0,1,1.18,1.17,2.88,2.88,0,0,1,.43,1.6,4,4,0,0,1-.37,1.82,3.08,3.08,0,0,1-1,1.2,4.27,4.27,0,0,1-1.58.67,9,9,0,0,1-2,.21,14.68,14.68,0,0,1-2.22-.17,20.4,20.4,0,0,1-2.09-.45v-2.85h1.33a3.51,3.51,0,0,0,1.09,1.82,3.11,3.11,0,0,0,2,.57,4.34,4.34,0,0,0,1-.1,2.68,2.68,0,0,0,.83-.34,1.76,1.76,0,0,0,.59-.65,2.27,2.27,0,0,0,.22-1,2.12,2.12,0,0,0-.28-1.13,2.5,2.5,0,0,0-.84-.8,14.53,14.53,0,0,0-2-1,13.76,13.76,0,0,1-2-1,3.84,3.84,0,0,1-1.17-1.17,2.81,2.81,0,0,1-.43-1.58,3.23,3.23,0,0,1,.6-2,3.8,3.8,0,0,1,1.75-1.26,7.26,7.26,0,0,1,2.67-.44,16,16,0,0,1,1.73.09,20.67,20.67,0,0,1,2.1.35Z"/><path d="M489.57,317.81a11.33,11.33,0,0,1-1.6,1.43,5.74,5.74,0,0,1-3.51,1.11,5.2,5.2,0,0,1-4.22-1.69,7.55,7.55,0,0,1-1.42-5,8.51,8.51,0,0,1,.72-3.6,5.54,5.54,0,0,1,2.07-2.4,5.66,5.66,0,0,1,3.1-.85,5.48,5.48,0,0,1,2.33.44,3.94,3.94,0,0,1,1.54,1.19,5.52,5.52,0,0,1,.9,1.92,13,13,0,0,1,.36,3h-8.55v.25a8.8,8.8,0,0,0,.36,2.71,3.34,3.34,0,0,0,1.18,1.72,3.39,3.39,0,0,0,2.13.63,4.66,4.66,0,0,0,2-.42,6,6,0,0,0,1.77-1.36Zm-2.28-5.55a10.84,10.84,0,0,0-.37-2.42,3,3,0,0,0-.86-1.43,2.13,2.13,0,0,0-1.49-.5,2.61,2.61,0,0,0-2.23,1.13,6,6,0,0,0-1,3.22Z"/><path d="M505.5,320.13h-5.34v-.67a3.91,3.91,0,0,0,.75-.29,1,1,0,0,0,.39-.34,1.65,1.65,0,0,0,.25-.67,8.1,8.1,0,0,0,.08-1.39v-3.58c0-.64,0-1.22-.05-1.74a8.35,8.35,0,0,0-.18-1.28,2.62,2.62,0,0,0-.32-.78,2,2,0,0,0-.43-.48,2.14,2.14,0,0,0-.58-.31,2.47,2.47,0,0,0-.85-.12,2.5,2.5,0,0,0-1,.21,4.42,4.42,0,0,0-1,.74,3.55,3.55,0,0,0-.83,1,2.57,2.57,0,0,0-.26,1.16v5.1a8.44,8.44,0,0,0,.11,1.64,1.16,1.16,0,0,0,.42.69,2.75,2.75,0,0,0,1,.42v.67h-5.32v-.67a4.07,4.07,0,0,0,.76-.29,1.08,1.08,0,0,0,.37-.34,1.65,1.65,0,0,0,.25-.67,7.92,7.92,0,0,0,.09-1.41v-6q0-.87,0-1.41a2.14,2.14,0,0,0-.19-.85,1.08,1.08,0,0,0-.49-.48,4.18,4.18,0,0,0-1-.26v-.73l3.18-.12h.83l-.15,2.23.19.05a13.4,13.4,0,0,1,1.62-1.46,5.69,5.69,0,0,1,1.25-.68,3.69,3.69,0,0,1,1.33-.24,4.86,4.86,0,0,1,1.32.17,3,3,0,0,1,1,.53,2.84,2.84,0,0,1,.73.88,4.5,4.5,0,0,1,.43,1.27,10.57,10.57,0,0,1,.14,1.87v5.15c0,.63,0,1.09,0,1.37a1.93,1.93,0,0,0,.19.66,1.25,1.25,0,0,0,.4.39,4.26,4.26,0,0,0,.89.33Z"/><path d="M516.51,326.08a8.64,8.64,0,0,1-3.76-.7,5,5,0,0,1-2.28-2.13,11.17,11.17,0,0,1-1.18-3.71,41.43,41.43,0,0,1-.37-6.19,40.47,40.47,0,0,1,.37-6.19,11.13,11.13,0,0,1,1.17-3.75,5.14,5.14,0,0,1,2.28-2.17,8.41,8.41,0,0,1,3.77-.73v1.12a7.69,7.69,0,0,0-1.68.17,2.91,2.91,0,0,0-1.41.74,4.22,4.22,0,0,0-1.06,1.68,14.24,14.24,0,0,0-.71,3.33,54.61,54.61,0,0,0-.24,5.69c0,2.05.07,3.79.2,5.23a15.35,15.35,0,0,0,.68,3.52,5,5,0,0,0,1,1.79,3.17,3.17,0,0,0,1.2.85,5.47,5.47,0,0,0,2.07.33Z"/><path d="M519.25,305.34v-2.6a18,18,0,0,1,3-1.12,10.07,10.07,0,0,1,2.65-.37,7,7,0,0,1,2.69.48,4,4,0,0,1,1.76,1.37,3.69,3.69,0,0,1,.61,2.14,4.33,4.33,0,0,1-.46,2.05,4.72,4.72,0,0,1-1.3,1.53,11.28,11.28,0,0,1-2.16,1.29v.12a6,6,0,0,1,1.59.52,5.18,5.18,0,0,1,1.37.93,4.25,4.25,0,0,1,.95,1.38,4.38,4.38,0,0,1,.36,1.82,5.66,5.66,0,0,1-.68,2.82,4.78,4.78,0,0,1-2.1,1.94,7.6,7.6,0,0,1-3.43.71,12.89,12.89,0,0,1-2.52-.27,14.18,14.18,0,0,1-2.48-.7v-2.9h1.63a4.38,4.38,0,0,0,1.26,2.06,3.22,3.22,0,0,0,2.12.65,3.49,3.49,0,0,0,2.67-1,4.1,4.1,0,0,0,.9-2.87,3.85,3.85,0,0,0-1.19-3.05,5.13,5.13,0,0,0-3.51-1.06h-1.22V310a8.28,8.28,0,0,0,3.09-.71,4.48,4.48,0,0,0,1.87-1.54,3.89,3.89,0,0,0,.61-2.12,3.22,3.22,0,0,0-.8-2.34,3.13,3.13,0,0,0-2.34-.82,3,3,0,0,0-2.07.7,4.12,4.12,0,0,0-1.19,2.13Z"/><path d="M544.86,302v.67a7.49,7.49,0,0,0-3.71.9,7.42,7.42,0,0,0-2.68,2.66,12,12,0,0,0-1.5,4.15l.14.06a9,9,0,0,1,2.24-1.21,7.45,7.45,0,0,1,2.4-.38,4.83,4.83,0,0,1,2.61.68,4.14,4.14,0,0,1,1.62,1.9,6.85,6.85,0,0,1,.55,2.86,7,7,0,0,1-.68,3.14,4.87,4.87,0,0,1-2.1,2.14,7.15,7.15,0,0,1-3.49.78,5.44,5.44,0,0,1-4.49-1.86,8.52,8.52,0,0,1-1.51-5.48,13.29,13.29,0,0,1,.76-4.55,11,11,0,0,1,2.15-3.7,10.57,10.57,0,0,1,3.25-2.49,9.77,9.77,0,0,1,3.88-1Zm-4.05,8.29a5.4,5.4,0,0,0-1.28.15,4.63,4.63,0,0,0-1.16.44,5.84,5.84,0,0,0-1.06.72,1,1,0,0,0-.24.31,1.92,1.92,0,0,0-.18.65c0,.25,0,.68,0,1.28a7.46,7.46,0,0,0,.87,4,2.9,2.9,0,0,0,2.63,1.37,3.67,3.67,0,0,0,1.71-.36,3,3,0,0,0,1.12-1,3.92,3.92,0,0,0,.61-1.46,8.69,8.69,0,0,0,.19-1.82,5.24,5.24,0,0,0-.83-3.15A2.71,2.71,0,0,0,540.81,310.29Z"/><path d="M552.08,317a9.47,9.47,0,0,1,.19,1.89,4.55,4.55,0,0,1-.33,1.75,5.43,5.43,0,0,1-1,1.57,13.4,13.4,0,0,1-2,1.73l-.73-.83a5.64,5.64,0,0,0,1-1.18,3.74,3.74,0,0,0,.45-1.2,8.64,8.64,0,0,0,.14-1.68,19.82,19.82,0,0,0-.1-2.05Z"/><path d="M557.83,319.6v-.67a5.82,5.82,0,0,0,5.54-3.36,12.71,12.71,0,0,0,1.13-4.35l-.14-.06a8.82,8.82,0,0,1-2.24,1.21,7.45,7.45,0,0,1-2.4.38,4.83,4.83,0,0,1-2.61-.68,4.14,4.14,0,0,1-1.62-1.9,6.85,6.85,0,0,1-.55-2.86,6.68,6.68,0,0,1,.41-2.33,5.31,5.31,0,0,1,1.21-1.93,5.66,5.66,0,0,1,2-1.31,7.33,7.33,0,0,1,2.8-.49,5.12,5.12,0,0,1,4.35,2,9.37,9.37,0,0,1,1.49,5.7,14.58,14.58,0,0,1-1.1,5.9,9.07,9.07,0,0,1-3.08,3.89,9.43,9.43,0,0,1-4.63,1.63Zm2.83-8.29a5.18,5.18,0,0,0,1-.09,5.25,5.25,0,0,0,1.79-.69,5.3,5.3,0,0,0,.77-.57,1,1,0,0,0,.22-.29,1.91,1.91,0,0,0,.15-.46,6.38,6.38,0,0,0,0-.91,12,12,0,0,0-.37-3.2,4.07,4.07,0,0,0-1.14-2,2.77,2.77,0,0,0-1.9-.68,3.77,3.77,0,0,0-1.72.36,3,3,0,0,0-1.15,1,4.13,4.13,0,0,0-.64,1.46,7.51,7.51,0,0,0-.21,1.82,5.26,5.26,0,0,0,.83,3.16A2.74,2.74,0,0,0,560.66,311.31Z"/><path d="M569.56,300.51a8.69,8.69,0,0,1,3.77.7,5.1,5.1,0,0,1,2.28,2.13,11.17,11.17,0,0,1,1.18,3.71,53.4,53.4,0,0,1,0,12.38,11.35,11.35,0,0,1-1.17,3.75,5.14,5.14,0,0,1-2.28,2.17,8.46,8.46,0,0,1-3.78.73V325a7.72,7.72,0,0,0,1.69-.17,2.91,2.91,0,0,0,1.41-.74,4.33,4.33,0,0,0,1.06-1.68,13.8,13.8,0,0,0,.7-3.33,51.6,51.6,0,0,0,.25-5.69c0-2.05-.07-3.79-.21-5.23a15.4,15.4,0,0,0-.67-3.52,5.17,5.17,0,0,0-.95-1.79,3.25,3.25,0,0,0-1.2-.85,5.52,5.52,0,0,0-2.08-.33Z"/><path d="M588.28,313.08v5.18h-2v-5.18h-5v-1.9h5V306h2v5.17h5v1.9Z"/><path d="M603.27,305.34v-2.6a17.68,17.68,0,0,1,3-1.12,9.94,9.94,0,0,1,2.64-.37,7,7,0,0,1,2.69.48,3.92,3.92,0,0,1,1.77,1.37,3.77,3.77,0,0,1,.61,2.14,4.46,4.46,0,0,1-.46,2.05,4.72,4.72,0,0,1-1.3,1.53,11.39,11.39,0,0,1-2.17,1.29v.12a6,6,0,0,1,1.6.52,5.13,5.13,0,0,1,1.36.93,4.27,4.27,0,0,1,1,1.38,4.38,4.38,0,0,1,.36,1.82,5.66,5.66,0,0,1-.69,2.82,4.7,4.7,0,0,1-2.09,1.94,7.64,7.64,0,0,1-3.44.71,13,13,0,0,1-2.52-.27,14.07,14.07,0,0,1-2.47-.7v-2.9h1.63a4.3,4.3,0,0,0,1.25,2.06,3.24,3.24,0,0,0,2.13.65,3.48,3.48,0,0,0,2.66-1,4.05,4.05,0,0,0,.91-2.87,3.83,3.83,0,0,0-1.2-3.05,5.09,5.09,0,0,0-3.5-1.06h-1.22V310a8.28,8.28,0,0,0,3.09-.71,4.45,4.45,0,0,0,1.86-1.54,3.81,3.81,0,0,0,.61-2.12,3.18,3.18,0,0,0-.8-2.34,3.09,3.09,0,0,0-2.33-.82,3,3,0,0,0-2.08.7,4.11,4.11,0,0,0-1.18,2.13Z"/><path d="M624.05,320.35a4.77,4.77,0,0,1-4.36-2.32c-1-1.55-1.43-3.91-1.43-7.06a18.45,18.45,0,0,1,.44-4.35,9.4,9.4,0,0,1,1.23-3,5,5,0,0,1,4.34-2.34,4.88,4.88,0,0,1,4.43,2.31c1,1.54,1.45,3.87,1.45,7s-.52,5.66-1.56,7.32A5,5,0,0,1,624.05,320.35Zm-3.15-9.79a19,19,0,0,0,.83,6.54,2.73,2.73,0,0,0,2.54,2.09,2.62,2.62,0,0,0,2.44-2,17.31,17.31,0,0,0,.79-6.08,25,25,0,0,0-.41-5.09,6.32,6.32,0,0,0-1.13-2.8,2.22,2.22,0,0,0-1.76-.85,2.32,2.32,0,0,0-1.57.56,3.85,3.85,0,0,0-1,1.62,10.77,10.77,0,0,0-.55,2.56A31.56,31.56,0,0,0,620.9,310.56Z"/><path d="M636.09,317a9.49,9.49,0,0,1,.2,1.89,4.55,4.55,0,0,1-.33,1.75,5.48,5.48,0,0,1-1,1.57,13.26,13.26,0,0,1-2,1.73l-.73-.83a6,6,0,0,0,1-1.18,3.74,3.74,0,0,0,.45-1.2,8.74,8.74,0,0,0,.13-1.68c0-.69,0-1.38-.09-2.05Z"/><path d="M657.65,302.13l-7.9,18.1h-2v-.67L655.1,304v-.21h-6a3.41,3.41,0,0,0-.89.1,1.58,1.58,0,0,0-.56.3,1.48,1.48,0,0,0-.37.5,8.91,8.91,0,0,0-.41,1.25h-1.17l.27-4.43h11.65Z"/><path d="M671.49,302v.67a7.49,7.49,0,0,0-3.71.9,7.34,7.34,0,0,0-2.68,2.66,12,12,0,0,0-1.5,4.15l.13.06a8.87,8.87,0,0,1,2.25-1.21,7.45,7.45,0,0,1,2.4-.38,4.83,4.83,0,0,1,2.61.68,4.14,4.14,0,0,1,1.62,1.9,7.76,7.76,0,0,1-.13,6,5,5,0,0,1-2.1,2.14,7.19,7.19,0,0,1-3.5.78,5.43,5.43,0,0,1-4.48-1.86,8.52,8.52,0,0,1-1.52-5.48,13.53,13.53,0,0,1,.76-4.55,11.24,11.24,0,0,1,2.16-3.7,10.45,10.45,0,0,1,3.25-2.49,9.77,9.77,0,0,1,3.88-1Zm-4,8.29a5.4,5.4,0,0,0-1.28.15,4.49,4.49,0,0,0-1.16.44,5.51,5.51,0,0,0-1.06.72,1.18,1.18,0,0,0-.25.31,1.72,1.72,0,0,0-.17.65c0,.25,0,.68,0,1.28a7.57,7.57,0,0,0,.86,4,2.92,2.92,0,0,0,2.64,1.37,3.67,3.67,0,0,0,1.71-.36,3,3,0,0,0,1.12-1,4.1,4.1,0,0,0,.61-1.46,8.71,8.71,0,0,0,.18-1.82,5.17,5.17,0,0,0-.83-3.15A2.7,2.7,0,0,0,667.44,310.29Z"/><path d="M675.1,300.51a8.67,8.67,0,0,1,3.76.7,5.1,5.1,0,0,1,2.28,2.13,11.17,11.17,0,0,1,1.18,3.71,53.4,53.4,0,0,1,0,12.38,11.35,11.35,0,0,1-1.17,3.75,5.14,5.14,0,0,1-2.28,2.17,8.44,8.44,0,0,1-3.77.73V325a7.69,7.69,0,0,0,1.68-.17,2.91,2.91,0,0,0,1.41-.74,4.33,4.33,0,0,0,1.06-1.68A13.8,13.8,0,0,0,680,319a51.6,51.6,0,0,0,.25-5.69c0-2.05-.07-3.79-.2-5.23a15.9,15.9,0,0,0-.68-3.52,5.17,5.17,0,0,0-1-1.79,3.25,3.25,0,0,0-1.2-.85,5.47,5.47,0,0,0-2.07-.33Z"/></svg>