<svg id="Capa_1" data-name="Capa 1" xmlns="http://www.w3.org/2000/svg" viewBox="0 0 618.14 63.45"><path d="M60.39,33.59H42.9v-3H60.39Zm0,8H42.9v-3H60.39Z"/><path d="M288.08,36.14H270.59v-3h17.49Zm0,8H270.59v-3h17.49Z"/><polyline points="69.81 40.95 88.56 58.09 99.11 9.87 260.29 9.87" style="fill:none;stroke:#000;stroke-miterlimit:10;stroke-width:1.84508434033955px"/><polyline points="309.86 40.95 328.62 58.09 339.17 9.87 611.99 9.87" style="fill:none;stroke:#000;stroke-miterlimit:10;stroke-width:1.84508434033955px"/><path d="M32.84,23.1l.53,1c-.48,1.16-.85,2-1.1,2.58s-.59,1.26-1,2.1-.91,1.72-1.45,2.65-1.15,1.91-1.83,3-1.47,2.22-2.34,3.48-1.9,2.68-3.07,4.24H20.12l-1.8-14.75a11.69,11.69,0,0,0-.38-2,1.72,1.72,0,0,0-.59-.9,2.5,2.5,0,0,0-1.22-.34l.21-.95h5L22.8,38.62a62,62,0,0,0,4.94-7.79,12.05,12.05,0,0,0,1.61-5.14A1.65,1.65,0,0,0,29,24.44a2.29,2.29,0,0,0-1.32-.39l.19-.95Z"/><path d="M112.66,31.32h1l-1.18,4.2.2.07a13.9,13.9,0,0,1,3.15-3.32A5.49,5.49,0,0,1,119,31.2a9.94,9.94,0,0,1,2.07.18l-.81,3.83h-1.75a3.7,3.7,0,0,0-.42-1.35,1,1,0,0,0-.9-.46,2.59,2.59,0,0,0-1.53.69A10.07,10.07,0,0,0,113.89,36a11.23,11.23,0,0,0-1.34,2.21,10.31,10.31,0,0,0-.69,2.24l-1.55,7.4h-2.93L110,36.14a12.81,12.81,0,0,0,.35-2.45,1.51,1.51,0,0,0-.15-.74.85.85,0,0,0-.49-.39,4.08,4.08,0,0,0-1.15-.18l.18-.91Z"/><path d="M129.44,49.28a4.57,4.57,0,0,0-.54.78,2.77,2.77,0,0,0-.32.74,3.52,3.52,0,0,0-.09.85,2.08,2.08,0,0,0,.91,1.88,5.26,5.26,0,0,0,2.77.59,5.89,5.89,0,0,0,2.8-.6,5.13,5.13,0,0,0,1.9-1.84,13.67,13.67,0,0,0,1.37-3.06,44.42,44.42,0,0,0,1.19-4.86l-.23,0A15.29,15.29,0,0,1,136.14,47a5,5,0,0,1-3,1,3.33,3.33,0,0,1-2.87-1.4,6.62,6.62,0,0,1-1-4,14.39,14.39,0,0,1,.49-3.74,13.1,13.1,0,0,1,1.38-3.33,10.4,10.4,0,0,1,2-2.47,7.76,7.76,0,0,1,2.35-1.46,7.11,7.11,0,0,1,2.58-.48,7.76,7.76,0,0,1,2,.26,7.07,7.07,0,0,1,1.92.87l1.56-1.13,1.08.27-1.76,8c-.12.57-.25,1.21-.39,1.93L142,43.64c-.53,2.69-1,4.54-1.27,5.55a12.22,12.22,0,0,1-1.36,2.94,7.47,7.47,0,0,1-1.73,1.81,7.68,7.68,0,0,1-2.32,1.11,10.61,10.61,0,0,1-3.1.4c-4.27,0-6.41-1.26-6.41-3.76a2.83,2.83,0,0,1,.58-1.74,7.4,7.4,0,0,1,1.85-1.66Zm4.87-3.23a3,3,0,0,0,1.72-.6,8.58,8.58,0,0,0,1.83-1.9,13.67,13.67,0,0,0,1.52-2.47,16.89,16.89,0,0,0,1.31-6,2.81,2.81,0,0,0-.56-1.94,2.43,2.43,0,0,0-1.87-.61,4.13,4.13,0,0,0-1.36.23,4.57,4.57,0,0,0-1.3.77,6.8,6.8,0,0,0-1.27,1.41,10.72,10.72,0,0,0-1.09,2.12,14.53,14.53,0,0,0-.76,2.67,14.25,14.25,0,0,0-.28,2.78,5.44,5.44,0,0,0,.51,2.66A1.73,1.73,0,0,0,134.31,46.05Z"/><path d="M351.57,47a2.32,2.32,0,0,0,1-.33,1.92,1.92,0,0,0,.55-.64,6.49,6.49,0,0,0,.4-1c.13-.4.32-1.16.56-2.28l2.89-13.16c.11-.53.2-1,.27-1.52a8.65,8.65,0,0,0,.1-1.24,1.33,1.33,0,0,0-.4-1.11,2.3,2.3,0,0,0-1.26-.37l.19-.84h6.78l-.18.84a3,3,0,0,0-.93.31,1.76,1.76,0,0,0-.51.51,4.74,4.74,0,0,0-.46,1.07c-.15.48-.34,1.27-.58,2.36l-3.63,16.67h4.17a5.63,5.63,0,0,0,1.79-.23,3,3,0,0,0,1.24-.81,7.27,7.27,0,0,0,1.15-1.6,19.88,19.88,0,0,0,1.13-2.51h1.65l-1.71,6.72H351.38Z"/><path d="M378.23,49.28a5.31,5.31,0,0,0-.55.78,3.08,3.08,0,0,0-.31.74,3.48,3.48,0,0,0-.1.85,2.08,2.08,0,0,0,.92,1.88,5.21,5.21,0,0,0,2.77.59,5.89,5.89,0,0,0,2.8-.6,5.21,5.21,0,0,0,1.9-1.84A13.68,13.68,0,0,0,387,48.62a46.51,46.51,0,0,0,1.2-4.86l-.24,0A15,15,0,0,1,384.93,47a5,5,0,0,1-3,1,3.33,3.33,0,0,1-2.87-1.4,6.62,6.62,0,0,1-1-4,14.39,14.39,0,0,1,.49-3.74,13.45,13.45,0,0,1,1.37-3.33,10.43,10.43,0,0,1,2-2.47,7.64,7.64,0,0,1,2.35-1.46,7,7,0,0,1,2.58-.48,7.82,7.82,0,0,1,2,.26,6.88,6.88,0,0,1,1.91.87l1.57-1.13,1.08.27-1.76,8c-.13.57-.26,1.21-.39,1.93l-.44,2.24c-.54,2.69-1,4.54-1.28,5.55a11.86,11.86,0,0,1-1.35,2.94,7.47,7.47,0,0,1-1.73,1.81,7.79,7.79,0,0,1-2.32,1.11,10.61,10.61,0,0,1-3.1.4c-4.27,0-6.41-1.26-6.41-3.76a2.88,2.88,0,0,1,.57-1.74A7.77,7.77,0,0,1,377,48.29Zm4.87-3.23a3,3,0,0,0,1.72-.6,8.58,8.58,0,0,0,1.83-1.9,13.67,13.67,0,0,0,1.52-2.47,16.89,16.89,0,0,0,1.31-6,2.81,2.81,0,0,0-.56-1.94,2.45,2.45,0,0,0-1.87-.61,4.09,4.09,0,0,0-1.36.23,4.57,4.57,0,0,0-1.3.77,6.53,6.53,0,0,0-1.27,1.41A10.21,10.21,0,0,0,382,37.06a14.54,14.54,0,0,0-.77,2.67,15,15,0,0,0-.27,2.78,5.44,5.44,0,0,0,.51,2.66A1.73,1.73,0,0,0,383.1,46.05Z"/><path d="M479,49.44q-5.45,0-5.44-6.89a24,24,0,0,1,3.18-11.71q3.18-5.76,8.07-5.76c3.41,0,5.12,2.26,5.12,6.76a24.8,24.8,0,0,1-3.1,11.79Q483.7,49.44,479,49.44Zm-1.73-11.86a29.26,29.26,0,0,0-.9,6.47c0,2.64,1,4,3,4,1.4,0,2.68-.91,3.84-2.75A25.41,25.41,0,0,0,486,37.58Zm.43-1.61h8.72a33.48,33.48,0,0,0,.66-5.57q0-3.88-2.61-3.88-2,0-3.75,2.46A22.37,22.37,0,0,0,477.67,36Z"/><path d="M416.31,32.62a3.75,3.75,0,0,0-.88-2.23,2.9,2.9,0,0,0-2.13-.69,3.37,3.37,0,0,0-1.44.29,2.36,2.36,0,0,0-1.39,2.22,2.58,2.58,0,0,0,.25,1.15,4,4,0,0,0,.86,1.09,14.11,14.11,0,0,0,1.69,1.3,8.13,8.13,0,0,1,2.31,2.15,4.4,4.4,0,0,1,.66,2.41,4.69,4.69,0,0,1-.77,2.72,4.53,4.53,0,0,1-2.08,1.67,7.89,7.89,0,0,1-3,.55,16.24,16.24,0,0,1-2.79-.23,22,22,0,0,1-2.52-.56l.8-3.69h1.32a3.64,3.64,0,0,0,.89,2.35,3,3,0,0,0,2.25.78,3.45,3.45,0,0,0,2.36-.76,2.6,2.6,0,0,0,.85-2,3.27,3.27,0,0,0-.26-1.32,3.5,3.5,0,0,0-.8-1.11A11.19,11.19,0,0,0,411,37.49a12.56,12.56,0,0,1-1.73-1.39,5,5,0,0,1-1-1.42,4,4,0,0,1-.36-1.72,4.17,4.17,0,0,1,2.67-4.05,7.47,7.47,0,0,1,3-.55,15.12,15.12,0,0,1,4.93.74l-.78,3.52Z"/><path d="M432.19,41.57a14.6,14.6,0,0,1-2.41,2.19,8,8,0,0,1-2.31,1.15,9.23,9.23,0,0,1-2.54.34,5.57,5.57,0,0,1-2.31-.44A4.51,4.51,0,0,1,421,43.62a5.16,5.16,0,0,1-.94-1.82,8.27,8.27,0,0,1-.3-2.28,13.05,13.05,0,0,1,.65-3.92,11.57,11.57,0,0,1,2-3.76,9.26,9.26,0,0,1,3.17-2.58,8.77,8.77,0,0,1,3.94-.92,4.86,4.86,0,0,1,3.08.84,3.19,3.19,0,0,1,1,2.62,4.69,4.69,0,0,1-2.7,4.36c-1.81,1-4.49,1.45-8,1.45a11.82,11.82,0,0,0-.2,2.22,4,4,0,0,0,.69,2.61,2.88,2.88,0,0,0,2.28.81,5.84,5.84,0,0,0,2.83-.69,11.19,11.19,0,0,0,2.67-2.1Zm-9-5.41A26,26,0,0,0,425.9,36a11.43,11.43,0,0,0,2-.45,5.79,5.79,0,0,0,1.41-.67,3.69,3.69,0,0,0,.89-.87,3,3,0,0,0,.46-1,4.77,4.77,0,0,0,.12-1.08,2.49,2.49,0,0,0-.48-1.63,1.72,1.72,0,0,0-1.43-.59,3.83,3.83,0,0,0-2.34.86,8.13,8.13,0,0,0-2,2.32A13.65,13.65,0,0,0,423.16,36.16Z"/><path d="M450.26,45h-5.35l2.16-8.68c.14-.56.27-1.17.4-1.84a9.71,9.71,0,0,0,.19-1.82,2.93,2.93,0,0,0-.41-1.74,1.56,1.56,0,0,0-1.3-.53,2.8,2.8,0,0,0-1.54.56,8.2,8.2,0,0,0-1.72,1.66,15.2,15.2,0,0,0-1.52,2.23,10.36,10.36,0,0,0-1,2.76L438.67,45h-2.94l2.58-11.67c.06-.26.14-.65.23-1.16a6.9,6.9,0,0,0,.15-1.28,1.56,1.56,0,0,0-.15-.75.9.9,0,0,0-.49-.39,5.12,5.12,0,0,0-1.18-.18l.2-.9,3.86-.16h1l-1.13,4.44.2.07a15.24,15.24,0,0,1,3.21-3.49,5.19,5.19,0,0,1,3.09-1.14,3.23,3.23,0,0,1,2.49.92A3.83,3.83,0,0,1,450.6,32a9.52,9.52,0,0,1-.11,1.34c-.07.48-.16.91-.25,1.29l-1.42,6.08a8.62,8.62,0,0,0-.29,1.95,1.61,1.61,0,0,0,.17.8,1.08,1.08,0,0,0,.53.45,4.45,4.45,0,0,0,1.17.24Z"/><path d="M469.28,52.41a7.66,7.66,0,0,1-3.9-.87A5,5,0,0,1,463.21,49a11.4,11.4,0,0,1-.67-4.18,28.78,28.78,0,0,1,.31-3.93c.27-1.85.66-3.9,1.18-6.17a58.32,58.32,0,0,1,1.52-5.64,20.55,20.55,0,0,1,1.86-4.16,9.9,9.9,0,0,1,2.19-2.56,8.36,8.36,0,0,1,2.7-1.4,13.72,13.72,0,0,1,4-.51l-.31,1.4a7.48,7.48,0,0,0-2.46.34,5.17,5.17,0,0,0-1.73,1,8.44,8.44,0,0,0-1.68,2.2,25.49,25.49,0,0,0-1.8,4.43q-.74,2.35-1.49,5.76c-.41,1.86-.73,3.52-1,5a32.93,32.93,0,0,0-.51,5.16,8.31,8.31,0,0,0,.48,3.14,3.13,3.13,0,0,0,1.39,1.62,5.26,5.26,0,0,0,2.39.47Z"/><path d="M493,20.45a7.71,7.71,0,0,1,3.9.87,5,5,0,0,1,2.16,2.54,11.19,11.19,0,0,1,.67,4.18,27.33,27.33,0,0,1-.3,3.84c-.27,2-.69,4.19-1.26,6.62-.53,2.24-1,4.08-1.52,5.5a20.35,20.35,0,0,1-1.81,4,9.74,9.74,0,0,1-2.17,2.52A8,8,0,0,1,490,51.9a13.63,13.63,0,0,1-4,.51l.31-1.4a7.65,7.65,0,0,0,2.45-.34,5.22,5.22,0,0,0,1.7-1,8.49,8.49,0,0,0,1.73-2.28A23.85,23.85,0,0,0,494,43q.84-2.7,1.59-6.23c.4-1.83.71-3.44.93-4.86a31,31,0,0,0,.46-4.8,8.17,8.17,0,0,0-.49-3.16,3.12,3.12,0,0,0-1.4-1.61,5.21,5.21,0,0,0-2.37-.46Z"/><path d="M229.38,49.09q-5.44,0-5.45-6.89a24,24,0,0,1,3.18-11.7q3.18-5.76,8.07-5.76,5.13,0,5.13,6.75a24.75,24.75,0,0,1-3.11,11.79Q234.1,49.08,229.38,49.09Zm-1.73-11.86a29.26,29.26,0,0,0-.9,6.48q0,3.95,2.95,3.95,2.1,0,3.84-2.76a25.39,25.39,0,0,0,2.9-7.67Zm.42-1.61h8.72a33.72,33.72,0,0,0,.67-5.57c0-2.58-.88-3.88-2.62-3.88q-2,0-3.75,2.46A22.72,22.72,0,0,0,228.07,35.62Z"/><path d="M165.52,43.4A12.31,12.31,0,0,1,162.77,46a5.35,5.35,0,0,1-2.89.86,3.57,3.57,0,0,1-2.68-.92,3.73,3.73,0,0,1-.88-2.68,11,11,0,0,1,.3-2.41l2.11-8.87H156.2l.19-.88a4.33,4.33,0,0,0,1.58-.43,3.08,3.08,0,0,0,1-.84,6.29,6.29,0,0,0,.74-1.36c.22-.55.5-1.37.84-2.44h2.35L162,30.21h5.38L167,31.94h-5.4l-1.63,6.63a19.37,19.37,0,0,0-.68,4.13,2.4,2.4,0,0,0,.45,1.58,1.62,1.62,0,0,0,1.32.54,2.83,2.83,0,0,0,1.64-.61,10.15,10.15,0,0,0,1.87-1.83Z"/><path d="M180.21,31.05l1.56-1.13,1.09.27-2.6,11.61c-.16.68-.26,1.21-.32,1.58a5.88,5.88,0,0,0-.09.91,1.24,1.24,0,0,0,.39,1,3,3,0,0,0,1.5.4l-.15.84h-4.86l1.07-4.29-.22-.07a14.82,14.82,0,0,1-3.09,3.5,5,5,0,0,1-3.09,1.11,3.38,3.38,0,0,1-2.89-1.41,6.76,6.76,0,0,1-1-4,14.84,14.84,0,0,1,.38-3.29A12.92,12.92,0,0,1,169,35a11.19,11.19,0,0,1,1.8-2.61,8.1,8.1,0,0,1,2.44-1.79,6.74,6.74,0,0,1,3-.67,7.67,7.67,0,0,1,2,.25A7,7,0,0,1,180.21,31.05Zm-1.49,5.09a10.41,10.41,0,0,0,.2-1.21,9.75,9.75,0,0,0,.05-1.11,2.76,2.76,0,0,0-.56-1.94,2.41,2.41,0,0,0-1.86-.61,4.09,4.09,0,0,0-1.36.23,4.39,4.39,0,0,0-1.31.77,6.77,6.77,0,0,0-1.26,1.41,10.72,10.72,0,0,0-1.1,2.12,14.53,14.53,0,0,0-.76,2.67,15,15,0,0,0-.27,2.78,5.73,5.73,0,0,0,.48,2.66,1.71,1.71,0,0,0,1.62.88,2.84,2.84,0,0,0,1.1-.24,4.61,4.61,0,0,0,1.26-.88,12.75,12.75,0,0,0,1.58-1.89,12.25,12.25,0,0,0,1.26-2.26,14.11,14.11,0,0,0,.77-2.64Z"/><path d="M200.34,46.55H195l2.16-8.68c.13-.56.26-1.18.39-1.85a9.61,9.61,0,0,0,.2-1.81,2.81,2.81,0,0,0-.42-1.74,1.51,1.51,0,0,0-1.29-.53,2.78,2.78,0,0,0-1.54.55,8.2,8.2,0,0,0-1.72,1.66,14.06,14.06,0,0,0-1.52,2.24,10.36,10.36,0,0,0-1,2.76l-1.54,7.4h-2.94l2.58-11.67c.06-.27.13-.65.23-1.17a6.77,6.77,0,0,0,.14-1.28,1.52,1.52,0,0,0-.14-.74.9.9,0,0,0-.49-.4,4.81,4.81,0,0,0-1.18-.17l.2-.91,3.85-.15h1l-1.14,4.44.21.07a15.31,15.31,0,0,1,3.2-3.5,5.24,5.24,0,0,1,3.09-1.13,3.25,3.25,0,0,1,2.5.91,3.88,3.88,0,0,1,.85,2.71,8.21,8.21,0,0,1-.12,1.34q-.1.74-.24,1.29l-1.43,6.09a9.25,9.25,0,0,0-.29,1.94,1.65,1.65,0,0,0,.17.81,1.11,1.11,0,0,0,.53.44,4.65,4.65,0,0,0,1.17.24Z"/><path d="M219.36,54a7.73,7.73,0,0,1-3.91-.87,5.05,5.05,0,0,1-2.16-2.54,11.19,11.19,0,0,1-.67-4.18,27.38,27.38,0,0,1,.31-3.93q.4-2.76,1.18-6.17c.51-2.26,1-4.14,1.51-5.64a20.79,20.79,0,0,1,1.87-4.16,9.84,9.84,0,0,1,2.19-2.55,7.89,7.89,0,0,1,2.7-1.4,13.32,13.32,0,0,1,4-.52l-.31,1.4a7.37,7.37,0,0,0-2.46.35,5.21,5.21,0,0,0-1.73,1A8.51,8.51,0,0,0,220.19,27a25.35,25.35,0,0,0-1.8,4.42q-.75,2.37-1.49,5.76-.61,2.79-1,5a32.93,32.93,0,0,0-.51,5.16,8.18,8.18,0,0,0,.49,3.15,3,3,0,0,0,1.39,1.61,5.22,5.22,0,0,0,2.38.47Z"/><path d="M243.11,22a7.62,7.62,0,0,1,3.91.88,5,5,0,0,1,2.16,2.53,11.23,11.23,0,0,1,.67,4.18,26.14,26.14,0,0,1-.31,3.85q-.4,3-1.25,6.61-.79,3.38-1.53,5.5a19.78,19.78,0,0,1-1.81,4,9.45,9.45,0,0,1-2.17,2.53,8.22,8.22,0,0,1-2.7,1.38,13.7,13.7,0,0,1-4,.51l.31-1.4a7.34,7.34,0,0,0,2.45-.34,5.26,5.26,0,0,0,1.71-1A8.43,8.43,0,0,0,242.3,49a24.7,24.7,0,0,0,1.79-4.42q.84-2.68,1.59-6.23c.39-1.82.7-3.44.93-4.85a32.56,32.56,0,0,0,.46-4.8,8.2,8.2,0,0,0-.5-3.17,3,3,0,0,0-1.39-1.6,5.23,5.23,0,0,0-2.37-.47Z"/><path d="M588.53,49.09q-5.44,0-5.45-6.89a24,24,0,0,1,3.18-11.7q3.18-5.76,8.07-5.76,5.13,0,5.13,6.75a24.75,24.75,0,0,1-3.11,11.79Q593.24,49.08,588.53,49.09ZM586.8,37.23a29.26,29.26,0,0,0-.9,6.48q0,3.95,3,3.95,2.1,0,3.84-2.76a25.39,25.39,0,0,0,2.9-7.67Zm.42-1.61h8.72a32.65,32.65,0,0,0,.67-5.57c0-2.58-.88-3.88-2.62-3.88q-2,0-3.75,2.46A22.72,22.72,0,0,0,587.22,35.62Z"/><path d="M524.67,43.4A12.31,12.31,0,0,1,521.92,46a5.35,5.35,0,0,1-2.89.86,3.57,3.57,0,0,1-2.68-.92,3.73,3.73,0,0,1-.88-2.68,11,11,0,0,1,.3-2.41l2.11-8.87h-2.53l.19-.88a4.33,4.33,0,0,0,1.58-.43,3.08,3.08,0,0,0,1-.84,6.29,6.29,0,0,0,.74-1.36c.22-.55.5-1.37.84-2.44H522l-.94,4.22h5.38l-.37,1.73h-5.4l-1.63,6.63a19.37,19.37,0,0,0-.68,4.13,2.4,2.4,0,0,0,.45,1.58,1.62,1.62,0,0,0,1.32.54,2.83,2.83,0,0,0,1.64-.61,10.15,10.15,0,0,0,1.87-1.83Z"/><path d="M539.36,31.05l1.56-1.13,1.09.27-2.6,11.61c-.16.68-.26,1.21-.32,1.58a5.69,5.69,0,0,0-.08.91,1.24,1.24,0,0,0,.39,1,2.88,2.88,0,0,0,1.49.4l-.15.84h-4.86L537,42.26l-.22-.07a14.61,14.61,0,0,1-3.09,3.5,5,5,0,0,1-3.09,1.11,3.38,3.38,0,0,1-2.89-1.41,6.77,6.77,0,0,1-1-4,14.82,14.82,0,0,1,.37-3.29A12.92,12.92,0,0,1,528.14,35a11.19,11.19,0,0,1,1.8-2.61,8.23,8.23,0,0,1,2.44-1.79,6.74,6.74,0,0,1,3-.67,7.67,7.67,0,0,1,2,.25A7,7,0,0,1,539.36,31.05Zm-1.49,5.09a10.41,10.41,0,0,0,.2-1.21,9.75,9.75,0,0,0,0-1.11,2.76,2.76,0,0,0-.56-1.94,2.41,2.41,0,0,0-1.86-.61,4.09,4.09,0,0,0-1.36.23,4.39,4.39,0,0,0-1.31.77,6.77,6.77,0,0,0-1.26,1.41,10.72,10.72,0,0,0-1.1,2.12,15.36,15.36,0,0,0-.76,2.67,15,15,0,0,0-.27,2.78,5.73,5.73,0,0,0,.48,2.66,1.71,1.71,0,0,0,1.62.88,2.84,2.84,0,0,0,1.1-.24,4.47,4.47,0,0,0,1.26-.88,12.75,12.75,0,0,0,1.58-1.89,12.25,12.25,0,0,0,1.26-2.26,14.87,14.87,0,0,0,.78-2.64Z"/><path d="M559.49,46.55h-5.35l2.16-8.68c.13-.56.26-1.18.39-1.85a9.61,9.61,0,0,0,.2-1.81,2.81,2.81,0,0,0-.42-1.74,1.51,1.51,0,0,0-1.29-.53,2.78,2.78,0,0,0-1.54.55,8.2,8.2,0,0,0-1.72,1.66,14.06,14.06,0,0,0-1.52,2.24,10.36,10.36,0,0,0-1,2.76l-1.54,7.4H545l2.58-11.67c.06-.27.13-.65.23-1.17a6.77,6.77,0,0,0,.14-1.28,1.52,1.52,0,0,0-.14-.74.9.9,0,0,0-.49-.4,4.81,4.81,0,0,0-1.18-.17l.2-.91,3.85-.15h1L550,34.5l.21.07a15.1,15.1,0,0,1,3.21-3.5,5.19,5.19,0,0,1,3.08-1.13,3.25,3.25,0,0,1,2.5.91,3.88,3.88,0,0,1,.85,2.71,9.4,9.4,0,0,1-.11,1.34c-.08.49-.16.92-.25,1.29L558,42.28a9.11,9.11,0,0,0-.28,1.94,1.55,1.55,0,0,0,.17.81,1,1,0,0,0,.52.44,4.65,4.65,0,0,0,1.17.24Z"/><path d="M578.51,54a7.73,7.73,0,0,1-3.91-.87,5.05,5.05,0,0,1-2.16-2.54,11.19,11.19,0,0,1-.67-4.18,27.38,27.38,0,0,1,.31-3.93q.4-2.76,1.18-6.17c.51-2.26,1-4.14,1.51-5.64a20.79,20.79,0,0,1,1.87-4.16,9.84,9.84,0,0,1,2.19-2.55,7.89,7.89,0,0,1,2.7-1.4,13.37,13.37,0,0,1,4-.52l-.31,1.4a7.42,7.42,0,0,0-2.46.35,5.21,5.21,0,0,0-1.73,1A8.51,8.51,0,0,0,579.34,27a25.35,25.35,0,0,0-1.8,4.42q-.75,2.37-1.49,5.76-.62,2.79-1,5a32.93,32.93,0,0,0-.51,5.16A8.38,8.38,0,0,0,575,50.5a3,3,0,0,0,1.39,1.61,5.22,5.22,0,0,0,2.38.47Z"/><path d="M602.26,22a7.62,7.62,0,0,1,3.91.88,5,5,0,0,1,2.16,2.53,11.23,11.23,0,0,1,.67,4.18,26.14,26.14,0,0,1-.31,3.85q-.41,3-1.25,6.61-.8,3.38-1.53,5.5a19.24,19.24,0,0,1-1.81,4,9.45,9.45,0,0,1-2.17,2.53,8.12,8.12,0,0,1-2.7,1.38,13.67,13.67,0,0,1-4,.51l.3-1.4a7.34,7.34,0,0,0,2.45-.34,5.26,5.26,0,0,0,1.71-1A8.43,8.43,0,0,0,601.45,49a24.7,24.7,0,0,0,1.79-4.42q.84-2.68,1.59-6.23c.39-1.82.7-3.44.93-4.85a32.56,32.56,0,0,0,.46-4.8,8.42,8.42,0,0,0-.49-3.17,3.06,3.06,0,0,0-1.4-1.6,5.23,5.23,0,0,0-2.37-.47Z"/></svg>