<svg id="Capa_1" data-name="Capa 1" xmlns="http://www.w3.org/2000/svg" viewBox="0 0 556.79 64.53"><path d="M239.8,33.88,238.24,41h-2.79L237,33.88h-6.34l.56-2.53h6.32l1.54-7.11h2.79l-1.54,7.11h6.4l-.56,2.53Z"/><path d="M261.55,43.58h-7.82l.2-.92a3.17,3.17,0,0,0,1.08-.29,1.92,1.92,0,0,0,.62-.59,5.32,5.32,0,0,0,.55-1.22,26,26,0,0,0,.65-2.56l4-18.33h-2.36a4.14,4.14,0,0,0-1.84.34,4,4,0,0,0-1.38,1.25,17.6,17.6,0,0,0-1.67,3.07h-1.79l1.4-6.31h19.41l-1.45,6.59h-1.79c0-1.21,0-2.12-.09-2.72a3.82,3.82,0,0,0-.35-1.39,1.45,1.45,0,0,0-.65-.65,3.45,3.45,0,0,0-1.34-.18h-2.75l-4,18.46c-.11.49-.19.87-.23,1.16s-.08.59-.11.91,0,.6,0,.85a1.79,1.79,0,0,0,.19.91,1.08,1.08,0,0,0,.55.48,5,5,0,0,0,1.29.22Z"/><path d="M277,45.55a5.69,5.69,0,0,0-.17,1.23.84.84,0,0,0,.26.66,2,2,0,0,0,.92.34,12.89,12.89,0,0,0,2,.14l-.26,1.2h-9.45l.25-1.2a14.23,14.23,0,0,0,1.83-.14,3.44,3.44,0,0,0,1-.3A1.6,1.6,0,0,0,274,47a2.84,2.84,0,0,0,.38-1l1.84-8.41q.06-.24.09-.42a1.4,1.4,0,0,0,0-.25.42.42,0,0,0-.14-.38.8.8,0,0,0-.41-.09,3.28,3.28,0,0,0-1.1.32q-.75.31-2,1l-.6-1.31,6.58-3h1.06c-.26,1-.52,2.09-.78,3.27Z"/><path d="M466.2,34.11h-8.13l.62-2.9h8.12Z"/><path d="M481.55,42.52h-7.82l.2-.92a3.17,3.17,0,0,0,1.08-.29,1.82,1.82,0,0,0,.62-.59,4.92,4.92,0,0,0,.55-1.22,26,26,0,0,0,.65-2.56l4-18.33h-2.36a4.14,4.14,0,0,0-1.84.34,4,4,0,0,0-1.38,1.25,18.3,18.3,0,0,0-1.67,3.07h-1.79l1.4-6.31h19.41l-1.45,6.59h-1.79c0-1.21,0-2.12-.09-2.72a3.82,3.82,0,0,0-.35-1.39,1.49,1.49,0,0,0-.64-.65,3.54,3.54,0,0,0-1.35-.18h-2.75l-4,18.46c-.11.49-.19.87-.23,1.16s-.08.59-.11.91,0,.6,0,.85a1.79,1.79,0,0,0,.19.91,1.06,1.06,0,0,0,.56.48,4.83,4.83,0,0,0,1.28.22Z"/><path d="M497,44.49a6.4,6.4,0,0,0-.17,1.23.84.84,0,0,0,.26.66,2,2,0,0,0,.92.34,11.74,11.74,0,0,0,2,.14l-.26,1.2h-9.45l.25-1.2a14.58,14.58,0,0,0,1.84-.14,3.18,3.18,0,0,0,1-.3,1.6,1.6,0,0,0,.6-.52,2.67,2.67,0,0,0,.38-1l1.84-8.41q.06-.24.09-.42a1.75,1.75,0,0,0,0-.25.42.42,0,0,0-.15-.38.8.8,0,0,0-.41-.09,3.28,3.28,0,0,0-1.1.32c-.49.21-1.18.54-2,1l-.6-1.31,6.58-3h1.06q-.39,1.5-.78,3.27Z"/><path d="M391.5,26.74h5.86L395,36.27c-.18.7-.33,1.4-.46,2.09a10.26,10.26,0,0,0-.19,1.9,3.18,3.18,0,0,0,.45,1.91,1.68,1.68,0,0,0,1.42.58,3.12,3.12,0,0,0,1.73-.63,9.18,9.18,0,0,0,2-1.95,15.52,15.52,0,0,0,1.65-2.5,11.34,11.34,0,0,0,.94-2.8l1.69-8.13h3.21l-2.82,12.79c-.08.34-.16.78-.26,1.33a7.86,7.86,0,0,0-.15,1.35,1.31,1.31,0,0,0,.44,1.11,3.19,3.19,0,0,0,1.62.4l-.2.92h-5.32l1.19-4.7-.24-.07a16.2,16.2,0,0,1-3.49,3.82,5.67,5.67,0,0,1-3.39,1.25,3.54,3.54,0,0,1-2.73-1,4.23,4.23,0,0,1-.93-3,9.81,9.81,0,0,1,.1-1.32c.07-.51.17-1,.29-1.58l1.56-6.65c.12-.55.21-1,.25-1.31a7.14,7.14,0,0,0,.07-.82,1.37,1.37,0,0,0-.45-1.18,3.14,3.14,0,0,0-1.6-.43Z"/><path d="M413.59,40.3l-.95,4.34h-3.53l.94-4.34Z"/><path d="M434.15,44.64h-5.86l2.37-9.51c.14-.61.29-1.29.43-2a10.87,10.87,0,0,0,.22-2,3.15,3.15,0,0,0-.46-1.91,1.68,1.68,0,0,0-1.42-.58,3,3,0,0,0-1.68.61,8.56,8.56,0,0,0-1.89,1.82,16.11,16.11,0,0,0-1.67,2.45,11.23,11.23,0,0,0-1.05,3l-1.69,8.11h-3.21l2.82-12.79c.06-.29.15-.71.25-1.27a7.48,7.48,0,0,0,.16-1.41,1.64,1.64,0,0,0-.16-.81.92.92,0,0,0-.54-.43,5.24,5.24,0,0,0-1.29-.2l.22-1,4.22-.17H425l-1.24,4.87.22.07a17,17,0,0,1,3.52-3.83,5.65,5.65,0,0,1,3.38-1.24,3.54,3.54,0,0,1,2.73,1,4.23,4.23,0,0,1,.93,3,9.9,9.9,0,0,1-.12,1.47q-.12.79-.27,1.41L432.57,40a10.05,10.05,0,0,0-.32,2.13,1.77,1.77,0,0,0,.19.88,1.13,1.13,0,0,0,.58.49,4.73,4.73,0,0,0,1.28.26Z"/><path d="M123.2,45a6.15,6.15,0,0,1-3-.66,4.32,4.32,0,0,1-1.91-2.15,9.7,9.7,0,0,1-.68-4,27.58,27.58,0,0,1,.45-4.75,31.74,31.74,0,0,1,1.22-4.82,22.54,22.54,0,0,1,1.85-4.12,14.69,14.69,0,0,1,2.37-3.11,9.41,9.41,0,0,1,2.76-1.93,7.18,7.18,0,0,1,3-.67,6,6,0,0,1,2.59.49,4.42,4.42,0,0,1,1.71,1.36,5.48,5.48,0,0,1,1,2.07,11.57,11.57,0,0,1,.29,2.65,29.6,29.6,0,0,1-1.18,8.16,24.17,24.17,0,0,1-3,6.84,11.07,11.07,0,0,1-3.63,3.54A7.55,7.55,0,0,1,123.2,45Zm-2.32-5.58a8.62,8.62,0,0,0,.26,2.37,2.2,2.2,0,0,0,.8,1.23,2.49,2.49,0,0,0,1.49.39,3.83,3.83,0,0,0,2.7-1.33,13.33,13.33,0,0,0,2.47-4,37.89,37.89,0,0,0,2.11-6.76,32,32,0,0,0,.95-7.12,5.51,5.51,0,0,0-.58-2.89,2.08,2.08,0,0,0-1.87-.91,3.33,3.33,0,0,0-1.6.42,5.82,5.82,0,0,0-1.84,1.66,16.18,16.18,0,0,0-2,3.71,39.5,39.5,0,0,0-1.5,4.66c-.32,1.27-.6,2.52-.82,3.75A25.25,25.25,0,0,0,120.88,39.41Z"/><path d="M324.59,48.12a6.15,6.15,0,0,1-2.95-.66,4.37,4.37,0,0,1-1.91-2.15,9.7,9.7,0,0,1-.68-4,27.58,27.58,0,0,1,.45-4.75,31.74,31.74,0,0,1,1.22-4.82,22.54,22.54,0,0,1,1.85-4.12,14.69,14.69,0,0,1,2.37-3.11,9.41,9.41,0,0,1,2.76-1.93,7.18,7.18,0,0,1,3-.67,6,6,0,0,1,2.59.49A4.42,4.42,0,0,1,335,23.81a5.48,5.48,0,0,1,1,2.07,11.57,11.57,0,0,1,.29,2.65,29.6,29.6,0,0,1-1.18,8.16,24.17,24.17,0,0,1-3,6.84,11.07,11.07,0,0,1-3.63,3.54A7.55,7.55,0,0,1,324.59,48.12Zm-2.32-5.58a8.62,8.62,0,0,0,.26,2.37,2.2,2.2,0,0,0,.8,1.23,2.51,2.51,0,0,0,1.49.39,3.83,3.83,0,0,0,2.7-1.33,13.33,13.33,0,0,0,2.48-4,39.6,39.6,0,0,0,2.11-6.76,32.52,32.52,0,0,0,.94-7.12,5.51,5.51,0,0,0-.58-2.89,2.08,2.08,0,0,0-1.87-.91A3.33,3.33,0,0,0,329,24a5.82,5.82,0,0,0-1.84,1.66,15.82,15.82,0,0,0-2,3.71A37.65,37.65,0,0,0,323.61,34c-.32,1.27-.6,2.52-.82,3.75A25.25,25.25,0,0,0,322.27,42.54Z"/><path d="M542.47,44.94a6.16,6.16,0,0,1-3-.66,4.31,4.31,0,0,1-1.9-2.15,9.54,9.54,0,0,1-.68-4,28.54,28.54,0,0,1,.44-4.75,33,33,0,0,1,1.22-4.82,22.54,22.54,0,0,1,1.85-4.12,14.69,14.69,0,0,1,2.37-3.11,9.41,9.41,0,0,1,2.76-1.93,7.18,7.18,0,0,1,3-.67,6.09,6.09,0,0,1,2.6.49,4.42,4.42,0,0,1,1.71,1.36,5.46,5.46,0,0,1,.94,2.07,11,11,0,0,1,.29,2.65A29.6,29.6,0,0,1,553,33.51a24,24,0,0,1-3,6.84,11.07,11.07,0,0,1-3.63,3.54A7.54,7.54,0,0,1,542.47,44.94Zm-2.33-5.58a8.62,8.62,0,0,0,.26,2.37,2.25,2.25,0,0,0,.8,1.23,2.51,2.51,0,0,0,1.49.39,3.83,3.83,0,0,0,2.7-1.33,13.33,13.33,0,0,0,2.48-4A38.73,38.73,0,0,0,550,31.29a32.6,32.6,0,0,0,.95-7.12,5.5,5.5,0,0,0-.59-2.89,2.07,2.07,0,0,0-1.87-.91,3.36,3.36,0,0,0-1.6.42A5.93,5.93,0,0,0,545,22.45a15.82,15.82,0,0,0-2,3.71,37.65,37.65,0,0,0-1.51,4.66c-.32,1.28-.59,2.52-.82,3.75A26.09,26.09,0,0,0,540.14,39.36Z"/><path d="M50.39,40.59c-.08.34-.14.64-.19.88a7.73,7.73,0,0,0-.12.89c0,.35,0,.66,0,.92a1.76,1.76,0,0,0,.17.84,1,1,0,0,0,.51.44,4.85,4.85,0,0,0,1.19.21l-.19.84H44.66l.19-.84a2.42,2.42,0,0,0,1-.34,1.87,1.87,0,0,0,.55-.65,6.2,6.2,0,0,0,.41-1c.12-.4.31-1.16.56-2.3l2.92-13.3a13.74,13.74,0,0,0,.38-2.72,1.48,1.48,0,0,0-.4-1.18A2.23,2.23,0,0,0,49,22.89l.18-.84H64.62l-1.19,5.3H61.79a19.21,19.21,0,0,0-.19-1.93,3.66,3.66,0,0,0-.3-1,1.56,1.56,0,0,0-.4-.51,1.51,1.51,0,0,0-.56-.24,5.51,5.51,0,0,0-1-.07H54.11l-2,9.4h3.2a3.28,3.28,0,0,0,1.26-.21,2.42,2.42,0,0,0,.92-.75,10.25,10.25,0,0,0,1.06-1.86h1.56l-1.66,7.29H56.9c0-.72,0-1.27,0-1.68a1.8,1.8,0,0,0-.21-.84.84.84,0,0,0-.46-.34,4.38,4.38,0,0,0-1.09-.09H51.74Z"/><path d="M72.2,38.33c-1.58,1.67-3.22,3.33-4.94,5L68.39,46c.3.72.54,1.24.72,1.58a3.51,3.51,0,0,0,.48.73,1.74,1.74,0,0,0,.44.33,2.5,2.5,0,0,0,.7.16l-.14.6h-3l-1.69-4.89-.77.71c-.32.3-.63.63-.93,1a5.45,5.45,0,0,0-.63.84,2.37,2.37,0,0,0-.24.54,2,2,0,0,0,0,.48.68.68,0,0,0,.17.5,1.12,1.12,0,0,0,.6.25l-.13.6H60.42l-.23-.6c1.78-1.9,3.53-3.66,5.24-5.26l-1.15-2.72q-.36-.83-.57-1.26a4.41,4.41,0,0,0-.42-.67,1.74,1.74,0,0,0-.46-.36,2,2,0,0,0-.75-.16l.13-.6h3l1.62,4.59c.39-.37.77-.75,1.13-1.14a6.05,6.05,0,0,0,.75-.92,2.7,2.7,0,0,0,.31-.61,2,2,0,0,0,.08-.56c0-.44-.26-.7-.78-.76l.14-.6H72Z"/><path d="M211.25,50.49l.12-.53a1.28,1.28,0,0,0,.75-.28,1.22,1.22,0,0,0,.39-.65,4.7,4.7,0,0,0,.11-1.11c0-.28,0-.58,0-.91l-.08-1.39h-4.72l-.59,1.06a8.5,8.5,0,0,0-.62,1.27,3,3,0,0,0-.19.94c0,.6.36,1,1.09,1.07l-.12.53H203l.12-.53a1.33,1.33,0,0,0,.63-.26,3.18,3.18,0,0,0,.63-.67,17.29,17.29,0,0,0,.93-1.47l6.89-11.91h1.62l.78,12a6.26,6.26,0,0,0,.19,1.33,1.59,1.59,0,0,0,.38.71,1.25,1.25,0,0,0,.7.29l-.11.53Zm-3-5.8h4.2l-.18-3.46c0-.47,0-1.06,0-1.77s0-1.22,0-1.54h-.11Z"/><path d="M444,48.16l.12-.52a1.28,1.28,0,0,0,.75-.28,1.22,1.22,0,0,0,.39-.66,4.14,4.14,0,0,0,.11-1.1c0-.28,0-.59,0-.92l-.07-1.38h-4.73l-.59,1.05a9.32,9.32,0,0,0-.61,1.27,2.84,2.84,0,0,0-.2.94c0,.61.37,1,1.09,1.08l-.12.52h-4.39l.12-.52a1.35,1.35,0,0,0,.62-.26,3.18,3.18,0,0,0,.63-.67,17.35,17.35,0,0,0,.94-1.48l6.88-11.9h1.62l.78,12a6.25,6.25,0,0,0,.19,1.32,1.53,1.53,0,0,0,.38.71,1.2,1.2,0,0,0,.71.3l-.12.52Zm-3-5.8h4.2L445,38.9c0-.47,0-1.06,0-1.77s0-1.22,0-1.53h-.12Z"/><path d="M10,6.53l11.43,23v2.37L8.65,55.26H24.09A7.12,7.12,0,0,0,26.28,55a3.2,3.2,0,0,0,1.27-.76,4.94,4.94,0,0,0,1-1.43,14.14,14.14,0,0,0,.84-2.54q.39-1.62.75-4.23h2.74l-.68,15.19H2.41V59.5l14.5-26.44L3.3,5.07V3.29h29V17.15H29.75c-.4-2-.77-3.58-1.12-4.83a16.92,16.92,0,0,0-1.08-3A6.44,6.44,0,0,0,26.42,7.7a3.78,3.78,0,0,0-1.32-.88,5.76,5.76,0,0,0-2-.29Z"/><path d="M103.81,30.73H87.1v-2.9h16.71Zm0,7.68H87.1v-2.9h16.71Z"/><path d="M306.43,34.11H292.25V31.65h14.18Zm0,6.52H292.25V38.17h14.18Z"/><path d="M526.91,29.89H512.73V27.43h14.18Zm0,6.52H512.73V34h14.18Z"/><path d="M187,35.17h-8.12l.61-2.9h8.12Z"/><path d="M202.26,43.9a14.61,14.61,0,0,1-1.74,4.75,6.55,6.55,0,0,1-2.69,2.53A8.72,8.72,0,0,1,194,52a5.18,5.18,0,0,1-1.47-.19l.43-1.65a4.31,4.31,0,0,0,1.3.15,4.08,4.08,0,0,0,1.61-.26,3.16,3.16,0,0,0,1.15-.85,6.09,6.09,0,0,0,1-1.72,20.42,20.42,0,0,0,.9-3l3.77-16.87h-2.25l.23-.95a5.05,5.05,0,0,0,1.28-.26,1.49,1.49,0,0,0,.6-.43,2.4,2.4,0,0,0,.42-.77q.2-.5.54-1.71a10,10,0,0,1,3-5.06,8,8,0,0,1,5.23-1.7,14.39,14.39,0,0,1,3.15.3l-.73,3.18h-1.63a3.65,3.65,0,0,0-.68-1.53,1.58,1.58,0,0,0-1.24-.47,2.8,2.8,0,0,0-1.8.58,4.6,4.6,0,0,0-1.28,1.75,17.45,17.45,0,0,0-1,3.14l-.47,2h4.26L210,27.57h-4.27Z"/></svg>