<svg id="Capa_1" data-name="Capa 1" xmlns="http://www.w3.org/2000/svg" viewBox="0 0 506.66 68.56"><path d="M123.49,44.59a6.27,6.27,0,0,1-2.95-.65,4.39,4.39,0,0,1-1.91-2.16,9.7,9.7,0,0,1-.68-4,27.58,27.58,0,0,1,.45-4.75,31.74,31.74,0,0,1,1.22-4.82,22.54,22.54,0,0,1,1.85-4.12A14.69,14.69,0,0,1,123.84,21a9.41,9.41,0,0,1,2.76-1.93,7.18,7.18,0,0,1,3-.67,6,6,0,0,1,2.59.49,4.42,4.42,0,0,1,1.71,1.36,5.48,5.48,0,0,1,.95,2.07,11.57,11.57,0,0,1,.29,2.65A29.6,29.6,0,0,1,134,33.16,24,24,0,0,1,131,40a11.07,11.07,0,0,1-3.63,3.54A7.55,7.55,0,0,1,123.49,44.59ZM121.17,39a8.62,8.62,0,0,0,.26,2.37,2.2,2.2,0,0,0,.8,1.23,2.49,2.49,0,0,0,1.49.39,3.79,3.79,0,0,0,2.7-1.33,13.33,13.33,0,0,0,2.47-4A37.89,37.89,0,0,0,131,30.94a32,32,0,0,0,.95-7.12,5.51,5.51,0,0,0-.58-2.89A2.08,2.08,0,0,0,129.5,20a3.33,3.33,0,0,0-1.6.42,5.82,5.82,0,0,0-1.84,1.66,16.18,16.18,0,0,0-2,3.71,39.5,39.5,0,0,0-1.5,4.66c-.32,1.28-.6,2.52-.82,3.75A25.25,25.25,0,0,0,121.17,39Z"/><path d="M149.87,40a11.49,11.49,0,0,1-.13,1.61,10.35,10.35,0,0,1-.4,1.79,8.28,8.28,0,0,1-.62,1.52,7.9,7.9,0,0,1-.92,1.35,13.36,13.36,0,0,1-1.51,1.51,22.47,22.47,0,0,1-2.46,1.78L143,48.35a17.62,17.62,0,0,0,1.38-1.27,5.59,5.59,0,0,0,.81-1.07,7.42,7.42,0,0,0,.57-1.26,19,19,0,0,0,.55-2.07c.19-.9.34-1.81.44-2.73Zm2.74-12.55-1,4.35h-3.53l.94-4.35Z"/><path d="M175.64,44.29h-7.82l.2-.92a3.17,3.17,0,0,0,1.08-.29,1.82,1.82,0,0,0,.62-.59,5.32,5.32,0,0,0,.55-1.22c.18-.56.4-1.41.65-2.56l4-18.33h-2.36a4.14,4.14,0,0,0-1.84.34A4,4,0,0,0,169.32,22,17.6,17.6,0,0,0,167.65,25h-1.79l1.4-6.31h19.41l-1.45,6.59h-1.79c0-1.21,0-2.12-.09-2.72a3.82,3.82,0,0,0-.35-1.39,1.45,1.45,0,0,0-.65-.65,3.45,3.45,0,0,0-1.34-.18h-2.76l-4,18.46c-.11.49-.19.88-.23,1.16s-.08.59-.11.91-.05.6-.05.85a1.79,1.79,0,0,0,.19.91,1.08,1.08,0,0,0,.55.48,5,5,0,0,0,1.29.22Z"/><path d="M185.85,37.53l.5-2.55a19.12,19.12,0,0,1,2.64-.76,12.37,12.37,0,0,1,2.59-.27,6.42,6.42,0,0,1,2.1.34,3.38,3.38,0,0,1,1.53,1.07,2.85,2.85,0,0,1,.59,1.83,3.66,3.66,0,0,1-.42,1.71A4.25,4.25,0,0,1,194,40.38a11,11,0,0,1-2.41,1.23v.19a4.27,4.27,0,0,1,2.2,1.27,3.19,3.19,0,0,1,.74,2.1,4.67,4.67,0,0,1-.42,1.94,4.31,4.31,0,0,1-1.26,1.6,5.9,5.9,0,0,1-2.07,1,10.29,10.29,0,0,1-2.77.35,15.51,15.51,0,0,1-2.6-.24,13.06,13.06,0,0,1-2.35-.57l.6-2.75h1.67a2.37,2.37,0,0,0,.79,1.67,3.19,3.19,0,0,0,2,.56,3.75,3.75,0,0,0,2.8-1,3.94,3.94,0,0,0,1-2.86,1.94,1.94,0,0,0-.87-1.7,4.58,4.58,0,0,0-2.57-.59H187l.28-1.38a11.31,11.31,0,0,0,2.5-.37,6.3,6.3,0,0,0,1.72-.74,3.82,3.82,0,0,0,1-1,3.1,3.1,0,0,0,.5-1,4.11,4.11,0,0,0,.13-1,1.73,1.73,0,0,0-.57-1.38,2.45,2.45,0,0,0-1.65-.5,3.39,3.39,0,0,0-2,.55,4.15,4.15,0,0,0-1.3,1.68Z"/><path d="M489.16,49.81a6.16,6.16,0,0,1-3-.66A4.35,4.35,0,0,1,484.3,47a9.57,9.57,0,0,1-.68-4,28.45,28.45,0,0,1,.44-4.75,33,33,0,0,1,1.22-4.82,22.54,22.54,0,0,1,1.85-4.12,14.52,14.52,0,0,1,2.37-3.12,9.8,9.8,0,0,1,2.76-1.93,7.32,7.32,0,0,1,3-.66,6.09,6.09,0,0,1,2.6.49,4.4,4.4,0,0,1,1.71,1.35,5.51,5.51,0,0,1,.94,2.08,11,11,0,0,1,.29,2.65,29.65,29.65,0,0,1-1.18,8.16,24.17,24.17,0,0,1-3,6.84A11.17,11.17,0,0,1,493,48.76,7.54,7.54,0,0,1,489.16,49.81Zm-2.33-5.58a8.62,8.62,0,0,0,.26,2.37,2.29,2.29,0,0,0,.8,1.23,2.51,2.51,0,0,0,1.49.39,3.83,3.83,0,0,0,2.7-1.33,13.33,13.33,0,0,0,2.48-4,39,39,0,0,0,2.11-6.76,32.6,32.6,0,0,0,.95-7.12,5.48,5.48,0,0,0-.59-2.89,2,2,0,0,0-1.87-.91,3.46,3.46,0,0,0-1.6.41,6.1,6.1,0,0,0-1.84,1.67,15.82,15.82,0,0,0-2,3.71,37.11,37.11,0,0,0-1.51,4.66c-.32,1.27-.59,2.52-.82,3.74A26.28,26.28,0,0,0,486.83,44.23Z"/><path d="M50.68,40.19c-.08.34-.15.64-.19.88a7.43,7.43,0,0,0-.12.89c0,.35,0,.65,0,.92a1.76,1.76,0,0,0,.17.84,1,1,0,0,0,.51.44,4.51,4.51,0,0,0,1.19.2l-.19.85H45l.19-.85a2.28,2.28,0,0,0,1-.33,1.87,1.87,0,0,0,.55-.65,6.2,6.2,0,0,0,.41-1c.12-.4.31-1.16.56-2.3l2.92-13.3a13.74,13.74,0,0,0,.38-2.72,1.48,1.48,0,0,0-.4-1.18,2.23,2.23,0,0,0-1.28-.38l.18-.84H64.91L63.72,27H62.08A19.21,19.21,0,0,0,61.89,25a3.66,3.66,0,0,0-.3-1,1.56,1.56,0,0,0-.4-.51,1.51,1.51,0,0,0-.56-.24,5.7,5.7,0,0,0-1-.06H54.4l-2,9.39h3.2a3.28,3.28,0,0,0,1.26-.21,2.42,2.42,0,0,0,.92-.75,10.25,10.25,0,0,0,1.06-1.86h1.56L58.7,37H57.19c0-.72,0-1.27,0-1.68a1.8,1.8,0,0,0-.21-.84.84.84,0,0,0-.46-.34,4.38,4.38,0,0,0-1.09-.09H52Z"/><path d="M63.23,40A9.38,9.38,0,0,0,63,38.7a1.07,1.07,0,0,0-.35-.55,1.4,1.4,0,0,0-.79-.22l.13-.6h3.13L66,47q4.11-5.62,4.11-8a1,1,0,0,0-.24-.78,1.39,1.39,0,0,0-.83-.24l.12-.6h3.14l.33.61A27.28,27.28,0,0,1,71,41.44q-1,1.81-2.45,4t-3.23,4.47a28.05,28.05,0,0,1-2.29,2.7,7.25,7.25,0,0,1-1.32,1.05,5,5,0,0,1-1.17.52,4.7,4.7,0,0,1-1.2.15,5.37,5.37,0,0,1-.74-.07,3,3,0,0,1-.7-.18l.52-2.27h1a1.17,1.17,0,0,0,.19.66.63.63,0,0,0,.54.24,2.62,2.62,0,0,0,.67-.08,2.67,2.67,0,0,0,.59-.26,6,6,0,0,0,.75-.58,10.94,10.94,0,0,0,1-1.07c.38-.44.79-1,1.26-1.6Z"/><path d="M10.32,6.13l11.43,23v2.37L8.94,54.86H24.38a7.12,7.12,0,0,0,2.19-.25,3.2,3.2,0,0,0,1.27-.76,4.94,4.94,0,0,0,1-1.43,14.14,14.14,0,0,0,.84-2.54q.39-1.62.75-4.23h2.74l-.68,15.19H2.7V59.1L17.2,32.66,3.59,4.67V2.89h29V16.75H30c-.39-2-.76-3.58-1.11-4.83a16.92,16.92,0,0,0-1.08-3A6.44,6.44,0,0,0,26.71,7.3a3.62,3.62,0,0,0-1.32-.87,5.51,5.51,0,0,0-2-.3Z"/><path d="M104.1,30.33H87.39v-2.9H104.1Zm0,7.68H87.39v-2.9H104.1Z"/><path d="M468.27,36.12H451.55v-2.9h16.72Zm0,7.68H451.55V40.9h16.72Z"/><path d="M222.44,32.3a4.06,4.06,0,0,0-.95-2.44,3.15,3.15,0,0,0-2.34-.76,3.69,3.69,0,0,0-1.58.33,2.51,2.51,0,0,0-1.11.95,2.58,2.58,0,0,0-.41,1.47,2.77,2.77,0,0,0,.28,1.26,4.13,4.13,0,0,0,.94,1.19,14.39,14.39,0,0,0,1.85,1.43,8.55,8.55,0,0,1,2.52,2.36,4.76,4.76,0,0,1,.73,2.64,5.15,5.15,0,0,1-.84,3,5,5,0,0,1-2.28,1.83,8.52,8.52,0,0,1-3.28.6,17.2,17.2,0,0,1-3.05-.25,26.43,26.43,0,0,1-2.76-.61l.87-4.05h1.45a4,4,0,0,0,1,2.58,3.38,3.38,0,0,0,2.47.85,3.71,3.71,0,0,0,2.58-.84,2.79,2.79,0,0,0,.93-2.2,3.52,3.52,0,0,0-.28-1.44,3.7,3.7,0,0,0-.87-1.21,13,13,0,0,0-1.69-1.33,14.78,14.78,0,0,1-1.9-1.52,5.49,5.49,0,0,1-1.12-1.56,4.36,4.36,0,0,1-.4-1.89,4.72,4.72,0,0,1,.76-2.69,4.79,4.79,0,0,1,2.17-1.74,8.24,8.24,0,0,1,3.28-.6,16.83,16.83,0,0,1,5.41.8l-.86,3.86Z"/><path d="M239.85,42.11a16.48,16.48,0,0,1-2.64,2.4,8.88,8.88,0,0,1-2.53,1.25,9.8,9.8,0,0,1-2.79.38,6.11,6.11,0,0,1-2.53-.48,5,5,0,0,1-1.76-1.31,5.46,5.46,0,0,1-1-2,9,9,0,0,1-.33-2.5,14.67,14.67,0,0,1,.71-4.29,12.51,12.51,0,0,1,2.17-4.12,10.09,10.09,0,0,1,3.48-2.83,9.54,9.54,0,0,1,4.31-1,5.19,5.19,0,0,1,3.37.92,3.47,3.47,0,0,1,1.13,2.86,5.14,5.14,0,0,1-3,4.78c-2,1.06-4.91,1.59-8.8,1.59a12.4,12.4,0,0,0-.22,2.43,4.37,4.37,0,0,0,.76,2.86,3.13,3.13,0,0,0,2.49.89,6.47,6.47,0,0,0,3.11-.75,12.52,12.52,0,0,0,2.91-2.31ZM230,36.18a25.35,25.35,0,0,0,3-.2,12.3,12.3,0,0,0,2.22-.49,5.66,5.66,0,0,0,1.54-.74,3.84,3.84,0,0,0,1-.94,3.25,3.25,0,0,0,.5-1.09,5.17,5.17,0,0,0,.14-1.19,2.77,2.77,0,0,0-.53-1.79,1.91,1.91,0,0,0-1.57-.64,4.22,4.22,0,0,0-2.56.94,8.85,8.85,0,0,0-2.21,2.55A14.51,14.51,0,0,0,230,36.18Z"/><path d="M259.65,45.84h-5.86l2.36-9.51c.15-.62.3-1.29.44-2a10.69,10.69,0,0,0,.21-2,3.16,3.16,0,0,0-.45-1.91,1.7,1.7,0,0,0-1.43-.58,3,3,0,0,0-1.68.61,9.2,9.2,0,0,0-1.89,1.81,16.61,16.61,0,0,0-1.66,2.46,11.11,11.11,0,0,0-1.05,3L247,45.84h-3.22l2.83-12.79c.06-.29.14-.71.25-1.28a8.32,8.32,0,0,0,.16-1.4,1.76,1.76,0,0,0-.16-.81,1,1,0,0,0-.54-.43,4.87,4.87,0,0,0-1.29-.2l.22-1,4.22-.17h1.06l-1.25,4.87.23.07A16.52,16.52,0,0,1,253,28.88a5.7,5.7,0,0,1,3.39-1.24,3.54,3.54,0,0,1,2.73,1,4.23,4.23,0,0,1,.93,3,9.9,9.9,0,0,1-.12,1.47q-.12.8-.27,1.41l-1.56,6.67a10.05,10.05,0,0,0-.32,2.13,1.67,1.67,0,0,0,.19.88,1.16,1.16,0,0,0,.57.49,4.82,4.82,0,0,0,1.28.26Z"/><path d="M272.1,54a8.47,8.47,0,0,1-4.27-.95,5.54,5.54,0,0,1-2.37-2.78,12.37,12.37,0,0,1-.74-4.58,30,30,0,0,1,.34-4.31q.44-3,1.29-6.76c.56-2.48,1.12-4.54,1.66-6.18a23,23,0,0,1,2.05-4.56,10.87,10.87,0,0,1,2.4-2.8,9,9,0,0,1,3-1.53,14.78,14.78,0,0,1,4.37-.56l-.33,1.53a8.23,8.23,0,0,0-2.7.38,5.62,5.62,0,0,0-1.9,1.12A9.68,9.68,0,0,0,273,24.42a27.73,27.73,0,0,0-2,4.85c-.54,1.72-1.09,3.82-1.63,6.31q-.68,3-1.08,5.48a36.52,36.52,0,0,0-.56,5.66,9.09,9.09,0,0,0,.53,3.44,3.33,3.33,0,0,0,1.52,1.77,5.78,5.78,0,0,0,2.62.52Z"/><path d="M283.74,32.36A12.65,12.65,0,0,1,286.57,31a9,9,0,0,1,2.82-.44,6,6,0,0,1,2.84.68,4.92,4.92,0,0,1,2,2.09,7.06,7.06,0,0,1,.76,3.42,11.61,11.61,0,0,1-.33,2.71,9.35,9.35,0,0,1-1,2.58,7.93,7.93,0,0,1-1.8,2.12,8.38,8.38,0,0,1-2.58,1.43,9.92,9.92,0,0,1-3.34.53,6.56,6.56,0,0,1-2.9-.61A5.75,5.75,0,0,1,281,43.84a7.41,7.41,0,0,1-1.23-2.52,11.48,11.48,0,0,1-.41-3.12,19.84,19.84,0,0,1,.23-3,19.15,19.15,0,0,1,.91-3.69,16.82,16.82,0,0,1,2.16-4.07,17.14,17.14,0,0,1,3.4-3.52,19.45,19.45,0,0,1,4.4-2.59A20.24,20.24,0,0,1,295.55,20l.68,1-.18.92a13,13,0,0,0-7.65,3,16.54,16.54,0,0,0-4.85,7.37Zm-1.41,6.76a6.67,6.67,0,0,0,1,4.07,3.62,3.62,0,0,0,3.06,1.36,4.18,4.18,0,0,0,2.67-1,6.2,6.2,0,0,0,1.89-2.7,10.89,10.89,0,0,0,.68-3.94q0-4.47-3.66-4.47a6.36,6.36,0,0,0-1.24.12,6.91,6.91,0,0,0-1.23.38,7.93,7.93,0,0,0-1.18.64,6,6,0,0,0-.89.69,2.9,2.9,0,0,0-.44.6,3.24,3.24,0,0,0-.3.79,16.49,16.49,0,0,0-.26,1.66A12.73,12.73,0,0,0,282.33,39.12Z"/><path d="M304.58,46.14a6.12,6.12,0,0,1-2.95-.66,4.36,4.36,0,0,1-1.91-2.15,9.73,9.73,0,0,1-.68-3.95,27.49,27.49,0,0,1,.45-4.75,30.61,30.61,0,0,1,1.22-4.82,22.54,22.54,0,0,1,1.85-4.12,13.9,13.9,0,0,1,2.37-3.12,9.8,9.8,0,0,1,2.76-1.93,7.32,7.32,0,0,1,3-.66,6,6,0,0,1,2.59.49A4.4,4.4,0,0,1,315,21.82a5.52,5.52,0,0,1,1,2.08,11.57,11.57,0,0,1,.29,2.65,30,30,0,0,1-1.18,8.16,23.89,23.89,0,0,1-3,6.84,11,11,0,0,1-3.62,3.54A7.55,7.55,0,0,1,304.58,46.14Zm-2.32-5.58a8.25,8.25,0,0,0,.26,2.37,2.23,2.23,0,0,0,.8,1.23,2.48,2.48,0,0,0,1.48.39,3.85,3.85,0,0,0,2.71-1.33,13.33,13.33,0,0,0,2.47-4,38.15,38.15,0,0,0,2.11-6.76,32,32,0,0,0,1-7.12,5.38,5.38,0,0,0-.59-2.89,2,2,0,0,0-1.86-.91A3.43,3.43,0,0,0,309,22a6,6,0,0,0-1.84,1.67,15.81,15.81,0,0,0-2,3.71A37.19,37.19,0,0,0,303.6,32c-.33,1.27-.6,2.52-.82,3.74A25.43,25.43,0,0,0,302.26,40.56Z"/><path d="M326.37,31.18a5.54,5.54,0,0,1-2.85-.73,5,5,0,0,1-1.91-2,6.22,6.22,0,0,1-.67-2.89,5.74,5.74,0,0,1,.72-2.87,5,5,0,0,1,2-2,5.9,5.9,0,0,1,2.9-.7,5.74,5.74,0,0,1,2.85.71,5,5,0,0,1,1.95,2,5.82,5.82,0,0,1,.7,2.88,5.65,5.65,0,0,1-.73,2.87,5.28,5.28,0,0,1-2,2A5.94,5.94,0,0,1,326.37,31.18Zm.11-9.35a3.63,3.63,0,0,0-1.86.48,3.33,3.33,0,0,0-1.26,1.32,4,4,0,0,0-.45,1.93,4.23,4.23,0,0,0,.44,1.94,3.23,3.23,0,0,0,1.26,1.33,4,4,0,0,0,3.76,0,3.25,3.25,0,0,0,1.27-1.33,4.11,4.11,0,0,0,.45-1.94,4,4,0,0,0-.45-1.93,3.23,3.23,0,0,0-1.27-1.32A3.69,3.69,0,0,0,326.48,21.83Z"/><path d="M335.89,19a8.53,8.53,0,0,1,4.28,1,5.54,5.54,0,0,1,2.37,2.78,12.38,12.38,0,0,1,.73,4.58,29.72,29.72,0,0,1-.33,4.21c-.3,2.18-.76,4.59-1.38,7.25q-.87,3.69-1.67,6a22.3,22.3,0,0,1-2,4.37,10.42,10.42,0,0,1-2.38,2.76,8.72,8.72,0,0,1-3,1.52,14.64,14.64,0,0,1-4.35.56l.34-1.53a8.06,8.06,0,0,0,2.68-.38A5.67,5.67,0,0,0,333.1,51a9.43,9.43,0,0,0,1.9-2.49,26.83,26.83,0,0,0,2-4.84c.61-2,1.19-4.24,1.74-6.83q.65-3,1-5.32a35.15,35.15,0,0,0,.5-5.26,9,9,0,0,0-.54-3.46A3.36,3.36,0,0,0,338.15,21a5.68,5.68,0,0,0-2.59-.51Z"/><path d="M357.23,36.14l-1.56,7.13h-2.79l1.56-7.13H348.1l.56-2.53H355l1.54-7.12h2.79l-1.54,7.12h6.39l-.55,2.53Z"/><path d="M375.36,54a8.51,8.51,0,0,1-4.28-.95,5.54,5.54,0,0,1-2.37-2.78,12.38,12.38,0,0,1-.73-4.58,31.41,31.41,0,0,1,.33-4.31q.45-3,1.29-6.76c.57-2.48,1.12-4.54,1.67-6.18a22.44,22.44,0,0,1,2-4.56,10.87,10.87,0,0,1,2.4-2.8,9.05,9.05,0,0,1,3-1.53A14.71,14.71,0,0,1,383,19l-.33,1.53a8.23,8.23,0,0,0-2.7.38A5.67,5.67,0,0,0,378.11,22a9.22,9.22,0,0,0-1.84,2.42,27,27,0,0,0-2,4.85c-.55,1.72-1.09,3.82-1.64,6.31-.45,2-.8,3.86-1.08,5.48a36.34,36.34,0,0,0-.55,5.66,9.11,9.11,0,0,0,.52,3.44,3.39,3.39,0,0,0,1.53,1.77,5.71,5.71,0,0,0,2.61.52Z"/><path d="M389.91,37.43h-8.12l.61-2.9h8.13Z"/><path d="M405.27,45.84h-7.83l.21-.92a3.17,3.17,0,0,0,1.08-.29,1.92,1.92,0,0,0,.62-.59,5.23,5.23,0,0,0,.55-1.23c.18-.55.4-1.4.65-2.55l4-18.33h-2.36a4.35,4.35,0,0,0-1.85.33A4.24,4.24,0,0,0,399,23.52a17.22,17.22,0,0,0-1.67,3.07h-1.79l1.4-6.31h19.4l-1.45,6.59h-1.78q0-1.82-.09-2.73a3.61,3.61,0,0,0-.36-1.38,1.41,1.41,0,0,0-.64-.66,3.74,3.74,0,0,0-1.35-.17h-2.75l-4,18.46c-.11.49-.19.87-.23,1.16s-.08.59-.12.91,0,.6,0,.85a1.91,1.91,0,0,0,.18.91,1,1,0,0,0,.56.47,4.51,4.51,0,0,0,1.28.23Z"/><path d="M420.66,47.8A6.42,6.42,0,0,0,420.5,49a.78.78,0,0,0,.26.65,2,2,0,0,0,.92.35,12.78,12.78,0,0,0,2,.14l-.26,1.2H414l.24-1.2a14.26,14.26,0,0,0,1.84-.14,3.44,3.44,0,0,0,1-.3,1.68,1.68,0,0,0,.6-.52,2.84,2.84,0,0,0,.38-1l1.84-8.41q.06-.24.09-.42c0-.12,0-.2,0-.25a.41.41,0,0,0-.15-.38.74.74,0,0,0-.4-.09,3.05,3.05,0,0,0-1.1.32c-.5.21-1.18.54-2.05,1l-.59-1.31,6.58-3h1.06c-.26,1-.52,2.09-.78,3.28Z"/><path d="M433.62,19a8.51,8.51,0,0,1,4.28,1,5.54,5.54,0,0,1,2.37,2.78,12.38,12.38,0,0,1,.73,4.58,29.72,29.72,0,0,1-.33,4.21c-.3,2.18-.76,4.59-1.38,7.25q-.87,3.69-1.67,6a22.3,22.3,0,0,1-2,4.37,10.24,10.24,0,0,1-2.38,2.76,8.58,8.58,0,0,1-3,1.52A14.73,14.73,0,0,1,426,54l.33-1.53a8.12,8.12,0,0,0,2.69-.38,5.62,5.62,0,0,0,1.86-1.1,9.23,9.23,0,0,0,1.9-2.49,26.83,26.83,0,0,0,2-4.84c.62-2,1.2-4.24,1.74-6.83q.65-3,1-5.32a33.87,33.87,0,0,0,.5-5.26,9,9,0,0,0-.53-3.46A3.34,3.34,0,0,0,435.88,21a5.68,5.68,0,0,0-2.59-.51Z"/></svg>