<svg id="Capa_1" data-name="Capa 1" xmlns="http://www.w3.org/2000/svg" viewBox="0 0 755.37 105.65"><path d="M89.49,52.64H70.58V49.35H89.49Zm0,8.69H70.58V58H89.49Z"/><path d="M32,60.8a7.74,7.74,0,0,0,1.53-.12,2.21,2.21,0,0,0,.93-.39,1.89,1.89,0,0,0,.56-.71c.13-.29.31-.75.51-1.36h1.65l-.33,5.7h-16V63a24.7,24.7,0,0,1,2.25-4.2,45.52,45.52,0,0,1,4-5.06q2.25-2.5,3.24-3.79A16.37,16.37,0,0,0,32,47.51a9.29,9.29,0,0,0,.77-1.94A7.5,7.5,0,0,0,33,43.75a6.72,6.72,0,0,0-.47-2.59,3.77,3.77,0,0,0-1.42-1.77,4.24,4.24,0,0,0-2.41-.64q-3.63,0-4.89,4.06H21.48V39.06a23.3,23.3,0,0,1,4.39-1.61,15.88,15.88,0,0,1,3.68-.5A8.15,8.15,0,0,1,35,38.54a5.78,5.78,0,0,1,1.84,4.62,8.75,8.75,0,0,1-.2,1.91A7.82,7.82,0,0,1,36,46.79a12.3,12.3,0,0,1-1.18,1.82c-.49.65-1,1.31-1.63,2s-1.62,1.79-3.08,3.35A41.56,41.56,0,0,0,24.7,60.8Z"/><path d="M50.2,45.53a6.47,6.47,0,0,0,1-.07,1.7,1.7,0,0,0,.57-.21,1.33,1.33,0,0,0,.36-.35,6.28,6.28,0,0,0,.44-.94h1.33l-.27,3.77H42.31V47a13.31,13.31,0,0,1,1.78-2.81,30.74,30.74,0,0,1,2.64-2.85c1.2-1.16,2.06-2,2.56-2.63A7.85,7.85,0,0,0,50.42,37a3.83,3.83,0,0,0,.36-1.59,2.61,2.61,0,0,0-2.89-2.85,3.25,3.25,0,0,0-2,.64,4,4,0,0,0-1.29,1.9H42.72V32.48a19.17,19.17,0,0,1,3.18-1,13,13,0,0,1,2.58-.3A8.22,8.22,0,0,1,51,31.5a4.5,4.5,0,0,1,1.6.87,2.92,2.92,0,0,1,.84,1.26,4.7,4.7,0,0,1,.24,1.49,4.28,4.28,0,0,1-.38,1.78A7.29,7.29,0,0,1,52,38.7c-.58.64-1.63,1.65-3.13,3a23.64,23.64,0,0,0-3.49,3.81Z"/><path d="M370.22,60.8a7.81,7.81,0,0,0,1.53-.12,2.21,2.21,0,0,0,.93-.39,1.89,1.89,0,0,0,.56-.71c.13-.29.3-.75.51-1.36h1.65l-.33,5.7h-16V63a24.7,24.7,0,0,1,2.25-4.2,45.52,45.52,0,0,1,4-5.06q2.25-2.5,3.24-3.79a16.37,16.37,0,0,0,1.62-2.43,9.29,9.29,0,0,0,.77-1.94,7.5,7.5,0,0,0,.23-1.82,6.72,6.72,0,0,0-.47-2.59,3.84,3.84,0,0,0-1.42-1.77,4.25,4.25,0,0,0-2.42-.64q-3.62,0-4.88,4.06h-2.35V39.06a23.3,23.3,0,0,1,4.39-1.61,15.88,15.88,0,0,1,3.68-.5,8.15,8.15,0,0,1,5.45,1.59,5.78,5.78,0,0,1,1.84,4.62,8.75,8.75,0,0,1-.2,1.91,7.82,7.82,0,0,1-.64,1.72A13.16,13.16,0,0,1,373,48.61c-.49.65-1,1.31-1.63,2s-1.62,1.79-3.08,3.35a41,41,0,0,0-5.41,6.86Z"/><path d="M402.8,46l-1.26,2.16-5-3.53.56,6.11h-2.56l.58-6.11-5,3.53L388.86,46l5.54-2.62-5.54-2.6,1.28-2.19,5,3.54L394.56,36h2.56l-.56,6.11,5-3.54,1.26,2.19-5.53,2.6Z"/><path d="M426.54,58.83a9.13,9.13,0,0,0,.12,1.71A1.9,1.9,0,0,0,428,62a7.24,7.24,0,0,0,1.51.31c.61.07,1.41.12,2.41.15v1.42H417.62V62.5a27.9,27.9,0,0,0,3.07-.26,4,4,0,0,0,1.41-.5,1.86,1.86,0,0,0,.7-.94,6.13,6.13,0,0,0,.23-2V43a2,2,0,0,0-.27-1.15.94.94,0,0,0-.8-.36,4.06,4.06,0,0,0-1.76.65c-.77.43-1.71,1-2.83,1.77l-.86-1.5L425.59,37h1.06c-.07,1.25-.11,3-.11,5.2Z"/><path d="M441,59.39a13.89,13.89,0,0,1,.27,2.7,6.54,6.54,0,0,1-.46,2.5,7.93,7.93,0,0,1-1.48,2.25,20.66,20.66,0,0,1-2.81,2.48l-1-1.2A8,8,0,0,0,437,66.43a5.4,5.4,0,0,0,.64-1.7,12.34,12.34,0,0,0,.2-2.41c0-1-.05-2-.14-2.93Z"/><path d="M456.81,60.8a7.88,7.88,0,0,0,1.53-.12,2.21,2.21,0,0,0,.93-.39,1.89,1.89,0,0,0,.56-.71c.13-.29.3-.75.51-1.36H462l-.33,5.7h-16V63a23.37,23.37,0,0,1,2.25-4.2,45.52,45.52,0,0,1,4-5.06q2.25-2.5,3.24-3.79a18.13,18.13,0,0,0,1.62-2.43,9.87,9.87,0,0,0,.77-1.94,7.5,7.5,0,0,0,.23-1.82,6.72,6.72,0,0,0-.47-2.59,3.84,3.84,0,0,0-1.42-1.77,4.25,4.25,0,0,0-2.42-.64q-3.61,0-4.88,4.06h-2.35V39.06a23.05,23.05,0,0,1,4.39-1.61,15.88,15.88,0,0,1,3.68-.5,8.15,8.15,0,0,1,5.45,1.59,5.81,5.81,0,0,1,1.84,4.62,8.75,8.75,0,0,1-.2,1.91,7.82,7.82,0,0,1-.64,1.72,14.16,14.16,0,0,1-1.18,1.82c-.49.65-1,1.31-1.63,2s-1.62,1.79-3.08,3.35a41,41,0,0,0-5.41,6.86Z"/><path d="M468.1,62.85V58.71h2.34a5.69,5.69,0,0,0,1.76,2.93,4.73,4.73,0,0,0,3,.94,4.8,4.8,0,0,0,3.9-1.57,7.06,7.06,0,0,0,1.32-4.66,7.4,7.4,0,0,0-.7-3.43,4.26,4.26,0,0,0-1.88-2,5.9,5.9,0,0,0-2.75-.61,13.4,13.4,0,0,0-2.27.17,15.57,15.57,0,0,0-2,.51l-1.55-.91V37.26H480a3.17,3.17,0,0,0,.95-.1,1,1,0,0,0,.46-.34,3.39,3.39,0,0,0,.41-.84h1.51L483,40.51H471.84v8.57a9.8,9.8,0,0,1,2.19-.64,12.67,12.67,0,0,1,2.37-.22,8.63,8.63,0,0,1,4.09,1,6.6,6.6,0,0,1,2.75,2.69,8.21,8.21,0,0,1,1,4.06,8.86,8.86,0,0,1-1.08,4.49A7,7,0,0,1,480,63.26a11.24,11.24,0,0,1-4.86,1A19.68,19.68,0,0,1,468.1,62.85Z"/><path d="M511.38,46l-1.26,2.16-5-3.53.56,6.11h-2.56l.58-6.11-5,3.53L497.44,46,503,43.34l-5.54-2.6,1.28-2.19,5,3.54L503.14,36h2.56l-.56,6.11,5-3.54,1.26,2.19-5.53,2.6Z"/><path d="M535.12,58.83a9.13,9.13,0,0,0,.12,1.71,1.9,1.9,0,0,0,1.37,1.5,7.24,7.24,0,0,0,1.51.31c.61.07,1.41.12,2.41.15v1.42H526.2V62.5a27.9,27.9,0,0,0,3.07-.26,4,4,0,0,0,1.41-.5,1.86,1.86,0,0,0,.7-.94,6.13,6.13,0,0,0,.23-2V43a2,2,0,0,0-.27-1.15.94.94,0,0,0-.8-.36,4.06,4.06,0,0,0-1.76.65c-.77.43-1.71,1-2.83,1.77l-.86-1.5L534.17,37h1.06c-.07,1.25-.11,3-.11,5.2Z"/><path d="M549.62,59.39a13.89,13.89,0,0,1,.27,2.7,6.54,6.54,0,0,1-.46,2.5A7.93,7.93,0,0,1,548,66.84a20.66,20.66,0,0,1-2.81,2.48l-1-1.2a8,8,0,0,0,1.43-1.69,5.4,5.4,0,0,0,.64-1.7,12.34,12.34,0,0,0,.2-2.41c0-1,0-2-.14-2.93Z"/><path d="M565.39,60.8a7.88,7.88,0,0,0,1.53-.12,2.21,2.21,0,0,0,.93-.39,1.89,1.89,0,0,0,.56-.71c.13-.29.3-.75.51-1.36h1.65l-.33,5.7h-16V63a23.37,23.37,0,0,1,2.25-4.2,45.52,45.52,0,0,1,4-5.06q2.25-2.5,3.24-3.79a18.13,18.13,0,0,0,1.62-2.43,9.29,9.29,0,0,0,.77-1.94,7.5,7.5,0,0,0,.23-1.82,6.72,6.72,0,0,0-.47-2.59,3.84,3.84,0,0,0-1.42-1.77,4.25,4.25,0,0,0-2.42-.64q-3.62,0-4.88,4.06h-2.35V39.06a23.05,23.05,0,0,1,4.39-1.61,15.88,15.88,0,0,1,3.68-.5,8.15,8.15,0,0,1,5.45,1.59,5.81,5.81,0,0,1,1.84,4.62,8.75,8.75,0,0,1-.2,1.91,7.82,7.82,0,0,1-.64,1.72,14.16,14.16,0,0,1-1.18,1.82c-.49.65-1,1.31-1.63,2s-1.62,1.79-3.08,3.35a41,41,0,0,0-5.41,6.86Z"/><path d="M576.68,62.85V58.71H579a5.69,5.69,0,0,0,1.76,2.93,4.73,4.73,0,0,0,3,.94,4.8,4.8,0,0,0,3.9-1.57A7.06,7.06,0,0,0,589,56.35a7.4,7.4,0,0,0-.7-3.43,4.26,4.26,0,0,0-1.88-2,5.9,5.9,0,0,0-2.75-.61,13.4,13.4,0,0,0-2.27.17,15.57,15.57,0,0,0-2,.51l-1.55-.91V37.26h10.69a3.17,3.17,0,0,0,1-.1,1,1,0,0,0,.46-.34,3.39,3.39,0,0,0,.41-.84h1.51l-.29,4.53H580.42v8.57a9.8,9.8,0,0,1,2.19-.64,12.67,12.67,0,0,1,2.37-.22,8.63,8.63,0,0,1,4.09,1,6.6,6.6,0,0,1,2.75,2.69,8.21,8.21,0,0,1,1,4.06,8.86,8.86,0,0,1-1.08,4.49,7,7,0,0,1-3.15,2.85,11.24,11.24,0,0,1-4.86,1A19.68,19.68,0,0,1,576.68,62.85Z"/><path d="M620,46l-1.26,2.16-5-3.53.56,6.11h-2.56l.58-6.11-5,3.53L606,46l5.54-2.62L606,40.74l1.28-2.19,5,3.54L611.72,36h2.56l-.56,6.11,5-3.54L620,40.74l-5.53,2.6Z"/><path d="M644.47,49.94a8.39,8.39,0,0,0-.24-2.15,1.78,1.78,0,0,0-.66-1,2.09,2.09,0,0,0-1.29-.34A4.86,4.86,0,0,0,638.76,48a11.49,11.49,0,0,0-2.55,4.45,17,17,0,0,0-1,5.54,7.59,7.59,0,0,0,.15,1.54,3.42,3.42,0,0,0,.5,1.25,2.55,2.55,0,0,0,1,.83,3.36,3.36,0,0,0,1.51.3,6.5,6.5,0,0,0,3-.67,11.41,11.41,0,0,0,2.72-2.12l1.19,1.19a13.06,13.06,0,0,1-3.68,3,8.74,8.74,0,0,1-4,.94,5.34,5.34,0,0,1-4.27-1.68,7.27,7.27,0,0,1-1.45-4.89,15.84,15.84,0,0,1,.77-4.59A13.65,13.65,0,0,1,635,48.71a9.67,9.67,0,0,1,3.49-2.83,9.87,9.87,0,0,1,4.27-.94,17.75,17.75,0,0,1,2.7.18,17.23,17.23,0,0,1,2.05.41l-1,4.41Z"/><path d="M655.35,64.26a6.23,6.23,0,0,1-4.66-1.7A6.71,6.71,0,0,1,649,57.67a15.9,15.9,0,0,1,.29-2.75,17,17,0,0,1,1-3.63,11.8,11.8,0,0,1,2.24-3.41,9.29,9.29,0,0,1,3.14-2.19,9.66,9.66,0,0,1,3.81-.75,7,7,0,0,1,3.66.86,5,5,0,0,1,2.06,2.33,8.47,8.47,0,0,1,.64,3.41,15.68,15.68,0,0,1-.48,3.71,15.35,15.35,0,0,1-2,4.9,8.82,8.82,0,0,1-3.35,3.06A10.05,10.05,0,0,1,655.35,64.26Zm-2.93-5.75a4.79,4.79,0,0,0,.89,3.18,3.32,3.32,0,0,0,2.66,1A4.35,4.35,0,0,0,659.35,61a12.41,12.41,0,0,0,2.33-4.81,21.18,21.18,0,0,0,.85-5.44,5.11,5.11,0,0,0-.82-3.17,3,3,0,0,0-2.54-1.07,4.6,4.6,0,0,0-3.52,1.7,12,12,0,0,0-2.36,4.87A21,21,0,0,0,652.42,58.51Z"/><path d="M680.35,49.8a4.24,4.24,0,0,0-1-2.55,3.32,3.32,0,0,0-2.43-.79,3.84,3.84,0,0,0-1.65.35,2.61,2.61,0,0,0-1.16,1,2.71,2.71,0,0,0-.43,1.53,3,3,0,0,0,.29,1.32,4.31,4.31,0,0,0,1,1.24,15.9,15.9,0,0,0,1.93,1.49,9.1,9.1,0,0,1,2.64,2.46,5,5,0,0,1,.75,2.75,5.4,5.4,0,0,1-.87,3.12,5.25,5.25,0,0,1-2.39,1.9,8.75,8.75,0,0,1-3.41.63,18.82,18.82,0,0,1-3.19-.26,28.78,28.78,0,0,1-2.88-.64l.91-4.22H670a4.14,4.14,0,0,0,1,2.69,3.48,3.48,0,0,0,2.57.88,3.91,3.91,0,0,0,2.7-.87,2.93,2.93,0,0,0,1-2.29,3.75,3.75,0,0,0-.29-1.5,4.1,4.1,0,0,0-.91-1.27,13.53,13.53,0,0,0-1.77-1.39,16.07,16.07,0,0,1-2-1.58,5.84,5.84,0,0,1-1.17-1.63,4.58,4.58,0,0,1-.42-2,4.78,4.78,0,0,1,3.06-4.62,8.56,8.56,0,0,1,3.42-.63,17.34,17.34,0,0,1,5.64.84l-.89,4Z"/><path d="M119.73,58.83a8.2,8.2,0,0,0,.13,1.71,2,2,0,0,0,.44.93,2.19,2.19,0,0,0,.92.57,7.35,7.35,0,0,0,1.52.31c.6.07,1.41.12,2.4.15v1.42H110.81V62.5a27.66,27.66,0,0,0,3.07-.26,3.81,3.81,0,0,0,1.41-.5,1.94,1.94,0,0,0,.71-.94,6.19,6.19,0,0,0,.22-2V43a2,2,0,0,0-.27-1.15.94.94,0,0,0-.8-.36,4.06,4.06,0,0,0-1.76.65c-.76.43-1.71,1-2.83,1.77l-.85-1.5L118.78,37h1.07c-.08,1.25-.12,3-.12,5.2Z"/><path d="M134.24,59.39a13.89,13.89,0,0,1,.27,2.7,6.55,6.55,0,0,1-.47,2.5,7.72,7.72,0,0,1-1.48,2.25,20.5,20.5,0,0,1-2.8,2.48l-1-1.2a7.68,7.68,0,0,0,1.43-1.69,5.17,5.17,0,0,0,.64-1.7,12.34,12.34,0,0,0,.2-2.41c0-1,0-2-.14-2.93Z"/><path d="M150,60.8a7.93,7.93,0,0,0,1.54-.12,2.33,2.33,0,0,0,.93-.39,2,2,0,0,0,.55-.71c.13-.29.31-.75.51-1.36h1.65l-.33,5.7h-16V63a24.7,24.7,0,0,1,2.25-4.2,44.6,44.6,0,0,1,4-5.06c1.5-1.67,2.57-2.93,3.23-3.79A16.37,16.37,0,0,0,150,47.51a9.29,9.29,0,0,0,.77-1.94,7.5,7.5,0,0,0,.23-1.82,6.73,6.73,0,0,0-.46-2.59,3.86,3.86,0,0,0-1.43-1.77,4.22,4.22,0,0,0-2.41-.64q-3.63,0-4.89,4.06h-2.35V39.06a23.13,23.13,0,0,1,4.4-1.61,15.73,15.73,0,0,1,3.67-.5A8.13,8.13,0,0,1,153,38.54a5.78,5.78,0,0,1,1.84,4.62,8.75,8.75,0,0,1-.2,1.91,7.82,7.82,0,0,1-.64,1.72,13,13,0,0,1-1.17,1.82c-.5.65-1,1.31-1.63,2s-1.63,1.79-3.09,3.35a41.56,41.56,0,0,0-5.41,6.86Z"/><path d="M161.29,62.85V58.71h2.35a5.62,5.62,0,0,0,1.75,2.93,5.51,5.51,0,0,0,6.93-.63,7.06,7.06,0,0,0,1.32-4.66,7.53,7.53,0,0,0-.69-3.43,4.33,4.33,0,0,0-1.89-2,5.84,5.84,0,0,0-2.75-.61,13.4,13.4,0,0,0-2.27.17,15.45,15.45,0,0,0-2,.51l-1.56-.91V37.26h10.69a3.08,3.08,0,0,0,1-.1,1,1,0,0,0,.46-.34A3.07,3.07,0,0,0,175,36h1.51l-.29,4.53H165v8.57a10.12,10.12,0,0,1,2.19-.64,12.67,12.67,0,0,1,2.37-.22,8.6,8.6,0,0,1,4.09,1,6.69,6.69,0,0,1,2.76,2.69,8.32,8.32,0,0,1,1,4.06,8.86,8.86,0,0,1-1.09,4.49,7,7,0,0,1-3.14,2.85,11.28,11.28,0,0,1-4.87,1A19.68,19.68,0,0,1,161.29,62.85Z"/><path d="M190.18,45.53a6.47,6.47,0,0,0,1-.07,1.7,1.7,0,0,0,.57-.21,1.1,1.1,0,0,0,.36-.35,5.39,5.39,0,0,0,.44-.94h1.34l-.27,3.77H182.29V47a13.37,13.37,0,0,1,1.79-2.81,32,32,0,0,1,2.63-2.85c1.21-1.16,2.06-2,2.56-2.63A7.49,7.49,0,0,0,190.4,37a3.84,3.84,0,0,0,.37-1.59,2.62,2.62,0,0,0-2.89-2.85,3.28,3.28,0,0,0-2,.64,4,4,0,0,0-1.29,1.9H182.7V32.48a19.17,19.17,0,0,1,3.18-1,13,13,0,0,1,2.58-.3,8.22,8.22,0,0,1,2.53.33,4.41,4.41,0,0,1,1.6.87,2.92,2.92,0,0,1,.84,1.26,4.71,4.71,0,0,1,.25,1.49,4.13,4.13,0,0,1-.39,1.78A7.22,7.22,0,0,1,192,38.7c-.59.64-1.64,1.65-3.13,3a23.32,23.32,0,0,0-3.5,3.81Z"/><path d="M244.58,57.11a8.07,8.07,0,0,0,.13,1.71,2,2,0,0,0,.44.94,2.17,2.17,0,0,0,.93.57,7.79,7.79,0,0,0,1.51.31q.91.11,2.4.15v1.42H235.66V60.79a27,27,0,0,0,3.07-.27,3.65,3.65,0,0,0,1.41-.49,2,2,0,0,0,.71-.94,6.26,6.26,0,0,0,.22-2V41.28a1.93,1.93,0,0,0-.27-1.15.93.93,0,0,0-.79-.36,4.05,4.05,0,0,0-1.77.65c-.76.43-1.71,1-2.83,1.77l-.85-1.5,9.07-5.45h1.07c-.08,1.25-.12,3-.12,5.2Z"/><path d="M259.09,57.68a13.89,13.89,0,0,1,.27,2.7,6.55,6.55,0,0,1-.47,2.5,7.85,7.85,0,0,1-1.48,2.25,20.51,20.51,0,0,1-2.8,2.47l-1.05-1.19A8.31,8.31,0,0,0,255,64.72a5.36,5.36,0,0,0,.63-1.71,12.23,12.23,0,0,0,.2-2.4c0-1-.05-2-.14-2.93Z"/><path d="M274.85,59.09a7.93,7.93,0,0,0,1.54-.12,2.33,2.33,0,0,0,.93-.39,2,2,0,0,0,.55-.71,13,13,0,0,0,.51-1.36H280l-.33,5.7h-16v-.93a24.7,24.7,0,0,1,2.25-4.2A43.73,43.73,0,0,1,270,52q2.25-2.51,3.23-3.79a16.37,16.37,0,0,0,1.62-2.43,9.29,9.29,0,0,0,.77-1.94,7,7,0,0,0,.23-1.82,6.73,6.73,0,0,0-.46-2.59A3.86,3.86,0,0,0,274,37.68a4.22,4.22,0,0,0-2.41-.64q-3.63,0-4.89,4.06h-2.35V37.35a23.13,23.13,0,0,1,4.4-1.61,15.73,15.73,0,0,1,3.67-.5,8.13,8.13,0,0,1,5.45,1.59,5.76,5.76,0,0,1,1.84,4.62,8.18,8.18,0,0,1-.2,1.91,7.74,7.74,0,0,1-.64,1.71,12.52,12.52,0,0,1-1.17,1.83c-.5.65-1,1.31-1.63,2s-1.63,1.79-3.09,3.35a41.15,41.15,0,0,0-5.41,6.86Z"/><path d="M286.14,61.14V57h2.35a5.68,5.68,0,0,0,1.75,2.93,5.55,5.55,0,0,0,6.93-.63,7.09,7.09,0,0,0,1.32-4.67,7.49,7.49,0,0,0-.69-3.42,4.41,4.41,0,0,0-1.89-2,6,6,0,0,0-2.75-.6,13.5,13.5,0,0,0-2.27.16,15.58,15.58,0,0,0-2,.52l-1.56-.92V35.55H298a2.74,2.74,0,0,0,.95-.11,1.06,1.06,0,0,0,.47-.33,3.59,3.59,0,0,0,.4-.85h1.52l-.3,4.53H289.88v8.58a10.72,10.72,0,0,1,2.19-.65,13.56,13.56,0,0,1,2.37-.21,8.49,8.49,0,0,1,4.09,1,6.69,6.69,0,0,1,2.76,2.69,8.31,8.31,0,0,1,1,4.05,8.87,8.87,0,0,1-1.09,4.5A7,7,0,0,1,298,61.55a11.25,11.25,0,0,1-4.87,1A19.9,19.9,0,0,1,286.14,61.14Z"/><path d="M315,43.81a6.66,6.66,0,0,0,1-.06,1.7,1.7,0,0,0,.57-.21,1.1,1.1,0,0,0,.36-.35,5.39,5.39,0,0,0,.44-.94h1.34L318.51,46H307.14v-.74a13.37,13.37,0,0,1,1.79-2.81,33.48,33.48,0,0,1,2.63-2.86c1.21-1.15,2.06-2,2.56-2.62a7.49,7.49,0,0,0,1.13-1.68,3.84,3.84,0,0,0,.37-1.59,2.83,2.83,0,0,0-.75-2.09,2.86,2.86,0,0,0-2.14-.77,3.28,3.28,0,0,0-2.05.65,4,4,0,0,0-1.29,1.89h-1.84V30.77a18.27,18.27,0,0,1,3.18-1,13,13,0,0,1,2.58-.3,8.22,8.22,0,0,1,2.53.33,4.41,4.41,0,0,1,1.6.87,2.92,2.92,0,0,1,.84,1.26,4.42,4.42,0,0,1,.25,1.48,4.15,4.15,0,0,1-.39,1.79,7.61,7.61,0,0,1-1.27,1.8q-.89,1-3.13,3a23.13,23.13,0,0,0-3.49,3.8Z"/><path d="M214.48,52.13v7.41h-2.85V52.13h-7.16V49.42h7.16V42h2.85v7.38h7.17v2.71Z"/><path d="M331.51,52.64V50.37h14.72v2.27Z"/><path d="M710.34,50.15c5.3-6.71,6.21-7.28,10.32-6.39l-.49,2.42c-3.73.67-8.2,4.46-8.19,6.91,0,2.63,4.42,6.38,8.13,6.78l.58,2.27c-3.91,1.48-5.18.71-10.36-6.15a42.76,42.76,0,0,1-3.26,3.83c-3.5,3.27-8.05,2.31-10-2a11,11,0,0,1,.09-9.37c2.07-4.55,6.87-5.36,10.35-1.74C708.53,47.69,709.34,48.9,710.34,50.15Zm-11.83,2.78c0,3.6,1.58,5.78,4.26,5.75,2.19,0,6.19-3.75,6.11-5.7s-4-5.43-6.07-5.5C700.22,47.39,698.54,49.52,698.51,52.93Z"/></svg>