<svg id="Capa_1" data-name="Capa 1" xmlns="http://www.w3.org/2000/svg" viewBox="0 0 283.72 91.15"><path d="M62,45.41H43.08V42.13H62Zm0,8.7H43.08V50.82H62Z"/><path d="M167,45.42h-18.9V42.13H167Zm0,8.69h-18.9V50.82H167Z"/><path d="M17.75,53.9a15.41,15.41,0,0,1-1.82,5,6.87,6.87,0,0,1-2.8,2.63,9,9,0,0,1-4,.81,5.63,5.63,0,0,1-1.54-.2l.45-1.72a4.3,4.3,0,0,0,1.36.16,4.18,4.18,0,0,0,1.67-.28,3.32,3.32,0,0,0,1.21-.88,6.62,6.62,0,0,0,1-1.8,19.2,19.2,0,0,0,.94-3.12l3.94-17.59H15.86l.24-1a5,5,0,0,0,1.34-.26,1.81,1.81,0,0,0,.63-.45,2.81,2.81,0,0,0,.43-.8c.13-.35.32-.94.56-1.79a10.51,10.51,0,0,1,3.17-5.28,8.29,8.29,0,0,1,5.46-1.77,15.55,15.55,0,0,1,3.28.31l-.76,3.32h-1.7a3.8,3.8,0,0,0-.71-1.6,1.65,1.65,0,0,0-1.29-.48,3,3,0,0,0-1.88.6A4.67,4.67,0,0,0,23.3,29.5a17.28,17.28,0,0,0-1,3.27L21.8,34.9h4.44l-.43,2H21.35Z"/><path d="M32.56,52.3a3.06,3.06,0,0,0-.71-1.79A2.32,2.32,0,0,0,30.12,50a2.78,2.78,0,0,0-1.17.24A1.87,1.87,0,0,0,27.82,52a2.05,2.05,0,0,0,.21.93,3.2,3.2,0,0,0,.69.87,12.18,12.18,0,0,0,1.37,1A6.25,6.25,0,0,1,32,56.55a3.52,3.52,0,0,1,.54,1.94,3.8,3.8,0,0,1-.62,2.2A3.69,3.69,0,0,1,30.19,62a6.4,6.4,0,0,1-2.42.44,13.57,13.57,0,0,1-2.27-.18q-1-.18-2-.45l.65-3h1.07a2.88,2.88,0,0,0,.72,1.9,2.52,2.52,0,0,0,1.83.62,2.77,2.77,0,0,0,1.91-.61,2.07,2.07,0,0,0,.69-1.62,2.61,2.61,0,0,0-.21-1.06,2.78,2.78,0,0,0-.65-.89,9.11,9.11,0,0,0-1.25-1,10.05,10.05,0,0,1-1.4-1.11A4,4,0,0,1,26,54a3.31,3.31,0,0,1-.29-1.38,3.33,3.33,0,0,1,2.17-3.26,6,6,0,0,1,2.42-.45,12.26,12.26,0,0,1,4,.6l-.63,2.83Z"/><path d="M80.83,34.9h6.11l-2.46,9.94c-.18.73-.34,1.45-.48,2.18a11.25,11.25,0,0,0-.2,2,3.31,3.31,0,0,0,.47,2,1.8,1.8,0,0,0,1.49.6,3.26,3.26,0,0,0,1.8-.65,9.71,9.71,0,0,0,2.06-2,16.52,16.52,0,0,0,1.71-2.61,11.31,11.31,0,0,0,1-2.93l1.77-8.47h3.35l-3,13.34-.27,1.38A8.58,8.58,0,0,0,94.06,51a1.38,1.38,0,0,0,.45,1.16,3.34,3.34,0,0,0,1.7.42l-.21,1H90.45l1.24-4.91-.25-.07a17.06,17.06,0,0,1-3.64,4,5.89,5.89,0,0,1-3.53,1.3,3.71,3.71,0,0,1-2.86-1.05,4.4,4.4,0,0,1-1-3.09,10.84,10.84,0,0,1,.11-1.38c.07-.52.17-1.08.3-1.65l1.63-6.93c.13-.57.22-1,.26-1.37a5.91,5.91,0,0,0,.07-.86,1.46,1.46,0,0,0-.46-1.23,3.51,3.51,0,0,0-1.67-.45Z"/><path d="M135.91,52.77H129.8l2.46-9.92c.16-.64.31-1.34.46-2.11a11.79,11.79,0,0,0,.22-2.07,3.21,3.21,0,0,0-.48-2,1.74,1.74,0,0,0-1.48-.61,3.12,3.12,0,0,0-1.75.64,9.23,9.23,0,0,0-2,1.89,16.09,16.09,0,0,0-1.74,2.56,11.49,11.49,0,0,0-1.09,3.15l-1.77,8.46h-3.35l3-13.34c.06-.3.15-.74.26-1.33a8,8,0,0,0,.16-1.46,1.79,1.79,0,0,0-.16-.85,1,1,0,0,0-.57-.45,5.08,5.08,0,0,0-1.34-.21l.23-1,4.4-.18h1.11L125.05,39l.23.08a17.6,17.6,0,0,1,3.66-4,6,6,0,0,1,3.53-1.29,3.67,3.67,0,0,1,2.85,1,4.4,4.4,0,0,1,1,3.1,10.79,10.79,0,0,1-.12,1.53c-.09.55-.18,1-.28,1.47l-1.63,7a10.3,10.3,0,0,0-.33,2.22,1.83,1.83,0,0,0,.19.92,1.27,1.27,0,0,0,.6.51,4.73,4.73,0,0,0,1.34.27Z"/><path d="M111,52.3a3,3,0,0,0-.71-1.79,2.32,2.32,0,0,0-1.73-.56,2.78,2.78,0,0,0-1.17.24,1.87,1.87,0,0,0-.82.7,2,2,0,0,0-.31,1.08,2.05,2.05,0,0,0,.21.93,3.07,3.07,0,0,0,.7.87,11.1,11.1,0,0,0,1.36,1,6.43,6.43,0,0,1,1.88,1.73,3.59,3.59,0,0,1,.53,1.94,3.73,3.73,0,0,1-.62,2.2A3.64,3.64,0,0,1,108.64,62a6.37,6.37,0,0,1-2.42.44,13.36,13.36,0,0,1-2.26-.18c-.71-.12-1.39-.27-2-.45l.65-3h1.07a2.93,2.93,0,0,0,.73,1.9,2.48,2.48,0,0,0,1.82.62,2.77,2.77,0,0,0,1.91-.61,2.07,2.07,0,0,0,.69-1.62,2.61,2.61,0,0,0-.21-1.06,2.9,2.9,0,0,0-.64-.89,10,10,0,0,0-1.26-1,10.69,10.69,0,0,1-1.4-1.11,3.78,3.78,0,0,1-.83-1.15,3.17,3.17,0,0,1-.3-1.38,3.37,3.37,0,0,1,2.17-3.26,6.06,6.06,0,0,1,2.43-.45,12.19,12.19,0,0,1,4,.6l-.63,2.83Z"/><path d="M196.48,12.23l-.22.95a2.48,2.48,0,0,0-1.33.51,2.15,2.15,0,0,0-.66,1.14,7.86,7.86,0,0,0-.2,2c0,.27,0,.54,0,.83l.58,15.23v1.56h.2l8.39-15.25a20.14,20.14,0,0,0,1.11-2.32,5,5,0,0,0,.37-1.71,1.82,1.82,0,0,0-.46-1.27,2.5,2.5,0,0,0-1.48-.68l.21-.95h7.93l-.21.95a2.45,2.45,0,0,0-1,.4,5.43,5.43,0,0,0-1.07,1.08,28.75,28.75,0,0,0-1.83,2.9L194.42,39.2h-2.58l-1.3-21.78a13.38,13.38,0,0,0-.28-2.18,3.13,3.13,0,0,0-.64-1.41,2.14,2.14,0,0,0-1.39-.65l.22-.95Z"/><path d="M218.62,20.49a2.78,2.78,0,0,0,1-.15,1.77,1.77,0,0,0,.63-.48,5.34,5.34,0,0,0,.61-1h1.49l-1,3.86H210.53l.2-.9A25.07,25.07,0,0,1,216.14,16l1.74-1.46a22.25,22.25,0,0,0,1.86-1.72,6.78,6.78,0,0,0,.95-1.21,4.15,4.15,0,0,0,.47-1,4.2,4.2,0,0,0,.14-1.08,1.75,1.75,0,0,0-.63-1.42,2.8,2.8,0,0,0-1.8-.51,3.24,3.24,0,0,0-2,.6,4.31,4.31,0,0,0-1.32,1.68h-2l.58-2.65a16.83,16.83,0,0,1,5.53-1.08,6.25,6.25,0,0,1,2,.29,3.9,3.9,0,0,1,1.39.74,2.85,2.85,0,0,1,.8,1,2.93,2.93,0,0,1,.25,1.14,4.64,4.64,0,0,1-.43,2.07,7.62,7.62,0,0,1-1.57,2c-.76.73-2,1.8-3.82,3.19A33.42,33.42,0,0,0,214,20.49Z"/><path d="M200.24,69.4a5.71,5.71,0,0,1,1.5,1.68,9,9,0,0,1,.92,2.72l.45,2.26c.09.47.19.91.3,1.31a9.86,9.86,0,0,0,.39,1.16,3.32,3.32,0,0,0,.48.89,2.9,2.9,0,0,0,.56.55,2.55,2.55,0,0,0,.68.34,6.19,6.19,0,0,0,1,.23l-.19.95h-5.37a29,29,0,0,1-1.11-4.14L199,73.21a9.59,9.59,0,0,0-.52-1.8,3.43,3.43,0,0,0-.71-1.14,2,2,0,0,0-1-.52,5.82,5.82,0,0,0-1.35-.13H193.2l-1.36,6.19c-.11.51-.2.91-.24,1.21s-.08.62-.12,1,0,.63,0,.89a1.88,1.88,0,0,0,.2.94,1.1,1.1,0,0,0,.58.5,5.12,5.12,0,0,0,1.34.24l-.22.95h-8l.22-.95a2.69,2.69,0,0,0,1.1-.38,2,2,0,0,0,.62-.74,6.23,6.23,0,0,0,.47-1.14c.14-.45.35-1.32.64-2.61l3.3-15a15.67,15.67,0,0,0,.42-3.09,1.69,1.69,0,0,0-.44-1.33,2.53,2.53,0,0,0-1.46-.43l.21-.95h8.63a19.18,19.18,0,0,1,3.36.24,8,8,0,0,1,2.22.73,5,5,0,0,1,1.54,1.26,5.5,5.5,0,0,1,.93,1.74,6.58,6.58,0,0,1,.31,2.06,7.88,7.88,0,0,1-.57,3.09,7.7,7.7,0,0,1-1.56,2.36A9.41,9.41,0,0,1,203,68a15.29,15.29,0,0,1-2.76,1.15Zm-4.38-1.46a12.36,12.36,0,0,0,3.5-.42,5.84,5.84,0,0,0,2.33-1.28A6.52,6.52,0,0,0,203.22,64a7.72,7.72,0,0,0,.6-3,6.8,6.8,0,0,0-.15-1.5,3.87,3.87,0,0,0-.41-1.08,2.91,2.91,0,0,0-.64-.76,3.89,3.89,0,0,0-1-.58,5.34,5.34,0,0,0-1.34-.35,16.19,16.19,0,0,0-2.09-.11c-.68,0-1.41,0-2.17.08l-2.48,11.31Z"/><path d="M265.19,44.68V45c0,.1,0,.19,0,.3a14.17,14.17,0,0,1,3.35-3.56A6.09,6.09,0,0,1,272,40.54a3.61,3.61,0,0,1,2.8,1.05,4.42,4.42,0,0,1,1,3.09,14.18,14.18,0,0,1-.39,3l-1.63,7a10.38,10.38,0,0,0-.33,2.23,1.82,1.82,0,0,0,.2.92,1.16,1.16,0,0,0,.6.5,4.94,4.94,0,0,0,1.33.28l-.17,1h-6.09l2.44-9.92c.19-.71.34-1.44.48-2.17a10.83,10.83,0,0,0,.2-2,3.24,3.24,0,0,0-.48-2,1.88,1.88,0,0,0-1.53-.59,3.12,3.12,0,0,0-1.7.62,9.2,9.2,0,0,0-2,1.92A15.9,15.9,0,0,0,265,47.91,12.61,12.61,0,0,0,264,51l-1.77,8.53h-3.35l2.23-9.92c.27-1.21.45-2.1.55-2.68a9,9,0,0,0,.15-1.5,3.17,3.17,0,0,0-.5-2,1.9,1.9,0,0,0-1.54-.59,3.17,3.17,0,0,0-1.72.63,9.28,9.28,0,0,0-2,2A15,15,0,0,0,254.38,48a12.2,12.2,0,0,0-1,3l-1.76,8.45h-3.36l2.95-13.33c.06-.3.15-.75.26-1.33a8.23,8.23,0,0,0,.16-1.47,1.81,1.81,0,0,0-.16-.85,1,1,0,0,0-.56-.45,5.87,5.87,0,0,0-1.35-.2l.23-1,4.42-.17h1.09L254,45.74l.23.07a15.75,15.75,0,0,1,3.55-4,6,6,0,0,1,3.57-1.3,3.64,3.64,0,0,1,2.83,1.07A4.38,4.38,0,0,1,265.19,44.68Z"/><line x1="181.16" y1="46.14" x2="236.03" y2="46.14" style="fill:none;stroke:#000;stroke-miterlimit:10;stroke-width:2px"/></svg>