<svg id="Capa_1" data-name="Capa 1" xmlns="http://www.w3.org/2000/svg" viewBox="0 0 1082.1 90"><path d="M67.33,33.31a3.44,3.44,0,0,0,.64-.05,1.06,1.06,0,0,0,.37-.13,1.11,1.11,0,0,0,.3-.25,2,2,0,0,0,.29-.39c.08-.15.19-.37.33-.67h1l-.82,3.28H60.73l.11-.54a16.63,16.63,0,0,1,1.69-2.44,32.51,32.51,0,0,1,2.82-3c1-.95,1.69-1.63,2.07-2A16.81,16.81,0,0,0,69,25.32a5.53,5.53,0,0,0,.75-1.4A4.09,4.09,0,0,0,70,22.59a1.93,1.93,0,0,0-.53-1.45,2.11,2.11,0,0,0-1.51-.51,2.67,2.67,0,0,0-1.65.55,3.8,3.8,0,0,0-1.17,1.56H63.65l.48-2.16a16.22,16.22,0,0,1,2.33-.74,9.93,9.93,0,0,1,2.15-.25A4.55,4.55,0,0,1,70.5,20a2.68,2.68,0,0,1,1.2,1,2.53,2.53,0,0,1,.41,1.42,4.43,4.43,0,0,1-.74,2.53,12.45,12.45,0,0,1-1.43,1.72c-.58.59-1.54,1.48-2.87,2.68a30.23,30.23,0,0,0-3.87,4Z"/><path d="M168.47,33.31a3.44,3.44,0,0,0,.64-.05,1.06,1.06,0,0,0,.37-.13,1.31,1.31,0,0,0,.31-.25,2.44,2.44,0,0,0,.28-.39c.08-.15.19-.37.33-.67h1l-.82,3.28h-8.74l.11-.54a16.63,16.63,0,0,1,1.69-2.44,32.81,32.81,0,0,1,2.83-3c1-.95,1.68-1.63,2.06-2a16.81,16.81,0,0,0,1.55-1.79,5.94,5.94,0,0,0,.76-1.4,4.36,4.36,0,0,0,.22-1.33,1.93,1.93,0,0,0-.53-1.45,2.09,2.09,0,0,0-1.51-.51,2.67,2.67,0,0,0-1.65.55,3.8,3.8,0,0,0-1.17,1.56h-1.44l.48-2.16a16.22,16.22,0,0,1,2.33-.74,9.93,9.93,0,0,1,2.15-.25,4.55,4.55,0,0,1,1.89.37,2.76,2.76,0,0,1,1.21,1,2.61,2.61,0,0,1,.4,1.42,4.6,4.6,0,0,1-.18,1.33,4.93,4.93,0,0,1-.55,1.2,13.43,13.43,0,0,1-1.44,1.72c-.58.59-1.54,1.48-2.87,2.68a30.23,30.23,0,0,0-3.87,4Z"/><path d="M109.2,43.35H90.3V40.07h18.9Zm0,8.69H90.3V48.76h18.9Z"/><path d="M902,38.62h-18.9V35.34H902Zm0,8.69h-18.9V44H902Z"/><path d="M46.22,69.4a11.69,11.69,0,0,1-1.36,3.73,5.2,5.2,0,0,1-2.11,2,6.78,6.78,0,0,1-3,.6,4.47,4.47,0,0,1-1.15-.14l.33-1.29a3.43,3.43,0,0,0,1,.11,3.2,3.2,0,0,0,1.26-.2,2.47,2.47,0,0,0,.9-.67,4.63,4.63,0,0,0,.79-1.34,14.61,14.61,0,0,0,.7-2.34l3-13.2H44.81l.17-.75a3.64,3.64,0,0,0,1-.19,1.43,1.43,0,0,0,.48-.34,1.86,1.86,0,0,0,.32-.6c.1-.26.24-.71.43-1.34a7.75,7.75,0,0,1,2.37-4,6.22,6.22,0,0,1,4.1-1.33,11.69,11.69,0,0,1,2.46.23l-.57,2.49H54.29a2.93,2.93,0,0,0-.53-1.2,1.25,1.25,0,0,0-1-.36,2.24,2.24,0,0,0-1.41.45,3.56,3.56,0,0,0-1,1.37,13.6,13.6,0,0,0-.76,2.45l-.36,1.6h3.33l-.32,1.48H48.92Z"/><path d="M37.44,26.13l-.24,1.05a2.66,2.66,0,0,0-1.46.56A2.39,2.39,0,0,0,35,29a8.27,8.27,0,0,0-.22,2.16c0,.28,0,.58,0,.9l.64,16.76v1.71h.22L44.9,33.76a21.52,21.52,0,0,0,1.22-2.55,5.43,5.43,0,0,0,.41-1.88A2,2,0,0,0,46,27.92a2.79,2.79,0,0,0-1.63-.74l.24-1.05h8.72l-.23,1.05a2.6,2.6,0,0,0-1.1.44,5.9,5.9,0,0,0-1.18,1.18,32.75,32.75,0,0,0-2,3.19L35.18,55.8H32.34l-1.43-24a15.54,15.54,0,0,0-.31-2.39,3.53,3.53,0,0,0-.7-1.56,2.4,2.4,0,0,0-1.53-.71l.24-1.05Z"/><path d="M388,67.28A11.48,11.48,0,0,1,386.66,71a5.14,5.14,0,0,1-2.1,2,6.8,6.8,0,0,1-3,.6,4,4,0,0,1-1.14-.15l.33-1.29a3.29,3.29,0,0,0,1,.12,3.46,3.46,0,0,0,1.26-.2,2.64,2.64,0,0,0,.9-.67,4.85,4.85,0,0,0,.78-1.35,14.35,14.35,0,0,0,.71-2.33l2.95-13.2h-1.76l.18-.75a3.56,3.56,0,0,0,1-.2,1.17,1.17,0,0,0,.47-.34,2.13,2.13,0,0,0,.33-.59q.15-.39.42-1.35a7.91,7.91,0,0,1,2.38-4A6.24,6.24,0,0,1,395.48,46a11.06,11.06,0,0,1,2.46.23l-.57,2.49h-1.28a2.69,2.69,0,0,0-.53-1.2,1.23,1.23,0,0,0-1-.37,2.15,2.15,0,0,0-1.41.46,3.56,3.56,0,0,0-1,1.37,12.84,12.84,0,0,0-.76,2.45l-.37,1.6h3.33l-.32,1.48h-3.34Z"/><path d="M379.24,24,379,25.06a2.56,2.56,0,0,0-1.46.56,2.41,2.41,0,0,0-.74,1.25A8.92,8.92,0,0,0,376.6,29c0,.29,0,.59,0,.9l.64,16.76v1.72h.21l9.24-16.78a22.26,22.26,0,0,0,1.22-2.54,5.39,5.39,0,0,0,.4-1.88,2,2,0,0,0-.5-1.41,2.76,2.76,0,0,0-1.63-.74l.23-1.06h8.73l-.24,1.06a2.53,2.53,0,0,0-1.1.44,5.41,5.41,0,0,0-1.17,1.18,31.05,31.05,0,0,0-2,3.19L377,53.67h-2.84l-1.42-24a15.86,15.86,0,0,0-.31-2.4,3.55,3.55,0,0,0-.71-1.55,2.34,2.34,0,0,0-1.52-.71l.23-1.06Z"/><path d="M147.18,69.4a4.66,4.66,0,0,1-3.5-1.27,5,5,0,0,1-1.24-3.66,11.24,11.24,0,0,1,.22-2.07,12.3,12.3,0,0,1,.78-2.72,9,9,0,0,1,1.68-2.56,7,7,0,0,1,2.36-1.64,7.32,7.32,0,0,1,2.85-.56,5.28,5.28,0,0,1,2.75.64,3.78,3.78,0,0,1,1.54,1.75,6.22,6.22,0,0,1,.49,2.56,11.76,11.76,0,0,1-.37,2.78,11.46,11.46,0,0,1-1.53,3.68,6.7,6.7,0,0,1-2.51,2.29A7.58,7.58,0,0,1,147.18,69.4ZM145,65.1a3.6,3.6,0,0,0,.66,2.38,2.51,2.51,0,0,0,2,.77A3.26,3.26,0,0,0,150.17,67a9.29,9.29,0,0,0,1.75-3.61,15.51,15.51,0,0,0,.64-4.08,3.85,3.85,0,0,0-.61-2.38,2.26,2.26,0,0,0-1.91-.8,3.45,3.45,0,0,0-2.64,1.27A9.08,9.08,0,0,0,145.63,61,16,16,0,0,0,145,65.1Z"/><path d="M136.14,26.13l-.23,1.05a2.63,2.63,0,0,0-1.46.56,2.4,2.4,0,0,0-.74,1.26,8.81,8.81,0,0,0-.21,2.16c0,.28,0,.58,0,.9l.64,16.76v1.71h.21l9.24-16.77a21.52,21.52,0,0,0,1.22-2.55,5.39,5.39,0,0,0,.4-1.88,2,2,0,0,0-.5-1.41,2.82,2.82,0,0,0-1.63-.74l.23-1.05h8.73l-.24,1.05a2.66,2.66,0,0,0-1.1.44,6.17,6.17,0,0,0-1.17,1.18,32.75,32.75,0,0,0-2,3.19L133.88,55.8h-2.83l-1.43-24a15.54,15.54,0,0,0-.31-2.39,3.54,3.54,0,0,0-.71-1.56,2.37,2.37,0,0,0-1.52-.71l.23-1.05Z"/><polyline points="406.69 48.98 425.99 68.56 436.85 13.51 868.63 13.51" style="fill:none;stroke:#000;stroke-miterlimit:10;stroke-width:2px"/><line x1="183.29" y1="46.13" x2="201.83" y2="46.13" style="fill:none;stroke:#000;stroke-miterlimit:10;stroke-width:2px"/><line x1="722.76" y1="30.04" x2="736.29" y2="30.04" style="fill:none;stroke:#000;stroke-miterlimit:10;stroke-width:2px"/><line x1="523.79" y1="46.35" x2="542.33" y2="46.35" style="fill:none;stroke:#000;stroke-miterlimit:10;stroke-width:2px"/><path d="M580,51.44a6.37,6.37,0,0,0,1.12-.08,2.35,2.35,0,0,0,.65-.22,2.48,2.48,0,0,0,.52-.44,4.08,4.08,0,0,0,.5-.69c.14-.26.34-.64.57-1.15h1.8l-1.43,5.7H568.47l.2-.93a29.41,29.41,0,0,1,2.93-4.26,58.8,58.8,0,0,1,4.92-5.2q2.6-2.47,3.59-3.51a27.86,27.86,0,0,0,2.69-3.11,9.71,9.71,0,0,0,1.32-2.44,7,7,0,0,0,.39-2.3,3.35,3.35,0,0,0-.92-2.53,3.61,3.61,0,0,0-2.63-.89,4.68,4.68,0,0,0-2.86.95,6.73,6.73,0,0,0-2.05,2.72h-2.5l.84-3.75a26.18,26.18,0,0,1,4.06-1.3,17,17,0,0,1,3.73-.42,7.72,7.72,0,0,1,3.29.64A4.67,4.67,0,0,1,587.56,30a4.5,4.5,0,0,1,.71,2.47,8,8,0,0,1-.31,2.32,8.29,8.29,0,0,1-1,2.08,20.75,20.75,0,0,1-2.5,3c-1,1-2.67,2.58-5,4.67a51.1,51.1,0,0,0-6.73,6.93Z"/><path d="M599.7,63.06a8.76,8.76,0,0,1-4.47-1,5.74,5.74,0,0,1-2.47-2.9,12.89,12.89,0,0,1-.76-4.77,32.42,32.42,0,0,1,.34-4.49c.32-2.11.76-4.46,1.35-7.06s1.17-4.73,1.74-6.44a23.67,23.67,0,0,1,2.13-4.76,11.29,11.29,0,0,1,2.5-2.92,9.46,9.46,0,0,1,3.09-1.6,15.54,15.54,0,0,1,4.55-.58l-.34,1.6a8.63,8.63,0,0,0-2.82.39,5.89,5.89,0,0,0-2,1.17,9.45,9.45,0,0,0-1.92,2.52,28,28,0,0,0-2.06,5.06q-.86,2.7-1.71,6.58c-.46,2.12-.84,4-1.12,5.72a37.55,37.55,0,0,0-.58,5.9,9.48,9.48,0,0,0,.55,3.6,3.52,3.52,0,0,0,1.59,1.84,5.9,5.9,0,0,0,2.72.54Z"/><path d="M615.69,51.44a6.37,6.37,0,0,0,1.12-.08,2.35,2.35,0,0,0,.65-.22,2.48,2.48,0,0,0,.52-.44,4.08,4.08,0,0,0,.5-.69c.14-.26.34-.64.57-1.15h1.8l-1.43,5.7H604.21l.2-.93a28.75,28.75,0,0,1,2.94-4.26,57,57,0,0,1,4.91-5.2q2.6-2.47,3.59-3.51a26.84,26.84,0,0,0,2.69-3.11,9.71,9.71,0,0,0,1.32-2.44,7,7,0,0,0,.39-2.3,3.35,3.35,0,0,0-.92-2.53,3.6,3.6,0,0,0-2.63-.89,4.68,4.68,0,0,0-2.86.95,6.71,6.71,0,0,0-2,2.72h-2.51l.84-3.75a26.18,26.18,0,0,1,4.06-1.3,17,17,0,0,1,3.73-.42,7.72,7.72,0,0,1,3.29.64,4.69,4.69,0,0,1,2.1,1.75,4.57,4.57,0,0,1,.7,2.47,8,8,0,0,1-.31,2.32,8,8,0,0,1-1,2.08,20.75,20.75,0,0,1-2.5,3c-1,1-2.67,2.58-5,4.67a51.73,51.73,0,0,0-6.73,6.93Z"/><path d="M630.43,50a12.41,12.41,0,0,1-.13,1.68,12.54,12.54,0,0,1-.42,1.88,8.24,8.24,0,0,1-1.61,3,13.77,13.77,0,0,1-1.58,1.57A23.63,23.63,0,0,1,624.13,60l-.89-1.21a15.85,15.85,0,0,0,1.44-1.33,6.08,6.08,0,0,0,.85-1.11,8.15,8.15,0,0,0,.59-1.32,22.14,22.14,0,0,0,.57-2.16,24.18,24.18,0,0,0,.46-2.85Z"/><path d="M644.59,51.44a6.16,6.16,0,0,0,1.11-.08,2.14,2.14,0,0,0,.65-.22,2.52,2.52,0,0,0,.53-.44,4,4,0,0,0,.49-.69c.15-.26.34-.64.57-1.15h1.81l-1.44,5.7h-15.2l.19-.93a28.75,28.75,0,0,1,2.94-4.26,58.8,58.8,0,0,1,4.92-5.2q2.6-2.47,3.58-3.51a27.07,27.07,0,0,0,2.7-3.11,9.71,9.71,0,0,0,1.32-2.44,7,7,0,0,0,.39-2.3,3.32,3.32,0,0,0-.93-2.53,3.59,3.59,0,0,0-2.62-.89,4.66,4.66,0,0,0-2.86.95,6.73,6.73,0,0,0-2,2.72h-2.5l.83-3.75a26.27,26.27,0,0,1,4.07-1.3,16.93,16.93,0,0,1,3.73-.42,7.76,7.76,0,0,1,3.29.64A4.67,4.67,0,0,1,652.2,30a4.58,4.58,0,0,1,.71,2.47,8.4,8.4,0,0,1-.31,2.32,8.29,8.29,0,0,1-1,2.08,22.17,22.17,0,0,1-2.5,3c-1,1-2.67,2.58-5,4.67a52.38,52.38,0,0,0-6.73,6.93Z"/><path d="M672.65,36.85q-3.76,4-7.87,8l1.8,4.27c.48,1.15.86,2,1.14,2.53a6,6,0,0,0,.78,1.18,2.44,2.44,0,0,0,.7.52,4,4,0,0,0,1.1.27l-.21,1h-4.83l-2.69-7.85c-.31.28-.73.66-1.24,1.14s-1,1-1.48,1.57a9.46,9.46,0,0,0-1,1.34,3.59,3.59,0,0,0-.38.87,3.87,3.87,0,0,0-.08.77,1.12,1.12,0,0,0,.28.8,1.79,1.79,0,0,0,1,.41l-.21,1h-5.53l-.37-1q4.25-4.59,8.36-8.46L660,40.79c-.38-.88-.68-1.56-.92-2a5.6,5.6,0,0,0-.66-1.07,2.3,2.3,0,0,0-.74-.59,3.58,3.58,0,0,0-1.19-.26l.21-1h4.83l2.58,7.37c.63-.59,1.23-1.2,1.8-1.82a11.7,11.7,0,0,0,1.2-1.49,4.41,4.41,0,0,0,.49-1,3,3,0,0,0,.13-.9c0-.72-.41-1.13-1.24-1.23l.22-1h5.52Z"/><path d="M684,48.92a11.87,11.87,0,0,0-.35,2.28,1.55,1.55,0,0,0,.4,1.17,2.75,2.75,0,0,0,1.35.54,22.39,22.39,0,0,0,2.92.23L688,54.56H674.3l.29-1.42a24.28,24.28,0,0,0,2.5-.22,5.7,5.7,0,0,0,1.41-.37,2.73,2.73,0,0,0,.86-.56,3.28,3.28,0,0,0,.58-.88,8.5,8.5,0,0,0,.49-1.64l3.1-14.16c.12-.55.2-1,.26-1.31a4.72,4.72,0,0,0,.09-.8.94.94,0,0,0-1-1.08,4,4,0,0,0-1.53.5c-.69.33-1.71.9-3.07,1.71l-.75-1.56,9.83-5.18h1.34l-.56,2.29q-.31,1.25-.66,2.91Z"/><path d="M701.29,54.88a6.4,6.4,0,0,1-3.08-.69,4.54,4.54,0,0,1-2-2.24,10.16,10.16,0,0,1-.71-4.12,29,29,0,0,1,.47-5,33.33,33.33,0,0,1,1.27-5,24.12,24.12,0,0,1,1.93-4.29,15.15,15.15,0,0,1,2.47-3.25,10.26,10.26,0,0,1,2.88-2,7.63,7.63,0,0,1,3.16-.69,6.39,6.39,0,0,1,2.71.51,4.7,4.7,0,0,1,1.78,1.41,5.77,5.77,0,0,1,1,2.17,11.94,11.94,0,0,1,.3,2.77,31,31,0,0,1-1.23,8.5,25,25,0,0,1-3.13,7.14,11.6,11.6,0,0,1-3.78,3.69A7.92,7.92,0,0,1,701.29,54.88Zm-2.42-5.82a8.93,8.93,0,0,0,.27,2.47,2.4,2.4,0,0,0,.83,1.29,2.73,2.73,0,0,0,1.56.4,4,4,0,0,0,2.82-1.39,14.08,14.08,0,0,0,2.58-4.14,41.27,41.27,0,0,0,2.2-7,33.82,33.82,0,0,0,1-7.42,5.81,5.81,0,0,0-.61-3,2.16,2.16,0,0,0-2-.95,3.49,3.49,0,0,0-1.67.43A6.12,6.12,0,0,0,704,31.42a16.57,16.57,0,0,0-2.13,3.87,37.66,37.66,0,0,0-1.57,4.86c-.34,1.33-.63,2.63-.86,3.91A26.8,26.8,0,0,0,698.87,49.06Z"/><path d="M738.08,25.54l.53-2.66a20.4,20.4,0,0,1,2.75-.8,13.41,13.41,0,0,1,2.69-.27,6.64,6.64,0,0,1,2.2.35,3.61,3.61,0,0,1,1.6,1.11,3,3,0,0,1,.61,1.92A3.84,3.84,0,0,1,748,27a4.41,4.41,0,0,1-1.44,1.54,11.47,11.47,0,0,1-2.51,1.29V30a4.48,4.48,0,0,1,2.29,1.33,3.26,3.26,0,0,1,.78,2.19,4.87,4.87,0,0,1-.44,2,4.42,4.42,0,0,1-1.32,1.67,6.06,6.06,0,0,1-2.16,1.06,10.28,10.28,0,0,1-2.89.37,15.67,15.67,0,0,1-2.7-.25,14.86,14.86,0,0,1-2.46-.59l.62-2.87h1.75a2.48,2.48,0,0,0,.82,1.73,3.32,3.32,0,0,0,2.15.59,3.86,3.86,0,0,0,2.91-1.05,4.05,4.05,0,0,0,1-3,2,2,0,0,0-.9-1.77,4.8,4.8,0,0,0-2.69-.62h-1.57l.3-1.44a11.6,11.6,0,0,0,2.6-.39,6.9,6.9,0,0,0,1.8-.77,4.13,4.13,0,0,0,1.07-1,3.08,3.08,0,0,0,.52-1,3.87,3.87,0,0,0,.13-1,1.81,1.81,0,0,0-.59-1.44,2.55,2.55,0,0,0-1.71-.51,3.5,3.5,0,0,0-2.06.57A4.35,4.35,0,0,0,740,25.54Z"/><path d="M752.2,26.54a8.82,8.82,0,0,1,4.46,1,5.73,5.73,0,0,1,2.47,2.9,12.89,12.89,0,0,1,.77,4.78,31.07,31.07,0,0,1-.35,4.39q-.46,3.4-1.44,7.56c-.6,2.57-1.19,4.66-1.74,6.29A22.29,22.29,0,0,1,754.3,58a10.64,10.64,0,0,1-2.48,2.88,9.05,9.05,0,0,1-3.09,1.58,15.54,15.54,0,0,1-4.54.59l.35-1.6a8.46,8.46,0,0,0,2.8-.39,6,6,0,0,0,1.95-1.15,9.72,9.72,0,0,0,2-2.6,28.29,28.29,0,0,0,2-5c.64-2.05,1.25-4.43,1.82-7.12.45-2.08.81-3.93,1.06-5.55a36.22,36.22,0,0,0,.53-5.49,9.48,9.48,0,0,0-.56-3.61,3.52,3.52,0,0,0-1.6-1.83,5.92,5.92,0,0,0-2.71-.53Z"/><path d="M785,60.61a8.79,8.79,0,0,1-4.46-1,5.71,5.71,0,0,1-2.48-2.9,12.91,12.91,0,0,1-.76-4.78,31.15,31.15,0,0,1,.35-4.49q.46-3.16,1.34-7T780.69,34a23.67,23.67,0,0,1,2.13-4.76,11.29,11.29,0,0,1,2.5-2.92,9.28,9.28,0,0,1,3.09-1.6,15.51,15.51,0,0,1,4.55-.59l-.34,1.6a8.63,8.63,0,0,0-2.82.39,6.08,6.08,0,0,0-2,1.18,9.13,9.13,0,0,0-1.92,2.52,28.24,28.24,0,0,0-2.06,5.05q-.86,2.7-1.71,6.59c-.46,2.12-.84,4-1.12,5.72a37.55,37.55,0,0,0-.58,5.9,9.42,9.42,0,0,0,.55,3.59,3.55,3.55,0,0,0,1.59,1.85,5.91,5.91,0,0,0,2.72.53Z"/><path d="M797.81,37.09a11.21,11.21,0,0,1,3.86-.64,7.14,7.14,0,0,1,3.4.76,5.27,5.27,0,0,1,2.19,2.17,7,7,0,0,1,.75,3.3,11.4,11.4,0,0,1-1.15,5,7.68,7.68,0,0,1-3.39,3.59A11.59,11.59,0,0,1,798,52.42a18.53,18.53,0,0,1-3.58-.37A17,17,0,0,1,791,51l.89-4.15h2.23q.12,3.87,4,3.87a5.37,5.37,0,0,0,3.47-1.09,6.69,6.69,0,0,0,2.08-3,10.88,10.88,0,0,0,.7-3.77,4.8,4.8,0,0,0-1-3.34,3.89,3.89,0,0,0-3-1.15,12.39,12.39,0,0,0-1.69.1,11.26,11.26,0,0,0-1.82.41l-1.65-1.25,2.69-12.25h9.68a3.13,3.13,0,0,0,1-.11A1.14,1.14,0,0,0,809,25a3.11,3.11,0,0,0,.45-.82H811l-1.24,4.53H799.66Z"/><path d="M818.83,52.42a6.54,6.54,0,0,1-3.08-.68,4.66,4.66,0,0,1-2-2.25,10.11,10.11,0,0,1-.7-4.12,28.94,28.94,0,0,1,.46-4.95,33,33,0,0,1,1.27-5,24.22,24.22,0,0,1,1.93-4.3,15.15,15.15,0,0,1,2.47-3.25,10,10,0,0,1,2.88-2,7.64,7.64,0,0,1,3.17-.69,6.54,6.54,0,0,1,2.7.5,4.64,4.64,0,0,1,1.78,1.42,5.77,5.77,0,0,1,1,2.17A11.91,11.91,0,0,1,831,32a31,31,0,0,1-1.23,8.51,24.93,24.93,0,0,1-3.13,7.14,11.6,11.6,0,0,1-3.78,3.69A7.88,7.88,0,0,1,818.83,52.42Zm-2.42-5.82a8.83,8.83,0,0,0,.27,2.47,2.32,2.32,0,0,0,.84,1.29,2.6,2.6,0,0,0,1.55.4,4,4,0,0,0,2.82-1.38,14,14,0,0,0,2.58-4.15,39.85,39.85,0,0,0,2.2-7,33.75,33.75,0,0,0,1-7.42,5.84,5.84,0,0,0-.61-3,2.15,2.15,0,0,0-1.95-.94,3.49,3.49,0,0,0-1.67.43A6.12,6.12,0,0,0,821.51,29a16.48,16.48,0,0,0-2.13,3.86,40,40,0,0,0-1.57,4.87c-.34,1.32-.62,2.63-.86,3.9A26.88,26.88,0,0,0,816.41,46.6Z"/><path d="M839.82,52.42a6.59,6.59,0,0,1-3.09-.68,4.6,4.6,0,0,1-2-2.25,9.93,9.93,0,0,1-.71-4.12,28.94,28.94,0,0,1,.46-4.95,34.24,34.24,0,0,1,1.27-5,24.22,24.22,0,0,1,1.93-4.3,15.18,15.18,0,0,1,2.48-3.25,10,10,0,0,1,2.88-2,7.6,7.6,0,0,1,3.16-.69,6.54,6.54,0,0,1,2.7.5,4.75,4.75,0,0,1,1.79,1.42,5.93,5.93,0,0,1,1,2.17A11.91,11.91,0,0,1,852,32a30.69,30.69,0,0,1-1.24,8.51,24.93,24.93,0,0,1-3.13,7.14,11.6,11.6,0,0,1-3.78,3.69A7.87,7.87,0,0,1,839.82,52.42Zm-2.43-5.82a8.83,8.83,0,0,0,.27,2.47,2.38,2.38,0,0,0,.84,1.29,2.6,2.6,0,0,0,1.55.4,4,4,0,0,0,2.82-1.38,14,14,0,0,0,2.58-4.15,39.85,39.85,0,0,0,2.2-7,33.75,33.75,0,0,0,1-7.42,5.74,5.74,0,0,0-.61-3,2.15,2.15,0,0,0-1.95-.94,3.52,3.52,0,0,0-1.67.43A6.12,6.12,0,0,0,842.49,29a16.48,16.48,0,0,0-2.13,3.86,40,40,0,0,0-1.57,4.87c-.34,1.32-.62,2.63-.85,3.9A26.14,26.14,0,0,0,837.39,46.6Z"/><path d="M857.56,24.08a8.72,8.72,0,0,1,4.46,1A5.76,5.76,0,0,1,864.5,28a12.89,12.89,0,0,1,.76,4.77,29.78,29.78,0,0,1-.35,4.4q-.46,3.39-1.43,7.56-.91,3.84-1.75,6.29a23.4,23.4,0,0,1-2.06,4.56,11,11,0,0,1-2.49,2.88A9.23,9.23,0,0,1,854.09,60a15.54,15.54,0,0,1-4.54.59L849.9,59a8.46,8.46,0,0,0,2.8-.39,5.81,5.81,0,0,0,1.95-1.15,9.56,9.56,0,0,0,2-2.6,26.94,26.94,0,0,0,2-5q1-3.08,1.81-7.11.68-3.14,1.07-5.55a36,36,0,0,0,.52-5.49,9.44,9.44,0,0,0-.56-3.61,3.54,3.54,0,0,0-1.6-1.84,6,6,0,0,0-2.71-.53Z"/><path d="M1035.48,15.66a13.36,13.36,0,0,1,3.63-3.38,7.88,7.88,0,0,1,4.07-1.07,4.64,4.64,0,0,1,3.43,1.24,4.64,4.64,0,0,1,1.22,3.4,15.9,15.9,0,0,1-.42,3.33l-1.75,8c-.15.66-.24,1.17-.29,1.53a6.79,6.79,0,0,0-.07.92,1.69,1.69,0,0,0,.47,1.36,3.34,3.34,0,0,0,1.66.51l-.26,1.42h-8.85L1041.26,20c.16-.67.28-1.23.36-1.66s.13-.8.17-1.11,0-.6,0-.86a2.28,2.28,0,0,0-.4-1.47,1.39,1.39,0,0,0-1.18-.51,2.72,2.72,0,0,0-1.47.55,9.09,9.09,0,0,0-1.8,1.62,10,10,0,0,0-1.57,2.29,12.25,12.25,0,0,0-1,3l-2.35,11H1026L1029,19.4q.21-.86.3-1.38c.06-.34.09-.63.12-.88s0-.46,0-.66a2.64,2.64,0,0,0-.39-1.62,1.41,1.41,0,0,0-1.21-.51,3.9,3.9,0,0,0-2.4,1.31,11.84,11.84,0,0,0-2.18,2.68,11.6,11.6,0,0,0-1.2,3.51l-2.35,11h-6.12L1017,17.7c.07-.34.17-.83.29-1.47a8.94,8.94,0,0,0,.18-1.6,1.41,1.41,0,0,0-.5-1.24,3.38,3.38,0,0,0-1.57-.41l.32-1.42,5.86-.24h2.24L1022.6,16l.25.09a21.15,21.15,0,0,1,2.74-2.89,8.34,8.34,0,0,1,2.49-1.49,7.78,7.78,0,0,1,2.75-.46,4.64,4.64,0,0,1,3.36,1.19A4.48,4.48,0,0,1,1035.48,15.66Z"/><path d="M1015.84,76.84a5.88,5.88,0,0,0,.63,2.48,2.86,2.86,0,0,0,1.29,1.29,4.17,4.17,0,0,0,1.79.36,3.76,3.76,0,0,0,2.6-.83,3,3,0,0,0,.92-2.33,3.54,3.54,0,0,0-.3-1.53,3.93,3.93,0,0,0-1-1.21,19.42,19.42,0,0,0-2.22-1.54,10.07,10.07,0,0,1-3.1-2.67,5.29,5.29,0,0,1-1-3.11,5.63,5.63,0,0,1,2.34-4.85,11.09,11.09,0,0,1,6.57-1.7,24.87,24.87,0,0,1,3.53.27,25.48,25.48,0,0,1,3.45.72l-1.11,5.13h-2.71a5.27,5.27,0,0,0-1-2.94,3,3,0,0,0-2.36-.94,3.36,3.36,0,0,0-2.29.74,2.49,2.49,0,0,0-.87,2,2.83,2.83,0,0,0,.33,1.39,4.57,4.57,0,0,0,1.06,1.21,19.19,19.19,0,0,0,2.15,1.46,10.21,10.21,0,0,1,3.25,2.79,5.86,5.86,0,0,1,1,3.37,6.08,6.08,0,0,1-1.16,3.74,6.91,6.91,0,0,1-3.18,2.3,13.17,13.17,0,0,1-4.6.75,29.73,29.73,0,0,1-4.25-.28,28.65,28.65,0,0,1-3.69-.75l1.2-5.33Z"/><line x1="1008.9" y1="45.08" x2="1045.99" y2="45.08" style="fill:none;stroke:#000;stroke-miterlimit:10;stroke-width:2px"/><path d="M924.38,53.88a6.4,6.4,0,0,1-3.08-.68,4.57,4.57,0,0,1-2-2.25,10.1,10.1,0,0,1-.71-4.12,29,29,0,0,1,.47-4.95,33,33,0,0,1,1.27-5,23.12,23.12,0,0,1,1.93-4.29,15.23,15.23,0,0,1,2.47-3.26,10.22,10.22,0,0,1,2.88-2,7.63,7.63,0,0,1,3.16-.69,6.42,6.42,0,0,1,2.71.51,4.7,4.7,0,0,1,1.78,1.41,5.77,5.77,0,0,1,1,2.17,11.91,11.91,0,0,1,.3,2.76A31,31,0,0,1,935.33,42a25.21,25.21,0,0,1-3.13,7.14,11.69,11.69,0,0,1-3.78,3.69A7.91,7.91,0,0,1,924.38,53.88ZM922,48.06a8.83,8.83,0,0,0,.27,2.47,2.33,2.33,0,0,0,.83,1.29,2.63,2.63,0,0,0,1.56.4,4,4,0,0,0,2.82-1.38A14.08,14.08,0,0,0,930,46.7a41.27,41.27,0,0,0,2.2-7.05,33.83,33.83,0,0,0,1-7.43,5.66,5.66,0,0,0-.62-3,2.11,2.11,0,0,0-1.94-.95,3.49,3.49,0,0,0-1.67.43,6.12,6.12,0,0,0-1.92,1.74,16.13,16.13,0,0,0-2.14,3.86,41.85,41.85,0,0,0-1.57,4.87c-.33,1.33-.62,2.63-.85,3.9A27,27,0,0,0,922,48.06Z"/><path d="M942.22,49a12.41,12.41,0,0,1-.13,1.68,11.08,11.08,0,0,1-.42,1.87,9.06,9.06,0,0,1-.65,1.59,8.35,8.35,0,0,1-1,1.4,13,13,0,0,1-1.58,1.58A25.07,25.07,0,0,1,935.92,59L935,57.81a15.85,15.85,0,0,0,1.44-1.33,5.66,5.66,0,0,0,.85-1.11,8.15,8.15,0,0,0,.59-1.32,22.14,22.14,0,0,0,.57-2.16A27.31,27.31,0,0,0,939,49Z"/><path d="M956.38,50.45a6.37,6.37,0,0,0,1.12-.08,2.06,2.06,0,0,0,.65-.23,2.17,2.17,0,0,0,.52-.44,3.6,3.6,0,0,0,.49-.68c.15-.26.34-.64.58-1.15h1.8l-1.44,5.7H944.9l.19-.94A29.22,29.22,0,0,1,948,48.38a58.8,58.8,0,0,1,4.92-5.2q2.59-2.48,3.59-3.51a27.86,27.86,0,0,0,2.69-3.11,9.88,9.88,0,0,0,1.32-2.44,7.09,7.09,0,0,0,.39-2.31,3.39,3.39,0,0,0-.92-2.53,3.65,3.65,0,0,0-2.63-.88,4.66,4.66,0,0,0-2.86,1,6.73,6.73,0,0,0-2,2.72H950l.83-3.75a26.61,26.61,0,0,1,4.07-1.3,16.93,16.93,0,0,1,3.73-.42,7.91,7.91,0,0,1,3.29.63A4.75,4.75,0,0,1,964,29a4.56,4.56,0,0,1,.71,2.47,8,8,0,0,1-.31,2.32,8.45,8.45,0,0,1-1,2.08,20.88,20.88,0,0,1-2.5,3q-1.51,1.54-5,4.67a52.94,52.94,0,0,0-6.73,6.94Z"/><path d="M977.36,50.45a6.37,6.37,0,0,0,1.12-.08,2.06,2.06,0,0,0,.65-.23,2,2,0,0,0,.52-.44,3.63,3.63,0,0,0,.5-.68c.14-.26.34-.64.57-1.15h1.8l-1.43,5.7H965.88l.2-.94A29.91,29.91,0,0,1,969,48.38a58.8,58.8,0,0,1,4.92-5.2q2.6-2.48,3.59-3.51a27.86,27.86,0,0,0,2.69-3.11,9.88,9.88,0,0,0,1.32-2.44,7.09,7.09,0,0,0,.39-2.31,3.39,3.39,0,0,0-.92-2.53,3.65,3.65,0,0,0-2.63-.88,4.68,4.68,0,0,0-2.86,1,6.73,6.73,0,0,0-2,2.72H971l.84-3.75a26.18,26.18,0,0,1,4.06-1.3,17,17,0,0,1,3.73-.42,7.88,7.88,0,0,1,3.29.63A4.75,4.75,0,0,1,985,29a4.47,4.47,0,0,1,.71,2.47,8,8,0,0,1-.31,2.32,8.45,8.45,0,0,1-1,2.08,20.22,20.22,0,0,1-2.5,3q-1.51,1.54-5,4.67a51.63,51.63,0,0,0-6.73,6.94Z"/><path d="M231.89,53.74a6.37,6.37,0,0,0,1.12-.08,2.35,2.35,0,0,0,.65-.22,2.76,2.76,0,0,0,.52-.44,3.56,3.56,0,0,0,.49-.69c.15-.26.34-.64.58-1.15h1.8l-1.44,5.7h-15.2l.19-.93a28.75,28.75,0,0,1,2.94-4.26,58.8,58.8,0,0,1,4.92-5.2Q231.06,44,232.05,43a27.86,27.86,0,0,0,2.69-3.11,9.71,9.71,0,0,0,1.32-2.44,7,7,0,0,0,.39-2.3,3.35,3.35,0,0,0-.92-2.53,3.61,3.61,0,0,0-2.63-.89,4.68,4.68,0,0,0-2.86.95,6.73,6.73,0,0,0-2,2.72h-2.5l.84-3.75a26.18,26.18,0,0,1,4.06-1.3,17,17,0,0,1,3.73-.42,7.76,7.76,0,0,1,3.29.64,4.67,4.67,0,0,1,2.09,1.75,4.58,4.58,0,0,1,.71,2.47,8,8,0,0,1-.31,2.32,8.45,8.45,0,0,1-1,2.08,21.44,21.44,0,0,1-2.5,3q-1.52,1.55-5,4.66a51.63,51.63,0,0,0-6.73,6.94Z"/><path d="M257.78,39.15l1.79-1.29,1.24.31-3,13.26c-.18.79-.3,1.39-.37,1.81a7.91,7.91,0,0,0-.1,1,1.4,1.4,0,0,0,.45,1.16,3.35,3.35,0,0,0,1.71.46l-.18,1h-5.54L255,52l-.25-.08a17.41,17.41,0,0,1-3.53,4,5.79,5.79,0,0,1-3.53,1.27,3.84,3.84,0,0,1-3.31-1.62A7.71,7.71,0,0,1,243.24,51a17.27,17.27,0,0,1,.42-3.76A15.85,15.85,0,0,1,245,43.65a13.17,13.17,0,0,1,2.07-3,9.33,9.33,0,0,1,2.78-2.05,7.77,7.77,0,0,1,3.44-.76,9,9,0,0,1,2.29.28A8.47,8.47,0,0,1,257.78,39.15ZM256.07,45a10.84,10.84,0,0,0,.3-2.66,3.22,3.22,0,0,0-.64-2.21,2.78,2.78,0,0,0-2.14-.7,4.47,4.47,0,0,0-1.55.27,4.77,4.77,0,0,0-1.49.88,7.43,7.43,0,0,0-1.45,1.61,12.11,12.11,0,0,0-1.25,2.42,17.72,17.72,0,0,0-.87,3.05,16.78,16.78,0,0,0-.31,3.18,6.51,6.51,0,0,0,.55,3,1.94,1.94,0,0,0,1.85,1,3.24,3.24,0,0,0,1.25-.27,5.11,5.11,0,0,0,1.45-1A15.81,15.81,0,0,0,255,48.83a16.54,16.54,0,0,0,.88-3Z"/><path d="M279.37,34.44c.1-.43.19-.9.27-1.42a10.56,10.56,0,0,0,.11-1.37,1.56,1.56,0,0,0-.21-.89,1.21,1.21,0,0,0-.61-.44,5.79,5.79,0,0,0-1.43-.19l.24-1,4.86-.18h1.15l-5,22.5c-.18.82-.3,1.44-.36,1.84a6,6,0,0,0-.1,1,1.43,1.43,0,0,0,.44,1.16,3.35,3.35,0,0,0,1.71.46l-.17,1h-5.55l1.22-4.9-.25-.08a17.17,17.17,0,0,1-3.53,4,5.77,5.77,0,0,1-3.53,1.27,3.83,3.83,0,0,1-3.3-1.62A7.63,7.63,0,0,1,264.12,51a16.69,16.69,0,0,1,.43-3.76,14.93,14.93,0,0,1,1.29-3.57,12.82,12.82,0,0,1,2.06-3,9.25,9.25,0,0,1,2.79-2.05,7.77,7.77,0,0,1,3.44-.76,9.33,9.33,0,0,1,2.18.24,8.19,8.19,0,0,1,2.05.85ZM277,45a13.42,13.42,0,0,0,.29-2.66,3.17,3.17,0,0,0-.64-2.21,2.77,2.77,0,0,0-2.13-.7,4.43,4.43,0,0,0-1.55.27,4.81,4.81,0,0,0-1.5.88A7.67,7.67,0,0,0,270,42.16a11.61,11.61,0,0,0-1.25,2.42,16.1,16.1,0,0,0-.87,3.05,16.81,16.81,0,0,0-.32,3.18,6.5,6.5,0,0,0,.56,3,1.93,1.93,0,0,0,1.85,1,3.24,3.24,0,0,0,1.25-.27,5.4,5.4,0,0,0,1.45-1,14.52,14.52,0,0,0,1.8-2.16,13.42,13.42,0,0,0,1.44-2.58,16.51,16.51,0,0,0,.89-3Z"/><path d="M454.33,51.22A11.87,11.87,0,0,0,454,53.5a1.55,1.55,0,0,0,.4,1.17,2.67,2.67,0,0,0,1.35.54,22.39,22.39,0,0,0,2.92.23l-.29,1.42H444.67l.29-1.42a24.56,24.56,0,0,0,2.5-.22,5.7,5.7,0,0,0,1.41-.37,2.73,2.73,0,0,0,.86-.56,3.28,3.28,0,0,0,.58-.88,7.93,7.93,0,0,0,.48-1.64l3.11-14.16c.11-.55.2-1,.26-1.31a4.72,4.72,0,0,0,.09-.8.94.94,0,0,0-1-1.08,4,4,0,0,0-1.53.5c-.69.33-1.71.9-3.07,1.71l-.75-1.56,9.83-5.18h1.34l-.57,2.29q-.3,1.24-.66,2.91Z"/><path d="M468.52,52.33a11.12,11.12,0,0,1-.14,1.68,11.41,11.41,0,0,1-.41,1.88,8.24,8.24,0,0,1-1.61,3,13.77,13.77,0,0,1-1.58,1.57,23.63,23.63,0,0,1-2.56,1.86l-.89-1.21a15.85,15.85,0,0,0,1.44-1.33,6,6,0,0,0,.84-1.11,8.14,8.14,0,0,0,.6-1.32,22.14,22.14,0,0,0,.57-2.16,26.45,26.45,0,0,0,.46-2.85Z"/><path d="M479.54,41.84a11.11,11.11,0,0,1,3.85-.64,7.14,7.14,0,0,1,3.4.76A5.12,5.12,0,0,1,489,44.14a6.92,6.92,0,0,1,.76,3.29,11.38,11.38,0,0,1-1.16,5A7.64,7.64,0,0,1,485.19,56a11.53,11.53,0,0,1-5.46,1.19,18.66,18.66,0,0,1-3.58-.38,16.59,16.59,0,0,1-3.42-1l.89-4.14h2.23q.12,3.87,4,3.87a5.42,5.42,0,0,0,3.47-1.1,6.59,6.59,0,0,0,2.07-3,10.61,10.61,0,0,0,.7-3.77,4.81,4.81,0,0,0-1-3.34,3.93,3.93,0,0,0-3-1.15,12.5,12.5,0,0,0-1.69.1,11.49,11.49,0,0,0-1.82.41l-1.65-1.25,2.7-12.25h9.67a3.2,3.2,0,0,0,1-.1,1.35,1.35,0,0,0,.52-.37,3,3,0,0,0,.44-.82h1.57l-1.24,4.54H481.38Z"/><path d="M503.62,38.47a2.78,2.78,0,0,0,1.05-.15,1.77,1.77,0,0,0,.63-.48,4.74,4.74,0,0,0,.61-1h1.49l-1,3.87H495.53l.2-.9A24.85,24.85,0,0,1,501.14,34l1.74-1.46c.83-.71,1.45-1.28,1.87-1.72a7.84,7.84,0,0,0,.95-1.21,4,4,0,0,0,.6-2.13,1.75,1.75,0,0,0-.63-1.42,2.8,2.8,0,0,0-1.8-.51,3.24,3.24,0,0,0-2,.6,4.17,4.17,0,0,0-1.32,1.68h-2l.58-2.66a17.06,17.06,0,0,1,5.53-1.07,6.38,6.38,0,0,1,2,.28,4.12,4.12,0,0,1,1.38.75,2.85,2.85,0,0,1,.8,1,2.75,2.75,0,0,1,.25,1.13,4.58,4.58,0,0,1-.43,2.07,7.48,7.48,0,0,1-1.57,2c-.76.73-2,1.8-3.82,3.19A34.11,34.11,0,0,0,499,38.47Z"/></svg>