<svg id="Capa_1" data-name="Capa 1" xmlns="http://www.w3.org/2000/svg" viewBox="0 0 706.09 192.15"><path d="M141.86,147.61q-6.23,0-6.23-7.87a27.34,27.34,0,0,1,3.64-13.38q3.63-6.58,9.22-6.58,5.85,0,5.85,7.71A28.38,28.38,0,0,1,150.8,141Q147.25,147.62,141.86,147.61Zm-2-13.55a33.12,33.12,0,0,0-1,7.4c0,3,1.13,4.51,3.37,4.51,1.61,0,3.07-1.05,4.4-3.15a29.12,29.12,0,0,0,3.3-8.76Zm.48-1.84h10a38.77,38.77,0,0,0,.76-6.37q0-4.42-3-4.43-2.26,0-4.29,2.81A25.86,25.86,0,0,0,140.36,132.22Z"/><polyline points="108.03 57.2 127.33 76.77 138.19 21.72 298.64 21.72" style="fill:none;stroke:#000;stroke-miterlimit:10;stroke-width:2px"/><path d="M42.55,49.25a5.61,5.61,0,0,1,1.51,1.68A8.94,8.94,0,0,1,45,53.65l.44,2.26c.1.47.2.91.31,1.31a8.75,8.75,0,0,0,.38,1.16,3.48,3.48,0,0,0,.49.89,2.48,2.48,0,0,0,1.24.89,6.31,6.31,0,0,0,1,.22l-.19,1H43.23a30.47,30.47,0,0,1-1.1-4.14l-.85-4.14a10.55,10.55,0,0,0-.52-1.81A3.33,3.33,0,0,0,40,50.12a2,2,0,0,0-1-.53,6.39,6.39,0,0,0-1.34-.12H35.52l-1.36,6.19c-.12.51-.2.91-.25,1.21s-.08.61-.11,1,0,.62,0,.88a2,2,0,0,0,.19.95,1.12,1.12,0,0,0,.59.5,5.22,5.22,0,0,0,1.33.23l-.21,1h-8l.21-1A2.52,2.52,0,0,0,29,60a2,2,0,0,0,.62-.73,6.26,6.26,0,0,0,.46-1.14c.15-.45.36-1.32.65-2.61l3.29-15a15,15,0,0,0,.43-3.08A1.64,1.64,0,0,0,34,36.07a2.49,2.49,0,0,0-1.45-.43l.21-1h8.63a18.14,18.14,0,0,1,3.36.25,7.72,7.72,0,0,1,2.22.73,4.85,4.85,0,0,1,1.54,1.26,5.4,5.4,0,0,1,.93,1.74,6.58,6.58,0,0,1,.31,2.06,7.83,7.83,0,0,1-.57,3.08,7.63,7.63,0,0,1-1.56,2.37,9.37,9.37,0,0,1-2.3,1.71A15.42,15.42,0,0,1,42.55,49Zm-4.38-1.46a12.39,12.39,0,0,0,3.51-.42A5.91,5.91,0,0,0,44,46.09a6.57,6.57,0,0,0,1.53-2.27,7.68,7.68,0,0,0,.6-3A6.77,6.77,0,0,0,46,39.28a3.93,3.93,0,0,0-.41-1.08,2.91,2.91,0,0,0-.64-.76,3.37,3.37,0,0,0-1-.58,5.54,5.54,0,0,0-1.35-.35,15.91,15.91,0,0,0-2.08-.11c-.69,0-1.41,0-2.17.08L35.88,47.79Z"/><line x1="29.32" y1="26.27" x2="50.31" y2="26.27" style="fill:none;stroke:#000;stroke-miterlimit:10;stroke-width:2px"/><polygon points="46.32 29.66 49.71 26.27 46.32 22.88 49.2 22.88 52.59 26.27 49.2 29.66 46.32 29.66"/><path d="M97,42.88H78.1V39.6H97Zm0,8.69H78.1V48.29H97Z"/><path d="M184.67,130.46H165.76v-3.28h18.91Zm0,8.69H165.76v-3.28h18.91Z"/><line x1="59.45" y1="72.22" x2="59.45" y2="26.27" style="fill:none;stroke:#000;stroke-miterlimit:10;stroke-width:2px"/><line x1="20.86" y1="72.22" x2="20.86" y2="26.27" style="fill:none;stroke:#000;stroke-miterlimit:10;stroke-width:2px"/><path d="M292.09,61V52.37h-8.57V48.76h8.57V40.19h3.65v8.57h8.57v3.61h-8.57V61Z"/><path d="M484.25,44.51H465.34V41.23h18.91Zm0,8.69H465.34V49.92h18.91Z"/><path d="M469.82,133.6h-18.9v-3.28h18.9Zm0,8.69h-18.9V139h18.9Z"/><path d="M323.58,117.76V118a5.1,5.1,0,0,1,3.1,5,10.5,10.5,0,0,1-.19,1.78,8.94,8.94,0,0,1-.86,2.57,7.61,7.61,0,0,1-1.94,2.43,9.19,9.19,0,0,1-2.94,1.59,12.28,12.28,0,0,1-3.84.57,10.15,10.15,0,0,1-4-.72,5.44,5.44,0,0,1-3.5-5.27,9.19,9.19,0,0,1,.57-3.14,7.32,7.32,0,0,1,1.88-2.82,11,11,0,0,1,3.37-2.11l0-.25a6.19,6.19,0,0,1-2-2.22,6,6,0,0,1-.63-2.76,9.06,9.06,0,0,1,.15-1.59,7.37,7.37,0,0,1,.76-2.22,7,7,0,0,1,1.83-2.15,8.83,8.83,0,0,1,2.83-1.48,11.32,11.32,0,0,1,3.6-.55,10.18,10.18,0,0,1,4.24.76,5.2,5.2,0,0,1,2.39,2,5.39,5.39,0,0,1,.74,2.83,7.91,7.91,0,0,1-.6,3,7.46,7.46,0,0,1-1.91,2.67A8.69,8.69,0,0,1,323.58,117.76Zm-10.65,8.52a3.92,3.92,0,0,0,1.06,3,4.34,4.34,0,0,0,3.11,1,5.41,5.41,0,0,0,2.77-.67,5.35,5.35,0,0,0,1.87-1.79,8.6,8.6,0,0,0,1.08-2.58,11.16,11.16,0,0,0,.37-2.79,3.4,3.4,0,0,0-3.88-3.83,5.7,5.7,0,0,0-4.81,2.45,8.32,8.32,0,0,0-1.17,2.54A9.8,9.8,0,0,0,312.93,126.28Zm3-13a5.94,5.94,0,0,0,.17,1.42,2.92,2.92,0,0,0,.6,1.19,3,3,0,0,0,1.16.82,5.06,5.06,0,0,0,1.89.3,5.43,5.43,0,0,0,3-.84,6,6,0,0,0,2.11-2.5,8.18,8.18,0,0,0,.8-3.59,3.75,3.75,0,0,0-1-2.82,4,4,0,0,0-2.86-.93,5.48,5.48,0,0,0-3.28,1,5.64,5.64,0,0,0-2,2.64A9.41,9.41,0,0,0,316,113.25Z"/><path d="M336.92,130.65a3,3,0,0,0,1.11-.31,2,2,0,0,0,.63-.62,4.93,4.93,0,0,0,.53-1.2c.17-.53.37-1.36.62-2.5l.54-2.5H330l.36-1.83,14.12-16.88h3.22l-3.68,16.82h.65a4.86,4.86,0,0,0,1.5-.17,1.82,1.82,0,0,0,.79-.56,5.7,5.7,0,0,0,.74-1.4h1.75l-1.11,4h-4.73l-.62,2.82a12.77,12.77,0,0,0-.24,1.5,9.75,9.75,0,0,0-.07,1.08,1.68,1.68,0,0,0,.4,1.27,2.46,2.46,0,0,0,1.5.46l-.21,1h-7.7Zm-3.41-9h7.29l1-4.86c.56-2.55,1.18-5.11,1.87-7.66h-.27l-9.88,12.25Z"/><path d="M372.39,105.89l-15.63,25.86h-2.89l.23-1.1,14.12-22.14.06-.3h-8a4.41,4.41,0,0,0-1.54.22,2.36,2.36,0,0,0-1,.75,8.23,8.23,0,0,0-1,2.1h-1.78l1.57-6.33H372.6Z"/><path d="M376,127.08a12.41,12.41,0,0,1-.13,1.68,11.08,11.08,0,0,1-.42,1.87,9.06,9.06,0,0,1-.65,1.59,8.35,8.35,0,0,1-1,1.4,12.32,12.32,0,0,1-1.58,1.57,23.56,23.56,0,0,1-2.56,1.87l-.89-1.21a15.85,15.85,0,0,0,1.44-1.33,5.66,5.66,0,0,0,.85-1.11,8.15,8.15,0,0,0,.59-1.32,22.14,22.14,0,0,0,.57-2.16,27.31,27.31,0,0,0,.47-2.85Z"/><path d="M384,110.11l.8-3.75a22.88,22.88,0,0,1,4-1.32,17.56,17.56,0,0,1,3.8-.4,9.72,9.72,0,0,1,2.39.29,6,6,0,0,1,2,.9,4.37,4.37,0,0,1,1.34,1.55,4.83,4.83,0,0,1,.49,2.26,7,7,0,0,1-.7,3.19,7.38,7.38,0,0,1-2.26,2.57,18.6,18.6,0,0,1-4.25,2.23l0,.21a6.73,6.73,0,0,1,3.68,2,5.38,5.38,0,0,1,1.28,3.63,8.23,8.23,0,0,1-.7,3.27,7.92,7.92,0,0,1-2,2.79,8.47,8.47,0,0,1-3.12,1.75,14,14,0,0,1-4.32.59,19.62,19.62,0,0,1-3.82-.4,15.29,15.29,0,0,1-3.34-1l.89-4.14h2.23a4.08,4.08,0,0,0,1.19,2.93,4.61,4.61,0,0,0,3.12.93,6.1,6.1,0,0,0,3.32-.86,5.68,5.68,0,0,0,2.14-2.52,8.82,8.82,0,0,0,.76-3.75A3.76,3.76,0,0,0,391.6,120a6.53,6.53,0,0,0-4.05-1h-1.94l.37-1.72a14,14,0,0,0,4.15-.86,8.82,8.82,0,0,0,2.93-1.78,6.4,6.4,0,0,0,2.08-4.73,3.3,3.3,0,0,0-.95-2.5,3.63,3.63,0,0,0-2.6-.89,5,5,0,0,0-3.07.91,7.25,7.25,0,0,0-2,2.76Z"/><path d="M405,110.11l.79-3.75a22.69,22.69,0,0,1,4-1.32,17.43,17.43,0,0,1,3.8-.4,9.64,9.64,0,0,1,2.38.29,6,6,0,0,1,2,.9,4.37,4.37,0,0,1,1.34,1.55,4.83,4.83,0,0,1,.49,2.26,7.09,7.09,0,0,1-.69,3.19,7.48,7.48,0,0,1-2.26,2.57,18.7,18.7,0,0,1-4.26,2.23l0,.21a6.73,6.73,0,0,1,3.68,2,5.33,5.33,0,0,1,1.28,3.63,8.39,8.39,0,0,1-.69,3.27,8.08,8.08,0,0,1-2,2.79,8.47,8.47,0,0,1-3.12,1.75,14,14,0,0,1-4.32.59,19.62,19.62,0,0,1-3.82-.4,15.29,15.29,0,0,1-3.34-1l.9-4.14h2.23a4,4,0,0,0,1.18,2.93,4.61,4.61,0,0,0,3.12.93,6.08,6.08,0,0,0,3.32-.86,5.62,5.62,0,0,0,2.14-2.52,8.82,8.82,0,0,0,.77-3.75,3.76,3.76,0,0,0-1.35-3.16,6.52,6.52,0,0,0-4-1H406.6l.36-1.72a14.18,14.18,0,0,0,4.16-.86,8.76,8.76,0,0,0,2.92-1.78,6.37,6.37,0,0,0,1.6-2.29,6.54,6.54,0,0,0,.48-2.44,3.3,3.3,0,0,0-.95-2.5,3.62,3.62,0,0,0-2.6-.89,4.9,4.9,0,0,0-3.06.91,7.16,7.16,0,0,0-2.06,2.76Z"/><path d="M318.84,170.75a12.62,12.62,0,0,0-.35,2.28,1.52,1.52,0,0,0,.41,1.16,2.58,2.58,0,0,0,1.35.55,22.2,22.2,0,0,0,2.91.23l-.29,1.42H309.18l.29-1.42c1.09-.06,1.92-.13,2.51-.22a5.49,5.49,0,0,0,1.4-.37,2.63,2.63,0,0,0,.86-.57,3.08,3.08,0,0,0,.59-.87,8.76,8.76,0,0,0,.48-1.65l3.1-14.16c.12-.54.21-1,.27-1.3a5.75,5.75,0,0,0,.08-.81,1,1,0,0,0-.29-.83,1.06,1.06,0,0,0-.7-.24,4.14,4.14,0,0,0-1.53.5q-1,.5-3.06,1.71l-.76-1.56,9.83-5.18h1.34L323,151.7q-.31,1.26-.66,2.91Z"/><path d="M350.37,150.67l-15.63,25.86h-2.89l.24-1.09,14.11-22.15.06-.3h-8.05a4.45,4.45,0,0,0-1.54.22,2.41,2.41,0,0,0-1,.75,8.65,8.65,0,0,0-1,2.1H332.8l1.57-6.33h16.22Z"/><path d="M364.34,163.79a10.9,10.9,0,0,1-2.82,1.4,9.29,9.29,0,0,1-2.92.46,6.14,6.14,0,0,1-3.14-.8,5.25,5.25,0,0,1-2.09-2.28,7.64,7.64,0,0,1-.73-3.46,11.86,11.86,0,0,1,.34-2.74,9.52,9.52,0,0,1,1.07-2.68,8.57,8.57,0,0,1,1.87-2.22,8.13,8.13,0,0,1,2.67-1.51,9.92,9.92,0,0,1,3.34-.54,7.07,7.07,0,0,1,3.07.63,6.27,6.27,0,0,1,2.19,1.76,7.75,7.75,0,0,1,1.31,2.67,12,12,0,0,1,.45,3.38,21.3,21.3,0,0,1-.37,3.77,19.25,19.25,0,0,1-.95,3.43,21.19,21.19,0,0,1-1.57,3.29,18,18,0,0,1-4.57,5.11,16.09,16.09,0,0,1-2.8,1.7,16.87,16.87,0,0,1-3.08,1.1,14.78,14.78,0,0,1-3.2.44l-.72-1.07.2-1a14.94,14.94,0,0,0,5.78-1.54,11.9,11.9,0,0,0,4.11-3.53,19.47,19.47,0,0,0,2.75-5.73Zm-4.39-.11a6.71,6.71,0,0,0,2.29-.43,6.45,6.45,0,0,0,1.84-1,3.78,3.78,0,0,0,.92-.92,4.37,4.37,0,0,0,.54-1.62,18.54,18.54,0,0,0,.17-2.77,7.46,7.46,0,0,0-1.06-4.37,3.65,3.65,0,0,0-3.15-1.47,4.27,4.27,0,0,0-2.77,1,6.9,6.9,0,0,0-2,2.91,11.37,11.37,0,0,0-.71,4.11,5.27,5.27,0,0,0,.92,3.43A3.64,3.64,0,0,0,360,163.68Z"/><path d="M375,171.86a12.41,12.41,0,0,1-.13,1.68,11.42,11.42,0,0,1-.42,1.88,10.16,10.16,0,0,1-.65,1.58,9.75,9.75,0,0,1-1,1.4,12.33,12.33,0,0,1-1.58,1.58,25.07,25.07,0,0,1-2.56,1.86l-.89-1.21a15.85,15.85,0,0,0,1.44-1.33,6.08,6.08,0,0,0,.85-1.11,8.15,8.15,0,0,0,.59-1.32,22.14,22.14,0,0,0,.57-2.16,24.87,24.87,0,0,0,.46-2.85Z"/><path d="M383,154.89l.8-3.75a23.47,23.47,0,0,1,4-1.32,17.49,17.49,0,0,1,3.8-.4,9.72,9.72,0,0,1,2.39.29,6.13,6.13,0,0,1,2,.9,4.35,4.35,0,0,1,1.33,1.55,4.86,4.86,0,0,1,.5,2.26,7,7,0,0,1-.7,3.19,7.48,7.48,0,0,1-2.26,2.57,18.49,18.49,0,0,1-4.26,2.23l0,.21a6.72,6.72,0,0,1,3.69,2,5.39,5.39,0,0,1,1.28,3.64,8.22,8.22,0,0,1-.7,3.26,7.82,7.82,0,0,1-2,2.79,8.35,8.35,0,0,1-3.11,1.75,14,14,0,0,1-4.32.59,19.55,19.55,0,0,1-3.82-.4,15.29,15.29,0,0,1-3.34-1l.89-4.14h2.23a4,4,0,0,0,1.19,2.93,4.61,4.61,0,0,0,3.12.93,6.13,6.13,0,0,0,3.31-.85,5.75,5.75,0,0,0,2.15-2.52,8.88,8.88,0,0,0,.76-3.75,3.77,3.77,0,0,0-1.35-3.17,6.48,6.48,0,0,0-4-1.05h-1.94L385,162a14.12,14.12,0,0,0,4.15-.86,8.82,8.82,0,0,0,2.93-1.78,6.47,6.47,0,0,0,1.6-2.28,6.58,6.58,0,0,0,.47-2.45,3.26,3.26,0,0,0-1-2.5,3.66,3.66,0,0,0-2.6-.89,4.9,4.9,0,0,0-3.06.91,7.15,7.15,0,0,0-2.05,2.76Z"/><path d="M414.39,162.54v.26a5.1,5.1,0,0,1,3.1,5,9.57,9.57,0,0,1-.19,1.78,8.84,8.84,0,0,1-.86,2.57,7.48,7.48,0,0,1-1.94,2.43,9.19,9.19,0,0,1-2.94,1.59,12.19,12.19,0,0,1-3.84.57,10.15,10.15,0,0,1-4-.72,5.44,5.44,0,0,1-3.5-5.27,9.19,9.19,0,0,1,.57-3.14,7.4,7.4,0,0,1,1.88-2.82,11.22,11.22,0,0,1,3.37-2.11l0-.25a6.19,6.19,0,0,1-2-2.22,6,6,0,0,1-.63-2.76,8.14,8.14,0,0,1,.16-1.58,6.84,6.84,0,0,1,2.58-4.38A9.09,9.09,0,0,1,409,150a11.21,11.21,0,0,1,3.59-.55,10.15,10.15,0,0,1,4.24.76,5.23,5.23,0,0,1,2.4,2A5.5,5.5,0,0,1,420,155a7.87,7.87,0,0,1-.6,3,7.46,7.46,0,0,1-1.91,2.67A8.69,8.69,0,0,1,414.39,162.54Zm-10.65,8.52a3.92,3.92,0,0,0,1.06,3,4.3,4.3,0,0,0,3.11,1,5.26,5.26,0,0,0,4.65-2.46,8.64,8.64,0,0,0,1.07-2.57,11.3,11.3,0,0,0,.37-2.8,3.4,3.4,0,0,0-3.88-3.83,5.81,5.81,0,0,0-2.81.67,5.74,5.74,0,0,0-2,1.79,8.15,8.15,0,0,0-1.17,2.53A9.8,9.8,0,0,0,403.74,171.06Zm3.05-13a5.94,5.94,0,0,0,.16,1.42,2.86,2.86,0,0,0,.6,1.19,3,3,0,0,0,1.17.82,5,5,0,0,0,1.89.3,5.4,5.4,0,0,0,3-.84,6,6,0,0,0,2.11-2.5,8.18,8.18,0,0,0,.8-3.59,3.76,3.76,0,0,0-1-2.82,4,4,0,0,0-2.86-.93,5.29,5.29,0,0,0-5.26,3.59A9.27,9.27,0,0,0,406.79,158Z"/><path d="M300.11,182.09a6.83,6.83,0,0,1-5.38-2.39,17.06,17.06,0,0,1-3.25-7.27,80.22,80.22,0,0,1-1.68-12.69q-.53-7.8-.53-21.17t.52-21.15a80.12,80.12,0,0,1,1.68-12.83,17.83,17.83,0,0,1,3.25-7.43,6.76,6.76,0,0,1,5.39-2.48v3.83a5,5,0,0,0-2.4.57,5.09,5.09,0,0,0-2,2.52,23.32,23.32,0,0,0-1.51,5.75,109.5,109.5,0,0,0-1,11.4q-.35,7.53-.35,19.45,0,10.52.29,17.88c.2,4.9.52,8.92,1,12a30.92,30.92,0,0,0,1.36,6.12,8,8,0,0,0,1.71,2.9,4,4,0,0,0,3,1.12Z"/><path d="M427.49,94.68a6.82,6.82,0,0,1,5.38,2.39,17,17,0,0,1,3.25,7.26A79.24,79.24,0,0,1,437.81,117q.53,7.82.52,21.18t-.51,21.15a82.49,82.49,0,0,1-1.68,12.83,17.83,17.83,0,0,1-3.26,7.43,6.73,6.73,0,0,1-5.39,2.48v-3.84a4.92,4.92,0,0,0,2.4-.56,5.08,5.08,0,0,0,2-2.52,22.88,22.88,0,0,0,1.51-5.75,106.8,106.8,0,0,0,1-11.4q.35-7.53.35-19.45,0-10.51-.29-17.88a118.85,118.85,0,0,0-1-12,29.82,29.82,0,0,0-1.36-6.13,7.85,7.85,0,0,0-1.7-2.89,4.08,4.08,0,0,0-3-1.13Z"/><path d="M153.5,54.68a11.83,11.83,0,0,0-.35,2.29,1.53,1.53,0,0,0,.4,1.16,2.71,2.71,0,0,0,1.35.54,22.39,22.39,0,0,0,2.92.23l-.29,1.42H143.84l.29-1.42a24.56,24.56,0,0,0,2.5-.22,5.7,5.7,0,0,0,1.41-.37,2.73,2.73,0,0,0,.86-.56,3.28,3.28,0,0,0,.58-.88,8.5,8.5,0,0,0,.49-1.64l3.1-14.16c.12-.55.2-1,.26-1.31a4.62,4.62,0,0,0,.09-.8.94.94,0,0,0-1-1.08,4,4,0,0,0-1.53.5c-.69.33-1.71.9-3.07,1.71l-.75-1.56,9.83-5.18h1.34l-.57,2.29c-.2.83-.42,1.8-.65,2.91Z"/><path d="M185,34.6,169.4,60.46h-2.89l.23-1.09,14.12-22.15.06-.29h-8a4.69,4.69,0,0,0-1.54.21,2.36,2.36,0,0,0-1,.75,8.23,8.23,0,0,0-1,2.1h-1.78L169,33.66h16.21Z"/><path d="M199,47.73a11.29,11.29,0,0,1-2.81,1.39,9.31,9.31,0,0,1-2.93.46,6,6,0,0,1-3.13-.8,5.31,5.31,0,0,1-2.1-2.27A7.85,7.85,0,0,1,187.3,43a11.71,11.71,0,0,1,.34-2.73,9.56,9.56,0,0,1,1.06-2.69,8.77,8.77,0,0,1,1.87-2.22,8.53,8.53,0,0,1,2.67-1.51,10,10,0,0,1,3.35-.54,6.89,6.89,0,0,1,3.06.64,6.07,6.07,0,0,1,2.19,1.75,8,8,0,0,1,1.32,2.67,12.07,12.07,0,0,1,.45,3.38,22.28,22.28,0,0,1-.37,3.77,20.23,20.23,0,0,1-1,3.44,22,22,0,0,1-1.57,3.28,18.2,18.2,0,0,1-2.1,2.83,17.1,17.1,0,0,1-2.48,2.28,15.42,15.42,0,0,1-2.79,1.7,16.49,16.49,0,0,1-3.09,1.1,15.33,15.33,0,0,1-3.2.45l-.71-1.08.19-1a15.12,15.12,0,0,0,5.79-1.55,11.77,11.77,0,0,0,4.1-3.53,19.4,19.4,0,0,0,2.75-5.72Zm-4.38-.12a6.52,6.52,0,0,0,2.29-.43,6.59,6.59,0,0,0,1.84-1,3.69,3.69,0,0,0,.91-.91,4.14,4.14,0,0,0,.54-1.62,17.25,17.25,0,0,0,.18-2.78,7.42,7.42,0,0,0-1.07-4.36A3.62,3.62,0,0,0,196.16,35a4.27,4.27,0,0,0-2.77,1,6.84,6.84,0,0,0-2,2.91,11.32,11.32,0,0,0-.72,4.1,5.38,5.38,0,0,0,.92,3.44A3.69,3.69,0,0,0,194.61,47.61Z"/><path d="M209.66,55.79a12.6,12.6,0,0,1-.14,1.68,11.42,11.42,0,0,1-.42,1.88,8.25,8.25,0,0,1-.65,1.58,9,9,0,0,1-.95,1.41,14,14,0,0,1-1.59,1.57,22.35,22.35,0,0,1-2.56,1.86l-.89-1.21a16.18,16.18,0,0,0,1.45-1.33,6,6,0,0,0,.84-1.11,7.37,7.37,0,0,0,.59-1.32,17.54,17.54,0,0,0,.57-2.16,24.2,24.2,0,0,0,.47-2.85Z"/><path d="M217.67,38.82l.79-3.75a23.55,23.55,0,0,1,4-1.32,18.06,18.06,0,0,1,3.8-.4,9.64,9.64,0,0,1,2.38.29,6,6,0,0,1,2,.9A4.41,4.41,0,0,1,232,36.1a4.79,4.79,0,0,1,.49,2.25,7.17,7.17,0,0,1-.69,3.2,7.46,7.46,0,0,1-2.26,2.56,18.11,18.11,0,0,1-4.26,2.23l0,.22a6.67,6.67,0,0,1,3.68,2,5.33,5.33,0,0,1,1.28,3.63,8.34,8.34,0,0,1-.69,3.26,8,8,0,0,1-2,2.79A8.51,8.51,0,0,1,224.4,60a14,14,0,0,1-4.33.6,20.43,20.43,0,0,1-3.82-.4,15.82,15.82,0,0,1-3.34-1l.9-4.14H216A4.06,4.06,0,0,0,217.22,58a4.62,4.62,0,0,0,3.12.94,6.17,6.17,0,0,0,3.32-.86,5.73,5.73,0,0,0,2.14-2.52,8.88,8.88,0,0,0,.77-3.75,3.78,3.78,0,0,0-1.35-3.17,6.52,6.52,0,0,0-4-1h-1.94l.37-1.72a13.87,13.87,0,0,0,4.15-.86,8.76,8.76,0,0,0,2.92-1.78,6.26,6.26,0,0,0,1.6-2.28,6.58,6.58,0,0,0,.48-2.44,3.29,3.29,0,0,0-.95-2.5,3.62,3.62,0,0,0-2.6-.9,4.84,4.84,0,0,0-3.06.92,7.12,7.12,0,0,0-2.06,2.75Z"/><path d="M249,46.48v.25a5.1,5.1,0,0,1,3.11,5,9.67,9.67,0,0,1-.2,1.78,9,9,0,0,1-.85,2.58,7.83,7.83,0,0,1-1.94,2.42,8.87,8.87,0,0,1-2.95,1.59,12.19,12.19,0,0,1-3.84.58,10,10,0,0,1-4-.73,5.44,5.44,0,0,1-3.5-5.27,9.09,9.09,0,0,1,.57-3.13,7.43,7.43,0,0,1,1.88-2.83,11,11,0,0,1,3.36-2.11l0-.25a6.25,6.25,0,0,1-2-2.22,6,6,0,0,1-.63-2.76,9,9,0,0,1,.15-1.58,7.25,7.25,0,0,1,.76-2.23,7.14,7.14,0,0,1,1.83-2.15,9,9,0,0,1,2.83-1.48,11.32,11.32,0,0,1,3.6-.55,10.34,10.34,0,0,1,4.24.76,5.16,5.16,0,0,1,2.39,2,5.46,5.46,0,0,1,.74,2.83,7.86,7.86,0,0,1-.6,3,7.46,7.46,0,0,1-1.91,2.67A9,9,0,0,1,249,46.48ZM238.4,55a4,4,0,0,0,1,3,4.34,4.34,0,0,0,3.12,1,5.44,5.44,0,0,0,2.77-.68,5.32,5.32,0,0,0,1.87-1.78,9.1,9.1,0,0,0,1.08-2.58,11.79,11.79,0,0,0,.37-2.8,3.4,3.4,0,0,0-3.88-3.82A5.87,5.87,0,0,0,242,48a5.62,5.62,0,0,0-2,1.79,8.46,8.46,0,0,0-1.18,2.54A10.1,10.1,0,0,0,238.4,55Zm3-13a5.92,5.92,0,0,0,.17,1.41,2.86,2.86,0,0,0,.6,1.19,2.94,2.94,0,0,0,1.16.82,4.85,4.85,0,0,0,1.89.31,5.43,5.43,0,0,0,3-.84,6.1,6.1,0,0,0,2.1-2.5,8.12,8.12,0,0,0,.81-3.6,3.76,3.76,0,0,0-1-2.82,4,4,0,0,0-2.86-.93,5.31,5.31,0,0,0-5.27,3.6A9.41,9.41,0,0,0,241.44,42Z"/><path d="M265.74,41.93a2.78,2.78,0,0,0,1.05-.15,1.77,1.77,0,0,0,.63-.48,4.87,4.87,0,0,0,.61-1h1.49l-1,3.86H257.65l.2-.9a24.85,24.85,0,0,1,5.41-5.78L265,36a24.48,24.48,0,0,0,1.87-1.72,7.84,7.84,0,0,0,.95-1.21,4.16,4.16,0,0,0,.46-1.06,4.07,4.07,0,0,0,.14-1.07,1.75,1.75,0,0,0-.63-1.42A2.8,2.8,0,0,0,266,29a3.24,3.24,0,0,0-2,.6,4.31,4.31,0,0,0-1.32,1.68h-2l.58-2.65a16.83,16.83,0,0,1,5.53-1.08,6.68,6.68,0,0,1,2,.28,4.12,4.12,0,0,1,1.38.75,2.85,2.85,0,0,1,.8,1,2.75,2.75,0,0,1,.25,1.13,4.65,4.65,0,0,1-.43,2.08,7.62,7.62,0,0,1-1.57,2c-.76.73-2,1.8-3.82,3.19a34.11,34.11,0,0,0-4.32,4Z"/><path d="M337.36,48.08v.25a5.1,5.1,0,0,1,3.1,5,9.57,9.57,0,0,1-.19,1.78,9,9,0,0,1-.85,2.58,7.83,7.83,0,0,1-1.94,2.42,9.16,9.16,0,0,1-3,1.59,12.19,12.19,0,0,1-3.84.58,10.18,10.18,0,0,1-4-.73,5.47,5.47,0,0,1-3.5-5.27,9.21,9.21,0,0,1,.58-3.14,7.48,7.48,0,0,1,1.88-2.82A11,11,0,0,1,329,48.17l0-.25a6.28,6.28,0,0,1-2-2.22,6,6,0,0,1-.63-2.76,9,9,0,0,1,.16-1.58,6.92,6.92,0,0,1,.76-2.23A7.14,7.14,0,0,1,329.17,37,8.93,8.93,0,0,1,332,35.5a11.27,11.27,0,0,1,3.6-.55,10.1,10.1,0,0,1,4.23.76,5.18,5.18,0,0,1,2.4,2,5.52,5.52,0,0,1,.74,2.84,7.86,7.86,0,0,1-.6,3,7.49,7.49,0,0,1-1.92,2.67A8.86,8.86,0,0,1,337.36,48.08Zm-10.65,8.51a4,4,0,0,0,1.06,3,4.32,4.32,0,0,0,3.11,1,5.45,5.45,0,0,0,2.78-.68,5.35,5.35,0,0,0,1.87-1.79,8.92,8.92,0,0,0,1.08-2.57,11.76,11.76,0,0,0,.36-2.8,3.9,3.9,0,0,0-1-2.86,4,4,0,0,0-2.92-1,5.87,5.87,0,0,0-2.82.66,5.62,5.62,0,0,0-2,1.79,8.46,8.46,0,0,0-1.18,2.54A10.07,10.07,0,0,0,326.71,56.59Zm3.05-13a5.94,5.94,0,0,0,.16,1.42,2.89,2.89,0,0,0,1.77,2,5,5,0,0,0,1.89.3,5.43,5.43,0,0,0,3-.84,6,6,0,0,0,2.1-2.5,8,8,0,0,0,.81-3.59,3.8,3.8,0,0,0-1-2.82,4,4,0,0,0-2.87-.93,5.32,5.32,0,0,0-5.26,3.59A9.49,9.49,0,0,0,329.76,43.56Z"/><path d="M350.7,61a3,3,0,0,0,1.12-.32,2,2,0,0,0,.63-.62,4.79,4.79,0,0,0,.52-1.2c.17-.53.38-1.36.62-2.49l.55-2.5H343.82l.37-1.84,14.12-16.87h3.22l-3.69,16.81h.66a4.85,4.85,0,0,0,1.49-.16,1.8,1.8,0,0,0,.8-.57,6.07,6.07,0,0,0,.74-1.4h1.74l-1.1,4h-4.74l-.62,2.81q-.17.84-.24,1.5c0,.45-.07.8-.07,1.08a1.71,1.71,0,0,0,.41,1.28,2.56,2.56,0,0,0,1.49.46l-.21,1h-7.7Zm-3.41-9h7.29l1.05-4.86q.84-3.82,1.86-7.66h-.27l-9.87,12.25Z"/><path d="M386.17,36.2,370.54,62.06h-2.89l.24-1.09L382,38.82l.06-.3H374a4.7,4.7,0,0,0-1.54.22,2.41,2.41,0,0,0-1,.75,8.65,8.65,0,0,0-1,2.1H368.6l1.57-6.33h16.22Z"/><path d="M389.55,57.39l-1,4.53h-3.69l1-4.53Z"/><path d="M397.83,40.42l.79-3.75a23.55,23.55,0,0,1,4-1.32,17.43,17.43,0,0,1,3.8-.4,9.64,9.64,0,0,1,2.38.29,6,6,0,0,1,2,.9,4.36,4.36,0,0,1,1.34,1.55,4.86,4.86,0,0,1,.5,2.26,7.1,7.1,0,0,1-.7,3.19,7.48,7.48,0,0,1-2.26,2.57,18.11,18.11,0,0,1-4.26,2.23l0,.21a6.82,6.82,0,0,1,3.69,2.05,5.39,5.39,0,0,1,1.28,3.64,8.36,8.36,0,0,1-.7,3.26,8,8,0,0,1-2,2.79,8.43,8.43,0,0,1-3.11,1.75,14,14,0,0,1-4.33.6,20.43,20.43,0,0,1-3.82-.4,15.71,15.71,0,0,1-3.33-1l.89-4.14h2.23a4.06,4.06,0,0,0,1.18,2.93,4.62,4.62,0,0,0,3.12.94,6.17,6.17,0,0,0,3.32-.86A5.73,5.73,0,0,0,406,57.2a8.88,8.88,0,0,0,.77-3.75,3.78,3.78,0,0,0-1.35-3.17,6.5,6.5,0,0,0-4-1.05H399.4l.37-1.72a14.12,14.12,0,0,0,4.15-.86,8.82,8.82,0,0,0,2.93-1.78,6.47,6.47,0,0,0,1.6-2.28,6.78,6.78,0,0,0,.47-2.44,3.27,3.27,0,0,0-.95-2.5,3.62,3.62,0,0,0-2.6-.9,4.84,4.84,0,0,0-3.06.92,7.22,7.22,0,0,0-2.06,2.75Z"/><path d="M418.81,40.42l.8-3.75a23.47,23.47,0,0,1,4-1.32,17.49,17.49,0,0,1,3.8-.4,9.72,9.72,0,0,1,2.39.29,6.13,6.13,0,0,1,2,.9,4.43,4.43,0,0,1,1.33,1.55,4.86,4.86,0,0,1,.5,2.26,7,7,0,0,1-.7,3.19,7.48,7.48,0,0,1-2.26,2.57,18.11,18.11,0,0,1-4.26,2.23l0,.21A6.79,6.79,0,0,1,430,50.2a5.39,5.39,0,0,1,1.28,3.64,8.18,8.18,0,0,1-.7,3.26,7.82,7.82,0,0,1-2,2.79,8.35,8.35,0,0,1-3.11,1.75,14,14,0,0,1-4.32.6,20.35,20.35,0,0,1-3.82-.4,15.82,15.82,0,0,1-3.34-1l.89-4.14h2.23a4,4,0,0,0,1.19,2.93,4.62,4.62,0,0,0,3.12.94,6.13,6.13,0,0,0,3.31-.86A5.75,5.75,0,0,0,427,57.2a8.88,8.88,0,0,0,.76-3.75,3.78,3.78,0,0,0-1.35-3.17,6.48,6.48,0,0,0-4-1.05h-1.94l.37-1.72a14.12,14.12,0,0,0,4.15-.86,8.82,8.82,0,0,0,2.93-1.78,6.47,6.47,0,0,0,1.6-2.28,6.57,6.57,0,0,0,.47-2.44,3.23,3.23,0,0,0-.95-2.5,3.62,3.62,0,0,0-2.6-.9,4.84,4.84,0,0,0-3.06.92,7.11,7.11,0,0,0-2.05,2.75Z"/><path d="M445.9,43.52a2.81,2.81,0,0,0,1.05-.14,1.77,1.77,0,0,0,.63-.48,4.74,4.74,0,0,0,.61-1h1.49l-1,3.87H437.82l.19-.9a25.07,25.07,0,0,1,5.41-5.78l1.75-1.46c.82-.71,1.44-1.28,1.86-1.72a7.84,7.84,0,0,0,1-1.21,4,4,0,0,0,.6-2.13,1.75,1.75,0,0,0-.63-1.42,2.79,2.79,0,0,0-1.79-.51,3.27,3.27,0,0,0-2,.6,4.25,4.25,0,0,0-1.32,1.68h-2l.58-2.66A17.11,17.11,0,0,1,447,29.15a6.29,6.29,0,0,1,2,.28,4.12,4.12,0,0,1,1.38.75,2.77,2.77,0,0,1,1.05,2.15A4.58,4.58,0,0,1,451,34.4a7.28,7.28,0,0,1-1.57,2c-.76.73-2,1.8-3.82,3.19a34.94,34.94,0,0,0-4.32,3.94Z"/><path d="M209.79,144.87a13.9,13.9,0,0,1-3.14,2.92,6,6,0,0,1-3.3,1,4.05,4.05,0,0,1-3.06-1.05,4.24,4.24,0,0,1-1-3.07,12,12,0,0,1,.35-2.75l2.4-10.14h-2.89l.22-1a5.16,5.16,0,0,0,1.81-.5,3.45,3.45,0,0,0,1.12-1,6.53,6.53,0,0,0,.85-1.55c.26-.64.58-1.57,1-2.79h2.67l-1.06,4.82h6.14l-.42,2h-6.17l-1.86,7.58a22,22,0,0,0-.78,4.73,2.7,2.7,0,0,0,.52,1.8,1.84,1.84,0,0,0,1.5.62,3.28,3.28,0,0,0,1.87-.69,12.19,12.19,0,0,0,2.14-2.1Z"/><path d="M226.58,130.75l1.79-1.29,1.24.31-3,13.26c-.18.78-.3,1.39-.37,1.81a7.67,7.67,0,0,0-.09,1,1.41,1.41,0,0,0,.44,1.17,3.35,3.35,0,0,0,1.71.46l-.18,1h-5.54l1.22-4.9-.25-.08a17.17,17.17,0,0,1-3.53,4,5.77,5.77,0,0,1-3.53,1.27,3.83,3.83,0,0,1-3.31-1.63,7.65,7.65,0,0,1-1.17-4.55,17.27,17.27,0,0,1,.42-3.76,15.85,15.85,0,0,1,1.29-3.57,13.17,13.17,0,0,1,2.07-3,9.33,9.33,0,0,1,2.78-2.05,7.81,7.81,0,0,1,3.44-.76,8.93,8.93,0,0,1,2.29.28A8.2,8.2,0,0,1,226.58,130.75Zm-1.7,5.82c.11-.54.19-1,.23-1.39a12.44,12.44,0,0,0,.06-1.27,3.27,3.27,0,0,0-.64-2.22,2.82,2.82,0,0,0-2.14-.69,4.47,4.47,0,0,0-1.55.27,4.93,4.93,0,0,0-1.49.87,7.5,7.5,0,0,0-1.45,1.62,12.65,12.65,0,0,0-1.25,2.42,17.72,17.72,0,0,0-.87,3,16.78,16.78,0,0,0-.31,3.18,6.59,6.59,0,0,0,.55,3,1.93,1.93,0,0,0,1.85,1,3.29,3.29,0,0,0,1.26-.27,5.45,5.45,0,0,0,1.44-1,15.81,15.81,0,0,0,3.25-4.74,16.54,16.54,0,0,0,.88-3Z"/><path d="M249.58,148.46h-6.11l2.47-9.92c.15-.64.3-1.34.45-2.11a11,11,0,0,0,.23-2.07,3.23,3.23,0,0,0-.48-2,1.78,1.78,0,0,0-1.48-.61,3.23,3.23,0,0,0-1.76.64,9.47,9.47,0,0,0-2,1.89,16.71,16.71,0,0,0-1.73,2.56,11.68,11.68,0,0,0-1.1,3.16l-1.76,8.45H233l3-13.34c.06-.3.15-.74.26-1.33a8.18,8.18,0,0,0,.17-1.46,1.8,1.8,0,0,0-.17-.85,1,1,0,0,0-.56-.45,4.93,4.93,0,0,0-1.35-.2l.23-1,4.41-.18H240l-1.3,5.08.23.08a17.11,17.11,0,0,1,3.67-4,5.91,5.91,0,0,1,3.53-1.3,3.73,3.73,0,0,1,2.85,1,4.4,4.4,0,0,1,1,3.1,9.48,9.48,0,0,1-.13,1.53,14.06,14.06,0,0,1-.28,1.48l-1.63,7a10.38,10.38,0,0,0-.33,2.23,1.78,1.78,0,0,0,.2.91,1.22,1.22,0,0,0,.6.51,5,5,0,0,0,1.34.28Z"/><path d="M273.18,128.54a7.12,7.12,0,0,0-.17,1.29.84.84,0,0,0,.27.68,2,2,0,0,0,1,.36,12.48,12.48,0,0,0,2.09.15l-.28,1.25H266.2l.25-1.25a15.25,15.25,0,0,0,1.92-.15,3.34,3.34,0,0,0,1.07-.31,1.74,1.74,0,0,0,.63-.54,3,3,0,0,0,.4-1.09l1.92-8.77c0-.17.07-.31.09-.44a1.49,1.49,0,0,0,0-.26q0-.3-.15-.39a.76.76,0,0,0-.43-.1,3.39,3.39,0,0,0-1.14.33c-.52.22-1.23.57-2.13,1L268,119l6.86-3.14H276c-.28,1-.55,2.18-.82,3.41Z"/><path d="M517.84,47a5.75,5.75,0,0,1,2.35,2,5.46,5.46,0,0,1,.77,3,8.15,8.15,0,0,1-1.31,4.62,8.24,8.24,0,0,1-3.72,3,14,14,0,0,1-5.63,1.06,12.89,12.89,0,0,1-4.59-.73,6.2,6.2,0,0,1-3-2.14,5.66,5.66,0,0,1-1-3.4,7.82,7.82,0,0,1,1.45-4.73,10.45,10.45,0,0,1,4.39-3.26l0-.26a7.27,7.27,0,0,1-2-2.29,5.81,5.81,0,0,1-.68-2.76,6.8,6.8,0,0,1,1.32-4.23,7.86,7.86,0,0,1,3.64-2.62,14.91,14.91,0,0,1,5.28-.87,12.61,12.61,0,0,1,4.73.77,5.77,5.77,0,0,1,2.71,2.07,5.31,5.31,0,0,1,.84,2.94,7.18,7.18,0,0,1-1.37,4.4,10.79,10.79,0,0,1-4.25,3.14Zm-10.61,8.2a3.52,3.52,0,0,0,.77,2.51,3.12,3.12,0,0,0,2.35.79,4.66,4.66,0,0,0,1.62-.26,4,4,0,0,0,1.31-.85,5.58,5.58,0,0,0,1.12-1.55,8.76,8.76,0,0,0,.77-2.22,12.36,12.36,0,0,0,.28-2.7,3.59,3.59,0,0,0-.74-2.44,2.75,2.75,0,0,0-2.17-.84,4.09,4.09,0,0,0-2.79,1.06,6.91,6.91,0,0,0-1.86,3A10.82,10.82,0,0,0,507.23,55.17Zm3-13a5.43,5.43,0,0,0,.24,1.69,2.31,2.31,0,0,0,.87,1.19,2.83,2.83,0,0,0,1.72.46,4.18,4.18,0,0,0,2.56-.84,5.45,5.45,0,0,0,1.76-2.38,8.86,8.86,0,0,0,.64-3.44,3.55,3.55,0,0,0-.71-2.45,2.69,2.69,0,0,0-2.12-.79,4.3,4.3,0,0,0-2.32.61,4.69,4.69,0,0,0-1.57,1.65,7.54,7.54,0,0,0-.83,2.24A10.78,10.78,0,0,0,510.26,42.14Z"/><path d="M544.58,34.74,544.33,36a12.61,12.61,0,0,0-9,4.61,19.17,19.17,0,0,0-2.84,4.82l.2.08a13.74,13.74,0,0,1,2.74-1,11.22,11.22,0,0,1,2.53-.27,6.34,6.34,0,0,1,3.33.84,5.28,5.28,0,0,1,2.08,2.33,7.66,7.66,0,0,1,.7,3.35,11.06,11.06,0,0,1-1.18,5,8.53,8.53,0,0,1-3.55,3.66,11.65,11.65,0,0,1-5.7,1.31,8.57,8.57,0,0,1-4.28-1,6.33,6.33,0,0,1-2.66-2.91,10.74,10.74,0,0,1-.9-4.59,20.32,20.32,0,0,1,.68-5.09A17.52,17.52,0,0,1,528.72,42a17.8,17.8,0,0,1,3.94-4.34,19.43,19.43,0,0,1,5.25-3,20.14,20.14,0,0,1,6-1.3Zm-6.11,16c0-2.57-.89-3.85-2.69-3.85a5.62,5.62,0,0,0-1.53.19,4.91,4.91,0,0,0-1.34.61,3.21,3.21,0,0,0-.86.78,4.43,4.43,0,0,0-.58,1.13A12.81,12.81,0,0,0,531,51.7a16.55,16.55,0,0,0-.2,2.43,6.16,6.16,0,0,0,.69,3.28,2.44,2.44,0,0,0,2.22,1.08,3.61,3.61,0,0,0,2.47-1,6.4,6.4,0,0,0,1.68-2.83A12.5,12.5,0,0,0,538.47,50.7Z"/><path d="M567.33,34.74,567.08,36a12.61,12.61,0,0,0-9,4.61,18.87,18.87,0,0,0-2.84,4.82l.19.08a13.8,13.8,0,0,1,2.75-1,11.22,11.22,0,0,1,2.53-.27,6.27,6.27,0,0,1,3.32.84,5.31,5.31,0,0,1,2.09,2.33,7.81,7.81,0,0,1,.7,3.35,10.94,10.94,0,0,1-1.19,5,8.47,8.47,0,0,1-3.55,3.66,11.6,11.6,0,0,1-5.7,1.31,8.56,8.56,0,0,1-4.27-1,6.33,6.33,0,0,1-2.66-2.91,10.74,10.74,0,0,1-.9-4.59,19.87,19.87,0,0,1,.68-5.09A17.52,17.52,0,0,1,551.47,42a17.76,17.76,0,0,1,3.93-4.34,19.64,19.64,0,0,1,5.26-3,20.07,20.07,0,0,1,6-1.3Zm-6.11,16q0-3.86-2.69-3.85A5.75,5.75,0,0,0,557,47a5,5,0,0,0-1.33.61,3.06,3.06,0,0,0-.86.78,4.14,4.14,0,0,0-.58,1.13,11.89,11.89,0,0,0-.48,2.14,16.55,16.55,0,0,0-.2,2.43,6.16,6.16,0,0,0,.69,3.28,2.44,2.44,0,0,0,2.22,1.08,3.56,3.56,0,0,0,2.46-1,6.41,6.41,0,0,0,1.69-2.83A12.79,12.79,0,0,0,561.22,50.7Z"/><path d="M575,54.47c0,.83-.08,1.59-.16,2.28a13.21,13.21,0,0,1-.37,2,8.81,8.81,0,0,1-.69,1.77,8.91,8.91,0,0,1-1.34,1.76,20,20,0,0,1-2.06,1.88,30.88,30.88,0,0,1-2.71,1.92l-1.32-1.84A9.57,9.57,0,0,0,568.62,62a9.4,9.4,0,0,0,1.29-3.12,27.27,27.27,0,0,0,.64-4.4Z"/><path d="M591.73,54.27a12.61,12.61,0,0,0-.37,2.4,1.51,1.51,0,0,0,.42,1.16,2.69,2.69,0,0,0,1.39.57,20.29,20.29,0,0,0,2.86.19l-.37,1.77H579.72l.37-1.77a24.92,24.92,0,0,0,3-.28,3.48,3.48,0,0,0,1.43-.54,2.83,2.83,0,0,0,.81-1,11.51,11.51,0,0,0,.65-2.2l2.8-12.75a7.9,7.9,0,0,0,.21-1.58,1.22,1.22,0,0,0-.23-.82.84.84,0,0,0-.64-.26,2.88,2.88,0,0,0-.86.15,6.64,6.64,0,0,0-1.12.5c-.44.23-1.31.71-2.62,1.44l-1-2,11.15-5.84h2.64q-.54,2.07-1.2,5.2Z"/><path d="M614.47,54.27a13.5,13.5,0,0,0-.37,2.4,1.52,1.52,0,0,0,.43,1.16,2.69,2.69,0,0,0,1.39.57,20.29,20.29,0,0,0,2.86.19l-.37,1.77H602.47l.37-1.77a24.71,24.71,0,0,0,3-.28,3.47,3.47,0,0,0,1.44-.54,2.7,2.7,0,0,0,.8-1,10.67,10.67,0,0,0,.66-2.2l2.79-12.75a7.34,7.34,0,0,0,.22-1.58,1.16,1.16,0,0,0-.24-.82.8.8,0,0,0-.63-.26,2.83,2.83,0,0,0-.86.15,6.64,6.64,0,0,0-1.12.5c-.44.23-1.32.71-2.62,1.44l-1-2,11.15-5.84h2.64q-.54,2.07-1.2,5.2Z"/><path d="M637.28,33.7h7.37l3.74,11.06c1,3,1.83,5.66,2.43,8h.25q.55-3.39,1.47-7.48L653.9,39a10.77,10.77,0,0,0,.25-2.29,1.6,1.6,0,0,0-.38-1.2,2.13,2.13,0,0,0-1.23-.5l.27-1.29H660L659.68,35a2.94,2.94,0,0,0-1.25.65,3.33,3.33,0,0,0-.75,1.16,13.65,13.65,0,0,0-.62,2.18l-4.67,21.38H648l-4.65-13.65c-.36-1.07-.69-2.07-1-3s-.63-2.11-1-3.54l-.29,0c-.1.87-.3,2.07-.59,3.6s-.64,3.19-1,5L638,55.09c-.08.34-.13.61-.16.8s-.05.41-.07.64,0,.51,0,.85a1.68,1.68,0,0,0,.37,1.2,2.09,2.09,0,0,0,1.23.49l-.27,1.29H632l.27-1.29a3,3,0,0,0,1.25-.64,3.33,3.33,0,0,0,.75-1.16,14.8,14.8,0,0,0,.62-2.18L638.37,39a11.23,11.23,0,0,0,.25-2.29,1.64,1.64,0,0,0-.38-1.2A2.13,2.13,0,0,0,637,35Z"/><path d="M500.81,123.13l-15.46,25.43h-4.09l.29-1.35,13.38-19.86.06-.29h-7.78a5.21,5.21,0,0,0-1.65.2,2.18,2.18,0,0,0-1,.74,8.07,8.07,0,0,0-1,1.95h-2.33l2-8.11H501.1Z"/><path d="M517.1,135.1a5.87,5.87,0,0,1,2.34,2,5.4,5.4,0,0,1,.78,3,8,8,0,0,1-5,7.68,14,14,0,0,1-5.64,1.05,13.07,13.07,0,0,1-4.58-.72,6.15,6.15,0,0,1-3-2.14,5.61,5.61,0,0,1-1-3.41,7.72,7.72,0,0,1,1.45-4.72,10.39,10.39,0,0,1,4.39-3.26l0-.26a7.14,7.14,0,0,1-2-2.29,5.88,5.88,0,0,1-.68-2.77,6.79,6.79,0,0,1,1.32-4.22,7.86,7.86,0,0,1,3.64-2.62,14.91,14.91,0,0,1,5.28-.87,12.56,12.56,0,0,1,4.72.77,5.68,5.68,0,0,1,2.72,2.07,5.31,5.31,0,0,1,.84,2.94,7.08,7.08,0,0,1-1.38,4.39,10.67,10.67,0,0,1-4.24,3.15Zm-10.61,8.21a3.52,3.52,0,0,0,.76,2.51,3.18,3.18,0,0,0,2.36.79,4.43,4.43,0,0,0,1.62-.27,4,4,0,0,0,1.31-.85,5.71,5.71,0,0,0,1.11-1.54,9.25,9.25,0,0,0,.78-2.23,12.2,12.2,0,0,0,.28-2.69,3.55,3.55,0,0,0-.75-2.44,2.72,2.72,0,0,0-2.16-.84,4.07,4.07,0,0,0-2.79,1.06,6.91,6.91,0,0,0-1.86,3A10.77,10.77,0,0,0,506.49,143.31Zm3-13a5.14,5.14,0,0,0,.25,1.69,2.35,2.35,0,0,0,.87,1.19,2.82,2.82,0,0,0,1.71.46,4.19,4.19,0,0,0,2.57-.84,5.67,5.67,0,0,0,1.76-2.38,8.86,8.86,0,0,0,.64-3.44,3.58,3.58,0,0,0-.71-2.45,2.69,2.69,0,0,0-2.12-.79,4.27,4.27,0,0,0-2.32.61,4.61,4.61,0,0,0-1.57,1.65,7.54,7.54,0,0,0-.83,2.24A10.12,10.12,0,0,0,509.51,130.28Z"/><path d="M528.79,142.6c0,.84-.08,1.6-.16,2.29a13.21,13.21,0,0,1-.37,2,8.81,8.81,0,0,1-.69,1.77,9.21,9.21,0,0,1-1.34,1.76,20,20,0,0,1-2.06,1.88,29,29,0,0,1-2.71,1.91l-1.32-1.83a9.76,9.76,0,0,0,2.24-2.26,9.4,9.4,0,0,0,1.29-3.12,27.24,27.24,0,0,0,.64-4.41Z"/><path d="M540.29,148.81a6.16,6.16,0,0,1-5-2.08c-1.16-1.38-1.74-3.42-1.74-6.1a28.16,28.16,0,0,1,.72-5.88,25.46,25.46,0,0,1,1.94-5.82,15.51,15.51,0,0,1,2.82-4.14,10.86,10.86,0,0,1,3.5-2.45,10.11,10.11,0,0,1,4-.81,7.15,7.15,0,0,1,4,1,5.59,5.59,0,0,1,2.2,2.82,12.61,12.61,0,0,1,.67,4.4,27.4,27.4,0,0,1-.48,4.73,32.58,32.58,0,0,1-1.21,4.76,19.38,19.38,0,0,1-1.79,3.85,13.17,13.17,0,0,1-2.53,3.07,10.67,10.67,0,0,1-3.23,2A10.46,10.46,0,0,1,540.29,148.81Zm-1.65-5.09a3.86,3.86,0,0,0,.49,2.22,1.8,1.8,0,0,0,1.59.69,2.41,2.41,0,0,0,1.45-.55,8.42,8.42,0,0,0,2.25-3.16A43,43,0,0,0,547,135a36.16,36.16,0,0,0,1.18-7.88,8,8,0,0,0-.17-1.87,2.18,2.18,0,0,0-.62-1.13,1.74,1.74,0,0,0-1.24-.41,2.62,2.62,0,0,0-1.79.82,13.09,13.09,0,0,0-2.81,5,53.53,53.53,0,0,0-2.17,8.26A33.29,33.29,0,0,0,538.64,143.72Z"/><path d="M555.38,147.29l1-4.77h3.14a4.52,4.52,0,0,0,1,3,3.35,3.35,0,0,0,2.64,1.06,4.38,4.38,0,0,0,2.87-1,6.19,6.19,0,0,0,1.8-2.72,10.09,10.09,0,0,0,.62-3.33,4.18,4.18,0,0,0-.91-2.93,3.55,3.55,0,0,0-2.76-1,10,10,0,0,0-1.83.16,11.28,11.28,0,0,0-1.83.48l-1.63-1.23,2.87-13.24h10.22a3.29,3.29,0,0,0,1-.11,1.35,1.35,0,0,0,.56-.32,4.33,4.33,0,0,0,.64-.86h2l-1.71,6.23H564.43l-1.55,7a14.59,14.59,0,0,1,4.58-.66,8.3,8.3,0,0,1,3.53.7,5.29,5.29,0,0,1,2.34,2.06,6.26,6.26,0,0,1,.82,3.26,11.16,11.16,0,0,1-.17,2,10.77,10.77,0,0,1-.8,2.48,8.22,8.22,0,0,1-1.5,2.2,8.06,8.06,0,0,1-2.11,1.57,10.52,10.52,0,0,1-3,1.06,17.38,17.38,0,0,1-3.46.32,21.88,21.88,0,0,1-4.15-.42A14.85,14.85,0,0,1,555.38,147.29Z"/><path d="M586.77,133.6a6.07,6.07,0,0,1-3.12-.78,5.29,5.29,0,0,1-2.06-2.16,6.55,6.55,0,0,1-.73-3.14,6.25,6.25,0,0,1,.76-3.1,5.49,5.49,0,0,1,2.17-2.13,6.5,6.5,0,0,1,3.18-.76,6.31,6.31,0,0,1,3.13.76,5.24,5.24,0,0,1,2.11,2.14,6.42,6.42,0,0,1,.75,3.11,6.22,6.22,0,0,1-.8,3.15,5.63,5.63,0,0,1-2.23,2.15A6.51,6.51,0,0,1,586.77,133.6Zm.12-9.55a3.45,3.45,0,0,0-1.74.43,3,3,0,0,0-1.19,1.24,3.9,3.9,0,0,0-.42,1.82,4,4,0,0,0,.42,1.85,3.05,3.05,0,0,0,1.19,1.25,3.7,3.7,0,0,0,3.52,0,3.07,3.07,0,0,0,1.2-1.25,4,4,0,0,0,.41-1.84,3.91,3.91,0,0,0-.41-1.8,3,3,0,0,0-1.2-1.24A3.46,3.46,0,0,0,586.89,124.05Z"/><path d="M261.39,127.29h-7.84l.59-2.8H262Z"/><line x1="300.11" y1="140.82" x2="430.3" y2="140.82" style="fill:none;stroke:#000;stroke-miterlimit:10;stroke-width:2px"/></svg>