<svg id="Capa_1" data-name="Capa 1" xmlns="http://www.w3.org/2000/svg" viewBox="0 0 854.81 135.83"><path d="M164.26,57l2-1.42,1.36.34-3.26,14.59c-.2.86-.33,1.52-.41,2a7.87,7.87,0,0,0-.1,1.15,1.53,1.53,0,0,0,.49,1.27,3.5,3.5,0,0,0,1.88.51l-.2,1.05h-6.1L161.23,71,161,71a19,19,0,0,1-3.88,4.41,6.32,6.32,0,0,1-3.88,1.39A4.22,4.22,0,0,1,149.55,75a8.42,8.42,0,0,1-1.29-5,18.26,18.26,0,0,1,.47-4.14,16.74,16.74,0,0,1,1.41-3.93,14.73,14.73,0,0,1,2.28-3.28,10.11,10.11,0,0,1,3.06-2.25,8.58,8.58,0,0,1,3.78-.84,9.83,9.83,0,0,1,2.52.31A9.22,9.22,0,0,1,164.26,57Zm-1.88,6.4a12.64,12.64,0,0,0,.25-1.53,12.07,12.07,0,0,0,.07-1.39A3.52,3.52,0,0,0,162,58a3,3,0,0,0-2.34-.76,4.88,4.88,0,0,0-1.71.29,5.51,5.51,0,0,0-1.64,1,8.16,8.16,0,0,0-1.59,1.77,13.27,13.27,0,0,0-1.38,2.67,19,19,0,0,0-1,3.36,19.35,19.35,0,0,0-.34,3.49,7.19,7.19,0,0,0,.61,3.34,2.14,2.14,0,0,0,2,1.11,3.5,3.5,0,0,0,1.37-.3,5.64,5.64,0,0,0,1.59-1.11,14.81,14.81,0,0,0,2-2.37,16.36,16.36,0,0,0,1.59-2.85,18.09,18.09,0,0,0,1-3.32Z"/><path d="M269.81,57l2-1.42,1.37.34-3.27,14.59c-.2.86-.33,1.52-.4,2a8.09,8.09,0,0,0-.11,1.15,1.53,1.53,0,0,0,.49,1.27,3.54,3.54,0,0,0,1.88.51l-.19,1.05h-6.1L266.78,71,266.5,71a18.77,18.77,0,0,1-3.88,4.41,6.3,6.3,0,0,1-3.88,1.39A4.22,4.22,0,0,1,255.1,75a8.42,8.42,0,0,1-1.29-5,18.84,18.84,0,0,1,.47-4.14,16.33,16.33,0,0,1,1.42-3.93A14.38,14.38,0,0,1,258,58.62,10.11,10.11,0,0,1,261,56.37a8.59,8.59,0,0,1,3.79-.84,9.75,9.75,0,0,1,2.51.31A9.22,9.22,0,0,1,269.81,57Zm-1.88,6.4a15.32,15.32,0,0,0,.26-1.53c0-.43.06-.89.06-1.39a3.52,3.52,0,0,0-.7-2.44,3.07,3.07,0,0,0-2.35-.76,4.88,4.88,0,0,0-1.71.29,5.64,5.64,0,0,0-1.64,1,8.71,8.71,0,0,0-1.59,1.77,13.27,13.27,0,0,0-1.37,2.67,17.47,17.47,0,0,0-1,3.36,18.52,18.52,0,0,0-.35,3.49,7.19,7.19,0,0,0,.61,3.34,2.15,2.15,0,0,0,2,1.11,3.58,3.58,0,0,0,1.38-.3,5.93,5.93,0,0,0,1.59-1.11,15.38,15.38,0,0,0,2-2.37,15.15,15.15,0,0,0,1.59-2.85,18.09,18.09,0,0,0,1-3.32Z"/><path d="M140,71.45l-1.09,5h-4.06l1.09-5Z"/><path d="M36.26,70.18c-.1.43-.18.8-.23,1.1a10.92,10.92,0,0,0-.15,1.1,10.19,10.19,0,0,0-.07,1.15,2,2,0,0,0,.22,1,1.2,1.2,0,0,0,.64.55,5.41,5.41,0,0,0,1.47.26l-.24,1.05H29.14l.23-1.05A3,3,0,0,0,30.59,75a2.3,2.3,0,0,0,.68-.81,7.17,7.17,0,0,0,.51-1.25c.16-.5.39-1.45.71-2.87l3.62-16.54a16.44,16.44,0,0,0,.47-3.4,1.81,1.81,0,0,0-.49-1.46,2.76,2.76,0,0,0-1.6-.47l.24-1H54L52.5,53.7h-2a22.85,22.85,0,0,0-.24-2.39,4.59,4.59,0,0,0-.37-1.3,1.9,1.9,0,0,0-.5-.64,2,2,0,0,0-.69-.29A7.13,7.13,0,0,0,47.46,49H40.89L38.35,60.68h4a4.11,4.11,0,0,0,1.56-.25,3,3,0,0,0,1.15-.94,12.82,12.82,0,0,0,1.32-2.31h1.94l-2.07,9.07H44.37c0-.89,0-1.58-.06-2.09a2.28,2.28,0,0,0-.25-1,1.09,1.09,0,0,0-.58-.42,5.09,5.09,0,0,0-1.35-.12H38Z"/><path d="M345.82,47.76c-.1.43-.18.79-.23,1.1a10.92,10.92,0,0,0-.15,1.1,10.19,10.19,0,0,0-.07,1.15,2,2,0,0,0,.22,1,1.2,1.2,0,0,0,.64.55,5.41,5.41,0,0,0,1.47.26l-.24,1H338.7l.23-1a3,3,0,0,0,1.22-.42,2.3,2.3,0,0,0,.68-.81,7.17,7.17,0,0,0,.51-1.25c.16-.5.39-1.45.7-2.87l3.63-16.54a17.26,17.26,0,0,0,.47-3.4,1.81,1.81,0,0,0-.49-1.46,2.76,2.76,0,0,0-1.6-.47l.24-1h19.24l-1.48,6.59h-2a22.56,22.56,0,0,0-.24-2.39,4.59,4.59,0,0,0-.37-1.3,1.9,1.9,0,0,0-.5-.64,1.94,1.94,0,0,0-.7-.29,6.91,6.91,0,0,0-1.18-.08h-6.57l-2.54,11.68h4a4.15,4.15,0,0,0,1.56-.25,3.09,3.09,0,0,0,1.15-.94,13.47,13.47,0,0,0,1.32-2.31h1.94l-2.07,9.07h-1.87c0-.89,0-1.58-.06-2.09a2.28,2.28,0,0,0-.25-1.05,1.09,1.09,0,0,0-.58-.42,5.09,5.09,0,0,0-1.35-.12h-4.18Z"/><path d="M118.56,60.1v.3c0,.11,0,.21,0,.33a15.59,15.59,0,0,1,3.69-3.91,6.56,6.56,0,0,1,3.8-1.27,4,4,0,0,1,3.08,1.15,4.89,4.89,0,0,1,1.06,3.4,16.06,16.06,0,0,1-.43,3.31L128,71.06a11.63,11.63,0,0,0-.37,2.45,2,2,0,0,0,.22,1,1.37,1.37,0,0,0,.66.56,5.41,5.41,0,0,0,1.47.3l-.19,1.05H123l2.69-10.91c.2-.79.37-1.59.52-2.4a12.2,12.2,0,0,0,.23-2.2,3.49,3.49,0,0,0-.54-2.2,2,2,0,0,0-1.68-.66,3.46,3.46,0,0,0-1.87.69,9.82,9.82,0,0,0-2.16,2.11,16.88,16.88,0,0,0-1.85,2.8A13.23,13.23,0,0,0,117.24,67l-1.94,9.39h-3.69l2.45-10.91c.3-1.33.5-2.32.61-3a9.69,9.69,0,0,0,.16-1.64,3.49,3.49,0,0,0-.54-2.2,2.09,2.09,0,0,0-1.7-.66,3.51,3.51,0,0,0-1.89.7,10.47,10.47,0,0,0-2.19,2.16,16.79,16.79,0,0,0-1.84,2.87,13.79,13.79,0,0,0-1.08,3.34l-1.94,9.3H100l3.24-14.67c.07-.33.17-.82.29-1.46a9.14,9.14,0,0,0,.18-1.61,2,2,0,0,0-.18-.94,1.08,1.08,0,0,0-.62-.49,5.47,5.47,0,0,0-1.48-.23l.26-1.14,4.86-.19h1.19l-1.4,5.56.25.09A17.17,17.17,0,0,1,110.46,57a6.58,6.58,0,0,1,3.92-1.43,4,4,0,0,1,3.11,1.17A4.81,4.81,0,0,1,118.56,60.1Z"/><path d="M345.59,87.67V88a1.82,1.82,0,0,1,0,.32,15.61,15.61,0,0,1,3.7-3.91,6.59,6.59,0,0,1,3.79-1.26,4,4,0,0,1,3.08,1.15,4.83,4.83,0,0,1,1.06,3.4,15.4,15.4,0,0,1-.43,3.31L355,98.63a11.49,11.49,0,0,0-.36,2.45,2.05,2.05,0,0,0,.21,1,1.41,1.41,0,0,0,.66.56,6.32,6.32,0,0,0,1.47.3l-.19,1h-6.69l2.68-10.92c.2-.78.38-1.58.53-2.39a12.12,12.12,0,0,0,.22-2.2,3.6,3.6,0,0,0-.53-2.21,2.08,2.08,0,0,0-1.69-.65,3.52,3.52,0,0,0-1.87.69,10,10,0,0,0-2.16,2.1,17.6,17.6,0,0,0-1.85,2.81,14.05,14.05,0,0,0-1.14,3.38L342.32,104h-3.69l2.45-10.92c.3-1.33.51-2.31.61-3a9.78,9.78,0,0,0,.16-1.64,3.53,3.53,0,0,0-.54-2.21,2.1,2.1,0,0,0-1.7-.65,3.43,3.43,0,0,0-1.89.7,10.2,10.2,0,0,0-2.18,2.16,15.93,15.93,0,0,0-1.85,2.87,13.25,13.25,0,0,0-1.07,3.34l-1.95,9.3H327l3.25-14.68c.07-.32.16-.81.29-1.46a10.08,10.08,0,0,0,.18-1.61,2.1,2.1,0,0,0-.18-.93,1.17,1.17,0,0,0-.62-.5,6.21,6.21,0,0,0-1.49-.22l.26-1.14,4.86-.19h1.2l-1.41,5.56.26.09a17.23,17.23,0,0,1,3.9-4.38,6.57,6.57,0,0,1,3.92-1.42,4,4,0,0,1,3.12,1.17A4.86,4.86,0,0,1,345.59,87.67Z"/><path d="M86.76,58.06H67.86V54.78h18.9Zm0,8.69H67.86V63.47h18.9Z"/><path d="M306.34,63.68H287.43V60.4h18.91Zm0,8.69H287.43V69.09h18.91Z"/><path d="M389.06,63.68h-18.9V60.4h18.9Zm0,8.69h-18.9V69.09h18.9Z"/><path d="M642.34,63.68H623.43V60.4h18.91Zm0,8.69H623.43V69.09h18.91Z"/><line x1="321.64" y1="66.23" x2="358.72" y2="66.23" style="fill:none;stroke:#000;stroke-miterlimit:10;stroke-width:2px"/><path d="M835.52,91.41a3.73,3.73,0,0,0,.67,0,1.19,1.19,0,0,0,.39-.13,1.48,1.48,0,0,0,.32-.27,2.27,2.27,0,0,0,.29-.41,7,7,0,0,0,.35-.69h1.08l-.86,3.42h-9.13l.12-.56a18.09,18.09,0,0,1,1.76-2.55,37,37,0,0,1,3-3.12c1-1,1.76-1.7,2.16-2.11a16.82,16.82,0,0,0,1.61-1.86,5.48,5.48,0,0,0,.79-1.47,4.09,4.09,0,0,0,.24-1.38,2,2,0,0,0-.56-1.52,2.18,2.18,0,0,0-1.57-.53,2.8,2.8,0,0,0-1.72.57,4.07,4.07,0,0,0-1.23,1.63h-1.5l.5-2.25a16.57,16.57,0,0,1,2.44-.78,10.12,10.12,0,0,1,2.24-.25,4.74,4.74,0,0,1,2,.38,2.77,2.77,0,0,1,1.26,1.06,2.71,2.71,0,0,1,.42,1.48,5,5,0,0,1-.18,1.39,5.32,5.32,0,0,1-.58,1.24,13.57,13.57,0,0,1-1.5,1.8c-.61.62-1.61,1.55-3,2.8a31.56,31.56,0,0,0-4,4.16Z"/><path d="M829.87,36.8a13.52,13.52,0,0,1,3.63-3.38,7.87,7.87,0,0,1,4.07-1.06A4.26,4.26,0,0,1,842.22,37a15.49,15.49,0,0,1-.43,3.33l-1.74,8c-.15.65-.24,1.16-.29,1.52a7,7,0,0,0-.08.92,1.66,1.66,0,0,0,.48,1.36,3.21,3.21,0,0,0,1.66.51L841.56,54h-8.85l2.94-12.91c.16-.67.27-1.23.35-1.66s.14-.8.17-1.11a6.92,6.92,0,0,0,.06-.86,2.28,2.28,0,0,0-.4-1.47,1.4,1.4,0,0,0-1.18-.51,2.72,2.72,0,0,0-1.47.55,9.75,9.75,0,0,0-1.81,1.62A10,10,0,0,0,829.81,40a12.25,12.25,0,0,0-1,3L826.5,54h-6.14l3.07-13.47c.14-.57.24-1,.3-1.37s.09-.64.11-.89a5.29,5.29,0,0,0,0-.66,2.64,2.64,0,0,0-.39-1.62,1.41,1.41,0,0,0-1.21-.51,3.9,3.9,0,0,0-2.4,1.31,11.84,11.84,0,0,0-2.18,2.68A11.86,11.86,0,0,0,816.49,43l-2.34,11H808l3.35-15.17c.07-.34.16-.83.28-1.47a8.94,8.94,0,0,0,.18-1.6,1.35,1.35,0,0,0-.5-1.23,3.17,3.17,0,0,0-1.56-.42l.32-1.42,5.86-.24h2.24L817,37.1l.25.09A21.15,21.15,0,0,1,820,34.3a8.55,8.55,0,0,1,2.49-1.49,8,8,0,0,1,2.75-.45,4.64,4.64,0,0,1,3.36,1.18A4.48,4.48,0,0,1,829.87,36.8Z"/><path d="M810.23,98a5.88,5.88,0,0,0,.63,2.48,2.77,2.77,0,0,0,1.29,1.29,4.17,4.17,0,0,0,1.79.36,3.76,3.76,0,0,0,2.6-.83,3,3,0,0,0,.92-2.33,3.54,3.54,0,0,0-.3-1.53,4,4,0,0,0-1-1.21A20.81,20.81,0,0,0,814,94.67a9.94,9.94,0,0,1-3.1-2.67,5.26,5.26,0,0,1-1-3.1A5.64,5.64,0,0,1,812.23,84a11.09,11.09,0,0,1,6.57-1.7,25,25,0,0,1,3.53.27,25.48,25.48,0,0,1,3.45.72l-1.11,5.14H822a5.28,5.28,0,0,0-1-3,3,3,0,0,0-2.36-.94,3.36,3.36,0,0,0-2.29.74,2.49,2.49,0,0,0-.87,2,2.83,2.83,0,0,0,.33,1.39,4.26,4.26,0,0,0,1.06,1.21A17.91,17.91,0,0,0,819,91.39a10,10,0,0,1,3.24,2.79,5.79,5.79,0,0,1,1,3.37,6,6,0,0,1-1.17,3.74,6.83,6.83,0,0,1-3.17,2.3,13.17,13.17,0,0,1-4.6.75,29.73,29.73,0,0,1-4.25-.28,28,28,0,0,1-3.69-.75l1.2-5.33Z"/><line x1="803.29" y1="66.22" x2="840.37" y2="66.22" style="fill:none;stroke:#000;stroke-miterlimit:10;stroke-width:2px"/><line x1="404.36" y1="66.23" x2="615.06" y2="66.23" style="fill:none;stroke:#000;stroke-miterlimit:10;stroke-width:2px"/><path d="M424.79,39.1v.26a5.1,5.1,0,0,1,3.1,5,9.57,9.57,0,0,1-.19,1.78,8.93,8.93,0,0,1-.85,2.57,7.75,7.75,0,0,1-1.94,2.43,9.35,9.35,0,0,1-3,1.59,12.19,12.19,0,0,1-3.84.57,10.19,10.19,0,0,1-4-.72,5.63,5.63,0,0,1-2.59-2.08,5.56,5.56,0,0,1-.91-3.19,9,9,0,0,1,.58-3.14,7.21,7.21,0,0,1,1.88-2.82,10.86,10.86,0,0,1,3.36-2.11l0-.25a6.28,6.28,0,0,1-2-2.22,6,6,0,0,1-.63-2.76,8.24,8.24,0,0,1,.16-1.59,7.09,7.09,0,0,1,.75-2.22A6.92,6.92,0,0,1,416.6,28a8.73,8.73,0,0,1,2.83-1.48A11.23,11.23,0,0,1,423,26a10.13,10.13,0,0,1,4.23.76,5.18,5.18,0,0,1,2.4,2,5.48,5.48,0,0,1,.74,2.83,7.92,7.92,0,0,1-.61,3,7.34,7.34,0,0,1-1.91,2.67A8.69,8.69,0,0,1,424.79,39.1Zm-10.65,8.52a4,4,0,0,0,1.06,3,4.36,4.36,0,0,0,3.11,1A5.23,5.23,0,0,0,423,49.14,8.59,8.59,0,0,0,424,46.56a11.16,11.16,0,0,0,.37-2.79,3.89,3.89,0,0,0-.95-2.86,4,4,0,0,0-2.93-1,5.72,5.72,0,0,0-2.81.67,5.81,5.81,0,0,0-2,1.78,8.82,8.82,0,0,0-1.17,2.54A10.2,10.2,0,0,0,414.14,47.62Zm3.05-13a5.94,5.94,0,0,0,.16,1.42,2.92,2.92,0,0,0,.6,1.19,3,3,0,0,0,1.17.82,5,5,0,0,0,1.89.3,5.37,5.37,0,0,0,3-.84,6,6,0,0,0,2.11-2.5,8,8,0,0,0,.8-3.59,3.75,3.75,0,0,0-1-2.82,4,4,0,0,0-2.86-.93,5.45,5.45,0,0,0-3.27.95,5.51,5.51,0,0,0-2,2.64A9.41,9.41,0,0,0,417.19,34.59Z"/><path d="M435.28,48.42a12.41,12.41,0,0,1-.13,1.68,11.08,11.08,0,0,1-.42,1.87,9.06,9.06,0,0,1-.65,1.59,9.75,9.75,0,0,1-1,1.4,12.32,12.32,0,0,1-1.58,1.57A23.56,23.56,0,0,1,429,58.4l-.89-1.21a15.85,15.85,0,0,0,1.44-1.33,6.08,6.08,0,0,0,.85-1.11,8.15,8.15,0,0,0,.59-1.32,22.14,22.14,0,0,0,.57-2.16,24.87,24.87,0,0,0,.46-2.85Z"/><path d="M446.34,53.26a6.44,6.44,0,0,1-3.09-.68,4.62,4.62,0,0,1-2-2.25,10.11,10.11,0,0,1-.7-4.12,28.94,28.94,0,0,1,.46-5,34.24,34.24,0,0,1,1.27-5,23.8,23.8,0,0,1,1.93-4.29,15.25,15.25,0,0,1,2.48-3.26,9.76,9.76,0,0,1,2.88-2,7.6,7.6,0,0,1,3.16-.69,6.38,6.38,0,0,1,2.7.51,4.63,4.63,0,0,1,1.79,1.41,5.91,5.91,0,0,1,1,2.17,11.91,11.91,0,0,1,.3,2.76,31,31,0,0,1-1.23,8.51,24.93,24.93,0,0,1-3.13,7.14,11.6,11.6,0,0,1-3.78,3.69A7.87,7.87,0,0,1,446.34,53.26Zm-2.43-5.82a8.83,8.83,0,0,0,.27,2.47A2.29,2.29,0,0,0,445,51.2a2.6,2.6,0,0,0,1.55.4,4,4,0,0,0,2.82-1.38A14.08,14.08,0,0,0,452,46.08a40.39,40.39,0,0,0,2.2-7,33.83,33.83,0,0,0,1-7.43,5.67,5.67,0,0,0-.61-3,2.14,2.14,0,0,0-1.95-.95,3.52,3.52,0,0,0-1.67.43A6.12,6.12,0,0,0,449,29.81a16.48,16.48,0,0,0-2.13,3.86,40,40,0,0,0-1.57,4.87c-.34,1.32-.62,2.63-.86,3.9A26.88,26.88,0,0,0,443.91,47.44Z"/><path d="M471.57,26.29l-.22,1a2.62,2.62,0,0,0-1.33.57,1.63,1.63,0,0,0-.49,1.28,10.18,10.18,0,0,0,.64,3.15L471.78,37l4.15-5.29c.19-.25.38-.5.57-.77a9.14,9.14,0,0,0,.5-.78,4.47,4.47,0,0,0,.33-.66,2.44,2.44,0,0,0,.16-.48,2.08,2.08,0,0,0,.05-.41,1.36,1.36,0,0,0-.31-.9,1.48,1.48,0,0,0-1.07-.43l.21-1h7.24l-.21,1a3.28,3.28,0,0,0-1.1.56A9.82,9.82,0,0,0,481.08,29c-.47.52-1.35,1.55-2.63,3.08l-5.78,7L475.5,47c.43,1.2.77,2.11,1,2.72a8.55,8.55,0,0,0,.74,1.43,2.33,2.33,0,0,0,.52.52,3.86,3.86,0,0,0,.91.37l-.19,1h-7.84l.2-1a2.33,2.33,0,0,0,1.36-.61,1.67,1.67,0,0,0,.48-1.24,8.25,8.25,0,0,0-.47-2.56l-2-6-4.42,5.57a16.87,16.87,0,0,0-1.44,2,2.88,2.88,0,0,0-.45,1.36,1.85,1.85,0,0,0,.13.74,1,1,0,0,0,.43.44,2.25,2.25,0,0,0,.82.22l-.21,1h-7.22l.2-1a4.46,4.46,0,0,0,.69-.3,4.35,4.35,0,0,0,.66-.47,11.22,11.22,0,0,0,1-1c.4-.46.86-1,1.38-1.61l7.57-9.06-2.87-8c-.29-.79-.54-1.45-.76-2a7.76,7.76,0,0,0-.65-1.27,2.66,2.66,0,0,0-.67-.7,2.14,2.14,0,0,0-.87-.33l.21-1Z"/><path d="M492.61,47.31a11.76,11.76,0,0,0-.35,2.28,1.51,1.51,0,0,0,.4,1.16,2.66,2.66,0,0,0,1.35.55,22.39,22.39,0,0,0,2.92.23L496.64,53H483l.29-1.42c1.09-.06,1.92-.13,2.5-.22a5.7,5.7,0,0,0,1.41-.37,2.93,2.93,0,0,0,.86-.57,3,3,0,0,0,.58-.88,8.28,8.28,0,0,0,.49-1.64l3.1-14.16c.12-.54.2-1,.26-1.31a4.52,4.52,0,0,0,.09-.8,1.06,1.06,0,0,0-.29-.83,1.08,1.08,0,0,0-.7-.24A4,4,0,0,0,490,31c-.69.33-1.71.9-3.07,1.71l-.75-1.57L496,26h1.34l-.56,2.28q-.32,1.26-.66,2.91Z"/><path d="M509.94,53.26a6.4,6.4,0,0,1-3.08-.68,4.57,4.57,0,0,1-2-2.25,10.11,10.11,0,0,1-.7-4.12,28.94,28.94,0,0,1,.46-5,33,33,0,0,1,1.27-5,23.8,23.8,0,0,1,1.93-4.29,15.23,15.23,0,0,1,2.47-3.26,10,10,0,0,1,2.88-2,7.63,7.63,0,0,1,3.16-.69,6.39,6.39,0,0,1,2.71.51,4.6,4.6,0,0,1,1.78,1.41,5.77,5.77,0,0,1,1,2.17,11.91,11.91,0,0,1,.3,2.76,31,31,0,0,1-1.23,8.51,24.93,24.93,0,0,1-3.13,7.14A11.6,11.6,0,0,1,514,52.17,7.91,7.91,0,0,1,509.94,53.26Zm-2.42-5.82a8.83,8.83,0,0,0,.27,2.47,2.29,2.29,0,0,0,.84,1.29,2.6,2.6,0,0,0,1.55.4A4,4,0,0,0,513,50.22a14.08,14.08,0,0,0,2.58-4.14,40.39,40.39,0,0,0,2.2-7,33.83,33.83,0,0,0,1-7.43,5.77,5.77,0,0,0-.61-3,2.14,2.14,0,0,0-1.95-.95,3.49,3.49,0,0,0-1.67.43,6.12,6.12,0,0,0-1.92,1.74,16.48,16.48,0,0,0-2.13,3.86,38.35,38.35,0,0,0-1.57,4.87c-.34,1.32-.62,2.63-.86,3.9A26.88,26.88,0,0,0,507.52,47.44Z"/><path d="M531.66,35.88a1.92,1.92,0,0,0,1-.3,1.75,1.75,0,0,0,.53-.77,11.3,11.3,0,0,0,.41-1.59l.28-1.23h-7.2l.25-1.3,9.64-10.32h2.37l-2.25,10.14H537a3.6,3.6,0,0,0,1-.1,1.26,1.26,0,0,0,.6-.37,2.81,2.81,0,0,0,.48-.9h1.46L539.71,32h-3.35l-.29,1.41c-.08.35-.14.64-.17.88a5.31,5.31,0,0,0,0,.68.73.73,0,0,0,.34.66,2.67,2.67,0,0,0,1.06.26l-.18.88h-5.6Zm-2.19-5.51v.14h4.71l.63-2.87c.29-1.41.64-2.79,1-4.14h-.19Z"/><path d="M566.13,26.29l-.22,1a3.41,3.41,0,0,0-1,.35,1.84,1.84,0,0,0-.59.59,4.89,4.89,0,0,0-.52,1.22c-.17.55-.4,1.45-.67,2.7L558.52,53h-2.63l-5.67-16.76q-1-3-1.8-6h-.25c-.08.66-.29,1.93-.64,3.8s-.72,3.69-1.11,5.47l-1.7,7.8c-.12.54-.22,1.07-.3,1.58a10.82,10.82,0,0,0-.11,1.46,1.53,1.53,0,0,0,.43,1.24,2.58,2.58,0,0,0,1.47.44L546,53h-6.79l.21-1a2.52,2.52,0,0,0,1.11-.38,2.15,2.15,0,0,0,.62-.73,6.26,6.26,0,0,0,.46-1.14c.14-.45.36-1.32.64-2.61l3.3-15c.13-.56.23-1.09.31-1.6A9.89,9.89,0,0,0,546,29a1.52,1.52,0,0,0-.47-1.28,2.61,2.61,0,0,0-1.43-.42l.21-1h6.19l5.12,15.22q1.1,3.27,1.7,5.54h.21c.11-.79.34-2.11.71-4s.71-3.47,1-4.85l1.36-6.15c.09-.43.18-.94.28-1.52A9.76,9.76,0,0,0,561,29a1.52,1.52,0,0,0-.47-1.28,2.62,2.62,0,0,0-1.44-.42l.22-1Z"/><path d="M662.47,75.87a6.37,6.37,0,0,0,1.12-.08,2.35,2.35,0,0,0,.65-.22,2.48,2.48,0,0,0,.52-.44,3.56,3.56,0,0,0,.49-.69c.15-.26.34-.64.58-1.15h1.8L666.2,79H651l.2-.93a28.63,28.63,0,0,1,2.93-4.26A58.8,58.8,0,0,1,659,68.6q2.6-2.47,3.59-3.51A27.86,27.86,0,0,0,665.32,62a9.71,9.71,0,0,0,1.32-2.44,7,7,0,0,0,.39-2.3,3.35,3.35,0,0,0-.92-2.53,3.61,3.61,0,0,0-2.63-.89,4.63,4.63,0,0,0-2.86,1,6.63,6.63,0,0,0-2,2.71h-2.5l.84-3.75a26.18,26.18,0,0,1,4.06-1.3A17,17,0,0,1,664.7,52a7.72,7.72,0,0,1,3.29.64,4.67,4.67,0,0,1,2.09,1.75,4.5,4.5,0,0,1,.71,2.47,8,8,0,0,1-.31,2.32,8.29,8.29,0,0,1-1,2.08,21.44,21.44,0,0,1-2.5,3c-1,1-2.67,2.58-5,4.67a51.1,51.1,0,0,0-6.73,6.93Z"/><path d="M677.21,74.46a12.41,12.41,0,0,1-.13,1.68,12.54,12.54,0,0,1-.42,1.88,8.24,8.24,0,0,1-1.61,3,13.77,13.77,0,0,1-1.58,1.57,23.63,23.63,0,0,1-2.56,1.86L670,83.23a15.85,15.85,0,0,0,1.44-1.33,6,6,0,0,0,.84-1.11,8.14,8.14,0,0,0,.6-1.32,22.14,22.14,0,0,0,.57-2.16,26.45,26.45,0,0,0,.46-2.85Z"/><path d="M691.37,75.87a6.16,6.16,0,0,0,1.11-.08,2.24,2.24,0,0,0,.65-.22,2.79,2.79,0,0,0,.53-.44,4,4,0,0,0,.49-.69c.15-.26.34-.64.57-1.15h1.81L695.09,79h-15.2l.19-.93A28.75,28.75,0,0,1,683,73.8a58.8,58.8,0,0,1,4.92-5.2q2.59-2.47,3.58-3.51a27.07,27.07,0,0,0,2.7-3.11,9.71,9.71,0,0,0,1.32-2.44,7,7,0,0,0,.38-2.3,3.32,3.32,0,0,0-.92-2.53,3.59,3.59,0,0,0-2.62-.89,4.61,4.61,0,0,0-2.86,1,6.63,6.63,0,0,0-2,2.71H685l.83-3.75a26.27,26.27,0,0,1,4.07-1.3A16.93,16.93,0,0,1,693.6,52a7.68,7.68,0,0,1,3.28.64,4.64,4.64,0,0,1,2.1,1.75,4.58,4.58,0,0,1,.71,2.47,8.4,8.4,0,0,1-.31,2.32,8.29,8.29,0,0,1-1,2.08,22.17,22.17,0,0,1-2.5,3c-1,1-2.67,2.58-5,4.67a52.38,52.38,0,0,0-6.73,6.93Z"/><path d="M719.43,61.28q-3.76,4-7.88,8l1.81,4.27c.48,1.15.86,2,1.14,2.53a6,6,0,0,0,.78,1.18,2.31,2.31,0,0,0,.7.52,4,4,0,0,0,1.1.27l-.21.95H712l-2.7-7.85-1.23,1.14c-.51.49-1,1-1.48,1.57a8.73,8.73,0,0,0-1,1.34,3.59,3.59,0,0,0-.38.87,3.3,3.3,0,0,0-.08.77,1.12,1.12,0,0,0,.28.8,1.72,1.72,0,0,0,1,.41l-.22.95h-5.52l-.37-.95q4.25-4.59,8.36-8.46l-1.85-4.36c-.37-.88-.68-1.56-.91-2a5.12,5.12,0,0,0-.67-1.07,2.26,2.26,0,0,0-.73-.59,3.59,3.59,0,0,0-1.2-.26l.22-1h4.83l2.57,7.37c.64-.59,1.24-1.2,1.81-1.82a11.7,11.7,0,0,0,1.2-1.49,4.41,4.41,0,0,0,.49-1,3,3,0,0,0,.13-.9c0-.72-.41-1.13-1.24-1.23l.21-1H719Z"/><path d="M730.74,73.35a11.87,11.87,0,0,0-.35,2.28,1.55,1.55,0,0,0,.4,1.17,2.67,2.67,0,0,0,1.35.54,22.39,22.39,0,0,0,2.92.23L734.77,79H721.08l.29-1.42a24.56,24.56,0,0,0,2.5-.22,5.7,5.7,0,0,0,1.41-.37,2.73,2.73,0,0,0,.86-.56,3.28,3.28,0,0,0,.58-.88,7.93,7.93,0,0,0,.48-1.64l3.11-14.16c.11-.55.2-1,.26-1.31a4.72,4.72,0,0,0,.09-.8.94.94,0,0,0-1-1.08,4,4,0,0,0-1.53.5c-.69.33-1.71.9-3.07,1.71l-.75-1.56L734.15,52h1.34l-.57,2.29q-.3,1.24-.66,2.91Z"/><path d="M748.07,79.31a6.4,6.4,0,0,1-3.08-.69,4.5,4.5,0,0,1-2-2.24,10.16,10.16,0,0,1-.71-4.12,29,29,0,0,1,.47-5,32.89,32.89,0,0,1,1.27-5A23.22,23.22,0,0,1,746,58a15.15,15.15,0,0,1,2.47-3.25,10.26,10.26,0,0,1,2.88-2,7.6,7.6,0,0,1,3.16-.69,6.42,6.42,0,0,1,2.71.51A4.7,4.7,0,0,1,759,53.94a5.77,5.77,0,0,1,1,2.17,11.94,11.94,0,0,1,.3,2.77,31,31,0,0,1-1.23,8.5,25,25,0,0,1-3.13,7.14,11.79,11.79,0,0,1-3.78,3.69A7.92,7.92,0,0,1,748.07,79.31Zm-2.42-5.82a8.93,8.93,0,0,0,.27,2.47,2.4,2.4,0,0,0,.83,1.29,2.69,2.69,0,0,0,1.55.4,4,4,0,0,0,2.83-1.39,13.88,13.88,0,0,0,2.57-4.14,40.32,40.32,0,0,0,2.21-7.05,33.82,33.82,0,0,0,1-7.42,5.7,5.7,0,0,0-.62-3,2.13,2.13,0,0,0-1.94-1,3.49,3.49,0,0,0-1.67.43,6.12,6.12,0,0,0-1.92,1.74,16.21,16.21,0,0,0-2.14,3.87A41,41,0,0,0,747,64.58c-.33,1.33-.62,2.63-.85,3.91A26.8,26.8,0,0,0,745.65,73.49Z"/><path d="M776.11,50l.53-2.66a20.4,20.4,0,0,1,2.75-.8,13.44,13.44,0,0,1,2.7-.27,6.62,6.62,0,0,1,2.19.35,3.61,3.61,0,0,1,1.6,1.11,3,3,0,0,1,.61,1.92,3.84,3.84,0,0,1-.44,1.78,4.47,4.47,0,0,1-1.43,1.54,11.94,11.94,0,0,1-2.51,1.29v.19a4.44,4.44,0,0,1,2.28,1.33,3.26,3.26,0,0,1,.78,2.19,4.87,4.87,0,0,1-.44,2,4.42,4.42,0,0,1-1.32,1.67,5.9,5.9,0,0,1-2.16,1.06,10.23,10.23,0,0,1-2.89.37,15.76,15.76,0,0,1-2.7-.25,14.86,14.86,0,0,1-2.46-.59l.63-2.87h1.74a2.45,2.45,0,0,0,.83,1.73,3.29,3.29,0,0,0,2.14.59,3.9,3.9,0,0,0,2.92-1.05,4.05,4.05,0,0,0,1-3,2,2,0,0,0-.9-1.77,4.76,4.76,0,0,0-2.68-.62h-1.57l.29-1.44a11.61,11.61,0,0,0,2.61-.39,6.82,6.82,0,0,0,1.79-.77,4.36,4.36,0,0,0,1.08-1,3.25,3.25,0,0,0,.51-1,3.86,3.86,0,0,0,.14-1,1.81,1.81,0,0,0-.6-1.44,2.53,2.53,0,0,0-1.71-.51,3.5,3.5,0,0,0-2.06.57A4.43,4.43,0,0,0,778,50Z"/><path d="M408.27,82.86l.79-3.75a23.55,23.55,0,0,1,4-1.32,17.43,17.43,0,0,1,3.8-.4,9.64,9.64,0,0,1,2.38.29,6,6,0,0,1,2,.9,4.28,4.28,0,0,1,1.34,1.55,4.86,4.86,0,0,1,.5,2.26,7.1,7.1,0,0,1-.7,3.19,7.48,7.48,0,0,1-2.26,2.57,18.49,18.49,0,0,1-4.26,2.23l0,.21a6.8,6.8,0,0,1,3.69,2,5.39,5.39,0,0,1,1.28,3.64,8.4,8.4,0,0,1-.7,3.26,8,8,0,0,1-2,2.79,8.43,8.43,0,0,1-3.11,1.75,14,14,0,0,1-4.33.59,19.62,19.62,0,0,1-3.82-.4,15,15,0,0,1-3.33-1l.89-4.14h2.23a4.06,4.06,0,0,0,1.18,2.93,4.61,4.61,0,0,0,3.12.93,6.08,6.08,0,0,0,3.32-.86,5.65,5.65,0,0,0,2.14-2.51,8.88,8.88,0,0,0,.77-3.75,3.77,3.77,0,0,0-1.35-3.17,6.5,6.5,0,0,0-4-1h-1.94l.37-1.72a14.12,14.12,0,0,0,4.15-.86,8.82,8.82,0,0,0,2.93-1.78,6.47,6.47,0,0,0,1.6-2.28,6.83,6.83,0,0,0,.47-2.45,3.3,3.3,0,0,0-.95-2.5,3.66,3.66,0,0,0-2.6-.89,4.9,4.9,0,0,0-3.06.91,7.26,7.26,0,0,0-2.06,2.76Z"/><path d="M429.15,99.83a12.41,12.41,0,0,1-.13,1.68,11.42,11.42,0,0,1-.42,1.88A9.27,9.27,0,0,1,428,105a8.35,8.35,0,0,1-1,1.4,12.33,12.33,0,0,1-1.58,1.58,25.07,25.07,0,0,1-2.56,1.86L422,108.6a15.85,15.85,0,0,0,1.44-1.33,5.66,5.66,0,0,0,.85-1.11,8.15,8.15,0,0,0,.59-1.32,22.14,22.14,0,0,0,.57-2.16,27.31,27.31,0,0,0,.47-2.85Z"/><path d="M439.45,90.3a13.31,13.31,0,0,1,2.95-1.4,9.83,9.83,0,0,1,3-.46,6.08,6.08,0,0,1,2.95.72,5.17,5.17,0,0,1,2.12,2.17,7.55,7.55,0,0,1,.78,3.58,12.07,12.07,0,0,1-.34,2.82,9.58,9.58,0,0,1-1.07,2.7,8.23,8.23,0,0,1-1.88,2.2,8.79,8.79,0,0,1-2.69,1.5,10.5,10.5,0,0,1-3.48.54,6.91,6.91,0,0,1-3-.63,6,6,0,0,1-2.14-1.76,7.86,7.86,0,0,1-1.28-2.63,12,12,0,0,1-.42-3.26,20.12,20.12,0,0,1,.23-3.1,19.71,19.71,0,0,1,1-3.85,17.28,17.28,0,0,1,2.26-4.25,17.79,17.79,0,0,1,3.54-3.67,19.8,19.8,0,0,1,4.59-2.7,20.63,20.63,0,0,1,5.34-1.43l.71,1.07-.19,1a13.59,13.59,0,0,0-8,3.12,17.1,17.1,0,0,0-5.05,7.68Zm-1.47,7a7,7,0,0,0,1.07,4.25,3.77,3.77,0,0,0,3.19,1.41,4.37,4.37,0,0,0,2.8-1,6.62,6.62,0,0,0,2-2.82,11.28,11.28,0,0,0,.7-4.11q0-4.67-3.82-4.66a6.88,6.88,0,0,0-1.29.12,7.51,7.51,0,0,0-1.28.4,8.13,8.13,0,0,0-1.23.67,6.07,6.07,0,0,0-.93.72,2.69,2.69,0,0,0-.46.63,3.32,3.32,0,0,0-.31.82c-.08.32-.17.9-.28,1.73A13.81,13.81,0,0,0,438,97.35Z"/><path d="M465.44,77.7l-.22,1a2.59,2.59,0,0,0-1.32.57,1.63,1.63,0,0,0-.5,1.28,10.42,10.42,0,0,0,.64,3.15l1.61,4.73,4.15-5.3c.19-.24.39-.5.57-.77s.36-.53.51-.78a4.43,4.43,0,0,0,.33-.65,3.68,3.68,0,0,0,.15-.49,2.08,2.08,0,0,0,.05-.41,1.35,1.35,0,0,0-.31-.9,1.48,1.48,0,0,0-1.07-.43l.22-1h7.23l-.21,1a3.3,3.3,0,0,0-1.1.57A9.63,9.63,0,0,0,475,80.4c-.47.52-1.35,1.55-2.63,3.08l-5.78,7,2.83,7.93c.43,1.19.77,2.1,1,2.71a9.39,9.39,0,0,0,.74,1.43,2.55,2.55,0,0,0,.52.52,3.47,3.47,0,0,0,.91.37l-.19,1h-7.83l.19-1a2.39,2.39,0,0,0,1.37-.61,1.71,1.71,0,0,0,.47-1.24,8.22,8.22,0,0,0-.46-2.56l-2-6-4.42,5.57a16.87,16.87,0,0,0-1.44,2,3,3,0,0,0-.44,1.36,1.87,1.87,0,0,0,.12.74,1,1,0,0,0,.43.44,2.12,2.12,0,0,0,.82.22l-.21,1h-7.21l.19-1a4.46,4.46,0,0,0,.69-.3,3.74,3.74,0,0,0,.66-.47,11.22,11.22,0,0,0,1-1c.4-.46.87-1,1.38-1.6L463.21,91l-2.87-8c-.29-.8-.54-1.46-.76-2a7.76,7.76,0,0,0-.65-1.27,2.66,2.66,0,0,0-.67-.7,2.14,2.14,0,0,0-.87-.33l.21-1Z"/><path d="M486.48,98.72a12.62,12.62,0,0,0-.35,2.28,1.52,1.52,0,0,0,.41,1.16,2.58,2.58,0,0,0,1.34.55,22.55,22.55,0,0,0,2.92.23l-.29,1.42H476.82l.29-1.42c1.09-.06,1.92-.13,2.5-.22a5.58,5.58,0,0,0,1.41-.37,2.63,2.63,0,0,0,.86-.57,2.8,2.8,0,0,0,.58-.88,8.28,8.28,0,0,0,.49-1.64l3.1-14.16c.12-.54.21-1,.26-1.3a4.72,4.72,0,0,0,.09-.81.93.93,0,0,0-1-1.07,4.14,4.14,0,0,0-1.53.5c-.68.33-1.71.9-3.06,1.71l-.76-1.56,9.83-5.18h1.34l-.56,2.28q-.32,1.26-.66,2.91Z"/><path d="M503.82,104.67a6.44,6.44,0,0,1-3.09-.68,4.62,4.62,0,0,1-2-2.25,10.11,10.11,0,0,1-.7-4.12,28.94,28.94,0,0,1,.46-5,34.57,34.57,0,0,1,1.27-5,24.12,24.12,0,0,1,1.93-4.29,15.25,15.25,0,0,1,2.48-3.26,10,10,0,0,1,2.88-2,7.6,7.6,0,0,1,3.16-.69,6.38,6.38,0,0,1,2.7.51,4.73,4.73,0,0,1,1.79,1.41,5.91,5.91,0,0,1,1,2.17,11.39,11.39,0,0,1,.3,2.76,31,31,0,0,1-1.23,8.51,24.93,24.93,0,0,1-3.13,7.14,11.6,11.6,0,0,1-3.78,3.69A7.87,7.87,0,0,1,503.82,104.67Zm-2.43-5.82a8.83,8.83,0,0,0,.27,2.47,2.29,2.29,0,0,0,.84,1.29,2.6,2.6,0,0,0,1.55.4,4,4,0,0,0,2.82-1.38,14.08,14.08,0,0,0,2.58-4.14,40.39,40.39,0,0,0,2.2-7,33.83,33.83,0,0,0,1-7.43,5.67,5.67,0,0,0-.61-3,2.14,2.14,0,0,0-1.95-1,3.52,3.52,0,0,0-1.67.43,6.12,6.12,0,0,0-1.92,1.74,16.48,16.48,0,0,0-2.13,3.86A40,40,0,0,0,502.79,90c-.34,1.33-.62,2.63-.85,3.9A26.23,26.23,0,0,0,501.39,98.85Z"/><path d="M535.37,72.7,524.68,88.37h-2.25l.26-1,9.46-12.95v-.16H526.8a3.4,3.4,0,0,0-1.15.16,1.68,1.68,0,0,0-.68.49,5.73,5.73,0,0,0-.66,1.23h-1.47l1.16-4.2h11.56Z"/><path d="M539.44,93.48h.62a4.25,4.25,0,0,0,1.3-.23,7.27,7.27,0,0,0,1.49-.73A25.15,25.15,0,0,0,545,90.94a11.19,11.19,0,0,0,1.49-1.39,4.26,4.26,0,0,0,.66-1,2.08,2.08,0,0,0,.17-.82c0-.64-.44-1-1.31-1.07l.21-1h6.28l.37,1q-1.61,1.45-3.41,2.87l-4.91,3.85,2.91,7.4a6.69,6.69,0,0,0,.79,1.53,2.61,2.61,0,0,0,1,.79,3.59,3.59,0,0,0,1.36.31l-.21,1h-5.18l-2.83-8a5.37,5.37,0,0,0-.46-1,1.18,1.18,0,0,0-.45-.39,2,2,0,0,0-.82-.12h-1.43l-2,9.57H533.8l5-22.32c.14-.65.24-1.13.3-1.42s.1-.56.13-.81,0-.47,0-.66a1.31,1.31,0,0,0-.5-1.16,3.65,3.65,0,0,0-1.77-.37l.23-1,4.91-.18h1.12Z"/><path d="M554,106a7.58,7.58,0,0,0-.62.89,4.32,4.32,0,0,0-.36.85,4,4,0,0,0-.1,1,2.36,2.36,0,0,0,1,2.14,6,6,0,0,0,3.16.67,6.83,6.83,0,0,0,3.2-.68,6,6,0,0,0,2.17-2.1,15.93,15.93,0,0,0,1.56-3.5,53.1,53.1,0,0,0,1.37-5.56l-.28-.06a16.93,16.93,0,0,1-3.49,3.79,5.68,5.68,0,0,1-3.47,1.19,3.82,3.82,0,0,1-3.28-1.6,7.56,7.56,0,0,1-1.18-4.57,16.69,16.69,0,0,1,.56-4.27,14.82,14.82,0,0,1,1.58-3.81,11.7,11.7,0,0,1,2.27-2.83,9.3,9.3,0,0,1,2.69-1.67,8.2,8.2,0,0,1,2.95-.54,9.14,9.14,0,0,1,2.31.29,8.17,8.17,0,0,1,2.19,1l1.78-1.29,1.24.31-2,9.16c-.15.65-.3,1.39-.45,2.21l-.5,2.56q-.92,4.61-1.46,6.34a14.23,14.23,0,0,1-1.55,3.36,8.27,8.27,0,0,1-2,2.06,8.48,8.48,0,0,1-2.65,1.28,12.38,12.38,0,0,1-3.54.45c-4.88,0-7.33-1.43-7.33-4.29a3.31,3.31,0,0,1,.66-2,8.68,8.68,0,0,1,2.12-1.89Zm5.57-3.69a3.45,3.45,0,0,0,2-.68,9.93,9.93,0,0,0,2.09-2.17,15.72,15.72,0,0,0,1.74-2.83,17.37,17.37,0,0,0,1.06-3.36,16.84,16.84,0,0,0,.43-3.5,3.22,3.22,0,0,0-.64-2.22,2.81,2.81,0,0,0-2.13-.69,4.71,4.71,0,0,0-1.55.26,5.37,5.37,0,0,0-1.5.88,7.93,7.93,0,0,0-1.44,1.61,12,12,0,0,0-1.25,2.43,16.88,16.88,0,0,0-.88,3,17.64,17.64,0,0,0-.31,3.18,6.17,6.17,0,0,0,.59,3A1.93,1.93,0,0,0,559.59,102.35Z"/><path d="M772.07,55.77H763.6l.64-3h8.47Z"/></svg>