<svg id="Capa_1" data-name="Capa 1" xmlns="http://www.w3.org/2000/svg" viewBox="0 0 379.1 90.16"><polyline points="120.22 58.28 139.53 77.85 150.38 22.8 310.84 22.8" style="fill:none;stroke:#000;stroke-miterlimit:10;stroke-width:2px"/><path d="M54.75,50.33A5.71,5.71,0,0,1,56.25,52a8.94,8.94,0,0,1,.92,2.72L57.62,57c.09.47.19.91.3,1.31a10.52,10.52,0,0,0,.39,1.16,3.82,3.82,0,0,0,.48.89,3.22,3.22,0,0,0,.56.55,2.88,2.88,0,0,0,.68.34,6.61,6.61,0,0,0,1,.22l-.19,1H55.43a29,29,0,0,1-1.11-4.14l-.85-4.14A9.71,9.71,0,0,0,53,52.33a3.38,3.38,0,0,0-.71-1.13,2.06,2.06,0,0,0-1-.53,6.5,6.5,0,0,0-1.35-.12H47.71l-1.36,6.19c-.12.51-.2.91-.24,1.21s-.09.61-.12.95-.05.62-.05.88a1.92,1.92,0,0,0,.2.95,1.1,1.1,0,0,0,.58.5,5.23,5.23,0,0,0,1.34.23l-.22,1h-8l.22-1a2.43,2.43,0,0,0,1.1-.38,2,2,0,0,0,.62-.73,6.23,6.23,0,0,0,.47-1.14c.14-.45.35-1.32.64-2.61l3.3-15a15.58,15.58,0,0,0,.42-3.08,1.67,1.67,0,0,0-.44-1.33,2.53,2.53,0,0,0-1.46-.43l.22-1h8.62a19.11,19.11,0,0,1,3.36.24,7.92,7.92,0,0,1,2.22.74A4.74,4.74,0,0,1,60.7,38a5,5,0,0,1,.93,1.74,6.58,6.58,0,0,1,.31,2.06,7.83,7.83,0,0,1-.57,3.08,7.63,7.63,0,0,1-1.56,2.37A9.19,9.19,0,0,1,57.51,49a15.32,15.32,0,0,1-2.76,1.16Zm-4.38-1.46a12.48,12.48,0,0,0,3.51-.42,5.87,5.87,0,0,0,2.32-1.28,6.57,6.57,0,0,0,1.53-2.27,7.52,7.52,0,0,0,.61-3,6.67,6.67,0,0,0-.16-1.49,3.64,3.64,0,0,0-.41-1.08,2.92,2.92,0,0,0-.64-.77,3.45,3.45,0,0,0-1-.57,5.34,5.34,0,0,0-1.34-.35,16.19,16.19,0,0,0-2.09-.11c-.68,0-1.41,0-2.17.08L48.08,48.87Z"/><line x1="41.51" y1="27.35" x2="62.5" y2="27.35" style="fill:none;stroke:#000;stroke-miterlimit:10;stroke-width:2px"/><polygon points="58.52 30.74 61.91 27.35 58.52 23.96 61.39 23.96 64.78 27.35 61.39 30.74 58.52 30.74"/><path d="M137.56,30.62a3.36,3.36,0,0,0,.64-.05,1.13,1.13,0,0,0,.38-.13,1.52,1.52,0,0,0,.3-.25,2,2,0,0,0,.28-.39,6,6,0,0,0,.33-.67h1l-.83,3.28H131l.11-.54a17.44,17.44,0,0,1,1.69-2.44,34.27,34.27,0,0,1,2.83-3c1-1,1.68-1.63,2.06-2a15.72,15.72,0,0,0,1.55-1.79,5.59,5.59,0,0,0,.76-1.4,4.08,4.08,0,0,0,.22-1.33,1.89,1.89,0,0,0-.53-1.45,2.07,2.07,0,0,0-1.51-.51,2.62,2.62,0,0,0-1.64.55,3.76,3.76,0,0,0-1.18,1.56h-1.44l.48-2.16a15.93,15.93,0,0,1,2.34-.74,9.26,9.26,0,0,1,2.14-.25,4.55,4.55,0,0,1,1.89.37,2.65,2.65,0,0,1,1.21,1,2.61,2.61,0,0,1,.41,1.42,4.6,4.6,0,0,1-.18,1.33,5,5,0,0,1-.56,1.2A11.94,11.94,0,0,1,140.17,24c-.58.59-1.53,1.48-2.86,2.68a30.23,30.23,0,0,0-3.87,4Z"/><path d="M190.11,46.73a2.84,2.84,0,0,0,.89-.11,1.29,1.29,0,0,0,.5-.33,3.69,3.69,0,0,0,.45-.82h1l-.73,3h-8.3l.12-.54a12.09,12.09,0,0,1,1.84-2.18,27.56,27.56,0,0,1,2.74-2.31c.54-.4,1-.77,1.43-1.13a10.67,10.67,0,0,0,1-1,4.57,4.57,0,0,0,.62-.83,2.47,2.47,0,0,0,.3-.71A2.8,2.8,0,0,0,192,39a1.71,1.71,0,0,0-.09-.55,1.39,1.39,0,0,0-.84-.83,2.37,2.37,0,0,0-.81-.13,2.79,2.79,0,0,0-1.68.51,3.79,3.79,0,0,0-1.18,1.55H186l.47-2.07a18.12,18.12,0,0,1,2.32-.76,8.91,8.91,0,0,1,2-.22,4.94,4.94,0,0,1,1.92.31,2.11,2.11,0,0,1,1,.86,2.74,2.74,0,0,1,.29,1.3,3,3,0,0,1-.43,1.53,6.42,6.42,0,0,1-1.26,1.51,24.22,24.22,0,0,1-2.24,1.76l-1.13.81-1,.73c-.3.23-.57.44-.81.64s-.47.41-.69.62v.11Z"/><path d="M109.2,44H90.3V40.68h18.9Zm0,8.69H90.3V49.37h18.9Z"/><path d="M217.32,60.51V52.66h-7.79V49.38h7.79V41.59h3.32v7.79h7.79v3.28h-7.79v7.85Z"/><path d="M302.76,60.51V52.66H295V49.38h7.8V41.59h3.32v7.79h7.79v3.28h-7.79v7.85Z"/><path d="M172.45,53.94A5.89,5.89,0,0,1,174,55.62a9.14,9.14,0,0,1,.92,2.71l.44,2.27c.09.47.19.9.3,1.31a10.52,10.52,0,0,0,.39,1.16,3.48,3.48,0,0,0,.49.89,2.58,2.58,0,0,0,.56.54,2.43,2.43,0,0,0,.68.35,6.31,6.31,0,0,0,1,.22l-.2,1h-5.37a30.47,30.47,0,0,1-1.1-4.14l-.86-4.14a9.77,9.77,0,0,0-.51-1.81,3.15,3.15,0,0,0-.72-1.13,2.06,2.06,0,0,0-1-.53,6.43,6.43,0,0,0-1.35-.13h-2.21l-1.35,6.19c-.12.51-.2.92-.25,1.21s-.08.62-.11,1a7.33,7.33,0,0,0,0,.89,2,2,0,0,0,.19,1,1.19,1.19,0,0,0,.58.5,5.32,5.32,0,0,0,1.34.23l-.21,1h-8l.21-1a2.65,2.65,0,0,0,1.11-.38,2.25,2.25,0,0,0,.62-.73,6.7,6.7,0,0,0,.46-1.15c.15-.44.36-1.31.64-2.6l3.3-15a15.73,15.73,0,0,0,.43-3.09,1.63,1.63,0,0,0-.45-1.32,2.49,2.49,0,0,0-1.45-.43l.21-1h8.63a19,19,0,0,1,3.35.24,7.81,7.81,0,0,1,2.22.74,4.78,4.78,0,0,1,1.55,1.26,5.45,5.45,0,0,1,.93,1.73,6.94,6.94,0,0,1,.31,2.06,7.71,7.71,0,0,1-.58,3.09,7.47,7.47,0,0,1-1.56,2.36,9.35,9.35,0,0,1-2.29,1.72,15.69,15.69,0,0,1-2.77,1.15Zm-4.38-1.47a12.39,12.39,0,0,0,3.51-.42,5.79,5.79,0,0,0,2.33-1.28,6.43,6.43,0,0,0,1.53-2.26,7.68,7.68,0,0,0,.6-3,6.13,6.13,0,0,0-.16-1.49,4.16,4.16,0,0,0-.4-1.09,3.08,3.08,0,0,0-.64-.76,3.6,3.6,0,0,0-1-.57,5.12,5.12,0,0,0-1.35-.35,14.4,14.4,0,0,0-2.08-.11c-.69,0-1.41,0-2.18.08l-2.48,11.3Z"/><path d="M194,56.69q-2.53,2.73-5.31,5.39L189.93,65c.33.78.58,1.34.78,1.71a3.45,3.45,0,0,0,.52.79,2,2,0,0,0,.47.36,2.79,2.79,0,0,0,.75.17l-.15.65H189l-1.82-5.3-.83.77c-.34.33-.67.68-1,1.06a6.18,6.18,0,0,0-.68.9,2.44,2.44,0,0,0-.25.59,2.24,2.24,0,0,0-.06.52.73.73,0,0,0,.19.54,1.13,1.13,0,0,0,.65.27l-.15.65h-3.73l-.25-.65q2.87-3.09,5.64-5.7l-1.24-2.94c-.25-.6-.46-1.06-.62-1.37a3.22,3.22,0,0,0-.45-.72,1.42,1.42,0,0,0-.49-.4,2.44,2.44,0,0,0-.81-.18l.15-.64h3.25l1.75,5c.42-.4.83-.81,1.21-1.23a6.77,6.77,0,0,0,.81-1,2.88,2.88,0,0,0,.33-.66,2,2,0,0,0,.09-.61c0-.48-.28-.76-.83-.83l.14-.64h3.73Z"/><path d="M275.11,45a2.89,2.89,0,0,0,.89-.11,1.27,1.27,0,0,0,.5-.34,3.73,3.73,0,0,0,.45-.81h1l-.73,3h-8.3l.12-.54A11.38,11.38,0,0,1,270.85,44a27.56,27.56,0,0,1,2.74-2.31c.54-.4,1-.78,1.43-1.14a10.7,10.7,0,0,0,1-1,4.94,4.94,0,0,0,.62-.83A2.72,2.72,0,0,0,277,38a3.36,3.36,0,0,0,.08-.74,1.77,1.77,0,0,0-.09-.56,1.75,1.75,0,0,0-.3-.48,1.61,1.61,0,0,0-.54-.34,2.15,2.15,0,0,0-.81-.13,2.79,2.79,0,0,0-1.68.51,3.65,3.65,0,0,0-1.18,1.55H271l.47-2.07a16.59,16.59,0,0,1,2.31-.76,9.07,9.07,0,0,1,2-.23,4.84,4.84,0,0,1,1.91.32,2,2,0,0,1,1,.86,2.62,2.62,0,0,1,.3,1.29,3,3,0,0,1-.43,1.54,6.9,6.9,0,0,1-1.26,1.51A26.85,26.85,0,0,1,275.12,42l-1.12.81c-.37.26-.7.5-1,.73s-.57.44-.81.64-.47.41-.69.61V45Z"/><path d="M257.45,52.17a5.59,5.59,0,0,1,1.5,1.68,8.85,8.85,0,0,1,.93,2.71l.44,2.27c.09.46.19.9.3,1.3A10.7,10.7,0,0,0,261,61.3a3.73,3.73,0,0,0,.48.88,2.67,2.67,0,0,0,.57.55,2.17,2.17,0,0,0,.68.34,6.19,6.19,0,0,0,1,.23l-.2,1h-5.37A31,31,0,0,1,257,60.11L256.17,56a9.87,9.87,0,0,0-.51-1.8,3.15,3.15,0,0,0-.72-1.13,2,2,0,0,0-1-.53,5.82,5.82,0,0,0-1.35-.13h-2.21l-1.36,6.19c-.11.51-.19.91-.24,1.21s-.08.62-.11.95a7.33,7.33,0,0,0,0,.89,2,2,0,0,0,.19,1,1.13,1.13,0,0,0,.58.49,4.81,4.81,0,0,0,1.34.24l-.21,1h-8l.21-1a2.8,2.8,0,0,0,1.11-.38,2.19,2.19,0,0,0,.62-.74A7.08,7.08,0,0,0,245,61c.15-.45.36-1.32.64-2.6l3.3-15a15.73,15.73,0,0,0,.43-3.09A1.65,1.65,0,0,0,248.9,39a2.57,2.57,0,0,0-1.45-.43l.21-.95h8.63a19,19,0,0,1,3.35.24,7.82,7.82,0,0,1,2.22.73,4.9,4.9,0,0,1,1.54,1.26,5.44,5.44,0,0,1,.94,1.74,6.93,6.93,0,0,1,.3,2.06,7.88,7.88,0,0,1-.57,3.09,7.58,7.58,0,0,1-1.56,2.36,9.22,9.22,0,0,1-2.3,1.72A15.29,15.29,0,0,1,257.45,52Zm-4.38-1.47a12.39,12.39,0,0,0,3.51-.42A5.79,5.79,0,0,0,258.91,49a6.52,6.52,0,0,0,1.53-2.26,7.72,7.72,0,0,0,.6-3.05,6.08,6.08,0,0,0-.16-1.49,4.16,4.16,0,0,0-.4-1.09,3.08,3.08,0,0,0-.64-.76,4.08,4.08,0,0,0-1-.58,6,6,0,0,0-1.35-.35,16.39,16.39,0,0,0-2.09-.1c-.68,0-1.4,0-2.17.07L250.78,50.7Z"/><path d="M269.07,57.15a10.12,10.12,0,0,0-.25-1.39,1.22,1.22,0,0,0-.38-.6,1.66,1.66,0,0,0-.85-.24l.14-.65h3.37l1,10.48q4.43-6.09,4.43-8.72a1.1,1.1,0,0,0-.26-.85,1.6,1.6,0,0,0-.9-.26l.14-.65h3.37l.36.66a31.19,31.19,0,0,1-1.78,3.8q-1.08,2-2.64,4.3t-3.48,4.85a27.37,27.37,0,0,1-2.46,2.93A8,8,0,0,1,267.45,72a4.59,4.59,0,0,1-2.54.71,4.73,4.73,0,0,1-.8-.07,4,4,0,0,1-.76-.19l.56-2.46h1a1.27,1.27,0,0,0,.21.71.68.68,0,0,0,.58.26,3,3,0,0,0,.72-.08,2.91,2.91,0,0,0,.63-.29,4.88,4.88,0,0,0,.81-.63A12.69,12.69,0,0,0,269,68.76q.6-.72,1.35-1.74Z"/><path d="M359.4,45a2.82,2.82,0,0,0,.88-.11,1.2,1.2,0,0,0,.5-.34,3.28,3.28,0,0,0,.46-.81h1l-.74,3h-8.29l.12-.54A11,11,0,0,1,355.14,44a26.32,26.32,0,0,1,2.73-2.31c.54-.4,1-.78,1.43-1.14a10.94,10.94,0,0,0,1-1,5.56,5.56,0,0,0,.62-.83,2.72,2.72,0,0,0,.3-.71,3.36,3.36,0,0,0,.08-.74,1.78,1.78,0,0,0-.1-.56,1.37,1.37,0,0,0-.3-.48,1.67,1.67,0,0,0-.53-.34,2.15,2.15,0,0,0-.81-.13,2.8,2.8,0,0,0-1.69.51,3.73,3.73,0,0,0-1.18,1.55h-1.39l.46-2.07A16.67,16.67,0,0,1,358.1,35a9,9,0,0,1,2-.23,4.85,4.85,0,0,1,1.92.32,2.06,2.06,0,0,1,1,.86,2.62,2.62,0,0,1,.3,1.29,3.09,3.09,0,0,1-.43,1.54,6.7,6.7,0,0,1-1.27,1.51A26.47,26.47,0,0,1,359.41,42l-1.13.81-1,.73c-.3.22-.57.44-.81.64s-.47.41-.68.61V45Z"/><path d="M341.74,52.17a5.59,5.59,0,0,1,1.5,1.68,8.87,8.87,0,0,1,.92,2.71l.45,2.27c.09.46.19.9.3,1.3s.24.79.38,1.17a3.4,3.4,0,0,0,.49.88,2.42,2.42,0,0,0,.56.55,2.28,2.28,0,0,0,.68.34,6.19,6.19,0,0,0,1,.23l-.19,1h-5.37a28.28,28.28,0,0,1-1.11-4.14L340.46,56a10.68,10.68,0,0,0-.52-1.8,3.15,3.15,0,0,0-.72-1.13,2,2,0,0,0-1-.53,5.82,5.82,0,0,0-1.35-.13H334.7l-1.36,6.19c-.12.51-.2.91-.24,1.21s-.09.62-.12.95-.05.63-.05.89a2,2,0,0,0,.2,1,1.13,1.13,0,0,0,.58.49,4.73,4.73,0,0,0,1.34.24l-.22,1h-8l.22-1a2.69,2.69,0,0,0,1.1-.38,2.08,2.08,0,0,0,.62-.74,6.23,6.23,0,0,0,.47-1.14c.14-.45.35-1.32.64-2.6l3.29-15a15,15,0,0,0,.43-3.09,1.65,1.65,0,0,0-.45-1.33,2.54,2.54,0,0,0-1.45-.43l.21-.95h8.63a19.18,19.18,0,0,1,3.36.24,8,8,0,0,1,2.22.73,5,5,0,0,1,1.54,1.26,5.61,5.61,0,0,1,.93,1.74,6.63,6.63,0,0,1,.31,2.06,7.88,7.88,0,0,1-.57,3.09,7.58,7.58,0,0,1-1.56,2.36,9.41,9.41,0,0,1-2.3,1.72A15.29,15.29,0,0,1,341.74,52Zm-4.39-1.47a12.39,12.39,0,0,0,3.51-.42A5.79,5.79,0,0,0,343.19,49a6.52,6.52,0,0,0,1.53-2.26,7.72,7.72,0,0,0,.6-3.05,6.64,6.64,0,0,0-.15-1.49,4.14,4.14,0,0,0-.41-1.09,3.08,3.08,0,0,0-.64-.76,3.89,3.89,0,0,0-1-.58,6,6,0,0,0-1.35-.35,16.21,16.21,0,0,0-2.08-.1c-.69,0-1.41,0-2.17.07L335.07,50.7Z"/><path d="M362.37,63.17l-.8,3.71h-9.48l-.25-.65,7.16-8.3c1-1.17,1.76-2,2.23-2.5l-.08-.09h-3.06a4,4,0,0,0-1,.09,2.13,2.13,0,0,0-.63.33,3.6,3.6,0,0,0-.67.68,9.5,9.5,0,0,0-.81,1.3h-1.16l.77-3.47h9.31l.25.66-9.4,10.79.08.09h2.95a6.13,6.13,0,0,0,1.21-.09,1.67,1.67,0,0,0,.73-.32,3.13,3.13,0,0,0,.65-.72,11.78,11.78,0,0,0,.83-1.51Z"/><line x1="71.64" y1="73.3" x2="71.64" y2="27.35" style="fill:none;stroke:#000;stroke-miterlimit:10;stroke-width:2px"/><line x1="33.05" y1="73.3" x2="33.05" y2="27.35" style="fill:none;stroke:#000;stroke-miterlimit:10;stroke-width:2px"/></svg>