<svg id="Capa_1" data-name="Capa 1" xmlns="http://www.w3.org/2000/svg" viewBox="0 0 264.77 105.65"><path d="M16.36,57.48c-.1.43-.18.8-.23,1.1A10.76,10.76,0,0,0,16,59.69c0,.43-.07.82-.07,1.14a2.16,2.16,0,0,0,.22,1.05,1.18,1.18,0,0,0,.64.54,5,5,0,0,0,1.47.26L18,63.74H9.24l.23-1.06a2.75,2.75,0,0,0,1.22-.42,2.24,2.24,0,0,0,.68-.8,6.86,6.86,0,0,0,.51-1.26c.16-.49.39-1.45.71-2.87l3.62-16.54a16.36,16.36,0,0,0,.47-3.39,1.83,1.83,0,0,0-.49-1.47,2.76,2.76,0,0,0-1.6-.47l.24-1.05H34.07L32.6,41H30.55a22.85,22.85,0,0,0-.24-2.39,4.7,4.7,0,0,0-.37-1.3,1.76,1.76,0,0,0-.5-.63,1.66,1.66,0,0,0-.69-.29,6,6,0,0,0-1.19-.09H21L18.45,48h4A4.1,4.1,0,0,0,24,47.73a2.84,2.84,0,0,0,1.15-.94,13,13,0,0,0,1.32-2.3h1.94l-2.06,9.06H24.47c0-.89,0-1.58-.06-2.08a2.37,2.37,0,0,0-.25-1.06,1,1,0,0,0-.58-.41,5.09,5.09,0,0,0-1.35-.12H18.05Z"/><path d="M90.75,58.54a15.78,15.78,0,0,0,.46-3.46,1.69,1.69,0,0,0-.51-1.41,2.8,2.8,0,0,0-1.58-.46l.24-1.06h8.53l-.23,1.06a5.25,5.25,0,0,0-1,.32,1.68,1.68,0,0,0-.54.42,3.27,3.27,0,0,0-.47.74,7.6,7.6,0,0,0-.48,1.36c-.16.6-.36,1.43-.59,2.51L93.07,65.3l-1.68.48-1.11-1.7c-1,.49-1.82.83-2.39,1a11.51,11.51,0,0,1-1.77.47,10.18,10.18,0,0,1-2,.17,8.51,8.51,0,0,1-4.46-1.11,7,7,0,0,1-2.78-3.19A11.92,11.92,0,0,1,76,56.54a24.9,24.9,0,0,1,.47-4.71,32.58,32.58,0,0,1,1.43-5.09,22.65,22.65,0,0,1,2-4.07,17.82,17.82,0,0,1,2.5-3.19,13.13,13.13,0,0,1,2.67-2,12.56,12.56,0,0,1,6.42-1.7,24.89,24.89,0,0,1,3.71.25,22.26,22.26,0,0,1,3.69.89l-1.3,5.78h-2a9.38,9.38,0,0,0-.63-3,3.15,3.15,0,0,0-1.38-1.57,4.92,4.92,0,0,0-2.36-.5,6.08,6.08,0,0,0-3.31,1,11.35,11.35,0,0,0-2.91,2.8,21,21,0,0,0-2.54,4.66,32.94,32.94,0,0,0-1.74,5.74A25.87,25.87,0,0,0,80,57.07a9.22,9.22,0,0,0,1.14,5.15,4,4,0,0,0,3.51,1.67,8,8,0,0,0,1.79-.21A5.47,5.47,0,0,0,88.2,63a5.06,5.06,0,0,0,1.41-1.33,5.31,5.31,0,0,0,.9-2.1Z"/><path d="M147.37,24.08v.3a1.77,1.77,0,0,1,0,.32A15.77,15.77,0,0,1,151,20.79a6.64,6.64,0,0,1,3.8-1.26,4,4,0,0,1,3.08,1.15,4.83,4.83,0,0,1,1.06,3.4,15.4,15.4,0,0,1-.43,3.31L156.76,35a11.49,11.49,0,0,0-.36,2.45,2.05,2.05,0,0,0,.21,1,1.37,1.37,0,0,0,.66.56,5.41,5.41,0,0,0,1.47.3l-.19,1h-6.7l2.69-10.91c.2-.79.37-1.59.52-2.4a12.2,12.2,0,0,0,.23-2.2,3.48,3.48,0,0,0-.54-2.2,2,2,0,0,0-1.68-.66,3.49,3.49,0,0,0-1.87.69,10,10,0,0,0-2.16,2.1,17,17,0,0,0-1.85,2.81A14.05,14.05,0,0,0,146.05,31l-1.94,9.39h-3.69l2.45-10.91c.3-1.34.5-2.32.61-3a9.78,9.78,0,0,0,.16-1.64,3.48,3.48,0,0,0-.54-2.2,2.09,2.09,0,0,0-1.7-.66,3.43,3.43,0,0,0-1.89.7,9.77,9.77,0,0,0-2.18,2.16,15.93,15.93,0,0,0-1.85,2.87,13.65,13.65,0,0,0-1.08,3.34l-1.94,9.3h-3.69L132,25.74c.07-.33.16-.82.28-1.46a9.24,9.24,0,0,0,.18-1.62,2,2,0,0,0-.18-.93,1,1,0,0,0-.62-.49A5.47,5.47,0,0,0,130.2,21l.26-1.14,4.86-.19h1.2l-1.41,5.56.25.09A17.17,17.17,0,0,1,139.27,21a6.52,6.52,0,0,1,3.92-1.43,4,4,0,0,1,3.12,1.17A4.86,4.86,0,0,1,147.37,24.08Z"/><path d="M169.6,42.67a7,7,0,0,0-.19,1.41,1,1,0,0,0,.3.76,2.3,2.3,0,0,0,1.06.39,13.48,13.48,0,0,0,2.29.16l-.3,1.38H161.92l.28-1.38a18.09,18.09,0,0,0,2.11-.16,4,4,0,0,0,1.18-.34,2,2,0,0,0,.69-.6,3.38,3.38,0,0,0,.44-1.19l2.11-9.65q.06-.29.09-.48a1.55,1.55,0,0,0,0-.29.47.47,0,0,0-.17-.43.84.84,0,0,0-.47-.11,3.73,3.73,0,0,0-1.26.36c-.57.25-1.35.63-2.35,1.14l-.68-1.5,7.55-3.46h1.22c-.3,1.15-.6,2.4-.9,3.76Z"/><path d="M205.1,22.58v.3c0,.1,0,.21,0,.32a15.77,15.77,0,0,1,3.69-3.91,6.62,6.62,0,0,1,3.8-1.26,4,4,0,0,1,3.08,1.14,4.92,4.92,0,0,1,1.06,3.41,16.06,16.06,0,0,1-.43,3.31l-1.79,7.65a11.54,11.54,0,0,0-.37,2.45,2,2,0,0,0,.22,1,1.3,1.3,0,0,0,.66.55,5.74,5.74,0,0,0,1.47.31l-.19,1h-6.7L212.27,28c.2-.78.37-1.58.52-2.39a12.2,12.2,0,0,0,.23-2.2,3.51,3.51,0,0,0-.54-2.21,2,2,0,0,0-1.68-.65,3.46,3.46,0,0,0-1.87.69,10.22,10.22,0,0,0-2.17,2.1,17.51,17.51,0,0,0-1.84,2.81,13.23,13.23,0,0,0-1.14,3.38l-1.94,9.39h-3.69L200.6,28c.3-1.33.5-2.31.61-2.95a9.78,9.78,0,0,0,.16-1.64,3.51,3.51,0,0,0-.54-2.21,2.11,2.11,0,0,0-1.7-.65,3.43,3.43,0,0,0-1.89.7,10,10,0,0,0-2.19,2.16,16.73,16.73,0,0,0-1.84,2.86,13.88,13.88,0,0,0-1.08,3.35l-1.94,9.3H186.5l3.24-14.68c.07-.33.17-.81.29-1.46a9,9,0,0,0,.18-1.61,2,2,0,0,0-.18-.93,1.13,1.13,0,0,0-.62-.5,6,6,0,0,0-1.48-.22l.25-1.14,4.87-.19h1.19l-1.41,5.56.26.09A17.24,17.24,0,0,1,197,19.45,6.57,6.57,0,0,1,200.92,18,4,4,0,0,1,204,19.2,4.81,4.81,0,0,1,205.1,22.58Z"/><path d="M226.6,42.84a3.12,3.12,0,0,0,1.16-.16,1.89,1.89,0,0,0,.69-.53,4.94,4.94,0,0,0,.67-1.14h1.64l-1.08,4.26h-12l.21-1a27.61,27.61,0,0,1,6-6.36l1.92-1.61a27.82,27.82,0,0,0,2.05-1.89,8.14,8.14,0,0,0,1-1.33,4.28,4.28,0,0,0,.66-2.35,1.89,1.89,0,0,0-.7-1.55,3,3,0,0,0-2-.57,3.61,3.61,0,0,0-2.2.66,4.87,4.87,0,0,0-1.45,1.85H221l.64-2.92A18.48,18.48,0,0,1,227.76,27a6.87,6.87,0,0,1,2.2.31,4.8,4.8,0,0,1,1.53.81,3.16,3.16,0,0,1,.87,1.13,3,3,0,0,1,.28,1.25,5.1,5.1,0,0,1-.47,2.28A8.27,8.27,0,0,1,230.44,35q-1.26,1.21-4.2,3.51a37.75,37.75,0,0,0-4.75,4.34Z"/><path d="M183,65.4c.11-.47.21-1,.3-1.57a11,11,0,0,0,.12-1.5,1.67,1.67,0,0,0-.23-1,1.34,1.34,0,0,0-.67-.48,7.08,7.08,0,0,0-1.57-.22l.26-1.11,5.35-.2h1.26l-5.53,24.75c-.2.9-.33,1.58-.4,2a7.6,7.6,0,0,0-.11,1.12,1.55,1.55,0,0,0,.49,1.28,3.65,3.65,0,0,0,1.88.5L184,90.07h-6.1l1.34-5.4-.28-.08A18.9,18.9,0,0,1,175,89a6.32,6.32,0,0,1-3.88,1.4,4.23,4.23,0,0,1-3.64-1.79,8.38,8.38,0,0,1-1.29-5,18.91,18.91,0,0,1,.47-4.14,16.76,16.76,0,0,1,1.42-3.93,14.38,14.38,0,0,1,2.27-3.28A10.28,10.28,0,0,1,173.45,70a8.59,8.59,0,0,1,3.79-.84,10,10,0,0,1,2.4.27,8.81,8.81,0,0,1,2.25.93ZM180.35,77a13.94,13.94,0,0,0,.32-2.92,3.52,3.52,0,0,0-.7-2.44,3.07,3.07,0,0,0-2.35-.76,4.92,4.92,0,0,0-1.71.29,5.64,5.64,0,0,0-1.64,1,9.07,9.07,0,0,0-1.59,1.78,13.44,13.44,0,0,0-1.37,2.66A19.35,19.35,0,0,0,170,83.4a7.26,7.26,0,0,0,.6,3.35,2.16,2.16,0,0,0,2,1.1,3.58,3.58,0,0,0,1.38-.3,5.93,5.93,0,0,0,1.59-1.11,14.91,14.91,0,0,0,2-2.37,15.15,15.15,0,0,0,1.59-2.85,17.85,17.85,0,0,0,1-3.32Z"/><path d="M198.29,76.19a3.28,3.28,0,0,0,1.15-.16,1.94,1.94,0,0,0,.7-.53,5.33,5.33,0,0,0,.67-1.14h1.64l-1.09,4.25h-12l.21-1a27,27,0,0,1,5.95-6.36l1.92-1.62a24,24,0,0,0,2.05-1.89,8.27,8.27,0,0,0,1.05-1.33,4.28,4.28,0,0,0,.66-2.34,1.92,1.92,0,0,0-.7-1.56,3,3,0,0,0-2-.57,3.62,3.62,0,0,0-2.2.67,4.8,4.8,0,0,0-1.45,1.85h-2.19l.64-2.92a18.51,18.51,0,0,1,6.07-1.19,6.87,6.87,0,0,1,2.21.32,4.61,4.61,0,0,1,1.53.81,3.08,3.08,0,0,1,.87,1.13,3,3,0,0,1,.28,1.25,5.17,5.17,0,0,1-.47,2.27,8,8,0,0,1-1.73,2.18q-1.26,1.22-4.2,3.52a37.91,37.91,0,0,0-4.76,4.34Z"/><path d="M61.23,48.58H42.33V45.3h18.9Zm0,8.69H42.33V54h18.9Z"/><line x1="111.42" y1="51.11" x2="257.87" y2="51.11" style="fill:none;stroke:#000;stroke-miterlimit:10;stroke-width:2px"/></svg>