<svg id="Capa_1" data-name="Capa 1" xmlns="http://www.w3.org/2000/svg" viewBox="0 0 1125.46 99.57"><path d="M58,49.54H39.1V46.26H58Zm0,8.69H39.1V55H58Z"/><path d="M397.29,55.66h-18.9V52.38h18.9Zm0,8.69h-18.9V61.07h18.9Z"/><path d="M965.06,49.54H946.15V46.26h18.91Zm0,8.69H946.15V55h18.91Z"/><polyline points="71.48 60.18 90.78 88.5 101.64 8.84 363.22 8.84" style="fill:none;stroke:#000;stroke-miterlimit:10;stroke-width:2.4060029917370116px"/><path d="M125.05,32.63a5.44,5.44,0,0,1,1.43,1.6,8.58,8.58,0,0,1,.87,2.58l.43,2.15c.08.44.18.86.28,1.24s.23.75.37,1.11a3.59,3.59,0,0,0,.46.84,2.64,2.64,0,0,0,.54.52,2.26,2.26,0,0,0,.64.32,4.86,4.86,0,0,0,.91.22l-.18.91h-5.11a29.35,29.35,0,0,1-1-3.94l-.81-3.93a9.27,9.27,0,0,0-.48-1.72,3,3,0,0,0-.69-1.07,1.85,1.85,0,0,0-.92-.5,5.8,5.8,0,0,0-1.28-.12h-2.1l-1.29,5.88c-.11.48-.19.86-.23,1.15s-.08.58-.11.9,0,.6,0,.84a1.84,1.84,0,0,0,.18.9,1.08,1.08,0,0,0,.55.48,4.91,4.91,0,0,0,1.27.22l-.2.91h-7.57l.2-.91a2.66,2.66,0,0,0,1-.36,2,2,0,0,0,.59-.7,6,6,0,0,0,.44-1.09c.14-.42.34-1.25.61-2.47l3.13-14.29a14.68,14.68,0,0,0,.41-2.93,1.53,1.53,0,0,0-.43-1.26,2.35,2.35,0,0,0-1.38-.41l.21-.91h8.19a18.25,18.25,0,0,1,3.19.23,7.57,7.57,0,0,1,2.11.7,4.9,4.9,0,0,1,1.47,1.19,5.19,5.19,0,0,1,.88,1.66,6.22,6.22,0,0,1,.29,1.95,7.52,7.52,0,0,1-.54,2.94,7.28,7.28,0,0,1-1.48,2.24,8.93,8.93,0,0,1-2.19,1.63,14.49,14.49,0,0,1-2.62,1.1Zm-4.16-1.39a11.62,11.62,0,0,0,3.33-.4,5.5,5.5,0,0,0,2.21-1.21,6.27,6.27,0,0,0,1.46-2.16,7.27,7.27,0,0,0,.57-2.89,6.07,6.07,0,0,0-.15-1.42,3.82,3.82,0,0,0-.39-1,3,3,0,0,0-.6-.72,3.46,3.46,0,0,0-.93-.55,4.51,4.51,0,0,0-1.28-.33,14.34,14.34,0,0,0-2-.11c-.65,0-1.34,0-2.06.08l-2.36,10.74Z"/><path d="M145.24,39.81l-.94,4.31h-3.5l.94-4.31Z"/><path d="M178.37,19.44l-1.11,5h-1.77a5.82,5.82,0,0,0-1-3.3,3.33,3.33,0,0,0-2.7-1,5.14,5.14,0,0,0-2.91.92,10.21,10.21,0,0,0-2.58,2.65,19.2,19.2,0,0,0-2.12,4.07,28.33,28.33,0,0,0-1.38,4.75,22.64,22.64,0,0,0-.48,4.37,7.93,7.93,0,0,0,1,4.44,3.5,3.5,0,0,0,3.09,1.42,6.33,6.33,0,0,0,2.41-.42A5.15,5.15,0,0,0,170.76,41a12.19,12.19,0,0,0,1.78-2.77h1.77l-1.12,5.27a25.44,25.44,0,0,1-3.63.74,28.14,28.14,0,0,1-3.59.22,7.45,7.45,0,0,1-3.89-.95,6,6,0,0,1-2.41-2.77,10.56,10.56,0,0,1-.81-4.35,18.26,18.26,0,0,1,.18-2.59,30.81,30.81,0,0,1,.7-3.4,23.34,23.34,0,0,1,1.53-4.16,17.73,17.73,0,0,1,2.27-3.5,12.71,12.71,0,0,1,2.59-2.36A10.91,10.91,0,0,1,168.92,19a10,10,0,0,1,3.16-.49,21.43,21.43,0,0,1,3.11.21A20.36,20.36,0,0,1,178.37,19.44Z"/><path d="M184.45,44.43A5.88,5.88,0,0,1,180,42.82a6.34,6.34,0,0,1-1.58-4.64,14.38,14.38,0,0,1,.28-2.62,15.79,15.79,0,0,1,1-3.45,10.93,10.93,0,0,1,2.13-3.23,8.73,8.73,0,0,1,3-2.08,9.14,9.14,0,0,1,3.62-.72,6.71,6.71,0,0,1,3.48.82,4.74,4.74,0,0,1,2,2.22,8.13,8.13,0,0,1,.61,3.23,15.15,15.15,0,0,1-.46,3.53,14.7,14.7,0,0,1-1.94,4.66,8.5,8.5,0,0,1-3.19,2.9A9.54,9.54,0,0,1,184.45,44.43ZM181.66,39a4.53,4.53,0,0,0,.84,3A3.18,3.18,0,0,0,185,43a4.14,4.14,0,0,0,3.2-1.64,11.74,11.74,0,0,0,2.21-4.57,19.78,19.78,0,0,0,.81-5.17,4.94,4.94,0,0,0-.77-3,2.83,2.83,0,0,0-2.41-1,4.36,4.36,0,0,0-3.35,1.61,11.59,11.59,0,0,0-2.25,4.62A20.48,20.48,0,0,0,181.66,39Z"/><path d="M208.19,30.7a4,4,0,0,0-.95-2.42,3.12,3.12,0,0,0-2.31-.75,3.75,3.75,0,0,0-1.56.32,2.54,2.54,0,0,0-1.51,2.41,2.86,2.86,0,0,0,.27,1.25,4.43,4.43,0,0,0,.93,1.18,15.05,15.05,0,0,0,1.84,1.41,8.54,8.54,0,0,1,2.5,2.34,4.74,4.74,0,0,1,.72,2.61,5.13,5.13,0,0,1-.83,3A4.92,4.92,0,0,1,205,43.82a8.28,8.28,0,0,1-3.24.59,18.07,18.07,0,0,1-3-.24,25.86,25.86,0,0,1-2.73-.61l.86-4h1.44a3.87,3.87,0,0,0,1,2.55,3.25,3.25,0,0,0,2.44.85,3.72,3.72,0,0,0,2.56-.83,2.79,2.79,0,0,0,.92-2.18,3.48,3.48,0,0,0-.28-1.43,3.77,3.77,0,0,0-.86-1.2A14.55,14.55,0,0,0,202.39,36a14.32,14.32,0,0,1-1.88-1.5,5.28,5.28,0,0,1-1.11-1.55,4.27,4.27,0,0,1-.4-1.87,4.55,4.55,0,0,1,2.9-4.39,8.16,8.16,0,0,1,3.25-.6,16.47,16.47,0,0,1,5.36.8l-.84,3.82Z"/><path d="M244.89,52.19a8.4,8.4,0,0,1-4.24-.95,5.41,5.41,0,0,1-2.34-2.75,12.16,12.16,0,0,1-.73-4.54,30.75,30.75,0,0,1,.33-4.27q.43-3,1.28-6.7t1.65-6.12a21.74,21.74,0,0,1,2-4.52,10.47,10.47,0,0,1,2.37-2.77,8.8,8.8,0,0,1,2.93-1.52,14.83,14.83,0,0,1,4.33-.56L252.17,19a8.33,8.33,0,0,0-2.67.37,5.53,5.53,0,0,0-1.88,1.12,9.23,9.23,0,0,0-1.83,2.39,28,28,0,0,0-1.95,4.81c-.54,1.7-1.08,3.79-1.62,6.25q-.66,3-1.07,5.44a35.67,35.67,0,0,0-.55,5.6,9,9,0,0,0,.52,3.41,3.37,3.37,0,0,0,1.51,1.76,5.68,5.68,0,0,0,2.59.51Z"/><path d="M262.5,44.12h-7.75l.2-.91a3,3,0,0,0,1.07-.29,1.88,1.88,0,0,0,.62-.58,5,5,0,0,0,.54-1.22,24.93,24.93,0,0,0,.65-2.53l3.94-18.17h-2.34A3.37,3.37,0,0,0,256.24,22a18.27,18.27,0,0,0-1.66,3h-1.77l1.39-6.25h19.23L272,25.32h-1.77q0-1.8-.09-2.7a3.7,3.7,0,0,0-.35-1.37,1.42,1.42,0,0,0-.63-.65,3.48,3.48,0,0,0-1.34-.18h-2.73l-4,18.3c-.11.48-.19.86-.23,1.15s-.08.58-.12.9,0,.6,0,.84a1.84,1.84,0,0,0,.18.9,1.1,1.1,0,0,0,.56.48,4.82,4.82,0,0,0,1.27.22Z"/><path d="M277.76,46.07a6.32,6.32,0,0,0-.17,1.22.83.83,0,0,0,.26.65,2,2,0,0,0,.91.34,12.69,12.69,0,0,0,2,.14l-.25,1.19h-9.36l.24-1.19a14.21,14.21,0,0,0,1.82-.14,3.06,3.06,0,0,0,1-.29,1.69,1.69,0,0,0,.6-.52,2.78,2.78,0,0,0,.38-1L277,38.11q.06-.24.09-.42a1.75,1.75,0,0,0,0-.25.39.39,0,0,0-.15-.37.8.8,0,0,0-.41-.1,3.2,3.2,0,0,0-1.08.32c-.5.21-1.17.54-2,1l-.59-1.3,6.52-3h1.05c-.26,1-.52,2.07-.77,3.24Z"/><path d="M305.73,34.51l-1.55,7.07h-2.77L303,34.51h-6.28l.55-2.51h6.27L305,25h2.76L306.26,32h6.34L312,34.51Z"/><path d="M335.59,44.12h-7.76l.21-.91a3,3,0,0,0,1.06-.29,1.79,1.79,0,0,0,.62-.58,5,5,0,0,0,.54-1.22,24.93,24.93,0,0,0,.65-2.53l3.94-18.17h-2.34a4,4,0,0,0-1.82.34A3.94,3.94,0,0,0,329.33,22a17.56,17.56,0,0,0-1.66,3H325.9l1.38-6.25h19.23l-1.43,6.53h-1.77q0-1.8-.09-2.7a3.91,3.91,0,0,0-.35-1.37,1.49,1.49,0,0,0-.64-.65,3.45,3.45,0,0,0-1.34-.18h-2.72l-4,18.3c-.11.48-.19.86-.23,1.15s-.08.58-.11.9-.05.6-.05.84a1.72,1.72,0,0,0,.19.9,1,1,0,0,0,.55.48,4.91,4.91,0,0,0,1.27.22Z"/><path d="M350.22,47.51a2.53,2.53,0,0,0,1-.14,1.58,1.58,0,0,0,.6-.45,4.66,4.66,0,0,0,.58-1h1.42l-.94,3.67H342.54l.18-.85a23.72,23.72,0,0,1,5.14-5.5l1.66-1.39c.78-.67,1.37-1.21,1.77-1.63a7.17,7.17,0,0,0,.9-1.15,4.08,4.08,0,0,0,.44-1,3.75,3.75,0,0,0,.13-1,1.66,1.66,0,0,0-.6-1.35,2.61,2.61,0,0,0-1.7-.49,3.07,3.07,0,0,0-1.9.58,4,4,0,0,0-1.25,1.59h-1.9l.55-2.52a16.06,16.06,0,0,1,5.25-1,6,6,0,0,1,1.91.27,4.12,4.12,0,0,1,1.32.7,2.77,2.77,0,0,1,.75,1,2.56,2.56,0,0,1,.24,1.07,4.47,4.47,0,0,1-.4,2,7.4,7.4,0,0,1-1.5,1.88q-1.08,1.05-3.63,3a31.23,31.23,0,0,0-4.1,3.74Z"/><path d="M363.68,17.49a8.35,8.35,0,0,1,4.24,1,5.43,5.43,0,0,1,2.35,2.75,12.16,12.16,0,0,1,.73,4.54,29.3,29.3,0,0,1-.33,4.17c-.3,2.16-.75,4.55-1.37,7.19-.57,2.43-1.13,4.42-1.65,6a22.14,22.14,0,0,1-2,4.33,10.21,10.21,0,0,1-2.35,2.74,8.71,8.71,0,0,1-2.94,1.5,14.78,14.78,0,0,1-4.31.56l.33-1.52a8.22,8.22,0,0,0,2.66-.37,5.68,5.68,0,0,0,1.85-1.1,9.11,9.11,0,0,0,1.88-2.47,25.58,25.58,0,0,0,1.94-4.79q.92-2.92,1.73-6.77c.43-2,.76-3.73,1-5.27a34.57,34.57,0,0,0,.5-5.21,8.81,8.81,0,0,0-.54-3.43,3.32,3.32,0,0,0-1.52-1.75,5.7,5.7,0,0,0-2.57-.5Z"/><path d="M1094.7,19.52a13.41,13.41,0,0,1,3.63-3.39,7.94,7.94,0,0,1,4.07-1.06,4.59,4.59,0,0,1,3.42,1.24,4.61,4.61,0,0,1,1.23,3.4,15.49,15.49,0,0,1-.43,3.33l-1.75,8c-.14.66-.23,1.17-.29,1.53a8.54,8.54,0,0,0-.07.92,1.64,1.64,0,0,0,.48,1.35,3.29,3.29,0,0,0,1.65.52l-.25,1.42h-8.85l2.94-12.92c.16-.67.27-1.22.35-1.65s.14-.8.17-1.12a6.79,6.79,0,0,0,.06-.86,2.38,2.38,0,0,0-.4-1.47,1.42,1.42,0,0,0-1.18-.5,2.77,2.77,0,0,0-1.48.55,9.69,9.69,0,0,0-1.8,1.62,10.14,10.14,0,0,0-1.57,2.29,12.68,12.68,0,0,0-1,3l-2.34,11h-6.15l3.08-13.47c.14-.58.24-1,.29-1.38s.1-.64.12-.88,0-.46,0-.67a2.69,2.69,0,0,0-.38-1.62,1.45,1.45,0,0,0-1.22-.5,3.93,3.93,0,0,0-2.4,1.31,11.53,11.53,0,0,0-2.17,2.67,11.83,11.83,0,0,0-1.21,3.52l-2.34,11h-6.13l3.35-15.17c.07-.34.17-.83.29-1.47a8.94,8.94,0,0,0,.18-1.6,1.39,1.39,0,0,0-.5-1.24,3.45,3.45,0,0,0-1.57-.42l.32-1.42,5.87-.23H1083l-1.22,4.64.26.08a21,21,0,0,1,2.74-2.88,8.26,8.26,0,0,1,2.49-1.5,8,8,0,0,1,2.75-.45,4.68,4.68,0,0,1,3.36,1.18A4.52,4.52,0,0,1,1094.7,19.52Z"/><path d="M1075.05,80.7a5.88,5.88,0,0,0,.63,2.48,3,3,0,0,0,1.29,1.29,4.22,4.22,0,0,0,1.8.35,3.76,3.76,0,0,0,2.6-.82,3,3,0,0,0,.92-2.33,3.51,3.51,0,0,0-.3-1.53,3.93,3.93,0,0,0-1-1.21,18.21,18.21,0,0,0-2.22-1.54,10.12,10.12,0,0,1-3.11-2.67,5.36,5.36,0,0,1-1-3.11,5.61,5.61,0,0,1,2.35-4.85,11,11,0,0,1,6.57-1.7,27.16,27.16,0,0,1,7,1l-1.11,5.13h-2.7a5.19,5.19,0,0,0-1-2.94,2.94,2.94,0,0,0-2.35-.95,3.43,3.43,0,0,0-2.3.74,2.54,2.54,0,0,0-.86,2,2.87,2.87,0,0,0,.33,1.4,4.23,4.23,0,0,0,1.06,1.2,17.91,17.91,0,0,0,2.15,1.46,10.18,10.18,0,0,1,3.24,2.8,5.79,5.79,0,0,1,1,3.37,6,6,0,0,1-1.16,3.74,6.81,6.81,0,0,1-3.18,2.3,13.07,13.07,0,0,1-4.59.75,31.15,31.15,0,0,1-4.25-.28,31.63,31.63,0,0,1-3.69-.75l1.19-5.33Z"/><line x1="1068.12" y1="48.93" x2="1105.2" y2="48.93" style="fill:none;stroke:#000;stroke-miterlimit:10;stroke-width:2px"/><path d="M985.6,41.94l1.1-4.67a34,34,0,0,1,4.76-1.39,21.59,21.59,0,0,1,4.36-.45,9.88,9.88,0,0,1,3.41.54,5,5,0,0,1,2.33,1.68,4.6,4.6,0,0,1,.85,2.84,6.43,6.43,0,0,1-.55,2.73,7.31,7.31,0,0,1-1.52,2.15,10.22,10.22,0,0,1-2.29,1.69,18.52,18.52,0,0,1-2.85,1.28l0,.26a6.6,6.6,0,0,1,3.49,2.06,5.21,5.21,0,0,1,1.28,3.5,8.28,8.28,0,0,1-.67,3.35,8,8,0,0,1-2.09,2.82,8.69,8.69,0,0,1-3.41,1.82,17.72,17.72,0,0,1-4.85.57,20.3,20.3,0,0,1-4.06-.44,17.34,17.34,0,0,1-3.56-1.09l1-4.74h3.1c.13,2.72,1.32,4.08,3.55,4.08a4.28,4.28,0,0,0,2.71-.91,5.72,5.72,0,0,0,1.8-2.46,8.34,8.34,0,0,0,.63-3.17A3.78,3.78,0,0,0,993,50.94a5.2,5.2,0,0,0-3.43-1h-1.72l.48-2.22a10.93,10.93,0,0,0,4.31-.94,7.14,7.14,0,0,0,3-2.52,6.79,6.79,0,0,0,1.11-3.91,2.9,2.9,0,0,0-.71-2.08,2.72,2.72,0,0,0-2-.73,5.3,5.3,0,0,0-1.28.17,3.57,3.57,0,0,0-1.29.65,5.77,5.77,0,0,0-1.23,1.34,10.45,10.45,0,0,0-1.08,2.22Z"/><path d="M1009.82,56.51c0,.83-.08,1.59-.16,2.28a13.21,13.21,0,0,1-.37,2,7.39,7.39,0,0,1-2,3.53,20,20,0,0,1-2.06,1.88,28.91,28.91,0,0,1-2.71,1.92l-1.32-1.84a9.73,9.73,0,0,0,2.24-2.25,9.46,9.46,0,0,0,1.29-3.13,27.27,27.27,0,0,0,.64-4.4Z"/><path d="M1013.66,61.19l1-4.76h3.14a4.54,4.54,0,0,0,1,3,3.34,3.34,0,0,0,2.64,1.05,4.33,4.33,0,0,0,2.87-1,6,6,0,0,0,1.8-2.72,10.09,10.09,0,0,0,.62-3.33,4.18,4.18,0,0,0-.91-2.93,3.57,3.57,0,0,0-2.75-1,11,11,0,0,0-1.84.16,11.34,11.34,0,0,0-1.83.49L1017.73,49l2.87-13.24h10.22a3.63,3.63,0,0,0,1-.11,1.47,1.47,0,0,0,.56-.32,4.67,4.67,0,0,0,.64-.86h2l-1.71,6.23h-10.64l-1.56,7a14.57,14.57,0,0,1,4.58-.67,8.3,8.3,0,0,1,3.53.71,5.23,5.23,0,0,1,2.34,2.06,6.13,6.13,0,0,1,.82,3.25,11,11,0,0,1-.17,2,10.17,10.17,0,0,1-.8,2.48,8.28,8.28,0,0,1-1.5,2.21,8.09,8.09,0,0,1-2.11,1.56,10.53,10.53,0,0,1-3,1.07,18.16,18.16,0,0,1-3.46.32,21.7,21.7,0,0,1-4.14-.42A14.91,14.91,0,0,1,1013.66,61.19Z"/><path d="M1040,41.94l1.11-4.67a34,34,0,0,1,4.76-1.39,21.49,21.49,0,0,1,4.35-.45,9.94,9.94,0,0,1,3.42.54,5,5,0,0,1,2.32,1.68,4.61,4.61,0,0,1,.86,2.84,6.43,6.43,0,0,1-.56,2.73,7,7,0,0,1-1.52,2.15,10.22,10.22,0,0,1-2.29,1.69,18.52,18.52,0,0,1-2.85,1.28l0,.26a6.56,6.56,0,0,1,3.49,2.06,5.16,5.16,0,0,1,1.28,3.5,8.45,8.45,0,0,1-.66,3.35,8,8,0,0,1-2.1,2.82,8.65,8.65,0,0,1-3.4,1.82,17.77,17.77,0,0,1-4.85.57,20.22,20.22,0,0,1-4.06-.44,17,17,0,0,1-3.56-1.09l1-4.74h3.1q.2,4.08,3.55,4.08a4.26,4.26,0,0,0,2.7-.91,5.66,5.66,0,0,0,1.81-2.46,8.34,8.34,0,0,0,.63-3.17,3.78,3.78,0,0,0-1.16-3.05,5.19,5.19,0,0,0-3.42-1h-1.73l.49-2.22a10.88,10.88,0,0,0,4.3-.94,7.17,7.17,0,0,0,3-2.52,6.78,6.78,0,0,0,1.1-3.91,2.89,2.89,0,0,0-.7-2.08,2.74,2.74,0,0,0-2-.73,5.3,5.3,0,0,0-1.28.17,3.69,3.69,0,0,0-1.3.65,5.74,5.74,0,0,0-1.22,1.34,10.43,10.43,0,0,0-1.09,2.22Z"/><path d="M27.35,44.12l.46.86q-.63,1.52-1,2.25c-.22.49-.52,1.11-.9,1.84s-.8,1.51-1.27,2.32-1,1.67-1.6,2.59S21.79,55.92,21,57s-1.66,2.34-2.69,3.7H16.22l-1.58-12.9a9.83,9.83,0,0,0-.33-1.78,1.55,1.55,0,0,0-.52-.79,2.06,2.06,0,0,0-1.06-.3l.18-.84h4.36l1.29,13.59a54.11,54.11,0,0,0,4.33-6.82A10.59,10.59,0,0,0,24.3,46.4,1.4,1.4,0,0,0,24,45.3,2,2,0,0,0,22.8,45l.17-.84Z"/><path d="M218.27,46.38q-5.13,0-5.13-6.49a22.59,22.59,0,0,1,3-11q3-5.43,7.6-5.43,4.83,0,4.83,6.37a23.33,23.33,0,0,1-2.92,11.11C223.69,44.56,221.24,46.38,218.27,46.38ZM216.64,35.2a27.39,27.39,0,0,0-.85,6.11q0,3.72,2.79,3.72c1.32,0,2.52-.86,3.62-2.59a24.29,24.29,0,0,0,2.73-7.24Zm.4-1.51h8.22a31.31,31.31,0,0,0,.63-5.26q0-3.66-2.47-3.66c-1.25,0-2.43.78-3.53,2.33A21,21,0,0,0,217,33.69Z"/><line x1="111.13" y1="55.56" x2="364.03" y2="56.95" style="fill:none;stroke:#000;stroke-miterlimit:10;stroke-width:2px"/><path d="M249,71.69v.24a2.18,2.18,0,0,1,0,.25,12.49,12.49,0,0,1,2.93-3.11,5.26,5.26,0,0,1,3-1,3.15,3.15,0,0,1,2.45.92,3.88,3.88,0,0,1,.84,2.71,12.29,12.29,0,0,1-.34,2.63l-1.42,6.08a9.24,9.24,0,0,0-.29,1.95,1.61,1.61,0,0,0,.17.8,1,1,0,0,0,.53.45,4.45,4.45,0,0,0,1.17.24l-.16.84h-5.32L254.68,76c.16-.62.3-1.26.42-1.9a9.62,9.62,0,0,0,.18-1.75,2.74,2.74,0,0,0-.43-1.75,1.62,1.62,0,0,0-1.34-.53,2.8,2.8,0,0,0-1.48.55,7.87,7.87,0,0,0-1.72,1.68,13.36,13.36,0,0,0-1.47,2.23,10.84,10.84,0,0,0-.91,2.69l-1.54,7.47h-2.94l2-8.69c.24-1,.4-1.84.49-2.34a8.68,8.68,0,0,0,.12-1.31,2.74,2.74,0,0,0-.43-1.75,1.66,1.66,0,0,0-1.35-.53,2.77,2.77,0,0,0-1.5.56A8,8,0,0,0,241,72.34a12.87,12.87,0,0,0-1.47,2.28,11,11,0,0,0-.85,2.66l-1.55,7.4h-2.93L236.77,73c0-.26.13-.65.22-1.16a6.9,6.9,0,0,0,.15-1.28,1.49,1.49,0,0,0-.15-.74.87.87,0,0,0-.49-.4,5.12,5.12,0,0,0-1.18-.18l.21-.9,3.87-.16h.95l-1.12,4.43.2.07a13.6,13.6,0,0,1,3.11-3.48,5.2,5.2,0,0,1,3.12-1.14,3.17,3.17,0,0,1,2.47.94A3.84,3.84,0,0,1,249,71.69Z"/><polyline points="412.59 60.18 431.89 88.5 442.75 8.84 921.72 8.84" style="fill:none;stroke:#000;stroke-miterlimit:10;stroke-width:2.4060029917370116px"/><path d="M459,45.81a6.16,6.16,0,0,1-2.93-.65A4.33,4.33,0,0,1,454.2,43a9.59,9.59,0,0,1-.67-3.92,27,27,0,0,1,.44-4.7,31.22,31.22,0,0,1,1.2-4.78A22.12,22.12,0,0,1,457,25.55a14.17,14.17,0,0,1,2.35-3.09,9.59,9.59,0,0,1,2.73-1.91,7.2,7.2,0,0,1,3-.66,6.14,6.14,0,0,1,2.57.48,4.41,4.41,0,0,1,1.69,1.35,5.35,5.35,0,0,1,.94,2.06,11.24,11.24,0,0,1,.29,2.62,29.4,29.4,0,0,1-1.17,8.08,23.94,23.94,0,0,1-3,6.79,10.92,10.92,0,0,1-3.59,3.5A7.43,7.43,0,0,1,459,45.81Zm-2.31-5.53a8.46,8.46,0,0,0,.26,2.35,2.25,2.25,0,0,0,.79,1.22,2.48,2.48,0,0,0,1.48.38,3.78,3.78,0,0,0,2.68-1.31A13.33,13.33,0,0,0,464.37,39a38,38,0,0,0,2.09-6.7,32.49,32.49,0,0,0,.94-7,5.49,5.49,0,0,0-.58-2.86,2,2,0,0,0-1.85-.9,3.3,3.3,0,0,0-1.59.41,5.84,5.84,0,0,0-1.82,1.65,15.47,15.47,0,0,0-2,3.67A37.61,37.61,0,0,0,458,31.82c-.32,1.26-.59,2.5-.81,3.71A24.94,24.94,0,0,0,456.71,40.28Z"/><path d="M476,41.21a12.86,12.86,0,0,1-.12,1.6,11.5,11.5,0,0,1-.4,1.78,8.06,8.06,0,0,1-.62,1.5,8.15,8.15,0,0,1-.91,1.34,12.41,12.41,0,0,1-1.5,1.49A22.82,22.82,0,0,1,470,50.69l-.85-1.15a15.74,15.74,0,0,0,1.37-1.26,5.79,5.79,0,0,0,.8-1.06,7.67,7.67,0,0,0,.57-1.25c.16-.48.34-1.16.54-2a24.29,24.29,0,0,0,.44-2.71Z"/><path d="M500,21.08,485.1,45.64h-2.74l.22-1,13.41-21,.06-.27H488.4a4.24,4.24,0,0,0-1.46.2,2.28,2.28,0,0,0-1,.71,8.32,8.32,0,0,0-1,2h-1.69l1.49-6h15.4Z"/><path d="M506.36,31.25a10.59,10.59,0,0,1,3.67-.62,6.69,6.69,0,0,1,3.22.73,4.91,4.91,0,0,1,2.09,2.07,6.59,6.59,0,0,1,.71,3.12A10.8,10.8,0,0,1,515,41.27a7.3,7.3,0,0,1-3.23,3.42,10.93,10.93,0,0,1-5.18,1.12,18.26,18.26,0,0,1-3.4-.35,16.37,16.37,0,0,1-3.25-1l.84-3.93h2.12c.08,2.45,1.34,3.67,3.8,3.67a5.11,5.11,0,0,0,3.3-1,6.29,6.29,0,0,0,2-2.82,10.2,10.2,0,0,0,.66-3.58,4.58,4.58,0,0,0-1-3.17,3.73,3.73,0,0,0-2.9-1.09,12.93,12.93,0,0,0-1.6.09,11,11,0,0,0-1.73.39l-1.57-1.19,2.56-11.63h9.2a2.85,2.85,0,0,0,.91-.11,1.09,1.09,0,0,0,.49-.34,3.32,3.32,0,0,0,.42-.78h1.49l-1.18,4.31h-9.58Z"/><path d="M542.73,28.48l-1.31,2-3.88-3.33-.72,5.8h-2.56l1.76-5.8-4.86,3.41-1.09-2.15L535.71,26l-4.44-2.49,1.36-2,3.91,3.34.7-5.81h2.56l-1.75,5.81,4.81-3.4,1.1,2.16L538.35,26Z"/><path d="M572.67,20.84l-1.11,5h-1.77a5.7,5.7,0,0,0-1-3.29,3.33,3.33,0,0,0-2.7-1,5.14,5.14,0,0,0-2.91.92,10.21,10.21,0,0,0-2.58,2.65,19,19,0,0,0-2.12,4.07A28.33,28.33,0,0,0,557.12,34a22.63,22.63,0,0,0-.48,4.36,7.9,7.9,0,0,0,1,4.45,3.47,3.47,0,0,0,3.08,1.42,6.33,6.33,0,0,0,2.41-.42,5.38,5.38,0,0,0,1.94-1.41,12.41,12.41,0,0,0,1.79-2.77h1.77l-1.13,5.27a26.9,26.9,0,0,1-3.63.74,28,28,0,0,1-3.59.22,7.55,7.55,0,0,1-3.89-1A6,6,0,0,1,554,42.09a10.56,10.56,0,0,1-.81-4.35,18.4,18.4,0,0,1,.18-2.6,30.66,30.66,0,0,1,.7-3.39,23.34,23.34,0,0,1,1.53-4.16,18.59,18.59,0,0,1,2.27-3.51,12.7,12.7,0,0,1,2.6-2.35,10.72,10.72,0,0,1,2.78-1.36,10.26,10.26,0,0,1,3.17-.48,23,23,0,0,1,3.1.2A21.7,21.7,0,0,1,572.67,20.84Z"/><path d="M578.75,45.83a5.92,5.92,0,0,1-4.43-1.61,6.39,6.39,0,0,1-1.58-4.64A14.2,14.2,0,0,1,573,37a15.63,15.63,0,0,1,1-3.45,11.53,11.53,0,0,1,2.13-3.24,8.91,8.91,0,0,1,3-2.08,9.27,9.27,0,0,1,3.62-.71,6.58,6.58,0,0,1,3.47.82,4.71,4.71,0,0,1,2,2.21,8,8,0,0,1,.61,3.24,15.22,15.22,0,0,1-.46,3.53,14.32,14.32,0,0,1-1.94,4.65,8.42,8.42,0,0,1-3.18,2.91A9.61,9.61,0,0,1,578.75,45.83ZM576,40.37a4.54,4.54,0,0,0,.83,3,3.17,3.17,0,0,0,2.54,1,4.13,4.13,0,0,0,3.2-1.63,11.67,11.67,0,0,0,2.21-4.57,19.84,19.84,0,0,0,.81-5.17,4.86,4.86,0,0,0-.77-3,2.84,2.84,0,0,0-2.41-1A4.36,4.36,0,0,0,579,30.58a11.32,11.32,0,0,0-2.24,4.62A20,20,0,0,0,576,40.37Z"/><path d="M602.49,32.1a4.08,4.08,0,0,0-.94-2.42,3.16,3.16,0,0,0-2.32-.75,3.6,3.6,0,0,0-1.56.32,2.53,2.53,0,0,0-1.51,2.4,2.91,2.91,0,0,0,.27,1.26,4.4,4.4,0,0,0,.93,1.17,15.05,15.05,0,0,0,1.84,1.41,8.81,8.81,0,0,1,2.5,2.34,4.79,4.79,0,0,1,.72,2.62,5.08,5.08,0,0,1-.83,3,5,5,0,0,1-2.26,1.81,8.56,8.56,0,0,1-3.25.59,18.07,18.07,0,0,1-3-.24,25.86,25.86,0,0,1-2.73-.61l.86-4h1.44a3.93,3.93,0,0,0,1,2.55,3.3,3.3,0,0,0,2.44.85,3.7,3.7,0,0,0,2.56-.83,2.8,2.8,0,0,0,.92-2.18,3.44,3.44,0,0,0-.28-1.43,3.92,3.92,0,0,0-.86-1.21,12.22,12.22,0,0,0-1.68-1.31,13.53,13.53,0,0,1-1.88-1.51,5.15,5.15,0,0,1-1.11-1.55,4.22,4.22,0,0,1-.4-1.86,4.63,4.63,0,0,1,.76-2.67,4.74,4.74,0,0,1,2.14-1.73,8.34,8.34,0,0,1,3.25-.59,16.58,16.58,0,0,1,5.37.8L604,32.1Z"/><path d="M622.58,53.59a8.35,8.35,0,0,1-4.24-1A5.46,5.46,0,0,1,616,49.88a12.07,12.07,0,0,1-.73-4.53,30.75,30.75,0,0,1,.33-4.27c.3-2,.73-4.24,1.28-6.7s1.11-4.5,1.65-6.12a22.84,22.84,0,0,1,2-4.52A10.49,10.49,0,0,1,622.93,21a8.91,8.91,0,0,1,2.93-1.53,14.81,14.81,0,0,1,4.33-.55l-.34,1.52a8.06,8.06,0,0,0-2.67.37,5.77,5.77,0,0,0-1.88,1.11,9.28,9.28,0,0,0-1.82,2.4,26,26,0,0,0-2,4.8q-.81,2.57-1.62,6.26c-.45,2-.8,3.83-1.07,5.43a35.85,35.85,0,0,0-.56,5.61,9,9,0,0,0,.53,3.41,3.3,3.3,0,0,0,1.51,1.75,5.65,5.65,0,0,0,2.59.51Z"/><path d="M634.79,31.25a10.59,10.59,0,0,1,3.67-.62,6.69,6.69,0,0,1,3.22.73,4.89,4.89,0,0,1,2.08,2.07,6.47,6.47,0,0,1,.72,3.12,10.67,10.67,0,0,1-1.1,4.72,7.29,7.29,0,0,1-3.22,3.42A11,11,0,0,1,635,45.81a18.24,18.24,0,0,1-3.39-.35,16.48,16.48,0,0,1-3.26-1l.85-3.93h2.12c.07,2.45,1.34,3.67,3.79,3.67a5.09,5.09,0,0,0,3.3-1,6.29,6.29,0,0,0,2-2.82,10,10,0,0,0,.67-3.58,4.53,4.53,0,0,0-1-3.17,3.69,3.69,0,0,0-2.89-1.09,12.93,12.93,0,0,0-1.6.09,11,11,0,0,0-1.73.39l-1.57-1.19,2.56-11.63H644a2.93,2.93,0,0,0,.92-.11,1,1,0,0,0,.48-.34,3,3,0,0,0,.43-.78h1.49l-1.18,4.31h-9.58Z"/><path d="M651.87,25.09l.75-3.57a22,22,0,0,1,3.8-1.25,17,17,0,0,1,3.61-.38,8.82,8.82,0,0,1,2.27.28,5.62,5.62,0,0,1,1.87.85,4.34,4.34,0,0,1,1.27,1.48,4.6,4.6,0,0,1,.47,2.14,6.56,6.56,0,0,1-.67,3,6.93,6.93,0,0,1-2.14,2.44,17.12,17.12,0,0,1-4.05,2.12v.2a6.41,6.41,0,0,1,3.5,2,5.1,5.1,0,0,1,1.21,3.45,7.89,7.89,0,0,1-.66,3.1,7.41,7.41,0,0,1-1.87,2.65,7.92,7.92,0,0,1-3,1.66,13.25,13.25,0,0,1-4.11.57,19.16,19.16,0,0,1-3.63-.38,14.64,14.64,0,0,1-3.16-.94l.84-3.93h2.12a3.83,3.83,0,0,0,1.13,2.78,4.31,4.31,0,0,0,3,.89,5.86,5.86,0,0,0,3.15-.81,5.45,5.45,0,0,0,2-2.4,8.45,8.45,0,0,0,.73-3.56,3.56,3.56,0,0,0-1.29-3,6.14,6.14,0,0,0-3.84-1h-1.84l.35-1.63a13.09,13.09,0,0,0,3.94-.82,8.33,8.33,0,0,0,2.79-1.68A6.19,6.19,0,0,0,662,27.15a6.33,6.33,0,0,0,.45-2.32,3.09,3.09,0,0,0-.91-2.38A3.42,3.42,0,0,0,659,21.6a4.71,4.71,0,0,0-2.92.87,6.78,6.78,0,0,0-2,2.62Z"/><path d="M671.71,41.21a11.36,11.36,0,0,1-.13,1.6,11.49,11.49,0,0,1-.39,1.78,8.8,8.8,0,0,1-.62,1.5,9.64,9.64,0,0,1-.91,1.34,14.08,14.08,0,0,1-1.5,1.49,22.07,22.07,0,0,1-2.44,1.77l-.84-1.15a17.37,17.37,0,0,0,1.37-1.26,6.28,6.28,0,0,0,.8-1.06,6.91,6.91,0,0,0,.56-1.25,19.05,19.05,0,0,0,.55-2,26.85,26.85,0,0,0,.44-2.71Z"/><path d="M685.68,40.15a11.33,11.33,0,0,0-.34,2.17,1.44,1.44,0,0,0,.39,1.11A2.6,2.6,0,0,0,687,44a22.92,22.92,0,0,0,2.77.21l-.27,1.35h-13l.28-1.35c1,0,1.82-.12,2.37-.2a5.54,5.54,0,0,0,1.34-.36,2.49,2.49,0,0,0,.82-.54,2.66,2.66,0,0,0,.55-.83,7.5,7.5,0,0,0,.46-1.56l2.95-13.45c.11-.52.19-.93.25-1.24a5.17,5.17,0,0,0,.08-.76,1,1,0,0,0-.27-.79,1,1,0,0,0-.67-.24,3.77,3.77,0,0,0-1.45.48q-1,.46-2.91,1.62l-.72-1.48,9.34-4.92h1.27l-.53,2.17c-.2.79-.41,1.71-.63,2.77Z"/><path d="M699.25,25.09l.76-3.57a21.69,21.69,0,0,1,3.79-1.25,17.07,17.07,0,0,1,3.61-.38,8.77,8.77,0,0,1,2.27.28,5.53,5.53,0,0,1,1.87.85,4.23,4.23,0,0,1,1.27,1.48,4.6,4.6,0,0,1,.47,2.14,6.69,6.69,0,0,1-.66,3,7,7,0,0,1-2.15,2.44,17,17,0,0,1-4,2.12l0,.2a6.41,6.41,0,0,1,3.5,2,5.11,5.11,0,0,1,1.22,3.45,7.91,7.91,0,0,1-.67,3.1,7.29,7.29,0,0,1-1.87,2.65,7.88,7.88,0,0,1-3,1.66,13.33,13.33,0,0,1-4.11.57,19.16,19.16,0,0,1-3.63-.38,14.57,14.57,0,0,1-3.17-.94l.85-3.93h2.12a3.79,3.79,0,0,0,1.12,2.78,4.32,4.32,0,0,0,3,.89,5.91,5.91,0,0,0,3.15-.81,5.36,5.36,0,0,0,2-2.4,8.3,8.3,0,0,0,.73-3.56,3.58,3.58,0,0,0-1.28-3,6.16,6.16,0,0,0-3.84-1h-1.84l.35-1.63A13.15,13.15,0,0,0,705,31a8.28,8.28,0,0,0,2.78-1.68,6.19,6.19,0,0,0,1.52-2.17,6.33,6.33,0,0,0,.45-2.32,3.12,3.12,0,0,0-.9-2.38,3.45,3.45,0,0,0-2.47-.85,4.66,4.66,0,0,0-2.91.87,6.78,6.78,0,0,0-2,2.62Z"/><path d="M719,18.89a8.35,8.35,0,0,1,4.24.94,5.5,5.5,0,0,1,2.35,2.76,12.16,12.16,0,0,1,.73,4.54A29.3,29.3,0,0,1,726,31.3c-.3,2.15-.75,4.55-1.37,7.18q-.87,3.66-1.66,6a21.59,21.59,0,0,1-2,4.33,10.22,10.22,0,0,1-2.36,2.74,8.57,8.57,0,0,1-2.93,1.5,14.81,14.81,0,0,1-4.32.56l.34-1.53a8,8,0,0,0,2.66-.37,5.65,5.65,0,0,0,1.85-1.09,9.27,9.27,0,0,0,1.88-2.47,26.4,26.4,0,0,0,1.94-4.8c.61-1.94,1.18-4.2,1.73-6.76.43-2,.76-3.73,1-5.27a34.69,34.69,0,0,0,.5-5.21,8.87,8.87,0,0,0-.54-3.44,3.3,3.3,0,0,0-1.52-1.74,5.73,5.73,0,0,0-2.57-.5Z"/><path d="M737.87,53.59a8.35,8.35,0,0,1-4.24-1,5.46,5.46,0,0,1-2.35-2.76,12.27,12.27,0,0,1-.73-4.53,29.39,29.39,0,0,1,.34-4.27c.29-2,.72-4.24,1.28-6.7s1.1-4.5,1.65-6.12a22.31,22.31,0,0,1,2-4.52A10.68,10.68,0,0,1,738.22,21a8.91,8.91,0,0,1,2.93-1.53,14.81,14.81,0,0,1,4.33-.55l-.33,1.52a8.09,8.09,0,0,0-2.68.37,5.77,5.77,0,0,0-1.88,1.11,9.51,9.51,0,0,0-1.82,2.4,26.72,26.72,0,0,0-1.95,4.8q-.81,2.57-1.62,6.26c-.45,2-.8,3.83-1.07,5.43a35.67,35.67,0,0,0-.55,5.61,9,9,0,0,0,.52,3.41,3.3,3.3,0,0,0,1.51,1.75,5.65,5.65,0,0,0,2.59.51Z"/><path d="M757.88,31.67v.25a5.1,5.1,0,0,1,3.1,5,10.5,10.5,0,0,1-.19,1.78,9,9,0,0,1-.86,2.58A7.68,7.68,0,0,1,758,43.66a8.82,8.82,0,0,1-2.94,1.59,12.19,12.19,0,0,1-3.84.58,10,10,0,0,1-4-.73,5.44,5.44,0,0,1-3.5-5.27,9.09,9.09,0,0,1,.57-3.13,7.43,7.43,0,0,1,1.88-2.83,11.22,11.22,0,0,1,3.37-2.11l0-.25a6.19,6.19,0,0,1-2-2.22,6,6,0,0,1-.63-2.76,9,9,0,0,1,.15-1.58,7.53,7.53,0,0,1,.76-2.23,7.14,7.14,0,0,1,1.83-2.15,9.09,9.09,0,0,1,2.84-1.48,11.21,11.21,0,0,1,3.59-.55,10.34,10.34,0,0,1,4.24.76,5.2,5.2,0,0,1,2.39,2,5.42,5.42,0,0,1,.74,2.84,7.86,7.86,0,0,1-.6,3A7.46,7.46,0,0,1,761,29.84,8.86,8.86,0,0,1,757.88,31.67Zm-10.65,8.51a3.92,3.92,0,0,0,1.06,3,4.3,4.3,0,0,0,3.11,1,5.42,5.42,0,0,0,2.77-.68A5.32,5.32,0,0,0,756,41.71a8.82,8.82,0,0,0,1.08-2.58,11.3,11.3,0,0,0,.37-2.8,4,4,0,0,0-1-2.86,4,4,0,0,0-2.93-1,5.8,5.8,0,0,0-2.81.66,5.65,5.65,0,0,0-2,1.79,8.21,8.21,0,0,0-1.17,2.54A9.73,9.73,0,0,0,747.23,40.18Zm3-13a5.94,5.94,0,0,0,.16,1.42,2.86,2.86,0,0,0,.6,1.19,2.94,2.94,0,0,0,1.16.82,5.06,5.06,0,0,0,1.9.31,5.4,5.4,0,0,0,3-.84,6,6,0,0,0,2.11-2.5A8.25,8.25,0,0,0,760,24a3.76,3.76,0,0,0-1-2.82,4,4,0,0,0-2.86-.93,5.55,5.55,0,0,0-3.28.95,5.62,5.62,0,0,0-2,2.65A9.38,9.38,0,0,0,750.28,27.15Z"/><path d="M771.51,45.83a6.4,6.4,0,0,1-3.08-.69,4.5,4.5,0,0,1-2-2.24,10.13,10.13,0,0,1-.71-4.12,29,29,0,0,1,.47-5,32.89,32.89,0,0,1,1.27-5,23.22,23.22,0,0,1,1.93-4.3,15.15,15.15,0,0,1,2.47-3.25,10.26,10.26,0,0,1,2.88-2,7.6,7.6,0,0,1,3.16-.69,6.42,6.42,0,0,1,2.71.51,4.63,4.63,0,0,1,1.78,1.42,5.65,5.65,0,0,1,1,2.16,11.94,11.94,0,0,1,.3,2.77,31,31,0,0,1-1.23,8.5A25,25,0,0,1,779.33,41a11.61,11.61,0,0,1-3.79,3.69A7.85,7.85,0,0,1,771.51,45.83ZM769.09,40a8.93,8.93,0,0,0,.27,2.47,2.4,2.4,0,0,0,.83,1.29,2.69,2.69,0,0,0,1.55.4,4,4,0,0,0,2.83-1.39,13.62,13.62,0,0,0,2.57-4.14,40.32,40.32,0,0,0,2.21-7,34.36,34.36,0,0,0,1-7.42,5.71,5.71,0,0,0-.61-3,2.13,2.13,0,0,0-1.94-.95,3.61,3.61,0,0,0-1.67.43,6.12,6.12,0,0,0-1.92,1.74,16.41,16.41,0,0,0-2.14,3.87,41,41,0,0,0-1.57,4.86c-.33,1.33-.62,2.63-.85,3.91A26.8,26.8,0,0,0,769.09,40Z"/><path d="M805.18,35.4l-1.63,7.44h-2.91l1.63-7.44h-6.61l.58-2.64h6.59l1.61-7.42h2.91l-1.61,7.42h6.67l-.58,2.64Z"/><path d="M827.67,25.09l.75-3.57a21.77,21.77,0,0,1,3.8-1.25,17,17,0,0,1,3.61-.38,8.82,8.82,0,0,1,2.27.28A5.62,5.62,0,0,1,840,21a4.34,4.34,0,0,1,1.27,1.48,4.6,4.6,0,0,1,.47,2.14,6.56,6.56,0,0,1-.67,3,6.93,6.93,0,0,1-2.14,2.44,17.12,17.12,0,0,1-4,2.12l0,.2a6.38,6.38,0,0,1,3.5,2,5.06,5.06,0,0,1,1.22,3.45,7.89,7.89,0,0,1-.66,3.1A7.41,7.41,0,0,1,837,43.58a7.92,7.92,0,0,1-3,1.66,13.33,13.33,0,0,1-4.11.57,19.16,19.16,0,0,1-3.63-.38,14.74,14.74,0,0,1-3.17-.94l.85-3.93h2.12a3.83,3.83,0,0,0,1.12,2.78,4.36,4.36,0,0,0,3,.89,5.86,5.86,0,0,0,3.15-.81,5.45,5.45,0,0,0,2-2.4,8.45,8.45,0,0,0,.72-3.56,3.55,3.55,0,0,0-1.28-3,6.14,6.14,0,0,0-3.84-1h-1.84l.35-1.63a13.09,13.09,0,0,0,3.94-.82,8.33,8.33,0,0,0,2.79-1.68,6.12,6.12,0,0,0,2-4.49,3.09,3.09,0,0,0-.91-2.38,3.43,3.43,0,0,0-2.47-.85,4.7,4.7,0,0,0-2.91.87A6.78,6.78,0,0,0,830,25.09Z"/><path d="M850.49,45.81a6.14,6.14,0,0,1-2.92-.65A4.33,4.33,0,0,1,845.68,43a9.58,9.58,0,0,1-.68-3.92,27,27,0,0,1,.45-4.7,31.22,31.22,0,0,1,1.2-4.78,22.12,22.12,0,0,1,1.84-4.08,14.17,14.17,0,0,1,2.35-3.09,9.59,9.59,0,0,1,2.73-1.91,7.2,7.2,0,0,1,3-.66,6.17,6.17,0,0,1,2.57.48,4.41,4.41,0,0,1,1.69,1.35,5.35,5.35,0,0,1,.94,2.06,11.24,11.24,0,0,1,.29,2.62,29.79,29.79,0,0,1-1.17,8.08,23.94,23.94,0,0,1-3,6.79,10.92,10.92,0,0,1-3.59,3.5A7.44,7.44,0,0,1,850.49,45.81Zm-2.3-5.53a8.46,8.46,0,0,0,.26,2.35,2.25,2.25,0,0,0,.79,1.22,2.48,2.48,0,0,0,1.48.38,3.78,3.78,0,0,0,2.68-1.31A13.33,13.33,0,0,0,855.85,39a38,38,0,0,0,2.09-6.7,32.49,32.49,0,0,0,.94-7,5.49,5.49,0,0,0-.58-2.86,2,2,0,0,0-1.85-.9,3.3,3.3,0,0,0-1.59.41A5.84,5.84,0,0,0,853,23.53a15.47,15.47,0,0,0-2,3.67,37.61,37.61,0,0,0-1.49,4.62c-.32,1.26-.59,2.5-.81,3.71A24.94,24.94,0,0,0,848.19,40.28Z"/><path d="M867.44,41.21a12.86,12.86,0,0,1-.12,1.6,11.5,11.5,0,0,1-.4,1.78,8.06,8.06,0,0,1-.62,1.5,8.84,8.84,0,0,1-.91,1.34,12.41,12.41,0,0,1-1.5,1.49,22.82,22.82,0,0,1-2.43,1.77l-.85-1.15A15.74,15.74,0,0,0,862,48.28a5.79,5.79,0,0,0,.8-1.06,7.67,7.67,0,0,0,.57-1.25c.16-.48.34-1.16.54-2a26.85,26.85,0,0,0,.44-2.71Z"/><path d="M884.76,33.55a10.69,10.69,0,0,1-2.67,1.32,9,9,0,0,1-2.78.44,5.77,5.77,0,0,1-3-.76,5.08,5.08,0,0,1-2-2.16,7.4,7.4,0,0,1-.69-3.3A11.08,11.08,0,0,1,874,26.5a9.06,9.06,0,0,1,1-2.56,8.22,8.22,0,0,1,1.78-2.1,7.76,7.76,0,0,1,2.53-1.44,9.47,9.47,0,0,1,3.18-.51,6.69,6.69,0,0,1,2.91.6,5.87,5.87,0,0,1,2.08,1.67,7.45,7.45,0,0,1,1.25,2.54,11.18,11.18,0,0,1,.43,3.21,21,21,0,0,1-.35,3.58,18.86,18.86,0,0,1-.91,3.26,19.46,19.46,0,0,1-1.49,3.12,17.48,17.48,0,0,1-2,2.69,16.54,16.54,0,0,1-2.36,2.17,15.67,15.67,0,0,1-2.65,1.62,15.45,15.45,0,0,1-2.93,1,14.47,14.47,0,0,1-3,.43l-.68-1,.18-.91a14.3,14.3,0,0,0,5.5-1.46,11.43,11.43,0,0,0,3.9-3.36A18.5,18.5,0,0,0,885,33.62Zm-4.16-.11a6.62,6.62,0,0,0,3.92-1.38,3.54,3.54,0,0,0,.87-.87,4.13,4.13,0,0,0,.51-1.54,16.8,16.8,0,0,0,.17-2.63,7.1,7.1,0,0,0-1-4.15,3.44,3.44,0,0,0-3-1.4,4.07,4.07,0,0,0-2.63,1,6.45,6.45,0,0,0-1.88,2.77,10.63,10.63,0,0,0-.68,3.89,5.11,5.11,0,0,0,.87,3.27A3.51,3.51,0,0,0,880.6,33.44Z"/><path d="M897.84,31.25a10.59,10.59,0,0,1,3.67-.62,6.69,6.69,0,0,1,3.22.73,4.89,4.89,0,0,1,2.08,2.07,6.47,6.47,0,0,1,.72,3.12,10.8,10.8,0,0,1-1.09,4.72,7.3,7.3,0,0,1-3.23,3.42A11,11,0,0,1,898,45.81a18.26,18.26,0,0,1-3.4-.35,16.17,16.17,0,0,1-3.25-1l.84-3.93h2.12c.08,2.45,1.34,3.67,3.8,3.67a5.08,5.08,0,0,0,3.29-1,6.3,6.3,0,0,0,2-2.82,10.2,10.2,0,0,0,.66-3.58,4.53,4.53,0,0,0-1-3.17,3.69,3.69,0,0,0-2.89-1.09,12.93,12.93,0,0,0-1.6.09,11,11,0,0,0-1.73.39l-1.57-1.19,2.56-11.63H907a2.85,2.85,0,0,0,.91-.11,1.09,1.09,0,0,0,.49-.34,3.32,3.32,0,0,0,.42-.78h1.49l-1.18,4.31h-9.58Z"/><path d="M914.74,18.89a8.34,8.34,0,0,1,4.23.94,5.45,5.45,0,0,1,2.35,2.76,12.16,12.16,0,0,1,.73,4.54,29.3,29.3,0,0,1-.33,4.17c-.3,2.15-.75,4.55-1.36,7.18-.58,2.44-1.14,4.43-1.66,6a22.77,22.77,0,0,1-2,4.33,10.58,10.58,0,0,1-2.36,2.74,8.71,8.71,0,0,1-2.94,1.5,14.78,14.78,0,0,1-4.31.56l.33-1.53a8,8,0,0,0,2.66-.37A5.65,5.65,0,0,0,912,50.6a9.07,9.07,0,0,0,1.88-2.47,26.36,26.36,0,0,0,1.95-4.8c.6-1.94,1.18-4.2,1.72-6.76.43-2,.77-3.73,1-5.27a34.69,34.69,0,0,0,.5-5.21,8.87,8.87,0,0,0-.54-3.44A3.3,3.3,0,0,0,917,20.91a5.7,5.7,0,0,0-2.57-.5Z"/><line x1="452.25" y1="55.56" x2="921.82" y2="56.95" style="fill:none;stroke:#000;stroke-miterlimit:10;stroke-width:2px"/><path d="M711.75,91.35a2.41,2.41,0,0,0,1-.27,1.7,1.7,0,0,0,.55-.55,4.06,4.06,0,0,0,.46-1c.15-.46.33-1.19.55-2.18l.47-2.18h-9l.33-1.61L718.4,68.74h2.82L718,83.46h.58a4.17,4.17,0,0,0,1.31-.15,1.52,1.52,0,0,0,.69-.49,5.36,5.36,0,0,0,.65-1.22h1.52l-1,3.52h-4.14l-.55,2.46c-.1.49-.17.93-.21,1.31s-.06.7-.06.94a1.46,1.46,0,0,0,.36,1.12,2.12,2.12,0,0,0,1.3.4l-.18.84h-6.74Zm-3-7.89h6.38l.92-4.26c.48-2.23,1-4.46,1.63-6.7h-.24l-8.64,10.72Z"/></svg>