<svg id="Capa_1" data-name="Capa 1" xmlns="http://www.w3.org/2000/svg" viewBox="0 0 146.22 63.45"><path d="M54.53,40.77c-.09.37-.16.69-.21.94a8.92,8.92,0,0,0-.12,1,9.29,9.29,0,0,0-.06,1,1.84,1.84,0,0,0,.18.9,1.1,1.1,0,0,0,.55.47,4.91,4.91,0,0,0,1.27.22l-.2.91H48.4l.2-.91a2.37,2.37,0,0,0,1-.36,1.83,1.83,0,0,0,.59-.69,6.19,6.19,0,0,0,.44-1.08c.14-.42.34-1.25.61-2.47L54.4,26.41a14.36,14.36,0,0,0,.4-2.92,1.55,1.55,0,0,0-.42-1.25A2.35,2.35,0,0,0,53,21.83l.2-.91H69.76L68.49,26.6H66.73c0-.88-.12-1.56-.2-2.06a4.1,4.1,0,0,0-.33-1.12,1.47,1.47,0,0,0-.43-.55,1.59,1.59,0,0,0-.59-.25,5.38,5.38,0,0,0-1-.07H58.51L56.32,32.6h3.43a3.44,3.44,0,0,0,1.34-.22,2.44,2.44,0,0,0,1-.8,11.2,11.2,0,0,0,1.14-2h1.67l-1.78,7.8H61.5c0-.76,0-1.36,0-1.79a1.93,1.93,0,0,0-.22-.91.91.91,0,0,0-.49-.36,4.47,4.47,0,0,0-1.17-.1H56Z"/><line x1="52.96" y1="12.42" x2="71.02" y2="12.42" style="fill:none;stroke:#000;stroke-miterlimit:10;stroke-width:1.7203692985581809px"/><polygon points="67.59 15.34 70.51 12.42 67.59 9.5 70.07 9.5 72.98 12.42 70.07 15.34 67.59 15.34"/><path d="M11.62,5.94l11.12,22.4v2.3L10.28,53.36h15a7.22,7.22,0,0,0,2.14-.24,3.19,3.19,0,0,0,1.23-.74,4.94,4.94,0,0,0,.94-1.4,13.55,13.55,0,0,0,.81-2.46c.25-1.06.5-2.43.73-4.13h2.67l-.66,14.79H4.2v-1.7L18.31,31.76,5.07,4.52V2.79h28.2V16.27H30.8c-.38-1.91-.74-3.48-1.08-4.69a16.31,16.31,0,0,0-1-2.88,6.13,6.13,0,0,0-1.1-1.62,3.72,3.72,0,0,0-1.29-.85,5.39,5.39,0,0,0-1.94-.29Z"/><path d="M105,31.67H88.77V28.85H105Zm0,7.48H88.77V36.32H105Z"/><path d="M131.16,44.81a6.27,6.27,0,0,1-2.95-.65A4.39,4.39,0,0,1,126.3,42a9.7,9.7,0,0,1-.68-4,27.58,27.58,0,0,1,.45-4.75,31.74,31.74,0,0,1,1.22-4.82,22.54,22.54,0,0,1,1.85-4.12,14.69,14.69,0,0,1,2.37-3.11,9.41,9.41,0,0,1,2.76-1.93,7.18,7.18,0,0,1,3-.67,6,6,0,0,1,2.59.49,4.42,4.42,0,0,1,1.71,1.36,5.45,5.45,0,0,1,1,2.08,11.44,11.44,0,0,1,.29,2.65,29.59,29.59,0,0,1-1.18,8.15,24,24,0,0,1-3,6.84A11.07,11.07,0,0,1,135,43.76,7.55,7.55,0,0,1,131.16,44.81Zm-2.32-5.58a8.62,8.62,0,0,0,.26,2.37,2.26,2.26,0,0,0,.8,1.24,2.56,2.56,0,0,0,1.49.38,3.79,3.79,0,0,0,2.7-1.33,13.33,13.33,0,0,0,2.47-4,37.89,37.89,0,0,0,2.11-6.76,32,32,0,0,0,1-7.11,5.53,5.53,0,0,0-.58-2.9,2.08,2.08,0,0,0-1.87-.91,3.33,3.33,0,0,0-1.6.42,5.82,5.82,0,0,0-1.84,1.66,16.18,16.18,0,0,0-2,3.71,39.5,39.5,0,0,0-1.5,4.66c-.32,1.28-.6,2.52-.82,3.75A25.25,25.25,0,0,0,128.84,39.23Z"/></svg>