<svg id="Capa_1" data-name="Capa 1" xmlns="http://www.w3.org/2000/svg" viewBox="0 0 506.66 68.56"><path d="M124.44,47.2a6.16,6.16,0,0,1-3-.66,4.31,4.31,0,0,1-1.9-2.15,9.57,9.57,0,0,1-.68-4,28.54,28.54,0,0,1,.44-4.75,33,33,0,0,1,1.22-4.82,22.54,22.54,0,0,1,1.85-4.12,15,15,0,0,1,2.37-3.12,9.56,9.56,0,0,1,2.76-1.92,7.18,7.18,0,0,1,3-.67,6.09,6.09,0,0,1,2.6.49,4.33,4.33,0,0,1,1.71,1.36,5.46,5.46,0,0,1,.94,2.07,11,11,0,0,1,.29,2.65,29.65,29.65,0,0,1-1.18,8.16,23.89,23.89,0,0,1-3,6.84,11.07,11.07,0,0,1-3.63,3.54A7.54,7.54,0,0,1,124.44,47.2Zm-2.33-5.58a8.62,8.62,0,0,0,.26,2.37,2.25,2.25,0,0,0,.8,1.23,2.51,2.51,0,0,0,1.49.39,3.83,3.83,0,0,0,2.7-1.33,13.33,13.33,0,0,0,2.48-4A39,39,0,0,0,132,33.55a32.6,32.6,0,0,0,1-7.12,5.5,5.5,0,0,0-.59-2.89,2.07,2.07,0,0,0-1.87-.91,3.46,3.46,0,0,0-1.6.41A6.1,6.1,0,0,0,127,24.71a15.82,15.82,0,0,0-2,3.71,37.65,37.65,0,0,0-1.51,4.66c-.32,1.27-.59,2.52-.82,3.74A26.28,26.28,0,0,0,122.11,41.62Z"/><path d="M150.82,42.56a13.39,13.39,0,0,1-.13,1.61,11.37,11.37,0,0,1-.4,1.79,9.05,9.05,0,0,1-.62,1.52,9.25,9.25,0,0,1-.92,1.35,12.75,12.75,0,0,1-1.52,1.5,22.17,22.17,0,0,1-2.45,1.79L143.92,51a16.33,16.33,0,0,0,1.39-1.27,6.33,6.33,0,0,0,.8-1.07,6.71,6.71,0,0,0,.57-1.26,19,19,0,0,0,.55-2.07,25.06,25.06,0,0,0,.45-2.73ZM153.55,30l-1,4.34h-3.53L150,30Z"/><path d="M176.59,46.9h-7.83L169,46a3,3,0,0,0,1.08-.29,1.82,1.82,0,0,0,.62-.59,4.85,4.85,0,0,0,.55-1.23,22.5,22.5,0,0,0,.65-2.55l4-18.33h-2.36a4.3,4.3,0,0,0-1.84.33,4,4,0,0,0-1.37,1.26,18.18,18.18,0,0,0-1.68,3.07h-1.78l1.39-6.31h19.41l-1.45,6.59h-1.78a26,26,0,0,0-.1-2.72,3.82,3.82,0,0,0-.35-1.39,1.39,1.39,0,0,0-.64-.65,3.51,3.51,0,0,0-1.35-.18h-2.75l-4,18.46c-.11.49-.18.87-.23,1.16s-.08.59-.11.91-.05.6-.05.85a1.9,1.9,0,0,0,.19.91,1.06,1.06,0,0,0,.56.48,4.92,4.92,0,0,0,1.28.22Z"/><path d="M186.79,40.14l.51-2.55a19.83,19.83,0,0,1,2.64-.77,13,13,0,0,1,2.58-.26,6.33,6.33,0,0,1,2.1.34A3.3,3.3,0,0,1,196.15,38a2.77,2.77,0,0,1,.59,1.83,3.66,3.66,0,0,1-.42,1.71A4.4,4.4,0,0,1,195,43a11,11,0,0,1-2.41,1.23v.19a4.2,4.2,0,0,1,2.19,1.27,3.14,3.14,0,0,1,.75,2.1,4.67,4.67,0,0,1-.42,1.94,4.32,4.32,0,0,1-1.27,1.6,5.73,5.73,0,0,1-2.07,1,10.23,10.23,0,0,1-2.77.35,15.4,15.4,0,0,1-2.59-.24,14.74,14.74,0,0,1-2.35-.57l.59-2.75h1.67a2.39,2.39,0,0,0,.79,1.66,3.17,3.17,0,0,0,2.06.56,3.73,3.73,0,0,0,2.8-1,3.91,3.91,0,0,0,1-2.85,2,2,0,0,0-.86-1.7,4.64,4.64,0,0,0-2.58-.59H188l.28-1.38a11.36,11.36,0,0,0,2.5-.38,6.13,6.13,0,0,0,1.72-.74,3.79,3.79,0,0,0,1-.94,3.21,3.21,0,0,0,.49-1,3.58,3.58,0,0,0,.13-1,1.72,1.72,0,0,0-.57-1.37,2.42,2.42,0,0,0-1.64-.5,3.37,3.37,0,0,0-2,.55,4.06,4.06,0,0,0-1.3,1.68Z"/><path d="M490.1,52.42a6.12,6.12,0,0,1-3-.66,4.36,4.36,0,0,1-1.91-2.15,9.73,9.73,0,0,1-.68-4,27.4,27.4,0,0,1,.45-4.75,30.61,30.61,0,0,1,1.22-4.82A22.9,22.9,0,0,1,488.07,32a14.52,14.52,0,0,1,2.37-3.12,10,10,0,0,1,2.77-1.93,7.29,7.29,0,0,1,3-.66,6.21,6.21,0,0,1,2.59.48,4.52,4.52,0,0,1,1.71,1.36,5.45,5.45,0,0,1,.95,2.08,11.51,11.51,0,0,1,.29,2.65A29.91,29.91,0,0,1,500.6,41a23.83,23.83,0,0,1-3,6.85A11.15,11.15,0,0,1,494,51.37,7.55,7.55,0,0,1,490.1,52.42Zm-2.32-5.58A8.13,8.13,0,0,0,488,49.2a2.26,2.26,0,0,0,.8,1.24,2.48,2.48,0,0,0,1.48.38A3.81,3.81,0,0,0,493,49.49a13.2,13.2,0,0,0,2.47-4,38,38,0,0,0,2.11-6.75,32.6,32.6,0,0,0,.95-7.12,5.48,5.48,0,0,0-.59-2.89,2,2,0,0,0-1.86-.91,3.43,3.43,0,0,0-1.6.41,5.86,5.86,0,0,0-1.84,1.67,15.73,15.73,0,0,0-2.05,3.7,37.92,37.92,0,0,0-1.5,4.67c-.33,1.27-.6,2.52-.82,3.74A25.43,25.43,0,0,0,487.78,46.84Z"/><path d="M51.62,42.8c-.08.34-.14.63-.19.88s-.08.53-.12.88-.05.66-.05.93a1.78,1.78,0,0,0,.17.84,1.08,1.08,0,0,0,.52.44,4.41,4.41,0,0,0,1.18.2l-.19.85h-7l.19-.85a2.37,2.37,0,0,0,1-.33,1.87,1.87,0,0,0,.55-.65A5.42,5.42,0,0,0,48,45q.19-.6.57-2.31L51.5,29.38a13.72,13.72,0,0,0,.38-2.73,1.44,1.44,0,0,0-.4-1.17,2.16,2.16,0,0,0-1.28-.38l.19-.85H65.85l-1.18,5.3H63a16.66,16.66,0,0,0-.19-1.92,3.74,3.74,0,0,0-.3-1.05,1.54,1.54,0,0,0-.4-.51,1.6,1.6,0,0,0-.56-.23,5.51,5.51,0,0,0-1-.07H55.34l-2,9.39h3.21a3.24,3.24,0,0,0,1.25-.2,2.45,2.45,0,0,0,.93-.75,12.12,12.12,0,0,0,1.06-1.86h1.56l-1.66,7.29H58.14c0-.72,0-1.28,0-1.68a1.82,1.82,0,0,0-.2-.84.82.82,0,0,0-.47-.34,4.15,4.15,0,0,0-1.08-.1H53Z"/><path d="M73.43,40.53q-2.36,2.52-4.94,5l1.13,2.66c.3.72.54,1.24.72,1.58a3.36,3.36,0,0,0,.49.73,1.58,1.58,0,0,0,.44.33A2.7,2.7,0,0,0,72,51l-.13.6h-3l-1.69-4.89c-.2.17-.46.4-.78.71s-.63.63-.93,1a6,6,0,0,0-.63.83,2.41,2.41,0,0,0-.24.55,2.52,2.52,0,0,0,0,.48.66.66,0,0,0,.18.49,1,1,0,0,0,.6.26l-.14.6H61.66l-.23-.6c1.77-1.91,3.52-3.66,5.24-5.27L65.51,43q-.35-.83-.57-1.26a3,3,0,0,0-.42-.67,1.31,1.31,0,0,0-.46-.36,2.08,2.08,0,0,0-.75-.17l.14-.59h3l1.62,4.58a15.06,15.06,0,0,0,1.13-1.13,8.62,8.62,0,0,0,.76-.92,3.08,3.08,0,0,0,.3-.61,1.77,1.77,0,0,0,.09-.56c0-.45-.26-.7-.78-.77l.13-.59h3.47Z"/><path d="M11.27,8.74l11.42,23v2.37L9.88,57.47H25.32a7.24,7.24,0,0,0,2.2-.25,3.23,3.23,0,0,0,1.26-.76,4.76,4.76,0,0,0,1-1.43,14.52,14.52,0,0,0,.83-2.54,39.11,39.11,0,0,0,.75-4.24h2.75l-.68,15.2H3.64V61.71l14.5-26.44L4.53,7.27V5.5h29V19.36H31c-.39-2-.76-3.59-1.12-4.83a16.61,16.61,0,0,0-1.08-3A6.52,6.52,0,0,0,27.66,9.9,4,4,0,0,0,26.33,9a5.7,5.7,0,0,0-2-.29Z"/><path d="M105,32.94H88.33V30H105Zm0,7.68H88.33v-2.9H105Z"/><path d="M469.21,38.73H452.5v-2.9h16.71Zm0,7.68H452.5v-2.9h16.71Z"/><path d="M224.78,35a8.26,8.26,0,0,0-.23-2.06,1.85,1.85,0,0,0-.63-1,2.11,2.11,0,0,0-1.24-.31,4.65,4.65,0,0,0-3.37,1.5,11.07,11.07,0,0,0-2.45,4.27,16.38,16.38,0,0,0-1,5.31,7.75,7.75,0,0,0,.14,1.48,3.41,3.41,0,0,0,.49,1.2,2.33,2.33,0,0,0,.91.79,3.08,3.08,0,0,0,1.44.29,6.27,6.27,0,0,0,2.93-.64,11.18,11.18,0,0,0,2.61-2L225.56,45A12.33,12.33,0,0,1,222,47.87a8.45,8.45,0,0,1-3.82.89,5.09,5.09,0,0,1-4.09-1.61,6.94,6.94,0,0,1-1.4-4.68,14.87,14.87,0,0,1,.75-4.4,12.93,12.93,0,0,1,2.17-4.21A9.31,9.31,0,0,1,219,31.14a9.65,9.65,0,0,1,4.09-.89,17.77,17.77,0,0,1,2.59.16c.74.12,1.4.25,2,.4L226.73,35Z"/><path d="M235.21,48.76a6,6,0,0,1-4.47-1.62,6.45,6.45,0,0,1-1.59-4.69,14.49,14.49,0,0,1,.28-2.64,15.89,15.89,0,0,1,1-3.48,11.3,11.3,0,0,1,2.14-3.27,9.12,9.12,0,0,1,3-2.09,9.33,9.33,0,0,1,3.66-.72,6.69,6.69,0,0,1,3.5.82,4.78,4.78,0,0,1,2,2.24,8.1,8.1,0,0,1,.62,3.26,14.91,14.91,0,0,1-.47,3.56,14.75,14.75,0,0,1-1.95,4.7,8.58,8.58,0,0,1-3.22,2.93A9.63,9.63,0,0,1,235.21,48.76Zm-2.8-5.5a4.6,4.6,0,0,0,.84,3,3.18,3.18,0,0,0,2.56,1A4.16,4.16,0,0,0,239,45.64,11.86,11.86,0,0,0,241.27,41a19.75,19.75,0,0,0,.82-5.21,5,5,0,0,0-.78-3.05,2.86,2.86,0,0,0-2.43-1,4.41,4.41,0,0,0-3.38,1.63A11.59,11.59,0,0,0,233.23,38,20.44,20.44,0,0,0,232.41,43.26Z"/><path d="M259.18,34.91a4.15,4.15,0,0,0-1-2.45,3.18,3.18,0,0,0-2.33-.75,3.81,3.81,0,0,0-1.58.32,2.62,2.62,0,0,0-1.12,1,2.66,2.66,0,0,0-.41,1.47,2.77,2.77,0,0,0,.28,1.26,4.32,4.32,0,0,0,.94,1.19,15.2,15.2,0,0,0,1.85,1.42,9,9,0,0,1,2.53,2.36,4.89,4.89,0,0,1,.72,2.64,5.23,5.23,0,0,1-.83,3A5,5,0,0,1,256,48.15a8.51,8.51,0,0,1-3.27.6,18.4,18.4,0,0,1-3.06-.25,26.44,26.44,0,0,1-2.76-.62l.87-4h1.45a3.91,3.91,0,0,0,1,2.57,3.3,3.3,0,0,0,2.46.86,3.74,3.74,0,0,0,2.59-.84,2.84,2.84,0,0,0,.93-2.2,3.7,3.7,0,0,0-.28-1.44,4,4,0,0,0-.88-1.22,13.13,13.13,0,0,0-1.69-1.33,14.64,14.64,0,0,1-1.9-1.51,5.59,5.59,0,0,1-1.12-1.57,4.28,4.28,0,0,1-.4-1.88,4.72,4.72,0,0,1,.76-2.69,4.66,4.66,0,0,1,2.17-1.74,8.28,8.28,0,0,1,3.28-.6,16.56,16.56,0,0,1,5.41.8l-.86,3.86Z"/><path d="M271.06,56.59a8.51,8.51,0,0,1-4.28-1,5.52,5.52,0,0,1-2.37-2.79,12.29,12.29,0,0,1-.73-4.57A31.3,31.3,0,0,1,264,44q.45-3,1.29-6.76c.57-2.48,1.12-4.54,1.67-6.18a22.44,22.44,0,0,1,2-4.56,10.71,10.71,0,0,1,2.4-2.8,9.05,9.05,0,0,1,3-1.53,14.71,14.71,0,0,1,4.36-.56l-.33,1.53a8.23,8.23,0,0,0-2.7.38,5.67,5.67,0,0,0-1.89,1.12A9.16,9.16,0,0,0,272,27a27.6,27.6,0,0,0-2,4.85c-.55,1.73-1.09,3.83-1.64,6.32-.45,2-.8,3.86-1.08,5.48a36.34,36.34,0,0,0-.55,5.66,9.11,9.11,0,0,0,.52,3.44,3.39,3.39,0,0,0,1.53,1.77,5.71,5.71,0,0,0,2.61.52Z"/><path d="M282.69,35a12.6,12.6,0,0,1,2.83-1.33,9,9,0,0,1,2.83-.44,5.83,5.83,0,0,1,2.83.68,4.88,4.88,0,0,1,2,2.09,7.14,7.14,0,0,1,.75,3.42,12.14,12.14,0,0,1-.32,2.71,9.07,9.07,0,0,1-1,2.58,7.93,7.93,0,0,1-1.8,2.12,8.54,8.54,0,0,1-2.57,1.43,10,10,0,0,1-3.34.53,6.57,6.57,0,0,1-2.91-.61,5.63,5.63,0,0,1-2.05-1.69,7.41,7.41,0,0,1-1.23-2.52,11.48,11.48,0,0,1-.41-3.12,20.22,20.22,0,0,1,1.13-6.67,16.52,16.52,0,0,1,2.17-4.07A17.09,17.09,0,0,1,285,26.55a19.39,19.39,0,0,1,9.52-4l.69,1-.19.91a13.11,13.11,0,0,0-7.65,3,16.52,16.52,0,0,0-4.84,7.37Zm-1.41,6.76a6.77,6.77,0,0,0,1,4.08,3.62,3.62,0,0,0,3.06,1.35,4.22,4.22,0,0,0,2.68-1,6.4,6.4,0,0,0,1.89-2.71,10.8,10.8,0,0,0,.68-3.93c0-3-1.23-4.47-3.67-4.47a6.26,6.26,0,0,0-1.23.12,6.44,6.44,0,0,0-1.23.38,7.05,7.05,0,0,0-1.18.64,5.12,5.12,0,0,0-.89.69,2.62,2.62,0,0,0-.45.6,4.32,4.32,0,0,0-.3.79c-.07.31-.16.86-.26,1.66A14.46,14.46,0,0,0,281.28,41.72Z"/><path d="M303.54,48.75a6.16,6.16,0,0,1-3-.66,4.35,4.35,0,0,1-1.9-2.15A9.57,9.57,0,0,1,298,42a28.36,28.36,0,0,1,.44-4.75,33,33,0,0,1,1.22-4.82,22.24,22.24,0,0,1,1.85-4.12,14.52,14.52,0,0,1,2.37-3.12,9.8,9.8,0,0,1,2.76-1.93,7.32,7.32,0,0,1,3-.66,6.29,6.29,0,0,1,2.6.48A4.52,4.52,0,0,1,314,24.43a5.44,5.44,0,0,1,.94,2.08,11,11,0,0,1,.29,2.65A29.53,29.53,0,0,1,314,37.31a24.11,24.11,0,0,1-3,6.85,11.27,11.27,0,0,1-3.63,3.54A7.54,7.54,0,0,1,303.54,48.75Zm-2.33-5.58a8.49,8.49,0,0,0,.26,2.36,2.32,2.32,0,0,0,.8,1.24,2.51,2.51,0,0,0,1.49.38,3.79,3.79,0,0,0,2.7-1.33,13.2,13.2,0,0,0,2.48-4,38.86,38.86,0,0,0,2.11-6.75A32.6,32.6,0,0,0,312,28a5.48,5.48,0,0,0-.59-2.89,2,2,0,0,0-1.87-.91,3.46,3.46,0,0,0-1.6.41,6,6,0,0,0-1.84,1.67,15.73,15.73,0,0,0-2,3.7,37.84,37.84,0,0,0-1.51,4.67c-.32,1.27-.59,2.52-.82,3.74A26.28,26.28,0,0,0,301.21,43.17Z"/><path d="M325.33,33.78a5.51,5.51,0,0,1-2.86-.73,4.85,4.85,0,0,1-1.9-2,6.1,6.1,0,0,1-.67-2.89,5.91,5.91,0,0,1,.71-2.88,5.08,5.08,0,0,1,2-2,5.93,5.93,0,0,1,2.9-.7,5.65,5.65,0,0,1,2.86.71,5.08,5.08,0,0,1,1.95,2,6,6,0,0,1,.7,2.89,5.65,5.65,0,0,1-.74,2.87,5.19,5.19,0,0,1-2,2A5.8,5.8,0,0,1,325.33,33.78Zm.11-9.34a3.58,3.58,0,0,0-1.86.48,3.29,3.29,0,0,0-1.27,1.32,4.13,4.13,0,0,0-.44,1.93,4,4,0,0,0,.44,1.93,3.19,3.19,0,0,0,1.26,1.34,3.74,3.74,0,0,0,1.87.47,3.77,3.77,0,0,0,1.88-.47,3.24,3.24,0,0,0,1.28-1.34,4.45,4.45,0,0,0,0-3.86,3.25,3.25,0,0,0-1.28-1.32A3.68,3.68,0,0,0,325.44,24.44Z"/><path d="M334.85,21.58a8.39,8.39,0,0,1,4.27,1,5.5,5.5,0,0,1,2.37,2.78,12.37,12.37,0,0,1,.74,4.58,29.94,29.94,0,0,1-.34,4.21c-.3,2.17-.75,4.59-1.37,7.25q-.88,3.69-1.68,6a22.3,22.3,0,0,1-2,4.37,10.22,10.22,0,0,1-2.38,2.76,8.76,8.76,0,0,1-3,1.52,15.07,15.07,0,0,1-4.35.56l.33-1.53a8.12,8.12,0,0,0,2.69-.38,5.77,5.77,0,0,0,1.87-1.1A9.21,9.21,0,0,0,334,51.09a26.41,26.41,0,0,0,2-4.84q.93-3,1.74-6.83.66-3,1-5.32a34.16,34.16,0,0,0,.51-5.26,9,9,0,0,0-.54-3.46,3.3,3.3,0,0,0-1.54-1.76,5.65,5.65,0,0,0-2.59-.51Z"/><path d="M358.18,38.75l-1.57,7.13h-2.79l1.57-7.13h-6.34l.55-2.53h6.33l1.54-7.12h2.79l-1.55,7.12h6.4l-.56,2.53Z"/><path d="M376.3,56.59a8.47,8.47,0,0,1-4.27-1,5.52,5.52,0,0,1-2.37-2.79,12.28,12.28,0,0,1-.74-4.57,29.91,29.91,0,0,1,.34-4.31q.44-3,1.29-6.76c.56-2.48,1.12-4.54,1.66-6.18a21.88,21.88,0,0,1,2.05-4.56,10.87,10.87,0,0,1,2.39-2.8,9.15,9.15,0,0,1,3-1.53,14.78,14.78,0,0,1,4.37-.56l-.33,1.53a8.23,8.23,0,0,0-2.7.38,5.62,5.62,0,0,0-1.9,1.12A9.6,9.6,0,0,0,377.21,27a27.6,27.6,0,0,0-2,4.85c-.54,1.73-1.09,3.83-1.63,6.32q-.67,3-1.08,5.48a36.52,36.52,0,0,0-.56,5.66,9.09,9.09,0,0,0,.53,3.44A3.33,3.33,0,0,0,374,54.54a5.78,5.78,0,0,0,2.62.52Z"/><path d="M390.86,40h-8.13l.62-2.9h8.12Z"/><path d="M406.22,48.45h-7.83l.2-.92a3,3,0,0,0,1.08-.29,1.82,1.82,0,0,0,.62-.59,4.85,4.85,0,0,0,.55-1.23,25.63,25.63,0,0,0,.65-2.55l4-18.34h-2.36a4.28,4.28,0,0,0-1.84.34,4.16,4.16,0,0,0-1.38,1.26,18.63,18.63,0,0,0-1.67,3.07h-1.78l1.39-6.31h19.41l-1.45,6.59H414c0-1.21,0-2.12-.1-2.73a3.82,3.82,0,0,0-.35-1.38,1.46,1.46,0,0,0-.64-.66,3.54,3.54,0,0,0-1.35-.18h-2.75l-4,18.47c-.11.48-.19.87-.23,1.16s-.08.59-.11.91-.05.6-.05.85a1.9,1.9,0,0,0,.19.91,1.09,1.09,0,0,0,.56.47,4.73,4.73,0,0,0,1.28.23Z"/><path d="M421,51.87a2.59,2.59,0,0,0,1-.14,1.64,1.64,0,0,0,.61-.46,4.52,4.52,0,0,0,.58-1h1.43l-1,3.71H413.23l.18-.86a23.76,23.76,0,0,1,5.19-5.55l1.67-1.4a22.07,22.07,0,0,0,1.79-1.65,7.33,7.33,0,0,0,.91-1.16,3.65,3.65,0,0,0,.44-1,3.83,3.83,0,0,0,.13-1,1.68,1.68,0,0,0-.6-1.36,2.65,2.65,0,0,0-1.72-.49,3.11,3.11,0,0,0-1.92.58A4.05,4.05,0,0,0,418,41.67h-1.91l.55-2.55a16.41,16.41,0,0,1,5.3-1,6.11,6.11,0,0,1,1.93.27,4,4,0,0,1,1.32.71,2.84,2.84,0,0,1,.77,1,2.64,2.64,0,0,1,.24,1.08,4.56,4.56,0,0,1-.41,2,7.09,7.09,0,0,1-1.51,1.9q-1.1,1-3.66,3.06a31.88,31.88,0,0,0-4.14,3.78Z"/><path d="M434.57,21.58a8.36,8.36,0,0,1,4.27,1,5.47,5.47,0,0,1,2.38,2.78,12.59,12.59,0,0,1,.73,4.58,28.51,28.51,0,0,1-.34,4.21q-.44,3.26-1.37,7.25-.87,3.69-1.67,6a22.3,22.3,0,0,1-2,4.37,10.58,10.58,0,0,1-2.38,2.76,8.9,8.9,0,0,1-3,1.52,15,15,0,0,1-4.35.56l.34-1.53a8.06,8.06,0,0,0,2.68-.38,5.77,5.77,0,0,0,1.87-1.1,9.43,9.43,0,0,0,1.9-2.49,27.91,27.91,0,0,0,2-4.84q.92-3,1.74-6.83.64-3,1-5.32a35.27,35.27,0,0,0,.5-5.26,9,9,0,0,0-.54-3.46,3.33,3.33,0,0,0-1.53-1.76,5.73,5.73,0,0,0-2.6-.51Z"/></svg>