<svg id="Capa_1" data-name="Capa 1" xmlns="http://www.w3.org/2000/svg" viewBox="0 0 506.66 63.45"><path d="M128.22,44.81a6.27,6.27,0,0,1-3-.65A4.39,4.39,0,0,1,123.36,42a9.7,9.7,0,0,1-.68-4,27.58,27.58,0,0,1,.45-4.75,31.74,31.74,0,0,1,1.22-4.82,22.54,22.54,0,0,1,1.85-4.12,14.69,14.69,0,0,1,2.37-3.11,9.41,9.41,0,0,1,2.76-1.93,7.18,7.18,0,0,1,3-.67,6,6,0,0,1,2.59.49,4.42,4.42,0,0,1,1.71,1.36,5.45,5.45,0,0,1,1,2.08,11.44,11.44,0,0,1,.29,2.65,29.59,29.59,0,0,1-1.18,8.15,24,24,0,0,1-3,6.84,11.07,11.07,0,0,1-3.63,3.54A7.55,7.55,0,0,1,128.22,44.81Zm-2.32-5.58a8.62,8.62,0,0,0,.26,2.37,2.26,2.26,0,0,0,.8,1.24,2.56,2.56,0,0,0,1.49.38,3.79,3.79,0,0,0,2.7-1.33,13.33,13.33,0,0,0,2.47-4,37.89,37.89,0,0,0,2.11-6.76,32,32,0,0,0,1-7.11,5.53,5.53,0,0,0-.58-2.9,2.08,2.08,0,0,0-1.87-.91,3.33,3.33,0,0,0-1.6.42,5.82,5.82,0,0,0-1.84,1.66,16.18,16.18,0,0,0-2,3.71,39.5,39.5,0,0,0-1.5,4.66c-.32,1.28-.6,2.52-.82,3.75A25.25,25.25,0,0,0,125.9,39.23Z"/><path d="M154.6,40.17a11.49,11.49,0,0,1-.13,1.61,10.35,10.35,0,0,1-.4,1.79,8.28,8.28,0,0,1-.62,1.52,7.9,7.9,0,0,1-.92,1.35A13.36,13.36,0,0,1,151,48a22.47,22.47,0,0,1-2.46,1.78l-.85-1.16a17.62,17.62,0,0,0,1.38-1.27,5.59,5.59,0,0,0,.81-1.07,7.42,7.42,0,0,0,.57-1.26A19,19,0,0,0,151,42.9c.19-.9.34-1.81.44-2.73Zm2.74-12.55-1,4.35h-3.53l.95-4.35Z"/><path d="M180.37,44.51h-7.82l.2-.92a3,3,0,0,0,1.08-.29,1.82,1.82,0,0,0,.62-.59,5.32,5.32,0,0,0,.55-1.22c.18-.56.4-1.41.65-2.56l4-18.33h-2.36a4.14,4.14,0,0,0-1.84.34,4,4,0,0,0-1.38,1.25,17.6,17.6,0,0,0-1.67,3.07h-1.79L172,19H191.4L190,25.54h-1.79c0-1.21,0-2.12-.09-2.72a3.82,3.82,0,0,0-.35-1.39,1.45,1.45,0,0,0-.65-.65,3.45,3.45,0,0,0-1.34-.18H183l-4,18.46c-.11.49-.19.88-.23,1.16s-.08.59-.11.91,0,.6,0,.85a1.79,1.79,0,0,0,.19.91,1.08,1.08,0,0,0,.55.48,5,5,0,0,0,1.29.22Z"/><path d="M195.77,46.48a6.4,6.4,0,0,0-.17,1.23.84.84,0,0,0,.26.66,2.09,2.09,0,0,0,.92.35,13.16,13.16,0,0,0,2,.13l-.26,1.2h-9.45l.25-1.2a17.23,17.23,0,0,0,1.84-.13,3.46,3.46,0,0,0,1-.3,1.72,1.72,0,0,0,.6-.53,2.77,2.77,0,0,0,.38-1L195,38.44q.06-.24.09-.42a1.75,1.75,0,0,0,0-.25.39.39,0,0,0-.15-.37.71.71,0,0,0-.41-.1,3.28,3.28,0,0,0-1.1.32c-.49.21-1.18.54-2,1l-.6-1.31,6.58-3h1.06q-.39,1.5-.78,3.27Z"/><path d="M357.82,44.81a6.24,6.24,0,0,1-2.95-.65A4.39,4.39,0,0,1,353,42a9.7,9.7,0,0,1-.68-4,27.58,27.58,0,0,1,.45-4.75A30.61,30.61,0,0,1,354,28.48a22.54,22.54,0,0,1,1.85-4.12,14.06,14.06,0,0,1,2.37-3.11,9.41,9.41,0,0,1,2.76-1.93,7.18,7.18,0,0,1,3-.67,6,6,0,0,1,2.59.49,4.42,4.42,0,0,1,1.71,1.36,5.45,5.45,0,0,1,.95,2.08,11.44,11.44,0,0,1,.29,2.65,30,30,0,0,1-1.18,8.15,23.76,23.76,0,0,1-3,6.84,11,11,0,0,1-3.62,3.54A7.55,7.55,0,0,1,357.82,44.81Zm-2.32-5.58a8.25,8.25,0,0,0,.26,2.37,2.26,2.26,0,0,0,.8,1.24,2.55,2.55,0,0,0,1.48.38,3.81,3.81,0,0,0,2.71-1.33,13.33,13.33,0,0,0,2.47-4,37.89,37.89,0,0,0,2.11-6.76,32,32,0,0,0,.95-7.11,5.42,5.42,0,0,0-.59-2.9,2.05,2.05,0,0,0-1.86-.91,3.33,3.33,0,0,0-1.6.42,5.82,5.82,0,0,0-1.84,1.66A15.81,15.81,0,0,0,358.34,26a37.73,37.73,0,0,0-1.5,4.66c-.33,1.28-.6,2.52-.82,3.75A25.25,25.25,0,0,0,355.5,39.23Z"/><path d="M384.2,40.17a11.49,11.49,0,0,1-.13,1.61,10.35,10.35,0,0,1-.4,1.79,8.28,8.28,0,0,1-.62,1.52,8.52,8.52,0,0,1-.92,1.35A12.74,12.74,0,0,1,380.61,48a22.23,22.23,0,0,1-2.45,1.78l-.85-1.16a17.62,17.62,0,0,0,1.38-1.27,5.59,5.59,0,0,0,.81-1.07,7.42,7.42,0,0,0,.57-1.26,19.41,19.41,0,0,0,.54-2.07,25.06,25.06,0,0,0,.45-2.73Zm2.74-12.55L386,32h-3.53l.94-4.35Z"/><path d="M410,44.51h-7.83l.21-.92a3,3,0,0,0,1.08-.29,1.82,1.82,0,0,0,.62-.59,5.32,5.32,0,0,0,.55-1.22c.18-.56.4-1.41.65-2.56l4-18.33h-2.36a4.11,4.11,0,0,0-1.84.34,4,4,0,0,0-1.38,1.25A17.6,17.6,0,0,0,402,25.26h-1.79l1.4-6.31H421l-1.45,6.59h-1.79c0-1.21,0-2.12-.09-2.72a3.61,3.61,0,0,0-.36-1.39,1.39,1.39,0,0,0-.64-.65,3.45,3.45,0,0,0-1.34-.18h-2.76l-4,18.46c-.11.49-.19.88-.23,1.16s-.08.59-.11.91a6.73,6.73,0,0,0-.05.85,1.79,1.79,0,0,0,.19.91,1,1,0,0,0,.55.48,5,5,0,0,0,1.29.22Z"/><path d="M425.37,46.48a5.69,5.69,0,0,0-.17,1.23.8.8,0,0,0,.26.66,2.09,2.09,0,0,0,.92.35,13.06,13.06,0,0,0,2,.13l-.26,1.2h-9.45l.24-1.2a16.82,16.82,0,0,0,1.84-.13,3.44,3.44,0,0,0,1-.3,1.81,1.81,0,0,0,.6-.53,2.77,2.77,0,0,0,.38-1l1.84-8.41q.06-.24.09-.42a1.4,1.4,0,0,0,0-.25c0-.19,0-.31-.14-.37a.71.71,0,0,0-.41-.1,3.28,3.28,0,0,0-1.1.32c-.5.21-1.18.54-2.05,1l-.59-1.31,6.58-3h1.06q-.39,1.5-.78,3.27Z"/><path d="M495.7,42.67a56.44,56.44,0,0,0,4.41-7.26,12.24,12.24,0,0,0,1.52-5,1.52,1.52,0,0,0-.37-1.2,2.22,2.22,0,0,0-1.27-.38l.19-.91H505l.5.93c-.44,1.11-.78,2-1,2.57s-.6,1.32-1,2.16-.86,1.68-1.33,2.52-1,1.76-1.67,2.76-1.35,2.1-2.15,3.28-1.72,2.5-2.8,4h-2.22l-.76-7.83c-.06-.61-.13-1.41-.19-2.4s-.12-1.75-.14-2.28l-.21,0a47.46,47.46,0,0,1-2.73,5.54c-1.15,2-2.58,4.36-4.28,7h-2.49L481,32a12.53,12.53,0,0,0-.28-1.76,1.87,1.87,0,0,0-.56-1,2.19,2.19,0,0,0-1.28-.42l.2-.91H484l1.11,14.77c1.75-2.87,3-5.06,3.79-6.55a29.69,29.69,0,0,0,1.71-3.89,20.87,20.87,0,0,0,.86-3.42l.2-.91h2.68Z"/><path d="M55.41,40.41c-.08.34-.15.64-.19.88a7.73,7.73,0,0,0-.12.89c0,.35-.05.66-.05.92a1.76,1.76,0,0,0,.17.84,1,1,0,0,0,.51.44,4.85,4.85,0,0,0,1.19.21l-.19.84h-7l.19-.84a2.42,2.42,0,0,0,1-.34,1.87,1.87,0,0,0,.55-.65,5.85,5.85,0,0,0,.41-1c.12-.4.31-1.16.56-2.3L55.29,27a13.74,13.74,0,0,0,.38-2.72,1.48,1.48,0,0,0-.4-1.18A2.23,2.23,0,0,0,54,22.71l.18-.84H69.64l-1.19,5.3H66.81a19.21,19.21,0,0,0-.19-1.93,3.76,3.76,0,0,0-.3-1,1.56,1.56,0,0,0-.4-.51,1.35,1.35,0,0,0-.56-.23,4.65,4.65,0,0,0-1-.07H59.13l-2,9.39h3.2a3.28,3.28,0,0,0,1.26-.21,2.42,2.42,0,0,0,.92-.75A10.25,10.25,0,0,0,63.53,30h1.56l-1.66,7.29H61.92c0-.71,0-1.27,0-1.68a1.8,1.8,0,0,0-.21-.84.89.89,0,0,0-.46-.34,4.38,4.38,0,0,0-1.09-.09H56.76Z"/><path d="M68,40.2a9.7,9.7,0,0,0-.23-1.28,1.07,1.07,0,0,0-.35-.55,1.49,1.49,0,0,0-.79-.22l.13-.6h3.13l.92,9.67q4.11-5.61,4.11-8a1,1,0,0,0-.24-.78,1.39,1.39,0,0,0-.83-.24l.12-.6h3.14l.33.61a27.28,27.28,0,0,1-1.65,3.5q-1,1.81-2.45,4c-1,1.43-2,2.93-3.23,4.47a25.76,25.76,0,0,1-2.29,2.7,7.35,7.35,0,0,1-1.32,1.06,4.53,4.53,0,0,1-1.17.51,4.7,4.7,0,0,1-1.2.15,4.16,4.16,0,0,1-.74-.07,3.59,3.59,0,0,1-.7-.17L63.17,52h1a1.15,1.15,0,0,0,.19.66.63.63,0,0,0,.54.24,2.62,2.62,0,0,0,.67-.08,2.67,2.67,0,0,0,.59-.26,6,6,0,0,0,.75-.58,10.94,10.94,0,0,0,1-1.07c.38-.44.79-1,1.26-1.6Z"/><path d="M15.05,6.35l11.43,23v2.37L13.67,55.08H29.11a7.12,7.12,0,0,0,2.19-.25,3.2,3.2,0,0,0,1.27-.76,4.94,4.94,0,0,0,1-1.43,14.14,14.14,0,0,0,.84-2.54q.39-1.62.75-4.23h2.74l-.68,15.19H7.43V59.32l14.5-26.44L8.32,4.89V3.11h29V17H34.76q-.59-3-1.11-4.83a16.92,16.92,0,0,0-1.08-3,6.44,6.44,0,0,0-1.13-1.66,3.62,3.62,0,0,0-1.32-.87,5.51,5.51,0,0,0-2-.3Z"/><path d="M108.83,30.55H92.12v-2.9h16.71Zm0,7.68H92.12v-2.9h16.71Z"/><path d="M461.47,32.79H444.75v-2.9h16.72Zm0,7.68H444.75v-2.9h16.72Z"/><path d="M338.6,32.79H321.89v-2.9H338.6Zm0,7.68H321.89v-2.9H338.6Z"/><path d="M225.19,31.8l-1.56,7.13h-2.79l1.57-7.13h-6.34l.55-2.53h6.32l1.55-7.11h2.79l-1.55,7.11h6.4l-.56,2.53Z"/><path d="M251.71,49.64a8.4,8.4,0,0,1-4.28-1,5.5,5.5,0,0,1-2.37-2.78,12.38,12.38,0,0,1-.73-4.58,31.41,31.41,0,0,1,.33-4.31q.45-3,1.29-6.76c.57-2.48,1.12-4.54,1.67-6.18a22.33,22.33,0,0,1,2-4.55,10.55,10.55,0,0,1,2.4-2.8A8.94,8.94,0,0,1,255,15.19a15.17,15.17,0,0,1,4.37-.56l-.33,1.53a8.23,8.23,0,0,0-2.7.38,5.57,5.57,0,0,0-1.89,1.12,9.22,9.22,0,0,0-1.84,2.42,26.26,26.26,0,0,0-2,4.85c-.55,1.72-1.09,3.82-1.64,6.31q-.67,3-1.08,5.48a36.63,36.63,0,0,0-.56,5.66,9.09,9.09,0,0,0,.53,3.44,3.35,3.35,0,0,0,1.53,1.77,5.58,5.58,0,0,0,2.61.52Z"/><path d="M266.26,33.09h-8.12l.61-2.9h8.13Z"/><path d="M286.58,38.39A55.53,55.53,0,0,0,291,31.13a12.2,12.2,0,0,0,1.51-5,1.52,1.52,0,0,0-.37-1.2,2.14,2.14,0,0,0-1.26-.37l.18-.92h4.8l.5.93c-.43,1.11-.78,2-1,2.57s-.6,1.32-1,2.16-.87,1.68-1.34,2.52-1,1.76-1.66,2.76-1.36,2.1-2.15,3.28-1.73,2.51-2.81,4h-2.21L283.37,34c-.06-.61-.13-1.41-.2-2.4s-.11-1.74-.14-2.28l-.2,0a47.46,47.46,0,0,1-2.73,5.54c-1.16,2-2.58,4.37-4.28,7h-2.49l-1.41-14.1a14.53,14.53,0,0,0-.28-1.76,1.93,1.93,0,0,0-.56-1,2.22,2.22,0,0,0-1.28-.41l.2-.92h4.87L276,38.37c1.74-2.87,3-5,3.78-6.55a28.61,28.61,0,0,0,1.72-3.89,22.1,22.1,0,0,0,.86-3.41l.2-.92h2.68Z"/><path d="M300.81,14.63a8.47,8.47,0,0,1,4.27.95,5.54,5.54,0,0,1,2.37,2.78,12.37,12.37,0,0,1,.74,4.58,28.64,28.64,0,0,1-.34,4.22q-.44,3.25-1.37,7.24c-.59,2.46-1.14,4.47-1.68,6a21.19,21.19,0,0,1-2,4.37,10.07,10.07,0,0,1-2.38,2.76,8.58,8.58,0,0,1-3,1.52,14.73,14.73,0,0,1-4.35.56l.33-1.53a8.12,8.12,0,0,0,2.69-.38,5.6,5.6,0,0,0,1.87-1.1,9.21,9.21,0,0,0,1.89-2.49,26.78,26.78,0,0,0,2-4.84c.61-2,1.19-4.24,1.73-6.83.44-2,.78-3.77,1-5.31a35.39,35.39,0,0,0,.5-5.27,9,9,0,0,0-.54-3.46,3.36,3.36,0,0,0-1.53-1.76,5.73,5.73,0,0,0-2.6-.51Z"/></svg>