<svg id="Capa_1" data-name="Capa 1" xmlns="http://www.w3.org/2000/svg" viewBox="0 0 444.52 64.53"><path d="M181.17,46.52H175l2.48-10c.16-.64.31-1.35.46-2.13a11.08,11.08,0,0,0,.23-2.08,3.26,3.26,0,0,0-.48-2,1.79,1.79,0,0,0-1.5-.62,3.26,3.26,0,0,0-1.77.64,9.73,9.73,0,0,0-2,1.92,16,16,0,0,0-1.76,2.58,11.71,11.71,0,0,0-1.1,3.18l-1.78,8.53h-3.39l3-13.46c.06-.3.15-.75.26-1.34a8.38,8.38,0,0,0,.17-1.47,1.82,1.82,0,0,0-.17-.86,1,1,0,0,0-.57-.46,5.79,5.79,0,0,0-1.36-.2l.24-1.05,4.44-.17h1.12l-1.31,5.12.23.08a17.44,17.44,0,0,1,3.7-4,6,6,0,0,1,3.56-1.31,3.76,3.76,0,0,1,2.88,1.05,4.48,4.48,0,0,1,1,3.13,10.81,10.81,0,0,1-.12,1.54c-.09.56-.18,1.06-.29,1.49l-1.64,7a10.45,10.45,0,0,0-.33,2.24,1.84,1.84,0,0,0,.19.93,1.24,1.24,0,0,0,.61.51,5,5,0,0,0,1.35.28Z"/><path d="M190.12,51.4l.13-.6a1.46,1.46,0,0,0,.86-.32,1.34,1.34,0,0,0,.44-.74,4.82,4.82,0,0,0,.13-1.26c0-.31,0-.66,0-1l-.08-1.58h-5.37l-.67,1.2a10.21,10.21,0,0,0-.7,1.44,3.14,3.14,0,0,0-.22,1.07c0,.69.41,1.09,1.23,1.22l-.13.6h-5l.13-.6a1.43,1.43,0,0,0,.71-.3,3.47,3.47,0,0,0,.72-.75c.25-.34.6-.9,1.06-1.68l7.83-13.53H193l.88,13.61a6.88,6.88,0,0,0,.22,1.51,1.82,1.82,0,0,0,.43.81,1.44,1.44,0,0,0,.8.33l-.13.6Zm-3.38-6.59h4.77l-.21-3.93c0-.54,0-1.21-.06-2s0-1.38,0-1.74h-.14Z"/><path d="M245.18,43.25a60.76,60.76,0,0,0,4.65-7.63,13,13,0,0,0,1.59-5.31A1.65,1.65,0,0,0,251,29a2.3,2.3,0,0,0-1.33-.39l.19-1h5.05l.53,1c-.45,1.17-.82,2.07-1.09,2.7s-.64,1.39-1.08,2.28-.91,1.77-1.41,2.65-1.08,1.85-1.75,2.9-1.43,2.21-2.26,3.45-1.82,2.64-2.95,4.19H242.6l-.81-8.24c-.06-.64-.13-1.48-.2-2.52s-.12-1.84-.15-2.4l-.21,0a51.8,51.8,0,0,1-2.88,5.83q-1.82,3.21-4.5,7.35h-2.62L229.74,32a15.49,15.49,0,0,0-.29-1.85,2,2,0,0,0-.59-1.07,2.38,2.38,0,0,0-1.35-.43l.21-1h5.13L234,43.23q2.75-4.53,4-6.89a31.5,31.5,0,0,0,1.81-4.09,23.11,23.11,0,0,0,.9-3.6l.21-1h2.82Z"/><path d="M255.93,51.4l.13-.6a1.46,1.46,0,0,0,.86-.32,1.4,1.4,0,0,0,.44-.74,5.29,5.29,0,0,0,.13-1.26c0-.31,0-.66,0-1l-.08-1.58H252l-.67,1.2a10,10,0,0,0-.69,1.44,3.14,3.14,0,0,0-.22,1.07c0,.69.41,1.09,1.23,1.22l-.13.6h-5l.14-.6a1.43,1.43,0,0,0,.71-.3,3.73,3.73,0,0,0,.72-.75c.25-.34.6-.9,1.06-1.68L257,34.54h1.85l.87,13.61a8.36,8.36,0,0,0,.22,1.51,1.83,1.83,0,0,0,.44.81,1.44,1.44,0,0,0,.8.33l-.14.6Zm-3.39-6.59h4.78l-.21-3.93c0-.54-.05-1.21-.06-2s0-1.38,0-1.74h-.13Z"/><path d="M125,46.48a6.12,6.12,0,0,1-2.95-.66,4.32,4.32,0,0,1-1.91-2.15,9.73,9.73,0,0,1-.68-4A27.58,27.58,0,0,1,119.9,35a30.61,30.61,0,0,1,1.22-4.82A22.54,22.54,0,0,1,123,26a14.37,14.37,0,0,1,2.37-3.12A9.56,9.56,0,0,1,128.1,21a7.18,7.18,0,0,1,3-.67,6,6,0,0,1,2.59.49,4.33,4.33,0,0,1,1.71,1.36,5.48,5.48,0,0,1,.95,2.07,11.57,11.57,0,0,1,.29,2.65,30,30,0,0,1-1.18,8.16,23.89,23.89,0,0,1-3,6.84,11,11,0,0,1-3.62,3.54A7.55,7.55,0,0,1,125,46.48Zm-2.32-5.58a8.25,8.25,0,0,0,.26,2.37,2.2,2.2,0,0,0,.8,1.23,2.48,2.48,0,0,0,1.48.39,3.85,3.85,0,0,0,2.71-1.33,13.33,13.33,0,0,0,2.47-4,38.15,38.15,0,0,0,2.11-6.76,32,32,0,0,0,.95-7.12,5.4,5.4,0,0,0-.59-2.89,2.05,2.05,0,0,0-1.86-.91,3.43,3.43,0,0,0-1.6.41A6,6,0,0,0,127.56,24a15.81,15.81,0,0,0-2,3.71,37.73,37.73,0,0,0-1.5,4.66c-.33,1.27-.6,2.52-.82,3.74A25.43,25.43,0,0,0,122.67,40.9Z"/><path d="M299.77,46.48a6.19,6.19,0,0,1-3-.66,4.31,4.31,0,0,1-1.9-2.15,9.57,9.57,0,0,1-.68-4,28.54,28.54,0,0,1,.44-4.75,33,33,0,0,1,1.22-4.82A23.24,23.24,0,0,1,297.74,26a15,15,0,0,1,2.37-3.12A9.56,9.56,0,0,1,302.87,21a7.18,7.18,0,0,1,3-.67,6.09,6.09,0,0,1,2.6.49,4.33,4.33,0,0,1,1.71,1.36,5.63,5.63,0,0,1,1,2.07,11.59,11.59,0,0,1,.28,2.65,29.65,29.65,0,0,1-1.18,8.16,23.61,23.61,0,0,1-3,6.84,11,11,0,0,1-3.62,3.54A7.6,7.6,0,0,1,299.77,46.48Zm-2.33-5.58a8.62,8.62,0,0,0,.26,2.37,2.25,2.25,0,0,0,.8,1.23,2.51,2.51,0,0,0,1.49.39,3.87,3.87,0,0,0,2.71-1.33,13.53,13.53,0,0,0,2.47-4,39,39,0,0,0,2.11-6.76,32.6,32.6,0,0,0,1-7.12,5.5,5.5,0,0,0-.59-2.89,2.07,2.07,0,0,0-1.87-.91,3.46,3.46,0,0,0-1.6.41A6.1,6.1,0,0,0,302.33,24a15.82,15.82,0,0,0-2,3.71,37.65,37.65,0,0,0-1.51,4.66c-.32,1.27-.59,2.52-.82,3.74A26.28,26.28,0,0,0,297.44,40.9Z"/><path d="M52.18,42.08c-.08.34-.15.63-.19.88a7.43,7.43,0,0,0-.12.89,7.92,7.92,0,0,0,0,.92,1.67,1.67,0,0,0,.17.84,1,1,0,0,0,.51.44,4.41,4.41,0,0,0,1.18.2l-.18.85h-7l.19-.85a2.48,2.48,0,0,0,1-.33,1.84,1.84,0,0,0,.54-.65,6.16,6.16,0,0,0,.42-1c.12-.4.31-1.17.56-2.31l2.92-13.29a13.57,13.57,0,0,0,.37-2.73A1.47,1.47,0,0,0,52,24.76a2.17,2.17,0,0,0-1.29-.38l.19-.85H66.4l-1.18,5.3H63.57a17,17,0,0,0-.18-1.92,3.85,3.85,0,0,0-.3-1.05,1.27,1.27,0,0,0-1-.74,5.59,5.59,0,0,0-1-.07H55.9l-2,9.39h3.2a3.24,3.24,0,0,0,1.25-.2,2.45,2.45,0,0,0,.93-.75,11.32,11.32,0,0,0,1.06-1.86h1.56L60.2,38.92H58.69c0-.72,0-1.28,0-1.68a1.8,1.8,0,0,0-.21-.84.79.79,0,0,0-.46-.34,4.24,4.24,0,0,0-1.09-.1H53.53Z"/><path d="M64.73,41.87a9.38,9.38,0,0,0-.23-1.28,1,1,0,0,0-.36-.55,1.45,1.45,0,0,0-.79-.23l.14-.59h3.12l.93,9.67q4.11-5.62,4.11-8a1,1,0,0,0-.24-.78,1.48,1.48,0,0,0-.83-.25l.12-.59h3.14l.33.61a27.93,27.93,0,0,1-1.65,3.5q-1,1.81-2.46,4c-1,1.44-2,2.93-3.23,4.48a26.81,26.81,0,0,1-2.28,2.7,7.71,7.71,0,0,1-1.32,1.05,4.53,4.53,0,0,1-1.17.51,4.29,4.29,0,0,1-1.2.16,5.24,5.24,0,0,1-.74-.07,3.66,3.66,0,0,1-.71-.18l.53-2.27h1a1.07,1.07,0,0,0,.19.65.61.61,0,0,0,.54.25,2.48,2.48,0,0,0,.66-.08,2.32,2.32,0,0,0,.59-.26,4.81,4.81,0,0,0,.76-.59,10.75,10.75,0,0,0,1-1.06c.37-.44.79-1,1.25-1.6Z"/><path d="M11.82,8,23.25,31V33.4L10.44,56.75H25.88a7.12,7.12,0,0,0,2.19-.25,3.27,3.27,0,0,0,1.27-.76,4.94,4.94,0,0,0,1-1.43,13.72,13.72,0,0,0,.83-2.54,39.11,39.11,0,0,0,.75-4.24h2.75L34,62.73H4.19V61L18.7,34.55,5.09,6.55V4.78h29V18.64H31.53c-.39-2-.76-3.58-1.11-4.83a16.61,16.61,0,0,0-1.08-3,6.52,6.52,0,0,0-1.13-1.67,3.89,3.89,0,0,0-1.32-.87,5.76,5.76,0,0,0-2-.29Z"/><path d="M105.6,32.22H88.89v-2.9H105.6Zm0,7.68H88.89V37H105.6Z"/><path d="M283.7,31.3H267V28.4H283.7Zm0,7.68H267v-2.9H283.7Z"/><path d="M398.5,28.29H381.79v-2.9H398.5Zm0,7.68H381.79v-2.9H398.5Z"/><path d="M206.33,38.93,207,35.8h9.54l-.64,3.13Z"/><path d="M359.86,40.7h-6.17l2.49-10c.15-.64.31-1.35.46-2.13a11,11,0,0,0,.22-2.08,3.26,3.26,0,0,0-.48-2,1.78,1.78,0,0,0-1.49-.62,3.26,3.26,0,0,0-1.77.64,9.5,9.5,0,0,0-2,1.92A15.87,15.87,0,0,0,349.38,29a11.37,11.37,0,0,0-1.11,3.18l-1.78,8.53h-3.38l3-13.46c.07-.3.15-.75.27-1.34a8.23,8.23,0,0,0,.16-1.47,1.83,1.83,0,0,0-.16-.86,1.06,1.06,0,0,0-.57-.46,5.88,5.88,0,0,0-1.36-.2l.23-1.05,4.44-.17h1.12l-1.31,5.12.23.08a17.44,17.44,0,0,1,3.7-4,6,6,0,0,1,3.56-1.31,3.74,3.74,0,0,1,2.88,1.05,4.48,4.48,0,0,1,1,3.13,9.6,9.6,0,0,1-.13,1.54c-.08.56-.18,1.06-.28,1.49l-1.65,7a10.45,10.45,0,0,0-.33,2.24,1.84,1.84,0,0,0,.2.93,1.22,1.22,0,0,0,.6.51,5.23,5.23,0,0,0,1.35.28Z"/><path d="M368.8,45.58l.13-.6a1.49,1.49,0,0,0,.87-.32,1.47,1.47,0,0,0,.44-.74,5.36,5.36,0,0,0,.12-1.26c0-.31,0-.66,0-1l-.09-1.58h-5.37l-.67,1.2a10.21,10.21,0,0,0-.7,1.44,3.4,3.4,0,0,0-.22,1.07c0,.69.41,1.09,1.24,1.22l-.14.6h-5l.13-.6a1.47,1.47,0,0,0,.72-.3,3.72,3.72,0,0,0,.71-.75A19.4,19.4,0,0,0,362,42.25l7.83-13.53h1.84l.88,13.61a7.55,7.55,0,0,0,.22,1.51,1.92,1.92,0,0,0,.43.81,1.47,1.47,0,0,0,.8.33l-.13.6ZM365.42,39h4.77l-.2-3.93c0-.54-.05-1.21-.07-2s0-1.38,0-1.74h-.13Z"/><path d="M423.86,37.43a58.46,58.46,0,0,0,4.65-7.63,13,13,0,0,0,1.59-5.32,1.64,1.64,0,0,0-.39-1.26,2.3,2.3,0,0,0-1.33-.39l.2-1h5.05l.52,1c-.45,1.17-.82,2.07-1.09,2.7s-.63,1.39-1.08,2.28-.91,1.77-1.41,2.65-1.08,1.85-1.75,2.9-1.42,2.21-2.26,3.45-1.82,2.64-2.95,4.19h-2.33l-.8-8.24q-.11-1-.21-2.52c-.07-1-.12-1.84-.15-2.41h-.21A50.15,50.15,0,0,1,417,33.67q-1.81,3.21-4.5,7.35h-2.62l-1.49-14.84a13.69,13.69,0,0,0-.29-1.85,2,2,0,0,0-.59-1.07,2.38,2.38,0,0,0-1.35-.43l.22-1h5.12l1.18,15.55c1.84-3,3.16-5.32,4-6.89a30.19,30.19,0,0,0,1.81-4.09,23.11,23.11,0,0,0,.9-3.6l.22-1h2.81Z"/><path d="M434.61,45.58l.13-.6a1.43,1.43,0,0,0,.86-.32,1.34,1.34,0,0,0,.44-.74,4.82,4.82,0,0,0,.13-1.26c0-.31,0-.66,0-1l-.09-1.58h-5.37l-.67,1.2a10.21,10.21,0,0,0-.7,1.44,3.14,3.14,0,0,0-.22,1.07c0,.69.41,1.09,1.23,1.22l-.13.6h-5l.13-.6a1.51,1.51,0,0,0,.72-.3,3.72,3.72,0,0,0,.71-.75,19.4,19.4,0,0,0,1.06-1.68l7.83-13.53h1.84l.88,13.61a6.88,6.88,0,0,0,.22,1.51,1.82,1.82,0,0,0,.43.81,1.44,1.44,0,0,0,.8.33l-.13.6ZM431.23,39H436l-.21-3.93c0-.54,0-1.21-.06-2s0-1.38,0-1.74h-.14Z"/></svg>