<svg id="Capa_1" data-name="Capa 1" xmlns="http://www.w3.org/2000/svg" viewBox="0 0 465.36 84.77"><path d="M118.85,15.49l.52,1c-.47,1.14-.83,2-1.08,2.54s-.59,1.25-1,2.08-.9,1.7-1.43,2.61-1.13,1.89-1.81,2.93-1.44,2.18-2.31,3.43-1.87,2.64-3,4.18H106.3l-1.78-14.55a12.47,12.47,0,0,0-.37-2,1.75,1.75,0,0,0-.59-.89,2.29,2.29,0,0,0-1.2-.34l.21-.94h4.92l1.45,15.32a62.86,62.86,0,0,0,4.88-7.69,12,12,0,0,0,1.59-5.07,1.6,1.6,0,0,0-.38-1.23,2.26,2.26,0,0,0-1.31-.39l.19-.94Z"/><path d="M163.07,23.91h-8.36l.63-3h8.36Z"/><path d="M191.76,14.14l.51,1q-.71,1.72-1.08,2.55c-.25.55-.59,1.24-1,2.07s-.91,1.7-1.44,2.61-1.13,1.89-1.81,2.93-1.44,2.18-2.3,3.43-1.87,2.64-3,4.18H179.2l-1.78-14.55a11.44,11.44,0,0,0-.37-2,1.73,1.73,0,0,0-.58-.89,2.36,2.36,0,0,0-1.21-.34l.21-.94h4.92l1.45,15.32a60.94,60.94,0,0,0,4.88-7.69,12,12,0,0,0,1.59-5.07,1.6,1.6,0,0,0-.38-1.23,2.25,2.25,0,0,0-1.3-.39l.19-.94Z"/><path d="M158.27,70.6a13.53,13.53,0,0,1-3.1,2.88,6,6,0,0,1-3.26,1,4,4,0,0,1-3-1,4.25,4.25,0,0,1-1-3,12.3,12.3,0,0,1,.34-2.72l2.37-10h-2.85l.21-1a5,5,0,0,0,1.79-.49,3.39,3.39,0,0,0,1.11-1,6.36,6.36,0,0,0,.83-1.53c.26-.63.58-1.55,1-2.75h2.64l-1.05,4.76h6.06l-.42,1.94h-6.08L152,65.15a21.68,21.68,0,0,0-.76,4.66,2.79,2.79,0,0,0,.5,1.79,1.85,1.85,0,0,0,1.49.6,3.25,3.25,0,0,0,1.84-.68,11.85,11.85,0,0,0,2.12-2.07Z"/><path d="M129.5,24.76c-1.57,1.68-3.21,3.35-4.92,5l1.13,2.67a16.31,16.31,0,0,0,.71,1.58,3.23,3.23,0,0,0,.49.74,1.55,1.55,0,0,0,.43.33,2.51,2.51,0,0,0,.69.16l-.13.6h-3l-1.68-4.91c-.2.17-.45.41-.77.72s-.63.63-.93,1a6,6,0,0,0-.63.84,2.24,2.24,0,0,0-.24.55,2.42,2.42,0,0,0,0,.47.75.75,0,0,0,.17.51,1.12,1.12,0,0,0,.61.25l-.14.6h-3.45l-.23-.6q2.65-2.86,5.22-5.28l-1.15-2.73c-.24-.55-.42-1-.57-1.26a4,4,0,0,0-.42-.67,1.47,1.47,0,0,0-.46-.37,2.1,2.1,0,0,0-.74-.16l.13-.6h3l1.61,4.6c.39-.36.77-.74,1.13-1.13a8.41,8.41,0,0,0,.75-.93,3.08,3.08,0,0,0,.3-.61,1.77,1.77,0,0,0,.08-.56c0-.45-.25-.71-.77-.77l.13-.6h3.46Z"/><path d="M196.09,36a4.06,4.06,0,0,1-1.92-.42,2.86,2.86,0,0,1-1.25-1.41,6.38,6.38,0,0,1-.44-2.57,18.54,18.54,0,0,1,.29-3.1,20.88,20.88,0,0,1,.8-3.14,14.7,14.7,0,0,1,1.2-2.69,9.76,9.76,0,0,1,1.55-2,6.26,6.26,0,0,1,1.8-1.26,4.86,4.86,0,0,1,2-.43,4,4,0,0,1,1.69.32,3,3,0,0,1,1.12.88,3.62,3.62,0,0,1,.62,1.36,7.7,7.7,0,0,1,.19,1.73,19.43,19.43,0,0,1-.77,5.31A15.69,15.69,0,0,1,201,33a7.11,7.11,0,0,1-2.37,2.31A4.87,4.87,0,0,1,196.09,36Zm-1.51-3.63a5.59,5.59,0,0,0,.17,1.54,1.45,1.45,0,0,0,.52.81,1.69,1.69,0,0,0,1,.25,2.47,2.47,0,0,0,1.76-.87,8.57,8.57,0,0,0,1.61-2.59,24.28,24.28,0,0,0,1.38-4.4,21.3,21.3,0,0,0,.62-4.64,3.64,3.64,0,0,0-.38-1.89A1.36,1.36,0,0,0,200,20a2.18,2.18,0,0,0-1,.27,3.72,3.72,0,0,0-1.2,1.08,10.54,10.54,0,0,0-1.34,2.42,26,26,0,0,0-1,3c-.21.83-.39,1.64-.53,2.44A16.44,16.44,0,0,0,194.58,32.39Z"/><path d="M215.57,24.76c-1.57,1.68-3.21,3.35-4.92,5l1.13,2.67c.3.72.54,1.25.71,1.58a3.23,3.23,0,0,0,.49.74,1.55,1.55,0,0,0,.43.33,2.51,2.51,0,0,0,.69.16l-.13.6h-3l-1.68-4.91c-.2.17-.45.41-.77.72s-.63.63-.93,1a6,6,0,0,0-.63.84,2.24,2.24,0,0,0-.24.55,2.42,2.42,0,0,0,0,.47.71.71,0,0,0,.18.51,1.05,1.05,0,0,0,.6.25l-.14.6h-3.45l-.23-.6q2.65-2.86,5.22-5.28l-1.15-2.73q-.35-.82-.57-1.26a3,3,0,0,0-.42-.67,1.37,1.37,0,0,0-.46-.37,2.1,2.1,0,0,0-.74-.16l.13-.6h3l1.61,4.6c.4-.36.77-.74,1.13-1.13a8.41,8.41,0,0,0,.75-.93,2.61,2.61,0,0,0,.3-.61,1.77,1.77,0,0,0,.09-.56c0-.45-.26-.71-.78-.77l.13-.6h3.46Z"/><line x1="87.08" y1="43.51" x2="218.44" y2="43.51" style="fill:none;stroke:#000;stroke-miterlimit:10;stroke-width:1.793965220451355px"/><path d="M284.76,20.32a13.33,13.33,0,0,1,2.9-1.38,9.61,9.61,0,0,1,2.91-.45,6.15,6.15,0,0,1,2.92.7,5.17,5.17,0,0,1,2.09,2.15,7.48,7.48,0,0,1,.77,3.53,12.19,12.19,0,0,1-.33,2.78A9.63,9.63,0,0,1,295,30.31a8,8,0,0,1-1.85,2.18A8.74,8.74,0,0,1,290.45,34a10.52,10.52,0,0,1-3.44.54,6.68,6.68,0,0,1-3-.63,6,6,0,0,1-2.12-1.74,7.63,7.63,0,0,1-1.26-2.59,11.78,11.78,0,0,1-.42-3.22,20.91,20.91,0,0,1,.23-3.06,20.11,20.11,0,0,1,.94-3.8,16.81,16.81,0,0,1,2.23-4.19,17.55,17.55,0,0,1,3.49-3.62A19.69,19.69,0,0,1,291.65,9a20.42,20.42,0,0,1,5.26-1.42l.7,1.06-.19.95a13.43,13.43,0,0,0-7.87,3.07,16.9,16.9,0,0,0-5,7.58Zm-1.46,7a6.93,6.93,0,0,0,1.06,4.19,3.72,3.72,0,0,0,3.15,1.4,4.28,4.28,0,0,0,2.76-1,6.5,6.5,0,0,0,1.94-2.78,11.16,11.16,0,0,0,.7-4.05q0-4.61-3.77-4.6a6.59,6.59,0,0,0-1.27.12,7.15,7.15,0,0,0-1.27.4,7.82,7.82,0,0,0-1.21.65,5.46,5.46,0,0,0-.92.72,2.79,2.79,0,0,0-.46.61,4.12,4.12,0,0,0-.31.81c-.07.32-.16.9-.26,1.72A13.38,13.38,0,0,0,283.3,27.28Z"/><path d="M317.87,28.81h-8.36l.63-3h8.36Z"/><path d="M336.74,37.77a6.35,6.35,0,0,1-3-.67,4.5,4.5,0,0,1-2-2.22,10.05,10.05,0,0,1-.69-4.06,28.11,28.11,0,0,1,.46-4.89,32.11,32.11,0,0,1,1.25-5,23.23,23.23,0,0,1,1.9-4.24,15.37,15.37,0,0,1,2.44-3.21,10.11,10.11,0,0,1,2.84-2,7.6,7.6,0,0,1,3.12-.68,6.39,6.39,0,0,1,2.67.5,4.61,4.61,0,0,1,1.76,1.4,5.62,5.62,0,0,1,1,2.14,11.56,11.56,0,0,1,.3,2.72,30.64,30.64,0,0,1-1.22,8.4,24.63,24.63,0,0,1-3.09,7,11.38,11.38,0,0,1-3.73,3.64A7.81,7.81,0,0,1,336.74,37.77ZM334.35,32a9.14,9.14,0,0,0,.26,2.44,2.34,2.34,0,0,0,.83,1.27,2.62,2.62,0,0,0,1.53.39,3.92,3.92,0,0,0,2.78-1.36,13.87,13.87,0,0,0,2.55-4.09,40.23,40.23,0,0,0,2.17-7,33.24,33.24,0,0,0,1-7.32,5.71,5.71,0,0,0-.6-3,2.12,2.12,0,0,0-1.92-.93,3.55,3.55,0,0,0-1.65.42,6.08,6.08,0,0,0-1.89,1.72,16.26,16.26,0,0,0-2.1,3.81,39.34,39.34,0,0,0-1.56,4.8c-.33,1.31-.61,2.6-.84,3.86A26.88,26.88,0,0,0,334.35,32Z"/><path d="M307.88,73.2a2.88,2.88,0,0,0,1.1-.3,1.84,1.84,0,0,0,.62-.62,4.69,4.69,0,0,0,.52-1.19c.17-.52.37-1.33.61-2.45l.54-2.47H301.09l.36-1.81,13.93-16.65h3.18L314.92,64.3h.65a4.82,4.82,0,0,0,1.48-.16,1.8,1.8,0,0,0,.78-.56,5.53,5.53,0,0,0,.73-1.38h1.72l-1.09,4h-4.67L313.91,69c-.11.55-.19,1-.24,1.48s-.07.79-.07,1.06a1.66,1.66,0,0,0,.41,1.26,2.4,2.4,0,0,0,1.47.45l-.21,1h-7.6Zm-3.36-8.9h7.19l1-4.8c.55-2.52,1.16-5,1.84-7.55h-.27L304.57,64Z"/><path d="M420.92,45.7a12.28,12.28,0,0,0-.35,2.25A1.49,1.49,0,0,0,421,49.1a2.59,2.59,0,0,0,1.33.54,21.88,21.88,0,0,0,2.88.22l-.29,1.41H411.39l.29-1.41a24.12,24.12,0,0,0,2.46-.21,5.4,5.4,0,0,0,1.39-.37,2.72,2.72,0,0,0,.85-.55,3.07,3.07,0,0,0,.58-.87,9.11,9.11,0,0,0,.48-1.62l3.06-14c.11-.54.2-1,.26-1.29a5.51,5.51,0,0,0,.08-.79,1,1,0,0,0-.29-.82,1,1,0,0,0-.68-.24,3.93,3.93,0,0,0-1.52.49c-.67.33-1.68.89-3,1.68l-.75-1.54,9.71-5.1h1.32l-.56,2.25c-.2.82-.42,1.78-.65,2.87Z"/><path d="M434.92,46.8a12.26,12.26,0,0,1-.13,1.66,12.42,12.42,0,0,1-.41,1.85,9.53,9.53,0,0,1-.64,1.56,8.34,8.34,0,0,1-.95,1.38,12.69,12.69,0,0,1-1.56,1.56,25.33,25.33,0,0,1-2.52,1.84l-.88-1.2a16.87,16.87,0,0,0,1.42-1.31,5.78,5.78,0,0,0,.83-1.1,7.53,7.53,0,0,0,.59-1.3,19.1,19.1,0,0,0,.56-2.13,23.85,23.85,0,0,0,.46-2.81Z"/><path d="M445.79,36.45a11.12,11.12,0,0,1,3.81-.64,6.93,6.93,0,0,1,3.35.76,5.13,5.13,0,0,1,2.16,2.14,6.81,6.81,0,0,1,.75,3.25,11.27,11.27,0,0,1-1.14,4.91,7.63,7.63,0,0,1-3.35,3.54A11.39,11.39,0,0,1,446,51.58a18.2,18.2,0,0,1-3.53-.37,16.72,16.72,0,0,1-3.37-1l.88-4.09h2.2c.07,2.55,1.39,3.82,3.94,3.82a5.35,5.35,0,0,0,3.43-1.08,6.63,6.63,0,0,0,2-2.93,10.55,10.55,0,0,0,.69-3.72,4.7,4.7,0,0,0-1-3.29,3.85,3.85,0,0,0-3-1.14,12,12,0,0,0-1.66.1,10.92,10.92,0,0,0-1.8.4l-1.63-1.23L445.79,25h9.55a3.12,3.12,0,0,0,1-.1,1.2,1.2,0,0,0,.51-.36,3.36,3.36,0,0,0,.44-.81h1.55l-1.23,4.47h-9.95Z"/><line x1="269.44" y1="41.43" x2="364.26" y2="41.43" style="fill:none;stroke:#000;stroke-miterlimit:10;stroke-width:1.793965220451355px"/><path d="M76.89,41H58V37.7H76.89Zm0,8.69H58V46.39H76.89Z"/><path d="M253.06,41H234.15V37.7h18.91Zm0,8.69H234.15V46.39h18.91Z"/><path d="M393.76,38.67h-18.9V35.39h18.9Zm0,8.69h-18.9V44.08h18.9Z"/><path d="M27.88,33.56l1.78-1.29,1.24.31-3,13.26c-.18.78-.31,1.38-.37,1.81a6.51,6.51,0,0,0-.1,1,1.39,1.39,0,0,0,.45,1.16,3.18,3.18,0,0,0,1.7.46l-.17,1H23.9l1.23-4.9-.26-.08a16.87,16.87,0,0,1-3.53,4,5.69,5.69,0,0,1-3.52,1.27,3.84,3.84,0,0,1-3.31-1.62,7.67,7.67,0,0,1-1.17-4.55,17.27,17.27,0,0,1,.42-3.76,15.51,15.51,0,0,1,1.29-3.57,13.17,13.17,0,0,1,2.07-3,9.33,9.33,0,0,1,2.78-2,7.77,7.77,0,0,1,3.44-.76,9,9,0,0,1,2.29.28A8.16,8.16,0,0,1,27.88,33.56Zm-1.71,5.82A10.22,10.22,0,0,0,26.4,38a12.44,12.44,0,0,0,.06-1.27,3.2,3.2,0,0,0-.64-2.22,2.78,2.78,0,0,0-2.13-.69,4.71,4.71,0,0,0-1.55.26,5.19,5.19,0,0,0-1.49.88,7.67,7.67,0,0,0-1.45,1.61A12.39,12.39,0,0,0,18,39,17,17,0,0,0,17.08,42a16.78,16.78,0,0,0-.31,3.18,6.47,6.47,0,0,0,.55,3,2,2,0,0,0,1.85,1A3.09,3.09,0,0,0,20.42,49a5,5,0,0,0,1.45-1,13.94,13.94,0,0,0,1.8-2.16,13.8,13.8,0,0,0,1.45-2.59,16.42,16.42,0,0,0,.88-3Z"/><path d="M43.67,43Q41,45.88,38.08,48.65l1.28,3c.34.81.61,1.4.82,1.78a3.27,3.27,0,0,0,.55.82,1.81,1.81,0,0,0,.49.38,3,3,0,0,0,.79.18l-.16.68H38.43L36.52,50c-.22.19-.52.46-.88.8s-.71.71-1,1.1a6.77,6.77,0,0,0-.72.94,2.67,2.67,0,0,0-.26.62,2,2,0,0,0-.07.54.77.77,0,0,0,.2.56,1.2,1.2,0,0,0,.68.29l-.15.68H30.35l-.26-.68c2-2.15,4-4.14,5.93-6l-1.31-3.06c-.26-.63-.48-1.1-.64-1.43a4.09,4.09,0,0,0-.48-.75,1.61,1.61,0,0,0-.52-.42,2.4,2.4,0,0,0-.85-.18l.15-.68H35.8l1.83,5.19c.45-.41.88-.84,1.28-1.28a8.1,8.1,0,0,0,.85-1,2.94,2.94,0,0,0,.35-.68,2.3,2.3,0,0,0,.09-.64c0-.5-.29-.79-.88-.86l.15-.68H43.4Z"/></svg>