<svg id="Capa_1" data-name="Capa 1" xmlns="http://www.w3.org/2000/svg" viewBox="0 0 423.85 105.6"><path d="M279.66,67h-9l.23-1a3.63,3.63,0,0,0,1.24-.33,2.17,2.17,0,0,0,.71-.68,5.63,5.63,0,0,0,.63-1.41c.21-.63.46-1.61.75-2.93l4.56-21h-2.71A4.82,4.82,0,0,0,274,40a4.58,4.58,0,0,0-1.58,1.44,21.3,21.3,0,0,0-1.92,3.52h-2.05L270,37.7H292.3l-1.66,7.56h-2.05c0-1.39,0-2.43-.1-3.13a4.22,4.22,0,0,0-.41-1.58,1.68,1.68,0,0,0-.73-.76,4.25,4.25,0,0,0-1.55-.2h-3.16L278,60.77c-.13.56-.21,1-.26,1.33s-.1.68-.13,1a9,9,0,0,0-.06,1,2.16,2.16,0,0,0,.22,1,1.18,1.18,0,0,0,.64.54,5,5,0,0,0,1.47.26Z"/><path d="M171.17,46.25v.3c0,.1,0,.21,0,.32A15.77,15.77,0,0,1,174.84,43a6.62,6.62,0,0,1,3.8-1.26,4,4,0,0,1,3.08,1.15,4.87,4.87,0,0,1,1.05,3.4,16,16,0,0,1-.42,3.31l-1.79,7.65a11,11,0,0,0-.37,2.45,1.94,1.94,0,0,0,.22,1,1.37,1.37,0,0,0,.66.56,5.83,5.83,0,0,0,1.47.3l-.19,1h-6.7l2.69-10.91c.2-.79.37-1.59.52-2.4a12.12,12.12,0,0,0,.22-2.2,3.48,3.48,0,0,0-.53-2.2,2,2,0,0,0-1.68-.66,3.46,3.46,0,0,0-1.87.69,10.22,10.22,0,0,0-2.17,2.1A16.86,16.86,0,0,0,171,49.81a13.23,13.23,0,0,0-1.14,3.38l-1.94,9.39h-3.69l2.45-10.91c.3-1.34.5-2.32.61-3a11,11,0,0,0,.16-1.64,3.41,3.41,0,0,0-.55-2.2,2.07,2.07,0,0,0-1.69-.66,3.43,3.43,0,0,0-1.89.7,10,10,0,0,0-2.19,2.16,15.84,15.84,0,0,0-1.84,2.87,13.24,13.24,0,0,0-1.08,3.34l-1.94,9.3h-3.69l3.24-14.67c.07-.33.17-.82.29-1.47a9,9,0,0,0,.18-1.61,2,2,0,0,0-.18-.93,1.13,1.13,0,0,0-.62-.5,6.1,6.1,0,0,0-1.48-.22l.25-1.14,4.87-.19h1.19l-1.41,5.56.26.09a17.35,17.35,0,0,1,3.9-4.37A6.57,6.57,0,0,1,167,41.7a4,4,0,0,1,3.11,1.17A4.86,4.86,0,0,1,171.17,46.25Z"/><path d="M192.67,66.51a3.06,3.06,0,0,0,1.15-.16,1.84,1.84,0,0,0,.7-.53,5.33,5.33,0,0,0,.67-1.14h1.64l-1.09,4.26h-12l.21-1a27.39,27.39,0,0,1,5.95-6.36L191.86,60a25.64,25.64,0,0,0,2-1.89A9.41,9.41,0,0,0,195,56.76a4.28,4.28,0,0,0,.66-2.34,1.92,1.92,0,0,0-.7-1.56,3,3,0,0,0-2-.57,3.61,3.61,0,0,0-2.2.66,4.87,4.87,0,0,0-1.45,1.85h-2.2l.64-2.92a18.57,18.57,0,0,1,6.08-1.18A6.89,6.89,0,0,1,196,51a4.62,4.62,0,0,1,1.53.82,3.09,3.09,0,0,1,1.15,2.37,5.24,5.24,0,0,1-.47,2.28,8.27,8.27,0,0,1-1.73,2.18q-1.26,1.22-4.2,3.51a38,38,0,0,0-4.76,4.34Z"/><path d="M205,64.43a7.83,7.83,0,0,0-.68,1,3.84,3.84,0,0,0-.39.94,4.21,4.21,0,0,0-.12,1.07A2.6,2.6,0,0,0,205,69.77a6.57,6.57,0,0,0,3.48.74,7.43,7.43,0,0,0,3.52-.75,6.58,6.58,0,0,0,2.39-2.31,17.13,17.13,0,0,0,1.71-3.85,55.44,55.44,0,0,0,1.51-6.11l-.3-.07a19.05,19.05,0,0,1-3.84,4.17,6.25,6.25,0,0,1-3.82,1.31A4.22,4.22,0,0,1,206,61.14a8.4,8.4,0,0,1-1.3-5,18.22,18.22,0,0,1,.62-4.7,16.61,16.61,0,0,1,1.73-4.19,13,13,0,0,1,2.51-3.11,9.75,9.75,0,0,1,2.95-1.83,9,9,0,0,1,3.24-.6,9.45,9.45,0,0,1,2.54.32,8.7,8.7,0,0,1,2.41,1.09l2-1.41,1.36.34-2.22,10.07c-.15.72-.32,1.53-.49,2.43l-.55,2.82c-.67,3.38-1.2,5.7-1.6,7A15.3,15.3,0,0,1,217.48,68a9,9,0,0,1-2.17,2.27,9.55,9.55,0,0,1-2.92,1.41,13.63,13.63,0,0,1-3.89.49q-8.06,0-8.06-4.72a3.65,3.65,0,0,1,.72-2.2,9.88,9.88,0,0,1,2.33-2.08Zm6.13-4.06a3.71,3.71,0,0,0,2.16-.76,10.74,10.74,0,0,0,2.31-2.38,17.41,17.41,0,0,0,1.9-3.12,17.67,17.67,0,0,0,1.17-3.69,18.56,18.56,0,0,0,.48-3.85,3.54,3.54,0,0,0-.71-2.44,3.1,3.1,0,0,0-2.34-.76,5.12,5.12,0,0,0-1.71.29,5.78,5.78,0,0,0-1.64,1,8.16,8.16,0,0,0-1.59,1.77,12.77,12.77,0,0,0-1.38,2.67,18.79,18.79,0,0,0-1,3.36,18.41,18.41,0,0,0-.34,3.49,6.81,6.81,0,0,0,.64,3.34A2.16,2.16,0,0,0,211.15,60.37Z"/><path d="M362.69,46.25v.3c0,.1,0,.21,0,.32A15.41,15.41,0,0,1,366.36,43a6.59,6.59,0,0,1,3.79-1.26,4,4,0,0,1,3.08,1.15,4.83,4.83,0,0,1,1.06,3.4,15.4,15.4,0,0,1-.43,3.31l-1.79,7.65a11.49,11.49,0,0,0-.36,2.45,2.05,2.05,0,0,0,.21,1,1.41,1.41,0,0,0,.66.56,5.83,5.83,0,0,0,1.48.3l-.2,1h-6.69l2.68-10.91c.2-.79.38-1.59.53-2.4a12.12,12.12,0,0,0,.22-2.2,3.55,3.55,0,0,0-.53-2.2,2.05,2.05,0,0,0-1.69-.66,3.52,3.52,0,0,0-1.87.69,10.2,10.2,0,0,0-2.16,2.1,16.86,16.86,0,0,0-1.84,2.81,13.62,13.62,0,0,0-1.15,3.38l-1.94,9.39h-3.69l2.45-10.91c.3-1.34.51-2.32.61-3a9.78,9.78,0,0,0,.16-1.64,3.48,3.48,0,0,0-.54-2.2,2.07,2.07,0,0,0-1.7-.66,3.38,3.38,0,0,0-1.88.7,9.78,9.78,0,0,0-2.19,2.16,16.49,16.49,0,0,0-1.85,2.87,13.25,13.25,0,0,0-1.07,3.34l-2,9.3h-3.69l3.25-14.67c.07-.33.16-.82.29-1.47a9,9,0,0,0,.18-1.61,2,2,0,0,0-.18-.93,1.17,1.17,0,0,0-.62-.5,6.21,6.21,0,0,0-1.49-.22l.26-1.14,4.86-.19h1.2l-1.41,5.56.26.09a17.16,17.16,0,0,1,3.9-4.37,6.52,6.52,0,0,1,3.93-1.43,4,4,0,0,1,3.11,1.17A4.86,4.86,0,0,1,362.69,46.25Z"/><path d="M384.19,66.51a3.06,3.06,0,0,0,1.15-.16,1.74,1.74,0,0,0,.69-.53,5.29,5.29,0,0,0,.68-1.14h1.64l-1.09,4.26h-12l.22-1a27.39,27.39,0,0,1,5.95-6.36L383.38,60a25.64,25.64,0,0,0,2.05-1.89,8.59,8.59,0,0,0,1-1.33,4.28,4.28,0,0,0,.66-2.34,1.92,1.92,0,0,0-.69-1.56,3,3,0,0,0-2-.57,3.61,3.61,0,0,0-2.2.66,4.78,4.78,0,0,0-1.45,1.85h-2.2l.64-2.92a18.52,18.52,0,0,1,6.08-1.18,6.93,6.93,0,0,1,2.21.31,4.47,4.47,0,0,1,1.52.82,3.06,3.06,0,0,1,1.16,2.37,5.24,5.24,0,0,1-.47,2.28A8.49,8.49,0,0,1,388,58.66q-1.26,1.22-4.2,3.51a38,38,0,0,0-4.76,4.34Z"/><path d="M412.16,43.09l2-1.41,1.36.34-3.26,14.59c-.2.86-.34,1.52-.41,2a8,8,0,0,0-.1,1.15A1.53,1.53,0,0,0,412.2,61a3.5,3.5,0,0,0,1.88.51l-.2,1h-6.1l1.35-5.39-.28-.09A19.21,19.21,0,0,1,405,61.51a6.33,6.33,0,0,1-3.89,1.39,4.21,4.21,0,0,1-3.63-1.78,8.44,8.44,0,0,1-1.29-5,18.24,18.24,0,0,1,.47-4.13A16.42,16.42,0,0,1,398,48.05a14.19,14.19,0,0,1,2.28-3.28,10.14,10.14,0,0,1,3.06-2.26,8.57,8.57,0,0,1,3.78-.83,9.83,9.83,0,0,1,2.52.31A8.87,8.87,0,0,1,412.16,43.09Zm-1.88,6.41a12.64,12.64,0,0,0,.25-1.53,12.13,12.13,0,0,0,.07-1.4,3.54,3.54,0,0,0-.71-2.44,3.09,3.09,0,0,0-2.34-.76,5.12,5.12,0,0,0-1.71.29,5.78,5.78,0,0,0-1.64,1,8.16,8.16,0,0,0-1.59,1.77,13.27,13.27,0,0,0-1.38,2.67,18.79,18.79,0,0,0-1,3.36,19.26,19.26,0,0,0-.34,3.49,7.09,7.09,0,0,0,.61,3.34,2.14,2.14,0,0,0,2,1.11,3.5,3.5,0,0,0,1.37-.3A5.64,5.64,0,0,0,405.54,59a15.28,15.28,0,0,0,2-2.37,16.36,16.36,0,0,0,1.59-2.85,18.32,18.32,0,0,0,1-3.32Z"/><path d="M72.45,61.34c-.09.39-.17.72-.22,1s-.09.61-.13,1-.06.75-.06,1a2,2,0,0,0,.19,1,1.17,1.17,0,0,0,.58.49,4.81,4.81,0,0,0,1.34.24l-.21,1H66l.21-1a2.8,2.8,0,0,0,1.11-.38,2.19,2.19,0,0,0,.62-.74,6.26,6.26,0,0,0,.46-1.14c.15-.45.36-1.32.64-2.6l3.3-15a15.73,15.73,0,0,0,.43-3.09,1.65,1.65,0,0,0-.45-1.33,2.57,2.57,0,0,0-1.45-.43l.21-1H88.54l-1.34,6H85.34a20.36,20.36,0,0,0-.21-2.18A4.12,4.12,0,0,0,84.79,43a1.61,1.61,0,0,0-.46-.57,1.52,1.52,0,0,0-.63-.27,5.91,5.91,0,0,0-1.07-.07h-6l-2.3,10.62H78a3.66,3.66,0,0,0,1.42-.24,2.67,2.67,0,0,0,1-.84,12.7,12.7,0,0,0,1.2-2.1H83.4l-1.88,8.24H79.81c0-.81,0-1.44,0-1.9a2,2,0,0,0-.24-.95.88.88,0,0,0-.52-.38,4.36,4.36,0,0,0-1.23-.11H74Z"/><path d="M86.65,61.11a10.45,10.45,0,0,0-.26-1.45A1.22,1.22,0,0,0,86,59a1.63,1.63,0,0,0-.9-.26l.15-.67h3.54l1,10.94q4.65-6.36,4.65-9.11a1.09,1.09,0,0,0-.28-.88,1.57,1.57,0,0,0-.93-.28l.13-.67H97l.38.69a31.73,31.73,0,0,1-1.87,4c-.76,1.37-1.68,2.86-2.78,4.48S90.37,70.56,89,72.31a29.87,29.87,0,0,1-2.59,3A8.67,8.67,0,0,1,85,76.55a5.17,5.17,0,0,1-1.32.58,5,5,0,0,1-1.36.17,5.37,5.37,0,0,1-.84-.07,4.66,4.66,0,0,1-.8-.2l.6-2.58H82.3a1.28,1.28,0,0,0,.22.75.72.72,0,0,0,.61.27,2.75,2.75,0,0,0,.75-.09,3.16,3.16,0,0,0,.67-.29,5.86,5.86,0,0,0,.85-.66,12.7,12.7,0,0,0,1.14-1.21c.42-.5.89-1.1,1.42-1.81Z"/><path d="M26.79,22.81l12.93,26v2.67L25.23,77.94H42.7a8.22,8.22,0,0,0,2.48-.28,3.91,3.91,0,0,0,1.43-.86,5.64,5.64,0,0,0,1.09-1.62,15.78,15.78,0,0,0,.94-2.87,45.73,45.73,0,0,0,.85-4.79H52.6l-.77,17.19H18.17v-2l16.4-29.9L19.18,21.16v-2H52V34.83H49.09q-.66-3.36-1.26-5.46A19,19,0,0,0,46.61,26a7.81,7.81,0,0,0-1.27-1.89,4.48,4.48,0,0,0-1.5-1,6.36,6.36,0,0,0-2.26-.34Z"/><path d="M132.88,50.19H114V46.91h18.91Zm0,8.69H114V55.6h18.91Z"/><path d="M326.4,52.72H307.5V49.44h18.9Zm0,8.7H307.5V58.13h18.9Z"/><path d="M240.43,58.43l.74-3.53H252l-.72,3.53Z"/></svg>