<svg id="Capa_1" data-name="Capa 1" xmlns="http://www.w3.org/2000/svg" viewBox="0 0 459.4 64.53"><path d="M125,44.42a6.12,6.12,0,0,1-3-.66,4.36,4.36,0,0,1-1.91-2.15,9.73,9.73,0,0,1-.68-4,27.49,27.49,0,0,1,.45-4.75,31.74,31.74,0,0,1,1.22-4.82A22.54,22.54,0,0,1,123,24a13.9,13.9,0,0,1,2.37-3.12,9.8,9.8,0,0,1,2.76-1.93,7.32,7.32,0,0,1,3-.66,6,6,0,0,1,2.59.49,4.4,4.4,0,0,1,1.71,1.35,5.52,5.52,0,0,1,.95,2.08,11.57,11.57,0,0,1,.29,2.65A30,30,0,0,1,135.5,33a23.89,23.89,0,0,1-3,6.84,11,11,0,0,1-3.62,3.54A7.55,7.55,0,0,1,125,44.42Zm-2.32-5.58a8.62,8.62,0,0,0,.26,2.37,2.23,2.23,0,0,0,.8,1.23,2.49,2.49,0,0,0,1.49.39,3.85,3.85,0,0,0,2.7-1.33,13.33,13.33,0,0,0,2.47-4,38.15,38.15,0,0,0,2.11-6.76,32,32,0,0,0,1-7.12,5.49,5.49,0,0,0-.58-2.89,2.06,2.06,0,0,0-1.87-.91,3.43,3.43,0,0,0-1.6.41,6,6,0,0,0-1.84,1.67,15.81,15.81,0,0,0-2,3.71A38.91,38.91,0,0,0,124,30.3c-.33,1.27-.6,2.52-.82,3.74A25.43,25.43,0,0,0,122.68,38.84Z"/><path d="M151.38,39.77a11.38,11.38,0,0,1-.13,1.61,10.26,10.26,0,0,1-.4,1.8,7.78,7.78,0,0,1-1.54,2.87,12.58,12.58,0,0,1-1.51,1.5,22.4,22.4,0,0,1-2.46,1.79l-.85-1.16a17.62,17.62,0,0,0,1.38-1.27,5.91,5.91,0,0,0,.81-1.07,7.42,7.42,0,0,0,.57-1.26c.16-.48.35-1.17.55-2.07a27.44,27.44,0,0,0,.44-2.74Zm2.74-12.54-1,4.34h-3.53l.94-4.34Z"/><path d="M177.15,44.12h-7.83l.21-.92a3.17,3.17,0,0,0,1.08-.29,1.92,1.92,0,0,0,.62-.59,5.23,5.23,0,0,0,.55-1.23c.18-.55.4-1.4.65-2.55l4-18.33h-2.36a4.27,4.27,0,0,0-1.84.33,4.16,4.16,0,0,0-1.38,1.26,17.22,17.22,0,0,0-1.67,3.07h-1.79l1.4-6.31h19.41l-1.45,6.59h-1.79c0-1.21,0-2.12-.09-2.72A3.82,3.82,0,0,0,184.5,21a1.48,1.48,0,0,0-.65-.66,3.71,3.71,0,0,0-1.34-.17h-2.76l-4,18.46c-.11.49-.19.87-.23,1.16s-.08.59-.11.91,0,.6,0,.85a1.79,1.79,0,0,0,.19.91,1.08,1.08,0,0,0,.55.48,5,5,0,0,0,1.29.22Z"/><path d="M445.07,45.68a6.27,6.27,0,0,1-2.95-.65,4.39,4.39,0,0,1-1.91-2.16,9.67,9.67,0,0,1-.68-3.95,27.39,27.39,0,0,1,.45-4.74,31.87,31.87,0,0,1,1.22-4.83,22.44,22.44,0,0,1,1.85-4.11,14.52,14.52,0,0,1,2.37-3.12,9.6,9.6,0,0,1,2.76-1.93,7.34,7.34,0,0,1,3-.67,6.2,6.2,0,0,1,2.59.49,4.52,4.52,0,0,1,1.71,1.36,5.45,5.45,0,0,1,.95,2.08,11.51,11.51,0,0,1,.29,2.65,29.91,29.91,0,0,1-1.18,8.15,23.83,23.83,0,0,1-3,6.85,11,11,0,0,1-3.62,3.53A7.55,7.55,0,0,1,445.07,45.68Zm-2.32-5.58a8.62,8.62,0,0,0,.26,2.37,2.26,2.26,0,0,0,.8,1.24,2.56,2.56,0,0,0,1.49.38,3.79,3.79,0,0,0,2.7-1.33,13.2,13.2,0,0,0,2.47-4A37.89,37.89,0,0,0,452.58,32a31.92,31.92,0,0,0,.95-7.11A5.53,5.53,0,0,0,453,22a2.07,2.07,0,0,0-1.87-.9,3.31,3.31,0,0,0-1.6.41,5.94,5.94,0,0,0-1.84,1.66,16.4,16.4,0,0,0-2.05,3.71,39.5,39.5,0,0,0-1.5,4.66c-.32,1.28-.6,2.53-.82,3.75A25.41,25.41,0,0,0,442.75,40.1Z"/><path d="M52.19,40c-.08.34-.15.63-.19.87a8.06,8.06,0,0,0-.12.89c0,.36-.05.66-.05.93a1.81,1.81,0,0,0,.17.84,1,1,0,0,0,.51.44,4.51,4.51,0,0,0,1.19.2l-.19.85h-7l.19-.85a2.43,2.43,0,0,0,1-.33,2,2,0,0,0,.55-.65,7.25,7.25,0,0,0,.41-1c.12-.4.31-1.17.56-2.31L52.07,26.6a13.57,13.57,0,0,0,.37-2.73,1.47,1.47,0,0,0-.39-1.17,2.16,2.16,0,0,0-1.28-.38l.18-.85H66.42l-1.19,5.3H63.59a19,19,0,0,0-.19-1.92,3.74,3.74,0,0,0-.3-1.05,1.56,1.56,0,0,0-.4-.51,1.5,1.5,0,0,0-.56-.23,5.51,5.51,0,0,0-1-.07H55.91l-2,9.39h3.2a3.41,3.41,0,0,0,1.25-.2,2.38,2.38,0,0,0,.93-.75,11,11,0,0,0,1.06-1.86h1.56l-1.66,7.29H58.7c0-.72,0-1.28,0-1.68a1.8,1.8,0,0,0-.21-.84A.79.79,0,0,0,58,34a3.83,3.83,0,0,0-1.09-.1H53.54Z"/><path d="M74,37.75c-1.58,1.68-3.22,3.34-4.94,5l1.13,2.66c.3.72.54,1.24.72,1.58a3.81,3.81,0,0,0,.48.73,1.74,1.74,0,0,0,.44.33,2.94,2.94,0,0,0,.69.16l-.13.6h-3L67.67,43.9c-.19.17-.45.4-.77.71s-.63.63-.93,1a6,6,0,0,0-.63.83,2.41,2.41,0,0,0-.24.55,1.88,1.88,0,0,0,0,.47.66.66,0,0,0,.17.5,1,1,0,0,0,.6.26l-.13.6H62.22l-.23-.6c1.78-1.91,3.53-3.66,5.24-5.27l-1.15-2.71q-.36-.83-.57-1.26a4,4,0,0,0-.42-.67,1.41,1.41,0,0,0-.46-.36,2.19,2.19,0,0,0-.75-.17l.13-.59h3l1.62,4.58c.39-.36.77-.74,1.13-1.13a7.24,7.24,0,0,0,.75-.92,2.7,2.7,0,0,0,.31-.61,2.1,2.1,0,0,0,.08-.56c0-.45-.26-.7-.78-.77l.14-.59h3.46Z"/><path d="M11.83,6,23.26,29v2.37L10.45,54.69H25.89a7.12,7.12,0,0,0,2.19-.25,3.32,3.32,0,0,0,1.27-.76,4.94,4.94,0,0,0,1-1.43,14.42,14.42,0,0,0,.84-2.54c.26-1.08.51-2.49.75-4.24h2.74L34,60.67H4.21V58.93l14.5-26.44L5.1,4.49V2.72h29V16.58H31.54q-.59-3-1.11-4.83a16.61,16.61,0,0,0-1.08-3,6.52,6.52,0,0,0-1.13-1.67,3.89,3.89,0,0,0-1.32-.87,5.76,5.76,0,0,0-2-.29Z"/><path d="M105.61,30.16H88.9v-2.9h16.71Zm0,7.68H88.9v-2.9h16.71Z"/><path d="M428.48,32.4H411.76V29.5h16.72Zm0,7.68H411.76v-2.9h16.72Z"/><path d="M206.07,37.26h-8.13l.62-2.91h8.12Z"/><path d="M234.77,42.56a56.2,56.2,0,0,0,4.42-7.26,12.28,12.28,0,0,0,1.51-5,1.51,1.51,0,0,0-.37-1.19,2.14,2.14,0,0,0-1.26-.38l.18-.92h4.8l.5.94c-.43,1.11-.78,2-1,2.56s-.6,1.32-1,2.17-.87,1.68-1.34,2.52-1,1.75-1.66,2.76-1.36,2.09-2.15,3.27-1.73,2.51-2.81,4h-2.21l-.76-7.82c-.07-.62-.13-1.41-.2-2.4s-.11-1.75-.14-2.28l-.2,0A46.86,46.86,0,0,1,228.28,39q-1.72,3-4.27,7h-2.49l-1.42-14.1a13,13,0,0,0-.27-1.76,2,2,0,0,0-.56-1,2.3,2.3,0,0,0-1.29-.41l.21-.92h4.87l1.12,14.78q2.61-4.3,3.78-6.56a29.86,29.86,0,0,0,1.72-3.88,20.86,20.86,0,0,0,.85-3.42l.21-.92h2.68Z"/><path d="M251.06,47.63a6.49,6.49,0,0,0-.17,1.24.83.83,0,0,0,.26.65,2,2,0,0,0,.92.35,14.29,14.29,0,0,0,2,.14l-.26,1.2h-9.44l.24-1.2a16.76,16.76,0,0,0,1.84-.14,3.46,3.46,0,0,0,1-.3,1.62,1.62,0,0,0,.6-.53,2.75,2.75,0,0,0,.39-1l1.84-8.4c0-.17.06-.31.08-.42a1.85,1.85,0,0,0,0-.26.41.41,0,0,0-.15-.37.8.8,0,0,0-.41-.1,3.28,3.28,0,0,0-1.1.32c-.49.22-1.17.55-2,1l-.6-1.32,6.58-3h1.06c-.26,1-.52,2.09-.78,3.28Z"/><path d="M271.57,32.13a4.15,4.15,0,0,0-1-2.45,3.19,3.19,0,0,0-2.34-.76,3.72,3.72,0,0,0-1.58.33,2.59,2.59,0,0,0-1.52,2.43,2.77,2.77,0,0,0,.28,1.26,4.32,4.32,0,0,0,.94,1.19,14.45,14.45,0,0,0,1.85,1.42,8.87,8.87,0,0,1,2.53,2.36,4.84,4.84,0,0,1,.72,2.64,5.16,5.16,0,0,1-.84,3,5,5,0,0,1-2.28,1.82,8.51,8.51,0,0,1-3.27.6,18.44,18.44,0,0,1-3.06-.24,26.44,26.44,0,0,1-2.76-.62l.87-4h1.45a3.94,3.94,0,0,0,1,2.57,3.3,3.3,0,0,0,2.46.85,3.71,3.71,0,0,0,2.58-.83,2.81,2.81,0,0,0,.93-2.2,3.46,3.46,0,0,0-.28-1.44,3.73,3.73,0,0,0-.87-1.22,13,13,0,0,0-1.69-1.33,14.64,14.64,0,0,1-1.9-1.51,5.4,5.4,0,0,1-1.12-1.57,4.31,4.31,0,0,1-.4-1.88,4.57,4.57,0,0,1,2.93-4.44,8.28,8.28,0,0,1,3.28-.6,16.55,16.55,0,0,1,5.41.81l-.86,3.86Z"/><path d="M289,41.94a15.91,15.91,0,0,1-2.64,2.39,8.92,8.92,0,0,1-2.53,1.26A9.76,9.76,0,0,1,281,46a6.28,6.28,0,0,1-2.53-.47,5,5,0,0,1-1.76-1.31,5.62,5.62,0,0,1-1-2,9.05,9.05,0,0,1-.33-2.5,14.68,14.68,0,0,1,.71-4.3,12.61,12.61,0,0,1,2.17-4.12,10.16,10.16,0,0,1,3.48-2.82,9.58,9.58,0,0,1,4.31-1,5.25,5.25,0,0,1,3.37.92,3.49,3.49,0,0,1,1.13,2.87,5.11,5.11,0,0,1-3,4.77c-2,1.06-4.91,1.59-8.8,1.59a12.44,12.44,0,0,0-.22,2.44,4.32,4.32,0,0,0,.76,2.85,3.1,3.1,0,0,0,2.49.89A6.47,6.47,0,0,0,284.9,43a12.45,12.45,0,0,0,2.91-2.3ZM279.08,36a25.54,25.54,0,0,0,3-.19,13.22,13.22,0,0,0,2.22-.49,5.81,5.81,0,0,0,1.54-.74,3.87,3.87,0,0,0,1-.95,3.12,3.12,0,0,0,.5-1.08,5.17,5.17,0,0,0,.14-1.19,2.77,2.77,0,0,0-.53-1.79,1.92,1.92,0,0,0-1.57-.65,4.24,4.24,0,0,0-2.56.95,8.85,8.85,0,0,0-2.21,2.55A14.44,14.44,0,0,0,279.08,36Z"/><path d="M308.77,45.66h-5.86l2.36-9.51c.15-.61.3-1.28.44-2a10.79,10.79,0,0,0,.21-2,3.18,3.18,0,0,0-.45-1.91,1.73,1.73,0,0,0-1.42-.58,3.1,3.1,0,0,0-1.69.61,9,9,0,0,0-1.88,1.82,15.42,15.42,0,0,0-1.67,2.45,11.18,11.18,0,0,0-1.05,3l-1.69,8.1h-3.22l2.83-12.79c.06-.28.14-.71.25-1.27a7.48,7.48,0,0,0,.16-1.4,1.71,1.71,0,0,0-.16-.82,1,1,0,0,0-.54-.43,4.89,4.89,0,0,0-1.29-.19l.22-1,4.22-.17h1.06l-1.24,4.87.22.08a16.53,16.53,0,0,1,3.51-3.83,5.72,5.72,0,0,1,3.39-1.25,3.54,3.54,0,0,1,2.73,1,4.19,4.19,0,0,1,.93,3A9.9,9.9,0,0,1,309,32.9c-.08.53-.17,1-.27,1.42L307.19,41a10,10,0,0,0-.32,2.14,1.72,1.72,0,0,0,.19.88,1.14,1.14,0,0,0,.57.48,4.74,4.74,0,0,0,1.29.27Z"/><path d="M321.22,53.81a8.36,8.36,0,0,1-4.27-1,5.46,5.46,0,0,1-2.37-2.78,12.3,12.3,0,0,1-.74-4.58,29.89,29.89,0,0,1,.34-4.3c.3-2,.73-4.28,1.29-6.76s1.12-4.54,1.66-6.18a23,23,0,0,1,2.05-4.56,10.71,10.71,0,0,1,2.4-2.8,8.64,8.64,0,0,1,2.95-1.53,14.76,14.76,0,0,1,4.37-.57l-.33,1.54a8.26,8.26,0,0,0-2.7.37A5.6,5.6,0,0,0,324,21.83a9.39,9.39,0,0,0-1.85,2.41,28.4,28.4,0,0,0-2,4.85c-.54,1.72-1.09,3.83-1.63,6.31q-.67,3.06-1.08,5.49a36.52,36.52,0,0,0-.56,5.65,9.18,9.18,0,0,0,.53,3.45A3.38,3.38,0,0,0,319,51.76a5.72,5.72,0,0,0,2.61.51Z"/><path d="M337.08,40.25a12.21,12.21,0,0,0-.33,2.19,1.48,1.48,0,0,0,.39,1.12,2.51,2.51,0,0,0,1.29.52,20.86,20.86,0,0,0,2.8.22L341,45.66H327.82l.28-1.36a23.18,23.18,0,0,0,2.4-.21,5.63,5.63,0,0,0,1.35-.36,2.54,2.54,0,0,0,.83-.54,2.84,2.84,0,0,0,.55-.84,7.34,7.34,0,0,0,.47-1.57l3-13.58c.11-.52.2-.94.25-1.25a4.23,4.23,0,0,0,.09-.77,1,1,0,0,0-.28-.8,1,1,0,0,0-.67-.23,3.88,3.88,0,0,0-1.47.48c-.66.31-1.63.86-2.94,1.64l-.72-1.5,9.42-5h1.29L341.1,22q-.3,1.2-.63,2.79Z"/><path d="M353.67,31.26a10.72,10.72,0,0,1,3.7-.61,6.81,6.81,0,0,1,3.25.73,4.9,4.9,0,0,1,2.1,2.08,6.67,6.67,0,0,1,.73,3.16,10.92,10.92,0,0,1-1.11,4.77,7.34,7.34,0,0,1-3.25,3.44A11.09,11.09,0,0,1,353.85,46a18.65,18.65,0,0,1-3.43-.35,16,16,0,0,1-3.28-1l.86-4h2.13c.08,2.48,1.35,3.71,3.83,3.71a5.18,5.18,0,0,0,3.33-1,6.38,6.38,0,0,0,2-2.84,10.25,10.25,0,0,0,.67-3.62,4.61,4.61,0,0,0-1-3.2,3.78,3.78,0,0,0-2.92-1.1,13.16,13.16,0,0,0-1.62.09,11.42,11.42,0,0,0-1.75.39l-1.58-1.19,2.59-11.75h9.27a2.94,2.94,0,0,0,.92-.1,1.15,1.15,0,0,0,.5-.34,3.27,3.27,0,0,0,.42-.79h1.51l-1.19,4.34h-9.67Z"/><path d="M375.49,31a5.45,5.45,0,0,1-2.85-.73,4.93,4.93,0,0,1-1.91-2,6.25,6.25,0,0,1-.67-2.89,5.81,5.81,0,0,1,.72-2.88,5,5,0,0,1,2-2,5.9,5.9,0,0,1,2.9-.7,5.61,5.61,0,0,1,2.85.71,4.89,4.89,0,0,1,2,2,5.86,5.86,0,0,1,.7,2.89,5.67,5.67,0,0,1-.73,2.87,5.26,5.26,0,0,1-2,2A5.83,5.83,0,0,1,375.49,31Zm.11-9.34a3.57,3.57,0,0,0-1.85.48,3.17,3.17,0,0,0-1.27,1.32,4,4,0,0,0-.45,1.93,4.16,4.16,0,0,0,.44,1.93,3.13,3.13,0,0,0,1.27,1.33,3.63,3.63,0,0,0,1.86.48,3.69,3.69,0,0,0,1.89-.48,3.28,3.28,0,0,0,1.28-1.33,4.45,4.45,0,0,0,0-3.86,3.19,3.19,0,0,0-1.28-1.32A3.69,3.69,0,0,0,375.6,21.66Z"/><path d="M385,18.79a8.4,8.4,0,0,1,4.28,1,5.5,5.5,0,0,1,2.37,2.78,12.35,12.35,0,0,1,.73,4.58,29.84,29.84,0,0,1-.33,4.21q-.45,3.26-1.38,7.25-.87,3.69-1.67,6A22.58,22.58,0,0,1,387,49a10.55,10.55,0,0,1-2.38,2.76,8.71,8.71,0,0,1-3,1.52,15,15,0,0,1-4.35.56l.34-1.54a8.09,8.09,0,0,0,2.68-.37,5.43,5.43,0,0,0,1.87-1.11,9.11,9.11,0,0,0,1.9-2.49,26.53,26.53,0,0,0,2-4.84c.61-2,1.19-4.24,1.74-6.82q.65-3,1-5.32a34,34,0,0,0,.5-5.26,9,9,0,0,0-.54-3.46,3.33,3.33,0,0,0-1.53-1.76,5.68,5.68,0,0,0-2.59-.51Z"/></svg>