<svg id="Capa_1" data-name="Capa 1" xmlns="http://www.w3.org/2000/svg" viewBox="0 0 598.07 112.34"><path d="M285.21,49.86l2-1.42,1.36.34-3.26,14.59c-.2.86-.33,1.52-.41,2a7.76,7.76,0,0,0-.1,1.15,1.53,1.53,0,0,0,.49,1.27,3.54,3.54,0,0,0,1.88.51l-.2,1h-6.1L282.18,64l-.28-.09A19,19,0,0,1,278,68.27a6.32,6.32,0,0,1-3.88,1.39,4.22,4.22,0,0,1-3.64-1.78,8.44,8.44,0,0,1-1.29-5,18.24,18.24,0,0,1,.47-4.13,16.74,16.74,0,0,1,1.41-3.93,14.73,14.73,0,0,1,2.28-3.28,10.11,10.11,0,0,1,3.06-2.25,8.58,8.58,0,0,1,3.78-.84,9.83,9.83,0,0,1,2.52.31A9.22,9.22,0,0,1,285.21,49.86Zm-1.88,6.4a12.64,12.64,0,0,0,.25-1.53,12.07,12.07,0,0,0,.07-1.39,3.47,3.47,0,0,0-.71-2.44,3,3,0,0,0-2.34-.77,5.12,5.12,0,0,0-1.71.29,5.78,5.78,0,0,0-1.64,1,8.43,8.43,0,0,0-1.59,1.77,13.8,13.8,0,0,0-1.38,2.67,18,18,0,0,0-.95,3.36,18.52,18.52,0,0,0-.35,3.49,7.22,7.22,0,0,0,.61,3.34,2.14,2.14,0,0,0,2,1.11,3.5,3.5,0,0,0,1.37-.3,5.64,5.64,0,0,0,1.59-1.11,15.28,15.28,0,0,0,2-2.37,15.73,15.73,0,0,0,1.59-2.85,18.09,18.09,0,0,0,1-3.32Z"/><path d="M402,51.39,404,50l1.37.35L402.07,64.9c-.2.86-.33,1.53-.4,2a8.22,8.22,0,0,0-.11,1.15,1.55,1.55,0,0,0,.49,1.28,3.65,3.65,0,0,0,1.88.5l-.19,1.06h-6.1l1.34-5.4-.28-.08a18.9,18.9,0,0,1-3.88,4.4,6.32,6.32,0,0,1-3.88,1.4,4.23,4.23,0,0,1-3.64-1.79,8.38,8.38,0,0,1-1.29-5,18.91,18.91,0,0,1,.47-4.14,16.33,16.33,0,0,1,1.42-3.93,14.1,14.1,0,0,1,2.27-3.27,10.14,10.14,0,0,1,3.06-2.26A8.59,8.59,0,0,1,397,50a10.21,10.21,0,0,1,2.51.31A9.09,9.09,0,0,1,402,51.39Zm-1.88,6.4a15.18,15.18,0,0,0,.26-1.52c0-.43.06-.9.06-1.4a3.52,3.52,0,0,0-.7-2.44,3.07,3.07,0,0,0-2.35-.76,5.12,5.12,0,0,0-1.71.29,5.47,5.47,0,0,0-1.64,1,8.71,8.71,0,0,0-1.59,1.77,13.44,13.44,0,0,0-1.37,2.66,17.68,17.68,0,0,0-1,3.36,18.51,18.51,0,0,0-.34,3.5,7.24,7.24,0,0,0,.6,3.34,2.16,2.16,0,0,0,2,1.1,3.58,3.58,0,0,0,1.38-.3,6.1,6.1,0,0,0,1.59-1.1,15.54,15.54,0,0,0,2-2.38A15.15,15.15,0,0,0,399,62a18,18,0,0,0,1-3.31Z"/><path d="M142.56,80.05l.16-.72a1.74,1.74,0,0,0,1-.38,1.68,1.68,0,0,0,.52-.89,5.66,5.66,0,0,0,.16-1.51c0-.38,0-.8,0-1.25l-.1-1.89h-6.4l-.8,1.44a12.4,12.4,0,0,0-.83,1.73,4,4,0,0,0-.26,1.29c0,.82.49,1.31,1.47,1.46l-.16.72h-5.95l.16-.72a1.77,1.77,0,0,0,.85-.36,4.4,4.4,0,0,0,.85-.9,23.27,23.27,0,0,0,1.27-2l9.32-16.23H146l1,16.33A8,8,0,0,0,147.3,78a2.15,2.15,0,0,0,.51,1,1.7,1.7,0,0,0,1,.4l-.16.72Zm-4-7.91h5.68L144,67.42c0-.64-.06-1.45-.08-2.41s0-1.67,0-2.1h-.16Z"/><path d="M225.39,68.62a4.65,4.65,0,0,1,2.08,1.55,3.76,3.76,0,0,1,.73,2.28,6.51,6.51,0,0,1-.54,2.7,5.52,5.52,0,0,1-1.73,2.09,7.37,7.37,0,0,1-2.7,1.26,16.78,16.78,0,0,1-3.77.36H213l.16-.71a2,2,0,0,0,.83-.29,1.57,1.57,0,0,0,.46-.55,4.77,4.77,0,0,0,.35-.86c.11-.33.27-1,.48-2l2.47-11.28a11.1,11.1,0,0,0,.32-2.32,1.24,1.24,0,0,0-.33-1,1.88,1.88,0,0,0-1.09-.32l.16-.72H224a10.82,10.82,0,0,1,3.5.46,3.83,3.83,0,0,1,1.93,1.35,3.9,3.9,0,0,1,.62,2.25,5.12,5.12,0,0,1-1.17,3.34,7.29,7.29,0,0,1-3.46,2.19Zm-8.17,8.9c.76,0,1.46,0,2.12,0a8.32,8.32,0,0,0,3.4-.55,4.35,4.35,0,0,0,1.94-1.82,5.88,5.88,0,0,0,.74-3,3.22,3.22,0,0,0-.37-1.61,2.6,2.6,0,0,0-1.18-1,5,5,0,0,0-2.21-.4H219Zm4.16-9.69a12.24,12.24,0,0,0,2.44-.2,4.14,4.14,0,0,0,1.5-.62,5.25,5.25,0,0,0,1-1,4.16,4.16,0,0,0,.73-1.29,5.21,5.21,0,0,0,.27-1.76,3.3,3.3,0,0,0-.22-1.18,2.18,2.18,0,0,0-.75-.94,3.31,3.31,0,0,0-1.22-.55,7.66,7.66,0,0,0-1.84-.17c-.85,0-1.63,0-2.36,0l-1.64,7.63Z"/><path d="M21.23,64.62c-.1.43-.18.8-.24,1.1s-.1.67-.15,1.11-.06.82-.06,1.15A2.15,2.15,0,0,0,21,69a1.33,1.33,0,0,0,.64.55,5.69,5.69,0,0,0,1.48.25l-.24,1.06H14.1l.24-1.06a2.7,2.7,0,0,0,1.21-.42,2.37,2.37,0,0,0,.69-.8,8.2,8.2,0,0,0,.51-1.26c.16-.49.39-1.45.7-2.87l3.63-16.54a17.08,17.08,0,0,0,.47-3.39,1.87,1.87,0,0,0-.49-1.47,2.84,2.84,0,0,0-1.6-.47l.23-1.05H38.93l-1.47,6.6h-2a22.79,22.79,0,0,0-.24-2.4,4.7,4.7,0,0,0-.37-1.3,1.76,1.76,0,0,0-.5-.63,1.65,1.65,0,0,0-.7-.29,5.93,5.93,0,0,0-1.18-.09H25.86L23.32,55.13h4a4.17,4.17,0,0,0,1.56-.26A3,3,0,0,0,30,53.94a15.13,15.13,0,0,0,1.32-2.31h1.94l-2.07,9.06H29.33c0-.89,0-1.58,0-2.08a2.28,2.28,0,0,0-.25-1,1.09,1.09,0,0,0-.58-.42A5.13,5.13,0,0,0,27.09,57H22.91Z"/><path d="M527.34,36.08c-.1.43-.18.79-.23,1.1a10.92,10.92,0,0,0-.15,1.1,10.19,10.19,0,0,0-.07,1.15,2,2,0,0,0,.22,1,1.2,1.2,0,0,0,.64.55,5.41,5.41,0,0,0,1.47.26l-.24,1h-8.77l.24-1a3,3,0,0,0,1.22-.42,2.3,2.3,0,0,0,.68-.81,8.05,8.05,0,0,0,.51-1.25c.16-.5.39-1.45.7-2.87l3.63-16.54a17.26,17.26,0,0,0,.47-3.4,1.81,1.81,0,0,0-.49-1.46,2.76,2.76,0,0,0-1.6-.47L525.8,13h19.25l-1.48,6.59h-2a22.56,22.56,0,0,0-.24-2.39,4.59,4.59,0,0,0-.37-1.3,1.9,1.9,0,0,0-.5-.64,1.94,1.94,0,0,0-.7-.29,6.91,6.91,0,0,0-1.18-.08H532l-2.54,11.68h4a4.15,4.15,0,0,0,1.56-.25,3.09,3.09,0,0,0,1.15-.94,14.18,14.18,0,0,0,1.32-2.31h1.94l-2.07,9.07h-1.87c0-.89,0-1.58-.06-2.09a2.28,2.28,0,0,0-.25-1,1.09,1.09,0,0,0-.58-.42,5.09,5.09,0,0,0-1.35-.12H529Z"/><path d="M71.73,52.51H52.83V49.23h18.9Zm0,8.69H52.83V57.92h18.9Z"/><path d="M438.13,54H419.22V50.76h18.91Zm0,8.69H419.22V59.45h18.91Z"/><path d="M100.52,73.47a8.85,8.85,0,0,1-4.46-1,5.69,5.69,0,0,1-2.47-2.9,12.89,12.89,0,0,1-.77-4.78,32.65,32.65,0,0,1,.35-4.49q.47-3.16,1.35-7t1.74-6.44a23.67,23.67,0,0,1,2.13-4.76,11.29,11.29,0,0,1,2.5-2.92,9.23,9.23,0,0,1,3.08-1.6,15.63,15.63,0,0,1,4.56-.59l-.35,1.6a8.28,8.28,0,0,0-2.81.4,5.83,5.83,0,0,0-2,1.17,9.88,9.88,0,0,0-1.92,2.52,28.44,28.44,0,0,0-2,5.06c-.57,1.79-1.14,4-1.71,6.58Q97,57.45,96.58,60a38.8,38.8,0,0,0-.58,5.9,9.4,9.4,0,0,0,.56,3.59,3.5,3.5,0,0,0,1.59,1.85,5.9,5.9,0,0,0,2.72.54Z"/><path d="M123.85,50.13v.27c0,.09,0,.19,0,.29a14.3,14.3,0,0,1,3.36-3.55A6,6,0,0,1,130.64,46a3.59,3.59,0,0,1,2.8,1,4.44,4.44,0,0,1,1,3.1,14.18,14.18,0,0,1-.39,3l-1.63,7a10.39,10.39,0,0,0-.33,2.22,1.82,1.82,0,0,0,.2.92,1.27,1.27,0,0,0,.6.51,4.73,4.73,0,0,0,1.34.27L134,65h-6.09l2.45-9.92c.18-.72.34-1.44.47-2.18a10.72,10.72,0,0,0,.21-2,3.2,3.2,0,0,0-.49-2,1.84,1.84,0,0,0-1.53-.6,3.17,3.17,0,0,0-1.7.63,9.11,9.11,0,0,0-2,1.91,15.64,15.64,0,0,0-1.67,2.55,12.06,12.06,0,0,0-1,3.08L120.88,65h-3.35l2.23-9.92c.27-1.21.46-2.11.55-2.69a8.91,8.91,0,0,0,.15-1.49,3.13,3.13,0,0,0-.5-2,1.88,1.88,0,0,0-1.54-.6,3.06,3.06,0,0,0-1.71.64,9.06,9.06,0,0,0-2,2A14.32,14.32,0,0,0,113,53.48a12.12,12.12,0,0,0-1,3L110.3,65h-3.36l3-13.34c.06-.3.15-.74.26-1.33a8.18,8.18,0,0,0,.17-1.46,1.77,1.77,0,0,0-.17-.85,1,1,0,0,0-.56-.45,5.25,5.25,0,0,0-1.35-.21l.23-1,4.42-.18H114l-1.28,5.06.23.08a16,16,0,0,1,3.55-4A6,6,0,0,1,120.05,46a3.62,3.62,0,0,1,2.83,1.06A4.41,4.41,0,0,1,123.85,50.13Z"/><path d="M166.57,54.85l-1.63,7.44H162l1.63-7.44h-6.62l.58-2.63h6.6l1.61-7.43h2.91l-1.61,7.43h6.67l-.58,2.63Z"/><path d="M202.8,50.13v.27c0,.09,0,.19,0,.29a14.12,14.12,0,0,1,3.36-3.55A6,6,0,0,1,209.59,46a3.59,3.59,0,0,1,2.8,1,4.44,4.44,0,0,1,1,3.1,14.18,14.18,0,0,1-.39,3l-1.63,7a10.39,10.39,0,0,0-.33,2.22,1.82,1.82,0,0,0,.2.92,1.27,1.27,0,0,0,.6.51,4.73,4.73,0,0,0,1.34.27L213,65h-6.09l2.45-9.92c.18-.72.34-1.44.47-2.18a10.65,10.65,0,0,0,.2-2,3.21,3.21,0,0,0-.48-2,1.84,1.84,0,0,0-1.53-.6,3.14,3.14,0,0,0-1.7.63,8.89,8.89,0,0,0-2,1.91,16.42,16.42,0,0,0-1.68,2.55,12.47,12.47,0,0,0-1,3.08L199.83,65h-3.35l2.23-9.92c.27-1.21.45-2.11.55-2.69a8.91,8.91,0,0,0,.15-1.49,3.13,3.13,0,0,0-.5-2,1.88,1.88,0,0,0-1.54-.6,3.12,3.12,0,0,0-1.72.64,9,9,0,0,0-2,2A14.32,14.32,0,0,0,192,53.48a12.12,12.12,0,0,0-1,3L189.24,65h-3.35l3-13.34c.06-.3.15-.74.26-1.33a8,8,0,0,0,.16-1.46,1.79,1.79,0,0,0-.16-.85,1,1,0,0,0-.56-.45,5.25,5.25,0,0,0-1.35-.21l.23-1,4.42-.18h1.09l-1.28,5.06.23.08a15.81,15.81,0,0,1,3.55-4A6,6,0,0,1,199,46a3.64,3.64,0,0,1,2.83,1.06A4.41,4.41,0,0,1,202.8,50.13Z"/><path d="M247.09,36.94a8.79,8.79,0,0,1,4.46,1,5.76,5.76,0,0,1,2.48,2.9,12.91,12.91,0,0,1,.76,4.78,29.76,29.76,0,0,1-.35,4.39c-.31,2.27-.79,4.78-1.43,7.56q-.91,3.84-1.75,6.29a23.4,23.4,0,0,1-2.06,4.56,11,11,0,0,1-2.49,2.88,9.23,9.23,0,0,1-3.09,1.58,15.54,15.54,0,0,1-4.54.59l.35-1.6a8.28,8.28,0,0,0,2.81-.4,5.77,5.77,0,0,0,1.94-1.15,9.56,9.56,0,0,0,2-2.6,27.1,27.1,0,0,0,2.05-5q1-3.09,1.81-7.12.67-3.14,1.07-5.55a36,36,0,0,0,.52-5.49,9.48,9.48,0,0,0-.56-3.61,3.54,3.54,0,0,0-1.6-1.84,6,6,0,0,0-2.71-.53Z"/><path d="M493.38,96.75l.16-.72a1.74,1.74,0,0,0,1-.38,1.68,1.68,0,0,0,.52-.89,5.61,5.61,0,0,0,.16-1.51c0-.38,0-.8-.05-1.24l-.1-1.89h-6.4l-.8,1.43a12.44,12.44,0,0,0-.83,1.74,3.93,3.93,0,0,0-.26,1.28c0,.82.49,1.31,1.47,1.46l-.16.72h-5.95l.16-.72a1.76,1.76,0,0,0,.85-.35,4.49,4.49,0,0,0,.85-.91,23.27,23.27,0,0,0,1.27-2l9.32-16.23h2.2l1.05,16.34a7.89,7.89,0,0,0,.26,1.8,2.15,2.15,0,0,0,.51,1,1.64,1.64,0,0,0,1,.4l-.16.72Zm-4-7.91H495l-.24-4.72c0-.64-.06-1.45-.08-2.41s0-1.67,0-2.1h-.16Z"/><path d="M576.21,85.33a4.51,4.51,0,0,1,2.08,1.54,3.76,3.76,0,0,1,.73,2.28,6.44,6.44,0,0,1-.54,2.7,5.52,5.52,0,0,1-1.73,2.09,7.37,7.37,0,0,1-2.7,1.26,16.72,16.72,0,0,1-3.77.37h-6.47l.16-.72a2,2,0,0,0,.83-.29,1.49,1.49,0,0,0,.46-.55,5,5,0,0,0,.35-.85c.11-.34.27-1,.48-2l2.47-11.28a11.11,11.11,0,0,0,.32-2.31,1.26,1.26,0,0,0-.33-1,1.86,1.86,0,0,0-1.09-.32l.16-.72h7.2a10.82,10.82,0,0,1,3.5.46,3.78,3.78,0,0,1,1.93,1.36,3.84,3.84,0,0,1,.62,2.24A5.14,5.14,0,0,1,579.7,83a7.2,7.2,0,0,1-3.46,2.18ZM568,94.22c.76,0,1.46.06,2.12.06a8.3,8.3,0,0,0,3.4-.56,4.35,4.35,0,0,0,1.94-1.82,5.77,5.77,0,0,0,.74-3,3.23,3.23,0,0,0-.37-1.62,2.55,2.55,0,0,0-1.18-1,5.1,5.1,0,0,0-2.21-.4h-2.64Zm4.16-9.69a11.53,11.53,0,0,0,2.44-.2,4.14,4.14,0,0,0,1.5-.62,5,5,0,0,0,1-1,4.05,4.05,0,0,0,.73-1.29,5.21,5.21,0,0,0,.27-1.76,3.3,3.3,0,0,0-.22-1.18,2.24,2.24,0,0,0-.75-.94A3.48,3.48,0,0,0,576,77a8.21,8.21,0,0,0-1.84-.17c-.85,0-1.63,0-2.36,0l-1.64,7.63Z"/><path d="M472.83,71.48v.28c0,.09,0,.18,0,.29a14.17,14.17,0,0,1,3.35-3.56,6,6,0,0,1,3.45-1.15,3.62,3.62,0,0,1,2.81,1,4.42,4.42,0,0,1,1,3.09,14.18,14.18,0,0,1-.39,3l-1.63,7a10.38,10.38,0,0,0-.33,2.23,1.83,1.83,0,0,0,.19.92,1.27,1.27,0,0,0,.6.51,5.69,5.69,0,0,0,1.34.27l-.17,1H476.9l2.44-9.93c.18-.71.34-1.44.48-2.17a11.76,11.76,0,0,0,.2-2,3.24,3.24,0,0,0-.48-2,1.87,1.87,0,0,0-1.54-.59,3.09,3.09,0,0,0-1.69.62,9,9,0,0,0-2,1.92,15,15,0,0,0-1.68,2.54,12.6,12.6,0,0,0-1,3.08l-1.76,8.54H466.5l2.23-9.93c.28-1.21.46-2.1.56-2.68a10.07,10.07,0,0,0,.14-1.5,3.17,3.17,0,0,0-.49-2,1.89,1.89,0,0,0-1.54-.59,3.17,3.17,0,0,0-1.72.63,9.29,9.29,0,0,0-2,2A15,15,0,0,0,462,74.83a12.21,12.21,0,0,0-1,3l-1.77,8.46h-3.35L458.86,73c.07-.3.16-.75.27-1.33a8.23,8.23,0,0,0,.16-1.47,1.84,1.84,0,0,0-.16-.85,1,1,0,0,0-.57-.45,5.68,5.68,0,0,0-1.35-.2l.24-1,4.42-.17H463l-1.28,5.06.23.08a15.64,15.64,0,0,1,3.55-4,5.93,5.93,0,0,1,3.57-1.3,3.64,3.64,0,0,1,2.83,1.07A4.43,4.43,0,0,1,472.83,71.48Z"/><path d="M515.55,76.21l-1.63,7.44H511l1.63-7.44H506l.58-2.64h6.59l1.61-7.42h2.91l-1.61,7.42h6.67l-.58,2.64Z"/><path d="M551.77,71.48v.28a1.52,1.52,0,0,1,0,.29,14.37,14.37,0,0,1,3.36-3.56,6,6,0,0,1,3.45-1.15,3.6,3.6,0,0,1,2.8,1,4.42,4.42,0,0,1,1,3.09,14.77,14.77,0,0,1-.38,3l-1.63,7a10.38,10.38,0,0,0-.33,2.23,1.83,1.83,0,0,0,.19.92,1.27,1.27,0,0,0,.6.51,5.58,5.58,0,0,0,1.34.27l-.17,1h-6.09l2.44-9.93c.18-.71.34-1.44.48-2.17a11.76,11.76,0,0,0,.2-2,3.17,3.17,0,0,0-.49-2,1.84,1.84,0,0,0-1.53-.59,3.09,3.09,0,0,0-1.69.62,9,9,0,0,0-2,1.92,15,15,0,0,0-1.68,2.54,12.6,12.6,0,0,0-1,3.08l-1.76,8.54h-3.36l2.23-9.93c.27-1.21.46-2.1.56-2.68a10.07,10.07,0,0,0,.14-1.5,3.17,3.17,0,0,0-.49-2,1.89,1.89,0,0,0-1.55-.59,3.14,3.14,0,0,0-1.71.63,9.29,9.29,0,0,0-2,2A15,15,0,0,0,541,74.83a12.63,12.63,0,0,0-1,3l-1.76,8.46h-3.36L537.81,73c.07-.3.15-.75.26-1.33a8.38,8.38,0,0,0,.17-1.47,1.83,1.83,0,0,0-.17-.85,1,1,0,0,0-.56-.45,5.68,5.68,0,0,0-1.35-.2l.24-1,4.42-.17h1.08l-1.28,5.06.24.08a15.64,15.64,0,0,1,3.55-4,5.93,5.93,0,0,1,3.56-1.3,3.63,3.63,0,0,1,2.83,1.07A4.38,4.38,0,0,1,551.77,71.48Z"/><line x1="454.23" y1="55.2" x2="584.41" y2="55.2" style="fill:none;stroke:#000;stroke-miterlimit:10;stroke-width:2px"/></svg>