<svg id="Capa_1" data-name="Capa 1" xmlns="http://www.w3.org/2000/svg" viewBox="0 0 424.24 322.78"><path d="M32.81,37.35H25.62l-2.85-7.48H9.7L7,37.35H0L12.73,4.42h7Zm-12.16-13-4.5-12.21L11.73,24.32Z"/><path d="M59.6,27.47v-1.9h12v1.9Zm0,5.67v-1.9h12v1.9Z"/><path d="M90.17,28.53a7.7,7.7,0,0,1-2,1,6.42,6.42,0,0,1-2,.32A4.2,4.2,0,0,1,84,29.27a3.58,3.58,0,0,1-1.46-1.59A5.44,5.44,0,0,1,82,25.25a8.22,8.22,0,0,1,.23-1.91A6.72,6.72,0,0,1,83,21.46a6,6,0,0,1,1.31-1.55,5.72,5.72,0,0,1,1.87-1.06,7,7,0,0,1,2.34-.38,4.82,4.82,0,0,1,2.14.45,4.12,4.12,0,0,1,1.54,1.23A5.58,5.58,0,0,1,93.09,22a8.44,8.44,0,0,1,.31,2.37A15.38,15.38,0,0,1,93.15,27a14,14,0,0,1-.67,2.4,14.76,14.76,0,0,1-1.1,2.3,13,13,0,0,1-3.2,3.58,11.26,11.26,0,0,1-2,1.19,11.82,11.82,0,0,1-2.16.77,11,11,0,0,1-2.24.31l-.5-.75.14-.67a10.67,10.67,0,0,0,4.05-1.08,8.31,8.31,0,0,0,2.87-2.48,13.55,13.55,0,0,0,1.93-4Zm-3.07-.08a4.67,4.67,0,0,0,1.61-.3A4.49,4.49,0,0,0,90,27.44a2.67,2.67,0,0,0,.63-.64A2.92,2.92,0,0,0,91,25.66a11.27,11.27,0,0,0,.13-1.94,5.14,5.14,0,0,0-.75-3,2.54,2.54,0,0,0-2.2-1,3,3,0,0,0-1.94.73,4.77,4.77,0,0,0-1.39,2,8,8,0,0,0-.5,2.87,3.72,3.72,0,0,0,.65,2.4A2.57,2.57,0,0,0,87.1,28.45Z"/><path d="M105,27.66v.18a3.56,3.56,0,0,1,2.17,3.47,6.7,6.7,0,0,1-.13,1.24,6.32,6.32,0,0,1-.6,1.81,5.29,5.29,0,0,1-1.36,1.69A6.18,6.18,0,0,1,103,37.17a8.44,8.44,0,0,1-2.69.4,7.2,7.2,0,0,1-2.79-.5,4,4,0,0,1-1.82-1.46,4,4,0,0,1-.63-2.24,6.51,6.51,0,0,1,.4-2.19,5.3,5.3,0,0,1,1.32-2,7.67,7.67,0,0,1,2.36-1.47v-.18A4.29,4.29,0,0,1,97.77,26a4.16,4.16,0,0,1-.44-1.94,5.46,5.46,0,0,1,.11-1.1A4.78,4.78,0,0,1,98,21.4a5,5,0,0,1,1.29-1.51,6.51,6.51,0,0,1,2-1,8.12,8.12,0,0,1,2.52-.38,7.19,7.19,0,0,1,3,.53,3.62,3.62,0,0,1,1.68,1.41,3.91,3.91,0,0,1,.52,2,5.35,5.35,0,0,1-.43,2.11,5.16,5.16,0,0,1-1.33,1.87A6.21,6.21,0,0,1,105,27.66Zm-7.45,6a2.78,2.78,0,0,0,.74,2.08,3,3,0,0,0,2.18.71,3.67,3.67,0,0,0,3.25-1.72,6,6,0,0,0,.75-1.81,8.06,8.06,0,0,0,.26-2A2.36,2.36,0,0,0,102,28.25,3.95,3.95,0,0,0,98.63,30a5.92,5.92,0,0,0-.82,1.78A6.8,6.8,0,0,0,97.53,33.62Zm2.13-9.12a4,4,0,0,0,.12,1,1.91,1.91,0,0,0,.42.84,2,2,0,0,0,.81.57,3.53,3.53,0,0,0,1.33.21,3.74,3.74,0,0,0,2.1-.59,4.08,4.08,0,0,0,1.47-1.75,5.6,5.6,0,0,0,.57-2.51,2.64,2.64,0,0,0-.68-2,2.77,2.77,0,0,0-2-.65,3.81,3.81,0,0,0-2.29.67,3.85,3.85,0,0,0-1.39,1.85A6.42,6.42,0,0,0,99.66,24.5Z"/><path d="M114.5,26.84a7.8,7.8,0,0,1,2.7-.45,5.05,5.05,0,0,1,2.37.53,3.61,3.61,0,0,1,1.54,1.53,4.82,4.82,0,0,1,.53,2.3,8,8,0,0,1-.81,3.48,5.37,5.37,0,0,1-2.38,2.51,8,8,0,0,1-3.82.83,13.36,13.36,0,0,1-2.5-.26,11.9,11.9,0,0,1-2.4-.71l.63-2.9h1.56a2.47,2.47,0,0,0,2.8,2.71,3.82,3.82,0,0,0,2.43-.77,4.71,4.71,0,0,0,1.45-2.07,7.7,7.7,0,0,0,.49-2.64,3.37,3.37,0,0,0-.74-2.34,2.73,2.73,0,0,0-2.13-.81,7.53,7.53,0,0,0-2.45.36l-1.16-.88,1.89-8.57h6.77a2.12,2.12,0,0,0,.67-.08.74.74,0,0,0,.36-.25,2.34,2.34,0,0,0,.32-.57h1.1L122.85,21h-7.06Z"/><path d="M149,18.69l-.15.67a2.39,2.39,0,0,0-.74.25,1.23,1.23,0,0,0-.41.41,3.76,3.76,0,0,0-.37.85c-.12.39-.28,1-.47,1.89l-3.19,14.59h-1.84l-4-11.73q-.72-2.1-1.26-4.2h-.17c-.06.47-.21,1.36-.45,2.66s-.51,2.59-.78,3.84L134,33.37q-.12.59-.21,1.11a7.49,7.49,0,0,0-.08,1,1.05,1.05,0,0,0,.31.86,1.76,1.76,0,0,0,1,.31l-.15.67h-4.75l.15-.67a1.87,1.87,0,0,0,.78-.26,1.6,1.6,0,0,0,.43-.52,4.4,4.4,0,0,0,.33-.8c.1-.31.25-.92.44-1.82l2.31-10.53c.09-.39.17-.76.22-1.12a7.85,7.85,0,0,0,.08-1.08,1.1,1.1,0,0,0-.32-.9,2,2,0,0,0-1-.29l.15-.67h4.33l3.58,10.65c.52,1.53.92,2.83,1.2,3.88H143c.07-.55.24-1.48.49-2.77s.5-2.43.72-3.39l.95-4.31c.06-.3.13-.66.19-1.07a6.73,6.73,0,0,0,.11-1.13,1.07,1.07,0,0,0-.33-.9,1.93,1.93,0,0,0-1-.29l.15-.67Z"/><path d="M166.07,24.8l-1,1.48-2.87-2.46-.53,4.28h-1.89l1.31-4.28-3.59,2.51-.8-1.58,4.16-1.81-3.27-1.83,1-1.5,2.88,2.46.51-4.28h1.89l-1.29,4.28,3.54-2.5.82,1.58-4.14,1.79Z"/><path d="M188.13,19.17l-.82,3.7H186a4.13,4.13,0,0,0-.73-2.42,2.42,2.42,0,0,0-2-.75,3.8,3.8,0,0,0-2.15.68,7.53,7.53,0,0,0-1.9,1.95,13.85,13.85,0,0,0-1.56,3,21.54,21.54,0,0,0-1,3.5,17.14,17.14,0,0,0-.35,3.22,5.78,5.78,0,0,0,.73,3.27,2.56,2.56,0,0,0,2.27,1,4.64,4.64,0,0,0,1.78-.31,3.87,3.87,0,0,0,1.42-1,9.12,9.12,0,0,0,1.32-2h1.3l-.83,3.88a19.83,19.83,0,0,1-2.67.55,20.84,20.84,0,0,1-2.65.16,5.49,5.49,0,0,1-2.86-.7,4.39,4.39,0,0,1-1.78-2,7.79,7.79,0,0,1-.6-3.21,13.31,13.31,0,0,1,.14-1.91,23.66,23.66,0,0,1,.51-2.5,16.91,16.91,0,0,1,1.13-3.06,13.57,13.57,0,0,1,1.67-2.59,10,10,0,0,1,1.91-1.74,8.26,8.26,0,0,1,2-1,7.54,7.54,0,0,1,2.34-.36,16.31,16.31,0,0,1,2.29.15A14.91,14.91,0,0,1,188.13,19.17Z"/><path d="M192.61,37.58a4.39,4.39,0,0,1-3.27-1.18A4.74,4.74,0,0,1,188.18,33a10.55,10.55,0,0,1,.21-1.93,11.22,11.22,0,0,1,.73-2.54,8.33,8.33,0,0,1,1.57-2.39,6.52,6.52,0,0,1,2.2-1.53,6.72,6.72,0,0,1,2.66-.53,4.9,4.9,0,0,1,2.56.6,3.54,3.54,0,0,1,1.45,1.64,5.91,5.91,0,0,1,.45,2.38,11.19,11.19,0,0,1-.34,2.6,10.55,10.55,0,0,1-1.43,3.43,6.16,6.16,0,0,1-2.35,2.14A7,7,0,0,1,192.61,37.58Zm-2.05-4a3.31,3.31,0,0,0,.62,2.22,2.31,2.31,0,0,0,1.86.71,3,3,0,0,0,2.36-1.2A8.48,8.48,0,0,0,197,31.93a14.47,14.47,0,0,0,.6-3.81,3.63,3.63,0,0,0-.57-2.22,2.08,2.08,0,0,0-1.78-.74,3.17,3.17,0,0,0-2.46,1.19,8.37,8.37,0,0,0-1.66,3.4A15,15,0,0,0,190.56,33.57Z"/><path d="M210.11,27.47a3.06,3.06,0,0,0-.7-1.79,2.33,2.33,0,0,0-1.71-.55,2.69,2.69,0,0,0-1.15.24,1.93,1.93,0,0,0-.82.7,2,2,0,0,0-.29,1.07,2,2,0,0,0,.2.92,3,3,0,0,0,.69.87,11,11,0,0,0,1.35,1,6.46,6.46,0,0,1,1.84,1.72,3.48,3.48,0,0,1,.53,1.93,3.75,3.75,0,0,1-.61,2.18,3.62,3.62,0,0,1-1.67,1.33,6,6,0,0,1-2.39.44,13.08,13.08,0,0,1-2.23-.18,18.55,18.55,0,0,1-2-.45l.64-2.95h1.06a2.89,2.89,0,0,0,.71,1.88,2.44,2.44,0,0,0,1.8.62,2.7,2.7,0,0,0,1.89-.61,2,2,0,0,0,.68-1.6,2.54,2.54,0,0,0-.21-1.06,3,3,0,0,0-.63-.89,10.6,10.6,0,0,0-1.24-1,10.53,10.53,0,0,1-1.38-1.1,4,4,0,0,1-.83-1.15,3.23,3.23,0,0,1-.29-1.37,3.48,3.48,0,0,1,.56-2,3.52,3.52,0,0,1,1.58-1.27,6.08,6.08,0,0,1,2.4-.44,12.2,12.2,0,0,1,3.95.59l-.63,2.82Z"/><path d="M221.47,22.3l.56-2.63a17.07,17.07,0,0,1,2.79-.92,12.83,12.83,0,0,1,2.66-.28,6.42,6.42,0,0,1,1.67.21,3.8,3.8,0,0,1,1.38.63,3.07,3.07,0,0,1,.94,1.08,3.38,3.38,0,0,1,.34,1.58,4.89,4.89,0,0,1-.49,2.24A5.05,5.05,0,0,1,229.74,26a12.55,12.55,0,0,1-3,1.56v.15a4.79,4.79,0,0,1,2.58,1.44,3.74,3.74,0,0,1,.9,2.54,5.94,5.94,0,0,1-.49,2.29,5.54,5.54,0,0,1-3.56,3.17,9.81,9.81,0,0,1-3,.42,13.63,13.63,0,0,1-2.67-.28,11.41,11.41,0,0,1-2.34-.69l.63-2.9h1.56a2.78,2.78,0,0,0,.83,2,3.17,3.17,0,0,0,2.18.66,4.28,4.28,0,0,0,2.32-.6,3.87,3.87,0,0,0,1.5-1.77,6.14,6.14,0,0,0,.54-2.62,2.65,2.65,0,0,0-.94-2.22,4.58,4.58,0,0,0-2.83-.73h-1.36l.26-1.21a9.61,9.61,0,0,0,2.9-.6,6.19,6.19,0,0,0,2.05-1.24,4.45,4.45,0,0,0,1.12-1.6,4.72,4.72,0,0,0,.33-1.71,2.3,2.3,0,0,0-.66-1.75,2.53,2.53,0,0,0-1.82-.63,3.45,3.45,0,0,0-2.15.64,4.94,4.94,0,0,0-1.43,1.93Z"/><path d="M240.84,33.4a8.86,8.86,0,0,0-.24,1.6,1,1,0,0,0,.28.81,1.87,1.87,0,0,0,.94.39,16,16,0,0,0,2.05.15l-.21,1h-9.58l.2-1A14.24,14.24,0,0,0,236,36.2a3.9,3.9,0,0,0,1-.26,2,2,0,0,0,.6-.39,2.09,2.09,0,0,0,.41-.62,5.63,5.63,0,0,0,.34-1.15l2.17-9.91c.08-.38.14-.69.18-.91a2.72,2.72,0,0,0,.07-.56.73.73,0,0,0-.21-.59.75.75,0,0,0-.49-.17A2.9,2.9,0,0,0,239,22c-.48.23-1.19.63-2.14,1.2l-.53-1.1,6.88-3.62h.94l-.4,1.6c-.14.58-.3,1.26-.46,2Z"/><path d="M254.2,26.65a4,4,0,0,1-2.09-.54,3.58,3.58,0,0,1-1.39-1.47,4.53,4.53,0,0,1-.49-2.11,4.25,4.25,0,0,1,.53-2.1A3.64,3.64,0,0,1,252.22,19a4.33,4.33,0,0,1,2.11-.51,4.13,4.13,0,0,1,2.09.52,3.67,3.67,0,0,1,1.42,1.45,4.31,4.31,0,0,1,.51,2.11,4.19,4.19,0,0,1-.53,2.09,3.83,3.83,0,0,1-1.49,1.47A4.22,4.22,0,0,1,254.2,26.65Zm.08-6.83a2.67,2.67,0,0,0-1.36.35,2.45,2.45,0,0,0-.92,1,2.94,2.94,0,0,0-.33,1.41A3.08,3.08,0,0,0,252,24a2.23,2.23,0,0,0,.93,1,2.67,2.67,0,0,0,1.36.35,2.75,2.75,0,0,0,1.38-.35,2.35,2.35,0,0,0,.93-1,3.27,3.27,0,0,0,0-2.82,2.48,2.48,0,0,0-.93-1A2.75,2.75,0,0,0,254.28,19.82Z"/><path d="M265.51,27.47v-1.9h12v1.9Zm0,5.67v-1.9h12v1.9Z"/><path d="M297.3,27.49l0,.18a5.06,5.06,0,0,1,2.38,1.78,4.73,4.73,0,0,1,.81,2.78,4.78,4.78,0,0,1-.86,2.82,5.43,5.43,0,0,1-2.46,1.87,9.92,9.92,0,0,1-3.77.66,9.76,9.76,0,0,1-3.58-.6,5.27,5.27,0,0,1-2.37-1.78,5,5,0,0,1-.41-4.8,4.25,4.25,0,0,1,1.13-1.47,7.25,7.25,0,0,1,1.69-1l0-.18a4.48,4.48,0,0,1-3-4.36,4,4,0,0,1,.86-2.51,5.67,5.67,0,0,1,2.45-1.74,9.55,9.55,0,0,1,3.55-.63,8.51,8.51,0,0,1,5,1.22,4,4,0,0,1,1.68,3.44,4.45,4.45,0,0,1-.77,2.59A5.18,5.18,0,0,1,297.3,27.49Zm-6.53,4.63a5.06,5.06,0,0,0,.71,2.94,2.48,2.48,0,0,0,2.13,1,2.72,2.72,0,0,0,1.5-.41,2.61,2.61,0,0,0,.95-1.26,5.55,5.55,0,0,0,.33-2,5.76,5.76,0,0,0-.34-2.09,3,3,0,0,0-1-1.36,2.39,2.39,0,0,0-1.49-.48,2.48,2.48,0,0,0-2.54,1.8A6,6,0,0,0,290.77,32.12Zm.16-8.88a4.59,4.59,0,0,0,.7,2.74,2.37,2.37,0,0,0,2,.95,2.29,2.29,0,0,0,2-.89,4.25,4.25,0,0,0,.66-2.55,4.16,4.16,0,0,0-.69-2.59,2.31,2.31,0,0,0-2-.9,2.5,2.5,0,0,0-2,.82A3.69,3.69,0,0,0,290.93,23.24Z"/><path d="M308.33,36.45a4.32,4.32,0,0,0,.79-.29,1.14,1.14,0,0,0,.44-.43,1.82,1.82,0,0,0,.19-.69c0-.28,0-.64,0-1.06v-2h-7.28V30.46l8.24-11.87h3.06V30.22h.42a3.31,3.31,0,0,0,.93-.09,1,1,0,0,0,.47-.34,2.42,2.42,0,0,0,.37-.87h1.43l-.16,3h-3.46v2a8.75,8.75,0,0,0,.06,1.15,1.92,1.92,0,0,0,.23.68,1.07,1.07,0,0,0,.45.39,5.86,5.86,0,0,0,.72.25v.9h-6.94Zm-3.18-6.23h4.64V27.08c0-1.31,0-2.69.13-4.14h-.13l-4.64,7Z"/><path d="M324.8,36.45a3.93,3.93,0,0,0,.78-.29,1.07,1.07,0,0,0,.44-.43,1.66,1.66,0,0,0,.19-.69,10.54,10.54,0,0,0,0-1.06v-2H319V30.46l8.24-11.87h3V30.22h.42a3.34,3.34,0,0,0,.94-.09,1,1,0,0,0,.47-.34,2.61,2.61,0,0,0,.37-.87h1.43l-.17,3h-3.46v2a7.11,7.11,0,0,0,.07,1.15,1.74,1.74,0,0,0,.23.68,1.07,1.07,0,0,0,.45.39,5.86,5.86,0,0,0,.72.25v.9H324.8Zm-3.19-6.23h4.64V27.08c0-1.31.05-2.69.14-4.14h-.14l-4.64,7Z"/><path d="M339.67,33.22c.08.38.14.79.19,1.25s.06.86.06,1.23a5.3,5.3,0,0,1-.36,2,6,6,0,0,1-1.18,1.73,15.23,15.23,0,0,1-2.27,1.89l-1.05-1.19a4.56,4.56,0,0,0,.92-1.09,4.17,4.17,0,0,0,.47-1.28A8.53,8.53,0,0,0,336.6,36c0-.82-.06-1.76-.16-2.81Z"/><path d="M343.17,23.19V20a15.86,15.86,0,0,1,6.23-1.48,8.61,8.61,0,0,1,3,.47,4.21,4.21,0,0,1,2,1.36,3.37,3.37,0,0,1,.7,2.16,4.33,4.33,0,0,1-.46,2.05,4.76,4.76,0,0,1-1.3,1.54,11.5,11.5,0,0,1-2.16,1.28v.12a6.25,6.25,0,0,1,2.15.8,4.4,4.4,0,0,1,1.55,1.57,4.49,4.49,0,0,1,.58,2.28,5.29,5.29,0,0,1-.77,2.83,5.14,5.14,0,0,1-2.33,1.94,9.16,9.16,0,0,1-3.79.7,15.9,15.9,0,0,1-3-.28,11.06,11.06,0,0,1-2.58-.79V33.07h2.44a4.86,4.86,0,0,0,1.12,2.27,2.56,2.56,0,0,0,1.88.7q2.88,0,2.88-3.58a3.75,3.75,0,0,0-1-2.87,4.36,4.36,0,0,0-3.07-.95h-1.08V27.08A5.85,5.85,0,0,0,349.66,26,3.63,3.63,0,0,0,350.88,23a3.64,3.64,0,0,0-.61-2.29,2.15,2.15,0,0,0-1.78-.77,2.45,2.45,0,0,0-2.23,1.32,5.47,5.47,0,0,0-.65,1.91Z"/><path d="M368.54,33.54a5.77,5.77,0,0,0,.09,1.19,1.45,1.45,0,0,0,.31.66,1.48,1.48,0,0,0,.65.4,5.62,5.62,0,0,0,1.05.22c.43.05,1,.08,1.69.1v1.24H360.61V36.11a18.44,18.44,0,0,0,2.15-.19,2.42,2.42,0,0,0,1-.35,1.3,1.3,0,0,0,.49-.65,4.15,4.15,0,0,0,.16-1.38V23.65a1.22,1.22,0,0,0-.21-.8.7.7,0,0,0-.58-.25,2.39,2.39,0,0,0-1,.31,21.37,21.37,0,0,0-2,1.29l-.83-1.45,7.08-4.28h1.74c-.05.88-.08,2.09-.08,3.64Z"/><path d="M391.87,18.69v.9a5.38,5.38,0,0,0-.76.3,1.21,1.21,0,0,0-.38.33,1.43,1.43,0,0,0-.24.62,7.85,7.85,0,0,0-.08,1.28V37.35H387l-6.11-10.63c-.82-1.44-1.43-2.57-1.82-3.4h-.12q.13,2.94.14,6.21v4.4a6.72,6.72,0,0,0,.1,1.44,1.27,1.27,0,0,0,.37.65,2.44,2.44,0,0,0,1,.43v.9h-5.13v-.9a3.56,3.56,0,0,0,.8-.3,1.1,1.1,0,0,0,.43-.45,1.88,1.88,0,0,0,.18-.7,10.63,10.63,0,0,0,0-1.07V22.11a8.65,8.65,0,0,0-.08-1.42,1.32,1.32,0,0,0-.37-.65,2.53,2.53,0,0,0-1-.45v-.9h5.5l4.8,8.41c.3.53.69,1.24,1.17,2.14s.91,1.76,1.28,2.56h.22q-.15-3.27-.15-7.14V22.12a9.12,9.12,0,0,0-.07-1.28,1.59,1.59,0,0,0-.21-.6,1.16,1.16,0,0,0-.38-.35,4.29,4.29,0,0,0-.8-.3v-.9Z"/><path d="M46.86,30.4c-1.57,1.68-3.21,3.35-4.92,5l1.12,2.67c.3.72.54,1.25.72,1.58a3.64,3.64,0,0,0,.48.74,1.58,1.58,0,0,0,.44.33,2.51,2.51,0,0,0,.69.16l-.13.6h-3l-1.69-4.91c-.19.17-.45.41-.77.72s-.62.63-.92,1a6,6,0,0,0-.63.84,2.24,2.24,0,0,0-.24.55,1.83,1.83,0,0,0-.05.47.68.68,0,0,0,.17.5,1,1,0,0,0,.6.26l-.13.6H35.12l-.23-.6q2.65-2.86,5.23-5.29L39,32.86q-.36-.82-.57-1.26a4,4,0,0,0-.42-.67,1.47,1.47,0,0,0-.46-.37,2.16,2.16,0,0,0-.75-.16l.14-.6h3l1.62,4.6c.39-.37.77-.74,1.12-1.13a7.17,7.17,0,0,0,.75-.93,2.7,2.7,0,0,0,.31-.61,2.1,2.1,0,0,0,.08-.56c0-.45-.26-.71-.77-.77l.13-.6h3.45Z"/><path d="M32.81,90.56H25.62l-2.85-7.48H9.7L7,90.56H0L12.73,57.63h7Zm-12.16-13-4.5-12.22L11.73,77.53Z"/><path d="M59.6,80.67v-1.9h12v1.9Zm0,5.68v-1.9h12v1.9Z"/><path d="M90.17,81.74a8,8,0,0,1-2,1,6.71,6.71,0,0,1-2,.32A4.3,4.3,0,0,1,84,82.48a3.68,3.68,0,0,1-1.46-1.59A5.44,5.44,0,0,1,82,78.46a8.36,8.36,0,0,1,.23-1.92A6.85,6.85,0,0,1,83,74.66a6.39,6.39,0,0,1,1.31-1.55,5.91,5.91,0,0,1,1.87-1.06,7,7,0,0,1,2.34-.37,5,5,0,0,1,2.14.44,4.33,4.33,0,0,1,1.54,1.23,5.73,5.73,0,0,1,.92,1.87,8.42,8.42,0,0,1,.31,2.36,15.2,15.2,0,0,1-.25,2.64,13.89,13.89,0,0,1-.67,2.41,14.76,14.76,0,0,1-1.1,2.3,12.39,12.39,0,0,1-1.47,2,13,13,0,0,1-1.73,1.6,11.91,11.91,0,0,1-2,1.19,11.08,11.08,0,0,1-2.16.76,10.34,10.34,0,0,1-2.24.32l-.5-.75.14-.67a10.67,10.67,0,0,0,4.05-1.08,8.42,8.42,0,0,0,2.87-2.48,13.61,13.61,0,0,0,1.93-4Zm-3.07-.08a4.67,4.67,0,0,0,1.61-.3A4.74,4.74,0,0,0,90,80.65a2.68,2.68,0,0,0,.63-.65A2.81,2.81,0,0,0,91,78.87a11.27,11.27,0,0,0,.13-1.94,5.19,5.19,0,0,0-.75-3.06,2.54,2.54,0,0,0-2.2-1,3,3,0,0,0-1.94.72,4.9,4.9,0,0,0-1.39,2,8.08,8.08,0,0,0-.5,2.87A3.73,3.73,0,0,0,85,80.88,2.57,2.57,0,0,0,87.1,81.66Z"/><path d="M105,80.86V81a3.58,3.58,0,0,1,2.17,3.48,6.7,6.7,0,0,1-.13,1.24,6.25,6.25,0,0,1-.6,1.8,5.22,5.22,0,0,1-1.36,1.7A6.16,6.16,0,0,1,103,90.37a8.44,8.44,0,0,1-2.69.41,7,7,0,0,1-2.79-.51,4,4,0,0,1-1.82-1.45,4,4,0,0,1-.63-2.24,6.51,6.51,0,0,1,.4-2.19,5.15,5.15,0,0,1,1.32-2,7.68,7.68,0,0,1,2.36-1.48v-.17a4.32,4.32,0,0,1-1.39-1.56,4.12,4.12,0,0,1-.44-1.93,5.49,5.49,0,0,1,.11-1.11A5,5,0,0,1,98,74.6a5.06,5.06,0,0,1,1.29-1.5,6.3,6.3,0,0,1,2-1,8.12,8.12,0,0,1,2.52-.38,7.19,7.19,0,0,1,3,.53,3.62,3.62,0,0,1,1.68,1.41,3.85,3.85,0,0,1,.52,2,5.36,5.36,0,0,1-.43,2.12,5.24,5.24,0,0,1-1.33,1.87A6.19,6.19,0,0,1,105,80.86Zm-7.45,6a2.74,2.74,0,0,0,.74,2.07,3,3,0,0,0,2.18.71,3.67,3.67,0,0,0,3.25-1.72,6.09,6.09,0,0,0,.75-1.8,8.2,8.2,0,0,0,.26-2A2.37,2.37,0,0,0,102,81.45a4,4,0,0,0-2,.47,3.92,3.92,0,0,0-1.4,1.25A5.7,5.7,0,0,0,97.81,85,6.75,6.75,0,0,0,97.53,86.83Zm2.13-9.12a4.07,4.07,0,0,0,.12,1,1.87,1.87,0,0,0,.42.83,2.16,2.16,0,0,0,.81.58,3.53,3.53,0,0,0,1.33.21,3.82,3.82,0,0,0,2.1-.59A4.14,4.14,0,0,0,105.91,78a5.62,5.62,0,0,0,.57-2.52,2.61,2.61,0,0,0-.68-2,2.77,2.77,0,0,0-2-.65,3.69,3.69,0,0,0-3.68,2.52A6.38,6.38,0,0,0,99.66,77.71Z"/><path d="M114.5,80a7.8,7.8,0,0,1,2.7-.45,4.94,4.94,0,0,1,2.37.54,3.59,3.59,0,0,1,1.54,1.52,4.85,4.85,0,0,1,.53,2.3,7.92,7.92,0,0,1-.81,3.48A5.35,5.35,0,0,1,118.45,90a8.08,8.08,0,0,1-3.82.83,13.36,13.36,0,0,1-2.5-.26,12.58,12.58,0,0,1-2.4-.71l.63-2.9h1.56a2.47,2.47,0,0,0,2.8,2.7,3.81,3.81,0,0,0,2.43-.76,4.68,4.68,0,0,0,1.45-2.08,7.61,7.61,0,0,0,.49-2.64,3.37,3.37,0,0,0-.74-2.34,2.76,2.76,0,0,0-2.13-.8,8.51,8.51,0,0,0-1.18.07,8.29,8.29,0,0,0-1.27.28l-1.16-.87,1.89-8.57h6.77a2.12,2.12,0,0,0,.67-.08.81.81,0,0,0,.36-.25,2.25,2.25,0,0,0,.32-.58h1.1l-.87,3.18h-7.06Z"/><path d="M149,71.9l-.15.67a2.44,2.44,0,0,0-.74.24,1.33,1.33,0,0,0-.41.41,3.87,3.87,0,0,0-.37.86c-.12.38-.28,1-.47,1.89l-3.19,14.59h-1.84l-4-11.73c-.48-1.41-.9-2.8-1.26-4.2h-.17c-.06.47-.21,1.35-.45,2.66s-.51,2.59-.78,3.83L134,86.58q-.12.57-.21,1.11a7.23,7.23,0,0,0-.08,1,1.09,1.09,0,0,0,.31.87,1.83,1.83,0,0,0,1,.31l-.15.67h-4.75l.15-.67a2,2,0,0,0,.78-.27,1.46,1.46,0,0,0,.43-.51,4.72,4.72,0,0,0,.33-.8c.1-.32.25-.92.44-1.83L134.6,76c.09-.39.17-.77.22-1.12a7.85,7.85,0,0,0,.08-1.08,1.1,1.1,0,0,0-.32-.9,1.78,1.78,0,0,0-1-.29l.15-.67h4.33l3.58,10.65c.52,1.53.92,2.82,1.2,3.88H143c.07-.56.24-1.48.49-2.78s.5-2.42.72-3.39l.95-4.3c.06-.3.13-.66.19-1.07a6.83,6.83,0,0,0,.11-1.13,1.07,1.07,0,0,0-.33-.9,1.76,1.76,0,0,0-1-.29l.15-.67Z"/><path d="M166.07,78l-1,1.47L162.24,77l-.53,4.28h-1.89L161.13,77l-3.59,2.52-.8-1.59,4.16-1.8-3.27-1.83,1-1.51,2.88,2.46L162,71h1.89l-1.29,4.28,3.54-2.5.82,1.59-4.14,1.79Z"/><path d="M174.21,86.31a3.47,3.47,0,0,0,.77,2.46,3.06,3.06,0,0,0,2.37.82,4.64,4.64,0,0,0,2.15-.47,3.13,3.13,0,0,0,1.35-1.32,4.17,4.17,0,0,0,.46-2A3.45,3.45,0,0,0,181,84.3a4.05,4.05,0,0,0-.88-1.21,11.84,11.84,0,0,0-1.7-1.34,11.2,11.2,0,0,1-1.67-1.34,5.28,5.28,0,0,1-1.06-1.49,4,4,0,0,1-.4-1.83,5.2,5.2,0,0,1,.78-2.84,5,5,0,0,1,2.18-1.9,7.48,7.48,0,0,1,3.26-.67,14,14,0,0,1,2.32.17,16.33,16.33,0,0,1,2.35.58l-.76,3.51h-1.3a5.16,5.16,0,0,0-.36-1.82,1.85,1.85,0,0,0-.85-1,3.27,3.27,0,0,0-1.48-.29,4.08,4.08,0,0,0-2,.47,3.19,3.19,0,0,0-1.31,1.26,3.67,3.67,0,0,0-.44,1.78,3.25,3.25,0,0,0,.24,1.28,3.61,3.61,0,0,0,.78,1.1A11.86,11.86,0,0,0,180.31,80a13.72,13.72,0,0,1,2,1.66,4.82,4.82,0,0,1,1,1.55,5.08,5.08,0,0,1,.33,1.9,5.52,5.52,0,0,1-.79,3,5.29,5.29,0,0,1-2.24,2,7.4,7.4,0,0,1-3.29.71,21.37,21.37,0,0,1-2.68-.19,21,21,0,0,1-2.6-.52l.81-3.76Z"/><path d="M196.49,87.84a11.52,11.52,0,0,1-1.93,1.75,6.3,6.3,0,0,1-1.84.91,6.94,6.94,0,0,1-2,.28,4.56,4.56,0,0,1-1.85-.35,3.51,3.51,0,0,1-1.28-1A3.85,3.85,0,0,1,186.8,88a6.62,6.62,0,0,1-.25-1.82,10.54,10.54,0,0,1,.53-3.14,9.13,9.13,0,0,1,1.58-3A7.21,7.21,0,0,1,191.2,78a6.94,6.94,0,0,1,3.15-.73,3.82,3.82,0,0,1,2.46.67,2.52,2.52,0,0,1,.82,2.09,3.73,3.73,0,0,1-2.16,3.48A13.93,13.93,0,0,1,189,84.67a9,9,0,0,0-.16,1.77,3.19,3.19,0,0,0,.55,2.09,2.29,2.29,0,0,0,1.82.65,4.79,4.79,0,0,0,2.27-.55A8.85,8.85,0,0,0,195.65,87Zm-7.22-4.34a17.28,17.28,0,0,0,2.19-.14,9.37,9.37,0,0,0,1.62-.36,4.25,4.25,0,0,0,1.13-.54,2.6,2.6,0,0,0,.71-.69,2.28,2.28,0,0,0,.37-.79,3.57,3.57,0,0,0,.1-.87,2,2,0,0,0-.39-1.3,1.36,1.36,0,0,0-1.14-.47A3.07,3.07,0,0,0,192,79a6.3,6.3,0,0,0-1.61,1.86A10.42,10.42,0,0,0,189.27,83.5Z"/><path d="M211,90.56h-4.28l1.73-7c.1-.44.21-.94.32-1.47a8,8,0,0,0,.15-1.45,2.31,2.31,0,0,0-.33-1.4,1.25,1.25,0,0,0-1-.42,2.28,2.28,0,0,0-1.23.44,6.74,6.74,0,0,0-1.38,1.33,11.51,11.51,0,0,0-1.21,1.79,8,8,0,0,0-.77,2.21l-1.23,5.92h-2.35l2.06-9.34q.08-.31.18-.93a5.52,5.52,0,0,0,.12-1,1.22,1.22,0,0,0-.12-.6.63.63,0,0,0-.39-.31,3.62,3.62,0,0,0-.94-.15l.16-.72,3.08-.13h.78l-.91,3.56.16,0a12.26,12.26,0,0,1,2.56-2.79,4.16,4.16,0,0,1,2.48-.91,2.58,2.58,0,0,1,2,.73,3.1,3.1,0,0,1,.68,2.17,7,7,0,0,1-.09,1.07,10,10,0,0,1-.2,1l-1.14,4.87a7.57,7.57,0,0,0-.23,1.56,1.27,1.27,0,0,0,.14.64.88.88,0,0,0,.42.36,3.76,3.76,0,0,0,.94.19Z"/><path d="M222.73,75.51l.56-2.63a15.34,15.34,0,0,1,2.79-.92,12.28,12.28,0,0,1,2.67-.28,7,7,0,0,1,1.67.2,4.21,4.21,0,0,1,1.37.63,3,3,0,0,1,.94,1.09,3.38,3.38,0,0,1,.35,1.58,5,5,0,0,1-.49,2.23,5.38,5.38,0,0,1-1.58,1.8,12.75,12.75,0,0,1-3,1.56l0,.15a4.67,4.67,0,0,1,2.58,1.44,3.74,3.74,0,0,1,.9,2.54,5.89,5.89,0,0,1-.49,2.28,5.62,5.62,0,0,1-1.38,2,6,6,0,0,1-2.18,1.22,9.81,9.81,0,0,1-3,.42,14.44,14.44,0,0,1-2.67-.28,11.11,11.11,0,0,1-2.33-.69l.62-2.9h1.56a2.84,2.84,0,0,0,.83,2,3.21,3.21,0,0,0,2.18.65,4.34,4.34,0,0,0,2.33-.6,4,4,0,0,0,1.5-1.76,6.3,6.3,0,0,0,.53-2.63,2.63,2.63,0,0,0-.94-2.21,4.56,4.56,0,0,0-2.83-.74h-1.36l.26-1.2a9.61,9.61,0,0,0,2.9-.6,6.1,6.1,0,0,0,2-1.25,4.37,4.37,0,0,0,1.12-1.6,4.46,4.46,0,0,0,.34-1.71,2.32,2.32,0,0,0-.67-1.75,2.57,2.57,0,0,0-1.82-.62,3.4,3.4,0,0,0-2.14.64,5.06,5.06,0,0,0-1.44,1.93Z"/><path d="M242.1,86.61a8.74,8.74,0,0,0-.24,1.6,1.06,1.06,0,0,0,.28.81,1.79,1.79,0,0,0,1,.38,15.51,15.51,0,0,0,2,.16l-.2,1h-9.59l.21-1c.76,0,1.34-.09,1.75-.15a3.93,3.93,0,0,0,1-.26,2,2,0,0,0,.61-.4,2,2,0,0,0,.4-.61,5.84,5.84,0,0,0,.34-1.15l2.17-9.91c.09-.38.15-.69.19-.92a3.35,3.35,0,0,0,.06-.56.71.71,0,0,0-.21-.58.72.72,0,0,0-.48-.17,2.88,2.88,0,0,0-1.08.35c-.48.23-1.19.63-2.14,1.19l-.53-1.09,6.88-3.62h.94l-.4,1.6c-.14.58-.29,1.26-.46,2Z"/><path d="M255.46,79.85a4,4,0,0,1-2.08-.53A3.58,3.58,0,0,1,252,77.85a4.44,4.44,0,0,1-.49-2.11,4.19,4.19,0,0,1,.52-2.1,3.64,3.64,0,0,1,1.46-1.45,4.35,4.35,0,0,1,2.12-.51,4.12,4.12,0,0,1,2.08.52,3.63,3.63,0,0,1,1.43,1.45,4.4,4.4,0,0,1,.5,2.1,4.1,4.1,0,0,1-.53,2.1,3.9,3.9,0,0,1-1.49,1.47A4.21,4.21,0,0,1,255.46,79.85Zm.08-6.82a2.64,2.64,0,0,0-1.35.35,2.39,2.39,0,0,0-.93,1,2.93,2.93,0,0,0-.32,1.41,3.12,3.12,0,0,0,.31,1.42,2.41,2.41,0,0,0,.93,1,2.86,2.86,0,0,0,2.74,0,2.48,2.48,0,0,0,.93-1,3,3,0,0,0,.33-1.42,2.94,2.94,0,0,0-.33-1.41,2.39,2.39,0,0,0-.93-1A2.72,2.72,0,0,0,255.54,73Z"/><path d="M266.77,80.67v-1.9h12v1.9Zm0,5.68v-1.9h12v1.9Z"/><path d="M288.73,89.71V86.29h2.46a4.37,4.37,0,0,0,1.09,2.22,2.62,2.62,0,0,0,1.92.74,2.57,2.57,0,0,0,2.19-.93,4.67,4.67,0,0,0,.7-2.85,4.21,4.21,0,0,0-.9-2.9,3.42,3.42,0,0,0-2.64-1,9.29,9.29,0,0,0-1.43.12,9.94,9.94,0,0,0-1.36.3l-1.23-.77V71.9h8a3.06,3.06,0,0,0,.73-.07,1,1,0,0,0,.38-.23A1.94,1.94,0,0,0,299,71h1.5l-.27,4.37h-8.34v4.92a10.48,10.48,0,0,1,1.66-.37,17.46,17.46,0,0,1,2.09-.11,6.57,6.57,0,0,1,2.95.63,4.57,4.57,0,0,1,2,1.82,5.45,5.45,0,0,1,.7,2.81,5.67,5.67,0,0,1-.84,3.17A5,5,0,0,1,298,90.14a10.11,10.11,0,0,1-3.8.64,15.43,15.43,0,0,1-2.91-.29A10.89,10.89,0,0,1,288.73,89.71Z"/><path d="M311.13,90.78a6.41,6.41,0,0,1-3.55-.94,5.86,5.86,0,0,1-2.2-3,15.72,15.72,0,0,1-.78-5.41,15.46,15.46,0,0,1,.79-5.3,6.89,6.89,0,0,1,2.31-3.29,6,6,0,0,1,3.68-1.13,5.73,5.73,0,0,1,5,2.29c1.09,1.52,1.64,3.86,1.64,7s-.58,5.67-1.74,7.33A5.88,5.88,0,0,1,311.13,90.78ZM308.73,81a35.28,35.28,0,0,0,.26,4.79,6.53,6.53,0,0,0,.84,2.61,1.75,1.75,0,0,0,1.52.85,1.61,1.61,0,0,0,.9-.26,2.18,2.18,0,0,0,.69-.79,5.61,5.61,0,0,0,.53-1.44,13.94,13.94,0,0,0,.31-2.22c.06-.89.09-1.88.09-3a39.23,39.23,0,0,0-.18-4.11,11.21,11.21,0,0,0-.52-2.57,3.21,3.21,0,0,0-.8-1.29,1.75,1.75,0,0,0-2.29.1,3.26,3.26,0,0,0-.79,1.45,11.37,11.37,0,0,0-.43,2.43C308.77,78.55,308.73,79.69,308.73,81Z"/><path d="M334.6,72.8l-7.53,17.8h-2.78v-.94l6.81-13.91v-.2h-6a4.11,4.11,0,0,0-1,.09,1.42,1.42,0,0,0-.6.31,1.44,1.44,0,0,0-.37.55,6.73,6.73,0,0,0-.31,1.07h-1.58l.36-5.67h13Z"/><path d="M340.93,86.43a12.54,12.54,0,0,1,.19,1.24c0,.46.07.87.07,1.23a5.22,5.22,0,0,1-.37,2,5.81,5.81,0,0,1-1.17,1.73,16,16,0,0,1-2.28,1.9l-1-1.19a4.36,4.36,0,0,0,.91-1.1,4.29,4.29,0,0,0,.48-1.27,9.52,9.52,0,0,0,.14-1.75,27,27,0,0,0-.16-2.8Z"/><path d="M344.43,76.39V73.15a16,16,0,0,1,6.23-1.47,8.62,8.62,0,0,1,2.95.46,4.37,4.37,0,0,1,2,1.36,3.46,3.46,0,0,1,.7,2.17,4.3,4.3,0,0,1-.47,2,4.72,4.72,0,0,1-1.29,1.54,11.39,11.39,0,0,1-2.17,1.29v.12a6.16,6.16,0,0,1,2.15.79,4.39,4.39,0,0,1,2.13,3.86,5.23,5.23,0,0,1-.77,2.82,5.08,5.08,0,0,1-2.33,1.94,9.14,9.14,0,0,1-3.78.71,16.8,16.8,0,0,1-3-.28,11.37,11.37,0,0,1-2.58-.79V86.28h2.45a4.72,4.72,0,0,0,1.11,2.26,2.59,2.59,0,0,0,1.89.71q2.86,0,2.87-3.59a3.73,3.73,0,0,0-1-2.87,4.36,4.36,0,0,0-3.07-.94h-1.07V80.29a5.84,5.84,0,0,0,3.58-1.11,4.34,4.34,0,0,0,.61-5.24,2.15,2.15,0,0,0-1.78-.77,2.72,2.72,0,0,0-1.23.29,2.68,2.68,0,0,0-1,1,5.63,5.63,0,0,0-.65,1.9Z"/><path d="M369.8,86.74a6,6,0,0,0,.09,1.2,1.45,1.45,0,0,0,.31.66,1.43,1.43,0,0,0,.65.39,4.89,4.89,0,0,0,1.06.22,16.45,16.45,0,0,0,1.68.1v1.25H361.87V89.31a17.1,17.1,0,0,0,2.16-.18,2.52,2.52,0,0,0,1-.35,1.3,1.3,0,0,0,.5-.66,4.51,4.51,0,0,0,.15-1.38V76.86a1.27,1.27,0,0,0-.21-.81.73.73,0,0,0-.58-.24,2.31,2.31,0,0,0-.95.31,21.15,21.15,0,0,0-2,1.29L361.06,76l7.09-4.28h1.73c-.05.87-.08,2.08-.08,3.63Z"/><path d="M393.14,71.9v.9a5.14,5.14,0,0,0-.77.3,1.1,1.1,0,0,0-.38.33,1.6,1.6,0,0,0-.24.62,7.76,7.76,0,0,0-.08,1.28V90.56h-3.45l-6.11-10.64c-.82-1.44-1.43-2.57-1.81-3.39h-.13q.13,2.94.14,6.21v4.4a6.84,6.84,0,0,0,.1,1.44,1.27,1.27,0,0,0,.37.65,2.67,2.67,0,0,0,1,.43v.9h-5.13v-.9a4.12,4.12,0,0,0,.8-.3,1,1,0,0,0,.43-.45,1.93,1.93,0,0,0,.19-.7c0-.29,0-.64,0-1.07V75.31A7.33,7.33,0,0,0,378,73.9a1.21,1.21,0,0,0-.37-.65,2.47,2.47,0,0,0-1-.45v-.9h5.5L387,80.3c.3.53.69,1.25,1.16,2.15s.91,1.76,1.28,2.56h.22q-.15-3.27-.15-7.14V75.33a8,8,0,0,0-.07-1.29,1.55,1.55,0,0,0-.21-.6,1,1,0,0,0-.38-.34,4.13,4.13,0,0,0-.79-.3v-.9Z"/><path d="M37.63,85.67a8.2,8.2,0,0,0-.23-1.29,1,1,0,0,0-.35-.55,1.45,1.45,0,0,0-.79-.23l.14-.6h3.11l.92,9.71q4.09-5.64,4.1-8.08a1,1,0,0,0-.24-.78,1.45,1.45,0,0,0-.83-.25l.12-.6h3.13l.33.61a28.1,28.1,0,0,1-1.64,3.52q-1,1.82-2.45,4T39.73,95.6a26,26,0,0,1-2.28,2.71,7,7,0,0,1-1.31,1.06,4.35,4.35,0,0,1-2.36.66A5.12,5.12,0,0,1,33,100a4.41,4.41,0,0,1-.7-.18l.52-2.28h.94a1.2,1.2,0,0,0,.2.66.63.63,0,0,0,.53.24,2.62,2.62,0,0,0,.67-.08,2.42,2.42,0,0,0,.58-.26,4.81,4.81,0,0,0,.76-.59,12.4,12.4,0,0,0,1-1.07c.37-.44.78-1,1.24-1.6Z"/><path d="M3.35,112.85H16.41a37,37,0,0,1,5.79.33,8.47,8.47,0,0,1,3.41,1.36,8.33,8.33,0,0,1,2.51,2.75,7.5,7.5,0,0,1,1,3.85,7.79,7.79,0,0,1-4.6,7.14,8.65,8.65,0,0,1,4.6,3,8,8,0,0,1,1.6,5,9.7,9.7,0,0,1-1,4.36,8.76,8.76,0,0,1-2.83,3.4,9.44,9.44,0,0,1-4.42,1.56c-1.11.12-3.76.19-8,.22H3.35Zm6.6,5.48V126h4.32c2.57,0,4.17,0,4.8-.11a4.35,4.35,0,0,0,2.66-1.18,3.48,3.48,0,0,0,1-2.58,3.68,3.68,0,0,0-.83-2.48,3.79,3.79,0,0,0-2.49-1.15c-.65-.08-2.54-.12-5.64-.12Zm0,13.1v8.8h6.11a28.93,28.93,0,0,0,4.52-.2,4.13,4.13,0,0,0,2.4-1.31,4.06,4.06,0,0,0,.93-2.8,4.3,4.3,0,0,0-.72-2.52,4,4,0,0,0-2.06-1.5,22.48,22.48,0,0,0-5.85-.47Z"/><path d="M59.6,135.9V134h12v1.9Zm0,5.67v-1.9h12v1.9Z"/><path d="M95.09,127.78l-10.94,18.1h-2l.16-.77,9.89-15.5,0-.21H86.57a3.16,3.16,0,0,0-1.07.15,1.7,1.7,0,0,0-.73.53,5.72,5.72,0,0,0-.73,1.47H82.79l1.1-4.43H95.23Z"/><path d="M105,136.09v.18a3.56,3.56,0,0,1,2.17,3.47A6.7,6.7,0,0,1,107,141a6.32,6.32,0,0,1-.6,1.81,5.29,5.29,0,0,1-1.36,1.69A6.18,6.18,0,0,1,103,145.6a8.73,8.73,0,0,1-2.69.4,7,7,0,0,1-2.79-.51,3.79,3.79,0,0,1-2.45-3.69,6.51,6.51,0,0,1,.4-2.19,5.22,5.22,0,0,1,1.32-2,7.67,7.67,0,0,1,2.36-1.47V136a4.29,4.29,0,0,1-1.39-1.55,4.16,4.16,0,0,1-.44-1.94,5.63,5.63,0,0,1,.11-1.11,4.8,4.8,0,0,1,.52-1.55,5,5,0,0,1,1.29-1.51,6.3,6.3,0,0,1,2-1,8.12,8.12,0,0,1,2.52-.38,7.19,7.19,0,0,1,3,.53,3.62,3.62,0,0,1,1.68,1.41,3.87,3.87,0,0,1,.52,2,5.36,5.36,0,0,1-.43,2.12,5.16,5.16,0,0,1-1.33,1.87A6.21,6.21,0,0,1,105,136.09Zm-7.45,6a2.78,2.78,0,0,0,.74,2.08,3,3,0,0,0,2.18.71,3.65,3.65,0,0,0,3.25-1.73,6,6,0,0,0,.75-1.8,8.06,8.06,0,0,0,.26-1.95,2.36,2.36,0,0,0-2.71-2.68,3.95,3.95,0,0,0-3.37,1.71,5.92,5.92,0,0,0-.82,1.78A6.8,6.8,0,0,0,97.53,142.05Zm2.13-9.12a4,4,0,0,0,.12,1,1.82,1.82,0,0,0,.42.83,2,2,0,0,0,.81.58,3.53,3.53,0,0,0,1.33.21,3.82,3.82,0,0,0,2.1-.59,4.08,4.08,0,0,0,1.47-1.75,5.6,5.6,0,0,0,.57-2.51,2.62,2.62,0,0,0-.68-2,2.77,2.77,0,0,0-2-.65,3.73,3.73,0,0,0-3.68,2.52A6.38,6.38,0,0,0,99.66,132.93Z"/><path d="M119.67,136.09v.18a3.56,3.56,0,0,1,2.17,3.47,6.7,6.7,0,0,1-.13,1.24,6.32,6.32,0,0,1-.6,1.81,5.43,5.43,0,0,1-1.36,1.69,6.27,6.27,0,0,1-2.06,1.12,8.73,8.73,0,0,1-2.69.4,7,7,0,0,1-2.79-.51,3.79,3.79,0,0,1-2.45-3.69,6.27,6.27,0,0,1,.4-2.19,5.22,5.22,0,0,1,1.32-2,7.61,7.61,0,0,1,2.35-1.47l0-.18a4.42,4.42,0,0,1-1.4-1.55,4.29,4.29,0,0,1-.44-1.94,6.51,6.51,0,0,1,.11-1.11,5.07,5.07,0,0,1,.53-1.55,5,5,0,0,1,1.29-1.51,6.19,6.19,0,0,1,2-1,8.12,8.12,0,0,1,2.52-.38,7.19,7.19,0,0,1,3,.53,3.73,3.73,0,0,1,1.68,1.41,3.87,3.87,0,0,1,.51,2,5.53,5.53,0,0,1-.42,2.12,5.16,5.16,0,0,1-1.33,1.87A6.3,6.3,0,0,1,119.67,136.09Zm-7.45,6a2.74,2.74,0,0,0,.74,2.08,3,3,0,0,0,2.18.71,3.65,3.65,0,0,0,3.25-1.73,6,6,0,0,0,.75-1.8,8.06,8.06,0,0,0,.26-1.95,2.38,2.38,0,0,0-2.72-2.68,3.94,3.94,0,0,0-3.36,1.71,5.68,5.68,0,0,0-.82,1.78A6.8,6.8,0,0,0,112.22,142.05Zm2.13-9.12a4.48,4.48,0,0,0,.11,1,1.94,1.94,0,0,0,.43.83,2,2,0,0,0,.81.58,3.51,3.51,0,0,0,1.32.21,3.83,3.83,0,0,0,2.11-.59,4.22,4.22,0,0,0,1.47-1.75,5.6,5.6,0,0,0,.56-2.51,2.62,2.62,0,0,0-.67-2,2.78,2.78,0,0,0-2-.65,3.84,3.84,0,0,0-2.3.67,3.93,3.93,0,0,0-1.39,1.85A6.57,6.57,0,0,0,114.35,132.93Z"/><path d="M149,127.12l-.15.67a2.44,2.44,0,0,0-.74.24,1.37,1.37,0,0,0-.41.42,3.76,3.76,0,0,0-.37.85c-.12.39-.28,1-.47,1.89l-3.19,14.59h-1.84l-4-11.73q-.72-2.1-1.26-4.2h-.17c-.06.47-.21,1.35-.45,2.66s-.51,2.59-.78,3.84L134,141.8c-.08.39-.15.75-.21,1.11a7.49,7.49,0,0,0-.08,1,1.07,1.07,0,0,0,.31.86,1.83,1.83,0,0,0,1,.31l-.15.67h-4.75l.15-.67a1.73,1.73,0,0,0,.78-.27,1.46,1.46,0,0,0,.43-.51,4.4,4.4,0,0,0,.33-.8c.1-.31.25-.92.44-1.82l2.31-10.53c.09-.39.17-.77.22-1.12a7.85,7.85,0,0,0,.08-1.08,1.1,1.1,0,0,0-.32-.9,1.87,1.87,0,0,0-1-.29l.15-.67h4.33l3.58,10.65c.52,1.53.92,2.82,1.2,3.88H143c.07-.55.24-1.48.49-2.77s.5-2.43.72-3.39l.95-4.31c.06-.3.13-.66.19-1.07a6.83,6.83,0,0,0,.11-1.13,1.07,1.07,0,0,0-.33-.9,1.84,1.84,0,0,0-1-.29l.15-.67Z"/><path d="M166.07,133.23l-1,1.48-2.87-2.46-.53,4.28h-1.89l1.31-4.28-3.59,2.51-.8-1.58,4.16-1.81-3.27-1.83,1-1.51,2.88,2.47.51-4.28h1.89l-1.29,4.28,3.54-2.51.82,1.59-4.14,1.79Z"/><path d="M188.13,127.6l-.82,3.7H186a4.13,4.13,0,0,0-.73-2.42,2.42,2.42,0,0,0-2-.75,3.8,3.8,0,0,0-2.15.68,7.53,7.53,0,0,0-1.9,1.95,13.62,13.62,0,0,0-1.56,3,21.54,21.54,0,0,0-1,3.5,17.14,17.14,0,0,0-.35,3.22,5.78,5.78,0,0,0,.73,3.27,2.56,2.56,0,0,0,2.27,1.05,4.84,4.84,0,0,0,1.78-.31,4,4,0,0,0,1.42-1,9.12,9.12,0,0,0,1.32-2h1.3l-.83,3.88a19.83,19.83,0,0,1-2.67.55A20.84,20.84,0,0,1,179,146a5.49,5.49,0,0,1-2.86-.7,4.39,4.39,0,0,1-1.78-2,7.79,7.79,0,0,1-.6-3.21,13.31,13.31,0,0,1,.14-1.91,23.66,23.66,0,0,1,.51-2.5,17,17,0,0,1,1.13-3.07A13.8,13.8,0,0,1,177.2,130a10,10,0,0,1,1.91-1.74,7.92,7.92,0,0,1,2-1,7.54,7.54,0,0,1,2.34-.36,16.31,16.31,0,0,1,2.29.15A14.91,14.91,0,0,1,188.13,127.6Z"/><path d="M192.61,146a4.35,4.35,0,0,1-3.27-1.19,4.69,4.69,0,0,1-1.16-3.41,10.55,10.55,0,0,1,.21-1.93,11.22,11.22,0,0,1,.73-2.54,8.19,8.19,0,0,1,1.57-2.39,6.52,6.52,0,0,1,2.2-1.53,6.72,6.72,0,0,1,2.66-.53,4.9,4.9,0,0,1,2.56.6,3.49,3.49,0,0,1,1.45,1.64,5.91,5.91,0,0,1,.45,2.38,11.26,11.26,0,0,1-.34,2.6,10.64,10.64,0,0,1-1.43,3.43,6.24,6.24,0,0,1-2.35,2.14A7,7,0,0,1,192.61,146Zm-2.05-4a3.32,3.32,0,0,0,.62,2.23,2.34,2.34,0,0,0,1.86.71,3,3,0,0,0,2.36-1.2,8.55,8.55,0,0,0,1.63-3.37,14.47,14.47,0,0,0,.6-3.81,3.63,3.63,0,0,0-.57-2.22,2.08,2.08,0,0,0-1.78-.74,3.17,3.17,0,0,0-2.46,1.19,8.37,8.37,0,0,0-1.66,3.4A15,15,0,0,0,190.56,142Z"/><path d="M210.11,135.9a3.06,3.06,0,0,0-.7-1.79,2.33,2.33,0,0,0-1.71-.55,2.69,2.69,0,0,0-1.15.24,2,2,0,0,0-.82.69,2.18,2.18,0,0,0-.09,2,3,3,0,0,0,.69.87,11,11,0,0,0,1.35,1,6.46,6.46,0,0,1,1.84,1.72,3.48,3.48,0,0,1,.53,1.93,3.78,3.78,0,0,1-.61,2.18,3.62,3.62,0,0,1-1.67,1.33,6.21,6.21,0,0,1-2.39.44,13.08,13.08,0,0,1-2.23-.18c-.69-.12-1.37-.27-2-.45l.64-3h1.06a2.89,2.89,0,0,0,.71,1.88,2.44,2.44,0,0,0,1.8.62,2.7,2.7,0,0,0,1.89-.61,2.06,2.06,0,0,0,.68-1.61,2.52,2.52,0,0,0-.21-1,3,3,0,0,0-.63-.89,10.6,10.6,0,0,0-1.24-1,10.53,10.53,0,0,1-1.38-1.1,4,4,0,0,1-.83-1.15,3.23,3.23,0,0,1-.29-1.37,3.48,3.48,0,0,1,.56-2,3.52,3.52,0,0,1,1.58-1.27,6.08,6.08,0,0,1,2.4-.44,12.2,12.2,0,0,1,3.95.59l-.63,2.82Z"/><path d="M226.15,141.83a8.86,8.86,0,0,0-.24,1.6,1,1,0,0,0,.28.81,1.87,1.87,0,0,0,.95.39,15.92,15.92,0,0,0,2,.15l-.2,1h-9.59l.21-1a14.44,14.44,0,0,0,1.75-.15,3.93,3.93,0,0,0,1-.26,2.13,2.13,0,0,0,.61-.39,2.07,2.07,0,0,0,.4-.62,5.63,5.63,0,0,0,.34-1.15l2.17-9.91c.09-.38.15-.69.19-.92a3.25,3.25,0,0,0,.06-.56.66.66,0,0,0-.69-.75,2.88,2.88,0,0,0-1.08.35c-.48.23-1.19.63-2.14,1.2l-.53-1.1,6.88-3.62h.94l-.4,1.6c-.14.58-.29,1.26-.46,2Z"/><path d="M240.46,143.59a5.05,5.05,0,0,0,.78-.05,1.38,1.38,0,0,0,.45-.16,1.45,1.45,0,0,0,.37-.31,2.5,2.5,0,0,0,.35-.47c.1-.19.24-.46.4-.81h1.26l-1,4H232.42l.14-.66a20.36,20.36,0,0,1,2.06-3,40.89,40.89,0,0,1,3.44-3.63c1.21-1.16,2.05-2,2.51-2.46a20.12,20.12,0,0,0,1.89-2.18,6.89,6.89,0,0,0,.92-1.71,4.9,4.9,0,0,0,.27-1.61,2.34,2.34,0,0,0-.64-1.77,2.55,2.55,0,0,0-1.84-.62,3.24,3.24,0,0,0-2,.67,4.64,4.64,0,0,0-1.43,1.9H236l.58-2.63a19.3,19.3,0,0,1,2.85-.91,12.21,12.21,0,0,1,2.61-.29,5.58,5.58,0,0,1,2.3.44,3.34,3.34,0,0,1,1.47,1.23,3.21,3.21,0,0,1,.49,1.73,5.78,5.78,0,0,1-.21,1.62,6.19,6.19,0,0,1-.68,1.46,15.38,15.38,0,0,1-1.75,2.09q-1.06,1.08-3.49,3.27a36.55,36.55,0,0,0-4.71,4.85Z"/><path d="M255.15,143.59a5.15,5.15,0,0,0,.78-.05,1.47,1.47,0,0,0,.45-.16,1.64,1.64,0,0,0,.37-.31,2.5,2.5,0,0,0,.35-.47c.1-.19.23-.46.4-.81h1.26l-1,4H247.11l.14-.66a21,21,0,0,1,2.05-3,42.74,42.74,0,0,1,3.45-3.63c1.21-1.16,2.05-2,2.51-2.46a18.82,18.82,0,0,0,1.88-2.18,6.64,6.64,0,0,0,.93-1.71,4.9,4.9,0,0,0,.27-1.61,2.35,2.35,0,0,0-.65-1.77,2.52,2.52,0,0,0-1.84-.62,3.22,3.22,0,0,0-2,.67,4.64,4.64,0,0,0-1.43,1.9h-1.75l.58-2.63a18.93,18.93,0,0,1,2.85-.91,12.21,12.21,0,0,1,2.61-.29,5.58,5.58,0,0,1,2.3.44,3.34,3.34,0,0,1,1.47,1.23,3.21,3.21,0,0,1,.49,1.73,5.43,5.43,0,0,1-.22,1.62,5.77,5.77,0,0,1-.67,1.46,14.85,14.85,0,0,1-1.76,2.09q-1.05,1.08-3.48,3.27a35.9,35.9,0,0,0-4.71,4.85Z"/><path d="M268.89,135.08a4,4,0,0,1-2.09-.54,3.58,3.58,0,0,1-1.39-1.47,4.56,4.56,0,0,1-.49-2.11,4.36,4.36,0,0,1,.52-2.1,3.7,3.7,0,0,1,1.46-1.45,4.37,4.37,0,0,1,2.12-.51,4.13,4.13,0,0,1,2.09.52,3.67,3.67,0,0,1,1.42,1.45A4.29,4.29,0,0,1,273,131a4.1,4.1,0,0,1-.54,2.1,3.74,3.74,0,0,1-1.48,1.47A4.27,4.27,0,0,1,268.89,135.08Zm.08-6.83a2.67,2.67,0,0,0-1.36.35,2.33,2.33,0,0,0-.92,1,2.92,2.92,0,0,0-.33,1.4,3.12,3.12,0,0,0,.32,1.42,2.33,2.33,0,0,0,.92,1,2.74,2.74,0,0,0,1.37.35,2.77,2.77,0,0,0,1.38-.35,2.41,2.41,0,0,0,.93-1,3.12,3.12,0,0,0,.32-1.42,3,3,0,0,0-.32-1.4,2.41,2.41,0,0,0-.93-1A2.77,2.77,0,0,0,269,128.25Z"/><path d="M280.19,135.9V134h12v1.9Zm0,5.67v-1.9h12v1.9Z"/><path d="M307.93,139.75h-6.44v-2.87h6.44Z"/><path d="M315.92,144.88a3.35,3.35,0,0,0,.78-.3,1,1,0,0,0,.45-.42,2,2,0,0,0,.19-.69c0-.28,0-.64,0-1.07v-2H310.1v-1.48L318.34,127h3.05v11.62h.42a3.91,3.91,0,0,0,.94-.08,1,1,0,0,0,.47-.34,2.51,2.51,0,0,0,.37-.87H325l-.16,3h-3.47v2a8.53,8.53,0,0,0,.07,1.16,1.8,1.8,0,0,0,.23.68,1.07,1.07,0,0,0,.45.39,5.86,5.86,0,0,0,.72.25v.9h-6.94Zm-3.19-6.24h4.65v-3.13c0-1.31,0-2.69.13-4.14h-.13l-4.65,7Z"/><path d="M336.75,142a5.91,5.91,0,0,0,.09,1.19,1.35,1.35,0,0,0,.31.66,1.5,1.5,0,0,0,.64.4,5.82,5.82,0,0,0,1.06.21c.43,0,1,.09,1.68.11v1.24H328.82v-1.24a18.66,18.66,0,0,0,2.15-.19,2.32,2.32,0,0,0,1-.35,1.26,1.26,0,0,0,.5-.65,4.48,4.48,0,0,0,.16-1.38v-9.89a1.22,1.22,0,0,0-.21-.8.72.72,0,0,0-.58-.25,2.3,2.3,0,0,0-1,.31,21.15,21.15,0,0,0-2,1.29l-.83-1.45,7.09-4.28h1.74c-.06.88-.08,2.09-.08,3.64Z"/><path d="M357.4,128l-7.54,17.8h-2.78v-.94L353.89,131v-.2h-6a4.11,4.11,0,0,0-1,.09,1.42,1.42,0,0,0-.6.31,1.52,1.52,0,0,0-.37.56,6.24,6.24,0,0,0-.31,1.06H344l.35-5.67h13Z"/><path d="M363.72,141.65c.08.38.14.79.19,1.25a11.13,11.13,0,0,1,.07,1.23,5.11,5.11,0,0,1-.37,2,5.75,5.75,0,0,1-1.17,1.73,15.38,15.38,0,0,1-2.28,1.89l-1-1.19a4.51,4.51,0,0,0,.91-1.09,4.19,4.19,0,0,0,.48-1.28,9.44,9.44,0,0,0,.14-1.75,27,27,0,0,0-.16-2.8Z"/><path d="M367.37,144.93v-3.41h2.46a4.45,4.45,0,0,0,1.09,2.22,2.65,2.65,0,0,0,1.92.73,2.59,2.59,0,0,0,2.19-.92,4.71,4.71,0,0,0,.7-2.85,4.13,4.13,0,0,0-.91-2.9,3.35,3.35,0,0,0-2.63-1,9.29,9.29,0,0,0-1.43.12,9.94,9.94,0,0,0-1.36.3l-1.23-.76v-9.34h8a2.65,2.65,0,0,0,.73-.07.87.87,0,0,0,.38-.23,2,2,0,0,0,.32-.6h1.5l-.27,4.36h-8.34v4.92a10.45,10.45,0,0,1,1.66-.36,15.3,15.3,0,0,1,2.09-.12,6.57,6.57,0,0,1,3,.63,4.59,4.59,0,0,1,2,1.83,5.49,5.49,0,0,1,.7,2.8,5.65,5.65,0,0,1-.84,3.17,5.08,5.08,0,0,1-2.43,1.91,10.11,10.11,0,0,1-3.8.64,15.43,15.43,0,0,1-2.91-.29A10.89,10.89,0,0,1,367.37,144.93Z"/><path d="M393.67,135.92l0,.18a5,5,0,0,1,2.39,1.78,5.17,5.17,0,0,1-.05,5.6,5.48,5.48,0,0,1-2.47,1.87,9.83,9.83,0,0,1-3.76.66,9.55,9.55,0,0,1-3.58-.61,5.13,5.13,0,0,1-2.37-1.77,5,5,0,0,1-.41-4.8,4.35,4.35,0,0,1,1.12-1.47,7.33,7.33,0,0,1,1.7-1l0-.18a4.48,4.48,0,0,1-3-4.36,4,4,0,0,1,.86-2.51,5.61,5.61,0,0,1,2.45-1.74,9.53,9.53,0,0,1,3.54-.63,8.47,8.47,0,0,1,5,1.22,4,4,0,0,1,1.69,3.44,4.45,4.45,0,0,1-.77,2.59A5.25,5.25,0,0,1,393.67,135.92Zm-6.53,4.62a5,5,0,0,0,.71,2.94,2.45,2.45,0,0,0,2.13,1,2.72,2.72,0,0,0,1.5-.41,2.66,2.66,0,0,0,.95-1.26,5.55,5.55,0,0,0,.33-2,6,6,0,0,0-.34-2.09,3,3,0,0,0-1-1.36,2.39,2.39,0,0,0-1.49-.48,2.6,2.6,0,0,0-1.64.49,2.64,2.64,0,0,0-.9,1.3A6.09,6.09,0,0,0,387.14,140.54Zm.16-8.87a4.52,4.52,0,0,0,.7,2.74,2.37,2.37,0,0,0,2,1,2.32,2.32,0,0,0,2-.89,4.25,4.25,0,0,0,.66-2.55,4.16,4.16,0,0,0-.69-2.59,2.33,2.33,0,0,0-2-.9,2.47,2.47,0,0,0-2,.82A3.69,3.69,0,0,0,387.3,131.67Z"/><path d="M415.93,127.12v.9a5.64,5.64,0,0,0-.77.3,1.19,1.19,0,0,0-.38.33,1.67,1.67,0,0,0-.24.62,7.85,7.85,0,0,0-.08,1.28v15.23H411l-6.11-10.64c-.83-1.44-1.43-2.57-1.82-3.39H403q.13,2.94.13,6.21v4.4a7.46,7.46,0,0,0,.1,1.44,1.27,1.27,0,0,0,.37.65,2.57,2.57,0,0,0,1,.43v.9h-5.13v-.9a3.45,3.45,0,0,0,.79-.3,1,1,0,0,0,.43-.45,1.88,1.88,0,0,0,.19-.7c0-.28,0-.64,0-1.07V130.54a7.38,7.38,0,0,0-.09-1.42,1.25,1.25,0,0,0-.37-.65,2.41,2.41,0,0,0-1-.45v-.9h5.49l4.81,8.41c.3.53.69,1.24,1.17,2.14s.9,1.76,1.27,2.56h.22q-.15-3.27-.15-7.14v-2.54a7.78,7.78,0,0,0-.07-1.28,1.4,1.4,0,0,0-.21-.61,1.15,1.15,0,0,0-.38-.34,4.13,4.13,0,0,0-.79-.3v-.9Z"/><path d="M46.86,138.82c-1.57,1.69-3.21,3.35-4.92,5l1.12,2.67c.3.72.54,1.25.72,1.58a3.51,3.51,0,0,0,.48.73,1.27,1.27,0,0,0,.44.33,2.45,2.45,0,0,0,.69.17l-.13.6h-3L40.55,145l-.77.71c-.31.31-.62.63-.92,1a6,6,0,0,0-.63.84,2.24,2.24,0,0,0-.24.55,1.83,1.83,0,0,0-.05.47.68.68,0,0,0,.17.5,1.12,1.12,0,0,0,.6.26l-.13.6H35.12l-.23-.6c1.77-1.91,3.51-3.68,5.23-5.29L39,141.29q-.36-.82-.57-1.26a4,4,0,0,0-.42-.67,1.47,1.47,0,0,0-.46-.37,2.13,2.13,0,0,0-.75-.17l.14-.59h3l1.62,4.6c.39-.37.77-.75,1.12-1.14a7.24,7.24,0,0,0,.75-.92,2.92,2.92,0,0,0,.31-.61,2.12,2.12,0,0,0,.08-.57c0-.44-.26-.7-.77-.77l.13-.59h3.45Z"/><path d="M3.35,166.09H16.41a38.6,38.6,0,0,1,5.79.32,8.26,8.26,0,0,1,5.92,4.11,7.5,7.5,0,0,1,1,3.85,7.82,7.82,0,0,1-4.6,7.15,8.63,8.63,0,0,1,4.6,3,8,8,0,0,1,1.6,5,9.78,9.78,0,0,1-1,4.37,8.8,8.8,0,0,1-2.83,3.39,9.33,9.33,0,0,1-4.42,1.56c-1.11.12-3.76.19-8,.22H3.35Zm6.6,5.48v7.61h4.32c2.57,0,4.17,0,4.8-.11a4.35,4.35,0,0,0,2.66-1.18,3.48,3.48,0,0,0,1-2.57,3.64,3.64,0,0,0-.83-2.48,3.75,3.75,0,0,0-2.49-1.16c-.65-.08-2.54-.11-5.64-.11Zm0,13.09v8.81h6.11a28.44,28.44,0,0,0,4.52-.21,3.88,3.88,0,0,0,3.33-4.11,4.29,4.29,0,0,0-.72-2.51,4,4,0,0,0-2.06-1.51,22.48,22.48,0,0,0-5.85-.47Z"/><path d="M59.6,189.13v-1.9h12v1.9Zm0,5.67v-1.9h12v1.9Z"/><path d="M95.09,181l-10.94,18.1h-2l.16-.77,9.89-15.5,0-.21H86.57a3.43,3.43,0,0,0-1.07.15,1.78,1.78,0,0,0-.73.53,5.72,5.72,0,0,0-.73,1.47H82.79l1.1-4.43H95.23Z"/><path d="M105,189.32v.18a3.56,3.56,0,0,1,2.17,3.47,6.62,6.62,0,0,1-.13,1.24,6.32,6.32,0,0,1-.6,1.81,5.18,5.18,0,0,1-1.36,1.69,6.18,6.18,0,0,1-2.06,1.12,8.44,8.44,0,0,1-2.69.4,7.2,7.2,0,0,1-2.79-.5,4,4,0,0,1-1.82-1.46,4,4,0,0,1-.63-2.24,6.55,6.55,0,0,1,.4-2.19,5.3,5.3,0,0,1,1.32-2,7.67,7.67,0,0,1,2.36-1.47v-.18a4.21,4.21,0,0,1-1.39-1.55,4.13,4.13,0,0,1-.44-1.94,5.46,5.46,0,0,1,.11-1.1,4.78,4.78,0,0,1,.52-1.56,5,5,0,0,1,1.29-1.51,6.29,6.29,0,0,1,2-1,7.83,7.83,0,0,1,2.52-.39,7,7,0,0,1,3,.54,3.55,3.55,0,0,1,1.68,1.4,3.91,3.91,0,0,1,.52,2,5.39,5.39,0,0,1-.43,2.12,5.21,5.21,0,0,1-1.33,1.86A6.21,6.21,0,0,1,105,189.32Zm-7.45,6a2.76,2.76,0,0,0,.74,2.08,3,3,0,0,0,2.18.71,3.67,3.67,0,0,0,3.25-1.72,6,6,0,0,0,.75-1.81,8.06,8.06,0,0,0,.26-1.95,2.37,2.37,0,0,0-2.71-2.68,3.95,3.95,0,0,0-3.37,1.71,5.92,5.92,0,0,0-.82,1.78A6.8,6.8,0,0,0,97.53,195.28Zm2.13-9.12a4,4,0,0,0,.12,1,1.86,1.86,0,0,0,.42.84,2,2,0,0,0,.81.57,3.53,3.53,0,0,0,1.33.21,3.81,3.81,0,0,0,2.1-.58,4.2,4.2,0,0,0,1.47-1.75,5.68,5.68,0,0,0,.57-2.52,2.61,2.61,0,0,0-.68-2,2.72,2.72,0,0,0-2-.66,3.73,3.73,0,0,0-3.68,2.52A6.42,6.42,0,0,0,99.66,186.16Z"/><path d="M119.67,189.32v.18a3.56,3.56,0,0,1,2.17,3.47,6.62,6.62,0,0,1-.13,1.24,6.32,6.32,0,0,1-.6,1.81,5.31,5.31,0,0,1-1.36,1.69,6.27,6.27,0,0,1-2.06,1.12,8.44,8.44,0,0,1-2.69.4,7.2,7.2,0,0,1-2.79-.5,4,4,0,0,1-1.82-1.46,4,4,0,0,1-.63-2.24,6.31,6.31,0,0,1,.4-2.19,5.3,5.3,0,0,1,1.32-2,7.61,7.61,0,0,1,2.35-1.47l0-.18a4.34,4.34,0,0,1-1.4-1.55,4.26,4.26,0,0,1-.44-1.94,6.3,6.3,0,0,1,.11-1.1,5,5,0,0,1,.53-1.56,5,5,0,0,1,1.29-1.51,6.18,6.18,0,0,1,2-1,7.83,7.83,0,0,1,2.52-.39,7,7,0,0,1,3,.54,3.65,3.65,0,0,1,1.68,1.4,3.9,3.9,0,0,1,.51,2,5.57,5.57,0,0,1-.42,2.12,5.21,5.21,0,0,1-1.33,1.86A6.3,6.3,0,0,1,119.67,189.32Zm-7.45,6a2.73,2.73,0,0,0,.74,2.08,3,3,0,0,0,2.18.71,3.87,3.87,0,0,0,1.94-.47,3.83,3.83,0,0,0,1.31-1.25,6,6,0,0,0,.75-1.81,8.06,8.06,0,0,0,.26-1.95,2.39,2.39,0,0,0-2.72-2.68,3.94,3.94,0,0,0-3.36,1.71,5.68,5.68,0,0,0-.82,1.78A6.8,6.8,0,0,0,112.22,195.28Zm2.13-9.12a4.48,4.48,0,0,0,.11,1,2,2,0,0,0,.43.84,2,2,0,0,0,.81.57,3.51,3.51,0,0,0,1.32.21,3.82,3.82,0,0,0,2.11-.58,4.35,4.35,0,0,0,1.47-1.75,5.67,5.67,0,0,0,.56-2.52,2.61,2.61,0,0,0-.67-2,2.74,2.74,0,0,0-2-.66,3.91,3.91,0,0,0-2.3.67,4,4,0,0,0-1.39,1.85A6.61,6.61,0,0,0,114.35,186.16Z"/><path d="M149,180.35l-.15.67a2.69,2.69,0,0,0-.74.25,1.33,1.33,0,0,0-.41.41,3.76,3.76,0,0,0-.37.85c-.12.39-.28,1-.47,1.9L143.68,199h-1.84l-4-11.73c-.48-1.4-.9-2.8-1.26-4.19h-.17c-.06.46-.21,1.35-.45,2.66s-.51,2.58-.78,3.83L134,195q-.12.58-.21,1.11a7.49,7.49,0,0,0-.08,1,1.09,1.09,0,0,0,.31.87,1.84,1.84,0,0,0,1,.3l-.15.67h-4.75l.15-.67a1.87,1.87,0,0,0,.78-.26,1.6,1.6,0,0,0,.43-.52,4.27,4.27,0,0,0,.33-.79c.1-.32.25-.93.44-1.83l2.31-10.53c.09-.39.17-.76.22-1.12a7.62,7.62,0,0,0,.08-1.08,1.07,1.07,0,0,0-.32-.89,1.86,1.86,0,0,0-1-.3l.15-.67h4.33L141.63,191c.52,1.53.92,2.83,1.2,3.88H143c.07-.55.24-1.48.49-2.77s.5-2.42.72-3.39l.95-4.31c.06-.3.13-.65.19-1.06a6.84,6.84,0,0,0,.11-1.14,1,1,0,0,0-.33-.89,1.83,1.83,0,0,0-1-.3l.15-.67Z"/><path d="M166.07,186.46l-1,1.48-2.87-2.46-.53,4.28h-1.89l1.31-4.28L157.54,188l-.8-1.58,4.16-1.81-3.27-1.83,1-1.5,2.88,2.46.51-4.28h1.89l-1.29,4.28,3.54-2.5.82,1.58-4.14,1.79Z"/><path d="M174.21,194.76a3.5,3.5,0,0,0,.77,2.47,3.09,3.09,0,0,0,2.37.81,4.64,4.64,0,0,0,2.15-.46,3.13,3.13,0,0,0,1.35-1.32,4.2,4.2,0,0,0,.46-2,3.38,3.38,0,0,0-.29-1.47,4.22,4.22,0,0,0-.88-1.22,11.89,11.89,0,0,0-1.7-1.33,11.88,11.88,0,0,1-1.67-1.35,5.1,5.1,0,0,1-1.06-1.48,4.09,4.09,0,0,1-.4-1.83,5.21,5.21,0,0,1,.78-2.85,5.07,5.07,0,0,1,2.18-1.9,7.62,7.62,0,0,1,3.26-.67,15.23,15.23,0,0,1,2.32.17,17.77,17.77,0,0,1,2.35.58l-.76,3.52h-1.3a5.22,5.22,0,0,0-.36-1.83,1.85,1.85,0,0,0-.85-.95,3.28,3.28,0,0,0-1.48-.28,4.08,4.08,0,0,0-2,.46,3.21,3.21,0,0,0-1.31,1.27,3.64,3.64,0,0,0-.44,1.78,3.2,3.2,0,0,0,.24,1.27,3.49,3.49,0,0,0,.78,1.1,11.09,11.09,0,0,0,1.57,1.25,14.38,14.38,0,0,1,2,1.66,4.86,4.86,0,0,1,1,1.56,5,5,0,0,1,.33,1.9,5.49,5.49,0,0,1-.79,2.94,5.31,5.31,0,0,1-2.24,2,7.4,7.4,0,0,1-3.29.7,19.63,19.63,0,0,1-2.68-.19,19.26,19.26,0,0,1-2.6-.52l.81-3.76Z"/><path d="M196.49,196.29a11.52,11.52,0,0,1-1.93,1.75,6.34,6.34,0,0,1-1.84.92,7.3,7.3,0,0,1-2,.27,4.4,4.4,0,0,1-1.85-.35,3.6,3.6,0,0,1-1.28-.95,3.92,3.92,0,0,1-.75-1.45,6.63,6.63,0,0,1-.25-1.83,10.48,10.48,0,0,1,.53-3.13,9.13,9.13,0,0,1,1.58-3,7.35,7.35,0,0,1,2.54-2.07,6.94,6.94,0,0,1,3.15-.73,3.88,3.88,0,0,1,2.46.67,2.55,2.55,0,0,1,.82,2.09,3.74,3.74,0,0,1-2.16,3.49,14.08,14.08,0,0,1-6.43,1.16,9.06,9.06,0,0,0-.16,1.78,3.16,3.16,0,0,0,.55,2.08,2.26,2.26,0,0,0,1.82.65,4.78,4.78,0,0,0,2.27-.54,9.18,9.18,0,0,0,2.13-1.69ZM189.27,192a19.36,19.36,0,0,0,2.19-.14,9.37,9.37,0,0,0,1.62-.36,4.25,4.25,0,0,0,1.13-.54,2.75,2.75,0,0,0,.71-.69,2.37,2.37,0,0,0,.37-.79,3.57,3.57,0,0,0,.1-.87,2,2,0,0,0-.39-1.31,1.39,1.39,0,0,0-1.14-.47,3.07,3.07,0,0,0-1.87.69,6.3,6.3,0,0,0-1.61,1.86A10.49,10.49,0,0,0,189.27,192Z"/><path d="M211,199h-4.28l1.73-6.94c.1-.45.21-.94.32-1.48a8,8,0,0,0,.15-1.45,2.29,2.29,0,0,0-.33-1.39,1.25,1.25,0,0,0-1-.43,2.22,2.22,0,0,0-1.23.45,6.48,6.48,0,0,0-1.38,1.33,11.05,11.05,0,0,0-1.21,1.79,8,8,0,0,0-.77,2.2L201.68,199h-2.35l2.06-9.33q.08-.31.18-.93a5.61,5.61,0,0,0,.12-1,1.21,1.21,0,0,0-.12-.59.64.64,0,0,0-.39-.32,3.73,3.73,0,0,0-.94-.14l.16-.73,3.08-.12h.78l-.91,3.55.16.06a12.34,12.34,0,0,1,2.56-2.8,4.22,4.22,0,0,1,2.48-.91,2.58,2.58,0,0,1,2,.74,3.07,3.07,0,0,1,.68,2.16,7.14,7.14,0,0,1-.09,1.08c-.06.38-.12.73-.2,1l-1.14,4.87a7.4,7.4,0,0,0-.23,1.55,1.31,1.31,0,0,0,.14.65.87.87,0,0,0,.42.35,3.35,3.35,0,0,0,.94.19Z"/><path d="M227.42,195.06a8.25,8.25,0,0,0-.25,1.6,1.08,1.08,0,0,0,.29.82,1.93,1.93,0,0,0,.94.38,15.51,15.51,0,0,0,2,.16l-.2,1h-9.59l.21-1a16.32,16.32,0,0,0,1.75-.16,4.18,4.18,0,0,0,1-.25,2.15,2.15,0,0,0,.61-.4,2.07,2.07,0,0,0,.4-.62,5,5,0,0,0,.34-1.14l2.18-9.92c.08-.38.14-.68.18-.91a3.45,3.45,0,0,0,.06-.56.66.66,0,0,0-.69-.76,2.85,2.85,0,0,0-1.07.35c-.48.24-1.2.63-2.15,1.2l-.53-1.09,6.88-3.63h.94l-.39,1.6c-.15.59-.3,1.27-.46,2Z"/><path d="M241.72,196.83a3.83,3.83,0,0,0,.78-.06,1.3,1.3,0,0,0,.46-.16,1.36,1.36,0,0,0,.36-.3,2.47,2.47,0,0,0,.35-.48c.1-.18.24-.45.4-.81h1.26l-1,4H233.69l.13-.65a20.61,20.61,0,0,1,2.06-3,40.82,40.82,0,0,1,3.44-3.64c1.21-1.16,2.05-2,2.51-2.46a20.15,20.15,0,0,0,1.89-2.17,6.89,6.89,0,0,0,.92-1.71,5,5,0,0,0,.27-1.62,2.36,2.36,0,0,0-.64-1.77,2.56,2.56,0,0,0-1.84-.62,3.22,3.22,0,0,0-2,.67A4.72,4.72,0,0,0,239,184h-1.75l.59-2.62a18.09,18.09,0,0,1,2.84-.91,11.62,11.62,0,0,1,2.61-.3,5.39,5.39,0,0,1,2.3.45,3.21,3.21,0,0,1,1.47,1.23,3.18,3.18,0,0,1,.5,1.73,5.35,5.35,0,0,1-.9,3.07,14.14,14.14,0,0,1-1.75,2.09q-1.07,1.1-3.49,3.27a37.15,37.15,0,0,0-4.71,4.86Z"/><path d="M256.41,196.83a3.83,3.83,0,0,0,.78-.06,1.3,1.3,0,0,0,.46-.16,1.54,1.54,0,0,0,.36-.3,3,3,0,0,0,.35-.48c.1-.18.24-.45.4-.81H260l-1,4H248.37l.14-.65a19.84,19.84,0,0,1,2.06-3,40.82,40.82,0,0,1,3.44-3.64c1.21-1.16,2.05-2,2.51-2.46a20.15,20.15,0,0,0,1.89-2.17,6.89,6.89,0,0,0,.92-1.71,5,5,0,0,0,.27-1.62A2.36,2.36,0,0,0,259,182a2.58,2.58,0,0,0-1.84-.62,3.24,3.24,0,0,0-2,.67,4.7,4.7,0,0,0-1.43,1.9h-1.75l.59-2.62a18.09,18.09,0,0,1,2.84-.91,11.62,11.62,0,0,1,2.61-.3,5.39,5.39,0,0,1,2.3.45,3.21,3.21,0,0,1,1.47,1.23,3.17,3.17,0,0,1,.49,1.73,5.25,5.25,0,0,1-.89,3.07,14.8,14.8,0,0,1-1.75,2.09q-1.06,1.1-3.49,3.27a37.15,37.15,0,0,0-4.71,4.86Z"/><path d="M270.15,188.31a4.11,4.11,0,0,1-2.09-.53,3.71,3.71,0,0,1-1.39-1.47,4.6,4.6,0,0,1-.49-2.12,4.19,4.19,0,0,1,.53-2.09,3.58,3.58,0,0,1,1.46-1.45,4.5,4.5,0,0,1,4.2,0,3.67,3.67,0,0,1,1.42,1.45,4.31,4.31,0,0,1,.51,2.11,4.25,4.25,0,0,1-.53,2.1,4,4,0,0,1-1.49,1.47A4.31,4.31,0,0,1,270.15,188.31Zm.08-6.82a2.58,2.58,0,0,0-1.36.35,2.36,2.36,0,0,0-.92,1,2.94,2.94,0,0,0-.33,1.41,3.05,3.05,0,0,0,.32,1.41,2.23,2.23,0,0,0,.93,1,2.58,2.58,0,0,0,1.36.35,2.65,2.65,0,0,0,1.38-.35,2.35,2.35,0,0,0,.93-1,3.27,3.27,0,0,0,0-2.82,2.39,2.39,0,0,0-.93-1A2.65,2.65,0,0,0,270.23,181.49Z"/><path d="M281.46,189.13v-1.9h12v1.9Zm0,5.67v-1.9h12v1.9Z"/><path d="M314.21,181.08v.84a6.91,6.91,0,0,0-4.82,1.86,9.14,9.14,0,0,0-2.45,5.1l.13.06a8.23,8.23,0,0,1,2.13-1.08,7.67,7.67,0,0,1,2.35-.34,5,5,0,0,1,2.68.69,4.32,4.32,0,0,1,1.69,1.94,7.06,7.06,0,0,1,.57,2.93,6.57,6.57,0,0,1-.76,3.21,5.14,5.14,0,0,1-2.34,2.16,8.67,8.67,0,0,1-3.87.78,7.23,7.23,0,0,1-3.62-.85,5.53,5.53,0,0,1-2.32-2.5,9.2,9.2,0,0,1-.8-4,12.4,12.4,0,0,1,1.34-5.78,10.76,10.76,0,0,1,3.79-4.16,11.84,11.84,0,0,1,5.57-1.79ZM310,189.4a3.94,3.94,0,0,0-1.25.2,3.71,3.71,0,0,0-1,.53,3.11,3.11,0,0,0-.6.55,1.44,1.44,0,0,0-.23.61,10.27,10.27,0,0,0-.07,1.39,7.87,7.87,0,0,0,.7,3.76,2.25,2.25,0,0,0,2.11,1.26,2.72,2.72,0,0,0,1.37-.31,2.58,2.58,0,0,0,.89-.88,4.34,4.34,0,0,0,.49-1.37,9.58,9.58,0,0,0,.15-1.77,5.51,5.51,0,0,0-.65-3A2.1,2.1,0,0,0,310,189.4Z"/><path d="M330.68,181.08v.84a6.91,6.91,0,0,0-4.82,1.86,9.22,9.22,0,0,0-2.46,5.1l.14.06a8.23,8.23,0,0,1,2.13-1.08,7.67,7.67,0,0,1,2.35-.34,5,5,0,0,1,2.68.69,4.32,4.32,0,0,1,1.69,1.94,7.06,7.06,0,0,1,.57,2.93,6.57,6.57,0,0,1-.76,3.21,5.24,5.24,0,0,1-2.34,2.16,8.74,8.74,0,0,1-3.88.78,7.26,7.26,0,0,1-3.62-.85,5.51,5.51,0,0,1-2.31-2.5,9.2,9.2,0,0,1-.8-4,12.28,12.28,0,0,1,1.34-5.78,10.69,10.69,0,0,1,3.79-4.16,11.8,11.8,0,0,1,5.57-1.79Zm-4.26,8.32a3.9,3.9,0,0,0-1.25.2,3.71,3.71,0,0,0-1,.53,3.61,3.61,0,0,0-.61.55,1.44,1.44,0,0,0-.22.61,8.81,8.81,0,0,0-.07,1.39,8,8,0,0,0,.69,3.76,2.27,2.27,0,0,0,2.12,1.26,2.68,2.68,0,0,0,1.36-.31,2.42,2.42,0,0,0,.89-.88,4.1,4.1,0,0,0,.49-1.37,9.58,9.58,0,0,0,.15-1.77,5.51,5.51,0,0,0-.64-3A2.1,2.1,0,0,0,326.42,189.4Z"/><path d="M346.18,189.16l0,.17a5.06,5.06,0,0,1,2.38,1.78,5.11,5.11,0,0,1,0,5.6,5.43,5.43,0,0,1-2.46,1.87,10.85,10.85,0,0,1-7.34.06,5.22,5.22,0,0,1-2.37-1.78,4.61,4.61,0,0,1-.85-2.75,4.72,4.72,0,0,1,.43-2.05,4.38,4.38,0,0,1,1.13-1.47,7.47,7.47,0,0,1,1.69-1l0-.18a4.47,4.47,0,0,1-3-4.36,4,4,0,0,1,.86-2.5,5.64,5.64,0,0,1,2.46-1.75,9.46,9.46,0,0,1,3.54-.63,8.47,8.47,0,0,1,5,1.22,4,4,0,0,1,1.68,3.44,4.44,4.44,0,0,1-.76,2.59A5.36,5.36,0,0,1,346.18,189.16Zm-6.53,4.62a5.06,5.06,0,0,0,.71,2.94,2.48,2.48,0,0,0,2.13,1,2.67,2.67,0,0,0,1.5-.41,2.55,2.55,0,0,0,.95-1.26,5.55,5.55,0,0,0,.33-2,5.67,5.67,0,0,0-.34-2.08,3,3,0,0,0-1-1.37,2.5,2.5,0,0,0-1.5-.47,2.46,2.46,0,0,0-2.54,1.79A6,6,0,0,0,339.65,193.78Zm.16-8.88a4.65,4.65,0,0,0,.7,2.75,2.4,2.4,0,0,0,2.05.95,2.28,2.28,0,0,0,2-.9,5.26,5.26,0,0,0,0-5.14,2.35,2.35,0,0,0-2-.9,2.51,2.51,0,0,0-2,.82A3.69,3.69,0,0,0,339.81,184.9Z"/><path d="M355.62,194.88c.08.38.14.79.19,1.25s.06.87.06,1.23a5.22,5.22,0,0,1-.36,2,6,6,0,0,1-1.18,1.73,14.73,14.73,0,0,1-2.27,1.89l-1-1.19a4.55,4.55,0,0,0,.91-1.09,4.35,4.35,0,0,0,.48-1.28,9.4,9.4,0,0,0,.14-1.74c0-.82-.06-1.76-.16-2.81Z"/><path d="M373.49,195.66a4.82,4.82,0,0,0,1.32-.13,1.27,1.27,0,0,0,.69-.45,2.72,2.72,0,0,0,.41-1h1.56l-.31,4.89H364.73v-.9a16.78,16.78,0,0,1,1.64-2.86c.72-1,1.6-2.15,2.63-3.37s1.72-2.11,2.23-2.86a9.73,9.73,0,0,0,1.15-2.12,5.57,5.57,0,0,0,.38-2.06,3.76,3.76,0,0,0-.66-2.36,2.19,2.19,0,0,0-1.82-.86,2.32,2.32,0,0,0-1.8.78,4.91,4.91,0,0,0-1,2.44H365v-3.23a27.51,27.51,0,0,1,2.59-.94,15.71,15.71,0,0,1,1.85-.4,13.71,13.71,0,0,1,2-.14,8.37,8.37,0,0,1,3.26.54,3.82,3.82,0,0,1,1.83,1.47,4.08,4.08,0,0,1,.56,2.15,5.15,5.15,0,0,1-.4,2,9.35,9.35,0,0,1-1.39,2.12,41.46,41.46,0,0,1-3.32,3.4q-1,1-2,2.07c-.61.7-1,1.25-1.34,1.64v.13Z"/><path d="M392.65,181.08v.84a6.91,6.91,0,0,0-4.82,1.86,9.22,9.22,0,0,0-2.46,5.1l.14.06a7.93,7.93,0,0,1,2.13-1.08,7.63,7.63,0,0,1,2.35-.34,5,5,0,0,1,2.68.69,4.32,4.32,0,0,1,1.69,1.94,7.06,7.06,0,0,1,.57,2.93,6.57,6.57,0,0,1-.76,3.21,5.24,5.24,0,0,1-2.34,2.16,8.74,8.74,0,0,1-3.88.78,7.26,7.26,0,0,1-3.62-.85,5.46,5.46,0,0,1-2.31-2.5,9.06,9.06,0,0,1-.8-4,12.28,12.28,0,0,1,1.34-5.78,10.69,10.69,0,0,1,3.79-4.16,11.8,11.8,0,0,1,5.57-1.79Zm-4.26,8.32a3.9,3.9,0,0,0-1.25.2,3.77,3.77,0,0,0-1,.53,3.45,3.45,0,0,0-.6.55,1.44,1.44,0,0,0-.22.61,8.81,8.81,0,0,0-.07,1.39,8,8,0,0,0,.69,3.76A2.27,2.27,0,0,0,388,197.7a2.68,2.68,0,0,0,1.36-.31,2.42,2.42,0,0,0,.89-.88,4.1,4.1,0,0,0,.49-1.37,9.58,9.58,0,0,0,.15-1.77,5.51,5.51,0,0,0-.64-3A2.1,2.1,0,0,0,388.39,189.4Z"/><path d="M414,180.35v.9a5.64,5.64,0,0,0-.77.3,1.35,1.35,0,0,0-.38.33,1.72,1.72,0,0,0-.24.63,7.62,7.62,0,0,0-.08,1.27V199H409l-6.1-10.63c-.83-1.44-1.44-2.57-1.82-3.39H401q.13,2.94.14,6.2v4.41a6.67,6.67,0,0,0,.1,1.43,1.27,1.27,0,0,0,.37.65,2.5,2.5,0,0,0,1,.43v.9h-5.14v-.9a3.56,3.56,0,0,0,.8-.3,1.07,1.07,0,0,0,.43-.44,1.93,1.93,0,0,0,.19-.71c0-.28,0-.63,0-1.06V183.77a7.25,7.25,0,0,0-.09-1.41,1.28,1.28,0,0,0-.37-.66,2.47,2.47,0,0,0-1-.45v-.9H403l4.81,8.41c.3.53.69,1.24,1.17,2.15s.9,1.75,1.27,2.55h.22c-.1-2.18-.15-4.55-.15-7.13v-2.55a7.78,7.78,0,0,0-.07-1.28,1.31,1.31,0,0,0-.21-.6,1.17,1.17,0,0,0-.38-.35,4.13,4.13,0,0,0-.79-.3v-.9Z"/><path d="M37.63,194.12a8.2,8.2,0,0,0-.23-1.29,1.07,1.07,0,0,0-.35-.55,1.46,1.46,0,0,0-.79-.22l.14-.6h3.11l.92,9.71q4.09-5.64,4.1-8.09a1,1,0,0,0-.24-.78,1.39,1.39,0,0,0-.83-.24l.12-.6h3.13l.33.61a29.48,29.48,0,0,1-1.64,3.52q-1,1.82-2.45,4c-1,1.44-2,2.93-3.22,4.49a27.14,27.14,0,0,1-2.28,2.71,7.32,7.32,0,0,1-1.31,1,4.25,4.25,0,0,1-2.36.67,4.08,4.08,0,0,1-.74-.07,3.59,3.59,0,0,1-.7-.17l.52-2.29h.94a1.15,1.15,0,0,0,.2.66.63.63,0,0,0,.53.25,2.62,2.62,0,0,0,.67-.08,2.48,2.48,0,0,0,.58-.27,4.65,4.65,0,0,0,.76-.58,14.09,14.09,0,0,0,1-1.07c.37-.44.78-1,1.24-1.6Z"/><path d="M24.24,243.52l6.4,2a14.45,14.45,0,0,1-4.89,8,13.88,13.88,0,0,1-8.69,2.62,14,14,0,0,1-10.7-4.48q-4.2-4.49-4.2-12.25,0-8.22,4.22-12.77a14.4,14.4,0,0,1,11.08-4.55,13.56,13.56,0,0,1,9.75,3.57,13,13,0,0,1,3.34,6.07L24,233.35a6.78,6.78,0,0,0-6.89-5.53,7.42,7.42,0,0,0-5.9,2.63Q9,233.08,9,239c0,4.17.75,7.13,2.23,8.9a7.25,7.25,0,0,0,5.8,2.65,6.55,6.55,0,0,0,4.53-1.69A9.82,9.82,0,0,0,24.24,243.52Z"/><path d="M53,245.74v-1.9h12v1.9Zm0,5.68v-1.9h12v1.9Z"/><path d="M78.38,255a2.23,2.23,0,0,0,.78-.22,1.42,1.42,0,0,0,.44-.44,3.39,3.39,0,0,0,.37-.84c.11-.37.26-1,.43-1.74l.38-1.75H73.56l.26-1.29,9.88-11.81H86l-2.58,11.77h.47a3.71,3.71,0,0,0,1-.11,1.29,1.29,0,0,0,.56-.4,4.21,4.21,0,0,0,.51-1h1.22L86.4,250H83.09l-.44,2c-.08.39-.13.74-.17,1.05s0,.56,0,.75a1.2,1.2,0,0,0,.28.9,1.76,1.76,0,0,0,1,.32l-.15.67H78.23ZM76,248.64h5.1l.74-3.4c.39-1.79.82-3.57,1.3-5.36h-.19L76,248.45Z"/><path d="M95.82,251.68a8.86,8.86,0,0,0-.24,1.6,1.06,1.06,0,0,0,.28.81,1.79,1.79,0,0,0,1,.38,15.51,15.51,0,0,0,2,.16l-.2,1H89.06l.21-1a16.84,16.84,0,0,0,1.75-.15,3.93,3.93,0,0,0,1-.26,1.8,1.8,0,0,0,.6-.4,1.86,1.86,0,0,0,.41-.61,5.84,5.84,0,0,0,.34-1.15l2.17-9.91c.08-.38.15-.69.19-.92a3.25,3.25,0,0,0,.06-.56.66.66,0,0,0-.69-.75,2.88,2.88,0,0,0-1.08.35c-.48.23-1.19.63-2.14,1.2l-.53-1.1,6.88-3.62h.94l-.4,1.6c-.14.58-.29,1.26-.46,2Z"/><path d="M110.51,251.68a8.86,8.86,0,0,0-.24,1.6,1.06,1.06,0,0,0,.28.81,1.79,1.79,0,0,0,.94.38,15.54,15.54,0,0,0,2.05.16l-.21,1h-9.58l.2-1a16.58,16.58,0,0,0,1.75-.15,3.9,3.9,0,0,0,1-.26,1.8,1.8,0,0,0,.6-.4,2,2,0,0,0,.41-.61,5.84,5.84,0,0,0,.34-1.15l2.17-9.91c.08-.38.14-.69.18-.92a2.58,2.58,0,0,0,.07-.56.72.72,0,0,0-.21-.58.75.75,0,0,0-.49-.17,2.9,2.9,0,0,0-1.07.35c-.48.23-1.19.63-2.14,1.2l-.53-1.1,6.88-3.62h.94l-.4,1.6c-.14.58-.3,1.26-.46,2Z"/><path d="M142.44,237l-.15.67a2.44,2.44,0,0,0-.74.24,1.33,1.33,0,0,0-.41.41,4.1,4.1,0,0,0-.37.86c-.12.39-.27,1-.46,1.89l-3.19,14.59h-1.85l-4-11.73c-.48-1.4-.9-2.8-1.27-4.2h-.17c-.06.47-.21,1.35-.45,2.66s-.5,2.59-.77,3.84l-1.2,5.45c-.08.38-.15.75-.2,1.11a6.08,6.08,0,0,0-.08,1,1.09,1.09,0,0,0,.3.87,1.9,1.9,0,0,0,1,.31l-.15.67H123.6l.15-.67a1.81,1.81,0,0,0,.77-.27,1.36,1.36,0,0,0,.43-.51,4.4,4.4,0,0,0,.33-.8c.1-.31.25-.92.45-1.82L128,241c.09-.39.16-.77.21-1.12a6.54,6.54,0,0,0,.08-1.08,1.07,1.07,0,0,0-.32-.9,1.76,1.76,0,0,0-1-.29l.15-.67h4.33l3.59,10.65c.51,1.53.91,2.82,1.19,3.88h.15c.07-.55.24-1.48.5-2.77s.49-2.43.71-3.4l.95-4.3c.06-.3.13-.66.2-1.07a8,8,0,0,0,.1-1.13,1.07,1.07,0,0,0-.33-.9,1.75,1.75,0,0,0-1-.29l.15-.67Z"/><path d="M159.5,243.08l-1,1.48-2.87-2.47-.53,4.28h-1.88l1.3-4.28L151,244.61l-.8-1.59,4.15-1.8-3.27-1.83,1-1.51,2.88,2.46.52-4.27h1.88l-1.29,4.27,3.55-2.5.81,1.59-4.14,1.79Z"/><path d="M181.56,237.45l-.81,3.7h-1.31a4.27,4.27,0,0,0-.72-2.43,2.47,2.47,0,0,0-2-.74,3.73,3.73,0,0,0-2.15.68,7.53,7.53,0,0,0-1.9,2,14.53,14.53,0,0,0-1.56,3,21.54,21.54,0,0,0-1,3.5,17,17,0,0,0-.35,3.21,5.79,5.79,0,0,0,.73,3.28,2.56,2.56,0,0,0,2.27,1.05,4.84,4.84,0,0,0,1.78-.31,3.91,3.91,0,0,0,1.42-1,8.65,8.65,0,0,0,1.32-2.05h1.3l-.82,3.89a20.2,20.2,0,0,1-2.68.54,20.78,20.78,0,0,1-2.64.17,5.5,5.5,0,0,1-2.87-.71,4.37,4.37,0,0,1-1.78-2,7.8,7.8,0,0,1-.59-3.21,13.22,13.22,0,0,1,.13-1.91,21.54,21.54,0,0,1,.52-2.5,16.74,16.74,0,0,1,1.12-3.07,13.8,13.8,0,0,1,1.67-2.58,9.76,9.76,0,0,1,1.92-1.74,8,8,0,0,1,2-1,7.73,7.73,0,0,1,2.33-.35,16.21,16.21,0,0,1,2.29.15A14.91,14.91,0,0,1,181.56,237.45Z"/><path d="M186,255.86a4.31,4.31,0,0,1-3.26-1.19,4.66,4.66,0,0,1-1.16-3.42,10.43,10.43,0,0,1,.2-1.92,11.47,11.47,0,0,1,.73-2.55,8.28,8.28,0,0,1,1.57-2.38,6.52,6.52,0,0,1,2.2-1.53,6.8,6.8,0,0,1,2.67-.53,4.92,4.92,0,0,1,2.56.6,3.52,3.52,0,0,1,1.44,1.64,5.88,5.88,0,0,1,.45,2.38,12,12,0,0,1-1.77,6,6.22,6.22,0,0,1-2.34,2.14A7.06,7.06,0,0,1,186,255.86Zm-2-4a3.33,3.33,0,0,0,.62,2.22,2.32,2.32,0,0,0,1.87.72,3.07,3.07,0,0,0,2.36-1.2,8.83,8.83,0,0,0,1.63-3.37,15,15,0,0,0,.59-3.81,3.63,3.63,0,0,0-.57-2.22,2.08,2.08,0,0,0-1.77-.75,3.21,3.21,0,0,0-2.47,1.19A8.48,8.48,0,0,0,184.6,248,14.54,14.54,0,0,0,184,251.84Z"/><path d="M203.54,245.74a3,3,0,0,0-.7-1.78,2.3,2.3,0,0,0-1.7-.55,2.74,2.74,0,0,0-1.16.24,1.87,1.87,0,0,0-1.11,1.77,2.17,2.17,0,0,0,.2.92,3.2,3.2,0,0,0,.69.87,11,11,0,0,0,1.35,1A6.38,6.38,0,0,1,203,250a3.55,3.55,0,0,1,.52,1.93,3.78,3.78,0,0,1-.61,2.18,3.63,3.63,0,0,1-1.67,1.33,6.21,6.21,0,0,1-2.39.44,13.08,13.08,0,0,1-2.23-.18q-1-.18-2-.45l.63-2.95h1.06a2.89,2.89,0,0,0,.72,1.88,2.43,2.43,0,0,0,1.79.62,2.7,2.7,0,0,0,1.89-.61,2.07,2.07,0,0,0,.68-1.61,2.69,2.69,0,0,0-.2-1.05,2.9,2.9,0,0,0-.64-.89,9.81,9.81,0,0,0-1.24-1,9.75,9.75,0,0,1-1.38-1.11,3.59,3.59,0,0,1-.82-1.14,3.09,3.09,0,0,1-.29-1.37,3.33,3.33,0,0,1,2.13-3.24,6.15,6.15,0,0,1,2.4-.44,12.2,12.2,0,0,1,3.95.59l-.62,2.81Z"/><path d="M219.2,253.44a5.2,5.2,0,0,0,.79-.05,1.57,1.57,0,0,0,.45-.16,1.64,1.64,0,0,0,.37-.31,2.27,2.27,0,0,0,.34-.48,8.34,8.34,0,0,0,.4-.8h1.27l-1,4H211.17l.13-.66a21.17,21.17,0,0,1,2.06-3,41,41,0,0,1,3.44-3.63c1.22-1.16,2-2,2.51-2.46a18.1,18.1,0,0,0,1.89-2.18,6.58,6.58,0,0,0,.92-1.71,5,5,0,0,0,.28-1.61,2.33,2.33,0,0,0-.65-1.77,2.52,2.52,0,0,0-1.84-.62,3.22,3.22,0,0,0-2,.67,4.64,4.64,0,0,0-1.43,1.9h-1.75l.58-2.63a19.2,19.2,0,0,1,2.84-.91,12.37,12.37,0,0,1,2.62-.29,5.62,5.62,0,0,1,2.3.44,3.37,3.37,0,0,1,1.46,1.23,3.2,3.2,0,0,1,.5,1.73,5.43,5.43,0,0,1-.22,1.62,5.49,5.49,0,0,1-.68,1.46,14.67,14.67,0,0,1-1.75,2.09c-.7.72-1.87,1.81-3.49,3.27a37.21,37.21,0,0,0-4.71,4.85Z"/><path d="M229.59,240.58l.56-2.63a16.16,16.16,0,0,1,2.79-.92,12.18,12.18,0,0,1,2.66-.28,6.88,6.88,0,0,1,1.67.2,4.17,4.17,0,0,1,1.38.63,3.1,3.1,0,0,1,.94,1.09,3.38,3.38,0,0,1,.34,1.58,4.85,4.85,0,0,1-.49,2.23,5,5,0,0,1-1.58,1.8,12.55,12.55,0,0,1-3,1.56V246a4.73,4.73,0,0,1,2.58,1.44,3.74,3.74,0,0,1,.9,2.54,5.85,5.85,0,0,1-.49,2.28,5.62,5.62,0,0,1-1.38,2,5.86,5.86,0,0,1-2.18,1.22,9.81,9.81,0,0,1-3,.42,14.44,14.44,0,0,1-2.67-.28,11.41,11.41,0,0,1-2.34-.69l.63-2.9h1.56a2.8,2.8,0,0,0,.83,2.05,3.17,3.17,0,0,0,2.18.66,4.2,4.2,0,0,0,2.32-.61,3.84,3.84,0,0,0,1.5-1.76,6.14,6.14,0,0,0,.54-2.62,2.63,2.63,0,0,0-.94-2.22,4.58,4.58,0,0,0-2.83-.74h-1.36l.26-1.2a9.61,9.61,0,0,0,2.9-.6,6,6,0,0,0,2.05-1.25,4.37,4.37,0,0,0,1.12-1.6,4.63,4.63,0,0,0,.33-1.7,2.28,2.28,0,0,0-.66-1.75,2.53,2.53,0,0,0-1.82-.63,3.4,3.4,0,0,0-2.14.64,4.86,4.86,0,0,0-1.44,1.93Z"/><path d="M244.28,240.58l.55-2.63a16.52,16.52,0,0,1,2.8-.92,12.18,12.18,0,0,1,2.66-.28,6.88,6.88,0,0,1,1.67.2,4.26,4.26,0,0,1,1.38.63,3.21,3.21,0,0,1,.94,1.09,3.38,3.38,0,0,1,.34,1.58,4.85,4.85,0,0,1-.49,2.23,5,5,0,0,1-1.58,1.8,12.55,12.55,0,0,1-3,1.56V246a4.73,4.73,0,0,1,2.58,1.44A3.78,3.78,0,0,1,253,250a5.68,5.68,0,0,1-.49,2.28,5.46,5.46,0,0,1-1.37,2,5.94,5.94,0,0,1-2.18,1.22,9.81,9.81,0,0,1-3,.42,14.44,14.44,0,0,1-2.67-.28,11.41,11.41,0,0,1-2.34-.69l.63-2.9h1.56A2.8,2.8,0,0,0,244,254a3.17,3.17,0,0,0,2.18.66,4.2,4.2,0,0,0,2.32-.61,4,4,0,0,0,1.5-1.76,6.14,6.14,0,0,0,.54-2.62,2.64,2.64,0,0,0-.95-2.22,4.54,4.54,0,0,0-2.83-.74h-1.35l.26-1.2a9.61,9.61,0,0,0,2.9-.6,6.14,6.14,0,0,0,2.05-1.25,4.49,4.49,0,0,0,1.12-1.6,4.63,4.63,0,0,0,.33-1.7,2.28,2.28,0,0,0-.66-1.75,2.55,2.55,0,0,0-1.82-.63,3.43,3.43,0,0,0-2.15.64,5.06,5.06,0,0,0-1.44,1.93Z"/><path d="M262.32,244.92a4,4,0,0,1-2.08-.53,3.54,3.54,0,0,1-1.4-1.47,4.56,4.56,0,0,1-.49-2.11,4.2,4.2,0,0,1,.53-2.1,3.64,3.64,0,0,1,1.46-1.45,4.33,4.33,0,0,1,2.11-.51,4.13,4.13,0,0,1,2.09.52,3.6,3.6,0,0,1,1.42,1.45,4.29,4.29,0,0,1,.51,2.1,4.2,4.2,0,0,1-.53,2.1,3.83,3.83,0,0,1-1.49,1.47A4.21,4.21,0,0,1,262.32,244.92Zm.08-6.82a2.67,2.67,0,0,0-1.36.35,2.43,2.43,0,0,0-.92,1,2.94,2.94,0,0,0-.33,1.41,3.12,3.12,0,0,0,.32,1.42,2.35,2.35,0,0,0,.93,1,2.67,2.67,0,0,0,1.36.35,2.72,2.72,0,0,0,1.38-.35,2.41,2.41,0,0,0,.93-1,3,3,0,0,0,.32-1.42,2.93,2.93,0,0,0-.32-1.41,2.39,2.39,0,0,0-.93-1A2.72,2.72,0,0,0,262.4,238.1Z"/><path d="M273.63,245.74v-1.9h12v1.9Zm0,5.68v-1.9h12v1.9Z"/><path d="M301.36,249.6h-6.43v-2.87h6.43Z"/><path d="M313.06,252.28a4.82,4.82,0,0,0,1.32-.13,1.32,1.32,0,0,0,.68-.45,2.62,2.62,0,0,0,.42-1H317l-.31,4.89H304.29v-.9a16.52,16.52,0,0,1,1.65-2.86q1.08-1.55,2.63-3.38c1-1.15,1.72-2.11,2.23-2.85a10.44,10.44,0,0,0,1.15-2.12,5.88,5.88,0,0,0,.38-2.07,3.72,3.72,0,0,0-.67-2.36,2.17,2.17,0,0,0-1.81-.85,2.34,2.34,0,0,0-1.8.77,5,5,0,0,0-1,2.44h-2.45v-3.22a27.49,27.49,0,0,1,2.6-.94,13.92,13.92,0,0,1,1.85-.4,12.35,12.35,0,0,1,2-.14,8.37,8.37,0,0,1,3.26.54,3.79,3.79,0,0,1,1.82,1.46,4,4,0,0,1,.57,2.15,5.15,5.15,0,0,1-.4,2,9.14,9.14,0,0,1-1.39,2.12,43,43,0,0,1-3.32,3.41c-.69.68-1.35,1.37-2,2.07s-1.06,1.24-1.35,1.63v.14Z"/><path d="M325.82,254.73a3.35,3.35,0,0,0,.78-.3A1,1,0,0,0,327,254a1.66,1.66,0,0,0,.19-.69,10.63,10.63,0,0,0,0-1.07v-2H320v-1.48l8.24-11.87h3.05v11.62h.42a3.34,3.34,0,0,0,.94-.09,1,1,0,0,0,.47-.33,2.79,2.79,0,0,0,.37-.88h1.43l-.17,3h-3.46v2a7.16,7.16,0,0,0,.07,1.16,1.8,1.8,0,0,0,.23.68,1,1,0,0,0,.45.38,4.48,4.48,0,0,0,.72.26v.9h-6.94Zm-3.19-6.24h4.64v-3.13c0-1.31.05-2.69.14-4.14h-.14l-4.64,7Z"/><path d="M350.83,237.87l-7.54,17.8h-2.78v-.94l6.81-13.91v-.2h-6a4.16,4.16,0,0,0-1,.09,1.35,1.35,0,0,0-1,.86,6.73,6.73,0,0,0-.31,1.07h-1.57l.35-5.67h13Z"/><path d="M357.15,251.5a10.15,10.15,0,0,1,.19,1.24,11.44,11.44,0,0,1,.07,1.24,5.11,5.11,0,0,1-.37,2,5.59,5.59,0,0,1-1.17,1.72,15.74,15.74,0,0,1-2.27,1.9l-1.05-1.19a4.41,4.41,0,0,0,.92-1.1,4,4,0,0,0,.47-1.27,8.65,8.65,0,0,0,.14-1.75,27,27,0,0,0-.16-2.8Z"/><path d="M366.78,241.47v-3.24a15.9,15.9,0,0,1,6.23-1.48,8.62,8.62,0,0,1,2.95.46,4.28,4.28,0,0,1,2,1.36,3.4,3.4,0,0,1,.7,2.17,4.26,4.26,0,0,1-.46,2,4.74,4.74,0,0,1-1.29,1.54,11.39,11.39,0,0,1-2.17,1.29v.12a6.23,6.23,0,0,1,2.15.79,4.51,4.51,0,0,1,1.55,1.58,4.44,4.44,0,0,1,.58,2.28,5.23,5.23,0,0,1-.77,2.82,5.08,5.08,0,0,1-2.33,1.94,9.16,9.16,0,0,1-3.79.71,16.77,16.77,0,0,1-3-.28,11.06,11.06,0,0,1-2.58-.79v-3.43H369a4.82,4.82,0,0,0,1.12,2.26,2.58,2.58,0,0,0,1.88.71c1.92,0,2.88-1.2,2.88-3.58a3.78,3.78,0,0,0-1-2.88,4.4,4.4,0,0,0-3.07-.94h-1.08v-1.56a5.85,5.85,0,0,0,3.59-1.11,4.34,4.34,0,0,0,.61-5.24,2.15,2.15,0,0,0-1.78-.77,2.72,2.72,0,0,0-1.23.29,2.68,2.68,0,0,0-1,1,5.47,5.47,0,0,0-.65,1.91Z"/><path d="M383.39,254.78v-3.42h2.46a4.44,4.44,0,0,0,1.09,2.23,2.65,2.65,0,0,0,1.92.73,2.57,2.57,0,0,0,2.19-.93,4.67,4.67,0,0,0,.71-2.85,4.17,4.17,0,0,0-.91-2.89,3.39,3.39,0,0,0-2.64-1,9.29,9.29,0,0,0-1.43.12,9.94,9.94,0,0,0-1.36.3l-1.23-.76V237h8a2.61,2.61,0,0,0,.73-.07.87.87,0,0,0,.38-.23,2.2,2.2,0,0,0,.33-.6h1.49l-.27,4.36h-8.34v4.92a9.56,9.56,0,0,1,1.67-.36,15.15,15.15,0,0,1,2.08-.12,6.54,6.54,0,0,1,2.95.63,4.63,4.63,0,0,1,2,1.82,5.45,5.45,0,0,1,.7,2.81,5.65,5.65,0,0,1-.84,3.17,5,5,0,0,1-2.43,1.91,10.11,10.11,0,0,1-3.8.64,15.43,15.43,0,0,1-2.91-.29A11,11,0,0,1,383.39,254.78Z"/><path d="M415.48,237v.9a5.38,5.38,0,0,0-.76.3,1.1,1.1,0,0,0-.38.33,1.38,1.38,0,0,0-.24.62,7.76,7.76,0,0,0-.08,1.28v15.23h-3.45L404.46,245c-.82-1.44-1.43-2.57-1.82-3.39h-.12q.14,2.94.14,6.21v4.4a6.78,6.78,0,0,0,.1,1.44,1.27,1.27,0,0,0,.37.65,2.44,2.44,0,0,0,1,.43v.9H399v-.9a3.56,3.56,0,0,0,.8-.3,1.1,1.1,0,0,0,.43-.45,1.88,1.88,0,0,0,.18-.7,10.63,10.63,0,0,0,0-1.07V240.39a8.65,8.65,0,0,0-.08-1.42,1.28,1.28,0,0,0-.37-.65,2.53,2.53,0,0,0-1-.45V237h5.5l4.8,8.41c.3.52.69,1.24,1.17,2.14s.91,1.76,1.28,2.56H412q-.15-3.27-.15-7.14V240.4a9.39,9.39,0,0,0-.07-1.29,1.73,1.73,0,0,0-.21-.6,1.25,1.25,0,0,0-.38-.34,4,4,0,0,0-.8-.3V237Z"/><path d="M46.86,248.67c-1.57,1.69-3.21,3.35-4.92,5l1.12,2.67c.3.72.54,1.24.72,1.58a3.51,3.51,0,0,0,.48.73,1.58,1.58,0,0,0,.44.33,2.45,2.45,0,0,0,.69.17l-.13.6h-3l-1.69-4.91-.77.71c-.31.31-.62.63-.92,1a6,6,0,0,0-.63.83,2.62,2.62,0,0,0-.24.55,2,2,0,0,0-.05.48.68.68,0,0,0,.17.5,1.12,1.12,0,0,0,.6.26l-.13.6H35.12l-.23-.6c1.77-1.91,3.51-3.68,5.23-5.29L39,251.14q-.36-.82-.57-1.26a4.11,4.11,0,0,0-.42-.68,1.44,1.44,0,0,0-.46-.36,2.13,2.13,0,0,0-.75-.17l.14-.59h3l1.62,4.6c.39-.37.77-.75,1.12-1.14a6.55,6.55,0,0,0,.75-.93,2.51,2.51,0,0,0,.31-.61,2,2,0,0,0,.08-.56c0-.44-.26-.7-.77-.77l.13-.59h3.45Z"/><path d="M24.24,299.34l6.4,2a14.51,14.51,0,0,1-4.89,8A13.94,13.94,0,0,1,17.06,312a14,14,0,0,1-10.7-4.48q-4.2-4.47-4.2-12.25,0-8.22,4.22-12.77A14.4,14.4,0,0,1,17.46,278a13.56,13.56,0,0,1,9.75,3.57,13,13,0,0,1,3.34,6.07L24,289.16a7,7,0,0,0-2.42-4,6.9,6.9,0,0,0-4.47-1.48,7.41,7.41,0,0,0-5.9,2.62C9.72,288,9,290.85,9,294.78c0,4.16.75,7.12,2.23,8.89a7.22,7.22,0,0,0,5.8,2.65,6.59,6.59,0,0,0,4.53-1.68A9.86,9.86,0,0,0,24.24,299.34Z"/><path d="M53,301.56v-1.9h12v1.9Zm0,5.67v-1.9h12v1.9Z"/><path d="M78.38,310.77a2,2,0,0,0,.78-.22,1.38,1.38,0,0,0,.44-.43,3.78,3.78,0,0,0,.37-.84c.11-.37.26-1,.43-1.75l.38-1.75H73.56l.26-1.28,9.88-11.82H86l-2.58,11.78h.47a3.3,3.3,0,0,0,1-.12,1.29,1.29,0,0,0,.56-.4,4.1,4.1,0,0,0,.51-1h1.22l-.77,2.81H83.09l-.44,2c-.08.39-.13.74-.17,1.05s0,.56,0,.76a1.19,1.19,0,0,0,.28.89,1.69,1.69,0,0,0,1,.32l-.15.67H78.23ZM76,304.46h5.1l.74-3.41q.58-2.67,1.3-5.36h-.19L76,304.26Z"/><path d="M95.82,307.49a8.86,8.86,0,0,0-.24,1.6,1,1,0,0,0,.28.81,1.87,1.87,0,0,0,1,.39,15.92,15.92,0,0,0,2,.15l-.2,1H89.06l.21-1a14.44,14.44,0,0,0,1.75-.15,3.93,3.93,0,0,0,1-.26,2,2,0,0,0,.6-.39A1.91,1.91,0,0,0,93,309a5.63,5.63,0,0,0,.34-1.15L95.52,298c.08-.38.15-.69.19-.91a3.45,3.45,0,0,0,.06-.56.73.73,0,0,0-.21-.59.72.72,0,0,0-.48-.17,2.88,2.88,0,0,0-1.08.35c-.48.23-1.19.63-2.14,1.2l-.53-1.1,6.88-3.62h.94l-.4,1.6c-.14.58-.29,1.26-.46,2Z"/><path d="M110.51,307.49a8.86,8.86,0,0,0-.24,1.6,1,1,0,0,0,.28.81,1.87,1.87,0,0,0,.94.39,16,16,0,0,0,2.05.15l-.21,1h-9.58l.2-1a14.24,14.24,0,0,0,1.75-.15,3.9,3.9,0,0,0,1-.26,2,2,0,0,0,.6-.39,2.09,2.09,0,0,0,.41-.62,5.63,5.63,0,0,0,.34-1.15l2.17-9.91c.08-.38.14-.69.18-.91a2.72,2.72,0,0,0,.07-.56.73.73,0,0,0-.21-.59.75.75,0,0,0-.49-.17,2.9,2.9,0,0,0-1.07.35c-.48.23-1.19.63-2.14,1.2l-.53-1.1,6.88-3.62h.94l-.4,1.6c-.14.58-.3,1.26-.46,2Z"/><path d="M142.44,292.78l-.15.67a2.39,2.39,0,0,0-.74.25,1.23,1.23,0,0,0-.41.41,3.76,3.76,0,0,0-.37.85c-.12.39-.27,1-.46,1.89l-3.19,14.59h-1.85l-4-11.73c-.48-1.4-.9-2.8-1.27-4.2h-.17c-.06.47-.21,1.36-.45,2.66s-.5,2.59-.77,3.84l-1.2,5.45c-.08.39-.15.76-.2,1.11a6.19,6.19,0,0,0-.08,1,1.05,1.05,0,0,0,.3.86,1.82,1.82,0,0,0,1,.31l-.15.67H123.6l.15-.67a1.82,1.82,0,0,0,.77-.26A1.48,1.48,0,0,0,125,310a4.4,4.4,0,0,0,.33-.8c.1-.31.25-.92.45-1.82L128,296.84c.09-.39.16-.77.21-1.12a6.54,6.54,0,0,0,.08-1.08,1.07,1.07,0,0,0-.32-.9,1.84,1.84,0,0,0-1-.29l.15-.67h4.33l3.59,10.65c.51,1.53.91,2.83,1.19,3.88h.15c.07-.55.24-1.48.5-2.77s.49-2.43.71-3.39l.95-4.31c.06-.3.13-.66.2-1.07a7.87,7.87,0,0,0,.1-1.13,1.07,1.07,0,0,0-.33-.9,1.83,1.83,0,0,0-1-.29l.15-.67Z"/><path d="M159.5,298.89l-1,1.48-2.87-2.46-.53,4.28h-1.88l1.3-4.28L151,300.42l-.8-1.58,4.15-1.81-3.27-1.83,1-1.5,2.88,2.46.52-4.28h1.88l-1.29,4.28,3.55-2.51.81,1.59L156.27,297Z"/><path d="M167.65,307.19a3.5,3.5,0,0,0,.76,2.47,3.1,3.1,0,0,0,2.37.81,4.61,4.61,0,0,0,2.15-.46,3.21,3.21,0,0,0,1.36-1.32,4.31,4.31,0,0,0,.46-2,3.38,3.38,0,0,0-.3-1.47,3.92,3.92,0,0,0-.88-1.22,11.89,11.89,0,0,0-1.7-1.33,11.88,11.88,0,0,1-1.67-1.35,5.44,5.44,0,0,1-1.06-1.48,4.23,4.23,0,0,1-.39-1.83,5,5,0,0,1,3-4.75,7.43,7.43,0,0,1,3.25-.67,15.13,15.13,0,0,1,2.32.17,17.77,17.77,0,0,1,2.35.58l-.76,3.52h-1.3a5.2,5.2,0,0,0-.35-1.83,1.92,1.92,0,0,0-.86-.95,3.24,3.24,0,0,0-1.48-.29,4.08,4.08,0,0,0-2,.47,3.22,3.22,0,0,0-1.3,1.26,3.61,3.61,0,0,0-.45,1.79,3.2,3.2,0,0,0,.24,1.27,4,4,0,0,0,.78,1.1,11.09,11.09,0,0,0,1.57,1.25,13.2,13.2,0,0,1,2,1.66,4.93,4.93,0,0,1,1,1.55,5.07,5.07,0,0,1,.34,1.9,5.5,5.5,0,0,1-.8,2.95,5.26,5.26,0,0,1-2.24,2,7.4,7.4,0,0,1-3.29.7,21.09,21.09,0,0,1-5.28-.71l.81-3.76Z"/><path d="M189.92,308.72a11.89,11.89,0,0,1-1.92,1.75,6.65,6.65,0,0,1-1.85.92,7.3,7.3,0,0,1-2,.27,4.47,4.47,0,0,1-1.84-.35,3.56,3.56,0,0,1-1.29-.95,4.08,4.08,0,0,1-.75-1.45,6.64,6.64,0,0,1-.24-1.83,10.56,10.56,0,0,1,.52-3.14,9.27,9.27,0,0,1,1.58-3,7.44,7.44,0,0,1,2.54-2.07,7,7,0,0,1,3.15-.73,3.82,3.82,0,0,1,2.46.67,2.53,2.53,0,0,1,.82,2.09,3.75,3.75,0,0,1-2.16,3.49,14.08,14.08,0,0,1-6.43,1.16,9.06,9.06,0,0,0-.16,1.78,3.18,3.18,0,0,0,.55,2.08,2.3,2.3,0,0,0,1.82.65,4.65,4.65,0,0,0,2.27-.55,8.85,8.85,0,0,0,2.13-1.68Zm-7.22-4.33a17,17,0,0,0,2.19-.15,8.88,8.88,0,0,0,1.63-.35,4.33,4.33,0,0,0,1.12-.54,3,3,0,0,0,.72-.69,2.5,2.5,0,0,0,.36-.8,3.44,3.44,0,0,0,.1-.86,2.06,2.06,0,0,0-.38-1.31,1.41,1.41,0,0,0-1.15-.47,3.09,3.09,0,0,0-1.87.69,6.3,6.3,0,0,0-1.61,1.86A10.49,10.49,0,0,0,182.7,304.39Z"/><path d="M204.38,311.44H200.1l1.73-6.94c.11-.45.21-.94.32-1.48a8,8,0,0,0,.15-1.45,2.27,2.27,0,0,0-.33-1.39,1.22,1.22,0,0,0-1-.43,2.22,2.22,0,0,0-1.23.45,6.9,6.9,0,0,0-1.37,1.32,12.09,12.09,0,0,0-1.22,1.79,8.17,8.17,0,0,0-.77,2.21l-1.23,5.92h-2.35l2.06-9.34c.05-.21.11-.52.19-.93a6.36,6.36,0,0,0,.11-1,1.4,1.4,0,0,0-.11-.6.72.72,0,0,0-.4-.31,3.32,3.32,0,0,0-.94-.14l.16-.73,3.08-.12h.78l-.91,3.55.16.06a12.13,12.13,0,0,1,2.57-2.8,4.17,4.17,0,0,1,2.47-.91,2.6,2.6,0,0,1,2,.73,3.05,3.05,0,0,1,.68,2.17,6.91,6.91,0,0,1-.09,1.07,10.36,10.36,0,0,1-.19,1L203.23,308a6.94,6.94,0,0,0-.23,1.56,1.31,1.31,0,0,0,.13.65.87.87,0,0,0,.42.35,3.44,3.44,0,0,0,.94.19Z"/><path d="M220.47,309.25a4.1,4.1,0,0,0,.78-.05,1.47,1.47,0,0,0,.45-.16,1.87,1.87,0,0,0,.37-.3,3,3,0,0,0,.35-.48c.1-.19.23-.45.4-.81h1.26l-1,4H212.43l.14-.65a20,20,0,0,1,2.05-3,42.45,42.45,0,0,1,3.44-3.64c1.22-1.16,2.05-2,2.52-2.46a18.82,18.82,0,0,0,1.88-2.18,6.64,6.64,0,0,0,.93-1.71,4.9,4.9,0,0,0,.27-1.61,2.36,2.36,0,0,0-.65-1.77,2.56,2.56,0,0,0-1.84-.62,3.22,3.22,0,0,0-2,.67,4.7,4.7,0,0,0-1.43,1.9H216l.58-2.63a17.75,17.75,0,0,1,2.85-.9,11.62,11.62,0,0,1,2.61-.3,5.42,5.42,0,0,1,2.3.45,3.21,3.21,0,0,1,1.47,1.23,3.17,3.17,0,0,1,.49,1.73,5.52,5.52,0,0,1-.22,1.62,5.88,5.88,0,0,1-.67,1.45,14.85,14.85,0,0,1-1.76,2.09c-.7.72-1.87,1.81-3.48,3.27a36.78,36.78,0,0,0-4.72,4.85Z"/><path d="M230.85,296.39l.56-2.63a17.07,17.07,0,0,1,2.79-.92,12.28,12.28,0,0,1,2.67-.28,6.53,6.53,0,0,1,1.67.21,3.83,3.83,0,0,1,1.37.63,3,3,0,0,1,.94,1.08,3.38,3.38,0,0,1,.35,1.58,5,5,0,0,1-.49,2.24,5.26,5.26,0,0,1-1.58,1.79,12.75,12.75,0,0,1-3,1.56l0,.15a4.79,4.79,0,0,1,2.58,1.44,3.74,3.74,0,0,1,.9,2.54,5.94,5.94,0,0,1-.49,2.29,5.54,5.54,0,0,1-3.56,3.17,9.81,9.81,0,0,1-3,.42,13.63,13.63,0,0,1-2.67-.28,11.11,11.11,0,0,1-2.33-.69l.62-2.9h1.56a2.84,2.84,0,0,0,.83,2,3.22,3.22,0,0,0,2.19.66,4.33,4.33,0,0,0,2.32-.6,4,4,0,0,0,1.5-1.77,6.29,6.29,0,0,0,.53-2.62,2.65,2.65,0,0,0-.94-2.22,4.56,4.56,0,0,0-2.83-.73H232l.26-1.21a9.61,9.61,0,0,0,2.9-.6,6.09,6.09,0,0,0,2-1.24,4.45,4.45,0,0,0,1.12-1.6,4.53,4.53,0,0,0,.34-1.71,2.27,2.27,0,0,0-.67-1.75,2.53,2.53,0,0,0-1.82-.63,3.4,3.4,0,0,0-2.14.64,5.06,5.06,0,0,0-1.44,1.93Z"/><path d="M245.54,296.39l.56-2.63a17.07,17.07,0,0,1,2.79-.92,12.18,12.18,0,0,1,2.66-.28,6.42,6.42,0,0,1,1.67.21,3.8,3.8,0,0,1,1.38.63,3,3,0,0,1,.94,1.08,3.38,3.38,0,0,1,.34,1.58,5,5,0,0,1-.48,2.24,5.19,5.19,0,0,1-1.59,1.79,12.35,12.35,0,0,1-3,1.56v.15a4.79,4.79,0,0,1,2.58,1.44,3.74,3.74,0,0,1,.9,2.54,5.94,5.94,0,0,1-.49,2.29,5.54,5.54,0,0,1-3.56,3.17,9.81,9.81,0,0,1-3,.42,13.63,13.63,0,0,1-2.67-.28,11.41,11.41,0,0,1-2.34-.69l.63-2.9h1.56a2.8,2.8,0,0,0,.83,2,3.19,3.19,0,0,0,2.18.66,4.28,4.28,0,0,0,2.32-.6,3.87,3.87,0,0,0,1.5-1.77,6.14,6.14,0,0,0,.54-2.62,2.65,2.65,0,0,0-.94-2.22,4.56,4.56,0,0,0-2.83-.73h-1.36l.26-1.21a9.61,9.61,0,0,0,2.9-.6,6.19,6.19,0,0,0,2-1.24,4.45,4.45,0,0,0,1.12-1.6,4.73,4.73,0,0,0,.34-1.71,2.3,2.3,0,0,0-.67-1.75,2.53,2.53,0,0,0-1.82-.63,3.4,3.4,0,0,0-2.14.64,5,5,0,0,0-1.44,1.93Z"/><path d="M263.58,300.74a4,4,0,0,1-2.08-.54,3.52,3.52,0,0,1-1.39-1.47,4.41,4.41,0,0,1-.49-2.11,4.25,4.25,0,0,1,.52-2.1,3.7,3.7,0,0,1,1.46-1.45,4.35,4.35,0,0,1,2.12-.51,4.12,4.12,0,0,1,2.08.52,3.69,3.69,0,0,1,1.43,1.45,4.41,4.41,0,0,1,.5,2.11,4.09,4.09,0,0,1-.53,2.09,3.76,3.76,0,0,1-1.49,1.47A4.22,4.22,0,0,1,263.58,300.74Zm.08-6.83a2.64,2.64,0,0,0-1.35.35,2.48,2.48,0,0,0-.93,1,2.93,2.93,0,0,0-.32,1.41,3.08,3.08,0,0,0,.31,1.41,2.35,2.35,0,0,0,.93,1,2.86,2.86,0,0,0,2.74,0,2.35,2.35,0,0,0,.93-1,3.18,3.18,0,0,0,0-2.82,2.48,2.48,0,0,0-.93-1A2.72,2.72,0,0,0,263.66,293.91Z"/><path d="M274.89,301.56v-1.9h12v1.9Zm0,5.67v-1.9h12v1.9Z"/><path d="M296.88,296.65v-2.6a17.68,17.68,0,0,1,2.95-1.12,9.94,9.94,0,0,1,2.64-.37,7,7,0,0,1,2.69.48,3.92,3.92,0,0,1,1.77,1.37,3.77,3.77,0,0,1,.61,2.14,4.46,4.46,0,0,1-.46,2.05,4.76,4.76,0,0,1-1.3,1.54,12,12,0,0,1-2.17,1.28v.12a6.38,6.38,0,0,1,1.6.52,5.13,5.13,0,0,1,1.36.93,4.32,4.32,0,0,1,1.32,3.2,5.66,5.66,0,0,1-.69,2.82,4.7,4.7,0,0,1-2.09,1.94,7.64,7.64,0,0,1-3.44.71,13,13,0,0,1-2.52-.27,14.07,14.07,0,0,1-2.47-.7v-2.9h1.63a4.38,4.38,0,0,0,1.25,2.07,3.3,3.3,0,0,0,2.13.64,3.45,3.45,0,0,0,2.66-1,4.05,4.05,0,0,0,.91-2.87,3.84,3.84,0,0,0-1.2-3.05,5.14,5.14,0,0,0-3.5-1.05h-1.22v-1.21a8.28,8.28,0,0,0,3.09-.71,4.38,4.38,0,0,0,1.86-1.54,3.81,3.81,0,0,0,.61-2.12,3.2,3.2,0,0,0-.8-2.34,3.09,3.09,0,0,0-2.33-.82,3,3,0,0,0-2.08.7,4.11,4.11,0,0,0-1.18,2.13Z"/><path d="M319.65,309.25a5.24,5.24,0,0,0,1.07-.08,1.44,1.44,0,0,0,.65-.27,1.41,1.41,0,0,0,.39-.5c.09-.2.21-.52.36-.95h1.15l-.23,4H311.87v-.65a16.9,16.9,0,0,1,1.57-2.94,30.76,30.76,0,0,1,2.81-3.54c1.05-1.17,1.81-2.06,2.27-2.66a12.07,12.07,0,0,0,1.13-1.7,6.54,6.54,0,0,0,.54-1.35,5.1,5.1,0,0,0,.16-1.28,4.83,4.83,0,0,0-.32-1.81,2.68,2.68,0,0,0-1-1.24,3,3,0,0,0-1.69-.45c-1.69,0-2.84.95-3.42,2.84h-1.65V294a16,16,0,0,1,3.08-1.13,11.08,11.08,0,0,1,2.57-.35,5.67,5.67,0,0,1,3.82,1.12,4,4,0,0,1,1.29,3.23,5.52,5.52,0,0,1-.15,1.33,5.19,5.19,0,0,1-.44,1.21,9.07,9.07,0,0,1-.83,1.27c-.34.46-.72.92-1.14,1.39s-1.13,1.25-2.16,2.35a29,29,0,0,0-3.78,4.79Z"/><path d="M336.26,301.58l0,.18a4.84,4.84,0,0,1,2.32,1.76,4.79,4.79,0,0,1,.79,2.78,5.26,5.26,0,0,1-.76,2.82,4.94,4.94,0,0,1-2.21,1.88,8,8,0,0,1-3.37.66,7.63,7.63,0,0,1-3.17-.61,4.75,4.75,0,0,1-2.12-1.77,5,5,0,0,1-.75-2.76,4.85,4.85,0,0,1,.4-2.06,4.31,4.31,0,0,1,1.07-1.45,7.39,7.39,0,0,1,1.66-1l0-.18a4.42,4.42,0,0,1-2.92-4.36,4.28,4.28,0,0,1,.76-2.51,5.07,5.07,0,0,1,2.19-1.74,7.62,7.62,0,0,1,3.14-.63,8.8,8.8,0,0,1,3.29.55,4.31,4.31,0,0,1,2,1.6,4.55,4.55,0,0,1,.67,2.51,4.48,4.48,0,0,1-.73,2.59A5.13,5.13,0,0,1,336.26,301.58Zm-6.65,4.71a6.8,6.8,0,0,0,.2,1.66,3.6,3.6,0,0,0,.65,1.33,3,3,0,0,0,1.13.89,3.87,3.87,0,0,0,1.68.33,3.7,3.7,0,0,0,1.91-.46,2.93,2.93,0,0,0,1.21-1.36,5,5,0,0,0,.41-2.13,5.29,5.29,0,0,0-.44-2.27,3.25,3.25,0,0,0-1.27-1.44,3.46,3.46,0,0,0-1.88-.5,4,4,0,0,0-1.69.31,3,3,0,0,0-1.12.85,3.4,3.4,0,0,0-.61,1.25A6.31,6.31,0,0,0,329.61,306.29Zm.15-9a5.76,5.76,0,0,0,.19,1.52,3.38,3.38,0,0,0,.61,1.23,2.93,2.93,0,0,0,1.09.82,3.89,3.89,0,0,0,1.65.31,3.81,3.81,0,0,0,1.9-.44,2.74,2.74,0,0,0,1.14-1.3,4.89,4.89,0,0,0,.37-2,4.54,4.54,0,0,0-.44-2.08,2.94,2.94,0,0,0-1.22-1.27,3.77,3.77,0,0,0-1.78-.41,3.49,3.49,0,0,0-2.61.94A3.68,3.68,0,0,0,329.76,297.32Z"/><path d="M345.1,308.27a9.47,9.47,0,0,1,.19,1.89,4.55,4.55,0,0,1-.33,1.75,5.31,5.31,0,0,1-1,1.58,13.92,13.92,0,0,1-2,1.73l-.73-.84a5.64,5.64,0,0,0,1-1.18,3.74,3.74,0,0,0,.45-1.2,8.57,8.57,0,0,0,.14-1.68,20,20,0,0,0-.1-2.05Z"/><path d="M356.14,309.25a5.24,5.24,0,0,0,1.07-.08,1.44,1.44,0,0,0,.65-.27,1.41,1.41,0,0,0,.39-.5c.09-.2.21-.52.36-.95h1.15l-.23,4H348.36v-.65a16.9,16.9,0,0,1,1.57-2.94,30.76,30.76,0,0,1,2.81-3.54c1.05-1.17,1.81-2.06,2.27-2.66a11.24,11.24,0,0,0,1.13-1.7,6.54,6.54,0,0,0,.54-1.35,5.1,5.1,0,0,0,.16-1.28,4.83,4.83,0,0,0-.32-1.81,2.68,2.68,0,0,0-1-1.24,3,3,0,0,0-1.69-.45c-1.69,0-2.84.95-3.42,2.84h-1.65V294a16,16,0,0,1,3.08-1.13,11.08,11.08,0,0,1,2.57-.35,5.66,5.66,0,0,1,3.82,1.12,4,4,0,0,1,1.29,3.23,5.52,5.52,0,0,1-.15,1.33,5.19,5.19,0,0,1-.44,1.21,9.07,9.07,0,0,1-.83,1.27c-.34.46-.72.92-1.14,1.39s-1.13,1.25-2.15,2.35a28.63,28.63,0,0,0-3.79,4.79Z"/><path d="M369,310.77a2.83,2.83,0,0,0,1.13-.48,1.33,1.33,0,0,0,.37-.76,9.19,9.19,0,0,0,.09-1.51v-2.24H363v-1L371,292.68h1.94v11.78h.28a3.75,3.75,0,0,0,1.13-.12,1.19,1.19,0,0,0,.56-.41,3.14,3.14,0,0,0,.42-1h1l-.16,2.81h-3.26V308a10.6,10.6,0,0,0,.06,1.34,1.9,1.9,0,0,0,.2.67,1.18,1.18,0,0,0,.42.41,3.89,3.89,0,0,0,.91.33v.67H369Zm-3.72-6.31h5.31v-3.41c0-.85,0-1.81,0-2.88s.06-1.86.1-2.4h-.14l-5.31,8.49Z"/><path d="M37.63,306.55a8.2,8.2,0,0,0-.23-1.29,1.07,1.07,0,0,0-.35-.55,1.46,1.46,0,0,0-.79-.22l.14-.6h3.11l.92,9.7q4.09-5.64,4.1-8.08a1,1,0,0,0-.24-.78,1.39,1.39,0,0,0-.83-.24l.12-.6h3.13l.33.61A28.67,28.67,0,0,1,45.4,308c-.67,1.22-1.49,2.54-2.45,4s-2,2.94-3.22,4.5a27.14,27.14,0,0,1-2.28,2.71,7.32,7.32,0,0,1-1.31,1.05,4.53,4.53,0,0,1-1.17.51,4.17,4.17,0,0,1-1.19.16,5.24,5.24,0,0,1-.74-.07,3,3,0,0,1-.7-.18l.52-2.28h.94a1.15,1.15,0,0,0,.2.66.63.63,0,0,0,.53.24,2.24,2.24,0,0,0,.67-.08,2.42,2.42,0,0,0,.58-.26,5.3,5.3,0,0,0,.76-.58,14.09,14.09,0,0,0,1-1.07c.37-.45.78-1,1.24-1.61Z"/></svg>