<svg id="Capa_1" data-name="Capa 1" xmlns="http://www.w3.org/2000/svg" viewBox="0 0 203.96 105.6"><path d="M59,56.84H40.11V53.56H59Zm0,8.69H40.11V62.25H59Z"/><path d="M179.81,25.05a13.36,13.36,0,0,1,3.63-3.38,7.88,7.88,0,0,1,4.07-1.07,4.28,4.28,0,0,1,4.65,4.64,15.34,15.34,0,0,1-.43,3.33l-1.75,8c-.14.66-.23,1.17-.28,1.53a7,7,0,0,0-.08.92,1.66,1.66,0,0,0,.48,1.36,3.31,3.31,0,0,0,1.66.51l-.26,1.42h-8.85l2.94-12.91c.16-.67.27-1.23.35-1.66s.14-.8.17-1.11a7.05,7.05,0,0,0,.06-.86,2.34,2.34,0,0,0-.4-1.47,1.4,1.4,0,0,0-1.18-.51,2.72,2.72,0,0,0-1.47.55,9.4,9.4,0,0,0-1.81,1.62,10,10,0,0,0-1.56,2.29,12.25,12.25,0,0,0-1,3l-2.35,11H170.3l3.07-13.47q.21-.86.3-1.38c.05-.34.09-.63.11-.88s0-.46,0-.66a2.65,2.65,0,0,0-.38-1.62,1.41,1.41,0,0,0-1.21-.51,3.9,3.9,0,0,0-2.4,1.31,11.57,11.57,0,0,0-2.18,2.68,11.86,11.86,0,0,0-1.21,3.51l-2.34,11H158l3.34-15.17c.08-.34.17-.83.29-1.47a8.94,8.94,0,0,0,.18-1.6,1.38,1.38,0,0,0-.5-1.24,3.31,3.31,0,0,0-1.57-.41L160,21l5.87-.24h2.24l-1.21,4.64.25.09a21.15,21.15,0,0,1,2.74-2.89,8.47,8.47,0,0,1,2.49-1.5,8,8,0,0,1,2.75-.45,4.64,4.64,0,0,1,3.36,1.19A4.48,4.48,0,0,1,179.81,25.05Z"/><path d="M160.17,86.23a6,6,0,0,0,.62,2.48,2.83,2.83,0,0,0,1.3,1.29,4.14,4.14,0,0,0,1.79.36,3.76,3.76,0,0,0,2.6-.83,3,3,0,0,0,.92-2.33,3.54,3.54,0,0,0-.3-1.53,3.93,3.93,0,0,0-1-1.21,19.42,19.42,0,0,0-2.22-1.54,10.24,10.24,0,0,1-3.11-2.67,5.36,5.36,0,0,1-1-3.11,5.64,5.64,0,0,1,2.35-4.85,11.06,11.06,0,0,1,6.57-1.7,25,25,0,0,1,3.53.27,25.48,25.48,0,0,1,3.45.72l-1.11,5.13H171.9a5.27,5.27,0,0,0-1-2.94,3,3,0,0,0-2.36-.94,3.38,3.38,0,0,0-2.3.74,2.52,2.52,0,0,0-.86,2A2.83,2.83,0,0,0,165.7,77a4.39,4.39,0,0,0,1.06,1.21,19.19,19.19,0,0,0,2.15,1.46,10,10,0,0,1,3.24,2.79,5.79,5.79,0,0,1,1,3.37A6,6,0,0,1,172,89.54a6.81,6.81,0,0,1-3.18,2.3,13.07,13.07,0,0,1-4.59.75,29.73,29.73,0,0,1-4.25-.28,28,28,0,0,1-3.69-.75l1.2-5.33Z"/><line x1="153.23" y1="54.47" x2="190.31" y2="54.47" style="fill:none;stroke:#000;stroke-miterlimit:10;stroke-width:2px"/><path d="M79.94,61.84a12.57,12.57,0,0,0-.37,2.41A1.51,1.51,0,0,0,80,65.41a2.65,2.65,0,0,0,1.39.56,17.63,17.63,0,0,0,2.86.19l-.37,1.78H67.94l.37-1.78a27.78,27.78,0,0,0,3-.27,3.36,3.36,0,0,0,1.43-.55,2.74,2.74,0,0,0,.81-1,10.53,10.53,0,0,0,.66-2.19L77,49.38a7.9,7.9,0,0,0,.21-1.58A1.17,1.17,0,0,0,77,47a.81.81,0,0,0-.64-.25,3.07,3.07,0,0,0-.85.14,7.61,7.61,0,0,0-1.13.5l-2.61,1.45-1-2L81.94,41h2.64c-.37,1.37-.77,3.11-1.21,5.19Z"/><path d="M93.46,47.47l1.1-4.67a35.35,35.35,0,0,1,4.76-1.39,21.57,21.57,0,0,1,4.36-.44,9.89,9.89,0,0,1,3.41.53,5,5,0,0,1,2.33,1.68,4.6,4.6,0,0,1,.85,2.84,6.43,6.43,0,0,1-.55,2.73,7.49,7.49,0,0,1-1.52,2.16,10.87,10.87,0,0,1-2.29,1.69,20.65,20.65,0,0,1-2.85,1.28l0,.25a6.6,6.6,0,0,1,3.49,2.06,5.24,5.24,0,0,1,1.28,3.51,8.35,8.35,0,0,1-.67,3.35A8,8,0,0,1,105,65.86a8.56,8.56,0,0,1-3.41,1.82,17.72,17.72,0,0,1-4.85.57,20.3,20.3,0,0,1-4.06-.44,17.38,17.38,0,0,1-3.56-1.08l1-4.75h3.1c.13,2.72,1.32,4.08,3.55,4.08a4.28,4.28,0,0,0,2.71-.91,5.72,5.72,0,0,0,1.8-2.46,8.34,8.34,0,0,0,.63-3.17,3.78,3.78,0,0,0-1.15-3.05,5.2,5.2,0,0,0-3.43-1H95.67l.48-2.23a10.93,10.93,0,0,0,4.31-.94,7,7,0,0,0,3-2.52,6.78,6.78,0,0,0,1.11-3.9,2.86,2.86,0,0,0-.71-2.08,2.69,2.69,0,0,0-2-.74,5.3,5.3,0,0,0-1.28.17,3.57,3.57,0,0,0-1.29.65,6,6,0,0,0-1.23,1.34A10.45,10.45,0,0,0,97,47.47Z"/><path d="M117.68,62c0,.83-.08,1.59-.16,2.28a13.57,13.57,0,0,1-.37,2,8.49,8.49,0,0,1-.69,1.76,8.63,8.63,0,0,1-1.34,1.76,20,20,0,0,1-2.06,1.89,29,29,0,0,1-2.71,1.91L109,71.82a9.73,9.73,0,0,0,2.24-2.25,9.37,9.37,0,0,0,1.29-3.13,27.27,27.27,0,0,0,.64-4.4Z"/><path d="M127.86,66.65a2.5,2.5,0,0,0,1.55-1,6.46,6.46,0,0,0,1-2.55L131,60.2H121l.45-2.11,14.64-17h4.58l-3.61,16.6h.53a5,5,0,0,0,1.3-.12,1.82,1.82,0,0,0,.72-.49,5.41,5.41,0,0,0,.77-1.24h2L141.3,60.2h-4.79L136,62.66a10.31,10.31,0,0,0-.26,2.09,2.12,2.12,0,0,0,.35,1.38,2,2,0,0,0,1.26.52l-.27,1.29h-9.48Zm-2.62-8.91h6.32l1.59-7.11c.3-1.27.57-2.37.82-3.28h-.21L125.3,57.41Z"/><path d="M27.48,50.8c.81-1.54,1.37-2.63,1.67-3.3a9.17,9.17,0,0,0,.59-1.66,5.43,5.43,0,0,0,.15-1.23c0-1-.6-1.63-1.81-1.78l.32-1.42h9.09l-.32,1.42a3.07,3.07,0,0,0-1.13.44,4.1,4.1,0,0,0-.93.81,8,8,0,0,0-.85,1.21q-.42.69-.93,1.62l-13.25,24H14.73l-.92-23c0-.87-.08-1.57-.15-2.08a7.17,7.17,0,0,0-.28-1.29,3.66,3.66,0,0,0-.41-.91,1.77,1.77,0,0,0-.63-.56,2.87,2.87,0,0,0-.86-.25l.32-1.42h11l-.32,1.42a2.64,2.64,0,0,0-1.46.47,2.16,2.16,0,0,0-.74,1.09,7.09,7.09,0,0,0-.23,2.07v.92c0,.32,0,.65,0,1l.19,10.55c0,2,.05,3.6.05,4.88h.25Z"/></svg>