<svg id="Capa_1" data-name="Capa 1" xmlns="http://www.w3.org/2000/svg" viewBox="0 0 642.59 157.5"><path d="M540.49,39.5l14.22,28.64v2.94l-15.94,29.07H558a9.36,9.36,0,0,0,2.73-.31,4.24,4.24,0,0,0,1.57-1,6.13,6.13,0,0,0,1.2-1.78,17.63,17.63,0,0,0,1-3.16,51.85,51.85,0,0,0,.93-5.27h3.42L568,107.59H531v-2.17l18-32.9L532.11,37.68V35.47h36.07V52.71H565c-.48-2.45-.95-4.45-1.38-6A20.87,20.87,0,0,0,562.29,43a7.88,7.88,0,0,0-1.4-2.08,4.87,4.87,0,0,0-1.65-1.08,6.79,6.79,0,0,0-2.48-.37Z"/><path d="M47.29,71.38a6.32,6.32,0,0,1,1.65,1.85,9.63,9.63,0,0,1,1,3l.5,2.5a13.89,13.89,0,0,0,.33,1.44,11.81,11.81,0,0,0,.42,1.27,3.84,3.84,0,0,0,.54,1,2.76,2.76,0,0,0,1.36,1,8.87,8.87,0,0,0,1.06.25l-.22,1.05H48a33.24,33.24,0,0,1-1.21-4.56l-.94-4.55a10.45,10.45,0,0,0-.57-2,3.57,3.57,0,0,0-.78-1.24,2.21,2.21,0,0,0-1.07-.58A6.35,6.35,0,0,0,42,71.62H39.54l-1.49,6.81c-.13.56-.22,1-.27,1.33s-.09.68-.12,1a9.14,9.14,0,0,0-.06,1,2,2,0,0,0,.22,1,1.24,1.24,0,0,0,.64.55,5.84,5.84,0,0,0,1.47.26l-.24,1.05H30.93l.23-1.05a3,3,0,0,0,1.22-.42,2.39,2.39,0,0,0,.68-.81,7,7,0,0,0,.51-1.26c.16-.49.39-1.45.71-2.86L37.9,61.73a16.36,16.36,0,0,0,.47-3.39,1.81,1.81,0,0,0-.49-1.46,2.76,2.76,0,0,0-1.6-.47l.24-1.06H46a20.49,20.49,0,0,1,3.69.27,8.52,8.52,0,0,1,2.44.81,5.49,5.49,0,0,1,1.7,1.38,6.17,6.17,0,0,1,1,1.91A7.34,7.34,0,0,1,55.2,62a8.3,8.3,0,0,1-2.34,6,10.65,10.65,0,0,1-2.53,1.89,17.68,17.68,0,0,1-3,1.26Zm-4.82-1.61a13.59,13.59,0,0,0,3.86-.46,6.48,6.48,0,0,0,2.56-1.41,7.18,7.18,0,0,0,1.68-2.49,8.45,8.45,0,0,0,.66-3.35,6.86,6.86,0,0,0-.17-1.65,4.43,4.43,0,0,0-.44-1.19,3.52,3.52,0,0,0-.71-.84,4.13,4.13,0,0,0-1.06-.63,6.11,6.11,0,0,0-1.49-.39,17,17,0,0,0-2.29-.12c-.75,0-1.55,0-2.39.09L40,69.77Z"/><path d="M96.39,65.69H75.59V62.08h20.8Zm0,9.56H75.59V71.64h20.8Z"/><path d="M519.54,65.69h-20.8V62.08h20.8Zm0,9.56h-20.8V71.64h20.8Z"/><path d="M178.12,79.12V70.48h-8.57V66.87h8.57V58.3h3.65v8.57h8.58v3.61h-8.58v8.64Z"/><path d="M262.61,79.12V70.48H254V66.87h8.57V58.3h3.65v8.57h8.58v3.61h-8.58v8.64Z"/><path d="M344.31,79.12V70.48h-8.57V66.87h8.57V58.3H348v8.57h8.57v3.61H348v8.64Z"/><path d="M422.52,79.12V70.48H414V66.87h8.57V58.3h3.65v8.57h8.57v3.61h-8.57v8.64Z"/><path d="M375.25,84.21l.93-4.4h4.4l-.94,4.4Z"/><path d="M387.48,84.21l.92-4.4h4.41l-.95,4.4Z"/><path d="M399.7,84.21l.93-4.4H405l-.94,4.4Z"/><line x1="34.93" y1="46.77" x2="55.92" y2="46.77" style="fill:none;stroke:#000;stroke-miterlimit:10;stroke-width:2px"/><polygon points="51.93 50.16 55.33 46.77 51.93 43.38 54.81 43.38 58.2 46.77 54.81 50.16 51.93 50.16"/><path d="M125.09,79.7c-.1.43-.18.8-.23,1.1a10.92,10.92,0,0,0-.15,1.1c0,.44-.07.82-.07,1.15a2.16,2.16,0,0,0,.22,1,1.18,1.18,0,0,0,.64.54,5.41,5.41,0,0,0,1.47.26l-.24,1H118l.23-1a2.75,2.75,0,0,0,1.22-.42,2.24,2.24,0,0,0,.68-.8,6.86,6.86,0,0,0,.51-1.26c.16-.49.39-1.45.71-2.87L124.94,63a16.36,16.36,0,0,0,.47-3.4,1.82,1.82,0,0,0-.49-1.46,2.76,2.76,0,0,0-1.6-.47l.24-1H142.8l-1.47,6.59h-2.05a22.85,22.85,0,0,0-.24-2.39,4.7,4.7,0,0,0-.37-1.3,1.9,1.9,0,0,0-.5-.64,2,2,0,0,0-.69-.29,7.13,7.13,0,0,0-1.19-.08h-6.57l-2.54,11.69h4a4.1,4.1,0,0,0,1.56-.26,2.92,2.92,0,0,0,1.15-.94,12.82,12.82,0,0,0,1.32-2.31h1.94l-2.06,9.07H133.2c0-.89,0-1.58-.06-2.08a2.21,2.21,0,0,0-.25-1.06,1.09,1.09,0,0,0-.58-.42A5.72,5.72,0,0,0,131,72.1h-4.18Z"/><path d="M147.88,88.21a7.18,7.18,0,0,0-.2,1.42.93.93,0,0,0,.3.75,2.41,2.41,0,0,0,1.06.4,16.11,16.11,0,0,0,2.29.16l-.3,1.37H140.2l.27-1.37a18.3,18.3,0,0,0,2.12-.16,4,4,0,0,0,1.17-.35,2,2,0,0,0,.69-.6,3.19,3.19,0,0,0,.44-1.19L147,79c0-.18.08-.34.1-.48a2.32,2.32,0,0,0,0-.29.47.47,0,0,0-.17-.43.91.91,0,0,0-.47-.11,3.58,3.58,0,0,0-1.26.37q-.85.36-2.34,1.14l-.69-1.51,7.55-3.46H151c-.3,1.15-.6,2.4-.9,3.76Z"/><line x1="123.28" y1="46.74" x2="144.27" y2="46.74" style="fill:none;stroke:#000;stroke-miterlimit:10;stroke-width:2px"/><polygon points="140.28 50.13 143.68 46.74 140.28 43.35 143.16 43.35 146.55 46.74 143.16 50.13 140.28 50.13"/><path d="M211.65,79.7c-.1.43-.18.8-.24,1.1s-.1.67-.15,1.1-.06.82-.06,1.15a2.17,2.17,0,0,0,.21,1,1.26,1.26,0,0,0,.64.54,5.59,5.59,0,0,0,1.48.26l-.24,1h-8.77l.24-1a2.7,2.7,0,0,0,1.21-.42,2.37,2.37,0,0,0,.69-.8,8.64,8.64,0,0,0,.51-1.26c.16-.49.39-1.45.7-2.87L211.5,63a17.07,17.07,0,0,0,.47-3.4,1.86,1.86,0,0,0-.49-1.46,2.76,2.76,0,0,0-1.6-.47l.23-1h19.24l-1.47,6.59h-2a22.85,22.85,0,0,0-.24-2.39,4.7,4.7,0,0,0-.37-1.3,1.9,1.9,0,0,0-.5-.64,1.94,1.94,0,0,0-.7-.29,6.91,6.91,0,0,0-1.18-.08h-6.57l-2.54,11.69h4a4.17,4.17,0,0,0,1.56-.26,3,3,0,0,0,1.15-.94,14.18,14.18,0,0,0,1.32-2.31h1.94l-2.07,9.07h-1.87c0-.89,0-1.58-.06-2.08a2.33,2.33,0,0,0-.25-1.06,1.09,1.09,0,0,0-.58-.42,5.76,5.76,0,0,0-1.36-.11h-4.18Z"/><path d="M233.71,89.89a3.06,3.06,0,0,0,1.15-.17,1.78,1.78,0,0,0,.69-.52,5.17,5.17,0,0,0,.67-1.14h1.65l-1.09,4.25h-12l.21-1A27.29,27.29,0,0,1,231,85l1.92-1.62a23.57,23.57,0,0,0,2-1.89A7.74,7.74,0,0,0,236,80.13,4.62,4.62,0,0,0,236.5,79a4.49,4.49,0,0,0,.15-1.18,1.92,1.92,0,0,0-.69-1.56,3,3,0,0,0-2-.57,3.59,3.59,0,0,0-2.19.67,4.71,4.71,0,0,0-1.45,1.85h-2.2l.64-2.93a18.79,18.79,0,0,1,6.08-1.18,7.23,7.23,0,0,1,2.21.31,4.87,4.87,0,0,1,1.52.82,3.22,3.22,0,0,1,.88,1.13,3.13,3.13,0,0,1,.27,1.25,5,5,0,0,1-.47,2.27A8,8,0,0,1,237.55,82q-1.26,1.22-4.21,3.52a37,37,0,0,0-4.75,4.34Z"/><line x1="209.83" y1="46.74" x2="230.82" y2="46.74" style="fill:none;stroke:#000;stroke-miterlimit:10;stroke-width:2px"/><polygon points="226.84 50.13 230.23 46.74 226.84 43.35 229.72 43.35 233.11 46.74 229.72 50.13 226.84 50.13"/><path d="M294.7,79.7c-.1.43-.18.8-.24,1.1a10.92,10.92,0,0,0-.15,1.1c0,.44-.06.82-.06,1.15a2.17,2.17,0,0,0,.21,1,1.22,1.22,0,0,0,.64.54,5.58,5.58,0,0,0,1.47.26l-.23,1h-8.77l.24-1a2.7,2.7,0,0,0,1.21-.42,2.24,2.24,0,0,0,.68-.8,7.62,7.62,0,0,0,.52-1.26c.15-.49.39-1.45.7-2.87L294.55,63a17.07,17.07,0,0,0,.47-3.4,1.86,1.86,0,0,0-.49-1.46,2.79,2.79,0,0,0-1.6-.47l.23-1H312.4l-1.47,6.59h-2.05a23.32,23.32,0,0,0-.23-2.39,4.65,4.65,0,0,0-.38-1.3,1.79,1.79,0,0,0-.5-.64,1.82,1.82,0,0,0-.69-.29,7,7,0,0,0-1.19-.08h-6.56l-2.54,11.69h4a4.08,4.08,0,0,0,1.55-.26,2.85,2.85,0,0,0,1.15-.94,13.36,13.36,0,0,0,1.33-2.31h1.94l-2.07,9.07H302.8c0-.89,0-1.58-.05-2.08a2.31,2.31,0,0,0-.26-1.06,1,1,0,0,0-.57-.42,5.76,5.76,0,0,0-1.36-.11h-4.18Z"/><path d="M311.53,78.2l.57-2.92a21.47,21.47,0,0,1,3-.88,14.67,14.67,0,0,1,3-.31,7.12,7.12,0,0,1,2.41.39,3.91,3.91,0,0,1,1.76,1.23,3.22,3.22,0,0,1,.67,2.1,4.21,4.21,0,0,1-.48,2,4.9,4.9,0,0,1-1.58,1.69,12.63,12.63,0,0,1-2.76,1.42v.22a4.81,4.81,0,0,1,2.52,1.46,3.63,3.63,0,0,1,.85,2.4,5.36,5.36,0,0,1-.48,2.23A4.82,4.82,0,0,1,319.56,91a6.72,6.72,0,0,1-2.38,1.18,11.94,11.94,0,0,1-3.18.39,18,18,0,0,1-3-.27,15.77,15.77,0,0,1-2.7-.65l.68-3.16h1.92a2.68,2.68,0,0,0,.91,1.91,3.62,3.62,0,0,0,2.35.65,4.28,4.28,0,0,0,3.21-1.15,4.5,4.5,0,0,0,1.12-3.28,2.21,2.21,0,0,0-1-1.94,5.25,5.25,0,0,0-2.95-.68h-1.73l.32-1.59A13.09,13.09,0,0,0,316,82a7.11,7.11,0,0,0,2-.85,4.51,4.51,0,0,0,1.19-1.08,3.78,3.78,0,0,0,.56-1.12,4.28,4.28,0,0,0,.15-1.16,2,2,0,0,0-.65-1.58,2.77,2.77,0,0,0-1.89-.57,3.77,3.77,0,0,0-2.26.64,4.66,4.66,0,0,0-1.49,1.92Z"/><line x1="292.88" y1="46.74" x2="313.87" y2="46.74" style="fill:none;stroke:#000;stroke-miterlimit:10;stroke-width:2px"/><polygon points="309.88 50.13 313.28 46.74 309.88 43.35 312.76 43.35 316.15 46.74 312.76 50.13 309.88 50.13"/><path d="M455.59,79.7c-.1.43-.18.8-.24,1.1s-.1.67-.14,1.1a10.19,10.19,0,0,0-.07,1.15,2.17,2.17,0,0,0,.21,1,1.26,1.26,0,0,0,.64.54,5.59,5.59,0,0,0,1.48.26l-.24,1h-8.77l.24-1a2.8,2.8,0,0,0,1.22-.42,2.46,2.46,0,0,0,.68-.8,8.64,8.64,0,0,0,.51-1.26c.16-.49.39-1.45.7-2.87L455.44,63a17.07,17.07,0,0,0,.47-3.4,1.82,1.82,0,0,0-.49-1.46,2.76,2.76,0,0,0-1.6-.47l.23-1H473.3l-1.48,6.59h-2a22.85,22.85,0,0,0-.24-2.39,4.7,4.7,0,0,0-.37-1.3,1.9,1.9,0,0,0-.5-.64,1.94,1.94,0,0,0-.7-.29,6.91,6.91,0,0,0-1.18-.08h-6.57l-2.54,11.69h4a4.13,4.13,0,0,0,1.56-.26,3,3,0,0,0,1.15-.94,14.18,14.18,0,0,0,1.32-2.31h1.94l-2.07,9.07H463.7c0-.89,0-1.58-.06-2.08a2.33,2.33,0,0,0-.25-1.06,1.09,1.09,0,0,0-.58-.42,5.72,5.72,0,0,0-1.35-.11h-4.19Z"/><line x1="453.77" y1="46.74" x2="474.76" y2="46.74" style="fill:none;stroke:#000;stroke-miterlimit:10;stroke-width:2px"/><polygon points="470.78 50.13 474.17 46.74 470.78 43.35 473.66 43.35 477.05 46.74 473.66 50.13 470.78 50.13"/><path d="M482.69,90.62h-4.77l1.92-7.69c.12-.5.24-1,.36-1.64a8.91,8.91,0,0,0,.17-1.6,2.52,2.52,0,0,0-.37-1.55,1.4,1.4,0,0,0-1.16-.47,2.57,2.57,0,0,0-1.37.49,7.37,7.37,0,0,0-1.53,1.47,12.79,12.79,0,0,0-1.36,2,9,9,0,0,0-.86,2.44l-1.37,6.56h-2.62L472,80.28c.05-.24.12-.58.2-1a6.09,6.09,0,0,0,.13-1.14,1.36,1.36,0,0,0-.13-.66.75.75,0,0,0-.43-.34,4,4,0,0,0-1.06-.16l.19-.81,3.43-.13h.86l-1,3.93.18.06a13.44,13.44,0,0,1,2.86-3.09,4.68,4.68,0,0,1,2.76-1,2.88,2.88,0,0,1,2.22.81,3.37,3.37,0,0,1,.76,2.4,7.44,7.44,0,0,1-.1,1.19c-.07.43-.14.81-.22,1.14l-1.27,5.39a8.13,8.13,0,0,0-.26,1.73,1.41,1.41,0,0,0,.15.71,1,1,0,0,0,.47.39,3.94,3.94,0,0,0,1.05.21Z"/><path d="M535.74,132.16c-.11.52-.18.9-.21,1.13a5.15,5.15,0,0,0,0,.6,1.41,1.41,0,0,0,.15.71,1,1,0,0,0,.47.4,3.94,3.94,0,0,0,1,.21L537,136h-4.69l2.28-10.2c.13-.59.22-1,.28-1.4a6.25,6.25,0,0,0,.07-.87,1.46,1.46,0,0,0-.13-.69.78.78,0,0,0-.43-.36,3.53,3.53,0,0,0-1-.15l.16-.8,3.7-.14h.89Zm3.74-16.62-.7,2.94H536.1l.7-2.94Z"/><path d="M540.75,131.26l.45-2h12.57l-.46,2Zm1.38-6.29.45-2h12.56l-.45,2Z"/><path d="M565,131.57a9.92,9.92,0,0,0-.28,1.78,1.19,1.19,0,0,0,.32.9,2.24,2.24,0,0,0,1.06.42,16.59,16.59,0,0,0,2.27.17l-.22,1.11H557.46l.23-1.11c.84,0,1.5-.09,1.95-.16a4.68,4.68,0,0,0,1.1-.29,2.23,2.23,0,0,0,.67-.44,2.36,2.36,0,0,0,.45-.68,5.78,5.78,0,0,0,.38-1.27l2.42-11c.1-.42.16-.76.21-1a4.33,4.33,0,0,0,.07-.62.73.73,0,0,0-.77-.83,3.21,3.21,0,0,0-1.2.38c-.54.26-1.33.7-2.39,1.33l-.59-1.21,7.67-4h1.05l-.44,1.78c-.16.64-.34,1.39-.52,2.25Z"/><path d="M560.3,25.46h-4.77l1.92-7.69c.12-.5.24-1,.36-1.64a8.08,8.08,0,0,0,.17-1.6,2.52,2.52,0,0,0-.37-1.55,1.37,1.37,0,0,0-1.15-.46,2.44,2.44,0,0,0-1.37.49,6.9,6.9,0,0,0-1.54,1.47,12.72,12.72,0,0,0-1.36,2,9,9,0,0,0-.85,2.44L550,25.46h-2.62l2.3-10.34c.05-.23.12-.58.21-1A7,7,0,0,0,550,13a1.41,1.41,0,0,0-.13-.65.75.75,0,0,0-.44-.35,4,4,0,0,0-1-.16l.18-.8,3.43-.14h.87l-1,3.94.18.06a13.32,13.32,0,0,1,2.87-3.1,4.63,4.63,0,0,1,2.75-1,2.92,2.92,0,0,1,2.23.81,3.42,3.42,0,0,1,.75,2.4,7.34,7.34,0,0,1-.1,1.19,9.26,9.26,0,0,1-.22,1.14L559,21.67a8,8,0,0,0-.25,1.73,1.41,1.41,0,0,0,.15.71.92.92,0,0,0,.47.39,3.94,3.94,0,0,0,1,.21Z"/><path d="M589.71,78.84c-.1.43-.18.8-.24,1.1a10.92,10.92,0,0,0-.15,1.1c0,.44-.06.83-.06,1.15a2.17,2.17,0,0,0,.21,1,1.22,1.22,0,0,0,.64.54,5.19,5.19,0,0,0,1.47.26l-.23,1h-8.77l.24-1a2.7,2.7,0,0,0,1.21-.42,2.24,2.24,0,0,0,.68-.8,7.62,7.62,0,0,0,.52-1.26c.15-.49.39-1.45.7-2.87l3.63-16.54a17.07,17.07,0,0,0,.47-3.4,1.86,1.86,0,0,0-.49-1.46,2.8,2.8,0,0,0-1.61-.47l.24-1h19.24l-1.47,6.59h-2.05a23.32,23.32,0,0,0-.23-2.39,4.65,4.65,0,0,0-.38-1.3,1.66,1.66,0,0,0-.5-.63,1.55,1.55,0,0,0-.69-.29,6,6,0,0,0-1.19-.09h-6.56L591.8,69.35h4a4.08,4.08,0,0,0,1.55-.26,2.77,2.77,0,0,0,1.15-.94,13.36,13.36,0,0,0,1.33-2.31h1.94l-2.07,9.07h-1.88c0-.89,0-1.58,0-2.08a2.35,2.35,0,0,0-.26-1.06,1,1,0,0,0-.57-.41,5.13,5.13,0,0,0-1.36-.12h-4.18Z"/><line x1="587.89" y1="45.88" x2="608.88" y2="45.88" style="fill:none;stroke:#000;stroke-miterlimit:10;stroke-width:2px"/><polygon points="604.89 49.27 608.29 45.88 604.89 42.49 607.77 42.49 611.16 45.88 607.77 49.27 604.89 49.27"/><path d="M607.27,86c-.11.52-.18.89-.22,1.13a4.85,4.85,0,0,0,0,.6,1.41,1.41,0,0,0,.15.71,1,1,0,0,0,.47.39,3.94,3.94,0,0,0,1,.21l-.13.75h-4.69l2.28-10.21c.13-.58.22-1,.27-1.4a6.22,6.22,0,0,0,.08-.87,1.42,1.42,0,0,0-.13-.68.82.82,0,0,0-.43-.36,3.55,3.55,0,0,0-1-.15l.17-.8,3.69-.14h.9ZM611,69.35l-.7,2.94h-2.68l.7-2.94Z"/></svg>