<svg id="Capa_1" data-name="Capa 1" xmlns="http://www.w3.org/2000/svg" viewBox="0 0 645.97 64.53"><path d="M400.85,45.36a6.15,6.15,0,0,1-3-.65A4.46,4.46,0,0,1,396,42.56a9.75,9.75,0,0,1-.68-4,27.39,27.39,0,0,1,.45-4.74A31.44,31.44,0,0,1,397,29a22.24,22.24,0,0,1,1.85-4.12,14.52,14.52,0,0,1,2.37-3.12A9.6,9.6,0,0,1,404,19.87a7.32,7.32,0,0,1,3-.66,6.21,6.21,0,0,1,2.59.48,4.52,4.52,0,0,1,1.71,1.36,5.45,5.45,0,0,1,.95,2.08,11.51,11.51,0,0,1,.29,2.65,29.53,29.53,0,0,1-1.18,8.15,24.11,24.11,0,0,1-3,6.85,11.27,11.27,0,0,1-3.63,3.54A7.64,7.64,0,0,1,400.85,45.36Zm-2.32-5.58a8.62,8.62,0,0,0,.26,2.37,2.26,2.26,0,0,0,.8,1.24,2.59,2.59,0,0,0,1.49.38,3.79,3.79,0,0,0,2.7-1.33,13.2,13.2,0,0,0,2.48-4,39.6,39.6,0,0,0,2.11-6.76,32.36,32.36,0,0,0,.94-7.11,5.49,5.49,0,0,0-.58-2.89,2.06,2.06,0,0,0-1.87-.91,3.43,3.43,0,0,0-1.6.41,5.86,5.86,0,0,0-1.84,1.67,15.73,15.73,0,0,0-2,3.7,37.84,37.84,0,0,0-1.51,4.67c-.32,1.27-.6,2.52-.82,3.74A25.41,25.41,0,0,0,398.53,39.78Z"/><path d="M382.24,32.89H368.06V30.43h14.18Zm0,6.52H368.06V37h14.18Z"/><path d="M508.6,34H494.42V31.57H508.6Zm0,6.52H494.42V38.09H508.6Z"/><path d="M184.47,47h-6.16l2.49-10c.15-.64.3-1.35.46-2.13a11.89,11.89,0,0,0,.22-2.08,3.26,3.26,0,0,0-.48-2,1.79,1.79,0,0,0-1.5-.62,3.31,3.31,0,0,0-1.77.64,9.73,9.73,0,0,0-2,1.92A16,16,0,0,0,174,35.29a11.71,11.71,0,0,0-1.1,3.18L171.11,47h-3.39l3-13.46c.06-.3.15-.75.26-1.34a8.38,8.38,0,0,0,.17-1.47,1.82,1.82,0,0,0-.17-.86,1,1,0,0,0-.57-.46,5.79,5.79,0,0,0-1.36-.2l.24-1.05,4.44-.17h1.12l-1.31,5.12.23.08a17.44,17.44,0,0,1,3.7-4A5.94,5.94,0,0,1,181,27.85a3.76,3.76,0,0,1,2.88,1,4.48,4.48,0,0,1,1,3.13,10.9,10.9,0,0,1-.13,1.54c-.09.56-.18,1.06-.29,1.49l-1.64,7a10.45,10.45,0,0,0-.33,2.24,1.84,1.84,0,0,0,.19.93,1.24,1.24,0,0,0,.61.51,5,5,0,0,0,1.35.28Z"/><path d="M196.07,43.35a3.82,3.82,0,0,1,1.74,1.29,3.1,3.1,0,0,1,.61,1.89,5.31,5.31,0,0,1-.46,2.26,4.55,4.55,0,0,1-1.44,1.74,6.31,6.31,0,0,1-2.27,1,14.17,14.17,0,0,1-3.16.3h-5.44l.14-.6a1.62,1.62,0,0,0,.69-.24,1.35,1.35,0,0,0,.4-.45,5.11,5.11,0,0,0,.29-.72c.09-.28.22-.82.4-1.63l2.08-9.4a9.4,9.4,0,0,0,.27-1.93,1,1,0,0,0-.29-.83,1.56,1.56,0,0,0-.91-.26l.13-.6h6.05a9.34,9.34,0,0,1,2.93.38,2.89,2.89,0,0,1,2.14,3,4.25,4.25,0,0,1-1,2.79,6.1,6.1,0,0,1-2.91,1.82Zm-6.86,7.41c.63,0,1.23.05,1.78.05a7,7,0,0,0,2.85-.47,3.69,3.69,0,0,0,1.63-1.51,4.9,4.9,0,0,0,.62-2.52,2.66,2.66,0,0,0-.31-1.34,2.26,2.26,0,0,0-1-.88,4.3,4.3,0,0,0-1.86-.33h-2.21Zm3.49-8.07a10.08,10.08,0,0,0,2-.17A3.83,3.83,0,0,0,196,42a5.07,5.07,0,0,0,.87-.8,3.71,3.71,0,0,0,.61-1.09,4.27,4.27,0,0,0,.22-1.46,2.63,2.63,0,0,0-.18-1,1.69,1.69,0,0,0-.63-.78,2.89,2.89,0,0,0-1-.47,7.06,7.06,0,0,0-1.55-.14c-.7,0-1.36,0-2,0L191,42.69Z"/><path d="M248.48,43.73a60.76,60.76,0,0,0,4.65-7.63,13,13,0,0,0,1.59-5.32,1.64,1.64,0,0,0-.39-1.26,2.3,2.3,0,0,0-1.33-.39l.19-1h5.05l.53,1c-.46,1.17-.82,2.07-1.09,2.7s-.64,1.39-1.08,2.28-.91,1.77-1.41,2.65-1.08,1.85-1.75,2.9-1.43,2.21-2.26,3.45-1.82,2.64-3,4.19H245.9l-.81-8.24c-.06-.64-.13-1.48-.2-2.52s-.12-1.84-.15-2.4l-.21,0A51.8,51.8,0,0,1,241.65,40q-1.82,3.21-4.5,7.35h-2.62L233,32.48a15.49,15.49,0,0,0-.29-1.85,2,2,0,0,0-.59-1.07,2.44,2.44,0,0,0-1.35-.43l.21-1h5.13l1.18,15.55q2.74-4.53,4-6.89a31.5,31.5,0,0,0,1.81-4.09,23.11,23.11,0,0,0,.9-3.6l.21-1h2.82Z"/><path d="M264.71,43.35a3.82,3.82,0,0,1,1.74,1.29,3.1,3.1,0,0,1,.61,1.89,5.46,5.46,0,0,1-.45,2.26,4.67,4.67,0,0,1-1.45,1.74,6.31,6.31,0,0,1-2.27,1,14.17,14.17,0,0,1-3.16.3H254.3l.13-.6a1.73,1.73,0,0,0,.7-.24,1.44,1.44,0,0,0,.39-.45,5.11,5.11,0,0,0,.29-.72c.09-.28.22-.82.4-1.63l2.08-9.4a9.4,9.4,0,0,0,.27-1.93,1,1,0,0,0-.29-.83,1.56,1.56,0,0,0-.91-.26l.13-.6h6.05a9.34,9.34,0,0,1,2.93.38,2.89,2.89,0,0,1,2.14,3,4.25,4.25,0,0,1-1,2.79,6.1,6.1,0,0,1-2.91,1.82Zm-6.86,7.41c.63,0,1.23.05,1.78.05a7,7,0,0,0,2.85-.47,3.69,3.69,0,0,0,1.63-1.51,4.9,4.9,0,0,0,.62-2.52,2.66,2.66,0,0,0-.31-1.34,2.26,2.26,0,0,0-1-.88,4.3,4.3,0,0,0-1.86-.33h-2.21Zm3.49-8.07a10.08,10.08,0,0,0,2-.17,3.83,3.83,0,0,0,1.27-.51,5.07,5.07,0,0,0,.87-.8,3.5,3.5,0,0,0,.61-1.09,4.26,4.26,0,0,0,.23-1.46,2.63,2.63,0,0,0-.19-1,1.69,1.69,0,0,0-.63-.78,2.89,2.89,0,0,0-1-.47,7.06,7.06,0,0,0-1.55-.14c-.7,0-1.36,0-2,0l-1.38,6.36Z"/><path d="M112.33,48.22a6.31,6.31,0,0,1-3-.65,4.37,4.37,0,0,1-1.9-2.16,9.5,9.5,0,0,1-.68-3.95,27.39,27.39,0,0,1,.45-4.74,31.45,31.45,0,0,1,1.21-4.82,22.92,22.92,0,0,1,1.85-4.12,14.52,14.52,0,0,1,2.37-3.12,9.6,9.6,0,0,1,2.76-1.93,7.32,7.32,0,0,1,3-.66,6.26,6.26,0,0,1,2.6.48,4.52,4.52,0,0,1,1.71,1.36,5.61,5.61,0,0,1,1,2.08,11.51,11.51,0,0,1,.29,2.65,29.55,29.55,0,0,1-1.19,8.15,23.56,23.56,0,0,1-3,6.85,11,11,0,0,1-3.62,3.53A7.58,7.58,0,0,1,112.33,48.22ZM110,42.64a8.25,8.25,0,0,0,.26,2.37,2.31,2.31,0,0,0,.79,1.24,2.59,2.59,0,0,0,1.49.38,3.83,3.83,0,0,0,2.71-1.33,13.2,13.2,0,0,0,2.47-4,38.73,38.73,0,0,0,2.11-6.76,32.52,32.52,0,0,0,1-7.11,5.45,5.45,0,0,0-.59-2.89,2,2,0,0,0-1.87-.91,3.3,3.3,0,0,0-1.59.41,5.89,5.89,0,0,0-1.85,1.67,15.73,15.73,0,0,0-2,3.7,37.29,37.29,0,0,0-1.51,4.67c-.32,1.27-.59,2.52-.81,3.74A25.41,25.41,0,0,0,110,42.64Z"/><path d="M50.47,42.56c-.08.34-.14.64-.18.88a7.43,7.43,0,0,0-.12.89,8.13,8.13,0,0,0-.06.92,1.64,1.64,0,0,0,.18.84,1,1,0,0,0,.51.44,4.41,4.41,0,0,0,1.18.2l-.19.85h-7l.19-.85a2.37,2.37,0,0,0,1-.33,1.87,1.87,0,0,0,.55-.65,5.42,5.42,0,0,0,.41-1c.13-.4.32-1.17.57-2.3l2.91-13.3a13.72,13.72,0,0,0,.38-2.73,1.47,1.47,0,0,0-.39-1.17,2.3,2.3,0,0,0-1.29-.38l.19-.85H64.7l-1.18,5.31H61.87a16.63,16.63,0,0,0-.19-1.93,3.66,3.66,0,0,0-.3-1,1.36,1.36,0,0,0-.4-.51,1.44,1.44,0,0,0-.56-.24,5.51,5.51,0,0,0-1-.07H54.19l-2,9.4h3.21a3.23,3.23,0,0,0,1.25-.21,2.45,2.45,0,0,0,.93-.75,10.9,10.9,0,0,0,1.06-1.86h1.56L58.5,39.4H57c0-.72,0-1.28-.05-1.68a1.71,1.71,0,0,0-.2-.84.84.84,0,0,0-.46-.34,4.43,4.43,0,0,0-1.09-.09H51.83Z"/><path d="M63,42.35a9.38,9.38,0,0,0-.23-1.28,1.15,1.15,0,0,0-.36-.55,1.45,1.45,0,0,0-.79-.23l.14-.59h3.12l.93,9.67q4.11-5.62,4.11-8a1,1,0,0,0-.25-.78,1.42,1.42,0,0,0-.82-.25L69,39.7h3.14l.32.61a26.46,26.46,0,0,1-1.64,3.5q-1,1.81-2.46,4t-3.23,4.47A26.68,26.68,0,0,1,62.84,55a7,7,0,0,1-1.32,1,4.62,4.62,0,0,1-1.16.51,4.29,4.29,0,0,1-1.2.16,5.24,5.24,0,0,1-.74-.07,3.06,3.06,0,0,1-.71-.18l.52-2.27h1a1.2,1.2,0,0,0,.2.66.63.63,0,0,0,.53.24,2.56,2.56,0,0,0,.67-.08,2.48,2.48,0,0,0,.59-.26,4.81,4.81,0,0,0,.76-.59,10.75,10.75,0,0,0,1-1.06c.37-.44.79-1,1.25-1.6Z"/><path d="M10.12,8.5l11.43,23v2.37L8.73,57.23H24.17a7.19,7.19,0,0,0,2.2-.25,3.34,3.34,0,0,0,1.27-.76,4.94,4.94,0,0,0,1-1.43,13.72,13.72,0,0,0,.83-2.54A39.11,39.11,0,0,0,30.18,48h2.75l-.68,15.2H2.49V61.47L17,35,3.38,7V5.26h29V19.12H29.83c-.39-2-.76-3.58-1.12-4.83a17.53,17.53,0,0,0-1.07-3,6.7,6.7,0,0,0-1.13-1.66,3.82,3.82,0,0,0-1.33-.88,5.7,5.7,0,0,0-2-.29Z"/><path d="M94.82,33.64H78.11v-2.9H94.82Zm0,7.68H78.11v-2.9H94.82Z"/><path d="M209.63,39.41l.65-3.13h9.53l-.64,3.13Z"/><path d="M347.09,43.87q-5.44,0-5.45-6.89a23.93,23.93,0,0,1,3.18-11.7q3.18-5.76,8.07-5.76,5.13,0,5.13,6.75a24.78,24.78,0,0,1-3.11,11.79Q351.8,43.86,347.09,43.87ZM345.36,32a29.26,29.26,0,0,0-.9,6.48q0,3.94,3,3.94c1.4,0,2.68-.91,3.84-2.75a25.39,25.39,0,0,0,2.9-7.67Zm.42-1.61h8.72a33.72,33.72,0,0,0,.67-5.57c0-2.59-.88-3.88-2.62-3.88q-2,0-3.75,2.46A22.61,22.61,0,0,0,345.78,30.4Z"/><path d="M282.57,39.63l-.86,4h-3.23l.87-4Z"/><path d="M305.46,31.36a7.58,7.58,0,0,0-.21-1.88,1.58,1.58,0,0,0-.58-.87,1.82,1.82,0,0,0-1.12-.29,4.25,4.25,0,0,0-3.08,1.37,10.07,10.07,0,0,0-2.24,3.9,15.09,15.09,0,0,0-.86,4.84,6.44,6.44,0,0,0,.13,1.35,2.86,2.86,0,0,0,.44,1.1,2.07,2.07,0,0,0,.83.72,2.8,2.8,0,0,0,1.31.27,5.79,5.79,0,0,0,2.68-.59,10.08,10.08,0,0,0,2.38-1.85l1,1a11.54,11.54,0,0,1-3.22,2.6,7.69,7.69,0,0,1-3.49.82,4.67,4.67,0,0,1-3.73-1.47,6.36,6.36,0,0,1-1.27-4.28,13.37,13.37,0,0,1,.68-4,11.8,11.8,0,0,1,2-3.85,8.5,8.5,0,0,1,3.06-2.48,8.76,8.76,0,0,1,3.73-.82,15.05,15.05,0,0,1,2.37.16,16.11,16.11,0,0,1,1.79.36l-.83,3.86Z"/><path d="M315,43.89a5.45,5.45,0,0,1-4.08-1.49,5.86,5.86,0,0,1-1.45-4.27,13.52,13.52,0,0,1,.26-2.41,14.59,14.59,0,0,1,.91-3.18,10.22,10.22,0,0,1,2-3,8.24,8.24,0,0,1,2.75-1.92,8.46,8.46,0,0,1,3.33-.66,6.14,6.14,0,0,1,3.2.76,4.36,4.36,0,0,1,1.81,2,7.47,7.47,0,0,1,.56,3,13.74,13.74,0,0,1-.42,3.25A13.55,13.55,0,0,1,322,40.3,7.87,7.87,0,0,1,319.09,43,8.83,8.83,0,0,1,315,43.89Zm-2.56-5a4.23,4.23,0,0,0,.77,2.78,2.92,2.92,0,0,0,2.34.9,3.84,3.84,0,0,0,3-1.51,10.67,10.67,0,0,0,2-4.21,18.16,18.16,0,0,0,.75-4.76,4.57,4.57,0,0,0-.71-2.78,2.63,2.63,0,0,0-2.22-.93,4,4,0,0,0-3.08,1.49,10.61,10.61,0,0,0-2.08,4.25A18.73,18.73,0,0,0,312.42,38.86Z"/><path d="M336.86,31.24A3.75,3.75,0,0,0,336,29a2.9,2.9,0,0,0-2.13-.69,3.37,3.37,0,0,0-1.44.3A2.33,2.33,0,0,0,331,30.83a2.55,2.55,0,0,0,.25,1.15,4,4,0,0,0,.86,1.09,14.11,14.11,0,0,0,1.69,1.3,8.13,8.13,0,0,1,2.31,2.15,4.42,4.42,0,0,1,.66,2.41,4.74,4.74,0,0,1-.77,2.73,4.57,4.57,0,0,1-2.08,1.66,7.7,7.7,0,0,1-3,.55,17.44,17.44,0,0,1-2.79-.22,24.39,24.39,0,0,1-2.52-.57l.8-3.69h1.32a3.64,3.64,0,0,0,.89,2.35,3,3,0,0,0,2.25.78,3.4,3.4,0,0,0,2.36-.76,2.6,2.6,0,0,0,.85-2,3.27,3.27,0,0,0-.26-1.32,3.61,3.61,0,0,0-.8-1.11,12,12,0,0,0-1.54-1.21,13.37,13.37,0,0,1-1.73-1.38,5.19,5.19,0,0,1-1-1.43,4,4,0,0,1-.36-1.72,4.38,4.38,0,0,1,.69-2.46,4.5,4.5,0,0,1,2-1.59,7.68,7.68,0,0,1,3-.55,15.12,15.12,0,0,1,4.93.74l-.78,3.52Z"/><path d="M468.16,45.28H462l2.49-10c.15-.64.31-1.35.46-2.13a11,11,0,0,0,.22-2.09,3.3,3.3,0,0,0-.48-2,1.8,1.8,0,0,0-1.49-.61,3.26,3.26,0,0,0-1.77.64,9.69,9.69,0,0,0-2,1.91,16.39,16.39,0,0,0-1.75,2.59,11.37,11.37,0,0,0-1.11,3.18l-1.78,8.53h-3.38l3-13.46c.07-.3.15-.75.26-1.34a7.52,7.52,0,0,0,.17-1.48,1.69,1.69,0,0,0-.17-.85,1,1,0,0,0-.56-.46,5.38,5.38,0,0,0-1.36-.2l.23-1,4.44-.18h1.12l-1.31,5.13.23.08a17.24,17.24,0,0,1,3.7-4,6,6,0,0,1,3.56-1.31,3.74,3.74,0,0,1,2.88,1.05,4.44,4.44,0,0,1,1,3.12,9.72,9.72,0,0,1-.13,1.55c-.08.56-.18,1.06-.28,1.49l-1.65,7a10.45,10.45,0,0,0-.33,2.24,1.86,1.86,0,0,0,.2.93,1.27,1.27,0,0,0,.6.51,5.23,5.23,0,0,0,1.35.28Z"/><path d="M479.75,41.62a4,4,0,0,1,1.75,1.29,3.19,3.19,0,0,1,.61,1.9,5.38,5.38,0,0,1-.46,2.25,4.52,4.52,0,0,1-1.45,1.74,5.92,5.92,0,0,1-2.27,1.05,13.49,13.49,0,0,1-3.16.31h-5.43l.13-.6a1.73,1.73,0,0,0,.7-.24,1.38,1.38,0,0,0,.39-.46,4.51,4.51,0,0,0,.29-.71c.09-.28.22-.82.4-1.63l2.08-9.4a9.49,9.49,0,0,0,.27-1.93,1.06,1.06,0,0,0-.28-.83,1.7,1.7,0,0,0-.92-.27l.14-.59h6a9,9,0,0,1,2.93.38A3.19,3.19,0,0,1,483.14,35a3.25,3.25,0,0,1,.52,1.87,4.3,4.3,0,0,1-1,2.79,6.1,6.1,0,0,1-2.91,1.82ZM472.89,49c.63,0,1.23,0,1.78,0a7,7,0,0,0,2.85-.46,3.64,3.64,0,0,0,1.63-1.51,4.81,4.81,0,0,0,.62-2.52,2.63,2.63,0,0,0-.31-1.34,2.1,2.1,0,0,0-1-.88,4.3,4.3,0,0,0-1.86-.33H474.4ZM476.38,41a9.25,9.25,0,0,0,2-.18,3.44,3.44,0,0,0,1.27-.51,4.7,4.7,0,0,0,.87-.8,3.34,3.34,0,0,0,.61-1.08,4.26,4.26,0,0,0,.23-1.46,2.53,2.53,0,0,0-.19-1,1.84,1.84,0,0,0-.62-.78,2.93,2.93,0,0,0-1-.46,7,7,0,0,0-1.54-.14c-.71,0-1.37,0-2,0L474.66,41Z"/><path d="M532.16,42a58.49,58.49,0,0,0,4.65-7.64,12.91,12.91,0,0,0,1.59-5.31A1.62,1.62,0,0,0,538,27.8a2.3,2.3,0,0,0-1.33-.39l.2-1h5l.52,1c-.45,1.17-.82,2.07-1.09,2.7s-.63,1.39-1.08,2.27-.91,1.77-1.41,2.65-1.08,1.85-1.75,2.91-1.42,2.21-2.26,3.45-1.82,2.64-3,4.19h-2.33l-.8-8.24c-.07-.64-.14-1.49-.21-2.52s-.12-1.84-.15-2.41l-.21,0a49.44,49.44,0,0,1-2.88,5.84q-1.82,3.21-4.5,7.35h-2.62l-1.49-14.84a13.43,13.43,0,0,0-.29-1.85,2,2,0,0,0-.59-1.07,2.31,2.31,0,0,0-1.35-.43l.22-1h5.12L521,42c1.84-3,3.16-5.32,4-6.9A30.92,30.92,0,0,0,526.8,31a23,23,0,0,0,.9-3.59l.22-1h2.81Z"/><path d="M548.39,41.62a4,4,0,0,1,1.75,1.29,3.19,3.19,0,0,1,.61,1.9,5.38,5.38,0,0,1-.46,2.25,4.52,4.52,0,0,1-1.45,1.74,5.92,5.92,0,0,1-2.27,1.05,13.49,13.49,0,0,1-3.16.31H538l.13-.6a1.73,1.73,0,0,0,.7-.24,1.38,1.38,0,0,0,.39-.46,4.51,4.51,0,0,0,.29-.71c.09-.28.22-.82.4-1.63l2.08-9.4a9.49,9.49,0,0,0,.27-1.93,1.06,1.06,0,0,0-.28-.83,1.7,1.7,0,0,0-.92-.27l.14-.59h6a9,9,0,0,1,2.93.38A3.19,3.19,0,0,1,551.78,35a3.25,3.25,0,0,1,.52,1.87,4.3,4.3,0,0,1-1,2.79,6.1,6.1,0,0,1-2.91,1.82ZM541.53,49c.63,0,1.23,0,1.78,0a7,7,0,0,0,2.85-.46,3.64,3.64,0,0,0,1.63-1.51,4.81,4.81,0,0,0,.62-2.52,2.63,2.63,0,0,0-.31-1.34,2.1,2.1,0,0,0-1-.88,4.3,4.3,0,0,0-1.86-.33H543ZM545,41a9.41,9.41,0,0,0,2.05-.18,3.46,3.46,0,0,0,1.26-.51,4.4,4.4,0,0,0,.87-.8,3.34,3.34,0,0,0,.61-1.08,4.26,4.26,0,0,0,.23-1.46,2.72,2.72,0,0,0-.18-1,2,2,0,0,0-.63-.78,2.93,2.93,0,0,0-1-.46,7,7,0,0,0-1.54-.14c-.71,0-1.37,0-2,0L543.3,41Z"/><path d="M630.77,42.15q-5.44,0-5.45-6.89a24,24,0,0,1,3.18-11.71c2.13-3.84,4.81-5.76,8.07-5.76q5.13,0,5.13,6.75a24.82,24.82,0,0,1-3.11,11.8Q635.48,42.15,630.77,42.15ZM629,30.29a29.26,29.26,0,0,0-.9,6.47q0,3.95,3,4c1.4,0,2.69-.92,3.84-2.75a25.5,25.5,0,0,0,2.9-7.67Zm.42-1.61h8.72a32.76,32.76,0,0,0,.67-5.57c0-2.59-.88-3.88-2.62-3.88q-2,0-3.75,2.46A22.61,22.61,0,0,0,629.46,28.68Z"/><path d="M566.26,37.91l-.87,4h-3.22l.86-4Z"/><path d="M589.15,29.64a7.9,7.9,0,0,0-.22-1.88,1.7,1.7,0,0,0-.57-.88,2,2,0,0,0-1.13-.29A4.24,4.24,0,0,0,584.15,28a10.07,10.07,0,0,0-2.23,3.9,14.8,14.8,0,0,0-.87,4.84,6.44,6.44,0,0,0,.13,1.35,2.92,2.92,0,0,0,.44,1.1,2.23,2.23,0,0,0,.83.72,2.87,2.87,0,0,0,1.32.27,5.72,5.72,0,0,0,2.67-.59,10,10,0,0,0,2.38-1.86l1,1a11.31,11.31,0,0,1-3.22,2.59,7.56,7.56,0,0,1-3.48.82,4.67,4.67,0,0,1-3.74-1.47,6.33,6.33,0,0,1-1.27-4.27,13.64,13.64,0,0,1,.68-4,11.7,11.7,0,0,1,2-3.85,8.4,8.4,0,0,1,3.06-2.48,8.61,8.61,0,0,1,3.73-.82,14.88,14.88,0,0,1,2.37.16c.67.1,1.27.22,1.79.35l-.83,3.87Z"/><path d="M598.67,42.16a5.46,5.46,0,0,1-4.09-1.48,5.91,5.91,0,0,1-1.45-4.28,13.71,13.71,0,0,1,.26-2.41,14.66,14.66,0,0,1,.91-3.17,10.47,10.47,0,0,1,2-3A8.36,8.36,0,0,1,599,25.92a8.47,8.47,0,0,1,3.34-.66,6.16,6.16,0,0,1,3.2.75,4.41,4.41,0,0,1,1.8,2,7.3,7.3,0,0,1,.56,3,13.73,13.73,0,0,1-.42,3.24,13.35,13.35,0,0,1-1.78,4.29,7.84,7.84,0,0,1-2.94,2.68A8.79,8.79,0,0,1,598.67,42.16Zm-2.57-5a4.23,4.23,0,0,0,.77,2.78,3,3,0,0,0,2.34.89,3.81,3.81,0,0,0,2.95-1.5,10.88,10.88,0,0,0,2-4.21,18.59,18.59,0,0,0,.74-4.76,4.51,4.51,0,0,0-.71-2.78,2.62,2.62,0,0,0-2.22-.93,4,4,0,0,0-3.08,1.48,10.59,10.59,0,0,0-2.07,4.26A18.36,18.36,0,0,0,596.1,37.14Z"/><path d="M620.54,29.52a3.75,3.75,0,0,0-.88-2.23,2.83,2.83,0,0,0-2.13-.7,3.37,3.37,0,0,0-1.44.3,2.36,2.36,0,0,0-1,.88,2.45,2.45,0,0,0-.37,1.34,2.73,2.73,0,0,0,.25,1.15,4,4,0,0,0,.86,1.09,14,14,0,0,0,1.69,1.29,8,8,0,0,1,2.31,2.16,4.4,4.4,0,0,1,.66,2.41,4.68,4.68,0,0,1-.76,2.72,4.55,4.55,0,0,1-2.09,1.67,7.85,7.85,0,0,1-3,.55,16.41,16.41,0,0,1-2.79-.23,23,23,0,0,1-2.52-.56l.8-3.69h1.32a3.64,3.64,0,0,0,.89,2.35,3,3,0,0,0,2.25.78,3.45,3.45,0,0,0,2.36-.76,2.56,2.56,0,0,0,.85-2,3.27,3.27,0,0,0-.26-1.32,3.5,3.5,0,0,0-.79-1.11,12,12,0,0,0-1.55-1.21A12.56,12.56,0,0,1,613.46,33a5.14,5.14,0,0,1-1-1.42,4,4,0,0,1-.36-1.72,4.21,4.21,0,0,1,2.67-4.05,7.51,7.51,0,0,1,3-.55,15.12,15.12,0,0,1,4.93.74l-.77,3.52Z"/></svg>