<svg id="Capa_1" data-name="Capa 1" xmlns="http://www.w3.org/2000/svg" viewBox="0 0 1138.97 108.77"><path d="M235.23,44.12q-5.44,0-5.44-6.89A24,24,0,0,1,233,25.52q3.18-5.76,8.07-5.76,5.11,0,5.12,6.75a24.81,24.81,0,0,1-3.1,11.8Q240,44.11,235.23,44.12ZM233.5,32.26a29.26,29.26,0,0,0-.9,6.47c0,2.64,1,4,3,4q2.1,0,3.84-2.75a25.41,25.41,0,0,0,2.89-7.67Zm.43-1.61h8.72a33.48,33.48,0,0,0,.66-5.57q0-3.88-2.61-3.88-2,0-3.75,2.46A22.14,22.14,0,0,0,233.93,30.65Z"/><path d="M250.38,86.9q-5.46,0-5.45-6.88a24,24,0,0,1,3.18-11.71q3.18-5.76,8.07-5.76,5.11,0,5.12,6.75a24.74,24.74,0,0,1-3.1,11.79Q255.1,86.91,250.38,86.9ZM248.64,75a29.41,29.41,0,0,0-.9,6.48q0,3.95,3,4,2.1,0,3.84-2.75A25.59,25.59,0,0,0,257.43,75Zm.43-1.6h8.72a33.71,33.71,0,0,0,.66-5.57q0-3.89-2.61-3.88-2,0-3.75,2.46A22.37,22.37,0,0,0,249.07,73.44Z"/><path d="M943,48.63H924.09V45.34H943Zm0,8.69H924.09V54H943Z"/><path d="M494.66,26.42v.25a5.11,5.11,0,0,1,3.11,5,9.67,9.67,0,0,1-.2,1.78,9,9,0,0,1-.85,2.58,7.71,7.71,0,0,1-1.94,2.42A9,9,0,0,1,491.83,40a11.91,11.91,0,0,1-3.84.58,10.14,10.14,0,0,1-4-.72,5.74,5.74,0,0,1-2.6-2.08,5.66,5.66,0,0,1-.9-3.2,9.14,9.14,0,0,1,.57-3.13A7.43,7.43,0,0,1,483,28.62a10.84,10.84,0,0,1,3.36-2.1l0-.26a6.25,6.25,0,0,1-2-2.22,6,6,0,0,1-.63-2.76,9,9,0,0,1,.15-1.58,7.25,7.25,0,0,1,.76-2.23,7.14,7.14,0,0,1,1.83-2.15,9,9,0,0,1,2.83-1.48,11.61,11.61,0,0,1,3.6-.55,10.26,10.26,0,0,1,4.23.76,5.14,5.14,0,0,1,2.4,2,5.46,5.46,0,0,1,.74,2.83,8,8,0,0,1-.6,3,7.52,7.52,0,0,1-1.91,2.66A9,9,0,0,1,494.66,26.42ZM484,34.93a3.92,3.92,0,0,0,1.05,3,4.34,4.34,0,0,0,3.12,1,5.28,5.28,0,0,0,4.64-2.46,9,9,0,0,0,1.08-2.58,11.77,11.77,0,0,0,.37-2.79,3.92,3.92,0,0,0-1-2.87,4,4,0,0,0-2.92-1,5.87,5.87,0,0,0-2.82.66,5.62,5.62,0,0,0-2,1.79,8.46,8.46,0,0,0-1.18,2.54A10.1,10.1,0,0,0,484,34.93Zm3-13a5.45,5.45,0,0,0,.17,1.41,2.86,2.86,0,0,0,.6,1.19,2.94,2.94,0,0,0,1.16.82,4.81,4.81,0,0,0,1.89.31,5.43,5.43,0,0,0,3-.84,6.1,6.1,0,0,0,2.1-2.5,8.12,8.12,0,0,0,.81-3.6,3.76,3.76,0,0,0-1-2.82A4,4,0,0,0,493,15a5.31,5.31,0,0,0-5.27,3.6A9.41,9.41,0,0,0,487.06,21.91Z"/><path d="M508.3,40.58a6.44,6.44,0,0,1-3.09-.69,4.59,4.59,0,0,1-2-2.24,10.15,10.15,0,0,1-.7-4.12,28.76,28.76,0,0,1,.46-5,33.92,33.92,0,0,1,1.27-5,23.9,23.9,0,0,1,1.93-4.3A15.18,15.18,0,0,1,508.66,16a9.85,9.85,0,0,1,2.87-2,7.53,7.53,0,0,1,3.17-.7,6.38,6.38,0,0,1,2.7.51,4.66,4.66,0,0,1,1.79,1.42,5.79,5.79,0,0,1,1,2.16,12,12,0,0,1,.3,2.77,31,31,0,0,1-1.23,8.5,24.68,24.68,0,0,1-3.13,7.14,11.4,11.4,0,0,1-3.78,3.69A7.88,7.88,0,0,1,508.3,40.58Zm-2.43-5.82a8.88,8.88,0,0,0,.27,2.47,2.36,2.36,0,0,0,.84,1.29,2.67,2.67,0,0,0,1.55.4,4,4,0,0,0,2.82-1.39,13.82,13.82,0,0,0,2.58-4.14,40.39,40.39,0,0,0,2.2-7,33.75,33.75,0,0,0,1-7.42,5.71,5.71,0,0,0-.61-3,2.16,2.16,0,0,0-2-1,3.64,3.64,0,0,0-1.67.43A6.12,6.12,0,0,0,511,17.12,16.78,16.78,0,0,0,508.84,21a39.83,39.83,0,0,0-1.57,4.86c-.34,1.33-.62,2.63-.85,3.91A26.06,26.06,0,0,0,505.87,34.76Z"/><path d="M546.54,22.34l-1.38,2.11-4.09-3.52L540.31,27h-2.69l1.86-6.11-5.12,3.59-1.15-2.26,5.94-2.58-4.67-2.62,1.43-2.15L540,18.43l.74-6.11h2.69l-1.84,6.11,5.06-3.57,1.17,2.26-5.92,2.56Z"/><path d="M567.89,26.14a4.18,4.18,0,0,0-1-2.54,3.28,3.28,0,0,0-2.43-.8,3.84,3.84,0,0,0-1.65.35,2.67,2.67,0,0,0-1.16,1,2.72,2.72,0,0,0-.43,1.54,3,3,0,0,0,.29,1.31,4.31,4.31,0,0,0,1,1.24,15.9,15.9,0,0,0,1.93,1.49,9.37,9.37,0,0,1,2.64,2.46,5,5,0,0,1,.75,2.75,5.4,5.4,0,0,1-.87,3.12,5.19,5.19,0,0,1-2.39,1.9,8.75,8.75,0,0,1-3.41.63,18.82,18.82,0,0,1-3.19-.26,26.24,26.24,0,0,1-2.88-.64l.91-4.22h1.52a4.2,4.2,0,0,0,1,2.69,3.49,3.49,0,0,0,2.57.89,3.91,3.91,0,0,0,2.7-.87,2.93,2.93,0,0,0,1-2.3,3.75,3.75,0,0,0-.29-1.5,4.1,4.1,0,0,0-.91-1.27,13.53,13.53,0,0,0-1.77-1.39,16.07,16.07,0,0,1-2-1.58,5.84,5.84,0,0,1-1.17-1.63,4.53,4.53,0,0,1-.42-2,4.78,4.78,0,0,1,3.06-4.63,8.56,8.56,0,0,1,3.42-.63,17.34,17.34,0,0,1,5.64.84l-.89,4Z"/><path d="M586,36.38a16.5,16.5,0,0,1-2.75,2.5,9.28,9.28,0,0,1-2.64,1.31,10.24,10.24,0,0,1-2.91.39,6.36,6.36,0,0,1-2.63-.5,5.08,5.08,0,0,1-1.84-1.37,5.66,5.66,0,0,1-1.07-2.07,9,9,0,0,1-.35-2.6,15.36,15.36,0,0,1,.74-4.49,13.17,13.17,0,0,1,2.26-4.29,10.51,10.51,0,0,1,3.63-3,10,10,0,0,1,4.5-1,5.49,5.49,0,0,1,3.52,1,3.64,3.64,0,0,1,1.17,3,5.35,5.35,0,0,1-3.09,5c-2.06,1.1-5.13,1.66-9.19,1.66a13.47,13.47,0,0,0-.23,2.54,4.56,4.56,0,0,0,.8,3,3.27,3.27,0,0,0,2.6.92,6.68,6.68,0,0,0,3.23-.78,12.85,12.85,0,0,0,3.05-2.4Zm-10.32-6.19a25.48,25.48,0,0,0,3.14-.21,12.1,12.1,0,0,0,2.31-.51,5.89,5.89,0,0,0,1.61-.77,4,4,0,0,0,1-1,3.47,3.47,0,0,0,.53-1.14,5.54,5.54,0,0,0,.14-1.24,2.84,2.84,0,0,0-.55-1.86,2,2,0,0,0-1.64-.68,4.4,4.4,0,0,0-2.67,1,9.21,9.21,0,0,0-2.31,2.66A15.59,15.59,0,0,0,575.72,30.19Z"/><path d="M606.7,40.27h-6.11l2.46-9.93c.15-.63.31-1.34.46-2.11a11.6,11.6,0,0,0,.22-2.07,3.25,3.25,0,0,0-.48-2,1.76,1.76,0,0,0-1.48-.6,3.23,3.23,0,0,0-1.76.63,9.53,9.53,0,0,0-2,1.9,16.48,16.48,0,0,0-1.74,2.55,11.68,11.68,0,0,0-1.1,3.16l-1.76,8.46H590.1L593,26.93c.07-.3.16-.75.26-1.33a8.38,8.38,0,0,0,.17-1.47,1.83,1.83,0,0,0-.17-.85,1,1,0,0,0-.56-.45,5.68,5.68,0,0,0-1.35-.2l.24-1,4.4-.17h1.1l-1.29,5.08.23.07a17.51,17.51,0,0,1,3.66-4,5.93,5.93,0,0,1,3.53-1.3,3.67,3.67,0,0,1,2.85,1,4.35,4.35,0,0,1,1,3.09A10.68,10.68,0,0,1,607,27c-.09.56-.18,1.05-.28,1.48l-1.63,7a10.38,10.38,0,0,0-.33,2.23,1.83,1.83,0,0,0,.19.92,1.27,1.27,0,0,0,.6.51,5.58,5.58,0,0,0,1.34.27Z"/><path d="M619.69,48.76a8.8,8.8,0,0,1-4.46-1,5.77,5.77,0,0,1-2.47-2.9,12.73,12.73,0,0,1-.77-4.78,32.65,32.65,0,0,1,.35-4.49q.46-3.16,1.35-7c.59-2.59,1.16-4.74,1.73-6.45a23.55,23.55,0,0,1,2.13-4.75,11.15,11.15,0,0,1,2.51-2.92,9.34,9.34,0,0,1,3.08-1.61,15.65,15.65,0,0,1,4.56-.58l-.35,1.6a8.52,8.52,0,0,0-2.81.39,5.83,5.83,0,0,0-2,1.17,9.88,9.88,0,0,0-1.92,2.52A28.69,28.69,0,0,0,618.58,23c-.57,1.8-1.13,4-1.7,6.58-.47,2.12-.84,4-1.13,5.73a37.44,37.44,0,0,0-.58,5.89,9.44,9.44,0,0,0,.55,3.6,3.52,3.52,0,0,0,1.59,1.84,5.91,5.91,0,0,0,2.73.54Z"/><path d="M632.55,25.25a11.11,11.11,0,0,1,3.85-.65,7.26,7.26,0,0,1,3.4.76A5.18,5.18,0,0,1,642,27.54a7,7,0,0,1,.76,3.29,11.38,11.38,0,0,1-1.16,5,7.7,7.7,0,0,1-3.39,3.6,11.68,11.68,0,0,1-5.46,1.18,19.52,19.52,0,0,1-3.58-.37,17.22,17.22,0,0,1-3.42-1l.89-4.14h2.23q.12,3.87,4,3.87a5.42,5.42,0,0,0,3.47-1.1,6.56,6.56,0,0,0,2.07-3,10.65,10.65,0,0,0,.7-3.77,4.78,4.78,0,0,0-1.05-3.34,3.88,3.88,0,0,0-3-1.16,14.37,14.37,0,0,0-1.69.1,12.73,12.73,0,0,0-1.82.41l-1.65-1.25,2.7-12.24h9.67a3.13,3.13,0,0,0,1-.11,1.23,1.23,0,0,0,.52-.36,3.31,3.31,0,0,0,.44-.82h1.57l-1.24,4.53H634.39Z"/><path d="M650.52,18.76l.8-3.75a23.76,23.76,0,0,1,4-1.32,18.14,18.14,0,0,1,3.8-.4,9.26,9.26,0,0,1,2.39.3,5.91,5.91,0,0,1,2,.89A4.37,4.37,0,0,1,664.8,16a4.79,4.79,0,0,1,.5,2.25,7,7,0,0,1-.7,3.2,7.35,7.35,0,0,1-2.26,2.56,17.85,17.85,0,0,1-4.25,2.23l0,.22a6.67,6.67,0,0,1,3.68,2.05A5.38,5.38,0,0,1,663,32.18a8.18,8.18,0,0,1-.7,3.26,7.65,7.65,0,0,1-2,2.79A8.35,8.35,0,0,1,657.25,40a14,14,0,0,1-4.32.6,20.35,20.35,0,0,1-3.82-.4,15.82,15.82,0,0,1-3.34-1l.89-4.14h2.23A4,4,0,0,0,650.08,38a4.56,4.56,0,0,0,3.12.94,6.19,6.19,0,0,0,3.32-.86,5.68,5.68,0,0,0,2.14-2.52,8.88,8.88,0,0,0,.76-3.75,3.81,3.81,0,0,0-1.34-3.17A6.53,6.53,0,0,0,654,27.57h-1.94l.37-1.72a13.74,13.74,0,0,0,4.15-.86,8.82,8.82,0,0,0,2.93-1.78,6.38,6.38,0,0,0,1.6-2.28,6.57,6.57,0,0,0,.47-2.44,3.25,3.25,0,0,0-1-2.5,3.61,3.61,0,0,0-2.59-.9A4.92,4.92,0,0,0,655,16a7.21,7.21,0,0,0-2,2.75Z"/><path d="M671.41,35.73a12.6,12.6,0,0,1-.14,1.68,12.27,12.27,0,0,1-.41,1.88,9.77,9.77,0,0,1-.65,1.58,9.29,9.29,0,0,1-1,1.41,13.77,13.77,0,0,1-1.58,1.57,23.28,23.28,0,0,1-2.56,1.86l-.9-1.21a18,18,0,0,0,1.45-1.32,6.42,6.42,0,0,0,.84-1.12,7.06,7.06,0,0,0,.59-1.32,19.52,19.52,0,0,0,.58-2.15,27,27,0,0,0,.46-2.86Z"/><path d="M686.11,34.62a11.83,11.83,0,0,0-.35,2.29,1.49,1.49,0,0,0,.41,1.16,2.76,2.76,0,0,0,1.34.55,22.8,22.8,0,0,0,2.92.22l-.29,1.43H676.45l.29-1.43a21.73,21.73,0,0,0,2.5-.22,5.58,5.58,0,0,0,1.41-.37,2.62,2.62,0,0,0,.86-.56,2.93,2.93,0,0,0,.58-.88,8.5,8.5,0,0,0,.49-1.64L685.68,21c.12-.55.2-1,.26-1.31a4.62,4.62,0,0,0,.09-.8,1,1,0,0,0-.29-.83,1.07,1.07,0,0,0-.7-.25,4.08,4.08,0,0,0-1.53.5q-1,.49-3.06,1.71l-.76-1.56,9.83-5.18h1.34l-.56,2.29q-.31,1.24-.66,2.91Z"/><path d="M700.4,18.76l.8-3.75a23.47,23.47,0,0,1,4-1.32,18.14,18.14,0,0,1,3.8-.4,9.26,9.26,0,0,1,2.39.3,5.91,5.91,0,0,1,2,.89A4.37,4.37,0,0,1,714.68,16a4.79,4.79,0,0,1,.5,2.25,7,7,0,0,1-.7,3.2,7.35,7.35,0,0,1-2.26,2.56A17.74,17.74,0,0,1,708,26.28v.22a6.67,6.67,0,0,1,3.68,2.05,5.38,5.38,0,0,1,1.28,3.63,8.18,8.18,0,0,1-.7,3.26,7.65,7.65,0,0,1-2,2.79A8.35,8.35,0,0,1,707.13,40a14,14,0,0,1-4.32.6,20.35,20.35,0,0,1-3.82-.4,15.82,15.82,0,0,1-3.34-1l.89-4.14h2.23A4,4,0,0,0,700,38a4.61,4.61,0,0,0,3.13.94,6.13,6.13,0,0,0,3.31-.86,5.64,5.64,0,0,0,2.15-2.52,8.88,8.88,0,0,0,.76-3.75A3.78,3.78,0,0,0,708,28.62a6.48,6.48,0,0,0-4-1.05H702l.37-1.72a13.8,13.8,0,0,0,4.15-.86,8.82,8.82,0,0,0,2.93-1.78,6.38,6.38,0,0,0,1.6-2.28,6.57,6.57,0,0,0,.47-2.44,3.25,3.25,0,0,0-1-2.5,3.61,3.61,0,0,0-2.59-.9,4.92,4.92,0,0,0-3.07.92,7.11,7.11,0,0,0-2,2.75Z"/><path d="M721.19,12.24a8.82,8.82,0,0,1,4.46,1,5.77,5.77,0,0,1,2.47,2.9,12.93,12.93,0,0,1,.77,4.78,31.07,31.07,0,0,1-.35,4.39q-.46,3.4-1.43,7.56c-.61,2.57-1.19,4.66-1.75,6.29a22.29,22.29,0,0,1-2.07,4.56,10.64,10.64,0,0,1-2.48,2.88,9.07,9.07,0,0,1-3.09,1.59,15.56,15.56,0,0,1-4.54.58l.35-1.6a8.46,8.46,0,0,0,2.8-.39,6,6,0,0,0,1.95-1.15,9.72,9.72,0,0,0,2-2.6,27.56,27.56,0,0,0,2-5.05c.65-2,1.25-4.42,1.82-7.12q.68-3.12,1.07-5.55a37.37,37.37,0,0,0,.52-5.48,9.53,9.53,0,0,0-.56-3.62,3.52,3.52,0,0,0-1.6-1.83,6.05,6.05,0,0,0-2.71-.53Z"/><path d="M750.22,31.5h-8.47l.64-3h8.47Z"/><path d="M769.05,39.31a3.18,3.18,0,0,0,1.12-.31,2.22,2.22,0,0,0,.63-.63,5,5,0,0,0,.52-1.2c.17-.53.38-1.36.62-2.49l.54-2.5H762.17l.36-1.84,14.12-16.87h3.22l-3.68,16.82h.66a4.83,4.83,0,0,0,1.49-.17,1.8,1.8,0,0,0,.8-.57,5.64,5.64,0,0,0,.73-1.39h1.75l-1.11,4h-4.73L775.16,35a12.59,12.59,0,0,0-.24,1.51,9.74,9.74,0,0,0-.07,1.07,1.69,1.69,0,0,0,.41,1.28,2.49,2.49,0,0,0,1.49.46l-.21,1h-7.7Zm-3.41-9h7.29L774,25.42q.82-3.83,1.86-7.65h-.27L765.7,30Z"/><path d="M807.58,22.34l-1.37,2.11-4.1-3.52L801.36,27h-2.7l1.87-6.11-5.12,3.59-1.15-2.26,5.94-2.58-4.68-2.62L797,14.91l4.11,3.52.73-6.11h2.7l-1.84,6.11,5.06-3.57,1.16,2.26L803,19.68Z"/><path d="M831.48,27.67a11.18,11.18,0,0,1-2.82,1.39,9.29,9.29,0,0,1-2.92.46,6,6,0,0,1-3.13-.8,5.19,5.19,0,0,1-2.1-2.27,7.85,7.85,0,0,1-.73-3.47,12.27,12.27,0,0,1,.34-2.73,9.58,9.58,0,0,1,1.07-2.69,8.74,8.74,0,0,1,1.87-2.22,8.31,8.31,0,0,1,2.67-1.51,9.92,9.92,0,0,1,3.34-.54,6.9,6.9,0,0,1,3.07.64,6,6,0,0,1,2.19,1.76,7.8,7.8,0,0,1,1.32,2.66,12.45,12.45,0,0,1,.44,3.38,21.3,21.3,0,0,1-.37,3.77,19.35,19.35,0,0,1-1,3.44,21.08,21.08,0,0,1-1.57,3.28,17.53,17.53,0,0,1-2.09,2.83,18.35,18.35,0,0,1-2.48,2.29,16.34,16.34,0,0,1-2.8,1.7,16.83,16.83,0,0,1-3.08,1.09,15.43,15.43,0,0,1-3.2.45l-.72-1.08.2-1A15.22,15.22,0,0,0,824.82,37a11.86,11.86,0,0,0,4.1-3.53,19.4,19.4,0,0,0,2.75-5.72Zm-4.39-.12a7,7,0,0,0,4.13-1.44,4.17,4.17,0,0,0,.92-.92,4.5,4.5,0,0,0,.54-1.62,18.69,18.69,0,0,0,.17-2.78,7.42,7.42,0,0,0-1.06-4.36A3.62,3.62,0,0,0,828.65,15a4.29,4.29,0,0,0-2.78,1,6.84,6.84,0,0,0-2,2.91,11.57,11.57,0,0,0-.71,4.1,5.3,5.3,0,0,0,.92,3.44A3.67,3.67,0,0,0,827.09,27.55Z"/><path d="M842.14,35.73a12.41,12.41,0,0,1-.13,1.68,11.19,11.19,0,0,1-.42,1.88,9,9,0,0,1-.65,1.58,8.61,8.61,0,0,1-1,1.41,13,13,0,0,1-1.58,1.57,22.35,22.35,0,0,1-2.56,1.86L835,44.5a17.6,17.6,0,0,0,1.44-1.32,6,6,0,0,0,.85-1.12,7.78,7.78,0,0,0,.59-1.32c.17-.5.36-1.22.57-2.15a24.69,24.69,0,0,0,.46-2.86Z"/><path d="M860.55,26.42v.25a5.12,5.12,0,0,1,3.1,5,9.67,9.67,0,0,1-.2,1.78A8.7,8.7,0,0,1,862.6,36a7.57,7.57,0,0,1-1.94,2.42A8.87,8.87,0,0,1,857.71,40a11.91,11.91,0,0,1-3.84.58,10.14,10.14,0,0,1-4-.72,5.79,5.79,0,0,1-2.6-2.08,5.66,5.66,0,0,1-.9-3.2,9.14,9.14,0,0,1,.57-3.13,7.43,7.43,0,0,1,1.88-2.83,11,11,0,0,1,3.37-2.1l0-.26a6.19,6.19,0,0,1-2-2.22,6,6,0,0,1-.63-2.76,9,9,0,0,1,.15-1.58,7.53,7.53,0,0,1,.76-2.23,7.14,7.14,0,0,1,1.83-2.15,9,9,0,0,1,2.84-1.48,11.5,11.5,0,0,1,3.59-.55,10.34,10.34,0,0,1,4.24.76,5.16,5.16,0,0,1,2.39,2,5.36,5.36,0,0,1,.74,2.83,8,8,0,0,1-.6,3,7.52,7.52,0,0,1-1.91,2.66A8.86,8.86,0,0,1,860.55,26.42ZM849.9,34.93a3.89,3.89,0,0,0,1.06,3,4.3,4.3,0,0,0,3.11,1,5.42,5.42,0,0,0,2.77-.68,5.32,5.32,0,0,0,1.87-1.78,8.71,8.71,0,0,0,1.08-2.58,11.77,11.77,0,0,0,.37-2.79,4,4,0,0,0-.95-2.87,4,4,0,0,0-2.93-1,5.8,5.8,0,0,0-2.81.66,5.65,5.65,0,0,0-2,1.79,8.21,8.21,0,0,0-1.17,2.54A9.73,9.73,0,0,0,849.9,34.93Zm3.05-13a5.92,5.92,0,0,0,.16,1.41,2.86,2.86,0,0,0,.6,1.19,2.94,2.94,0,0,0,1.16.82,4.87,4.87,0,0,0,1.9.31,5.42,5.42,0,0,0,3-.84,6,6,0,0,0,2.1-2.5,8.12,8.12,0,0,0,.81-3.6,3.76,3.76,0,0,0-1-2.82,4,4,0,0,0-2.86-.93,5.55,5.55,0,0,0-3.28,1,5.62,5.62,0,0,0-2,2.65A9.39,9.39,0,0,0,853,21.91Z"/><path d="M877.83,34.62a11.83,11.83,0,0,0-.35,2.29,1.53,1.53,0,0,0,.4,1.16,2.76,2.76,0,0,0,1.35.55,22.8,22.8,0,0,0,2.92.22l-.29,1.43H868.17l.29-1.43a22,22,0,0,0,2.5-.22,5.7,5.7,0,0,0,1.41-.37,2.73,2.73,0,0,0,.86-.56,3.13,3.13,0,0,0,.58-.88,7.93,7.93,0,0,0,.48-1.64L877.4,21c.12-.55.2-1,.26-1.31a4.62,4.62,0,0,0,.09-.8,1,1,0,0,0-.29-.83,1.09,1.09,0,0,0-.7-.25,4,4,0,0,0-1.53.5c-.69.33-1.71.9-3.07,1.71l-.75-1.56,9.83-5.18h1.34L882,15.58c-.2.83-.42,1.8-.65,2.91Z"/><path d="M667.93,101.73a8.76,8.76,0,0,1-4.47-1,5.74,5.74,0,0,1-2.47-2.9,12.89,12.89,0,0,1-.76-4.77,32.42,32.42,0,0,1,.34-4.49c.32-2.11.76-4.46,1.35-7.06s1.17-4.73,1.74-6.44a23.67,23.67,0,0,1,2.13-4.76,11.29,11.29,0,0,1,2.5-2.92,9.46,9.46,0,0,1,3.09-1.6,15.54,15.54,0,0,1,4.55-.58l-.34,1.6a8.63,8.63,0,0,0-2.82.39,5.89,5.89,0,0,0-2,1.17,9.45,9.45,0,0,0-1.92,2.52A28,28,0,0,0,666.82,76q-.86,2.7-1.71,6.58c-.46,2.12-.84,4-1.12,5.72a37.55,37.55,0,0,0-.58,5.9,9.51,9.51,0,0,0,.55,3.6,3.52,3.52,0,0,0,1.59,1.84,5.9,5.9,0,0,0,2.72.54Z"/><path d="M680.78,78.21a11.21,11.21,0,0,1,3.86-.64,7.14,7.14,0,0,1,3.4.76,5.23,5.23,0,0,1,2.19,2.18A6.91,6.91,0,0,1,691,83.8a11.37,11.37,0,0,1-1.15,5,7.64,7.64,0,0,1-3.39,3.59A11.59,11.59,0,0,1,681,93.55a18.58,18.58,0,0,1-3.58-.38,16.22,16.22,0,0,1-3.42-1l.89-4.14h2.23q.12,3.87,4,3.87a5.38,5.38,0,0,0,3.47-1.1,6.69,6.69,0,0,0,2.08-3,10.83,10.83,0,0,0,.7-3.77,4.81,4.81,0,0,0-1.05-3.34,3.93,3.93,0,0,0-3-1.15,12.29,12.29,0,0,0-1.69.1,11.26,11.26,0,0,0-1.82.41l-1.65-1.25,2.69-12.25h9.68a3.2,3.2,0,0,0,1-.1,1.24,1.24,0,0,0,.51-.37,3,3,0,0,0,.45-.82H694l-1.24,4.54H682.62Z"/><path d="M698.76,71.73l.8-3.75a23.18,23.18,0,0,1,4-1.32,17.49,17.49,0,0,1,3.8-.4,9.72,9.72,0,0,1,2.39.29,6,6,0,0,1,2,.9A4.36,4.36,0,0,1,713,69a4.86,4.86,0,0,1,.5,2.26,7.1,7.1,0,0,1-.7,3.19A7.48,7.48,0,0,1,710.58,77a18.11,18.11,0,0,1-4.26,2.23l0,.21A6.79,6.79,0,0,1,710,81.51a5.39,5.39,0,0,1,1.28,3.64,8.18,8.18,0,0,1-.7,3.26,7.82,7.82,0,0,1-2,2.79A8.43,8.43,0,0,1,705.49,93a14,14,0,0,1-4.33.6,20.51,20.51,0,0,1-3.82-.4,15.71,15.71,0,0,1-3.33-1L694.9,88h2.23A4.06,4.06,0,0,0,698.31,91a4.66,4.66,0,0,0,3.13.94,6.15,6.15,0,0,0,3.31-.86,5.81,5.81,0,0,0,2.15-2.52,8.88,8.88,0,0,0,.76-3.75,3.78,3.78,0,0,0-1.35-3.17,6.5,6.5,0,0,0-4-1h-1.94l.37-1.72a14.12,14.12,0,0,0,4.15-.86,8.82,8.82,0,0,0,2.93-1.78,6.47,6.47,0,0,0,1.6-2.28,6.78,6.78,0,0,0,.47-2.44,3.23,3.23,0,0,0-1-2.5,3.62,3.62,0,0,0-2.6-.9,4.84,4.84,0,0,0-3.06.92,7.22,7.22,0,0,0-2.06,2.75Z"/><path d="M719.65,88.7a12.6,12.6,0,0,1-.14,1.68,11.42,11.42,0,0,1-.42,1.88,8.25,8.25,0,0,1-.65,1.58,8.83,8.83,0,0,1-1,1.41,13,13,0,0,1-1.58,1.57,23.63,23.63,0,0,1-2.56,1.86l-.89-1.21a17.71,17.71,0,0,0,1.45-1.33,6,6,0,0,0,.84-1.11,7.37,7.37,0,0,0,.59-1.32,17.54,17.54,0,0,0,.57-2.16,26.46,26.46,0,0,0,.47-2.85Z"/><path d="M734.35,87.59a11.87,11.87,0,0,0-.35,2.28,1.55,1.55,0,0,0,.4,1.17,2.67,2.67,0,0,0,1.35.54,22.39,22.39,0,0,0,2.92.23l-.29,1.42H724.69l.29-1.42a24.56,24.56,0,0,0,2.5-.22,5.7,5.7,0,0,0,1.41-.37,2.73,2.73,0,0,0,.86-.56,3.28,3.28,0,0,0,.58-.88,8.5,8.5,0,0,0,.49-1.64L733.92,74c.11-.55.2-1,.26-1.31a4.72,4.72,0,0,0,.09-.8.94.94,0,0,0-1-1.08,4,4,0,0,0-1.53.5c-.69.33-1.71.9-3.07,1.71l-.75-1.56,9.83-5.18h1.34l-.57,2.29q-.3,1.24-.66,2.91Z"/><path d="M748.64,71.73l.79-3.75a23.55,23.55,0,0,1,4-1.32,17.43,17.43,0,0,1,3.8-.4,9.64,9.64,0,0,1,2.38.29,6,6,0,0,1,2,.9A4.36,4.36,0,0,1,762.92,69a4.86,4.86,0,0,1,.5,2.26,7.1,7.1,0,0,1-.7,3.19A7.48,7.48,0,0,1,760.46,77a18.11,18.11,0,0,1-4.26,2.23l0,.21a6.86,6.86,0,0,1,3.69,2.05,5.39,5.39,0,0,1,1.28,3.64,8.36,8.36,0,0,1-.7,3.26,8,8,0,0,1-2,2.79A8.43,8.43,0,0,1,755.37,93a14,14,0,0,1-4.33.6,20.43,20.43,0,0,1-3.82-.4,15.53,15.53,0,0,1-3.33-1l.89-4.14H747A4.06,4.06,0,0,0,748.19,91a4.62,4.62,0,0,0,3.12.94,6.17,6.17,0,0,0,3.32-.86,5.73,5.73,0,0,0,2.14-2.52,8.88,8.88,0,0,0,.77-3.75,3.78,3.78,0,0,0-1.35-3.17,6.5,6.5,0,0,0-4-1h-1.94l.37-1.72a14.12,14.12,0,0,0,4.15-.86,8.82,8.82,0,0,0,2.93-1.78,6.47,6.47,0,0,0,1.6-2.28,6.78,6.78,0,0,0,.47-2.44,3.27,3.27,0,0,0-1-2.5,3.62,3.62,0,0,0-2.6-.9,4.84,4.84,0,0,0-3.06.92,7.22,7.22,0,0,0-2.06,2.75Z"/><path d="M769.43,65.21a8.85,8.85,0,0,1,4.46,1,5.73,5.73,0,0,1,2.47,2.9,12.89,12.89,0,0,1,.77,4.78,31.07,31.07,0,0,1-.35,4.39q-.46,3.41-1.44,7.56c-.61,2.57-1.19,4.66-1.74,6.29a22.84,22.84,0,0,1-2.07,4.56,10.79,10.79,0,0,1-2.48,2.88,9.05,9.05,0,0,1-3.09,1.58,15.54,15.54,0,0,1-4.54.59l.35-1.6a8.46,8.46,0,0,0,2.8-.39,5.84,5.84,0,0,0,1.95-1.16,9.5,9.5,0,0,0,2-2.59,28.29,28.29,0,0,0,2-5c.64-2,1.25-4.43,1.82-7.12q.67-3.12,1.06-5.55a36.22,36.22,0,0,0,.53-5.49,9.26,9.26,0,0,0-.57-3.61,3.5,3.5,0,0,0-1.6-1.84,6,6,0,0,0-2.7-.52Z"/><path d="M89.09,45.29H70.19V42h18.9Zm0,8.69H70.19V50.69h18.9Z"/><path d="M966.53,42.93l1.1-4.67a34.91,34.91,0,0,1,4.77-1.38,21.42,21.42,0,0,1,4.35-.45,10.13,10.13,0,0,1,3.41.53,4.93,4.93,0,0,1,2.33,1.68,4.63,4.63,0,0,1,.85,2.85,6.42,6.42,0,0,1-.55,2.72,7.49,7.49,0,0,1-1.52,2.16A10.54,10.54,0,0,1,979,48.06a19.53,19.53,0,0,1-2.85,1.28l0,.25a6.66,6.66,0,0,1,3.49,2.06,5.26,5.26,0,0,1,1.28,3.51,8.32,8.32,0,0,1-.67,3.35,7.91,7.91,0,0,1-2.09,2.81,8.71,8.71,0,0,1-3.41,1.83,18.13,18.13,0,0,1-4.84.56,19.61,19.61,0,0,1-4.07-.44,17.38,17.38,0,0,1-3.56-1.08l1-4.75h3.11c.12,2.72,1.31,4.09,3.54,4.09a4.34,4.34,0,0,0,2.71-.91,5.85,5.85,0,0,0,1.8-2.46A8.42,8.42,0,0,0,975,55a3.75,3.75,0,0,0-1.15-3,5.13,5.13,0,0,0-3.42-1h-1.73l.49-2.23a10.92,10.92,0,0,0,4.3-.94,7,7,0,0,0,3-2.51,6.83,6.83,0,0,0,1.11-3.91,2.88,2.88,0,0,0-.71-2.08,2.68,2.68,0,0,0-2-.73,5.22,5.22,0,0,0-1.28.16,3.49,3.49,0,0,0-1.3.66,5.47,5.47,0,0,0-1.22,1.33,10.43,10.43,0,0,0-1.09,2.22Z"/><path d="M993.31,63.71a6.17,6.17,0,0,1-5-2.08c-1.16-1.38-1.74-3.42-1.74-6.1a28.08,28.08,0,0,1,.72-5.88,26,26,0,0,1,1.94-5.82A15.51,15.51,0,0,1,992,39.69a10.86,10.86,0,0,1,3.5-2.45,10.11,10.11,0,0,1,4-.81,7.15,7.15,0,0,1,4,1,5.55,5.55,0,0,1,2.2,2.82,12.61,12.61,0,0,1,.67,4.4,27.5,27.5,0,0,1-.48,4.73,34,34,0,0,1-1.2,4.76,20,20,0,0,1-1.8,3.85,13.38,13.38,0,0,1-2.53,3.07,10.67,10.67,0,0,1-3.23,2A10.46,10.46,0,0,1,993.31,63.71Zm-1.65-5.09a3.86,3.86,0,0,0,.49,2.22,1.8,1.8,0,0,0,1.59.69,2.41,2.41,0,0,0,1.45-.55,8.39,8.39,0,0,0,2.25-3.17A42.69,42.69,0,0,0,1000,49.9a36.09,36.09,0,0,0,1.18-7.87,8,8,0,0,0-.17-1.87,2.18,2.18,0,0,0-.62-1.13,1.74,1.74,0,0,0-1.24-.41,2.62,2.62,0,0,0-1.79.82,13.09,13.09,0,0,0-2.81,5,53.22,53.22,0,0,0-2.17,8.26A34.26,34.26,0,0,0,991.66,58.62Z"/><path d="M1013.5,57.5c0,.83-.08,1.6-.16,2.29a12.1,12.1,0,0,1-.38,2,8.24,8.24,0,0,1-.68,1.77,8.89,8.89,0,0,1-1.34,1.75,18.94,18.94,0,0,1-2.06,1.89,30.34,30.34,0,0,1-2.71,1.91l-1.32-1.83a10,10,0,0,0,2.24-2.26,9.4,9.4,0,0,0,1.29-3.12,27.4,27.4,0,0,0,.64-4.41Z"/><path d="M1026.93,62.38l.25-1.21a13.31,13.31,0,0,0,6.67-2.9,15.21,15.21,0,0,0,4.46-6.53l-.17-.08a13.26,13.26,0,0,1-2.72,1,11,11,0,0,1-2.4.25,6.42,6.42,0,0,1-3.37-.85,5.49,5.49,0,0,1-2.16-2.32,7.43,7.43,0,0,1-.74-3.35,10,10,0,0,1,1.36-5.12,9.4,9.4,0,0,1,3.73-3.56,11.41,11.41,0,0,1,5.42-1.26,8.23,8.23,0,0,1,4.23,1,6.57,6.57,0,0,1,2.64,2.92,10.61,10.61,0,0,1,.89,4.51,20.8,20.8,0,0,1-.66,5,18.26,18.26,0,0,1-2.14,5.12,17.34,17.34,0,0,1-3.71,4.31,19.08,19.08,0,0,1-5,3,20.34,20.34,0,0,1-5.85,1.4Zm5.39-15.89c0,2.52.9,3.79,2.71,3.79a5.86,5.86,0,0,0,1.29-.14,4.55,4.55,0,0,0,1.11-.4,5.44,5.44,0,0,0,.83-.53,2.64,2.64,0,0,0,.61-.67,4.54,4.54,0,0,0,.45-.91,8.53,8.53,0,0,0,.32-1.32c.1-.55.17-1.09.23-1.64a16.17,16.17,0,0,0,.09-1.76,6,6,0,0,0-.69-3.24,2.41,2.41,0,0,0-2.16-1,3.51,3.51,0,0,0-2.45,1,6.71,6.71,0,0,0-1.71,2.84A12.37,12.37,0,0,0,1032.32,46.49Z"/><path d="M1047.17,62.19l1-4.77h3.14a4.58,4.58,0,0,0,1,3,3.36,3.36,0,0,0,2.64,1.06,4.36,4.36,0,0,0,2.87-1,6.1,6.1,0,0,0,1.81-2.73,10,10,0,0,0,.62-3.33,4.2,4.2,0,0,0-.92-2.93,3.54,3.54,0,0,0-2.75-1,10.94,10.94,0,0,0-1.83.15,12.48,12.48,0,0,0-1.83.49L1051.25,50l2.87-13.24h10.22a3.55,3.55,0,0,0,1-.11,1.59,1.59,0,0,0,.57-.32,4.77,4.77,0,0,0,.64-.86h2l-1.7,6.23h-10.65l-1.55,7a14.59,14.59,0,0,1,4.58-.66,8.3,8.3,0,0,1,3.53.7,5.31,5.31,0,0,1,2.33,2.06A6.16,6.16,0,0,1,1066,54a10.57,10.57,0,0,1-1,4.52,8.25,8.25,0,0,1-1.51,2.2,8,8,0,0,1-2.1,1.57,10.69,10.69,0,0,1-3,1.06,17.31,17.31,0,0,1-3.46.32,21.7,21.7,0,0,1-4.14-.42A15.08,15.08,0,0,1,1047.17,62.19Z"/><path d="M1081.18,36.74h7.37l3.74,11q1.53,4.51,2.42,8h.26q.55-3.37,1.47-7.48L1097.8,42a10.68,10.68,0,0,0,.25-2.28,1.64,1.64,0,0,0-.38-1.2,2.07,2.07,0,0,0-1.23-.5l.27-1.29h7.14l-.27,1.29a3.05,3.05,0,0,0-1.25.64,3.38,3.38,0,0,0-.75,1.17A13.47,13.47,0,0,0,1101,42l-4.67,21.39h-4.43l-4.65-13.65c-.36-1.07-.69-2.07-1-3s-.63-2.11-1-3.55h-.29c-.1.87-.3,2.07-.59,3.6s-.64,3.19-1,5l-1.39,6.37c-.08.34-.13.6-.16.8s0,.4-.07.63,0,.51,0,.85a1.64,1.64,0,0,0,.38,1.2,2.07,2.07,0,0,0,1.23.5L1083,63.4h-7.13l.27-1.29a3.12,3.12,0,0,0,1.25-.64,3.23,3.23,0,0,0,.74-1.17,13.31,13.31,0,0,0,.63-2.17L1082.26,42a10.49,10.49,0,0,0,.26-2.28,1.64,1.64,0,0,0-.38-1.2,2.07,2.07,0,0,0-1.23-.5Z"/><line x1="110.88" y1="53.69" x2="322.89" y2="55.08" style="fill:none;stroke:#000;stroke-miterlimit:10;stroke-width:2px"/><path d="M129.27,42.3h-7.14l.18-.83a3,3,0,0,0,1-.27,1.69,1.69,0,0,0,.56-.54,4.43,4.43,0,0,0,.51-1.12c.17-.5.36-1.28.59-2.33l3.63-16.73h-2.15a3.73,3.73,0,0,0-1.68.31,3.62,3.62,0,0,0-1.26,1.14A16.54,16.54,0,0,0,122,24.74h-1.63L121.62,19h17.71L138,25h-1.63q0-1.65-.09-2.49a3.28,3.28,0,0,0-.32-1.26,1.35,1.35,0,0,0-.58-.6,3.22,3.22,0,0,0-1.23-.16h-2.51L128,37.33c-.1.44-.17.8-.21,1.06s-.07.54-.1.83a7.54,7.54,0,0,0,0,.78,1.63,1.63,0,0,0,.17.83,1,1,0,0,0,.51.43,4.55,4.55,0,0,0,1.17.21Z"/><path d="M143.32,44.1a5.85,5.85,0,0,0-.15,1.13.72.72,0,0,0,.24.59,1.68,1.68,0,0,0,.83.32,12.29,12.29,0,0,0,1.83.13l-.24,1.09h-8.62l.22-1.09a14,14,0,0,0,1.68-.13,3,3,0,0,0,.94-.27,1.69,1.69,0,0,0,.55-.48,2.88,2.88,0,0,0,.35-1l1.67-7.67c0-.15.06-.28.08-.39a1.43,1.43,0,0,0,0-.23.38.38,0,0,0-.14-.34.65.65,0,0,0-.37-.09,3,3,0,0,0-1,.29c-.46.2-1.08.5-1.87.91l-.54-1.2,6-2.75h1c-.24.91-.47,1.91-.71,3Z"/><path d="M162.65,38.34l-.87,4h-3.22l.86-4Z"/><path d="M175.76,37a4.37,4.37,0,0,0,1,3.08,3.9,3.9,0,0,0,3,1,5.7,5.7,0,0,0,2.68-.58,3.93,3.93,0,0,0,1.7-1.65,5.21,5.21,0,0,0,.58-2.54,4.21,4.21,0,0,0-.37-1.83,5.13,5.13,0,0,0-1.1-1.53A15,15,0,0,0,181,31.3,14.29,14.29,0,0,1,179,29.61a6.81,6.81,0,0,1-1.32-1.85,5.2,5.2,0,0,1-.49-2.29,6.53,6.53,0,0,1,1-3.56,6.34,6.34,0,0,1,2.73-2.37,9.34,9.34,0,0,1,4.07-.84,17.41,17.41,0,0,1,2.89.22,20.55,20.55,0,0,1,2.95.72L189.8,24h-1.63a6.57,6.57,0,0,0-.44-2.28,2.35,2.35,0,0,0-1.07-1.18,4.06,4.06,0,0,0-1.85-.36,5.08,5.08,0,0,0-2.48.58,3.94,3.94,0,0,0-1.63,1.58,4.53,4.53,0,0,0-.56,2.23,3.86,3.86,0,0,0,.31,1.59,4.55,4.55,0,0,0,1,1.37,14.11,14.11,0,0,0,2,1.57,16.79,16.79,0,0,1,2.54,2.07,5.8,5.8,0,0,1,1.71,4.32,6.91,6.91,0,0,1-1,3.68,6.55,6.55,0,0,1-2.8,2.5,9.33,9.33,0,0,1-4.11.88,25,25,0,0,1-3.35-.24,24.55,24.55,0,0,1-3.25-.65l1-4.7Z"/><path d="M203.61,38.9a14.6,14.6,0,0,1-2.41,2.19,8,8,0,0,1-2.31,1.15,9.18,9.18,0,0,1-2.54.34,5.57,5.57,0,0,1-2.31-.44,4.48,4.48,0,0,1-1.6-1.19,5,5,0,0,1-.95-1.82,8.27,8.27,0,0,1-.3-2.28,13.38,13.38,0,0,1,.65-3.92,11.57,11.57,0,0,1,2-3.76A9.26,9.26,0,0,1,197,26.59a8.8,8.8,0,0,1,3.94-.92,4.8,4.8,0,0,1,3.08.84,3.2,3.2,0,0,1,1,2.62,4.7,4.7,0,0,1-2.71,4.36c-1.81,1-4.48,1.45-8,1.45a11.82,11.82,0,0,0-.2,2.22,4,4,0,0,0,.7,2.61,2.84,2.84,0,0,0,2.27.81,5.81,5.81,0,0,0,2.83-.69,11.19,11.19,0,0,0,2.67-2.1Zm-9-5.41a25.84,25.84,0,0,0,2.74-.18,11.43,11.43,0,0,0,2-.45,5.45,5.45,0,0,0,1.41-.67,3.69,3.69,0,0,0,.89-.87,3,3,0,0,0,.46-1,4.77,4.77,0,0,0,.13-1.08,2.5,2.5,0,0,0-.49-1.63,1.72,1.72,0,0,0-1.43-.59,3.8,3.8,0,0,0-2.33.86,7.83,7.83,0,0,0-2,2.32A13.27,13.27,0,0,0,194.58,33.49Z"/><path d="M221.68,42.3h-5.34l2.15-8.68c.14-.56.27-1.17.4-1.84a9.71,9.71,0,0,0,.19-1.82,2.86,2.86,0,0,0-.41-1.74,1.56,1.56,0,0,0-1.3-.53,2.83,2.83,0,0,0-1.54.56,8.45,8.45,0,0,0-1.72,1.66,15.2,15.2,0,0,0-1.52,2.23,10,10,0,0,0-1,2.76l-1.55,7.4h-2.93l2.58-11.67c0-.26.13-.65.22-1.16a6.9,6.9,0,0,0,.15-1.28,1.56,1.56,0,0,0-.15-.75.9.9,0,0,0-.49-.39,5.12,5.12,0,0,0-1.18-.18l.21-.9,3.85-.16h1l-1.14,4.44.2.07a15.24,15.24,0,0,1,3.21-3.49,5.19,5.19,0,0,1,3.09-1.14,3.23,3.23,0,0,1,2.49.92,3.83,3.83,0,0,1,.85,2.71,9.52,9.52,0,0,1-.11,1.34c-.07.48-.16.91-.25,1.29L220.24,38A9.24,9.24,0,0,0,220,40a1.61,1.61,0,0,0,.17.8,1.08,1.08,0,0,0,.53.45,4.45,4.45,0,0,0,1.17.24Z"/><path d="M256.38,34.63H249l.56-2.65h7.41Z"/><path d="M282.24,29.32v.23a2.35,2.35,0,0,1,0,.26,12.32,12.32,0,0,1,2.93-3.11,5.26,5.26,0,0,1,3-1,3.15,3.15,0,0,1,2.45.92,3.88,3.88,0,0,1,.84,2.71,12.37,12.37,0,0,1-.34,2.63L289.71,38a9.24,9.24,0,0,0-.29,1.95,1.61,1.61,0,0,0,.17.8,1.08,1.08,0,0,0,.53.45,4.45,4.45,0,0,0,1.17.24l-.16.83h-5.32l2.13-8.68c.16-.62.3-1.26.42-1.9a9.73,9.73,0,0,0,.18-1.76,2.76,2.76,0,0,0-.43-1.75,1.65,1.65,0,0,0-1.34-.52,2.72,2.72,0,0,0-1.48.55,7.79,7.79,0,0,0-1.72,1.67,13.78,13.78,0,0,0-1.47,2.23,11.13,11.13,0,0,0-.91,2.69l-1.54,7.47h-2.94l2-8.68c.24-1.06.4-1.84.49-2.35a8.47,8.47,0,0,0,.12-1.31,2.76,2.76,0,0,0-.43-1.75,1.68,1.68,0,0,0-1.35-.52,2.77,2.77,0,0,0-1.5.56A8.12,8.12,0,0,0,274.25,30a13.3,13.3,0,0,0-1.47,2.29,10.45,10.45,0,0,0-.85,2.65l-1.55,7.4h-2.93L270,30.63c.05-.26.13-.65.22-1.16a6.9,6.9,0,0,0,.15-1.28,1.56,1.56,0,0,0-.15-.75.9.9,0,0,0-.49-.39,5.12,5.12,0,0,0-1.18-.18l.21-.9,3.87-.16h.95l-1.12,4.43.2.07a13.77,13.77,0,0,1,3.1-3.48,5.23,5.23,0,0,1,3.13-1.14,3.17,3.17,0,0,1,2.47.93A3.87,3.87,0,0,1,282.24,29.32Z"/><path d="M297.89,38.34l-.87,4H293.8l.86-4Z"/><path d="M302.38,43.77a6.88,6.88,0,0,0-.54.78,3.45,3.45,0,0,0-.31.74,3.56,3.56,0,0,0-.1.86,2.07,2.07,0,0,0,.92,1.87,5.21,5.21,0,0,0,2.77.59,5.89,5.89,0,0,0,2.8-.6,5.13,5.13,0,0,0,1.9-1.84,13.38,13.38,0,0,0,1.36-3.05,47.45,47.45,0,0,0,1.2-4.87l-.24,0a15.37,15.37,0,0,1-3.05,3.32,5,5,0,0,1-3,1,3.39,3.39,0,0,1-2.88-1.4,6.74,6.74,0,0,1-1-4,14.39,14.39,0,0,1,.49-3.74A13.69,13.69,0,0,1,304,30.08a10.17,10.17,0,0,1,2-2.46,7.68,7.68,0,0,1,2.35-1.47,7,7,0,0,1,2.58-.48,7.82,7.82,0,0,1,2,.26,6.88,6.88,0,0,1,1.91.87l1.57-1.13,1.08.28-1.76,8c-.13.57-.26,1.22-.39,1.94l-.45,2.23q-.8,4-1.27,5.56a11.84,11.84,0,0,1-1.36,2.94,7.07,7.07,0,0,1-1.73,1.8,7.64,7.64,0,0,1-2.31,1.12,11,11,0,0,1-3.1.39c-4.28,0-6.41-1.25-6.41-3.76a2.88,2.88,0,0,1,.57-1.74,7.79,7.79,0,0,1,1.85-1.66Zm4.87-3.23A3.05,3.05,0,0,0,309,40a8.81,8.81,0,0,0,1.83-1.9,13.72,13.72,0,0,0,1.52-2.48,14.43,14.43,0,0,0,.92-2.94,14.37,14.37,0,0,0,.39-3.06,2.78,2.78,0,0,0-.57-1.94,2.44,2.44,0,0,0-1.86-.6,3.85,3.85,0,0,0-1.36.23,4.52,4.52,0,0,0-1.31.77,6.45,6.45,0,0,0-1.26,1.4,10.47,10.47,0,0,0-1.09,2.12,15.27,15.27,0,0,0-1,5.46,5.4,5.4,0,0,0,.51,2.65A1.7,1.7,0,0,0,307.25,40.54Z"/><path d="M35.82,59.51H28.67l.19-.84a2.67,2.67,0,0,0,1-.26,1.62,1.62,0,0,0,.57-.54,4.87,4.87,0,0,0,.5-1.12,21.62,21.62,0,0,0,.59-2.33l3.64-16.73H33A3.79,3.79,0,0,0,31.3,38a3.51,3.51,0,0,0-1.25,1.14,16.35,16.35,0,0,0-1.53,2.8H26.89l1.27-5.76H45.88l-1.33,6H42.92c0-1.11,0-1.93-.08-2.49a3.47,3.47,0,0,0-.32-1.26,1.37,1.37,0,0,0-.59-.6,3.19,3.19,0,0,0-1.23-.16H38.19L34.51,54.54c-.1.44-.17.8-.21,1.06s-.08.54-.11.83,0,.55,0,.77a1.71,1.71,0,0,0,.17.83,1,1,0,0,0,.51.44,4.4,4.4,0,0,0,1.17.2Z"/><path d="M49.29,62.64a2.33,2.33,0,0,0,.91-.13,1.38,1.38,0,0,0,.56-.42,4.16,4.16,0,0,0,.53-.9H52.6l-.87,3.38H42.21l.17-.79a21.8,21.8,0,0,1,4.74-5.05l1.52-1.29a18.09,18.09,0,0,0,1.63-1.5,6.63,6.63,0,0,0,.83-1.06,3.48,3.48,0,0,0,.41-.92,3.61,3.61,0,0,0,.12-.94,1.5,1.5,0,0,0-.55-1.24,2.43,2.43,0,0,0-1.57-.45,2.82,2.82,0,0,0-1.75.53,3.75,3.75,0,0,0-1.15,1.47H44.86L45.37,51a14.71,14.71,0,0,1,4.83-.94,5.41,5.41,0,0,1,1.76.25,3.48,3.48,0,0,1,1.21.65,2.56,2.56,0,0,1,.7.9,2.37,2.37,0,0,1,.22,1,4.09,4.09,0,0,1-.37,1.81,6.55,6.55,0,0,1-1.38,1.73q-1,1-3.34,2.8a28.75,28.75,0,0,0-3.78,3.45Z"/><path d="M194,81.24a4.41,4.41,0,0,0,1,3.09,3.87,3.87,0,0,0,3,1,5.73,5.73,0,0,0,2.68-.58,3.87,3.87,0,0,0,1.7-1.65,5.28,5.28,0,0,0,.57-2.53,4.41,4.41,0,0,0-.36-1.84,5.1,5.1,0,0,0-1.1-1.52,16.2,16.2,0,0,0-2.13-1.67,14.4,14.4,0,0,1-2.09-1.68A6.71,6.71,0,0,1,195.91,72a5.17,5.17,0,0,1-.5-2.29,6.56,6.56,0,0,1,1-3.55,6.41,6.41,0,0,1,2.73-2.38,9.56,9.56,0,0,1,4.08-.83,18.6,18.6,0,0,1,2.89.21,19,19,0,0,1,2.94.73l-1,4.39h-1.62A6.45,6.45,0,0,0,206,66a2.33,2.33,0,0,0-1.07-1.19,4,4,0,0,0-1.85-.36,5.06,5.06,0,0,0-2.47.58A4,4,0,0,0,199,66.62a4.53,4.53,0,0,0-.56,2.23,4,4,0,0,0,.3,1.59,4.63,4.63,0,0,0,1,1.38,14.16,14.16,0,0,0,2,1.56,17.94,17.94,0,0,1,2.54,2.08,6.2,6.2,0,0,1,1.29,1.94,6.39,6.39,0,0,1,.41,2.37,6.93,6.93,0,0,1-1,3.69,6.66,6.66,0,0,1-2.8,2.49,9.27,9.27,0,0,1-4.12.88,25,25,0,0,1-3.35-.24,23.63,23.63,0,0,1-3.25-.65l1-4.7Z"/><path d="M221.89,83.16a14.5,14.5,0,0,1-2.41,2.18,8,8,0,0,1-2.31,1.15,8.89,8.89,0,0,1-2.55.34,5.55,5.55,0,0,1-2.3-.43,4.54,4.54,0,0,1-1.61-1.2,5,5,0,0,1-.94-1.81,8.27,8.27,0,0,1-.3-2.28,13.12,13.12,0,0,1,.65-3.93,11.4,11.4,0,0,1,2-3.76,9.26,9.26,0,0,1,3.17-2.58,8.73,8.73,0,0,1,3.94-.91,4.76,4.76,0,0,1,3.07.84,3.16,3.16,0,0,1,1,2.61,4.68,4.68,0,0,1-2.7,4.36q-2.72,1.45-8,1.45a12,12,0,0,0-.2,2.22,4,4,0,0,0,.69,2.61,2.86,2.86,0,0,0,2.28.81,6,6,0,0,0,2.83-.68,11.48,11.48,0,0,0,2.66-2.1Zm-9-5.42a21.56,21.56,0,0,0,2.74-.18,12.46,12.46,0,0,0,2-.44,5.79,5.79,0,0,0,1.41-.68,3.66,3.66,0,0,0,.89-.86,2.93,2.93,0,0,0,.45-1,4.34,4.34,0,0,0,.13-1.09,2.51,2.51,0,0,0-.48-1.63,1.76,1.76,0,0,0-1.44-.59,3.89,3.89,0,0,0-2.33.86,8,8,0,0,0-2,2.33A13.4,13.4,0,0,0,212.86,77.74Z"/><path d="M240,86.56h-5.35l2.16-8.68c.13-.56.27-1.18.4-1.85a9.61,9.61,0,0,0,.19-1.81,2.89,2.89,0,0,0-.41-1.74,1.53,1.53,0,0,0-1.3-.53,2.78,2.78,0,0,0-1.54.55,8.2,8.2,0,0,0-1.72,1.66,14.06,14.06,0,0,0-1.52,2.24,10.36,10.36,0,0,0-1,2.76l-1.54,7.4h-2.94L228,74.89c.06-.27.14-.65.23-1.17a6.9,6.9,0,0,0,.15-1.28,1.49,1.49,0,0,0-.15-.74.87.87,0,0,0-.49-.4,4.81,4.81,0,0,0-1.18-.17l.2-.91,3.86-.15h1l-1.13,4.44.2.07a15.11,15.11,0,0,1,3.21-3.5A5.23,5.23,0,0,1,237,70a3.25,3.25,0,0,1,2.5.91,3.88,3.88,0,0,1,.85,2.71,9.4,9.4,0,0,1-.11,1.34c-.08.49-.16.92-.25,1.29l-1.42,6.09a8.55,8.55,0,0,0-.29,1.94,1.55,1.55,0,0,0,.17.81,1.08,1.08,0,0,0,.52.44,4.65,4.65,0,0,0,1.17.24Z"/><path d="M451.36,44.9h-18.9V41.62h18.9Zm0,8.69h-18.9V50.31h18.9Z"/><line x1="473.15" y1="53.31" x2="897.5" y2="54.69" style="fill:none;stroke:#000;stroke-miterlimit:10;stroke-width:2px"/><path d="M398.08,59.13h-7.14l.19-.84a2.67,2.67,0,0,0,1-.26,1.81,1.81,0,0,0,.57-.54,4.87,4.87,0,0,0,.5-1.12,22.28,22.28,0,0,0,.59-2.33l3.64-16.73h-2.16a4,4,0,0,0-1.68.3,3.76,3.76,0,0,0-1.26,1.15,17.22,17.22,0,0,0-1.52,2.8h-1.63l1.27-5.76h17.72l-1.33,6h-1.63c0-1.11,0-1.94-.08-2.49a3.69,3.69,0,0,0-.32-1.26,1.37,1.37,0,0,0-.59-.6,3.19,3.19,0,0,0-1.23-.16h-2.51l-3.68,16.85a8.44,8.44,0,0,0-.21,1.06c0,.26-.08.53-.11.82a7.68,7.68,0,0,0,0,.78,1.71,1.71,0,0,0,.17.83,1,1,0,0,0,.51.44,4.32,4.32,0,0,0,1.17.2Z"/><path d="M411.56,62.26a2.58,2.58,0,0,0,.91-.13,1.47,1.47,0,0,0,.55-.42,3.87,3.87,0,0,0,.54-.91h1.31L414,64.19h-9.52l.17-.79a22,22,0,0,1,4.73-5.06l1.53-1.28a18.09,18.09,0,0,0,1.63-1.5,6.63,6.63,0,0,0,.83-1.06,3.84,3.84,0,0,0,.41-.92,3.61,3.61,0,0,0,.12-.94,1.53,1.53,0,0,0-.55-1.24,2.37,2.37,0,0,0-1.57-.46,2.86,2.86,0,0,0-1.75.53,3.8,3.8,0,0,0-1.15,1.47h-1.75l.51-2.32a14.66,14.66,0,0,1,4.83-.94,5.41,5.41,0,0,1,1.76.25,3.48,3.48,0,0,1,1.21.65,2.45,2.45,0,0,1,.7.89,2.53,2.53,0,0,1,.22,1,4.28,4.28,0,0,1-.37,1.82A6.55,6.55,0,0,1,414.61,56q-1,1-3.34,2.8a29.62,29.62,0,0,0-3.79,3.45Z"/><path d="M599.63,84.58a4.41,4.41,0,0,0,1,3.09,3.9,3.9,0,0,0,3,1,5.7,5.7,0,0,0,2.68-.59,3.82,3.82,0,0,0,1.7-1.65,5.17,5.17,0,0,0,.58-2.53,4.26,4.26,0,0,0-.37-1.84,5.1,5.1,0,0,0-1.1-1.52,15.71,15.71,0,0,0-2.13-1.67,15,15,0,0,1-2.09-1.68,6.81,6.81,0,0,1-1.32-1.85,5.24,5.24,0,0,1-.49-2.3,6.5,6.5,0,0,1,1-3.55,6.3,6.3,0,0,1,2.73-2.38,9.48,9.48,0,0,1,4.07-.83,18.6,18.6,0,0,1,2.89.21,20.69,20.69,0,0,1,3,.73l-1,4.39H612a6.7,6.7,0,0,0-.44-2.28,2.41,2.41,0,0,0-1.07-1.19,4.06,4.06,0,0,0-1.85-.36,5.19,5.19,0,0,0-2.48.58A4.07,4.07,0,0,0,604.57,70a4.53,4.53,0,0,0-.56,2.23,3.79,3.79,0,0,0,.31,1.59,4.59,4.59,0,0,0,1,1.38,14.16,14.16,0,0,0,2,1.56,17.38,17.38,0,0,1,2.54,2.08,5.74,5.74,0,0,1,1.7,4.31,6.93,6.93,0,0,1-1,3.69,6.6,6.6,0,0,1-2.8,2.49,9.2,9.2,0,0,1-4.11.88,24.91,24.91,0,0,1-3.35-.24,23,23,0,0,1-3.25-.65l1-4.7Z"/><path d="M627.48,86.5a15.06,15.06,0,0,1-2.41,2.19,8.26,8.26,0,0,1-2.31,1.14,8.87,8.87,0,0,1-2.54.34,5.57,5.57,0,0,1-2.31-.43,4.3,4.3,0,0,1-1.6-1.2,5,5,0,0,1-.95-1.81,8.27,8.27,0,0,1-.3-2.28,13.44,13.44,0,0,1,.65-3.93,11.78,11.78,0,0,1,2-3.76,9.26,9.26,0,0,1,3.17-2.58,8.9,8.9,0,0,1,3.94-.91,4.8,4.8,0,0,1,3.08.84,3.19,3.19,0,0,1,1,2.61,4.69,4.69,0,0,1-2.71,4.36c-1.81,1-4.48,1.45-8,1.45a12,12,0,0,0-.2,2.22,3.94,3.94,0,0,0,.7,2.61,2.84,2.84,0,0,0,2.27.81,6,6,0,0,0,2.83-.68,11.72,11.72,0,0,0,2.67-2.1Zm-9-5.42a21.43,21.43,0,0,0,2.74-.18,12.46,12.46,0,0,0,2-.44,5.45,5.45,0,0,0,1.41-.68,3.66,3.66,0,0,0,.89-.86,3.07,3.07,0,0,0,.46-1,4.85,4.85,0,0,0,.13-1.09,2.51,2.51,0,0,0-.49-1.63,1.75,1.75,0,0,0-1.43-.59,3.91,3.91,0,0,0-2.34.86,8.17,8.17,0,0,0-2,2.33A13.4,13.4,0,0,0,618.45,81.08Z"/><path d="M645.55,89.9h-5.34l2.15-8.68c.14-.56.27-1.18.4-1.85a9.53,9.53,0,0,0,.19-1.81,2.82,2.82,0,0,0-.41-1.74,1.53,1.53,0,0,0-1.3-.53,2.81,2.81,0,0,0-1.54.55A8.45,8.45,0,0,0,638,77.5a14.76,14.76,0,0,0-1.52,2.24,10,10,0,0,0-1,2.76L634,89.9H631l2.58-11.67c0-.27.13-.65.22-1.17a6.9,6.9,0,0,0,.15-1.28,1.51,1.51,0,0,0-.15-.74.82.82,0,0,0-.49-.39,4.2,4.2,0,0,0-1.18-.18l.21-.91,3.85-.15h1l-1.14,4.44.2.07a15.32,15.32,0,0,1,3.21-3.5,5.24,5.24,0,0,1,3.09-1.13,3.23,3.23,0,0,1,2.49.91,3.83,3.83,0,0,1,.85,2.71,9.4,9.4,0,0,1-.11,1.34c-.07.49-.16.92-.25,1.29l-1.42,6.09a9.25,9.25,0,0,0-.29,1.94,1.65,1.65,0,0,0,.17.81,1.07,1.07,0,0,0,.53.44,4.45,4.45,0,0,0,1.17.24Z"/></svg>