<svg id="Capa_1" data-name="Capa 1" xmlns="http://www.w3.org/2000/svg" viewBox="0 0 1073.85 124.09"><path d="M847.09,15.53l.38.72c-.35.86-.62,1.49-.8,1.9s-.44.93-.76,1.55-.68,1.27-1.07,1.95-.85,1.41-1.35,2.19-1.08,1.63-1.73,2.56-1.39,2-2.26,3.13h-1.79l-1.33-10.87a8.38,8.38,0,0,0-.28-1.51,1.29,1.29,0,0,0-.43-.66,1.76,1.76,0,0,0-.9-.25l.15-.71h3.68L839.68,27a46,46,0,0,0,3.65-5.75,9,9,0,0,0,1.19-3.78,1.18,1.18,0,0,0-.29-.92,1.64,1.64,0,0,0-1-.29l.14-.71Z"/><path d="M855.48,15.74a2.13,2.13,0,0,0,.77-.11,1.12,1.12,0,0,0,.46-.36,3.21,3.21,0,0,0,.45-.76h1.1l-.72,2.85h-8l.14-.66a18.06,18.06,0,0,1,4-4.26l1.28-1.08a18.16,18.16,0,0,0,1.38-1.27,6,6,0,0,0,.7-.89,3.25,3.25,0,0,0,.34-.78,2.9,2.9,0,0,0,.1-.79,1.29,1.29,0,0,0-.46-1,2,2,0,0,0-1.33-.38,2.37,2.37,0,0,0-1.47.44,3.22,3.22,0,0,0-1,1.24h-1.47l.43-2a12.61,12.61,0,0,1,4.07-.79,4.68,4.68,0,0,1,1.48.21,3.09,3.09,0,0,1,1,.55,2.09,2.09,0,0,1,.59.75,2.12,2.12,0,0,1,.18.84A3.44,3.44,0,0,1,859.21,9a5.59,5.59,0,0,1-1.16,1.46c-.56.55-1.5,1.33-2.81,2.36a24.6,24.6,0,0,0-3.19,2.91Z"/><path d="M829.05,49.56h.86l-1,3.54.17.06a11.76,11.76,0,0,1,2.65-2.79,4.55,4.55,0,0,1,2.67-.91,7.81,7.81,0,0,1,1.74.16l-.69,3.22H834a3,3,0,0,0-.35-1.13.84.84,0,0,0-.76-.39,2.23,2.23,0,0,0-1.29.57,8.91,8.91,0,0,0-1.48,1.59A9.59,9.59,0,0,0,829,55.33a8.71,8.71,0,0,0-.58,1.89l-1.3,6.23h-2.47l2.17-9.83a10.37,10.37,0,0,0,.3-2.06,1.19,1.19,0,0,0-.13-.62.78.78,0,0,0-.41-.34,3.93,3.93,0,0,0-1-.15l.16-.76Z"/><path d="M836.74,64.69a4.77,4.77,0,0,0-.45.65A2.39,2.39,0,0,0,836,66a3,3,0,0,0-.08.72,1.75,1.75,0,0,0,.77,1.58,4.39,4.39,0,0,0,2.33.49,4.91,4.91,0,0,0,2.36-.5,4.3,4.3,0,0,0,1.6-1.55,11.23,11.23,0,0,0,1.15-2.57,38.35,38.35,0,0,0,1-4.1l-.2,0a12.79,12.79,0,0,1-2.57,2.79,4.2,4.2,0,0,1-2.56.88,2.83,2.83,0,0,1-2.42-1.18,5.61,5.61,0,0,1-.87-3.37A12,12,0,0,1,837,56a11,11,0,0,1,1.15-2.81,8.89,8.89,0,0,1,1.68-2.08,6.76,6.76,0,0,1,2-1.23,6,6,0,0,1,2.18-.4,6.71,6.71,0,0,1,1.7.21,5.92,5.92,0,0,1,1.61.74l1.32-.95.91.23L848,56.43c-.1.48-.21,1-.32,1.62l-.38,1.89c-.44,2.27-.8,3.82-1.07,4.68a10,10,0,0,1-1.14,2.47,5.88,5.88,0,0,1-1.46,1.52,6.32,6.32,0,0,1-2,1,9.2,9.2,0,0,1-2.61.33q-5.4,0-5.4-3.17a2.39,2.39,0,0,1,.49-1.47,6.23,6.23,0,0,1,1.55-1.39Zm4.1-2.72a2.54,2.54,0,0,0,1.45-.5,7.21,7.21,0,0,0,1.55-1.6,11.9,11.9,0,0,0,1.28-2.09,12.9,12.9,0,0,0,.78-2.47,12.72,12.72,0,0,0,.32-2.58,2.4,2.4,0,0,0-.47-1.64,2.08,2.08,0,0,0-1.58-.51,3.33,3.33,0,0,0-1.14.2,3.82,3.82,0,0,0-1.1.64,5.67,5.67,0,0,0-1.06,1.19,9,9,0,0,0-.93,1.79,13.11,13.11,0,0,0-.87,4.59,4.53,4.53,0,0,0,.43,2.24A1.45,1.45,0,0,0,840.84,62Z"/><line x1="809.99" y1="39.11" x2="859.05" y2="39.11" style="fill:none;stroke:#000;stroke-miterlimit:10;stroke-width:1.3400589524108597px"/><path d="M328.51,37.44h-18V34.32h18Zm0,8.26h-18V42.58h18Z"/><path d="M799.58,37.44h-18V34.32h18Zm0,8.26h-18V42.58h18Z"/><path d="M7.71,40l2.31-.2a5.17,5.17,0,0,0,.76,2.29,4.16,4.16,0,0,0,1.86,1.44,7,7,0,0,0,2.84.56A6.77,6.77,0,0,0,18,43.7a3.43,3.43,0,0,0,1.59-1.15A2.69,2.69,0,0,0,20.07,41a2.39,2.39,0,0,0-.51-1.53,3.62,3.62,0,0,0-1.66-1.1,30.73,30.73,0,0,0-3.29-.91A16.92,16.92,0,0,1,11,36.26a5.11,5.11,0,0,1-2-1.73,4.32,4.32,0,0,1-.65-2.32,4.77,4.77,0,0,1,.79-2.64,5,5,0,0,1,2.32-1.86,8.82,8.82,0,0,1,3.39-.63,9.15,9.15,0,0,1,3.63.67,5.17,5.17,0,0,1,2.41,2,5.66,5.66,0,0,1,.91,2.93l-2.35.18a3.82,3.82,0,0,0-1.27-2.67,5,5,0,0,0-3.23-.9,5.11,5.11,0,0,0-3.23.82,2.44,2.44,0,0,0-1,2,2.12,2.12,0,0,0,.72,1.65A9.41,9.41,0,0,0,15.18,35a23.71,23.71,0,0,1,4.09,1.19,5.63,5.63,0,0,1,2.39,1.9,4.62,4.62,0,0,1,.76,2.64,5.1,5.1,0,0,1-.84,2.8,5.54,5.54,0,0,1-2.43,2.05,8.48,8.48,0,0,1-3.56.73,10.56,10.56,0,0,1-4.2-.74,5.86,5.86,0,0,1-2.66-2.22A6.29,6.29,0,0,1,7.71,40Z"/><path d="M34.64,41.67,37,42a5.75,5.75,0,0,1-2,3.21,6.16,6.16,0,0,1-3.83,1.14,6.09,6.09,0,0,1-4.66-1.82,7.13,7.13,0,0,1-1.72-5.11,7.47,7.47,0,0,1,1.74-5.28A5.87,5.87,0,0,1,31,32.22a5.71,5.71,0,0,1,4.39,1.84,7.38,7.38,0,0,1,1.7,5.18c0,.14,0,.34,0,.61h-10a5.2,5.2,0,0,0,1.25,3.4,3.69,3.69,0,0,0,2.8,1.18,3.46,3.46,0,0,0,2.13-.66A4.41,4.41,0,0,0,34.64,41.67ZM27.19,38h7.47a4.6,4.6,0,0,0-.85-2.55A3.48,3.48,0,0,0,31,34.1a3.59,3.59,0,0,0-2.63,1A4.17,4.17,0,0,0,27.19,38Z"/><path d="M47,46V32.53h2v2a5.48,5.48,0,0,1,1.44-1.89,2.5,2.5,0,0,1,1.46-.46,4.4,4.4,0,0,1,2.33.74l-.78,2.12a3.22,3.22,0,0,0-1.66-.5,2.17,2.17,0,0,0-1.34.45,2.43,2.43,0,0,0-.84,1.25A8.75,8.75,0,0,0,49.25,39V46Z"/><path d="M64.77,41.67l2.34.29a5.76,5.76,0,0,1-2.06,3.21,6.14,6.14,0,0,1-3.83,1.14,6,6,0,0,1-4.65-1.82,7.14,7.14,0,0,1-1.73-5.11,7.47,7.47,0,0,1,1.74-5.28,5.89,5.89,0,0,1,4.52-1.88,5.67,5.67,0,0,1,4.38,1.84,7.34,7.34,0,0,1,1.71,5.18c0,.14,0,.34,0,.61h-10a5.15,5.15,0,0,0,1.25,3.4,3.69,3.69,0,0,0,2.8,1.18,3.46,3.46,0,0,0,2.13-.66A4.48,4.48,0,0,0,64.77,41.67ZM57.32,38h7.47a4.6,4.6,0,0,0-.86-2.55,3.46,3.46,0,0,0-2.81-1.32,3.6,3.6,0,0,0-2.63,1A4.17,4.17,0,0,0,57.32,38Z"/><path d="M78.69,41.07l2.23.29A5.81,5.81,0,0,1,79.05,45a5.39,5.39,0,0,1-3.7,1.31,5.69,5.69,0,0,1-4.41-1.81,7.32,7.32,0,0,1-1.67-5.18A9.4,9.4,0,0,1,70,35.5,5,5,0,0,1,72.17,33a6.41,6.41,0,0,1,3.2-.82,5.51,5.51,0,0,1,3.56,1.11,5.07,5.07,0,0,1,1.78,3.16l-2.21.34a3.66,3.66,0,0,0-1.11-2,2.86,2.86,0,0,0-1.94-.69,3.48,3.48,0,0,0-2.78,1.24,5.86,5.86,0,0,0-1.07,3.91,6.09,6.09,0,0,0,1,4,3.36,3.36,0,0,0,2.7,1.23,3.17,3.17,0,0,0,2.23-.82A4.1,4.1,0,0,0,78.69,41.07Z"/><path d="M91.64,46V44a4.89,4.89,0,0,1-4.25,2.28,5.42,5.42,0,0,1-2.21-.45,3.81,3.81,0,0,1-1.53-1.15A4.44,4.44,0,0,1,83,43a12.11,12.11,0,0,1-.13-2.13V32.53h2.26V40a13.72,13.72,0,0,0,.14,2.42,2.41,2.41,0,0,0,.91,1.41,2.81,2.81,0,0,0,1.72.51,3.71,3.71,0,0,0,1.91-.52A2.91,2.91,0,0,0,91,42.38a7.17,7.17,0,0,0,.37-2.63V32.53h2.27V46Z"/><path d="M106.39,41.67l2.34.29a5.75,5.75,0,0,1-2,3.21,6.16,6.16,0,0,1-3.83,1.14,6.09,6.09,0,0,1-4.66-1.82,7.13,7.13,0,0,1-1.72-5.11,7.47,7.47,0,0,1,1.74-5.28,5.87,5.87,0,0,1,4.51-1.88,5.71,5.71,0,0,1,4.39,1.84,7.38,7.38,0,0,1,1.7,5.18c0,.14,0,.34,0,.61h-10a5.2,5.2,0,0,0,1.25,3.4,3.69,3.69,0,0,0,2.8,1.18,3.46,3.46,0,0,0,2.13-.66A4.41,4.41,0,0,0,106.39,41.67ZM98.94,38h7.47a4.6,4.6,0,0,0-.85-2.55,3.48,3.48,0,0,0-2.81-1.32,3.59,3.59,0,0,0-2.63,1A4.17,4.17,0,0,0,98.94,38Z"/><path d="M111.56,46V32.53h2v2A5.48,5.48,0,0,1,115,32.68a2.48,2.48,0,0,1,1.46-.46,4.42,4.42,0,0,1,2.33.74l-.78,2.12a3.26,3.26,0,0,0-1.67-.5,2.14,2.14,0,0,0-1.33.45,2.44,2.44,0,0,0-.85,1.25,9.07,9.07,0,0,0-.37,2.67V46Z"/><path d="M128.86,46v-1.7a4.16,4.16,0,0,1-3.74,2,5.14,5.14,0,0,1-2.94-.89,5.78,5.78,0,0,1-2.08-2.48,8.49,8.49,0,0,1-.74-3.66,9.51,9.51,0,0,1,.67-3.66,5.23,5.23,0,0,1,2-2.52,5.3,5.3,0,0,1,3-.88,4.44,4.44,0,0,1,2.15.51,4.56,4.56,0,0,1,1.54,1.34V27.4H131V46Zm-7.17-6.73a5.82,5.82,0,0,0,1.09,3.87,3.23,3.23,0,0,0,2.55,1.28,3.17,3.17,0,0,0,2.53-1.22,5.7,5.7,0,0,0,1-3.74,6.34,6.34,0,0,0-1.06-4.06,3.22,3.22,0,0,0-2.61-1.3,3.12,3.12,0,0,0-2.52,1.25A6.13,6.13,0,0,0,121.69,39.28Z"/><path d="M143.27,44.34a8.52,8.52,0,0,1-2.43,1.53,7.06,7.06,0,0,1-2.5.44A4.86,4.86,0,0,1,135,45.23a3.61,3.61,0,0,1-1.18-2.78,3.81,3.81,0,0,1,.44-1.81,3.73,3.73,0,0,1,1.18-1.31,5.41,5.41,0,0,1,1.63-.75,15.8,15.8,0,0,1,2-.34,20,20,0,0,0,4-.79c0-.31,0-.51,0-.6a2.51,2.51,0,0,0-.64-2,3.75,3.75,0,0,0-2.58-.78,4,4,0,0,0-2.37.57,3.44,3.44,0,0,0-1.12,2l-2.22-.31a5.62,5.62,0,0,1,1-2.32,4.39,4.39,0,0,1,2-1.35,8.78,8.78,0,0,1,3-.48,8,8,0,0,1,2.78.41,3.67,3.67,0,0,1,1.58,1,3.63,3.63,0,0,1,.7,1.55,12.35,12.35,0,0,1,.12,2.11v3a32.26,32.26,0,0,0,.14,4,5.4,5.4,0,0,0,.57,1.62h-2.37A5.11,5.11,0,0,1,143.27,44.34Zm-.19-5.1a16.1,16.1,0,0,1-3.7.86,8.51,8.51,0,0,0-2,.46,2,2,0,0,0-.9.74,2,2,0,0,0-.31,1.09,2,2,0,0,0,.68,1.52,2.93,2.93,0,0,0,2,.61,4.72,4.72,0,0,0,2.34-.57,3.59,3.59,0,0,0,1.5-1.59,5.58,5.58,0,0,0,.36-2.28Z"/><path d="M164.6,51.17v-6.6a4.08,4.08,0,0,1-1.48,1.25,4.33,4.33,0,0,1-2,.49A5.37,5.37,0,0,1,157,44.4a7.62,7.62,0,0,1-1.72-5.26,9,9,0,0,1,.7-3.64,5.27,5.27,0,0,1,2-2.45,5.45,5.45,0,0,1,2.92-.83,4.48,4.48,0,0,1,3.91,2.11v-1.8h2V51.17Zm-7-11.94a6,6,0,0,0,1.09,3.9,3.27,3.27,0,0,0,2.59,1.3,3.18,3.18,0,0,0,2.5-1.23,5.73,5.73,0,0,0,1.05-3.77,6.31,6.31,0,0,0-1.11-4A3.27,3.27,0,0,0,161.13,34a3.11,3.11,0,0,0-2.5,1.27A6.21,6.21,0,0,0,157.6,39.23Z"/><path d="M179.2,46V44A4.91,4.91,0,0,1,175,46.31a5.42,5.42,0,0,1-2.21-.45,3.67,3.67,0,0,1-1.53-1.15,4.44,4.44,0,0,1-.7-1.7,11.88,11.88,0,0,1-.14-2.13V32.53h2.27V40a13.72,13.72,0,0,0,.14,2.42,2.37,2.37,0,0,0,.91,1.41,2.8,2.8,0,0,0,1.71.51,3.74,3.74,0,0,0,1.92-.52,2.89,2.89,0,0,0,1.26-1.44,7.13,7.13,0,0,0,.38-2.63V32.53h2.27V46Z"/><path d="M194,41.67l2.34.29a5.76,5.76,0,0,1-2.06,3.21,6.14,6.14,0,0,1-3.83,1.14,6,6,0,0,1-4.65-1.82A7.14,7.14,0,0,1,184,39.38a7.47,7.47,0,0,1,1.74-5.28,5.89,5.89,0,0,1,4.52-1.88,5.67,5.67,0,0,1,4.38,1.84,7.34,7.34,0,0,1,1.71,5.18c0,.14,0,.34,0,.61h-10a5.15,5.15,0,0,0,1.25,3.4,3.69,3.69,0,0,0,2.79,1.18,3.47,3.47,0,0,0,2.14-.66A4.48,4.48,0,0,0,194,41.67ZM186.5,38H194a4.6,4.6,0,0,0-.86-2.55,3.46,3.46,0,0,0-2.81-1.32,3.6,3.6,0,0,0-2.63,1A4.17,4.17,0,0,0,186.5,38Z"/><path d="M569.77,51.17V32.53h2.07v1.75a5.23,5.23,0,0,1,1.65-1.55,4.54,4.54,0,0,1,2.23-.51,5.32,5.32,0,0,1,3,.89,5.49,5.49,0,0,1,2,2.51,9.31,9.31,0,0,1,.66,3.55,9.08,9.08,0,0,1-.73,3.72,5.62,5.62,0,0,1-2.15,2.54,5.43,5.43,0,0,1-3,.88,4.27,4.27,0,0,1-2-.48A4.68,4.68,0,0,1,572,44.61v6.56Zm2.06-11.83a5.94,5.94,0,0,0,1,3.85,3.2,3.2,0,0,0,2.54,1.24A3.28,3.28,0,0,0,578,43.14a6.1,6.1,0,0,0,1.08-4A6,6,0,0,0,578,35.29,3.17,3.17,0,0,0,575.51,34a3.28,3.28,0,0,0-2.57,1.37A6.15,6.15,0,0,0,571.83,39.34Z"/><path d="M583.29,39.27c0-2.5.68-4.35,2.06-5.55a6.2,6.2,0,0,1,4.21-1.5A6,6,0,0,1,594.08,34a7,7,0,0,1,1.75,5,8.91,8.91,0,0,1-.78,4.09,5.47,5.47,0,0,1-2.25,2.32,6.56,6.56,0,0,1-3.24.82A6,6,0,0,1,585,44.5,7.27,7.27,0,0,1,583.29,39.27Zm2.33,0a5.73,5.73,0,0,0,1.12,3.87,3.72,3.72,0,0,0,5.63,0,5.89,5.89,0,0,0,1.13-4,5.61,5.61,0,0,0-1.13-3.79,3.73,3.73,0,0,0-5.63,0A5.76,5.76,0,0,0,585.62,39.27Z"/><path d="M598.46,46V32.53h2v2A5.48,5.48,0,0,1,602,32.68a2.45,2.45,0,0,1,1.45-.46,4.43,4.43,0,0,1,2.34.74L605,35.08a3.22,3.22,0,0,0-1.66-.5A2.17,2.17,0,0,0,602,35a2.49,2.49,0,0,0-.84,1.25,9.07,9.07,0,0,0-.38,2.67V46Z"/><path d="M619.21,44l.33,2a8.11,8.11,0,0,1-1.72.21,3.85,3.85,0,0,1-1.91-.4,2.16,2.16,0,0,1-1-1,8.1,8.1,0,0,1-.28-2.7V34.3H613V32.53h1.66V29.19l2.26-1.37v4.71h2.28V34.3h-2.28v7.89a3.93,3.93,0,0,0,.12,1.25,1,1,0,0,0,.39.45,1.5,1.5,0,0,0,.77.16A7.17,7.17,0,0,0,619.21,44Z"/><path d="M630.16,44.34a8.48,8.48,0,0,1-2.42,1.53,7.1,7.1,0,0,1-2.5.44,4.84,4.84,0,0,1-3.39-1.08,3.61,3.61,0,0,1-1.19-2.78,3.71,3.71,0,0,1,.45-1.81,3.8,3.8,0,0,1,1.17-1.31,5.52,5.52,0,0,1,1.63-.75,16.13,16.13,0,0,1,2-.34,20.32,20.32,0,0,0,4.05-.79c0-.31,0-.51,0-.6a2.55,2.55,0,0,0-.64-2,3.78,3.78,0,0,0-2.59-.78,3.94,3.94,0,0,0-2.36.57,3.4,3.4,0,0,0-1.13,2l-2.22-.31a5.5,5.5,0,0,1,1-2.32,4.35,4.35,0,0,1,2-1.35,8.82,8.82,0,0,1,3-.48,8,8,0,0,1,2.78.41,3.2,3.2,0,0,1,2.29,2.57,13.89,13.89,0,0,1,.11,2.11v3a34.49,34.49,0,0,0,.14,4A5.17,5.17,0,0,0,633,46h-2.37A4.87,4.87,0,0,1,630.16,44.34Zm-.18-5.1a16.21,16.21,0,0,1-3.71.86,8.79,8.79,0,0,0-2,.46,2,2,0,0,0-1.21,1.83,1.93,1.93,0,0,0,.69,1.52,2.93,2.93,0,0,0,2,.61,4.7,4.7,0,0,0,2.33-.57,3.59,3.59,0,0,0,1.5-1.59,5.55,5.55,0,0,0,.37-2.28Z"/><path d="M635.79,46V32.53h2v1.91a4.8,4.8,0,0,1,4.26-2.22,5.53,5.53,0,0,1,2.22.44,3.39,3.39,0,0,1,1.52,1.15,4.38,4.38,0,0,1,.71,1.69,13.76,13.76,0,0,1,.12,2.22V46H644.4v-8.2a6.09,6.09,0,0,0-.27-2.09,2.25,2.25,0,0,0-.94-1.11,3,3,0,0,0-1.58-.41,3.64,3.64,0,0,0-2.5.93q-1.05.93-1.05,3.51V46Z"/><path d="M655.1,44l.33,2a8.11,8.11,0,0,1-1.72.21,3.92,3.92,0,0,1-1.92-.4,2.19,2.19,0,0,1-.95-1,8.1,8.1,0,0,1-.28-2.7V34.3H648.9V32.53h1.66V29.19l2.26-1.37v4.71h2.28V34.3h-2.28v7.89a3.93,3.93,0,0,0,.12,1.25,1,1,0,0,0,.39.45,1.5,1.5,0,0,0,.77.16A7.3,7.3,0,0,0,655.1,44Z"/><path d="M656.47,39.27q0-3.75,2.07-5.55a6.19,6.19,0,0,1,4.21-1.5A6,6,0,0,1,667.26,34a7,7,0,0,1,1.75,5,8.92,8.92,0,0,1-.77,4.09A5.5,5.5,0,0,1,666,45.49a6.49,6.49,0,0,1-3.23.82,6,6,0,0,1-4.54-1.81A7.28,7.28,0,0,1,656.47,39.27Zm2.33,0a5.73,5.73,0,0,0,1.13,3.87,3.72,3.72,0,0,0,5.63,0,5.89,5.89,0,0,0,1.12-4,5.56,5.56,0,0,0-1.13-3.79,3.71,3.71,0,0,0-5.62,0A5.76,5.76,0,0,0,658.8,39.27Z"/><path d="M876.89,49.9l-.25-2.14a5.22,5.22,0,0,0,1.3.2,2.62,2.62,0,0,0,1.21-.25,2,2,0,0,0,.74-.72,11.11,11.11,0,0,0,.69-1.7l.2-.56-5.08-13.5h2.45l2.79,7.8c.36,1,.68,2,1,3.13a30.35,30.35,0,0,1,.93-3.07l2.86-7.86H888l-5.09,13.71A26.23,26.23,0,0,1,881.6,48a4.46,4.46,0,0,1-1.38,1.65,3.29,3.29,0,0,1-1.87.53A4.4,4.4,0,0,1,876.89,49.9Z"/><path d="M905.76,44.71V43A4.17,4.17,0,0,1,902,45a5.21,5.21,0,0,1-2.94-.88A5.81,5.81,0,0,1,897,41.64a8.63,8.63,0,0,1-.74-3.66,9.51,9.51,0,0,1,.67-3.66,5.24,5.24,0,0,1,5-3.4,4.37,4.37,0,0,1,2.16.52,4.42,4.42,0,0,1,1.53,1.34V26.1h2.26V44.71ZM898.58,38a5.82,5.82,0,0,0,1.09,3.87,3.23,3.23,0,0,0,2.56,1.28,3.17,3.17,0,0,0,2.52-1.22,5.64,5.64,0,0,0,1-3.74,6.41,6.41,0,0,0-1-4.06,3.28,3.28,0,0,0-2.61-1.3,3.13,3.13,0,0,0-2.53,1.25A6.13,6.13,0,0,0,898.58,38Z"/><path d="M920.59,40.37l2.35.29a5.76,5.76,0,0,1-2.06,3.21A6.16,6.16,0,0,1,917.05,45a6.09,6.09,0,0,1-4.66-1.82,7.18,7.18,0,0,1-1.72-5.11,7.47,7.47,0,0,1,1.74-5.28,5.89,5.89,0,0,1,4.51-1.88,5.73,5.73,0,0,1,4.39,1.84,7.34,7.34,0,0,1,1.7,5.18c0,.14,0,.34,0,.61H913a5.2,5.2,0,0,0,1.24,3.4,3.71,3.71,0,0,0,2.8,1.18,3.4,3.4,0,0,0,2.13-.66A4.34,4.34,0,0,0,920.59,40.37Zm-7.45-3.7h7.48a4.6,4.6,0,0,0-.86-2.55A3.46,3.46,0,0,0,917,32.8a3.6,3.6,0,0,0-2.63,1.05A4.24,4.24,0,0,0,913.14,36.67Z"/><path d="M942.12,40.37l2.35.29a5.76,5.76,0,0,1-2.06,3.21A6.16,6.16,0,0,1,938.58,45a6.09,6.09,0,0,1-4.66-1.82,7.18,7.18,0,0,1-1.72-5.11,7.47,7.47,0,0,1,1.74-5.28,5.89,5.89,0,0,1,4.51-1.88,5.73,5.73,0,0,1,4.39,1.84,7.34,7.34,0,0,1,1.7,5.18c0,.14,0,.34,0,.61h-10a5.2,5.2,0,0,0,1.24,3.4,3.71,3.71,0,0,0,2.8,1.18,3.4,3.4,0,0,0,2.13-.66A4.34,4.34,0,0,0,942.12,40.37Zm-7.45-3.7h7.48a4.6,4.6,0,0,0-.86-2.55,3.46,3.46,0,0,0-2.81-1.32,3.6,3.6,0,0,0-2.63,1.05A4.24,4.24,0,0,0,934.67,36.67Z"/><path d="M946.41,40.68l2.24-.35a3.21,3.21,0,0,0,1.05,2.08,3.68,3.68,0,0,0,2.42.72,3.53,3.53,0,0,0,2.32-.64,1.92,1.92,0,0,0,.75-1.5,1.4,1.4,0,0,0-.66-1.22,10.14,10.14,0,0,0-2.32-.77,21.28,21.28,0,0,1-3.46-1.1,3.47,3.47,0,0,1-1.55-4.76,3.69,3.69,0,0,1,1.11-1.28,4.72,4.72,0,0,1,1.44-.66,6.59,6.59,0,0,1,2-.28,7.55,7.55,0,0,1,2.77.46,3.72,3.72,0,0,1,1.76,1.24,4.76,4.76,0,0,1,.78,2.09l-2.22.3a2.47,2.47,0,0,0-.87-1.63,3.27,3.27,0,0,0-2-.58,3.66,3.66,0,0,0-2.23.52,1.51,1.51,0,0,0-.67,1.22,1.24,1.24,0,0,0,.28.8,1.9,1.9,0,0,0,.87.61c.22.08.89.28,2,.58a27.84,27.84,0,0,1,3.36,1.06,3.49,3.49,0,0,1,1.49,1.2,3.33,3.33,0,0,1,.55,2,3.79,3.79,0,0,1-.67,2.15A4.26,4.26,0,0,1,955,44.46a6.86,6.86,0,0,1-2.82.55,6.27,6.27,0,0,1-4-1.09A5.07,5.07,0,0,1,946.41,40.68Z"/><path d="M965.18,42.67l.33,2a8.11,8.11,0,0,1-1.72.21,3.81,3.81,0,0,1-1.92-.4,2.14,2.14,0,0,1-1-1,8.1,8.1,0,0,1-.28-2.7V33H959V31.23h1.66V27.89l2.26-1.37v4.71h2.28V33H962.9v7.89a3.93,3.93,0,0,0,.12,1.25,1,1,0,0,0,.39.45,1.5,1.5,0,0,0,.77.16A8.92,8.92,0,0,0,965.18,42.67Z"/><path d="M976.13,43.05a8.56,8.56,0,0,1-2.42,1.52,6.94,6.94,0,0,1-2.51.44,4.86,4.86,0,0,1-3.39-1.08,3.59,3.59,0,0,1-1.18-2.78,3.64,3.64,0,0,1,.45-1.8A3.56,3.56,0,0,1,968.25,38a5.52,5.52,0,0,1,1.63-.75,16.13,16.13,0,0,1,2-.34,20,20,0,0,0,4-.79c0-.31,0-.51,0-.59a2.53,2.53,0,0,0-.65-2,3.75,3.75,0,0,0-2.58-.78,3.92,3.92,0,0,0-2.36.57,3.4,3.4,0,0,0-1.13,2L967,35.07a5.52,5.52,0,0,1,1-2.31,4.33,4.33,0,0,1,2-1.36,8.82,8.82,0,0,1,3-.48,8,8,0,0,1,2.78.41,3.67,3.67,0,0,1,1.58,1,3.62,3.62,0,0,1,.7,1.56,12.13,12.13,0,0,1,.12,2.1v3.05a34.49,34.49,0,0,0,.14,4,5.17,5.17,0,0,0,.58,1.62h-2.37A4.82,4.82,0,0,1,976.13,43.05Zm-.19-5.11a16.56,16.56,0,0,1-3.7.87,8.13,8.13,0,0,0-2,.45,2,2,0,0,0-.9.75,2,2,0,0,0,.38,2.6,2.89,2.89,0,0,0,2,.61,4.7,4.7,0,0,0,2.33-.57,3.62,3.62,0,0,0,1.5-1.58,5.66,5.66,0,0,0,.36-2.29Z"/><path d="M988.93,44.71V31.23h2v1.89a4.8,4.8,0,0,1,1.67-1.59,4.62,4.62,0,0,1,2.39-.61,4.38,4.38,0,0,1,2.43.62,3.35,3.35,0,0,1,1.35,1.74,4.8,4.8,0,0,1,4.13-2.36A4.08,4.08,0,0,1,1006,32a4.78,4.78,0,0,1,1.07,3.42v9.26h-2.26V36.22a6.22,6.22,0,0,0-.22-2,1.93,1.93,0,0,0-.8-1,2.54,2.54,0,0,0-1.36-.37,3.17,3.17,0,0,0-2.35,1,4.19,4.19,0,0,0-.93,3v7.83h-2.27V36a3.89,3.89,0,0,0-.55-2.29,2.12,2.12,0,0,0-1.82-.76,3.26,3.26,0,0,0-1.77.51,2.9,2.9,0,0,0-1.18,1.49,8.5,8.5,0,0,0-.36,2.81v7Z"/><path d="M1019.17,43.05a8.46,8.46,0,0,1-2.43,1.52,6.89,6.89,0,0,1-2.5.44,4.86,4.86,0,0,1-3.39-1.08,3.6,3.6,0,0,1-1.19-2.78,3.64,3.64,0,0,1,.45-1.8,3.75,3.75,0,0,1,1.17-1.32,5.64,5.64,0,0,1,1.63-.75,16.13,16.13,0,0,1,2-.34,20.32,20.32,0,0,0,4.05-.79c0-.31,0-.51,0-.59a2.53,2.53,0,0,0-.64-2,3.77,3.77,0,0,0-2.59-.78,4,4,0,0,0-2.36.57,3.45,3.45,0,0,0-1.13,2l-2.22-.31a5.65,5.65,0,0,1,1-2.31,4.29,4.29,0,0,1,2-1.36,8.86,8.86,0,0,1,3-.48,8.06,8.06,0,0,1,2.79.41,3.2,3.2,0,0,1,2.28,2.58,12.44,12.44,0,0,1,.11,2.1v3.05a31.48,31.48,0,0,0,.15,4,4.91,4.91,0,0,0,.57,1.62h-2.37A4.82,4.82,0,0,1,1019.17,43.05Zm-.19-5.11a16.53,16.53,0,0,1-3.71.87,8.38,8.38,0,0,0-2,.45,2,2,0,0,0-.89.75,2,2,0,0,0,.37,2.6,2.93,2.93,0,0,0,2,.61,4.68,4.68,0,0,0,2.33-.57,3.62,3.62,0,0,0,1.5-1.58,5.47,5.47,0,0,0,.37-2.29Z"/><path d="M1024.79,44.71V31.23h2v1.91a4.81,4.81,0,0,1,4.26-2.22,5.62,5.62,0,0,1,2.23.44,3.59,3.59,0,0,1,1.52,1.15,4.44,4.44,0,0,1,.7,1.69,12.39,12.39,0,0,1,.13,2.22v8.29h-2.27v-8.2a6.09,6.09,0,0,0-.27-2.09,2.23,2.23,0,0,0-.93-1.11,3,3,0,0,0-1.59-.41,3.66,3.66,0,0,0-2.5.93c-.7.62-1,1.79-1,3.52v7.36Z"/><path d="M1048.31,40.37l2.35.29a5.76,5.76,0,0,1-2.06,3.21,6.16,6.16,0,0,1-3.83,1.14,6.09,6.09,0,0,1-4.66-1.82,7.13,7.13,0,0,1-1.72-5.11,7.47,7.47,0,0,1,1.74-5.28,5.87,5.87,0,0,1,4.51-1.88,5.73,5.73,0,0,1,4.39,1.84,7.38,7.38,0,0,1,1.7,5.18c0,.14,0,.34,0,.61h-10A5.2,5.2,0,0,0,1042,42a3.69,3.69,0,0,0,2.8,1.18,3.4,3.4,0,0,0,2.13-.66A4.34,4.34,0,0,0,1048.31,40.37Zm-7.45-3.7h7.48a4.6,4.6,0,0,0-.86-2.55,3.46,3.46,0,0,0-2.81-1.32,3.6,3.6,0,0,0-2.63,1.05A4.24,4.24,0,0,0,1040.86,36.67Z"/><path d="M1053.48,44.71V31.23h2v2a5.48,5.48,0,0,1,1.44-1.89,2.5,2.5,0,0,1,1.46-.46,4.4,4.4,0,0,1,2.33.74l-.78,2.12a3.22,3.22,0,0,0-1.66-.5,2.17,2.17,0,0,0-1.34.45,2.43,2.43,0,0,0-.84,1.25,8.79,8.79,0,0,0-.38,2.67v7.06Z"/><path d="M1070.84,43.05a8.46,8.46,0,0,1-2.43,1.52,6.89,6.89,0,0,1-2.5.44,4.86,4.86,0,0,1-3.39-1.08,3.6,3.6,0,0,1-1.19-2.78,3.64,3.64,0,0,1,.45-1.8A3.75,3.75,0,0,1,1063,38a5.64,5.64,0,0,1,1.63-.75,16.13,16.13,0,0,1,2-.34,20.32,20.32,0,0,0,4.05-.79c0-.31,0-.51,0-.59a2.53,2.53,0,0,0-.64-2,3.77,3.77,0,0,0-2.59-.78,4,4,0,0,0-2.36.57,3.45,3.45,0,0,0-1.13,2l-2.22-.31a5.52,5.52,0,0,1,1-2.31,4.29,4.29,0,0,1,2-1.36,8.86,8.86,0,0,1,3-.48,8.06,8.06,0,0,1,2.79.41,3.2,3.2,0,0,1,2.28,2.58,13.64,13.64,0,0,1,.11,2.1v3.05a31.48,31.48,0,0,0,.15,4,4.91,4.91,0,0,0,.57,1.62h-2.37A4.6,4.6,0,0,1,1070.84,43.05Zm-.19-5.11a16.67,16.67,0,0,1-3.71.87,8.38,8.38,0,0,0-2,.45,2,2,0,0,0-.89.75,2,2,0,0,0,.37,2.6,2.93,2.93,0,0,0,2,.61,4.7,4.7,0,0,0,2.33-.57,3.62,3.62,0,0,0,1.5-1.58,5.47,5.47,0,0,0,.37-2.29Z"/><path d="M11.67,82.32,13.91,82A3.15,3.15,0,0,0,15,84a3.6,3.6,0,0,0,2.41.73,3.57,3.57,0,0,0,2.32-.64,2,2,0,0,0,.76-1.51,1.41,1.41,0,0,0-.67-1.22,10,10,0,0,0-2.32-.77A20.63,20.63,0,0,1,14,79.53a3.4,3.4,0,0,1-1.46-1.28,3.36,3.36,0,0,1-.5-1.81,3.53,3.53,0,0,1,.41-1.67,3.69,3.69,0,0,1,1.11-1.28A4.79,4.79,0,0,1,15,72.83a6.54,6.54,0,0,1,2-.28,7.84,7.84,0,0,1,2.77.46,3.81,3.81,0,0,1,1.75,1.24,4.89,4.89,0,0,1,.79,2.09l-2.22.3A2.46,2.46,0,0,0,19.19,75a3.19,3.19,0,0,0-2.05-.59,3.75,3.75,0,0,0-2.23.52,1.52,1.52,0,0,0-.67,1.22,1.24,1.24,0,0,0,.28.8,1.9,1.9,0,0,0,.87.61c.23.09.89.28,2,.59a26.1,26.1,0,0,1,3.36,1.06,3.18,3.18,0,0,1,2,3.15,3.85,3.85,0,0,1-.66,2.15,4.25,4.25,0,0,1-1.91,1.56,6.91,6.91,0,0,1-2.83.56,6.22,6.22,0,0,1-4-1.1A5,5,0,0,1,11.67,82.32Z"/><path d="M34.65,82l2.35.29a5.76,5.76,0,0,1-2.06,3.21,6.16,6.16,0,0,1-3.83,1.15,6.09,6.09,0,0,1-4.66-1.83,7.12,7.12,0,0,1-1.72-5.11,7.5,7.5,0,0,1,1.74-5.28A5.87,5.87,0,0,1,31,72.55a5.73,5.73,0,0,1,4.39,1.84,7.38,7.38,0,0,1,1.7,5.18c0,.14,0,.34,0,.61h-10a5.23,5.23,0,0,0,1.24,3.41,3.73,3.73,0,0,0,2.8,1.18,3.46,3.46,0,0,0,2.13-.66A4.37,4.37,0,0,0,34.65,82ZM27.2,78.3h7.48a4.6,4.6,0,0,0-.86-2.55A3.46,3.46,0,0,0,31,74.43a3.57,3.57,0,0,0-2.63,1.06A4.19,4.19,0,0,0,27.2,78.3Z"/><path d="M47,86.34V67.73h2.27v6.68a5,5,0,0,1,4-1.86,5.41,5.41,0,0,1,2.59.59,3.5,3.5,0,0,1,1.57,1.64,7.65,7.65,0,0,1,.47,3v8.54H55.65V77.8a3.51,3.51,0,0,0-.74-2.5,2.71,2.71,0,0,0-2.08-.78,3.68,3.68,0,0,0-1.9.53,3,3,0,0,0-1.27,1.43A6.64,6.64,0,0,0,49.29,79v7.38Z"/><path d="M70.11,84.68a8.25,8.25,0,0,1-2.43,1.52,6.85,6.85,0,0,1-2.5.45,4.86,4.86,0,0,1-3.39-1.09,3.58,3.58,0,0,1-1.18-2.77,3.74,3.74,0,0,1,1.62-3.13,5.41,5.41,0,0,1,1.63-.75,18,18,0,0,1,2-.34,20,20,0,0,0,4-.79c0-.31,0-.51,0-.59a2.53,2.53,0,0,0-.64-2,3.75,3.75,0,0,0-2.58-.77,4,4,0,0,0-2.37.56,3.48,3.48,0,0,0-1.13,2L61,76.71a5.56,5.56,0,0,1,1-2.32A4.35,4.35,0,0,1,64,73a8.76,8.76,0,0,1,3-.48,8,8,0,0,1,2.79.41,3.73,3.73,0,0,1,1.58,1,3.62,3.62,0,0,1,.7,1.56,12.52,12.52,0,0,1,.11,2.1v3a31.37,31.37,0,0,0,.15,4,5.31,5.31,0,0,0,.57,1.62H70.56A5,5,0,0,1,70.11,84.68Zm-.19-5.11a16.53,16.53,0,0,1-3.71.87,8.66,8.66,0,0,0-2,.45,2,2,0,0,0-.9.75,2.05,2.05,0,0,0,.37,2.61,3,3,0,0,0,2,.61,4.75,4.75,0,0,0,2.34-.58,3.57,3.57,0,0,0,1.5-1.58,5.66,5.66,0,0,0,.36-2.29Z"/><path d="M75.68,86.34V67.73H78V86.34Z"/><path d="M81.42,86.34V67.73h2.27V86.34Z"/><path d="M95.94,84.68a8.25,8.25,0,0,1-2.43,1.52,6.89,6.89,0,0,1-2.5.45,4.86,4.86,0,0,1-3.39-1.09,3.59,3.59,0,0,1-1.19-2.77A3.68,3.68,0,0,1,86.88,81a3.75,3.75,0,0,1,1.17-1.32,5.58,5.58,0,0,1,1.64-.75,17.57,17.57,0,0,1,2-.34,20.17,20.17,0,0,0,4-.79c0-.31,0-.51,0-.59a2.53,2.53,0,0,0-.64-2,3.75,3.75,0,0,0-2.58-.77,4,4,0,0,0-2.37.56A3.48,3.48,0,0,0,89,77l-2.22-.3a5.7,5.7,0,0,1,1-2.32,4.37,4.37,0,0,1,2-1.36,8.86,8.86,0,0,1,3-.48,8.06,8.06,0,0,1,2.79.41,3.2,3.2,0,0,1,2.28,2.58,12.52,12.52,0,0,1,.11,2.1v3a31.37,31.37,0,0,0,.15,4,5.31,5.31,0,0,0,.57,1.62H96.39A4.82,4.82,0,0,1,95.94,84.68Zm-.19-5.11a16.53,16.53,0,0,1-3.71.87,8.92,8.92,0,0,0-2,.45,2,2,0,0,0-.89.75,2,2,0,0,0,.37,2.61,3,3,0,0,0,2,.61,4.68,4.68,0,0,0,2.33-.58,3.57,3.57,0,0,0,1.5-1.58,5.47,5.47,0,0,0,.37-2.29Z"/><path d="M111.27,86.34l-2.2-13.48h2.22l1.15,7.43c.13.81.28,2.13.47,4,.43-1,1-2.05,1.67-3.29l4.48-8.11h2.4L113.8,86.34Z"/><path d="M137.55,81.4l2.23.29a5.83,5.83,0,0,1-1.87,3.64,5.43,5.43,0,0,1-3.7,1.32,5.75,5.75,0,0,1-4.42-1.81,7.41,7.41,0,0,1-1.67-5.19,9.4,9.4,0,0,1,.72-3.82A5.07,5.07,0,0,1,131,73.37a6.47,6.47,0,0,1,3.19-.82,5.49,5.49,0,0,1,3.57,1.12,5.12,5.12,0,0,1,1.78,3.15l-2.21.34a3.73,3.73,0,0,0-1.11-2,2.88,2.88,0,0,0-1.94-.69,3.52,3.52,0,0,0-2.79,1.24,5.94,5.94,0,0,0-1.07,3.92,6.12,6.12,0,0,0,1,4,3.34,3.34,0,0,0,2.69,1.23,3.16,3.16,0,0,0,2.23-.83A4.1,4.1,0,0,0,137.55,81.4Z"/><path d="M140.88,79.6q0-3.75,2.07-5.55a6.19,6.19,0,0,1,4.21-1.5,6,6,0,0,1,4.51,1.83,6.94,6.94,0,0,1,1.75,5,8.91,8.91,0,0,1-.78,4.09,5.42,5.42,0,0,1-2.25,2.32,6.55,6.55,0,0,1-3.23.83,6,6,0,0,1-4.55-1.82A7.26,7.26,0,0,1,140.88,79.6Zm2.33,0a5.76,5.76,0,0,0,1.12,3.88,3.72,3.72,0,0,0,5.64,0,6,6,0,0,0,1.12-4A5.62,5.62,0,0,0,150,75.73a3.74,3.74,0,0,0-5.63,0A5.71,5.71,0,0,0,143.21,79.6Z"/><path d="M156.08,86.34V72.86h2v1.89a4.75,4.75,0,0,1,1.68-1.59,4.58,4.58,0,0,1,2.38-.61,4.36,4.36,0,0,1,2.44.63A3.3,3.3,0,0,1,166,74.92a4.8,4.8,0,0,1,4.13-2.37,4,4,0,0,1,3.07,1.12,4.78,4.78,0,0,1,1.07,3.42v9.25H172V77.85a6.26,6.26,0,0,0-.22-2,1.93,1.93,0,0,0-.8-1,2.54,2.54,0,0,0-1.36-.37,3.15,3.15,0,0,0-2.34,1,4.15,4.15,0,0,0-.94,3v7.83H164V77.58a3.85,3.85,0,0,0-.55-2.28,2.1,2.1,0,0,0-1.82-.77,3.28,3.28,0,0,0-1.77.51,3,3,0,0,0-1.18,1.49,8.53,8.53,0,0,0-.36,2.82v7Z"/><path d="M176.74,79.6q0-3.75,2.07-5.55a6.19,6.19,0,0,1,4.21-1.5,6,6,0,0,1,4.51,1.83,6.94,6.94,0,0,1,1.75,5,9.05,9.05,0,0,1-.77,4.09,5.5,5.5,0,0,1-2.26,2.32,6.53,6.53,0,0,1-3.23.83,6,6,0,0,1-4.55-1.82A7.3,7.3,0,0,1,176.74,79.6Zm2.33,0a5.81,5.81,0,0,0,1.12,3.88,3.72,3.72,0,0,0,5.64,0,5.89,5.89,0,0,0,1.12-4,5.62,5.62,0,0,0-1.13-3.79,3.74,3.74,0,0,0-5.63,0A5.77,5.77,0,0,0,179.07,79.6Z"/><path d="M192.57,75.46v-2.6h2.59v2.6Zm0,10.88v-2.6h2.59v2.6Z"/><path d="M410.21,52.31q-5.44,0-5.45-6.89a24,24,0,0,1,3.18-11.7Q411.12,28,416,28q5.13,0,5.13,6.75A24.75,24.75,0,0,1,418,46.5Q414.92,52.3,410.21,52.31Zm-1.73-11.86a29.26,29.26,0,0,0-.9,6.48q0,3.95,2.95,4,2.1,0,3.84-2.76a25.39,25.39,0,0,0,2.9-7.67Zm.42-1.61h8.72a33.72,33.72,0,0,0,.67-5.57c0-2.58-.88-3.88-2.62-3.88q-2,0-3.75,2.46A22.72,22.72,0,0,0,408.9,38.84Z"/><path d="M347.54,35.49a3.78,3.78,0,0,0-.88-2.23,2.86,2.86,0,0,0-2.12-.69,3.39,3.39,0,0,0-1.45.3,2.41,2.41,0,0,0-1,.87,2.47,2.47,0,0,0-.37,1.34,2.69,2.69,0,0,0,.25,1.15,4,4,0,0,0,.86,1.09,13.88,13.88,0,0,0,1.69,1.3,8,8,0,0,1,2.31,2.15,4.42,4.42,0,0,1,.66,2.41,4.74,4.74,0,0,1-.76,2.73,4.6,4.6,0,0,1-2.09,1.66,7.66,7.66,0,0,1-3,.55,16.44,16.44,0,0,1-2.79-.22,25.63,25.63,0,0,1-2.52-.57l.8-3.69h1.32a3.64,3.64,0,0,0,.89,2.35,3,3,0,0,0,2.25.78,3.4,3.4,0,0,0,2.36-.76,2.56,2.56,0,0,0,.85-2,3.36,3.36,0,0,0-.25-1.31,3.54,3.54,0,0,0-.8-1.11,12,12,0,0,0-1.55-1.22A13.37,13.37,0,0,1,340.46,39a5,5,0,0,1-1-1.43,3.9,3.9,0,0,1-.37-1.72,4.31,4.31,0,0,1,.7-2.46,4.41,4.41,0,0,1,2-1.59,7.72,7.72,0,0,1,3-.54,15.24,15.24,0,0,1,4.94.73l-.78,3.52Z"/><path d="M363.42,44.45A14.5,14.5,0,0,1,361,46.63a8,8,0,0,1-2.31,1.15,8.82,8.82,0,0,1-2.54.34,5.6,5.6,0,0,1-2.31-.44,4.36,4.36,0,0,1-1.6-1.19,4.81,4.81,0,0,1-.94-1.81A7.91,7.91,0,0,1,351,42.4a13.44,13.44,0,0,1,.65-3.93,11.68,11.68,0,0,1,2-3.76,9.26,9.26,0,0,1,3.17-2.58,8.8,8.8,0,0,1,3.94-.91,4.8,4.8,0,0,1,3.08.84,3.18,3.18,0,0,1,1,2.61A4.69,4.69,0,0,1,362.14,39c-1.81,1-4.48,1.45-8,1.45a11.16,11.16,0,0,0-.21,2.22,3.94,3.94,0,0,0,.7,2.61,2.84,2.84,0,0,0,2.27.81,5.92,5.92,0,0,0,2.83-.68,11.72,11.72,0,0,0,2.67-2.1Zm-9-5.42a21.43,21.43,0,0,0,2.74-.18,11.23,11.23,0,0,0,2-.45,5.14,5.14,0,0,0,1.41-.67,3.66,3.66,0,0,0,.89-.86,3.17,3.17,0,0,0,.46-1,4.85,4.85,0,0,0,.13-1.09,2.51,2.51,0,0,0-.49-1.63,1.72,1.72,0,0,0-1.43-.59,3.86,3.86,0,0,0-2.33.86,7.88,7.88,0,0,0-2,2.33A13,13,0,0,0,354.39,39Z"/><path d="M381.49,47.85h-5.34l2.15-8.68c.14-.56.27-1.18.4-1.85a9.69,9.69,0,0,0,.2-1.81,2.87,2.87,0,0,0-.42-1.75,1.56,1.56,0,0,0-1.3-.52,2.78,2.78,0,0,0-1.53.55,8.22,8.22,0,0,0-1.73,1.66,14.68,14.68,0,0,0-1.51,2.24,9.49,9.49,0,0,0-1,2.76l-1.55,7.4H367l2.58-11.68.23-1.16a7.72,7.72,0,0,0,.14-1.28,1.62,1.62,0,0,0-.14-.74.89.89,0,0,0-.5-.4,4.73,4.73,0,0,0-1.18-.17l.21-.91,3.85-.16h1L372,35.8l.2.07a15.11,15.11,0,0,1,3.21-3.5,5.17,5.17,0,0,1,3.09-1.13,3.21,3.21,0,0,1,2.49.91,3.83,3.83,0,0,1,.85,2.71,9.4,9.4,0,0,1-.11,1.34q-.11.72-.24,1.29l-1.43,6.08a9.24,9.24,0,0,0-.29,2,1.68,1.68,0,0,0,.17.81,1.07,1.07,0,0,0,.53.44,4.54,4.54,0,0,0,1.17.24Z"/><path d="M400.51,55.28a7.71,7.71,0,0,1-3.9-.87,5,5,0,0,1-2.16-2.54,11.19,11.19,0,0,1-.67-4.18,28.78,28.78,0,0,1,.3-3.93c.27-1.84.67-3.9,1.18-6.17s1-4.14,1.52-5.64a20.79,20.79,0,0,1,1.87-4.16,9.32,9.32,0,0,1,2.19-2.55,7.94,7.94,0,0,1,2.69-1.4,13.37,13.37,0,0,1,4-.52l-.3,1.4a7.37,7.37,0,0,0-2.46.35,5,5,0,0,0-1.73,1,8.51,8.51,0,0,0-1.68,2.21,23.59,23.59,0,0,0-1.8,4.42q-.75,2.36-1.5,5.76c-.4,1.86-.73,3.53-1,5a32.93,32.93,0,0,0-.51,5.16,8.31,8.31,0,0,0,.48,3.14,3.07,3.07,0,0,0,1.4,1.62,5.19,5.19,0,0,0,2.38.47Z"/><path d="M424.27,23.32a7.66,7.66,0,0,1,3.9.87,5.06,5.06,0,0,1,2.17,2.54,11.44,11.44,0,0,1,.67,4.18,26.24,26.24,0,0,1-.31,3.85q-.4,3-1.25,6.61c-.54,2.24-1,4.08-1.53,5.5a19.78,19.78,0,0,1-1.81,4,9.25,9.25,0,0,1-2.17,2.52,8,8,0,0,1-2.71,1.39,13.63,13.63,0,0,1-4,.51l.31-1.4a7.38,7.38,0,0,0,2.45-.34,5.26,5.26,0,0,0,1.71-1,8.64,8.64,0,0,0,1.73-2.27,24.7,24.7,0,0,0,1.79-4.42c.56-1.8,1.08-3.87,1.58-6.23.4-1.82.71-3.44.94-4.85a32.35,32.35,0,0,0,.45-4.81,8.2,8.2,0,0,0-.49-3.16,3,3,0,0,0-1.4-1.6,5.16,5.16,0,0,0-2.36-.47Z"/><path d="M459.17,23.39,441,55.2h-2.71l18.24-31.81Z"/><path d="M533.18,52.31q-5.45,0-5.45-6.89a23.87,23.87,0,0,1,3.19-11.7Q534.1,28,539,28q5.13,0,5.13,6.75A24.75,24.75,0,0,1,541,46.5Q537.9,52.3,533.18,52.31Zm-1.73-11.86a29.26,29.26,0,0,0-.9,6.48c0,2.63,1,4,3,4q2.12,0,3.85-2.76a25.41,25.41,0,0,0,2.89-7.67Zm.42-1.61h8.73a33.48,33.48,0,0,0,.66-5.57c0-2.58-.87-3.88-2.61-3.88q-2,0-3.75,2.46A22.47,22.47,0,0,0,531.87,38.84Z"/><path d="M471.78,35.61a7.64,7.64,0,0,0-.21-1.88,1.63,1.63,0,0,0-.57-.87,2,2,0,0,0-1.13-.29,4.25,4.25,0,0,0-3.08,1.37,10.07,10.07,0,0,0-2.23,3.9,14.86,14.86,0,0,0-.87,4.85,6.58,6.58,0,0,0,.13,1.35,2.87,2.87,0,0,0,.44,1.09,2.25,2.25,0,0,0,.83.73,3,3,0,0,0,1.32.26,5.75,5.75,0,0,0,2.67-.59,10.08,10.08,0,0,0,2.38-1.85l1,1a11.54,11.54,0,0,1-3.22,2.6,7.69,7.69,0,0,1-3.49.82,4.67,4.67,0,0,1-3.73-1.47,6.35,6.35,0,0,1-1.27-4.27,13.43,13.43,0,0,1,.68-4,11.8,11.8,0,0,1,2-3.85,8.37,8.37,0,0,1,3.06-2.47,8.61,8.61,0,0,1,3.73-.82,16.38,16.38,0,0,1,2.37.15,16.11,16.11,0,0,1,1.79.36l-.83,3.86Z"/><path d="M481.3,48.14a5.45,5.45,0,0,1-4.08-1.49,5.84,5.84,0,0,1-1.45-4.27A13.52,13.52,0,0,1,476,40a14.59,14.59,0,0,1,.91-3.18,10.22,10.22,0,0,1,2-3,8.24,8.24,0,0,1,2.75-1.92,8.65,8.65,0,0,1,3.34-.65,6.1,6.1,0,0,1,3.19.75A4.31,4.31,0,0,1,490,34a7.47,7.47,0,0,1,.56,3,13.74,13.74,0,0,1-.42,3.25,13.35,13.35,0,0,1-1.78,4.29,7.89,7.89,0,0,1-2.94,2.67A8.83,8.83,0,0,1,481.3,48.14Zm-2.56-5a4.21,4.21,0,0,0,.77,2.78,2.93,2.93,0,0,0,2.34.9,3.81,3.81,0,0,0,2.95-1.51,10.67,10.67,0,0,0,2-4.21,18.16,18.16,0,0,0,.75-4.76,4.59,4.59,0,0,0-.71-2.78,2.63,2.63,0,0,0-2.22-.93,4,4,0,0,0-3.08,1.49,10.48,10.48,0,0,0-2.07,4.25A18.36,18.36,0,0,0,478.74,43.11Z"/><path d="M503.18,35.49a3.78,3.78,0,0,0-.88-2.23,2.9,2.9,0,0,0-2.13-.69,3.37,3.37,0,0,0-1.44.3,2.33,2.33,0,0,0-1.39,2.21,2.55,2.55,0,0,0,.25,1.15,4,4,0,0,0,.86,1.09,13.14,13.14,0,0,0,1.69,1.3,8,8,0,0,1,2.31,2.15,4.42,4.42,0,0,1,.66,2.41,4.81,4.81,0,0,1-.76,2.73,4.6,4.6,0,0,1-2.09,1.66,7.66,7.66,0,0,1-3,.55,16.44,16.44,0,0,1-2.79-.22,25.63,25.63,0,0,1-2.52-.57l.8-3.69h1.32A3.64,3.64,0,0,0,495,46a3,3,0,0,0,2.25.78,3.4,3.4,0,0,0,2.36-.76,2.56,2.56,0,0,0,.85-2,3.19,3.19,0,0,0-.26-1.31,3.5,3.5,0,0,0-.79-1.11,12,12,0,0,0-1.55-1.22A13.37,13.37,0,0,1,496.1,39a5.19,5.19,0,0,1-1-1.43,4,4,0,0,1-.36-1.72,4.31,4.31,0,0,1,.7-2.46,4.41,4.41,0,0,1,2-1.59,7.69,7.69,0,0,1,3-.54,15.13,15.13,0,0,1,4.93.73l-.78,3.52Z"/><path d="M521.67,55.28a7.69,7.69,0,0,1-3.9-.87,5,5,0,0,1-2.16-2.54,11.19,11.19,0,0,1-.67-4.18,28.78,28.78,0,0,1,.3-3.93c.27-1.84.67-3.9,1.18-6.17s1-4.14,1.52-5.64a20.79,20.79,0,0,1,1.87-4.16A9.47,9.47,0,0,1,522,25.24a8.08,8.08,0,0,1,2.7-1.4,13.37,13.37,0,0,1,4-.52l-.31,1.4a7.46,7.46,0,0,0-2.46.35,5.14,5.14,0,0,0-1.73,1,9,9,0,0,0-1.68,2.21,25,25,0,0,0-1.8,4.42q-.74,2.36-1.49,5.76c-.41,1.86-.73,3.53-1,5a32.93,32.93,0,0,0-.51,5.16,8.31,8.31,0,0,0,.48,3.14,3.05,3.05,0,0,0,1.39,1.62,5.26,5.26,0,0,0,2.39.47Z"/><path d="M545.43,23.32a7.71,7.71,0,0,1,3.9.87,5,5,0,0,1,2.16,2.54,11.23,11.23,0,0,1,.67,4.18,27.58,27.58,0,0,1-.3,3.85q-.4,3-1.26,6.61c-.53,2.24-1,4.08-1.52,5.5a20.35,20.35,0,0,1-1.81,4,9.42,9.42,0,0,1-2.17,2.52,8,8,0,0,1-2.71,1.39,13.63,13.63,0,0,1-4,.51l.31-1.4a7.38,7.38,0,0,0,2.45-.34,5.22,5.22,0,0,0,1.7-1,8.43,8.43,0,0,0,1.73-2.27,24,24,0,0,0,1.79-4.42C547,44,547.49,42,548,39.61c.4-1.82.71-3.44.93-4.85a31.24,31.24,0,0,0,.46-4.81,8.2,8.2,0,0,0-.49-3.16,3.06,3.06,0,0,0-1.4-1.6,5.2,5.2,0,0,0-2.37-.47Z"/><path d="M281.1,50.39q-5.44,0-5.45-6.89a24,24,0,0,1,3.18-11.71Q282,26,286.9,26,292,26,292,32.79a24.78,24.78,0,0,1-3.11,11.79Q285.82,50.39,281.1,50.39Zm-1.73-11.86a29.26,29.26,0,0,0-.9,6.48q0,3.95,2.95,3.94c1.4,0,2.68-.91,3.84-2.75a25.39,25.39,0,0,0,2.9-7.67Zm.42-1.61h8.72a33.48,33.48,0,0,0,.66-5.57q0-3.88-2.61-3.88-2,0-3.75,2.46A22.37,22.37,0,0,0,279.79,36.92Z"/><path d="M217.24,44.7a12.31,12.31,0,0,1-2.75,2.56,5.35,5.35,0,0,1-2.89.86,3.57,3.57,0,0,1-2.68-.92,3.74,3.74,0,0,1-.88-2.69,11.15,11.15,0,0,1,.3-2.41l2.11-8.86h-2.53l.19-.88a4.54,4.54,0,0,0,1.58-.43,3.08,3.08,0,0,0,1-.84,5.89,5.89,0,0,0,.73-1.36c.23-.56.51-1.37.85-2.44h2.34l-.93,4.22h5.38l-.37,1.73h-5.4l-1.63,6.63A19.37,19.37,0,0,0,211,44a2.4,2.4,0,0,0,.45,1.58,1.62,1.62,0,0,0,1.32.54,2.86,2.86,0,0,0,1.64-.61,10.15,10.15,0,0,0,1.87-1.83Z"/><path d="M231.93,32.35l1.56-1.13,1.09.27L232,43.1c-.16.68-.27,1.21-.32,1.58a5.88,5.88,0,0,0-.09.91,1.24,1.24,0,0,0,.39,1,2.92,2.92,0,0,0,1.5.4l-.16.84h-4.85l1.07-4.29-.22-.07a15.26,15.26,0,0,1-3.09,3.5,5,5,0,0,1-3.09,1.11,3.35,3.35,0,0,1-2.89-1.42,6.71,6.71,0,0,1-1-4,14.84,14.84,0,0,1,.38-3.29,13.33,13.33,0,0,1,1.12-3.12,11.53,11.53,0,0,1,1.81-2.61,8.31,8.31,0,0,1,2.44-1.8,6.87,6.87,0,0,1,3-.66,7.67,7.67,0,0,1,2,.25A6.77,6.77,0,0,1,231.93,32.35Zm-1.49,5.09a10.41,10.41,0,0,0,.2-1.21c0-.35.05-.72.05-1.12a2.84,2.84,0,0,0-.56-1.94,2.45,2.45,0,0,0-1.87-.6,4.07,4.07,0,0,0-1.35.23,4.39,4.39,0,0,0-1.31.77A6.77,6.77,0,0,0,224.34,35a10.22,10.22,0,0,0-1.1,2.12,14.53,14.53,0,0,0-.76,2.67,15,15,0,0,0-.27,2.78,5.76,5.76,0,0,0,.48,2.66,1.71,1.71,0,0,0,1.62.88,2.84,2.84,0,0,0,1.1-.24,4.84,4.84,0,0,0,1.26-.88,12.75,12.75,0,0,0,1.58-1.89,12,12,0,0,0,1.26-2.27,13.68,13.68,0,0,0,.77-2.64Z"/><path d="M252.05,47.85h-5.34l2.16-8.68c.13-.56.26-1.18.39-1.85a9.69,9.69,0,0,0,.2-1.81,2.87,2.87,0,0,0-.42-1.75,1.54,1.54,0,0,0-1.29-.52,2.78,2.78,0,0,0-1.54.55,8.2,8.2,0,0,0-1.72,1.66A14.06,14.06,0,0,0,243,37.69a10.11,10.11,0,0,0-1,2.76l-1.54,7.4h-2.94l2.58-11.68c.06-.26.13-.65.23-1.16a7.72,7.72,0,0,0,.14-1.28,1.62,1.62,0,0,0-.14-.74.9.9,0,0,0-.49-.4,4.9,4.9,0,0,0-1.18-.17l.2-.91,3.85-.16h1l-1.14,4.45.21.07a15.1,15.1,0,0,1,3.2-3.5,5.17,5.17,0,0,1,3.09-1.13,3.25,3.25,0,0,1,2.5.91,3.88,3.88,0,0,1,.84,2.71,8.14,8.14,0,0,1-.11,1.34q-.1.72-.24,1.29l-1.43,6.08a9.24,9.24,0,0,0-.29,2,1.68,1.68,0,0,0,.17.81,1.11,1.11,0,0,0,.53.44,4.65,4.65,0,0,0,1.17.24Z"/><path d="M271.08,55.28a7.73,7.73,0,0,1-3.91-.87A5.05,5.05,0,0,1,265,51.87a11.19,11.19,0,0,1-.67-4.18,27.38,27.38,0,0,1,.31-3.93q.41-2.76,1.18-6.17c.51-2.26,1-4.14,1.51-5.64a20.79,20.79,0,0,1,1.87-4.16,9.68,9.68,0,0,1,2.19-2.55,7.89,7.89,0,0,1,2.7-1.4,13.25,13.25,0,0,1,4-.52l-.3,1.4a7.37,7.37,0,0,0-2.46.35,5,5,0,0,0-1.73,1,8.51,8.51,0,0,0-1.68,2.21,25,25,0,0,0-1.8,4.42q-.75,2.36-1.49,5.76-.62,2.79-1,5a32.93,32.93,0,0,0-.51,5.16,8.09,8.09,0,0,0,.49,3.14A3,3,0,0,0,269,53.41a5.22,5.22,0,0,0,2.38.47Z"/><path d="M294.83,23.32a7.73,7.73,0,0,1,3.91.87,5.09,5.09,0,0,1,2.16,2.54,11.23,11.23,0,0,1,.67,4.18,26.24,26.24,0,0,1-.31,3.85q-.4,3-1.25,6.61c-.53,2.24-1,4.08-1.53,5.5a19.78,19.78,0,0,1-1.81,4,9.25,9.25,0,0,1-2.17,2.52,8,8,0,0,1-2.71,1.39,13.58,13.58,0,0,1-4,.51l.31-1.4a7.38,7.38,0,0,0,2.45-.34,5.26,5.26,0,0,0,1.71-1A8.64,8.64,0,0,0,294,50.26a24.7,24.7,0,0,0,1.79-4.42c.56-1.8,1.09-3.87,1.58-6.23.4-1.82.71-3.44.94-4.85a32.56,32.56,0,0,0,.46-4.81,8.18,8.18,0,0,0-.5-3.16,3,3,0,0,0-1.4-1.6,5.16,5.16,0,0,0-2.36-.47Z"/><path d="M751.73,50.39q-5.46,0-5.45-6.89a24,24,0,0,1,3.18-11.71Q752.64,26,757.53,26q5.12,0,5.12,6.75a24.77,24.77,0,0,1-3.1,11.79Q756.45,50.39,751.73,50.39ZM750,38.53a29.26,29.26,0,0,0-.9,6.48q0,3.95,3,3.94c1.4,0,2.68-.91,3.84-2.75a25.41,25.41,0,0,0,2.89-7.67Zm.43-1.61h8.72a33.48,33.48,0,0,0,.66-5.57q0-3.88-2.61-3.88-2,0-3.75,2.46A22.37,22.37,0,0,0,750.42,36.92Z"/><path d="M687.86,44.7a11.9,11.9,0,0,1-2.75,2.56,5.3,5.3,0,0,1-2.88.86,3.57,3.57,0,0,1-2.68-.92,3.74,3.74,0,0,1-.88-2.69,11.15,11.15,0,0,1,.3-2.41l2.11-8.86h-2.53l.18-.88a4.54,4.54,0,0,0,1.59-.43,2.94,2.94,0,0,0,1-.84,5.53,5.53,0,0,0,.74-1.36c.23-.56.51-1.37.85-2.44h2.34l-.93,4.22h5.38l-.37,1.73h-5.4l-1.63,6.63A19.37,19.37,0,0,0,681.6,44a2.4,2.4,0,0,0,.45,1.58,1.62,1.62,0,0,0,1.32.54,2.81,2.81,0,0,0,1.63-.61,9.86,9.86,0,0,0,1.88-1.83Z"/><path d="M702.56,32.35l1.56-1.13,1.08.27L702.61,43.1c-.16.68-.27,1.21-.32,1.58a5.88,5.88,0,0,0-.09.91,1.24,1.24,0,0,0,.39,1,2.91,2.91,0,0,0,1.49.4l-.15.84h-4.85l1.07-4.29-.22-.07a15.26,15.26,0,0,1-3.09,3.5,5,5,0,0,1-3.09,1.11,3.35,3.35,0,0,1-2.89-1.42,6.64,6.64,0,0,1-1-4,15.44,15.44,0,0,1,.37-3.29,13.35,13.35,0,0,1,1.13-3.12,11.53,11.53,0,0,1,1.81-2.61,8.18,8.18,0,0,1,2.44-1.8,6.87,6.87,0,0,1,3-.66,7.67,7.67,0,0,1,2,.25A6.88,6.88,0,0,1,702.56,32.35Zm-1.5,5.09a10.69,10.69,0,0,0,.21-1.21c0-.35.05-.72.05-1.12a2.84,2.84,0,0,0-.56-1.94,2.47,2.47,0,0,0-1.87-.6,4,4,0,0,0-1.35.23,4.39,4.39,0,0,0-1.31.77A7.09,7.09,0,0,0,695,35a10.72,10.72,0,0,0-1.09,2.12,14.53,14.53,0,0,0-.76,2.67,15,15,0,0,0-.28,2.78,5.75,5.75,0,0,0,.49,2.66,1.71,1.71,0,0,0,1.62.88,2.79,2.79,0,0,0,1.09-.24A4.87,4.87,0,0,0,697.3,45a12.75,12.75,0,0,0,1.58-1.89,12,12,0,0,0,1.26-2.27,13.68,13.68,0,0,0,.77-2.64Z"/><path d="M722.68,47.85h-5.34l2.15-8.68c.14-.56.27-1.18.4-1.85a9.69,9.69,0,0,0,.2-1.81,2.87,2.87,0,0,0-.42-1.75,1.56,1.56,0,0,0-1.3-.52,2.78,2.78,0,0,0-1.53.55,8,8,0,0,0-1.72,1.66,14.06,14.06,0,0,0-1.52,2.24,9.49,9.49,0,0,0-1,2.76l-1.55,7.4h-2.93l2.58-11.68L711,35a7.72,7.72,0,0,0,.14-1.28A1.62,1.62,0,0,0,711,33a.89.89,0,0,0-.5-.4,4.73,4.73,0,0,0-1.18-.17l.21-.91,3.85-.16h1l-1.14,4.45.2.07a15.11,15.11,0,0,1,3.21-3.5,5.17,5.17,0,0,1,3.09-1.13,3.21,3.21,0,0,1,2.49.91,3.83,3.83,0,0,1,.85,2.71,8.14,8.14,0,0,1-.11,1.34q-.1.72-.24,1.29l-1.43,6.08a9.24,9.24,0,0,0-.29,2,1.68,1.68,0,0,0,.17.81,1.11,1.11,0,0,0,.53.44,4.65,4.65,0,0,0,1.17.24Z"/><path d="M741.7,55.28a7.71,7.71,0,0,1-3.9-.87,5,5,0,0,1-2.16-2.54,11.19,11.19,0,0,1-.67-4.18,28.78,28.78,0,0,1,.3-3.93c.27-1.84.67-3.9,1.18-6.17s1-4.14,1.52-5.64a20.79,20.79,0,0,1,1.87-4.16A9.5,9.5,0,0,1,742,25.24a7.94,7.94,0,0,1,2.69-1.4,13.37,13.37,0,0,1,4-.52l-.3,1.4a7.37,7.37,0,0,0-2.46.35,5,5,0,0,0-1.73,1,8.51,8.51,0,0,0-1.68,2.21,23.59,23.59,0,0,0-1.8,4.42q-.75,2.36-1.5,5.76c-.4,1.86-.73,3.53-1,5a32.93,32.93,0,0,0-.51,5.16,8.31,8.31,0,0,0,.48,3.14,3.07,3.07,0,0,0,1.4,1.62,5.22,5.22,0,0,0,2.38.47Z"/><path d="M765.46,23.32a7.66,7.66,0,0,1,3.9.87,5.06,5.06,0,0,1,2.17,2.54,11.44,11.44,0,0,1,.67,4.18,27.7,27.7,0,0,1-.31,3.85q-.4,3-1.25,6.61c-.54,2.24-1,4.08-1.53,5.5a20.35,20.35,0,0,1-1.81,4,9.25,9.25,0,0,1-2.17,2.52,8,8,0,0,1-2.71,1.39,13.63,13.63,0,0,1-4,.51l.31-1.4a7.38,7.38,0,0,0,2.45-.34,5.12,5.12,0,0,0,1.7-1,8.44,8.44,0,0,0,1.74-2.27,24.7,24.7,0,0,0,1.79-4.42C767,44,767.52,42,768,39.61c.4-1.82.71-3.44.94-4.85a32.35,32.35,0,0,0,.45-4.81,8.2,8.2,0,0,0-.49-3.16,3,3,0,0,0-1.4-1.6,5.16,5.16,0,0,0-2.36-.47Z"/></svg>