<svg id="Capa_1" data-name="Capa 1" xmlns="http://www.w3.org/2000/svg" viewBox="0 0 779.89 105.65"><line x1="376.05" y1="54.56" x2="417.05" y2="54.56" style="fill:none;stroke:#000;stroke-miterlimit:10;stroke-width:2px"/><polygon points="413.07 57.95 416.46 54.56 413.07 51.17 415.95 51.17 419.34 54.56 415.95 57.95 413.07 57.95"/><path d="M69.68,48.39H50.78V45.11h18.9Zm0,8.69H50.78V53.8h18.9Z"/><path d="M565.25,53.81h-18.9V50.53h18.9Zm0,8.69h-18.9V59.22h18.9Z"/><path d="M24.71,64.68a3,3,0,0,0,1.11-.31,2,2,0,0,0,.63-.62A5.25,5.25,0,0,0,27,62.54c.17-.52.37-1.35.62-2.49l.54-2.5H17.82l.37-1.83L32.31,38.84h3.22L31.84,55.66h.66a4.86,4.86,0,0,0,1.5-.17,1.82,1.82,0,0,0,.79-.56,5.9,5.9,0,0,0,.74-1.4h1.75l-1.11,4H31.44l-.62,2.82a12.77,12.77,0,0,0-.24,1.5,9.74,9.74,0,0,0-.07,1.07,1.69,1.69,0,0,0,.4,1.28,2.46,2.46,0,0,0,1.5.46l-.22,1H24.5Zm-3.42-9h7.3l1-4.86q.84-3.84,1.87-7.66h-.28L21.35,55.39Z"/><path d="M91.22,44.14l.8-3.75a21.82,21.82,0,0,1,4-1.32,17.49,17.49,0,0,1,3.8-.4,9.72,9.72,0,0,1,2.39.29,6.13,6.13,0,0,1,2,.9,4.35,4.35,0,0,1,1.33,1.55,4.83,4.83,0,0,1,.5,2.26,7,7,0,0,1-.7,3.19A7.48,7.48,0,0,1,103,49.43a18.49,18.49,0,0,1-4.26,2.23l0,.21a6.72,6.72,0,0,1,3.69,2.05,5.38,5.38,0,0,1,1.28,3.63,8.23,8.23,0,0,1-.7,3.27,7.82,7.82,0,0,1-2,2.79A8.35,8.35,0,0,1,98,65.36a14.32,14.32,0,0,1-4.32.59,19.55,19.55,0,0,1-3.82-.4,15.29,15.29,0,0,1-3.34-1l.89-4.14h2.23a4,4,0,0,0,1.19,2.93,4.61,4.61,0,0,0,3.12.93,6,6,0,0,0,3.31-.86,5.64,5.64,0,0,0,2.15-2.52,8.82,8.82,0,0,0,.76-3.75A3.76,3.76,0,0,0,98.77,54a6.48,6.48,0,0,0-4-1.06H92.79l.37-1.71a14.12,14.12,0,0,0,4.15-.86,8.82,8.82,0,0,0,2.93-1.78,6.34,6.34,0,0,0,2.07-4.73,3.26,3.26,0,0,0-1-2.5,3.62,3.62,0,0,0-2.6-.9,4.91,4.91,0,0,0-3.06.92,7.07,7.07,0,0,0-2,2.76Z"/><path d="M112.11,61.11a12.6,12.6,0,0,1-.14,1.68,11.08,11.08,0,0,1-.42,1.87,9.07,9.07,0,0,1-.64,1.59,9.75,9.75,0,0,1-1,1.4,13.78,13.78,0,0,1-1.58,1.57,24.84,24.84,0,0,1-2.57,1.87l-.89-1.21a17.84,17.84,0,0,0,1.45-1.33,6,6,0,0,0,.84-1.11,7.37,7.37,0,0,0,.59-1.32,19.19,19.19,0,0,0,.58-2.16,27.28,27.28,0,0,0,.46-2.85Z"/><path d="M126.81,60a11.65,11.65,0,0,0-.35,2.28,1.48,1.48,0,0,0,.41,1.16,2.58,2.58,0,0,0,1.34.55,21.08,21.08,0,0,0,2.92.22l-.29,1.43H117.15l.29-1.43a24.85,24.85,0,0,0,2.5-.21,6.18,6.18,0,0,0,1.41-.37,2.93,2.93,0,0,0,.86-.57,3,3,0,0,0,.58-.88,8.28,8.28,0,0,0,.49-1.64l3.1-14.16c.12-.54.2-1,.26-1.31a4.52,4.52,0,0,0,.09-.8.93.93,0,0,0-1-1.07,3.86,3.86,0,0,0-1.53.5c-.69.33-1.71.9-3.07,1.71l-.75-1.57,9.83-5.17h1.34L131,41q-.31,1.26-.66,2.91Z"/><path d="M147.25,62.52a6.24,6.24,0,0,0,1.11-.08,2,2,0,0,0,.65-.23,2.46,2.46,0,0,0,.53-.44,3.6,3.6,0,0,0,.49-.68c.15-.26.34-.65.57-1.15h1.81L151,65.64h-15.2l.19-.94a29.83,29.83,0,0,1,2.94-4.26,61.57,61.57,0,0,1,4.91-5.19c1.74-1.65,2.93-2.83,3.59-3.52a26.27,26.27,0,0,0,2.7-3.1,9.88,9.88,0,0,0,1.32-2.44,7.36,7.36,0,0,0,.38-2.31,3.35,3.35,0,0,0-.92-2.53,3.64,3.64,0,0,0-2.63-.89,4.65,4.65,0,0,0-2.86,1,6.73,6.73,0,0,0-2,2.72h-2.5l.83-3.75a26.52,26.52,0,0,1,4.06-1.3,17.09,17.09,0,0,1,3.74-.42,7.87,7.87,0,0,1,3.28.63,4.72,4.72,0,0,1,2.1,1.76,4.56,4.56,0,0,1,.71,2.47,8.4,8.4,0,0,1-.31,2.32,8.63,8.63,0,0,1-1,2.08,21.63,21.63,0,0,1-2.51,3q-1.5,1.55-5,4.67a52.94,52.94,0,0,0-6.73,6.94Z"/><path d="M165.09,50.62A11.13,11.13,0,0,1,169,50a7.13,7.13,0,0,1,3.39.76,5.12,5.12,0,0,1,2.19,2.18,6.8,6.8,0,0,1,.76,3.29,11.41,11.41,0,0,1-1.16,5,7.63,7.63,0,0,1-3.39,3.59A11.54,11.54,0,0,1,165.28,66a18.69,18.69,0,0,1-3.58-.37,17.23,17.23,0,0,1-3.42-1l.89-4.14h2.23q.12,3.85,4,3.86a5.41,5.41,0,0,0,3.47-1.09,6.69,6.69,0,0,0,2.08-3,10.86,10.86,0,0,0,.69-3.77,4.84,4.84,0,0,0-1-3.34,3.92,3.92,0,0,0-3-1.15,12.5,12.5,0,0,0-1.69.1,11.49,11.49,0,0,0-1.82.41l-1.65-1.25L165.09,39h9.68a3.22,3.22,0,0,0,1-.11,1.14,1.14,0,0,0,.51-.36,3.42,3.42,0,0,0,.45-.82h1.57L177,42.22H166.93Z"/><path d="M195.11,74.14a8.86,8.86,0,0,1-4.47-1,5.74,5.74,0,0,1-2.47-2.9,12.91,12.91,0,0,1-.76-4.78,32.53,32.53,0,0,1,.34-4.49c.32-2.11.76-4.46,1.35-7s1.17-4.74,1.74-6.44A23.67,23.67,0,0,1,193,42.72a11.29,11.29,0,0,1,2.5-2.92,9.28,9.28,0,0,1,3.09-1.6,15.51,15.51,0,0,1,4.55-.59l-.34,1.6a8.35,8.35,0,0,0-2.82.4,5.89,5.89,0,0,0-2,1.17,9.45,9.45,0,0,0-1.92,2.52A27.65,27.65,0,0,0,194,48.36c-.57,1.79-1.14,4-1.71,6.58-.46,2.12-.84,4-1.12,5.72a37.55,37.55,0,0,0-.58,5.9,9.42,9.42,0,0,0,.55,3.59A3.55,3.55,0,0,0,192.73,72a5.91,5.91,0,0,0,2.72.53Z"/><path d="M211.65,60a11.65,11.65,0,0,0-.35,2.28,1.51,1.51,0,0,0,.4,1.16,2.66,2.66,0,0,0,1.35.55,21.08,21.08,0,0,0,2.92.22l-.29,1.43H202l.29-1.43a24.85,24.85,0,0,0,2.5-.21,6.18,6.18,0,0,0,1.41-.37,2.93,2.93,0,0,0,.86-.57,3,3,0,0,0,.58-.88,8.28,8.28,0,0,0,.49-1.64l3.1-14.16c.12-.54.2-1,.26-1.31a4.52,4.52,0,0,0,.09-.8,1.06,1.06,0,0,0-.29-.83,1.08,1.08,0,0,0-.7-.24,3.86,3.86,0,0,0-1.53.5c-.69.33-1.71.9-3.07,1.71l-.75-1.57,9.83-5.17h1.34L215.84,41q-.32,1.26-.66,2.91Z"/><path d="M238.41,56.87h-8.48l.64-3h8.48Z"/><path d="M262,51.66a8.39,8.39,0,0,0-.24-2.15,1.81,1.81,0,0,0-.66-1,2.16,2.16,0,0,0-1.29-.33,4.84,4.84,0,0,0-3.52,1.57,11.57,11.57,0,0,0-2.55,4.45,17.08,17.08,0,0,0-1,5.54,7.52,7.52,0,0,0,.15,1.54,3.35,3.35,0,0,0,.5,1.25,2.46,2.46,0,0,0,.95.83,3.22,3.22,0,0,0,1.51.31,6.5,6.5,0,0,0,3.05-.68,11.16,11.16,0,0,0,2.72-2.12l1.19,1.2a12.84,12.84,0,0,1-3.68,3,8.61,8.61,0,0,1-4,.94,5.34,5.34,0,0,1-4.27-1.68,7.24,7.24,0,0,1-1.45-4.88,15.84,15.84,0,0,1,.77-4.59,13.55,13.55,0,0,1,2.27-4.39A9.7,9.7,0,0,1,256,47.59a10,10,0,0,1,4.27-.93,17.86,17.86,0,0,1,2.7.17c.77.12,1.46.26,2.05.41L264,51.66Z"/><path d="M272.88,66a6.18,6.18,0,0,1-4.66-1.7,6.68,6.68,0,0,1-1.66-4.88,15.8,15.8,0,0,1,.29-2.75,17.22,17.22,0,0,1,1-3.64,11.75,11.75,0,0,1,2.24-3.4,9.29,9.29,0,0,1,3.14-2.19,9.66,9.66,0,0,1,3.81-.75,6.94,6.94,0,0,1,3.66.86,5,5,0,0,1,2.06,2.33,8.43,8.43,0,0,1,.64,3.41A15.75,15.75,0,0,1,283,57a15.35,15.35,0,0,1-2,4.9,9,9,0,0,1-3.35,3.06A10.17,10.17,0,0,1,272.88,66ZM270,60.23a4.76,4.76,0,0,0,.89,3.17,3.28,3.28,0,0,0,2.66,1,4.35,4.35,0,0,0,3.38-1.72,12.27,12.27,0,0,0,2.32-4.81,20.87,20.87,0,0,0,.86-5.44,5.14,5.14,0,0,0-.82-3.18,3,3,0,0,0-2.54-1.06,4.57,4.57,0,0,0-3.52,1.7,12,12,0,0,0-2.36,4.86A21.08,21.08,0,0,0,270,60.23Z"/><path d="M297.88,51.52a4.24,4.24,0,0,0-1-2.55,3.27,3.27,0,0,0-2.43-.79,3.84,3.84,0,0,0-1.65.34,2.7,2.7,0,0,0-1.16,1,2.67,2.67,0,0,0-.43,1.53,3,3,0,0,0,.29,1.32,4.31,4.31,0,0,0,1,1.24,16,16,0,0,0,1.93,1.48,9.37,9.37,0,0,1,2.64,2.46,5.1,5.1,0,0,1,.75,2.76,5.39,5.39,0,0,1-.87,3.11,5.21,5.21,0,0,1-2.39,1.91,8.93,8.93,0,0,1-3.41.62,18.85,18.85,0,0,1-3.19-.25,26.25,26.25,0,0,1-2.88-.65l.91-4.21h1.52a4.11,4.11,0,0,0,1,2.68,3.49,3.49,0,0,0,2.57.89,3.91,3.91,0,0,0,2.7-.87,3,3,0,0,0,1-2.29,3.8,3.8,0,0,0-.29-1.51,4.35,4.35,0,0,0-.91-1.27,14.51,14.51,0,0,0-1.77-1.38,15.17,15.17,0,0,1-2-1.59,5.57,5.57,0,0,1-1.17-1.63,4.5,4.5,0,0,1-.42-2,4.81,4.81,0,0,1,3.06-4.63,8.56,8.56,0,0,1,3.42-.62,17.34,17.34,0,0,1,5.64.84l-.89,4Z"/><path d="M348,37.61a8.72,8.72,0,0,1,4.46,1,5.76,5.76,0,0,1,2.48,2.9,12.89,12.89,0,0,1,.76,4.77,29.78,29.78,0,0,1-.35,4.4q-.46,3.39-1.43,7.56-.92,3.84-1.75,6.29a23.4,23.4,0,0,1-2.06,4.56A11,11,0,0,1,347.59,72a9.23,9.23,0,0,1-3.09,1.58,15.54,15.54,0,0,1-4.54.59l.35-1.61a8.57,8.57,0,0,0,2.81-.39A5.77,5.77,0,0,0,345.06,71a9.56,9.56,0,0,0,2-2.6,27.1,27.1,0,0,0,2-5q1-3.09,1.81-7.12.68-3.13,1.07-5.55a36,36,0,0,0,.52-5.49,9.44,9.44,0,0,0-.56-3.61,3.54,3.54,0,0,0-1.6-1.84,6,6,0,0,0-2.71-.53Z"/><path d="M458.72,51.66a8.76,8.76,0,0,0-.25-2.15,1.81,1.81,0,0,0-.66-1,2.16,2.16,0,0,0-1.29-.33A4.84,4.84,0,0,0,453,49.75a11.57,11.57,0,0,0-2.55,4.45,17.08,17.08,0,0,0-1,5.54,7.52,7.52,0,0,0,.15,1.54,3.52,3.52,0,0,0,.5,1.25,2.42,2.42,0,0,0,1,.83,3.15,3.15,0,0,0,1.5.31,6.5,6.5,0,0,0,3.05-.68,11.38,11.38,0,0,0,2.73-2.12l1.18,1.2a12.84,12.84,0,0,1-3.68,3,8.61,8.61,0,0,1-4,.94,5.35,5.35,0,0,1-4.27-1.68,7.24,7.24,0,0,1-1.45-4.88,15.84,15.84,0,0,1,.77-4.59,13.55,13.55,0,0,1,2.27-4.39,9.7,9.7,0,0,1,3.49-2.84,10,10,0,0,1,4.27-.93,17.91,17.91,0,0,1,2.71.17c.76.12,1.45.26,2,.41l-.95,4.42Z"/><path d="M469.59,66a6.19,6.19,0,0,1-4.66-1.7,6.72,6.72,0,0,1-1.66-4.88,15.8,15.8,0,0,1,.29-2.75A17.22,17.22,0,0,1,464.61,53a11.75,11.75,0,0,1,2.24-3.4A9.29,9.29,0,0,1,470,47.41a9.66,9.66,0,0,1,3.81-.75,6.94,6.94,0,0,1,3.66.86,5,5,0,0,1,2.06,2.33,8.43,8.43,0,0,1,.64,3.41,15.75,15.75,0,0,1-.48,3.71,15.35,15.35,0,0,1-2,4.9,9,9,0,0,1-3.35,3.06A10.17,10.17,0,0,1,469.59,66Zm-2.93-5.74a4.76,4.76,0,0,0,.89,3.17,3.3,3.3,0,0,0,2.66,1,4.35,4.35,0,0,0,3.38-1.72,12.41,12.41,0,0,0,2.33-4.81,20.82,20.82,0,0,0,.85-5.44,5.14,5.14,0,0,0-.82-3.18,3,3,0,0,0-2.54-1.06,4.53,4.53,0,0,0-3.51,1.7,11.86,11.86,0,0,0-2.37,4.86A21.08,21.08,0,0,0,466.66,60.23Z"/><path d="M494.59,51.52a4.24,4.24,0,0,0-1-2.55,3.27,3.27,0,0,0-2.43-.79,3.84,3.84,0,0,0-1.65.34,2.7,2.7,0,0,0-1.16,1,2.67,2.67,0,0,0-.43,1.53,3,3,0,0,0,.29,1.32,4.49,4.49,0,0,0,1,1.24,16,16,0,0,0,1.93,1.48,9.37,9.37,0,0,1,2.64,2.46,5.1,5.1,0,0,1,.75,2.76,5.39,5.39,0,0,1-.87,3.11,5.23,5.23,0,0,1-2.38,1.91,9,9,0,0,1-3.42.62,18.93,18.93,0,0,1-3.19-.25,26.25,26.25,0,0,1-2.88-.65l.91-4.21h1.52a4.12,4.12,0,0,0,1,2.68,3.45,3.45,0,0,0,2.56.89,3.91,3.91,0,0,0,2.7-.87,2.91,2.91,0,0,0,1-2.29,3.8,3.8,0,0,0-.29-1.51,4.17,4.17,0,0,0-.91-1.27,13.76,13.76,0,0,0-1.77-1.38,15.17,15.17,0,0,1-2-1.59,5.57,5.57,0,0,1-1.17-1.63,4.5,4.5,0,0,1-.42-2A4.81,4.81,0,0,1,488,47.28a8.56,8.56,0,0,1,3.42-.62,17.4,17.4,0,0,1,5.65.84l-.9,4Z"/><path d="M596.41,58.26a12.69,12.69,0,0,0-.35,2.29,1.53,1.53,0,0,0,.41,1.16,2.67,2.67,0,0,0,1.35.54,22.39,22.39,0,0,0,2.92.23l-.29,1.42h-13.7l.3-1.42a22,22,0,0,0,2.5-.22,5.49,5.49,0,0,0,1.4-.37,2.67,2.67,0,0,0,.87-.56,3.13,3.13,0,0,0,.58-.88,7.93,7.93,0,0,0,.48-1.64L596,44.65c.11-.55.2-1,.26-1.31a4.46,4.46,0,0,0,.08-.8,1,1,0,0,0-.29-.83,1,1,0,0,0-.69-.25,4.12,4.12,0,0,0-1.54.5q-1,.49-3.06,1.71L590,42.11l9.84-5.18h1.33l-.56,2.29q-.32,1.24-.66,2.91Z"/><path d="M624.79,55.14h-8.48l.64-3h8.47Z"/><path d="M643.61,63a3.18,3.18,0,0,0,1.12-.31,2.1,2.1,0,0,0,.63-.63,4.63,4.63,0,0,0,.52-1.2c.17-.53.38-1.36.62-2.49l.55-2.5H636.73L637.1,54l14.12-16.87h3.22l-3.69,16.81h.66a4.85,4.85,0,0,0,1.49-.16,1.8,1.8,0,0,0,.8-.57,6,6,0,0,0,.74-1.39h1.74l-1.1,4h-4.74l-.62,2.81c-.11.56-.19,1.06-.24,1.51s-.07.8-.07,1.07a1.71,1.71,0,0,0,.41,1.28,2.49,2.49,0,0,0,1.49.46l-.21.95h-7.7Zm-3.41-9h7.29l1-4.86q.84-3.83,1.86-7.66h-.27l-9.87,12.25Z"/><path d="M678,36,657.21,72.3h-3.1L675,36Z"/><path d="M680.34,42.4l.8-3.75a23.76,23.76,0,0,1,4-1.32,18.23,18.23,0,0,1,3.81-.4,9.18,9.18,0,0,1,2.38.3,5.82,5.82,0,0,1,2,.89,4.41,4.41,0,0,1,1.34,1.56,4.79,4.79,0,0,1,.49,2.25,7,7,0,0,1-.7,3.2,7.35,7.35,0,0,1-2.26,2.56,17.85,17.85,0,0,1-4.25,2.23l0,.22a6.67,6.67,0,0,1,3.68,2,5.33,5.33,0,0,1,1.28,3.63,8.18,8.18,0,0,1-.7,3.26,7.83,7.83,0,0,1-2,2.79,8.47,8.47,0,0,1-3.12,1.75,14,14,0,0,1-4.32.6,20.43,20.43,0,0,1-3.82-.4,15.82,15.82,0,0,1-3.34-1l.9-4.14h2.22a4.06,4.06,0,0,0,1.19,2.93,4.62,4.62,0,0,0,3.12.94,6.19,6.19,0,0,0,3.32-.86,5.79,5.79,0,0,0,2.14-2.52,8.88,8.88,0,0,0,.77-3.75,3.78,3.78,0,0,0-1.35-3.17,6.53,6.53,0,0,0-4-1h-1.94l.37-1.72a13.74,13.74,0,0,0,4.15-.86,8.71,8.71,0,0,0,2.93-1.78,6.38,6.38,0,0,0,1.6-2.28,6.58,6.58,0,0,0,.48-2.44,3.29,3.29,0,0,0-1-2.5,3.64,3.64,0,0,0-2.6-.9,4.89,4.89,0,0,0-3.07.92,7.21,7.21,0,0,0-2.05,2.75Z"/><path d="M701.23,59.37a11.12,11.12,0,0,1-.14,1.68,11.41,11.41,0,0,1-.41,1.88,9.77,9.77,0,0,1-.65,1.58,9.29,9.29,0,0,1-1,1.41,13.77,13.77,0,0,1-1.58,1.57,22.35,22.35,0,0,1-2.56,1.86L694,68.14a17.6,17.6,0,0,0,1.44-1.32,6.42,6.42,0,0,0,.84-1.12,8.14,8.14,0,0,0,.6-1.32c.17-.5.36-1.22.57-2.15a27,27,0,0,0,.46-2.86Z"/><path d="M715.93,58.26a12.69,12.69,0,0,0-.35,2.29,1.53,1.53,0,0,0,.41,1.16,2.67,2.67,0,0,0,1.35.54,22.2,22.2,0,0,0,2.91.23L720,63.9H706.27l.29-1.42a22.17,22.17,0,0,0,2.51-.22,5.49,5.49,0,0,0,1.4-.37,2.62,2.62,0,0,0,.86-.56,3.14,3.14,0,0,0,.59-.88,8.61,8.61,0,0,0,.48-1.64l3.1-14.16c.12-.55.21-1,.27-1.31a5.63,5.63,0,0,0,.08-.8,1,1,0,0,0-.29-.83,1,1,0,0,0-.7-.25,4.14,4.14,0,0,0-1.53.5c-.68.33-1.71.9-3.06,1.71l-.76-1.56,9.83-5.18h1.34l-.56,2.29q-.32,1.24-.66,2.91Z"/><path d="M736.37,60.78a6.37,6.37,0,0,0,1.12-.08,2.35,2.35,0,0,0,.65-.22,2.76,2.76,0,0,0,.52-.44,4,4,0,0,0,.49-.69c.15-.26.34-.64.58-1.15h1.8l-1.44,5.7h-15.2l.19-.93A28.75,28.75,0,0,1,728,58.71a60.22,60.22,0,0,1,4.92-5.2Q735.53,51,736.53,50a27,27,0,0,0,2.69-3.11,9.71,9.71,0,0,0,1.32-2.44,7,7,0,0,0,.39-2.3,3.35,3.35,0,0,0-.92-2.53,3.66,3.66,0,0,0-2.63-.89,4.63,4.63,0,0,0-2.86,1,6.63,6.63,0,0,0-2,2.71H730l.83-3.75a27.77,27.77,0,0,1,4.07-1.3,17,17,0,0,1,3.73-.42,7.76,7.76,0,0,1,3.29.64A4.73,4.73,0,0,1,744,39.32a4.59,4.59,0,0,1,.71,2.48,8,8,0,0,1-.31,2.31,8.29,8.29,0,0,1-1,2.08,21.44,21.44,0,0,1-2.5,3c-1,1-2.67,2.58-5,4.67a51.51,51.51,0,0,0-6.72,6.93Z"/><path d="M754.21,48.89a11.17,11.17,0,0,1,3.86-.65,7.07,7.07,0,0,1,3.39.76,5.26,5.26,0,0,1,2.2,2.18,6.91,6.91,0,0,1,.75,3.29,11.37,11.37,0,0,1-1.15,5,7.68,7.68,0,0,1-3.4,3.6,11.64,11.64,0,0,1-5.45,1.18,19.35,19.35,0,0,1-3.58-.37,17.12,17.12,0,0,1-3.43-1l.9-4.14h2.23c.07,2.58,1.41,3.87,4,3.87a5.38,5.38,0,0,0,3.47-1.1,6.69,6.69,0,0,0,2.08-3,10.82,10.82,0,0,0,.7-3.76,4.78,4.78,0,0,0-1-3.34,3.91,3.91,0,0,0-3.05-1.16,14.06,14.06,0,0,0-1.68.1,12.54,12.54,0,0,0-1.83.41l-1.64-1.25,2.69-12.25h9.68a3.2,3.2,0,0,0,1-.1,1.22,1.22,0,0,0,.51-.36,3.64,3.64,0,0,0,.45-.82h1.57l-1.24,4.53H756.05Z"/><path d="M327.76,51.61c5.3-6.71,6.21-7.28,10.33-6.39l-.49,2.42c-3.73.67-8.2,4.46-8.2,6.91,0,2.63,4.42,6.38,8.14,6.78l.58,2.27c-3.91,1.48-5.18.71-10.37-6.15a42.66,42.66,0,0,1-3.25,3.83c-3.5,3.27-8.05,2.31-10-2.05a11,11,0,0,1,.09-9.37c2.07-4.55,6.87-5.36,10.35-1.74C326,49.15,326.77,50.36,327.76,51.61Zm-11.83,2.78c0,3.6,1.58,5.78,4.26,5.75,2.2,0,6.2-3.75,6.12-5.7s-4-5.43-6.07-5.5C317.65,48.85,316,51,315.93,54.39Z"/><path d="M522.28,51.61c5.3-6.71,6.21-7.28,10.33-6.39l-.49,2.42c-3.73.67-8.2,4.46-8.2,6.91,0,2.63,4.42,6.38,8.14,6.78l.58,2.27c-3.91,1.48-5.18.71-10.37-6.15A42.66,42.66,0,0,1,519,61.28c-3.5,3.27-8,2.31-10-2.05a11,11,0,0,1,.09-9.37c2.07-4.55,6.87-5.36,10.35-1.74C520.48,49.15,521.29,50.36,522.28,51.61Zm-11.83,2.78c0,3.6,1.58,5.78,4.26,5.75,2.2,0,6.2-3.75,6.12-5.7s-4-5.43-6.07-5.5C512.17,48.85,510.49,51,510.45,54.39Z"/></svg>