<svg id="Capa_1" data-name="Capa 1" xmlns="http://www.w3.org/2000/svg" viewBox="0 0 200.44 69.4"><path d="M166.08,55.05c-.14.59-.25,1.09-.32,1.5s-.15.92-.21,1.52-.09,1.12-.09,1.57a2.87,2.87,0,0,0,.3,1.43,1.7,1.7,0,0,0,.87.75,8.12,8.12,0,0,0,2,.35l-.32,1.44h-12l.32-1.44a4,4,0,0,0,1.66-.57,3.34,3.34,0,0,0,.94-1.11,10.71,10.71,0,0,0,.7-1.72c.21-.67.53-2,1-3.92l5-22.65a23.14,23.14,0,0,0,.65-4.64,2.48,2.48,0,0,0-.68-2,3.77,3.77,0,0,0-2.19-.65l.33-1.44h26.33l-2,9h-2.81a27.81,27.81,0,0,0-.32-3.28,5.92,5.92,0,0,0-.51-1.78,2.51,2.51,0,0,0-.68-.87,2.57,2.57,0,0,0-.95-.4,9.42,9.42,0,0,0-1.62-.11h-9l-3.47,16h5.46a5.45,5.45,0,0,0,2.13-.35,4,4,0,0,0,1.58-1.28,18.7,18.7,0,0,0,1.81-3.16h2.65l-2.83,12.41h-2.57c0-1.21,0-2.17-.07-2.85a3,3,0,0,0-.35-1.44,1.46,1.46,0,0,0-.79-.58,7.48,7.48,0,0,0-1.85-.16h-5.73Z"/><line x1="163.59" y1="9.94" x2="192.32" y2="9.94" style="fill:none;stroke:#000;stroke-miterlimit:10;stroke-width:2.7375431151838314px"/><polygon points="186.87 14.58 191.51 9.94 186.87 5.29 190.81 5.29 195.45 9.94 190.81 14.58 186.87 14.58"/><path d="M96.13,35.23h1.75l-2,7.24.35.11a23.94,23.94,0,0,1,5.41-5.7A9.34,9.34,0,0,1,107.05,35a16.21,16.21,0,0,1,3.56.32l-1.4,6.59h-3a6.2,6.2,0,0,0-.73-2.33,1.71,1.71,0,0,0-1.55-.79A4.43,4.43,0,0,0,101.3,40a17.12,17.12,0,0,0-3,3.23A20,20,0,0,0,95.94,47a17.44,17.44,0,0,0-1.18,3.86L92.1,63.61h-5l4.43-20.08a21.33,21.33,0,0,0,.62-4.21A2.63,2.63,0,0,0,91.84,38a1.63,1.63,0,0,0-.85-.68,7.62,7.62,0,0,0-2-.3l.32-1.56Z"/><path d="M22.69,33.54H32l-.64,3H22l-2.8,11.41A33,33,0,0,0,18.05,55a4.14,4.14,0,0,0,.78,2.72,2.79,2.79,0,0,0,2.26.92,5,5,0,0,0,2.82-1,18,18,0,0,0,3.22-3.16l1.7,1.76a21,21,0,0,1-4.73,4.4,9.12,9.12,0,0,1-5,1.48,6.13,6.13,0,0,1-4.61-1.58A6.45,6.45,0,0,1,13,55.92a18.79,18.79,0,0,1,.53-4.15l3.62-15.26H12.8l.32-1.5a7.91,7.91,0,0,0,2.73-.75Z"/><line x1="83.9" y1="20.66" x2="112.63" y2="20.66" style="fill:none;stroke:#000;stroke-miterlimit:10;stroke-width:2.7375431151838314px"/><polygon points="107.18 25.3 111.82 20.66 107.18 16.02 111.12 16.02 115.76 20.66 111.12 25.3 107.18 25.3"/><line x1="6.44" y1="20.66" x2="35.17" y2="20.66" style="fill:none;stroke:#000;stroke-miterlimit:10;stroke-width:2.7375431151838314px"/><polygon points="29.72 25.3 34.36 20.66 29.72 16.02 33.66 16.02 38.3 20.66 33.66 25.3 29.72 25.3"/><path d="M66.34,52.41H47.26V49.1H66.34Zm0,8.77H47.26V57.87H66.34Z"/><path d="M123.07,61.65l7.65-10.88-7.07-10.05h4.43l3.21,4.91c.61.93,1.09,1.71,1.46,2.34.58-.86,1.11-1.63,1.6-2.3l3.53-5h4.23l-7.23,9.86,7.78,11.07h-4.35l-4.3-6.5-1.14-1.76-5.5,8.26Z"/></svg>