<svg id="Capa_1" data-name="Capa 1" xmlns="http://www.w3.org/2000/svg" viewBox="0 0 245.98 64.53"><path d="M13.85,46.5H6l.2-.92a2.9,2.9,0,0,0,1.08-.29,1.73,1.73,0,0,0,.62-.59,4.92,4.92,0,0,0,.55-1.22,26,26,0,0,0,.65-2.56l4-18.33H10.74a4.14,4.14,0,0,0-1.84.34,4,4,0,0,0-1.38,1.25,18.3,18.3,0,0,0-1.67,3.07H4.07l1.39-6.31H24.87l-1.45,6.59H21.64c0-1.21,0-2.12-.1-2.72a3.82,3.82,0,0,0-.35-1.39,1.49,1.49,0,0,0-.64-.65,3.54,3.54,0,0,0-1.35-.18H16.45l-4,18.46c-.11.49-.19.88-.23,1.16s-.08.59-.11.91-.05.6-.05.85a1.9,1.9,0,0,0,.19.91,1.06,1.06,0,0,0,.56.48,4.83,4.83,0,0,0,1.28.22Z"/><path d="M40.92,36.23l.56-2.52H56.91l-.56,2.52Zm1.69-7.77.56-2.52H58.6L58,28.46Z"/><path d="M86,38.93a57.83,57.83,0,0,0,4.42-7.26,12.36,12.36,0,0,0,1.51-5,1.52,1.52,0,0,0-.37-1.2,2.15,2.15,0,0,0-1.27-.37l.19-.92h4.8l.5.93c-.44,1.11-.78,2-1,2.57s-.6,1.32-1,2.16-.86,1.68-1.33,2.52-1,1.76-1.67,2.76-1.35,2.1-2.15,3.28-1.72,2.51-2.8,4H83.51l-.76-7.83c-.06-.61-.12-1.41-.19-2.4s-.12-1.74-.14-2.28l-.21,0a47.46,47.46,0,0,1-2.73,5.54q-1.73,3.06-4.28,7H72.71L71.3,28.24A12.78,12.78,0,0,0,71,26.48a1.87,1.87,0,0,0-.56-1,2.19,2.19,0,0,0-1.28-.41l.21-.92h4.87l1.11,14.77q2.63-4.3,3.79-6.55a31.35,31.35,0,0,0,1.72-3.89,22.08,22.08,0,0,0,.85-3.41l.2-.92h2.68Z"/><path d="M102.26,44a5.85,5.85,0,0,0-.17,1.24.8.8,0,0,0,.26.66,2,2,0,0,0,.92.34,12.78,12.78,0,0,0,2,.14l-.26,1.2H95.56l.24-1.2a14.26,14.26,0,0,0,1.84-.14,3.44,3.44,0,0,0,1-.3,1.68,1.68,0,0,0,.6-.52,2.84,2.84,0,0,0,.38-1L101.49,36q.06-.24.09-.42a1.4,1.4,0,0,0,0-.25.45.45,0,0,0-.14-.38.8.8,0,0,0-.41-.09,3.28,3.28,0,0,0-1.1.32c-.5.21-1.18.54-2,1l-.59-1.31,6.58-3H105c-.26,1-.52,2.1-.78,3.28Z"/><path d="M122.76,28.5a4,4,0,0,0-1-2.44,3.14,3.14,0,0,0-2.33-.76,3.69,3.69,0,0,0-1.58.33,2.56,2.56,0,0,0-1.52,2.42,2.77,2.77,0,0,0,.28,1.26,4,4,0,0,0,.93,1.19,15.13,15.13,0,0,0,1.85,1.43A8.61,8.61,0,0,1,122,34.29a4.76,4.76,0,0,1,.73,2.64,5.13,5.13,0,0,1-.84,3,5,5,0,0,1-2.29,1.83,8.44,8.44,0,0,1-3.27.6,18.44,18.44,0,0,1-3.06-.24c-.94-.17-1.86-.37-2.76-.62l.88-4h1.45a4,4,0,0,0,1,2.58,3.38,3.38,0,0,0,2.47.85,3.76,3.76,0,0,0,2.58-.83,2.82,2.82,0,0,0,.93-2.2,3.54,3.54,0,0,0-.28-1.45,3.85,3.85,0,0,0-.87-1.21,13,13,0,0,0-1.69-1.33,13.37,13.37,0,0,1-1.9-1.52,5.45,5.45,0,0,1-1.13-1.56,4.49,4.49,0,0,1-.4-1.88,4.73,4.73,0,0,1,.77-2.7,4.81,4.81,0,0,1,2.16-1.74,8.31,8.31,0,0,1,3.28-.6,16.79,16.79,0,0,1,5.41.8l-.85,3.86Z"/><path d="M140.16,38.31a15.67,15.67,0,0,1-2.64,2.4A8.7,8.7,0,0,1,135,42a9.85,9.85,0,0,1-2.79.38,6.11,6.11,0,0,1-2.53-.48,4.84,4.84,0,0,1-1.76-1.31,5.46,5.46,0,0,1-1-2,9,9,0,0,1-.34-2.49,14.39,14.39,0,0,1,.72-4.3,12.61,12.61,0,0,1,2.17-4.12,10.06,10.06,0,0,1,3.47-2.83,9.58,9.58,0,0,1,4.32-1,5.25,5.25,0,0,1,3.37.92,3.47,3.47,0,0,1,1.13,2.86,5.13,5.13,0,0,1-3,4.78Q135.79,34,130,34a12.38,12.38,0,0,0-.23,2.43,4.35,4.35,0,0,0,.77,2.86,3.12,3.12,0,0,0,2.49.89,6.43,6.43,0,0,0,3.1-.75A12.55,12.55,0,0,0,139,37.1Zm-9.89-5.93a25.69,25.69,0,0,0,3-.2,12.3,12.3,0,0,0,2.22-.49A5.66,5.66,0,0,0,137,31a4,4,0,0,0,1-.94,3.25,3.25,0,0,0,.5-1.09,5.17,5.17,0,0,0,.14-1.19,2.79,2.79,0,0,0-.53-1.79,1.92,1.92,0,0,0-1.57-.64,4.22,4.22,0,0,0-2.56.94,8.84,8.84,0,0,0-2.21,2.55A14.53,14.53,0,0,0,130.27,32.38Z"/><path d="M160,42h-5.85l2.36-9.51c.15-.61.29-1.29.44-2a10.61,10.61,0,0,0,.21-2,3.08,3.08,0,0,0-.46-1.91,1.67,1.67,0,0,0-1.42-.58,3,3,0,0,0-1.68.61,9.2,9.2,0,0,0-1.89,1.81A15.87,15.87,0,0,0,150,30.91a10.9,10.9,0,0,0-1,3L147.27,42h-3.22l2.83-12.79c.06-.29.14-.71.25-1.27a8.37,8.37,0,0,0,.15-1.41,1.77,1.77,0,0,0-.15-.81,1,1,0,0,0-.54-.43,4.94,4.94,0,0,0-1.29-.2l.22-1,4.22-.17h1.06l-1.25,4.87.23.07a16.52,16.52,0,0,1,3.51-3.83,5.69,5.69,0,0,1,3.38-1.24,3.54,3.54,0,0,1,2.74,1,4.23,4.23,0,0,1,.93,3,9.9,9.9,0,0,1-.12,1.47q-.14.79-.27,1.41l-1.57,6.67a9.92,9.92,0,0,0-.31,2.13,1.78,1.78,0,0,0,.18.88,1.23,1.23,0,0,0,.58.49,4.82,4.82,0,0,0,1.28.26Z"/><path d="M172.42,50.18a8.43,8.43,0,0,1-4.28-1,5.5,5.5,0,0,1-2.37-2.78,12.38,12.38,0,0,1-.73-4.58,31.41,31.41,0,0,1,.33-4.31q.45-3,1.3-6.76c.56-2.48,1.12-4.54,1.66-6.18a21.78,21.78,0,0,1,2-4.55,10.71,10.71,0,0,1,2.39-2.8,9,9,0,0,1,3-1.54,15.07,15.07,0,0,1,4.37-.56l-.34,1.53a8.12,8.12,0,0,0-2.69.38,5.62,5.62,0,0,0-1.9,1.12,9.44,9.44,0,0,0-1.84,2.42,27,27,0,0,0-2,4.85q-.81,2.58-1.64,6.31-.66,3-1.07,5.48a35.43,35.43,0,0,0-.56,5.66,9.09,9.09,0,0,0,.53,3.44,3.33,3.33,0,0,0,1.52,1.77,5.65,5.65,0,0,0,2.62.52Z"/><path d="M188.28,36.63a12.24,12.24,0,0,0-.34,2.19,1.44,1.44,0,0,0,.39,1.11,2.59,2.59,0,0,0,1.3.53,23.15,23.15,0,0,0,2.79.21L192.15,42H179l.28-1.37c1-.05,1.84-.12,2.4-.2a5.77,5.77,0,0,0,1.35-.36,2.66,2.66,0,0,0,.82-.54,3.06,3.06,0,0,0,.56-.85,7.25,7.25,0,0,0,.46-1.57l3-13.57c.11-.53.19-.95.25-1.26a4.09,4.09,0,0,0,.08-.77,1,1,0,0,0-.27-.79,1,1,0,0,0-.67-.24,3.78,3.78,0,0,0-1.47.48c-.66.32-1.64.87-2.94,1.64l-.72-1.5,9.42-5h1.28l-.54,2.19q-.28,1.2-.63,2.79Z"/><path d="M204.86,27.64a10.76,10.76,0,0,1,3.7-.62,7,7,0,0,1,3.26.73,5,5,0,0,1,2.1,2.09,6.62,6.62,0,0,1,.72,3.15,11,11,0,0,1-1.1,4.77,7.43,7.43,0,0,1-3.26,3.45,11.14,11.14,0,0,1-5.23,1.13,17.79,17.79,0,0,1-3.43-.36,15.85,15.85,0,0,1-3.28-1l.85-4h2.14q.1,3.7,3.83,3.71a5.18,5.18,0,0,0,3.33-1,6.42,6.42,0,0,0,2-2.85,10.42,10.42,0,0,0,.67-3.61,4.58,4.58,0,0,0-1-3.2,3.73,3.73,0,0,0-2.92-1.11,13.1,13.1,0,0,0-1.61.09,12.64,12.64,0,0,0-1.75.4l-1.58-1.2,2.58-11.74h9.28a2.94,2.94,0,0,0,.92-.1,1.14,1.14,0,0,0,.49-.35,2.89,2.89,0,0,0,.43-.79h1.51l-1.19,4.35h-9.67Z"/><path d="M226.69,27.38a5.54,5.54,0,0,1-2.85-.73,5,5,0,0,1-1.91-2,6.1,6.1,0,0,1-.67-2.89,5.74,5.74,0,0,1,.72-2.87,5,5,0,0,1,2-2,6,6,0,0,1,2.91-.7,5.74,5.74,0,0,1,2.85.71,5,5,0,0,1,2,2,5.85,5.85,0,0,1,.7,2.88,5.65,5.65,0,0,1-.74,2.87,5.25,5.25,0,0,1-2,2A5.94,5.94,0,0,1,226.69,27.38ZM226.8,18a3.63,3.63,0,0,0-1.86.48,3.27,3.27,0,0,0-1.26,1.32,4,4,0,0,0-.45,1.93,4.23,4.23,0,0,0,.44,1.94A3.17,3.17,0,0,0,224.93,25a3.92,3.92,0,0,0,3.76,0A3.26,3.26,0,0,0,230,23.7a4.11,4.11,0,0,0,.45-1.94,4,4,0,0,0-.45-1.93,3.29,3.29,0,0,0-1.27-1.32A3.69,3.69,0,0,0,226.8,18Z"/><path d="M236.21,15.17a8.47,8.47,0,0,1,4.27,1,5.54,5.54,0,0,1,2.37,2.78,12.37,12.37,0,0,1,.74,4.58,28.64,28.64,0,0,1-.34,4.22q-.44,3.26-1.37,7.24-.87,3.69-1.67,6a21.71,21.71,0,0,1-2,4.37,10.22,10.22,0,0,1-2.37,2.76,8.72,8.72,0,0,1-3,1.52,14.64,14.64,0,0,1-4.35.56l.33-1.53a8.08,8.08,0,0,0,2.69-.38,5.6,5.6,0,0,0,1.87-1.1,9.43,9.43,0,0,0,1.9-2.49,27.58,27.58,0,0,0,2-4.84c.61-2,1.19-4.24,1.73-6.83.44-2,.78-3.77,1-5.31a35.39,35.39,0,0,0,.5-5.27A9,9,0,0,0,240,19a3.36,3.36,0,0,0-1.53-1.76,5.73,5.73,0,0,0-2.6-.51Z"/></svg>