<svg id="Capa_1" data-name="Capa 1" xmlns="http://www.w3.org/2000/svg" viewBox="0 0 601.94 84.77"><path d="M248.43,66.67q-6.28,0-6.28-7.94a27.61,27.61,0,0,1,3.67-13.51q3.68-6.63,9.31-6.64,5.91,0,5.91,7.79A28.56,28.56,0,0,1,257.45,60Q253.88,66.68,248.43,66.67Zm-2-13.68a33.39,33.39,0,0,0-1,7.47c0,3,1.13,4.55,3.41,4.55,1.61,0,3.09-1.05,4.43-3.17A29.46,29.46,0,0,0,256.57,53Zm.49-1.85H257a39.58,39.58,0,0,0,.76-6.43c0-3-1-4.47-3-4.47-1.53,0-3,.94-4.33,2.84A25.52,25.52,0,0,0,246.93,51.14Z"/><path d="M567.5,69.52q-4.39,0-4.39-5.56a19.26,19.26,0,0,1,2.57-9.45q2.57-4.65,6.51-4.65,4.14,0,4.14,5.45a20,20,0,0,1-2.51,9.52Q571.31,69.52,567.5,69.52Zm-1.39-9.58a23.42,23.42,0,0,0-.73,5.23c0,2.13.8,3.19,2.38,3.19,1.14,0,2.17-.74,3.11-2.22a20.71,20.71,0,0,0,2.33-6.2Zm.34-1.29h7a26.76,26.76,0,0,0,.54-4.5c0-2.09-.71-3.13-2.12-3.13a3.9,3.9,0,0,0-3,2A18,18,0,0,0,566.45,58.65Z"/><path d="M554.35,21.26v.2a1.65,1.65,0,0,1,0,.21,10.5,10.5,0,0,1,2.47-2.62,4.48,4.48,0,0,1,2.55-.85,2.67,2.67,0,0,1,2.06.77,3.26,3.26,0,0,1,.71,2.29,9.94,9.94,0,0,1-.29,2.21l-1.2,5.13a7.74,7.74,0,0,0-.24,1.64,1.36,1.36,0,0,0,.14.67.94.94,0,0,0,.45.38,3.64,3.64,0,0,0,1,.2l-.13.71h-4.48l1.8-7.32c.13-.52.25-1.06.35-1.6a8.24,8.24,0,0,0,.15-1.48,2.33,2.33,0,0,0-.36-1.47,1.35,1.35,0,0,0-1.13-.44,2.3,2.3,0,0,0-1.25.46,7,7,0,0,0-1.45,1.41,11.06,11.06,0,0,0-1.24,1.88,9.48,9.48,0,0,0-.76,2.26l-1.3,6.3h-2.47l1.64-7.32c.2-.89.34-1.55.41-2a6.77,6.77,0,0,0,.1-1.1,2.33,2.33,0,0,0-.36-1.47,1.37,1.37,0,0,0-1.14-.44,2.25,2.25,0,0,0-1.26.47,7,7,0,0,0-1.47,1.44,11.81,11.81,0,0,0-1.23,1.92,9.07,9.07,0,0,0-.72,2.24l-1.31,6.24h-2.47l2.17-9.84c.05-.22.12-.54.2-1a6.29,6.29,0,0,0,.12-1.08,1.36,1.36,0,0,0-.12-.63.72.72,0,0,0-.42-.33,4,4,0,0,0-1-.15l.17-.77,3.26-.13h.8L546.13,22l.17.06a11.88,11.88,0,0,1,2.61-2.93,4.42,4.42,0,0,1,2.63-1,2.7,2.7,0,0,1,2.09.79A3.24,3.24,0,0,1,554.35,21.26Z"/><path d="M565.48,33.43a5.26,5.26,0,0,0-.46.66,2.55,2.55,0,0,0-.26.63,3,3,0,0,0-.08.72,1.74,1.74,0,0,0,.77,1.57,4.38,4.38,0,0,0,2.33.5,4.94,4.94,0,0,0,2.36-.51,4.27,4.27,0,0,0,1.6-1.54,11.52,11.52,0,0,0,1.15-2.58,37.75,37.75,0,0,0,1-4.1l-.2,0a12.8,12.8,0,0,1-2.57,2.79,4.22,4.22,0,0,1-2.56.88,2.84,2.84,0,0,1-2.43-1.18,5.69,5.69,0,0,1-.86-3.37,12.49,12.49,0,0,1,.41-3.15,11.43,11.43,0,0,1,1.16-2.81,9.1,9.1,0,0,1,1.68-2.08,6.76,6.76,0,0,1,2-1.23,6,6,0,0,1,2.17-.4,6.65,6.65,0,0,1,1.7.21,5.84,5.84,0,0,1,1.62.74l1.32-.95.91.23-1.49,6.75c-.1.48-.21,1-.33,1.63L576,28.68c-.45,2.27-.8,3.83-1.07,4.68a10.06,10.06,0,0,1-1.14,2.48,6.22,6.22,0,0,1-1.46,1.52,6.54,6.54,0,0,1-2,.94,9.2,9.2,0,0,1-2.61.33q-5.4,0-5.4-3.17a2.43,2.43,0,0,1,.48-1.46,6.5,6.5,0,0,1,1.56-1.4Zm4.1-2.72a2.47,2.47,0,0,0,1.45-.5,7.43,7.43,0,0,0,1.55-1.6,12.15,12.15,0,0,0,1.28-2.09,12.07,12.07,0,0,0,.77-2.47,12.13,12.13,0,0,0,.33-2.58,2.37,2.37,0,0,0-.47-1.63,2.08,2.08,0,0,0-1.58-.51,3.33,3.33,0,0,0-1.14.19,3.87,3.87,0,0,0-1.1.65,5.73,5.73,0,0,0-1.07,1.19,9.49,9.49,0,0,0-.92,1.78,13.11,13.11,0,0,0-.87,4.59,4.53,4.53,0,0,0,.43,2.24A1.42,1.42,0,0,0,569.58,30.71Z"/><path d="M525.36,56.05a6.65,6.65,0,0,0-.18-1.59,1.4,1.4,0,0,0-.49-.73,1.6,1.6,0,0,0-1-.25,3.57,3.57,0,0,0-2.59,1.16,8.49,8.49,0,0,0-1.88,3.28,12.5,12.5,0,0,0-.73,4.09,5.8,5.8,0,0,0,.1,1.13,2.48,2.48,0,0,0,.38.92,1.83,1.83,0,0,0,.7.62,2.53,2.53,0,0,0,1.1.22,4.79,4.79,0,0,0,2.25-.5,8.19,8.19,0,0,0,2-1.56l.87.88a9.36,9.36,0,0,1-2.7,2.19,6.43,6.43,0,0,1-2.94.69,3.94,3.94,0,0,1-3.15-1.24,5.37,5.37,0,0,1-1.07-3.6,11.5,11.5,0,0,1,.57-3.38,10,10,0,0,1,1.68-3.24,7.1,7.1,0,0,1,2.57-2.09,7.31,7.31,0,0,1,3.14-.69,13,13,0,0,1,2,.13c.57.09,1.07.19,1.51.3l-.7,3.26Z"/><path d="M533.37,66.6a4.59,4.59,0,0,1-3.43-1.25,4.94,4.94,0,0,1-1.23-3.6,10.77,10.77,0,0,1,.22-2A12.49,12.49,0,0,1,529.7,57a8.68,8.68,0,0,1,1.65-2.51,6.6,6.6,0,0,1,2.32-1.61,7.07,7.07,0,0,1,2.8-.56,5.19,5.19,0,0,1,2.7.63,3.72,3.72,0,0,1,1.52,1.72,6.23,6.23,0,0,1,.47,2.52,11.88,11.88,0,0,1-.35,2.73,11.25,11.25,0,0,1-1.51,3.61,6.59,6.59,0,0,1-2.47,2.26A7.45,7.45,0,0,1,533.37,66.6Zm-2.16-4.23a3.47,3.47,0,0,0,.66,2.33,2.41,2.41,0,0,0,2,.76,3.22,3.22,0,0,0,2.49-1.27A9.13,9.13,0,0,0,538,60.65a15.4,15.4,0,0,0,.63-4,3.81,3.81,0,0,0-.6-2.34,2.18,2.18,0,0,0-1.87-.79,3.38,3.38,0,0,0-2.6,1.26,8.86,8.86,0,0,0-1.74,3.58A15.78,15.78,0,0,0,531.21,62.37Z"/><path d="M551.8,56a3.15,3.15,0,0,0-.74-1.88,2.41,2.41,0,0,0-1.79-.59,2.84,2.84,0,0,0-1.22.26,2,2,0,0,0-.85.73,2,2,0,0,0-.32,1.13,2.1,2.1,0,0,0,.22,1,3.27,3.27,0,0,0,.72.92,12.4,12.4,0,0,0,1.42,1.09,6.75,6.75,0,0,1,1.94,1.81,3.75,3.75,0,0,1,.56,2,4,4,0,0,1-.64,2.3,3.82,3.82,0,0,1-1.76,1.4,6.47,6.47,0,0,1-2.52.46,14.56,14.56,0,0,1-2.35-.18c-.73-.13-1.43-.29-2.12-.48l.67-3.11h1.12a3,3,0,0,0,.75,2,2.53,2.53,0,0,0,1.89.66,2.92,2.92,0,0,0,2-.64,2.19,2.19,0,0,0,.71-1.7,2.73,2.73,0,0,0-.21-1.1,3.2,3.2,0,0,0-.67-.94,9.4,9.4,0,0,0-1.31-1,10.76,10.76,0,0,1-1.45-1.17,4.18,4.18,0,0,1-.87-1.2,3.46,3.46,0,0,1-.31-1.45,3.54,3.54,0,0,1,2.26-3.41,6.33,6.33,0,0,1,2.52-.46,12.87,12.87,0,0,1,4.16.62l-.66,3Z"/><path d="M560.12,71.93a5.73,5.73,0,0,1-2.93-.66,3.79,3.79,0,0,1-1.62-1.9,8.35,8.35,0,0,1-.5-3.13,20.14,20.14,0,0,1,.23-2.95c.2-1.38.49-2.92.88-4.62s.77-3.11,1.14-4.23a15.39,15.39,0,0,1,1.4-3.12,7.38,7.38,0,0,1,1.64-1.92,6.08,6.08,0,0,1,2-1,10.45,10.45,0,0,1,3-.38L565.14,49a5.92,5.92,0,0,0-1.84.25A4,4,0,0,0,562,50a6.6,6.6,0,0,0-1.26,1.66A18,18,0,0,0,559.39,55c-.37,1.17-.74,2.61-1.12,4.31-.3,1.39-.55,2.65-.74,3.76a25.22,25.22,0,0,0-.38,3.87,6,6,0,0,0,.37,2.35,2.29,2.29,0,0,0,1,1.21,3.82,3.82,0,0,0,1.79.36Z"/><path d="M577.93,48a5.79,5.79,0,0,1,2.92.65,3.74,3.74,0,0,1,1.62,1.9,8.39,8.39,0,0,1,.51,3.14,20.56,20.56,0,0,1-.23,2.88c-.21,1.49-.52,3.14-.94,5s-.78,3.06-1.15,4.12a15.11,15.11,0,0,1-1.35,3,7.14,7.14,0,0,1-1.63,1.89,6,6,0,0,1-2,1,10,10,0,0,1-3,.39l.23-1.05a5.57,5.57,0,0,0,1.84-.26,3.78,3.78,0,0,0,1.28-.76,6.36,6.36,0,0,0,1.3-1.7,18.66,18.66,0,0,0,1.34-3.31c.42-1.35.81-2.9,1.19-4.67.29-1.37.53-2.58.7-3.64a23.49,23.49,0,0,0,.34-3.6,6.06,6.06,0,0,0-.37-2.37,2.3,2.3,0,0,0-1-1.21A3.9,3.9,0,0,0,577.7,49Z"/><line x1="503.81" y1="42.02" x2="601.94" y2="42.02" style="fill:none;stroke:#000;stroke-miterlimit:10;stroke-width:1.3400589524108597px"/><path d="M147.43,62.3h-9.06l.23-1.06a3.39,3.39,0,0,0,1.25-.34,2,2,0,0,0,.72-.68,6.08,6.08,0,0,0,.64-1.42,29.74,29.74,0,0,0,.75-3l4.61-21.22h-2.73a5,5,0,0,0-2.14.39,4.65,4.65,0,0,0-1.59,1.45A20.89,20.89,0,0,0,138.17,40h-2.06l1.61-7.3H160.2l-1.68,7.63h-2.07c0-1.4,0-2.45-.11-3.15a4.35,4.35,0,0,0-.41-1.61,1.65,1.65,0,0,0-.74-.76,4,4,0,0,0-1.56-.2h-3.19L145.77,56q-.2.85-.27,1.35c-.05.33-.09.68-.13,1s-.05.7-.05,1a2.1,2.1,0,0,0,.22,1,1.29,1.29,0,0,0,.64.55,5.6,5.6,0,0,0,1.49.26Z"/><path d="M59.71,54c-.09.39-.17.73-.22,1s-.1.61-.14,1-.06.75-.06,1a2,2,0,0,0,.2,1,1.12,1.12,0,0,0,.59.5,4.82,4.82,0,0,0,1.35.24l-.22,1h-8l.22-1a2.8,2.8,0,0,0,1.11-.38,2.19,2.19,0,0,0,.63-.74,7.32,7.32,0,0,0,.47-1.16c.14-.45.36-1.33.64-2.63L59.57,38.7A15.41,15.41,0,0,0,60,35.58a1.68,1.68,0,0,0-.45-1.34,2.54,2.54,0,0,0-1.47-.43l.22-1H76l-1.35,6H72.72a19.89,19.89,0,0,0-.22-2.19,4.19,4.19,0,0,0-.34-1.2,1.76,1.76,0,0,0-.46-.58,1.64,1.64,0,0,0-.63-.26A5.2,5.2,0,0,0,70,34.58H64L61.62,45.3h3.66a3.68,3.68,0,0,0,1.43-.24,2.69,2.69,0,0,0,1.06-.86A12.78,12.78,0,0,0,69,42.09h1.78l-1.9,8.31H67.14c0-.81,0-1.45,0-1.91a2.08,2.08,0,0,0-.23-1,1,1,0,0,0-.53-.39A4.82,4.82,0,0,0,65.09,47H61.25Z"/><path d="M74,53.77a9,9,0,0,0-.27-1.46,1.17,1.17,0,0,0-.4-.63,1.61,1.61,0,0,0-.9-.25l.15-.68h3.57l1.06,11q4.68-6.41,4.69-9.19a1.13,1.13,0,0,0-.28-.89,1.62,1.62,0,0,0-.94-.27l.14-.68h3.58l.37.69a30.27,30.27,0,0,1-1.88,4c-.76,1.38-1.7,2.89-2.8,4.53s-2.34,3.34-3.69,5.11a31.92,31.92,0,0,1-2.61,3.08,8.36,8.36,0,0,1-1.51,1.2,5.06,5.06,0,0,1-2.7.76,5.37,5.37,0,0,1-.84-.08,4.35,4.35,0,0,1-.81-.2l.6-2.6h1.08a1.26,1.26,0,0,0,.22.75.72.72,0,0,0,.61.28,2.91,2.91,0,0,0,.77-.09,3,3,0,0,0,.67-.3,5.38,5.38,0,0,0,.86-.67A12.71,12.71,0,0,0,73.93,66c.42-.51.9-1.11,1.43-1.83Z"/><path d="M13.64,15.13l13,26.27v2.7L12.06,70.76H29.68a8.4,8.4,0,0,0,2.51-.28,3.76,3.76,0,0,0,1.44-.87A5.45,5.45,0,0,0,34.73,68a15.58,15.58,0,0,0,1-2.9,45.92,45.92,0,0,0,.86-4.83h3.13L38.9,77.59h-34v-2L21.49,45.42,6,13.46v-2H39V27.25H36.14q-.68-3.37-1.27-5.51a20.1,20.1,0,0,0-1.24-3.38,7.61,7.61,0,0,0-1.28-1.9,4.26,4.26,0,0,0-1.52-1,6.2,6.2,0,0,0-2.27-.34Z"/><path d="M120.69,42.76H101.61V39.45h19.08Zm0,8.77H101.61V48.22h19.08Z"/><path d="M381.43,43.53H362.35V40.22h19.08Zm0,8.77H362.35V49h19.08Z"/><path d="M495.06,43.53H476V40.22h19.08Zm0,8.77H476V49h19.08Z"/><path d="M185.49,47.11a8.32,8.32,0,0,0-.23-2.06,1.78,1.78,0,0,0-.63-.95,2,2,0,0,0-1.24-.32A4.63,4.63,0,0,0,180,45.29a11,11,0,0,0-2.45,4.27,16.35,16.35,0,0,0-.94,5.3,7,7,0,0,0,.14,1.48,3.22,3.22,0,0,0,.48,1.2,2.43,2.43,0,0,0,.91.8,3.21,3.21,0,0,0,1.44.29,6.27,6.27,0,0,0,2.93-.65,11.18,11.18,0,0,0,2.61-2l1.13,1.14a12.2,12.2,0,0,1-3.52,2.85,8.33,8.33,0,0,1-3.82.9,5.12,5.12,0,0,1-4.09-1.61,7,7,0,0,1-1.39-4.68,14.73,14.73,0,0,1,.74-4.4,12.9,12.9,0,0,1,2.18-4.22,9.25,9.25,0,0,1,3.34-2.71,9.51,9.51,0,0,1,4.09-.9,16.58,16.58,0,0,1,2.6.17,18.85,18.85,0,0,1,2,.39l-.91,4.23Z"/><path d="M195.92,60.84a6,6,0,0,1-4.47-1.63,6.44,6.44,0,0,1-1.59-4.68,15.43,15.43,0,0,1,.28-2.64,16,16,0,0,1,1-3.49,11.11,11.11,0,0,1,2.14-3.26,8.94,8.94,0,0,1,3-2.1,9.25,9.25,0,0,1,3.65-.72,6.69,6.69,0,0,1,3.5.82,4.83,4.83,0,0,1,2,2.24,8.12,8.12,0,0,1,.62,3.27,14.89,14.89,0,0,1-.47,3.55,14.52,14.52,0,0,1-2,4.7,8.5,8.5,0,0,1-3.22,2.93A9.63,9.63,0,0,1,195.92,60.84Zm-2.8-5.51a4.6,4.6,0,0,0,.84,3,3.19,3.19,0,0,0,2.56,1,4.17,4.17,0,0,0,3.23-1.65A11.86,11.86,0,0,0,202,53.09a20.05,20.05,0,0,0,.81-5.21,5,5,0,0,0-.78-3,2.86,2.86,0,0,0-2.43-1,4.4,4.4,0,0,0-3.38,1.62,11.77,11.77,0,0,0-2.27,4.67A20.31,20.31,0,0,0,193.12,55.33Z"/><path d="M219.89,47a4.12,4.12,0,0,0-1-2.44,3.14,3.14,0,0,0-2.33-.76,3.69,3.69,0,0,0-1.58.33,2.54,2.54,0,0,0-1.12,1,2.66,2.66,0,0,0-.41,1.47,2.91,2.91,0,0,0,.28,1.26,4.18,4.18,0,0,0,.94,1.19,15.13,15.13,0,0,0,1.85,1.43,8.74,8.74,0,0,1,2.53,2.36,4.84,4.84,0,0,1,.72,2.64,5.2,5.2,0,0,1-.83,3,5,5,0,0,1-2.29,1.83,8.51,8.51,0,0,1-3.27.6,17.39,17.39,0,0,1-3.06-.25A26.43,26.43,0,0,1,207.6,60l.87-4.05h1.45a4,4,0,0,0,1,2.58,3.34,3.34,0,0,0,2.46.85,3.77,3.77,0,0,0,2.59-.83,2.82,2.82,0,0,0,.93-2.2,3.71,3.71,0,0,0-.28-1.45,3.89,3.89,0,0,0-.88-1.21A12.3,12.3,0,0,0,214,52.32a14.61,14.61,0,0,1-1.89-1.52A5.27,5.27,0,0,1,211,49.24a4.34,4.34,0,0,1-.4-1.88,4.57,4.57,0,0,1,2.93-4.44,8.31,8.31,0,0,1,3.28-.6,16.79,16.79,0,0,1,5.41.8L221.38,47Z"/><path d="M239.48,68.66a8.4,8.4,0,0,1-4.28-1,5.5,5.5,0,0,1-2.37-2.78,12.38,12.38,0,0,1-.73-4.58,31.41,31.41,0,0,1,.33-4.31q.45-3,1.29-6.76c.57-2.48,1.12-4.54,1.67-6.18a22.09,22.09,0,0,1,2-4.55,10.55,10.55,0,0,1,2.4-2.8,9,9,0,0,1,3-1.54,15.07,15.07,0,0,1,4.37-.56l-.34,1.53a8.12,8.12,0,0,0-2.69.38,5.62,5.62,0,0,0-1.9,1.12,9.44,9.44,0,0,0-1.84,2.42,27,27,0,0,0-2,4.85c-.55,1.72-1.09,3.82-1.64,6.31q-.66,3-1.08,5.48a36.45,36.45,0,0,0-.55,5.66,8.89,8.89,0,0,0,.53,3.44,3.33,3.33,0,0,0,1.52,1.77,5.61,5.61,0,0,0,2.61.52Z"/><path d="M264.16,33.65a8.53,8.53,0,0,1,4.28,1,5.54,5.54,0,0,1,2.37,2.78,12.38,12.38,0,0,1,.73,4.58,30,30,0,0,1-.33,4.22q-.45,3.26-1.38,7.24-.87,3.69-1.67,6a22.3,22.3,0,0,1-2,4.37,10.42,10.42,0,0,1-2.38,2.76,8.72,8.72,0,0,1-3,1.52,14.64,14.64,0,0,1-4.35.56l.34-1.53a8.06,8.06,0,0,0,2.68-.38,5.6,5.6,0,0,0,1.87-1.1,9.43,9.43,0,0,0,1.9-2.49,26.83,26.83,0,0,0,2-4.84c.61-2,1.19-4.24,1.74-6.83.43-2,.77-3.77,1-5.31a35.39,35.39,0,0,0,.5-5.27,9,9,0,0,0-.54-3.46,3.36,3.36,0,0,0-1.53-1.76,5.7,5.7,0,0,0-2.6-.51Z"/><path d="M291.32,52.11h-8.13l.62-2.9h8.12Z"/><path d="M319,46.29v.26c0,.09,0,.18,0,.28a13.85,13.85,0,0,1,3.21-3.41,5.8,5.8,0,0,1,3.31-1.1,3.46,3.46,0,0,1,2.69,1,4.28,4.28,0,0,1,.92,3,13.49,13.49,0,0,1-.37,2.88l-1.56,6.67a10.05,10.05,0,0,0-.32,2.13,1.67,1.67,0,0,0,.19.88,1.16,1.16,0,0,0,.57.49,4.82,4.82,0,0,0,1.29.26l-.17.92h-5.84L325.22,51c.18-.69.33-1.39.46-2.09a10.72,10.72,0,0,0,.19-1.92,3.07,3.07,0,0,0-.46-1.92,1.79,1.79,0,0,0-1.47-.57,3,3,0,0,0-1.63.6,8.6,8.6,0,0,0-1.88,1.83,14.49,14.49,0,0,0-1.61,2.45,11.55,11.55,0,0,0-1,3l-1.69,8.18h-3.21L315.05,51c.26-1.16.44-2,.53-2.58a8.07,8.07,0,0,0,.14-1.43,3,3,0,0,0-.47-1.92,1.82,1.82,0,0,0-1.48-.57,3,3,0,0,0-1.64.61A8.56,8.56,0,0,0,310.22,47a14,14,0,0,0-1.61,2.5,12.28,12.28,0,0,0-.94,2.91L306,60.52h-3.22l2.83-12.79c.06-.29.15-.71.25-1.27a7.57,7.57,0,0,0,.16-1.41,1.64,1.64,0,0,0-.16-.81.89.89,0,0,0-.54-.43,4.79,4.79,0,0,0-1.29-.2l.22-1,4.24-.17h1l-1.22,4.85.22.07a15,15,0,0,1,3.4-3.81,5.74,5.74,0,0,1,3.42-1.24,3.5,3.5,0,0,1,2.72,1A4.23,4.23,0,0,1,319,46.29Z"/><path d="M333.46,62.13a6,6,0,0,0-.59.85,3.1,3.1,0,0,0-.35.81,3.76,3.76,0,0,0-.1.94,2.25,2.25,0,0,0,1,2,5.68,5.68,0,0,0,3,.65,6.43,6.43,0,0,0,3.07-.66,5.62,5.62,0,0,0,2.08-2,15,15,0,0,0,1.5-3.35,51.33,51.33,0,0,0,1.31-5.33l-.26-.06a16.7,16.7,0,0,1-3.35,3.64,5.49,5.49,0,0,1-3.32,1.14,3.67,3.67,0,0,1-3.16-1.54,7.31,7.31,0,0,1-1.12-4.38,15.87,15.87,0,0,1,.54-4.1,14.56,14.56,0,0,1,1.5-3.65,11.38,11.38,0,0,1,2.19-2.71,8.71,8.71,0,0,1,2.57-1.6,7.8,7.8,0,0,1,2.83-.52,8.31,8.31,0,0,1,2.21.28,7.81,7.81,0,0,1,2.1,1l1.71-1.23,1.19.3-1.93,8.78c-.14.63-.28,1.33-.43,2.12L347.2,56c-.58,2.95-1.05,5-1.4,6.08a13.51,13.51,0,0,1-1.48,3.23,8.1,8.1,0,0,1-1.9,2,8.45,8.45,0,0,1-2.54,1.23,12.15,12.15,0,0,1-3.39.43c-4.69,0-7-1.38-7-4.12a3.15,3.15,0,0,1,.63-1.91,8.52,8.52,0,0,1,2-1.82Zm5.34-3.54a3.23,3.23,0,0,0,1.88-.66,9.26,9.26,0,0,0,2-2.07,15,15,0,0,0,1.66-2.72,15.51,15.51,0,0,0,1-3.22,16.07,16.07,0,0,0,.42-3.35,3.08,3.08,0,0,0-.62-2.13,2.69,2.69,0,0,0-2-.66,4.36,4.36,0,0,0-1.49.25,5,5,0,0,0-1.43.84,7.62,7.62,0,0,0-1.39,1.55,11.65,11.65,0,0,0-1.2,2.32,16.35,16.35,0,0,0-.83,2.93,16.14,16.14,0,0,0-.3,3,6,6,0,0,0,.56,2.92A1.87,1.87,0,0,0,338.8,58.59Z"/><path d="M398.62,59.27a6.27,6.27,0,0,1-2.95-.65,4.39,4.39,0,0,1-1.91-2.16,9.7,9.7,0,0,1-.68-4,27.58,27.58,0,0,1,.45-4.75,31.74,31.74,0,0,1,1.22-4.82,22.54,22.54,0,0,1,1.85-4.12A14.69,14.69,0,0,1,399,35.71a9.41,9.41,0,0,1,2.76-1.93,7.18,7.18,0,0,1,3-.67,6,6,0,0,1,2.59.49A4.42,4.42,0,0,1,409.06,35,5.45,5.45,0,0,1,410,37a11.44,11.44,0,0,1,.29,2.65,29.59,29.59,0,0,1-1.18,8.15,23.91,23.91,0,0,1-3,6.84,11.07,11.07,0,0,1-3.63,3.54A7.55,7.55,0,0,1,398.62,59.27Zm-2.32-5.58a8.62,8.62,0,0,0,.26,2.37,2.26,2.26,0,0,0,.8,1.24,2.56,2.56,0,0,0,1.49.38,3.79,3.79,0,0,0,2.7-1.33,13.13,13.13,0,0,0,2.47-4,37.89,37.89,0,0,0,2.11-6.76,32,32,0,0,0,.95-7.11,5.53,5.53,0,0,0-.58-2.9,2.08,2.08,0,0,0-1.87-.91,3.33,3.33,0,0,0-1.6.42,5.82,5.82,0,0,0-1.84,1.66,16.18,16.18,0,0,0-2.05,3.71,39.5,39.5,0,0,0-1.5,4.66c-.32,1.28-.6,2.52-.82,3.75A25.25,25.25,0,0,0,396.3,53.69Z"/><path d="M425,54.63a11.68,11.68,0,0,1-.14,1.61,10.34,10.34,0,0,1-.39,1.79,8.28,8.28,0,0,1-.63,1.52,7.9,7.9,0,0,1-.92,1.35,13.36,13.36,0,0,1-1.51,1.51A22.47,22.47,0,0,1,419,64.19L418.11,63a17.62,17.62,0,0,0,1.38-1.27,5.59,5.59,0,0,0,.81-1.07,7.42,7.42,0,0,0,.57-1.26,19,19,0,0,0,.55-2.07,25,25,0,0,0,.44-2.73Zm2.73-12.55-.95,4.35h-3.53l.95-4.35Z"/><path d="M450.77,59H443l.2-.92a3,3,0,0,0,1.08-.29,1.82,1.82,0,0,0,.62-.59A5.32,5.32,0,0,0,445.4,56a26,26,0,0,0,.65-2.56l4-18.33h-2.36a4.14,4.14,0,0,0-1.84.34,4,4,0,0,0-1.38,1.25,18.3,18.3,0,0,0-1.67,3.07H441l1.4-6.31H461.8L460.35,40h-1.79c0-1.21,0-2.12-.09-2.72a3.82,3.82,0,0,0-.35-1.39,1.49,1.49,0,0,0-.64-.65,3.54,3.54,0,0,0-1.35-.18h-2.75l-4,18.46c-.11.49-.19.88-.23,1.16s-.08.59-.11.91-.05.6-.05.85a1.79,1.79,0,0,0,.19.91,1.06,1.06,0,0,0,.56.48,4.83,4.83,0,0,0,1.28.22Z"/></svg>