<svg id="Capa_1" data-name="Capa 1" xmlns="http://www.w3.org/2000/svg" viewBox="0 0 621.75 84.77"><path d="M151.18,57.76a7.13,7.13,0,0,1-3.39-.75,5.07,5.07,0,0,1-2.19-2.48,11.06,11.06,0,0,1-.77-4.53,31.86,31.86,0,0,1,.51-5.44A36.78,36.78,0,0,1,146.73,39a25.56,25.56,0,0,1,2.13-4.72,16.58,16.58,0,0,1,2.72-3.58,10.92,10.92,0,0,1,3.16-2.21,8.38,8.38,0,0,1,3.48-.77,7.14,7.14,0,0,1,3,.56,5.13,5.13,0,0,1,2,1.56,6.43,6.43,0,0,1,1.09,2.38,13.18,13.18,0,0,1,.33,3,33.81,33.81,0,0,1-1.36,9.36,27.41,27.41,0,0,1-3.44,7.85,12.6,12.6,0,0,1-4.16,4.06A8.62,8.62,0,0,1,151.18,57.76Zm-2.66-6.4a10,10,0,0,0,.29,2.71,2.58,2.58,0,0,0,.92,1.42,2.92,2.92,0,0,0,1.71.44,4.4,4.4,0,0,0,3.1-1.52,15.4,15.4,0,0,0,2.84-4.56,43.72,43.72,0,0,0,2.42-7.75,37,37,0,0,0,1.09-8.17,6.4,6.4,0,0,0-.67-3.32,2.39,2.39,0,0,0-2.15-1,3.92,3.92,0,0,0-1.83.47A6.84,6.84,0,0,0,154.13,32a18.16,18.16,0,0,0-2.35,4.26,43.86,43.86,0,0,0-1.73,5.35c-.37,1.46-.68,2.89-.94,4.3A29.1,29.1,0,0,0,148.52,51.36Z"/><path d="M65.72,51.73c-.09.39-.16.72-.21,1a9.26,9.26,0,0,0-.14,1q-.06.6-.06,1.05a2,2,0,0,0,.2.95,1.13,1.13,0,0,0,.58.49,4.73,4.73,0,0,0,1.34.24l-.22.95h-8l.22-.95a2.69,2.69,0,0,0,1.1-.38,2.08,2.08,0,0,0,.62-.74,7,7,0,0,0,.47-1.14c.14-.45.35-1.32.64-2.6l3.29-15A15,15,0,0,0,66,33.47a1.65,1.65,0,0,0-.45-1.33,2.54,2.54,0,0,0-1.45-.43l.21-.95H81.81l-1.33,6H78.61a20.36,20.36,0,0,0-.21-2.18,4.12,4.12,0,0,0-.34-1.18,1.6,1.6,0,0,0-.45-.57,1.65,1.65,0,0,0-.63-.27,6,6,0,0,0-1.08-.07h-6L67.62,43.1h3.63a3.61,3.61,0,0,0,1.41-.24,2.54,2.54,0,0,0,1-.84,12.7,12.7,0,0,0,1.2-2.1h1.77l-1.89,8.24h-1.7c0-.81,0-1.44,0-1.9a2.07,2.07,0,0,0-.23-.95.94.94,0,0,0-.53-.38,4.27,4.27,0,0,0-1.23-.11h-3.8Z"/><path d="M90.39,49.17Q87.72,52,84.81,54.8l1.28,3c.33.81.61,1.4.81,1.79a3.47,3.47,0,0,0,.55.82,1.76,1.76,0,0,0,.49.37,2.92,2.92,0,0,0,.79.19l-.15.67H85.15l-1.91-5.53c-.22.19-.51.46-.88.81s-.71.71-1,1.1a5.86,5.86,0,0,0-.71.94,2.24,2.24,0,0,0-.27.62,2.33,2.33,0,0,0-.06.53.8.8,0,0,0,.19.57,1.31,1.31,0,0,0,.69.29l-.15.67H77.07L76.81,61c2-2.16,4-4.14,5.93-6L81.43,52c-.26-.62-.48-1.1-.64-1.42a4.22,4.22,0,0,0-.48-.76,1.46,1.46,0,0,0-.52-.41,2.38,2.38,0,0,0-.85-.19l.16-.67h3.42l1.83,5.19c.45-.42.88-.84,1.28-1.28a7.32,7.32,0,0,0,.85-1,3.2,3.2,0,0,0,.35-.69,2.18,2.18,0,0,0,.09-.63c0-.51-.29-.79-.88-.87l.16-.67h3.92Z"/><path d="M211.67,54.15c-.09.39-.16.72-.22,1s-.09.61-.13,1a10.37,10.37,0,0,0-.06,1,2,2,0,0,0,.19,1,1.17,1.17,0,0,0,.59.5,5.13,5.13,0,0,0,1.33.23l-.21,1h-8l.21-1a2.6,2.6,0,0,0,1.11-.38,2.13,2.13,0,0,0,.62-.73,7.58,7.58,0,0,0,.47-1.15c.14-.44.35-1.31.64-2.6l3.29-15a15,15,0,0,0,.43-3.09,1.63,1.63,0,0,0-.45-1.32,2.49,2.49,0,0,0-1.45-.43l.21-1h17.49l-1.34,6h-1.86a20.1,20.1,0,0,0-.21-2.18,4,4,0,0,0-.34-1.18,1.66,1.66,0,0,0-.46-.58,1.52,1.52,0,0,0-.63-.26,5,5,0,0,0-1.07-.08h-6l-2.31,10.62h3.62a3.87,3.87,0,0,0,1.42-.23,2.8,2.8,0,0,0,1-.85,12.7,12.7,0,0,0,1.2-2.1h1.76l-1.88,8.24H219c0-.81,0-1.44,0-1.89a1.94,1.94,0,0,0-.24-1,.93.93,0,0,0-.52-.38,4.73,4.73,0,0,0-1.23-.11h-3.8Z"/><path d="M233.44,54.21a6.66,6.66,0,0,0-.17-1.51,1.34,1.34,0,0,0-.47-.7,1.53,1.53,0,0,0-.92-.24,3.46,3.46,0,0,0-2.5,1.11,8.17,8.17,0,0,0-1.8,3.14,11.85,11.85,0,0,0-.71,3.9A5.44,5.44,0,0,0,227,61a2.39,2.39,0,0,0,.35.88,1.83,1.83,0,0,0,.68.58,2.36,2.36,0,0,0,1.07.22,4.59,4.59,0,0,0,2.16-.48,8.2,8.2,0,0,0,1.94-1.49l.84.84a9.39,9.39,0,0,1-2.61,2.09,6.23,6.23,0,0,1-2.83.66,3.84,3.84,0,0,1-3-1.18,5.14,5.14,0,0,1-1-3.44,10.84,10.84,0,0,1,.55-3.24,9.47,9.47,0,0,1,1.61-3.09,6.84,6.84,0,0,1,2.48-2,7.06,7.06,0,0,1,3-.66,13.25,13.25,0,0,1,1.91.12c.55.09,1,.18,1.46.29l-.68,3.11Z"/><path d="M20.07,13.2,33,39.24v2.67L18.5,68.33H36a8.18,8.18,0,0,0,2.48-.28,3.75,3.75,0,0,0,1.43-.86A5.64,5.64,0,0,0,41,65.57a15.78,15.78,0,0,0,.94-2.87,43.24,43.24,0,0,0,.85-4.79h3.11L45.1,75.1H11.44v-2l16.4-29.9L12.45,11.55v-2H45.23V25.22H42.37q-.67-3.36-1.26-5.46a18.9,18.9,0,0,0-1.23-3.35,7.53,7.53,0,0,0-1.27-1.89,4.29,4.29,0,0,0-1.5-1,6.36,6.36,0,0,0-2.26-.34Z"/><path d="M126.15,40.58h-18.9V37.3h18.9Zm0,8.69h-18.9V46h18.9Z"/><path d="M530.11,59.31q-5.45,0-5.45-6.89a24,24,0,0,1,3.19-11.71Q531,34.95,535.91,35,541,35,541,41.7a24.82,24.82,0,0,1-3.11,11.8Q534.83,59.3,530.11,59.31Zm-1.73-11.86a29.26,29.26,0,0,0-.9,6.47c0,2.63,1,3.95,2.95,3.95q2.12,0,3.85-2.75a25.51,25.51,0,0,0,2.89-7.67Zm.43-1.61h8.72a33.59,33.59,0,0,0,.66-5.57q0-3.89-2.61-3.88-2,0-3.75,2.46A22.14,22.14,0,0,0,528.81,45.84Z"/><path d="M599.94,60.88a7.13,7.13,0,0,1-3.39-.75,5.07,5.07,0,0,1-2.19-2.48,11.06,11.06,0,0,1-.77-4.53,31.86,31.86,0,0,1,.51-5.44,35.61,35.61,0,0,1,1.4-5.54,24.9,24.9,0,0,1,2.12-4.72,16.58,16.58,0,0,1,2.72-3.58,11.05,11.05,0,0,1,3.16-2.21,8.38,8.38,0,0,1,3.48-.77,7.14,7.14,0,0,1,3,.56,5.13,5.13,0,0,1,2,1.56A6.43,6.43,0,0,1,613,35.36a13.18,13.18,0,0,1,.33,3A33.81,33.81,0,0,1,612,47.76a27.41,27.41,0,0,1-3.44,7.85,12.6,12.6,0,0,1-4.16,4.06A8.62,8.62,0,0,1,599.94,60.88Zm-2.66-6.4a9.6,9.6,0,0,0,.3,2.71,2.52,2.52,0,0,0,.91,1.42,2.92,2.92,0,0,0,1.71.44,4.39,4.39,0,0,0,3.1-1.52A15.4,15.4,0,0,0,606.14,53a43.72,43.72,0,0,0,2.42-7.75,37,37,0,0,0,1.09-8.17,6.4,6.4,0,0,0-.67-3.32,2.39,2.39,0,0,0-2.15-1,4,4,0,0,0-1.83.47,6.84,6.84,0,0,0-2.11,1.91,18.53,18.53,0,0,0-2.35,4.26,43.86,43.86,0,0,0-1.73,5.35c-.37,1.46-.68,2.89-.94,4.3A30,30,0,0,0,597.28,54.48Z"/><path d="M582,44.89H563.1V41.61H582Zm0,8.69H563.1V50.3H582Z"/><path d="M379.29,60.65q-5.46,0-5.45-6.89A24,24,0,0,1,377,42.06q3.18-5.76,8.07-5.76,5.12,0,5.12,6.75a24.74,24.74,0,0,1-3.1,11.79Q384,60.65,379.29,60.65Zm-1.74-11.86a29.26,29.26,0,0,0-.9,6.48q0,3.94,3,3.94c1.4,0,2.68-.91,3.84-2.75a25.41,25.41,0,0,0,2.89-7.67Zm.43-1.61h8.72a33.48,33.48,0,0,0,.66-5.57c0-2.58-.87-3.88-2.61-3.88q-2,0-3.75,2.46A22.37,22.37,0,0,0,378,47.18Z"/><path d="M255.64,51.2h-7.42l.56-2.65h7.42Z"/><path d="M277.31,58.87h-7.15l.19-.83a2.85,2.85,0,0,0,1-.27,1.62,1.62,0,0,0,.57-.54,4.47,4.47,0,0,0,.5-1.12,23.71,23.71,0,0,0,.6-2.33l3.63-16.73h-2.16a3.79,3.79,0,0,0-1.68.31,3.7,3.7,0,0,0-1.25,1.14A16.54,16.54,0,0,0,270,41.31h-1.63l1.27-5.76h17.72l-1.32,6h-1.63c0-1.1,0-1.93-.09-2.48a3.29,3.29,0,0,0-.32-1.27,1.32,1.32,0,0,0-.59-.6,3.4,3.4,0,0,0-1.23-.16h-2.51L276,53.9c-.1.45-.17.8-.21,1.06s-.08.54-.1.83a7.78,7.78,0,0,0-.05.78,1.74,1.74,0,0,0,.17.83,1,1,0,0,0,.51.43,4.75,4.75,0,0,0,1.17.21Z"/><path d="M291.36,60.67a6,6,0,0,0-.16,1.13.75.75,0,0,0,.24.6,1.89,1.89,0,0,0,.84.31,12.18,12.18,0,0,0,1.83.13l-.24,1.09h-8.62l.22-1.09a14.38,14.38,0,0,0,1.68-.13,3,3,0,0,0,.93-.27,1.51,1.51,0,0,0,.55-.48,2.49,2.49,0,0,0,.35-1l1.68-7.67c0-.15.06-.28.08-.39s0-.18,0-.23a.37.37,0,0,0-.13-.34.69.69,0,0,0-.38-.09,2.92,2.92,0,0,0-1,.3q-.67.28-1.86.9l-.55-1.2,6-2.75h1c-.24.92-.48,1.91-.71,3Z"/><path d="M310.68,54.91l-.86,4H306.6l.86-4Z"/><path d="M341.19,36.15l-1,4.63h-1.63a5.34,5.34,0,0,0-.91-3,3.06,3.06,0,0,0-2.49-.93,4.68,4.68,0,0,0-2.68.85,9.22,9.22,0,0,0-2.37,2.44,17.29,17.29,0,0,0-2,3.74,26.11,26.11,0,0,0-1.28,4.38,21.29,21.29,0,0,0-.44,4,7.26,7.26,0,0,0,.91,4.1,3.21,3.21,0,0,0,2.84,1.3,5.8,5.8,0,0,0,2.22-.38,5,5,0,0,0,1.79-1.3,11.37,11.37,0,0,0,1.64-2.55h1.63l-1,4.85a22.89,22.89,0,0,1-3.35.68,25.46,25.46,0,0,1-3.31.21,6.86,6.86,0,0,1-3.58-.88A5.55,5.55,0,0,1,324,55.72a9.73,9.73,0,0,1-.75-4,17,17,0,0,1,.17-2.39,30.29,30.29,0,0,1,.65-3.13,20.19,20.19,0,0,1,1.41-3.82,16.44,16.44,0,0,1,2.08-3.23,11.85,11.85,0,0,1,2.4-2.17,9.66,9.66,0,0,1,2.56-1.25,9.34,9.34,0,0,1,2.92-.45,21.11,21.11,0,0,1,2.86.19A18.91,18.91,0,0,1,341.19,36.15Z"/><path d="M346.79,59.17a5.45,5.45,0,0,1-4.08-1.49,5.9,5.9,0,0,1-1.45-4.27,13.52,13.52,0,0,1,.26-2.41,14.59,14.59,0,0,1,.91-3.18,10.22,10.22,0,0,1,2-3,8.24,8.24,0,0,1,2.75-1.92,8.47,8.47,0,0,1,3.34-.66,6,6,0,0,1,3.19.76,4.31,4.31,0,0,1,1.81,2,7.47,7.47,0,0,1,.56,3,13.81,13.81,0,0,1-.42,3.25,13.55,13.55,0,0,1-1.78,4.29,7.89,7.89,0,0,1-2.94,2.67A8.83,8.83,0,0,1,346.79,59.17Zm-2.56-5a4.23,4.23,0,0,0,.77,2.78,2.92,2.92,0,0,0,2.34.89,3.81,3.81,0,0,0,3-1.5,10.88,10.88,0,0,0,2-4.21,18.53,18.53,0,0,0,.74-4.76,4.57,4.57,0,0,0-.71-2.78,2.63,2.63,0,0,0-2.22-.93,4,4,0,0,0-3.08,1.49A10.48,10.48,0,0,0,345,49.37,18.36,18.36,0,0,0,344.23,54.14Z"/><path d="M368.67,46.52a3.75,3.75,0,0,0-.88-2.23,2.9,2.9,0,0,0-2.13-.69,3.37,3.37,0,0,0-1.44.3,2.33,2.33,0,0,0-1.39,2.21,2.58,2.58,0,0,0,.25,1.15,4,4,0,0,0,.86,1.09,15,15,0,0,0,1.69,1.3,8,8,0,0,1,2.31,2.15,4.4,4.4,0,0,1,.66,2.41,4.81,4.81,0,0,1-.76,2.73,4.6,4.6,0,0,1-2.09,1.66,7.66,7.66,0,0,1-3,.55,17.54,17.54,0,0,1-2.79-.22,25.63,25.63,0,0,1-2.52-.57l.8-3.69h1.32a3.64,3.64,0,0,0,.89,2.35,3,3,0,0,0,2.25.78,3.45,3.45,0,0,0,2.36-.76,2.56,2.56,0,0,0,.85-2,3.27,3.27,0,0,0-.26-1.32,3.74,3.74,0,0,0-.79-1.11,13,13,0,0,0-1.55-1.21A13.37,13.37,0,0,1,361.59,50a5.19,5.19,0,0,1-1-1.43,4,4,0,0,1-.36-1.72,4.26,4.26,0,0,1,.7-2.46,4.35,4.35,0,0,1,2-1.59,7.68,7.68,0,0,1,3-.55,15.12,15.12,0,0,1,4.93.74L370,46.52Z"/><path d="M402.84,51.2h-7.41l.56-2.65h7.41Z"/><path d="M424.51,58.87h-7.14l.18-.83a3,3,0,0,0,1-.27,1.81,1.81,0,0,0,.57-.54,4.87,4.87,0,0,0,.5-1.12c.17-.5.36-1.28.59-2.33l3.63-16.73h-2.15a3.12,3.12,0,0,0-2.94,1.45,16.54,16.54,0,0,0-1.53,2.81h-1.63l1.28-5.76h17.71l-1.32,6h-1.63c0-1.1,0-1.93-.08-2.48a3.45,3.45,0,0,0-.33-1.27,1.35,1.35,0,0,0-.58-.6,3.4,3.4,0,0,0-1.23-.16h-2.51L423.2,53.9c-.1.45-.17.8-.21,1.06s-.07.54-.1.83a7.54,7.54,0,0,0,0,.78,1.63,1.63,0,0,0,.17.83,1,1,0,0,0,.51.43,4.55,4.55,0,0,0,1.17.21Z"/><path d="M438,62a2.39,2.39,0,0,0,.92-.13,1.35,1.35,0,0,0,.55-.42,4.13,4.13,0,0,0,.54-.9h1.3l-.86,3.38h-9.52l.17-.78a21.54,21.54,0,0,1,4.73-5.06l1.53-1.28A21.25,21.25,0,0,0,439,55.3a6.21,6.21,0,0,0,.83-1.06,3.67,3.67,0,0,0,.41-.92,3.61,3.61,0,0,0,.12-.94,1.52,1.52,0,0,0-.56-1.24,2.41,2.41,0,0,0-1.57-.45,2.83,2.83,0,0,0-1.74.53,3.77,3.77,0,0,0-1.16,1.47h-1.75l.51-2.33a15,15,0,0,1,4.84-.94,5.74,5.74,0,0,1,1.76.25,3.75,3.75,0,0,1,1.21.65,2.56,2.56,0,0,1,.7.9,2.53,2.53,0,0,1,.22,1,4.09,4.09,0,0,1-.38,1.81A6.88,6.88,0,0,1,441,55.76q-1,1-3.34,2.79A29.62,29.62,0,0,0,433.91,62Z"/><path d="M457.89,54.91l-.87,4H453.8l.86-4Z"/><path d="M488.4,36.15l-1,4.63h-1.63a5.26,5.26,0,0,0-.91-3,3,3,0,0,0-2.48-.93,4.65,4.65,0,0,0-2.68.85,9.4,9.4,0,0,0-2.38,2.44,17.29,17.29,0,0,0-1.95,3.74,25.17,25.17,0,0,0-1.27,4.38,20.57,20.57,0,0,0-.45,4,7.34,7.34,0,0,0,.91,4.1,3.23,3.23,0,0,0,2.84,1.3,5.89,5.89,0,0,0,2.23-.38,5,5,0,0,0,1.78-1.3A11.73,11.73,0,0,0,483,53.41h1.62l-1,4.85a22.77,22.77,0,0,1-3.34.68,25.69,25.69,0,0,1-3.31.21,6.84,6.84,0,0,1-3.58-.88,5.51,5.51,0,0,1-2.23-2.55,9.9,9.9,0,0,1-.74-4,15.64,15.64,0,0,1,.17-2.39,27.69,27.69,0,0,1,.64-3.13,20.9,20.9,0,0,1,1.41-3.82,16.47,16.47,0,0,1,2.09-3.23A11.55,11.55,0,0,1,477.13,37a9.81,9.81,0,0,1,2.56-1.25,9.34,9.34,0,0,1,2.92-.45,21.11,21.11,0,0,1,2.86.19A19,19,0,0,1,488.4,36.15Z"/><path d="M494,59.17a5.42,5.42,0,0,1-4.08-1.49,5.86,5.86,0,0,1-1.45-4.27,13.41,13.41,0,0,1,.25-2.41,14.58,14.58,0,0,1,.92-3.18,10.22,10.22,0,0,1,2-3,8,8,0,0,1,2.75-1.92,8.39,8.39,0,0,1,3.33-.66,6,6,0,0,1,3.2.76,4.42,4.42,0,0,1,1.81,2,7.47,7.47,0,0,1,.56,3,13.85,13.85,0,0,1-.43,3.25A13.55,13.55,0,0,1,501,55.58a7.82,7.82,0,0,1-2.94,2.67A8.76,8.76,0,0,1,494,59.17Zm-2.56-5a4.18,4.18,0,0,0,.77,2.78,2.89,2.89,0,0,0,2.33.89,3.81,3.81,0,0,0,2.95-1.5,10.88,10.88,0,0,0,2-4.21,18.16,18.16,0,0,0,.75-4.76,4.5,4.5,0,0,0-.72-2.78,2.61,2.61,0,0,0-2.22-.93,4,4,0,0,0-3.08,1.49,10.48,10.48,0,0,0-2.07,4.25A18.73,18.73,0,0,0,491.44,54.14Z"/><path d="M515.87,46.52a3.75,3.75,0,0,0-.87-2.23,2.9,2.9,0,0,0-2.13-.69,3.39,3.39,0,0,0-1.45.3A2.37,2.37,0,0,0,510,46.11a2.59,2.59,0,0,0,.26,1.15,3.91,3.91,0,0,0,.85,1.09,16,16,0,0,0,1.69,1.3,8,8,0,0,1,2.31,2.15,4.4,4.4,0,0,1,.66,2.41,4.74,4.74,0,0,1-.76,2.73A4.6,4.6,0,0,1,513,58.6a7.66,7.66,0,0,1-3,.55,17.54,17.54,0,0,1-2.79-.22,25.63,25.63,0,0,1-2.52-.57l.8-3.69h1.33a3.54,3.54,0,0,0,.89,2.35,3,3,0,0,0,2.24.78,3.43,3.43,0,0,0,2.36-.76,2.56,2.56,0,0,0,.85-2,3.27,3.27,0,0,0-.25-1.32,3.78,3.78,0,0,0-.8-1.11,12.78,12.78,0,0,0-1.54-1.21A13.54,13.54,0,0,1,508.79,50a5,5,0,0,1-1-1.43,3.9,3.9,0,0,1-.37-1.72,4.26,4.26,0,0,1,.7-2.46,4.32,4.32,0,0,1,2-1.59,7.63,7.63,0,0,1,3-.55A15.19,15.19,0,0,1,518,43l-.78,3.52Z"/></svg>