<svg id="Capa_1" data-name="Capa 1" xmlns="http://www.w3.org/2000/svg" viewBox="0 0 642.59 352.96"><path d="M486.81,27l12.92,26v2.68L485.24,82.15h17.47a8.22,8.22,0,0,0,2.48-.28,3.83,3.83,0,0,0,1.43-.86,5.64,5.64,0,0,0,1.09-1.62,15.78,15.78,0,0,0,.94-2.87,43.48,43.48,0,0,0,.85-4.8h3.11l-.77,17.2H478.18v-2L494.58,57,479.19,25.37v-2H512V39h-2.86q-.67-3.36-1.26-5.46a18.9,18.9,0,0,0-1.23-3.35,7.53,7.53,0,0,0-1.27-1.89,4.29,4.29,0,0,0-1.5-1,6.14,6.14,0,0,0-2.26-.34Z"/><path d="M38.48,56A5.71,5.71,0,0,1,40,57.68a8.92,8.92,0,0,1,.93,2.72l.44,2.26c.09.47.19.91.3,1.31A10.52,10.52,0,0,0,42,65.13a3.82,3.82,0,0,0,.48.89,3.26,3.26,0,0,0,.57.55,2.41,2.41,0,0,0,.68.34,6.31,6.31,0,0,0,1,.22l-.2,1H39.16A31.9,31.9,0,0,1,38.05,64l-.85-4.14A9.77,9.77,0,0,0,36.69,58,3.33,3.33,0,0,0,36,56.87a2.06,2.06,0,0,0-1-.53,6.5,6.5,0,0,0-1.35-.12H31.44l-1.35,6.19c-.12.51-.2.91-.25,1.21s-.08.61-.11.95a7.18,7.18,0,0,0-.05.88,1.93,1.93,0,0,0,.19,1,1.1,1.1,0,0,0,.58.5,5.32,5.32,0,0,0,1.34.23l-.21,1h-8l.21-1a2.52,2.52,0,0,0,1.11-.38,2.15,2.15,0,0,0,.62-.73A6.26,6.26,0,0,0,26,64.88c.15-.45.36-1.32.64-2.61l3.3-15a15.74,15.74,0,0,0,.43-3.08,1.65,1.65,0,0,0-.45-1.33,2.49,2.49,0,0,0-1.45-.43l.21-1h8.63a18,18,0,0,1,3.35.25,7.52,7.52,0,0,1,2.22.73,4.9,4.9,0,0,1,1.54,1.26,5.23,5.23,0,0,1,.94,1.74,6.89,6.89,0,0,1,.31,2.06,7.8,7.8,0,0,1-.58,3.08,7.63,7.63,0,0,1-1.56,2.37,9.19,9.19,0,0,1-2.3,1.71,15.32,15.32,0,0,1-2.76,1.16ZM34.1,54.54a12.39,12.39,0,0,0,3.51-.42,5.91,5.91,0,0,0,2.33-1.28,6.47,6.47,0,0,0,1.53-2.27,7.64,7.64,0,0,0,.6-3,6.22,6.22,0,0,0-.16-1.5,4.21,4.21,0,0,0-.4-1.08,2.91,2.91,0,0,0-.64-.76,3.78,3.78,0,0,0-1-.58,5.54,5.54,0,0,0-1.35-.35,16,16,0,0,0-2.08-.11c-.69,0-1.41,0-2.18.08L31.81,54.54Z"/><path d="M89.89,50.79H71V47.51h18.9Zm0,8.69H71V56.2h18.9Z"/><path d="M478.9,50.79H460V47.51h18.9Zm0,8.69H460V56.2h18.9Z"/><path d="M157.41,63V55.19h-7.79V51.91h7.79v-7.8h3.32v7.8h7.79v3.28h-7.79V63Z"/><path d="M234.21,63V55.19h-7.79V51.91h7.79v-7.8h3.32v7.8h7.8v3.28h-7.8V63Z"/><path d="M308.48,63V55.19h-7.79V51.91h7.79v-7.8h3.32v7.8h7.79v3.28H311.8V63Z"/><path d="M379.57,63V55.19h-7.79V51.91h7.79v-7.8h3.32v7.8h7.79v3.28h-7.79V63Z"/><path d="M336.6,67.67l.84-4h4l-.86,4Z"/><path d="M347.72,67.67l.84-4h4l-.86,4Z"/><path d="M358.83,67.67l.84-4h4l-.86,4Z"/><path d="M109.21,63.57c-.09.39-.17.72-.22,1s-.09.61-.13,1-.06.74-.06,1a1.93,1.93,0,0,0,.19,1,1.14,1.14,0,0,0,.58.5,5.32,5.32,0,0,0,1.34.23l-.21,1h-8l.21-1a2.65,2.65,0,0,0,1.11-.38,2.15,2.15,0,0,0,.62-.73,6.26,6.26,0,0,0,.46-1.14c.15-.45.36-1.32.64-2.61l3.3-15a15.74,15.74,0,0,0,.43-3.08,1.65,1.65,0,0,0-.45-1.33,2.49,2.49,0,0,0-1.45-.43l.21-1H125.3l-1.34,6H122.1a20.1,20.1,0,0,0-.21-2.18,4.36,4.36,0,0,0-.34-1.18,1.76,1.76,0,0,0-.46-.58,1.52,1.52,0,0,0-.63-.26,5.75,5.75,0,0,0-1.07-.08h-6l-2.3,10.62h3.62a3.67,3.67,0,0,0,1.42-.23,2.8,2.8,0,0,0,1-.85,12.7,12.7,0,0,0,1.2-2.1h1.76L118.28,60h-1.71c0-.8,0-1.44,0-1.89a2.06,2.06,0,0,0-.24-1,.93.93,0,0,0-.52-.38,4.79,4.79,0,0,0-1.23-.11h-3.8Z"/><path d="M138.66,71.3a6.32,6.32,0,0,0-.17,1.29.84.84,0,0,0,.27.68,2,2,0,0,0,1,.36,12.43,12.43,0,0,0,2.08.15L141.53,75h-9.85l.25-1.25a15.25,15.25,0,0,0,1.92-.15,3.43,3.43,0,0,0,1.07-.31,1.74,1.74,0,0,0,.63-.54,3.16,3.16,0,0,0,.4-1.09l1.92-8.77c0-.17.06-.31.08-.44a1.85,1.85,0,0,0,0-.26q0-.3-.15-.39a.78.78,0,0,0-.43-.1,3.27,3.27,0,0,0-1.14.33c-.52.23-1.23.57-2.14,1l-.62-1.37,6.87-3.14h1.1c-.27,1-.54,2.18-.81,3.41Z"/><path d="M187.89,63.57c-.09.39-.17.72-.22,1s-.09.61-.13,1a10.37,10.37,0,0,0-.06,1,1.93,1.93,0,0,0,.19,1,1.17,1.17,0,0,0,.59.5,5.13,5.13,0,0,0,1.33.23l-.21,1h-8l.21-1a2.65,2.65,0,0,0,1.11-.38,2.15,2.15,0,0,0,.62-.73,6.26,6.26,0,0,0,.46-1.14c.15-.45.36-1.32.64-2.61l3.3-15a15,15,0,0,0,.43-3.08,1.65,1.65,0,0,0-.45-1.33,2.49,2.49,0,0,0-1.45-.43l.21-1H204l-1.34,6h-1.86a20.1,20.1,0,0,0-.21-2.18,4,4,0,0,0-.34-1.18,1.76,1.76,0,0,0-.46-.58,1.52,1.52,0,0,0-.63-.26,5.75,5.75,0,0,0-1.07-.08h-6l-2.31,10.62h3.62a3.67,3.67,0,0,0,1.42-.23,2.8,2.8,0,0,0,1-.85,12.7,12.7,0,0,0,1.2-2.1h1.76L197,60h-1.7c0-.81,0-1.44,0-1.89a1.94,1.94,0,0,0-.24-1,.93.93,0,0,0-.52-.38,4.79,4.79,0,0,0-1.23-.11h-3.8Z"/><path d="M216.68,72.82a3,3,0,0,0,1-.14,1.77,1.77,0,0,0,.63-.48,4.74,4.74,0,0,0,.61-1h1.49l-1,3.87H208.6l.19-.9a24.87,24.87,0,0,1,5.41-5.78L216,66.89c.82-.71,1.44-1.28,1.86-1.72a8.35,8.35,0,0,0,.95-1.21,4,4,0,0,0,.6-2.13,1.75,1.75,0,0,0-.63-1.42,2.8,2.8,0,0,0-1.8-.52,3.27,3.27,0,0,0-2,.61,4.17,4.17,0,0,0-1.32,1.68h-2l.58-2.66a17.11,17.11,0,0,1,5.53-1.07,6.33,6.33,0,0,1,2,.28,4.29,4.29,0,0,1,1.38.74,3,3,0,0,1,.8,1,2.72,2.72,0,0,1,.25,1.13,4.58,4.58,0,0,1-.43,2.07,7.31,7.31,0,0,1-1.57,2,49.09,49.09,0,0,1-3.82,3.2A34.16,34.16,0,0,0,212,72.82Z"/><path d="M263.38,63.57c-.09.39-.17.72-.22,1s-.09.61-.13,1-.06.74-.06,1a1.93,1.93,0,0,0,.19,1,1.14,1.14,0,0,0,.58.5,5.32,5.32,0,0,0,1.34.23l-.21,1h-8l.21-1a2.65,2.65,0,0,0,1.11-.38,2.15,2.15,0,0,0,.62-.73A6.26,6.26,0,0,0,259.3,66c.15-.45.36-1.32.64-2.61l3.3-15a15.74,15.74,0,0,0,.43-3.08,1.65,1.65,0,0,0-.45-1.33,2.49,2.49,0,0,0-1.45-.43l.21-1h17.49l-1.34,6h-1.86a20.1,20.1,0,0,0-.21-2.18,4.36,4.36,0,0,0-.34-1.18,1.76,1.76,0,0,0-.46-.58,1.52,1.52,0,0,0-.63-.26,5.75,5.75,0,0,0-1.07-.08h-6l-2.3,10.62h3.62a3.67,3.67,0,0,0,1.42-.23,2.8,2.8,0,0,0,1.05-.85,12.7,12.7,0,0,0,1.2-2.1h1.76L272.45,60h-1.71c0-.8,0-1.44,0-1.89a2.06,2.06,0,0,0-.24-1,.93.93,0,0,0-.52-.38,4.79,4.79,0,0,0-1.23-.11h-3.8Z"/><path d="M287.42,62.2l.52-2.66a21,21,0,0,1,2.76-.8,13.34,13.34,0,0,1,2.69-.27,6.58,6.58,0,0,1,2.19.35,3.56,3.56,0,0,1,1.6,1.11,3,3,0,0,1,.62,1.92,3.84,3.84,0,0,1-.44,1.78,4.41,4.41,0,0,1-1.44,1.54,11.47,11.47,0,0,1-2.51,1.29v.19A4.48,4.48,0,0,1,295.7,68a3.26,3.26,0,0,1,.78,2.19,4.9,4.9,0,0,1-.44,2,4.49,4.49,0,0,1-1.32,1.67,6.06,6.06,0,0,1-2.16,1.06,10.68,10.68,0,0,1-2.89.36A16.66,16.66,0,0,1,287,75a13.84,13.84,0,0,1-2.46-.6l.62-2.87h1.75a2.48,2.48,0,0,0,.82,1.74,3.32,3.32,0,0,0,2.15.59,3.87,3.87,0,0,0,2.91-1.05,4.07,4.07,0,0,0,1-3,2,2,0,0,0-.9-1.77,4.8,4.8,0,0,0-2.69-.62h-1.57l.29-1.44a11.61,11.61,0,0,0,2.61-.39,6.57,6.57,0,0,0,1.8-.78,4,4,0,0,0,1.07-1,3.52,3.52,0,0,0,.52-1,3.87,3.87,0,0,0,.13-1.05,1.84,1.84,0,0,0-.59-1.44,2.56,2.56,0,0,0-1.72-.51,3.49,3.49,0,0,0-2.05.57,4.35,4.35,0,0,0-1.36,1.75Z"/><path d="M409.63,63.57q-.13.59-.21,1a9.49,9.49,0,0,0-.14,1c0,.4-.06.74-.06,1a1.92,1.92,0,0,0,.2,1,1.1,1.1,0,0,0,.58.5,5.23,5.23,0,0,0,1.34.23l-.22,1h-8l.22-1a2.55,2.55,0,0,0,1.1-.38,2,2,0,0,0,.62-.73,7,7,0,0,0,.47-1.14c.14-.45.35-1.32.64-2.61l3.29-15a15,15,0,0,0,.43-3.08,1.65,1.65,0,0,0-.45-1.33,2.47,2.47,0,0,0-1.45-.43l.21-1h17.49l-1.33,6h-1.87a20.1,20.1,0,0,0-.21-2.18,4,4,0,0,0-.34-1.18,1.74,1.74,0,0,0-.45-.58,1.64,1.64,0,0,0-.63-.26,6,6,0,0,0-1.08-.08h-6l-2.31,10.62h3.63a3.62,3.62,0,0,0,1.41-.23,2.66,2.66,0,0,0,1.05-.85,12.7,12.7,0,0,0,1.2-2.1h1.77L418.7,60H417c0-.8,0-1.44-.05-1.89a2.08,2.08,0,0,0-.23-1,1,1,0,0,0-.53-.38,4.68,4.68,0,0,0-1.23-.11h-3.8Z"/><path d="M434.3,61q-2.67,2.85-5.58,5.62l1.28,3a18,18,0,0,0,.81,1.78,3.57,3.57,0,0,0,.55.83,1.76,1.76,0,0,0,.49.37,2.64,2.64,0,0,0,.79.18l-.15.68h-3.43L427.15,68l-.88.8c-.36.34-.71.71-1,1.1a6.35,6.35,0,0,0-.71.94,2.37,2.37,0,0,0-.27.62,2.48,2.48,0,0,0-.06.54.76.76,0,0,0,.19.56,1.2,1.2,0,0,0,.69.29l-.16.68H421l-.26-.68c2-2.15,4-4.14,5.93-6l-1.31-3.07c-.26-.63-.48-1.1-.64-1.43a4.47,4.47,0,0,0-.48-.75,1.61,1.61,0,0,0-.52-.42,2.65,2.65,0,0,0-.85-.18l.16-.68h3.42l1.83,5.19c.45-.41.88-.84,1.28-1.28a8.93,8.93,0,0,0,.85-1,3.2,3.2,0,0,0,.35-.69,2.25,2.25,0,0,0,.09-.64c0-.5-.29-.79-.88-.86l.15-.68H434Z"/><path d="M446.92,73.49h-4.34l1.75-7c.11-.45.22-1,.33-1.49a8.12,8.12,0,0,0,.15-1.46,2.31,2.31,0,0,0-.33-1.4,1.29,1.29,0,0,0-1.06-.43,2.25,2.25,0,0,0-1.24.45,6.78,6.78,0,0,0-1.4,1.33,13.16,13.16,0,0,0-1.23,1.81,8.46,8.46,0,0,0-.78,2.22l-1.25,6h-2.38l2.09-9.4c0-.21.11-.52.19-.94a5.4,5.4,0,0,0,.11-1,1.29,1.29,0,0,0-.11-.6.72.72,0,0,0-.4-.31,3.82,3.82,0,0,0-1-.15l.17-.73,3.12-.12h.79l-.93,3.58.17.05A12.24,12.24,0,0,1,442,61a4.23,4.23,0,0,1,2.5-.92,2.66,2.66,0,0,1,2,.74,3.13,3.13,0,0,1,.68,2.18,7.14,7.14,0,0,1-.09,1.08,10.18,10.18,0,0,1-.2,1l-1.15,4.9a7.05,7.05,0,0,0-.24,1.57,1.27,1.27,0,0,0,.14.64.86.86,0,0,0,.43.36,3.44,3.44,0,0,0,.95.19Z"/><path d="M576.11,59.1q-.14.59-.21,1c0,.27-.1.61-.14,1a10.37,10.37,0,0,0-.06,1,1.92,1.92,0,0,0,.2,1,1.14,1.14,0,0,0,.58.5,5.23,5.23,0,0,0,1.34.23l-.22,1h-8l.22-1a2.55,2.55,0,0,0,1.1-.38,2.13,2.13,0,0,0,.62-.73,7.43,7.43,0,0,0,.47-1.14c.14-.45.35-1.32.64-2.61l3.29-15a15,15,0,0,0,.43-3.08,1.64,1.64,0,0,0-.45-1.33,2.47,2.47,0,0,0-1.45-.43l.21-1H592.2l-1.33,6H589a20.1,20.1,0,0,0-.21-2.18,4,4,0,0,0-.34-1.18,1.38,1.38,0,0,0-1.08-.84,5.87,5.87,0,0,0-1.08-.08h-6L578,50.46h3.63a3.81,3.81,0,0,0,1.41-.23,2.66,2.66,0,0,0,1.05-.85,12.7,12.7,0,0,0,1.2-2.1h1.77l-1.89,8.24h-1.7c0-.81,0-1.44-.05-1.89a2.08,2.08,0,0,0-.23-1,1,1,0,0,0-.53-.38,4.68,4.68,0,0,0-1.23-.11h-3.8Z"/><path d="M600.78,56.54c-1.78,1.89-3.64,3.77-5.58,5.62l1.28,3c.33.8.61,1.4.81,1.78a3.47,3.47,0,0,0,.55.82,1.81,1.81,0,0,0,.49.38,3,3,0,0,0,.79.18L599,69h-3.43l-1.91-5.54-.88.81c-.36.34-.71.71-1,1.1a5.86,5.86,0,0,0-.71.94,2.37,2.37,0,0,0-.27.62,2.42,2.42,0,0,0-.06.54.76.76,0,0,0,.19.56,1.23,1.23,0,0,0,.69.29l-.15.68h-3.93l-.26-.68q3-3.23,5.93-6l-1.31-3.06c-.26-.63-.48-1.1-.64-1.43a4.61,4.61,0,0,0-.48-.76,1.72,1.72,0,0,0-.52-.41,2.4,2.4,0,0,0-.85-.18l.16-.68h3.42l1.83,5.19c.45-.41.88-.84,1.28-1.28a7.32,7.32,0,0,0,.85-1.05,2.94,2.94,0,0,0,.35-.68,2.3,2.3,0,0,0,.09-.64c0-.5-.29-.79-.88-.86l.16-.68h3.92Z"/><path d="M604.73,65.58c-.1.46-.16.81-.19,1a4,4,0,0,0,0,.54,1.31,1.31,0,0,0,.13.65.9.9,0,0,0,.43.36,3.44,3.44,0,0,0,1,.19l-.12.68h-4.27l2.08-9.28c.12-.53.2-1,.25-1.27a6.56,6.56,0,0,0,.06-.79,1.32,1.32,0,0,0-.11-.62.72.72,0,0,0-.39-.33,3.4,3.4,0,0,0-1-.14l.15-.73,3.36-.12h.81Zm3.4-15.11-.63,2.67h-2.44l.63-2.67Z"/><path d="M525.86,84.46c-.1.47-.17.81-.19,1a4,4,0,0,0,0,.55,1.27,1.27,0,0,0,.13.64.86.86,0,0,0,.43.36,3.44,3.44,0,0,0,.95.19l-.12.68h-4.27l2.08-9.27c.12-.54.2-1,.25-1.28a6.42,6.42,0,0,0,.06-.79,1.46,1.46,0,0,0-.11-.62.72.72,0,0,0-.39-.33,3.4,3.4,0,0,0-.95-.14l.15-.73,3.35-.12H528Zm3.4-15.11L528.63,72h-2.44l.63-2.67Z"/><path d="M530.41,83.63l.42-1.85h11.42l-.42,1.85Zm1.26-5.71.41-1.85H543.5l-.41,1.85Z"/><path d="M552.46,83.92a8.32,8.32,0,0,0-.25,1.61,1.08,1.08,0,0,0,.29.82,1.87,1.87,0,0,0,1,.39,16.53,16.53,0,0,0,2.08.15l-.21,1H545.6l.21-1a15.05,15.05,0,0,0,1.78-.15,3.9,3.9,0,0,0,1-.26,1.9,1.9,0,0,0,.62-.4,2.15,2.15,0,0,0,.41-.62,5.63,5.63,0,0,0,.34-1.15l2.2-10c.09-.38.15-.69.19-.92a3.45,3.45,0,0,0,.06-.56.76.76,0,0,0-.2-.59.8.8,0,0,0-.5-.17,3,3,0,0,0-1.09.35c-.48.23-1.21.64-2.17,1.2l-.54-1.1,7-3.64h1l-.4,1.61c-.15.58-.3,1.27-.47,2Z"/><path d="M533.63,38.5H529.3l1.74-7c.11-.45.22-.94.33-1.49a8.11,8.11,0,0,0,.16-1.45,2.33,2.33,0,0,0-.34-1.41,1.28,1.28,0,0,0-1.05-.42,2.26,2.26,0,0,0-1.25.44,7.13,7.13,0,0,0-1.4,1.34,12.51,12.51,0,0,0-1.23,1.8,8.46,8.46,0,0,0-.78,2.22l-1.25,6h-2.38l2.09-9.4c0-.21.11-.52.19-.93a5.71,5.71,0,0,0,.12-1,1.21,1.21,0,0,0-.12-.59.69.69,0,0,0-.4-.32,3.49,3.49,0,0,0-1-.14l.17-.73,3.12-.13h.79l-.92,3.58.16.05a12.47,12.47,0,0,1,2.6-2.81,4.24,4.24,0,0,1,2.51-.91,2.63,2.63,0,0,1,2,.73,3.08,3.08,0,0,1,.69,2.18,7.14,7.14,0,0,1-.09,1.08c-.06.39-.13.74-.2,1l-1.16,4.9a6.93,6.93,0,0,0-.23,1.57,1.34,1.34,0,0,0,.13.65.94.94,0,0,0,.43.35,3.37,3.37,0,0,0,1,.2Z"/><path d="M58.06,60.71c-1.69,1.82-3.46,3.61-5.32,5.39L54,69c.32.77.58,1.34.77,1.7a3.53,3.53,0,0,0,.53.79,1.48,1.48,0,0,0,.47.36,2.73,2.73,0,0,0,.75.18l-.15.64H53.07l-1.82-5.3-.83.78a14.32,14.32,0,0,0-1,1,6.78,6.78,0,0,0-.68.9,2.41,2.41,0,0,0-.26.6,2.15,2.15,0,0,0,0,.51.77.77,0,0,0,.18.54,1.27,1.27,0,0,0,.65.28l-.14.64H45.39L45.14,72q2.86-3.1,5.64-5.71l-1.24-2.94c-.26-.6-.46-1-.62-1.37a4.15,4.15,0,0,0-.45-.72,1.61,1.61,0,0,0-.5-.4,2.13,2.13,0,0,0-.8-.17l.14-.65h3.26l1.74,5c.43-.4.84-.8,1.22-1.23a8.43,8.43,0,0,0,.81-1,2.53,2.53,0,0,0,.33-.66,2,2,0,0,0,.09-.6c0-.49-.28-.76-.84-.83l.15-.65H57.8Z"/><path d="M129.9,62.5c-1.69,1.82-3.46,3.61-5.31,5.39l1.22,2.89c.32.77.58,1.34.77,1.7a4,4,0,0,0,.52.8,1.73,1.73,0,0,0,.47.35,2.4,2.4,0,0,0,.75.18l-.14.65h-3.26l-1.82-5.3c-.21.18-.49.44-.83.77a14.22,14.22,0,0,0-1,1,6,6,0,0,0-.68.9,2.09,2.09,0,0,0-.26.6,2.16,2.16,0,0,0-.06.51.73.73,0,0,0,.19.54,1.16,1.16,0,0,0,.65.28l-.15.65h-3.73l-.25-.65q2.88-3.11,5.65-5.71l-1.25-2.94c-.25-.6-.45-1-.61-1.36a3.93,3.93,0,0,0-.45-.73,1.54,1.54,0,0,0-.5-.39,2,2,0,0,0-.81-.18l.15-.65h3.26l1.74,5c.43-.39.83-.8,1.22-1.22a9.23,9.23,0,0,0,.81-1,2.82,2.82,0,0,0,.32-.66,1.72,1.72,0,0,0,.1-.6c0-.49-.28-.76-.84-.83l.14-.65h3.73Z"/><path d="M208.89,63q-2.55,2.72-5.32,5.39l1.22,2.88c.32.78.58,1.35.77,1.71a3.22,3.22,0,0,0,.53.79,1.52,1.52,0,0,0,.47.36,2.92,2.92,0,0,0,.74.18l-.14.64H203.9l-1.82-5.3c-.21.19-.49.44-.83.77a14.38,14.38,0,0,0-1,1.06,5.52,5.52,0,0,0-.68.9,2.41,2.41,0,0,0-.26.6,2.1,2.1,0,0,0-.06.51.77.77,0,0,0,.19.54,1.23,1.23,0,0,0,.65.28l-.14.64h-3.73l-.25-.64q2.86-3.11,5.64-5.71l-1.25-2.94c-.25-.6-.45-1-.61-1.37a4.15,4.15,0,0,0-.45-.72,1.73,1.73,0,0,0-.5-.4A2.22,2.22,0,0,0,198,63l.14-.65h3.26l1.74,5c.43-.4.83-.8,1.22-1.23a8.43,8.43,0,0,0,.81-1,2.89,2.89,0,0,0,.33-.66,2,2,0,0,0,.09-.6c0-.49-.28-.76-.84-.83l.14-.65h3.73Z"/><path d="M284.27,62.71c-1.69,1.82-3.46,3.61-5.31,5.39L280.18,71c.32.77.58,1.34.77,1.7a4,4,0,0,0,.52.8,1.73,1.73,0,0,0,.47.35,2.4,2.4,0,0,0,.75.18l-.14.65h-3.26l-1.82-5.3c-.21.18-.49.44-.83.77a14.22,14.22,0,0,0-1,1,7,7,0,0,0-.69.9,2.33,2.33,0,0,0-.25.6,2.16,2.16,0,0,0-.06.51.73.73,0,0,0,.19.54,1.16,1.16,0,0,0,.65.28l-.15.65H271.6l-.25-.65c1.91-2.07,3.8-4,5.65-5.71l-1.25-2.94c-.25-.6-.46-1.05-.61-1.36a3.93,3.93,0,0,0-.45-.73,1.54,1.54,0,0,0-.5-.39,2,2,0,0,0-.81-.18l.15-.65h3.26l1.74,5c.43-.39.83-.8,1.22-1.22a9.23,9.23,0,0,0,.81-1,2.82,2.82,0,0,0,.32-.66,2,2,0,0,0,.1-.6c0-.49-.28-.76-.84-.83l.14-.65H284Z"/><path d="M486.81,123.12l12.92,26v2.68l-14.49,26.42h17.47a8.56,8.56,0,0,0,2.48-.28,3.72,3.72,0,0,0,1.43-.87,5.5,5.5,0,0,0,1.09-1.62,15.51,15.51,0,0,0,.94-2.87,43.24,43.24,0,0,0,.85-4.79h3.11L511.84,185H478.18v-2l16.4-29.91-15.39-31.67v-2H512v15.67h-2.86q-.67-3.34-1.26-5.46a18.76,18.76,0,0,0-1.23-3.34,7.35,7.35,0,0,0-1.27-1.89,4.46,4.46,0,0,0-1.5-1,6.39,6.39,0,0,0-2.26-.33Z"/><path d="M38.48,152.1a5.71,5.71,0,0,1,1.5,1.68,8.85,8.85,0,0,1,.93,2.71l.44,2.27c.09.47.19.9.3,1.31a10.52,10.52,0,0,0,.39,1.16,3.82,3.82,0,0,0,.48.89,2.87,2.87,0,0,0,.57.54,2.43,2.43,0,0,0,.68.35,6.31,6.31,0,0,0,1,.22l-.2,1H39.16a31.9,31.9,0,0,1-1.11-4.14l-.85-4.14a9.77,9.77,0,0,0-.51-1.81A3.15,3.15,0,0,0,36,153a2.06,2.06,0,0,0-1-.53,6.43,6.43,0,0,0-1.35-.13H31.44l-1.35,6.19c-.12.51-.2.92-.25,1.21s-.08.62-.11.95a7.33,7.33,0,0,0-.05.89,1.93,1.93,0,0,0,.19.95,1.14,1.14,0,0,0,.58.5,5.32,5.32,0,0,0,1.34.23l-.21,1h-8l.21-1a2.65,2.65,0,0,0,1.11-.38,2.25,2.25,0,0,0,.62-.73A6.7,6.7,0,0,0,26,161c.15-.44.36-1.31.64-2.6l3.3-15a15.73,15.73,0,0,0,.43-3.09,1.63,1.63,0,0,0-.45-1.32,2.49,2.49,0,0,0-1.45-.43l.21-1h8.63a19,19,0,0,1,3.35.24,7.81,7.81,0,0,1,2.22.74,4.64,4.64,0,0,1,1.54,1.26,5.29,5.29,0,0,1,.94,1.73,7,7,0,0,1,.31,2.06,7.88,7.88,0,0,1-.58,3.09A7.47,7.47,0,0,1,43.54,149a9.22,9.22,0,0,1-2.3,1.72,14.6,14.6,0,0,1-2.76,1.15Zm-4.38-1.47a12.39,12.39,0,0,0,3.51-.42,5.79,5.79,0,0,0,2.33-1.28,6.43,6.43,0,0,0,1.53-2.26,7.68,7.68,0,0,0,.6-3,6.13,6.13,0,0,0-.16-1.49,4.16,4.16,0,0,0-.4-1.09,3.08,3.08,0,0,0-.64-.76,3.76,3.76,0,0,0-1-.57,5.12,5.12,0,0,0-1.35-.35,14.4,14.4,0,0,0-2.08-.11c-.69,0-1.41,0-2.18.08l-2.48,11.3Z"/><path d="M89.89,146.89H71v-3.28h18.9Zm0,8.69H71V152.3h18.9Z"/><path d="M478.9,146.89H460v-3.28h18.9Zm0,8.69H460V152.3h18.9Z"/><path d="M157.41,159.13v-7.85h-7.79V148h7.79v-7.79h3.32V148h7.79v3.28h-7.79v7.85Z"/><path d="M234.21,159.13v-7.85h-7.79V148h7.79v-7.79h3.32V148h7.8v3.28h-7.8v7.85Z"/><path d="M308.48,159.13v-7.85h-7.79V148h7.79v-7.79h3.32V148h7.79v3.28H311.8v7.85Z"/><path d="M379.57,159.13v-7.85h-7.79V148h7.79v-7.79h3.32V148h7.79v3.28h-7.79v7.85Z"/><path d="M336.6,163.76l.84-4h4l-.86,4Z"/><path d="M347.72,163.76l.84-4h4l-.86,4Z"/><path d="M358.83,163.76l.84-4h4l-.86,4Z"/><path d="M109.21,159.66c-.09.39-.17.73-.22,1s-.09.61-.13,1a10.37,10.37,0,0,0-.06,1,2,2,0,0,0,.19.95,1.19,1.19,0,0,0,.58.5,5.32,5.32,0,0,0,1.34.23l-.21,1h-8l.21-1a2.8,2.8,0,0,0,1.11-.38,2.25,2.25,0,0,0,.62-.73,6.7,6.7,0,0,0,.46-1.15c.15-.45.36-1.31.64-2.6l3.3-15a15.73,15.73,0,0,0,.43-3.09,1.63,1.63,0,0,0-.45-1.32,2.42,2.42,0,0,0-1.45-.43l.21-1H125.3l-1.34,6H122.1a19.87,19.87,0,0,0-.21-2.17,4.36,4.36,0,0,0-.34-1.18,1.66,1.66,0,0,0-.46-.58,1.52,1.52,0,0,0-.63-.26,5,5,0,0,0-1.07-.08h-6L111.11,151h3.62a3.87,3.87,0,0,0,1.42-.23,2.8,2.8,0,0,0,1-.85,12.7,12.7,0,0,0,1.2-2.1h1.76l-1.88,8.24h-1.71c0-.81,0-1.44,0-1.89a2.06,2.06,0,0,0-.24-1,.93.93,0,0,0-.52-.38,4.79,4.79,0,0,0-1.23-.11h-3.8Z"/><path d="M138.66,167.4a6.16,6.16,0,0,0-.17,1.29.85.85,0,0,0,.27.68,2,2,0,0,0,1,.36,13.62,13.62,0,0,0,2.08.15l-.27,1.25h-9.85l.25-1.25a17.43,17.43,0,0,0,1.92-.15,3.43,3.43,0,0,0,1.07-.31,1.77,1.77,0,0,0,.63-.55,3.18,3.18,0,0,0,.4-1.08l1.92-8.77c0-.17.06-.32.08-.44a1.85,1.85,0,0,0,0-.26q0-.3-.15-.39a.78.78,0,0,0-.43-.1,3.27,3.27,0,0,0-1.14.33c-.52.22-1.23.57-2.14,1l-.62-1.37,6.87-3.15h1.1c-.27,1-.54,2.18-.81,3.42Z"/><path d="M187.89,159.66c-.09.39-.17.72-.22,1s-.09.61-.13,1-.06.75-.06,1.05a2,2,0,0,0,.19.95,1.15,1.15,0,0,0,.59.49,4.64,4.64,0,0,0,1.33.24l-.21,1h-8l.21-1a2.8,2.8,0,0,0,1.11-.38,2.25,2.25,0,0,0,.62-.73,6.7,6.7,0,0,0,.46-1.15c.15-.45.36-1.32.64-2.6l3.3-15a15,15,0,0,0,.43-3.09,1.65,1.65,0,0,0-.45-1.33,2.57,2.57,0,0,0-1.45-.43l.21-.95H204l-1.34,6h-1.86a19.87,19.87,0,0,0-.21-2.17,4.21,4.21,0,0,0-.34-1.19,1.61,1.61,0,0,0-.46-.57,1.67,1.67,0,0,0-.63-.27,5.91,5.91,0,0,0-1.07-.07h-6L189.79,151h3.62a3.87,3.87,0,0,0,1.42-.23,2.8,2.8,0,0,0,1-.85,12.7,12.7,0,0,0,1.2-2.1h1.76L197,156.09h-1.7c0-.81,0-1.44,0-1.9a1.93,1.93,0,0,0-.24-.95.93.93,0,0,0-.52-.38,4.79,4.79,0,0,0-1.23-.11h-3.8Z"/><path d="M216.68,168.92a2.78,2.78,0,0,0,1-.15,1.56,1.56,0,0,0,.63-.48,4.62,4.62,0,0,0,.61-1h1.49l-1,3.87H208.6l.19-.9a24.68,24.68,0,0,1,5.41-5.78L216,163a23.86,23.86,0,0,0,1.86-1.72,7.39,7.39,0,0,0,.95-1.21,4,4,0,0,0,.46-1.05,4.2,4.2,0,0,0,.14-1.08,1.73,1.73,0,0,0-.63-1.41,2.74,2.74,0,0,0-1.8-.52,3.21,3.21,0,0,0-2,.61,4.17,4.17,0,0,0-1.32,1.68h-2l.58-2.66a16.85,16.85,0,0,1,5.53-1.07,6.33,6.33,0,0,1,2,.28,4.29,4.29,0,0,1,1.38.74,3,3,0,0,1,.8,1,2.69,2.69,0,0,1,.25,1.13,4.64,4.64,0,0,1-.43,2.07,7.46,7.46,0,0,1-1.57,2,49.53,49.53,0,0,1-3.82,3.19,34.88,34.88,0,0,0-4.32,3.95Z"/><path d="M263.38,159.66c-.09.39-.17.73-.22,1s-.09.61-.13,1a10.37,10.37,0,0,0-.06,1,2,2,0,0,0,.19.95,1.19,1.19,0,0,0,.58.5,5.32,5.32,0,0,0,1.34.23l-.21,1h-8l.21-1a2.8,2.8,0,0,0,1.11-.38,2.25,2.25,0,0,0,.62-.73,6.7,6.7,0,0,0,.46-1.15c.15-.45.36-1.31.64-2.6l3.3-15a15.73,15.73,0,0,0,.43-3.09,1.63,1.63,0,0,0-.45-1.32,2.42,2.42,0,0,0-1.45-.43l.21-1h17.49l-1.34,6h-1.86a19.87,19.87,0,0,0-.21-2.17,4.36,4.36,0,0,0-.34-1.18,1.66,1.66,0,0,0-.46-.58,1.52,1.52,0,0,0-.63-.26,5,5,0,0,0-1.07-.08h-6L265.28,151h3.62a3.87,3.87,0,0,0,1.42-.23,2.8,2.8,0,0,0,1.05-.85,12.7,12.7,0,0,0,1.2-2.1h1.76l-1.88,8.24h-1.71c0-.81,0-1.44,0-1.89a2.06,2.06,0,0,0-.24-1,.93.93,0,0,0-.52-.38,4.79,4.79,0,0,0-1.23-.11h-3.8Z"/><path d="M287.42,158.3l.52-2.66a19.53,19.53,0,0,1,2.76-.8,13.34,13.34,0,0,1,2.69-.27,6.33,6.33,0,0,1,2.19.35,3.41,3.41,0,0,1,1.6,1.11,3,3,0,0,1,.62,1.92,3.8,3.8,0,0,1-.44,1.77,4.33,4.33,0,0,1-1.44,1.54,11.47,11.47,0,0,1-2.51,1.29v.2a4.41,4.41,0,0,1,2.29,1.33,3.26,3.26,0,0,1,.78,2.18,4.91,4.91,0,0,1-.44,2,4.49,4.49,0,0,1-1.32,1.67,6.23,6.23,0,0,1-2.16,1.06,10.68,10.68,0,0,1-2.89.36,16.66,16.66,0,0,1-2.7-.24,14.77,14.77,0,0,1-2.46-.6l.62-2.87h1.75a2.48,2.48,0,0,0,.82,1.74,3.32,3.32,0,0,0,2.15.59,3.87,3.87,0,0,0,2.91-1.05,4.1,4.1,0,0,0,1-3,2,2,0,0,0-.9-1.77,4.8,4.8,0,0,0-2.69-.61h-1.57l.29-1.45a11.61,11.61,0,0,0,2.61-.39,6.58,6.58,0,0,0,1.8-.77,4,4,0,0,0,1.07-1,3.65,3.65,0,0,0,.52-1,3.92,3.92,0,0,0,.13-1,1.83,1.83,0,0,0-.59-1.44,2.56,2.56,0,0,0-1.72-.52,3.5,3.5,0,0,0-2.05.58,4.28,4.28,0,0,0-1.36,1.75Z"/><path d="M409.63,159.66c-.09.39-.16.73-.21,1a9.13,9.13,0,0,0-.14,1,10.37,10.37,0,0,0-.06,1,2,2,0,0,0,.2.95,1.14,1.14,0,0,0,.58.5,5.23,5.23,0,0,0,1.34.23l-.22,1h-8l.22-1a2.69,2.69,0,0,0,1.1-.38,2.13,2.13,0,0,0,.62-.73,7.58,7.58,0,0,0,.47-1.15c.14-.45.35-1.31.64-2.6l3.29-15a15,15,0,0,0,.43-3.09,1.63,1.63,0,0,0-.45-1.32,2.4,2.4,0,0,0-1.45-.43l.21-1h17.49l-1.33,6h-1.87a19.87,19.87,0,0,0-.21-2.17,4,4,0,0,0-.34-1.18,1.38,1.38,0,0,0-1.08-.84,5.16,5.16,0,0,0-1.08-.08h-6L411.53,151h3.63a3.81,3.81,0,0,0,1.41-.23,2.66,2.66,0,0,0,1.05-.85,12.7,12.7,0,0,0,1.2-2.1h1.77l-1.89,8.24H417c0-.81,0-1.44-.05-1.89a2.08,2.08,0,0,0-.23-1,1,1,0,0,0-.53-.38,4.68,4.68,0,0,0-1.23-.11h-3.8Z"/><path d="M423.83,159.43a10.45,10.45,0,0,0-.26-1.45,1.2,1.2,0,0,0-.4-.62,1.68,1.68,0,0,0-.89-.26l.15-.67H426L427,167.37q4.65-6.36,4.65-9.11a1.14,1.14,0,0,0-.27-.88,1.64,1.64,0,0,0-.94-.28l.14-.67h3.55l.37.69a31.73,31.73,0,0,1-1.87,4c-.75,1.37-1.68,2.86-2.78,4.49s-2.31,3.31-3.65,5.06a28.8,28.8,0,0,1-2.59,3.05,7.88,7.88,0,0,1-1.49,1.19,4.87,4.87,0,0,1-2.67.75,5.27,5.27,0,0,1-.84-.07,4.23,4.23,0,0,1-.8-.2l.59-2.57h1.07a1.33,1.33,0,0,0,.22.74.72.72,0,0,0,.61.27,3.41,3.41,0,0,0,.76-.08,2.72,2.72,0,0,0,.66-.3,5.86,5.86,0,0,0,.86-.66,12.82,12.82,0,0,0,1.13-1.21c.42-.5.9-1.1,1.42-1.8Z"/><path d="M447.22,169.58h-4.33l1.75-7c.1-.45.21-.94.32-1.48a8.21,8.21,0,0,0,.16-1.46,2.3,2.3,0,0,0-.34-1.4,1.26,1.26,0,0,0-1-.43,2.28,2.28,0,0,0-1.25.45,6.76,6.76,0,0,0-1.39,1.33,11.83,11.83,0,0,0-1.24,1.8,8.08,8.08,0,0,0-.77,2.23l-1.26,6h-2.38l2.09-9.39c.05-.21.11-.53.19-.94a5.61,5.61,0,0,0,.12-1,1.22,1.22,0,0,0-.12-.6.73.73,0,0,0-.4-.32,4.49,4.49,0,0,0-.95-.14l.16-.73,3.12-.12h.79l-.92,3.57.16.06a12.25,12.25,0,0,1,2.6-2.81,4.19,4.19,0,0,1,2.51-.92,2.64,2.64,0,0,1,2,.74,3.07,3.07,0,0,1,.69,2.18,7.14,7.14,0,0,1-.09,1.08c-.06.39-.13.73-.2,1l-1.16,4.89a7.65,7.65,0,0,0-.23,1.57,1.21,1.21,0,0,0,.14.65.88.88,0,0,0,.42.36,3.87,3.87,0,0,0,.95.19Z"/><path d="M576.11,155.19c-.09.39-.16.72-.21,1s-.1.61-.14,1-.06.75-.06,1.05a2,2,0,0,0,.2.95,1.13,1.13,0,0,0,.58.49,4.73,4.73,0,0,0,1.34.24l-.22,1h-8l.22-1a2.69,2.69,0,0,0,1.1-.38,2.08,2.08,0,0,0,.62-.74,7,7,0,0,0,.47-1.14c.14-.45.35-1.32.64-2.6L576,140a15,15,0,0,0,.43-3.09,1.69,1.69,0,0,0-.44-1.33,2.61,2.61,0,0,0-1.46-.43l.21-.95h17.5l-1.34,6H589a19.87,19.87,0,0,0-.21-2.17,4.11,4.11,0,0,0-.34-1.19,1.6,1.6,0,0,0-.45-.57,1.65,1.65,0,0,0-.63-.27,6,6,0,0,0-1.08-.07h-6L578,146.56h3.63a3.78,3.78,0,0,0,1.41-.23,2.66,2.66,0,0,0,1.05-.85,12.7,12.7,0,0,0,1.2-2.1h1.77l-1.88,8.24h-1.71c0-.81,0-1.44-.05-1.9a2.07,2.07,0,0,0-.23-.95,1,1,0,0,0-.53-.38,4.27,4.27,0,0,0-1.23-.11h-3.8Z"/><path d="M590.31,155a10.45,10.45,0,0,0-.26-1.45,1.2,1.2,0,0,0-.4-.62,1.68,1.68,0,0,0-.89-.26l.15-.67h3.53l1,10.94q4.65-6.36,4.65-9.11a1.13,1.13,0,0,0-.27-.88,1.64,1.64,0,0,0-.94-.28l.14-.67h3.55l.37.69a33.09,33.09,0,0,1-1.86,4q-1.14,2.05-2.78,4.48t-3.66,5.07a31.36,31.36,0,0,1-2.58,3.05,8.23,8.23,0,0,1-1.5,1.19,5,5,0,0,1-1.32.58,5,5,0,0,1-1.35.17,5.27,5.27,0,0,1-.84-.07,4.44,4.44,0,0,1-.8-.2l.59-2.58H586a1.36,1.36,0,0,0,.22.75.72.72,0,0,0,.61.27,2.83,2.83,0,0,0,.76-.09,2.66,2.66,0,0,0,.66-.29,5.86,5.86,0,0,0,.86-.66,14.19,14.19,0,0,0,1.13-1.21c.42-.5.9-1.1,1.42-1.81Z"/><path d="M605,161.67c-.1.47-.16.81-.19,1a3.81,3.81,0,0,0,0,.54,1.31,1.31,0,0,0,.14.65.94.94,0,0,0,.42.36,4,4,0,0,0,.95.19l-.12.67h-4.27l2.08-9.27c.12-.53.2-1,.25-1.27a5.19,5.19,0,0,0,.07-.8,1.27,1.27,0,0,0-.12-.61.72.72,0,0,0-.39-.33,3,3,0,0,0-.95-.14L603,152l3.36-.12h.81Zm3.4-15.11-.63,2.67h-2.44l.64-2.67Z"/><path d="M525.86,180.56c-.1.46-.17.81-.19,1a4,4,0,0,0,0,.54,1.31,1.31,0,0,0,.13.65.86.86,0,0,0,.43.36,3.44,3.44,0,0,0,.95.19L527,184h-4.27l2.08-9.28c.12-.53.2-1,.25-1.27a6.56,6.56,0,0,0,.06-.79A1.46,1.46,0,0,0,525,172a.72.72,0,0,0-.39-.33,3.06,3.06,0,0,0-.95-.14l.15-.73,3.35-.12H528Zm3.4-15.11-.63,2.67h-2.44l.63-2.67Z"/><path d="M530.41,179.73l.42-1.86h11.42l-.42,1.86Zm1.26-5.71.41-1.86H543.5l-.41,1.86Z"/><path d="M552.46,180a8.32,8.32,0,0,0-.25,1.61,1.08,1.08,0,0,0,.29.82,1.88,1.88,0,0,0,1,.38,16.11,16.11,0,0,0,2.08.16l-.21,1H545.6l.21-1c.77,0,1.36-.09,1.78-.15a3.9,3.9,0,0,0,1-.26,1.9,1.9,0,0,0,.62-.4,2.3,2.3,0,0,0,.41-.62,5.77,5.77,0,0,0,.34-1.16l2.2-10c.09-.39.15-.69.19-.92a3.45,3.45,0,0,0,.06-.57.65.65,0,0,0-.7-.75,2.78,2.78,0,0,0-1.09.35c-.48.23-1.21.63-2.17,1.2l-.54-1.1,7-3.65h1l-.4,1.61c-.15.59-.3,1.27-.47,2.05Z"/><path d="M533.63,134.6H529.3l1.74-7c.11-.45.22-1,.33-1.49a8.21,8.21,0,0,0,.16-1.46,2.3,2.3,0,0,0-.34-1.4,1.26,1.26,0,0,0-1.05-.43,2.28,2.28,0,0,0-1.25.45,7,7,0,0,0-1.4,1.33,13.16,13.16,0,0,0-1.23,1.81,8.46,8.46,0,0,0-.78,2.22l-1.25,6h-2.38l2.09-9.4c0-.21.11-.52.19-.94a5.52,5.52,0,0,0,.12-1,1.25,1.25,0,0,0-.12-.6.68.68,0,0,0-.4-.31,3.82,3.82,0,0,0-1-.15l.17-.73,3.12-.12h.79l-.92,3.58.16,0a12.47,12.47,0,0,1,2.6-2.81,4.25,4.25,0,0,1,2.51-.92,2.64,2.64,0,0,1,2,.74,3.08,3.08,0,0,1,.69,2.18,7.14,7.14,0,0,1-.09,1.08c-.06.39-.13.74-.2,1l-1.16,4.9a6.93,6.93,0,0,0-.23,1.57,1.27,1.27,0,0,0,.13.64.9.9,0,0,0,.43.36,3.44,3.44,0,0,0,1,.19Z"/><path d="M48.1,159a10.12,10.12,0,0,0-.25-1.39,1.15,1.15,0,0,0-.38-.59,1.56,1.56,0,0,0-.85-.25l.14-.64h3.37l1,10.48q4.43-6.09,4.43-8.73a1.06,1.06,0,0,0-.27-.84,1.53,1.53,0,0,0-.89-.27l.13-.64H57.9l.36.66a31.08,31.08,0,0,1-1.78,3.79c-.72,1.31-1.6,2.75-2.64,4.3s-2.2,3.17-3.48,4.85a28.61,28.61,0,0,1-2.46,2.93,8,8,0,0,1-1.42,1.14,4.78,4.78,0,0,1-2.55.72,6.05,6.05,0,0,1-.79-.07,4,4,0,0,1-.76-.2l.56-2.46h1a1.22,1.22,0,0,0,.21.71.66.66,0,0,0,.58.26,2.55,2.55,0,0,0,.72-.08,2.84,2.84,0,0,0,.63-.28,6.29,6.29,0,0,0,.81-.64A11.48,11.48,0,0,0,48,170.64c.4-.48.85-1.06,1.35-1.73Z"/><path d="M119.94,160.82a8.76,8.76,0,0,0-.25-1.39,1,1,0,0,0-.38-.59,1.53,1.53,0,0,0-.85-.25l.15-.64H122l1,10.48q4.43-6.09,4.42-8.73a1.09,1.09,0,0,0-.26-.84,1.53,1.53,0,0,0-.89-.27l.13-.64h3.38l.35.66a29.53,29.53,0,0,1-1.77,3.79c-.72,1.31-1.6,2.75-2.65,4.3s-2.2,3.18-3.47,4.85a28.8,28.8,0,0,1-2.46,2.93,8.41,8.41,0,0,1-1.42,1.14,5,5,0,0,1-1.26.55,5,5,0,0,1-1.29.17,4.9,4.9,0,0,1-.8-.07,4.21,4.21,0,0,1-.76-.19l.57-2.47h1a1.22,1.22,0,0,0,.21.71.66.66,0,0,0,.57.27,2.53,2.53,0,0,0,.72-.09,3.12,3.12,0,0,0,.64-.28,5.51,5.51,0,0,0,.81-.64,11.48,11.48,0,0,0,1.08-1.15c.4-.48.85-1.06,1.35-1.73Z"/><path d="M198.93,161.3a10.12,10.12,0,0,0-.25-1.39,1.15,1.15,0,0,0-.38-.59,1.59,1.59,0,0,0-.85-.25l.14-.64H201l1,10.48q4.43-6.09,4.42-8.73a1.06,1.06,0,0,0-.26-.84,1.53,1.53,0,0,0-.89-.27l.13-.64h3.38l.35.66a29.53,29.53,0,0,1-1.77,3.79q-1.08,2-2.64,4.3c-1,1.56-2.21,3.17-3.48,4.85a30,30,0,0,1-2.46,2.93,8.41,8.41,0,0,1-1.42,1.14,4.78,4.78,0,0,1-2.55.72,4.8,4.8,0,0,1-.79-.08,3.37,3.37,0,0,1-.76-.19l.56-2.46h1a1.25,1.25,0,0,0,.21.71.65.65,0,0,0,.57.26,2.67,2.67,0,0,0,.73-.08,2.5,2.5,0,0,0,.63-.29,5.33,5.33,0,0,0,.81-.63,11.48,11.48,0,0,0,1.08-1.15q.6-.72,1.35-1.74Z"/><path d="M274.31,161a10.12,10.12,0,0,0-.25-1.39,1,1,0,0,0-.38-.59,1.53,1.53,0,0,0-.85-.25l.15-.64h3.36l1,10.48q4.43-6.09,4.42-8.73a1.09,1.09,0,0,0-.26-.84,1.56,1.56,0,0,0-.89-.27l.13-.64h3.38l.35.66a29.53,29.53,0,0,1-1.77,3.79c-.72,1.31-1.6,2.75-2.65,4.3s-2.2,3.18-3.47,4.85a28.8,28.8,0,0,1-2.46,2.93,8.41,8.41,0,0,1-1.42,1.14,5,5,0,0,1-1.26.55,5,5,0,0,1-1.29.17,4.81,4.81,0,0,1-.8-.07,4,4,0,0,1-.76-.19l.57-2.47h1a1.09,1.09,0,0,0,.21.71.66.66,0,0,0,.57.27,2.53,2.53,0,0,0,.72-.09,3.12,3.12,0,0,0,.64-.28,6.29,6.29,0,0,0,.81-.64,11.48,11.48,0,0,0,1.08-1.15c.4-.48.85-1.06,1.35-1.73Z"/><path d="M486.81,243.4l12.92,26v2.68l-14.49,26.42h17.47a8.22,8.22,0,0,0,2.48-.28,3.83,3.83,0,0,0,1.43-.86,5.57,5.57,0,0,0,1.09-1.63,15.26,15.26,0,0,0,.94-2.87,42.81,42.81,0,0,0,.85-4.79h3.11l-.77,17.19H478.18v-2l16.4-29.91-15.39-31.66v-2H512v15.67h-2.86q-.67-3.34-1.26-5.46a18.76,18.76,0,0,0-1.23-3.34,7.53,7.53,0,0,0-1.27-1.89,4.29,4.29,0,0,0-1.5-1,6.14,6.14,0,0,0-2.26-.34Z"/><path d="M38.48,272.38a5.71,5.71,0,0,1,1.5,1.68,8.92,8.92,0,0,1,.93,2.72l.44,2.26c.09.47.19.91.3,1.31a10.52,10.52,0,0,0,.39,1.16,3.82,3.82,0,0,0,.48.89,3.26,3.26,0,0,0,.57.55,2.7,2.7,0,0,0,.68.34,6.31,6.31,0,0,0,1,.22l-.2,1H39.16a31.9,31.9,0,0,1-1.11-4.14l-.85-4.14a9.77,9.77,0,0,0-.51-1.81,3.24,3.24,0,0,0-.72-1.13,2.06,2.06,0,0,0-1-.53,6.5,6.5,0,0,0-1.35-.12H31.44l-1.35,6.19c-.12.5-.2.91-.25,1.21s-.08.61-.11.94a7.44,7.44,0,0,0-.05.89,1.93,1.93,0,0,0,.19.95,1.14,1.14,0,0,0,.58.5,5.32,5.32,0,0,0,1.34.23l-.21,1h-8l.21-1a2.65,2.65,0,0,0,1.11-.38,2.15,2.15,0,0,0,.62-.73,6.26,6.26,0,0,0,.46-1.14c.15-.45.36-1.32.64-2.61l3.3-15a15.74,15.74,0,0,0,.43-3.08,1.65,1.65,0,0,0-.45-1.33,2.49,2.49,0,0,0-1.45-.43l.21-1h8.63a18,18,0,0,1,3.35.25,7.52,7.52,0,0,1,2.22.73,4.64,4.64,0,0,1,1.54,1.26,5.23,5.23,0,0,1,.94,1.74,6.89,6.89,0,0,1,.31,2.06,7.83,7.83,0,0,1-.58,3.08,7.47,7.47,0,0,1-1.56,2.36,9.22,9.22,0,0,1-2.3,1.72,15.32,15.32,0,0,1-2.76,1.16Zm-4.38-1.46a12.39,12.39,0,0,0,3.51-.42,5.91,5.91,0,0,0,2.33-1.28A6.57,6.57,0,0,0,41.47,267a7.67,7.67,0,0,0,.6-3,6.22,6.22,0,0,0-.16-1.5,4.08,4.08,0,0,0-.4-1.08,2.91,2.91,0,0,0-.64-.76,3.52,3.52,0,0,0-1-.58,5.54,5.54,0,0,0-1.35-.35,16,16,0,0,0-2.08-.11c-.69,0-1.41,0-2.18.08l-2.48,11.31Z"/><path d="M89.89,267.17H71v-3.28h18.9Zm0,8.69H71v-3.28h18.9Z"/><path d="M478.9,267.17H460v-3.28h18.9Zm0,8.69H460v-3.28h18.9Z"/><path d="M177,281v-7.85h-7.79v-3.28H177v-7.79h3.32v7.79h7.8v3.28h-7.8V281Z"/><path d="M250.22,279.42v-7.85h-7.79v-3.28h7.79v-7.8h3.32v7.8h7.8v3.28h-7.8v7.85Z"/><path d="M318.49,279.42v-7.85h-7.8v-3.28h7.8v-7.8h3.32v7.8h7.79v3.28h-7.79v7.85Z"/><path d="M379.57,279.42v-7.85h-7.79v-3.28h7.79v-7.8h3.32v7.8h7.79v3.28h-7.79v7.85Z"/><path d="M336.6,284l.84-4h4l-.86,4Z"/><path d="M347.72,284l.84-4h4l-.86,4Z"/><path d="M358.83,284l.84-4h4l-.86,4Z"/><path d="M109.21,280c-.09.39-.17.72-.22,1s-.09.61-.13,1a10.37,10.37,0,0,0-.06,1,1.93,1.93,0,0,0,.19.95,1.19,1.19,0,0,0,.58.5,5.32,5.32,0,0,0,1.34.23l-.21,1h-8l.21-1a2.65,2.65,0,0,0,1.11-.38,2.15,2.15,0,0,0,.62-.73,6.26,6.26,0,0,0,.46-1.14c.15-.45.36-1.32.64-2.61l3.3-15a15.74,15.74,0,0,0,.43-3.08,1.65,1.65,0,0,0-.45-1.33,2.49,2.49,0,0,0-1.45-.43l.21-1H125.3L124,265H122.1a20.1,20.1,0,0,0-.21-2.18,4.36,4.36,0,0,0-.34-1.18,1.76,1.76,0,0,0-.46-.58,1.52,1.52,0,0,0-.63-.26,5.75,5.75,0,0,0-1.07-.08h-6l-2.3,10.62h3.62a3.67,3.67,0,0,0,1.42-.23,2.8,2.8,0,0,0,1-.85,12.7,12.7,0,0,0,1.2-2.1h1.76l-1.88,8.24h-1.71c0-.81,0-1.44,0-1.89a2.06,2.06,0,0,0-.24-1,.93.93,0,0,0-.52-.38,4.79,4.79,0,0,0-1.23-.11h-3.8Z"/><path d="M156.15,287.68A7.12,7.12,0,0,0,156,289a.84.84,0,0,0,.27.68,2,2,0,0,0,1,.36,12.43,12.43,0,0,0,2.08.15l-.27,1.25h-9.85l.25-1.25a15.25,15.25,0,0,0,1.92-.15,3.34,3.34,0,0,0,1.07-.31,1.77,1.77,0,0,0,.63-.55,3.1,3.1,0,0,0,.4-1.08l1.92-8.77a3,3,0,0,0,.08-.44,1.85,1.85,0,0,0,0-.26q0-.3-.15-.39a.76.76,0,0,0-.43-.1,3.33,3.33,0,0,0-1.14.33c-.52.22-1.23.57-2.14,1l-.62-1.37,6.87-3.14H159c-.27,1-.54,2.18-.81,3.41Z"/><path d="M201.9,280c-.1.39-.17.72-.22,1s-.09.61-.13,1a10.37,10.37,0,0,0-.06,1,1.93,1.93,0,0,0,.19.95,1.19,1.19,0,0,0,.58.5,5.32,5.32,0,0,0,1.34.23l-.21,1h-8l.21-1a2.65,2.65,0,0,0,1.11-.38,2.25,2.25,0,0,0,.62-.73,6.57,6.57,0,0,0,.46-1.14c.15-.45.36-1.32.64-2.61l3.3-15a15.73,15.73,0,0,0,.43-3.09,1.63,1.63,0,0,0-.45-1.32,2.49,2.49,0,0,0-1.45-.43l.21-1H218l-1.34,6h-1.86a20.1,20.1,0,0,0-.21-2.18,4.36,4.36,0,0,0-.34-1.18,1.66,1.66,0,0,0-.46-.58,1.64,1.64,0,0,0-.63-.26,5,5,0,0,0-1.07-.08h-6l-2.3,10.62h3.62a3.87,3.87,0,0,0,1.42-.23,2.8,2.8,0,0,0,1-.85,12.7,12.7,0,0,0,1.2-2.1h1.76L211,276.37h-1.71c0-.81,0-1.44,0-1.89a2.06,2.06,0,0,0-.24-1,.93.93,0,0,0-.52-.38,4.79,4.79,0,0,0-1.23-.11h-3.8Z"/><path d="M230.69,289.2a3,3,0,0,0,1.05-.14,1.77,1.77,0,0,0,.63-.48,4.74,4.74,0,0,0,.61-1h1.49l-1,3.87H222.6l.2-.9a24.87,24.87,0,0,1,5.41-5.78l1.74-1.47a24.75,24.75,0,0,0,1.87-1.71,8.35,8.35,0,0,0,1-1.21,4,4,0,0,0,.6-2.13,1.75,1.75,0,0,0-.63-1.42,2.8,2.8,0,0,0-1.8-.52,3.25,3.25,0,0,0-2,.61,4.17,4.17,0,0,0-1.32,1.68h-2l.58-2.66a17.06,17.06,0,0,1,5.53-1.07,6.38,6.38,0,0,1,2,.28,4.29,4.29,0,0,1,1.38.74,3,3,0,0,1,.8,1,2.72,2.72,0,0,1,.25,1.13,4.58,4.58,0,0,1-.43,2.07,7.31,7.31,0,0,1-1.57,2c-.76.74-2,1.8-3.82,3.2A33.47,33.47,0,0,0,226,289.2Z"/><path d="M275.38,280q-.13.58-.21,1c-.05.27-.1.61-.14,1s0,.74,0,1a1.93,1.93,0,0,0,.19.95,1.14,1.14,0,0,0,.58.5,5.32,5.32,0,0,0,1.34.23l-.21,1h-8l.21-1a2.55,2.55,0,0,0,1.1-.38,2.06,2.06,0,0,0,.63-.73,7.08,7.08,0,0,0,.46-1.14c.14-.45.36-1.32.64-2.61l3.3-15a15.58,15.58,0,0,0,.42-3.08,1.69,1.69,0,0,0-.44-1.33,2.5,2.5,0,0,0-1.46-.43l.22-1h17.49l-1.34,6h-1.86a19.66,19.66,0,0,0-.22-2.18,4.42,4.42,0,0,0-.33-1.18,1.76,1.76,0,0,0-.46-.58,1.64,1.64,0,0,0-.63-.26,5.79,5.79,0,0,0-1.08-.08h-6l-2.31,10.62h3.63a3.67,3.67,0,0,0,1.42-.23,2.7,2.7,0,0,0,1-.85,11.4,11.4,0,0,0,1.2-2.1h1.77l-1.88,8.24h-1.71c0-.81,0-1.44-.05-1.89a2.08,2.08,0,0,0-.23-1,1,1,0,0,0-.52-.38,4.79,4.79,0,0,0-1.23-.11h-3.8Z"/><path d="M299.43,278.58l.52-2.66a19.8,19.8,0,0,1,2.75-.8,13.44,13.44,0,0,1,2.7-.27,6.62,6.62,0,0,1,2.19.35,3.54,3.54,0,0,1,1.6,1.11,3,3,0,0,1,.61,1.92,3.79,3.79,0,0,1-.43,1.77,4.53,4.53,0,0,1-1.44,1.55,11.7,11.7,0,0,1-2.51,1.29V283a4.41,4.41,0,0,1,2.29,1.33,3.31,3.31,0,0,1,.77,2.19,4.89,4.89,0,0,1-.43,2,4.49,4.49,0,0,1-1.32,1.67,6.06,6.06,0,0,1-2.16,1.06,10.73,10.73,0,0,1-2.89.36,16.88,16.88,0,0,1-2.71-.24,13.93,13.93,0,0,1-2.45-.6l.62-2.87h1.75a2.44,2.44,0,0,0,.82,1.74,3.29,3.29,0,0,0,2.14.59,3.88,3.88,0,0,0,2.92-1,4.08,4.08,0,0,0,1-3,2,2,0,0,0-.9-1.76,4.8,4.8,0,0,0-2.69-.62h-1.57l.29-1.44a12.87,12.87,0,0,0,2.61-.39,6.37,6.37,0,0,0,1.79-.78,3.85,3.85,0,0,0,1.08-1,3.25,3.25,0,0,0,.51-1,3.86,3.86,0,0,0,.14-1.05,1.84,1.84,0,0,0-.59-1.44,2.58,2.58,0,0,0-1.72-.52,3.47,3.47,0,0,0-2.05.58,4.2,4.2,0,0,0-1.36,1.75Z"/><path d="M409.63,280q-.13.58-.21,1a9.13,9.13,0,0,0-.14,1,10.37,10.37,0,0,0-.06,1,1.92,1.92,0,0,0,.2.95,1.14,1.14,0,0,0,.58.5,5.23,5.23,0,0,0,1.34.23l-.22,1h-8l.22-1a2.55,2.55,0,0,0,1.1-.38,2,2,0,0,0,.62-.73,7,7,0,0,0,.47-1.14c.14-.45.35-1.32.64-2.61l3.29-15a15,15,0,0,0,.43-3.08,1.65,1.65,0,0,0-.45-1.33,2.47,2.47,0,0,0-1.45-.43l.21-1h17.49l-1.33,6h-1.87a20.1,20.1,0,0,0-.21-2.18,4,4,0,0,0-.34-1.18,1.74,1.74,0,0,0-.45-.58,1.64,1.64,0,0,0-.63-.26,6,6,0,0,0-1.08-.08h-6l-2.31,10.62h3.63a3.62,3.62,0,0,0,1.41-.23,2.66,2.66,0,0,0,1.05-.85,12.7,12.7,0,0,0,1.2-2.1h1.77l-1.89,8.24H417c0-.81,0-1.44-.05-1.89a2.08,2.08,0,0,0-.23-1,1,1,0,0,0-.53-.38A4.68,4.68,0,0,0,415,273h-3.8Z"/><path d="M432.25,286l-.84,3.87h-10l-.26-.68,7.53-8.67c1.06-1.22,1.84-2.08,2.33-2.6l-.08-.09h-3.22a4.35,4.35,0,0,0-1,.09,2.31,2.31,0,0,0-.66.34,3.73,3.73,0,0,0-.71.72,8.5,8.5,0,0,0-.85,1.35h-1.22l.81-3.62h9.78l.26.69-9.88,11.26.09.09h3.11a6.65,6.65,0,0,0,1.26-.09,1.92,1.92,0,0,0,.77-.33,3.4,3.4,0,0,0,.68-.75A12.69,12.69,0,0,0,431,286Z"/><path d="M446.93,289.87H442.6l1.75-7c.11-.45.21-.95.32-1.49a7.38,7.38,0,0,0,.16-1.46,2.23,2.23,0,0,0-.34-1.4,1.23,1.23,0,0,0-1.05-.43,2.28,2.28,0,0,0-1.25.45,6.76,6.76,0,0,0-1.39,1.33,11.59,11.59,0,0,0-1.23,1.81,7.8,7.8,0,0,0-.78,2.22l-1.25,6h-2.38l2.09-9.4.18-.94a5.52,5.52,0,0,0,.12-1,1.22,1.22,0,0,0-.12-.6.68.68,0,0,0-.4-.31,3.64,3.64,0,0,0-.95-.15l.16-.73,3.13-.12h.78l-.92,3.58.16.05a12.47,12.47,0,0,1,2.6-2.81,4.25,4.25,0,0,1,2.51-.92,2.64,2.64,0,0,1,2,.74,3.08,3.08,0,0,1,.69,2.18,7.14,7.14,0,0,1-.09,1.08c-.06.39-.13.74-.2,1l-1.16,4.9a7.56,7.56,0,0,0-.23,1.57,1.27,1.27,0,0,0,.14.64.83.83,0,0,0,.42.36,3.53,3.53,0,0,0,1,.19Z"/><path d="M534.49,277.47c-.09.39-.16.72-.21,1a9.26,9.26,0,0,0-.14,1q-.06.6-.06,1a1.88,1.88,0,0,0,.2.94,1.06,1.06,0,0,0,.58.5,5.12,5.12,0,0,0,1.33.24l-.21.95h-8l.21-.95a2.69,2.69,0,0,0,1.11-.38,2.08,2.08,0,0,0,.62-.74,7,7,0,0,0,.47-1.14c.14-.45.35-1.32.64-2.61l3.29-15a15.08,15.08,0,0,0,.43-3.09,1.65,1.65,0,0,0-.45-1.33,2.47,2.47,0,0,0-1.45-.43l.21-.95h17.49l-1.33,6h-1.87a20.36,20.36,0,0,0-.21-2.18,4.12,4.12,0,0,0-.34-1.18,1.6,1.6,0,0,0-.45-.57,1.51,1.51,0,0,0-.63-.27,6,6,0,0,0-1.08-.08h-6l-2.31,10.63H540a3.66,3.66,0,0,0,1.42-.24,2.71,2.71,0,0,0,1.05-.85,13,13,0,0,0,1.2-2.09h1.76l-1.88,8.24h-1.7c0-.81,0-1.44-.05-1.9a2.15,2.15,0,0,0-.23-1,1,1,0,0,0-.53-.38,4.81,4.81,0,0,0-1.23-.1H536Z"/><path d="M557.11,283.52l-.84,3.87h-10l-.26-.67,7.52-8.67c1.07-1.22,1.85-2.09,2.34-2.6l-.08-.1h-3.22a3.79,3.79,0,0,0-1,.1,2,2,0,0,0-.66.33,4,4,0,0,0-.71.72,8.41,8.41,0,0,0-.85,1.36h-1.22l.81-3.62h9.78l.26.68-9.88,11.26.09.1h3.11a6.65,6.65,0,0,0,1.26-.09,2,2,0,0,0,.77-.34,3.4,3.4,0,0,0,.68-.75,12,12,0,0,0,.88-1.58Z"/><path d="M563.12,284c-.1.47-.16.81-.19,1a3.81,3.81,0,0,0,0,.54,1.33,1.33,0,0,0,.14.65.87.87,0,0,0,.42.35,3.46,3.46,0,0,0,.95.2l-.12.67H560l2.08-9.27c.12-.53.2-1,.25-1.28a5.07,5.07,0,0,0,.07-.79,1.34,1.34,0,0,0-.12-.62.81.81,0,0,0-.39-.33A3.08,3.08,0,0,0,561,275l.15-.73,3.36-.13h.81Zm3.4-15.11-.63,2.67h-2.44l.64-2.67Z"/><path d="M482.55,327.27c-.11.46-.17.81-.2,1s0,.4,0,.55a1.27,1.27,0,0,0,.14.64.82.82,0,0,0,.43.36,3.44,3.44,0,0,0,.94.19l-.12.68h-4.26l2.07-9.28c.12-.53.21-.95.25-1.27a5.18,5.18,0,0,0,.07-.79,1.31,1.31,0,0,0-.12-.62.68.68,0,0,0-.39-.33,3.34,3.34,0,0,0-.95-.14l.15-.73,3.36-.12h.81Zm3.39-15.11-.63,2.67h-2.43l.63-2.67Z"/><path d="M487.1,326.44l.41-1.86h11.42l-.41,1.86Zm1.25-5.71.41-1.86h11.42l-.41,1.86Z"/><path d="M509.14,326.73a9.21,9.21,0,0,0-.25,1.61,1.08,1.08,0,0,0,.29.82,1.83,1.83,0,0,0,1,.38,15.91,15.91,0,0,0,2.07.16l-.21,1h-9.71l.21-1a17.06,17.06,0,0,0,1.77-.15,4,4,0,0,0,1-.26,2,2,0,0,0,.61-.4,1.91,1.91,0,0,0,.41-.62,5.74,5.74,0,0,0,.35-1.15l2.2-10c.08-.39.14-.69.19-.92a3.45,3.45,0,0,0,.06-.57.71.71,0,0,0-.21-.58.72.72,0,0,0-.49-.17,2.74,2.74,0,0,0-1.09.35c-.49.23-1.21.63-2.18,1.2l-.53-1.1,7-3.65h.95l-.4,1.61c-.14.59-.3,1.28-.46,2.05Z"/><path d="M502.5,231.46h-4.34l1.75-7c.11-.45.22-.94.33-1.48a8.12,8.12,0,0,0,.15-1.46,2.31,2.31,0,0,0-.33-1.4,1.26,1.26,0,0,0-1.06-.43,2.25,2.25,0,0,0-1.24.45,6.53,6.53,0,0,0-1.4,1.33,12.51,12.51,0,0,0-1.23,1.8,8.46,8.46,0,0,0-.78,2.22l-1.25,6h-2.38l2.09-9.39c.05-.22.11-.53.19-.94a5.48,5.48,0,0,0,.11-1,1.24,1.24,0,0,0-.11-.6.73.73,0,0,0-.4-.32,3.93,3.93,0,0,0-1-.14l.17-.73,3.12-.12h.79l-.93,3.57.17.06a12.11,12.11,0,0,1,2.6-2.82,4.21,4.21,0,0,1,2.5-.91,2.62,2.62,0,0,1,2,.74,3.11,3.11,0,0,1,.68,2.18,7.14,7.14,0,0,1-.09,1.08c-.06.39-.12.73-.2,1L501.33,228a7,7,0,0,0-.23,1.57,1.31,1.31,0,0,0,.13.65,1,1,0,0,0,.43.36,3.87,3.87,0,0,0,.95.19Z"/><path d="M56.11,285.34l-.8,3.7H45.83l-.25-.64,7.16-8.31c1-1.17,1.76-2,2.23-2.49l-.08-.09H51.83a4,4,0,0,0-1,.09,1.93,1.93,0,0,0-.62.32,3.71,3.71,0,0,0-.68.69,7.75,7.75,0,0,0-.8,1.3H47.56l.77-3.47h9.31l.25.66-9.4,10.78.08.09h3a6.24,6.24,0,0,0,1.2-.08,2,2,0,0,0,.74-.32,3.37,3.37,0,0,0,.64-.72,11.27,11.27,0,0,0,.83-1.51Z"/><path d="M131.11,289.78l-.8,3.71h-9.47l-.25-.65,7.16-8.3c1-1.17,1.75-2,2.22-2.5l-.08-.09h-3.06a3.93,3.93,0,0,0-1,.09,2.13,2.13,0,0,0-.63.33,3.61,3.61,0,0,0-.68.68,8.68,8.68,0,0,0-.8,1.3h-1.17l.78-3.47h9.3l.25.66-9.4,10.79.08.09h3a7.18,7.18,0,0,0,1.2-.08,1.85,1.85,0,0,0,.74-.33,3.12,3.12,0,0,0,.64-.72,11.58,11.58,0,0,0,.84-1.51Z"/><path d="M135.16,283.76a10.12,10.12,0,0,0-.25-1.39,1.22,1.22,0,0,0-.38-.6,1.69,1.69,0,0,0-.85-.24l.14-.65h3.36l1,10.49c2.95-4.07,4.42-7,4.42-8.73a1.08,1.08,0,0,0-.26-.85,1.62,1.62,0,0,0-.89-.26l.13-.65H145l.35.66a29,29,0,0,1-1.77,3.8q-1.08,2-2.64,4.3t-3.48,4.85a30,30,0,0,1-2.46,2.93,8.41,8.41,0,0,1-1.42,1.14,4.78,4.78,0,0,1-2.55.72,5,5,0,0,1-.8-.08,3.51,3.51,0,0,1-.76-.19l.57-2.46h1a1.25,1.25,0,0,0,.21.71.68.68,0,0,0,.57.26,3,3,0,0,0,.72-.08,2.55,2.55,0,0,0,.64-.29,5.33,5.33,0,0,0,.81-.63,11.48,11.48,0,0,0,1.08-1.15q.6-.72,1.35-1.74Z"/><path d="M220.94,287.61l-.79,3.7h-9.48l-.25-.64,7.16-8.31c1-1.17,1.75-2,2.23-2.49l-.08-.09h-3.07a3.93,3.93,0,0,0-1,.09,2.09,2.09,0,0,0-.63.32,3.41,3.41,0,0,0-.67.69,8.72,8.72,0,0,0-.81,1.29H212.4l.77-3.46h9.31l.24.66-9.39,10.78.07.09h3a7.23,7.23,0,0,0,1.21-.08,1.94,1.94,0,0,0,.73-.32,3.13,3.13,0,0,0,.65-.72,12.54,12.54,0,0,0,.83-1.51Z"/><path d="M294.33,287.34l-.8,3.7h-9.48l-.24-.64,7.16-8.31q1.51-1.75,2.22-2.49l-.08-.09h-3.06a4,4,0,0,0-1,.09,2.16,2.16,0,0,0-.62.32,4,4,0,0,0-.68.69,8.19,8.19,0,0,0-.8,1.3h-1.17l.77-3.47h9.31l.25.66-9.4,10.78.08.1h3a6.09,6.09,0,0,0,1.2-.09,1.83,1.83,0,0,0,.74-.32,3.12,3.12,0,0,0,.64-.72,12.31,12.31,0,0,0,.84-1.51Z"/></svg>