<svg id="Capa_1" data-name="Capa 1" xmlns="http://www.w3.org/2000/svg" viewBox="0 0 264.26 92.68"><path d="M77.69,60c-.1.43-.18.79-.23,1.09a10.76,10.76,0,0,0-.15,1.11,10.19,10.19,0,0,0-.07,1.15,2,2,0,0,0,.22,1,1.24,1.24,0,0,0,.64.55,5.84,5.84,0,0,0,1.47.26l-.24,1H70.57l.23-1A3,3,0,0,0,72,64.76,2.39,2.39,0,0,0,72.7,64a7,7,0,0,0,.51-1.26c.16-.49.39-1.45.71-2.86l3.62-16.55A16.36,16.36,0,0,0,78,39.89a1.81,1.81,0,0,0-.49-1.46,2.76,2.76,0,0,0-1.6-.47l.24-1.06H95.4l-1.47,6.6H91.88a22.79,22.79,0,0,0-.24-2.4,4.7,4.7,0,0,0-.37-1.3,2,2,0,0,0-.5-.63,1.8,1.8,0,0,0-.69-.29,6,6,0,0,0-1.19-.09H82.32L79.78,50.48h4a3.91,3.91,0,0,0,1.56-.26,3,3,0,0,0,1.15-.93A12.82,12.82,0,0,0,87.8,47h1.94l-2.07,9.07H85.8c0-.89,0-1.59-.06-2.09a2.28,2.28,0,0,0-.25-1.05,1.09,1.09,0,0,0-.58-.42,5.09,5.09,0,0,0-1.35-.12H79.38Z"/><line x1="75.88" y1="27.02" x2="96.87" y2="27.02" style="fill:none;stroke:#000;stroke-miterlimit:10;stroke-width:2px"/><polygon points="92.88 30.41 96.27 27.02 92.88 23.63 95.76 23.63 99.15 27.02 95.76 30.41 92.88 30.41"/><line x1="213.42" y1="36" x2="234.41" y2="36" style="fill:none;stroke:#000;stroke-miterlimit:10;stroke-width:2px"/><polygon points="230.42 39.39 233.82 36 230.42 32.61 233.3 32.61 236.69 36 233.3 39.39 230.42 39.39"/><path d="M180.21,49.9v.3c0,.1,0,.21,0,.32a15.41,15.41,0,0,1,3.69-3.91,6.59,6.59,0,0,1,3.79-1.26,4,4,0,0,1,3.08,1.15,4.83,4.83,0,0,1,1.06,3.4,15.4,15.4,0,0,1-.43,3.31l-1.79,7.65a11.49,11.49,0,0,0-.36,2.45,2.05,2.05,0,0,0,.21,1,1.41,1.41,0,0,0,.66.56,5.83,5.83,0,0,0,1.48.3l-.2,1h-6.69l2.68-10.91c.2-.79.38-1.59.53-2.4a12.12,12.12,0,0,0,.22-2.2,3.55,3.55,0,0,0-.53-2.2,2.05,2.05,0,0,0-1.69-.66,3.46,3.46,0,0,0-1.86.69,10,10,0,0,0-2.17,2.1A16.86,16.86,0,0,0,180,53.46a13.62,13.62,0,0,0-1.15,3.38l-1.94,9.39h-3.69l2.45-10.91c.3-1.34.51-2.32.61-3a9.78,9.78,0,0,0,.16-1.64,3.48,3.48,0,0,0-.54-2.2,2.07,2.07,0,0,0-1.7-.66,3.41,3.41,0,0,0-1.88.7,10,10,0,0,0-2.19,2.16,16.49,16.49,0,0,0-1.85,2.87,13.25,13.25,0,0,0-1.07,3.34l-2,9.3H161.6l3.25-14.67c.07-.33.16-.82.29-1.47a9,9,0,0,0,.18-1.61,2,2,0,0,0-.18-.93,1.17,1.17,0,0,0-.62-.5,6.21,6.21,0,0,0-1.49-.22l.26-1.14,4.86-.19h1.2l-1.41,5.56.26.09a17.16,17.16,0,0,1,3.9-4.37A6.52,6.52,0,0,1,176,45.35a4,4,0,0,1,3.11,1.17A4.86,4.86,0,0,1,180.21,49.9Z"/><path d="M226.7,46.74l2-1.42,1.37.35-3.27,14.59c-.2.86-.33,1.52-.4,2a8.22,8.22,0,0,0-.11,1.15,1.53,1.53,0,0,0,.49,1.28,3.57,3.57,0,0,0,1.88.51l-.19,1h-6.1l1.34-5.39-.28-.09a18.69,18.69,0,0,1-3.88,4.4,6.26,6.26,0,0,1-3.88,1.4A4.22,4.22,0,0,1,212,64.77a8.44,8.44,0,0,1-1.29-5,18.82,18.82,0,0,1,.47-4.13,16.68,16.68,0,0,1,1.42-3.94,14.31,14.31,0,0,1,2.27-3.27,10.14,10.14,0,0,1,3.06-2.26,8.59,8.59,0,0,1,3.79-.84,9.89,9.89,0,0,1,2.52.32A8.82,8.82,0,0,1,226.7,46.74Zm-1.88,6.41a12.89,12.89,0,0,0,.26-1.53c0-.43.06-.89.06-1.4a3.54,3.54,0,0,0-.7-2.44,3.11,3.11,0,0,0-2.35-.76,5.1,5.1,0,0,0-1.7.29,5.83,5.83,0,0,0-1.65,1,8.71,8.71,0,0,0-1.59,1.77,13.27,13.27,0,0,0-1.37,2.67,18.79,18.79,0,0,0-1,3.36,18.41,18.41,0,0,0-.34,3.49,7.24,7.24,0,0,0,.6,3.34,2.15,2.15,0,0,0,2,1.11,3.58,3.58,0,0,0,1.38-.3,5.93,5.93,0,0,0,1.59-1.11,15.54,15.54,0,0,0,2-2.38,14.78,14.78,0,0,0,1.59-2.84,18.32,18.32,0,0,0,1-3.32Z"/><path d="M27.82,19.48l12.93,26v2.67L26.25,74.61H43.72a8.18,8.18,0,0,0,2.48-.28,3.63,3.63,0,0,0,1.43-.86,5.64,5.64,0,0,0,1.09-1.62A15.78,15.78,0,0,0,49.66,69a43.24,43.24,0,0,0,.85-4.79h3.11l-.77,17.19H19.19v-2l16.4-29.9L20.2,17.83v-2H53V31.5H50.12c-.45-2.23-.87-4.06-1.26-5.46a18.9,18.9,0,0,0-1.23-3.35,7.27,7.27,0,0,0-1.27-1.88,4.18,4.18,0,0,0-1.5-1,6.36,6.36,0,0,0-2.26-.34Z"/><path d="M136.41,49.4H117.5V46.11h18.91Zm0,8.69H117.5V54.81h18.91Z"/></svg>