<svg id="Capa_1" data-name="Capa 1" xmlns="http://www.w3.org/2000/svg" viewBox="0 0 217.05 135.83"><line x1="55.03" y1="89.62" x2="76.02" y2="89.62" style="fill:none;stroke:#000;stroke-miterlimit:10;stroke-width:2px"/><polygon points="72.03 93.01 75.43 89.62 72.03 86.23 74.91 86.23 78.3 89.62 74.91 93.01 72.03 93.01"/><path d="M72.82,98.14l2-1.42,1.37.34-3.27,14.59c-.2.86-.33,1.52-.4,2a8.09,8.09,0,0,0-.11,1.15,1.56,1.56,0,0,0,.49,1.28,3.65,3.65,0,0,0,1.88.5l-.19,1.05h-6.1l1.34-5.39-.28-.09a18.77,18.77,0,0,1-3.88,4.41,6.3,6.3,0,0,1-3.88,1.39,4.22,4.22,0,0,1-3.64-1.78,8.42,8.42,0,0,1-1.29-5,18.84,18.84,0,0,1,.47-4.14,16.33,16.33,0,0,1,1.42-3.93A14.38,14.38,0,0,1,61,99.81,10.11,10.11,0,0,1,64,97.56a8.59,8.59,0,0,1,3.79-.84,9.75,9.75,0,0,1,2.51.31A9.09,9.09,0,0,1,72.82,98.14Zm-1.88,6.4A15.32,15.32,0,0,0,71.2,103c0-.43.06-.89.06-1.39a3.52,3.52,0,0,0-.7-2.44,3.07,3.07,0,0,0-2.35-.76,4.88,4.88,0,0,0-1.71.29,5.64,5.64,0,0,0-1.64,1,8.71,8.71,0,0,0-1.59,1.77,13.54,13.54,0,0,0-1.37,2.67,17.47,17.47,0,0,0-1,3.36,18.52,18.52,0,0,0-.35,3.49,7.19,7.19,0,0,0,.61,3.34,2.15,2.15,0,0,0,2,1.11,3.58,3.58,0,0,0,1.38-.3A5.93,5.93,0,0,0,66.21,114a15.38,15.38,0,0,0,2-2.37,15.15,15.15,0,0,0,1.59-2.85,18.09,18.09,0,0,0,1-3.32Z"/><path d="M80.46,53.85c-.1.43-.18.79-.24,1.09s-.1.67-.15,1.11S80,56.87,80,57.2a2.13,2.13,0,0,0,.21,1,1.28,1.28,0,0,0,.64.55,5.59,5.59,0,0,0,1.48.26L82.1,60.1H73.33l.24-1.05a3,3,0,0,0,1.21-.42,2.32,2.32,0,0,0,.69-.81A8.05,8.05,0,0,0,76,56.57c.16-.5.39-1.45.7-2.87l3.63-16.54a17.26,17.26,0,0,0,.47-3.4,1.84,1.84,0,0,0-.49-1.46,2.76,2.76,0,0,0-1.6-.47l.23-1H98.16l-1.47,6.59h-2A20.54,20.54,0,0,0,94.41,35a4.59,4.59,0,0,0-.37-1.3,1.9,1.9,0,0,0-.5-.64,1.94,1.94,0,0,0-.7-.29,6.07,6.07,0,0,0-1.18-.08H85.09L82.55,44.35h4a4.18,4.18,0,0,0,1.56-.25,3.09,3.09,0,0,0,1.15-.94,14.18,14.18,0,0,0,1.32-2.31h1.94l-2.07,9.07H88.56c0-.89,0-1.58,0-2.09a2.28,2.28,0,0,0-.25-1,1.09,1.09,0,0,0-.58-.42,5.13,5.13,0,0,0-1.36-.12H82.14Z"/><line x1="78.64" y1="20.89" x2="99.63" y2="20.89" style="fill:none;stroke:#000;stroke-miterlimit:10;stroke-width:2px"/><polygon points="95.65 24.28 99.04 20.89 95.65 17.5 98.53 17.5 101.92 20.89 98.53 24.28 95.65 24.28"/><path d="M28.35,23.92,39.14,40.68V42.4L27,59.41H41.62a9,9,0,0,0,2.08-.18,3.36,3.36,0,0,0,1.19-.56,3.76,3.76,0,0,0,.91-1,8.79,8.79,0,0,0,.79-1.85,24,24,0,0,0,.71-3.08h2.59l-.64,11.06H21.15V62.49L34.84,43.24,22,22.86V21.57H49.36V31.66H47c-.37-1.44-.72-2.61-1.05-3.52a10.35,10.35,0,0,0-1-2.15,4.63,4.63,0,0,0-1.06-1.21,3.61,3.61,0,0,0-1.25-.64,6.84,6.84,0,0,0-1.89-.22Z"/><path d="M188.8,68v.3c0,.1,0,.21,0,.32a15.77,15.77,0,0,1,3.69-3.91,6.62,6.62,0,0,1,3.8-1.26,4,4,0,0,1,3.08,1.15,4.88,4.88,0,0,1,1.06,3.4,16.06,16.06,0,0,1-.43,3.31L198.19,79a11.63,11.63,0,0,0-.37,2.45,2,2,0,0,0,.22,1,1.37,1.37,0,0,0,.66.56,5.41,5.41,0,0,0,1.47.3l-.19,1h-6.7L196,73.42c.2-.79.37-1.59.52-2.4a12.2,12.2,0,0,0,.23-2.2,3.48,3.48,0,0,0-.54-2.2A2,2,0,0,0,194.5,66a3.46,3.46,0,0,0-1.87.69,10,10,0,0,0-2.16,2.1,17,17,0,0,0-1.85,2.81,13.23,13.23,0,0,0-1.14,3.38l-1.94,9.39h-3.69l2.45-10.91c.3-1.34.5-2.32.61-3a11,11,0,0,0,.16-1.64,3.41,3.41,0,0,0-.55-2.2,2.05,2.05,0,0,0-1.69-.66,3.43,3.43,0,0,0-1.89.7,10,10,0,0,0-2.19,2.16,16.41,16.41,0,0,0-1.84,2.87A13.65,13.65,0,0,0,175.83,75l-1.94,9.3H170.2l3.24-14.67c.07-.33.17-.82.29-1.47a9,9,0,0,0,.18-1.61,2,2,0,0,0-.18-.93,1.13,1.13,0,0,0-.62-.5,6,6,0,0,0-1.48-.22l.26-1.14,4.86-.19h1.19l-1.4,5.56.25.09a17.17,17.17,0,0,1,3.91-4.37,6.52,6.52,0,0,1,3.92-1.43,4,4,0,0,1,3.11,1.17A4.81,4.81,0,0,1,188.8,68Z"/><path d="M156.24,70.56H137.33V67.28h18.91Zm0,8.69H137.33V76h18.91Z"/><line x1="66.67" y1="12.26" x2="66.67" y2="65.87" style="fill:none;stroke:#000;stroke-miterlimit:10;stroke-width:2px"/><line x1="108.03" y1="12.26" x2="108.03" y2="65.87" style="fill:none;stroke:#000;stroke-miterlimit:10;stroke-width:2px"/><line x1="45.98" y1="87.39" x2="45.98" y2="123.57" style="fill:none;stroke:#000;stroke-miterlimit:10;stroke-width:1.642923355102539px"/><line x1="87.35" y1="87.39" x2="87.35" y2="123.57" style="fill:none;stroke:#000;stroke-miterlimit:10;stroke-width:1.642923355102539px"/><line x1="17.07" y1="74.55" x2="115.18" y2="74.55" style="fill:none;stroke:#000;stroke-miterlimit:10;stroke-width:2px"/></svg>