<svg id="Capa_1" data-name="Capa 1" xmlns="http://www.w3.org/2000/svg" viewBox="0 0 977.22 83.09"><path d="M354.5,55.25V46.61h-8.58V43h8.58V34.43h3.65V43h8.57v3.61h-8.57v8.64Z"/><path d="M525.48,57.3V48.67h-8.57V45.06h8.57V36.48h3.65v8.58h8.58v3.61h-8.58V57.3Z"/><path d="M142.24,52.11c-.09.39-.17.72-.22,1s-.09.61-.13,1-.06.75-.06,1a1.89,1.89,0,0,0,.19.94,1.14,1.14,0,0,0,.58.5,5.21,5.21,0,0,0,1.34.24l-.21.95h-8l.21-.95a2.65,2.65,0,0,0,1.11-.39,2.15,2.15,0,0,0,.62-.73,6.26,6.26,0,0,0,.46-1.14c.15-.45.36-1.32.64-2.61l3.3-15a15.74,15.74,0,0,0,.43-3.08,1.65,1.65,0,0,0-.45-1.33,2.49,2.49,0,0,0-1.45-.43l.21-1h17.49l-1.34,6h-1.86a20.36,20.36,0,0,0-.21-2.18,4.36,4.36,0,0,0-.34-1.18,1.76,1.76,0,0,0-.46-.58,1.58,1.58,0,0,0-.63-.26,5.75,5.75,0,0,0-1.07-.08h-6l-2.3,10.63h3.62a3.66,3.66,0,0,0,1.42-.24,2.71,2.71,0,0,0,1-.85,12.7,12.7,0,0,0,1.2-2.1h1.76l-1.88,8.25H149.6c0-.81,0-1.44,0-1.9a2.13,2.13,0,0,0-.24-1,1,1,0,0,0-.52-.38,4.91,4.91,0,0,0-1.23-.1h-3.8Z"/><path d="M156.44,51.88a10.68,10.68,0,0,0-.26-1.46,1.31,1.31,0,0,0-.4-.62,1.73,1.73,0,0,0-.9-.25l.15-.67h3.54l1.05,10.93q4.65-6.35,4.65-9.1a1.08,1.08,0,0,0-.28-.88,1.57,1.57,0,0,0-.93-.28l.13-.67h3.55l.38.68a31.18,31.18,0,0,1-1.87,4c-.76,1.36-1.68,2.86-2.78,4.48s-2.31,3.31-3.65,5.07a31,31,0,0,1-2.59,3,8.67,8.67,0,0,1-1.49,1.19,5.54,5.54,0,0,1-1.32.58,5.06,5.06,0,0,1-2.2.09,3.89,3.89,0,0,1-.8-.2l.6-2.57h1.07a1.25,1.25,0,0,0,.22.74.7.7,0,0,0,.61.28,2.48,2.48,0,0,0,1.42-.39,4.71,4.71,0,0,0,.85-.66,11.37,11.37,0,0,0,1.14-1.2c.42-.5.89-1.1,1.42-1.81Z"/><path d="M25.23,44.54a5.71,5.71,0,0,1,1.5,1.68,9,9,0,0,1,.92,2.72l.45,2.27c.09.46.19.9.3,1.3a9.86,9.86,0,0,0,.39,1.16,3.32,3.32,0,0,0,.48.89,2.63,2.63,0,0,0,.56.55,2.55,2.55,0,0,0,.68.34,6.19,6.19,0,0,0,1,.23l-.19,1H25.91a28.63,28.63,0,0,1-1.11-4.14L24,48.35a9.82,9.82,0,0,0-.52-1.8,3.28,3.28,0,0,0-.71-1.14,2,2,0,0,0-1-.52,5.82,5.82,0,0,0-1.35-.13H18.19L16.83,51c-.11.51-.2.91-.24,1.21s-.08.62-.12,1,0,.63,0,.89a1.88,1.88,0,0,0,.2.94,1.1,1.1,0,0,0,.58.5,4.81,4.81,0,0,0,1.34.24l-.21,1h-8l.21-1a2.69,2.69,0,0,0,1.1-.38,2,2,0,0,0,.62-.74,6.23,6.23,0,0,0,.47-1.14c.14-.45.36-1.32.64-2.61l3.3-15a15.67,15.67,0,0,0,.42-3.09,1.69,1.69,0,0,0-.44-1.33,2.61,2.61,0,0,0-1.46-.43l.22-.95h8.62a19.18,19.18,0,0,1,3.36.24,7.82,7.82,0,0,1,2.22.73,5,5,0,0,1,1.54,1.26A5.41,5.41,0,0,1,32.11,34,6.58,6.58,0,0,1,32.42,36a7.88,7.88,0,0,1-.57,3.09,7.58,7.58,0,0,1-1.56,2.36A9.41,9.41,0,0,1,28,43.18a15.29,15.29,0,0,1-2.76,1.15Zm-4.38-1.46a12.48,12.48,0,0,0,3.51-.42,5.87,5.87,0,0,0,2.32-1.28,6.52,6.52,0,0,0,1.53-2.26,7.55,7.55,0,0,0,.61-3,6.6,6.6,0,0,0-.16-1.49,3.82,3.82,0,0,0-.41-1.09,3.08,3.08,0,0,0-.64-.76,3.89,3.89,0,0,0-1-.58,5.34,5.34,0,0,0-1.34-.35,16.08,16.08,0,0,0-2.09-.11c-.68,0-1.41,0-2.17.08L18.56,43.08Z"/><path d="M34.84,51.48a10.57,10.57,0,0,0-.24-1.39,1.22,1.22,0,0,0-.38-.6,1.69,1.69,0,0,0-.85-.24l.14-.65h3.36l1,10.48Q42.3,53,42.29,50.36a1.1,1.1,0,0,0-.26-.85,1.54,1.54,0,0,0-.89-.26l.13-.65h3.38l.35.66a29.63,29.63,0,0,1-1.77,3.8q-1.08,2-2.65,4.3t-3.47,4.85a30,30,0,0,1-2.46,2.93,8.41,8.41,0,0,1-1.42,1.14,4.86,4.86,0,0,1-3.35.64,4.21,4.21,0,0,1-.76-.19l.57-2.46h1a1.27,1.27,0,0,0,.21.71.68.68,0,0,0,.57.26,2.28,2.28,0,0,0,1.36-.37,5.33,5.33,0,0,0,.81-.63,12.69,12.69,0,0,0,1.08-1.15q.6-.72,1.35-1.74Z"/><path d="M96.58,13.58l12.93,26v2.68L95,68.71h17.47a8.22,8.22,0,0,0,2.48-.28,3.91,3.91,0,0,0,1.43-.86,5.57,5.57,0,0,0,1.09-1.63,15.51,15.51,0,0,0,.94-2.87,45.25,45.25,0,0,0,.85-4.79h3.11l-.77,17.19H88v-2l16.4-29.91L89,11.93v-2h32.79V25.59h-2.87q-.66-3.35-1.26-5.46a18.84,18.84,0,0,0-1.22-3.34,7.61,7.61,0,0,0-1.27-1.89,4.48,4.48,0,0,0-1.5-1,6.14,6.14,0,0,0-2.26-.34Z"/><path d="M78.75,43.49H59.85V40.21h18.9Zm0,8.69H59.85V48.9h18.9Z"/><path d="M201.86,41H183V37.68h18.9Zm0,8.69H183V46.37h18.9Z"/><path d="M790.09,39.8h-18.9V36.52h18.9Zm0,8.69h-18.9V45.21h18.9Z"/><path d="M394.61,44.08a13.77,13.77,0,0,1,2.95-1.4,9.78,9.78,0,0,1,2.95-.46,6.08,6.08,0,0,1,2.95.72,5.13,5.13,0,0,1,2.12,2.18,7.48,7.48,0,0,1,.78,3.57,12.07,12.07,0,0,1-.34,2.82,9.58,9.58,0,0,1-1.07,2.7,8.42,8.42,0,0,1-1.88,2.2,8.79,8.79,0,0,1-2.69,1.5,10.5,10.5,0,0,1-3.48.55,6.88,6.88,0,0,1-3-.64,5.91,5.91,0,0,1-2.14-1.76,7.72,7.72,0,0,1-1.28-2.62,12.14,12.14,0,0,1-.43-3.27,20.13,20.13,0,0,1,.24-3.1,19.71,19.71,0,0,1,.95-3.85A17.28,17.28,0,0,1,393.46,39,17.79,17.79,0,0,1,397,35.3a19.76,19.76,0,0,1,4.59-2.69,20.67,20.67,0,0,1,5.33-1.44l.72,1.07-.19,1a13.59,13.59,0,0,0-8,3.12A17.1,17.1,0,0,0,394.42,44Zm-1.47,7.05a7,7,0,0,0,1.07,4.25,3.77,3.77,0,0,0,3.19,1.41,4.41,4.41,0,0,0,2.8-1,6.52,6.52,0,0,0,2-2.82,11.06,11.06,0,0,0,.71-4.1c0-3.12-1.27-4.67-3.82-4.67a6.88,6.88,0,0,0-1.29.12,7.24,7.24,0,0,0-1.28.4,8.13,8.13,0,0,0-1.23.67,6.07,6.07,0,0,0-.93.72,2.72,2.72,0,0,0-.47.63,3.78,3.78,0,0,0-.31.82c-.07.32-.17.9-.27,1.73A13.81,13.81,0,0,0,393.14,51.13Z"/><path d="M415.59,44.08a13.77,13.77,0,0,1,3-1.4,9.83,9.83,0,0,1,2.95-.46,6.12,6.12,0,0,1,3,.72,5.11,5.11,0,0,1,2.11,2.18,7.48,7.48,0,0,1,.79,3.57,12.62,12.62,0,0,1-.34,2.82,9.91,9.91,0,0,1-1.08,2.7,8.23,8.23,0,0,1-1.88,2.2,8.67,8.67,0,0,1-2.69,1.5,10.5,10.5,0,0,1-3.48.55,6.83,6.83,0,0,1-3-.64,5.94,5.94,0,0,1-2.15-1.76,7.91,7.91,0,0,1-1.28-2.62,12.15,12.15,0,0,1-.42-3.27,21.45,21.45,0,0,1,.23-3.1,20.45,20.45,0,0,1,.95-3.85A17.28,17.28,0,0,1,414.44,39,18.32,18.32,0,0,1,418,35.3a19.62,19.62,0,0,1,4.6-2.69,20.57,20.57,0,0,1,5.33-1.44l.72,1.07-.2,1a13.59,13.59,0,0,0-8,3.12A17.1,17.1,0,0,0,415.4,44Zm-1.47,7.05a7,7,0,0,0,1.08,4.25,3.75,3.75,0,0,0,3.19,1.41,4.36,4.36,0,0,0,2.79-1,6.62,6.62,0,0,0,2-2.82,11.27,11.27,0,0,0,.7-4.1c0-3.12-1.27-4.67-3.82-4.67a6.7,6.7,0,0,0-1.28.12,7.34,7.34,0,0,0-1.29.4,8.13,8.13,0,0,0-1.23.67,6.07,6.07,0,0,0-.93.72,2.69,2.69,0,0,0-.46.63,3.32,3.32,0,0,0-.31.82,16.55,16.55,0,0,0-.27,1.73A12.41,12.41,0,0,0,414.12,51.13Z"/><path d="M444.68,44.29v.26a5.1,5.1,0,0,1,3.11,5,9.67,9.67,0,0,1-.2,1.78,9,9,0,0,1-.85,2.58,7.83,7.83,0,0,1-1.94,2.42,9.16,9.16,0,0,1-2.95,1.59,12.19,12.19,0,0,1-3.84.58,10.13,10.13,0,0,1-4-.73,5.44,5.44,0,0,1-3.5-5.27,9.19,9.19,0,0,1,.57-3.14A7.48,7.48,0,0,1,433,46.5a11,11,0,0,1,3.36-2.11l0-.25a6.28,6.28,0,0,1-2-2.22,6,6,0,0,1-.62-2.76,9,9,0,0,1,.15-1.58,6.92,6.92,0,0,1,.76-2.23,7.14,7.14,0,0,1,1.83-2.15,8.93,8.93,0,0,1,2.83-1.48,11.27,11.27,0,0,1,3.6-.55,10.1,10.1,0,0,1,4.23.76,5.18,5.18,0,0,1,2.4,2,5.52,5.52,0,0,1,.74,2.84,7.86,7.86,0,0,1-.6,3,7.59,7.59,0,0,1-1.91,2.67A8.82,8.82,0,0,1,444.68,44.29ZM434,52.81a4,4,0,0,0,1,3,4.31,4.31,0,0,0,3.11,1,5.45,5.45,0,0,0,2.78-.67,5.35,5.35,0,0,0,1.87-1.79,8.92,8.92,0,0,0,1.08-2.57,11.76,11.76,0,0,0,.36-2.8,3.9,3.9,0,0,0-1-2.86,4,4,0,0,0-2.92-1,5.88,5.88,0,0,0-2.82.67,5.62,5.62,0,0,0-2,1.79,8.46,8.46,0,0,0-1.18,2.54A10,10,0,0,0,434,52.81Zm3-13a5.47,5.47,0,0,0,.17,1.42,2.74,2.74,0,0,0,.6,1.19,2.94,2.94,0,0,0,1.16.82,5,5,0,0,0,1.89.3,5.43,5.43,0,0,0,3-.84,6,6,0,0,0,2.1-2.5,8,8,0,0,0,.81-3.59,3.76,3.76,0,0,0-1-2.82,4,4,0,0,0-2.86-.93,5.32,5.32,0,0,0-5.27,3.59A9.49,9.49,0,0,0,437.08,39.78Z"/><path d="M455.17,53.61a12.41,12.41,0,0,1-.13,1.68,11.42,11.42,0,0,1-.42,1.88,9.27,9.27,0,0,1-.65,1.58,8.35,8.35,0,0,1-1,1.4,12.33,12.33,0,0,1-1.58,1.58,23.63,23.63,0,0,1-2.56,1.86L448,62.38a15.85,15.85,0,0,0,1.44-1.33,5.66,5.66,0,0,0,.85-1.11,8.15,8.15,0,0,0,.59-1.32,22.14,22.14,0,0,0,.57-2.16,26.46,26.46,0,0,0,.47-2.85Z"/><path d="M469.33,55a6.37,6.37,0,0,0,1.12-.08,2.06,2.06,0,0,0,.65-.23,2.35,2.35,0,0,0,.52-.43,4,4,0,0,0,.49-.69c.15-.26.34-.64.58-1.15h1.8l-1.44,5.7h-15.2l.19-.93A28.75,28.75,0,0,1,461,53a58.8,58.8,0,0,1,4.92-5.2q2.6-2.47,3.59-3.51a27.86,27.86,0,0,0,2.69-3.11,9.88,9.88,0,0,0,1.32-2.44,7,7,0,0,0,.39-2.31,3.35,3.35,0,0,0-.92-2.52,3.61,3.61,0,0,0-2.63-.89,4.68,4.68,0,0,0-2.86,1,6.73,6.73,0,0,0-2.05,2.72h-2.5l.83-3.75a26.61,26.61,0,0,1,4.07-1.3,17,17,0,0,1,3.73-.42,7.91,7.91,0,0,1,3.29.63,4.75,4.75,0,0,1,2.09,1.76,4.56,4.56,0,0,1,.71,2.47,8,8,0,0,1-.31,2.32,8.45,8.45,0,0,1-1,2.08,21.44,21.44,0,0,1-2.5,3c-1,1-2.67,2.58-5,4.66A52.05,52.05,0,0,0,462.16,55Z"/><path d="M486.45,44.08a13.77,13.77,0,0,1,2.95-1.4,9.83,9.83,0,0,1,3-.46,6.12,6.12,0,0,1,3,.72,5.11,5.11,0,0,1,2.11,2.18,7.48,7.48,0,0,1,.79,3.57,12.62,12.62,0,0,1-.34,2.82,9.91,9.91,0,0,1-1.08,2.7,8.23,8.23,0,0,1-1.88,2.2,8.67,8.67,0,0,1-2.69,1.5,10.41,10.41,0,0,1-3.48.55,6.83,6.83,0,0,1-3-.64,5.94,5.94,0,0,1-2.15-1.76,8.1,8.1,0,0,1-1.28-2.62,12.15,12.15,0,0,1-.42-3.27,21.45,21.45,0,0,1,.23-3.1,20.45,20.45,0,0,1,1-3.85A17.28,17.28,0,0,1,485.3,39a18.32,18.32,0,0,1,3.54-3.67,19.62,19.62,0,0,1,4.6-2.69,20.57,20.57,0,0,1,5.33-1.44l.72,1.07-.2,1a13.59,13.59,0,0,0-8,3.12A17.1,17.1,0,0,0,486.26,44ZM485,51.13a7,7,0,0,0,1.08,4.25,3.75,3.75,0,0,0,3.19,1.41,4.36,4.36,0,0,0,2.79-1A6.54,6.54,0,0,0,494,53a11.27,11.27,0,0,0,.7-4.1c0-3.12-1.27-4.67-3.82-4.67a6.77,6.77,0,0,0-1.28.12,7,7,0,0,0-1.28.4,7.77,7.77,0,0,0-1.24.67,6.07,6.07,0,0,0-.93.72,2.69,2.69,0,0,0-.46.63,3.32,3.32,0,0,0-.31.82,16.55,16.55,0,0,0-.27,1.73A13.93,13.93,0,0,0,485,51.13Z"/><path d="M565.25,61.93a8.74,8.74,0,0,1-4.46-1,5.74,5.74,0,0,1-2.47-2.9,12.89,12.89,0,0,1-.76-4.77,32.42,32.42,0,0,1,.34-4.49q.47-3.17,1.35-7.06c.59-2.59,1.17-4.73,1.74-6.44a23.67,23.67,0,0,1,2.13-4.76,11.29,11.29,0,0,1,2.5-2.92,9.46,9.46,0,0,1,3.09-1.6,15.54,15.54,0,0,1,4.55-.58l-.35,1.6a8.61,8.61,0,0,0-2.81.39,6,6,0,0,0-2,1.17,9.88,9.88,0,0,0-1.92,2.52,28.76,28.76,0,0,0-2.05,5.06q-.85,2.7-1.71,6.58c-.46,2.12-.84,4-1.12,5.72a37.55,37.55,0,0,0-.58,5.9,9.48,9.48,0,0,0,.55,3.6,3.52,3.52,0,0,0,1.59,1.84,5.9,5.9,0,0,0,2.72.54Z"/><path d="M580.44,44.66H572l.64-3h8.48Z"/><path d="M596.52,31.93l.79-3.75a23.55,23.55,0,0,1,4-1.32,17.43,17.43,0,0,1,3.8-.4,9.64,9.64,0,0,1,2.38.29,6,6,0,0,1,2,.9,4.41,4.41,0,0,1,1.34,1.56,4.79,4.79,0,0,1,.49,2.25,7.09,7.09,0,0,1-.69,3.19,7.39,7.39,0,0,1-2.26,2.57,18.31,18.31,0,0,1-4.26,2.23l0,.21a6.79,6.79,0,0,1,3.68,2.05A5.36,5.36,0,0,1,609,45.35a8.34,8.34,0,0,1-.69,3.26,8.08,8.08,0,0,1-2,2.79,8.51,8.51,0,0,1-3.11,1.75,14,14,0,0,1-4.33.6,20.43,20.43,0,0,1-3.82-.4,15.82,15.82,0,0,1-3.34-1l.9-4.14h2.23a4,4,0,0,0,1.18,2.93,4.62,4.62,0,0,0,3.12.94,6.17,6.17,0,0,0,3.32-.86,5.73,5.73,0,0,0,2.14-2.52,8.88,8.88,0,0,0,.77-3.75,3.78,3.78,0,0,0-1.35-3.17,6.52,6.52,0,0,0-4-1h-1.94l.36-1.72a13.87,13.87,0,0,0,4.16-.86,8.76,8.76,0,0,0,2.92-1.78,6.26,6.26,0,0,0,1.6-2.28,6.58,6.58,0,0,0,.48-2.44,3.27,3.27,0,0,0-1-2.5,3.62,3.62,0,0,0-2.6-.9,4.84,4.84,0,0,0-3.06.92,7.12,7.12,0,0,0-2.06,2.75Z"/><path d="M623.65,50.31a6.24,6.24,0,0,0,1.11-.08,2.24,2.24,0,0,0,.65-.22,2.48,2.48,0,0,0,.52-.44,3.59,3.59,0,0,0,.5-.69c.15-.26.34-.64.57-1.15h1.8l-1.43,5.7h-15.2l.19-.93a28.75,28.75,0,0,1,2.94-4.26,58.49,58.49,0,0,1,4.91-5.2c1.74-1.65,2.93-2.82,3.59-3.51a27.07,27.07,0,0,0,2.7-3.11A9.71,9.71,0,0,0,627.82,34a7.25,7.25,0,0,0,.38-2.3,3.32,3.32,0,0,0-.92-2.53,3.6,3.6,0,0,0-2.63-.89,4.68,4.68,0,0,0-2.86.95,6.71,6.71,0,0,0-2,2.72h-2.5l.83-3.75a26.52,26.52,0,0,1,4.06-1.3,17,17,0,0,1,3.74-.42,7.71,7.71,0,0,1,3.28.64,4.64,4.64,0,0,1,2.1,1.75,4.58,4.58,0,0,1,.71,2.47,8.4,8.4,0,0,1-.31,2.32,8.65,8.65,0,0,1-1,2.08,21.62,21.62,0,0,1-2.51,3c-1,1-2.67,2.58-5,4.67a51.73,51.73,0,0,0-6.73,6.93Z"/><path d="M648.88,39.59v.25a5.1,5.1,0,0,1,3.1,5,10.5,10.5,0,0,1-.19,1.78,9,9,0,0,1-.86,2.58A7.68,7.68,0,0,1,649,51.58a9,9,0,0,1-3,1.59,12.19,12.19,0,0,1-3.84.58,10.13,10.13,0,0,1-4-.73,5.44,5.44,0,0,1-3.5-5.27,9.09,9.09,0,0,1,.57-3.13,7.43,7.43,0,0,1,1.88-2.83,11.22,11.22,0,0,1,3.37-2.11l0-.25a6.19,6.19,0,0,1-2-2.22,6,6,0,0,1-.63-2.76,9,9,0,0,1,.15-1.58,7.43,7.43,0,0,1,.76-2.23,7.14,7.14,0,0,1,1.83-2.15A9,9,0,0,1,643.51,27a11.32,11.32,0,0,1,3.6-.55,10.18,10.18,0,0,1,4.24.76,5.2,5.2,0,0,1,2.39,2,5.42,5.42,0,0,1,.74,2.84,7.86,7.86,0,0,1-.6,3A7.46,7.46,0,0,1,652,37.76,8.86,8.86,0,0,1,648.88,39.59ZM638.23,48.1a3.92,3.92,0,0,0,1.06,3,4.3,4.3,0,0,0,3.11,1,5.42,5.42,0,0,0,2.77-.68A5.32,5.32,0,0,0,647,49.63a8.82,8.82,0,0,0,1.08-2.58,11.3,11.3,0,0,0,.37-2.8,3.39,3.39,0,0,0-3.88-3.82,5.8,5.8,0,0,0-2.81.66,5.65,5.65,0,0,0-2,1.79,8.21,8.21,0,0,0-1.17,2.54A9.68,9.68,0,0,0,638.23,48.1Zm3-13a5.94,5.94,0,0,0,.17,1.42,2.86,2.86,0,0,0,.6,1.19,2.94,2.94,0,0,0,1.16.82,5.06,5.06,0,0,0,1.89.3,5.43,5.43,0,0,0,3-.84,5.83,5.83,0,0,0,2.1-2.5,8,8,0,0,0,.81-3.59,3.76,3.76,0,0,0-1-2.82,4,4,0,0,0-2.86-.93,5.55,5.55,0,0,0-3.28.95,5.64,5.64,0,0,0-2,2.64A9.49,9.49,0,0,0,641.27,35.07Z"/><path d="M659.37,48.9a12.6,12.6,0,0,1-.14,1.68,11.42,11.42,0,0,1-.42,1.88,8.25,8.25,0,0,1-.65,1.58,8.41,8.41,0,0,1-1,1.41A13,13,0,0,1,655.62,57a23.63,23.63,0,0,1-2.56,1.86l-.89-1.21a16.18,16.18,0,0,0,1.45-1.33,6,6,0,0,0,.84-1.11,7.37,7.37,0,0,0,.59-1.32,17.54,17.54,0,0,0,.57-2.16,24.2,24.2,0,0,0,.47-2.85Z"/><path d="M673.52,50.31a6.37,6.37,0,0,0,1.12-.08,2.35,2.35,0,0,0,.65-.22,2.48,2.48,0,0,0,.52-.44,4.08,4.08,0,0,0,.5-.69c.14-.26.34-.64.57-1.15h1.8l-1.43,5.7H662l.2-.93a28.75,28.75,0,0,1,2.94-4.26,57,57,0,0,1,4.91-5.2q2.6-2.48,3.59-3.51a26.84,26.84,0,0,0,2.69-3.11A9.39,9.39,0,0,0,677.69,34a7,7,0,0,0,.39-2.3,3.35,3.35,0,0,0-.92-2.53,3.6,3.6,0,0,0-2.63-.89,4.68,4.68,0,0,0-2.86.95,6.71,6.71,0,0,0-2,2.72h-2.51l.84-3.75a26.18,26.18,0,0,1,4.06-1.3,17,17,0,0,1,3.73-.42,7.72,7.72,0,0,1,3.29.64,4.69,4.69,0,0,1,2.1,1.75,4.57,4.57,0,0,1,.7,2.47,8,8,0,0,1-.31,2.32,8,8,0,0,1-1,2.08,20.75,20.75,0,0,1-2.5,3c-1,1-2.67,2.58-5,4.67a51.73,51.73,0,0,0-6.73,6.93Z"/><path d="M691.11,52.48a3,3,0,0,0,1.12-.32,2,2,0,0,0,.63-.62,5,5,0,0,0,.52-1.2c.17-.53.38-1.36.62-2.49l.55-2.5H684.23l.37-1.84,14.12-16.87h3.21l-3.68,16.81h.66a4.9,4.9,0,0,0,1.49-.16,1.8,1.8,0,0,0,.8-.57,5.75,5.75,0,0,0,.73-1.4h1.75l-1.1,4h-4.74l-.62,2.81q-.16.84-.24,1.5a9.9,9.9,0,0,0-.07,1.08,1.71,1.71,0,0,0,.41,1.28,2.56,2.56,0,0,0,1.49.46l-.21,1h-7.7Zm-3.41-9H695l1-4.86c.55-2.55,1.18-5.1,1.86-7.66h-.27l-9.87,12.25Z"/><path d="M709.15,25.41a8.82,8.82,0,0,1,4.46,1,5.73,5.73,0,0,1,2.47,2.9,12.89,12.89,0,0,1,.77,4.78,31.07,31.07,0,0,1-.35,4.39Q716,41.88,715.06,46c-.6,2.57-1.19,4.66-1.74,6.29a22.29,22.29,0,0,1-2.07,4.56,10.64,10.64,0,0,1-2.48,2.88,9.05,9.05,0,0,1-3.09,1.58,15.54,15.54,0,0,1-4.54.59l.35-1.6a8.46,8.46,0,0,0,2.8-.39,6,6,0,0,0,2-1.15,9.72,9.72,0,0,0,2-2.6,28.29,28.29,0,0,0,2-5c.64-2,1.25-4.43,1.82-7.12.45-2.08.81-3.93,1.06-5.55a36.22,36.22,0,0,0,.53-5.49,9.48,9.48,0,0,0-.56-3.61,3.52,3.52,0,0,0-1.6-1.83A5.92,5.92,0,0,0,708.8,27Z"/><path d="M230.48,43.12a11.11,11.11,0,0,1,3.85-.64,7.14,7.14,0,0,1,3.4.76,5.23,5.23,0,0,1,2.19,2.18,6.92,6.92,0,0,1,.76,3.29,11.38,11.38,0,0,1-1.16,5,7.64,7.64,0,0,1-3.39,3.59,11.56,11.56,0,0,1-5.46,1.19,19.44,19.44,0,0,1-3.58-.37,17.22,17.22,0,0,1-3.42-1l.89-4.14h2.23q.12,3.87,4,3.87a5.42,5.42,0,0,0,3.47-1.1,6.67,6.67,0,0,0,2.07-3A10.61,10.61,0,0,0,237,49,4.81,4.81,0,0,0,236,45.62a3.93,3.93,0,0,0-3-1.15,12.39,12.39,0,0,0-1.69.1,11.49,11.49,0,0,0-1.82.41l-1.65-1.25,2.7-12.25h9.67a3.2,3.2,0,0,0,1-.1,1.35,1.35,0,0,0,.52-.37,3,3,0,0,0,.44-.82h1.57l-1.24,4.54H232.32Z"/><path d="M251.5,58.46a6.44,6.44,0,0,1-3.09-.69,4.53,4.53,0,0,1-2-2.24,10,10,0,0,1-.71-4.12,29,29,0,0,1,.46-5,34.57,34.57,0,0,1,1.27-5,24.12,24.12,0,0,1,1.93-4.29,14.94,14.94,0,0,1,2.48-3.25,10,10,0,0,1,2.88-2,7.6,7.6,0,0,1,3.16-.69,6.38,6.38,0,0,1,2.7.51,4.73,4.73,0,0,1,1.79,1.41,5.91,5.91,0,0,1,1,2.17,11.4,11.4,0,0,1,.31,2.77,30.62,30.62,0,0,1-1.24,8.5,24.68,24.68,0,0,1-3.13,7.14,11.6,11.6,0,0,1-3.78,3.69A7.88,7.88,0,0,1,251.5,58.46Zm-2.43-5.82a8.93,8.93,0,0,0,.27,2.47,2.41,2.41,0,0,0,.84,1.29,2.67,2.67,0,0,0,1.55.4,4,4,0,0,0,2.82-1.39,14.08,14.08,0,0,0,2.58-4.14,40.39,40.39,0,0,0,2.2-7.05,33.82,33.82,0,0,0,1-7.42,5.71,5.71,0,0,0-.61-3,2.16,2.16,0,0,0-1.95-1,3.52,3.52,0,0,0-1.67.43A6.12,6.12,0,0,0,254.17,35,16.57,16.57,0,0,0,252,38.87a39.27,39.27,0,0,0-1.57,4.86c-.34,1.33-.62,2.63-.85,3.91A26.06,26.06,0,0,0,249.07,52.64Z"/><path d="M286.68,32.42,271,58.28h-2.88l.23-1.09L282.51,35l.05-.29h-8A4.75,4.75,0,0,0,273,35a2.33,2.33,0,0,0-1,.75,8.23,8.23,0,0,0-1.05,2.1h-1.78l1.57-6.33h16.21Z"/><path d="M290.32,53.61a12.41,12.41,0,0,1-.13,1.68,12.54,12.54,0,0,1-.42,1.88,8.24,8.24,0,0,1-1.61,3,13.77,13.77,0,0,1-1.58,1.57A23.63,23.63,0,0,1,284,63.59l-.89-1.21a15.85,15.85,0,0,0,1.44-1.33,5.6,5.6,0,0,0,.84-1.11,8.14,8.14,0,0,0,.6-1.32,22.14,22.14,0,0,0,.57-2.16,24.18,24.18,0,0,0,.46-2.85Z"/><path d="M298.33,36.64l.8-3.75a23.47,23.47,0,0,1,4-1.32,17.49,17.49,0,0,1,3.8-.4,9.72,9.72,0,0,1,2.39.29,6.13,6.13,0,0,1,2,.9,4.38,4.38,0,0,1,1.33,1.56,4.79,4.79,0,0,1,.5,2.25,7.1,7.1,0,0,1-.7,3.19,7.48,7.48,0,0,1-2.26,2.57,18.11,18.11,0,0,1-4.26,2.23l0,.21a6.79,6.79,0,0,1,3.69,2.05,5.41,5.41,0,0,1,1.28,3.64,8.18,8.18,0,0,1-.7,3.26,7.82,7.82,0,0,1-2,2.79,8.35,8.35,0,0,1-3.11,1.75,14,14,0,0,1-4.32.6,20.53,20.53,0,0,1-3.83-.4,15.89,15.89,0,0,1-3.33-1l.89-4.14h2.23a4.06,4.06,0,0,0,1.18,2.93,4.66,4.66,0,0,0,3.13.94,6.13,6.13,0,0,0,3.31-.86,5.81,5.81,0,0,0,2.15-2.52,8.88,8.88,0,0,0,.76-3.75,3.78,3.78,0,0,0-1.35-3.17,6.48,6.48,0,0,0-4-1H299.9l.37-1.72a13.8,13.8,0,0,0,4.15-.86,8.82,8.82,0,0,0,2.93-1.78,6.38,6.38,0,0,0,1.6-2.28,6.78,6.78,0,0,0,.47-2.44,3.23,3.23,0,0,0-.95-2.5,3.62,3.62,0,0,0-2.6-.9,4.84,4.84,0,0,0-3.06.92,7.22,7.22,0,0,0-2.06,2.75Z"/><path d="M326,52.5a12.75,12.75,0,0,0-.35,2.28,1.55,1.55,0,0,0,.41,1.17,2.67,2.67,0,0,0,1.35.54,22.39,22.39,0,0,0,2.92.23L330,58.14H316.35l.29-1.42a24.56,24.56,0,0,0,2.5-.22,5.49,5.49,0,0,0,1.4-.37,2.67,2.67,0,0,0,.87-.56,3.28,3.28,0,0,0,.58-.88,7.93,7.93,0,0,0,.48-1.64l3.11-14.16c.11-.55.2-1,.26-1.31a4.72,4.72,0,0,0,.09-.8,1,1,0,0,0-.3-.83,1,1,0,0,0-.69-.25,4,4,0,0,0-1.53.5c-.69.33-1.71.9-3.07,1.71l-.76-1.56,9.84-5.18h1.33l-.56,2.29q-.3,1.24-.66,2.91Z"/><path d="M821.34,40.07a5.87,5.87,0,0,1,2.34,2,5.4,5.4,0,0,1,.78,3,8,8,0,0,1-5,7.68,14,14,0,0,1-5.64,1.05,13.07,13.07,0,0,1-4.58-.72,6.15,6.15,0,0,1-3-2.14,5.61,5.61,0,0,1-1-3.41,7.72,7.72,0,0,1,1.45-4.72,10.39,10.39,0,0,1,4.39-3.26l0-.26a7.14,7.14,0,0,1-2-2.29,5.85,5.85,0,0,1-.68-2.77A6.79,6.79,0,0,1,809.76,30a7.86,7.86,0,0,1,3.64-2.62,14.91,14.91,0,0,1,5.28-.87,12.56,12.56,0,0,1,4.72.77,5.74,5.74,0,0,1,2.72,2.07,5.31,5.31,0,0,1,.84,2.94,7.08,7.08,0,0,1-1.38,4.39,10.67,10.67,0,0,1-4.24,3.15Zm-10.61,8.21a3.48,3.48,0,0,0,.77,2.51,3.14,3.14,0,0,0,2.35.79,4.43,4.43,0,0,0,1.62-.27,3.87,3.87,0,0,0,1.31-.85,5.71,5.71,0,0,0,1.11-1.54,9.25,9.25,0,0,0,.78-2.23A12.2,12.2,0,0,0,819,44a3.55,3.55,0,0,0-.75-2.44,2.72,2.72,0,0,0-2.16-.84,4.07,4.07,0,0,0-2.79,1.06,6.91,6.91,0,0,0-1.86,3A10.77,10.77,0,0,0,810.73,48.28Zm3-13a5.14,5.14,0,0,0,.25,1.69,2.35,2.35,0,0,0,.87,1.19,2.82,2.82,0,0,0,1.71.46,4.19,4.19,0,0,0,2.57-.84,5.67,5.67,0,0,0,1.76-2.38,8.86,8.86,0,0,0,.64-3.44,3.58,3.58,0,0,0-.71-2.45,2.69,2.69,0,0,0-2.12-.79,4.27,4.27,0,0,0-2.32.61A4.61,4.61,0,0,0,814.83,31a7.54,7.54,0,0,0-.83,2.24A10.12,10.12,0,0,0,813.75,35.25Z"/><path d="M834.27,52.18a2.44,2.44,0,0,0,1.55-1,6.31,6.31,0,0,0,1-2.55l.64-2.91h-10l.44-2.11,14.64-17h4.58l-3.61,16.61H844a4.86,4.86,0,0,0,1.3-.13,1.82,1.82,0,0,0,.72-.49,5.19,5.19,0,0,0,.77-1.24h2l-1.13,4.32h-4.79l-.52,2.46a10.07,10.07,0,0,0-.25,2.09,2.15,2.15,0,0,0,.34,1.38,2.05,2.05,0,0,0,1.26.51l-.27,1.29H834Zm-2.62-8.9H838l1.59-7.11c.29-1.28.56-2.37.81-3.28h-.21l-8.46,10Z"/><path d="M873.29,28.1,857.83,53.53h-4.09l.29-1.35,13.38-19.86.06-.29H859.7a5.21,5.21,0,0,0-1.65.2,2.27,2.27,0,0,0-1,.74,8.07,8.07,0,0,0-1,2H853.7l2-8.11h17.88Z"/><path d="M878.35,47.57,877,53.47h-4.94l1.3-5.9Z"/><path d="M886,33l1.11-4.66A33.56,33.56,0,0,1,891.86,27a21.42,21.42,0,0,1,4.35-.45,10,10,0,0,1,3.42.54A4.82,4.82,0,0,1,902,28.72a4.59,4.59,0,0,1,.86,2.84,6.42,6.42,0,0,1-.56,2.72,7.3,7.3,0,0,1-1.52,2.16,10.54,10.54,0,0,1-2.29,1.69,19.53,19.53,0,0,1-2.85,1.28l0,.25A6.62,6.62,0,0,1,899,41.72a5.21,5.21,0,0,1,1.28,3.51,8.32,8.32,0,0,1-.67,3.35,7.91,7.91,0,0,1-2.09,2.81,8.67,8.67,0,0,1-3.4,1.83,17.81,17.81,0,0,1-4.85.56,19.52,19.52,0,0,1-4.06-.44,17,17,0,0,1-3.56-1.08l1-4.75h3.11q.2,4.1,3.55,4.09a4.31,4.31,0,0,0,2.7-.91,6,6,0,0,0,1.81-2.46,8.42,8.42,0,0,0,.63-3.18,3.76,3.76,0,0,0-1.16-3,5.19,5.19,0,0,0-3.42-1H888.2l.49-2.23a11.05,11.05,0,0,0,4.3-.93,7.17,7.17,0,0,0,3-2.52,6.9,6.9,0,0,0,1.1-3.91,2.88,2.88,0,0,0-.7-2.08,2.7,2.7,0,0,0-2-.73,5.28,5.28,0,0,0-1.28.16,3.56,3.56,0,0,0-1.3.66,5.55,5.55,0,0,0-1.22,1.34A10.1,10.1,0,0,0,889.52,33Z"/><path d="M908.74,33l1.1-4.66A33.67,33.67,0,0,1,914.61,27,21.42,21.42,0,0,1,919,26.5a9.88,9.88,0,0,1,3.41.54,4.8,4.8,0,0,1,2.33,1.68,4.58,4.58,0,0,1,.85,2.84,6.42,6.42,0,0,1-.55,2.72,7.49,7.49,0,0,1-1.52,2.16,10.54,10.54,0,0,1-2.29,1.69,19.53,19.53,0,0,1-2.85,1.28l0,.25a6.66,6.66,0,0,1,3.49,2.06,5.26,5.26,0,0,1,1.28,3.51,8.32,8.32,0,0,1-.67,3.35,7.91,7.91,0,0,1-2.09,2.81,8.71,8.71,0,0,1-3.41,1.83,17.73,17.73,0,0,1-4.84.56,19.61,19.61,0,0,1-4.07-.44,17.38,17.38,0,0,1-3.56-1.08l1-4.75h3.11c.12,2.73,1.31,4.09,3.54,4.09a4.34,4.34,0,0,0,2.71-.91,5.85,5.85,0,0,0,1.8-2.46,8.42,8.42,0,0,0,.63-3.18,3.75,3.75,0,0,0-1.15-3,5.19,5.19,0,0,0-3.42-1H911l.49-2.23a11.09,11.09,0,0,0,4.3-.93,7.23,7.23,0,0,0,3-2.52,6.9,6.9,0,0,0,1.1-3.91,2.88,2.88,0,0,0-.71-2.08,2.66,2.66,0,0,0-2-.73,5.22,5.22,0,0,0-1.28.16,3.49,3.49,0,0,0-1.3.66,5.35,5.35,0,0,0-1.22,1.34A10.1,10.1,0,0,0,912.27,33Z"/><path d="M940.78,26.81h7.37l3.74,11.06q1.53,4.5,2.42,8h.25c.38-2.26.87-4.75,1.48-7.49l1.36-6.26a11.54,11.54,0,0,0,.25-2.29,1.64,1.64,0,0,0-.38-1.2,2.07,2.07,0,0,0-1.23-.5l.27-1.29h7.14l-.27,1.29a3,3,0,0,0-1.26.65,3.18,3.18,0,0,0-.74,1.16,12.4,12.4,0,0,0-.62,2.18l-4.68,21.38h-4.42l-4.65-13.65c-.36-1.07-.69-2.07-1-3s-.63-2.11-1-3.54l-.29,0c-.1.87-.3,2.07-.59,3.6s-.64,3.19-1,5l-1.4,6.37c-.07.34-.12.6-.15.8s-.05.41-.07.63,0,.51,0,.85a1.64,1.64,0,0,0,.38,1.2,2.07,2.07,0,0,0,1.23.5l-.27,1.29h-7.14l.27-1.29a3,3,0,0,0,1.26-.64,3.27,3.27,0,0,0,.74-1.16,12.67,12.67,0,0,0,.62-2.18l3.53-16.11a10.65,10.65,0,0,0,.26-2.29,1.64,1.64,0,0,0-.38-1.2,2.13,2.13,0,0,0-1.24-.5Z"/></svg>