<svg id="Capa_1" data-name="Capa 1" xmlns="http://www.w3.org/2000/svg" viewBox="0 0 430.93 64.53"><path d="M168.59,43.33h-7.83l.21-.92a3.17,3.17,0,0,0,1.08-.29,1.92,1.92,0,0,0,.62-.59,5.23,5.23,0,0,0,.55-1.23c.18-.55.4-1.4.65-2.55l4-18.33h-2.36a4.35,4.35,0,0,0-1.85.33A4.24,4.24,0,0,0,162.27,21a17.22,17.22,0,0,0-1.67,3.07h-1.79l1.39-6.31h19.41l-1.45,6.59h-1.78q0-1.82-.09-2.73a3.8,3.8,0,0,0-.36-1.38,1.41,1.41,0,0,0-.64-.66,3.74,3.74,0,0,0-1.35-.17h-2.75l-4,18.46c-.11.49-.19.87-.23,1.16s-.09.59-.12.91,0,.6,0,.85a1.91,1.91,0,0,0,.18.91,1,1,0,0,0,.56.47,4.51,4.51,0,0,0,1.28.23Z"/><path d="M184,45.29a6.42,6.42,0,0,0-.16,1.24.78.78,0,0,0,.26.65,2,2,0,0,0,.92.35,12.78,12.78,0,0,0,2,.14l-.27,1.2h-9.44l.24-1.2a14.26,14.26,0,0,0,1.84-.14,3.44,3.44,0,0,0,1-.3,1.88,1.88,0,0,0,.6-.52,3,3,0,0,0,.38-1l1.84-8.41a2.76,2.76,0,0,0,.08-.42,1.75,1.75,0,0,0,0-.25.41.41,0,0,0-.15-.38.78.78,0,0,0-.41-.09,3,3,0,0,0-1.09.32c-.5.21-1.18.54-2.05,1L179,36.12l6.58-3h1.06c-.26,1-.52,2.09-.78,3.28Z"/><path d="M374.66,30.7H360.48V28.24h14.18Zm0,6.52H360.48V34.76h14.18Z"/><path d="M101,41.16a3.91,3.91,0,0,1,1.75,1.28,3.19,3.19,0,0,1,.61,1.9,5.38,5.38,0,0,1-.46,2.25,4.52,4.52,0,0,1-1.45,1.74,5.92,5.92,0,0,1-2.27,1.05,13.49,13.49,0,0,1-3.16.31H90.62l.13-.6a1.73,1.73,0,0,0,.7-.24,1.44,1.44,0,0,0,.39-.45,5.11,5.11,0,0,0,.29-.72c.09-.28.23-.82.41-1.63l2.07-9.4a9.4,9.4,0,0,0,.27-1.93,1,1,0,0,0-.28-.83,1.6,1.6,0,0,0-.92-.26l.14-.6h6a9.29,9.29,0,0,1,2.93.38,3.19,3.19,0,0,1,1.63,1.13,3.25,3.25,0,0,1,.52,1.87,4.3,4.3,0,0,1-1,2.79A6.1,6.1,0,0,1,101.05,41Zm-6.86,7.41c.63,0,1.23,0,1.78,0a7,7,0,0,0,2.85-.47,3.64,3.64,0,0,0,1.63-1.51,4.81,4.81,0,0,0,.62-2.52,2.66,2.66,0,0,0-.31-1.34,2.1,2.1,0,0,0-1-.88,4.3,4.3,0,0,0-1.86-.33H95.68Zm3.49-8.07a10.19,10.19,0,0,0,2-.17,3.65,3.65,0,0,0,1.26-.52,4.12,4.12,0,0,0,.87-.8,3.34,3.34,0,0,0,.61-1.08,4.26,4.26,0,0,0,.23-1.46,2.63,2.63,0,0,0-.18-1,1.82,1.82,0,0,0-.63-.78,2.94,2.94,0,0,0-1-.47,7,7,0,0,0-1.54-.14c-.71,0-1.37,0-2,0L95.94,40.5Z"/><path d="M19.42,43.33H11.59l.21-.92a3.17,3.17,0,0,0,1.08-.29,1.92,1.92,0,0,0,.62-.59,5.23,5.23,0,0,0,.55-1.23c.18-.55.4-1.4.65-2.55l4-18.33H16.32a4.27,4.27,0,0,0-1.84.33A4.16,4.16,0,0,0,13.1,21a17.22,17.22,0,0,0-1.67,3.07H9.64L11,17.77H30.45L29,24.36H27.21q0-1.82-.09-2.73a3.61,3.61,0,0,0-.36-1.38,1.41,1.41,0,0,0-.64-.66,3.71,3.71,0,0,0-1.34-.17H22L18,37.88c-.11.49-.19.87-.23,1.16s-.08.59-.11.91a6.73,6.73,0,0,0,0,.85,1.79,1.79,0,0,0,.19.91,1,1,0,0,0,.55.47,4.51,4.51,0,0,0,1.28.23Z"/><path d="M34.18,46.75a2.65,2.65,0,0,0,1-.14,1.52,1.52,0,0,0,.6-.46,4.91,4.91,0,0,0,.59-1h1.43l-1,3.71H26.43l.19-.86a23.46,23.46,0,0,1,5.18-5.54l1.68-1.41a21.63,21.63,0,0,0,1.78-1.65,6.79,6.79,0,0,0,.91-1.16,4,4,0,0,0,.45-1,4.27,4.27,0,0,0,.13-1,1.67,1.67,0,0,0-.61-1.36,2.63,2.63,0,0,0-1.72-.49,3.1,3.1,0,0,0-1.91.58,4.13,4.13,0,0,0-1.26,1.61H29.33L29.89,34a16.36,16.36,0,0,1,5.3-1,6.09,6.09,0,0,1,1.92.27,3.92,3.92,0,0,1,1.33.72,2.69,2.69,0,0,1,.76,1A2.64,2.64,0,0,1,39.44,36,4.39,4.39,0,0,1,39,38a7.07,7.07,0,0,1-1.5,1.9Q36.43,41,33.87,43a33.54,33.54,0,0,0-4.15,3.78Z"/><path d="M53.09,37.52,53.65,35H69.08l-.56,2.52Zm1.69-7.77.56-2.53H70.77l-.56,2.53Z"/><path d="M84.66,43.65a14.61,14.61,0,0,1-1.74,4.75,6.61,6.61,0,0,1-2.69,2.53,8.72,8.72,0,0,1-3.83.77,5.44,5.44,0,0,1-1.46-.19l.42-1.65a4.31,4.31,0,0,0,1.3.15,4.27,4.27,0,0,0,1.61-.26,3.27,3.27,0,0,0,1.15-.85,6.16,6.16,0,0,0,1-1.73,18.06,18.06,0,0,0,.9-3l3.78-16.87H82.86l.22-1a4.64,4.64,0,0,0,1.28-.25,1.72,1.72,0,0,0,.61-.43,2.61,2.61,0,0,0,.41-.77q.2-.5.54-1.71a10,10,0,0,1,3-5.07,8,8,0,0,1,5.24-1.69,14.36,14.36,0,0,1,3.14.3l-.73,3.18H95a3.65,3.65,0,0,0-.68-1.53,1.55,1.55,0,0,0-1.24-.47,2.82,2.82,0,0,0-1.8.58A4.49,4.49,0,0,0,90,20.25a16.6,16.6,0,0,0-1,3.14l-.47,2H92.8l-.41,1.89H88.12Z"/><path d="M131.68,42.1V35.16h-6.89v-2.9h6.89V25.38h2.93v6.88h6.89v2.9h-6.89V42.1Z"/><path d="M211,42.14V35.2h-6.89V32.3H211V25.41h2.93V32.3h6.89v2.9H213.9v6.94Z"/><path d="M250,40.06a60.09,60.09,0,0,0,4.64-7.64,12.88,12.88,0,0,0,1.6-5.31,1.61,1.61,0,0,0-.39-1.26,2.25,2.25,0,0,0-1.33-.4l.19-1h5.05l.53,1c-.46,1.17-.82,2.07-1.1,2.7s-.63,1.39-1.07,2.28-.92,1.77-1.41,2.65S255.62,35,255,36s-1.43,2.2-2.26,3.44-1.82,2.64-3,4.19H247.4l-.8-8.24q-.09-1-.21-2.52c-.07-1-.12-1.84-.14-2.4l-.22,0a49.17,49.17,0,0,1-2.87,5.83q-1.83,3.21-4.5,7.35H236L234.55,28.8a13.47,13.47,0,0,0-.3-1.85,2,2,0,0,0-.58-1.06,2.36,2.36,0,0,0-1.35-.44l.21-1h5.13L238.83,40q2.76-4.55,4-6.9a30.19,30.19,0,0,0,1.81-4.09,21.07,21.07,0,0,0,.9-3.6l.22-1h2.82Z"/><path d="M268,41.16a3.91,3.91,0,0,1,1.75,1.28,3.19,3.19,0,0,1,.61,1.9,5.38,5.38,0,0,1-.46,2.25,4.52,4.52,0,0,1-1.45,1.74,5.92,5.92,0,0,1-2.27,1.05,13.49,13.49,0,0,1-3.16.31H257.6l.13-.6a1.73,1.73,0,0,0,.7-.24,1.44,1.44,0,0,0,.39-.45,5.11,5.11,0,0,0,.29-.72c.09-.28.23-.82.41-1.63l2.07-9.4a9.4,9.4,0,0,0,.27-1.93,1,1,0,0,0-.28-.83,1.6,1.6,0,0,0-.92-.26l.14-.6h6a9.41,9.41,0,0,1,2.94.38,3.2,3.2,0,0,1,1.62,1.13,3.25,3.25,0,0,1,.52,1.87,4.3,4.3,0,0,1-1,2.79A6.12,6.12,0,0,1,268,41Zm-6.86,7.41c.64,0,1.23,0,1.78,0a7,7,0,0,0,2.85-.47,3.64,3.64,0,0,0,1.63-1.51,4.81,4.81,0,0,0,.63-2.52,2.66,2.66,0,0,0-.32-1.34,2.12,2.12,0,0,0-1-.88,4.38,4.38,0,0,0-1.87-.33h-2.21Zm3.49-8.07a10.19,10.19,0,0,0,2.05-.17,3.65,3.65,0,0,0,1.26-.52,3.89,3.89,0,0,0,.87-.8,3.34,3.34,0,0,0,.61-1.08,4.26,4.26,0,0,0,.23-1.46,2.63,2.63,0,0,0-.18-1,1.82,1.82,0,0,0-.63-.78,2.94,2.94,0,0,0-1-.47,7,7,0,0,0-1.54-.14c-.71,0-1.37,0-2,0l-1.38,6.36Z"/><path d="M407.66,36.4a59.15,59.15,0,0,0,4.65-7.64,12.88,12.88,0,0,0,1.6-5.31,1.61,1.61,0,0,0-.39-1.26,2.28,2.28,0,0,0-1.33-.4l.19-1h5.05l.53,1c-.46,1.17-.82,2.07-1.1,2.7s-.63,1.39-1.07,2.28-.92,1.77-1.41,2.65-1.08,1.85-1.75,2.91-1.43,2.2-2.26,3.44-1.82,2.64-3,4.19h-2.33l-.8-8.24c-.07-.64-.13-1.48-.21-2.52s-.12-1.84-.14-2.4l-.22,0a49.93,49.93,0,0,1-2.87,5.83Q399,35.84,396.33,40h-2.62l-1.48-14.84a13.47,13.47,0,0,0-.3-1.85,2,2,0,0,0-.58-1.06,2.36,2.36,0,0,0-1.35-.44l.21-1h5.13l1.17,15.55q2.76-4.55,4-6.9a30.19,30.19,0,0,0,1.81-4.09,21.07,21.07,0,0,0,.9-3.6l.22-1h2.82Z"/><path d="M429.22,29.79l-.73,3.31h-1.17a3.78,3.78,0,0,0-.66-2.16,2.18,2.18,0,0,0-1.79-.67,3.4,3.4,0,0,0-1.92.6,6.64,6.64,0,0,0-1.71,1.75,12.42,12.42,0,0,0-1.41,2.67,18.33,18.33,0,0,0-.91,3.13,14.21,14.21,0,0,0-.32,2.87,5.25,5.25,0,0,0,.65,2.93,2.34,2.34,0,0,0,2.05.93,4.36,4.36,0,0,0,1.6-.27,3.77,3.77,0,0,0,1.28-.93,8.16,8.16,0,0,0,1.18-1.83h1.17l-.74,3.47a17.18,17.18,0,0,1-2.41.49,18.45,18.45,0,0,1-2.38.14,5,5,0,0,1-2.57-.62,4,4,0,0,1-1.6-1.82,6.93,6.93,0,0,1-.54-2.87,11.83,11.83,0,0,1,.12-1.7,21,21,0,0,1,.47-2.24,14.6,14.6,0,0,1,1-2.73,12.1,12.1,0,0,1,1.5-2.31,8.56,8.56,0,0,1,1.72-1.55,7.34,7.34,0,0,1,1.85-.89,6.89,6.89,0,0,1,2.1-.32,14.46,14.46,0,0,1,2.05.14A14.77,14.77,0,0,1,429.22,29.79Z"/><path d="M336.83,40.14q-5.44,0-5.44-6.89a24,24,0,0,1,3.18-11.7q3.18-5.76,8.07-5.76,5.12,0,5.12,6.75a24.74,24.74,0,0,1-3.1,11.79C342.58,38.2,340,40.14,336.83,40.14ZM335.1,28.28a29.26,29.26,0,0,0-.9,6.48q0,3.95,3,4,2.1,0,3.84-2.76a25.41,25.41,0,0,0,2.89-7.67Zm.43-1.61h8.72a33.48,33.48,0,0,0,.66-5.57c0-2.58-.87-3.88-2.61-3.88q-2,0-3.75,2.46A22.25,22.25,0,0,0,335.53,26.67Z"/><path d="M290.85,27.31a3.78,3.78,0,0,0-.87-2.23,2.9,2.9,0,0,0-2.13-.69,3.39,3.39,0,0,0-1.45.3,2.32,2.32,0,0,0-1,.87A2.39,2.39,0,0,0,285,26.9a2.56,2.56,0,0,0,.26,1.15,3.91,3.91,0,0,0,.85,1.09,14.72,14.72,0,0,0,1.69,1.3,8,8,0,0,1,2.31,2.15,4.42,4.42,0,0,1,.66,2.41,4.74,4.74,0,0,1-.76,2.73,4.6,4.6,0,0,1-2.09,1.66,7.66,7.66,0,0,1-3,.55,16.44,16.44,0,0,1-2.79-.22,25.63,25.63,0,0,1-2.52-.57l.8-3.69h1.32a3.59,3.59,0,0,0,.9,2.35,3,3,0,0,0,2.24.78,3.38,3.38,0,0,0,2.36-.76,2.56,2.56,0,0,0,.85-2,3.19,3.19,0,0,0-.25-1.31,3.54,3.54,0,0,0-.8-1.11,11.33,11.33,0,0,0-1.55-1.22,13.37,13.37,0,0,1-1.73-1.38,5,5,0,0,1-1-1.43,3.9,3.9,0,0,1-.37-1.72,4.31,4.31,0,0,1,.7-2.46,4.41,4.41,0,0,1,2-1.59,7.72,7.72,0,0,1,3-.54,15.2,15.2,0,0,1,4.94.73l-.78,3.52Z"/><path d="M306.73,36.27a14.12,14.12,0,0,1-2.41,2.18A8,8,0,0,1,302,39.6a8.77,8.77,0,0,1-2.54.34,5.63,5.63,0,0,1-2.31-.44,4.36,4.36,0,0,1-1.6-1.19,4.81,4.81,0,0,1-.94-1.81,7.91,7.91,0,0,1-.31-2.28,13.44,13.44,0,0,1,.65-3.93,11.68,11.68,0,0,1,2-3.76A9.26,9.26,0,0,1,300.11,24a8.8,8.8,0,0,1,3.94-.91,4.78,4.78,0,0,1,3.08.84,3.15,3.15,0,0,1,1,2.61,4.67,4.67,0,0,1-2.71,4.36q-2.7,1.45-8,1.45a11.16,11.16,0,0,0-.21,2.22,3.94,3.94,0,0,0,.7,2.61,2.84,2.84,0,0,0,2.27.81,6,6,0,0,0,2.84-.68,11.91,11.91,0,0,0,2.66-2.1Zm-9-5.42a21.6,21.6,0,0,0,2.75-.18,11.3,11.3,0,0,0,2-.45,5.14,5.14,0,0,0,1.41-.67,3.66,3.66,0,0,0,.89-.86,3,3,0,0,0,.46-1,4.34,4.34,0,0,0,.13-1.09,2.46,2.46,0,0,0-.49-1.63,1.75,1.75,0,0,0-1.43-.59,3.86,3.86,0,0,0-2.33.86,7.88,7.88,0,0,0-2,2.33A13,13,0,0,0,297.7,30.85Z"/><path d="M324.8,39.67h-5.34L321.61,31c.14-.56.27-1.18.4-1.85a9.69,9.69,0,0,0,.2-1.81,2.81,2.81,0,0,0-.42-1.74,1.53,1.53,0,0,0-1.3-.53,2.78,2.78,0,0,0-1.53.55,8.2,8.2,0,0,0-1.72,1.66,14.06,14.06,0,0,0-1.52,2.24,9.79,9.79,0,0,0-1,2.76l-1.55,7.4h-2.93L312.86,28c.05-.27.13-.66.23-1.17a7.72,7.72,0,0,0,.14-1.28,1.62,1.62,0,0,0-.14-.74.9.9,0,0,0-.49-.4,4.9,4.9,0,0,0-1.18-.17l.2-.91,3.85-.16h1l-1.14,4.45.2.07a15.11,15.11,0,0,1,3.21-3.5,5.17,5.17,0,0,1,3.09-1.13,3.21,3.21,0,0,1,2.49.91,3.83,3.83,0,0,1,.85,2.71A8.14,8.14,0,0,1,325,28q-.11.72-.24,1.29l-1.43,6.08a9.24,9.24,0,0,0-.29,2,1.68,1.68,0,0,0,.17.81,1.11,1.11,0,0,0,.53.44,4.65,4.65,0,0,0,1.17.24Z"/></svg>