<svg id="Capa_1" data-name="Capa 1" xmlns="http://www.w3.org/2000/svg" xmlns:xlink="http://www.w3.org/1999/xlink" viewBox="0 0 248.28 201"><defs><linearGradient id="Degradado_sin_nombre_16" x1="197.19" y1="124.03" x2="195.76" y2="159.93" gradientUnits="userSpaceOnUse"><stop offset="0" stop-color="#0c679d" stop-opacity="0.1"/><stop offset="1" stop-color="#006098"/></linearGradient></defs><polygon points="183.61 153.22 183.61 121.6 209.69 121.6 209.69 153.57 183.61 153.22" style="opacity:0.44;fill:url(#Degradado_sin_nombre_16)"/><path d="M182,154.17v33.22S201.13,196.85,212,186V155Z" style="fill:#006098;stroke:#61c5ff;stroke-miterlimit:10"/><ellipse cx="197.06" cy="154.08" rx="14.89" ry="4.15" style="fill:#006098;stroke:#61c5ff;stroke-miterlimit:10"/><line x1="196.78" y1="53" x2="196.78" y2="146.57" style="fill:none;stroke:#3d3d3d;stroke-miterlimit:10;stroke-width:2px"/><line x1="117.6" y1="37.42" x2="187.98" y2="37.42" style="fill:none;stroke:#3d3d3d;stroke-miterlimit:10;stroke-width:2px"/><circle cx="187.88" cy="49.78" r="12.98" style="fill:#c9c9c9;stroke:#000;stroke-miterlimit:10;stroke-width:0.75px"/><rect x="156.75" y="43.78" width="11.08" height="22.43" style="fill:#c9c9c9;stroke:#000;stroke-miterlimit:10;stroke-width:0.75px"/><polygon points="118.44 57.33 128.03 67.53 118.18 63.43 118.44 57.33" style="fill:#e5a44d;stroke:#965b0c;stroke-miterlimit:10"/><polygon points="168.37 63.01 168.36 63.01 160.59 104.01 176.02 104.01 168.37 63.01" style="fill:#848484;stroke:#000;stroke-miterlimit:10;stroke-width:0.75px"/><polygon points="164.84 63.01 12.02 63.01 12.36 104.01 148.72 104.01 156.75 63.08 164.84 63.01" style="fill:#c9c9c9;stroke:#000;stroke-miterlimit:10;stroke-width:0.75px"/><polygon points="148.72 104.03 160.58 104.04 160.59 104.01 148.72 104.01 148.72 104.03" style="fill:#aaa"/><polygon points="168.36 62.97 164.84 63.01 168.36 63.01 168.36 62.97" style="fill:#aaa"/><polygon points="164.84 63.01 156.75 63.08 148.72 104.01 160.59 104.01 168.36 63.01 164.84 63.01" style="fill:#aaa;stroke:#000;stroke-miterlimit:10;stroke-width:0.75px"/><rect x="16.97" y="104.08" width="12.77" height="21.16" style="fill:#c9c9c9;stroke:#000;stroke-miterlimit:10;stroke-width:0.75px"/><rect x="33.51" y="104.08" width="12.77" height="21.16" style="fill:#bcbcbc;stroke:#000;stroke-miterlimit:10;stroke-width:0.75px"/><rect x="146.97" y="104.08" width="12.77" height="21.16" style="fill:#c9c9c9;stroke:#000;stroke-miterlimit:10;stroke-width:0.75px"/><rect x="163.51" y="104.08" width="12.77" height="21.16" style="fill:#bcbcbc;stroke:#000;stroke-miterlimit:10;stroke-width:0.75px"/><ellipse cx="58.54" cy="55.74" rx="6.57" ry="3.89" style="fill:#777"/><ellipse cx="118.4" cy="55.62" rx="3.89" ry="6.57" transform="translate(54.16 169.56) rotate(-85.75)" style="fill:#777"/><polygon points="114.92 89.04 51.78 88.67 57.18 57.71 118.49 57.71 114.92 89.04" style="fill:#e5a44d;stroke:#965b0c;stroke-miterlimit:10"/><rect x="57.22" y="34.52" width="61.24" height="23.46" style="fill:#e5a44d;stroke:#965b0c;stroke-miterlimit:10"/><path d="M168,46h19.74a3.52,3.52,0,0,1,3.52,3.52v0A3.52,3.52,0,0,1,187.76,53H168a0,0,0,0,1,0,0V46A0,0,0,0,1,168,46Z" style="fill:#c9c9c9;stroke:#000;stroke-miterlimit:10;stroke-width:0.75px"/><circle cx="187.63" cy="49.39" r="2.02" style="fill:#fff"/><path d="M191.51,153.51s.66-6.41,6-6,5,6,5,6" style="fill:none;stroke:#3d3d3d;stroke-miterlimit:10;stroke-width:2px"/><circle cx="161.88" cy="48.43" r="1.88" style="fill:#0c679d"/><circle cx="161.88" cy="55.09" r="1.88" style="fill:#0c679d"/><path d="M78.62,13.6h3.31l-.33,1.58a5.78,5.78,0,0,1,4.06-1.89,3.72,3.72,0,0,1,2.27.61,2.79,2.79,0,0,1,1,1.7A5.14,5.14,0,0,1,90.89,14a5.57,5.57,0,0,1,2.62-.66,3.37,3.37,0,0,1,2.42.83,2.94,2.94,0,0,1,.87,2.21,13.21,13.21,0,0,1-.34,2.33l-1.67,8H91.28l1.66-7.95A16.84,16.84,0,0,0,93.25,17a1.13,1.13,0,0,0-.32-.85,1.38,1.38,0,0,0-1-.32,2.94,2.94,0,0,0-2.34,1.39,9.29,9.29,0,0,0-1.27,3.52l-1.24,5.9H83.58l1.64-7.87A11.06,11.06,0,0,0,85.5,17a1.15,1.15,0,0,0-.34-.85,1.37,1.37,0,0,0-1-.33,2.45,2.45,0,0,0-1.19.35,3.65,3.65,0,0,0-1.07.94,5.82,5.82,0,0,0-.79,1.54c-.1.3-.26,1-.48,2l-1.25,6H75.9Z"/><path d="M98.64,22l.3-1.4a9.44,9.44,0,0,0,3.12-2.05h1l-1.69,8H99.76l1.16-5.53a7.43,7.43,0,0,1-1.13.58A8.34,8.34,0,0,1,98.64,22Z"/><path d="M147.21,165.25h3.31l-.33,1.58a5.81,5.81,0,0,1,4.07-1.89,3.65,3.65,0,0,1,2.27.62,2.68,2.68,0,0,1,1,1.69,5.19,5.19,0,0,1,1.94-1.64,5.49,5.49,0,0,1,2.62-.67,3.35,3.35,0,0,1,2.43.84,2.9,2.9,0,0,1,.87,2.2,13.21,13.21,0,0,1-.34,2.33l-1.67,8h-3.52l1.67-8c.2-1,.31-1.56.31-1.69a1.11,1.11,0,0,0-.33-.85,1.35,1.35,0,0,0-1-.31,2.9,2.9,0,0,0-2.34,1.38,9.33,9.33,0,0,0-1.28,3.52l-1.24,5.91h-3.51l1.64-7.87a11.29,11.29,0,0,0,.28-1.77,1.12,1.12,0,0,0-.35-.84,1.33,1.33,0,0,0-1-.33,2.4,2.4,0,0,0-1.19.34,3.41,3.41,0,0,0-1.07.94,5.47,5.47,0,0,0-.79,1.55c-.1.29-.26,1-.48,2l-1.25,6h-3.52Z"/><path d="M168.86,172.77l-1.53-.23a2.75,2.75,0,0,1,.86-1.7,2.48,2.48,0,0,1,1.7-.59,2.43,2.43,0,0,1,1.75.6,2,2,0,0,1,.64,1.54,2.51,2.51,0,0,1-.19,1,4,4,0,0,1-.65,1q-.31.36-1.05,1c-.48.45-.81.76-1,.92s-.31.34-.46.53h2.77l-.3,1.43h-4.85a3.33,3.33,0,0,1,.35-1.12,4.42,4.42,0,0,1,.67-1c.27-.31.76-.8,1.47-1.48.54-.51.88-.85,1-1a3,3,0,0,0,.53-.73,1.48,1.48,0,0,0,.14-.56.92.92,0,0,0-.24-.66.82.82,0,0,0-.6-.25.92.92,0,0,0-.65.28A2.13,2.13,0,0,0,168.86,172.77Z"/></svg>