<svg id="Capa_1" data-name="Capa 1" xmlns="http://www.w3.org/2000/svg" viewBox="0 0 498.72 165.72"><polygon points="115.44 55.4 163.07 83.9 114.56 110.9 66.06 137.9 66.93 82.4 67.8 26.89 115.44 55.4" style="fill:none;stroke:#006098;stroke-miterlimit:10;stroke-width:3px"/><line x1="161.41" y1="83.58" x2="67.74" y2="83.58" style="fill:none;stroke:#006098;stroke-miterlimit:10;stroke-width:3px"/><path d="M104.39,109.17c-4.92-9.3-13.11-31.23,5.93-50" style="fill:none;stroke:#006098;stroke-miterlimit:10;stroke-width:0.75px"/><polygon points="107.12 113.71 105.96 105.73 104.23 108.8 100.71 108.82 107.12 113.71" style="fill:#006098"/><path d="M113.68,56.13a22.56,22.56,0,0,0-2.29,7l-1.47-3.5-3.37-1.75A22.73,22.73,0,0,0,113.68,56.13Z" style="fill:#006098"/><path d="M88.3,93.1s-6.12,14.64-11.44,11.71,5.59-9,13.83-2.13" style="fill:none;stroke:#965b0c;stroke-miterlimit:10;stroke-width:0.75px"/><path d="M87.8,77.49l1.8-2.1-1-2h.79l.35.74c.13.28.25.54.35.79l1.19-1.53h.87l-1.74,2.1,1,2h-.78l-.41-.84c-.09-.18-.19-.41-.3-.67l-1.24,1.51Z"/><path d="M42.79,66.39l1.52-7.27a7.53,7.53,0,0,1-2.77,1.24l.22-1.07a9.86,9.86,0,0,0,1.75-.93,9.11,9.11,0,0,0,1.3-1,4.31,4.31,0,0,0,.5-.64H46l-2,9.66Z"/><path d="M47.8,66.39,48.08,65h1.35l-.29,1.35Z"/><path d="M51.71,63.23a9,9,0,0,1,.36-2.48,8.51,8.51,0,0,1,.81-2,4.76,4.76,0,0,1,.93-1.18,3.36,3.36,0,0,1,.94-.63,2.61,2.61,0,0,1,1-.2,2.35,2.35,0,0,1,1.84.82,3.4,3.4,0,0,1,.74,2.37,10.08,10.08,0,0,1-.51,3.15,6,6,0,0,1-1.68,2.78,2.81,2.81,0,0,1-1.88.7,2.34,2.34,0,0,1-1.83-.85A3.68,3.68,0,0,1,51.71,63.23Zm1.15.3a2.74,2.74,0,0,0,.29,1.39,1.29,1.29,0,0,0,1.19.69A1.66,1.66,0,0,0,55.59,65a5.66,5.66,0,0,0,1.22-2.57,12,12,0,0,0,.41-2.77,2.32,2.32,0,0,0-.39-1.5,1.36,1.36,0,0,0-1-.46,1.71,1.71,0,0,0-.88.24,2.46,2.46,0,0,0-.78.84,8,8,0,0,0-.93,2.49A10.59,10.59,0,0,0,52.86,63.53Z"/><path d="M42.47,118.44,44,111.18a7.53,7.53,0,0,1-2.77,1.24l.23-1.08a9.12,9.12,0,0,0,1.74-.92,8.38,8.38,0,0,0,1.3-1,4.2,4.2,0,0,0,.5-.63h.69l-2,9.65Z"/><path d="M47.48,118.44l.28-1.34h1.35l-.29,1.34Z"/><path d="M51.39,115.29a9,9,0,0,1,.36-2.48,9.8,9.8,0,0,1,.81-2,5.16,5.16,0,0,1,.93-1.18,3.54,3.54,0,0,1,.94-.62,2.46,2.46,0,0,1,1-.2,2.41,2.41,0,0,1,1.84.81A3.45,3.45,0,0,1,58,112a10.1,10.1,0,0,1-.51,3.16,6,6,0,0,1-1.68,2.77,2.81,2.81,0,0,1-1.88.7,2.36,2.36,0,0,1-1.83-.84A3.68,3.68,0,0,1,51.39,115.29Zm1.15.3a2.78,2.78,0,0,0,.29,1.38,1.3,1.3,0,0,0,1.19.69,1.67,1.67,0,0,0,1.25-.62,5.86,5.86,0,0,0,1.23-2.58,12.48,12.48,0,0,0,.41-2.77,2.27,2.27,0,0,0-.4-1.49,1.31,1.31,0,0,0-1-.46,1.71,1.71,0,0,0-.88.24,2.52,2.52,0,0,0-.78.83,8.21,8.21,0,0,0-.93,2.5A10.51,10.51,0,0,0,52.54,115.59Z"/><path d="M114.8,37.44l1.52-7.26a7.4,7.4,0,0,1-2.76,1.24l.22-1.08a9.5,9.5,0,0,0,1.75-.92,8.72,8.72,0,0,0,1.29-1,3.65,3.65,0,0,0,.5-.63H118l-2,9.65Z"/><path d="M119.81,37.44l.29-1.34h1.34l-.29,1.34Z"/><path d="M123.56,37.44a5,5,0,0,1,.51-1.44,4.57,4.57,0,0,1,.86-1.1c.36-.35,1-.93,2.07-1.75a14.12,14.12,0,0,0,1.27-1.09,3.81,3.81,0,0,0,.72-1,1.73,1.73,0,0,0,.15-.73,1.53,1.53,0,0,0-.47-1.12,1.55,1.55,0,0,0-1.15-.46,1.65,1.65,0,0,0-1.18.47,2.71,2.71,0,0,0-.72,1.5l-1.16-.17a3.17,3.17,0,0,1,1-2,3,3,0,0,1,2-.73,3.2,3.2,0,0,1,1.49.34,2.3,2.3,0,0,1,1,.95,2.71,2.71,0,0,1,.33,1.28,3,3,0,0,1-.68,1.84,17.74,17.74,0,0,1-2.47,2.17,15.86,15.86,0,0,0-1.31,1.14,4.25,4.25,0,0,0-.64.84h4.3l-.23,1.09Z"/><path d="M131.18,34.69l1.21-.12c0,.17,0,.28,0,.31a1.94,1.94,0,0,0,.22.88,1.61,1.61,0,0,0,.59.67,1.54,1.54,0,0,0,.8.23,2,2,0,0,0,1.12-.38,2.72,2.72,0,0,0,.93-1.11,3.35,3.35,0,0,0,.35-1.44,1.74,1.74,0,0,0-.48-1.29,1.63,1.63,0,0,0-1.25-.49,2,2,0,0,0-1,.25,3.11,3.11,0,0,0-.86.75l-1-.07L133.23,28h4.7L137.7,29h-3.65l-.72,2.45a3.18,3.18,0,0,1,.83-.44,2.68,2.68,0,0,1,.89-.15,2.42,2.42,0,0,1,1.81.73,2.73,2.73,0,0,1,.7,2,4.45,4.45,0,0,1-.48,2.05,3.5,3.5,0,0,1-1.34,1.43,3.45,3.45,0,0,1-1.83.5,2.81,2.81,0,0,1-1.46-.37,2.39,2.39,0,0,1-1-1,3,3,0,0,1-.31-1.31Z"/><path d="M110.8,135.44l1.52-7.26a7.4,7.4,0,0,1-2.76,1.24l.22-1.08a9.5,9.5,0,0,0,1.75-.92,8.72,8.72,0,0,0,1.29-1,3.65,3.65,0,0,0,.5-.63H114l-2,9.65Z"/><path d="M115.81,135.44l.29-1.34h1.34l-.29,1.34Z"/><path d="M119.56,135.44a5,5,0,0,1,.51-1.44,4.57,4.57,0,0,1,.86-1.1c.36-.35,1-.93,2.07-1.75a14.12,14.12,0,0,0,1.27-1.09,3.81,3.81,0,0,0,.72-1,1.73,1.73,0,0,0,.15-.73,1.53,1.53,0,0,0-.47-1.12,1.55,1.55,0,0,0-1.15-.46,1.65,1.65,0,0,0-1.18.47,2.71,2.71,0,0,0-.72,1.5l-1.16-.17a3.17,3.17,0,0,1,1-2,3,3,0,0,1,2-.73,3.2,3.2,0,0,1,1.49.34,2.3,2.3,0,0,1,1,1,2.71,2.71,0,0,1,.33,1.28,3,3,0,0,1-.68,1.84,17.74,17.74,0,0,1-2.47,2.17,15.86,15.86,0,0,0-1.31,1.14,4.25,4.25,0,0,0-.64.84h4.3l-.23,1.09Z"/><path d="M127.18,132.69l1.21-.12c0,.17,0,.28,0,.31a1.94,1.94,0,0,0,.22.88,1.61,1.61,0,0,0,.59.67,1.54,1.54,0,0,0,.8.23,2,2,0,0,0,1.12-.38,2.72,2.72,0,0,0,.93-1.11,3.35,3.35,0,0,0,.35-1.44,1.74,1.74,0,0,0-.48-1.29,1.63,1.63,0,0,0-1.25-.49,2,2,0,0,0-1,.25,3.11,3.11,0,0,0-.86.75l-1-.07,1.45-4.92h4.7L133.7,127h-3.65l-.72,2.45a3.18,3.18,0,0,1,.83-.44,2.68,2.68,0,0,1,.89-.15,2.42,2.42,0,0,1,1.81.73,2.73,2.73,0,0,1,.7,2,4.45,4.45,0,0,1-.48,2,3.5,3.5,0,0,1-1.34,1.43,3.45,3.45,0,0,1-1.83.5,2.81,2.81,0,0,1-1.46-.37,2.39,2.39,0,0,1-1-1,3,3,0,0,1-.31-1.31Z"/><path d="M113.82,73.67a9.84,9.84,0,0,1,.4-2.75,10,10,0,0,1,.9-2.24,5.32,5.32,0,0,1,1-1.3,3.88,3.88,0,0,1,1-.7,2.79,2.79,0,0,1,1.14-.22,2.63,2.63,0,0,1,2,.91,3.76,3.76,0,0,1,.82,2.62,11.1,11.1,0,0,1-.57,3.5,6.74,6.74,0,0,1-1.86,3.08,3.14,3.14,0,0,1-2.09.78,2.59,2.59,0,0,1-2-.94A4,4,0,0,1,113.82,73.67Zm1.27.33a3,3,0,0,0,.33,1.54,1.42,1.42,0,0,0,1.32.76,1.87,1.87,0,0,0,1.39-.69,6.32,6.32,0,0,0,1.35-2.85,14,14,0,0,0,.46-3.08A2.56,2.56,0,0,0,119.5,68a1.47,1.47,0,0,0-1.16-.51,1.88,1.88,0,0,0-1,.27,2.63,2.63,0,0,0-.87.93,9.2,9.2,0,0,0-1,2.76A12.06,12.06,0,0,0,115.09,74Z"/><line x1="115.22" y1="71.63" x2="120.15" y2="72.31" style="fill:none;stroke:#000;stroke-miterlimit:10"/><path d="M111.34,98a9.84,9.84,0,0,1,.4-2.75,9.68,9.68,0,0,1,.9-2.23,5.2,5.2,0,0,1,1-1.31,3.88,3.88,0,0,1,1-.7,2.79,2.79,0,0,1,1.14-.22,2.63,2.63,0,0,1,2,.91,3.78,3.78,0,0,1,.82,2.62,11.1,11.1,0,0,1-.57,3.5,6.74,6.74,0,0,1-1.86,3.08,3.14,3.14,0,0,1-2.09.78,2.59,2.59,0,0,1-2-.94A4,4,0,0,1,111.34,98Zm1.27.33a3,3,0,0,0,.33,1.54,1.42,1.42,0,0,0,1.32.76,1.85,1.85,0,0,0,1.39-.69A6.32,6.32,0,0,0,117,97.09a13.39,13.39,0,0,0,.46-3.08,2.56,2.56,0,0,0-.44-1.66,1.47,1.47,0,0,0-1.16-.51,1.88,1.88,0,0,0-1,.27A2.63,2.63,0,0,0,114,93a9.2,9.2,0,0,0-1,2.76A12.06,12.06,0,0,0,112.61,98.33Z"/><line x1="112.74" y1="95.96" x2="117.67" y2="96.64" style="fill:none;stroke:#000;stroke-miterlimit:10"/><path d="M353.6,95.91s-6.12,14.63-11.45,11.71,5.59-9.05,13.84-2.13" style="fill:none;stroke:#965b0c;stroke-miterlimit:10;stroke-width:2px"/><path d="M211.94,57.45l3.76-4.39-2.16-4.26h1.63l.73,1.54c.28.58.52,1.13.74,1.66l2.49-3.2h1.8l-3.63,4.38,2.18,4.27h-1.63L217,55.69c-.19-.37-.4-.84-.63-1.39l-2.57,3.15Z"/><path d="M234.33,50.43h-7.89V49.06h7.89Zm0,3.63h-7.89V52.69h7.89Z"/><path d="M372.68,47.43h-7.89V46.06h7.89Zm0,3.63h-7.89V49.69h7.89Z"/><path d="M322.19,101.4H314.3V100h7.89Zm0,3.63H314.3v-1.37h7.89Z"/><polyline points="241.94 57.59 248.54 63.86 254.15 34.5 354.77 34.5 354.11 48.36" style="fill:none;stroke:#000;stroke-miterlimit:10"/><path d="M267.18,54.75l2.05-9.81a10.13,10.13,0,0,1-3.73,1.68l.3-1.46a12.23,12.23,0,0,0,2.36-1.25,12.48,12.48,0,0,0,1.75-1.34,5.13,5.13,0,0,0,.67-.86h.93l-2.72,13Z"/><path d="M273.89,54.75l.38-1.82h1.82l-.33,1.59a4.33,4.33,0,0,1-.93,2.09,2.42,2.42,0,0,1-1.49.76l.15-.7c.7-.2,1.16-.84,1.39-1.92Z"/><path d="M279,54.75a7.26,7.26,0,0,1,.69-2,6.39,6.39,0,0,1,1.17-1.49c.48-.46,1.41-1.25,2.79-2.36a17.39,17.39,0,0,0,1.72-1.48,4.69,4.69,0,0,0,1-1.35,2.45,2.45,0,0,0,.2-1,2,2,0,0,0-.63-1.52,2.12,2.12,0,0,0-1.56-.63,2.25,2.25,0,0,0-1.59.64,3.75,3.75,0,0,0-1,2l-1.57-.23a4.24,4.24,0,0,1,1.34-2.72,4,4,0,0,1,2.77-1,4.27,4.27,0,0,1,2,.46,3.12,3.12,0,0,1,1.35,1.29,3.5,3.5,0,0,1,.46,1.72,4.07,4.07,0,0,1-.92,2.49,24.66,24.66,0,0,1-3.33,2.93,18.8,18.8,0,0,0-1.77,1.54,5.31,5.31,0,0,0-.87,1.14h5.81l-.31,1.47Z"/><path d="M289.3,51l1.63-.16c0,.23,0,.37,0,.41a2.58,2.58,0,0,0,.3,1.18,2.1,2.1,0,0,0,.8.91,2,2,0,0,0,1.08.31,2.73,2.73,0,0,0,1.51-.51,3.61,3.61,0,0,0,1.25-1.5,4.38,4.38,0,0,0,.48-2,2.38,2.38,0,0,0-.64-1.74,2.25,2.25,0,0,0-1.69-.66,2.76,2.76,0,0,0-1.32.34,3.76,3.76,0,0,0-1.17,1l-1.4-.1,2-6.64h6.34l-.31,1.47h-4.93l-1,3.3a4.54,4.54,0,0,1,1.13-.59,3.5,3.5,0,0,1,1.19-.2,3.25,3.25,0,0,1,2.45,1,3.69,3.69,0,0,1,1,2.69,5.86,5.86,0,0,1-.66,2.76,4.76,4.76,0,0,1-1.8,1.94A4.82,4.82,0,0,1,293,55a3.78,3.78,0,0,1-2-.51,3.1,3.1,0,0,1-1.29-1.39,4,4,0,0,1-.43-1.77C289.29,51.24,289.29,51.15,289.3,51Z"/><path d="M299.47,48.26a4.49,4.49,0,0,1,.94-1.69,8.83,8.83,0,0,1,2.23-1.65,5.59,5.59,0,0,0,1.1-.72,1,1,0,0,0,.31-.7.72.72,0,0,0-.28-.58,1.19,1.19,0,0,0-.81-.25,1.72,1.72,0,0,0-1,.25,1.47,1.47,0,0,0-.51.76l-1.36-.13a2.59,2.59,0,0,1,1-1.45,3.19,3.19,0,0,1,1.87-.5,2.73,2.73,0,0,1,1.84.54,1.69,1.69,0,0,1,.61,1.32,2,2,0,0,1-.53,1.32A8.9,8.9,0,0,1,303.14,46c-.52.32-.89.55-1.08.7a3.17,3.17,0,0,0-.49.47h3.36l-.22,1.08Z"/><path d="M310,50.85l.34-1.6h4.89l-.33,1.6Z"/><path d="M324.65,54.75l2.05-9.81A10.11,10.11,0,0,1,323,46.62l.31-1.46a14.67,14.67,0,0,0,4.11-2.59,5.13,5.13,0,0,0,.67-.86H329l-2.72,13Z"/><path d="M406.05,45.77a11.87,11.87,0,0,1,.48-3.3,11.51,11.51,0,0,1,1.08-2.69,6.81,6.81,0,0,1,1.23-1.57,4.48,4.48,0,0,1,1.26-.83,3.34,3.34,0,0,1,1.36-.27,3.14,3.14,0,0,1,2.45,1.09,4.55,4.55,0,0,1,1,3.16,13.57,13.57,0,0,1-.68,4.2A8.09,8.09,0,0,1,412,49.25a3.75,3.75,0,0,1-2.51.94A3.12,3.12,0,0,1,407,49.06,4.86,4.86,0,0,1,406.05,45.77Zm1.52.4A3.61,3.61,0,0,0,408,48a1.7,1.7,0,0,0,1.58.92,2.24,2.24,0,0,0,1.67-.83,7.68,7.68,0,0,0,1.63-3.43,16.5,16.5,0,0,0,.54-3.69,3,3,0,0,0-.52-2,1.76,1.76,0,0,0-1.4-.61,2.19,2.19,0,0,0-1.17.32,3.32,3.32,0,0,0-1.05,1.11A11.27,11.27,0,0,0,408,43.13,13.8,13.8,0,0,0,407.57,46.17Z"/><path d="M415.7,50l.38-1.79h1.8l-.33,1.56a4.25,4.25,0,0,1-.92,2.07,2.43,2.43,0,0,1-1.47.75l.15-.69c.69-.19,1.15-.83,1.37-1.9Z"/><path d="M422.3,50a16.38,16.38,0,0,1,.89-3.11,24.94,24.94,0,0,1,2.13-4.35,18,18,0,0,1,2.94-3.72h-6.39l.31-1.45h8.17l-.29,1.45a16.57,16.57,0,0,0-3.64,4.71A24,24,0,0,0,424,50Z"/><path d="M430.9,46.31l1.61-.16c0,.23,0,.37,0,.41a2.54,2.54,0,0,0,.3,1.17,2.15,2.15,0,0,0,.79.89,2,2,0,0,0,1.06.31,2.7,2.7,0,0,0,1.5-.51A3.61,3.61,0,0,0,437.37,47a4.45,4.45,0,0,0,.47-1.92,2.39,2.39,0,0,0-.63-1.73,2.23,2.23,0,0,0-1.67-.64,2.7,2.7,0,0,0-1.3.33,3.67,3.67,0,0,0-1.15,1l-1.38-.1,1.93-6.55h6.25l-.3,1.45h-4.87l-1,3.26a3.9,3.9,0,0,1,1.12-.59,3.6,3.6,0,0,1,1.17-.2,3.2,3.2,0,0,1,2.41,1,3.65,3.65,0,0,1,1,2.66,5.84,5.84,0,0,1-.65,2.72A4.57,4.57,0,0,1,437,49.52a4.67,4.67,0,0,1-2.44.67,3.82,3.82,0,0,1-2-.5,3.17,3.17,0,0,1-1.27-1.37,4,4,0,0,1-.42-1.75Z"/><path d="M445.16,50l1.94-9.28h1.58l-.32,1.53a6.34,6.34,0,0,1,1.58-1.36,3.11,3.11,0,0,1,1.51-.38,2.28,2.28,0,0,1,1.44.46,2.21,2.21,0,0,1,.77,1.28,5.26,5.26,0,0,1,1.49-1.31,3.43,3.43,0,0,1,1.64-.43,2.5,2.5,0,0,1,1.75.55,2.07,2.07,0,0,1,.58,1.55,8.46,8.46,0,0,1-.2,1.41l-1.25,6h-1.58l1.27-6.13a5.88,5.88,0,0,0,.17-1.08.91.91,0,0,0-.29-.71,1.13,1.13,0,0,0-.81-.27,2.92,2.92,0,0,0-1.45.43,3.14,3.14,0,0,0-1.13,1.13,7.32,7.32,0,0,0-.72,2.13l-.94,4.5h-1.58l1.31-6.26a5.31,5.31,0,0,0,.14-.91,1,1,0,0,0-.29-.74,1,1,0,0,0-.73-.28,2.93,2.93,0,0,0-1.42.43,3.42,3.42,0,0,0-1.2,1.19,7.18,7.18,0,0,0-.76,2.18L446.75,50Z"/><path d="M231.66,107.17l1.69-.16,0,.45a2.79,2.79,0,0,0,.35,1.37,2.27,2.27,0,0,0,1.13,1,4.73,4.73,0,0,0,1.89.34,3.61,3.61,0,0,0,2.36-.68,2,2,0,0,0,.82-1.55,1.68,1.68,0,0,0-.43-1.11,8.17,8.17,0,0,0-2.41-1.34,18.76,18.76,0,0,1-2.08-1,4,4,0,0,1-1.28-1.25,2.85,2.85,0,0,1-.42-1.54,3.06,3.06,0,0,1,.55-1.79,3.36,3.36,0,0,1,1.6-1.23,6.34,6.34,0,0,1,2.37-.42,6.06,6.06,0,0,1,2.66.53,3.52,3.52,0,0,1,2.06,3.09s0,.14,0,.26l-1.66.14a2.81,2.81,0,0,0-.1-.86,2.26,2.26,0,0,0-.54-.9,2.65,2.65,0,0,0-1-.6,4.41,4.41,0,0,0-1.45-.22,3.4,3.4,0,0,0-2.19.63,1.66,1.66,0,0,0-.36,2.14,2.65,2.65,0,0,0,.89.73c.31.17,1,.51,2.18,1a16.05,16.05,0,0,1,1.92,1,3.26,3.26,0,0,1,1.08,1.14,2.9,2.9,0,0,1,.38,1.51,3.22,3.22,0,0,1-.64,1.93,4.06,4.06,0,0,1-1.76,1.37,6.56,6.56,0,0,1-2.58.48,6.21,6.21,0,0,1-3.58-1A3.91,3.91,0,0,1,231.66,107.17Z"/><path d="M249.89,108.16l1.55.16a4.71,4.71,0,0,1-1.53,2.2,4.27,4.27,0,0,1-2.87,1,3.9,3.9,0,0,1-1.91-.48,3.12,3.12,0,0,1-1.32-1.39,4.69,4.69,0,0,1-.45-2.09,6.55,6.55,0,0,1,.71-3,5,5,0,0,1,1.83-2.14,4.52,4.52,0,0,1,2.44-.7,3.53,3.53,0,0,1,2.68,1,3.94,3.94,0,0,1,1,2.83,8.6,8.6,0,0,1-.13,1.41H245a4.6,4.6,0,0,0,0,.5,3,3,0,0,0,.6,2,1.9,1.9,0,0,0,1.48.69,2.85,2.85,0,0,0,1.61-.54A3.39,3.39,0,0,0,249.89,108.16Zm-4.63-2.31h5.25c0-.17,0-.29,0-.36a2.57,2.57,0,0,0-.6-1.83,2,2,0,0,0-1.54-.64,2.82,2.82,0,0,0-1.86.7A4.2,4.2,0,0,0,245.26,105.85Z"/><path d="M259.36,110.18a6.16,6.16,0,0,1-1.59,1,4.11,4.11,0,0,1-1.64.33,2.89,2.89,0,0,1-2.09-.76,2.59,2.59,0,0,1-.79-2,2.7,2.7,0,0,1,1.3-2.35A4.21,4.21,0,0,1,256,106a18.09,18.09,0,0,1,2-.17,7.27,7.27,0,0,0,2.15-.31,4.37,4.37,0,0,0,.19-1.09,1,1,0,0,0-.41-.87,2.58,2.58,0,0,0-1.62-.44,2.77,2.77,0,0,0-1.64.45,2.42,2.42,0,0,0-.93,1.26l-1.61-.14a4.15,4.15,0,0,1,1.56-2.13,4.58,4.58,0,0,1,2.7-.74,4.23,4.23,0,0,1,2.75.82,2,2,0,0,1,.77,1.61,7.79,7.79,0,0,1-.22,1.73l-.52,2.33a8.93,8.93,0,0,0-.24,1.8,5.87,5.87,0,0,0,.19,1.27h-1.61A6,6,0,0,1,259.36,110.18Zm.59-3.58a3.79,3.79,0,0,1-.72.21c-.25,0-.68.09-1.28.15a9.33,9.33,0,0,0-2,.31,1.68,1.68,0,0,0-.86.6,1.53,1.53,0,0,0-.3.92,1.45,1.45,0,0,0,.47,1.1,1.83,1.83,0,0,0,1.31.43,3.12,3.12,0,0,0,2.68-1.58A6.86,6.86,0,0,0,260,106.6Z"/><path d="M290.6,106.18a14.05,14.05,0,0,1,.57-3.9,14.43,14.43,0,0,1,1.27-3.17,7.9,7.9,0,0,1,1.46-1.85,5.47,5.47,0,0,1,1.48-1A4,4,0,0,1,297,96a3.71,3.71,0,0,1,2.89,1.29A5.35,5.35,0,0,1,301,101a15.74,15.74,0,0,1-.8,5,9.42,9.42,0,0,1-2.64,4.36,4.42,4.42,0,0,1-3,1.1,3.67,3.67,0,0,1-2.87-1.33A5.71,5.71,0,0,1,290.6,106.18Zm1.8.47a4.28,4.28,0,0,0,.47,2.18,2,2,0,0,0,1.86,1.08,2.62,2.62,0,0,0,2-1,8.91,8.91,0,0,0,1.93-4.05,19.26,19.26,0,0,0,.64-4.35,3.59,3.59,0,0,0-.62-2.35,2.1,2.1,0,0,0-1.65-.73,2.66,2.66,0,0,0-1.39.39,3.83,3.83,0,0,0-1.23,1.31,13.19,13.19,0,0,0-1.45,3.91A16.55,16.55,0,0,0,292.4,106.65Z"/><line x1="292.59" y1="103.29" x2="299.57" y2="104.24" style="fill:none;stroke:#000;stroke-miterlimit:10"/><path d="M363.82,110.06l7-13.42h1.39l-7,13.42Z"/><path d="M370.85,109.85a6.86,6.86,0,0,1,.68-1.94,6.45,6.45,0,0,1,1.17-1.49c.48-.47,1.42-1.26,2.8-2.36a20.44,20.44,0,0,0,1.72-1.48,4.87,4.87,0,0,0,1-1.36,2.3,2.3,0,0,0,.21-1,2.07,2.07,0,0,0-.64-1.52,2.1,2.1,0,0,0-1.55-.62,2.29,2.29,0,0,0-1.6.63,3.75,3.75,0,0,0-1,2l-1.57-.23a4.24,4.24,0,0,1,1.34-2.72,4,4,0,0,1,2.77-1,4.44,4.44,0,0,1,2,.46,3.09,3.09,0,0,1,1.35,1.3,3.53,3.53,0,0,1,.45,1.71,4,4,0,0,1-.92,2.49,23.94,23.94,0,0,1-3.33,2.93,18.46,18.46,0,0,0-1.77,1.55,5.28,5.28,0,0,0-.87,1.13h5.81l-.31,1.47Z"/></svg>