<svg id="Capa_1" data-name="Capa 1" xmlns="http://www.w3.org/2000/svg" viewBox="0 0 581.28 157.56"><line x1="198.94" y1="63.93" x2="113.09" y2="87.61" style="fill:none;stroke:#211915;stroke-linecap:round;stroke-miterlimit:2;stroke-width:0.439000010490418px"/><polygon points="109.89 75.45 77.41 84.17 83.95 108.73 116.43 100.01 109.89 75.45" style="fill:none;stroke:#54c9f7;stroke-linecap:round;stroke-width:0.657999992370606px"/><line x1="93.71" y1="81.66" x2="82.58" y2="95.96" style="fill:none;stroke:#78e2fc;stroke-miterlimit:2;stroke-width:0.219999998807907px"/><line x1="108.1" y1="78.28" x2="85.77" y2="106.44" style="fill:none;stroke:#78e2fc;stroke-miterlimit:2;stroke-width:0.219999998807907px"/><line x1="111.88" y1="92.94" x2="105.52" y2="101.11" style="fill:none;stroke:#78e2fc;stroke-miterlimit:2;stroke-width:0.219999998807907px"/><line x1="76.16" y1="84.87" x2="61.89" y2="88.74" style="fill:none;stroke:#211915;stroke-miterlimit:2;stroke-width:0.219999998807907px"/><line x1="82.13" y1="106.78" x2="67.86" y2="110.65" style="fill:none;stroke:#211915;stroke-miterlimit:2;stroke-width:0.219999998807907px"/><line x1="76.18" y1="89.03" x2="60.99" y2="93.16" style="fill:none;stroke:#211915;stroke-miterlimit:2;stroke-width:0.219999998807907px"/><line x1="76.69" y1="96.01" x2="64.39" y2="99.35" style="fill:none;stroke:#211915;stroke-miterlimit:2;stroke-width:0.219999998807907px"/><line x1="77.55" y1="92.07" x2="63.11" y2="95.99" style="fill:none;stroke:#211915;stroke-miterlimit:2;stroke-width:0.219999998807907px"/><line x1="77.92" y1="103.76" x2="65.2" y2="107.21" style="fill:none;stroke:#211915;stroke-miterlimit:2;stroke-width:0.219999998807907px"/><line x1="78.27" y1="99.14" x2="63.84" y2="103.06" style="fill:none;stroke:#211915;stroke-miterlimit:2;stroke-width:0.219999998807907px"/><line x1="207.89" y1="75.92" x2="207.89" y2="99.53" style="fill:none;stroke:#211915;stroke-linecap:round;stroke-miterlimit:2;stroke-width:0.439000010490418px"/><path d="M200,76.61l-21.77,13.8a2.42,2.42,0,0,1-2.72-1.16,2.5,2.5,0,0,1,0-3.09l21.77-13.79a2.23,2.23,0,0,1,3,1,2.41,2.41,0,0,1-.32,3.28" style="fill:#fff"/><path d="M200,76.61l-21.77,13.8a2.42,2.42,0,0,1-2.72-1.16,2.5,2.5,0,0,1,0-3.09l21.77-13.79a2.23,2.23,0,0,1,3,1A2.41,2.41,0,0,1,200,76.61Z" style="fill:none;stroke:#353535;stroke-width:0.657999992370606px"/><polygon points="177.94 83.73 14.75 127.45 177.94 127.34 177.94 83.73" style="fill:#fff;stroke:#174c7f;stroke-linecap:round;stroke-width:0.657999992370606px"/><rect x="199.08" y="99.52" width="17.44" height="16.98" style="fill:none;stroke:#272425;stroke-linecap:round;stroke-width:0.657999992370606px"/><path d="M209.87,73.33a9.52,9.52,0,1,1-9.52-9.51,9.52,9.52,0,0,1,9.52,9.51" style="fill:#fff"/><path d="M209.87,73.33a9.52,9.52,0,1,1-9.52-9.51A9.52,9.52,0,0,1,209.87,73.33Z" style="fill:none;stroke:#353535;stroke-width:0.657999992370606px"/><path d="M198.49,73.38a1.72,1.72,0,1,1,1.72,1.72A1.72,1.72,0,0,1,198.49,73.38Z" style="fill:none;stroke:#272425;stroke-width:0.657999992370606px"/><line x1="214.89" y1="101.01" x2="200.94" y2="114.59" style="fill:none;stroke:#211915;stroke-miterlimit:2;stroke-width:0.219999998807907px"/><line x1="205.13" y1="101.07" x2="200.71" y2="105.37" style="fill:none;stroke:#211915;stroke-miterlimit:2;stroke-width:0.219999998807907px"/><line x1="214.58" y1="110.53" x2="210.17" y2="114.83" style="fill:none;stroke:#211915;stroke-miterlimit:2;stroke-width:0.219999998807907px"/><line x1="216.53" y1="98.37" x2="216.53" y2="83.59" style="fill:none;stroke:#211915;stroke-miterlimit:2;stroke-width:0.219999998807907px"/><line x1="213.7" y1="97.03" x2="213.7" y2="81.29" style="fill:none;stroke:#211915;stroke-miterlimit:2;stroke-width:0.219999998807907px"/><line x1="205.11" y1="98.17" x2="205.11" y2="83.21" style="fill:none;stroke:#211915;stroke-miterlimit:2;stroke-width:0.219999998807907px"/><line x1="199.07" y1="98.17" x2="199.07" y2="84.35" style="fill:none;stroke:#211915;stroke-miterlimit:2;stroke-width:0.219999998807907px"/><line x1="201.96" y1="95.88" x2="201.96" y2="85.45" style="fill:none;stroke:#211915;stroke-miterlimit:2;stroke-width:0.219999998807907px"/><line x1="210.37" y1="95.88" x2="210.37" y2="85.45" style="fill:none;stroke:#211915;stroke-miterlimit:2;stroke-width:0.219999998807907px"/><path d="M63.46,116c1.47,2.79,2.18,7.52,1.86,11.38" style="fill:none;stroke:#174c7f;stroke-miterlimit:2;stroke-width:0.75px"/><path d="M67.77,119.17A16.44,16.44,0,0,1,63.46,116a16.16,16.16,0,0,1-.22,5.34" style="fill:none;stroke:#174c7f;stroke-linecap:round;stroke-linejoin:round;stroke-width:0.75px"/><path d="M230.89,108l1.47.21a6.08,6.08,0,0,1-2,2.92,5,5,0,0,1-3,1,4.26,4.26,0,0,1-3.21-1.24,4.9,4.9,0,0,1-1.19-3.55,7.05,7.05,0,0,1,1.81-5,5.21,5.21,0,0,1,4-1.76,4.25,4.25,0,0,1,2.87,1,3.76,3.76,0,0,1,1.27,2.56l-1.39.12a3,3,0,0,0-.91-1.8,2.58,2.58,0,0,0-1.77-.6,3.87,3.87,0,0,0-3.31,1.82,6.31,6.31,0,0,0-1.09,3.72,3.72,3.72,0,0,0,.84,2.62,2.89,2.89,0,0,0,2.2.9,3.25,3.25,0,0,0,2.09-.75A4.24,4.24,0,0,0,230.89,108Z" style="fill:#262324"/><path d="M238.77,110.48a4.08,4.08,0,0,1-3,1.64,2.12,2.12,0,0,1-1.51-.54,1.73,1.73,0,0,1-.57-1.31,9.4,9.4,0,0,1,.26-1.75l1-4.66h1.37L235.25,109a4.66,4.66,0,0,0-.14,1,.91.91,0,0,0,.28.71,1.14,1.14,0,0,0,.81.25,2.42,2.42,0,0,0,1.13-.28,2.93,2.93,0,0,0,.95-.76,3.8,3.8,0,0,0,.65-1.13,10.71,10.71,0,0,0,.39-1.47l.73-3.49h1.38l-1.69,8.07h-1.27Z" style="fill:#262324"/><path d="M241.92,111.93l2.33-11.14h1.37l-.83,4a4.69,4.69,0,0,1,1.19-.84,2.5,2.5,0,0,1,1.11-.25,2.45,2.45,0,0,1,1.89.84,3.6,3.6,0,0,1,.75,2.46,6.11,6.11,0,0,1-.3,2,5.32,5.32,0,0,1-.75,1.49,4.57,4.57,0,0,1-.93,1,3.81,3.81,0,0,1-1,.54,2.86,2.86,0,0,1-1,.18,2.39,2.39,0,0,1-1.4-.42,2.8,2.8,0,0,1-1-1.29l-.32,1.52Zm2-3.31v.26a2.24,2.24,0,0,0,.49,1.57,1.6,1.6,0,0,0,1.23.54,2,2,0,0,0,1.33-.5,3.61,3.61,0,0,0,1-1.58,5.83,5.83,0,0,0,.39-2,2.32,2.32,0,0,0-.49-1.58,1.56,1.56,0,0,0-1.21-.56,2,2,0,0,0-1.37.57,4.36,4.36,0,0,0-1,1.77A4.6,4.6,0,0,0,244,108.62Z" style="fill:#262324"/><path d="M256.51,109.19l1.33.14a4,4,0,0,1-1.32,1.89,3.66,3.66,0,0,1-2.48.9,3.31,3.31,0,0,1-1.64-.42,2.65,2.65,0,0,1-1.14-1.2,4,4,0,0,1-.39-1.8,5.71,5.71,0,0,1,.61-2.57,4.41,4.41,0,0,1,1.58-1.85,3.94,3.94,0,0,1,2.11-.6,3.07,3.07,0,0,1,2.31.9,3.38,3.38,0,0,1,.86,2.44,7.28,7.28,0,0,1-.11,1.22h-5.94a3.46,3.46,0,0,0,0,.43,2.55,2.55,0,0,0,.52,1.73,1.63,1.63,0,0,0,1.27.59,2.43,2.43,0,0,0,1.39-.46A3.07,3.07,0,0,0,256.51,109.19Zm-4-2H257c0-.14,0-.24,0-.3a2.27,2.27,0,0,0-.52-1.59,1.78,1.78,0,0,0-1.33-.55,2.42,2.42,0,0,0-1.61.61A3.68,3.68,0,0,0,252.51,107.19Z" style="fill:#262324"/><path d="M262.45,110.82l-.23,1.12a3.61,3.61,0,0,1-1,.13,2,2,0,0,1-1.31-.4,1,1,0,0,1-.37-.83,8.46,8.46,0,0,1,.2-1.22l1-4.69h-1.09l.22-1.07H261l.42-2,1.57-.95-.61,2.93h1.35l-.23,1.07h-1.34l-.94,4.46a9.17,9.17,0,0,0-.17,1,.46.46,0,0,0,.14.37.63.63,0,0,0,.46.13A3.35,3.35,0,0,0,262.45,110.82Z" style="fill:#262324"/><path d="M269,110.93a5.36,5.36,0,0,1-1.37.9,3.53,3.53,0,0,1-1.42.29,2.5,2.5,0,0,1-1.8-.66,2.25,2.25,0,0,1-.68-1.68,2.28,2.28,0,0,1,.31-1.2,2.33,2.33,0,0,1,.81-.84,3.61,3.61,0,0,1,1.25-.45,13.22,13.22,0,0,1,1.76-.14,6.36,6.36,0,0,0,1.86-.28,3.77,3.77,0,0,0,.16-.93.94.94,0,0,0-.35-.76,2.24,2.24,0,0,0-1.4-.38,2.41,2.41,0,0,0-1.42.39,2.14,2.14,0,0,0-.8,1.09l-1.39-.12a3.57,3.57,0,0,1,1.35-1.84,4,4,0,0,1,2.33-.64,3.66,3.66,0,0,1,2.37.71,1.72,1.72,0,0,1,.67,1.39,7.49,7.49,0,0,1-.19,1.5l-.45,2a7.64,7.64,0,0,0-.21,1.56,5.14,5.14,0,0,0,.16,1.09h-1.39A5.36,5.36,0,0,1,269,110.93Zm.51-3.09a3,3,0,0,1-.62.18c-.22,0-.59.08-1.1.13a8.4,8.4,0,0,0-1.7.27,1.37,1.37,0,0,0-.74.52,1.33,1.33,0,0,0-.25.79,1.25,1.25,0,0,0,.39,1,1.61,1.61,0,0,0,1.14.37,2.62,2.62,0,0,0,1.32-.36,2.53,2.53,0,0,0,1-1A5.48,5.48,0,0,0,269.51,107.84Z" style="fill:#262324"/><path d="M88.94,57.94l1.47.21a6,6,0,0,1-2,2.92,5,5,0,0,1-3,1,4.29,4.29,0,0,1-3.22-1.23A5,5,0,0,1,81,57.27a7.1,7.1,0,0,1,1.81-5,5.23,5.23,0,0,1,4-1.76,4.26,4.26,0,0,1,2.87.95A3.8,3.8,0,0,1,90.92,54l-1.39.12a3,3,0,0,0-.91-1.8,2.6,2.6,0,0,0-1.77-.6,3.86,3.86,0,0,0-3.31,1.82,6.31,6.31,0,0,0-1.09,3.72,3.72,3.72,0,0,0,.84,2.62,2.86,2.86,0,0,0,2.2.9,3.27,3.27,0,0,0,2.09-.75A4.31,4.31,0,0,0,88.94,57.94Z" style="fill:#262324"/><path d="M96.75,60.86a5.4,5.4,0,0,1-1.38.9,3.52,3.52,0,0,1-1.41.29,2.5,2.5,0,0,1-1.8-.66,2.22,2.22,0,0,1-.68-1.68,2.35,2.35,0,0,1,.3-1.2,2.44,2.44,0,0,1,.82-.84,3.61,3.61,0,0,1,1.25-.45,13.22,13.22,0,0,1,1.76-.14,6.36,6.36,0,0,0,1.86-.28,3.69,3.69,0,0,0,.15-.93.93.93,0,0,0-.34-.76,2.24,2.24,0,0,0-1.4-.38,2.41,2.41,0,0,0-1.42.39,2.09,2.09,0,0,0-.8,1.09l-1.39-.12a3.61,3.61,0,0,1,1.34-1.84A4,4,0,0,1,96,53.61a3.7,3.7,0,0,1,2.37.71A1.72,1.72,0,0,1,99,55.71a7.49,7.49,0,0,1-.19,1.5l-.45,2a7.11,7.11,0,0,0-.22,1.56,5.3,5.3,0,0,0,.17,1.09H96.91A4.64,4.64,0,0,1,96.75,60.86Zm.51-3.09a3,3,0,0,1-.62.18c-.22,0-.59.08-1.11.13a8.27,8.27,0,0,0-1.69.27,1.44,1.44,0,0,0-.75.52,1.4,1.4,0,0,0-.25.79,1.28,1.28,0,0,0,.4,1,1.61,1.61,0,0,0,1.14.37,2.59,2.59,0,0,0,1.31-.36,2.62,2.62,0,0,0,1-1A6,6,0,0,0,97.26,57.77Z" style="fill:#262324"/><path d="M100,61.86l1.68-8.07h1.22l-.34,1.65a5.51,5.51,0,0,1,1.22-1.38,2,2,0,0,1,1.22-.45,2.38,2.38,0,0,1,1,.3l-.56,1.27a1.34,1.34,0,0,0-.79-.26,2.12,2.12,0,0,0-1.48.81,6.11,6.11,0,0,0-1.19,2.9l-.69,3.23Z" style="fill:#262324"/><path d="M105.15,61.86l1.69-8.07h1.21l-.34,1.65a5.72,5.72,0,0,1,1.22-1.38,2,2,0,0,1,1.22-.45,2.34,2.34,0,0,1,1,.3l-.56,1.27a1.33,1.33,0,0,0-.78-.26,2.14,2.14,0,0,0-1.49.81,6.21,6.21,0,0,0-1.19,2.9l-.68,3.23Z" style="fill:#262324"/><path d="M110.58,58.8A5.6,5.6,0,0,1,112,54.89a3.86,3.86,0,0,1,3-1.28,3.13,3.13,0,0,1,2.35.91,3.35,3.35,0,0,1,.89,2.46,5.94,5.94,0,0,1-.56,2.59,4.19,4.19,0,0,1-3.78,2.48,3.67,3.67,0,0,1-1.72-.41A2.76,2.76,0,0,1,111,60.5,3.47,3.47,0,0,1,110.58,58.8Zm1.37-.14a2.48,2.48,0,0,0,.55,1.73,1.8,1.8,0,0,0,1.39.59,2.27,2.27,0,0,0,.88-.18,2.69,2.69,0,0,0,.8-.54,3.75,3.75,0,0,0,.64-.83,5.36,5.36,0,0,0,.42-1,5,5,0,0,0,.23-1.44,2.42,2.42,0,0,0-.55-1.7,1.8,1.8,0,0,0-1.38-.61,2.33,2.33,0,0,0-1.18.31,3.13,3.13,0,0,0-1,.9,4.17,4.17,0,0,0-.64,1.38A6,6,0,0,0,112,58.66Z" style="fill:#262324"/><path d="M199.91,130.93l-.68-11.14h1.51l.26,5.51c0,.26,0,1,.07,2.14,0,.33,0,.55,0,.69s0,.33,0,.75c.62-1.27,1.07-2.16,1.34-2.68l3.39-6.41h1.54l.37,6.51c0,.75.07,1.64.08,2.69.09-.26.26-.64.49-1.15.37-.83.64-1.42.82-1.77l3.18-6.28h1.52l-5.67,11.14h-1.6l-.37-6.75q-.06-.87-.09-2.13c-.3.71-.56,1.25-.77,1.64l-3.86,7.24Z"/><path d="M212.44,130.93a3.3,3.3,0,0,1,.31-.86,2.81,2.81,0,0,1,.51-.65c.21-.21.63-.56,1.23-1a8.83,8.83,0,0,0,.76-.66,2.14,2.14,0,0,0,.43-.59,1.08,1.08,0,0,0,.09-.44.91.91,0,0,0-.28-.67,1,1,0,0,0-1.39,0,1.65,1.65,0,0,0-.43.89l-.69-.1a1.86,1.86,0,0,1,.59-1.2,1.77,1.77,0,0,1,1.22-.44,2,2,0,0,1,.89.2,1.41,1.41,0,0,1,.59.57,1.63,1.63,0,0,1,.2.76,1.78,1.78,0,0,1-.4,1.1,11,11,0,0,1-1.47,1.29,9.87,9.87,0,0,0-.78.68,3,3,0,0,0-.39.5H216l-.13.65Z"/><path d="M315.44,142.05l-.69-11.15h1.52l.26,5.51c0,.27,0,1,.07,2.15,0,.32,0,.55,0,.68s0,.34,0,.75c.62-1.26,1.06-2.15,1.34-2.67l3.39-6.42h1.53l.37,6.52c0,.74.07,1.64.09,2.69a12.55,12.55,0,0,1,.49-1.16c.37-.82.64-1.41.82-1.77l3.17-6.28h1.52l-5.67,11.15h-1.59l-.38-6.75c0-.58-.06-1.29-.08-2.13-.31.7-.57,1.25-.77,1.64L317,142.05Z"/><path d="M328,142.05a3,3,0,0,1,.3-.86,2.84,2.84,0,0,1,.52-.66c.21-.2.62-.55,1.23-1a9,9,0,0,0,.76-.65,2,2,0,0,0,.42-.6,1,1,0,0,0,.09-.43.9.9,0,0,0-.27-.67.94.94,0,0,0-.69-.28,1,1,0,0,0-.7.28,1.65,1.65,0,0,0-.43.9l-.69-.1a1.82,1.82,0,0,1,.59-1.2,1.71,1.71,0,0,1,1.22-.44,1.84,1.84,0,0,1,.88.2,1.28,1.28,0,0,1,.6.57,1.6,1.6,0,0,1,.2.76,1.76,1.76,0,0,1-.41,1.09,10.83,10.83,0,0,1-1.47,1.3,6.94,6.94,0,0,0-.78.68,2,2,0,0,0-.38.5h2.56l-.14.65Z"/><path d="M399.15,74l-.56-9.22h1.25l.21,4.56c0,.22,0,.81.07,1.78,0,.27,0,.45,0,.56s0,.28,0,.63q.76-1.57,1.11-2.22l2.8-5.31h1.28l.3,5.39c0,.62.06,1.36.07,2.23.08-.21.21-.53.4-1,.31-.68.54-1.17.68-1.46l2.63-5.2h1.26L406,74h-1.32l-.31-5.58c0-.48-.05-1.07-.07-1.76-.26.58-.47,1-.64,1.36l-3.2,6Z"/><path d="M410.73,74l.75-3.57a3.9,3.9,0,0,1-1.37.61l.11-.53a4.86,4.86,0,0,0,.87-.46,4.5,4.5,0,0,0,.63-.49,2,2,0,0,0,.25-.31h.34l-1,4.75Z"/><path d="M433.77,148l-.57-9.22h1.25l.21,4.56c0,.22,0,.81.07,1.77,0,.27,0,.46,0,.57s0,.28,0,.62c.51-1.05.88-1.79,1.11-2.21l2.81-5.31h1.27l.3,5.39c0,.61.06,1.36.07,2.22.08-.21.21-.53.41-.95.3-.69.53-1.17.68-1.47l2.62-5.19h1.26L440.57,148h-1.32l-.31-5.59c0-.48-.05-1.06-.07-1.76-.25.58-.47,1-.64,1.36L435,148Z"/><path d="M445.34,148l.75-3.58a3.75,3.75,0,0,1-1.36.61l.11-.53a5.15,5.15,0,0,0,.86-.46,4.53,4.53,0,0,0,.64-.49,2.09,2.09,0,0,0,.24-.31h.34l-1,4.76Z"/><path d="M41.91,85.18,41.23,74h1.51L43,79.55c0,.26,0,1,.07,2.14,0,.33,0,.55,0,.69s0,.33,0,.75c.62-1.27,1.07-2.16,1.34-2.68L47.81,74h1.54l.37,6.51c0,.75.07,1.64.08,2.69.09-.26.25-.64.49-1.15.37-.83.64-1.42.82-1.77L54.29,74h1.52L50.14,85.18h-1.6l-.37-6.75q-.06-.87-.09-2.13c-.31.71-.56,1.25-.77,1.64l-3.86,7.24Z"/><path d="M55.9,85.18l.91-4.32a4.54,4.54,0,0,1-1.65.73l.13-.64a5.49,5.49,0,0,0,1-.55,4.43,4.43,0,0,0,.77-.59,1.68,1.68,0,0,0,.3-.38h.41l-1.2,5.75Z"/><path d="M75.92,122.7l1.56-7.44a7.75,7.75,0,0,1-2.84,1.27l.23-1.1a10.31,10.31,0,0,0,1.79-1,9.5,9.5,0,0,0,1.33-1,3.59,3.59,0,0,0,.51-.66h.71l-2.07,9.9Z"/><path d="M81.22,119.88l1.24-.12c0,.18,0,.28,0,.32a2,2,0,0,0,.22.89,1.72,1.72,0,0,0,.61.69,1.53,1.53,0,0,0,.82.24,2.06,2.06,0,0,0,1.15-.39,2.78,2.78,0,0,0,1-1.14,3.35,3.35,0,0,0,.36-1.47,1.79,1.79,0,0,0-.49-1.33,1.71,1.71,0,0,0-1.28-.5,2.07,2.07,0,0,0-1,.26,2.87,2.87,0,0,0-.89.77L81.84,118l1.49-5h4.81l-.23,1.12H84.16l-.74,2.5a3.38,3.38,0,0,1,.86-.45,2.74,2.74,0,0,1,.9-.15,2.51,2.51,0,0,1,1.86.74,2.83,2.83,0,0,1,.72,2.05,4.5,4.5,0,0,1-.49,2.09,3.64,3.64,0,0,1-3.25,2,3,3,0,0,1-1.5-.38,2.51,2.51,0,0,1-1-1.06,3,3,0,0,1-.32-1.34Z"/><path d="M89.75,114.54a1.8,1.8,0,0,1,.55-1.32,1.83,1.83,0,0,1,1.32-.54,1.86,1.86,0,0,1,1.87,1.86,1.82,1.82,0,0,1-.55,1.32,1.87,1.87,0,0,1-3.19-1.32Zm.74,0a1.13,1.13,0,1,0,1.93-.8,1.11,1.11,0,0,0-1.6,0A1.09,1.09,0,0,0,90.49,114.54Z"/><path d="M38.55,26.89l1.66-8h1.32l.8,5.18a17.29,17.29,0,0,1,.21,2,21.6,21.6,0,0,1,1.11-2.18l2.81-5h1.33l-1.67,8h-1L45.91,23a30.58,30.58,0,0,1,.82-3,16.62,16.62,0,0,1-.85,1.68l-3,5.23h-1l-.8-5.13a13.8,13.8,0,0,1-.16-1.64c-.09.71-.18,1.26-.27,1.67l-1.06,5.1Z"/><path d="M47.9,24.69a4,4,0,0,1,1-2.81A2.77,2.77,0,0,1,51.06,21a2.24,2.24,0,0,1,1.68.65,2.42,2.42,0,0,1,.64,1.77,4.35,4.35,0,0,1-.4,1.86,3,3,0,0,1-1.15,1.31,2.86,2.86,0,0,1-1.56.46A2.66,2.66,0,0,1,49,26.73a2,2,0,0,1-.85-.82A2.53,2.53,0,0,1,47.9,24.69Zm1-.1a1.76,1.76,0,0,0,.39,1.24,1.27,1.27,0,0,0,1,.43,1.68,1.68,0,0,0,.62-.13,2,2,0,0,0,.58-.39,2.73,2.73,0,0,0,.46-.6,3.89,3.89,0,0,0,.3-.72,3.58,3.58,0,0,0,.17-1,1.68,1.68,0,0,0-.4-1.21,1.28,1.28,0,0,0-1-.44,1.66,1.66,0,0,0-.85.22,2.33,2.33,0,0,0-.69.65,3,3,0,0,0-.45,1A4.35,4.35,0,0,0,48.89,24.59Z"/><path d="M57.84,26.05a2.36,2.36,0,0,1-1.77,1,1.76,1.76,0,0,1-1.37-.61,2.56,2.56,0,0,1-.55-1.76,4.25,4.25,0,0,1,.44-1.93,3.36,3.36,0,0,1,1.08-1.32A2.35,2.35,0,0,1,57,21a1.76,1.76,0,0,1,1.63,1l.65-3.11h1l-1.67,8h-.91Zm-2.71-1.59a3,3,0,0,0,.13,1,1.22,1.22,0,0,0,.4.58,1.13,1.13,0,0,0,.7.23,1.53,1.53,0,0,0,1.21-.7,3.57,3.57,0,0,0,.73-2.29,1.51,1.51,0,0,0-.36-1.07,1.17,1.17,0,0,0-.9-.39,1.31,1.31,0,0,0-.65.16,1.79,1.79,0,0,0-.58.54,3.92,3.92,0,0,0-.68,2Z"/><path d="M64.4,24.92l1,.1a2.91,2.91,0,0,1-1,1.36,2.64,2.64,0,0,1-1.77.64,2.38,2.38,0,0,1-1.18-.3,2,2,0,0,1-.82-.86,3,3,0,0,1-.28-1.29,4.12,4.12,0,0,1,.44-1.84,3.08,3.08,0,0,1,1.14-1.33A2.79,2.79,0,0,1,63.44,21a2.17,2.17,0,0,1,1.65.64,2.45,2.45,0,0,1,.62,1.76,5.31,5.31,0,0,1-.08.87H61.37c0,.11,0,.21,0,.3a1.85,1.85,0,0,0,.37,1.25,1.19,1.19,0,0,0,.92.42,1.75,1.75,0,0,0,1-.33A2.13,2.13,0,0,0,64.4,24.92Zm-2.87-1.43h3.25v-.22a1.6,1.6,0,0,0-.37-1.14,1.24,1.24,0,0,0-.95-.39,1.73,1.73,0,0,0-1.15.43A2.59,2.59,0,0,0,61.53,23.49Z"/><path d="M66.28,26.89l1.67-8h1l-1.67,8Z"/><path d="M69,24.69a4,4,0,0,1,1-2.81A2.77,2.77,0,0,1,72.17,21a2.26,2.26,0,0,1,1.68.65,2.42,2.42,0,0,1,.64,1.77,4.35,4.35,0,0,1-.4,1.86,3,3,0,0,1-1.15,1.31,2.89,2.89,0,0,1-1.56.46,2.6,2.6,0,0,1-1.23-.29,2,2,0,0,1-.85-.82A2.53,2.53,0,0,1,69,24.69Zm1-.1a1.76,1.76,0,0,0,.39,1.24,1.27,1.27,0,0,0,1,.43,1.68,1.68,0,0,0,.62-.13,2,2,0,0,0,.58-.39,2.73,2.73,0,0,0,.46-.6,3.89,3.89,0,0,0,.3-.72,3.58,3.58,0,0,0,.17-1,1.68,1.68,0,0,0-.4-1.21,1.28,1.28,0,0,0-1-.44,1.66,1.66,0,0,0-.85.22,2.33,2.33,0,0,0-.69.65,3,3,0,0,0-.45,1A3.86,3.86,0,0,0,70,24.59Z"/><path d="M78.11,26.89l1.21-5.79h1l-1.21,5.79ZM79.55,20l.23-1.11h1L80.53,20Z"/><path d="M84.53,26.05a2.36,2.36,0,0,1-1.77,1,1.76,1.76,0,0,1-1.37-.61,2.56,2.56,0,0,1-.55-1.76,4.25,4.25,0,0,1,.44-1.93,3.36,3.36,0,0,1,1.08-1.32A2.35,2.35,0,0,1,83.67,21a1.76,1.76,0,0,1,1.63,1L86,18.9h1l-1.67,8h-.91Zm-2.7-1.59a3.08,3.08,0,0,0,.12,1,1.22,1.22,0,0,0,.4.58,1.13,1.13,0,0,0,.7.23,1.53,1.53,0,0,0,1.21-.7A3.57,3.57,0,0,0,85,23.24a1.51,1.51,0,0,0-.36-1.07,1.17,1.17,0,0,0-.9-.39,1.31,1.31,0,0,0-.65.16,1.79,1.79,0,0,0-.58.54,3.31,3.31,0,0,0-.48,1A3.27,3.27,0,0,0,81.83,24.46Z"/><path d="M91.09,24.92l1,.1a3,3,0,0,1-1,1.36,2.68,2.68,0,0,1-1.78.64,2.38,2.38,0,0,1-1.18-.3,2,2,0,0,1-.82-.86A3,3,0,0,1,87,24.57a4.12,4.12,0,0,1,.44-1.84,3.08,3.08,0,0,1,1.14-1.33A2.79,2.79,0,0,1,90.13,21a2.17,2.17,0,0,1,1.65.64,2.41,2.41,0,0,1,.62,1.76,5.27,5.27,0,0,1-.07.87H88.06c0,.11,0,.21,0,.3a1.9,1.9,0,0,0,.37,1.25,1.19,1.19,0,0,0,.92.42,1.73,1.73,0,0,0,1-.33A2.13,2.13,0,0,0,91.09,24.92Zm-2.87-1.43h3.25v-.22a1.6,1.6,0,0,0-.37-1.14,1.24,1.24,0,0,0-.95-.39,1.73,1.73,0,0,0-1.15.43A2.59,2.59,0,0,0,88.22,23.49Z"/><path d="M97,26.17a4.09,4.09,0,0,1-1,.65,2.64,2.64,0,0,1-1,.2,1.78,1.78,0,0,1-1.29-.47,1.61,1.61,0,0,1-.5-1.21,1.65,1.65,0,0,1,.23-.86,1.67,1.67,0,0,1,.58-.6,2.51,2.51,0,0,1,.9-.32,9.22,9.22,0,0,1,1.26-.11,4.54,4.54,0,0,0,1.33-.19,2.44,2.44,0,0,0,.12-.67.65.65,0,0,0-.26-.54,1.59,1.59,0,0,0-1-.27,1.8,1.8,0,0,0-1,.27,1.58,1.58,0,0,0-.57.78l-1-.08a2.55,2.55,0,0,1,1-1.32A2.84,2.84,0,0,1,96.37,21a2.61,2.61,0,0,1,1.7.51,1.22,1.22,0,0,1,.48,1,4.57,4.57,0,0,1-.14,1.08L98.09,25a5.41,5.41,0,0,0-.15,1.11,3.69,3.69,0,0,0,.12.79h-1A3.92,3.92,0,0,1,97,26.17ZM97.31,24a2.55,2.55,0,0,1-.44.12c-.16,0-.42.06-.79.09a5.8,5.8,0,0,0-1.22.2,1,1,0,0,0-.53.37,1,1,0,0,0-.18.57.9.9,0,0,0,.28.68,1.14,1.14,0,0,0,.82.27,1.92,1.92,0,0,0,1.65-1A3.88,3.88,0,0,0,97.31,24Z"/><path d="M99.18,26.89l1.67-8h1l-1.67,8Z"/><path d="M101.7,26.89l1.21-5.79h1l-1.21,5.79ZM103.13,20l.24-1.11h1L104.12,20Z"/><path d="M104.06,26.89l.16-.76,3.11-3.51c.22-.25.47-.5.74-.77-.46,0-.8.07-1,.07h-2.16l.18-.82h4.47l-.13.62-3.14,3.53c-.18.2-.44.47-.79.82l1.12-.05h2.28l-.18.87Z"/><path d="M113.7,26.17a4.09,4.09,0,0,1-1,.65,2.6,2.6,0,0,1-1,.2,1.81,1.81,0,0,1-1.29-.47,1.61,1.61,0,0,1-.49-1.21,1.64,1.64,0,0,1,.22-.86,1.75,1.75,0,0,1,.58-.6,2.59,2.59,0,0,1,.9-.32,9.22,9.22,0,0,1,1.26-.11,4.54,4.54,0,0,0,1.33-.19,2.44,2.44,0,0,0,.12-.67.67.67,0,0,0-.25-.54,1.62,1.62,0,0,0-1-.27,1.75,1.75,0,0,0-1,.27,1.54,1.54,0,0,0-.58.78l-1-.08a2.61,2.61,0,0,1,1-1.32,2.84,2.84,0,0,1,1.67-.46,2.59,2.59,0,0,1,1.7.51,1.22,1.22,0,0,1,.48,1,5.08,5.08,0,0,1-.13,1.08L114.85,25a4.9,4.9,0,0,0-.16,1.11,3.69,3.69,0,0,0,.12.79h-1A3.16,3.16,0,0,1,113.7,26.17Zm.37-2.21a3,3,0,0,1-.45.12c-.16,0-.42.06-.79.09a5.8,5.8,0,0,0-1.22.2,1,1,0,0,0-.53.37,1,1,0,0,0-.18.57.9.9,0,0,0,.28.68,1.18,1.18,0,0,0,.82.27,1.88,1.88,0,0,0,.94-.26,1.91,1.91,0,0,0,.72-.72A4.38,4.38,0,0,0,114.07,24Z"/><path d="M119.91,26.05a2.36,2.36,0,0,1-1.77,1,1.76,1.76,0,0,1-1.37-.61,2.56,2.56,0,0,1-.55-1.76,4.25,4.25,0,0,1,.44-1.93,3.36,3.36,0,0,1,1.08-1.32,2.35,2.35,0,0,1,1.31-.43,1.76,1.76,0,0,1,1.63,1l.65-3.11h1l-1.66,8h-.91Zm-2.7-1.59a3.08,3.08,0,0,0,.12,1,1.29,1.29,0,0,0,.4.58,1.13,1.13,0,0,0,.7.23,1.53,1.53,0,0,0,1.21-.7,3.57,3.57,0,0,0,.73-2.29,1.51,1.51,0,0,0-.36-1.07,1.17,1.17,0,0,0-.9-.39,1.31,1.31,0,0,0-.65.16,1.9,1.9,0,0,0-.58.54,3.31,3.31,0,0,0-.48,1A3.27,3.27,0,0,0,117.21,24.46Z"/><path d="M122.39,24.69a4,4,0,0,1,1-2.81,2.77,2.77,0,0,1,2.16-.91,2.24,2.24,0,0,1,1.68.65,2.43,2.43,0,0,1,.65,1.77,4.36,4.36,0,0,1-.41,1.86,3,3,0,0,1-1.15,1.31,2.86,2.86,0,0,1-1.56.46,2.66,2.66,0,0,1-1.23-.29,2,2,0,0,1-.85-.82A2.53,2.53,0,0,1,122.39,24.69Zm1-.1a1.76,1.76,0,0,0,.39,1.24,1.27,1.27,0,0,0,1,.43,1.68,1.68,0,0,0,.62-.13,2,2,0,0,0,.58-.39,2.73,2.73,0,0,0,.46-.6,3.89,3.89,0,0,0,.3-.72,3.58,3.58,0,0,0,.17-1,1.68,1.68,0,0,0-.4-1.21,1.28,1.28,0,0,0-1-.44,1.66,1.66,0,0,0-.85.22,2.33,2.33,0,0,0-.69.65,3,3,0,0,0-.45,1A4.35,4.35,0,0,0,123.38,24.59Z"/><path d="M135.43,26.05a2.36,2.36,0,0,1-1.77,1,1.77,1.77,0,0,1-1.37-.61,2.56,2.56,0,0,1-.54-1.76,4.24,4.24,0,0,1,.43-1.93,3.36,3.36,0,0,1,1.08-1.32,2.35,2.35,0,0,1,1.31-.43,1.76,1.76,0,0,1,1.63,1l.65-3.11h1l-1.66,8h-.91Zm-2.7-1.59a3.08,3.08,0,0,0,.12,1,1.24,1.24,0,0,0,.41.58,1.08,1.08,0,0,0,.69.23,1.53,1.53,0,0,0,1.21-.7,3.57,3.57,0,0,0,.73-2.29,1.51,1.51,0,0,0-.36-1.07,1.17,1.17,0,0,0-.9-.39,1.31,1.31,0,0,0-.65.16,1.77,1.77,0,0,0-.57.54,3.08,3.08,0,0,0-.49,1A3.27,3.27,0,0,0,132.73,24.46Z"/><path d="M142,24.92l1,.1a3,3,0,0,1-.95,1.36,2.68,2.68,0,0,1-1.78.64,2.38,2.38,0,0,1-1.18-.3,2,2,0,0,1-.82-.86,3,3,0,0,1-.28-1.29,4.12,4.12,0,0,1,.44-1.84,3.15,3.15,0,0,1,1.14-1.33A2.79,2.79,0,0,1,141,21a2.17,2.17,0,0,1,1.65.64,2.41,2.41,0,0,1,.62,1.76,5.27,5.27,0,0,1-.07.87H139c0,.11,0,.21,0,.3a1.85,1.85,0,0,0,.38,1.25,1.16,1.16,0,0,0,.91.42,1.78,1.78,0,0,0,1-.33A2.18,2.18,0,0,0,142,24.92Zm-2.87-1.43h3.25c0-.11,0-.18,0-.22a1.64,1.64,0,0,0-.37-1.14,1.27,1.27,0,0,0-1-.39,1.75,1.75,0,0,0-1.15.43A2.59,2.59,0,0,0,139.12,23.49Z"/><path d="M143.87,26.89l1.67-8h1l-1.66,8Z"/><path d="M149.62,24.91l1-.06a1.8,1.8,0,0,0,.13.73,1.13,1.13,0,0,0,.48.49,1.8,1.8,0,0,0,.82.19,1.51,1.51,0,0,0,1-.27.75.75,0,0,0,.33-.61.77.77,0,0,0-.2-.49,3,3,0,0,0-1-.56,8.58,8.58,0,0,1-1-.47,1.65,1.65,0,0,1-.55-.53,1.32,1.32,0,0,1-.19-.69,1.52,1.52,0,0,1,.55-1.18,2.18,2.18,0,0,1,1.53-.49,2.43,2.43,0,0,1,1.65.5,1.79,1.79,0,0,1,.6,1.33l-1,.07a1.1,1.1,0,0,0-.37-.83,1.42,1.42,0,0,0-1-.31,1.18,1.18,0,0,0-.79.24.65.65,0,0,0-.29.5.64.64,0,0,0,.25.48,4,4,0,0,0,.84.44,5.6,5.6,0,0,1,1.43.77,1.45,1.45,0,0,1,.47,1.1,1.62,1.62,0,0,1-.26.85,1.8,1.8,0,0,1-.81.66A3,3,0,0,1,152,27a2.87,2.87,0,0,1-1.7-.5A1.73,1.73,0,0,1,149.62,24.91Z"/><path d="M155.07,26.89l1.21-5.79h1l-1.21,5.79ZM156.51,20l.24-1.11h1L157.49,20Z"/><path d="M157.68,24.91l1-.06a2,2,0,0,0,.13.73,1.13,1.13,0,0,0,.48.49,1.8,1.8,0,0,0,.82.19,1.54,1.54,0,0,0,1-.27.74.74,0,0,0,.13-1.1,3.25,3.25,0,0,0-1-.56,9.53,9.53,0,0,1-1-.47,1.75,1.75,0,0,1-.55-.53,1.31,1.31,0,0,1-.18-.69,1.54,1.54,0,0,1,.54-1.18,2.2,2.2,0,0,1,1.53-.49,2.46,2.46,0,0,1,1.66.5,1.78,1.78,0,0,1,.59,1.33l-1,.07a1.06,1.06,0,0,0-.37-.83,1.41,1.41,0,0,0-1-.31,1.21,1.21,0,0,0-.8.24.64.64,0,0,0-.28.5.63.63,0,0,0,.24.48,3.92,3.92,0,0,0,.85.44,6,6,0,0,1,1.43.77,1.48,1.48,0,0,1,.47,1.1,1.55,1.55,0,0,1-.27.85,1.69,1.69,0,0,1-.81.66,2.94,2.94,0,0,1-1.27.25,2.9,2.9,0,0,1-1.71-.5A1.76,1.76,0,0,1,157.68,24.91Z"/><path d="M165.48,26.09l-.16.8a2.45,2.45,0,0,1-.69.1,1.45,1.45,0,0,1-.94-.29.76.76,0,0,1-.26-.6,6.52,6.52,0,0,1,.14-.87l.7-3.37h-.77l.15-.76h.78l.3-1.42,1.13-.68-.44,2.1h1l-.16.76h-1l-.67,3.2a6.34,6.34,0,0,0-.12.73.33.33,0,0,0,.1.27.47.47,0,0,0,.33.09A2.58,2.58,0,0,0,165.48,26.09Z"/><path d="M170.53,24.92l1,.1a3,3,0,0,1-1,1.36,2.68,2.68,0,0,1-1.78.64,2.38,2.38,0,0,1-1.18-.3,2,2,0,0,1-.82-.86,3,3,0,0,1-.28-1.29,4.12,4.12,0,0,1,.44-1.84,3.08,3.08,0,0,1,1.14-1.33,2.79,2.79,0,0,1,1.51-.43,2.17,2.17,0,0,1,1.65.64,2.45,2.45,0,0,1,.62,1.76,4.4,4.4,0,0,1-.08.87H167.5c0,.11,0,.21,0,.3a1.85,1.85,0,0,0,.37,1.25,1.19,1.19,0,0,0,.92.42,1.75,1.75,0,0,0,1-.33A2.13,2.13,0,0,0,170.53,24.92Zm-2.87-1.43h3.25v-.22a1.6,1.6,0,0,0-.37-1.14,1.24,1.24,0,0,0-.95-.39,1.73,1.73,0,0,0-1.15.43A2.59,2.59,0,0,0,167.66,23.49Z"/><path d="M172.48,26.89l1.21-5.79h1l-.2.95a3.89,3.89,0,0,1,1-.85,2,2,0,0,1,.94-.23,1.4,1.4,0,0,1,.9.28,1.42,1.42,0,0,1,.48.8,3.15,3.15,0,0,1,.93-.81,2.09,2.09,0,0,1,1-.27,1.51,1.51,0,0,1,1.08.34,1.24,1.24,0,0,1,.37,1,5.57,5.57,0,0,1-.13.88l-.78,3.73h-1l.8-3.83a3.34,3.34,0,0,0,.1-.67.58.58,0,0,0-.18-.45.75.75,0,0,0-.5-.16,1.74,1.74,0,0,0-.9.27,1.91,1.91,0,0,0-.71.7,4.71,4.71,0,0,0-.45,1.33l-.59,2.81h-1l.81-3.91a3,3,0,0,0,.09-.57.58.58,0,0,0-.18-.45.6.6,0,0,0-.46-.18,1.75,1.75,0,0,0-.88.27,2.21,2.21,0,0,0-.75.74,4.44,4.44,0,0,0-.47,1.36l-.57,2.74Z"/><path d="M185.69,26.17a4.09,4.09,0,0,1-1,.65,2.6,2.6,0,0,1-1,.2,1.78,1.78,0,0,1-1.29-.47,1.61,1.61,0,0,1-.5-1.21,1.65,1.65,0,0,1,.23-.86,1.67,1.67,0,0,1,.58-.6,2.51,2.51,0,0,1,.9-.32,9.22,9.22,0,0,1,1.26-.11,4.54,4.54,0,0,0,1.33-.19,2.44,2.44,0,0,0,.12-.67.67.67,0,0,0-.25-.54,1.62,1.62,0,0,0-1-.27,1.75,1.75,0,0,0-1,.27,1.54,1.54,0,0,0-.58.78l-1-.08a2.61,2.61,0,0,1,1-1.32,2.84,2.84,0,0,1,1.67-.46,2.61,2.61,0,0,1,1.7.51,1.22,1.22,0,0,1,.48,1,4.57,4.57,0,0,1-.14,1.08L186.83,25a5.41,5.41,0,0,0-.15,1.11,3.69,3.69,0,0,0,.12.79h-1A3.92,3.92,0,0,1,185.69,26.17Zm.36-2.21a2.55,2.55,0,0,1-.44.12c-.16,0-.42.06-.79.09a5.8,5.8,0,0,0-1.22.2,1,1,0,0,0-.53.37,1,1,0,0,0-.18.57.9.9,0,0,0,.28.68,1.16,1.16,0,0,0,.82.27,1.88,1.88,0,0,0,.94-.26,2,2,0,0,0,.72-.72A4.14,4.14,0,0,0,186.05,24Z"/><line x1="303.83" y1="62.45" x2="303.83" y2="51.39" style="fill:none;stroke:#211915;stroke-miterlimit:2;stroke-width:0.439000010490418px"/><line x1="326.11" y1="104.65" x2="309.17" y2="104.65" style="fill:none;stroke:#211915;stroke-miterlimit:2;stroke-width:0.439000010490418px"/><line x1="304.01" y1="104.74" x2="304.01" y2="65.46" style="fill:none;stroke:#174c7f;stroke-miterlimit:2;stroke-width:1.05299997329712px"/><polyline points="307.77 75.24 304.02 65.46 300.26 75.24" style="fill:none;stroke:#174c7f;stroke-linecap:round;stroke-linejoin:round;stroke-width:1.05299997329712px"/><line x1="304.01" y1="104.74" x2="304.01" y2="144.02" style="fill:none;stroke:#174c7f;stroke-miterlimit:2;stroke-width:1.05299997329712px"/><polyline points="307.77 134.24 304.02 144.02 300.26 134.24" style="fill:none;stroke:#174c7f;stroke-linecap:round;stroke-linejoin:round;stroke-width:1.05299997329712px"/><path d="M300.12,104.74a3.76,3.76,0,1,1,3.75,3.75,3.75,3.75,0,0,1-3.75-3.75" style="fill:#54c9f7"/><path d="M302,48.49l.06-.94a2.08,2.08,0,0,0,.6.09.75.75,0,0,0,.49-.14,2.31,2.31,0,0,0,.54-.68l.32-.58-1-5.9h1l.44,3c.09.58.17,1.17.23,1.76l2.63-4.74h1L304.65,47a4.1,4.1,0,0,1-1,1.29,1.53,1.53,0,0,1-1,.32A2,2,0,0,1,302,48.49Z"/><path d="M315.05,89l1.5-7.2h-2.66l.19-.92h6.4l-.2.92h-2.64l-1.5,7.2Z"/><path d="M328.29,104.83l2.56-3L329.38,99h1.11l.5,1c.18.39.35.77.5,1.13L333.18,99h1.23l-2.47,3,1.48,2.91h-1.11l-.58-1.2c-.13-.25-.27-.57-.43-.94l-1.75,2.14Z"/><path d="M252.23,17.73l1.67-8h2.41a5.37,5.37,0,0,1,1.32.13,2.49,2.49,0,0,1,1.12.6,2.77,2.77,0,0,1,.7,1.08,4.22,4.22,0,0,1,.23,1.46,5,5,0,0,1-.29,1.76,5,5,0,0,1-.76,1.39,4.19,4.19,0,0,1-1,1,3.86,3.86,0,0,1-1.22.5,6,6,0,0,1-1.31.13Zm1.26-.91h1.27a6.39,6.39,0,0,0,1.52-.16,2.16,2.16,0,0,0,.71-.29,3,3,0,0,0,.7-.64,4.35,4.35,0,0,0,.66-1.22A4.48,4.48,0,0,0,258.6,13a2.69,2.69,0,0,0-.34-1.49,1.56,1.56,0,0,0-.86-.69,4.32,4.32,0,0,0-1.2-.13h-1.42Z"/><path d="M260.13,17.73l1.21-5.79h1l-1.21,5.79Zm1.44-6.88.23-1.12h1l-.24,1.12Z"/><path d="M266.55,17a3.89,3.89,0,0,1-1,.64,2.52,2.52,0,0,1-1,.21,1.81,1.81,0,0,1-1.29-.47,1.76,1.76,0,0,1-.27-2.07,1.7,1.7,0,0,1,.59-.6,2.46,2.46,0,0,1,.89-.32,9.22,9.22,0,0,1,1.26-.11,4.23,4.23,0,0,0,1.34-.2,2.72,2.72,0,0,0,.11-.67.63.63,0,0,0-.25-.53,1.53,1.53,0,0,0-1-.28,1.69,1.69,0,0,0-1,.28,1.55,1.55,0,0,0-.58.78l-1-.09a2.62,2.62,0,0,1,1-1.32,2.94,2.94,0,0,1,1.68-.45,2.63,2.63,0,0,1,1.7.51,1.19,1.19,0,0,1,.48,1,5,5,0,0,1-.14,1.07l-.32,1.44a5.49,5.49,0,0,0-.15,1.12,4.5,4.5,0,0,0,.11.79h-1A3.16,3.16,0,0,1,266.55,17Zm.37-2.22a2.13,2.13,0,0,1-.45.13c-.15,0-.42.06-.79.09a6.63,6.63,0,0,0-1.21.19,1,1,0,0,0-.54.38,1,1,0,0,0-.18.57.91.91,0,0,0,.29.68,1.18,1.18,0,0,0,.81.26,1.93,1.93,0,0,0,.95-.25,2,2,0,0,0,.71-.73A4.38,4.38,0,0,0,266.92,14.79Z"/><path d="M268.81,18.25l1,.09a1.13,1.13,0,0,0,.08.51.64.64,0,0,0,.3.26,1.71,1.71,0,0,0,.69.12,1.6,1.6,0,0,0,1.29-.46,3.5,3.5,0,0,0,.47-1.35l.1-.47a2.29,2.29,0,0,1-1.64.78,1.9,1.9,0,0,1-1.46-.65,2.59,2.59,0,0,1-.6-1.83,3.54,3.54,0,0,1,.47-1.79,3.47,3.47,0,0,1,1.11-1.24,2.38,2.38,0,0,1,1.32-.41,1.93,1.93,0,0,1,1.76,1.08l.2-1h.9l-1.17,5.58a4.35,4.35,0,0,1-.5,1.44,2.08,2.08,0,0,1-.86.8A2.77,2.77,0,0,1,271,20a3.57,3.57,0,0,1-1.2-.18,1.47,1.47,0,0,1-.75-.52,1.31,1.31,0,0,1-.25-.8A1.5,1.5,0,0,1,268.81,18.25ZM270,15.16a2.6,2.6,0,0,0,.11.9,1.43,1.43,0,0,0,.47.64,1.08,1.08,0,0,0,.67.22,1.66,1.66,0,0,0,1-.34,2.38,2.38,0,0,0,.77-1.06,3.49,3.49,0,0,0,.3-1.36,1.59,1.59,0,0,0-.4-1.14,1.26,1.26,0,0,0-1-.42,1.47,1.47,0,0,0-.7.19,2,2,0,0,0-.63.59,2.77,2.77,0,0,0-.44.95A3.56,3.56,0,0,0,270,15.16Z"/><path d="M275.07,17.73l1.21-5.79h.87l-.24,1.18a3.82,3.82,0,0,1,.87-1,1.43,1.43,0,0,1,.88-.32,1.75,1.75,0,0,1,.72.21l-.4.91a1,1,0,0,0-.56-.18,1.52,1.52,0,0,0-1.07.58,4.3,4.3,0,0,0-.85,2.07L276,17.73Z"/><path d="M282.69,17a3.76,3.76,0,0,1-1,.64,2.44,2.44,0,0,1-1,.21,1.78,1.78,0,0,1-1.29-.47,1.76,1.76,0,0,1-.27-2.07,1.67,1.67,0,0,1,.58-.6,2.51,2.51,0,0,1,.9-.32,9.22,9.22,0,0,1,1.26-.11,4.16,4.16,0,0,0,1.33-.2,2.38,2.38,0,0,0,.12-.67.66.66,0,0,0-.25-.53,1.56,1.56,0,0,0-1-.28,1.68,1.68,0,0,0-1,.28,1.5,1.5,0,0,0-.58.78l-1-.09a2.7,2.7,0,0,1,1-1.32,2.91,2.91,0,0,1,1.67-.45,2.59,2.59,0,0,1,1.7.51,1.19,1.19,0,0,1,.48,1,4.92,4.92,0,0,1-.13,1.07l-.33,1.44a5.49,5.49,0,0,0-.15,1.12,3.87,3.87,0,0,0,.12.79h-1A3.92,3.92,0,0,1,282.69,17Zm.37-2.22a2.13,2.13,0,0,1-.45.13c-.16,0-.42.06-.79.09a6.78,6.78,0,0,0-1.22.19,1.06,1.06,0,0,0-.53.38,1,1,0,0,0-.18.57.9.9,0,0,0,.28.68,1.2,1.2,0,0,0,.82.26,1.87,1.87,0,0,0,.94-.25,2,2,0,0,0,.72-.73A4.38,4.38,0,0,0,283.06,14.79Z"/><path d="M285,17.73l1.21-5.79h1l-.2,1a3.89,3.89,0,0,1,1-.85,1.9,1.9,0,0,1,.94-.23,1.32,1.32,0,0,1,1.38,1.08,3,3,0,0,1,.93-.81,2.09,2.09,0,0,1,1-.27,1.51,1.51,0,0,1,1.08.34,1.24,1.24,0,0,1,.37,1,5.65,5.65,0,0,1-.13.89l-.78,3.73h-1l.79-3.83a3.44,3.44,0,0,0,.1-.67.57.57,0,0,0-.17-.45.74.74,0,0,0-.51-.16,1.74,1.74,0,0,0-.9.27,1.84,1.84,0,0,0-.71.7,4.59,4.59,0,0,0-.45,1.33l-.59,2.81h-1l.81-3.91a3.09,3.09,0,0,0,.09-.57.62.62,0,0,0-.18-.46.64.64,0,0,0-.46-.17,1.75,1.75,0,0,0-.88.27,2.12,2.12,0,0,0-.75.74,4.44,4.44,0,0,0-.47,1.36L286,17.73Z"/><path d="M298.2,17a3.76,3.76,0,0,1-1,.64,2.44,2.44,0,0,1-1,.21,1.78,1.78,0,0,1-1.29-.47,1.76,1.76,0,0,1-.27-2.07,1.67,1.67,0,0,1,.58-.6,2.51,2.51,0,0,1,.9-.32,9.22,9.22,0,0,1,1.26-.11,4.16,4.16,0,0,0,1.33-.2,2.38,2.38,0,0,0,.12-.67.66.66,0,0,0-.25-.53,1.56,1.56,0,0,0-1-.28,1.68,1.68,0,0,0-1,.28,1.5,1.5,0,0,0-.58.78l-1-.09a2.7,2.7,0,0,1,1-1.32,2.91,2.91,0,0,1,1.67-.45,2.61,2.61,0,0,1,1.7.51,1.19,1.19,0,0,1,.48,1,4.92,4.92,0,0,1-.13,1.07l-.33,1.44a5.49,5.49,0,0,0-.15,1.12,3.87,3.87,0,0,0,.12.79h-1A3.92,3.92,0,0,1,298.2,17Zm.37-2.22a2.13,2.13,0,0,1-.45.13c-.16,0-.42.06-.79.09a6.78,6.78,0,0,0-1.22.19,1.06,1.06,0,0,0-.53.38,1,1,0,0,0-.18.57.9.9,0,0,0,.28.68,1.2,1.2,0,0,0,.82.26,1.87,1.87,0,0,0,.94-.25,2,2,0,0,0,.72-.73A4.38,4.38,0,0,0,298.57,14.79Z"/><path d="M307.51,16.89a2.39,2.39,0,0,1-1.77,1,1.81,1.81,0,0,1-1.37-.61,2.57,2.57,0,0,1-.54-1.76,4.31,4.31,0,0,1,.43-1.94,3.33,3.33,0,0,1,1.08-1.31,2.35,2.35,0,0,1,1.31-.43,1.75,1.75,0,0,1,1.63,1l.65-3.12h1l-1.66,8h-.91Zm-2.7-1.59a3,3,0,0,0,.12.95,1.22,1.22,0,0,0,.41.59,1.08,1.08,0,0,0,.69.23,1.54,1.54,0,0,0,1.21-.7,3.57,3.57,0,0,0,.73-2.29,1.53,1.53,0,0,0-.36-1.08,1.2,1.2,0,0,0-.9-.38,1.31,1.31,0,0,0-.65.16,1.84,1.84,0,0,0-.57.53,3.26,3.26,0,0,0-.49,1A3.22,3.22,0,0,0,304.81,15.3Z"/><path d="M314.07,15.76l1,.1a3,3,0,0,1-.95,1.35,2.64,2.64,0,0,1-1.78.65,2.38,2.38,0,0,1-1.18-.3,2,2,0,0,1-.82-.86,3,3,0,0,1-.28-1.3,4.18,4.18,0,0,1,.44-1.84,3.18,3.18,0,0,1,1.14-1.32,2.79,2.79,0,0,1,1.51-.43,2.17,2.17,0,0,1,1.65.64,2.39,2.39,0,0,1,.62,1.75,5.3,5.3,0,0,1-.07.88H311c0,.11,0,.21,0,.3a1.82,1.82,0,0,0,.38,1.24,1.14,1.14,0,0,0,.91.43,1.78,1.78,0,0,0,1-.33A2.18,2.18,0,0,0,314.07,15.76Zm-2.87-1.44h3.25c0-.1,0-.17,0-.21a1.63,1.63,0,0,0-.37-1.14,1.28,1.28,0,0,0-1-.4A1.74,1.74,0,0,0,312,13,2.6,2.6,0,0,0,311.2,14.32Z"/><path d="M323.12,15.62l1,.1a3.38,3.38,0,0,1-1.05,1.61,2.51,2.51,0,0,1-1.56.53,2,2,0,0,1-1.53-.61,2.38,2.38,0,0,1-.59-1.71,4.87,4.87,0,0,1,.38-1.86,3,3,0,0,1,1.08-1.4,2.74,2.74,0,0,1,1.6-.47,2,2,0,0,1,1.47.52,1.83,1.83,0,0,1,.55,1.39l-1,.07a1.15,1.15,0,0,0-.32-.86,1.11,1.11,0,0,0-.83-.31,1.55,1.55,0,0,0-1,.37,2.61,2.61,0,0,0-.68,1.15,4.63,4.63,0,0,0-.25,1.47,1.62,1.62,0,0,0,.33,1.11,1,1,0,0,0,.81.37,1.4,1.4,0,0,0,.91-.36A2.3,2.3,0,0,0,323.12,15.62Z"/><path d="M328.66,16.68a2.92,2.92,0,0,1-2.13,1.18,1.49,1.49,0,0,1-1.08-.39,1.21,1.21,0,0,1-.41-.94,7.37,7.37,0,0,1,.18-1.25l.7-3.34h1l-.78,3.7a4.29,4.29,0,0,0-.1.72.66.66,0,0,0,.2.51.87.87,0,0,0,.59.18,1.8,1.8,0,0,0,.81-.2,2.26,2.26,0,0,0,.68-.55,2.92,2.92,0,0,0,.47-.81,7.81,7.81,0,0,0,.28-1.05l.52-2.5h1l-1.21,5.79h-.91Z"/><path d="M335.17,15.76l1,.1a2.9,2.9,0,0,1-.95,1.35,2.63,2.63,0,0,1-1.77.65,2.35,2.35,0,0,1-1.18-.3,2,2,0,0,1-.82-.86,2.86,2.86,0,0,1-.28-1.3,4,4,0,0,1,.44-1.84,3.16,3.16,0,0,1,1.13-1.32,2.81,2.81,0,0,1,1.51-.43,2.21,2.21,0,0,1,1.66.64,2.43,2.43,0,0,1,.62,1.75,5.33,5.33,0,0,1-.08.88h-4.26a1.69,1.69,0,0,0,0,.3,1.82,1.82,0,0,0,.38,1.24,1.15,1.15,0,0,0,.91.43,1.78,1.78,0,0,0,1-.33A2.11,2.11,0,0,0,335.17,15.76Zm-2.86-1.44h3.24a2,2,0,0,0,0-.21,1.58,1.58,0,0,0-.37-1.14,1.28,1.28,0,0,0-.95-.4,1.77,1.77,0,0,0-1.16.44A2.66,2.66,0,0,0,332.31,14.32Z"/><path d="M337.13,17.73l1.21-5.79h.87L339,13.12a3.82,3.82,0,0,1,.87-1,1.43,1.43,0,0,1,.88-.32,1.75,1.75,0,0,1,.72.21l-.4.91a1,1,0,0,0-.56-.18,1.52,1.52,0,0,0-1.07.58,4.3,4.3,0,0,0-.85,2.07l-.49,2.33Z"/><path d="M340.36,19.94l1.68-8H343l-.17.8a3.73,3.73,0,0,1,.9-.73,1.89,1.89,0,0,1,2.23.4,2.48,2.48,0,0,1,.54,1.72,4.33,4.33,0,0,1-.3,1.65,3.65,3.65,0,0,1-.73,1.2,3.2,3.2,0,0,1-.89.66,2,2,0,0,1-.91.22A1.78,1.78,0,0,1,342,16.8l-.65,3.14Zm1.95-4.58a2.68,2.68,0,0,0,.1.9,1.21,1.21,0,0,0,1.16.79,1.56,1.56,0,0,0,1.38-1,4,4,0,0,0,.52-1.95,1.71,1.71,0,0,0-.35-1.14,1.16,1.16,0,0,0-.88-.4,1.29,1.29,0,0,0-.69.2,1.9,1.9,0,0,0-.6.6,3.57,3.57,0,0,0-.46,1A3.42,3.42,0,0,0,342.31,15.36Z"/><path d="M347.23,15.53a4,4,0,0,1,1-2.81,2.77,2.77,0,0,1,2.16-.91,2.21,2.21,0,0,1,1.68.65,2.43,2.43,0,0,1,.65,1.77,4.28,4.28,0,0,1-.41,1.85,3,3,0,0,1-2.71,1.78,2.66,2.66,0,0,1-1.23-.29,2,2,0,0,1-.85-.82A2.53,2.53,0,0,1,347.23,15.53Zm1-.1a1.76,1.76,0,0,0,.39,1.24,1.3,1.3,0,0,0,1,.42,1.76,1.76,0,0,0,.63-.12,2.07,2.07,0,0,0,.57-.39,3,3,0,0,0,.46-.6,4.55,4.55,0,0,0,.3-.72,3.58,3.58,0,0,0,.17-1,1.73,1.73,0,0,0-.4-1.22,1.27,1.27,0,0,0-1-.43,1.66,1.66,0,0,0-.85.22,2.19,2.19,0,0,0-.68.65,2.86,2.86,0,0,0-.46,1A4.5,4.5,0,0,0,348.22,15.43Z"/><path d="M260.09,31.12l1.67-8h1l-1.67,8Z"/><path d="M262.61,31.12l1.21-5.78h1l-1.21,5.78Zm1.44-6.87.24-1.12h1L265,24.25Z"/><path d="M265.13,31.12l1.67-8h1l-.6,2.86a3.52,3.52,0,0,1,.85-.61,1.87,1.87,0,0,1,.8-.18,1.75,1.75,0,0,1,1.35.61,2.56,2.56,0,0,1,.55,1.76,4.53,4.53,0,0,1-.22,1.41,4.28,4.28,0,0,1-.54,1.07,3.4,3.4,0,0,1-.67.69,2.87,2.87,0,0,1-.7.39,2.18,2.18,0,0,1-.69.12,1.72,1.72,0,0,1-1-.3,1.94,1.94,0,0,1-.68-.92L266,31.12Zm1.46-2.37v.18a1.6,1.6,0,0,0,.35,1.13,1.15,1.15,0,0,0,.88.39,1.47,1.47,0,0,0,1-.36,2.76,2.76,0,0,0,.71-1.14,4.29,4.29,0,0,0,.28-1.41,1.66,1.66,0,0,0-.36-1.14,1.09,1.09,0,0,0-.87-.4,1.45,1.45,0,0,0-1,.41,3.11,3.11,0,0,0-.74,1.27A3.33,3.33,0,0,0,266.59,28.75Z"/><path d="M271.34,31.12l1.21-5.78h.87l-.24,1.18a4,4,0,0,1,.87-1,1.44,1.44,0,0,1,.88-.33,1.64,1.64,0,0,1,.72.22l-.4.91a1,1,0,0,0-.56-.18,1.54,1.54,0,0,0-1.07.57,4.5,4.5,0,0,0-.85,2.08l-.49,2.32Z"/><path d="M279.31,29.16l1,.09a2.88,2.88,0,0,1-.95,1.36,2.63,2.63,0,0,1-1.78.64,2.4,2.4,0,0,1-1.18-.29,2,2,0,0,1-.81-.87,2.79,2.79,0,0,1-.28-1.29A4.17,4.17,0,0,1,275.7,27a3.25,3.25,0,0,1,1.14-1.32,2.82,2.82,0,0,1,1.51-.44,2.21,2.21,0,0,1,1.66.65,2.42,2.42,0,0,1,.61,1.75,5.1,5.1,0,0,1-.07.87h-4.26a1.89,1.89,0,0,0,0,.31,1.82,1.82,0,0,0,.38,1.24,1.15,1.15,0,0,0,.91.43,1.78,1.78,0,0,0,1-.33A2.3,2.3,0,0,0,279.31,29.16Zm-2.87-1.44h3.25a2,2,0,0,0,0-.22,1.62,1.62,0,0,0-.37-1.13,1.25,1.25,0,0,0-1-.4,1.76,1.76,0,0,0-1.15.44A2.6,2.6,0,0,0,276.44,27.72Z"/><path d="M288.27,30.28a2.36,2.36,0,0,1-1.76,1,1.77,1.77,0,0,1-1.37-.6,2.55,2.55,0,0,1-.55-1.77A4.27,4.27,0,0,1,285,27a3.27,3.27,0,0,1,1.09-1.31,2.33,2.33,0,0,1,1.3-.44A1.76,1.76,0,0,1,289,26.25l.66-3.12h1l-1.67,8h-.91Zm-2.7-1.58a3,3,0,0,0,.12.95,1.19,1.19,0,0,0,.41.58,1,1,0,0,0,.69.23,1.56,1.56,0,0,0,1.22-.69,3.63,3.63,0,0,0,.73-2.29,1.53,1.53,0,0,0-.36-1.08,1.22,1.22,0,0,0-.91-.38,1.44,1.44,0,0,0-.65.15,2,2,0,0,0-.57.54,3.31,3.31,0,0,0-.48,1A3.05,3.05,0,0,0,285.57,28.7Z"/><path d="M294.83,29.16l1,.09a2.88,2.88,0,0,1-1,1.36,2.62,2.62,0,0,1-1.77.64,2.35,2.35,0,0,1-1.18-.29,1.92,1.92,0,0,1-.82-.87,2.79,2.79,0,0,1-.28-1.29,4,4,0,0,1,.44-1.84,3.16,3.16,0,0,1,1.13-1.32,2.82,2.82,0,0,1,1.51-.44,2.21,2.21,0,0,1,1.66.65,2.43,2.43,0,0,1,.62,1.75,5.12,5.12,0,0,1-.08.87h-4.26a1.89,1.89,0,0,0,0,.31,1.82,1.82,0,0,0,.38,1.24,1.15,1.15,0,0,0,.91.43,1.78,1.78,0,0,0,1-.33A2.22,2.22,0,0,0,294.83,29.16ZM292,27.72h3.25a2,2,0,0,0,0-.22,1.57,1.57,0,0,0-.37-1.13,1.25,1.25,0,0,0-1-.4,1.76,1.76,0,0,0-1.15.44A2.6,2.6,0,0,0,292,27.72Z"/><path d="M299.81,31.12l1.67-8h1l-1.67,8Z"/><path d="M306.27,30.4a4,4,0,0,1-1,.65,2.51,2.51,0,0,1-1,.2,1.77,1.77,0,0,1-1.29-.47,1.57,1.57,0,0,1-.49-1.2,1.62,1.62,0,0,1,.22-.86,1.7,1.7,0,0,1,.59-.6,2.66,2.66,0,0,1,.89-.33,9.76,9.76,0,0,1,1.26-.1,4.54,4.54,0,0,0,1.34-.2,2.8,2.8,0,0,0,.11-.67.64.64,0,0,0-.25-.54,1.59,1.59,0,0,0-1-.27,1.69,1.69,0,0,0-1,.28,1.48,1.48,0,0,0-.57.78l-1-.09a2.58,2.58,0,0,1,1-1.32,2.89,2.89,0,0,1,1.67-.46,2.58,2.58,0,0,1,1.7.52,1.19,1.19,0,0,1,.48,1,5,5,0,0,1-.14,1.07l-.32,1.44a5.49,5.49,0,0,0-.15,1.12,3.7,3.7,0,0,0,.12.78h-1A3.69,3.69,0,0,1,306.27,30.4Zm.37-2.21a2.23,2.23,0,0,1-.44.13c-.16,0-.43.06-.8.09a5.84,5.84,0,0,0-1.21.19,1,1,0,0,0-.54.38,1,1,0,0,0-.18.56.88.88,0,0,0,.29.68,1.13,1.13,0,0,0,.81.27,1.84,1.84,0,0,0,.95-.26,1.82,1.82,0,0,0,.71-.72A4.38,4.38,0,0,0,306.64,28.19Z"/><path d="M315.68,29l1,.11a3.24,3.24,0,0,1-1.05,1.61,2.51,2.51,0,0,1-1.56.52,2,2,0,0,1-1.53-.61,2.34,2.34,0,0,1-.58-1.7,4.91,4.91,0,0,1,.37-1.87,3.06,3.06,0,0,1,1.08-1.39,2.77,2.77,0,0,1,1.6-.48,2,2,0,0,1,1.48.53,1.85,1.85,0,0,1,.54,1.39l-1,.07a1.14,1.14,0,0,0-.32-.86,1.09,1.09,0,0,0-.82-.31,1.52,1.52,0,0,0-1,.37,2.52,2.52,0,0,0-.69,1.14,5,5,0,0,0-.24,1.48,1.63,1.63,0,0,0,.32,1.11,1,1,0,0,0,.81.37,1.43,1.43,0,0,0,.92-.36A2.5,2.5,0,0,0,315.68,29Z"/><path d="M321.22,30.08a2.94,2.94,0,0,1-2.14,1.17,1.52,1.52,0,0,1-1.08-.38,1.26,1.26,0,0,1-.41-.94,6.7,6.7,0,0,1,.19-1.25l.69-3.34h1l-.77,3.7a3.36,3.36,0,0,0-.1.72.66.66,0,0,0,.2.51.84.84,0,0,0,.58.18,1.8,1.8,0,0,0,.81-.2,2.14,2.14,0,0,0,.68-.55,2.69,2.69,0,0,0,.47-.81,7.81,7.81,0,0,0,.28-1.05l.52-2.5h1l-1.21,5.78H321Z"/><path d="M323.47,31.12l1.67-8h1l-.6,2.86a3.55,3.55,0,0,1,.86-.61,1.82,1.82,0,0,1,2.15.43,2.56,2.56,0,0,1,.54,1.76,4.22,4.22,0,0,1-.76,2.48,3.16,3.16,0,0,1-.67.69,2.7,2.7,0,0,1-.7.39,2.18,2.18,0,0,1-.69.12,1.74,1.74,0,0,1-1-.3,1.94,1.94,0,0,1-.68-.92l-.23,1.09Zm1.47-2.37v.18a1.64,1.64,0,0,0,.35,1.13,1.15,1.15,0,0,0,.89.39,1.47,1.47,0,0,0,.95-.36,2.66,2.66,0,0,0,.71-1.14,4.05,4.05,0,0,0,.28-1.41,1.71,1.71,0,0,0-.35-1.14,1.12,1.12,0,0,0-.87-.4,1.45,1.45,0,0,0-1,.41,3.23,3.23,0,0,0-.74,1.27A3.28,3.28,0,0,0,324.94,28.75Z"/><path d="M333.94,29.16l.95.09a2.81,2.81,0,0,1-.95,1.36,2.59,2.59,0,0,1-1.77.64A2.37,2.37,0,0,1,331,31a2,2,0,0,1-.82-.87,2.79,2.79,0,0,1-.28-1.29,4.18,4.18,0,0,1,.44-1.84,3.11,3.11,0,0,1,1.14-1.32A2.77,2.77,0,0,1,333,25.2a2.18,2.18,0,0,1,1.65.65,2.43,2.43,0,0,1,.62,1.75,5.12,5.12,0,0,1-.08.87h-4.26c0,.12,0,.22,0,.31a1.82,1.82,0,0,0,.37,1.24,1.15,1.15,0,0,0,.91.43,1.78,1.78,0,0,0,1-.33A2.32,2.32,0,0,0,333.94,29.16Zm-2.87-1.44h3.25V27.5a1.57,1.57,0,0,0-.37-1.13A1.22,1.22,0,0,0,333,26a1.79,1.79,0,0,0-1.16.44A2.66,2.66,0,0,0,331.07,27.72Z"/><path d="M338.2,30.32l-.17.81a2.71,2.71,0,0,1-.68.09,1.39,1.39,0,0,1-.94-.29.73.73,0,0,1-.26-.59,6.57,6.57,0,0,1,.14-.88l.7-3.36h-.78l.16-.76h.78l.3-1.43,1.13-.68-.44,2.11h1l-.16.76h-1l-.67,3.2a6,6,0,0,0-.12.73.36.36,0,0,0,.1.27.47.47,0,0,0,.33.09A2.1,2.1,0,0,0,338.2,30.32Z"/><path d="M342.9,30.4a3.81,3.81,0,0,1-1,.65,2.46,2.46,0,0,1-1,.2,1.74,1.74,0,0,1-1.29-.47,1.58,1.58,0,0,1-.5-1.2,1.62,1.62,0,0,1,.23-.86,1.67,1.67,0,0,1,.58-.6,2.64,2.64,0,0,1,.9-.33,9.76,9.76,0,0,1,1.26-.1,4.46,4.46,0,0,0,1.33-.2,2.44,2.44,0,0,0,.12-.67.65.65,0,0,0-.26-.54,1.59,1.59,0,0,0-1-.27,1.73,1.73,0,0,0-1,.28,1.54,1.54,0,0,0-.57.78l-1-.09a2.64,2.64,0,0,1,1-1.32,2.91,2.91,0,0,1,1.67-.46,2.56,2.56,0,0,1,1.7.52,1.19,1.19,0,0,1,.48,1,5,5,0,0,1-.14,1.07L344,29.22a5.49,5.49,0,0,0-.15,1.12,3.7,3.7,0,0,0,.12.78h-1A3.79,3.79,0,0,1,342.9,30.4Zm.36-2.21a2,2,0,0,1-.44.13c-.16,0-.42.06-.79.09a6,6,0,0,0-1.22.19,1,1,0,0,0-.53.38,1,1,0,0,0-.18.56.87.87,0,0,0,.28.68,1.14,1.14,0,0,0,.82.27,1.92,1.92,0,0,0,1.65-1A4.12,4.12,0,0,0,343.26,28.19Z"/><line x1="477.21" y1="73.78" x2="486.07" y2="71.36" style="fill:none;stroke:#272425;stroke-miterlimit:2;stroke-width:0.439000010490418px"/><line x1="437.72" y1="19.78" x2="435.79" y2="12.77" style="fill:none;stroke:#272425;stroke-miterlimit:2;stroke-width:0.439000010490418px"/><line x1="453.74" y1="144.17" x2="470.06" y2="139.72" style="fill:none;stroke:#272425;stroke-miterlimit:3.86400008201599;stroke-width:0.439000010490418px;stroke-dasharray:3.509000062942505,1.7549999952316284"/><line x1="453.74" y1="144.17" x2="437.39" y2="85.04" style="fill:none;stroke:#272425;stroke-miterlimit:3.86400008201599;stroke-width:0.439000010490418px;stroke-dasharray:3.509000062942505,1.7549999952316284"/><path d="M463.26,117.33c-1.94,1.08-5.51,1.64-8.78,1.47" style="fill:none;stroke:#211915;stroke-miterlimit:2;stroke-width:0.263000011444092px"/><path d="M460.84,120.2a11.43,11.43,0,0,1,2.42-2.87,11.33,11.33,0,0,1-3.73-.4" style="fill:none;stroke:#211915;stroke-linecap:round;stroke-linejoin:round;stroke-width:0.263000011444092px"/><path d="M489.56,68.32c1.1,1.37,3,3.2,4,4.3" style="fill:none;stroke:#211915;stroke-linecap:round;stroke-linejoin:round;stroke-width:0.439000010490418px"/><path d="M489.32,72.7a28.88,28.88,0,0,0,4.25-4.8" style="fill:none;stroke:#211915;stroke-linecap:round;stroke-linejoin:round;stroke-width:0.439000010490418px"/><path d="M491.32,73.19c.19-1.75.15-4.39.24-5.84" style="fill:none;stroke:#211915;stroke-linecap:round;stroke-linejoin:round;stroke-width:0.439000010490418px"/><path d="M494.59,70.44c-1.83.1-4-.23-6,0" style="fill:none;stroke:#211915;stroke-linecap:round;stroke-linejoin:round;stroke-width:0.439000010490418px"/><polyline points="442.99 85.58 437.39 85.03 441.92 81.69" style="fill:none;stroke:#54c9f7;stroke-linecap:round;stroke-linejoin:round;stroke-width:1.05299997329712px"/><line x1="437.39" y1="85.03" x2="454.04" y2="80.44" style="fill:none;stroke:#54c9f7;stroke-miterlimit:2;stroke-width:1.05299997329712px;stroke-dasharray:1.7549999952316284,0.8769999742507935"/><polyline points="469.06 74.25 474.66 74.79 470.13 78.14" style="fill:none;stroke:#174c7f;stroke-miterlimit:2;stroke-width:1.05299997329712px"/><line x1="474.66" y1="74.79" x2="454.09" y2="80.42" style="fill:none;stroke:#174c7f;stroke-miterlimit:2;stroke-width:1.05299997329712px"/><polyline points="466.75 135.17 470.06 139.72 470.64 134.13" style="fill:none;stroke:#54c9f7;stroke-linecap:round;stroke-linejoin:round;stroke-width:1.05299997329712px"/><line x1="470.06" y1="139.72" x2="454.09" y2="80.42" style="fill:none;stroke:#54c9f7;stroke-miterlimit:2;stroke-width:1.05299997329712px;stroke-dasharray:1.7549999952316284,0.8769999742507935"/><polyline points="441.69 26.2 438.38 21.65 437.79 27.24" style="fill:none;stroke:#174c7f;stroke-miterlimit:2;stroke-width:1.05299997329712px"/><polyline points="438.38 21.65 454.09 80.42 453.74 144.17" style="fill:none;stroke:#174c7f;stroke-miterlimit:2;stroke-width:1.05299997329712px"/><polyline points="451.75 138.9 453.74 144.17 455.78 138.93" style="fill:none;stroke:#174c7f;stroke-miterlimit:2;stroke-width:1.05299997329712px"/><path d="M457,125.23c0,.71-1.4,1.42-3.11,1.43s-3.13-.69-3.13-1.4,1.4-1.41,3.11-1.42,3.12-.72,3.12-1.42-1.42-1.41-3.13-1.4-3.12.72-3.11,1.42" style="fill:none;stroke:#211915;stroke-miterlimit:2;stroke-width:0.379999995231628px"/><path d="M456.1,80.42a2,2,0,1,1-2-2,2,2,0,0,1,2,2" style="fill:#211915"/><polyline points="457.83 114.22 460.72 106.91 467.33 105.29" style="fill:none;stroke:#211915;stroke-miterlimit:2;stroke-width:0.439000010490418px"/><path d="M414.37,72.86l.82,0a1.34,1.34,0,0,0,.11.6.83.83,0,0,0,.4.41,1.44,1.44,0,0,0,.67.16,1.26,1.26,0,0,0,.82-.22.63.63,0,0,0,.27-.51.62.62,0,0,0-.17-.4,2.55,2.55,0,0,0-.81-.47,6.32,6.32,0,0,1-.83-.39,1.33,1.33,0,0,1-.45-.43A1,1,0,0,1,415,71a1.26,1.26,0,0,1,.45-1,1.86,1.86,0,0,1,1.27-.41,2,2,0,0,1,1.37.42,1.42,1.42,0,0,1,.49,1.1l-.8,0a.89.89,0,0,0-.3-.68,1.22,1.22,0,0,0-.82-.26,1,1,0,0,0-.66.2.53.53,0,0,0-.23.42.47.47,0,0,0,.2.39,3.11,3.11,0,0,0,.7.36,4.86,4.86,0,0,1,1.18.65,1.21,1.21,0,0,1,.39.91,1.37,1.37,0,0,1-.22.7,1.46,1.46,0,0,1-.67.54,2.47,2.47,0,0,1-1.06.21,2.42,2.42,0,0,1-1.41-.41A1.46,1.46,0,0,1,414.37,72.86Z"/><path d="M422.43,72.87l.8.08a2.47,2.47,0,0,1-.79,1.13,2.19,2.19,0,0,1-1.47.53,2,2,0,0,1-1-.25,1.59,1.59,0,0,1-.67-.71,2.31,2.31,0,0,1-.23-1.07,3.43,3.43,0,0,1,.36-1.52,2.57,2.57,0,0,1,.94-1.1,2.3,2.3,0,0,1,1.25-.36,1.83,1.83,0,0,1,1.37.53,2,2,0,0,1,.51,1.46,4.56,4.56,0,0,1-.06.72h-3.53a2.5,2.5,0,0,0,0,.25,1.51,1.51,0,0,0,.31,1,1,1,0,0,0,.76.35,1.46,1.46,0,0,0,.82-.27A1.82,1.82,0,0,0,422.43,72.87Zm-2.37-1.18h2.69v-.18a1.33,1.33,0,0,0-.3-.94,1,1,0,0,0-.79-.33,1.47,1.47,0,0,0-1,.36A2.18,2.18,0,0,0,420.06,71.69Z"/><path d="M424.05,74.5l1-4.79h.74l-.17.83a4,4,0,0,1,.9-.71,1.82,1.82,0,0,1,.86-.23,1.26,1.26,0,0,1,.91.32,1.11,1.11,0,0,1,.33.84,4.56,4.56,0,0,1-.12.84l-.6,2.9h-.82l.64-3a3.58,3.58,0,0,0,.09-.65.5.5,0,0,0-.16-.39.69.69,0,0,0-.48-.15,1.58,1.58,0,0,0-1.12.46,3,3,0,0,0-.72,1.54l-.46,2.23Z"/><path d="M431.11,74.5l1-5a5.18,5.18,0,0,1-1.9.85l.15-.74a6.14,6.14,0,0,0,1.21-.64,6.9,6.9,0,0,0,.89-.68,2.68,2.68,0,0,0,.34-.44h.47l-1.38,6.64Z"/><path d="M434.67,72.61l.83-.08c0,.12,0,.19,0,.21a1.33,1.33,0,0,0,.15.6,1.09,1.09,0,0,0,.41.46,1,1,0,0,0,.55.16,1.34,1.34,0,0,0,.77-.26,1.84,1.84,0,0,0,.63-.76,2.14,2.14,0,0,0,.25-1,1.21,1.21,0,0,0-.33-.89,1.15,1.15,0,0,0-.86-.33,1.31,1.31,0,0,0-.67.17,2,2,0,0,0-.6.51l-.71,0,1-3.38h3.23l-.16.75h-2.51l-.5,1.68a2.18,2.18,0,0,1,.58-.31,2,2,0,0,1,.6-.1,1.69,1.69,0,0,1,1.25.5,1.92,1.92,0,0,1,.49,1.38,3,3,0,0,1-.34,1.4,2.38,2.38,0,0,1-.92,1,2.43,2.43,0,0,1-1.26.34,1.93,1.93,0,0,1-1-.25,1.62,1.62,0,0,1-.66-.71,2.13,2.13,0,0,1-.22-.9A.82.82,0,0,1,434.67,72.61Z"/><path d="M440.39,69a1.18,1.18,0,0,1,.37-.88,1.26,1.26,0,0,1,2.14.88,1.22,1.22,0,0,1-.37.89,1.2,1.2,0,0,1-.89.37A1.26,1.26,0,0,1,440.39,69Zm.49,0a.71.71,0,0,0,.23.54.74.74,0,0,0,1.07,0,.76.76,0,0,0,0-1.07.74.74,0,0,0-1.07,0A.7.7,0,0,0,440.88,69Z"/><path d="M477.58,141l-.56-9.22h1.25l.21,4.56c0,.22,0,.81.07,1.78,0,.26,0,.45,0,.56s0,.28,0,.62c.51-1,.88-1.78,1.11-2.21l2.81-5.31h1.27l.3,5.39c0,.62.06,1.36.07,2.23.08-.21.21-.53.41-1,.3-.68.53-1.17.68-1.46l2.62-5.2h1.26L484.39,141h-1.32l-.31-5.58c0-.48-.05-1.07-.07-1.76-.25.58-.47,1-.64,1.35l-3.19,6Z"/><path d="M489.16,141l.75-3.58a3.75,3.75,0,0,1-1.36.62l.1-.53a4.86,4.86,0,0,0,.87-.46,4.5,4.5,0,0,0,.63-.49,1.69,1.69,0,0,0,.25-.32h.34l-1,4.76Z"/><path d="M496.29,139.75l.82.09a2.75,2.75,0,0,1-.88,1.33,2,2,0,0,1-1.28.44,1.67,1.67,0,0,1-1.27-.51,1.94,1.94,0,0,1-.48-1.41,4,4,0,0,1,.31-1.54,2.38,2.38,0,0,1,.89-1.15,2.24,2.24,0,0,1,1.32-.4A1.71,1.71,0,0,1,497,137a1.52,1.52,0,0,1,.45,1.15l-.81.05a1,1,0,0,0-.26-.71.93.93,0,0,0-.68-.26,1.31,1.31,0,0,0-.86.31,2,2,0,0,0-.56.95,3.87,3.87,0,0,0-.21,1.22,1.35,1.35,0,0,0,.27.92.85.85,0,0,0,.67.31,1.15,1.15,0,0,0,.76-.31A2,2,0,0,0,496.29,139.75Z"/><path d="M497.75,139.68a3.34,3.34,0,0,1,.82-2.32,2.29,2.29,0,0,1,1.79-.76,1.88,1.88,0,0,1,1.4.54,2,2,0,0,1,.53,1.46,3.62,3.62,0,0,1-.34,1.54,2.47,2.47,0,0,1-.95,1.09,2.45,2.45,0,0,1-1.29.38,2.13,2.13,0,0,1-1-.24,1.64,1.64,0,0,1-.7-.68A2.07,2.07,0,0,1,497.75,139.68Zm.81-.08a1.47,1.47,0,0,0,.33,1,1.09,1.09,0,0,0,.82.35,1.35,1.35,0,0,0,.52-.11,1.61,1.61,0,0,0,.48-.32,2.36,2.36,0,0,0,.38-.5,2.83,2.83,0,0,0,.25-.59,3,3,0,0,0,.14-.86,1.45,1.45,0,0,0-.33-1,1.06,1.06,0,0,0-.82-.36,1.29,1.29,0,0,0-.7.19,1.77,1.77,0,0,0-.57.53,2.38,2.38,0,0,0-.38.82A3.39,3.39,0,0,0,498.56,139.6Z"/><path d="M502.82,139.86l.82-.05a1.51,1.51,0,0,0,.1.6.93.93,0,0,0,.4.41,1.48,1.48,0,0,0,.68.16,1.3,1.3,0,0,0,.81-.22.63.63,0,0,0,.27-.51.6.6,0,0,0-.16-.4,2.55,2.55,0,0,0-.81-.47,6.32,6.32,0,0,1-.83-.39,1.47,1.47,0,0,1-.46-.43,1.11,1.11,0,0,1-.15-.58,1.26,1.26,0,0,1,.45-1,1.82,1.82,0,0,1,1.26-.41,2,2,0,0,1,1.38.42,1.46,1.46,0,0,1,.49,1.1l-.8,0a.89.89,0,0,0-.31-.68,1.18,1.18,0,0,0-.81-.26,1,1,0,0,0-.66.2.55.55,0,0,0-.24.42.49.49,0,0,0,.21.39,3.2,3.2,0,0,0,.69.36,5.51,5.51,0,0,1,1.19.64,1.23,1.23,0,0,1,.39.92,1.31,1.31,0,0,1-.22.69,1.48,1.48,0,0,1-.67.55,2.47,2.47,0,0,1-1.06.21,2.42,2.42,0,0,1-1.41-.41A1.46,1.46,0,0,1,502.82,139.86Z"/><path d="M509.28,141.5l1-5a5.18,5.18,0,0,1-1.9.85l.15-.74a6.14,6.14,0,0,0,1.21-.64,6.9,6.9,0,0,0,.89-.68,2.68,2.68,0,0,0,.34-.44h.47l-1.38,6.64Z"/><path d="M512.84,139.61l.83-.08c0,.12,0,.19,0,.21a1.33,1.33,0,0,0,.15.6,1.09,1.09,0,0,0,.41.46,1,1,0,0,0,.55.16,1.34,1.34,0,0,0,.77-.26,1.94,1.94,0,0,0,.64-.76,2.28,2.28,0,0,0,.24-1,1.21,1.21,0,0,0-.33-.89,1.16,1.16,0,0,0-.86-.34,1.32,1.32,0,0,0-.67.18,2,2,0,0,0-.6.51l-.71,0,1-3.38h3.23l-.16.75h-2.51l-.5,1.68a2.18,2.18,0,0,1,.58-.31,2,2,0,0,1,.6-.1,1.69,1.69,0,0,1,1.25.5,1.92,1.92,0,0,1,.49,1.38,3,3,0,0,1-.34,1.4,2.38,2.38,0,0,1-.92,1,2.43,2.43,0,0,1-1.26.34,1.93,1.93,0,0,1-1-.25,1.73,1.73,0,0,1-.66-.71,2.13,2.13,0,0,1-.22-.9A.76.76,0,0,1,512.84,139.61Z"/><path d="M518.56,136a1.18,1.18,0,0,1,.37-.88,1.25,1.25,0,1,1,1.77,1.77,1.2,1.2,0,0,1-.89.37,1.26,1.26,0,0,1-1.25-1.26Zm.49,0a.76.76,0,0,0,1.3.54.77.77,0,0,0,0-1.08.76.76,0,0,0-1.07,0A.74.74,0,0,0,519.05,136Z"/><path d="M471.75,108.34l1.26-6a6.41,6.41,0,0,1-2.3,1l.19-.9a7.54,7.54,0,0,0,1.45-.77,6.72,6.72,0,0,0,1.08-.83,3.25,3.25,0,0,0,.41-.52h.57l-1.67,8Z"/><path d="M476.05,106.06l1-.1c0,.14,0,.23,0,.25a1.64,1.64,0,0,0,.18.73,1.44,1.44,0,0,0,.5.56,1.23,1.23,0,0,0,.66.19,1.7,1.7,0,0,0,.94-.31,2.23,2.23,0,0,0,.76-.93,2.66,2.66,0,0,0,.3-1.2,1.45,1.45,0,0,0-.4-1.07,1.37,1.37,0,0,0-1-.4,1.7,1.7,0,0,0-.82.21,2.17,2.17,0,0,0-.72.62l-.86-.06,1.21-4.09h3.9l-.19.9h-3l-.6,2a2.49,2.49,0,0,1,.7-.37,2.28,2.28,0,0,1,.73-.12,2,2,0,0,1,1.51.6,2.29,2.29,0,0,1,.58,1.66,3.64,3.64,0,0,1-.4,1.7,3,3,0,0,1-1.11,1.19,2.93,2.93,0,0,1-1.52.42,2.43,2.43,0,0,1-1.22-.31,2,2,0,0,1-.79-.86,2.44,2.44,0,0,1-.27-1.09S476.05,106.13,476.05,106.06Z"/><path d="M483,101.72a1.5,1.5,0,0,1,1.51-1.51,1.46,1.46,0,0,1,1.07.44,1.44,1.44,0,0,1,.44,1.07,1.43,1.43,0,0,1-.44,1.07,1.45,1.45,0,0,1-1.07.45,1.48,1.48,0,0,1-1.07-.44A1.5,1.5,0,0,1,483,101.72Zm.59,0a.88.88,0,0,0,.27.65.89.89,0,0,0,.65.27.92.92,0,0,0,.92-.92.89.89,0,0,0-.27-.65.88.88,0,0,0-.65-.27.92.92,0,0,0-.92.92Z"/><path d="M458.53,72.46,460,65.38h-2.63l.19-.91h6.3l-.19.91h-2.61l-1.47,7.08Z"/><path d="M447,36l1.21-5.79h.89l-.21,1a4.59,4.59,0,0,1,1.09-.87,2.18,2.18,0,0,1,1-.27,1.52,1.52,0,0,1,1.1.38,1.32,1.32,0,0,1,.4,1,6.1,6.1,0,0,1-.14,1L451.68,36h-1l.76-3.67a4.07,4.07,0,0,0,.12-.79.6.6,0,0,0-.2-.47.82.82,0,0,0-.58-.18,2,2,0,0,0-1.35.54,3.51,3.51,0,0,0-.86,1.87L448,36Z"/><path d="M432.8,10.87l.06-.93a2.06,2.06,0,0,0,.59.09.83.83,0,0,0,.49-.13,2.31,2.31,0,0,0,.52-.68l.32-.57-1-5.8h1l.44,2.92c.09.58.16,1.16.22,1.74L438,2.85h1L435.37,9.4a3.94,3.94,0,0,1-.95,1.27,1.51,1.51,0,0,1-.95.32A1.93,1.93,0,0,1,432.8,10.87Z"/><path d="M504.56,16.2l1.67-8h2.41a4.92,4.92,0,0,1,1.32.13,2.49,2.49,0,0,1,1.12.6,2.77,2.77,0,0,1,.7,1.08,4.22,4.22,0,0,1,.23,1.46,5,5,0,0,1-.29,1.76,5.16,5.16,0,0,1-.76,1.39,4.39,4.39,0,0,1-1,.95,3.86,3.86,0,0,1-1.22.5,6,6,0,0,1-1.31.12Zm1.26-.9h1.27a6.39,6.39,0,0,0,1.52-.16,2.16,2.16,0,0,0,.71-.29,2.84,2.84,0,0,0,.7-.65,4.41,4.41,0,0,0,.66-1.21,4.48,4.48,0,0,0,.25-1.56,2.69,2.69,0,0,0-.34-1.49,1.59,1.59,0,0,0-.86-.69,4.36,4.36,0,0,0-1.21-.13h-1.41Z"/><path d="M512.46,16.2l1.21-5.78h1l-1.21,5.78Zm1.44-6.87.23-1.12h1l-.24,1.12Z"/><path d="M518.88,15.49a3.89,3.89,0,0,1-1,.64,2.52,2.52,0,0,1-1,.21,1.77,1.77,0,0,1-1.29-.48,1.57,1.57,0,0,1-.49-1.2,1.62,1.62,0,0,1,.22-.86,1.7,1.7,0,0,1,.59-.6,2.66,2.66,0,0,1,.89-.33,12.09,12.09,0,0,1,1.26-.1,4.23,4.23,0,0,0,1.34-.2,2.8,2.8,0,0,0,.11-.67.65.65,0,0,0-.25-.54,1.59,1.59,0,0,0-1-.27,1.69,1.69,0,0,0-1,.28,1.55,1.55,0,0,0-.58.78l-1-.09a2.62,2.62,0,0,1,1-1.32,2.94,2.94,0,0,1,1.68-.46,2.63,2.63,0,0,1,1.7.52,1.19,1.19,0,0,1,.48,1,5,5,0,0,1-.14,1.07L520,14.3a5.49,5.49,0,0,0-.15,1.12,4.3,4.3,0,0,0,.11.78h-1A3,3,0,0,1,518.88,15.49Zm.37-2.22a2.13,2.13,0,0,1-.45.13c-.15,0-.42.06-.79.09a5.84,5.84,0,0,0-1.21.19,1,1,0,0,0-.54.38,1,1,0,0,0-.18.56.91.91,0,0,0,.29.69,1.18,1.18,0,0,0,.81.26,1.84,1.84,0,0,0,1-.26,1.89,1.89,0,0,0,.71-.72A4.38,4.38,0,0,0,519.25,13.27Z"/><path d="M521.13,16.73l1,.09a1,1,0,0,0,.08.51.64.64,0,0,0,.3.26,1.71,1.71,0,0,0,.69.12,1.63,1.63,0,0,0,1.29-.46,3.5,3.5,0,0,0,.47-1.36l.1-.47a2.29,2.29,0,0,1-1.64.78,1.93,1.93,0,0,1-1.47-.64,2.63,2.63,0,0,1-.59-1.83,3.54,3.54,0,0,1,.47-1.79,3.47,3.47,0,0,1,1.11-1.24,2.39,2.39,0,0,1,1.32-.42A1.93,1.93,0,0,1,526,11.36l.2-.94h.9L526,16a4.35,4.35,0,0,1-.5,1.44,2.14,2.14,0,0,1-.86.8,2.77,2.77,0,0,1-1.28.28,3.53,3.53,0,0,1-1.2-.18,1.47,1.47,0,0,1-.75-.52,1.31,1.31,0,0,1-.25-.8C521.11,16.93,521.12,16.83,521.13,16.73Zm1.24-3.09a2.6,2.6,0,0,0,.11.9,1.36,1.36,0,0,0,.47.64,1.14,1.14,0,0,0,.67.22,1.68,1.68,0,0,0,1-.34,2.39,2.39,0,0,0,.78-1.06,3.49,3.49,0,0,0,.3-1.36,1.57,1.57,0,0,0-.4-1.14,1.29,1.29,0,0,0-1-.42,1.36,1.36,0,0,0-.69.19,2,2,0,0,0-.63.59,2.77,2.77,0,0,0-.44,1A3.4,3.4,0,0,0,522.37,13.64Z"/><path d="M527.4,16.2l1.21-5.78h.87l-.24,1.18a3.65,3.65,0,0,1,.87-1,1.44,1.44,0,0,1,.88-.33,1.64,1.64,0,0,1,.72.22l-.4.91a1,1,0,0,0-.57-.18,1.52,1.52,0,0,0-1.06.58,4.3,4.3,0,0,0-.85,2.07l-.49,2.32Z"/><path d="M535,15.49a3.76,3.76,0,0,1-1,.64,2.44,2.44,0,0,1-1,.21,1.76,1.76,0,0,1-1.29-.48,1.57,1.57,0,0,1-.49-1.2,1.62,1.62,0,0,1,.22-.86,1.67,1.67,0,0,1,.58-.6,2.72,2.72,0,0,1,.9-.33,12.09,12.09,0,0,1,1.26-.1,4.16,4.16,0,0,0,1.33-.2,2.44,2.44,0,0,0,.12-.67.68.68,0,0,0-.25-.54,1.62,1.62,0,0,0-1-.27,1.68,1.68,0,0,0-1,.28,1.5,1.5,0,0,0-.58.78l-1-.09a2.7,2.7,0,0,1,1-1.32,2.91,2.91,0,0,1,1.67-.46,2.6,2.6,0,0,1,1.7.52,1.19,1.19,0,0,1,.48,1,4.92,4.92,0,0,1-.13,1.07l-.33,1.44a5.49,5.49,0,0,0-.15,1.12,3.7,3.7,0,0,0,.12.78h-1A3.67,3.67,0,0,1,535,15.49Zm.37-2.22a2.13,2.13,0,0,1-.45.13c-.16,0-.42.06-.79.09a6,6,0,0,0-1.22.19,1.06,1.06,0,0,0-.53.38,1,1,0,0,0-.18.56.9.9,0,0,0,.28.69,1.22,1.22,0,0,0,.82.26,1.78,1.78,0,0,0,.94-.26,1.91,1.91,0,0,0,.72-.72A4.38,4.38,0,0,0,535.39,13.27Z"/><path d="M537.32,16.2l1.21-5.78h1l-.2.95a3.69,3.69,0,0,1,1-.85,1.91,1.91,0,0,1,.94-.24,1.41,1.41,0,0,1,.9.29,1.39,1.39,0,0,1,.48.8,3.19,3.19,0,0,1,.93-.82,2.09,2.09,0,0,1,1-.27,1.51,1.51,0,0,1,1.08.35,1.27,1.27,0,0,1,.37,1,5.65,5.65,0,0,1-.13.89l-.78,3.72h-1l.8-3.82a3.44,3.44,0,0,0,.1-.67.58.58,0,0,0-.18-.45.7.7,0,0,0-.5-.16,1.82,1.82,0,0,0-.9.26,1.91,1.91,0,0,0-.71.7,4.79,4.79,0,0,0-.45,1.34l-.59,2.8h-1l.81-3.9a3.09,3.09,0,0,0,.09-.57.62.62,0,0,0-.18-.46.64.64,0,0,0-.46-.17,1.84,1.84,0,0,0-.88.26,2.24,2.24,0,0,0-.75.75,4.44,4.44,0,0,0-.47,1.36l-.57,2.73Z"/><path d="M550.53,15.49a3.76,3.76,0,0,1-1,.64,2.44,2.44,0,0,1-1,.21,1.74,1.74,0,0,1-1.29-.48,1.57,1.57,0,0,1-.49-1.2,1.62,1.62,0,0,1,.22-.86,1.67,1.67,0,0,1,.58-.6,2.72,2.72,0,0,1,.9-.33,12.09,12.09,0,0,1,1.26-.1,4.16,4.16,0,0,0,1.33-.2,2.44,2.44,0,0,0,.12-.67.68.68,0,0,0-.25-.54,1.62,1.62,0,0,0-1-.27,1.68,1.68,0,0,0-1,.28,1.5,1.5,0,0,0-.58.78l-1-.09a2.7,2.7,0,0,1,1-1.32,2.91,2.91,0,0,1,1.67-.46,2.6,2.6,0,0,1,1.7.52,1.19,1.19,0,0,1,.48,1,4.92,4.92,0,0,1-.13,1.07l-.33,1.44a5.49,5.49,0,0,0-.15,1.12,3.7,3.7,0,0,0,.12.78h-1A3.67,3.67,0,0,1,550.53,15.49Zm.37-2.22a2.13,2.13,0,0,1-.45.13c-.16,0-.42.06-.79.09a6,6,0,0,0-1.22.19,1.06,1.06,0,0,0-.53.38,1,1,0,0,0-.18.56.9.9,0,0,0,.28.69,1.2,1.2,0,0,0,.82.26,1.78,1.78,0,0,0,.94-.26,1.91,1.91,0,0,0,.72-.72A4.38,4.38,0,0,0,550.9,13.27Z"/><path d="M559.84,15.37a2.39,2.39,0,0,1-1.77,1,1.81,1.81,0,0,1-1.37-.61,2.6,2.6,0,0,1-.55-1.77,4.28,4.28,0,0,1,.44-1.93,3.33,3.33,0,0,1,1.08-1.31,2.36,2.36,0,0,1,1.31-.44,1.76,1.76,0,0,1,1.63,1.05l.65-3.12h1l-1.66,8h-.91Zm-2.7-1.59a3,3,0,0,0,.12,1,1.19,1.19,0,0,0,.4.58,1.07,1.07,0,0,0,.7.23,1.55,1.55,0,0,0,1.21-.69,3.57,3.57,0,0,0,.73-2.29,1.53,1.53,0,0,0-.36-1.08,1.2,1.2,0,0,0-.9-.38,1.41,1.41,0,0,0-.65.15,2,2,0,0,0-.57.54,3.08,3.08,0,0,0-.49,1A3.28,3.28,0,0,0,557.14,13.78Z"/><path d="M566.4,14.24l1,.1a3,3,0,0,1-1,1.35,2.64,2.64,0,0,1-1.78.65,2.38,2.38,0,0,1-1.18-.3,2,2,0,0,1-.82-.87,2.92,2.92,0,0,1-.28-1.29,4.18,4.18,0,0,1,.44-1.84,3.18,3.18,0,0,1,1.14-1.32,2.8,2.8,0,0,1,1.51-.44,2.18,2.18,0,0,1,1.65.65,2.39,2.39,0,0,1,.62,1.75,5.3,5.3,0,0,1-.07.88h-4.27c0,.11,0,.21,0,.3a1.82,1.82,0,0,0,.38,1.24,1.14,1.14,0,0,0,.91.43,1.78,1.78,0,0,0,1-.33A2.23,2.23,0,0,0,566.4,14.24Zm-2.87-1.44h3.25c0-.1,0-.17,0-.21a1.63,1.63,0,0,0-.37-1.14,1.25,1.25,0,0,0-1-.4,1.74,1.74,0,0,0-1.15.44A2.6,2.6,0,0,0,563.53,12.8Z"/><path d="M514,27.49l1,.11a3.38,3.38,0,0,1-1,1.61,2.51,2.51,0,0,1-1.56.52,2,2,0,0,1-1.53-.61,2.34,2.34,0,0,1-.58-1.7,4.87,4.87,0,0,1,.37-1.87,3,3,0,0,1,1.08-1.39,2.77,2.77,0,0,1,1.6-.48,2.06,2.06,0,0,1,1.48.53,1.85,1.85,0,0,1,.54,1.39l-1,.07a1.14,1.14,0,0,0-.32-.86,1.1,1.1,0,0,0-.82-.31,1.56,1.56,0,0,0-1,.37,2.51,2.51,0,0,0-.68,1.14,4.94,4.94,0,0,0-.25,1.48,1.64,1.64,0,0,0,.33,1.11,1,1,0,0,0,.81.37,1.37,1.37,0,0,0,.91-.37A2.34,2.34,0,0,0,514,27.49Z"/><path d="M519.55,28.56a2.9,2.9,0,0,1-2.13,1.17,1.49,1.49,0,0,1-1.08-.38,1.26,1.26,0,0,1-.41-.94,7.37,7.37,0,0,1,.18-1.25l.7-3.35h1l-.78,3.7a4.07,4.07,0,0,0-.09.72.66.66,0,0,0,.19.51.82.82,0,0,0,.59.19,1.69,1.69,0,0,0,.81-.21,2.09,2.09,0,0,0,.68-.54,2.92,2.92,0,0,0,.47-.81,7.81,7.81,0,0,0,.28-1.05l.52-2.51h1l-1.21,5.79h-.91Z"/><path d="M526.06,27.63l1,.1a2.88,2.88,0,0,1-.95,1.36,2.62,2.62,0,0,1-1.77.64,2.45,2.45,0,0,1-1.18-.29,2,2,0,0,1-.82-.87,2.84,2.84,0,0,1-.28-1.29,4,4,0,0,1,.44-1.84,3.1,3.1,0,0,1,1.13-1.32,2.82,2.82,0,0,1,1.51-.44,2.2,2.2,0,0,1,1.66.65,2.41,2.41,0,0,1,.62,1.75,5.21,5.21,0,0,1-.08.87H523a1.78,1.78,0,0,0,0,.31,1.84,1.84,0,0,0,.37,1.24,1.18,1.18,0,0,0,.91.43,1.72,1.72,0,0,0,1-.34A2.11,2.11,0,0,0,526.06,27.63ZM523.2,26.2h3.25V26a1.57,1.57,0,0,0-.37-1.13,1.24,1.24,0,0,0-1-.4,1.77,1.77,0,0,0-1.16.44A2.66,2.66,0,0,0,523.2,26.2Z"/><path d="M528,29.6l1.21-5.79h.87L529.86,25a4.07,4.07,0,0,1,.87-1,1.49,1.49,0,0,1,.88-.32,1.75,1.75,0,0,1,.72.21l-.4.92a1,1,0,0,0-.56-.18,1.54,1.54,0,0,0-1.07.57,4.39,4.39,0,0,0-.85,2.08L529,29.6Z"/><path d="M531.25,31.82l1.68-8h.91l-.17.81a3.68,3.68,0,0,1,.9-.73,1.81,1.81,0,0,1,.85-.21,1.79,1.79,0,0,1,1.38.6,2.53,2.53,0,0,1,.54,1.73,4.4,4.4,0,0,1-.3,1.65,3.76,3.76,0,0,1-.73,1.2,3.06,3.06,0,0,1-.89.66,2.12,2.12,0,0,1-.91.21,1.78,1.78,0,0,1-1.62-1.05l-.65,3.14Zm2-4.58a3,3,0,0,0,.1.9,1.3,1.3,0,0,0,.44.57,1.28,1.28,0,0,0,.72.22,1.56,1.56,0,0,0,1.38-1,4,4,0,0,0,.52-1.95,1.69,1.69,0,0,0-.35-1.14,1.12,1.12,0,0,0-.88-.4,1.21,1.21,0,0,0-.69.2,2,2,0,0,0-.6.59,3.64,3.64,0,0,0-.46,1A3.37,3.37,0,0,0,533.2,27.24Z"/><path d="M538.12,27.41a4,4,0,0,1,1-2.81,2.77,2.77,0,0,1,2.16-.92,2.25,2.25,0,0,1,1.69.66,2.42,2.42,0,0,1,.64,1.76A4.29,4.29,0,0,1,543.2,28a3.08,3.08,0,0,1-1.14,1.32,3,3,0,0,1-1.57.45,2.54,2.54,0,0,1-1.23-.29,2,2,0,0,1-.85-.81A2.56,2.56,0,0,1,538.12,27.41Zm1-.1a1.77,1.77,0,0,0,.39,1.24,1.31,1.31,0,0,0,1,.42,1.58,1.58,0,0,0,.63-.13,1.62,1.62,0,0,0,.57-.39,2.67,2.67,0,0,0,.46-.59,3.61,3.61,0,0,0,.3-.73,3.52,3.52,0,0,0,.17-1,1.75,1.75,0,0,0-.39-1.22,1.3,1.3,0,0,0-1-.43,1.6,1.6,0,0,0-.84.22,2.08,2.08,0,0,0-.69.64,2.91,2.91,0,0,0-.46,1A4.43,4.43,0,0,0,539.11,27.31Z"/><path d="M547.18,29.6l1.67-8h1l-1.67,8Z"/><path d="M549.7,29.6l1.21-5.79h1l-1.21,5.79Zm1.44-6.87.23-1.12h1l-.24,1.12Z"/><path d="M552.22,29.6l1.67-8h1l-.59,2.86a3.52,3.52,0,0,1,.85-.61,1.84,1.84,0,0,1,.8-.18,1.72,1.72,0,0,1,1.35.61,2.56,2.56,0,0,1,.54,1.76,4.42,4.42,0,0,1-.21,1.4,4.19,4.19,0,0,1-.54,1.08,3.4,3.4,0,0,1-.67.69,2.87,2.87,0,0,1-.7.39,2.19,2.19,0,0,1-.7.12,1.71,1.71,0,0,1-1-.3,1.94,1.94,0,0,1-.68-.92l-.23,1.09Zm1.46-2.37v.18a1.6,1.6,0,0,0,.36,1.13,1.15,1.15,0,0,0,.88.39,1.41,1.41,0,0,0,1-.37,2.47,2.47,0,0,0,.71-1.13,4.05,4.05,0,0,0,.28-1.41,1.66,1.66,0,0,0-.35-1.14,1.09,1.09,0,0,0-.87-.4,1.45,1.45,0,0,0-1,.41,3.05,3.05,0,0,0-.75,1.27A3.28,3.28,0,0,0,553.68,27.23Z"/><path d="M558.43,29.6l1.21-5.79h.87L560.27,25a4.07,4.07,0,0,1,.87-1,1.49,1.49,0,0,1,.88-.32,1.75,1.75,0,0,1,.72.21l-.4.92a1,1,0,0,0-.56-.18,1.54,1.54,0,0,0-1.07.57,4.39,4.39,0,0,0-.85,2.08l-.49,2.32Z"/><path d="M566.4,27.63l1,.1a3,3,0,0,1-1,1.36,2.63,2.63,0,0,1-1.78.64,2.48,2.48,0,0,1-1.18-.29,2,2,0,0,1-.82-.87,3,3,0,0,1-.28-1.29,4.15,4.15,0,0,1,.44-1.84,3.11,3.11,0,0,1,1.14-1.32,2.8,2.8,0,0,1,1.51-.44,2.18,2.18,0,0,1,1.65.65,2.37,2.37,0,0,1,.62,1.75,5.19,5.19,0,0,1-.07.87h-4.27c0,.12,0,.22,0,.31a1.84,1.84,0,0,0,.38,1.24,1.17,1.17,0,0,0,.91.43,1.72,1.72,0,0,0,1-.34A2.18,2.18,0,0,0,566.4,27.63Zm-2.87-1.43h3.25c0-.1,0-.17,0-.22a1.62,1.62,0,0,0-.37-1.13,1.25,1.25,0,0,0-1-.4,1.74,1.74,0,0,0-1.15.44A2.6,2.6,0,0,0,563.53,26.2Z"/><path d="M528.82,42.16a2.36,2.36,0,0,1-1.77,1,1.77,1.77,0,0,1-1.37-.61,2.56,2.56,0,0,1-.54-1.76,4.24,4.24,0,0,1,.43-1.93,3.26,3.26,0,0,1,1.08-1.31,2.36,2.36,0,0,1,1.31-.44,1.76,1.76,0,0,1,1.63,1l.65-3.11h1l-1.66,8h-.91Zm-2.7-1.59a3,3,0,0,0,.12,1,1.24,1.24,0,0,0,.41.58,1.08,1.08,0,0,0,.69.23,1.53,1.53,0,0,0,1.21-.7,3.57,3.57,0,0,0,.73-2.29,1.52,1.52,0,0,0-.36-1.07,1.17,1.17,0,0,0-.9-.39,1.31,1.31,0,0,0-.65.16,2,2,0,0,0-.57.54,3.08,3.08,0,0,0-.49,1A3.27,3.27,0,0,0,526.12,40.57Z"/><path d="M535.38,41l1,.1a3,3,0,0,1-1,1.36,2.63,2.63,0,0,1-1.78.64,2.38,2.38,0,0,1-1.18-.3,1.9,1.9,0,0,1-.82-.86,3,3,0,0,1-.28-1.29,4.15,4.15,0,0,1,.44-1.84,3.15,3.15,0,0,1,1.14-1.33,2.79,2.79,0,0,1,1.51-.43,2.17,2.17,0,0,1,1.65.64,2.41,2.41,0,0,1,.62,1.76,5.27,5.27,0,0,1-.07.87h-4.27c0,.11,0,.22,0,.31a1.89,1.89,0,0,0,.37,1.24,1.19,1.19,0,0,0,.92.42,1.73,1.73,0,0,0,1-.33A2.13,2.13,0,0,0,535.38,41Zm-2.87-1.43h3.25c0-.1,0-.18,0-.22a1.66,1.66,0,0,0-.37-1.14,1.27,1.27,0,0,0-1-.39,1.73,1.73,0,0,0-1.15.43A2.63,2.63,0,0,0,532.51,39.6Z"/><path d="M537.26,43l1.67-8h1l-1.66,8Z"/><path d="M546.91,40.89l1,.1a3.33,3.33,0,0,1-1,1.61,2.46,2.46,0,0,1-1.56.53,2,2,0,0,1-1.53-.61,2.38,2.38,0,0,1-.59-1.71,4.87,4.87,0,0,1,.38-1.86,3,3,0,0,1,1.08-1.39,2.75,2.75,0,0,1,1.6-.48,2,2,0,0,1,1.47.53,1.82,1.82,0,0,1,.55,1.39l-1,.06a1.17,1.17,0,0,0-.32-.86,1.15,1.15,0,0,0-.83-.31,1.56,1.56,0,0,0-1,.38,2.51,2.51,0,0,0-.68,1.14,4.63,4.63,0,0,0-.25,1.47A1.65,1.65,0,0,0,544.5,42a1.07,1.07,0,0,0,.81.37,1.37,1.37,0,0,0,.91-.37A2.26,2.26,0,0,0,546.91,40.89Z"/><path d="M552.4,42.28a4,4,0,0,1-1,.65,2.69,2.69,0,0,1-1,.2,1.81,1.81,0,0,1-1.29-.47,1.61,1.61,0,0,1-.49-1.21,1.64,1.64,0,0,1,.22-.86,1.7,1.7,0,0,1,.59-.6,2.46,2.46,0,0,1,.89-.32,9.76,9.76,0,0,1,1.26-.1,4.91,4.91,0,0,0,1.34-.2,2.8,2.8,0,0,0,.11-.67.64.64,0,0,0-.25-.54,1.59,1.59,0,0,0-1-.27,1.76,1.76,0,0,0-1,.27,1.52,1.52,0,0,0-.57.78l-1-.08a2.54,2.54,0,0,1,1-1.32,2.87,2.87,0,0,1,1.68-.46,2.63,2.63,0,0,1,1.7.51,1.23,1.23,0,0,1,.48,1,5.16,5.16,0,0,1-.14,1.07l-.32,1.44a5.5,5.5,0,0,0-.15,1.11,3.69,3.69,0,0,0,.12.79h-1A3.83,3.83,0,0,1,552.4,42.28Zm.37-2.21a3,3,0,0,1-.45.12c-.15,0-.42.06-.79.1a5.84,5.84,0,0,0-1.21.19,1,1,0,0,0-.54.37,1,1,0,0,0-.18.57.89.89,0,0,0,.29.68,1.13,1.13,0,0,0,.81.27,1.94,1.94,0,0,0,.95-.26,1.82,1.82,0,0,0,.71-.72A4.38,4.38,0,0,0,552.77,40.07Z"/><path d="M554.71,43l1.21-5.79h.87l-.24,1.18a4.43,4.43,0,0,1,.87-1,1.49,1.49,0,0,1,.88-.32,1.71,1.71,0,0,1,.72.21l-.4.92a1,1,0,0,0-.56-.19,1.56,1.56,0,0,0-1.07.58,4.5,4.5,0,0,0-.85,2.08L555.65,43Z"/><path d="M558.43,43l1.21-5.79h.87l-.24,1.18a4.19,4.19,0,0,1,.87-1,1.49,1.49,0,0,1,.88-.32,1.75,1.75,0,0,1,.72.21l-.4.92a1,1,0,0,0-.56-.19,1.56,1.56,0,0,0-1.07.58,4.39,4.39,0,0,0-.85,2.08L559.37,43Z"/><path d="M562.32,40.8a4,4,0,0,1,1-2.8,2.74,2.74,0,0,1,2.16-.92,2.26,2.26,0,0,1,1.68.65,2.42,2.42,0,0,1,.64,1.77,4.32,4.32,0,0,1-.4,1.86,3,3,0,0,1-1.15,1.31,2.86,2.86,0,0,1-1.56.46,2.66,2.66,0,0,1-1.23-.29,2,2,0,0,1-.85-.82A2.53,2.53,0,0,1,562.32,40.8Zm1-.09A1.79,1.79,0,0,0,563.7,42a1.3,1.3,0,0,0,1,.42,1.5,1.5,0,0,0,.62-.13,2,2,0,0,0,.58-.39,2.73,2.73,0,0,0,.46-.6,3.89,3.89,0,0,0,.3-.72,3.52,3.52,0,0,0,.17-1,1.71,1.71,0,0,0-.4-1.22,1.28,1.28,0,0,0-1-.44,1.76,1.76,0,0,0-.85.22,2.47,2.47,0,0,0-.69.65,3,3,0,0,0-.45,1A4.43,4.43,0,0,0,563.31,40.71Z"/></svg>