<svg id="Capa_1" data-name="Capa 1" xmlns="http://www.w3.org/2000/svg" xmlns:xlink="http://www.w3.org/1999/xlink" viewBox="0 0 288.72 210"><defs><radialGradient id="Degradado_sin_nombre_25" cx="171.62" cy="101.13" r="105.34" gradientUnits="userSpaceOnUse"><stop offset="0" stop-color="#e5a44d" stop-opacity="0.4"/><stop offset="1" stop-color="#e5a44d"/></radialGradient></defs><path d="M63.43,68.82S42.1,17.09,84.75,6.65,181,30.25,181,30.25l57.63,43.11s50.82,34.48,46.28,66.24-25.41,13.62-50.36,39-128.87,34-167.9-30.86c0,0-8.62-20-2.26-38.11S63.43,68.82,63.43,68.82Z" style="fill:url(#Degradado_sin_nombre_25)"/><line x1="9.37" y1="61.34" x2="112.05" y2="61.34" style="fill:none;stroke:#965b0c;stroke-miterlimit:10"/><path d="M3.34,61.34a30.1,30.1,0,0,1,8.55,4.76l-1.72-4.76,1.72-4.75A30.31,30.31,0,0,1,3.34,61.34Z" style="fill:#965b0c"/><line x1="120.04" y1="70.55" x2="183.42" y2="176.98" style="fill:none;stroke:#006098;stroke-miterlimit:10"/><path d="M121,72.09l4.22,0V72l-5-3.85-4.3-4.58,2,6,1,6.24.12.08Z" style="fill:#006098"/><circle cx="183.49" cy="177.39" r="4.36" style="fill:#006098"/><polyline points="82.87 10.92 114.11 61.13 211.5 61.13" style="fill:none;stroke:#00080c;stroke-linecap:round;stroke-miterlimit:10;stroke-width:0.75px;stroke-dasharray:3"/><line x1="185.51" y1="61.14" x2="185.51" y2="175.18" style="fill:none;stroke:#00080c;stroke-linecap:round;stroke-miterlimit:10;stroke-width:0.75px"/><polyline points="166.76 60.23 166.76 74.15 185.21 74.15" style="fill:none;stroke:#00080c;stroke-linecap:round;stroke-miterlimit:10;stroke-width:0.75px"/><path d="M86.18,61.19s1.16-14.51,16.33-18" style="fill:none;stroke:#00080c;stroke-linecap:round;stroke-miterlimit:10;stroke-width:0.75px"/><circle cx="114.11" cy="61.13" r="4.36" style="fill:#006098"/><path d="M78.41,43.76a10.09,10.09,0,0,1,.41-3.16A3.93,3.93,0,0,1,80,38.75a3.09,3.09,0,0,1,2-.65,3.27,3.27,0,0,1,1.56.36,3,3,0,0,1,1.11,1,5.39,5.39,0,0,1,.69,1.65,10.77,10.77,0,0,1,.25,2.62,10.1,10.1,0,0,1-.4,3.15A4,4,0,0,1,84,48.77a3.09,3.09,0,0,1-2,.65,3,3,0,0,1-2.52-1.15A7.3,7.3,0,0,1,78.41,43.76Zm1.4,0a7.06,7.06,0,0,0,.64,3.64,1.89,1.89,0,0,0,1.58.9,1.86,1.86,0,0,0,1.57-.91,6.89,6.89,0,0,0,.64-3.63,6.89,6.89,0,0,0-.64-3.63,1.88,1.88,0,0,0-1.59-.9,1.73,1.73,0,0,0-1.49.79A7,7,0,0,0,79.81,43.76Z"/><line x1="79.32" y1="43.82" x2="84.31" y2="43.82" style="fill:none;stroke:#00080c;stroke-linecap:round;stroke-miterlimit:10;stroke-width:0.75px;stroke-dasharray:3"/><rect x="11.9" y="33.77" width="8.34" height="0.69"/><path d="M20,34.12a4.78,4.78,0,0,1-1-2.93,8.76,8.76,0,0,0,3.58,2.93A9.25,9.25,0,0,0,19,37.05,4.93,4.93,0,0,1,20,34.12Z"/><path d="M11.55,49.61,13.76,39h7.39l-.37,1.77H15.56L15,43.34h5.12l-.37,1.77H14.66l-.93,4.5Z"/><rect x="120.23" y="110.38" width="8.34" height="0.69"/><path d="M128.31,110.73a4.82,4.82,0,0,1-1-2.93,8.76,8.76,0,0,0,3.58,2.93,9.22,9.22,0,0,0-3.58,2.92A4.9,4.9,0,0,1,128.31,110.73Z"/><path d="M122.6,115h1.93l-.31,1.49a3,3,0,0,1,2.34-1.67,2.4,2.4,0,0,1,1,.23l-.79,1.69a1.72,1.72,0,0,0-.6-.1,1.83,1.83,0,0,0-1.08.4,2.64,2.64,0,0,0-.86,1.08,10.92,10.92,0,0,0-.62,2.14l-.5,2.4H121Z"/><path d="M207.66,122.54h-2l.17-.83a3.76,3.76,0,0,1-1.11.78,3.16,3.16,0,0,1-1.22.23,2.48,2.48,0,0,1-1.93-.81,3.45,3.45,0,0,1-.74-2.39,5.64,5.64,0,0,1,1-3.32,3.19,3.19,0,0,1,2.74-1.49,2.57,2.57,0,0,1,2.32,1.23l.82-4h2.07Zm-4.78-3.11a1.87,1.87,0,0,0,.41,1.28,1.32,1.32,0,0,0,1,.46,1.67,1.67,0,0,0,1.05-.38,2.55,2.55,0,0,0,.78-1.18,4.29,4.29,0,0,0,.29-1.52,2,2,0,0,0-.44-1.34,1.36,1.36,0,0,0-1-.51,1.71,1.71,0,0,0-1.5,1A4.26,4.26,0,0,0,202.88,119.43Z"/><path d="M131.52,46.12h2l-.17.78a5,5,0,0,1,1.17-.74,3.1,3.1,0,0,1,1.18-.22,2.41,2.41,0,0,1,1.93.83,3.61,3.61,0,0,1,.73,2.47,5.09,5.09,0,0,1-1.26,3.49A3.32,3.32,0,0,1,134.51,54a2.54,2.54,0,0,1-2.3-1.23l-.83,4h-2.07Zm1.24,4.38a2,2,0,0,0,.44,1.39,1.33,1.33,0,0,0,1,.5,1.58,1.58,0,0,0,1-.38,2.6,2.6,0,0,0,.79-1.23,4.61,4.61,0,0,0,.31-1.59,1.88,1.88,0,0,0-.41-1.32,1.35,1.35,0,0,0-1-.46,1.6,1.6,0,0,0-1.08.43,2.75,2.75,0,0,0-.75,1.23A4.72,4.72,0,0,0,132.76,50.5Z"/><path d="M190,186.88a5.83,5.83,0,0,1,1.43-4,4,4,0,0,1,3.11-1.32,3.25,3.25,0,0,1,2.43.94,3.49,3.49,0,0,1,.92,2.54,6.28,6.28,0,0,1-.58,2.67,4.34,4.34,0,0,1-1.65,1.9,4.26,4.26,0,0,1-2.26.66,3.73,3.73,0,0,1-1.77-.42,2.87,2.87,0,0,1-1.21-1.18A3.54,3.54,0,0,1,190,186.88Zm1.42-.15a2.58,2.58,0,0,0,.56,1.79,1.91,1.91,0,0,0,1.44.61,2.24,2.24,0,0,0,.9-.19,2.59,2.59,0,0,0,.83-.56,3.71,3.71,0,0,0,.66-.86,4.83,4.83,0,0,0,.43-1,5,5,0,0,0,.24-1.49,2.55,2.55,0,0,0-.56-1.75,1.85,1.85,0,0,0-1.44-.62,2.37,2.37,0,0,0-1.21.31,3.34,3.34,0,0,0-1,.93,4.17,4.17,0,0,0-.66,1.43A6.27,6.27,0,0,0,191.4,186.73Z"/></svg>