<svg id="Capa_1" data-name="Capa 1" xmlns="http://www.w3.org/2000/svg" xmlns:xlink="http://www.w3.org/1999/xlink" viewBox="0 0 525 118.44"><defs><radialGradient id="Degradado_sin_nombre_33" cx="203.23" cy="8.1" r="26.02" gradientUnits="userSpaceOnUse"><stop offset="0" stop-color="#bfada1" stop-opacity="0.4"/><stop offset="1" stop-color="#bcaea9"/></radialGradient></defs><circle cx="124.8" cy="69.8" r="15.5" style="fill:#e5a44d;stroke:#965b0c;stroke-miterlimit:10"/><circle cx="368.47" cy="64.13" r="15.5" style="fill:#e5a44d;stroke:#965b0c;stroke-miterlimit:10"/><path d="M135,62.8C146.29,56.46,174,52,206.45,52c42.5,0,76.95,7.7,76.95,17.19S249,86.36,206.45,86.36c-33.54,0-62.07-4.79-72.61-11.48" style="fill:none;stroke:#00080c;stroke-linecap:round;stroke-miterlimit:10;stroke-width:0.75px;stroke-dasharray:3"/><line x1="158.8" y1="69.82" x2="133.2" y2="69.82" style="fill:none;stroke:#965b0c;stroke-miterlimit:10"/><path d="M127.16,69.82a30.1,30.1,0,0,0,8.55-4.76L134,69.82l1.72,4.76A30.1,30.1,0,0,0,127.16,69.82Z" style="fill:#965b0c"/><line x1="123.54" y1="84.7" x2="123.54" y2="95.42" style="fill:none;stroke:#965b0c;stroke-miterlimit:10"/><path d="M123.54,101.45a30.39,30.39,0,0,0-4.76-8.54l4.76,1.72,4.75-1.72A30.12,30.12,0,0,0,123.54,101.45Z" style="fill:#965b0c"/><line x1="367.41" y1="79.93" x2="367.41" y2="90.65" style="fill:none;stroke:#965b0c;stroke-miterlimit:10"/><path d="M367.41,96.69a30.34,30.34,0,0,0-4.76-8.55l4.76,1.72,4.75-1.72A30.31,30.31,0,0,0,367.41,96.69Z" style="fill:#965b0c"/><line x1="135.53" y1="59.78" x2="161.41" y2="41.66" style="fill:#e5a44d"/><line x1="135.53" y1="59.78" x2="156.46" y2="45.12" style="fill:none;stroke:#965b0c;stroke-miterlimit:10"/><path d="M161.41,41.66a30.08,30.08,0,0,0-4.28,8.79l-1.32-4.88-4.13-2.91A30.3,30.3,0,0,0,161.41,41.66Z" style="fill:#965b0c"/><path d="M163.43,71V66.8h.64v.64a1.73,1.73,0,0,1,.45-.59.78.78,0,0,1,.46-.14,1.36,1.36,0,0,1,.74.23l-.25.66a1,1,0,0,0-.52-.16.64.64,0,0,0-.42.15.69.69,0,0,0-.27.39,2.73,2.73,0,0,0-.12.83V71Z"/><line x1="168.05" y1="70.39" x2="202.41" y2="70.39" style="fill:#e5a44d;stroke:#965b0c;stroke-miterlimit:10"/><line x1="202.81" y1="12.18" x2="161.37" y2="42.71" style="fill:none;stroke:#000;stroke-miterlimit:10"/><line x1="203.17" y1="11.07" x2="203.17" y2="95.42" style="fill:none;stroke:#00080c;stroke-linecap:round;stroke-miterlimit:10;stroke-width:0.75px;stroke-dasharray:3"/><path d="M188.27,23.27s0,1.45,15.44,2.91" style="fill:none;stroke:#00080c;stroke-linecap:round;stroke-miterlimit:10;stroke-width:0.75px"/><path d="M119,112.08v-4.5h.68v.63a1.61,1.61,0,0,1,1.37-.74,1.49,1.49,0,0,1,.82.21,1.14,1.14,0,0,1,.45.58,1.62,1.62,0,0,1,1.39-.79,1.37,1.37,0,0,1,1,.38,1.56,1.56,0,0,1,.36,1.14v3.09h-.76v-2.84a2.52,2.52,0,0,0-.07-.66.64.64,0,0,0-.27-.32.88.88,0,0,0-.46-.12,1.06,1.06,0,0,0-.79.31,1.39,1.39,0,0,0-.31,1v2.62h-.77v-2.93a1.31,1.31,0,0,0-.18-.76.71.71,0,0,0-.61-.25,1,1,0,0,0-.6.17.93.93,0,0,0-.4.49,2.86,2.86,0,0,0-.12.94v2.34Z"/><path d="M126.1,112.45l.74.11a.7.7,0,0,0,.26.5,1.29,1.29,0,0,0,.78.21,1.4,1.4,0,0,0,.82-.21,1.07,1.07,0,0,0,.39-.59,5.24,5.24,0,0,0,0-1,1.58,1.58,0,0,1-1.25.59,1.69,1.69,0,0,1-1.43-.67,2.58,2.58,0,0,1-.51-1.61,3.11,3.11,0,0,1,.23-1.19,1.9,1.9,0,0,1,.68-.84,1.79,1.79,0,0,1,1-.3,1.61,1.61,0,0,1,1.31.65v-.54h.71v3.89a3.54,3.54,0,0,1-.22,1.49,1.56,1.56,0,0,1-.68.69,2.32,2.32,0,0,1-1.14.26,2.09,2.09,0,0,1-1.3-.37A1.22,1.22,0,0,1,126.1,112.45Zm.63-2.7a2,2,0,0,0,.35,1.29,1.16,1.16,0,0,0,1.77,0,2.4,2.4,0,0,0,0-2.51,1.15,1.15,0,0,0-.89-.42,1.08,1.08,0,0,0-.86.41A1.82,1.82,0,0,0,126.73,109.75Z"/><line x1="124.91" y1="105.84" x2="129.37" y2="105.84" style="fill:none;stroke:#000;stroke-miterlimit:10;stroke-width:0.25px"/><path d="M130.88,105.84a7.48,7.48,0,0,0-2.13,1.18l.43-1.18-.43-1.19A7.75,7.75,0,0,0,130.88,105.84Z"/><path d="M359.05,106.87V101.3h.84v.78a2.11,2.11,0,0,1,.7-.66,2,2,0,0,1,1-.25,1.88,1.88,0,0,1,1,.26,1.4,1.4,0,0,1,.56.72,2,2,0,0,1,1.72-1,1.7,1.7,0,0,1,1.27.46,2,2,0,0,1,.45,1.42v3.82h-.94v-3.51a2.55,2.55,0,0,0-.09-.81.79.79,0,0,0-.34-.41,1,1,0,0,0-.56-.15,1.33,1.33,0,0,0-1,.39,1.72,1.72,0,0,0-.39,1.25v3.24h-.94v-3.62a1.61,1.61,0,0,0-.23-.94.89.89,0,0,0-.76-.32,1.41,1.41,0,0,0-.74.21,1.28,1.28,0,0,0-.49.62A3.46,3.46,0,0,0,360,104v2.89Z"/><path d="M367.83,107.34l.92.13a.82.82,0,0,0,.32.62,1.52,1.52,0,0,0,1,.26,1.66,1.66,0,0,0,1-.26,1.25,1.25,0,0,0,.48-.73,6.3,6.3,0,0,0,.07-1.22,1.93,1.93,0,0,1-1.54.73,2.08,2.08,0,0,1-1.78-.83,3.18,3.18,0,0,1-.63-2,3.57,3.57,0,0,1,.29-1.47,2.2,2.2,0,0,1,2.12-1.41,2,2,0,0,1,1.63.8v-.67h.87v4.82a4.67,4.67,0,0,1-.26,1.84,2,2,0,0,1-.84.86,3,3,0,0,1-1.42.31,2.67,2.67,0,0,1-1.61-.44A1.5,1.5,0,0,1,367.83,107.34Zm.78-3.35a2.43,2.43,0,0,0,.44,1.6,1.39,1.39,0,0,0,1.09.5,1.42,1.42,0,0,0,1.09-.5,2.35,2.35,0,0,0,.44-1.57,2.33,2.33,0,0,0-.45-1.55,1.43,1.43,0,0,0-1.1-.51,1.36,1.36,0,0,0-1.07.51A2.28,2.28,0,0,0,368.61,104Z"/><line x1="366.35" y1="99.15" x2="372.24" y2="99.15" style="fill:none;stroke:#000;stroke-miterlimit:10;stroke-width:0.25px"/><path d="M373.75,99.15a7.67,7.67,0,0,0-2.14,1.18l.43-1.18L371.61,98A8,8,0,0,0,373.75,99.15Z"/><line x1="131.46" y1="38.69" x2="135.93" y2="38.69" style="fill:none;stroke:#000;stroke-miterlimit:10;stroke-width:0.25px"/><path d="M137.44,38.69a7.45,7.45,0,0,0-2.14,1.19l.43-1.19-.43-1.19A8,8,0,0,0,137.44,38.69Z"/><path d="M133.74,46.77V41.64h-1.92V41h4.61v.69h-1.92v5.13Z"/><path d="M168,24.54V18.73h.77v5.13h2.86v.68Z"/><path d="M191.74,30.63A5.37,5.37,0,0,1,192,29a2.05,2.05,0,0,1,.63-1,1.6,1.6,0,0,1,1-.34,1.63,1.63,0,0,1,.82.19,1.52,1.52,0,0,1,.59.54,3.09,3.09,0,0,1,.36.86,5.65,5.65,0,0,1,.13,1.38,5.34,5.34,0,0,1-.21,1.65,2.05,2.05,0,0,1-.63,1,1.75,1.75,0,0,1-2.38-.26A3.84,3.84,0,0,1,191.74,30.63Zm.73,0a3.54,3.54,0,0,0,.34,1.9.95.95,0,0,0,1.65,0,3.64,3.64,0,0,0,.34-1.9,3.68,3.68,0,0,0-.34-1.91,1,1,0,0,0-.83-.47.92.92,0,0,0-.79.42A3.61,3.61,0,0,0,192.47,30.63Z"/><line x1="192.21" y1="30.66" x2="194.83" y2="30.66" style="fill:none;stroke:#00080c;stroke-linecap:round;stroke-miterlimit:10;stroke-width:0.75px;stroke-dasharray:3"/><path d="M377.52,38.09a5.37,5.37,0,0,1,.21-1.66,2.05,2.05,0,0,1,.63-1,1.6,1.6,0,0,1,1.05-.34,1.66,1.66,0,0,1,.82.19,1.52,1.52,0,0,1,.59.54,3.09,3.09,0,0,1,.36.86,6.19,6.19,0,0,1,.13,1.38,5.34,5.34,0,0,1-.21,1.65,2.05,2.05,0,0,1-.63,1,1.75,1.75,0,0,1-2.38-.26A3.84,3.84,0,0,1,377.52,38.09Zm.73,0a3.54,3.54,0,0,0,.34,1.9,1,1,0,0,0,.82.48,1,1,0,0,0,.83-.48,3.69,3.69,0,0,0,.33-1.9,3.71,3.71,0,0,0-.33-1.91,1,1,0,0,0-.84-.47.91.91,0,0,0-.78.42A3.61,3.61,0,0,0,378.25,38.09Z"/><line x1="377.99" y1="38.12" x2="380.61" y2="38.12" style="fill:none;stroke:#00080c;stroke-linecap:round;stroke-miterlimit:10;stroke-width:0.75px;stroke-dasharray:3"/><path d="M411.52,82.47a5.37,5.37,0,0,1,.21-1.66,2.13,2.13,0,0,1,.63-1,1.61,1.61,0,0,1,1.06-.34,1.8,1.8,0,0,1,.82.18,1.6,1.6,0,0,1,.58.55,2.82,2.82,0,0,1,.36.86,5.65,5.65,0,0,1,.13,1.38,5.34,5.34,0,0,1-.21,1.65,2.05,2.05,0,0,1-.63,1,1.77,1.77,0,0,1-2.37-.26A3.77,3.77,0,0,1,411.52,82.47Zm.74,0a3.67,3.67,0,0,0,.33,1.9.95.95,0,0,0,1.65,0,5.51,5.51,0,0,0,0-3.81,1,1,0,0,0-.83-.47.94.94,0,0,0-.79.41A3.79,3.79,0,0,0,412.26,82.47Z"/><line x1="412" y1="82.5" x2="414.62" y2="82.5" style="fill:none;stroke:#00080c;stroke-linecap:round;stroke-miterlimit:10;stroke-width:0.75px;stroke-dasharray:3"/><rect x="166.67" y="3.92" width="73.12" height="8.36" style="fill:url(#Degradado_sin_nombre_33)"/><polyline points="366.74 38.61 366.74 66.55 396.27 66.55" style="fill:none;stroke:#965b0c;stroke-miterlimit:10"/><path d="M366.74,32.57A30.59,30.59,0,0,1,362,41.12l4.76-1.72,4.75,1.72A30.31,30.31,0,0,1,366.74,32.57Z" style="fill:#965b0c"/><path d="M402.3,66.55a30.31,30.31,0,0,0-8.55,4.75l1.72-4.75-1.72-4.76A30.1,30.1,0,0,0,402.3,66.55Z" style="fill:#965b0c"/><line x1="366.74" y1="66.55" x2="408.97" y2="24.32" style="fill:none;stroke:#00080c;stroke-linecap:round;stroke-miterlimit:10;stroke-width:0.75px;stroke-dasharray:3"/><path d="M367,43.69s11.56-1.2,18.05,3.85" style="fill:none;stroke:#965b0c;stroke-miterlimit:10"/><path d="M395.64,85.32V80.19h-1.92V79.5h4.61v.69H396.4v5.13Z"/><path d="M397.84,84.06l.71-.11a1,1,0,0,0,.33.65,1.4,1.4,0,0,0,1.49,0,.63.63,0,0,0,.23-.47.45.45,0,0,0-.21-.39,3.25,3.25,0,0,0-.73-.24,6.07,6.07,0,0,1-1.08-.34,1,1,0,0,1-.46-.4,1,1,0,0,1-.16-.57,1.06,1.06,0,0,1,.13-.52,1.12,1.12,0,0,1,.35-.4,1.35,1.35,0,0,1,.45-.2,2.06,2.06,0,0,1,.62-.09,2.56,2.56,0,0,1,.87.14,1.24,1.24,0,0,1,.55.39,1.43,1.43,0,0,1,.25.65l-.7.1a.75.75,0,0,0-.27-.51,1,1,0,0,0-.65-.18,1.15,1.15,0,0,0-.7.16.48.48,0,0,0-.21.38.38.38,0,0,0,.09.25.57.57,0,0,0,.27.19q.11,0,.63.18c.51.14.86.25,1.06.33a1.18,1.18,0,0,1,.47.38,1.07,1.07,0,0,1,.17.61,1.18,1.18,0,0,1-.21.67,1.33,1.33,0,0,1-.6.49,2.11,2.11,0,0,1-.89.17,2,2,0,0,1-1.25-.34A1.57,1.57,0,0,1,397.84,84.06Z"/><path d="M405.07,84l.74.09a1.82,1.82,0,0,1-.65,1,2,2,0,0,1-1.2.35,1.93,1.93,0,0,1-1.47-.57,2.22,2.22,0,0,1-.54-1.59,2.3,2.3,0,0,1,.55-1.65,1.84,1.84,0,0,1,1.42-.59,1.79,1.79,0,0,1,1.38.58,2.3,2.3,0,0,1,.53,1.61v.19h-3.14a1.58,1.58,0,0,0,.39,1.07,1.18,1.18,0,0,0,.88.37,1.07,1.07,0,0,0,.67-.21A1.37,1.37,0,0,0,405.07,84Zm-2.34-1.15h2.35a1.4,1.4,0,0,0-.27-.8,1.08,1.08,0,0,0-.89-.41,1.12,1.12,0,0,0-.82.33A1.25,1.25,0,0,0,402.73,82.81Z"/><path d="M406.7,85.32V81.11h.65v.59a1.51,1.51,0,0,1,1.34-.69,1.78,1.78,0,0,1,.7.14,1.13,1.13,0,0,1,.48.36,1.36,1.36,0,0,1,.22.52,5.11,5.11,0,0,1,0,.7v2.59h-.72V82.76a1.87,1.87,0,0,0-.08-.66.66.66,0,0,0-.3-.34.88.88,0,0,0-.49-.13,1.17,1.17,0,0,0-.79.29,1.43,1.43,0,0,0-.33,1.1v2.3Z"/><path d="M378.09,24.83a5.09,5.09,0,0,1,.22-1.66,2.12,2.12,0,0,1,.62-1,1.66,1.66,0,0,1,1.06-.34,1.68,1.68,0,0,1,.82.19,1.66,1.66,0,0,1,.58.54,2.65,2.65,0,0,1,.36.87,5.61,5.61,0,0,1,.13,1.37,5.3,5.3,0,0,1-.21,1.65,2.15,2.15,0,0,1-.62,1,1.68,1.68,0,0,1-1.06.34,1.6,1.6,0,0,1-1.32-.6A3.82,3.82,0,0,1,378.09,24.83Zm.74,0a3.71,3.71,0,0,0,.33,1.91,1,1,0,0,0,.83.47,1,1,0,0,0,.82-.47,3.61,3.61,0,0,0,.34-1.91,3.61,3.61,0,0,0-.34-1.91,1,1,0,0,0-.83-.47.92.92,0,0,0-.79.42A3.75,3.75,0,0,0,378.83,24.83Z"/><line x1="378.57" y1="24.86" x2="381.19" y2="24.86" style="fill:none;stroke:#00080c;stroke-linecap:round;stroke-miterlimit:10;stroke-width:0.75px;stroke-dasharray:3"/><path d="M362.66,27.68V22.55h-1.91v-.68h4.6v.68h-1.92v5.13Z"/><path d="M367.9,26.14l.7.09a1.82,1.82,0,0,1-.58,1.14,1.76,1.76,0,0,1-1.17.41,1.79,1.79,0,0,1-1.39-.57,2.27,2.27,0,0,1-.53-1.62,2.94,2.94,0,0,1,.23-1.19,1.58,1.58,0,0,1,.69-.77,2,2,0,0,1,1-.25,1.77,1.77,0,0,1,1.13.34,1.63,1.63,0,0,1,.56,1l-.7.11a1.08,1.08,0,0,0-.35-.64.88.88,0,0,0-.61-.22,1.08,1.08,0,0,0-.87.39,1.8,1.8,0,0,0-.34,1.22,2,2,0,0,0,.32,1.24,1.08,1.08,0,0,0,.85.38,1,1,0,0,0,.7-.26A1.25,1.25,0,0,0,367.9,26.14Z"/><path d="M369,25.58a2.2,2.2,0,0,1,.65-1.74,2,2,0,0,1,1.32-.46,1.91,1.91,0,0,1,1.42.56,2.17,2.17,0,0,1,.55,1.58,2.83,2.83,0,0,1-.24,1.28,1.7,1.7,0,0,1-.71.72,2.09,2.09,0,0,1-1,.26,1.9,1.9,0,0,1-1.43-.57A2.27,2.27,0,0,1,369,25.58Zm.73,0a1.77,1.77,0,0,0,.36,1.21,1.11,1.11,0,0,0,.88.4,1.13,1.13,0,0,0,.89-.4,1.87,1.87,0,0,0,.35-1.24,1.77,1.77,0,0,0-.35-1.18,1.13,1.13,0,0,0-.89-.4,1.11,1.11,0,0,0-.88.4A1.75,1.75,0,0,0,369.68,25.58Z"/><path d="M373.45,26.43l.7-.12a1,1,0,0,0,.33.66,1.17,1.17,0,0,0,.76.22A1.14,1.14,0,0,0,376,27a.59.59,0,0,0,.24-.47.43.43,0,0,0-.21-.38,3.46,3.46,0,0,0-.73-.24,6.05,6.05,0,0,1-1.09-.35,1,1,0,0,1-.61-1,1.14,1.14,0,0,1,.12-.52,1.16,1.16,0,0,1,.36-.4,1.58,1.58,0,0,1,.45-.21,2.07,2.07,0,0,1,.62-.08,2.34,2.34,0,0,1,.87.14,1.15,1.15,0,0,1,.55.38,1.66,1.66,0,0,1,.25.66l-.7.09a.81.81,0,0,0-.28-.51,1,1,0,0,0-.64-.18,1.14,1.14,0,0,0-.7.17.46.46,0,0,0-.21.38.39.39,0,0,0,.08.25.69.69,0,0,0,.28.19l.63.18a7.49,7.49,0,0,1,1.05.33,1.1,1.1,0,0,1,.47.37,1,1,0,0,1,.17.62,1.19,1.19,0,0,1-.2.67,1.4,1.4,0,0,1-.6.49,2.31,2.31,0,0,1-.89.17,2,2,0,0,1-1.25-.34A1.6,1.6,0,0,1,373.45,26.43Z"/></svg>