<svg id="Capa_1" data-name="Capa 1" xmlns="http://www.w3.org/2000/svg" viewBox="0 0 214.56 214.56"><rect x="41.26" y="106.48" width="144.33" height="21.67" style="fill:#e5a44d;stroke:#965b0c;stroke-miterlimit:10"/><path d="M76.51,41.94c.27,5.55,3.3,18.24,5,20,2,2,18.63,9.07,23.14,12S122.54,85,126.61,86.76c6.24,2.69,13.21,2.74,17.4,2.74s5.28.92,6.13.92,4-.19,5.51-.07,4.58,1,3.25,4.66a3.33,3.33,0,0,1,0,3.81,6.22,6.22,0,0,1-6.68,2.78,5.64,5.64,0,0,1-4.56,1c-1,.66-1.24,2.47-6.71,2.23-1.18.7-7.54,1.17-21.13,1.17s-24.9-.19-32.15-.19-11.74.19-23.18.19S49.42,100.59,48.06,93.1s.71-6.43.57-12.47c-.17-6.59-4.4-34-4.48-36.85C44,38.46,76.39,39.53,76.51,41.94Z" style="fill:#dcad8b"/><path d="M153.66,99.53a6,6,0,0,1-4.73,1c-1,.67-2.73,3.36-9,2a81.12,81.12,0,0,1-18.27,2.31H89.7c-7.25,0-11.3-.2-22.74-.2s-14.2-2.11-16.88-8.81c-2.84-7.07.3-12.09.16-18.13s-3.79-30.08-4.39-35.83c-1.08.5-1.72,1.12-1.7,1.87.08,2.83,4.31,30.26,4.48,36.85.14,6-2.27,5.05-.9,12.55s5,12.87,16.43,12.87h55.15c13.6,0,20.46-.55,21.64-1.25,5.47.24,5.74-1.57,6.71-2.23a5.64,5.64,0,0,0,4.56-1,6.22,6.22,0,0,0,6.68-2.78,3.59,3.59,0,0,0,.59-1.67C157.65,98.93,155.28,99.84,153.66,99.53Z" style="fill:#db9878"/><path d="M51.16,72.9c1.45.84,3.51,11.84,8.7,12.33a16.28,16.28,0,0,0,8.7-1.45s-4.22,5-8.7,4.71-4.71-5.07-6-7.79A55.52,55.52,0,0,1,51.16,72.9Z" style="fill:#db9878"/><path d="M133.1,91.51a9.62,9.62,0,0,0,3,.72c1.21.06,6.22-.72,7.79-.72s8.7,1.15,10,1.75,4.6.88,5,1.75a2.22,2.22,0,0,0-1.71-1.34,18.43,18.43,0,0,1-3.31-.83c-.81-.39-9.63-1.69-10.09-1.69-.71,0-7.19.78-7.67.78S133.1,91.51,133.1,91.51Z" style="fill:#bb8269"/><path d="M137.89,92.68c.52.12,4.47.16,5.36.16a19.64,19.64,0,0,1,5.31,1.65c.53.44,4.72.36,4.8,3.22s-.5,3.41-1.14,3.89c1.31-.41,1.42-2.94,1.44-3.85A3.37,3.37,0,0,0,151.89,95c-1-.34-2.56-.4-3.08-.68a29,29,0,0,0-5.26-1.77C142.74,92.56,137.89,92.68,137.89,92.68Z" style="fill:#bb8269"/><path d="M132.81,95.34c1,0,1.94-.33,4.36-.33s6,2.1,6.48,2.3,5.92.12,4,5.26a2.74,2.74,0,0,0,.42-3.57c-1.05-1.73-3.08-1.42-4.41-2.14s-3.34-2.18-5.56-2.18A31.58,31.58,0,0,0,132.81,95.34Z" style="fill:#bb8269"/><path d="M125.12,97.52a23.76,23.76,0,0,0,3.69.3c.66,0,3.11-.57,4.29-.57s2.44.85,3.41,1,3.32.9,3.32,2.72-1.27,4.41-3.65,4.44-4-.24-4.78-.24-2.68.75-4.07.75a19.13,19.13,0,0,0,4.26-.14c.86,0,3.88-.11,5.17-.14,1.11,0,3.5-2.64,3.5-4.61,0-1-2.36-2.87-3.18-3.15a10,10,0,0,0-3.29-.83c-1.3,0-4.35.32-5.1.32S125.12,97.52,125.12,97.52Z" style="fill:#bb8269"/><path d="M151.07,90.42c-1,.36-1.36,1.14.14,1.6s4.23,1.47,5.56-.15-1.38-1.81-2.36-1.77S151.07,90.42,151.07,90.42Z" style="fill:#f8e7d7"/><path d="M154.79,93.58c-.59.19-1.19,1.35-.46,1.64s2.86.64,3.26.32a1.39,1.39,0,0,0,.64-1C158.22,94.13,154.79,93.58,154.79,93.58Z" style="fill:#f8e7d7"/><path d="M149.09,94.68c-.75,0-1,1.5-.54,1.74a3.89,3.89,0,0,0,3,0c.82-.56.39-.85.21-.94A9.79,9.79,0,0,0,149.09,94.68Z" style="fill:#f8e7d7"/><path d="M144,97.75a1.74,1.74,0,0,0-1.08,2c.28.76,2.69.92,3.34.64s1-.41,1.13-1.26S144.78,97.71,144,97.75Z" style="fill:#f8e7d7"/><path d="M135.76,98.44c-.77,0-.93,1.21-.53,1.57a6.44,6.44,0,0,0,3.55.53,1.15,1.15,0,0,0,.52-1.39C139.18,98.84,136.48,98.48,135.76,98.44Z" style="fill:#f8e7d7"/><line x1="17.26" y1="128.81" x2="208.26" y2="128.81" style="fill:none;stroke:#965b0c;stroke-miterlimit:10"/><line x1="105.02" y1="17.17" x2="105.02" y2="96.13" style="fill:none;stroke:#965b0c;stroke-miterlimit:10;stroke-width:3px"/><path d="M105,94.92c3.13-3.13,9.33-4.63,13.63-4.75-5.77,4.3-10.81,9.88-13.63,16.64-2.7-6.76-8-12.1-13.64-16.64C96,90.54,101.58,91.66,105,94.92Z" style="fill:#965b0c"/><line x1="105.35" y1="204.81" x2="105.35" y2="140.85" style="fill:none;stroke:#965b0c;stroke-miterlimit:10;stroke-width:3px"/><path d="M105.35,142.06c-3.13,3.13-9.33,4.63-13.63,4.75,5.77-4.3,10.81-9.89,13.63-16.64,2.71,6.75,8.05,12.09,13.64,16.64C114.38,146.44,108.79,145.31,105.35,142.06Z" style="fill:#965b0c"/><path d="M123.82,47.09,125.51,39h3.38a3.38,3.38,0,0,1,1.32.2,1.64,1.64,0,0,1,.72.69,2.06,2.06,0,0,1,.29,1.1,2.93,2.93,0,0,1-.2,1,2.72,2.72,0,0,1-.52.85,2.33,2.33,0,0,1-1.32.76,6.42,6.42,0,0,1-1.57.19h-2l-.68,3.28Zm2-4.2h1.78a3.83,3.83,0,0,0,1.52-.22A1.87,1.87,0,0,0,130.16,41a1.28,1.28,0,0,0-.16-.65,1,1,0,0,0-.44-.37,3.51,3.51,0,0,0-1.08-.11h-2.07Z"/><path d="M135.55,45.1l1,.1a3,3,0,0,1-1,1.37,2.62,2.62,0,0,1-1.79.65,2.43,2.43,0,0,1-1.2-.3,2,2,0,0,1-.83-.87,2.9,2.9,0,0,1-.28-1.31,4.23,4.23,0,0,1,.44-1.86,3.19,3.19,0,0,1,1.15-1.34,2.78,2.78,0,0,1,1.53-.44,2.21,2.21,0,0,1,1.68.65,2.44,2.44,0,0,1,.62,1.78,5.39,5.39,0,0,1-.07.88h-4.32c0,.11,0,.22,0,.31a1.78,1.78,0,0,0,.38,1.25,1.18,1.18,0,0,0,.92.44,1.82,1.82,0,0,0,1-.34A2.16,2.16,0,0,0,135.55,45.1Zm-2.9-1.45h3.29c0-.11,0-.18,0-.22a1.61,1.61,0,0,0-.38-1.15,1.26,1.26,0,0,0-1-.41,1.75,1.75,0,0,0-1.16.45A2.59,2.59,0,0,0,132.65,43.65Z"/><path d="M137.63,45.09l1-.06a1.8,1.8,0,0,0,.13.73,1.07,1.07,0,0,0,.49.5,1.7,1.7,0,0,0,.83.19,1.6,1.6,0,0,0,1-.26.73.73,0,0,0,.14-1.12,3.38,3.38,0,0,0-1-.57,9.41,9.41,0,0,1-1-.48,1.6,1.6,0,0,1-.56-.53,1.29,1.29,0,0,1-.19-.7,1.58,1.58,0,0,1,.55-1.2,2.25,2.25,0,0,1,1.55-.49,2.45,2.45,0,0,1,1.68.51,1.78,1.78,0,0,1,.6,1.34l-1,.07a1.1,1.1,0,0,0-.37-.84,1.46,1.46,0,0,0-1-.31,1.22,1.22,0,0,0-.81.24.68.68,0,0,0-.29.51.66.66,0,0,0,.25.49,4.67,4.67,0,0,0,.86.44,6,6,0,0,1,1.45.78,1.53,1.53,0,0,1,.47,1.12,1.55,1.55,0,0,1-.27.85,1.81,1.81,0,0,1-.81.67,3.08,3.08,0,0,1-1.3.25,2.9,2.9,0,0,1-1.73-.5A1.77,1.77,0,0,1,137.63,45.09Z"/><path d="M143.36,44.87a4.1,4.1,0,0,1,1-2.85,2.8,2.8,0,0,1,2.18-.92,2.28,2.28,0,0,1,1.71.66,2.46,2.46,0,0,1,.65,1.79,4.41,4.41,0,0,1-.41,1.88,3,3,0,0,1-1.16,1.33,3,3,0,0,1-1.59.46,2.55,2.55,0,0,1-1.24-.29,2,2,0,0,1-.86-.83A2.46,2.46,0,0,1,143.36,44.87Zm1-.1a1.79,1.79,0,0,0,.4,1.25,1.31,1.31,0,0,0,1,.43,1.63,1.63,0,0,0,.64-.13,1.8,1.8,0,0,0,.58-.39,2.51,2.51,0,0,0,.46-.61,3.41,3.41,0,0,0,.31-.73,3.6,3.6,0,0,0,.17-1.05,1.74,1.74,0,0,0-.4-1.23,1.32,1.32,0,0,0-1-.44,1.63,1.63,0,0,0-.85.22,2.29,2.29,0,0,0-.7.66,2.87,2.87,0,0,0-.46,1A4.06,4.06,0,0,0,144.36,44.77Z"/><path d="M124.82,188.12l1.69-8.09h5.26l-.19.92H127.4l-.54,2.58h4.26l-.2.92h-4.25l-.77,3.67Z"/><path d="M135.59,187.06a2.94,2.94,0,0,1-2.16,1.2,1.56,1.56,0,0,1-1.1-.39,1.28,1.28,0,0,1-.41-1,6.78,6.78,0,0,1,.19-1.26l.7-3.39h1L133,186a3.52,3.52,0,0,0-.1.73.66.66,0,0,0,.2.51.81.81,0,0,0,.59.19,1.84,1.84,0,0,0,.82-.2,2.21,2.21,0,0,0,.69-.56,2.63,2.63,0,0,0,.47-.82,6.36,6.36,0,0,0,.29-1.07l.53-2.53h1l-1.22,5.86h-.92Z"/><path d="M142.18,186.13l1,.1a3,3,0,0,1-1,1.38,2.67,2.67,0,0,1-1.8.65,2.42,2.42,0,0,1-1.19-.3,2,2,0,0,1-.83-.88,2.9,2.9,0,0,1-.29-1.31,4.11,4.11,0,0,1,.45-1.86,3.13,3.13,0,0,1,1.15-1.34,2.86,2.86,0,0,1,1.53-.44,2.22,2.22,0,0,1,1.67.65,2.45,2.45,0,0,1,.63,1.78,5.43,5.43,0,0,1-.08.88h-4.31a2.12,2.12,0,0,0,.35,1.57,1.21,1.21,0,0,0,.93.43,1.75,1.75,0,0,0,1-.34A2.16,2.16,0,0,0,142.18,186.13Zm-2.9-1.45h3.29v-.22a1.61,1.61,0,0,0-.37-1.15,1.27,1.27,0,0,0-1-.4,1.74,1.74,0,0,0-1.17.44A2.62,2.62,0,0,0,139.28,184.68Z"/><path d="M144.16,188.12l1.23-5.86h.88l-.25,1.2a4.16,4.16,0,0,1,.89-1,1.49,1.49,0,0,1,.88-.32,1.79,1.79,0,0,1,.74.21l-.41.93a1,1,0,0,0-.57-.19,1.56,1.56,0,0,0-1.08.59,4.53,4.53,0,0,0-.86,2.1l-.5,2.35Z"/><path d="M147.77,188.12l.16-.77,3.15-3.55q.34-.37.75-.78c-.47,0-.81.07-1,.07h-2.18l.18-.83h4.53l-.13.63L150,186.46q-.27.3-.81.84c.56,0,.94-.05,1.15-.05h2.3l-.18.87Z"/><path d="M157.53,187.4a4.33,4.33,0,0,1-1,.65,2.53,2.53,0,0,1-1,.21,1.78,1.78,0,0,1-1.3-.48,1.64,1.64,0,0,1-.5-1.22,1.68,1.68,0,0,1,.82-1.48,2.72,2.72,0,0,1,.9-.33,10.19,10.19,0,0,1,1.28-.1,4.93,4.93,0,0,0,1.35-.2,2.56,2.56,0,0,0,.12-.68.66.66,0,0,0-.26-.55,1.62,1.62,0,0,0-1-.27,1.79,1.79,0,0,0-1,.27,1.62,1.62,0,0,0-.59.8l-1-.09a2.72,2.72,0,0,1,1-1.34,2.91,2.91,0,0,1,1.7-.46,2.62,2.62,0,0,1,1.72.52,1.21,1.21,0,0,1,.48,1,5.09,5.09,0,0,1-.13,1.09l-.33,1.46a5.58,5.58,0,0,0-.15,1.13,3.78,3.78,0,0,0,.12.79h-1A3.16,3.16,0,0,1,157.53,187.4Zm.37-2.25a2.13,2.13,0,0,1-.45.13c-.16,0-.43.06-.8.09a6.7,6.7,0,0,0-1.23.2,1,1,0,0,0-.54.38,1,1,0,0,0,.1,1.26,1.18,1.18,0,0,0,.83.27,1.81,1.81,0,0,0,.95-.26,1.9,1.9,0,0,0,.73-.73A4.44,4.44,0,0,0,157.9,185.15Z"/><path d="M167,187.27a2.41,2.41,0,0,1-1.79,1,1.79,1.79,0,0,1-1.39-.62,2.56,2.56,0,0,1-.55-1.78,4.25,4.25,0,0,1,.44-2,3.27,3.27,0,0,1,1.09-1.33,2.4,2.4,0,0,1,1.33-.44,1.77,1.77,0,0,1,1.65,1.05l.66-3.15h1l-1.69,8.09h-.92Zm-2.74-1.6a3,3,0,0,0,.12,1,1.19,1.19,0,0,0,.42.59,1,1,0,0,0,.7.24,1.58,1.58,0,0,0,1.23-.71,3.66,3.66,0,0,0,.74-2.32,1.52,1.52,0,0,0-.37-1.09,1.18,1.18,0,0,0-.91-.39,1.34,1.34,0,0,0-.66.16,2,2,0,0,0-.58.54,3.33,3.33,0,0,0-.49,1A3.38,3.38,0,0,0,164.22,185.67Z"/><path d="M173.6,186.13l1,.1a3,3,0,0,1-1,1.38,2.67,2.67,0,0,1-1.8.65,2.42,2.42,0,0,1-1.19-.3,2,2,0,0,1-.83-.88,2.9,2.9,0,0,1-.29-1.31,4.11,4.11,0,0,1,.45-1.86,3.19,3.19,0,0,1,1.15-1.34,2.86,2.86,0,0,1,1.53-.44,2.21,2.21,0,0,1,1.67.65,2.45,2.45,0,0,1,.63,1.78,5.43,5.43,0,0,1-.08.88h-4.31a2.12,2.12,0,0,0,.35,1.57,1.21,1.21,0,0,0,.93.43,1.75,1.75,0,0,0,1-.34A2.16,2.16,0,0,0,173.6,186.13Zm-2.9-1.45H174v-.22a1.61,1.61,0,0,0-.37-1.15,1.27,1.27,0,0,0-1-.4,1.74,1.74,0,0,0-1.17.44A2.62,2.62,0,0,0,170.7,184.68Z"/><path d="M125.1,199.07l1.06-.1v.29a1.76,1.76,0,0,0,.21.85,1.47,1.47,0,0,0,.72.61,3,3,0,0,0,1.18.21,2.22,2.22,0,0,0,1.48-.43,1.23,1.23,0,0,0,.51-1,1,1,0,0,0-.27-.69,4.92,4.92,0,0,0-1.51-.84,11.13,11.13,0,0,1-1.3-.64,2.76,2.76,0,0,1-.81-.78,1.82,1.82,0,0,1-.26-1,2,2,0,0,1,.35-1.13,2.14,2.14,0,0,1,1-.77,4.08,4.08,0,0,1,1.49-.26,3.78,3.78,0,0,1,1.66.33,2.16,2.16,0,0,1,1.29,1.94v.16l-1,.09a1.91,1.91,0,0,0-.06-.54,1.52,1.52,0,0,0-.35-.57,1.59,1.59,0,0,0-.63-.37,2.9,2.9,0,0,0-.91-.14,2.12,2.12,0,0,0-1.38.4,1,1,0,0,0-.37.8,1,1,0,0,0,.15.54,1.72,1.72,0,0,0,.56.46c.19.1.65.31,1.36.63a9.2,9.2,0,0,1,1.21.61,2.09,2.09,0,0,1,.68.71,2,2,0,0,1,.23.94,2,2,0,0,1-.4,1.22,2.5,2.5,0,0,1-1.1.85,3.94,3.94,0,0,1-1.62.31,3.88,3.88,0,0,1-2.25-.6A2.44,2.44,0,0,1,125.1,199.07Z"/><path d="M132.4,199.47a4.07,4.07,0,0,1,1-2.85,2.77,2.77,0,0,1,2.18-.92,2.28,2.28,0,0,1,1.71.66,2.46,2.46,0,0,1,.65,1.79,4.41,4.41,0,0,1-.41,1.88,3,3,0,0,1-1.16,1.33,3,3,0,0,1-1.59.46,2.58,2.58,0,0,1-1.24-.29,2,2,0,0,1-.86-.83A2.57,2.57,0,0,1,132.4,199.47Zm1-.1a1.78,1.78,0,0,0,.39,1.25,1.32,1.32,0,0,0,1,.43,1.59,1.59,0,0,0,.64-.13,2,2,0,0,0,.58-.39,2.55,2.55,0,0,0,.47-.61,4,4,0,0,0,.3-.73,3.34,3.34,0,0,0,.17-1.05,1.74,1.74,0,0,0-.4-1.23,1.26,1.26,0,0,0-1-.44,1.67,1.67,0,0,0-.86.22,2.29,2.29,0,0,0-.7.66,2.87,2.87,0,0,0-.46,1A4.51,4.51,0,0,0,133.4,199.37Z"/><path d="M138.6,199.69l1-.06a2,2,0,0,0,.13.73,1.07,1.07,0,0,0,.49.5,1.72,1.72,0,0,0,.83.19,1.57,1.57,0,0,0,1-.27.77.77,0,0,0,.33-.62.75.75,0,0,0-.2-.49,3.17,3.17,0,0,0-1-.57,10.55,10.55,0,0,1-1-.48,1.69,1.69,0,0,1-.56-.53,1.39,1.39,0,0,1-.19-.71,1.55,1.55,0,0,1,.56-1.19,2.21,2.21,0,0,1,1.54-.49,2.45,2.45,0,0,1,1.68.51,1.73,1.73,0,0,1,.6,1.34l-1,.07a1.11,1.11,0,0,0-.38-.84,1.46,1.46,0,0,0-1-.31,1.24,1.24,0,0,0-.81.24.64.64,0,0,0-.28.51.59.59,0,0,0,.25.48,3.79,3.79,0,0,0,.85.45,5.78,5.78,0,0,1,1.45.78,1.53,1.53,0,0,1,.47,1.12,1.62,1.62,0,0,1-.26.85,1.91,1.91,0,0,1-.82.67,3.08,3.08,0,0,1-1.3.25,2.93,2.93,0,0,1-1.72-.5A1.78,1.78,0,0,1,138.6,199.69Z"/><path d="M146.5,200.88l-.17.82a2.86,2.86,0,0,1-.7.09,1.49,1.49,0,0,1-.95-.29.76.76,0,0,1-.26-.6,6.62,6.62,0,0,1,.14-.89l.72-3.41h-.79l.16-.77h.79l.3-1.44,1.14-.69-.45,2.13h1l-.17.77h-1l-.67,3.24a5.28,5.28,0,0,0-.13.74.33.33,0,0,0,.1.27.51.51,0,0,0,.34.1A2.65,2.65,0,0,0,146.5,200.88Z"/><path d="M151.61,199.7l1,.1a2.93,2.93,0,0,1-1,1.37,2.66,2.66,0,0,1-1.8.65,2.46,2.46,0,0,1-1.2-.3,2,2,0,0,1-.82-.87,2.93,2.93,0,0,1-.29-1.31,4.11,4.11,0,0,1,.45-1.86,3.16,3.16,0,0,1,1.15-1.35,2.86,2.86,0,0,1,1.53-.43,2.18,2.18,0,0,1,1.67.65,2.42,2.42,0,0,1,.63,1.77,5.45,5.45,0,0,1-.08.89h-4.32c0,.11,0,.21,0,.31a1.87,1.87,0,0,0,.38,1.25,1.18,1.18,0,0,0,.93.44,1.85,1.85,0,0,0,1-.34A2.28,2.28,0,0,0,151.61,199.7Zm-2.91-1.45H152c0-.11,0-.18,0-.22a1.59,1.59,0,0,0-.38-1.16,1.28,1.28,0,0,0-1-.4,1.79,1.79,0,0,0-1.17.44A2.74,2.74,0,0,0,148.7,198.25Zm1.38-3.13,1-1.52h1.26l-1.47,1.52Z"/><path d="M153.59,201.69l1.22-5.86h.91l-.22,1a4.93,4.93,0,0,1,1.11-.88,2.22,2.22,0,0,1,1-.27,1.57,1.57,0,0,1,1.12.38,1.36,1.36,0,0,1,.4,1,6.27,6.27,0,0,1-.14,1l-.75,3.55h-1l.78-3.71a4.22,4.22,0,0,0,.12-.81.62.62,0,0,0-.2-.47.87.87,0,0,0-.59-.18,1.94,1.94,0,0,0-1.36.55,3.48,3.48,0,0,0-.88,1.89l-.57,2.73Z"/></svg>