<svg id="Capa_1" data-name="Capa 1" xmlns="http://www.w3.org/2000/svg" viewBox="0 0 204 195"><line x1="17.59" y1="66.28" x2="17.59" y2="171.45" style="fill:none;stroke:#006098;stroke-miterlimit:10"/><path d="M17.59,60.25a30.12,30.12,0,0,1-4.75,8.54l4.75-1.72,4.76,1.72A30.15,30.15,0,0,1,17.59,60.25Z" style="fill:#006098"/><path d="M17.59,177.49a30.18,30.18,0,0,0-4.75-8.55l4.75,1.72,4.76-1.72A30.2,30.2,0,0,0,17.59,177.49Z" style="fill:#006098"/><line x1="165.26" y1="98.17" x2="165.26" y2="158.11" style="fill:none;stroke:#006098;stroke-miterlimit:10"/><path d="M165.26,92.13a30.45,30.45,0,0,1-4.76,8.55L165.26,99l4.75,1.72A30.18,30.18,0,0,1,165.26,92.13Z" style="fill:#006098"/><path d="M165.26,164.14a30.39,30.39,0,0,0-4.76-8.54l4.76,1.72L170,155.6A30.12,30.12,0,0,0,165.26,164.14Z" style="fill:#006098"/><line x1="17.69" y1="121.32" x2="41.93" y2="121.32" style="fill:none;stroke:#006098;stroke-miterlimit:10"/><path d="M48,121.32a30.34,30.34,0,0,0-8.55,4.76l1.72-4.76-1.72-4.75A30.31,30.31,0,0,0,48,121.32Z" style="fill:#006098"/><line x1="40.91" y1="93.54" x2="65.15" y2="93.54" style="fill:none;stroke:#000;stroke-miterlimit:10"/><path d="M71.18,93.54a29.91,29.91,0,0,0-8.54,4.76l1.72-4.76-1.72-4.76A29.91,29.91,0,0,0,71.18,93.54Z"/><line x1="167.22" y1="120.08" x2="187.22" y2="120.08" style="fill:none;stroke:#006098;stroke-miterlimit:10"/><line x1="51.54" y1="121.61" x2="61.81" y2="121.61" style="fill:none;stroke:#000;stroke-miterlimit:10"/><line x1="165.18" y1="167.84" x2="165.18" y2="178.12" style="fill:none;stroke:#000;stroke-miterlimit:10"/><path d="M16.73,44.8h1.93l.49,3.58c.12.91.19,1.56.2,1.93a15.4,15.4,0,0,1,1-2.33l1.72-3.18h2.05l-4.43,7.88a11.71,11.71,0,0,1-.86,1.37,2.17,2.17,0,0,1-1.82.84,5,5,0,0,1-1.39-.22l.17-1.44a2.73,2.73,0,0,0,.68.1q.9,0,1.47-1.35Z"/><path d="M162.53,181.23h1.94l.48,3.57c.12.92.19,1.56.21,1.93a14.78,14.78,0,0,1,1-2.32l1.71-3.18H170l-4.44,7.88a10.48,10.48,0,0,1-.86,1.37,2.32,2.32,0,0,1-.75.61,2.35,2.35,0,0,1-1.07.23,5.31,5.31,0,0,1-1.38-.22l.17-1.45a2.33,2.33,0,0,0,.68.1c.59,0,1.08-.45,1.46-1.35Z"/><path d="M27.39,159.27h1.83l-.18.87a3.21,3.21,0,0,1,2.24-1,2,2,0,0,1,1.25.34,1.52,1.52,0,0,1,.56.93,2.83,2.83,0,0,1,1.07-.9,3,3,0,0,1,1.44-.37,1.83,1.83,0,0,1,1.34.46,1.61,1.61,0,0,1,.48,1.22,7,7,0,0,1-.19,1.28l-.92,4.39H34.37l.92-4.39a8,8,0,0,0,.17-.93.61.61,0,0,0-.18-.47.72.72,0,0,0-.53-.17,1.58,1.58,0,0,0-1.29.76,5.12,5.12,0,0,0-.71,1.94l-.68,3.26H30.13l.91-4.34a6.75,6.75,0,0,0,.15-1,.61.61,0,0,0-.19-.47.76.76,0,0,0-.53-.18,1.33,1.33,0,0,0-.66.19,1.93,1.93,0,0,0-.59.52,2.93,2.93,0,0,0-.43.85,10,10,0,0,0-.27,1.1l-.69,3.3H25.89Z"/><path d="M38.54,163.57l.18-.88a5.85,5.85,0,0,0,2-1.29h.6l-1.05,5h-1L40,163a4.3,4.3,0,0,1-.71.37A6.46,6.46,0,0,1,38.54,163.57Z"/><path d="M42,165.29l.92-.07a.75.75,0,0,0,.14.41.41.41,0,0,0,.31.12.59.59,0,0,0,.44-.2,2,2,0,0,0,.45-.91,1.31,1.31,0,0,1-1.63-.19,1.49,1.49,0,0,1-.37-1.08,2.11,2.11,0,0,1,.48-1.36,1.56,1.56,0,0,1,1.28-.6,1.24,1.24,0,0,1,1.07.52,2.29,2.29,0,0,1,.38,1.39,4.12,4.12,0,0,1-.6,2.28,1.8,1.8,0,0,1-1.57.93,1.24,1.24,0,0,1-.91-.33A1.33,1.33,0,0,1,42,165.29ZM44.56,163a.92.92,0,0,0-.15-.58.52.52,0,0,0-.39-.19.61.61,0,0,0-.5.27,1.56,1.56,0,0,0-.27,1,.92.92,0,0,0,.15.58.49.49,0,0,0,.38.19.64.64,0,0,0,.38-.15.9.9,0,0,0,.29-.45A1.71,1.71,0,0,0,44.56,163Z"/><path d="M173.2,144.56H175l-.18.87a3.21,3.21,0,0,1,2.24-1,2,2,0,0,1,1.25.34,1.56,1.56,0,0,1,.57.93,2.79,2.79,0,0,1,1.06-.9,3.16,3.16,0,0,1,1.45-.37,1.89,1.89,0,0,1,1.34.46,1.63,1.63,0,0,1,.48,1.22,8.09,8.09,0,0,1-.19,1.28l-.92,4.39h-1.94l.92-4.39c.11-.55.17-.86.17-.93a.63.63,0,0,0-.18-.47.78.78,0,0,0-.54-.17,1.61,1.61,0,0,0-1.29.76,5.22,5.22,0,0,0-.7,1.94l-.68,3.26h-1.94l.9-4.34a7.15,7.15,0,0,0,.16-1,.62.62,0,0,0-.2-.47.72.72,0,0,0-.53-.18,1.27,1.27,0,0,0-.65.19,1.82,1.82,0,0,0-.59.52,2.94,2.94,0,0,0-.44.85c-.05.16-.14.53-.26,1.1l-.69,3.3H171.7Z"/><path d="M185.36,148.29l-1-.14a1.74,1.74,0,0,1,.54-1.07,1.55,1.55,0,0,1,1.07-.37,1.52,1.52,0,0,1,1.1.38,1.28,1.28,0,0,1,.4,1,1.44,1.44,0,0,1-.13.6,2.23,2.23,0,0,1-.4.62,6.65,6.65,0,0,1-.66.66l-.61.58-.28.33h1.73l-.18.9h-3a2.38,2.38,0,0,1,.22-.7,2.61,2.61,0,0,1,.42-.62,13,13,0,0,1,.93-.93c.34-.32.55-.54.64-.63a2,2,0,0,0,.33-.46.87.87,0,0,0,.09-.36.58.58,0,0,0-.15-.41.52.52,0,0,0-.38-.15.54.54,0,0,0-.41.17A1.33,1.33,0,0,0,185.36,148.29Z"/><path d="M187.85,150.58l.92-.07a.68.68,0,0,0,.14.41.41.41,0,0,0,.31.12.59.59,0,0,0,.44-.19,2,2,0,0,0,.44-.92,1.17,1.17,0,0,1-.67.2,1.27,1.27,0,0,1-1-.39,1.5,1.5,0,0,1-.38-1.08,2.11,2.11,0,0,1,.48-1.36,1.55,1.55,0,0,1,1.28-.59,1.26,1.26,0,0,1,1.08.51,2.29,2.29,0,0,1,.37,1.39,4.12,4.12,0,0,1-.6,2.28,1.79,1.79,0,0,1-1.57.93,1.29,1.29,0,0,1-.91-.32A1.36,1.36,0,0,1,187.85,150.58Zm2.52-2.31a.94.94,0,0,0-.16-.59.5.5,0,0,0-.39-.18.61.61,0,0,0-.49.26,1.51,1.51,0,0,0-.28,1,.88.88,0,0,0,.15.57.47.47,0,0,0,.38.19.66.66,0,0,0,.38-.14.93.93,0,0,0,.3-.46A1.88,1.88,0,0,0,190.37,148.27Z"/><path d="M51.36,103l-1.89-.16a2.8,2.8,0,0,1,1.13-1.5,3.79,3.79,0,0,1,2.14-.54,3.18,3.18,0,0,1,2,.55,1.74,1.74,0,0,1,.66,1.37,4.39,4.39,0,0,1-.06.69c0,.24-.17.88-.4,1.91a10.06,10.06,0,0,0-.29,1.8,3.62,3.62,0,0,0,.17,1H53a3.61,3.61,0,0,1-.14-.81,2.89,2.89,0,0,1-1,.73,2.63,2.63,0,0,1-1.11.25,2,2,0,0,1-1.48-.58,2.07,2.07,0,0,1-.58-1.51,2.16,2.16,0,0,1,.64-1.64,3.7,3.7,0,0,1,2.28-.74,9.12,9.12,0,0,0,1.85-.28,2.44,2.44,0,0,0,.12-.65.65.65,0,0,0-.25-.52,1.11,1.11,0,0,0-.74-.21,1.33,1.33,0,0,0-.82.22A1,1,0,0,0,51.36,103Zm1.84,1.8a3,3,0,0,1-.46.08,4.44,4.44,0,0,0-1.91.52.77.77,0,0,0-.31.65.78.78,0,0,0,.24.58.91.91,0,0,0,.64.23,1.64,1.64,0,0,0,.83-.22,1.45,1.45,0,0,0,.58-.54,3.66,3.66,0,0,0,.34-1.05Z"/><path d="M56.6,105.28l.18-.87a5.85,5.85,0,0,0,2-1.29h.6l-1.05,5h-1l.73-3.47a5.22,5.22,0,0,1-.71.36A3.92,3.92,0,0,1,56.6,105.28Z"/><path d="M61.61,107.14l-.9,1H59.5l1.68-1.86-.92-1.77h1l.53,1,.92-1h1.19l-1.68,1.89.92,1.74h-1Z"/><path d="M160.59,61.82l-1.89-.16a2.8,2.8,0,0,1,1.13-1.5,3.79,3.79,0,0,1,2.14-.54,3.17,3.17,0,0,1,2.05.56,1.71,1.71,0,0,1,.66,1.36,4.2,4.2,0,0,1-.06.69c0,.24-.17.88-.4,1.92a9.8,9.8,0,0,0-.29,1.8,3.74,3.74,0,0,0,.17,1h-1.89a3.61,3.61,0,0,1-.14-.81,3,3,0,0,1-1,.72,2.65,2.65,0,0,1-1.11.26,2,2,0,0,1-1.48-.59,2,2,0,0,1-.58-1.5,2.15,2.15,0,0,1,.64-1.64,3.74,3.74,0,0,1,2.28-.75,9.35,9.35,0,0,0,1.85-.27,2.51,2.51,0,0,0,.12-.65.64.64,0,0,0-.25-.52,1.11,1.11,0,0,0-.74-.21,1.4,1.4,0,0,0-.82.21A1,1,0,0,0,160.59,61.82Zm1.84,1.8-.46.09a4.62,4.62,0,0,0-1.91.51.79.79,0,0,0-.31.66.78.78,0,0,0,.24.57.85.85,0,0,0,.64.23,1.73,1.73,0,0,0,.83-.21,1.4,1.4,0,0,0,.58-.55,3.69,3.69,0,0,0,.34-1Z"/><path d="M166.85,63.52l-1-.15a1.7,1.7,0,0,1,.55-1.06,1.52,1.52,0,0,1,1.06-.37,1.54,1.54,0,0,1,1.1.37,1.28,1.28,0,0,1,.4,1,1.52,1.52,0,0,1-.12.59,2.32,2.32,0,0,1-.41.63,7.54,7.54,0,0,1-.65.66c-.31.28-.51.48-.61.58a3.11,3.11,0,0,0-.29.33h1.74l-.19.9h-3a2,2,0,0,1,.22-.71,3.08,3.08,0,0,1,.42-.62c.17-.19.48-.5.92-.92l.64-.63a2,2,0,0,0,.33-.47.83.83,0,0,0,.09-.35.58.58,0,0,0-.15-.41.51.51,0,0,0-.37-.16.54.54,0,0,0-.41.18A1.16,1.16,0,0,0,166.85,63.52Z"/><path d="M169.47,63.34h1l.25,1.8c.06.47.09.8.1,1a7.37,7.37,0,0,1,.53-1.17l.86-1.61h1l-2.24,4a5.28,5.28,0,0,1-.44.7,1.15,1.15,0,0,1-.38.31,1.27,1.27,0,0,1-.54.11,2.79,2.79,0,0,1-.7-.11l.09-.73a1.4,1.4,0,0,0,.34.05c.3,0,.55-.23.74-.68Z"/><path d="M66.24,124l-1.79,2H62.07l3.32-3.68-1.82-3.5h2.06l1.05,2.05,1.81-2.05h2.36l-3.33,3.73L69.33,126H67.27Z"/><path d="M25.53,78.14h.93l-.09.47a2.28,2.28,0,0,1,.65-.43,1.51,1.51,0,0,1,.63-.13,1,1,0,0,1,.71.26.91.91,0,0,1,.26.68,4.83,4.83,0,0,1-.11.72l-.43,2.06h-1l.43-2.06a4.85,4.85,0,0,0,.09-.56.36.36,0,0,0-.11-.29.42.42,0,0,0-.31-.11.84.84,0,0,0-.47.18,1.22,1.22,0,0,0-.42.48,4.76,4.76,0,0,0-.25.87l-.31,1.49h-1Z"/><path d="M31.86,113.72h-1l.87-4.18H30.23l.18-.83h3.95l-.18.83H32.73Z"/><path d="M176.52,102.76H175l1.26-6h-2.12l.25-1.21h5.7l-.25,1.21h-2.1Z"/><path d="M192,122.77l-1.3,1.47h-1.73l2.42-2.69L190,119h1.5l.76,1.49,1.33-1.49h1.72l-2.43,2.72,1.32,2.52h-1.5Z"/><line x1="180.21" y1="54.72" x2="180.21" y2="73.65" style="fill:none;stroke:#000;stroke-miterlimit:10"/><path d="M180.21,79.69a30.31,30.31,0,0,0-4.75-8.55l4.75,1.72L185,71.14A30.59,30.59,0,0,0,180.21,79.69Z"/><path d="M6.2,21.78V16h2a4.59,4.59,0,0,1,1,.08,2,2,0,0,1,.86.42,2.41,2.41,0,0,1,.68,1A3.91,3.91,0,0,1,11,18.84,4.23,4.23,0,0,1,10.86,20a3,3,0,0,1-.4.84,2,2,0,0,1-.53.53,2,2,0,0,1-.69.29,3.82,3.82,0,0,1-.94.1ZM7,21.1H8.22a3.05,3.05,0,0,0,.9-.11,1.25,1.25,0,0,0,.52-.3,2,2,0,0,0,.43-.74,3.66,3.66,0,0,0,.15-1.12,2.7,2.7,0,0,0-.3-1.4,1.48,1.48,0,0,0-.73-.66,3,3,0,0,0-1-.12H7Z"/><path d="M12,16.79V16h.72v.82Zm0,5V17.57h.72v4.21Z"/><path d="M16.53,21.26a2.51,2.51,0,0,1-.76.48,2.3,2.3,0,0,1-.79.14,1.58,1.58,0,0,1-1.07-.34,1.16,1.16,0,0,1-.37-.87,1.19,1.19,0,0,1,.14-.56,1.23,1.23,0,0,1,.37-.41,1.5,1.5,0,0,1,.51-.24,6.25,6.25,0,0,1,.64-.11,6.22,6.22,0,0,0,1.27-.24,1.77,1.77,0,0,0,0-.19.76.76,0,0,0-.21-.61,1.19,1.19,0,0,0-.81-.24,1.25,1.25,0,0,0-.74.17,1.12,1.12,0,0,0-.36.63l-.7-.1a1.71,1.71,0,0,1,.32-.72,1.29,1.29,0,0,1,.63-.43,2.75,2.75,0,0,1,1-.15,2.64,2.64,0,0,1,.88.13,1.2,1.2,0,0,1,.5.32,1.17,1.17,0,0,1,.22.49,4.76,4.76,0,0,1,0,.66V20a10,10,0,0,0,0,1.26,1.58,1.58,0,0,0,.18.5h-.74A1.38,1.38,0,0,1,16.53,21.26Zm-.06-1.59a5.9,5.9,0,0,1-1.16.27,2.88,2.88,0,0,0-.63.14.63.63,0,0,0-.28.23.67.67,0,0,0-.1.34.64.64,0,0,0,.22.48,1,1,0,0,0,.63.19,1.5,1.5,0,0,0,.74-.18,1.13,1.13,0,0,0,.47-.5,1.85,1.85,0,0,0,.11-.71Z"/><path d="M18.17,22.13l.69.1a.64.64,0,0,0,.25.47,1.18,1.18,0,0,0,.72.2,1.31,1.31,0,0,0,.77-.2,1,1,0,0,0,.36-.55,3.94,3.94,0,0,0,.05-.92,1.45,1.45,0,0,1-1.16.55,1.6,1.6,0,0,1-1.35-.63,2.42,2.42,0,0,1-.47-1.5,2.72,2.72,0,0,1,.22-1.11,1.66,1.66,0,0,1,1.6-1.07,1.52,1.52,0,0,1,1.23.61v-.51h.66v3.64a3.56,3.56,0,0,1-.2,1.4,1.49,1.49,0,0,1-.63.64,2.2,2.2,0,0,1-1.07.24,2,2,0,0,1-1.22-.34A1.13,1.13,0,0,1,18.17,22.13Zm.59-2.53a1.82,1.82,0,0,0,.33,1.21,1.07,1.07,0,0,0,.83.38,1,1,0,0,0,.82-.38,1.78,1.78,0,0,0,.33-1.19,1.71,1.71,0,0,0-.34-1.16,1.06,1.06,0,0,0-.83-.39,1,1,0,0,0-.8.38A1.68,1.68,0,0,0,18.76,19.6Z"/><path d="M22.81,21.78V17.57h.64v.64a1.73,1.73,0,0,1,.46-.59.77.77,0,0,1,.46-.15,1.42,1.42,0,0,1,.73.23l-.25.67a1,1,0,0,0-.52-.16.68.68,0,0,0-.42.14.91.91,0,0,0-.27.39,2.84,2.84,0,0,0-.12.84v2.2Z"/><path d="M28.27,21.26a2.51,2.51,0,0,1-.76.48,2.26,2.26,0,0,1-.79.14,1.58,1.58,0,0,1-1.07-.34,1.16,1.16,0,0,1-.37-.87,1.19,1.19,0,0,1,.14-.56,1.23,1.23,0,0,1,.37-.41,1.46,1.46,0,0,1,.52-.24,5.52,5.52,0,0,1,.63-.11,6.22,6.22,0,0,0,1.27-.24,1.77,1.77,0,0,0,0-.19.8.8,0,0,0-.2-.61,1.6,1.6,0,0,0-1.56-.07,1.12,1.12,0,0,0-.36.63l-.7-.1a1.71,1.71,0,0,1,.32-.72,1.29,1.29,0,0,1,.63-.43,2.76,2.76,0,0,1,1-.15,2.62,2.62,0,0,1,.87.13,1.2,1.2,0,0,1,.5.32,1.17,1.17,0,0,1,.22.49,4.76,4.76,0,0,1,0,.66V20A10,10,0,0,0,29,21.28a1.58,1.58,0,0,0,.18.5h-.74A1.38,1.38,0,0,1,28.27,21.26Zm-.06-1.59a5.9,5.9,0,0,1-1.16.27,2.88,2.88,0,0,0-.63.14.63.63,0,0,0-.28.23.67.67,0,0,0-.1.34.64.64,0,0,0,.22.48,1,1,0,0,0,.63.19,1.5,1.5,0,0,0,.74-.18,1.13,1.13,0,0,0,.47-.5,1.67,1.67,0,0,0,.11-.71Z"/><path d="M30,21.78V17.57h.64v.59a1.5,1.5,0,0,1,.53-.5,1.55,1.55,0,0,1,.75-.19,1.42,1.42,0,0,1,.77.2,1.14,1.14,0,0,1,.42.54,1.51,1.51,0,0,1,1.3-.74,1.27,1.27,0,0,1,1,.35,1.46,1.46,0,0,1,.34,1.07v2.89H35V19.13a1.87,1.87,0,0,0-.07-.62.61.61,0,0,0-.25-.3.77.77,0,0,0-.43-.12,1,1,0,0,0-.74.3,1.32,1.32,0,0,0-.29.94v2.45h-.72V19.05a1.2,1.2,0,0,0-.17-.72.67.67,0,0,0-.57-.24,1.1,1.1,0,0,0-.56.16.92.92,0,0,0-.37.47,2.51,2.51,0,0,0-.11.88v2.18Z"/><path d="M39.56,21.26a2.54,2.54,0,0,1-.77.48,2.21,2.21,0,0,1-.78.14,1.56,1.56,0,0,1-1.07-.34,1.13,1.13,0,0,1-.37-.87,1.08,1.08,0,0,1,.14-.56,1.1,1.1,0,0,1,.36-.41,1.64,1.64,0,0,1,.52-.24,5.52,5.52,0,0,1,.63-.11,6.5,6.5,0,0,0,1.28-.24v-.19a.8.8,0,0,0-.2-.61,1.22,1.22,0,0,0-.82-.24,1.25,1.25,0,0,0-.74.17,1.06,1.06,0,0,0-.35.63l-.7-.1a1.71,1.71,0,0,1,.31-.72,1.39,1.39,0,0,1,.63-.43,2.85,2.85,0,0,1,1-.15,2.57,2.57,0,0,1,.87.13,1.2,1.2,0,0,1,.5.32,1.05,1.05,0,0,1,.22.49,3.3,3.3,0,0,1,0,.66V20a10.78,10.78,0,0,0,0,1.26,1.58,1.58,0,0,0,.18.5H39.7A1.37,1.37,0,0,1,39.56,21.26Zm-.06-1.59a6,6,0,0,1-1.17.27,2.76,2.76,0,0,0-.62.14.61.61,0,0,0-.38.57.63.63,0,0,0,.21.48,1,1,0,0,0,.64.19,1.46,1.46,0,0,0,.73-.18,1.13,1.13,0,0,0,.47-.5,1.65,1.65,0,0,0,.12-.71Z"/><path d="M46.31,21.78v-.53a1.3,1.3,0,0,1-1.17.63,1.69,1.69,0,0,1-.93-.28,1.79,1.79,0,0,1-.65-.78,2.58,2.58,0,0,1-.24-1.14,3,3,0,0,1,.21-1.14,1.62,1.62,0,0,1,.63-.79,1.73,1.73,0,0,1,.94-.28,1.37,1.37,0,0,1,.68.17,1.4,1.4,0,0,1,.49.41V16H47v5.81Zm-2.25-2.1a1.82,1.82,0,0,0,.34,1.21,1,1,0,0,0,.8.4,1,1,0,0,0,.8-.38,1.78,1.78,0,0,0,.33-1.17A1.93,1.93,0,0,0,46,18.47a1,1,0,0,0-.82-.4,1,1,0,0,0-.79.38A1.89,1.89,0,0,0,44.06,19.68Z"/><path d="M51,20.43l.74.09a1.8,1.8,0,0,1-.65,1,1.9,1.9,0,0,1-1.2.36,1.93,1.93,0,0,1-1.47-.57,2.23,2.23,0,0,1-.54-1.6,2.3,2.3,0,0,1,.55-1.65,1.86,1.86,0,0,1,1.42-.59,1.83,1.83,0,0,1,1.38.58,2.26,2.26,0,0,1,.53,1.62v.19H48.6A1.65,1.65,0,0,0,49,20.92a1.16,1.16,0,0,0,.88.37,1.07,1.07,0,0,0,.67-.21A1.29,1.29,0,0,0,51,20.43Zm-2.34-1.16H51a1.43,1.43,0,0,0-.27-.8,1.1,1.1,0,0,0-.88-.41,1.13,1.13,0,0,0-.83.33A1.3,1.3,0,0,0,48.64,19.27Z"/><path d="M57.62,20.24l.7.09a1.84,1.84,0,0,1-.58,1.14,1.76,1.76,0,0,1-1.17.41,1.79,1.79,0,0,1-1.39-.57,2.27,2.27,0,0,1-.52-1.62,2.94,2.94,0,0,1,.22-1.19,1.58,1.58,0,0,1,.69-.77,2.05,2.05,0,0,1,1-.26,1.76,1.76,0,0,1,1.12.35,1.58,1.58,0,0,1,.56,1l-.7.1a1.08,1.08,0,0,0-.35-.63.88.88,0,0,0-.61-.22,1.08,1.08,0,0,0-.87.39,1.8,1.8,0,0,0-.34,1.22,1.91,1.91,0,0,0,.32,1.23,1.06,1.06,0,0,0,.85.39,1,1,0,0,0,.71-.26A1.29,1.29,0,0,0,57.62,20.24Z"/><path d="M61.7,21.78v-.62a1.55,1.55,0,0,1-1.34.72,1.66,1.66,0,0,1-.7-.15,1.2,1.2,0,0,1-.48-.35,1.69,1.69,0,0,1-.22-.53,3.69,3.69,0,0,1,0-.67V17.57h.71v2.34a3.88,3.88,0,0,0,0,.75.74.74,0,0,0,.28.44.89.89,0,0,0,.54.16,1.12,1.12,0,0,0,.6-.16.87.87,0,0,0,.4-.45,2.18,2.18,0,0,0,.12-.82V17.57h.71v4.21Z"/><path d="M66.34,20.43l.73.09a1.78,1.78,0,0,1-.64,1,2,2,0,0,1-1.21.36,1.92,1.92,0,0,1-1.46-.57,2.19,2.19,0,0,1-.54-1.6,2.34,2.34,0,0,1,.54-1.65,1.87,1.87,0,0,1,1.42-.59,1.8,1.8,0,0,1,1.38.58,2.26,2.26,0,0,1,.54,1.62,1.58,1.58,0,0,1,0,.19H64a1.6,1.6,0,0,0,.4,1.06,1.13,1.13,0,0,0,.88.37,1.09,1.09,0,0,0,.67-.21A1.36,1.36,0,0,0,66.34,20.43ZM64,19.27h2.35a1.43,1.43,0,0,0-.27-.8,1.09,1.09,0,0,0-.88-.41,1.15,1.15,0,0,0-.83.33A1.34,1.34,0,0,0,64,19.27Z"/><path d="M68,21.78V17.57h.64v.64a1.73,1.73,0,0,1,.46-.59.77.77,0,0,1,.46-.15,1.42,1.42,0,0,1,.73.23l-.24.67a1,1,0,0,0-.53-.16.71.71,0,0,0-.42.14.82.82,0,0,0-.26.39,2.84,2.84,0,0,0-.12.84v2.2Z"/><path d="M70.68,23.4V17.57h.65v.55a1.39,1.39,0,0,1,.52-.48,1.37,1.37,0,0,1,.7-.17,1.71,1.71,0,0,1,1,.28,1.76,1.76,0,0,1,.62.79,3,3,0,0,1,0,2.27,1.74,1.74,0,0,1-.67.79,1.8,1.8,0,0,1-.93.28,1.32,1.32,0,0,1-.64-.15,1.48,1.48,0,0,1-.47-.38v2Zm.64-3.7a1.83,1.83,0,0,0,.33,1.2,1,1,0,0,0,.8.39,1,1,0,0,0,.81-.4,1.9,1.9,0,0,0,.34-1.25,1.88,1.88,0,0,0-.33-1.21,1,1,0,0,0-.79-.4,1.07,1.07,0,0,0-.81.43A1.93,1.93,0,0,0,71.32,19.7Z"/><path d="M74.93,19.68a2.17,2.17,0,0,1,.65-1.74,2,2,0,0,1,1.32-.47,1.89,1.89,0,0,1,1.42.57,2.17,2.17,0,0,1,.55,1.58,2.86,2.86,0,0,1-.24,1.28,1.7,1.7,0,0,1-.71.72,2.09,2.09,0,0,1-1,.26,1.9,1.9,0,0,1-1.43-.57A2.27,2.27,0,0,1,74.93,19.68Zm.73,0A1.82,1.82,0,0,0,76,20.89a1.14,1.14,0,0,0,.89.4,1.16,1.16,0,0,0,.89-.4,1.89,1.89,0,0,0,.35-1.24,1.72,1.72,0,0,0-.36-1.18,1.11,1.11,0,0,0-.88-.4,1.14,1.14,0,0,0-.89.4A1.8,1.8,0,0,0,75.66,19.68Z"/><path d="M82,21.78V16h.72v5.81Z"/><path d="M83.78,16.79V16h.71v.82Zm0,5V17.57h.71v4.21Z"/><path d="M86.23,21.78h-.66V16h.72V18a1.4,1.4,0,0,1,1.15-.57,1.86,1.86,0,0,1,.74.16,1.56,1.56,0,0,1,.57.44,2.24,2.24,0,0,1,.35.69,2.91,2.91,0,0,1,.13.85,2.42,2.42,0,0,1-.54,1.68,1.7,1.7,0,0,1-1.28.59,1.36,1.36,0,0,1-1.18-.63Zm0-2.14a2.31,2.31,0,0,0,.2,1.1,1,1,0,0,0,.92.55,1,1,0,0,0,.8-.41,1.82,1.82,0,0,0,.35-1.21,1.89,1.89,0,0,0-.33-1.22,1,1,0,0,0-.79-.39,1,1,0,0,0-.81.41A1.76,1.76,0,0,0,86.23,19.64Z"/><path d="M90.09,21.78V17.57h.64v.64a1.62,1.62,0,0,1,.45-.59.79.79,0,0,1,.46-.15,1.45,1.45,0,0,1,.74.23l-.25.67a1,1,0,0,0-.52-.16.74.74,0,0,0-.43.14.82.82,0,0,0-.26.39,2.84,2.84,0,0,0-.12.84v2.2Z"/><path d="M95.68,20.43l.74.09a1.8,1.8,0,0,1-.65,1,1.9,1.9,0,0,1-1.2.36,1.93,1.93,0,0,1-1.47-.57,2.23,2.23,0,0,1-.54-1.6,2.3,2.3,0,0,1,.55-1.65,1.86,1.86,0,0,1,1.42-.59,1.83,1.83,0,0,1,1.38.58,2.26,2.26,0,0,1,.53,1.62v.19H93.3a1.65,1.65,0,0,0,.39,1.06,1.16,1.16,0,0,0,.88.37,1.07,1.07,0,0,0,.67-.21A1.29,1.29,0,0,0,95.68,20.43Zm-2.34-1.16h2.35a1.43,1.43,0,0,0-.27-.8,1.1,1.1,0,0,0-.88-.41,1.13,1.13,0,0,0-.83.33A1.3,1.3,0,0,0,93.34,19.27Z"/><path d="M6.11,33.14V27.32h.65v.54a1.79,1.79,0,0,1,.52-.48,1.54,1.54,0,0,1,.7-.16,1.65,1.65,0,0,1,1.58,1.06,2.89,2.89,0,0,1,.21,1.11,2.94,2.94,0,0,1-.23,1.17,1.81,1.81,0,0,1-.68.79,1.73,1.73,0,0,1-.93.27,1.37,1.37,0,0,1-.64-.15,1.32,1.32,0,0,1-.46-.38v2.05Zm.65-3.69a1.83,1.83,0,0,0,.33,1.2,1,1,0,0,0,.8.39,1,1,0,0,0,.81-.41A1.86,1.86,0,0,0,9,29.39a1.88,1.88,0,0,0-.33-1.21,1,1,0,0,0-.79-.4,1,1,0,0,0-.81.43A1.91,1.91,0,0,0,6.76,29.45Z"/><path d="M13.38,31a2.81,2.81,0,0,1-.76.47,2.09,2.09,0,0,1-.79.14,1.53,1.53,0,0,1-1.07-.34,1.09,1.09,0,0,1-.37-.86,1.2,1.2,0,0,1,.14-.57,1.22,1.22,0,0,1,.37-.41,1.69,1.69,0,0,1,.51-.23,5.38,5.38,0,0,1,.64-.11,7.19,7.19,0,0,0,1.27-.24v-.19a.78.78,0,0,0-.2-.62,1.19,1.19,0,0,0-.81-.24,1.28,1.28,0,0,0-.75.18,1.12,1.12,0,0,0-.35.62l-.7-.09a1.81,1.81,0,0,1,.31-.73,1.43,1.43,0,0,1,.64-.42,2.75,2.75,0,0,1,.95-.15,2.44,2.44,0,0,1,.88.13,1.07,1.07,0,0,1,.49.32,1.19,1.19,0,0,1,.23.48,4.86,4.86,0,0,1,0,.66v1A9.72,9.72,0,0,0,14.09,31a1.55,1.55,0,0,0,.18.51h-.75A1.59,1.59,0,0,1,13.38,31Zm-.06-1.6a4.84,4.84,0,0,1-1.17.27,3.27,3.27,0,0,0-.62.15.63.63,0,0,0-.28.23.57.57,0,0,0-.1.34.57.57,0,0,0,.22.47.9.9,0,0,0,.63.2,1.47,1.47,0,0,0,.73-.19,1.06,1.06,0,0,0,.47-.49,1.65,1.65,0,0,0,.12-.71Z"/><path d="M15.14,31.53V27.32h.64V28a1.91,1.91,0,0,1,.46-.6.82.82,0,0,1,.45-.14,1.42,1.42,0,0,1,.74.23l-.25.66a1,1,0,0,0-.52-.15.68.68,0,0,0-.42.14.75.75,0,0,0-.27.39,2.73,2.73,0,0,0-.12.83v2.21Z"/><path d="M20.6,31a2.67,2.67,0,0,1-.76.47,2.09,2.09,0,0,1-.79.14A1.53,1.53,0,0,1,18,31.28a1.13,1.13,0,0,1-.37-.86,1.2,1.2,0,0,1,.14-.57,1.33,1.33,0,0,1,.37-.41,1.69,1.69,0,0,1,.51-.23,5.78,5.78,0,0,1,.64-.11,7,7,0,0,0,1.27-.24,1.77,1.77,0,0,0,0-.19.79.79,0,0,0-.21-.62,1.19,1.19,0,0,0-.81-.24,1.22,1.22,0,0,0-.74.18,1.12,1.12,0,0,0-.36.62l-.7-.09a1.82,1.82,0,0,1,.32-.73,1.35,1.35,0,0,1,.63-.42,2.75,2.75,0,0,1,.95-.15,2.4,2.4,0,0,1,.88.13,1.11,1.11,0,0,1,.5.32,1.18,1.18,0,0,1,.22.48,4.86,4.86,0,0,1,0,.66v1a9.72,9.72,0,0,0,0,1.26,1.55,1.55,0,0,0,.18.51h-.75A1.59,1.59,0,0,1,20.6,31Zm-.06-1.6a4.86,4.86,0,0,1-1.16.27,3.43,3.43,0,0,0-.63.15.63.63,0,0,0-.28.23.65.65,0,0,0-.1.34.57.57,0,0,0,.22.47.9.9,0,0,0,.63.2,1.51,1.51,0,0,0,.74-.19,1.11,1.11,0,0,0,.47-.49,1.85,1.85,0,0,0,.11-.71Z"/><path d="M27.51,30.17l.74.09a1.82,1.82,0,0,1-.65,1,1.9,1.9,0,0,1-1.2.35,2,2,0,0,1-1.47-.56,2.25,2.25,0,0,1-.54-1.6,2.3,2.3,0,0,1,.55-1.65,1.84,1.84,0,0,1,1.42-.59,1.79,1.79,0,0,1,1.38.58,2.3,2.3,0,0,1,.53,1.61v.2H25.13a1.57,1.57,0,0,0,.39,1.06,1.2,1.2,0,0,0,.88.37,1.07,1.07,0,0,0,.67-.21A1.37,1.37,0,0,0,27.51,30.17ZM25.17,29h2.35a1.4,1.4,0,0,0-.27-.8,1.11,1.11,0,0,0-.89-.41,1.12,1.12,0,0,0-.82.33A1.25,1.25,0,0,0,25.17,29Z"/><path d="M29.13,31.53V25.71h.71v5.82Z"/><path d="M35.94,31.53V31a1.3,1.3,0,0,1-1.18.62,1.68,1.68,0,0,1-.92-.27,1.87,1.87,0,0,1-.66-.78A2.73,2.73,0,0,1,33,29.43a3,3,0,0,1,.21-1.15,1.67,1.67,0,0,1,1.57-1.06,1.51,1.51,0,0,1,.68.16,1.4,1.4,0,0,1,.48.42V25.71h.71v5.82Zm-2.26-2.1A1.88,1.88,0,0,0,34,30.64a1.06,1.06,0,0,0,.81.4,1,1,0,0,0,.79-.39A1.73,1.73,0,0,0,36,29.49a2,2,0,0,0-.33-1.27,1,1,0,0,0-.82-.41,1,1,0,0,0-.8.39A2,2,0,0,0,33.68,29.43Z"/><path d="M40.61,30.17l.74.09a1.88,1.88,0,0,1-.65,1A2.22,2.22,0,0,1,38,31.06a2.25,2.25,0,0,1-.54-1.6A2.34,2.34,0,0,1,38,27.81a1.87,1.87,0,0,1,1.42-.59,1.76,1.76,0,0,1,1.38.58,2.25,2.25,0,0,1,.54,1.61v.2H38.22a1.62,1.62,0,0,0,.4,1.06,1.18,1.18,0,0,0,.88.37,1.09,1.09,0,0,0,.67-.21A1.44,1.44,0,0,0,40.61,30.17ZM38.26,29h2.36a1.57,1.57,0,0,0-.27-.8,1.12,1.12,0,0,0-.89-.41,1.15,1.15,0,0,0-.83.33A1.34,1.34,0,0,0,38.26,29Z"/><path d="M42,30.27l.7-.11a1,1,0,0,0,.33.65,1.17,1.17,0,0,0,.76.23,1.14,1.14,0,0,0,.73-.2.61.61,0,0,0,.24-.47.43.43,0,0,0-.21-.38,2.81,2.81,0,0,0-.73-.25,6.26,6.26,0,0,1-1.09-.34,1.13,1.13,0,0,1-.46-.4,1.09,1.09,0,0,1-.15-.56,1.18,1.18,0,0,1,.12-.53,1.12,1.12,0,0,1,.36-.39,1.18,1.18,0,0,1,.45-.21,2.06,2.06,0,0,1,.62-.09,2.56,2.56,0,0,1,.87.14,1.24,1.24,0,0,1,.55.39,1.55,1.55,0,0,1,.25.65l-.7.1a.76.76,0,0,0-.28-.51,1,1,0,0,0-.64-.18A1.15,1.15,0,0,0,43,28a.48.48,0,0,0-.21.38.38.38,0,0,0,.08.25.6.6,0,0,0,.28.19q.1,0,.63.18a8.68,8.68,0,0,1,1.05.34,1,1,0,0,1,.47.37,1,1,0,0,1,.17.61,1.17,1.17,0,0,1-.2.67,1.33,1.33,0,0,1-.6.49,2.14,2.14,0,0,1-.89.17,1.94,1.94,0,0,1-1.25-.34A1.55,1.55,0,0,1,42,30.27Z"/><path d="M46.29,31.53V25.71H47v5.82Z"/><path d="M48.11,26.54v-.83h.71v.83Zm0,5V27.32h.71v4.21Z"/><path d="M49.53,31.53V31l2.69-3.08-.81,0H49.69v-.58h3.45v.47l-2.28,2.67-.44.49c.32,0,.62,0,.9,0h1.94v.62Z"/><path d="M56.72,31a2.67,2.67,0,0,1-.76.47,2.09,2.09,0,0,1-.79.14,1.53,1.53,0,0,1-1.07-.34,1.13,1.13,0,0,1-.37-.86,1.2,1.2,0,0,1,.14-.57,1.33,1.33,0,0,1,.37-.41,1.69,1.69,0,0,1,.51-.23,5.78,5.78,0,0,1,.64-.11,7,7,0,0,0,1.27-.24,1.77,1.77,0,0,0,0-.19.79.79,0,0,0-.21-.62,1.19,1.19,0,0,0-.81-.24,1.22,1.22,0,0,0-.74.18,1.12,1.12,0,0,0-.36.62l-.7-.09a1.82,1.82,0,0,1,.32-.73,1.35,1.35,0,0,1,.63-.42,2.75,2.75,0,0,1,1-.15,2.4,2.4,0,0,1,.88.13,1.11,1.11,0,0,1,.5.32,1.18,1.18,0,0,1,.22.48,4.86,4.86,0,0,1,0,.66v1a9.72,9.72,0,0,0,0,1.26,1.55,1.55,0,0,0,.18.51h-.75A1.59,1.59,0,0,1,56.72,31Zm-.06-1.6a4.73,4.73,0,0,1-1.16.27,3.43,3.43,0,0,0-.63.15.63.63,0,0,0-.28.23.65.65,0,0,0-.1.34.57.57,0,0,0,.22.47.9.9,0,0,0,.63.2,1.51,1.51,0,0,0,.74-.19,1.11,1.11,0,0,0,.47-.49,1.85,1.85,0,0,0,.11-.71Z"/><path d="M61.22,31.53V31a1.29,1.29,0,0,1-1.17.62,1.68,1.68,0,0,1-.93-.27,1.85,1.85,0,0,1-.65-.78,2.58,2.58,0,0,1-.24-1.14,3,3,0,0,1,.21-1.15A1.67,1.67,0,0,1,60,27.22a1.48,1.48,0,0,1,.68.16,1.54,1.54,0,0,1,.49.42V25.71h.71v5.82ZM59,29.43a1.82,1.82,0,0,0,.34,1.21,1,1,0,0,0,.8.4,1,1,0,0,0,.8-.39,1.73,1.73,0,0,0,.33-1.16,2,2,0,0,0-.34-1.27,1,1,0,0,0-.82-.41,1,1,0,0,0-.79.39A1.89,1.89,0,0,0,59,29.43Z"/><path d="M62.74,29.42a2.18,2.18,0,0,1,.65-1.73,2,2,0,0,1,1.33-.47,1.89,1.89,0,0,1,1.42.57,2.15,2.15,0,0,1,.55,1.57,2.8,2.8,0,0,1-.24,1.28,1.85,1.85,0,0,1-.71.73,2.11,2.11,0,0,1-1,.25,1.88,1.88,0,0,1-1.43-.56A2.26,2.26,0,0,1,62.74,29.42Zm.74,0a1.75,1.75,0,0,0,.35,1.21,1.16,1.16,0,0,0,1.77,0A1.81,1.81,0,0,0,66,29.4a1.7,1.7,0,0,0-.36-1.18,1.13,1.13,0,0,0-.88-.41,1.15,1.15,0,0,0-.89.4A1.77,1.77,0,0,0,63.48,29.42Z"/><path d="M67.52,31.53V27.32h.64V28a1.91,1.91,0,0,1,.45-.6.86.86,0,0,1,.46-.14,1.45,1.45,0,0,1,.74.23l-.25.66A1,1,0,0,0,69,28a.68.68,0,0,0-.42.14.69.69,0,0,0-.27.39,2.73,2.73,0,0,0-.12.83v2.21Z"/><path d="M109.37,21.65V15.83h2a4.48,4.48,0,0,1,1,.09,1.88,1.88,0,0,1,.85.41,2.31,2.31,0,0,1,.69,1,3.91,3.91,0,0,1,.23,1.38,4.15,4.15,0,0,1-.15,1.17,3.06,3.06,0,0,1-.4.85,2.22,2.22,0,0,1-.53.53,2.17,2.17,0,0,1-.69.29,4.44,4.44,0,0,1-.94.1Zm.77-.69h1.24a3.13,3.13,0,0,0,.91-.1,1.47,1.47,0,0,0,.52-.31,1.78,1.78,0,0,0,.42-.73,3.36,3.36,0,0,0,.16-1.12,2.67,2.67,0,0,0-.3-1.4,1.52,1.52,0,0,0-.73-.66,3,3,0,0,0-1-.12h-1.22Z"/><path d="M115.15,16.65v-.82h.72v.82Zm0,5V17.44h.72v4.21Z"/><path d="M119.7,21.13a2.67,2.67,0,0,1-.76.47,2.09,2.09,0,0,1-.79.14,1.53,1.53,0,0,1-1.07-.34,1.13,1.13,0,0,1-.37-.86,1.2,1.2,0,0,1,.14-.57,1.23,1.23,0,0,1,.37-.41,1.69,1.69,0,0,1,.51-.23,5.78,5.78,0,0,1,.64-.11,7.19,7.19,0,0,0,1.27-.24c0-.1,0-.16,0-.19a.79.79,0,0,0-.21-.62,1.19,1.19,0,0,0-.81-.24,1.22,1.22,0,0,0-.74.18,1.09,1.09,0,0,0-.36.62l-.7-.09a1.82,1.82,0,0,1,.32-.73,1.35,1.35,0,0,1,.63-.42,2.75,2.75,0,0,1,1-.15,2.4,2.4,0,0,1,.88.13,1.11,1.11,0,0,1,.5.32,1.18,1.18,0,0,1,.22.48,4.76,4.76,0,0,1,0,.66v.95a9.72,9.72,0,0,0,0,1.26,1.55,1.55,0,0,0,.18.51h-.75A1.59,1.59,0,0,1,119.7,21.13Zm-.06-1.6a4.86,4.86,0,0,1-1.16.27,2.76,2.76,0,0,0-.63.15.63.63,0,0,0-.28.23.65.65,0,0,0-.1.34.57.57,0,0,0,.22.47.9.9,0,0,0,.63.19,1.5,1.5,0,0,0,.74-.18,1.11,1.11,0,0,0,.47-.49,1.85,1.85,0,0,0,.11-.71Z"/><path d="M121.34,22l.69.1a.66.66,0,0,0,.25.47,1.16,1.16,0,0,0,.72.2,1.31,1.31,0,0,0,.77-.2,1,1,0,0,0,.36-.56,3.84,3.84,0,0,0,.05-.91,1.48,1.48,0,0,1-1.16.55,1.6,1.6,0,0,1-1.35-.63,2.46,2.46,0,0,1-.47-1.5,2.89,2.89,0,0,1,.21-1.11,1.74,1.74,0,0,1,.64-.79,1.65,1.65,0,0,1,1-.28,1.51,1.51,0,0,1,1.23.6v-.5h.66v3.64a3.5,3.5,0,0,1-.2,1.39,1.49,1.49,0,0,1-.64.65,2.16,2.16,0,0,1-1.06.24,2.05,2.05,0,0,1-1.22-.34A1.16,1.16,0,0,1,121.34,22Zm.59-2.53a1.84,1.84,0,0,0,.33,1.21,1,1,0,0,0,.82.38,1.07,1.07,0,0,0,.83-.38,1.78,1.78,0,0,0,.33-1.19,1.76,1.76,0,0,0-.34-1.17,1.08,1.08,0,0,0-.83-.39,1.05,1.05,0,0,0-.81.39A1.73,1.73,0,0,0,121.93,19.47Z"/><path d="M126,21.65V17.44h.64v.63a2,2,0,0,1,.46-.59.82.82,0,0,1,.45-.14,1.42,1.42,0,0,1,.74.23l-.25.66a1,1,0,0,0-.52-.15.68.68,0,0,0-.42.14.75.75,0,0,0-.27.39,2.73,2.73,0,0,0-.12.83v2.21Z"/><path d="M131.44,21.13a2.67,2.67,0,0,1-.76.47,2.09,2.09,0,0,1-.79.14,1.53,1.53,0,0,1-1.07-.34,1.13,1.13,0,0,1-.37-.86,1.2,1.2,0,0,1,.14-.57,1.23,1.23,0,0,1,.37-.41,1.69,1.69,0,0,1,.51-.23,5.78,5.78,0,0,1,.64-.11,7.19,7.19,0,0,0,1.27-.24,1.77,1.77,0,0,0,0-.19.79.79,0,0,0-.21-.62,1.19,1.19,0,0,0-.81-.24,1.22,1.22,0,0,0-.74.18,1.09,1.09,0,0,0-.36.62l-.7-.09a1.82,1.82,0,0,1,.32-.73,1.35,1.35,0,0,1,.63-.42,2.75,2.75,0,0,1,.95-.15,2.4,2.4,0,0,1,.88.13,1.11,1.11,0,0,1,.5.32,1.18,1.18,0,0,1,.22.48,4.76,4.76,0,0,1,0,.66v.95a9.72,9.72,0,0,0,.05,1.26,1.55,1.55,0,0,0,.18.51h-.75A1.59,1.59,0,0,1,131.44,21.13Zm-.06-1.6a4.86,4.86,0,0,1-1.16.27,2.76,2.76,0,0,0-.63.15.63.63,0,0,0-.28.23.65.65,0,0,0-.1.34.57.57,0,0,0,.22.47.9.9,0,0,0,.63.19,1.5,1.5,0,0,0,.74-.18,1.11,1.11,0,0,0,.47-.49,1.85,1.85,0,0,0,.11-.71Z"/><path d="M133.21,21.65V17.44h.64V18a1.41,1.41,0,0,1,.53-.5,1.6,1.6,0,0,1,1.51,0,1.12,1.12,0,0,1,.43.55,1.51,1.51,0,0,1,1.3-.74,1.28,1.28,0,0,1,1,.35,1.46,1.46,0,0,1,.34,1.07v2.89h-.71V19a2.1,2.1,0,0,0-.07-.61.63.63,0,0,0-.25-.31.86.86,0,0,0-.43-.11,1,1,0,0,0-.74.29,1.3,1.3,0,0,0-.29.95v2.45h-.72V18.91a1.24,1.24,0,0,0-.17-.71A.67.67,0,0,0,135,18a1,1,0,0,0-.56.16.9.9,0,0,0-.37.46,2.55,2.55,0,0,0-.12.88v2.19Z"/><path d="M142.73,21.13a2.7,2.7,0,0,1-.77.47,2.05,2.05,0,0,1-.79.14,1.5,1.5,0,0,1-1.06-.34,1.2,1.2,0,0,1,.13-1.84,1.87,1.87,0,0,1,.52-.23,5.52,5.52,0,0,1,.63-.11,7.35,7.35,0,0,0,1.28-.24v-.19a.82.82,0,0,0-.2-.62,1.56,1.56,0,0,0-1.56-.06,1,1,0,0,0-.35.62l-.7-.09a1.68,1.68,0,0,1,.31-.73,1.46,1.46,0,0,1,.63-.42,2.8,2.8,0,0,1,1-.15,2.35,2.35,0,0,1,.87.13,1.11,1.11,0,0,1,.5.32,1.18,1.18,0,0,1,.22.48,3.3,3.3,0,0,1,0,.66v.95a10.55,10.55,0,0,0,0,1.26,1.55,1.55,0,0,0,.18.51h-.74A1.37,1.37,0,0,1,142.73,21.13Zm-.06-1.6a4.84,4.84,0,0,1-1.17.27,2.64,2.64,0,0,0-.62.15.58.58,0,0,0-.28.23.57.57,0,0,0-.1.34.59.59,0,0,0,.21.47.93.93,0,0,0,.63.19,1.5,1.5,0,0,0,.74-.18,1.11,1.11,0,0,0,.47-.49,1.65,1.65,0,0,0,.12-.71Z"/><path d="M149.48,21.65v-.53a1.31,1.31,0,0,1-1.17.62,1.68,1.68,0,0,1-.93-.27,1.85,1.85,0,0,1-.65-.78,2.58,2.58,0,0,1-.24-1.14,3,3,0,0,1,.21-1.15,1.63,1.63,0,0,1,1.57-1.06,1.37,1.37,0,0,1,.68.16,1.54,1.54,0,0,1,.49.42V15.83h.71v5.82Zm-2.25-2.1a1.82,1.82,0,0,0,.34,1.21,1,1,0,0,0,.8.4,1,1,0,0,0,.8-.39,1.73,1.73,0,0,0,.33-1.16,2,2,0,0,0-.34-1.27,1,1,0,0,0-.82-.41,1,1,0,0,0-.79.39A1.89,1.89,0,0,0,147.23,19.55Z"/><path d="M154.15,20.29l.74.09a1.82,1.82,0,0,1-.65,1,2,2,0,0,1-1.2.35,1.93,1.93,0,0,1-1.47-.57,2.22,2.22,0,0,1-.54-1.59,2.3,2.3,0,0,1,.55-1.65,1.86,1.86,0,0,1,1.42-.59,1.79,1.79,0,0,1,1.38.58,2.3,2.3,0,0,1,.53,1.61v.19h-3.14a1.63,1.63,0,0,0,.39,1.07,1.2,1.2,0,0,0,.88.37,1.07,1.07,0,0,0,.67-.21A1.37,1.37,0,0,0,154.15,20.29Zm-2.34-1.15h2.35a1.4,1.4,0,0,0-.27-.8,1.1,1.1,0,0,0-.88-.41,1.13,1.13,0,0,0-.83.33A1.3,1.3,0,0,0,151.81,19.14Z"/><path d="M160.79,20.11l.7.09a1.76,1.76,0,0,1-.59,1.13,1.66,1.66,0,0,1-1.16.41,1.79,1.79,0,0,1-1.39-.56,2.31,2.31,0,0,1-.53-1.62,3,3,0,0,1,.23-1.2,1.55,1.55,0,0,1,.69-.76,2,2,0,0,1,1-.26,1.77,1.77,0,0,1,1.13.35,1.63,1.63,0,0,1,.56,1l-.7.11a1.11,1.11,0,0,0-.35-.64.92.92,0,0,0-.61-.21,1.11,1.11,0,0,0-.87.38,1.83,1.83,0,0,0-.34,1.23,1.93,1.93,0,0,0,.32,1.23,1.06,1.06,0,0,0,.85.39,1,1,0,0,0,.7-.26A1.27,1.27,0,0,0,160.79,20.11Z"/><path d="M164.86,21.65V21a1.51,1.51,0,0,1-1.33.71,1.65,1.65,0,0,1-.7-.14,1.13,1.13,0,0,1-.48-.36,1.35,1.35,0,0,1-.22-.53,3.57,3.57,0,0,1,0-.66V17.44h.71v2.33a3.93,3.93,0,0,0,0,.76.77.77,0,0,0,.28.44,1,1,0,0,0,.54.16,1.13,1.13,0,0,0,.6-.17.94.94,0,0,0,.4-.44,2.24,2.24,0,0,0,.12-.83V17.44h.71v4.21Z"/><path d="M169.51,20.29l.73.09a1.81,1.81,0,0,1-.64,1,2,2,0,0,1-1.21.35,1.91,1.91,0,0,1-1.46-.57,2.18,2.18,0,0,1-.55-1.59,2.35,2.35,0,0,1,.55-1.65,1.87,1.87,0,0,1,1.42-.59,1.79,1.79,0,0,1,1.38.58,2.25,2.25,0,0,1,.54,1.61,1.42,1.42,0,0,1,0,.19h-3.14a1.68,1.68,0,0,0,.39,1.07,1.2,1.2,0,0,0,.88.37,1.05,1.05,0,0,0,.67-.21A1.38,1.38,0,0,0,169.51,20.29Zm-2.35-1.15h2.35a1.4,1.4,0,0,0-.27-.8,1.09,1.09,0,0,0-.88-.41,1.15,1.15,0,0,0-.83.33A1.3,1.3,0,0,0,167.16,19.14Z"/><path d="M171.13,21.65V17.44h.64v.63a2,2,0,0,1,.46-.59.83.83,0,0,1,.46-.14,1.42,1.42,0,0,1,.73.23l-.25.66a1,1,0,0,0-.52-.15.68.68,0,0,0-.42.14.81.81,0,0,0-.27.39,3.09,3.09,0,0,0-.11.83v2.21Z"/><path d="M173.84,23.26V17.44h.65V18a1.79,1.79,0,0,1,.52-.48,1.43,1.43,0,0,1,.71-.16,1.63,1.63,0,0,1,.95.28,1.68,1.68,0,0,1,.62.78,3,3,0,0,1,0,2.27,1.83,1.83,0,0,1-.67.8,1.79,1.79,0,0,1-.94.27,1.37,1.37,0,0,1-.64-.15,1.56,1.56,0,0,1-.46-.38v2.05Zm.65-3.69a1.83,1.83,0,0,0,.33,1.2,1,1,0,0,0,.8.39,1,1,0,0,0,.81-.41,1.87,1.87,0,0,0,.34-1.24,1.88,1.88,0,0,0-.33-1.21,1,1,0,0,0-.79-.4,1,1,0,0,0-.81.43A1.91,1.91,0,0,0,174.49,19.57Z"/><path d="M178.1,19.54a2.14,2.14,0,0,1,.65-1.73,2,2,0,0,1,1.32-.47,1.89,1.89,0,0,1,1.42.57,2.15,2.15,0,0,1,.55,1.57,2.8,2.8,0,0,1-.24,1.28,1.7,1.7,0,0,1-.71.72,2,2,0,0,1-1,.26,1.93,1.93,0,0,1-1.43-.56A2.3,2.3,0,0,1,178.1,19.54Zm.73,0a1.82,1.82,0,0,0,.35,1.21,1.17,1.17,0,0,0,1.78,0,1.86,1.86,0,0,0,.35-1.23,1.75,1.75,0,0,0-.36-1.19,1.14,1.14,0,0,0-.88-.4,1.16,1.16,0,0,0-.89.4A1.82,1.82,0,0,0,178.83,19.54Z"/><path d="M185.12,21.65V15.83h.71v5.82Z"/><path d="M186.94,16.65v-.82h.72v.82Zm0,5V17.44h.72v4.21Z"/><path d="M189.4,21.65h-.66V15.83h.72v2.08a1.4,1.4,0,0,1,1.15-.57,1.73,1.73,0,0,1,.74.16,1.46,1.46,0,0,1,.57.44,2.3,2.3,0,0,1,.35.68,3,3,0,0,1,.12.86,2.38,2.38,0,0,1-.53,1.67,1.67,1.67,0,0,1-1.29.59,1.34,1.34,0,0,1-1.17-.62Zm0-2.14a2.31,2.31,0,0,0,.2,1.1,1.05,1.05,0,0,0,.92.55,1,1,0,0,0,.8-.41,1.84,1.84,0,0,0,.35-1.21,1.87,1.87,0,0,0-.33-1.22,1,1,0,0,0-1.6,0A1.8,1.8,0,0,0,189.4,19.51Z"/><path d="M193.26,21.65V17.44h.64v.63a1.82,1.82,0,0,1,.45-.59.83.83,0,0,1,.46-.14,1.39,1.39,0,0,1,.73.23l-.24.66a1.07,1.07,0,0,0-.53-.15.7.7,0,0,0-.68.53,2.73,2.73,0,0,0-.12.83v2.21Z"/><path d="M198.85,20.29l.74.09a1.82,1.82,0,0,1-.65,1,2,2,0,0,1-1.2.35,1.93,1.93,0,0,1-1.47-.57,2.22,2.22,0,0,1-.54-1.59,2.3,2.3,0,0,1,.55-1.65,1.86,1.86,0,0,1,1.42-.59,1.79,1.79,0,0,1,1.38.58,2.3,2.3,0,0,1,.53,1.61v.19h-3.14a1.63,1.63,0,0,0,.39,1.07,1.2,1.2,0,0,0,.88.37,1.07,1.07,0,0,0,.67-.21A1.37,1.37,0,0,0,198.85,20.29Zm-2.34-1.15h2.35a1.4,1.4,0,0,0-.27-.8,1.1,1.1,0,0,0-.88-.41,1.13,1.13,0,0,0-.83.33A1.3,1.3,0,0,0,196.51,19.14Z"/><path d="M155.78,33V27.18h.65v.55a1.68,1.68,0,0,1,.52-.48,1.39,1.39,0,0,1,.7-.16,1.61,1.61,0,0,1,.95.28,1.64,1.64,0,0,1,.63.78,2.89,2.89,0,0,1,.21,1.11,2.7,2.7,0,0,1-.24,1.16,1.77,1.77,0,0,1-1.6,1.07,1.34,1.34,0,0,1-.64-.15,1.48,1.48,0,0,1-.47-.38v2Zm.65-3.7a1.85,1.85,0,0,0,.32,1.2,1,1,0,0,0,.8.39,1,1,0,0,0,.82-.4,1.94,1.94,0,0,0,.34-1.25,1.87,1.87,0,0,0-.33-1.2,1,1,0,0,0-1.6,0A1.89,1.89,0,0,0,156.43,29.31Z"/><path d="M163.05,30.88a2.7,2.7,0,0,1-.77.47,2.26,2.26,0,0,1-.79.14,1.5,1.5,0,0,1-1.06-.34,1.1,1.1,0,0,1-.37-.87,1.08,1.08,0,0,1,.14-.56,1.1,1.1,0,0,1,.36-.41,2.25,2.25,0,0,1,.52-.24,6,6,0,0,1,.63-.1,6.36,6.36,0,0,0,1.28-.25v-.18a.81.81,0,0,0-.2-.62,1.56,1.56,0,0,0-1.56-.06,1,1,0,0,0-.35.62l-.7-.1a1.77,1.77,0,0,1,.31-.72,1.46,1.46,0,0,1,.63-.42,2.85,2.85,0,0,1,1-.15,2.6,2.6,0,0,1,.87.12,1.31,1.31,0,0,1,.5.32,1.05,1.05,0,0,1,.22.49,3.3,3.3,0,0,1,0,.66v.95a10.78,10.78,0,0,0,0,1.26,1.64,1.64,0,0,0,.18.51h-.74A1.43,1.43,0,0,1,163.05,30.88Zm-.06-1.6a4.84,4.84,0,0,1-1.17.27,2.76,2.76,0,0,0-.62.14.6.6,0,0,0-.28.24.56.56,0,0,0-.1.33.63.63,0,0,0,.21.48.93.93,0,0,0,.63.19,1.5,1.5,0,0,0,.74-.18,1.11,1.11,0,0,0,.47-.49,1.67,1.67,0,0,0,.12-.72Z"/><path d="M164.81,31.4V27.18h.64v.64a1.71,1.71,0,0,1,.45-.59.83.83,0,0,1,.46-.14,1.36,1.36,0,0,1,.74.23l-.25.66a1.06,1.06,0,0,0-.52-.15.67.67,0,0,0-.43.14.73.73,0,0,0-.26.39,2.73,2.73,0,0,0-.12.83V31.4Z"/><path d="M170.27,30.88a2.7,2.7,0,0,1-.77.47,2.21,2.21,0,0,1-.78.14,1.51,1.51,0,0,1-1.07-.34,1.1,1.1,0,0,1-.37-.87,1.08,1.08,0,0,1,.14-.56,1.13,1.13,0,0,1,.37-.41,2,2,0,0,1,.51-.24,6,6,0,0,1,.63-.1,6.21,6.21,0,0,0,1.28-.25v-.18a.81.81,0,0,0-.2-.62,1.19,1.19,0,0,0-.81-.24,1.26,1.26,0,0,0-.75.18,1,1,0,0,0-.35.62l-.7-.1a1.77,1.77,0,0,1,.31-.72,1.46,1.46,0,0,1,.63-.42,2.85,2.85,0,0,1,1-.15,2.71,2.71,0,0,1,.88.12,1.26,1.26,0,0,1,.49.32,1.05,1.05,0,0,1,.22.49,3.3,3.3,0,0,1,0,.66v.95a10,10,0,0,0,0,1.26,1.64,1.64,0,0,0,.18.51h-.75A1.66,1.66,0,0,1,170.27,30.88Zm-.06-1.6a4.84,4.84,0,0,1-1.17.27,2.76,2.76,0,0,0-.62.14.6.6,0,0,0-.28.24.56.56,0,0,0-.1.33.61.61,0,0,0,.22.48.9.9,0,0,0,.63.19,1.46,1.46,0,0,0,.73-.18,1.06,1.06,0,0,0,.47-.49,1.67,1.67,0,0,0,.12-.72Z"/><path d="M174.28,31.4V25.58H175V31.4Z"/><path d="M178.85,30.88a2.7,2.7,0,0,1-.77.47,2.21,2.21,0,0,1-.78.14,1.51,1.51,0,0,1-1.07-.34,1.1,1.1,0,0,1-.37-.87,1.08,1.08,0,0,1,.14-.56,1,1,0,0,1,.37-.41,2,2,0,0,1,.51-.24,6,6,0,0,1,.63-.1,6.21,6.21,0,0,0,1.28-.25v-.18a.81.81,0,0,0-.2-.62,1.19,1.19,0,0,0-.81-.24,1.26,1.26,0,0,0-.75.18,1,1,0,0,0-.35.62l-.7-.1a1.77,1.77,0,0,1,.31-.72,1.46,1.46,0,0,1,.63-.42,2.85,2.85,0,0,1,1-.15,2.71,2.71,0,0,1,.88.12,1.26,1.26,0,0,1,.49.32,1.05,1.05,0,0,1,.22.49,3.3,3.3,0,0,1,0,.66v.95a8.27,8.27,0,0,0,.05,1.26,1.64,1.64,0,0,0,.18.51H179A1.66,1.66,0,0,1,178.85,30.88Zm-.06-1.6a4.84,4.84,0,0,1-1.17.27,2.76,2.76,0,0,0-.62.14.6.6,0,0,0-.28.24.56.56,0,0,0-.1.33.63.63,0,0,0,.21.48.94.94,0,0,0,.64.19,1.46,1.46,0,0,0,.73-.18,1.11,1.11,0,0,0,.47-.49,1.67,1.67,0,0,0,.12-.72Z"/><path d="M182.87,33V27.18h.65v.55a1.79,1.79,0,0,1,.52-.48,1.42,1.42,0,0,1,.7-.16,1.65,1.65,0,0,1,1.58,1.06,3,3,0,0,1,0,2.27,1.71,1.71,0,0,1-.68.79,1.66,1.66,0,0,1-.93.28,1.37,1.37,0,0,1-.64-.15,1.44,1.44,0,0,1-.46-.38v2Zm.65-3.7a1.79,1.79,0,0,0,.33,1.2,1,1,0,0,0,.8.39,1,1,0,0,0,.81-.4,1.89,1.89,0,0,0,.34-1.25,1.87,1.87,0,0,0-.33-1.2,1,1,0,0,0-.79-.4,1,1,0,0,0-.81.42A2,2,0,0,0,183.52,29.31Z"/><path d="M190.27,30l.74.09a1.76,1.76,0,0,1-.65,1,1.9,1.9,0,0,1-1.2.36,1.94,1.94,0,0,1-1.47-.57,2.23,2.23,0,0,1-.54-1.6,2.33,2.33,0,0,1,.55-1.65,1.85,1.85,0,0,1,1.42-.58,1.82,1.82,0,0,1,1.38.57,2.3,2.3,0,0,1,.54,1.62s0,.11,0,.19h-3.14a1.65,1.65,0,0,0,.39,1.06,1.16,1.16,0,0,0,.88.37,1.11,1.11,0,0,0,.67-.2A1.3,1.3,0,0,0,190.27,30Zm-2.34-1.16h2.35a1.37,1.37,0,0,0-.27-.79,1.08,1.08,0,0,0-.88-.42,1.13,1.13,0,0,0-.83.33A1.32,1.32,0,0,0,187.93,28.88Z"/><path d="M191.62,30.14l.71-.11a1,1,0,0,0,.33.65,1.15,1.15,0,0,0,.76.22,1.08,1.08,0,0,0,.73-.2.59.59,0,0,0,.24-.47.43.43,0,0,0-.21-.38,3.46,3.46,0,0,0-.73-.24,6.91,6.91,0,0,1-1.09-.34,1.07,1.07,0,0,1-.46-.4,1.1,1.1,0,0,1,0-1.09,1.22,1.22,0,0,1,.35-.4,1.53,1.53,0,0,1,.46-.21,2.37,2.37,0,0,1,.61-.08,2.56,2.56,0,0,1,.87.14,1.2,1.2,0,0,1,.56.39,1.43,1.43,0,0,1,.24.65l-.7.09a.75.75,0,0,0-.27-.5,1,1,0,0,0-.65-.19,1.16,1.16,0,0,0-.7.17.47.47,0,0,0-.21.38.4.4,0,0,0,.09.25.72.72,0,0,0,.27.19l.63.18c.51.14.86.25,1.06.33a1,1,0,0,1,.64,1,1.18,1.18,0,0,1-.21.67,1.4,1.4,0,0,1-.6.49,2.28,2.28,0,0,1-.89.17,2,2,0,0,1-1.25-.34A1.64,1.64,0,0,1,191.62,30.14Z"/><path d="M198.72,30.88a2.7,2.7,0,0,1-.77.47,2.21,2.21,0,0,1-.78.14,1.51,1.51,0,0,1-1.07-.34,1.1,1.1,0,0,1-.37-.87,1.08,1.08,0,0,1,.14-.56,1,1,0,0,1,.37-.41,2,2,0,0,1,.51-.24,6,6,0,0,1,.63-.1,6.21,6.21,0,0,0,1.28-.25v-.18a.81.81,0,0,0-.2-.62,1.19,1.19,0,0,0-.81-.24,1.26,1.26,0,0,0-.75.18,1,1,0,0,0-.35.62l-.7-.1a1.77,1.77,0,0,1,.31-.72,1.46,1.46,0,0,1,.63-.42,2.85,2.85,0,0,1,1-.15,2.71,2.71,0,0,1,.88.12,1.26,1.26,0,0,1,.49.32,1.05,1.05,0,0,1,.22.49,3.3,3.3,0,0,1,0,.66v.95a8.27,8.27,0,0,0,.05,1.26,1.64,1.64,0,0,0,.18.51h-.75A1.66,1.66,0,0,1,198.72,30.88Zm-.06-1.6a4.84,4.84,0,0,1-1.17.27,2.76,2.76,0,0,0-.62.14.6.6,0,0,0-.28.24.56.56,0,0,0-.1.33.63.63,0,0,0,.21.48.94.94,0,0,0,.64.19,1.46,1.46,0,0,0,.73-.18,1.11,1.11,0,0,0,.47-.49,1.67,1.67,0,0,0,.12-.72Z"/><circle cx="165.47" cy="120.26" r="3.52"/><circle cx="17.69" cy="122.15" r="3.73"/></svg>