<svg id="Capa_1" data-name="Capa 1" xmlns="http://www.w3.org/2000/svg" viewBox="0 0 531 186.72"><path d="M120,146.59c2.06-2.09,4.14-4.05,6.24-5.82a22.25,22.25,0,0,0-7,3.84c1.83-5.62,2.47-10.88.63-14a42.5,42.5,0,0,1-4.52,15.64C116.94,146.41,118.48,146.52,120,146.59Z" style="fill:#b6ba63"/><path d="M101.36,138.83v0c-.7,1.34-1.36,2.77-2,4.21.82.25,1.64.48,2.46.7q.49-1.42,1-2.79c.24.32.48.64.74.95.15-1.2.28-2.42.39-3.64a48.21,48.21,0,0,1,4.46-8,11.37,11.37,0,0,0-4.2,3.81c.17-5.23-.31-10-2.18-12.77A54.24,54.24,0,0,1,101.36,138.83Z" style="fill:#b6ba63"/><path d="M104.28,144.38A48.83,48.83,0,0,1,109.35,130c-2.79,1.1-5.32,4.6-7.23,9.67a23,23,0,0,0-3.36-10.06,39.62,39.62,0,0,1,.75,9c-2.12-6-4.63-10.8-7.26-13.53a113.61,113.61,0,0,1,5.23,17.36Q100.86,143.57,104.28,144.38Z" style="fill:#bec675"/><path d="M126.8,146.61a97.37,97.37,0,0,1,5-10.11c-2.33,1.69-4.94,5.37-7.57,10.17C125.09,146.66,125.94,146.65,126.8,146.61Z" style="fill:#bec675"/><path d="M124,146.67a49.91,49.91,0,0,1,2.18-8,23.22,23.22,0,0,0-4.18,8C122.65,146.67,123.31,146.67,124,146.67Z" style="fill:#bec675"/><path d="M121.63,146.65c-.46-5.16-1.64-9-3.41-10.74a53,53,0,0,1,1,10.64C120,146.59,120.84,146.63,121.63,146.65Z" style="fill:#bec675"/><path d="M114.4,146.15c2.55-4.23,5.63-8.79,8.42-11.44-3,.93-6.17,3.37-9.1,6.7a19.18,19.18,0,0,1,2.08-6.14,10.73,10.73,0,0,0-4.73,5.73c-1.09-4.43-3-8-5.58-10a38.29,38.29,0,0,1,2.91,14.27C110.39,145.63,112.39,145.92,114.4,146.15Z" style="fill:#bec675"/><path d="M105.57,144.68c2.26.5,4.52.9,6.79,1.22a166.9,166.9,0,0,1,10-17.56c-3,1.45-6.8,6.28-10.89,13,1.26-5.21,1.55-10,.87-13.43a66,66,0,0,1-3,12c.47-7.89-.13-14.22-1.71-17.58C107.78,127.94,106.92,136.48,105.57,144.68Z" style="fill:#d5d898"/><path d="M97.44,142.46a80,80,0,0,1,1.64-15.72c-2.25,1.56-3.85,6.79-4.52,14.45a58.76,58.76,0,0,0-4.77-14.72,117.61,117.61,0,0,1,2.29,13.41c-3-8.71-5.92-15.69-8.55-19.43,1.75,4.86,3.72,11.73,5.75,18.9C92,140.53,94.7,141.56,97.44,142.46Z" style="fill:#d5d898"/><path d="M175.33,133.78c-.23.66-.45,1.33-.67,2,1.29-.79,2.58-1.61,3.85-2.46,0-.82,0-1.63,0-2.44a95.66,95.66,0,0,1,4.23-11.48,32.55,32.55,0,0,0-4.55,7.38c-.59-5-2-9-4.74-9.9,1.77,4.18,2.47,10,1.92,16.89Z" style="fill:#b6ba63"/><path d="M159.5,141.3c0,.69-.06,1.39-.08,2.1.74-.29,1.48-.6,2.22-.91l0-.51c.26.06.52.13.79.18l.18-.07c-.33-1.05-.67-2.12-1-3.16a54.16,54.16,0,0,1,.92-9.79,16.57,16.57,0,0,0-2.28,6.12c-1.82-4.49-4-8.24-6.67-9.38a49,49,0,0,1,6,15.41Z" style="fill:#b6ba63"/><path d="M163.39,141.72a48.68,48.68,0,0,1-1.1-16c-2,2.79-3,7.49-2.68,13.11a15.55,15.55,0,0,0-6.7-6.19,32.34,32.34,0,0,1,4.07,7.21c-4.11-3.51-8.09-6-11.37-6.62,3.24,2.56,7.26,7,11,11.19C158.88,143.65,161.14,142.73,163.39,141.72Z" style="fill:#bec675"/><path d="M173.55,136.45c1.83-1.09,3.66-2.25,5.47-3.47,1.83-7.62,4-16.07,6.15-21.61-2.52,3.37-5,8.88-7.24,15.45a49.41,49.41,0,0,1,1-9.42,31.94,31.94,0,0,0-3.51,11c-1.6-4.78-3.9-7.76-6.52-8.25C171.12,123.84,172.76,129.48,173.55,136.45Z" style="fill:#bec675"/><path d="M171.44,137.66a156.17,156.17,0,0,1,2.39-24c-2.17,3.17-3.78,9.59-4.79,17.89-.87-5.07-2.35-9.1-4.2-11.51A69.31,69.31,0,0,1,166.67,132c-2.57-6.72-5.37-11.6-8-13.41,2.37,5,5,13.71,7.12,22Q168.67,139.23,171.44,137.66Z" style="fill:#d5d898"/><path d="M153.39,145.55a80.61,80.61,0,0,1-.43-13.92c-1.81,2.6-2.61,7.88-2.4,14.77C151.51,146.13,152.44,145.85,153.39,145.55Z" style="fill:#d5d898"/><path d="M149.94,146.57a33.09,33.09,0,0,0-6.09-9.64,79.5,79.5,0,0,1,3.78,10.24Q148.79,146.89,149.94,146.57Z" style="fill:#d5d898"/><path d="M147.23,147.27c-3.88-5.94-7.48-10.48-10.44-12.41,2.19,3.3,4.78,8,7.46,13.07C145.24,147.73,146.24,147.51,147.23,147.27Z" style="fill:#d5d898"/><path d="M153.05,146.3c1.84-2.91,3.73-5.69,5.65-8.27a32.12,32.12,0,0,0-6.35,6.3c1.17-6.13,1.22-11.44-.93-13.79a49.84,49.84,0,0,1-2.77,17.13C150.12,147.25,151.59,146.8,153.05,146.3Z" style="fill:#b6ba63"/><path d="M134.11,145.42h0c-.56,1.67-1.08,3.42-1.57,5.18.84-.07,1.68-.15,2.53-.25.23-1.15.47-2.29.74-3.4.27.22.55.45.83.66,0-1.24,0-2.49,0-3.74a62.44,62.44,0,0,1,3.49-9.51,16.12,16.12,0,0,0-3.7,5.29c-.42-5.22-1.44-9.76-3.58-11.82A54.19,54.19,0,0,1,134.11,145.42Z" style="fill:#b6ba63"/><path d="M137.58,150a60.13,60.13,0,0,1,3.4-16.28c-2.62,2.09-4.71,6.46-6,12.19a17.76,17.76,0,0,0-4.44-8.69,36,36,0,0,1,1.75,8.68c-2.75-5.09-5.78-9-8.69-10.71,2.41,3.71,5,9.73,7.21,15.52Q134.19,150.53,137.58,150Z" style="fill:#bec675"/><path d="M159.79,143.73c1.28-4.51,2.59-8.77,3.83-11.85-2.11,2.51-4.29,7.13-6.35,12.88C158.11,144.43,159,144.09,159.79,143.73Z" style="fill:#bec675"/><path d="M157.11,144.82a58.84,58.84,0,0,1,1.27-8.75,30.23,30.23,0,0,0-3.24,9.5C155.8,145.33,156.46,145.08,157.11,144.82Z" style="fill:#bec675"/><path d="M154.89,145.66c-1-4.94-2.6-8.33-4.56-9.37a45.84,45.84,0,0,1,2.22,10.18C153.34,146.21,154.11,145.94,154.89,145.66Z" style="fill:#bec675"/><path d="M147.62,148c2-5.16,4.6-10.85,7.08-14.5-2.83,2-5.66,5.52-8.16,9.86a23.33,23.33,0,0,1,1.35-6.75,15.09,15.09,0,0,0-4,7.34c-1.57-3.93-3.88-6.71-6.6-7.76a31.68,31.68,0,0,1,4.48,13.17C143.74,148.93,145.68,148.47,147.62,148Z" style="fill:#bec675"/><path d="M138.9,149.83c2.24-.36,4.49-.82,6.72-1.36a215.23,215.23,0,0,1,7.88-21c-2.8,2.49-5.94,8.53-9.22,16.62.66-5.57.42-10.3-.64-13.45a74.74,74.74,0,0,1-1.62,12.9c-.41-7.91-1.71-13.89-3.64-16.63C139.22,132.36,139.32,141.18,138.9,149.83Z" style="fill:#d5d898"/><path d="M130.68,150.75a85.54,85.54,0,0,1-.18-16.45c-2,2.38-3,8.18-2.84,16.06a45.44,45.44,0,0,0-6.38-12.85A101.59,101.59,0,0,1,125.06,150c-4-7.5-7.64-13.4-10.67-16.16,2.31,4.28,5.09,10.53,7.94,17A83.11,83.11,0,0,0,130.68,150.75Z" style="fill:#d5d898"/><path d="M109.6,154.23c1.32.18,2.64.33,4,.47-.15-.32-.3-.64-.46-.95l0,0a36.14,36.14,0,0,1,2.28-16.88c-3.07,2.26-4.64,6.69-5.36,11.7a15.52,15.52,0,0,0-5-4.7,47.86,47.86,0,0,1,4.6,8.74C109.62,153.13,109.62,153.68,109.6,154.23Z" style="fill:#b6ba63"/><path d="M128.16,154.56c0,.29,0,.59-.07.88.82,0,1.63,0,2.44,0,0-.86,0-1.72-.07-2.54h0A70,70,0,0,1,137,135.47c-2.87,2.39-5.26,7-7.28,12.1a8.34,8.34,0,0,0-2.44-4.6,37.41,37.41,0,0,1,.94,8.72c-.42,1.2-.81,2.41-1.18,3.61Z" style="fill:#b6ba63"/><path d="M126.14,155.43q3.39,0,6.77-.09c4.26-6.09,8.9-12.72,12.57-17-3.51,2.24-7.8,6.59-12.27,11.94a54,54,0,0,1,4.44-8.79,32.73,32.73,0,0,0-7.3,9.16c.35-5.4-.62-9.34-2.83-10.94C128.1,143.76,127.63,149.22,126.14,155.43Z" style="fill:#bec675"/><path d="M115.64,154.9c.92-6.55,2.38-12.9,4.67-17.16-2.88,1.75-5.45,5.71-7.26,11a16.9,16.9,0,0,0-3.8-8.66,34,34,0,0,1,1,8.39c-2.42-5.09-5.14-9.06-7.93-11,2.23,4,4.5,10.57,6.42,16.64C111.07,154.44,113.35,154.7,115.64,154.9Z" style="fill:#bec675"/><path d="M123.55,155.38c2.39-8.81,5.31-18.27,7.92-24.14-2.83,3-5.91,8.94-8.78,16.53a72.13,72.13,0,0,1,2.09-12.12,37.55,37.55,0,0,0-4.69,12.9c-1-7.3-2.76-12.56-5.12-14.5a108.81,108.81,0,0,1,2.39,21Q120.45,155.27,123.55,155.38Z" style="fill:#d5d898"/><path d="M146,153.06c-2,.59-4,1.12-5.92,1.58a61.37,61.37,0,0,1,7.24-13.79,113.92,113.92,0,0,0-4.51,12.89c4.51-8.23,8.67-14.91,12-18.46C152.29,139.89,149.2,146.35,146,153.06Z" style="fill:#d5d898"/><path d="M136.9,155.13l1.48-.11,1.65-.36c.47-7.36-.35-12.47-2.43-14.11A72.08,72.08,0,0,1,136.9,155.13Z" style="fill:#d5d898"/><path d="M83.28,140.26c.64,1.25,1.26,2.52,1.86,3.79-1.21-.58-2.41-1.19-3.6-1.82-.18-.48-.35-.95-.54-1.42-.37.07-.73.13-1.12.17-.12-1.15-.22-2.31-.28-3.45a102,102,0,0,0-5.6-10.8,37.36,37.36,0,0,1,5.57,7c.19-4.61,1.32-8.24,4.23-9-1.53,3.8-1.76,9.14-.5,15.55Z" style="fill:#b6ba63"/><path d="M101.41,147.09c.2,1.12.35,2.26.48,3.41l-2.68-.81q0-1-.06-1.95c-.37.08-.72.17-1.1.23.27-1,.55-2,.85-3a43,43,0,0,0-2-8.87,15.48,15.48,0,0,1,3.12,5.54c1.58-4.08,3.62-7.47,6.46-8.52a35.69,35.69,0,0,0-5.08,14Z" style="fill:#b6ba63"/><path d="M96.9,148.92a37.3,37.3,0,0,0-.1-15.87c2.53,2.54,4,6.77,4.25,11.85a14.37,14.37,0,0,1,6.83-5.68,24.51,24.51,0,0,0-3.81,6.56c4.21-3.26,8.4-5.59,12-6.25-3.71,2.64-8.24,7.29-12.25,11.52Q100.35,150.1,96.9,148.92Z" style="fill:#bec675"/><path d="M85.38,144.1a51.5,51.5,0,0,1-5-2.49l-.48-.27c-2.84-7.52-6.28-16.46-9.29-22.24,3,3.3,6.17,8.53,9.19,14.68a42.94,42.94,0,0,0-2-8.78,31.33,31.33,0,0,1,4.83,10.32c1.29-4.39,3.5-7.08,6.32-7.46C86.86,131.29,85.5,137.38,85.38,144.1Z" style="fill:#bec675"/><path d="M88.11,145.44A138.62,138.62,0,0,0,83,121.75c2.65,3,5,9,6.91,16.57.47-4.64,1.7-8.31,3.49-10.47a52,52,0,0,0-.85,10.88c2.18-6.12,4.78-10.52,7.46-12.15-2.25,4.8-4.41,13.38-6,21.32Q91.07,146.76,88.11,145.44Z" style="fill:#d5d898"/><path d="M118.37,153.79q-3.16-.34-6.33-.92a27.45,27.45,0,0,1,6.4-10.17,57.83,57.83,0,0,0-3.51,10.44c4-6,7.89-10.64,11.24-12.63A143.36,143.36,0,0,0,118.37,153.79Z" style="fill:#d5d898"/><path d="M112,152.86q-1.68-.3-3.36-.66a60.65,60.65,0,0,0-.89-13.92C110.16,140.76,111.65,146,112,152.86Z" style="fill:#d5d898"/><path d="M150.15,148.81c.91.7,2.23,1.33,3.11,2.07-1.06.48-2.55,1-3.62,1.45-.3-.32-.59-.64-.9-1-.23.4-.47.79-.72,1.18-.51-1.06-1-2.15-1.45-3.26a54.24,54.24,0,0,0-7.9-6,15.88,15.88,0,0,1,6.49,2.19c-1.56-4.89-2.09-9.62-.31-12.89a36.39,36.39,0,0,0,5.31,16.22S150.15,148.8,150.15,148.81Z" style="fill:#b6ba63"/><path d="M165.51,140.42c.54.93,1.05,1.91,1.55,2.91-.73.47-1.47.92-2.2,1.37q-.36-.93-.75-1.83-.33.57-.69,1.11c-.17-1.18-.32-2.38-.46-3.59a35.19,35.19,0,0,0-4.59-7.1,8.51,8.51,0,0,1,4.23,2.94c-.33-5.22-.06-10.11,1.64-13.25a59.08,59.08,0,0,0,1.28,17.43Z" style="fill:#b6ba63"/><path d="M162.73,146.2c-1.28-6.58-3.31-11.95-5.76-15.5,2.74.53,5.33,3.52,7.3,8.25a28,28,0,0,1,2.93-10.78,44.76,44.76,0,0,0-.44,9.24c1.88-6.43,4.12-11.78,6.55-15-1.81,5.19-3.47,13-4.86,20.28C166.56,143.9,164.65,145.09,162.73,146.2Z" style="fill:#bec675"/><path d="M153.26,150.88a47.18,47.18,0,0,1-4.65,1.85l-.44.17c-4.73-5.06-10.44-11.19-14.67-14.5,3.31.69,7.47,3.3,11.84,6.89a36.24,36.24,0,0,0-4.6-7.27,18.13,18.13,0,0,1,7.18,6.32c-.69-5.57-.09-10.19,1.78-12.88C149.42,136.66,150.92,144.06,153.26,150.88Z" style="fill:#bec675"/><path d="M155,150.06c-4.18-8-8.19-14.74-12-19.49,3,.88,6.84,5,10.94,11a35.17,35.17,0,0,1-1.29-13.3A67.81,67.81,0,0,0,156,139.79c-.66-7.86-.38-14.28,1-17.92.09,6.45,1.63,16.66,3.35,25.74A40.49,40.49,0,0,1,155,150.06Z" style="fill:#d5d898"/><path d="M180.09,133.62q-2.43,2.07-4.9,4a48.42,48.42,0,0,1,1.13-14.34,89.37,89.37,0,0,0,1,12.37c.84-8.67,2.11-15.76,3.92-20C180.67,120.37,180.34,126.83,180.09,133.62Z" style="fill:#d5d898"/><path d="M174.84,138c-.88.67-1.76,1.33-2.65,2a62.07,62.07,0,0,0-5.54-12.6C169.3,127.89,172.23,131.78,174.84,138Z" style="fill:#d5d898"/><path d="M142.73,154.61a36.36,36.36,0,0,1-3.78-9.18c-1,2.44-.36,5.8,1.12,9.45C141,154.8,141.84,154.71,142.73,154.61Z" style="fill:#b6ba63"/><path d="M156.93,152.25c1.06-.23,2.11-.48,3.16-.74-.35-.46-.7-.92-1.06-1.36v0a49.12,49.12,0,0,1-3.69-16.52c-1.42,2.92-1.1,7.59,0,12.54a11.74,11.74,0,0,0-4.9-2.93,48.73,48.73,0,0,1,5.87,6.86C156.49,150.82,156.71,151.53,156.93,152.25Z" style="fill:#b6ba63"/><path d="M163.77,150.55a90.1,90.1,0,0,1,2.25-15c-2.24,3-4,8-5.14,14.05a35.23,35.23,0,0,1-.76-8.69,20.92,20.92,0,0,0-1.72,10.13c-2.8-4.45-6-7.36-9-8a41.92,41.92,0,0,1,6,9.47C158.26,152,161,151.31,163.77,150.55Z" style="fill:#bec675"/><path d="M140.07,154.88l1.58-.16a39.43,39.43,0,0,1-.08-4.43A9.68,9.68,0,0,0,140.07,154.88Z" style="fill:#bec675"/><path d="M149.64,153.66l3-.52a31.38,31.38,0,0,1,.92-9.73C151.34,145.69,150,149.34,149.64,153.66Z" style="fill:#bec675"/><path d="M149.42,153.69a10.8,10.8,0,0,0-5.54-4.43,18.4,18.4,0,0,1,2.83,4.84C147.62,154,148.52,153.84,149.42,153.69Z" style="fill:#bec675"/><path d="M142.44,154.64c1.24-.14,2.47-.29,3.7-.46-3.23-2.33-6.49-3.91-9.36-4.29A41.09,41.09,0,0,1,142.44,154.64Z" style="fill:#bec675"/><path d="M149.05,153.75c1.81-.29,3.62-.61,5.42-1a103.47,103.47,0,0,1-4.54-17.28c-1,3.47-.54,9.66,1.29,17.15a62,62,0,0,1-5.11-11.07C146,144.88,147.06,149.19,149.05,153.75Z" style="fill:#d5d898"/><path d="M148.79,153.79c-5-5.41-9.47-9.3-12.62-10.2,2.83,2.9,6,6.57,9.29,10.68Q147.13,154.06,148.79,153.79Z" style="fill:#d5d898"/><path d="M171.46,148.16c.89-7,1.79-13.72,2.81-18.51-2.1,3.9-4,10.83-5.56,19.42C169.63,148.78,170.54,148.48,171.46,148.16Z" style="fill:#d5d898"/><path d="M166,149.91c-1.9-6.4-4.28-10.6-6.7-11.64a67.06,67.06,0,0,1,3.87,12.44C164.12,150.46,165.06,150.19,166,149.91Z" style="fill:#d5d898"/><path d="M166.41,149.79l2.24-.7a98.86,98.86,0,0,1,.13-12.7A50,50,0,0,0,166.41,149.79Z" style="fill:#d5d898"/><path d="M88,149.47a37.15,37.15,0,0,1,0-12.86c-2.44,1.48-3.07,5.87-2.81,11.2A33.67,33.67,0,0,0,79.67,141c1.34,2.23,2.62,4.59,3.84,7C85,148.52,86.48,149,88,149.47Z" style="fill:#b6ba63"/><path d="M105.72,153.65a46,46,0,0,1,2.63-11.12c-2.36,1.58-3.81,5.76-4.79,10.67a17.75,17.75,0,0,0-3.22-5.85A54.71,54.71,0,0,1,102,153C103.23,153.22,104.47,153.44,105.72,153.65Z" style="fill:#b6ba63"/><path d="M113,154.64a53,53,0,0,1,4.32-6c-2.3.86-4.79,2.86-7.3,5.61C111,154.41,112,154.53,113,154.64Z" style="fill:#bec675"/><path d="M108.28,154.05a30.1,30.1,0,0,1,1.84-4.75,13.33,13.33,0,0,0-3.93,4.42C106.88,153.84,107.59,153.94,108.28,154.05Z" style="fill:#bec675"/><path d="M104.18,153.38c-.87-4.18-2.32-7.53-4.25-9.52a45.65,45.65,0,0,1,1.53,9C102.36,153.06,103.27,153.23,104.18,153.38Z" style="fill:#bec675"/><path d="M91,150.36a38.19,38.19,0,0,1,1.73-11.11c-2.39.95-4,4.46-4.76,9.75a35.55,35.55,0,0,0-5.12-10.83,58.22,58.22,0,0,1,2.51,9.64c-3.17-6.41-6.39-11.72-9.27-14.8,2,3.85,4.33,9.21,6.56,14.69C85.38,148.68,88.17,149.57,91,150.36Z" style="fill:#bec675"/><path d="M99.67,152.51A119.35,119.35,0,0,1,102.13,136c-2.16,2.26-4,7.72-5.3,15.1a78.91,78.91,0,0,1-.29-12.6c-1.34,2.78-2.06,7.2-2,12.59-2.36-8.36-5-14.74-7.51-17.67a159.74,159.74,0,0,1,4.74,17.2C94.36,151.3,97,152,99.67,152.51Z" style="fill:#d5d898"/><path d="M113.05,154.65a16.51,16.51,0,0,0-3.17-6.4c.45,1.86.83,3.94,1.15,6.16Z" style="fill:#d5d898"/><path d="M118.93,155.16c.21-1.08.44-2.12.7-3.12a21.64,21.64,0,0,0-1.69,3.05Z" style="fill:#d5d898"/><path d="M123.68,155.38c.86-2.48,1.69-4.72,2.5-6.56a25.19,25.19,0,0,0-4.51,6.49Z" style="fill:#d5d898"/><path d="M111.17,154.43a43,43,0,0,1-2.07-8.51c-1.09,1.79-1,4.72-.28,8.2Z" style="fill:#b6ba63"/><path d="M128,155.44a51.88,51.88,0,0,1-1.24-15.16c-1.75,2.36-2,7-1.46,12.28a17,17,0,0,0-4.55-4.65,65.12,65.12,0,0,1,4.39,7.51Z" style="fill:#b6ba63"/><path d="M134.29,155.28a58.69,58.69,0,0,1,2.88-9.2c-2.15,1.8-4.12,5.09-5.77,9.31C132.36,155.36,133.33,155.33,134.29,155.28Z" style="fill:#bec675"/><path d="M126.35,155.43c-2-3.84-4.25-6.67-6.57-8a51.69,51.69,0,0,1,3.71,7.94Z" style="fill:#bec675"/><path d="M128.17,155.44l2.12,0a33.71,33.71,0,0,1,.36-6.22A15.36,15.36,0,0,0,128.17,155.44Z" style="fill:#bec675"/><path d="M122.1,155.33a24.82,24.82,0,0,1,1.69-6.11,10.87,10.87,0,0,0-4.32,6Z" style="fill:#bec675"/><path d="M113.09,154.65a26.43,26.43,0,0,0-6.64-5.23,51.23,51.23,0,0,1,3.85,4.9Q111.7,154.5,113.09,154.65Z" style="fill:#bec675"/><path d="M117,155a14.43,14.43,0,0,0-3.48-3.61,21.2,21.2,0,0,1,1.56,3.45Z" style="fill:#bec675"/><path d="M123,155.36a104.25,104.25,0,0,1-1.9-15.16c-1.28,2.75-1.58,8.11-.9,15C121.15,155.29,122.08,155.33,123,155.36Z" style="fill:#d5d898"/><path d="M116.23,155c-3.72-5.8-7-10.07-9.66-11.81,2.12,3.27,4.4,7.19,6.79,11.53C114.32,154.78,115.27,154.88,116.23,155Z" style="fill:#d5d898"/><path d="M119.65,155.2a73.63,73.63,0,0,1-3-10.44,29.86,29.86,0,0,0,.85,10.3Z" style="fill:#d5d898"/><path d="M142.78,154.6c1.14-4.33,2.26-8.29,3.33-11.33-1.9,2.33-3.85,6.39-5.79,11.58C141.14,154.78,142,154.69,142.78,154.6Z" style="fill:#d5d898"/><path d="M134.48,155.27c-1.14-4.42-2.63-7.56-4.34-9a68.6,68.6,0,0,1,1.88,9.08C132.84,155.35,133.66,155.31,134.48,155.27Z" style="fill:#d5d898"/><path d="M138.77,155c.28-2.46.63-4.84,1.07-7.06a33.7,33.7,0,0,0-2.73,7.19Z" style="fill:#d5d898"/><path d="M148.28,153.87a10.76,10.76,0,0,0-3.75-3.15,29,29,0,0,1,1.91,3.42C147.05,154.06,147.67,154,148.28,153.87Z" style="fill:#b6ba63"/><path d="M156.77,152.29c.32-1.19.66-2.29,1-3.26a16,16,0,0,0-2.74,3.62C155.62,152.54,156.2,152.42,156.77,152.29Z" style="fill:#bec675"/><path d="M143.22,154.55a12,12,0,0,0-3.42-2.12,27.7,27.7,0,0,1,1.64,2.32Z" style="fill:#bec675"/><path d="M138,155.05a27.56,27.56,0,0,0-3-3.91c.6,1.27,1.16,2.62,1.7,4Z" style="fill:#d5d898"/><path d="M142.19,154.67l2.22-.26a59,59,0,0,1,.09-6.47C143.33,149.24,142.58,151.56,142.19,154.67Z" style="fill:#d5d898"/><path d="M134.32,155.28a36.75,36.75,0,0,0-6.69-7.38c1.38,2.06,2.89,4.64,4.45,7.47C132.83,155.35,133.58,155.32,134.32,155.28Z" style="fill:#d5d898"/><path d="M177,146.11A87.36,87.36,0,0,1,181,135.36a36.35,36.35,0,0,0-4.64,7.58c-.95-4.23-2.71-7.36-5.85-7.56,1.93,2.84,3,6.93,3.11,12C174.73,147,175.87,146.56,177,146.11Z" style="fill:#b6ba63"/><path d="M158.52,151.89a33.94,33.94,0,0,1,.43-3.4,12.74,12.74,0,0,0-1.7,3.69Z" style="fill:#b6ba63"/><path d="M155.52,152.56c-2-2.73-4.25-4.8-6.76-5.24a29.36,29.36,0,0,1,4.35,5.72C153.91,152.89,154.72,152.73,155.52,152.56Z" style="fill:#b6ba63"/><path d="M156.17,152.42l2.62-.59a28,28,0,0,1-.23-6.27A13.61,13.61,0,0,0,156.17,152.42Z" style="fill:#bec675"/><path d="M178.22,145.62a155.45,155.45,0,0,1,5.05-17.94c-2.61,3.62-5.07,9.06-7.19,15.35a36.78,36.78,0,0,1,.61-8.5,28,28,0,0,0-3.3,10.51c-2-3.82-4.78-5.92-7.73-5.78a25,25,0,0,1,5,9.18Q174.47,147.15,178.22,145.62Z" style="fill:#bec675"/><path d="M169.44,148.84a104.25,104.25,0,0,1,1.33-16.36c-2.24,3.29-3.67,9.28-4.34,16.78-1.26-4.26-3.13-7.48-5.33-9.22a45.54,45.54,0,0,1,2.69,10.11c-3.24-5.35-6.63-9.08-9.63-10.18a71.61,71.61,0,0,1,6.34,11.44C163.5,150.66,166.49,149.8,169.44,148.84Z" style="fill:#d5d898"/><path d="M115,154.84l1.46.13a10,10,0,0,0-1.65-3.53A29.05,29.05,0,0,1,115,154.84Z" style="fill:#b6ba63"/><path d="M97.35,152a19.17,19.17,0,0,0-2.78-7,56.3,56.3,0,0,1,1.21,6.59Z" style="fill:#b6ba63"/><path d="M112,154.53a11.18,11.18,0,0,0-2.08-3.38,30.56,30.56,0,0,1,.5,3.19Z" style="fill:#bec675"/><path d="M113.62,154.71c.86-2,1.73-3.92,2.61-5.58-1.55.77-3.18,2.63-4.83,5.33Z" style="fill:#d5d898"/><path d="M104.38,153.42c-.76-4.67-1.8-8.42-3.11-10.78A103.73,103.73,0,0,1,102.2,153Z" style="fill:#d5d898"/><path d="M107.53,153.93a27.17,27.17,0,0,0-1-5.51c0,1.71-.11,3.49-.28,5.31Z" style="fill:#d5d898"/><path d="M80.15,146.79a41.38,41.38,0,0,0-2.76-6.16c.46,1.67.92,3.58,1.38,5.62Z" style="fill:#d5d898"/><path d="M154.67,152.73a31,31,0,0,1-3.94-8.43c-.84,2.42-.13,5.59,1.45,8.91Q153.42,153,154.67,152.73Z" style="fill:#b6ba63"/><path d="M167.29,149.52l.31-.1c.09-.19.19-.38.29-.57.09.12.18.27.27.4l2.28-.74c-.52-.63-1-1.24-1.58-1.83h0a42.4,42.4,0,0,1-3.67-14.56c-1.22,2.76-.82,6.93.24,11.3a9.56,9.56,0,0,0-4.46-2.19,38.08,38.08,0,0,1,5.42,5.65C166.68,147.76,167,148.65,167.29,149.52Z" style="fill:#b6ba63"/><path d="M173.06,147.6a88.1,88.1,0,0,1,1.75-14.67c-1.94,2.92-3.41,7.57-4.3,13.1a31.58,31.58,0,0,1-.87-7.76,19.63,19.63,0,0,0-1.31,9.28c-2.61-3.76-5.51-6.1-8.21-6.35a35.26,35.26,0,0,1,6,8.68Q169.62,148.83,173.06,147.6Z" style="fill:#bec675"/><path d="M153.44,153a35.09,35.09,0,0,1-.24-4.55,10.21,10.21,0,0,0-1.29,4.83Z" style="fill:#bec675"/><path d="M163.22,150.7a30.33,30.33,0,0,1,.55-9.6c-1.94,2.31-3.07,5.83-3.27,9.88a8.7,8.7,0,0,0-5.24-3.69,15.25,15.25,0,0,1,2.92,4.68Q160.72,151.39,163.22,150.7Z" style="fill:#bec675"/><path d="M154.63,152.74c1.17-.24,2.34-.49,3.51-.76-3.19-2.08-6.44-3.37-9.26-3.43A35.25,35.25,0,0,1,154.63,152.74Z" style="fill:#bec675"/><path d="M165.1,150.17a92,92,0,0,1-4.72-15.88c-.84,3.22-.26,8.77,1.55,15.35a50.53,50.53,0,0,1-4.84-9.51,26.69,26.69,0,0,0,3.15,11.23c-4.86-4.66-9.09-7.93-12.05-8.45a129.05,129.05,0,0,1,9.07,9.27C159.89,151.59,162.51,150.92,165.1,150.17Z" style="fill:#d5d898"/><path d="M175.44,146.72l1.36-.53c1-.73,2.09-1.47,3.13-2.24.65-6.45,1.32-12.6,2.13-17-1.81,3.72-3.33,10.2-4.6,18.19a91.7,91.7,0,0,1-.16-11.67A47.77,47.77,0,0,0,175.44,146.72Z" style="fill:#d5d898"/><path d="M175.39,146.74c-1.9-6.1-4.24-10-6.54-10.78a58.89,58.89,0,0,1,4,11.73Z" style="fill:#d5d898"/><path d="M104.31,153.41a32.9,32.9,0,0,1-.26-11.29c-2.23,1.68-2.72,5.78-2.35,10.6a25.57,25.57,0,0,0-5.23-5.45c1.18,1.68,2.31,3.45,3.39,5.28C101.34,152.86,102.82,153.15,104.31,153.41Z" style="fill:#b6ba63"/><path d="M118.79,155.15a13.68,13.68,0,0,0-3.07-4.86,44.82,44.82,0,0,1,1.61,4.75Z" style="fill:#b6ba63"/><path d="M120.81,155.27A43.87,43.87,0,0,1,123,144.94c-2.11,1.7-3.34,5.65-4.12,10.21Z" style="fill:#b6ba63"/><path d="M127.41,155.44a52.84,52.84,0,0,1,3.81-5.94,21.38,21.38,0,0,0-6.5,5.91C125.61,155.43,126.51,155.44,127.41,155.44Z" style="fill:#bec675"/><path d="M123.16,155.37a31.11,31.11,0,0,1,1.55-4.49,14.22,14.22,0,0,0-3.44,4.41Z" style="fill:#bec675"/><path d="M119.35,155.18c-.88-3.64-2.28-6.46-4.08-8a38.45,38.45,0,0,1,1.59,7.85Z" style="fill:#bec675"/><path d="M107.18,153.88a35.34,35.34,0,0,1,1.34-10c-2.19,1.18-3.65,4.61-4.18,9.52a27.74,27.74,0,0,0-5-9.17,47.73,47.73,0,0,1,2.56,8.45c-3.1-5.41-6.22-9.79-9-12.17a133,133,0,0,1,6.18,11.87C101.78,153,104.47,153.46,107.18,153.88Z" style="fill:#bec675"/><path d="M115.25,154.87a111.88,111.88,0,0,1,1.86-15.16c-1.93,2.31-3.49,7.51-4.52,14.4a69.63,69.63,0,0,1-.55-11.43c-1.17,2.69-1.73,6.78-1.59,11.66C112.05,154.55,113.65,154.72,115.25,154.87Z" style="fill:#d5d898"/><path d="M110.43,154.34c-2.36-7.28-4.89-12.72-7.32-15A127,127,0,0,1,107.79,154Z" style="fill:#d5d898"/><path d="M127.52,155.44a13.32,13.32,0,0,0-3-5.48c.45,1.64.84,3.48,1.19,5.47Z" style="fill:#d5d898"/><path d="M132.84,155.34c.18-1.05.37-2.07.59-3.05a20.69,20.69,0,0,0-1.51,3.09Z" style="fill:#d5d898"/><path d="M137.1,155.12c.75-2.44,1.48-4.64,2.18-6.46a27,27,0,0,0-4,6.57Z" style="fill:#d5d898"/><path d="M125.8,155.43a36.25,36.25,0,0,1-2.09-7.5c-.95,1.75-.85,4.39-.08,7.45Z" style="fill:#b6ba63"/><path d="M141.13,154.78a46.17,46.17,0,0,1-1.55-13.91c-1.53,2.33-1.61,6.59-1,11.29a13.11,13.11,0,0,0-4.22-3.73A52.5,52.5,0,0,1,138.6,155C139.44,154.94,140.28,154.86,141.13,154.78Z" style="fill:#b6ba63"/><path d="M141.18,154.77l2-.21a30.6,30.6,0,0,1,.17-6A15.47,15.47,0,0,0,141.18,154.77Z" style="fill:#bec675"/><path d="M146.67,154.11a59.44,59.44,0,0,1,2.47-9.05c-2,1.91-3.7,5.22-5.12,9.4Z" style="fill:#bec675"/><path d="M139.73,154.91c-1.92-3.41-4.08-5.83-6.27-6.8a41.54,41.54,0,0,1,3.63,7C138,155.05,138.85,155,139.73,154.91Z" style="fill:#bec675"/><path d="M135.73,155.2a24.35,24.35,0,0,1,1.4-5.92,11.46,11.46,0,0,0-3.82,6.05Z" style="fill:#bec675"/><path d="M127.6,155.44a20.58,20.58,0,0,0-6.23-4,40.77,40.77,0,0,1,3.62,4Q126.3,155.44,127.6,155.44Z" style="fill:#bec675"/><path d="M131.22,155.4a11.26,11.26,0,0,0-3.33-3,18.25,18.25,0,0,1,1.52,3Z" style="fill:#bec675"/><path d="M133.58,155.31a62.51,62.51,0,0,1-3-9.29,26.3,26.3,0,0,0,1,9.36C132.26,155.37,132.92,155.34,133.58,155.31Z" style="fill:#d5d898"/><path d="M136.62,155.15a92.49,92.49,0,0,1-2.11-13.76c-1.11,2.66-1.25,7.62-.45,13.9C134.91,155.25,135.77,155.21,136.62,155.15Z" style="fill:#d5d898"/><path d="M130.48,155.41c-3.55-4.88-6.69-8.41-9.15-9.69,2,2.73,4.2,6,6.49,9.72C128.71,155.44,129.59,155.43,130.48,155.41Z" style="fill:#d5d898"/><path d="M154.25,152.82c1-4.27,1.94-8.17,2.88-11.16-1.72,2.37-3.45,6.43-5.14,11.59Z" style="fill:#d5d898"/><path d="M147,154.06c-1.14-4.1-2.6-6.95-4.23-8.1a60.52,60.52,0,0,1,2,8.4C145.54,154.27,146.29,154.17,147,154.06Z" style="fill:#d5d898"/><path d="M150.75,153.47c.2-2.43.47-4.79.84-7a33.62,33.62,0,0,0-2.41,7.25Z" style="fill:#d5d898"/><path d="M159.79,151.59a9.15,9.15,0,0,0-3.92-3.05A24.49,24.49,0,0,1,158,152Z" style="fill:#b6ba63"/><path d="M155.38,152.59a10.28,10.28,0,0,0-3.73-2.05,20,20,0,0,1,1.87,2.42Z" style="fill:#bec675"/><path d="M166.69,149.7a40.31,40.31,0,0,1,1-3.91,16.89,16.89,0,0,0-2.83,4.44Z" style="fill:#bec675"/><path d="M153.8,152.91l2.09-.43a56.9,56.9,0,0,1-.11-6.44C154.7,147.4,154.06,149.78,153.8,152.91Z" style="fill:#d5d898"/><path d="M150.38,153.53a22.86,22.86,0,0,0-3.08-3.68c.64,1.23,1.25,2.53,1.82,3.89C149.54,153.67,150,153.61,150.38,153.53Z" style="fill:#d5d898"/><path d="M147.1,154.05a29.94,29.94,0,0,0-6.52-6.37c1.35,1.81,2.86,4.11,4.41,6.66Z" style="fill:#d5d898"/><path d="M184.87,142.69c0-.29-.05-.59-.09-.87a84.55,84.55,0,0,1,3.39-10.31,35.72,35.72,0,0,0-4,7.2c-.94-3.72-2.58-6.39-5.39-6.32,1.92,2.59,3,6.57,3.05,11.69C182.85,143.63,183.87,143.17,184.87,142.69Z" style="fill:#b6ba63"/><path d="M168.42,149.16a34.65,34.65,0,0,1,.34-4,13.26,13.26,0,0,0-1.66,4.39Z" style="fill:#b6ba63"/><path d="M166.29,149.82c-2-2.61-4.21-4.57-6.7-4.75a23.67,23.67,0,0,1,4.44,5.41C164.78,150.27,165.54,150.05,166.29,149.82Z" style="fill:#b6ba63"/><path d="M166.32,149.81c.85-.25,1.68-.51,2.52-.78a25.33,25.33,0,0,1-.49-6.45A13.57,13.57,0,0,0,166.32,149.81Z" style="fill:#bec675"/><path d="M185.66,142.32a154.8,154.8,0,0,1,4.42-17.88c-2.27,3.45-4.35,8.53-6.11,14.37a33.68,33.68,0,0,1,.36-7.69,26.79,26.79,0,0,0-2.73,9.71c-1.91-3.25-4.4-4.91-7-4.53,1.94,1.77,3.7,4.94,5,8.77Q182.63,143.78,185.66,142.32Z" style="fill:#bec675"/><path d="M178.18,145.64a97.34,97.34,0,0,1,.81-15.87c-1.93,3.14-3.08,8.65-3.52,15.46-1.22-3.72-3-6.46-5-7.83a38.68,38.68,0,0,1,2.63,8.86c-3-4.53-6.14-7.59-8.86-8.32a61.74,61.74,0,0,1,6.33,10.51C173.15,147.59,175.68,146.66,178.18,145.64Z" style="fill:#d5d898"/><path d="M130.64,155.41a8.13,8.13,0,0,0-1.62-3.12,26.44,26.44,0,0,1,.25,3.14Z" style="fill:#b6ba63"/><path d="M113,154.64a15,15,0,0,0-2.65-5.72,48.93,48.93,0,0,1,1.22,5.56Z" style="fill:#b6ba63"/><path d="M122.46,155.34a24.11,24.11,0,0,0-1.06-4.82c0,1.52,0,3.12-.13,4.77Z" style="fill:#d5d898"/><path d="M128,155.44c.73-2,1.48-3.79,2.25-5.41-1.38.88-2.82,2.76-4.26,5.4Z" style="fill:#d5d898"/><path d="M119.55,155.2c-.8-4.11-1.84-7.34-3.07-9.31a89.48,89.48,0,0,1,1.07,9.17Z" style="fill:#d5d898"/><path d="M96.78,151.87a29.57,29.57,0,0,0-2.45-4.58c.41,1.28.82,2.73,1.25,4.29Z" style="fill:#d5d898"/><path d="M183.25,143.45a4.14,4.14,0,0,0-2.55-2.12,18.47,18.47,0,0,1,1,2.81Z" style="fill:#b6ba63"/><path d="M189.46,140.4c.52-1.91,1-3.68,1.57-5.22a36.92,36.92,0,0,0-3.07,6Z" style="fill:#bec675"/><path d="M171.22,148.24a12.06,12.06,0,0,0-3.55-3.79c.63,1.21,1.29,2.68,2,4.33C170.15,148.6,170.69,148.43,171.22,148.24Z" style="fill:#d5d898"/><path d="M180.19,144.8c.23-2.28.5-4.42.83-6.37a24.43,24.43,0,0,0-2.46,7Z" style="fill:#d5d898"/><path d="M137.33,155.1a42.34,42.34,0,0,1,1.68-6.4c-1.42,1.36-2.48,3.69-3.27,6.5Z" style="fill:#b6ba63"/><path d="M127.83,155.44h.91c0-1.14,0-2.24.1-3.3A18.65,18.65,0,0,0,127.83,155.44Z" style="fill:#d5d898"/><path d="M132.75,155.35a69.28,69.28,0,0,1,1.26-7,22.21,22.21,0,0,0-3.07,7.09Z" style="fill:#d5d898"/><path d="M123.54,155.38a16.14,16.14,0,0,0-3.61-5.23c.62,1.56,1.23,3.3,1.84,5.16Z" style="fill:#d5d898"/><path d="M74.78,140.89c.1.6.19,1.2.28,1.81q-1.61-1.45-3.16-3c.14-.66.29-1.33.46-2a72.44,72.44,0,0,0-2-10.36,27.38,27.38,0,0,1,3,7.09c1.42-3.93,3.41-6.86,6.17-7-2.39,3.06-4,7.63-4.74,13.43Z" style="fill:#b6ba63"/><path d="M88.69,149.69a39.19,39.19,0,0,1,7.58-10.36c-2.63.39-5.31,3.07-7.79,6.41a13.63,13.63,0,0,0-1-5.65,41.38,41.38,0,0,1-.91,8.39l-.29.46Z" style="fill:#b6ba63"/><path d="M94.8,151.38a63.56,63.56,0,0,1,7.3-4c-3-.22-7,1-11.33,2.91C92.1,150.68,93.45,151.05,94.8,151.38Z" style="fill:#bec675"/><path d="M90.67,150.27a26.78,26.78,0,0,1,4.93-5,13.84,13.84,0,0,0-7.24,3.66c1.28-4.65,1.29-8.81-.1-11.6a35.68,35.68,0,0,1-3,11.29Q87.92,149.49,90.67,150.27Z" style="fill:#bec675"/><path d="M76,143.52q-2.27-2-4.49-4.19c-.41-6.66-1-14.05-2.12-19,1.83,3.31,3.25,8.36,4.2,14.26a36.69,36.69,0,0,0,.67-7.93,24.79,24.79,0,0,1,1.38,9.84c2.32-3.53,5-5.48,7.52-5.31C80.43,133.73,77.91,138,76,143.52Z" style="fill:#bec675"/><path d="M82.92,147.8c3.29-6,7-12.2,9.94-15.74-2.72,1-6.18,4.49-9.74,9.47A52.79,52.79,0,0,1,86.93,132c-2.14,1.61-4.23,4.63-5.93,8.62.53-7.11.17-12.78-1.31-15.87a116.46,116.46,0,0,1-2,20.3c.6.51,1.21,1,1.82,1.51C80.66,147,81.79,147.4,82.92,147.8Z" style="fill:#d5d898"/><path d="M96.28,151.75c.37-3.17.21-5.73-.54-7.42a56.37,56.37,0,0,1-1.46,6.92Z" style="fill:#d5d898"/><path d="M106.65,153.8c1.09-1.12,2.12-2.15,3.06-3a20,20,0,0,0-4.92,2.7Z" style="fill:#d5d898"/><path d="M92.58,150.81c.74.2,1.49.39,2.23.57a34.44,34.44,0,0,1,1-9.14C93.87,143.48,92.9,146.7,92.58,150.81Z" style="fill:#b6ba63"/><path d="M109.52,154.22a41.27,41.27,0,0,1,3.55-10.2c-2.31,1.32-4.06,5-5.4,9.45a15,15,0,0,0-2.34-5.42,50.31,50.31,0,0,1,1,5.7C107.41,153.92,108.46,154.07,109.52,154.22Z" style="fill:#b6ba63"/><path d="M117.62,155.07a33.46,33.46,0,0,1,2.3-2.46,14.33,14.33,0,0,0-4.29,2.29Z" style="fill:#bec675"/><path d="M107.3,153.9a14.46,14.46,0,0,0-2.63-6.57,39.61,39.61,0,0,1,.52,6.23Z" style="fill:#bec675"/><path d="M87.25,149.25a30.85,30.85,0,0,0-2.86-8.65,80.3,80.3,0,0,1,1.15,8.1Z" style="fill:#bec675"/><path d="M88.37,149.59l1.12.34a20.42,20.42,0,0,0-1-4.61A38.39,38.39,0,0,1,88.37,149.59Z" style="fill:#bec675"/><path d="M93.68,151.1a27.73,27.73,0,0,1,2.08-3.73c-1.27.28-2.58,1.44-3.83,3.26Z" style="fill:#bec675"/><path d="M104.72,153.48a19.75,19.75,0,0,1,2.81-3.25,9.29,9.29,0,0,0-5.34,2.79Z" style="fill:#bec675"/><path d="M98.1,152.17l1.71.37a13.12,13.12,0,0,0-1.89-4.38A18.42,18.42,0,0,1,98.1,152.17Z" style="fill:#bec675"/><path d="M97,151.93a25.4,25.4,0,0,0-4.74-8,47,47,0,0,1,2.37,7.39Z" style="fill:#bec675"/><path d="M105.09,153.54A79.76,79.76,0,0,1,108.27,142c-2,1.72-4,5.66-5.65,11.11C103.44,153.26,104.26,153.4,105.09,153.54Z" style="fill:#d5d898"/><path d="M99.18,152.41c-1.33-6.2-2.89-10.88-4.7-13.23.89,3.6,1.67,7.91,2.37,12.7Z" style="fill:#d5d898"/><path d="M102,153a59.22,59.22,0,0,1,.88-8.93,23.41,23.41,0,0,0-2.72,8.56Z" style="fill:#d5d898"/><path d="M114.84,154.83a10.36,10.36,0,0,0-.9-4.65c-.14,1.39-.38,2.9-.68,4.49Z" style="fill:#d5d898"/><path d="M113.1,154.65a22.16,22.16,0,0,0-1.83-4.07c.25,1.18.48,2.52.71,3.95Z" style="fill:#d5d898"/><path d="M99.21,152.41a8.29,8.29,0,0,0-.21-3.76,25.91,25.91,0,0,1-1.27,3.43C98.22,152.2,98.72,152.31,99.21,152.41Z" style="fill:#b6ba63"/><path d="M82.19,147.54l1.72.61a25.27,25.27,0,0,1,2.65-2A7.74,7.74,0,0,0,82.19,147.54Z" style="fill:#b6ba63"/><path d="M82.17,147.53c1.21-4.24,1.83-8.37.82-11.35a41.89,41.89,0,0,1-2.75,10.64Z" style="fill:#b6ba63"/><path d="M84.56,148.37a23.52,23.52,0,0,1,3.75-4.09c-2-.15-4.29,1-6.43,3.15Z" style="fill:#bec675"/><path d="M80.32,146.85a20.92,20.92,0,0,0-1-7.06,33.21,33.21,0,0,1-.87,6.34Z" style="fill:#bec675"/><path d="M77.93,145.92c-.65-5.07-1.73-9.4-3.28-12.34a86.86,86.86,0,0,1,.9,11.36C76.34,145.28,77.13,145.6,77.93,145.92Z" style="fill:#bec675"/><path d="M95.5,151.56a10.59,10.59,0,0,0-.69-5,25.13,25.13,0,0,1-1.2,4.49Z" style="fill:#bec675"/><path d="M95.9,151.65c1.78-1.62,3.49-3.07,5.12-4.28-2,0-4.74,1.39-7.86,3.59C94.07,151.2,95,151.43,95.9,151.65Z" style="fill:#d5d898"/><path d="M88.32,149.58c1.47-5.32,2.08-9.81,1.56-12.71a90.69,90.69,0,0,1-4,11.94C86.7,149.08,87.51,149.33,88.32,149.58Z" style="fill:#d5d898"/><path d="M90.89,150.34a23.27,23.27,0,0,0,1.79-7.13,47.08,47.08,0,0,1-3.57,6.61Z" style="fill:#d5d898"/><path d="M70.91,142.87a32.3,32.3,0,0,0,.76-9.29A60.8,60.8,0,0,1,69.1,142C69.7,142.3,70.31,142.59,70.91,142.87Z" style="fill:#d5d898"/><path d="M68.72,141.81c.55-6.55.5-12-.43-15.59-.22,3.87-1,9-1.85,14.44C67.19,141.05,68,141.44,68.72,141.81Z" style="fill:#d5d898"/><path d="M75.09,144.75a40.76,40.76,0,0,1,4.9-5.52c-2.07-.14-4.69,1.48-7.46,4.39Z" style="fill:#d5d898"/><path d="M72.49,143.6l1.1.49a26.86,26.86,0,0,0-1.09-4.8C72.54,140.58,72.53,142,72.49,143.6Z" style="fill:#d5d898"/><path d="M66.49,140.68a32.79,32.79,0,0,0-2.11-5.28c.29,1.37.54,2.93.75,4.57C65.58,140.21,66,140.45,66.49,140.68Z" style="fill:#bec675"/><path d="M83.37,75.84l-3.92-8.2a18.42,18.42,0,0,1-1-10.73l3.83-15a14.26,14.26,0,0,1,6.56-8.12l10.54-5.28a34.09,34.09,0,0,1,10.85-3L132.85,24a23,23,0,0,1,10.76,2.36l13.83,7.53a21.08,21.08,0,0,1,7.56,7.9l5.72,11.69a13.13,13.13,0,0,1,0,10.29l-5.37,10.83a16.17,16.17,0,0,1-8,7l-14.21,5A45,45,0,0,1,132,88.73l-21.49.79a28.34,28.34,0,0,1-10.94-2.19l-8.51-3.92A18.32,18.32,0,0,1,83.37,75.84Z" style="fill:#888576"/><path d="M157.08,34.72l-13.83-5a39.35,39.35,0,0,0-11.13-1.94h-7.91a70.85,70.85,0,0,0-11.36,1.11l-8.32,1.65a44.61,44.61,0,0,0-10.65,3.89L91,36a18.11,18.11,0,0,0-7.06,8.13l-2.82,7.4a9.38,9.38,0,0,0,2.11,9.33l2.41,2.29c2.29,2.19,5.22,1.63,6.55-1.24l.23-.51c1.33-2.88,2.93-2.69,3.58.41l2.1,10c.65,3.1,2.88,4,5,1.93A40.93,40.93,0,0,1,112,67.55l3.6-1.75a9.87,9.87,0,0,1,9.5.88,8.5,8.5,0,0,0,9.16.28l5.16-3.31c2.67-1.71,5.1-4.44,5.42-6.1S148,54.29,151.13,54l3.7-.38c3.15-.32,7.18-.58,9-.58s2.6-2.47,1.73-5.52l-1.51-5.3A12.6,12.6,0,0,0,157.08,34.72Z" style="fill:#979586"/><path d="M97.66,48.36l1.72,20.49c.27,3.16,1.56,3.39,2.89.51l4.21-9.13c1.32-2.88,4.15-4,6.32-2.63s5.78.79,8.07-1.4L130.42,47a12.19,12.19,0,0,1,9.76-2.8l17.07,3.54a4.31,4.31,0,0,0,5.43-4.57l0-.79a11.11,11.11,0,0,0-5.22-8.48l-13.83-7.53A23,23,0,0,0,132.85,24l-22.67,1.55a34.09,34.09,0,0,0-10.85,3L88.79,33.81a7.4,7.4,0,0,0-3.71,8.12l.57,2.22c.79,3.06,3.53,4.08,6.13,2.26l.7-.48C95.07,44.11,97.39,45.2,97.66,48.36Z" style="fill:#ada99d"/><path d="M165.32,74.63l5.37-10.83c1.41-2.84.81-3.25-1.34-.92L165.57,67c-2.15,2.33-5.17,2.54-6.76.47s-1.69-4.2-.23-4.75,1.39-2.27-.14-3.82-2-1.56-1.11,0,.38,3-1.21,3.32-2.37,3-1.73,6.16l.13.62a9.39,9.39,0,0,1-3.53,8.9l-5.52,3.85A22.86,22.86,0,0,1,135,85.19l-9.66.36A7.88,7.88,0,0,1,118,80.27l-.74-2.41c-.92-3-2.33-3-3.13.06l-.55,2.1a4.84,4.84,0,0,1-6.75,3.32l-3.86-1.63c-2.92-1.23-4.62-.6-3.79,1.4s-.73,2.33-3.47.75L94.17,83a30.34,30.34,0,0,1-8.23-7.58l-5.7-8.24c-1.8-2.6-2.15-2.4-.79.46l3.92,8.2a24.47,24.47,0,0,0,7.24,8.36l5.14,3.45a25.21,25.21,0,0,0,10.5,3.55l24.09,1.5a25.21,25.21,0,0,0,10.86-2.2l16.43-8.18A19.87,19.87,0,0,0,165.32,74.63Z" style="fill:#686456"/><path d="M79.29,57.21l4.85-11c1.27-2.9,2.92-4.11,3.68-2.71s3,1.37,4.88-.08,1.94-2.22,0-1.74-3.43-.09-3.4-1.27,2.42-3.13,5.33-4.38l6.7-2.86a50.35,50.35,0,0,1,11-3l13.82-1.81c3.14-.42,5.27.61,4.75,2.28a60.51,60.51,0,0,1-3.37,7.73c-1.34,2.59-.5,3,1.89.91l.82-.71c2.38-2.09,4.83-5.52,5.48-7.66s2.81-2.63,4.84-1.1,2.42.78.85-1.69A10.23,10.23,0,0,0,132.85,24l-22.67,1.55a34.09,34.09,0,0,0-10.85,3L88.79,33.81a14.26,14.26,0,0,0-6.56,8.12l-3.83,15C77.62,60,78,60.11,79.29,57.21Z" style="fill:#d8d5ce"/><path d="M125.49,65.14c2.61,1,7,.68,9.84-.76l3.14-1.6c2.83-1.45,5.57-4.3,6.13-6.39s3.58-3.74,6.75-3.68l10,.18c3.17.06,3.18.35,0,.64l-7.75.71c-3.16.29-6.15,2.25-6.69,4.38s-3.31,4.91-6.2,6.23l-6.14,2.82a10.14,10.14,0,0,1-9.54-1C122.71,64.81,122.88,64.12,125.49,65.14Z" style="fill:#d8d5ce"/><path d="M117.19,78.58l.6,1.75a8.18,8.18,0,0,0,7.58,5.22l9.66-.36c3.17-.11,3.17-.36,0-.54l-8.55-.5a11,11,0,0,1-8.32-5.44l-.23-.44C116.51,75.44,116.17,75.58,117.19,78.58Z" style="fill:#d8d5ce"/><path d="M99.76,45.15c.25,2.19,2.74,5.13,5.56,6.57l6,3.08c2.82,1.45,6.38,1,8-1s1.33-2.63-.55-1.43-5.64.92-8.42-.61l-3-1.66c-2.77-1.53-5.69-4.15-6.52-5.85S99.52,43,99.76,45.15Z" style="fill:#d8d5ce"/><rect x="121.99" y="128.86" width="2" height="33.86" style="fill:#61c5ff"/><path d="M123,109.33c2.11,9.19,5.7,20.59,9.51,27.66L123,131.42,113.48,137C117.29,129.92,120.89,118.52,123,109.33Z" style="fill:#61c5ff"/><rect x="121.47" y="45.07" width="2" height="33.86" style="fill:#61c5ff"/><path d="M122.47,98.46c-2.11-9.19-5.71-20.59-9.52-27.66l9.52,5.57L132,70.8C128.17,77.87,124.57,89.27,122.47,98.46Z" style="fill:#61c5ff"/><path d="M220.13,80.74l2-9.68h1.29l-1.79,8.59h5l-.24,1.09Z"/><path d="M232.28,79.87a4.48,4.48,0,0,1-1.19.78,3,3,0,0,1-1.23.25,2.18,2.18,0,0,1-1.57-.57,2,2,0,0,1-.59-1.46,2,2,0,0,1,1-1.77,3.12,3.12,0,0,1,1.08-.39,12.29,12.29,0,0,1,1.53-.13,5.76,5.76,0,0,0,1.61-.23,3.26,3.26,0,0,0,.14-.82.79.79,0,0,0-.3-.65,2,2,0,0,0-1.22-.33,2.13,2.13,0,0,0-1.23.33,1.9,1.9,0,0,0-.7,1l-1.21-.1a3.15,3.15,0,0,1,1.18-1.6,3.46,3.46,0,0,1,2-.56,3.18,3.18,0,0,1,2.06.62,1.46,1.46,0,0,1,.58,1.2,6,6,0,0,1-.16,1.3l-.39,1.75a6.08,6.08,0,0,0-.19,1.35,4.36,4.36,0,0,0,.15.95h-1.21A4.39,4.39,0,0,1,232.28,79.87Zm.44-2.68a2.26,2.26,0,0,1-.54.15c-.19,0-.51.07-1,.11a7.58,7.58,0,0,0-1.47.24,1.24,1.24,0,0,0-.65.45,1.22,1.22,0,0,0-.21.69,1.06,1.06,0,0,0,.34.82,1.38,1.38,0,0,0,1,.33,2.23,2.23,0,0,0,1.14-.32,2.27,2.27,0,0,0,.87-.87A5.24,5.24,0,0,0,232.72,77.19Z"/><path d="M238.83,80.74l1.46-7h1.06l-.3,1.43a5,5,0,0,1,1.06-1.2,1.76,1.76,0,0,1,1.06-.39,2.12,2.12,0,0,1,.88.26l-.49,1.11a1.14,1.14,0,0,0-.68-.23,1.89,1.89,0,0,0-1.29.7,5.36,5.36,0,0,0-1,2.52l-.6,2.81Z"/><path d="M243.54,78.08a4.88,4.88,0,0,1,1.21-3.4,3.34,3.34,0,0,1,2.61-1.11,2.77,2.77,0,0,1,2,.79,3,3,0,0,1,.77,2.14,5.14,5.14,0,0,1-.49,2.25,3.62,3.62,0,0,1-3.28,2.15,3.21,3.21,0,0,1-1.49-.35,2.33,2.33,0,0,1-1-1A3,3,0,0,1,243.54,78.08Zm1.2-.12a2.16,2.16,0,0,0,.47,1.5,1.56,1.56,0,0,0,1.21.52,2.07,2.07,0,0,0,.76-.16,2.21,2.21,0,0,0,.7-.47,3.27,3.27,0,0,0,.55-.72,5.27,5.27,0,0,0,.37-.88,4.34,4.34,0,0,0,.2-1.25,2.11,2.11,0,0,0-.48-1.48,1.55,1.55,0,0,0-1.2-.52,2,2,0,0,0-1,.26,2.71,2.71,0,0,0-.84.79,3.52,3.52,0,0,0-.55,1.19A5.38,5.38,0,0,0,244.74,78Z"/><path d="M255.69,78.19l1.19.12a4,4,0,0,1-1.27,2,3,3,0,0,1-1.89.64,2.46,2.46,0,0,1-1.85-.74,2.87,2.87,0,0,1-.71-2.07,5.77,5.77,0,0,1,.46-2.25,3.62,3.62,0,0,1,1.3-1.69,3.39,3.39,0,0,1,1.94-.58,2.45,2.45,0,0,1,1.79.64,2.24,2.24,0,0,1,.66,1.69l-1.18.08a1.39,1.39,0,0,0-.39-1,1.34,1.34,0,0,0-1-.37,1.84,1.84,0,0,0-1.24.45,3,3,0,0,0-.83,1.38,5.84,5.84,0,0,0-.3,1.79,2,2,0,0,0,.39,1.35,1.26,1.26,0,0,0,1,.45,1.68,1.68,0,0,0,1.11-.45A2.81,2.81,0,0,0,255.69,78.19Z"/><path d="M262.34,79.87a4.68,4.68,0,0,1-1.2.78,3,3,0,0,1-1.23.25,2.16,2.16,0,0,1-1.56-.57,1.93,1.93,0,0,1-.6-1.46,2,2,0,0,1,.27-1,2.16,2.16,0,0,1,.71-.73,3.28,3.28,0,0,1,1.08-.39,12.29,12.29,0,0,1,1.53-.13,5.85,5.85,0,0,0,1.62-.23,3.18,3.18,0,0,0,.13-.82.79.79,0,0,0-.3-.65,1.92,1.92,0,0,0-1.21-.33,2.08,2.08,0,0,0-1.23.33,1.85,1.85,0,0,0-.7,1l-1.21-.1a3.19,3.19,0,0,1,1.17-1.6,3.5,3.5,0,0,1,2-.56,3.2,3.2,0,0,1,2.06.62,1.49,1.49,0,0,1,.58,1.2,6,6,0,0,1-.17,1.3l-.39,1.75a6.61,6.61,0,0,0-.18,1.35,4.9,4.9,0,0,0,.14.95h-1.21A4.47,4.47,0,0,1,262.34,79.87Zm.44-2.68a2.39,2.39,0,0,1-.54.15c-.19,0-.51.07-1,.11a7.3,7.3,0,0,0-1.47.24,1.2,1.2,0,0,0-.65.45,1.16,1.16,0,0,0-.22.69,1.07,1.07,0,0,0,.35.82,1.38,1.38,0,0,0,1,.33,2.29,2.29,0,0,0,1.14-.32,2.32,2.32,0,0,0,.86-.87A5.21,5.21,0,0,0,262.78,77.19Z"/><path d="M271.68,79.77l-.2,1a3.58,3.58,0,0,1-.83.11,1.74,1.74,0,0,1-1.14-.35.89.89,0,0,1-.32-.72,6.89,6.89,0,0,1,.18-1.06l.85-4.07h-1l.19-.93h1l.36-1.72,1.37-.83-.54,2.55h1.18l-.2.93h-1.17l-.81,3.87a7.47,7.47,0,0,0-.15.88.43.43,0,0,0,.12.33.6.6,0,0,0,.4.11A3.08,3.08,0,0,0,271.68,79.77Z"/><path d="M272.59,80.74l1.47-7h1.19l-1.46,7Zm1.75-8.32.28-1.36h1.19l-.28,1.36Z"/><path d="M275.64,80.74l1.47-7h1.06l-.3,1.43a4.79,4.79,0,0,1,1.06-1.2,1.74,1.74,0,0,1,1.06-.39,2.16,2.16,0,0,1,.88.26l-.49,1.11a1.16,1.16,0,0,0-.68-.23,1.87,1.87,0,0,0-1.29.7,5.35,5.35,0,0,0-1,2.52l-.59,2.81Z"/><path d="M284.87,79.87a4.48,4.48,0,0,1-1.19.78,3,3,0,0,1-1.23.25,2.18,2.18,0,0,1-1.57-.57,2,2,0,0,1-.59-1.46,2,2,0,0,1,.27-1,2.07,2.07,0,0,1,.71-.73,3.12,3.12,0,0,1,1.08-.39,12.29,12.29,0,0,1,1.53-.13,5.7,5.7,0,0,0,1.61-.23,2.86,2.86,0,0,0,.14-.82.79.79,0,0,0-.3-.65,2,2,0,0,0-1.22-.33,2.13,2.13,0,0,0-1.23.33,1.9,1.9,0,0,0-.7,1l-1.2-.1a3.08,3.08,0,0,1,1.17-1.6,3.46,3.46,0,0,1,2-.56,3.16,3.16,0,0,1,2.06.62,1.46,1.46,0,0,1,.58,1.2,6,6,0,0,1-.16,1.3l-.39,1.75a6.08,6.08,0,0,0-.19,1.35,4.36,4.36,0,0,0,.15.95H285A4.39,4.39,0,0,1,284.87,79.87Zm.44-2.68a2.18,2.18,0,0,1-.53.15c-.19,0-.52.07-1,.11a7.57,7.57,0,0,0-1.48.24,1.17,1.17,0,0,0-.64.45,1.16,1.16,0,0,0-.22.69,1,1,0,0,0,.35.82,1.35,1.35,0,0,0,1,.33,2.23,2.23,0,0,0,1.14-.32,2.27,2.27,0,0,0,.87-.87A5,5,0,0,0,285.31,77.19Z"/><path d="M291.42,80.74l2-9.68h1.2l-.78,3.72a5.32,5.32,0,0,1,1.24-.93,2.8,2.8,0,0,1,1.19-.28,1.9,1.9,0,0,1,1.35.46,1.6,1.6,0,0,1,.48,1.21,7.89,7.89,0,0,1-.21,1.36l-.86,4.14h-1.2l.89-4.24a8,8,0,0,0,.19-1.16.78.78,0,0,0-.23-.57,1,1,0,0,0-.69-.21,2.51,2.51,0,0,0-2.16,1.27,7.39,7.39,0,0,0-.61,1.9l-.62,3Z"/><path d="M303.67,79.87a4.68,4.68,0,0,1-1.2.78,3,3,0,0,1-1.23.25,2.16,2.16,0,0,1-1.56-.57,1.93,1.93,0,0,1-.6-1.46,2,2,0,0,1,.27-1,2.16,2.16,0,0,1,.71-.73,3.28,3.28,0,0,1,1.08-.39,12.29,12.29,0,0,1,1.53-.13,5.85,5.85,0,0,0,1.62-.23,3.18,3.18,0,0,0,.13-.82.79.79,0,0,0-.3-.65,1.92,1.92,0,0,0-1.21-.33,2.08,2.08,0,0,0-1.23.33,1.85,1.85,0,0,0-.7,1l-1.21-.1a3.19,3.19,0,0,1,1.17-1.6,3.5,3.5,0,0,1,2-.56,3.2,3.2,0,0,1,2.06.62,1.49,1.49,0,0,1,.58,1.2,6,6,0,0,1-.17,1.3l-.39,1.75a6.61,6.61,0,0,0-.18,1.35,4.9,4.9,0,0,0,.14.95H303.8A4.47,4.47,0,0,1,303.67,79.87Zm.44-2.68a2.39,2.39,0,0,1-.54.15c-.19,0-.51.07-1,.11a7.3,7.3,0,0,0-1.47.24,1.2,1.2,0,0,0-.65.45,1.16,1.16,0,0,0-.22.69,1.07,1.07,0,0,0,.35.82,1.38,1.38,0,0,0,1,.33,2.29,2.29,0,0,0,1.14-.32,2.32,2.32,0,0,0,.86-.87A5.21,5.21,0,0,0,304.11,77.19Z"/><path d="M311.3,78.19l1.19.12a3.93,3.93,0,0,1-1.28,2,3,3,0,0,1-1.88.64,2.46,2.46,0,0,1-1.85-.74,2.87,2.87,0,0,1-.71-2.07,5.94,5.94,0,0,1,.45-2.25,3.7,3.7,0,0,1,1.31-1.69,3.38,3.38,0,0,1,1.93-.58,2.44,2.44,0,0,1,1.79.64,2.24,2.24,0,0,1,.66,1.69l-1.17.08a1.43,1.43,0,0,0-.39-1,1.34,1.34,0,0,0-1-.37,1.88,1.88,0,0,0-1.25.45,3.08,3.08,0,0,0-.82,1.38,5.84,5.84,0,0,0-.3,1.79,2,2,0,0,0,.39,1.35,1.26,1.26,0,0,0,1,.45,1.68,1.68,0,0,0,1.11-.45A2.89,2.89,0,0,0,311.3,78.19Z"/><path d="M313.17,80.74l1.47-7h1.19l-1.46,7Zm1.74-8.32.29-1.36h1.19l-.29,1.36Z"/><path d="M321,79.87a4.52,4.52,0,0,1-1.2.78,3,3,0,0,1-1.22.25,2.18,2.18,0,0,1-1.57-.57,1.92,1.92,0,0,1-.59-1.46,2.08,2.08,0,0,1,.26-1,2.16,2.16,0,0,1,.71-.73,3.25,3.25,0,0,1,1.09-.39,11.87,11.87,0,0,1,1.52-.13,5.78,5.78,0,0,0,1.62-.23,3.26,3.26,0,0,0,.14-.82.77.77,0,0,0-.31-.65,1.9,1.9,0,0,0-1.21-.33,2.13,2.13,0,0,0-1.23.33,1.9,1.9,0,0,0-.7,1l-1.21-.1a3.19,3.19,0,0,1,1.17-1.6,3.5,3.5,0,0,1,2-.56,3.18,3.18,0,0,1,2.06.62,1.46,1.46,0,0,1,.58,1.2,6,6,0,0,1-.17,1.3l-.39,1.75a6.61,6.61,0,0,0-.18,1.35,4.36,4.36,0,0,0,.15.95h-1.21A3.76,3.76,0,0,1,321,79.87Zm.44-2.68a2.39,2.39,0,0,1-.54.15c-.19,0-.51.07-1,.11a7.58,7.58,0,0,0-1.47.24,1.2,1.2,0,0,0-.65.45,1.23,1.23,0,0,0-.22.69,1.07,1.07,0,0,0,.35.82,1.38,1.38,0,0,0,1,.33,2.26,2.26,0,0,0,1.14-.32,2.34,2.34,0,0,0,.87-.87A5.24,5.24,0,0,0,321.39,77.19Z"/><path d="M332.22,79.87a4.48,4.48,0,0,1-1.19.78,3,3,0,0,1-1.23.25,2.14,2.14,0,0,1-1.56-.57,1.93,1.93,0,0,1-.6-1.46,2,2,0,0,1,.27-1,2.07,2.07,0,0,1,.71-.73,3.12,3.12,0,0,1,1.08-.39,12.29,12.29,0,0,1,1.53-.13,5.7,5.7,0,0,0,1.61-.23,2.86,2.86,0,0,0,.14-.82.79.79,0,0,0-.3-.65,1.93,1.93,0,0,0-1.22-.33,2.13,2.13,0,0,0-1.23.33,1.83,1.83,0,0,0-.69,1l-1.21-.1a3.08,3.08,0,0,1,1.17-1.6,3.46,3.46,0,0,1,2-.56,3.16,3.16,0,0,1,2.06.62,1.46,1.46,0,0,1,.58,1.2,6,6,0,0,1-.16,1.3l-.39,1.75a6.73,6.73,0,0,0-.19,1.35,4.36,4.36,0,0,0,.15.95h-1.21A5.28,5.28,0,0,1,332.22,79.87Zm.44-2.68a2.18,2.18,0,0,1-.53.15c-.19,0-.51.07-1,.11a7.57,7.57,0,0,0-1.48.24,1.17,1.17,0,0,0-.64.45,1.16,1.16,0,0,0-.22.69,1,1,0,0,0,.35.82,1.37,1.37,0,0,0,1,.33,2.23,2.23,0,0,0,1.14-.32,2.27,2.27,0,0,0,.87-.87A5,5,0,0,0,332.66,77.19Z"/><path d="M335,80.74l1.46-7h1.06l-.3,1.43A4.79,4.79,0,0,1,338.3,74a1.74,1.74,0,0,1,1.06-.39,2.12,2.12,0,0,1,.88.26l-.49,1.11a1.16,1.16,0,0,0-.68-.23,1.87,1.87,0,0,0-1.29.7,5.36,5.36,0,0,0-1,2.52l-.6,2.81Z"/><path d="M339.52,80.74l1.46-7H342l-.3,1.43A5,5,0,0,1,342.8,74a1.76,1.76,0,0,1,1.06-.39,2.12,2.12,0,0,1,.88.26l-.49,1.11a1.14,1.14,0,0,0-.68-.23,1.87,1.87,0,0,0-1.29.7,5.36,5.36,0,0,0-1,2.52l-.6,2.81Z"/><path d="M344,80.74l1.47-7h1.19l-1.46,7Zm1.75-8.32.28-1.36h1.19l-.29,1.36Z"/><path d="M347,80.74l2-9.68h1.2l-.72,3.46a4.31,4.31,0,0,1,1-.73,2.17,2.17,0,0,1,1-.22,2.11,2.11,0,0,1,1.64.74,3.05,3.05,0,0,1,.66,2.13,5.37,5.37,0,0,1-.26,1.7,4.79,4.79,0,0,1-.66,1.3,4.32,4.32,0,0,1-.8.84,3,3,0,0,1-.86.46,2.3,2.3,0,0,1-.83.16,2.08,2.08,0,0,1-1.23-.37,2.33,2.33,0,0,1-.82-1.12l-.28,1.33Zm1.77-2.88v.23a2,2,0,0,0,.42,1.36,1.38,1.38,0,0,0,1.07.47,1.74,1.74,0,0,0,1.16-.44,3.17,3.17,0,0,0,.86-1.37,5.15,5.15,0,0,0,.33-1.71,2.07,2.07,0,0,0-.42-1.38,1.37,1.37,0,0,0-1-.48A1.71,1.71,0,0,0,350,75a3.81,3.81,0,0,0-.91,1.54A4.07,4.07,0,0,0,348.79,77.86Z"/><path d="M359.27,79.87a4.52,4.52,0,0,1-1.2.78,3,3,0,0,1-1.22.25,2.18,2.18,0,0,1-1.57-.57,1.92,1.92,0,0,1-.59-1.46,2.08,2.08,0,0,1,.26-1,2.16,2.16,0,0,1,.71-.73,3.25,3.25,0,0,1,1.09-.39,11.87,11.87,0,0,1,1.52-.13,5.78,5.78,0,0,0,1.62-.23,3.26,3.26,0,0,0,.14-.82.77.77,0,0,0-.31-.65,1.9,1.9,0,0,0-1.21-.33,2.13,2.13,0,0,0-1.23.33,1.9,1.9,0,0,0-.7,1l-1.21-.1a3.15,3.15,0,0,1,1.18-1.6,3.44,3.44,0,0,1,2-.56,3.18,3.18,0,0,1,2.06.62,1.46,1.46,0,0,1,.58,1.2,6,6,0,0,1-.17,1.3l-.39,1.75a6.61,6.61,0,0,0-.18,1.35,4.36,4.36,0,0,0,.15.95h-1.21A4.39,4.39,0,0,1,359.27,79.87Zm.44-2.68a2.39,2.39,0,0,1-.54.15c-.19,0-.51.07-1,.11a7.58,7.58,0,0,0-1.47.24,1.2,1.2,0,0,0-.65.45,1.22,1.22,0,0,0-.21.69,1.06,1.06,0,0,0,.34.82,1.38,1.38,0,0,0,1,.33,2.26,2.26,0,0,0,1.14-.32,2.34,2.34,0,0,0,.87-.87A5.24,5.24,0,0,0,359.71,77.19Z"/><path d="M370.54,79.87a4.48,4.48,0,0,1-1.19.78,3,3,0,0,1-1.23.25,2.14,2.14,0,0,1-1.56-.57,1.93,1.93,0,0,1-.6-1.46,2,2,0,0,1,.27-1,2.07,2.07,0,0,1,.71-.73,3.12,3.12,0,0,1,1.08-.39,12.29,12.29,0,0,1,1.53-.13,5.7,5.7,0,0,0,1.61-.23,2.86,2.86,0,0,0,.14-.82.79.79,0,0,0-.3-.65,1.93,1.93,0,0,0-1.22-.33,2.13,2.13,0,0,0-1.23.33,1.83,1.83,0,0,0-.69,1l-1.21-.1a3.13,3.13,0,0,1,1.17-1.6,3.46,3.46,0,0,1,2-.56,3.16,3.16,0,0,1,2.06.62,1.46,1.46,0,0,1,.58,1.2,6,6,0,0,1-.16,1.3l-.39,1.75a6.73,6.73,0,0,0-.19,1.35,4.36,4.36,0,0,0,.15.95h-1.21A5.28,5.28,0,0,1,370.54,79.87Zm.44-2.68a2.18,2.18,0,0,1-.53.15c-.19,0-.51.07-1,.11a7.57,7.57,0,0,0-1.48.24,1.17,1.17,0,0,0-.64.45,1.16,1.16,0,0,0-.22.69,1,1,0,0,0,.35.82,1.37,1.37,0,0,0,1,.33,2.35,2.35,0,0,0,2-1.19A5,5,0,0,0,371,77.19Z"/><path d="M377,80.74l2-9.68h1.19l-2,9.68Z"/><path d="M384.82,79.87a4.48,4.48,0,0,1-1.19.78,3,3,0,0,1-1.23.25,2.18,2.18,0,0,1-1.57-.57,2,2,0,0,1-.59-1.46,2,2,0,0,1,.27-1,2.07,2.07,0,0,1,.71-.73,3.12,3.12,0,0,1,1.08-.39,12.29,12.29,0,0,1,1.53-.13,5.7,5.7,0,0,0,1.61-.23,3.26,3.26,0,0,0,.14-.82.79.79,0,0,0-.3-.65,2,2,0,0,0-1.22-.33,2.13,2.13,0,0,0-1.23.33,1.9,1.9,0,0,0-.7,1l-1.2-.1a3.08,3.08,0,0,1,1.17-1.6,3.46,3.46,0,0,1,2-.56,3.18,3.18,0,0,1,2.06.62,1.46,1.46,0,0,1,.58,1.2,6,6,0,0,1-.16,1.3l-.39,1.75a6.08,6.08,0,0,0-.19,1.35,4.36,4.36,0,0,0,.15.95H385A4.39,4.39,0,0,1,384.82,79.87Zm.44-2.68a2.18,2.18,0,0,1-.53.15c-.2,0-.52.07-1,.11a7.58,7.58,0,0,0-1.47.24,1.17,1.17,0,0,0-.64.45,1.16,1.16,0,0,0-.22.69,1.06,1.06,0,0,0,.34.82,1.39,1.39,0,0,0,1,.33,2.23,2.23,0,0,0,1.14-.32,2.27,2.27,0,0,0,.87-.87A5.24,5.24,0,0,0,385.26,77.19Z"/><path d="M394.16,79.77l-.2,1a3.44,3.44,0,0,1-.83.11,1.73,1.73,0,0,1-1.13-.35.89.89,0,0,1-.32-.72,7.79,7.79,0,0,1,.17-1.06l.85-4.07h-.94l.19-.93h.94l.37-1.72,1.36-.83-.53,2.55h1.17l-.19.93H393.9l-.81,3.87a6.41,6.41,0,0,0-.16.88.4.4,0,0,0,.13.33.6.6,0,0,0,.4.11A2.93,2.93,0,0,0,394.16,79.77Z"/><path d="M395.08,80.74l1.47-7h1.19l-1.47,7Zm1.74-8.32.29-1.36h1.18L398,72.42Z"/><path d="M403.28,78.36l1.16.12a3.56,3.56,0,0,1-1.15,1.64,3.18,3.18,0,0,1-2.15.78,2.89,2.89,0,0,1-1.43-.36,2.4,2.4,0,0,1-1-1.05,3.38,3.38,0,0,1-.34-1.56,5,5,0,0,1,.53-2.23,3.78,3.78,0,0,1,1.38-1.6,3.39,3.39,0,0,1,1.83-.53,2.65,2.65,0,0,1,2,.78,2.94,2.94,0,0,1,.75,2.13,6.38,6.38,0,0,1-.09,1h-5.16a2.62,2.62,0,0,0,0,.37,2.2,2.2,0,0,0,.45,1.5,1.4,1.4,0,0,0,1.11.52,2.08,2.08,0,0,0,1.2-.4A2.64,2.64,0,0,0,403.28,78.36Zm-3.47-1.74h3.93c0-.12,0-.21,0-.26A1.94,1.94,0,0,0,403.3,75a1.52,1.52,0,0,0-1.16-.48,2.12,2.12,0,0,0-1.39.53A3.1,3.1,0,0,0,399.81,76.62Z"/><path d="M405.65,80.74l1.46-7h1.06l-.3,1.43a5,5,0,0,1,1.06-1.2,1.76,1.76,0,0,1,1.06-.39,2.12,2.12,0,0,1,.88.26l-.49,1.11a1.14,1.14,0,0,0-.68-.23,1.87,1.87,0,0,0-1.29.7,5.36,5.36,0,0,0-1,2.52l-.6,2.81Z"/><path d="M410.15,80.74l1.47-7h1.05l-.29,1.43a5,5,0,0,1,1.05-1.2,1.76,1.76,0,0,1,1.06-.39,2.12,2.12,0,0,1,.88.26l-.49,1.11a1.12,1.12,0,0,0-.68-.23,1.87,1.87,0,0,0-1.28.7,5.35,5.35,0,0,0-1,2.52l-.59,2.81Z"/><path d="M419.38,79.87a4.52,4.52,0,0,1-1.2.78,3,3,0,0,1-1.22.25,2.18,2.18,0,0,1-1.57-.57,2,2,0,0,1-.59-1.46,2.08,2.08,0,0,1,.26-1,2.16,2.16,0,0,1,.71-.73,3.25,3.25,0,0,1,1.09-.39,12.07,12.07,0,0,1,1.52-.13,5.78,5.78,0,0,0,1.62-.23,3.26,3.26,0,0,0,.14-.82.77.77,0,0,0-.31-.65,1.9,1.9,0,0,0-1.21-.33,2.13,2.13,0,0,0-1.23.33,1.9,1.9,0,0,0-.7,1l-1.21-.1a3.15,3.15,0,0,1,1.18-1.6,3.44,3.44,0,0,1,2-.56,3.18,3.18,0,0,1,2.06.62,1.46,1.46,0,0,1,.58,1.2,6,6,0,0,1-.17,1.3l-.39,1.75a6.61,6.61,0,0,0-.18,1.35,4.36,4.36,0,0,0,.15.95h-1.21A4.39,4.39,0,0,1,419.38,79.87Zm.44-2.68a2.39,2.39,0,0,1-.54.15c-.19,0-.51.07-1,.11a7.58,7.58,0,0,0-1.47.24,1.2,1.2,0,0,0-.65.45,1.22,1.22,0,0,0-.21.69,1.06,1.06,0,0,0,.34.82,1.38,1.38,0,0,0,1,.33,2.26,2.26,0,0,0,1.14-.32,2.34,2.34,0,0,0,.87-.87A5.24,5.24,0,0,0,419.82,77.19Z"/><path d="M430.77,78.19l1.19.12a3.93,3.93,0,0,1-1.28,2,3,3,0,0,1-1.88.64,2.46,2.46,0,0,1-1.85-.74,2.83,2.83,0,0,1-.71-2.07,5.94,5.94,0,0,1,.45-2.25A3.7,3.7,0,0,1,428,74.15a3.38,3.38,0,0,1,1.93-.58,2.44,2.44,0,0,1,1.79.64,2.24,2.24,0,0,1,.66,1.69l-1.17.08a1.43,1.43,0,0,0-.39-1,1.34,1.34,0,0,0-1-.37,1.88,1.88,0,0,0-1.25.45,3.08,3.08,0,0,0-.82,1.38,5.84,5.84,0,0,0-.3,1.79,2,2,0,0,0,.39,1.35,1.26,1.26,0,0,0,1,.45,1.68,1.68,0,0,0,1.11-.45A2.89,2.89,0,0,0,430.77,78.19Z"/><path d="M432.9,78.08a4.88,4.88,0,0,1,1.21-3.4,3.33,3.33,0,0,1,2.61-1.11,2.73,2.73,0,0,1,2,.79,2.93,2.93,0,0,1,.78,2.14,5.14,5.14,0,0,1-.49,2.25,3.7,3.7,0,0,1-1.39,1.6,3.55,3.55,0,0,1-1.9.55,3.24,3.24,0,0,1-1.49-.35,2.43,2.43,0,0,1-1-1A3.08,3.08,0,0,1,432.9,78.08Zm1.19-.12a2.11,2.11,0,0,0,.48,1.5,1.56,1.56,0,0,0,1.21.52,2.07,2.07,0,0,0,.76-.16,2.21,2.21,0,0,0,.7-.47,3.61,3.61,0,0,0,.55-.72,4.52,4.52,0,0,0,.36-.88,4,4,0,0,0,.21-1.25,2.11,2.11,0,0,0-.48-1.48,1.56,1.56,0,0,0-1.21-.52,2.09,2.09,0,0,0-1,.26,2.58,2.58,0,0,0-.83.79,3.34,3.34,0,0,0-.55,1.19A4.93,4.93,0,0,0,434.09,78Z"/><path d="M440.21,80.74l1.46-7h1.08L442.5,75a5.69,5.69,0,0,1,1.32-1,2.6,2.6,0,0,1,1.25-.33,1.91,1.91,0,0,1,1.34.46,1.64,1.64,0,0,1,.48,1.24,6.38,6.38,0,0,1-.17,1.23l-.89,4.24h-1.2l.94-4.44a5.09,5.09,0,0,0,.13-1,.75.75,0,0,0-.24-.57,1,1,0,0,0-.69-.21,2.37,2.37,0,0,0-1.64.66,4.22,4.22,0,0,0-1.05,2.26l-.68,3.26Z"/><path d="M222.83,96l-.2,1a3.06,3.06,0,0,1-.83.11,1.69,1.69,0,0,1-1.14-.35.87.87,0,0,1-.32-.71,6.94,6.94,0,0,1,.18-1.07l.85-4.07h-1l.2-.93h.94l.36-1.72,1.37-.82L222.76,90h1.17l-.2.93h-1.17l-.81,3.87a7.47,7.47,0,0,0-.15.89.41.41,0,0,0,.12.32.56.56,0,0,0,.4.11A2.62,2.62,0,0,0,222.83,96Z"/><path d="M228.52,96.09a4.84,4.84,0,0,1-1.2.79,3.14,3.14,0,0,1-1.23.24,2.17,2.17,0,0,1-1.56-.57,1.92,1.92,0,0,1-.59-1.46,2.08,2.08,0,0,1,.26-1,2.25,2.25,0,0,1,.71-.73,3.25,3.25,0,0,1,1.09-.39,12.5,12.5,0,0,1,1.52-.12,5.42,5.42,0,0,0,1.62-.24,3.26,3.26,0,0,0,.14-.81.81.81,0,0,0-.31-.66,1.9,1.9,0,0,0-1.21-.33,2.06,2.06,0,0,0-1.23.34,1.88,1.88,0,0,0-.7.94l-1.21-.1a3.19,3.19,0,0,1,1.17-1.6,3.49,3.49,0,0,1,2-.55,3.14,3.14,0,0,1,2.06.62,1.49,1.49,0,0,1,.58,1.2,6.11,6.11,0,0,1-.17,1.3l-.39,1.74a6.78,6.78,0,0,0-.18,1.36,5.12,5.12,0,0,0,.14,1h-1.2A3.77,3.77,0,0,1,228.52,96.09Zm.44-2.68a3.08,3.08,0,0,1-.54.16c-.19,0-.51.07-1,.11a7.77,7.77,0,0,0-1.47.23,1.31,1.31,0,0,0-.65.45,1.23,1.23,0,0,0-.22.69,1.09,1.09,0,0,0,.35.83,1.42,1.42,0,0,0,1,.32,2.3,2.3,0,0,0,2-1.19A4.87,4.87,0,0,0,229,93.41Z"/><path d="M231.31,97l1.46-7h1.09l-.26,1.23a5.69,5.69,0,0,1,1.32-1.05,2.63,2.63,0,0,1,1.25-.33,1.85,1.85,0,0,1,1.34.46,1.6,1.6,0,0,1,.49,1.23,6.61,6.61,0,0,1-.18,1.23L236.93,97h-1.19l.93-4.45a5.35,5.35,0,0,0,.14-1,.72.72,0,0,0-.24-.57,1,1,0,0,0-.7-.22,2.32,2.32,0,0,0-1.63.66,4.26,4.26,0,0,0-1.06,2.26L232.5,97Z"/><path d="M241.62,96l-.2,1a3,3,0,0,1-.83.11,1.68,1.68,0,0,1-1.13-.35.87.87,0,0,1-.32-.71,7.84,7.84,0,0,1,.17-1.07l.85-4.07h-.94l.19-.93h.94l.37-1.72,1.36-.82L241.55,90h1.17l-.19.93h-1.17l-.81,3.87a6.43,6.43,0,0,0-.16.89.38.38,0,0,0,.13.32.55.55,0,0,0,.4.11A2.54,2.54,0,0,0,241.62,96Z"/><path d="M247.31,96.09a4.8,4.8,0,0,1-1.19.79,3.21,3.21,0,0,1-1.23.24,2.18,2.18,0,0,1-1.57-.57,2,2,0,0,1-.59-1.46,2,2,0,0,1,.27-1,2.15,2.15,0,0,1,.71-.73,3.12,3.12,0,0,1,1.08-.39,12.93,12.93,0,0,1,1.53-.12,5.28,5.28,0,0,0,1.61-.24,3.26,3.26,0,0,0,.14-.81.8.8,0,0,0-.3-.66,2,2,0,0,0-1.22-.33,2.06,2.06,0,0,0-1.23.34,1.88,1.88,0,0,0-.7.94l-1.2-.1a3.08,3.08,0,0,1,1.17-1.6,3.46,3.46,0,0,1,2-.55,3.11,3.11,0,0,1,2.06.62,1.46,1.46,0,0,1,.58,1.2,6,6,0,0,1-.16,1.3l-.39,1.74a6.23,6.23,0,0,0-.19,1.36,4.54,4.54,0,0,0,.15,1h-1.21A4.38,4.38,0,0,1,247.31,96.09Zm.44-2.68a2.74,2.74,0,0,1-.53.16c-.2,0-.52.07-1,.11a7.77,7.77,0,0,0-1.48.23,1.28,1.28,0,0,0-.64.45,1.16,1.16,0,0,0-.22.69,1.09,1.09,0,0,0,.34.83,1.44,1.44,0,0,0,1,.32,2.33,2.33,0,0,0,2-1.19A5.15,5.15,0,0,0,247.75,93.41Z"/><path d="M254,97l1.27-6.09h-1.07l.19-.93h1.07l.21-1a4.61,4.61,0,0,1,.32-1.08,1.3,1.3,0,0,1,.55-.54,2,2,0,0,1,1-.22,7.1,7.1,0,0,1,1.32.19l-.21,1a4.05,4.05,0,0,0-1-.16.77.77,0,0,0-.53.17,1.82,1.82,0,0,0-.32.83l-.15.75H258l-.19.93h-1.34L255.22,97Z"/><path d="M262.4,95.7a3.52,3.52,0,0,1-2.58,1.42,1.84,1.84,0,0,1-1.31-.46,1.51,1.51,0,0,1-.5-1.14,9,9,0,0,1,.23-1.52l.84-4h1.2l-.94,4.49a4.4,4.4,0,0,0-.12.87.81.81,0,0,0,.24.62,1.06,1.06,0,0,0,.71.22,2.16,2.16,0,0,0,1-.25,2.53,2.53,0,0,0,.83-.66,3.22,3.22,0,0,0,.56-1,8.49,8.49,0,0,0,.34-1.28l.63-3h1.2l-1.47,7h-1.1Z"/><path d="M270.28,94.58l1.17.12a3.56,3.56,0,0,1-1.16,1.65,3.2,3.2,0,0,1-2.15.77,2.88,2.88,0,0,1-1.42-.36,2.27,2.27,0,0,1-1-1,3.45,3.45,0,0,1-.34-1.57,4.87,4.87,0,0,1,.53-2.22,3.79,3.79,0,0,1,1.37-1.61,3.43,3.43,0,0,1,1.83-.52,2.66,2.66,0,0,1,2,.78,2.94,2.94,0,0,1,.74,2.12,6.5,6.5,0,0,1-.09,1.06h-5.16a2.51,2.51,0,0,0,0,.37,2.19,2.19,0,0,0,.46,1.5,1.43,1.43,0,0,0,1.1.52,2.15,2.15,0,0,0,1.21-.41A2.52,2.52,0,0,0,270.28,94.58Zm-3.47-1.73h3.94v-.27a1.9,1.9,0,0,0-.45-1.37,1.5,1.5,0,0,0-1.15-.48,2.1,2.1,0,0,0-1.4.53A3.17,3.17,0,0,0,266.81,92.85Z"/><path d="M272.65,97l1.47-7h1.05l-.29,1.44a4.79,4.79,0,0,1,1.06-1.2A1.74,1.74,0,0,1,277,89.8a2.12,2.12,0,0,1,.88.25l-.49,1.11a1.15,1.15,0,0,0-.68-.22,1.83,1.83,0,0,0-1.29.7,5.25,5.25,0,0,0-1,2.51L273.79,97Z"/><path d="M277,97l.19-.93,3.77-4.24q.4-.45.9-.93c-.57,0-1,.08-1.22.08H278l.21-1h5.42l-.16.76L279.67,95c-.22.24-.54.57-1,1,.66,0,1.12-.06,1.36-.06h2.76l-.22,1Z"/><path d="M288.64,96.09a4.8,4.8,0,0,1-1.19.79,3.21,3.21,0,0,1-1.23.24,2.18,2.18,0,0,1-1.57-.57,2,2,0,0,1-.59-1.46,2,2,0,0,1,.27-1,2.15,2.15,0,0,1,.71-.73,3.12,3.12,0,0,1,1.08-.39,12.93,12.93,0,0,1,1.53-.12,5.28,5.28,0,0,0,1.61-.24,3.26,3.26,0,0,0,.14-.81.8.8,0,0,0-.3-.66,2,2,0,0,0-1.22-.33,2.06,2.06,0,0,0-1.23.34,1.88,1.88,0,0,0-.7.94l-1.2-.1a3.08,3.08,0,0,1,1.17-1.6,3.46,3.46,0,0,1,2-.55,3.11,3.11,0,0,1,2.06.62,1.46,1.46,0,0,1,.58,1.2,6,6,0,0,1-.16,1.3L290,94.66a6.23,6.23,0,0,0-.19,1.36,4.54,4.54,0,0,0,.15,1h-1.21A4.38,4.38,0,0,1,288.64,96.09Zm.44-2.68a2.74,2.74,0,0,1-.53.16c-.2,0-.52.07-1,.11a7.77,7.77,0,0,0-1.48.23,1.28,1.28,0,0,0-.64.45,1.16,1.16,0,0,0-.22.69,1.09,1.09,0,0,0,.34.83,1.44,1.44,0,0,0,1,.32,2.33,2.33,0,0,0,2-1.19A5.15,5.15,0,0,0,289.08,93.41Z"/><path d="M300,94.41l1.19.13A4.08,4.08,0,0,1,300,96.49a3.05,3.05,0,0,1-1.89.63,2.42,2.42,0,0,1-1.85-.74,2.86,2.86,0,0,1-.71-2.06,5.78,5.78,0,0,1,.46-2.26,3.62,3.62,0,0,1,1.3-1.69,3.4,3.4,0,0,1,1.94-.57,2.49,2.49,0,0,1,1.79.63,2.25,2.25,0,0,1,.66,1.69l-1.18.08a1.4,1.4,0,0,0-.38-1,1.38,1.38,0,0,0-1-.38,1.82,1.82,0,0,0-1.25.46,3,3,0,0,0-.83,1.38,5.78,5.78,0,0,0-.3,1.78,2,2,0,0,0,.39,1.35,1.26,1.26,0,0,0,1,.45,1.72,1.72,0,0,0,1.11-.44A2.9,2.9,0,0,0,300,94.41Z"/><path d="M302.16,94.31a4.87,4.87,0,0,1,1.21-3.4A3.34,3.34,0,0,1,306,89.8a2.73,2.73,0,0,1,2,.79,3,3,0,0,1,.77,2.14,5.21,5.21,0,0,1-.49,2.25,3.61,3.61,0,0,1-1.39,1.59,3.54,3.54,0,0,1-1.89.55,3.06,3.06,0,0,1-1.49-.35,2.4,2.4,0,0,1-1-1A3,3,0,0,1,302.16,94.31Zm1.2-.12a2.11,2.11,0,0,0,.47,1.5,1.59,1.59,0,0,0,1.21.51,1.89,1.89,0,0,0,.76-.16,2.21,2.21,0,0,0,.7-.47,3.27,3.27,0,0,0,.55-.72,4.84,4.84,0,0,0,.37-.87,4.46,4.46,0,0,0,.2-1.26,2.1,2.1,0,0,0-.48-1.47,1.53,1.53,0,0,0-1.2-.53,2,2,0,0,0-1,.27,2.89,2.89,0,0,0-.83.78,3.48,3.48,0,0,0-.55,1.2A4.75,4.75,0,0,0,303.36,94.19Z"/><path d="M309.46,97l1.47-7h1.19l-.24,1.16a4.66,4.66,0,0,1,1.19-1,2.35,2.35,0,0,1,1.14-.28,1.71,1.71,0,0,1,1.09.34,1.66,1.66,0,0,1,.58,1,3.92,3.92,0,0,1,1.12-1,2.64,2.64,0,0,1,1.25-.32,1.87,1.87,0,0,1,1.32.41,1.55,1.55,0,0,1,.43,1.17,6.22,6.22,0,0,1-.15,1.07L318.91,97h-1.2l1-4.64a4.57,4.57,0,0,0,.12-.81.7.7,0,0,0-.21-.54.92.92,0,0,0-.62-.2,2.2,2.2,0,0,0-1.09.32A2.34,2.34,0,0,0,316,92a6,6,0,0,0-.54,1.62l-.71,3.4h-1.2l1-4.74a3.9,3.9,0,0,0,.11-.68.76.76,0,0,0-.21-.56.78.78,0,0,0-.56-.21,2.19,2.19,0,0,0-1.07.32,2.7,2.7,0,0,0-.91.9,5.6,5.6,0,0,0-.57,1.65L310.66,97Z"/><path d="M320.94,94.31a4.87,4.87,0,0,1,1.21-3.4,3.34,3.34,0,0,1,2.61-1.11,2.73,2.73,0,0,1,2.05.79,3,3,0,0,1,.77,2.14,5.21,5.21,0,0,1-.49,2.25,3.61,3.61,0,0,1-1.39,1.59,3.54,3.54,0,0,1-1.89.55,3.06,3.06,0,0,1-1.49-.35,2.33,2.33,0,0,1-1-1A2.94,2.94,0,0,1,320.94,94.31Zm1.2-.12a2.16,2.16,0,0,0,.47,1.5,1.59,1.59,0,0,0,1.21.51,1.89,1.89,0,0,0,.76-.16,2.21,2.21,0,0,0,.7-.47,3.27,3.27,0,0,0,.55-.72,4.84,4.84,0,0,0,.37-.87,4.46,4.46,0,0,0,.2-1.26,2.1,2.1,0,0,0-.48-1.47,1.53,1.53,0,0,0-1.2-.53,2,2,0,0,0-1,.27,2.89,2.89,0,0,0-.83.78,3.48,3.48,0,0,0-.55,1.2A4.75,4.75,0,0,0,322.14,94.19Z"/><path d="M331.91,97l2-9.68h1.2l-2,9.68Z"/><path d="M339.74,96.09a5,5,0,0,1-1.2.79,3.14,3.14,0,0,1-1.23.24,2.16,2.16,0,0,1-1.56-.57,1.93,1.93,0,0,1-.6-1.46,2,2,0,0,1,.27-1,2.25,2.25,0,0,1,.71-.73,3.28,3.28,0,0,1,1.08-.39,12.93,12.93,0,0,1,1.53-.12,5.42,5.42,0,0,0,1.62-.24,3.18,3.18,0,0,0,.13-.81.8.8,0,0,0-.3-.66,1.92,1.92,0,0,0-1.21-.33,2,2,0,0,0-1.23.34,1.82,1.82,0,0,0-.7.94l-1.21-.1a3.19,3.19,0,0,1,1.17-1.6,3.49,3.49,0,0,1,2-.55,3.1,3.1,0,0,1,2,.62,1.47,1.47,0,0,1,.59,1.2,6.11,6.11,0,0,1-.17,1.3l-.39,1.74a6.78,6.78,0,0,0-.18,1.36,4.38,4.38,0,0,0,.14,1h-1.21A4.47,4.47,0,0,1,339.74,96.09Zm.44-2.68a3.08,3.08,0,0,1-.54.16c-.19,0-.51.07-1,.11a7.49,7.49,0,0,0-1.47.23,1.31,1.31,0,0,0-.65.45,1.16,1.16,0,0,0-.22.69,1.09,1.09,0,0,0,.35.83,1.42,1.42,0,0,0,1,.32,2.3,2.3,0,0,0,2-1.19A5.12,5.12,0,0,0,340.18,93.41Z"/><path d="M349.08,96l-.2,1a3.11,3.11,0,0,1-.83.11,1.69,1.69,0,0,1-1.14-.35.87.87,0,0,1-.32-.71,7.84,7.84,0,0,1,.17-1.07l.86-4.07h-.95l.19-.93h.95l.36-1.72,1.37-.82L349,90h1.18l-.2.93h-1.17L348,94.75a7.47,7.47,0,0,0-.15.89A.41.41,0,0,0,348,96a.55.55,0,0,0,.4.11A2.62,2.62,0,0,0,349.08,96Z"/><path d="M350,97l1.47-7h1.19l-1.46,7Zm1.75-8.33.28-1.35h1.19l-.29,1.35Z"/><path d="M358.19,94.58l1.16.12a3.47,3.47,0,0,1-1.15,1.65,3.22,3.22,0,0,1-2.15.77,2.92,2.92,0,0,1-1.43-.36,2.37,2.37,0,0,1-1-1,3.59,3.59,0,0,1-.34-1.57,4.88,4.88,0,0,1,.54-2.22,3.79,3.79,0,0,1,1.37-1.61A3.38,3.38,0,0,1,357,89.8a2.64,2.64,0,0,1,2,.78,2.9,2.9,0,0,1,.75,2.12,6.5,6.5,0,0,1-.09,1.06h-5.16a2.51,2.51,0,0,0,0,.37,2.24,2.24,0,0,0,.45,1.5,1.45,1.45,0,0,0,1.11.52,2.15,2.15,0,0,0,1.21-.41A2.58,2.58,0,0,0,358.19,94.58Zm-3.47-1.73h3.93c0-.13,0-.21,0-.27a1.9,1.9,0,0,0-.45-1.37,1.5,1.5,0,0,0-1.15-.48,2.1,2.1,0,0,0-1.4.53A3.17,3.17,0,0,0,354.72,92.85Z"/><path d="M360.56,97,362,90h1.05l-.29,1.44a4.79,4.79,0,0,1,1.06-1.2,1.74,1.74,0,0,1,1.06-.39,2,2,0,0,1,.87.25l-.48,1.11a1.15,1.15,0,0,0-.68-.22,1.83,1.83,0,0,0-1.29.7,5.25,5.25,0,0,0-1,2.51L361.7,97Z"/><path d="M365.06,97l1.47-7h1.06l-.3,1.44a4.79,4.79,0,0,1,1.06-1.2,1.74,1.74,0,0,1,1.06-.39,2.08,2.08,0,0,1,.88.25l-.49,1.11a1.15,1.15,0,0,0-.68-.22,1.83,1.83,0,0,0-1.29.7,5.36,5.36,0,0,0-1,2.51L366.2,97Z"/><path d="M374.29,96.09a4.8,4.8,0,0,1-1.19.79,3.17,3.17,0,0,1-1.23.24,2.14,2.14,0,0,1-1.56-.57,1.93,1.93,0,0,1-.6-1.46,2,2,0,0,1,.27-1,2.15,2.15,0,0,1,.71-.73,3.12,3.12,0,0,1,1.08-.39,12.93,12.93,0,0,1,1.53-.12,5.28,5.28,0,0,0,1.61-.24,2.86,2.86,0,0,0,.14-.81.8.8,0,0,0-.3-.66,1.93,1.93,0,0,0-1.22-.33,2.06,2.06,0,0,0-1.23.34,1.81,1.81,0,0,0-.69.94L370.4,92a3.13,3.13,0,0,1,1.17-1.6,3.46,3.46,0,0,1,2-.55,3.11,3.11,0,0,1,2.06.62,1.46,1.46,0,0,1,.58,1.2,6,6,0,0,1-.16,1.3l-.39,1.74a6.91,6.91,0,0,0-.19,1.36,4.54,4.54,0,0,0,.15,1h-1.21A5.24,5.24,0,0,1,374.29,96.09Zm.44-2.68a2.74,2.74,0,0,1-.53.16c-.19,0-.51.07-1,.11a7.77,7.77,0,0,0-1.48.23,1.28,1.28,0,0,0-.64.45,1.16,1.16,0,0,0-.22.69,1.06,1.06,0,0,0,.35.83,1.41,1.41,0,0,0,1,.32,2.3,2.3,0,0,0,2-1.19A4.89,4.89,0,0,0,374.73,93.41Z"/><path d="M383.63,96l-.2,1a3,3,0,0,1-.83.11,1.68,1.68,0,0,1-1.13-.35.87.87,0,0,1-.32-.71,7.84,7.84,0,0,1,.17-1.07l.85-4.07h-.94l.19-.93h.95l.36-1.72,1.36-.82L383.56,90h1.18l-.2.93h-1.17l-.81,3.87a7.47,7.47,0,0,0-.15.89.41.41,0,0,0,.12.32.55.55,0,0,0,.4.11A2.5,2.5,0,0,0,383.63,96Z"/><path d="M384.55,97,386,90h1.19l-1.46,7Zm1.74-8.33.29-1.35h1.19l-.29,1.35Z"/><path d="M387.6,97l1.47-7h1.05l-.29,1.44a5,5,0,0,1,1.05-1.2,1.76,1.76,0,0,1,1.06-.39,2.08,2.08,0,0,1,.88.25l-.49,1.11a1.11,1.11,0,0,0-.68-.22,1.83,1.83,0,0,0-1.28.7,5.25,5.25,0,0,0-1,2.51L388.74,97Z"/><path d="M396.83,96.09a4.67,4.67,0,0,1-1.2.79,3.12,3.12,0,0,1-1.22.24,2.18,2.18,0,0,1-1.57-.57,2,2,0,0,1-.59-1.46,2.08,2.08,0,0,1,.26-1,2.25,2.25,0,0,1,.71-.73,3.25,3.25,0,0,1,1.09-.39,12.93,12.93,0,0,1,1.53-.12,5.34,5.34,0,0,0,1.61-.24,3.26,3.26,0,0,0,.14-.81.78.78,0,0,0-.31-.66,1.9,1.9,0,0,0-1.21-.33,2.06,2.06,0,0,0-1.23.34,1.88,1.88,0,0,0-.7.94l-1.21-.1a3.15,3.15,0,0,1,1.18-1.6,3.44,3.44,0,0,1,2-.55,3.13,3.13,0,0,1,2.06.62,1.46,1.46,0,0,1,.58,1.2,6.11,6.11,0,0,1-.17,1.3l-.39,1.74A6.78,6.78,0,0,0,398,96a4.54,4.54,0,0,0,.15,1H397A4.38,4.38,0,0,1,396.83,96.09Zm.44-2.68a3.08,3.08,0,0,1-.54.16c-.19,0-.51.07-1,.11a7.77,7.77,0,0,0-1.47.23,1.31,1.31,0,0,0-.65.45,1.22,1.22,0,0,0-.21.69,1.09,1.09,0,0,0,.34.83,1.42,1.42,0,0,0,1,.32,2.22,2.22,0,0,0,1.14-.31,2.3,2.3,0,0,0,.87-.88A5.15,5.15,0,0,0,397.27,93.41Z"/><path d="M403.38,97l2-9.68h1.19L405.82,91a4.8,4.8,0,0,1,1.24-.92,2.62,2.62,0,0,1,1.18-.28,1.9,1.9,0,0,1,1.36.46,1.57,1.57,0,0,1,.48,1.21,8,8,0,0,1-.21,1.36L409,97h-1.19l.89-4.25a7.77,7.77,0,0,0,.19-1.16.71.71,0,0,0-.24-.56,1,1,0,0,0-.68-.22,2.39,2.39,0,0,0-1.24.34,2.49,2.49,0,0,0-.92.93A7,7,0,0,0,405.2,94l-.63,3Z"/><path d="M415.62,96.09a4.8,4.8,0,0,1-1.19.79,3.14,3.14,0,0,1-1.23.24,2.14,2.14,0,0,1-1.56-.57,1.93,1.93,0,0,1-.6-1.46,2,2,0,0,1,.27-1,2.15,2.15,0,0,1,.71-.73,3.12,3.12,0,0,1,1.08-.39,12.93,12.93,0,0,1,1.53-.12,5.28,5.28,0,0,0,1.61-.24,2.86,2.86,0,0,0,.14-.81.8.8,0,0,0-.3-.66,1.93,1.93,0,0,0-1.22-.33,2.06,2.06,0,0,0-1.23.34,1.81,1.81,0,0,0-.69.94l-1.21-.1a3.13,3.13,0,0,1,1.17-1.6,3.46,3.46,0,0,1,2-.55,3.11,3.11,0,0,1,2.06.62,1.46,1.46,0,0,1,.58,1.2,6,6,0,0,1-.16,1.3L417,94.66a6.91,6.91,0,0,0-.19,1.36,4.54,4.54,0,0,0,.15,1h-1.21A5.24,5.24,0,0,1,415.62,96.09Zm.44-2.68a2.74,2.74,0,0,1-.53.16c-.19,0-.51.07-1,.11a7.77,7.77,0,0,0-1.48.23,1.28,1.28,0,0,0-.64.45,1.16,1.16,0,0,0-.22.69,1.06,1.06,0,0,0,.35.83,1.41,1.41,0,0,0,1,.32,2.3,2.3,0,0,0,2-1.19A4.89,4.89,0,0,0,416.06,93.41Z"/><path d="M423.25,94.41l1.2.13a4.09,4.09,0,0,1-1.28,1.95,3,3,0,0,1-1.88.63,2.44,2.44,0,0,1-1.86-.74,2.86,2.86,0,0,1-.71-2.06,6,6,0,0,1,.46-2.26,3.69,3.69,0,0,1,1.3-1.69,3.43,3.43,0,0,1,1.94-.57,2.49,2.49,0,0,1,1.79.63,2.25,2.25,0,0,1,.66,1.69l-1.17.08a1.44,1.44,0,0,0-.39-1,1.37,1.37,0,0,0-1-.38,1.82,1.82,0,0,0-1.25.46,3,3,0,0,0-.83,1.38,5.78,5.78,0,0,0-.3,1.78,2,2,0,0,0,.4,1.35,1.25,1.25,0,0,0,1,.45,1.76,1.76,0,0,0,1.11-.44A3,3,0,0,0,423.25,94.41Z"/><path d="M425.13,97l1.46-7h1.2l-1.47,7Zm1.74-8.33.29-1.35h1.18l-.28,1.35Z"/><path d="M432.91,96.09a5,5,0,0,1-1.2.79,3.14,3.14,0,0,1-1.23.24,2.16,2.16,0,0,1-1.56-.57,1.93,1.93,0,0,1-.6-1.46,2,2,0,0,1,.27-1,2.25,2.25,0,0,1,.71-.73,3.28,3.28,0,0,1,1.08-.39,12.93,12.93,0,0,1,1.53-.12,5.42,5.42,0,0,0,1.62-.24,3.18,3.18,0,0,0,.13-.81.8.8,0,0,0-.3-.66,1.92,1.92,0,0,0-1.21-.33,2,2,0,0,0-1.23.34,1.82,1.82,0,0,0-.7.94L429,92a3.19,3.19,0,0,1,1.17-1.6,3.49,3.49,0,0,1,2-.55,3.1,3.1,0,0,1,2.05.62,1.47,1.47,0,0,1,.59,1.2,6.11,6.11,0,0,1-.17,1.3l-.39,1.74a6.78,6.78,0,0,0-.18,1.36,4.38,4.38,0,0,0,.14,1H433A4.47,4.47,0,0,1,432.91,96.09Zm.44-2.68a3.08,3.08,0,0,1-.54.16c-.19,0-.51.07-1,.11a7.49,7.49,0,0,0-1.47.23,1.31,1.31,0,0,0-.65.45,1.16,1.16,0,0,0-.22.69,1.09,1.09,0,0,0,.35.83,1.42,1.42,0,0,0,1,.32,2.3,2.3,0,0,0,2-1.19A5.12,5.12,0,0,0,433.35,93.41Z"/><path d="M224.76,112.32a5,5,0,0,1-1.19.78,3.22,3.22,0,0,1-1.23.25,2.18,2.18,0,0,1-1.57-.57,2.13,2.13,0,0,1-.32-2.51,2,2,0,0,1,.71-.72,2.93,2.93,0,0,1,1.08-.4,12.93,12.93,0,0,1,1.53-.12,5.28,5.28,0,0,0,1.61-.24,3.19,3.19,0,0,0,.14-.81.77.77,0,0,0-.3-.65A2,2,0,0,0,224,107a2.13,2.13,0,0,0-1.23.33,1.9,1.9,0,0,0-.7,1l-1.2-.11a3.12,3.12,0,0,1,1.17-1.6,3.46,3.46,0,0,1,2-.55,3.16,3.16,0,0,1,2.06.62,1.46,1.46,0,0,1,.58,1.2,6,6,0,0,1-.16,1.3l-.39,1.74a6.23,6.23,0,0,0-.19,1.36,4.45,4.45,0,0,0,.15,1H224.9A4.39,4.39,0,0,1,224.76,112.32Zm.44-2.68a3.69,3.69,0,0,1-.53.15c-.2,0-.52.07-1,.11a6.87,6.87,0,0,0-1.48.24,1.17,1.17,0,0,0-.64.45,1.11,1.11,0,0,0-.22.68,1.09,1.09,0,0,0,.34.83,1.44,1.44,0,0,0,1,.32,2.33,2.33,0,0,0,2-1.19A4.82,4.82,0,0,0,225.2,109.64Z"/><path d="M227.55,113.19l2-9.68h1.2l-.72,3.46a4.39,4.39,0,0,1,1-.74,2.31,2.31,0,0,1,1-.21,2.09,2.09,0,0,1,1.64.73,3.09,3.09,0,0,1,.66,2.13,5.48,5.48,0,0,1-.26,1.71,4.87,4.87,0,0,1-.66,1.29,4.32,4.32,0,0,1-.8.84,3,3,0,0,1-.86.47,2.54,2.54,0,0,1-.83.16,2.1,2.1,0,0,1-1.22-.37,2.33,2.33,0,0,1-.83-1.12l-.28,1.33Zm1.77-2.88v.22a1.94,1.94,0,0,0,.43,1.37,1.38,1.38,0,0,0,1.06.47,1.79,1.79,0,0,0,1.16-.44,3.17,3.17,0,0,0,.86-1.37,5.16,5.16,0,0,0,.33-1.72,2,2,0,0,0-.42-1.37,1.36,1.36,0,0,0-1.05-.49,1.74,1.74,0,0,0-1.19.5,3.78,3.78,0,0,0-.91,1.54A4,4,0,0,0,229.32,110.31Z"/><path d="M239.8,112.32a4.89,4.89,0,0,1-1.2.78,3.13,3.13,0,0,1-1.22.25,2.18,2.18,0,0,1-1.57-.57,2.13,2.13,0,0,1-.32-2.51,2,2,0,0,1,.71-.72,2.93,2.93,0,0,1,1.08-.4,12.93,12.93,0,0,1,1.53-.12,5.34,5.34,0,0,0,1.61-.24,3.19,3.19,0,0,0,.14-.81.77.77,0,0,0-.3-.65A2,2,0,0,0,239,107a2.13,2.13,0,0,0-1.23.33,1.9,1.9,0,0,0-.7,1l-1.21-.11a3.19,3.19,0,0,1,1.18-1.6,3.46,3.46,0,0,1,2-.55,3.18,3.18,0,0,1,2.06.62,1.46,1.46,0,0,1,.58,1.2,6,6,0,0,1-.16,1.3l-.39,1.74a6.23,6.23,0,0,0-.19,1.36,4.45,4.45,0,0,0,.15,1h-1.21A4.39,4.39,0,0,1,239.8,112.32Zm.44-2.68a3.84,3.84,0,0,1-.54.15c-.19,0-.51.07-1,.11a6.86,6.86,0,0,0-1.47.24,1.24,1.24,0,0,0-.65.45,1.16,1.16,0,0,0-.21.68,1.09,1.09,0,0,0,.34.83,1.42,1.42,0,0,0,1,.32,2.33,2.33,0,0,0,2-1.19A5.07,5.07,0,0,0,240.24,109.64Z"/><path d="M240.51,115.82l.21-1a2.94,2.94,0,0,0,.72.11.77.77,0,0,0,.61-.26,3.73,3.73,0,0,0,.48-1.41l1.47-7.07h1.19l-1.52,7.29a5.06,5.06,0,0,1-.65,1.86,1.63,1.63,0,0,1-1.38.66A4.36,4.36,0,0,1,240.51,115.82Zm3.78-11,.28-1.35h1.18l-.28,1.35Z"/><path d="M245.81,110.53a4.92,4.92,0,0,1,1.2-3.4,3.36,3.36,0,0,1,2.62-1.11,2.73,2.73,0,0,1,2,.79,2.92,2.92,0,0,1,.78,2.14,5.32,5.32,0,0,1-.49,2.25,3.67,3.67,0,0,1-1.39,1.59,3.56,3.56,0,0,1-1.9.56,3.24,3.24,0,0,1-1.49-.35,2.5,2.5,0,0,1-1-1A3,3,0,0,1,245.81,110.53Zm1.19-.12a2.11,2.11,0,0,0,.48,1.5,1.56,1.56,0,0,0,1.2.51,2,2,0,0,0,.76-.15,2.27,2.27,0,0,0,.7-.47,3.25,3.25,0,0,0,.55-.73,3.74,3.74,0,0,0,.37-.87,4.13,4.13,0,0,0,.2-1.26,2.1,2.1,0,0,0-.47-1.47,1.57,1.57,0,0,0-1.21-.53,2,2,0,0,0-1,.27,2.8,2.8,0,0,0-.84.78,3.45,3.45,0,0,0-.54,1.2A4.86,4.86,0,0,0,247,110.41Z"/><path d="M261.6,112.32a5.29,5.29,0,0,1-1.2.78,3.14,3.14,0,0,1-1.23.25,2.17,2.17,0,0,1-1.56-.57,2,2,0,0,1-.6-1.47,2,2,0,0,1,.27-1,2.13,2.13,0,0,1,.71-.72,3.07,3.07,0,0,1,1.08-.4,12.93,12.93,0,0,1,1.53-.12,5.42,5.42,0,0,0,1.62-.24,3.19,3.19,0,0,0,.14-.81.77.77,0,0,0-.31-.65,1.92,1.92,0,0,0-1.21-.33,2.1,2.1,0,0,0-1.23.33,1.85,1.85,0,0,0-.7,1l-1.21-.11a3.23,3.23,0,0,1,1.17-1.6,3.49,3.49,0,0,1,2-.55,3.2,3.2,0,0,1,2.06.62,1.49,1.49,0,0,1,.58,1.2,6,6,0,0,1-.17,1.3l-.39,1.74a6.78,6.78,0,0,0-.18,1.36,5,5,0,0,0,.14,1h-1.2A3.76,3.76,0,0,1,261.6,112.32Zm.44-2.68a4.26,4.26,0,0,1-.54.15c-.19,0-.51.07-1,.11a6.63,6.63,0,0,0-1.47.24,1.2,1.2,0,0,0-.65.45,1.17,1.17,0,0,0-.22.68,1.09,1.09,0,0,0,.35.83,1.42,1.42,0,0,0,1,.32,2.3,2.3,0,0,0,2-1.19A4.8,4.8,0,0,0,262,109.64Z"/><path d="M268.05,113.19l2-9.68h1.2l-2,9.68Z"/><path d="M275.88,112.32a5.29,5.29,0,0,1-1.2.78,3.14,3.14,0,0,1-1.23.25,2.14,2.14,0,0,1-1.56-.57,2,2,0,0,1-.6-1.47,2,2,0,0,1,.27-1,2.13,2.13,0,0,1,.71-.72,3.07,3.07,0,0,1,1.08-.4,12.93,12.93,0,0,1,1.53-.12,5.42,5.42,0,0,0,1.62-.24,3.11,3.11,0,0,0,.13-.81.77.77,0,0,0-.3-.65,1.92,1.92,0,0,0-1.21-.33,2.14,2.14,0,0,0-1.24.33,1.89,1.89,0,0,0-.69,1l-1.21-.11a3.23,3.23,0,0,1,1.17-1.6,3.48,3.48,0,0,1,2-.55,3.16,3.16,0,0,1,2.06.62,1.47,1.47,0,0,1,.59,1.2,6,6,0,0,1-.17,1.3l-.39,1.74a6.78,6.78,0,0,0-.18,1.36,4.3,4.3,0,0,0,.14,1H276A4.47,4.47,0,0,1,275.88,112.32Zm.44-2.68a4.26,4.26,0,0,1-.54.15c-.19,0-.51.07-1,.11a6.63,6.63,0,0,0-1.47.24,1.16,1.16,0,0,0-.65.45,1.11,1.11,0,0,0-.22.68,1.09,1.09,0,0,0,.35.83,1.42,1.42,0,0,0,1,.32,2.3,2.3,0,0,0,2-1.19A5,5,0,0,0,276.32,109.64Z"/><path d="M282.42,113.19l1.47-7H285l-.3,1.43a4.79,4.79,0,0,1,1.06-1.2,1.74,1.74,0,0,1,1.06-.39,2,2,0,0,1,.88.26l-.49,1.11a1.16,1.16,0,0,0-.68-.23,1.83,1.83,0,0,0-1.29.7,5.35,5.35,0,0,0-1,2.52l-.59,2.81Z"/><path d="M287.14,110.53a4.92,4.92,0,0,1,1.2-3.4A3.36,3.36,0,0,1,291,106a2.73,2.73,0,0,1,2,.79,2.92,2.92,0,0,1,.78,2.14,5.32,5.32,0,0,1-.49,2.25,3.67,3.67,0,0,1-1.39,1.59,3.56,3.56,0,0,1-1.9.56,3.24,3.24,0,0,1-1.49-.35,2.56,2.56,0,0,1-1-1A3,3,0,0,1,287.14,110.53Zm1.19-.12a2.11,2.11,0,0,0,.48,1.5,1.56,1.56,0,0,0,1.2.51,2,2,0,0,0,.76-.15,2.27,2.27,0,0,0,.7-.47,3.25,3.25,0,0,0,.55-.73,3.74,3.74,0,0,0,.37-.87,4.15,4.15,0,0,0,.21-1.26,2.1,2.1,0,0,0-.48-1.47,1.57,1.57,0,0,0-1.21-.53,2,2,0,0,0-1,.27,2.8,2.8,0,0,0-.84.78,3.65,3.65,0,0,0-.54,1.2A4.86,4.86,0,0,0,288.33,110.41Z"/><path d="M299.28,110.63l1.2.13a4.09,4.09,0,0,1-1.28,1.95,3,3,0,0,1-1.88.64,2.48,2.48,0,0,1-1.86-.74,2.89,2.89,0,0,1-.71-2.07,6,6,0,0,1,.46-2.26,3.6,3.6,0,0,1,1.3-1.68,3.34,3.34,0,0,1,1.94-.58,2.45,2.45,0,0,1,1.79.64,2.21,2.21,0,0,1,.66,1.68l-1.18.08a1.41,1.41,0,0,0-.38-1,1.37,1.37,0,0,0-1-.38,1.82,1.82,0,0,0-1.25.46,3,3,0,0,0-.83,1.38,5.79,5.79,0,0,0-.3,1.79,1.93,1.93,0,0,0,.4,1.34,1.25,1.25,0,0,0,1,.45,1.76,1.76,0,0,0,1.11-.44A2.92,2.92,0,0,0,299.28,110.63Z"/><path d="M305.93,112.32a5,5,0,0,1-1.19.78,3.22,3.22,0,0,1-1.23.25,2.18,2.18,0,0,1-1.57-.57,2.13,2.13,0,0,1-.32-2.51,2,2,0,0,1,.71-.72,2.93,2.93,0,0,1,1.08-.4,12.93,12.93,0,0,1,1.53-.12,5.34,5.34,0,0,0,1.61-.24,3.19,3.19,0,0,0,.14-.81.77.77,0,0,0-.3-.65,2,2,0,0,0-1.22-.33,2.13,2.13,0,0,0-1.23.33,1.9,1.9,0,0,0-.7,1l-1.2-.11a3.12,3.12,0,0,1,1.17-1.6,3.46,3.46,0,0,1,2-.55,3.18,3.18,0,0,1,2.06.62,1.46,1.46,0,0,1,.58,1.2,6,6,0,0,1-.16,1.3l-.39,1.74a6.23,6.23,0,0,0-.19,1.36,4.45,4.45,0,0,0,.15,1h-1.21A4.39,4.39,0,0,1,305.93,112.32Zm.44-2.68a3.69,3.69,0,0,1-.53.15c-.2,0-.52.07-1,.11a6.86,6.86,0,0,0-1.47.24,1.17,1.17,0,0,0-.64.45,1.11,1.11,0,0,0-.22.68,1.09,1.09,0,0,0,.34.83,1.44,1.44,0,0,0,1,.32,2.33,2.33,0,0,0,2-1.19A5.07,5.07,0,0,0,306.37,109.64Z"/><rect x="7.1" y="5.5" width="516.79" height="175.72" style="fill:none;stroke:#61c5ff;stroke-miterlimit:10"/></svg>