<svg id="Capa_1" data-name="Capa 1" xmlns="http://www.w3.org/2000/svg" xmlns:xlink="http://www.w3.org/1999/xlink" viewBox="0 0 337.56 192"><defs><radialGradient id="Degradado_sin_nombre_25" cx="93.26" cy="93.64" r="15.5" gradientUnits="userSpaceOnUse"><stop offset="0" stop-color="#e5a44d" stop-opacity="0.4"/><stop offset="1" stop-color="#e5a44d"/></radialGradient></defs><line x1="93.29" y1="33.92" x2="93.29" y2="78.69" style="fill:#a8a8a8;stroke:#494949;stroke-miterlimit:10"/><line x1="111.74" y1="29.3" x2="182.64" y2="84.74" style="fill:#a8a8a8;stroke:#494949;stroke-miterlimit:10"/><circle cx="104.03" cy="34.57" r="11.77" style="fill:#a8a8a8;stroke:#494949;stroke-miterlimit:10"/><path d="M101.29,36.55l14.62,37.23,16-8L107.44,33.13a3.56,3.56,0,0,0-4.53-1h0A3.55,3.55,0,0,0,101.29,36.55Z" style="fill:#a8a8a8;stroke:#494949;stroke-miterlimit:10"/><circle cx="93.26" cy="93.64" r="15.5" style="fill:url(#Degradado_sin_nombre_25)"/><polygon points="113.88 50.69 113.88 169 264.99 169 113.88 50.69" style="fill:#e5a44d;stroke:#965b0c;stroke-miterlimit:10"/><path d="M236.81,169.23s-5.78-12.94,8-16" style="fill:none;stroke:#965b0c;stroke-miterlimit:10"/><path d="M242.24,162.2a5.33,5.33,0,0,1,.22-1.66,2.05,2.05,0,0,1,.63-1,1.6,1.6,0,0,1,1-.34,1.66,1.66,0,0,1,.82.19,1.43,1.43,0,0,1,.58.54,2.89,2.89,0,0,1,.37.87,6.09,6.09,0,0,1,.13,1.37,5.34,5.34,0,0,1-.21,1.65,2,2,0,0,1-.63,1,1.61,1.61,0,0,1-1.06.35,1.58,1.58,0,0,1-1.32-.61A3.84,3.84,0,0,1,242.24,162.2Zm.74,0a3.73,3.73,0,0,0,.33,1.91,1,1,0,0,0,.83.47,1,1,0,0,0,.83-.48,3.67,3.67,0,0,0,.33-1.9,3.71,3.71,0,0,0-.33-1.91,1,1,0,0,0-.84-.47.91.91,0,0,0-.78.42A3.63,3.63,0,0,0,243,162.2Z"/><line x1="242.72" y1="162.23" x2="245.34" y2="162.23" style="fill:none;stroke:#00080c;stroke-linecap:round;stroke-miterlimit:10;stroke-width:0.75px;stroke-dasharray:3"/><circle cx="104.73" cy="35.19" r="1.59" style="fill:#fff"/><path d="M171.87,89.22l22.89-9.55a3.42,3.42,0,0,1,3.68.66l13.31,12.41a3.45,3.45,0,0,1-1,5.69l-21,9a3.42,3.42,0,0,1-3.48-.45l-15.2-11.87A3.45,3.45,0,0,1,171.87,89.22Z" style="fill:#965b0c"/><line x1="62.01" y1="168.96" x2="275.55" y2="168.96" style="fill:none;stroke:#965b0c;stroke-miterlimit:10;stroke-width:2px"/><path d="M86.72,96.93l1.5-7.19H89.4l.73,4.66c.09.61.15,1.2.18,1.76a21.7,21.7,0,0,1,1-2l2.52-4.45H95l-1.5,7.19h-1l.75-3.5a26,26,0,0,1,.75-2.71c-.21.46-.47,1-.77,1.51l-2.68,4.7h-.93L89,92.32c-.06-.42-.11-.91-.14-1.48-.08.63-.16,1.14-.24,1.51l-1,4.58Z"/><path d="M97.06,96.93,98.2,91.5a5.54,5.54,0,0,1-2.07.93l.17-.81a6.61,6.61,0,0,0,1.31-.69,6.11,6.11,0,0,0,1-.74,2.77,2.77,0,0,0,.38-.48h.51L98,96.93Z"/><path d="M184.09,90.13l6.15-4,.83.84-2.78,3.81c-.36.5-.74,1-1.11,1.38a19.84,19.84,0,0,1,2.1-.69l4.93-1.37.85.86-6.15,4-.67-.67,3-1.94a27,27,0,0,1,2.45-1.4c-.48.19-1,.36-1.61.53l-5.22,1.43-.66-.65L189,88.47c.25-.34.57-.72.94-1.14-.5.39-.91.69-1.23.89l-3.92,2.57Z" style="fill:#fff"/><path d="M190.11,96.15a3.81,3.81,0,0,1,1-.49,3.49,3.49,0,0,1,1-.13c.38,0,1,.06,2,.17a12,12,0,0,0,1.25.1,2.65,2.65,0,0,0,.91-.16,1.23,1.23,0,0,0,.82-1.15,1.23,1.23,0,0,0-.37-.85,1.29,1.29,0,0,0-.87-.38,2.12,2.12,0,0,0-1.18.42l-.52-.71a2.36,2.36,0,0,1,1.59-.54,2.17,2.17,0,0,1,1.47.7,2.37,2.37,0,0,1,.61,1,1.76,1.76,0,0,1,0,1,2,2,0,0,1-.49.85,2.23,2.23,0,0,1-1.34.61,13,13,0,0,1-2.45-.15,8.87,8.87,0,0,0-1.3-.09,2.85,2.85,0,0,0-.78.1l2.27,2.28-.7.45Z" style="fill:#fff"/></svg>