<svg id="Capa_1" data-name="Capa 1" xmlns="http://www.w3.org/2000/svg" xmlns:xlink="http://www.w3.org/1999/xlink" viewBox="0 0 327.72 216"><defs><linearGradient id="Degradado_sin_nombre" x1="86.64" y1="161.92" x2="87.89" y2="127.4" gradientUnits="userSpaceOnUse"><stop offset="0" stop-color="#fff"/><stop offset="1"/></linearGradient><linearGradient id="Degradado_sin_nombre-2" x1="249.91" y1="162.84" x2="251.16" y2="128.31" xlink:href="#Degradado_sin_nombre"/></defs><rect x="48.66" y="140.26" width="76.74" height="21.87" style="opacity:0.54;fill:url(#Degradado_sin_nombre)"/><path d="M49.35,53.88,56,139.52c0,6.94,12.81,12.57,28.61,12.57s28.62-5.63,28.62-12.57l6.51-85.64Z" style="fill:#cecece"/><path d="M108.87,77.89l-4.46,66.26a4.67,4.67,0,0,1,1.31-1.06l4.08-65.4Z" style="fill:#afafaf"/><path d="M111.89,77.18l-4.13,64.63c1.3-.79,2-.6,3.21-1.19l4.76-65A28.66,28.66,0,0,1,111.89,77.18Z" style="fill:#afafaf"/><path d="M95,79.65l-2.08,67.49a8,8,0,0,1,2.09-.78l1.92-66.85Z" style="fill:#afafaf"/><path d="M104.65,78.63c-1.25.19-2.56.36-3.92.52l-3.38,66.59c1.08-.24,2.09.12,3.08-.18Z" style="fill:#afafaf"/><path d="M78,79.86l.79,67.57a12.08,12.08,0,0,1,3-.31V80C80.51,80,79.23,79.91,78,79.86Z" style="fill:#afafaf"/><path d="M90.84,79.87c-1.26,0-2.54.08-3.83.1v67.24a15.54,15.54,0,0,1,3,.24Z" style="fill:#afafaf"/><polygon points="92.92 147.13 100.43 145.56 97.45 143.76 95.08 144.14 92.92 147.13" style="fill:#e2e2e2"/><polygon points="104.41 144.16 105.83 141.28 107.86 140.3 110.97 140.62 104.41 144.16" style="fill:#e2e2e2"/><polygon points="78.77 147.43 81.81 145.29 87.01 145.29 90.04 147.45 78.77 147.43" style="fill:#e2e2e2"/><path d="M60,77.89l4.46,66.26a4.67,4.67,0,0,0-1.31-1.06L59,77.69Z" style="fill:#afafaf"/><path d="M56.92,77.18l4.13,64.63c-1.29-.79-2-.6-3.2-1.19l-4.76-65A28.49,28.49,0,0,0,56.92,77.18Z" style="fill:#afafaf"/><path d="M73.81,79.65l2.09,67.49a8,8,0,0,0-2.1-.78L71.88,79.51Z" style="fill:#afafaf"/><path d="M64.16,78.63c1.25.19,2.56.36,3.93.52l3.37,66.59c-1.08-.24-2.09.12-3.08-.18Z" style="fill:#afafaf"/><polygon points="75.9 147.13 68.38 145.56 71.36 143.76 73.74 144.14 75.9 147.13" style="fill:#e2e2e2"/><polygon points="64.41 144.16 62.98 141.28 60.95 140.3 57.85 140.62 64.41 144.16" style="fill:#e2e2e2"/><polygon points="95 79.65 96.77 85.14 100.44 84.78 104.65 78.63 95 79.65" style="fill:#a0a0a0"/><polygon points="108.87 77.89 109.46 83.14 111.54 82.7 115.73 75.6 108.87 77.89" style="fill:#a0a0a0"/><polygon points="77.98 79.86 81.81 85.73 87.01 85.73 90.83 79.87 77.98 79.86" style="fill:#a0a0a0"/><polygon points="73.81 79.65 72.05 85.14 68.37 84.78 64.16 78.63 73.81 79.65" style="fill:#a0a0a0"/><polygon points="59.95 77.89 59.36 83.14 57.27 82.7 53.09 75.6 59.95 77.89" style="fill:#a0a0a0"/><path d="M84.58,73.71c-19.42,0-35.17-3.4-35.17-7.59v1.07c0,4.19,15.74,7.6,35.17,7.6s35.17-3.41,35.17-7.6v-.91C119.34,70.4,103.75,73.71,84.58,73.71Z" style="fill:#a3cec6"/><path d="M119.75,66h0c0,4.2-15.75,7.6-35.17,7.6S49.41,70.16,49.41,66v2.81c0,4.2,15.74,7.6,35.17,7.6s35.17-3.4,35.17-7.6V66Z" style="fill:#afafaf"/><path d="M118.89,64.43l-.1,1.27h0a1.93,1.93,0,0,1,0,.24c-.58,4-15.75,7.12-34.2,7.12s-33.71-3.17-34.3-7.12a1.94,1.94,0,0,1,0-.24l-.09-1.17a2.29,2.29,0,0,0-.76,1.59,2.52,2.52,0,0,0,1,1.83c3.79,3.31,17.64,5.76,34.14,5.76s30.09-2.41,34-5.67a2.61,2.61,0,0,0,1.14-1.92A2.38,2.38,0,0,0,118.89,64.43Z" style="fill:#e2e2e2"/><path d="M99.87,150.93l-.84.19Z" style="fill:#789d97"/><path d="M99.92,150.91l0,0Z" style="fill:#a3cec6"/><polygon points="49.41 66.12 49.41 66.12 49.41 66.12 49.41 66.12" style="fill:#6e8e88"/><path d="M49.29,55.94a1.53,1.53,0,0,0,0,.3v-.56A2.28,2.28,0,0,0,49.29,55.94Z" style="fill:none"/><path d="M49.33,55.94a1.53,1.53,0,0,0,0,.3v-.56A2.28,2.28,0,0,0,49.33,55.94Z" style="fill:none"/><ellipse cx="84.62" cy="54.26" rx="35.21" ry="8.03" style="fill:#a3cec6"/><ellipse cx="84.62" cy="54.1" rx="34.05" ry="7.36" style="fill:#6e8e88"/><ellipse cx="84.62" cy="58.96" rx="25.6" ry="2.51" style="fill:#5c7772"/><path d="M118.79,65.7h0v.24A1.93,1.93,0,0,0,118.79,65.7Z" style="fill:none"/><path d="M50.28,65.94l0-.24A1.94,1.94,0,0,0,50.28,65.94Z" style="fill:none"/><path d="M119.78,56v0Z" style="fill:none"/><path d="M84.54,65c-16.66,0-31.16-2.78-34.81-6.22l.4,5.14c3.43,3.54,17.53,6.53,34.4,6.53s30.83-2.54,34.35-5.95l.43-5.65C115.63,62.31,101.16,65,84.54,65Z" style="fill:#8e8e8e"/><path d="M119.82,53H49.32l.09,8.27a1.64,1.64,0,0,0,0,.38c0,4.21,15.76,8.18,35.2,8.18s35.2-3.41,35.2-7.61h0Z" style="fill:#cecece"/><path d="M119.82,56v0Z" style="fill:none"/><path d="M84.57,64.41c-17.35,0-32.36-3-35.2-6.65l0,3.54a1.64,1.64,0,0,0,0,.38c0,4.21,15.76,8.18,35.2,8.18s35.25-3.41,35.25-7.61v-4.5C117.1,61.41,102,64.41,84.57,64.41Z" style="fill:#cecece"/><path d="M119.82,55.41V56c-.07,4.1-16.23,7.72-35.25,7.72-18.58,0-34.45-3.5-35.21-7.5v-.9a1.89,1.89,0,0,0-.46,1.18,2.06,2.06,0,0,0,.48,1.24c2.84,3.64,17.85,6.65,35.2,6.65s32.53-3,35.25-6.66a2,2,0,0,0,.43-1.18A1.94,1.94,0,0,0,119.82,55.41Z" style="fill:#e2e2e2"/><path d="M120.25,56.46h0c0,4.26-16,7.71-35.68,7.71s-35.68-3.45-35.68-7.71v2.86c0,4.25,16,7.71,35.68,7.71s35.68-3.46,35.68-7.71V56.46Z" style="fill:#afafaf"/><path d="M72.1,48.67c-1.24.07-3.26.25-3.87.73h.88a18.36,18.36,0,0,1,3-.37Z" style="fill:#5c7772"/><path d="M99.19,49.4h.89c-.61-.48-2.64-.66-3.87-.73V49A17.09,17.09,0,0,1,99.19,49.4Z" style="fill:#5c7772"/><polygon points="73.09 49.4 73.1 49.4 73.09 48.63 73.09 48.99 73.09 49.4" style="fill:#5c7772"/><polygon points="95.22 48.63 95.21 49.4 95.21 49.4 95.22 48.98 95.22 48.63" style="fill:#5c7772"/><path d="M109.08,53.88c2.75,26.21,2.16,82.24-53.56,80l.43,5.63c0,6.94,12.81,12.57,28.61,12.57s28.62-5.63,28.62-12.57l6.51-85.64Z" style="opacity:0.06"/><ellipse cx="84.57" cy="53.03" rx="35.25" ry="7.62" style="fill:#e2e2e2"/><path d="M119.82,53c0-4.21-15.78-7.62-35.25-7.62q-3.1,0-6.08.12c7.09,2.41,16.27,6.68,22.91,14.19C112.37,58.43,119.82,55.92,119.82,53Z" style="fill:#fff;opacity:0.28"/><path d="M96.21,48.67v-3.4a4.46,4.46,0,0,0-4.29-4.45c-2-.07-4-.11-6.07-.11-3.32,0-6.53.1-9.57.28a4.46,4.46,0,0,0-4.18,4.45v3.23c-1.24.07-3.26.25-3.87.73H73.1V45.89a4,4,0,0,1,3.74-4c2.82-.17,5.8-.27,8.88-.27,1.93,0,3.83,0,5.67.11a4,4,0,0,1,3.84,4V49.4h4.87C99.47,48.92,97.44,48.74,96.21,48.67Z" style="fill:#a3a3a3"/><path d="M76.28,41.35c3-.18,6.25-.28,9.57-.28,2.07,0,4.1,0,6.07.11a4.46,4.46,0,0,1,4.29,4.45v-.36a4.46,4.46,0,0,0-4.29-4.45c-2-.07-4-.11-6.07-.11-3.32,0-6.53.1-9.57.28a4.46,4.46,0,0,0-4.18,4.45v.36A4.45,4.45,0,0,1,76.28,41.35Z" style="fill:#fff;opacity:0.63"/><path d="M96.21,49.59v.86c0,.61-1.9,1.11-4.29,1.14l-6.07,0c-3.32,0-6.53,0-9.57-.07-2.35,0-4.18-.53-4.18-1.13v-.82a37.73,37.73,0,0,1-3.87-.19H73.1v.89c0,.54,1.64,1,3.74,1,2.82,0,5.8.07,8.88.07,1.93,0,3.83,0,5.67,0,2.14,0,3.84-.47,3.84-1V49.4h4.87A37.89,37.89,0,0,1,96.21,49.59Z" style="opacity:0.17"/><circle cx="96.57" cy="150.34" r="6.87" style="fill:none;stroke:#000;stroke-miterlimit:10"/><path d="M96.26,142.4s3-50.74,42.37-79.33c0,0-8.2-10.11-8.2-14.82C130.43,48.25,87.72,108.57,96.26,142.4Z" style="fill:#fff;stroke:#000;stroke-miterlimit:10"/><path d="M136.29,36.78l2.58,3.55,2.58-2.42,2.11,3.55L145.49,36,148.08,39l3.23-3.39,1,2.91,1.61-1.94,4.2,4.2,2.75-4.69,5.33,3.72,4.52-3.23,1.78,2.1,3.23-3.4L177,38.88l3.56,2.1,3.71-3.39,1.78,1,2.26-1.46L191.21,40l3.93-2.27a32.92,32.92,0,0,0-65.66-1.22L133.54,41Z" style="fill:#e1e8ed;stroke:#000;stroke-miterlimit:10"/><path d="M195.14,37.74,191.21,40,188.3,37.1,186,38.56l-1.78-1L180.55,41,177,38.88l-1.29-3.56-3.23,3.4-1.78-2.1-4.52,3.23-5.33-3.72-2.75,4.69-4.2-4.2-1.61,1.94-1-2.91L148.08,39,145.49,36l-1.93,5.49-2.11-3.55-2.58,2.42-2.58-3.55L133.54,41l-4.06-4.46c-.09,1-.14,2-.14,3,0,.73,0,1.46.08,2.18l2.31,1.37,1.69-.73L135,44l.88-2.49,2.71,1.17,2-.36,1.91.22,1.39,1,2.71-1.9,1.4,1,1.9-2.86,2.93,2.28,2-1.47,1.47,1.91,1.83-.15,1.54-.59,1.32,1.4L163.62,42l2.49,1.54.3-2a9,9,0,0,1,1.83-.66,6.91,6.91,0,0,0,1.61-.59l1.47,3.08a4.41,4.41,0,0,1,.8-.73c.3-.15,3.08,1.17,3.08,1.17l1.17-3.37,2.28,2.79,3.15-.88.88.8.95-1.54,1.25,1.54L187,41.34l2.13,1,3.08-.59,2.88.15c.06-.79.1-1.58.1-2.38C195.19,38.94,195.17,38.34,195.14,37.74Z" style="fill:none;stroke:#000;stroke-miterlimit:10"/><path d="M189.13,42.37l-2.13-1-2.12,1.76-1.25-1.54-.95,1.54-.88-.8-3.15.88-2.28-2.79-1.17,3.37s-2.78-1.32-3.08-1.17a4.41,4.41,0,0,0-.8.73l-1.47-3.08a6.91,6.91,0,0,1-1.61.59,9,9,0,0,0-1.83.66l-.3,2L163.62,42,161,43.18l-1.32-1.4-1.54.59-1.83.15-1.47-1.91-2,1.47-2.93-2.28L148,42.66l-1.4-1-2.71,1.9-1.39-1-1.91-.22-2,.36-2.71-1.17L135,44l-1.61-1.61-1.69.73-2.31-1.37a32.91,32.91,0,0,0,65.67.2l-2.88-.15Z" style="fill:#dbd4d1;stroke:#000;stroke-miterlimit:10"/><line x1="85.73" y1="92.48" x2="85.73" y2="179.59" style="fill:none;stroke:#00aeef;stroke-miterlimit:10"/><path d="M85.73,92.88a7.36,7.36,0,0,0,4.55,1.59,13.6,13.6,0,0,1-4.55-5.55,14.44,14.44,0,0,1-4.54,5.55A7.65,7.65,0,0,0,85.73,92.88Z" style="fill:#00aeef"/><path d="M85.73,185.5a29.46,29.46,0,0,0-4.66-8.37l4.66,1.68,4.66-1.68A29.7,29.7,0,0,0,85.73,185.5Z" style="fill:#00aeef"/><line x1="104.37" y1="140.13" x2="129.64" y2="140.13" style="fill:none;stroke:#00aeef;stroke-miterlimit:10"/><path d="M135.67,140.13a30.12,30.12,0,0,0-8.54,4.75l1.72-4.75-1.72-4.76A29.91,29.91,0,0,0,135.67,140.13Z" style="fill:#00aeef"/><line x1="64.19" y1="144.56" x2="38.91" y2="144.56" style="fill:none;stroke:#00aeef;stroke-miterlimit:10"/><path d="M32.88,144.56a30.31,30.31,0,0,0,8.55-4.75l-1.72,4.75,1.72,4.76A30.34,30.34,0,0,0,32.88,144.56Z" style="fill:#00aeef"/><circle cx="85.66" cy="139.94" r="3.25" style="fill:#3a3a3a"/><rect x="143.2" y="127.5" width="10.25" height="0.85"/><path d="M153.14,127.93a5.84,5.84,0,0,1-1.26-3.6,10.88,10.88,0,0,0,4.4,3.6,11.29,11.29,0,0,0-4.4,3.6A6,6,0,0,1,153.14,127.93Z"/><path d="M141.85,150,145,134.74h9.9l-.37,1.73H146.7l-1,4.85h8l-.36,1.73h-8l-1.44,6.9Z"/><rect x="16.36" y="128.47" width="10.25" height="0.85"/><rect x="16.36" y="126.71" width="10.25" height="0.85"/><path d="M26.64,127.93a5.83,5.83,0,0,1-1.25-3.6,10.85,10.85,0,0,0,4.39,3.6,11.34,11.34,0,0,0-4.39,3.6A6,6,0,0,1,26.64,127.93Z"/><path d="M15.35,150l3.18-15.21h9.89l-.36,1.73H20.2l-1,4.85h8l-.36,1.73h-8L17.39,150Z"/><rect x="82.62" y="65.44" width="10.25" height="0.85"/><path d="M92.55,65.86a5.81,5.81,0,0,1-1.25-3.6,10.69,10.69,0,0,0,4.39,3.6,11.51,11.51,0,0,0-4.39,3.6A6,6,0,0,1,92.55,65.86Z"/><path d="M80.92,84.29l2.31-11h1.7l-.41,1.92a9.32,9.32,0,0,1,2.08-1.65,4.16,4.16,0,0,1,2-.51,2.94,2.94,0,0,1,2.1.72,2.56,2.56,0,0,1,.77,1.94,10.81,10.81,0,0,1-.27,1.93l-1.4,6.68H87.89l1.46-7a8.59,8.59,0,0,0,.22-1.5,1.17,1.17,0,0,0-.38-.9,1.63,1.63,0,0,0-1.1-.34,3.68,3.68,0,0,0-2.56,1,6.54,6.54,0,0,0-1.66,3.56L82.8,84.29Z"/><rect x="93.66" y="184.87" width="10.25" height="0.85"/><path d="M103.59,185.29a5.85,5.85,0,0,1-1.25-3.6,10.69,10.69,0,0,0,4.39,3.6,11.45,11.45,0,0,0-4.39,3.61A6.09,6.09,0,0,1,103.59,185.29Z"/><path d="M76,202l2.3-11h1.88l-.38,1.81a7.63,7.63,0,0,1,1.87-1.62,3.79,3.79,0,0,1,1.79-.44,2.7,2.7,0,0,1,1.72.54,2.63,2.63,0,0,1,.91,1.52,6.13,6.13,0,0,1,1.77-1.55,4,4,0,0,1,1.95-.51,2.89,2.89,0,0,1,2.07.65,2.42,2.42,0,0,1,.69,1.84,10.36,10.36,0,0,1-.23,1.68L90.86,202H89l1.52-7.29a7,7,0,0,0,.2-1.27,1.11,1.11,0,0,0-.35-.86,1.42,1.42,0,0,0-1-.31,3.43,3.43,0,0,0-1.72.51,3.69,3.69,0,0,0-1.35,1.34,9.18,9.18,0,0,0-.85,2.53L84.35,202H82.47L84,194.58a6.14,6.14,0,0,0,.17-1.08,1.18,1.18,0,0,0-.34-.87,1.17,1.17,0,0,0-.88-.34,3.32,3.32,0,0,0-1.67.51,4,4,0,0,0-1.43,1.42,8.21,8.21,0,0,0-.9,2.59L77.89,202Z"/><path d="M93.62,203l1.9.17a2,2,0,0,0,.16,1,1.15,1.15,0,0,0,.56.5,3.3,3.3,0,0,0,1.32.22A3.05,3.05,0,0,0,100,204a6.83,6.83,0,0,0,.9-2.57l.19-.9A4.38,4.38,0,0,1,98,202a3.66,3.66,0,0,1-2.8-1.23,5,5,0,0,1-1.12-3.48,6.71,6.71,0,0,1,.89-3.42,6.57,6.57,0,0,1,2.11-2.35,4.56,4.56,0,0,1,2.52-.79,3.65,3.65,0,0,1,3.34,2.05l.38-1.8H105l-2.22,10.64a8.67,8.67,0,0,1-1,2.73,4,4,0,0,1-1.64,1.52,5.28,5.28,0,0,1-2.44.54,6.76,6.76,0,0,1-2.28-.34,2.9,2.9,0,0,1-1.44-1,2.58,2.58,0,0,1-.47-1.51A3.75,3.75,0,0,1,93.62,203ZM96,197.14a4.88,4.88,0,0,0,.22,1.7,2.58,2.58,0,0,0,.88,1.22,2.14,2.14,0,0,0,1.29.42,3.15,3.15,0,0,0,1.83-.64,4.6,4.6,0,0,0,1.48-2,6.76,6.76,0,0,0,.57-2.6,3,3,0,0,0-.75-2.16,2.47,2.47,0,0,0-1.87-.81,2.7,2.7,0,0,0-1.33.37,4,4,0,0,0-1.2,1.12,5.35,5.35,0,0,0-.84,1.8A6.61,6.61,0,0,0,96,197.14Z"/><path d="M24.1,150.35l1,0a1.74,1.74,0,0,0,.14.72,1,1,0,0,0,.48.49,1.73,1.73,0,0,0,.81.19,1.55,1.55,0,0,0,1-.26.78.78,0,0,0,.33-.62.73.73,0,0,0-.2-.48,3,3,0,0,0-1-.56c-.52-.23-.85-.38-1-.47a1.61,1.61,0,0,1-.54-.53,1.23,1.23,0,0,1-.19-.69,1.54,1.54,0,0,1,.54-1.18,2.25,2.25,0,0,1,1.53-.49,2.4,2.4,0,0,1,1.65.51,1.71,1.71,0,0,1,.59,1.32l-1,.07a1.1,1.1,0,0,0-.37-.83,1.46,1.46,0,0,0-1-.31,1.21,1.21,0,0,0-.8.24.64.64,0,0,0-.28.5.6.6,0,0,0,.24.48,3.92,3.92,0,0,0,.85.44,5.35,5.35,0,0,1,1.42.77,1.48,1.48,0,0,1,.47,1.1,1.59,1.59,0,0,1-.26.84,1.8,1.8,0,0,1-.81.66,3,3,0,0,1-1.27.25,2.9,2.9,0,0,1-1.71-.5A1.75,1.75,0,0,1,24.1,150.35Z"/><rect x="211.93" y="141.18" width="76.74" height="21.87" style="opacity:0.54;fill:url(#Degradado_sin_nombre-2)"/><path d="M212.62,53.88l6.6,85.64c0,6.94,12.81,12.57,28.61,12.57s28.62-5.63,28.62-12.57L283,53.88Z" style="fill:#cecece"/><path d="M272.14,77.89l-4.46,66.26a4.53,4.53,0,0,1,1.31-1.06l4.08-65.4Z" style="fill:#afafaf"/><path d="M275.16,77.18,271,141.81c1.3-.79,2-.6,3.21-1.19l4.76-65A29.22,29.22,0,0,1,275.16,77.18Z" style="fill:#afafaf"/><path d="M258.27,79.65l-2.08,67.49a8,8,0,0,1,2.09-.78l1.92-66.85Z" style="fill:#afafaf"/><path d="M267.92,78.63c-1.25.19-2.56.36-3.92.52l-3.38,66.59c1.08-.24,2.09.12,3.08-.18Z" style="fill:#afafaf"/><path d="M241.25,79.86l.79,67.57a12.08,12.08,0,0,1,3-.31V80C243.78,80,242.5,79.91,241.25,79.86Z" style="fill:#afafaf"/><path d="M254.11,79.87c-1.26,0-2.54.08-3.83.1v67.24a15.6,15.6,0,0,1,3,.24Z" style="fill:#afafaf"/><polygon points="256.19 147.13 263.7 145.56 260.72 143.76 258.35 144.14 256.19 147.13" style="fill:#e2e2e2"/><polygon points="267.68 144.16 269.1 141.28 271.13 140.3 274.24 140.62 267.68 144.16" style="fill:#e2e2e2"/><polygon points="242.04 147.43 245.08 145.29 250.28 145.29 253.31 147.45 242.04 147.43" style="fill:#e2e2e2"/><path d="M223.22,77.89l4.45,66.26a4.63,4.63,0,0,0-1.3-1.06l-4.08-65.4Z" style="fill:#afafaf"/><path d="M220.19,77.18l4.13,64.63c-1.29-.79-2-.6-3.2-1.19l-4.77-65A29.22,29.22,0,0,0,220.19,77.18Z" style="fill:#afafaf"/><path d="M237.08,79.65l2.09,67.49a8,8,0,0,0-2.1-.78l-1.92-66.85Z" style="fill:#afafaf"/><path d="M227.43,78.63c1.25.19,2.56.36,3.92.52l3.38,66.59c-1.08-.24-2.09.12-3.08-.18Z" style="fill:#afafaf"/><polygon points="239.17 147.13 231.65 145.56 234.63 143.76 237 144.14 239.17 147.13" style="fill:#e2e2e2"/><polygon points="227.68 144.16 226.25 141.28 224.22 140.3 221.12 140.62 227.68 144.16" style="fill:#e2e2e2"/><polygon points="258.27 79.65 260.04 85.14 263.71 84.78 267.92 78.63 258.27 79.65" style="fill:#a0a0a0"/><polygon points="272.14 77.89 272.73 83.14 274.81 82.7 279 75.6 272.14 77.89" style="fill:#a0a0a0"/><polygon points="241.25 79.86 245.08 85.73 250.28 85.73 254.1 79.87 241.25 79.86" style="fill:#a0a0a0"/><polygon points="237.08 79.65 235.31 85.14 231.64 84.78 227.43 78.63 237.08 79.65" style="fill:#a0a0a0"/><polygon points="223.22 77.89 222.63 83.14 220.54 82.7 216.35 75.6 223.22 77.89" style="fill:#a0a0a0"/><path d="M247.85,73.71c-19.42,0-35.17-3.4-35.17-7.59v1.07c0,4.19,15.74,7.6,35.17,7.6S283,71.38,283,67.19v-.91C282.61,70.4,267,73.71,247.85,73.71Z" style="fill:#a3cec6"/><path d="M283,66h0c0,4.2-15.75,7.6-35.17,7.6s-35.17-3.4-35.17-7.6v2.81c0,4.2,15.74,7.6,35.17,7.6S283,73,283,68.77V66Z" style="fill:#afafaf"/><path d="M282.16,64.43l-.1,1.27h0a1.93,1.93,0,0,1,0,.24c-.58,4-15.75,7.12-34.2,7.12s-33.71-3.17-34.3-7.12a1.94,1.94,0,0,1,0-.24l-.09-1.17a2.29,2.29,0,0,0-.76,1.59,2.52,2.52,0,0,0,1,1.83c3.79,3.31,17.64,5.76,34.14,5.76,16.35,0,30.09-2.41,34-5.67A2.61,2.61,0,0,0,283,66.12,2.38,2.38,0,0,0,282.16,64.43Z" style="fill:#e2e2e2"/><path d="M263.14,150.93l-.84.19Z" style="fill:#789d97"/><path d="M263.19,150.91l-.05,0Z" style="fill:#a3cec6"/><polygon points="212.68 66.12 212.68 66.12 212.68 66.12 212.68 66.12" style="fill:#6e8e88"/><path d="M212.56,55.94a1.53,1.53,0,0,0,0,.3v-.56A2.28,2.28,0,0,0,212.56,55.94Z" style="fill:none"/><path d="M212.6,55.94a1.53,1.53,0,0,0,0,.3v-.56A2.28,2.28,0,0,0,212.6,55.94Z" style="fill:none"/><ellipse cx="247.89" cy="54.26" rx="35.21" ry="8.03" style="fill:#a3cec6"/><ellipse cx="247.89" cy="54.1" rx="34.05" ry="7.36" style="fill:#6e8e88"/><ellipse cx="247.89" cy="58.96" rx="25.6" ry="2.51" style="fill:#5c7772"/><path d="M282.06,65.7h0v.24A1.93,1.93,0,0,0,282.06,65.7Z" style="fill:none"/><path d="M213.55,65.94l0-.24A1.94,1.94,0,0,0,213.55,65.94Z" style="fill:none"/><path d="M283.05,56v0Z" style="fill:none"/><path d="M247.81,65c-16.66,0-31.17-2.78-34.81-6.22l.4,5.14c3.43,3.54,17.53,6.53,34.4,6.53s30.83-2.54,34.35-5.95l.43-5.65C278.9,62.31,264.43,65,247.81,65Z" style="fill:#8e8e8e"/><path d="M283.09,53h-70.5l.09,8.27a1.64,1.64,0,0,0,0,.38c0,4.21,15.76,8.18,35.2,8.18S283,66.45,283,62.25h0Z" style="fill:#cecece"/><path d="M283.09,56v0Z" style="fill:none"/><path d="M247.84,64.41c-17.35,0-32.36-3-35.2-6.65l0,3.54a1.64,1.64,0,0,0,0,.38c0,4.21,15.76,8.18,35.2,8.18s35.25-3.41,35.25-7.61v-4.5C280.37,61.41,265.29,64.41,247.84,64.41Z" style="fill:#cecece"/><path d="M283.09,55.41V56c-.07,4.1-16.23,7.72-35.25,7.72-18.58,0-34.45-3.5-35.21-7.5v-.9a1.89,1.89,0,0,0-.46,1.18,2.06,2.06,0,0,0,.48,1.24c2.84,3.64,17.85,6.65,35.2,6.65s32.53-3,35.25-6.66a2,2,0,0,0,.43-1.18A1.94,1.94,0,0,0,283.09,55.41Z" style="fill:#e2e2e2"/><path d="M283.52,56.46h0c0,4.26-16,7.71-35.68,7.71s-35.68-3.45-35.68-7.71v2.86c0,4.25,16,7.71,35.68,7.71s35.68-3.46,35.68-7.71V56.46Z" style="fill:#afafaf"/><path d="M235.37,48.67c-1.24.07-3.26.25-3.88.73h.89a18.36,18.36,0,0,1,3-.37Z" style="fill:#5c7772"/><path d="M262.46,49.4h.89c-.61-.48-2.64-.66-3.87-.73V49A17.09,17.09,0,0,1,262.46,49.4Z" style="fill:#5c7772"/><polygon points="236.36 49.4 236.37 49.4 236.36 48.63 236.36 48.99 236.36 49.4" style="fill:#5c7772"/><polygon points="258.49 48.63 258.48 49.4 258.48 49.4 258.49 48.98 258.49 48.63" style="fill:#5c7772"/><path d="M272.35,53.88c2.75,26.21,2.16,82.24-53.56,80l.43,5.63c0,6.94,12.81,12.57,28.61,12.57s28.62-5.63,28.62-12.57L283,53.88Z" style="opacity:0.06"/><ellipse cx="247.84" cy="53.03" rx="35.25" ry="7.62" style="fill:#e2e2e2"/><path d="M283.09,53c0-4.21-15.79-7.62-35.25-7.62q-3.1,0-6.08.12c7.09,2.41,16.27,6.68,22.91,14.19C275.64,58.43,283.09,55.92,283.09,53Z" style="fill:#fff;opacity:0.28"/><path d="M259.48,48.67v-3.4a4.46,4.46,0,0,0-4.29-4.45c-2-.07-4-.11-6.07-.11-3.32,0-6.53.1-9.57.28a4.46,4.46,0,0,0-4.18,4.45v3.23c-1.24.07-3.26.25-3.88.73h4.88V45.89a4,4,0,0,1,3.74-4c2.82-.17,5.8-.27,8.88-.27,1.93,0,3.83,0,5.67.11a4,4,0,0,1,3.84,4V49.4h4.87C262.74,48.92,260.71,48.74,259.48,48.67Z" style="fill:#a3a3a3"/><path d="M239.55,41.35c3-.18,6.25-.28,9.57-.28,2.07,0,4.1,0,6.07.11a4.46,4.46,0,0,1,4.29,4.45v-.36a4.46,4.46,0,0,0-4.29-4.45c-2-.07-4-.11-6.07-.11-3.32,0-6.53.1-9.57.28a4.46,4.46,0,0,0-4.18,4.45v.36A4.45,4.45,0,0,1,239.55,41.35Z" style="fill:#fff;opacity:0.63"/><path d="M259.48,49.59v.86c0,.61-1.9,1.11-4.29,1.14l-6.07,0c-3.32,0-6.53,0-9.57-.07-2.35,0-4.18-.53-4.18-1.13v-.82a38.11,38.11,0,0,1-3.88-.19h4.88v.89c0,.54,1.64,1,3.74,1,2.82,0,5.8.07,8.88.07,1.93,0,3.83,0,5.67,0,2.14,0,3.84-.47,3.84-1V49.4h4.87A37.89,37.89,0,0,1,259.48,49.59Z" style="opacity:0.17"/><line x1="249" y1="92.48" x2="249" y2="179.59" style="fill:none;stroke:#00aeef;stroke-miterlimit:10"/><path d="M249,92.88a7.36,7.36,0,0,0,4.55,1.59A13.6,13.6,0,0,1,249,88.92a14.44,14.44,0,0,1-4.54,5.55A7.65,7.65,0,0,0,249,92.88Z" style="fill:#00aeef"/><path d="M249,185.5a29.46,29.46,0,0,0-4.66-8.37l4.66,1.68,4.66-1.68A29.7,29.7,0,0,0,249,185.5Z" style="fill:#00aeef"/><line x1="267.63" y1="141.49" x2="301.52" y2="141.49" style="fill:none;stroke:#00aeef;stroke-miterlimit:10"/><path d="M307.55,141.49a30.59,30.59,0,0,0-8.55,4.76l1.72-4.76L299,136.74A30.31,30.31,0,0,0,307.55,141.49Z" style="fill:#00aeef"/><line x1="228.13" y1="141.85" x2="202.86" y2="141.85" style="fill:none;stroke:#00aeef;stroke-miterlimit:10"/><path d="M196.83,141.85a29.91,29.91,0,0,0,8.54-4.76l-1.72,4.76,1.72,4.75A30.12,30.12,0,0,0,196.83,141.85Z" style="fill:#00aeef"/><circle cx="248.93" cy="139.94" r="3.25" style="fill:#3a3a3a"/><rect x="293.67" y="118.69" width="6.71" height="0.56"/><path d="M300.16,119a3.81,3.81,0,0,1-.82-2.35,7,7,0,0,0,2.88,2.35,7.48,7.48,0,0,0-2.88,2.36A4,4,0,0,1,300.16,119Z"/><path d="M292.78,133.38l2.08-9.95h6.47l-.24,1.13H296l-.66,3.17h5.24l-.24,1.14h-5.24l-.94,4.51Z"/><rect x="179.63" y="128.47" width="10.25" height="0.85"/><rect x="179.63" y="126.71" width="10.25" height="0.85"/><path d="M189.91,127.93a5.83,5.83,0,0,1-1.25-3.6,10.85,10.85,0,0,0,4.39,3.6,11.34,11.34,0,0,0-4.39,3.6A6,6,0,0,1,189.91,127.93Z"/><path d="M178.62,150l3.18-15.21h9.89l-.36,1.73h-7.86l-1,4.85h8l-.36,1.73h-8l-1.44,6.9Z"/><rect x="245.89" y="65.44" width="10.25" height="0.85"/><path d="M255.82,65.86a5.81,5.81,0,0,1-1.25-3.6,10.69,10.69,0,0,0,4.39,3.6,11.51,11.51,0,0,0-4.39,3.6A6,6,0,0,1,255.82,65.86Z"/><path d="M244.19,84.29l2.3-11h1.71l-.41,1.92a9.32,9.32,0,0,1,2.08-1.65,4.16,4.16,0,0,1,2-.51,2.94,2.94,0,0,1,2.1.72,2.56,2.56,0,0,1,.77,1.94,10.81,10.81,0,0,1-.27,1.93L253,84.29h-1.87l1.46-7a8.59,8.59,0,0,0,.22-1.5,1.17,1.17,0,0,0-.38-.9,1.63,1.63,0,0,0-1.1-.34,3.7,3.7,0,0,0-2.57,1,6.61,6.61,0,0,0-1.65,3.56l-1.07,5.13Z"/><rect x="256.93" y="184.87" width="10.25" height="0.85"/><path d="M266.86,185.29a5.85,5.85,0,0,1-1.25-3.6,10.69,10.69,0,0,0,4.39,3.6,11.45,11.45,0,0,0-4.39,3.61A6.09,6.09,0,0,1,266.86,185.29Z"/><path d="M239.28,202l2.3-11h1.88l-.38,1.81a7.63,7.63,0,0,1,1.87-1.62,3.79,3.79,0,0,1,1.79-.44,2.7,2.7,0,0,1,1.72.54,2.63,2.63,0,0,1,.91,1.52,6.13,6.13,0,0,1,1.77-1.55,4,4,0,0,1,2-.51,2.89,2.89,0,0,1,2.07.65,2.42,2.42,0,0,1,.69,1.84,10.36,10.36,0,0,1-.23,1.68l-1.49,7.1h-1.88l1.52-7.29a6.74,6.74,0,0,0,.19-1.27,1.11,1.11,0,0,0-.34-.86,1.42,1.42,0,0,0-1-.31,3.43,3.43,0,0,0-1.72.51,3.69,3.69,0,0,0-1.35,1.34,9.18,9.18,0,0,0-.85,2.53L247.62,202h-1.88l1.56-7.44a6.14,6.14,0,0,0,.17-1.08,1.18,1.18,0,0,0-.34-.87,1.17,1.17,0,0,0-.88-.34,3.32,3.32,0,0,0-1.67.51,4,4,0,0,0-1.43,1.42,8.21,8.21,0,0,0-.9,2.59L241.16,202Z"/><path d="M256.89,203l1.9.17a2,2,0,0,0,.16,1,1.15,1.15,0,0,0,.56.5,3.3,3.3,0,0,0,1.32.22,3.05,3.05,0,0,0,2.45-.88,6.83,6.83,0,0,0,.9-2.57l.19-.9a4.38,4.38,0,0,1-3.12,1.49,3.65,3.65,0,0,1-2.8-1.23,5,5,0,0,1-1.12-3.48,6.71,6.71,0,0,1,.89-3.42,6.57,6.57,0,0,1,2.11-2.35,4.56,4.56,0,0,1,2.52-.79,3.65,3.65,0,0,1,3.34,2.05l.38-1.8h1.72l-2.22,10.64a8.93,8.93,0,0,1-1,2.73,4,4,0,0,1-1.64,1.52,5.28,5.28,0,0,1-2.44.54,6.82,6.82,0,0,1-2.29-.34,2.91,2.91,0,0,1-1.43-1,2.58,2.58,0,0,1-.47-1.51A3.75,3.75,0,0,1,256.89,203Zm2.35-5.88a4.88,4.88,0,0,0,.22,1.7,2.58,2.58,0,0,0,.88,1.22,2.13,2.13,0,0,0,1.28.42,3.16,3.16,0,0,0,1.84-.64,4.6,4.6,0,0,0,1.48-2,6.76,6.76,0,0,0,.57-2.6,3,3,0,0,0-.76-2.16,2.43,2.43,0,0,0-1.86-.81,2.7,2.7,0,0,0-1.33.37,4,4,0,0,0-1.2,1.12,5.35,5.35,0,0,0-.84,1.8A6.61,6.61,0,0,0,259.24,197.14Z"/><path d="M187.29,152.33l1.67-8h1l-1,4.94,2.87-2.75h1.3l-2.46,2.16,1.49,3.62H191l-1.15-3-1.19,1-.41,1.93Z"/><line x1="163.86" y1="85.15" x2="163.86" y2="190.45" style="fill:none;stroke:#000;stroke-miterlimit:10"/><line x1="253.13" y1="103.55" x2="291.78" y2="103.55" style="fill:none;stroke:#000;stroke-miterlimit:10;stroke-width:2px"/><polygon points="290.15 91.4 290.15 115.7 302.3 103.55 290.15 91.4"/><path d="M262.35,83.92l1.39-6.66h1.09l.68,4.32a16.13,16.13,0,0,1,.17,1.63,15.09,15.09,0,0,1,.93-1.82l2.33-4.13h1.12l-1.39,6.66h-.88l.7-3.24a25.93,25.93,0,0,1,.69-2.52,15.44,15.44,0,0,1-.71,1.4L266,83.92h-.85l-.67-4.27c-.06-.39-.11-.85-.14-1.37-.07.58-.15,1-.22,1.39l-.88,4.25Z"/><path d="M270.15,82.09a3.4,3.4,0,0,1,.83-2.34,2.31,2.31,0,0,1,1.8-.77,1.91,1.91,0,0,1,1.41.55,2,2,0,0,1,.53,1.47,3.65,3.65,0,0,1-.33,1.55,2.59,2.59,0,0,1-1,1.1,2.49,2.49,0,0,1-1.31.38,2.19,2.19,0,0,1-1-.24,1.67,1.67,0,0,1-.71-.68A2.13,2.13,0,0,1,270.15,82.09ZM271,82a1.45,1.45,0,0,0,.33,1,1.07,1.07,0,0,0,.83.35,1.34,1.34,0,0,0,.52-.1,1.41,1.41,0,0,0,.49-.33,2.67,2.67,0,0,0,.38-.49,3.71,3.71,0,0,0,.25-.61,3,3,0,0,0,.14-.86,1.46,1.46,0,0,0-.33-1,1.08,1.08,0,0,0-.83-.36,1.29,1.29,0,0,0-.7.19,1.81,1.81,0,0,0-.58.53,2.52,2.52,0,0,0-.38.83A3.39,3.39,0,0,0,271,82Z"/><path d="M276.4,83.92l-.79-4.83h.8l.41,2.66c.05.29.11.77.17,1.43.16-.35.36-.74.61-1.18l1.61-2.91h.87l-2.77,4.83Z"/><path d="M279.81,83.92l1-4.83h.82l-1,4.83Zm1.2-5.73.19-.93H282l-.19.93Z"/><path d="M281.9,83.92l1-4.83h.82l-.16.8a3.25,3.25,0,0,1,.82-.71,1.62,1.62,0,0,1,.78-.2,1.16,1.16,0,0,1,.75.24,1.07,1.07,0,0,1,.4.67,2.84,2.84,0,0,1,.78-.68A1.72,1.72,0,0,1,288,79a1.27,1.27,0,0,1,.91.29,1.06,1.06,0,0,1,.3.81,4.1,4.1,0,0,1-.1.73l-.65,3.11h-.82l.66-3.19a2.9,2.9,0,0,0,.09-.56.47.47,0,0,0-.15-.37.62.62,0,0,0-.43-.14,1.51,1.51,0,0,0-.75.23,1.56,1.56,0,0,0-.59.58,4,4,0,0,0-.37,1.11l-.49,2.34h-.82l.68-3.26a2.38,2.38,0,0,0,.07-.47.49.49,0,0,0-.15-.38.5.5,0,0,0-.38-.15,1.48,1.48,0,0,0-.74.23,1.68,1.68,0,0,0-.62.62,3.83,3.83,0,0,0-.4,1.13l-.47,2.28Z"/><path d="M289.63,83.92l1-4.83h.82l-1,4.83Zm1.2-5.73.2-.93h.82l-.2.93Z"/><path d="M295.28,82.28l.8.08a2.42,2.42,0,0,1-.79,1.13,2.2,2.2,0,0,1-1.48.54,2,2,0,0,1-1-.25,1.58,1.58,0,0,1-.68-.72,2.31,2.31,0,0,1-.23-1.07,3.51,3.51,0,0,1,.36-1.54,2.59,2.59,0,0,1,1-1.1,2.29,2.29,0,0,1,1.26-.37,1.84,1.84,0,0,1,1.38.54,2,2,0,0,1,.51,1.46,4.59,4.59,0,0,1-.06.73h-3.55a1.23,1.23,0,0,0,0,.26,1.51,1.51,0,0,0,.31,1,1,1,0,0,0,.76.36,1.43,1.43,0,0,0,.83-.28A1.72,1.72,0,0,0,295.28,82.28Zm-2.39-1.19h2.71V80.9a1.3,1.3,0,0,0-.31-.94,1,1,0,0,0-.79-.33,1.43,1.43,0,0,0-1,.36A2.16,2.16,0,0,0,292.89,81.09Z"/><path d="M296.91,83.92l1-4.83h.75l-.18.84a3.85,3.85,0,0,1,.91-.72,1.82,1.82,0,0,1,.86-.23,1.29,1.29,0,0,1,.92.32,1.12,1.12,0,0,1,.34.85,4.76,4.76,0,0,1-.12.85l-.62,2.92H300l.64-3.06a3.09,3.09,0,0,0,.1-.66.51.51,0,0,0-.17-.39.69.69,0,0,0-.48-.15,1.58,1.58,0,0,0-1.12.46,2.91,2.91,0,0,0-.73,1.56l-.47,2.24Z"/><path d="M304,83.25l-.13.68a2.36,2.36,0,0,1-.58.07,1.21,1.21,0,0,1-.78-.24.61.61,0,0,1-.22-.49,4.78,4.78,0,0,1,.12-.73l.59-2.81h-.65l.13-.64h.65l.25-1.18.94-.57L304,79.09h.81l-.13.64h-.81l-.56,2.67a4.45,4.45,0,0,0-.1.61.29.29,0,0,0,.08.22.43.43,0,0,0,.28.08A1.75,1.75,0,0,0,304,83.25Z"/><path d="M304.82,82.09a3.36,3.36,0,0,1,.84-2.34,2.29,2.29,0,0,1,1.8-.77,1.87,1.87,0,0,1,1.4.55A2,2,0,0,1,309.4,81a3.52,3.52,0,0,1-.34,1.55A2.51,2.51,0,0,1,306.8,84a2.2,2.2,0,0,1-1-.24,1.64,1.64,0,0,1-.7-.68A2,2,0,0,1,304.82,82.09Zm.83-.08a1.49,1.49,0,0,0,.32,1,1.08,1.08,0,0,0,.84.35,1.37,1.37,0,0,0,.52-.1,1.48,1.48,0,0,0,.48-.33,2,2,0,0,0,.38-.49,3,3,0,0,0,.25-.61,2.71,2.71,0,0,0,.14-.86,1.46,1.46,0,0,0-.33-1,1.07,1.07,0,0,0-.83-.36,1.32,1.32,0,0,0-.7.19,1.92,1.92,0,0,0-.58.53,2.51,2.51,0,0,0-.37.83A3.39,3.39,0,0,0,305.65,82Z"/></svg>