<svg id="Capa_1" data-name="Capa 1" xmlns="http://www.w3.org/2000/svg" viewBox="0 0 320.31 212.03"><polygon points="244.01 137.85 243.71 137.41 286.69 108.47 286.77 108.46 309.98 107.39 310 107.92 286.87 108.99 244.01 137.85" style="fill:#3b2c16"/><path d="M307.5,107.79l-.92-.38a1,1,0,0,0-.55-.1,1,1,0,0,0-.52.49,3.56,3.56,0,0,1-.46.78c-.25.21-.63.12-.92.12a15.76,15.76,0,0,0-2.28.12,41.83,41.83,0,0,0-4.13,1.18l-5.25-1.39c-1.08-.13-1.59,2.28-1.21,2.59a21.27,21.27,0,0,0,6.34,1.65c3.21-1.08,6.52-2,9.67-3.22a.29.29,0,0,0,.22-.24l.35-1a.54.54,0,0,0,0-.22C307.85,108,307.67,107.86,307.5,107.79Z" style="fill:#d8b97c"/><path d="M257,142.64l-3.48-.07s-.15.59.89,1,4.3.6,5,.08.07-.89.07-.89Z" style="fill:gray"/><path d="M256.06,138.86s-2.67,3-2.59,3.71,4.45.82,5.56.67.67-1,.67-1-1.19-.67-1.19-1.19a9.92,9.92,0,0,1,1.19-2.37Z" style="fill:#1a1a1a"/><path d="M279.49,142.13l-2.3.51s-.44.89.52,1a8.13,8.13,0,0,0,2.89-.3c.45-.22,1-.29,2.52.15a3.48,3.48,0,0,0,2.9-.74l-.23-.59Z" style="fill:gray"/><path d="M278.9,139.38s-1.78,2.75-1.71,3.26,2.23.52,3,.3a29,29,0,0,1,4.45-.07c1.26,0,1.41-.6,1.41-.6l-.22-.66a8.87,8.87,0,0,1-3-.3,1.18,1.18,0,0,1-.67-1.63Z" style="fill:#1a1a1a"/><path d="M274.38,115.14a109.09,109.09,0,0,0-8.31,11c-2.82,4.6-9.64,11.86-10.53,12.61s2,1,3.34.81,10.75-10.38,11.79-10.82,6.52-5.42,6.52-5.42,8.6,6.31,9.12,6.31-8.52,9.41-8,10.45,3.78.37,4.15.3,9.49-10.24,9.93-11.72-6.82-8.45-6.82-9.41Z" style="fill:#333"/><path d="M268.89,129.45c-.37.22-.74-1.11-.74-1.11a4.34,4.34,0,0,0-.08,1.26c.08.59-.66,1-1.11,1s.3.44.59.3-7.71,7-8.3,7.48a9.93,9.93,0,0,1-2.07,1.21,10.47,10.47,0,0,0,1.7,0c1.33-.15,10.75-10.38,11.79-10.82s6.52-5.42,6.52-5.42l.21.15.16-.59S269.26,129.22,268.89,129.45Z" style="fill:#1a1a1a"/><path d="M287.82,122.2a12.36,12.36,0,0,1-2.25-3l-11.12-4.06a7.32,7.32,0,0,0,0,1.16c.07,1.78,5.12,4.45,4.23,5.19a9.56,9.56,0,0,0-1.51,1.8l0,0s8.6,6.31,9.12,6.31c.32,0-3,3.59-5.47,6.58,2.26-2,5.19-5.32,5.77-5.32.74,0,1.41.51,1.26.14s-2.08-1.48-.07-1.78,4.07-1.48,1.85-.81-3.93.44-3.93-.59,2.52-4.08,1.41-3.56-2.6,3.78-2.45,2.15C284.77,125.45,286.62,123.67,287.82,122.2Z" style="fill:#1a1a1a"/><path d="M298.1,103.2s.67-.44.45-2.45-1.93-1.55-3.41-2.52-.75.15-.75.15a5.94,5.94,0,0,0-2.66.52c-1.93.67-2.15,1-2.15,1.26s.74.08,1.11-.15-1.11,1.34-1.11,2.75.81,2.29.51,3.26,2.67,1,2.67,1Z" style="fill:#1a1a1a"/><path d="M296.32,113.28s1.86-2.52,1.71-3.33-2.82-2.3-2.82-2.3S292,106.24,291,105.8s-3.78-1-4.89.13-1.29,2.15-2.18,2.3-2.69.56-2.76,1.15.34,1-1.07,1.31-4.81,3.41-6.07,4.23,7.11,5.63,8.52,6.22,1.56-1,1.56-1,1,1.4,2,.59,5-3.49,6.38-5.71S295.21,113.06,296.32,113.28Z" style="fill:#ca7330"/><path d="M291.43,107s-.67-1.41-1-1.55-2.74-1.56-4.15-.15.52,4,2.3,4.82l1.78.81Z" style="fill:#ca7330"/><path d="M289.5,110.39a11,11,0,0,0,3,2.23c1.11.29-.37.66-.44,1.26s-2.08-.45-2.08-.45.74,1.11,1.11,1.11-4.37,5-5,5.42-1.63-.52-2.37-1.41-3.78-3.56-3.78-3.56,2.89,3.11,3.33,3.85.23,1.64-.89,1.56a12.58,12.58,0,0,1-2.66-.77c1.28.74,2.38,1.33,2.81,1.51,1.41.6,1.56-1,1.56-1s1,1.4,2,.59,5-3.49,6.38-5.71,2.74-1.93,3.85-1.71c0,0,1.86-2.52,1.71-3.33s-2.82-2.3-2.82-2.3l-1.33,3.93Z" style="fill:#af5d17"/><path d="M307.92,106.25l-1.07-.44a1,1,0,0,0-.66-.12,1.09,1.09,0,0,0-.6.56,4.2,4.2,0,0,1-.54.92c-.29.24-.73.14-1.08.14a21.55,21.55,0,0,0-2.66.14,46.87,46.87,0,0,0-4.84,1.39l-6.15-1.64c-1.26-.14-1.86,2.67-1.41,3a25,25,0,0,0,7.41,1.93c3.76-1.26,7.64-2.32,11.33-3.77a.6.6,0,0,0,.16-.08.51.51,0,0,0,.1-.21l.41-1.21a.73.73,0,0,0,0-.25C308.34,106.44,308.12,106.33,307.92,106.25Z" style="fill:#efd390"/><path d="M291.58,106s1.7,1.78,2.67,1.63a3,3,0,0,0,1.4-.52,11,11,0,0,0,1.64.3c.44,0,.74-1.34.74-1.34s.81,0,.81-.37-.44-1.33-.44-1.7.22-1,0-1.41a3.53,3.53,0,0,0-1.48-1.34c-.3,0-.67.37-.89.3s.51-.22.22.07a21.72,21.72,0,0,1-1.78,1.26l-.45.89-.37.08s.08-1.78-.66-1.78-1,1.78-.38,2.07,0,1.49,0,1.49S291.73,105.43,291.58,106Z" style="fill:#efd390"/><path d="M281.72,139.16a1.78,1.78,0,0,1-1.78.22.92.92,0,0,0,1,.45c.61-.12-.35.39-.62.79a16,16,0,0,0,2.11-.27c.34-.07,8.3-8.92,9.73-11.31C290.13,131,282.36,138.58,281.72,139.16Z" style="fill:#4a4a4a"/><path d="M170.84,127.61s-1.79,6.7-.56,7.83,63.83,1.43,68.64,1.43,5.22-3.68,4.4-6.75S170.84,127.61,170.84,127.61Z" style="fill:#a28051"/><path d="M172.53,118.75s-3.68,11.47-1.94,12.49,65.67.93,68.84.93,5.12.2,4.2-3-3.17-10.55-4.2-11.37-61.68.11-63.72.11S173.15,117.42,172.53,118.75Z" style="fill:#bb9d6c"/><path d="M171.61,92.92v35.56s-.61,2.15,3.28,2.15H238.1A2.52,2.52,0,0,0,241,128V93.54Z" style="fill:#a28051"/><path d="M171.61,95.82c3.83.6,33.46,2.12,49.09,2.12,12.71,0,18.08-.61,20.27-1.18V93.54l-69.36-.62Z" style="fill:#81623c"/><path d="M170.84,86.22s-1.79,6.7-.56,7.83,63.83,1.43,68.64,1.43,5.22-3.68,4.4-6.75S170.84,86.22,170.84,86.22Z" style="fill:#a28051"/><path d="M172.53,77.36s-3.68,11.47-1.94,12.49,65.67.92,68.84.92,5.12.21,4.2-3-3.17-10.55-4.2-11.37-61.68.11-63.72.11S173.15,76,172.53,77.36Z" style="fill:#bb9d6c"/><rect x="165.15" y="135.07" width="81.46" height="4.5" style="fill:#636363"/><path d="M179.34,140.63a3,3,0,1,1-3-3A3,3,0,0,1,179.34,140.63Z" style="fill:#333"/><path d="M176.18,138a3,3,0,0,1,3,3,3.05,3.05,0,0,1-.23,1.14,3,3,0,0,0,.39-1.46,3,3,0,0,0-5.77-1.13A3,3,0,0,1,176.18,138Z" style="fill:#1a1a1a"/><path d="M177.73,140.63a1.39,1.39,0,1,1-1.39-1.38A1.39,1.39,0,0,1,177.73,140.63Z" style="fill:#bb9d6c"/><path d="M176.59,140.63a.25.25,0,1,1-.49,0,.25.25,0,0,1,.49,0Z" style="fill:#fff"/><path d="M176.25,139.5a1.38,1.38,0,0,1,1.38,1.38,1.58,1.58,0,0,1,0,.38,1.46,1.46,0,0,0,.15-.63,1.39,1.39,0,0,0-2.72-.37A1.38,1.38,0,0,1,176.25,139.5Z" style="fill:#a28051"/><path d="M237.81,140.63a3,3,0,1,1-3-3A3,3,0,0,1,237.81,140.63Z" style="fill:#333"/><path d="M234.65,138a3,3,0,0,1,3,3,3.05,3.05,0,0,1-.23,1.14,3,3,0,0,0,.39-1.46A3,3,0,0,0,232,139.5,3,3,0,0,1,234.65,138Z" style="fill:#1a1a1a"/><path d="M236.2,140.63a1.39,1.39,0,1,1-1.39-1.38A1.39,1.39,0,0,1,236.2,140.63Z" style="fill:#bb9d6c"/><path d="M235.06,140.63a.25.25,0,1,1-.49,0,.25.25,0,0,1,.49,0Z" style="fill:#fff"/><path d="M234.72,139.5a1.38,1.38,0,0,1,1.38,1.38,1.58,1.58,0,0,1,0,.38,1.46,1.46,0,0,0,.15-.63,1.39,1.39,0,0,0-2.72-.37A1.38,1.38,0,0,1,234.72,139.5Z" style="fill:#a28051"/><polygon points="51.02 77.39 51.02 135.95 71.95 148.69 71.95 87.06 51.02 77.39" style="fill:#999"/><rect x="71.66" y="86.91" width="67.19" height="61.48" style="fill:#636363"/><polygon points="71.95 87.06 139 87.06 118.07 77.39 51.02 77.39 71.95 87.06" style="fill:#d6d6d6"/><path d="M58.59,97.39a3.44,3.44,0,0,0,1.48-3.28c.54-.76.57-.62.77.26,0,0,.39-2.15.49-2.54s.48-.88.58.2.49,5,.1,6.14-2.44,1.27-2.44,1.27Z" style="fill:#d3b27a"/><path d="M42.43,91.4a1.69,1.69,0,0,1,2,.1c.88.78,1.37,2.14,2.35,2.92s3.8,2.64,3.8,2.64l8.69-1.27a9,9,0,0,1,.49,2.54c0,1.17-.49,1-2.83,1.56s-10.25.88-10.35.59-4.39-6.06-4.39-6.35S42.43,91.4,42.43,91.4Z" style="fill:#004f86"/><path d="M41.26,90l-.88-.78a8,8,0,0,1-1.17-3.12c-.1-1.46-.19-2.34-.19-2.34s.49-2.05,1-2.25,4.88-.88,5.47-1.27,1,.69,1,.69,1,.19,1,1.07-.68,1.17-.68,2S41.26,90,41.26,90Z" style="fill:#1a1a1a"/><path d="M43.12,84l3.41-1.27a6.15,6.15,0,0,1,.59,2.44c0,1.27,1.56,2.25,1.56,2.25s-1.27.78-1.66,1-.29,2.15-1.07,2.54a4.92,4.92,0,0,1-2.35.1l-.29,1.27a21.73,21.73,0,0,1-3.22-1.76c-.1-.29,1-2,1-2a6.59,6.59,0,0,1-.59-2c0-.78,1.46-.78,1.66,0s1.27.49,1.27.49l.1-.78A2.66,2.66,0,0,1,43.12,84Z" style="fill:#edcd8a"/><path d="M47,87.64c-.59-.1-.49.54-.49.54a8.88,8.88,0,0,1-.34,1.8c-.29,1-.93.64-2.1.64a5.47,5.47,0,0,1-2.49-.88l.59.83-.39.93,0,0c.77.39,1.49.73,1.49.73L43.6,91a4.92,4.92,0,0,0,2.35-.1c.78-.39.68-2.34,1.07-2.54s1.66-1,1.66-1C47.7,87.5,47.61,87.74,47,87.64ZM43.41,87c.1,0,1-.73.49-.93s-.49-1.66,0-1.9,2.93-.78,2.88-.1a3.43,3.43,0,0,0,.45,1.51,1.61,1.61,0,0,1-.06-.44,6.15,6.15,0,0,0-.59-2.44L43.12,84a2.66,2.66,0,0,0,.39,2.25Z" style="fill:#d6b776"/><path d="M59.71,98.33A3.45,3.45,0,0,0,61.18,95c.54-.75.58-.62.77.26,0,0,.39-2.14.49-2.53s.49-.88.58.19.49,5,.1,6.15-2.44,1.27-2.44,1.27Z" style="fill:#edcd8a"/><path d="M16.42,140.93l-.43.29a1.13,1.13,0,0,0,.19.83,14.2,14.2,0,0,0,3.9,2.93,8.27,8.27,0,0,0,3-.2v-.93Z" style="fill:gray"/><path d="M20.57,138.63l-1.17,1.22s1.9,2.69,2.68,2.74,1,0,1,.48.05.93.05,1.08a11.52,11.52,0,0,1-3.12.19c-.64-.09-3.76-2.34-4-3.12s1-2.34,1.41-2.73S20.57,138.63,20.57,138.63Z" style="fill:#1a1a1a"/><path d="M36.24,137.27l-.44.29a1.13,1.13,0,0,0,.19.83,14.11,14.11,0,0,0,3.91,2.93,8.24,8.24,0,0,0,3-.2v-.93Z" style="fill:gray"/><path d="M40.38,135l-1.17,1.22s1.91,2.69,2.69,2.74,1,0,1,.48,0,.93,0,1.08a11.52,11.52,0,0,1-3.12.19c-.64-.09-3.76-2.34-4.05-3.12s1-2.34,1.41-2.73S40.38,135,40.38,135Z" style="fill:#1a1a1a"/><path d="M33.19,109.16a40.44,40.44,0,0,0-2.09,4.18c-.87,2.09-14.19,25.42-14.19,25.42a7.2,7.2,0,0,0,3.65.09c2.27-.44,16.2-19.15,16.2-19.15s5.13,4.61,6.44,5.92-7.57,9.92-7.31,10.18a6.43,6.43,0,0,0,4.09.44c1.74-.44,10.45-10.1,11.14-11.58S43,111.6,43,111.6Z" style="fill:#d3b27a"/><path d="M50.78,123.21l-.1.05c-.63.2-.93,2-1.32,1.95s-.24-.92-.53-.58.53.58-.3,1.76-9.61,9.9-10.34,9.9l-.53,0a6.29,6.29,0,0,0,2.32-.08c1.74-.44,10.45-10.1,11.14-11.58C51.24,124.42,51.09,123.9,50.78,123.21Zm-8.69,5.21c.32-.32.6-.61.83-.86,2-2.25,3.56-4,3.27-4.15s-1,.73-1.81.39-4.34-5.42-4.68-6.49,2-2.24,2.78-3.71a2.86,2.86,0,0,0,.44-2l-1.16-.29c-1.32-.08-3.94-.36-6.06-.7a13.24,13.24,0,0,0-3.21-.16c-.29.55-.63,1.23-1,1.94l.12.07c.63.29,5,3.37,4.68,4.64s-6.29,10.24-6.19,9.51.09-1.46-.3-1.46-.05,2.29-1.46,3.85-7.27,9-7.61,9-1.12-.1-1.27.2,1.07.19.19.43a4.41,4.41,0,0,0-1,.44,9.67,9.67,0,0,0,1.88-.17c2.27-.44,16.2-19.15,16.2-19.15s5.13,4.61,6.44,5.92C43.6,126,43,127.1,42.09,128.42Z" style="fill:#b7915b"/><path d="M37.65,92.28s.68-2.93,1.66-2.93,3.12,2.63,4,2.93,1.27,1.56,1.27,1.56S50,98.91,51,98.91s7.22-1.66,8.69-1.66,1.46,3.81,1.46,3.81-7.42,3.32-10.15,3.32-6.44-1.95-6.44-1.95-1.37,7.71-1,8.68-3.22,2.25-3.9,2.93-6.44-1.66-7.51-2.54-.79-4.88-1.08-5.75S35.41,95.11,37.65,92.28Z" style="fill:#005da4"/><path d="M51,104.38c2.73,0,10.15-3.32,10.15-3.32A11.71,11.71,0,0,0,61,99.15a1.72,1.72,0,0,1-.16.93l-.34.59s-.69-1.61-1-2l-.29-.44a11.34,11.34,0,0,1,.54,1.76,8.94,8.94,0,0,1,.09,1.36c-.05.15-5.71,1.18-6.54,1.52s.59-.88.59-.88l-1.76.83a16.24,16.24,0,0,1,.3-1.61c.09-.25-.88.49-.88,1.36s-1.27-.83-1.27-.83-.54.93.63,1.66-4.29-.63-5.66-1.31-2.68-3.13-2.78-3.37-.19.78.1,1.41-2.2-.68-2.49-2.34a6.54,6.54,0,0,1,0-2.78,3.52,3.52,0,0,0-.59,2.39,13.76,13.76,0,0,0,2.05,3.56s-1.41-.44-1.75-1.12L39,98.18a6.37,6.37,0,0,0,.73,2.73,6.82,6.82,0,0,0,2.19,1.61,18.68,18.68,0,0,1-3.36,1.27,9.55,9.55,0,0,1-3.17-.39S37,105,38.53,104.57s4.34-1.26,4.34-1.26A30.5,30.5,0,0,1,38.43,106a6.79,6.79,0,0,1-3.17.19,4.47,4.47,0,0,0,3.42.3,11.25,11.25,0,0,0,4-2.15L41.16,107a14,14,0,0,0,2.1-2.09c.25-.54-1,5.56-.88,5.8s-1.61,1.37-2.19,1.56a22.51,22.51,0,0,1-5.91-.92c-.92-.39,3.81,1.75,5.57,1.56a4.21,4.21,0,0,0,2.73-1.27.37.37,0,0,1,.58.36c.35-.29.55-.58.44-.85-.39-1,1-8.68,1-8.68S48.29,104.38,51,104.38Z" style="fill:#004f86"/><path d="M40.14,102.52a13.34,13.34,0,0,1-2.64-.09,18.59,18.59,0,0,1-2-1s1,1.66,2.44,1.66A3.41,3.41,0,0,0,40.14,102.52Z" style="fill:#004f86"/><path d="M42.43,92.57S41.07,91,40.58,91s-1.22.1-.68.59a28.88,28.88,0,0,0,2.87,1.9,7.77,7.77,0,0,0,1.81.39s.44-.24,0-.44A13.15,13.15,0,0,1,42.43,92.57Z" style="fill:#004f86"/><path d="M67.7,62.92l1.8-8.59h6.2l-.2,1h-5L69.88,58h4.93l-.21,1H69.68l-.62,3h5.41l-.21,1Z" style="fill:#965b0c"/><path d="M75.56,62.92l1.3-6.23h1.06l-.21,1a4,4,0,0,1,1.05-.91,2.08,2.08,0,0,1,1-.26,1.54,1.54,0,0,1,1,.31,1.46,1.46,0,0,1,.52.86,3.52,3.52,0,0,1,1-.88,2.26,2.26,0,0,1,1.1-.29,1.67,1.67,0,0,1,1.17.37,1.36,1.36,0,0,1,.39,1,5.61,5.61,0,0,1-.14.95l-.83,4H82.89l.85-4.12a3.29,3.29,0,0,0,.11-.72.62.62,0,0,0-.19-.48.82.82,0,0,0-.55-.17,1.91,1.91,0,0,0-1,.28,2.16,2.16,0,0,0-.77.76,4.83,4.83,0,0,0-.47,1.43l-.64,3H79.21l.88-4.2a3.84,3.84,0,0,0,.1-.61.65.65,0,0,0-.69-.68,1.91,1.91,0,0,0-1,.28,2.27,2.27,0,0,0-.8.8A4.69,4.69,0,0,0,77.24,60l-.62,2.94Z" style="fill:#965b0c"/><path d="M85,65.3l1.8-8.61h1l-.18.87a4,4,0,0,1,1-.79,2.07,2.07,0,0,1,.91-.22A1.91,1.91,0,0,1,91,57.2a2.68,2.68,0,0,1,.59,1.86,4.84,4.84,0,0,1-.32,1.77,3.89,3.89,0,0,1-.8,1.28,3.06,3.06,0,0,1-1,.72,2.27,2.27,0,0,1-1,.23,1.89,1.89,0,0,1-1.73-1.14L86.1,65.3Zm2.1-4.93a3.06,3.06,0,0,0,.1,1,1.39,1.39,0,0,0,.48.62,1.34,1.34,0,0,0,.77.23,1.66,1.66,0,0,0,1.48-1,4.24,4.24,0,0,0,.56-2.1,1.75,1.75,0,0,0-.38-1.22,1.18,1.18,0,0,0-.94-.43,1.42,1.42,0,0,0-.75.21,2.43,2.43,0,0,0-.64.64,4,4,0,0,0-.49,1A3.61,3.61,0,0,0,87.14,60.37Z" style="fill:#965b0c"/><path d="M96.49,61.79a3.13,3.13,0,0,1-2.3,1.27A1.62,1.62,0,0,1,93,62.64a1.33,1.33,0,0,1-.44-1,7.91,7.91,0,0,1,.2-1.34l.75-3.6H94.6l-.83,4a4.08,4.08,0,0,0-.11.78.67.67,0,0,0,.22.54.9.9,0,0,0,.63.2,1.87,1.87,0,0,0,.87-.22,2.4,2.4,0,0,0,.73-.58,3.26,3.26,0,0,0,.5-.88,9.47,9.47,0,0,0,.3-1.13l.56-2.69h1.06l-1.3,6.23h-1Z" style="fill:#965b0c"/><path d="M97.06,65.25l.19-.9a2.28,2.28,0,0,0,.64.1.67.67,0,0,0,.54-.22A3.19,3.19,0,0,0,98.85,63l1.31-6.29h1.06l-1.35,6.48a4.5,4.5,0,0,1-.58,1.65,1.44,1.44,0,0,1-1.22.59A3.8,3.8,0,0,1,97.06,65.25Zm3.36-9.72.25-1.2h1l-.25,1.2Z" style="fill:#965b0c"/><path d="M101.77,60.56a4.31,4.31,0,0,1,1.07-3,3,3,0,0,1,2.32-1,2.42,2.42,0,0,1,1.81.71,2.59,2.59,0,0,1,.69,1.9,4.59,4.59,0,0,1-.43,2,3.24,3.24,0,0,1-2.92,1.91,2.86,2.86,0,0,1-1.32-.31,2.15,2.15,0,0,1-.91-.88A2.67,2.67,0,0,1,101.77,60.56Zm1.06-.11a1.88,1.88,0,0,0,.42,1.33,1.38,1.38,0,0,0,1.07.46,1.75,1.75,0,0,0,.67-.14,1.8,1.8,0,0,0,.62-.42,2.54,2.54,0,0,0,.49-.64,3.39,3.39,0,0,0,.33-.78,3.73,3.73,0,0,0,.18-1.11,1.89,1.89,0,0,0-.42-1.31,1.4,1.4,0,0,0-1.07-.47,1.74,1.74,0,0,0-.91.24,2.43,2.43,0,0,0-.74.7,3,3,0,0,0-.49,1.06A4.5,4.5,0,0,0,102.83,60.45Zm1.49-4.51,1.1-1.61h1.34l-1.56,1.61Z" style="fill:#965b0c"/><path d="M108.25,62.92l1.3-6.23h1l-.23,1.09a4.76,4.76,0,0,1,1.18-.93,2.26,2.26,0,0,1,1.11-.3,1.69,1.69,0,0,1,1.19.41,1.48,1.48,0,0,1,.43,1.1,5.61,5.61,0,0,1-.16,1.09l-.79,3.77h-1.06l.83-4a4.53,4.53,0,0,0,.12-.85.66.66,0,0,0-.21-.5.89.89,0,0,0-.62-.19,2.07,2.07,0,0,0-1.45.58,3.7,3.7,0,0,0-.93,2l-.61,2.9Z" style="fill:#965b0c"/><path d="M185.89,62.92l1.59-7.61h-2.82l.21-1h6.76l-.21,1h-2.79L187,62.92Z" style="fill:#965b0c"/><path d="M190.75,62.92l1.3-6.23h1.06l-1.3,6.23Zm1.54-7.39.26-1.2h1l-.25,1.2Z" style="fill:#965b0c"/><path d="M193.46,62.92l1.3-6.23h.93L195.43,58a4.28,4.28,0,0,1,.94-1.07,1.57,1.57,0,0,1,.94-.35,1.9,1.9,0,0,1,.78.23l-.43,1a1,1,0,0,0-.61-.2,1.61,1.61,0,0,0-1.14.62,4.69,4.69,0,0,0-.92,2.23l-.53,2.5Z" style="fill:#965b0c"/><path d="M197.64,60.56a4.36,4.36,0,0,1,1.07-3,3,3,0,0,1,2.32-1,2.42,2.42,0,0,1,1.81.71,2.59,2.59,0,0,1,.69,1.9,4.59,4.59,0,0,1-.43,2,3.24,3.24,0,0,1-1.23,1.42,3.27,3.27,0,0,1-1.69.49,2.92,2.92,0,0,1-1.32-.31,2.15,2.15,0,0,1-.91-.88A2.67,2.67,0,0,1,197.64,60.56Zm1.06-.11a1.88,1.88,0,0,0,.42,1.33,1.38,1.38,0,0,0,1.07.46,1.84,1.84,0,0,0,.68-.14,1.89,1.89,0,0,0,.62-.42A3.1,3.1,0,0,0,202,61a3.87,3.87,0,0,0,.32-.78,3.73,3.73,0,0,0,.18-1.11,1.89,1.89,0,0,0-.42-1.31,1.39,1.39,0,0,0-1.07-.47,1.79,1.79,0,0,0-.91.24,2.43,2.43,0,0,0-.74.7,3.14,3.14,0,0,0-.49,1.06A4.5,4.5,0,0,0,198.7,60.45Zm1.49-4.51,1.1-1.61h1.34l-1.56,1.61Z" style="fill:#965b0c"/><path d="M204.12,62.92l1.31-6.23h1l-.23,1.09a4.93,4.93,0,0,1,1.17-.93,2.26,2.26,0,0,1,1.11-.3,1.67,1.67,0,0,1,1.19.41,1.45,1.45,0,0,1,.43,1.1,6.26,6.26,0,0,1-.15,1.09l-.79,3.77h-1.06l.82-4a4.76,4.76,0,0,0,.13-.85.67.67,0,0,0-.22-.5.89.89,0,0,0-.62-.19,2.09,2.09,0,0,0-1.45.58,3.77,3.77,0,0,0-.93,2l-.6,2.9Z" style="fill:#965b0c"/><polygon points="77 155.4 122.3 155.4 122.3 158.29 128 155 122.3 151.71 122.3 154.6 77 154.6 77 155.4" style="fill:#1b1b1b"/><polygon points="184 153.4 229.3 153.4 229.3 156.29 235 153 229.3 149.71 229.3 152.6 184 152.6 184 153.4" style="fill:#1b1b1b"/><polygon points="86.33 164.15 92.88 164.15 92.88 165.22 95 164 92.88 162.78 92.88 163.85 86.33 163.85 86.33 164.15" style="fill:#006098"/><path d="M85.39,175.07l1.79-8.59h5.59l-.21,1H88.13l-.57,2.74h4.52l-.21,1H87.35l-.81,3.9Z" style="fill:#006098"/><polygon points="229.33 164.15 235.88 164.15 235.88 165.22 238 164 235.88 162.78 235.88 163.85 229.33 163.85 229.33 164.15" style="fill:#006098"/><path d="M228.39,175.07l1.79-8.59h5.59l-.21,1h-4.43l-.57,2.74h4.52l-.21,1h-4.52l-.81,3.9Z" style="fill:#006098"/><path d="M96.84,171.87a4.82,4.82,0,0,1-.45-2,4.47,4.47,0,0,1,.18-1.29,4.86,4.86,0,0,1,.56-1.18,8.86,8.86,0,0,1,.78-1h.4a5.84,5.84,0,0,0-.7,1,5.32,5.32,0,0,0-.54,1.28,4.5,4.5,0,0,0-.17,1.26,6.33,6.33,0,0,0,.33,2Z" style="fill:#006098"/><path d="M98.11,170.64l.88-4.19h2.72l-.1.48H99.45l-.28,1.33h2.2l-.1.48h-2.2l-.4,1.9Z" style="fill:#006098"/><path d="M103.68,170.09a1.52,1.52,0,0,1-1.11.62.77.77,0,0,1-.57-.21.64.64,0,0,1-.21-.49,4,4,0,0,1,.09-.65l.37-1.76h.51l-.4,1.94a1.64,1.64,0,0,0,0,.38.35.35,0,0,0,.1.27.46.46,0,0,0,.31.09.92.92,0,0,0,.42-.1,1.12,1.12,0,0,0,.36-.29,1.44,1.44,0,0,0,.24-.42,3.5,3.5,0,0,0,.15-.55l.27-1.32h.52l-.63,3h-.48Z" style="fill:#006098"/><path d="M107.09,169.61l.51,0a1.53,1.53,0,0,1-.5.71,1.4,1.4,0,0,1-.93.34,1.3,1.3,0,0,1-.62-.16,1,1,0,0,1-.43-.45,1.51,1.51,0,0,1-.14-.68,2.06,2.06,0,0,1,.23-1,1.65,1.65,0,0,1,.59-.7,1.47,1.47,0,0,1,.79-.22,1.18,1.18,0,0,1,.87.33,1.26,1.26,0,0,1,.32.92,2.45,2.45,0,0,1,0,.46h-2.23a.92.92,0,0,0,0,.16,1,1,0,0,0,.19.65.61.61,0,0,0,.48.22.87.87,0,0,0,.52-.17A1.05,1.05,0,0,0,107.09,169.61Zm-1.5-.75h1.7a.68.68,0,0,0,0-.12.81.81,0,0,0-.2-.59.64.64,0,0,0-.5-.21.87.87,0,0,0-.6.23A1.37,1.37,0,0,0,105.59,168.86Z" style="fill:#006098"/><path d="M108.12,170.64l.63-3h.46l-.13.62a2.45,2.45,0,0,1,.46-.52.76.76,0,0,1,.46-.16.83.83,0,0,1,.38.11l-.21.48a.47.47,0,0,0-.3-.1.79.79,0,0,0-.55.3,2.34,2.34,0,0,0-.45,1.09l-.26,1.22Z" style="fill:#006098"/><path d="M110,170.64l.08-.4,1.63-1.84.39-.4-.53,0h-1.13l.1-.44h2.34l-.07.33-1.64,1.85-.42.43.59,0h1.19l-.09.46Z" style="fill:#006098"/><path d="M115,170.26a1.85,1.85,0,0,1-.52.34,1.32,1.32,0,0,1-.53.11,1,1,0,0,1-.68-.25.85.85,0,0,1-.25-.63.84.84,0,0,1,.11-.45,1,1,0,0,1,.31-.32,1.44,1.44,0,0,1,.47-.17,5.16,5.16,0,0,1,.66,0,2.49,2.49,0,0,0,.7-.1,1.41,1.41,0,0,0,.06-.36.36.36,0,0,0-.13-.28.88.88,0,0,0-.53-.14.92.92,0,0,0-.53.14.83.83,0,0,0-.3.41l-.53,0a1.4,1.4,0,0,1,.51-.69,1.5,1.5,0,0,1,.88-.24,1.37,1.37,0,0,1,.89.26.67.67,0,0,1,.25.52,3.26,3.26,0,0,1-.07.57l-.17.75a2.47,2.47,0,0,0-.08.59,2.1,2.1,0,0,0,.06.41h-.52A1.78,1.78,0,0,1,115,170.26Zm.19-1.16-.23.07-.42,0a3.51,3.51,0,0,0-.64.11.56.56,0,0,0-.28.19.53.53,0,0,0-.09.3.49.49,0,0,0,.15.36.62.62,0,0,0,.43.14,1,1,0,0,0,.49-.14,1.06,1.06,0,0,0,.38-.38A2.17,2.17,0,0,0,115.23,169.1Z" style="fill:#006098"/><path d="M117.21,166.38a4.79,4.79,0,0,1,.45,2,4.35,4.35,0,0,1-.18,1.28,4.65,4.65,0,0,1-.55,1.18,9.4,9.4,0,0,1-.79,1h-.4a6,6,0,0,0,.71-1,5.26,5.26,0,0,0,.54-1.27,5,5,0,0,0,.16-1.26,6.52,6.52,0,0,0-.32-2Z" style="fill:#006098"/></svg>