<svg id="Capa_1" data-name="Capa 1" xmlns="http://www.w3.org/2000/svg" viewBox="0 0 547.56 276.72"><line x1="14.04" y1="268.17" x2="219.98" y2="268.67" style="fill:none;stroke:#5b5b5b;stroke-miterlimit:10;stroke-width:4px"/><path d="M151.78,2.24c-2.52-.19-20.62-1.1-29.48,12.61L147.45,40h8.65l25.16-25.16C172.39,1.14,154.3,2.05,151.78,2.24Z" style="fill:#61c5ff"/><rect x="69.53" y="33.08" width="165.98" height="7.52" style="fill:#7c7c7c;stroke:#5b5b5b;stroke-miterlimit:10"/><path d="M157.86,31.71l-5.53-23-6.24,24.48,0,0A7.44,7.44,0,1,0,160,36.89,7.39,7.39,0,0,0,157.86,31.71Z" style="fill:#7c7c7c;stroke:#5b5b5b;stroke-miterlimit:10"/><ellipse cx="78.14" cy="212.75" rx="67.76" ry="58.44" style="fill:#006098;stroke:#61c5ff;stroke-miterlimit:10"/><ellipse cx="75.14" cy="135.42" rx="15.09" ry="13.02" style="fill:#006098;stroke:#61c5ff;stroke-miterlimit:10"/><circle cx="152.29" cy="36.12" r="4.28" style="fill:#fff"/><polyline points="229.99 39.98 229.99 62.59 243.1 75.7 243.1 106.3" style="fill:none;stroke:#000102;stroke-miterlimit:10"/><rect x="205.57" y="106" width="41.6" height="5.43" rx="2.71" style="fill:#fff;stroke:#000;stroke-miterlimit:10"/><line x1="76.6" y1="40.63" x2="76.6" y2="122.4" style="fill:none;stroke:#000102;stroke-miterlimit:10"/><rect x="214.73" y="94.03" width="11.03" height="12.48" style="fill:#7c7c7c;stroke:#5b5b5b;stroke-miterlimit:10"/><circle cx="220.09" cy="92.56" r="2.78" style="fill:#7c7c7c;stroke:#5b5b5b;stroke-miterlimit:10"/><rect x="229.61" y="96.52" width="8.83" height="9.99" style="fill:#7c7c7c;stroke:#5b5b5b;stroke-miterlimit:10"/><circle cx="233.89" cy="95.34" r="2.22" style="fill:#7c7c7c;stroke:#5b5b5b;stroke-miterlimit:10"/><line x1="80.14" y1="135.53" x2="168.46" y2="135.53" style="fill:none;stroke:#00080c;stroke-linecap:round;stroke-miterlimit:10;stroke-width:0.75px;stroke-dasharray:3"/><line x1="80.68" y1="211.7" x2="166.63" y2="211.7" style="fill:none;stroke:#00080c;stroke-linecap:round;stroke-miterlimit:10;stroke-width:0.75px;stroke-dasharray:3"/><line x1="168.05" y1="141.68" x2="168.05" y2="156.07" style="fill:none;stroke:#00080c;stroke-linecap:round;stroke-miterlimit:10;stroke-width:0.75px;stroke-dasharray:3,3"/><polygon points="165.28 143.78 168.05 142.6 170.83 143.78 168.05 137.2 165.28 143.78" style="fill:#00080c"/><line x1="167.4" y1="207.55" x2="167.4" y2="185.35" style="fill:none;stroke:#00080c;stroke-linecap:round;stroke-miterlimit:10;stroke-width:0.75px;stroke-dasharray:3,3"/><polygon points="170.18 205.44 167.4 206.62 164.63 205.44 167.4 212.03 170.18 205.44" style="fill:#00080c"/><path d="M168.69,177.25a3.9,3.9,0,0,1-2.88,1.58,2.89,2.89,0,0,1-2.24-1,4.19,4.19,0,0,1-.89-2.88,6.88,6.88,0,0,1,.71-3.15,5.38,5.38,0,0,1,1.77-2.14,3.79,3.79,0,0,1,2.12-.71,2.86,2.86,0,0,1,2.66,1.7l1.07-5.08h1.6l-2.72,13H168.4Zm-4.41-2.59a5,5,0,0,0,.19,1.56,2.17,2.17,0,0,0,.67.94,1.72,1.72,0,0,0,1.13.38,2.51,2.51,0,0,0,2-1.14,5.81,5.81,0,0,0,1.2-3.73,2.47,2.47,0,0,0-.59-1.75,1.94,1.94,0,0,0-1.48-.63,2.2,2.2,0,0,0-1,.25,3.17,3.17,0,0,0-.94.88,5.35,5.35,0,0,0-.79,1.57A5.41,5.41,0,0,0,164.28,174.66Z"/><path d="M112.87,128l2.36-11.3h1.93l-.4,1.86a7.82,7.82,0,0,1,1.93-1.66,3.82,3.82,0,0,1,1.83-.46,2.77,2.77,0,0,1,1.76.56,2.61,2.61,0,0,1,.93,1.56,6.3,6.3,0,0,1,1.82-1.59,4.08,4.08,0,0,1,2-.53,3,3,0,0,1,2.12.68,2.46,2.46,0,0,1,.71,1.88,10.34,10.34,0,0,1-.25,1.72L128.1,128h-1.93l1.56-7.47a7.29,7.29,0,0,0,.2-1.31,1.12,1.12,0,0,0-.35-.87,1.45,1.45,0,0,0-1-.32,3.46,3.46,0,0,0-1.76.52,3.88,3.88,0,0,0-1.39,1.37,8.87,8.87,0,0,0-.86,2.6L121.43,128H119.5l1.6-7.63a6.23,6.23,0,0,0,.17-1.11A1.18,1.18,0,0,0,120,118a3.43,3.43,0,0,0-1.72.52,4.08,4.08,0,0,0-1.46,1.46,8.48,8.48,0,0,0-.93,2.65L114.8,128Z"/><path d="M133.12,128.57l1.35-6.43a6.91,6.91,0,0,1-2.45,1.1l.2-1a8.19,8.19,0,0,0,1.54-.82,7.29,7.29,0,0,0,1.15-.88,2.87,2.87,0,0,0,.44-.56H136l-1.78,8.55Z"/><circle cx="77.07" cy="214.08" r="6.93" style="fill:#61c5ff"/><circle cx="74.88" cy="135.3" r="4.38" style="fill:#61c5ff"/><path d="M257.15,151.44l2-9.68h1.59l1,6.28a22.76,22.76,0,0,1,.25,2.37,24.82,24.82,0,0,1,1.35-2.65l3.39-6h1.62l-2,9.68h-1.28l1-4.71c.24-1.08.57-2.3,1-3.65-.28.63-.62,1.3-1,2l-3.61,6.33h-1.24l-1-6.2a19.32,19.32,0,0,1-.2-2c-.11.85-.21,1.52-.32,2l-1.29,6.17Z"/><path d="M273.42,149.06l1.16.12a3.56,3.56,0,0,1-1.15,1.64,3.18,3.18,0,0,1-2.15.78,2.89,2.89,0,0,1-1.43-.36,2.4,2.4,0,0,1-1-1.05,3.41,3.41,0,0,1-.34-1.56,5,5,0,0,1,.53-2.23,3.78,3.78,0,0,1,1.38-1.6,3.39,3.39,0,0,1,1.83-.53,2.65,2.65,0,0,1,2,.78,2.94,2.94,0,0,1,.75,2.13,6.38,6.38,0,0,1-.09,1h-5.16a2.62,2.62,0,0,0,0,.37,2.2,2.2,0,0,0,.45,1.5,1.4,1.4,0,0,0,1.11.52,2.08,2.08,0,0,0,1.2-.4A2.64,2.64,0,0,0,273.42,149.06ZM270,147.32h3.93c0-.12,0-.21,0-.26a1.94,1.94,0,0,0-.45-1.38,1.52,1.52,0,0,0-1.16-.48,2.12,2.12,0,0,0-1.39.53A3.1,3.1,0,0,0,270,147.32Zm1.65-3.74,1.24-1.82h1.5l-1.75,1.82Z"/><path d="M278.58,150.47l-.2,1a3.44,3.44,0,0,1-.83.11,1.73,1.73,0,0,1-1.13-.35.88.88,0,0,1-.32-.72,7.79,7.79,0,0,1,.17-1.06l.85-4.07h-.94l.19-.93h.94l.37-1.72,1.36-.83-.53,2.55h1.17l-.2.93h-1.16l-.82,3.87a7.47,7.47,0,0,0-.15.88.43.43,0,0,0,.12.33.64.64,0,0,0,.4.11A3,3,0,0,0,278.58,150.47Z"/><path d="M279.76,148.78a4.92,4.92,0,0,1,1.2-3.4,3.36,3.36,0,0,1,2.62-1.11,2.77,2.77,0,0,1,2,.79,2.93,2.93,0,0,1,.78,2.14,5.29,5.29,0,0,1-.49,2.25,3.61,3.61,0,0,1-1.39,1.59,3.5,3.5,0,0,1-1.9.56,3.21,3.21,0,0,1-1.49-.35,2.33,2.33,0,0,1-1-1A3,3,0,0,1,279.76,148.78Zm1.19-.12a2.11,2.11,0,0,0,.48,1.5,1.56,1.56,0,0,0,1.2.52,2,2,0,0,0,.76-.16,2.11,2.11,0,0,0,.7-.47,3,3,0,0,0,.55-.72,4.65,4.65,0,0,0,.57-2.13,2.15,2.15,0,0,0-.47-1.48,1.57,1.57,0,0,0-1.21-.52,2.09,2.09,0,0,0-1,.26,2.71,2.71,0,0,0-.84.79,3.32,3.32,0,0,0-.54,1.19A4.93,4.93,0,0,0,281,148.66Z"/><path d="M291.79,150.42a2.87,2.87,0,0,1-2.14,1.18,2.15,2.15,0,0,1-1.66-.74,3.09,3.09,0,0,1-.66-2.13,5.19,5.19,0,0,1,.52-2.34,3.92,3.92,0,0,1,1.32-1.59,2.82,2.82,0,0,1,1.58-.53,2.13,2.13,0,0,1,2,1.26l.79-3.77h1.19l-2,9.68h-1.1Zm-3.28-1.92a3.58,3.58,0,0,0,.15,1.16,1.57,1.57,0,0,0,.49.7,1.31,1.31,0,0,0,.84.28,1.89,1.89,0,0,0,1.48-.84,4.39,4.39,0,0,0,.88-2.77,1.87,1.87,0,0,0-.44-1.31,1.42,1.42,0,0,0-1.09-.46,1.55,1.55,0,0,0-.78.19,2.2,2.2,0,0,0-.7.65,4.06,4.06,0,0,0-.59,1.16A4,4,0,0,0,288.51,148.5Z"/><path d="M294.79,148.78a4.88,4.88,0,0,1,1.21-3.4,3.34,3.34,0,0,1,2.61-1.11,2.77,2.77,0,0,1,2.05.79,3,3,0,0,1,.77,2.14,5.14,5.14,0,0,1-.49,2.25,3.67,3.67,0,0,1-3.28,2.15,3.21,3.21,0,0,1-1.49-.35,2.33,2.33,0,0,1-1-1A3,3,0,0,1,294.79,148.78Zm1.2-.12a2.16,2.16,0,0,0,.47,1.5,1.59,1.59,0,0,0,1.21.52,2,2,0,0,0,.76-.16,2.21,2.21,0,0,0,.7-.47,3.27,3.27,0,0,0,.55-.72,5.27,5.27,0,0,0,.37-.88,4.34,4.34,0,0,0,.2-1.25,2.11,2.11,0,0,0-.48-1.48,1.55,1.55,0,0,0-1.2-.52,2,2,0,0,0-1,.26,2.71,2.71,0,0,0-.84.79,3.52,3.52,0,0,0-.55,1.19A5.38,5.38,0,0,0,296,148.66Z"/><path d="M310.58,150.42a2.86,2.86,0,0,1-2.14,1.18,2.15,2.15,0,0,1-1.66-.74,3.09,3.09,0,0,1-.66-2.13,5.19,5.19,0,0,1,.52-2.34A3.92,3.92,0,0,1,308,144.8a2.82,2.82,0,0,1,1.58-.53,2.12,2.12,0,0,1,2,1.26l.79-3.77h1.19l-2,9.68h-1.1Zm-3.27-1.92a3.93,3.93,0,0,0,.14,1.16,1.59,1.59,0,0,0,.5.7,1.27,1.27,0,0,0,.84.28,1.87,1.87,0,0,0,1.47-.84,4.33,4.33,0,0,0,.88-2.77,1.86,1.86,0,0,0-.43-1.31,1.44,1.44,0,0,0-1.1-.46,1.58,1.58,0,0,0-.78.19,2.2,2.2,0,0,0-.7.65,3.81,3.81,0,0,0-.58,1.16A4,4,0,0,0,307.31,148.5Z"/><path d="M318.52,149.06l1.16.12a3.49,3.49,0,0,1-1.15,1.64,3.16,3.16,0,0,1-2.15.78,2.86,2.86,0,0,1-1.42-.36,2.29,2.29,0,0,1-1-1.05,3.41,3.41,0,0,1-.34-1.56,4.91,4.91,0,0,1,.53-2.23,3.76,3.76,0,0,1,1.37-1.6,3.44,3.44,0,0,1,1.83-.53,2.62,2.62,0,0,1,2,.78,2.94,2.94,0,0,1,.75,2.13,6.38,6.38,0,0,1-.09,1h-5.16a2.62,2.62,0,0,0,0,.37,2.16,2.16,0,0,0,.46,1.5,1.4,1.4,0,0,0,1.1.52,2.13,2.13,0,0,0,1.21-.4A2.69,2.69,0,0,0,318.52,149.06Zm-3.47-1.74H319c0-.12,0-.21,0-.26a1.94,1.94,0,0,0-.45-1.38,1.5,1.5,0,0,0-1.15-.48,2.15,2.15,0,0,0-1.4.53A3.17,3.17,0,0,0,315.05,147.32Z"/><path d="M324.75,148.62l1.2-.08a5.15,5.15,0,0,0-.11.82,1.12,1.12,0,0,0,.34.86,1.29,1.29,0,0,0,.92.32,1.46,1.46,0,0,0,.76-.2,1.36,1.36,0,0,0,.53-.6,5.22,5.22,0,0,0,.33-1.12l1.43-6.86h1.29L330,148.83a3.81,3.81,0,0,1-1,2.14,2.72,2.72,0,0,1-1.85.64,2.64,2.64,0,0,1-1.82-.56,2,2,0,0,1-.61-1.56A3.69,3.69,0,0,1,324.75,148.62Z"/><path d="M331.62,148.78a4.88,4.88,0,0,1,1.21-3.4,3.33,3.33,0,0,1,2.61-1.11,2.73,2.73,0,0,1,2,.79,2.93,2.93,0,0,1,.78,2.14,5.14,5.14,0,0,1-.49,2.25,3.55,3.55,0,0,1-1.39,1.59,3.47,3.47,0,0,1-1.9.56,3.17,3.17,0,0,1-1.48-.35,2.4,2.4,0,0,1-1-1A3.08,3.08,0,0,1,331.62,148.78Zm1.19-.12a2.11,2.11,0,0,0,.48,1.5,1.59,1.59,0,0,0,1.21.52,2.07,2.07,0,0,0,.76-.16,2.21,2.21,0,0,0,.7-.47,3.27,3.27,0,0,0,.55-.72,4.52,4.52,0,0,0,.36-.88,4,4,0,0,0,.21-1.25,2.11,2.11,0,0,0-.48-1.48,1.56,1.56,0,0,0-1.21-.52,2.09,2.09,0,0,0-1,.26,2.69,2.69,0,0,0-.83.79,3.52,3.52,0,0,0-.55,1.19A4.93,4.93,0,0,0,332.81,148.66Z"/><path d="M338.83,151.44l2-9.68h1.2l-2,9.68Z"/><path d="M341.84,151.44l2-9.68h1.19l-2,9.68Z"/><path d="M344.49,154.15l.07-1.12a2.55,2.55,0,0,0,.72.1,1,1,0,0,0,.59-.16,2.9,2.9,0,0,0,.63-.82l.38-.69-1.17-7h1.18l.53,3.55q.15,1.05.27,2.1l3.13-5.65h1.25l-4.47,7.94a4.9,4.9,0,0,1-1.15,1.54,1.87,1.87,0,0,1-1.15.38A2.46,2.46,0,0,1,344.49,154.15Z"/><path d="M354.86,154.13l2-9.7H358l-.2,1a4.15,4.15,0,0,1,1.1-.89,2.14,2.14,0,0,1,1-.25,2.18,2.18,0,0,1,1.67.73,3,3,0,0,1,.66,2.09,5.16,5.16,0,0,1-.37,2,4.53,4.53,0,0,1-.89,1.45,3.78,3.78,0,0,1-1.07.8,2.58,2.58,0,0,1-1.11.26,2.14,2.14,0,0,1-1.95-1.28l-.79,3.81Zm2.37-5.55a3.48,3.48,0,0,0,.11,1.09,1.52,1.52,0,0,0,.54.69,1.44,1.44,0,0,0,.87.26,1.86,1.86,0,0,0,1.66-1.16,4.79,4.79,0,0,0,.64-2.36,2,2,0,0,0-.43-1.38,1.34,1.34,0,0,0-1.06-.48,1.57,1.57,0,0,0-.84.24,2.46,2.46,0,0,0-.72.72,4.61,4.61,0,0,0-.77,2.38Z"/><path d="M367.7,150.57a4.68,4.68,0,0,1-1.2.78,3,3,0,0,1-1.23.25,2.16,2.16,0,0,1-1.56-.57,1.93,1.93,0,0,1-.6-1.46,2,2,0,0,1,.27-1,2.16,2.16,0,0,1,.71-.73,3.28,3.28,0,0,1,1.08-.39,12.29,12.29,0,0,1,1.53-.13,5.42,5.42,0,0,0,1.62-.24,3.05,3.05,0,0,0,.13-.81.79.79,0,0,0-.3-.65,1.92,1.92,0,0,0-1.21-.33,2.08,2.08,0,0,0-1.23.33,1.85,1.85,0,0,0-.7.95l-1.21-.11a3.2,3.2,0,0,1,1.17-1.59,3.5,3.5,0,0,1,2-.56,3.15,3.15,0,0,1,2.05.62,1.47,1.47,0,0,1,.59,1.2,6,6,0,0,1-.17,1.3l-.39,1.75a6.61,6.61,0,0,0-.18,1.35,4.22,4.22,0,0,0,.14.95h-1.21A4.47,4.47,0,0,1,367.7,150.57Zm.44-2.68a2.39,2.39,0,0,1-.54.15c-.19,0-.51.07-1,.11a7.3,7.3,0,0,0-1.47.24,1.2,1.2,0,0,0-.65.45,1.16,1.16,0,0,0-.22.69,1.07,1.07,0,0,0,.35.82,1.38,1.38,0,0,0,1,.33,2.29,2.29,0,0,0,1.14-.32,2.32,2.32,0,0,0,.86-.87A5.21,5.21,0,0,0,368.14,147.89Z"/><path d="M370.49,151.44l1.46-7H373l-.3,1.43a5,5,0,0,1,1.06-1.2,1.76,1.76,0,0,1,1.06-.39,2.12,2.12,0,0,1,.88.26l-.49,1.11a1.14,1.14,0,0,0-.68-.23,1.87,1.87,0,0,0-1.29.7,5.36,5.36,0,0,0-1,2.52l-.6,2.81Z"/><path d="M379.72,150.57a4.68,4.68,0,0,1-1.2.78,3,3,0,0,1-1.23.25,2.16,2.16,0,0,1-1.56-.57,1.93,1.93,0,0,1-.6-1.46,2,2,0,0,1,.27-1,2.16,2.16,0,0,1,.71-.73,3.28,3.28,0,0,1,1.08-.39,12.29,12.29,0,0,1,1.53-.13,5.42,5.42,0,0,0,1.62-.24,3.05,3.05,0,0,0,.13-.81.79.79,0,0,0-.3-.65,1.92,1.92,0,0,0-1.21-.33,2.08,2.08,0,0,0-1.23.33,1.85,1.85,0,0,0-.7.95l-1.21-.11a3.2,3.2,0,0,1,1.17-1.59,3.5,3.5,0,0,1,2-.56,3.2,3.2,0,0,1,2.06.62,1.49,1.49,0,0,1,.58,1.2,6,6,0,0,1-.17,1.3l-.39,1.75a6.61,6.61,0,0,0-.18,1.35,4.9,4.9,0,0,0,.14.95h-1.21A4.47,4.47,0,0,1,379.72,150.57Zm.44-2.68a2.39,2.39,0,0,1-.54.15c-.19,0-.51.07-1,.11a7.3,7.3,0,0,0-1.47.24,1.2,1.2,0,0,0-.65.45,1.16,1.16,0,0,0-.22.69,1.07,1.07,0,0,0,.35.82,1.38,1.38,0,0,0,1,.33,2.29,2.29,0,0,0,1.14-.32,2.32,2.32,0,0,0,.86-.87A5.21,5.21,0,0,0,380.16,147.89Z"/><path d="M386.26,151.44l1.46-7h1.2l-.25,1.16a4.83,4.83,0,0,1,1.19-1,2.36,2.36,0,0,1,1.14-.29,1.74,1.74,0,0,1,1.1.35,1.62,1.62,0,0,1,.57,1,4,4,0,0,1,1.13-1,2.5,2.5,0,0,1,1.24-.33,1.84,1.84,0,0,1,1.32.42,1.55,1.55,0,0,1,.44,1.17,6.34,6.34,0,0,1-.15,1.07l-.95,4.51h-1.19l1-4.63a4,4,0,0,0,.13-.81.75.75,0,0,0-.22-.55.89.89,0,0,0-.61-.19,2.1,2.1,0,0,0-1.09.32,2.27,2.27,0,0,0-.86.85,5.42,5.42,0,0,0-.54,1.61l-.72,3.4h-1.19l1-4.73a3.83,3.83,0,0,0,.11-.69.75.75,0,0,0-.22-.55.76.76,0,0,0-.56-.21,2.05,2.05,0,0,0-1.06.32,2.53,2.53,0,0,0-.91.9,5.57,5.57,0,0,0-.58,1.65l-.69,3.31Z"/><path d="M402.67,149.06l1.17.12a3.59,3.59,0,0,1-1.16,1.64,3.15,3.15,0,0,1-2.14.78,2.89,2.89,0,0,1-1.43-.36,2.29,2.29,0,0,1-1-1.05,3.41,3.41,0,0,1-.34-1.56,4.91,4.91,0,0,1,.53-2.23,3.76,3.76,0,0,1,1.37-1.6,3.44,3.44,0,0,1,1.83-.53,2.66,2.66,0,0,1,2,.78,3,3,0,0,1,.74,2.13,6.38,6.38,0,0,1-.09,1H399a2.62,2.62,0,0,0,0,.37,2.21,2.21,0,0,0,.46,1.5,1.4,1.4,0,0,0,1.1.52,2.13,2.13,0,0,0,1.21-.4A2.62,2.62,0,0,0,402.67,149.06Zm-3.47-1.74h3.94v-.26a1.94,1.94,0,0,0-.45-1.38,1.5,1.5,0,0,0-1.15-.48,2.15,2.15,0,0,0-1.4.53A3.17,3.17,0,0,0,399.2,147.32Z"/><path d="M409.77,150.42a2.86,2.86,0,0,1-2.14,1.18,2.15,2.15,0,0,1-1.66-.74,3.09,3.09,0,0,1-.66-2.13,5.19,5.19,0,0,1,.52-2.34,3.92,3.92,0,0,1,1.32-1.59,2.82,2.82,0,0,1,1.58-.53,2.12,2.12,0,0,1,2,1.26l.79-3.77h1.19l-2,9.68h-1.1Zm-3.27-1.92a3.62,3.62,0,0,0,.14,1.16,1.51,1.51,0,0,0,.5.7,1.26,1.26,0,0,0,.83.28,1.87,1.87,0,0,0,1.48-.84,4.33,4.33,0,0,0,.88-2.77,1.86,1.86,0,0,0-.43-1.31,1.44,1.44,0,0,0-1.1-.46,1.55,1.55,0,0,0-.78.19,2.2,2.2,0,0,0-.7.65,4.06,4.06,0,0,0-.59,1.16A4.21,4.21,0,0,0,406.5,148.5Z"/><path d="M412.52,151.44l1.46-7h1.2l-1.47,7Zm1.74-8.32.28-1.36h1.19l-.28,1.36Z"/><path d="M415.57,151.44l1.46-7h1.06l-.3,1.43a5,5,0,0,1,1.06-1.2,1.76,1.76,0,0,1,1.06-.39,2.12,2.12,0,0,1,.88.26l-.49,1.11a1.14,1.14,0,0,0-.68-.23,1.87,1.87,0,0,0-1.29.7,5.36,5.36,0,0,0-1,2.52l-.6,2.81Z"/><path d="M428.91,147.63l.23-1.1h4.24l-.82,3.94a7.57,7.57,0,0,1-1.82.82,6.91,6.91,0,0,1-2,.32,3.82,3.82,0,0,1-3.15-1.28,4.19,4.19,0,0,1-.88-2.76,6.65,6.65,0,0,1,.77-3.18,5.25,5.25,0,0,1,1.94-2.11,5.12,5.12,0,0,1,2.6-.68,4.37,4.37,0,0,1,1.85.37,3,3,0,0,1,1.26,1,4.21,4.21,0,0,1,.62,1.63l-1.26.13a2.57,2.57,0,0,0-.85-1.52,2.49,2.49,0,0,0-1.66-.54,3.64,3.64,0,0,0-2,.58,4,4,0,0,0-1.45,1.72,6,6,0,0,0-.55,2.62,3.05,3.05,0,0,0,.72,2.2,2.62,2.62,0,0,0,2,.75,5.55,5.55,0,0,0,2.71-.83l.44-2.08Z"/><path d="M434.67,151.44l.28-1.35h1.36l-.29,1.35Z"/><path d="M441.94,151.44l2-9.68h1.3l-1.79,8.59h5l-.23,1.09Z"/><path d="M454.1,150.57a4.68,4.68,0,0,1-1.2.78,3,3,0,0,1-1.23.25,2.17,2.17,0,0,1-1.56-.57,1.93,1.93,0,0,1-.6-1.46,2,2,0,0,1,.27-1,2.16,2.16,0,0,1,.71-.73,3.28,3.28,0,0,1,1.08-.39,12.29,12.29,0,0,1,1.53-.13,5.42,5.42,0,0,0,1.62-.24,3.12,3.12,0,0,0,.14-.81.8.8,0,0,0-.31-.65,1.92,1.92,0,0,0-1.21-.33,2.13,2.13,0,0,0-1.23.33,1.85,1.85,0,0,0-.7.95l-1.21-.11a3.2,3.2,0,0,1,1.17-1.59,3.5,3.5,0,0,1,2-.56,3.2,3.2,0,0,1,2.06.62,1.49,1.49,0,0,1,.58,1.2,6,6,0,0,1-.17,1.3l-.39,1.75a6.61,6.61,0,0,0-.18,1.35,4.9,4.9,0,0,0,.14.95h-1.2A3.76,3.76,0,0,1,454.1,150.57Zm.44-2.68a2.39,2.39,0,0,1-.54.15c-.19,0-.51.07-1,.11a7.3,7.3,0,0,0-1.47.24,1.2,1.2,0,0,0-.65.45,1.23,1.23,0,0,0-.22.69,1.07,1.07,0,0,0,.35.82,1.38,1.38,0,0,0,1,.33,2.29,2.29,0,0,0,1.14-.32,2.32,2.32,0,0,0,.86-.87A5,5,0,0,0,454.54,147.89Z"/><path d="M457,149l1.2-.07a2.28,2.28,0,0,0,.15.88,1.25,1.25,0,0,0,.59.59,2,2,0,0,0,1,.24,1.88,1.88,0,0,0,1.19-.32,1,1,0,0,0,.4-.75.87.87,0,0,0-.24-.58,3.6,3.6,0,0,0-1.19-.69,10.78,10.78,0,0,1-1.21-.57,1.88,1.88,0,0,1-.67-.64,1.55,1.55,0,0,1-.23-.84,1.84,1.84,0,0,1,.66-1.42,2.66,2.66,0,0,1,1.85-.6,3,3,0,0,1,2,.61,2.15,2.15,0,0,1,.72,1.61l-1.17.08a1.35,1.35,0,0,0-.45-1,1.73,1.73,0,0,0-1.19-.37,1.48,1.48,0,0,0-1,.28.79.79,0,0,0-.34.61.76.76,0,0,0,.3.59,4.82,4.82,0,0,0,1,.52,6.92,6.92,0,0,1,1.73.94,1.79,1.79,0,0,1,.57,1.33,1.94,1.94,0,0,1-.32,1,2.26,2.26,0,0,1-1,.8,3.7,3.7,0,0,1-1.55.3,3.46,3.46,0,0,1-2.06-.6A2.13,2.13,0,0,1,457,149Z"/><path d="M467.4,151.44l2-9.68h1.2l-.72,3.46a4.31,4.31,0,0,1,1-.73,2.17,2.17,0,0,1,1-.22,2.12,2.12,0,0,1,1.64.73,3.1,3.1,0,0,1,.66,2.14,5.37,5.37,0,0,1-.26,1.7,4.79,4.79,0,0,1-.66,1.3,4.32,4.32,0,0,1-.8.84,3.08,3.08,0,0,1-.85.46,2.35,2.35,0,0,1-.84.16,2,2,0,0,1-1.22-.37,2.28,2.28,0,0,1-.83-1.12l-.28,1.33Zm1.77-2.88v.23a1.91,1.91,0,0,0,.43,1.36,1.35,1.35,0,0,0,1.07.47,1.73,1.73,0,0,0,1.15-.44,3.17,3.17,0,0,0,.86-1.37,5.15,5.15,0,0,0,.33-1.71,2.07,2.07,0,0,0-.42-1.38,1.35,1.35,0,0,0-1-.48,1.72,1.72,0,0,0-1.19.49,3.92,3.92,0,0,0-.91,1.54A4.07,4.07,0,0,0,469.17,148.56Z"/><path d="M475.13,148.78a4.93,4.93,0,0,1,1.21-3.4,3.36,3.36,0,0,1,2.62-1.11,2.77,2.77,0,0,1,2,.79,2.93,2.93,0,0,1,.77,2.14,5.28,5.28,0,0,1-.48,2.25A3.61,3.61,0,0,1,479.9,151a3.5,3.5,0,0,1-1.9.56,3.21,3.21,0,0,1-1.49-.35,2.33,2.33,0,0,1-1-1A3,3,0,0,1,475.13,148.78Zm1.2-.12a2.16,2.16,0,0,0,.47,1.5,1.59,1.59,0,0,0,1.21.52,2,2,0,0,0,.76-.16,2.11,2.11,0,0,0,.7-.47,3,3,0,0,0,.55-.72,4.55,4.55,0,0,0,.37-.88,4.34,4.34,0,0,0,.2-1.25,2.11,2.11,0,0,0-.48-1.48,1.54,1.54,0,0,0-1.2-.52,2.06,2.06,0,0,0-1,.26,2.71,2.71,0,0,0-.84.79,3.52,3.52,0,0,0-.55,1.19A5.38,5.38,0,0,0,476.33,148.66Z"/><path d="M482.35,151.44l2-9.68h1.19l-2,9.68Z"/><path d="M490.17,150.57a4.48,4.48,0,0,1-1.19.78,3,3,0,0,1-1.23.25,2.18,2.18,0,0,1-1.57-.57,2.12,2.12,0,0,1-.32-2.5,2.07,2.07,0,0,1,.71-.73,3.12,3.12,0,0,1,1.08-.39,12.29,12.29,0,0,1,1.53-.13,5.28,5.28,0,0,0,1.61-.24,2.75,2.75,0,0,0,.14-.81.79.79,0,0,0-.3-.65,2,2,0,0,0-1.22-.33,2.13,2.13,0,0,0-1.23.33,1.9,1.9,0,0,0-.7.95l-1.2-.11a3.09,3.09,0,0,1,1.17-1.59,3.46,3.46,0,0,1,2-.56,3.16,3.16,0,0,1,2.06.62,1.46,1.46,0,0,1,.58,1.2,6,6,0,0,1-.16,1.3l-.39,1.75a6.08,6.08,0,0,0-.19,1.35,4.36,4.36,0,0,0,.15.95h-1.21A4.39,4.39,0,0,1,490.17,150.57Zm.44-2.68a2.18,2.18,0,0,1-.53.15c-.19,0-.52.07-1,.11a7.57,7.57,0,0,0-1.48.24,1.17,1.17,0,0,0-.64.45,1.16,1.16,0,0,0-.22.69,1,1,0,0,0,.35.82,1.35,1.35,0,0,0,1,.33,2.23,2.23,0,0,0,1.14-.32,2.27,2.27,0,0,0,.87-.87A5,5,0,0,0,490.61,147.89Z"/><path d="M493.08,149l1.19-.07a2.1,2.1,0,0,0,.16.88,1.22,1.22,0,0,0,.58.59,2,2,0,0,0,1,.24,1.9,1.9,0,0,0,1.19-.32.94.94,0,0,0,.39-.75.87.87,0,0,0-.24-.58,3.6,3.6,0,0,0-1.19-.69,11.79,11.79,0,0,1-1.21-.57,2,2,0,0,1-.67-.64,1.55,1.55,0,0,1-.22-.84,1.84,1.84,0,0,1,.66-1.42,2.66,2.66,0,0,1,1.85-.6,3,3,0,0,1,2,.61,2.11,2.11,0,0,1,.71,1.61l-1.16.08a1.35,1.35,0,0,0-.45-1,1.74,1.74,0,0,0-1.2-.37,1.46,1.46,0,0,0-1,.28.79.79,0,0,0-.34.61.75.75,0,0,0,.29.59,5,5,0,0,0,1,.52,6.79,6.79,0,0,1,1.72.94,1.79,1.79,0,0,1,.57,1.33,1.86,1.86,0,0,1-.32,1,2.23,2.23,0,0,1-1,.8,3.73,3.73,0,0,1-1.55.3,3.51,3.51,0,0,1-2.07-.6A2.12,2.12,0,0,1,493.08,149Z"/><path d="M508.21,150.42a2.89,2.89,0,0,1-2.14,1.18,2.14,2.14,0,0,1-1.66-.74,3,3,0,0,1-.67-2.13,5.19,5.19,0,0,1,.53-2.34,4,4,0,0,1,1.31-1.59,2.87,2.87,0,0,1,1.58-.53,2.14,2.14,0,0,1,2,1.26l.79-3.77h1.19l-2,9.68H508Zm-3.28-1.92a3.58,3.58,0,0,0,.15,1.16,1.49,1.49,0,0,0,.49.7,1.27,1.27,0,0,0,.84.28,1.87,1.87,0,0,0,1.47-.84,4.34,4.34,0,0,0,.89-2.77,1.87,1.87,0,0,0-.44-1.31,1.42,1.42,0,0,0-1.09-.46,1.62,1.62,0,0,0-.79.19,2.31,2.31,0,0,0-.7.65,4.05,4.05,0,0,0-.58,1.16A4,4,0,0,0,504.93,148.5Z"/><path d="M516.15,149.06l1.16.12a3.56,3.56,0,0,1-1.15,1.64,3.18,3.18,0,0,1-2.15.78,2.89,2.89,0,0,1-1.43-.36,2.4,2.4,0,0,1-1-1.05,3.41,3.41,0,0,1-.34-1.56,5,5,0,0,1,.53-2.23,3.71,3.71,0,0,1,1.38-1.6,3.38,3.38,0,0,1,1.82-.53,2.66,2.66,0,0,1,2,.78,2.94,2.94,0,0,1,.75,2.13,6.38,6.38,0,0,1-.09,1h-5.17c0,.14,0,.26,0,.37a2.2,2.2,0,0,0,.45,1.5,1.4,1.4,0,0,0,1.1.52,2.11,2.11,0,0,0,1.21-.4A2.64,2.64,0,0,0,516.15,149.06Zm-3.47-1.74h3.93c0-.12,0-.21,0-.26a1.94,1.94,0,0,0-.45-1.38,1.52,1.52,0,0,0-1.16-.48,2.12,2.12,0,0,0-1.39.53A3,3,0,0,0,512.68,147.32Z"/><path d="M257,167.67l1.47-7h1.19l-.24,1.16a4.66,4.66,0,0,1,1.19-1,2.35,2.35,0,0,1,1.14-.28,1.71,1.71,0,0,1,1.09.34,1.66,1.66,0,0,1,.58,1,3.92,3.92,0,0,1,1.12-1,2.64,2.64,0,0,1,1.25-.32,1.82,1.82,0,0,1,1.31.41,1.52,1.52,0,0,1,.44,1.17,6.22,6.22,0,0,1-.15,1.07l-.94,4.52h-1.2l1-4.64a4.57,4.57,0,0,0,.12-.81.67.67,0,0,0-.22-.54.88.88,0,0,0-.61-.2,2.2,2.2,0,0,0-1.09.32,2.34,2.34,0,0,0-.86.85,5.7,5.7,0,0,0-.54,1.62l-.71,3.4h-1.2l1-4.74a3.9,3.9,0,0,0,.11-.68.76.76,0,0,0-.21-.56.78.78,0,0,0-.56-.21,2.19,2.19,0,0,0-1.07.32,2.7,2.7,0,0,0-.91.9,5.6,5.6,0,0,0-.57,1.65l-.69,3.32Z"/><path d="M273,166.79a5,5,0,0,1-1.2.79,3.14,3.14,0,0,1-1.23.24,2.16,2.16,0,0,1-1.56-.57,1.93,1.93,0,0,1-.6-1.46,2,2,0,0,1,.27-1,2.25,2.25,0,0,1,.71-.73,3.28,3.28,0,0,1,1.08-.39,12.93,12.93,0,0,1,1.53-.12,5.42,5.42,0,0,0,1.62-.24,3.26,3.26,0,0,0,.14-.81.81.81,0,0,0-.31-.66,1.92,1.92,0,0,0-1.21-.33,2,2,0,0,0-1.23.34,1.82,1.82,0,0,0-.7.94l-1.21-.1a3.19,3.19,0,0,1,1.17-1.6,3.49,3.49,0,0,1,2-.55,3.14,3.14,0,0,1,2.06.62,1.47,1.47,0,0,1,.58,1.2,6.11,6.11,0,0,1-.17,1.3l-.39,1.74a6.78,6.78,0,0,0-.18,1.35,5.09,5.09,0,0,0,.14,1h-1.2A3.77,3.77,0,0,1,273,166.79Zm.44-2.68a3.08,3.08,0,0,1-.54.16c-.19,0-.51.07-1,.11a7.49,7.49,0,0,0-1.47.23,1.31,1.31,0,0,0-.65.45,1.23,1.23,0,0,0-.22.69,1.11,1.11,0,0,0,.35.83,1.42,1.42,0,0,0,1,.32,2.38,2.38,0,0,0,1.14-.31,2.34,2.34,0,0,0,.86-.88A5.12,5.12,0,0,0,273.44,164.11Z"/><path d="M275.9,165.27l1.19-.07a2.25,2.25,0,0,0,.16.87,1.27,1.27,0,0,0,.59.6,2.07,2.07,0,0,0,1,.23,1.88,1.88,0,0,0,1.19-.32,1,1,0,0,0,.4-.74.88.88,0,0,0-.24-.59,3.75,3.75,0,0,0-1.19-.68c-.64-.28-1-.47-1.22-.57a2.13,2.13,0,0,1-.66-.64,1.6,1.6,0,0,1-.23-.84,1.86,1.86,0,0,1,.66-1.43,2.65,2.65,0,0,1,1.85-.59,2.93,2.93,0,0,1,2,.61,2.11,2.11,0,0,1,.72,1.6l-1.17.08a1.36,1.36,0,0,0-.45-1,1.73,1.73,0,0,0-1.19-.37,1.48,1.48,0,0,0-1,.28.81.81,0,0,0-.34.62.74.74,0,0,0,.3.58,5.19,5.19,0,0,0,1,.53,7.21,7.21,0,0,1,1.73.93,1.79,1.79,0,0,1,.57,1.34,1.88,1.88,0,0,1-.32,1,2.2,2.2,0,0,1-1,.8,3.7,3.7,0,0,1-1.55.3,3.46,3.46,0,0,1-2.06-.6A2.12,2.12,0,0,1,275.9,165.27Z"/><path d="M287.27,166.79a4.8,4.8,0,0,1-1.19.79,3.14,3.14,0,0,1-1.23.24,2.14,2.14,0,0,1-1.56-.57,1.93,1.93,0,0,1-.6-1.46,2,2,0,0,1,.27-1,2.25,2.25,0,0,1,.71-.73,3.28,3.28,0,0,1,1.08-.39,12.93,12.93,0,0,1,1.53-.12,5.28,5.28,0,0,0,1.61-.24,2.86,2.86,0,0,0,.14-.81.8.8,0,0,0-.3-.66,1.93,1.93,0,0,0-1.22-.33,2.06,2.06,0,0,0-1.23.34,1.86,1.86,0,0,0-.69.94l-1.21-.1a3.19,3.19,0,0,1,1.17-1.6,3.48,3.48,0,0,1,2-.55,3.11,3.11,0,0,1,2.06.62,1.46,1.46,0,0,1,.59,1.2,6.11,6.11,0,0,1-.17,1.3l-.39,1.74a6.78,6.78,0,0,0-.18,1.35,4.37,4.37,0,0,0,.14,1h-1.21A5.24,5.24,0,0,1,287.27,166.79Zm.45-2.68a3.08,3.08,0,0,1-.54.16c-.19,0-.51.07-1,.11a7.49,7.49,0,0,0-1.47.23,1.27,1.27,0,0,0-.65.45,1.16,1.16,0,0,0-.22.69,1.11,1.11,0,0,0,.35.83,1.42,1.42,0,0,0,1,.32,2.38,2.38,0,0,0,1.14-.31,2.34,2.34,0,0,0,.86-.88A5.12,5.12,0,0,0,287.72,164.11Z"/><path d="M293.82,167.67l1.46-7h1.2l-.25,1.16a4.83,4.83,0,0,1,1.19-1,2.35,2.35,0,0,1,1.14-.28,1.69,1.69,0,0,1,1.09.34,1.61,1.61,0,0,1,.58,1,4,4,0,0,1,1.13-1,2.6,2.6,0,0,1,1.24-.32,1.83,1.83,0,0,1,1.32.41,1.55,1.55,0,0,1,.44,1.17,6.22,6.22,0,0,1-.15,1.07l-.95,4.52h-1.19l1-4.64a4.87,4.87,0,0,0,.13-.81.71.71,0,0,0-.22-.54.91.91,0,0,0-.62-.2,2.16,2.16,0,0,0-1.08.32,2.45,2.45,0,0,0-.87.85,5.74,5.74,0,0,0-.53,1.62l-.72,3.4h-1.19l1-4.74a3.62,3.62,0,0,0,.1-.68.72.72,0,0,0-.77-.77,2.15,2.15,0,0,0-1.06.32,2.53,2.53,0,0,0-.91.9,5.3,5.3,0,0,0-.58,1.65l-.69,3.32Z"/><path d="M312.15,170.37l.07-1.12a2.66,2.66,0,0,0,.72.1,1,1,0,0,0,.59-.16,2.9,2.9,0,0,0,.63-.82l.38-.69-1.17-7h1.18l.53,3.55q.15,1.05.27,2.1l3.13-5.65h1.25l-4.47,7.95a5,5,0,0,1-1.15,1.53,1.87,1.87,0,0,1-1.15.38A2.46,2.46,0,0,1,312.15,170.37Z"/><path d="M323.1,167.67l1.47-7h1.19l-.24,1.16a4.83,4.83,0,0,1,1.19-1,2.35,2.35,0,0,1,1.14-.28,1.69,1.69,0,0,1,1.09.34,1.61,1.61,0,0,1,.58,1,4,4,0,0,1,1.13-1,2.6,2.6,0,0,1,1.24-.32,1.83,1.83,0,0,1,1.32.41,1.55,1.55,0,0,1,.44,1.17,6.22,6.22,0,0,1-.15,1.07l-.95,4.52h-1.19l1-4.64a4.87,4.87,0,0,0,.13-.81.71.71,0,0,0-.22-.54.91.91,0,0,0-.62-.2,2.23,2.23,0,0,0-1.09.32,2.42,2.42,0,0,0-.86.85,5.74,5.74,0,0,0-.53,1.62l-.72,3.4h-1.19l1-4.74a3.62,3.62,0,0,0,.1-.68.72.72,0,0,0-.77-.77,2.22,2.22,0,0,0-1.07.32,2.59,2.59,0,0,0-.9.9,5.3,5.3,0,0,0-.58,1.65l-.69,3.32Z"/><path d="M342,165.27l1.19-.07a2.08,2.08,0,0,0,.16.87,1.29,1.29,0,0,0,.58.6,2.14,2.14,0,0,0,1,.23,1.9,1.9,0,0,0,1.19-.32.94.94,0,0,0,.39-.74.88.88,0,0,0-.24-.59,3.63,3.63,0,0,0-1.19-.68c-.63-.28-1-.47-1.21-.57a2,2,0,0,1-.66-.64,1.52,1.52,0,0,1-.23-.84,1.86,1.86,0,0,1,.66-1.43,2.65,2.65,0,0,1,1.85-.59,2.93,2.93,0,0,1,2,.61,2.11,2.11,0,0,1,.72,1.6l-1.17.08a1.36,1.36,0,0,0-.45-1,1.74,1.74,0,0,0-1.2-.37,1.46,1.46,0,0,0-1,.28.81.81,0,0,0-.34.62.76.76,0,0,0,.29.58,5.76,5.76,0,0,0,1,.53,7.21,7.21,0,0,1,1.73.93,1.84,1.84,0,0,1,.24,2.36,2.17,2.17,0,0,1-1,.8,3.73,3.73,0,0,1-1.55.3,3.51,3.51,0,0,1-2.07-.6A2.12,2.12,0,0,1,342,165.27Z"/><path d="M353.79,165.28l1.17.12A3.49,3.49,0,0,1,353.8,167a3.16,3.16,0,0,1-2.15.78,2.88,2.88,0,0,1-1.42-.36,2.27,2.27,0,0,1-1-1,3.45,3.45,0,0,1-.34-1.57,4.87,4.87,0,0,1,.53-2.22A3.79,3.79,0,0,1,350.8,161a3.43,3.43,0,0,1,1.83-.52,2.66,2.66,0,0,1,2,.78,2.94,2.94,0,0,1,.74,2.12,6.5,6.5,0,0,1-.09,1.06h-5.16a2.51,2.51,0,0,0,0,.37,2.19,2.19,0,0,0,.46,1.5,1.43,1.43,0,0,0,1.1.52,2.15,2.15,0,0,0,1.21-.41A2.58,2.58,0,0,0,353.79,165.28Zm-3.47-1.73h3.94v-.27a1.9,1.9,0,0,0-.45-1.37,1.5,1.5,0,0,0-1.15-.48,2.1,2.1,0,0,0-1.4.53A3.17,3.17,0,0,0,350.32,163.55Z"/><path d="M364.65,166.79a5,5,0,0,1-1.2.79,3.14,3.14,0,0,1-1.23.24,2.16,2.16,0,0,1-1.56-.57,1.93,1.93,0,0,1-.6-1.46,2,2,0,0,1,.27-1A2.25,2.25,0,0,1,361,164a3.28,3.28,0,0,1,1.08-.39,12.93,12.93,0,0,1,1.53-.12,5.42,5.42,0,0,0,1.62-.24,3.18,3.18,0,0,0,.13-.81.8.8,0,0,0-.3-.66,1.92,1.92,0,0,0-1.21-.33,2,2,0,0,0-1.23.34,1.82,1.82,0,0,0-.7.94l-1.21-.1a3.19,3.19,0,0,1,1.17-1.6,3.49,3.49,0,0,1,2-.55,3.14,3.14,0,0,1,2.06.62,1.47,1.47,0,0,1,.58,1.2,6.11,6.11,0,0,1-.17,1.3l-.39,1.74a6.78,6.78,0,0,0-.18,1.35,4.37,4.37,0,0,0,.14,1h-1.21A4.47,4.47,0,0,1,364.65,166.79Zm.44-2.68a3.08,3.08,0,0,1-.54.16c-.19,0-.51.07-1,.11a7.49,7.49,0,0,0-1.47.23,1.31,1.31,0,0,0-.65.45,1.16,1.16,0,0,0-.22.69,1.11,1.11,0,0,0,.35.83,1.42,1.42,0,0,0,1,.32,2.38,2.38,0,0,0,1.14-.31,2.34,2.34,0,0,0,.86-.88A5.12,5.12,0,0,0,365.09,164.11Z"/><path d="M370.23,166.69l-.2,1a3,3,0,0,1-.83.11,1.71,1.71,0,0,1-1.14-.35.87.87,0,0,1-.31-.72,6.56,6.56,0,0,1,.17-1.06l.85-4.07h-.94l.19-.93H369l.37-1.72,1.36-.82-.53,2.54h1.17l-.2.93H370l-.82,3.87a7.47,7.47,0,0,0-.15.89.41.41,0,0,0,.12.32.58.58,0,0,0,.4.11A2.57,2.57,0,0,0,370.23,166.69Z"/><path d="M371.19,167.67l1.47-7h1.06l-.3,1.44a4.79,4.79,0,0,1,1.06-1.2,1.74,1.74,0,0,1,1.06-.39,2.12,2.12,0,0,1,.88.25l-.49,1.11a1.15,1.15,0,0,0-.68-.22,1.83,1.83,0,0,0-1.29.7,5.25,5.25,0,0,0-1,2.51l-.59,2.82Z"/><path d="M380.42,166.79a4.8,4.8,0,0,1-1.19.79,3.21,3.21,0,0,1-1.23.24,2.18,2.18,0,0,1-1.57-.57,2,2,0,0,1-.59-1.46,2,2,0,0,1,.27-1,2.15,2.15,0,0,1,.71-.73,3.12,3.12,0,0,1,1.08-.39,12.93,12.93,0,0,1,1.53-.12,5.28,5.28,0,0,0,1.61-.24,2.86,2.86,0,0,0,.14-.81.8.8,0,0,0-.3-.66,2,2,0,0,0-1.22-.33,2.06,2.06,0,0,0-1.23.34,1.88,1.88,0,0,0-.7.94l-1.2-.1a3.08,3.08,0,0,1,1.17-1.6,3.46,3.46,0,0,1,2-.55,3.11,3.11,0,0,1,2.06.62,1.45,1.45,0,0,1,.58,1.2,6,6,0,0,1-.16,1.3l-.39,1.74a6.23,6.23,0,0,0-.19,1.35,4.52,4.52,0,0,0,.15,1h-1.21A4.38,4.38,0,0,1,380.42,166.79Zm.44-2.68a2.74,2.74,0,0,1-.53.16c-.19,0-.52.07-1,.11a7.77,7.77,0,0,0-1.48.23,1.28,1.28,0,0,0-.64.45,1.16,1.16,0,0,0-.22.69,1.07,1.07,0,0,0,.35.83,1.39,1.39,0,0,0,1,.32,2.32,2.32,0,0,0,1.14-.31,2.3,2.3,0,0,0,.87-.88A4.89,4.89,0,0,0,380.86,164.11Z"/><path d="M388.36,165.28l1.16.12a3.4,3.4,0,0,1-1.15,1.64,3.16,3.16,0,0,1-2.15.78,2.86,2.86,0,0,1-1.42-.36,2.34,2.34,0,0,1-1-1,3.58,3.58,0,0,1-.33-1.57,4.87,4.87,0,0,1,.53-2.22,3.79,3.79,0,0,1,1.37-1.61,3.43,3.43,0,0,1,1.83-.52,2.62,2.62,0,0,1,2,.78,2.9,2.9,0,0,1,.75,2.12,6.5,6.5,0,0,1-.09,1.06H384.7a2.51,2.51,0,0,0,0,.37,2.19,2.19,0,0,0,.46,1.5,1.43,1.43,0,0,0,1.1.52,2.15,2.15,0,0,0,1.21-.41A2.58,2.58,0,0,0,388.36,165.28Zm-3.47-1.73h3.93c0-.13,0-.22,0-.27a1.9,1.9,0,0,0-.45-1.37,1.5,1.5,0,0,0-1.15-.48,2.1,2.1,0,0,0-1.4.53A3.17,3.17,0,0,0,384.89,163.55Z"/><path d="M390.73,167.67l1.47-7h1.08l-.26,1.23a5.69,5.69,0,0,1,1.32-1,2.64,2.64,0,0,1,1.26-.33,1.82,1.82,0,0,1,1.33.46,1.6,1.6,0,0,1,.49,1.23,7.31,7.31,0,0,1-.17,1.23l-.89,4.25h-1.2l.93-4.45a5.35,5.35,0,0,0,.14-.95.72.72,0,0,0-.24-.57,1,1,0,0,0-.7-.22,2.34,2.34,0,0,0-1.63.66,4.15,4.15,0,0,0-1.05,2.26l-.68,3.27Z"/><path d="M402,167.67l1.47-7h1.19l-.24,1.16a4.66,4.66,0,0,1,1.19-1,2.35,2.35,0,0,1,1.14-.28,1.59,1.59,0,0,1,1.67,1.31,3.92,3.92,0,0,1,1.12-1,2.64,2.64,0,0,1,1.25-.32,1.82,1.82,0,0,1,1.31.41,1.52,1.52,0,0,1,.44,1.17,6.22,6.22,0,0,1-.15,1.07l-.94,4.52h-1.2l1-4.64a4.57,4.57,0,0,0,.12-.81.67.67,0,0,0-.22-.54.88.88,0,0,0-.61-.2,2.2,2.2,0,0,0-1.09.32,2.34,2.34,0,0,0-.86.85,5.4,5.4,0,0,0-.54,1.62l-.71,3.4h-1.2l1-4.74a3.9,3.9,0,0,0,.11-.68.73.73,0,0,0-.22-.56.74.74,0,0,0-.55-.21,2.19,2.19,0,0,0-1.07.32,2.7,2.7,0,0,0-.91.9,5.6,5.6,0,0,0-.57,1.65l-.7,3.32Z"/><path d="M418.05,166.4a3.52,3.52,0,0,1-2.58,1.42,1.85,1.85,0,0,1-1.31-.46,1.51,1.51,0,0,1-.5-1.14,8.81,8.81,0,0,1,.23-1.52l.84-4h1.2l-.94,4.49a4.4,4.4,0,0,0-.12.87.81.81,0,0,0,.24.62,1.06,1.06,0,0,0,.71.22,2.16,2.16,0,0,0,1-.25,2.53,2.53,0,0,0,.83-.66,3.22,3.22,0,0,0,.56-1,8.49,8.49,0,0,0,.34-1.28l.63-3h1.2l-1.47,7h-1.1Z"/><path d="M423.58,166.69l-.2,1a3.06,3.06,0,0,1-.83.11,1.71,1.71,0,0,1-1.14-.35.87.87,0,0,1-.31-.72,6.56,6.56,0,0,1,.17-1.06l.85-4.07h-.94l.19-.93h.94l.37-1.72,1.36-.82-.53,2.54h1.17l-.2.93h-1.16l-.82,3.87a7.47,7.47,0,0,0-.15.89.41.41,0,0,0,.12.32.56.56,0,0,0,.4.11A2.57,2.57,0,0,0,423.58,166.69Z"/><path d="M429.33,166.4a3.52,3.52,0,0,1-2.58,1.42,1.84,1.84,0,0,1-1.31-.46,1.47,1.47,0,0,1-.5-1.14,8.52,8.52,0,0,1,.22-1.52l.85-4h1.19l-.93,4.49a4.4,4.4,0,0,0-.12.87.81.81,0,0,0,.24.62,1.06,1.06,0,0,0,.71.22,2.19,2.19,0,0,0,1-.25,2.49,2.49,0,0,0,.82-.66,3.46,3.46,0,0,0,.57-1,8.82,8.82,0,0,0,.33-1.28l.64-3h1.19l-1.46,7h-1.11Z"/><path d="M436.79,166.79a4.84,4.84,0,0,1-1.2.79,3.12,3.12,0,0,1-1.22.24,2.18,2.18,0,0,1-1.57-.57,1.92,1.92,0,0,1-.59-1.46,2.08,2.08,0,0,1,.26-1,2.25,2.25,0,0,1,.71-.73,3.25,3.25,0,0,1,1.09-.39,12.5,12.5,0,0,1,1.52-.12,5.36,5.36,0,0,0,1.62-.24,3.26,3.26,0,0,0,.14-.81.78.78,0,0,0-.31-.66,1.9,1.9,0,0,0-1.21-.33,2.06,2.06,0,0,0-1.23.34,1.88,1.88,0,0,0-.7.94l-1.21-.1a3.19,3.19,0,0,1,1.17-1.6,3.49,3.49,0,0,1,2-.55,3.13,3.13,0,0,1,2.06.62,1.45,1.45,0,0,1,.58,1.2,6.11,6.11,0,0,1-.17,1.3l-.39,1.74a6.78,6.78,0,0,0-.18,1.35,4.52,4.52,0,0,0,.15,1h-1.21A3.77,3.77,0,0,1,436.79,166.79Zm.44-2.68a3.08,3.08,0,0,1-.54.16c-.19,0-.51.07-1,.11a7.77,7.77,0,0,0-1.47.23,1.31,1.31,0,0,0-.65.45,1.23,1.23,0,0,0-.22.69,1.11,1.11,0,0,0,.35.83,1.42,1.42,0,0,0,1,.32,2.33,2.33,0,0,0,2-1.19A5.15,5.15,0,0,0,437.23,164.11Z"/><path d="M439.57,167.67l1.47-7h1.19l-.24,1.16a4.66,4.66,0,0,1,1.19-1,2.35,2.35,0,0,1,1.14-.28,1.69,1.69,0,0,1,1.09.34,1.66,1.66,0,0,1,.58,1,4,4,0,0,1,1.13-1,2.57,2.57,0,0,1,1.24-.32,1.87,1.87,0,0,1,1.32.41,1.55,1.55,0,0,1,.44,1.17,6.52,6.52,0,0,1-.16,1.07l-.94,4.52h-1.2l1-4.64a4.57,4.57,0,0,0,.12-.81.7.7,0,0,0-.21-.54.91.91,0,0,0-.62-.2,2.23,2.23,0,0,0-1.09.32,2.42,2.42,0,0,0-.86.85,6,6,0,0,0-.54,1.62l-.71,3.4h-1.19l1-4.74a3.62,3.62,0,0,0,.1-.68.76.76,0,0,0-.21-.56.78.78,0,0,0-.56-.21,2.19,2.19,0,0,0-1.07.32,2.59,2.59,0,0,0-.9.9,5.3,5.3,0,0,0-.58,1.65l-.69,3.32Z"/><path d="M456,165.28l1.16.12A3.4,3.4,0,0,1,456,167a3.18,3.18,0,0,1-2.15.78,2.92,2.92,0,0,1-1.43-.36,2.37,2.37,0,0,1-1-1,3.59,3.59,0,0,1-.34-1.57,5,5,0,0,1,.53-2.22A3.88,3.88,0,0,1,453,161a3.38,3.38,0,0,1,1.83-.52,2.64,2.64,0,0,1,2,.78,2.9,2.9,0,0,1,.75,2.12,6.5,6.5,0,0,1-.09,1.06h-5.16a2.51,2.51,0,0,0,0,.37,2.24,2.24,0,0,0,.45,1.5,1.43,1.43,0,0,0,1.11.52,2.15,2.15,0,0,0,1.21-.41A2.58,2.58,0,0,0,456,165.28Zm-3.47-1.73h3.93c0-.13,0-.22,0-.27a1.9,1.9,0,0,0-.45-1.37,1.5,1.5,0,0,0-1.15-.48,2.08,2.08,0,0,0-1.4.53A3.1,3.1,0,0,0,452.52,163.55Z"/><path d="M458.36,167.67l1.47-7h1.08l-.26,1.23a5.69,5.69,0,0,1,1.32-1,2.64,2.64,0,0,1,1.26-.33,1.84,1.84,0,0,1,1.33.46,1.6,1.6,0,0,1,.49,1.23,7.31,7.31,0,0,1-.17,1.23l-.9,4.25h-1.19l.93-4.45a5.35,5.35,0,0,0,.14-.95.72.72,0,0,0-.24-.57,1,1,0,0,0-.7-.22,2.32,2.32,0,0,0-1.63.66,4.22,4.22,0,0,0-1.06,2.26l-.68,3.27Z"/><path d="M468.67,166.69l-.2,1a3,3,0,0,1-.83.11,1.68,1.68,0,0,1-1.13-.35.88.88,0,0,1-.32-.72,8,8,0,0,1,.17-1.06l.85-4.07h-.94l.19-.93h.94l.37-1.72,1.36-.82-.53,2.54h1.17l-.19.93h-1.17l-.82,3.87a7.47,7.47,0,0,0-.15.89.38.38,0,0,0,.13.32.55.55,0,0,0,.4.11A2.54,2.54,0,0,0,468.67,166.69Z"/><path d="M474.78,165.28l1.17.12a3.49,3.49,0,0,1-1.16,1.64,3.16,3.16,0,0,1-2.15.78,2.88,2.88,0,0,1-1.42-.36,2.27,2.27,0,0,1-1-1,3.45,3.45,0,0,1-.34-1.57,4.87,4.87,0,0,1,.53-2.22,3.79,3.79,0,0,1,1.37-1.61,3.43,3.43,0,0,1,1.83-.52,2.66,2.66,0,0,1,2,.78,2.94,2.94,0,0,1,.74,2.12,6.5,6.5,0,0,1-.09,1.06h-5.16a2.51,2.51,0,0,0,0,.37,2.19,2.19,0,0,0,.46,1.5,1.43,1.43,0,0,0,1.1.52,2.15,2.15,0,0,0,1.21-.41A2.52,2.52,0,0,0,474.78,165.28Zm-3.47-1.73h3.94v-.27a1.9,1.9,0,0,0-.45-1.37,1.5,1.5,0,0,0-1.15-.48,2.1,2.1,0,0,0-1.4.53A3.17,3.17,0,0,0,471.31,163.55Z"/><path d="M485.75,165.11l1.19.13a4.08,4.08,0,0,1-1.27,1.95,3.07,3.07,0,0,1-1.89.63,2.42,2.42,0,0,1-1.85-.74,2.86,2.86,0,0,1-.71-2.06,5.78,5.78,0,0,1,.46-2.26,3.62,3.62,0,0,1,1.3-1.69,3.38,3.38,0,0,1,1.94-.57,2.51,2.51,0,0,1,1.79.63,2.29,2.29,0,0,1,.66,1.69l-1.18.08a1.36,1.36,0,0,0-.39-1,1.35,1.35,0,0,0-1-.38,1.8,1.8,0,0,0-1.24.46,2.9,2.9,0,0,0-.83,1.38,5.78,5.78,0,0,0-.3,1.78,2,2,0,0,0,.39,1.35,1.26,1.26,0,0,0,1,.45,1.72,1.72,0,0,0,1.11-.44A2.9,2.9,0,0,0,485.75,165.11Z"/><path d="M487.88,165a4.86,4.86,0,0,1,1.21-3.39,3.33,3.33,0,0,1,2.61-1.11,2.73,2.73,0,0,1,2.05.79,3,3,0,0,1,.77,2.14,5.13,5.13,0,0,1-.49,2.24,3.58,3.58,0,0,1-1.39,1.6,3.54,3.54,0,0,1-1.89.55,3.06,3.06,0,0,1-1.49-.35,2.4,2.4,0,0,1-1-1A3.05,3.05,0,0,1,487.88,165Zm1.19-.11a2.11,2.11,0,0,0,.48,1.5,1.59,1.59,0,0,0,1.21.51,1.89,1.89,0,0,0,.76-.16,2.21,2.21,0,0,0,.7-.47,3.27,3.27,0,0,0,.55-.72,4.65,4.65,0,0,0,.37-.88,4.34,4.34,0,0,0,.2-1.25,2.08,2.08,0,0,0-.48-1.47,1.53,1.53,0,0,0-1.2-.53,2,2,0,0,0-1,.27,2.77,2.77,0,0,0-.83.78,3.48,3.48,0,0,0-.55,1.2A4.8,4.8,0,0,0,489.07,164.89Z"/><path d="M495.19,167.67l1.46-7h1.09l-.26,1.23a5.69,5.69,0,0,1,1.32-1,2.63,2.63,0,0,1,1.25-.33,1.85,1.85,0,0,1,1.34.46,1.63,1.63,0,0,1,.48,1.23,6.38,6.38,0,0,1-.17,1.23l-.89,4.25h-1.19l.93-4.45a5.35,5.35,0,0,0,.14-.95.72.72,0,0,0-.24-.57,1,1,0,0,0-.7-.22,2.32,2.32,0,0,0-1.63.66,4.22,4.22,0,0,0-1.06,2.26l-.68,3.27Z"/><path d="M261.79,182.62a3.53,3.53,0,0,1-2.58,1.43,1.84,1.84,0,0,1-1.31-.47,1.51,1.51,0,0,1-.5-1.14,9,9,0,0,1,.23-1.52l.84-4h1.2l-.94,4.48a4.4,4.4,0,0,0-.12.87.8.8,0,0,0,.24.62,1,1,0,0,0,.71.22,2.15,2.15,0,0,0,1-.24,2.82,2.82,0,0,0,.83-.66,3.4,3.4,0,0,0,.56-1,8.63,8.63,0,0,0,.34-1.27l.63-3h1.2l-1.47,7h-1.1Z"/><path d="M264.53,183.89l1.46-7h1.08l-.25,1.22a5.69,5.69,0,0,1,1.32-1,2.6,2.6,0,0,1,1.25-.33,1.86,1.86,0,0,1,1.34.46,1.64,1.64,0,0,1,.48,1.24,6.41,6.41,0,0,1-.17,1.22l-.89,4.25H269l.93-4.44a5.3,5.3,0,0,0,.13-1,.73.73,0,0,0-.24-.57,1,1,0,0,0-.69-.22,2.37,2.37,0,0,0-1.64.66,4.33,4.33,0,0,0-1.05,2.27l-.68,3.26Z"/><path d="M276.77,183a5,5,0,0,1-1.19.78,3.22,3.22,0,0,1-1.23.25,2.18,2.18,0,0,1-1.57-.57,2.13,2.13,0,0,1-.32-2.51,2,2,0,0,1,.71-.72,2.93,2.93,0,0,1,1.08-.4,12.93,12.93,0,0,1,1.53-.12,5.28,5.28,0,0,0,1.61-.24,3.19,3.19,0,0,0,.14-.81.77.77,0,0,0-.3-.65,2,2,0,0,0-1.22-.33,2.13,2.13,0,0,0-1.23.33,1.9,1.9,0,0,0-.7.95l-1.2-.11a3.12,3.12,0,0,1,1.17-1.6,3.46,3.46,0,0,1,2-.55,3.16,3.16,0,0,1,2.06.62,1.46,1.46,0,0,1,.58,1.2,6,6,0,0,1-.16,1.3l-.39,1.74a6.23,6.23,0,0,0-.19,1.36,4.45,4.45,0,0,0,.15.95h-1.21A4.39,4.39,0,0,1,276.77,183Zm.44-2.68a3.69,3.69,0,0,1-.53.15c-.2,0-.52.07-1,.11a7.77,7.77,0,0,0-1.48.23,1.24,1.24,0,0,0-.64.46,1.11,1.11,0,0,0-.22.68,1.09,1.09,0,0,0,.34.83,1.44,1.44,0,0,0,1,.32,2.33,2.33,0,0,0,2-1.19A5.07,5.07,0,0,0,277.21,180.34Z"/><path d="M283.48,183.89l1.28-6.09h-1.07l.19-.92H285l.2-1a5,5,0,0,1,.33-1.08,1.3,1.3,0,0,1,.55-.54,2.13,2.13,0,0,1,1-.22,6.49,6.49,0,0,1,1.32.2l-.22,1a3.92,3.92,0,0,0-1-.16.71.71,0,0,0-.53.18,1.72,1.72,0,0,0-.32.83l-.16.75h1.34l-.19.92H286l-1.27,6.09Z"/><path d="M291.86,182.62a3.53,3.53,0,0,1-2.58,1.43,1.84,1.84,0,0,1-1.31-.47,1.51,1.51,0,0,1-.5-1.14,9,9,0,0,1,.23-1.52l.84-4h1.2l-.94,4.48a4.4,4.4,0,0,0-.12.87.8.8,0,0,0,.24.62,1,1,0,0,0,.71.22,2.18,2.18,0,0,0,1-.24,2.77,2.77,0,0,0,.82-.66,3.42,3.42,0,0,0,.57-1,8.63,8.63,0,0,0,.34-1.27l.63-3h1.2l-1.47,7h-1.1Z"/><path d="M299.74,181.5l1.16.12a3.47,3.47,0,0,1-1.15,1.65,3.16,3.16,0,0,1-2.15.78,2.86,2.86,0,0,1-1.42-.36,2.36,2.36,0,0,1-1-1.05,3.57,3.57,0,0,1-.34-1.56,4.92,4.92,0,0,1,.54-2.23,3.79,3.79,0,0,1,1.37-1.61,3.43,3.43,0,0,1,1.83-.52,2.62,2.62,0,0,1,2,.78,2.94,2.94,0,0,1,.75,2.12,6.41,6.41,0,0,1-.09,1.06h-5.16a2.62,2.62,0,0,0,0,.37,2.16,2.16,0,0,0,.46,1.5,1.4,1.4,0,0,0,1.1.52,2.21,2.21,0,0,0,1.21-.4A2.67,2.67,0,0,0,299.74,181.5Zm-3.47-1.73h3.93c0-.12,0-.21,0-.27a1.93,1.93,0,0,0-.45-1.37,1.5,1.5,0,0,0-1.15-.48,2.15,2.15,0,0,0-1.4.53A3.17,3.17,0,0,0,296.27,179.77Z"/><path d="M302.11,183.89l1.47-7h1.05l-.29,1.43a4.79,4.79,0,0,1,1.06-1.2,1.72,1.72,0,0,1,1.06-.39,1.94,1.94,0,0,1,.87.26l-.49,1.1a1.17,1.17,0,0,0-.67-.22,1.83,1.83,0,0,0-1.29.7,5.35,5.35,0,0,0-1,2.52l-.59,2.81Z"/><path d="M306.43,183.89l.19-.93,3.77-4.24q.41-.45.9-.93c-.57.06-1,.08-1.22.08h-2.61l.21-1h5.42l-.16.75-3.8,4.27c-.22.24-.54.57-1,1,.66,0,1.12-.06,1.36-.06h2.76l-.22,1Z"/><path d="M318.1,183a5,5,0,0,1-1.19.78,3.22,3.22,0,0,1-1.23.25,2.18,2.18,0,0,1-1.57-.57,2.13,2.13,0,0,1-.32-2.51,2,2,0,0,1,.71-.72,2.93,2.93,0,0,1,1.08-.4,12.93,12.93,0,0,1,1.53-.12,5.34,5.34,0,0,0,1.61-.24,3.19,3.19,0,0,0,.14-.81.77.77,0,0,0-.3-.65,2,2,0,0,0-1.22-.33,2.13,2.13,0,0,0-1.23.33,1.9,1.9,0,0,0-.7.95l-1.2-.11a3.12,3.12,0,0,1,1.17-1.6,3.46,3.46,0,0,1,2-.55,3.18,3.18,0,0,1,2.06.62,1.46,1.46,0,0,1,.58,1.2,6,6,0,0,1-.16,1.3l-.39,1.74a6.23,6.23,0,0,0-.19,1.36,4.45,4.45,0,0,0,.15.95h-1.21A4.39,4.39,0,0,1,318.1,183Zm.44-2.68a3.69,3.69,0,0,1-.53.15c-.2,0-.52.07-1,.11a7.77,7.77,0,0,0-1.47.23,1.24,1.24,0,0,0-.64.46,1.11,1.11,0,0,0-.22.68,1.09,1.09,0,0,0,.34.83,1.44,1.44,0,0,0,1,.32,2.33,2.33,0,0,0,2-1.19A5.07,5.07,0,0,0,318.54,180.34Z"/><path d="M324.81,183.89l2-9.68h6.29l-.23,1.1h-5l-.64,3.09h5.08l-.23,1.1H327l-.91,4.39Z"/><path d="M335.83,186.57l2-9.69H339l-.2,1a4.27,4.27,0,0,1,1.09-.88,2.21,2.21,0,0,1,1-.25,2.13,2.13,0,0,1,1.66.73,3,3,0,0,1,.66,2.09,5.3,5.3,0,0,1-.36,2A4.42,4.42,0,0,1,342,183a3.64,3.64,0,0,1-1.07.81,2.58,2.58,0,0,1-1.11.26,2.14,2.14,0,0,1-1.95-1.28l-.79,3.8Zm2.36-5.55a3.33,3.33,0,0,0,.12,1.09,1.42,1.42,0,0,0,.54.69,1.45,1.45,0,0,0,.87.27,1.89,1.89,0,0,0,1.66-1.16,4.91,4.91,0,0,0,.64-2.37,2,2,0,0,0-.43-1.37,1.34,1.34,0,0,0-1.06-.49,1.57,1.57,0,0,0-.84.24,2.49,2.49,0,0,0-.73.72,4.54,4.54,0,0,0-.55,1.17A4.39,4.39,0,0,0,338.19,181Z"/><path d="M343.94,183.89l1.46-7h1.06l-.3,1.43a5,5,0,0,1,1.06-1.2,1.76,1.76,0,0,1,1.06-.39,2,2,0,0,1,.88.26l-.49,1.1a1.2,1.2,0,0,0-.68-.22,1.83,1.83,0,0,0-1.29.7,5.36,5.36,0,0,0-1,2.52l-.6,2.81Z"/><path d="M348.65,181.23a4.88,4.88,0,0,1,1.21-3.4,3.33,3.33,0,0,1,2.61-1.11,2.7,2.7,0,0,1,2,.79,2.92,2.92,0,0,1,.78,2.14,5.17,5.17,0,0,1-.49,2.25,3.61,3.61,0,0,1-1.39,1.59,3.56,3.56,0,0,1-1.9.56,3.17,3.17,0,0,1-1.48-.35,2.52,2.52,0,0,1-1-1A3.08,3.08,0,0,1,348.65,181.23Zm1.19-.12a2.11,2.11,0,0,0,.48,1.5,1.59,1.59,0,0,0,1.21.51,2.06,2.06,0,0,0,.76-.15,2.39,2.39,0,0,0,.7-.47,3.58,3.58,0,0,0,.55-.73,4.89,4.89,0,0,0,.57-2.13,2.1,2.1,0,0,0-.48-1.47,1.56,1.56,0,0,0-1.2-.53,2,2,0,0,0-1,.27,2.77,2.77,0,0,0-.83.78,3.66,3.66,0,0,0-.55,1.2A4.86,4.86,0,0,0,349.84,181.11Z"/><path d="M355.37,186.57l2-9.69h1.1l-.21,1a4.47,4.47,0,0,1,1.1-.88,2.21,2.21,0,0,1,1-.25,2.13,2.13,0,0,1,1.66.73,3,3,0,0,1,.66,2.09,5.3,5.3,0,0,1-.36,2,4.42,4.42,0,0,1-.89,1.45,3.64,3.64,0,0,1-1.07.81,2.58,2.58,0,0,1-1.11.26,2.14,2.14,0,0,1-1.95-1.28l-.8,3.8Zm2.36-5.55a3.73,3.73,0,0,0,.11,1.09,1.5,1.5,0,0,0,.55.69,1.45,1.45,0,0,0,.87.27,1.89,1.89,0,0,0,1.66-1.16,4.89,4.89,0,0,0,.63-2.37,2,2,0,0,0-.42-1.37,1.35,1.35,0,0,0-1.06-.49,1.61,1.61,0,0,0-.85.24,2.59,2.59,0,0,0-.72.72,4.54,4.54,0,0,0-.55,1.17A4,4,0,0,0,357.73,181Z"/><path d="M363.69,181.23a4.92,4.92,0,0,1,1.2-3.4,3.36,3.36,0,0,1,2.62-1.11,2.73,2.73,0,0,1,2,.79,2.92,2.92,0,0,1,.78,2.14,5.32,5.32,0,0,1-.49,2.25,3.67,3.67,0,0,1-1.39,1.59,3.56,3.56,0,0,1-1.9.56,3.24,3.24,0,0,1-1.49-.35,2.56,2.56,0,0,1-1-1A3,3,0,0,1,363.69,181.23Zm1.19-.12a2.11,2.11,0,0,0,.48,1.5,1.56,1.56,0,0,0,1.2.51,2,2,0,0,0,.76-.15,2.27,2.27,0,0,0,.7-.47,3.25,3.25,0,0,0,.55-.73,3.74,3.74,0,0,0,.37-.87,4.15,4.15,0,0,0,.21-1.26,2.1,2.1,0,0,0-.48-1.47,1.57,1.57,0,0,0-1.21-.53,2,2,0,0,0-1,.27,2.8,2.8,0,0,0-.84.78,3.65,3.65,0,0,0-.54,1.2A4.86,4.86,0,0,0,364.88,181.11Z"/><path d="M371,183.89l1.47-7h1.06l-.3,1.43a4.79,4.79,0,0,1,1.06-1.2,1.74,1.74,0,0,1,1.06-.39,2,2,0,0,1,.88.26l-.49,1.1a1.22,1.22,0,0,0-.68-.22,1.83,1.83,0,0,0-1.29.7,5.35,5.35,0,0,0-1,2.52l-.59,2.81Z"/><path d="M380.33,181.33l1.2.13a4.09,4.09,0,0,1-1.28,1.95,3,3,0,0,1-1.88.64,2.46,2.46,0,0,1-1.85-.74,2.84,2.84,0,0,1-.71-2.07,6,6,0,0,1,.45-2.26,3.62,3.62,0,0,1,1.31-1.68,3.3,3.3,0,0,1,1.93-.58,2.44,2.44,0,0,1,1.79.64A2.21,2.21,0,0,1,382,179l-1.17.08a1.46,1.46,0,0,0-.39-1,1.37,1.37,0,0,0-1-.38,1.84,1.84,0,0,0-1.25.46,3,3,0,0,0-.83,1.38,5.79,5.79,0,0,0-.3,1.79,2,2,0,0,0,.4,1.34,1.25,1.25,0,0,0,1,.45,1.74,1.74,0,0,0,1.11-.44A2.92,2.92,0,0,0,380.33,181.33Z"/><path d="M382.21,183.89l1.47-7h1.19l-1.47,7Zm1.74-8.33.29-1.35h1.18l-.28,1.35Z"/><path d="M385.47,181.23a4.88,4.88,0,0,1,1.21-3.4,3.34,3.34,0,0,1,2.61-1.11,2.73,2.73,0,0,1,2,.79,3,3,0,0,1,.77,2.14,5.17,5.17,0,0,1-.49,2.25,3.61,3.61,0,0,1-1.39,1.59,3.55,3.55,0,0,1-1.89.56,3.18,3.18,0,0,1-1.49-.35,2.52,2.52,0,0,1-1-1A3.08,3.08,0,0,1,385.47,181.23Zm1.2-.12a2.11,2.11,0,0,0,.47,1.5,1.59,1.59,0,0,0,1.21.51,2.06,2.06,0,0,0,.76-.15,2.39,2.39,0,0,0,.7-.47,3.58,3.58,0,0,0,.55-.73,4.84,4.84,0,0,0,.37-.87,4.46,4.46,0,0,0,.2-1.26,2.1,2.1,0,0,0-.48-1.47,1.56,1.56,0,0,0-1.2-.53,2,2,0,0,0-1,.27,2.89,2.89,0,0,0-.83.78,3.66,3.66,0,0,0-.55,1.2A4.81,4.81,0,0,0,386.67,181.11Z"/><path d="M392.78,183.89l1.46-7h1.09l-.26,1.22a5.69,5.69,0,0,1,1.32-1,2.63,2.63,0,0,1,1.25-.33,1.85,1.85,0,0,1,1.34.46,1.65,1.65,0,0,1,.49,1.24,6.65,6.65,0,0,1-.18,1.22l-.89,4.25h-1.19l.93-4.44a5.56,5.56,0,0,0,.14-1,.73.73,0,0,0-.24-.57,1,1,0,0,0-.7-.22,2.32,2.32,0,0,0-1.63.66,4.26,4.26,0,0,0-1.06,2.27l-.68,3.26Z"/><path d="M405,183a5,5,0,0,1-1.19.78,3.14,3.14,0,0,1-1.23.25,2.14,2.14,0,0,1-1.56-.57,2,2,0,0,1-.6-1.47,2,2,0,0,1,.27-1,2,2,0,0,1,.71-.72,2.93,2.93,0,0,1,1.08-.4,12.93,12.93,0,0,1,1.53-.12,5.28,5.28,0,0,0,1.61-.24,2.8,2.8,0,0,0,.14-.81.77.77,0,0,0-.3-.65,1.93,1.93,0,0,0-1.22-.33A2.13,2.13,0,0,0,403,178a1.83,1.83,0,0,0-.69.95l-1.21-.11a3.23,3.23,0,0,1,1.17-1.6,3.48,3.48,0,0,1,2-.55,3.16,3.16,0,0,1,2.06.62,1.46,1.46,0,0,1,.58,1.2,6,6,0,0,1-.16,1.3l-.39,1.74a6.91,6.91,0,0,0-.19,1.36,4.45,4.45,0,0,0,.15.95h-1.21A5.28,5.28,0,0,1,405,183Zm.45-2.68a4.26,4.26,0,0,1-.54.15c-.19,0-.51.07-1,.11a7.49,7.49,0,0,0-1.47.23,1.23,1.23,0,0,0-.65.46,1.11,1.11,0,0,0-.22.68,1.09,1.09,0,0,0,.35.83,1.41,1.41,0,0,0,1,.32,2.3,2.3,0,0,0,2-1.19A5,5,0,0,0,405.47,180.34Z"/><path d="M412.54,182.87a2.89,2.89,0,0,1-2.14,1.18,2.15,2.15,0,0,1-1.66-.74,3.1,3.1,0,0,1-.66-2.14,5.22,5.22,0,0,1,.52-2.34,4,4,0,0,1,1.32-1.58,2.75,2.75,0,0,1,1.58-.53,2.12,2.12,0,0,1,2,1.26l.79-3.77h1.19l-2,9.68h-1.1ZM409.27,181a4,4,0,0,0,.14,1.16,1.59,1.59,0,0,0,.5.7,1.27,1.27,0,0,0,.84.28,1.86,1.86,0,0,0,1.47-.85,4.31,4.31,0,0,0,.88-2.77,1.84,1.84,0,0,0-.43-1.3,1.45,1.45,0,0,0-1.1-.47,1.7,1.7,0,0,0-.78.19,2.32,2.32,0,0,0-.7.65,4,4,0,0,0-.58,1.17A3.9,3.9,0,0,0,409.27,181Z"/><path d="M420.06,183a5,5,0,0,1-1.19.78,3.22,3.22,0,0,1-1.23.25,2.18,2.18,0,0,1-1.57-.57,2.13,2.13,0,0,1-.32-2.51,2,2,0,0,1,.71-.72,2.93,2.93,0,0,1,1.08-.4,12.93,12.93,0,0,1,1.53-.12,5.34,5.34,0,0,0,1.61-.24,3.19,3.19,0,0,0,.14-.81.77.77,0,0,0-.3-.65,2,2,0,0,0-1.22-.33,2.13,2.13,0,0,0-1.23.33,1.9,1.9,0,0,0-.7.95l-1.2-.11a3.12,3.12,0,0,1,1.17-1.6,3.46,3.46,0,0,1,2-.55,3.18,3.18,0,0,1,2.06.62,1.46,1.46,0,0,1,.58,1.2,6,6,0,0,1-.16,1.3l-.39,1.74a6.23,6.23,0,0,0-.19,1.36,4.45,4.45,0,0,0,.15.95H420.2A4.39,4.39,0,0,1,420.06,183Zm.44-2.68a3.69,3.69,0,0,1-.53.15c-.2,0-.52.07-1,.11a7.77,7.77,0,0,0-1.47.23,1.24,1.24,0,0,0-.64.46,1.11,1.11,0,0,0-.22.68,1.09,1.09,0,0,0,.34.83,1.44,1.44,0,0,0,1,.32,2.33,2.33,0,0,0,2-1.19A5.07,5.07,0,0,0,420.5,180.34Z"/><path d="M426,186.57l2-9.69h1.1l-.2,1A4.27,4.27,0,0,1,430,177a2.21,2.21,0,0,1,1-.25,2.13,2.13,0,0,1,1.66.73,3,3,0,0,1,.66,2.09,5.3,5.3,0,0,1-.36,2,4.42,4.42,0,0,1-.89,1.45,3.64,3.64,0,0,1-1.07.81,2.58,2.58,0,0,1-1.11.26,2.14,2.14,0,0,1-1.95-1.28l-.79,3.8Zm2.36-5.55a3.33,3.33,0,0,0,.12,1.09,1.42,1.42,0,0,0,.54.69,1.45,1.45,0,0,0,.87.27,1.89,1.89,0,0,0,1.66-1.16,4.8,4.8,0,0,0,.64-2.37,2,2,0,0,0-.43-1.37,1.34,1.34,0,0,0-1.06-.49,1.57,1.57,0,0,0-.84.24,2.61,2.61,0,0,0-.73.72,4.54,4.54,0,0,0-.55,1.17A4.39,4.39,0,0,0,428.38,181Z"/><path d="M434.34,181.23a4.88,4.88,0,0,1,1.21-3.4,3.33,3.33,0,0,1,2.61-1.11,2.7,2.7,0,0,1,2,.79,2.92,2.92,0,0,1,.78,2.14,5.17,5.17,0,0,1-.49,2.25,3.67,3.67,0,0,1-1.39,1.59,3.56,3.56,0,0,1-1.9.56,3.24,3.24,0,0,1-1.49-.35,2.56,2.56,0,0,1-1-1A3.08,3.08,0,0,1,434.34,181.23Zm1.19-.12a2.11,2.11,0,0,0,.48,1.5,1.59,1.59,0,0,0,1.21.51A2.1,2.1,0,0,0,438,183a2.39,2.39,0,0,0,.7-.47,4,4,0,0,0,.55-.73,4.89,4.89,0,0,0,.57-2.13,2.1,2.1,0,0,0-.48-1.47,1.57,1.57,0,0,0-1.21-.53,2,2,0,0,0-1,.27,2.66,2.66,0,0,0-.83.78,3.47,3.47,0,0,0-.55,1.2A4.86,4.86,0,0,0,435.53,181.11Z"/><path d="M441.65,183.89l1.46-7h1.06l-.3,1.43a4.79,4.79,0,0,1,1.06-1.2,1.74,1.74,0,0,1,1.06-.39,2,2,0,0,1,.88.26l-.49,1.1a1.22,1.22,0,0,0-.68-.22,1.83,1.83,0,0,0-1.29.7,5.36,5.36,0,0,0-1,2.52l-.6,2.81Z"/><path d="M449.81,183.89l2-9.68H453l-2,9.68Z"/><path d="M453.12,181.23a4.88,4.88,0,0,1,1.21-3.4,3.33,3.33,0,0,1,2.61-1.11,2.7,2.7,0,0,1,2,.79,2.92,2.92,0,0,1,.78,2.14,5.17,5.17,0,0,1-.49,2.25,3.67,3.67,0,0,1-1.39,1.59,3.56,3.56,0,0,1-1.9.56,3.24,3.24,0,0,1-1.49-.35,2.56,2.56,0,0,1-1-1A3.08,3.08,0,0,1,453.12,181.23Zm1.19-.12a2.11,2.11,0,0,0,.48,1.5,1.59,1.59,0,0,0,1.21.51,2.06,2.06,0,0,0,.76-.15,2.39,2.39,0,0,0,.7-.47,4,4,0,0,0,.55-.73,4.89,4.89,0,0,0,.57-2.13,2.1,2.1,0,0,0-.48-1.47,1.57,1.57,0,0,0-1.21-.53,2,2,0,0,0-1,.27,2.66,2.66,0,0,0-.83.78,3.47,3.47,0,0,0-.55,1.2A4.86,4.86,0,0,0,454.31,181.11Z"/><path d="M460.54,181.49l1.19-.07a2.34,2.34,0,0,0,.16.88,1.25,1.25,0,0,0,.59.59,2.07,2.07,0,0,0,1,.23,1.84,1.84,0,0,0,1.19-.32.92.92,0,0,0,.39-.74.94.94,0,0,0-.23-.59,3.91,3.91,0,0,0-1.2-.68,11.79,11.79,0,0,1-1.21-.57,2,2,0,0,1-.66-.64,1.55,1.55,0,0,1-.23-.84,1.86,1.86,0,0,1,.66-1.43,2.7,2.7,0,0,1,1.85-.59,2.93,2.93,0,0,1,2,.61,2.14,2.14,0,0,1,.72,1.61l-1.17.08a1.37,1.37,0,0,0-.45-1,1.79,1.79,0,0,0-1.2-.37,1.47,1.47,0,0,0-1,.29.79.79,0,0,0-.34.61.76.76,0,0,0,.29.58,5.14,5.14,0,0,0,1,.53,7.12,7.12,0,0,1,1.73.94,1.76,1.76,0,0,1,.56,1.33,1.8,1.8,0,0,1-.32,1,2.13,2.13,0,0,1-1,.81,3.73,3.73,0,0,1-1.55.3,3.51,3.51,0,0,1-2.07-.6A2.17,2.17,0,0,1,460.54,181.49Z"/><path d="M470.35,186.57l2-9.69h1.1l-.2,1a4.29,4.29,0,0,1,1.1-.88,2.25,2.25,0,0,1,2.69.48,3,3,0,0,1,.66,2.09,5.11,5.11,0,0,1-.37,2,4.26,4.26,0,0,1-.89,1.45,3.64,3.64,0,0,1-1.07.81,2.57,2.57,0,0,1-1.1.26,2.15,2.15,0,0,1-2-1.28l-.79,3.8Zm2.37-5.55a3.4,3.4,0,0,0,.11,1.09,1.42,1.42,0,0,0,.54.69,1.45,1.45,0,0,0,.87.27,1.9,1.9,0,0,0,1.67-1.16,4.89,4.89,0,0,0,.63-2.37,2,2,0,0,0-.43-1.37,1.32,1.32,0,0,0-1.06-.49,1.57,1.57,0,0,0-.84.24,2.46,2.46,0,0,0-.72.72,4.24,4.24,0,0,0-.56,1.17A4.33,4.33,0,0,0,472.72,181Z"/><path d="M483.61,181.5l1.16.12a3.54,3.54,0,0,1-1.15,1.65,3.18,3.18,0,0,1-2.15.78,2.89,2.89,0,0,1-1.43-.36,2.4,2.4,0,0,1-1-1.05,3.44,3.44,0,0,1-.34-1.56,5,5,0,0,1,.53-2.23,3.81,3.81,0,0,1,1.38-1.61,3.38,3.38,0,0,1,1.83-.52,2.65,2.65,0,0,1,2,.78,2.94,2.94,0,0,1,.75,2.12,6.41,6.41,0,0,1-.09,1.06H480a2.62,2.62,0,0,0,0,.37,2.2,2.2,0,0,0,.45,1.5,1.4,1.4,0,0,0,1.11.52,2.15,2.15,0,0,0,1.2-.4A2.62,2.62,0,0,0,483.61,181.5Zm-3.47-1.73h3.93c0-.12,0-.21,0-.27a1.93,1.93,0,0,0-.45-1.37,1.52,1.52,0,0,0-1.16-.48,2.12,2.12,0,0,0-1.39.53A3.1,3.1,0,0,0,480.14,179.77Z"/><path d="M486.09,181.49l1.2-.07a2.35,2.35,0,0,0,.15.88,1.25,1.25,0,0,0,.59.59,2.07,2.07,0,0,0,1,.23,1.82,1.82,0,0,0,1.19-.32.93.93,0,0,0,.4-.74.9.9,0,0,0-.24-.59,3.82,3.82,0,0,0-1.19-.68,10.78,10.78,0,0,1-1.21-.57,2,2,0,0,1-.67-.64,1.55,1.55,0,0,1-.23-.84,1.86,1.86,0,0,1,.66-1.43,2.7,2.7,0,0,1,1.85-.59,2.93,2.93,0,0,1,2,.61,2.14,2.14,0,0,1,.72,1.61l-1.17.08a1.37,1.37,0,0,0-.45-1,1.78,1.78,0,0,0-1.19-.37,1.48,1.48,0,0,0-1,.29.79.79,0,0,0-.34.61.74.74,0,0,0,.3.58,4.68,4.68,0,0,0,1,.53,6.92,6.92,0,0,1,1.73.94,1.77,1.77,0,0,1,.57,1.33,1.88,1.88,0,0,1-.32,1,2.21,2.21,0,0,1-1,.81,3.7,3.7,0,0,1-1.55.3,3.46,3.46,0,0,1-2.06-.6A2.15,2.15,0,0,1,486.09,181.49Z"/><path d="M493,181.23a4.88,4.88,0,0,1,1.21-3.4,3.33,3.33,0,0,1,2.61-1.11,2.7,2.7,0,0,1,2,.79,2.92,2.92,0,0,1,.78,2.14,5.17,5.17,0,0,1-.49,2.25,3.61,3.61,0,0,1-1.39,1.59,3.56,3.56,0,0,1-1.9.56,3.17,3.17,0,0,1-1.48-.35,2.52,2.52,0,0,1-1-1A3.08,3.08,0,0,1,493,181.23Zm1.19-.12a2.11,2.11,0,0,0,.48,1.5,1.59,1.59,0,0,0,1.21.51,2.06,2.06,0,0,0,.76-.15,2.39,2.39,0,0,0,.7-.47,3.58,3.58,0,0,0,.55-.73,4.89,4.89,0,0,0,.57-2.13,2.1,2.1,0,0,0-.48-1.47,1.57,1.57,0,0,0-1.21-.53,2,2,0,0,0-1,.27,2.77,2.77,0,0,0-.83.78,3.66,3.66,0,0,0-.55,1.2A4.86,4.86,0,0,0,494.14,181.11Z"/><path d="M500.37,181.49l1.19-.07a2.34,2.34,0,0,0,.16.88,1.25,1.25,0,0,0,.59.59,2.07,2.07,0,0,0,1,.23,1.84,1.84,0,0,0,1.19-.32.92.92,0,0,0,.39-.74.94.94,0,0,0-.23-.59,4,4,0,0,0-1.19-.68,11.27,11.27,0,0,1-1.22-.57,2,2,0,0,1-.66-.64,1.55,1.55,0,0,1-.23-.84,1.86,1.86,0,0,1,.66-1.43,2.7,2.7,0,0,1,1.85-.59,2.93,2.93,0,0,1,2,.61,2.14,2.14,0,0,1,.72,1.61l-1.17.08a1.37,1.37,0,0,0-.45-1,1.78,1.78,0,0,0-1.19-.37,1.48,1.48,0,0,0-1,.29.79.79,0,0,0-.34.61.76.76,0,0,0,.29.58,5.14,5.14,0,0,0,1,.53,7.12,7.12,0,0,1,1.73.94,1.77,1.77,0,0,1,.57,1.33,1.88,1.88,0,0,1-.32,1,2.21,2.21,0,0,1-1,.81,3.73,3.73,0,0,1-1.55.3,3.51,3.51,0,0,1-2.07-.6A2.17,2.17,0,0,1,500.37,181.49Z"/><path d="M257,200.11l1.46-7h1.09l-.26,1.22a5.69,5.69,0,0,1,1.32-1,2.63,2.63,0,0,1,1.25-.33,1.89,1.89,0,0,1,1.34.46,1.64,1.64,0,0,1,.48,1.24,6.38,6.38,0,0,1-.17,1.23l-.89,4.24h-1.19l.93-4.44a5.31,5.31,0,0,0,.14-1,.75.75,0,0,0-.24-.57,1.06,1.06,0,0,0-.7-.21,2.32,2.32,0,0,0-1.63.66,4.22,4.22,0,0,0-1.06,2.26l-.68,3.26Z"/><path d="M269.68,197.73l1.16.12a3.52,3.52,0,0,1-1.16,1.64,3.15,3.15,0,0,1-2.14.78,2.89,2.89,0,0,1-1.43-.36,2.29,2.29,0,0,1-1-1,3.41,3.41,0,0,1-.34-1.56,4.91,4.91,0,0,1,.53-2.23,3.76,3.76,0,0,1,1.37-1.6,3.44,3.44,0,0,1,1.83-.53,2.66,2.66,0,0,1,2,.78,2.94,2.94,0,0,1,.75,2.13,5.48,5.48,0,0,1-.1,1.05H266a2.49,2.49,0,0,0,0,.37,2.2,2.2,0,0,0,.45,1.5,1.4,1.4,0,0,0,1.1.52,2.13,2.13,0,0,0,1.21-.4A2.64,2.64,0,0,0,269.68,197.73ZM266.2,196h3.94v-.26a1.94,1.94,0,0,0-.45-1.38,1.49,1.49,0,0,0-1.15-.48,2.15,2.15,0,0,0-1.4.53A3.17,3.17,0,0,0,266.2,196Z"/><path d="M276.88,197.56l1.2.12a4,4,0,0,1-1.28,1.95,3,3,0,0,1-1.88.64,2.48,2.48,0,0,1-1.86-.74,2.87,2.87,0,0,1-.71-2.07,6,6,0,0,1,.46-2.25,3.69,3.69,0,0,1,1.3-1.69,3.36,3.36,0,0,1,1.94-.58,2.45,2.45,0,0,1,1.79.64,2.24,2.24,0,0,1,.66,1.69l-1.17.08a1.47,1.47,0,0,0-.39-1,1.36,1.36,0,0,0-1-.37,1.86,1.86,0,0,0-1.25.45,3.09,3.09,0,0,0-.83,1.38,5.84,5.84,0,0,0-.3,1.79,2,2,0,0,0,.4,1.35,1.25,1.25,0,0,0,1,.45,1.72,1.72,0,0,0,1.11-.45A2.88,2.88,0,0,0,276.88,197.56Z"/><path d="M284,197.73l1.17.12a3.59,3.59,0,0,1-1.16,1.64,3.16,3.16,0,0,1-2.15.78,2.88,2.88,0,0,1-1.42-.36,2.29,2.29,0,0,1-1-1,3.41,3.41,0,0,1-.34-1.56,4.91,4.91,0,0,1,.53-2.23,3.76,3.76,0,0,1,1.37-1.6,3.44,3.44,0,0,1,1.83-.53,2.66,2.66,0,0,1,2,.78,3,3,0,0,1,.74,2.13,6.38,6.38,0,0,1-.09,1.05h-5.16a2.62,2.62,0,0,0,0,.37,2.16,2.16,0,0,0,.46,1.5,1.4,1.4,0,0,0,1.1.52,2.13,2.13,0,0,0,1.21-.4A2.62,2.62,0,0,0,284,197.73ZM280.48,196h3.94v-.26a1.94,1.94,0,0,0-.45-1.38,1.5,1.5,0,0,0-1.15-.48,2.15,2.15,0,0,0-1.4.53A3.17,3.17,0,0,0,280.48,196Z"/><path d="M286.44,197.71l1.19-.07a2.1,2.1,0,0,0,.16.88,1.22,1.22,0,0,0,.58.59,2,2,0,0,0,1,.24,1.87,1.87,0,0,0,1.18-.32.92.92,0,0,0,.4-.75.87.87,0,0,0-.24-.58,3.6,3.6,0,0,0-1.19-.69,11.79,11.79,0,0,1-1.21-.57,1.88,1.88,0,0,1-.67-.64,1.55,1.55,0,0,1-.22-.84,1.84,1.84,0,0,1,.66-1.42,2.66,2.66,0,0,1,1.85-.6,3,3,0,0,1,2,.61,2.11,2.11,0,0,1,.71,1.61l-1.16.08a1.35,1.35,0,0,0-.45-1,1.74,1.74,0,0,0-1.2-.37,1.46,1.46,0,0,0-1,.28.8.8,0,0,0-.35.61.76.76,0,0,0,.3.59,4.82,4.82,0,0,0,1,.52,6.72,6.72,0,0,1,1.73.94,1.79,1.79,0,0,1,.57,1.33,1.86,1.86,0,0,1-.32,1,2.21,2.21,0,0,1-1,.8,3.65,3.65,0,0,1-1.54.3,3.51,3.51,0,0,1-2.07-.6A2.1,2.1,0,0,1,286.44,197.71Z"/><path d="M297.81,199.24a4.37,4.37,0,0,1-1.2.78,3,3,0,0,1-1.22.25,2.18,2.18,0,0,1-1.57-.57,2.12,2.12,0,0,1-.32-2.5,2,2,0,0,1,.71-.73,3.12,3.12,0,0,1,1.08-.39,12.29,12.29,0,0,1,1.53-.13,5.34,5.34,0,0,0,1.61-.24,3.12,3.12,0,0,0,.14-.81.77.77,0,0,0-.31-.65,1.9,1.9,0,0,0-1.21-.33,2.13,2.13,0,0,0-1.23.33,1.9,1.9,0,0,0-.7.95l-1.21-.11a3.16,3.16,0,0,1,1.18-1.59,3.46,3.46,0,0,1,2-.56,3.18,3.18,0,0,1,2.06.62,1.46,1.46,0,0,1,.58,1.2,6,6,0,0,1-.16,1.3l-.39,1.75a6.08,6.08,0,0,0-.19,1.35,4.36,4.36,0,0,0,.15,1H298A4.39,4.39,0,0,1,297.81,199.24Zm.44-2.68a2.26,2.26,0,0,1-.54.15c-.19,0-.51.07-1,.11a7.58,7.58,0,0,0-1.47.24,1.24,1.24,0,0,0-.65.45,1.22,1.22,0,0,0-.21.69,1.06,1.06,0,0,0,.34.82,1.38,1.38,0,0,0,1,.33,2.23,2.23,0,0,0,1.14-.32,2.27,2.27,0,0,0,.87-.87A5.24,5.24,0,0,0,298.25,196.56Z"/><path d="M300.6,200.11l1.47-7h1.05l-.29,1.43a4.79,4.79,0,0,1,1.06-1.2,1.72,1.72,0,0,1,1.06-.39,2.08,2.08,0,0,1,.87.26l-.49,1.11a1.12,1.12,0,0,0-.68-.23,1.87,1.87,0,0,0-1.28.7,5.35,5.35,0,0,0-1,2.52l-.59,2.81Z"/><path d="M305.06,200.11l1.46-7h1.2l-1.47,7Zm1.74-8.32.28-1.36h1.19l-.28,1.36Z"/><path d="M308.32,197.45a4.88,4.88,0,0,1,1.21-3.4,3.33,3.33,0,0,1,2.61-1.11,2.73,2.73,0,0,1,2,.79,2.93,2.93,0,0,1,.78,2.14,5.14,5.14,0,0,1-.49,2.25,3.61,3.61,0,0,1-1.39,1.59,3.56,3.56,0,0,1-1.9.56,3.24,3.24,0,0,1-1.49-.35,2.43,2.43,0,0,1-1-1A3.08,3.08,0,0,1,308.32,197.45Zm1.19-.12a2.11,2.11,0,0,0,.48,1.5,1.59,1.59,0,0,0,1.21.52,2.07,2.07,0,0,0,.76-.16,2.21,2.21,0,0,0,.7-.47,3.61,3.61,0,0,0,.55-.72,4.52,4.52,0,0,0,.36-.88,4,4,0,0,0,.21-1.25,2.11,2.11,0,0,0-.48-1.48,1.56,1.56,0,0,0-1.21-.52,2.09,2.09,0,0,0-1,.26,2.58,2.58,0,0,0-.83.79,3.34,3.34,0,0,0-.55,1.19A4.93,4.93,0,0,0,309.51,197.33Z"/><path d="M315.74,197.71l1.19-.07a2.27,2.27,0,0,0,.16.88,1.25,1.25,0,0,0,.59.59,2,2,0,0,0,1,.24,1.9,1.9,0,0,0,1.19-.32.94.94,0,0,0,.39-.75.91.91,0,0,0-.23-.58,3.68,3.68,0,0,0-1.2-.69,11.79,11.79,0,0,1-1.21-.57,1.93,1.93,0,0,1-.66-.64,1.55,1.55,0,0,1-.23-.84,1.84,1.84,0,0,1,.66-1.42,2.66,2.66,0,0,1,1.85-.6,3,3,0,0,1,2,.61,2.15,2.15,0,0,1,.72,1.61l-1.17.08a1.35,1.35,0,0,0-.45-1,1.74,1.74,0,0,0-1.2-.37,1.46,1.46,0,0,0-1,.28.73.73,0,0,0-.05,1.2,5.31,5.31,0,0,0,1,.52,7.12,7.12,0,0,1,1.73.94,1.78,1.78,0,0,1,.56,1.33,1.93,1.93,0,0,1-.31,1,2.26,2.26,0,0,1-1,.8,3.73,3.73,0,0,1-1.55.3,3.51,3.51,0,0,1-2.07-.6A2.15,2.15,0,0,1,315.74,197.71Z"/><path d="M325.55,202.8l2-9.7h1.1l-.2,1a4.15,4.15,0,0,1,1.1-.89,2.14,2.14,0,0,1,1-.25,2.18,2.18,0,0,1,1.67.73,3,3,0,0,1,.66,2.09,5.16,5.16,0,0,1-.37,2,4.36,4.36,0,0,1-.89,1.45,3.64,3.64,0,0,1-1.07.8,2.57,2.57,0,0,1-1.1.26,2.15,2.15,0,0,1-2-1.28l-.79,3.81Zm2.37-5.55a3.48,3.48,0,0,0,.11,1.09,1.52,1.52,0,0,0,.54.69,1.44,1.44,0,0,0,.87.26,1.88,1.88,0,0,0,1.67-1.16,4.88,4.88,0,0,0,.63-2.36,2,2,0,0,0-.43-1.38,1.34,1.34,0,0,0-1.06-.48,1.57,1.57,0,0,0-.84.24,2.46,2.46,0,0,0-.72.72,4.87,4.87,0,0,0-.77,2.38Z"/><path d="M338.39,199.24a4.68,4.68,0,0,1-1.2.78,3,3,0,0,1-1.23.25,2.17,2.17,0,0,1-1.56-.57,1.93,1.93,0,0,1-.6-1.46,2,2,0,0,1,.27-1,2.16,2.16,0,0,1,.71-.73,3.28,3.28,0,0,1,1.08-.39,12.29,12.29,0,0,1,1.53-.13,5.42,5.42,0,0,0,1.62-.24,3.12,3.12,0,0,0,.14-.81.8.8,0,0,0-.31-.65,1.92,1.92,0,0,0-1.21-.33,2.13,2.13,0,0,0-1.23.33,1.85,1.85,0,0,0-.7.95l-1.21-.11a3.2,3.2,0,0,1,1.17-1.59,3.5,3.5,0,0,1,2-.56,3.2,3.2,0,0,1,2.06.62,1.49,1.49,0,0,1,.58,1.2,6,6,0,0,1-.17,1.3l-.39,1.75a6.61,6.61,0,0,0-.18,1.35,4.9,4.9,0,0,0,.14,1h-1.2A3.76,3.76,0,0,1,338.39,199.24Zm.44-2.68a2.39,2.39,0,0,1-.54.15c-.19,0-.51.07-1,.11a7.44,7.44,0,0,0-1.47.24,1.2,1.2,0,0,0-.65.45,1.23,1.23,0,0,0-.22.69,1.07,1.07,0,0,0,.35.82,1.38,1.38,0,0,0,1,.33,2.29,2.29,0,0,0,1.14-.32,2.32,2.32,0,0,0,.86-.87A5,5,0,0,0,338.83,196.56Z"/><path d="M341.18,200.11l1.46-7h1.06l-.3,1.43a5,5,0,0,1,1.06-1.2,1.76,1.76,0,0,1,1.06-.39,2.12,2.12,0,0,1,.88.26l-.49,1.11a1.14,1.14,0,0,0-.68-.23,1.89,1.89,0,0,0-1.29.7,5.36,5.36,0,0,0-1,2.52l-.6,2.81Z"/><path d="M350.41,199.24a4.68,4.68,0,0,1-1.2.78,3,3,0,0,1-1.23.25,2.17,2.17,0,0,1-1.56-.57,1.92,1.92,0,0,1-.59-1.46,2.06,2.06,0,0,1,.26-1,2.16,2.16,0,0,1,.71-.73,3.25,3.25,0,0,1,1.09-.39,11.87,11.87,0,0,1,1.52-.13,5.42,5.42,0,0,0,1.62-.24,3.12,3.12,0,0,0,.14-.81.8.8,0,0,0-.31-.65,1.9,1.9,0,0,0-1.21-.33,2.13,2.13,0,0,0-1.23.33,1.9,1.9,0,0,0-.7.95l-1.21-.11a3.2,3.2,0,0,1,1.17-1.59,3.5,3.5,0,0,1,2-.56,3.2,3.2,0,0,1,2.06.62,1.49,1.49,0,0,1,.58,1.2,6,6,0,0,1-.17,1.3l-.39,1.75a6.61,6.61,0,0,0-.18,1.35,4.9,4.9,0,0,0,.14,1h-1.2A3.76,3.76,0,0,1,350.41,199.24Zm.44-2.68a2.39,2.39,0,0,1-.54.15c-.19,0-.51.07-1,.11a7.58,7.58,0,0,0-1.47.24,1.2,1.2,0,0,0-.65.45,1.23,1.23,0,0,0-.22.69,1.07,1.07,0,0,0,.35.82,1.38,1.38,0,0,0,1,.33,2.29,2.29,0,0,0,1.14-.32,2.32,2.32,0,0,0,.86-.87A5,5,0,0,0,350.85,196.56Z"/><path d="M357,200.11l1.46-7h1.06l-.3,1.43a4.79,4.79,0,0,1,1.06-1.2,1.74,1.74,0,0,1,1.06-.39,2.12,2.12,0,0,1,.88.26l-.49,1.11a1.16,1.16,0,0,0-.68-.23,1.87,1.87,0,0,0-1.29.7,5.45,5.45,0,0,0-1,2.52l-.59,2.81Z"/><path d="M366.61,197.73l1.16.12a3.56,3.56,0,0,1-1.15,1.64,3.2,3.2,0,0,1-2.15.78,2.89,2.89,0,0,1-1.43-.36,2.29,2.29,0,0,1-1-1,3.41,3.41,0,0,1-.34-1.56,5,5,0,0,1,.53-2.23,3.71,3.71,0,0,1,1.38-1.6,3.38,3.38,0,0,1,1.82-.53,2.66,2.66,0,0,1,2,.78,2.94,2.94,0,0,1,.75,2.13,5.48,5.48,0,0,1-.1,1.05h-5.16c0,.14,0,.26,0,.37a2.2,2.2,0,0,0,.45,1.5,1.4,1.4,0,0,0,1.1.52,2.11,2.11,0,0,0,1.21-.4A2.64,2.64,0,0,0,366.61,197.73ZM363.13,196h3.94v-.26a1.94,1.94,0,0,0-.44-1.38,1.52,1.52,0,0,0-1.16-.48,2.15,2.15,0,0,0-1.4.53A3.17,3.17,0,0,0,363.13,196Z"/><path d="M369.09,197.71l1.19-.07a2.27,2.27,0,0,0,.16.88,1.25,1.25,0,0,0,.59.59,2,2,0,0,0,1,.24,1.9,1.9,0,0,0,1.19-.32.94.94,0,0,0,.39-.75.91.91,0,0,0-.23-.58,3.8,3.8,0,0,0-1.2-.69,11.79,11.79,0,0,1-1.21-.57,1.93,1.93,0,0,1-.66-.64,1.55,1.55,0,0,1-.23-.84,1.84,1.84,0,0,1,.66-1.42,2.66,2.66,0,0,1,1.85-.6,3,3,0,0,1,2,.61,2.15,2.15,0,0,1,.72,1.61l-1.17.08a1.35,1.35,0,0,0-.45-1,1.74,1.74,0,0,0-1.2-.37,1.46,1.46,0,0,0-1,.28.73.73,0,0,0,0,1.2,5.31,5.31,0,0,0,1,.52,7.12,7.12,0,0,1,1.73.94,1.78,1.78,0,0,1,.56,1.33,1.86,1.86,0,0,1-.32,1,2.18,2.18,0,0,1-1,.8,3.73,3.73,0,0,1-1.55.3,3.51,3.51,0,0,1-2.07-.6A2.15,2.15,0,0,1,369.09,197.71Z"/><path d="M378.53,199.14l-.2,1a3.51,3.51,0,0,1-.83.11,1.74,1.74,0,0,1-1.14-.35.9.9,0,0,1-.31-.72,6.4,6.4,0,0,1,.17-1.06l.85-4.07h-.95l.2-.93h.94l.36-1.72,1.37-.83-.53,2.55h1.17l-.2.93h-1.17l-.81,3.87a7.47,7.47,0,0,0-.15.88.43.43,0,0,0,.12.33.62.62,0,0,0,.4.11A3,3,0,0,0,378.53,199.14Z"/><path d="M384.22,199.24a4.52,4.52,0,0,1-1.2.78,3,3,0,0,1-1.22.25,2.18,2.18,0,0,1-1.57-.57,1.92,1.92,0,0,1-.59-1.46,2.06,2.06,0,0,1,.26-1,2.16,2.16,0,0,1,.71-.73,3.25,3.25,0,0,1,1.09-.39,11.87,11.87,0,0,1,1.52-.13,5.42,5.42,0,0,0,1.62-.24,3.12,3.12,0,0,0,.14-.81.77.77,0,0,0-.31-.65,1.9,1.9,0,0,0-1.21-.33,2.13,2.13,0,0,0-1.23.33,1.9,1.9,0,0,0-.7.95l-1.21-.11a3.2,3.2,0,0,1,1.17-1.59,3.5,3.5,0,0,1,2-.56,3.18,3.18,0,0,1,2.06.62,1.46,1.46,0,0,1,.58,1.2,6,6,0,0,1-.17,1.3l-.39,1.75a6.61,6.61,0,0,0-.18,1.35,4.9,4.9,0,0,0,.14,1h-1.2A3.76,3.76,0,0,1,384.22,199.24Zm.44-2.68a2.39,2.39,0,0,1-.54.15c-.19,0-.51.07-1,.11a7.58,7.58,0,0,0-1.47.24,1.2,1.2,0,0,0-.65.45,1.23,1.23,0,0,0-.22.69,1.07,1.07,0,0,0,.35.82,1.38,1.38,0,0,0,1,.33,2.29,2.29,0,0,0,1.14-.32,2.34,2.34,0,0,0,.87-.87A5.24,5.24,0,0,0,384.66,196.56Z"/><path d="M391.8,198.84a3.55,3.55,0,0,1-2.59,1.43,1.86,1.86,0,0,1-1.31-.47,1.49,1.49,0,0,1-.49-1.13,8.4,8.4,0,0,1,.22-1.52l.84-4.05h1.2l-.94,4.48a4.59,4.59,0,0,0-.12.87.8.8,0,0,0,.24.62,1,1,0,0,0,.71.22,2.12,2.12,0,0,0,1-.24,2.53,2.53,0,0,0,.83-.66,3.48,3.48,0,0,0,.56-1,8.86,8.86,0,0,0,.34-1.28l.63-3h1.2l-1.47,7h-1.1Z"/><path d="M394.53,200.11l1.46-7h1.06l-.3,1.43a5,5,0,0,1,1.06-1.2,1.76,1.76,0,0,1,1.06-.39,2.12,2.12,0,0,1,.88.26l-.49,1.11a1.14,1.14,0,0,0-.68-.23,1.87,1.87,0,0,0-1.29.7,5.36,5.36,0,0,0-1,2.52l-.6,2.81Z"/><path d="M403.76,199.24a4.68,4.68,0,0,1-1.2.78,3,3,0,0,1-1.23.25,2.17,2.17,0,0,1-1.56-.57,1.92,1.92,0,0,1-.59-1.46,2,2,0,0,1,.26-1,2.16,2.16,0,0,1,.71-.73,3.28,3.28,0,0,1,1.08-.39,12.29,12.29,0,0,1,1.53-.13,5.42,5.42,0,0,0,1.62-.24,3.12,3.12,0,0,0,.14-.81.8.8,0,0,0-.31-.65,1.92,1.92,0,0,0-1.21-.33,2.13,2.13,0,0,0-1.23.33,1.9,1.9,0,0,0-.7.95l-1.21-.11A3.2,3.2,0,0,1,401,193.5a3.5,3.5,0,0,1,2-.56,3.2,3.2,0,0,1,2.06.62,1.49,1.49,0,0,1,.58,1.2,6,6,0,0,1-.17,1.3l-.39,1.75a6.61,6.61,0,0,0-.18,1.35,4.9,4.9,0,0,0,.14,1h-1.2A3.76,3.76,0,0,1,403.76,199.24Zm.44-2.68a2.39,2.39,0,0,1-.54.15c-.19,0-.51.07-1,.11a7.44,7.44,0,0,0-1.47.24,1.2,1.2,0,0,0-.65.45,1.23,1.23,0,0,0-.22.69,1.07,1.07,0,0,0,.35.82,1.38,1.38,0,0,0,1,.33,2.29,2.29,0,0,0,1.14-.32,2.32,2.32,0,0,0,.86-.87A5,5,0,0,0,404.2,196.56Z"/><path d="M406.55,200.11l1.46-7h1.06l-.3,1.43a5,5,0,0,1,1.06-1.2,1.76,1.76,0,0,1,1.06-.39,2.12,2.12,0,0,1,.88.26l-.49,1.11a1.14,1.14,0,0,0-.68-.23,1.89,1.89,0,0,0-1.29.7,5.36,5.36,0,0,0-1,2.52l-.6,2.81Z"/><path d="M420,197.73l1.16.12a3.56,3.56,0,0,1-1.15,1.64,3.2,3.2,0,0,1-2.15.78,2.89,2.89,0,0,1-1.43-.36,2.29,2.29,0,0,1-1-1,3.41,3.41,0,0,1-.34-1.56,4.91,4.91,0,0,1,.53-2.23,3.71,3.71,0,0,1,1.38-1.6,3.38,3.38,0,0,1,1.82-.53,2.66,2.66,0,0,1,2,.78,2.94,2.94,0,0,1,.75,2.13,5.48,5.48,0,0,1-.1,1.05h-5.16a2.49,2.49,0,0,0,0,.37,2.2,2.2,0,0,0,.45,1.5,1.4,1.4,0,0,0,1.1.52,2.11,2.11,0,0,0,1.21-.4A2.64,2.64,0,0,0,420,197.73ZM416.48,196h3.94v-.26a1.94,1.94,0,0,0-.45-1.38,1.49,1.49,0,0,0-1.15-.48,2.15,2.15,0,0,0-1.4.53A3.17,3.17,0,0,0,416.48,196Z"/><path d="M422.23,200.11l2-9.68h1.2l-2,9.68Z"/><path d="M434.23,197.73l1.17.12a3.59,3.59,0,0,1-1.16,1.64,3.16,3.16,0,0,1-2.15.78,2.88,2.88,0,0,1-1.42-.36,2.29,2.29,0,0,1-1-1,3.41,3.41,0,0,1-.34-1.56,4.91,4.91,0,0,1,.53-2.23,3.76,3.76,0,0,1,1.37-1.6,3.44,3.44,0,0,1,1.83-.53,2.66,2.66,0,0,1,2,.78,3,3,0,0,1,.74,2.13,6.38,6.38,0,0,1-.09,1.05h-5.16a2.62,2.62,0,0,0,0,.37,2.16,2.16,0,0,0,.46,1.5,1.4,1.4,0,0,0,1.1.52,2.13,2.13,0,0,0,1.21-.4A2.62,2.62,0,0,0,434.23,197.73ZM430.76,196h3.94v-.26a1.94,1.94,0,0,0-.45-1.38,1.5,1.5,0,0,0-1.15-.48,2.15,2.15,0,0,0-1.4.53A3.17,3.17,0,0,0,430.76,196Z"/><path d="M441.13,199.32a3,3,0,0,1-2,1,2.16,2.16,0,0,1-1.65-.74,3,3,0,0,1-.67-2.11,5.42,5.42,0,0,1,.51-2.37,3.86,3.86,0,0,1,1.31-1.58,2.93,2.93,0,0,1,1.64-.53,2,2,0,0,1,1.16.36,2.52,2.52,0,0,1,.85,1.09l.27-1.29h1l-2,9.7h-1.19Zm-3.1-2.06a2.27,2.27,0,0,0,.43,1.53,1.32,1.32,0,0,0,1.07.5,1.74,1.74,0,0,0,1.09-.45,3.1,3.1,0,0,0,.9-1.34,4.67,4.67,0,0,0,.36-1.74,2,2,0,0,0-.44-1.35,1.43,1.43,0,0,0-1.09-.48,1.6,1.6,0,0,0-1.09.4,3.64,3.64,0,0,0-1,1.53A4.5,4.5,0,0,0,438,197.26Z"/><path d="M448.91,198.84a3.53,3.53,0,0,1-2.58,1.43,1.84,1.84,0,0,1-1.31-.47,1.47,1.47,0,0,1-.5-1.13,8.4,8.4,0,0,1,.22-1.52l.85-4.05h1.19l-.94,4.48a5.34,5.34,0,0,0-.11.87.8.8,0,0,0,.24.62,1,1,0,0,0,.71.22,2.18,2.18,0,0,0,1-.24,2.49,2.49,0,0,0,.82-.66,3.76,3.76,0,0,0,.57-1,9.2,9.2,0,0,0,.33-1.28l.64-3h1.19l-1.46,7h-1.11Z"/><path d="M451.59,200.11l1.47-7h1.19l-1.46,7Zm1.75-8.32.28-1.36h1.19l-.28,1.36Z"/><path d="M454.55,200.11l2-9.68h1.2l-2,9.68Z"/><path d="M457.6,200.11l1.47-7h1.19l-1.46,7Zm1.74-8.32.29-1.36h1.19l-.29,1.36Z"/><path d="M460.65,200.11l2-9.68h1.2l-.72,3.46a4,4,0,0,1,1-.73,2.17,2.17,0,0,1,1-.22,2.13,2.13,0,0,1,1.64.73,3.1,3.1,0,0,1,.66,2.14,5.09,5.09,0,0,1-.27,1.7,4.51,4.51,0,0,1-.65,1.3,4.32,4.32,0,0,1-.8.84,3.13,3.13,0,0,1-.86.46,2.34,2.34,0,0,1-.83.16,2.08,2.08,0,0,1-1.23-.37,2.33,2.33,0,0,1-.82-1.12l-.28,1.33Zm1.77-2.88v.23a2,2,0,0,0,.43,1.36,1.38,1.38,0,0,0,1.07.47,1.69,1.69,0,0,0,1.15-.44,3.09,3.09,0,0,0,.87-1.37,5.15,5.15,0,0,0,.33-1.71,2.07,2.07,0,0,0-.42-1.38,1.37,1.37,0,0,0-1.06-.48,1.7,1.7,0,0,0-1.18.49,3.81,3.81,0,0,0-.91,1.54A4.07,4.07,0,0,0,462.42,197.23Z"/><path d="M468.17,200.11l1.47-7h1.05l-.29,1.43a4.79,4.79,0,0,1,1.06-1.2,1.71,1.71,0,0,1,1.05-.39,2.08,2.08,0,0,1,.88.26l-.49,1.11a1.12,1.12,0,0,0-.68-.23,1.87,1.87,0,0,0-1.28.7,5.35,5.35,0,0,0-1,2.52l-.59,2.81Z"/><path d="M472.63,200.11l1.46-7h1.2l-1.47,7Zm1.74-8.32.28-1.36h1.19l-.28,1.36Z"/><path d="M475.89,197.45a4.88,4.88,0,0,1,1.21-3.4,3.33,3.33,0,0,1,2.61-1.11,2.75,2.75,0,0,1,2,.79,2.93,2.93,0,0,1,.78,2.14,5.14,5.14,0,0,1-.49,2.25,3.61,3.61,0,0,1-1.39,1.59,3.56,3.56,0,0,1-1.9.56,3.24,3.24,0,0,1-1.49-.35,2.43,2.43,0,0,1-1-1A3.08,3.08,0,0,1,475.89,197.45Zm1.19-.12a2.11,2.11,0,0,0,.48,1.5,1.59,1.59,0,0,0,1.21.52,2.12,2.12,0,0,0,.76-.16,2.07,2.07,0,0,0,.69-.47,3.31,3.31,0,0,0,.56-.72,4.52,4.52,0,0,0,.36-.88,4,4,0,0,0,.21-1.25,2.11,2.11,0,0,0-.48-1.48,1.56,1.56,0,0,0-1.21-.52,2.09,2.09,0,0,0-1,.26,2.58,2.58,0,0,0-.83.79,3.34,3.34,0,0,0-.55,1.19A4.93,4.93,0,0,0,477.08,197.33Z"/><path d="M483.53,200.11l.28-1.35h1.35l-.29,1.35Z"/><path d="M306.67,169.1l.73-3.48a3.5,3.5,0,0,1-1.33.59l.11-.51a4.49,4.49,0,0,0,.83-.45,4.64,4.64,0,0,0,.63-.47,2.79,2.79,0,0,0,.24-.31h.33l-1,4.63Z"/><path d="M336,169.1a2.78,2.78,0,0,1,.24-.69,2.22,2.22,0,0,1,.41-.53c.18-.16.51-.44,1-.84a6.42,6.42,0,0,0,.61-.52,1.77,1.77,0,0,0,.34-.48.84.84,0,0,0,.07-.35.73.73,0,0,0-.22-.54.75.75,0,0,0-.55-.22.8.8,0,0,0-.57.22,1.35,1.35,0,0,0-.35.72l-.55-.08a1.47,1.47,0,0,1,.47-1,1.42,1.42,0,0,1,1-.36,1.52,1.52,0,0,1,.71.17,1.1,1.1,0,0,1,.48.45,1.27,1.27,0,0,1,.16.62,1.42,1.42,0,0,1-.33.88,9.28,9.28,0,0,1-1.18,1,5.82,5.82,0,0,0-.63.55,2.07,2.07,0,0,0-.31.4h2.07l-.11.52Z"/></svg>