<svg id="Capa_1" data-name="Capa 1" xmlns="http://www.w3.org/2000/svg" xmlns:xlink="http://www.w3.org/1999/xlink" viewBox="0 0 206.28 174.72"><defs><radialGradient id="radial-gradient" cx="46.51" cy="121.48" r="26.58" gradientUnits="userSpaceOnUse"><stop offset="0" stop-color="#fff33b"/><stop offset="0.04" stop-color="#fee72e"/><stop offset="0.12" stop-color="#fed51b"/><stop offset="0.2" stop-color="#fdca10"/><stop offset="0.28" stop-color="#fdc70c"/><stop offset="0.67" stop-color="#f3903f"/><stop offset="0.89" stop-color="#ed683c"/><stop offset="1" stop-color="#e93e3a"/></radialGradient><radialGradient id="radial-gradient-2" cx="123.22" cy="88.93" r="26.58" xlink:href="#radial-gradient"/><linearGradient id="Degradado_sin_nombre_36" x1="45.08" y1="17.33" x2="45.08" y2="39.83" gradientUnits="userSpaceOnUse"><stop offset="0" stop-color="#bfada1" stop-opacity="0.1"/><stop offset="1" stop-color="#bcaea9"/></linearGradient></defs><line x1="123.23" y1="29.71" x2="123.23" y2="148.74" style="fill:none;stroke:#006098;stroke-miterlimit:10"/><path d="M123.23,23.68a30.31,30.31,0,0,1-4.75,8.55l4.75-1.72L128,32.23A30.34,30.34,0,0,1,123.23,23.68Z" style="fill:#006098"/><path d="M123.23,154.78a30.31,30.31,0,0,0-4.75-8.55l4.75,1.72,4.76-1.72A30.34,30.34,0,0,0,123.23,154.78Z" style="fill:#006098"/><line x1="181" y1="119.68" x2="181" y2="106.24" style="fill:none;stroke:#006098;stroke-miterlimit:10"/><path d="M181,125.72a30.59,30.59,0,0,1,4.76-8.55L181,118.89l-4.75-1.72A30.31,30.31,0,0,1,181,125.72Z" style="fill:#006098"/><line x1="181" y1="50.77" x2="181" y2="61.83" style="fill:none;stroke:#006098;stroke-miterlimit:10"/><path d="M181,44.73a30.18,30.18,0,0,1-4.75,8.55L181,51.56l4.76,1.72A30.2,30.2,0,0,1,181,44.73Z" style="fill:#006098"/><path d="M61.32,110c-4.17-2.82-5.83-10.64-5.19-11.08s3-1.24,3.36-3.59-.86-4.18-5-4.13a51.12,51.12,0,0,0-8,.8,50.91,50.91,0,0,0-8-.8c-4.09,0-5.29,1.77-5,4.13s2.72,3.14,3.36,3.59-1,8.26-5.19,11.08-9.8,9.29-6.41,17,10.25,7.82,11.54,10.38,2.37,6.5,3.33,8.62a5.18,5.18,0,0,0,3,3.14c.9.28,3.3,2.66,3.3,2.66s2.41-2.38,3.31-2.66a5.21,5.21,0,0,0,3-3.14c1-2.12,2-6.06,3.33-8.62s8.14-2.69,11.53-10.38S65.48,112.82,61.32,110Z" style="fill:url(#radial-gradient)"/><path d="M73.63,113.32c-3.86-6.42-16.35-10.59-16.35-10.59v-1.31c.6-.42,0-1.13,0-1.13v-.6c.43-.08.32-.6.32-.6a7.66,7.66,0,0,0,3.79-5.23c1.17-.49.45-1.74.45-1.74l2.65-2.48H28.54l2.65,2.48s-.72,1.25.45,1.74a7.67,7.67,0,0,0,3.78,5.23s-.1.52.33.6v.6s-.6.71,0,1.13v1.31S23.26,106.9,19.4,113.32s-2.44,11.29-1,14.47,8.52,9,17.43,11.92l.7,1.06v1a.84.84,0,0,0-.11,1c.3.55,2.21,1.06,2.21,1.06A9.31,9.31,0,0,0,42.2,149v.66l.81.25v1.25s-.66.71,0,1.07c0,0-.13,1.61,2.33,2V155s.28.27.25.51-.42.48-.19.91.43.46.43.65-.07.2-.09.34.08.24.15.37-.07.23-.07.4v.47H47.2v-.47c0-.17-.13-.26-.06-.4s.17-.24.15-.37-.1-.16-.1-.34.21-.21.44-.65-.15-.66-.19-.91.25-.51.25-.51v-.81c2.46-.42,2.32-2,2.32-2,.67-.36,0-1.07,0-1.07v-1.25l.82-.25V149a9.38,9.38,0,0,0,3.54-5.15s1.91-.51,2.21-1.06a.85.85,0,0,0-.11-1v-1l.7-1.06c8.91-3,16-8.74,17.42-11.92S77.49,119.73,73.63,113.32Zm-17.33-16a3.52,3.52,0,0,0,.11-.61,1.25,1.25,0,0,0,.29-.22c.14-.15.06-.45.06-.45l.41-.23A7.56,7.56,0,0,0,58,95.1a3.89,3.89,0,0,0-.29,1.55.35.35,0,0,0-.31.19.44.44,0,0,0-.06.36,5,5,0,0,0-.56.19,3.67,3.67,0,0,0-.7.61Zm-3.73-1.27s.15-.09.44-.31a6.05,6.05,0,0,0,.8-.89c-.17.5.37,1.62.37,1.62s-.27,0-.33.25a.42.42,0,0,0,.09.38,6.41,6.41,0,0,0-.67.29,3.21,3.21,0,0,0-.65.75s0-.43,0-.71a2.71,2.71,0,0,0-.16-.64.89.89,0,0,0,.29-.27C52.83,96.35,52.57,96.06,52.57,96.06Zm-5.24.17s.13-.13.37-.4a6.31,6.31,0,0,0,.6-1c-.06.52.69,1.5.69,1.5s-.25.09-.27.31a.45.45,0,0,0,.17.36,4.49,4.49,0,0,0-.59.42,3.12,3.12,0,0,0-.49.87s-.12-.41-.19-.68a3,3,0,0,0-.29-.6,1.17,1.17,0,0,0,.23-.32C47.64,96.46,47.33,96.23,47.33,96.23Zm-2.6-1.43a5.63,5.63,0,0,0,.6,1l.36.4s-.31.23-.22.43a1,1,0,0,0,.22.32,2.61,2.61,0,0,0-.28.6c-.07.27-.2.68-.2.68a3,3,0,0,0-.48-.87,5.06,5.06,0,0,0-.6-.42.42.42,0,0,0,.17-.36c0-.22-.27-.31-.27-.31S44.79,95.32,44.73,94.8Zm-5.51.06a5.5,5.5,0,0,0,.8.89c.29.22.44.31.44.31s-.26.29-.14.47a1,1,0,0,0,.29.27,2.41,2.41,0,0,0-.15.64c0,.28-.05.71-.05.71a3.08,3.08,0,0,0-.66-.75,6.41,6.41,0,0,0-.67-.29.42.42,0,0,0,.1-.38c-.06-.22-.33-.25-.33-.25S39.38,95.36,39.22,94.86ZM35.67,97.2a.49.49,0,0,0-.06-.36.36.36,0,0,0-.31-.19A4.08,4.08,0,0,0,35,95.1a6.72,6.72,0,0,0,.85.72l.4.23s-.08.3.07.45a1.06,1.06,0,0,0,.29.22,2.7,2.7,0,0,0,.11.61l.2.67a3.67,3.67,0,0,0-.7-.61A5,5,0,0,0,35.67,97.2Zm6.79,51.19s-.87-.63-1.11-.87a.61.61,0,0,0-.07-.52l-.25-.32a4.4,4.4,0,0,1,0-1.52,5.47,5.47,0,0,0,.7,1,3.19,3.19,0,0,0,.36.3.35.35,0,0,0-.07.45.65.65,0,0,0,.33.39s-.19.28.11,1S42.46,148.39,42.46,148.39Zm4,.41a2.49,2.49,0,0,0-1.19-1.44.74.74,0,0,0,.32-.38c0-.23-.26-.45-.31-.47s.29-.22.56-.54a6.05,6.05,0,0,0,.62-1.1,6.05,6.05,0,0,0,.62,1.1c.27.32.63.53.57.54s-.37.24-.31.47a.74.74,0,0,0,.32.38A2.53,2.53,0,0,0,46.51,148.8ZM52,146.68l-.25.32a.6.6,0,0,0-.08.52c-.24.24-1.1.87-1.1.87s-.3.65,0-.07.11-1,.11-1a.65.65,0,0,0,.33-.39.35.35,0,0,0-.07-.45,2.87,2.87,0,0,0,.35-.3,5.68,5.68,0,0,0,.71-1A4.4,4.4,0,0,1,52,146.68Zm11.28-23.86c-.11,0-4.28,4.54-4.28,4.54l3.18,3.29-6,2.27-1.85,4.39-4.66-1.47L46.51,139l-3.18-3.14-4.65,1.47-1.86-4.39-6-2.27L34,127.36s-4.16-4.51-4.27-4.54,4.69-2.8,4.69-2.8l-2.16-5.11,6.25-1.1,2.34-5.15,4.47,1.78,1.17-3.06,1.18,3.06,4.46-1.78,2.35,5.15,6.24,1.1L58.59,120S63.39,122.78,63.28,122.82Z"/><path d="M48.81,90.69,50.11,89l-3-7.86h-4l-3,7.86,1.48,1.91,0,0A19.48,19.48,0,0,1,48.81,90.69Z"/><path d="M138,77.44c-4.16-2.81-5.83-10.63-5.19-11.08s3-1.23,3.37-3.59-.87-4.18-4.95-4.13a52.36,52.36,0,0,0-8,.8,52.36,52.36,0,0,0-8-.8c-4.08,0-5.28,1.78-5,4.13s2.73,3.14,3.37,3.59-1,8.27-5.19,11.08-9.81,9.29-6.41,17,10.25,7.82,11.53,10.38,2.37,6.51,3.33,8.62a5.19,5.19,0,0,0,3,3.14c.89.29,3.3,2.66,3.3,2.66s2.41-2.37,3.3-2.66a5.19,5.19,0,0,0,3-3.14c1-2.11,2.05-6,3.33-8.62s8.13-2.69,11.53-10.38S142.19,80.26,138,77.44Z" style="fill:url(#radial-gradient-2)"/><path d="M150.34,80.76C146.48,74.35,134,70.17,134,70.17v-1.3c.59-.43,0-1.14,0-1.14v-.59c.42-.09.32-.61.32-.61a7.62,7.62,0,0,0,3.78-5.22c1.18-.49.46-1.74.46-1.74l2.65-2.48h-36l2.65,2.48s-.72,1.25.46,1.74a7.62,7.62,0,0,0,3.78,5.22s-.1.52.32.61v.59s-.59.71,0,1.14v1.3S100,74.35,96.1,80.76s-2.44,11.3-1,14.48,8.51,9,17.43,11.92l.7,1.06v1a.87.87,0,0,0-.12,1c.31.54,2.22,1.06,2.22,1.06a9.31,9.31,0,0,0,3.54,5.14v.66l.81.25v1.25s-.66.72,0,1.08c0,0-.13,1.61,2.33,2v.82s.28.26.24.51-.41.47-.19.91.44.45.44.64-.08.21-.1.34.09.25.16.38-.07.23-.07.4v.47h1.38v-.47c0-.17-.13-.27-.07-.4s.17-.25.16-.38-.1-.15-.1-.34.21-.21.44-.64-.15-.67-.19-.91.24-.51.24-.51v-.82c2.46-.41,2.33-2,2.33-2,.66-.36,0-1.08,0-1.08v-1.25l.81-.25v-.66a9.31,9.31,0,0,0,3.54-5.14s1.91-.52,2.22-1.06a.87.87,0,0,0-.12-1v-1l.7-1.06c8.92-3,16-8.74,17.43-11.92S154.2,87.18,150.34,80.76ZM133,64.78a3.56,3.56,0,0,0,.11-.62,1.38,1.38,0,0,0,.29-.21c.14-.15.06-.45.06-.45s.14-.07.41-.24a7.2,7.2,0,0,0,.84-.72,4,4,0,0,0-.28,1.55.38.38,0,0,0-.31.19.5.5,0,0,0-.07.37,4.18,4.18,0,0,0-.56.18,3.9,3.9,0,0,0-.69.61S132.92,65,133,64.78Zm-3.74-1.27s.16-.1.45-.31a6.34,6.34,0,0,0,.79-.89c-.16.5.37,1.61.37,1.61a.39.39,0,0,0-.32.25.42.42,0,0,0,.09.38,5.32,5.32,0,0,0-.67.3,3,3,0,0,0-.65.74s0-.42-.06-.7a2.41,2.41,0,0,0-.15-.64,1.16,1.16,0,0,0,.29-.28C129.53,63.8,129.27,63.51,129.27,63.51Zm-5.23.16s.13-.12.37-.39a6,6,0,0,0,.59-1c0,.53.7,1.5.7,1.5s-.26.09-.27.32a.44.44,0,0,0,.17.35,5.76,5.76,0,0,0-.6.43,3.28,3.28,0,0,0-.48.86s-.13-.41-.2-.68a2.45,2.45,0,0,0-.28-.59,1.13,1.13,0,0,0,.23-.33C124.35,63.9,124,63.67,124,63.67Zm-2.6-1.43a6,6,0,0,0,.59,1c.24.27.37.39.37.39s-.31.23-.23.43a1.13,1.13,0,0,0,.23.33,2.45,2.45,0,0,0-.28.59c-.07.27-.2.68-.2.68a3.28,3.28,0,0,0-.48-.86,5.76,5.76,0,0,0-.6-.43.44.44,0,0,0,.17-.35c0-.23-.27-.32-.27-.32S121.49,62.77,121.44,62.24Zm-5.51.07a6.34,6.34,0,0,0,.79.89c.29.21.45.31.45.31s-.26.29-.14.46a1.16,1.16,0,0,0,.29.28,2.41,2.41,0,0,0-.15.64c0,.28-.06.7-.06.7a3,3,0,0,0-.65-.74,5.32,5.32,0,0,0-.67-.3.42.42,0,0,0,.09-.38.39.39,0,0,0-.32-.25S116.09,62.81,115.93,62.31Zm-3.55,2.34a.5.5,0,0,0-.07-.37.38.38,0,0,0-.31-.19,4,4,0,0,0-.28-1.55,7.2,7.2,0,0,0,.84.72l.41.24s-.08.3.06.45a1.38,1.38,0,0,0,.29.21,3.56,3.56,0,0,0,.11.62c.09.26.2.66.2.66a3.9,3.9,0,0,0-.69-.61A4.18,4.18,0,0,0,112.38,64.65Zm6.79,51.18a13.17,13.17,0,0,1-1.11-.87.61.61,0,0,0-.07-.52l-.26-.31a4.7,4.7,0,0,1,0-1.52,6.07,6.07,0,0,0,.71,1,3.44,3.44,0,0,0,.36.29.37.37,0,0,0-.07.46.62.62,0,0,0,.32.38s-.18.29.12,1S119.17,115.83,119.17,115.83Zm4,.41a2.49,2.49,0,0,0-1.19-1.43.75.75,0,0,0,.31-.38c.06-.23-.25-.46-.31-.47s.3-.23.57-.54a6,6,0,0,0,.62-1.11,6,6,0,0,0,.62,1.11c.27.31.62.52.57.54s-.37.24-.31.47a.75.75,0,0,0,.31.38A2.49,2.49,0,0,0,123.22,116.24Zm5.49-2.11-.26.31a.61.61,0,0,0-.07.52,13.17,13.17,0,0,1-1.11.87s-.29.65,0-.07.12-1,.12-1a.62.62,0,0,0,.32-.38.37.37,0,0,0-.07-.46,3.44,3.44,0,0,0,.36-.29,6.07,6.07,0,0,0,.71-1A4.7,4.7,0,0,1,128.71,114.13ZM140,90.26c-.12,0-4.28,4.54-4.28,4.54l3.18,3.29-6,2.28-1.86,4.39-4.65-1.48-3.18,3.15L120,103.28l-4.65,1.48-1.86-4.39-6-2.28,3.18-3.29s-4.16-4.5-4.28-4.54,4.7-2.8,4.7-2.8L109,82.35l6.24-1.1,2.35-5.14,4.47,1.78,1.17-3.07,1.17,3.07,4.47-1.78,2.35,5.14,6.24,1.1-2.16,5.11S140.1,90.22,140,90.26Z"/><path d="M127.38,60l1.3-1.67-3-7.86h-4l-3,7.86,1.48,1.91h0A19.86,19.86,0,0,1,127.38,60Z"/><path d="M46,45.69v1.76a.83.83,0,0,1-.82.85h-.54a.84.84,0,0,1-.82-.85V45.69a.84.84,0,0,1,.82-.85h.54A.83.83,0,0,1,46,45.69Zm-.46,0a.36.36,0,0,0-.36-.36h-.54a.35.35,0,0,0-.35.36v1.76a.35.35,0,0,0,.35.36h.54a.36.36,0,0,0,.36-.36Z"/><path d="M45.15,49V47.59a.28.28,0,0,0-.24-.3c-.13,0-.23.14-.23.3V49Z"/><path d="M44.68,44.12v1.43c0,.16.1.3.23.3a.28.28,0,0,0,.24-.3V44.12Z"/><path d="M46,50.59v1.76a.83.83,0,0,1-.82.84h-.54a.83.83,0,0,1-.82-.84V50.59a.84.84,0,0,1,.82-.85h.54A.83.83,0,0,1,46,50.59Zm-.46,0a.37.37,0,0,0-.36-.37h-.54a.36.36,0,0,0-.35.37v1.76a.35.35,0,0,0,.35.36h.54a.36.36,0,0,0,.36-.36Z"/><path d="M45.15,53.91V52.49a.27.27,0,0,0-.24-.3c-.13,0-.23.13-.23.3v1.42Z"/><path d="M44.68,49v1.42c0,.17.1.3.23.3a.27.27,0,0,0,.24-.3V49Z"/><path d="M46,55.48v1.76a.83.83,0,0,1-.82.85h-.54a.84.84,0,0,1-.82-.85V55.48a.83.83,0,0,1,.82-.84h.54A.83.83,0,0,1,46,55.48Zm-.46,0a.36.36,0,0,0-.36-.36h-.54a.35.35,0,0,0-.35.36v1.76a.36.36,0,0,0,.35.37h.54a.37.37,0,0,0,.36-.37Z"/><path d="M45.15,58.81V57.39a.28.28,0,0,0-.24-.31c-.13,0-.23.14-.23.31v1.42Z"/><path d="M44.68,53.91v1.43c0,.16.1.3.23.3a.28.28,0,0,0,.24-.3V53.91Z"/><path d="M46,60.38v1.76a.84.84,0,0,1-.82.85h-.54a.84.84,0,0,1-.82-.85V60.38a.84.84,0,0,1,.82-.85h.54A.83.83,0,0,1,46,60.38Zm-.46,0a.36.36,0,0,0-.36-.36h-.54a.35.35,0,0,0-.35.36v1.76a.35.35,0,0,0,.35.36h.54a.36.36,0,0,0,.36-.36Z"/><path d="M45.15,63.71V62.28a.28.28,0,0,0-.24-.3c-.13,0-.23.14-.23.3v1.43Z"/><path d="M44.68,58.81v1.42c0,.17.1.31.23.31a.28.28,0,0,0,.24-.31V58.81Z"/><path d="M46,65.27V67a.83.83,0,0,1-.82.84h-.54a.83.83,0,0,1-.82-.84V65.27a.83.83,0,0,1,.82-.84h.54A.83.83,0,0,1,46,65.27Zm-.46,0a.36.36,0,0,0-.36-.36h-.54a.35.35,0,0,0-.35.36V67a.36.36,0,0,0,.35.36h.54a.36.36,0,0,0,.36-.36Z"/><path d="M45.15,68.6V67.18a.27.27,0,0,0-.24-.3c-.13,0-.23.13-.23.3V68.6Z"/><path d="M44.68,63.71v1.42c0,.17.1.3.23.3a.27.27,0,0,0,.24-.3V63.71Z"/><path d="M46,70.17v1.76a.83.83,0,0,1-.82.85h-.54a.84.84,0,0,1-.82-.85V70.17a.84.84,0,0,1,.82-.85h.54A.84.84,0,0,1,46,70.17Zm-.46,0a.36.36,0,0,0-.36-.36h-.54a.35.35,0,0,0-.35.36v1.76a.35.35,0,0,0,.35.36h.54a.36.36,0,0,0,.36-.36Z"/><path d="M45.15,73.5V72.08a.28.28,0,0,0-.24-.31c-.13,0-.23.14-.23.31V73.5Z"/><path d="M44.68,68.6V70c0,.16.1.3.23.3a.28.28,0,0,0,.24-.3V68.6Z"/><path d="M46,75.07v1.76a.83.83,0,0,1-.82.84h-.54a.83.83,0,0,1-.82-.84V75.07a.84.84,0,0,1,.82-.85h.54A.83.83,0,0,1,46,75.07Zm-.46,0a.37.37,0,0,0-.36-.37h-.54a.36.36,0,0,0-.35.37v1.76a.35.35,0,0,0,.35.36h.54a.36.36,0,0,0,.36-.36Z"/><path d="M45.15,78.4V77a.28.28,0,0,0-.24-.3c-.13,0-.23.14-.23.3V78.4Z"/><path d="M44.68,73.5v1.42c0,.17.1.31.23.31a.28.28,0,0,0,.24-.31V73.5Z"/><path d="M46,80v1.76a.83.83,0,0,1-.82.85h-.54a.84.84,0,0,1-.82-.85V80a.83.83,0,0,1,.82-.84h.54A.83.83,0,0,1,46,80Zm-.46,0a.36.36,0,0,0-.36-.36h-.54a.35.35,0,0,0-.35.36v1.76a.36.36,0,0,0,.35.37h.54a.37.37,0,0,0,.36-.37Z"/><path d="M45.15,83.29V81.87a.27.27,0,0,0-.24-.3c-.13,0-.23.13-.23.3v1.42Z"/><path d="M44.68,78.4v1.42c0,.17.1.3.23.3a.27.27,0,0,0,.24-.3V78.4Z"/><rect x="39.44" y="41.68" width="9.88" height="2.11"/><rect x="37.33" y="39.69" width="14.06" height="2.11"/><path d="M182.5,67.31v1.76a.83.83,0,0,1-.82.84h-.55a.83.83,0,0,1-.82-.84V67.31a.84.84,0,0,1,.82-.85h.55A.84.84,0,0,1,182.5,67.31Zm-.47,0a.37.37,0,0,0-.35-.37h-.55a.37.37,0,0,0-.35.37v1.76a.36.36,0,0,0,.35.36h.55a.36.36,0,0,0,.35-.36Z"/><path d="M181.64,70.64V69.21a.28.28,0,0,0-.24-.3c-.13,0-.23.14-.23.3v1.43Z"/><path d="M181.17,65.74v1.42c0,.17.1.31.23.31a.28.28,0,0,0,.24-.31V65.74Z"/><path d="M182.5,72.2V74a.84.84,0,0,1-.82.85h-.55a.84.84,0,0,1-.82-.85V72.2a.83.83,0,0,1,.82-.84h.55A.83.83,0,0,1,182.5,72.2Zm-.47,0a.36.36,0,0,0-.35-.36h-.55a.36.36,0,0,0-.35.36V74a.37.37,0,0,0,.35.37h.55A.37.37,0,0,0,182,74Z"/><path d="M181.64,75.53V74.11a.27.27,0,0,0-.24-.3c-.13,0-.23.13-.23.3v1.42Z"/><path d="M181.17,70.64v1.42c0,.17.1.3.23.3a.27.27,0,0,0,.24-.3V70.64Z"/><path d="M182.5,77.1v1.76a.84.84,0,0,1-.82.85h-.55a.84.84,0,0,1-.82-.85V77.1a.84.84,0,0,1,.82-.85h.55A.84.84,0,0,1,182.5,77.1Zm-.47,0a.36.36,0,0,0-.35-.36h-.55a.36.36,0,0,0-.35.36v1.76a.36.36,0,0,0,.35.36h.55a.36.36,0,0,0,.35-.36Z"/><path d="M181.64,80.43V79a.28.28,0,0,0-.24-.3c-.13,0-.23.14-.23.3v1.43Z"/><path d="M181.17,75.53V77c0,.16.1.3.23.3a.28.28,0,0,0,.24-.3V75.53Z"/><path d="M182.5,82v1.76a.83.83,0,0,1-.82.84h-.55a.83.83,0,0,1-.82-.84V82a.84.84,0,0,1,.82-.85h.55A.84.84,0,0,1,182.5,82ZM182,82a.37.37,0,0,0-.35-.37h-.55a.37.37,0,0,0-.35.37v1.76a.36.36,0,0,0,.35.36h.55a.36.36,0,0,0,.35-.36Z"/><path d="M181.64,85.32V83.9a.27.27,0,0,0-.24-.3c-.13,0-.23.13-.23.3v1.42Z"/><path d="M181.17,80.43v1.42c0,.17.1.3.23.3a.27.27,0,0,0,.24-.3V80.43Z"/><path d="M182.5,86.89v1.76a.84.84,0,0,1-.82.85h-.55a.84.84,0,0,1-.82-.85V86.89a.83.83,0,0,1,.82-.84h.55A.83.83,0,0,1,182.5,86.89Zm-.47,0a.36.36,0,0,0-.35-.36h-.55a.36.36,0,0,0-.35.36v1.76a.37.37,0,0,0,.35.37h.55a.37.37,0,0,0,.35-.37Z"/><path d="M181.64,90.22V88.8a.28.28,0,0,0-.24-.31c-.13,0-.23.14-.23.31v1.42Z"/><path d="M181.17,85.32v1.43c0,.16.1.3.23.3a.28.28,0,0,0,.24-.3V85.32Z"/><path d="M182.5,91.79v1.76a.83.83,0,0,1-.82.84h-.55a.83.83,0,0,1-.82-.84V91.79a.84.84,0,0,1,.82-.85h.55A.84.84,0,0,1,182.5,91.79Zm-.47,0a.36.36,0,0,0-.35-.36h-.55a.36.36,0,0,0-.35.36v1.76a.36.36,0,0,0,.35.36h.55a.36.36,0,0,0,.35-.36Z"/><path d="M181.64,95.12V93.69a.28.28,0,0,0-.24-.3c-.13,0-.23.14-.23.3v1.43Z"/><path d="M181.17,90.22v1.42c0,.17.1.31.23.31a.28.28,0,0,0,.24-.31V90.22Z"/><path d="M182.5,96.68v1.77a.83.83,0,0,1-.82.84h-.55a.83.83,0,0,1-.82-.84V96.68a.83.83,0,0,1,.82-.84h.55A.83.83,0,0,1,182.5,96.68Zm-.47,0a.36.36,0,0,0-.35-.36h-.55a.36.36,0,0,0-.35.36v1.77a.36.36,0,0,0,.35.36h.55a.36.36,0,0,0,.35-.36Z"/><path d="M181.64,100V98.59a.27.27,0,0,0-.24-.3c-.13,0-.23.13-.23.3V100Z"/><path d="M181.17,95.12v1.42c0,.17.1.3.23.3a.27.27,0,0,0,.24-.3V95.12Z"/><path d="M182.5,101.58v1.76a.84.84,0,0,1-.82.85h-.55a.84.84,0,0,1-.82-.85v-1.76a.84.84,0,0,1,.82-.85h.55A.84.84,0,0,1,182.5,101.58Zm-.47,0a.36.36,0,0,0-.35-.36h-.55a.36.36,0,0,0-.35.36v1.76a.36.36,0,0,0,.35.36h.55a.36.36,0,0,0,.35-.36Z"/><path d="M181.64,104.91v-1.43a.28.28,0,0,0-.24-.3c-.13,0-.23.14-.23.3v1.43Z"/><path d="M181.17,100v1.43c0,.16.1.3.23.3a.28.28,0,0,0,.24-.3V100Z"/><rect x="175.93" y="63.3" width="9.88" height="2.11"/><rect x="173.82" y="61.31" width="14.06" height="2.11"/><rect x="27.64" y="17.42" width="34.89" height="22.36" style="fill:url(#Degradado_sin_nombre_36)"/><circle cx="181.48" cy="106.72" r="2.08"/><rect x="130.97" y="13.73" width="8.34" height="0.69"/><path d="M139.05,14.08a4.68,4.68,0,0,1-1-2.93,8.79,8.79,0,0,0,3.57,2.93A9.22,9.22,0,0,0,138,17,4.93,4.93,0,0,1,139.05,14.08Z"/><path d="M135.24,29.56h-2.17l1.84-8.79h-3.1l.37-1.77h8.32l-.37,1.77h-3Z"/><rect x="158.42" y="110.68" width="8.34" height="0.69"/><path d="M166.5,111a4.74,4.74,0,0,1-1-2.93,8.79,8.79,0,0,0,3.57,2.93,9.22,9.22,0,0,0-3.57,2.93A4.93,4.93,0,0,1,166.5,111Z"/><path d="M162.69,126.51h-2.17l1.84-8.79h-3.1l.37-1.77H168l-.37,1.77h-3.05Z"/><path d="M169.23,116h2.08L171,117.6a3.7,3.7,0,0,1-.94,2,2.52,2.52,0,0,1-1.69.62l.2-1a1.57,1.57,0,0,0,.8-.42,1.88,1.88,0,0,0,.42-.92h-.95Z"/><rect x="161.13" y="27.5" width="8.34" height="0.69"/><path d="M169.21,27.85a4.7,4.7,0,0,1-1-2.93,8.79,8.79,0,0,0,3.57,2.93,9.19,9.19,0,0,0-3.57,2.92A4.88,4.88,0,0,1,169.21,27.85Z"/><rect x="187.63" y="27.5" width="8.34" height="0.69"/><path d="M195.71,27.85a4.82,4.82,0,0,1-1-2.93,8.79,8.79,0,0,0,3.57,2.93,9.27,9.27,0,0,0-3.57,2.92A4.88,4.88,0,0,1,195.71,27.85Z"/><path d="M164.18,41.84h-1.86l1.57-7.5h-2.64l.32-1.5h7.09l-.31,1.5h-2.61Z"/><path d="M169.75,32.84h1.77l-.29,1.4a3.18,3.18,0,0,1-.81,1.73,2.15,2.15,0,0,1-1.44.53l.17-.82a1.34,1.34,0,0,0,.68-.35,1.66,1.66,0,0,0,.36-.79h-.81Z"/><path d="M172.77,32.84h1.78l-.3,1.4a3.11,3.11,0,0,1-.81,1.73,2.15,2.15,0,0,1-1.44.53l.18-.82a1.34,1.34,0,0,0,.68-.35,1.66,1.66,0,0,0,.36-.79h-.81Z"/><path d="M178,36.83V35.24h6.29v1.59Zm0,2.72V38h6.29v1.59Z"/><path d="M192.24,41.84h-1.85l1.57-7.5h-2.64l.31-1.5h7.1l-.32,1.5h-2.6Z"/><rect x="130.97" y="137.09" width="8.34" height="0.69"/><path d="M139.05,137.44a4.7,4.7,0,0,1-1-2.93,8.79,8.79,0,0,0,3.57,2.93,9.22,9.22,0,0,0-3.57,2.93A4.93,4.93,0,0,1,139.05,137.44Z"/><path d="M130.62,152.92l2.21-10.56h7.39l-.37,1.77h-5.22l-.53,2.53h5.11l-.37,1.77h-5.11l-.94,4.49Z"/><path d="M139.31,153.14l1.19.17a.49.49,0,0,0,.06.27.38.38,0,0,0,.19.16.8.8,0,0,0,.35.07,1,1,0,0,0,.57-.15.76.76,0,0,0,.27-.35,5.22,5.22,0,0,0,.16-.66l0-.2a1.8,1.8,0,0,1-1.2.49,1.32,1.32,0,0,1-1-.43,1.83,1.83,0,0,1-.39-1.26,3.27,3.27,0,0,1,.27-1.34,2,2,0,0,1,.74-.92,1.77,1.77,0,0,1,1-.31,1.35,1.35,0,0,1,.76.22,1.46,1.46,0,0,1,.54.61l.15-.74H144l-.72,3.46a10.33,10.33,0,0,1-.29,1.19,2.33,2.33,0,0,1-.28.57,1.46,1.46,0,0,1-.39.35,1.82,1.82,0,0,1-.57.2,3.08,3.08,0,0,1-.7.07,2.4,2.4,0,0,1-1.33-.3,1.12,1.12,0,0,1-.45-1C139.3,153.26,139.31,153.2,139.31,153.14Zm1.32-2a1.1,1.1,0,0,0,.22.72.69.69,0,0,0,.53.25.88.88,0,0,0,.57-.23,1.4,1.4,0,0,0,.42-.63,2.3,2.3,0,0,0,.15-.79,1,1,0,0,0-.24-.71.71.71,0,0,0-.55-.27.77.77,0,0,0-.55.24,1.67,1.67,0,0,0-.42.73A2.31,2.31,0,0,0,140.63,151.14Z"/></svg>