<svg id="Capa_1" data-name="Capa 1" xmlns="http://www.w3.org/2000/svg" viewBox="0 0 271.44 225"><rect x="158.06" y="117.87" width="58.8" height="54.67" style="fill:#e5a44d;stroke:#965b0c;stroke-miterlimit:10"/><path d="M179.47,154l3-14.3h4.43a12.59,12.59,0,0,1,1.79.1,4.37,4.37,0,0,1,1.62.58,2.79,2.79,0,0,1,1,1.13,3.67,3.67,0,0,1-.29,3.67,4,4,0,0,1-2,1.36,3.44,3.44,0,0,1,1.74,1.15,2.93,2.93,0,0,1,.58,1.79,4.22,4.22,0,0,1-.68,2.26,4.59,4.59,0,0,1-1.8,1.67,5.15,5.15,0,0,1-2.49.59Zm2.26-1.61H185a10.76,10.76,0,0,0,1.74-.09,3.67,3.67,0,0,0,1.47-.54,2.57,2.57,0,0,0,.89-1,2.61,2.61,0,0,0,.32-1.28,1.9,1.9,0,0,0-.62-1.53,3.93,3.93,0,0,0-2.4-.52h-3.63Zm1.37-6.58H186a5.21,5.21,0,0,0,3-.66,2.25,2.25,0,0,0,.91-1.93,1.87,1.87,0,0,0-.28-1.05,1.7,1.7,0,0,0-.76-.64,5.33,5.33,0,0,0-1.78-.2h-3Z" style="fill:#fefefe"/><rect x="65.6" y="73.21" width="92.67" height="99.67" style="fill:#965b0c;stroke:#e5a44d;stroke-miterlimit:10"/><line x1="21.13" y1="129.92" x2="55.25" y2="129.92" style="fill:none;stroke:#e39d40;stroke-miterlimit:10;stroke-width:2px"/><path d="M54.44,129.92c-2.09-2.09-3.08-6.22-3.17-9.09a27.25,27.25,0,0,0,11.1,9.09c-4.51,1.8-8.07,5.37-11.1,9.09C51.52,135.94,52.27,132.22,54.44,129.92Z" style="fill:#e39d40"/><path d="M21.27,112.31l1.55-7.37A7.58,7.58,0,0,1,20,106.2l.22-1.09a9.86,9.86,0,0,0,1.78-.94,9.18,9.18,0,0,0,1.31-1,3.87,3.87,0,0,0,.51-.65h.7l-2.05,9.8Z"/><path d="M26.54,109.11a9,9,0,0,1,.37-2.52,9.24,9.24,0,0,1,.82-2,5.11,5.11,0,0,1,.94-1.2,3.44,3.44,0,0,1,1-.63,2.51,2.51,0,0,1,1-.21,2.44,2.44,0,0,1,1.87.83,3.5,3.5,0,0,1,.75,2.41,10.4,10.4,0,0,1-.52,3.2,6.16,6.16,0,0,1-1.71,2.82,2.88,2.88,0,0,1-1.91.71,2.37,2.37,0,0,1-1.85-.86A3.68,3.68,0,0,1,26.54,109.11Zm1.17.31a2.84,2.84,0,0,0,.29,1.4,1.32,1.32,0,0,0,1.21.7,1.68,1.68,0,0,0,1.27-.63,5.78,5.78,0,0,0,1.24-2.61,12.46,12.46,0,0,0,.42-2.82,2.31,2.31,0,0,0-.4-1.52,1.33,1.33,0,0,0-1.06-.46,1.78,1.78,0,0,0-.9.24,2.64,2.64,0,0,0-.8.85A8.58,8.58,0,0,0,28,107.1,10.9,10.9,0,0,0,27.71,109.42Z"/><path d="M34.13,109.11a9,9,0,0,1,.37-2.52,8.78,8.78,0,0,1,.82-2,4.86,4.86,0,0,1,.94-1.2,3.4,3.4,0,0,1,1-.63,2.54,2.54,0,0,1,1-.21,2.42,2.42,0,0,1,1.87.83,3.5,3.5,0,0,1,.75,2.41,10.11,10.11,0,0,1-.52,3.2,6.15,6.15,0,0,1-1.7,2.82,2.9,2.9,0,0,1-1.91.71,2.39,2.39,0,0,1-1.86-.86A3.73,3.73,0,0,1,34.13,109.11Zm1.16.31a2.72,2.72,0,0,0,.3,1.4,1.3,1.3,0,0,0,1.21.7,1.7,1.7,0,0,0,1.27-.63,5.89,5.89,0,0,0,1.24-2.61,12.46,12.46,0,0,0,.42-2.82,2.3,2.3,0,0,0-.41-1.52,1.33,1.33,0,0,0-1.06-.46,1.72,1.72,0,0,0-.89.24,2.54,2.54,0,0,0-.8.85,8.58,8.58,0,0,0-.94,2.53A10.4,10.4,0,0,0,35.29,109.42Z"/><path d="M41.41,112.31l2.05-9.76h1.26l1.65,3.66c.5,1.12.9,2.06,1.19,2.83.17.44.36,1,.58,1.8.12-.83.27-1.67.46-2.55l1.2-5.74h1.27l-2,9.76H47.74l-2.43-5.64a27.39,27.39,0,0,1-1-2.63q-.11,1-.39,2.34l-1.24,5.93Z"/><path d="M104.75,128.43l8.1-14.31h2.25l2.37,14.31h-1.86l-.69-4.12h-5.79l-2.29,4.12Zm5.2-5.59h4.74l-.56-3.59c-.22-1.43-.35-2.62-.4-3.57a26.91,26.91,0,0,1-1.42,2.92Z" style="fill:#fefefe"/><line x1="20.43" y1="172.98" x2="252.6" y2="172.98" style="fill:none;stroke:#965b0c;stroke-miterlimit:10;stroke-width:2px"/></svg>