<svg id="Capa_1" data-name="Capa 1" xmlns="http://www.w3.org/2000/svg" viewBox="0 0 802.56 159"><rect x="211.01" y="92.67" width="10.37" height="4.89" style="fill:#ba6161"/><rect x="211.01" y="92.67" width="10.37" height="0.27" style="fill:#5c5c5c"/><rect x="211.01" y="97.28" width="10.37" height="0.27" style="fill:#5c5c5c"/><rect x="211.01" y="87.78" width="10.37" height="4.89" style="fill:#6d8da6"/><rect x="211.01" y="87.78" width="10.37" height="0.27" style="fill:#5c5c5c"/><rect x="211.01" y="92.4" width="10.37" height="0.27" style="fill:#5c5c5c"/><rect x="211.01" y="82.89" width="10.37" height="4.89" style="fill:#6d8da6"/><rect x="211.01" y="82.89" width="10.37" height="0.27" style="fill:#5c5c5c"/><rect x="211.01" y="87.51" width="10.37" height="0.27" style="fill:#5c5c5c"/><rect x="211.01" y="78.01" width="10.37" height="4.89" style="fill:#a69d6d"/><rect x="211.01" y="78.01" width="10.37" height="0.27" style="fill:#5c5c5c"/><rect x="211.01" y="82.63" width="10.37" height="0.27" style="fill:#5c5c5c"/><rect x="222.01" y="92.67" width="10.37" height="4.89" style="fill:#a69d6d"/><rect x="222.01" y="92.67" width="10.37" height="0.27" style="fill:#5c5c5c"/><rect x="222.01" y="97.28" width="10.37" height="0.27" style="fill:#5c5c5c"/><rect x="222.01" y="87.78" width="10.37" height="4.89" style="fill:#a6a6a6"/><rect x="222.01" y="87.78" width="10.37" height="0.27" style="fill:#5c5c5c"/><rect x="222.01" y="92.4" width="10.37" height="0.27" style="fill:#5c5c5c"/><rect x="222.01" y="82.89" width="10.37" height="4.89" style="fill:#ba6161"/><rect x="222.01" y="82.89" width="10.37" height="0.27" style="fill:#5c5c5c"/><rect x="222.01" y="87.51" width="10.37" height="0.27" style="fill:#5c5c5c"/><rect x="233.13" y="92.67" width="10.37" height="4.89" style="fill:#a69d6d"/><rect x="233.13" y="92.67" width="10.37" height="0.27" style="fill:#5c5c5c"/><rect x="233.13" y="97.28" width="10.37" height="0.27" style="fill:#5c5c5c"/><rect x="233.13" y="87.78" width="10.37" height="4.89" style="fill:#ba6161"/><rect x="233.13" y="87.78" width="10.37" height="0.27" style="fill:#5c5c5c"/><rect x="233.13" y="92.4" width="10.37" height="0.27" style="fill:#5c5c5c"/><rect x="244.32" y="92.67" width="10.37" height="4.89" style="fill:#6d8da6"/><rect x="244.32" y="92.67" width="10.37" height="0.27" style="fill:#5c5c5c"/><rect x="244.32" y="97.28" width="10.37" height="0.27" style="fill:#5c5c5c"/><rect x="244.32" y="87.78" width="10.37" height="4.89" style="fill:#a6a6a6"/><rect x="244.32" y="87.78" width="10.37" height="0.27" style="fill:#5c5c5c"/><rect x="244.32" y="92.4" width="10.37" height="0.27" style="fill:#5c5c5c"/><rect x="244.32" y="82.89" width="10.37" height="4.89" style="fill:#6d8da6"/><rect x="244.32" y="82.89" width="10.37" height="0.27" style="fill:#5c5c5c"/><rect x="244.32" y="87.51" width="10.37" height="0.27" style="fill:#5c5c5c"/><rect x="255.48" y="92.67" width="10.37" height="4.89" style="fill:#6d8da6"/><rect x="255.48" y="92.67" width="10.37" height="0.27" style="fill:#5c5c5c"/><rect x="255.48" y="97.28" width="10.37" height="0.27" style="fill:#5c5c5c"/><rect x="255.48" y="87.78" width="10.37" height="4.89" style="fill:#ba6161"/><rect x="255.48" y="87.78" width="10.37" height="0.27" style="fill:#5c5c5c"/><rect x="255.48" y="92.4" width="10.37" height="0.27" style="fill:#5c5c5c"/><rect x="255.48" y="82.89" width="10.37" height="4.89" style="fill:#a69d6d"/><rect x="255.48" y="82.89" width="10.37" height="0.27" style="fill:#5c5c5c"/><rect x="255.48" y="87.51" width="10.37" height="0.27" style="fill:#5c5c5c"/><rect x="182.71" y="92.67" width="10.37" height="4.89" style="fill:#6d8da6"/><rect x="182.71" y="92.67" width="10.37" height="0.27" style="fill:#5c5c5c"/><rect x="182.71" y="97.28" width="10.37" height="0.27" style="fill:#5c5c5c"/><rect x="182.71" y="87.78" width="10.37" height="4.89" style="fill:#6d8da6"/><rect x="182.71" y="87.78" width="10.37" height="0.27" style="fill:#5c5c5c"/><rect x="182.71" y="92.4" width="10.37" height="0.27" style="fill:#5c5c5c"/><rect x="182.71" y="82.89" width="10.37" height="4.89" style="fill:#a69d6d"/><rect x="182.71" y="82.89" width="10.37" height="0.27" style="fill:#5c5c5c"/><rect x="182.71" y="87.51" width="10.37" height="0.27" style="fill:#5c5c5c"/><rect x="171.71" y="92.67" width="10.37" height="4.89" style="fill:#a6a6a6"/><rect x="171.71" y="92.67" width="10.37" height="0.27" style="fill:#5c5c5c"/><rect x="171.71" y="97.28" width="10.37" height="0.27" style="fill:#5c5c5c"/><rect x="171.71" y="87.78" width="10.37" height="4.89" style="fill:#ba6161"/><rect x="171.71" y="87.78" width="10.37" height="0.27" style="fill:#5c5c5c"/><rect x="171.71" y="92.4" width="10.37" height="0.27" style="fill:#5c5c5c"/><rect x="160.59" y="92.67" width="10.37" height="4.89" style="fill:#ba6161"/><rect x="160.59" y="92.67" width="10.37" height="0.27" style="fill:#5c5c5c"/><rect x="160.59" y="97.28" width="10.37" height="0.27" style="fill:#5c5c5c"/><rect x="160.59" y="82.89" width="10.37" height="4.89" style="fill:#6d8da6"/><rect x="160.59" y="82.89" width="10.37" height="0.27" style="fill:#5c5c5c"/><rect x="160.59" y="87.51" width="10.37" height="0.27" style="fill:#5c5c5c"/><rect x="160.59" y="87.78" width="10.37" height="4.89" style="fill:#ba6161"/><rect x="160.59" y="87.78" width="10.37" height="0.27" style="fill:#5c5c5c"/><rect x="160.59" y="92.4" width="10.37" height="0.27" style="fill:#5c5c5c"/><rect x="160.59" y="78.01" width="10.37" height="4.89" style="fill:#a69d6d"/><rect x="160.59" y="78.01" width="10.37" height="0.27" style="fill:#5c5c5c"/><rect x="160.59" y="82.63" width="10.37" height="0.27" style="fill:#5c5c5c"/><rect x="149.4" y="92.67" width="10.37" height="4.89" style="fill:#a6a6a6"/><rect x="149.4" y="92.67" width="10.37" height="0.27" style="fill:#5c5c5c"/><rect x="149.4" y="97.28" width="10.37" height="0.27" style="fill:#5c5c5c"/><rect x="149.4" y="87.78" width="10.37" height="4.89" style="fill:#6d8da6"/><rect x="149.4" y="87.78" width="10.37" height="0.27" style="fill:#5c5c5c"/><rect x="149.4" y="92.4" width="10.37" height="0.27" style="fill:#5c5c5c"/><rect x="171.71" y="82.89" width="10.37" height="4.89" style="fill:#a6a6a6"/><rect x="171.71" y="82.89" width="10.37" height="0.27" style="fill:#5c5c5c"/><rect x="171.71" y="87.51" width="10.37" height="0.27" style="fill:#5c5c5c"/><polygon points="270.91 66.66 270.16 91.77 271.65 91.77 270.91 66.66" style="fill:#9c8362"/><path d="M270.92,66h0a.68.68,0,0,0-.68.69v.65h1.38v-.65A.69.69,0,0,0,270.92,66Z" style="fill:#9c8362"/><polygon points="266.32 119.14 135.81 119.14 124.23 94.14 157.69 94.14 159.57 97.55 254.6 97.55 259.46 92.05 293.67 90.1 266.32 119.14" style="fill:#424242"/><rect x="195.92" y="67.44" width="11.93" height="30.11" style="fill:#c3d7e8"/><rect x="195.92" y="67.44" width="11.93" height="1.73" style="fill:#85939e"/><rect x="192.13" y="63.41" width="19.5" height="4.17" style="fill:#c3d7e8"/><rect x="197.59" y="59.19" width="8.58" height="4.22" style="fill:#787878"/><polygon points="269.18 116.1 134.4 116.1 133.55 114.27 270.91 114.27 269.18 116.1" style="fill:#e57368"/><polygon points="197.46 39.93 197.3 63.41 197.62 63.41 197.46 39.93" style="fill:#4f4f4f"/><polygon points="206.34 39.93 206.17 63.41 206.5 63.41 206.34 39.93" style="fill:#4f4f4f"/><path d="M199.84,56.67h0A1.83,1.83,0,0,0,198,58.5v.69h3.69V58.5A1.83,1.83,0,0,0,199.84,56.67Z" style="fill:#4f4f4f"/><rect x="204.85" y="71.02" width="2.19" height="2.82" style="fill:#34495e"/><rect x="200.85" y="71.02" width="2.19" height="2.82" style="fill:#34495e"/><rect x="196.85" y="71.02" width="2.19" height="2.82" style="fill:#34495e"/><rect x="308.36" y="96.26" width="33.86" height="2" style="fill:#61c5ff"/><path d="M361.76,97.26c-9.2,2.11-20.6,5.7-27.67,9.51l5.57-9.51-5.57-9.51C341.16,91.56,352.56,95.16,361.76,97.26Z" style="fill:#61c5ff"/><rect x="61.89" y="98.95" width="56.22" height="2" style="fill:#965b0c;stroke:#965b0c;stroke-miterlimit:10"/><path d="M45.87,99.94c6.86-1.57,15.37-4.25,20.65-7.09l-4.16,7.09,4.16,7.1C61.24,104.2,52.73,101.52,45.87,99.94Z" style="fill:#965b0c;stroke:#965b0c;stroke-miterlimit:10"/><path d="M692.91,118.88l7.89-3.44,6.07-1.62,5.47-7.69,3.84-2.83,4.05,2.42,4.25,2,5.87,2.63,10.12,2.23,6.27,2.42h8.5l7.08,3,9.92,5.26,5.87,1s5.46,1.62,6.47,2,12.14,7.89,12.14,7.89l-40.27,2.22-2.83-1.41L748,136.48l-16.59.21-6.48-2.23-3,.41-9.51-4.25-10.53-3-4.65-4.65Z" style="fill:#e5a44d;stroke:#965b0c;stroke-miterlimit:10"/><line x1="30.63" y1="107.18" x2="792.07" y2="107.18" style="fill:none;stroke:#61c5ff;stroke-miterlimit:10"/><path d="M155.4,137.4l1.61-.2a3.35,3.35,0,0,0,.81,2,2.3,2.3,0,0,0,1.65.61,2.93,2.93,0,0,0,2.12-.88,2.75,2.75,0,0,0,.9-2,2.17,2.17,0,0,0-.67-1.64,2.5,2.5,0,0,0-1.8-.65l-.53,0,.28-1.39a2.53,2.53,0,0,0,.46,0,3.16,3.16,0,0,0,2.19-.69,2.21,2.21,0,0,0,.77-1.7,2.17,2.17,0,0,0-2.17-2.2,2.32,2.32,0,0,0-1.6.65,3.07,3.07,0,0,0-.91,1.83l-1.64-.33a4.55,4.55,0,0,1,1.55-2.57,4.29,4.29,0,0,1,2.72-.91,3.68,3.68,0,0,1,2.67,1,3.29,3.29,0,0,1,1,2.46,3.17,3.17,0,0,1-.56,1.86,4.09,4.09,0,0,1-1.66,1.32,3.3,3.3,0,0,1,1.18,1.13,2.9,2.9,0,0,1,.39,1.51,4.24,4.24,0,0,1-1.36,3.13,4.43,4.43,0,0,1-3.23,1.33,4.22,4.22,0,0,1-2.95-1A3.94,3.94,0,0,1,155.4,137.4Z"/><path d="M165.9,140.92l.4-1.88h1.88l-.41,1.88Z"/><path d="M173.82,133.12a5.89,5.89,0,0,1,1.39-.87,3.59,3.59,0,0,1,1.37-.29,3.33,3.33,0,0,1,2.53,1,3.91,3.91,0,0,1,1,2.82,5.63,5.63,0,0,1-1.48,3.92,4.1,4.1,0,0,1-3.12,1.4,3.61,3.61,0,0,1-2.79-1.23,5,5,0,0,1-1.11-3.49,13.5,13.5,0,0,1,.71-4.19,9.6,9.6,0,0,1,1.37-2.74,5.47,5.47,0,0,1,1.72-1.58,4.17,4.17,0,0,1,2.06-.51,3.08,3.08,0,0,1,2.25.86,3.7,3.7,0,0,1,1,2.46l-1.54.14a2.66,2.66,0,0,0-.62-1.58,1.66,1.66,0,0,0-1.2-.48,2.42,2.42,0,0,0-1.49.58,4.54,4.54,0,0,0-1.3,1.71A9.56,9.56,0,0,0,173.82,133.12Zm-.58,4a2.72,2.72,0,0,0,.71,1.91,2.1,2.1,0,0,0,1.59.78,2.44,2.44,0,0,0,1.33-.47,3.76,3.76,0,0,0,1.18-1.44,4.28,4.28,0,0,0,.49-1.92,2.82,2.82,0,0,0-.68-2,2.13,2.13,0,0,0-1.63-.74,2.75,2.75,0,0,0-2,1.08A4.05,4.05,0,0,0,173.24,137.14Z"/><path d="M185.68,140.92l4.24-4.95-2.43-4.79h1.84l.82,1.73c.31.65.58,1.27.83,1.86l2.81-3.59h2l-4.09,4.92,2.46,4.82h-1.84l-1-2c-.21-.42-.44-.95-.7-1.57l-2.9,3.55Z"/><path d="M204.85,140.92,207,130.76a10.57,10.57,0,0,1-3.87,1.74l.31-1.51a13.67,13.67,0,0,0,2.44-1.29,12.3,12.3,0,0,0,1.82-1.4,5.08,5.08,0,0,0,.69-.89h1l-2.82,13.51Z"/><path d="M212.11,136.51a12.41,12.41,0,0,1,.51-3.47,12.09,12.09,0,0,1,1.13-2.82,7.28,7.28,0,0,1,1.29-1.65,5.14,5.14,0,0,1,1.32-.88,3.7,3.7,0,0,1,1.44-.28,3.34,3.34,0,0,1,2.57,1.15,4.79,4.79,0,0,1,1,3.31,14.34,14.34,0,0,1-.71,4.42,8.58,8.58,0,0,1-2.35,3.88,4,4,0,0,1-2.64,1,3.27,3.27,0,0,1-2.55-1.19A5,5,0,0,1,212.11,136.51Zm1.6.42a3.74,3.74,0,0,0,.42,1.93,1.79,1.79,0,0,0,1.66,1,2.34,2.34,0,0,0,1.75-.87,8,8,0,0,0,1.71-3.6,17.46,17.46,0,0,0,.57-3.88,3.17,3.17,0,0,0-.55-2.09,1.84,1.84,0,0,0-1.46-.65,2.46,2.46,0,0,0-1.24.34,3.46,3.46,0,0,0-1.09,1.17,11.69,11.69,0,0,0-1.3,3.49A14.72,14.72,0,0,0,213.71,136.93Z"/><path d="M232.31,140.92l2.82-13.45h1.65L235,135.81l4.84-4.63h2.19l-4.15,3.63,2.51,6.11h-1.82l-1.94-5-2,1.74-.68,3.26Z"/><path d="M241.6,141.8l1.68.16a1.66,1.66,0,0,0,.13.85,1,1,0,0,0,.5.44,3,3,0,0,0,1.16.2,2.69,2.69,0,0,0,2.17-.78,5.94,5.94,0,0,0,.8-2.27l.16-.79a3.85,3.85,0,0,1-2.75,1.31,3.2,3.2,0,0,1-2.47-1.09,4.36,4.36,0,0,1-1-3.08,6.3,6.3,0,0,1,2.65-5.09,4.06,4.06,0,0,1,2.23-.7,3.24,3.24,0,0,1,3,1.81l.33-1.59h1.52l-2,9.4a8,8,0,0,1-.85,2.42,3.54,3.54,0,0,1-1.45,1.34,4.63,4.63,0,0,1-2.15.48,6.12,6.12,0,0,1-2-.3,2.62,2.62,0,0,1-1.26-.89,2.22,2.22,0,0,1-.42-1.33A3,3,0,0,1,241.6,141.8Zm2.07-5.19a4.4,4.4,0,0,0,.19,1.5,2.42,2.42,0,0,0,.79,1.08,1.84,1.84,0,0,0,1.13.37,2.78,2.78,0,0,0,1.62-.57,4,4,0,0,0,1.31-1.78,5.82,5.82,0,0,0,.5-2.29,2.69,2.69,0,0,0-.66-1.91,2.18,2.18,0,0,0-1.65-.72,2.28,2.28,0,0,0-1.17.33,3.5,3.5,0,0,0-1.06,1,4.87,4.87,0,0,0-.75,1.59A5.79,5.79,0,0,0,243.67,136.61Z"/><path d="M225,134.6a9.12,9.12,0,0,1,.46-1.61,13.57,13.57,0,0,1,1.11-2.27,10,10,0,0,1,1.53-1.93h-3.32l.16-.75h4.25l-.16.75a8.86,8.86,0,0,0-1.89,2.45,12.6,12.6,0,0,0-1.28,3.36Z"/><line x1="295.23" y1="110.89" x2="295.23" y2="125.51" style="fill:none;stroke:#000;stroke-miterlimit:10"/><line x1="452.73" y1="117.99" x2="297.45" y2="117.99" style="fill:none;stroke:#000;stroke-miterlimit:10"/><path d="M304.29,113.19a.5.5,0,0,1-.16.69L297.68,118l6.45,4.11a.5.5,0,1,1-.53.84l-7.12-4.53a.5.5,0,0,1,0-.84L303.6,113a.5.5,0,0,1,.26-.08A.51.51,0,0,1,304.29,113.19Z"/><line x1="692.23" y1="125.51" x2="692.23" y2="110.89" style="fill:none;stroke:#000;stroke-miterlimit:10"/><line x1="534.73" y1="118.41" x2="690.01" y2="118.41" style="fill:none;stroke:#000;stroke-miterlimit:10"/><path d="M683.18,123.21a.5.5,0,0,1,.15-.69l6.45-4.11-6.45-4.11a.5.5,0,1,1,.54-.84L691,118a.5.5,0,0,1,0,.84l-7.11,4.53a.45.45,0,0,1-.27.08A.49.49,0,0,1,683.18,123.21Z"/><path d="M469.3,122.35l1.66-.16c0,.23,0,.37,0,.42a2.66,2.66,0,0,0,.3,1.2,2.16,2.16,0,0,0,.83.93,2.06,2.06,0,0,0,1.09.32,2.87,2.87,0,0,0,1.55-.52A3.74,3.74,0,0,0,476,123a4.46,4.46,0,0,0,.49-2,2.47,2.47,0,0,0-.65-1.78,2.35,2.35,0,0,0-1.73-.67,2.83,2.83,0,0,0-1.35.35,3.74,3.74,0,0,0-1.18,1l-1.43-.1,2-6.78h6.47l-.31,1.5h-5l-1,3.37a4.57,4.57,0,0,1,1.15-.61,3.9,3.9,0,0,1,1.22-.2,3.32,3.32,0,0,1,2.49,1,3.77,3.77,0,0,1,1,2.75,6.1,6.1,0,0,1-.67,2.81,4.85,4.85,0,0,1-4.36,2.67,3.94,3.94,0,0,1-2-.51,3.32,3.32,0,0,1-1.31-1.42,4,4,0,0,1-.44-1.81C469.29,122.56,469.29,122.47,469.3,122.35Z"/><path d="M479.61,121.79a13.68,13.68,0,0,1,1.61-6.19A7.06,7.06,0,0,1,482.5,114a4.91,4.91,0,0,1,1.29-.86,3.63,3.63,0,0,1,1.42-.27,3.27,3.27,0,0,1,2.53,1.12,4.73,4.73,0,0,1,1,3.27,13.84,13.84,0,0,1-.71,4.34,8.24,8.24,0,0,1-2.31,3.82,3.86,3.86,0,0,1-2.59,1,3.21,3.21,0,0,1-2.52-1.17A5,5,0,0,1,479.61,121.79Zm1.58.42a3.76,3.76,0,0,0,.4,1.9,1.8,1.8,0,0,0,1.64,1,2.29,2.29,0,0,0,1.72-.86,7.91,7.91,0,0,0,1.69-3.54,16.75,16.75,0,0,0,.56-3.82,3.16,3.16,0,0,0-.54-2.06,1.83,1.83,0,0,0-1.44-.63,2.38,2.38,0,0,0-1.22.33,3.27,3.27,0,0,0-1.08,1.15,11.42,11.42,0,0,0-1.27,3.43A14.22,14.22,0,0,0,481.19,122.21Z"/><path d="M489.9,121.79a13.68,13.68,0,0,1,1.61-6.19,7.06,7.06,0,0,1,1.28-1.63,4.91,4.91,0,0,1,1.29-.86,3.63,3.63,0,0,1,1.42-.27A3.27,3.27,0,0,1,498,114a4.73,4.73,0,0,1,1,3.27,13.84,13.84,0,0,1-.71,4.34,8.24,8.24,0,0,1-2.31,3.82,3.86,3.86,0,0,1-2.59,1,3.21,3.21,0,0,1-2.52-1.17A5,5,0,0,1,489.9,121.79Zm1.58.42a3.76,3.76,0,0,0,.4,1.9,1.8,1.8,0,0,0,1.64,1,2.29,2.29,0,0,0,1.72-.86,7.91,7.91,0,0,0,1.69-3.54,16.75,16.75,0,0,0,.56-3.82,3.16,3.16,0,0,0-.54-2.06,1.83,1.83,0,0,0-1.44-.63,2.38,2.38,0,0,0-1.22.33,3.27,3.27,0,0,0-1.08,1.15,11.42,11.42,0,0,0-1.27,3.43A14.22,14.22,0,0,0,491.48,122.21Z"/><path d="M504.62,126.13l2-9.59h1.63l-.33,1.58a6.59,6.59,0,0,1,1.63-1.41,3.22,3.22,0,0,1,1.56-.39,2.32,2.32,0,0,1,1.49.48,2.18,2.18,0,0,1,.79,1.32,5.58,5.58,0,0,1,1.54-1.35,3.47,3.47,0,0,1,1.71-.45,2.53,2.53,0,0,1,1.8.57,2.1,2.1,0,0,1,.6,1.6,8.46,8.46,0,0,1-.21,1.47l-1.29,6.17h-1.63l1.31-6.34a5.73,5.73,0,0,0,.18-1.11,1,1,0,0,0-.3-.74,1.21,1.21,0,0,0-.84-.27,3,3,0,0,0-1.49.44,3.2,3.2,0,0,0-1.18,1.16,7.8,7.8,0,0,0-.74,2.21l-1,4.65h-1.64l1.36-6.47a5.68,5.68,0,0,0,.14-.94,1,1,0,0,0-.29-.76,1.06,1.06,0,0,0-.77-.29,3,3,0,0,0-1.46.44,3.65,3.65,0,0,0-1.24,1.23,7.26,7.26,0,0,0-.78,2.26l-.95,4.53Z"/><path d="M314.76,75.33l-1.86-9.68h1.25l1.12,5.77c.21,1,.34,1.9.4,2.54.41-.83.74-1.49,1-2l3.45-6.34h1.34l-5.31,9.68Z"/><path d="M327.85,69.64h-6.39V68.53h6.39Zm0,2.94h-6.39V71.47h6.39Z"/><path d="M331.39,75.33,332.92,68a7.58,7.58,0,0,1-2.78,1.25l.22-1.08a10.3,10.3,0,0,0,1.76-.93,9,9,0,0,0,1.3-1,3.12,3.12,0,0,0,.51-.64h.69l-2,9.72Z"/><path d="M336.44,75.33l.28-1.35h1.35l-.29,1.35Z"/><path d="M340.36,72.57l1.21-.12c0,.17,0,.27,0,.31a1.87,1.87,0,0,0,.22.87,1.6,1.6,0,0,0,.6.68,1.47,1.47,0,0,0,.8.24,2,2,0,0,0,1.13-.39,2.72,2.72,0,0,0,.93-1.11,3.31,3.31,0,0,0,.36-1.46,1.78,1.78,0,0,0-.48-1.3,1.7,1.7,0,0,0-1.26-.48,2,2,0,0,0-1,.25,2.6,2.6,0,0,0-.86.75L341,70.74l1.46-4.95h4.73l-.23,1.09h-3.68l-.73,2.46a3.63,3.63,0,0,1,.85-.44,2.62,2.62,0,0,1,.88-.15,2.45,2.45,0,0,1,1.83.73,2.79,2.79,0,0,1,.71,2,4.38,4.38,0,0,1-.49,2.06,3.56,3.56,0,0,1-3.19,2,2.87,2.87,0,0,1-1.47-.38,2.35,2.35,0,0,1-1-1,3,3,0,0,1-.32-1.32A1.49,1.49,0,0,1,340.36,72.57Z"/><path d="M351.13,75.33l1.46-7h1.2l-.25,1.16a4.64,4.64,0,0,1,1.2-1,2.35,2.35,0,0,1,1.13-.29,1.74,1.74,0,0,1,1.1.35,1.62,1.62,0,0,1,.57,1,4.08,4.08,0,0,1,1.13-1,2.5,2.5,0,0,1,1.24-.33,1.84,1.84,0,0,1,1.32.42,1.55,1.55,0,0,1,.44,1.17,6.34,6.34,0,0,1-.15,1.07l-.95,4.51h-1.19l1-4.63a4,4,0,0,0,.13-.82.7.7,0,0,0-.22-.54.88.88,0,0,0-.61-.19,2.1,2.1,0,0,0-1.09.32,2.27,2.27,0,0,0-.86.85,5.42,5.42,0,0,0-.54,1.61l-.71,3.4h-1.2l1-4.73a3.83,3.83,0,0,0,.11-.69.71.71,0,0,0-.22-.55.76.76,0,0,0-.56-.21,2.08,2.08,0,0,0-1.06.32,2.53,2.53,0,0,0-.91.9A5.39,5.39,0,0,0,353,72l-.7,3.31Z"/><path d="M361.26,75.49l5.2-10h1l-5.2,10Z"/><path d="M366.27,72.93l1.19-.07a2.1,2.1,0,0,0,.16.88,1.22,1.22,0,0,0,.58.59,2,2,0,0,0,1,.24,1.87,1.87,0,0,0,1.18-.32.92.92,0,0,0,.4-.75.87.87,0,0,0-.24-.58,3.6,3.6,0,0,0-1.19-.69,11.79,11.79,0,0,1-1.21-.57,1.88,1.88,0,0,1-.67-.64,1.55,1.55,0,0,1-.22-.84,1.84,1.84,0,0,1,.66-1.42,2.64,2.64,0,0,1,1.85-.6,3,3,0,0,1,2,.61,2.11,2.11,0,0,1,.71,1.61l-1.16.08a1.35,1.35,0,0,0-.45-1,1.76,1.76,0,0,0-1.2-.37,1.46,1.46,0,0,0-1,.28.8.8,0,0,0-.35.61.76.76,0,0,0,.3.59,4.82,4.82,0,0,0,1,.52,6.72,6.72,0,0,1,1.73.94,1.79,1.79,0,0,1,.57,1.33,1.94,1.94,0,0,1-.32,1,2.21,2.21,0,0,1-1,.8,3.65,3.65,0,0,1-1.54.3,3.51,3.51,0,0,1-2.07-.6A2.1,2.1,0,0,1,366.27,72.93Z"/><path d="M52.22,73.21a2.06,2.06,0,0,1-.81-.76,2,2,0,0,1-.27-1,2.48,2.48,0,0,1,.63-1.63,2.85,2.85,0,0,1,2.29-1,2.82,2.82,0,0,1,2,.69,2.27,2.27,0,0,1,.34,2.94,2.74,2.74,0,0,1-1.24.91,2.6,2.6,0,0,1,.83.77,2.42,2.42,0,0,1,.32,1.25,3.38,3.38,0,0,1-.92,2.32,3.16,3.16,0,0,1-2.45,1A2.76,2.76,0,0,1,51,78a2.53,2.53,0,0,1-.77-1.88,3,3,0,0,1,.55-1.83A2.65,2.65,0,0,1,52.22,73.21Zm-.84,3a1.64,1.64,0,0,0,.2.77,1.4,1.4,0,0,0,.59.59,1.87,1.87,0,0,0,.9.22,1.81,1.81,0,0,0,1.57-.92,2.66,2.66,0,0,0,.48-1.53,1.51,1.51,0,0,0-.44-1.11,1.6,1.6,0,0,0-1.15-.43,2,2,0,0,0-1.52.67A2.42,2.42,0,0,0,51.38,76.17Zm.93-4.67a1.34,1.34,0,0,0,.4,1,1.55,1.55,0,0,0,1.1.38,1.83,1.83,0,0,0,1.33-.5,1.64,1.64,0,0,0,.51-1.22,1.3,1.3,0,0,0-.4-1,1.48,1.48,0,0,0-1.09-.39,2,2,0,0,0-1,.24,1.61,1.61,0,0,0-.65.67A1.71,1.71,0,0,0,52.31,71.5Z"/><path d="M57.47,78.53l.28-1.35h1.36l-.29,1.35Z"/><path d="M61.4,75.36a8.81,8.81,0,0,1,.37-2.5,9.17,9.17,0,0,1,.81-2,5.24,5.24,0,0,1,.93-1.19,4.11,4.11,0,0,1,.95-.63,2.68,2.68,0,0,1,1-.2,2.41,2.41,0,0,1,1.85.83A3.46,3.46,0,0,1,68.09,72a10,10,0,0,1-.52,3.18A6,6,0,0,1,65.88,78,2.83,2.83,0,0,1,64,78.7a2.36,2.36,0,0,1-1.84-.86A3.66,3.66,0,0,1,61.4,75.36Zm1.16.3a2.82,2.82,0,0,0,.29,1.39,1.32,1.32,0,0,0,1.2.7,1.68,1.68,0,0,0,1.26-.63,5.7,5.7,0,0,0,1.23-2.59A12.14,12.14,0,0,0,67,71.74a2.28,2.28,0,0,0-.4-1.51,1.3,1.3,0,0,0-1-.46,1.75,1.75,0,0,0-.89.24,2.67,2.67,0,0,0-.78.84,8.53,8.53,0,0,0-.94,2.51A10.74,10.74,0,0,0,62.56,75.66Z"/><path d="M71.7,78.53l3-3.56L73,71.52h1.32l.6,1.25c.22.46.41.91.59,1.34l2-2.59H79l-2.94,3.54,1.76,3.47H76.49l-.7-1.43c-.15-.3-.32-.68-.5-1.12L73.2,78.53Z"/><path d="M85.49,78.53,87,71.22a7.58,7.58,0,0,1-2.78,1.25l.22-1.08a10.3,10.3,0,0,0,1.76-.93,9,9,0,0,0,1.3-1,3.41,3.41,0,0,0,.51-.64h.69l-2,9.72Z"/><path d="M90.71,75.36a8.81,8.81,0,0,1,.37-2.5,8.71,8.71,0,0,1,.81-2,5.24,5.24,0,0,1,.93-1.19,4.11,4.11,0,0,1,1-.63,2.66,2.66,0,0,1,1-.2,2.42,2.42,0,0,1,1.86.83A3.46,3.46,0,0,1,97.4,72a10,10,0,0,1-.52,3.18A6,6,0,0,1,95.19,78a2.83,2.83,0,0,1-1.89.71,2.36,2.36,0,0,1-1.84-.86A3.66,3.66,0,0,1,90.71,75.36Zm1.16.3a2.82,2.82,0,0,0,.29,1.39,1.32,1.32,0,0,0,1.2.7,1.68,1.68,0,0,0,1.26-.63,5.7,5.7,0,0,0,1.23-2.59,12.14,12.14,0,0,0,.41-2.79,2.28,2.28,0,0,0-.4-1.51,1.3,1.3,0,0,0-1-.46,1.75,1.75,0,0,0-.89.24,2.81,2.81,0,0,0-.79.84,8.86,8.86,0,0,0-.93,2.51A10.74,10.74,0,0,0,91.87,75.66Z"/><path d="M105.45,78.53l2-9.68h1.26l1.63,3.63c.49,1.11.89,2,1.18,2.8.17.44.36,1,.58,1.78q.18-1.22.45-2.52l1.19-5.69H115l-2,9.68h-1.28l-2.41-5.59q-.63-1.48-1-2.61c-.07.63-.2,1.4-.39,2.32l-1.22,5.88Z"/><path d="M74,59.8l2-9.68h6.29l-.23,1.1h-5l-.65,3.08h5.09l-.23,1.11H76.22l-.91,4.39Z"/><path d="M92.77,54.11H86.38V53h6.39Zm0,2.93H86.38v-1.1h6.39Z"/><path d="M101.66,74.05l.36-1.7H99.3l.17-.81,3.73-4.15h.67L103,71.62h.93l-.15.73h-.93l-.36,1.7Zm.51-2.43.58-2.78-2.48,2.78Z"/></svg>