<svg id="Capa_1" data-name="Capa 1" xmlns="http://www.w3.org/2000/svg" viewBox="0 0 61.16 60.78"><path d="M23.21,51.62c-.14.59-.24,1.09-.32,1.5a14.39,14.39,0,0,0-.2,1.51c-.06.6-.09,1.12-.09,1.58a2.84,2.84,0,0,0,.29,1.42,1.63,1.63,0,0,0,.88.75,7.18,7.18,0,0,0,2,.35l-.32,1.45h-12l.32-1.45a3.77,3.77,0,0,0,1.66-.57,3.21,3.21,0,0,0,.94-1.1,11.11,11.11,0,0,0,.7-1.72q.32-1,1-3.93l5-22.64a23.73,23.73,0,0,0,.64-4.65,2.52,2.52,0,0,0-.67-2,3.82,3.82,0,0,0-2.19-.64L21.11,20H47.45l-2,9h-2.8c-.08-1.39-.19-2.48-.32-3.28A6.81,6.81,0,0,0,41.8,24a2.5,2.5,0,0,0-.69-.86,2.35,2.35,0,0,0-1-.4,8.35,8.35,0,0,0-1.62-.12h-9l-3.48,16h5.46a5.64,5.64,0,0,0,2.13-.35A4,4,0,0,0,35.24,37a18.42,18.42,0,0,0,1.81-3.16h2.66L36.88,46.24H34.31c0-1.22,0-2.17-.08-2.86a3.12,3.12,0,0,0-.35-1.44,1.42,1.42,0,0,0-.79-.57,7,7,0,0,0-1.85-.16H25.52Z"/><line x1="20.72" y1="6.5" x2="49.45" y2="6.5" style="fill:none;stroke:#000;stroke-miterlimit:10;stroke-width:2.7375431151838314px"/><polygon points="44 11.14 48.65 6.5 44 1.86 47.94 1.86 52.58 6.5 47.94 11.14 44 11.14"/></svg>