<svg id="Capa_1" data-name="Capa 1" xmlns="http://www.w3.org/2000/svg" viewBox="0 0 434.55 431.43"><rect x="68.76" y="164.74" width="51.56" height="201.52" style="fill:#474ca0"/><rect x="68.76" y="86.95" width="51.56" height="75.13" style="fill:#1e2053"/><rect x="130.99" y="86.95" width="51.56" height="80.14" style="fill:#1e2053"/><rect x="193.22" y="86.95" width="51.56" height="90.77" style="fill:#1e2053"/><rect x="255.46" y="86.95" width="51.56" height="94.71" style="fill:#1e2053"/><rect x="317.69" y="86.95" width="51.56" height="158.01" style="fill:#1e2053"/><rect x="130.99" y="169.02" width="51.56" height="197.23" style="fill:#474ca0"/><rect x="193.22" y="179.82" width="51.56" height="186.43" style="fill:#474ca0"/><rect x="255.46" y="183.63" width="51.56" height="182.62" style="fill:#474ca0"/><rect x="317.69" y="247.78" width="51.56" height="118.48" style="fill:#474ca0"/><path d="M21.12,89.94H19.33V83.22A6.11,6.11,0,0,1,17,84.57V83a5.16,5.16,0,0,0,1.51-.86,3.27,3.27,0,0,0,1.13-1.49h1.45Z"/><path d="M26.34,80.6a2.56,2.56,0,0,1,2.12,1,6.23,6.23,0,0,1,.9,3.79,6.19,6.19,0,0,1-.91,3.8,2.55,2.55,0,0,1-2.11.95,2.69,2.69,0,0,1-2.19-1,6.23,6.23,0,0,1-.83-3.73,6.13,6.13,0,0,1,.92-3.78A2.53,2.53,0,0,1,26.34,80.6Zm0,1.48a.9.9,0,0,0-.57.2,1.39,1.39,0,0,0-.4.74,10.49,10.49,0,0,0-.18,2.33,10.11,10.11,0,0,0,.16,2.25,1.59,1.59,0,0,0,.42.82.93.93,0,0,0,1.15,0,1.39,1.39,0,0,0,.39-.74,9.66,9.66,0,0,0,.19-2.33,10.06,10.06,0,0,0-.17-2.25,1.67,1.67,0,0,0-.41-.82A.93.93,0,0,0,26.34,82.08Z"/><path d="M33.12,80.6a2.55,2.55,0,0,1,2.11,1,6.15,6.15,0,0,1,.91,3.79,6.18,6.18,0,0,1-.92,3.8,2.53,2.53,0,0,1-2.1.95,2.66,2.66,0,0,1-2.19-1,6.16,6.16,0,0,1-.83-3.73A6.14,6.14,0,0,1,31,81.55,2.55,2.55,0,0,1,33.12,80.6Zm0,1.48a.93.93,0,0,0-.58.2,1.39,1.39,0,0,0-.39.74A9.77,9.77,0,0,0,32,85.35a9.93,9.93,0,0,0,.17,2.25,1.67,1.67,0,0,0,.41.82.93.93,0,0,0,.58.2.9.9,0,0,0,.57-.2,1.39,1.39,0,0,0,.4-.74,10.37,10.37,0,0,0,.18-2.33,10.24,10.24,0,0,0-.16-2.25,1.59,1.59,0,0,0-.42-.82A.92.92,0,0,0,33.12,82.08Z"/><path d="M36.89,82.94a2.67,2.67,0,0,1,.55-1.86,1.92,1.92,0,0,1,1.49-.6,2,2,0,0,1,1.52.6,3.4,3.4,0,0,1,0,3.71,1.92,1.92,0,0,1-1.49.6,2,2,0,0,1-1.52-.6A2.66,2.66,0,0,1,36.89,82.94Zm1.39,0a2.4,2.4,0,0,0,.21,1.22.52.52,0,0,0,.44.23.5.5,0,0,0,.44-.23,2.4,2.4,0,0,0,.21-1.22,2.35,2.35,0,0,0-.21-1.21.48.48,0,0,0-.44-.23.51.51,0,0,0-.44.22A2.43,2.43,0,0,0,38.28,82.92Zm2,7.38H39l5-9.82h1.29Zm2.88-2.45A2.66,2.66,0,0,1,43.72,86a1.91,1.91,0,0,1,1.5-.6,2,2,0,0,1,1.51.6,3.46,3.46,0,0,1,0,3.71,2.16,2.16,0,0,1-3,0A2.67,2.67,0,0,1,43.17,87.85Zm1.39,0a2.35,2.35,0,0,0,.21,1.21.52.52,0,0,0,.87,0,3.73,3.73,0,0,0,0-2.44.52.52,0,0,0-.44-.23.49.49,0,0,0-.44.23A2.4,2.4,0,0,0,44.56,87.85Z"/><path d="M24.86,140.41a2,2,0,0,1-1.32-1.92,2.26,2.26,0,0,1,.72-1.72,3,3,0,0,1,2.07-.68,2.94,2.94,0,0,1,2.06.68,2.24,2.24,0,0,1,.73,1.72,2,2,0,0,1-.33,1.15,2.08,2.08,0,0,1-.95.77,2.49,2.49,0,0,1,1.18.91,2.4,2.4,0,0,1,.4,1.38,2.77,2.77,0,0,1-.82,2.09,3,3,0,0,1-2.19.81,3.27,3.27,0,0,1-2.11-.67,2.58,2.58,0,0,1-1-2.16,2.65,2.65,0,0,1,.38-1.38A2.42,2.42,0,0,1,24.86,140.41Zm.2,2.19a1.64,1.64,0,0,0,.38,1.15,1.19,1.19,0,0,0,.94.41,1.18,1.18,0,0,0,.91-.39,1.62,1.62,0,0,0,.37-1.15,1.53,1.53,0,0,0-.37-1.05,1.25,1.25,0,0,0-.94-.4,1.12,1.12,0,0,0-1,.46A1.66,1.66,0,0,0,25.06,142.6Zm.16-4a1.13,1.13,0,0,0,.31.83,1.09,1.09,0,0,0,.8.3,1.06,1.06,0,0,0,.81-.31,1.12,1.12,0,0,0,.31-.83,1,1,0,0,0-1.1-1.1,1.05,1.05,0,0,0-1.13,1.11Z"/><path d="M33.12,136.09a2.53,2.53,0,0,1,2.11,1,8.31,8.31,0,0,1,0,7.58,2.51,2.51,0,0,1-2.1,1,2.66,2.66,0,0,1-2.19-1A8.54,8.54,0,0,1,31,137,2.55,2.55,0,0,1,33.12,136.09Zm0,1.48a.88.88,0,0,0-.58.21,1.32,1.32,0,0,0-.39.74,9.62,9.62,0,0,0-.19,2.32,10.1,10.1,0,0,0,.17,2.26,1.63,1.63,0,0,0,.41.81.87.87,0,0,0,.58.2.85.85,0,0,0,.57-.2,1.39,1.39,0,0,0,.4-.74,10.37,10.37,0,0,0,.18-2.33,10.24,10.24,0,0,0-.16-2.25,1.55,1.55,0,0,0-.42-.81A.87.87,0,0,0,33.12,137.57Z"/><path d="M36.89,138.43a2.67,2.67,0,0,1,.55-1.86,1.91,1.91,0,0,1,1.49-.6,2,2,0,0,1,1.52.6,3.4,3.4,0,0,1,0,3.71,1.92,1.92,0,0,1-1.49.6,1.94,1.94,0,0,1-1.52-.6A2.66,2.66,0,0,1,36.89,138.43Zm1.39,0a2.4,2.4,0,0,0,.21,1.22.54.54,0,0,0,.88,0,2.43,2.43,0,0,0,.2-1.22,2.38,2.38,0,0,0-.2-1.21.48.48,0,0,0-.44-.23.5.5,0,0,0-.44.22A2.43,2.43,0,0,0,38.28,138.41Zm2,7.38H39l5-9.82h1.29Zm2.88-2.44a2.67,2.67,0,0,1,.55-1.86,2.17,2.17,0,0,1,3,0,2.67,2.67,0,0,1,.55,1.86,2.7,2.7,0,0,1-.55,1.86,1.9,1.9,0,0,1-1.48.6,1.94,1.94,0,0,1-1.52-.6A2.7,2.7,0,0,1,43.17,143.35Zm1.39,0a2.35,2.35,0,0,0,.21,1.21.49.49,0,0,0,.44.24.5.5,0,0,0,.43-.23,2.43,2.43,0,0,0,.21-1.22,2.54,2.54,0,0,0-.2-1.22.53.53,0,0,0-.44-.23.49.49,0,0,0-.44.23A2.4,2.4,0,0,0,44.56,143.34Z"/><path d="M29.37,193.9l-1.73.19a1.23,1.23,0,0,0-.33-.79,1,1,0,0,0-.69-.25,1.15,1.15,0,0,0-.95.51,4.24,4.24,0,0,0-.5,2.11,2.12,2.12,0,0,1,1.66-.79,2.54,2.54,0,0,1,1.91.85,3.06,3.06,0,0,1,.8,2.2,3.14,3.14,0,0,1-.84,2.29,2.84,2.84,0,0,1-2.15.86A2.88,2.88,0,0,1,24.23,200a5.68,5.68,0,0,1-.9-3.59,5.76,5.76,0,0,1,.94-3.69,3.06,3.06,0,0,1,2.46-1.13,2.56,2.56,0,0,1,1.75.6A2.75,2.75,0,0,1,29.37,193.9Zm-4,3.89a2,2,0,0,0,.4,1.34,1.16,1.16,0,0,0,.91.48,1,1,0,0,0,.83-.39A2,2,0,0,0,27.8,198a2,2,0,0,0-.36-1.33,1.15,1.15,0,0,0-1.76,0A1.74,1.74,0,0,0,25.33,197.79Z"/><path d="M33.12,191.58a2.53,2.53,0,0,1,2.11,1,8.31,8.31,0,0,1,0,7.58,2.51,2.51,0,0,1-2.1,1,2.64,2.64,0,0,1-2.19-1,8.54,8.54,0,0,1,.08-7.51A2.55,2.55,0,0,1,33.12,191.58Zm0,1.48a.88.88,0,0,0-.58.21,1.32,1.32,0,0,0-.39.74,9.66,9.66,0,0,0-.19,2.33,10.06,10.06,0,0,0,.17,2.25,1.58,1.58,0,0,0,.41.81.88.88,0,0,0,.58.21.86.86,0,0,0,.57-.21,1.36,1.36,0,0,0,.4-.74,10.33,10.33,0,0,0,.18-2.32,10.11,10.11,0,0,0-.16-2.25,1.55,1.55,0,0,0-.42-.82A.87.87,0,0,0,33.12,193.06Z"/><path d="M36.89,193.92a2.69,2.69,0,0,1,.55-1.86,1.91,1.91,0,0,1,1.49-.6,2,2,0,0,1,1.52.6,3.4,3.4,0,0,1,0,3.71,1.92,1.92,0,0,1-1.49.6,1.94,1.94,0,0,1-1.52-.6A2.62,2.62,0,0,1,36.89,193.92Zm1.39,0a2.35,2.35,0,0,0,.21,1.21.54.54,0,0,0,.88,0,2.38,2.38,0,0,0,.2-1.21,2.43,2.43,0,0,0-.2-1.22.5.5,0,0,0-.44-.23.48.48,0,0,0-.44.23A2.37,2.37,0,0,0,38.28,193.91Zm2,7.37H39l5-9.82h1.29Zm2.88-2.44a2.69,2.69,0,0,1,.55-1.86,2.18,2.18,0,0,1,3,0,3.42,3.42,0,0,1,0,3.72,1.9,1.9,0,0,1-1.48.6,1.94,1.94,0,0,1-1.52-.6A2.67,2.67,0,0,1,43.17,198.84Zm1.39,0a2.33,2.33,0,0,0,.21,1.21.49.49,0,0,0,.44.24.5.5,0,0,0,.43-.23,2.4,2.4,0,0,0,.21-1.22,2.57,2.57,0,0,0-.2-1.22.53.53,0,0,0-.44-.23.49.49,0,0,0-.44.23A2.43,2.43,0,0,0,44.56,198.83Z"/><path d="M26.82,256.42v-1.88H23V253l4-5.91h1.5V253h1.16v1.56H28.55v1.88Zm0-3.44V249.8L24.68,253Z"/><path d="M33.12,247.07a2.55,2.55,0,0,1,2.11,1,8.31,8.31,0,0,1,0,7.58,2.51,2.51,0,0,1-2.1,1,2.65,2.65,0,0,1-2.19-1A8.52,8.52,0,0,1,31,248,2.53,2.53,0,0,1,33.12,247.07Zm0,1.48a.88.88,0,0,0-.58.21,1.35,1.35,0,0,0-.39.74,9.72,9.72,0,0,0-.19,2.33,10.06,10.06,0,0,0,.17,2.25,1.58,1.58,0,0,0,.41.81.88.88,0,0,0,.58.21.86.86,0,0,0,.57-.21,1.36,1.36,0,0,0,.4-.74,15.45,15.45,0,0,0,0-4.57,1.59,1.59,0,0,0-.42-.82A.87.87,0,0,0,33.12,248.55Z"/><path d="M36.89,249.41a2.66,2.66,0,0,1,.55-1.85,1.88,1.88,0,0,1,1.49-.61,2,2,0,0,1,1.52.6,3.4,3.4,0,0,1,0,3.71,2.17,2.17,0,0,1-3,0A2.67,2.67,0,0,1,36.89,249.41Zm1.39,0a2.43,2.43,0,0,0,.21,1.22.55.55,0,0,0,.88,0,2.45,2.45,0,0,0,.2-1.22,2.43,2.43,0,0,0-.2-1.22.54.54,0,0,0-.88,0A2.4,2.4,0,0,0,38.28,249.4Zm2,7.37H39l5-9.82h1.29Zm2.88-2.44a2.66,2.66,0,0,1,.55-1.85,2.15,2.15,0,0,1,3,0,3.4,3.4,0,0,1,0,3.71,1.9,1.9,0,0,1-1.48.6,1.94,1.94,0,0,1-1.52-.6A2.67,2.67,0,0,1,43.17,254.33Zm1.39,0a2.33,2.33,0,0,0,.21,1.21.49.49,0,0,0,.44.24.5.5,0,0,0,.43-.23,2.4,2.4,0,0,0,.21-1.22,2.57,2.57,0,0,0-.2-1.22.52.52,0,0,0-.44-.22.48.48,0,0,0-.44.22A2.43,2.43,0,0,0,44.56,254.32Z"/><path d="M29.35,310.25v1.66H23.1a4.3,4.3,0,0,1,.61-1.78,11.59,11.59,0,0,1,2-2.23,11.74,11.74,0,0,0,1.48-1.53,1.91,1.91,0,0,0,.37-1.09,1.27,1.27,0,0,0-.32-.92,1.21,1.21,0,0,0-.89-.32,1.19,1.19,0,0,0-.88.34,1.71,1.71,0,0,0-.38,1.12l-1.78-.18a2.9,2.9,0,0,1,1-2.11,3.35,3.35,0,0,1,2.1-.65,3,3,0,0,1,2.16.75,2.41,2.41,0,0,1,.79,1.84,3.23,3.23,0,0,1-.22,1.2,5,5,0,0,1-.72,1.19,10.13,10.13,0,0,1-1.17,1.19c-.56.51-.92.86-1.07,1a2.9,2.9,0,0,0-.36.49Z"/><path d="M33.12,302.56a2.55,2.55,0,0,1,2.11,1,8.31,8.31,0,0,1,0,7.58,2.51,2.51,0,0,1-2.1,1A2.65,2.65,0,0,1,30.93,311a8.52,8.52,0,0,1,.08-7.5A2.53,2.53,0,0,1,33.12,302.56Zm0,1.48a.88.88,0,0,0-.58.21,1.35,1.35,0,0,0-.39.74,9.72,9.72,0,0,0-.19,2.33,10.06,10.06,0,0,0,.17,2.25,1.58,1.58,0,0,0,.41.81.88.88,0,0,0,.58.21.86.86,0,0,0,.57-.21,1.36,1.36,0,0,0,.4-.74,15.45,15.45,0,0,0,0-4.57,1.59,1.59,0,0,0-.42-.82A.87.87,0,0,0,33.12,304Z"/><path d="M36.89,304.9a2.66,2.66,0,0,1,.55-1.85,1.91,1.91,0,0,1,1.49-.61,2,2,0,0,1,1.52.6,3.4,3.4,0,0,1,0,3.71,1.89,1.89,0,0,1-1.49.61,1.94,1.94,0,0,1-1.52-.6A2.67,2.67,0,0,1,36.89,304.9Zm1.39,0a2.43,2.43,0,0,0,.21,1.22.54.54,0,0,0,.88,0,2.45,2.45,0,0,0,.2-1.22,2.36,2.36,0,0,0-.2-1.21.49.49,0,0,0-.44-.24.5.5,0,0,0-.44.23A2.4,2.4,0,0,0,38.28,304.89Zm2,7.37H39l5-9.82h1.29Zm2.88-2.44a2.66,2.66,0,0,1,.55-1.85,2.15,2.15,0,0,1,3,0,3.4,3.4,0,0,1,0,3.71,1.9,1.9,0,0,1-1.48.6,1.94,1.94,0,0,1-1.52-.6A2.67,2.67,0,0,1,43.17,309.82Zm1.39,0a2.4,2.4,0,0,0,.21,1.22.5.5,0,0,0,.44.23.5.5,0,0,0,.43-.23,2.4,2.4,0,0,0,.21-1.22,2.57,2.57,0,0,0-.2-1.22.52.52,0,0,0-.44-.22.48.48,0,0,0-.44.22A2.43,2.43,0,0,0,44.56,309.81Z"/><path d="M33.12,351.06a2.55,2.55,0,0,1,2.11,1,8.33,8.33,0,0,1,0,7.59,2.53,2.53,0,0,1-2.1.95,2.65,2.65,0,0,1-2.19-1.05A8.52,8.52,0,0,1,31,352,2.52,2.52,0,0,1,33.12,351.06Zm0,1.48a.87.87,0,0,0-.58.2,1.39,1.39,0,0,0-.39.74,9.72,9.72,0,0,0-.19,2.33,10.06,10.06,0,0,0,.17,2.25,1.67,1.67,0,0,0,.41.82.93.93,0,0,0,.58.2.86.86,0,0,0,.57-.21,1.32,1.32,0,0,0,.4-.74,15.45,15.45,0,0,0,0-4.57,1.59,1.59,0,0,0-.42-.82A.86.86,0,0,0,33.12,352.54Z"/><path d="M36.89,353.39a2.66,2.66,0,0,1,.55-1.85,1.92,1.92,0,0,1,1.49-.6,2,2,0,0,1,1.52.6,2.69,2.69,0,0,1,.55,1.85,2.74,2.74,0,0,1-.55,1.86,1.92,1.92,0,0,1-1.49.6,2,2,0,0,1-1.52-.6A2.67,2.67,0,0,1,36.89,353.39Zm1.39,0a2.43,2.43,0,0,0,.21,1.22.52.52,0,0,0,.44.23.5.5,0,0,0,.44-.23,2.43,2.43,0,0,0,.21-1.22,2.33,2.33,0,0,0-.21-1.21.49.49,0,0,0-.44-.24.52.52,0,0,0-.44.23A2.4,2.4,0,0,0,38.28,353.38Zm2,7.38H39l5-9.82h1.29Zm2.88-2.45a2.66,2.66,0,0,1,.55-1.85,1.91,1.91,0,0,1,1.5-.6,2,2,0,0,1,1.51.6,3.46,3.46,0,0,1,0,3.71,2.19,2.19,0,0,1-3,0A2.67,2.67,0,0,1,43.17,358.31Zm1.39,0a2.38,2.38,0,0,0,.21,1.21.5.5,0,0,0,.44.23.47.47,0,0,0,.43-.23,2.35,2.35,0,0,0,.21-1.21,2.4,2.4,0,0,0-.2-1.22.49.49,0,0,0-.44-.23.47.47,0,0,0-.44.23A2.37,2.37,0,0,0,44.56,358.31Z"/><path d="M283.11,31.54l-3.33-9.31h2l2.36,6.89,2.28-6.89h2l-3.33,9.31Z"/><path d="M287.56,28.07a3.67,3.67,0,0,1,.44-1.72,3,3,0,0,1,1.24-1.27,3.71,3.71,0,0,1,1.79-.44,3.34,3.34,0,0,1,2.51,1,3.72,3.72,0,0,1,0,5,3.35,3.35,0,0,1-2.48,1,3.91,3.91,0,0,1-1.77-.42A2.87,2.87,0,0,1,288,30,4.1,4.1,0,0,1,287.56,28.07Zm1.83.1a2.21,2.21,0,0,0,.48,1.53,1.54,1.54,0,0,0,2.34,0,2.23,2.23,0,0,0,.47-1.55,2.2,2.2,0,0,0-.47-1.52,1.56,1.56,0,0,0-2.34,0A2.24,2.24,0,0,0,289.39,28.17Z"/><path d="M298.55,24.8v1.42h-1.22v2.71a5.71,5.71,0,0,0,0,1,.35.35,0,0,0,.16.22.49.49,0,0,0,.3.09,2.4,2.4,0,0,0,.71-.17l.16,1.38a3.55,3.55,0,0,1-1.41.27,2.21,2.21,0,0,1-.87-.16,1.29,1.29,0,0,1-.57-.42,1.68,1.68,0,0,1-.25-.7,8.07,8.07,0,0,1-.06-1.25V26.22h-.82V24.8h.82V23.46l1.79-1V24.8Z"/><path d="M298.92,28.07a3.67,3.67,0,0,1,.44-1.72,3,3,0,0,1,1.24-1.27,3.71,3.71,0,0,1,1.79-.44,3.34,3.34,0,0,1,2.51,1,3.72,3.72,0,0,1,0,5,3.33,3.33,0,0,1-2.48,1,3.91,3.91,0,0,1-1.77-.42A2.87,2.87,0,0,1,299.36,30,4.1,4.1,0,0,1,298.92,28.07Zm1.83.1a2.21,2.21,0,0,0,.48,1.53,1.54,1.54,0,0,0,2.34,0,2.23,2.23,0,0,0,.47-1.55,2.2,2.2,0,0,0-.47-1.52,1.56,1.56,0,0,0-2.34,0A2.24,2.24,0,0,0,300.75,28.17Z"/><path d="M306.19,29.61l1.79-.27a1.29,1.29,0,0,0,.47.79,1.53,1.53,0,0,0,1,.27,1.75,1.75,0,0,0,1-.25.57.57,0,0,0,.24-.48.47.47,0,0,0-.13-.34,1.49,1.49,0,0,0-.6-.23,9.77,9.77,0,0,1-2.73-.87,1.74,1.74,0,0,1-.8-1.52,1.88,1.88,0,0,1,.69-1.47,3.23,3.23,0,0,1,2.15-.6,3.73,3.73,0,0,1,2.05.45,2.31,2.31,0,0,1,.93,1.34l-1.68.31a1.06,1.06,0,0,0-.41-.61,1.58,1.58,0,0,0-.86-.2,2,2,0,0,0-1,.19.42.42,0,0,0-.2.36.42.42,0,0,0,.17.33,6.89,6.89,0,0,0,1.67.5,5.1,5.1,0,0,1,2,.79,1.66,1.66,0,0,1,.56,1.33,2,2,0,0,1-.78,1.59,3.38,3.38,0,0,1-2.29.67,3.78,3.78,0,0,1-2.18-.56A2.61,2.61,0,0,1,306.19,29.61Z"/><path d="M331.74,31.54V22.23h1.82l3.81,6.22V22.23h1.75v9.31h-1.89l-3.75-6.07v6.07Z"/><path d="M340.22,28.07a3.67,3.67,0,0,1,.44-1.72,3,3,0,0,1,1.24-1.27,3.75,3.75,0,0,1,1.8-.44,3.32,3.32,0,0,1,2.5,1,3.4,3.4,0,0,1,1,2.51,3.45,3.45,0,0,1-1,2.53,3.32,3.32,0,0,1-2.48,1,3.91,3.91,0,0,1-1.77-.42A2.87,2.87,0,0,1,340.66,30,4.1,4.1,0,0,1,340.22,28.07Zm1.83.1a2.21,2.21,0,0,0,.48,1.53,1.51,1.51,0,0,0,1.17.54,1.48,1.48,0,0,0,1.17-.54,2.23,2.23,0,0,0,.48-1.55,2.2,2.2,0,0,0-.48-1.52,1.47,1.47,0,0,0-1.17-.53,1.5,1.5,0,0,0-1.17.53A2.24,2.24,0,0,0,342.05,28.17Z"/><path d="M336.29,50l1.82-.18a2.28,2.28,0,0,0,.67,1.35,2,2,0,0,0,1.37.43,2.1,2.1,0,0,0,1.36-.38,1.15,1.15,0,0,0,.46-.9.83.83,0,0,0-.19-.56,1.52,1.52,0,0,0-.68-.41c-.22-.07-.72-.21-1.5-.4a5.17,5.17,0,0,1-2.12-.92,2.43,2.43,0,0,1-.86-1.87,2.37,2.37,0,0,1,.41-1.33,2.45,2.45,0,0,1,1.16-.95,4.72,4.72,0,0,1,1.83-.32,3.94,3.94,0,0,1,2.64.77,2.7,2.7,0,0,1,.93,2.05l-1.88.08a1.61,1.61,0,0,0-.52-1,1.9,1.9,0,0,0-1.19-.32,2.16,2.16,0,0,0-1.28.34.68.68,0,0,0-.3.58.69.69,0,0,0,.28.56,5,5,0,0,0,1.72.63,8.88,8.88,0,0,1,2,.66,2.7,2.7,0,0,1,1,.95,2.73,2.73,0,0,1,.37,1.48,2.76,2.76,0,0,1-.44,1.5,2.7,2.7,0,0,1-1.26,1,5.2,5.2,0,0,1-2,.34,4,4,0,0,1-2.71-.82A3.51,3.51,0,0,1,336.29,50Z"/><path d="M345,45.33V43.68h1.78v1.65ZM345,53V46.24h1.78V53Z"/><path d="M79.41,387.46,81.85,384l-2.33-3.27h2.17l1.2,1.85,1.25-1.85h2.1L84,383.91l2.5,3.55H84.26l-1.37-2.09-1.39,2.09Z"/><path d="M93.1,386.4l-6.38-2.77v-1.54l6.38-2.76v1.81l-4.45,1.7,4.45,1.77Z"/><path d="M93.74,385l1.72-.21a1.67,1.67,0,0,0,.45,1,1.18,1.18,0,0,0,.88.35,1.23,1.23,0,0,0,.93-.42,1.62,1.62,0,0,0,.37-1.13,1.5,1.5,0,0,0-.36-1.06,1.12,1.12,0,0,0-.88-.4,3.12,3.12,0,0,0-.82.14l.2-1.46a1.57,1.57,0,0,0,1.1-.31,1.1,1.1,0,0,0,.38-.89,1,1,0,0,0-1-1,1.1,1.1,0,0,0-.78.32,1.43,1.43,0,0,0-.39.93l-1.65-.28a3.85,3.85,0,0,1,.52-1.35,2.28,2.28,0,0,1,1-.79,3.18,3.18,0,0,1,1.39-.29,2.76,2.76,0,0,1,2.11.84,2.12,2.12,0,0,1-.69,3.5,2.12,2.12,0,0,1,1.28.77,2.23,2.23,0,0,1,.48,1.44,2.82,2.82,0,0,1-.89,2.09,3.11,3.11,0,0,1-2.23.86,3.07,3.07,0,0,1-2.1-.73A2.85,2.85,0,0,1,93.74,385Z"/><path d="M103.59,378.12a2.56,2.56,0,0,1,2.12,1,8.41,8.41,0,0,1,0,7.59,2.55,2.55,0,0,1-2.11.95,2.69,2.69,0,0,1-2.19-1,8.54,8.54,0,0,1,.08-7.51A2.57,2.57,0,0,1,103.59,378.12Zm0,1.48a1,1,0,0,0-.58.2,1.39,1.39,0,0,0-.39.74,10.43,10.43,0,0,0-.18,2.33,10.24,10.24,0,0,0,.16,2.25,1.59,1.59,0,0,0,.42.82.9.9,0,0,0,.57.2.93.93,0,0,0,.58-.2,1.39,1.39,0,0,0,.39-.74,9.72,9.72,0,0,0,.19-2.33,10.06,10.06,0,0,0-.17-2.25,1.67,1.67,0,0,0-.41-.82A.93.93,0,0,0,103.59,379.6Z"/><path d="M134.44,385l1.73-.21a1.61,1.61,0,0,0,.44,1,1.26,1.26,0,0,0,1.81-.07,1.62,1.62,0,0,0,.38-1.13,1.5,1.5,0,0,0-.37-1.06,1.12,1.12,0,0,0-.88-.4,3.12,3.12,0,0,0-.82.14l.2-1.46a1.57,1.57,0,0,0,1.1-.31,1.11,1.11,0,0,0,.39-.89,1,1,0,0,0-1-1,1.1,1.1,0,0,0-.78.32,1.48,1.48,0,0,0-.39.93l-1.65-.28a3.85,3.85,0,0,1,.52-1.35,2.25,2.25,0,0,1,1-.79,3.1,3.1,0,0,1,1.38-.29,2.76,2.76,0,0,1,2.11.84,2.14,2.14,0,0,1,.65,1.54,2.19,2.19,0,0,1-1.33,2,2.1,2.1,0,0,1,1.27.77,2.23,2.23,0,0,1,.48,1.44,2.78,2.78,0,0,1-.89,2.09,3.11,3.11,0,0,1-2.23.86,3,3,0,0,1-2.09-.73A2.81,2.81,0,0,1,134.44,385Z"/><path d="M144.29,378.12a2.55,2.55,0,0,1,2.12,1,8.33,8.33,0,0,1,0,7.59,2.54,2.54,0,0,1-2.11.95,2.69,2.69,0,0,1-2.19-1,6.23,6.23,0,0,1-.83-3.73,6.13,6.13,0,0,1,.92-3.78A2.53,2.53,0,0,1,144.29,378.12Zm0,1.48a.92.92,0,0,0-.57.2,1.47,1.47,0,0,0-.4.74,10.43,10.43,0,0,0-.18,2.33,10.24,10.24,0,0,0,.16,2.25,1.67,1.67,0,0,0,.42.82.93.93,0,0,0,1.15,0,1.47,1.47,0,0,0,.4-.74,10.43,10.43,0,0,0,.18-2.33,10.24,10.24,0,0,0-.16-2.25,1.67,1.67,0,0,0-.42-.82A.93.93,0,0,0,144.29,379.6Z"/><path d="M154.48,386.4l-6.37-2.77v-1.54l6.37-2.76v1.81l-4.44,1.7,4.44,1.77Z"/><path d="M154.71,387.46l2.44-3.47-2.33-3.27H157l1.2,1.85,1.25-1.85h2.1l-2.29,3.19,2.5,3.55h-2.19l-1.37-2.09-1.39,2.09Z"/><path d="M168.4,386.4,162,383.63v-1.54l6.38-2.76v1.81l-4.45,1.7,4.45,1.77Z"/><path d="M172.6,387.46v-1.87h-3.81V384l4-5.91h1.5V384h1.15v1.57h-1.15v1.87Zm0-3.44v-3.18L170.46,384Z"/><path d="M178.89,378.12a2.56,2.56,0,0,1,2.12,1,8.41,8.41,0,0,1,0,7.59,2.55,2.55,0,0,1-2.11.95,2.69,2.69,0,0,1-2.19-1,6.23,6.23,0,0,1-.83-3.73,6.13,6.13,0,0,1,.92-3.78A2.53,2.53,0,0,1,178.89,378.12Zm0,1.48a.9.9,0,0,0-.57.2,1.39,1.39,0,0,0-.4.74,10.43,10.43,0,0,0-.18,2.33,10.24,10.24,0,0,0,.16,2.25,1.59,1.59,0,0,0,.42.82.93.93,0,0,0,1.15,0,1.39,1.39,0,0,0,.39-.74,9.72,9.72,0,0,0,.19-2.33,10.06,10.06,0,0,0-.17-2.25,1.67,1.67,0,0,0-.41-.82A.93.93,0,0,0,178.89,379.6Z"/><path d="M199.11,387.46v-1.87h-3.8V384l4-5.91h1.5V384H202v1.57h-1.16v1.87Zm0-3.44v-3.18L197,384Z"/><path d="M205.41,378.12a2.55,2.55,0,0,1,2.11,1,8.33,8.33,0,0,1,0,7.59,2.53,2.53,0,0,1-2.1.95,2.66,2.66,0,0,1-2.19-1,8.54,8.54,0,0,1,.08-7.51A2.55,2.55,0,0,1,205.41,378.12Zm0,1.48a.93.93,0,0,0-.58.2,1.39,1.39,0,0,0-.39.74,9.72,9.72,0,0,0-.19,2.33,10.06,10.06,0,0,0,.17,2.25,1.67,1.67,0,0,0,.41.82.93.93,0,0,0,.58.2.9.9,0,0,0,.57-.2,1.39,1.39,0,0,0,.4-.74,10.43,10.43,0,0,0,.18-2.33,10.24,10.24,0,0,0-.16-2.25,1.59,1.59,0,0,0-.42-.82A.92.92,0,0,0,205.41,379.6Z"/><path d="M215.6,386.4l-6.38-2.77v-1.54l6.38-2.76v1.81l-4.45,1.7,4.45,1.77Z"/><path d="M215.83,387.46l2.43-3.47-2.33-3.27h2.18l1.19,1.85,1.26-1.85h2.09l-2.28,3.19,2.49,3.55h-2.19l-1.37-2.09-1.38,2.09Z"/><path d="M229.51,386.4l-6.38-2.77v-1.54l6.38-2.76v1.81l-4.45,1.7,4.45,1.77Z"/><path d="M230.24,385.07l1.78-.19a1.5,1.5,0,0,0,.45,1,1.24,1.24,0,0,0,.86.35,1.22,1.22,0,0,0,.95-.45,2.05,2.05,0,0,0,.39-1.37,1.88,1.88,0,0,0-.39-1.29,1.28,1.28,0,0,0-1-.42,1.81,1.81,0,0,0-1.38.68l-1.44-.21.91-4.85h4.72V380h-3.37l-.28,1.58a2.71,2.71,0,0,1,1.22-.3,2.67,2.67,0,0,1,2,.87,3.1,3.1,0,0,1,.83,2.24,3.34,3.34,0,0,1-.67,2.05,2.94,2.94,0,0,1-2.52,1.23,3.13,3.13,0,0,1-2.1-.69A2.87,2.87,0,0,1,230.24,385.07Z"/><path d="M240,378.12a2.55,2.55,0,0,1,2.12,1,8.33,8.33,0,0,1,0,7.59,2.54,2.54,0,0,1-2.11.95,2.69,2.69,0,0,1-2.19-1,6.23,6.23,0,0,1-.83-3.73,6.13,6.13,0,0,1,.92-3.78A2.53,2.53,0,0,1,240,378.12Zm0,1.48a.92.92,0,0,0-.57.2,1.47,1.47,0,0,0-.4.74,10.43,10.43,0,0,0-.18,2.33,10.24,10.24,0,0,0,.16,2.25,1.67,1.67,0,0,0,.42.82.93.93,0,0,0,1.15,0,1.47,1.47,0,0,0,.4-.74,10.43,10.43,0,0,0,.18-2.33,10.24,10.24,0,0,0-.16-2.25,1.67,1.67,0,0,0-.42-.82A.93.93,0,0,0,240,379.6Z"/><path d="M258.4,385.07l1.78-.19a1.5,1.5,0,0,0,.45,1,1.23,1.23,0,0,0,1.81-.1,2.11,2.11,0,0,0,.38-1.37,1.93,1.93,0,0,0-.38-1.29,1.3,1.3,0,0,0-1-.42,1.81,1.81,0,0,0-1.38.68l-1.45-.21.92-4.85h4.71V380h-3.36l-.28,1.58a2.71,2.71,0,0,1,3.23.57,3.1,3.1,0,0,1,.83,2.24,3.4,3.4,0,0,1-.67,2.05,3,3,0,0,1-2.52,1.23,3.13,3.13,0,0,1-2.1-.69A2.82,2.82,0,0,1,258.4,385.07Z"/><path d="M268.16,378.12a2.56,2.56,0,0,1,2.12,1,8.41,8.41,0,0,1,0,7.59,2.55,2.55,0,0,1-2.11.95,2.69,2.69,0,0,1-2.19-1,6.23,6.23,0,0,1-.83-3.73,6.13,6.13,0,0,1,.92-3.78A2.53,2.53,0,0,1,268.16,378.12Zm0,1.48a.9.9,0,0,0-.57.2,1.47,1.47,0,0,0-.4.74,10.43,10.43,0,0,0-.18,2.33,10.24,10.24,0,0,0,.16,2.25,1.59,1.59,0,0,0,.42.82.93.93,0,0,0,1.15,0,1.39,1.39,0,0,0,.39-.74,9.72,9.72,0,0,0,.19-2.33,10.06,10.06,0,0,0-.17-2.25,1.67,1.67,0,0,0-.41-.82A.93.93,0,0,0,268.16,379.6Z"/><path d="M278.35,386.4,272,383.63v-1.54l6.38-2.76v1.81l-4.45,1.7,4.45,1.77Z"/><path d="M278.58,387.46,281,384l-2.33-3.27h2.18l1.2,1.85,1.25-1.85h2.1l-2.29,3.19,2.5,3.55h-2.19l-1.37-2.09-1.39,2.09Z"/><path d="M292.26,386.4l-6.37-2.77v-1.54l6.37-2.76v1.81l-4.44,1.7,4.44,1.77Z"/><path d="M299,380.43l-1.72.2a1.23,1.23,0,0,0-.33-.79,1,1,0,0,0-.69-.26,1.17,1.17,0,0,0-1,.51,4.31,4.31,0,0,0-.49,2.12,2.07,2.07,0,0,1,1.66-.79,2.52,2.52,0,0,1,1.91.85,3.1,3.1,0,0,1,.8,2.2,3.15,3.15,0,0,1-.84,2.29,3.06,3.06,0,0,1-4.47-.23,5.61,5.61,0,0,1-.91-3.59,5.73,5.73,0,0,1,.95-3.69,3,3,0,0,1,2.45-1.13,2.64,2.64,0,0,1,1.76.59A2.77,2.77,0,0,1,299,380.43Zm-4,3.9a2,2,0,0,0,.4,1.34,1.19,1.19,0,0,0,.91.47,1,1,0,0,0,.83-.39,1.93,1.93,0,0,0,.33-1.27,2.11,2.11,0,0,0-.35-1.33,1.13,1.13,0,0,0-.89-.42,1.1,1.1,0,0,0-.87.41A1.71,1.71,0,0,0,295,384.33Z"/><path d="M302.76,378.12a2.56,2.56,0,0,1,2.12,1,8.41,8.41,0,0,1,0,7.59,2.57,2.57,0,0,1-2.11.95,2.69,2.69,0,0,1-2.19-1,6.23,6.23,0,0,1-.83-3.73,6.14,6.14,0,0,1,.91-3.78A2.57,2.57,0,0,1,302.76,378.12Zm0,1.48a.93.93,0,0,0-.58.2,1.39,1.39,0,0,0-.39.74,10.43,10.43,0,0,0-.18,2.33,10.24,10.24,0,0,0,.16,2.25,1.59,1.59,0,0,0,.42.82.88.88,0,0,0,.57.2.93.93,0,0,0,.58-.2,1.39,1.39,0,0,0,.39-.74,10.28,10.28,0,0,0,.19-2.33,10.06,10.06,0,0,0-.17-2.25,1.67,1.67,0,0,0-.41-.82A.93.93,0,0,0,302.76,379.6Z"/><path d="M331.27,387.46,333.7,384l-2.33-3.27h2.18l1.19,1.85,1.26-1.85h2.09l-2.28,3.19,2.49,3.55h-2.19l-1.37-2.09-1.39,2.09Z"/><path d="M345,386.4l-6.38-2.77v-1.54l6.38-2.76v1.81l-4.45,1.7,4.45,1.77Z"/><path d="M351.7,380.43l-1.73.2a1.23,1.23,0,0,0-.33-.79,1,1,0,0,0-.69-.26,1.17,1.17,0,0,0-1,.51,4.31,4.31,0,0,0-.49,2.12,2.09,2.09,0,0,1,1.66-.79,2.52,2.52,0,0,1,1.91.85,3.1,3.1,0,0,1,.8,2.2,3.15,3.15,0,0,1-.84,2.29,3.06,3.06,0,0,1-4.47-.23,5.68,5.68,0,0,1-.9-3.59,5.74,5.74,0,0,1,.94-3.69,3,3,0,0,1,2.46-1.13,2.63,2.63,0,0,1,1.75.59A2.78,2.78,0,0,1,351.7,380.43Zm-4.05,3.9a2.06,2.06,0,0,0,.4,1.34,1.21,1.21,0,0,0,.92.47,1,1,0,0,0,.82-.39,1.93,1.93,0,0,0,.33-1.27,2.11,2.11,0,0,0-.35-1.33,1.14,1.14,0,0,0-1.76,0A1.71,1.71,0,0,0,347.65,384.33Z"/><path d="M355.44,378.12a2.55,2.55,0,0,1,2.12,1,8.33,8.33,0,0,1,0,7.59,2.54,2.54,0,0,1-2.11.95,2.69,2.69,0,0,1-2.19-1,6.23,6.23,0,0,1-.83-3.73,6.13,6.13,0,0,1,.92-3.78A2.53,2.53,0,0,1,355.44,378.12Zm0,1.48a.92.92,0,0,0-.57.2,1.47,1.47,0,0,0-.4.74,10.43,10.43,0,0,0-.18,2.33,10.24,10.24,0,0,0,.16,2.25,1.59,1.59,0,0,0,.42.82.93.93,0,0,0,1.15,0,1.47,1.47,0,0,0,.4-.74,10.43,10.43,0,0,0,.18-2.33,10.06,10.06,0,0,0-.17-2.25,1.59,1.59,0,0,0-.41-.82A.93.93,0,0,0,355.44,379.6Z"/><path d="M195.53,414.33V405h6.9v1.58h-5v2.06h4.67v1.57h-4.67v2.53h5.2v1.57Z"/><path d="M209.92,414.33h-1.66v-1a2.75,2.75,0,0,1-1,.86,2.45,2.45,0,0,1-1.13.28,2.58,2.58,0,0,1-2-.93,3.85,3.85,0,0,1-.83-2.62,3.73,3.73,0,0,1,.81-2.6,2.62,2.62,0,0,1,2-.89,2.51,2.51,0,0,1,1.95.94V405h1.79Zm-4.76-3.52a3.08,3.08,0,0,0,.29,1.56,1.35,1.35,0,0,0,1.21.7,1.32,1.32,0,0,0,1.05-.52,2.47,2.47,0,0,0,.43-1.57,2.64,2.64,0,0,0-.42-1.67,1.33,1.33,0,0,0-1.07-.51,1.34,1.34,0,0,0-1.07.51A2.28,2.28,0,0,0,205.16,410.81Z"/><path d="M212.55,409.65l-1.62-.3a2.56,2.56,0,0,1,.94-1.44,3.41,3.41,0,0,1,2-.47,4.25,4.25,0,0,1,1.78.28,1.78,1.78,0,0,1,.82.72,3.63,3.63,0,0,1,.24,1.59l0,2.08a7,7,0,0,0,.09,1.32,3.38,3.38,0,0,0,.32.9h-1.77c0-.12-.1-.29-.17-.53l-.06-.21a3.23,3.23,0,0,1-1,.67,2.78,2.78,0,0,1-1.11.22,2.33,2.33,0,0,1-1.64-.56,1.89,1.89,0,0,1-.6-1.43,1.94,1.94,0,0,1,.27-1,1.78,1.78,0,0,1,.77-.69,6.56,6.56,0,0,1,1.42-.41,9.57,9.57,0,0,0,1.73-.44v-.18a.92.92,0,0,0-.26-.73,1.45,1.45,0,0,0-1-.22,1.26,1.26,0,0,0-.75.19A1.31,1.31,0,0,0,212.55,409.65Zm2.39,1.44a10.73,10.73,0,0,1-1.09.28,2.91,2.91,0,0,0-1,.31.74.74,0,0,0-.35.62.9.9,0,0,0,.28.65,1,1,0,0,0,.71.28,1.56,1.56,0,0,0,.92-.32,1.12,1.12,0,0,0,.43-.59,3.33,3.33,0,0,0,.07-.87Z"/><path d="M224.18,414.33h-1.66v-1a2.75,2.75,0,0,1-1,.86,2.45,2.45,0,0,1-1.13.28,2.58,2.58,0,0,1-2-.93,3.85,3.85,0,0,1-.83-2.62,3.73,3.73,0,0,1,.81-2.6,2.62,2.62,0,0,1,2-.89,2.51,2.51,0,0,1,1.95.94V405h1.79Zm-4.76-3.52a3.08,3.08,0,0,0,.29,1.56,1.35,1.35,0,0,0,1.21.7,1.32,1.32,0,0,0,1.05-.52,2.47,2.47,0,0,0,.43-1.57,2.64,2.64,0,0,0-.42-1.67,1.33,1.33,0,0,0-1.07-.51,1.34,1.34,0,0,0-1.07.51A2.28,2.28,0,0,0,219.42,410.81Z"/><rect x="352.27" y="21.22" width="10.32" height="10.32" style="fill:#1e2053"/><rect x="352.27" y="42.66" width="10.32" height="10.32" style="fill:#474ca0"/><polyline points="59.13 86.95 59.13 370.39 383.24 370.39" style="fill:none;stroke:#000;stroke-miterlimit:10"/></svg>