<svg id="Capa_1" data-name="Capa 1" xmlns="http://www.w3.org/2000/svg" viewBox="0 0 727.94 391.75"><polyline points="409.53 198.89 313.92 198.89 300.57 265.22 389.42 332.28" style="fill:none;stroke:#28309f;stroke-miterlimit:10;stroke-width:7px"/><rect x="391.12" y="182.25" width="104.17" height="26.67" rx="13.33" style="fill:#f90000"/><rect x="316.89" y="312.89" width="148.46" height="26.67" rx="13.33" style="fill:#f90000"/><path d="M342.12,282.76a173.58,173.58,0,0,0,3.3-33.74c0-93.71-74.64-169.67-166.72-169.67S12,155.31,12,249a172.81,172.81,0,0,0,3.3,33.74Z" style="fill:#28309f"/><path d="M331.66,181.44c-34.76-.27-97.67.56-163,7.92S44.9,215.8,13.29,227.69A170.47,170.47,0,0,0,12,245.3a780.61,780.61,0,0,1,121.78-40.6c63.65-15.33,158-14.62,201.75-13.27Q333.76,186.34,331.66,181.44Z" style="fill:#28309f;opacity:0.5"/><path d="M39.68,155.35c4,14.47,20.83,24.41,53,3.52,45.06-29.3,76.11-18.78,103.91-10.64,31.86,9.32,78.74,1.94,111.93-5.72a169.63,169.63,0,0,0-24.37-24.95c-26,4.52-58.23,7.52-87.56,2.85-62.82-10-105.65,23.49-133.28,34-17,6.49-10.84-10.32-3.57-24.24A170.16,170.16,0,0,0,39.68,155.35Z" style="fill:#28309f;opacity:0.5"/><path d="M131.64,258.76l-34,0a9.74,9.74,0,0,0-9.74,9.75h0a9.74,9.74,0,0,0,9.75,9.75h34a9.75,9.75,0,0,0,9.75-9.76h0A9.75,9.75,0,0,0,131.64,258.76Z" style="fill:#fff"/><polygon points="161.21 215.45 121.83 263.17 135.39 277.18 178.53 229.41 161.21 215.45" style="fill:#fff"/><path d="M163.37,246.2l-1.68-16.74L134,260.89h-31.1s4,21.76,20.75,17.42c9.35-2.41,13.6-4.34,15.52-5.58l.13.28Z" style="fill:#e2e2e2"/><path d="M326.21,226.43,242.65,207.9A9.75,9.75,0,1,0,238.54,227l83.52,18.52Z" style="fill:#fff"/><path d="M330.8,236.24s-3.4,3.7-11.52,3-78.58-21.13-78.58-21.13a9.14,9.14,0,0,0-7.41,5.78,9.67,9.67,0,0,0,5.25,3.1l83.52,18.52,12.23,2.64a9.72,9.72,0,0,0,7.88-1.72A89.22,89.22,0,0,0,330.8,236.24Z" style="opacity:0.1"/><polygon points="188.8 207.03 161.21 215.45 151.6 288.77 235.93 286.24 246.16 206.43 214.76 206.43 188.8 207.03" style="fill:#fff"/><path d="M220.77,228l7.48-.42v29.06L210.31,260s22.37,11.13,26.89,1-4.39-44.34-4.39-44.34Z" style="opacity:0.1"/><path d="M322.06,245.49l12.23,2.64a9.75,9.75,0,0,0,4.11-19.07l-12.19-2.63Z" style="fill:#ecc19c"/><path d="M292.12,165.33l-71.06,40.72A9.75,9.75,0,1,0,230.77,223l71.67-41.08Z" style="fill:#fff"/><path d="M299.31,161.2l-7.19,4.13,10.32,16.56,6.58-3.77a9.75,9.75,0,0,0-9.71-16.92Z" style="fill:#ecc19c"/><path d="M302.56,169.8s-1.55,4.26-7,8.71-73.87,40.64-73.87,40.64a22.56,22.56,0,0,0,1.12,3.39,9.76,9.76,0,0,0,9.17-.29l70.42-40.36,6.58-3.77a9.7,9.7,0,0,0,3-2.75A36,36,0,0,0,302.56,169.8Z" style="opacity:0.1"/><path d="M104.88,150.24l-.62-12a3.69,3.69,0,0,1,3.5-3.88h0a3.69,3.69,0,0,1,3.88,3.5l.61,12Z" style="fill:#ecc19c"/><path d="M179.88,196.21l-68-51.56L100,160.13l68.05,51.6a9.75,9.75,0,1,0,11.81-15.52Z" style="fill:#fff"/><path d="M111.9,144.65l-8.57-6.52A9.76,9.76,0,0,0,89.66,140h0a9.76,9.76,0,0,0,1.86,13.67l8.5,6.47Z" style="fill:#ecc19c"/><path d="M180.1,211.51c-14.82-10.13-80-56.15-84.32-60.4a23.3,23.3,0,0,1-5.94-11.33l-.18.21h0a9.76,9.76,0,0,0,1.86,13.67l8.5,6.47,68,51.58A9.75,9.75,0,0,0,180.1,211.51Z" style="opacity:0.1"/><polygon points="199.81 232.46 191.15 238.61 176.19 218.09 182.51 215.45 199.81 232.46" style="fill:#e2e2e2"/><polygon points="199.81 232.46 208.86 237.78 223.4 209.25 214.76 206.43 202.95 211.36 199.81 232.46" style="fill:#e2e2e2"/><polygon points="218.93 203.72 199.81 232.46 186.97 220.77 218.93 203.72" style="fill:#ecc19c"/><path d="M190.11,224h0c33.95,7.2,44.87-8.59,49.75-29.69l8-42.06-5.73-10-49.87-10.63-11,6.26s-14.14,5.6-17.44,44.74C160.83,218.58,171.59,220.42,190.11,224Z" style="fill:#ecc19c"/><path d="M241.05,188.84s2.23-7.63,5.38-7.27,6.18,7.21,3,12.89-10.6,4.28-10.6,4.28Z" style="fill:#ecc19c"/><path d="M182,177c-.65,3.17-3.17,5.32-5.63,4.81s-3.91-3.49-3.25-6.65,3.18-5.31,5.63-4.8S182.65,173.79,182,177Z" style="fill:#8b372f"/><path d="M217.28,182.9c-.66,3.16-3.18,5.31-5.63,4.81s-3.91-3.49-3.25-6.65,3.17-5.32,5.63-4.81S217.94,179.74,217.28,182.9Z" style="fill:#8b372f"/><path d="M213.75,179.44a1.74,1.74,0,1,1-1.35-2.06A1.73,1.73,0,0,1,213.75,179.44Z" style="fill:#fff"/><path d="M178.47,173.49a1.74,1.74,0,1,1-1.35-2.05A1.74,1.74,0,0,1,178.47,173.49Z" style="fill:#fff"/><path d="M245.14,166.61c-6.39-7.63-1.95-3.19-1.95-3.19s-2.12,2.27-2.22,12.08-7,27-17,37.28c-11.25,11.5-38.39,10.33-38.52,10.32,1.51.31,3.07.62,4.7.93,33.95,7.2,44.87-8.59,49.75-29.69Z" style="fill:#dfb28b"/><path d="M185,138.71s14.7,13,30.3,17.36,24.71,7.28,25.34,14.72.37,18.05.37,18.05,2.24-1.57,6.25-7.25,5.25-14.66,5.25-14.66,3.58,2.78,4.53.86-2.7-4.29-2.7-4.29,5.37,2.93,6.57,1.25-6.06-6.23-8.15-11.41S238,124.83,217.55,121c-16.46-3.11-32.19,8-32.19,8s-13.85-2.68-20.77,13.67a31.32,31.32,0,0,0,1.14,26.71s2.08-12.06,8.55-20.65S185,138.71,185,138.71Z" style="fill:#a76531"/><path d="M240.68,170.79c.64,7.44.37,18.05.37,18.05s2.24-1.57,6.25-7.25,5.25-14.66,5.25-14.66-4,.59-9.36-3.51-7-7.49-23.34-14-25.48-7.78-34.49-20.47c0,0-2.36,5.52-.32,9.8,0,0,14.7,13,30.3,17.36S240.05,163.35,240.68,170.79Z" style="fill:#8d562a"/><path d="M173.27,144.7c-4.32,4.21-7.94,7.81-11.05,7.73a31.38,31.38,0,0,0,3.51,16.86s2.08-12.06,8.55-20.65S185,138.71,185,138.71,179.74,138.39,173.27,144.7Z" style="fill:#8d562a"/><path d="M170.94,142.51a8.29,8.29,0,0,0,5.55-2.77c2.8-2.83,3.56-5,2.93-6.73-.71-1.95-7.09-.21-9.44,3.67C167.9,140.1,168.36,142.43,170.94,142.51Z" style="fill:#c07438"/><path d="M228.8,133.57s-2.92-5.15-10.75-7.41-12.31-1.43-14.54,1.53C201,131,210.92,141,220,141.37,228.05,141.68,231.48,138.41,228.8,133.57Z" style="fill:#c07438"/><path d="M209.72,164.53a5.91,5.91,0,0,1,3.17-4,8.25,8.25,0,0,1,5.26-.58,7.22,7.22,0,0,1,4.57,2.76,8.12,8.12,0,0,1,1.67,4.83,14,14,0,0,0-2.71-3.92,7.38,7.38,0,0,0-3.84-2.05,8.89,8.89,0,0,0-4.47.1A7.06,7.06,0,0,0,209.72,164.53Z" style="fill:#8b372f"/><path d="M187,160.78a7,7,0,0,0-2-4.18,8.74,8.74,0,0,0-3.92-2.13,7.37,7.37,0,0,0-4.36.06,14.08,14.08,0,0,0-4.2,2.25,8.22,8.22,0,0,1,3.69-3.54,7.23,7.23,0,0,1,5.33-.36A8.28,8.28,0,0,1,186,155.8,5.9,5.9,0,0,1,187,160.78Z" style="fill:#8b372f"/><polygon points="191.15 238.61 194.96 246.34 205.37 246.34 208.86 237.78 199.81 232.46 191.15 238.61" style="fill:#b5292a"/><path d="M250.8,202.86s5.23-4-1.08-11.05c-2.5-2.81-4.63-5.88-6.85-5s-7.23,4.62-7.17,7.61-15.94,15.49-18.26,16.33-2.76.81-8,2.36-10.83,8.38-8.78,11.07c4.3,5.65,10.09,12.86,20.93,5.17C228.3,224.59,250.8,202.86,250.8,202.86Z" style="fill:#656565"/><path d="M188.09,210.38l-.11,0a16.13,16.13,0,0,1-12.5-19.08h0l31.69,6.6h0A16.12,16.12,0,0,1,188.09,210.38Z" style="fill:#e2413e"/><path d="M202.93,201.06l-24.84-5.17a2.76,2.76,0,0,1-2.19-2.69h0a.78.78,0,0,1,.94-.77l28.62,6a.78.78,0,0,1,.55,1.09h0A2.75,2.75,0,0,1,202.93,201.06Z" style="fill:#fff"/><path d="M189.68,202.48c-4.76-1-9.2-.61-12,.77a16.1,16.1,0,0,0,10.3,7.11l.11,0a16.06,16.06,0,0,0,12.28-2.4C198.36,205.59,194.44,203.47,189.68,202.48Z" style="fill:#f56462"/><rect x="101.64" y="271.21" width="62.81" height="7.08" rx="3.14" style="fill:#656565"/><path d="M7.92,223.18l21.86,55.73,89.07-.6L95.48,218.72l-84.8.57C8.32,219.31,7.08,221.05,7.92,223.18Z" style="fill:#424242"/><path d="M92.81,221.42l21.28,54.24a4.56,4.56,0,0,0,4,2.65h1.51a1.87,1.87,0,0,0,1.92-2.69l-21.28-54.24a4.58,4.58,0,0,0-4-2.66H94.72A1.87,1.87,0,0,0,92.81,221.42Z" style="fill:#656565"/><polygon points="194.96 246.34 184.21 282.76 208.86 282.76 205.37 246.34 194.96 246.34" style="fill:#e2413e"/><rect x="14.84" y="278.29" width="329.59" height="15.92" rx="3.46" style="fill:#632d36"/><path d="M252,201.38s-3.28-6.46-6.89-5.74-25.7,22.92-31.35,28-13.11.54-13.11.54c4.3,5.65,10.09,12.86,20.93,5.17,6.69-4.74,29.19-26.47,29.19-26.47a5.45,5.45,0,0,0,1.23-1.48Z" style="fill:#424242"/><path d="M250.52,210.15l4.18,58.36-19.56,8.67-4.09-65.82A9.74,9.74,0,0,1,240.18,201h0A9.76,9.76,0,0,1,250.52,210.15Z" style="fill:#fff"/><path d="M249.63,260a9.61,9.61,0,0,1,1.2,4.68,9.75,9.75,0,0,1-9.75,9.76h-34a9.67,9.67,0,0,1-4.69-1.2,9.74,9.74,0,0,0,8.56,5.07h34A9.75,9.75,0,0,0,249.63,260Z" style="fill:#dfb28b"/><path d="M251.21,198.1l-1.69-2.24a.22.22,0,0,1,0-.31l15.72-11.81a1.64,1.64,0,0,1,2.28.33h0a1.62,1.62,0,0,1-.32,2.27l-15.73,11.81A.22.22,0,0,1,251.21,198.1Z" style="fill:#656565"/><path d="M310.85,169.8h-8.29a3.69,3.69,0,0,1-3.69-3.69h0a3.7,3.7,0,0,1,3.69-3.7h8.29a3.7,3.7,0,0,1,3.69,3.7h0A3.69,3.69,0,0,1,310.85,169.8Z" style="fill:#ecc19c"/><path d="M339,237.68l-8.16-1.44a3.68,3.68,0,0,1-3-4.28h0a3.68,3.68,0,0,1,4.28-3l8.15,1.44a3.7,3.7,0,0,1,3,4.28h0A3.69,3.69,0,0,1,339,237.68Z" style="fill:#ecc19c"/><path d="M77.3,242.89l84.89-11a9.75,9.75,0,0,0-2.62-19.33l-84.85,11Z" style="fill:#fff"/><path d="M69.65,235.23s1.94-4.64,9.82-6.72,81.08-6.84,81.08-6.84a9.15,9.15,0,0,0,5-8,9.7,9.7,0,0,0-6-1.12l-84.85,11-12.4,1.67a9.74,9.74,0,0,0-6.82,4.3A88.61,88.61,0,0,0,69.65,235.23Z" style="opacity:0.1"/><path d="M74.72,223.56l-12.4,1.67a9.75,9.75,0,0,0,2.62,19.33l12.36-1.67Z" style="fill:#ecc19c"/><path d="M61.49,236.64l8.16-1.41a3.69,3.69,0,0,1,4.27,3h0a3.69,3.69,0,0,1-3,4.27l-8.16,1.42a3.69,3.69,0,0,1-4.27-3h0A3.69,3.69,0,0,1,61.49,236.64Z" style="fill:#ecc19c"/><path d="M217.28,258.77H211a9.75,9.75,0,0,0,0,19.5h6.31Z" style="fill:#ecc19c"/><path d="M245,278.27a9.76,9.76,0,0,0,0-19.51H217.28v19.51Z" style="fill:#fff"/><path d="M250.29,208.65a7.38,7.38,0,0,0-.22-.84c0-.1-.06-.2-.1-.3a9.45,9.45,0,0,0-1-2.09l-.07-.09c-.2-.3-.42-.59-.65-.87l-.08-.09a9.64,9.64,0,0,0-2.83-2.24h0a9.71,9.71,0,0,1,1.1,3.91l3.38,49.59a11.54,11.54,0,0,1-10.33,12.27l-37.67,3.91a9.76,9.76,0,0,0,9.18,6.47h34a9.76,9.76,0,0,0,9.75-9.76,8.55,8.55,0,0,0-.09-1.25l-4.09-57.11a8.91,8.91,0,0,0-.16-1.17A3.2,3.2,0,0,0,250.29,208.65Z" style="opacity:0.1"/><line x1="279.75" y1="124.87" x2="370.94" y2="57.51" style="fill:none;stroke:#28309f;stroke-miterlimit:10;stroke-width:7px"/><path d="M488.7,34.91V24.17h3.48a12.1,12.1,0,0,1,2.57.17,2.82,2.82,0,0,1,1.55,1.05,3.35,3.35,0,0,1,.62,2.09,3.48,3.48,0,0,1-.36,1.66,3,3,0,0,1-.91,1.06,3.4,3.4,0,0,1-1.12.51,12.73,12.73,0,0,1-2.25.15h-1.41v4ZM490.87,26V29h1.18a5.7,5.7,0,0,0,1.72-.17,1.44,1.44,0,0,0,.92-1.36,1.39,1.39,0,0,0-.35-1,1.5,1.5,0,0,0-.87-.48,10.43,10.43,0,0,0-1.56-.07Z"/><path d="M498.36,34.91V24.17h2.06V34.91Z"/><path d="M503.73,29.51l-1.86-.34A2.92,2.92,0,0,1,503,27.5a4,4,0,0,1,2.29-.54,5.09,5.09,0,0,1,2.05.32,2,2,0,0,1,.94.83,4.14,4.14,0,0,1,.28,1.84l0,2.41a8,8,0,0,0,.1,1.51,4.22,4.22,0,0,0,.37,1h-2c-.05-.14-.12-.34-.2-.61,0-.12-.06-.2-.07-.24a3.72,3.72,0,0,1-1.13.77,3.25,3.25,0,0,1-1.28.26,2.66,2.66,0,0,1-1.89-.65,2.16,2.16,0,0,1-.7-1.65,2.24,2.24,0,0,1,.32-1.18,2,2,0,0,1,.88-.79,7.32,7.32,0,0,1,1.64-.48,11.9,11.9,0,0,0,2-.5v-.21a1.1,1.1,0,0,0-.29-.85,1.84,1.84,0,0,0-1.11-.25,1.44,1.44,0,0,0-.86.22A1.5,1.5,0,0,0,503.73,29.51Zm2.76,1.67c-.27.08-.68.19-1.25.31a3.48,3.48,0,0,0-1.12.36.86.86,0,0,0-.41.73,1,1,0,0,0,.32.74,1.14,1.14,0,0,0,.82.32,1.82,1.82,0,0,0,1.07-.37,1.26,1.26,0,0,0,.49-.68,4.28,4.28,0,0,0,.08-1Z"/><path d="M517.28,34.91h-2.06v-4a6.09,6.09,0,0,0-.13-1.63,1.13,1.13,0,0,0-.43-.57,1.17,1.17,0,0,0-.71-.21,1.61,1.61,0,0,0-1,.3,1.44,1.44,0,0,0-.58.77,6.48,6.48,0,0,0-.16,1.79v3.52h-2.06V27.13h1.91v1.15a3.21,3.21,0,0,1,3.81-1.08,2.24,2.24,0,0,1,.86.63,2.34,2.34,0,0,1,.4.86,6.3,6.3,0,0,1,.11,1.39Z"/><path d="M519,26.08V24.17h2.06v1.91Zm0,8.83V27.13h2.06v7.78Z"/><path d="M522,27.13h1.14v-.58a3.87,3.87,0,0,1,.21-1.47,1.61,1.61,0,0,1,.77-.78,2.83,2.83,0,0,1,1.41-.31,6,6,0,0,1,1.73.26L527,25.69a4.05,4.05,0,0,0-1-.12.84.84,0,0,0-.64.21,1.21,1.21,0,0,0-.19.8v.55h1.53v1.62h-1.53v6.16h-2.06V28.75H522Z"/><path d="M527.54,26.08V24.17h2.06v1.91Zm0,8.83V27.13h2.06v7.78Z"/><path d="M538.16,29.43l-2,.37a1.45,1.45,0,0,0-.46-.92,1.43,1.43,0,0,0-.94-.3,1.52,1.52,0,0,0-1.23.53,2.72,2.72,0,0,0-.46,1.77,3.14,3.14,0,0,0,.47,2,1.52,1.52,0,0,0,1.25.57,1.4,1.4,0,0,0,1-.33,2,2,0,0,0,.52-1.15l2,.34a3.64,3.64,0,0,1-1.2,2.11,3.79,3.79,0,0,1-2.4.71A3.56,3.56,0,0,1,531.94,34a4.16,4.16,0,0,1-1-3,4.24,4.24,0,0,1,1-3A3.65,3.65,0,0,1,534.7,27a3.74,3.74,0,0,1,2.26.61A3.37,3.37,0,0,1,538.16,29.43Z"/><path d="M540.93,29.51l-1.87-.34a2.88,2.88,0,0,1,1.09-1.67,4,4,0,0,1,2.28-.54,5.06,5.06,0,0,1,2.05.32,2.07,2.07,0,0,1,.95.83,4.14,4.14,0,0,1,.28,1.84l0,2.41a8.94,8.94,0,0,0,.1,1.51,4.68,4.68,0,0,0,.37,1h-2a6.25,6.25,0,0,1-.2-.61c0-.12-.06-.2-.07-.24a3.85,3.85,0,0,1-1.13.77,3.25,3.25,0,0,1-1.28.26,2.69,2.69,0,0,1-1.9-.65,2.19,2.19,0,0,1-.69-1.65,2.24,2.24,0,0,1,.32-1.18,2,2,0,0,1,.88-.79,7.16,7.16,0,0,1,1.64-.48,12.17,12.17,0,0,0,2-.5v-.21a1.07,1.07,0,0,0-.3-.85,1.79,1.79,0,0,0-1.1-.25,1.42,1.42,0,0,0-.86.22A1.44,1.44,0,0,0,540.93,29.51Zm2.76,1.67c-.27.08-.69.19-1.26.31a3.67,3.67,0,0,0-1.12.36.85.85,0,0,0-.4.73,1,1,0,0,0,.32.74,1.14,1.14,0,0,0,.82.32,1.8,1.8,0,0,0,1.06-.37,1.22,1.22,0,0,0,.49-.68,3.66,3.66,0,0,0,.09-1Z"/><path d="M549.37,34.91h-2V27.13h1.91v1.11a3.32,3.32,0,0,1,.88-1A1.59,1.59,0,0,1,551,27a2.63,2.63,0,0,1,1.36.39l-.64,1.79a1.87,1.87,0,0,0-1-.34A1.13,1.13,0,0,0,550,29a1.62,1.62,0,0,0-.47.86,11.78,11.78,0,0,0-.18,2.61Z"/><path d="M488.26,47.61a6.82,6.82,0,0,1,.49-2.76,5.18,5.18,0,0,1,1-1.47,4.14,4.14,0,0,1,1.39-1,5.77,5.77,0,0,1,2.31-.43,5.05,5.05,0,0,1,3.8,1.47,5.65,5.65,0,0,1,1.42,4.1,5.64,5.64,0,0,1-1.41,4.07,5.66,5.66,0,0,1-7.59,0A5.53,5.53,0,0,1,488.26,47.61Zm2.23-.07a4,4,0,0,0,.84,2.76,2.76,2.76,0,0,0,2.14.94,2.72,2.72,0,0,0,2.13-.93,4.09,4.09,0,0,0,.83-2.8,4.06,4.06,0,0,0-.81-2.76,3,3,0,0,0-4.31,0A4.12,4.12,0,0,0,490.49,47.54Z"/><path d="M502,52.91h-2.06V45.13h1.91v1.11a3.32,3.32,0,0,1,.89-1,1.59,1.59,0,0,1,.89-.25,2.57,2.57,0,0,1,1.35.39l-.64,1.79a1.81,1.81,0,0,0-1-.34,1.13,1.13,0,0,0-.73.24,1.69,1.69,0,0,0-.48.86,12.7,12.7,0,0,0-.17,2.61Z"/><path d="M505.34,53.42l2.35.29a.8.8,0,0,0,.27.56,1.5,1.5,0,0,0,.92.22,2.41,2.41,0,0,0,1.21-.24,1,1,0,0,0,.41-.52,3.15,3.15,0,0,0,.1-.94V51.65a2.79,2.79,0,0,1-2.33,1.26,2.88,2.88,0,0,1-2.49-1.32,4.58,4.58,0,0,1-.71-2.61,4.27,4.27,0,0,1,.94-3,3,3,0,0,1,2.34-1,2.86,2.86,0,0,1,2.38,1.26V45.13h1.92v7a7,7,0,0,1-.22,2.06,2.55,2.55,0,0,1-.64,1.07,2.85,2.85,0,0,1-1.09.61,6,6,0,0,1-1.74.22,4.47,4.47,0,0,1-2.8-.68,2.13,2.13,0,0,1-.83-1.72A2.36,2.36,0,0,1,505.34,53.42Zm1.84-4.56a2.78,2.78,0,0,0,.48,1.81,1.46,1.46,0,0,0,1.18.58,1.63,1.63,0,0,0,1.27-.59,2.56,2.56,0,0,0,.52-1.75,2.68,2.68,0,0,0-.5-1.79,1.58,1.58,0,0,0-1.26-.59,1.49,1.49,0,0,0-1.21.58A2.69,2.69,0,0,0,507.18,48.86Z"/><path d="M515.9,47.51,514,47.17a2.88,2.88,0,0,1,1.09-1.67A4,4,0,0,1,517.4,45a5.06,5.06,0,0,1,2.05.32,2.07,2.07,0,0,1,.95.83,4.33,4.33,0,0,1,.27,1.84l0,2.41a8.94,8.94,0,0,0,.1,1.51,4.68,4.68,0,0,0,.37,1h-2c-.05-.14-.12-.34-.19-.61,0-.12-.06-.2-.08-.24a3.68,3.68,0,0,1-1.12.77,3.27,3.27,0,0,1-1.29.26,2.66,2.66,0,0,1-1.89-.65,2.19,2.19,0,0,1-.69-1.65,2.24,2.24,0,0,1,.31-1.18,2.07,2.07,0,0,1,.89-.79,7,7,0,0,1,1.63-.48,11.63,11.63,0,0,0,2-.5v-.21a1.1,1.1,0,0,0-.29-.85,1.82,1.82,0,0,0-1.11-.25,1.41,1.41,0,0,0-.85.22A1.44,1.44,0,0,0,515.9,47.51Zm2.75,1.67c-.26.08-.68.19-1.25.31a3.67,3.67,0,0,0-1.12.36.85.85,0,0,0-.4.73,1,1,0,0,0,.32.74,1.12,1.12,0,0,0,.82.32,1.8,1.8,0,0,0,1.06-.37,1.26,1.26,0,0,0,.49-.68,3.78,3.78,0,0,0,.08-1Z"/><path d="M529.45,52.91h-2.06v-4a6.09,6.09,0,0,0-.13-1.63,1.13,1.13,0,0,0-.43-.57,1.21,1.21,0,0,0-.71-.21,1.61,1.61,0,0,0-1,.3,1.45,1.45,0,0,0-.59.77,7,7,0,0,0-.15,1.79v3.52h-2.06V45.13h1.91v1.15A3.11,3.11,0,0,1,526.83,45a3.17,3.17,0,0,1,1.25.24,2,2,0,0,1,1.25,1.49,6.2,6.2,0,0,1,.12,1.39Z"/><path d="M531.21,44.08V42.17h2v1.91Zm0,8.83V45.13h2v7.78Z"/><path d="M534.21,52.91v-1.6L537.13,48c.48-.55.83-.93,1.06-1.16l-.94,0H534.5V45.13h6.43v1.46L538,50l-1.05,1.13,1.06,0h3.19v1.81Z"/><path d="M543.75,47.51l-1.87-.34A2.93,2.93,0,0,1,543,45.5a4,4,0,0,1,2.28-.54,5.06,5.06,0,0,1,2,.32,2.07,2.07,0,0,1,1,.83,4.14,4.14,0,0,1,.28,1.84l0,2.41a8.94,8.94,0,0,0,.1,1.51,4.68,4.68,0,0,0,.37,1h-2a6.25,6.25,0,0,1-.2-.61c0-.12-.06-.2-.07-.24a3.85,3.85,0,0,1-1.13.77,3.25,3.25,0,0,1-1.28.26,2.7,2.7,0,0,1-1.9-.65,2.19,2.19,0,0,1-.69-1.65,2.24,2.24,0,0,1,.32-1.18,2,2,0,0,1,.88-.79,7.16,7.16,0,0,1,1.64-.48,12.17,12.17,0,0,0,2-.5v-.21a1.07,1.07,0,0,0-.3-.85,1.79,1.79,0,0,0-1.1-.25,1.25,1.25,0,0,0-1.36,1Zm2.76,1.67c-.27.08-.69.19-1.26.31a3.67,3.67,0,0,0-1.12.36.85.85,0,0,0-.4.73,1,1,0,0,0,.32.74,1.14,1.14,0,0,0,.82.32,1.8,1.8,0,0,0,1.06-.37,1.22,1.22,0,0,0,.49-.68,3.66,3.66,0,0,0,.09-1Z"/><path d="M552.2,52.91h-2.06V45.13h1.91v1.11a3.32,3.32,0,0,1,.88-1,1.59,1.59,0,0,1,.89-.25,2.63,2.63,0,0,1,1.36.39l-.64,1.79a1.87,1.87,0,0,0-1-.34,1.13,1.13,0,0,0-.73.24,1.62,1.62,0,0,0-.47.86,12,12,0,0,0-.17,2.61Z"/><path d="M488.69,60.17h4a7.59,7.59,0,0,1,2.05.21,3.5,3.5,0,0,1,1.62,1,4.69,4.69,0,0,1,1,1.74,7.75,7.75,0,0,1,.35,2.54,7,7,0,0,1-.33,2.28,4.8,4.8,0,0,1-1.15,1.9,3.76,3.76,0,0,1-1.52.85,6.28,6.28,0,0,1-1.92.23h-4.08ZM490.86,62V69.1h1.62a5.87,5.87,0,0,0,1.31-.1,2,2,0,0,0,.87-.45,2.21,2.21,0,0,0,.57-1,6.9,6.9,0,0,0,.22-2,6.27,6.27,0,0,0-.22-1.91,2.5,2.5,0,0,0-.61-1,2.11,2.11,0,0,0-1-.51,9.69,9.69,0,0,0-1.78-.1Z"/><path d="M499.19,62.08V60.17h2.05v1.91Zm0,8.83V63.13h2.05v7.78Z"/><path d="M505,70.91h-2.06V63.13h1.92v1.11a3.19,3.19,0,0,1,.88-1,1.59,1.59,0,0,1,.89-.25,2.57,2.57,0,0,1,1.35.39l-.63,1.79a1.87,1.87,0,0,0-1-.34,1.13,1.13,0,0,0-.73.24,1.69,1.69,0,0,0-.48.86,12.7,12.7,0,0,0-.17,2.61Z"/><path d="M508.53,62.08V60.17h2.06v1.91Zm0,8.83V63.13h2.06v7.78Z"/><path d="M512.18,71.42l2.35.29a.8.8,0,0,0,.27.56,1.5,1.5,0,0,0,.92.22,2.41,2.41,0,0,0,1.21-.24,1,1,0,0,0,.41-.52,3.15,3.15,0,0,0,.1-.94V69.65a2.8,2.8,0,0,1-2.33,1.26,2.88,2.88,0,0,1-2.49-1.32,4.58,4.58,0,0,1-.71-2.61,4.27,4.27,0,0,1,.94-3,3,3,0,0,1,2.34-1,2.86,2.86,0,0,1,2.38,1.26V63.13h1.92v7a7,7,0,0,1-.22,2.06,2.55,2.55,0,0,1-.64,1.07,2.85,2.85,0,0,1-1.09.61,6,6,0,0,1-1.74.22,4.47,4.47,0,0,1-2.8-.68,2.13,2.13,0,0,1-.83-1.72A2.36,2.36,0,0,1,512.18,71.42ZM514,66.86a2.78,2.78,0,0,0,.48,1.81,1.46,1.46,0,0,0,1.18.58,1.63,1.63,0,0,0,1.27-.59,2.56,2.56,0,0,0,.52-1.75,2.68,2.68,0,0,0-.5-1.79,1.58,1.58,0,0,0-1.26-.59,1.49,1.49,0,0,0-1.21.58A2.69,2.69,0,0,0,514,66.86Z"/><path d="M521.2,62.08V60.17h2.06v1.91Zm0,8.83V63.13h2.06v7.78Z"/><path d="M527,70.91H525V63.13h1.91v1.11a3.32,3.32,0,0,1,.88-1,1.59,1.59,0,0,1,.89-.25,2.63,2.63,0,0,1,1.36.39l-.64,1.79a1.87,1.87,0,0,0-1-.34,1.14,1.14,0,0,0-.73.24,1.62,1.62,0,0,0-.47.86,12.7,12.7,0,0,0-.17,2.61Z"/><path d="M495.57,85l2.1.67a4.71,4.71,0,0,1-1.61,2.61,5.07,5.07,0,0,1-6.37-.61,5.6,5.6,0,0,1-1.37-4,5.89,5.89,0,0,1,1.38-4.17A4.78,4.78,0,0,1,493.34,78a4.46,4.46,0,0,1,3.2,1.17,4.11,4.11,0,0,1,1.1,2l-2.14.52a2.24,2.24,0,0,0-2.27-1.81,2.47,2.47,0,0,0-1.94.86,4.24,4.24,0,0,0-.74,2.78,4.51,4.51,0,0,0,.73,2.9,2.41,2.41,0,0,0,1.91.86,2.14,2.14,0,0,0,1.48-.55A3.13,3.13,0,0,0,495.57,85Z"/><path d="M498.71,84.91a4.28,4.28,0,0,1,.5-2,3.52,3.52,0,0,1,1.44-1.47,4.31,4.31,0,0,1,2.07-.5,3.9,3.9,0,0,1,2.89,1.14,4.31,4.31,0,0,1,0,5.83,3.87,3.87,0,0,1-2.87,1.16,4.44,4.44,0,0,1-2-.49,3.31,3.31,0,0,1-1.48-1.41A4.83,4.83,0,0,1,498.71,84.91Zm2.11.11a2.55,2.55,0,0,0,.55,1.77,1.74,1.74,0,0,0,1.35.62,1.76,1.76,0,0,0,1.36-.62,3.17,3.17,0,0,0,0-3.54,1.76,1.76,0,0,0-1.36-.62,1.74,1.74,0,0,0-1.35.62A2.55,2.55,0,0,0,500.82,85Z"/><path d="M515.09,88.91H513v-4a6,6,0,0,0-.14-1.63,1.08,1.08,0,0,0-.43-.57,1.17,1.17,0,0,0-.71-.21,1.61,1.61,0,0,0-1,.3,1.44,1.44,0,0,0-.58.77,6.48,6.48,0,0,0-.16,1.79v3.52H508V81.13h1.91v1.15a3.21,3.21,0,0,1,3.81-1.08,2.24,2.24,0,0,1,.86.63,2.34,2.34,0,0,1,.4.86,6.3,6.3,0,0,1,.11,1.39Z"/><path d="M520.42,81.13v1.64H519v3.14a9.33,9.33,0,0,0,0,1.11.48.48,0,0,0,.19.26.55.55,0,0,0,.34.1,2.74,2.74,0,0,0,.83-.2l.18,1.6a4.19,4.19,0,0,1-1.63.31,2.62,2.62,0,0,1-1-.19,1.49,1.49,0,0,1-.66-.48,2,2,0,0,1-.29-.8,11.12,11.12,0,0,1-.06-1.46V82.77h-1V81.13h1V79.59l2.06-1.2v2.74Z"/><path d="M523.49,88.91h-2.06V81.13h1.91v1.11a3.32,3.32,0,0,1,.88-1,1.59,1.59,0,0,1,.89-.25,2.63,2.63,0,0,1,1.36.39l-.64,1.79a1.87,1.87,0,0,0-1-.34,1.14,1.14,0,0,0-.73.24,1.62,1.62,0,0,0-.47.86,12,12,0,0,0-.17,2.61Z"/><path d="M526.55,84.91a4.28,4.28,0,0,1,.5-2,3.56,3.56,0,0,1,1.43-1.47,4.34,4.34,0,0,1,2.07-.5,3.92,3.92,0,0,1,2.9,1.14,4,4,0,0,1,1.12,2.9,4.05,4.05,0,0,1-1.13,2.93,3.87,3.87,0,0,1-2.87,1.16,4.38,4.38,0,0,1-2-.49,3.31,3.31,0,0,1-1.48-1.41A4.83,4.83,0,0,1,526.55,84.91Zm2.11.11a2.55,2.55,0,0,0,.55,1.77,1.78,1.78,0,0,0,2.7,0,3.12,3.12,0,0,0,0-3.54,1.78,1.78,0,0,0-2.7,0A2.55,2.55,0,0,0,528.66,85Z"/><path d="M535.86,88.91V78.17h2V88.91Z"/><path d="M541.23,83.51l-1.87-.34a2.93,2.93,0,0,1,1.09-1.67,4,4,0,0,1,2.28-.54,5.06,5.06,0,0,1,2,.32,2.07,2.07,0,0,1,1,.83A4.14,4.14,0,0,1,546,84l0,2.41a9.19,9.19,0,0,0,.09,1.51,4.68,4.68,0,0,0,.37,1h-2a6.25,6.25,0,0,1-.2-.61c0-.12-.06-.2-.07-.24a3.85,3.85,0,0,1-1.13.77,3.25,3.25,0,0,1-1.28.26,2.7,2.7,0,0,1-1.9-.65,2.19,2.19,0,0,1-.69-1.65,2.24,2.24,0,0,1,.32-1.18,2,2,0,0,1,.88-.79,7.16,7.16,0,0,1,1.64-.48,12.17,12.17,0,0,0,2-.5v-.21a1.07,1.07,0,0,0-.3-.85,1.79,1.79,0,0,0-1.1-.25,1.44,1.44,0,0,0-.86.22A1.5,1.5,0,0,0,541.23,83.51ZM544,85.18c-.27.08-.69.19-1.26.31a3.67,3.67,0,0,0-1.12.36.85.85,0,0,0-.4.73,1,1,0,0,0,.32.74,1.14,1.14,0,0,0,.82.32,1.8,1.8,0,0,0,1.06-.37,1.28,1.28,0,0,0,.5-.68,4.28,4.28,0,0,0,.08-1Z"/><path d="M549.68,88.91h-2.06V81.13h1.91v1.11a3.32,3.32,0,0,1,.88-1,1.59,1.59,0,0,1,.89-.25,2.63,2.63,0,0,1,1.36.39L552,83.14a1.87,1.87,0,0,0-1-.34,1.13,1.13,0,0,0-.73.24,1.62,1.62,0,0,0-.47.86,12,12,0,0,0-.17,2.61Z"/><path d="M521.43,178.73V168h8v1.82H523.6v2.38H529V174H523.6v2.92h6v1.81Z"/><path d="M530.37,176.51l2.06-.31a1.53,1.53,0,0,0,.54.91,1.79,1.79,0,0,0,1.13.31,2.08,2.08,0,0,0,1.2-.29.66.66,0,0,0,.27-.55.53.53,0,0,0-.15-.39,1.55,1.55,0,0,0-.69-.27,11.24,11.24,0,0,1-3.15-1,2,2,0,0,1-.93-1.76,2.14,2.14,0,0,1,.8-1.69,3.73,3.73,0,0,1,2.48-.69,4.29,4.29,0,0,1,2.37.52,2.65,2.65,0,0,1,1.07,1.54l-1.94.35a1.23,1.23,0,0,0-.47-.69,1.78,1.78,0,0,0-1-.24,2.24,2.24,0,0,0-1.16.22.49.49,0,0,0-.24.42.44.44,0,0,0,.21.37,7.72,7.72,0,0,0,1.92.58,5.78,5.78,0,0,1,2.3.92,1.91,1.91,0,0,1,.64,1.53,2.37,2.37,0,0,1-.89,1.84,4,4,0,0,1-2.64.77,4.35,4.35,0,0,1-2.52-.65A3,3,0,0,1,530.37,176.51Z"/><path d="M542.67,171v1.64h-1.4v3.14a7.42,7.42,0,0,0,0,1.11.42.42,0,0,0,.18.26.56.56,0,0,0,.35.1,2.69,2.69,0,0,0,.82-.2l.18,1.6a4.19,4.19,0,0,1-1.63.31,2.66,2.66,0,0,1-1-.19,1.4,1.4,0,0,1-.65-.48,1.88,1.88,0,0,1-.29-.81,8.88,8.88,0,0,1-.07-1.45v-3.39h-1V171h1v-1.54l2.07-1.2V171Z"/><path d="M545.31,173.33l-1.87-.34a2.92,2.92,0,0,1,1.08-1.67,4,4,0,0,1,2.29-.54,5.06,5.06,0,0,1,2.05.32,2.07,2.07,0,0,1,.95.83,4.33,4.33,0,0,1,.27,1.84l0,2.41a8,8,0,0,0,.1,1.51,4.68,4.68,0,0,0,.37,1h-2c0-.14-.12-.34-.19-.61s-.06-.2-.08-.24a3.68,3.68,0,0,1-1.12.77,3.3,3.3,0,0,1-1.29.26,2.66,2.66,0,0,1-1.89-.65,2.19,2.19,0,0,1-.69-1.65,2.24,2.24,0,0,1,.31-1.18,2.07,2.07,0,0,1,.89-.79,7,7,0,0,1,1.63-.48,11.9,11.9,0,0,0,2-.5v-.21a1.1,1.1,0,0,0-.29-.85,1.82,1.82,0,0,0-1.11-.25,1.41,1.41,0,0,0-.85.22A1.39,1.39,0,0,0,545.31,173.33Zm2.75,1.67c-.26.08-.68.19-1.25.31a3.67,3.67,0,0,0-1.12.36.85.85,0,0,0-.4.72,1,1,0,0,0,.32.75,1.12,1.12,0,0,0,.82.32,1.82,1.82,0,0,0,1.06-.37,1.26,1.26,0,0,0,.49-.68,3.78,3.78,0,0,0,.08-1Zm-2.22-5,1-2.19h2.3l-2,2.19Z"/><path d="M558.86,178.73H556.8v-4a6.56,6.56,0,0,0-.13-1.63,1.13,1.13,0,0,0-.43-.57,1.22,1.22,0,0,0-.72-.21,1.72,1.72,0,0,0-1,.29,1.55,1.55,0,0,0-.58.78,7,7,0,0,0-.15,1.79v3.52h-2.06V171h1.91v1.15a3.11,3.11,0,0,1,2.56-1.32,3.17,3.17,0,0,1,1.25.24,2.1,2.1,0,0,1,.85.63,2.19,2.19,0,0,1,.4.86,6.2,6.2,0,0,1,.12,1.39Z"/><path d="M567.75,178.73h-1.91v-1.14a3.2,3.2,0,0,1-1.13,1,2.85,2.85,0,0,1-1.3.33,3,3,0,0,1-2.3-1.08,4.4,4.4,0,0,1-1-3,4.31,4.31,0,0,1,.93-3,3,3,0,0,1,2.35-1,2.92,2.92,0,0,1,2.26,1.08V168h2.06Zm-5.5-4.06a3.61,3.61,0,0,0,.35,1.81,1.57,1.57,0,0,0,1.39.8,1.52,1.52,0,0,0,1.21-.6,2.83,2.83,0,0,0,.5-1.81,3,3,0,0,0-.49-1.93,1.52,1.52,0,0,0-1.23-.59,1.57,1.57,0,0,0-1.23.58A2.64,2.64,0,0,0,562.25,174.67Z"/><path d="M571,173.33l-1.87-.34a2.92,2.92,0,0,1,1.08-1.67,4,4,0,0,1,2.29-.54,5.09,5.09,0,0,1,2,.32,2.13,2.13,0,0,1,1,.83,4.33,4.33,0,0,1,.27,1.84l0,2.41a8,8,0,0,0,.1,1.51,4.22,4.22,0,0,0,.37,1h-2c0-.14-.12-.34-.2-.61s-.06-.2-.07-.24a3.72,3.72,0,0,1-1.13.77,3.25,3.25,0,0,1-1.28.26,2.66,2.66,0,0,1-1.89-.65,2.19,2.19,0,0,1-.69-1.65,2.24,2.24,0,0,1,.31-1.18,2,2,0,0,1,.88-.79,7.32,7.32,0,0,1,1.64-.48,11.9,11.9,0,0,0,2-.5v-.21a1.1,1.1,0,0,0-.29-.85,1.84,1.84,0,0,0-1.11-.25,1.23,1.23,0,0,0-1.35,1Zm2.75,1.67c-.26.08-.68.19-1.25.31a3.48,3.48,0,0,0-1.12.36.86.86,0,0,0-.41.72,1,1,0,0,0,.33.75,1.11,1.11,0,0,0,.82.32,1.82,1.82,0,0,0,1.06-.37,1.26,1.26,0,0,0,.49-.68,4.28,4.28,0,0,0,.08-1Z"/><path d="M579.43,178.73h-2.06V171h1.91v1.11a3.19,3.19,0,0,1,.89-1,1.57,1.57,0,0,1,.89-.25,2.6,2.6,0,0,1,1.35.39l-.64,1.79a1.84,1.84,0,0,0-1-.34,1.15,1.15,0,0,0-.74.24,1.69,1.69,0,0,0-.47.86,12.7,12.7,0,0,0-.17,2.61Z"/><path d="M587.47,176.26l2,.34a3.38,3.38,0,0,1-1.25,1.72,3.67,3.67,0,0,1-2.13.59,3.47,3.47,0,0,1-3-1.33,4.41,4.41,0,0,1-.77-2.68,4.27,4.27,0,0,1,1-3,3.31,3.31,0,0,1,2.55-1.09,3.46,3.46,0,0,1,2.74,1.14,5.09,5.09,0,0,1,1,3.52h-5.15a2.08,2.08,0,0,0,.49,1.42,1.57,1.57,0,0,0,1.19.51,1.29,1.29,0,0,0,.81-.26A1.63,1.63,0,0,0,587.47,176.26Zm.12-2.08a2,2,0,0,0-.46-1.36,1.48,1.48,0,0,0-2.18,0,1.9,1.9,0,0,0-.44,1.34Z"/><path d="M590.25,176.51l2.07-.31a1.52,1.52,0,0,0,.53.91,1.81,1.81,0,0,0,1.13.31,2.08,2.08,0,0,0,1.2-.29.66.66,0,0,0,.27-.55.52.52,0,0,0-.14-.39,1.55,1.55,0,0,0-.69-.27,11.47,11.47,0,0,1-3.16-1,2,2,0,0,1-.92-1.76,2.14,2.14,0,0,1,.8-1.69,3.72,3.72,0,0,1,2.47-.69,4.31,4.31,0,0,1,2.38.52,2.69,2.69,0,0,1,1.07,1.54l-2,.35a1.18,1.18,0,0,0-.47-.69,1.72,1.72,0,0,0-1-.24,2.24,2.24,0,0,0-1.16.22.49.49,0,0,0-.24.42.44.44,0,0,0,.21.37,7.41,7.41,0,0,0,1.92.58,5.73,5.73,0,0,1,2.29.92,1.92,1.92,0,0,1,.65,1.53,2.37,2.37,0,0,1-.89,1.84,4,4,0,0,1-2.65.77,4.3,4.3,0,0,1-2.51-.65A3,3,0,0,1,590.25,176.51Z"/><path d="M528.3,192.78l2.1.67a4.7,4.7,0,0,1-1.6,2.61,5.07,5.07,0,0,1-6.37-.61,5.56,5.56,0,0,1-1.38-4,5.85,5.85,0,0,1,1.39-4.17,4.76,4.76,0,0,1,3.64-1.48,4.46,4.46,0,0,1,3.2,1.17,4.19,4.19,0,0,1,1.09,2l-2.14.52a2.25,2.25,0,0,0-.8-1.32,2.28,2.28,0,0,0-1.46-.49,2.44,2.44,0,0,0-1.94.86,4.19,4.19,0,0,0-.74,2.78,4.51,4.51,0,0,0,.73,2.9,2.39,2.39,0,0,0,1.9.86,2.16,2.16,0,0,0,1.49-.55A3.19,3.19,0,0,0,528.3,192.78Z"/><path d="M537,196.73v-1.16a3,3,0,0,1-1.12,1,3.12,3.12,0,0,1-1.46.36,2.82,2.82,0,0,1-1.4-.35,2.06,2.06,0,0,1-.91-1,4.47,4.47,0,0,1-.27-1.73V189h2v3.58a9.43,9.43,0,0,0,.12,2,1.06,1.06,0,0,0,.41.58,1.24,1.24,0,0,0,.76.22,1.64,1.64,0,0,0,.95-.29,1.42,1.42,0,0,0,.57-.72,8.48,8.48,0,0,0,.15-2.1V189H539v7.78Z"/><path d="M540.6,189h1.9V190a3,3,0,0,1,2.42-1.23,2.68,2.68,0,0,1,1.3.3,2.52,2.52,0,0,1,.9.93,3.76,3.76,0,0,1,1.1-.93,2.79,2.79,0,0,1,1.27-.3,2.85,2.85,0,0,1,1.45.34,2.19,2.19,0,0,1,.89,1,4.47,4.47,0,0,1,.21,1.61v5H550v-4.44a3.36,3.36,0,0,0-.21-1.5,1,1,0,0,0-.88-.44,1.36,1.36,0,0,0-.81.27,1.39,1.39,0,0,0-.55.77,5.27,5.27,0,0,0-.17,1.61v3.73H545.3v-4.26a6.12,6.12,0,0,0-.11-1.47.94.94,0,0,0-.34-.49,1.13,1.13,0,0,0-.63-.16,1.5,1.5,0,0,0-.85.26,1.39,1.39,0,0,0-.55.74,5.48,5.48,0,0,0-.16,1.6v3.78H540.6Z"/><path d="M553.7,189h1.92v1.15a2.91,2.91,0,0,1,1-1,2.84,2.84,0,0,1,1.41-.36,3,3,0,0,1,2.3,1.06,4.3,4.3,0,0,1,.95,3,4.45,4.45,0,0,1-.95,3,3,3,0,0,1-2.31,1.08,2.64,2.64,0,0,1-1.17-.26,3.88,3.88,0,0,1-1.1-.88v3.92H553.7Zm2,3.76a3,3,0,0,0,.52,1.94,1.57,1.57,0,0,0,1.27.62,1.5,1.5,0,0,0,1.19-.57,2.94,2.94,0,0,0,.48-1.89,2.77,2.77,0,0,0-.5-1.81,1.5,1.5,0,0,0-1.21-.6,1.58,1.58,0,0,0-1.25.59A2.52,2.52,0,0,0,555.74,192.71Z"/><path d="M562.59,196.73V186h2.06v10.74Z"/><path d="M566.43,187.9V186h2.06v1.91Zm0,8.83V189h2.06v7.78Z"/><path d="M570.11,189H572V190a3.06,3.06,0,0,1,2.42-1.23,2.68,2.68,0,0,1,1.3.3,2.37,2.37,0,0,1,.9.93,3.67,3.67,0,0,1,1.11-.93,2.75,2.75,0,0,1,1.26-.3,2.87,2.87,0,0,1,1.46.34,2.17,2.17,0,0,1,.88,1,4.47,4.47,0,0,1,.21,1.61v5h-2v-4.44a3.32,3.32,0,0,0-.22-1.5,1,1,0,0,0-.88-.44,1.38,1.38,0,0,0-.81.27,1.44,1.44,0,0,0-.55.77,5.62,5.62,0,0,0-.17,1.61v3.73h-2v-4.26a6.12,6.12,0,0,0-.11-1.47,1,1,0,0,0-.34-.49,1.17,1.17,0,0,0-.63-.16,1.53,1.53,0,0,0-.86.26,1.42,1.42,0,0,0-.54.74,5.4,5.4,0,0,0-.17,1.6v3.78h-2.06Z"/><path d="M583.27,187.9V186h2.06v1.91Zm0,8.83V189h2.06v7.78Z"/><path d="M591.62,194.26l2,.34a3.44,3.44,0,0,1-1.25,1.72,3.7,3.7,0,0,1-2.14.59,3.47,3.47,0,0,1-3-1.33,4.47,4.47,0,0,1-.77-2.68,4.31,4.31,0,0,1,1-3,3.34,3.34,0,0,1,2.56-1.09,3.46,3.46,0,0,1,2.74,1.14,5.09,5.09,0,0,1,1,3.52h-5.16a2.09,2.09,0,0,0,.5,1.42,1.56,1.56,0,0,0,1.19.51,1.29,1.29,0,0,0,.81-.26A1.7,1.7,0,0,0,591.62,194.26Zm.11-2.08a1.92,1.92,0,0,0-.46-1.36,1.42,1.42,0,0,0-1.07-.47,1.44,1.44,0,0,0-1.11.49,1.9,1.9,0,0,0-.43,1.34Z"/><path d="M602.2,196.73h-2.06v-4a6.09,6.09,0,0,0-.13-1.63,1.13,1.13,0,0,0-.43-.57,1.19,1.19,0,0,0-.71-.21,1.67,1.67,0,0,0-1,.29,1.45,1.45,0,0,0-.58.78,6.48,6.48,0,0,0-.16,1.79v3.52h-2.06V189H597v1.15a3.11,3.11,0,0,1,2.56-1.32,3.17,3.17,0,0,1,1.25.24,2,2,0,0,1,.85.63,2.21,2.21,0,0,1,.41.86,7,7,0,0,1,.11,1.39Z"/><path d="M607.52,189v1.64h-1.4v3.14a7.42,7.42,0,0,0,0,1.11.51.51,0,0,0,.18.26.58.58,0,0,0,.35.1,2.74,2.74,0,0,0,.83-.2l.17,1.6a4.18,4.18,0,0,1-1.62.31,2.71,2.71,0,0,1-1-.19,1.52,1.52,0,0,1-.65-.48,1.88,1.88,0,0,1-.29-.81,8.88,8.88,0,0,1-.07-1.45v-3.39h-.94V189h.94v-1.54l2.07-1.2V189Z"/><path d="M608.15,192.73a4.28,4.28,0,0,1,.5-2,3.56,3.56,0,0,1,1.43-1.47,4.34,4.34,0,0,1,2.07-.5,3.92,3.92,0,0,1,2.9,1.14,4,4,0,0,1,1.12,2.9,4.05,4.05,0,0,1-1.13,2.93,3.87,3.87,0,0,1-2.87,1.16,4.38,4.38,0,0,1-2-.49,3.31,3.31,0,0,1-1.48-1.41A4.83,4.83,0,0,1,608.15,192.73Zm2.11.11a2.55,2.55,0,0,0,.55,1.77,1.78,1.78,0,0,0,2.7,0,3.12,3.12,0,0,0,0-3.54,1.78,1.78,0,0,0-2.7,0A2.55,2.55,0,0,0,610.26,192.84Z"/><path d="M628.43,196.73h-1.92v-1.14a3.09,3.09,0,0,1-1.12,1,2.86,2.86,0,0,1-1.31.33,3,3,0,0,1-2.29-1.08,4.4,4.4,0,0,1-1-3,4.31,4.31,0,0,1,.93-3,3,3,0,0,1,2.35-1,2.93,2.93,0,0,1,2.26,1.08V186h2.06Zm-5.5-4.06a3.61,3.61,0,0,0,.35,1.81,1.55,1.55,0,0,0,1.39.8,1.54,1.54,0,0,0,1.21-.6,2.83,2.83,0,0,0,.5-1.81,3.06,3.06,0,0,0-.49-1.93,1.53,1.53,0,0,0-1.24-.59,1.57,1.57,0,0,0-1.22.58A2.64,2.64,0,0,0,622.93,192.67Z"/><path d="M634.63,194.26l2,.34a3.38,3.38,0,0,1-1.25,1.72,3.69,3.69,0,0,1-2.13.59,3.47,3.47,0,0,1-3-1.33,4.47,4.47,0,0,1-.76-2.68,4.27,4.27,0,0,1,1-3,3.31,3.31,0,0,1,2.55-1.09,3.46,3.46,0,0,1,2.74,1.14,5.09,5.09,0,0,1,1,3.52h-5.16a2.09,2.09,0,0,0,.5,1.42,1.56,1.56,0,0,0,1.19.51,1.29,1.29,0,0,0,.81-.26A1.63,1.63,0,0,0,634.63,194.26Zm.12-2.08a2,2,0,0,0-.46-1.36,1.43,1.43,0,0,0-1.07-.47,1.48,1.48,0,0,0-1.12.49,1.94,1.94,0,0,0-.43,1.34Z"/><path d="M523.39,214.73h-2.06V207h1.91v1.11a3.32,3.32,0,0,1,.88-1,1.59,1.59,0,0,1,.89-.25,2.63,2.63,0,0,1,1.36.39l-.64,1.79a1.87,1.87,0,0,0-1-.34,1.14,1.14,0,0,0-.73.24,1.62,1.62,0,0,0-.47.86,12.7,12.7,0,0,0-.17,2.61Z"/><path d="M531.43,212.26l2.05.34a3.38,3.38,0,0,1-1.25,1.72,3.69,3.69,0,0,1-2.13.59,3.47,3.47,0,0,1-3-1.33,4.47,4.47,0,0,1-.76-2.68,4.31,4.31,0,0,1,1-3,3.34,3.34,0,0,1,2.56-1.09,3.46,3.46,0,0,1,2.74,1.14,5.09,5.09,0,0,1,1,3.52h-5.16a2.09,2.09,0,0,0,.5,1.42,1.56,1.56,0,0,0,1.19.51,1.29,1.29,0,0,0,.81-.26A1.63,1.63,0,0,0,531.43,212.26Zm.12-2.08a2,2,0,0,0-.47-1.36,1.4,1.4,0,0,0-1.06-.47,1.48,1.48,0,0,0-1.12.49,1.94,1.94,0,0,0-.43,1.34Z"/><path d="M540,217.69v-3.91a2.85,2.85,0,0,1-1,.82,2.77,2.77,0,0,1-1.3.31,2.74,2.74,0,0,1-2.18-1,4.63,4.63,0,0,1-1-3.16,4.16,4.16,0,0,1,1-2.92,3,3,0,0,1,2.35-1.05,2.59,2.59,0,0,1,1.34.33,3.06,3.06,0,0,1,1,1V207h1.9v10.74Zm.07-6.94a2.76,2.76,0,0,0-.49-1.78,1.52,1.52,0,0,0-1.22-.58,1.58,1.58,0,0,0-1.25.59,2.92,2.92,0,0,0-.5,1.88,2.83,2.83,0,0,0,.48,1.85,1.51,1.51,0,0,0,1.2.57,1.58,1.58,0,0,0,1.24-.64A2.84,2.84,0,0,0,540.09,210.75Z"/><path d="M548.89,214.73v-1.16a3,3,0,0,1-1.12,1,3.12,3.12,0,0,1-1.46.36,2.82,2.82,0,0,1-1.4-.35,2.06,2.06,0,0,1-.91-1,4.47,4.47,0,0,1-.27-1.73V207h2v3.58a9.43,9.43,0,0,0,.12,2,1.06,1.06,0,0,0,.41.58,1.24,1.24,0,0,0,.76.22,1.66,1.66,0,0,0,.95-.29,1.42,1.42,0,0,0,.57-.72,8.48,8.48,0,0,0,.15-2.1V207h2.06v7.78Z"/><path d="M552.6,205.9V204h2.06v1.91Zm0,8.83V207h2.06v7.78Z"/><path d="M555.71,212.51l2.07-.31a1.57,1.57,0,0,0,.53.91,1.81,1.81,0,0,0,1.13.31,2.08,2.08,0,0,0,1.2-.29.66.66,0,0,0,.27-.55.52.52,0,0,0-.14-.39,1.55,1.55,0,0,0-.69-.27,11.47,11.47,0,0,1-3.16-1,2,2,0,0,1-.92-1.76,2.14,2.14,0,0,1,.8-1.69,3.72,3.72,0,0,1,2.47-.69,4.31,4.31,0,0,1,2.38.52,2.69,2.69,0,0,1,1.07,1.54l-1.94.35a1.2,1.2,0,0,0-.48-.69,1.72,1.72,0,0,0-1-.24,2.24,2.24,0,0,0-1.16.22.49.49,0,0,0-.24.42.44.44,0,0,0,.21.37,7.41,7.41,0,0,0,1.92.58,5.78,5.78,0,0,1,2.3.92,1.91,1.91,0,0,1,.64,1.53,2.37,2.37,0,0,1-.89,1.84,4,4,0,0,1-2.65.77,4.3,4.3,0,0,1-2.51-.65A3,3,0,0,1,555.71,212.51Z"/><path d="M564.45,205.9V204h2.06v1.91Zm0,8.83V207h2.06v7.78Z"/><path d="M571.86,207v1.64h-1.41v3.14a7.42,7.42,0,0,0,0,1.11.51.51,0,0,0,.18.26.58.58,0,0,0,.35.1,2.74,2.74,0,0,0,.83-.2l.18,1.6a4.23,4.23,0,0,1-1.63.31,2.62,2.62,0,0,1-1-.19,1.49,1.49,0,0,1-.66-.48,1.88,1.88,0,0,1-.29-.81,10.25,10.25,0,0,1-.07-1.45v-3.39h-.94V207h.94v-1.54l2.07-1.2V207Z"/><path d="M572.48,210.73a4.28,4.28,0,0,1,.5-2,3.52,3.52,0,0,1,1.44-1.47,4.28,4.28,0,0,1,2.07-.5,3.9,3.9,0,0,1,2.89,1.14,4.31,4.31,0,0,1,0,5.83,3.87,3.87,0,0,1-2.87,1.16,4.44,4.44,0,0,1-2-.49A3.31,3.31,0,0,1,573,213,4.83,4.83,0,0,1,572.48,210.73Zm2.11.11a2.55,2.55,0,0,0,.55,1.77,1.78,1.78,0,0,0,2.7,0,3.12,3.12,0,0,0,0-3.54,1.78,1.78,0,0,0-2.7,0A2.55,2.55,0,0,0,574.59,210.84Z"/><path d="M581.06,212.51l2.07-.31a1.52,1.52,0,0,0,.53.91,1.81,1.81,0,0,0,1.13.31,2.08,2.08,0,0,0,1.2-.29.66.66,0,0,0,.27-.55.56.56,0,0,0-.14-.39,1.66,1.66,0,0,0-.69-.27,11.34,11.34,0,0,1-3.16-1,2,2,0,0,1-.92-1.76,2.11,2.11,0,0,1,.8-1.69,3.7,3.7,0,0,1,2.47-.69,4.31,4.31,0,0,1,2.38.52,2.63,2.63,0,0,1,1.06,1.54l-1.94.35a1.18,1.18,0,0,0-.47-.69,1.72,1.72,0,0,0-1-.24,2.3,2.3,0,0,0-1.17.22.51.51,0,0,0-.23.42.45.45,0,0,0,.2.37,7.71,7.71,0,0,0,1.93.58,5.73,5.73,0,0,1,2.29.92,1.92,1.92,0,0,1,.65,1.53,2.35,2.35,0,0,1-.9,1.84,3.94,3.94,0,0,1-2.64.77,4.35,4.35,0,0,1-2.52-.65A3,3,0,0,1,581.06,212.51Z"/><path d="M520.88,229.24,523,229a2.62,2.62,0,0,0,.77,1.56,2.37,2.37,0,0,0,1.58.5,2.43,2.43,0,0,0,1.57-.44,1.32,1.32,0,0,0,.54-1,1,1,0,0,0-.23-.65,1.86,1.86,0,0,0-.78-.46c-.25-.09-.83-.25-1.73-.47a5.89,5.89,0,0,1-2.45-1.06,2.81,2.81,0,0,1-.52-3.7,2.93,2.93,0,0,1,1.34-1.09,5.5,5.5,0,0,1,2.11-.37,4.52,4.52,0,0,1,3,.89,3.15,3.15,0,0,1,1.08,2.36l-2.17.1a1.85,1.85,0,0,0-.6-1.19,2.18,2.18,0,0,0-1.37-.36,2.46,2.46,0,0,0-1.48.38.8.8,0,0,0-.35.67.82.82,0,0,0,.33.65,5.6,5.6,0,0,0,2,.72,11.11,11.11,0,0,1,2.34.77,3,3,0,0,1,1.18,1.09,3.19,3.19,0,0,1,.43,1.71,3.15,3.15,0,0,1-.51,1.73,3,3,0,0,1-1.45,1.2,6.08,6.08,0,0,1-2.34.39,4.62,4.62,0,0,1-3.12-.94A4.08,4.08,0,0,1,520.88,229.24Z"/><path d="M535.6,230.26l2,.34a3.44,3.44,0,0,1-1.25,1.72,3.7,3.7,0,0,1-2.14.59,3.47,3.47,0,0,1-3-1.33,4.47,4.47,0,0,1-.77-2.68,4.31,4.31,0,0,1,1-3,3.34,3.34,0,0,1,2.56-1.09,3.46,3.46,0,0,1,2.74,1.14,5.09,5.09,0,0,1,1,3.52H532.6a2.09,2.09,0,0,0,.5,1.42,1.56,1.56,0,0,0,1.19.51,1.29,1.29,0,0,0,.81-.26A1.7,1.7,0,0,0,535.6,230.26Zm.11-2.08a2,2,0,0,0-.46-1.36,1.42,1.42,0,0,0-1.07-.47,1.44,1.44,0,0,0-1.11.49,1.9,1.9,0,0,0-.43,1.34Z"/><path d="M538.91,233.24l2.36.29a.73.73,0,0,0,.27.56,1.5,1.5,0,0,0,.92.22,2.41,2.41,0,0,0,1.21-.24,1,1,0,0,0,.41-.52,3.25,3.25,0,0,0,.09-.94v-1.14a2.78,2.78,0,0,1-2.33,1.26,2.87,2.87,0,0,1-2.48-1.32,4.51,4.51,0,0,1-.72-2.61,4.32,4.32,0,0,1,.94-3,3,3,0,0,1,2.34-1,2.87,2.87,0,0,1,2.39,1.26V225h1.92v7A6.64,6.64,0,0,1,546,234a2.54,2.54,0,0,1-.63,1.07,2.9,2.9,0,0,1-1.1.61,5.92,5.92,0,0,1-1.73.22,4.47,4.47,0,0,1-2.8-.68,2.1,2.1,0,0,1-.83-1.72Zm1.84-4.56a2.78,2.78,0,0,0,.48,1.81,1.48,1.48,0,0,0,1.18.58,1.65,1.65,0,0,0,1.28-.59,2.56,2.56,0,0,0,.52-1.75,2.73,2.73,0,0,0-.5-1.79,1.58,1.58,0,0,0-1.26-.59,1.51,1.51,0,0,0-1.22.58A2.67,2.67,0,0,0,540.75,228.68Z"/><path d="M553.06,232.73v-1.16a3.17,3.17,0,0,1-2.58,1.34,2.89,2.89,0,0,1-1.41-.35,2.09,2.09,0,0,1-.9-1,4.45,4.45,0,0,1-.28-1.73V225H550v3.58a10.56,10.56,0,0,0,.11,2,1.13,1.13,0,0,0,.42.58,1.22,1.22,0,0,0,.76.22,1.61,1.61,0,0,0,.94-.29,1.5,1.5,0,0,0,.58-.72,8.48,8.48,0,0,0,.15-2.1V225H555v7.78Z"/><path d="M556.77,223.9V222h2.06v1.91Zm0,8.83V225h2.06v7.78Z"/><path d="M562.58,232.73h-2.06V225h1.91v1.11a3.32,3.32,0,0,1,.88-1,1.59,1.59,0,0,1,.89-.25,2.63,2.63,0,0,1,1.36.39l-.64,1.79a1.87,1.87,0,0,0-1-.34,1.14,1.14,0,0,0-.73.24,1.62,1.62,0,0,0-.47.86,12,12,0,0,0-.17,2.61Z"/><path d="M570,232.73V222h3.48a12.16,12.16,0,0,1,2.57.17,2.82,2.82,0,0,1,1.55,1.05,3.35,3.35,0,0,1,.62,2.09,3.48,3.48,0,0,1-.36,1.66,3,3,0,0,1-.91,1.06,3.4,3.4,0,0,1-1.12.51,12.73,12.73,0,0,1-2.25.15h-1.41v4Zm2.17-8.92v3.05h1.18a5.7,5.7,0,0,0,1.72-.17,1.44,1.44,0,0,0,.92-1.36,1.39,1.39,0,0,0-.35-1,1.57,1.57,0,0,0-.87-.48,10.43,10.43,0,0,0-1.56-.07Z"/><path d="M581.6,232.73h-2.06V225h1.91v1.11a3.32,3.32,0,0,1,.88-1,1.59,1.59,0,0,1,.89-.25,2.63,2.63,0,0,1,1.36.39l-.64,1.79a1.87,1.87,0,0,0-1-.34,1.14,1.14,0,0,0-.73.24,1.62,1.62,0,0,0-.47.86,12.7,12.7,0,0,0-.17,2.61Z"/><path d="M584.66,228.73a4.28,4.28,0,0,1,.5-2,3.52,3.52,0,0,1,1.44-1.47,4.27,4.27,0,0,1,2.06-.5,3.9,3.9,0,0,1,2.9,1.14,4.31,4.31,0,0,1,0,5.83,3.87,3.87,0,0,1-2.87,1.16,4.44,4.44,0,0,1-2-.49,3.31,3.31,0,0,1-1.48-1.41A4.83,4.83,0,0,1,584.66,228.73Zm2.11.11a2.55,2.55,0,0,0,.55,1.77,1.78,1.78,0,0,0,2.7,0,3.12,3.12,0,0,0,0-3.54,1.78,1.78,0,0,0-2.7,0A2.55,2.55,0,0,0,586.77,228.84Z"/><path d="M597.53,225v1.64h-1.4v3.14a7.42,7.42,0,0,0,0,1.11.51.51,0,0,0,.18.26.58.58,0,0,0,.35.1,2.81,2.81,0,0,0,.83-.2l.17,1.6a4.18,4.18,0,0,1-1.62.31,2.71,2.71,0,0,1-1-.19,1.52,1.52,0,0,1-.65-.48,1.88,1.88,0,0,1-.29-.81,8.88,8.88,0,0,1-.07-1.45v-3.39h-.94V225h.94v-1.54l2.07-1.2V225Z"/><path d="M598.16,228.73a4.28,4.28,0,0,1,.5-2,3.56,3.56,0,0,1,1.43-1.47,4.34,4.34,0,0,1,2.07-.5,3.92,3.92,0,0,1,2.9,1.14,4,4,0,0,1,1.12,2.9,4,4,0,0,1-1.14,2.93,3.84,3.84,0,0,1-2.86,1.16,4.38,4.38,0,0,1-2-.49,3.31,3.31,0,0,1-1.48-1.41A4.83,4.83,0,0,1,598.16,228.73Zm2.11.11a2.55,2.55,0,0,0,.55,1.77,1.78,1.78,0,0,0,2.7,0,3.12,3.12,0,0,0,0-3.54,1.78,1.78,0,0,0-2.7,0A2.55,2.55,0,0,0,600.27,228.84Z"/><path d="M614.25,227.25l-2,.37a1.51,1.51,0,0,0-.47-.92,1.41,1.41,0,0,0-.94-.3,1.54,1.54,0,0,0-1.23.53,2.73,2.73,0,0,0-.45,1.77,3.15,3.15,0,0,0,.46,2,1.53,1.53,0,0,0,1.25.57,1.4,1.4,0,0,0,1-.33,2,2,0,0,0,.53-1.15l2,.34a3.6,3.6,0,0,1-1.21,2.11,3.76,3.76,0,0,1-2.39.71,3.58,3.58,0,0,1-2.73-1.08,4.91,4.91,0,0,1,0-6,3.62,3.62,0,0,1,2.75-1.07,3.74,3.74,0,0,1,2.26.61A3.44,3.44,0,0,1,614.25,227.25Z"/><path d="M615,228.73a4.17,4.17,0,0,1,.51-2,3.44,3.44,0,0,1,1.43-1.47,4.34,4.34,0,0,1,2.07-.5,3.9,3.9,0,0,1,2.89,1.14,4.31,4.31,0,0,1,0,5.83,3.87,3.87,0,0,1-2.87,1.16,4.44,4.44,0,0,1-2-.49,3.24,3.24,0,0,1-1.47-1.41A4.71,4.71,0,0,1,615,228.73Zm2.11.11a2.55,2.55,0,0,0,.55,1.77,1.79,1.79,0,0,0,2.71,0,3.17,3.17,0,0,0,0-3.54,1.79,1.79,0,0,0-2.71,0A2.55,2.55,0,0,0,617.11,228.84Z"/><path d="M624.31,232.73V222h2.06v10.74Z"/><path d="M627.67,228.73a4.17,4.17,0,0,1,.51-2,3.44,3.44,0,0,1,1.43-1.47,4.34,4.34,0,0,1,2.07-.5,3.9,3.9,0,0,1,2.89,1.14,4.31,4.31,0,0,1,0,5.83,3.87,3.87,0,0,1-2.87,1.16,4.44,4.44,0,0,1-2-.49,3.24,3.24,0,0,1-1.47-1.41A4.71,4.71,0,0,1,627.67,228.73Zm2.11.11a2.55,2.55,0,0,0,.55,1.77,1.79,1.79,0,0,0,2.71,0,3.17,3.17,0,0,0,0-3.54,1.79,1.79,0,0,0-2.71,0A2.55,2.55,0,0,0,629.78,228.84Z"/><path d="M636.25,230.51l2.07-.31a1.57,1.57,0,0,0,.53.91,1.81,1.81,0,0,0,1.13.31,2.08,2.08,0,0,0,1.2-.29.67.67,0,0,0,.28-.55.53.53,0,0,0-.15-.39,1.55,1.55,0,0,0-.69-.27,11.47,11.47,0,0,1-3.16-1,2,2,0,0,1-.92-1.76,2.14,2.14,0,0,1,.8-1.69,3.72,3.72,0,0,1,2.47-.69,4.31,4.31,0,0,1,2.38.52,2.65,2.65,0,0,1,1.07,1.54l-1.94.35a1.2,1.2,0,0,0-.48-.69,1.72,1.72,0,0,0-1-.24,2.24,2.24,0,0,0-1.16.22.49.49,0,0,0-.24.42.44.44,0,0,0,.21.37,7.41,7.41,0,0,0,1.92.58,5.78,5.78,0,0,1,2.3.92,1.91,1.91,0,0,1,.64,1.53,2.37,2.37,0,0,1-.89,1.84,4,4,0,0,1-2.65.77,4.3,4.3,0,0,1-2.51-.65A3,3,0,0,1,636.25,230.51Z"/><path d="M488.63,295.5V284.77h2.17V295.5Z"/><path d="M499.66,295.5h-1.92v-1.14a2.92,2.92,0,0,1-1.12,1,2.86,2.86,0,0,1-1.31.33A3,3,0,0,1,493,294.6a5.27,5.27,0,0,1,0-6,3,3,0,0,1,2.35-1,2.93,2.93,0,0,1,2.26,1.08v-3.86h2.06Zm-5.5-4.05a3.54,3.54,0,0,0,.35,1.8,1.57,1.57,0,0,0,2.6.2,2.79,2.79,0,0,0,.49-1.81,3.09,3.09,0,0,0-.48-1.93,1.58,1.58,0,0,0-2.46,0A2.64,2.64,0,0,0,494.16,291.45Z"/><path d="M505.86,293l2.05.34a3.4,3.4,0,0,1-1.25,1.72,3.7,3.7,0,0,1-2.14.59,3.47,3.47,0,0,1-3-1.33,4.45,4.45,0,0,1-.77-2.68,4.33,4.33,0,0,1,1-3,3.38,3.38,0,0,1,2.56-1.09,3.44,3.44,0,0,1,2.74,1.15,5,5,0,0,1,1,3.51h-5.16a2.09,2.09,0,0,0,.5,1.42,1.56,1.56,0,0,0,1.19.51,1.29,1.29,0,0,0,.81-.26A1.63,1.63,0,0,0,505.86,293ZM506,291a1.92,1.92,0,0,0-.46-1.36,1.47,1.47,0,0,0-2.18,0,1.87,1.87,0,0,0-.43,1.33Z"/><path d="M516.44,295.5h-2.06v-4a6.09,6.09,0,0,0-.13-1.63,1.18,1.18,0,0,0-.43-.57,1.19,1.19,0,0,0-.71-.21,1.61,1.61,0,0,0-1,.3,1.44,1.44,0,0,0-.58.77,6.53,6.53,0,0,0-.16,1.79v3.52h-2.06v-7.77h1.91v1.14a3.13,3.13,0,0,1,2.57-1.32,3,3,0,0,1,1.24.25,2,2,0,0,1,.85.62,2.25,2.25,0,0,1,.41.87,6.81,6.81,0,0,1,.11,1.38Z"/><path d="M521.76,287.73v1.64h-1.4v3.13a7.23,7.23,0,0,0,0,1.11.48.48,0,0,0,.18.26.58.58,0,0,0,.35.1,2.66,2.66,0,0,0,.83-.19l.17,1.59a4,4,0,0,1-1.62.31,2.53,2.53,0,0,1-1-.19,1.44,1.44,0,0,1-.65-.48,1.88,1.88,0,0,1-.29-.8,9,9,0,0,1-.07-1.45v-3.39h-.94v-1.64h.94v-1.55l2.07-1.2v2.75Z"/><path d="M522.86,286.67v-1.9h2.06v1.9Zm0,8.83v-7.77h2.06v7.77Z"/><path d="M525.8,287.73h1.14v-.59a3.85,3.85,0,0,1,.21-1.46,1.63,1.63,0,0,1,.77-.79,3,3,0,0,1,1.42-.31,5.62,5.62,0,0,1,1.72.27l-.28,1.43a4,4,0,0,0-.95-.11.89.89,0,0,0-.64.2,1.29,1.29,0,0,0-.19.81v.55h1.54v1.61H529v6.16h-2.06v-6.16H525.8Z"/><path d="M531.37,286.67v-1.9h2v1.9Zm0,8.83v-7.77h2v7.77Z"/><path d="M542,290l-2,.36a1.48,1.48,0,0,0-.47-.91,1.37,1.37,0,0,0-.94-.31,1.57,1.57,0,0,0-1.23.53,2.76,2.76,0,0,0-.45,1.78,3.14,3.14,0,0,0,.46,1.95,1.53,1.53,0,0,0,1.25.57,1.4,1.4,0,0,0,1-.33,2,2,0,0,0,.53-1.15l2,.35a3.54,3.54,0,0,1-1.21,2.1,3.77,3.77,0,0,1-2.4.71,3.57,3.57,0,0,1-2.72-1.08,4.91,4.91,0,0,1,0-6,3.62,3.62,0,0,1,2.75-1.07,3.74,3.74,0,0,1,2.26.61A3.43,3.43,0,0,1,542,290Z"/><path d="M544.75,290.1l-1.86-.34a2.92,2.92,0,0,1,1.08-1.67,4,4,0,0,1,2.28-.54,4.91,4.91,0,0,1,2.06.33,2,2,0,0,1,.94.82,4.16,4.16,0,0,1,.28,1.85l0,2.4a7.92,7.92,0,0,0,.1,1.51,3.73,3.73,0,0,0,.37,1h-2c-.05-.13-.12-.34-.2-.6s-.06-.21-.07-.25a3.55,3.55,0,0,1-1.13.77,3.25,3.25,0,0,1-1.28.26,2.66,2.66,0,0,1-1.89-.65,2.16,2.16,0,0,1-.7-1.65,2.24,2.24,0,0,1,.32-1.18,2.11,2.11,0,0,1,.88-.79,7.16,7.16,0,0,1,1.64-.48,11.9,11.9,0,0,0,2-.5v-.21a1,1,0,0,0-.3-.84,1.71,1.71,0,0,0-1.1-.26,1.52,1.52,0,0,0-.86.22A1.6,1.6,0,0,0,544.75,290.1Zm2.76,1.67a12.1,12.1,0,0,1-1.26.31,4.35,4.35,0,0,0-1.12.36.87.87,0,0,0-.4.73,1,1,0,0,0,.32.74,1.14,1.14,0,0,0,.82.32,1.76,1.76,0,0,0,1.07-.37,1.26,1.26,0,0,0,.49-.68,4.22,4.22,0,0,0,.08-1Z"/><path d="M553.2,295.5h-2.06v-7.77h1.91v1.1a3.44,3.44,0,0,1,.88-1,1.62,1.62,0,0,1,.89-.25,2.63,2.63,0,0,1,1.36.39l-.64,1.79a1.81,1.81,0,0,0-1-.33,1.21,1.21,0,0,0-.74.23,1.69,1.69,0,0,0-.47.86,12.7,12.7,0,0,0-.17,2.61Z"/><path d="M560.51,287.73h1.92v1.14a2.88,2.88,0,0,1,1-.95,2.76,2.76,0,0,1,1.42-.37,3,3,0,0,1,2.3,1.06,4.31,4.31,0,0,1,.94,3,4.45,4.45,0,0,1-1,3,3,3,0,0,1-2.31,1.08,2.64,2.64,0,0,1-1.17-.26,4,4,0,0,1-1.1-.88v3.92h-2.06Zm2,3.75a3,3,0,0,0,.52,1.94,1.59,1.59,0,0,0,1.27.63,1.47,1.47,0,0,0,1.19-.58,2.93,2.93,0,0,0,.48-1.88,2.85,2.85,0,0,0-.49-1.82,1.52,1.52,0,0,0-1.22-.59,1.57,1.57,0,0,0-1.25.58A2.6,2.6,0,0,0,562.55,291.48Z"/><path d="M571.38,295.5h-2.06v-7.77h1.91v1.1a3.44,3.44,0,0,1,.88-1,1.59,1.59,0,0,1,.89-.25,2.63,2.63,0,0,1,1.36.39l-.64,1.79a1.84,1.84,0,0,0-1-.33,1.18,1.18,0,0,0-.73.23,1.62,1.62,0,0,0-.47.86,12,12,0,0,0-.17,2.61Z"/><path d="M574.44,291.51a4.29,4.29,0,0,1,.5-2,3.47,3.47,0,0,1,1.43-1.46,4.23,4.23,0,0,1,2.07-.51,3.89,3.89,0,0,1,2.9,1.15,4,4,0,0,1,1.12,2.89,4,4,0,0,1-1.13,2.93,3.87,3.87,0,0,1-2.87,1.16,4.5,4.5,0,0,1-2-.48,3.39,3.39,0,0,1-1.48-1.42A4.79,4.79,0,0,1,574.44,291.51Zm2.11.11a2.55,2.55,0,0,0,.55,1.77,1.8,1.8,0,0,0,2.7,0,2.64,2.64,0,0,0,.55-1.79,2.59,2.59,0,0,0-.55-1.76,1.8,1.8,0,0,0-2.7,0A2.56,2.56,0,0,0,576.55,291.62Z"/><path d="M583.69,287.73h1.92v1.14a2.88,2.88,0,0,1,2.42-1.32,3,3,0,0,1,2.3,1.06,4.31,4.31,0,0,1,.94,3,4.4,4.4,0,0,1-.95,3,3,3,0,0,1-2.3,1.08,2.64,2.64,0,0,1-1.17-.26,3.75,3.75,0,0,1-1.1-.88v3.92h-2.06Zm2,3.75a3,3,0,0,0,.52,1.94,1.59,1.59,0,0,0,1.27.63,1.45,1.45,0,0,0,1.19-.58,2.93,2.93,0,0,0,.48-1.88,2.79,2.79,0,0,0-.49-1.82,1.5,1.5,0,0,0-1.22-.59,1.57,1.57,0,0,0-1.25.58A2.6,2.6,0,0,0,585.72,291.48Z"/><path d="M592.1,291.51a4.18,4.18,0,0,1,.51-2,3.36,3.36,0,0,1,1.43-1.46,4.23,4.23,0,0,1,2.07-.51A3.86,3.86,0,0,1,599,288.7a4,4,0,0,1,1.13,2.89,4,4,0,0,1-1.14,2.93,3.87,3.87,0,0,1-2.87,1.16,4.56,4.56,0,0,1-2-.48,3.36,3.36,0,0,1-1.47-1.42A4.67,4.67,0,0,1,592.1,291.51Zm2.11.11a2.55,2.55,0,0,0,.55,1.77,1.81,1.81,0,0,0,2.71,0,2.64,2.64,0,0,0,.54-1.79,2.59,2.59,0,0,0-.54-1.76,1.81,1.81,0,0,0-2.71,0A2.56,2.56,0,0,0,594.21,291.62Zm.87-4.85,1-2.19h2.3l-2,2.19Z"/><path d="M600.69,293.29l2.06-.32a1.53,1.53,0,0,0,.54.91,1.76,1.76,0,0,0,1.12.31,2,2,0,0,0,1.21-.29.69.69,0,0,0,.27-.55.54.54,0,0,0-.15-.39,1.68,1.68,0,0,0-.69-.27,11.12,11.12,0,0,1-3.16-1,2,2,0,0,1-.92-1.75,2.16,2.16,0,0,1,.8-1.7,3.73,3.73,0,0,1,2.48-.69,4.29,4.29,0,0,1,2.37.52,2.68,2.68,0,0,1,1.07,1.54l-1.94.36a1.19,1.19,0,0,0-.48-.7,1.72,1.72,0,0,0-1-.24,2.22,2.22,0,0,0-1.16.23.47.47,0,0,0-.24.41.46.46,0,0,0,.21.38,7.87,7.87,0,0,0,1.92.58,5.8,5.8,0,0,1,2.3.91,1.91,1.91,0,0,1,.64,1.53,2.35,2.35,0,0,1-.89,1.84,4,4,0,0,1-2.65.77,4.32,4.32,0,0,1-2.51-.64A3,3,0,0,1,600.69,293.29Z"/><path d="M609.42,286.67v-1.9h2.06v1.9Zm0,8.83v-7.77h2.06v7.77Z"/><path d="M616.83,287.73v1.64h-1.41v3.13a7.23,7.23,0,0,0,0,1.11.48.48,0,0,0,.18.26.6.6,0,0,0,.35.1,2.66,2.66,0,0,0,.83-.19l.18,1.59a4.05,4.05,0,0,1-1.63.31,2.44,2.44,0,0,1-1-.19,1.42,1.42,0,0,1-.66-.48,1.88,1.88,0,0,1-.29-.8,10.93,10.93,0,0,1-.06-1.45v-3.39h-1v-1.64h1v-1.55l2.06-1.2v2.75Z"/><path d="M617.45,291.51a4.29,4.29,0,0,1,.5-2,3.44,3.44,0,0,1,1.44-1.46,4.18,4.18,0,0,1,2.07-.51,3.86,3.86,0,0,1,2.89,1.15,4,4,0,0,1,1.13,2.89,4,4,0,0,1-1.14,2.93,3.87,3.87,0,0,1-2.87,1.16,4.56,4.56,0,0,1-2-.48,3.39,3.39,0,0,1-1.48-1.42A4.79,4.79,0,0,1,617.45,291.51Zm2.11.11a2.55,2.55,0,0,0,.55,1.77,1.8,1.8,0,0,0,2.7,0,2.59,2.59,0,0,0,.55-1.79,2.54,2.54,0,0,0-.55-1.76,1.8,1.8,0,0,0-2.7,0A2.56,2.56,0,0,0,619.56,291.62Z"/><path d="M626,293.29l2.07-.32a1.52,1.52,0,0,0,.53.91,1.81,1.81,0,0,0,1.13.31,2,2,0,0,0,1.2-.29.66.66,0,0,0,.27-.55.58.58,0,0,0-.14-.39,1.82,1.82,0,0,0-.69-.27,11.12,11.12,0,0,1-3.16-1,2,2,0,0,1-.92-1.75,2.13,2.13,0,0,1,.8-1.7,3.7,3.7,0,0,1,2.47-.69,4.31,4.31,0,0,1,2.38.52,2.73,2.73,0,0,1,1.07,1.54l-1.95.36a1.18,1.18,0,0,0-.47-.7,1.72,1.72,0,0,0-1-.24,2.29,2.29,0,0,0-1.17.23.48.48,0,0,0-.23.41.46.46,0,0,0,.21.38,7.87,7.87,0,0,0,1.92.58,5.74,5.74,0,0,1,2.29.91,1.92,1.92,0,0,1,.65,1.53,2.35,2.35,0,0,1-.89,1.84,4,4,0,0,1-2.65.77,4.3,4.3,0,0,1-2.51-.64A3,3,0,0,1,626,293.29Z"/><path d="M488.69,302.77h4a8.11,8.11,0,0,1,2.05.2,3.67,3.67,0,0,1,1.62,1,4.69,4.69,0,0,1,1,1.74,7.79,7.79,0,0,1,.35,2.54,7,7,0,0,1-.33,2.28,4.73,4.73,0,0,1-1.15,1.9,3.77,3.77,0,0,1-1.52.86,6.66,6.66,0,0,1-1.92.22h-4.08Zm2.17,1.81v7.12h1.62a5.74,5.74,0,0,0,1.31-.11,2,2,0,0,0,.87-.44,2.25,2.25,0,0,0,.57-1,6.9,6.9,0,0,0,.22-2,6.31,6.31,0,0,0-.22-1.91,2.56,2.56,0,0,0-.61-1,2,2,0,0,0-1-.5,9.4,9.4,0,0,0-1.78-.11Z"/><path d="M503.69,311l2.05.34a3.34,3.34,0,0,1-1.25,1.72,3.69,3.69,0,0,1-2.13.59,3.47,3.47,0,0,1-3-1.33,4.45,4.45,0,0,1-.76-2.68,4.29,4.29,0,0,1,1-3,3.34,3.34,0,0,1,2.55-1.09,3.44,3.44,0,0,1,2.74,1.15,5,5,0,0,1,1,3.51H500.7a2,2,0,0,0,.49,1.42,1.57,1.57,0,0,0,1.19.51,1.29,1.29,0,0,0,.81-.26A1.63,1.63,0,0,0,503.69,311Zm.12-2.08a2,2,0,0,0-.46-1.36,1.43,1.43,0,0,0-1.07-.47,1.45,1.45,0,0,0-1.12.5,1.92,1.92,0,0,0-.43,1.33Z"/><path d="M506.3,305.73h1.14v-.59a3.85,3.85,0,0,1,.21-1.46,1.59,1.59,0,0,1,.77-.79,2.94,2.94,0,0,1,1.41-.31,5.68,5.68,0,0,1,1.73.27l-.28,1.43a4,4,0,0,0-.95-.11.88.88,0,0,0-.64.2,1.23,1.23,0,0,0-.19.81v.55H511v1.61H509.5v6.16h-2.06v-6.16H506.3Z"/><path d="M511.86,304.67v-1.9h2.06v1.9Zm0,8.83v-7.77h2.06v7.77Z"/><path d="M522.78,313.5h-2.06v-4a6.56,6.56,0,0,0-.13-1.63,1.18,1.18,0,0,0-.43-.57,1.22,1.22,0,0,0-.72-.21,1.65,1.65,0,0,0-1,.3,1.49,1.49,0,0,0-.58.77,7,7,0,0,0-.16,1.79v3.52h-2v-7.77h1.91v1.14a3.11,3.11,0,0,1,2.56-1.32,3,3,0,0,1,1.25.25,2.09,2.09,0,0,1,.85.62,2.24,2.24,0,0,1,.4.87,6,6,0,0,1,.12,1.38Z"/><path d="M524.53,304.67v-1.9h2.06v1.9Zm0,8.83v-7.77h2.06v7.77Z"/><path d="M530.34,313.5h-2.06v-7.77h1.91v1.1a3.44,3.44,0,0,1,.89-1,1.57,1.57,0,0,1,.89-.25,2.57,2.57,0,0,1,1.35.39l-.64,1.79a1.79,1.79,0,0,0-1-.33,1.18,1.18,0,0,0-.73.23,1.69,1.69,0,0,0-.48.86,12.7,12.7,0,0,0-.17,2.61Z"/><path d="M539.85,313.5l-3.13-7.77h2.16l1.46,4,.43,1.32c.11-.34.18-.56.21-.67s.14-.43.22-.65l1.48-4h2.12l-3.09,7.77Z"/><path d="M547.27,308.1l-1.87-.34a2.92,2.92,0,0,1,1.08-1.67,4,4,0,0,1,2.29-.54,4.86,4.86,0,0,1,2.05.33,2.05,2.05,0,0,1,.95.82,4.35,4.35,0,0,1,.27,1.85l0,2.4a7.92,7.92,0,0,0,.1,1.51,4.08,4.08,0,0,0,.37,1h-2c-.05-.13-.12-.34-.2-.6a1.44,1.44,0,0,0-.07-.25,3.55,3.55,0,0,1-1.13.77,3.22,3.22,0,0,1-1.28.26,2.66,2.66,0,0,1-1.89-.65,2.19,2.19,0,0,1-.69-1.65,2.24,2.24,0,0,1,.31-1.18,2.11,2.11,0,0,1,.88-.79,7.32,7.32,0,0,1,1.64-.48,11.9,11.9,0,0,0,2-.5v-.21a1.08,1.08,0,0,0-.29-.84,1.77,1.77,0,0,0-1.11-.26,1.23,1.23,0,0,0-1.35,1Zm2.75,1.67a11.77,11.77,0,0,1-1.25.31,4.21,4.21,0,0,0-1.12.36.86.86,0,0,0-.41.73,1,1,0,0,0,.33.74,1.11,1.11,0,0,0,.82.32,1.75,1.75,0,0,0,1.06-.37,1.26,1.26,0,0,0,.49-.68,4.22,4.22,0,0,0,.08-1Z"/><path d="M555.71,313.5h-2.06v-7.77h1.91v1.1a3.31,3.31,0,0,1,.89-1,1.57,1.57,0,0,1,.89-.25,2.6,2.6,0,0,1,1.35.39l-.64,1.79a1.81,1.81,0,0,0-1-.33,1.21,1.21,0,0,0-.74.23,1.69,1.69,0,0,0-.47.86,12.7,12.7,0,0,0-.17,2.61Z"/><path d="M559.25,304.67v-1.9h2.06v1.9Zm0,8.83v-7.77h2.06v7.77Z"/><path d="M564.62,308.1l-1.87-.34a2.93,2.93,0,0,1,1.09-1.67,4,4,0,0,1,2.28-.54,4.83,4.83,0,0,1,2,.33,2,2,0,0,1,1,.82,4.16,4.16,0,0,1,.28,1.85l0,2.4a9.1,9.1,0,0,0,.09,1.51,4.51,4.51,0,0,0,.37,1h-2a5.89,5.89,0,0,1-.2-.6c0-.13-.06-.21-.07-.25a3.55,3.55,0,0,1-1.13.77,3.25,3.25,0,0,1-1.28.26,2.7,2.7,0,0,1-1.9-.65,2.19,2.19,0,0,1-.69-1.65,2.24,2.24,0,0,1,.32-1.18,2.11,2.11,0,0,1,.88-.79,7.16,7.16,0,0,1,1.64-.48,12.17,12.17,0,0,0,2-.5v-.21a1,1,0,0,0-.3-.84,1.71,1.71,0,0,0-1.1-.26,1.52,1.52,0,0,0-.86.22A1.6,1.6,0,0,0,564.62,308.1Zm2.76,1.67a12.1,12.1,0,0,1-1.26.31,4.35,4.35,0,0,0-1.12.36.85.85,0,0,0-.4.73,1,1,0,0,0,.32.74,1.14,1.14,0,0,0,.82.32,1.73,1.73,0,0,0,1.06-.37,1.28,1.28,0,0,0,.5-.68,4.22,4.22,0,0,0,.08-1Z"/><path d="M571,313.5V302.77h2.06v3.86a2.9,2.9,0,0,1,2.25-1.08,3,3,0,0,1,2.35,1,4.26,4.26,0,0,1,.93,2.95,4.49,4.49,0,0,1-.94,3.07,3,3,0,0,1-2.31,1.08,2.86,2.86,0,0,1-1.31-.33,3.19,3.19,0,0,1-1.12-1v1.14Zm2-4.05a3.32,3.32,0,0,0,.38,1.78,1.63,1.63,0,0,0,1.42.82,1.46,1.46,0,0,0,1.17-.58,2.92,2.92,0,0,0,.48-1.83,3.08,3.08,0,0,0-.49-1.93,1.53,1.53,0,0,0-1.24-.59,1.57,1.57,0,0,0-1.23.58A2.69,2.69,0,0,0,573.05,309.45Z"/><path d="M579.93,313.5V302.77H582V313.5Z"/><path d="M588.27,311l2.05.34a3.34,3.34,0,0,1-1.25,1.72,3.69,3.69,0,0,1-2.13.59,3.45,3.45,0,0,1-3-1.33,4.38,4.38,0,0,1-.77-2.68,4.29,4.29,0,0,1,1-3,3.34,3.34,0,0,1,2.55-1.09,3.44,3.44,0,0,1,2.74,1.15,5,5,0,0,1,1,3.51h-5.15a2.08,2.08,0,0,0,.49,1.42,1.57,1.57,0,0,0,1.19.51,1.29,1.29,0,0,0,.81-.26A1.63,1.63,0,0,0,588.27,311Zm.12-2.08a2,2,0,0,0-.46-1.36,1.43,1.43,0,0,0-1.07-.47,1.42,1.42,0,0,0-1.11.5,1.88,1.88,0,0,0-.44,1.33Z"/><path d="M591.05,311.29l2.07-.32a1.57,1.57,0,0,0,.53.91,1.81,1.81,0,0,0,1.13.31,2,2,0,0,0,1.2-.29.66.66,0,0,0,.27-.55.54.54,0,0,0-.14-.39,1.68,1.68,0,0,0-.69-.27,11.12,11.12,0,0,1-3.16-1,2,2,0,0,1-.92-1.75,2.16,2.16,0,0,1,.8-1.7,3.72,3.72,0,0,1,2.47-.69,4.31,4.31,0,0,1,2.38.52,2.73,2.73,0,0,1,1.07,1.54l-1.94.36a1.23,1.23,0,0,0-.48-.7,1.72,1.72,0,0,0-1-.24,2.22,2.22,0,0,0-1.16.23.47.47,0,0,0-.24.41.46.46,0,0,0,.21.38,7.87,7.87,0,0,0,1.92.58,5.8,5.8,0,0,1,2.3.91,1.91,1.91,0,0,1,.64,1.53,2.35,2.35,0,0,1-.89,1.84,4,4,0,0,1-2.65.77,4.3,4.3,0,0,1-2.51-.64A3,3,0,0,1,591.05,311.29Z"/><path d="M488.7,331.5V320.77h8v1.81h-5.79V325h5.39v1.81h-5.39v2.93h6v1.8Z"/><path d="M497.63,329.29l2.07-.32a1.52,1.52,0,0,0,.53.91,1.81,1.81,0,0,0,1.13.31,2,2,0,0,0,1.2-.29.66.66,0,0,0,.27-.55.58.58,0,0,0-.14-.39,1.82,1.82,0,0,0-.69-.27,11.12,11.12,0,0,1-3.16-1,2,2,0,0,1-.92-1.75,2.13,2.13,0,0,1,.8-1.7,3.7,3.7,0,0,1,2.47-.69,4.31,4.31,0,0,1,2.38.52,2.67,2.67,0,0,1,1.06,1.54l-1.94.36a1.18,1.18,0,0,0-.47-.7,1.72,1.72,0,0,0-1-.24,2.29,2.29,0,0,0-1.17.23.48.48,0,0,0-.23.41.46.46,0,0,0,.21.38,7.87,7.87,0,0,0,1.92.58,5.74,5.74,0,0,1,2.29.91,1.92,1.92,0,0,1,.65,1.53,2.33,2.33,0,0,1-.9,1.84,3.94,3.94,0,0,1-2.64.77,4.35,4.35,0,0,1-2.52-.64A3,3,0,0,1,497.63,329.29Z"/><path d="M509.94,323.73v1.64h-1.41v3.13a7.23,7.23,0,0,0,0,1.11.48.48,0,0,0,.18.26.6.6,0,0,0,.35.1,2.66,2.66,0,0,0,.83-.19l.18,1.59a4.05,4.05,0,0,1-1.63.31,2.44,2.44,0,0,1-1-.19,1.42,1.42,0,0,1-.66-.48,1.88,1.88,0,0,1-.29-.8,10.93,10.93,0,0,1-.06-1.45v-3.39h-1v-1.64h1v-1.55l2.06-1.2v2.75Z"/><path d="M513,331.5H511v-7.77h1.91v1.1a3.44,3.44,0,0,1,.88-1,1.59,1.59,0,0,1,.89-.25,2.63,2.63,0,0,1,1.36.39l-.64,1.79a1.84,1.84,0,0,0-1-.33,1.18,1.18,0,0,0-.73.23,1.62,1.62,0,0,0-.47.86,12,12,0,0,0-.17,2.61Z"/><path d="M518.08,326.1l-1.87-.34a2.88,2.88,0,0,1,1.09-1.67,4,4,0,0,1,2.28-.54,4.86,4.86,0,0,1,2,.33,2,2,0,0,1,1,.82,4.31,4.31,0,0,1,.28,1.85l0,2.4a8.86,8.86,0,0,0,.1,1.51,4.51,4.51,0,0,0,.37,1h-2a5.89,5.89,0,0,1-.2-.6c0-.13-.06-.21-.07-.25a3.67,3.67,0,0,1-1.13.77,3.25,3.25,0,0,1-1.28.26,2.69,2.69,0,0,1-1.9-.65,2.19,2.19,0,0,1-.69-1.65,2.24,2.24,0,0,1,.32-1.18,2.11,2.11,0,0,1,.88-.79,7.21,7.21,0,0,1,1.63-.48,11.63,11.63,0,0,0,2-.5v-.21a1,1,0,0,0-.29-.84,1.71,1.71,0,0,0-1.1-.26,1.49,1.49,0,0,0-.86.22A1.53,1.53,0,0,0,518.08,326.1Zm2.75,1.67a11.77,11.77,0,0,1-1.25.31,4.35,4.35,0,0,0-1.12.36.85.85,0,0,0-.4.73,1,1,0,0,0,.32.74,1.14,1.14,0,0,0,.82.32,1.73,1.73,0,0,0,1.06-.37,1.22,1.22,0,0,0,.49-.68,3.73,3.73,0,0,0,.08-1Z"/><path d="M528.12,323.73v1.64h-1.4v3.13a7.23,7.23,0,0,0,0,1.11.39.39,0,0,0,.18.26.56.56,0,0,0,.35.1,2.72,2.72,0,0,0,.83-.19l.17,1.59a4,4,0,0,1-1.63.31,2.48,2.48,0,0,1-1-.19A1.34,1.34,0,0,1,525,331a1.88,1.88,0,0,1-.29-.8,9,9,0,0,1-.07-1.45v-3.39h-.94v-1.64h.94v-1.55l2.07-1.2v2.75Z"/><path d="M533.72,329l2.06.34a3.4,3.4,0,0,1-1.25,1.72,3.7,3.7,0,0,1-2.14.59,3.47,3.47,0,0,1-3-1.33,4.45,4.45,0,0,1-.77-2.68,4.33,4.33,0,0,1,1-3,3.36,3.36,0,0,1,2.56-1.09,3.45,3.45,0,0,1,2.74,1.15,5.15,5.15,0,0,1,1,3.51h-5.16a2,2,0,0,0,.5,1.42,1.54,1.54,0,0,0,1.18.51,1.3,1.3,0,0,0,.82-.26A1.63,1.63,0,0,0,533.72,329Zm.12-2.08a2,2,0,0,0-.46-1.36,1.47,1.47,0,0,0-2.18,0,1.87,1.87,0,0,0-.43,1.33Z"/><path d="M537,332l2.35.28a.83.83,0,0,0,.27.57,1.63,1.63,0,0,0,.93.22,2.32,2.32,0,0,0,1.21-.25,1,1,0,0,0,.41-.52,3.25,3.25,0,0,0,.09-.94v-1.14A2.78,2.78,0,0,1,540,331.5a2.87,2.87,0,0,1-2.48-1.32,4.51,4.51,0,0,1-.72-2.61,4.29,4.29,0,0,1,.94-3,3,3,0,0,1,2.34-1,2.83,2.83,0,0,1,2.38,1.27v-1.09h1.93v7a6.94,6.94,0,0,1-.23,2.05,2.54,2.54,0,0,1-.63,1.07,2.9,2.9,0,0,1-1.1.61,5.64,5.64,0,0,1-1.73.22,4.5,4.5,0,0,1-2.81-.68,2.11,2.11,0,0,1-.82-1.71Zm1.84-4.57a2.83,2.83,0,0,0,.48,1.82,1.48,1.48,0,0,0,1.18.57,1.62,1.62,0,0,0,1.28-.59,2.58,2.58,0,0,0,.52-1.74,2.74,2.74,0,0,0-.5-1.8,1.58,1.58,0,0,0-1.26-.59,1.54,1.54,0,0,0-1.22.58A2.69,2.69,0,0,0,538.88,327.45Z"/><path d="M546.06,322.67v-1.9h2.06v1.9Zm0,8.83v-7.77h2.06v7.77Z"/><path d="M551.44,326.1l-1.87-.34a2.88,2.88,0,0,1,1.09-1.67,4,4,0,0,1,2.28-.54,4.86,4.86,0,0,1,2,.33,2,2,0,0,1,1,.82,4.31,4.31,0,0,1,.28,1.85l0,2.4a8.86,8.86,0,0,0,.1,1.51,4.51,4.51,0,0,0,.37,1h-2a5.89,5.89,0,0,1-.2-.6c0-.13-.06-.21-.07-.25a3.67,3.67,0,0,1-1.13.77,3.25,3.25,0,0,1-1.28.26,2.69,2.69,0,0,1-1.9-.65,2.19,2.19,0,0,1-.69-1.65,2.24,2.24,0,0,1,.32-1.18,2.11,2.11,0,0,1,.88-.79,7.16,7.16,0,0,1,1.64-.48,12.17,12.17,0,0,0,2-.5v-.21a1,1,0,0,0-.3-.84,1.71,1.71,0,0,0-1.1-.26,1.49,1.49,0,0,0-.86.22A1.53,1.53,0,0,0,551.44,326.1Zm2.76,1.67a12.81,12.81,0,0,1-1.26.31,4.35,4.35,0,0,0-1.12.36.85.85,0,0,0-.4.73,1,1,0,0,0,.32.74,1.14,1.14,0,0,0,.82.32,1.73,1.73,0,0,0,1.06-.37,1.22,1.22,0,0,0,.49-.68,3.61,3.61,0,0,0,.09-1Z"/><path d="M568.89,331.5H567v-1.14a2.92,2.92,0,0,1-1.12,1,2.86,2.86,0,0,1-1.31.33,3,3,0,0,1-2.29-1.08,5.27,5.27,0,0,1,0-6,3,3,0,0,1,2.35-1,2.93,2.93,0,0,1,2.26,1.08v-3.86h2.06Zm-5.5-4.05a3.54,3.54,0,0,0,.35,1.8,1.57,1.57,0,0,0,2.6.2,2.79,2.79,0,0,0,.5-1.81,3.08,3.08,0,0,0-.49-1.93,1.53,1.53,0,0,0-1.24-.59,1.55,1.55,0,0,0-1.22.59A2.64,2.64,0,0,0,563.39,327.45Z"/><path d="M575.09,329l2,.34a3.34,3.34,0,0,1-1.25,1.72,3.69,3.69,0,0,1-2.13.59,3.47,3.47,0,0,1-3-1.33,4.45,4.45,0,0,1-.77-2.68,4.33,4.33,0,0,1,1-3,3.38,3.38,0,0,1,2.56-1.09,3.44,3.44,0,0,1,2.74,1.15,5,5,0,0,1,1,3.51h-5.16a2.09,2.09,0,0,0,.5,1.42,1.56,1.56,0,0,0,1.19.51,1.29,1.29,0,0,0,.81-.26A1.63,1.63,0,0,0,575.09,329Zm.12-2.08a2,2,0,0,0-.47-1.36,1.41,1.41,0,0,0-1.06-.47,1.45,1.45,0,0,0-1.12.5,1.87,1.87,0,0,0-.43,1.33Z"/><path d="M584.41,331.5h-2.06v-7.77h1.91v1.1a3.44,3.44,0,0,1,.88-1,1.59,1.59,0,0,1,.89-.25,2.63,2.63,0,0,1,1.36.39l-.64,1.79a1.84,1.84,0,0,0-1-.33,1.18,1.18,0,0,0-.73.23,1.62,1.62,0,0,0-.47.86,12,12,0,0,0-.17,2.61Z"/><path d="M592.45,329l2,.34a3.4,3.4,0,0,1-1.25,1.72,3.7,3.7,0,0,1-2.14.59,3.47,3.47,0,0,1-3-1.33,4.45,4.45,0,0,1-.77-2.68,4.33,4.33,0,0,1,1-3,3.38,3.38,0,0,1,2.56-1.09,3.44,3.44,0,0,1,2.74,1.15,5,5,0,0,1,1,3.51h-5.16a2,2,0,0,0,.5,1.42,1.55,1.55,0,0,0,1.18.51,1.3,1.3,0,0,0,.82-.26A1.7,1.7,0,0,0,592.45,329Zm.11-2.08a2,2,0,0,0-.46-1.36,1.47,1.47,0,0,0-2.18,0,1.87,1.87,0,0,0-.43,1.33Z"/><path d="M602.74,326l-2,.36a1.48,1.48,0,0,0-.47-.91,1.37,1.37,0,0,0-.94-.31,1.53,1.53,0,0,0-1.22.53,2.7,2.7,0,0,0-.46,1.78,3.14,3.14,0,0,0,.46,1.95,1.53,1.53,0,0,0,1.25.57,1.4,1.4,0,0,0,1-.33,2,2,0,0,0,.53-1.15l2,.35a3.54,3.54,0,0,1-1.21,2.1,3.74,3.74,0,0,1-2.39.71,3.58,3.58,0,0,1-2.73-1.08,4.91,4.91,0,0,1,0-6,3.64,3.64,0,0,1,2.75-1.07,3.74,3.74,0,0,1,2.26.61A3.43,3.43,0,0,1,602.74,326Z"/><path d="M603.49,327.51a4.18,4.18,0,0,1,.51-2,3.36,3.36,0,0,1,1.43-1.46,4.21,4.21,0,0,1,2.07-.51,3.86,3.86,0,0,1,2.89,1.15,4,4,0,0,1,1.13,2.89,4,4,0,0,1-1.14,2.93,3.87,3.87,0,0,1-2.87,1.16,4.56,4.56,0,0,1-2-.48,3.31,3.31,0,0,1-1.47-1.42A4.67,4.67,0,0,1,603.49,327.51Zm2.11.11a2.55,2.55,0,0,0,.55,1.77,1.73,1.73,0,0,0,1.35.61,1.75,1.75,0,0,0,1.36-.61,2.64,2.64,0,0,0,.54-1.79,2.59,2.59,0,0,0-.54-1.76,1.75,1.75,0,0,0-1.36-.61,1.73,1.73,0,0,0-1.35.61A2.56,2.56,0,0,0,605.6,327.62Z"/><path d="M612.74,323.73h1.92v1.14a2.88,2.88,0,0,1,1-.95,2.75,2.75,0,0,1,1.41-.37,3,3,0,0,1,2.3,1.06,4.31,4.31,0,0,1,1,3,4.45,4.45,0,0,1-1,3,3,3,0,0,1-2.31,1.08,2.64,2.64,0,0,1-1.17-.26,3.75,3.75,0,0,1-1.1-.88v3.92h-2.06Zm2,3.75a3,3,0,0,0,.52,1.94,1.58,1.58,0,0,0,1.26.63,1.49,1.49,0,0,0,1.2-.58,2.93,2.93,0,0,0,.47-1.88,2.79,2.79,0,0,0-.49-1.82,1.49,1.49,0,0,0-1.21-.59,1.55,1.55,0,0,0-1.25.58A2.54,2.54,0,0,0,614.78,327.48Z"/><path d="M621.63,322.67v-1.9h2.06v1.9Zm0,8.83v-7.77h2.06v7.77Z"/><path d="M625.47,331.5V320.77h2.06V331.5Z"/><path d="M630.85,326.1l-1.87-.34a2.92,2.92,0,0,1,1.08-1.67,4,4,0,0,1,2.29-.54,4.89,4.89,0,0,1,2,.33,2.05,2.05,0,0,1,1,.82,4.35,4.35,0,0,1,.27,1.85l0,2.4a7.92,7.92,0,0,0,.1,1.51,4.08,4.08,0,0,0,.37,1h-2c0-.13-.12-.34-.2-.6a1.44,1.44,0,0,0-.07-.25,3.55,3.55,0,0,1-1.13.77,3.25,3.25,0,0,1-1.28.26,2.66,2.66,0,0,1-1.89-.65,2.19,2.19,0,0,1-.69-1.65,2.24,2.24,0,0,1,.31-1.18,2.11,2.11,0,0,1,.88-.79,7.32,7.32,0,0,1,1.64-.48,11.9,11.9,0,0,0,2-.5v-.21a1.08,1.08,0,0,0-.29-.84,1.77,1.77,0,0,0-1.11-.26,1.23,1.23,0,0,0-1.35,1Zm2.75,1.67a11.77,11.77,0,0,1-1.25.31,4.21,4.21,0,0,0-1.12.36.86.86,0,0,0-.41.73,1,1,0,0,0,.33.74,1.11,1.11,0,0,0,.82.32,1.75,1.75,0,0,0,1.06-.37,1.26,1.26,0,0,0,.49-.68,4.22,4.22,0,0,0,.08-1Z"/><path d="M644.1,326l-2,.36a1.47,1.47,0,0,0-.46-.91,1.38,1.38,0,0,0-.94-.31,1.54,1.54,0,0,0-1.23.53,2.7,2.7,0,0,0-.46,1.78,3.13,3.13,0,0,0,.47,1.95,1.52,1.52,0,0,0,1.25.57,1.36,1.36,0,0,0,.95-.33,2,2,0,0,0,.53-1.15l2,.35A3.58,3.58,0,0,1,643,331a3.79,3.79,0,0,1-2.4.71,3.56,3.56,0,0,1-2.72-1.08,4.14,4.14,0,0,1-1-3,4.19,4.19,0,0,1,1-3,3.65,3.65,0,0,1,2.76-1.07,3.76,3.76,0,0,1,2.26.61A3.36,3.36,0,0,1,644.1,326Z"/><path d="M645.33,322.67v-1.9h2.06v1.9Zm0,8.83v-7.77h2.06v7.77Z"/><path d="M648.69,327.51a4.18,4.18,0,0,1,.51-2,3.42,3.42,0,0,1,1.43-1.46,4.23,4.23,0,0,1,2.07-.51,3.86,3.86,0,0,1,2.89,1.15,4,4,0,0,1,1.13,2.89,4,4,0,0,1-1.14,2.93,3.86,3.86,0,0,1-2.87,1.16,4.56,4.56,0,0,1-2-.48,3.42,3.42,0,0,1-1.47-1.42A4.67,4.67,0,0,1,648.69,327.51Zm2.11.11a2.55,2.55,0,0,0,.55,1.77,1.81,1.81,0,0,0,2.71,0,2.64,2.64,0,0,0,.54-1.79,2.59,2.59,0,0,0-.54-1.76,1.81,1.81,0,0,0-2.71,0A2.56,2.56,0,0,0,650.8,327.62Zm.87-4.85,1-2.19H655l-2,2.19Z"/><path d="M665.08,331.5H663v-4a6.56,6.56,0,0,0-.13-1.63,1.18,1.18,0,0,0-.43-.57,1.22,1.22,0,0,0-.72-.21,1.65,1.65,0,0,0-1,.3,1.49,1.49,0,0,0-.58.77A7,7,0,0,0,660,328v3.52h-2v-7.77h1.91v1.14a3.11,3.11,0,0,1,2.56-1.32,3,3,0,0,1,1.25.25,2.09,2.09,0,0,1,.85.62,2.24,2.24,0,0,1,.4.87,6,6,0,0,1,.12,1.38Z"/><path d="M492.1,352.66h-1.42a14.55,14.55,0,0,1-1.7-3.51,11.3,11.3,0,0,1-.59-3.53,10.94,10.94,0,0,1,.73-4,14.3,14.3,0,0,1,1.59-3h1.41a22,22,0,0,0-1.38,3.78,14.23,14.23,0,0,0-.16,5.76,15.76,15.76,0,0,0,.62,2.39C491.37,351,491.67,351.73,492.1,352.66Z"/><path d="M496.91,341.73v1.64h-1.4v3.13a7.23,7.23,0,0,0,0,1.11.48.48,0,0,0,.18.26.58.58,0,0,0,.35.1,2.66,2.66,0,0,0,.83-.19l.17,1.59a4,4,0,0,1-1.62.31,2.53,2.53,0,0,1-1-.19,1.44,1.44,0,0,1-.65-.48,1.88,1.88,0,0,1-.29-.8,9,9,0,0,1-.07-1.45v-3.39h-.94v-1.64h.94v-1.55l2.07-1.2v2.75Z"/><path d="M500,349.5h-2.06v-7.77h1.92v1.1a3.31,3.31,0,0,1,.88-1,1.59,1.59,0,0,1,.89-.25,2.57,2.57,0,0,1,1.35.39l-.63,1.79a1.84,1.84,0,0,0-1-.33,1.18,1.18,0,0,0-.73.23,1.62,1.62,0,0,0-.47.86,11.78,11.78,0,0,0-.18,2.61Z"/><path d="M505.06,344.1l-1.87-.34a2.88,2.88,0,0,1,1.09-1.67,4,4,0,0,1,2.28-.54,4.86,4.86,0,0,1,2.05.33,2,2,0,0,1,.95.82,4.35,4.35,0,0,1,.27,1.85l0,2.4a8.86,8.86,0,0,0,.1,1.51,4.51,4.51,0,0,0,.37,1h-2a4.13,4.13,0,0,1-.2-.6,2.55,2.55,0,0,0-.08-.25,3.51,3.51,0,0,1-1.12.77,3.27,3.27,0,0,1-1.29.26,2.66,2.66,0,0,1-1.89-.65,2.19,2.19,0,0,1-.69-1.65,2.24,2.24,0,0,1,.31-1.18,2.14,2.14,0,0,1,.89-.79,7,7,0,0,1,1.63-.48,11.63,11.63,0,0,0,2-.5v-.21a1.08,1.08,0,0,0-.29-.84,1.75,1.75,0,0,0-1.11-.26,1.48,1.48,0,0,0-.85.22A1.53,1.53,0,0,0,505.06,344.1Zm2.75,1.67a11.77,11.77,0,0,1-1.25.31,4.35,4.35,0,0,0-1.12.36.85.85,0,0,0-.4.73,1,1,0,0,0,.32.74,1.12,1.12,0,0,0,.82.32,1.73,1.73,0,0,0,1.06-.37,1.26,1.26,0,0,0,.49-.68,3.73,3.73,0,0,0,.08-1Z"/><path d="M518.61,349.5h-2.06v-4a6.09,6.09,0,0,0-.13-1.63,1.18,1.18,0,0,0-.43-.57,1.21,1.21,0,0,0-.71-.21,1.61,1.61,0,0,0-1,.3,1.45,1.45,0,0,0-.59.77,7.1,7.1,0,0,0-.15,1.79v3.52h-2.06v-7.77h1.91v1.14a3.11,3.11,0,0,1,2.56-1.32,3,3,0,0,1,1.25.25,2.09,2.09,0,0,1,.85.62,2.24,2.24,0,0,1,.4.87,6,6,0,0,1,.12,1.38Z"/><path d="M519.64,347.29l2.07-.32a1.47,1.47,0,0,0,.53.91,1.79,1.79,0,0,0,1.13.31,2,2,0,0,0,1.2-.29.66.66,0,0,0,.27-.55.54.54,0,0,0-.15-.39,1.68,1.68,0,0,0-.68-.27,11,11,0,0,1-3.16-1,2,2,0,0,1-.92-1.75,2.15,2.15,0,0,1,.79-1.7,3.75,3.75,0,0,1,2.48-.69,4.27,4.27,0,0,1,2.37.52,2.64,2.64,0,0,1,1.07,1.54l-1.94.36a1.18,1.18,0,0,0-.47-.7,1.72,1.72,0,0,0-1-.24,2.29,2.29,0,0,0-1.17.23.48.48,0,0,0-.23.41.47.47,0,0,0,.2.38,8.2,8.2,0,0,0,1.93.58,5.74,5.74,0,0,1,2.29.91,1.92,1.92,0,0,1,.65,1.53,2.33,2.33,0,0,1-.9,1.84,3.94,3.94,0,0,1-2.64.77,4.35,4.35,0,0,1-2.52-.64A3,3,0,0,1,519.64,347.29Z"/><path d="M529.92,344.1l-1.87-.34a2.92,2.92,0,0,1,1.08-1.67,4,4,0,0,1,2.29-.54,4.89,4.89,0,0,1,2.05.33,2.05,2.05,0,0,1,.95.82,4.35,4.35,0,0,1,.27,1.85l0,2.4a7.92,7.92,0,0,0,.1,1.51,4.08,4.08,0,0,0,.37,1h-2c-.05-.13-.12-.34-.2-.6a1.44,1.44,0,0,0-.07-.25,3.55,3.55,0,0,1-1.13.77,3.25,3.25,0,0,1-1.28.26,2.66,2.66,0,0,1-1.89-.65,2.19,2.19,0,0,1-.69-1.65,2.24,2.24,0,0,1,.31-1.18,2.11,2.11,0,0,1,.88-.79,7.32,7.32,0,0,1,1.64-.48,11.9,11.9,0,0,0,2-.5v-.21a1.08,1.08,0,0,0-.29-.84,1.77,1.77,0,0,0-1.11-.26,1.23,1.23,0,0,0-1.35,1Zm2.75,1.67a11.77,11.77,0,0,1-1.25.31,4.21,4.21,0,0,0-1.12.36.86.86,0,0,0-.41.73,1,1,0,0,0,.33.74,1.11,1.11,0,0,0,.82.32,1.75,1.75,0,0,0,1.06-.37,1.26,1.26,0,0,0,.49-.68,4.22,4.22,0,0,0,.08-1Z"/><path d="M543.17,344l-2,.36a1.42,1.42,0,0,0-.46-.91,1.38,1.38,0,0,0-.94-.31,1.55,1.55,0,0,0-1.23.53,2.76,2.76,0,0,0-.46,1.78,3.13,3.13,0,0,0,.47,1.95,1.52,1.52,0,0,0,1.25.57,1.4,1.4,0,0,0,1-.33,2,2,0,0,0,.52-1.15l2,.35a3.58,3.58,0,0,1-1.2,2.1,3.79,3.79,0,0,1-2.4.71A3.56,3.56,0,0,1,537,348.6a4.14,4.14,0,0,1-1-3,4.24,4.24,0,0,1,1-3,3.65,3.65,0,0,1,2.76-1.07,3.74,3.74,0,0,1,2.26.61A3.36,3.36,0,0,1,543.17,344Z"/><path d="M551.19,344l-2,.36a1.48,1.48,0,0,0-.47-.91,1.37,1.37,0,0,0-.94-.31,1.57,1.57,0,0,0-1.23.53,2.76,2.76,0,0,0-.45,1.78,3.14,3.14,0,0,0,.46,1.95,1.53,1.53,0,0,0,1.25.57,1.4,1.4,0,0,0,1-.33,2,2,0,0,0,.53-1.15l2,.35a3.59,3.59,0,0,1-1.21,2.1,3.79,3.79,0,0,1-2.4.71A3.57,3.57,0,0,1,545,348.6a4.91,4.91,0,0,1,0-6,3.62,3.62,0,0,1,2.75-1.07,3.74,3.74,0,0,1,2.26.61A3.43,3.43,0,0,1,551.19,344Z"/><path d="M552.41,340.67v-1.9h2.06v1.9Zm0,8.83v-7.77h2.06v7.77Z"/><path d="M555.78,345.51a4.29,4.29,0,0,1,.5-2,3.47,3.47,0,0,1,1.43-1.46,4.23,4.23,0,0,1,2.07-.51,3.89,3.89,0,0,1,2.9,1.15,4,4,0,0,1,1.12,2.89,4,4,0,0,1-1.14,2.93,3.84,3.84,0,0,1-2.86,1.16,4.5,4.5,0,0,1-2-.48,3.39,3.39,0,0,1-1.48-1.42A4.79,4.79,0,0,1,555.78,345.51Zm2.11.11a2.55,2.55,0,0,0,.55,1.77,1.8,1.8,0,0,0,2.7,0,2.64,2.64,0,0,0,.55-1.79,2.59,2.59,0,0,0-.55-1.76,1.8,1.8,0,0,0-2.7,0A2.56,2.56,0,0,0,557.89,345.62Z"/><path d="M572.16,349.5H570.1v-4a6.09,6.09,0,0,0-.13-1.63,1.18,1.18,0,0,0-.43-.57,1.19,1.19,0,0,0-.71-.21,1.61,1.61,0,0,0-1,.3,1.39,1.39,0,0,0-.58.77,6.53,6.53,0,0,0-.16,1.79v3.52h-2.06v-7.77H567v1.14a3.11,3.11,0,0,1,2.56-1.32,3,3,0,0,1,1.25.25,2,2,0,0,1,.85.62,2.25,2.25,0,0,1,.41.87,6.81,6.81,0,0,1,.11,1.38Z"/><path d="M578.42,347l2.05.34a3.34,3.34,0,0,1-1.25,1.72,3.67,3.67,0,0,1-2.13.59,3.47,3.47,0,0,1-3-1.33,4.38,4.38,0,0,1-.77-2.68,4.29,4.29,0,0,1,1-3,3.34,3.34,0,0,1,2.55-1.09,3.44,3.44,0,0,1,2.74,1.15,5,5,0,0,1,1,3.51h-5.15a2.08,2.08,0,0,0,.49,1.42,1.57,1.57,0,0,0,1.19.51,1.29,1.29,0,0,0,.81-.26A1.63,1.63,0,0,0,578.42,347Zm.12-2.08a2,2,0,0,0-.46-1.36,1.43,1.43,0,0,0-1.07-.47,1.42,1.42,0,0,0-1.11.5,1.88,1.88,0,0,0-.44,1.33Z"/><path d="M581.21,347.29l2.06-.32a1.57,1.57,0,0,0,.53.91,1.81,1.81,0,0,0,1.13.31,2,2,0,0,0,1.2-.29.67.67,0,0,0,.28-.55.54.54,0,0,0-.15-.39,1.68,1.68,0,0,0-.69-.27,11.12,11.12,0,0,1-3.16-1,2,2,0,0,1-.92-1.75,2.16,2.16,0,0,1,.8-1.7,3.72,3.72,0,0,1,2.47-.69,4.31,4.31,0,0,1,2.38.52,2.68,2.68,0,0,1,1.07,1.54l-1.94.36a1.19,1.19,0,0,0-.48-.7,1.72,1.72,0,0,0-1-.24,2.22,2.22,0,0,0-1.16.23.47.47,0,0,0-.24.41.46.46,0,0,0,.21.38,7.87,7.87,0,0,0,1.92.58,5.8,5.8,0,0,1,2.3.91,1.91,1.91,0,0,1,.64,1.53,2.35,2.35,0,0,1-.89,1.84,4,4,0,0,1-2.65.77,4.32,4.32,0,0,1-2.51-.64A3,3,0,0,1,581.21,347.29Z"/><path d="M589.37,352.66c.41-.87.69-1.53.86-2a15.91,15.91,0,0,0,.46-1.6,15.1,15.1,0,0,0,.31-1.73,13,13,0,0,0,.11-1.67,14.08,14.08,0,0,0-.38-3.3,22.68,22.68,0,0,0-1.37-3.78h1.39a13.57,13.57,0,0,1,1.72,3.34,10.83,10.83,0,0,1,.61,3.59,12.45,12.45,0,0,1-.48,3.28,13.82,13.82,0,0,1-1.81,3.87Z"/><path d="M495.57,363.56l2.1.66a4.67,4.67,0,0,1-1.61,2.61,4.58,4.58,0,0,1-2.85.86,4.64,4.64,0,0,1-3.52-1.46,5.64,5.64,0,0,1-1.37-4,5.87,5.87,0,0,1,1.38-4.16,4.75,4.75,0,0,1,3.64-1.49,4.46,4.46,0,0,1,3.2,1.17,4.2,4.2,0,0,1,1.1,2l-2.14.51a2.22,2.22,0,0,0-2.27-1.8,2.46,2.46,0,0,0-1.94.85,4.26,4.26,0,0,0-.74,2.78,4.5,4.5,0,0,0,.73,2.9,2.38,2.38,0,0,0,1.91.86,2.18,2.18,0,0,0,1.48-.54A3.2,3.2,0,0,0,495.57,363.56Z"/><path d="M498.71,363.51a4.29,4.29,0,0,1,.5-2,3.44,3.44,0,0,1,1.44-1.46,4.21,4.21,0,0,1,2.07-.51,3.86,3.86,0,0,1,2.89,1.15,4,4,0,0,1,1.13,2.89,4,4,0,0,1-1.14,2.93,3.87,3.87,0,0,1-2.87,1.16,4.56,4.56,0,0,1-2-.48,3.39,3.39,0,0,1-1.48-1.42A4.79,4.79,0,0,1,498.71,363.51Zm2.11.11a2.55,2.55,0,0,0,.55,1.77,1.73,1.73,0,0,0,1.35.61,1.75,1.75,0,0,0,1.36-.61,2.64,2.64,0,0,0,.54-1.79,2.59,2.59,0,0,0-.54-1.76,1.75,1.75,0,0,0-1.36-.61,1.73,1.73,0,0,0-1.35.61A2.56,2.56,0,0,0,500.82,363.62Z"/><path d="M515.09,367.5H513v-4a6,6,0,0,0-.14-1.63,1.12,1.12,0,0,0-.43-.57,1.17,1.17,0,0,0-.71-.21,1.61,1.61,0,0,0-1,.3,1.44,1.44,0,0,0-.58.77,6.53,6.53,0,0,0-.16,1.79v3.52H508v-7.77h1.91v1.14a3.13,3.13,0,0,1,2.57-1.32,3,3,0,0,1,1.24.25,2.13,2.13,0,0,1,.86.62,2.39,2.39,0,0,1,.4.87,6.15,6.15,0,0,1,.11,1.38Z"/><path d="M524,367.5h-1.92v-1.14a2.92,2.92,0,0,1-1.12,1,2.86,2.86,0,0,1-1.31.33,3,3,0,0,1-2.29-1.08,5.27,5.27,0,0,1,0-6,3,3,0,0,1,2.35-1,2.93,2.93,0,0,1,2.26,1.08v-3.86H524Zm-5.5-4.05a3.54,3.54,0,0,0,.35,1.8,1.57,1.57,0,0,0,2.6.2,2.79,2.79,0,0,0,.49-1.81,3.09,3.09,0,0,0-.48-1.93,1.58,1.58,0,0,0-2.46,0A2.64,2.64,0,0,0,518.49,363.45Z"/><path d="M525.68,358.67v-1.9h2.06v1.9Zm0,8.83v-7.77h2.06v7.77Z"/><path d="M536.3,362l-2,.36a1.42,1.42,0,0,0-.46-.91,1.38,1.38,0,0,0-.94-.31,1.57,1.57,0,0,0-1.23.53,2.76,2.76,0,0,0-.46,1.78,3.13,3.13,0,0,0,.47,1.95,1.52,1.52,0,0,0,1.25.57,1.4,1.4,0,0,0,1-.33,2,2,0,0,0,.52-1.15l2,.35a3.59,3.59,0,0,1-1.21,2.1,3.79,3.79,0,0,1-2.4.71,3.56,3.56,0,0,1-2.72-1.08,4.18,4.18,0,0,1-1-3,4.24,4.24,0,0,1,1-3,3.65,3.65,0,0,1,2.76-1.07,3.74,3.74,0,0,1,2.26.61A3.36,3.36,0,0,1,536.3,362Z"/><path d="M537.53,358.67v-1.9h2.06v1.9Zm0,8.83v-7.77h2.06v7.77Z"/><path d="M540.89,363.51a4.18,4.18,0,0,1,.51-2,3.42,3.42,0,0,1,1.43-1.46,4.23,4.23,0,0,1,2.07-.51,3.85,3.85,0,0,1,2.89,1.15,3.92,3.92,0,0,1,1.13,2.89,4,4,0,0,1-1.14,2.93,3.86,3.86,0,0,1-2.87,1.16,4.49,4.49,0,0,1-2-.48,3.39,3.39,0,0,1-1.48-1.42A4.67,4.67,0,0,1,540.89,363.51Zm2.11.11a2.6,2.6,0,0,0,.55,1.77,1.75,1.75,0,0,0,1.36.61,1.72,1.72,0,0,0,1.35-.61,2.64,2.64,0,0,0,.55-1.79,2.59,2.59,0,0,0-.55-1.76,1.72,1.72,0,0,0-1.35-.61,1.75,1.75,0,0,0-1.36.61A2.61,2.61,0,0,0,543,363.62Z"/><path d="M557.28,367.5h-2.06v-4a6.09,6.09,0,0,0-.13-1.63,1.18,1.18,0,0,0-.43-.57,1.21,1.21,0,0,0-.71-.21,1.61,1.61,0,0,0-1,.3,1.45,1.45,0,0,0-.59.77,7.1,7.1,0,0,0-.15,1.79v3.52h-2.06v-7.77h1.91v1.14a3.11,3.11,0,0,1,2.56-1.32,3,3,0,0,1,1.25.25,2,2,0,0,1,.85.62,2.1,2.1,0,0,1,.4.87,6,6,0,0,1,.12,1.38Z"/><path d="M563.54,365l2.05.34a3.34,3.34,0,0,1-1.25,1.72,3.69,3.69,0,0,1-2.13.59,3.47,3.47,0,0,1-3-1.33,4.45,4.45,0,0,1-.76-2.68,4.29,4.29,0,0,1,1-3,3.34,3.34,0,0,1,2.55-1.09,3.44,3.44,0,0,1,2.74,1.15,5,5,0,0,1,1,3.51h-5.16a2.09,2.09,0,0,0,.5,1.42,1.56,1.56,0,0,0,1.19.51,1.29,1.29,0,0,0,.81-.26A1.63,1.63,0,0,0,563.54,365Zm.12-2.08a2,2,0,0,0-.46-1.36,1.43,1.43,0,0,0-1.07-.47,1.45,1.45,0,0,0-1.12.5,1.92,1.92,0,0,0-.43,1.33Z"/><path d="M566.32,365.29l2.07-.32a1.52,1.52,0,0,0,.53.91,1.81,1.81,0,0,0,1.13.31,2,2,0,0,0,1.2-.29.66.66,0,0,0,.27-.55.58.58,0,0,0-.14-.39,1.82,1.82,0,0,0-.69-.27,11.12,11.12,0,0,1-3.16-1,2,2,0,0,1-.92-1.75,2.13,2.13,0,0,1,.8-1.7,3.7,3.7,0,0,1,2.47-.69,4.31,4.31,0,0,1,2.38.52,2.73,2.73,0,0,1,1.07,1.54l-2,.36a1.18,1.18,0,0,0-.47-.7,1.72,1.72,0,0,0-1-.24,2.29,2.29,0,0,0-1.17.23.48.48,0,0,0-.23.41.46.46,0,0,0,.21.38,7.87,7.87,0,0,0,1.92.58,5.74,5.74,0,0,1,2.29.91,1.92,1.92,0,0,1,.65,1.53,2.35,2.35,0,0,1-.89,1.84,4,4,0,0,1-2.65.77,4.3,4.3,0,0,1-2.51-.64A3,3,0,0,1,566.32,365.29Z"/><path d="M586,367.5h-1.91v-1.14a3,3,0,0,1-1.12,1,2.89,2.89,0,0,1-1.31.33,3,3,0,0,1-2.3-1.08,5.29,5.29,0,0,1,0-6,3,3,0,0,1,2.35-1,2.9,2.9,0,0,1,2.25,1.08v-3.86H586Zm-5.49-4.05a3.55,3.55,0,0,0,.34,1.8,1.55,1.55,0,0,0,1.39.8,1.51,1.51,0,0,0,1.21-.6,2.79,2.79,0,0,0,.5-1.81,3.09,3.09,0,0,0-.48-1.93,1.59,1.59,0,0,0-2.47,0A2.64,2.64,0,0,0,580.54,363.45Z"/><path d="M592.24,365l2,.34a3.4,3.4,0,0,1-1.25,1.72,3.7,3.7,0,0,1-2.14.59,3.47,3.47,0,0,1-3-1.33,4.45,4.45,0,0,1-.77-2.68,4.33,4.33,0,0,1,1-3,3.36,3.36,0,0,1,2.56-1.09,3.45,3.45,0,0,1,2.74,1.15,5,5,0,0,1,1,3.51h-5.16a2,2,0,0,0,.5,1.42,1.54,1.54,0,0,0,1.18.51,1.3,1.3,0,0,0,.82-.26A1.7,1.7,0,0,0,592.24,365Zm.11-2.08a2,2,0,0,0-.46-1.36,1.47,1.47,0,0,0-2.18,0,1.87,1.87,0,0,0-.43,1.33Z"/><path d="M608.72,367.5h-2.36l-.93-2.43h-4.3l-.88,2.43H598l4.18-10.73h2.29Zm-4-4.24-1.48-4-1.45,4Z"/><path d="M609.53,367.5V356.77h2.05V367.5Z"/><path d="M613.21,359.73h1.9v1.06a3,3,0,0,1,2.42-1.24,2.58,2.58,0,0,1,1.3.31,2.37,2.37,0,0,1,.9.93,3.48,3.48,0,0,1,1.1-.93,2.68,2.68,0,0,1,1.27-.31,2.83,2.83,0,0,1,1.45.35,2.12,2.12,0,0,1,.89,1,4.47,4.47,0,0,1,.21,1.61v5h-2.06v-4.44a3.39,3.39,0,0,0-.21-1.5,1,1,0,0,0-.88-.44,1.36,1.36,0,0,0-.81.27,1.39,1.39,0,0,0-.55.77,5.66,5.66,0,0,0-.17,1.61v3.73h-2.06v-4.26a6,6,0,0,0-.11-1.46.86.86,0,0,0-.34-.49,1,1,0,0,0-.62-.17,1.5,1.5,0,0,0-.86.26,1.39,1.39,0,0,0-.55.74,5.52,5.52,0,0,0-.16,1.6v3.78h-2.06Z"/><path d="M627.91,362.1l-1.87-.34a2.92,2.92,0,0,1,1.08-1.67,4,4,0,0,1,2.29-.54,4.86,4.86,0,0,1,2.05.33,2,2,0,0,1,.95.82,4.35,4.35,0,0,1,.27,1.85l0,2.4a8.86,8.86,0,0,0,.1,1.51,4.51,4.51,0,0,0,.37,1h-2c-.05-.13-.12-.34-.19-.6a2.55,2.55,0,0,0-.08-.25,3.51,3.51,0,0,1-1.12.77,3.3,3.3,0,0,1-1.29.26,2.66,2.66,0,0,1-1.89-.65,2.19,2.19,0,0,1-.69-1.65,2.24,2.24,0,0,1,.31-1.18,2.14,2.14,0,0,1,.89-.79,7,7,0,0,1,1.63-.48,11.9,11.9,0,0,0,2-.5v-.21a1.08,1.08,0,0,0-.29-.84,1.75,1.75,0,0,0-1.11-.26,1.48,1.48,0,0,0-.85.22A1.53,1.53,0,0,0,627.91,362.1Zm2.75,1.67a11.77,11.77,0,0,1-1.25.31,4.35,4.35,0,0,0-1.12.36.85.85,0,0,0-.4.73,1,1,0,0,0,.32.74,1.12,1.12,0,0,0,.82.32,1.75,1.75,0,0,0,1.06-.37,1.26,1.26,0,0,0,.49-.68,3.73,3.73,0,0,0,.08-1Z"/><path d="M641.17,362l-2,.36a1.48,1.48,0,0,0-.47-.91,1.37,1.37,0,0,0-.94-.31,1.57,1.57,0,0,0-1.23.53,2.76,2.76,0,0,0-.45,1.78,3.14,3.14,0,0,0,.46,1.95,1.53,1.53,0,0,0,1.25.57,1.4,1.4,0,0,0,1-.33,2,2,0,0,0,.53-1.15l2,.35a3.54,3.54,0,0,1-1.21,2.1,3.79,3.79,0,0,1-2.4.71,3.57,3.57,0,0,1-2.72-1.08,4.91,4.91,0,0,1,0-6,3.62,3.62,0,0,1,2.75-1.07,3.74,3.74,0,0,1,2.26.61A3.43,3.43,0,0,1,641.17,362Z"/><path d="M646.9,365l2.05.34a3.34,3.34,0,0,1-1.25,1.72,3.69,3.69,0,0,1-2.13.59,3.47,3.47,0,0,1-3-1.33,4.45,4.45,0,0,1-.76-2.68,4.29,4.29,0,0,1,1-3,3.34,3.34,0,0,1,2.55-1.09,3.44,3.44,0,0,1,2.74,1.15,5,5,0,0,1,1,3.51h-5.15a2,2,0,0,0,.49,1.42,1.57,1.57,0,0,0,1.19.51,1.29,1.29,0,0,0,.81-.26A1.63,1.63,0,0,0,646.9,365ZM647,363a2,2,0,0,0-.46-1.36,1.43,1.43,0,0,0-1.07-.47,1.45,1.45,0,0,0-1.12.5,1.92,1.92,0,0,0-.43,1.33Z"/><path d="M657.48,367.5h-2.06v-4a6.09,6.09,0,0,0-.13-1.63,1.12,1.12,0,0,0-.43-.57,1.17,1.17,0,0,0-.71-.21,1.61,1.61,0,0,0-1,.3,1.44,1.44,0,0,0-.58.77,6.53,6.53,0,0,0-.16,1.79v3.52h-2.06v-7.77h1.91v1.14a3.13,3.13,0,0,1,2.57-1.32,3,3,0,0,1,1.24.25,2.13,2.13,0,0,1,.86.62,2.39,2.39,0,0,1,.4.87,6.15,6.15,0,0,1,.11,1.38Z"/><path d="M660.78,362.1l-1.87-.34a2.88,2.88,0,0,1,1.09-1.67,4,4,0,0,1,2.28-.54,4.86,4.86,0,0,1,2.05.33,2,2,0,0,1,.95.82,4.35,4.35,0,0,1,.27,1.85l0,2.4a8.86,8.86,0,0,0,.1,1.51,4.51,4.51,0,0,0,.37,1h-2c-.05-.13-.12-.34-.19-.6a2.55,2.55,0,0,0-.08-.25,3.51,3.51,0,0,1-1.12.77,3.3,3.3,0,0,1-1.29.26,2.66,2.66,0,0,1-1.89-.65,2.19,2.19,0,0,1-.69-1.65,2.24,2.24,0,0,1,.31-1.18,2.14,2.14,0,0,1,.89-.79,7,7,0,0,1,1.63-.48,11.63,11.63,0,0,0,2-.5v-.21a1.08,1.08,0,0,0-.29-.84,1.75,1.75,0,0,0-1.11-.26,1.48,1.48,0,0,0-.85.22A1.53,1.53,0,0,0,660.78,362.1Zm2.75,1.67a11.77,11.77,0,0,1-1.25.31,4.35,4.35,0,0,0-1.12.36.85.85,0,0,0-.4.73,1,1,0,0,0,.32.74,1.12,1.12,0,0,0,.82.32,1.75,1.75,0,0,0,1.06-.37,1.26,1.26,0,0,0,.49-.68,3.73,3.73,0,0,0,.08-1Z"/><path d="M667.1,359.73H669v1.06a3,3,0,0,1,2.42-1.24,2.58,2.58,0,0,1,1.3.31,2.37,2.37,0,0,1,.9.93,3.48,3.48,0,0,1,1.1-.93,2.68,2.68,0,0,1,1.27-.31,2.86,2.86,0,0,1,1.45.35,2.12,2.12,0,0,1,.89,1,4.47,4.47,0,0,1,.21,1.61v5h-2.06v-4.44a3.39,3.39,0,0,0-.21-1.5,1,1,0,0,0-.88-.44,1.36,1.36,0,0,0-.81.27,1.39,1.39,0,0,0-.55.77,5.32,5.32,0,0,0-.17,1.61v3.73H671.8v-4.26a6,6,0,0,0-.11-1.46.91.91,0,0,0-.34-.49,1,1,0,0,0-.63-.17,1.5,1.5,0,0,0-.85.26,1.39,1.39,0,0,0-.55.74,5.52,5.52,0,0,0-.16,1.6v3.78H667.1Z"/><path d="M680.26,358.67v-1.9h2.06v1.9Zm0,8.83v-7.77h2.06v7.77Z"/><path d="M688.6,365l2,.34a3.34,3.34,0,0,1-1.25,1.72,3.67,3.67,0,0,1-2.13.59,3.47,3.47,0,0,1-3-1.33,4.38,4.38,0,0,1-.77-2.68,4.29,4.29,0,0,1,1-3,3.34,3.34,0,0,1,2.55-1.09,3.44,3.44,0,0,1,2.74,1.15,5,5,0,0,1,1,3.51h-5.15a2,2,0,0,0,.5,1.42,1.54,1.54,0,0,0,1.18.51,1.29,1.29,0,0,0,.81-.26A1.63,1.63,0,0,0,688.6,365Zm.12-2.08a2,2,0,0,0-.46-1.36,1.43,1.43,0,0,0-1.07-.47,1.42,1.42,0,0,0-1.11.5,1.88,1.88,0,0,0-.44,1.33Z"/><path d="M699.19,367.5h-2.06v-4a6.56,6.56,0,0,0-.13-1.63,1.24,1.24,0,0,0-.43-.57,1.22,1.22,0,0,0-.72-.21,1.65,1.65,0,0,0-1,.3,1.49,1.49,0,0,0-.58.77,7,7,0,0,0-.16,1.79v3.52h-2v-7.77H694v1.14a3.11,3.11,0,0,1,2.56-1.32,3,3,0,0,1,1.25.25,2.09,2.09,0,0,1,.85.62,2.24,2.24,0,0,1,.4.87,6,6,0,0,1,.12,1.38Z"/><path d="M704.51,359.73v1.64H703.1v3.13a9.06,9.06,0,0,0,0,1.11.45.45,0,0,0,.19.26.55.55,0,0,0,.34.1,2.6,2.6,0,0,0,.83-.19l.18,1.59a4,4,0,0,1-1.63.31,2.48,2.48,0,0,1-1-.19,1.42,1.42,0,0,1-.66-.48,2,2,0,0,1-.29-.8,10.93,10.93,0,0,1-.06-1.45v-3.39h-.95v-1.64H701v-1.55l2.06-1.2v2.75Z"/><path d="M705.13,363.51a4.18,4.18,0,0,1,.51-2,3.36,3.36,0,0,1,1.43-1.46,4.23,4.23,0,0,1,2.07-.51A3.86,3.86,0,0,1,712,360.7a4,4,0,0,1,1.13,2.89,4,4,0,0,1-1.14,2.93,3.87,3.87,0,0,1-2.87,1.16,4.56,4.56,0,0,1-2-.48,3.36,3.36,0,0,1-1.47-1.42A4.67,4.67,0,0,1,705.13,363.51Zm2.11.11a2.55,2.55,0,0,0,.55,1.77,1.81,1.81,0,0,0,2.71,0,2.64,2.64,0,0,0,.54-1.79,2.59,2.59,0,0,0-.54-1.76,1.81,1.81,0,0,0-2.71,0A2.56,2.56,0,0,0,707.24,363.62Z"/><circle cx="479.78" cy="29.39" r="3.12"/><circle cx="479.78" cy="46.84" r="3.12"/><circle cx="479.78" cy="65.53" r="3.12"/><circle cx="479.78" cy="82.46" r="3.12"/><circle cx="512.23" cy="171.66" r="3.12"/><circle cx="512.23" cy="189.1" r="3.12"/><circle cx="512.23" cy="224.73" r="3.12"/><circle cx="479.33" cy="290.96" r="3.12"/><circle cx="479.33" cy="307.59" r="3.12"/><circle cx="479.33" cy="326.23" r="3.12"/><circle cx="479.33" cy="362.28" r="3.12"/><path d="M419.94,197l2.75.87a6.14,6.14,0,0,1-2.1,3.41,6,6,0,0,1-3.73,1.12,6.06,6.06,0,0,1-4.6-1.91,7.34,7.34,0,0,1-1.8-5.23,7.7,7.7,0,0,1,1.81-5.44,6.23,6.23,0,0,1,4.76-1.94,5.84,5.84,0,0,1,4.18,1.52,5.57,5.57,0,0,1,1.44,2.59l-2.8.67a2.9,2.9,0,0,0-3-2.35,3.2,3.2,0,0,0-2.54,1.12,5.5,5.5,0,0,0-1,3.62,5.91,5.91,0,0,0,1,3.8,3.12,3.12,0,0,0,2.49,1.13,2.83,2.83,0,0,0,1.94-.72A4.08,4.08,0,0,0,419.94,197Z" style="fill:#fff"/><path d="M426.68,195.06l-2.44-.44a3.78,3.78,0,0,1,1.42-2.18,5.18,5.18,0,0,1,3-.71,6.39,6.39,0,0,1,2.69.43,2.67,2.67,0,0,1,1.24,1.08,5.75,5.75,0,0,1,.35,2.41l0,3.14a11.62,11.62,0,0,0,.12,2,5.84,5.84,0,0,0,.49,1.37h-2.66c-.07-.18-.16-.45-.26-.8,0-.16-.08-.26-.1-.31a4.92,4.92,0,0,1-1.47,1,4.14,4.14,0,0,1-1.68.34,3.49,3.49,0,0,1-2.47-.85,2.83,2.83,0,0,1-.91-2.16,3,3,0,0,1,.41-1.54,2.77,2.77,0,0,1,1.16-1,9,9,0,0,1,2.14-.63,13.46,13.46,0,0,0,2.61-.66v-.27a1.41,1.41,0,0,0-.38-1.1,2.32,2.32,0,0,0-1.45-.33,1.91,1.91,0,0,0-1.12.28A2,2,0,0,0,426.68,195.06Zm3.6,2.19c-.34.11-.89.25-1.64.41a4.77,4.77,0,0,0-1.46.47,1.11,1.11,0,0,0-.53.94,1.32,1.32,0,0,0,.42,1,1.47,1.47,0,0,0,1.08.41,2.36,2.36,0,0,0,1.39-.48,1.75,1.75,0,0,0,.64-.89,5.36,5.36,0,0,0,.1-1.31Z" style="fill:#fff"/><path d="M435.14,202.13v-14h2.69v14Z" style="fill:#fff"/><path d="M440.16,190.58v-2.49h2.69v2.49Zm0,11.55V192h2.69v10.17Z" style="fill:#fff"/><path d="M454.5,202.13H452v-1.5a3.9,3.9,0,0,1-1.46,1.3,3.73,3.73,0,0,1-1.71.43,3.9,3.9,0,0,1-3-1.41,5.78,5.78,0,0,1-1.24-3.94,5.66,5.66,0,0,1,1.21-3.93,4,4,0,0,1,3.07-1.35,3.79,3.79,0,0,1,2.95,1.42v-5.06h2.69Zm-7.18-5.31a4.68,4.68,0,0,0,.45,2.36,2,2,0,0,0,1.82,1,2,2,0,0,0,1.58-.79,3.59,3.59,0,0,0,.65-2.36,4,4,0,0,0-.63-2.52,2.08,2.08,0,0,0-3.22,0A3.45,3.45,0,0,0,447.32,196.82Z" style="fill:#fff"/><path d="M458.73,195.06l-2.44-.44a3.83,3.83,0,0,1,1.42-2.18,5.22,5.22,0,0,1,3-.71,6.34,6.34,0,0,1,2.68.43,2.67,2.67,0,0,1,1.24,1.08,5.55,5.55,0,0,1,.36,2.41l0,3.14a10.45,10.45,0,0,0,.13,2,5.78,5.78,0,0,0,.48,1.37H462.9c-.07-.18-.16-.45-.26-.8a2.25,2.25,0,0,0-.1-.31,4.8,4.8,0,0,1-1.47,1,4.09,4.09,0,0,1-1.67.34,3.5,3.5,0,0,1-2.48-.85,3.06,3.06,0,0,1-.49-3.7,2.74,2.74,0,0,1,1.15-1,9.14,9.14,0,0,1,2.14-.63,13.46,13.46,0,0,0,2.61-.66v-.27a1.37,1.37,0,0,0-.38-1.1,2.28,2.28,0,0,0-1.44-.33,1.89,1.89,0,0,0-1.12.28A2,2,0,0,0,458.73,195.06Zm3.6,2.19c-.34.11-.89.25-1.63.41a4.76,4.76,0,0,0-1.47.47,1.1,1.1,0,0,0-.52.94,1.32,1.32,0,0,0,.42,1,1.45,1.45,0,0,0,1.07.41,2.34,2.34,0,0,0,1.39-.48,1.69,1.69,0,0,0,.64-.89,5.36,5.36,0,0,0,.1-1.31Z" style="fill:#fff"/><path d="M476.52,202.13H474v-1.5a4,4,0,0,1-1.47,1.3,3.73,3.73,0,0,1-1.71.43,3.9,3.9,0,0,1-3-1.41A5.78,5.78,0,0,1,466.6,197a5.66,5.66,0,0,1,1.21-3.93,4,4,0,0,1,3.07-1.35,3.79,3.79,0,0,1,2.95,1.42v-5.06h2.69Zm-7.18-5.31a4.68,4.68,0,0,0,.45,2.36,2,2,0,0,0,1.82,1,2,2,0,0,0,1.58-.79,3.59,3.59,0,0,0,.65-2.36,4,4,0,0,0-.63-2.52,2.08,2.08,0,0,0-3.22,0A3.45,3.45,0,0,0,469.34,196.82Z" style="fill:#fff"/><path d="M329.18,332.28v-14h10.4v2.38H332v3.11h7.05v2.36H332v3.82h7.84v2.37Z" style="fill:#fff"/><path d="M340.86,329.38l2.7-.42a2,2,0,0,0,.69,1.2,2.41,2.41,0,0,0,1.48.4,2.64,2.64,0,0,0,1.57-.38.85.85,0,0,0,.35-.72.72.72,0,0,0-.19-.51,2.23,2.23,0,0,0-.9-.35,14.69,14.69,0,0,1-4.12-1.31,2.61,2.61,0,0,1-1.21-2.29,2.83,2.83,0,0,1,1-2.22,4.9,4.9,0,0,1,3.24-.9,5.68,5.68,0,0,1,3.1.68,3.46,3.46,0,0,1,1.4,2l-2.54.47a1.53,1.53,0,0,0-.62-.91,2.23,2.23,0,0,0-1.29-.32,2.87,2.87,0,0,0-1.52.3.63.63,0,0,0-.31.55.58.58,0,0,0,.27.48,9.68,9.68,0,0,0,2.51.76,7.6,7.6,0,0,1,3,1.2,2.48,2.48,0,0,1,.84,2,3.09,3.09,0,0,1-1.16,2.4,5.19,5.19,0,0,1-3.46,1,5.61,5.61,0,0,1-3.29-.85A3.86,3.86,0,0,1,340.86,329.38Z" style="fill:#fff"/><path d="M356.94,322.11v2.14H355.1v4.1a11.41,11.41,0,0,0,0,1.45.63.63,0,0,0,.24.34.78.78,0,0,0,.46.14,3.53,3.53,0,0,0,1.08-.26l.23,2.08a5.27,5.27,0,0,1-2.12.41,3.27,3.27,0,0,1-1.32-.25,1.84,1.84,0,0,1-.85-.63,2.4,2.4,0,0,1-.38-1.05,12.38,12.38,0,0,1-.09-1.89v-4.44h-1.23v-2.14h1.23v-2l2.7-1.57v3.59Z" style="fill:#fff"/><path d="M361,332.28h-2.69V322.11h2.5v1.45a4.41,4.41,0,0,1,1.15-1.36,2.21,2.21,0,0,1,1.17-.32,3.41,3.41,0,0,1,1.77.51l-.83,2.34a2.43,2.43,0,0,0-1.27-.44,1.55,1.55,0,0,0-1,.31,2.18,2.18,0,0,0-.61,1.13,15.87,15.87,0,0,0-.23,3.41Z" style="fill:#fff"/><path d="M372.27,332.28v-1.53a4,4,0,0,1-1.46,1.29,4.12,4.12,0,0,1-1.91.47,3.72,3.72,0,0,1-1.84-.45,2.64,2.64,0,0,1-1.18-1.27,5.68,5.68,0,0,1-.36-2.25v-6.43h2.69v4.67a12.83,12.83,0,0,0,.15,2.63,1.47,1.47,0,0,0,.54.77,1.7,1.7,0,0,0,1,.28,2.16,2.16,0,0,0,1.24-.38,1.92,1.92,0,0,0,.74-.94,10.42,10.42,0,0,0,.21-2.74v-4.29h2.69v10.17Z" style="fill:#fff"/><path d="M386,325.12l-2.65.47a2,2,0,0,0-.61-1.19,1.84,1.84,0,0,0-1.23-.4,2,2,0,0,0-1.61.69,3.61,3.61,0,0,0-.59,2.32,4.17,4.17,0,0,0,.6,2.56,2,2,0,0,0,1.64.74,1.81,1.81,0,0,0,1.25-.43,2.57,2.57,0,0,0,.69-1.5l2.64.45a4.68,4.68,0,0,1-1.58,2.75,4.88,4.88,0,0,1-3.13.93,4.66,4.66,0,0,1-3.56-1.41,6.43,6.43,0,0,1,0-7.82,4.75,4.75,0,0,1,3.6-1.4,4.91,4.91,0,0,1,3,.8A4.41,4.41,0,0,1,386,325.12Z" style="fill:#fff"/><path d="M392.26,322.11v2.14h-1.84v4.1a11.41,11.41,0,0,0,.05,1.45.63.63,0,0,0,.24.34.78.78,0,0,0,.46.14,3.53,3.53,0,0,0,1.08-.26l.23,2.08a5.36,5.36,0,0,1-2.13.41,3.26,3.26,0,0,1-1.31-.25,1.93,1.93,0,0,1-.86-.63,2.54,2.54,0,0,1-.37-1.05,12.38,12.38,0,0,1-.09-1.89v-4.44h-1.23v-2.14h1.23v-2l2.7-1.57v3.59Z" style="fill:#fff"/><path d="M400.39,332.28v-1.53a4,4,0,0,1-1.46,1.29,4.15,4.15,0,0,1-1.91.47,3.72,3.72,0,0,1-1.84-.45,2.64,2.64,0,0,1-1.18-1.27,5.68,5.68,0,0,1-.36-2.25v-6.43h2.69v4.67a12.83,12.83,0,0,0,.15,2.63,1.42,1.42,0,0,0,.54.77,1.7,1.7,0,0,0,1,.28,2.16,2.16,0,0,0,1.24-.38,1.92,1.92,0,0,0,.74-.94,10.42,10.42,0,0,0,.21-2.74v-4.29h2.69v10.17Z" style="fill:#fff"/><path d="M407.82,332.28h-2.69V322.11h2.49v1.45a4.41,4.41,0,0,1,1.16-1.36,2.17,2.17,0,0,1,1.16-.32,3.41,3.41,0,0,1,1.77.51l-.83,2.34a2.4,2.4,0,0,0-1.26-.44,1.53,1.53,0,0,0-1,.31,2.18,2.18,0,0,0-.62,1.13,16.1,16.1,0,0,0-.22,3.41Z" style="fill:#fff"/><path d="M414.45,325.21l-2.44-.44a3.78,3.78,0,0,1,1.42-2.18,5.18,5.18,0,0,1,3-.71,6.31,6.31,0,0,1,2.68.43,2.58,2.58,0,0,1,1.24,1.08,5.52,5.52,0,0,1,.36,2.41l0,3.14a11.39,11.39,0,0,0,.13,2,5.84,5.84,0,0,0,.49,1.37h-2.66c-.07-.18-.16-.45-.26-.8-.05-.16-.08-.26-.1-.31a4.92,4.92,0,0,1-1.47,1,4.14,4.14,0,0,1-1.68.34,3.45,3.45,0,0,1-2.47-.86,2.79,2.79,0,0,1-.91-2.15,3,3,0,0,1,.41-1.54,2.7,2.7,0,0,1,1.16-1,9,9,0,0,1,2.14-.63,13.46,13.46,0,0,0,2.61-.66v-.27a1.41,1.41,0,0,0-.38-1.1,2.32,2.32,0,0,0-1.45-.33,1.91,1.91,0,0,0-1.12.28A2,2,0,0,0,414.45,325.21Zm3.6,2.18a14.69,14.69,0,0,1-1.64.42,4.77,4.77,0,0,0-1.46.47,1.11,1.11,0,0,0-.53.94,1.32,1.32,0,0,0,.42,1,1.49,1.49,0,0,0,1.08.41,2.31,2.31,0,0,0,1.38-.48,1.71,1.71,0,0,0,.65-.89,5.36,5.36,0,0,0,.1-1.31Z" style="fill:#fff"/><path d="M431.78,325.12l-2.65.47a1.9,1.9,0,0,0-.61-1.19,1.84,1.84,0,0,0-1.23-.4,2,2,0,0,0-1.6.69,3.55,3.55,0,0,0-.6,2.32,4.09,4.09,0,0,0,.61,2.56,2,2,0,0,0,1.63.74,1.79,1.79,0,0,0,1.25-.43,2.57,2.57,0,0,0,.69-1.5l2.64.45a4.68,4.68,0,0,1-1.58,2.75,4.86,4.86,0,0,1-3.13.93,4.64,4.64,0,0,1-3.55-1.41,6.41,6.41,0,0,1,0-7.82,4.75,4.75,0,0,1,3.6-1.4,5,5,0,0,1,3,.8A4.4,4.4,0,0,1,431.78,325.12Z" style="fill:#fff"/><path d="M433.39,320.73v-2.49h2.69v2.49Zm0,11.55V322.11h2.69v10.17Z" style="fill:#fff"/><path d="M437.78,327.05a5.55,5.55,0,0,1,.66-2.6,4.59,4.59,0,0,1,1.87-1.91,5.57,5.57,0,0,1,2.71-.66,5.06,5.06,0,0,1,3.78,1.5,5.19,5.19,0,0,1,1.48,3.78,5.26,5.26,0,0,1-1.49,3.83,5.07,5.07,0,0,1-3.75,1.52,5.83,5.83,0,0,1-2.67-.64,4.32,4.32,0,0,1-1.93-1.85A6.15,6.15,0,0,1,437.78,327.05Zm2.76.14a3.38,3.38,0,0,0,.72,2.32,2.36,2.36,0,0,0,3.54,0,3.45,3.45,0,0,0,.71-2.34,3.36,3.36,0,0,0-.71-2.29,2.34,2.34,0,0,0-3.54,0A3.33,3.33,0,0,0,440.54,327.19Zm1.13-6.33L443,318h3l-2.64,2.86Z" style="fill:#fff"/><path d="M459.2,332.28h-2.69v-5.19a8.26,8.26,0,0,0-.17-2.13,1.48,1.48,0,0,0-.56-.75,1.6,1.6,0,0,0-.94-.27,2.19,2.19,0,0,0-1.25.38,1.89,1.89,0,0,0-.76,1,8.58,8.58,0,0,0-.21,2.33v4.61h-2.69V322.11h2.5v1.49a4.06,4.06,0,0,1,3.35-1.72,4.12,4.12,0,0,1,1.63.32,2.69,2.69,0,0,1,1.11.82,2.87,2.87,0,0,1,.53,1.13,8.28,8.28,0,0,1,.15,1.81Z" style="fill:#fff"/><rect x="352.31" y="44.63" width="104.17" height="26.67" rx="13.33" style="fill:#f90000"/><path d="M378,59.42V57.05h6.11v5.59a7.42,7.42,0,0,1-2.58,1.52,9.36,9.36,0,0,1-3.42.66,7.64,7.64,0,0,1-3.84-.93,5.73,5.73,0,0,1-2.46-2.64,8.51,8.51,0,0,1-.83-3.74,8.07,8.07,0,0,1,.92-3.89A6.19,6.19,0,0,1,374.55,51a7.33,7.33,0,0,1,3.36-.7A6.72,6.72,0,0,1,382,51.4a4.94,4.94,0,0,1,1.89,3l-2.82.53A3,3,0,0,0,380,53.32a3.45,3.45,0,0,0-2-.59,3.84,3.84,0,0,0-3,1.17,5,5,0,0,0-1.1,3.5A5.53,5.53,0,0,0,375,61.15a3.72,3.72,0,0,0,2.91,1.25,5,5,0,0,0,1.79-.35,6.43,6.43,0,0,0,1.54-.85V59.42Z" style="fill:#fff"/><path d="M392.12,61.34l2.68.45A4.4,4.4,0,0,1,393.17,64a4.85,4.85,0,0,1-2.79.77,4.57,4.57,0,0,1-3.93-1.73,5.85,5.85,0,0,1-1-3.51,5.64,5.64,0,0,1,1.32-4,4.36,4.36,0,0,1,3.34-1.43,4.51,4.51,0,0,1,3.58,1.5,6.65,6.65,0,0,1,1.25,4.59H388.2a2.69,2.69,0,0,0,.66,1.86,2,2,0,0,0,1.55.67,1.65,1.65,0,0,0,1.06-.35A2.13,2.13,0,0,0,392.12,61.34Zm.15-2.72a2.6,2.6,0,0,0-.6-1.77,1.94,1.94,0,0,0-2.85,0,2.49,2.49,0,0,0-.57,1.74Z" style="fill:#fff"/><path d="M395.76,61.68l2.7-.41a2,2,0,0,0,.7,1.19,2.36,2.36,0,0,0,1.47.41,2.61,2.61,0,0,0,1.57-.39.86.86,0,0,0,.36-.72.72.72,0,0,0-.19-.5,2.19,2.19,0,0,0-.91-.36,14.35,14.35,0,0,1-4.12-1.31,2.61,2.61,0,0,1-1.21-2.29,2.81,2.81,0,0,1,1.05-2.22,4.85,4.85,0,0,1,3.23-.9,5.65,5.65,0,0,1,3.1.68,3.42,3.42,0,0,1,1.4,2l-2.54.47a1.55,1.55,0,0,0-.61-.91,2.29,2.29,0,0,0-1.3-.31,2.88,2.88,0,0,0-1.52.29.63.63,0,0,0-.31.55.61.61,0,0,0,.27.49,10.33,10.33,0,0,0,2.51.75,7.53,7.53,0,0,1,3,1.2,2.46,2.46,0,0,1,.85,2,3.07,3.07,0,0,1-1.17,2.4,5.18,5.18,0,0,1-3.46,1,5.71,5.71,0,0,1-3.29-.84A4,4,0,0,1,395.76,61.68Z" style="fill:#fff"/><path d="M411.84,54.41v2.15H410v4.09a8.88,8.88,0,0,0,.06,1.45.54.54,0,0,0,.24.34.73.73,0,0,0,.45.14,3.53,3.53,0,0,0,1.08-.26l.23,2.09a5.45,5.45,0,0,1-2.12.4,3.19,3.19,0,0,1-1.31-.25,1.88,1.88,0,0,1-.86-.63,2.54,2.54,0,0,1-.38-1A12.38,12.38,0,0,1,407.3,61V56.56h-1.23V54.41h1.23v-2l2.7-1.57v3.59Z" style="fill:#fff"/><path d="M413.28,53V50.54H416V53Zm0,11.55V54.41H416V64.58Z" style="fill:#fff"/><path d="M417.67,59.35a5.48,5.48,0,0,1,.66-2.59,4.52,4.52,0,0,1,1.88-1.92,5.51,5.51,0,0,1,2.7-.66,5.06,5.06,0,0,1,3.78,1.5,5.2,5.2,0,0,1,1.48,3.79,5.25,5.25,0,0,1-1.49,3.82,5.05,5.05,0,0,1-3.75,1.52,6,6,0,0,1-2.67-.63,4.34,4.34,0,0,1-1.93-1.86A6.15,6.15,0,0,1,417.67,59.35Zm2.76.14a3.36,3.36,0,0,0,.72,2.32,2.34,2.34,0,0,0,3.54,0,3.42,3.42,0,0,0,.71-2.33,3.37,3.37,0,0,0-.71-2.3,2.34,2.34,0,0,0-3.54,0A3.35,3.35,0,0,0,420.43,59.49Zm1.13-6.32,1.32-2.87h3l-2.64,2.87Z" style="fill:#fff"/><path d="M439.09,64.58H436.4V59.39a8.26,8.26,0,0,0-.17-2.13,1.53,1.53,0,0,0-.56-.75,1.6,1.6,0,0,0-.94-.27,2.19,2.19,0,0,0-1.25.38,2,2,0,0,0-.76,1,8.58,8.58,0,0,0-.21,2.33v4.61h-2.69V54.41h2.5V55.9a4.17,4.17,0,0,1,5-1.4,2.78,2.78,0,0,1,1.11.82,2.87,2.87,0,0,1,.53,1.13,8.28,8.28,0,0,1,.15,1.81Z" style="fill:#fff"/></svg>