<svg id="Capa_1" data-name="Capa 1" xmlns="http://www.w3.org/2000/svg" viewBox="0 0 474.8 408.47"><polyline points="383.67 47.02 90.04 47.02 80.37 61.78 74.77 61.78" style="fill:none;stroke:#f90000;stroke-miterlimit:10"/><polyline points="383.67 86.1 90.04 86.1 80.37 100.86 74.77 100.86" style="fill:none;stroke:#f90000;stroke-miterlimit:10"/><polyline points="383.67 126.76 90.04 126.76 80.37 141.52 74.77 141.52" style="fill:none;stroke:#f90000;stroke-miterlimit:10"/><polyline points="383.67 167.42 90.04 167.42 80.37 182.18 74.77 182.18" style="fill:none;stroke:#f90000;stroke-miterlimit:10"/><polyline points="383.67 206.74 90.04 206.74 80.37 221.5 74.77 221.5" style="fill:none;stroke:#f90000;stroke-miterlimit:10"/><polyline points="383.67 246.06 90.04 246.06 80.37 260.82 74.77 260.82" style="fill:none;stroke:#f90000;stroke-miterlimit:10"/><line x1="80.37" y1="61.78" x2="80.37" y2="309.09" style="fill:none;stroke:#f90000;stroke-miterlimit:10"/><polyline points="80.37 300.14 375.85 300.14 383.67 285.38 90.04 285.38 80.37 300.14 74.77 300.14" style="fill:none;stroke:#f90000;stroke-miterlimit:10"/><line x1="106.38" y1="300.14" x2="106.38" y2="309.09" style="fill:none;stroke:#f90000;stroke-miterlimit:10"/><line x1="133.24" y1="300.14" x2="133.24" y2="309.09" style="fill:none;stroke:#f90000;stroke-miterlimit:10"/><line x1="160.1" y1="300.14" x2="160.1" y2="309.09" style="fill:none;stroke:#f90000;stroke-miterlimit:10"/><line x1="186.95" y1="300.14" x2="186.95" y2="309.09" style="fill:none;stroke:#f90000;stroke-miterlimit:10"/><line x1="213.81" y1="300.14" x2="213.81" y2="309.09" style="fill:none;stroke:#f90000;stroke-miterlimit:10"/><line x1="240.67" y1="300.14" x2="240.67" y2="309.09" style="fill:none;stroke:#f90000;stroke-miterlimit:10"/><line x1="267.53" y1="300.14" x2="267.53" y2="309.09" style="fill:none;stroke:#f90000;stroke-miterlimit:10"/><line x1="294.38" y1="300.14" x2="294.38" y2="309.09" style="fill:none;stroke:#f90000;stroke-miterlimit:10"/><line x1="321.24" y1="300.14" x2="321.24" y2="309.09" style="fill:none;stroke:#f90000;stroke-miterlimit:10"/><line x1="348.1" y1="300.14" x2="348.1" y2="309.09" style="fill:none;stroke:#f90000;stroke-miterlimit:10"/><line x1="375.69" y1="300.14" x2="375.69" y2="309.09" style="fill:none;stroke:#f90000;stroke-miterlimit:10"/><path d="M7.66,63.81l2.12-.26a2,2,0,0,0,.55,1.24,1.55,1.55,0,0,0,2.22-.08A2,2,0,0,0,13,63.32,1.89,1.89,0,0,0,12.57,62a1.41,1.41,0,0,0-1.08-.48,4.25,4.25,0,0,0-1,.16l.24-1.78a2,2,0,0,0,1.36-.39,1.39,1.39,0,0,0,.47-1.09,1.23,1.23,0,0,0-.34-.92,1.25,1.25,0,0,0-.92-.35,1.34,1.34,0,0,0-1,.39,1.77,1.77,0,0,0-.48,1.14l-2-.34a4.57,4.57,0,0,1,.64-1.66,2.9,2.9,0,0,1,1.19-1,4,4,0,0,1,1.7-.35,3.4,3.4,0,0,1,2.6,1,2.61,2.61,0,0,1-.85,4.31,2.69,2.69,0,0,1,1.58,1,2.76,2.76,0,0,1,.59,1.77A3.45,3.45,0,0,1,14.17,66,3.8,3.8,0,0,1,11.42,67a3.74,3.74,0,0,1-2.57-.89A3.5,3.5,0,0,1,7.66,63.81Z"/><path d="M20.35,55.35A3.11,3.11,0,0,1,23,56.54c.74.93,1.11,2.49,1.11,4.66s-.37,3.72-1.12,4.67A3.12,3.12,0,0,1,20.35,67a3.26,3.26,0,0,1-2.7-1.28c-.68-.86-1-2.39-1-4.58s.37-3.71,1.12-4.66A3.14,3.14,0,0,1,20.35,55.35Zm0,1.82a1.06,1.06,0,0,0-.71.25,1.77,1.77,0,0,0-.49.91,12.63,12.63,0,0,0-.23,2.87A12.08,12.08,0,0,0,19.13,64a1.85,1.85,0,0,0,.51,1,1.08,1.08,0,0,0,.71.25,1.1,1.1,0,0,0,.71-.25,1.66,1.66,0,0,0,.48-.91,12.47,12.47,0,0,0,.23-2.86,12.08,12.08,0,0,0-.21-2.77,1.93,1.93,0,0,0-.51-1A1.06,1.06,0,0,0,20.35,57.17Z"/><path d="M29.24,55.35a3.13,3.13,0,0,1,2.61,1.19C32.59,57.47,33,59,33,61.2s-.37,3.72-1.12,4.67A3.14,3.14,0,0,1,29.24,67a3.26,3.26,0,0,1-2.69-1.28c-.68-.86-1-2.39-1-4.58s.37-3.71,1.12-4.66A3.13,3.13,0,0,1,29.24,55.35Zm0,1.82a1.1,1.1,0,0,0-.71.25,1.76,1.76,0,0,0-.48.91,12.63,12.63,0,0,0-.23,2.87A12.08,12.08,0,0,0,28,64a1.85,1.85,0,0,0,.51,1,1.06,1.06,0,0,0,.7.25A1.11,1.11,0,0,0,30,65a1.72,1.72,0,0,0,.48-.91,12.47,12.47,0,0,0,.23-2.86,12.08,12.08,0,0,0-.21-2.77,1.93,1.93,0,0,0-.51-1A1.06,1.06,0,0,0,29.24,57.17Z"/><path d="M38.14,55.35a3.1,3.1,0,0,1,2.6,1.19c.75.93,1.12,2.49,1.12,4.66s-.37,3.72-1.12,4.67A3.14,3.14,0,0,1,38.14,67a3.26,3.26,0,0,1-2.69-1.28c-.68-.86-1-2.39-1-4.58a7.57,7.57,0,0,1,1.13-4.66A3.12,3.12,0,0,1,38.14,55.35Zm0,1.82a1.1,1.1,0,0,0-.71.25,1.69,1.69,0,0,0-.48.91,12.63,12.63,0,0,0-.23,2.87,12.88,12.88,0,0,0,.2,2.77,1.92,1.92,0,0,0,.52,1,1.12,1.12,0,0,0,1.41,0,1.72,1.72,0,0,0,.49-.91,12.62,12.62,0,0,0,.22-2.86,12.25,12.25,0,0,0-.2-2.77,1.93,1.93,0,0,0-.51-1A1.08,1.08,0,0,0,38.14,57.17Z"/><path d="M47,55.35a3.1,3.1,0,0,1,2.6,1.19c.75.93,1.12,2.49,1.12,4.66s-.37,3.72-1.12,4.67A3.14,3.14,0,0,1,47,67a3.26,3.26,0,0,1-2.69-1.28c-.69-.86-1-2.39-1-4.58a7.57,7.57,0,0,1,1.13-4.66A3.12,3.12,0,0,1,47,55.35Zm0,1.82a1.1,1.1,0,0,0-.71.25,1.69,1.69,0,0,0-.48.91,12.06,12.06,0,0,0-.23,2.87,12.88,12.88,0,0,0,.2,2.77,2,2,0,0,0,.51,1,1.1,1.1,0,0,0,.71.25,1.08,1.08,0,0,0,.71-.25,1.72,1.72,0,0,0,.49-.91,12.62,12.62,0,0,0,.22-2.86,12.25,12.25,0,0,0-.2-2.77,2.08,2.08,0,0,0-.51-1A1.08,1.08,0,0,0,47,57.17Z"/><path d="M55.94,55.35a3.1,3.1,0,0,1,2.6,1.19c.75.93,1.12,2.49,1.12,4.66s-.38,3.72-1.13,4.67A3.12,3.12,0,0,1,55.94,67a3.29,3.29,0,0,1-2.7-1.28c-.68-.86-1-2.39-1-4.58a7.57,7.57,0,0,1,1.13-4.66A3.12,3.12,0,0,1,55.94,55.35Zm0,1.82a1.08,1.08,0,0,0-.71.25,1.77,1.77,0,0,0-.49.91,12.78,12.78,0,0,0-.22,2.87,12.88,12.88,0,0,0,.2,2.77,2,2,0,0,0,.51,1,1.13,1.13,0,0,0,1.42,0,1.72,1.72,0,0,0,.49-.91,12.62,12.62,0,0,0,.22-2.86,12.88,12.88,0,0,0-.2-2.77,2.08,2.08,0,0,0-.51-1A1.08,1.08,0,0,0,55.94,57.17Z"/><path d="M64.84,55.35a3.11,3.11,0,0,1,2.6,1.19c.75.93,1.12,2.49,1.12,4.66s-.38,3.72-1.13,4.67A3.12,3.12,0,0,1,64.84,67a3.28,3.28,0,0,1-2.7-1.28c-.68-.86-1-2.39-1-4.58s.37-3.71,1.12-4.66A3.14,3.14,0,0,1,64.84,55.35Zm0,1.82a1.08,1.08,0,0,0-.71.25,1.77,1.77,0,0,0-.49.91,12.78,12.78,0,0,0-.22,2.87,12.25,12.25,0,0,0,.2,2.77,2,2,0,0,0,.51,1,1.08,1.08,0,0,0,.71.25,1.1,1.1,0,0,0,.71-.25,1.66,1.66,0,0,0,.48-.91,11.91,11.91,0,0,0,.23-2.86,12.88,12.88,0,0,0-.2-2.77,2.08,2.08,0,0,0-.51-1A1.1,1.1,0,0,0,64.84,57.17Z"/><path d="M15.15,105.26v2H7.46a5.2,5.2,0,0,1,.75-2.19,14.48,14.48,0,0,1,2.46-2.75,15,15,0,0,0,1.82-1.87A2.35,2.35,0,0,0,13,99.15a1.5,1.5,0,0,0-.4-1.13,1.43,1.43,0,0,0-1.09-.4,1.45,1.45,0,0,0-1.09.42,2.09,2.09,0,0,0-.47,1.37l-2.19-.22a3.58,3.58,0,0,1,1.23-2.6,4.17,4.17,0,0,1,2.58-.79,3.71,3.71,0,0,1,2.66.92,3,3,0,0,1,1,2.27,3.81,3.81,0,0,1-.28,1.47,5.54,5.54,0,0,1-.88,1.47,13.82,13.82,0,0,1-1.43,1.46c-.7.63-1.13,1.06-1.32,1.26a5.25,5.25,0,0,0-.45.61Z"/><path d="M16.67,104.36l2.18-.23a1.91,1.91,0,0,0,.56,1.18,1.51,1.51,0,0,0,2.23-.13,2.57,2.57,0,0,0,.47-1.68,2.31,2.31,0,0,0-.47-1.58,1.56,1.56,0,0,0-1.23-.53,2.26,2.26,0,0,0-1.7.83L16.93,102l1.13-6h5.8v2H19.72l-.34,2a3.34,3.34,0,0,1,4,.69,3.83,3.83,0,0,1,1,2.76,4.11,4.11,0,0,1-.82,2.52,3.65,3.65,0,0,1-3.1,1.52,3.9,3.9,0,0,1-2.59-.85A3.49,3.49,0,0,1,16.67,104.36Z"/><path d="M29.24,95.8A3.16,3.16,0,0,1,31.85,97c.74.94,1.11,2.49,1.11,4.66s-.37,3.73-1.12,4.68a3.14,3.14,0,0,1-2.6,1.17,3.27,3.27,0,0,1-2.69-1.29c-.68-.85-1-2.38-1-4.58s.37-3.71,1.12-4.66A3.13,3.13,0,0,1,29.24,95.8Zm0,1.82a1.11,1.11,0,0,0-.71.26,1.72,1.72,0,0,0-.48.91,12.47,12.47,0,0,0-.23,2.86,12,12,0,0,0,.21,2.77,1.88,1.88,0,0,0,.51,1,1.12,1.12,0,0,0,1.42,0,1.72,1.72,0,0,0,.48-.91,12.41,12.41,0,0,0,.23-2.86,12.14,12.14,0,0,0-.21-2.77,1.89,1.89,0,0,0-.51-1A1.07,1.07,0,0,0,29.24,97.62Z"/><path d="M38.14,95.8A3.13,3.13,0,0,1,40.74,97c.75.94,1.12,2.49,1.12,4.66s-.37,3.73-1.12,4.68a3.14,3.14,0,0,1-2.6,1.17,3.27,3.27,0,0,1-2.69-1.29c-.68-.85-1-2.38-1-4.58A7.57,7.57,0,0,1,35.55,97,3.12,3.12,0,0,1,38.14,95.8Zm0,1.82a1.11,1.11,0,0,0-.71.26,1.66,1.66,0,0,0-.48.91,12.47,12.47,0,0,0-.23,2.86,12.82,12.82,0,0,0,.2,2.77,2,2,0,0,0,.52,1,1.11,1.11,0,0,0,.7.25,1.07,1.07,0,0,0,.71-.26,1.72,1.72,0,0,0,.49-.91,12.56,12.56,0,0,0,.22-2.86,12.31,12.31,0,0,0-.2-2.77,1.89,1.89,0,0,0-.51-1A1.09,1.09,0,0,0,38.14,97.62Z"/><path d="M47,95.8A3.13,3.13,0,0,1,49.64,97c.75.94,1.12,2.49,1.12,4.66s-.37,3.73-1.12,4.68A3.14,3.14,0,0,1,47,107.5a3.27,3.27,0,0,1-2.69-1.29c-.69-.85-1-2.38-1-4.58A7.57,7.57,0,0,1,44.45,97,3.12,3.12,0,0,1,47,95.8Zm0,1.82a1.11,1.11,0,0,0-.71.26,1.66,1.66,0,0,0-.48.91,11.91,11.91,0,0,0-.23,2.86,12.82,12.82,0,0,0,.2,2.77,2,2,0,0,0,.51,1,1.16,1.16,0,0,0,.71.25,1.09,1.09,0,0,0,.71-.26,1.72,1.72,0,0,0,.49-.91,12.56,12.56,0,0,0,.22-2.86,12.31,12.31,0,0,0-.2-2.77,2,2,0,0,0-.51-1A1.09,1.09,0,0,0,47,97.62Z"/><path d="M55.94,95.8A3.13,3.13,0,0,1,58.54,97c.75.94,1.12,2.49,1.12,4.66a7.62,7.62,0,0,1-1.13,4.68,3.12,3.12,0,0,1-2.59,1.17,3.3,3.3,0,0,1-2.7-1.29c-.68-.85-1-2.38-1-4.58A7.57,7.57,0,0,1,53.35,97,3.12,3.12,0,0,1,55.94,95.8Zm0,1.82a1.09,1.09,0,0,0-.71.26,1.72,1.72,0,0,0-.49.91,12.62,12.62,0,0,0-.22,2.86,12.82,12.82,0,0,0,.2,2.77,2,2,0,0,0,.51,1,1.14,1.14,0,0,0,.71.25,1.09,1.09,0,0,0,.71-.26,1.72,1.72,0,0,0,.49-.91,12.56,12.56,0,0,0,.22-2.86,13,13,0,0,0-.2-2.77,2,2,0,0,0-.51-1A1.09,1.09,0,0,0,55.94,97.62Z"/><path d="M64.84,95.8A3.14,3.14,0,0,1,67.44,97c.75.94,1.12,2.49,1.12,4.66a7.62,7.62,0,0,1-1.13,4.68,3.12,3.12,0,0,1-2.59,1.17,3.28,3.28,0,0,1-2.7-1.29c-.68-.85-1-2.38-1-4.58s.37-3.71,1.12-4.66A3.14,3.14,0,0,1,64.84,95.8Zm0,1.82a1.09,1.09,0,0,0-.71.26,1.72,1.72,0,0,0-.49.91,12.62,12.62,0,0,0-.22,2.86,12.19,12.19,0,0,0,.2,2.77,2,2,0,0,0,.51,1,1.14,1.14,0,0,0,.71.25,1.11,1.11,0,0,0,.71-.26,1.66,1.66,0,0,0,.48-.91,11.86,11.86,0,0,0,.23-2.86,13,13,0,0,0-.2-2.77,2,2,0,0,0-.51-1A1.11,1.11,0,0,0,64.84,97.62Z"/><path d="M15.15,146.16v2H7.46A5.2,5.2,0,0,1,8.21,146a14.18,14.18,0,0,1,2.46-2.75,15,15,0,0,0,1.82-1.87A2.36,2.36,0,0,0,13,140a1.49,1.49,0,0,0-.4-1.12,1.43,1.43,0,0,0-1.09-.4,1.45,1.45,0,0,0-1.09.42,2.09,2.09,0,0,0-.47,1.37l-2.19-.22a3.58,3.58,0,0,1,1.23-2.6,4.11,4.11,0,0,1,2.58-.79,3.75,3.75,0,0,1,2.66.91,3,3,0,0,1,1,2.28,3.84,3.84,0,0,1-.28,1.47,5.54,5.54,0,0,1-.88,1.47,14.87,14.87,0,0,1-1.43,1.46c-.7.63-1.13,1.05-1.32,1.26a4.52,4.52,0,0,0-.45.61Z"/><path d="M20.35,136.7a3.14,3.14,0,0,1,2.6,1.19c.74.94,1.11,2.49,1.11,4.66s-.37,3.73-1.12,4.67a3.1,3.1,0,0,1-2.59,1.18,3.27,3.27,0,0,1-2.7-1.29c-.68-.86-1-2.38-1-4.58s.37-3.71,1.12-4.66A3.14,3.14,0,0,1,20.35,136.7Zm0,1.82a1.12,1.12,0,0,0-.71.25,1.76,1.76,0,0,0-.49.92,12.47,12.47,0,0,0-.23,2.86,12,12,0,0,0,.21,2.77,1.93,1.93,0,0,0,.51,1,1.14,1.14,0,0,0,.71.25,1.11,1.11,0,0,0,.71-.26,1.66,1.66,0,0,0,.48-.91,12.41,12.41,0,0,0,.23-2.86,12.14,12.14,0,0,0-.21-2.77,1.93,1.93,0,0,0-.51-1A1.11,1.11,0,0,0,20.35,138.52Z"/><path d="M29.24,136.7a3.16,3.16,0,0,1,2.61,1.19c.74.94,1.11,2.49,1.11,4.66s-.37,3.73-1.12,4.67a3.12,3.12,0,0,1-2.6,1.18,3.27,3.27,0,0,1-2.69-1.29c-.68-.86-1-2.38-1-4.58s.37-3.71,1.12-4.66A3.13,3.13,0,0,1,29.24,136.7Zm0,1.82a1.16,1.16,0,0,0-.71.25,1.76,1.76,0,0,0-.48.92,12.47,12.47,0,0,0-.23,2.86,12,12,0,0,0,.21,2.77,1.93,1.93,0,0,0,.51,1,1.12,1.12,0,0,0,1.42,0,1.72,1.72,0,0,0,.48-.91,12.41,12.41,0,0,0,.23-2.86,12.14,12.14,0,0,0-.21-2.77,1.93,1.93,0,0,0-.51-1A1.12,1.12,0,0,0,29.24,138.52Z"/><path d="M38.14,136.7a3.13,3.13,0,0,1,2.6,1.19c.75.94,1.12,2.49,1.12,4.66s-.37,3.73-1.12,4.67a3.12,3.12,0,0,1-2.6,1.18,3.27,3.27,0,0,1-2.69-1.29c-.68-.86-1-2.38-1-4.58a7.57,7.57,0,0,1,1.13-4.66A3.12,3.12,0,0,1,38.14,136.7Zm0,1.82a1.16,1.16,0,0,0-.71.25,1.69,1.69,0,0,0-.48.92,12.47,12.47,0,0,0-.23,2.86,12.82,12.82,0,0,0,.2,2.77,2,2,0,0,0,.52,1,1.11,1.11,0,0,0,.7.25,1.07,1.07,0,0,0,.71-.26,1.72,1.72,0,0,0,.49-.91,12.56,12.56,0,0,0,.22-2.86,12.31,12.31,0,0,0-.2-2.77,1.93,1.93,0,0,0-.51-1A1.14,1.14,0,0,0,38.14,138.52Z"/><path d="M47,136.7a3.13,3.13,0,0,1,2.6,1.19c.75.94,1.12,2.49,1.12,4.66s-.37,3.73-1.12,4.67A3.12,3.12,0,0,1,47,148.4a3.27,3.27,0,0,1-2.69-1.29c-.69-.86-1-2.38-1-4.58a7.57,7.57,0,0,1,1.13-4.66A3.12,3.12,0,0,1,47,136.7Zm0,1.82a1.16,1.16,0,0,0-.71.25,1.69,1.69,0,0,0-.48.92,11.91,11.91,0,0,0-.23,2.86,12.82,12.82,0,0,0,.2,2.77,2.08,2.08,0,0,0,.51,1,1.16,1.16,0,0,0,.71.25,1.09,1.09,0,0,0,.71-.26,1.72,1.72,0,0,0,.49-.91,12.56,12.56,0,0,0,.22-2.86,12.31,12.31,0,0,0-.2-2.77,2.08,2.08,0,0,0-.51-1A1.14,1.14,0,0,0,47,138.52Z"/><path d="M55.94,136.7a3.13,3.13,0,0,1,2.6,1.19c.75.94,1.12,2.49,1.12,4.66s-.38,3.73-1.13,4.67a3.1,3.1,0,0,1-2.59,1.18,3.3,3.3,0,0,1-2.7-1.29c-.68-.86-1-2.38-1-4.58a7.57,7.57,0,0,1,1.13-4.66A3.12,3.12,0,0,1,55.94,136.7Zm0,1.82a1.14,1.14,0,0,0-.71.25,1.76,1.76,0,0,0-.49.92,12.62,12.62,0,0,0-.22,2.86,12.82,12.82,0,0,0,.2,2.77,2.08,2.08,0,0,0,.51,1,1.14,1.14,0,0,0,.71.25,1.09,1.09,0,0,0,.71-.26,1.72,1.72,0,0,0,.49-.91,12.56,12.56,0,0,0,.22-2.86,13,13,0,0,0-.2-2.77,2.08,2.08,0,0,0-.51-1A1.14,1.14,0,0,0,55.94,138.52Z"/><path d="M64.84,136.7a3.14,3.14,0,0,1,2.6,1.19c.75.94,1.12,2.49,1.12,4.66s-.38,3.73-1.13,4.67a3.1,3.1,0,0,1-2.59,1.18,3.28,3.28,0,0,1-2.7-1.29c-.68-.86-1-2.38-1-4.58s.37-3.71,1.12-4.66A3.14,3.14,0,0,1,64.84,136.7Zm0,1.82a1.14,1.14,0,0,0-.71.25,1.76,1.76,0,0,0-.49.92,12.62,12.62,0,0,0-.22,2.86,12.19,12.19,0,0,0,.2,2.77,2.08,2.08,0,0,0,.51,1,1.14,1.14,0,0,0,.71.25,1.11,1.11,0,0,0,.71-.26,1.66,1.66,0,0,0,.48-.91,11.86,11.86,0,0,0,.23-2.86,13,13,0,0,0-.2-2.77,2.08,2.08,0,0,0-.51-1A1.16,1.16,0,0,0,64.84,138.52Z"/><path d="M13.35,186.43H11.16v-8.27a7.56,7.56,0,0,1-2.84,1.66v-2a6.18,6.18,0,0,0,1.87-1.07,4,4,0,0,0,1.38-1.83h1.78Z"/><path d="M16.67,183.49l2.18-.23a1.91,1.91,0,0,0,.56,1.18,1.51,1.51,0,0,0,2.23-.13,2.57,2.57,0,0,0,.47-1.68,2.31,2.31,0,0,0-.47-1.58,1.56,1.56,0,0,0-1.23-.53,2.26,2.26,0,0,0-1.7.83l-1.78-.25,1.13-6h5.8v2.05H19.72l-.34,1.95a3.34,3.34,0,0,1,4,.69,3.83,3.83,0,0,1,1,2.76,4.11,4.11,0,0,1-.82,2.52,3.65,3.65,0,0,1-3.1,1.52,3.9,3.9,0,0,1-2.59-.85A3.49,3.49,0,0,1,16.67,183.49Z"/><path d="M29.24,174.93a3.16,3.16,0,0,1,2.61,1.19c.74.94,1.11,2.49,1.11,4.66s-.37,3.73-1.12,4.68a3.14,3.14,0,0,1-2.6,1.17,3.27,3.27,0,0,1-2.69-1.29c-.68-.85-1-2.38-1-4.58s.37-3.71,1.12-4.66A3.13,3.13,0,0,1,29.24,174.93Zm0,1.82a1.11,1.11,0,0,0-.71.26,1.72,1.72,0,0,0-.48.91,12.47,12.47,0,0,0-.23,2.86,12,12,0,0,0,.21,2.77,1.88,1.88,0,0,0,.51,1,1.12,1.12,0,0,0,1.42,0,1.72,1.72,0,0,0,.48-.91,12.41,12.41,0,0,0,.23-2.86,12.14,12.14,0,0,0-.21-2.77,1.89,1.89,0,0,0-.51-1A1.07,1.07,0,0,0,29.24,176.75Z"/><path d="M38.14,174.93a3.13,3.13,0,0,1,2.6,1.19c.75.94,1.12,2.49,1.12,4.66s-.37,3.73-1.12,4.68a3.14,3.14,0,0,1-2.6,1.17,3.27,3.27,0,0,1-2.69-1.29c-.68-.85-1-2.38-1-4.58a7.57,7.57,0,0,1,1.13-4.66A3.12,3.12,0,0,1,38.14,174.93Zm0,1.82a1.11,1.11,0,0,0-.71.26,1.66,1.66,0,0,0-.48.91,12.47,12.47,0,0,0-.23,2.86,12.82,12.82,0,0,0,.2,2.77,2,2,0,0,0,.52,1,1.11,1.11,0,0,0,.7.25,1.07,1.07,0,0,0,.71-.26,1.72,1.72,0,0,0,.49-.91,12.56,12.56,0,0,0,.22-2.86,12.31,12.31,0,0,0-.2-2.77,1.89,1.89,0,0,0-.51-1A1.09,1.09,0,0,0,38.14,176.75Z"/><path d="M47,174.93a3.13,3.13,0,0,1,2.6,1.19c.75.94,1.12,2.49,1.12,4.66s-.37,3.73-1.12,4.68a3.14,3.14,0,0,1-2.6,1.17,3.27,3.27,0,0,1-2.69-1.29c-.69-.85-1-2.38-1-4.58a7.57,7.57,0,0,1,1.13-4.66A3.12,3.12,0,0,1,47,174.93Zm0,1.82a1.11,1.11,0,0,0-.71.26,1.66,1.66,0,0,0-.48.91,11.91,11.91,0,0,0-.23,2.86,12.82,12.82,0,0,0,.2,2.77,2,2,0,0,0,.51,1,1.16,1.16,0,0,0,.71.25,1.09,1.09,0,0,0,.71-.26,1.72,1.72,0,0,0,.49-.91,12.56,12.56,0,0,0,.22-2.86,12.31,12.31,0,0,0-.2-2.77,2,2,0,0,0-.51-1A1.09,1.09,0,0,0,47,176.75Z"/><path d="M55.94,174.93a3.13,3.13,0,0,1,2.6,1.19c.75.94,1.12,2.49,1.12,4.66a7.62,7.62,0,0,1-1.13,4.68,3.12,3.12,0,0,1-2.59,1.17,3.3,3.3,0,0,1-2.7-1.29c-.68-.85-1-2.38-1-4.58a7.57,7.57,0,0,1,1.13-4.66A3.12,3.12,0,0,1,55.94,174.93Zm0,1.82a1.09,1.09,0,0,0-.71.26,1.72,1.72,0,0,0-.49.91,12.62,12.62,0,0,0-.22,2.86,12.82,12.82,0,0,0,.2,2.77,2,2,0,0,0,.51,1,1.14,1.14,0,0,0,.71.25,1.09,1.09,0,0,0,.71-.26,1.72,1.72,0,0,0,.49-.91,12.56,12.56,0,0,0,.22-2.86,13,13,0,0,0-.2-2.77,2,2,0,0,0-.51-1A1.09,1.09,0,0,0,55.94,176.75Z"/><path d="M64.84,174.93a3.14,3.14,0,0,1,2.6,1.19c.75.94,1.12,2.49,1.12,4.66a7.62,7.62,0,0,1-1.13,4.68,3.12,3.12,0,0,1-2.59,1.17,3.28,3.28,0,0,1-2.7-1.29c-.68-.85-1-2.38-1-4.58s.37-3.71,1.12-4.66A3.14,3.14,0,0,1,64.84,174.93Zm0,1.82a1.09,1.09,0,0,0-.71.26,1.72,1.72,0,0,0-.49.91,12.62,12.62,0,0,0-.22,2.86,12.19,12.19,0,0,0,.2,2.77,2,2,0,0,0,.51,1,1.14,1.14,0,0,0,.71.25,1.11,1.11,0,0,0,.71-.26,1.66,1.66,0,0,0,.48-.91,11.86,11.86,0,0,0,.23-2.86,13,13,0,0,0-.2-2.77,2,2,0,0,0-.51-1A1.11,1.11,0,0,0,64.84,176.75Z"/><path d="M13.35,228.66H11.16v-8.27a7.43,7.43,0,0,1-2.84,1.66v-2A6.35,6.35,0,0,0,10.19,219a4.1,4.1,0,0,0,1.38-1.84h1.78Z"/><path d="M20.35,217.16a3.14,3.14,0,0,1,2.6,1.19c.74.94,1.11,2.49,1.11,4.67s-.37,3.72-1.12,4.67a3.12,3.12,0,0,1-2.59,1.17,3.27,3.27,0,0,1-2.7-1.29c-.68-.85-1-2.38-1-4.58s.37-3.71,1.12-4.65A3.12,3.12,0,0,1,20.35,217.16Zm0,1.82a1.07,1.07,0,0,0-.71.26,1.72,1.72,0,0,0-.49.91,12.57,12.57,0,0,0-.23,2.87,12.14,12.14,0,0,0,.21,2.77,1.89,1.89,0,0,0,.51,1,1.08,1.08,0,0,0,.71.25,1.16,1.16,0,0,0,.71-.25,1.69,1.69,0,0,0,.48-.92,12.36,12.36,0,0,0,.23-2.85,12,12,0,0,0-.21-2.77,1.88,1.88,0,0,0-.51-1A1.06,1.06,0,0,0,20.35,219Z"/><path d="M29.24,217.16a3.16,3.16,0,0,1,2.61,1.19c.74.94,1.11,2.49,1.11,4.67s-.37,3.72-1.12,4.67a3.14,3.14,0,0,1-2.6,1.17,3.27,3.27,0,0,1-2.69-1.29c-.68-.85-1-2.38-1-4.58s.37-3.71,1.12-4.65A3.11,3.11,0,0,1,29.24,217.16Zm0,1.82a1.11,1.11,0,0,0-.71.26,1.72,1.72,0,0,0-.48.91,12.57,12.57,0,0,0-.23,2.87,12.14,12.14,0,0,0,.21,2.77,1.89,1.89,0,0,0,.51,1,1.06,1.06,0,0,0,.7.25,1.17,1.17,0,0,0,.72-.25,1.76,1.76,0,0,0,.48-.92,12.36,12.36,0,0,0,.23-2.85,12,12,0,0,0-.21-2.77,1.88,1.88,0,0,0-.51-1A1.07,1.07,0,0,0,29.24,219Z"/><path d="M38.14,217.16a3.13,3.13,0,0,1,2.6,1.19c.75.94,1.12,2.49,1.12,4.67s-.37,3.72-1.12,4.67a3.14,3.14,0,0,1-2.6,1.17,3.27,3.27,0,0,1-2.69-1.29c-.68-.85-1-2.38-1-4.58a7.54,7.54,0,0,1,1.13-4.65A3.1,3.1,0,0,1,38.14,217.16Zm0,1.82a1.11,1.11,0,0,0-.71.26,1.66,1.66,0,0,0-.48.91,12.57,12.57,0,0,0-.23,2.87,13,13,0,0,0,.2,2.77,2,2,0,0,0,.52,1,1.06,1.06,0,0,0,.7.25,1.12,1.12,0,0,0,.71-.25,1.76,1.76,0,0,0,.49-.92,12.51,12.51,0,0,0,.22-2.85,12.19,12.19,0,0,0-.2-2.77,1.88,1.88,0,0,0-.51-1A1.09,1.09,0,0,0,38.14,219Z"/><path d="M47,217.16a3.13,3.13,0,0,1,2.6,1.19c.75.94,1.12,2.49,1.12,4.67s-.37,3.72-1.12,4.67a3.14,3.14,0,0,1-2.6,1.17,3.27,3.27,0,0,1-2.69-1.29c-.69-.85-1-2.38-1-4.58a7.54,7.54,0,0,1,1.13-4.65A3.1,3.1,0,0,1,47,217.16ZM47,219a1.11,1.11,0,0,0-.71.26,1.66,1.66,0,0,0-.48.91,12,12,0,0,0-.23,2.87,13,13,0,0,0,.2,2.77,2,2,0,0,0,.51,1A1.1,1.1,0,0,0,47,227a1.14,1.14,0,0,0,.71-.25,1.76,1.76,0,0,0,.49-.92,12.51,12.51,0,0,0,.22-2.85,12.19,12.19,0,0,0-.2-2.77,2,2,0,0,0-.51-1A1.09,1.09,0,0,0,47,219Z"/><path d="M55.94,217.16a3.13,3.13,0,0,1,2.6,1.19c.75.94,1.12,2.49,1.12,4.67a7.61,7.61,0,0,1-1.13,4.67,3.12,3.12,0,0,1-2.59,1.17,3.3,3.3,0,0,1-2.7-1.29c-.68-.85-1-2.38-1-4.58a7.54,7.54,0,0,1,1.13-4.65A3.1,3.1,0,0,1,55.94,217.16Zm0,1.82a1.09,1.09,0,0,0-.71.26,1.72,1.72,0,0,0-.49.91,12.72,12.72,0,0,0-.22,2.87,13,13,0,0,0,.2,2.77,2,2,0,0,0,.51,1,1.08,1.08,0,0,0,.71.25,1.14,1.14,0,0,0,.71-.25,1.76,1.76,0,0,0,.49-.92,12.51,12.51,0,0,0,.22-2.85,12.82,12.82,0,0,0-.2-2.77,2,2,0,0,0-.51-1A1.09,1.09,0,0,0,55.94,219Z"/><path d="M64.84,217.16a3.14,3.14,0,0,1,2.6,1.19c.75.94,1.12,2.49,1.12,4.67a7.61,7.61,0,0,1-1.13,4.67,3.12,3.12,0,0,1-2.59,1.17,3.28,3.28,0,0,1-2.7-1.29c-.68-.85-1-2.38-1-4.58s.37-3.71,1.12-4.65A3.12,3.12,0,0,1,64.84,217.16Zm0,1.82a1.09,1.09,0,0,0-.71.26,1.72,1.72,0,0,0-.49.91,12.72,12.72,0,0,0-.22,2.87,12.31,12.31,0,0,0,.2,2.77,2,2,0,0,0,.51,1,1.08,1.08,0,0,0,.71.25,1.16,1.16,0,0,0,.71-.25,1.69,1.69,0,0,0,.48-.92,11.81,11.81,0,0,0,.23-2.85,12.82,12.82,0,0,0-.2-2.77,2,2,0,0,0-.51-1A1.11,1.11,0,0,0,64.84,219Z"/><path d="M16.67,264.17l2.18-.22a1.91,1.91,0,0,0,.56,1.17,1.52,1.52,0,0,0,2.23-.12,2.62,2.62,0,0,0,.47-1.69,2.33,2.33,0,0,0-.47-1.58,1.6,1.6,0,0,0-1.23-.53,2.24,2.24,0,0,0-1.7.84l-1.78-.26,1.13-6h5.8v2.05H19.72l-.34,1.95a3.39,3.39,0,0,1,1.5-.37,3.28,3.28,0,0,1,2.47,1.07,3.78,3.78,0,0,1,1,2.75,4.12,4.12,0,0,1-.82,2.53,3.64,3.64,0,0,1-3.1,1.51,3.85,3.85,0,0,1-2.59-.85A3.49,3.49,0,0,1,16.67,264.17Z"/><path d="M29.24,255.62a3.15,3.15,0,0,1,2.61,1.18c.74.94,1.11,2.5,1.11,4.67s-.37,3.72-1.12,4.67a3.14,3.14,0,0,1-2.6,1.17A3.28,3.28,0,0,1,26.55,266c-.68-.86-1-2.39-1-4.58s.37-3.71,1.12-4.66A3.13,3.13,0,0,1,29.24,255.62Zm0,1.82a1.1,1.1,0,0,0-.71.25,1.72,1.72,0,0,0-.48.91,12.57,12.57,0,0,0-.23,2.87,12.08,12.08,0,0,0,.21,2.77,1.85,1.85,0,0,0,.51,1,1.06,1.06,0,0,0,.7.25,1.11,1.11,0,0,0,.72-.25,1.72,1.72,0,0,0,.48-.91,12.47,12.47,0,0,0,.23-2.86,12,12,0,0,0-.21-2.77,1.93,1.93,0,0,0-.51-1A1.06,1.06,0,0,0,29.24,257.44Z"/><path d="M38.14,255.62a3.12,3.12,0,0,1,2.6,1.18c.75.94,1.12,2.5,1.12,4.67s-.37,3.72-1.12,4.67a3.14,3.14,0,0,1-2.6,1.17A3.28,3.28,0,0,1,35.45,266c-.68-.86-1-2.39-1-4.58a7.57,7.57,0,0,1,1.13-4.66A3.12,3.12,0,0,1,38.14,255.62Zm0,1.82a1.1,1.1,0,0,0-.71.25,1.66,1.66,0,0,0-.48.91,12.57,12.57,0,0,0-.23,2.87,12.88,12.88,0,0,0,.2,2.77,1.92,1.92,0,0,0,.52,1,1.12,1.12,0,0,0,1.41,0,1.72,1.72,0,0,0,.49-.91,12.62,12.62,0,0,0,.22-2.86,12.19,12.19,0,0,0-.2-2.77,1.93,1.93,0,0,0-.51-1A1.08,1.08,0,0,0,38.14,257.44Z"/><path d="M47,255.62a3.12,3.12,0,0,1,2.6,1.18c.75.94,1.12,2.5,1.12,4.67s-.37,3.72-1.12,4.67a3.14,3.14,0,0,1-2.6,1.17A3.28,3.28,0,0,1,44.35,266c-.69-.86-1-2.39-1-4.58a7.57,7.57,0,0,1,1.13-4.66A3.12,3.12,0,0,1,47,255.62Zm0,1.82a1.1,1.1,0,0,0-.71.25,1.66,1.66,0,0,0-.48.91,12,12,0,0,0-.23,2.87,12.88,12.88,0,0,0,.2,2.77,2,2,0,0,0,.51,1,1.1,1.1,0,0,0,.71.25,1.08,1.08,0,0,0,.71-.25,1.72,1.72,0,0,0,.49-.91,12.62,12.62,0,0,0,.22-2.86,12.19,12.19,0,0,0-.2-2.77,2.08,2.08,0,0,0-.51-1A1.08,1.08,0,0,0,47,257.44Z"/><path d="M55.94,255.62a3.12,3.12,0,0,1,2.6,1.18c.75.94,1.12,2.5,1.12,4.67s-.38,3.72-1.13,4.67a3.12,3.12,0,0,1-2.59,1.17,3.32,3.32,0,0,1-2.7-1.28c-.68-.86-1-2.39-1-4.58a7.57,7.57,0,0,1,1.13-4.66A3.12,3.12,0,0,1,55.94,255.62Zm0,1.82a1.08,1.08,0,0,0-.71.25,1.72,1.72,0,0,0-.49.91,12.72,12.72,0,0,0-.22,2.87,12.88,12.88,0,0,0,.2,2.77,2,2,0,0,0,.51,1,1.13,1.13,0,0,0,1.42,0,1.72,1.72,0,0,0,.49-.91,12.62,12.62,0,0,0,.22-2.86,12.82,12.82,0,0,0-.2-2.77,2.08,2.08,0,0,0-.51-1A1.08,1.08,0,0,0,55.94,257.44Z"/><path d="M64.84,255.62a3.13,3.13,0,0,1,2.6,1.18c.75.94,1.12,2.5,1.12,4.67s-.38,3.72-1.13,4.67a3.12,3.12,0,0,1-2.59,1.17,3.3,3.3,0,0,1-2.7-1.28c-.68-.86-1-2.39-1-4.58s.37-3.71,1.12-4.66A3.14,3.14,0,0,1,64.84,255.62Zm0,1.82a1.08,1.08,0,0,0-.71.25,1.72,1.72,0,0,0-.49.91,12.72,12.72,0,0,0-.22,2.87,12.25,12.25,0,0,0,.2,2.77,2,2,0,0,0,.51,1,1.08,1.08,0,0,0,.71.25,1.1,1.1,0,0,0,.71-.25,1.66,1.66,0,0,0,.48-.91,11.91,11.91,0,0,0,.23-2.86,12.82,12.82,0,0,0-.2-2.77,2.08,2.08,0,0,0-.51-1A1.1,1.1,0,0,0,64.84,257.44Z"/><path d="M64.84,293.11a3.14,3.14,0,0,1,2.6,1.19c.75.94,1.12,2.49,1.12,4.67a7.61,7.61,0,0,1-1.13,4.67,3.12,3.12,0,0,1-2.59,1.17,3.28,3.28,0,0,1-2.7-1.29c-.68-.85-1-2.38-1-4.58s.37-3.71,1.12-4.65A3.12,3.12,0,0,1,64.84,293.11Zm0,1.82a1.09,1.09,0,0,0-.71.26,1.72,1.72,0,0,0-.49.91,12.72,12.72,0,0,0-.22,2.87,12.14,12.14,0,0,0,.2,2.76,2,2,0,0,0,.51,1,1.08,1.08,0,0,0,.71.25,1.11,1.11,0,0,0,.71-.26,1.62,1.62,0,0,0,.48-.91,11.81,11.81,0,0,0,.23-2.85,12.82,12.82,0,0,0-.2-2.77,2,2,0,0,0-.51-1A1.11,1.11,0,0,0,64.84,294.93Z"/><rect x="399.81" y="126.76" width="14.76" height="14.76" style="fill:#62211d"/><rect x="399.81" y="158.63" width="14.76" height="14.76" style="fill:#ee160b"/><rect x="399.81" y="190.49" width="14.76" height="14.76" style="fill:#f05d53"/><rect x="399.81" y="222.36" width="14.76" height="14.76" style="fill:#1e2053"/><rect x="399.81" y="254.23" width="14.76" height="14.76" style="fill:#28309f"/><rect x="90.88" y="235.53" width="11.7" height="60.15" style="fill:#28309f"/><rect x="90.88" y="196.82" width="11.7" height="38.71" style="fill:#1e2053"/><rect x="90.88" y="148.2" width="11.7" height="48.62" style="fill:#ee160b"/><rect x="90.88" y="86.1" width="11.7" height="62.1" style="fill:#62211d"/><polygon points="102.58 86.1 104.61 82.35 93.65 82.35 90.89 86.1 102.58 86.1" style="fill:#541413"/><polygon points="102.58 148.2 104.61 146.45 104.61 82.35 102.58 86.23 102.58 148.2" style="fill:#541413"/><polygon points="102.58 295.69 104.61 293.76 104.61 222.98 102.58 227.27 102.58 295.69" style="fill:#121d84"/><polygon points="102.58 235.53 104.61 234.02 104.61 178.58 102.58 181.94 102.58 235.53" style="fill:#13163f"/><polygon points="102.58 196.82 104.61 195.39 104.61 142.91 102.58 146.09 102.58 196.82" style="fill:#c63f3c"/><rect x="144.44" y="269.63" width="11.7" height="26.06" style="fill:#28309f"/><rect x="144.44" y="201.66" width="11.7" height="67.96" style="fill:#f05d53"/><rect x="144.44" y="136.94" width="11.7" height="64.72" style="fill:#62211d"/><polygon points="156.14 295.69 158.16 294.96 158.16 268.27 156.14 269.89 156.14 295.69" style="fill:#121d84"/><polygon points="156.14 269.63 158.16 268.41 158.16 169.64 156.14 175.63 156.14 269.63" style="fill:#b26969"/><polygon points="156.14 201.66 158.16 199.87 158.16 134.14 156.14 137.31 156.14 201.66" style="fill:#541413"/><polygon points="129.03 295.28 131.06 293.43 131.06 225.88 129.03 229.97 129.03 295.28" style="fill:#121d84"/><rect x="117.34" y="233.01" width="11.7" height="62.26" style="fill:#28309f"/><polygon points="129.03 233.07 131.06 231.64 131.06 179.16 129.03 182.34 129.03 233.07" style="fill:#13163f"/><rect x="117.34" y="182.34" width="11.7" height="50.67" style="fill:#1e2053"/><polygon points="131.06 179.16 129.03 182.34 117.34 182.34 121.57 179.16 131.06 179.16" style="fill:#13163f"/><rect x="198.06" y="238.03" width="11.7" height="57.24" style="fill:#f05d53"/><rect x="198.06" y="191.45" width="11.7" height="46.59" style="fill:#62211d"/><polygon points="209.76 295.28 211.78 293.58 211.78 231.47 209.76 235.24 209.76 295.28" style="fill:#b26969"/><polygon points="209.76 238.09 211.78 236.77 211.78 188.52 209.76 191.44 209.76 238.09" style="fill:#541413"/><polygon points="211.78 188.52 209.76 191.44 198.06 191.44 202.3 188.52 211.78 188.52" style="fill:#541413"/><rect x="224.57" y="224.81" width="11.7" height="70.46" style="fill:#1e2053"/><rect x="224.57" y="181.85" width="11.7" height="42.91" style="fill:#62211d"/><polygon points="236.27 295.28 238.29 293.19 238.29 216.74 236.27 221.37 236.27 295.28" style="fill:#13163f"/><polygon points="236.27 224.81 238.29 223.6 238.29 179.16 236.27 181.85 236.27 224.81" style="fill:#541413"/><polygon points="238.29 179.16 236.27 182.34 224.57 182.34 228.81 179.16 238.29 179.16" style="fill:#541413"/><rect x="332.18" y="224.81" width="11.7" height="70.46" style="fill:#f05d53"/><rect x="332.18" y="181.85" width="11.7" height="42.91" style="fill:#ee160b"/><polygon points="343.88 295.28 345.9 293.19 345.9 216.74 343.88 221.37 343.88 295.28" style="fill:#b26969"/><polygon points="343.88 224.81 345.9 223.6 345.9 179.16 343.88 181.85 343.88 224.81" style="fill:#c63f3c"/><polygon points="345.9 179.16 343.88 182.34 332.18 182.34 336.42 179.16 345.9 179.16" style="fill:#c63f3c"/><rect x="304.87" y="238.03" width="11.7" height="57.24" style="fill:#1e2053"/><rect x="304.87" y="175.37" width="11.7" height="62.65" style="fill:#ee160b"/><polygon points="316.56 295.28 318.59 293.58 318.59 231.47 316.56 235.24 316.56 295.28" style="fill:#13163f"/><polygon points="316.56 238.09 318.59 236.33 318.59 171.99 316.56 175.37 316.56 238.09" style="fill:#c63f3c"/><polygon points="318.59 171.99 316.56 175.37 304.87 175.37 309.1 171.99 318.59 171.99" style="fill:#c63f3c"/><rect x="251.37" y="252.26" width="11.7" height="43.02" style="fill:#f05d53"/><rect x="251.37" y="201.57" width="11.7" height="50.63" style="fill:#62211d"/><polygon points="263.06 295.28 265.09 294 265.09 247.32 263.06 250.15 263.06 295.28" style="fill:#b26969"/><polygon points="263.06 252.26 265.09 250.84 265.09 198.93 263.06 201.57 263.06 252.26" style="fill:#541413"/><polygon points="265.09 198.93 263.06 201.57 251.37 201.57 255.6 198.93 265.09 198.93" style="fill:#541413"/><rect x="277.99" y="269.93" width="11.7" height="25.35" style="fill:#f05d53"/><rect x="277.99" y="191.45" width="11.7" height="78.48" style="fill:#ee160b"/><polygon points="289.69 295.28 291.72 294.53 291.72 267.12 289.69 268.78 289.69 295.28" style="fill:#b26969"/><polygon points="289.69 270.01 291.72 267.85 291.72 188.52 289.69 191.44 289.69 270.01" style="fill:#c63f3c"/><polygon points="291.72 188.52 289.69 191.44 277.99 191.44 282.23 188.52 291.72 188.52" style="fill:#c63f3c"/><rect x="170.98" y="227.27" width="11.7" height="68.34" style="fill:#28309f"/><polygon points="182.68 295.69 184.71 293.76 184.71 222.98 182.68 227.27 182.68 295.69" style="fill:#121d84"/><polygon points="184.71 222.98 182.68 227.27 170.98 227.27 175.22 222.98 184.71 222.98" style="fill:#121d84"/><rect x="358.79" y="227.27" width="11.7" height="68.34" style="fill:#ee160b"/><polygon points="370.49 295.69 372.51 293.76 372.51 222.98 370.49 227.27 370.49 295.69" style="fill:#c63f3c"/><polygon points="372.51 222.98 370.49 227.27 358.79 227.27 363.02 222.98 372.51 222.98" style="fill:#c63f3c"/><polygon points="158.16 134.14 156.14 137.31 144.44 136.94 146.98 134.14 158.16 134.14" style="fill:#541413"/><path d="M419.14,129.81h1.66v4.46a9.57,9.57,0,0,0,.06,1.38,1.35,1.35,0,0,0,.51.82,1.82,1.82,0,0,0,1.1.3,1.65,1.65,0,0,0,1.07-.29,1.15,1.15,0,0,0,.44-.71,10.79,10.79,0,0,0,.07-1.4v-4.56h1.66v4.33a11.28,11.28,0,0,1-.13,2.1,2.31,2.31,0,0,1-.5,1,2.52,2.52,0,0,1-1,.68,5.52,5.52,0,0,1-3.38,0,2.37,2.37,0,0,1-1-.71,2.15,2.15,0,0,1-.47-.91,9.94,9.94,0,0,1-.16-2.09Z"/><path d="M429,138.06h-1.58v-6h1.47v.85a2.45,2.45,0,0,1,.68-.79,1.23,1.23,0,0,1,.68-.2,2,2,0,0,1,1,.3l-.49,1.38a1.38,1.38,0,0,0-.74-.26.83.83,0,0,0-.56.19,1.15,1.15,0,0,0-.36.66,9,9,0,0,0-.14,2Z"/><path d="M435.88,138.06v-.9a2.43,2.43,0,0,1-.86.76,2.46,2.46,0,0,1-1.12.27,2.28,2.28,0,0,1-1.09-.26,1.67,1.67,0,0,1-.69-.75,3.37,3.37,0,0,1-.21-1.32v-3.78h1.58v2.75a7.33,7.33,0,0,0,.09,1.54.82.82,0,0,0,.32.45,1,1,0,0,0,.58.17,1.26,1.26,0,0,0,.73-.23,1.12,1.12,0,0,0,.44-.55,7,7,0,0,0,.11-1.61v-2.52h1.59v6Z"/><path d="M438.84,138.45l1.8.22a.61.61,0,0,0,.21.43,1.22,1.22,0,0,0,.71.17,1.91,1.91,0,0,0,.93-.18.79.79,0,0,0,.31-.4,2.38,2.38,0,0,0,.08-.73v-.87a2.17,2.17,0,0,1-1.79,1,2.2,2.2,0,0,1-1.91-1,3.47,3.47,0,0,1-.55-2,3.29,3.29,0,0,1,.72-2.29,2.33,2.33,0,0,1,1.8-.8,2.19,2.19,0,0,1,1.83,1v-.84h1.48v5.36a5.16,5.16,0,0,1-.18,1.58,1.93,1.93,0,0,1-.49.83,2.24,2.24,0,0,1-.84.46,4.48,4.48,0,0,1-1.33.17,3.41,3.41,0,0,1-2.15-.52,1.63,1.63,0,0,1-.64-1.32A1.34,1.34,0,0,1,438.84,138.45Zm1.41-3.51a2.15,2.15,0,0,0,.37,1.4,1.15,1.15,0,0,0,.91.44,1.28,1.28,0,0,0,1-.45,2,2,0,0,0,.39-1.35,2.07,2.07,0,0,0-.38-1.38,1.21,1.21,0,0,0-1-.45,1.15,1.15,0,0,0-.93.45A2,2,0,0,0,440.25,134.94Z"/><path d="M450,138.06v-.9a2.43,2.43,0,0,1-.86.76,2.46,2.46,0,0,1-1.12.27,2.21,2.21,0,0,1-1.08-.26,1.64,1.64,0,0,1-.7-.75,3.37,3.37,0,0,1-.21-1.32v-3.78h1.58v2.75a7.33,7.33,0,0,0,.09,1.54.82.82,0,0,0,.32.45,1,1,0,0,0,.58.17,1.26,1.26,0,0,0,.73-.23,1.12,1.12,0,0,0,.44-.55,7,7,0,0,0,.11-1.61v-2.52h1.59v6Z"/><path d="M454.24,133.9l-1.43-.26a2.27,2.27,0,0,1,.83-1.28,3,3,0,0,1,1.76-.42,3.87,3.87,0,0,1,1.57.25,1.55,1.55,0,0,1,.73.64,3.3,3.3,0,0,1,.21,1.42v1.84a6.54,6.54,0,0,0,.07,1.16,3.46,3.46,0,0,0,.29.81h-1.57c0-.11-.09-.27-.15-.47l-.06-.19a2.76,2.76,0,0,1-.86.59,2.54,2.54,0,0,1-1,.2,2,2,0,0,1-1.45-.5,1.65,1.65,0,0,1-.53-1.27,1.73,1.73,0,0,1,.24-.9,1.56,1.56,0,0,1,.68-.61,5.6,5.6,0,0,1,1.25-.37,8.2,8.2,0,0,0,1.54-.38V134a.81.81,0,0,0-.23-.65,1.33,1.33,0,0,0-.85-.2,1.09,1.09,0,0,0-.65.17A1.14,1.14,0,0,0,454.24,133.9Zm2.12,1.29q-.3.09-1,.24a2.76,2.76,0,0,0-.86.27.67.67,0,0,0-.31.56.78.78,0,0,0,.24.57.86.86,0,0,0,.64.25,1.36,1.36,0,0,0,.81-.29,1,1,0,0,0,.38-.52,3.17,3.17,0,0,0,.06-.77Z"/><path d="M458.72,132.08h1.69l1.43,4.24,1.39-4.24h1.64l-2.11,5.75-.38,1a3.92,3.92,0,0,1-.4.8,1.85,1.85,0,0,1-.43.45,2.09,2.09,0,0,1-.6.27,3.35,3.35,0,0,1-.81.09,4.41,4.41,0,0,1-.89-.09l-.14-1.24a3.32,3.32,0,0,0,.67.07,1,1,0,0,0,.81-.32,2.3,2.3,0,0,0,.41-.83Z"/><path d="M418.72,167.15l1.63-.15a1.9,1.9,0,0,0,.59,1.19,1.78,1.78,0,0,0,1.21.39,1.9,1.9,0,0,0,1.21-.34,1,1,0,0,0,.41-.8.8.8,0,0,0-.17-.5,1.5,1.5,0,0,0-.6-.35c-.2-.07-.64-.19-1.34-.36a4.69,4.69,0,0,1-1.88-.82,2.17,2.17,0,0,1-.76-1.66,2.12,2.12,0,0,1,.36-1.18,2.27,2.27,0,0,1,1-.84,4.16,4.16,0,0,1,1.62-.28,3.44,3.44,0,0,1,2.34.68,2.39,2.39,0,0,1,.83,1.82l-1.67.07a1.42,1.42,0,0,0-.46-.92,1.69,1.69,0,0,0-1.05-.27,2,2,0,0,0-1.14.29.6.6,0,0,0-.26.52.65.65,0,0,0,.24.5,4.49,4.49,0,0,0,1.53.55,8.34,8.34,0,0,1,1.8.59,2.38,2.38,0,0,1,.91.84,2.46,2.46,0,0,1,.33,1.32,2.42,2.42,0,0,1-.39,1.32,2.32,2.32,0,0,1-1.12.92,4.65,4.65,0,0,1-1.79.3,3.57,3.57,0,0,1-2.4-.72A3.14,3.14,0,0,1,418.72,167.15Z"/><path d="M428,165.69l-1.43-.26a2.26,2.26,0,0,1,.83-1.29,3.13,3.13,0,0,1,1.76-.41,3.71,3.71,0,0,1,1.57.25,1.54,1.54,0,0,1,.73.63,3.3,3.3,0,0,1,.21,1.42v1.84a6.67,6.67,0,0,0,.07,1.17,3.4,3.4,0,0,0,.29.8h-1.57c0-.11-.09-.26-.15-.47l-.06-.18a3.15,3.15,0,0,1-.86.59,2.53,2.53,0,0,1-1,.19,2,2,0,0,1-1.45-.5,1.63,1.63,0,0,1-.53-1.26,1.74,1.74,0,0,1,.24-.91,1.62,1.62,0,0,1,.68-.61,5.17,5.17,0,0,1,1.25-.36,8.85,8.85,0,0,0,1.54-.39v-.16a.83.83,0,0,0-.23-.65,1.34,1.34,0,0,0-.85-.19,1.1,1.1,0,0,0-.65.16A1.17,1.17,0,0,0,428,165.69Zm2.12,1.28a8.15,8.15,0,0,1-1,.24,2.69,2.69,0,0,0-.86.28.64.64,0,0,0-.31.55.8.8,0,0,0,.24.58.88.88,0,0,0,.63.24,1.36,1.36,0,0,0,.82-.28,1,1,0,0,0,.38-.53,3.17,3.17,0,0,0,.06-.77Z"/><path d="M438.67,169.84h-1.58v-3.05a5.05,5.05,0,0,0-.1-1.25,1,1,0,0,0-.33-.45,1,1,0,0,0-.55-.15,1.26,1.26,0,0,0-.74.22,1.12,1.12,0,0,0-.45.6,5.17,5.17,0,0,0-.12,1.37v2.71h-1.58v-6h1.47v.88a2.38,2.38,0,0,1,2-1,2.32,2.32,0,0,1,1,.19,1.56,1.56,0,0,1,.65.48,1.68,1.68,0,0,1,.31.66,4.78,4.78,0,0,1,.09,1.06Z"/><path d="M443,163.86v1.26h-1.08v2.41a6.1,6.1,0,0,0,0,.85.35.35,0,0,0,.14.2.43.43,0,0,0,.27.08,2.08,2.08,0,0,0,.64-.15l.13,1.23a3.28,3.28,0,0,1-1.25.23,1.92,1.92,0,0,1-.77-.14,1.11,1.11,0,0,1-.5-.37,1.41,1.41,0,0,1-.22-.62,6.39,6.39,0,0,1-.06-1.11v-2.61h-.72v-1.26h.72v-1.19l1.59-.92v2.11Z"/><path d="M444.11,163.05v-1.46h1.58v1.46Zm0,6.79v-6h1.58v6Z"/><path d="M448.49,165.69l-1.43-.26a2.26,2.26,0,0,1,.83-1.29,3.11,3.11,0,0,1,1.76-.41,3.71,3.71,0,0,1,1.57.25,1.54,1.54,0,0,1,.73.63,3.3,3.3,0,0,1,.21,1.42v1.84a6.67,6.67,0,0,0,.07,1.17,3.4,3.4,0,0,0,.29.8h-1.57c0-.11-.09-.26-.15-.47l-.06-.18a3.15,3.15,0,0,1-.86.59,2.53,2.53,0,0,1-1,.19,2,2,0,0,1-1.45-.5,1.63,1.63,0,0,1-.53-1.26,1.74,1.74,0,0,1,.24-.91,1.65,1.65,0,0,1,.67-.61,5.27,5.27,0,0,1,1.26-.36,8.85,8.85,0,0,0,1.54-.39v-.16a.83.83,0,0,0-.23-.65,1.34,1.34,0,0,0-.85-.19,1.1,1.1,0,0,0-.65.16A1.17,1.17,0,0,0,448.49,165.69Zm2.12,1.28a8.15,8.15,0,0,1-1,.24,2.69,2.69,0,0,0-.86.28.64.64,0,0,0-.31.55.8.8,0,0,0,.24.58.88.88,0,0,0,.63.24,1.36,1.36,0,0,0,.82-.28,1,1,0,0,0,.38-.53,3.17,3.17,0,0,0,.06-.77Z"/><path d="M453.57,170.23l1.81.22a.59.59,0,0,0,.21.43,1.14,1.14,0,0,0,.71.17,1.91,1.91,0,0,0,.93-.18.75.75,0,0,0,.31-.4,2.34,2.34,0,0,0,.08-.73v-.87a2.14,2.14,0,0,1-1.79,1,2.2,2.2,0,0,1-1.91-1,3.44,3.44,0,0,1-.55-2,3.3,3.3,0,0,1,.72-2.3,2.32,2.32,0,0,1,1.8-.79,2.18,2.18,0,0,1,1.83,1v-.84h1.48v5.36a5.24,5.24,0,0,1-.18,1.59,2,2,0,0,1-.49.82,2.11,2.11,0,0,1-.84.46,4.18,4.18,0,0,1-1.33.17,3.41,3.41,0,0,1-2.15-.52,1.6,1.6,0,0,1-.64-1.32Zm1.42-3.5a2.14,2.14,0,0,0,.37,1.39,1.13,1.13,0,0,0,.91.44,1.24,1.24,0,0,0,1-.45,2,2,0,0,0,.4-1.34,2.07,2.07,0,0,0-.38-1.38,1.21,1.21,0,0,0-1-.45,1.13,1.13,0,0,0-.93.44A2,2,0,0,0,455,166.73Z"/><path d="M460.4,166.77a3.21,3.21,0,0,1,.38-1.53,2.72,2.72,0,0,1,1.1-1.13,3.39,3.39,0,0,1,1.59-.38,3,3,0,0,1,2.23.88,3.32,3.32,0,0,1,0,4.47,3,3,0,0,1-2.21.89,3.41,3.41,0,0,1-1.56-.37,2.56,2.56,0,0,1-1.14-1.09A3.61,3.61,0,0,1,460.4,166.77Zm1.62.08a2,2,0,0,0,.42,1.36,1.39,1.39,0,0,0,2.08,0,2,2,0,0,0,.42-1.37,2,2,0,0,0-.42-1.35,1.39,1.39,0,0,0-2.08,0A2,2,0,0,0,462,166.85Z"/><path d="M419.19,203.31v-8.18h1.67v6.79H425v1.39Z"/><path d="M426.18,196.52v-1.46h1.58v1.46Zm0,6.79v-6h1.58v6Z"/><path d="M429.26,197.33h1.46v.82a2.32,2.32,0,0,1,1.86-1,2,2,0,0,1,1,.23,1.84,1.84,0,0,1,.69.72,2.7,2.7,0,0,1,.85-.72,2,2,0,0,1,1-.23,2.29,2.29,0,0,1,1.12.26,1.65,1.65,0,0,1,.68.79,3.62,3.62,0,0,1,.16,1.24v3.82h-1.58v-3.42a2.74,2.74,0,0,0-.16-1.15.77.77,0,0,0-.68-.33,1.07,1.07,0,0,0-.63.2,1.14,1.14,0,0,0-.42.59,4.5,4.5,0,0,0-.13,1.24v2.87h-1.58V200a4.94,4.94,0,0,0-.08-1.12.78.78,0,0,0-.26-.38.87.87,0,0,0-.49-.12,1.13,1.13,0,0,0-.65.19,1,1,0,0,0-.42.57,4,4,0,0,0-.13,1.23v2.91h-1.58Z"/><path d="M440.81,199.15l-1.44-.25a2.26,2.26,0,0,1,.83-1.29,3.05,3.05,0,0,1,1.76-.41,3.76,3.76,0,0,1,1.58.25,1.56,1.56,0,0,1,.72.63,3.26,3.26,0,0,1,.22,1.42l0,1.84a6.67,6.67,0,0,0,.07,1.17,3.92,3.92,0,0,0,.29.8h-1.57c0-.11-.09-.26-.15-.47s0-.15-.05-.19a2.89,2.89,0,0,1-.87.6,2.53,2.53,0,0,1-1,.19,2,2,0,0,1-1.45-.5,1.66,1.66,0,0,1-.53-1.26,1.74,1.74,0,0,1,.24-.91,1.68,1.68,0,0,1,.68-.61,5.13,5.13,0,0,1,1.26-.36,8.68,8.68,0,0,0,1.53-.39v-.16a.82.82,0,0,0-.22-.65,1.36,1.36,0,0,0-.85-.19,1.15,1.15,0,0,0-.66.16A1.11,1.11,0,0,0,440.81,199.15Zm2.11,1.29a8.15,8.15,0,0,1-1,.24,2.69,2.69,0,0,0-.86.28.64.64,0,0,0-.31.55.77.77,0,0,0,.25.58.85.85,0,0,0,.63.24,1.42,1.42,0,0,0,.81-.28,1,1,0,0,0,.38-.53,3.17,3.17,0,0,0,.06-.77Z"/><path d="M424.43,230l1.61.51a3.69,3.69,0,0,1-1.23,2,3.88,3.88,0,0,1-4.9-.47,4.32,4.32,0,0,1-1.06-3.07,4.52,4.52,0,0,1,1.07-3.2,3.64,3.64,0,0,1,2.79-1.14,3.42,3.42,0,0,1,2.46.9A3.23,3.23,0,0,1,426,227l-1.65.39a1.7,1.7,0,0,0-1.74-1.38,1.88,1.88,0,0,0-1.49.66,3.23,3.23,0,0,0-.57,2.13,3.52,3.52,0,0,0,.56,2.23,1.85,1.85,0,0,0,1.47.66,1.67,1.67,0,0,0,1.14-.42A2.43,2.43,0,0,0,424.43,230Z"/><path d="M428.64,228.86l-1.43-.26a2.22,2.22,0,0,1,.83-1.28,3,3,0,0,1,1.75-.42,3.93,3.93,0,0,1,1.58.25,1.6,1.6,0,0,1,.73.64,3.3,3.3,0,0,1,.21,1.42l0,1.84a6.33,6.33,0,0,0,.08,1.16,3.2,3.2,0,0,0,.28.8h-1.56c0-.1-.09-.26-.15-.46l-.06-.19a2.85,2.85,0,0,1-.87.59,2.45,2.45,0,0,1-1,.2,2.07,2.07,0,0,1-1.46-.5,1.79,1.79,0,0,1-.29-2.17,1.61,1.61,0,0,1,.68-.61,5.55,5.55,0,0,1,1.26-.37,8.85,8.85,0,0,0,1.54-.39V229a.81.81,0,0,0-.23-.65,1.33,1.33,0,0,0-.85-.2,1.15,1.15,0,0,0-.66.17A1.2,1.2,0,0,0,428.64,228.86Zm2.12,1.28c-.21.07-.53.15-1,.25a3,3,0,0,0-.86.27.68.68,0,0,0-.31.56.79.79,0,0,0,.25.57.85.85,0,0,0,.63.25,1.37,1.37,0,0,0,.82-.29,1,1,0,0,0,.37-.52,2.61,2.61,0,0,0,.07-.77Z"/><path d="M435.38,233H433.8v-6h1.47v.85a2.64,2.64,0,0,1,.68-.8,1.31,1.31,0,0,1,.68-.19,2,2,0,0,1,1,.3l-.49,1.38a1.38,1.38,0,0,0-.74-.26.87.87,0,0,0-.56.18,1.28,1.28,0,0,0-.37.67,9.93,9.93,0,0,0-.13,2Z"/><path d="M439.53,228.86l-1.43-.26a2.27,2.27,0,0,1,.83-1.28,3,3,0,0,1,1.76-.42,3.87,3.87,0,0,1,1.57.25,1.55,1.55,0,0,1,.73.64,3.3,3.3,0,0,1,.21,1.42v1.84a6.54,6.54,0,0,0,.07,1.16,3.25,3.25,0,0,0,.29.8H442c0-.1-.09-.26-.15-.46l-.06-.19a2.94,2.94,0,0,1-.86.59,2.54,2.54,0,0,1-1,.2,2,2,0,0,1-1.45-.5,1.66,1.66,0,0,1-.53-1.27,1.68,1.68,0,0,1,.24-.9,1.5,1.5,0,0,1,.68-.61,5.6,5.6,0,0,1,1.25-.37,8.85,8.85,0,0,0,1.54-.39V229a.81.81,0,0,0-.23-.65,1.33,1.33,0,0,0-.85-.2,1.09,1.09,0,0,0-.65.17A1.14,1.14,0,0,0,439.53,228.86Zm2.12,1.28c-.2.07-.52.15-1,.25a2.76,2.76,0,0,0-.86.27.65.65,0,0,0-.31.56.78.78,0,0,0,.24.57.86.86,0,0,0,.64.25,1.36,1.36,0,0,0,.81-.29,1,1,0,0,0,.38-.52,3.17,3.17,0,0,0,.06-.77Z"/><path d="M450,228.81l-1.56.28a1.17,1.17,0,0,0-.35-.71,1.14,1.14,0,0,0-.73-.23,1.17,1.17,0,0,0-.94.41,2.1,2.1,0,0,0-.35,1.36,2.39,2.39,0,0,0,.36,1.5,1.17,1.17,0,0,0,1,.44,1,1,0,0,0,.73-.26,1.54,1.54,0,0,0,.41-.88l1.55.27a2.72,2.72,0,0,1-.93,1.61,2.82,2.82,0,0,1-1.84.55,2.75,2.75,0,0,1-2.09-.83,3.75,3.75,0,0,1,0-4.59,2.76,2.76,0,0,1,2.11-.83,2.92,2.92,0,0,1,1.74.47A2.57,2.57,0,0,1,450,228.81Z"/><path d="M452.35,228.86l-1.43-.26a2.27,2.27,0,0,1,.83-1.28,3,3,0,0,1,1.76-.42,3.87,3.87,0,0,1,1.57.25,1.55,1.55,0,0,1,.73.64,3.3,3.3,0,0,1,.21,1.42v1.84a6.54,6.54,0,0,0,.07,1.16,3.25,3.25,0,0,0,.29.8H454.8c0-.1-.09-.26-.15-.46l-.06-.19a2.94,2.94,0,0,1-.86.59,2.54,2.54,0,0,1-1,.2,2,2,0,0,1-1.45-.5,1.66,1.66,0,0,1-.53-1.27,1.68,1.68,0,0,1,.24-.9,1.5,1.5,0,0,1,.68-.61,5.6,5.6,0,0,1,1.25-.37,8.85,8.85,0,0,0,1.54-.39V229a.81.81,0,0,0-.23-.65,1.33,1.33,0,0,0-.85-.2,1.09,1.09,0,0,0-.65.17A1.14,1.14,0,0,0,452.35,228.86Zm2.12,1.28c-.2.07-.52.15-1,.25a2.76,2.76,0,0,0-.86.27.65.65,0,0,0-.31.56.78.78,0,0,0,.24.57.85.85,0,0,0,.63.25,1.37,1.37,0,0,0,.82-.29,1,1,0,0,0,.38-.52,3.17,3.17,0,0,0,.06-.77Z"/><path d="M457,231.31l1.59-.24a1.2,1.2,0,0,0,.41.7,1.41,1.41,0,0,0,.87.24,1.54,1.54,0,0,0,.92-.23.49.49,0,0,0,.21-.42.44.44,0,0,0-.11-.3,1.48,1.48,0,0,0-.53-.21,8.24,8.24,0,0,1-2.43-.77,1.54,1.54,0,0,1-.71-1.34,1.68,1.68,0,0,1,.62-1.31,2.87,2.87,0,0,1,1.9-.53,3.34,3.34,0,0,1,1.82.4,2,2,0,0,1,.82,1.18l-1.49.28a.88.88,0,0,0-.36-.53,1.28,1.28,0,0,0-.76-.19,1.81,1.81,0,0,0-.9.17.39.39,0,0,0-.18.33.36.36,0,0,0,.16.28,5.6,5.6,0,0,0,1.48.45,4.32,4.32,0,0,1,1.76.7,1.46,1.46,0,0,1,.5,1.18,1.8,1.8,0,0,1-.69,1.41,3.05,3.05,0,0,1-2,.59,3.3,3.3,0,0,1-1.93-.5A2.27,2.27,0,0,1,457,231.31Z"/><path d="M419.15,258.41h3.3a8.9,8.9,0,0,1,1.46.08,2,2,0,0,1,.86.34,2.1,2.1,0,0,1,.63.69,1.84,1.84,0,0,1,.26,1,2,2,0,0,1-.31,1.07,1.93,1.93,0,0,1-.85.72,2.22,2.22,0,0,1,1.16.75,2,2,0,0,1,.4,1.24,2.4,2.4,0,0,1-.26,1.1,2.19,2.19,0,0,1-.71.85,2.45,2.45,0,0,1-1.12.39c-.28,0-1,0-2,0h-2.81Zm1.67,1.37v1.91h1.09c.65,0,1,0,1.21,0a1.1,1.1,0,0,0,.67-.3.84.84,0,0,0,.25-.64.9.9,0,0,0-.21-.62.94.94,0,0,0-.63-.29c-.17,0-.64,0-1.43,0Zm0,3.28v2.2h1.54a6.73,6.73,0,0,0,1.14-.05,1,1,0,0,0,.61-.33,1,1,0,0,0,.23-.7,1.11,1.11,0,0,0-.18-.63,1,1,0,0,0-.52-.37,5.61,5.61,0,0,0-1.48-.12Z"/><path d="M427.09,263.58a3.21,3.21,0,0,1,.39-1.52,2.72,2.72,0,0,1,1.1-1.13,3.28,3.28,0,0,1,1.59-.39,3,3,0,0,1,2.22.88,3,3,0,0,1,.87,2.23,3.11,3.11,0,0,1-.87,2.25,3,3,0,0,1-2.21.89,3.45,3.45,0,0,1-1.57-.37,2.59,2.59,0,0,1-1.13-1.09A3.62,3.62,0,0,1,427.09,263.58Zm1.62.09a2,2,0,0,0,.43,1.36,1.34,1.34,0,0,0,1,.47,1.32,1.32,0,0,0,1-.47,2.43,2.43,0,0,0,0-2.73,1.32,1.32,0,0,0-1-.47,1.34,1.34,0,0,0-1,.47A2,2,0,0,0,428.71,263.67Z"/><path d="M434.35,267.05l1.81.22a.61.61,0,0,0,.21.43,1.18,1.18,0,0,0,.7.17,1.75,1.75,0,0,0,.93-.19.74.74,0,0,0,.32-.39,2.47,2.47,0,0,0,.07-.73v-.87a2.14,2.14,0,0,1-1.79,1,2.2,2.2,0,0,1-1.91-1,3.55,3.55,0,0,1-.55-2,3.25,3.25,0,0,1,.73-2.29,2.33,2.33,0,0,1,1.79-.8,2.19,2.19,0,0,1,1.83,1v-.84H440V266a5.57,5.57,0,0,1-.17,1.58,1.93,1.93,0,0,1-.49.82,2.12,2.12,0,0,1-.84.47,4.53,4.53,0,0,1-1.33.17,3.44,3.44,0,0,1-2.16-.52,1.65,1.65,0,0,1-.63-1.32Zm1.41-3.51a2.21,2.21,0,0,0,.37,1.4,1.16,1.16,0,0,0,.91.44,1.24,1.24,0,0,0,1-.46,1.93,1.93,0,0,0,.4-1.34,2.12,2.12,0,0,0-.38-1.38,1.23,1.23,0,0,0-1-.45,1.17,1.17,0,0,0-.94.45A2.08,2.08,0,0,0,435.76,263.54Z"/><path d="M441.17,263.58a3.21,3.21,0,0,1,.39-1.52,2.72,2.72,0,0,1,1.1-1.13,3.26,3.26,0,0,1,1.59-.39,3,3,0,0,1,2.22.88,3.3,3.3,0,0,1,0,4.48,3,3,0,0,1-2.2.89,3.45,3.45,0,0,1-1.57-.37,2.59,2.59,0,0,1-1.13-1.09A3.62,3.62,0,0,1,441.17,263.58Zm1.62.09a2,2,0,0,0,.42,1.36,1.38,1.38,0,0,0,1.05.47,1.33,1.33,0,0,0,1-.47,2.43,2.43,0,0,0,0-2.73,1.33,1.33,0,0,0-1-.47,1.38,1.38,0,0,0-1.05.47A2,2,0,0,0,442.79,263.67Z"/><path d="M451.32,260.68v1.26h-1.08v2.41a6.1,6.1,0,0,0,0,.85.35.35,0,0,0,.14.2.46.46,0,0,0,.27.08,2.1,2.1,0,0,0,.63-.15l.14,1.22a3.13,3.13,0,0,1-1.25.24,2.07,2.07,0,0,1-.77-.14,1.14,1.14,0,0,1-.51-.38,1.5,1.5,0,0,1-.22-.61,8.37,8.37,0,0,1-.05-1.12v-2.6h-.72v-1.26h.72v-1.19l1.59-.92v2.11Z"/><path d="M453.6,262.5l-1.44-.26A2.23,2.23,0,0,1,453,261a3,3,0,0,1,1.75-.42,3.93,3.93,0,0,1,1.58.25,1.66,1.66,0,0,1,.73.64,3.3,3.3,0,0,1,.21,1.42l0,1.84a5.53,5.53,0,0,0,.08,1.16,3.2,3.2,0,0,0,.28.8h-1.56a3.31,3.31,0,0,1-.16-.46,1.47,1.47,0,0,0-.05-.19,2.85,2.85,0,0,1-.87.59,2.53,2.53,0,0,1-1,.2,2.07,2.07,0,0,1-1.46-.5A1.68,1.68,0,0,1,452,265a1.71,1.71,0,0,1,.24-.9,1.55,1.55,0,0,1,.68-.61,5.55,5.55,0,0,1,1.26-.37,8.43,8.43,0,0,0,1.53-.39v-.15a.81.81,0,0,0-.22-.65,1.33,1.33,0,0,0-.85-.2,1.15,1.15,0,0,0-.66.17A1.07,1.07,0,0,0,453.6,262.5Zm2.11,1.28c-.2.07-.52.15-1,.25a2.76,2.76,0,0,0-.86.27.65.65,0,0,0-.31.56.75.75,0,0,0,.25.57.82.82,0,0,0,.63.25,1.34,1.34,0,0,0,.81-.29.92.92,0,0,0,.38-.52,3.17,3.17,0,0,0,.06-.77ZM454,260l.78-1.69h1.77L455,260Z"/><path d="M72.55,356.86l-8.1-8.1,6-6,1.37,1.37-4.37,4.37,1.79,1.79,4.07-4.06,1.37,1.36-4.07,4.07,2.2,2.2,4.53-4.52,1.36,1.36Z"/><path d="M85.42,344l-1.55,1.55-3-3a6.64,6.64,0,0,0-1.33-1.13,1.19,1.19,0,0,0-.76-.11,1.33,1.33,0,0,0-.69.38,1.73,1.73,0,0,0-.5.95,1.56,1.56,0,0,0,.14,1A7.49,7.49,0,0,0,79,345.13l2.66,2.66-1.55,1.55-5.87-5.87L75.65,342l.86.86a3.36,3.36,0,0,1,.94-2.93,3.28,3.28,0,0,1,1.13-.75,2.16,2.16,0,0,1,1.11-.17,2.28,2.28,0,0,1,1,.35,6.18,6.18,0,0,1,1.13,1Z"/><path d="M88.53,337.15l1.81-1.28a3.64,3.64,0,0,1,.35,2.23,3.88,3.88,0,0,1-1.17,2.06,3.69,3.69,0,0,1-3.26,1.26,4.77,4.77,0,0,1-2.6-1.44,4.64,4.64,0,0,1-1.53-3.05,3.55,3.55,0,0,1,1.11-2.75,3.69,3.69,0,0,1,2.93-1.2,5.4,5.4,0,0,1,3.37,1.92l-3.89,3.89a2.2,2.2,0,0,0,1.45.7,1.64,1.64,0,0,0,1.28-.51,1.32,1.32,0,0,0,.41-.81A1.69,1.69,0,0,0,88.53,337.15Zm-1.48-1.66a2.13,2.13,0,0,0-1.37-.67,1.54,1.54,0,0,0-1.16.45,1.52,1.52,0,0,0-.47,1.21,2,2,0,0,0,.68,1.33Z"/><path d="M94.78,334.64l-1.55,1.55-5.87-5.87,1.44-1.44.83.84a3.73,3.73,0,0,1-.11-1.45,1.73,1.73,0,0,1,.48-.86,3,3,0,0,1,1.32-.73l.87,1.84a1.92,1.92,0,0,0-1,.47,1.2,1.2,0,0,0-.37.74,1.63,1.63,0,0,0,.29,1,13.55,13.55,0,0,0,1.83,2.1Z"/><path d="M94.32,329.06a4.44,4.44,0,0,1-1.12-1.87,3.72,3.72,0,0,1,0-2.19,4.43,4.43,0,0,1,1.18-1.94,4.11,4.11,0,0,1,3-1.32,4.61,4.61,0,0,1,4.39,4.4,4.11,4.11,0,0,1-1.29,3,4.74,4.74,0,0,1-1.9,1.17,3.53,3.53,0,0,1-2.18,0A5,5,0,0,1,94.32,329.06Zm1.67-1.5a2.74,2.74,0,0,0,1.75.92,1.87,1.87,0,0,0,1.49-.56,1.81,1.81,0,0,0,.55-1.48,2.74,2.74,0,0,0-.93-1.76,2.77,2.77,0,0,0-1.74-.92,1.85,1.85,0,0,0-1.48.56,1.87,1.87,0,0,0-.56,1.49A2.77,2.77,0,0,0,96,327.56Z"/><path d="M90.65,366.7l-8.1-8.1,5.56-5.55,1.37,1.37-3.92,3.92,1.92,1.91,3.38-3.38,1.37,1.37-3.39,3.38,3.45,3.45Z"/><path d="M99.07,354.55l1.81-1.29a3.67,3.67,0,0,1,.35,2.24,3.86,3.86,0,0,1-1.17,2.05,3.69,3.69,0,0,1-3.26,1.27,4.77,4.77,0,0,1-2.6-1.44,4.6,4.6,0,0,1-1.52-3.05,3.49,3.49,0,0,1,1.1-2.75,3.67,3.67,0,0,1,2.93-1.21,5.42,5.42,0,0,1,3.37,1.93l-3.89,3.89a2.24,2.24,0,0,0,1.45.7,1.71,1.71,0,0,0,1.28-.51,1.44,1.44,0,0,0,.42-.82A1.77,1.77,0,0,0,99.07,354.55Zm-1.48-1.66a2.15,2.15,0,0,0-1.37-.68,1.59,1.59,0,0,0-1.63,1.67,2,2,0,0,0,.68,1.33Z"/><path d="M103.77,353.59l-8.1-8.1,1.55-1.55,2.92,2.91a3.12,3.12,0,0,1,.88-2.52,3.23,3.23,0,0,1,2.55-1,4.56,4.56,0,0,1,2.93,1.52,4.8,4.8,0,0,1,1.6,3,3.14,3.14,0,0,1-.93,2.55,3,3,0,0,1-1.24.74,3.34,3.34,0,0,1-1.58.1l.86.86ZM102.25,349a3.44,3.44,0,0,0,1.63,1.06,1.71,1.71,0,0,0,1.69-.45,1.56,1.56,0,0,0,.44-1.31,3,3,0,0,0-1-1.75,3.22,3.22,0,0,0-1.82-1.08,1.64,1.64,0,0,0-1.38.48,1.69,1.69,0,0,0-.49,1.37A2.81,2.81,0,0,0,102.25,349Z"/><path d="M112.23,345.12l-1.55,1.56-5.87-5.87,1.44-1.44.84.83a3.54,3.54,0,0,1-.12-1.44,1.78,1.78,0,0,1,.49-.86,2.7,2.7,0,0,1,1.31-.73l.87,1.83a1.89,1.89,0,0,0-1,.48,1.17,1.17,0,0,0-.37.73,1.7,1.7,0,0,0,.29,1,13.24,13.24,0,0,0,1.84,2.1Z"/><path d="M116.68,336.94l1.8-1.29a3.62,3.62,0,0,1,.36,2.24,4,4,0,0,1-1.17,2.06,3.7,3.7,0,0,1-3.26,1.26,4.83,4.83,0,0,1-2.61-1.44,4.58,4.58,0,0,1-1.52-3,3.58,3.58,0,0,1,1.1-2.75,3.71,3.71,0,0,1,2.93-1.2,5.4,5.4,0,0,1,3.38,1.92l-3.89,3.89a2.22,2.22,0,0,0,1.45.7,1.65,1.65,0,0,0,1.28-.51,1.32,1.32,0,0,0,.41-.81A1.76,1.76,0,0,0,116.68,336.94Zm-1.48-1.66a2.13,2.13,0,0,0-1.38-.67,1.49,1.49,0,0,0-1.15.45,1.52,1.52,0,0,0-.47,1.21,2,2,0,0,0,.68,1.33Z"/><path d="M122.92,334.43,121.37,336l-5.86-5.87,1.44-1.44.83.84a3.55,3.55,0,0,1-.11-1.45,1.73,1.73,0,0,1,.48-.86,2.85,2.85,0,0,1,1.32-.73l.87,1.84a1.92,1.92,0,0,0-1,.47,1.21,1.21,0,0,0-.38.73,1.73,1.73,0,0,0,.3,1,12.48,12.48,0,0,0,1.83,2.1Z"/><path d="M122.47,328.85a4.44,4.44,0,0,1-1.12-1.87,3.72,3.72,0,0,1,0-2.19,4.63,4.63,0,0,1,1.18-1.94,4.15,4.15,0,0,1,3-1.32,4.25,4.25,0,0,1,3,1.34,4.33,4.33,0,0,1,1.35,3.06,4.11,4.11,0,0,1-1.29,3,4.71,4.71,0,0,1-1.91,1.17,3.53,3.53,0,0,1-2.18.05A5,5,0,0,1,122.47,328.85Zm1.67-1.5a2.79,2.79,0,0,0,1.75.92,1.91,1.91,0,0,0,2-2,2.74,2.74,0,0,0-.93-1.76,2.77,2.77,0,0,0-1.74-.92,1.87,1.87,0,0,0-1.49.56,1.84,1.84,0,0,0-.55,1.48A2.77,2.77,0,0,0,124.14,327.35Z"/><path d="M121.15,357.51l-8.1-8.1L115.5,347l7,4.06-4.07-7,2.45-2.45,8.1,8.1-1.52,1.52-6.38-6.38,4.77,8-1.57,1.58-8-4.78,6.38,6.38Z"/><path d="M127.67,342.84,126,344a3.12,3.12,0,0,1-.44-2.08,4.23,4.23,0,0,1,1.31-2.13,5.47,5.47,0,0,1,1.8-1.3,2.25,2.25,0,0,1,1.34-.09,4.47,4.47,0,0,1,1.59,1.18l1.8,1.83a9.66,9.66,0,0,0,1.21,1.07,5.61,5.61,0,0,0,1.07.51l-1.53,1.53a5,5,0,0,1-.61-.31l-.24-.13a4,4,0,0,1-.27,1.43,3.45,3.45,0,0,1-.77,1.17,2.86,2.86,0,0,1-1.92.93,2.32,2.32,0,0,1-1.77-.72,2.38,2.38,0,0,1-.65-1.12,2.21,2.21,0,0,1,.07-1.27,7.7,7.7,0,0,1,.87-1.59A11.64,11.64,0,0,0,130,341l-.15-.16a1.13,1.13,0,0,0-.86-.41,1.85,1.85,0,0,0-1,.64,1.67,1.67,0,0,0-.48.81A1.57,1.57,0,0,0,127.67,342.84ZM131,342a13.34,13.34,0,0,1-.71,1.18,4.41,4.41,0,0,0-.57,1.12.92.92,0,0,0,.24.85,1.09,1.09,0,0,0,.81.32,1.23,1.23,0,0,0,.86-.38,1.9,1.9,0,0,0,.52-1.08,1.37,1.37,0,0,0-.14-.88,4.12,4.12,0,0,0-.7-.82Z"/><path d="M138.36,340.3l-1.55,1.55L130.94,336l1.44-1.44.84.83a3.54,3.54,0,0,1-.12-1.44,1.82,1.82,0,0,1,.49-.86,2.78,2.78,0,0,1,1.31-.73l.87,1.83a2,2,0,0,0-1,.48,1.2,1.2,0,0,0-.37.73,1.73,1.73,0,0,0,.29,1,12.88,12.88,0,0,0,1.84,2.09Z"/><path d="M140.65,338l-1.21-1.21-.32-4.72c-.05-.77-.08-1.33-.08-1.68-.17.19-.4.44-.69.74l-2.06,2.08L135,331.92l4.85-4.85,1.1,1.1.34,4.83.07,1.64.76-.84,2.4-2.4,1.37,1.37Z"/><path d="M143.56,329.06a4.44,4.44,0,0,1-1.12-1.87,3.72,3.72,0,0,1,0-2.19,4.43,4.43,0,0,1,1.18-1.94,4.11,4.11,0,0,1,3-1.32,4.61,4.61,0,0,1,4.39,4.4,4.11,4.11,0,0,1-1.29,3,4.74,4.74,0,0,1-1.9,1.17,3.53,3.53,0,0,1-2.18,0A5,5,0,0,1,143.56,329.06Zm1.67-1.5a2.74,2.74,0,0,0,1.75.92,1.87,1.87,0,0,0,1.49-.56,1.81,1.81,0,0,0,.55-1.48,3.36,3.36,0,0,0-2.67-2.68,1.85,1.85,0,0,0-1.48.56,1.87,1.87,0,0,0-.56,1.49A2.77,2.77,0,0,0,145.23,327.56Z"/><path d="M163.54,343.06l-1.78,1.78-2.55-1.14L156,346.94l1.17,2.51-1.73,1.73-4.94-11.25,1.72-1.73Zm-6.22-.2L153.2,341l1.91,4.1Z"/><path d="M164.33,342.27l-8.1-8.1,1.55-1.55,2.92,2.91a3.09,3.09,0,0,1,.88-2.52,3.26,3.26,0,0,1,2.55-1,4.59,4.59,0,0,1,2.93,1.52,4.87,4.87,0,0,1,1.6,3,3.14,3.14,0,0,1-.93,2.55,2.88,2.88,0,0,1-1.24.74,3.21,3.21,0,0,1-1.58.1l.86.86Zm-1.52-4.61a3.51,3.51,0,0,0,1.63,1.07,1.73,1.73,0,0,0,1.69-.46,1.53,1.53,0,0,0,.44-1.31,3,3,0,0,0-1-1.75,3.22,3.22,0,0,0-1.82-1.08,1.61,1.61,0,0,0-1.38.49,1.65,1.65,0,0,0-.49,1.36A2.78,2.78,0,0,0,162.81,337.66Z"/><path d="M172.79,333.8l-1.55,1.56-5.87-5.87,1.44-1.44.84.83a3.54,3.54,0,0,1-.12-1.44,1.78,1.78,0,0,1,.49-.86,2.7,2.7,0,0,1,1.31-.73l.87,1.83a1.85,1.85,0,0,0-1,.48,1.2,1.2,0,0,0-.37.73,1.68,1.68,0,0,0,.29,1A13.24,13.24,0,0,0,171,332Z"/><path d="M169,324.22l-1.43-1.43,1.55-1.55,1.44,1.43Zm6.67,6.67L169.84,325l1.55-1.55,5.87,5.86Z"/><path d="M178.85,327.74l-8.1-8.09,1.55-1.56,8.1,8.1Z"/><path d="M174.15,353.74l-8.09-8.1,2.44-2.44,7,4.05-4.07-7,2.45-2.45,8.1,8.1-1.52,1.52-6.38-6.38,4.77,8-1.57,1.57-8-4.77,6.37,6.37Z"/><path d="M180.67,339.07,179,340.22a3,3,0,0,1-.44-2.07,4.25,4.25,0,0,1,1.31-2.14,5.37,5.37,0,0,1,1.8-1.3,2.25,2.25,0,0,1,1.34-.09,4.6,4.6,0,0,1,1.59,1.18l1.8,1.83a9,9,0,0,0,1.21,1.07,5.34,5.34,0,0,0,1.07.51l-1.54,1.53a6,6,0,0,1-.6-.31l-.24-.12a4.09,4.09,0,0,1-.27,1.43,3.54,3.54,0,0,1-.78,1.16,2.82,2.82,0,0,1-1.92.93,2.31,2.31,0,0,1-1.76-.72,2.33,2.33,0,0,1-.65-1.12,2.17,2.17,0,0,1,.07-1.26,7.49,7.49,0,0,1,.87-1.6,11.64,11.64,0,0,0,1.13-1.89l-.16-.15a1.12,1.12,0,0,0-.86-.42,1.86,1.86,0,0,0-1,.64,1.52,1.52,0,0,0-.48.81A1.61,1.61,0,0,0,180.67,339.07Zm3.34-.82a12,12,0,0,1-.71,1.18,3.93,3.93,0,0,0-.57,1.12.91.91,0,0,0,.24.85,1.09,1.09,0,0,0,.81.32,1.17,1.17,0,0,0,.85-.38,1.91,1.91,0,0,0,.53-1.08,1.37,1.37,0,0,0-.14-.88,4.88,4.88,0,0,0-.7-.82Z"/><path d="M183.28,332.88l1.65-1.65L190.5,334l-2.79-5.53,1.6-1.61,3.58,7.72.65,1.39a6,6,0,0,1,.4,1.17,2.55,2.55,0,0,1,0,.87,2.75,2.75,0,0,1-.33.85,4.19,4.19,0,0,1-.7.89,5.53,5.53,0,0,1-1,.78l-1.36-1.08a3.8,3.8,0,0,0,.73-.58,1.35,1.35,0,0,0,.49-1.12,3.28,3.28,0,0,0-.41-1.21Z"/><path d="M192.8,329.06a4.44,4.44,0,0,1-1.12-1.87,3.72,3.72,0,0,1,0-2.19,4.43,4.43,0,0,1,1.18-1.94,4.11,4.11,0,0,1,3-1.32,4.61,4.61,0,0,1,4.39,4.4,4.11,4.11,0,0,1-1.29,3,4.74,4.74,0,0,1-1.9,1.17,3.53,3.53,0,0,1-2.18,0A5,5,0,0,1,192.8,329.06Zm1.67-1.5a2.77,2.77,0,0,0,1.75.92,1.87,1.87,0,0,0,1.49-.56,1.85,1.85,0,0,0,.56-1.48,2.8,2.8,0,0,0-.94-1.76,2.72,2.72,0,0,0-1.74-.92,1.85,1.85,0,0,0-1.48.56,1.87,1.87,0,0,0-.56,1.49A2.77,2.77,0,0,0,194.47,327.56Z"/><path d="M195.9,343.74l1.63-1.63,5.13,5.12A7.57,7.57,0,0,1,204,349a3.1,3.1,0,0,1,.27,2,4,4,0,0,1-1.22,2.08,3.44,3.44,0,0,1-2.51,1.17,3.85,3.85,0,0,1-2.63-1.32l1.37-1.71a3,3,0,0,0,1.19.77,1.21,1.21,0,0,0,1.24-.37,1.25,1.25,0,0,0,.46-1.08,3.43,3.43,0,0,0-1.07-1.52Z"/><path d="M211.22,344.61l-.88-.87a3.16,3.16,0,0,1-.1,1.58,3.44,3.44,0,0,1-.83,1.37,3.06,3.06,0,0,1-1.32.8,2.13,2.13,0,0,1-1.41-.05,4.37,4.37,0,0,1-1.51-1.09l-3.71-3.71,1.55-1.55,2.7,2.7a10.86,10.86,0,0,0,1.6,1.43,1.16,1.16,0,0,0,.75.13,1.42,1.42,0,0,0,.74-.41,1.75,1.75,0,0,0,.49-.94,1.51,1.51,0,0,0-.11-1,8.9,8.9,0,0,0-1.46-1.7l-2.48-2.47,1.55-1.55,5.87,5.86Z"/><path d="M219.61,336.23l-1.56,1.55-3-3a6.3,6.3,0,0,0-1.33-1.13,1.19,1.19,0,0,0-.76-.11,1.26,1.26,0,0,0-.69.38,1.7,1.7,0,0,0-.5.95,1.56,1.56,0,0,0,.14,1,7.79,7.79,0,0,0,1.23,1.47l2.66,2.65-1.55,1.56-5.87-5.87,1.44-1.44.86.86a3.38,3.38,0,0,1,2.07-3.68,2.18,2.18,0,0,1,1.11-.17,2.41,2.41,0,0,1,1,.34,7.13,7.13,0,0,1,1.13,1Z"/><path d="M214.52,328l-1.44-1.43,1.55-1.56,1.44,1.44Zm6.66,6.66-5.87-5.86,1.55-1.56,5.87,5.87Z"/><path d="M221,328.85a4.44,4.44,0,0,1-1.12-1.87,3.64,3.64,0,0,1,0-2.19,4.43,4.43,0,0,1,1.18-1.94,4.11,4.11,0,0,1,3-1.32,4.61,4.61,0,0,1,4.39,4.4,4.11,4.11,0,0,1-1.29,3,4.74,4.74,0,0,1-1.9,1.17,3.56,3.56,0,0,1-2.19.05A5,5,0,0,1,221,328.85Zm1.67-1.5a2.79,2.79,0,0,0,1.75.92,1.91,1.91,0,0,0,2-2,2.74,2.74,0,0,0-.93-1.76,2.77,2.77,0,0,0-1.74-.92,1.92,1.92,0,0,0-2,2A2.77,2.77,0,0,0,222.62,327.35Z"/><path d="M220.76,340.18l1.63-1.63,5.13,5.13a7.56,7.56,0,0,1,1.37,1.72,3.13,3.13,0,0,1,.27,2,4,4,0,0,1-1.22,2.07,3.49,3.49,0,0,1-2.51,1.18,3.93,3.93,0,0,1-2.63-1.32l1.37-1.72a3,3,0,0,0,1.19.78,1.25,1.25,0,0,0,1.24-.37,1.28,1.28,0,0,0,.46-1.09,3.48,3.48,0,0,0-1.07-1.52Z"/><path d="M236.08,341.06l-.88-.88a3.15,3.15,0,0,1-.1,1.58,3.37,3.37,0,0,1-.83,1.37,3.08,3.08,0,0,1-1.32.81,2.19,2.19,0,0,1-1.41-.05A4.66,4.66,0,0,1,230,342.8l-3.71-3.71,1.55-1.56,2.7,2.7a10.86,10.86,0,0,0,1.6,1.43,1.16,1.16,0,0,0,.75.13,1.35,1.35,0,0,0,.74-.41,1.76,1.76,0,0,0,.49-.93,1.51,1.51,0,0,0-.11-1,8.6,8.6,0,0,0-1.46-1.7l-2.48-2.48,1.55-1.55,5.87,5.87Z"/><path d="M239.13,338l-8.1-8.1,1.55-1.55,8.1,8.1Z"/><path d="M235.61,328.2l-1.44-1.43,1.56-1.56,1.43,1.44Zm6.66,6.67L236.4,329l1.56-1.55,5.86,5.86Z"/><path d="M242,329.06a4.44,4.44,0,0,1-1.12-1.87,3.72,3.72,0,0,1,0-2.19,4.43,4.43,0,0,1,1.18-1.94,4.11,4.11,0,0,1,3-1.32,4.61,4.61,0,0,1,4.39,4.4,4.11,4.11,0,0,1-1.29,3,4.74,4.74,0,0,1-1.9,1.17,3.53,3.53,0,0,1-2.18,0A5,5,0,0,1,242,329.06Zm1.67-1.5a2.77,2.77,0,0,0,1.75.92,1.87,1.87,0,0,0,1.49-.56,1.85,1.85,0,0,0,.56-1.48,2.8,2.8,0,0,0-.94-1.76,2.72,2.72,0,0,0-1.74-.92,1.85,1.85,0,0,0-1.48.56,1.87,1.87,0,0,0-.56,1.49A2.77,2.77,0,0,0,243.71,327.56Z"/><path d="M248.83,356.25,247.05,358l-2.55-1.13-3.24,3.23,1.17,2.51-1.73,1.74-4.95-11.26,1.73-1.73Zm-6.22-.19-4.12-1.89,1.91,4.1Z"/><path d="M249.92,355.92l2-1.55a.89.89,0,0,0,.63.22,1.68,1.68,0,0,0,.86-.53,2.51,2.51,0,0,0,.73-1.1,1,1,0,0,0-.08-.7,3,3,0,0,0-.64-.78l-.86-.86a3,3,0,0,1-.8,2.71,3.08,3.08,0,0,1-2.88.87,4.8,4.8,0,0,1-2.5-1.43,4.56,4.56,0,0,1-1.55-3,3.27,3.27,0,0,1,1-2.54,3,3,0,0,1,2.75-.84l-.82-.83,1.45-1.45,5.26,5.26a7.44,7.44,0,0,1,1.39,1.73,2.79,2.79,0,0,1,.32,1.29,2.89,2.89,0,0,1-.37,1.28,5.75,5.75,0,0,1-1.14,1.47,4.79,4.79,0,0,1-2.62,1.61,2.29,2.29,0,0,1-1.92-.67Zm-2-4.83a3,3,0,0,0,1.73,1,1.54,1.54,0,0,0,1.32-.46,1.73,1.73,0,0,0,.52-1.4,2.71,2.71,0,0,0-.92-1.71,2.9,2.9,0,0,0-1.73-1,1.67,1.67,0,0,0-1.4.51,1.61,1.61,0,0,0-.48,1.35A2.88,2.88,0,0,0,247.87,351.09Z"/><path d="M253.22,345.82A4.44,4.44,0,0,1,252.1,344a3.64,3.64,0,0,1,0-2.19,4.43,4.43,0,0,1,1.18-1.94,4.11,4.11,0,0,1,3-1.32,4.61,4.61,0,0,1,4.39,4.4,4.11,4.11,0,0,1-1.29,3,4.74,4.74,0,0,1-1.9,1.17,3.56,3.56,0,0,1-2.19.05A5,5,0,0,1,253.22,345.82Zm1.67-1.5a2.74,2.74,0,0,0,1.75.92,1.91,1.91,0,0,0,2-2,2.74,2.74,0,0,0-.93-1.76,2.77,2.77,0,0,0-1.74-.92,1.92,1.92,0,0,0-2,2A2.77,2.77,0,0,0,254.89,344.32Z"/><path d="M261.28,340.44l1.32-1.79a1.63,1.63,0,0,0,1.09.28,1.93,1.93,0,0,0,1.09-.61,2.13,2.13,0,0,0,.68-1.13.66.66,0,0,0-.21-.62.53.53,0,0,0-.4-.18,1.74,1.74,0,0,0-.72.31,12,12,0,0,1-3.14,1.63,2.13,2.13,0,0,1-2-.63,2.34,2.34,0,0,1-.68-1.88,4,4,0,0,1,1.35-2.39,4.53,4.53,0,0,1,2.18-1.39,2.8,2.8,0,0,1,2,.35l-1.19,1.73a1.27,1.27,0,0,0-.88-.16,1.86,1.86,0,0,0-.94.56,2.42,2.42,0,0,0-.7,1.05.51.51,0,0,0,.14.49.46.46,0,0,0,.43.13,8.67,8.67,0,0,0,1.89-1,6.17,6.17,0,0,1,2.42-1.05,2.06,2.06,0,0,1,1.64.67,2.48,2.48,0,0,1,.71,2.06,4.2,4.2,0,0,1-1.41,2.58,4.6,4.6,0,0,1-2.38,1.41A3.15,3.15,0,0,1,261.28,340.44Z"/><path d="M266.62,326.72l1.24,1.24L266.8,329l2.36,2.36a8.5,8.5,0,0,0,.87.81.47.47,0,0,0,.33.06.56.56,0,0,0,.34-.19,2.78,2.78,0,0,0,.48-.77l1.33,1.07a4.21,4.21,0,0,1-1,1.46,2.75,2.75,0,0,1-.9.62,1.61,1.61,0,0,1-.86.13,2.17,2.17,0,0,1-.82-.39,11.75,11.75,0,0,1-1.14-1.05l-2.56-2.55-.72.71-1.23-1.24.71-.71-1.16-1.17.65-2.46,2.07,2.07Z"/><path d="M270.19,328.85a4.44,4.44,0,0,1-1.12-1.87,3.64,3.64,0,0,1,0-2.19,4.43,4.43,0,0,1,1.18-1.94,4.11,4.11,0,0,1,3-1.32,4.61,4.61,0,0,1,4.39,4.4,4.11,4.11,0,0,1-1.29,3,4.74,4.74,0,0,1-1.9,1.17,3.56,3.56,0,0,1-2.19.05A5,5,0,0,1,270.19,328.85Zm1.67-1.5a2.79,2.79,0,0,0,1.75.92,1.91,1.91,0,0,0,2-2,2.74,2.74,0,0,0-.93-1.76,2.77,2.77,0,0,0-1.74-.92,1.92,1.92,0,0,0-2,2A2.77,2.77,0,0,0,271.86,327.35Z"/><path d="M236.91,384.2l1.44-1.75a2.75,2.75,0,0,0,1.76.6,3,3,0,0,0,2.41-2.34,1.38,1.38,0,0,0-.38-1.18,1,1,0,0,0-.66-.32,2,2,0,0,0-.94.24c-.25.12-.81.44-1.66.95a6.31,6.31,0,0,1-2.64,1.05,3,3,0,0,1-3.19-2.4,3.17,3.17,0,0,1,.19-1.83,5.7,5.7,0,0,1,1.32-1.87,4.81,4.81,0,0,1,3-1.63,3.35,3.35,0,0,1,2.59,1l-1.56,1.71a2,2,0,0,0-1.35-.44,2.29,2.29,0,0,0-1.31.76,2.61,2.61,0,0,0-.82,1.41.83.83,0,0,0,.24.76.91.91,0,0,0,.74.25,6.34,6.34,0,0,0,2-1,11.16,11.16,0,0,1,2.35-1.19,3.25,3.25,0,0,1,1.72-.07,3.63,3.63,0,0,1,2.53,2.66,3.3,3.3,0,0,1-.19,2,6.69,6.69,0,0,1-1.47,2.05,4.9,4.9,0,0,1-3.07,1.65A4.33,4.33,0,0,1,236.91,384.2Z"/><path d="M249,373.62l1.81-1.29a3.53,3.53,0,0,1,.35,2.24,3.91,3.91,0,0,1-1.16,2.05,3.71,3.71,0,0,1-3.27,1.27,4.81,4.81,0,0,1-2.6-1.44,4.6,4.6,0,0,1-1.52-3.05,3.53,3.53,0,0,1,1.1-2.75,3.68,3.68,0,0,1,2.93-1.21,5.45,5.45,0,0,1,3.37,1.93l-3.88,3.89a2.22,2.22,0,0,0,1.45.7,1.69,1.69,0,0,0,1.27-.51,1.33,1.33,0,0,0,.42-.82A1.77,1.77,0,0,0,249,373.62ZM247.54,372a2.13,2.13,0,0,0-1.37-.68,1.59,1.59,0,0,0-1.63,1.67,2.07,2.07,0,0,0,.68,1.33Z"/><path d="M247.87,366.77l1.45-1.45.86.86a3.1,3.1,0,0,1,0-1.48,2.93,2.93,0,0,1,.79-1.34,3.16,3.16,0,0,1,2.53-.93,4.57,4.57,0,0,1,2.95,1.51,4.71,4.71,0,0,1,1.56,3,3.14,3.14,0,0,1-.92,2.55,2.63,2.63,0,0,1-1.08.69,4.3,4.3,0,0,1-1.49.17l3,2.95L256,374.87Zm4.37,1.3a3.16,3.16,0,0,0,1.86,1.06,1.67,1.67,0,0,0,1.43-.48,1.57,1.57,0,0,0,.46-1.33,3.14,3.14,0,0,0-1.06-1.78,3,3,0,0,0-1.74-1,1.6,1.6,0,0,0-1.37.47,1.7,1.7,0,0,0-.5,1.38A2.79,2.79,0,0,0,252.24,368.07Z"/><path d="M257.52,357.12l1.24,1.24-1.06,1.06,2.36,2.37a9.15,9.15,0,0,0,.87.8.47.47,0,0,0,.33.06.56.56,0,0,0,.34-.19,2.78,2.78,0,0,0,.48-.77l1.33,1.07a4.21,4.21,0,0,1-1,1.46,2.75,2.75,0,0,1-.9.62,1.61,1.61,0,0,1-.86.13,2.24,2.24,0,0,1-.82-.39,12.63,12.63,0,0,1-1.14-1L256.14,361l-.71.71-1.24-1.24.71-.71-1.16-1.16.65-2.47,2.07,2.07Z"/><path d="M257.8,355.25l-1.43-1.44,1.55-1.55,1.44,1.44Zm6.66,6.66-5.86-5.86,1.55-1.56,5.87,5.87Z"/><path d="M269.14,353.5l1.8-1.28a3.58,3.58,0,0,1,.36,2.23,3.85,3.85,0,0,1-1.17,2.06,3.7,3.7,0,0,1-3.26,1.26,4.65,4.65,0,0,1-2.6-1.44,4.57,4.57,0,0,1-1.53-3,3.57,3.57,0,0,1,1.11-2.76,3.68,3.68,0,0,1,2.93-1.2,5.38,5.38,0,0,1,3.37,1.93l-3.89,3.89a2.21,2.21,0,0,0,1.45.69,1.64,1.64,0,0,0,1.28-.51,1.32,1.32,0,0,0,.41-.81A1.69,1.69,0,0,0,269.14,353.5Zm-1.48-1.65a2.1,2.1,0,0,0-1.38-.68,1.59,1.59,0,0,0-1.62,1.67,2,2,0,0,0,.68,1.33Z"/><path d="M267.92,346.73l1.43-1.44.8.81a3.29,3.29,0,0,1,.89-2.77,2.84,2.84,0,0,1,1.21-.74,2.5,2.5,0,0,1,1.38,0,3.84,3.84,0,0,1,.14-1.54,2.84,2.84,0,0,1,.72-1.18,3,3,0,0,1,1.36-.83,2.24,2.24,0,0,1,1.44.1,4.71,4.71,0,0,1,1.37,1l3.75,3.75-1.55,1.56-3.35-3.36a3.43,3.43,0,0,0-1.29-1,1,1,0,0,0-1,.33,1.51,1.51,0,0,0-.42.81,1.57,1.57,0,0,0,.17,1,5.91,5.91,0,0,0,1.09,1.34l2.81,2.81-1.55,1.56-3.22-3.22a6.33,6.33,0,0,0-1.18-1,1,1,0,0,0-.63-.11,1.13,1.13,0,0,0-.59.35,1.67,1.67,0,0,0-.46.84,1.53,1.53,0,0,0,.15,1,5.78,5.78,0,0,0,1.09,1.33l2.85,2.85-1.56,1.55Z"/><path d="M283.89,342.48l-8.09-8.1,1.55-1.55,2.91,2.92a3.13,3.13,0,0,1,.89-2.52,3.24,3.24,0,0,1,2.55-1,4.56,4.56,0,0,1,2.93,1.53,4.82,4.82,0,0,1,1.6,3,3.18,3.18,0,0,1-.93,2.55,3.09,3.09,0,0,1-1.24.74,3.37,3.37,0,0,1-1.59.1l.87.86Zm-1.52-4.6a3.54,3.54,0,0,0,1.64,1.06,1.74,1.74,0,0,0,1.69-.45,1.57,1.57,0,0,0,.44-1.32,3.13,3.13,0,0,0-1-1.74,3.28,3.28,0,0,0-1.81-1.09,1.7,1.7,0,0,0-1.87,1.85A2.78,2.78,0,0,0,282.37,337.88Z"/><path d="M292.36,334l-1.56,1.55-5.86-5.86,1.44-1.45.83.84a3.72,3.72,0,0,1-.11-1.45,1.73,1.73,0,0,1,.48-.86,2.9,2.9,0,0,1,1.32-.73l.87,1.84a1.92,1.92,0,0,0-1,.47,1.2,1.2,0,0,0-.37.74,1.63,1.63,0,0,0,.29,1,13,13,0,0,0,1.83,2.1Z"/><path d="M296.8,325.84l1.81-1.29a3.53,3.53,0,0,1,.35,2.24,3.91,3.91,0,0,1-1.16,2,3.71,3.71,0,0,1-3.27,1.27,4.81,4.81,0,0,1-2.6-1.44,4.6,4.6,0,0,1-1.52-3.05,3.53,3.53,0,0,1,1.1-2.75,3.63,3.63,0,0,1,2.93-1.2,5.38,5.38,0,0,1,3.37,1.92l-3.88,3.89a2.22,2.22,0,0,0,1.45.7,1.69,1.69,0,0,0,1.27-.51,1.39,1.39,0,0,0,.42-.82A1.77,1.77,0,0,0,296.8,325.84Zm-1.48-1.66a2.13,2.13,0,0,0-1.37-.68,1.59,1.59,0,0,0-1.63,1.67,2.07,2.07,0,0,0,.68,1.33Z"/><path d="M282,364.3a7.2,7.2,0,0,1-1.71-2.45A5.39,5.39,0,0,1,280,360a4.48,4.48,0,0,1,.32-1.78,6.28,6.28,0,0,1,1.43-2.07,5.4,5.4,0,0,1,4-1.75,7,7,0,0,1,6.17,6.15,6,6,0,0,1-5.72,5.73A5.93,5.93,0,0,1,282,364.3Zm1.63-1.74a4.3,4.3,0,0,0,2.72,1.45,3.1,3.1,0,0,0,3.22-3.21,4.37,4.37,0,0,0-1.48-2.74,4.32,4.32,0,0,0-2.69-1.47,3.18,3.18,0,0,0-3.24,3.26A4.34,4.34,0,0,0,283.65,362.56Z"/><path d="M296.12,349.93l-1.25,1.81a1.54,1.54,0,0,0-1-.34,1.46,1.46,0,0,0-.95.47,1.66,1.66,0,0,0-.52,1.33,2.91,2.91,0,0,0,1,1.68,3.35,3.35,0,0,0,1.83,1.13,1.64,1.64,0,0,0,1.37-.51,1.46,1.46,0,0,0,.47-1,2.15,2.15,0,0,0-.46-1.26l1.78-1.26a3.83,3.83,0,0,1,.68,2.49,4,4,0,0,1-1.27,2.34,3.78,3.78,0,0,1-2.87,1.24,4.43,4.43,0,0,1-3-1.48,4.48,4.48,0,0,1-1.5-3,3.92,3.92,0,0,1,1.27-2.89,4.09,4.09,0,0,1,2.17-1.24A3.6,3.6,0,0,1,296.12,349.93Z"/><path d="M298.25,344.33l1.24,1.23-1.06,1.07,2.36,2.36a8.5,8.5,0,0,0,.87.81.49.49,0,0,0,.34.05.67.67,0,0,0,.34-.18,2.81,2.81,0,0,0,.47-.77l1.34,1.07a4.49,4.49,0,0,1-1,1.46,2.78,2.78,0,0,1-.89.61,1.53,1.53,0,0,1-.86.13,2,2,0,0,1-.83-.38,11.75,11.75,0,0,1-1.14-1.05l-2.56-2.56-.71.72-1.24-1.24.71-.71-1.16-1.17.65-2.46,2.07,2.07Z"/><path d="M309.06,345.26l-.88-.88a3.16,3.16,0,0,1-.1,1.58,3.37,3.37,0,0,1-.83,1.37,3.06,3.06,0,0,1-1.32.8,2.13,2.13,0,0,1-1.41-.05A4.46,4.46,0,0,1,303,347l-3.71-3.72,1.55-1.55,2.69,2.7a10.71,10.71,0,0,0,1.61,1.43,1.16,1.16,0,0,0,.75.13,1.35,1.35,0,0,0,.74-.41,1.75,1.75,0,0,0,.49-.94,1.52,1.52,0,0,0-.11-1,8.9,8.9,0,0,0-1.46-1.7l-2.48-2.47,1.55-1.55,5.87,5.86Z"/><path d="M312,342.27l-8.1-8.1,1.56-1.55,2.91,2.92a3.1,3.1,0,0,1,.89-2.52,3.21,3.21,0,0,1,2.55-1,4.56,4.56,0,0,1,2.93,1.53,4.82,4.82,0,0,1,1.6,3,3.12,3.12,0,0,1-2.17,3.29,3.38,3.38,0,0,1-1.59.1l.86.86Zm-1.52-4.6a3.54,3.54,0,0,0,1.64,1.06,1.76,1.76,0,0,0,1.69-.45,1.53,1.53,0,0,0,.43-1.32,3,3,0,0,0-1-1.74,3.28,3.28,0,0,0-1.81-1.09,1.7,1.7,0,0,0-1.87,1.85A2.78,2.78,0,0,0,310.52,337.67Z"/><path d="M320.51,333.81,319,335.36l-5.86-5.87,1.44-1.44.83.84a3.54,3.54,0,0,1-.11-1.45,1.73,1.73,0,0,1,.48-.86,2.9,2.9,0,0,1,1.32-.73l.87,1.84a1.92,1.92,0,0,0-1,.47,1.26,1.26,0,0,0-.38.74,1.72,1.72,0,0,0,.3,1,12.48,12.48,0,0,0,1.83,2.1Z"/><path d="M325,325.63l1.81-1.29a3.6,3.6,0,0,1,.35,2.24,3.91,3.91,0,0,1-1.16,2.05,3.71,3.71,0,0,1-3.27,1.27,4.77,4.77,0,0,1-2.6-1.44,4.6,4.6,0,0,1-1.52-3,3.53,3.53,0,0,1,1.1-2.75,3.67,3.67,0,0,1,2.93-1.21,5.45,5.45,0,0,1,3.37,1.93l-3.89,3.89a2.27,2.27,0,0,0,1.45.7,1.7,1.7,0,0,0,1.28-.51,1.39,1.39,0,0,0,.42-.82A1.77,1.77,0,0,0,325,325.63ZM323.47,324a2.15,2.15,0,0,0-1.37-.68,1.52,1.52,0,0,0-1.16.46,1.54,1.54,0,0,0-.47,1.21,2.07,2.07,0,0,0,.68,1.33Z"/><path d="M292.36,383.26l-8.1-8.1,1.59-1.59,8.72,2.09-5.4-5.41,1.52-1.52,8.09,8.1-1.64,1.64-8.54-2,5.28,5.28Z"/><path d="M297.13,372.46a4.48,4.48,0,0,1-1.12-1.88,3.64,3.64,0,0,1,0-2.19,4.49,4.49,0,0,1,1.18-1.94,4.14,4.14,0,0,1,3-1.31,4.22,4.22,0,0,1,3,1.33,4.31,4.31,0,0,1,1.35,3.07,4.1,4.1,0,0,1-1.29,3,4.88,4.88,0,0,1-1.9,1.18,3.56,3.56,0,0,1-2.19,0A5,5,0,0,1,297.13,372.46ZM298.8,371a2.74,2.74,0,0,0,1.75.92,1.91,1.91,0,0,0,2-2,3.33,3.33,0,0,0-2.67-2.67,1.84,1.84,0,0,0-1.48.55,1.87,1.87,0,0,0-.56,1.49A2.74,2.74,0,0,0,298.8,371Z"/><path d="M309,366.59l-8.23-3.5,1.63-1.63,4.09,1.89,1.32.68c-.16-.34-.28-.56-.34-.66l-.33-.67-1.88-4.11,1.6-1.59,3.53,8.19Z"/><path d="M307,355.25l-1.43-1.44,1.55-1.55,1.44,1.44Zm6.67,6.66-5.87-5.86,1.55-1.56,5.87,5.87Z"/><path d="M318.38,353.5l1.81-1.28a3.64,3.64,0,0,1,.35,2.23,3.85,3.85,0,0,1-1.17,2.06,3.69,3.69,0,0,1-3.26,1.26,4.65,4.65,0,0,1-2.6-1.44,4.57,4.57,0,0,1-1.53-3,3.57,3.57,0,0,1,1.11-2.76,3.69,3.69,0,0,1,2.93-1.2,5.38,5.38,0,0,1,3.37,1.93l-3.89,3.89a2.23,2.23,0,0,0,1.45.69,1.64,1.64,0,0,0,1.28-.51,1.32,1.32,0,0,0,.41-.81A1.69,1.69,0,0,0,318.38,353.5Zm-1.48-1.65a2.1,2.1,0,0,0-1.37-.68,1.52,1.52,0,0,0-1.16.46,1.49,1.49,0,0,0-.47,1.21,2,2,0,0,0,.68,1.33Z"/><path d="M317.16,346.73l1.43-1.44.8.81a3.26,3.26,0,0,1,.9-2.77,2.75,2.75,0,0,1,1.2-.74,2.53,2.53,0,0,1,1.39,0,3.85,3.85,0,0,1,.13-1.54,2.84,2.84,0,0,1,.72-1.18,3,3,0,0,1,1.36-.83,2.24,2.24,0,0,1,1.44.1,4.58,4.58,0,0,1,1.37,1l3.75,3.75-1.55,1.56-3.35-3.36a3.43,3.43,0,0,0-1.29-1,1,1,0,0,0-1,.33,1.51,1.51,0,0,0-.42.81,1.57,1.57,0,0,0,.17,1,5.91,5.91,0,0,0,1.09,1.34l2.81,2.81-1.55,1.56-3.21-3.22a6.27,6.27,0,0,0-1.19-1,1,1,0,0,0-.63-.11,1.13,1.13,0,0,0-.59.35,1.67,1.67,0,0,0-.46.84,1.53,1.53,0,0,0,.15,1,5.78,5.78,0,0,0,1.09,1.33l2.85,2.85L323,352.59Z"/><path d="M333.14,342.48l-8.1-8.1,1.55-1.55,2.91,2.92a3.13,3.13,0,0,1,.89-2.52,3.24,3.24,0,0,1,2.55-1,4.56,4.56,0,0,1,2.93,1.53,4.82,4.82,0,0,1,1.6,3,3.14,3.14,0,0,1-.93,2.55,3.09,3.09,0,0,1-1.24.74,3.34,3.34,0,0,1-1.58.1l.86.86Zm-1.52-4.6a3.48,3.48,0,0,0,1.63,1.06,1.74,1.74,0,0,0,1.69-.45,1.57,1.57,0,0,0,.44-1.32,3,3,0,0,0-1-1.74,3.3,3.3,0,0,0-1.82-1.09,1.64,1.64,0,0,0-1.38.49,1.67,1.67,0,0,0-.49,1.36A2.8,2.8,0,0,0,331.62,337.88Z"/><path d="M341.6,334l-1.55,1.55-5.87-5.86,1.44-1.45.84.84a3.58,3.58,0,0,1-.12-1.45,1.73,1.73,0,0,1,.48-.86,3,3,0,0,1,1.32-.73l.87,1.84a1.92,1.92,0,0,0-1,.47,1.2,1.2,0,0,0-.37.74,1.7,1.7,0,0,0,.29,1,13.24,13.24,0,0,0,1.84,2.1Z"/><path d="M346.05,325.84l1.8-1.29a3.53,3.53,0,0,1,.35,2.24,3.91,3.91,0,0,1-1.16,2,3.71,3.71,0,0,1-3.27,1.27,4.81,4.81,0,0,1-2.6-1.44,4.6,4.6,0,0,1-1.52-3.05,3.56,3.56,0,0,1,1.1-2.75,3.64,3.64,0,0,1,2.93-1.2,5.42,5.42,0,0,1,3.38,1.92l-3.89,3.89a2.22,2.22,0,0,0,1.45.7,1.73,1.73,0,0,0,1.28-.51,1.37,1.37,0,0,0,.41-.82A1.83,1.83,0,0,0,346.05,325.84Zm-1.49-1.66a2.13,2.13,0,0,0-1.37-.68A1.53,1.53,0,0,0,342,324a1.57,1.57,0,0,0-.47,1.21,2.07,2.07,0,0,0,.68,1.33Z"/><path d="M316.15,371.2l3-3a8.37,8.37,0,0,1,1.7-1.38,3.76,3.76,0,0,1,2-.48,5,5,0,0,1,2.08.54,8.34,8.34,0,0,1,2.18,1.65,7.3,7.3,0,0,1,1.47,2,5,5,0,0,1,.57,2.3,4.23,4.23,0,0,1-.5,1.8,7.49,7.49,0,0,1-1.28,1.62l-3.08,3.07Zm3-.26,5.36,5.36,1.22-1.22a6.14,6.14,0,0,0,.92-1.07,2.14,2.14,0,0,0,.32-1,2.38,2.38,0,0,0-.35-1.21,7.55,7.55,0,0,0-1.32-1.65,6.91,6.91,0,0,0-1.61-1.28,2.67,2.67,0,0,0-1.25-.32,2.21,2.21,0,0,0-1.14.38,10.52,10.52,0,0,0-1.42,1.26Z"/><path d="M325.76,364.47,324.32,363l1.55-1.55,1.44,1.43Zm6.66,6.67-5.87-5.87,1.55-1.55,5.87,5.86Z"/><path d="M336.54,358.75l-1.25,1.8a1.58,1.58,0,0,0-1-.34,1.5,1.5,0,0,0-.94.48,1.67,1.67,0,0,0-.53,1.33,2.91,2.91,0,0,0,1,1.68,3.36,3.36,0,0,0,1.82,1.13,1.65,1.65,0,0,0,1.38-.52,1.49,1.49,0,0,0,.47-1,2.13,2.13,0,0,0-.47-1.26l1.79-1.27a3.85,3.85,0,0,1,.67,2.5,4,4,0,0,1-1.27,2.34,3.8,3.8,0,0,1-2.87,1.24,5.22,5.22,0,0,1-4.5-4.51,3.85,3.85,0,0,1,1.26-2.89,4,4,0,0,1,2.17-1.24A3.54,3.54,0,0,1,336.54,358.75Z"/><path d="M335.19,355l-1.44-1.44,1.56-1.55,1.43,1.44Zm6.66,6.66L336,355.83l1.55-1.55,5.87,5.87Z"/><path d="M346.53,353.29l1.8-1.28a3.58,3.58,0,0,1,.36,2.23,4,4,0,0,1-1.17,2.06,3.7,3.7,0,0,1-3.26,1.26,4.71,4.71,0,0,1-2.61-1.44,4.58,4.58,0,0,1-1.52-3.05,3.59,3.59,0,0,1,1.1-2.75,3.71,3.71,0,0,1,2.94-1.2,5.4,5.4,0,0,1,3.37,1.92l-3.89,3.89a2.18,2.18,0,0,0,1.45.7,1.65,1.65,0,0,0,1.28-.51,1.32,1.32,0,0,0,.41-.81A1.76,1.76,0,0,0,346.53,353.29Zm-1.48-1.65a2.1,2.1,0,0,0-1.38-.68,1.59,1.59,0,0,0-1.62,1.66,2,2,0,0,0,.68,1.34Z"/><path d="M345.31,346.52l1.43-1.44.8.8a3.28,3.28,0,0,1,.89-2.76,2.84,2.84,0,0,1,1.21-.74,2.5,2.5,0,0,1,1.38,0,3.84,3.84,0,0,1,.14-1.54,2.77,2.77,0,0,1,.72-1.18,3.07,3.07,0,0,1,1.36-.84,2.25,2.25,0,0,1,1.44.11,4.71,4.71,0,0,1,1.37,1.05l3.75,3.75-1.55,1.56L354.9,342a3.8,3.8,0,0,0-1.29-1,1.07,1.07,0,0,0-1,.34,1.49,1.49,0,0,0-.41.81,1.58,1.58,0,0,0,.17,1,6.09,6.09,0,0,0,1.08,1.34l2.82,2.81-1.55,1.56-3.22-3.22a6.33,6.33,0,0,0-1.18-1,1,1,0,0,0-.63-.12,1.19,1.19,0,0,0-.59.35,1.71,1.71,0,0,0-.46.84,1.55,1.55,0,0,0,.15,1,6,6,0,0,0,1.08,1.33l2.86,2.85-1.56,1.55Z"/><path d="M361.28,342.27l-8.1-8.1,1.56-1.55,2.91,2.92a3.1,3.1,0,0,1,.89-2.52,3.21,3.21,0,0,1,2.55-1,4.56,4.56,0,0,1,2.93,1.53,4.82,4.82,0,0,1,1.6,3,3.18,3.18,0,0,1-.93,2.55,3.09,3.09,0,0,1-1.24.74,3.38,3.38,0,0,1-1.59.1l.86.86Zm-1.52-4.6a3.54,3.54,0,0,0,1.64,1.06,1.76,1.76,0,0,0,1.69-.45,1.53,1.53,0,0,0,.43-1.32,3,3,0,0,0-1-1.74,3.28,3.28,0,0,0-1.81-1.09,1.7,1.7,0,0,0-1.87,1.85A2.78,2.78,0,0,0,359.76,337.67Z"/><path d="M369.75,333.81l-1.56,1.55-5.86-5.87,1.44-1.44.83.84a3.54,3.54,0,0,1-.11-1.45,1.73,1.73,0,0,1,.48-.86,2.9,2.9,0,0,1,1.32-.73l.87,1.84a1.92,1.92,0,0,0-1,.47,1.26,1.26,0,0,0-.38.74,1.72,1.72,0,0,0,.3,1,13,13,0,0,0,1.83,2.1Z"/><path d="M374.19,325.63l1.81-1.29a3.6,3.6,0,0,1,.35,2.24,3.91,3.91,0,0,1-1.16,2.05,3.71,3.71,0,0,1-3.27,1.27,4.77,4.77,0,0,1-2.6-1.44,4.6,4.6,0,0,1-1.52-3,3.53,3.53,0,0,1,1.1-2.75,3.67,3.67,0,0,1,2.93-1.21,5.45,5.45,0,0,1,3.37,1.93l-3.89,3.89a2.27,2.27,0,0,0,1.46.7,1.69,1.69,0,0,0,1.27-.51,1.39,1.39,0,0,0,.42-.82A1.77,1.77,0,0,0,374.19,325.63ZM372.71,324a2.15,2.15,0,0,0-1.37-.68,1.52,1.52,0,0,0-1.16.46,1.54,1.54,0,0,0-.47,1.21,2.07,2.07,0,0,0,.68,1.33Z"/></svg>