<svg id="Capa_1" data-name="Capa 1" xmlns="http://www.w3.org/2000/svg" viewBox="0 0 2700.29 1724.83"><rect x="271.43" y="392.58" width="2338.13" height="1037.39" rx="28.35" style="fill:#28309f"/><path d="M539.7,165V85.51h15.61l32.52,53.06V85.51h14.91V165h-16.1l-32-51.81V165Z"/><path d="M616.82,85.51h16v43q0,10.25.6,13.28a12.85,12.85,0,0,0,4.9,7.83q3.87,3,10.6,3t10.3-2.8a11,11,0,0,0,4.17-6.85,89.55,89.55,0,0,0,.7-13.5V85.51h16v41.73q0,14.31-1.3,20.22a22.4,22.4,0,0,1-4.8,10,24.28,24.28,0,0,1-9.35,6.48q-5.85,2.4-15.28,2.41-11.38,0-17.27-2.63a24.6,24.6,0,0,1-9.29-6.83,21.83,21.83,0,0,1-4.5-8.81q-1.57-6.83-1.57-20.16ZM638.66,81l7.48-16.2h17.07L648.31,81Z"/><path d="M694.09,165V85.51h24l14.42,54.2,14.26-54.2h24.06V165h-14.9V102.42L740.16,165H724.72L709,102.42V165Z"/><path d="M784,165V85.51h58.91V99H800v17.61h39.89V130H800v21.63h44.39V165Z"/><path d="M855.32,165V85.51h33.76q12.74,0,18.51,2.14a18.24,18.24,0,0,1,9.24,7.61,22.93,22.93,0,0,1,3.47,12.52q0,8.94-5.26,14.77t-15.71,7.35a37.57,37.57,0,0,1,8.59,6.66q3.38,3.63,9.13,12.9l9.7,15.5H907.56L896,147.67q-6.18-9.27-8.46-11.68a12.38,12.38,0,0,0-4.82-3.3,26.3,26.3,0,0,0-8.08-.9h-3.25V165Zm16-45.85h11.87q11.53,0,14.41-1a8.55,8.55,0,0,0,4.5-3.36,10.28,10.28,0,0,0,1.63-6,9.49,9.49,0,0,0-2.14-6.47,9.78,9.78,0,0,0-6-3.12c-1.3-.18-5.21-.27-11.71-.27H871.36Z"/><path d="M929.39,125.72q0-12.14,3.64-20.38a37.47,37.47,0,0,1,7.39-10.89,30.86,30.86,0,0,1,10.27-7.15,43.55,43.55,0,0,1,17.13-3.15q17.56,0,28.1,10.9t10.55,30.29q0,19.24-10.46,30.11t-28,10.87q-17.73,0-28.19-10.82T929.39,125.72Zm16.54-.54q0,13.5,6.23,20.46a21.42,21.42,0,0,0,31.57.06q6.15-6.91,6.15-20.74,0-13.65-6-20.37T968,97.86q-9.91,0-16,6.81T945.93,125.18Z"/><path d="M1044.22,85.51h29.32q9.93,0,15.13,1.51a26.64,26.64,0,0,1,12,7.32,34.67,34.67,0,0,1,7.59,12.87q2.61,7.62,2.6,18.78a52.09,52.09,0,0,1-2.44,16.91,34.87,34.87,0,0,1-8.51,14,28.1,28.1,0,0,1-11.27,6.34,48.52,48.52,0,0,1-14.2,1.68h-30.19Zm16,13.44v52.63h12a44,44,0,0,0,9.7-.76,14.83,14.83,0,0,0,6.48-3.31q2.58-2.32,4.2-7.67t1.63-14.55q0-9.21-1.63-14.15a18.16,18.16,0,0,0-4.55-7.69,15.21,15.21,0,0,0-7.43-3.74q-3.36-.76-13.17-.76Z"/><path d="M1121.66,165V85.51h58.92V99H1137.7v17.61h39.89V130H1137.7v21.63h44.39V165Z"/><path d="M1221,165V85.51h58.91V99H1237v17.61h39.89V130H1237v21.63h44.39V165Z"/><path d="M1292.3,165V85.51h33.77q12.73,0,18.51,2.14a18.32,18.32,0,0,1,9.24,7.61,22.93,22.93,0,0,1,3.47,12.52q0,8.94-5.26,14.77t-15.72,7.35a37.35,37.35,0,0,1,8.59,6.66q3.39,3.63,9.13,12.9l9.71,15.5h-19.19L1333,147.67q-6.18-9.27-8.45-11.68a12.33,12.33,0,0,0-4.83-3.3,26.27,26.27,0,0,0-8.07-.9h-3.26V165Zm16-45.85h11.87q11.55,0,14.42-1a8.55,8.55,0,0,0,4.5-3.36,10.36,10.36,0,0,0,1.63-6,9.5,9.5,0,0,0-2.15-6.47,9.76,9.76,0,0,0-6-3.12q-2-.27-11.71-.27h-12.52Z"/><path d="M1369.69,165V85.51h33.76q12.73,0,18.51,2.14a18.24,18.24,0,0,1,9.24,7.61,22.85,22.85,0,0,1,3.47,12.52q0,8.94-5.25,14.77t-15.72,7.35a37.35,37.35,0,0,1,8.59,6.66q3.39,3.63,9.13,12.9l9.7,15.5h-19.18l-11.6-17.29q-6.18-9.27-8.46-11.68a12.3,12.3,0,0,0-4.82-3.3,26.3,26.3,0,0,0-8.08-.9h-3.25V165Zm16-45.85h11.87q11.55,0,14.42-1a8.63,8.63,0,0,0,4.5-3.36,10.36,10.36,0,0,0,1.62-6,9.49,9.49,0,0,0-2.14-6.47,9.78,9.78,0,0,0-6-3.12Q1408,99,1398.25,99h-12.52Z"/><path d="M1443.77,125.72q0-12.14,3.63-20.38a37.31,37.31,0,0,1,7.4-10.89,30.66,30.66,0,0,1,10.27-7.15,43.5,43.5,0,0,1,17.12-3.15q17.57,0,28.11,10.9t10.54,30.29q0,19.24-10.46,30.11t-28,10.87q-17.73,0-28.18-10.82T1443.77,125.72Zm16.53-.54q0,13.5,6.23,20.46a21.42,21.42,0,0,0,31.57.06q6.15-6.91,6.15-20.74,0-13.65-6-20.37t-15.9-6.73q-9.93,0-16,6.81T1460.3,125.18Z"/><path d="M1530.64,165V85.51h33.76q12.74,0,18.51,2.14a18.24,18.24,0,0,1,9.24,7.61,22.85,22.85,0,0,1,3.47,12.52q0,8.94-5.25,14.77t-15.72,7.35a37.35,37.35,0,0,1,8.59,6.66q3.39,3.63,9.13,12.9l9.7,15.5h-19.18l-11.6-17.29q-6.18-9.27-8.46-11.68a12.3,12.3,0,0,0-4.82-3.3,26.3,26.3,0,0,0-8.08-.9h-3.25V165Zm16-45.85h11.87q11.55,0,14.42-1a8.63,8.63,0,0,0,4.5-3.36,10.36,10.36,0,0,0,1.62-6,9.49,9.49,0,0,0-2.14-6.47,9.78,9.78,0,0,0-6-3.12q-2-.27-11.71-.27h-12.52Z"/><path d="M1608,165V85.51h58.91V99H1624v17.61h39.89V130H1624v21.63h44.39V165Z"/><path d="M1675.16,139.11l15.61-1.52q1.41,7.86,5.72,11.55t11.63,3.68q7.74,0,11.68-3.28a9.74,9.74,0,0,0,3.93-7.67,7.2,7.2,0,0,0-1.66-4.79,13.1,13.1,0,0,0-5.77-3.44q-2.82-1-12.84-3.47-12.9-3.19-18.11-7.86a20.69,20.69,0,0,1-7.31-16A20.41,20.41,0,0,1,1681.48,95a21.5,21.5,0,0,1,9.92-8A39.58,39.58,0,0,1,1707,84.15q15,0,22.52,6.56t7.94,17.51l-16,.7q-1-6.12-4.42-8.81t-10.16-2.68q-7,0-10.95,2.87a5.79,5.79,0,0,0-2.54,4.94,6.11,6.11,0,0,0,2.38,4.82q3,2.55,14.74,5.31t17.32,5.72a22.32,22.32,0,0,1,8.78,8.07,25,25,0,0,1-.62,25.45,22.69,22.69,0,0,1-10.74,8.86q-6.93,2.91-17.29,2.9-15.06,0-23.14-7T1675.16,139.11Z"/><path d="M1774.49,139.11l15.61-1.52q1.41,7.86,5.72,11.55t11.62,3.68q7.75,0,11.68-3.28a9.74,9.74,0,0,0,3.93-7.67,7.24,7.24,0,0,0-1.65-4.79,13.16,13.16,0,0,0-5.77-3.44q-2.82-1-12.85-3.47-12.9-3.19-18.1-7.86A20.87,20.87,0,0,1,1780.8,95a21.55,21.55,0,0,1,9.92-8,39.63,39.63,0,0,1,15.64-2.77q15,0,22.52,6.56t7.94,17.51l-16,.7q-1-6.12-4.42-8.81t-10.16-2.68q-7,0-11,2.87a5.8,5.8,0,0,0-2.55,4.94,6.12,6.12,0,0,0,2.39,4.82q3,2.55,14.74,5.31t17.31,5.72a22.34,22.34,0,0,1,8.79,8.07,23.69,23.69,0,0,1,3.17,12.66,23.39,23.39,0,0,1-3.8,12.79,22.66,22.66,0,0,1-10.73,8.86q-6.94,2.91-17.29,2.9-15.06,0-23.14-7T1774.49,139.11Z"/><path d="M1849.82,165V85.51h58.91V99h-42.87v17.61h39.89V130h-39.89v21.63h44.39V165Z"/><path d="M1958,135.75V122.36h34.58V154q-5,4.89-14.61,8.6a53.2,53.2,0,0,1-19.37,3.71q-12.47,0-21.74-5.23a33.26,33.26,0,0,1-13.93-15,48.46,48.46,0,0,1-4.66-21.17,45.76,45.76,0,0,1,5.21-22.06,35,35,0,0,1,15.23-14.79q7.63-4,19-4,14.81,0,23.12,6.21a28,28,0,0,1,10.7,17.15l-15.93,3a16.84,16.84,0,0,0-6.32-9.24,19.06,19.06,0,0,0-11.57-3.39q-10.51,0-16.72,6.67t-6.21,19.78q0,14.15,6.29,21.22t16.48,7.08a27.62,27.62,0,0,0,10.11-2,35,35,0,0,0,8.7-4.8V135.75Z"/><path d="M2004.53,85.51h16v43q0,10.25.59,13.28a12.86,12.86,0,0,0,4.91,7.83q3.87,3,10.59,3t10.3-2.8a11,11,0,0,0,4.17-6.85,89.21,89.21,0,0,0,.71-13.5V85.51h16v41.73q0,14.31-1.3,20.22a22.38,22.38,0,0,1-4.79,10,24.28,24.28,0,0,1-9.35,6.48q-5.86,2.4-15.29,2.41-11.39,0-17.26-2.63a24.72,24.72,0,0,1-9.3-6.83,21.93,21.93,0,0,1-4.49-8.81q-1.58-6.83-1.58-20.16ZM2026.38,81l7.48-16.2h17.07L2036,81Z"/><path d="M2082.19,165V85.51h15.61l32.52,53.06V85.51h14.9V165h-16.09l-32-51.81V165Z"/><path d="M2187.91,165V86.16H2204v65.42h39.89V165Z"/><path d="M2324.16,165h-17.45l-6.94-18.05H2268L2261.45,165h-17l31-79.45h17Zm-29.54-31.43L2283.67,104l-10.73,29.49Z"/><path d="M952.14,269l15.55,4.93q-3.57,13-11.89,19.32t-21.12,6.32q-15.82,0-26-10.81t-10.19-29.57q0-19.83,10.24-30.81t26.94-11q14.58,0,23.68,8.62,5.43,5.1,8.13,14.63l-15.88,3.8a16.42,16.42,0,0,0-16.74-13.34,18.09,18.09,0,0,0-14.34,6.35Q915,243.74,915,258q0,15.06,5.42,21.46a17.61,17.61,0,0,0,14.09,6.4,16.07,16.07,0,0,0,11-4.07Q950.13,277.67,952.14,269Z"/><path d="M1050.33,298.16h-17.45L1026,280.11H994.18l-6.55,18.05h-17l30.94-79.45h17Zm-29.53-31.43-10.95-29.49-10.73,29.49Z"/><path d="M1056.23,298.16V218.71h15.61l32.52,53.06V218.71h14.9v79.45h-16.09l-32-51.81v51.81Z"/><path d="M1151.34,298.16v-66h-23.58V218.71h63.15v13.44h-23.53v66Z"/><path d="M1198,298.16V218.71h16v79.45Z"/><path d="M1226.49,218.71h29.32q9.93,0,15.13,1.51a26.64,26.64,0,0,1,12,7.32,34.67,34.67,0,0,1,7.59,12.87q2.61,7.62,2.6,18.78a52.09,52.09,0,0,1-2.44,16.91,34.87,34.87,0,0,1-8.51,14,28.1,28.1,0,0,1-11.27,6.34,48.52,48.52,0,0,1-14.2,1.68h-30.19Zm16,13.44v52.63h12a44.17,44.17,0,0,0,9.71-.76,14.85,14.85,0,0,0,6.47-3.31q2.58-2.32,4.2-7.67t1.63-14.55q0-9.21-1.63-14.15a18.16,18.16,0,0,0-4.55-7.69,15.21,15.21,0,0,0-7.43-3.74q-3.36-.76-13.17-.76Z"/><path d="M1375.58,298.16h-17.45l-6.94-18.05h-31.76l-6.56,18.05h-17l30.94-79.45h17ZM1346,266.73l-10.94-29.49-10.74,29.49Z"/><path d="M1381.26,218.71h29.33q9.92,0,15.12,1.51a26.64,26.64,0,0,1,12,7.32,34.67,34.67,0,0,1,7.59,12.87q2.61,7.62,2.6,18.78a52.09,52.09,0,0,1-2.44,16.91,35,35,0,0,1-8.5,14,28.15,28.15,0,0,1-11.28,6.34,48.52,48.52,0,0,1-14.2,1.68h-30.19Zm16,13.44v52.63h12A44.17,44.17,0,0,0,1419,284a14.8,14.8,0,0,0,6.47-3.31q2.58-2.32,4.2-7.67t1.63-14.55q0-9.21-1.63-14.15a18.16,18.16,0,0,0-4.55-7.69,15.21,15.21,0,0,0-7.43-3.74q-3.36-.76-13.17-.76Z"/><path d="M1486.71,218.71H1516q9.92,0,15.12,1.51a26.72,26.72,0,0,1,12,7.32,34.78,34.78,0,0,1,7.58,12.87q2.61,7.62,2.6,18.78a52.38,52.38,0,0,1-2.43,16.91,35.09,35.09,0,0,1-8.51,14,28.15,28.15,0,0,1-11.28,6.34,48.52,48.52,0,0,1-14.2,1.68h-30.19Zm16,13.44v52.63h12a44.17,44.17,0,0,0,9.71-.76,14.8,14.8,0,0,0,6.47-3.31q2.58-2.32,4.2-7.67t1.63-14.55q0-9.21-1.63-14.15a18.16,18.16,0,0,0-4.55-7.69,15.22,15.22,0,0,0-7.42-3.74q-3.37-.76-13.17-.76Z"/><path d="M1564.15,298.16V218.71h58.92v13.44H1580.2v17.61h39.89v13.39H1580.2v21.63h44.38v13.38Z"/><path d="M1681.36,298.16v-66h-23.57V218.71h63.14v13.44h-23.52v66Z"/><path d="M1728,298.16V218.71h16v79.45Z"/><path d="M1756.73,298.16V218.71h15.61l32.52,53.06V218.71h14.91v79.45h-16.1l-32-51.81v51.81Z"/><path d="M1851.84,298.16v-66h-23.58V218.71h63.15v13.44h-23.53v66Z"/><path d="M1962.39,298.16h-17.45L1938,280.11h-31.77l-6.55,18.05h-17l30.95-79.45h17Zm-29.53-31.43-10.95-29.49-10.73,29.49Z"/><rect x="294.47" y="421.17" width="2293.4" height="978.22" rx="28.35" style="fill:none;stroke:#fff;stroke-miterlimit:10;stroke-width:3px"/><line x1="761.64" y1="421.17" x2="761.64" y2="1399.39" style="fill:none;stroke:#fff;stroke-miterlimit:10;stroke-width:3px"/><line x1="2587.87" y1="562.51" x2="294.48" y2="562.51" style="fill:none;stroke:#fff;stroke-miterlimit:10;stroke-width:3px"/><line x1="2587.87" y1="705.91" x2="294.48" y2="705.91" style="fill:none;stroke:#fff;stroke-miterlimit:10;stroke-width:3px"/><line x1="2587.87" y1="849.31" x2="294.48" y2="849.31" style="fill:none;stroke:#fff;stroke-miterlimit:10;stroke-width:3px"/><line x1="2587.87" y1="992.71" x2="294.48" y2="992.71" style="fill:none;stroke:#fff;stroke-miterlimit:10;stroke-width:3px"/><line x1="2587.87" y1="1136.11" x2="294.48" y2="1136.11" style="fill:none;stroke:#fff;stroke-miterlimit:10;stroke-width:3px"/><line x1="2587.87" y1="1279.51" x2="294.48" y2="1279.51" style="fill:none;stroke:#fff;stroke-miterlimit:10;stroke-width:3px"/><line x1="1212.62" y1="421.17" x2="1212.62" y2="1399.39" style="fill:none;stroke:#fff;stroke-miterlimit:10;stroke-width:3px"/><line x1="1670.01" y1="421.17" x2="1670.01" y2="1399.39" style="fill:none;stroke:#fff;stroke-miterlimit:10;stroke-width:3px"/><line x1="2130.5" y1="421.17" x2="2130.5" y2="1399.39" style="fill:none;stroke:#fff;stroke-miterlimit:10;stroke-width:3px"/><path d="M175.34,409.77l8-1a7.54,7.54,0,0,0,2.05,4.66,5.81,5.81,0,0,0,8.34-.32,7.52,7.52,0,0,0,1.74-5.22,7,7,0,0,0-1.67-4.92,5.31,5.31,0,0,0-4.07-1.81,14.28,14.28,0,0,0-3.78.61l.91-6.71a7.17,7.17,0,0,0,5.09-1.45,5.14,5.14,0,0,0,1.76-4.09,4.44,4.44,0,0,0-4.71-4.74,5,5,0,0,0-3.61,1.46,6.91,6.91,0,0,0-1.81,4.28L176,389.26a16.84,16.84,0,0,1,2.38-6.22,10.77,10.77,0,0,1,4.46-3.67,15.08,15.08,0,0,1,6.4-1.33,12.79,12.79,0,0,1,9.73,3.87,10.09,10.09,0,0,1,3,7.15q0,5.65-6.18,9a10,10,0,0,1,5.91,3.55,10.29,10.29,0,0,1,2.21,6.65,12.88,12.88,0,0,1-4.13,9.63,15.41,15.41,0,0,1-19.95.63A13.17,13.17,0,0,1,175.34,409.77Z"/><path d="M209.12,410.12l8.2-.85a7.06,7.06,0,0,0,2.08,4.41,5.7,5.7,0,0,0,4,1.63,5.51,5.51,0,0,0,4.36-2.1c1.2-1.39,1.79-3.5,1.79-6.31q0-4-1.77-5.93a5.9,5.9,0,0,0-4.62-2,8.36,8.36,0,0,0-6.35,3.13l-6.68-1,4.22-22.36H236.1v7.71H220.58l-1.29,7.29a12.61,12.61,0,0,1,14.91,2.61A14.34,14.34,0,0,1,238,406.75a15.49,15.49,0,0,1-3.08,9.46,13.64,13.64,0,0,1-11.63,5.69,14.5,14.5,0,0,1-9.7-3.19A13.18,13.18,0,0,1,209.12,410.12Z"/><path d="M175.34,551.11l8-1a7.54,7.54,0,0,0,2.05,4.66,5.81,5.81,0,0,0,8.34-.32,7.52,7.52,0,0,0,1.74-5.22,7,7,0,0,0-1.67-4.92,5.32,5.32,0,0,0-4.07-1.82,14.34,14.34,0,0,0-3.78.62l.91-6.71a7.17,7.17,0,0,0,5.09-1.45,5.14,5.14,0,0,0,1.76-4.09,4.44,4.44,0,0,0-4.71-4.74,5,5,0,0,0-3.61,1.46,6.89,6.89,0,0,0-1.81,4.28L176,530.6a16.84,16.84,0,0,1,2.38-6.22,10.77,10.77,0,0,1,4.46-3.67,14.93,14.93,0,0,1,6.4-1.33,12.79,12.79,0,0,1,9.73,3.87,10.09,10.09,0,0,1,3,7.15q0,5.65-6.18,9a10.07,10.07,0,0,1,5.91,3.54,10.33,10.33,0,0,1,2.21,6.65,12.91,12.91,0,0,1-4.13,9.64,15.41,15.41,0,0,1-19.95.63A13.17,13.17,0,0,1,175.34,551.11Z"/><path d="M222.92,519.38a11.75,11.75,0,0,1,9.76,4.45q4.19,5.28,4.19,17.49t-4.22,17.52a11.73,11.73,0,0,1-9.73,4.4,12.31,12.31,0,0,1-10.11-4.82Q209,553.61,209,541.24q0-12.13,4.22-17.47A11.73,11.73,0,0,1,222.92,519.38Zm0,6.83a4.1,4.1,0,0,0-2.67.95,6.37,6.37,0,0,0-1.81,3.41q-.85,3.2-.85,10.75t.76,10.39a7.31,7.31,0,0,0,1.92,3.76,4.06,4.06,0,0,0,2.65.94,4.16,4.16,0,0,0,2.67-.95,6.41,6.41,0,0,0,1.81-3.41q.85-3.16.85-10.73t-.76-10.38a7.39,7.39,0,0,0-1.92-3.78A4,4,0,0,0,222.92,526.21Z"/><path d="M203.44,698.26v7.65H174.58a19.89,19.89,0,0,1,2.81-8.22q2.36-3.88,9.26-10.3a58.77,58.77,0,0,0,6.83-7,9.09,9.09,0,0,0,1.7-5,5.75,5.75,0,0,0-1.48-4.23,6.29,6.29,0,0,0-8.19.07c-1,1-1.6,2.76-1.76,5.16l-8.2-.82q.73-6.79,4.6-9.76a15.44,15.44,0,0,1,9.66-3q6.36,0,10,3.43a11.24,11.24,0,0,1,3.64,8.53,14.92,14.92,0,0,1-1,5.52,22.38,22.38,0,0,1-3.3,5.49,51.51,51.51,0,0,1-5.39,5.48c-2.6,2.38-4.24,4-4.94,4.75a14.41,14.41,0,0,0-1.68,2.28Z"/><path d="M209.12,694.86l8.2-.85a7.06,7.06,0,0,0,2.08,4.41,5.66,5.66,0,0,0,4,1.63,5.51,5.51,0,0,0,4.36-2.1c1.2-1.39,1.79-3.5,1.79-6.31,0-2.64-.59-4.61-1.77-5.93a5.9,5.9,0,0,0-4.62-2,8.36,8.36,0,0,0-6.35,3.13l-6.68-1,4.22-22.36H236.1v7.71H220.58l-1.29,7.29a12.52,12.52,0,0,1,5.62-1.37,12.39,12.39,0,0,1,9.29,4A14.34,14.34,0,0,1,238,691.49a15.54,15.54,0,0,1-3.08,9.47,13.63,13.63,0,0,1-11.63,5.68,14.45,14.45,0,0,1-9.7-3.19A13.16,13.16,0,0,1,209.12,694.86Z"/><path d="M203.44,849.62v7.64H174.58a19.8,19.8,0,0,1,2.81-8.21q2.36-3.88,9.26-10.3a58.77,58.77,0,0,0,6.83-7,9.09,9.09,0,0,0,1.7-5,5.77,5.77,0,0,0-1.48-4.24,5.56,5.56,0,0,0-4.09-1.48,5.46,5.46,0,0,0-4.1,1.56c-1,1-1.6,2.75-1.76,5.15l-8.2-.82q.73-6.79,4.6-9.75a15.37,15.37,0,0,1,9.66-3q6.36,0,10,3.43a11.2,11.2,0,0,1,3.64,8.52,14.88,14.88,0,0,1-1,5.52,22.61,22.61,0,0,1-3.3,5.5,52.49,52.49,0,0,1-5.39,5.48c-2.6,2.38-4.24,4-4.94,4.74a14,14,0,0,0-1.68,2.29Z"/><path d="M222.92,814.14a11.75,11.75,0,0,1,9.76,4.45q4.19,5.28,4.19,17.49t-4.22,17.52a11.73,11.73,0,0,1-9.73,4.4,12.31,12.31,0,0,1-10.11-4.82Q209,848.35,209,836q0-12.12,4.22-17.46A11.73,11.73,0,0,1,222.92,814.14Zm0,6.82a4.11,4.11,0,0,0-2.67,1,6.37,6.37,0,0,0-1.81,3.41q-.85,3.2-.85,10.75t.76,10.39a7.31,7.31,0,0,0,1.92,3.76,4.06,4.06,0,0,0,2.65.94,4.16,4.16,0,0,0,2.67-.95,6.45,6.45,0,0,0,1.81-3.42q.85-3.16.85-10.72t-.76-10.38a7.39,7.39,0,0,0-1.92-3.78A4,4,0,0,0,222.92,821Z"/><path d="M196.7,992.71h-8.23v-31a28.24,28.24,0,0,1-10.64,6.24v-7.47a23.73,23.73,0,0,0,7-4,15.3,15.3,0,0,0,5.19-6.87h6.68Z"/><path d="M209.12,981.67l8.2-.85a7.06,7.06,0,0,0,2.08,4.4,5.66,5.66,0,0,0,4,1.63,5.53,5.53,0,0,0,4.36-2.09c1.2-1.4,1.79-3.51,1.79-6.32q0-3.95-1.77-5.93a5.9,5.9,0,0,0-4.62-2,8.37,8.37,0,0,0-6.35,3.14l-6.68-1,4.22-22.35H236.1v7.7H220.58l-1.29,7.3A12.58,12.58,0,0,1,234.2,968,14.37,14.37,0,0,1,238,978.3a15.51,15.51,0,0,1-3.08,9.46,13.63,13.63,0,0,1-11.63,5.68,14.45,14.45,0,0,1-9.7-3.19A13.16,13.16,0,0,1,209.12,981.67Z"/><path d="M196.7,1136.11h-8.23v-31a28.5,28.5,0,0,1-10.64,6.24v-7.48a23.73,23.73,0,0,0,7-4A15.3,15.3,0,0,0,190,1093h6.68Z"/><path d="M222.92,1093a11.75,11.75,0,0,1,9.76,4.45q4.19,5.26,4.19,17.49t-4.22,17.52a11.73,11.73,0,0,1-9.73,4.39,12.28,12.28,0,0,1-10.11-4.82q-3.84-4.82-3.84-17.18,0-12.13,4.22-17.46A11.73,11.73,0,0,1,222.92,1093Zm0,6.82a4.16,4.16,0,0,0-2.67,1,6.45,6.45,0,0,0-1.81,3.42q-.85,3.19-.85,10.75t.76,10.38a7.35,7.35,0,0,0,1.92,3.77,4.2,4.2,0,0,0,5.32,0,6.37,6.37,0,0,0,1.81-3.41q.85-3.17.85-10.72t-.76-10.39a7.48,7.48,0,0,0-1.92-3.78A4.06,4.06,0,0,0,222.92,1099.81Z"/><path d="M209.12,1268.47l8.2-.85a7.11,7.11,0,0,0,2.08,4.41,5.69,5.69,0,0,0,4,1.62,5.53,5.53,0,0,0,4.36-2.09c1.2-1.4,1.79-3.5,1.79-6.32q0-3.95-1.77-5.93a5.9,5.9,0,0,0-4.62-2,8.37,8.37,0,0,0-6.35,3.14l-6.68-1,4.22-22.35H236.1v7.7H220.58l-1.29,7.3a12.56,12.56,0,0,1,14.91,2.61A14.33,14.33,0,0,1,238,1265.1a15.51,15.51,0,0,1-3.08,9.46,13.63,13.63,0,0,1-11.63,5.68,14.45,14.45,0,0,1-9.7-3.19A13.16,13.16,0,0,1,209.12,1268.47Z"/><path d="M222.92,1356.27a11.75,11.75,0,0,1,9.76,4.45q4.19,5.28,4.19,17.49t-4.22,17.52a11.73,11.73,0,0,1-9.73,4.39,12.28,12.28,0,0,1-10.11-4.82q-3.84-4.82-3.84-17.18,0-12.12,4.22-17.46A11.73,11.73,0,0,1,222.92,1356.27Zm0,6.82a4.11,4.11,0,0,0-2.67,1,6.37,6.37,0,0,0-1.81,3.41q-.85,3.19-.85,10.75t.76,10.39a7.31,7.31,0,0,0,1.92,3.76,4.06,4.06,0,0,0,2.65.94,4.16,4.16,0,0,0,2.67-1,6.45,6.45,0,0,0,1.81-3.42q.85-3.17.85-10.72t-.76-10.39a7.39,7.39,0,0,0-1.92-3.77A4,4,0,0,0,222.92,1363.09Z"/><path d="M245.85,1459.21a11.75,11.75,0,0,1,9.76,4.46q4.18,5.26,4.19,17.49t-4.22,17.52a11.73,11.73,0,0,1-9.73,4.39,12.31,12.31,0,0,1-10.11-4.82q-3.83-4.82-3.83-17.18,0-12.13,4.22-17.46A11.7,11.7,0,0,1,245.85,1459.21Zm0,6.83a4.13,4.13,0,0,0-2.66,1,6.35,6.35,0,0,0-1.82,3.42c-.57,2.12-.85,5.71-.85,10.75s.25,8.5.76,10.38a7.35,7.35,0,0,0,1.92,3.77,4.2,4.2,0,0,0,5.32,0,6.37,6.37,0,0,0,1.81-3.41q.85-3.17.85-10.72t-.76-10.39a7.48,7.48,0,0,0-1.92-3.78A4.06,4.06,0,0,0,245.85,1466Z"/><path d="M266.86,1494.11h8.23V1500a20,20,0,0,1-.62,5.63,8.4,8.4,0,0,1-2.32,3.71,12.26,12.26,0,0,1-4.35,2.58l-1.62-3.4a6.94,6.94,0,0,0,3.55-2.26,6.78,6.78,0,0,0,1.11-3.92h-4Z"/><path d="M309.78,1494.69v7.65H280.92a19.89,19.89,0,0,1,2.81-8.22q2.36-3.88,9.26-10.3a58,58,0,0,0,6.83-7,9.09,9.09,0,0,0,1.7-5,5.76,5.76,0,0,0-1.48-4.23,6.29,6.29,0,0,0-8.19.07c-1,1-1.6,2.76-1.76,5.16l-8.2-.82q.74-6.79,4.6-9.76a15.44,15.44,0,0,1,9.66-3q6.36,0,10,3.43a11.24,11.24,0,0,1,3.64,8.53,14.92,14.92,0,0,1-1,5.52,22.38,22.38,0,0,1-3.3,5.49,51.51,51.51,0,0,1-5.39,5.48c-2.6,2.38-4.24,4-4.94,4.75a14.41,14.41,0,0,0-1.68,2.28Z"/><path d="M315.46,1491.29l8.2-.85a7.06,7.06,0,0,0,2.08,4.41,5.64,5.64,0,0,0,4,1.63,5.51,5.51,0,0,0,4.36-2.1c1.2-1.39,1.79-3.5,1.79-6.31,0-2.64-.59-4.61-1.77-5.93a5.9,5.9,0,0,0-4.62-2,8.37,8.37,0,0,0-6.35,3.14l-6.68-1,4.22-22.35h21.76v7.7H326.92l-1.29,7.3a12.58,12.58,0,0,1,14.91,2.6,14.36,14.36,0,0,1,3.81,10.34,15.54,15.54,0,0,1-3.08,9.47,13.63,13.63,0,0,1-11.63,5.68,14.45,14.45,0,0,1-9.7-3.19A13.16,13.16,0,0,1,315.46,1491.29Z"/><path d="M723.73,1459.21a11.74,11.74,0,0,1,9.76,4.46q4.18,5.26,4.19,17.49t-4.22,17.52a11.71,11.71,0,0,1-9.73,4.39,12.29,12.29,0,0,1-10.1-4.82q-3.84-4.82-3.84-17.18,0-12.13,4.22-17.46A11.7,11.7,0,0,1,723.73,1459.21Zm0,6.83a4.13,4.13,0,0,0-2.66,1,6.41,6.41,0,0,0-1.82,3.42,47.37,47.37,0,0,0-.85,10.75c0,5,.26,8.5.76,10.38a7.35,7.35,0,0,0,1.92,3.77,4.2,4.2,0,0,0,5.32,0,6.38,6.38,0,0,0,1.82-3.41,47,47,0,0,0,.85-10.72q0-7.56-.77-10.39a7.4,7.4,0,0,0-1.91-3.78A4.11,4.11,0,0,0,723.73,1466Z"/><path d="M744.74,1494.11H753V1500a20.47,20.47,0,0,1-.61,5.63,8.42,8.42,0,0,1-2.33,3.71,12.09,12.09,0,0,1-4.35,2.58l-1.61-3.4a6.91,6.91,0,0,0,3.54-2.26,6.71,6.71,0,0,0,1.11-3.92h-4Z"/><path d="M759.56,1490.94l8-1a7.56,7.56,0,0,0,2.05,4.65,5.62,5.62,0,0,0,4,1.62,5.55,5.55,0,0,0,4.29-1.94,7.51,7.51,0,0,0,1.74-5.21,7,7,0,0,0-1.67-4.93,5.31,5.31,0,0,0-4.07-1.81,14.4,14.4,0,0,0-3.78.61l.91-6.71a7.2,7.2,0,0,0,5.1-1.45,5.14,5.14,0,0,0,1.75-4.08,4.7,4.7,0,0,0-1.28-3.46,4.65,4.65,0,0,0-3.43-1.29,5,5,0,0,0-3.61,1.47,6.86,6.86,0,0,0-1.81,4.27l-7.59-1.29a16.91,16.91,0,0,1,2.39-6.22,10.79,10.79,0,0,1,4.45-3.66,15,15,0,0,1,6.4-1.34,12.76,12.76,0,0,1,9.73,3.87,10.1,10.1,0,0,1,3,7.15q0,5.65-6.19,9a10,10,0,0,1,5.91,3.55,10.29,10.29,0,0,1,2.21,6.65,12.92,12.92,0,0,1-4.13,9.64,15.44,15.44,0,0,1-20,.63A13.19,13.19,0,0,1,759.56,1490.94Z"/><path d="M793.34,1491.29l8.21-.85a7,7,0,0,0,2.08,4.41,5.62,5.62,0,0,0,4,1.63,5.53,5.53,0,0,0,4.37-2.1c1.19-1.39,1.78-3.5,1.78-6.31,0-2.64-.59-4.61-1.77-5.93a5.9,5.9,0,0,0-4.61-2,8.38,8.38,0,0,0-6.36,3.14l-6.68-1,4.22-22.35h21.77v7.7H804.8l-1.29,7.3a12.58,12.58,0,0,1,14.91,2.6,14.36,14.36,0,0,1,3.81,10.34,15.48,15.48,0,0,1-3.08,9.47,13.63,13.63,0,0,1-11.63,5.68,14.42,14.42,0,0,1-9.69-3.19A13.17,13.17,0,0,1,793.34,1491.29Z"/><path d="M1173.18,1459.21a11.75,11.75,0,0,1,9.76,4.46q4.18,5.26,4.19,17.49t-4.22,17.52a11.71,11.71,0,0,1-9.73,4.39,12.27,12.27,0,0,1-10.1-4.82q-3.84-4.82-3.84-17.18,0-12.13,4.22-17.46A11.7,11.7,0,0,1,1173.18,1459.21Zm0,6.83a4.13,4.13,0,0,0-2.66,1,6.41,6.41,0,0,0-1.82,3.42c-.57,2.12-.85,5.71-.85,10.75s.25,8.5.76,10.38a7.35,7.35,0,0,0,1.92,3.77,4.2,4.2,0,0,0,5.32,0,6.38,6.38,0,0,0,1.82-3.41q.84-3.17.84-10.72t-.76-10.39a7.33,7.33,0,0,0-1.92-3.78A4.06,4.06,0,0,0,1173.18,1466Z"/><path d="M1194.19,1494.11h8.23V1500a20.47,20.47,0,0,1-.61,5.63,8.42,8.42,0,0,1-2.33,3.71,12.26,12.26,0,0,1-4.35,2.58l-1.62-3.4a6.9,6.9,0,0,0,3.55-2.26,6.78,6.78,0,0,0,1.11-3.92h-4Z"/><path d="M1225.45,1502.34v-8.64h-17.58v-7.21l18.63-27.28h6.92v27.25h5.33v7.24h-5.33v8.64Zm0-15.88v-14.68l-9.87,14.68Z"/><path d="M1242.79,1491.29l8.21-.85a7,7,0,0,0,2.08,4.41,5.62,5.62,0,0,0,4,1.63,5.55,5.55,0,0,0,4.37-2.1c1.19-1.39,1.78-3.5,1.78-6.31,0-2.64-.59-4.61-1.77-5.93a5.9,5.9,0,0,0-4.61-2,8.38,8.38,0,0,0-6.36,3.14l-6.68-1L1248,1460h21.76v7.7h-15.52L1253,1475a12.58,12.58,0,0,1,14.91,2.6,14.36,14.36,0,0,1,3.81,10.34,15.54,15.54,0,0,1-3.08,9.47,13.63,13.63,0,0,1-11.63,5.68,14.45,14.45,0,0,1-9.7-3.19A13.16,13.16,0,0,1,1242.79,1491.29Z"/><path d="M1621.71,1459.21a11.74,11.74,0,0,1,9.76,4.46q4.18,5.26,4.19,17.49t-4.22,17.52a11.71,11.71,0,0,1-9.73,4.39,12.29,12.29,0,0,1-10.1-4.82q-3.84-4.82-3.84-17.18,0-12.13,4.22-17.46A11.7,11.7,0,0,1,1621.71,1459.21Zm0,6.83a4.13,4.13,0,0,0-2.66,1,6.41,6.41,0,0,0-1.82,3.42,47.37,47.37,0,0,0-.85,10.75c0,5,.26,8.5.76,10.38a7.35,7.35,0,0,0,1.92,3.77,4.2,4.2,0,0,0,5.32,0,6.38,6.38,0,0,0,1.82-3.41,47,47,0,0,0,.85-10.72q0-7.56-.77-10.39a7.4,7.4,0,0,0-1.91-3.78A4.11,4.11,0,0,0,1621.71,1466Z"/><path d="M1642.72,1494.11H1651V1500a20.47,20.47,0,0,1-.61,5.63,8.42,8.42,0,0,1-2.33,3.71,12.09,12.09,0,0,1-4.35,2.58l-1.61-3.4a6.91,6.91,0,0,0,3.54-2.26,6.71,6.71,0,0,0,1.11-3.92h-4Z"/><path d="M1658,1491.29l8.21-.85a7,7,0,0,0,2.08,4.41,5.62,5.62,0,0,0,4,1.63,5.53,5.53,0,0,0,4.37-2.1c1.19-1.39,1.78-3.5,1.78-6.31,0-2.64-.59-4.61-1.77-5.93a5.9,5.9,0,0,0-4.61-2,8.39,8.39,0,0,0-6.36,3.14l-6.68-1,4.22-22.35h21.77v7.7h-15.53l-1.29,7.3a12.58,12.58,0,0,1,14.91,2.6,14.36,14.36,0,0,1,3.81,10.34,15.48,15.48,0,0,1-3.08,9.47,13.63,13.63,0,0,1-11.63,5.68,14.42,14.42,0,0,1-9.69-3.19A13.17,13.17,0,0,1,1658,1491.29Z"/><path d="M1691.32,1491.29l8.21-.85a7,7,0,0,0,2.08,4.41,5.62,5.62,0,0,0,4,1.63,5.55,5.55,0,0,0,4.37-2.1c1.19-1.39,1.78-3.5,1.78-6.31,0-2.64-.59-4.61-1.77-5.93a5.9,5.9,0,0,0-4.61-2,8.38,8.38,0,0,0-6.36,3.14l-6.68-1,4.22-22.35h21.77v7.7h-15.53l-1.29,7.3a12.58,12.58,0,0,1,14.91,2.6,14.36,14.36,0,0,1,3.81,10.34,15.54,15.54,0,0,1-3.08,9.47,13.63,13.63,0,0,1-11.63,5.68,14.42,14.42,0,0,1-9.69-3.19A13.17,13.17,0,0,1,1691.32,1491.29Z"/><path d="M2087.67,1459.21a11.75,11.75,0,0,1,9.76,4.46q4.18,5.26,4.19,17.49t-4.22,17.52a11.73,11.73,0,0,1-9.73,4.39,12.31,12.31,0,0,1-10.11-4.82q-3.82-4.82-3.83-17.18,0-12.13,4.22-17.46A11.7,11.7,0,0,1,2087.67,1459.21Zm0,6.83a4.13,4.13,0,0,0-2.66,1,6.35,6.35,0,0,0-1.82,3.42c-.57,2.12-.85,5.71-.85,10.75s.25,8.5.76,10.38a7.35,7.35,0,0,0,1.92,3.77,4.2,4.2,0,0,0,5.32,0,6.37,6.37,0,0,0,1.81-3.41q.85-3.17.85-10.72t-.76-10.39a7.4,7.4,0,0,0-1.92-3.78A4.06,4.06,0,0,0,2087.67,1466Z"/><path d="M2108.68,1494.11h8.23V1500a20.47,20.47,0,0,1-.61,5.63,8.42,8.42,0,0,1-2.33,3.71,12.26,12.26,0,0,1-4.35,2.58l-1.62-3.4a6.94,6.94,0,0,0,3.55-2.26,6.78,6.78,0,0,0,1.11-3.92h-4Z"/><path d="M2151.69,1469.91l-8,.88a5.85,5.85,0,0,0-1.53-3.64A4.43,4.43,0,0,0,2139,1466a5.38,5.38,0,0,0-4.41,2.35q-1.8,2.34-2.27,9.75a9.63,9.63,0,0,1,7.65-3.63,11.7,11.7,0,0,1,8.83,3.92,14.25,14.25,0,0,1,3.68,10.14q0,6.6-3.87,10.58A14.1,14.1,0,0,1,2128,1498q-4.18-5.05-4.18-16.57,0-11.81,4.36-17a14.09,14.09,0,0,1,11.34-5.22,12.07,12.07,0,0,1,8.1,2.74A12.87,12.87,0,0,1,2151.69,1469.91Zm-18.67,18a9.32,9.32,0,0,0,1.85,6.19,5.43,5.43,0,0,0,4.22,2.19,4.82,4.82,0,0,0,3.81-1.79c1-1.19,1.52-3.15,1.52-5.86s-.55-4.84-1.64-6.14a5.28,5.28,0,0,0-8.12-.09A8.1,8.1,0,0,0,2133,1487.87Z"/><path d="M2157.28,1491.29l8.2-.85a7.06,7.06,0,0,0,2.08,4.41,5.66,5.66,0,0,0,4,1.63,5.51,5.51,0,0,0,4.36-2.1c1.2-1.39,1.79-3.5,1.79-6.31,0-2.64-.59-4.61-1.77-5.93a5.9,5.9,0,0,0-4.62-2,8.37,8.37,0,0,0-6.35,3.14l-6.68-1,4.22-22.35h21.76v7.7h-15.52l-1.29,7.3a12.58,12.58,0,0,1,14.91,2.6,14.36,14.36,0,0,1,3.81,10.34,15.54,15.54,0,0,1-3.08,9.47,13.63,13.63,0,0,1-11.63,5.68,14.45,14.45,0,0,1-9.7-3.19A13.16,13.16,0,0,1,2157.28,1491.29Z"/><path d="M2537.12,1459.21a11.75,11.75,0,0,1,9.76,4.46q4.18,5.26,4.19,17.49t-4.22,17.52a11.73,11.73,0,0,1-9.73,4.39,12.31,12.31,0,0,1-10.11-4.82q-3.83-4.82-3.83-17.18,0-12.13,4.21-17.46A11.73,11.73,0,0,1,2537.12,1459.21Zm0,6.83a4.13,4.13,0,0,0-2.66,1,6.35,6.35,0,0,0-1.82,3.42c-.57,2.12-.85,5.71-.85,10.75s.25,8.5.76,10.38a7.35,7.35,0,0,0,1.92,3.77,4.2,4.2,0,0,0,5.32,0,6.37,6.37,0,0,0,1.81-3.41q.86-3.17.85-10.72t-.76-10.39a7.48,7.48,0,0,0-1.92-3.78A4.06,4.06,0,0,0,2537.12,1466Z"/><path d="M2558.13,1494.11h8.23V1500a20.41,20.41,0,0,1-.62,5.63,8.4,8.4,0,0,1-2.32,3.71,12.22,12.22,0,0,1-4.36,2.58l-1.61-3.4a6.94,6.94,0,0,0,3.55-2.26,6.78,6.78,0,0,0,1.11-3.92h-4Z"/><path d="M2573.24,1467.62V1460h28.16v6a44.15,44.15,0,0,0-7.09,9.85,57.39,57.39,0,0,0-5.49,13.63,50.6,50.6,0,0,0-1.86,12.91H2579a55.17,55.17,0,0,1,3.67-18.17,60.73,60.73,0,0,1,9.28-16.55Z"/><path d="M2606.73,1491.29l8.2-.85a7.06,7.06,0,0,0,2.08,4.41,5.64,5.64,0,0,0,4,1.63,5.51,5.51,0,0,0,4.36-2.1c1.19-1.39,1.79-3.5,1.79-6.31,0-2.64-.59-4.61-1.77-5.93a5.9,5.9,0,0,0-4.62-2,8.37,8.37,0,0,0-6.35,3.14l-6.68-1L2612,1460h21.76v7.7h-15.52l-1.29,7.3a12.58,12.58,0,0,1,14.91,2.6,14.36,14.36,0,0,1,3.81,10.34,15.54,15.54,0,0,1-3.08,9.47,13.63,13.63,0,0,1-11.63,5.68,14.45,14.45,0,0,1-9.7-3.19A13.16,13.16,0,0,1,2606.73,1491.29Z"/><path d="M1181.17,1622.27v-42.6h8.67V1615h21.56v7.24Z"/><path d="M1217.32,1622.27v-43H1226v43Z"/><path d="M1243.92,1622.27v-35.68h-12.74v-7.27h34.13v7.27h-12.72v35.68Z"/><path d="M1270.93,1622.27v-43h18.26q6.88,0,10,1.16a9.87,9.87,0,0,1,5,4.11,12.39,12.39,0,0,1,1.87,6.77,11.46,11.46,0,0,1-2.84,8q-2.85,3.15-8.5,4a20.3,20.3,0,0,1,4.65,3.61,49.08,49.08,0,0,1,4.93,7l5.25,8.38h-10.37l-6.27-9.35a61.12,61.12,0,0,0-4.57-6.31,6.73,6.73,0,0,0-2.61-1.79,14.4,14.4,0,0,0-4.37-.48h-1.75v17.93Zm8.68-24.79H1286q6.24,0,7.79-.52a4.68,4.68,0,0,0,2.44-1.82,5.63,5.63,0,0,0,.88-3.22,5.15,5.15,0,0,0-1.16-3.5,5.33,5.33,0,0,0-3.27-1.69c-.7-.1-2.81-.14-6.33-.14h-6.76Z"/><path d="M1312.48,1601.06a27.3,27.3,0,0,1,2-11,20.4,20.4,0,0,1,4-5.89,16.84,16.84,0,0,1,5.55-3.86,23.46,23.46,0,0,1,9.26-1.7q9.49,0,15.19,5.89t5.7,16.37q0,10.41-5.66,16.28t-15.11,5.87q-9.58,0-15.24-5.84T1312.48,1601.06Zm8.93-.29q0,7.29,3.37,11.06a11.59,11.59,0,0,0,17.07,0q3.32-3.74,3.32-11.2t-3.24-11a12,12,0,0,0-17.24,0Q1321.42,1593.36,1321.41,1600.77Z"/><path d="M1358.71,1608.3l8.43-.83a10.23,10.23,0,0,0,3.1,6.24,9.32,9.32,0,0,0,6.28,2c2.79,0,4.9-.59,6.31-1.78a5.26,5.26,0,0,0,2.13-4.14,3.87,3.87,0,0,0-.9-2.59,6.94,6.94,0,0,0-3.12-1.86c-1-.36-3.33-1-6.94-1.88q-7-1.73-9.78-4.25a11.27,11.27,0,0,1-2.1-14.78,11.71,11.71,0,0,1,5.36-4.35,21.61,21.61,0,0,1,8.45-1.49q8.08,0,12.18,3.54a12.56,12.56,0,0,1,4.29,9.47l-8.67.38a7.34,7.34,0,0,0-2.39-4.76,8.71,8.71,0,0,0-5.49-1.45,9.87,9.87,0,0,0-5.92,1.55,3.12,3.12,0,0,0-1.38,2.66,3.29,3.29,0,0,0,1.29,2.61q1.64,1.38,8,2.87a42.45,42.45,0,0,1,9.36,3.09,12.16,12.16,0,0,1,4.75,4.37,12.78,12.78,0,0,1,1.71,6.84,12.59,12.59,0,0,1-2.05,6.91,12.26,12.26,0,0,1-5.8,4.79,24.25,24.25,0,0,1-9.35,1.57q-8.15,0-12.51-3.76T1358.71,1608.3Z"/><path d="M1417.56,1579.32h15.85a30.87,30.87,0,0,1,8.18.82,14.25,14.25,0,0,1,6.47,4,18.58,18.58,0,0,1,4.1,7,31.67,31.67,0,0,1,1.41,10.16,28.22,28.22,0,0,1-1.32,9.14,18.89,18.89,0,0,1-4.6,7.58,15.13,15.13,0,0,1-6.09,3.43,26.1,26.1,0,0,1-7.68.91h-16.32Zm8.68,7.27V1615h6.47a23.34,23.34,0,0,0,5.25-.41,8,8,0,0,0,3.5-1.78,9.24,9.24,0,0,0,2.27-4.15,28.25,28.25,0,0,0,.88-7.87,25.82,25.82,0,0,0-.88-7.64,9.86,9.86,0,0,0-2.46-4.16,8.25,8.25,0,0,0-4-2,38.67,38.67,0,0,0-7.12-.41Z"/><path d="M1460.92,1622.27v-43h31.85v7.27H1469.6v9.52h21.56v7.23H1469.6V1615h24v7.24Z"/><path d="M1527.28,1622.27v-35.68h-12.74v-7.27h34.13v7.27H1536v35.68Z"/><path d="M1554,1622.27v-43h8.67v43Z"/><path d="M1571,1622.27v-43h8.44L1597,1608v-28.68h8v43h-8.7l-17.31-28v28Z"/><path d="M1623.93,1622.27v-35.68h-12.74v-7.27h34.13v7.27H1632.6v35.68Z"/><path d="M1685.19,1622.27h-9.43l-3.75-9.76h-17.17l-3.54,9.76h-9.2l16.72-43H1668Zm-16-17-5.91-15.94-5.8,15.94Z"/><path d="M127,1225.86l-42.95.05v-8.44l28.66-17.61-28.68,0v-8.05l43,0v8.7l-28,17.34,28,0Z"/><path d="M81.54,1170.92l-8.77-4v-9.23l8.77,8Zm2.47,11.8v-8.67l23.26,0a50,50,0,0,0,7.18-.33,7,7,0,0,0,4.23-2.66,9.16,9.16,0,0,0,1.59-5.73,8.68,8.68,0,0,0-1.51-5.56,6,6,0,0,0-3.71-2.26,49.36,49.36,0,0,0-7.3-.37l-23.76,0v-8.67l22.56,0a58.17,58.17,0,0,1,10.93.69,12.16,12.16,0,0,1,5.4,2.59,13.14,13.14,0,0,1,3.5,5,22.12,22.12,0,0,1,1.32,8.26q0,6.15-1.42,9.33a13.3,13.3,0,0,1-3.68,5,12,12,0,0,1-4.76,2.44,52.44,52.44,0,0,1-10.9.86Z"/><path d="M126.91,1139.4l-42.95,0v-13l29.29-7.82L83.93,1111v-13l43,0V1106l-33.81,0,33.82,8.48v8.35l-33.79,8.54,33.8,0Z"/><path d="M126.86,1089.31l-42.95,0,0-31.85h7.27l0,23.18h9.53l0-21.57h7.24l0,21.57,11.69,0,0-24h7.24Z"/><path d="M126.81,1049.26l-42.95,0,0-18.26q0-6.88,1.15-10a9.87,9.87,0,0,1,4.11-5,12.38,12.38,0,0,1,6.77-1.88,11.43,11.43,0,0,1,8,2.83q3.15,2.84,4,8.49a20.44,20.44,0,0,1,3.6-4.65,48.94,48.94,0,0,1,7-4.94l8.37-5.25V1021l-9.34,6.28a61.12,61.12,0,0,0-6.31,4.57,6.84,6.84,0,0,0-1.78,2.61,14.44,14.44,0,0,0-.48,4.37v1.76l17.93,0ZM102,1040.61v-6.41q0-6.24-.54-7.79a4.6,4.6,0,0,0-1.81-2.43,5.59,5.59,0,0,0-3.23-.88,5.17,5.17,0,0,0-3.5,1.16,5.33,5.33,0,0,0-1.68,3.27c-.1.7-.14,2.81-.14,6.33v6.77Z"/><path d="M105.55,1007.74a27.13,27.13,0,0,1-11-2,20.09,20.09,0,0,1-5.9-4,16.72,16.72,0,0,1-3.87-5.55A23.79,23.79,0,0,1,83.06,987q0-9.48,5.87-15.19t16.37-5.72q10.41,0,16.28,5.64t5.89,15.11q0,9.57-5.82,15.24T105.55,1007.74Zm-.3-8.93q7.31,0,11.06-3.39a11.59,11.59,0,0,0,0-17.06q-3.73-3.33-11.21-3.31t-11,3.25a11,11,0,0,0-3.63,8.6,11.08,11.08,0,0,0,3.69,8.64Q97.84,998.81,105.25,998.81Z"/><path d="M83.74,942.7V926.85a30.52,30.52,0,0,1,.81-8.18,14.32,14.32,0,0,1,3.95-6.48,18.85,18.85,0,0,1,7-4.1,31.27,31.27,0,0,1,10.15-1.42,28,28,0,0,1,9.14,1.31,18.85,18.85,0,0,1,7.59,4.59,15.26,15.26,0,0,1,3.44,6.09,26.32,26.32,0,0,1,.92,7.67v16.32ZM91,934l28.45,0v-6.47a23,23,0,0,0-.42-5.24,8,8,0,0,0-1.79-3.5,9.11,9.11,0,0,0-4.14-2.27,28.35,28.35,0,0,0-7.87-.87,25.83,25.83,0,0,0-7.65.89A9.79,9.79,0,0,0,93.42,919a8.18,8.18,0,0,0-2,4,39,39,0,0,0-.4,7.12Z"/><path d="M126.64,899.29l-42.94.05,0-31.85h7.27l0,23.18h9.52l0-21.56h7.23l0,21.56H119.4l0-24h7.24Z"/><path d="M126.58,842.6l-42.95,0,0-31.85h7.26l0,23.17h9.52l0-21.56h7.23l0,21.56h11.69l0-24h7.24Z"/><path d="M126.54,802.55l-42.95.05,0-18.25q0-6.89,1.14-10a9.91,9.91,0,0,1,4.11-5,12.38,12.38,0,0,1,6.77-1.88,11.52,11.52,0,0,1,8,2.83q3.15,2.85,4,8.5a20.56,20.56,0,0,1,3.6-4.65,49.63,49.63,0,0,1,7-4.95l8.37-5.25,0,10.37-9.34,6.28a60.64,60.64,0,0,0-6.31,4.58,6.62,6.62,0,0,0-1.79,2.61,14.37,14.37,0,0,0-.48,4.36v1.76l17.93,0Zm-24.8-8.64v-6.42c0-4.16-.18-6.75-.53-7.79a4.7,4.7,0,0,0-1.82-2.43,5.57,5.57,0,0,0-3.22-.87,5.08,5.08,0,0,0-3.5,1.16A5.33,5.33,0,0,0,91,780.83c-.09.7-.14,2.81-.13,6.32v6.77Z"/><path d="M126.49,759.22l-42.95,0,0-18.25q0-6.88,1.14-10a9.91,9.91,0,0,1,4.11-5,12.4,12.4,0,0,1,6.77-1.88,11.5,11.5,0,0,1,8,2.83q3.15,2.85,4,8.5a20.25,20.25,0,0,1,3.59-4.65,49.63,49.63,0,0,1,7-4.95l8.37-5.25,0,10.37-9.34,6.28a60.64,60.64,0,0,0-6.31,4.58,6.73,6.73,0,0,0-1.79,2.61,14.12,14.12,0,0,0-.47,4.36v1.76l17.93,0Zm-24.8-8.64v-6.42c0-4.16-.19-6.75-.54-7.79a4.7,4.7,0,0,0-1.82-2.43,5.55,5.55,0,0,0-3.22-.87,5.1,5.1,0,0,0-3.5,1.16,5.27,5.27,0,0,0-1.68,3.27q-.15,1.05-.14,6.32v6.77Z"/><path d="M105.23,717.7a27.18,27.18,0,0,1-11-2,20,20,0,0,1-5.89-4,16.72,16.72,0,0,1-3.87-5.55A23.41,23.41,0,0,1,82.74,697q0-9.5,5.87-15.2T105,676.05q10.39,0,16.28,5.63t5.89,15.11q0,9.59-5.83,15.24T105.23,717.7Zm-.3-8.93q7.29,0,11-3.38a11.58,11.58,0,0,0,0-17.07Q112.26,685,104.78,685t-11,3.25a12,12,0,0,0,.07,17.24C96.29,707.69,100,708.77,104.93,708.77Z"/><path d="M126.39,669.22l-42.95,0,0-18.25q0-6.88,1.14-10a9.91,9.91,0,0,1,4.11-5,12.4,12.4,0,0,1,6.77-1.88,11.52,11.52,0,0,1,8,2.83q3.15,2.85,4,8.5a20.25,20.25,0,0,1,3.59-4.65,49.63,49.63,0,0,1,7-4.95l8.37-5.25,0,10.37L117,647.26a60.64,60.64,0,0,0-6.31,4.58,6.73,6.73,0,0,0-1.79,2.61,14.12,14.12,0,0,0-.47,4.36v1.76l17.93,0Zm-24.8-8.64v-6.42c0-4.16-.19-6.75-.54-7.79a4.7,4.7,0,0,0-1.82-2.43,5.55,5.55,0,0,0-3.22-.87,5.13,5.13,0,0,0-3.5,1.16,5.27,5.27,0,0,0-1.68,3.27q-.15,1.05-.14,6.32v6.77Z"/><path d="M126.34,625.92,83.39,626l0-31.84h7.27l0,23.17h9.52l0-21.56h7.24l0,21.56h11.69l0-24h7.23Z"/><path d="M112.32,588.12l-.83-8.44a10.28,10.28,0,0,0,6.24-3.1,9.33,9.33,0,0,0,2-6.28q0-4.2-1.78-6.31a5.22,5.22,0,0,0-4.14-2.12,4,4,0,0,0-2.6.89,7.15,7.15,0,0,0-1.85,3.12c-.35,1-1,3.34-1.87,7q-1.73,7-4.24,9.79a11.16,11.16,0,0,1-8.64,4,10.94,10.94,0,0,1-6.13-1.85,11.62,11.62,0,0,1-4.36-5.36,21.56,21.56,0,0,1-1.51-8.45q0-8.08,3.54-12.17a12.53,12.53,0,0,1,9.45-4.31l.39,8.68a7.34,7.34,0,0,0-4.75,2.39A8.71,8.71,0,0,0,89.77,571a10,10,0,0,0,1.56,5.92A3.11,3.11,0,0,0,94,578.29,3.31,3.31,0,0,0,96.61,577c.91-1.09,1.87-3.75,2.86-8a42,42,0,0,1,3.08-9.36,11.93,11.93,0,0,1,4.36-4.75,12.76,12.76,0,0,1,6.84-1.73,12.62,12.62,0,0,1,6.91,2,12.27,12.27,0,0,1,4.8,5.79,24.43,24.43,0,0,1,1.58,9.35q0,8.14-3.75,12.51T112.32,588.12Z"/><polygon points="527.74 1252.21 496.88 1215.46 527.74 1178.72 558.59 1215.46 527.74 1252.21" style="fill:#fc1a18"/><polygon points="618.93 1201.21 588.08 1164.46 618.93 1127.71 649.78 1164.46 618.93 1201.21" style="fill:#fc1a18"/><polygon points="668.89 1252.21 638.04 1215.46 668.89 1178.72 699.74 1215.46 668.89 1252.21" style="fill:#fc1a18"/><polygon points="707.27 1172.87 676.42 1136.12 707.27 1099.38 738.12 1136.12 707.27 1172.87" style="fill:#fc1a18"/><polygon points="761.64 1088.86 730.79 1052.12 761.64 1015.37 792.49 1052.12 761.64 1088.86" style="fill:#fc1a18"/><polygon points="792.49 1149.61 761.64 1112.86 792.49 1076.12 823.34 1112.86 792.49 1149.61" style="fill:#fc1a18"/><polygon points="844.83 1179.49 813.98 1142.74 844.83 1105.99 875.68 1142.74 844.83 1179.49" style="fill:#fc1a18"/><polygon points="903.51 1179.49 872.66 1142.74 903.51 1105.99 934.36 1142.74 903.51 1179.49" style="fill:#fc1a18"/><polygon points="944.75 1142.74 913.9 1105.99 944.75 1069.25 975.6 1105.99 944.75 1142.74" style="fill:#fc1a18"/><polygon points="987.13 1098.35 956.28 1061.6 987.13 1024.85 1017.98 1061.6 987.13 1098.35" style="fill:#fc1a18"/><polygon points="1037.09 1061.6 1006.24 1024.85 1037.09 988.11 1067.94 1024.85 1037.09 1061.6" style="fill:#fc1a18"/><polygon points="987.13 1014.14 956.28 977.39 987.13 940.65 1017.98 977.39 987.13 1014.14" style="fill:#fc1a18"/><polygon points="1073.49 1153.93 1042.64 1117.19 1073.49 1080.44 1104.34 1117.19 1073.49 1153.93" style="fill:#fc1a18"/><polygon points="1165.88 1043.89 1135.03 1007.15 1165.88 970.4 1196.73 1007.15 1165.88 1043.89" style="fill:#fc1a18"/><polygon points="1212.62 988.21 1181.77 951.47 1212.62 914.72 1243.47 951.47 1212.62 988.21" style="fill:#fc1a18"/><polygon points="1306.2 1014.14 1275.35 977.4 1306.2 940.65 1337.05 977.4 1306.2 1014.14" style="fill:#fc1a18"/><polygon points="1350.14 1103.24 1319.29 1066.49 1350.14 1029.74 1380.99 1066.49 1350.14 1103.24" style="fill:#fc1a18"/><polygon points="1396.14 1009.25 1365.29 972.51 1396.14 935.76 1426.99 972.51 1396.14 1009.25" style="fill:#fc1a18"/><polygon points="1441.18 958.55 1410.33 921.81 1441.18 885.06 1472.03 921.81 1441.18 958.55" style="fill:#fc1a18"/><polygon points="1506.2 969.75 1475.35 933 1506.2 896.25 1537.05 933 1506.2 969.75" style="fill:#fc1a18"/><polygon points="1548.5 1009.25 1517.65 972.51 1548.5 935.76 1579.35 972.51 1548.5 1009.25" style="fill:#fc1a18"/><polygon points="1588.8 922.29 1557.95 885.54 1588.8 848.79 1619.65 885.54 1588.8 922.29" style="fill:#fc1a18"/><polygon points="1670.01 969.75 1639.16 933 1670.01 896.25 1700.86 933 1670.01 969.75" style="fill:#fc1a18"/><polygon points="1737.42 969.75 1706.57 933 1737.42 896.25 1768.27 933 1737.42 969.75" style="fill:#fc1a18"/><polygon points="1854.92 989.27 1824.07 952.52 1854.92 915.77 1885.77 952.52 1854.92 989.27" style="fill:#fc1a18"/><polygon points="1854.92 1056.24 1824.07 1019.5 1854.92 982.75 1885.77 1019.5 1854.92 1056.24" style="fill:#fc1a18"/><polygon points="1854.92 917.62 1824.07 880.87 1854.92 844.13 1885.77 880.87 1854.92 917.62" style="fill:#fc1a18"/><polygon points="1915.68 924.75 1884.83 888 1915.68 851.25 1946.53 888 1915.68 924.75" style="fill:#fc1a18"/><polygon points="1915.68 866.19 1884.83 829.44 1915.68 792.69 1946.53 829.44 1915.68 866.19" style="fill:#fc1a18"/><polygon points="1949.32 805.18 1918.47 768.44 1949.32 731.69 1980.17 768.44 1949.32 805.18" style="fill:#fc1a18"/><polygon points="1997.83 886.02 1966.98 849.28 1997.83 812.53 2028.68 849.28 1997.83 886.02" style="fill:#fc1a18"/><polygon points="2028.79 782.17 1997.94 745.42 2028.79 708.67 2059.64 745.42 2028.79 782.17" style="fill:#fc1a18"/><polygon points="2082.72 835.33 2051.86 798.58 2082.72 761.83 2113.57 798.58 2082.72 835.33" style="fill:#fc1a18"/><polygon points="2130.49 757.87 2099.64 721.13 2130.49 684.38 2161.35 721.13 2130.49 757.87" style="fill:#fc1a18"/><polygon points="2188.38 706.75 2157.53 670.01 2188.38 633.26 2219.23 670.01 2188.38 706.75" style="fill:#fc1a18"/><polygon points="2270.06 706.75 2239.21 670.01 2270.06 633.26 2300.91 670.01 2270.06 706.75" style="fill:#fc1a18"/><polygon points="2324.78 654.38 2293.93 617.63 2324.78 580.88 2355.63 617.63 2324.78 654.38" style="fill:#fc1a18"/><polygon points="2360.3 612.07 2329.45 575.33 2360.3 538.58 2391.15 575.33 2360.3 612.07" style="fill:#fc1a18"/><polygon points="2219.23 835.33 2188.38 798.58 2219.23 761.83 2250.09 798.58 2219.23 835.33" style="fill:#fc1a18"/><polygon points="2309.64 835.33 2278.78 798.58 2309.64 761.83 2340.49 798.58 2309.64 835.33" style="fill:#fc1a18"/></svg>