<svg id="Capa_1" data-name="Capa 1" xmlns="http://www.w3.org/2000/svg" viewBox="0 0 968.19 396.5"><path d="M883.34,164.48s-25.19-.73-59.88,22.87-34.36,71.89-34.36,71.89l-50.94-58.73s80-7.19,100.57-78.62Z" style="fill:#e8687d;opacity:0.5"/><path d="M550.78,162.65s-25.19-.72-59.88,22.87-34.36,71.9-34.36,71.9L405.6,198.69s80-7.2,100.57-78.63Z" style="fill:#e32242;opacity:0.5"/><path d="M289,115.53s2.06,25.11,29.34,57,75.25,26.21,75.25,26.21L340.8,255.84s-16-78.68-89.24-91.27Z" style="fill:#b01a33;opacity:0.5"/><path d="M78.8,199.39s25.2.36,59.54-23.73,33.33-72.38,33.33-72.38l40.19,62.85s-68.27,3.48-87.84,75.2Z" style="fill:#28309f"/><circle cx="67.25" cy="257.18" r="58.93" style="fill:#28309f"/><circle cx="230.2" cy="110.12" r="58.93" style="fill:#b01a33"/><circle cx="562.75" cy="110.12" r="58.93" style="fill:#28309f"/><circle cx="147.93" cy="182.13" r="11.08" style="fill:#28309f"/><circle cx="314" cy="184.66" r="11.08" style="fill:#b01a33"/><circle cx="895.31" cy="111.94" r="58.93" style="fill:#b01a33"/><circle cx="479.31" cy="179.9" r="11.08" style="fill:#e32242"/><path d="M671.42,259.24s2.76-29.1-24.21-61.24-88.54-34.8-88.54-34.8L619,107.73s6.19,85.53,101.25,91.66Z" style="fill:#28309f"/><circle cx="648.73" cy="184.43" r="11.08" style="fill:#28309f"/><circle cx="809.27" cy="184.08" r="11.08" style="fill:#e8687d"/><circle cx="730.31" cy="257.18" r="58.93" style="fill:#e8687d"/><path d="M35.51,243.45h4.58a14.14,14.14,0,0,1,2,.11,3.08,3.08,0,0,1,1.2.47,2.88,2.88,0,0,1,.87,1,2.56,2.56,0,0,1,.36,1.34,2.72,2.72,0,0,1-1.61,2.48,3.11,3.11,0,0,1,1.61,1,2.8,2.8,0,0,1,.56,1.73,3.31,3.31,0,0,1-.37,1.52,3,3,0,0,1-1,1.18,3.22,3.22,0,0,1-1.55.54c-.38,0-1.31.07-2.79.08h-3.9Zm2.32,1.9V248h1.51c.9,0,1.46,0,1.68,0a1.49,1.49,0,0,0,.94-.41,1.36,1.36,0,0,0,0-1.75,1.28,1.28,0,0,0-.87-.41c-.23,0-.89,0-2,0Zm0,4.56V253H40a10,10,0,0,0,1.58-.07,1.35,1.35,0,0,0,.84-.46,1.37,1.37,0,0,0,.33-1,1.54,1.54,0,0,0-.25-.87,1.44,1.44,0,0,0-.73-.53,7.81,7.81,0,0,0-2.05-.16Z" style="fill:#fff"/><path d="M48.69,249.14l-2-.36A3.13,3.13,0,0,1,47.85,247a4.29,4.29,0,0,1,2.44-.57,5.32,5.32,0,0,1,2.19.34,2.29,2.29,0,0,1,1,.89,4.58,4.58,0,0,1,.29,2l0,2.56a9.15,9.15,0,0,0,.1,1.62,4.41,4.41,0,0,0,.4,1.11H52.08c0-.14-.12-.36-.21-.65,0-.13-.06-.21-.07-.26a3.87,3.87,0,0,1-1.21.82,3.28,3.28,0,0,1-1.36.28,2.79,2.79,0,0,1-2-.7,2.28,2.28,0,0,1-.74-1.75,2.42,2.42,0,0,1,.33-1.26,2.19,2.19,0,0,1,.94-.84,7,7,0,0,1,1.75-.51,13,13,0,0,0,2.13-.54v-.22a1.13,1.13,0,0,0-.31-.9,1.87,1.87,0,0,0-1.18-.27,1.31,1.31,0,0,0-1.44,1Zm2.93,1.78c-.28.09-.72.2-1.33.33a3.88,3.88,0,0,0-1.2.39.92.92,0,0,0-.43.77,1.09,1.09,0,0,0,.35.8,1.21,1.21,0,0,0,.87.33,1.87,1.87,0,0,0,1.13-.39,1.4,1.4,0,0,0,.53-.73,4.23,4.23,0,0,0,.08-1.07Z" style="fill:#fff"/><path d="M55.17,252.53l2.2-.33a1.69,1.69,0,0,0,.57,1,2,2,0,0,0,1.21.33,2.16,2.16,0,0,0,1.28-.31.71.71,0,0,0,.29-.59.56.56,0,0,0-.16-.41,1.8,1.8,0,0,0-.73-.29,11.92,11.92,0,0,1-3.37-1.07,2.13,2.13,0,0,1-1-1.87,2.29,2.29,0,0,1,.85-1.81,4,4,0,0,1,2.64-.73,4.61,4.61,0,0,1,2.53.55,2.86,2.86,0,0,1,1.14,1.64l-2.07.38a1.31,1.31,0,0,0-.5-.74A1.86,1.86,0,0,0,59,248a2.42,2.42,0,0,0-1.25.25.52.52,0,0,0-.25.44.5.5,0,0,0,.22.4,8.2,8.2,0,0,0,2.05.62,6.09,6.09,0,0,1,2.45,1,2,2,0,0,1,.69,1.64,2.52,2.52,0,0,1-1,2,4.27,4.27,0,0,1-2.82.82,4.64,4.64,0,0,1-2.69-.69A3.15,3.15,0,0,1,55.17,252.53Z" style="fill:#fff"/><path d="M69.65,252.26l2.18.37a3.57,3.57,0,0,1-1.33,1.83,3.87,3.87,0,0,1-2.27.63A3.71,3.71,0,0,1,65,253.67a4.77,4.77,0,0,1-.82-2.86,4.59,4.59,0,0,1,1.08-3.23A3.58,3.58,0,0,1,68,246.42a3.68,3.68,0,0,1,2.92,1.22,5.42,5.42,0,0,1,1,3.75h-5.5A2.21,2.21,0,0,0,67,252.9a1.64,1.64,0,0,0,1.27.55,1.41,1.41,0,0,0,.87-.28A1.78,1.78,0,0,0,69.65,252.26Zm.12-2.22a2.11,2.11,0,0,0-.49-1.45,1.5,1.5,0,0,0-1.14-.49,1.52,1.52,0,0,0-1.19.52,2.06,2.06,0,0,0-.46,1.42Z" style="fill:#fff"/><path d="M85.8,254.9h-2v-1.22a3.25,3.25,0,0,1-1.2,1.06,3.12,3.12,0,0,1-1.4.35,3.19,3.19,0,0,1-2.45-1.15,5.62,5.62,0,0,1,0-6.43,3.22,3.22,0,0,1,2.5-1.09,3.11,3.11,0,0,1,2.41,1.15v-4.12h2.2Zm-5.86-4.33a3.83,3.83,0,0,0,.36,1.92,1.66,1.66,0,0,0,1.49.86,1.63,1.63,0,0,0,1.29-.64,3,3,0,0,0,.53-1.93,3.23,3.23,0,0,0-.52-2.06,1.7,1.7,0,0,0-2.63,0A2.8,2.8,0,0,0,79.94,250.57Z" style="fill:#fff"/><path d="M92.76,252.26l2.19.37a3.57,3.57,0,0,1-1.33,1.83,3.93,3.93,0,0,1-2.28.63,3.69,3.69,0,0,1-3.2-1.42,4.7,4.7,0,0,1-.82-2.86,4.59,4.59,0,0,1,1.08-3.23,3.57,3.57,0,0,1,2.72-1.16,3.68,3.68,0,0,1,2.93,1.22,5.42,5.42,0,0,1,1,3.75h-5.5a2.16,2.16,0,0,0,.53,1.51,1.64,1.64,0,0,0,1.27.55,1.37,1.37,0,0,0,.86-.28A1.71,1.71,0,0,0,92.76,252.26Zm.13-2.22a2.16,2.16,0,0,0-.49-1.45,1.6,1.6,0,0,0-2.33,0,2,2,0,0,0-.46,1.42Z" style="fill:#fff"/><path d="M54.67,274.1h-2v-1.22a3.25,3.25,0,0,1-1.2,1.06,3.08,3.08,0,0,1-1.39.35,3.18,3.18,0,0,1-2.45-1.15,5.65,5.65,0,0,1,0-6.43,3.24,3.24,0,0,1,2.51-1.09,3.11,3.11,0,0,1,2.41,1.15v-4.12h2.19Zm-5.86-4.33a3.71,3.71,0,0,0,.37,1.92,1.64,1.64,0,0,0,1.48.86,1.6,1.6,0,0,0,1.29-.64,2.94,2.94,0,0,0,.53-1.93,3.24,3.24,0,0,0-.51-2.05,1.7,1.7,0,0,0-2.63,0A2.8,2.8,0,0,0,48.81,269.77Z" style="fill:#fff"/><path d="M58.48,268.34l-2-.36a3.13,3.13,0,0,1,1.16-1.79,4.29,4.29,0,0,1,2.44-.57,5.23,5.23,0,0,1,2.18.34,2.27,2.27,0,0,1,1,.89,4.58,4.58,0,0,1,.29,2l0,2.56a9.15,9.15,0,0,0,.1,1.62,4.41,4.41,0,0,0,.4,1.11H61.87c0-.14-.12-.36-.21-.65a1.68,1.68,0,0,0-.08-.26,3.72,3.72,0,0,1-1.2.82,3.33,3.33,0,0,1-1.37.28,2.82,2.82,0,0,1-2-.7,2.3,2.3,0,0,1-.73-1.75,2.42,2.42,0,0,1,.33-1.26,2.19,2.19,0,0,1,.94-.84,7,7,0,0,1,1.75-.51,13,13,0,0,0,2.13-.54v-.22a1.13,1.13,0,0,0-.31-.9,1.87,1.87,0,0,0-1.18-.27,1.31,1.31,0,0,0-1.44,1Zm2.93,1.78c-.28.09-.72.2-1.33.33a3.88,3.88,0,0,0-1.2.39.92.92,0,0,0-.43.77,1.09,1.09,0,0,0,.35.8,1.21,1.21,0,0,0,.87.33,1.89,1.89,0,0,0,1.13-.39,1.4,1.4,0,0,0,.53-.73,4.77,4.77,0,0,0,.08-1.07Z" style="fill:#fff"/><path d="M69.54,265.8v1.75H68v3.35a8.21,8.21,0,0,0,0,1.18.46.46,0,0,0,.2.28.62.62,0,0,0,.37.11,2.89,2.89,0,0,0,.88-.21l.19,1.7a4.35,4.35,0,0,1-1.74.33,2.83,2.83,0,0,1-1.07-.2,1.61,1.61,0,0,1-.7-.52,2,2,0,0,1-.3-.85,9.83,9.83,0,0,1-.08-1.55v-3.62h-1V265.8h1v-1.64L68,262.87v2.93Z" style="fill:#fff"/><path d="M70.55,269.84a4.48,4.48,0,0,1,.54-2.12,3.66,3.66,0,0,1,1.53-1.56,4.52,4.52,0,0,1,2.21-.54,4.11,4.11,0,0,1,3.08,1.22,4.22,4.22,0,0,1,1.21,3.09,4.29,4.29,0,0,1-1.22,3.12,4.09,4.09,0,0,1-3.06,1.24,4.72,4.72,0,0,1-2.17-.52,3.5,3.5,0,0,1-1.58-1.51A5,5,0,0,1,70.55,269.84Zm2.25.11a2.73,2.73,0,0,0,.59,1.89,1.91,1.91,0,0,0,2.89,0,3.37,3.37,0,0,0,0-3.78,1.93,1.93,0,0,0-2.89,0A2.76,2.76,0,0,0,72.8,270Z" style="fill:#fff"/><path d="M80.06,271.73l2.2-.33a1.66,1.66,0,0,0,.57,1,2,2,0,0,0,1.21.33,2.16,2.16,0,0,0,1.28-.31.71.71,0,0,0,.29-.59.56.56,0,0,0-.16-.41,1.8,1.8,0,0,0-.73-.29A11.92,11.92,0,0,1,81.35,270a2.13,2.13,0,0,1-1-1.87,2.29,2.29,0,0,1,.85-1.81,4,4,0,0,1,2.64-.73,4.61,4.61,0,0,1,2.53.55,2.86,2.86,0,0,1,1.14,1.64l-2.07.38a1.31,1.31,0,0,0-.5-.74,1.86,1.86,0,0,0-1.06-.26,2.37,2.37,0,0,0-1.24.25.5.5,0,0,0-.25.44.49.49,0,0,0,.21.4,8.37,8.37,0,0,0,2,.62,6.09,6.09,0,0,1,2.45,1,2,2,0,0,1,.69,1.64,2.52,2.52,0,0,1-1,2,4.27,4.27,0,0,1-2.82.82,4.64,4.64,0,0,1-2.69-.69A3.19,3.19,0,0,1,80.06,271.73Z" style="fill:#fff"/><path d="M189.52,105.62V94.26h2.31v9.43h5.75v1.93Z" style="fill:#fff"/><path d="M199.22,96.2v-2h2.19v2Zm0,9.42V97.33h2.19v8.29Z" style="fill:#fff"/><path d="M203.5,97.33h2v1.13a3.26,3.26,0,0,1,2.59-1.32,2.76,2.76,0,0,1,1.38.33,2.48,2.48,0,0,1,1,1,3.71,3.71,0,0,1,1.18-1,2.87,2.87,0,0,1,1.35-.33,3,3,0,0,1,1.55.37,2.24,2.24,0,0,1,.94,1.09,4.73,4.73,0,0,1,.23,1.72v5.3h-2.2v-4.74a3.56,3.56,0,0,0-.22-1.59,1,1,0,0,0-.94-.47,1.48,1.48,0,0,0-.87.28,1.56,1.56,0,0,0-.58.82,6,6,0,0,0-.18,1.72v4h-2.2v-4.54a7,7,0,0,0-.11-1.57A1,1,0,0,0,208,99a1.16,1.16,0,0,0-.67-.17,1.62,1.62,0,0,0-.91.27,1.52,1.52,0,0,0-.58.79,5.7,5.7,0,0,0-.18,1.71v4H203.5Z" style="fill:#fff"/><path d="M217.82,97.33h2.05v1.21a3.18,3.18,0,0,1,1.08-1,3,3,0,0,1,1.51-.39,3.17,3.17,0,0,1,2.45,1.13,4.61,4.61,0,0,1,1,3.16,4.72,4.72,0,0,1-1,3.23,3.13,3.13,0,0,1-2.46,1.15,2.79,2.79,0,0,1-1.24-.27,4.29,4.29,0,0,1-1.18-.94v4.18h-2.2Zm2.18,4a3.2,3.2,0,0,0,.55,2.07,1.68,1.68,0,0,0,1.35.67,1.6,1.6,0,0,0,1.28-.62,3.12,3.12,0,0,0,.5-2,3,3,0,0,0-.52-1.93,1.6,1.6,0,0,0-1.3-.64,1.69,1.69,0,0,0-1.33.62A2.75,2.75,0,0,0,220,101.33Z" style="fill:#fff"/><path d="M227.66,96.2v-2h2.2v2Zm0,9.42V97.33h2.2v8.29Z" style="fill:#fff"/><path d="M236.91,103l2.19.37a3.62,3.62,0,0,1-1.33,1.83,3.93,3.93,0,0,1-2.28.63,3.71,3.71,0,0,1-3.2-1.41,4.74,4.74,0,0,1-.82-2.86,4.55,4.55,0,0,1,1.07-3.23,3.56,3.56,0,0,1,2.73-1.17,3.69,3.69,0,0,1,2.92,1.22,5.39,5.39,0,0,1,1,3.75h-5.5a2.2,2.2,0,0,0,.53,1.52,1.66,1.66,0,0,0,1.26.54,1.32,1.32,0,0,0,.87-.28A1.78,1.78,0,0,0,236.91,103Zm.13-2.22a2.11,2.11,0,0,0-.5-1.45,1.59,1.59,0,0,0-2.32,0,2,2,0,0,0-.47,1.42Z" style="fill:#fff"/><path d="M240.12,105.62v-1.71l3.11-3.57c.51-.58.89-1,1.13-1.24-.25,0-.59,0-1,0l-2.93,0V97.33h6.86v1.55l-3.18,3.66L243,103.75l1.13-.06h3.4v1.93Z" style="fill:#fff"/><path d="M250.65,99.86l-2-.36a3.11,3.11,0,0,1,1.16-1.78,4.21,4.21,0,0,1,2.44-.58,5.08,5.08,0,0,1,2.18.35,2.19,2.19,0,0,1,1,.88,4.62,4.62,0,0,1,.29,2l0,2.57a9,9,0,0,0,.1,1.61,4.28,4.28,0,0,0,.4,1.11H254c0-.14-.12-.36-.21-.65a1.2,1.2,0,0,0-.08-.25,4.07,4.07,0,0,1-1.2.82,3.49,3.49,0,0,1-1.37.27,2.82,2.82,0,0,1-2-.7,2.29,2.29,0,0,1-.73-1.75,2.42,2.42,0,0,1,.33-1.26,2.25,2.25,0,0,1,.94-.84,7,7,0,0,1,1.75-.51,11.17,11.17,0,0,0,2.13-.54V100a1.13,1.13,0,0,0-.31-.9,1.87,1.87,0,0,0-1.18-.27,1.31,1.31,0,0,0-1.44,1Zm2.93,1.78c-.28.09-.72.2-1.33.33a3.88,3.88,0,0,0-1.2.39.92.92,0,0,0-.43.77,1.09,1.09,0,0,0,.35.8,1.21,1.21,0,0,0,.87.33,1.89,1.89,0,0,0,1.13-.39,1.42,1.42,0,0,0,.53-.72,4.9,4.9,0,0,0,.08-1.07Z" style="fill:#fff"/><path d="M267.15,103l2.19.37a3.62,3.62,0,0,1-1.33,1.83,3.93,3.93,0,0,1-2.28.63,3.71,3.71,0,0,1-3.2-1.41,4.74,4.74,0,0,1-.82-2.86,4.55,4.55,0,0,1,1.08-3.23,3.52,3.52,0,0,1,2.72-1.17,3.68,3.68,0,0,1,2.92,1.22,5.39,5.39,0,0,1,1,3.75H264a2.2,2.2,0,0,0,.53,1.52,1.66,1.66,0,0,0,1.26.54,1.32,1.32,0,0,0,.87-.28A1.71,1.71,0,0,0,267.15,103Zm.13-2.22a2.16,2.16,0,0,0-.49-1.45,1.6,1.6,0,0,0-2.33,0,2,2,0,0,0-.46,1.42Z" style="fill:#fff"/><path d="M187.23,115.4v-2h2.19v2Zm0,9.42v-8.29h2.19v8.29Z" style="fill:#fff"/><path d="M199.22,124.82H197v-4.23a6.27,6.27,0,0,0-.14-1.74,1.17,1.17,0,0,0-.45-.61,1.29,1.29,0,0,0-.77-.22,1.73,1.73,0,0,0-1,.31,1.56,1.56,0,0,0-.62.83,7.18,7.18,0,0,0-.17,1.9v3.76h-2.19v-8.29h2v1.21a3.32,3.32,0,0,1,2.73-1.4,3.39,3.39,0,0,1,1.33.26,2.23,2.23,0,0,1,.91.67,2.51,2.51,0,0,1,.43.92,6.93,6.93,0,0,1,.12,1.48Z" style="fill:#fff"/><path d="M205.25,116.53v1.75h-1.5v3.34a10.29,10.29,0,0,0,0,1.18.47.47,0,0,0,.2.28.62.62,0,0,0,.37.11,2.82,2.82,0,0,0,.88-.21l.19,1.7a4.34,4.34,0,0,1-1.73.33,2.76,2.76,0,0,1-1.07-.2,1.49,1.49,0,0,1-.7-.51,2.12,2.12,0,0,1-.31-.86,10.26,10.26,0,0,1-.07-1.55v-3.61h-1v-1.75h1v-1.65l2.2-1.28v2.93Z" style="fill:#fff"/><path d="M211.58,122.18l2.19.37a3.58,3.58,0,0,1-1.34,1.83,3.87,3.87,0,0,1-2.27.63A3.73,3.73,0,0,1,207,123.6a4.81,4.81,0,0,1-.82-2.86,4.57,4.57,0,0,1,1.08-3.23,3.56,3.56,0,0,1,2.73-1.17,3.69,3.69,0,0,1,2.92,1.22,5.44,5.44,0,0,1,1,3.75h-5.5a2.3,2.3,0,0,0,.53,1.52,1.69,1.69,0,0,0,1.27.54,1.35,1.35,0,0,0,.87-.28A1.78,1.78,0,0,0,211.58,122.18Zm.12-2.22a2.13,2.13,0,0,0-.49-1.45,1.5,1.5,0,0,0-1.14-.49,1.53,1.53,0,0,0-1.19.52,2.06,2.06,0,0,0-.46,1.42Z" style="fill:#fff"/><path d="M215.47,125.37l2.51.3a.86.86,0,0,0,.29.61,1.66,1.66,0,0,0,1,.23,2.59,2.59,0,0,0,1.29-.26,1.07,1.07,0,0,0,.44-.55,3.32,3.32,0,0,0,.1-1v-1.21a3,3,0,0,1-2.49,1.34,3.05,3.05,0,0,1-2.64-1.41,4.82,4.82,0,0,1-.77-2.78,4.62,4.62,0,0,1,1-3.19,3.27,3.27,0,0,1,2.5-1.1,3,3,0,0,1,2.54,1.35v-1.16h2.05V124a7.54,7.54,0,0,1-.24,2.2,2.77,2.77,0,0,1-.68,1.14,3.11,3.11,0,0,1-1.17.65,6.3,6.3,0,0,1-1.84.23,4.82,4.82,0,0,1-3-.72,2.3,2.3,0,0,1-.88-1.83A2.62,2.62,0,0,1,215.47,125.37Zm2-4.87a3,3,0,0,0,.51,1.94,1.57,1.57,0,0,0,1.26.61,1.74,1.74,0,0,0,1.36-.63,2.74,2.74,0,0,0,.56-1.86,3,3,0,0,0-.53-1.92,1.73,1.73,0,0,0-1.35-.62,1.62,1.62,0,0,0-1.3.61A2.88,2.88,0,0,0,217.43,120.5Z" style="fill:#fff"/><path d="M227.55,124.82h-2.2v-8.29h2v1.18a3.6,3.6,0,0,1,.94-1.11,1.81,1.81,0,0,1,.95-.26,2.87,2.87,0,0,1,1.45.41l-.68,1.92a1.94,1.94,0,0,0-1-.36,1.2,1.2,0,0,0-.78.25,1.7,1.7,0,0,0-.51.92,13.27,13.27,0,0,0-.18,2.78Z" style="fill:#fff"/><path d="M233.31,119.06l-2-.36a3.06,3.06,0,0,1,1.16-1.78,4.17,4.17,0,0,1,2.43-.58,5.13,5.13,0,0,1,2.19.35,2.12,2.12,0,0,1,1,.88,4.43,4.43,0,0,1,.3,2l0,2.57a8.81,8.81,0,0,0,.11,1.61,4.62,4.62,0,0,0,.39,1.11h-2.17a5.59,5.59,0,0,1-.21-.65,2.55,2.55,0,0,0-.08-.25,4.07,4.07,0,0,1-1.2.82,3.49,3.49,0,0,1-1.37.27,2.81,2.81,0,0,1-2-.7,2.3,2.3,0,0,1-.74-1.75,2.42,2.42,0,0,1,.34-1.26,2.19,2.19,0,0,1,.94-.84,7,7,0,0,1,1.75-.51,11.39,11.39,0,0,0,2.13-.54v-.22a1.13,1.13,0,0,0-.31-.9,1.87,1.87,0,0,0-1.18-.27,1.62,1.62,0,0,0-.92.23A1.65,1.65,0,0,0,233.31,119.06Zm2.94,1.78c-.28.09-.73.2-1.34.33a3.9,3.9,0,0,0-1.19.39.9.9,0,0,0-.43.77,1.08,1.08,0,0,0,.34.8,1.22,1.22,0,0,0,.88.33,1.91,1.91,0,0,0,1.13-.39,1.34,1.34,0,0,0,.52-.72,4.19,4.19,0,0,0,.09-1.07Z" style="fill:#fff"/><path d="M247.81,119l-2.17.39a1.61,1.61,0,0,0-.49-1,1.52,1.52,0,0,0-1-.33,1.64,1.64,0,0,0-1.31.57,3,3,0,0,0-.49,1.9,3.34,3.34,0,0,0,.5,2.08,1.61,1.61,0,0,0,1.33.61,1.53,1.53,0,0,0,1-.35,2.21,2.21,0,0,0,.56-1.23l2.15.37a3.8,3.8,0,0,1-1.28,2.24,4,4,0,0,1-2.56.76,3.78,3.78,0,0,1-2.9-1.15,4.44,4.44,0,0,1-1.08-3.18,4.49,4.49,0,0,1,1.08-3.2,3.89,3.89,0,0,1,2.94-1.14,4,4,0,0,1,2.41.65A3.68,3.68,0,0,1,247.81,119Z" style="fill:#fff"/><path d="M249.47,115.4v-2h2.19v2Zm0,9.42v-8.29h2.19v8.29Z" style="fill:#fff"/><path d="M253.41,120.56a4.48,4.48,0,0,1,.54-2.12,3.69,3.69,0,0,1,1.52-1.56,4.55,4.55,0,0,1,2.21-.54,4.17,4.17,0,0,1,3.09,1.22,4.59,4.59,0,0,1,0,6.21A4.06,4.06,0,0,1,257.7,125a4.76,4.76,0,0,1-2.18-.52A3.48,3.48,0,0,1,254,123,5,5,0,0,1,253.41,120.56Zm2.25.11a2.72,2.72,0,0,0,.58,1.89,1.91,1.91,0,0,0,2.89,0,3.37,3.37,0,0,0,0-3.78,1.93,1.93,0,0,0-2.89,0A2.76,2.76,0,0,0,255.66,120.67Zm.92-5.16,1.08-2.34h2.46L258,115.51Z" style="fill:#fff"/><path d="M271.24,124.82H269v-4.23a6.7,6.7,0,0,0-.14-1.74,1.19,1.19,0,0,0-.46-.61,1.26,1.26,0,0,0-.76-.22,1.73,1.73,0,0,0-1,.31,1.56,1.56,0,0,0-.62.83,6.77,6.77,0,0,0-.17,1.9v3.76h-2.2v-8.29h2v1.21a3.41,3.41,0,0,1,4.06-1.14,2.1,2.1,0,0,1,.91.67,2.36,2.36,0,0,1,.43.92,6.23,6.23,0,0,1,.13,1.48Z" style="fill:#fff"/><path d="M535.88,105.62V94.17h3.46l2.07,7.81,2.06-7.81h3.47v11.45h-2.15v-9l-2.27,9h-2.23l-2.27-9v9Z" style="fill:#fff"/><path d="M549.22,96.2v-2h2.19v2Zm0,9.42V97.33h2.19v8.29Z" style="fill:#fff"/><path d="M561.21,105.62H559v-4.23a6.7,6.7,0,0,0-.14-1.74,1.24,1.24,0,0,0-.46-.61,1.28,1.28,0,0,0-.76-.22,1.78,1.78,0,0,0-1,.31,1.6,1.6,0,0,0-.62.83,7.22,7.22,0,0,0-.17,1.91v3.75h-2.19V97.33h2v1.21a3.32,3.32,0,0,1,2.73-1.4,3.36,3.36,0,0,1,1.33.26,2.32,2.32,0,0,1,.91.67,2.36,2.36,0,0,1,.43.92,6.93,6.93,0,0,1,.12,1.48Z" style="fill:#fff"/><path d="M568.24,103l2.19.37a3.62,3.62,0,0,1-1.33,1.83,3.93,3.93,0,0,1-2.28.63,3.71,3.71,0,0,1-3.2-1.41,4.74,4.74,0,0,1-.82-2.86,4.57,4.57,0,0,1,1.08-3.23,3.52,3.52,0,0,1,2.72-1.17,3.68,3.68,0,0,1,2.92,1.22,5.41,5.41,0,0,1,1,3.75h-5.5a2.2,2.2,0,0,0,.53,1.52,1.66,1.66,0,0,0,1.26.54,1.32,1.32,0,0,0,.87-.28A1.71,1.71,0,0,0,568.24,103Zm.13-2.22a2.18,2.18,0,0,0-.49-1.45,1.6,1.6,0,0,0-2.33,0,2,2,0,0,0-.46,1.42Z" style="fill:#fff"/><path d="M574.44,105.62h-2.2V97.33h2v1.18a3.6,3.6,0,0,1,.94-1.11,1.81,1.81,0,0,1,.95-.26,2.87,2.87,0,0,1,1.45.41l-.68,1.92a1.94,1.94,0,0,0-1-.36,1.2,1.2,0,0,0-.78.25,1.7,1.7,0,0,0-.51.92,13.27,13.27,0,0,0-.18,2.78Z" style="fill:#fff"/><path d="M578.4,96.31,579.48,94h2.46l-2.15,2.34Zm.16,9.31V97.33h2.2v8.29Z" style="fill:#fff"/><path d="M584.65,99.86l-2-.36a3.1,3.1,0,0,1,1.15-1.78,4.21,4.21,0,0,1,2.44-.58,5.13,5.13,0,0,1,2.19.35,2.16,2.16,0,0,1,1,.88,4.46,4.46,0,0,1,.29,2l0,2.57a9,9,0,0,0,.1,1.61,5.17,5.17,0,0,0,.4,1.11h-2.17a5.59,5.59,0,0,1-.21-.65l-.08-.25a4.35,4.35,0,0,1-1.2.82,3.52,3.52,0,0,1-1.37.27,2.83,2.83,0,0,1-2-.69,2.48,2.48,0,0,1-.4-3,2.14,2.14,0,0,1,.94-.84,6.8,6.8,0,0,1,1.74-.51,11.55,11.55,0,0,0,2.14-.54V100a1.13,1.13,0,0,0-.32-.9,1.85,1.85,0,0,0-1.18-.27,1.59,1.59,0,0,0-.91.23A1.53,1.53,0,0,0,584.65,99.86Zm2.94,1.78c-.28.09-.73.2-1.34.33a3.7,3.7,0,0,0-1.19.39.9.9,0,0,0-.43.77,1.08,1.08,0,0,0,.34.8,1.21,1.21,0,0,0,.87.33,1.92,1.92,0,0,0,1.14-.39,1.36,1.36,0,0,0,.52-.72,4.19,4.19,0,0,0,.09-1.07Z" style="fill:#fff"/><path d="M537.72,124.82h-2V123.6a3.13,3.13,0,0,1-5,.26,4.69,4.69,0,0,1-1-3.22,4.63,4.63,0,0,1,1-3.2,3.23,3.23,0,0,1,2.51-1.1,3.11,3.11,0,0,1,2.41,1.15v-4.12h2.19Zm-5.86-4.33a3.88,3.88,0,0,0,.37,1.93,1.68,1.68,0,0,0,1.49.86,1.61,1.61,0,0,0,1.28-.65,2.93,2.93,0,0,0,.54-1.92,3.27,3.27,0,0,0-.52-2.06,1.62,1.62,0,0,0-1.32-.63,1.66,1.66,0,0,0-1.31.62A2.8,2.8,0,0,0,531.86,120.49Z" style="fill:#fff"/><path d="M544.69,122.18l2.19.37a3.62,3.62,0,0,1-1.33,1.83,3.93,3.93,0,0,1-2.28.63,3.71,3.71,0,0,1-3.2-1.41,4.74,4.74,0,0,1-.82-2.86,4.61,4.61,0,0,1,1.07-3.23,3.56,3.56,0,0,1,2.73-1.17,3.68,3.68,0,0,1,2.92,1.22,5.41,5.41,0,0,1,1,3.75h-5.5a2.19,2.19,0,0,0,.53,1.52,1.66,1.66,0,0,0,1.26.54,1.32,1.32,0,0,0,.87-.28A1.71,1.71,0,0,0,544.69,122.18Zm.13-2.22a2.13,2.13,0,0,0-.5-1.45,1.59,1.59,0,0,0-2.32,0,2,2,0,0,0-.46,1.42Z" style="fill:#fff"/><path d="M553.24,113.37h4.23a8.09,8.09,0,0,1,2.18.22,3.88,3.88,0,0,1,1.72,1,5.08,5.08,0,0,1,1.1,1.86,8.45,8.45,0,0,1,.37,2.71,7.6,7.6,0,0,1-.35,2.43,5.12,5.12,0,0,1-1.23,2,4.07,4.07,0,0,1-1.62.91,7.1,7.1,0,0,1-2,.24h-4.35Zm2.31,1.94v7.58h1.73a6,6,0,0,0,1.4-.11,2.16,2.16,0,0,0,.93-.47,2.45,2.45,0,0,0,.61-1.11,7.72,7.72,0,0,0,.23-2.1,7,7,0,0,0-.23-2,2.61,2.61,0,0,0-.66-1.11,2.14,2.14,0,0,0-1.07-.54,9.85,9.85,0,0,0-1.9-.11Z" style="fill:#fff"/><path d="M566.43,119.06l-2-.36a3.11,3.11,0,0,1,1.16-1.78,4.21,4.21,0,0,1,2.44-.58,5.13,5.13,0,0,1,2.19.35,2.21,2.21,0,0,1,1,.88,4.62,4.62,0,0,1,.29,2l0,2.57a9,9,0,0,0,.1,1.61,4.28,4.28,0,0,0,.4,1.11h-2.18c-.05-.14-.12-.36-.21-.65,0-.13-.06-.21-.07-.25a4.05,4.05,0,0,1-1.21.82A3.44,3.44,0,0,1,567,125a2.83,2.83,0,0,1-2-.69,2.3,2.3,0,0,1-.74-1.76,2.42,2.42,0,0,1,.33-1.26,2.29,2.29,0,0,1,1-.84,6.8,6.8,0,0,1,1.74-.51,11.17,11.17,0,0,0,2.13-.54v-.22a1.13,1.13,0,0,0-.31-.9,1.87,1.87,0,0,0-1.18-.27,1.59,1.59,0,0,0-.91.23A1.53,1.53,0,0,0,566.43,119.06Zm2.93,1.78c-.28.09-.72.2-1.33.33a4.18,4.18,0,0,0-1.2.39.92.92,0,0,0-.43.77,1.09,1.09,0,0,0,.35.8,1.21,1.21,0,0,0,.87.33,1.87,1.87,0,0,0,1.13-.39,1.38,1.38,0,0,0,.53-.72,4.33,4.33,0,0,0,.08-1.07Z" style="fill:#fff"/><path d="M577.49,116.53v1.75H576v3.34a8.21,8.21,0,0,0,0,1.18.47.47,0,0,0,.2.28.62.62,0,0,0,.37.11,2.82,2.82,0,0,0,.88-.21l.19,1.7a4.35,4.35,0,0,1-1.74.33,2.83,2.83,0,0,1-1.07-.2,1.6,1.6,0,0,1-.7-.51,2.12,2.12,0,0,1-.3-.86,10.17,10.17,0,0,1-.07-1.55v-3.61h-1v-1.75h1v-1.65l2.2-1.28v2.93Z" style="fill:#fff"/><path d="M578.5,120.56a4.48,4.48,0,0,1,.54-2.12,3.71,3.71,0,0,1,1.53-1.56,4.55,4.55,0,0,1,2.21-.54,4.15,4.15,0,0,1,3.08,1.22,4.21,4.21,0,0,1,1.21,3.09,4.26,4.26,0,0,1-1.22,3.12,4.09,4.09,0,0,1-3.06,1.24,4.72,4.72,0,0,1-2.17-.52A3.5,3.5,0,0,1,579,123,5,5,0,0,1,578.5,120.56Zm2.25.11a2.77,2.77,0,0,0,.59,1.9,1.93,1.93,0,0,0,2.89,0,2.85,2.85,0,0,0,.58-1.91,2.8,2.8,0,0,0-.58-1.88,1.93,1.93,0,0,0-2.89,0A2.76,2.76,0,0,0,580.75,120.67Z" style="fill:#fff"/><path d="M588,122.46l2.21-.34a1.56,1.56,0,0,0,.57,1,1.9,1.9,0,0,0,1.2.33,2.16,2.16,0,0,0,1.28-.31.69.69,0,0,0,.29-.58.57.57,0,0,0-.16-.42,1.8,1.8,0,0,0-.73-.29,11.7,11.7,0,0,1-3.37-1.07,2.13,2.13,0,0,1-1-1.86,2.31,2.31,0,0,1,.85-1.82,4,4,0,0,1,2.64-.73,4.61,4.61,0,0,1,2.53.55,2.86,2.86,0,0,1,1.14,1.64l-2.07.39a1.34,1.34,0,0,0-.5-.75,1.87,1.87,0,0,0-1.06-.25,2.39,2.39,0,0,0-1.24.24.5.5,0,0,0-.25.44.49.49,0,0,0,.21.4,8.35,8.35,0,0,0,2.06.62,6.08,6.08,0,0,1,2.44,1,2,2,0,0,1,.69,1.63,2.52,2.52,0,0,1-1,2A4.22,4.22,0,0,1,592,125a4.58,4.58,0,0,1-2.68-.69A3.18,3.18,0,0,1,588,122.46Z" style="fill:#fff"/><path d="M697.24,266.33V254.87H701a12.86,12.86,0,0,1,2.75.18,3,3,0,0,1,1.65,1.12,3.56,3.56,0,0,1,.66,2.23,3.8,3.8,0,0,1-.38,1.77,3.18,3.18,0,0,1-1,1.13,3.36,3.36,0,0,1-1.2.54,13,13,0,0,1-2.4.17h-1.51v4.32Zm2.31-9.52v3.25h1.27a6,6,0,0,0,1.83-.18,1.49,1.49,0,0,0,1-1.45,1.45,1.45,0,0,0-.37-1,1.59,1.59,0,0,0-.93-.51,11.23,11.23,0,0,0-1.66-.08Z" style="fill:#fff"/><path d="M709.54,260.56l-2-.36a3.14,3.14,0,0,1,1.16-1.78,4.28,4.28,0,0,1,2.44-.58,5.2,5.2,0,0,1,2.18.35,2.25,2.25,0,0,1,1,.88,4.67,4.67,0,0,1,.29,2l0,2.56a9,9,0,0,0,.1,1.61,4.47,4.47,0,0,0,.4,1.12h-2.18c0-.15-.12-.36-.21-.65,0-.13-.06-.22-.07-.26a3.87,3.87,0,0,1-1.21.82,3.49,3.49,0,0,1-1.37.28,2.82,2.82,0,0,1-2-.7,2.28,2.28,0,0,1-.74-1.76,2.38,2.38,0,0,1,.33-1.25,2.27,2.27,0,0,1,.94-.85,8,8,0,0,1,1.75-.51,11.17,11.17,0,0,0,2.13-.54v-.21a1.14,1.14,0,0,0-.31-.91,1.87,1.87,0,0,0-1.18-.27,1.59,1.59,0,0,0-.91.23A1.62,1.62,0,0,0,709.54,260.56Zm2.93,1.78a11.56,11.56,0,0,1-1.33.34,4.27,4.27,0,0,0-1.2.38.94.94,0,0,0-.43.78,1.07,1.07,0,0,0,.35.79,1.18,1.18,0,0,0,.87.34,1.89,1.89,0,0,0,1.13-.39,1.4,1.4,0,0,0,.53-.73,4.84,4.84,0,0,0,.08-1.07Z" style="fill:#fff"/><path d="M720.6,258v1.75h-1.5v3.34a8.4,8.4,0,0,0,0,1.19.54.54,0,0,0,.2.28.62.62,0,0,0,.37.11,3,3,0,0,0,.88-.22l.19,1.71a4.35,4.35,0,0,1-1.74.33,2.83,2.83,0,0,1-1.07-.2,1.69,1.69,0,0,1-.7-.52,2.07,2.07,0,0,1-.3-.85,10.35,10.35,0,0,1-.07-1.55v-3.62h-1V258h1v-1.65l2.2-1.28V258Z" style="fill:#fff"/><path d="M724.22,266.33H722V258h2v1.18a3.53,3.53,0,0,1,.94-1.1,1.7,1.7,0,0,1,1-.27,2.73,2.73,0,0,1,1.44.42l-.68,1.91a1.91,1.91,0,0,0-1-.36,1.2,1.2,0,0,0-.78.26,1.73,1.73,0,0,0-.5.91,12.49,12.49,0,0,0-.19,2.79Z" style="fill:#fff"/><path d="M727.84,262.06a4.45,4.45,0,0,1,.54-2.11,3.68,3.68,0,0,1,1.53-1.57,4.51,4.51,0,0,1,2.2-.54,4.13,4.13,0,0,1,3.09,1.23,4.21,4.21,0,0,1,1.2,3.09,4.28,4.28,0,0,1-1.21,3.12,4.13,4.13,0,0,1-3.06,1.24A4.89,4.89,0,0,1,730,266a3.53,3.53,0,0,1-1.57-1.51A5,5,0,0,1,727.84,262.06Zm2.25.12a2.76,2.76,0,0,0,.59,1.89,1.9,1.9,0,0,0,2.88,0,2.78,2.78,0,0,0,.59-1.91,2.72,2.72,0,0,0-.59-1.87,1.9,1.9,0,0,0-2.88,0A2.76,2.76,0,0,0,730.09,262.18Z" style="fill:#fff"/><path d="M745.67,266.33h-2.2v-4.24a6.23,6.23,0,0,0-.14-1.73,1.2,1.2,0,0,0-.45-.62,1.39,1.39,0,0,0-.77-.22,1.74,1.74,0,0,0-1,.32,1.54,1.54,0,0,0-.62.82,7.27,7.27,0,0,0-.17,1.91v3.76h-2.19V258h2v1.22a3.31,3.31,0,0,1,2.73-1.41,3.23,3.23,0,0,1,1.33.27,2.22,2.22,0,0,1,.91.66,2.48,2.48,0,0,1,.43.93,6.83,6.83,0,0,1,.12,1.47Z" style="fill:#fff"/><path d="M752.7,263.69l2.19.36a3.61,3.61,0,0,1-1.33,1.84,3.93,3.93,0,0,1-2.28.63,3.75,3.75,0,0,1-3.21-1.42,4.79,4.79,0,0,1-.82-2.86,4.59,4.59,0,0,1,1.08-3.23,3.56,3.56,0,0,1,2.73-1.17,3.67,3.67,0,0,1,2.92,1.23,5.36,5.36,0,0,1,1,3.74h-5.5a2.24,2.24,0,0,0,.54,1.52,1.65,1.65,0,0,0,1.26.54,1.34,1.34,0,0,0,.87-.28A1.74,1.74,0,0,0,752.7,263.69Zm.12-2.22a2,2,0,0,0-.49-1.45,1.51,1.51,0,0,0-1.14-.5,1.54,1.54,0,0,0-1.19.53,2.06,2.06,0,0,0-.46,1.42Z" style="fill:#fff"/><path d="M756,264l2.2-.34a1.68,1.68,0,0,0,.57,1,2,2,0,0,0,1.21.33,2.18,2.18,0,0,0,1.28-.31.71.71,0,0,0,.29-.59.58.58,0,0,0-.16-.41,1.67,1.67,0,0,0-.73-.29,11.92,11.92,0,0,1-3.37-1.07,2.14,2.14,0,0,1-1-1.87,2.3,2.3,0,0,1,.86-1.81,3.94,3.94,0,0,1,2.64-.74,4.6,4.6,0,0,1,2.53.56,2.86,2.86,0,0,1,1.14,1.64l-2.07.38a1.28,1.28,0,0,0-.51-.74,1.83,1.83,0,0,0-1-.26,2.43,2.43,0,0,0-1.25.24.55.55,0,0,0-.25.45.5.5,0,0,0,.22.4,8.39,8.39,0,0,0,2,.61,6.22,6.22,0,0,1,2.45,1,2,2,0,0,1,.69,1.63,2.54,2.54,0,0,1-.95,2,4.27,4.27,0,0,1-2.82.82,4.64,4.64,0,0,1-2.69-.69A3.15,3.15,0,0,1,756,264Z" style="fill:#fff"/><path d="M850.55,107.73V97h8v1.82h-5.79v2.38h5.39V103h-5.39v2.93h6v1.81Z" style="fill:#fff"/><path d="M862.68,107.73,859.55,100h2.16l1.46,4,.43,1.32c.11-.33.18-.56.21-.66s.14-.44.22-.66l1.48-4h2.11l-3.09,7.78Z" style="fill:#fff"/><path d="M870.42,102.32l-1.87-.34a3,3,0,0,1,1.09-1.67,4,4,0,0,1,2.28-.54,4.83,4.83,0,0,1,2.05.33,2,2,0,0,1,.95.83,4.08,4.08,0,0,1,.28,1.84l0,2.4a9.1,9.1,0,0,0,.09,1.51,4.57,4.57,0,0,0,.37,1h-2a6.25,6.25,0,0,1-.2-.61c0-.12-.06-.2-.07-.24a3.91,3.91,0,0,1-1.13.77,3.25,3.25,0,0,1-1.28.25,2.7,2.7,0,0,1-1.9-.65,2.16,2.16,0,0,1-.69-1.65,2.18,2.18,0,0,1,.32-1.17,2,2,0,0,1,.88-.79,6.27,6.27,0,0,1,1.64-.48,11,11,0,0,0,2-.51v-.2a1.06,1.06,0,0,0-.3-.85,1.72,1.72,0,0,0-1.1-.25,1.5,1.5,0,0,0-.86.21A1.53,1.53,0,0,0,870.42,102.32Zm2.76,1.67c-.27.09-.69.19-1.26.32a4.07,4.07,0,0,0-1.12.35.88.88,0,0,0-.4.73,1,1,0,0,0,.32.75,1.13,1.13,0,0,0,.82.31,1.78,1.78,0,0,0,1.06-.36,1.34,1.34,0,0,0,.5-.69,4.22,4.22,0,0,0,.08-1Z" style="fill:#fff"/><path d="M877.23,107.73V97h2v10.74Z" style="fill:#fff"/><path d="M886.51,107.73v-1.17a2.92,2.92,0,0,1-1.11,1,3.15,3.15,0,0,1-1.46.36,2.83,2.83,0,0,1-1.41-.34,2,2,0,0,1-.9-1,4.22,4.22,0,0,1-.28-1.72V100h2.06v3.57a10.41,10.41,0,0,0,.11,2,1.15,1.15,0,0,0,.42.59,1.29,1.29,0,0,0,.76.21,1.62,1.62,0,0,0,.94-.28,1.51,1.51,0,0,0,.57-.72,7.92,7.92,0,0,0,.16-2.1V100h2v7.78Z" style="fill:#fff"/><path d="M892.09,102.32l-1.86-.34a3,3,0,0,1,1.08-1.67,4,4,0,0,1,2.29-.54,4.89,4.89,0,0,1,2,.33,2,2,0,0,1,.94.83,4.08,4.08,0,0,1,.28,1.84l0,2.4a7.92,7.92,0,0,0,.1,1.51,4.14,4.14,0,0,0,.37,1h-2c0-.14-.12-.34-.2-.61s-.06-.2-.07-.24a3.91,3.91,0,0,1-1.13.77,3.25,3.25,0,0,1-1.28.25,2.66,2.66,0,0,1-1.89-.65,2.13,2.13,0,0,1-.7-1.65,2.18,2.18,0,0,1,.32-1.17,2,2,0,0,1,.88-.79,6.39,6.39,0,0,1,1.64-.48,10.77,10.77,0,0,0,2-.51v-.2a1.09,1.09,0,0,0-.29-.85,1.77,1.77,0,0,0-1.11-.25,1.52,1.52,0,0,0-.86.21A1.6,1.6,0,0,0,892.09,102.32Zm2.76,1.67c-.27.09-.68.19-1.25.32a3.84,3.84,0,0,0-1.12.35.89.89,0,0,0-.41.73,1,1,0,0,0,.32.75,1.13,1.13,0,0,0,.82.31,1.81,1.81,0,0,0,1.07-.36,1.32,1.32,0,0,0,.49-.69,4.22,4.22,0,0,0,.08-1Z" style="fill:#fff"/><path d="M905.68,102.25l-2,.36a1.47,1.47,0,0,0-.46-.91,1.4,1.4,0,0,0-.94-.31,1.54,1.54,0,0,0-1.23.53,2.72,2.72,0,0,0-.46,1.78,3.13,3.13,0,0,0,.47,2,1.51,1.51,0,0,0,1.24.57,1.37,1.37,0,0,0,1-.33,2,2,0,0,0,.53-1.14l2,.34a3.54,3.54,0,0,1-1.21,2.1,3.68,3.68,0,0,1-2.39.71,3.57,3.57,0,0,1-2.72-1.07,4.89,4.89,0,0,1,0-6,3.62,3.62,0,0,1,2.76-1.08,3.83,3.83,0,0,1,2.26.61A3.42,3.42,0,0,1,905.68,102.25Z" style="fill:#fff"/><path d="M907.24,98.89V97h2.06v1.9Zm0,8.84V100h2.06v7.78Z" style="fill:#fff"/><path d="M910.93,103.73a4.18,4.18,0,0,1,.51-2,3.36,3.36,0,0,1,1.43-1.46,4.23,4.23,0,0,1,2.07-.51,3.86,3.86,0,0,1,2.89,1.15,4.3,4.3,0,0,1,0,5.82A3.82,3.82,0,0,1,915,107.9a4.56,4.56,0,0,1-2-.48,3.31,3.31,0,0,1-1.47-1.42A4.67,4.67,0,0,1,910.93,103.73Zm2.11.11a2.55,2.55,0,0,0,.55,1.77,1.81,1.81,0,0,0,2.71,0,2.64,2.64,0,0,0,.54-1.79,2.59,2.59,0,0,0-.54-1.76,1.81,1.81,0,0,0-2.71,0A2.58,2.58,0,0,0,913,103.84Zm.87-4.84,1-2.19h2.3l-2,2.19Z" style="fill:#fff"/><path d="M927.65,107.73h-2.06v-4a6.51,6.51,0,0,0-.13-1.63,1.16,1.16,0,0,0-.43-.58,1.29,1.29,0,0,0-.72-.2,1.64,1.64,0,0,0-1,.29,1.51,1.51,0,0,0-.58.78,6.82,6.82,0,0,0-.16,1.78v3.53h-2.05V100h1.91v1.14A3.11,3.11,0,0,1,925,99.77a3,3,0,0,1,1.25.25,2.09,2.09,0,0,1,.85.62,2.3,2.3,0,0,1,.4.87,6,6,0,0,1,.12,1.38Z" style="fill:#fff"/><path d="M932.93,100h2.19l1.86,5.52,1.81-5.52h2.14l-2.75,7.48-.49,1.36a5.85,5.85,0,0,1-.52,1,2.22,2.22,0,0,1-.56.58,2.49,2.49,0,0,1-.79.35,4.21,4.21,0,0,1-1.05.12,5.64,5.64,0,0,1-1.16-.12l-.18-1.61a4.76,4.76,0,0,0,.87.09,1.29,1.29,0,0,0,1.06-.42,3.06,3.06,0,0,0,.53-1.07Z" style="fill:#fff"/><path d="M849.65,118h1.92v1.14a2.88,2.88,0,0,1,1-1,2.73,2.73,0,0,1,1.41-.37,3,3,0,0,1,2.3,1.06,4.31,4.31,0,0,1,1,3,4.45,4.45,0,0,1-1,3A3,3,0,0,1,854,125.9a2.64,2.64,0,0,1-1.17-.25,4.11,4.11,0,0,1-1.1-.88v3.92h-2.06Zm2,3.76a3,3,0,0,0,.52,1.93,1.58,1.58,0,0,0,1.26.63,1.49,1.49,0,0,0,1.2-.58,2.93,2.93,0,0,0,.47-1.88,2.81,2.81,0,0,0-.49-1.82,1.51,1.51,0,0,0-1.21-.59,1.59,1.59,0,0,0-1.26.58A2.61,2.61,0,0,0,851.69,121.71Z" style="fill:#fff"/><path d="M860.84,125.73h-2.06V118h1.92v1.1a3.31,3.31,0,0,1,.88-1,1.68,1.68,0,0,1,.89-.25,2.57,2.57,0,0,1,1.35.39l-.63,1.79a1.84,1.84,0,0,0-1-.33,1.13,1.13,0,0,0-.73.24,1.61,1.61,0,0,0-.48.86,12.52,12.52,0,0,0-.17,2.6Z" style="fill:#fff"/><path d="M869.21,123.25l2,.35a3.35,3.35,0,0,1-1.24,1.71,3.63,3.63,0,0,1-2.14.59,3.48,3.48,0,0,1-3-1.32,4.43,4.43,0,0,1-.77-2.68,4.31,4.31,0,0,1,1-3,3.34,3.34,0,0,1,2.56-1.1,3.42,3.42,0,0,1,2.73,1.15,5,5,0,0,1,1,3.51h-5.15a2.06,2.06,0,0,0,.5,1.43,1.56,1.56,0,0,0,1.18.5,1.26,1.26,0,0,0,.82-.26A1.63,1.63,0,0,0,869.21,123.25Zm.12-2.08a2,2,0,0,0-.46-1.36,1.49,1.49,0,0,0-2.18,0,1.88,1.88,0,0,0-.44,1.33Z" style="fill:#fff"/><path d="M872.33,123.51l2.06-.32a1.5,1.5,0,0,0,.54.91,1.78,1.78,0,0,0,1.12.32,2,2,0,0,0,1.21-.3.65.65,0,0,0,.27-.55.56.56,0,0,0-.15-.39,1.84,1.84,0,0,0-.69-.27,11.12,11.12,0,0,1-3.16-1,2,2,0,0,1-.92-1.75,2.17,2.17,0,0,1,.8-1.7,3.73,3.73,0,0,1,2.48-.69,4.38,4.38,0,0,1,2.37.52,2.68,2.68,0,0,1,1.07,1.54l-1.94.36a1.22,1.22,0,0,0-.48-.7,1.72,1.72,0,0,0-1-.24,2.22,2.22,0,0,0-1.16.23.49.49,0,0,0-.24.42.45.45,0,0,0,.21.37,7.41,7.41,0,0,0,1.92.58,5.8,5.8,0,0,1,2.3.91,1.91,1.91,0,0,1,.64,1.53,2.35,2.35,0,0,1-.89,1.84,3.94,3.94,0,0,1-2.65.77,4.32,4.32,0,0,1-2.51-.64A3,3,0,0,1,872.33,123.51Z" style="fill:#fff"/><path d="M885.9,123.25l2.05.35a3.31,3.31,0,0,1-1.25,1.71,3.61,3.61,0,0,1-2.13.59,3.49,3.49,0,0,1-3-1.32,4.49,4.49,0,0,1-.77-2.68,4.31,4.31,0,0,1,1-3,3.35,3.35,0,0,1,2.56-1.1,3.44,3.44,0,0,1,2.74,1.15,5,5,0,0,1,1,3.51H882.9a2.11,2.11,0,0,0,.5,1.43,1.58,1.58,0,0,0,1.19.5,1.23,1.23,0,0,0,.81-.26A1.63,1.63,0,0,0,885.9,123.25Zm.12-2.08a2,2,0,0,0-.47-1.36,1.49,1.49,0,0,0-2.18,0,1.87,1.87,0,0,0-.43,1.33Z" style="fill:#fff"/><path d="M896.81,125.73h-2.06v-4a6,6,0,0,0-.13-1.63,1.16,1.16,0,0,0-.43-.58,1.26,1.26,0,0,0-.71-.2,1.6,1.6,0,0,0-1,.29,1.46,1.46,0,0,0-.58.78,6.4,6.4,0,0,0-.16,1.78v3.53h-2.06V118h1.91v1.14a3.13,3.13,0,0,1,2.57-1.32,3,3,0,0,1,1.24.25,2,2,0,0,1,.85.62,2.32,2.32,0,0,1,.41.87,6.81,6.81,0,0,1,.11,1.38Z" style="fill:#fff"/><path d="M902.47,118v1.64h-1.41v3.13a7.23,7.23,0,0,0,0,1.11.48.48,0,0,0,.18.26.58.58,0,0,0,.35.11,2.74,2.74,0,0,0,.83-.2l.17,1.59a4,4,0,0,1-1.62.31,2.71,2.71,0,0,1-1-.18,1.53,1.53,0,0,1-.65-.49,1.83,1.83,0,0,1-.29-.8A10.36,10.36,0,0,1,899,123v-3.39h-.94V118H899V116.4l2.07-1.2V118Z" style="fill:#fff"/><path d="M905.43,120.32l-1.87-.34a3,3,0,0,1,1.09-1.67,4,4,0,0,1,2.28-.54,4.86,4.86,0,0,1,2.05.33,2,2,0,0,1,.95.83,4.08,4.08,0,0,1,.28,1.84l0,2.4a8.86,8.86,0,0,0,.1,1.51,4.57,4.57,0,0,0,.37,1h-2a6.25,6.25,0,0,1-.2-.61c0-.12-.06-.2-.07-.24a4.05,4.05,0,0,1-1.13.77,3.25,3.25,0,0,1-1.28.25,2.7,2.7,0,0,1-1.9-.65,2.16,2.16,0,0,1-.69-1.65,2.18,2.18,0,0,1,.32-1.17,2,2,0,0,1,.88-.79,6.27,6.27,0,0,1,1.64-.48,11,11,0,0,0,2-.51v-.2a1.06,1.06,0,0,0-.3-.85,1.72,1.72,0,0,0-1.1-.25,1.5,1.5,0,0,0-.86.21A1.53,1.53,0,0,0,905.43,120.32Zm2.76,1.67c-.27.09-.69.19-1.26.32a4.07,4.07,0,0,0-1.12.35.88.88,0,0,0-.4.73,1,1,0,0,0,.32.75,1.13,1.13,0,0,0,.82.31,1.78,1.78,0,0,0,1.06-.36,1.27,1.27,0,0,0,.49-.69,3.61,3.61,0,0,0,.09-1Z" style="fill:#fff"/><path d="M919,120.25l-2,.36a1.43,1.43,0,0,0-.47-.91,1.37,1.37,0,0,0-.94-.31,1.53,1.53,0,0,0-1.22.53,2.72,2.72,0,0,0-.46,1.78,3.14,3.14,0,0,0,.46,2,1.53,1.53,0,0,0,1.25.57,1.4,1.4,0,0,0,1-.33,2,2,0,0,0,.53-1.14l2,.34a3.54,3.54,0,0,1-1.21,2.1,3.68,3.68,0,0,1-2.39.71,3.57,3.57,0,0,1-2.72-1.07,4.89,4.89,0,0,1,0-6,3.61,3.61,0,0,1,2.75-1.08,3.81,3.81,0,0,1,2.26.61A3.43,3.43,0,0,1,919,120.25Z" style="fill:#fff"/><path d="M920.58,116.89V115h2.06v1.9Zm0,8.84V118h2.06v7.78Z" style="fill:#fff"/><path d="M924.27,121.73a4.18,4.18,0,0,1,.51-2,3.36,3.36,0,0,1,1.43-1.46,4.18,4.18,0,0,1,2.07-.51,3.86,3.86,0,0,1,2.89,1.15,4.3,4.3,0,0,1,0,5.82,3.84,3.84,0,0,1-2.87,1.16,4.56,4.56,0,0,1-2-.48,3.26,3.26,0,0,1-1.47-1.42A4.67,4.67,0,0,1,924.27,121.73Zm2.11.11a2.55,2.55,0,0,0,.55,1.77,1.73,1.73,0,0,0,1.35.61,1.75,1.75,0,0,0,1.36-.61,2.64,2.64,0,0,0,.54-1.79,2.59,2.59,0,0,0-.54-1.76,1.75,1.75,0,0,0-1.36-.61,1.73,1.73,0,0,0-1.35.61A2.58,2.58,0,0,0,926.38,121.84Zm.86-4.84,1-2.19h2.31l-2,2.19Z" style="fill:#fff"/><path d="M941,125.73h-2.05v-4a5.89,5.89,0,0,0-.14-1.63,1.1,1.1,0,0,0-.43-.58,1.24,1.24,0,0,0-.71-.2,1.6,1.6,0,0,0-1,.29,1.46,1.46,0,0,0-.58.78,6.4,6.4,0,0,0-.16,1.78v3.53h-2.06V118h1.91v1.14a3.13,3.13,0,0,1,2.57-1.32,3,3,0,0,1,1.24.25,2.13,2.13,0,0,1,.86.62,2.47,2.47,0,0,1,.4.87,6.15,6.15,0,0,1,.11,1.38Z" style="fill:#fff"/><circle cx="398.78" cy="257.18" r="58.93" style="fill:#e32242"/><path d="M360.76,252.58l2-.19a2.44,2.44,0,0,0,.72,1.46,2.21,2.21,0,0,0,1.47.46,2.28,2.28,0,0,0,1.47-.41,1.25,1.25,0,0,0,.5-1,.92.92,0,0,0-.21-.61,1.69,1.69,0,0,0-.73-.43c-.23-.08-.77-.23-1.62-.44a5.57,5.57,0,0,1-2.28-1,2.64,2.64,0,0,1-.49-3.45,2.74,2.74,0,0,1,1.25-1,5.07,5.07,0,0,1,2-.35,4.22,4.22,0,0,1,2.84.83,2.92,2.92,0,0,1,1,2.2l-2,.09a1.73,1.73,0,0,0-.55-1.11,2.11,2.11,0,0,0-1.29-.34,2.28,2.28,0,0,0-1.38.37.73.73,0,0,0-.32.62.77.77,0,0,0,.3.61,5.67,5.67,0,0,0,1.86.67,9.73,9.73,0,0,1,2.19.72,2.78,2.78,0,0,1,1.1,1,2.93,2.93,0,0,1,.4,1.59,3,3,0,0,1-.48,1.62,2.8,2.8,0,0,1-1.35,1.11,5.54,5.54,0,0,1-2.18.37,4.32,4.32,0,0,1-2.92-.88A3.84,3.84,0,0,1,360.76,252.58Z" style="fill:#fff"/><path d="M374.81,253.53l1.91.32a3.21,3.21,0,0,1-1.17,1.61,3.46,3.46,0,0,1-2,.55,3.25,3.25,0,0,1-2.8-1.24,4.15,4.15,0,0,1-.72-2.5,4,4,0,0,1,.94-2.83,3.12,3.12,0,0,1,2.39-1,3.22,3.22,0,0,1,2.56,1.07,4.73,4.73,0,0,1,.89,3.28H372a2,2,0,0,0,.46,1.33,1.49,1.49,0,0,0,1.11.47,1.14,1.14,0,0,0,.76-.25A1.48,1.48,0,0,0,374.81,253.53Zm.1-1.94a1.8,1.8,0,0,0-.43-1.27,1.3,1.3,0,0,0-1-.43,1.32,1.32,0,0,0-1,.46,1.75,1.75,0,0,0-.41,1.24Z" style="fill:#fff"/><path d="M378.39,255.84v-10h1.92v10Z" style="fill:#fff"/><path d="M386.48,253.53l1.92.32a3.21,3.21,0,0,1-1.17,1.61,3.48,3.48,0,0,1-2,.55,3.27,3.27,0,0,1-2.81-1.24,4.22,4.22,0,0,1-.71-2.5,4,4,0,0,1,.94-2.83,3.11,3.11,0,0,1,2.39-1,3.18,3.18,0,0,1,2.55,1.07,4.68,4.68,0,0,1,.9,3.28h-4.81a1.91,1.91,0,0,0,.46,1.33,1.49,1.49,0,0,0,1.11.47,1.16,1.16,0,0,0,.76-.25A1.47,1.47,0,0,0,386.48,253.53Zm.11-1.94a1.85,1.85,0,0,0-.43-1.27,1.32,1.32,0,0,0-1-.43,1.33,1.33,0,0,0-1,.46,1.8,1.8,0,0,0-.4,1.24Z" style="fill:#fff"/><path d="M396.39,250.73l-1.89.34a1.36,1.36,0,0,0-.43-.85,1.28,1.28,0,0,0-.88-.29,1.45,1.45,0,0,0-1.15.49,2.58,2.58,0,0,0-.43,1.66,3,3,0,0,0,.44,1.83,1.44,1.44,0,0,0,1.16.53,1.28,1.28,0,0,0,.9-.31,1.85,1.85,0,0,0,.49-1.07l1.89.32a3.33,3.33,0,0,1-1.13,2,3.49,3.49,0,0,1-2.23.67,3.31,3.31,0,0,1-2.54-1,3.86,3.86,0,0,1-.95-2.78,3.92,3.92,0,0,1,.95-2.8,3.36,3.36,0,0,1,2.57-1,3.52,3.52,0,0,1,2.11.57A3.12,3.12,0,0,1,396.39,250.73Z" style="fill:#fff"/><path d="M404.18,250.73l-1.89.34a1.37,1.37,0,0,0-.44-.85,1.26,1.26,0,0,0-.88-.29,1.41,1.41,0,0,0-1.14.49,2.52,2.52,0,0,0-.43,1.66,3,3,0,0,0,.44,1.83,1.41,1.41,0,0,0,1.16.53,1.3,1.3,0,0,0,.9-.31,1.91,1.91,0,0,0,.49-1.07l1.89.32a3.38,3.38,0,0,1-1.13,2,3.52,3.52,0,0,1-2.24.67,3.33,3.33,0,0,1-2.54-1,4.59,4.59,0,0,1,0-5.58,3.36,3.36,0,0,1,2.57-1,3.54,3.54,0,0,1,2.11.57A3.17,3.17,0,0,1,404.18,250.73Z" style="fill:#fff"/><path d="M405.64,247.6v-1.78h1.92v1.78Zm0,8.24v-7.26h1.92v7.26Z" style="fill:#fff"/><path d="M409.08,252.11a3.94,3.94,0,0,1,.47-1.85,3.22,3.22,0,0,1,1.34-1.37,4,4,0,0,1,1.93-.47,3.59,3.59,0,0,1,2.7,1.07,3.69,3.69,0,0,1,1.05,2.7,3.72,3.72,0,0,1-1.06,2.73,3.61,3.61,0,0,1-2.68,1.09,4.1,4.1,0,0,1-1.9-.46,3.14,3.14,0,0,1-1.38-1.32A4.46,4.46,0,0,1,409.08,252.11Zm2,.1a2.44,2.44,0,0,0,.51,1.66,1.64,1.64,0,0,0,1.27.57,1.62,1.62,0,0,0,1.26-.57,2.45,2.45,0,0,0,.51-1.67,2.39,2.39,0,0,0-.51-1.64,1.6,1.6,0,0,0-1.26-.58,1.62,1.62,0,0,0-1.27.58A2.4,2.4,0,0,0,411.05,252.21Zm.81-4.52.94-2H415l-1.88,2Z" style="fill:#fff"/><path d="M424.68,255.84h-1.92v-3.7a5.82,5.82,0,0,0-.12-1.52,1.17,1.17,0,0,0-.4-.54,1.15,1.15,0,0,0-.67-.19,1.59,1.59,0,0,0-.9.27,1.37,1.37,0,0,0-.54.73,6.07,6.07,0,0,0-.15,1.66v3.29h-1.92v-7.26h1.79v1.07a2.9,2.9,0,0,1,2.39-1.23,2.76,2.76,0,0,1,1.16.23,1.91,1.91,0,0,1,.8.58,2.14,2.14,0,0,1,.37.81,5.39,5.39,0,0,1,.11,1.29Z" style="fill:#fff"/><path d="M429.61,248.58h2l1.74,5.16,1.69-5.16h2l-2.56,7-.46,1.26a5.11,5.11,0,0,1-.48,1,2,2,0,0,1-.53.55,2.24,2.24,0,0,1-.73.32,3.65,3.65,0,0,1-1,.12,5,5,0,0,1-1.09-.12l-.17-1.5a4.27,4.27,0,0,0,.82.09,1.2,1.2,0,0,0,1-.4,2.67,2.67,0,0,0,.49-1Z" style="fill:#fff"/><path d="M352.16,265.38v1.53h-1.31v2.93a8.9,8.9,0,0,0,0,1,.53.53,0,0,0,.17.25.58.58,0,0,0,.33.09,2.53,2.53,0,0,0,.77-.18l.17,1.49a3.89,3.89,0,0,1-1.52.29,2.35,2.35,0,0,1-.94-.18,1.41,1.41,0,0,1-.61-.45,1.73,1.73,0,0,1-.27-.75,9.44,9.44,0,0,1-.06-1.35v-3.17H348v-1.53h.88v-1.44l1.93-1.12v2.56Z" style="fill:#fff"/><path d="M355.33,272.64h-1.92v-7.26h1.78v1a3.09,3.09,0,0,1,.83-1,1.54,1.54,0,0,1,.83-.23,2.44,2.44,0,0,1,1.26.36l-.59,1.67a1.8,1.8,0,0,0-.91-.31,1.07,1.07,0,0,0-.68.22,1.54,1.54,0,0,0-.44.81,11.11,11.11,0,0,0-.16,2.43Z" style="fill:#fff"/><path d="M360.37,267.6l-1.74-.32a2.74,2.74,0,0,1,1-1.56,3.78,3.78,0,0,1,2.14-.5,4.66,4.66,0,0,1,1.91.3,1.91,1.91,0,0,1,.89.77,4,4,0,0,1,.25,1.72l0,2.25a8.07,8.07,0,0,0,.09,1.41,4.41,4.41,0,0,0,.35,1h-1.9c-.05-.13-.11-.32-.19-.57l-.06-.22a3.44,3.44,0,0,1-1.06.72,3,3,0,0,1-1.19.24,2.5,2.5,0,0,1-1.77-.61,2.16,2.16,0,0,1-.35-2.64,1.9,1.9,0,0,1,.82-.74,6.1,6.1,0,0,1,1.53-.44,10.15,10.15,0,0,0,1.87-.48v-.19a1,1,0,0,0-.28-.79,1.67,1.67,0,0,0-1-.23,1.34,1.34,0,0,0-.8.2A1.4,1.4,0,0,0,360.37,267.6Zm2.58,1.56c-.25.08-.64.18-1.17.29a3.35,3.35,0,0,0-1,.33.82.82,0,0,0-.38.68.93.93,0,0,0,.31.7,1.06,1.06,0,0,0,.76.29,1.63,1.63,0,0,0,1-.34,1.2,1.2,0,0,0,.46-.64,3.65,3.65,0,0,0,.08-.93Z" style="fill:#fff"/><path d="M373.33,272.64h-1.92v-3.7a5.26,5.26,0,0,0-.13-1.52,1.08,1.08,0,0,0-.39-.54,1.15,1.15,0,0,0-.67-.19,1.59,1.59,0,0,0-.9.27,1.37,1.37,0,0,0-.54.73,6.07,6.07,0,0,0-.15,1.66v3.29h-1.92v-7.26h1.79v1.07a2.9,2.9,0,0,1,2.39-1.23,2.76,2.76,0,0,1,1.16.23,1.91,1.91,0,0,1,.8.58,2.14,2.14,0,0,1,.37.81,6,6,0,0,1,.11,1.29Z" style="fill:#fff"/><path d="M374.6,270.57l1.93-.29a1.43,1.43,0,0,0,.5.85,1.7,1.7,0,0,0,1.05.29,1.83,1.83,0,0,0,1.12-.28.58.58,0,0,0,.25-.51.52.52,0,0,0-.13-.36,1.48,1.48,0,0,0-.65-.25,10.69,10.69,0,0,1-2.94-.94,1.86,1.86,0,0,1-.86-1.63,2,2,0,0,1,.74-1.59,3.48,3.48,0,0,1,2.31-.64,4.09,4.09,0,0,1,2.22.48,2.58,2.58,0,0,1,1,1.44l-1.82.33a1.08,1.08,0,0,0-.44-.65,1.58,1.58,0,0,0-.92-.22,2.11,2.11,0,0,0-1.09.21.44.44,0,0,0,0,.74,7.07,7.07,0,0,0,1.8.54,5.45,5.45,0,0,1,2.14.85,1.79,1.79,0,0,1,.6,1.43,2.21,2.21,0,0,1-.83,1.72,3.7,3.7,0,0,1-2.47.72,4.07,4.07,0,0,1-2.35-.61A2.79,2.79,0,0,1,374.6,270.57Z" style="fill:#fff"/><path d="M382.22,265.38h1.07v-.55a3.6,3.6,0,0,1,.19-1.36,1.56,1.56,0,0,1,.72-.74,2.75,2.75,0,0,1,1.32-.28,5.16,5.16,0,0,1,1.61.25l-.26,1.34a3.42,3.42,0,0,0-.88-.11.79.79,0,0,0-.6.19,1.14,1.14,0,0,0-.18.75v.51h1.44v1.51h-1.44v5.75h-1.92v-5.75h-1.07Z" style="fill:#fff"/><path d="M387.28,268.91a3.94,3.94,0,0,1,.47-1.85,3.22,3.22,0,0,1,1.34-1.37,3.91,3.91,0,0,1,1.93-.47,3.59,3.59,0,0,1,2.7,1.07,3.69,3.69,0,0,1,1,2.7,3.72,3.72,0,0,1-1.06,2.73,3.61,3.61,0,0,1-2.68,1.09,4.1,4.1,0,0,1-1.9-.46,3.14,3.14,0,0,1-1.38-1.32A4.46,4.46,0,0,1,387.28,268.91Zm2,.1a2.44,2.44,0,0,0,.51,1.66,1.64,1.64,0,0,0,1.27.57,1.62,1.62,0,0,0,1.26-.57,2.45,2.45,0,0,0,.51-1.67,2.39,2.39,0,0,0-.51-1.64,1.6,1.6,0,0,0-1.26-.58,1.62,1.62,0,0,0-1.27.58A2.4,2.4,0,0,0,389.25,269Z" style="fill:#fff"/><path d="M398.12,272.64H396.2v-7.26H398v1a3.09,3.09,0,0,1,.82-1,1.57,1.57,0,0,1,.83-.23,2.47,2.47,0,0,1,1.27.36l-.6,1.67a1.74,1.74,0,0,0-.9-.31,1,1,0,0,0-.68.22,1.47,1.47,0,0,0-.44.81,11.11,11.11,0,0,0-.16,2.43Z" style="fill:#fff"/><path d="M401.58,265.38h1.77v1a2.85,2.85,0,0,1,2.26-1.15,2.43,2.43,0,0,1,1.21.28,2.29,2.29,0,0,1,.85.87,3.59,3.59,0,0,1,1-.87,2.53,2.53,0,0,1,1.18-.28,2.7,2.7,0,0,1,1.35.32,2,2,0,0,1,.83,1,4.16,4.16,0,0,1,.2,1.5v4.64h-1.92v-4.15a3.09,3.09,0,0,0-.2-1.39.9.9,0,0,0-.82-.41,1.34,1.34,0,0,0-.76.24,1.37,1.37,0,0,0-.51.72,5,5,0,0,0-.16,1.51v3.48H406v-4a5.42,5.42,0,0,0-.1-1.36.89.89,0,0,0-.32-.46,1,1,0,0,0-.58-.15,1.37,1.37,0,0,0-.8.24,1.29,1.29,0,0,0-.51.69,4.81,4.81,0,0,0-.16,1.49v3.53h-1.92Z" style="fill:#fff"/><path d="M415.61,267.6l-1.74-.32a2.7,2.7,0,0,1,1-1.56,3.76,3.76,0,0,1,2.13-.5,4.59,4.59,0,0,1,1.91.3,1.91,1.91,0,0,1,.89.77,4,4,0,0,1,.26,1.72l0,2.25a8.07,8.07,0,0,0,.09,1.41,4.34,4.34,0,0,0,.34,1h-1.9q-.07-.19-.18-.57c0-.11-.06-.18-.07-.22a3.52,3.52,0,0,1-1.05.72,3.06,3.06,0,0,1-1.2.24,2.5,2.5,0,0,1-1.77-.61,2,2,0,0,1-.64-1.54,2.12,2.12,0,0,1,.29-1.1,1.93,1.93,0,0,1,.83-.74,6.13,6.13,0,0,1,1.52-.44,10.15,10.15,0,0,0,1.87-.48v-.19a1,1,0,0,0-.27-.79,1.73,1.73,0,0,0-1-.23,1.36,1.36,0,0,0-.8.2A1.39,1.39,0,0,0,415.61,267.6Zm2.57,1.56c-.25.08-.64.18-1.17.29a3.56,3.56,0,0,0-1.05.33.81.81,0,0,0-.37.68,1,1,0,0,0,.3.7,1.08,1.08,0,0,0,.77.29,1.67,1.67,0,0,0,1-.34,1.19,1.19,0,0,0,.45-.64,3.23,3.23,0,0,0,.08-.93Z" style="fill:#fff"/><path d="M428.29,267.53l-1.89.34A1.37,1.37,0,0,0,426,267a1.26,1.26,0,0,0-.88-.29,1.43,1.43,0,0,0-1.14.49,2.52,2.52,0,0,0-.43,1.66,3,3,0,0,0,.44,1.83,1.43,1.43,0,0,0,1.16.53,1.3,1.3,0,0,0,.9-.31,1.91,1.91,0,0,0,.49-1.07l1.89.32a3.38,3.38,0,0,1-1.13,2,3.52,3.52,0,0,1-2.24.67,3.33,3.33,0,0,1-2.54-1,4.59,4.59,0,0,1,0-5.58,3.36,3.36,0,0,1,2.57-1,3.54,3.54,0,0,1,2.11.57A3.17,3.17,0,0,1,428.29,267.53Z" style="fill:#fff"/><path d="M429.75,264.4v-1.78h1.92v1.78Zm0,8.24v-7.26h1.92v7.26Z" style="fill:#fff"/><path d="M433.19,268.91a3.94,3.94,0,0,1,.47-1.85,3.22,3.22,0,0,1,1.34-1.37,3.91,3.91,0,0,1,1.93-.47,3.59,3.59,0,0,1,2.7,1.07,3.69,3.69,0,0,1,1.05,2.7,3.72,3.72,0,0,1-1.06,2.73,3.61,3.61,0,0,1-2.68,1.09,4.1,4.1,0,0,1-1.9-.46,3.14,3.14,0,0,1-1.38-1.32A4.46,4.46,0,0,1,433.19,268.91Zm2,.1a2.44,2.44,0,0,0,.51,1.66,1.64,1.64,0,0,0,1.27.57,1.62,1.62,0,0,0,1.26-.57,2.45,2.45,0,0,0,.51-1.67,2.39,2.39,0,0,0-.51-1.64,1.6,1.6,0,0,0-1.26-.58,1.62,1.62,0,0,0-1.27.58A2.4,2.4,0,0,0,435.16,269Zm.81-4.52.94-2h2.15l-1.88,2Z" style="fill:#fff"/><path d="M448.79,272.64h-1.92v-3.7a5.82,5.82,0,0,0-.12-1.52,1.17,1.17,0,0,0-.4-.54,1.15,1.15,0,0,0-.67-.19,1.59,1.59,0,0,0-.9.27,1.37,1.37,0,0,0-.54.73,6.07,6.07,0,0,0-.15,1.66v3.29h-1.92v-7.26H444v1.07a2.9,2.9,0,0,1,2.39-1.23,2.76,2.76,0,0,1,1.16.23,1.91,1.91,0,0,1,.8.58,2.32,2.32,0,0,1,.38.81,6.09,6.09,0,0,1,.1,1.29Z" style="fill:#fff"/></svg>