<svg xmlns="http://www.w3.org/2000/svg" viewBox="0 0 689.42 398.25"><g id="Capa_1" data-name="Capa 1"><rect x="75.26" y="21.45" width="520.02" height="57.28" style="fill:#b60f07"/><path d="M109.28,48.36H116V49a8.19,8.19,0,0,1-.39,2.77,6.08,6.08,0,0,1-1.15,1.94,35.5,35.5,0,0,1-3.44,3.1A3.06,3.06,0,0,0,109.56,59a2,2,0,0,0,.57,1.5,2.44,2.44,0,0,0,1.73.53,2.8,2.8,0,0,0,2.07-.82,4.85,4.85,0,0,0,1-2.88l6.82.84a9.26,9.26,0,0,1-2.73,6.06c-1.59,1.52-4,2.29-7.3,2.29a10.79,10.79,0,0,1-6.19-1.6,6.65,6.65,0,0,1-3.2-5.77,5.5,5.5,0,0,1,.83-2.88,14.14,14.14,0,0,1,3.37-3.39,9.11,9.11,0,0,0,2.24-2.26A4.63,4.63,0,0,0,109.28,48.36Zm6.91-1.78H109V40.27h7.16Z" style="fill:#fff"/><path d="M148.6,55.18c1,.69,1.65,1.12,2,1.3.46.25,1.07.55,1.85.89l-2.22,4.47a25.48,25.48,0,0,1-3.3-1.93,27.48,27.48,0,0,1-2.29-1.68A16.53,16.53,0,0,1,138,59.38q-5.86,0-9.26-3.06-4-3.63-4-10.18,0-6.36,3.51-9.89t9.8-3.52q6.42,0,9.9,3.44T151.41,46Q151.41,51.74,148.6,55.18Zm-6.1-4.08a10.82,10.82,0,0,0,.95-5.1q0-3.9-1.45-5.57a5,5,0,0,0-4-1.67,4.86,4.86,0,0,0-3.85,1.7c-1,1.14-1.48,2.92-1.48,5.33,0,2.81.48,4.79,1.45,5.92a4.88,4.88,0,0,0,3.95,1.71,6.84,6.84,0,0,0,1.53-.16,10.06,10.06,0,0,0-3.16-1.83l1.24-2.86a6.8,6.8,0,0,1,1.65.47,21.93,21.93,0,0,1,2.29,1.48C141.89,50.71,142.18,50.9,142.5,51.1Z" style="fill:#fff"/><path d="M174.9,58.94h-6.68v-3a9.79,9.79,0,0,1-3,2.66,8,8,0,0,1-3.73.79,6.06,6.06,0,0,1-4.63-1.77c-1.12-1.17-1.68-3-1.68-5.44V40.27h7.19V50.54A3.72,3.72,0,0,0,163,53a2.3,2.3,0,0,0,1.82.74,2.64,2.64,0,0,0,2.11-1,5.75,5.75,0,0,0,.81-3.54v-9h7.16Z" style="fill:#fff"/><path d="M200,51.38H185.62a4.69,4.69,0,0,0,.93,2.57,3.41,3.41,0,0,0,2.71,1.21,4.07,4.07,0,0,0,2-.53,4.59,4.59,0,0,0,1.25-1.18l7.05.65a10.15,10.15,0,0,1-3.9,4,14.26,14.26,0,0,1-6.56,1.22,13.41,13.41,0,0,1-5.84-1A8.53,8.53,0,0,1,179.74,55a10,10,0,0,1-1.4-5.35,9.38,9.38,0,0,1,2.81-7.08c1.86-1.81,4.45-2.71,7.74-2.71a13.79,13.79,0,0,1,6.33,1.21,8.22,8.22,0,0,1,3.53,3.52,12.81,12.81,0,0,1,1.21,6ZM192.69,48a4.81,4.81,0,0,0-1.12-3,3.5,3.5,0,0,0-5.11.46,4.91,4.91,0,0,0-.82,2.51Zm-3.8-15.22H195L189.36,38h-3.42Z" style="fill:#fff"/><path d="M215.26,40.27h6.66v3a9.81,9.81,0,0,1,3-2.66,7.88,7.88,0,0,1,3.73-.8,6.13,6.13,0,0,1,4.65,1.76Q235,43.38,235,47.07V58.94h-7.19V48.67a3.73,3.73,0,0,0-.65-2.48,2.33,2.33,0,0,0-1.83-.73,2.58,2.58,0,0,0-2.11,1,5.72,5.72,0,0,0-.81,3.53v9h-7.15Z" style="fill:#fff"/><path d="M238.39,49.66a9.33,9.33,0,0,1,2.88-7,10.76,10.76,0,0,1,7.79-2.77q5.61,0,8.47,3.25a9.41,9.41,0,0,1,2.3,6.45A9.38,9.38,0,0,1,257,56.61a11,11,0,0,1-7.9,2.75,11.06,11.06,0,0,1-7.28-2.29A9.16,9.16,0,0,1,238.39,49.66Zm7.17,0a5.66,5.66,0,0,0,1,3.69,3.31,3.31,0,0,0,5.08,0,5.86,5.86,0,0,0,1-3.78,5.48,5.48,0,0,0-1-3.61,3.12,3.12,0,0,0-2.48-1.19,3.24,3.24,0,0,0-2.58,1.2A5.6,5.6,0,0,0,245.56,49.64Z" style="fill:#fff"/><path d="M296,51.38H281.67A4.69,4.69,0,0,0,282.6,54a3.4,3.4,0,0,0,2.7,1.21,4.08,4.08,0,0,0,2-.53,4.59,4.59,0,0,0,1.25-1.18l7.05.65a10.1,10.1,0,0,1-3.91,4,14.22,14.22,0,0,1-6.55,1.22,13.38,13.38,0,0,1-5.84-1A8.47,8.47,0,0,1,275.79,55a10,10,0,0,1-1.4-5.35,9.38,9.38,0,0,1,2.8-7.08q2.81-2.72,7.75-2.71a13.72,13.72,0,0,1,6.32,1.21,8.19,8.19,0,0,1,3.54,3.52,12.81,12.81,0,0,1,1.21,6ZM288.73,48a4.81,4.81,0,0,0-1.11-3,3.5,3.5,0,0,0-5.11.46,5,5,0,0,0-.83,2.51Z" style="fill:#fff"/><path d="M298,53.75l7.1-.67a3.62,3.62,0,0,0,1.23,1.82,4.41,4.41,0,0,0,4.35-.07,1.38,1.38,0,0,0,.61-1.14,1.31,1.31,0,0,0-.81-1.2,15,15,0,0,0-3.07-.74,31.7,31.7,0,0,1-5.18-1.2,5.42,5.42,0,0,1-2.44-1.87,4.82,4.82,0,0,1-1-3,5,5,0,0,1,1.07-3.18,6.4,6.4,0,0,1,3-2,15.61,15.61,0,0,1,5-.66,17.43,17.43,0,0,1,4.93.51,6.51,6.51,0,0,1,2.66,1.58,8.07,8.07,0,0,1,1.76,2.9l-6.78.67a2.33,2.33,0,0,0-.88-1.32,3.62,3.62,0,0,0-2-.56,2.88,2.88,0,0,0-1.77.43,1.29,1.29,0,0,0-.55,1,1.13,1.13,0,0,0,.7,1,11.7,11.7,0,0,0,3.06.63,21,21,0,0,1,5.31,1.12A5.82,5.82,0,0,1,317,50a5,5,0,0,1,.93,2.93,5.74,5.74,0,0,1-1,3.14,6.63,6.63,0,0,1-3.07,2.44,14.87,14.87,0,0,1-5.73.9q-5.12,0-7.28-1.46A6.53,6.53,0,0,1,298,53.75Z" style="fill:#fff"/><path d="M333.56,33.17h7.15V38h-7.15Zm0,7.1h7.15V58.94h-7.15Z" style="fill:#fff"/><path d="M345.28,40.27h6.66v3a9.94,9.94,0,0,1,3-2.66,7.87,7.87,0,0,1,3.72-.8,6.13,6.13,0,0,1,4.65,1.76Q365,43.38,365,47.07V58.94h-7.19V48.67a3.67,3.67,0,0,0-.65-2.48,2.3,2.3,0,0,0-1.83-.73,2.6,2.6,0,0,0-2.11,1,5.8,5.8,0,0,0-.8,3.53v9h-7.16Z" style="fill:#fff"/><path d="M377.26,40.27h3.41v5.24h-3.41V58.94h-7.18V45.51h-2.67V40.27h2.67v-.84a14.79,14.79,0,0,1,.25-2.52,5,5,0,0,1,.92-2.24,4.72,4.72,0,0,1,1.9-1.4,9.24,9.24,0,0,1,3.58-.54,49.73,49.73,0,0,1,5.47.44l-.8,4.32a13.31,13.31,0,0,0-2.07-.21,2.29,2.29,0,0,0-1.39.33,1.8,1.8,0,0,0-.6,1A10.55,10.55,0,0,0,377.26,40.27Z" style="fill:#fff"/><path d="M381.81,49.66a9.33,9.33,0,0,1,2.88-7,10.76,10.76,0,0,1,7.79-2.77q5.61,0,8.47,3.25a9.41,9.41,0,0,1,2.3,6.45,9.38,9.38,0,0,1-2.85,7.06,11,11,0,0,1-7.9,2.75,11.06,11.06,0,0,1-7.28-2.29A9.16,9.16,0,0,1,381.81,49.66Zm7.17,0a5.66,5.66,0,0,0,1,3.69,3.31,3.31,0,0,0,5.08,0,5.86,5.86,0,0,0,1-3.78,5.48,5.48,0,0,0-1-3.61,3.12,3.12,0,0,0-2.48-1.19A3.24,3.24,0,0,0,390,46,5.6,5.6,0,0,0,389,49.64Z" style="fill:#fff"/><path d="M406.77,40.27h6.7v3.06a7.17,7.17,0,0,1,2-2.73,4.2,4.2,0,0,1,2.54-.75,7.65,7.65,0,0,1,3.47,1l-2.22,5.1a5.65,5.65,0,0,0-2-.53,2.47,2.47,0,0,0-2.18,1.16Q414,48.19,414,52.68v6.26h-7.19Z" style="fill:#fff"/><path d="M424.52,40.27h6.68V43a9.49,9.49,0,0,1,2.92-2.42,8,8,0,0,1,3.54-.72,6.78,6.78,0,0,1,3.54.79A5.89,5.89,0,0,1,443.33,43a11,11,0,0,1,3.07-2.48,8,8,0,0,1,3.43-.66,6.11,6.11,0,0,1,4.68,1.78q1.69,1.78,1.69,5.58V58.94H449V48.3a3,3,0,0,0-.49-1.88,2.17,2.17,0,0,0-1.79-1,2.51,2.51,0,0,0-2,.91,4.5,4.5,0,0,0-.77,2.94v9.63h-7.17V48.65a6.11,6.11,0,0,0-.15-1.67,2.27,2.27,0,0,0-.79-1.13,2.11,2.11,0,0,0-1.32-.43,2.54,2.54,0,0,0-2,.93,4.7,4.7,0,0,0-.79,3.06v9.53h-7.18Z" style="fill:#fff"/><path d="M467,46.32l-6.84-.72a7.57,7.57,0,0,1,1.12-2.82,6.15,6.15,0,0,1,2.1-1.79,9,9,0,0,1,2.71-.84,21.73,21.73,0,0,1,3.72-.3,29.62,29.62,0,0,1,5.17.36,6.62,6.62,0,0,1,3.25,1.5A5.41,5.41,0,0,1,479.67,44a8.14,8.14,0,0,1,.52,2.77V55a10,10,0,0,0,.17,2.06,9.62,9.62,0,0,0,.73,1.91h-6.71a6.76,6.76,0,0,1-.53-1.1,8,8,0,0,1-.25-1.19,9.3,9.3,0,0,1-2.79,1.94,11.79,11.79,0,0,1-4.42.77,7.41,7.41,0,0,1-5.07-1.55A4.92,4.92,0,0,1,459.59,54a5,5,0,0,1,1.25-3.5q1.25-1.36,4.61-2,4-.81,5.22-1.13a26,26,0,0,0,2.53-.85,2.49,2.49,0,0,0-.55-1.85,2.73,2.73,0,0,0-1.91-.53,5,5,0,0,0-2.64.56A3.11,3.11,0,0,0,467,46.32Zm6.21,3.76c-1,.35-2,.66-3.08.93a7.31,7.31,0,0,0-2.76,1.14,1.83,1.83,0,0,0,0,2.7,2.49,2.49,0,0,0,1.73.54,4.55,4.55,0,0,0,2.23-.58,3.57,3.57,0,0,0,1.46-1.42,4.81,4.81,0,0,0,.43-2.17Z" style="fill:#fff"/><path d="M498.4,51.63l6.81.77a9.54,9.54,0,0,1-1.85,3.68,8.57,8.57,0,0,1-3.28,2.42,12.94,12.94,0,0,1-5.07.86,18.69,18.69,0,0,1-4.95-.55,8.8,8.8,0,0,1-3.4-1.79,9.13,9.13,0,0,1-2.23-2.91,10.22,10.22,0,0,1-.81-4.43,10.34,10.34,0,0,1,1-4.79,8.59,8.59,0,0,1,2-2.52,9,9,0,0,1,2.57-1.66,14.32,14.32,0,0,1,5.36-.86q4.58,0,7,1.63a8.67,8.67,0,0,1,3.37,4.78l-6.73.9a3.13,3.13,0,0,0-1.16-1.8,3.67,3.67,0,0,0-2.24-.61A3.61,3.61,0,0,0,491.84,46a5.76,5.76,0,0,0-1.1,3.85,5,5,0,0,0,1.09,3.49,3.61,3.61,0,0,0,2.78,1.19,3.81,3.81,0,0,0,2.36-.72A4.25,4.25,0,0,0,498.4,51.63Z" style="fill:#fff"/><path d="M508.76,33.17h7.15V38h-7.15Zm0,7.1h7.15V58.94h-7.15Z" style="fill:#fff"/><path d="M519.6,49.66a9.3,9.3,0,0,1,2.89-7,10.73,10.73,0,0,1,7.78-2.77q5.61,0,8.48,3.25a9.46,9.46,0,0,1,2.3,6.45,9.35,9.35,0,0,1-2.86,7.06c-1.9,1.83-4.54,2.75-7.9,2.75A11.08,11.08,0,0,1,523,57.07,9.16,9.16,0,0,1,519.6,49.66Zm7.18,0a5.61,5.61,0,0,0,1,3.69,3.31,3.31,0,0,0,5.08,0,5.86,5.86,0,0,0,1-3.78,5.48,5.48,0,0,0-1-3.61,3.14,3.14,0,0,0-2.48-1.19A3.23,3.23,0,0,0,527.8,46,5.6,5.6,0,0,0,526.78,49.64Zm3.35-16.91h6.16L530.61,38h-3.43Z" style="fill:#fff"/><path d="M544.49,40.27h6.67v3a9.81,9.81,0,0,1,3-2.66,7.88,7.88,0,0,1,3.73-.8,6.13,6.13,0,0,1,4.65,1.76c1.12,1.18,1.67,3,1.67,5.46V58.94h-7.18V48.67a3.67,3.67,0,0,0-.66-2.48,2.29,2.29,0,0,0-1.82-.73,2.58,2.58,0,0,0-2.11,1,5.72,5.72,0,0,0-.81,3.53v9h-7.16Z" style="fill:#fff"/><path d="M580.14,50.85h-6.68v-.67a8.13,8.13,0,0,1,.39-2.76,6.23,6.23,0,0,1,1.15-2,37.32,37.32,0,0,1,3.44-3.09,3.06,3.06,0,0,0,1.42-2.13,2,2,0,0,0-.57-1.5,2.44,2.44,0,0,0-1.73-.54,2.81,2.81,0,0,0-2.07.83,4.85,4.85,0,0,0-1,2.88l-6.82-.84A9.26,9.26,0,0,1,570.36,35q2.39-2.3,7.3-2.29a10.79,10.79,0,0,1,6.19,1.6,6.65,6.65,0,0,1,3.2,5.76,5.51,5.51,0,0,1-.83,2.89,14.32,14.32,0,0,1-3.37,3.39,9.11,9.11,0,0,0-2.24,2.26A4.63,4.63,0,0,0,580.14,50.85Zm-6.91,1.78h7.16v6.31h-7.16Z" style="fill:#fff"/><path d="M62,108.46H78.67l5.81,10.2,6.77-10.2h15.47L94.23,125.89l13.38,19.16H91.25l-6.77-11.78-7.94,11.78H61.34l13.29-19.16Z" style="fill:#1e2053"/><path d="M62,184.11H78.67l5.81,10.2,6.77-10.2h15.47L94.23,201.54l13.38,19.15H91.25l-6.77-11.78-7.94,11.78H61.34l13.29-19.15Z" style="fill:#1e2053"/><path d="M62,250.34H78.67l5.81,10.2,6.77-10.2h15.47L94.23,267.77l13.38,19.16H91.25l-6.77-11.79-7.94,11.79H61.34l13.29-19.16Z" style="fill:#1e2053"/><path d="M62,310.24H78.67l5.81,10.2,6.77-10.2h15.47L94.23,327.67l13.38,19.15H91.25L84.48,335l-7.94,11.78H61.34l13.29-19.15Z" style="fill:#1e2053"/><path d="M143.06,132.76V113.54h6.62a15.62,15.62,0,0,1,3.42.28,6.53,6.53,0,0,1,2.82,1.37,8,8,0,0,1,2.28,3.29,12.92,12.92,0,0,1,.75,4.57,13.46,13.46,0,0,1-.51,3.88,9.46,9.46,0,0,1-1.31,2.8,6.51,6.51,0,0,1-4,2.71,13.52,13.52,0,0,1-3.09.32Zm2.54-2.26h4.11a9.81,9.81,0,0,0,3-.36,4.29,4.29,0,0,0,1.72-1,6,6,0,0,0,1.41-2.44,11.76,11.76,0,0,0,.51-3.7,9,9,0,0,0-1-4.64,5,5,0,0,0-2.41-2.17,10,10,0,0,0-3.29-.39h-4Z" style="fill:#595959"/><path d="M171.24,131.05a9,9,0,0,1-2.53,1.57,7.18,7.18,0,0,1-2.6.46,5.05,5.05,0,0,1-3.53-1.12,3.71,3.71,0,0,1-1.23-2.87,3.84,3.84,0,0,1,.46-1.87,4,4,0,0,1,1.22-1.35,6,6,0,0,1,1.7-.78,16.9,16.9,0,0,1,2.1-.35,22.13,22.13,0,0,0,4.21-.81c0-.33,0-.53,0-.62a2.58,2.58,0,0,0-.67-2,3.9,3.9,0,0,0-2.68-.8,4.17,4.17,0,0,0-2.46.58,3.61,3.61,0,0,0-1.18,2.07l-2.3-.32a5.72,5.72,0,0,1,1-2.39,4.47,4.47,0,0,1,2.09-1.4,9.23,9.23,0,0,1,3.16-.5,8.29,8.29,0,0,1,2.89.42,3.73,3.73,0,0,1,1.64,1.06,3.69,3.69,0,0,1,.74,1.61,13,13,0,0,1,.12,2.17v3.15a33.54,33.54,0,0,0,.15,4.16,5.38,5.38,0,0,0,.59,1.67h-2.46A4.82,4.82,0,0,1,171.24,131.05Zm-.2-5.27a18.23,18.23,0,0,1-3.86.89,8.56,8.56,0,0,0-2.05.47,2,2,0,0,0-.94.77,2.06,2.06,0,0,0-.32,1.12,2,2,0,0,0,.71,1.57,3.09,3.09,0,0,0,2.09.63,4.86,4.86,0,0,0,2.43-.6,3.61,3.61,0,0,0,1.56-1.63,5.75,5.75,0,0,0,.38-2.36Z" style="fill:#595959"/><path d="M182.24,130.65l.34,2.09a8.8,8.8,0,0,1-1.78.21,4.06,4.06,0,0,1-2-.41,2.26,2.26,0,0,1-1-1.07,8.2,8.2,0,0,1-.29-2.78v-8h-1.73v-1.83h1.73v-3.45l2.34-1.42v4.87h2.38v1.83h-2.38v8.15a4.22,4.22,0,0,0,.13,1.3.94.94,0,0,0,.41.45,1.47,1.47,0,0,0,.8.17A7.8,7.8,0,0,0,182.24,130.65Z" style="fill:#595959"/><path d="M183.67,125.8c0-2.58.71-4.49,2.15-5.73a6.5,6.5,0,0,1,4.38-1.55,6.22,6.22,0,0,1,4.69,1.89,7.12,7.12,0,0,1,1.83,5.2,9.12,9.12,0,0,1-.81,4.22,5.72,5.72,0,0,1-2.35,2.4,6.93,6.93,0,0,1-3.36.85,6.27,6.27,0,0,1-4.73-1.88A7.49,7.49,0,0,1,183.67,125.8Zm2.42,0a5.94,5.94,0,0,0,1.17,4,3.77,3.77,0,0,0,2.94,1.33,3.72,3.72,0,0,0,2.92-1.34,6.06,6.06,0,0,0,1.17-4.08,5.76,5.76,0,0,0-1.17-3.91,3.9,3.9,0,0,0-5.86,0A5.91,5.91,0,0,0,186.09,125.8Z" style="fill:#595959"/><path d="M198.54,128.61l2.33-.37a3.25,3.25,0,0,0,1.1,2.15,3.8,3.8,0,0,0,2.51.75,3.69,3.69,0,0,0,2.41-.66,2,2,0,0,0,.79-1.56,1.43,1.43,0,0,0-.7-1.26,10.36,10.36,0,0,0-2.41-.8,21.41,21.41,0,0,1-3.6-1.13,3.48,3.48,0,0,1-1.52-1.33,3.43,3.43,0,0,1-.52-1.86,3.55,3.55,0,0,1,.43-1.73,3.77,3.77,0,0,1,1.16-1.32,4.67,4.67,0,0,1,1.5-.68,7,7,0,0,1,2-.29,8,8,0,0,1,2.88.48,4,4,0,0,1,1.83,1.27,5.08,5.08,0,0,1,.81,2.16l-2.31.32a2.51,2.51,0,0,0-.91-1.68,3.33,3.33,0,0,0-2.13-.61,3.82,3.82,0,0,0-2.32.54,1.56,1.56,0,0,0-.7,1.26,1.33,1.33,0,0,0,.29.83,2.16,2.16,0,0,0,.91.63c.23.08.93.28,2.08.6a31.09,31.09,0,0,1,3.5,1.09,3.62,3.62,0,0,1,1.55,1.24,3.46,3.46,0,0,1,.56,2,4.05,4.05,0,0,1-.68,2.23,4.52,4.52,0,0,1-2,1.61,7.27,7.27,0,0,1-2.94.57,6.57,6.57,0,0,1-4.14-1.13A5.27,5.27,0,0,1,198.54,128.61Z" style="fill:#595959"/><path d="M229.46,131.05a9,9,0,0,1-2.53,1.57,7.15,7.15,0,0,1-2.6.46A5.07,5.07,0,0,1,220.8,132a3.71,3.71,0,0,1-1.23-2.87,3.85,3.85,0,0,1,.47-1.87,3.78,3.78,0,0,1,1.22-1.35,5.82,5.82,0,0,1,1.69-.78,17.24,17.24,0,0,1,2.1-.35,22.13,22.13,0,0,0,4.21-.81c0-.33,0-.53,0-.62a2.62,2.62,0,0,0-.66-2,3.93,3.93,0,0,0-2.69-.8,4.17,4.17,0,0,0-2.46.58,3.55,3.55,0,0,0-1.17,2.07l-2.31-.32a5.72,5.72,0,0,1,1-2.39,4.47,4.47,0,0,1,2.09-1.4,9.23,9.23,0,0,1,3.16-.5,8.39,8.39,0,0,1,2.9.42A3.79,3.79,0,0,1,230.8,120a3.68,3.68,0,0,1,.73,1.61,13,13,0,0,1,.12,2.17v3.15a33.54,33.54,0,0,0,.15,4.16,5.16,5.16,0,0,0,.6,1.67h-2.47A5,5,0,0,1,229.46,131.05Zm-.2-5.27a18.26,18.26,0,0,1-3.85.89,8.67,8.67,0,0,0-2.06.47,2,2,0,0,0-1.26,1.89,2,2,0,0,0,.71,1.57,3.09,3.09,0,0,0,2.09.63,4.86,4.86,0,0,0,2.43-.6,3.61,3.61,0,0,0,1.56-1.63,5.75,5.75,0,0,0,.38-2.36Z" style="fill:#595959"/><path d="M235.32,116.26v-2.72h2.36v2.72Zm0,16.5V118.84h2.36v13.92Z" style="fill:#595959"/><path d="M240.33,128.61l2.33-.37a3.25,3.25,0,0,0,1.1,2.15,3.8,3.8,0,0,0,2.51.75,3.69,3.69,0,0,0,2.41-.66,2,2,0,0,0,.79-1.56,1.43,1.43,0,0,0-.7-1.26,10.36,10.36,0,0,0-2.41-.8,21.41,21.41,0,0,1-3.6-1.13,3.48,3.48,0,0,1-1.52-1.33,3.43,3.43,0,0,1-.52-1.86,3.55,3.55,0,0,1,.43-1.73,3.77,3.77,0,0,1,1.16-1.32,4.77,4.77,0,0,1,1.5-.68,7,7,0,0,1,2-.29,8,8,0,0,1,2.88.48,4,4,0,0,1,1.83,1.27,5.08,5.08,0,0,1,.81,2.16l-2.31.32a2.51,2.51,0,0,0-.91-1.68,3.33,3.33,0,0,0-2.13-.61,3.82,3.82,0,0,0-2.32.54,1.56,1.56,0,0,0-.7,1.26,1.33,1.33,0,0,0,.29.83,2.16,2.16,0,0,0,.91.63c.23.08.93.28,2.08.6a31.09,31.09,0,0,1,3.5,1.09,3.62,3.62,0,0,1,1.55,1.24,3.46,3.46,0,0,1,.56,2,4.05,4.05,0,0,1-.68,2.23,4.52,4.52,0,0,1-2,1.61,7.27,7.27,0,0,1-2.94.57,6.57,6.57,0,0,1-4.14-1.13A5.27,5.27,0,0,1,240.33,128.61Z" style="fill:#595959"/><path d="M254.65,132.76V113.54H257v19.22Z" style="fill:#595959"/><path d="M269.75,131.05a8.84,8.84,0,0,1-2.52,1.57,7.22,7.22,0,0,1-2.6.46A5.05,5.05,0,0,1,261.1,132a3.71,3.71,0,0,1-1.23-2.87,3.84,3.84,0,0,1,.46-1.87,3.88,3.88,0,0,1,1.22-1.35,5.88,5.88,0,0,1,1.7-.78,16.57,16.57,0,0,1,2.1-.35,22.3,22.3,0,0,0,4.21-.81c0-.33,0-.53,0-.62a2.58,2.58,0,0,0-.67-2,3.91,3.91,0,0,0-2.69-.8,4.17,4.17,0,0,0-2.46.58,3.55,3.55,0,0,0-1.17,2.07l-2.31-.32a5.72,5.72,0,0,1,1-2.39,4.44,4.44,0,0,1,2.08-1.4,9.27,9.27,0,0,1,3.16-.5,8.35,8.35,0,0,1,2.9.42,3.33,3.33,0,0,1,2.38,2.67,14.57,14.57,0,0,1,.11,2.17v3.15a33.54,33.54,0,0,0,.15,4.16,5.16,5.16,0,0,0,.6,1.67h-2.47A5,5,0,0,1,269.75,131.05Zm-.19-5.27a18.38,18.38,0,0,1-3.86.89,8.67,8.67,0,0,0-2.06.47,2,2,0,0,0-.93.77,2.07,2.07,0,0,0,.39,2.69,3.05,3.05,0,0,0,2.09.63,4.86,4.86,0,0,0,2.43-.6,3.72,3.72,0,0,0,1.56-1.63,5.75,5.75,0,0,0,.38-2.36Z" style="fill:#595959"/><path d="M284.64,132.76V131a4.34,4.34,0,0,1-3.9,2.07,5.47,5.47,0,0,1-3.06-.92,6,6,0,0,1-2.16-2.56,8.91,8.91,0,0,1-.77-3.79,9.94,9.94,0,0,1,.69-3.78,5.5,5.5,0,0,1,2.09-2.6,5.61,5.61,0,0,1,3.11-.91,4.58,4.58,0,0,1,2.24.54,4.66,4.66,0,0,1,1.6,1.38v-6.9h2.35v19.22Zm-7.46-6.95a6,6,0,0,0,1.12,4,3.39,3.39,0,0,0,2.67,1.33,3.31,3.31,0,0,0,2.62-1.27,5.83,5.83,0,0,0,1.09-3.86,6.5,6.5,0,0,0-1.11-4.19,3.36,3.36,0,0,0-2.71-1.34,3.28,3.28,0,0,0-2.63,1.28A6.38,6.38,0,0,0,277.18,125.81Z" style="fill:#595959"/><path d="M289.66,125.8q0-3.87,2.15-5.73a6.5,6.5,0,0,1,4.38-1.55,6.22,6.22,0,0,1,4.69,1.89,7.12,7.12,0,0,1,1.83,5.2,9.12,9.12,0,0,1-.81,4.22,5.72,5.72,0,0,1-2.35,2.4,6.93,6.93,0,0,1-3.36.85,6.27,6.27,0,0,1-4.73-1.88A7.49,7.49,0,0,1,289.66,125.8Zm2.42,0a5.94,5.94,0,0,0,1.17,4,3.77,3.77,0,0,0,2.94,1.33,3.72,3.72,0,0,0,2.92-1.34,6.06,6.06,0,0,0,1.17-4.08,5.76,5.76,0,0,0-1.17-3.91,3.9,3.9,0,0,0-5.86,0A5.91,5.91,0,0,0,292.08,125.8Z" style="fill:#595959"/><path d="M304.53,128.61l2.33-.37a3.25,3.25,0,0,0,1.1,2.15,3.8,3.8,0,0,0,2.51.75,3.69,3.69,0,0,0,2.41-.66,2,2,0,0,0,.79-1.56,1.43,1.43,0,0,0-.7-1.26,10.36,10.36,0,0,0-2.41-.8,21.41,21.41,0,0,1-3.6-1.13,3.48,3.48,0,0,1-1.52-1.33,3.43,3.43,0,0,1-.52-1.86,3.55,3.55,0,0,1,.43-1.73,3.77,3.77,0,0,1,1.16-1.32,4.77,4.77,0,0,1,1.5-.68,7,7,0,0,1,2-.29,8,8,0,0,1,2.88.48,4,4,0,0,1,1.83,1.27,5.08,5.08,0,0,1,.81,2.16l-2.31.32a2.51,2.51,0,0,0-.91-1.68,3.33,3.33,0,0,0-2.13-.61,3.82,3.82,0,0,0-2.32.54,1.56,1.56,0,0,0-.7,1.26,1.33,1.33,0,0,0,.29.83,2.16,2.16,0,0,0,.91.63c.23.08.93.28,2.08.6a31.09,31.09,0,0,1,3.5,1.09,3.62,3.62,0,0,1,1.55,1.24,3.46,3.46,0,0,1,.56,2,4.05,4.05,0,0,1-.68,2.23,4.52,4.52,0,0,1-2,1.61,7.27,7.27,0,0,1-2.94.57,6.57,6.57,0,0,1-4.14-1.13A5.27,5.27,0,0,1,304.53,128.61Z" style="fill:#595959"/><path d="M325.42,128.61l2.33-.37a3.25,3.25,0,0,0,1.1,2.15,3.78,3.78,0,0,0,2.51.75,3.69,3.69,0,0,0,2.41-.66,2,2,0,0,0,.79-1.56,1.43,1.43,0,0,0-.7-1.26,10.55,10.55,0,0,0-2.41-.8,21.41,21.41,0,0,1-3.6-1.13,3.46,3.46,0,0,1-2-3.19,3.55,3.55,0,0,1,.43-1.73,3.77,3.77,0,0,1,1.16-1.32,4.57,4.57,0,0,1,1.5-.68,7,7,0,0,1,2-.29,8,8,0,0,1,2.88.48,3.91,3.91,0,0,1,1.82,1.27,5,5,0,0,1,.82,2.16l-2.31.32a2.51,2.51,0,0,0-.91-1.68,3.33,3.33,0,0,0-2.13-.61,3.82,3.82,0,0,0-2.32.54,1.56,1.56,0,0,0-.7,1.26,1.33,1.33,0,0,0,.29.83,2.09,2.09,0,0,0,.91.63c.23.08.93.28,2.08.6a30.73,30.73,0,0,1,3.49,1.09,3.65,3.65,0,0,1,1.56,1.24,3.53,3.53,0,0,1,.56,2,4,4,0,0,1-.69,2.23,4.44,4.44,0,0,1-2,1.61,7.27,7.27,0,0,1-2.94.57,6.57,6.57,0,0,1-4.14-1.13A5.23,5.23,0,0,1,325.42,128.61Z" style="fill:#595959"/><path d="M339.8,116.26v-2.72h2.36v2.72Zm0,16.5V118.84h2.36v13.92Z" style="fill:#595959"/><path d="M345.76,132.76V118.84h2.12v2a5,5,0,0,1,4.43-2.3,5.72,5.72,0,0,1,2.32.46,3.64,3.64,0,0,1,1.58,1.18,4.53,4.53,0,0,1,.73,1.75,13.18,13.18,0,0,1,.13,2.29v8.56h-2.36v-8.47a6.41,6.41,0,0,0-.27-2.15,2.26,2.26,0,0,0-1-1.14,3.08,3.08,0,0,0-1.65-.43,3.82,3.82,0,0,0-2.6,1c-.73.63-1.09,1.85-1.09,3.63v7.6Z" style="fill:#595959"/><path d="M377.69,128.28l2.43.3A5.92,5.92,0,0,1,378,131.9a7.24,7.24,0,0,1-8.83-.7,7.34,7.34,0,0,1-1.79-5.28,7.71,7.71,0,0,1,1.81-5.46,6.12,6.12,0,0,1,4.69-1.94,6,6,0,0,1,4.56,1.91,7.54,7.54,0,0,1,1.77,5.35c0,.13,0,.34,0,.62H369.8a5.36,5.36,0,0,0,1.3,3.52,3.88,3.88,0,0,0,2.91,1.22,3.64,3.64,0,0,0,2.22-.68A4.58,4.58,0,0,0,377.69,128.28Zm-7.75-3.82h7.77a4.65,4.65,0,0,0-.89-2.63,3.62,3.62,0,0,0-2.92-1.37,3.78,3.78,0,0,0-2.74,1.09A4.27,4.27,0,0,0,369.94,124.46Z" style="fill:#595959"/><path d="M382.14,128.61l2.34-.37a3.24,3.24,0,0,0,1.09,2.15,3.82,3.82,0,0,0,2.51.75,3.72,3.72,0,0,0,2.42-.66,2,2,0,0,0,.78-1.56,1.45,1.45,0,0,0-.69-1.26,10.74,10.74,0,0,0-2.41-.8,21.1,21.1,0,0,1-3.6-1.13,3.42,3.42,0,0,1-2-3.19,3.66,3.66,0,0,1,.42-1.73,3.88,3.88,0,0,1,1.16-1.32,4.73,4.73,0,0,1,1.51-.68,7,7,0,0,1,2-.29,7.9,7.9,0,0,1,2.88.48,3.89,3.89,0,0,1,1.83,1.27,5,5,0,0,1,.81,2.16l-2.3.32a2.55,2.55,0,0,0-.91-1.68,3.38,3.38,0,0,0-2.14-.61,3.86,3.86,0,0,0-2.32.54,1.57,1.57,0,0,0-.69,1.26,1.33,1.33,0,0,0,.29.83,2.12,2.12,0,0,0,.9.63c.24.08.93.28,2.09.6a30.73,30.73,0,0,1,3.49,1.09,3.65,3.65,0,0,1,1.56,1.24,3.53,3.53,0,0,1,.56,2,4,4,0,0,1-.69,2.23,4.47,4.47,0,0,1-2,1.61,7.19,7.19,0,0,1-2.93.57A6.57,6.57,0,0,1,384,132,5.28,5.28,0,0,1,382.14,128.61Z" style="fill:#595959"/><path d="M401.67,130.65l.34,2.09a8.8,8.8,0,0,1-1.78.21,4.09,4.09,0,0,1-2-.41,2.26,2.26,0,0,1-1-1.07,8.2,8.2,0,0,1-.29-2.78v-8h-1.73v-1.83H397v-3.45L399.3,114v4.87h2.37v1.83H399.3v8.15a4.33,4.33,0,0,0,.12,1.3.94.94,0,0,0,.41.45,1.47,1.47,0,0,0,.8.17A7.8,7.8,0,0,0,401.67,130.65Z" style="fill:#595959"/><path d="M404,132.76V118.84h2.12V121a5.75,5.75,0,0,1,1.51-2,2.58,2.58,0,0,1,1.51-.48,4.69,4.69,0,0,1,2.43.76l-.82,2.19A3.35,3.35,0,0,0,409,121a2.26,2.26,0,0,0-1.39.47,2.56,2.56,0,0,0-.88,1.29,9.28,9.28,0,0,0-.39,2.75v7.29Z" style="fill:#595959"/><path d="M422.05,132.76v-2a5.12,5.12,0,0,1-4.42,2.36,5.7,5.7,0,0,1-2.3-.47,3.74,3.74,0,0,1-1.59-1.19,4.41,4.41,0,0,1-.73-1.75,12.65,12.65,0,0,1-.14-2.2v-8.63h2.36v7.72a14.45,14.45,0,0,0,.14,2.49,2.52,2.52,0,0,0,.95,1.47,2.94,2.94,0,0,0,1.78.53,3.9,3.9,0,0,0,2-.55,3,3,0,0,0,1.32-1.48,7.35,7.35,0,0,0,.39-2.72v-7.46h2.36v13.92Z" style="fill:#595959"/><path d="M436.94,127.66l2.32.31a6,6,0,0,1-1.94,3.75,5.66,5.66,0,0,1-3.85,1.36,6,6,0,0,1-4.6-1.87,7.58,7.58,0,0,1-1.74-5.36,9.62,9.62,0,0,1,.75-3.94,5.2,5.2,0,0,1,2.28-2.54,6.78,6.78,0,0,1,3.32-.85,5.81,5.81,0,0,1,3.71,1.15,5.28,5.28,0,0,1,1.85,3.26l-2.29.35a3.86,3.86,0,0,0-1.16-2.11,3,3,0,0,0-2-.71,3.65,3.65,0,0,0-2.89,1.28,6,6,0,0,0-1.12,4.05,6.33,6.33,0,0,0,1.07,4.08,3.54,3.54,0,0,0,2.81,1.27,3.33,3.33,0,0,0,2.32-.85A4.23,4.23,0,0,0,436.94,127.66Z" style="fill:#595959"/><path d="M446.44,130.65l.34,2.09A8.81,8.81,0,0,1,445,133a4,4,0,0,1-2-.41,2.34,2.34,0,0,1-1-1.07,8.57,8.57,0,0,1-.28-2.78v-8H440v-1.83h1.74v-3.45l2.34-1.42v4.87h2.38v1.83h-2.38v8.15a3.91,3.91,0,0,0,.13,1.3,1,1,0,0,0,.4.45,1.53,1.53,0,0,0,.81.17A7.93,7.93,0,0,0,446.44,130.65Z" style="fill:#595959"/><path d="M457.87,132.76v-2a5.1,5.1,0,0,1-4.42,2.36,5.7,5.7,0,0,1-2.3-.47,3.87,3.87,0,0,1-1.59-1.19,4.55,4.55,0,0,1-.72-1.75,11.51,11.51,0,0,1-.15-2.2v-8.63h2.36v7.72a13.18,13.18,0,0,0,.15,2.49,2.46,2.46,0,0,0,.94,1.47,3,3,0,0,0,1.78.53,3.94,3.94,0,0,0,2-.55,2.94,2.94,0,0,0,1.31-1.48,7.35,7.35,0,0,0,.39-2.72v-7.46H460v13.92Z" style="fill:#595959"/><path d="M463.65,132.76V118.84h2.13V121a5.63,5.63,0,0,1,1.5-2,2.58,2.58,0,0,1,1.51-.48,4.66,4.66,0,0,1,2.43.76l-.81,2.19a3.41,3.41,0,0,0-1.73-.51,2.24,2.24,0,0,0-1.39.47,2.44,2.44,0,0,0-.88,1.29,9,9,0,0,0-.4,2.75v7.29Z" style="fill:#595959"/><path d="M481.71,131.05a8.88,8.88,0,0,1-2.53,1.57,7.15,7.15,0,0,1-2.6.46,5.07,5.07,0,0,1-3.53-1.12,3.71,3.71,0,0,1-1.23-2.87,3.85,3.85,0,0,1,.47-1.87,3.78,3.78,0,0,1,1.22-1.35,5.88,5.88,0,0,1,1.7-.78,16.67,16.67,0,0,1,2.09-.35,22.13,22.13,0,0,0,4.21-.81c0-.33,0-.53,0-.62a2.62,2.62,0,0,0-.67-2,3.93,3.93,0,0,0-2.69-.8,4.17,4.17,0,0,0-2.46.58,3.55,3.55,0,0,0-1.17,2.07l-2.31-.32a5.72,5.72,0,0,1,1-2.39,4.52,4.52,0,0,1,2.09-1.4,9.23,9.23,0,0,1,3.16-.5,8.39,8.39,0,0,1,2.9.42,3.79,3.79,0,0,1,1.64,1.06,3.68,3.68,0,0,1,.73,1.61,13,13,0,0,1,.12,2.17v3.15a33.54,33.54,0,0,0,.15,4.16,5.16,5.16,0,0,0,.6,1.67h-2.47A5,5,0,0,1,481.71,131.05Zm-.2-5.27a18.11,18.11,0,0,1-3.85.89,8.67,8.67,0,0,0-2.06.47,2,2,0,0,0-.93.77,2,2,0,0,0-.33,1.12,2,2,0,0,0,.71,1.57,3.1,3.1,0,0,0,2.1.63,4.85,4.85,0,0,0,2.42-.6,3.61,3.61,0,0,0,1.56-1.63,5.59,5.59,0,0,0,.38-2.36Z" style="fill:#595959"/><path d="M488.17,132.76v-2.68h2.69v2.68a4.8,4.8,0,0,1-.52,2.4,3.46,3.46,0,0,1-1.67,1.41l-.65-1a2.28,2.28,0,0,0,1.1-1,4.08,4.08,0,0,0,.39-1.83Z" style="fill:#595959"/><path d="M502.48,132.76V118.84h2.12v2a5,5,0,0,1,4.44-2.3,5.64,5.64,0,0,1,2.31.46,3.64,3.64,0,0,1,1.58,1.18,4.54,4.54,0,0,1,.74,1.75,14.29,14.29,0,0,1,.13,2.29v8.56h-2.36v-8.47a6.36,6.36,0,0,0-.28-2.15,2.22,2.22,0,0,0-1-1.14,3,3,0,0,0-1.64-.43,3.8,3.8,0,0,0-2.6,1c-.73.63-1.1,1.85-1.1,3.63v7.6Z" style="fill:#595959"/><path d="M517.43,116.26v-2.72h2.36v2.72Zm0,16.5V118.84h2.36v13.92Z" style="fill:#595959"/><path d="M539.88,132.76V131a4.34,4.34,0,0,1-3.9,2.07,5.47,5.47,0,0,1-3.06-.92,6,6,0,0,1-2.16-2.56,8.91,8.91,0,0,1-.77-3.79,9.75,9.75,0,0,1,.7-3.78,5.42,5.42,0,0,1,2.08-2.6,5.61,5.61,0,0,1,3.11-.91,4.69,4.69,0,0,1,3.84,1.92v-6.9h2.35v19.22Zm-7.46-6.95a6,6,0,0,0,1.12,4,3.4,3.4,0,0,0,2.67,1.33,3.34,3.34,0,0,0,2.63-1.27,5.83,5.83,0,0,0,1.08-3.86,6.56,6.56,0,0,0-1.1-4.19,3.38,3.38,0,0,0-2.72-1.34,3.29,3.29,0,0,0-2.63,1.28A6.38,6.38,0,0,0,532.42,125.81Z" style="fill:#595959"/><path d="M555.31,128.28l2.44.3a5.93,5.93,0,0,1-2.14,3.32,7.24,7.24,0,0,1-8.83-.7,7.39,7.39,0,0,1-1.79-5.28,7.71,7.71,0,0,1,1.81-5.46,6.15,6.15,0,0,1,4.7-1.94,6,6,0,0,1,4.56,1.91,7.54,7.54,0,0,1,1.77,5.35c0,.13,0,.34,0,.62H547.43a5.36,5.36,0,0,0,1.3,3.52,3.88,3.88,0,0,0,2.91,1.22,3.66,3.66,0,0,0,2.22-.68A4.57,4.57,0,0,0,555.31,128.28Zm-7.75-3.82h7.78a4.72,4.72,0,0,0-.89-2.63,3.64,3.64,0,0,0-2.93-1.37,3.77,3.77,0,0,0-2.73,1.09A4.33,4.33,0,0,0,547.56,124.46Z" style="fill:#595959"/><path d="M561.28,132.76V120.67h-2.09v-1.83h2.09v-1.48a6.41,6.41,0,0,1,.25-2.09,3,3,0,0,1,1.2-1.49,4.3,4.3,0,0,1,2.4-.57,11.44,11.44,0,0,1,2.21.24l-.36,2.06a7.66,7.66,0,0,0-1.39-.13,2.06,2.06,0,0,0-1.52.46,2.44,2.44,0,0,0-.44,1.71v1.29h2.71v1.83h-2.71v12.09Z" style="fill:#595959"/><path d="M568.19,116.26v-2.72h2.36v2.72Zm0,16.5V118.84h2.36v13.92Z" style="fill:#595959"/><path d="M574.14,132.76V118.84h2.13v2a5,5,0,0,1,4.43-2.3A5.64,5.64,0,0,1,583,119a3.58,3.58,0,0,1,1.58,1.18,4.54,4.54,0,0,1,.74,1.75,14.29,14.29,0,0,1,.13,2.29v8.56H583.1v-8.47a6.12,6.12,0,0,0-.28-2.15,2.22,2.22,0,0,0-1-1.14,3,3,0,0,0-1.64-.43,3.8,3.8,0,0,0-2.6,1c-.73.63-1.1,1.85-1.1,3.63v7.6Z" style="fill:#595959"/><path d="M589.09,116.26v-2.72h2.36v2.72Zm0,16.5V118.84h2.36v13.92Z" style="fill:#595959"/><path d="M604.13,127.66l2.32.31a6,6,0,0,1-1.94,3.75,5.66,5.66,0,0,1-3.85,1.36,6,6,0,0,1-4.6-1.87,7.58,7.58,0,0,1-1.74-5.36,9.62,9.62,0,0,1,.75-3.94,5.23,5.23,0,0,1,2.27-2.54,6.82,6.82,0,0,1,3.33-.85,5.81,5.81,0,0,1,3.71,1.15,5.28,5.28,0,0,1,1.85,3.26l-2.3.35a3.74,3.74,0,0,0-1.16-2.11,3,3,0,0,0-2-.71,3.68,3.68,0,0,0-2.9,1.28,6.11,6.11,0,0,0-1.11,4.05,6.33,6.33,0,0,0,1.07,4.08,3.54,3.54,0,0,0,2.81,1.27,3.33,3.33,0,0,0,2.32-.85A4.23,4.23,0,0,0,604.13,127.66Z" style="fill:#595959"/><path d="M608.48,116.26v-2.72h2.36v2.72Zm0,16.5V118.84h2.36v13.92Z" style="fill:#595959"/><path d="M613.56,125.8q0-3.87,2.15-5.73a6.5,6.5,0,0,1,4.38-1.55,6.22,6.22,0,0,1,4.69,1.89,7.12,7.12,0,0,1,1.83,5.2,9.12,9.12,0,0,1-.81,4.22,5.72,5.72,0,0,1-2.35,2.4,6.9,6.9,0,0,1-3.36.85,6.27,6.27,0,0,1-4.73-1.88A7.49,7.49,0,0,1,613.56,125.8Zm2.42,0a5.94,5.94,0,0,0,1.17,4,3.77,3.77,0,0,0,2.94,1.33A3.72,3.72,0,0,0,623,129.8a6.06,6.06,0,0,0,1.17-4.08,5.76,5.76,0,0,0-1.17-3.91,3.9,3.9,0,0,0-5.86,0A5.91,5.91,0,0,0,616,125.8Zm2.8-8.69,1.74-3.67h3.1l-2.89,3.67Z" style="fill:#595959"/><path d="M629.37,132.76V118.84h2.13v2a5,5,0,0,1,4.43-2.3,5.64,5.64,0,0,1,2.31.46,3.58,3.58,0,0,1,1.58,1.18,4.54,4.54,0,0,1,.74,1.75,13.18,13.18,0,0,1,.13,2.29v8.56h-2.36v-8.47a6.12,6.12,0,0,0-.28-2.15,2.24,2.24,0,0,0-1-1.14,3.08,3.08,0,0,0-1.65-.43,3.82,3.82,0,0,0-2.6,1c-.73.63-1.1,1.85-1.1,3.63v7.6Z" style="fill:#595959"/><path d="M156.77,182.87l2.55.65a8.64,8.64,0,0,1-2.88,4.78,8,8,0,0,1-5.08,1.64,9.19,9.19,0,0,1-5.06-1.26,8,8,0,0,1-3-3.67,13,13,0,0,1-1-5.15,11.4,11.4,0,0,1,1.15-5.24,7.9,7.9,0,0,1,3.27-3.4,9.56,9.56,0,0,1,4.66-1.16,7.87,7.87,0,0,1,4.85,1.47,7.67,7.67,0,0,1,2.74,4.13l-2.51.59a5.84,5.84,0,0,0-1.94-3.05,5.14,5.14,0,0,0-3.2-1,6.2,6.2,0,0,0-3.7,1.06,5.62,5.62,0,0,0-2.09,2.85,12.49,12.49,0,0,0,.11,8,5.38,5.38,0,0,0,2.22,2.73,6.29,6.29,0,0,0,3.27.9,5.49,5.49,0,0,0,3.62-1.23A6.28,6.28,0,0,0,156.77,182.87Z" style="fill:#595959"/><path d="M161.27,182.65q0-3.87,2.15-5.73a6.5,6.5,0,0,1,4.38-1.55,6.27,6.27,0,0,1,4.7,1.88,7.19,7.19,0,0,1,1.82,5.2,9.17,9.17,0,0,1-.81,4.23,5.64,5.64,0,0,1-2.35,2.39,6.78,6.78,0,0,1-3.36.86,6.28,6.28,0,0,1-4.73-1.88A7.49,7.49,0,0,1,161.27,182.65Zm2.43,0a6,6,0,0,0,1.16,4A3.77,3.77,0,0,0,167.8,188a3.71,3.71,0,0,0,2.92-1.34,6.06,6.06,0,0,0,1.17-4.08,5.74,5.74,0,0,0-1.17-3.91,3.9,3.9,0,0,0-5.86,0A6,6,0,0,0,163.7,182.65Z" style="fill:#595959"/><path d="M177.09,189.61V175.69h2.12v2a5,5,0,0,1,4.43-2.3,5.89,5.89,0,0,1,2.32.45,3.73,3.73,0,0,1,1.58,1.19,4.69,4.69,0,0,1,.73,1.75,13.18,13.18,0,0,1,.13,2.29v8.56H186v-8.47a6.52,6.52,0,0,0-.27-2.16,2.35,2.35,0,0,0-1-1.14,3.16,3.16,0,0,0-1.65-.42,3.82,3.82,0,0,0-2.6,1c-.73.63-1.09,1.84-1.09,3.63v7.6Z" style="fill:#595959"/><path d="M189,195l.44-2a4.94,4.94,0,0,0,1.12.18,1.23,1.23,0,0,0,1.07-.48,4.77,4.77,0,0,0,.36-2.39V175.69h2.36v14.68a6.92,6.92,0,0,1-.67,3.58,3.11,3.11,0,0,1-2.83,1.31A7.06,7.06,0,0,1,189,195Zm3-21.89v-2.74h2.36v2.74Z" style="fill:#595959"/><path d="M207.11,189.61v-2a5.09,5.09,0,0,1-4.42,2.36,5.73,5.73,0,0,1-2.3-.47,3.77,3.77,0,0,1-1.58-1.19,4.41,4.41,0,0,1-.73-1.75,11.51,11.51,0,0,1-.15-2.2v-8.63h2.37v7.72a13.54,13.54,0,0,0,.14,2.49,2.45,2.45,0,0,0,.94,1.46,2.91,2.91,0,0,0,1.79.54,3.9,3.9,0,0,0,2-.55,3,3,0,0,0,1.32-1.48,7.42,7.42,0,0,0,.38-2.72v-7.46h2.36v13.92Z" style="fill:#595959"/><path d="M212.92,189.61V175.69h2.13v2a5,5,0,0,1,4.43-2.3,5.8,5.8,0,0,1,2.31.45,3.67,3.67,0,0,1,1.58,1.19,4.54,4.54,0,0,1,.74,1.75,13.18,13.18,0,0,1,.13,2.29v8.56h-2.36v-8.47a6.22,6.22,0,0,0-.28-2.16,2.32,2.32,0,0,0-1-1.14,3.16,3.16,0,0,0-1.65-.42,3.82,3.82,0,0,0-2.6,1c-.73.63-1.1,1.84-1.1,3.63v7.6Z" style="fill:#595959"/><path d="M233,187.5l.34,2.09a8.72,8.72,0,0,1-1.78.21,4,4,0,0,1-2-.41,2.24,2.24,0,0,1-1-1.07,8.51,8.51,0,0,1-.29-2.79v-8h-1.73v-1.83h1.73v-3.45l2.35-1.42v4.87H233v1.83h-2.37v8.15a4.2,4.2,0,0,0,.12,1.29,1,1,0,0,0,.41.46,1.53,1.53,0,0,0,.81.17A7.8,7.8,0,0,0,233,187.5Z" style="fill:#595959"/><path d="M234.44,182.65q0-3.87,2.15-5.73a6.5,6.5,0,0,1,4.38-1.55,6.29,6.29,0,0,1,4.7,1.88,7.19,7.19,0,0,1,1.82,5.2,9.17,9.17,0,0,1-.81,4.23,5.64,5.64,0,0,1-2.35,2.39,6.78,6.78,0,0,1-3.36.86,6.28,6.28,0,0,1-4.73-1.88A7.49,7.49,0,0,1,234.44,182.65Zm2.43,0a6,6,0,0,0,1.16,4A3.77,3.77,0,0,0,241,188a3.71,3.71,0,0,0,2.92-1.34,6.06,6.06,0,0,0,1.17-4.08,5.74,5.74,0,0,0-1.17-3.91,3.9,3.9,0,0,0-5.86,0A6,6,0,0,0,236.87,182.65Z" style="fill:#595959"/><path d="M266.75,189.61v-1.75a4.33,4.33,0,0,1-3.89,2.07,5.5,5.5,0,0,1-3.07-.92,6,6,0,0,1-2.16-2.56,8.91,8.91,0,0,1-.77-3.79,9.75,9.75,0,0,1,.7-3.78,5.48,5.48,0,0,1,2.08-2.6,5.55,5.55,0,0,1,3.11-.91,4.62,4.62,0,0,1,3.84,1.92v-6.9h2.35v19.22Zm-7.46-7a6,6,0,0,0,1.13,4,3.38,3.38,0,0,0,2.66,1.33,3.33,3.33,0,0,0,2.63-1.27,5.83,5.83,0,0,0,1.08-3.86,6.6,6.6,0,0,0-1.1-4.2,3.4,3.4,0,0,0-2.72-1.33,3.28,3.28,0,0,0-2.63,1.28A6.38,6.38,0,0,0,259.29,182.66Z" style="fill:#595959"/><path d="M282.18,185.13l2.44.3a5.92,5.92,0,0,1-2.13,3.32,6.47,6.47,0,0,1-4,1.18,6.4,6.4,0,0,1-4.85-1.88,7.39,7.39,0,0,1-1.79-5.28,7.75,7.75,0,0,1,1.81-5.46,6.16,6.16,0,0,1,4.7-1.94,6,6,0,0,1,4.56,1.9,7.56,7.56,0,0,1,1.77,5.35c0,.14,0,.35,0,.63H274.3a5.39,5.39,0,0,0,1.3,3.52,3.88,3.88,0,0,0,2.91,1.22,3.64,3.64,0,0,0,2.22-.68A4.54,4.54,0,0,0,282.18,185.13Zm-7.75-3.82h7.78a4.65,4.65,0,0,0-.89-2.63,3.63,3.63,0,0,0-2.93-1.37,3.77,3.77,0,0,0-2.73,1.09A4.33,4.33,0,0,0,274.43,181.31Z" style="fill:#595959"/><path d="M304.08,189.61v-1.75a4.33,4.33,0,0,1-3.89,2.07,5.47,5.47,0,0,1-3.06-.92,6.07,6.07,0,0,1-2.17-2.56,8.91,8.91,0,0,1-.76-3.79,9.94,9.94,0,0,1,.69-3.78,5.44,5.44,0,0,1,2.09-2.6,5.5,5.5,0,0,1,3.1-.91,4.73,4.73,0,0,1,2.25.53,4.9,4.9,0,0,1,1.6,1.39v-6.9h2.34v19.22Zm-7.46-7a6,6,0,0,0,1.13,4,3.38,3.38,0,0,0,2.66,1.33,3.33,3.33,0,0,0,2.63-1.27,5.83,5.83,0,0,0,1.08-3.86,6.53,6.53,0,0,0-1.1-4.2,3.38,3.38,0,0,0-2.71-1.33,3.25,3.25,0,0,0-2.63,1.28A6.31,6.31,0,0,0,296.62,182.66Z" style="fill:#595959"/><path d="M319.07,187.9a9,9,0,0,1-2.52,1.57,7.24,7.24,0,0,1-2.61.46,5.08,5.08,0,0,1-3.52-1.12,3.7,3.7,0,0,1-1.24-2.87,3.87,3.87,0,0,1,1.69-3.22,5.62,5.62,0,0,1,1.7-.78,16.67,16.67,0,0,1,2.09-.35,22.13,22.13,0,0,0,4.21-.81c0-.33,0-.53,0-.62a2.62,2.62,0,0,0-.67-2,3.91,3.91,0,0,0-2.69-.8,4.17,4.17,0,0,0-2.46.58A3.55,3.55,0,0,0,311.9,180l-2.31-.32a5.54,5.54,0,0,1,1-2.39,4.52,4.52,0,0,1,2.08-1.41,9.49,9.49,0,0,1,3.16-.49,8.35,8.35,0,0,1,2.9.42,3.79,3.79,0,0,1,1.64,1.06,3.7,3.7,0,0,1,.73,1.6,13.18,13.18,0,0,1,.12,2.18v3.15a33.54,33.54,0,0,0,.15,4.16,5.16,5.16,0,0,0,.6,1.67h-2.47A5.11,5.11,0,0,1,319.07,187.9Zm-.2-5.28a17.41,17.41,0,0,1-3.85.9A8.2,8.2,0,0,0,313,184a2.07,2.07,0,0,0-.93.76,2,2,0,0,0-.33,1.13,2,2,0,0,0,.72,1.57,3.05,3.05,0,0,0,2.09.63,4.83,4.83,0,0,0,2.42-.6,3.66,3.66,0,0,0,1.56-1.63,5.59,5.59,0,0,0,.38-2.36Z" style="fill:#595959"/><path d="M330.07,187.5l.34,2.09a8.72,8.72,0,0,1-1.78.21,4,4,0,0,1-2-.41,2.24,2.24,0,0,1-1-1.07,8.51,8.51,0,0,1-.29-2.79v-8h-1.73v-1.83h1.73v-3.45l2.35-1.42v4.87h2.37v1.83H327.7v8.15a4.2,4.2,0,0,0,.12,1.29,1,1,0,0,0,.41.46,1.53,1.53,0,0,0,.81.17A7.8,7.8,0,0,0,330.07,187.5Z" style="fill:#595959"/><path d="M331.5,182.65q0-3.87,2.15-5.73a6.5,6.5,0,0,1,4.38-1.55,6.27,6.27,0,0,1,4.7,1.88,7.19,7.19,0,0,1,1.82,5.2,9.17,9.17,0,0,1-.81,4.23,5.62,5.62,0,0,1-2.34,2.39,6.84,6.84,0,0,1-3.37.86,6.28,6.28,0,0,1-4.73-1.88A7.49,7.49,0,0,1,331.5,182.65Zm2.43,0a6,6,0,0,0,1.16,4,3.89,3.89,0,0,0,5.87,0,6.11,6.11,0,0,0,1.16-4.08,5.74,5.74,0,0,0-1.17-3.91,3.9,3.9,0,0,0-5.86,0A6,6,0,0,0,333.93,182.65Z" style="fill:#595959"/><path d="M346.37,185.46l2.34-.37a3.26,3.26,0,0,0,1.09,2.15,3.82,3.82,0,0,0,2.51.75,3.61,3.61,0,0,0,2.41-.67,2,2,0,0,0,.79-1.55,1.45,1.45,0,0,0-.69-1.26,10.7,10.7,0,0,0-2.42-.8,21.41,21.41,0,0,1-3.6-1.13,3.43,3.43,0,0,1-2-3.19,3.63,3.63,0,0,1,.42-1.73,3.88,3.88,0,0,1,1.16-1.32,5,5,0,0,1,1.5-.69,7.5,7.5,0,0,1,2-.28,8.16,8.16,0,0,1,2.88.47,4,4,0,0,1,1.83,1.28,5.08,5.08,0,0,1,.81,2.16l-2.3.31a2.52,2.52,0,0,0-.92-1.67,3.28,3.28,0,0,0-2.13-.61,3.86,3.86,0,0,0-2.32.54,1.57,1.57,0,0,0-.69,1.26,1.27,1.27,0,0,0,.29.83,2.12,2.12,0,0,0,.9.63c.24.08.93.28,2.09.6a28.77,28.77,0,0,1,3.49,1.09,3.56,3.56,0,0,1,1.55,1.24,3.44,3.44,0,0,1,.57,2,3.93,3.93,0,0,1-.69,2.22,4.42,4.42,0,0,1-2,1.62,7.19,7.19,0,0,1-2.93.57,6.57,6.57,0,0,1-4.14-1.13A5.24,5.24,0,0,1,346.37,185.46Z" style="fill:#595959"/><path d="M377.08,195v-6.82a4.22,4.22,0,0,1-1.54,1.29,4.52,4.52,0,0,1-2.1.51,5.55,5.55,0,0,1-4.27-2,7.81,7.81,0,0,1-1.79-5.43,9.21,9.21,0,0,1,.73-3.76,5.41,5.41,0,0,1,2.11-2.53,5.65,5.65,0,0,1,3-.86,4.67,4.67,0,0,1,4.07,2.18v-1.86h2.12V195Zm-7.28-12.34a6.15,6.15,0,0,0,1.13,4,3.42,3.42,0,0,0,2.7,1.35,3.32,3.32,0,0,0,2.6-1.28,5.86,5.86,0,0,0,1.09-3.89,6.45,6.45,0,0,0-1.15-4.18,3.38,3.38,0,0,0-2.69-1.41,3.27,3.27,0,0,0-2.61,1.31A6.39,6.39,0,0,0,369.8,182.61Z" style="fill:#595959"/><path d="M392.27,189.61v-2a5.12,5.12,0,0,1-4.42,2.36,5.7,5.7,0,0,1-2.3-.47,3.74,3.74,0,0,1-1.59-1.19,4.41,4.41,0,0,1-.73-1.75,12.65,12.65,0,0,1-.14-2.2v-8.63h2.36v7.72a14.54,14.54,0,0,0,.14,2.49,2.46,2.46,0,0,0,1,1.46,2.88,2.88,0,0,0,1.78.54,3.9,3.9,0,0,0,2-.55,3,3,0,0,0,1.32-1.48,7.39,7.39,0,0,0,.39-2.72v-7.46h2.36v13.92Z" style="fill:#595959"/><path d="M407.61,185.13l2.44.3a6,6,0,0,1-2.14,3.32,6.47,6.47,0,0,1-4,1.18,6.38,6.38,0,0,1-4.84-1.88,7.39,7.39,0,0,1-1.79-5.28,7.71,7.71,0,0,1,1.81-5.46,6.12,6.12,0,0,1,4.69-1.94,6,6,0,0,1,4.57,1.9,7.56,7.56,0,0,1,1.77,5.35c0,.14,0,.35,0,.63H399.73a5.39,5.39,0,0,0,1.3,3.52,3.85,3.85,0,0,0,2.91,1.22,3.63,3.63,0,0,0,2.21-.68A4.56,4.56,0,0,0,407.61,185.13Zm-7.75-3.82h7.77a4.65,4.65,0,0,0-.89-2.63,3.61,3.61,0,0,0-2.92-1.37,3.76,3.76,0,0,0-2.73,1.09A4.33,4.33,0,0,0,399.86,181.31Z" style="fill:#595959"/><path d="M429.56,184.51l2.32.3a6,6,0,0,1-1.95,3.76,5.62,5.62,0,0,1-3.84,1.36,6,6,0,0,1-4.6-1.87,7.58,7.58,0,0,1-1.74-5.36,9.62,9.62,0,0,1,.75-3.94,5.23,5.23,0,0,1,2.27-2.54,6.71,6.71,0,0,1,3.33-.85,5.75,5.75,0,0,1,3.71,1.15,5.25,5.25,0,0,1,1.85,3.26l-2.3.35A3.8,3.8,0,0,0,428.2,178a3,3,0,0,0-2-.71,3.67,3.67,0,0,0-2.9,1.28,6.09,6.09,0,0,0-1.11,4,6.33,6.33,0,0,0,1.07,4.08,3.53,3.53,0,0,0,2.81,1.27,3.3,3.3,0,0,0,2.32-.86A4.23,4.23,0,0,0,429.56,184.51Z" style="fill:#595959"/><path d="M443,187.9a9,9,0,0,1-2.53,1.57,7.18,7.18,0,0,1-2.6.46,5.1,5.1,0,0,1-3.53-1.12,3.72,3.72,0,0,1-1.23-2.87,3.85,3.85,0,0,1,.47-1.87,3.78,3.78,0,0,1,1.22-1.35,5.57,5.57,0,0,1,1.69-.78,17.24,17.24,0,0,1,2.1-.35,22.13,22.13,0,0,0,4.21-.81c0-.33,0-.53,0-.62a2.58,2.58,0,0,0-.67-2,3.89,3.89,0,0,0-2.68-.8,4.17,4.17,0,0,0-2.46.58,3.61,3.61,0,0,0-1.18,2.07l-2.3-.32a5.66,5.66,0,0,1,1-2.39,4.56,4.56,0,0,1,2.09-1.41,9.49,9.49,0,0,1,3.16-.49,8.39,8.39,0,0,1,2.9.42,3.86,3.86,0,0,1,1.64,1.06,3.7,3.7,0,0,1,.73,1.6,13.18,13.18,0,0,1,.12,2.18v3.15a33.54,33.54,0,0,0,.15,4.16,5.16,5.16,0,0,0,.6,1.67h-2.47A5.11,5.11,0,0,1,443,187.9Zm-.2-5.28a17.55,17.55,0,0,1-3.85.9,8.2,8.2,0,0,0-2.06.47,2,2,0,0,0-.93.76,2.09,2.09,0,0,0,.38,2.7,3.09,3.09,0,0,0,2.09.63,4.86,4.86,0,0,0,2.43-.6,3.66,3.66,0,0,0,1.56-1.63,5.75,5.75,0,0,0,.38-2.36Z" style="fill:#595959"/><path d="M448.81,189.61V175.69h2.12v2.11a5.92,5.92,0,0,1,1.51-2,2.62,2.62,0,0,1,1.51-.47,4.69,4.69,0,0,1,2.43.76l-.82,2.19a3.35,3.35,0,0,0-1.73-.51,2.26,2.26,0,0,0-1.39.47,2.56,2.56,0,0,0-.88,1.29,9.28,9.28,0,0,0-.39,2.75v7.29Z" style="fill:#595959"/><path d="M467.31,185.13l2.44.3a5.93,5.93,0,0,1-2.14,3.32,6.46,6.46,0,0,1-4,1.18,6.39,6.39,0,0,1-4.85-1.88,7.39,7.39,0,0,1-1.79-5.28,7.71,7.71,0,0,1,1.81-5.46,6.15,6.15,0,0,1,4.7-1.94,6,6,0,0,1,4.56,1.9,7.56,7.56,0,0,1,1.77,5.35c0,.14,0,.35,0,.63H459.43a5.39,5.39,0,0,0,1.3,3.52,3.88,3.88,0,0,0,2.91,1.22,3.66,3.66,0,0,0,2.22-.68A4.62,4.62,0,0,0,467.31,185.13Zm-7.75-3.82h7.78a4.72,4.72,0,0,0-.89-2.63,3.64,3.64,0,0,0-2.93-1.37,3.77,3.77,0,0,0-2.73,1.09A4.33,4.33,0,0,0,459.56,181.31Z" style="fill:#595959"/><path d="M481.8,184.51l2.32.3a6,6,0,0,1-1.94,3.76,5.66,5.66,0,0,1-3.85,1.36,6,6,0,0,1-4.6-1.87A7.58,7.58,0,0,1,472,182.7a9.62,9.62,0,0,1,.75-3.94,5.23,5.23,0,0,1,2.27-2.54,6.71,6.71,0,0,1,3.33-.85,5.75,5.75,0,0,1,3.71,1.15,5.25,5.25,0,0,1,1.85,3.26l-2.3.35a3.74,3.74,0,0,0-1.16-2.11,3,3,0,0,0-2-.71,3.68,3.68,0,0,0-2.9,1.28,6.09,6.09,0,0,0-1.11,4,6.33,6.33,0,0,0,1.07,4.08A3.54,3.54,0,0,0,478.3,188a3.3,3.3,0,0,0,2.32-.86A4.23,4.23,0,0,0,481.8,184.51Z" style="fill:#595959"/><path d="M495.68,185.13l2.43.3a5.92,5.92,0,0,1-2.13,3.32,6.47,6.47,0,0,1-4,1.18,6.4,6.4,0,0,1-4.85-1.88,7.39,7.39,0,0,1-1.79-5.28,7.75,7.75,0,0,1,1.81-5.46,6.16,6.16,0,0,1,4.7-1.94,6,6,0,0,1,4.56,1.9,7.56,7.56,0,0,1,1.77,5.35c0,.14,0,.35,0,.63H487.79a5.39,5.39,0,0,0,1.3,3.52A3.88,3.88,0,0,0,492,188a3.64,3.64,0,0,0,2.22-.68A4.63,4.63,0,0,0,495.68,185.13Zm-7.75-3.82h7.77a4.65,4.65,0,0,0-.89-2.63,3.63,3.63,0,0,0-2.93-1.37,3.77,3.77,0,0,0-2.73,1.09A4.27,4.27,0,0,0,487.93,181.31Z" style="fill:#595959"/><path d="M501.08,189.61V175.69h2.12v2a5,5,0,0,1,4.43-2.3,5.89,5.89,0,0,1,2.32.45,3.73,3.73,0,0,1,1.58,1.19,4.53,4.53,0,0,1,.73,1.75,13.18,13.18,0,0,1,.13,2.29v8.56H510v-8.47a6.52,6.52,0,0,0-.27-2.16,2.35,2.35,0,0,0-1-1.14,3.16,3.16,0,0,0-1.65-.42,3.82,3.82,0,0,0-2.6,1c-.73.63-1.09,1.84-1.09,3.63v7.6Z" style="fill:#595959"/><path d="M532.51,189.61v-1.75a4.33,4.33,0,0,1-3.9,2.07,5.47,5.47,0,0,1-3.06-.92,6,6,0,0,1-2.16-2.56,8.91,8.91,0,0,1-.77-3.79,9.75,9.75,0,0,1,.7-3.78,5.42,5.42,0,0,1,2.08-2.6,5.53,5.53,0,0,1,3.11-.91,4.62,4.62,0,0,1,3.84,1.92v-6.9h2.35v19.22Zm-7.46-7a6,6,0,0,0,1.13,4,3.34,3.34,0,0,0,5.29.06,5.83,5.83,0,0,0,1.08-3.86,6.6,6.6,0,0,0-1.1-4.2,3.4,3.4,0,0,0-2.72-1.33,3.26,3.26,0,0,0-2.63,1.28A6.38,6.38,0,0,0,525.05,182.66Z" style="fill:#595959"/><path d="M547.94,185.13l2.44.3a5.93,5.93,0,0,1-2.14,3.32,7.24,7.24,0,0,1-8.83-.7,7.39,7.39,0,0,1-1.79-5.28,7.75,7.75,0,0,1,1.81-5.46,6.15,6.15,0,0,1,4.7-1.94,6,6,0,0,1,4.56,1.9,7.56,7.56,0,0,1,1.77,5.35c0,.14,0,.35,0,.63H540.06a5.39,5.39,0,0,0,1.3,3.52,3.88,3.88,0,0,0,2.91,1.22,3.66,3.66,0,0,0,2.22-.68A4.62,4.62,0,0,0,547.94,185.13Zm-7.75-3.82H548a4.72,4.72,0,0,0-.89-2.63,3.64,3.64,0,0,0-2.93-1.37,3.77,3.77,0,0,0-2.73,1.09A4.33,4.33,0,0,0,540.19,181.31Z" style="fill:#595959"/><path d="M141.81,217.68l2.34-.36a3.26,3.26,0,0,0,1.09,2.15,3.87,3.87,0,0,0,2.51.74,3.67,3.67,0,0,0,2.41-.66A2,2,0,0,0,151,218a1.42,1.42,0,0,0-.69-1.26,10.19,10.19,0,0,0-2.42-.8,22.16,22.16,0,0,1-3.6-1.14,3.58,3.58,0,0,1-1.61-4.91,3.88,3.88,0,0,1,1.16-1.32,5,5,0,0,1,1.5-.69,7.13,7.13,0,0,1,2-.28,8.16,8.16,0,0,1,2.88.47,3.9,3.9,0,0,1,1.83,1.28,5.08,5.08,0,0,1,.81,2.16l-2.3.31a2.52,2.52,0,0,0-.92-1.68,3.33,3.33,0,0,0-2.13-.6,3.84,3.84,0,0,0-2.32.54,1.57,1.57,0,0,0-.69,1.26,1.25,1.25,0,0,0,.29.82,2,2,0,0,0,.9.63c.24.09.93.29,2.08.61a29.09,29.09,0,0,1,3.5,1.09,3.49,3.49,0,0,1,1.55,1.24,3.42,3.42,0,0,1,.57,2,4,4,0,0,1-.69,2.22,4.4,4.4,0,0,1-2,1.61,7.21,7.21,0,0,1-2.94.57,6.55,6.55,0,0,1-4.13-1.12A5.24,5.24,0,0,1,141.81,217.68Z" style="fill:#595959"/><path d="M156.2,205.33v-2.71h2.36v2.71Zm0,16.51V207.91h2.36v13.93Z" style="fill:#595959"/><path d="M161.72,223l2.29.34a2.19,2.19,0,0,0,.8,1.55,3.93,3.93,0,0,0,2.4.66,4.19,4.19,0,0,0,2.53-.66,3.22,3.22,0,0,0,1.21-1.83,15.17,15.17,0,0,0,.17-3,4.87,4.87,0,0,1-3.86,1.82,5.25,5.25,0,0,1-4.44-2.07,8,8,0,0,1-1.58-5,9.09,9.09,0,0,1,.73-3.68,5.72,5.72,0,0,1,2.09-2.6,5.57,5.57,0,0,1,3.22-.92,5,5,0,0,1,4.06,2v-1.68h2.18v12a11.43,11.43,0,0,1-.66,4.61,4.82,4.82,0,0,1-2.1,2.14,7.24,7.24,0,0,1-3.54.79,6.62,6.62,0,0,1-4-1.12A3.79,3.79,0,0,1,161.72,223Zm1.95-8.36a6,6,0,0,0,1.09,4,3.58,3.58,0,0,0,5.45,0,5.79,5.79,0,0,0,1.11-3.92,5.7,5.7,0,0,0-1.14-3.86,3.52,3.52,0,0,0-2.73-1.3,3.43,3.43,0,0,0-2.68,1.28A5.71,5.71,0,0,0,163.67,214.63Z" style="fill:#595959"/><path d="M177.09,221.84V207.91h2.12v2a5,5,0,0,1,4.43-2.29,5.89,5.89,0,0,1,2.32.45,3.65,3.65,0,0,1,1.58,1.19,4.71,4.71,0,0,1,.73,1.74,13.31,13.31,0,0,1,.13,2.3v8.56H186v-8.47a6.52,6.52,0,0,0-.27-2.16,2.3,2.3,0,0,0-1-1.14,3.17,3.17,0,0,0-1.65-.43,3.82,3.82,0,0,0-2.6,1c-.73.64-1.09,1.85-1.09,3.63v7.61Z" style="fill:#595959"/><path d="M192,205.33v-2.71h2.36v2.71Zm0,16.51V207.91h2.36v13.93Z" style="fill:#595959"/><path d="M198.55,221.84V209.75h-2.08v-1.84h2.08v-1.48a6.34,6.34,0,0,1,.25-2.08,3,3,0,0,1,1.2-1.49,4.32,4.32,0,0,1,2.41-.57,12.2,12.2,0,0,1,2.2.23l-.35,2.06a8.77,8.77,0,0,0-1.39-.13,2.12,2.12,0,0,0-1.53.46,2.54,2.54,0,0,0-.44,1.72v1.28h2.71v1.84H200.9v12.09Z" style="fill:#595959"/><path d="M205.46,205.33v-2.71h2.36v2.71Zm0,16.51V207.91h2.36v13.93Z" style="fill:#595959"/><path d="M220.5,216.74l2.32.3a6,6,0,0,1-1.94,3.76,5.71,5.71,0,0,1-3.85,1.35,6,6,0,0,1-4.6-1.86,7.6,7.6,0,0,1-1.74-5.36,9.7,9.7,0,0,1,.75-4,5.24,5.24,0,0,1,2.28-2.54,6.74,6.74,0,0,1,3.32-.84,5.75,5.75,0,0,1,3.71,1.15A5.25,5.25,0,0,1,222.6,212l-2.29.36a3.77,3.77,0,0,0-1.17-2.11,3,3,0,0,0-2-.71,3.68,3.68,0,0,0-2.9,1.28,6.08,6.08,0,0,0-1.11,4,6.33,6.33,0,0,0,1.07,4.08,3.51,3.51,0,0,0,2.81,1.27,3.29,3.29,0,0,0,2.32-.85A4.2,4.2,0,0,0,220.5,216.74Z" style="fill:#595959"/><path d="M233.93,220.12a8.79,8.79,0,0,1-2.53,1.57,7.15,7.15,0,0,1-2.6.46,5.07,5.07,0,0,1-3.53-1.12,3.69,3.69,0,0,1-1.23-2.86,3.82,3.82,0,0,1,.47-1.87,3.73,3.73,0,0,1,1.22-1.36,5.61,5.61,0,0,1,1.7-.77,18.3,18.3,0,0,1,2.09-.36,20.64,20.64,0,0,0,4.21-.81c0-.32,0-.53,0-.61a2.64,2.64,0,0,0-.67-2,4,4,0,0,0-2.69-.8,4.16,4.16,0,0,0-2.46.59,3.52,3.52,0,0,0-1.17,2.06l-2.31-.31a5.76,5.76,0,0,1,1-2.4,4.68,4.68,0,0,1,2.09-1.4,9.24,9.24,0,0,1,3.16-.49,8.39,8.39,0,0,1,2.9.42,3.88,3.88,0,0,1,1.64,1,3.74,3.74,0,0,1,.73,1.61,13.09,13.09,0,0,1,.12,2.18V216a33.64,33.64,0,0,0,.15,4.17,5.16,5.16,0,0,0,.6,1.67H234.4A5.1,5.1,0,0,1,233.93,220.12Zm-.2-5.27a17,17,0,0,1-3.85.89,9.21,9.21,0,0,0-2.06.47,2.15,2.15,0,0,0-.93.77,2,2,0,0,0-.33,1.12,2,2,0,0,0,.71,1.58,3.1,3.1,0,0,0,2.1.63,4.85,4.85,0,0,0,2.42-.6,3.66,3.66,0,0,0,1.56-1.63,5.62,5.62,0,0,0,.38-2.36Z" style="fill:#595959"/><path d="M248.81,221.84v-1.76a4.33,4.33,0,0,1-3.89,2.07,5.46,5.46,0,0,1-3.06-.91,6.1,6.1,0,0,1-2.17-2.57,8.83,8.83,0,0,1-.76-3.78,9.94,9.94,0,0,1,.69-3.78,5.47,5.47,0,0,1,2.09-2.61,5.57,5.57,0,0,1,3.1-.9,4.66,4.66,0,0,1,2.24.53,4.57,4.57,0,0,1,1.6,1.38v-6.89H251v19.22Zm-7.46-7a6.06,6.06,0,0,0,1.13,4,3.4,3.4,0,0,0,2.66,1.32,3.35,3.35,0,0,0,2.63-1.26,5.85,5.85,0,0,0,1.08-3.86,6.58,6.58,0,0,0-1.1-4.2,3.39,3.39,0,0,0-2.71-1.34,3.26,3.26,0,0,0-2.63,1.29A6.29,6.29,0,0,0,241.35,214.89Z" style="fill:#595959"/><path d="M253.83,214.88q0-3.87,2.15-5.73a6.45,6.45,0,0,1,4.38-1.55,6.27,6.27,0,0,1,4.7,1.88,7.18,7.18,0,0,1,1.82,5.2,9.34,9.34,0,0,1-.8,4.23,5.7,5.7,0,0,1-2.35,2.39,6.83,6.83,0,0,1-3.37.85,6.25,6.25,0,0,1-4.72-1.87A7.45,7.45,0,0,1,253.83,214.88Zm2.43,0a5.9,5.9,0,0,0,1.17,4,3.89,3.89,0,0,0,5.86,0,6.09,6.09,0,0,0,1.17-4.08,5.79,5.79,0,0,0-1.18-3.92,3.88,3.88,0,0,0-5.85,0A5.88,5.88,0,0,0,256.26,214.88Z" style="fill:#595959"/><path d="M276.23,214.88q0-3.87,2.15-5.73a6.45,6.45,0,0,1,4.38-1.55,6.27,6.27,0,0,1,4.7,1.88,7.18,7.18,0,0,1,1.82,5.2,9.2,9.2,0,0,1-.81,4.23,5.73,5.73,0,0,1-2.34,2.39,6.83,6.83,0,0,1-3.37.85,6.27,6.27,0,0,1-4.73-1.87A7.49,7.49,0,0,1,276.23,214.88Zm2.43,0a6,6,0,0,0,1.16,4,3.9,3.9,0,0,0,5.87,0,6.15,6.15,0,0,0,1.16-4.08,5.79,5.79,0,0,0-1.17-3.92,3.89,3.89,0,0,0-5.86,0A5.93,5.93,0,0,0,278.66,214.88Z" style="fill:#595959"/><path d="M308.59,216.74l2.33.3A6.1,6.1,0,0,1,309,220.8a5.71,5.71,0,0,1-3.85,1.35,6,6,0,0,1-4.6-1.86,7.6,7.6,0,0,1-1.73-5.36,9.7,9.7,0,0,1,.74-4,5.24,5.24,0,0,1,2.28-2.54,6.77,6.77,0,0,1,3.32-.84,5.75,5.75,0,0,1,3.71,1.15,5.25,5.25,0,0,1,1.85,3.25l-2.29.36a3.82,3.82,0,0,0-1.16-2.11,3,3,0,0,0-2-.71,3.66,3.66,0,0,0-2.89,1.28,6,6,0,0,0-1.12,4,6.26,6.26,0,0,0,1.08,4.08,3.48,3.48,0,0,0,2.8,1.27,3.29,3.29,0,0,0,2.32-.85A4.2,4.2,0,0,0,308.59,216.74Z" style="fill:#595959"/><path d="M312.06,214.88c0-2.58.71-4.49,2.15-5.73a6.41,6.41,0,0,1,4.38-1.55,6.25,6.25,0,0,1,4.69,1.88,7.13,7.13,0,0,1,1.82,5.2,9.34,9.34,0,0,1-.8,4.23A5.7,5.7,0,0,1,322,221.3a6.82,6.82,0,0,1-3.36.85,6.26,6.26,0,0,1-4.73-1.87A7.49,7.49,0,0,1,312.06,214.88Zm2.42,0a5.9,5.9,0,0,0,1.17,4,3.89,3.89,0,0,0,5.86,0,6.09,6.09,0,0,0,1.17-4.08,5.74,5.74,0,0,0-1.18-3.92,3.88,3.88,0,0,0-5.85,0A5.88,5.88,0,0,0,314.48,214.88Z" style="fill:#595959"/><path d="M327.87,221.84V207.91H330v2a5.1,5.1,0,0,1,1.74-1.65,5,5,0,0,1,2.48-.62,4.58,4.58,0,0,1,2.54.64,3.45,3.45,0,0,1,1.4,1.8,5,5,0,0,1,4.3-2.44,4.24,4.24,0,0,1,3.19,1.15,4.9,4.9,0,0,1,1.11,3.53v9.56h-2.35v-8.77a6.21,6.21,0,0,0-.23-2,1.93,1.93,0,0,0-.83-1,2.54,2.54,0,0,0-1.42-.39,3.31,3.31,0,0,0-2.44,1,4.34,4.34,0,0,0-1,3.13v8.09h-2.36v-9.05a4,4,0,0,0-.57-2.36,2.21,2.21,0,0,0-1.89-.79,3.4,3.4,0,0,0-1.84.53,2.94,2.94,0,0,0-1.23,1.53,8.78,8.78,0,0,0-.38,2.91v7.23Z" style="fill:#595959"/><path d="M350.24,227.18V207.91h2.15v1.81a5.35,5.35,0,0,1,1.72-1.59,4.76,4.76,0,0,1,2.32-.53,5.45,5.45,0,0,1,3.15.92,5.55,5.55,0,0,1,2.05,2.59,10,10,0,0,1-.07,7.51,5.83,5.83,0,0,1-5.3,3.53,4.48,4.48,0,0,1-2.12-.49,5.06,5.06,0,0,1-1.54-1.26v6.78ZM352.38,215a6,6,0,0,0,1.09,4,3.34,3.34,0,0,0,2.63,1.28,3.42,3.42,0,0,0,2.7-1.33,6.34,6.34,0,0,0,1.12-4.12,6.15,6.15,0,0,0-1.1-4,3.29,3.29,0,0,0-2.61-1.32,3.39,3.39,0,0,0-2.67,1.41A6.26,6.26,0,0,0,352.38,215Z" style="fill:#595959"/><path d="M365.12,221.84V202.62h2.36v19.22Z" style="fill:#595959"/><path d="M380.68,217.36l2.43.3A5.89,5.89,0,0,1,381,221a7.26,7.26,0,0,1-8.84-.7,7.36,7.36,0,0,1-1.79-5.28,7.71,7.71,0,0,1,1.81-5.45,6.16,6.16,0,0,1,4.7-1.94,5.94,5.94,0,0,1,4.56,1.9,7.56,7.56,0,0,1,1.77,5.35c0,.14,0,.35,0,.63H372.79a5.34,5.34,0,0,0,1.3,3.51,3.84,3.84,0,0,0,2.91,1.22,3.57,3.57,0,0,0,2.22-.68A4.54,4.54,0,0,0,380.68,217.36Zm-7.75-3.82h7.77a4.71,4.71,0,0,0-.89-2.64,3.62,3.62,0,0,0-2.93-1.36,3.73,3.73,0,0,0-2.73,1.09A4.23,4.23,0,0,0,372.93,213.54Z" style="fill:#595959"/><path d="M391.23,219.73l.34,2.08a8.72,8.72,0,0,1-1.78.21,4,4,0,0,1-2-.4,2.24,2.24,0,0,1-1-1.07,8.51,8.51,0,0,1-.29-2.79v-8h-1.73v-1.84h1.73v-3.44l2.35-1.42v4.86h2.37v1.84h-2.37v8.14a4.24,4.24,0,0,0,.12,1.3,1,1,0,0,0,.41.46,1.59,1.59,0,0,0,.8.17A7.8,7.8,0,0,0,391.23,219.73Z" style="fill:#595959"/><path d="M393.55,205.33v-2.71h2.36v2.71Zm0,16.51V207.91h2.36v13.93Z" style="fill:#595959"/><path d="M404.66,219.73l.34,2.08a8.8,8.8,0,0,1-1.78.21,4.07,4.07,0,0,1-2-.4,2.26,2.26,0,0,1-1-1.07,8.23,8.23,0,0,1-.29-2.79v-8h-1.73v-1.84h1.73v-3.44l2.34-1.42v4.86h2.38v1.84h-2.38v8.14a4.12,4.12,0,0,0,.13,1.3,1,1,0,0,0,.41.46,1.56,1.56,0,0,0,.8.17A7.93,7.93,0,0,0,404.66,219.73Z" style="fill:#595959"/><path d="M416.09,221.84v-2.05a5.07,5.07,0,0,1-4.42,2.36,5.54,5.54,0,0,1-2.3-.47,3.75,3.75,0,0,1-1.58-1.18,4.39,4.39,0,0,1-.73-1.76,11.44,11.44,0,0,1-.15-2.2v-8.63h2.36v7.73a13.26,13.26,0,0,0,.15,2.49,2.45,2.45,0,0,0,.94,1.46,3,3,0,0,0,1.79.53,3.92,3.92,0,0,0,2-.54,3.09,3.09,0,0,0,1.32-1.48,7.7,7.7,0,0,0,.38-2.73v-7.46h2.36v13.93Z" style="fill:#595959"/><path d="M430.94,221.84v-1.76a4.34,4.34,0,0,1-3.9,2.07,5.46,5.46,0,0,1-3.06-.91,6.08,6.08,0,0,1-2.16-2.57,8.68,8.68,0,0,1-.77-3.78,9.94,9.94,0,0,1,.69-3.78,5.52,5.52,0,0,1,2.09-2.61,5.6,5.6,0,0,1,3.11-.9,4.65,4.65,0,0,1,3.84,1.91v-6.89h2.35v19.22Zm-7.47-7a6.06,6.06,0,0,0,1.13,4,3.4,3.4,0,0,0,2.66,1.32,3.33,3.33,0,0,0,2.63-1.26,5.85,5.85,0,0,0,1.09-3.86,6.51,6.51,0,0,0-1.11-4.2,3.39,3.39,0,0,0-2.71-1.34,3.26,3.26,0,0,0-2.63,1.29A6.35,6.35,0,0,0,423.47,214.89Z" style="fill:#595959"/><path d="M156.77,252l2.55.64a8.64,8.64,0,0,1-2.88,4.78,7.93,7.93,0,0,1-5.08,1.65,9.19,9.19,0,0,1-5.06-1.27,8,8,0,0,1-3-3.66,13.05,13.05,0,0,1-1-5.16,11.4,11.4,0,0,1,1.15-5.24,7.82,7.82,0,0,1,3.27-3.39,9.45,9.45,0,0,1,4.66-1.16,7.93,7.93,0,0,1,4.85,1.46,7.66,7.66,0,0,1,2.74,4.14l-2.51.59a5.91,5.91,0,0,0-1.94-3.06,5.14,5.14,0,0,0-3.2-1,6.2,6.2,0,0,0-3.7,1.07,5.54,5.54,0,0,0-2.09,2.85,11.5,11.5,0,0,0-.6,3.69,11.67,11.67,0,0,0,.71,4.28,5.34,5.34,0,0,0,2.22,2.73,6.21,6.21,0,0,0,3.27.91,5.49,5.49,0,0,0,3.62-1.23A6.35,6.35,0,0,0,156.77,252Z" style="fill:#595959"/><path d="M161.27,251.73q0-3.85,2.15-5.73a6.49,6.49,0,0,1,4.38-1.54,6.24,6.24,0,0,1,4.7,1.88,7.18,7.18,0,0,1,1.82,5.2,9.2,9.2,0,0,1-.81,4.23,5.76,5.76,0,0,1-2.35,2.39,6.77,6.77,0,0,1-3.36.85,6.27,6.27,0,0,1-4.73-1.87A7.5,7.5,0,0,1,161.27,251.73Zm2.43,0a6,6,0,0,0,1.16,4,3.74,3.74,0,0,0,2.94,1.33,3.68,3.68,0,0,0,2.92-1.34,6,6,0,0,0,1.17-4.07,5.77,5.77,0,0,0-1.17-3.92,3.89,3.89,0,0,0-5.86,0A5.92,5.92,0,0,0,163.7,251.73Z" style="fill:#595959"/><path d="M177.09,258.7V244.77h2.12v2a5,5,0,0,1,4.43-2.29,5.89,5.89,0,0,1,2.32.45,3.65,3.65,0,0,1,1.58,1.19,4.71,4.71,0,0,1,.73,1.74,13.31,13.31,0,0,1,.13,2.3v8.56H186v-8.47a6.52,6.52,0,0,0-.27-2.16,2.26,2.26,0,0,0-1-1.14,3.17,3.17,0,0,0-1.65-.43,3.82,3.82,0,0,0-2.6,1c-.73.64-1.09,1.85-1.09,3.63v7.61Z" style="fill:#595959"/><path d="M197.17,256.59l.34,2.08a8.64,8.64,0,0,1-1.78.21,4,4,0,0,1-2-.4,2.33,2.33,0,0,1-1-1.07,8.55,8.55,0,0,1-.29-2.79v-8h-1.73v-1.84h1.73v-3.45l2.35-1.41v4.86h2.37v1.84H194.8v8.14a3.87,3.87,0,0,0,.13,1.3,1,1,0,0,0,.4.46,1.63,1.63,0,0,0,.81.17A7.67,7.67,0,0,0,197.17,256.59Z" style="fill:#595959"/><path d="M209,254.21l2.43.31a5.89,5.89,0,0,1-2.13,3.31,6.41,6.41,0,0,1-4,1.18,6.33,6.33,0,0,1-4.84-1.88,7.31,7.31,0,0,1-1.79-5.28,7.66,7.66,0,0,1,1.81-5.45,6.09,6.09,0,0,1,4.69-1.94,5.94,5.94,0,0,1,4.56,1.9,7.56,7.56,0,0,1,1.77,5.35c0,.14,0,.35,0,.63H201.13a5.34,5.34,0,0,0,1.3,3.51,3.84,3.84,0,0,0,2.91,1.22,3.64,3.64,0,0,0,2.22-.68A4.53,4.53,0,0,0,209,254.21Zm-7.75-3.81H209a4.71,4.71,0,0,0-.89-2.64,3.61,3.61,0,0,0-2.92-1.36,3.74,3.74,0,0,0-2.74,1.09A4.23,4.23,0,0,0,201.27,250.4Z" style="fill:#595959"/><path d="M214.42,258.7V244.77h2.12v2a5,5,0,0,1,4.43-2.29,5.89,5.89,0,0,1,2.32.45,3.65,3.65,0,0,1,1.58,1.19,4.55,4.55,0,0,1,.73,1.74,13.31,13.31,0,0,1,.13,2.3v8.56h-2.36v-8.47a6.52,6.52,0,0,0-.27-2.16,2.26,2.26,0,0,0-1-1.14,3.17,3.17,0,0,0-1.65-.43,3.82,3.82,0,0,0-2.6,1c-.73.64-1.09,1.85-1.09,3.63v7.61Z" style="fill:#595959"/><path d="M229.37,242.19v-2.72h2.36v2.72Zm0,16.51V244.77h2.36V258.7Z" style="fill:#595959"/><path d="M244.35,258.7v-1.76a4.33,4.33,0,0,1-3.89,2.07,5.39,5.39,0,0,1-3.06-.92,6.08,6.08,0,0,1-2.17-2.56,8.89,8.89,0,0,1-.76-3.78,9.94,9.94,0,0,1,.69-3.78,5.44,5.44,0,0,1,5.19-3.51,4.65,4.65,0,0,1,3.85,1.91v-6.9h2.34V258.7Zm-7.46-6.95a6.08,6.08,0,0,0,1.13,4,3.4,3.4,0,0,0,2.66,1.32,3.35,3.35,0,0,0,2.63-1.26,5.86,5.86,0,0,0,1.08-3.87,6.5,6.5,0,0,0-1.1-4.19,3.39,3.39,0,0,0-2.71-1.34A3.26,3.26,0,0,0,238,247.7,6.27,6.27,0,0,0,236.89,251.75Z" style="fill:#595959"/><path d="M249.38,251.73c0-2.57.71-4.48,2.15-5.73a6.46,6.46,0,0,1,4.38-1.54,6.22,6.22,0,0,1,4.69,1.88,7.13,7.13,0,0,1,1.82,5.2,9.34,9.34,0,0,1-.8,4.23,5.76,5.76,0,0,1-2.35,2.39,6.82,6.82,0,0,1-3.36.85,6.26,6.26,0,0,1-4.73-1.87A7.5,7.5,0,0,1,249.38,251.73Zm2.42,0a5.93,5.93,0,0,0,1.17,4,3.74,3.74,0,0,0,2.94,1.33,3.69,3.69,0,0,0,2.92-1.34,6,6,0,0,0,1.17-4.07,5.72,5.72,0,0,0-1.18-3.92,3.88,3.88,0,0,0-5.85,0A5.87,5.87,0,0,0,251.8,251.73Z" style="fill:#595959"/><path d="M281.53,264v-6.81A4.28,4.28,0,0,1,280,258.5a4.53,4.53,0,0,1-2.11.51,5.55,5.55,0,0,1-4.26-2,7.77,7.77,0,0,1-1.79-5.43,9.41,9.41,0,0,1,.72-3.76,5.45,5.45,0,0,1,2.11-2.52,5.62,5.62,0,0,1,3-.86,4.65,4.65,0,0,1,4.06,2.17v-1.86h2.13V264Zm-7.28-12.33a6.17,6.17,0,0,0,1.13,4,3.43,3.43,0,0,0,2.7,1.34,3.29,3.29,0,0,0,2.6-1.28,5.89,5.89,0,0,0,1.08-3.88,6.54,6.54,0,0,0-1.14-4.19,3.43,3.43,0,0,0-2.7-1.4,3.24,3.24,0,0,0-2.6,1.3A6.4,6.4,0,0,0,274.25,251.7Z" style="fill:#595959"/><path d="M296.71,258.7v-2.05a5.07,5.07,0,0,1-4.42,2.36,5.57,5.57,0,0,1-2.3-.47,3.69,3.69,0,0,1-1.58-1.19,4.35,4.35,0,0,1-.73-1.75,11.44,11.44,0,0,1-.15-2.2v-8.63h2.36v7.73A13.26,13.26,0,0,0,290,255a2.45,2.45,0,0,0,.94,1.46,3,3,0,0,0,1.79.53,3.92,3.92,0,0,0,2-.54,3.07,3.07,0,0,0,1.32-1.49,7.38,7.38,0,0,0,.38-2.72v-7.46h2.36V258.7Z" style="fill:#595959"/><path d="M312.06,254.21l2.43.31a5.89,5.89,0,0,1-2.13,3.31,6.41,6.41,0,0,1-4,1.18,6.33,6.33,0,0,1-4.84-1.88,7.31,7.31,0,0,1-1.79-5.28,7.66,7.66,0,0,1,1.81-5.45,6.09,6.09,0,0,1,4.69-1.94,5.94,5.94,0,0,1,4.56,1.9,7.56,7.56,0,0,1,1.77,5.35c0,.14,0,.35,0,.63H304.18a5.28,5.28,0,0,0,1.29,3.51,3.84,3.84,0,0,0,2.91,1.22,3.64,3.64,0,0,0,2.22-.68A4.53,4.53,0,0,0,312.06,254.21Zm-7.75-3.81h7.77a4.71,4.71,0,0,0-.89-2.64,3.61,3.61,0,0,0-2.92-1.36,3.74,3.74,0,0,0-2.74,1.09A4.23,4.23,0,0,0,304.31,250.4Z" style="fill:#595959"/><path d="M334,253.6l2.32.3a6.1,6.1,0,0,1-1.95,3.76,5.69,5.69,0,0,1-3.85,1.35,6,6,0,0,1-4.6-1.87,7.6,7.6,0,0,1-1.73-5.35,9.67,9.67,0,0,1,.75-3.95,5.18,5.18,0,0,1,2.27-2.54,6.8,6.8,0,0,1,3.32-.84,5.78,5.78,0,0,1,3.72,1.15,5.24,5.24,0,0,1,1.84,3.25l-2.29.36a3.82,3.82,0,0,0-1.16-2.11,3,3,0,0,0-2-.71,3.64,3.64,0,0,0-2.9,1.28,6.07,6.07,0,0,0-1.12,4,6.26,6.26,0,0,0,1.08,4.08,3.5,3.5,0,0,0,2.81,1.27,3.31,3.31,0,0,0,2.32-.85A4.25,4.25,0,0,0,334,253.6Z" style="fill:#595959"/><path d="M347.43,257a8.62,8.62,0,0,1-2.52,1.57,7.22,7.22,0,0,1-2.6.46,5.05,5.05,0,0,1-3.53-1.12,3.7,3.7,0,0,1-1.23-2.86,3.78,3.78,0,0,1,.46-1.87,3.83,3.83,0,0,1,1.22-1.36,5.61,5.61,0,0,1,1.7-.77,16.2,16.2,0,0,1,2.1-.36,21.52,21.52,0,0,0,4.21-.81c0-.32,0-.53,0-.62a2.58,2.58,0,0,0-.67-2,4,4,0,0,0-2.69-.8,4.25,4.25,0,0,0-2.46.58,3.6,3.6,0,0,0-1.17,2.07l-2.31-.32a5.78,5.78,0,0,1,1-2.39,4.56,4.56,0,0,1,2.08-1.4,9.28,9.28,0,0,1,3.16-.49,8.35,8.35,0,0,1,2.9.42,3.81,3.81,0,0,1,1.64,1.05,3.75,3.75,0,0,1,.74,1.61,14.73,14.73,0,0,1,.11,2.18v3.14a33.75,33.75,0,0,0,.15,4.17,5.49,5.49,0,0,0,.6,1.67h-2.46A4.88,4.88,0,0,1,347.43,257Zm-.19-5.27a17.2,17.2,0,0,1-3.86.89,9.21,9.21,0,0,0-2.06.47,2.09,2.09,0,0,0-.93.77,2.07,2.07,0,0,0,.39,2.69,3.07,3.07,0,0,0,2.09.63,5,5,0,0,0,2.43-.59,3.74,3.74,0,0,0,1.56-1.64,5.75,5.75,0,0,0,.38-2.36Z" style="fill:#595959"/><path d="M353.26,258.7V244.77h2.12v2.11a5.73,5.73,0,0,1,1.5-1.95,2.6,2.6,0,0,1,1.52-.47,4.57,4.57,0,0,1,2.42.76l-.81,2.19a3.41,3.41,0,0,0-1.73-.51,2.23,2.23,0,0,0-1.39.46,2.5,2.5,0,0,0-.88,1.29,9.3,9.3,0,0,0-.39,2.76v7.29Z" style="fill:#595959"/><path d="M371.76,254.21l2.44.31a6,6,0,0,1-2.14,3.31,6.41,6.41,0,0,1-4,1.18,6.34,6.34,0,0,1-4.84-1.88,7.36,7.36,0,0,1-1.79-5.28,7.66,7.66,0,0,1,1.81-5.45,6.09,6.09,0,0,1,4.69-1.94,6,6,0,0,1,4.57,1.9,7.56,7.56,0,0,1,1.77,5.35c0,.14,0,.35,0,.63H363.88a5.34,5.34,0,0,0,1.3,3.51,3.81,3.81,0,0,0,2.91,1.22,3.63,3.63,0,0,0,2.21-.68A4.46,4.46,0,0,0,371.76,254.21ZM364,250.4h7.77a4.71,4.71,0,0,0-.89-2.64A3.6,3.6,0,0,0,368,246.4a3.74,3.74,0,0,0-2.74,1.09A4.33,4.33,0,0,0,364,250.4Z" style="fill:#595959"/><path d="M386.25,253.6l2.32.3a6,6,0,0,1-1.95,3.76,5.69,5.69,0,0,1-3.85,1.35,6,6,0,0,1-4.59-1.87,7.56,7.56,0,0,1-1.74-5.35,9.67,9.67,0,0,1,.75-3.95,5.23,5.23,0,0,1,2.27-2.54,6.81,6.81,0,0,1,3.33-.84,5.75,5.75,0,0,1,3.71,1.15,5.25,5.25,0,0,1,1.85,3.25l-2.3.36a3.76,3.76,0,0,0-1.16-2.11,2.94,2.94,0,0,0-2-.71,3.64,3.64,0,0,0-2.9,1.28,6.08,6.08,0,0,0-1.11,4,6.27,6.27,0,0,0,1.07,4.08,3.5,3.5,0,0,0,2.81,1.27,3.31,3.31,0,0,0,2.32-.85A4.25,4.25,0,0,0,386.25,253.6Z" style="fill:#595959"/><path d="M400.12,254.21l2.44.31a5.91,5.91,0,0,1-2.14,3.31,7.24,7.24,0,0,1-8.83-.7,7.36,7.36,0,0,1-1.79-5.28,7.66,7.66,0,0,1,1.81-5.45,6.1,6.1,0,0,1,4.69-1.94,6,6,0,0,1,4.57,1.9,7.56,7.56,0,0,1,1.77,5.35c0,.14,0,.35,0,.63H392.24a5.34,5.34,0,0,0,1.3,3.51,3.84,3.84,0,0,0,2.91,1.22,3.68,3.68,0,0,0,2.22-.68A4.52,4.52,0,0,0,400.12,254.21Zm-7.75-3.81h7.78a4.79,4.79,0,0,0-.89-2.64,3.63,3.63,0,0,0-2.93-1.36,3.73,3.73,0,0,0-2.73,1.09A4.29,4.29,0,0,0,392.37,250.4Z" style="fill:#595959"/><path d="M422,258.7v-1.76a4.33,4.33,0,0,1-3.89,2.07,5.4,5.4,0,0,1-3.07-.92,6,6,0,0,1-2.16-2.56,8.89,8.89,0,0,1-.77-3.78,9.75,9.75,0,0,1,.7-3.78,5.51,5.51,0,0,1,2.08-2.61,5.62,5.62,0,0,1,3.11-.9,4.65,4.65,0,0,1,3.84,1.91v-6.9h2.35V258.7Zm-7.46-6.95a6,6,0,0,0,1.13,4,3.4,3.4,0,0,0,2.66,1.32,3.35,3.35,0,0,0,2.63-1.26,5.86,5.86,0,0,0,1.08-3.87,6.56,6.56,0,0,0-1.1-4.19,3.41,3.41,0,0,0-2.72-1.34,3.27,3.27,0,0,0-2.63,1.29A6.34,6.34,0,0,0,414.56,251.75Z" style="fill:#595959"/><path d="M437.45,254.21l2.44.31a5.89,5.89,0,0,1-2.13,3.31,7.26,7.26,0,0,1-8.84-.7,7.36,7.36,0,0,1-1.79-5.28,7.71,7.71,0,0,1,1.81-5.45,6.13,6.13,0,0,1,4.7-1.94,5.94,5.94,0,0,1,4.56,1.9,7.56,7.56,0,0,1,1.77,5.35c0,.14,0,.35,0,.63H429.57a5.34,5.34,0,0,0,1.3,3.51,3.84,3.84,0,0,0,2.91,1.22,3.64,3.64,0,0,0,2.22-.68A4.52,4.52,0,0,0,437.45,254.21Zm-7.75-3.81h7.78a4.71,4.71,0,0,0-.89-2.64,3.62,3.62,0,0,0-2.93-1.36,3.73,3.73,0,0,0-2.73,1.09A4.29,4.29,0,0,0,429.7,250.4Z" style="fill:#595959"/><path d="M450.33,242.19v-2.72h2.36v2.72Zm0,16.51V244.77h2.36V258.7Z" style="fill:#595959"/><path d="M456.28,258.7V244.77h2.11v2a5,5,0,0,1,1.75-1.65,4.83,4.83,0,0,1,2.48-.62,4.54,4.54,0,0,1,2.53.64,3.45,3.45,0,0,1,1.4,1.8,5,5,0,0,1,4.3-2.44,4.23,4.23,0,0,1,3.19,1.15,4.9,4.9,0,0,1,1.11,3.53v9.56H472.8v-8.77a6.57,6.57,0,0,0-.22-2,2.06,2.06,0,0,0-.84-1,2.61,2.61,0,0,0-1.41-.38,3.29,3.29,0,0,0-2.44,1,4.28,4.28,0,0,0-1,3.13v8.09h-2.36v-9a4,4,0,0,0-.58-2.36,2.19,2.19,0,0,0-1.89-.79,3.43,3.43,0,0,0-1.84.53,3,3,0,0,0-1.23,1.53,8.74,8.74,0,0,0-.38,2.91v7.23Z" style="fill:#595959"/><path d="M478.65,264V244.77h2.15v1.81a5.24,5.24,0,0,1,1.72-1.59,4.65,4.65,0,0,1,2.32-.53,5.45,5.45,0,0,1,3.15.92,5.57,5.57,0,0,1,2.06,2.59,9.47,9.47,0,0,1,.69,3.66,9.32,9.32,0,0,1-.76,3.85,5.81,5.81,0,0,1-2.23,2.62,5.72,5.72,0,0,1-3.08.91,4.39,4.39,0,0,1-2.12-.5,5,5,0,0,1-1.54-1.25V264Zm2.14-12.22a6,6,0,0,0,1.09,4,3.36,3.36,0,0,0,2.64,1.28,3.41,3.41,0,0,0,2.69-1.33,6.3,6.3,0,0,0,1.12-4.12,6.15,6.15,0,0,0-1.09-4,3.31,3.31,0,0,0-2.62-1.32,3.42,3.42,0,0,0-2.67,1.41A6.31,6.31,0,0,0,480.79,251.81Z" style="fill:#595959"/><path d="M492.71,251.73q0-3.85,2.15-5.73a6.49,6.49,0,0,1,4.38-1.54,6.24,6.24,0,0,1,4.7,1.88,7.18,7.18,0,0,1,1.82,5.2,9.2,9.2,0,0,1-.81,4.23,5.76,5.76,0,0,1-2.35,2.39,6.77,6.77,0,0,1-3.36.85,6.27,6.27,0,0,1-4.73-1.87A7.5,7.5,0,0,1,492.71,251.73Zm2.43,0a6,6,0,0,0,1.16,4,3.89,3.89,0,0,0,5.87,0,6.1,6.1,0,0,0,1.16-4.07,5.77,5.77,0,0,0-1.17-3.92,3.89,3.89,0,0,0-5.86,0A5.92,5.92,0,0,0,495.14,251.73Z" style="fill:#595959"/><path d="M508.5,258.7V244.77h2.12v2.11a5.86,5.86,0,0,1,1.51-1.95,2.55,2.55,0,0,1,1.51-.47,4.63,4.63,0,0,1,2.43.76l-.82,2.19a3.35,3.35,0,0,0-1.73-.51,2.25,2.25,0,0,0-1.39.46,2.56,2.56,0,0,0-.88,1.29,9.3,9.3,0,0,0-.39,2.76v7.29Z" style="fill:#595959"/><path d="M522.62,256.59l.34,2.08a8.72,8.72,0,0,1-1.78.21,4,4,0,0,1-2-.4,2.28,2.28,0,0,1-1-1.07,8.55,8.55,0,0,1-.29-2.79v-8h-1.73v-1.84h1.73v-3.45l2.35-1.41v4.86h2.37v1.84h-2.37v8.14a4.28,4.28,0,0,0,.12,1.3,1.07,1.07,0,0,0,.41.46,1.63,1.63,0,0,0,.81.17A7.8,7.8,0,0,0,522.62,256.59Z" style="fill:#595959"/><path d="M534,257a8.79,8.79,0,0,1-2.53,1.57,7.18,7.18,0,0,1-2.6.46,5.05,5.05,0,0,1-3.53-1.12,3.7,3.7,0,0,1-1.23-2.86,3.78,3.78,0,0,1,.46-1.87,3.92,3.92,0,0,1,1.22-1.36,5.72,5.72,0,0,1,1.7-.77,16.86,16.86,0,0,1,2.1-.36,21.36,21.36,0,0,0,4.21-.81c0-.32,0-.53,0-.62a2.58,2.58,0,0,0-.67-2,3.94,3.94,0,0,0-2.68-.8A4.25,4.25,0,0,0,528,247a3.61,3.61,0,0,0-1.18,2.07l-2.3-.32a5.77,5.77,0,0,1,1-2.39,4.54,4.54,0,0,1,2.09-1.4,9.24,9.24,0,0,1,3.16-.49,8.39,8.39,0,0,1,2.9.42,3.84,3.84,0,0,1,1.63,1.05,3.75,3.75,0,0,1,.74,1.61,13.09,13.09,0,0,1,.12,2.18v3.14a33.75,33.75,0,0,0,.15,4.17,5.47,5.47,0,0,0,.59,1.67h-2.46A4.88,4.88,0,0,1,534,257Zm-.2-5.27a17.08,17.08,0,0,1-3.85.89,9.07,9.07,0,0,0-2.06.47,2.06,2.06,0,0,0-.94.77,2.09,2.09,0,0,0-.32,1.12,2,2,0,0,0,.71,1.57,3.09,3.09,0,0,0,2.09.63,5,5,0,0,0,2.43-.59,3.63,3.63,0,0,0,1.56-1.64,5.75,5.75,0,0,0,.38-2.36Z" style="fill:#595959"/><path d="M539.87,258.7V244.77H542v2a5,5,0,0,1,4.43-2.29,5.89,5.89,0,0,1,2.32.45,3.65,3.65,0,0,1,1.58,1.19,4.55,4.55,0,0,1,.73,1.74,13.31,13.31,0,0,1,.13,2.3v8.56h-2.36v-8.47a6.52,6.52,0,0,0-.27-2.16,2.26,2.26,0,0,0-1-1.14,3.17,3.17,0,0,0-1.65-.43,3.82,3.82,0,0,0-2.6,1c-.73.64-1.09,1.85-1.09,3.63v7.61Z" style="fill:#595959"/><path d="M563.89,253.6l2.32.3a6.1,6.1,0,0,1-2,3.76,5.69,5.69,0,0,1-3.85,1.35,6,6,0,0,1-4.59-1.87,7.56,7.56,0,0,1-1.74-5.35,9.67,9.67,0,0,1,.75-3.95,5.18,5.18,0,0,1,2.27-2.54,6.81,6.81,0,0,1,3.33-.84,5.77,5.77,0,0,1,3.71,1.15,5.24,5.24,0,0,1,1.84,3.25l-2.29.36a3.76,3.76,0,0,0-1.16-2.11,3,3,0,0,0-2-.71,3.64,3.64,0,0,0-2.9,1.28,6.07,6.07,0,0,0-1.12,4,6.26,6.26,0,0,0,1.08,4.08,3.5,3.5,0,0,0,2.81,1.27,3.31,3.31,0,0,0,2.32-.85A4.25,4.25,0,0,0,563.89,253.6Z" style="fill:#595959"/><path d="M568.24,242.19v-2.72h2.36v2.72Zm0,16.51V244.77h2.36V258.7Z" style="fill:#595959"/><path d="M583.28,257a8.62,8.62,0,0,1-2.52,1.57,7.24,7.24,0,0,1-2.61.46,5,5,0,0,1-3.52-1.12,3.68,3.68,0,0,1-1.24-2.86,3.91,3.91,0,0,1,1.69-3.23,5.61,5.61,0,0,1,1.7-.77,16.2,16.2,0,0,1,2.1-.36,21.68,21.68,0,0,0,4.21-.81c0-.32,0-.53,0-.62a2.58,2.58,0,0,0-.67-2,4,4,0,0,0-2.69-.8,4.25,4.25,0,0,0-2.46.58,3.55,3.55,0,0,0-1.17,2.07l-2.31-.32a5.78,5.78,0,0,1,1-2.39,4.51,4.51,0,0,1,2.08-1.4,9.24,9.24,0,0,1,3.16-.49,8.35,8.35,0,0,1,2.9.42,3.88,3.88,0,0,1,1.64,1.05,3.74,3.74,0,0,1,.73,1.61,13.09,13.09,0,0,1,.12,2.18v3.14a33.75,33.75,0,0,0,.15,4.17,5.24,5.24,0,0,0,.6,1.67h-2.47A5.1,5.1,0,0,1,583.28,257Zm-.19-5.27a17.2,17.2,0,0,1-3.86.89,9.21,9.21,0,0,0-2.06.47,2.09,2.09,0,0,0-.93.77,2.07,2.07,0,0,0,.39,2.69,3.05,3.05,0,0,0,2.09.63,4.9,4.9,0,0,0,2.42-.59,3.63,3.63,0,0,0,1.56-1.64,5.56,5.56,0,0,0,.39-2.36Z" style="fill:#595959"/><path d="M595.71,251.73q0-3.85,2.15-5.73a6.49,6.49,0,0,1,4.38-1.54,6.24,6.24,0,0,1,4.7,1.88,7.18,7.18,0,0,1,1.82,5.2,9.2,9.2,0,0,1-.81,4.23,5.73,5.73,0,0,1-2.34,2.39,6.83,6.83,0,0,1-3.37.85,6.27,6.27,0,0,1-4.73-1.87A7.5,7.5,0,0,1,595.71,251.73Zm2.43,0a6,6,0,0,0,1.16,4,3.89,3.89,0,0,0,5.87,0,6.1,6.1,0,0,0,1.16-4.07,5.77,5.77,0,0,0-1.17-3.92,3.89,3.89,0,0,0-5.86,0A5.92,5.92,0,0,0,598.14,251.73Z" style="fill:#595959"/><path d="M142.73,290.92V277h2.12v2.11a5.75,5.75,0,0,1,1.51-1.95,2.56,2.56,0,0,1,1.51-.48,4.69,4.69,0,0,1,2.43.76l-.82,2.19a3.35,3.35,0,0,0-1.73-.51,2.26,2.26,0,0,0-1.39.47,2.56,2.56,0,0,0-.88,1.29,9.28,9.28,0,0,0-.39,2.75v7.29Z" style="fill:#595959"/><path d="M161.23,286.44l2.44.3a5.93,5.93,0,0,1-2.14,3.32,7.24,7.24,0,0,1-8.83-.7,7.39,7.39,0,0,1-1.79-5.28,7.75,7.75,0,0,1,1.81-5.46,6.15,6.15,0,0,1,4.7-1.94,6,6,0,0,1,4.56,1.91,7.54,7.54,0,0,1,1.77,5.35c0,.13,0,.34,0,.63H153.35a5.36,5.36,0,0,0,1.3,3.51,3.88,3.88,0,0,0,2.91,1.22,3.66,3.66,0,0,0,2.22-.68A4.57,4.57,0,0,0,161.23,286.44Zm-7.75-3.82h7.78a4.72,4.72,0,0,0-.89-2.63,3.64,3.64,0,0,0-2.93-1.37,3.77,3.77,0,0,0-2.73,1.09A4.33,4.33,0,0,0,153.48,282.62Z" style="fill:#595959"/><path d="M166.58,290.92V271.7h2.36v19.22Z" style="fill:#595959"/><path d="M182.13,286.44l2.44.3a5.88,5.88,0,0,1-2.14,3.32,7.24,7.24,0,0,1-8.83-.7,7.39,7.39,0,0,1-1.79-5.28,7.75,7.75,0,0,1,1.81-5.46,6.15,6.15,0,0,1,4.7-1.94,6,6,0,0,1,4.56,1.91,7.54,7.54,0,0,1,1.77,5.35c0,.13,0,.34,0,.63H174.25a5.36,5.36,0,0,0,1.3,3.51,3.88,3.88,0,0,0,2.91,1.22,3.64,3.64,0,0,0,2.22-.68A4.57,4.57,0,0,0,182.13,286.44Zm-7.75-3.82h7.78a4.72,4.72,0,0,0-.89-2.63,3.63,3.63,0,0,0-2.93-1.37,3.77,3.77,0,0,0-2.73,1.09A4.33,4.33,0,0,0,174.38,282.62Z" style="fill:#595959"/><path d="M191.4,290.92,186.11,277h2.49l3,8.34c.32.9.62,1.83.89,2.8.21-.73.5-1.61.88-2.64l3.09-8.5h2.43l-5.27,13.92Z" style="fill:#595959"/><path d="M210.05,289.21a8.84,8.84,0,0,1-2.52,1.57,7.24,7.24,0,0,1-2.61.46,5,5,0,0,1-3.52-1.12,3.68,3.68,0,0,1-1.24-2.87,3.87,3.87,0,0,1,1.69-3.22,5.88,5.88,0,0,1,1.7-.78,16.67,16.67,0,0,1,2.09-.35,22.13,22.13,0,0,0,4.21-.81c0-.33,0-.53,0-.62a2.62,2.62,0,0,0-.67-2,3.91,3.91,0,0,0-2.69-.8,4.17,4.17,0,0,0-2.46.58,3.55,3.55,0,0,0-1.17,2.07l-2.31-.32a5.72,5.72,0,0,1,1-2.39,4.44,4.44,0,0,1,2.08-1.4,9.23,9.23,0,0,1,3.16-.5,8.35,8.35,0,0,1,2.9.42,3.79,3.79,0,0,1,1.64,1.06,3.68,3.68,0,0,1,.73,1.61,13,13,0,0,1,.12,2.17v3.15a33.54,33.54,0,0,0,.15,4.16,5.16,5.16,0,0,0,.6,1.67h-2.47A5,5,0,0,1,210.05,289.21Zm-.2-5.27a18.11,18.11,0,0,1-3.85.89,8.67,8.67,0,0,0-2.06.47,2,2,0,0,0-.93.77,2.07,2.07,0,0,0,.39,2.69,3.05,3.05,0,0,0,2.09.63,4.8,4.8,0,0,0,2.42-.6,3.61,3.61,0,0,0,1.56-1.63,5.59,5.59,0,0,0,.38-2.36Z" style="fill:#595959"/><path d="M215.9,290.92V277H218v2a5,5,0,0,1,4.44-2.3,5.64,5.64,0,0,1,2.31.46,3.64,3.64,0,0,1,1.58,1.18,4.53,4.53,0,0,1,.73,1.75,12.9,12.9,0,0,1,.14,2.29v8.56h-2.36v-8.47a6.36,6.36,0,0,0-.28-2.15,2.22,2.22,0,0,0-1-1.14,3,3,0,0,0-1.64-.43,3.83,3.83,0,0,0-2.61,1c-.73.63-1.09,1.85-1.09,3.63v7.6Z" style="fill:#595959"/><path d="M239.92,285.82l2.32.31a6,6,0,0,1-1.94,3.75,5.66,5.66,0,0,1-3.85,1.36,6,6,0,0,1-4.6-1.87,7.58,7.58,0,0,1-1.74-5.36,9.62,9.62,0,0,1,.75-3.94,5.2,5.2,0,0,1,2.28-2.54,6.75,6.75,0,0,1,3.32-.85,5.81,5.81,0,0,1,3.71,1.15,5.28,5.28,0,0,1,1.85,3.26l-2.29.35a3.81,3.81,0,0,0-1.17-2.11,3,3,0,0,0-2-.71,3.68,3.68,0,0,0-2.9,1.28,6.11,6.11,0,0,0-1.11,4.05,6.33,6.33,0,0,0,1.07,4.08,3.54,3.54,0,0,0,2.81,1.27,3.33,3.33,0,0,0,2.32-.85A4.23,4.23,0,0,0,239.92,285.82Z" style="fill:#595959"/><path d="M244.28,274.42V271.7h2.36v2.72Zm0,16.5V277h2.36v13.92Z" style="fill:#595959"/><path d="M259.32,289.21a9,9,0,0,1-2.53,1.57,7.18,7.18,0,0,1-2.6.46,5.05,5.05,0,0,1-3.53-1.12,3.71,3.71,0,0,1-1.23-2.87,3.84,3.84,0,0,1,.46-1.87,3.88,3.88,0,0,1,1.22-1.35,6,6,0,0,1,1.7-.78,16.57,16.57,0,0,1,2.1-.35,22.13,22.13,0,0,0,4.21-.81c0-.33,0-.53,0-.62a2.58,2.58,0,0,0-.67-2,3.9,3.9,0,0,0-2.68-.8,4.15,4.15,0,0,0-2.46.58,3.61,3.61,0,0,0-1.18,2.07l-2.3-.32a5.72,5.72,0,0,1,1-2.39,4.47,4.47,0,0,1,2.09-1.4,9.23,9.23,0,0,1,3.16-.5,8.33,8.33,0,0,1,2.89.42,3.73,3.73,0,0,1,1.64,1.06,3.69,3.69,0,0,1,.74,1.61,13,13,0,0,1,.12,2.17v3.15a33.54,33.54,0,0,0,.15,4.16,5.38,5.38,0,0,0,.59,1.67h-2.46A4.82,4.82,0,0,1,259.32,289.21Zm-.2-5.27a18.23,18.23,0,0,1-3.86.89,8.56,8.56,0,0,0-2,.47,2,2,0,0,0-.94.77,2.06,2.06,0,0,0-.32,1.12,2,2,0,0,0,.71,1.57,3.07,3.07,0,0,0,2.09.63,4.86,4.86,0,0,0,2.43-.6,3.61,3.61,0,0,0,1.56-1.63,5.75,5.75,0,0,0,.38-2.36Z" style="fill:#595959"/><path d="M272.63,296.26V277h2.15v1.81a5.12,5.12,0,0,1,1.71-1.59,4.66,4.66,0,0,1,2.32-.54,5.53,5.53,0,0,1,3.15.92,5.62,5.62,0,0,1,2.06,2.59,9.56,9.56,0,0,1,.7,3.67,9.39,9.39,0,0,1-.77,3.85,5.81,5.81,0,0,1-2.23,2.62,5.72,5.72,0,0,1-3.08.91,4.44,4.44,0,0,1-2.11-.5,4.68,4.68,0,0,1-1.54-1.26v6.78ZM274.76,284a6.07,6.07,0,0,0,1.09,4,3.34,3.34,0,0,0,2.64,1.29,3.4,3.4,0,0,0,2.69-1.33,6.31,6.31,0,0,0,1.12-4.13,6.14,6.14,0,0,0-1.09-4,3.28,3.28,0,0,0-2.62-1.33,3.42,3.42,0,0,0-2.67,1.41A6.34,6.34,0,0,0,274.76,284Z" style="fill:#595959"/><path d="M296.65,289.21a9,9,0,0,1-2.53,1.57,7.18,7.18,0,0,1-2.6.46,5.05,5.05,0,0,1-3.53-1.12,3.71,3.71,0,0,1-1.23-2.87,3.85,3.85,0,0,1,.47-1.87,3.78,3.78,0,0,1,1.22-1.35,5.82,5.82,0,0,1,1.69-.78,17.24,17.24,0,0,1,2.1-.35,22.13,22.13,0,0,0,4.21-.81c0-.33,0-.53,0-.62a2.62,2.62,0,0,0-.66-2,3.93,3.93,0,0,0-2.69-.8,4.17,4.17,0,0,0-2.46.58,3.61,3.61,0,0,0-1.18,2.07l-2.3-.32a5.72,5.72,0,0,1,1-2.39,4.47,4.47,0,0,1,2.09-1.4,9.23,9.23,0,0,1,3.16-.5,8.39,8.39,0,0,1,2.9.42,3.86,3.86,0,0,1,1.64,1.06,3.68,3.68,0,0,1,.73,1.61,13,13,0,0,1,.12,2.17v3.15a33.54,33.54,0,0,0,.15,4.16,5.16,5.16,0,0,0,.6,1.67h-2.47A5,5,0,0,1,296.65,289.21Zm-.2-5.27a18.26,18.26,0,0,1-3.85.89,8.67,8.67,0,0,0-2.06.47,1.93,1.93,0,0,0-.93.77,2,2,0,0,0-.33,1.12,2,2,0,0,0,.71,1.57,3.09,3.09,0,0,0,2.09.63,4.86,4.86,0,0,0,2.43-.6,3.61,3.61,0,0,0,1.56-1.63,5.75,5.75,0,0,0,.38-2.36Z" style="fill:#595959"/><path d="M302.47,290.92V277h2.12v2.11a5.75,5.75,0,0,1,1.51-1.95,2.56,2.56,0,0,1,1.51-.48,4.69,4.69,0,0,1,2.43.76l-.82,2.19a3.35,3.35,0,0,0-1.73-.51,2.26,2.26,0,0,0-1.39.47,2.56,2.56,0,0,0-.88,1.29,9.28,9.28,0,0,0-.39,2.75v7.29Z" style="fill:#595959"/><path d="M320.53,289.21a9,9,0,0,1-2.53,1.57,7.18,7.18,0,0,1-2.6.46,5.05,5.05,0,0,1-3.53-1.12,3.71,3.71,0,0,1-1.23-2.87,3.84,3.84,0,0,1,.46-1.87,4,4,0,0,1,1.22-1.35,6,6,0,0,1,1.7-.78,16.9,16.9,0,0,1,2.1-.35,22.13,22.13,0,0,0,4.21-.81c0-.33,0-.53,0-.62a2.58,2.58,0,0,0-.67-2,3.89,3.89,0,0,0-2.68-.8,4.17,4.17,0,0,0-2.46.58,3.61,3.61,0,0,0-1.18,2.07l-2.3-.32a5.72,5.72,0,0,1,1-2.39,4.47,4.47,0,0,1,2.09-1.4,9.23,9.23,0,0,1,3.16-.5,8.29,8.29,0,0,1,2.89.42,3.73,3.73,0,0,1,1.64,1.06,3.69,3.69,0,0,1,.74,1.61,13,13,0,0,1,.12,2.17v3.15a33.54,33.54,0,0,0,.15,4.16,5.38,5.38,0,0,0,.59,1.67H321A4.82,4.82,0,0,1,320.53,289.21Zm-.2-5.27a18.23,18.23,0,0,1-3.86.89,8.56,8.56,0,0,0-2.05.47,2,2,0,0,0-.94.77,2.06,2.06,0,0,0-.32,1.12,2,2,0,0,0,.71,1.57,3.09,3.09,0,0,0,2.09.63,4.86,4.86,0,0,0,2.43-.6,3.61,3.61,0,0,0,1.56-1.63,5.75,5.75,0,0,0,.38-2.36Z" style="fill:#595959"/><path d="M342.92,289.21a8.84,8.84,0,0,1-2.52,1.57,7.22,7.22,0,0,1-2.6.46,5.05,5.05,0,0,1-3.53-1.12,3.71,3.71,0,0,1-1.23-2.87,3.84,3.84,0,0,1,.46-1.87,3.88,3.88,0,0,1,1.22-1.35,5.88,5.88,0,0,1,1.7-.78,16.57,16.57,0,0,1,2.1-.35,22.3,22.3,0,0,0,4.21-.81c0-.33,0-.53,0-.62a2.58,2.58,0,0,0-.67-2,3.91,3.91,0,0,0-2.69-.8,4.17,4.17,0,0,0-2.46.58,3.55,3.55,0,0,0-1.17,2.07l-2.31-.32a5.72,5.72,0,0,1,1-2.39,4.44,4.44,0,0,1,2.08-1.4,9.27,9.27,0,0,1,3.16-.5,8.35,8.35,0,0,1,2.9.42,3.33,3.33,0,0,1,2.38,2.67,14.57,14.57,0,0,1,.11,2.17v3.15a33.54,33.54,0,0,0,.15,4.16,5.16,5.16,0,0,0,.6,1.67h-2.47A5,5,0,0,1,342.92,289.21Zm-.19-5.27a18.38,18.38,0,0,1-3.86.89,8.67,8.67,0,0,0-2.06.47,2,2,0,0,0-.93.77,2.07,2.07,0,0,0,.39,2.69,3.05,3.05,0,0,0,2.09.63,4.86,4.86,0,0,0,2.43-.6,3.72,3.72,0,0,0,1.56-1.63,5.75,5.75,0,0,0,.38-2.36Z" style="fill:#595959"/><path d="M348.72,290.92V271.7h2.36v19.22Z" style="fill:#595959"/><path d="M354.31,292.08l2.29.34a2.21,2.21,0,0,0,.8,1.55,4,4,0,0,0,2.4.65,4.26,4.26,0,0,0,2.53-.65,3.21,3.21,0,0,0,1.21-1.84,15.17,15.17,0,0,0,.17-3,4.84,4.84,0,0,1-3.86,1.82,5.25,5.25,0,0,1-4.44-2.07,8,8,0,0,1-1.58-5,9.29,9.29,0,0,1,.72-3.68,5.8,5.8,0,0,1,2.1-2.6,5.64,5.64,0,0,1,3.22-.92,5,5,0,0,1,4.06,2V277h2.18v12a11.29,11.29,0,0,1-.67,4.61,4.85,4.85,0,0,1-2.09,2.14,7.35,7.35,0,0,1-3.54.79,6.63,6.63,0,0,1-4-1.13A3.75,3.75,0,0,1,354.31,292.08Zm1.95-8.37a6,6,0,0,0,1.09,4,3.44,3.44,0,0,0,2.73,1.26,3.49,3.49,0,0,0,2.72-1.25,5.84,5.84,0,0,0,1.1-3.93,5.67,5.67,0,0,0-1.13-3.85,3.5,3.5,0,0,0-2.73-1.3,3.39,3.39,0,0,0-2.68,1.28A5.68,5.68,0,0,0,356.26,283.71Z" style="fill:#595959"/><path d="M378.8,290.92v-2a5.1,5.1,0,0,1-4.42,2.36,5.7,5.7,0,0,1-2.3-.47,3.87,3.87,0,0,1-1.59-1.19,4.55,4.55,0,0,1-.72-1.75,11.51,11.51,0,0,1-.15-2.2V277H372v7.72a13.18,13.18,0,0,0,.15,2.49,2.46,2.46,0,0,0,.94,1.47,3,3,0,0,0,1.78.53,3.84,3.84,0,0,0,2-.55,2.94,2.94,0,0,0,1.31-1.48,7.35,7.35,0,0,0,.39-2.72V277h2.36v13.92Z" style="fill:#595959"/><path d="M384.62,274.42V271.7H387v2.72Zm0,16.5V277H387v13.92Z" style="fill:#595959"/><path d="M400.11,286.44l2.44.3a6,6,0,0,1-2.14,3.32,7.24,7.24,0,0,1-8.83-.7,7.34,7.34,0,0,1-1.79-5.28,7.71,7.71,0,0,1,1.81-5.46,6.12,6.12,0,0,1,4.69-1.94,6,6,0,0,1,4.57,1.91,7.54,7.54,0,0,1,1.77,5.35c0,.13,0,.34,0,.63H392.23a5.31,5.31,0,0,0,1.3,3.51,3.85,3.85,0,0,0,2.91,1.22,3.63,3.63,0,0,0,2.21-.68A4.58,4.58,0,0,0,400.11,286.44Zm-7.75-3.82h7.77a4.65,4.65,0,0,0-.89-2.63,3.61,3.61,0,0,0-2.92-1.37,3.78,3.78,0,0,0-2.74,1.09A4.37,4.37,0,0,0,392.36,282.62Z" style="fill:#595959"/><path d="M405.51,290.92V277h2.12v2a5,5,0,0,1,4.44-2.3,5.64,5.64,0,0,1,2.31.46,3.58,3.58,0,0,1,1.58,1.18,4.54,4.54,0,0,1,.74,1.75,14.29,14.29,0,0,1,.13,2.29v8.56h-2.36v-8.47a6.12,6.12,0,0,0-.28-2.15,2.22,2.22,0,0,0-1-1.14,3,3,0,0,0-1.64-.43,3.8,3.8,0,0,0-2.6,1c-.73.63-1.1,1.85-1.1,3.63v7.6Z" style="fill:#595959"/><path d="M156.77,314.71l2.55.64a8.64,8.64,0,0,1-2.88,4.78,7.93,7.93,0,0,1-5.08,1.65,9.1,9.1,0,0,1-5.06-1.27,7.93,7.93,0,0,1-3-3.66,13.05,13.05,0,0,1-1-5.16,11.4,11.4,0,0,1,1.15-5.24,7.82,7.82,0,0,1,3.27-3.39,9.45,9.45,0,0,1,4.66-1.16,7.87,7.87,0,0,1,4.85,1.47A7.64,7.64,0,0,1,159,307.5l-2.51.59a5.91,5.91,0,0,0-1.94-3.06,5.14,5.14,0,0,0-3.2-1,6.2,6.2,0,0,0-3.7,1.07,5.58,5.58,0,0,0-2.09,2.85,11.5,11.5,0,0,0-.6,3.69,11.63,11.63,0,0,0,.71,4.28,5.34,5.34,0,0,0,2.22,2.73,6.21,6.21,0,0,0,3.27.91,5.49,5.49,0,0,0,3.62-1.23A6.28,6.28,0,0,0,156.77,314.71Z" style="fill:#595959"/><path d="M161.27,314.49q0-3.87,2.15-5.73a6.45,6.45,0,0,1,4.38-1.55,6.27,6.27,0,0,1,4.7,1.88,7.18,7.18,0,0,1,1.82,5.2,9.2,9.2,0,0,1-.81,4.23,5.7,5.7,0,0,1-2.35,2.39,6.77,6.77,0,0,1-3.36.85,6.27,6.27,0,0,1-4.73-1.87A7.49,7.49,0,0,1,161.27,314.49Zm2.43,0a6,6,0,0,0,1.16,4,3.74,3.74,0,0,0,2.94,1.33,3.68,3.68,0,0,0,2.92-1.34,6,6,0,0,0,1.17-4.07,5.79,5.79,0,0,0-1.17-3.92,3.89,3.89,0,0,0-5.86,0A5.93,5.93,0,0,0,163.7,314.49Z" style="fill:#595959"/><path d="M177.09,321.45V307.52h2.12v2a5,5,0,0,1,4.43-2.29,5.89,5.89,0,0,1,2.32.45,3.65,3.65,0,0,1,1.58,1.19,4.71,4.71,0,0,1,.73,1.74,13.31,13.31,0,0,1,.13,2.3v8.56H186V313a6.52,6.52,0,0,0-.27-2.16,2.26,2.26,0,0,0-1-1.14,3.17,3.17,0,0,0-1.65-.43,3.82,3.82,0,0,0-2.6,1c-.73.64-1.09,1.85-1.09,3.63v7.61Z" style="fill:#595959"/><path d="M189,326.85l.44-2a4.94,4.94,0,0,0,1.12.18,1.23,1.23,0,0,0,1.07-.48,4.82,4.82,0,0,0,.36-2.39V307.52h2.36v14.69a7,7,0,0,1-.67,3.58,3.13,3.13,0,0,1-2.83,1.31A6.66,6.66,0,0,1,189,326.85ZM192,305v-2.74h2.36V305Z" style="fill:#595959"/><path d="M207.11,321.45V319.4a5.07,5.07,0,0,1-4.42,2.36,5.57,5.57,0,0,1-2.3-.47,3.75,3.75,0,0,1-1.58-1.18,4.45,4.45,0,0,1-.73-1.76,11.44,11.44,0,0,1-.15-2.2v-8.63h2.37v7.73a13.54,13.54,0,0,0,.14,2.49,2.45,2.45,0,0,0,.94,1.46,3,3,0,0,0,1.79.53,3.89,3.89,0,0,0,2-.54,3.07,3.07,0,0,0,1.32-1.49,7.38,7.38,0,0,0,.38-2.72v-7.46h2.36v13.93Z" style="fill:#595959"/><path d="M212.92,321.45V307.52h2.13v2a5,5,0,0,1,4.43-2.29,5.8,5.8,0,0,1,2.31.45,3.59,3.59,0,0,1,1.58,1.19,4.56,4.56,0,0,1,.74,1.74,13.31,13.31,0,0,1,.13,2.3v8.56h-2.36V313a6.22,6.22,0,0,0-.28-2.16,2.24,2.24,0,0,0-1-1.14,3.17,3.17,0,0,0-1.65-.43,3.82,3.82,0,0,0-2.6,1c-.73.64-1.1,1.85-1.1,3.63v7.61Z" style="fill:#595959"/><path d="M233,319.34l.34,2.08a8.72,8.72,0,0,1-1.78.21,4,4,0,0,1-2-.4,2.28,2.28,0,0,1-1-1.07,8.51,8.51,0,0,1-.29-2.79v-8h-1.73v-1.84h1.73v-3.45l2.35-1.41v4.86H233v1.84h-2.37v8.14a4.24,4.24,0,0,0,.12,1.3,1,1,0,0,0,.41.46,1.63,1.63,0,0,0,.81.17A7.8,7.8,0,0,0,233,319.34Z" style="fill:#595959"/><path d="M234.44,314.49q0-3.87,2.15-5.73a6.45,6.45,0,0,1,4.38-1.55,6.29,6.29,0,0,1,4.7,1.88,7.18,7.18,0,0,1,1.82,5.2,9.2,9.2,0,0,1-.81,4.23,5.7,5.7,0,0,1-2.35,2.39,6.77,6.77,0,0,1-3.36.85,6.27,6.27,0,0,1-4.73-1.87A7.49,7.49,0,0,1,234.44,314.49Zm2.43,0a6,6,0,0,0,1.16,4,3.74,3.74,0,0,0,2.94,1.33,3.68,3.68,0,0,0,2.92-1.34,6,6,0,0,0,1.17-4.07,5.79,5.79,0,0,0-1.17-3.92,3.89,3.89,0,0,0-5.86,0A5.93,5.93,0,0,0,236.87,314.49Z" style="fill:#595959"/><path d="M266.75,321.45v-1.76a4.33,4.33,0,0,1-3.89,2.07,5.49,5.49,0,0,1-3.07-.91,6.08,6.08,0,0,1-2.16-2.57,8.86,8.86,0,0,1-.77-3.78,9.75,9.75,0,0,1,.7-3.78,5.51,5.51,0,0,1,2.08-2.61,5.62,5.62,0,0,1,3.11-.9,4.66,4.66,0,0,1,2.24.53,4.57,4.57,0,0,1,1.6,1.38v-6.89h2.35v19.22Zm-7.46-6.95a6.06,6.06,0,0,0,1.13,4,3.4,3.4,0,0,0,2.66,1.32,3.35,3.35,0,0,0,2.63-1.26,5.85,5.85,0,0,0,1.08-3.86,6.58,6.58,0,0,0-1.1-4.2,3.41,3.41,0,0,0-2.72-1.34,3.29,3.29,0,0,0-2.63,1.29A6.34,6.34,0,0,0,259.29,314.5Z" style="fill:#595959"/><path d="M282.18,317l2.44.31a5.89,5.89,0,0,1-2.13,3.31,7.26,7.26,0,0,1-8.84-.7,7.36,7.36,0,0,1-1.79-5.28,7.71,7.71,0,0,1,1.81-5.45,6.16,6.16,0,0,1,4.7-1.94,5.94,5.94,0,0,1,4.56,1.9,7.56,7.56,0,0,1,1.77,5.35c0,.14,0,.35,0,.63H274.3a5.34,5.34,0,0,0,1.3,3.51,3.84,3.84,0,0,0,2.91,1.22,3.57,3.57,0,0,0,2.22-.68A4.45,4.45,0,0,0,282.18,317Zm-7.75-3.81h7.78a4.71,4.71,0,0,0-.89-2.64,3.62,3.62,0,0,0-2.93-1.36,3.73,3.73,0,0,0-2.73,1.09A4.29,4.29,0,0,0,274.43,313.15Z" style="fill:#595959"/><path d="M304.08,321.45v-1.76a4.33,4.33,0,0,1-3.89,2.07,5.46,5.46,0,0,1-3.06-.91,6.1,6.1,0,0,1-2.17-2.57,8.86,8.86,0,0,1-.76-3.78,9.94,9.94,0,0,1,.69-3.78,5.47,5.47,0,0,1,2.09-2.61,5.57,5.57,0,0,1,3.1-.9,4.65,4.65,0,0,1,3.85,1.91v-6.89h2.34v19.22Zm-7.46-6.95a6.06,6.06,0,0,0,1.13,4,3.4,3.4,0,0,0,2.66,1.32,3.35,3.35,0,0,0,2.63-1.26,5.85,5.85,0,0,0,1.08-3.86,6.52,6.52,0,0,0-1.1-4.2,3.39,3.39,0,0,0-2.71-1.34,3.26,3.26,0,0,0-2.63,1.29A6.27,6.27,0,0,0,296.62,314.5Z" style="fill:#595959"/><path d="M319.07,319.73a8.75,8.75,0,0,1-2.52,1.57,7.24,7.24,0,0,1-2.61.46,5,5,0,0,1-3.52-1.12,3.66,3.66,0,0,1-1.24-2.86,3.91,3.91,0,0,1,1.69-3.23,5.61,5.61,0,0,1,1.7-.77,18.3,18.3,0,0,1,2.09-.36,20.64,20.64,0,0,0,4.21-.81c0-.32,0-.53,0-.62a2.63,2.63,0,0,0-.67-2,4,4,0,0,0-2.69-.8,4.16,4.16,0,0,0-2.46.59,3.49,3.49,0,0,0-1.17,2.06l-2.31-.31a5.64,5.64,0,0,1,1-2.4,4.59,4.59,0,0,1,2.08-1.4,9.24,9.24,0,0,1,3.16-.49,8.35,8.35,0,0,1,2.9.42,3.88,3.88,0,0,1,1.64,1.05,3.74,3.74,0,0,1,.73,1.61,13.09,13.09,0,0,1,.12,2.18v3.14a33.64,33.64,0,0,0,.15,4.17,5.16,5.16,0,0,0,.6,1.67h-2.47A5.1,5.1,0,0,1,319.07,319.73Zm-.2-5.27a17,17,0,0,1-3.85.89,9.21,9.21,0,0,0-2.06.47,2.09,2.09,0,0,0-.93.77,2,2,0,0,0-.33,1.12,2,2,0,0,0,.72,1.57,3.05,3.05,0,0,0,2.09.63,4.82,4.82,0,0,0,2.42-.59,3.66,3.66,0,0,0,1.56-1.63,5.64,5.64,0,0,0,.38-2.37Z" style="fill:#595959"/><path d="M330.07,319.34l.34,2.08a8.72,8.72,0,0,1-1.78.21,4,4,0,0,1-2-.4,2.28,2.28,0,0,1-1-1.07,8.51,8.51,0,0,1-.29-2.79v-8h-1.73v-1.84h1.73v-3.45l2.35-1.41v4.86h2.37v1.84H327.7v8.14a4.24,4.24,0,0,0,.12,1.3,1,1,0,0,0,.41.46,1.63,1.63,0,0,0,.81.17A7.8,7.8,0,0,0,330.07,319.34Z" style="fill:#595959"/><path d="M331.5,314.49q0-3.87,2.15-5.73a6.45,6.45,0,0,1,4.38-1.55,6.27,6.27,0,0,1,4.7,1.88,7.18,7.18,0,0,1,1.82,5.2,9.2,9.2,0,0,1-.81,4.23,5.68,5.68,0,0,1-2.34,2.39,6.83,6.83,0,0,1-3.37.85,6.27,6.27,0,0,1-4.73-1.87A7.49,7.49,0,0,1,331.5,314.49Zm2.43,0a6,6,0,0,0,1.16,4,3.89,3.89,0,0,0,5.87,0,6.1,6.1,0,0,0,1.16-4.07,5.79,5.79,0,0,0-1.17-3.92,3.89,3.89,0,0,0-5.86,0A5.93,5.93,0,0,0,333.93,314.49Z" style="fill:#595959"/><path d="M346.37,317.29l2.34-.37a3.26,3.26,0,0,0,1.09,2.16,3.87,3.87,0,0,0,2.51.74,3.67,3.67,0,0,0,2.41-.66,2,2,0,0,0,.79-1.55,1.42,1.42,0,0,0-.69-1.26,10.19,10.19,0,0,0-2.42-.8,22.16,22.16,0,0,1-3.6-1.14,3.58,3.58,0,0,1-1.61-4.91,3.88,3.88,0,0,1,1.16-1.32,5,5,0,0,1,1.5-.69,7.13,7.13,0,0,1,2-.28,8.16,8.16,0,0,1,2.88.47A3.83,3.83,0,0,1,356.6,309a5.08,5.08,0,0,1,.81,2.16l-2.3.31a2.52,2.52,0,0,0-.92-1.68,3.33,3.33,0,0,0-2.13-.6,3.86,3.86,0,0,0-2.32.54,1.56,1.56,0,0,0-.69,1.26,1.25,1.25,0,0,0,.29.82,2,2,0,0,0,.9.63c.24.09.93.29,2.09.6a30.21,30.21,0,0,1,3.49,1.1,3.49,3.49,0,0,1,1.55,1.24,3.42,3.42,0,0,1,.57,2,4,4,0,0,1-.69,2.22,4.4,4.4,0,0,1-2,1.61,7.19,7.19,0,0,1-2.93.57,6.57,6.57,0,0,1-4.14-1.12A5.26,5.26,0,0,1,346.37,317.29Z" style="fill:#595959"/><path d="M377.29,316.35l2.32.3a6,6,0,0,1-1.94,3.76,5.71,5.71,0,0,1-3.85,1.35,6,6,0,0,1-4.6-1.86,7.6,7.6,0,0,1-1.74-5.36,9.67,9.67,0,0,1,.75-4,5.24,5.24,0,0,1,2.28-2.54,6.74,6.74,0,0,1,3.32-.84,5.75,5.75,0,0,1,3.71,1.15,5.25,5.25,0,0,1,1.85,3.25l-2.29.36a3.77,3.77,0,0,0-1.17-2.11,3,3,0,0,0-2-.71,3.65,3.65,0,0,0-2.9,1.28,6.08,6.08,0,0,0-1.11,4,6.33,6.33,0,0,0,1.07,4.08,3.51,3.51,0,0,0,2.81,1.27,3.29,3.29,0,0,0,2.32-.85A4.2,4.2,0,0,0,377.29,316.35Z" style="fill:#595959"/><path d="M390.76,321.45V319.4a5.09,5.09,0,0,1-4.42,2.36,5.54,5.54,0,0,1-2.3-.47,3.85,3.85,0,0,1-1.59-1.18,4.6,4.6,0,0,1-.73-1.76,12.57,12.57,0,0,1-.14-2.2v-8.63h2.36v7.73a14.54,14.54,0,0,0,.14,2.49,2.46,2.46,0,0,0,.95,1.46,2.94,2.94,0,0,0,1.78.53,3.89,3.89,0,0,0,2-.54,3,3,0,0,0,1.32-1.49,7.35,7.35,0,0,0,.39-2.72v-7.46h2.36v13.93Z" style="fill:#595959"/><path d="M396.46,326.81l-.26-2.21a5.31,5.31,0,0,0,1.35.21,2.51,2.51,0,0,0,1.26-.27,2.15,2.15,0,0,0,.77-.73,11.29,11.29,0,0,0,.72-1.76l.21-.57-5.28-14h2.54l2.9,8.07c.38,1,.71,2.1,1,3.22.27-1.08.6-2.14,1-3.17l3-8.12H408l-5.3,14.17a30.53,30.53,0,0,1-1.32,3.16,4.72,4.72,0,0,1-1.45,1.71,3.4,3.4,0,0,1-1.94.54A4.82,4.82,0,0,1,396.46,326.81Z" style="fill:#595959"/><path d="M409.12,314.49c0-2.58.71-4.49,2.15-5.73a6.43,6.43,0,0,1,4.38-1.55,6.25,6.25,0,0,1,4.69,1.88,7.13,7.13,0,0,1,1.82,5.2,9.34,9.34,0,0,1-.8,4.23,5.7,5.7,0,0,1-2.35,2.39,6.82,6.82,0,0,1-3.36.85,6.26,6.26,0,0,1-4.73-1.87A7.49,7.49,0,0,1,409.12,314.49Zm2.42,0a5.9,5.9,0,0,0,1.17,4,3.74,3.74,0,0,0,2.94,1.33,3.69,3.69,0,0,0,2.92-1.34,6,6,0,0,0,1.17-4.07,5.74,5.74,0,0,0-1.18-3.92,3.88,3.88,0,0,0-5.85,0A5.88,5.88,0,0,0,411.54,314.49Z" style="fill:#595959"/><path d="M432.37,321.45V307.52h2.12v2.11a5.73,5.73,0,0,1,1.5-1.95,2.67,2.67,0,0,1,1.52-.47,4.57,4.57,0,0,1,2.42.76l-.81,2.19a3.38,3.38,0,0,0-1.73-.51,2.23,2.23,0,0,0-1.39.46,2.56,2.56,0,0,0-.88,1.29,9.3,9.3,0,0,0-.39,2.76v7.29Z" style="fill:#595959"/><path d="M450.87,317l2.44.31a6,6,0,0,1-2.14,3.31,6.41,6.41,0,0,1-4,1.18,6.34,6.34,0,0,1-4.84-1.88,7.31,7.31,0,0,1-1.79-5.28,7.66,7.66,0,0,1,1.81-5.45,6.12,6.12,0,0,1,4.69-1.94,6,6,0,0,1,4.57,1.9,7.56,7.56,0,0,1,1.77,5.35c0,.14,0,.35,0,.63H443a5.29,5.29,0,0,0,1.3,3.51,3.81,3.81,0,0,0,2.91,1.22,3.57,3.57,0,0,0,2.21-.68A4.53,4.53,0,0,0,450.87,317Zm-7.75-3.81h7.77a4.71,4.71,0,0,0-.89-2.64,3.6,3.6,0,0,0-2.92-1.36,3.74,3.74,0,0,0-2.74,1.09A4.33,4.33,0,0,0,443.12,313.15Z" style="fill:#595959"/><path d="M455.33,317.29l2.33-.37a3.27,3.27,0,0,0,1.1,2.16,3.83,3.83,0,0,0,2.51.74,3.71,3.71,0,0,0,2.41-.66,2,2,0,0,0,.79-1.55,1.43,1.43,0,0,0-.7-1.26,10,10,0,0,0-2.41-.8,22.16,22.16,0,0,1-3.6-1.14,3.43,3.43,0,0,1-2-3.19,3.51,3.51,0,0,1,.43-1.72,3.77,3.77,0,0,1,1.16-1.32,4.78,4.78,0,0,1,1.5-.69,7,7,0,0,1,2-.28,8.11,8.11,0,0,1,2.87.47,3.83,3.83,0,0,1,1.83,1.28,5,5,0,0,1,.82,2.16l-2.31.31a2.55,2.55,0,0,0-.91-1.68,3.35,3.35,0,0,0-2.13-.6,3.82,3.82,0,0,0-2.32.54A1.55,1.55,0,0,0,458,311a1.3,1.3,0,0,0,.29.82,2,2,0,0,0,.9.63c.24.09.94.29,2.09.6a30.21,30.21,0,0,1,3.49,1.1,3.57,3.57,0,0,1,1.56,1.24,3.49,3.49,0,0,1,.56,2,4,4,0,0,1-.69,2.22,4.43,4.43,0,0,1-2,1.61,7.27,7.27,0,0,1-2.94.57,6.57,6.57,0,0,1-4.14-1.12A5.25,5.25,0,0,1,455.33,317.29Z" style="fill:#595959"/><path d="M478.82,321.45V319.4a5.07,5.07,0,0,1-4.41,2.36,5.58,5.58,0,0,1-2.31-.47,3.75,3.75,0,0,1-1.58-1.18,4.45,4.45,0,0,1-.73-1.76,11.64,11.64,0,0,1-.14-2.2v-8.63H472v7.73a13.54,13.54,0,0,0,.14,2.49,2.45,2.45,0,0,0,.94,1.46,3,3,0,0,0,1.79.53,3.89,3.89,0,0,0,2-.54,3.07,3.07,0,0,0,1.32-1.49,7.35,7.35,0,0,0,.39-2.72v-7.46h2.36v13.93Z" style="fill:#595959"/><path d="M484.58,321.45V302.23h2.36v19.22Z" style="fill:#595959"/><path d="M495.75,319.34l.34,2.08a8.64,8.64,0,0,1-1.78.21,4,4,0,0,1-2-.4,2.28,2.28,0,0,1-1-1.07,8.51,8.51,0,0,1-.29-2.79v-8H489.3v-1.84H491v-3.45l2.35-1.41v4.86h2.37v1.84h-2.37v8.14a4.24,4.24,0,0,0,.12,1.3,1,1,0,0,0,.41.46,1.63,1.63,0,0,0,.81.17A7.8,7.8,0,0,0,495.75,319.34Z" style="fill:#595959"/><path d="M507.15,319.73a8.79,8.79,0,0,1-2.53,1.57,7.15,7.15,0,0,1-2.6.46,5.07,5.07,0,0,1-3.53-1.12,3.69,3.69,0,0,1-1.23-2.86,3.82,3.82,0,0,1,.47-1.87,3.73,3.73,0,0,1,1.22-1.36,5.55,5.55,0,0,1,1.69-.77,19,19,0,0,1,2.1-.36,20.64,20.64,0,0,0,4.21-.81c0-.32,0-.53,0-.62a2.63,2.63,0,0,0-.67-2,4,4,0,0,0-2.69-.8,4.16,4.16,0,0,0-2.46.59,3.49,3.49,0,0,0-1.17,2.06l-2.31-.31a5.76,5.76,0,0,1,1-2.4,4.62,4.62,0,0,1,2.09-1.4,9.24,9.24,0,0,1,3.16-.49,8.39,8.39,0,0,1,2.9.42,3.88,3.88,0,0,1,1.64,1.05,3.74,3.74,0,0,1,.73,1.61,13.09,13.09,0,0,1,.12,2.18v3.14a33.64,33.64,0,0,0,.15,4.17,5.16,5.16,0,0,0,.6,1.67h-2.47A5.1,5.1,0,0,1,507.15,319.73Zm-.2-5.27a17.08,17.08,0,0,1-3.85.89,9.21,9.21,0,0,0-2.06.47,2.09,2.09,0,0,0-.93.77,2.08,2.08,0,0,0,.38,2.69,3.1,3.1,0,0,0,2.1.63,4.85,4.85,0,0,0,2.42-.59,3.66,3.66,0,0,0,1.56-1.63,5.64,5.64,0,0,0,.38-2.37Z" style="fill:#595959"/><path d="M522,321.45v-1.76a4.33,4.33,0,0,1-3.89,2.07,5.46,5.46,0,0,1-3.06-.91,6,6,0,0,1-2.17-2.57,8.86,8.86,0,0,1-.77-3.78,9.94,9.94,0,0,1,.7-3.78,5.47,5.47,0,0,1,2.09-2.61,5.57,5.57,0,0,1,3.1-.9,4.66,4.66,0,0,1,2.24.53,4.57,4.57,0,0,1,1.6,1.38v-6.89h2.35v19.22Zm-7.46-6.95a6.06,6.06,0,0,0,1.13,4,3.4,3.4,0,0,0,2.66,1.32,3.35,3.35,0,0,0,2.63-1.26,5.85,5.85,0,0,0,1.08-3.86,6.58,6.58,0,0,0-1.1-4.2,3.39,3.39,0,0,0-2.71-1.34,3.26,3.26,0,0,0-2.63,1.29A6.27,6.27,0,0,0,514.57,314.5Z" style="fill:#595959"/><path d="M527.05,314.49q0-3.87,2.15-5.73a6.45,6.45,0,0,1,4.38-1.55,6.27,6.27,0,0,1,4.7,1.88,7.18,7.18,0,0,1,1.82,5.2,9.2,9.2,0,0,1-.81,4.23,5.68,5.68,0,0,1-2.34,2.39,6.83,6.83,0,0,1-3.37.85,6.24,6.24,0,0,1-4.72-1.87A7.45,7.45,0,0,1,527.05,314.49Zm2.43,0a5.9,5.9,0,0,0,1.17,4,3.88,3.88,0,0,0,5.86,0,6,6,0,0,0,1.16-4.07,5.79,5.79,0,0,0-1.17-3.92,3.75,3.75,0,0,0-2.92-1.33,3.71,3.71,0,0,0-2.93,1.33A5.88,5.88,0,0,0,529.48,314.49Z" style="fill:#595959"/><path d="M550.33,321.45V307.52h2.12v2a5,5,0,0,1,4.43-2.29,5.85,5.85,0,0,1,2.32.45,3.65,3.65,0,0,1,1.58,1.19,4.55,4.55,0,0,1,.73,1.74,13,13,0,0,1,.14,2.3v8.56h-2.36V313a6.47,6.47,0,0,0-.28-2.16,2.22,2.22,0,0,0-1-1.14,3.13,3.13,0,0,0-1.64-.43,3.83,3.83,0,0,0-2.61,1c-.73.64-1.09,1.85-1.09,3.63v7.61Z" style="fill:#595959"/><path d="M564.39,314.49c0-2.58.71-4.49,2.15-5.73a6.41,6.41,0,0,1,4.38-1.55,6.25,6.25,0,0,1,4.69,1.88,7.13,7.13,0,0,1,1.82,5.2,9.34,9.34,0,0,1-.8,4.23,5.7,5.7,0,0,1-2.35,2.39,6.82,6.82,0,0,1-3.36.85,6.26,6.26,0,0,1-4.73-1.87A7.49,7.49,0,0,1,564.39,314.49Zm2.42,0a5.9,5.9,0,0,0,1.17,4,3.74,3.74,0,0,0,2.94,1.33,3.69,3.69,0,0,0,2.92-1.34,6,6,0,0,0,1.17-4.07,5.74,5.74,0,0,0-1.18-3.92,3.88,3.88,0,0,0-5.85,0A5.88,5.88,0,0,0,566.81,314.49Z" style="fill:#595959"/><path d="M597.19,317l2.44.31a5.89,5.89,0,0,1-2.13,3.31,7.26,7.26,0,0,1-8.84-.7,7.36,7.36,0,0,1-1.79-5.28,7.71,7.71,0,0,1,1.81-5.45,6.16,6.16,0,0,1,4.7-1.94,5.94,5.94,0,0,1,4.56,1.9,7.56,7.56,0,0,1,1.77,5.35c0,.14,0,.35,0,.63H589.31a5.34,5.34,0,0,0,1.3,3.51,3.84,3.84,0,0,0,2.91,1.22,3.57,3.57,0,0,0,2.22-.68A4.45,4.45,0,0,0,597.19,317Zm-7.75-3.81h7.78a4.71,4.71,0,0,0-.89-2.64,3.62,3.62,0,0,0-2.93-1.36,3.73,3.73,0,0,0-2.73,1.09A4.29,4.29,0,0,0,589.44,313.15Z" style="fill:#595959"/><path d="M601.65,317.29l2.34-.37a3.26,3.26,0,0,0,1.09,2.16,3.87,3.87,0,0,0,2.51.74,3.72,3.72,0,0,0,2.42-.66,2,2,0,0,0,.78-1.55,1.42,1.42,0,0,0-.69-1.26,10.19,10.19,0,0,0-2.42-.8,21.62,21.62,0,0,1-3.59-1.14,3.39,3.39,0,0,1-2-3.19,3.62,3.62,0,0,1,.42-1.72,3.88,3.88,0,0,1,1.16-1.32,5,5,0,0,1,1.5-.69,7.13,7.13,0,0,1,2-.28,8.16,8.16,0,0,1,2.88.47,3.83,3.83,0,0,1,1.83,1.28,5,5,0,0,1,.81,2.16l-2.3.31a2.52,2.52,0,0,0-.92-1.68,3.33,3.33,0,0,0-2.13-.6,3.86,3.86,0,0,0-2.32.54,1.56,1.56,0,0,0-.69,1.26,1.25,1.25,0,0,0,.29.82,2,2,0,0,0,.9.63c.24.09.93.29,2.09.6a30.21,30.21,0,0,1,3.49,1.1,3.49,3.49,0,0,1,1.55,1.24,3.42,3.42,0,0,1,.57,2,4,4,0,0,1-.69,2.22,4.4,4.4,0,0,1-2,1.61,7.19,7.19,0,0,1-2.93.57,6.57,6.57,0,0,1-4.14-1.12A5.26,5.26,0,0,1,601.65,317.29Z" style="fill:#595959"/><path d="M621.18,319.34l.34,2.08a8.8,8.8,0,0,1-1.78.21,4.07,4.07,0,0,1-2-.4,2.31,2.31,0,0,1-1-1.07,8.23,8.23,0,0,1-.29-2.79v-8h-1.73v-1.84h1.73v-3.45l2.34-1.41v4.86h2.38v1.84H618.8v8.14a4.12,4.12,0,0,0,.13,1.3,1,1,0,0,0,.41.46,1.56,1.56,0,0,0,.8.17A7.93,7.93,0,0,0,621.18,319.34Z" style="fill:#595959"/><path d="M632.57,319.73a8.62,8.62,0,0,1-2.52,1.57,7.22,7.22,0,0,1-2.6.46,5.05,5.05,0,0,1-3.53-1.12,3.69,3.69,0,0,1-1.23-2.86,3.87,3.87,0,0,1,1.68-3.23,5.61,5.61,0,0,1,1.7-.77,18.16,18.16,0,0,1,2.1-.36,20.94,20.94,0,0,0,4.21-.81c0-.32,0-.53,0-.62a2.6,2.6,0,0,0-.67-2,4,4,0,0,0-2.69-.8,4.16,4.16,0,0,0-2.46.59,3.49,3.49,0,0,0-1.17,2.06l-2.31-.31a5.77,5.77,0,0,1,1-2.4,4.59,4.59,0,0,1,2.08-1.4,9.28,9.28,0,0,1,3.16-.49,8.35,8.35,0,0,1,2.9.42,3.88,3.88,0,0,1,1.64,1.05,3.74,3.74,0,0,1,.73,1.61,13.09,13.09,0,0,1,.12,2.18v3.14a33.64,33.64,0,0,0,.15,4.17,5.16,5.16,0,0,0,.6,1.67H633A5.1,5.1,0,0,1,632.57,319.73Zm-.19-5.27a17.2,17.2,0,0,1-3.86.89,9.21,9.21,0,0,0-2.06.47,2.09,2.09,0,0,0-.93.77,2,2,0,0,0-.33,1.12,2,2,0,0,0,.72,1.57,3.05,3.05,0,0,0,2.09.63,4.8,4.8,0,0,0,2.42-.59,3.74,3.74,0,0,0,1.57-1.63,5.8,5.8,0,0,0,.38-2.37Zm-1.29-8.67h-1.9l-3-3.67h3.16Z" style="fill:#595959"/><path d="M146.62,353.68l-5.29-13.93h2.49l3,8.34c.32.9.62,1.84.89,2.81.21-.74.5-1.62.88-2.65l3.09-8.5h2.43l-5.27,13.93Z" style="fill:#595959"/><path d="M156.2,337.17v-2.72h2.36v2.72Zm0,16.51V339.75h2.36v13.93Z" style="fill:#595959"/><path d="M161.72,354.83l2.29.34a2.21,2.21,0,0,0,.8,1.55,4,4,0,0,0,2.4.65,4.26,4.26,0,0,0,2.53-.65,3.21,3.21,0,0,0,1.21-1.84,15.17,15.17,0,0,0,.17-3,4.85,4.85,0,0,1-3.86,1.83,5.26,5.26,0,0,1-4.44-2.08,8,8,0,0,1-1.58-5A9.08,9.08,0,0,1,162,343a5.7,5.7,0,0,1,2.09-2.61,5.64,5.64,0,0,1,3.22-.91,5,5,0,0,1,4.06,2v-1.68h2.18v12a11.5,11.5,0,0,1-.66,4.61,4.87,4.87,0,0,1-2.1,2.14,7.24,7.24,0,0,1-3.54.79,6.69,6.69,0,0,1-4-1.12A3.8,3.8,0,0,1,161.72,354.83Zm1.95-8.37a6,6,0,0,0,1.09,4,3.44,3.44,0,0,0,2.73,1.26,3.49,3.49,0,0,0,2.72-1.25,5.82,5.82,0,0,0,1.11-3.93,5.67,5.67,0,0,0-1.14-3.85,3.49,3.49,0,0,0-2.73-1.3,3.43,3.43,0,0,0-2.68,1.28A5.68,5.68,0,0,0,163.67,346.46Z" style="fill:#595959"/><path d="M186.62,349.19l2.44.3a6,6,0,0,1-2.14,3.32,7.24,7.24,0,0,1-8.83-.7,7.34,7.34,0,0,1-1.79-5.28,7.66,7.66,0,0,1,1.81-5.45,6.09,6.09,0,0,1,4.69-1.94,6,6,0,0,1,4.57,1.9,7.54,7.54,0,0,1,1.77,5.35c0,.14,0,.35,0,.63H178.74a5.29,5.29,0,0,0,1.3,3.51,3.85,3.85,0,0,0,2.91,1.22,3.63,3.63,0,0,0,2.21-.68A4.58,4.58,0,0,0,186.62,349.19Zm-7.75-3.82h7.77a4.65,4.65,0,0,0-.89-2.63,3.6,3.6,0,0,0-2.92-1.36,3.77,3.77,0,0,0-2.74,1.08A4.37,4.37,0,0,0,178.87,345.37Z" style="fill:#595959"/><path d="M192,353.68V339.75h2.12v2a5,5,0,0,1,4.44-2.29,5.8,5.8,0,0,1,2.31.45,3.64,3.64,0,0,1,1.58,1.18,4.61,4.61,0,0,1,.74,1.75,14.38,14.38,0,0,1,.13,2.29v8.57H201V345.2a6.36,6.36,0,0,0-.28-2.15,2.22,2.22,0,0,0-1-1.14,3,3,0,0,0-1.64-.43,3.8,3.8,0,0,0-2.6,1c-.73.64-1.1,1.85-1.1,3.63v7.61Z" style="fill:#595959"/><path d="M212.11,351.56l.34,2.09a8.72,8.72,0,0,1-1.78.21,4.09,4.09,0,0,1-2-.41,2.22,2.22,0,0,1-1-1.07,8.2,8.2,0,0,1-.29-2.78v-8h-1.73v-1.84h1.73V336.3l2.35-1.42v4.87h2.37v1.84h-2.37v8.14a4.33,4.33,0,0,0,.12,1.3,1,1,0,0,0,.41.46,1.59,1.59,0,0,0,.8.17A6.61,6.61,0,0,0,212.11,351.56Z" style="fill:#595959"/><path d="M224,349.19l2.44.3a5.93,5.93,0,0,1-2.14,3.32,7.24,7.24,0,0,1-8.83-.7,7.39,7.39,0,0,1-1.79-5.28,7.66,7.66,0,0,1,1.81-5.45,6.1,6.1,0,0,1,4.69-1.94,6,6,0,0,1,4.57,1.9,7.54,7.54,0,0,1,1.77,5.35c0,.14,0,.35,0,.63H216.07a5.34,5.34,0,0,0,1.3,3.51,3.88,3.88,0,0,0,2.91,1.22,3.68,3.68,0,0,0,2.22-.68A4.57,4.57,0,0,0,224,349.19Zm-7.75-3.82H224a4.72,4.72,0,0,0-.89-2.63,3.63,3.63,0,0,0-2.93-1.36,3.76,3.76,0,0,0-2.73,1.08A4.33,4.33,0,0,0,216.2,345.37Z" style="fill:#595959"/><path d="M236.71,359l-.26-2.22a5.18,5.18,0,0,0,1.35.21,2.68,2.68,0,0,0,1.26-.26,2.15,2.15,0,0,0,.77-.73,11.76,11.76,0,0,0,.72-1.76c0-.13.12-.33.21-.58l-5.28-13.95H238l2.9,8.06c.37,1,.71,2.1,1,3.23a30.6,30.6,0,0,1,1-3.17l3-8.12h2.36l-5.3,14.16a27.11,27.11,0,0,1-1.33,3.16,4.64,4.64,0,0,1-1.44,1.71,3.35,3.35,0,0,1-1.94.55A4.82,4.82,0,0,1,236.71,359Z" style="fill:#595959"/><path d="M257.7,353.68V339.75h2.13v2a5,5,0,0,1,4.43-2.29,5.8,5.8,0,0,1,2.31.45,3.58,3.58,0,0,1,1.58,1.18,4.61,4.61,0,0,1,.74,1.75,13.25,13.25,0,0,1,.13,2.29v8.57h-2.36V345.2a6.12,6.12,0,0,0-.28-2.15,2.24,2.24,0,0,0-1-1.14,3.08,3.08,0,0,0-1.65-.43,3.82,3.82,0,0,0-2.6,1c-.73.64-1.1,1.85-1.1,3.63v7.61Z" style="fill:#595959"/><path d="M271.76,346.71q0-3.87,2.15-5.73a6.49,6.49,0,0,1,4.38-1.54,6.22,6.22,0,0,1,4.69,1.88,7.12,7.12,0,0,1,1.83,5.2,9.12,9.12,0,0,1-.81,4.22,5.72,5.72,0,0,1-2.35,2.4,6.77,6.77,0,0,1-3.36.85,6.27,6.27,0,0,1-4.73-1.88A7.49,7.49,0,0,1,271.76,346.71Zm2.43,0a5.93,5.93,0,0,0,1.16,4,3.88,3.88,0,0,0,5.86,0,6.06,6.06,0,0,0,1.17-4.08,5.76,5.76,0,0,0-1.17-3.91,3.9,3.9,0,0,0-5.86,0A5.91,5.91,0,0,0,274.19,346.71Z" style="fill:#595959"/><path d="M294.6,354.83l2.3.34a2.17,2.17,0,0,0,.8,1.55,4,4,0,0,0,2.4.65,4.28,4.28,0,0,0,2.53-.65,3.25,3.25,0,0,0,1.2-1.84,14.42,14.42,0,0,0,.17-3,4.83,4.83,0,0,1-3.85,1.83,5.27,5.27,0,0,1-4.45-2.08,8,8,0,0,1-1.57-5,9.24,9.24,0,0,1,.72-3.67,5.76,5.76,0,0,1,2.09-2.61,5.68,5.68,0,0,1,3.22-.91,5,5,0,0,1,4.07,2v-1.68h2.17v12a11.5,11.5,0,0,1-.66,4.61,4.82,4.82,0,0,1-2.1,2.14,7.17,7.17,0,0,1-3.53.79,6.75,6.75,0,0,1-4-1.12A3.82,3.82,0,0,1,294.6,354.83Zm2-8.37a6.07,6.07,0,0,0,1.08,4,3.6,3.6,0,0,0,5.46,0,5.87,5.87,0,0,0,1.1-3.93,5.73,5.73,0,0,0-1.13-3.85,3.51,3.51,0,0,0-2.74-1.3,3.4,3.4,0,0,0-2.67,1.28A5.62,5.62,0,0,0,296.56,346.46Z" style="fill:#595959"/><path d="M319.5,349.19l2.44.3a5.88,5.88,0,0,1-2.14,3.32,7.24,7.24,0,0,1-8.83-.7,7.39,7.39,0,0,1-1.79-5.28,7.71,7.71,0,0,1,1.81-5.45,6.11,6.11,0,0,1,4.7-1.94,5.94,5.94,0,0,1,4.56,1.9,7.54,7.54,0,0,1,1.77,5.35c0,.14,0,.35,0,.63H311.62a5.34,5.34,0,0,0,1.3,3.51,3.88,3.88,0,0,0,2.91,1.22,3.64,3.64,0,0,0,2.22-.68A4.57,4.57,0,0,0,319.5,349.19Zm-7.75-3.82h7.78a4.65,4.65,0,0,0-.89-2.63,3.62,3.62,0,0,0-2.93-1.36,3.76,3.76,0,0,0-2.73,1.08A4.33,4.33,0,0,0,311.75,345.37Z" style="fill:#595959"/><path d="M324.91,353.68V339.75H327v2a5,5,0,0,1,4.43-2.29,5.89,5.89,0,0,1,2.32.45,3.64,3.64,0,0,1,1.58,1.18,4.6,4.6,0,0,1,.73,1.75,13.25,13.25,0,0,1,.13,2.29v8.57h-2.36V345.2a6.41,6.41,0,0,0-.27-2.15,2.26,2.26,0,0,0-1-1.14,3.08,3.08,0,0,0-1.65-.43,3.82,3.82,0,0,0-2.6,1c-.73.64-1.09,1.85-1.09,3.63v7.61Z" style="fill:#595959"/><path d="M349.38,349.19l2.43.3a5.92,5.92,0,0,1-2.13,3.32,7.26,7.26,0,0,1-8.84-.7,7.39,7.39,0,0,1-1.79-5.28,7.71,7.71,0,0,1,1.81-5.45,6.13,6.13,0,0,1,4.7-1.94,5.94,5.94,0,0,1,4.56,1.9,7.54,7.54,0,0,1,1.77,5.35c0,.14,0,.35,0,.63H341.49a5.34,5.34,0,0,0,1.3,3.51,3.88,3.88,0,0,0,2.91,1.22,3.64,3.64,0,0,0,2.22-.68A4.58,4.58,0,0,0,349.38,349.19Zm-7.75-3.82h7.77a4.65,4.65,0,0,0-.89-2.63,3.61,3.61,0,0,0-2.92-1.36,3.77,3.77,0,0,0-2.74,1.08A4.27,4.27,0,0,0,341.63,345.37Z" style="fill:#595959"/><path d="M354.75,353.68V339.75h2.13v2.11a5.63,5.63,0,0,1,1.5-1.95,2.57,2.57,0,0,1,1.51-.47,4.65,4.65,0,0,1,2.43.75l-.82,2.2a3.28,3.28,0,0,0-1.73-.52,2.26,2.26,0,0,0-1.39.47,2.48,2.48,0,0,0-.87,1.29,9,9,0,0,0-.4,2.75v7.3Z" style="fill:#595959"/><path d="M372.81,352a8.79,8.79,0,0,1-2.53,1.57,7.18,7.18,0,0,1-2.6.46,5.05,5.05,0,0,1-3.53-1.12,3.71,3.71,0,0,1-1.23-2.87,3.77,3.77,0,0,1,.46-1.86,3.92,3.92,0,0,1,1.22-1.36,6,6,0,0,1,1.7-.78,17.24,17.24,0,0,1,2.1-.35,22.13,22.13,0,0,0,4.21-.81c0-.33,0-.53,0-.62a2.58,2.58,0,0,0-.67-2,3.94,3.94,0,0,0-2.68-.8,4.17,4.17,0,0,0-2.46.58,3.61,3.61,0,0,0-1.18,2.07l-2.3-.32a5.72,5.72,0,0,1,1-2.39,4.47,4.47,0,0,1,2.09-1.4,9.24,9.24,0,0,1,3.16-.49,8.42,8.42,0,0,1,2.9.41,3.85,3.85,0,0,1,1.63,1.06,3.69,3.69,0,0,1,.74,1.61,13,13,0,0,1,.12,2.17v3.15a33.54,33.54,0,0,0,.15,4.16,5.52,5.52,0,0,0,.59,1.68h-2.46A4.94,4.94,0,0,1,372.81,352Zm-.2-5.27a17.65,17.65,0,0,1-3.85.89,9.07,9.07,0,0,0-2.06.47,2,2,0,0,0-1.26,1.89,2,2,0,0,0,.71,1.57,3.09,3.09,0,0,0,2.09.63,4.86,4.86,0,0,0,2.43-.6,3.61,3.61,0,0,0,1.56-1.63,5.75,5.75,0,0,0,.38-2.36Z" style="fill:#595959"/><path d="M378.66,353.68V339.75h2.12v2a5,5,0,0,1,4.43-2.29,5.89,5.89,0,0,1,2.32.45,3.64,3.64,0,0,1,1.58,1.18,4.6,4.6,0,0,1,.73,1.75,13.25,13.25,0,0,1,.13,2.29v8.57h-2.36V345.2a6.41,6.41,0,0,0-.27-2.15,2.26,2.26,0,0,0-1-1.14,3.08,3.08,0,0,0-1.65-.43,3.82,3.82,0,0,0-2.6,1c-.73.64-1.09,1.85-1.09,3.63v7.61Z" style="fill:#595959"/><path d="M410.14,348.57l2.32.31a6,6,0,0,1-1.95,3.75,5.62,5.62,0,0,1-3.84,1.36,6,6,0,0,1-4.6-1.87,7.56,7.56,0,0,1-1.74-5.35,9.67,9.67,0,0,1,.75-3.95,5.23,5.23,0,0,1,2.27-2.54,6.81,6.81,0,0,1,3.33-.84,5.8,5.8,0,0,1,3.71,1.14,5.28,5.28,0,0,1,1.85,3.26l-2.3.35a3.83,3.83,0,0,0-1.16-2.11,3,3,0,0,0-2-.7,3.66,3.66,0,0,0-2.9,1.27,6.12,6.12,0,0,0-1.11,4.05,6.33,6.33,0,0,0,1.07,4.08,3.5,3.5,0,0,0,2.81,1.27,3.29,3.29,0,0,0,2.32-.85A4.28,4.28,0,0,0,410.14,348.57Z" style="fill:#595959"/><path d="M413.6,346.71q0-3.87,2.15-5.73a6.49,6.49,0,0,1,4.38-1.54,6.24,6.24,0,0,1,4.7,1.88,7.16,7.16,0,0,1,1.82,5.2,9.12,9.12,0,0,1-.81,4.22,5.72,5.72,0,0,1-2.35,2.4,6.77,6.77,0,0,1-3.36.85,6.28,6.28,0,0,1-4.73-1.88A7.49,7.49,0,0,1,413.6,346.71Zm2.43,0a6,6,0,0,0,1.16,4,3.88,3.88,0,0,0,5.86,0,6.06,6.06,0,0,0,1.17-4.08,5.76,5.76,0,0,0-1.17-3.91,3.9,3.9,0,0,0-5.86,0A6,6,0,0,0,416,346.71Z" style="fill:#595959"/><path d="M429.42,353.68V339.75h2.12v2a5,5,0,0,1,4.43-2.29,5.89,5.89,0,0,1,2.32.45,3.64,3.64,0,0,1,1.58,1.18,4.6,4.6,0,0,1,.73,1.75,13.25,13.25,0,0,1,.13,2.29v8.57h-2.36V345.2a6.41,6.41,0,0,0-.27-2.15,2.26,2.26,0,0,0-1-1.14,3.08,3.08,0,0,0-1.65-.43,3.82,3.82,0,0,0-2.6,1c-.73.64-1.09,1.85-1.09,3.63v7.61Z" style="fill:#595959"/><path d="M443.47,346.71q0-3.87,2.15-5.73a6.49,6.49,0,0,1,4.38-1.54,6.24,6.24,0,0,1,4.7,1.88,7.16,7.16,0,0,1,1.82,5.2,9.12,9.12,0,0,1-.81,4.22,5.7,5.7,0,0,1-2.34,2.4A6.83,6.83,0,0,1,450,354a6.28,6.28,0,0,1-4.73-1.88A7.49,7.49,0,0,1,443.47,346.71Zm2.43,0a6,6,0,0,0,1.16,4,3.89,3.89,0,0,0,5.87,0,6.11,6.11,0,0,0,1.16-4.08,5.76,5.76,0,0,0-1.17-3.91,3.9,3.9,0,0,0-5.86,0A6,6,0,0,0,445.9,346.71Z" style="fill:#595959"/><path d="M468.37,348.57l2.32.31a6,6,0,0,1-1.94,3.75A5.66,5.66,0,0,1,464.9,354a6,6,0,0,1-4.6-1.87,7.56,7.56,0,0,1-1.74-5.35,9.67,9.67,0,0,1,.75-3.95,5.2,5.2,0,0,1,2.28-2.54,6.77,6.77,0,0,1,3.32-.84,5.8,5.8,0,0,1,3.71,1.14,5.28,5.28,0,0,1,1.85,3.26l-2.29.35a3.89,3.89,0,0,0-1.16-2.11,3,3,0,0,0-2-.7,3.64,3.64,0,0,0-2.89,1.27A6.07,6.07,0,0,0,461,346.7a6.26,6.26,0,0,0,1.08,4.08,3.48,3.48,0,0,0,2.8,1.27,3.29,3.29,0,0,0,2.32-.85A4.23,4.23,0,0,0,468.37,348.57Z" style="fill:#595959"/><path d="M472.73,337.17v-2.72h2.36v2.72Zm0,16.51V339.75h2.36v13.93Z" style="fill:#595959"/><path d="M478.68,353.68V339.75h2.11v1.95a4.92,4.92,0,0,1,1.75-1.64,4.82,4.82,0,0,1,2.47-.62,4.56,4.56,0,0,1,2.54.64,3.47,3.47,0,0,1,1.4,1.79,5,5,0,0,1,4.3-2.43,4.28,4.28,0,0,1,3.19,1.14,4.94,4.94,0,0,1,1.11,3.54v9.56H495.2V344.9a6.3,6.3,0,0,0-.23-2,2,2,0,0,0-.83-1,2.62,2.62,0,0,0-1.42-.38,3.29,3.29,0,0,0-2.43,1,4.27,4.27,0,0,0-1,3.12v8.1H487v-9.05a4,4,0,0,0-.57-2.36,2.19,2.19,0,0,0-1.89-.79,3.51,3.51,0,0,0-1.84.52,3.05,3.05,0,0,0-1.23,1.54,8.7,8.7,0,0,0-.38,2.91v7.23Z" style="fill:#595959"/><path d="M501.06,337.17v-2.72h2.36v2.72Zm0,16.51V339.75h2.36v13.93Z" style="fill:#595959"/><path d="M516.55,349.19l2.44.3a6,6,0,0,1-2.14,3.32,7.24,7.24,0,0,1-8.83-.7,7.39,7.39,0,0,1-1.79-5.28,7.66,7.66,0,0,1,1.81-5.45,6.1,6.1,0,0,1,4.69-1.94,6,6,0,0,1,4.57,1.9,7.54,7.54,0,0,1,1.77,5.35c0,.14,0,.35,0,.63H508.67a5.34,5.34,0,0,0,1.3,3.51,3.88,3.88,0,0,0,2.91,1.22,3.63,3.63,0,0,0,2.21-.68A4.51,4.51,0,0,0,516.55,349.19Zm-7.75-3.82h7.78a4.64,4.64,0,0,0-.9-2.63,3.6,3.6,0,0,0-2.92-1.36,3.76,3.76,0,0,0-2.73,1.08A4.33,4.33,0,0,0,508.8,345.37Z" style="fill:#595959"/><path d="M522,353.68V339.75h2.13v2a5,5,0,0,1,4.43-2.29,5.8,5.8,0,0,1,2.31.45,3.58,3.58,0,0,1,1.58,1.18,4.61,4.61,0,0,1,.74,1.75,13.25,13.25,0,0,1,.13,2.29v8.57h-2.36V345.2a6.12,6.12,0,0,0-.28-2.15,2.24,2.24,0,0,0-1-1.14,3.08,3.08,0,0,0-1.65-.43,3.82,3.82,0,0,0-2.6,1c-.73.64-1.1,1.85-1.1,3.63v7.61Z" style="fill:#595959"/><path d="M542,351.56l.34,2.09a8.72,8.72,0,0,1-1.78.21,4,4,0,0,1-2-.41,2.2,2.2,0,0,1-1-1.07,8.48,8.48,0,0,1-.29-2.78v-8h-1.73v-1.84h1.73V336.3l2.35-1.42v4.87H542v1.84h-2.37v8.14a4.33,4.33,0,0,0,.12,1.3,1.07,1.07,0,0,0,.41.46,1.63,1.63,0,0,0,.81.17A6.61,6.61,0,0,0,542,351.56Z" style="fill:#595959"/><path d="M543.47,346.71q0-3.87,2.15-5.73a6.49,6.49,0,0,1,4.38-1.54,6.24,6.24,0,0,1,4.7,1.88,7.16,7.16,0,0,1,1.82,5.2,9.12,9.12,0,0,1-.81,4.22,5.72,5.72,0,0,1-2.35,2.4A6.77,6.77,0,0,1,550,354a6.28,6.28,0,0,1-4.73-1.88A7.49,7.49,0,0,1,543.47,346.71Zm2.43,0a6,6,0,0,0,1.16,4,3.89,3.89,0,0,0,5.87,0,6.11,6.11,0,0,0,1.16-4.08,5.76,5.76,0,0,0-1.17-3.91,3.9,3.9,0,0,0-5.86,0A6,6,0,0,0,545.9,346.71Z" style="fill:#595959"/></g></svg>