<svg id="Capa_1" data-name="Capa 1" xmlns="http://www.w3.org/2000/svg" viewBox="0 0 588.14 491.61"><circle cx="300.44" cy="227.63" r="202.52" style="fill:#474ca0;opacity:0.4"/><circle cx="300.44" cy="227.63" r="162.64" style="fill:#474ca0;opacity:0.30000000000000004"/><circle cx="300.44" cy="227.63" r="121.23" style="fill:#474ca0;opacity:0.2"/><circle cx="300.44" cy="227.63" r="79.83" style="fill:#474ca0;opacity:0.2"/><circle cx="300.44" cy="227.63" r="41.16" style="fill:#474ca0;opacity:0.15"/><g style="opacity:0.5"><line x1="156.9" y1="84.27" x2="443.98" y2="369.96" style="stroke:#fff;stroke-miterlimit:10"/><line x1="443.98" y1="84.27" x2="156.9" y2="369.96" style="stroke:#fff;stroke-miterlimit:10"/><line x1="300.44" y1="24.6" x2="300.44" y2="429.63" style="stroke:#fff;stroke-miterlimit:10"/><line x1="97.93" y1="227.11" x2="502.96" y2="227.11" style="stroke:#fff;stroke-miterlimit:10"/></g><path d="M189.08,243.76c20.65,7.8,44.14,9.07,64.24,18.08,12.44,5.59,24.24,19.4,31.28,30.82,3.89,6.29,11.5,20.72,20,14,6.48-5.13,10.38-15,15-21.78,9.2-13.45,23.77-22.3,39-27.77,24.73-8.89,51.14-11,75.9-19.8,5.28-1.89,13-3.41,12.18-10.21-.51-4.32-3.12-5.32-6.56-7.27-13.48-7.62-27.67-11.91-42.15-17.12-16.8-6.05-37.45-12.88-50.93-25.17-17.41-15.87-23-43.34-42.77-57.36a46.89,46.89,0,0,0-24.18-8.26c-13.68-.68-27.8-1.15-41.5-.48-15.51.76-36.88,1.34-49.95,10-15.85,10.51-20.52,33-25.3,49.87-2.94,10.42-8.08,20.89-9.21,31.73C151.77,226.28,170.51,236.74,189.08,243.76Z" style="fill:#d13142;stroke:#d13142;stroke-miterlimit:10;opacity:0.30000000000000004"/><circle cx="189.59" cy="118.54" r="3.55" style="fill:#d13142;stroke:#d13142;stroke-miterlimit:10"/><circle cx="156.9" cy="225.83" r="3.55" style="fill:#d13142;stroke:#d13142;stroke-miterlimit:10"/><circle cx="261.33" cy="263.31" r="3.55" style="fill:#d13142;stroke:#d13142;stroke-miterlimit:10"/><circle cx="446.78" cy="225.83" r="3.55" style="fill:#d13142;stroke:#d13142;stroke-miterlimit:10"/><circle cx="347.03" cy="179.04" r="3.55" style="fill:#d13142;stroke:#d13142;stroke-miterlimit:10"/><circle cx="299.14" cy="116.74" r="3.55" style="fill:#d13142;stroke:#d13142;stroke-miterlimit:10"/><circle cx="338.81" cy="264.81" r="3.55" style="fill:#d13142;stroke:#d13142;stroke-miterlimit:10"/><path d="M189.08,243.76c20.65,7.8,44.14,9.07,64.24,18.08,12.44,5.59,24.24,19.4,31.28,30.82,3.89,6.29,11.5,20.72,20,14,6.48-5.13,10.38-15,15-21.78,9.2-13.45,23.77-22.3,39-27.77,24.73-8.89,51.14-11,75.9-19.8,5.28-1.89,13-3.41,12.18-10.21-.51-4.32-3.12-5.32-6.56-7.27-13.48-7.62-27.67-11.91-42.15-17.12-16.8-6.05-37.45-12.88-50.93-25.17-17.41-15.87-23-43.34-42.77-57.36a46.89,46.89,0,0,0-24.18-8.26c-13.68-.68-27.8-1.15-41.5-.48-15.51.76-36.88,1.34-49.95,10-15.85,10.51-20.52,33-25.3,49.87-2.94,10.42-8.08,20.89-9.21,31.73C151.77,226.28,170.51,236.74,189.08,243.76Z" style="fill:none;stroke:#d13142;stroke-miterlimit:10"/><path d="M289.9,282.31c-2,8.22-5.31,15.54-2.67,24,2.23,7.12,8.56,13.81,16.51,10.34,14.56-6.36,29.9-15.56,43-24.49,7.61-5.19,14.42-11.86,22.35-16.59,4.28-2.55,9.15-4,13.49-6.38,10-5.49,21.14-15.09,27.19-24.75,8.88-14.17,13.17-32.15,6.74-47.86-4.75-11.65-9.79-23.83-17.41-33.89-5.2-6.88-11.38-10.54-18-15.7-13.79-10.72-29.63-4.21-46.19-5.65-19.39-1.69-37.64-9.36-56.2-14.71-11.46-3.31-24.44-5.06-35.36-9.56-19.27-7.94-37.08-18.66-56.89-25.42-7-2.37-19.54-11.32-27.06-7.54a6.28,6.28,0,0,0-1.73,1.24c-3.76,3.81-1.1,11.42-.33,16,1.68,10.08,4.75,19.89,8.06,29.55,5.69,16.62,10.16,34.63,19.42,49.79,4.88,8,10.31,15.61,15.17,23.62,3.62,6,5.78,10.11,11.32,14.46,5,3.94,9.26,11.5,15.09,14.05,5.46,2.39,11.95.43,17.64.65,7.69.29,15.17.94,22.91,1a112.74,112.74,0,0,0,12.93-.38c2.22-.22,7.5-1.06,9.43-.5C299.73,236.67,291.71,274.78,289.9,282.31Z" style="fill:#f05d53;opacity:0.30000000000000004"/><path d="M289.9,282.31c-2,8.22-5.31,15.54-2.67,24,2.23,7.12,8.56,13.81,16.51,10.34,14.56-6.36,29.9-15.56,43-24.49,7.61-5.19,14.42-11.86,22.35-16.59,4.28-2.55,9.15-4,13.49-6.38,10-5.49,21.14-15.09,27.19-24.75,8.88-14.17,13.17-32.15,6.74-47.86-4.75-11.65-9.79-23.83-17.41-33.89-5.2-6.88-11.38-10.54-18-15.7-13.79-10.72-29.63-4.21-46.19-5.65-19.39-1.69-37.64-9.36-56.2-14.71-11.46-3.31-24.44-5.06-35.36-9.56-19.27-7.94-37.08-18.66-56.89-25.42-7-2.37-19.54-11.32-27.06-7.54a6.28,6.28,0,0,0-1.73,1.24c-3.76,3.81-1.1,11.42-.33,16,1.68,10.08,4.75,19.89,8.06,29.55,5.69,16.62,10.16,34.63,19.42,49.79,4.88,8,10.31,15.61,15.17,23.62,3.62,6,5.78,10.11,11.32,14.46,5,3.94,9.26,11.5,15.09,14.05,5.46,2.39,11.95.43,17.64.65,7.69.29,15.17.94,22.91,1a112.74,112.74,0,0,0,12.93-.38c2.22-.22,7.5-1.06,9.43-.5C299.73,236.67,291.71,274.78,289.9,282.31Z" style="fill:none;stroke:#f05d53;stroke-miterlimit:10"/><circle cx="219.64" cy="225.83" r="3.55" style="fill:#f05d53"/><circle cx="292.37" cy="235.09" r="3.55" style="fill:#f05d53"/><circle cx="300.37" cy="316.26" r="3.55" style="fill:#f05d53"/><circle cx="357.76" cy="284.47" r="3.55" style="fill:#f05d53"/><circle cx="380.28" cy="146.27" r="3.55" style="fill:#f05d53"/><circle cx="300.37" cy="133.71" r="3.55" style="fill:#f05d53"/><circle cx="155.68" cy="84.27" r="3.55" style="fill:#f05d53"/><path d="M144.1,190.79c11.75-17.11,32.67-28.79,50.32-39.1,11-6.45,21.26-15.93,33.62-19.78a145.79,145.79,0,0,1,32-6.45c17.11-1.34,40.23-12.52,51.17,6.55,5.91,10.31,9.3,23.22,10.54,35,1.12,10.61,1.64,21,8.89,29.44,10.9,12.71,26.31,12.25,41.54,12.25,13.9,0,28.94,1.09,41.68,7,11.53,5.33,9.44,13.63-.83,20.83-17.75,12.44-40.34,18-60.37,26.36-18,7.5-29.95,18.33-37.8,35.62-2.13,4.68-4.08,12.5-10.65,11.53-10.51-1.55-17.09-20.81-19.49-29.42-3.57-12.76,3.66-27.72-2.81-39.82-6.14-11.46-21.87-12.16-33.34-12.18-21,0-41.87.09-62.8.87-11.59.44-23.18.2-34.77.13-10.13-.07-26.78.45-22.14-14.06C131.86,206.26,138.7,198.65,144.1,190.79Z" style="fill:#62211d;opacity:0.30000000000000004"/><path d="M144.1,190.79c11.75-17.11,32.67-28.79,50.32-39.1,11-6.45,21.26-15.93,33.62-19.78a145.79,145.79,0,0,1,32-6.45c17.11-1.34,40.23-12.52,51.17,6.55,5.91,10.31,9.3,23.22,10.54,35,1.12,10.61,1.64,21,8.89,29.44,10.9,12.71,26.31,12.25,41.54,12.25,13.9,0,28.94,1.09,41.68,7,11.53,5.33,9.44,13.63-.83,20.83-17.75,12.44-40.34,18-60.37,26.36-18,7.5-29.95,18.33-37.8,35.62-2.13,4.68-4.08,12.5-10.65,11.53-10.51-1.55-17.09-20.81-19.49-29.42-3.57-12.76,3.66-27.72-2.81-39.82-6.14-11.46-21.87-12.16-33.34-12.18-21,0-41.87.09-62.8.87-11.59.44-23.18.2-34.77.13-10.13-.07-26.78.45-22.14-14.06C131.86,206.26,138.7,198.65,144.1,190.79Z" style="fill:none;stroke:#62211d;stroke-miterlimit:10"/><circle cx="131.66" cy="225.83" r="3.55" style="fill:#62211d"/><circle cx="282.57" cy="243.1" r="3.55" style="fill:#62211d"/><circle cx="298.95" cy="306.29" r="3.55" style="fill:#62211d"/><circle cx="343.32" cy="268.79" r="3.55" style="fill:#62211d"/><circle cx="421.71" cy="227.11" r="3.55" style="fill:#62211d"/><circle cx="331.25" cy="196.95" r="3.55" style="fill:#62211d"/><circle cx="212.53" cy="140.72" r="3.55" style="fill:#62211d"/><circle cx="300.37" cy="123.85" r="3.55" style="fill:#62211d"/><path d="M79.32,39.51V29.59H75.78v-2h9.49v2H81.73v9.92Z"/><path d="M85,35.06a4.74,4.74,0,0,1,.56-2.21,4,4,0,0,1,1.59-1.63,4.8,4.8,0,0,1,2.3-.56,4.32,4.32,0,0,1,3.22,1.28A4.39,4.39,0,0,1,94,35.16a4.46,4.46,0,0,1-1.27,3.25,4.28,4.28,0,0,1-3.19,1.29,5.14,5.14,0,0,1-2.27-.53,3.74,3.74,0,0,1-1.64-1.58A5.31,5.31,0,0,1,85,35.06Zm2.34.12a2.84,2.84,0,0,0,.62,2,1.92,1.92,0,0,0,1.5.69A1.94,1.94,0,0,0,91,37.15a2.91,2.91,0,0,0,.6-2,2.89,2.89,0,0,0-.6-2,1.93,1.93,0,0,0-1.51-.68,1.91,1.91,0,0,0-1.5.68A2.85,2.85,0,0,0,87.38,35.18Z"/><path d="M100.42,27.57h4.77a15.42,15.42,0,0,1,2.12.11,3.09,3.09,0,0,1,1.24.5,3.13,3.13,0,0,1,.92,1,2.85,2.85,0,0,1-1.31,4,3.09,3.09,0,0,1,1.67,1.09,2.82,2.82,0,0,1,.59,1.8,3.57,3.57,0,0,1-.38,1.58,3.18,3.18,0,0,1-1,1.23,3.41,3.41,0,0,1-1.62.57c-.4,0-1.37.07-2.91.08h-4.06Zm2.41,2v2.76h1.58c.94,0,1.52,0,1.75,0a1.56,1.56,0,0,0,1-.42,1.27,1.27,0,0,0,.36-.94,1.28,1.28,0,0,0-.31-.9,1.37,1.37,0,0,0-.9-.42c-.24,0-.93,0-2.07,0Zm0,4.75v3.2h2.23a10.32,10.32,0,0,0,1.65-.08,1.4,1.4,0,0,0,1.22-1.49,1.57,1.57,0,0,0-.26-.91,1.55,1.55,0,0,0-.76-.55,8.31,8.31,0,0,0-2.13-.17Z"/><path d="M117.45,36.75l2.28.39a3.72,3.72,0,0,1-1.39,1.91,4.11,4.11,0,0,1-2.37.65,3.87,3.87,0,0,1-3.34-1.47,5,5,0,0,1-.86-3,4.77,4.77,0,0,1,1.13-3.37,3.7,3.7,0,0,1,2.84-1.22,3.85,3.85,0,0,1,3.05,1.28,5.61,5.61,0,0,1,1.06,3.9h-5.73a2.37,2.37,0,0,0,.55,1.59A1.78,1.78,0,0,0,116,38a1.46,1.46,0,0,0,.91-.29A1.82,1.82,0,0,0,117.45,36.75Zm.13-2.31a2.19,2.19,0,0,0-.51-1.51,1.65,1.65,0,0,0-2.43,0,2.16,2.16,0,0,0-.48,1.48Z"/><path d="M136.52,39.51H133.9l-1.05-2.71h-4.77l-1,2.71h-2.56l4.65-11.94h2.55Zm-4.44-4.73-1.64-4.43-1.62,4.43Z"/><path d="M57.63,55.64,60,55.41a2.87,2.87,0,0,0,.86,1.74,2.58,2.58,0,0,0,1.74.55,2.68,2.68,0,0,0,1.76-.49,1.47,1.47,0,0,0,.59-1.15,1,1,0,0,0-.25-.72,1.85,1.85,0,0,0-.87-.52c-.28-.1-.92-.27-1.93-.52a6.64,6.64,0,0,1-2.72-1.18,3.13,3.13,0,0,1-1.1-2.41,3.09,3.09,0,0,1,.52-1.7,3.21,3.21,0,0,1,1.49-1.21,5.91,5.91,0,0,1,2.35-.42,5,5,0,0,1,3.39,1A3.49,3.49,0,0,1,67,51l-2.41.1a2,2,0,0,0-.67-1.32,2.4,2.4,0,0,0-1.52-.4,2.76,2.76,0,0,0-1.65.43.87.87,0,0,0-.38.74.94.94,0,0,0,.36.73,6.29,6.29,0,0,0,2.21.79,12.29,12.29,0,0,1,2.61.86,3.38,3.38,0,0,1,1.32,1.22,3.59,3.59,0,0,1,.47,1.9A3.53,3.53,0,0,1,66.77,58a3.41,3.41,0,0,1-1.61,1.33,6.78,6.78,0,0,1-2.6.44,5.17,5.17,0,0,1-3.48-1.05A4.55,4.55,0,0,1,57.63,55.64Z"/><path d="M69.18,50.88h2.11v1.18A3.41,3.41,0,0,1,74,50.68a2.89,2.89,0,0,1,1.44.34,2.64,2.64,0,0,1,1,1,4.07,4.07,0,0,1,1.23-1,3,3,0,0,1,1.41-.34,3.1,3.1,0,0,1,1.61.39,2.38,2.38,0,0,1,1,1.13,4.89,4.89,0,0,1,.24,1.8v5.53H79.62v-5a3.61,3.61,0,0,0-.24-1.66,1.08,1.08,0,0,0-1-.49,1.58,1.58,0,0,0-.9.29,1.66,1.66,0,0,0-.61.86,6,6,0,0,0-.19,1.79v4.16H74.41V54.79a6.63,6.63,0,0,0-.12-1.63,1,1,0,0,0-.38-.55,1.19,1.19,0,0,0-.7-.18,1.66,1.66,0,0,0-.95.29,1.54,1.54,0,0,0-.6.82,5.78,5.78,0,0,0-.19,1.78v4.21H69.18Z"/><path d="M85.9,53.51l-2.08-.37A3.25,3.25,0,0,1,85,51.28a4.41,4.41,0,0,1,2.54-.6,5.51,5.51,0,0,1,2.28.36A2.24,2.24,0,0,1,90.9,52a4.65,4.65,0,0,1,.31,2l0,2.67a9.77,9.77,0,0,0,.11,1.69,5,5,0,0,0,.42,1.16H89.44c-.06-.16-.13-.38-.22-.68,0-.14-.06-.22-.08-.27a4.18,4.18,0,0,1-1.25.86,3.61,3.61,0,0,1-1.43.28A3,3,0,0,1,84.35,59a2.44,2.44,0,0,1-.77-1.84,2.4,2.4,0,0,1,.36-1.3,2.21,2.21,0,0,1,1-.88,7.58,7.58,0,0,1,1.82-.54A11.78,11.78,0,0,0,89,53.88v-.23a1.18,1.18,0,0,0-.33-.94,2,2,0,0,0-1.22-.28,1.66,1.66,0,0,0-1,.24A1.64,1.64,0,0,0,85.9,53.51ZM89,55.37a12.32,12.32,0,0,1-1.39.35,4.37,4.37,0,0,0-1.25.4,1,1,0,0,0-.45.81,1.11,1.11,0,0,0,.36.83,1.28,1.28,0,0,0,.91.35,2,2,0,0,0,1.19-.41,1.45,1.45,0,0,0,.54-.76A4.4,4.4,0,0,0,89,55.83Z"/><path d="M95.66,59.53H93.37V50.88h2.12v1.23a3.63,3.63,0,0,1,1-1.15,1.79,1.79,0,0,1,1-.28,2.86,2.86,0,0,1,1.51.43l-.71,2a2,2,0,0,0-1.07-.38,1.28,1.28,0,0,0-.82.27,1.8,1.8,0,0,0-.52,1,13.53,13.53,0,0,0-.19,2.9Z"/><path d="M103.92,50.88V52.7h-1.56v3.49a7,7,0,0,0,0,1.23.44.44,0,0,0,.2.29.59.59,0,0,0,.38.11,2.91,2.91,0,0,0,.93-.22l.19,1.78a4.5,4.5,0,0,1-1.81.34,2.82,2.82,0,0,1-1.11-.21,1.54,1.54,0,0,1-.73-.53,2.07,2.07,0,0,1-.32-.9,10.51,10.51,0,0,1-.08-1.61V52.7H99V50.88h1V49.16l2.3-1.34v3.06Z"/><path d="M105.45,50.88h2.13v1.27a3.22,3.22,0,0,1,2.7-1.47,3.3,3.3,0,0,1,2.56,1.18,4.8,4.8,0,0,1,1,3.29,5,5,0,0,1-1.06,3.37,3.31,3.31,0,0,1-2.57,1.2,2.92,2.92,0,0,1-1.3-.28,4.4,4.4,0,0,1-1.22-1v4.36h-2.29Zm2.26,4.17a3.38,3.38,0,0,0,.58,2.16,1.8,1.8,0,0,0,1.41.7,1.69,1.69,0,0,0,1.33-.64,3.33,3.33,0,0,0,.53-2.1,3.14,3.14,0,0,0-.55-2,1.68,1.68,0,0,0-1.35-.66,1.73,1.73,0,0,0-1.39.65A2.86,2.86,0,0,0,107.71,55.05Z"/><path d="M118,47.58V52a3.38,3.38,0,0,1,2.65-1.3,3.48,3.48,0,0,1,1.43.29,2.37,2.37,0,0,1,1,.75,2.68,2.68,0,0,1,.44,1,9,9,0,0,1,.12,1.72v5.08h-2.29V55a6.61,6.61,0,0,0-.13-1.73,1.1,1.1,0,0,0-.46-.58,1.41,1.41,0,0,0-.82-.22,1.86,1.86,0,0,0-1,.28,1.58,1.58,0,0,0-.66.83,5,5,0,0,0-.21,1.65v4.34H115.7v-12Z"/><path d="M125.36,55.08a4.63,4.63,0,0,1,.57-2.21,3.85,3.85,0,0,1,1.59-1.63,4.77,4.77,0,0,1,2.3-.56A4.33,4.33,0,0,1,133,52a4.4,4.4,0,0,1,1.25,3.22A4.46,4.46,0,0,1,133,58.43a4.3,4.3,0,0,1-3.19,1.29,5,5,0,0,1-2.27-.54,3.61,3.61,0,0,1-1.64-1.57A5.2,5.2,0,0,1,125.36,55.08Zm2.35.12a2.84,2.84,0,0,0,.61,2,1.94,1.94,0,0,0,1.51.69,1.91,1.91,0,0,0,1.5-.69,2.87,2.87,0,0,0,.61-2,2.83,2.83,0,0,0-.61-2,1.9,1.9,0,0,0-1.5-.68,1.93,1.93,0,0,0-1.51.68A2.85,2.85,0,0,0,127.71,55.2Z"/><path d="M144,59.53h-2.29V55.11a6.8,6.8,0,0,0-.14-1.81,1.3,1.3,0,0,0-.48-.64,1.36,1.36,0,0,0-.79-.23,1.81,1.81,0,0,0-1.07.33,1.6,1.6,0,0,0-.65.86,7.4,7.4,0,0,0-.17,2v3.92h-2.29V50.88h2.12v1.27a3.56,3.56,0,0,1,4.24-1.2,2.36,2.36,0,0,1,.95.7,2.65,2.65,0,0,1,.45,1,7.51,7.51,0,0,1,.12,1.54Z"/><path d="M151.28,56.77l2.28.39a3.72,3.72,0,0,1-1.39,1.91,4.11,4.11,0,0,1-2.37.65,3.88,3.88,0,0,1-3.34-1.47,5,5,0,0,1-.85-3,4.76,4.76,0,0,1,1.12-3.37,3.71,3.71,0,0,1,2.84-1.22A3.85,3.85,0,0,1,152.62,52a5.65,5.65,0,0,1,1.07,3.9H148a2.32,2.32,0,0,0,.56,1.59,1.74,1.74,0,0,0,1.31.56,1.44,1.44,0,0,0,.91-.29A1.82,1.82,0,0,0,151.28,56.77Zm.13-2.31A2.15,2.15,0,0,0,150.9,53a1.56,1.56,0,0,0-1.19-.52,1.58,1.58,0,0,0-1.24.55,2.16,2.16,0,0,0-.48,1.48Z"/><path d="M455.88,13.81h4.77a15.42,15.42,0,0,1,2.12.11,3.09,3.09,0,0,1,1.24.5,3,3,0,0,1,.92,1,2.8,2.8,0,0,1-.09,2.93,2.77,2.77,0,0,1-1.22,1,3.14,3.14,0,0,1,1.68,1.09,2.87,2.87,0,0,1,.58,1.8,3.44,3.44,0,0,1-.38,1.58,3.18,3.18,0,0,1-1,1.23,3.41,3.41,0,0,1-1.62.57c-.4,0-1.37.07-2.91.08h-4.06Zm2.41,2v2.77h1.58c.94,0,1.52,0,1.75,0a1.68,1.68,0,0,0,1-.43,1.3,1.3,0,0,0,.35-.94,1.23,1.23,0,0,0-1.21-1.31c-.24,0-.93-.05-2.06-.05Zm0,4.75v3.2h2.23a10.57,10.57,0,0,0,1.66-.08,1.4,1.4,0,0,0,1.21-1.49,1.57,1.57,0,0,0-.26-.91,1.52,1.52,0,0,0-.75-.55,8.46,8.46,0,0,0-2.14-.17Z"/><path d="M470.09,25.75h-2.28V17.1h2.12v1.23a3.75,3.75,0,0,1,1-1.15,1.76,1.76,0,0,1,1-.28,3,3,0,0,1,1.51.43l-.71,2a2,2,0,0,0-1.07-.37,1.26,1.26,0,0,0-.82.26,1.81,1.81,0,0,0-.52,1,13.24,13.24,0,0,0-.2,2.9Z"/><path d="M476.11,19.74,474,19.36a3.21,3.21,0,0,1,1.2-1.85,4.36,4.36,0,0,1,2.55-.61,5.51,5.51,0,0,1,2.28.36,2.26,2.26,0,0,1,1.05.93,4.57,4.57,0,0,1,.31,2l0,2.68a9.56,9.56,0,0,0,.11,1.68,5.23,5.23,0,0,0,.41,1.16h-2.26c-.06-.15-.13-.38-.22-.68,0-.13-.07-.22-.08-.27a4.1,4.1,0,0,1-1.26.86,3.56,3.56,0,0,1-1.42.28,3,3,0,0,1-2.11-.72,2.41,2.41,0,0,1-.77-1.83,2.49,2.49,0,0,1,.35-1.31,2.32,2.32,0,0,1,1-.88,7.9,7.9,0,0,1,1.83-.53,12.66,12.66,0,0,0,2.22-.57v-.22a1.2,1.2,0,0,0-.33-.95,2,2,0,0,0-1.23-.28,1.65,1.65,0,0,0-.95.24A1.68,1.68,0,0,0,476.11,19.74Zm3.06,1.85a12.32,12.32,0,0,1-1.39.35,4.37,4.37,0,0,0-1.25.4,1,1,0,0,0-.45.81,1.11,1.11,0,0,0,.36.83,1.26,1.26,0,0,0,.91.35,1.9,1.9,0,0,0,1.18-.41,1.43,1.43,0,0,0,.55-.75,4.56,4.56,0,0,0,.09-1.12Z"/><path d="M491.54,25.75h-2.29V21.33a7.33,7.33,0,0,0-.14-1.81,1.3,1.3,0,0,0-.48-.64,1.36,1.36,0,0,0-.79-.23,1.81,1.81,0,0,0-1.07.33,1.63,1.63,0,0,0-.65.86,7.4,7.4,0,0,0-.17,2v3.92h-2.29V17.1h2.12v1.27a3.47,3.47,0,0,1,2.85-1.47,3.32,3.32,0,0,1,1.39.28,2.34,2.34,0,0,1,1,.69,2.65,2.65,0,0,1,.45,1,7.51,7.51,0,0,1,.12,1.54Z"/><path d="M501.8,25.75h-2.13V24.48a3.43,3.43,0,0,1-1.25,1.1,3.2,3.2,0,0,1-1.45.36,3.3,3.3,0,0,1-2.56-1.2,4.88,4.88,0,0,1-1.06-3.35,4.85,4.85,0,0,1,1-3.34A3.37,3.37,0,0,1,497,16.9a3.23,3.23,0,0,1,2.51,1.21v-4.3h2.29Zm-6.11-4.51a4,4,0,0,0,.38,2,1.74,1.74,0,0,0,1.55.9,1.68,1.68,0,0,0,1.34-.68,3.06,3.06,0,0,0,.56-2,3.39,3.39,0,0,0-.54-2.15,1.76,1.76,0,0,0-2.74,0A2.92,2.92,0,0,0,495.69,21.24Z"/><path d="M515.15,214.44l2.34.75a5.27,5.27,0,0,1-1.79,2.9,5.63,5.63,0,0,1-7.09-.68,6.21,6.21,0,0,1-1.53-4.44,6.55,6.55,0,0,1,1.54-4.63,5.29,5.29,0,0,1,4-1.65,5,5,0,0,1,3.56,1.29,4.8,4.8,0,0,1,1.22,2.2l-2.38.57a2.59,2.59,0,0,0-.89-1.46,2.52,2.52,0,0,0-1.63-.54,2.75,2.75,0,0,0-2.16.95,4.7,4.7,0,0,0-.82,3.09,5,5,0,0,0,.81,3.23,2.64,2.64,0,0,0,2.12,1,2.44,2.44,0,0,0,1.65-.61A3.51,3.51,0,0,0,515.15,214.44Z"/><path d="M519,214.39a4.74,4.74,0,0,1,.56-2.21,4,4,0,0,1,1.59-1.63,4.8,4.8,0,0,1,2.3-.56,4.31,4.31,0,0,1,3.22,1.27,4.41,4.41,0,0,1,1.26,3.23,4.48,4.48,0,0,1-1.27,3.25,4.3,4.3,0,0,1-3.19,1.29,5,5,0,0,1-2.27-.54,3.72,3.72,0,0,1-1.64-1.57A5.34,5.34,0,0,1,519,214.39Zm2.34.12a2.84,2.84,0,0,0,.62,2,1.91,1.91,0,0,0,1.5.69,1.94,1.94,0,0,0,1.51-.69,2.92,2.92,0,0,0,.6-2,2.86,2.86,0,0,0-.6-2,1.94,1.94,0,0,0-1.51-.69,1.91,1.91,0,0,0-1.5.69A2.84,2.84,0,0,0,521.35,214.51Z"/><path d="M537.6,218.84h-2.29v-4.42a6.65,6.65,0,0,0-.15-1.81,1.24,1.24,0,0,0-.47-.64,1.4,1.4,0,0,0-.8-.23,1.83,1.83,0,0,0-1.07.33,1.58,1.58,0,0,0-.64.86,7.28,7.28,0,0,0-.18,2v3.92h-2.29v-8.66h2.13v1.28a3.54,3.54,0,0,1,4.23-1.2,2.29,2.29,0,0,1,.95.7,2.36,2.36,0,0,1,.45,1,6.75,6.75,0,0,1,.13,1.54Z"/><path d="M543.88,210.18V212h-1.56v3.49a8.28,8.28,0,0,0,0,1.23.48.48,0,0,0,.2.29.69.69,0,0,0,.39.11,2.92,2.92,0,0,0,.92-.22l.19,1.78a4.5,4.5,0,0,1-1.81.34,2.82,2.82,0,0,1-1.11-.21,1.61,1.61,0,0,1-.73-.53,2.07,2.07,0,0,1-.32-.9,10.51,10.51,0,0,1-.08-1.61V212h-1v-1.83h1v-1.71l2.3-1.34v3.05Z"/><path d="M547.66,218.84h-2.28v-8.66h2.12v1.23a3.69,3.69,0,0,1,1-1.14,1.76,1.76,0,0,1,1-.28,2.89,2.89,0,0,1,1.51.43l-.71,2a2,2,0,0,0-1.07-.38,1.26,1.26,0,0,0-.82.27,1.73,1.73,0,0,0-.52.95,13.31,13.31,0,0,0-.2,2.9Z"/><path d="M553.68,212.82l-2.08-.37a3.2,3.2,0,0,1,1.2-1.86,4.45,4.45,0,0,1,2.55-.6,5.51,5.51,0,0,1,2.28.36,2.24,2.24,0,0,1,1,.92,4.62,4.62,0,0,1,.31,2l0,2.67a9.56,9.56,0,0,0,.11,1.68,5.3,5.3,0,0,0,.41,1.17h-2.26c-.06-.16-.13-.38-.22-.68l-.08-.27a4.1,4.1,0,0,1-1.26.86,3.56,3.56,0,0,1-1.42.28,3,3,0,0,1-2.11-.72,2.59,2.59,0,0,1-.42-3.14,2.23,2.23,0,0,1,1-.88,7.15,7.15,0,0,1,1.82-.54,12.89,12.89,0,0,0,2.22-.56V213a1.18,1.18,0,0,0-.33-.94,1.91,1.91,0,0,0-1.23-.28,1.37,1.37,0,0,0-1.5,1.08Zm3.06,1.86a12.32,12.32,0,0,1-1.39.35,4.37,4.37,0,0,0-1.25.4,1,1,0,0,0-.45.81,1.13,1.13,0,0,0,.36.83,1.26,1.26,0,0,0,.91.35,2,2,0,0,0,1.18-.41,1.46,1.46,0,0,0,.55-.76,4.4,4.4,0,0,0,.09-1.11Z"/><path d="M568.79,212.74l-2.26.41a1.67,1.67,0,0,0-.52-1,1.53,1.53,0,0,0-1-.34,1.73,1.73,0,0,0-1.37.59,3,3,0,0,0-.51,2,3.52,3.52,0,0,0,.52,2.17,1.71,1.71,0,0,0,1.39.64,1.56,1.56,0,0,0,1.07-.38,2.22,2.22,0,0,0,.58-1.27l2.25.38a4,4,0,0,1-1.34,2.34,4.16,4.16,0,0,1-2.67.79,4,4,0,0,1-3-1.2,5.46,5.46,0,0,1,0-6.65,4.05,4.05,0,0,1,3.06-1.19,4.23,4.23,0,0,1,2.52.68A3.74,3.74,0,0,1,568.79,212.74Z"/><path d="M574.49,210.18V212h-1.57v3.49a8.28,8.28,0,0,0,.05,1.23.53.53,0,0,0,.2.29.71.71,0,0,0,.39.11,2.86,2.86,0,0,0,.92-.22l.2,1.78a4.56,4.56,0,0,1-1.81.34,2.83,2.83,0,0,1-1.12-.21,1.67,1.67,0,0,1-.73-.53,2.2,2.2,0,0,1-.32-.9,11,11,0,0,1-.07-1.61V212h-1v-1.83h1v-1.71l2.29-1.34v3.05Z"/><path d="M530.91,234.46l2.33.74a4.7,4.7,0,0,1-5,3.86,5.12,5.12,0,0,1-3.91-1.63,6.21,6.21,0,0,1-1.53-4.44,6.55,6.55,0,0,1,1.54-4.63,5.29,5.29,0,0,1,4-1.65A5,5,0,0,1,532,228a4.75,4.75,0,0,1,1.22,2.2l-2.39.57a2.47,2.47,0,0,0-2.51-2,2.73,2.73,0,0,0-2.16.95,4.7,4.7,0,0,0-.82,3.09,5,5,0,0,0,.81,3.23,2.64,2.64,0,0,0,2.12,1,2.44,2.44,0,0,0,1.65-.61A3.64,3.64,0,0,0,530.91,234.46Z"/><path d="M534.77,234.41a4.62,4.62,0,0,1,.56-2.21,3.85,3.85,0,0,1,1.59-1.63,4.8,4.8,0,0,1,2.3-.56,4.32,4.32,0,0,1,3.22,1.27,4.4,4.4,0,0,1,1.26,3.22,4.49,4.49,0,0,1-1.27,3.26,4.3,4.3,0,0,1-3.19,1.29,5,5,0,0,1-2.27-.54,3.67,3.67,0,0,1-1.64-1.57A5.23,5.23,0,0,1,534.77,234.41Zm2.34.12a2.9,2.9,0,0,0,.61,2,1.93,1.93,0,0,0,1.51.68,1.9,1.9,0,0,0,1.5-.68,2.89,2.89,0,0,0,.61-2,2.81,2.81,0,0,0-.61-1.95,1.91,1.91,0,0,0-1.5-.69,1.94,1.94,0,0,0-1.51.69A2.88,2.88,0,0,0,537.11,234.53Z"/><path d="M544.68,236.39,547,236a1.69,1.69,0,0,0,.59,1,2,2,0,0,0,1.26.35,2.23,2.23,0,0,0,1.33-.33.73.73,0,0,0,.3-.61.59.59,0,0,0-.16-.43,1.76,1.76,0,0,0-.76-.3,12.19,12.19,0,0,1-3.51-1.12,2.23,2.23,0,0,1-1-2,2.38,2.38,0,0,1,.89-1.89,4.14,4.14,0,0,1,2.75-.76,4.78,4.78,0,0,1,2.64.58,3,3,0,0,1,1.19,1.71l-2.16.4a1.33,1.33,0,0,0-.53-.78,1.88,1.88,0,0,0-1.1-.27,2.44,2.44,0,0,0-1.29.26.51.51,0,0,0,0,.88,9,9,0,0,0,2.14.64,6.39,6.39,0,0,1,2.55,1,2.09,2.09,0,0,1,.72,1.7,2.61,2.61,0,0,1-1,2,4.41,4.41,0,0,1-2.94.86,4.82,4.82,0,0,1-2.8-.72A3.25,3.25,0,0,1,544.68,236.39Z"/><path d="M558.73,230.2V232h-1.56v3.48a9.16,9.16,0,0,0,0,1.24.5.5,0,0,0,.21.29.66.66,0,0,0,.38.11,2.86,2.86,0,0,0,.92-.22l.2,1.78a4.53,4.53,0,0,1-1.81.34,2.9,2.9,0,0,1-1.12-.21,1.59,1.59,0,0,1-.72-.54,2,2,0,0,1-.33-.89,12.69,12.69,0,0,1-.07-1.61V232h-1V230.2h1v-1.72l2.3-1.33v3Z"/><path d="M443.09,383.3h4.4a8.75,8.75,0,0,1,2.28.23,3.92,3.92,0,0,1,1.8,1.1,5.15,5.15,0,0,1,1.14,1.93,8.84,8.84,0,0,1,.39,2.82,7.75,7.75,0,0,1-.37,2.55,5.29,5.29,0,0,1-1.28,2.11,4.35,4.35,0,0,1-1.69.95,7.24,7.24,0,0,1-2.14.25h-4.53Zm2.41,2v7.91h1.8a6.3,6.3,0,0,0,1.46-.12,2.18,2.18,0,0,0,1-.49,2.53,2.53,0,0,0,.63-1.15,7.93,7.93,0,0,0,.25-2.19,7.27,7.27,0,0,0-.25-2.13,2.69,2.69,0,0,0-.68-1.15,2.35,2.35,0,0,0-1.12-.57,11.74,11.74,0,0,0-2-.11Z"/><path d="M460.14,392.49l2.28.38a3.79,3.79,0,0,1-1.39,1.91,4.07,4.07,0,0,1-2.38.66,3.9,3.9,0,0,1-3.34-1.48,5,5,0,0,1-.85-3,4.78,4.78,0,0,1,1.12-3.37,3.72,3.72,0,0,1,2.85-1.22,3.83,3.83,0,0,1,3,1.28,5.63,5.63,0,0,1,1.07,3.91H456.8a2.36,2.36,0,0,0,.56,1.58,1.72,1.72,0,0,0,1.32.57,1.36,1.36,0,0,0,.9-.3A1.79,1.79,0,0,0,460.14,392.49Zm.13-2.32a2.22,2.22,0,0,0-.52-1.51,1.66,1.66,0,0,0-2.42,0,2.08,2.08,0,0,0-.48,1.48Z"/><path d="M463.6,392.77l2.3-.35a1.64,1.64,0,0,0,.59,1,2,2,0,0,0,1.25.34,2.32,2.32,0,0,0,1.34-.32.74.74,0,0,0,.3-.61.61.61,0,0,0-.16-.44,2.14,2.14,0,0,0-.77-.3,12.53,12.53,0,0,1-3.51-1.11,2.24,2.24,0,0,1-1-1.95,2.4,2.4,0,0,1,.88-1.89,4.17,4.17,0,0,1,2.76-.77,4.87,4.87,0,0,1,2.64.58,3,3,0,0,1,1.19,1.71l-2.16.4a1.38,1.38,0,0,0-.53-.77,1.92,1.92,0,0,0-1.1-.27,2.48,2.48,0,0,0-1.3.25.56.56,0,0,0-.26.47.5.5,0,0,0,.23.41,8.78,8.78,0,0,0,2.14.65,6.26,6.26,0,0,1,2.55,1,2.13,2.13,0,0,1,.72,1.71,2.59,2.59,0,0,1-1,2,4.39,4.39,0,0,1-2.94.86,4.78,4.78,0,0,1-2.79-.72A3.3,3.3,0,0,1,463.6,392.77Z"/><path d="M473.68,385.42V383.3H476v2.12Zm0,9.82v-8.65H476v8.65Z"/><path d="M478.11,395.81l2.61.32a.9.9,0,0,0,.3.63,1.76,1.76,0,0,0,1,.24,2.64,2.64,0,0,0,1.34-.27,1.14,1.14,0,0,0,.46-.58,3.55,3.55,0,0,0,.1-1v-1.26a3.09,3.09,0,0,1-2.59,1.4,3.19,3.19,0,0,1-2.76-1.47,5.05,5.05,0,0,1-.8-2.9,4.78,4.78,0,0,1,1.05-3.33,3.41,3.41,0,0,1,2.6-1.15,3.17,3.17,0,0,1,2.65,1.41v-1.21h2.14v7.76a7.68,7.68,0,0,1-.25,2.29,2.78,2.78,0,0,1-.71,1.19,3.17,3.17,0,0,1-1.22.68,6.47,6.47,0,0,1-1.92.24A5,5,0,0,1,479,398a2.34,2.34,0,0,1-.92-1.91C478.1,396,478.1,395.92,478.11,395.81Zm2-5.07a3.14,3.14,0,0,0,.53,2,1.66,1.66,0,0,0,1.32.64,1.85,1.85,0,0,0,1.42-.65,2.91,2.91,0,0,0,.57-1.95,3,3,0,0,0-.55-2,1.75,1.75,0,0,0-1.4-.65,1.69,1.69,0,0,0-1.36.64A3,3,0,0,0,480.15,390.74Z"/><path d="M496.38,395.24h-2.29v-4.41a6.74,6.74,0,0,0-.15-1.82,1.26,1.26,0,0,0-1.27-.86,1.82,1.82,0,0,0-1.07.32,1.64,1.64,0,0,0-.64.87,7.19,7.19,0,0,0-.18,2v3.92h-2.29v-8.65h2.13v1.27a3.51,3.51,0,0,1,4.23-1.19,2.28,2.28,0,0,1,.95.69,2.47,2.47,0,0,1,.45,1,7.28,7.28,0,0,1,.13,1.53Z"/><path d="M505,389.23l-2.07-.38a3.21,3.21,0,0,1,1.2-1.85,4.43,4.43,0,0,1,2.54-.61,5.49,5.49,0,0,1,2.28.37,2.27,2.27,0,0,1,1.06.92,4.78,4.78,0,0,1,.3,2.05l0,2.67a9.56,9.56,0,0,0,.11,1.68,4.77,4.77,0,0,0,.41,1.16h-2.26a6.12,6.12,0,0,1-.22-.68l-.08-.26a4.18,4.18,0,0,1-1.26.85,3.57,3.57,0,0,1-1.42.29,3,3,0,0,1-2.11-.73,2.41,2.41,0,0,1-.77-1.83,2.49,2.49,0,0,1,.35-1.31,2.33,2.33,0,0,1,1-.88,7.79,7.79,0,0,1,1.82-.53,13.07,13.07,0,0,0,2.23-.56v-.23a1.16,1.16,0,0,0-.33-.94,2,2,0,0,0-1.23-.28,1.63,1.63,0,0,0-.95.24A1.65,1.65,0,0,0,505,389.23Zm3.07,1.86c-.3.09-.76.21-1.4.35a4,4,0,0,0-1.24.4,1,1,0,0,0-.45.8,1.11,1.11,0,0,0,.36.83,1.22,1.22,0,0,0,.91.35,2,2,0,0,0,1.18-.4,1.46,1.46,0,0,0,.55-.76,4.56,4.56,0,0,0,.09-1.12Z"/><path d="M520.48,395.24h-2.29v-4.41A6.74,6.74,0,0,0,518,389a1.27,1.27,0,0,0-.47-.64,1.39,1.39,0,0,0-.8-.22,1.79,1.79,0,0,0-1.06.32,1.66,1.66,0,0,0-.65.87,7.19,7.19,0,0,0-.18,2v3.92h-2.29v-8.65h2.13v1.27a3.52,3.52,0,0,1,4.24-1.19,2.41,2.41,0,0,1,.95.69,2.59,2.59,0,0,1,.44,1,6.66,6.66,0,0,1,.13,1.53Z"/><path d="M530.74,395.24h-2.13V394a3.43,3.43,0,0,1-1.25,1.1,3.12,3.12,0,0,1-1.45.37,3.28,3.28,0,0,1-2.56-1.21,5.88,5.88,0,0,1,0-6.69,3.39,3.39,0,0,1,2.62-1.15,3.27,3.27,0,0,1,2.51,1.21v-4.3h2.29Zm-6.11-4.51a3.9,3.9,0,0,0,.38,2,1.73,1.73,0,0,0,2.89.23,3.11,3.11,0,0,0,.55-2,3.39,3.39,0,0,0-.53-2.15,1.78,1.78,0,0,0-2.74,0A2.93,2.93,0,0,0,524.63,390.73Z"/><path d="M469.39,413.74a7.75,7.75,0,0,0,1.93,1l-.89,1.7a5.44,5.44,0,0,1-1.06-.45c-.08,0-.62-.39-1.61-1.06a6.45,6.45,0,0,1-2.6.51,5.71,5.71,0,0,1-4.31-1.62,7.42,7.42,0,0,1,0-9.1,5.65,5.65,0,0,1,4.25-1.63,5.57,5.57,0,0,1,4.21,1.63,6.29,6.29,0,0,1,1.55,4.55,7.8,7.8,0,0,1-.43,2.72A5.32,5.32,0,0,1,469.39,413.74Zm-1.94-1.36a3.66,3.66,0,0,0,.7-1.31,6.4,6.4,0,0,0,.23-1.78,4.51,4.51,0,0,0-.91-3.09,3.31,3.31,0,0,0-4.78,0,4.54,4.54,0,0,0-.92,3.09,4.62,4.62,0,0,0,.92,3.13,3,3,0,0,0,2.32,1,2.88,2.88,0,0,0,1-.17,6.94,6.94,0,0,0-1.49-.75l.68-1.38A8.22,8.22,0,0,1,467.45,412.38Z"/><path d="M478.43,415.26V414a3.3,3.3,0,0,1-1.24,1.1,3.56,3.56,0,0,1-1.62.4,3.13,3.13,0,0,1-1.57-.39,2.21,2.21,0,0,1-1-1.07,4.74,4.74,0,0,1-.31-1.92v-5.47H475v4a11.58,11.58,0,0,0,.12,2.24,1.24,1.24,0,0,0,.47.65,1.39,1.39,0,0,0,.84.24,1.76,1.76,0,0,0,1-.32,1.65,1.65,0,0,0,.64-.8,9.46,9.46,0,0,0,.17-2.33v-3.65h2.29v8.65Z"/><path d="M484.64,409.25l-2.08-.38a3.22,3.22,0,0,1,1.21-1.85,4.33,4.33,0,0,1,2.54-.61,5.33,5.33,0,0,1,2.28.37,2.19,2.19,0,0,1,1.05.92,4.59,4.59,0,0,1,.31,2.05l0,2.67a9.56,9.56,0,0,0,.11,1.68,4.83,4.83,0,0,0,.42,1.16h-2.27c-.06-.15-.13-.38-.22-.68,0-.13-.06-.22-.08-.26a4.33,4.33,0,0,1-1.25.85,3.62,3.62,0,0,1-1.43.29,3,3,0,0,1-2.11-.73,2.56,2.56,0,0,1-.41-3.14,2.27,2.27,0,0,1,1-.88,7.65,7.65,0,0,1,1.82-.53,11.59,11.59,0,0,0,2.22-.57v-.22a1.16,1.16,0,0,0-.33-.94,1.89,1.89,0,0,0-1.22-.28,1.66,1.66,0,0,0-1,.24A1.64,1.64,0,0,0,484.64,409.25Zm3.06,1.86c-.29.09-.76.21-1.39.35a3.8,3.8,0,0,0-1.25.4,1,1,0,0,0-.45.8,1.11,1.11,0,0,0,.36.83,1.24,1.24,0,0,0,.91.35,2,2,0,0,0,1.19-.4,1.49,1.49,0,0,0,.54-.76,4.56,4.56,0,0,0,.09-1.12Z"/><path d="M492.21,415.26V403.32h2.28v11.94Z"/><path d="M496.84,405.44v-2.12h2.29v2.12Zm0,9.82v-8.65h2.29v8.65Z"/><path d="M505.44,406.61v1.82h-1.56v3.49a8.86,8.86,0,0,0,0,1.23.47.47,0,0,0,.21.29.6.6,0,0,0,.38.12,3.1,3.1,0,0,0,.92-.22l.2,1.77a4.53,4.53,0,0,1-1.81.35,2.82,2.82,0,0,1-1.11-.21,1.57,1.57,0,0,1-.73-.54,2,2,0,0,1-.32-.89,10.69,10.69,0,0,1-.08-1.61v-3.78h-1.05v-1.82h1.05v-1.72l2.3-1.34v3.06Z"/><path d="M506,406.61h2.43l2.07,6.14,2-6.14h2.37l-3.05,8.32-.55,1.51a6.25,6.25,0,0,1-.57,1.16,2.6,2.6,0,0,1-.63.65,2.9,2.9,0,0,1-.87.38,4.63,4.63,0,0,1-1.17.14,6.14,6.14,0,0,1-1.29-.14l-.21-1.79a5.14,5.14,0,0,0,1,.11,1.44,1.44,0,0,0,1.18-.47,3.21,3.21,0,0,0,.59-1.2Z"/><path d="M252.88,453.87V441.93h2.41v4.7H260v-4.7h2.41v11.94H260v-5.22h-4.72v5.22Z"/><path d="M266.61,447.86l-2.08-.37a3.26,3.26,0,0,1,1.21-1.86,4.43,4.43,0,0,1,2.54-.6,5.51,5.51,0,0,1,2.28.36,2.32,2.32,0,0,1,1.06.92,4.81,4.81,0,0,1,.3,2.05l0,2.67a8.66,8.66,0,0,0,.11,1.68,4.63,4.63,0,0,0,.41,1.16h-2.27c-.06-.15-.13-.37-.22-.67a1.31,1.31,0,0,0-.08-.27,4.14,4.14,0,0,1-1.25.85,3.45,3.45,0,0,1-1.43.29,2.94,2.94,0,0,1-2.1-.72,2.41,2.41,0,0,1-.77-1.84,2.37,2.37,0,0,1,.35-1.3,2.21,2.21,0,0,1,1-.88,7.28,7.28,0,0,1,1.82-.54,12.64,12.64,0,0,0,2.22-.56V448a1.21,1.21,0,0,0-.32-.94,2,2,0,0,0-1.23-.28,1.66,1.66,0,0,0-1,.24A1.71,1.71,0,0,0,266.61,447.86Zm3.06,1.86c-.29.1-.76.21-1.39.35a4.37,4.37,0,0,0-1.25.4,1,1,0,0,0-.44.81,1.12,1.12,0,0,0,.35.83,1.28,1.28,0,0,0,.92.35,2,2,0,0,0,1.18-.41,1.44,1.44,0,0,0,.54-.76,4.4,4.4,0,0,0,.09-1.11Z"/><path d="M276.56,453.87l-3.49-8.65h2.4l1.63,4.42.47,1.47c.13-.37.21-.62.24-.74l.24-.73,1.65-4.42h2.35l-3.43,8.65Z"/><path d="M288.46,451.12l2.29.38a3.75,3.75,0,0,1-1.39,1.91,4.1,4.1,0,0,1-2.38.66,3.89,3.89,0,0,1-3.34-1.47,5,5,0,0,1-.85-3,4.75,4.75,0,0,1,1.12-3.36,3.68,3.68,0,0,1,2.84-1.22,3.83,3.83,0,0,1,3.05,1.27,5.69,5.69,0,0,1,1.07,3.91h-5.74a2.28,2.28,0,0,0,.56,1.58,1.72,1.72,0,0,0,1.32.57,1.41,1.41,0,0,0,.9-.29A1.75,1.75,0,0,0,288.46,451.12Zm.13-2.31a2.15,2.15,0,0,0-.51-1.51,1.55,1.55,0,0,0-1.19-.52,1.58,1.58,0,0,0-1.24.55,2.14,2.14,0,0,0-.48,1.48Z"/><path d="M297.37,444.05v-2.12h2.29v2.12Zm0,9.82v-8.65h2.29v8.65Z"/><path d="M309.87,453.87h-2.29v-4.41a7.28,7.28,0,0,0-.14-1.81A1.26,1.26,0,0,0,307,447a1.36,1.36,0,0,0-.79-.23,1.81,1.81,0,0,0-1.07.33,1.6,1.6,0,0,0-.65.86,7.4,7.4,0,0,0-.17,2v3.91H302v-8.65h2.12v1.27a3.57,3.57,0,0,1,4.24-1.19,2.36,2.36,0,0,1,.95.7,2.65,2.65,0,0,1,.45,1,7.51,7.51,0,0,1,.12,1.54Z"/><path d="M316.16,445.22v1.83H314.6v3.48a9.16,9.16,0,0,0,0,1.24.53.53,0,0,0,.2.29.71.71,0,0,0,.39.11,2.86,2.86,0,0,0,.92-.22l.2,1.78a4.53,4.53,0,0,1-1.81.34,2.87,2.87,0,0,1-1.12-.21,1.68,1.68,0,0,1-.73-.54,2.1,2.1,0,0,1-.32-.89,11,11,0,0,1-.07-1.61v-3.77h-1.05v-1.83h1.05v-1.71l2.3-1.34v3.05Z"/><path d="M322.76,451.12l2.28.38a3.69,3.69,0,0,1-1.39,1.91,4,4,0,0,1-2.37.66,3.87,3.87,0,0,1-3.34-1.47,5,5,0,0,1-.86-3,4.8,4.8,0,0,1,1.12-3.36,3.69,3.69,0,0,1,2.85-1.22,3.83,3.83,0,0,1,3,1.27,5.64,5.64,0,0,1,1.07,3.91h-5.73a2.27,2.27,0,0,0,.55,1.58,1.72,1.72,0,0,0,1.32.57,1.41,1.41,0,0,0,.9-.29A1.82,1.82,0,0,0,322.76,451.12Zm.13-2.31a2.24,2.24,0,0,0-.51-1.51,1.65,1.65,0,0,0-2.43,0,2.05,2.05,0,0,0-.48,1.48Z"/><path d="M329.22,453.87h-2.29v-8.65h2.12v1.23a3.69,3.69,0,0,1,1-1.14,1.76,1.76,0,0,1,1-.28,2.85,2.85,0,0,1,1.5.43l-.71,2a2,2,0,0,0-1.07-.38,1.28,1.28,0,0,0-.82.27,1.8,1.8,0,0,0-.52.95,13.47,13.47,0,0,0-.19,2.9Z"/><path d="M341.39,453.87H339.1v-4.41a6.65,6.65,0,0,0-.15-1.81,1.24,1.24,0,0,0-.47-.64,1.4,1.4,0,0,0-.8-.23,1.83,1.83,0,0,0-1.07.33,1.58,1.58,0,0,0-.64.86,7.28,7.28,0,0,0-.18,2v3.91H333.5v-8.65h2.13v1.27a3.55,3.55,0,0,1,4.23-1.19,2.29,2.29,0,0,1,.95.7,2.36,2.36,0,0,1,.45,1,6.75,6.75,0,0,1,.13,1.54Z"/><path d="M348.72,451.12l2.28.38a3.69,3.69,0,0,1-1.39,1.91,4,4,0,0,1-2.37.66,3.87,3.87,0,0,1-3.34-1.47,5,5,0,0,1-.86-3,4.8,4.8,0,0,1,1.12-3.36A3.69,3.69,0,0,1,347,445a3.83,3.83,0,0,1,3,1.27,5.64,5.64,0,0,1,1.07,3.91h-5.73a2.27,2.27,0,0,0,.55,1.58,1.72,1.72,0,0,0,1.32.57,1.41,1.41,0,0,0,.9-.29A1.82,1.82,0,0,0,348.72,451.12Zm.13-2.31a2.24,2.24,0,0,0-.51-1.51,1.65,1.65,0,0,0-2.43,0,2.05,2.05,0,0,0-.48,1.48Z"/><path d="M357,445.22v1.83h-1.56v3.48a8.36,8.36,0,0,0,.05,1.24.44.44,0,0,0,.2.29.67.67,0,0,0,.39.11A2.92,2.92,0,0,0,357,452l.19,1.78a4.5,4.5,0,0,1-1.81.34,2.82,2.82,0,0,1-1.11-.21,1.63,1.63,0,0,1-.73-.54,2,2,0,0,1-.32-.89,10.51,10.51,0,0,1-.08-1.61v-3.77h-1v-1.83h1v-1.71l2.3-1.34v3.05Z"/><path d="M264.57,467.8l-2.26.41a1.66,1.66,0,0,0-.51-1,1.56,1.56,0,0,0-1.05-.34,1.7,1.7,0,0,0-1.37.59,3,3,0,0,0-.5,2,3.56,3.56,0,0,0,.51,2.18,1.71,1.71,0,0,0,1.39.63,1.53,1.53,0,0,0,1.07-.37,2.22,2.22,0,0,0,.59-1.27l2.24.38a4,4,0,0,1-1.34,2.34,4.13,4.13,0,0,1-2.66.79,4,4,0,0,1-3-1.2,5.46,5.46,0,0,1,0-6.65,4.06,4.06,0,0,1,3.07-1.19,4.13,4.13,0,0,1,2.51.68A3.74,3.74,0,0,1,264.57,467.8Z"/><path d="M265.78,469.45a4.62,4.62,0,0,1,.56-2.21,3.79,3.79,0,0,1,1.59-1.63,4.66,4.66,0,0,1,2.3-.56,4.32,4.32,0,0,1,3.22,1.27,4.44,4.44,0,0,1,1.25,3.22,4.48,4.48,0,0,1-1.26,3.26,4.3,4.3,0,0,1-3.19,1.29,5,5,0,0,1-2.27-.54,3.67,3.67,0,0,1-1.64-1.57A5.23,5.23,0,0,1,265.78,469.45Zm2.34.12a2.85,2.85,0,0,0,.61,2,1.93,1.93,0,0,0,1.51.68,1.9,1.9,0,0,0,1.5-.68,2.89,2.89,0,0,0,.61-2,2.8,2.8,0,0,0-.61-1.95,1.91,1.91,0,0,0-1.5-.69,1.94,1.94,0,0,0-1.51.69A2.84,2.84,0,0,0,268.12,469.57Z"/><path d="M284.36,473.89h-2.29v-4.41a6.75,6.75,0,0,0-.14-1.81,1.26,1.26,0,0,0-.48-.64,1.29,1.29,0,0,0-.79-.23,1.9,1.9,0,0,0-1.07.32,1.71,1.71,0,0,0-.65.87,7.85,7.85,0,0,0-.17,2v3.91h-2.29v-8.65h2.13v1.27a3.55,3.55,0,0,1,4.23-1.19,2.27,2.27,0,0,1,1,.7,2.65,2.65,0,0,1,.45,1,7.51,7.51,0,0,1,.12,1.54Z"/><path d="M294.55,473.89h-2.29v-4.41a6.75,6.75,0,0,0-.14-1.81,1.26,1.26,0,0,0-.48-.64,1.29,1.29,0,0,0-.79-.23,1.87,1.87,0,0,0-1.07.32,1.66,1.66,0,0,0-.65.87,7.85,7.85,0,0,0-.17,2v3.91h-2.29v-8.65h2.12v1.27a3.57,3.57,0,0,1,4.24-1.19,2.27,2.27,0,0,1,1,.7,2.65,2.65,0,0,1,.45,1,7.51,7.51,0,0,1,.12,1.54Z"/><path d="M301.88,471.14l2.29.38a3.75,3.75,0,0,1-1.39,1.91,4.1,4.1,0,0,1-2.38.66,3.86,3.86,0,0,1-3.34-1.48,4.93,4.93,0,0,1-.85-3,4.75,4.75,0,0,1,1.12-3.36,3.68,3.68,0,0,1,2.84-1.22,3.83,3.83,0,0,1,3.05,1.27,5.68,5.68,0,0,1,1.07,3.91h-5.74a2.28,2.28,0,0,0,.56,1.58,1.72,1.72,0,0,0,1.32.57,1.43,1.43,0,0,0,.9-.29A1.86,1.86,0,0,0,301.88,471.14Zm.13-2.31a2.13,2.13,0,0,0-.51-1.51,1.55,1.55,0,0,0-1.19-.52,1.61,1.61,0,0,0-1.24.54,2.19,2.19,0,0,0-.48,1.49Z"/><path d="M313.7,467.8l-2.26.41a1.67,1.67,0,0,0-.52-1,1.55,1.55,0,0,0-1-.34,1.7,1.7,0,0,0-1.37.59,3,3,0,0,0-.51,2,3.49,3.49,0,0,0,.52,2.18,1.7,1.7,0,0,0,1.39.63,1.55,1.55,0,0,0,1.07-.37,2.22,2.22,0,0,0,.58-1.27l2.25.38a4,4,0,0,1-1.34,2.34,4.16,4.16,0,0,1-2.67.79,4,4,0,0,1-3-1.2,4.6,4.6,0,0,1-1.13-3.31,4.69,4.69,0,0,1,1.13-3.34,4,4,0,0,1,3.06-1.19,4.16,4.16,0,0,1,2.52.68A3.8,3.8,0,0,1,313.7,467.8Z"/><path d="M319.4,465.24v1.83h-1.57v3.48a8.36,8.36,0,0,0,.05,1.24.57.57,0,0,0,.2.29.71.71,0,0,0,.39.11,2.86,2.86,0,0,0,.92-.22l.2,1.78a4.56,4.56,0,0,1-1.81.34,2.87,2.87,0,0,1-1.12-.21,1.68,1.68,0,0,1-.73-.54,2.15,2.15,0,0,1-.32-.89,11,11,0,0,1-.07-1.61v-3.77h-1.05v-1.83h1.05v-1.72l2.29-1.33v3.05Z"/><path d="M321,464.07V462h2.29v2.12Zm0,9.82v-8.65h2.29v8.65Z"/><path d="M328,473.89l-3.49-8.65h2.41l1.63,4.42.47,1.47c.12-.37.2-.62.23-.74s.16-.49.25-.73l1.65-4.42h2.35l-3.44,8.65Z"/><path d="M334.9,464.07V462h2.29v2.12Zm0,9.82v-8.65h2.29v8.65Z"/><path d="M343.5,465.24v1.83h-1.56v3.48a9.16,9.16,0,0,0,0,1.24.53.53,0,0,0,.21.29.66.66,0,0,0,.38.11,2.86,2.86,0,0,0,.92-.22l.2,1.78a4.53,4.53,0,0,1-1.81.34,2.9,2.9,0,0,1-1.12-.21,1.68,1.68,0,0,1-.73-.54,2.15,2.15,0,0,1-.32-.89,11,11,0,0,1-.07-1.61v-3.77h-1.05v-1.83h1.05v-1.72l2.3-1.33v3.05Z"/><path d="M344,465.24h2.43l2.07,6.14,2-6.14h2.37l-3,8.33-.55,1.5a5.94,5.94,0,0,1-.57,1.16,2.61,2.61,0,0,1-.63.65,3.18,3.18,0,0,1-.87.39,4.71,4.71,0,0,1-1.17.13,6.3,6.3,0,0,1-1.3-.13l-.2-1.8a5.14,5.14,0,0,0,1,.11,1.44,1.44,0,0,0,1.18-.47,3.24,3.24,0,0,0,.59-1.19Z"/><path d="M106.67,390.27V378.42h2.41v9.83h6v2Z"/><path d="M118.49,384.25l-2.07-.37a3.2,3.2,0,0,1,1.2-1.86,4.43,4.43,0,0,1,2.54-.6,5.51,5.51,0,0,1,2.28.36,2.32,2.32,0,0,1,1.06.92,4.81,4.81,0,0,1,.3,2.05l0,2.67a9.56,9.56,0,0,0,.11,1.68,4.83,4.83,0,0,0,.41,1.17H122a6.93,6.93,0,0,1-.22-.68l-.08-.27a4.22,4.22,0,0,1-1.26.86,3.61,3.61,0,0,1-1.43.28,2.94,2.94,0,0,1-2.1-.72,2.59,2.59,0,0,1-.42-3.14,2.21,2.21,0,0,1,1-.88,7.28,7.28,0,0,1,1.82-.54,13.07,13.07,0,0,0,2.23-.56v-.23a1.18,1.18,0,0,0-.33-.94,2,2,0,0,0-1.23-.28,1.63,1.63,0,0,0-1,.24A1.65,1.65,0,0,0,118.49,384.25Zm3.07,1.86a12.62,12.62,0,0,1-1.4.35,4.27,4.27,0,0,0-1.24.4,1,1,0,0,0-.45.81,1.13,1.13,0,0,0,.36.83,1.26,1.26,0,0,0,.91.35,2,2,0,0,0,1.18-.41,1.46,1.46,0,0,0,.55-.76,4.4,4.4,0,0,0,.09-1.11Z"/><path d="M128.25,390.27H126v-8.66h2.13v1.23a3.56,3.56,0,0,1,1-1.14,1.76,1.76,0,0,1,1-.28,2.91,2.91,0,0,1,1.51.43l-.71,2a2,2,0,0,0-1.08-.38,1.24,1.24,0,0,0-.81.27,1.8,1.8,0,0,0-.53.95,14.26,14.26,0,0,0-.19,2.9Z"/><path d="M132.34,390.84l2.62.31a.86.86,0,0,0,.3.63,1.72,1.72,0,0,0,1,.24,2.69,2.69,0,0,0,1.35-.26,1.12,1.12,0,0,0,.45-.58,3.45,3.45,0,0,0,.11-1.05v-1.27a3.09,3.09,0,0,1-2.59,1.41,3.2,3.2,0,0,1-2.76-1.48,5,5,0,0,1-.8-2.9,4.74,4.74,0,0,1,1.05-3.32,3.34,3.34,0,0,1,2.6-1.15,3.18,3.18,0,0,1,2.65,1.41v-1.22h2.14v7.77a8.08,8.08,0,0,1-.25,2.29,3,3,0,0,1-.71,1.19,3.23,3.23,0,0,1-1.22.67,6.51,6.51,0,0,1-1.93.25,5,5,0,0,1-3.12-.76,2.37,2.37,0,0,1-.92-1.91C132.33,391,132.34,390.94,132.34,390.84Zm2-5.08a3.11,3.11,0,0,0,.53,2,1.65,1.65,0,0,0,1.31.64,1.81,1.81,0,0,0,1.42-.66,2.83,2.83,0,0,0,.58-1.94,3,3,0,0,0-.55-2,1.78,1.78,0,0,0-1.4-.65,1.68,1.68,0,0,0-1.36.64A3,3,0,0,0,134.39,385.76Z"/><path d="M147.75,387.51l2.28.38a3.64,3.64,0,0,1-1.39,1.91,4,4,0,0,1-2.37.66,3.88,3.88,0,0,1-3.34-1.47,5,5,0,0,1-.86-3,4.77,4.77,0,0,1,1.13-3.37,3.68,3.68,0,0,1,2.84-1.22,3.85,3.85,0,0,1,3.05,1.27,5.69,5.69,0,0,1,1.07,3.91h-5.74a2.32,2.32,0,0,0,.55,1.58,1.75,1.75,0,0,0,1.32.57,1.46,1.46,0,0,0,.91-.29A1.82,1.82,0,0,0,147.75,387.51Zm.13-2.31a2.15,2.15,0,0,0-.51-1.51,1.56,1.56,0,0,0-1.19-.52,1.58,1.58,0,0,0-1.24.55,2.14,2.14,0,0,0-.48,1.48Z"/><path d="M100.89,406.4l2.35-.23a2.82,2.82,0,0,0,.86,1.74,2.58,2.58,0,0,0,1.74.55,2.7,2.7,0,0,0,1.76-.49,1.49,1.49,0,0,0,.59-1.16,1.07,1.07,0,0,0-.25-.72,1.93,1.93,0,0,0-.87-.51c-.28-.1-.92-.28-1.93-.53a6.51,6.51,0,0,1-2.72-1.18,3.09,3.09,0,0,1-1.1-2.4,3,3,0,0,1,.52-1.71,3.22,3.22,0,0,1,1.49-1.21,6.1,6.1,0,0,1,2.35-.41,5.1,5.1,0,0,1,3.39,1,3.53,3.53,0,0,1,1.19,2.64l-2.41.1a2.08,2.08,0,0,0-.67-1.32,2.42,2.42,0,0,0-1.52-.41,2.76,2.76,0,0,0-1.65.44.87.87,0,0,0-.38.74.91.91,0,0,0,.36.72,6.24,6.24,0,0,0,2.21.8,11.62,11.62,0,0,1,2.6.86,3.29,3.29,0,0,1,1.32,1.21,3.56,3.56,0,0,1,.48,1.91,3.53,3.53,0,0,1-.57,1.92,3.41,3.41,0,0,1-1.61,1.33,6.78,6.78,0,0,1-2.6.44,5.17,5.17,0,0,1-3.48-1.05A4.58,4.58,0,0,1,100.89,406.4Z"/><path d="M120.16,404.19l-2.26.41a1.67,1.67,0,0,0-.52-1,1.56,1.56,0,0,0-1-.34,1.71,1.71,0,0,0-1.36.59,3,3,0,0,0-.51,2A3.47,3.47,0,0,0,115,408a1.7,1.7,0,0,0,1.39.63,1.51,1.51,0,0,0,1.06-.37A2.16,2.16,0,0,0,118,407l2.25.38a4,4,0,0,1-1.34,2.34,4.18,4.18,0,0,1-2.67.79,4,4,0,0,1-3-1.2,5.46,5.46,0,0,1,0-6.65,4,4,0,0,1,3.06-1.19,4.16,4.16,0,0,1,2.52.68A3.8,3.8,0,0,1,120.16,404.19Z"/><path d="M124.08,410.28h-2.29v-8.65h2.13v1.23a3.74,3.74,0,0,1,1-1.15,1.84,1.84,0,0,1,1-.27,2.91,2.91,0,0,1,1.51.43l-.71,2a2,2,0,0,0-1.08-.38,1.24,1.24,0,0,0-.81.27,1.8,1.8,0,0,0-.53.95,14.19,14.19,0,0,0-.19,2.9Z"/><path d="M133.39,407.53l2.28.38a3.64,3.64,0,0,1-1.39,1.91,4,4,0,0,1-2.37.66,3.88,3.88,0,0,1-3.34-1.47,5,5,0,0,1-.86-3,4.76,4.76,0,0,1,1.13-3.36,3.68,3.68,0,0,1,2.84-1.22,3.85,3.85,0,0,1,3,1.27,5.68,5.68,0,0,1,1.07,3.91h-5.74a2.28,2.28,0,0,0,.56,1.58,1.71,1.71,0,0,0,1.31.57,1.46,1.46,0,0,0,.91-.29A1.82,1.82,0,0,0,133.39,407.53Zm.13-2.31a2.15,2.15,0,0,0-.51-1.51,1.56,1.56,0,0,0-1.19-.52,1.61,1.61,0,0,0-1.24.54,2.19,2.19,0,0,0-.48,1.49Z"/><path d="M142.67,407.53l2.28.38a3.69,3.69,0,0,1-1.39,1.91,4,4,0,0,1-2.37.66,3.87,3.87,0,0,1-3.34-1.47,5,5,0,0,1-.86-3,4.76,4.76,0,0,1,1.13-3.36,3.67,3.67,0,0,1,2.84-1.22,3.85,3.85,0,0,1,3,1.27,5.63,5.63,0,0,1,1.06,3.91h-5.73a2.27,2.27,0,0,0,.55,1.58,1.72,1.72,0,0,0,1.32.57,1.46,1.46,0,0,0,.91-.29A1.89,1.89,0,0,0,142.67,407.53Zm.13-2.31a2.24,2.24,0,0,0-.51-1.51,1.58,1.58,0,0,0-1.19-.52,1.61,1.61,0,0,0-1.24.54,2.09,2.09,0,0,0-.48,1.49Z"/><path d="M154.81,410.28h-2.29v-4.41a6.65,6.65,0,0,0-.15-1.81,1.24,1.24,0,0,0-.47-.64,1.4,1.4,0,0,0-.8-.23,1.83,1.83,0,0,0-1.07.33,1.58,1.58,0,0,0-.64.86,7.28,7.28,0,0,0-.18,2v3.91h-2.29v-8.65h2.13v1.27a3.55,3.55,0,0,1,4.23-1.19,2.29,2.29,0,0,1,.95.7,2.36,2.36,0,0,1,.45,1,6.75,6.75,0,0,1,.13,1.54Z"/><path d="M22.11,217.89l2.34.74a5.24,5.24,0,0,1-1.79,2.91,5.1,5.1,0,0,1-3.17.94,5.14,5.14,0,0,1-3.91-1.62,6.21,6.21,0,0,1-1.53-4.44,6.51,6.51,0,0,1,1.54-4.63,5.28,5.28,0,0,1,4.05-1.65,5,5,0,0,1,3.56,1.29,4.7,4.7,0,0,1,1.22,2.2L22,214.2a2.52,2.52,0,0,0-.88-1.47,2.58,2.58,0,0,0-1.64-.53,2.7,2.7,0,0,0-2.15,1,4.68,4.68,0,0,0-.83,3.09,4.94,4.94,0,0,0,.82,3.22,2.64,2.64,0,0,0,2.12,1,2.39,2.39,0,0,0,1.65-.61A3.5,3.5,0,0,0,22.11,217.89Z"/><path d="M26,217.83a4.6,4.6,0,0,1,.57-2.2A3.79,3.79,0,0,1,28.13,214a4.66,4.66,0,0,1,2.3-.56,4.32,4.32,0,0,1,3.22,1.27,4.42,4.42,0,0,1,1.25,3.22,4.48,4.48,0,0,1-1.26,3.26,4.3,4.3,0,0,1-3.19,1.29,5,5,0,0,1-2.27-.54,3.64,3.64,0,0,1-1.64-1.58A5.17,5.17,0,0,1,26,217.83Zm2.35.13a2.87,2.87,0,0,0,.61,2,2,2,0,0,0,1.51.68,1.93,1.93,0,0,0,1.5-.68,2.89,2.89,0,0,0,.61-2,2.84,2.84,0,0,0-.61-2,1.93,1.93,0,0,0-1.5-.68,2,2,0,0,0-1.51.68A2.88,2.88,0,0,0,28.32,218Z"/><path d="M44.56,222.28H42.27v-4.41a6.89,6.89,0,0,0-.14-1.82,1.26,1.26,0,0,0-1.27-.86,1.87,1.87,0,0,0-1.07.32,1.66,1.66,0,0,0-.65.87,7.76,7.76,0,0,0-.17,2v3.92H36.68v-8.65H38.8v1.27A3.57,3.57,0,0,1,43,213.71a2.34,2.34,0,0,1,1,.69,2.78,2.78,0,0,1,.45,1,7.45,7.45,0,0,1,.12,1.54Z"/><path d="M50.85,213.63v1.83H49.29v3.48a9.16,9.16,0,0,0,0,1.24.51.51,0,0,0,.2.28.65.65,0,0,0,.39.12,2.86,2.86,0,0,0,.92-.22l.2,1.77a4.53,4.53,0,0,1-1.81.35,2.9,2.9,0,0,1-1.12-.21,1.68,1.68,0,0,1-.73-.54,2.21,2.21,0,0,1-.32-.89,11.07,11.07,0,0,1-.07-1.61v-3.77H45.94v-1.83H47v-1.72l2.3-1.33v3Z"/><path d="M54.63,222.28H52.34v-8.65h2.13v1.23a3.74,3.74,0,0,1,1-1.15,1.84,1.84,0,0,1,1-.27,2.91,2.91,0,0,1,1.51.43l-.71,2a2,2,0,0,0-1.08-.37,1.29,1.29,0,0,0-.81.26,1.81,1.81,0,0,0-.53,1,13.47,13.47,0,0,0-.19,2.9Z"/><path d="M60.64,216.27l-2.07-.37a3.2,3.2,0,0,1,1.2-1.86,4.43,4.43,0,0,1,2.54-.6,5.51,5.51,0,0,1,2.28.36,2.32,2.32,0,0,1,1.06.92,4.78,4.78,0,0,1,.3,2.05l0,2.67a9.56,9.56,0,0,0,.11,1.68,4.77,4.77,0,0,0,.41,1.16H64.19a6.58,6.58,0,0,1-.22-.67,2,2,0,0,0-.09-.27,4.14,4.14,0,0,1-1.25.85,3.62,3.62,0,0,1-1.43.29,2.9,2.9,0,0,1-2.1-.73,2.41,2.41,0,0,1-.77-1.83,2.49,2.49,0,0,1,.35-1.31,2.33,2.33,0,0,1,1-.88,7.79,7.79,0,0,1,1.82-.53,12.64,12.64,0,0,0,2.22-.56v-.23a1.16,1.16,0,0,0-.32-.94,2,2,0,0,0-1.23-.28,1.61,1.61,0,0,0-.95.24A1.65,1.65,0,0,0,60.64,216.27Zm3.06,1.86c-.29.09-.75.21-1.39.35a4,4,0,0,0-1.24.4,1,1,0,0,0-.45.8,1.11,1.11,0,0,0,.36.83,1.21,1.21,0,0,0,.91.35,2,2,0,0,0,1.18-.4,1.46,1.46,0,0,0,.55-.76,4.71,4.71,0,0,0,.08-1.12Z"/><path d="M75.75,216.19l-2.25.41a1.67,1.67,0,0,0-.52-1,1.56,1.56,0,0,0-1-.34,1.68,1.68,0,0,0-1.36.59,3,3,0,0,0-.51,2,3.49,3.49,0,0,0,.52,2.18,1.68,1.68,0,0,0,1.38.63,1.52,1.52,0,0,0,1.07-.37,2.25,2.25,0,0,0,.59-1.27l2.25.38a4,4,0,0,1-1.35,2.34,4.19,4.19,0,0,1-2.66.79,4,4,0,0,1-3-1.2,5.44,5.44,0,0,1,0-6.65,4,4,0,0,1,3.06-1.19,4.13,4.13,0,0,1,2.51.68A3.74,3.74,0,0,1,75.75,216.19Z"/><path d="M81.45,213.63v1.83H79.89v3.48a8.36,8.36,0,0,0,0,1.24.43.43,0,0,0,.2.28.61.61,0,0,0,.39.12,2.92,2.92,0,0,0,.92-.22l.19,1.77a4.49,4.49,0,0,1-1.81.35,2.82,2.82,0,0,1-1.11-.21,1.63,1.63,0,0,1-.73-.54,2.07,2.07,0,0,1-.32-.89,10.6,10.6,0,0,1-.08-1.61v-3.77h-1v-1.83h1v-1.72l2.3-1.33v3Z"/><path d="M37.87,237.91l2.34.74a5.27,5.27,0,0,1-1.79,2.91,5.1,5.1,0,0,1-3.17.94,5.14,5.14,0,0,1-3.91-1.62,6.22,6.22,0,0,1-1.53-4.44,6.53,6.53,0,0,1,1.54-4.64,5.26,5.26,0,0,1,4-1.65,5,5,0,0,1,3.55,1.3,4.63,4.63,0,0,1,1.23,2.2l-2.39.57a2.57,2.57,0,0,0-.88-1.47,2.6,2.6,0,0,0-1.64-.53,2.7,2.7,0,0,0-2.15.95,4.66,4.66,0,0,0-.83,3.09,4.94,4.94,0,0,0,.82,3.22,2.64,2.64,0,0,0,2.11,1,2.4,2.4,0,0,0,1.66-.61A3.57,3.57,0,0,0,37.87,237.91Z"/><path d="M41.73,237.85a4.6,4.6,0,0,1,.57-2.2A3.74,3.74,0,0,1,43.89,234a4.64,4.64,0,0,1,2.3-.57,4.33,4.33,0,0,1,3.22,1.28,4.78,4.78,0,0,1,0,6.47,4.24,4.24,0,0,1-3.19,1.3,5,5,0,0,1-2.26-.54,3.69,3.69,0,0,1-1.64-1.58A5.17,5.17,0,0,1,41.73,237.85Zm2.35.13a2.87,2.87,0,0,0,.61,2,2,2,0,0,0,1.51.68,1.94,1.94,0,0,0,1.5-.68,2.94,2.94,0,0,0,.61-2,2.89,2.89,0,0,0-.61-2,1.94,1.94,0,0,0-1.5-.68,2,2,0,0,0-1.51.68A2.88,2.88,0,0,0,44.08,238Z"/><path d="M51.65,239.83l2.29-.35a1.69,1.69,0,0,0,.6,1,2,2,0,0,0,1.25.34,2.34,2.34,0,0,0,1.34-.32.74.74,0,0,0,.3-.61.61.61,0,0,0-.16-.44,2,2,0,0,0-.77-.3A12.53,12.53,0,0,1,53,238.06a2.25,2.25,0,0,1-1-1.95,2.41,2.41,0,0,1,.89-1.89,4.15,4.15,0,0,1,2.76-.77,4.81,4.81,0,0,1,2.63.58,2.93,2.93,0,0,1,1.19,1.71l-2.15.4a1.38,1.38,0,0,0-.53-.77,1.92,1.92,0,0,0-1.1-.27,2.48,2.48,0,0,0-1.3.25.56.56,0,0,0-.26.47.5.5,0,0,0,.23.41,8.78,8.78,0,0,0,2.14.65,6.26,6.26,0,0,1,2.55,1,2.13,2.13,0,0,1,.72,1.71,2.59,2.59,0,0,1-1,2,4.39,4.39,0,0,1-2.94.86,4.82,4.82,0,0,1-2.8-.72A3.33,3.33,0,0,1,51.65,239.83Z"/><path d="M65.7,233.65v1.82H64.13V239a8.07,8.07,0,0,0,.05,1.23.5.5,0,0,0,.2.29.65.65,0,0,0,.39.12,3.16,3.16,0,0,0,.92-.22l.19,1.77a4.48,4.48,0,0,1-1.8.35,2.83,2.83,0,0,1-1.12-.21,1.68,1.68,0,0,1-.73-.54,2.21,2.21,0,0,1-.32-.89,11.16,11.16,0,0,1-.07-1.61v-3.78H60.79v-1.82h1.05v-1.72l2.29-1.34v3.06Z"/><path d="M308.91,190.68v5.71h-1.58v-3.74a4.77,4.77,0,0,1-.74.47,5.85,5.85,0,0,1-.9.35v-1.28a4.08,4.08,0,0,0,1.24-.62,2.64,2.64,0,0,0,.69-.89Z" style="fill:#fff"/><path d="M310.61,193.56a3.33,3.33,0,0,1,.58-2.24,2.22,2.22,0,0,1,1.75-.64,2.68,2.68,0,0,1,.93.14,1.6,1.6,0,0,1,.6.36,2.18,2.18,0,0,1,.36.47,2.33,2.33,0,0,1,.21.58,5.17,5.17,0,0,1,.16,1.31,3.8,3.8,0,0,1-.52,2.24,2.06,2.06,0,0,1-1.78.71,2.43,2.43,0,0,1-1.15-.23,1.8,1.8,0,0,1-.71-.66,2.52,2.52,0,0,1-.32-.85A6.18,6.18,0,0,1,310.61,193.56Zm1.55,0a3.72,3.72,0,0,0,.19,1.46.59.59,0,0,0,.55.39.57.57,0,0,0,.41-.16,1.05,1.05,0,0,0,.26-.53,5.9,5.9,0,0,0,.08-1.12,3.88,3.88,0,0,0-.19-1.51.62.62,0,0,0-.57-.38.58.58,0,0,0-.56.39A4,4,0,0,0,312.16,193.57Z" style="fill:#fff"/><path d="M315.9,192.15a1.74,1.74,0,0,1,.17-.74,1.29,1.29,0,0,1,.52-.54,1.72,1.72,0,0,1,.83-.19,1.52,1.52,0,0,1,1.12.4,1.64,1.64,0,0,1,0,2.15,1.52,1.52,0,0,1-1.12.4,1.72,1.72,0,0,1-.83-.19,1.18,1.18,0,0,1-.52-.54A1.72,1.72,0,0,1,315.9,192.15Zm1.08,0a1.22,1.22,0,0,0,.15.69.33.33,0,0,0,.29.14.31.31,0,0,0,.29-.14,1.21,1.21,0,0,0,.16-.69,1.25,1.25,0,0,0-.16-.69.33.33,0,0,0-.29-.14.36.36,0,0,0-.29.14A1.26,1.26,0,0,0,317,192.16Zm3.69-1.48h.81l-3.24,6h-.8Zm-.72,4.51a1.71,1.71,0,0,1,.17-.74,1.23,1.23,0,0,1,.52-.54,1.73,1.73,0,0,1,.83-.2,1.51,1.51,0,0,1,1.12.41,1.64,1.64,0,0,1,0,2.15,1.51,1.51,0,0,1-1.12.4,1.72,1.72,0,0,1-.83-.19,1.23,1.23,0,0,1-.52-.54A1.72,1.72,0,0,1,320,195.19Zm1.08,0a1.13,1.13,0,0,0,.16.69.31.31,0,0,0,.28.14.33.33,0,0,0,.29-.14,1.13,1.13,0,0,0,.16-.69,1.15,1.15,0,0,0-.16-.69.33.33,0,0,0-.29-.14.31.31,0,0,0-.28.14A1.17,1.17,0,0,0,321,195.2Z" style="fill:#fff"/><path d="M309.94,147.79h-4.68a2.81,2.81,0,0,1,.49-1.3,6.36,6.36,0,0,1,1.53-1.44,4.43,4.43,0,0,0,.88-.78.92.92,0,0,0,.19-.5.61.61,0,0,0-.19-.44.68.68,0,0,0-.48-.18.66.66,0,0,0-.49.19,1.14,1.14,0,0,0-.25.66l-1.57-.13a2.54,2.54,0,0,1,.34-1,1.55,1.55,0,0,1,.69-.56,3,3,0,0,1,1.24-.2,3.35,3.35,0,0,1,1.28.19,1.47,1.47,0,0,1,.72.57,1.48,1.48,0,0,1,.26.87,1.82,1.82,0,0,1-.3,1,4,4,0,0,1-1.09,1,7.71,7.71,0,0,0-.63.46l-.38.34h2.44Z" style="fill:#fff"/><path d="M310.61,145a3.33,3.33,0,0,1,.58-2.24,2.22,2.22,0,0,1,1.75-.64,2.46,2.46,0,0,1,.93.14,1.6,1.6,0,0,1,.6.36,2.18,2.18,0,0,1,.36.47,2.33,2.33,0,0,1,.21.58,5.17,5.17,0,0,1,.16,1.31,3.8,3.8,0,0,1-.52,2.24,2.06,2.06,0,0,1-1.78.71,2.56,2.56,0,0,1-1.15-.23A1.8,1.8,0,0,1,311,147a2.52,2.52,0,0,1-.32-.85A6.18,6.18,0,0,1,310.61,145Zm1.55,0a3.74,3.74,0,0,0,.19,1.47.59.59,0,0,0,.55.39.57.57,0,0,0,.41-.16,1.05,1.05,0,0,0,.26-.53,5.9,5.9,0,0,0,.08-1.12,3.88,3.88,0,0,0-.19-1.51.62.62,0,0,0-.57-.38.58.58,0,0,0-.56.39A4,4,0,0,0,312.16,145Z" style="fill:#fff"/><path d="M315.9,143.55a1.74,1.74,0,0,1,.17-.74,1.18,1.18,0,0,1,.52-.54,1.72,1.72,0,0,1,.83-.19,1.52,1.52,0,0,1,1.12.4,1.64,1.64,0,0,1,0,2.15,1.52,1.52,0,0,1-1.12.4,1.72,1.72,0,0,1-.83-.19,1.18,1.18,0,0,1-.52-.54A1.72,1.72,0,0,1,315.9,143.55Zm1.08,0a1.22,1.22,0,0,0,.15.69.33.33,0,0,0,.29.14.31.31,0,0,0,.29-.14,1.21,1.21,0,0,0,.16-.69,1.25,1.25,0,0,0-.16-.69.33.33,0,0,0-.29-.14.36.36,0,0,0-.29.14A1.22,1.22,0,0,0,317,143.56Zm3.69-1.48h.81l-3.24,6h-.8Zm-.72,4.51a1.71,1.71,0,0,1,.17-.74,1.18,1.18,0,0,1,.52-.54,1.73,1.73,0,0,1,.83-.2,1.51,1.51,0,0,1,1.12.41,1.64,1.64,0,0,1,0,2.15,1.51,1.51,0,0,1-1.12.4,1.72,1.72,0,0,1-.83-.19,1.29,1.29,0,0,1-.52-.54A1.72,1.72,0,0,1,320,146.59Zm1.08,0a1.13,1.13,0,0,0,.16.69.31.31,0,0,0,.28.14.33.33,0,0,0,.29-.14,1.57,1.57,0,0,0,0-1.38.33.33,0,0,0-.29-.14.31.31,0,0,0-.28.14A1.13,1.13,0,0,0,321,146.6Z" style="fill:#fff"/><path d="M306.89,99.58l-1.48-.26a1.84,1.84,0,0,1,.71-1.08,3.18,3.18,0,0,1,3.07,0,1.28,1.28,0,0,1,.49,1,1.1,1.1,0,0,1-.2.66,1.64,1.64,0,0,1-.6.52,1.74,1.74,0,0,1,.5.19,1.1,1.1,0,0,1,.43.45,1.3,1.3,0,0,1,.16.67,1.88,1.88,0,0,1-.26.94,1.67,1.67,0,0,1-.74.7,2.85,2.85,0,0,1-1.27.24,3.32,3.32,0,0,1-1.21-.18,1.74,1.74,0,0,1-.72-.53,2.23,2.23,0,0,1-.44-.87l1.56-.2a1.2,1.2,0,0,0,.28.65.74.74,0,0,0,1-.05.87.87,0,0,0,.21-.61.9.9,0,0,0-.2-.61.74.74,0,0,0-.55-.21,2.1,2.1,0,0,0-.51.09l.08-1.12a.9.9,0,0,0,.21,0,.72.72,0,0,0,.51-.19.61.61,0,0,0,.2-.47A.58.58,0,0,0,308,99a.57.57,0,0,0-.42-.15.64.64,0,0,0-.45.17A1,1,0,0,0,306.89,99.58Z" style="fill:#fff"/><path d="M310.61,100.74a3.35,3.35,0,0,1,.58-2.24,2.22,2.22,0,0,1,1.75-.64,2.68,2.68,0,0,1,.93.14,1.74,1.74,0,0,1,.6.36,2,2,0,0,1,.36.48,2.12,2.12,0,0,1,.21.57,5.17,5.17,0,0,1,.16,1.31,3.8,3.8,0,0,1-.52,2.24,2,2,0,0,1-1.78.71,2.56,2.56,0,0,1-1.15-.22,1.82,1.82,0,0,1-.71-.67,2.44,2.44,0,0,1-.32-.85A6.18,6.18,0,0,1,310.61,100.74Zm1.55,0a3.72,3.72,0,0,0,.19,1.46.58.58,0,0,0,1,.23,1.05,1.05,0,0,0,.26-.53,5.9,5.9,0,0,0,.08-1.12,3.88,3.88,0,0,0-.19-1.51.62.62,0,0,0-.57-.38.58.58,0,0,0-.56.39A4,4,0,0,0,312.16,100.75Z" style="fill:#fff"/><path d="M315.9,99.34a1.79,1.79,0,0,1,.17-.75,1.29,1.29,0,0,1,.52-.54,1.72,1.72,0,0,1,.83-.19,1.52,1.52,0,0,1,1.12.4,1.46,1.46,0,0,1,.4,1.08,1.42,1.42,0,0,1-.4,1.07,1.53,1.53,0,0,1-1.12.41,1.85,1.85,0,0,1-.83-.19,1.26,1.26,0,0,1-.52-.55A1.71,1.71,0,0,1,315.9,99.34Zm1.08,0a1.22,1.22,0,0,0,.15.69.34.34,0,0,0,.29.15.32.32,0,0,0,.29-.15,1.21,1.21,0,0,0,.16-.69,1.25,1.25,0,0,0-.16-.69.32.32,0,0,0-.29-.13.35.35,0,0,0-.29.13A1.26,1.26,0,0,0,317,99.34Zm3.69-1.48h.81l-3.24,6h-.8Zm-.72,4.52a1.72,1.72,0,0,1,.17-.75,1.29,1.29,0,0,1,.52-.54,1.72,1.72,0,0,1,.83-.19,1.51,1.51,0,0,1,1.12.4,1.64,1.64,0,0,1,0,2.15,1.51,1.51,0,0,1-1.12.41,1.73,1.73,0,0,1-.83-.2,1.18,1.18,0,0,1-.52-.54A1.71,1.71,0,0,1,320,102.38Zm1.08,0a1.13,1.13,0,0,0,.16.69.29.29,0,0,0,.28.14.31.31,0,0,0,.29-.14,1.13,1.13,0,0,0,.16-.69,1.17,1.17,0,0,0-.16-.69.33.33,0,0,0-.29-.14.31.31,0,0,0-.28.14A1.17,1.17,0,0,0,321,102.38Z" style="fill:#fff"/><path d="M308.06,60.53h-2.85V59.24l2.85-3.38h1.36v3.46h.7v1.21h-.7v1h-1.36Zm0-1.21V57.55l-1.51,1.77Z" style="fill:#fff"/><path d="M310.61,58.75a3.36,3.36,0,0,1,.58-2.25,2.26,2.26,0,0,1,1.75-.64,2.68,2.68,0,0,1,.93.14,1.75,1.75,0,0,1,.6.37,2,2,0,0,1,.36.47,2.19,2.19,0,0,1,.21.58,5.06,5.06,0,0,1,.16,1.31,3.82,3.82,0,0,1-.52,2.24,2.06,2.06,0,0,1-1.78.7,2.56,2.56,0,0,1-1.15-.22,1.8,1.8,0,0,1-.71-.66,2.52,2.52,0,0,1-.32-.85A6.26,6.26,0,0,1,310.61,58.75Zm1.55,0a3.78,3.78,0,0,0,.19,1.47.59.59,0,0,0,.55.39.58.58,0,0,0,.41-.17,1,1,0,0,0,.26-.52,6.1,6.1,0,0,0,.08-1.13,3.82,3.82,0,0,0-.19-1.5.61.61,0,0,0-.57-.39.58.58,0,0,0-.56.4A4,4,0,0,0,312.16,58.75Z" style="fill:#fff"/><path d="M315.9,57.34a1.71,1.71,0,0,1,.17-.74,1.26,1.26,0,0,1,.52-.55,1.85,1.85,0,0,1,.83-.19,1.53,1.53,0,0,1,1.12.41,1.42,1.42,0,0,1,.4,1.07,1.46,1.46,0,0,1-.4,1.08,1.56,1.56,0,0,1-1.12.4,1.72,1.72,0,0,1-.83-.19,1.29,1.29,0,0,1-.52-.54A1.79,1.79,0,0,1,315.9,57.34Zm1.08,0a1.26,1.26,0,0,0,.15.69.36.36,0,0,0,.29.14.33.33,0,0,0,.29-.14,1.25,1.25,0,0,0,.16-.69,1.21,1.21,0,0,0-.16-.69.31.31,0,0,0-.29-.14.33.33,0,0,0-.29.14A1.22,1.22,0,0,0,317,57.35Zm3.69-1.49h.81l-3.24,6h-.8ZM320,60.38a1.79,1.79,0,0,1,.17-.75,1.29,1.29,0,0,1,.52-.54,1.72,1.72,0,0,1,.83-.19,1.51,1.51,0,0,1,1.12.4,1.46,1.46,0,0,1,.4,1.08,1.43,1.43,0,0,1-.4,1.07,1.51,1.51,0,0,1-1.12.41,1.85,1.85,0,0,1-.83-.19,1.26,1.26,0,0,1-.52-.55A1.71,1.71,0,0,1,320,60.38Zm1.08,0a1.17,1.17,0,0,0,.16.69.31.31,0,0,0,.28.13.32.32,0,0,0,.29-.13,1.17,1.17,0,0,0,.16-.69,1.19,1.19,0,0,0-.16-.7.33.33,0,0,0-.29-.14.3.3,0,0,0-.28.15A1.13,1.13,0,0,0,321,60.39Z" style="fill:#fff"/><path d="M306,28h3.71v1.25H307.2l-.13.84a2.59,2.59,0,0,1,.51-.18,2.22,2.22,0,0,1,.51-.06,1.85,1.85,0,0,1,1.36.51,1.67,1.67,0,0,1,.53,1.28,2.22,2.22,0,0,1-.27,1.05,1.82,1.82,0,0,1-.77.76,2.63,2.63,0,0,1-1.27.27,3.7,3.7,0,0,1-.95-.11,1.89,1.89,0,0,1-1.13-.79,2.31,2.31,0,0,1-.28-.65l1.58-.18a.91.91,0,0,0,.27.58.7.7,0,0,0,.5.2.72.72,0,0,0,.54-.25,1.11,1.11,0,0,0,.21-.74,1,1,0,0,0-.22-.73.72.72,0,0,0-.57-.24,1,1,0,0,0-.43.11,1.4,1.4,0,0,0-.35.29L305.51,31Z" style="fill:#fff"/><path d="M310.61,30.81a3.31,3.31,0,0,1,.58-2.24,2.22,2.22,0,0,1,1.75-.64,2.46,2.46,0,0,1,.93.14,1.6,1.6,0,0,1,.6.36,2.18,2.18,0,0,1,.36.47,2.33,2.33,0,0,1,.21.58,5.17,5.17,0,0,1,.16,1.31,3.8,3.8,0,0,1-.52,2.24,2.06,2.06,0,0,1-1.78.71,2.56,2.56,0,0,1-1.15-.23,1.8,1.8,0,0,1-.71-.66,2.52,2.52,0,0,1-.32-.85A6.26,6.26,0,0,1,310.61,30.81Zm1.55,0a3.74,3.74,0,0,0,.19,1.47.59.59,0,0,0,.55.39.57.57,0,0,0,.41-.16,1.1,1.1,0,0,0,.26-.53,6,6,0,0,0,.08-1.12,3.88,3.88,0,0,0-.19-1.51.6.6,0,0,0-.57-.38.58.58,0,0,0-.56.39A4,4,0,0,0,312.16,30.81Z" style="fill:#fff"/><path d="M315.9,29.4a1.71,1.71,0,0,1,.17-.74,1.18,1.18,0,0,1,.52-.54,1.72,1.72,0,0,1,.83-.19,1.52,1.52,0,0,1,1.12.4,1.64,1.64,0,0,1,0,2.15,1.52,1.52,0,0,1-1.12.4,1.72,1.72,0,0,1-.83-.19,1.18,1.18,0,0,1-.52-.54A1.75,1.75,0,0,1,315.9,29.4Zm1.08,0a1.22,1.22,0,0,0,.15.69.36.36,0,0,0,.29.14.33.33,0,0,0,.29-.14,1.21,1.21,0,0,0,.16-.69,1.25,1.25,0,0,0-.16-.69.33.33,0,0,0-.29-.14.36.36,0,0,0-.29.14A1.22,1.22,0,0,0,317,29.41Zm3.69-1.48h.81l-3.24,6h-.8ZM320,32.44a1.71,1.71,0,0,1,.17-.74,1.26,1.26,0,0,1,.52-.55,1.85,1.85,0,0,1,.83-.19,1.51,1.51,0,0,1,1.12.41,1.64,1.64,0,0,1,0,2.15,1.51,1.51,0,0,1-1.12.4,1.72,1.72,0,0,1-.83-.19,1.29,1.29,0,0,1-.52-.54A1.75,1.75,0,0,1,320,32.44Zm1.08,0a1.13,1.13,0,0,0,.16.69.31.31,0,0,0,.28.14.33.33,0,0,0,.29-.14,1.57,1.57,0,0,0,0-1.38.31.31,0,0,0-.29-.14.31.31,0,0,0-.28.14A1.13,1.13,0,0,0,321,32.45Z" style="fill:#fff"/></svg>