<svg id="Capa_1" data-name="Capa 1" xmlns="http://www.w3.org/2000/svg" viewBox="0 0 3848.16 2269.2"><polygon points="2358.56 1618.06 2358.56 635.76 1405.35 144.61 452.15 635.76 452.15 1618.06 1405.35 2109.21 2358.56 1618.06" style="fill:none;stroke:#632d36;stroke-miterlimit:10;stroke-width:5px"/><polygon points="2207.55 1540.25 2207.55 713.57 1405.35 300.22 603.15 713.57 603.15 1540.25 1405.35 1953.59 2207.55 1540.25" style="fill:none;stroke:#632d36;stroke-miterlimit:10;stroke-width:5px"/><polygon points="2056.58 1462.46 2056.58 791.36 1405.35 455.8 754.13 791.36 754.13 1462.46 1405.35 1798.02 2056.58 1462.46" style="fill:none;stroke:#632d36;stroke-miterlimit:10;stroke-width:5px"/><polygon points="1885.35 1374.23 1885.35 879.58 1405.35 632.26 925.35 879.58 925.35 1374.23 1405.35 1621.56 1885.35 1374.23" style="fill:none;stroke:#632d36;stroke-miterlimit:10;stroke-width:5px"/><polygon points="1734.82 1296.67 1734.82 957.15 1405.35 787.39 1075.89 957.15 1075.89 1296.67 1405.35 1466.43 1734.82 1296.67" style="fill:none;stroke:#632d36;stroke-miterlimit:10;stroke-width:5px"/><polygon points="1576.72 1215.2 1576.72 1038.61 1405.35 950.32 1233.99 1038.61 1233.99 1215.2 1405.35 1303.5 1576.72 1215.2" style="fill:none;stroke:#632d36;stroke-miterlimit:10;stroke-width:5px"/><path d="M1082.5,108.86V50.8h48.23v9.82h-35.1V73.49h32.66v9.78h-32.66v15.8H1132v9.79Z"/><path d="M1138.63,96.86l12.51-1.71a8.11,8.11,0,0,0,3.24,4.93,11.88,11.88,0,0,0,6.84,1.69c3.22,0,5.65-.53,7.27-1.59a3.42,3.42,0,0,0,1.65-3,2.78,2.78,0,0,0-.89-2.1,10.77,10.77,0,0,0-4.17-1.46q-15.09-3-19.13-5.43-5.6-3.41-5.59-9.46a11.19,11.19,0,0,1,4.84-9.19q4.83-3.72,15-3.72c6.44,0,11.24.93,14.37,2.81a14.47,14.47,0,0,1,6.48,8.32l-11.76,1.94a6.52,6.52,0,0,0-2.86-3.77,11.49,11.49,0,0,0-6-1.3q-4.93,0-7.06,1.22a2.62,2.62,0,0,0-1.42,2.26,2.41,2.41,0,0,0,1.25,2q1.68,1.11,11.64,3.13t13.91,5a9.8,9.8,0,0,1,3.91,8.28q0,5.78-5.41,9.94t-16,4.16q-9.63,0-15.25-3.49A16.17,16.17,0,0,1,1138.63,96.86Z"/><path d="M1215.17,66.8v8.87h-8.51v17a38.34,38.34,0,0,0,.24,6A2.43,2.43,0,0,0,1208,100a3.84,3.84,0,0,0,2.11.56,17.9,17.9,0,0,0,5-1.07l1.07,8.63a27.44,27.44,0,0,1-9.86,1.67,17.33,17.33,0,0,1-6.07-1,9,9,0,0,1-4-2.62,9.72,9.72,0,0,1-1.75-4.33,47.87,47.87,0,0,1-.4-7.85V75.67h-5.72V66.8h5.72V58.44L1206.66,52V66.8Z"/><path d="M1233.15,79.63l-11.32-1.82a15.69,15.69,0,0,1,6.57-9q4.65-2.94,13.84-2.93,8.34,0,12.43,1.76a12.06,12.06,0,0,1,5.74,4.47q1.66,2.72,1.67,10l-.14,13a40.24,40.24,0,0,0,.6,8.18,22.44,22.44,0,0,0,2.24,5.65h-12.33c-.33-.74-.73-1.84-1.2-3.29-.21-.66-.35-1.1-.44-1.31a22.65,22.65,0,0,1-6.84,4.16,21.67,21.67,0,0,1-7.76,1.39q-7.28,0-11.47-3.53A11.55,11.55,0,0,1,1222.45,91a12.1,12.1,0,0,1,5.35-4.27,45.59,45.59,0,0,1,9.92-2.6,73.58,73.58,0,0,0,12.11-2.73V80.3q0-3.21-1.77-4.57t-6.7-1.37a9.79,9.79,0,0,0-5.2,1.17A8.18,8.18,0,0,0,1233.15,79.63Zm16.68,9q-2.4.7-7.59,1.7t-6.79,1.94a4.56,4.56,0,0,0-2.44,3.92,5.17,5.17,0,0,0,2,4,7.24,7.24,0,0,0,5,1.7,11.59,11.59,0,0,0,6.43-2,7,7,0,0,0,3-3.68,19.47,19.47,0,0,0,.49-5.42Z"/><path d="M1317.59,108.86H1306v-6.18a18.3,18.3,0,0,1-6.81,5.36,19.13,19.13,0,0,1-7.92,1.77,18.88,18.88,0,0,1-13.92-5.85q-5.79-5.83-5.79-16.29,0-10.69,5.64-16.26a19.43,19.43,0,0,1,14.24-5.56,18.53,18.53,0,0,1,13.67,5.86V50.8h12.47Zm-33.28-21.94q0,6.72,2.08,9.74a9.71,9.71,0,0,0,8.44,4.35,9.61,9.61,0,0,0,7.32-3.26q3-3.27,3-9.76c0-4.84-1-8.31-2.92-10.44a10.39,10.39,0,0,0-14.94,0Q1284.32,80.66,1284.31,86.92Z"/><path d="M1327,87.23a20.86,20.86,0,0,1,3.06-10.73,19.94,19.94,0,0,1,8.67-7.92,28.28,28.28,0,0,1,12.54-2.73q10.7,0,17.53,6.2a20.24,20.24,0,0,1,6.83,15.66,20.48,20.48,0,0,1-6.9,15.82q-6.9,6.27-17.37,6.28a30.14,30.14,0,0,1-12.36-2.62,19.22,19.22,0,0,1-8.94-7.66A23.33,23.33,0,0,1,1327,87.23Zm12.78.6q0,6.26,3.32,9.58a11.76,11.76,0,0,0,16.4,0q3.3-3.33,3.31-9.66t-3.31-9.51a11.79,11.79,0,0,0-16.4,0Q1339.77,81.57,1339.78,87.83Z"/><path d="M1381,96.86l12.51-1.71a8,8,0,0,0,3.24,4.93,11.87,11.87,0,0,0,6.83,1.69c3.23,0,5.65-.53,7.28-1.59a3.41,3.41,0,0,0,1.64-3,2.77,2.77,0,0,0-.88-2.1,10.84,10.84,0,0,0-4.17-1.46q-15.09-3-19.13-5.43-5.6-3.41-5.59-9.46a11.19,11.19,0,0,1,4.84-9.19q4.83-3.72,15-3.72,9.68,0,14.38,2.81a14.47,14.47,0,0,1,6.48,8.32l-11.76,1.94a6.57,6.57,0,0,0-2.86-3.77,11.49,11.49,0,0,0-6-1.3q-4.93,0-7.06,1.22a2.6,2.6,0,0,0-1.42,2.26,2.39,2.39,0,0,0,1.24,2q1.7,1.11,11.65,3.13t13.91,5a9.82,9.82,0,0,1,3.91,8.28q0,5.78-5.42,9.94t-16,4.16q-9.61,0-15.24-3.49A16.17,16.17,0,0,1,1381,96.86Z"/><path d="M1461.18,50.8h13.14V82.24a59.15,59.15,0,0,0,.48,9.7,9.37,9.37,0,0,0,4,5.73c2.11,1.44,5,2.16,8.68,2.16s6.53-.68,8.43-2a8,8,0,0,0,3.41-5,57.74,57.74,0,0,0,.58-9.86V50.8h13.13V81.29q0,10.45-1.06,14.77a15.69,15.69,0,0,1-3.93,7.29,20,20,0,0,1-7.65,4.73,36.85,36.85,0,0,1-12.52,1.77q-9.32,0-14.13-1.93a20.22,20.22,0,0,1-7.61-5,15.42,15.42,0,0,1-3.68-6.43q-1.29-5-1.29-14.73Z"/><path d="M1569.67,108.86h-12.46V87.39q0-6.81-.8-8.81a6.36,6.36,0,0,0-2.6-3.11,8.08,8.08,0,0,0-4.33-1.11,10.83,10.83,0,0,0-5.81,1.59,8.16,8.16,0,0,0-3.53,4.19q-.95,2.63-1,9.67v19h-12.47V66.8h11.58V73a19.64,19.64,0,0,1,15.53-7.13,20.82,20.82,0,0,1,7.55,1.32,12.79,12.79,0,0,1,5.17,3.39,11.84,11.84,0,0,1,2.44,4.67,31.73,31.73,0,0,1,.68,7.49Z"/><path d="M1582.32,61.1V50.8h12.47V61.1Zm0,47.76V66.8h12.47v42.06Z"/><path d="M1650.79,108.86h-11.58v-6.18a18.15,18.15,0,0,1-6.81,5.36,19.13,19.13,0,0,1-7.92,1.77,18.86,18.86,0,0,1-13.91-5.85q-5.8-5.83-5.8-16.29,0-10.69,5.64-16.26a19.43,19.43,0,0,1,14.24-5.56,18.51,18.51,0,0,1,13.67,5.86V50.8h12.47Zm-33.28-21.94c0,4.48.69,7.73,2.09,9.74A9.68,9.68,0,0,0,1628,101a9.58,9.58,0,0,0,7.32-3.26q3-3.27,3-9.76c0-4.84-1-8.31-2.93-10.44a10.37,10.37,0,0,0-14.93,0Q1617.51,80.66,1617.51,86.92Z"/><path d="M1660.2,87.23a20.86,20.86,0,0,1,3.06-10.73,19.94,19.94,0,0,1,8.67-7.92,28.31,28.31,0,0,1,12.54-2.73q10.69,0,17.53,6.2a20.24,20.24,0,0,1,6.83,15.66,20.48,20.48,0,0,1-6.9,15.82q-6.9,6.27-17.37,6.28a30.14,30.14,0,0,1-12.36-2.62,19.22,19.22,0,0,1-8.94-7.66A23.33,23.33,0,0,1,1660.2,87.23Zm12.78.6q0,6.26,3.32,9.58a11.76,11.76,0,0,0,16.4,0q3.3-3.33,3.31-9.66t-3.31-9.51a11.79,11.79,0,0,0-16.4,0Q1673,81.57,1673,87.83Z"/><path d="M1714.2,96.86l12.51-1.71a8.07,8.07,0,0,0,3.24,4.93,11.88,11.88,0,0,0,6.84,1.69c3.22,0,5.65-.53,7.27-1.59a3.41,3.41,0,0,0,1.64-3,2.77,2.77,0,0,0-.88-2.1,10.77,10.77,0,0,0-4.17-1.46q-15.09-3-19.13-5.43-5.6-3.41-5.59-9.46a11.19,11.19,0,0,1,4.84-9.19q4.83-3.72,15-3.72c6.44,0,11.24.93,14.37,2.81a14.47,14.47,0,0,1,6.48,8.32l-11.76,1.94a6.57,6.57,0,0,0-2.86-3.77,11.49,11.49,0,0,0-6-1.3q-4.93,0-7.06,1.22a2.6,2.6,0,0,0-1.42,2.26,2.42,2.42,0,0,0,1.24,2q1.7,1.11,11.65,3.13t13.91,5a9.8,9.8,0,0,1,3.91,8.28q0,5.78-5.41,9.94t-16,4.16q-9.63,0-15.25-3.49A16.17,16.17,0,0,1,1714.2,96.86Z"/><path d="M2483.35,556.86l12.74,3.6q-2.94,9.51-9.74,14.12t-17.29,4.61q-13,0-21.3-7.9t-8.34-21.6q0-14.49,8.39-22.52t22.05-8q11.94,0,19.39,6.3a22.41,22.41,0,0,1,6.66,10.69l-13,2.78a12.18,12.18,0,0,0-4.82-7.13,14.91,14.91,0,0,0-8.89-2.62,15.63,15.63,0,0,0-11.74,4.64q-4.5,4.63-4.51,15,0,11,4.44,15.68a15.22,15.22,0,0,0,11.54,4.67,14.14,14.14,0,0,0,9-3Q2481.71,563.23,2483.35,556.86Z"/><path d="M2519.69,520.15v21.34a19.29,19.29,0,0,1,14.42-6.3,20.26,20.26,0,0,1,7.77,1.43,11.8,11.8,0,0,1,7.61,8.55,39.31,39.31,0,0,1,.64,8.36V578.2h-12.47V556c0-4.4-.23-7.2-.71-8.39a5.61,5.61,0,0,0-2.5-2.83,8.83,8.83,0,0,0-4.51-1,11.33,11.33,0,0,0-5.54,1.34,8.06,8.06,0,0,0-3.58,4.06,22,22,0,0,0-1.13,8V578.2h-12.47V520.15Z"/><path d="M2562.78,530.44V520.15h12.47v10.29Zm0,47.76V536.14h12.47V578.2Z"/><path d="M2630.89,578.2h-12.47V556.74q0-6.81-.79-8.81a6.31,6.31,0,0,0-2.6-3.11,8.08,8.08,0,0,0-4.33-1.11,10.91,10.91,0,0,0-5.81,1.58,8.17,8.17,0,0,0-3.53,4.2q-.95,2.61-1,9.66V578.2h-12.47V536.14h11.58v6.18a19.68,19.68,0,0,1,15.53-7.13,20.82,20.82,0,0,1,7.55,1.33,12.59,12.59,0,0,1,5.17,3.39,11.84,11.84,0,0,1,2.44,4.67,31.64,31.64,0,0,1,.68,7.48Z"/><path d="M2652.86,549l-11.32-1.83a15.75,15.75,0,0,1,6.57-9q4.66-2.93,13.84-2.93,8.36,0,12.43,1.77a12,12,0,0,1,5.75,4.47c1.1,1.81,1.66,5.13,1.66,10l-.13,13a40.31,40.31,0,0,0,.6,8.18,21.79,21.79,0,0,0,2.24,5.64h-12.34c-.33-.74-.72-1.83-1.2-3.29-.21-.66-.35-1.09-.44-1.3a22.93,22.93,0,0,1-6.83,4.16,21.76,21.76,0,0,1-7.77,1.38q-7.27,0-11.47-3.52a11.13,11.13,0,0,1-4.19-8.91,11,11,0,0,1,1.9-6.36,12.18,12.18,0,0,1,5.35-4.28,45.68,45.68,0,0,1,9.92-2.59,75.5,75.5,0,0,0,12.11-2.73v-1.11c0-2.14-.59-3.66-1.77-4.58s-3.42-1.36-6.7-1.36a9.79,9.79,0,0,0-5.2,1.17A8.09,8.09,0,0,0,2652.86,549Zm16.68,9c-1.6.48-4.12,1-7.59,1.71s-5.72,1.3-6.79,1.94a4.55,4.55,0,0,0-2.44,3.92,5.19,5.19,0,0,0,2,4,7.29,7.29,0,0,0,5,1.7,11.67,11.67,0,0,0,6.43-2,7,7,0,0,0,3-3.68,19.5,19.5,0,0,0,.49-5.43Z"/><path d="M3522.9,1181.52v14.91h-56.26a38.66,38.66,0,0,1,5.49-16q4.56-7.58,18-20.08,10.86-10.11,13.31-13.7a17.64,17.64,0,0,0,3.31-9.82q0-5.37-2.88-8.26a10.79,10.79,0,0,0-8-2.88,10.66,10.66,0,0,0-8,3q-3,3-3.43,10l-16-1.6q1.42-13.25,9-19t18.85-5.77q12.39,0,19.47,6.68a22,22,0,0,1,7.09,16.62,29,29,0,0,1-2,10.77,43.94,43.94,0,0,1-6.43,10.71,102.86,102.86,0,0,1-10.5,10.67q-7.61,7-9.63,9.26a27.61,27.61,0,0,0-3.28,4.45Z"/><path d="M3560.87,1112.36q12.16,0,19,8.68,8.16,10.29,8.17,34.1t-8.23,34.15q-6.79,8.57-19,8.56a24,24,0,0,1-19.7-9.39q-7.49-9.39-7.48-33.49,0-23.65,8.22-34Q3548.71,1112.37,3560.87,1112.36Zm0,13.31a8,8,0,0,0-5.19,1.86q-2.29,1.85-3.54,6.65-1.66,6.22-1.66,21t1.48,20.24c1,3.68,2.24,6.12,3.74,7.34a8.21,8.21,0,0,0,10.37,0c1.52-1.24,2.7-3.45,3.54-6.65q1.65-6.16,1.66-20.9t-1.49-20.25c-1-3.67-2.24-6.13-3.74-7.36A7.89,7.89,0,0,0,3560.87,1125.67Z"/><path d="M3639.85,1196.43h-16V1136a55.32,55.32,0,0,1-20.74,12.16v-14.56a46.3,46.3,0,0,0,13.65-7.8,29.5,29.5,0,0,0,10.11-13.39h13Z"/><path d="M3698.44,1196.43h-16V1136a55.36,55.36,0,0,1-20.73,12.16v-14.56a46.42,46.42,0,0,0,13.65-7.8,29.48,29.48,0,0,0,10.1-13.39h13Z"/><path d="M3522.9,1436v14.9h-56.26a38.76,38.76,0,0,1,5.49-16q4.56-7.56,18-20.07,10.86-10.11,13.31-13.7a17.67,17.67,0,0,0,3.31-9.83q0-5.37-2.88-8.25a12.27,12.27,0,0,0-16,.14q-3,3-3.43,10l-16-1.6q1.42-13.25,9-19t18.85-5.77q12.39,0,19.47,6.68a22,22,0,0,1,7.09,16.62,28.91,28.91,0,0,1-2,10.76,43.75,43.75,0,0,1-6.43,10.71,101.71,101.71,0,0,1-10.5,10.68q-7.61,7-9.63,9.25A28.11,28.11,0,0,0,3491,1436Z"/><path d="M3560.87,1366.88q12.16,0,19,8.68,8.16,10.28,8.17,34.09t-8.23,34.15q-6.79,8.58-19,8.57a24,24,0,0,1-19.7-9.39q-7.49-9.4-7.48-33.5,0-23.64,8.22-34Q3548.71,1366.89,3560.87,1366.88Zm0,13.31a8,8,0,0,0-5.19,1.85q-2.29,1.86-3.54,6.66-1.66,6.22-1.66,21t1.48,20.25q1.48,5.5,3.74,7.34a8.21,8.21,0,0,0,10.37,0q2.28-1.86,3.54-6.65,1.65-6.18,1.66-20.91t-1.49-20.24q-1.49-5.51-3.74-7.37A7.94,7.94,0,0,0,3560.87,1380.19Z"/><path d="M3639.85,1450.94h-16v-60.47a55.46,55.46,0,0,1-20.74,12.16v-14.56a46.3,46.3,0,0,0,13.65-7.8,29.55,29.55,0,0,0,10.11-13.39h13Z"/><path d="M3718,1436v14.9h-56.25a38.89,38.89,0,0,1,5.48-16q4.57-7.56,18-20.07,10.84-10.11,13.31-13.7a17.75,17.75,0,0,0,3.31-9.83q0-5.37-2.88-8.25a12.28,12.28,0,0,0-16,.14q-3,3-3.42,10l-16-1.6q1.42-13.25,9-19t18.85-5.77q12.39,0,19.47,6.68a21.94,21.94,0,0,1,7.08,16.62,28.9,28.9,0,0,1-2,10.76,44.07,44.07,0,0,1-6.43,10.71,101,101,0,0,1-10.51,10.68q-7.59,7-9.62,9.25a27.5,27.5,0,0,0-3.28,4.46Z"/><path d="M257.46,520.15h26a84.73,84.73,0,0,1,11.52.57,18.18,18.18,0,0,1,6.79,2.39,15.74,15.74,0,0,1,5,4.86,12.07,12.07,0,0,1,2,6.79,12.49,12.49,0,0,1-2.46,7.48,14.94,14.94,0,0,1-6.68,5.11,17.44,17.44,0,0,1,9.14,5.27,13,13,0,0,1,3.19,8.75,15.8,15.8,0,0,1-2.06,7.7,16.12,16.12,0,0,1-5.64,6,20,20,0,0,1-8.8,2.75q-3.29.33-15.85.4H257.46Zm13.14,9.66v13.42h8.6c5.12,0,8.3-.06,9.55-.2a9.22,9.22,0,0,0,5.3-2.07,5.81,5.81,0,0,0,1.93-4.54,6,6,0,0,0-1.67-4.37,7.83,7.83,0,0,0-4.94-2c-1.31-.14-5.05-.2-11.23-.2Zm0,23.09v15.52h12.15a65.8,65.8,0,0,0,9-.36,8.47,8.47,0,0,0,4.77-2.31,6.67,6.67,0,0,0,1.84-4.93,7,7,0,0,0-1.42-4.44,8,8,0,0,0-4.1-2.65q-2.69-.84-11.65-.83Z"/><path d="M334.89,578.2H322.42V536.14H334v6q3-4.23,5.34-5.58a10.73,10.73,0,0,1,5.39-1.35,17.26,17.26,0,0,1,8.21,2.1l-3.86,9.7a11.86,11.86,0,0,0-5.85-1.82,7.47,7.47,0,0,0-4.44,1.29,8.61,8.61,0,0,0-2.86,4.65q-1.05,3.38-1.05,14.1Z"/><path d="M367.64,549l-11.31-1.83a15.78,15.78,0,0,1,6.56-9q4.67-2.93,13.85-2.93,8.34,0,12.42,1.77a12,12,0,0,1,5.75,4.47q1.66,2.72,1.66,10l-.13,13a40.31,40.31,0,0,0,.6,8.18,22.15,22.15,0,0,0,2.24,5.64H386.94c-.32-.74-.72-1.83-1.19-3.29-.21-.66-.36-1.09-.45-1.3a22.93,22.93,0,0,1-6.83,4.16,21.76,21.76,0,0,1-7.77,1.38q-7.27,0-11.47-3.52a11.16,11.16,0,0,1-4.19-8.91,10.94,10.94,0,0,1,1.91-6.36,12.09,12.09,0,0,1,5.34-4.28,45.84,45.84,0,0,1,9.92-2.59,75.69,75.69,0,0,0,12.12-2.73v-1.11c0-2.14-.6-3.66-1.78-4.58s-3.42-1.36-6.7-1.36a9.73,9.73,0,0,0-5.19,1.17A8.1,8.1,0,0,0,367.64,549Zm16.69,9q-2.4.72-7.59,1.71c-3.46.66-5.73,1.3-6.79,1.94a4.53,4.53,0,0,0-2.44,3.92,5.21,5.21,0,0,0,1.95,4,7.31,7.31,0,0,0,5,1.7,11.65,11.65,0,0,0,6.43-2,7.09,7.09,0,0,0,3-3.68,19.91,19.91,0,0,0,.49-5.43Z"/><path d="M404.47,566.2,417,564.5a8.14,8.14,0,0,0,3.24,4.93,12,12,0,0,0,6.84,1.68c3.22,0,5.65-.53,7.27-1.58a3.42,3.42,0,0,0,1.65-3,2.75,2.75,0,0,0-.89-2.1,10.57,10.57,0,0,0-4.17-1.47q-15.09-3-19.13-5.42-5.58-3.41-5.59-9.47a11.19,11.19,0,0,1,4.84-9.18q4.83-3.72,15-3.73,9.68,0,14.37,2.82a14.45,14.45,0,0,1,6.48,8.31l-11.76,1.94a6.5,6.5,0,0,0-2.86-3.76,11.46,11.46,0,0,0-6-1.31c-3.28,0-5.64.41-7.06,1.23a2.6,2.6,0,0,0-1.42,2.26,2.42,2.42,0,0,0,1.25,2q1.68,1.11,11.64,3.13t13.92,4.95a9.81,9.81,0,0,1,3.9,8.27q0,5.79-5.41,9.94t-16,4.16q-9.63,0-15.24-3.48A16.2,16.2,0,0,1,404.47,566.2Z"/><path d="M459.41,530.44V520.15h12.46v10.29Zm0,47.76V536.14h12.46V578.2Z"/><path d="M484.65,578.2V520.15h12.47V578.2Z"/><path d="M257.51,1651.44v-58.06H302.1v9.82H270.64v13.74H297.8v9.82H270.64v24.68Z"/><path d="M324.78,1651.44H312.31v-42.06h11.58v6q3-4.24,5.35-5.58a10.7,10.7,0,0,1,5.39-1.35,17.29,17.29,0,0,1,8.21,2.1l-3.86,9.7a11.9,11.9,0,0,0-5.86-1.82,7.47,7.47,0,0,0-4.44,1.29,8.58,8.58,0,0,0-2.86,4.65q-1.05,3.36-1,14.1Z"/><path d="M357.52,1622.21l-11.31-1.82a15.69,15.69,0,0,1,6.57-9q4.65-2.92,13.84-2.93,8.34,0,12.43,1.76a12.07,12.07,0,0,1,5.74,4.48c1.11,1.81,1.67,5.12,1.67,10l-.14,13a40.24,40.24,0,0,0,.6,8.18,22.44,22.44,0,0,0,2.24,5.65H376.83c-.33-.74-.73-1.84-1.2-3.29-.21-.66-.36-1.1-.45-1.31a22.6,22.6,0,0,1-6.83,4.16,21.67,21.67,0,0,1-7.76,1.39q-7.29,0-11.47-3.53a11.14,11.14,0,0,1-4.2-8.91,11,11,0,0,1,1.91-6.35,12,12,0,0,1,5.35-4.28,45,45,0,0,1,9.91-2.59,74.3,74.3,0,0,0,12.12-2.74v-1.11q0-3.21-1.78-4.57t-6.7-1.37a9.73,9.73,0,0,0-5.19,1.17A8.19,8.19,0,0,0,357.52,1622.21Zm16.69,9q-2.4.71-7.59,1.7t-6.79,1.94a4.54,4.54,0,0,0-2.44,3.92,5.19,5.19,0,0,0,1.95,4,7.27,7.27,0,0,0,5,1.71,11.68,11.68,0,0,0,6.44-2,7.07,7.07,0,0,0,3-3.69,19.47,19.47,0,0,0,.49-5.42Z"/><path d="M441.61,1651.44H429.14V1630c0-4.54-.26-7.48-.8-8.81a6.29,6.29,0,0,0-2.59-3.11,8.08,8.08,0,0,0-4.33-1.11,10.81,10.81,0,0,0-5.81,1.59,8.09,8.09,0,0,0-3.53,4.2c-.64,1.74-.95,5-.95,9.66v19H398.66v-42.06h11.58v6.18a19.68,19.68,0,0,1,15.53-7.13,20.52,20.52,0,0,1,7.54,1.33,12.61,12.61,0,0,1,5.17,3.38,11.58,11.58,0,0,1,2.44,4.67,31.11,31.11,0,0,1,.69,7.49Z"/><path d="M495.35,1621.81l-12.29,2a7.77,7.77,0,0,0-2.82-5,9.27,9.27,0,0,0-5.7-1.66,9.88,9.88,0,0,0-7.44,2.87q-2.76,2.88-2.77,9.6,0,7.5,2.82,10.58a9.74,9.74,0,0,0,7.56,3.09,9.07,9.07,0,0,0,5.82-1.8q2.27-1.8,3.19-6.2l12.25,1.86q-1.91,7.53-7.32,11.37t-14.51,3.84q-10.35,0-16.49-5.82t-6.14-16.12q0-10.42,6.16-16.22t16.69-5.8q8.61,0,13.69,3.31A18.28,18.28,0,0,1,495.35,1621.81Z"/><path d="M504.8,1603.68v-10.3h12.47v10.3Zm0,47.76v-42.06h12.47v42.06Z"/><path d="M539.37,1622.21l-11.32-1.82a15.69,15.69,0,0,1,6.57-9q4.67-2.92,13.84-2.93,8.34,0,12.43,1.76a12.07,12.07,0,0,1,5.74,4.48c1.11,1.81,1.67,5.12,1.67,10l-.13,13a40.41,40.41,0,0,0,.59,8.18,22.44,22.44,0,0,0,2.24,5.65H558.67c-.33-.74-.73-1.84-1.2-3.29-.21-.66-.35-1.1-.44-1.31a22.65,22.65,0,0,1-6.84,4.16,21.67,21.67,0,0,1-7.76,1.39q-7.27,0-11.47-3.53a11.14,11.14,0,0,1-4.2-8.91,11,11,0,0,1,1.91-6.35,12.05,12.05,0,0,1,5.35-4.28,45.1,45.1,0,0,1,9.92-2.59,74.38,74.38,0,0,0,12.11-2.74v-1.11q0-3.21-1.77-4.57t-6.7-1.37a9.79,9.79,0,0,0-5.2,1.17A8.18,8.18,0,0,0,539.37,1622.21Zm16.68,9q-2.4.71-7.59,1.7t-6.79,1.94a4.56,4.56,0,0,0-2.44,3.92,5.17,5.17,0,0,0,2,4,7.25,7.25,0,0,0,5,1.71,11.67,11.67,0,0,0,6.43-2,7.07,7.07,0,0,0,3-3.69,19.47,19.47,0,0,0,.49-5.42Z"/><path d="M2447.14,1593.38h13.09v36.75q0,7.21-1.42,11.09a16.05,16.05,0,0,1-6.92,8.14q-5,3.06-13.22,3.07-9.63,0-14.83-4.82t-5.23-14.11l12.38-1.27c.15,3.33.69,5.68,1.64,7a7.32,7.32,0,0,0,6.48,3.13q4.39,0,6.21-2.24t1.82-9.29Z"/><path d="M2483.44,1622.21l-11.32-1.82a15.69,15.69,0,0,1,6.57-9q4.67-2.92,13.84-2.93,8.35,0,12.43,1.76a12.1,12.1,0,0,1,5.75,4.48c1.1,1.81,1.66,5.12,1.66,10l-.13,13a40.24,40.24,0,0,0,.6,8.18,21.71,21.71,0,0,0,2.24,5.65h-12.34c-.33-.74-.72-1.84-1.2-3.29-.21-.66-.35-1.1-.44-1.31a22.72,22.72,0,0,1-6.83,4.16,21.77,21.77,0,0,1-7.77,1.39q-7.27,0-11.47-3.53a11.13,11.13,0,0,1-4.19-8.91,11,11,0,0,1,1.9-6.35,12.11,12.11,0,0,1,5.35-4.28,45.1,45.1,0,0,1,9.92-2.59,74.11,74.11,0,0,0,12.11-2.74v-1.11q0-3.21-1.77-4.57t-6.7-1.37a9.79,9.79,0,0,0-5.2,1.17A8.18,8.18,0,0,0,2483.44,1622.21Zm16.68,9c-1.6.47-4.12,1-7.59,1.7s-5.72,1.31-6.79,1.94a4.56,4.56,0,0,0-2.44,3.92,5.17,5.17,0,0,0,2,4,7.25,7.25,0,0,0,5,1.71,11.67,11.67,0,0,0,6.43-2,7.07,7.07,0,0,0,3-3.69,19.47,19.47,0,0,0,.49-5.42Z"/><path d="M2524.31,1609.38h11.62v6.18a16.66,16.66,0,0,1,6.13-5.15,18.45,18.45,0,0,1,8.56-2,18.91,18.91,0,0,1,13.93,5.74q5.73,5.74,5.73,16,0,10.53-5.77,16.38a19,19,0,0,1-14,5.84,17.61,17.61,0,0,1-7.08-1.39,23.76,23.76,0,0,1-6.68-4.75v21.19h-12.46Zm12.33,20.31q0,7.1,3.15,10.48a10.09,10.09,0,0,0,7.68,3.39,9.45,9.45,0,0,0,7.23-3.11c1.92-2.08,2.89-5.47,2.89-10.2q0-6.62-3-9.82a9.62,9.62,0,0,0-7.36-3.21,10.06,10.06,0,0,0-7.59,3.15Q2536.65,1623.52,2536.64,1629.69Z"/><path d="M2577.29,1629.81a20.86,20.86,0,0,1,3.06-10.73,19.94,19.94,0,0,1,8.67-7.92,28.31,28.31,0,0,1,12.54-2.73q10.7,0,17.53,6.2a20.24,20.24,0,0,1,6.83,15.66,20.47,20.47,0,0,1-6.9,15.82q-6.9,6.27-17.37,6.28a30,30,0,0,1-12.36-2.62,19.22,19.22,0,0,1-8.94-7.66A23.31,23.31,0,0,1,2577.29,1629.81Zm12.78.6q0,6.25,3.33,9.58a11.75,11.75,0,0,0,16.39,0q3.3-3.33,3.31-9.66,0-6.18-3.31-9.51a11.77,11.77,0,0,0-16.39,0Q2590.07,1624.15,2590.07,1630.41Zm5.23-26.18,6.13-11.84h14l-12.2,11.84Z"/><path d="M2678.55,1651.44h-12.47V1630q0-6.81-.8-8.81a6.34,6.34,0,0,0-2.59-3.11,8.11,8.11,0,0,0-4.33-1.11,10.81,10.81,0,0,0-5.81,1.59,8,8,0,0,0-3.53,4.2q-1,2.61-1,9.66v19H2635.6v-42.06h11.58v6.18a19.68,19.68,0,0,1,15.53-7.13,20.56,20.56,0,0,1,7.54,1.33,12.61,12.61,0,0,1,5.17,3.38,11.71,11.71,0,0,1,2.44,4.67,31.11,31.11,0,0,1,.69,7.49Z"/><path d="M1268,2200.87h-14.29l-5.68-13.19h-26l-5.37,13.19H1202.7l25.33-58.06h13.89Zm-24.18-23-9-21.54L1226,2177.9Z"/><path d="M1274.85,2200.87v-58.06h12.47v58.06Z"/><path d="M1327.39,2187.48l12.42,1.86a18.52,18.52,0,0,1-7.56,9.29q-5.18,3.18-12.94,3.19-12.29,0-18.19-7.17-4.66-5.74-4.66-14.5,0-10.44,6.12-16.37a21.37,21.37,0,0,1,15.49-5.92q10.52,0,16.59,6.2t5.82,19h-31.24a10.57,10.57,0,0,0,3,7.7,10,10,0,0,0,7.19,2.75,8.19,8.19,0,0,0,4.93-1.43A8.69,8.69,0,0,0,1327.39,2187.48Zm.71-11.24c-.09-3.23-1-5.67-2.8-7.35a9.73,9.73,0,0,0-13.22.14,9.56,9.56,0,0,0-2.62,7.21Z"/><path d="M1349.71,2158.81h11.49v5.74a19.32,19.32,0,0,1,14.69-6.69,17.37,17.37,0,0,1,7.85,1.66,13.63,13.63,0,0,1,5.46,5,21.41,21.41,0,0,1,6.7-5,18,18,0,0,1,7.68-1.66,18.77,18.77,0,0,1,8.78,1.88,12,12,0,0,1,5.37,5.53Q1419,2168,1419,2174v26.89h-12.47v-24c0-4.17-.43-6.87-1.29-8.08a6.16,6.16,0,0,0-5.32-2.38,9.23,9.23,0,0,0-4.93,1.43,8,8,0,0,0-3.33,4.18q-1,2.74-1,8.69v20.2h-12.47v-23q0-6.14-.66-7.92a5.13,5.13,0,0,0-2.06-2.66,7.17,7.17,0,0,0-3.8-.87,9.93,9.93,0,0,0-5.19,1.39,7.75,7.75,0,0,0-3.31,4q-1,2.61-1,8.67v20.44h-12.47Z"/><path d="M1440.76,2171.64l-11.31-1.82a15.71,15.71,0,0,1,6.56-9q4.66-2.92,13.85-2.93,8.34,0,12.42,1.76a12.1,12.1,0,0,1,5.75,4.48q1.67,2.71,1.66,10l-.13,13a40.2,40.2,0,0,0,.6,8.17,22.07,22.07,0,0,0,2.24,5.65h-12.34c-.32-.74-.72-1.84-1.19-3.29-.21-.66-.36-1.09-.45-1.31a22.72,22.72,0,0,1-6.83,4.16,21.55,21.55,0,0,1-7.77,1.39q-7.27,0-11.47-3.53a11.16,11.16,0,0,1-4.19-8.91,10.93,10.93,0,0,1,1.91-6.35,12,12,0,0,1,5.34-4.28,45.84,45.84,0,0,1,9.92-2.59,74.3,74.3,0,0,0,12.12-2.74v-1.11c0-2.13-.6-3.66-1.78-4.57s-3.42-1.37-6.7-1.37a9.73,9.73,0,0,0-5.19,1.17A8.19,8.19,0,0,0,1440.76,2171.64Zm16.69,9c-1.6.48-4.13,1-7.59,1.7s-5.73,1.31-6.79,1.94a4.54,4.54,0,0,0-2.44,3.92,5.19,5.19,0,0,0,1.95,4,7.27,7.27,0,0,0,5,1.71,11.65,11.65,0,0,0,6.43-2,7.11,7.11,0,0,0,3-3.69,19.87,19.87,0,0,0,.49-5.42Z"/><path d="M1524.85,2200.87h-12.47V2179.4q0-6.81-.8-8.81a6.34,6.34,0,0,0-2.59-3.11,8.08,8.08,0,0,0-4.33-1.11,10.81,10.81,0,0,0-5.81,1.59,8,8,0,0,0-3.53,4.2q-1,2.61-1,9.66v19H1481.9v-42.06h11.58V2165a19.68,19.68,0,0,1,15.53-7.13,20.56,20.56,0,0,1,7.54,1.33,12.61,12.61,0,0,1,5.17,3.38,11.71,11.71,0,0,1,2.44,4.67,31.11,31.11,0,0,1,.69,7.49Z"/><path d="M1537.49,2153.11v-10.3H1550v10.3Zm0,47.76v-42.06H1550v42.06Z"/><path d="M1572.06,2171.64l-11.31-1.82a15.71,15.71,0,0,1,6.56-9q4.67-2.92,13.85-2.93,8.34,0,12.42,1.76a12.1,12.1,0,0,1,5.75,4.48q1.67,2.71,1.66,10l-.13,13a40.2,40.2,0,0,0,.6,8.17,22.44,22.44,0,0,0,2.24,5.65h-12.34c-.32-.74-.72-1.84-1.19-3.29-.21-.66-.36-1.09-.45-1.31a22.72,22.72,0,0,1-6.83,4.16,21.55,21.55,0,0,1-7.77,1.39q-7.27,0-11.47-3.53a11.16,11.16,0,0,1-4.19-8.91,11,11,0,0,1,1.91-6.35,12,12,0,0,1,5.34-4.28,45.84,45.84,0,0,1,9.92-2.59,74.3,74.3,0,0,0,12.12-2.74v-1.11c0-2.13-.6-3.66-1.78-4.57s-3.42-1.37-6.7-1.37a9.73,9.73,0,0,0-5.19,1.17A8.19,8.19,0,0,0,1572.06,2171.64Zm16.69,9c-1.6.48-4.13,1-7.59,1.7s-5.73,1.31-6.79,1.94a4.54,4.54,0,0,0-2.44,3.92,5.19,5.19,0,0,0,2,4,7.27,7.27,0,0,0,5,1.71,11.65,11.65,0,0,0,6.43-2,7.11,7.11,0,0,0,3-3.69,19.87,19.87,0,0,0,.49-5.42Z"/><path d="M2812.93,973.49V773h148.64v33.91H2853.4v44.44h100.65v33.78H2853.4v54.56h112v33.78Z"/><path d="M3131.54,973.49h-38.42V899.37q0-23.52-2.47-30.43a21.32,21.32,0,0,0-8-10.73,22.92,22.92,0,0,0-13.34-3.83,30.84,30.84,0,0,0-17.91,5.47,27.56,27.56,0,0,0-10.87,14.5q-2.94,9-2.94,33.36v65.78h-38.43V828.26h35.69V849.6q19-24.61,47.86-24.62a57.73,57.73,0,0,1,23.25,4.58q10.53,4.59,15.93,11.69a42.38,42.38,0,0,1,7.52,16.14q2.11,9,2.12,25.85Z"/><path d="M3210.44,973.49l-58.52-145.23h40.34l27.35,74.12,7.93,24.75c2.09-6.29,3.42-10.44,4-12.44q1.92-6.16,4.11-12.31l27.62-74.12h39.52L3245,973.49Z"/><path d="M3323.4,810.49l18.87-40.89h43.07l-37.6,40.89Zm2.87,163V828.26h38.42V973.49Z"/><path d="M3395.19,898.82a78.52,78.52,0,0,1,9.43-37.05,64.69,64.69,0,0,1,26.74-27.35A79.34,79.34,0,0,1,3470,825q33,0,54,21.4t21.06,54.08q0,33-21.26,54.63t-53.54,21.68a84.28,84.28,0,0,1-38.08-9,61.85,61.85,0,0,1-27.56-26.46Q3395.19,923.85,3395.19,898.82Zm39.38,2.06q0,21.6,10.26,33.09a33.53,33.53,0,0,0,50.52,0q10.18-11.49,10.19-33.37,0-21.33-10.19-32.82a33.53,33.53,0,0,0-50.52,0Q3434.57,879.27,3434.57,900.88Z"/><path d="M3561.61,932.05l38.56-5.88q2.46,11.22,10,17t21.06,5.81q14.91,0,22.43-5.47a12.21,12.21,0,0,0,5.06-10.26A10.09,10.09,0,0,0,3656,926q-2.86-2.74-12.85-5.06-46.5-10.26-58.94-18.74-17.24-11.76-17.23-32.68,0-18.87,14.9-31.72T3628.07,825q29.8,0,44.3,9.71t20,28.72l-36.23,6.7a22.38,22.38,0,0,0-8.82-13q-6.5-4.51-18.53-4.52-15.18,0-21.74,4.24a9.12,9.12,0,0,0-4.38,7.8,8.49,8.49,0,0,0,3.83,7q5.19,3.82,35.89,10.8t42.87,17.1q12,10.26,12,28.58,0,20-16.69,34.32t-49.36,14.36q-29.67,0-47-12A55.41,55.41,0,0,1,3561.61,932.05Z"/><polygon points="2207.55 713.57 1405.35 455.8 1302.21 1070.69 1075.89 1296.67 1405.35 1303.5 2207.55 1540.25 2207.55 713.57" style="fill:none;stroke:#e32242;stroke-miterlimit:10;stroke-width:15px"/><polygon points="1037.65 923.39 1233.99 1215.2 1405.35 1798.02 1885.35 1374.23 1938.14 823.75 1389.59 895.23 1037.65 923.39" style="fill:none;stroke:#28309f;stroke-miterlimit:10;stroke-width:15px"/><ellipse cx="1408.04" cy="455.8" rx="31.3" ry="27.93" style="fill:#e32242"/><ellipse cx="2207.55" cy="713.05" rx="31.3" ry="27.93" style="fill:#e32242"/><circle cx="3094.53" cy="1196.42" r="40.28" style="fill:#28309f"/><circle cx="3094.53" cy="1410.67" r="40.28" style="fill:#e32242"/><ellipse cx="2207.55" cy="1540.25" rx="31.3" ry="27.93" style="fill:#e32242"/><ellipse cx="1408.04" cy="1303.5" rx="31.3" ry="27.93" style="fill:#e32242"/><ellipse cx="1075.89" cy="1296.88" rx="31.3" ry="27.93" style="fill:#e32242"/><ellipse cx="1297.31" cy="1074.12" rx="31.3" ry="27.93" style="fill:#e32242"/><ellipse cx="1044.59" cy="922.39" rx="31.3" ry="27.93" style="fill:#28309f"/><ellipse cx="1938.14" cy="823.75" rx="31.3" ry="27.93" style="fill:#28309f"/><ellipse cx="1885.35" cy="1379.19" rx="31.3" ry="27.93" style="fill:#28309f"/><ellipse cx="1408.04" cy="1798.01" rx="31.3" ry="27.93" style="fill:#28309f"/><ellipse cx="1233.99" cy="1212.22" rx="31.3" ry="27.93" style="fill:#28309f"/><line x1="2827.26" y1="1196.42" x2="3361.79" y2="1196.42" style="fill:none;stroke:#28309f;stroke-miterlimit:10;stroke-width:15px"/><line x1="2827.26" y1="1410.67" x2="3361.79" y2="1410.67" style="fill:none;stroke:#e32242;stroke-miterlimit:10;stroke-width:15px"/></svg>