<svg xmlns="http://www.w3.org/2000/svg" viewBox="0 0 453.54 283.46"><g id="Capa_1" data-name="Capa 1"><path d="M131.8,30.7h-.66a110.67,110.67,0,0,0-38.67,6.93L131.8,137.74Z" style="fill:#ce1d1d"/><path d="M92.47,37.62A110.58,110.58,0,0,0,61.4,55.33l70.4,82.41Z" style="fill:#d33737"/><path d="M131.8,30.7v107L59.6,226.65a111,111,0,1,0,72.2-196Z" style="fill:#b60f07"/><path d="M25.65,107a111.19,111.19,0,0,0,34,119.68l72.2-88.91S56,115.38,25.65,107Z" style="fill:#e56363"/><path d="M61.4,55.33A111.29,111.29,0,0,0,25.65,107C56,115.38,131.8,137.74,131.8,137.74Z" style="fill:#d84e4e"/><path d="M179.25,157.86l-3.13.38a1.68,1.68,0,0,0-.41-.93A1,1,0,0,0,175,157a1.32,1.32,0,0,0-1.19.78,7.2,7.2,0,0,0-.45,2.38,3.83,3.83,0,0,1,1.16-.85,3.25,3.25,0,0,1,1.37-.28,3.42,3.42,0,0,1,2.56,1.09,3.76,3.76,0,0,1,1.05,2.74,4.06,4.06,0,0,1-.53,2,3.45,3.45,0,0,1-1.47,1.41,5.26,5.26,0,0,1-2.35.47,5.46,5.46,0,0,1-2.72-.58,4,4,0,0,1-1.65-1.85,7.91,7.91,0,0,1-.61-3.36,6.56,6.56,0,0,1,1.29-4.49,4.58,4.58,0,0,1,3.58-1.43,5.82,5.82,0,0,1,2.13.32,3.29,3.29,0,0,1,1.3.91A4,4,0,0,1,179.25,157.86Zm-5.79,5a2.09,2.09,0,0,0,.46,1.44,1.46,1.46,0,0,0,1.14.52,1.33,1.33,0,0,0,1-.47,2.07,2.07,0,0,0,.42-1.41,2.23,2.23,0,0,0-.43-1.46A1.38,1.38,0,0,0,175,161a1.42,1.42,0,0,0-1.1.49A2,2,0,0,0,173.46,162.9Z" style="fill:#fff"/><path d="M182,155.31h7.47v2.51h-5.06l-.27,1.7a4.8,4.8,0,0,1,1-.37,3.94,3.94,0,0,1,1-.13,3.79,3.79,0,0,1,2.76,1,3.47,3.47,0,0,1,1.06,2.59,4.39,4.39,0,0,1-.55,2.1,3.71,3.71,0,0,1-1.54,1.55,5.49,5.49,0,0,1-2.56.53,7.61,7.61,0,0,1-1.92-.21,3.88,3.88,0,0,1-1.36-.63,3.75,3.75,0,0,1-.91-1,5.16,5.16,0,0,1-.58-1.33l3.18-.34a2,2,0,0,0,.54,1.16,1.47,1.47,0,0,0,1,.4,1.37,1.37,0,0,0,1.08-.5,2.21,2.21,0,0,0,.43-1.49,2.13,2.13,0,0,0-.43-1.48,1.47,1.47,0,0,0-1.15-.47,1.82,1.82,0,0,0-.88.22,2.35,2.35,0,0,0-.7.59l-2.68-.39Z" style="fill:#fff"/><path d="M191.36,158.09a3.36,3.36,0,0,1,.34-1.5,2.36,2.36,0,0,1,1.05-1.09,3.41,3.41,0,0,1,1.67-.39,3,3,0,0,1,2.24.81,3.28,3.28,0,0,1,0,4.34,3,3,0,0,1-2.24.81,3.52,3.52,0,0,1-1.67-.38,2.43,2.43,0,0,1-1.05-1.1A3.36,3.36,0,0,1,191.36,158.09Zm2.17,0a2.4,2.4,0,0,0,.31,1.39.67.67,0,0,0,.58.29.66.66,0,0,0,.58-.29,2.4,2.4,0,0,0,.31-1.39,2.44,2.44,0,0,0-.31-1.39.67.67,0,0,0-.58-.28.68.68,0,0,0-.58.28A2.4,2.4,0,0,0,193.53,158.1Zm7.44-3h1.63l-6.54,12.1h-1.61Zm-1.45,9.1a3.36,3.36,0,0,1,.34-1.5,2.41,2.41,0,0,1,1-1.09,3.41,3.41,0,0,1,1.67-.39,3.07,3.07,0,0,1,2.25.81,3.31,3.31,0,0,1,0,4.34,3.07,3.07,0,0,1-2.25.81,3.52,3.52,0,0,1-1.67-.38,2.48,2.48,0,0,1-1-1.1A3.36,3.36,0,0,1,199.52,164.21Zm2.17,0a2.42,2.42,0,0,0,.31,1.39.67.67,0,0,0,.58.27.7.7,0,0,0,.59-.27,3.39,3.39,0,0,0,0-2.79.68.68,0,0,0-.59-.28.66.66,0,0,0-.58.29A2.38,2.38,0,0,0,201.69,164.23Z" style="fill:#fff"/><path d="M105.73,41.65h7.47v2.51h-5.06l-.27,1.7a5,5,0,0,1,1-.37,4.46,4.46,0,0,1,1-.13,3.79,3.79,0,0,1,2.75,1A3.45,3.45,0,0,1,113.74,49a4.45,4.45,0,0,1-.54,2.11,3.71,3.71,0,0,1-1.55,1.54,5.35,5.35,0,0,1-2.56.53,7.72,7.72,0,0,1-1.92-.21,4,4,0,0,1-1.36-.63,3.71,3.71,0,0,1-.9-1,4.76,4.76,0,0,1-.58-1.32l3.18-.35a1.94,1.94,0,0,0,.54,1.16,1.46,1.46,0,0,0,2.1-.1,2.26,2.26,0,0,0,.43-1.49,2.15,2.15,0,0,0-.44-1.48,1.5,1.5,0,0,0-1.15-.47,1.85,1.85,0,0,0-.88.22,2.65,2.65,0,0,0-.69.59l-2.68-.38Z" style="fill:#fff"/><path d="M115.12,44.43a3.4,3.4,0,0,1,.35-1.5,2.41,2.41,0,0,1,1-1.09,3.4,3.4,0,0,1,1.67-.38,3,3,0,0,1,2.24.81,3.27,3.27,0,0,1,0,4.33,3,3,0,0,1-2.24.81,3.52,3.52,0,0,1-1.67-.38,2.46,2.46,0,0,1-1-1.09A3.45,3.45,0,0,1,115.12,44.43Zm2.17,0a2.45,2.45,0,0,0,.31,1.38.66.66,0,0,0,.59.29.64.64,0,0,0,.58-.29,2.45,2.45,0,0,0,.31-1.38,2.48,2.48,0,0,0-.31-1.39.65.65,0,0,0-.58-.28.68.68,0,0,0-.59.28A2.46,2.46,0,0,0,117.29,44.45Zm7.45-3h1.63l-6.54,12.09h-1.62Zm-1.45,9.09a3.36,3.36,0,0,1,.34-1.5A2.36,2.36,0,0,1,124.68,48a3.39,3.39,0,0,1,1.66-.39,3,3,0,0,1,2.25.82,3.27,3.27,0,0,1,0,4.33,3,3,0,0,1-2.25.81,3.39,3.39,0,0,1-1.66-.38,2.36,2.36,0,0,1-1.05-1.09A3.44,3.44,0,0,1,123.29,50.55Zm2.17,0a2.4,2.4,0,0,0,.31,1.39.65.65,0,0,0,.57.28.69.69,0,0,0,.59-.28,2.4,2.4,0,0,0,.31-1.39,2.44,2.44,0,0,0-.31-1.4.69.69,0,0,0-.59-.28.64.64,0,0,0-.57.29A2.4,2.4,0,0,0,125.46,50.57Z" style="fill:#fff"/><path d="M73.26,51.24h7.47v2.51H75.67l-.27,1.7a5.65,5.65,0,0,1,1-.37,4.42,4.42,0,0,1,1-.12,3.76,3.76,0,0,1,2.76,1,3.42,3.42,0,0,1,1.06,2.58,4.32,4.32,0,0,1-.55,2.11,3.63,3.63,0,0,1-1.54,1.54,5.37,5.37,0,0,1-2.56.54,7.14,7.14,0,0,1-1.92-.22,3.88,3.88,0,0,1-1.36-.63,4.08,4.08,0,0,1-.91-.95,5,5,0,0,1-.57-1.33L75,59.28a1.84,1.84,0,0,0,.54,1.16,1.4,1.4,0,0,0,1,.4,1.33,1.33,0,0,0,1.08-.5,2.18,2.18,0,0,0,.43-1.48,2.16,2.16,0,0,0-.43-1.49,1.5,1.5,0,0,0-1.15-.47,1.86,1.86,0,0,0-.88.23,2.76,2.76,0,0,0-.7.58l-2.68-.38Z" style="fill:#fff"/><path d="M82.65,54A3.36,3.36,0,0,1,83,52.53a2.33,2.33,0,0,1,1-1.1,3.49,3.49,0,0,1,1.67-.38,3.06,3.06,0,0,1,2.24.81,3.27,3.27,0,0,1,0,4.33,3.06,3.06,0,0,1-2.24.81,3.38,3.38,0,0,1-1.67-.38,2.31,2.31,0,0,1-1-1.09A3.42,3.42,0,0,1,82.65,54Zm2.17,0a2.4,2.4,0,0,0,.31,1.39.75.75,0,0,0,1.17,0,3.27,3.27,0,0,0,0-2.78.75.75,0,0,0-1.17,0A2.4,2.4,0,0,0,84.82,54Zm7.44-3h1.63L87.35,63.14H85.74Zm-1.45,9.1a3.5,3.5,0,0,1,.34-1.5,2.43,2.43,0,0,1,1-1.1,3.43,3.43,0,0,1,1.67-.38,3.07,3.07,0,0,1,2.25.81,3.27,3.27,0,0,1,0,4.33,3,3,0,0,1-2.25.82,3.43,3.43,0,0,1-1.67-.39,2.46,2.46,0,0,1-1-1.09A3.5,3.5,0,0,1,90.81,60.15Zm2.17,0a2.48,2.48,0,0,0,.31,1.39.65.65,0,0,0,.58.28.68.68,0,0,0,.59-.28,2.48,2.48,0,0,0,.31-1.39,2.54,2.54,0,0,0-.31-1.4.7.7,0,0,0-.59-.27.65.65,0,0,0-.58.28A2.48,2.48,0,0,0,93,60.16Z" style="fill:#fff"/><path d="M48.12,85.74V97.25H44.93V89.71a10.21,10.21,0,0,1-1.49,1,11.54,11.54,0,0,1-1.81.69V88.77a7.59,7.59,0,0,0,2.49-1.24,4.9,4.9,0,0,0,1.39-1.79Z" style="fill:#fff"/><path d="M51.54,91.54c0-2.15.38-3.65,1.16-4.51a4.51,4.51,0,0,1,3.54-1.29,5.29,5.29,0,0,1,1.88.28,3.48,3.48,0,0,1,1.19.73,3.72,3.72,0,0,1,.73,1,4.92,4.92,0,0,1,.43,1.16,11,11,0,0,1,.32,2.65,7.8,7.8,0,0,1-1,4.51,4.18,4.18,0,0,1-3.59,1.43A5,5,0,0,1,53.85,97a3.72,3.72,0,0,1-1.45-1.34,5,5,0,0,1-.63-1.71A11.11,11.11,0,0,1,51.54,91.54Zm3.12,0a7.64,7.64,0,0,0,.38,3,1.2,1.2,0,0,0,1.11.79A1.15,1.15,0,0,0,57,95a2.19,2.19,0,0,0,.52-1.06,11.24,11.24,0,0,0,.16-2.26,8,8,0,0,0-.38-3,1.23,1.23,0,0,0-1.15-.78,1.18,1.18,0,0,0-1.13.79A8.41,8.41,0,0,0,54.66,91.55Z" style="fill:#fff"/><path d="M62.2,88.71a3.44,3.44,0,0,1,.35-1.5,2.36,2.36,0,0,1,1.05-1.09,3.38,3.38,0,0,1,1.67-.38,3.06,3.06,0,0,1,2.24.81,3.27,3.27,0,0,1,0,4.33,3.06,3.06,0,0,1-2.24.81,3.49,3.49,0,0,1-1.67-.38,2.4,2.4,0,0,1-1.05-1.09A3.45,3.45,0,0,1,62.2,88.71Zm2.17,0a2.42,2.42,0,0,0,.31,1.39.67.67,0,0,0,.59.28.65.65,0,0,0,.58-.28,3.27,3.27,0,0,0,0-2.78.65.65,0,0,0-.58-.28.67.67,0,0,0-.59.28A2.38,2.38,0,0,0,64.37,88.73Zm7.44-3h1.64L66.91,97.83H65.29Zm-1.45,9.09a3.5,3.5,0,0,1,.34-1.5,2.46,2.46,0,0,1,1-1.09,3.43,3.43,0,0,1,1.67-.39,3.06,3.06,0,0,1,2.25.82,3.27,3.27,0,0,1,0,4.33,3.06,3.06,0,0,1-2.25.82,3.43,3.43,0,0,1-1.67-.39,2.46,2.46,0,0,1-1-1.09A3.55,3.55,0,0,1,70.36,94.83Zm2.17,0a2.48,2.48,0,0,0,.31,1.39.75.75,0,0,0,1.17,0,2.48,2.48,0,0,0,.31-1.39,2.54,2.54,0,0,0-.31-1.4.69.69,0,0,0-.59-.28.67.67,0,0,0-.58.29A2.48,2.48,0,0,0,72.53,94.85Z" style="fill:#fff"/><path d="M43,151.42v11.52H39.77v-7.55a9.5,9.5,0,0,1-1.5,1,11.47,11.47,0,0,1-1.81.7v-2.58a7.65,7.65,0,0,0,2.5-1.25,5.12,5.12,0,0,0,1.39-1.79Z" style="fill:#fff"/><path d="M47.65,151.62h7.46v2.51H50.05l-.27,1.69a6.5,6.5,0,0,1,1-.37,4.51,4.51,0,0,1,1-.12,3.79,3.79,0,0,1,2.76,1,3.47,3.47,0,0,1,1,2.59,4.38,4.38,0,0,1-.54,2.1,3.68,3.68,0,0,1-1.55,1.55,5.44,5.44,0,0,1-2.56.53,7.58,7.58,0,0,1-1.91-.21,3.65,3.65,0,0,1-1.36-.64,3.55,3.55,0,0,1-.91-.95,4.84,4.84,0,0,1-.58-1.33l3.18-.34a2,2,0,0,0,.54,1.16,1.46,1.46,0,0,0,1,.4,1.39,1.39,0,0,0,1.09-.5,2.26,2.26,0,0,0,.43-1.49,2.13,2.13,0,0,0-.44-1.48,1.45,1.45,0,0,0-1.15-.47,1.88,1.88,0,0,0-.88.22,2.46,2.46,0,0,0-.69.59l-2.68-.39Z" style="fill:#fff"/><path d="M57,154.4a3.36,3.36,0,0,1,.34-1.5,2.36,2.36,0,0,1,1-1.09,3.41,3.41,0,0,1,1.67-.39,3,3,0,0,1,2.24.81,3.28,3.28,0,0,1,0,4.34,3,3,0,0,1-2.24.81,3.41,3.41,0,0,1-1.67-.39,2.36,2.36,0,0,1-1-1.09A3.36,3.36,0,0,1,57,154.4Zm2.17,0a2.49,2.49,0,0,0,.3,1.39.69.69,0,0,0,.59.29.66.66,0,0,0,.58-.29,2.4,2.4,0,0,0,.31-1.39,2.44,2.44,0,0,0-.31-1.39.67.67,0,0,0-.58-.28.7.7,0,0,0-.59.28A2.49,2.49,0,0,0,59.21,154.41Zm7.44-3h1.63l-6.54,12.1H60.13Zm-1.45,9.1a3.36,3.36,0,0,1,.34-1.5,2.31,2.31,0,0,1,1-1.09,3.41,3.41,0,0,1,1.67-.39,3,3,0,0,1,2.24.81,3.28,3.28,0,0,1,0,4.34,3,3,0,0,1-2.24.81,3.41,3.41,0,0,1-1.67-.39,2.31,2.31,0,0,1-1-1.09A3.36,3.36,0,0,1,65.2,160.52Zm2.17,0a2.42,2.42,0,0,0,.31,1.39.67.67,0,0,0,.58.27.68.68,0,0,0,.58-.27,3.29,3.29,0,0,0,0-2.79.66.66,0,0,0-.58-.28.64.64,0,0,0-.58.29A2.38,2.38,0,0,0,67.37,160.54Z" style="fill:#fff"/><rect x="272.19" y="169.58" width="138.92" height="15.96" style="fill:none;stroke:#d33737;stroke-miterlimit:10"/><rect x="272.19" y="194.22" width="138.92" height="15.96" style="fill:none;stroke:#ce1d1d;stroke-miterlimit:10"/><rect x="272.19" y="146.58" width="138.92" height="15.96" style="fill:none;stroke:#d84e4e;stroke-miterlimit:10"/><rect x="272.19" y="121.5" width="138.92" height="15.96" style="fill:none;stroke:#e56363;stroke-miterlimit:10"/><rect x="272.19" y="96.69" width="138.92" height="15.96" style="fill:none;stroke:#b60f07;stroke-miterlimit:10"/><circle cx="272.1" cy="104.64" r="7.97" style="fill:#b60f07"/><circle cx="272.1" cy="129.89" r="7.97" style="fill:#e56363"/><circle cx="272.1" cy="154.47" r="7.97" style="fill:#d84e4e"/><circle cx="272.1" cy="177.72" r="7.97" style="fill:#d33737"/><circle cx="272.1" cy="202.31" r="7.97" style="fill:#ce1d1d"/><path d="M291.67,99.38a15,15,0,0,1,2.44-.19,4,4,0,0,1,2.75.82,2.62,2.62,0,0,1,.86,2,2.88,2.88,0,0,1-.76,2.1,4.08,4.08,0,0,1-3,1.08,4.5,4.5,0,0,1-1-.09v3.94h-1.27Zm1.27,4.74a4.45,4.45,0,0,0,1.05.1c1.53,0,2.46-.74,2.46-2.1s-.92-1.92-2.32-1.92a5.23,5.23,0,0,0-1.19.1Z" style="fill:#2d2d2d"/><path d="M300.58,100.05a.8.8,0,0,1-1.59,0,.78.78,0,0,1,.8-.8A.76.76,0,0,1,300.58,100.05Zm-1.43,9V102h1.28v7.06Z" style="fill:#2d2d2d"/><path d="M301.76,108.34l3.19-4.15c.31-.38.6-.71.92-1.09v0h-3.82v-1h5.38v.8l-3.15,4.1c-.29.39-.59.74-.91,1.11v0h4.13v1h-5.73Z" style="fill:#2d2d2d"/><path d="M308,108.34l3.19-4.15c.31-.38.6-.71.92-1.09v0h-3.82v-1h5.38v.8l-3.15,4.1c-.29.39-.59.74-.91,1.11v0h4.13v1H308Z" style="fill:#2d2d2d"/><path d="M319,109.09l-.1-.89h-.05a2.63,2.63,0,0,1-2.15,1,2,2,0,0,1-2.16-2c0-1.7,1.51-2.64,4.24-2.62v-.15a1.45,1.45,0,0,0-1.6-1.63,3.53,3.53,0,0,0-1.84.52l-.29-.84a4.37,4.37,0,0,1,2.32-.63c2.15,0,2.68,1.47,2.68,2.89v2.64a10.81,10.81,0,0,0,.11,1.69Zm-.19-3.6c-1.4,0-3,.21-3,1.58A1.13,1.13,0,0,0,317,108.3a1.76,1.76,0,0,0,1.71-1.18,1.47,1.47,0,0,0,.07-.41Z" style="fill:#2d2d2d"/><path d="M292.94,123.62v4.11h4.75v-4.11H299v9.82h-1.28v-4.6h-4.75v4.6h-1.27v-9.82Z" style="fill:#2d2d2d"/><path d="M305,133.44l-.1-.89h-.05a2.6,2.6,0,0,1-2.15,1,2,2,0,0,1-2.16-2c0-1.71,1.52-2.64,4.24-2.63v-.14a1.45,1.45,0,0,0-1.6-1.63,3.53,3.53,0,0,0-1.84.52l-.29-.84a4.37,4.37,0,0,1,2.32-.63c2.15,0,2.68,1.47,2.68,2.88v2.64a9.66,9.66,0,0,0,.12,1.69Zm-.19-3.6c-1.4,0-3,.22-3,1.59a1.14,1.14,0,0,0,1.21,1.23,1.77,1.77,0,0,0,1.71-1.18,1.53,1.53,0,0,0,.07-.41Z" style="fill:#2d2d2d"/><path d="M308.16,128.3c0-.73,0-1.33-.06-1.91h1.13l0,1.14h.05a2.43,2.43,0,0,1,2.21-1.3,2.09,2.09,0,0,1,2,1.41h0a2.83,2.83,0,0,1,.78-.91,2.43,2.43,0,0,1,1.56-.5c.94,0,2.32.61,2.32,3.06v4.15H317v-4c0-1.35-.5-2.17-1.53-2.17a1.67,1.67,0,0,0-1.52,1.17,2,2,0,0,0-.1.64v4.35h-1.25v-4.22c0-1.12-.5-1.94-1.47-1.94a1.74,1.74,0,0,0-1.59,1.28,1.64,1.64,0,0,0-.1.63v4.25h-1.26Z" style="fill:#2d2d2d"/><path d="M320.26,133.44c0-.48.06-1.19.06-1.82V123.1h1.27v4.43h0a2.62,2.62,0,0,1,2.4-1.3c1.75,0,3,1.46,3,3.6,0,2.52-1.59,3.77-3.17,3.77a2.52,2.52,0,0,1-2.36-1.32h0l-.06,1.16Zm1.33-2.82a2.22,2.22,0,0,0,.06.46,2,2,0,0,0,1.92,1.5c1.34,0,2.14-1.09,2.14-2.71,0-1.41-.73-2.62-2.1-2.62a2,2,0,0,0-1.95,1.57,2.53,2.53,0,0,0-.07.53Z" style="fill:#2d2d2d"/><path d="M334.52,131.52c0,.73,0,1.37.06,1.92h-1.14l-.07-1.15h0A2.66,2.66,0,0,1,331,133.6c-1.11,0-2.44-.61-2.44-3.09v-4.12h1.29v3.91c0,1.34.4,2.24,1.57,2.24a1.85,1.85,0,0,0,1.69-1.17,1.93,1.93,0,0,0,.12-.65v-4.33h1.28Z" style="fill:#2d2d2d"/><path d="M336.65,128.59c0-.83,0-1.54-.06-2.2h1.12l.05,1.38h.06a2.12,2.12,0,0,1,1.95-1.54,1.32,1.32,0,0,1,.36,0v1.21a1.85,1.85,0,0,0-.43,0,1.79,1.79,0,0,0-1.72,1.65,3.35,3.35,0,0,0-.06.59v3.76h-1.27Z" style="fill:#2d2d2d"/><path d="M347.38,126.39c0,.51-.06,1.08-.06,1.94v4.09c0,1.62-.32,2.61-1,3.22a3.73,3.73,0,0,1-2.56.85,4.65,4.65,0,0,1-2.35-.58l.32-1a4,4,0,0,0,2.07.55c1.31,0,2.28-.68,2.28-2.46v-.79h0a2.53,2.53,0,0,1-2.25,1.18,3.14,3.14,0,0,1-3-3.43c0-2.4,1.56-3.75,3.18-3.75a2.36,2.36,0,0,1,2.2,1.22h0l.05-1.06Zm-1.33,2.78a1.78,1.78,0,0,0-.07-.58,1.85,1.85,0,0,0-1.79-1.35c-1.23,0-2.1,1-2.1,2.66,0,1.39.7,2.54,2.08,2.54a1.88,1.88,0,0,0,1.78-1.31,2.35,2.35,0,0,0,.1-.69Z" style="fill:#2d2d2d"/><path d="M355.35,131.52q0,1.09.06,1.92h-1.14l-.07-1.15h0a2.64,2.64,0,0,1-2.33,1.31c-1.11,0-2.43-.61-2.43-3.09v-4.12h1.28v3.91c0,1.34.41,2.24,1.57,2.24a1.85,1.85,0,0,0,1.69-1.17,1.71,1.71,0,0,0,.12-.65v-4.33h1.28Z" style="fill:#2d2d2d"/><path d="M358.2,130.15a2.26,2.26,0,0,0,2.42,2.45,4.51,4.51,0,0,0,1.95-.37l.22.92a5.63,5.63,0,0,1-2.35.44A3.28,3.28,0,0,1,357,130c0-2.12,1.26-3.8,3.31-3.8,2.3,0,2.92,2,2.92,3.32a3.84,3.84,0,0,1-.05.6Zm3.76-.92a1.83,1.83,0,0,0-1.78-2.08,2.12,2.12,0,0,0-2,2.08Z" style="fill:#2d2d2d"/><path d="M364.61,132.13a3.34,3.34,0,0,0,1.69.51c.94,0,1.37-.46,1.37-1s-.36-.94-1.31-1.29c-1.27-.46-1.86-1.16-1.86-2a2.17,2.17,0,0,1,2.43-2.07,3.43,3.43,0,0,1,1.73.44l-.32.93a2.65,2.65,0,0,0-1.44-.41c-.76,0-1.18.44-1.18,1s.42.85,1.34,1.2c1.23.46,1.85,1.08,1.85,2.13,0,1.23-1,2.11-2.64,2.11a4.05,4.05,0,0,1-2-.48Z" style="fill:#2d2d2d"/><path d="M374.47,133.44l-.11-.89h0a2.61,2.61,0,0,1-2.16,1,2,2,0,0,1-2.15-2c0-1.71,1.51-2.64,4.24-2.63v-.14a1.46,1.46,0,0,0-1.61-1.63,3.5,3.5,0,0,0-1.83.52l-.29-.84a4.36,4.36,0,0,1,2.31-.63c2.16,0,2.69,1.47,2.69,2.88v2.64a10.81,10.81,0,0,0,.11,1.69Zm-.19-3.6c-1.4,0-3,.22-3,1.59a1.14,1.14,0,0,0,1.21,1.23,1.75,1.75,0,0,0,1.7-1.18,1.24,1.24,0,0,0,.08-.41Z" style="fill:#2d2d2d"/><path d="M291.5,157.82a4.5,4.5,0,0,0,2.27.64c1.3,0,2.06-.68,2.06-1.67s-.53-1.45-1.86-2c-1.6-.56-2.59-1.39-2.59-2.78s1.27-2.67,3.18-2.67a4.58,4.58,0,0,1,2.17.48l-.35,1a3.86,3.86,0,0,0-1.87-.47c-1.34,0-1.85.81-1.85,1.48,0,.91.6,1.37,2,1.89,1.66.64,2.5,1.44,2.5,2.88s-1.12,2.83-3.44,2.83a5.06,5.06,0,0,1-2.5-.62Z" style="fill:#2d2d2d"/><path d="M302.76,159.37l-.1-.89h0a2.63,2.63,0,0,1-2.16,1.05,2,2,0,0,1-2.15-2c0-1.7,1.51-2.64,4.24-2.62v-.15a1.46,1.46,0,0,0-1.61-1.63,3.5,3.5,0,0,0-1.83.52l-.29-.84a4.33,4.33,0,0,1,2.31-.63c2.16,0,2.68,1.47,2.68,2.89v2.64a9.66,9.66,0,0,0,.12,1.69Zm-.18-3.6c-1.4,0-3,.22-3,1.59a1.13,1.13,0,0,0,1.21,1.22,1.74,1.74,0,0,0,1.7-1.18,1.19,1.19,0,0,0,.08-.41Z" style="fill:#2d2d2d"/><path d="M305.89,149h1.28v10.35h-1.28Z" style="fill:#2d2d2d"/><path d="M313.23,159.37l-.1-.89h0a2.65,2.65,0,0,1-2.16,1.05,2,2,0,0,1-2.16-2c0-1.7,1.52-2.64,4.24-2.62v-.15a1.45,1.45,0,0,0-1.6-1.63,3.5,3.5,0,0,0-1.83.52l-.3-.84a4.39,4.39,0,0,1,2.32-.63c2.16,0,2.68,1.47,2.68,2.89v2.64a9.66,9.66,0,0,0,.12,1.69Zm-.19-3.6c-1.4,0-3,.22-3,1.59a1.13,1.13,0,0,0,1.21,1.22,1.75,1.75,0,0,0,1.7-1.18A1.47,1.47,0,0,0,313,157Z" style="fill:#2d2d2d"/><path d="M322.45,149v8.52c0,.63,0,1.35.05,1.83h-1.15l-.05-1.23h0a2.63,2.63,0,0,1-2.41,1.39c-1.7,0-3-1.45-3-3.59,0-2.34,1.45-3.79,3.17-3.79a2.34,2.34,0,0,1,2.12,1.08h0V149Zm-1.29,6.16a2.47,2.47,0,0,0-.05-.54,1.89,1.89,0,0,0-1.86-1.48c-1.32,0-2.11,1.16-2.11,2.72s.7,2.61,2.09,2.61a1.94,1.94,0,0,0,1.88-1.53,2.39,2.39,0,0,0,.05-.55Z" style="fill:#2d2d2d"/><path d="M331,155.78a3.45,3.45,0,0,1-3.51,3.75,3.35,3.35,0,0,1-3.38-3.63,3.44,3.44,0,0,1,3.49-3.75A3.34,3.34,0,0,1,331,155.78Zm-5.6.07c0,1.55.89,2.71,2.15,2.71s2.14-1.15,2.14-2.74c0-1.19-.6-2.71-2.11-2.71S325.36,154.51,325.36,155.85Z" style="fill:#2d2d2d"/><path d="M291.5,181a4.44,4.44,0,0,0,2.27.64c1.3,0,2.05-.68,2.05-1.67s-.52-1.44-1.85-2c-1.6-.56-2.59-1.39-2.59-2.78s1.27-2.66,3.18-2.66a4.46,4.46,0,0,1,2.17.48l-.35,1a4,4,0,0,0-1.87-.47c-1.34,0-1.85.81-1.85,1.48,0,.91.6,1.37,1.95,1.89,1.67.64,2.51,1.44,2.51,2.89s-1.12,2.82-3.44,2.82a5,5,0,0,1-2.5-.62Z" style="fill:#2d2d2d"/><path d="M302.76,182.57l-.1-.89h0a2.65,2.65,0,0,1-2.16,1,2,2,0,0,1-2.16-2c0-1.7,1.52-2.64,4.25-2.62v-.15a1.46,1.46,0,0,0-1.61-1.63,3.41,3.41,0,0,0-1.83.53l-.29-.85a4.33,4.33,0,0,1,2.31-.63c2.16,0,2.68,1.48,2.68,2.89v2.64a9.66,9.66,0,0,0,.12,1.69Zm-.19-3.6c-1.39,0-3,.22-3,1.59a1.13,1.13,0,0,0,1.21,1.22,1.75,1.75,0,0,0,1.7-1.18,1.18,1.18,0,0,0,.07-.41Z" style="fill:#2d2d2d"/><path d="M305.89,177.42c0-.73,0-1.32-.06-1.91H307l.08,1.17h0a2.59,2.59,0,0,1,2.33-1.33c1,0,2.49.59,2.49,3v4.21h-1.28V178.5c0-1.14-.43-2.08-1.63-2.08a1.89,1.89,0,0,0-1.81,1.91v4.24h-1.28Z" style="fill:#2d2d2d"/><path d="M320.07,172.22v8.53c0,.62,0,1.34.06,1.82H319l-.05-1.23h0a2.63,2.63,0,0,1-2.41,1.39c-1.7,0-3-1.45-3-3.59,0-2.34,1.44-3.79,3.16-3.79a2.36,2.36,0,0,1,2.13,1.08h0v-4.21Zm-1.28,6.16a2.39,2.39,0,0,0-.06-.53,1.89,1.89,0,0,0-1.85-1.49c-1.33,0-2.12,1.17-2.12,2.72s.7,2.61,2.09,2.61a1.94,1.94,0,0,0,1.88-1.53,2.38,2.38,0,0,0,.06-.55Z" style="fill:#2d2d2d"/><path d="M322.71,175.51l.93,3.59c.21.79.4,1.51.53,2.24h0c.16-.71.39-1.47.63-2.23l1.15-3.6h1.08l1.09,3.53c.26.85.47,1.59.63,2.3h0a23,23,0,0,1,.54-2.28l1-3.55h1.26l-2.27,7.06H328.2l-1.07-3.37a22,22,0,0,1-.63-2.32h0a19.45,19.45,0,0,1-.64,2.34l-1.14,3.35h-1.16l-2.13-7.06Z" style="fill:#2d2d2d"/><path d="M334.36,173.53a.8.8,0,0,1-1.59,0,.78.78,0,0,1,.8-.8A.76.76,0,0,1,334.36,173.53Zm-1.43,9v-7.06h1.28v7.06Z" style="fill:#2d2d2d"/><path d="M341.37,182.3a4.67,4.67,0,0,1-2,.41,3.35,3.35,0,0,1-3.51-3.6,3.58,3.58,0,0,1,3.79-3.74,4.38,4.38,0,0,1,1.78.36l-.29,1a3.06,3.06,0,0,0-1.49-.33,2.66,2.66,0,0,0,0,5.3,3.61,3.61,0,0,0,1.57-.35Z" style="fill:#2d2d2d"/><path d="M342.87,172.22h1.29v4.4h0a2.49,2.49,0,0,1,.92-.9,2.63,2.63,0,0,1,1.31-.37c.95,0,2.47.59,2.47,3v4.2h-1.29v-4c0-1.14-.42-2.1-1.63-2.1a1.85,1.85,0,0,0-1.72,1.28,1.58,1.58,0,0,0-.08.61v4.26h-1.29Z" style="fill:#2d2d2d"/><path d="M360.15,172.22v8.53c0,.62,0,1.34.06,1.82h-1.16l-.05-1.23h0a2.63,2.63,0,0,1-2.41,1.39c-1.7,0-3-1.45-3-3.59,0-2.34,1.44-3.79,3.16-3.79a2.37,2.37,0,0,1,2.13,1.08h0v-4.21Zm-1.28,6.16a2.39,2.39,0,0,0-.06-.53,1.89,1.89,0,0,0-1.85-1.49c-1.33,0-2.12,1.17-2.12,2.72s.7,2.61,2.09,2.61a1.94,1.94,0,0,0,1.88-1.53,2.38,2.38,0,0,0,.06-.55Z" style="fill:#2d2d2d"/><path d="M363,179.27a2.26,2.26,0,0,0,2.42,2.45,4.69,4.69,0,0,0,1.95-.36l.22.92a5.77,5.77,0,0,1-2.34.43,3.28,3.28,0,0,1-3.47-3.55c0-2.13,1.25-3.81,3.31-3.81,2.3,0,2.91,2,2.91,3.33,0,.26,0,.46,0,.59Zm3.76-.91a1.82,1.82,0,0,0-1.78-2.09,2.13,2.13,0,0,0-2,2.09Z" style="fill:#2d2d2d"/><path d="M372.67,177.82c0-.91,0-1.64-.05-2.31h1.15l.05,1.21h0a2.79,2.79,0,0,1,2.51-1.37c1.7,0,3,1.45,3,3.59,0,2.53-1.55,3.79-3.21,3.79a2.47,2.47,0,0,1-2.17-1.11h0v3.83h-1.27Zm1.27,1.88a2.75,2.75,0,0,0,.06.52,2,2,0,0,0,1.92,1.5c1.36,0,2.14-1.11,2.14-2.72,0-1.42-.74-2.63-2.09-2.63A2,2,0,0,0,374,178a1.84,1.84,0,0,0-.09.53Z" style="fill:#2d2d2d"/><path d="M387.35,179a3.45,3.45,0,0,1-3.51,3.75,3.35,3.35,0,0,1-3.38-3.63,3.45,3.45,0,0,1,3.5-3.75A3.34,3.34,0,0,1,387.35,179Zm-5.59.08c0,1.54.88,2.71,2.14,2.71S386,180.61,386,179c0-1.2-.6-2.71-2.11-2.71S381.76,177.71,381.76,179.06Z" style="fill:#2d2d2d"/><path d="M389,172.22h1.28v10.35H389Z" style="fill:#2d2d2d"/><path d="M392.41,172.22h1.29v10.35h-1.29Z" style="fill:#2d2d2d"/><path d="M402.24,179a3.45,3.45,0,0,1-3.51,3.75,3.36,3.36,0,0,1-3.39-3.63,3.45,3.45,0,0,1,3.5-3.75A3.35,3.35,0,0,1,402.24,179Zm-5.6.08c0,1.54.89,2.71,2.14,2.71s2.15-1.16,2.15-2.74c0-1.2-.6-2.71-2.12-2.71S396.64,177.71,396.64,179.06Z" style="fill:#2d2d2d"/><path d="M293.55,198.12h-3V197h7.28v1.08h-3v8.74h-1.28Z" style="fill:#2d2d2d"/><path d="M301.86,206.86l-.1-.89h-.05a2.63,2.63,0,0,1-2.15,1.05,2,2,0,0,1-2.16-2c0-1.7,1.52-2.63,4.24-2.62v-.14a1.46,1.46,0,0,0-1.6-1.64,3.54,3.54,0,0,0-1.84.53l-.29-.85a4.37,4.37,0,0,1,2.32-.62c2.16,0,2.68,1.47,2.68,2.88v2.64a9.66,9.66,0,0,0,.12,1.69Zm-.19-3.6c-1.4,0-3,.22-3,1.59a1.13,1.13,0,0,0,1.21,1.22,1.76,1.76,0,0,0,1.71-1.18,1.47,1.47,0,0,0,.07-.41Z" style="fill:#2d2d2d"/><path d="M310,206.6a4.86,4.86,0,0,1-2,.4,3.35,3.35,0,0,1-3.51-3.59,3.59,3.59,0,0,1,3.79-3.75A4.2,4.2,0,0,1,310,200l-.29,1a2.94,2.94,0,0,0-1.49-.34,2.66,2.66,0,0,0,0,5.31,3.61,3.61,0,0,0,1.57-.35Z" style="fill:#2d2d2d"/><path d="M317.81,203.27A3.45,3.45,0,0,1,314.3,207a3.35,3.35,0,0,1-3.38-3.63,3.44,3.44,0,0,1,3.49-3.74A3.34,3.34,0,0,1,317.81,203.27Zm-5.6.08c0,1.54.89,2.71,2.15,2.71s2.14-1.15,2.14-2.74c0-1.2-.6-2.71-2.12-2.71S312.21,202,312.21,203.35Z" style="fill:#2d2d2d"/><path d="M319.26,205.55a3.31,3.31,0,0,0,1.69.51c.93,0,1.37-.47,1.37-1.05s-.37-.95-1.32-1.3c-1.26-.45-1.86-1.15-1.86-2a2.17,2.17,0,0,1,2.43-2.07,3.59,3.59,0,0,1,1.74.43L323,201a2.72,2.72,0,0,0-1.45-.41c-.75,0-1.18.43-1.18,1s.43.84,1.34,1.19c1.23.47,1.85,1.08,1.85,2.13,0,1.24-1,2.11-2.63,2.11a3.89,3.89,0,0,1-2-.48Z" style="fill:#2d2d2d"/><path d="M272.82,56.37l-1,3.09h-1.31l3.34-9.82h1.53l3.35,9.82h-1.36l-1.05-3.09Zm3.22-1-1-2.83c-.22-.64-.37-1.22-.51-1.79h0c-.15.58-.31,1.18-.5,1.78l-1,2.84Z"/><path d="M280.07,49.11h1.28V59.46h-1.28Z"/><path d="M283.51,54.32c0-.73,0-1.33-.06-1.91h1.12l.06,1.13h0a2.44,2.44,0,0,1,2.22-1.29,2.07,2.07,0,0,1,2,1.41h0a3,3,0,0,1,.79-.92,2.41,2.41,0,0,1,1.56-.49c.93,0,2.32.61,2.32,3.06v4.15h-1.26v-4c0-1.36-.49-2.17-1.53-2.17a1.64,1.64,0,0,0-1.51,1.16,2.1,2.1,0,0,0-.1.64v4.36h-1.26V55.23c0-1.12-.49-1.93-1.47-1.93a1.76,1.76,0,0,0-1.59,1.28,1.83,1.83,0,0,0-.1.62v4.26h-1.25Z"/><path d="M301.57,57.54c0,.72,0,1.37.06,1.92h-1.14l-.07-1.15h0a2.66,2.66,0,0,1-2.33,1.31c-1.11,0-2.44-.61-2.44-3.09V52.41h1.29v3.9c0,1.34.4,2.25,1.57,2.25a1.85,1.85,0,0,0,1.69-1.17,1.93,1.93,0,0,0,.12-.65V52.41h1.28Z"/><path d="M304.41,56.17a2.26,2.26,0,0,0,2.42,2.44,4.74,4.74,0,0,0,2-.36l.21.92a5.74,5.74,0,0,1-2.34.44,3.28,3.28,0,0,1-3.47-3.56c0-2.13,1.25-3.8,3.31-3.8,2.3,0,2.91,2,2.91,3.32,0,.26,0,.46,0,.6Zm3.76-.92a1.82,1.82,0,0,0-1.77-2.09,2.13,2.13,0,0,0-2,2.09Z"/><path d="M311,54.61c0-.83,0-1.55-.05-2.2h1.12l0,1.38h.06a2.1,2.1,0,0,1,1.95-1.54,1.4,1.4,0,0,1,.37,0V53.5a1.94,1.94,0,0,0-.44,0,1.79,1.79,0,0,0-1.72,1.64,3.58,3.58,0,0,0-.06.6v3.76H311Z"/><path d="M315.1,58.72l3.19-4.16c.31-.38.6-.71.92-1.09v0h-3.82v-1h5.38l0,.8-3.14,4.09a14.15,14.15,0,0,1-.91,1.11v0h4.13v1H315.1Z"/><path d="M328.42,55.87a3.45,3.45,0,0,1-3.51,3.75A3.35,3.35,0,0,1,321.53,56a3.44,3.44,0,0,1,3.5-3.74A3.34,3.34,0,0,1,328.42,55.87Zm-5.59.08c0,1.54.89,2.71,2.14,2.71s2.14-1.15,2.14-2.74c0-1.2-.6-2.71-2.11-2.71S322.83,54.61,322.83,56Z"/><path d="M333.27,59.46V53.38h-1v-1h1v-.34a3.35,3.35,0,0,1,.81-2.46A2.45,2.45,0,0,1,335.8,49a3.06,3.06,0,0,1,1.1.21l-.18,1a1.88,1.88,0,0,0-.82-.16c-1.09,0-1.36,1-1.36,2v.38h1.7v1h-1.7v6.08Z"/><path d="M341.3,59.46l-.1-.89h-.05a2.63,2.63,0,0,1-2.15,1,2,2,0,0,1-2.16-2c0-1.7,1.51-2.63,4.24-2.62v-.14a1.46,1.46,0,0,0-1.6-1.64,3.54,3.54,0,0,0-1.84.53l-.29-.85a4.37,4.37,0,0,1,2.32-.62c2.15,0,2.68,1.47,2.68,2.88v2.64a10.81,10.81,0,0,0,.11,1.69Zm-.19-3.6c-1.4,0-3,.22-3,1.59a1.13,1.13,0,0,0,1.21,1.22A1.76,1.76,0,0,0,341,57.49a1.41,1.41,0,0,0,.07-.41Z"/><path d="M344.8,52.41l1.38,4a14.94,14.94,0,0,1,.57,1.81h.05c.16-.59.36-1.17.59-1.81l1.37-4h1.34l-2.77,7.05h-1.22l-2.68-7.05Z"/><path d="M357.55,55.87A3.45,3.45,0,0,1,354,59.62,3.35,3.35,0,0,1,350.66,56a3.44,3.44,0,0,1,3.5-3.74A3.34,3.34,0,0,1,357.55,55.87ZM352,56c0,1.54.89,2.71,2.14,2.71s2.14-1.15,2.14-2.74c0-1.2-.6-2.71-2.11-2.71S352,54.61,352,56Z"/><path d="M359.17,54.61c0-.83,0-1.55-.05-2.2h1.12l0,1.38h.06a2.1,2.1,0,0,1,2-1.54,1.4,1.4,0,0,1,.37,0V53.5a1.94,1.94,0,0,0-.44,0,1.79,1.79,0,0,0-1.72,1.64,3.58,3.58,0,0,0-.06.6v3.76h-1.27Z"/><path d="M365.43,50.42a.8.8,0,0,1-1.59,0,.78.78,0,0,1,.8-.8A.76.76,0,0,1,365.43,50.42Zm-1.43,9V52.41h1.28v7.05Z"/><path d="M369,50.38v2h1.83v1H369v3.81c0,.87.24,1.37,1,1.37a3,3,0,0,0,.74-.09l.06,1a3.18,3.18,0,0,1-1.14.18,1.77,1.77,0,0,1-1.38-.54,2.6,2.6,0,0,1-.5-1.84V53.38h-1.09v-1h1.09V50.72Z"/><path d="M378.53,55.87A3.45,3.45,0,0,1,375,59.62,3.35,3.35,0,0,1,371.64,56a3.44,3.44,0,0,1,3.5-3.74A3.34,3.34,0,0,1,378.53,55.87Zm-5.59.08c0,1.54.89,2.71,2.14,2.71s2.14-1.15,2.14-2.74c0-1.2-.6-2.71-2.11-2.71S372.94,54.61,372.94,56Z"/><path d="M271.9,73.66a2.26,2.26,0,0,0,2.42,2.45,4.51,4.51,0,0,0,1.95-.37l.22.92a5.57,5.57,0,0,1-2.34.44,3.27,3.27,0,0,1-3.47-3.56c0-2.12,1.25-3.8,3.31-3.8,2.3,0,2.91,2,2.91,3.32,0,.27,0,.47,0,.6Zm3.76-.92a1.82,1.82,0,0,0-1.78-2.08,2.12,2.12,0,0,0-2,2.08Z"/><path d="M278.49,71.81c0-.73,0-1.32-.06-1.91h1.14l.07,1.17h0A2.6,2.6,0,0,1,282,69.74c1,0,2.5.58,2.5,3V77h-1.29V72.89c0-1.14-.42-2.08-1.63-2.08a1.82,1.82,0,0,0-1.72,1.31,1.78,1.78,0,0,0-.09.59V77h-1.28Z"/><path d="M289.67,66.61H291V77h-1.29Z"/><path d="M297,77l-.1-.88h-.05a2.62,2.62,0,0,1-2.15,1,2,2,0,0,1-2.16-2c0-1.71,1.52-2.64,4.24-2.62v-.15a1.45,1.45,0,0,0-1.6-1.63,3.53,3.53,0,0,0-1.84.52l-.29-.84a4.37,4.37,0,0,1,2.32-.63c2.16,0,2.68,1.47,2.68,2.89v2.63a9.58,9.58,0,0,0,.12,1.69Zm-.19-3.59c-1.4,0-3,.21-3,1.58a1.14,1.14,0,0,0,1.21,1.23A1.77,1.77,0,0,0,296.76,75a1.47,1.47,0,0,0,.07-.41Z"/><path d="M308.36,72.35h-3.82v3.54h4.26V77h-5.52V67.13h5.3V68.2h-4v3.1h3.82Z"/><path d="M310.23,75.64a3.34,3.34,0,0,0,1.69.51c.93,0,1.37-.46,1.37-1.05s-.36-.94-1.31-1.29c-1.27-.45-1.87-1.15-1.87-2a2.18,2.18,0,0,1,2.44-2.07,3.54,3.54,0,0,1,1.73.44l-.32.93a2.81,2.81,0,0,0-1.44-.41c-.76,0-1.18.44-1.18,1s.42.85,1.34,1.2c1.22.47,1.85,1.08,1.85,2.13,0,1.24-1,2.11-2.64,2.11a4.05,4.05,0,0,1-2-.48Z"/><path d="M321.21,76.69a4.67,4.67,0,0,1-2,.41,3.35,3.35,0,0,1-3.51-3.6,3.58,3.58,0,0,1,3.79-3.74,4.38,4.38,0,0,1,1.78.36l-.3,1a3,3,0,0,0-1.48-.33,2.66,2.66,0,0,0,0,5.3,3.69,3.69,0,0,0,1.58-.35Z"/><path d="M328.61,75q0,1.09.06,1.92h-1.14l-.07-1.15h0a2.64,2.64,0,0,1-2.33,1.31c-1.11,0-2.43-.61-2.43-3.08V69.9H324v3.91c0,1.34.41,2.24,1.57,2.24a1.86,1.86,0,0,0,1.69-1.16,1.76,1.76,0,0,0,.12-.66V69.9h1.28Z"/><path d="M331.46,73.66a2.26,2.26,0,0,0,2.42,2.45,4.51,4.51,0,0,0,1.95-.37l.22.92a5.63,5.63,0,0,1-2.35.44,3.28,3.28,0,0,1-3.47-3.56c0-2.12,1.26-3.8,3.31-3.8,2.3,0,2.92,2,2.92,3.32a3.72,3.72,0,0,1,0,.6Zm3.76-.92a1.83,1.83,0,0,0-1.78-2.08,2.13,2.13,0,0,0-2,2.08Z"/><path d="M338.05,66.61h1.28V77h-1.28Z"/><path d="M345.39,77l-.1-.88h0a2.64,2.64,0,0,1-2.16,1,2,2,0,0,1-2.16-2c0-1.71,1.52-2.64,4.25-2.62v-.15a1.46,1.46,0,0,0-1.61-1.63,3.5,3.5,0,0,0-1.83.52l-.29-.84a4.33,4.33,0,0,1,2.31-.63c2.16,0,2.68,1.47,2.68,2.89v2.63a9.58,9.58,0,0,0,.12,1.69Zm-.19-3.59c-1.39,0-3,.21-3,1.58a1.14,1.14,0,0,0,1.21,1.23,1.76,1.76,0,0,0,1.7-1.18,1.18,1.18,0,0,0,.07-.41Z"/></g></svg>