<svg id="Capa_1" data-name="Capa 1" xmlns="http://www.w3.org/2000/svg" viewBox="0 0 567 220"><path d="M.11,157Q.11,81,0,5.09C0,1.67.68,1,4.11,1Q283.5,1.17,562.9,1c3.43,0,4.11.67,4.1,4.09q-.19,105.92,0,211.82c0,3.42-.67,4.09-4.1,4.09q-279.39-.17-558.79,0c-3.43,0-4.17-.66-4.11-4.09.26-13.32.11-26.64.11-40l3.31,2c1,4.69,3.72,5.52,8,3.88,5.94-2.27,11.47-5.56,17.71-7.1.52,1.46,1.14,2.82,2.85,3.23,2.45,5.89,3.47,6.33,9.28,4a146.76,146.76,0,0,0,19.4-10.07c10-5.91,19.12-13.15,29.56-18.29A7,7,0,0,0,94.11,160c1.82,5.15,3.23,5.88,8,3.83,3.65-1.57,7.45-3,10.8-5.07,3.58-2.24,6.74-2.71,10.14,0l1.91.47c1.51,4.57,4.81,3.64,8.13,2.66.63,2.84,3.57,4.08,4.61,6.63,1.43,3,3.85,4.66,6.75,2.7,10.64-7.17,23.24-9.82,34.58-15.34l3.24,2.17c2.49,5.52,4.19,6.12,9.47,3.78,2.11-.94,4.2-3.63,6.57-2,3,2,5.61,1.25,8.47.44,5.76-1.64,11-4.52,16.23-7.25a2,2,0,0,0,.85.29c.19,4.63,5.41,3.57,7.26,6.44,1.58,2.43,3.93,2.51,6.56,1.43,4.4-1.81,8.88-3.4,13.33-5.09a7.25,7.25,0,0,0,3.81,5c.74,4.78,3.85,5.58,7.92,4.66,1.72-.4,3.37-1.36,5.2-.5-.33,2.59.45,4.63,2.91,5.82,2.8,6.29,3.41,6.68,9.52,4.19,5.61-2.29,11.08-4.95,16.61-7.44l3.89,3.24c.68,4.44,3.24,5.93,7.36,4.34,6.11-2.35,12.23-4.7,17.84-8.18l2-.37c1.82,5.33,4,6.41,9.9,4.08,7.86-3.11,15.66-6.33,24-8.09,3.48.8,4.07,4,5.08,6.59.83,2.11,1.69,3.82,3.89,4.61.39,4.54,2.55,5.51,6.7,3.76,4.81-2,9.07-5.38,14.42-6.13.1,2.63,2.51,3.6,3.85,5.33.05,2.71,2.18,3.57,4.13,4.41,5.88,2.53,11.9,2.36,18,.69l2.6.05c1.3,5.06,2.56,5.76,7.16,3.66,5.09-2.33,10.12-4.8,15.17-7.21,1,.57,1.72,1.54,3,1.42.75,4.79,3.21,6.1,7.71,4.08,7.72-3.47,15.53-6.75,23.3-10.11a5.19,5.19,0,0,0,3.95,1.05c.26,5.65.87,6,5.61,3.59,5.63-2.88,11.33-5.61,16.93-8.54,5.2-2.72,10-6,13.52-10.84,2.81-3.91,2.21-5.49-2.51-6.94.76-1.5.29-2.88-.41-4.24,6-3.81,11.91-7.65,17.89-11.44,2-1.24,3.16-2.8,3-5.24s-1.74-3.37-3.86-3.77c.39-3.83-1.65-5-5.11-4.81-2,.14-4,.16-6,.24.8-2.8,2.76-5.7-.69-8.14-1.81-1.56-2.13-4-3.4-5.85,1.72-1.23,3.51-2.37,5.14-3.7,3.37-2.73,3.48-5.55,0-8.32l-.3-2c1.72-1,3.48-1.93,5.13-3,12.92-8.5,25.63-17.27,37.3-27.45C567,61,567,59,563.23,55.82l-1.32-3.76c4.88-5.33,4.89-7,.11-10.28-1.75-5.52-3.32-6.19-8.65-4.32-5.86,2.07-11.06,5.9-17.44,6.57a3.64,3.64,0,0,0-3-3.13c-2.06-5.54-3-6-8.31-3.95-13.78,5.48-25.8,14-38.23,21.9-3.7,2.34-7,5.59-11.57,6.35-.2-1.9-.89-3.48-2.85-4.2-3.38-6.71-3.83-6.9-10.57-3.86-4.07,1.84-8.13,3.73-12.12,5.74-1.79.91-2.94.67-4.85-.25-4-1.92-7-7-12.54-4.54a6.1,6.1,0,0,0-3.86-4.58c-1.77-5.43-4.11-6.73-8.59-3.82-9.7,6.31-20.86,9.1-31.26,13.7-2.41,1.06-3.76.12-5.06-1.59-4.53-5.94-4.49-5.88-11.24-2.69-1.62.77-3.19,2.9-5.35,1.11s-4.64-1.22-7.08-.56a71.24,71.24,0,0,0-14.22,5.9c-1,.51-2.57,1.89-3,1-1.71-3.29-5.68-3.29-7.69-5.74-2.41-2.93-4.85-2.69-7.94-1.52-4.16,1.56-7.95,4.15-12.53,4.54-.38-1.83-1.09-3.42-3-4.12-2.75-6.1-3.56-6.48-10-4.85-1.1.28-2.23.45-3.34.66-.09-2.85-.72-5.42-3.63-6.76-2.2-5.48-3.36-6.05-8.81-4-2.91,1.08-5.72,2.44-8.65,3.49-3.17,1.13-5.72,3.93-9.45,3.53-.33-1.71-2-2.06-3.06-3.06-.62-4.48-3.3-5.53-7.12-4-5.54,2.28-10.94,4.85-16.47,7.15-1.09.46-2.61,2.46-3.65,0-2.13-5.09-5.91-3.78-9.64-2.6-6.16,1.94-11.8,5.31-18.24,6.58-8,1.58-8,1.71-11.08-6.06-3.35-8.44-5.93-9.32-14.37-5.57-3.37,1.5-6.23,4.64-10.47,3.75-.12-1.83-1.31-2.77-2.85-3.42-.77-3.18-2.81-5.08-5.84-6.26-4.68-1.84-9.53-1.7-14.28-1-3,.44-5.15,1-6.64-2.61-.88-2.11-3.23-1.69-5.25-.66-4.31,2.17-8.73,4.12-13,6.3-2.74,1.39-5.14.92-6.12-1.8-1.47-4.08-3.94-3.86-7.07-2.54-7,3-14,6.06-21.13,8.9-3,1.19-6,2-6.78-2.9-.43-2.82-2.37-2-4.18-1.08C73.85,44,67.69,47,61.69,50.19,56.41,53,51.26,56.19,48,61.51c-2,3.28-1.74,5.74,2.75,6.24-.76,1.51-.32,2.9.4,4.27-5.55,4.41-11.77,7.78-17.77,11.5-1.92,1.19-3.41,2.75-3.08,5.19.25,1.9,1.09,3.49,3.44,3.41.07,4.24,2.37,5.8,6.37,5.19,1.92-.3,3.81-.75,5.72-1.12-1,3.47-4.44,7.33,1.49,9.76.44,1.42.26,3.14,1.87,4-.41,2.51-2.75,3.17-4.4,4.36-3.41,2.45-4,5.43-1.3,8.36,2,2.18.57,2.56-.86,3.46A451,451,0,0,0,.11,157Z" transform="translate(0 -1)" style="fill:#fefefd"/><path d="M297.71,55.57c1.11-.21,2.24-.38,3.34-.66,6.48-1.63,7.29-1.25,10,4.85-.53,3.64-2.61,5.62-6.12,6.91-6.78,2.5-6.7,2.72-8.83,5.69,6.44-3.31,12.82-4.47,17.95-8.48,4.58-.39,8.37-3,12.53-4.54,3.09-1.17,5.53-1.41,7.94,1.52,2,2.45,6,2.45,7.69,5.74.45.85,2-.53,3-1a71.24,71.24,0,0,1,14.22-5.9c2.44-.66,4.82-1.32,7.08.56s3.73-.34,5.35-1.11c6.75-3.19,6.71-3.25,11.24,2.69,1.3,1.71,2.65,2.65,5.06,1.59,10.4-4.6,21.56-7.39,31.26-13.7,4.48-2.91,6.82-1.61,8.59,3.83.33,2.47-.84,4.62-2.34,7.75,2.81-1.21,5.09-.83,6.2-3.18,5.57-2.48,8.57,2.62,12.54,4.54,1.91.92,3.06,1.16,4.85.25,4-2,8.05-3.9,12.12-5.74,6.74-3,7.19-2.85,10.57,3.86-.75,1.23-1.53,2.44-2.24,3.69-1,1.69-4.62,2.81-2.85,4.74,1.52,1.65,4-1.07,6-2.06.81-.41,1.31-1.43,1.95-2.17,4.59-.76,7.87-4,11.57-6.35C498.86,51,510.88,42.43,524.66,37c5.28-2.1,6.25-1.59,8.31,3.95a20.8,20.8,0,0,1-1.1,2.67c-.49.86-1.29,1.75-.57,2.65,1.05,1.3,2.1,0,3-.44.67-.33,1.1-1.15,1.63-1.75,6.38-.67,11.58-4.5,17.44-6.57,5.33-1.87,6.9-1.2,8.65,4.32l-5.59,8a9.73,9.73,0,0,1,5.48,2.28l1.32,3.76c-3.1,2.73-6.11,5.57-9.31,8.19a314.09,314.09,0,0,1-33.16,23.58c-4.34,2.68-4.23,4.85-.07,7.33l.3,2L502.9,110.89c5-.36,8.83-2.16,13-1.9,1.27,1.87,1.59,4.29,3.4,5.85-.48.13-1.16.1-1.42.41-9.28,11.24-21.77,18-34.18,25-2.44,1.38-5.63,2.17-7,5.28a72.78,72.78,0,0,0,11.52-5.45c10.32-6.2,20.48-12.67,31.74-17.11,2-.08,4-.1,6-.24,3.46-.23,5.5,1,5.11,4.81,0,1.88-1.17,2.88-2.7,3.79q-5.94,3.54-11.72,7.31c-4.95,3.22-10.16,6.12-14.33,10.55,4-.52,7.78-1.76,11.73-1.2.7,1.36,1.17,2.74.42,4.24-4,5.14-8.45,9.76-14.14,13.25-6.19,3.81-13,6.23-19.42,9.48a5.19,5.19,0,0,1-3.95-1.05c-.16-3.69,2.55-5.1,5.2-6.57,3.81-2.13,8.08-3.49,11.57-6.38-1.07-1.06-1.79-.44-2.51-.12-7.1,3.2-14.14,6.59-21.33,9.58-7.93,3.3-15.43,7.69-23.94,9.52-1.28.12-2-.85-3-1.42v-6.76l-22.33,10.31L418,182c-.81-1.93-.25-5.6-3.52-4.85-6.3,1.45-12.39.46-18.57-.25-1.34-1.73-3.75-2.7-3.86-5.33-.67-2.67,1-5,.93-7.64l.23-.43L393,164l-22,10c-2.2-.79-3.06-2.5-3.89-4.61-1-2.58-1.6-5.79-5.08-6.59,0-6.08.08-5.5-5.81-4.53-9.78,1.61-18.15,7.58-28.06,8.54l-2,.37c-1.7-5.86-1.65-5.76-7-3.27-5.91,2.76-11.61,6.1-18.21,7.11L297,167.75c0-.83.08-1.65.11-2.47.06-1.25,1.64-2.58.3-3.65s-2.39.48-3.55.93-2,1.12-3.13,1.5c-6.61,2.35-12.45,6.9-19.86,6.94-2.46-1.19-3.24-3.23-2.91-5.82a4.64,4.64,0,0,1,2.43-4.49c5.41-3.54,10.65-7.34,16-11-5,.53-9,3.24-13.23,5.33-5.83,2.87-11.62,5.74-18.28,6a7.25,7.25,0,0,1-3.81-5c-.55-2.87,1.19-5.1,3.29-8.43-6.74,2.82-12.12,5.27-17.65,7.31-3.68,1.35-7.68,2.85-10.43-2-.62-1.1-1.68-.73-2.36.3a2,2,0,0,1-.85-.29c-2.16-4.42-5.07-5.39-9.27-2.38a22.5,22.5,0,0,1-6.24,3.06c-3.27,1.06-6.9,3.76-10,2.05-4.09-2.28-6.86-.58-10,1.1a9.4,9.4,0,0,1-5.25,1.23L179,155.81c0-6.23,0-6.24-5.69-4.05-3.41,1.32-6.68,3.17-10.2,3.93-9.63,2.08-17.23,8-25.44,12.76-1-2.55-4-3.79-4.61-6.63a5.81,5.81,0,0,1,1.85-5.33c.92-.86,1.08-2.87-.45-2.21-3.25,1.38-7.42,1.25-9.53,4.88l-1.91-.47c-1.52-5.87-7.39-8.21-12.68-5.7s-10.33,5.87-16.26,7a7,7,0,0,1-3.87-5.37c.14-4.16,3.78-6.51,5.65-9.67a1.54,1.54,0,0,0-2.19,0c-12.82,7.22-24.9,15.65-37.47,23.28C48.64,172.75,41.17,177.82,32,179c-1.71-.41-2.33-1.77-2.85-3.23-.78-3.17,1.78-5.38,2.93-8.68-10,4.11-18.86,9.19-28.66,11.9l-3.31-2v-5c1.45-2.67,6.31-5.33,0-8v-7a451,451,0,0,1,42.53-30.81c1.43-.9,2.89-1.28.86-3.46-2.71-2.93-2.11-5.91,1.3-8.36,1.65-1.19,4-1.85,4.4-4.36,2.09.35,3.38-1,4.74-2.21a8,8,0,0,1,8.79-1.45c2.2.94,4.23,1.42,4.53-1s-2.63-.7-3.87-1.49c-.22-.15-.31-.49-.56-.89l2.35-3.07a1.29,1.29,0,0,0-.2-1.79c-1-1-1.42,0-1.77.68-3.48,6.43-9.86,6.41-15.88,7.18-5.93-2.43-2.45-6.29-1.49-9.76L62.79,83.05c-9.85,2.74-18.12,10-29,9.07-2.35.08-3.19-1.51-3.44-3.41-.33-2.44,1.16-4,3.08-5.19,6-3.72,12.22-7.09,17.77-11.5a24.91,24.91,0,0,0,8.57-6.12,19.57,19.57,0,0,0-9,1.85c-4.49-.5-4.76-3-2.75-6.24,3.25-5.32,8.4-8.47,13.68-11.32,6-3.24,12.16-6.16,18.22-9.28,1.81-.93,3.75-1.74,4.18,1.08.75,4.91,3.81,4.09,6.78,2.9C98,42.05,105,39,112,36c3.13-1.32,5.6-1.54,7.07,2.54,1,2.72,3.38,3.19,6.12,1.8,4.29-2.18,8.71-4.13,13-6.3,2-1,4.37-1.45,5.25.66,1.49,3.58,3.63,3.05,6.64,2.61,4.75-.68,9.6-.82,14.28,1,3,1.18,5.07,3.08,5.84,6.27-.73,2.15-1.45,4.3-2.18,6.46l-.22.42.23-.41c2.22-.13,4.45-.22,5-3.06,4.24.89,7.1-2.25,10.47-3.75,8.44-3.75,11-2.87,14.37,5.57C201,57.59,201,57.46,209,55.88c6.44-1.27,12.08-4.64,18.24-6.58,3.73-1.18,7.51-2.49,9.64,2.6,1,2.48,2.56.48,3.65,0,5.53-2.3,10.93-4.87,16.47-7.15,3.82-1.56,6.5-.51,7.12,4,.5,2.16-1.57,3.67-1.79,5.84a4.76,4.76,0,0,0,4.85-2.78c3.73.4,6.28-2.4,9.45-3.53,2.93-1.05,5.74-2.41,8.65-3.49,5.45-2,6.61-1.45,8.81,4,.13,3.76-2.7,5.38-5.18,7.31-3.09,2.4-7,3.81-8.9,7.87ZM406.94,129l.45.21L407,129c-2-.85-1.64-4-4.76-4.35C403.44,126.83,403.55,129.55,406.94,129Zm3.06-2c4-2.42,2.11-5.4.19-7.64-1.3-1.52-3.89-3.07-5.3.54-.24.37-.48.73-.69,1.12,0,0,.22.19.34.29l.54-1.26c5.57-.54,4.73,3.43,4.78,6.78l-1.24.52c.09.12.25.35.28.34C409.28,127.53,409.64,127.29,410,127.05ZM55.16,140.45l1,1.62q15.09-9.15,30.16-18.36a1.79,1.79,0,0,0,.49-1.71c-.45-1-1.26-.62-2-.14Q70,131.16,55.16,140.45ZM504.9,74.94c-.75-.31-1.14-.62-1.3-.52q-13.69,8-27.35,16c-.69.41-1.38,1.16-.62,2s1.58.42,2.28,0c2.84-1.7,5.69-3.38,8.44-5.22C492.45,83.21,499.1,79.94,504.9,74.94Zm-47.23,71.31-.7-1.31-24.38,13C443,157.9,450.05,151.51,457.67,146.25ZM331.56,131.49c1.61-2.41,5.28-1.14,6.31-3.21,2.86-5.69.29-9-5.36-6.78C328.83,122.91,331.57,127.91,331.56,131.49ZM125.48,57.81c-9.62.51-15.77,7.41-22.84,12.63C110.32,66.34,118.69,63.53,125.48,57.81Zm217.86,70.28c-.59,2.75.7,4.19,2.84,4.71,2.41.58,4.65-1.72,4.15-3-1-2.57-1.06-6.86-4.48-7.12C341.89,122.39,345.44,127,343.34,128.09ZM273.1,113.53a12.91,12.91,0,0,0,8.83-.65c-6.2-1-4.79-4.7-4.87-7.77-.1-4.3,3.81-2,5.91-3.12-1.89-2.78-4.39-2.24-6.46-1.74-2.46.6-1.37,3-1.49,4.68C274.8,107.81,275.57,110.83,273.1,113.53Zm10.55-.22h15.74c-2.37-2-6.23-.09-7.22-4.34a1.29,1.29,0,0,0-2.35,0C289,112.63,285.81,111.66,283.65,113.31ZM64.4,80.7,65.07,82l18.8-10.62-.6-1.09A82.49,82.49,0,0,0,64.4,80.7Zm53.29,21.23c-2,.7-1,4.44-3.8,3.92-3.28-.59-.73-2.85-1-4.33-.12-.67-.43-1.26-1.26-1.26a1.43,1.43,0,0,0-1.52,1.56c0,2.89,0,5.78,0,8.67C112.46,107.13,120,108.55,117.69,101.93Zm7.9,6c1.48-1.73,3.51-3.37,4.45-5.49.5-1.12-1.37-2.55-3.11-2.37-2.54.27-3.81,1.83-3.88,4.34C123,106,123.38,107.39,125.59,107.93Zm100.21-4.61c-1-1.59-1.83-3.15-3.63-3.2-2.52-.07-3.94,1.45-4.09,3.95-.08,1.44.69,3,2.15,2.69A10.36,10.36,0,0,0,225.8,103.32Zm189.82,9.07v1h16.65c0-.35,0-.69,0-1ZM271,132.76c3-3.52-1.1-9.13,5.39-11C269.59,120.55,268.15,124.06,271,132.76Zm92.32-19.11,0-1H347.6l0,1ZM264.5,98c1,1.55,5.16,1.06,2.64,4.31-1.27,1.63-3.28,2.71-4.07,5,3.53-.49,7.46-4.57,6.74-7.1S267.55,96.21,264.5,98Zm56.74,48.64.6,1.13c3.26-1.4,6.54-2.77,9.77-4.23a1.86,1.86,0,0,0,1.11-2.46c-.64-1.4-1.55-.48-2.38,0Q325.81,143.87,321.24,146.62Zm-82.58-77.2a13.17,13.17,0,0,0-8.6,2.31,1.67,1.67,0,0,0-.56,2.57c.75.9,1.46.07,2.13-.36Zm35.41,60c2.25-1.81,5.39.18,6.5-1.5a5.27,5.27,0,0,0-.78-6.62c-1.32,1.56-.29,3.57-1.94,4.75C276.62,126.93,274.31,126.38,274.07,129.42ZM74.21,103.66c1.74-1.58,2.51-3.18.87-5.14a3.56,3.56,0,0,0-4.4-1.19,1.78,1.78,0,0,0-1.28,1.88c.09.72.67,1.36,1.32,1C76.5,96.82,72.43,102.68,74.21,103.66Zm315.66,15c-1,3.31-1.43,6.59.16,9.72C391.1,125.08,391.43,121.84,389.87,118.65Zm101.59-11.09c-.42-3,1.18-5,3.32-7.06C489.49,100.15,488.82,101.54,491.46,107.56Zm-86.39.34c1.33-2.63.61-5.8,4.05-7.41C403.51,100.2,402.83,101.64,405.07,107.9Zm-11.39,19.37c.9-2.73-.87-6.12,2.69-7.86C391.58,120,390.81,122.51,393.68,127.27Zm-136.06,19.9c2.85-.59,5.86-.9,8.83-3.79C262.4,143.64,259.78,144.8,257.62,147.17Zm201.11-43.46c1.78-1.6,3.08-3.12,1.14-5.26-1.34-1.49-2.81-2.12-4.77.37C459.47,98.44,458.81,101.15,458.73,103.71Zm39.83-3.07c2.33,1.72.45,5.07,2.74,7.42C502.35,104.42,502.43,101.79,498.56,100.64Zm-113,12.4a10,10,0,0,0,8.82,0A9.72,9.72,0,0,0,385.55,113Zm-41.19-.15c-2.26-.94-4.51-1.37-6.75.24C339.86,114.07,342.12,114.48,344.36,112.89ZM253.6,113a10,10,0,0,0,8.81,0A9.77,9.77,0,0,0,253.6,113Zm72.79,0a9.86,9.86,0,0,0-8.81,0A9.83,9.83,0,0,0,326.39,113ZM216,99.64a9.86,9.86,0,0,0,0,8.78A9.67,9.67,0,0,0,216,99.64Zm197.8,13.27c-3.8-1.08-6.09-1.52-9.69.7C407.83,114,410.08,114.46,413.82,112.91Zm-78.19-6.81c3.51-1,3.65-2.69,3.14-4.74ZM505.78,73.2c2.15.82,3.07.08,3.82-1.36C508,70.89,507.22,71.93,505.78,73.2Zm-50.51,34.28c.35-.11,1.14-.13,1.44-.52a1,1,0,0,0-.59-1.52,2.2,2.2,0,0,0-1.61.74C454,106.69,454,107.37,455.27,107.48ZM70.54,105.33c-.28.31-.91.69-1.09,1.22-.33,1,.49.87,1.14.88s1.36.06,1.38-.85C72,105.88,71.7,105.31,70.54,105.33Zm442-35.57c-.27-.12-.61-.39-.81-.32s-.27.52-.39.79c.28.12.62.4.82.32S512.42,70,512.54,69.76ZM53.67,142.7l-.83-.36c-.12.27-.4.61-.32.82a.86.86,0,0,0,.77.33C53.49,143.41,53.55,143,53.67,142.7Zm246.06,16.64-.37.83c.28.13.62.4.82.32s.26-.51.38-.78ZM101.34,102.4c-.29-.13-.55-.35-.8-.34s-1,0-.53.72c.12.16.56.19.82.14S101.16,102.59,101.34,102.4Zm95.28.59.74-.44c-.23-.17-.49-.5-.68-.46s-.57.36-.84.56Zm33.18,1c-.07-.11-.13-.28-.23-.31s-.21.11-.33.17l.4.5Zm47.66,20.34c.1-.06.27-.09.3-.18s0-.25,0-.38l-.47.25Z" transform="translate(0 -1)" style="fill:#f2b33f"/><path d="M.11,164c6.31,2.67,1.45,5.33,0,8Z" transform="translate(0 -1)" style="fill:#fefefd"/><path d="M32,179c9.17-1.15,16.64-6.22,24.23-10.82,12.57-7.63,24.65-16.06,37.47-23.28a1.54,1.54,0,0,1,2.19,0c-1.87,3.16-5.51,5.51-5.65,9.67C79.8,159.72,70.65,167,60.68,172.87a146.76,146.76,0,0,1-19.4,10.07C35.47,185.3,34.45,184.86,32,179Z" transform="translate(0 -1)" style="fill:#eba932"/><path d="M520.69,94.92c-4.16-2.48-4.27-4.65.07-7.33A314.09,314.09,0,0,0,553.92,64c3.2-2.62,6.21-5.46,9.31-8.19C567,59,567,61,563.12,64.45c-11.67,10.18-24.38,19-37.3,27.45C524.17,93,522.41,93.92,520.69,94.92Z" transform="translate(0 -1)" style="fill:#eba932"/><path d="M137.7,168.45c8.21-4.77,15.81-10.68,25.44-12.76,3.52-.76,6.79-2.61,10.2-3.93,5.66-2.19,5.67-2.18,5.69,4.05-11.34,5.52-23.94,8.17-34.58,15.34C141.55,173.11,139.13,171.42,137.7,168.45Z" transform="translate(0 -1)" style="fill:#eba932"/><path d="M480.88,175c6.43-3.25,13.23-5.67,19.42-9.48,5.69-3.49,10.11-8.11,14.14-13.25,4.71,1.45,5.31,3,2.5,6.94-3.5,4.85-8.32,8.12-13.52,10.84-5.6,2.93-11.3,5.66-16.93,8.54C481.75,181,481.14,180.62,480.88,175Z" transform="translate(0 -1)" style="fill:#eba932"/><path d="M445.92,180c8.51-1.83,16-6.22,23.94-9.52,7.19-3,14.23-6.38,21.33-9.58.72-.32,1.44-.94,2.51.12-3.49,2.89-7.76,4.25-11.57,6.38-2.65,1.47-5.36,2.88-5.2,6.57-7.77,3.36-15.58,6.64-23.3,10.11C449.13,186.05,446.67,184.74,445.92,180Z" transform="translate(0 -1)" style="fill:#eba932"/><path d="M182.27,158a9.4,9.4,0,0,0,5.25-1.23c3.16-1.68,5.93-3.38,10-1.1,3.06,1.71,6.69-1,10-2.05a22.5,22.5,0,0,0,6.24-3.06c4.2-3,7.11-2,9.27,2.38-5.26,2.73-10.47,5.61-16.23,7.25-2.86.81-5.49,1.56-8.47-.44-2.37-1.6-4.46,1.09-6.57,2C186.46,164.1,184.76,163.5,182.27,158Z" transform="translate(0 -1)" style="fill:#eba932"/><path d="M328.09,166.78c9.91-1,18.28-6.93,28.06-8.54,5.89-1,5.79-1.55,5.81,4.53-8.31,1.76-16.11,5-24,8.09C332.09,173.19,329.91,172.11,328.09,166.78Z" transform="translate(0 -1)" style="fill:#eba932"/><path d="M514,148c-3.95-.56-7.71.68-11.73,1.2,4.17-4.43,9.38-7.33,14.33-10.55q5.79-3.77,11.72-7.31c1.53-.91,2.66-1.91,2.7-3.79,2.12.4,3.69,1.34,3.86,3.77s-1,4-3,5.24C525.93,140.35,520,144.19,514,148Z" transform="translate(0 -1)" style="fill:#eba932"/><path d="M3.42,179c9.8-2.71,18.63-7.79,28.66-11.9-1.15,3.3-3.71,5.51-2.93,8.68-6.24,1.54-11.77,4.83-17.71,7.1C7.14,184.48,4.45,183.65,3.42,179Z" transform="translate(0 -1)" style="fill:#eba932"/><path d="M270.85,171c7.41,0,13.25-4.59,19.86-6.94,1.08-.38,2.05-1.07,3.13-1.5s2.32-1.91,3.55-.93-.24,2.4-.3,3.65c0,.82-.07,1.64-.11,2.47-5.53,2.49-11,5.15-16.61,7.44C274.26,177.68,273.65,177.29,270.85,171Z" transform="translate(0 -1)" style="fill:#eba932"/><path d="M94.11,160c5.93-1.09,11-4.43,16.26-7s11.16-.17,12.68,5.7c-3.4-2.69-6.56-2.22-10.14,0-3.35,2.1-7.15,3.5-10.8,5.07C97.34,165.83,95.93,165.1,94.11,160Z" transform="translate(0 -1)" style="fill:#eba932"/><path d="M223.86,153.21c.68-1,1.74-1.4,2.36-.3,2.75,4.81,6.75,3.31,10.43,2,5.53-2,10.91-4.49,17.65-7.31-2.1,3.33-3.84,5.56-3.29,8.43-4.45,1.69-8.93,3.28-13.33,5.09-2.63,1.08-5,1-6.56-1.43C229.27,156.78,224.05,157.84,223.86,153.21Z" transform="translate(0 -1)" style="fill:#eba932"/><path d="M520,123c-11.26,4.44-21.42,10.91-31.74,17.11a72.78,72.78,0,0,1-11.52,5.45c1.34-3.11,4.53-3.9,7-5.28,12.41-7,24.9-13.77,34.18-25,.26-.31.94-.28,1.42-.41C522.72,117.28,520.76,120.18,520,123Z" transform="translate(0 -1)" style="fill:#eba932"/><path d="M300.87,171c6.6-1,12.3-4.35,18.21-7.11,5.34-2.49,5.29-2.59,7,3.27-5.61,3.48-11.73,5.83-17.84,8.18C304.11,176.92,301.55,175.43,300.87,171Z" transform="translate(0 -1)" style="fill:#eba932"/><path d="M420.59,182.08l22.33-10.31v6.76c-5.05,2.41-10.08,4.88-15.17,7.21C423.15,187.84,421.89,187.14,420.59,182.08Z" transform="translate(0 -1)" style="fill:#eba932"/><path d="M393,164c.07,2.59-1.6,5-.93,7.64-5.34.75-9.6,4.09-14.41,6.13-4.15,1.75-6.31.78-6.7-3.76l22-10Z" transform="translate(0 -1)" style="fill:#eba932"/><path d="M254.82,161c6.66-.3,12.45-3.17,18.28-6,4.23-2.09,8.22-4.8,13.23-5.33-5.31,3.7-10.55,7.5-16,11a4.64,4.64,0,0,0-2.43,4.49c-1.83-.86-3.48.1-5.2.5C258.67,166.6,255.56,165.8,254.82,161Z" transform="translate(0 -1)" style="fill:#eba932"/><path d="M33.75,92.12c10.92.94,19.19-6.33,29-9.07L45.84,96.19c-1.91.37-3.8.82-5.72,1.12C36.12,97.92,33.82,96.36,33.75,92.12Z" transform="translate(0 -1)" style="fill:#eba932"/><path d="M515.87,109c-4.14-.26-8,1.54-13,1.9L521,97c3.5,2.77,3.39,5.59,0,8.32C519.38,106.62,517.59,107.76,515.87,109Z" transform="translate(0 -1)" style="fill:#eba932"/><path d="M395.9,176.93c6.18.71,12.27,1.7,18.57.25,3.27-.75,2.71,2.92,3.52,4.85-6.06,1.67-12.08,1.84-18-.69C398.08,180.5,396,179.64,395.9,176.93Z" transform="translate(0 -1)" style="fill:#eba932"/><path d="M47.33,106c6-.77,12.4-.75,15.88-7.18.35-.66.81-1.65,1.77-.68a1.29,1.29,0,0,1,.2,1.79L62.83,103c.25.4.34.74.56.89,1.24.79,4.17-1,3.87,1.49s-2.33,1.92-4.53,1a8,8,0,0,0-8.79,1.45c-1.36,1.23-2.65,2.56-4.74,2.21C47.59,109.09,47.77,107.37,47.33,106Z" transform="translate(0 -1)" style="fill:#eba932"/><path d="M297.71,55.57,280,64c1.92-4.06,5.81-5.47,8.9-7.87,2.48-1.93,5.31-3.55,5.18-7.31C297,50.15,297.62,52.72,297.71,55.57Z" transform="translate(0 -1)" style="fill:#eba932"/><path d="M125,159.16c2.11-3.63,6.28-3.5,9.53-4.88,1.53-.66,1.37,1.35.45,2.21a5.81,5.81,0,0,0-1.85,5.33C129.77,162.8,126.47,163.73,125,159.16Z" transform="translate(0 -1)" style="fill:#eba932"/><path d="M561.91,52.06a9.73,9.73,0,0,0-5.48-2.28l5.59-8C566.8,45,566.79,46.73,561.91,52.06Z" transform="translate(0 -1)" style="fill:#eba932"/><path d="M314.09,63.88c-5.13,4-11.51,5.17-17.95,8.48,2.13-3,2.05-3.19,8.83-5.69,3.51-1.29,5.59-3.27,6.12-6.91C313,60.46,313.71,62.05,314.09,63.88Z" transform="translate(0 -1)" style="fill:#eba932"/><path d="M474.86,65.2c-.64.74-1.14,1.76-1.95,2.17-2,1-4.47,3.71-6,2.06-1.77-1.93,1.89-3.05,2.85-4.74.71-1.25,1.49-2.46,2.24-3.69C474,61.72,474.66,63.3,474.86,65.2Z" transform="translate(0 -1)" style="fill:#eba932"/><path d="M50.76,67.75a19.57,19.57,0,0,1,9-1.85A24.91,24.91,0,0,1,51.16,72C50.44,70.65,50,69.26,50.76,67.75Z" transform="translate(0 -1)" style="fill:#eba932"/><path d="M431.93,58.09c-1.11,2.35-3.39,2-6.2,3.18,1.5-3.13,2.67-5.28,2.34-7.75A6.07,6.07,0,0,1,431.93,58.09Z" transform="translate(0 -1)" style="fill:#eba932"/><path d="M173.07,48c-.57,2.84-2.8,2.93-5,3.06h0c.73-2.16,1.45-4.31,2.18-6.46C171.76,45.23,173,46.17,173.07,48Z" transform="translate(0 -1)" style="fill:#eba932"/><path d="M535.93,44c-.53.6-1,1.42-1.63,1.75-.9.45-1.95,1.74-3,.44-.72-.9.08-1.79.57-2.65A20.8,20.8,0,0,0,533,40.9,3.64,3.64,0,0,1,535.93,44Z" transform="translate(0 -1)" style="fill:#eba932"/><path d="M267.17,51.8a4.76,4.76,0,0,1-4.85,2.78c.22-2.17,2.29-3.68,1.79-5.84C265.14,49.74,266.84,50.09,267.17,51.8Z" transform="translate(0 -1)" style="fill:#eba932"/><path d="M55.16,140.45Q70,131.17,84.75,121.86c.76-.48,1.57-.88,2,.14a1.79,1.79,0,0,1-.49,1.71q-15,9.24-30.16,18.36Z" transform="translate(0 -1)" style="fill:#eba932"/><path d="M504.9,74.94c-5.8,5-12.45,8.27-18.55,12.33-2.75,1.84-5.6,3.52-8.44,5.22-.7.42-1.62.73-2.28,0s-.07-1.61.62-2q13.65-8.07,27.35-16C503.76,74.32,504.15,74.63,504.9,74.94Z" transform="translate(0 -1)" style="fill:#eba932"/><path d="M457.67,146.25c-7.62,5.26-14.63,11.65-25.08,11.65l24.38-13Z" transform="translate(0 -1)" style="fill:#eba932"/><path d="M331.56,131.49c0-3.58-2.73-8.58.95-10,5.65-2.17,8.22,1.09,5.36,6.78C336.84,130.35,333.17,129.08,331.56,131.49Z" transform="translate(0 -1)" style="fill:#eba932"/><path d="M125.48,57.81c-6.79,5.72-15.16,8.53-22.84,12.63C109.71,65.22,115.86,58.32,125.48,57.81Z" transform="translate(0 -1)" style="fill:#eba932"/><path d="M343.34,128.09c2.1-1.12-1.45-5.7,2.51-5.4,3.42.26,3.49,4.55,4.48,7.12.5,1.27-1.74,3.57-4.15,3C344,132.28,342.75,130.84,343.34,128.09Z" transform="translate(0 -1)" style="fill:#eba932"/><path d="M273.1,113.53c2.47-2.7,1.7-5.72,1.92-8.6.12-1.67-1-4.08,1.49-4.68,2.07-.5,4.57-1,6.46,1.74-2.1,1.15-6-1.18-5.91,3.12.08,3.07-1.33,6.79,4.87,7.77A12.91,12.91,0,0,1,273.1,113.53Z" transform="translate(0 -1)" style="fill:#eba932"/><path d="M283.65,113.31c2.16-1.65,5.38-.68,6.17-4.31a1.29,1.29,0,0,1,2.35,0c1,4.25,4.85,2.35,7.22,4.34Z" transform="translate(0 -1)" style="fill:#eba932"/><path d="M64.4,80.7A82.49,82.49,0,0,1,83.27,70.25l.6,1.09L65.07,82Z" transform="translate(0 -1)" style="fill:#eba932"/><path d="M117.69,101.93c2.34,6.62-5.23,5.2-7.58,8.56,0-2.89,0-5.78,0-8.67a1.43,1.43,0,0,1,1.52-1.56c.83,0,1.14.59,1.26,1.26.25,1.48-2.3,3.74,1,4.33C116.74,106.37,115.67,102.63,117.69,101.93Z" transform="translate(0 -1)" style="fill:#eba932"/><path d="M125.59,107.93c-2.21-.54-2.59-1.92-2.54-3.52.07-2.51,1.34-4.07,3.88-4.34,1.74-.18,3.61,1.25,3.11,2.37C129.1,104.56,127.07,106.2,125.59,107.93Z" transform="translate(0 -1)" style="fill:#eba932"/><path d="M225.8,103.32a10.36,10.36,0,0,1-5.57,3.44c-1.46.33-2.23-1.25-2.15-2.69.15-2.5,1.57-4,4.09-3.95C224,100.17,224.84,101.73,225.8,103.32Z" transform="translate(0 -1)" style="fill:#eba932"/><path d="M415.62,112.39h16.64c0,.35,0,.69,0,1H415.63Z" transform="translate(0 -1)" style="fill:#eba932"/><path d="M271,132.76c-2.86-8.7-1.42-12.21,5.39-11C269.91,123.63,274,129.24,271,132.76Z" transform="translate(0 -1)" style="fill:#eba932"/><path d="M363.33,113.65h-15.7l0-1h15.7Z" transform="translate(0 -1)" style="fill:#eba932"/><path d="M264.5,98c3.05-1.77,4.62-.24,5.31,2.2s-3.21,6.61-6.74,7.1c.79-2.28,2.8-3.36,4.07-5C269.66,99,265.49,99.53,264.5,98Z" transform="translate(0 -1)" style="fill:#eba932"/><path d="M321.24,146.62q4.56-2.76,9.1-5.54c.83-.5,1.74-1.42,2.38,0a1.86,1.86,0,0,1-1.11,2.46c-3.23,1.46-6.51,2.83-9.77,4.23Z" transform="translate(0 -1)" style="fill:#eba932"/><path d="M238.66,69.42l-7,4.52c-.67.43-1.38,1.26-2.13.36a1.67,1.67,0,0,1,.56-2.57A13.17,13.17,0,0,1,238.66,69.42Z" transform="translate(0 -1)" style="fill:#eba932"/><path d="M274.07,129.42c.24-3,2.55-2.49,3.78-3.37,1.65-1.18.62-3.19,1.94-4.75a5.27,5.27,0,0,1,.78,6.62C279.46,129.6,276.32,127.61,274.07,129.42Z" transform="translate(0 -1)" style="fill:#eba932"/><path d="M404.89,120c1.41-3.61,4-2.06,5.3-.54,1.92,2.24,3.81,5.22-.19,7.64l-.15-.17c0-3.35.8-7.32-4.77-6.78Z" transform="translate(0 -1)" style="fill:#eba932"/><path d="M74.21,103.66c-1.78-1,2.29-6.84-3.49-3.47-.65.38-1.23-.26-1.32-1a1.78,1.78,0,0,1,1.28-1.88,3.56,3.56,0,0,1,4.4,1.19C76.72,100.48,76,102.08,74.21,103.66Z" transform="translate(0 -1)" style="fill:#eba932"/><path d="M389.87,118.65c1.56,3.19,1.23,6.43.16,9.72C388.44,125.24,388.84,122,389.87,118.65Z" transform="translate(0 -1)" style="fill:#eba932"/><path d="M491.46,107.56c-2.64-6-2-7.41,3.32-7.06C492.64,102.52,491,104.56,491.46,107.56Z" transform="translate(0 -1)" style="fill:#eba932"/><path d="M405.07,107.9c-2.24-6.26-1.56-7.7,4.05-7.41C405.68,102.1,406.4,105.27,405.07,107.9Z" transform="translate(0 -1)" style="fill:#eba932"/><path d="M393.68,127.27c-2.87-4.76-2.1-7.24,2.69-7.86C392.81,121.15,394.58,124.54,393.68,127.27Z" transform="translate(0 -1)" style="fill:#eba932"/><path d="M257.62,147.17c2.16-2.37,4.78-3.53,8.83-3.79C263.48,146.27,260.47,146.58,257.62,147.17Z" transform="translate(0 -1)" style="fill:#eba932"/><path d="M458.73,103.71c.08-2.56.74-5.27-3.63-4.89,2-2.49,3.43-1.86,4.77-.37C461.81,100.59,460.51,102.11,458.73,103.71Z" transform="translate(0 -1)" style="fill:#eba932"/><path d="M498.56,100.64c3.87,1.15,3.79,3.78,2.74,7.42C499,105.71,500.89,102.36,498.56,100.64Z" transform="translate(0 -1)" style="fill:#eba932"/><path d="M385.55,113a9.72,9.72,0,0,1,8.82,0A10,10,0,0,1,385.55,113Z" transform="translate(0 -1)" style="fill:#eba932"/><path d="M344.36,112.89c-2.24,1.59-4.5,1.18-6.75.24C339.85,111.52,342.1,112,344.36,112.89Z" transform="translate(0 -1)" style="fill:#eba932"/><path d="M253.6,113a9.77,9.77,0,0,1,8.81,0A10,10,0,0,1,253.6,113Z" transform="translate(0 -1)" style="fill:#eba932"/><path d="M326.39,113a9.83,9.83,0,0,1-8.81,0A9.86,9.86,0,0,1,326.39,113Z" transform="translate(0 -1)" style="fill:#eba932"/><path d="M216,99.64a9.67,9.67,0,0,1,0,8.78A9.86,9.86,0,0,1,216,99.64Z" transform="translate(0 -1)" style="fill:#eba932"/><path d="M413.82,112.91c-3.74,1.55-6,1.1-9.69.7C407.73,111.39,410,111.83,413.82,112.91Z" transform="translate(0 -1)" style="fill:#eba932"/><path d="M335.63,106.1l3.14-4.74C339.28,103.41,339.14,105.09,335.63,106.1Z" transform="translate(0 -1)" style="fill:#eba932"/><path d="M406.94,129c-3.39.54-3.5-2.18-4.72-4.39,3.12.31,2.78,3.5,4.76,4.35Z" transform="translate(0 -1)" style="fill:#eba932"/><path d="M505.78,73.2c1.44-1.27,2.26-2.31,3.82-1.36C508.85,73.28,507.93,74,505.78,73.2Z" transform="translate(0 -1)" style="fill:#eba932"/><path d="M455.27,107.48c-1.26-.11-1.23-.79-.76-1.3a2.2,2.2,0,0,1,1.61-.74,1,1,0,0,1,.59,1.52C456.41,107.35,455.62,107.37,455.27,107.48Z" transform="translate(0 -1)" style="fill:#eba932"/><path d="M70.54,105.33c1.16,0,1.44.55,1.43,1.25,0,.91-.7.86-1.38.85s-1.47.15-1.14-.88C69.63,106,70.26,105.64,70.54,105.33Z" transform="translate(0 -1)" style="fill:#eba932"/><path d="M512.54,69.76c-.12.28-.18.71-.38.79s-.54-.2-.82-.32c.12-.27.19-.71.39-.79S512.27,69.64,512.54,69.76Z" transform="translate(0 -1)" style="fill:#eba932"/><path d="M53.67,142.7c-.12.28-.18.71-.38.79a.86.86,0,0,1-.77-.33c-.08-.21.2-.55.32-.82Z" transform="translate(0 -1)" style="fill:#eba932"/><path d="M299.73,159.34l.83.37c-.12.27-.18.71-.38.78s-.54-.19-.82-.32C299.48,159.9,299.61,159.62,299.73,159.34Z" transform="translate(0 -1)" style="fill:#eba932"/><path d="M101.34,102.4c-.18.19-.32.48-.51.52s-.7,0-.82-.14c-.49-.67.14-.71.53-.72S101.05,102.27,101.34,102.4Z" transform="translate(0 -1)" style="fill:#eba932"/><path d="M196.61,103l-.77-.34c.27-.2.53-.5.84-.56s.45.29.68.46Z" transform="translate(0 -1)" style="fill:#eba932"/><path d="M410,127.05c-.36.24-.72.48-1.1.69,0,0-.19-.22-.28-.34l1.24-.52Z" transform="translate(0 -1)" style="fill:#eba932"/><path d="M405.08,120.1l-.54,1.26c-.12-.1-.36-.26-.34-.29.21-.39.45-.75.69-1.12Z" transform="translate(0 -1)" style="fill:#eba932"/><path d="M229.8,104l-.16.36-.4-.5c.12-.06.25-.19.33-.17S229.73,103.87,229.8,104Z" transform="translate(0 -1)" style="fill:#eba932"/><path d="M277.46,124.32l-.21-.31.47-.25c0,.13.08.28,0,.38S277.56,124.26,277.46,124.32Z" transform="translate(0 -1)" style="fill:#eba932"/><path d="M168.05,51.06l-.23.41.22-.42Z" transform="translate(0 -1)" style="fill:#eba932"/><path d="M407,129l.41.25-.45-.21Z" transform="translate(0 -1)" style="fill:#eba932"/><path d="M393,164l.24-.42L393,164Z" transform="translate(0 -1)" style="fill:#eba932"/><rect x="106.76" y="85.59" width="399.18" height="49.41" style="fill:#f2b33f"/><path d="M86.22,107.88v2.17H85.1v-2.17H81.2v-1.09l4.09-5.66h.93v5.79h1.3v1Zm-4-1H85.1v-4h0Z" transform="translate(0 -1)" style="fill:#523d5d;stroke:#523d5d;stroke-miterlimit:10;stroke-width:0.25px"/><path d="M88.5,104.33c0-2.91,2.12-3.2,3.08-3.2a2.62,2.62,0,0,1,2.8,2.66c0,1.6-1.06,2.28-2.39,3l-.93.51c-1.21.67-1.48,1.37-1.53,1.71h4.85v1H88.27a3.88,3.88,0,0,1,2.1-3.54l1.18-.68c1-.55,1.63-.92,1.63-2.09a1.59,1.59,0,0,0-1.76-1.61c-1.69,0-1.76,1.58-1.8,2.2Z" transform="translate(0 -1)" style="fill:#523d5d;stroke:#523d5d;stroke-miterlimit:10;stroke-width:0.25px"/><path d="M96.86,104.86a2.78,2.78,0,0,1,1.73-.56,2.83,2.83,0,0,1,2.93,2.86,3,3,0,0,1-3.23,3.13,2.63,2.63,0,0,1-2.89-2.46h1.16a1.67,1.67,0,0,0,1.89,1.5,1.9,1.9,0,0,0,1.88-2,1.87,1.87,0,0,0-2-2,2.05,2.05,0,0,0-1.65.86l-1-.06.68-4.78H101v1.09H97.25Z" transform="translate(0 -1)" style="fill:#523d5d;stroke:#523d5d;stroke-miterlimit:10;stroke-width:0.25px"/><path d="M103.16,108.71h1.32V110c0,1.73-1.07,1.93-1.32,2v-.59c.53,0,.67-.68.67-1.28h-.67Z" transform="translate(0 -1)" style="fill:#523d5d;stroke:#523d5d;stroke-miterlimit:10;stroke-width:0.25px"/><path d="M106.05,101.32h6.17v1a15.51,15.51,0,0,0-3.66,7.75h-1.24a16.52,16.52,0,0,1,3.65-7.64h-4.92Z" transform="translate(0 -1)" style="fill:#523d5d;stroke:#523d5d;stroke-miterlimit:10;stroke-width:0.25px"/><path d="M117.75,105.3a2.27,2.27,0,0,1,1.46,2.18,2.74,2.74,0,0,1-3,2.81,3.63,3.63,0,0,1-2.14-.68,2.5,2.5,0,0,1-.92-2.12,2.21,2.21,0,0,1,1.51-2.17,1.76,1.76,0,0,1-1.2-1.74,2.43,2.43,0,0,1,2.7-2.45c2,0,2.76,1.25,2.76,2.3A1.87,1.87,0,0,1,117.75,105.3Zm-3.43,2.21a1.7,1.7,0,0,0,1.9,1.78A1.57,1.57,0,0,0,118,107.6a1.85,1.85,0,0,0-3.69-.09Zm3.41-4.05c0-.54-.35-1.33-1.66-1.33a1.34,1.34,0,0,0-1.49,1.4,1.59,1.59,0,0,0,3.15-.07Z" transform="translate(0 -1)" style="fill:#523d5d;stroke:#523d5d;stroke-miterlimit:10;stroke-width:0.25px"/><path d="M124,103.41H125v.94h0a2.26,2.26,0,0,1,2-1.13c1.77,0,2.77,1.45,2.77,3.32,0,1.58-.66,3.7-2.92,3.7a2,2,0,0,1-1.76-.89h0v3.33H124Zm2.89,5.87c1.21,0,1.79-1.11,1.79-2.57,0-.85-.09-2.48-1.82-2.48S125,106,125,107C125,108.81,126.13,109.28,126.85,109.28Z" transform="translate(0 -1)" style="fill:#523d5d;stroke:#523d5d;stroke-miterlimit:10;stroke-width:0.25px"/><path d="M131.14,102.21v-1.27h1.11v1.27Zm1.11,7.84h-1.11v-6.64h1.11Z" transform="translate(0 -1)" style="fill:#523d5d;stroke:#523d5d;stroke-miterlimit:10;stroke-width:0.25px"/><path d="M139.56,108a2.75,2.75,0,0,1-3,2.27c-1.87,0-3-1.41-3-3.32,0-2.06,1-3.7,3.19-3.7,1.91,0,2.85,1.53,2.85,3.87H134.8c0,1.39.65,2.19,1.93,2.19a1.69,1.69,0,0,0,1.72-1.31Zm-1.06-1.76c-.07-1-.5-2-1.86-2a2,2,0,0,0-1.84,2Z" transform="translate(0 -1)" style="fill:#523d5d;stroke:#523d5d;stroke-miterlimit:10;stroke-width:0.25px"/><path d="M144.76,105.3c0-.41-.17-1.11-1.58-1.11-.34,0-1.32.11-1.32.94,0,.54.34.67,1.21.89l1.11.27c1.39.35,1.87.86,1.87,1.76,0,1.37-1.13,2.19-2.63,2.19-2.63,0-2.82-1.52-2.85-2.32h1.08c0,.52.19,1.36,1.76,1.36.8,0,1.52-.32,1.52-1.06,0-.53-.37-.71-1.32-1l-1.29-.31c-.93-.23-1.54-.7-1.54-1.62,0-1.46,1.21-2.12,2.52-2.12,2.37,0,2.53,1.75,2.53,2.08Z" transform="translate(0 -1)" style="fill:#523d5d;stroke:#523d5d;stroke-miterlimit:10;stroke-width:0.25px"/><path d="M160.48,106h-6.42v-.93h6.42Zm0,2.56h-6.42v-.92h6.42Z" transform="translate(0 -1)" style="fill:#523d5d;stroke:#523d5d;stroke-miterlimit:10;stroke-width:0.25px"/><path d="M169.84,107.88v2.17h-1.12v-2.17h-3.9v-1.09l4.09-5.66h.93v5.79h1.31v1Zm-4-1h2.87v-4h0Z" transform="translate(0 -1)" style="fill:#523d5d;stroke:#523d5d;stroke-miterlimit:10;stroke-width:0.25px"/><path d="M172.12,104.33c0-2.91,2.12-3.2,3.09-3.2a2.61,2.61,0,0,1,2.79,2.66c0,1.6-1.05,2.28-2.39,3l-.92.51c-1.22.67-1.49,1.37-1.54,1.71H178v1h-6.11a3.9,3.9,0,0,1,2.1-3.54l1.18-.68c1-.55,1.64-.92,1.64-2.09a1.6,1.6,0,0,0-1.77-1.61c-1.69,0-1.76,1.58-1.8,2.2Z" transform="translate(0 -1)" style="fill:#523d5d;stroke:#523d5d;stroke-miterlimit:10;stroke-width:0.25px"/><path d="M180.49,104.86a2.72,2.72,0,0,1,1.72-.56,2.84,2.84,0,0,1,2.94,2.86,3,3,0,0,1-3.24,3.13,2.62,2.62,0,0,1-2.88-2.46h1.15a1.68,1.68,0,0,0,1.89,1.5,1.9,1.9,0,0,0,1.88-2,1.87,1.87,0,0,0-2-2,2.05,2.05,0,0,0-1.65.86l-1-.06.67-4.78h4.62v1.09h-3.78Z" transform="translate(0 -1)" style="fill:#523d5d;stroke:#523d5d;stroke-miterlimit:10;stroke-width:0.25px"/><path d="M186.78,108.71h1.32V110c0,1.73-1.06,1.93-1.32,2v-.59c.53,0,.67-.68.67-1.28h-.67Z" transform="translate(0 -1)" style="fill:#523d5d;stroke:#523d5d;stroke-miterlimit:10;stroke-width:0.25px"/><path d="M189.68,101.32h6.17v1a15.42,15.42,0,0,0-3.67,7.75h-1.24a16.52,16.52,0,0,1,3.65-7.64h-4.91Z" transform="translate(0 -1)" style="fill:#523d5d;stroke:#523d5d;stroke-miterlimit:10;stroke-width:0.25px"/><path d="M201.37,105.3a2.27,2.27,0,0,1,1.46,2.18,2.74,2.74,0,0,1-3,2.81,3.63,3.63,0,0,1-2.14-.68,2.51,2.51,0,0,1-.91-2.12,2.2,2.2,0,0,1,1.51-2.17,1.76,1.76,0,0,1-1.21-1.74,2.43,2.43,0,0,1,2.7-2.45c2,0,2.76,1.25,2.76,2.3A1.87,1.87,0,0,1,201.37,105.3Zm-3.43,2.21a1.7,1.7,0,0,0,1.9,1.78,1.56,1.56,0,0,0,1.79-1.69,1.85,1.85,0,0,0-3.69-.09Zm3.41-4.05c0-.54-.35-1.33-1.66-1.33a1.33,1.33,0,0,0-1.48,1.4,1.58,1.58,0,0,0,3.14-.07Z" transform="translate(0 -1)" style="fill:#523d5d;stroke:#523d5d;stroke-miterlimit:10;stroke-width:0.25px"/><path d="M207.58,103.41h1.06v.94h0a2.26,2.26,0,0,1,2-1.13c1.77,0,2.77,1.45,2.77,3.32,0,1.58-.66,3.7-2.92,3.7a2,2,0,0,1-1.76-.89h0v3.33h-1.12Zm2.89,5.87c1.22,0,1.79-1.11,1.79-2.57,0-.85-.09-2.48-1.82-2.48s-1.79,1.73-1.79,2.81C208.65,108.81,209.76,109.28,210.47,109.28Z" transform="translate(0 -1)" style="fill:#523d5d;stroke:#523d5d;stroke-miterlimit:10;stroke-width:0.25px"/><path d="M214.76,102.21v-1.27h1.11v1.27Zm1.11,7.84h-1.11v-6.64h1.11Z" transform="translate(0 -1)" style="fill:#523d5d;stroke:#523d5d;stroke-miterlimit:10;stroke-width:0.25px"/><path d="M223.19,108a2.9,2.9,0,0,1-1.19,1.82,2.86,2.86,0,0,1-1.8.45c-1.86,0-3-1.41-3-3.32,0-2.06,1-3.7,3.19-3.7,1.91,0,2.85,1.53,2.85,3.87h-4.85c0,1.39.65,2.19,1.93,2.19a1.69,1.69,0,0,0,1.72-1.31Zm-1.07-1.76c-.06-1-.5-2-1.85-2a2,2,0,0,0-1.85,2Z" transform="translate(0 -1)" style="fill:#523d5d;stroke:#523d5d;stroke-miterlimit:10;stroke-width:0.25px"/><path d="M228.38,105.3c0-.41-.17-1.11-1.58-1.11-.34,0-1.32.11-1.32.94,0,.54.34.67,1.21.89l1.12.27c1.38.35,1.86.86,1.86,1.76,0,1.37-1.13,2.19-2.63,2.19-2.62,0-2.81-1.52-2.85-2.32h1.08c0,.52.19,1.36,1.76,1.36.8,0,1.52-.32,1.52-1.06,0-.53-.36-.71-1.32-1l-1.29-.31c-.93-.23-1.54-.7-1.54-1.62,0-1.46,1.21-2.12,2.52-2.12,2.37,0,2.54,1.75,2.54,2.08Z" transform="translate(0 -1)" style="fill:#523d5d;stroke:#523d5d;stroke-miterlimit:10;stroke-width:0.25px"/><path d="M429.73,109.1h-6.42v-.92h6.42Zm0,2.57h-6.42v-.93h6.42Z" transform="translate(0 -1)" style="fill:#523d5d;stroke:#523d5d;stroke-miterlimit:10;stroke-width:0.25px"/><path d="M245.33,103.38H238.9v-.93h6.43Zm0,2.56H238.9V105h6.43Z" transform="translate(0 -1)" style="fill:#523d5d;stroke:#523d5d;stroke-miterlimit:10;stroke-width:0.25px"/><path d="M267.62,104.05h-1.19V97.72h-2.08v-.89c1.44-.1,2-.24,2.39-1.7h.88Z" transform="translate(0 -1)" style="fill:#523d5d;stroke:#523d5d;stroke-miterlimit:10;stroke-width:0.25px"/><path d="M270.17,98.33c0-2.91,2.12-3.2,3.09-3.2a2.61,2.61,0,0,1,2.79,2.66c0,1.6-1.05,2.28-2.39,3l-.92.51c-1.22.67-1.49,1.37-1.54,1.71h4.85v1h-6.11a3.9,3.9,0,0,1,2.1-3.54l1.18-.68c.95-.55,1.64-.92,1.64-2.09a1.6,1.6,0,0,0-1.77-1.61c-1.69,0-1.76,1.58-1.8,2.2Z" transform="translate(0 -1)" style="fill:#523d5d;stroke:#523d5d;stroke-miterlimit:10;stroke-width:0.25px"/><path d="M280.93,97.41H282v.94h0a2.26,2.26,0,0,1,2-1.13c1.77,0,2.77,1.45,2.77,3.32,0,1.58-.66,3.7-2.92,3.7a2,2,0,0,1-1.76-.89h0v3.33h-1.12Zm2.89,5.87c1.22,0,1.79-1.11,1.79-2.57,0-.85-.09-2.48-1.82-2.48S282,100,282,101C282,102.81,283.11,103.28,283.82,103.28Z" transform="translate(0 -1)" style="fill:#523d5d;stroke:#523d5d;stroke-miterlimit:10;stroke-width:0.25px"/><path d="M289.22,104.05h-1.11V94.94h1.11Z" transform="translate(0 -1)" style="fill:#523d5d;stroke:#523d5d;stroke-miterlimit:10;stroke-width:0.25px"/><path d="M296.41,103.51c0,.95,0,3.34-3.09,3.34a2.29,2.29,0,0,1-2.54-2h1.12a1.36,1.36,0,0,0,1.5,1c1.93,0,1.89-1.55,1.89-2.34v-.28h0v0a2,2,0,0,1-1.77.89c-2.26,0-2.92-2.12-2.92-3.7,0-1.87,1-3.32,2.77-3.32a2.26,2.26,0,0,1,2,1.13h0v-.94h1.06Zm-2.88-.23c.71,0,1.81-.47,1.81-2.24,0-1.08-.18-2.81-1.79-2.81s-1.81,1.63-1.81,2.48C291.74,102.17,292.31,103.28,293.53,103.28Z" transform="translate(0 -1)" style="fill:#523d5d;stroke:#523d5d;stroke-miterlimit:10;stroke-width:0.25px"/><path d="M318.86,98.33c0-2.91,2.12-3.2,3.09-3.2a2.61,2.61,0,0,1,2.79,2.66c0,1.6-1.05,2.28-2.39,3l-.92.51c-1.22.67-1.49,1.37-1.54,1.71h4.85v1h-6.11a3.9,3.9,0,0,1,2.1-3.54l1.18-.68c.95-.55,1.64-.92,1.64-2.09a1.6,1.6,0,0,0-1.77-1.61c-1.69,0-1.76,1.58-1.8,2.2Z" transform="translate(0 -1)" style="fill:#523d5d;stroke:#523d5d;stroke-miterlimit:10;stroke-width:0.25px"/><path d="M326.46,102.71h1.33V104c0,1.73-1.07,1.93-1.33,2v-.59c.54,0,.68-.68.68-1.28h-.68Z" transform="translate(0 -1)" style="fill:#523d5d;stroke:#523d5d;stroke-miterlimit:10;stroke-width:0.25px"/><path d="M330.76,98.86a2.72,2.72,0,0,1,1.72-.56,2.83,2.83,0,0,1,2.93,2.86,3,3,0,0,1-3.23,3.13,2.62,2.62,0,0,1-2.88-2.46h1.15a1.67,1.67,0,0,0,1.89,1.5,1.9,1.9,0,0,0,1.88-2,1.87,1.87,0,0,0-2-2,2.05,2.05,0,0,0-1.65.86l-1-.06.67-4.78h4.62v1.09h-3.78Z" transform="translate(0 -1)" style="fill:#523d5d;stroke:#523d5d;stroke-miterlimit:10;stroke-width:0.25px"/><path d="M341.28,101.88v2.17h-1.12v-2.17h-3.9v-1.09l4.09-5.66h.93v5.79h1.31v1Zm-4-1h2.87v-4h0Z" transform="translate(0 -1)" style="fill:#523d5d;stroke:#523d5d;stroke-miterlimit:10;stroke-width:0.25px"/><path d="M351.51,99.65a1.48,1.48,0,0,0-1.58-1.42c-1.38,0-1.82,1.32-1.82,2.5s.28,2.55,1.81,2.55a1.69,1.69,0,0,0,1.59-1.58h1.08a2.63,2.63,0,0,1-2.71,2.54c-1.86,0-3-1.41-3-3.32,0-2.06,1-3.7,3.19-3.7a2.4,2.4,0,0,1,2.49,2.43Z" transform="translate(0 -1)" style="fill:#523d5d;stroke:#523d5d;stroke-miterlimit:10;stroke-width:0.25px"/><path d="M353.7,97.41h1.06v.94h0a2.35,2.35,0,0,1,2-1.13,1.8,1.8,0,0,1,1.76,1.08,2.45,2.45,0,0,1,2-1.08,2,2,0,0,1,2.06,2.24v4.59h-1.12V99.76c0-.91-.27-1.53-1.23-1.53a1.68,1.68,0,0,0-1.56,1.77v4h-1.12V99.46c0-.56-.21-1.23-1-1.23-.63,0-1.75.4-1.75,2.2v3.62H353.7Z" transform="translate(0 -1)" style="fill:#523d5d;stroke:#523d5d;stroke-miterlimit:10;stroke-width:0.25px"/><path d="M385.65,104.05h-1.19V97.72h-2.08v-.89c1.45-.1,2-.24,2.4-1.7h.87Z" transform="translate(0 -1)" style="fill:#523d5d;stroke:#523d5d;stroke-miterlimit:10;stroke-width:0.25px"/><path d="M389,97.41h1v.94h0a2.33,2.33,0,0,1,2-1.13,1.81,1.81,0,0,1,1.77,1.08,2.44,2.44,0,0,1,2-1.08,2,2,0,0,1,2.06,2.24v4.59H396.8V99.76c0-.91-.28-1.53-1.23-1.53A1.68,1.68,0,0,0,394,100v4h-1.12V99.46c0-.56-.22-1.23-1-1.23-.64,0-1.75.4-1.75,2.2v3.62H389Z" transform="translate(0 -1)" style="fill:#523d5d;stroke:#523d5d;stroke-miterlimit:10;stroke-width:0.25px"/><path d="M442.1,104.05h-1.19V97.72h-2.08v-.89c1.44-.1,2-.24,2.4-1.7h.87Z" transform="translate(0 -1)" style="fill:#523d5d;stroke:#523d5d;stroke-miterlimit:10;stroke-width:0.25px"/><path d="M444.65,98.33c0-2.91,2.12-3.2,3.09-3.2a2.61,2.61,0,0,1,2.79,2.66c0,1.6-1,2.28-2.39,3l-.92.51c-1.22.67-1.49,1.37-1.54,1.71h4.85v1h-6.11a3.9,3.9,0,0,1,2.1-3.54l1.18-.68c.95-.55,1.64-.92,1.64-2.09a1.6,1.6,0,0,0-1.77-1.61c-1.69,0-1.76,1.58-1.8,2.2Z" transform="translate(0 -1)" style="fill:#523d5d;stroke:#523d5d;stroke-miterlimit:10;stroke-width:0.25px"/><path d="M451.68,98.19a2.83,2.83,0,0,1,2.87-3.06c2.85,0,3.13,2.69,3.13,4.14,0,1-.17,5-3.24,5a2.39,2.39,0,0,1-2.65-2.38h1.11a1.43,1.43,0,0,0,1.51,1.46c1.22,0,1.87-1,2.15-3.34l0,0a2.26,2.26,0,0,1-2,1.07A2.69,2.69,0,0,1,451.68,98.19Zm4.69-.15a1.71,1.71,0,0,0-1.8-1.91,1.78,1.78,0,0,0-1.73,2c0,1.71,1.07,1.93,1.81,1.93S456.37,99.8,456.37,98Z" transform="translate(0 -1)" style="fill:#523d5d;stroke:#523d5d;stroke-miterlimit:10;stroke-width:0.25px"/><path d="M459.31,102.71h1.32V104c0,1.73-1.06,1.93-1.32,2v-.59c.54,0,.67-.68.67-1.28h-.67Z" transform="translate(0 -1)" style="fill:#523d5d;stroke:#523d5d;stroke-miterlimit:10;stroke-width:0.25px"/><path d="M462.21,95.32h6.17v1a15.42,15.42,0,0,0-3.67,7.75h-1.23a16.5,16.5,0,0,1,3.64-7.64h-4.91Z" transform="translate(0 -1)" style="fill:#523d5d;stroke:#523d5d;stroke-miterlimit:10;stroke-width:0.25px"/><path d="M469.26,95.32h6.17v1a15.5,15.5,0,0,0-3.67,7.75h-1.23a16.52,16.52,0,0,1,3.65-7.64h-4.92Z" transform="translate(0 -1)" style="fill:#523d5d;stroke:#523d5d;stroke-miterlimit:10;stroke-width:0.25px"/><path d="M476.68,97.41h1.05v.94h0a2.37,2.37,0,0,1,2-1.13,1.83,1.83,0,0,1,1.77,1.08,2.42,2.42,0,0,1,2-1.08,2,2,0,0,1,2.05,2.24v4.59H484.5V99.76c0-.91-.28-1.53-1.24-1.53A1.68,1.68,0,0,0,481.7,100v4h-1.11V99.46c0-.56-.22-1.23-1-1.23-.63,0-1.75.4-1.75,2.2v3.62h-1.11Z" transform="translate(0 -1)" style="fill:#523d5d;stroke:#523d5d;stroke-miterlimit:10;stroke-width:0.25px"/><path d="M270.86,119.33h1.05v.94h0a2.23,2.23,0,0,1,2-1.13c1.76,0,2.76,1.45,2.76,3.31,0,1.59-.66,3.71-2.92,3.71a2,2,0,0,1-1.76-.89h0v3.33h-1.11Zm2.88,5.87c1.22,0,1.79-1.11,1.79-2.57,0-.85-.09-2.49-1.82-2.49s-1.79,1.74-1.79,2.82C271.92,124.73,273,125.2,273.74,125.2Z" transform="translate(0 -1)" style="fill:#523d5d;stroke:#523d5d;stroke-miterlimit:10;stroke-width:0.25px"/><path d="M278,118.12v-1.27h1.12v1.27Zm1.12,7.85H278v-6.64h1.12Z" transform="translate(0 -1)" style="fill:#523d5d;stroke:#523d5d;stroke-miterlimit:10;stroke-width:0.25px"/><path d="M286.46,123.89a2.9,2.9,0,0,1-1.18,1.81,2.84,2.84,0,0,1-1.81.46c-1.86,0-3-1.41-3-3.33s1-3.69,3.19-3.69c1.92,0,2.86,1.52,2.86,3.87H281.7c0,1.39.64,2.19,1.93,2.19a1.69,1.69,0,0,0,1.71-1.31Zm-1.07-1.77c-.06-1-.49-2-1.85-2a2,2,0,0,0-1.84,2Z" transform="translate(0 -1)" style="fill:#523d5d;stroke:#523d5d;stroke-miterlimit:10;stroke-width:0.25px"/><path d="M326.61,119.33h1.05v.94h0a2.23,2.23,0,0,1,2-1.13c1.76,0,2.76,1.45,2.76,3.31,0,1.59-.66,3.71-2.92,3.71a2,2,0,0,1-1.76-.89h0v3.33h-1.11Zm2.88,5.87c1.22,0,1.79-1.11,1.79-2.57,0-.85-.09-2.49-1.82-2.49s-1.79,1.74-1.79,2.82C327.67,124.73,328.78,125.2,329.49,125.2Z" transform="translate(0 -1)" style="fill:#523d5d;stroke:#523d5d;stroke-miterlimit:10;stroke-width:0.25px"/><path d="M334.89,126h-1.11v-9.12h1.11Z" transform="translate(0 -1)" style="fill:#523d5d;stroke:#523d5d;stroke-miterlimit:10;stroke-width:0.25px"/><path d="M342.08,125.42c0,1,0,3.34-3.09,3.34a2.27,2.27,0,0,1-2.53-2h1.11a1.37,1.37,0,0,0,1.5,1.06c1.93,0,1.89-1.55,1.89-2.34v-.28h0v0a2,2,0,0,1-1.77.89c-2.26,0-2.92-2.12-2.92-3.71,0-1.86,1-3.31,2.77-3.31a2.25,2.25,0,0,1,2,1.13h0v-.94h1.05Zm-2.88-.22c.71,0,1.81-.47,1.81-2.24,0-1.08-.17-2.82-1.79-2.82s-1.81,1.64-1.81,2.49C337.41,124.09,338,125.2,339.2,125.2Z" transform="translate(0 -1)" style="fill:#523d5d;stroke:#523d5d;stroke-miterlimit:10;stroke-width:0.25px"/><path d="M375.59,126H374.4v-6.34h-2.09v-.88c1.45-.11,2.05-.25,2.4-1.71h.88Z" transform="translate(0 -1)" style="fill:#523d5d;stroke:#523d5d;stroke-miterlimit:10;stroke-width:0.25px"/><path d="M380.92,126.21c-2.56,0-3.06-2.73-3.06-4.58s.5-4.59,3.06-4.59,3.06,2.73,3.06,4.59S383.48,126.21,380.92,126.21Zm0-8.16c-1.28,0-1.87,1.34-1.87,3.58s.59,3.58,1.87,3.58,1.87-1.35,1.87-3.58S382.2,118.05,380.92,118.05Z" transform="translate(0 -1)" style="fill:#523d5d;stroke:#523d5d;stroke-miterlimit:10;stroke-width:0.25px"/><path d="M388,126.21c-2.57,0-3.06-2.73-3.06-4.58S385.41,117,388,117s3.06,2.73,3.06,4.59S390.54,126.21,388,126.21Zm0-8.16c-1.28,0-1.87,1.34-1.87,3.58s.59,3.58,1.87,3.58,1.86-1.35,1.86-3.58S389.26,118.05,388,118.05Z" transform="translate(0 -1)" style="fill:#523d5d;stroke:#523d5d;stroke-miterlimit:10;stroke-width:0.25px"/><path d="M400,121.56a1.48,1.48,0,0,0-1.57-1.42c-1.39,0-1.83,1.32-1.83,2.5s.28,2.56,1.81,2.56a1.69,1.69,0,0,0,1.59-1.58h1.08a2.62,2.62,0,0,1-2.7,2.54c-1.87,0-3-1.41-3-3.33s1-3.69,3.18-3.69a2.4,2.4,0,0,1,2.49,2.42Z" transform="translate(0 -1)" style="fill:#523d5d;stroke:#523d5d;stroke-miterlimit:10;stroke-width:0.25px"/><path d="M402.21,119.33h1.05v.94h0a2.31,2.31,0,0,1,2-1.13,1.8,1.8,0,0,1,1.77,1.08,2.42,2.42,0,0,1,2-1.08,2,2,0,0,1,2.05,2.23V126H410v-4.29c0-.92-.28-1.54-1.24-1.54a1.69,1.69,0,0,0-1.56,1.78v4h-1.11v-4.6c0-.55-.22-1.23-1-1.23-.64,0-1.76.41-1.76,2.21V126h-1.11Z" transform="translate(0 -1)" style="fill:#523d5d;stroke:#523d5d;stroke-miterlimit:10;stroke-width:0.25px"/><line x1="257.59" y1="109.62" x2="261.59" y2="109.62" style="fill:none;stroke:#44325f;stroke-miterlimit:10"/><line x1="263.77" y1="109.62" x2="295.31" y2="109.62" style="fill:none;stroke:#44325f;stroke-miterlimit:10;stroke-dasharray:8.701993942260742,2.1754984855651855"/><line x1="296.4" y1="109.62" x2="300.4" y2="109.62" style="fill:none;stroke:#44325f;stroke-miterlimit:10"/><line x1="314.6" y1="109.62" x2="318.6" y2="109.62" style="fill:none;stroke:#44325f;stroke-miterlimit:10"/><line x1="320.78" y1="109.62" x2="352.32" y2="109.62" style="fill:none;stroke:#44325f;stroke-miterlimit:10;stroke-dasharray:8.701993942260742,2.1754984855651855"/><line x1="353.41" y1="109.62" x2="357.41" y2="109.62" style="fill:none;stroke:#44325f;stroke-miterlimit:10"/><line x1="370.35" y1="109.62" x2="374.35" y2="109.62" style="fill:none;stroke:#44325f;stroke-miterlimit:10"/><line x1="376.53" y1="109.62" x2="408.07" y2="109.62" style="fill:none;stroke:#44325f;stroke-miterlimit:10;stroke-dasharray:8.701993942260742,2.1754984855651855"/><line x1="409.16" y1="109.62" x2="413.16" y2="109.62" style="fill:none;stroke:#44325f;stroke-miterlimit:10"/></svg>