<svg id="Capa_1" data-name="Capa 1" xmlns="http://www.w3.org/2000/svg" viewBox="0 0 493.41 227.54"><path d="M57,163.33c-12,14.53-25.62,21-33.46,21-6.31,0-9.75-5.74-6.69-19.12,3.63-15.29,8-31.74,10.9-44.55,1.34-5.54,1.15-7.26-.58-7.26-1.91,0-6.31,2.67-10.51,6.31l-2.87-6.12c12.81-12.43,26.39-18.74,33.46-18.74,6.5,0,8,5.93,3.82,23.71-2.86,11.85-7.07,28.3-9.94,40.15-1.34,4.78-1.34,7.46.19,7.46s6.31-2.68,12.43-9Zm3.25-95.6c0,7.65-5.74,14.92-14.15,14.92-6.88,0-11.66-4.4-11.66-11.86A14.84,14.84,0,0,1,49.32,56.07C56.78,56.07,60.22,61.42,60.22,67.73Z" transform="translate(2.01 -0.8)"/><path d="M61.56,199.08C73,195.26,83.16,188,83.16,179.39c0-5.55-5-8.41-10.32-10.13-1.53-.39-2.3-1.92-2.11-3.83a15.21,15.21,0,0,1,14.92-13.76c9.56,0,14.72,8.6,14.72,18.16,0,19.12-16.83,31.55-36.71,36.13Z" transform="translate(2.01 -0.8)"/><path d="M159.44,115.72c11.09-11.28,25.43-21,34.61-21,5.16,0,7.45,4.4,6.31,16.63-1.15,10.9-8.22,44.36-11.86,61.19-4.39,19.69-16.44,37.85-31.54,48.75-6.5,4.78-12.43,7.07-17.21,7.07-5.35,0-9.75-2.86-9.75-7.64,0-3.83,2.87-9,5.73-11.47,1.92-1.73,3.06-2.3,4.59-1.15,3.83,3.06,8.61,6.69,12.43,6.69,2.49,0,4.59-2.49,6.31-9.56,4.78-18.93,11.09-54.11,16.44-83,1.15-6.5,1-8.22-.76-8.22-2.3,0-9,4.59-12.43,7.84Zm46.84-48.18c0,7.65-5.73,14.91-13.95,14.91-7.08,0-11.86-4.39-11.86-11.85,0-6.31,5.17-14.72,14.92-14.72C202.84,55.88,206.28,61.23,206.28,67.54Z" transform="translate(2.01 -0.8)"/><path d="M324.42,103.85l-36,90.74q-9.63,24.3-27,24.29a28.79,28.79,0,0,1-8.18-1V206.66a23.15,23.15,0,0,0,7.41,1.38q9.48,0,14.21-11.31l6.26-14.82-30.55-78.06h13.9L285.62,164q.39,1.14,1.6,6h.46q.39-1.83,1.53-5.81l22.23-60.34Z" transform="translate(2.01 -0.8)"/><path d="M465.16,165.05c-10.32,14.34-20.84,19.31-27.15,19.31-6.5,0-10.51-3.44-15.48-16.06-3.44-8.22-8-19.5-10.52-27-2.48,2.87-8,7.84-8.6,10.52-2.68,13-3.63,19.31-5.16,28.29a208.47,208.47,0,0,0-22.56,4.21l-1.53-1.15c7.45-34.41,17-80.3,22.37-111.84,1.53-9.18.38-9.37-12-10l1.34-6.5C404.17,53,418.13,48,421.57,48c2.49,0,2.68,1.53,1.72,5.93-5.73,27.15-11.28,54.68-17.4,82.4,12.24-12.81,35.76-41.49,50.29-41.49,5.73,0,9.94,3.06,9.94,7.46,0,5-3.44,10.13-6.88,13.19-1.72,1.91-3.06,2.1-4.4,1.15-3.63-2.49-6.31-4.59-10.32-4.59-4.21,0-9.56,4.21-17.59,13.19,3.06,7.65,9.17,21,14.14,30.4,5.17,10.33,7.27,11.86,9.56,11.86,2.49,0,6.7-3.45,11.09-8.42Z" transform="translate(2.01 -0.8)"/><path d="M482.77,183.75a8.13,8.13,0,0,1-6-2.52,8.33,8.33,0,0,1-2.48-6,8.45,8.45,0,0,1,2.48-6.07,8.06,8.06,0,0,1,6-2.56,8.25,8.25,0,0,1,6.11,2.56,8.37,8.37,0,0,1,2.52,6.07,8.6,8.6,0,0,1-8.63,8.56Z" transform="translate(2.01 -0.8)"/><line x1="86.73" y1="15.43" x2="2" y2="15.43" style="fill:none"/><line x1="66.96" y1="15.43" x2="2" y2="15.43" style="fill:none;stroke:#000;stroke-linecap:round;stroke-linejoin:round;stroke-width:4px"/><path d="M84.72,16.22A102.6,102.6,0,0,1,56.91.8l5.65,15.42L56.91,31.65A99.45,99.45,0,0,1,84.72,16.22Z" transform="translate(2.01 -0.8)"/><line x1="234.48" y1="15.43" x2="149.74" y2="15.43" style="fill:none"/><line x1="214.71" y1="15.43" x2="149.74" y2="15.43" style="fill:none;stroke:#000;stroke-linecap:round;stroke-linejoin:round;stroke-width:4px"/><path d="M232.47,16.22A102.3,102.3,0,0,1,204.66.8l5.65,15.42-5.65,15.43A99.31,99.31,0,0,1,232.47,16.22Z" transform="translate(2.01 -0.8)"/><line x1="484.34" y1="15.43" x2="399.6" y2="15.43" style="fill:none"/><line x1="464.57" y1="15.43" x2="399.6" y2="15.43" style="fill:none;stroke:#000;stroke-linecap:round;stroke-linejoin:round;stroke-width:4px"/><path d="M482.33,16.22A102.3,102.3,0,0,1,454.52.8l5.65,15.42-5.65,15.43A99.31,99.31,0,0,1,482.33,16.22Z" transform="translate(2.01 -0.8)"/></svg>