<svg id="Capa_1" data-name="Capa 1" xmlns="http://www.w3.org/2000/svg" viewBox="0 0 390.51 84.53"><path d="M20.66,21.64a4.31,4.31,0,0,1,1.14,1.27A6.6,6.6,0,0,1,22.49,25l.34,1.72c.07.36.15.69.23,1a7.56,7.56,0,0,0,.29.88,3.24,3.24,0,0,0,.37.68,2.36,2.36,0,0,0,.43.41,1.75,1.75,0,0,0,.51.26,5.35,5.35,0,0,0,.73.17l-.15.73H21.17a24.49,24.49,0,0,1-.84-3.14l-.64-3.14a7.92,7.92,0,0,0-.39-1.37,2.55,2.55,0,0,0-.55-.86,1.59,1.59,0,0,0-.73-.4,5,5,0,0,0-1-.09H15.32l-1,4.69c-.09.38-.15.69-.19.92s-.06.46-.09.71,0,.48,0,.68a1.62,1.62,0,0,0,.14.72.89.89,0,0,0,.44.37,3.93,3.93,0,0,0,1,.18l-.16.73h-6l.16-.73a2,2,0,0,0,.84-.29,1.71,1.71,0,0,0,.47-.55,6.27,6.27,0,0,0,.35-.87c.11-.34.27-1,.48-2L14.19,15a11.4,11.4,0,0,0,.33-2.34,1.25,1.25,0,0,0-.34-1,1.89,1.89,0,0,0-1.1-.33l.16-.72h6.54a14.68,14.68,0,0,1,2.54.18,5.82,5.82,0,0,1,1.68.56,3.74,3.74,0,0,1,1.17.95,4,4,0,0,1,.7,1.32,5,5,0,0,1,.24,1.56,5.92,5.92,0,0,1-.44,2.34,5.69,5.69,0,0,1-1.18,1.79,7.32,7.32,0,0,1-1.74,1.3,11.66,11.66,0,0,1-2.09.87Zm-3.32-1.11A9.53,9.53,0,0,0,20,20.21a4.48,4.48,0,0,0,1.76-1,5,5,0,0,0,1.16-1.72,5.88,5.88,0,0,0,.46-2.31,4.84,4.84,0,0,0-.12-1.13,3,3,0,0,0-.31-.82,2.26,2.26,0,0,0-.49-.58,2.56,2.56,0,0,0-.73-.43,3.61,3.61,0,0,0-1-.27,12.8,12.8,0,0,0-1.58-.08q-.78,0-1.65.06L15.6,20.53Z"/><path d="M59.61,17.69H45.29V15.2H59.61Zm0,6.58H45.29V21.79H59.61Z"/><path d="M110.77,27V21h-5.9V18.53h5.9v-5.9h2.52v5.9h5.9V21h-5.9V27Z"/><path d="M169,27V21h-5.9V18.53H169v-5.9h2.52v5.9h5.9V21h-5.9V27Z"/><path d="M225.25,27V21h-5.91V18.53h5.91v-5.9h2.51v5.9h5.91V21h-5.91V27Z"/><path d="M283.3,27V21h-5.91V18.53h5.91v-5.9h2.51v5.9h5.91V21h-5.91V27Z"/><path d="M342.37,26.93V21h-5.9V18.5h5.9V12.6h2.52v5.9h5.9V21h-5.9v5.94Z"/><path d="M364.14,20l.64-3h3l-.65,3Z"/><path d="M372.56,20l.64-3h3l-.65,3Z"/><path d="M381,20l.64-3h3L384,20Z"/><path d="M77.52,30.79l.17-.72a1.75,1.75,0,0,0,1-.39,1.68,1.68,0,0,0,.53-.9,6.21,6.21,0,0,0,.15-1.52c0-.39,0-.81,0-1.26l-.1-1.91H72.79L72,25.54a11.49,11.49,0,0,0-.83,1.76,3.73,3.73,0,0,0-.27,1.29c0,.83.5,1.32,1.49,1.48l-.17.72h-6l.16-.72a1.85,1.85,0,0,0,.86-.36,4.89,4.89,0,0,0,.86-.92,22.8,22.8,0,0,0,1.27-2l9.42-16.39H81l1.06,16.5a9.57,9.57,0,0,0,.26,1.83,2.07,2.07,0,0,0,.53,1,1.71,1.71,0,0,0,1,.41l-.16.72Zm-4.07-8H79.2L79,18c0-.65-.06-1.47-.07-2.44s0-1.68,0-2.12h-.17Z"/><path d="M141.49,21.33a4.58,4.58,0,0,1,2.1,1.56,3.83,3.83,0,0,1,.74,2.3,6.43,6.43,0,0,1-.55,2.73A5.53,5.53,0,0,1,142,30a7.26,7.26,0,0,1-2.74,1.27,16.32,16.32,0,0,1-3.8.37H129l.16-.72a2.1,2.1,0,0,0,.84-.29,1.65,1.65,0,0,0,.47-.56,4.77,4.77,0,0,0,.35-.86c.11-.34.27-1,.49-2l2.49-11.39a11.49,11.49,0,0,0,.33-2.34,1.29,1.29,0,0,0-.34-1,2,2,0,0,0-1.1-.32l.16-.73h7.27a11,11,0,0,1,3.54.47,3.85,3.85,0,0,1,1.95,1.37,3.84,3.84,0,0,1,.63,2.26A5.21,5.21,0,0,1,145,19a7.34,7.34,0,0,1-3.5,2.22Zm-8.25,9c.76,0,1.47.06,2.14.06a8.46,8.46,0,0,0,3.43-.56,4.44,4.44,0,0,0,2-1.84,5.89,5.89,0,0,0,.75-3,3.23,3.23,0,0,0-.37-1.62A2.66,2.66,0,0,0,140,22.23a5.13,5.13,0,0,0-2.24-.4h-2.66Zm4.2-9.78a11.58,11.58,0,0,0,2.46-.21,4.17,4.17,0,0,0,1.52-.62,5.68,5.68,0,0,0,1.05-1,4.51,4.51,0,0,0,.74-1.31,5.23,5.23,0,0,0,.27-1.77,3.37,3.37,0,0,0-.22-1.2,2.19,2.19,0,0,0-.76-.94,3.45,3.45,0,0,0-1.23-.56,7.84,7.84,0,0,0-1.86-.17c-.86,0-1.65,0-2.38,0l-1.66,7.71Z"/><path d="M202.94,12l-.88,4h-1.41a4.54,4.54,0,0,0-.79-2.62,2.62,2.62,0,0,0-2.15-.81,4.06,4.06,0,0,0-2.32.73,8.19,8.19,0,0,0-2.06,2.12,14.93,14.93,0,0,0-1.69,3.24,22.15,22.15,0,0,0-1.1,3.79,18.43,18.43,0,0,0-.38,3.48,6.37,6.37,0,0,0,.78,3.55,2.82,2.82,0,0,0,2.47,1.13,5,5,0,0,0,1.92-.34,4.19,4.19,0,0,0,1.54-1.12,9.71,9.71,0,0,0,1.43-2.21h1.41l-.9,4.2a20.33,20.33,0,0,1-2.89.59,22.45,22.45,0,0,1-2.87.18,5.94,5.94,0,0,1-3.1-.76A4.78,4.78,0,0,1,188,28.94a8.46,8.46,0,0,1-.65-3.47,14,14,0,0,1,.15-2.07,23.88,23.88,0,0,1,.56-2.71,17.9,17.9,0,0,1,1.22-3.31,14.17,14.17,0,0,1,1.8-2.8,10.68,10.68,0,0,1,2.07-1.88,9.13,9.13,0,0,1,2.22-1.08,8.42,8.42,0,0,1,2.53-.38,17.42,17.42,0,0,1,2.48.16A17.68,17.68,0,0,1,202.94,12Z"/><path d="M35.49,25.2q-1.92,2.07-4,4.08l.93,2.19c.24.59.44,1,.58,1.3a3.24,3.24,0,0,0,.4.6,1.16,1.16,0,0,0,.36.26,1.65,1.65,0,0,0,.56.14l-.11.49H31.71l-1.38-4-.63.59a9.56,9.56,0,0,0-.75.8,4.56,4.56,0,0,0-.52.68,1.62,1.62,0,0,0-.19.45,1.74,1.74,0,0,0,0,.39.56.56,0,0,0,.15.41.83.83,0,0,0,.49.21l-.11.49H25.89l-.19-.49c1.45-1.56,2.88-3,4.28-4.33L29,27.22c-.19-.46-.34-.8-.46-1a3.14,3.14,0,0,0-.34-.55,1.2,1.2,0,0,0-.38-.3,1.74,1.74,0,0,0-.61-.13l.11-.49h2.47l1.32,3.77c.32-.3.63-.61.92-.93a5.84,5.84,0,0,0,.61-.76,2.1,2.1,0,0,0,.25-.5,1.43,1.43,0,0,0,.07-.46q0-.55-.63-.63l.11-.49h2.82Z"/><path d="M95.59,25.2q-1.92,2.07-4,4.08l.92,2.19c.24.59.44,1,.58,1.3a3.24,3.24,0,0,0,.4.6,1.16,1.16,0,0,0,.36.26,1.72,1.72,0,0,0,.56.14l-.11.49H91.81l-1.37-4-.63.59a8.24,8.24,0,0,0-.76.8,4.56,4.56,0,0,0-.52.68,1.62,1.62,0,0,0-.19.45,1.74,1.74,0,0,0,0,.39.56.56,0,0,0,.15.41.86.86,0,0,0,.49.21l-.11.49H86l-.19-.49c1.45-1.56,2.88-3,4.28-4.33l-.94-2.22c-.2-.46-.35-.8-.47-1a3.14,3.14,0,0,0-.34-.55,1.2,1.2,0,0,0-.38-.3,1.69,1.69,0,0,0-.61-.13l.11-.49h2.47l1.32,3.77c.32-.3.63-.61.92-.93a7.22,7.22,0,0,0,.62-.76,2,2,0,0,0,.24-.5,1.43,1.43,0,0,0,.07-.46q0-.55-.63-.63l.11-.49h2.82Z"/><path d="M155.44,25.2c-1.28,1.38-2.63,2.74-4,4.08l.93,2.19c.24.59.44,1,.58,1.3a3.24,3.24,0,0,0,.4.6,1.26,1.26,0,0,0,.35.26,1.8,1.8,0,0,0,.57.14l-.11.49h-2.47l-1.38-4-.63.59c-.26.25-.51.51-.76.8a5.12,5.12,0,0,0-.51.68,1.69,1.69,0,0,0-.2.45,1.72,1.72,0,0,0,0,.39.6.6,0,0,0,.14.41.9.9,0,0,0,.49.21l-.1.49h-2.83l-.19-.49c1.45-1.56,2.87-3,4.27-4.33L149,27.22c-.19-.46-.34-.8-.46-1a3.11,3.11,0,0,0-.35-.55,1.07,1.07,0,0,0-.37-.3,1.74,1.74,0,0,0-.61-.13l.11-.49h2.47l1.32,3.77c.32-.3.63-.61.92-.93a6.86,6.86,0,0,0,.61-.76,2.57,2.57,0,0,0,.25-.5,1.43,1.43,0,0,0,.07-.46q0-.55-.63-.63l.11-.49h2.82Z"/><path d="M210.39,25.2q-1.92,2.07-4,4.08l.92,2.19c.25.59.44,1,.59,1.3a2.83,2.83,0,0,0,.39.6,1.16,1.16,0,0,0,.36.26,1.8,1.8,0,0,0,.56.14l-.1.49h-2.47l-1.38-4-.63.59a9.66,9.66,0,0,0-.76.8,4.56,4.56,0,0,0-.52.68,1.62,1.62,0,0,0-.19.45,1.74,1.74,0,0,0,0,.39.56.56,0,0,0,.15.41.86.86,0,0,0,.49.21l-.11.49h-2.83l-.18-.49c1.44-1.56,2.87-3,4.27-4.33l-.94-2.22c-.19-.46-.35-.8-.47-1a3.14,3.14,0,0,0-.34-.55,1.2,1.2,0,0,0-.38-.3,1.69,1.69,0,0,0-.61-.13l.11-.49h2.47L206,28.48c.32-.3.63-.61.92-.93a7.22,7.22,0,0,0,.62-.76,2.57,2.57,0,0,0,.25-.5,1.77,1.77,0,0,0,.07-.46c0-.37-.22-.58-.64-.63l.11-.49h2.83Z"/><path d="M253.23,11.47a15.9,15.9,0,0,1,3.6.34A7.3,7.3,0,0,1,259.41,13a5.4,5.4,0,0,1,1.8,2.36,9.23,9.23,0,0,1,.6,3.49,15.92,15.92,0,0,1-.45,3.82,13.51,13.51,0,0,1-1.31,3.35,11.11,11.11,0,0,1-2,2.66,10.59,10.59,0,0,1-2.31,1.74,9.37,9.37,0,0,1-2.5.91,15.24,15.24,0,0,1-3.21.3h-6.17L244,31a2,2,0,0,0,.83-.29,1.62,1.62,0,0,0,.48-.55,6.27,6.27,0,0,0,.35-.87q.17-.51.48-2l2.5-11.39c.1-.45.18-.89.24-1.31a9.48,9.48,0,0,0,.08-1.07,1.14,1.14,0,0,0-.35-1,2,2,0,0,0-1.09-.32l.17-.73Zm-5.15,18.84c.28,0,.82.05,1.63.05A10.16,10.16,0,0,0,252.4,30a7.05,7.05,0,0,0,2.24-1,7.76,7.76,0,0,0,1.86-1.92,13.36,13.36,0,0,0,1.35-2.43A14.33,14.33,0,0,0,259,19a6.65,6.65,0,0,0-1.43-4.66,5.48,5.48,0,0,0-4.25-1.56c-.43,0-.9,0-1.4.05Z"/><path d="M271.19,25.2q-1.94,2.07-4,4.08l.92,2.19c.25.59.44,1,.59,1.3a3.28,3.28,0,0,0,.39.6,1.16,1.16,0,0,0,.36.26,1.8,1.8,0,0,0,.57.14l-.11.49h-2.47l-1.38-4-.63.59a9.66,9.66,0,0,0-.76.8,4.36,4.36,0,0,0-.51.68,1.69,1.69,0,0,0-.2.45,1.72,1.72,0,0,0,0,.39.55.55,0,0,0,.14.41.9.9,0,0,0,.49.21l-.11.49h-2.82l-.19-.49c1.44-1.56,2.87-3,4.27-4.33l-.94-2.22c-.19-.46-.35-.8-.47-1a3.14,3.14,0,0,0-.34-.55,1.17,1.17,0,0,0-.37-.3,1.8,1.8,0,0,0-.62-.13l.11-.49h2.47l1.32,3.77c.33-.3.63-.61.92-.93a6.12,6.12,0,0,0,.62-.76,2.57,2.57,0,0,0,.25-.5,1.77,1.77,0,0,0,.07-.46c0-.37-.21-.58-.64-.63l.11-.49H271Z"/><path d="M315.22,11.47l-1,4.55H312.8a13.28,13.28,0,0,0-.16-1.67,3.67,3.67,0,0,0-.27-.89A1.14,1.14,0,0,0,312,13a1.06,1.06,0,0,0-.47-.2,4.29,4.29,0,0,0-.82-.06H306l-1.67,7.75h2.8a2.83,2.83,0,0,0,1.08-.18,2.07,2.07,0,0,0,.8-.61,7.26,7.26,0,0,0,.83-1.34h1.33l-1.32,5.68h-1.25a8.66,8.66,0,0,0-.06-1.2,2.28,2.28,0,0,0-.15-.57.87.87,0,0,0-.24-.29,1.18,1.18,0,0,0-.39-.14,4.38,4.38,0,0,0-.77-.05H304l-1.88,8.54h4.35a4.88,4.88,0,0,0,1.09-.1,2.36,2.36,0,0,0,.82-.33,3.56,3.56,0,0,0,.7-.61,6.44,6.44,0,0,0,.7-1c.24-.4.56-1,1-1.81h1.42l-1.29,5.12h-13L298,31a2,2,0,0,0,.83-.29,1.62,1.62,0,0,0,.48-.55,6.27,6.27,0,0,0,.35-.87q.17-.51.48-2l2.5-11.39a11.41,11.41,0,0,0,.32-2.38,1.14,1.14,0,0,0-.35-1,2,2,0,0,0-1.09-.32l.17-.73Z"/><path d="M325.23,25.2c-1.28,1.38-2.63,2.74-4,4.08l.92,2.19c.25.59.44,1,.59,1.3a2.8,2.8,0,0,0,.4.6,1,1,0,0,0,.35.26,1.8,1.8,0,0,0,.57.14l-.11.49h-2.47l-1.38-4-.63.59c-.26.25-.51.51-.76.8a4.36,4.36,0,0,0-.51.68,1.69,1.69,0,0,0-.2.45,1.72,1.72,0,0,0,0,.39.6.6,0,0,0,.14.41.9.9,0,0,0,.49.21l-.11.49h-2.82l-.19-.49c1.45-1.56,2.87-3,4.27-4.33l-.94-2.22c-.19-.46-.35-.8-.47-1a2.63,2.63,0,0,0-.34-.55,1.17,1.17,0,0,0-.37-.3,1.79,1.79,0,0,0-.61-.13l.11-.49h2.46l1.32,3.77c.33-.3.63-.61.93-.93a6.86,6.86,0,0,0,.61-.76,2.57,2.57,0,0,0,.25-.5,1.43,1.43,0,0,0,.07-.46c0-.37-.21-.58-.64-.63l.11-.49H325Z"/><path d="M18.45,61.51a4.14,4.14,0,0,1,1.13,1.27,6.56,6.56,0,0,1,.7,2.06l.34,1.71c.07.36.14.69.23,1a7.56,7.56,0,0,0,.29.88,2.66,2.66,0,0,0,.37.68,2,2,0,0,0,.42.41,2,2,0,0,0,.52.26,4.18,4.18,0,0,0,.73.17l-.15.73H19a24.49,24.49,0,0,1-.84-3.14l-.64-3.14A7.92,7.92,0,0,0,17.09,63a2.55,2.55,0,0,0-.55-.85,1.43,1.43,0,0,0-.73-.4,4.29,4.29,0,0,0-1-.1H13.11l-1,4.69c-.08.39-.15.69-.18.92s-.06.46-.09.72,0,.47,0,.67a1.48,1.48,0,0,0,.15.72.84.84,0,0,0,.44.37,3.93,3.93,0,0,0,1,.18l-.17.73h-6l.16-.73a1.86,1.86,0,0,0,.83-.29,1.62,1.62,0,0,0,.48-.55A6.27,6.27,0,0,0,9,68.23c.11-.34.27-1,.48-2L12,54.86a11.18,11.18,0,0,0,.32-2.34,1.26,1.26,0,0,0-.33-1,1.92,1.92,0,0,0-1.11-.33l.17-.72h6.53a14.73,14.73,0,0,1,2.55.18,6.13,6.13,0,0,1,1.68.56,3.74,3.74,0,0,1,1.17.95,4.18,4.18,0,0,1,.7,1.32A5,5,0,0,1,23.9,55a5.92,5.92,0,0,1-.44,2.34,5.75,5.75,0,0,1-1.18,1.79,7.06,7.06,0,0,1-1.74,1.3,11,11,0,0,1-2.09.87ZM15.13,60.4a9.4,9.4,0,0,0,2.65-.32,4.46,4.46,0,0,0,1.77-1,5,5,0,0,0,1.16-1.72,5.87,5.87,0,0,0,.45-2.31A5.48,5.48,0,0,0,21.05,54a3.35,3.35,0,0,0-.31-.82,2.26,2.26,0,0,0-.49-.58,2.81,2.81,0,0,0-.73-.43,4.22,4.22,0,0,0-1-.27,12.92,12.92,0,0,0-1.58-.08q-.78,0-1.65.06L13.39,60.4Z"/><path d="M57.4,57.56H43.08V55.07H57.4Zm0,6.58H43.08V61.66H57.4Z"/><path d="M108.56,66.84v-6h-5.9V58.4h5.9V52.5h2.52v5.9H117v2.49h-5.9v6Z"/><path d="M166.76,66.84v-6h-5.91V58.4h5.91V52.5h2.51v5.9h5.91v2.49h-5.91v6Z"/><path d="M223,66.84v-6h-5.9V58.4H223V52.5h2.52v5.9h5.9v2.49h-5.9v6Z"/><path d="M281.08,66.84v-6h-5.9V58.4h5.9V52.5h2.52v5.9h5.9v2.49h-5.9v6Z"/><path d="M340.16,66.81v-6h-5.9V58.37h5.9v-5.9h2.52v5.9h5.9v2.49h-5.9v6Z"/><path d="M361.93,59.85l.64-3h3l-.65,3Z"/><path d="M370.35,59.85l.64-3h3l-.65,3Z"/><path d="M378.77,59.85l.64-3h3l-.65,3Z"/><path d="M75.31,70.67l.16-.73a1.85,1.85,0,0,0,1-.38,1.75,1.75,0,0,0,.53-.91,6.21,6.21,0,0,0,.15-1.52c0-.39,0-.81,0-1.26L77.05,64H70.58l-.81,1.45a12.74,12.74,0,0,0-.84,1.76,4,4,0,0,0-.26,1.29c0,.83.5,1.32,1.48,1.48l-.16.73H64l.16-.73a1.77,1.77,0,0,0,.86-.36,4.33,4.33,0,0,0,.86-.92,23.33,23.33,0,0,0,1.28-2l9.42-16.4h2.22l1.06,16.5a8.83,8.83,0,0,0,.26,1.83,2.16,2.16,0,0,0,.52,1,1.64,1.64,0,0,0,1,.41l-.17.73Zm-4.07-8H77l-.25-4.76c0-.65-.06-1.47-.08-2.44s0-1.68,0-2.12h-.16Z"/><path d="M139.28,61.2a4.65,4.65,0,0,1,2.1,1.56,3.83,3.83,0,0,1,.74,2.3,6.59,6.59,0,0,1-.55,2.73,5.53,5.53,0,0,1-1.74,2.11,7.26,7.26,0,0,1-2.74,1.27,16.38,16.38,0,0,1-3.8.37h-6.54l.16-.72a2.1,2.1,0,0,0,.84-.29,1.71,1.71,0,0,0,.47-.55,6.27,6.27,0,0,0,.35-.87q.17-.51.48-2l2.5-11.39a11.49,11.49,0,0,0,.33-2.34,1.29,1.29,0,0,0-.34-1,2,2,0,0,0-1.1-.32l.16-.73h7.27a10.91,10.91,0,0,1,3.53.47,3.84,3.84,0,0,1,2,1.37,3.93,3.93,0,0,1,.62,2.26,5.19,5.19,0,0,1-1.17,3.38,7.39,7.39,0,0,1-3.5,2.22Zm-8.26,9c.77,0,1.48.06,2.15.06a8.46,8.46,0,0,0,3.43-.56,4.44,4.44,0,0,0,2-1.84,5.86,5.86,0,0,0,.75-3,3.25,3.25,0,0,0-.37-1.63,2.66,2.66,0,0,0-1.19-1.07,5.3,5.3,0,0,0-2.25-.4h-2.65Zm4.21-9.78a11.71,11.71,0,0,0,2.46-.21,4,4,0,0,0,1.52-.62,5.36,5.36,0,0,0,1-1,4.16,4.16,0,0,0,.73-1.31,5.23,5.23,0,0,0,.27-1.77,3.31,3.31,0,0,0-.21-1.19,2.16,2.16,0,0,0-.76-.95,3.42,3.42,0,0,0-1.24-.56,7.7,7.7,0,0,0-1.85-.17c-.86,0-1.65,0-2.39,0l-1.66,7.71Z"/><path d="M200.73,51.86l-.88,4h-1.41a4.54,4.54,0,0,0-.79-2.62,2.62,2.62,0,0,0-2.15-.81,4,4,0,0,0-2.32.73,8.19,8.19,0,0,0-2.06,2.12,14.93,14.93,0,0,0-1.69,3.24,22.15,22.15,0,0,0-1.1,3.79A17.72,17.72,0,0,0,188,65.8a6.37,6.37,0,0,0,.78,3.55,2.81,2.81,0,0,0,2.46,1.13,5.16,5.16,0,0,0,1.93-.33A4.34,4.34,0,0,0,194.66,69a9.71,9.71,0,0,0,1.43-2.21h1.41l-.9,4.2a19,19,0,0,1-2.89.59,22.57,22.57,0,0,1-2.87.18,5.94,5.94,0,0,1-3.1-.76,4.73,4.73,0,0,1-1.92-2.21,8.27,8.27,0,0,1-.65-3.47,14,14,0,0,1,.15-2.07,23.71,23.71,0,0,1,.55-2.71,18.65,18.65,0,0,1,1.22-3.31,14.2,14.2,0,0,1,1.81-2.8A10.68,10.68,0,0,1,191,52.57a9.13,9.13,0,0,1,2.22-1.08,8.37,8.37,0,0,1,2.53-.38,17.28,17.28,0,0,1,2.47.16A17.79,17.79,0,0,1,200.73,51.86Z"/><path d="M25.73,66.76a6.76,6.76,0,0,0-.19-1.06.88.88,0,0,0-.29-.45,1.19,1.19,0,0,0-.64-.18l.11-.49h2.55L28,72.52c2.24-3.07,3.36-5.28,3.36-6.61a.83.83,0,0,0-.2-.64,1.19,1.19,0,0,0-.68-.2l.1-.49h2.56l.27.5A23.56,23.56,0,0,1,32.09,68c-.55,1-1.22,2.07-2,3.25s-1.67,2.41-2.63,3.68a20.72,20.72,0,0,1-1.87,2.22,6.48,6.48,0,0,1-1.07.86,3.6,3.6,0,0,1-1,.42,3.79,3.79,0,0,1-1,.13,3.58,3.58,0,0,1-.61-.06,3.39,3.39,0,0,1-.57-.14l.42-1.87h.78a.91.91,0,0,0,.16.54.51.51,0,0,0,.43.2,1.79,1.79,0,0,0,.55-.07,2,2,0,0,0,.48-.21,3.89,3.89,0,0,0,.61-.48,7.3,7.3,0,0,0,.82-.88c.31-.36.65-.8,1-1.31Z"/><path d="M85.83,66.76a6.76,6.76,0,0,0-.19-1.06.87.87,0,0,0-.28-.45,1.26,1.26,0,0,0-.65-.18l.11-.49h2.55l.75,7.94c2.24-3.07,3.36-5.28,3.36-6.61a.83.83,0,0,0-.2-.64,1.19,1.19,0,0,0-.68-.2l.1-.49h2.56l.27.5A23.56,23.56,0,0,1,92.19,68c-.55,1-1.22,2.07-2,3.25s-1.67,2.41-2.63,3.68a20.72,20.72,0,0,1-1.87,2.22,6.09,6.09,0,0,1-1.07.86,3.69,3.69,0,0,1-1,.42,3.93,3.93,0,0,1-1,.13,3.58,3.58,0,0,1-.61-.06,3.39,3.39,0,0,1-.57-.14l.42-1.87h.78a1,1,0,0,0,.16.54.51.51,0,0,0,.43.2,1.75,1.75,0,0,0,.55-.07,2,2,0,0,0,.48-.21,4.4,4.4,0,0,0,.62-.48,8.24,8.24,0,0,0,.81-.88c.31-.36.65-.8,1-1.31Z"/><path d="M145.68,66.76a8.23,8.23,0,0,0-.19-1.06.88.88,0,0,0-.29-.45,1.19,1.19,0,0,0-.64-.18l.11-.49h2.55l.75,7.94c2.24-3.07,3.35-5.28,3.35-6.61a.83.83,0,0,0-.19-.64,1.22,1.22,0,0,0-.68-.2l.1-.49h2.56l.27.5A22.28,22.28,0,0,1,152,68c-.54,1-1.21,2.07-2,3.25s-1.67,2.41-2.63,3.68a22,22,0,0,1-1.87,2.22,6.48,6.48,0,0,1-1.07.86,3.6,3.6,0,0,1-1,.42,3.79,3.79,0,0,1-1,.13,3.58,3.58,0,0,1-.61-.06,3.53,3.53,0,0,1-.58-.14l.43-1.87h.78a.91.91,0,0,0,.15.54.53.53,0,0,0,.44.2,1.84,1.84,0,0,0,.55-.07,2,2,0,0,0,.48-.21,3.89,3.89,0,0,0,.61-.48,8.2,8.2,0,0,0,.82-.88c.3-.36.65-.8,1-1.31Z"/><path d="M200.63,66.76a7.1,7.1,0,0,0-.18-1.06,1,1,0,0,0-.29-.45,1.23,1.23,0,0,0-.65-.18l.11-.49h2.55l.76,7.94c2.23-3.07,3.35-5.28,3.35-6.61a.83.83,0,0,0-.2-.64,1.18,1.18,0,0,0-.67-.2l.09-.49h2.56l.27.5A23.56,23.56,0,0,1,207,68c-.55,1-1.22,2.07-2,3.25s-1.66,2.41-2.63,3.68a22.11,22.11,0,0,1-1.86,2.22,6.12,6.12,0,0,1-1.08.86,3.69,3.69,0,0,1-.95.42,3.93,3.93,0,0,1-1,.13,3.38,3.38,0,0,1-.6-.06,3.29,3.29,0,0,1-.58-.14l.43-1.87h.77a1,1,0,0,0,.16.54.52.52,0,0,0,.44.2,1.73,1.73,0,0,0,.54-.07,2,2,0,0,0,.48-.21,3.89,3.89,0,0,0,.62-.48,9.37,9.37,0,0,0,.82-.88c.3-.36.64-.8,1-1.31Z"/><path d="M251,51.35a15.34,15.34,0,0,1,3.6.34,7.11,7.11,0,0,1,2.58,1.22,5.46,5.46,0,0,1,1.8,2.36,9.27,9.27,0,0,1,.6,3.49,15.92,15.92,0,0,1-.45,3.82,13.91,13.91,0,0,1-1.31,3.35,11.11,11.11,0,0,1-2,2.66,10.83,10.83,0,0,1-2.31,1.74,9.15,9.15,0,0,1-2.5.91,15.24,15.24,0,0,1-3.21.3H241.6l.17-.72a2,2,0,0,0,.83-.29,1.5,1.5,0,0,0,.47-.55,5.2,5.2,0,0,0,.36-.87c.1-.34.27-1,.48-2l2.5-11.39c.1-.45.18-.89.23-1.31a7.8,7.8,0,0,0,.09-1.07,1.14,1.14,0,0,0-.35-1,2,2,0,0,0-1.09-.32l.16-.72Zm-5.15,18.83c.28,0,.82,0,1.63,0a10.22,10.22,0,0,0,2.69-.33,6.84,6.84,0,0,0,2.24-1,7.55,7.55,0,0,0,1.85-1.92,12.84,12.84,0,0,0,1.36-2.43,14.33,14.33,0,0,0,1.11-5.66,6.67,6.67,0,0,0-1.43-4.66,5.48,5.48,0,0,0-4.25-1.56c-.43,0-.9,0-1.4,0Z"/><path d="M261.43,66.76a8.23,8.23,0,0,0-.19-1.06,1,1,0,0,0-.29-.45,1.22,1.22,0,0,0-.64-.18l.11-.49H263l.76,7.94c2.23-3.07,3.35-5.28,3.35-6.61a.79.79,0,0,0-.2-.64,1.15,1.15,0,0,0-.67-.2l.1-.49h2.56l.27.5A23.69,23.69,0,0,1,267.78,68c-.54,1-1.21,2.07-2,3.25s-1.67,2.41-2.64,3.68a22.11,22.11,0,0,1-1.86,2.22,6.12,6.12,0,0,1-1.08.86,3.42,3.42,0,0,1-.95.42,3.87,3.87,0,0,1-1,.13,3.38,3.38,0,0,1-.6-.06,3.29,3.29,0,0,1-.58-.14l.43-1.87h.77a1,1,0,0,0,.16.54.53.53,0,0,0,.44.2,1.73,1.73,0,0,0,.54-.07,1.86,1.86,0,0,0,.49-.21,4.41,4.41,0,0,0,.61-.48,9.37,9.37,0,0,0,.82-.88c.3-.36.64-.8,1-1.31Z"/><path d="M313,51.35l-1,4.54h-1.41a13.28,13.28,0,0,0-.16-1.67,3.43,3.43,0,0,0-.27-.88,1.1,1.1,0,0,0-.34-.43,1.06,1.06,0,0,0-.47-.2,4.29,4.29,0,0,0-.82-.06h-4.79l-1.67,7.75h2.8a2.83,2.83,0,0,0,1.08-.18,2,2,0,0,0,.8-.61,7.26,7.26,0,0,0,.83-1.34h1.33L307.59,64h-1.25a8.66,8.66,0,0,0-.06-1.2,2.28,2.28,0,0,0-.15-.57,1,1,0,0,0-.24-.28,1,1,0,0,0-.39-.15,4.43,4.43,0,0,0-.78,0h-2.93l-1.88,8.54h4.34a5.67,5.67,0,0,0,1.1-.09,2.59,2.59,0,0,0,.82-.34,3.51,3.51,0,0,0,.7-.61,6.44,6.44,0,0,0,.7-1c.24-.39.56-1,1-1.81H310l-1.29,5.12h-13l.17-.72a2,2,0,0,0,.83-.29,1.5,1.5,0,0,0,.47-.55,5.2,5.2,0,0,0,.36-.87c.1-.34.27-1,.48-2l2.5-11.39a12.13,12.13,0,0,0,.32-2.38,1.14,1.14,0,0,0-.35-1,2,2,0,0,0-1.09-.32l.16-.72Z"/><path d="M315.47,66.76a8.23,8.23,0,0,0-.19-1.06.88.88,0,0,0-.29-.45,1.19,1.19,0,0,0-.64-.18l.11-.49H317l.75,7.94c2.24-3.07,3.35-5.28,3.35-6.61a.79.79,0,0,0-.2-.64,1.15,1.15,0,0,0-.67-.2l.1-.49h2.56l.27.5A22.28,22.28,0,0,1,321.82,68c-.54,1-1.21,2.07-2,3.25s-1.67,2.41-2.64,3.68a22.11,22.11,0,0,1-1.86,2.22,6.12,6.12,0,0,1-1.08.86,3.42,3.42,0,0,1-.95.42,3.87,3.87,0,0,1-1,.13,3.47,3.47,0,0,1-.6-.06,3.29,3.29,0,0,1-.58-.14l.43-1.87h.77a1,1,0,0,0,.16.54.53.53,0,0,0,.44.2,1.73,1.73,0,0,0,.54-.07,1.86,1.86,0,0,0,.49-.21,3.89,3.89,0,0,0,.61-.48,8.2,8.2,0,0,0,.82-.88c.3-.36.64-.8,1-1.31Z"/></svg>