<svg id="Capa_1" data-name="Capa 1" xmlns="http://www.w3.org/2000/svg" viewBox="0 0 508.99 185.93"><path d="M65.47,35.57l12-21.15H80.8l3.49,21.15H81.55l-1-6.09H72l-3.38,6.09Zm7.71-8.26h7L79.35,22c-.32-2.11-.51-3.86-.59-5.27A36.92,36.92,0,0,1,76.65,21Z" style="fill:#006098"/><line x1="63.31" y1="7.64" x2="82.34" y2="7.64" style="fill:none;stroke:#006098;stroke-miterlimit:10"/><polygon points="89.4 7.64 79.45 11.7 81.82 7.64 79.45 3.57 89.4 7.64" style="fill:#006098"/><line x1="140.4" y1="25.08" x2="316.69" y2="25.08" style="fill:none;stroke:#006098;stroke-miterlimit:10"/><path d="M140.58,28.84a3.76,3.76,0,1,1,3.76-3.76A3.76,3.76,0,0,1,140.58,28.84Z" style="fill:#006098"/><polygon points="323.75 25.08 313.81 29.15 316.17 25.08 313.81 21.02 323.75 25.08" style="fill:#006098"/><line x1="140.54" y1="75" x2="498.38" y2="75" style="fill:none;stroke:#006098;stroke-miterlimit:10"/><path d="M140.72,78.76A3.76,3.76,0,1,1,144.48,75,3.76,3.76,0,0,1,140.72,78.76Z" style="fill:#006098"/><polygon points="505.44 75 495.49 79.06 497.85 75 495.49 70.94 505.44 75" style="fill:#006098"/><line x1="140.12" y1="113.06" x2="217.06" y2="113.06" style="fill:none;stroke:#006098;stroke-miterlimit:10"/><circle cx="140.31" cy="113.06" r="3.76" style="fill:#006098"/><polygon points="224.12 113.06 214.17 117.12 216.53 113.06 214.17 108.99 224.12 113.06" style="fill:#006098"/><line x1="188.75" y1="161.56" x2="144.82" y2="161.56" style="fill:none;stroke:#006098;stroke-miterlimit:10"/><circle cx="188.56" cy="161.56" r="3.76" style="fill:#006098"/><polygon points="137.76 161.56 147.71 157.5 145.35 161.56 147.71 165.63 137.76 161.56" style="fill:#006098"/><path d="M47.86,82.49A11.27,11.27,0,0,1,49,79.32a10.27,10.27,0,0,1,1.89-2.42q1.18-1.16,4.56-3.85a32.12,32.12,0,0,0,2.8-2.41,7.81,7.81,0,0,0,1.57-2.21,3.85,3.85,0,0,0,.33-1.6,3.33,3.33,0,0,0-1-2.47,3.45,3.45,0,0,0-2.53-1,3.74,3.74,0,0,0-2.6,1,6.18,6.18,0,0,0-1.58,3.31l-2.56-.37A7,7,0,0,1,52,62.87a6.52,6.52,0,0,1,4.51-1.62A7.09,7.09,0,0,1,59.8,62,5,5,0,0,1,62,64.11a5.77,5.77,0,0,1,.73,2.8,6.56,6.56,0,0,1-1.5,4,39,39,0,0,1-5.42,4.77,29.24,29.24,0,0,0-2.88,2.52,8.87,8.87,0,0,0-1.42,1.84H61l-.5,2.4Z" style="fill:#006098"/><path d="M62,82.49,74,61.34h3.33l3.49,21.15H78L77,76.4H68.46l-3.39,6.09Zm7.7-8.27h7l-.82-5.31c-.32-2.11-.52-3.86-.59-5.26A41.4,41.4,0,0,1,73.15,68Z" style="fill:#006098"/><path d="M16,119.64a19.65,19.65,0,0,1,.8-5.45,19.27,19.27,0,0,1,1.79-4.43,10.83,10.83,0,0,1,2-2.6,8.11,8.11,0,0,1,2.07-1.38,5.69,5.69,0,0,1,2.26-.44A5.23,5.23,0,0,1,29,107.15a7.52,7.52,0,0,1,1.62,5.2,22.16,22.16,0,0,1-1.13,6.94,13.2,13.2,0,0,1-3.69,6.11,6.2,6.2,0,0,1-4.14,1.54,5.13,5.13,0,0,1-4-1.87A8,8,0,0,1,16,119.64Zm2.53.66a6,6,0,0,0,.65,3,2.82,2.82,0,0,0,2.61,1.51,3.66,3.66,0,0,0,2.76-1.37,12.67,12.67,0,0,0,2.69-5.66,27.2,27.2,0,0,0,.9-6.1,5,5,0,0,0-.88-3.29,2.89,2.89,0,0,0-2.3-1A3.71,3.71,0,0,0,23,108a5.47,5.47,0,0,0-1.72,1.83,18.47,18.47,0,0,0-2,5.48A23,23,0,0,0,18.53,120.3Z" style="fill:#006098"/><path d="M32,126.58l.62-3h3L35,126.2a7,7,0,0,1-1.53,3.41,3.9,3.9,0,0,1-2.43,1.24l.25-1.14c1.14-.32,1.9-1.36,2.26-3.13Z" style="fill:#006098"/><path d="M40.62,120.53l2.65-.26c0,.38,0,.61,0,.68a4.15,4.15,0,0,0,.49,1.92A3.52,3.52,0,0,0,45,124.35a3.29,3.29,0,0,0,1.75.51,4.5,4.5,0,0,0,2.47-.83,6,6,0,0,0,2-2.44,7.23,7.23,0,0,0,.78-3.18,3.91,3.91,0,0,0-1-2.84,3.7,3.7,0,0,0-2.75-1.07,4.56,4.56,0,0,0-2.16.55,6.43,6.43,0,0,0-1.9,1.65l-2.28-.16,3.19-10.82H55.46l-.5,2.39h-8l-1.58,5.38a7,7,0,0,1,1.83-1,5.85,5.85,0,0,1,1.94-.32,5.32,5.32,0,0,1,4,1.6,6,6,0,0,1,1.55,4.38,9.63,9.63,0,0,1-1.06,4.5,7.68,7.68,0,0,1-2.94,3.16,7.83,7.83,0,0,1-4,1.1,6.22,6.22,0,0,1-3.22-.82,5.29,5.29,0,0,1-2.1-2.27,6.63,6.63,0,0,1-.7-2.88C40.6,120.87,40.61,120.73,40.62,120.53Z" style="fill:#006098"/><path d="M61.51,126.58l12-21.15h3.33l3.49,21.15H77.58l-1-6.09H68l-3.39,6.09Zm7.7-8.27h7L75.39,113c-.32-2.1-.52-3.86-.59-5.26a40.44,40.44,0,0,1-2.11,4.31Z" style="fill:#006098"/><path d="M7.06,166.84l.55-2.61h8L15,166.84Z" style="fill:#006098"/><path d="M17.62,166.25a19.4,19.4,0,0,1,.8-5.46,19.69,19.69,0,0,1,1.78-4.43,10.53,10.53,0,0,1,2-2.59,7.61,7.61,0,0,1,2.07-1.38,5.64,5.64,0,0,1,2.25-.44,5.22,5.22,0,0,1,4.05,1.8A7.56,7.56,0,0,1,32.23,159a22.15,22.15,0,0,1-1.12,6.94,13.25,13.25,0,0,1-3.7,6.1,6.21,6.21,0,0,1-4.14,1.55,5.15,5.15,0,0,1-4-1.87A8,8,0,0,1,17.62,166.25Zm2.52.66a6,6,0,0,0,.65,3,2.85,2.85,0,0,0,2.61,1.52,3.69,3.69,0,0,0,2.76-1.37,12.62,12.62,0,0,0,2.69-5.66,27.2,27.2,0,0,0,.9-6.1,5,5,0,0,0-.87-3.29,2.9,2.9,0,0,0-2.3-1,3.69,3.69,0,0,0-1.94.54,5.39,5.39,0,0,0-1.73,1.83,18.5,18.5,0,0,0-2,5.48A23.09,23.09,0,0,0,20.14,166.91Z" style="fill:#006098"/><path d="M33.56,173.19l.62-3h3l-.53,2.58a7.13,7.13,0,0,1-1.52,3.41,3.92,3.92,0,0,1-2.43,1.24l.24-1.14c1.15-.32,1.9-1.36,2.27-3.13Z" style="fill:#006098"/><path d="M41.78,167.65l2.54-.32a5.34,5.34,0,0,0,1.28,3.18,3.56,3.56,0,0,0,2.59,1,4.58,4.58,0,0,0,3.34-1.39,4.32,4.32,0,0,0,1.41-3.17,3.42,3.42,0,0,0-1.06-2.58,3.92,3.92,0,0,0-2.83-1l-.83.06.45-2.18a4.51,4.51,0,0,0,.72.05,5,5,0,0,0,3.44-1.08,3.48,3.48,0,0,0,1.2-2.68A3.33,3.33,0,0,0,53,155a3.23,3.23,0,0,0-2.41-1,3.64,3.64,0,0,0-2.52,1,4.89,4.89,0,0,0-1.44,2.88l-2.56-.52a7,7,0,0,1,2.44-4A6.67,6.67,0,0,1,50.82,152a5.74,5.74,0,0,1,4.2,1.57,5.22,5.22,0,0,1,1.61,3.87,5,5,0,0,1-.87,2.92,6.57,6.57,0,0,1-2.62,2.07A5.18,5.18,0,0,1,55,164.15a4.63,4.63,0,0,1,.62,2.39,6.66,6.66,0,0,1-2.13,4.92,7,7,0,0,1-5.09,2.09,6.65,6.65,0,0,1-4.64-1.61A6.23,6.23,0,0,1,41.78,167.65Z" style="fill:#006098"/><path d="M63.12,173.19l12-21.15h3.33l3.5,21.15H79.19l-1-6.09H69.61l-3.39,6.09Zm7.71-8.27h7L77,159.61c-.32-2.11-.51-3.86-.59-5.27a37,37,0,0,1-2.11,4.32Z" style="fill:#006098"/><line x1="63.31" y1="53.67" x2="82.34" y2="53.67" style="fill:none;stroke:#006098;stroke-miterlimit:10"/><polygon points="89.4 53.67 79.45 57.74 81.82 53.67 79.45 49.61 89.4 53.67" style="fill:#006098"/><line x1="63.31" y1="96.39" x2="82.34" y2="96.39" style="fill:none;stroke:#006098;stroke-miterlimit:10"/><polygon points="89.4 96.39 79.45 100.46 81.82 96.39 79.45 92.33 89.4 96.39" style="fill:#006098"/><line x1="63.31" y1="143.68" x2="82.34" y2="143.68" style="fill:none;stroke:#006098;stroke-miterlimit:10"/><polygon points="89.4 143.69 79.45 147.75 81.82 143.69 79.45 139.62 89.4 143.69" style="fill:#006098"/></svg>