<svg id="Capa_1" data-name="Capa 1" xmlns="http://www.w3.org/2000/svg" viewBox="0 0 208.23 266.9"><rect x="57.04" y="209.24" width="129.96" height="26.58" style="fill:#40a7e3"/><line x1="71.83" y1="135.55" x2="71.83" y2="148.48" style="fill:none;stroke:#000;stroke-linecap:round;stroke-miterlimit:10"/><line x1="72.73" y1="136.01" x2="59.8" y2="136.01" style="fill:none;stroke:#000;stroke-linecap:round;stroke-miterlimit:10"/><path d="M102.07,157l5.33-9.41h1.48l1.55,9.41h-1.22l-.45-2.71H105l-1.5,2.71Zm3.42-3.68h3.11l-.36-2.36c-.14-.93-.23-1.71-.26-2.34a18.28,18.28,0,0,1-.94,1.92Z" style="fill:#006098"/><path d="M116.07,153.24l-2.4,3.2,1.09,3.17h-.85l-.79-2.68-2,2.68h-.94l2.46-3.32-.92-3h.81l.7,2.55,1.87-2.55Z" style="fill:#006098"/><path d="M116,201.71l2-9.4h4a6.11,6.11,0,0,1,1.77.19,1.72,1.72,0,0,1,.94.74,2.47,2.47,0,0,1,.35,1.36,2.59,2.59,0,0,1-.75,1.9,4.09,4.09,0,0,1-2.43,1,3.74,3.74,0,0,1,.78.74,8.5,8.5,0,0,1,1,1.71l.72,1.77h-1.41l-.67-1.75a8.65,8.65,0,0,0-.84-1.64,1.66,1.66,0,0,0-.65-.63,2.87,2.87,0,0,0-1.09-.15h-1.46l-.87,4.17Zm2.34-5.19h1.74c.81,0,1.33,0,1.57,0a2.85,2.85,0,0,0,1.17-.32,1.78,1.78,0,0,0,1-1.58,1.43,1.43,0,0,0-.19-.72.93.93,0,0,0-.49-.41,3.4,3.4,0,0,0-1-.11H119Z" style="fill:#006098"/><path d="M129.83,198l-2.4,3.2,1.09,3.17h-.85l-.79-2.68-2,2.68H124l2.46-3.31-.92-3.06h.81l.7,2.55,1.87-2.55Z" style="fill:#006098"/><path d="M153.27,157l2-9.41h2.91a8.1,8.1,0,0,1,1.18.07,2.89,2.89,0,0,1,1.06.38,1.84,1.84,0,0,1,.67.74,2.31,2.31,0,0,1,.24,1.05,2.23,2.23,0,0,1-.43,1.36,2.54,2.54,0,0,1-1.3.9,2.23,2.23,0,0,1,1.14.76,1.89,1.89,0,0,1,.38,1.17,2.73,2.73,0,0,1-.45,1.49,3,3,0,0,1-1.18,1.1,3.42,3.42,0,0,1-1.64.39Zm1.48-1.07h2.14a7.36,7.36,0,0,0,1.15-.05,2.62,2.62,0,0,0,1-.35,1.86,1.86,0,0,0,.8-1.5,1.24,1.24,0,0,0-.42-1,2.63,2.63,0,0,0-1.57-.34h-2.39Zm.91-4.32h1.9a3.36,3.36,0,0,0,2-.44,1.47,1.47,0,0,0,.6-1.27,1.26,1.26,0,0,0-.19-.68,1,1,0,0,0-.5-.42,3.35,3.35,0,0,0-1.17-.13h-2Z" style="fill:#006098"/><path d="M166.44,153.24l-2.4,3.2,1.08,3.17h-.84l-.79-2.68-2,2.68h-.94l2.46-3.32-.92-3h.8l.71,2.55,1.87-2.55Z" style="fill:#006098"/><path d="M135,58.72l2.14-10.24h4.3a6.33,6.33,0,0,1,1.93.22,1.82,1.82,0,0,1,1,.8,2.69,2.69,0,0,1,.37,1.48,2.84,2.84,0,0,1-.81,2.07,4.49,4.49,0,0,1-2.65,1.07,3.5,3.5,0,0,1,.85.81,9,9,0,0,1,1,1.86l.79,1.93h-1.53l-.74-1.9a8.55,8.55,0,0,0-.91-1.79,1.77,1.77,0,0,0-.71-.69,3.06,3.06,0,0,0-1.18-.16h-1.59l-.95,4.54Zm2.55-5.66h1.89q1.32,0,1.71,0a3.41,3.41,0,0,0,1.28-.35,2,2,0,0,0,.76-.73,1.86,1.86,0,0,0,.28-1,1.42,1.42,0,0,0-.21-.78,1,1,0,0,0-.53-.45,3.6,3.6,0,0,0-1.11-.12h-3.34Z" style="fill:#006098"/><path d="M108.27,14l1.14-5.46h2.29a3.36,3.36,0,0,1,1,.12,1,1,0,0,1,.55.42A1.64,1.64,0,0,1,113,11a2.43,2.43,0,0,1-1.41.57,1.87,1.87,0,0,1,.45.43,4.42,4.42,0,0,1,.55,1l.42,1h-.81l-.39-1a4.78,4.78,0,0,0-.49-1,.91.91,0,0,0-.38-.36,1.61,1.61,0,0,0-.63-.09h-.85L109,14Zm1.36-3h1c.46,0,.77,0,.91,0a1.82,1.82,0,0,0,.68-.19,1.07,1.07,0,0,0,.4-.39,1,1,0,0,0,.15-.53.76.76,0,0,0-.11-.41.5.5,0,0,0-.28-.24,1.73,1.73,0,0,0-.6-.07H110Z" style="fill:#006098"/><path d="M118.69,12.66l.66.06a2,2,0,0,1-.65.93,1.82,1.82,0,0,1-1.21.44,1.68,1.68,0,0,1-.81-.2,1.39,1.39,0,0,1-.56-.59,1.93,1.93,0,0,1-.19-.88,2.81,2.81,0,0,1,.3-1.26,2.14,2.14,0,0,1,.78-.91,2,2,0,0,1,1-.29,1.52,1.52,0,0,1,1.13.44,1.66,1.66,0,0,1,.42,1.2,4,4,0,0,1,0,.59h-2.91a1.83,1.83,0,0,0,0,.21,1.27,1.27,0,0,0,.26.85.8.8,0,0,0,.62.29,1.21,1.21,0,0,0,.68-.23A1.48,1.48,0,0,0,118.69,12.66Zm-2-1H119c0-.07,0-.12,0-.15a1.1,1.1,0,0,0-.26-.78.85.85,0,0,0-.65-.27,1.2,1.2,0,0,0-.79.3A1.88,1.88,0,0,0,116.73,11.68Z" style="fill:#006098"/><path d="M120.09,12.65l.68,0a1.19,1.19,0,0,0,.09.49.65.65,0,0,0,.32.34,1.13,1.13,0,0,0,.56.13,1,1,0,0,0,.67-.18.53.53,0,0,0,.23-.42.49.49,0,0,0-.14-.33,2,2,0,0,0-.67-.39,7,7,0,0,1-.68-.32,1.1,1.1,0,0,1-.38-.36.91.91,0,0,1-.12-.47,1.06,1.06,0,0,1,.37-.81,1.51,1.51,0,0,1,1-.33,1.62,1.62,0,0,1,1.13.34,1.2,1.2,0,0,1,.41.91l-.66,0a.75.75,0,0,0-.25-.56,1,1,0,0,0-.68-.21.81.81,0,0,0-.54.16.45.45,0,0,0-.19.35.4.4,0,0,0,.16.32,2.53,2.53,0,0,0,.58.3,3.83,3.83,0,0,1,1,.53,1,1,0,0,1,.32.75,1,1,0,0,1-.19.58,1.19,1.19,0,0,1-.55.45,2.08,2.08,0,0,1-.87.17,1.92,1.92,0,0,1-1.16-.34A1.19,1.19,0,0,1,120.09,12.65Z" style="fill:#006098"/><path d="M125.91,14l1.14-5.46h.67L126.58,14Z" style="fill:#006098"/><path d="M130.32,13.51a2.69,2.69,0,0,1-.68.44,1.74,1.74,0,0,1-.69.14,1.24,1.24,0,0,1-.88-.32,1.19,1.19,0,0,1-.19-1.41,1.24,1.24,0,0,1,.41-.41,1.62,1.62,0,0,1,.61-.22,5.49,5.49,0,0,1,.86-.07,3.26,3.26,0,0,0,.91-.14,1.78,1.78,0,0,0,.08-.46.43.43,0,0,0-.18-.36,1,1,0,0,0-.68-.19,1.15,1.15,0,0,0-.69.19,1,1,0,0,0-.4.53l-.68-.06a1.81,1.81,0,0,1,.66-.9,1.94,1.94,0,0,1,1.14-.31,1.78,1.78,0,0,1,1.16.35.82.82,0,0,1,.33.68,3.53,3.53,0,0,1-.09.73l-.22,1a3.6,3.6,0,0,0-.1.77,2.18,2.18,0,0,0,.08.53h-.68A2,2,0,0,1,130.32,13.51Zm.25-1.51a1.57,1.57,0,0,1-.31.08,4.58,4.58,0,0,1-.54.07,4.09,4.09,0,0,0-.83.13.69.69,0,0,0-.36.25.63.63,0,0,0-.13.39.62.62,0,0,0,.2.47.8.8,0,0,0,.56.18,1.27,1.27,0,0,0,.64-.18,1.28,1.28,0,0,0,.49-.49A2.9,2.9,0,0,0,130.57,12Z" style="fill:#006098"/><path d="M134.07,12.65l.68,0a1.19,1.19,0,0,0,.09.49.72.72,0,0,0,.33.34,1.1,1.1,0,0,0,.56.13,1.07,1.07,0,0,0,.67-.18.55.55,0,0,0,.22-.42.53.53,0,0,0-.13-.33,2.26,2.26,0,0,0-.68-.39,7,7,0,0,1-.68-.32,1.1,1.1,0,0,1-.38-.36.91.91,0,0,1-.12-.47,1.06,1.06,0,0,1,.37-.81,1.53,1.53,0,0,1,1-.33,1.67,1.67,0,0,1,1.14.34,1.19,1.19,0,0,1,.4.91l-.66,0a.75.75,0,0,0-.25-.56,1,1,0,0,0-.68-.21.81.81,0,0,0-.54.16.45.45,0,0,0-.19.35.4.4,0,0,0,.16.32,2.53,2.53,0,0,0,.58.3,3.83,3.83,0,0,1,1,.53,1,1,0,0,1,.32.75,1.07,1.07,0,0,1-.18.58,1.24,1.24,0,0,1-.55.45,2.16,2.16,0,0,1-.88.17,1.94,1.94,0,0,1-1.16-.34A1.21,1.21,0,0,1,134.07,12.65Z" style="fill:#006098"/><path d="M140.52,13.29a2,2,0,0,1-1.45.8,1,1,0,0,1-.74-.26.84.84,0,0,1-.28-.64,5.08,5.08,0,0,1,.12-.86l.48-2.28h.67l-.53,2.53a2.77,2.77,0,0,0-.06.49.42.42,0,0,0,.13.34.55.55,0,0,0,.4.13,1.25,1.25,0,0,0,.56-.14,1.37,1.37,0,0,0,.46-.37,2,2,0,0,0,.32-.55,5.61,5.61,0,0,0,.19-.72l.36-1.71h.67L141,14h-.62Z" style="fill:#006098"/><path d="M142.06,14l.82-3.95h.68l-.14.65a2.71,2.71,0,0,1,.67-.58,1.29,1.29,0,0,1,.64-.16,1,1,0,0,1,.62.19,1,1,0,0,1,.33.55,2.31,2.31,0,0,1,.63-.56A1.46,1.46,0,0,1,147,10a1.1,1.1,0,0,1,.75.23.89.89,0,0,1,.24.66,4.39,4.39,0,0,1-.08.61L147.38,14h-.67l.55-2.61a3.44,3.44,0,0,0,.07-.46.42.42,0,0,0-.13-.31.5.5,0,0,0-.34-.11,1.17,1.17,0,0,0-.62.19,1.28,1.28,0,0,0-.48.47,3.15,3.15,0,0,0-.31.91l-.4,1.92h-.67l.56-2.67A2.1,2.1,0,0,0,145,11a.44.44,0,0,0-.13-.32.41.41,0,0,0-.31-.12,1.14,1.14,0,0,0-.6.19,1.44,1.44,0,0,0-.51.5,3,3,0,0,0-.33.93L142.73,14Z" style="fill:#006098"/><path d="M151.08,13.51a2.69,2.69,0,0,1-.68.44,1.74,1.74,0,0,1-.69.14,1.24,1.24,0,0,1-.88-.32,1.19,1.19,0,0,1-.19-1.41,1.24,1.24,0,0,1,.41-.41,1.62,1.62,0,0,1,.61-.22,5.49,5.49,0,0,1,.86-.07,3.26,3.26,0,0,0,.91-.14,1.78,1.78,0,0,0,.08-.46.43.43,0,0,0-.18-.36,1,1,0,0,0-.68-.19,1.15,1.15,0,0,0-.69.19,1,1,0,0,0-.4.53l-.68-.06a1.81,1.81,0,0,1,.66-.9,1.94,1.94,0,0,1,1.14-.31,1.78,1.78,0,0,1,1.16.35.82.82,0,0,1,.33.68,3.53,3.53,0,0,1-.09.73l-.22,1a3.6,3.6,0,0,0-.1.77,2.18,2.18,0,0,0,.08.53h-.68A2,2,0,0,1,151.08,13.51Zm.25-1.51a1.57,1.57,0,0,1-.31.08,4.58,4.58,0,0,1-.54.07,4.09,4.09,0,0,0-.83.13.69.69,0,0,0-.36.25.63.63,0,0,0-.13.39.62.62,0,0,0,.2.47.8.8,0,0,0,.56.18,1.27,1.27,0,0,0,.64-.18,1.28,1.28,0,0,0,.49-.49A2.9,2.9,0,0,0,151.33,12Z" style="fill:#006098"/><path d="M155.77,14l-.65-3.95h.66l.33,2.18c0,.23.09.62.14,1.16.13-.28.3-.6.5-1l1.32-2.38h.71L156.52,14Z" style="fill:#006098"/><path d="M161.49,12.66l.65.06a1.92,1.92,0,0,1-.65.93,1.8,1.8,0,0,1-1.21.44,1.73,1.73,0,0,1-.81-.2,1.31,1.31,0,0,1-.55-.59,1.93,1.93,0,0,1-.2-.88,2.81,2.81,0,0,1,.3-1.26,2.14,2.14,0,0,1,.78-.91,2,2,0,0,1,1-.29,1.51,1.51,0,0,1,1.13.44,1.66,1.66,0,0,1,.42,1.2,3,3,0,0,1,0,.59h-2.91a1.83,1.83,0,0,0,0,.21,1.27,1.27,0,0,0,.26.85.81.81,0,0,0,.62.29,1.21,1.21,0,0,0,.68-.23A1.5,1.5,0,0,0,161.49,12.66Zm-2-1h2.22v-.15a1.09,1.09,0,0,0-.25-.78.86.86,0,0,0-.65-.27,1.2,1.2,0,0,0-.79.3A1.73,1.73,0,0,0,159.53,11.68Z" style="fill:#006098"/><path d="M165.55,12.56l.67.07a2.13,2.13,0,0,1-.72,1.1,1.68,1.68,0,0,1-1.06.36,1.36,1.36,0,0,1-1-.42,1.57,1.57,0,0,1-.4-1.16,3.3,3.3,0,0,1,.25-1.27,2.14,2.14,0,0,1,.74-1,1.94,1.94,0,0,1,1.09-.32,1.39,1.39,0,0,1,1,.36,1.24,1.24,0,0,1,.37.95l-.66,0a.75.75,0,0,0-.22-.58.73.73,0,0,0-.56-.22,1.07,1.07,0,0,0-.71.26,1.72,1.72,0,0,0-.46.78,3.34,3.34,0,0,0-.17,1,1.13,1.13,0,0,0,.22.76.7.7,0,0,0,.55.25,1,1,0,0,0,.63-.25A1.62,1.62,0,0,0,165.55,12.56Z" style="fill:#006098"/><path d="M168.21,13.45l-.11.55a1.58,1.58,0,0,1-.47.07,1,1,0,0,1-.64-.2.49.49,0,0,1-.18-.4,3.46,3.46,0,0,1,.1-.6l.48-2.3h-.54l.11-.52h.53l.21-1,.77-.47-.3,1.44h.66l-.11.52h-.66l-.46,2.18c0,.28-.08.45-.08.5a.25.25,0,0,0,.07.19.32.32,0,0,0,.22.06A1.62,1.62,0,0,0,168.21,13.45Z" style="fill:#006098"/><path d="M168.87,12.5a2.8,2.8,0,0,1,.68-1.92A1.92,1.92,0,0,1,171,10a1.54,1.54,0,0,1,1.15.45,1.64,1.64,0,0,1,.44,1.2,3,3,0,0,1-.28,1.27,2,2,0,0,1-1.85,1.21,1.8,1.8,0,0,1-.84-.2,1.31,1.31,0,0,1-.58-.56A1.7,1.7,0,0,1,168.87,12.5Zm.67-.07a1.19,1.19,0,0,0,.27.85.91.91,0,0,0,.68.29,1.07,1.07,0,0,0,.43-.09,1.61,1.61,0,0,0,.4-.26,2.1,2.1,0,0,0,.31-.41,2.48,2.48,0,0,0,.2-.5,2.24,2.24,0,0,0,.12-.7,1.17,1.17,0,0,0-.27-.83.88.88,0,0,0-.68-.3,1.17,1.17,0,0,0-.58.15,1.62,1.62,0,0,0-.47.44,2.12,2.12,0,0,0-.31.68A3,3,0,0,0,169.54,12.43Z" style="fill:#006098"/><path d="M173,14l.83-3.95h.59l-.16.81a2.59,2.59,0,0,1,.59-.68,1,1,0,0,1,.6-.22,1.27,1.27,0,0,1,.5.14l-.28.63a.6.6,0,0,0-.38-.13,1,1,0,0,0-.73.4,2.93,2.93,0,0,0-.58,1.42L173.63,14Z" style="fill:#006098"/><path d="M175.5,14l.83-3.95H177L176.18,14Zm1-4.69.16-.77h.67l-.16.77Z" style="fill:#006098"/><path d="M179.89,13.51a2.65,2.65,0,0,1-.67.44,1.82,1.82,0,0,1-.7.14,1.24,1.24,0,0,1-.88-.32,1.17,1.17,0,0,1,.22-1.82,1.69,1.69,0,0,1,.61-.22,5.62,5.62,0,0,1,.86-.07,3.19,3.19,0,0,0,.91-.14,1.78,1.78,0,0,0,.08-.46.45.45,0,0,0-.17-.36,1.07,1.07,0,0,0-.69-.19,1.15,1.15,0,0,0-.69.19,1.09,1.09,0,0,0-.4.53l-.68-.06a1.81,1.81,0,0,1,.66-.9A2,2,0,0,1,179.5,10a1.82,1.82,0,0,1,1.16.35A.81.81,0,0,1,181,11a3.53,3.53,0,0,1-.09.73l-.22,1a3.6,3.6,0,0,0-.1.77,2.18,2.18,0,0,0,.08.53H180A2,2,0,0,1,179.89,13.51Zm.25-1.51a1.67,1.67,0,0,1-.3.08,5.2,5.2,0,0,1-.55.07,4.22,4.22,0,0,0-.83.13.65.65,0,0,0-.48.64.61.61,0,0,0,.19.47.8.8,0,0,0,.56.18,1.24,1.24,0,0,0,.64-.18,1.28,1.28,0,0,0,.49-.49A2.9,2.9,0,0,0,180.14,12Z" style="fill:#006098"/><path d="M181.41,14l1.14-5.46h.68L182.09,14Z" style="fill:#006098"/><path d="M109.14,28.31a6.25,6.25,0,0,1-.58-2.63,5.69,5.69,0,0,1,.23-1.68,6.42,6.42,0,0,1,.72-1.53,11.5,11.5,0,0,1,1-1.31h.52a6.78,6.78,0,0,0-.92,1.31,7.15,7.15,0,0,0-.71,1.66,6.54,6.54,0,0,0-.22,1.64,8.41,8.41,0,0,0,.43,2.54Z" style="fill:#006098"/><path d="M110.7,26.71l.83-4h.6l-.17.81a2.76,2.76,0,0,1,.6-.68,1,1,0,0,1,.59-.22,1.15,1.15,0,0,1,.5.15l-.28.63a.58.58,0,0,0-.38-.13,1,1,0,0,0-.73.39,3,3,0,0,0-.58,1.42l-.34,1.59Z" style="fill:#006098"/><path d="M116.15,25.36l.65.07a2,2,0,0,1-.65.93,1.8,1.8,0,0,1-1.21.44,1.63,1.63,0,0,1-.81-.21,1.26,1.26,0,0,1-.55-.59,1.9,1.9,0,0,1-.2-.88,2.77,2.77,0,0,1,.3-1.25,2.14,2.14,0,0,1,.78-.91,1.9,1.9,0,0,1,1-.3,1.51,1.51,0,0,1,1.13.44,1.69,1.69,0,0,1,.42,1.2,4.16,4.16,0,0,1-.05.6h-2.91a1.65,1.65,0,0,0,0,.21,1.22,1.22,0,0,0,.26.84.79.79,0,0,0,.62.3,1.21,1.21,0,0,0,.68-.23A1.47,1.47,0,0,0,116.15,25.36Zm-2-1h2.22v-.14a1.09,1.09,0,0,0-.25-.78.86.86,0,0,0-.65-.27,1.2,1.2,0,0,0-.79.3A1.74,1.74,0,0,0,114.19,24.38Z" style="fill:#006098"/><path d="M117.55,25.36l.67,0a1.22,1.22,0,0,0,.09.49.72.72,0,0,0,.33.34,1.22,1.22,0,0,0,.56.13,1.05,1.05,0,0,0,.67-.18.51.51,0,0,0,.09-.76,2.21,2.21,0,0,0-.67-.38,6.45,6.45,0,0,1-.69-.32,1.07,1.07,0,0,1-.37-.36.86.86,0,0,1-.13-.48,1,1,0,0,1,.37-.8,1.53,1.53,0,0,1,1-.34,1.67,1.67,0,0,1,1.14.35,1.19,1.19,0,0,1,.4.91l-.66,0a.76.76,0,0,0-.25-.57,1,1,0,0,0-.67-.2.82.82,0,0,0-.55.16.43.43,0,0,0-.19.34.42.42,0,0,0,.17.33,3.1,3.1,0,0,0,.57.3,3.83,3.83,0,0,1,1,.53,1,1,0,0,1,.32.75,1.09,1.09,0,0,1-.18.58,1.33,1.33,0,0,1-.55.45,2.14,2.14,0,0,1-.87.17,2,2,0,0,1-1.17-.34A1.2,1.2,0,0,1,117.55,25.36Z" style="fill:#006098"/><path d="M124,26a2,2,0,0,1-1.45.81,1,1,0,0,1-.74-.27.81.81,0,0,1-.28-.64,5.13,5.13,0,0,1,.12-.85l.48-2.29h.67l-.52,2.53a2.26,2.26,0,0,0-.07.49.45.45,0,0,0,.13.35.63.63,0,0,0,.41.13,1.25,1.25,0,0,0,.55-.14,1.5,1.5,0,0,0,.46-.37,2,2,0,0,0,.32-.56,4,4,0,0,0,.19-.72l.36-1.71h.67l-.82,4h-.63Z" style="fill:#006098"/><path d="M125.48,26.71l1.14-5.46h.67l-1.13,5.46Z" style="fill:#006098"/><path d="M128.8,26.16l-.11.55a2,2,0,0,1-.47.06,1,1,0,0,1-.64-.19.51.51,0,0,1-.18-.41,3.46,3.46,0,0,1,.1-.6l.48-2.29h-.53l.1-.53h.54l.2-1,.77-.46-.3,1.43h.66l-.11.53h-.66l-.46,2.18c-.05.28-.08.44-.08.5a.21.21,0,0,0,.07.18.32.32,0,0,0,.22.06A1.64,1.64,0,0,0,128.8,26.16Z" style="fill:#006098"/><path d="M132,26.22a3,3,0,0,1-.67.44,1.82,1.82,0,0,1-.7.14,1.22,1.22,0,0,1-.88-.33,1.08,1.08,0,0,1-.33-.82,1.15,1.15,0,0,1,.15-.59,1.21,1.21,0,0,1,.4-.41,1.9,1.9,0,0,1,.61-.22,7.37,7.37,0,0,1,.86-.07,3.27,3.27,0,0,0,.91-.13,1.93,1.93,0,0,0,.08-.46.45.45,0,0,0-.17-.37,1.13,1.13,0,0,0-.69-.18,1.22,1.22,0,0,0-.69.18,1.08,1.08,0,0,0-.39.54l-.69-.06a1.77,1.77,0,0,1,.67-.9,1.94,1.94,0,0,1,1.14-.32,1.8,1.8,0,0,1,1.16.35.83.83,0,0,1,.33.68,3.7,3.7,0,0,1-.1.74l-.22,1a3.6,3.6,0,0,0-.1.76,2.91,2.91,0,0,0,.08.54h-.68A2.78,2.78,0,0,1,132,26.22Zm.25-1.52a1.49,1.49,0,0,1-.3.09l-.54.06a4,4,0,0,0-.84.14.64.64,0,0,0-.36.25.69.69,0,0,0-.12.39.59.59,0,0,0,.19.46.81.81,0,0,0,.56.19,1.24,1.24,0,0,0,.64-.18,1.28,1.28,0,0,0,.49-.49A3.07,3.07,0,0,0,132.26,24.7Z" style="fill:#006098"/><path d="M133.59,26.71l.82-4H135l-.14.69a3,3,0,0,1,.74-.59,1.54,1.54,0,0,1,.71-.19,1,1,0,0,1,.75.27.91.91,0,0,1,.28.69,4.31,4.31,0,0,1-.1.69l-.5,2.4h-.68l.53-2.51a3,3,0,0,0,.08-.54.42.42,0,0,0-.14-.32.57.57,0,0,0-.39-.12,1.3,1.3,0,0,0-.92.37,2.43,2.43,0,0,0-.6,1.28l-.38,1.84Z" style="fill:#006098"/><path d="M139.4,26.16l-.11.55a2,2,0,0,1-.47.06,1,1,0,0,1-.64-.19.51.51,0,0,1-.18-.41,3.46,3.46,0,0,1,.1-.6l.48-2.29h-.53l.1-.53h.54l.2-1,.77-.46-.3,1.43H140l-.11.53h-.66l-.46,2.18c0,.28-.08.44-.08.5a.21.21,0,0,0,.07.18.32.32,0,0,0,.22.06A1.64,1.64,0,0,0,139.4,26.16Z" style="fill:#006098"/><path d="M142.85,25.36l.65.07a2,2,0,0,1-.65.93,1.8,1.8,0,0,1-1.21.44,1.63,1.63,0,0,1-.81-.21,1.26,1.26,0,0,1-.55-.59,1.9,1.9,0,0,1-.2-.88,2.77,2.77,0,0,1,.3-1.25,2.14,2.14,0,0,1,.78-.91,1.9,1.9,0,0,1,1-.3,1.51,1.51,0,0,1,1.13.44,1.69,1.69,0,0,1,.42,1.2,3.1,3.1,0,0,1-.05.6h-2.91a1.55,1.55,0,0,0,0,.21A1.22,1.22,0,0,0,141,26a.79.79,0,0,0,.62.3,1.24,1.24,0,0,0,.69-.23A1.52,1.52,0,0,0,142.85,25.36Zm-2-1h2.22v-.14a1.09,1.09,0,0,0-.25-.78.86.86,0,0,0-.65-.27,1.2,1.2,0,0,0-.79.3A1.81,1.81,0,0,0,140.89,24.38Z" style="fill:#006098"/><path d="M145.44,21.16a6.26,6.26,0,0,1,.59,2.63,5.57,5.57,0,0,1-.24,1.67,5.78,5.78,0,0,1-.72,1.54,10.21,10.21,0,0,1-1,1.31h-.52a7.66,7.66,0,0,0,.91-1.31,7.09,7.09,0,0,0,.71-1.66,6.54,6.54,0,0,0,.22-1.64,8.31,8.31,0,0,0-.43-2.54Z" style="fill:#006098"/><path d="M151.51,26.13a1.62,1.62,0,0,1-1.21.67,1.22,1.22,0,0,1-.94-.42,1.73,1.73,0,0,1-.37-1.2,2.91,2.91,0,0,1,.3-1.32A2.17,2.17,0,0,1,150,23a1.56,1.56,0,0,1,.89-.3,1.19,1.19,0,0,1,1.11.72l.45-2.13h.67L152,26.71h-.62Zm-1.85-1.08a2.2,2.2,0,0,0,.08.65.94.94,0,0,0,.28.4.76.76,0,0,0,.47.16,1,1,0,0,0,.83-.48,2.39,2.39,0,0,0,.5-1.56,1.06,1.06,0,0,0-.24-.74.84.84,0,0,0-.62-.26.93.93,0,0,0-.44.11,1.3,1.3,0,0,0-.4.36,2.54,2.54,0,0,0-.33.66A2.23,2.23,0,0,0,149.66,25.05Z" style="fill:#006098"/><path d="M156,25.36l.66.07a2,2,0,0,1-.65.93,1.8,1.8,0,0,1-1.21.44,1.6,1.6,0,0,1-.81-.21,1.33,1.33,0,0,1-.56-.59,2,2,0,0,1-.19-.88,2.77,2.77,0,0,1,.3-1.25,2.14,2.14,0,0,1,.78-.91,1.88,1.88,0,0,1,1-.3,1.51,1.51,0,0,1,1.13.44,1.69,1.69,0,0,1,.42,1.2,4.16,4.16,0,0,1,0,.6h-2.91a1.65,1.65,0,0,0,0,.21,1.22,1.22,0,0,0,.26.84.79.79,0,0,0,.62.3,1.21,1.21,0,0,0,.68-.23A1.39,1.39,0,0,0,156,25.36Zm-1.95-1h2.21a.82.82,0,0,0,0-.14,1.14,1.14,0,0,0-.25-.78.87.87,0,0,0-.66-.27,1.18,1.18,0,0,0-.78.3A1.74,1.74,0,0,0,154,24.38Z" style="fill:#006098"/><path d="M158.75,26.71l3.09-5.46h.86l.9,5.46h-.7l-.27-1.57h-2.21l-.87,1.57Zm2-2.14h1.8l-.21-1.37q-.12-.81-.15-1.35a11.2,11.2,0,0,1-.55,1.11Z" style="fill:#006098"/><path d="M165.82,28.23l0-.63a1.51,1.51,0,0,0,.41.06.54.54,0,0,0,.33-.09,1.59,1.59,0,0,0,.36-.46l.21-.39-.66-4h.67l.29,2c.06.4.11.79.16,1.19l1.77-3.19h.7l-2.52,4.48a2.75,2.75,0,0,1-.65.87,1.05,1.05,0,0,1-.65.21A1.21,1.21,0,0,1,165.82,28.23Z" style="fill:#006098"/><path d="M172.08,26.71l1.15-5.46h1.69a3.89,3.89,0,0,1,.68,0,1.63,1.63,0,0,1,.62.22,1.16,1.16,0,0,1,.39.43,1.45,1.45,0,0,1-.11,1.4,1.54,1.54,0,0,1-.76.52,1.29,1.29,0,0,1,.66.44,1.07,1.07,0,0,1,.22.68,1.52,1.52,0,0,1-.26.86,1.74,1.74,0,0,1-.68.64,2,2,0,0,1-1,.23Zm.86-.62h1.25a4.56,4.56,0,0,0,.66,0,1.47,1.47,0,0,0,.57-.21,1.08,1.08,0,0,0,.46-.87.71.71,0,0,0-.24-.58,1.54,1.54,0,0,0-.92-.2h-1.38Zm.53-2.51h1.1a2,2,0,0,0,1.14-.25.85.85,0,0,0,.35-.74.67.67,0,0,0-.11-.4.6.6,0,0,0-.28-.24,2,2,0,0,0-.68-.08h-1.16Z" style="fill:#006098"/><path d="M60.6,221.38l1.1-5.25h.7l-1,4.65h2.72l-.12.6Z" style="fill:#fff"/><path d="M67.19,220.9a2.47,2.47,0,0,1-.64.43,1.67,1.67,0,0,1-.67.13,1.17,1.17,0,0,1-.85-.31,1.05,1.05,0,0,1-.32-.79,1.13,1.13,0,0,1,.14-.56,1.15,1.15,0,0,1,.39-.4,1.64,1.64,0,0,1,.59-.21,6.68,6.68,0,0,1,.83-.07,3.06,3.06,0,0,0,.87-.13,1.65,1.65,0,0,0,.08-.44.41.41,0,0,0-.17-.35,1,1,0,0,0-.66-.18,1.12,1.12,0,0,0-.66.18,1,1,0,0,0-.38.51l-.66-.05a1.75,1.75,0,0,1,.64-.87,1.88,1.88,0,0,1,1.1-.3,1.71,1.71,0,0,1,1.11.33.81.81,0,0,1,.32.66,3.27,3.27,0,0,1-.09.7l-.21.95a3.29,3.29,0,0,0-.1.73,2.11,2.11,0,0,0,.08.52h-.66A2.65,2.65,0,0,1,67.19,220.9Zm.25-1.45a1.47,1.47,0,0,1-.3.08l-.52.06a4.67,4.67,0,0,0-.8.13.65.65,0,0,0-.35.25.61.61,0,0,0-.12.37.62.62,0,0,0,.19.45.81.81,0,0,0,.54.17,1.29,1.29,0,0,0,.62-.17,1.32,1.32,0,0,0,.47-.47A3.2,3.2,0,0,0,67.44,219.45Z" style="fill:#fff"/><path d="M68.77,220.08l.65,0a1.32,1.32,0,0,0,.08.47.78.78,0,0,0,.32.33,1.13,1.13,0,0,0,.54.12,1,1,0,0,0,.64-.17.5.5,0,0,0,.22-.41.45.45,0,0,0-.13-.31,1.89,1.89,0,0,0-.65-.37,6.06,6.06,0,0,1-.65-.31,1.25,1.25,0,0,1-.37-.35.85.85,0,0,1-.12-.46,1,1,0,0,1,.36-.77,1.46,1.46,0,0,1,1-.32,1.6,1.6,0,0,1,1.09.33,1.15,1.15,0,0,1,.39.87l-.63,0a.74.74,0,0,0-.24-.54,1,1,0,0,0-.65-.2.84.84,0,0,0-.53.15.46.46,0,0,0-.18.34.38.38,0,0,0,.16.31,2.94,2.94,0,0,0,.55.29,3.38,3.38,0,0,1,.94.51.94.94,0,0,1,.31.72,1,1,0,0,1-.17.55,1.22,1.22,0,0,1-.53.44,2,2,0,0,1-.84.16,1.92,1.92,0,0,1-1.12-.32A1.15,1.15,0,0,1,68.77,220.08Z" style="fill:#fff"/><path d="M77,220l.64.07a2.18,2.18,0,0,1-.69,1.06,1.63,1.63,0,0,1-1,.34,1.3,1.3,0,0,1-1-.4,1.54,1.54,0,0,1-.39-1.12,3.1,3.1,0,0,1,.25-1.22,2,2,0,0,1,.7-.92,1.83,1.83,0,0,1,1.06-.31,1.35,1.35,0,0,1,1,.34,1.25,1.25,0,0,1,.35.92l-.63,0a.81.81,0,0,0-.21-.56.74.74,0,0,0-.55-.21,1,1,0,0,0-.67.25,1.6,1.6,0,0,0-.45.75,3.1,3.1,0,0,0-.17,1,1.1,1.1,0,0,0,.22.73A.68.68,0,0,0,76,221a.92.92,0,0,0,.6-.24A1.59,1.59,0,0,0,77,220Z" style="fill:#fff"/><path d="M78.19,219.93a2.65,2.65,0,0,1,.66-1.84,1.81,1.81,0,0,1,1.42-.6,1.46,1.46,0,0,1,1.1.43,1.57,1.57,0,0,1,.42,1.16,2.82,2.82,0,0,1-.26,1.22,2,2,0,0,1-.75.86,2,2,0,0,1-1,.3,1.67,1.67,0,0,1-.81-.19,1.3,1.3,0,0,1-.56-.53A1.76,1.76,0,0,1,78.19,219.93Zm.65-.06a1.14,1.14,0,0,0,.26.81.83.83,0,0,0,.65.28,1.25,1.25,0,0,0,.42-.08,1.14,1.14,0,0,0,.37-.26,1.45,1.45,0,0,0,.3-.39,2,2,0,0,0,.2-.48,2.06,2.06,0,0,0,.11-.68,1.12,1.12,0,0,0-.26-.8.83.83,0,0,0-.65-.28,1.12,1.12,0,0,0-.55.14,1.55,1.55,0,0,0-.46.43,1.84,1.84,0,0,0-.29.65A2.46,2.46,0,0,0,78.84,219.87Z" style="fill:#fff"/><path d="M82.15,221.38l.8-3.81h.65l-.14.63a2.53,2.53,0,0,1,.65-.56,1.29,1.29,0,0,1,.62-.15.91.91,0,0,1,.59.19.86.86,0,0,1,.31.52,2.09,2.09,0,0,1,.61-.53,1.38,1.38,0,0,1,.68-.18,1,1,0,0,1,.71.22.84.84,0,0,1,.24.64,4,4,0,0,1-.08.58l-.51,2.45h-.65l.52-2.52a2,2,0,0,0,.07-.44.37.37,0,0,0-.12-.29.49.49,0,0,0-.33-.11,1.12,1.12,0,0,0-.59.18,1.22,1.22,0,0,0-.47.46,3,3,0,0,0-.29.87L85,221.38h-.65l.54-2.57a2,2,0,0,0,.06-.37.38.38,0,0,0-.12-.3.41.41,0,0,0-.3-.12,1.12,1.12,0,0,0-.58.18,1.28,1.28,0,0,0-.49.49,2.67,2.67,0,0,0-.31.89l-.38,1.8Z" style="fill:#fff"/><path d="M87.94,222.83l1.1-5.26h.6l-.11.53a2.32,2.32,0,0,1,.6-.48,1.25,1.25,0,0,1,1.46.26,1.71,1.71,0,0,1,.35,1.14,2.92,2.92,0,0,1-.19,1.08,2.42,2.42,0,0,1-.49.79,2,2,0,0,1-.58.43,1.26,1.26,0,0,1-.6.14,1.17,1.17,0,0,1-1.06-.69l-.43,2.06Zm1.29-3a1.93,1.93,0,0,0,.06.59.78.78,0,0,0,.29.38.84.84,0,0,0,.47.14,1,1,0,0,0,.91-.63A2.61,2.61,0,0,0,91.3,219a1.14,1.14,0,0,0-.23-.75.77.77,0,0,0-.58-.26.81.81,0,0,0-.45.13,1.34,1.34,0,0,0-.4.39,2.38,2.38,0,0,0-.3.64A2.52,2.52,0,0,0,89.23,219.82Z" style="fill:#fff"/><path d="M92.46,219.93a2.64,2.64,0,0,1,.65-1.84,1.81,1.81,0,0,1,1.42-.6,1.47,1.47,0,0,1,1.11.43,1.57,1.57,0,0,1,.42,1.16,2.82,2.82,0,0,1-.27,1.22,2,2,0,0,1-.75.86,2,2,0,0,1-1,.3,1.67,1.67,0,0,1-.81-.19,1.23,1.23,0,0,1-.55-.53A1.64,1.64,0,0,1,92.46,219.93Zm.64-.06a1.14,1.14,0,0,0,.26.81A.84.84,0,0,0,94,221a1.19,1.19,0,0,0,.41-.08,1.29,1.29,0,0,0,.38-.26,1.68,1.68,0,0,0,.3-.39,2.55,2.55,0,0,0,.2-.48,2.35,2.35,0,0,0,.11-.68,1.17,1.17,0,0,0-.26-.8.85.85,0,0,0-.66-.28,1.15,1.15,0,0,0-.55.14,1.41,1.41,0,0,0-.45.43,1.69,1.69,0,0,0-.3.65A2.94,2.94,0,0,0,93.1,219.87Z" style="fill:#fff"/><path d="M96.42,221.38l.79-3.81h.59l-.14.67a3.08,3.08,0,0,1,.72-.57,1.41,1.41,0,0,1,.68-.18,1,1,0,0,1,.72.25.87.87,0,0,1,.27.67,4.06,4.06,0,0,1-.1.66l-.48,2.31h-.65l.51-2.41a2.75,2.75,0,0,0,.07-.52.39.39,0,0,0-.13-.31.54.54,0,0,0-.38-.12,1.26,1.26,0,0,0-.88.36,2.28,2.28,0,0,0-.57,1.23l-.37,1.77Z" style="fill:#fff"/><path d="M103.29,220.08l.63.07a1.89,1.89,0,0,1-.63.89,1.71,1.71,0,0,1-1.16.42,1.61,1.61,0,0,1-.78-.19,1.27,1.27,0,0,1-.53-.57,1.8,1.8,0,0,1-.19-.85,2.76,2.76,0,0,1,.29-1.21,2,2,0,0,1,.75-.87,1.81,1.81,0,0,1,1-.28,1.45,1.45,0,0,1,1.09.42,1.6,1.6,0,0,1,.4,1.15,2.9,2.9,0,0,1-.05.58h-2.8a1.41,1.41,0,0,0,0,.2,1.22,1.22,0,0,0,.24.81.78.78,0,0,0,.6.28,1.16,1.16,0,0,0,.66-.22A1.4,1.4,0,0,0,103.29,220.08Zm-1.88-.94h2.13V219a1.07,1.07,0,0,0-.24-.75.83.83,0,0,0-.63-.26,1.14,1.14,0,0,0-.75.29A1.69,1.69,0,0,0,101.41,219.14Z" style="fill:#fff"/><path d="M104.57,221.38l.8-3.81H106l-.14.67a3,3,0,0,1,.71-.57,1.44,1.44,0,0,1,.68-.18,1,1,0,0,1,.73.25.9.9,0,0,1,.26.67,3.78,3.78,0,0,1-.09.66l-.48,2.31H107l.5-2.41a3,3,0,0,0,.08-.52.42.42,0,0,0-.13-.31.56.56,0,0,0-.38-.12,1.28,1.28,0,0,0-.89.36,2.28,2.28,0,0,0-.57,1.23l-.37,1.77Z" style="fill:#fff"/><path d="M110.17,220.85l-.11.53a1.86,1.86,0,0,1-.45.06.92.92,0,0,1-.62-.19.48.48,0,0,1-.17-.39,4.35,4.35,0,0,1,.09-.58l.47-2.2h-.52l.11-.51h.51l.2-.93.74-.45-.29,1.38h.63l-.1.51H110l-.44,2.1a4.32,4.32,0,0,0-.08.48.21.21,0,0,0,.07.17.29.29,0,0,0,.21.06A1.56,1.56,0,0,0,110.17,220.85Z" style="fill:#fff"/><path d="M113.48,220.08l.63.07a1.93,1.93,0,0,1-.62.89,1.75,1.75,0,0,1-1.17.42,1.54,1.54,0,0,1-.77-.19,1.24,1.24,0,0,1-.54-.57,1.93,1.93,0,0,1-.18-.85,2.75,2.75,0,0,1,.28-1.21,2.09,2.09,0,0,1,.75-.87,1.86,1.86,0,0,1,1-.28,1.44,1.44,0,0,1,1.09.42,1.6,1.6,0,0,1,.4,1.15,2.9,2.9,0,0,1,0,.58h-2.8a1.41,1.41,0,0,0,0,.2,1.17,1.17,0,0,0,.25.81.75.75,0,0,0,.6.28,1.11,1.11,0,0,0,.65-.22A1.33,1.33,0,0,0,113.48,220.08Zm-1.88-.94h2.13c0-.06,0-.11,0-.14a1.08,1.08,0,0,0-.25-.75.82.82,0,0,0-.62-.26,1.17,1.17,0,0,0-.76.29A1.69,1.69,0,0,0,111.6,219.14Z" style="fill:#fff"/><path d="M114.83,220.08l.65,0a1.13,1.13,0,0,0,.08.47.78.78,0,0,0,.32.33,1.13,1.13,0,0,0,.54.12,1,1,0,0,0,.64-.17.5.5,0,0,0,.22-.41.5.5,0,0,0-.13-.31,2,2,0,0,0-.65-.37,6.06,6.06,0,0,1-.65-.31,1.14,1.14,0,0,1-.37-.35.85.85,0,0,1-.12-.46,1,1,0,0,1,.36-.77,1.46,1.46,0,0,1,1-.32,1.6,1.6,0,0,1,1.09.33,1.15,1.15,0,0,1,.39.87l-.63,0a.71.71,0,0,0-.25-.54,1,1,0,0,0-.64-.2.84.84,0,0,0-.53.15.46.46,0,0,0-.18.34.38.38,0,0,0,.16.31,2.62,2.62,0,0,0,.55.29,3.38,3.38,0,0,1,.94.51.94.94,0,0,1,.31.72,1,1,0,0,1-.17.55,1.22,1.22,0,0,1-.53.44,2,2,0,0,1-.84.16,1.92,1.92,0,0,1-1.12-.32A1.15,1.15,0,0,1,114.83,220.08Z" style="fill:#fff"/><path d="M123,220.82a1.54,1.54,0,0,1-1.16.64,1.15,1.15,0,0,1-.9-.4,1.66,1.66,0,0,1-.36-1.16,2.78,2.78,0,0,1,.29-1.26,2.24,2.24,0,0,1,.71-.87,1.54,1.54,0,0,1,.86-.28,1.16,1.16,0,0,1,1.07.68l.43-2h.64l-1.09,5.25h-.6Zm-1.77-1a1.78,1.78,0,0,0,.08.63.84.84,0,0,0,.26.38.73.73,0,0,0,.46.15,1,1,0,0,0,.8-.46,2.33,2.33,0,0,0,.48-1.5,1,1,0,0,0-.24-.7.77.77,0,0,0-.59-.26.89.89,0,0,0-.43.11,1.2,1.2,0,0,0-.38.35,2.61,2.61,0,0,0-.44,1.3Z" style="fill:#fff"/><path d="M127.34,220.08l.63.07a1.93,1.93,0,0,1-.62.89,1.75,1.75,0,0,1-1.17.42,1.54,1.54,0,0,1-.77-.19,1.24,1.24,0,0,1-.54-.57,1.93,1.93,0,0,1-.18-.85,2.75,2.75,0,0,1,.28-1.21,2,2,0,0,1,.75-.87,1.81,1.81,0,0,1,1-.28,1.45,1.45,0,0,1,1.09.42,1.6,1.6,0,0,1,.4,1.15,2.9,2.9,0,0,1,0,.58h-2.8a1.41,1.41,0,0,0,0,.2,1.17,1.17,0,0,0,.25.81.75.75,0,0,0,.6.28,1.11,1.11,0,0,0,.65-.22A1.33,1.33,0,0,0,127.34,220.08Zm-1.88-.94h2.13c0-.06,0-.11,0-.14a1.08,1.08,0,0,0-.25-.75.82.82,0,0,0-.62-.26,1.17,1.17,0,0,0-.76.29A1.69,1.69,0,0,0,125.46,219.14Z" style="fill:#fff"/><path d="M130.76,221.38l1.1-5.25h2.2a3.13,3.13,0,0,1,1,.11.94.94,0,0,1,.53.41,1.36,1.36,0,0,1,.19.76,1.45,1.45,0,0,1-.42,1.06A2.35,2.35,0,0,1,134,219a2.14,2.14,0,0,1,.43.41,4.55,4.55,0,0,1,.53,1l.4,1h-.78l-.38-1a4.64,4.64,0,0,0-.46-.92.93.93,0,0,0-.37-.35,1.48,1.48,0,0,0-.6-.08H132l-.49,2.33Zm1.31-2.9h1c.45,0,.74,0,.88,0a1.86,1.86,0,0,0,.65-.18,1,1,0,0,0,.39-.38.88.88,0,0,0,.14-.5.72.72,0,0,0-.1-.4.57.57,0,0,0-.27-.24,2,2,0,0,0-.58-.06h-1.71Z" style="fill:#fff"/><path d="M138.06,220.08l.64,0a1.13,1.13,0,0,0,.09.47.72.72,0,0,0,.32.33,1.12,1.12,0,0,0,.53.12,1.05,1.05,0,0,0,.65-.17.52.52,0,0,0,.21-.41.48.48,0,0,0-.12-.31,2,2,0,0,0-.65-.37c-.34-.15-.56-.25-.66-.31a1.1,1.1,0,0,1-.36-.35.85.85,0,0,1-.12-.46,1,1,0,0,1,.36-.77,1.46,1.46,0,0,1,1-.32,1.6,1.6,0,0,1,1.09.33,1.15,1.15,0,0,1,.39.87l-.64,0a.74.74,0,0,0-.24-.54,1,1,0,0,0-.65-.2.81.81,0,0,0-.52.15.48.48,0,0,0-.19.34.41.41,0,0,0,.16.31,3.16,3.16,0,0,0,.56.29,3.38,3.38,0,0,1,.94.51,1,1,0,0,1,.13,1.27,1.12,1.12,0,0,1-.53.44,2.19,2.19,0,0,1-2-.16A1.16,1.16,0,0,1,138.06,220.08Z" style="fill:#fff"/><path d="M141.78,219.93a2.64,2.64,0,0,1,.65-1.84,1.81,1.81,0,0,1,1.42-.6,1.47,1.47,0,0,1,1.11.43,1.57,1.57,0,0,1,.42,1.16,2.82,2.82,0,0,1-.27,1.22,2,2,0,0,1-.75.86,2,2,0,0,1-1,.3,1.67,1.67,0,0,1-.81-.19,1.23,1.23,0,0,1-.55-.53A1.64,1.64,0,0,1,141.78,219.93Zm.64-.06a1.14,1.14,0,0,0,.26.81.84.84,0,0,0,.66.28,1.19,1.19,0,0,0,.41-.08,1.29,1.29,0,0,0,.38-.26,2,2,0,0,0,.3-.39,3.45,3.45,0,0,0,.2-.48,2.35,2.35,0,0,0,.11-.68,1.17,1.17,0,0,0-.26-.8.85.85,0,0,0-.66-.28,1.15,1.15,0,0,0-.55.14,1.41,1.41,0,0,0-.45.43,1.69,1.69,0,0,0-.3.65A2.94,2.94,0,0,0,142.42,219.87Z" style="fill:#fff"/><path d="M145.74,221.38l.79-3.81h.59l-.14.67a3.29,3.29,0,0,1,.72-.57,1.41,1.41,0,0,1,.68-.18,1,1,0,0,1,.72.25.87.87,0,0,1,.27.67,4.06,4.06,0,0,1-.1.66l-.48,2.31h-.65l.51-2.41a2.75,2.75,0,0,0,.07-.52.39.39,0,0,0-.13-.31.54.54,0,0,0-.38-.12,1.26,1.26,0,0,0-.88.36,2.28,2.28,0,0,0-.57,1.23l-.37,1.77Z" style="fill:#fff"/><path d="M151.8,221.38l1.1-5.25h.65l-1.1,5.25Z" style="fill:#fff"/><path d="M156.05,220.9a2.69,2.69,0,0,1-.65.43,1.67,1.67,0,0,1-.67.13,1.17,1.17,0,0,1-.85-.31,1.05,1.05,0,0,1-.32-.79,1.15,1.15,0,0,1,.53-1,1.64,1.64,0,0,1,.59-.21,6.68,6.68,0,0,1,.83-.07,3,3,0,0,0,.87-.13,1.65,1.65,0,0,0,.08-.44.41.41,0,0,0-.17-.35,1,1,0,0,0-.66-.18,1.12,1.12,0,0,0-.66.18,1,1,0,0,0-.38.51l-.66-.05a1.75,1.75,0,0,1,.64-.87,1.88,1.88,0,0,1,1.1-.3,1.71,1.71,0,0,1,1.11.33.81.81,0,0,1,.32.66,3.27,3.27,0,0,1-.09.7l-.21.95a3.29,3.29,0,0,0-.1.73,2.11,2.11,0,0,0,.08.52h-.66A2.74,2.74,0,0,1,156.05,220.9Zm.24-1.45a1.47,1.47,0,0,1-.3.08l-.52.06a4.85,4.85,0,0,0-.8.13.65.65,0,0,0-.35.25.6.6,0,0,0-.11.37.61.61,0,0,0,.18.45.81.81,0,0,0,.54.17,1.29,1.29,0,0,0,.62-.17,1.25,1.25,0,0,0,.47-.47A3.2,3.2,0,0,0,156.29,219.45Z" style="fill:#fff"/><path d="M157.62,220.08l.65,0a1.32,1.32,0,0,0,.08.47.78.78,0,0,0,.32.33,1.19,1.19,0,0,0,.54.12,1,1,0,0,0,.64-.17.5.5,0,0,0,.22-.41.45.45,0,0,0-.13-.31,1.89,1.89,0,0,0-.65-.37,6.06,6.06,0,0,1-.65-.31,1.1,1.1,0,0,1-.36-.35.78.78,0,0,1-.13-.46,1,1,0,0,1,.36-.77,1.49,1.49,0,0,1,1-.32,1.57,1.57,0,0,1,1.08.33,1.15,1.15,0,0,1,.39.87l-.63,0a.74.74,0,0,0-.24-.54,1,1,0,0,0-.65-.2.79.79,0,0,0-.52.15.45.45,0,0,0-.19.34.38.38,0,0,0,.16.31,2.81,2.81,0,0,0,.56.29,3.44,3.44,0,0,1,.93.51.94.94,0,0,1,.31.72,1,1,0,0,1-.17.55,1.17,1.17,0,0,1-.53.44,2,2,0,0,1-.84.16,1.94,1.94,0,0,1-1.12-.32A1.15,1.15,0,0,1,157.62,220.08Z" style="fill:#fff"/><path d="M163.32,220.08l.65,0a1.13,1.13,0,0,0,.09.47.72.72,0,0,0,.32.33,1.12,1.12,0,0,0,.53.12,1.05,1.05,0,0,0,.65-.17.52.52,0,0,0,.21-.41.45.45,0,0,0-.13-.31,1.81,1.81,0,0,0-.64-.37c-.34-.15-.56-.25-.66-.31A1.1,1.1,0,0,1,164,219a.85.85,0,0,1-.12-.46,1,1,0,0,1,.36-.77,1.45,1.45,0,0,1,1-.32,1.6,1.6,0,0,1,1.09.33,1.15,1.15,0,0,1,.39.87l-.64,0a.74.74,0,0,0-.24-.54,1,1,0,0,0-.65-.2.81.81,0,0,0-.52.15.45.45,0,0,0-.19.34.41.41,0,0,0,.16.31,3.16,3.16,0,0,0,.56.29,3.38,3.38,0,0,1,.94.51,1,1,0,0,1,.13,1.27,1.12,1.12,0,0,1-.53.44,2,2,0,0,1-.84.16,1.94,1.94,0,0,1-1.12-.32A1.17,1.17,0,0,1,163.32,220.08Z" style="fill:#fff"/><path d="M169.52,220.69a1.91,1.91,0,0,1-1.39.77,1,1,0,0,1-.72-.25.81.81,0,0,1-.27-.62,5.1,5.1,0,0,1,.13-.82l.45-2.2h.65l-.51,2.44a2.59,2.59,0,0,0-.06.47.42.42,0,0,0,.13.33.54.54,0,0,0,.38.12,1.16,1.16,0,0,0,.54-.13,1.39,1.39,0,0,0,.44-.36,1.85,1.85,0,0,0,.31-.53,5.21,5.21,0,0,0,.18-.69l.35-1.65h.64l-.79,3.81h-.6Z" style="fill:#fff"/><path d="M171,221.38l.8-3.81h.65l-.14.63a2.7,2.7,0,0,1,.65-.56,1.32,1.32,0,0,1,.62-.15.91.91,0,0,1,.59.19.86.86,0,0,1,.31.52,2.09,2.09,0,0,1,.61-.53,1.38,1.38,0,0,1,.68-.18,1,1,0,0,1,.71.22.84.84,0,0,1,.24.64,4,4,0,0,1-.08.58l-.51,2.45h-.65l.52-2.52a2,2,0,0,0,.07-.44.37.37,0,0,0-.12-.29.49.49,0,0,0-.33-.11,1.15,1.15,0,0,0-.59.18,1.22,1.22,0,0,0-.47.46,3,3,0,0,0-.29.87l-.39,1.85h-.65l.54-2.57a2,2,0,0,0,.06-.37.38.38,0,0,0-.12-.3.39.39,0,0,0-.3-.12,1.15,1.15,0,0,0-.58.18,1.35,1.35,0,0,0-.49.49,2.67,2.67,0,0,0-.31.89l-.38,1.8Z" style="fill:#fff"/><path d="M179.68,220.9a2.51,2.51,0,0,1-.65.43,1.67,1.67,0,0,1-.67.13,1.13,1.13,0,0,1-.84-.31,1,1,0,0,1-.33-.79,1,1,0,0,1,.15-.56,1.12,1.12,0,0,1,.38-.4,1.64,1.64,0,0,1,.59-.21,6.88,6.88,0,0,1,.83-.07A3.08,3.08,0,0,0,180,219a2.08,2.08,0,0,0,.07-.44.41.41,0,0,0-.16-.35,1.06,1.06,0,0,0-.66-.18,1.13,1.13,0,0,0-.67.18,1,1,0,0,0-.38.51l-.65-.05a1.68,1.68,0,0,1,.63-.87,1.9,1.9,0,0,1,1.1-.3,1.76,1.76,0,0,1,1.12.33.81.81,0,0,1,.31.66,3.27,3.27,0,0,1-.09.7l-.21.95a3.29,3.29,0,0,0-.1.73,2.75,2.75,0,0,0,.08.52h-.66A2.74,2.74,0,0,1,179.68,220.9Zm.24-1.45a1.38,1.38,0,0,1-.29.08l-.52.06a4.49,4.49,0,0,0-.8.13.58.58,0,0,0-.35.25.61.61,0,0,0-.12.37.58.58,0,0,0,.19.45.77.77,0,0,0,.53.17,1.26,1.26,0,0,0,.62-.17,1.18,1.18,0,0,0,.47-.47A3.2,3.2,0,0,0,179.92,219.45Z" style="fill:#fff"/><path d="M181.25,220.08l.65,0a1.13,1.13,0,0,0,.09.47.72.72,0,0,0,.32.33,1.12,1.12,0,0,0,.53.12,1.05,1.05,0,0,0,.65-.17.52.52,0,0,0,.21-.41.45.45,0,0,0-.13-.31,1.81,1.81,0,0,0-.64-.37c-.34-.15-.56-.25-.66-.31a1.1,1.1,0,0,1-.36-.35.85.85,0,0,1-.12-.46,1,1,0,0,1,.35-.77,1.49,1.49,0,0,1,1-.32,1.6,1.6,0,0,1,1.09.33,1.15,1.15,0,0,1,.39.87l-.64,0a.74.74,0,0,0-.24-.54,1,1,0,0,0-.65-.2.81.81,0,0,0-.52.15.45.45,0,0,0-.19.34.41.41,0,0,0,.16.31,3.16,3.16,0,0,0,.56.29,3.55,3.55,0,0,1,.94.51,1,1,0,0,1,.13,1.27,1.17,1.17,0,0,1-.53.44,2,2,0,0,1-.84.16,1.94,1.94,0,0,1-1.12-.32A1.17,1.17,0,0,1,181.25,220.08Z" style="fill:#fff"/><path d="M63.12,232.23a1.59,1.59,0,0,1-1.16.64,1.18,1.18,0,0,1-.9-.4,1.68,1.68,0,0,1-.36-1.16A2.82,2.82,0,0,1,61,230a2.21,2.21,0,0,1,.71-.86,1.58,1.58,0,0,1,.86-.29,1.15,1.15,0,0,1,1.07.69l.43-2.05h.65l-1.1,5.25H63Zm-1.78-1a2,2,0,0,0,.08.62.81.81,0,0,0,.27.39.7.7,0,0,0,.45.15,1,1,0,0,0,.8-.46,2.36,2.36,0,0,0,.48-1.5,1,1,0,0,0-.23-.71.79.79,0,0,0-.6-.25.84.84,0,0,0-.42.1,1.23,1.23,0,0,0-.38.35,2.25,2.25,0,0,0-.32.64A2,2,0,0,0,61.34,231.19Z" style="fill:#fff"/><path d="M67.42,231.49l.63.06a1.88,1.88,0,0,1-.62.9,1.73,1.73,0,0,1-1.17.42,1.55,1.55,0,0,1-.77-.2,1.24,1.24,0,0,1-.54-.57,1.89,1.89,0,0,1-.18-.84,2.6,2.6,0,0,1,.29-1.21,2.07,2.07,0,0,1,.74-.87,1.87,1.87,0,0,1,1-.29,1.41,1.41,0,0,1,1.09.43,1.58,1.58,0,0,1,.41,1.15,3.77,3.77,0,0,1-.05.57h-2.8a1.68,1.68,0,0,0,0,.2,1.18,1.18,0,0,0,.25.82.78.78,0,0,0,.6.28,1.18,1.18,0,0,0,.65-.22A1.37,1.37,0,0,0,67.42,231.49Zm-1.88-.94h2.13a1,1,0,0,0,0-.15,1,1,0,0,0-.24-.74.82.82,0,0,0-.63-.26,1.15,1.15,0,0,0-.76.28A1.73,1.73,0,0,0,65.54,230.55Z" style="fill:#fff"/><path d="M70.7,232.78l1.09-5.25h.65l-1.1,5.25Z" style="fill:#fff"/><path d="M74.94,232.31a2.73,2.73,0,0,1-.65.42,1.67,1.67,0,0,1-.67.14,1.17,1.17,0,0,1-.84-.31,1.13,1.13,0,0,1-.18-1.36,1.09,1.09,0,0,1,.38-.39,1.86,1.86,0,0,1,.59-.22,7.61,7.61,0,0,1,.83-.06,2.94,2.94,0,0,0,.87-.13,1.79,1.79,0,0,0,.08-.44.44.44,0,0,0-.16-.36,1.08,1.08,0,0,0-.66-.18,1.13,1.13,0,0,0-.67.18,1.07,1.07,0,0,0-.38.52l-.65-.06a1.68,1.68,0,0,1,.63-.87,1.9,1.9,0,0,1,1.1-.3,1.76,1.76,0,0,1,1.12.34.79.79,0,0,1,.31.65,3.35,3.35,0,0,1-.09.71l-.21.94a3.36,3.36,0,0,0-.1.74,2.56,2.56,0,0,0,.08.51H75A2.48,2.48,0,0,1,74.94,232.31Zm.24-1.45-.29.08-.52.06a3.17,3.17,0,0,0-.8.13.61.61,0,0,0-.35.24.63.63,0,0,0-.12.37.58.58,0,0,0,.19.45.72.72,0,0,0,.53.18,1.26,1.26,0,0,0,.62-.17,1.27,1.27,0,0,0,.47-.48A3,3,0,0,0,75.18,230.86Z" style="fill:#fff"/><path d="M76.51,231.48l.65,0a1.14,1.14,0,0,0,.09.48.68.68,0,0,0,.31.32,1.2,1.2,0,0,0,.54.13,1,1,0,0,0,.65-.18.49.49,0,0,0,.21-.4.47.47,0,0,0-.13-.32,2,2,0,0,0-.64-.37c-.34-.15-.56-.25-.66-.31a1.08,1.08,0,0,1-.36-.34.9.9,0,0,1-.12-.46,1,1,0,0,1,.35-.77,1.45,1.45,0,0,1,1-.33,1.6,1.6,0,0,1,1.09.33,1.19,1.19,0,0,1,.39.88l-.64,0a.76.76,0,0,0-.24-.55,1,1,0,0,0-.65-.2.81.81,0,0,0-.52.16.41.41,0,0,0-.19.33.43.43,0,0,0,.16.32,3.39,3.39,0,0,0,.56.28,4.27,4.27,0,0,1,.94.51,1,1,0,0,1,.13,1.28,1.15,1.15,0,0,1-.53.43,2,2,0,0,1-.84.17,1.88,1.88,0,0,1-1.12-.33A1.17,1.17,0,0,1,76.51,231.48Z" style="fill:#fff"/><path d="M84.78,231.4l.65.06a2.21,2.21,0,0,1-.69,1.06,1.64,1.64,0,0,1-1,.35,1.36,1.36,0,0,1-1-.4,1.54,1.54,0,0,1-.39-1.12,3.3,3.3,0,0,1,.25-1.23,2,2,0,0,1,.71-.91,1.83,1.83,0,0,1,1-.32,1.34,1.34,0,0,1,1,.35,1.2,1.2,0,0,1,.36.91l-.64,0a.77.77,0,0,0-.21-.57.72.72,0,0,0-.54-.2,1,1,0,0,0-.68.24,1.71,1.71,0,0,0-.45.75,3.12,3.12,0,0,0-.16,1,1.08,1.08,0,0,0,.21.73.7.7,0,0,0,.53.25.94.94,0,0,0,.61-.24A1.63,1.63,0,0,0,84.78,231.4Z" style="fill:#fff"/><path d="M85.94,231.34a2.66,2.66,0,0,1,.65-1.85,1.81,1.81,0,0,1,1.42-.6,1.51,1.51,0,0,1,1.11.43,1.6,1.6,0,0,1,.42,1.16,2.76,2.76,0,0,1-.27,1.22,1.89,1.89,0,0,1-.75.87,2,2,0,0,1-1,.3,1.82,1.82,0,0,1-.81-.19,1.36,1.36,0,0,1-.55-.54A1.6,1.6,0,0,1,85.94,231.34Zm.64-.07a1.19,1.19,0,0,0,.26.82.87.87,0,0,0,.66.28,1,1,0,0,0,.41-.09,1.14,1.14,0,0,0,.38-.25,1.68,1.68,0,0,0,.3-.4,2.22,2.22,0,0,0,.2-.47,2.41,2.41,0,0,0,.11-.68,1.17,1.17,0,0,0-.26-.8.86.86,0,0,0-.66-.29,1.06,1.06,0,0,0-.55.15A1.49,1.49,0,0,0,87,230a1.84,1.84,0,0,0-.3.65A2.94,2.94,0,0,0,86.58,231.27Z" style="fill:#fff"/><path d="M89.9,232.78l.79-3.8h.65l-.13.63a2.51,2.51,0,0,1,.64-.56,1.33,1.33,0,0,1,.62-.16,1,1,0,0,1,.59.19.9.9,0,0,1,.32.53,2,2,0,0,1,.61-.54,1.35,1.35,0,0,1,.67-.18,1,1,0,0,1,.72.23.85.85,0,0,1,.23.63,2.82,2.82,0,0,1-.08.58L95,232.78h-.65l.52-2.51a2.08,2.08,0,0,0,.07-.44.39.39,0,0,0-.12-.3.47.47,0,0,0-.33-.1,1.24,1.24,0,0,0-.59.17,1.3,1.3,0,0,0-.47.46,3.31,3.31,0,0,0-.29.88l-.39,1.84h-.64l.53-2.57a1.8,1.8,0,0,0,.06-.37.39.39,0,0,0-.42-.41,1.27,1.27,0,0,0-.58.17,1.44,1.44,0,0,0-.49.49,2.85,2.85,0,0,0-.31.89l-.38,1.8Z" style="fill:#fff"/><path d="M95.69,234.24l1.1-5.26h.6l-.12.53a2.71,2.71,0,0,1,.6-.48,1.22,1.22,0,0,1,.56-.14,1.18,1.18,0,0,1,.9.4,1.61,1.61,0,0,1,.36,1.13,2.94,2.94,0,0,1-.2,1.09,2.47,2.47,0,0,1-.48.78,2.22,2.22,0,0,1-.58.44,1.46,1.46,0,0,1-.6.14,1.15,1.15,0,0,1-1.06-.7l-.43,2.07Zm1.28-3a2,2,0,0,0,.06.59.82.82,0,0,0,.29.37.81.81,0,0,0,.48.15,1,1,0,0,0,.9-.63,2.64,2.64,0,0,0,.34-1.28,1.05,1.05,0,0,0-.23-.75.7.7,0,0,0-.57-.26.82.82,0,0,0-.46.13,1.2,1.2,0,0,0-.39.39,2.31,2.31,0,0,0-.3.63A2.2,2.2,0,0,0,97,231.23Z" style="fill:#fff"/><path d="M100.2,231.34a2.71,2.71,0,0,1,.65-1.85,1.84,1.84,0,0,1,1.42-.6,1.51,1.51,0,0,1,1.11.43,1.6,1.6,0,0,1,.42,1.16,2.9,2.9,0,0,1-.26,1.22,2,2,0,0,1-.76.87,1.93,1.93,0,0,1-1,.3,1.78,1.78,0,0,1-.8-.19,1.33,1.33,0,0,1-.56-.54A1.6,1.6,0,0,1,100.2,231.34Zm.65-.07a1.18,1.18,0,0,0,.25.82.91.91,0,0,0,.66.28,1,1,0,0,0,.41-.09,1.14,1.14,0,0,0,.38-.25,1.68,1.68,0,0,0,.3-.4,2.22,2.22,0,0,0,.2-.47,2.41,2.41,0,0,0,.11-.68,1.17,1.17,0,0,0-.26-.8.84.84,0,0,0-.65-.29,1.07,1.07,0,0,0-.56.15,1.49,1.49,0,0,0-.45.42,2,2,0,0,0-.3.65A2.87,2.87,0,0,0,100.85,231.27Z" style="fill:#fff"/><path d="M104.16,232.78l.8-3.8h.58l-.14.66a3.29,3.29,0,0,1,.72-.57,1.41,1.41,0,0,1,.68-.18,1.06,1.06,0,0,1,.73.25.9.9,0,0,1,.26.67,3.86,3.86,0,0,1-.09.67l-.49,2.3h-.65l.51-2.41a2.57,2.57,0,0,0,.07-.52.37.37,0,0,0-.13-.3.51.51,0,0,0-.37-.12,1.32,1.32,0,0,0-.89.35,2.28,2.28,0,0,0-.57,1.23l-.37,1.77Z" style="fill:#fff"/><path d="M111,231.49l.63.06a2,2,0,0,1-.62.9,1.75,1.75,0,0,1-1.17.42,1.55,1.55,0,0,1-.77-.2,1.24,1.24,0,0,1-.54-.57,1.89,1.89,0,0,1-.18-.84,2.6,2.6,0,0,1,.29-1.21,2.07,2.07,0,0,1,.74-.87,1.87,1.87,0,0,1,1-.29,1.41,1.41,0,0,1,1.09.43,1.58,1.58,0,0,1,.41,1.15,3.77,3.77,0,0,1-.05.57h-2.8a1.68,1.68,0,0,0,0,.2,1.18,1.18,0,0,0,.25.82.78.78,0,0,0,.6.28,1.18,1.18,0,0,0,.65-.22A1.44,1.44,0,0,0,111,231.49Zm-1.88-.94h2.13a1,1,0,0,0,0-.15,1,1,0,0,0-.25-.74.79.79,0,0,0-.62-.26,1.15,1.15,0,0,0-.76.28A1.73,1.73,0,0,0,109.15,230.55Z" style="fill:#fff"/><path d="M112.32,232.78l.79-3.8h.59l-.14.66a3.08,3.08,0,0,1,.72-.57,1.41,1.41,0,0,1,.68-.18,1,1,0,0,1,.72.25.87.87,0,0,1,.26.67,3.86,3.86,0,0,1-.09.67l-.48,2.3h-.65l.51-2.41a3.58,3.58,0,0,0,.07-.52.37.37,0,0,0-.13-.3.54.54,0,0,0-.38-.12,1.27,1.27,0,0,0-.88.35,2.35,2.35,0,0,0-.58,1.23l-.36,1.77Z" style="fill:#fff"/><path d="M117.91,232.26l-.11.52a1.41,1.41,0,0,1-.45.07,1,1,0,0,1-.61-.19.48.48,0,0,1-.18-.39,4.55,4.55,0,0,1,.1-.58l.46-2.21h-.51l.1-.5h.51l.2-.93.74-.45-.29,1.38h.64l-.11.5h-.63l-.44,2.1a3.79,3.79,0,0,0-.09.48.25.25,0,0,0,.07.18.32.32,0,0,0,.22.06A2.11,2.11,0,0,0,117.91,232.26Z" style="fill:#fff"/><path d="M121.23,231.49l.63.06a1.91,1.91,0,0,1-.63.9,1.71,1.71,0,0,1-1.16.42,1.59,1.59,0,0,1-.78-.2,1.35,1.35,0,0,1-.54-.57,1.89,1.89,0,0,1-.18-.84,2.73,2.73,0,0,1,.29-1.21,2.07,2.07,0,0,1,.74-.87,1.88,1.88,0,0,1,1-.29,1.4,1.4,0,0,1,1.08.43,1.58,1.58,0,0,1,.41,1.15,3.77,3.77,0,0,1,0,.57h-2.8a1.68,1.68,0,0,0,0,.2,1.24,1.24,0,0,0,.25.82.78.78,0,0,0,.6.28,1.24,1.24,0,0,0,.66-.22A1.51,1.51,0,0,0,121.23,231.49Zm-1.89-.94h2.14v-.15a1,1,0,0,0-.24-.74.81.81,0,0,0-.63-.26,1.15,1.15,0,0,0-.76.28A1.73,1.73,0,0,0,119.34,230.55Z" style="fill:#fff"/><path d="M122.57,231.48l.65,0a1.14,1.14,0,0,0,.09.48.64.64,0,0,0,.31.32,1.2,1.2,0,0,0,.54.13,1,1,0,0,0,.65-.18.49.49,0,0,0,.21-.4.47.47,0,0,0-.13-.32,2.11,2.11,0,0,0-.64-.37,5.62,5.62,0,0,1-.66-.31,1.08,1.08,0,0,1-.36-.34.9.9,0,0,1-.12-.46,1,1,0,0,1,.35-.77,1.45,1.45,0,0,1,1-.33,1.61,1.61,0,0,1,1.09.33,1.14,1.14,0,0,1,.38.88l-.63,0a.76.76,0,0,0-.24-.55,1,1,0,0,0-.65-.2.81.81,0,0,0-.52.16.41.41,0,0,0-.19.33.4.4,0,0,0,.16.32,3,3,0,0,0,.56.28,3.89,3.89,0,0,1,.93.51,1,1,0,0,1,.31.72,1.07,1.07,0,0,1-.17.56,1.15,1.15,0,0,1-.53.43,2,2,0,0,1-.84.17,1.88,1.88,0,0,1-1.12-.33A1.17,1.17,0,0,1,122.57,231.48Z" style="fill:#fff"/><path d="M130.78,232.23a1.59,1.59,0,0,1-1.16.64,1.18,1.18,0,0,1-.9-.4,1.68,1.68,0,0,1-.36-1.16,2.82,2.82,0,0,1,.28-1.27,2.21,2.21,0,0,1,.71-.86,1.58,1.58,0,0,1,.86-.29,1.14,1.14,0,0,1,1.07.69l.43-2.05h.65l-1.1,5.25h-.6Zm-1.78-1a2,2,0,0,0,.08.62.81.81,0,0,0,.27.39.72.72,0,0,0,.45.15,1,1,0,0,0,.8-.46,2.36,2.36,0,0,0,.48-1.5,1,1,0,0,0-.23-.71.79.79,0,0,0-.6-.25.87.87,0,0,0-.42.1,1.23,1.23,0,0,0-.38.35,2.58,2.58,0,0,0-.45,1.31Z" style="fill:#fff"/><path d="M135.08,231.49l.63.06a1.88,1.88,0,0,1-.62.9,1.73,1.73,0,0,1-1.17.42,1.55,1.55,0,0,1-.77-.2,1.24,1.24,0,0,1-.54-.57,1.89,1.89,0,0,1-.18-.84,2.6,2.6,0,0,1,.29-1.21,2.07,2.07,0,0,1,.74-.87,1.87,1.87,0,0,1,1-.29,1.41,1.41,0,0,1,1.09.43,1.58,1.58,0,0,1,.41,1.15,3.77,3.77,0,0,1,0,.57h-2.8a1.68,1.68,0,0,0,0,.2,1.18,1.18,0,0,0,.25.82.78.78,0,0,0,.6.28,1.18,1.18,0,0,0,.65-.22A1.37,1.37,0,0,0,135.08,231.49Zm-1.88-.94h2.13a1,1,0,0,0,0-.15,1,1,0,0,0-.24-.74.82.82,0,0,0-.63-.26,1.15,1.15,0,0,0-.76.28A1.73,1.73,0,0,0,133.2,230.55Z" style="fill:#fff"/><path d="M137.74,232.78l3-5.25h.83l.86,5.25h-.68l-.25-1.51h-2.13l-.84,1.51Zm1.92-2.05h1.73l-.2-1.32c-.08-.52-.13-1-.15-1.3a10.06,10.06,0,0,1-.52,1.07Z" style="fill:#fff"/><path d="M144.55,234.25l0-.61a1.32,1.32,0,0,0,.39.06.5.5,0,0,0,.31-.09,1.52,1.52,0,0,0,.35-.45l.21-.37-.64-3.81h.64l.29,1.92c.05.38.1.76.14,1.14L148,229h.68l-2.42,4.31a2.9,2.9,0,0,1-.63.83,1,1,0,0,1-.62.2A1.31,1.31,0,0,1,144.55,234.25Z" style="fill:#fff"/><path d="M150.57,232.78l1.1-5.25h1.62a4.76,4.76,0,0,1,.66,0,1.58,1.58,0,0,1,.59.21,1,1,0,0,1,.38.42,1.24,1.24,0,0,1,.13.58,1.25,1.25,0,0,1-.24.76,1.43,1.43,0,0,1-.73.5,1.33,1.33,0,0,1,.64.42,1.08,1.08,0,0,1,.21.66,1.49,1.49,0,0,1-.25.83,1.55,1.55,0,0,1-.66.61,1.83,1.83,0,0,1-.91.22Zm.82-.59h1.2a3,3,0,0,0,.64,0,1.32,1.32,0,0,0,.54-.19,1,1,0,0,0,.33-.36,1,1,0,0,0,.12-.48.71.71,0,0,0-.23-.56,1.52,1.52,0,0,0-.88-.19h-1.34Zm.51-2.42H153a1.93,1.93,0,0,0,1.1-.24.83.83,0,0,0,.33-.71.67.67,0,0,0-.1-.38.6.6,0,0,0-.28-.24,2.18,2.18,0,0,0-.65-.07h-1.12Z" style="fill:#fff"/><path d="M155.56,232.78l.15-.73h.74l-.16.73Zm.64-3.07.15-.73h.73l-.15.73Z" style="fill:#fff"/><line x1="137.43" y1="45.37" x2="141.41" y2="45.37" style="fill:none;stroke:#006098;stroke-miterlimit:10;stroke-width:0.75px"/><polygon points="144.93 45.37 139.97 47.4 141.15 45.37 139.97 43.34 144.93 45.37" style="fill:#006098"/><path d="M160.42,86.47l2.15-10.24h3.17a9.55,9.55,0,0,1,1.28.07,3.18,3.18,0,0,1,1.16.42,2,2,0,0,1,.73.81,2.5,2.5,0,0,1,.26,1.13,2.47,2.47,0,0,1-.47,1.49,2.81,2.81,0,0,1-1.42,1,2.36,2.36,0,0,1,1.24.82,2,2,0,0,1,.42,1.28,3,3,0,0,1-.49,1.62,3.28,3.28,0,0,1-1.28,1.2,3.81,3.81,0,0,1-1.79.42ZM162,85.31h2.33a8.34,8.34,0,0,0,1.25-.06,2.65,2.65,0,0,0,1-.38,1.9,1.9,0,0,0,.64-.71,2,2,0,0,0,.23-.92,1.32,1.32,0,0,0-.45-1.09,2.8,2.8,0,0,0-1.72-.38h-2.59Zm1-4.7h2.08a3.7,3.7,0,0,0,2.14-.48,1.62,1.62,0,0,0,.65-1.38,1.4,1.4,0,0,0-.2-.75,1.23,1.23,0,0,0-.55-.46,3.9,3.9,0,0,0-1.27-.14h-2.18Z" style="fill:#006098"/><line x1="162.93" y1="73.12" x2="166.91" y2="73.12" style="fill:none;stroke:#006098;stroke-miterlimit:10;stroke-width:0.75px"/><polygon points="170.43 73.12 165.47 75.15 166.65 73.12 165.47 71.09 170.43 73.12" style="fill:#006098"/><path d="M122.51,129.72l5.81-10.24h1.61l1.69,10.24H130.3l-.5-3h-4.14l-1.64,3Zm3.73-4h3.39l-.4-2.57c-.15-1-.25-1.87-.28-2.55a21.49,21.49,0,0,1-1,2.09Z" style="fill:#006098"/><line x1="125.93" y1="116.37" x2="129.91" y2="116.37" style="fill:none;stroke:#006098;stroke-miterlimit:10;stroke-width:0.75px"/><polygon points="133.43 116.37 128.47 118.4 129.65 116.37 128.47 114.34 133.43 116.37" style="fill:#006098"/><polygon points="137.49 213.11 133.44 214.76 134.4 213.11 133.44 211.46 137.49 213.11" style="fill:#fff"/><polygon points="144.42 225.25 140.38 226.91 141.34 225.25 140.38 223.6 144.42 225.25" style="fill:#fff"/><polygon points="156.56 225.25 152.52 226.91 153.48 225.25 152.52 223.6 156.56 225.25" style="fill:#fff"/><line x1="109.17" y1="4.78" x2="112.54" y2="4.78" style="fill:none;stroke:#006098;stroke-miterlimit:10;stroke-width:0.75px"/><polygon points="115.53 4.78 111.32 6.5 112.32 4.78 111.32 3.06 115.53 4.78" style="fill:#006098"/><line x1="159.05" y1="18.22" x2="162.42" y2="18.22" style="fill:none;stroke:#006098;stroke-miterlimit:10;stroke-width:0.75px"/><polygon points="165.4 18.22 161.2 19.93 162.2 18.22 161.2 16.5 165.4 18.22" style="fill:#006098"/><line x1="171.91" y1="18.22" x2="175.29" y2="18.22" style="fill:none;stroke:#006098;stroke-miterlimit:10;stroke-width:0.75px"/><polygon points="178.27 18.22 174.07 19.93 175.06 18.22 174.07 16.5 178.27 18.22" style="fill:#006098"/><line x1="71.27" y1="98.87" x2="71.27" y2="46.05" style="fill:none;stroke:#b07c29;stroke-miterlimit:10"/><path d="M71.27,47.85,67.66,50l-.08-.12L69.92,44l1.35-6.14L72.62,44,75,49.92l-.06.12Z" style="fill:#b07c29"/><line x1="148.19" y1="135.42" x2="167.87" y2="135.42" style="fill:none;stroke:#b07c29;stroke-miterlimit:10"/><path d="M166.08,135.42l-2.19-3.6.12-.08,5.87,2.33,6.14,1.35-6.14,1.35L164,139.11l-.12-.06Z" style="fill:#b07c29"/><line x1="146.89" y1="99.69" x2="171.47" y2="45.43" style="fill:none;stroke:#b07c29;stroke-miterlimit:10"/><path d="M170.73,47.07l-4.19.51,0-.15L171.07,43l3.76-5q-.65,3.08-1.3,6.15l-.3,6.31-.1.09Z" style="fill:#b07c29"/><line x1="71.83" y1="136.41" x2="71.83" y2="110.12" style="fill:none;stroke:#a16c26;stroke-miterlimit:10"/><path d="M71.83,111.92l-3.6,2.19-.08-.12,2.33-5.88L71.83,102l1.35,6.14L75.52,114l-.07.12Z" style="fill:#a16c26"/><line x1="71.53" y1="136.2" x2="138.96" y2="136.2" style="fill:none;stroke:#a16c26;stroke-miterlimit:10"/><path d="M137.17,136.2l-2.2-3.6.13-.08,5.87,2.33,6.14,1.35L141,137.56l-5.87,2.33-.13-.06Z" style="fill:#a16c26"/><line x1="72.21" y1="135.89" x2="139.53" y2="103.54" style="fill:none;stroke:#a16c26;stroke-miterlimit:10"/><path d="M137.91,104.32l-3.54-2.3.08-.12,6.31-.45,6.12-1.44-4.95,3.88-4.29,4.65h-.14Z" style="fill:#a16c26"/><line x1="71.88" y1="136.17" x2="169.13" y2="43.72" style="fill:none;stroke:#5ba8dc;stroke-miterlimit:10"/><path d="M167.83,45l-4.07-1.1,0-.15,5.87-2.35L175,38.1l-3.52,5.21-2.65,5.74-.13,0Z" style="fill:#5ba8dc"/><polyline points="71.04 37.06 176.1 37.06 176.1 134.42" style="fill:none;stroke:#000;stroke-linecap:round;stroke-miterlimit:10;stroke-dasharray:5,3"/><polyline points="72.56 98.95 146.63 98.95 146.63 131.92" style="fill:none;stroke:#000;stroke-linecap:round;stroke-miterlimit:10;stroke-dasharray:5,3"/><line x1="178.58" y1="135.23" x2="195.58" y2="135.23" style="fill:none;stroke:#000;stroke-linecap:round;stroke-miterlimit:10"/><line x1="71.42" y1="17.73" x2="71.42" y2="33.57" style="fill:none;stroke:#000;stroke-linecap:round;stroke-miterlimit:10"/><path d="M48.35,119.85l5.33-9.41h1.48l1.56,9.41H55.5L55,117.14h-3.8l-1.51,2.71Zm3.43-3.68h3.11l-.37-2.36c-.14-.93-.23-1.71-.26-2.34a16.49,16.49,0,0,1-.94,1.92Z" style="fill:#006098"/><path d="M62.25,116.09l-2.69,4.61-.36,1.76h-.78l.36-1.76-.8-4.61h.76L59.3,120l2.12-3.89Z" style="fill:#006098"/><path d="M56.74,250.21l1.44-6.85h2.87a4.6,4.6,0,0,1,1.29.14A1.27,1.27,0,0,1,63,244a2,2,0,0,1-.3,2.37,3,3,0,0,1-1.77.72,2.49,2.49,0,0,1,.57.54,5.7,5.7,0,0,1,.69,1.25l.52,1.29h-1l-.49-1.28a5.75,5.75,0,0,0-.61-1.19,1.13,1.13,0,0,0-.47-.46,2,2,0,0,0-.79-.11H58.29l-.63,3Zm1.71-3.79h1.26c.59,0,1,0,1.15,0a2.2,2.2,0,0,0,.85-.23,1.34,1.34,0,0,0,.51-.49,1.32,1.32,0,0,0,.18-.67,1,1,0,0,0-.13-.52.66.66,0,0,0-.36-.3,2.46,2.46,0,0,0-.74-.08H58.93Z" style="fill:#006098"/><path d="M66.75,247.47l-2,3.35-.27,1.29H64l.27-1.29-.59-3.35h.56l.4,2.84,1.55-2.84Z" style="fill:#006098"/><path d="M74.76,246.18H70.23v-.78h4.53Zm0,2.08H70.23v-.78h4.53Z" style="fill:#006098"/><path d="M77.07,250.21,81,243.36H82l1.13,6.85h-.89l-.33-2H79.18l-1.1,2Zm2.5-2.68h2.26l-.26-1.72c-.1-.68-.17-1.25-.19-1.7a13.56,13.56,0,0,1-.69,1.39Z" style="fill:#006098"/><path d="M87.19,247.47l-2,3.35L85,252.11H84.4l.27-1.29-.58-3.35h.55l.41,2.84,1.54-2.84Z" style="fill:#006098"/><path d="M92.54,249.1v-1.88H90.68v-.78h1.86v-1.87h.8v1.87H95.2v.78H93.34v1.88Z" style="fill:#006098"/><path d="M98.48,250.21l1.44-6.85H102a4.74,4.74,0,0,1,.86,0,2.12,2.12,0,0,1,.77.27,1.45,1.45,0,0,1,.49.55,1.7,1.7,0,0,1,.17.76,1.64,1.64,0,0,1-.31,1,1.88,1.88,0,0,1-1,.65,1.71,1.71,0,0,1,.83.55,1.43,1.43,0,0,1,.28.86,2,2,0,0,1-.33,1.08,2.23,2.23,0,0,1-.86.81,2.58,2.58,0,0,1-1.19.28Zm1.08-.78h1.56a5.28,5.28,0,0,0,.84,0,1.8,1.8,0,0,0,.7-.25,1.33,1.33,0,0,0,.43-.48,1.31,1.31,0,0,0,.15-.61.91.91,0,0,0-.3-.74,1.93,1.93,0,0,0-1.15-.25h-1.73Zm.66-3.15h1.39A2.51,2.51,0,0,0,103,246a1.09,1.09,0,0,0,.44-.93.92.92,0,0,0-.14-.5.75.75,0,0,0-.36-.3,2.38,2.38,0,0,0-.86-.1h-1.45Z" style="fill:#006098"/><path d="M108,247.47,106,250.82l-.27,1.29h-.57l.27-1.29-.58-3.35h.55l.41,2.84,1.54-2.84Z" style="fill:#006098"/><path d="M133.28,250.21l1.44-6.85h2.87a4.6,4.6,0,0,1,1.29.14,1.27,1.27,0,0,1,.69.54,2,2,0,0,1-.3,2.37,3,3,0,0,1-1.77.72,2.49,2.49,0,0,1,.57.54,5.7,5.7,0,0,1,.69,1.25l.52,1.29h-1l-.49-1.28a5.75,5.75,0,0,0-.61-1.19,1.13,1.13,0,0,0-.47-.46,2,2,0,0,0-.79-.11h-1.07l-.63,3Zm1.71-3.79h1.26c.59,0,1,0,1.15,0a2.2,2.2,0,0,0,.85-.23,1.34,1.34,0,0,0,.51-.49,1.32,1.32,0,0,0,.18-.67,1,1,0,0,0-.13-.52.66.66,0,0,0-.36-.3,2.46,2.46,0,0,0-.74-.08h-2.24Z" style="fill:#006098"/><path d="M143.37,247.47l-1.75,2.33.79,2.31h-.62l-.57-2-1.45,2h-.69l1.8-2.42-.67-2.22h.58l.52,1.86,1.36-1.86Z" style="fill:#006098"/><path d="M151.43,246.18H146.9v-.78h4.53Zm0,2.08H146.9v-.78h4.53Z" style="fill:#006098"/><path d="M153.74,250.21l3.89-6.85h1.08l1.13,6.85H159l-.33-2h-2.77l-1.1,2Zm2.5-2.68h2.27l-.27-1.72c-.1-.68-.17-1.25-.19-1.7-.16.39-.39.85-.68,1.39Z" style="fill:#006098"/><path d="M163.94,247.47l-1.74,2.33.79,2.31h-.62l-.58-2-1.44,2h-.69l1.79-2.42-.67-2.22h.59l.51,1.86,1.36-1.86Z" style="fill:#006098"/><path d="M169.34,249.1v-1.88h-1.86v-.78h1.86v-1.87h.8v1.87H172v.78h-1.86v1.88Z" style="fill:#006098"/><path d="M175.28,250.21l1.44-6.85h2.12a4.74,4.74,0,0,1,.86,0,2.12,2.12,0,0,1,.77.27,1.45,1.45,0,0,1,.49.55,1.7,1.7,0,0,1,.17.76,1.64,1.64,0,0,1-.31,1,1.88,1.88,0,0,1-.95.65,1.71,1.71,0,0,1,.83.55,1.37,1.37,0,0,1,.28.86,2,2,0,0,1-.33,1.08,2.16,2.16,0,0,1-.86.81,2.58,2.58,0,0,1-1.19.28Zm1.08-.78h1.56a5.2,5.2,0,0,0,.84,0,1.8,1.8,0,0,0,.7-.25,1.25,1.25,0,0,0,.43-.48,1.31,1.31,0,0,0,.15-.61.91.91,0,0,0-.3-.74,1.91,1.91,0,0,0-1.14-.25h-1.74Zm.66-3.15h1.39a2.51,2.51,0,0,0,1.43-.31,1.09,1.09,0,0,0,.44-.93.92.92,0,0,0-.14-.5.75.75,0,0,0-.36-.3,2.35,2.35,0,0,0-.85-.1h-1.46Z" style="fill:#006098"/><path d="M184.87,247.47l-1.74,2.33.79,2.31h-.62l-.57-2-1.45,2h-.69l1.79-2.42-.67-2.22h.59l.51,1.86,1.36-1.86Z" style="fill:#006098"/><path d="M50.27,72.52l2-9.41h2.91a8.43,8.43,0,0,1,1.18.06,2.89,2.89,0,0,1,1.06.39,1.84,1.84,0,0,1,.67.74,2.39,2.39,0,0,1-.19,2.41,2.66,2.66,0,0,1-1.3.9,2.22,2.22,0,0,1,1.14.75,1.94,1.94,0,0,1,.38,1.18A2.76,2.76,0,0,1,57.64,71a3,3,0,0,1-1.18,1.1,3.42,3.42,0,0,1-1.64.39Zm1.48-1.07h2.14A7,7,0,0,0,55,71.39,2.46,2.46,0,0,0,56,71a1.66,1.66,0,0,0,.58-.65,1.81,1.81,0,0,0,.22-.84,1.22,1.22,0,0,0-.42-1,2.56,2.56,0,0,0-1.57-.34H52.43Zm.9-4.32h1.91a3.43,3.43,0,0,0,2-.44,1.47,1.47,0,0,0,.6-1.27,1.29,1.29,0,0,0-.19-.69,1.08,1.08,0,0,0-.5-.42,3.66,3.66,0,0,0-1.17-.13h-2Z" style="fill:#006098"/><path d="M63.33,68.76l-2.68,4.6-.37,1.77H59.5l.37-1.77-.81-4.6h.77l.56,3.89,2.11-3.89Z" style="fill:#006098"/><path d="M5.78,85.6l2-9.41H11.7a6.14,6.14,0,0,1,1.77.2,1.7,1.7,0,0,1,.94.73,2.47,2.47,0,0,1,.35,1.36A2.61,2.61,0,0,1,14,80.39a4.18,4.18,0,0,1-2.43,1,3.74,3.74,0,0,1,.78.74,8.57,8.57,0,0,1,1,1.72L14,85.6h-1.4L12,83.84a8.65,8.65,0,0,0-.84-1.64,1.66,1.66,0,0,0-.65-.63,2.91,2.91,0,0,0-1.09-.15H7.91L7,85.6Zm2.34-5.2H9.86c.8,0,1.33,0,1.57,0a3.2,3.2,0,0,0,1.17-.32,1.86,1.86,0,0,0,.71-.68,1.8,1.8,0,0,0,.25-.91,1.37,1.37,0,0,0-.19-.71,1,1,0,0,0-.49-.42,3.4,3.4,0,0,0-1-.11H8.79Z" style="fill:#006098"/><path d="M19.52,81.84l-2.68,4.6-.36,1.77h-.79l.37-1.77-.8-4.6H16l.56,3.89,2.11-3.89Z" style="fill:#006098"/><path d="M61.25,143.23a3.78,3.78,0,0,1,1-2.68,3.07,3.07,0,0,1,2.32-1,2.51,2.51,0,0,1,1.88.75,2.82,2.82,0,0,1,.72,2,3.88,3.88,0,0,1-.36,1.67,3.63,3.63,0,0,1-.69,1,3.21,3.21,0,0,1-.9.65,3.09,3.09,0,0,1-1.34.3,2.72,2.72,0,0,1-1.35-.35,2.38,2.38,0,0,1-.92-1A3,3,0,0,1,61.25,143.23Zm.82,0a2.22,2.22,0,0,0,.22,1A1.66,1.66,0,0,0,63,145a1.85,1.85,0,0,0,.94.26,1.91,1.91,0,0,0,.9-.23,2.66,2.66,0,0,0,.77-.62,2.94,2.94,0,0,0,.54-1,3.7,3.7,0,0,0,.19-1.16,2.05,2.05,0,0,0-.51-1.47,1.68,1.68,0,0,0-1.28-.55,2.24,2.24,0,0,0-1.71.83A3.17,3.17,0,0,0,62.07,143.27Z" style="fill:#006098"/><path d="M70.45,14l.49-2.39L69,7.83h.89l.91,1.8c.2.4.39.82.58,1.27a9,9,0,0,1,.85-1.25l1.45-1.82h1l-2.95,3.85L71.27,14Z" style="fill:#006098"/><path d="M197.68,137.62l2.95-3.13-1.75-3.05h.91l.8,1.4.36.64c.07.14.15.3.24.5a14.46,14.46,0,0,1,1-1.11l1.36-1.43h1.08l-3,3.19,1.7,3h-.9l-1-1.81-.34-.68a7.08,7.08,0,0,1-.55.65l-1.73,1.84Z" style="fill:#006098"/><path d="M72,158.66c.76,4,2.18,7,4.25,8.88a10.16,10.16,0,0,0,7.08,2.87,44.53,44.53,0,0,0,10-1.45,45.14,45.14,0,0,1,10.45-1.45,16.69,16.69,0,0,1,8.35,2.45,21.52,21.52,0,0,1,7.26,7q2.1,3.19,4,10.19,2.35-7.49,4.64-10.85a20.8,20.8,0,0,1,7.23-6.69,16.79,16.79,0,0,1,7.89-2.22,42.36,42.36,0,0,1,9.64,1.47,45.11,45.11,0,0,0,10.48,1.47,10.77,10.77,0,0,0,7.39-2.74q3.09-2.73,4.31-8.94" style="fill:none;stroke:#40a7e3;stroke-linecap:round;stroke-linejoin:bevel"/><path d="M51.41,33.7q-6,1.14-8.89,4.25A10.15,10.15,0,0,0,39.66,45a44.36,44.36,0,0,0,1.44,10,45.15,45.15,0,0,1,1.45,10.46,16.74,16.74,0,0,1-2.44,8.34,21.65,21.65,0,0,1-7,7.26q-3.2,2.1-10.18,4,7.47,2.35,10.84,4.64A20.61,20.61,0,0,1,40.44,97a16.85,16.85,0,0,1,2.23,7.9,42.94,42.94,0,0,1-1.47,9.63A44.72,44.72,0,0,0,39.72,125a10.77,10.77,0,0,0,2.74,7.38q2.73,3.09,8.95,4.31" style="fill:none;stroke:#40a7e3;stroke-linecap:round;stroke-linejoin:bevel"/></svg>