<?xml version="1.0" encoding="utf-8"?>
<!-- Generator: Adobe Illustrator 25.0.0, SVG Export Plug-In . SVG Version: 6.00 Build 0)  -->
<svg version="1.1" id="Capa_1" xmlns="http://www.w3.org/2000/svg" xmlns:xlink="http://www.w3.org/1999/xlink" x="0px" y="0px"
	 viewBox="0 0 487.2 215" style="enable-background:new 0 0 487.2 215;" xml:space="preserve">
<style type="text/css">
	.st0{fill:none;}
	.st1{fill:none;stroke:#000000;stroke-width:1.5;stroke-linecap:round;stroke-linejoin:round;}
</style>
<path d="M26.2,43.6h-3l-2.4-6.4h-9.8l-2.3,6.5h-3l8.9-23.1h2.8L26.2,43.6z M19.8,34.7l-3.6-9.9c-0.2-0.5-0.3-1-0.4-1.5h-0.1
	c-0.1,0.5-0.2,1-0.4,1.5l-3.6,9.8L19.8,34.7z"/>
<path d="M45.4,31.6H30.2v-2.1h15.2V31.6z M45.4,38.4H30.2v-2.1h15.2V38.4z"/>
<path d="M74.4,22c-0.3,0.6-0.8,1.4-1.3,2.3s-1,1.9-1.6,3.1s-1.1,2.4-1.7,3.7s-1.1,2.7-1.6,4.1s-1,2.8-1.3,4.2
	c-0.4,1.4-0.7,2.8-0.8,4.2h-2.8c0.2-1.4,0.5-2.8,0.9-4.2c0.4-1.4,0.9-2.8,1.4-4.2s1.1-2.7,1.6-4s1.1-2.5,1.7-3.5s1-2,1.5-2.8
	s0.8-1.5,1.1-1.9H59.7v-2.4h14.7L74.4,22z"/>
<path d="M88.4,26.5c0-0.6-0.1-1.3-0.3-1.8c-0.4-1-1.2-1.8-2.2-2.1c-0.5-0.2-1.1-0.3-1.7-0.3c-0.5,0-1,0.1-1.5,0.2
	c-0.5,0.1-1,0.3-1.4,0.6c-0.5,0.3-0.9,0.6-1.4,0.9c-0.4,0.3-0.8,0.7-1.2,1.1v-2.8c0.7-0.7,1.6-1.3,2.5-1.7c1.1-0.4,2.2-0.6,3.4-0.6
	c0.9,0,1.8,0.1,2.6,0.4c0.8,0.3,1.5,0.7,2.1,1.2c0.6,0.6,1.1,1.2,1.4,2c0.4,0.8,0.5,1.7,0.5,2.7c0,0.8-0.1,1.7-0.3,2.5
	c-0.2,0.7-0.6,1.4-1,2.1c-0.5,0.7-1,1.3-1.6,1.9c-0.7,0.7-1.5,1.3-2.3,1.8c-1.1,0.8-2,1.4-2.7,2c-0.6,0.4-1.1,1-1.6,1.5
	c-0.4,0.4-0.7,0.9-0.9,1.4c-0.2,0.5-0.3,1.1-0.2,1.7H92v2.4H77.7v-1.2c0-0.9,0.1-1.8,0.3-2.6c0.2-0.8,0.6-1.5,1.1-2.1
	c0.6-0.7,1.2-1.4,1.9-2c0.8-0.7,1.8-1.4,2.9-2.3c0.7-0.5,1.4-1.1,2.1-1.7c0.5-0.5,1-1.1,1.4-1.7c0.3-0.5,0.6-1.1,0.7-1.7
	C88.3,27.7,88.4,27.1,88.4,26.5z"/>
<path d="M97.3,43.9c-0.5,0-0.9-0.2-1.3-0.5c-0.3-0.3-0.5-0.8-0.5-1.3c0-0.5,0.2-0.9,0.5-1.3c0.3-0.3,0.8-0.5,1.3-0.5
	c0.5,0,1,0.2,1.3,0.5c0.3,0.3,0.5,0.8,0.5,1.3C99.1,43.1,98.3,43.9,97.3,43.9C97.3,43.9,97.3,43.9,97.3,43.9z"/>
<path d="M114.6,20.5v15.3h3v2.4h-3v5.4H112v-5.4h-10.9v-2.3c1-1.1,2-2.4,3.1-3.7c1-1.3,2-2.6,3-3.9s1.8-2.7,2.6-4
	c0.7-1.2,1.4-2.5,2-3.8L114.6,20.5z M104.1,35.7h7.9V24.4c-0.8,1.4-1.6,2.7-2.3,3.8s-1.4,2.1-2.1,3s-1.3,1.7-1.9,2.5
	S104.6,35.1,104.1,35.7z"/>
<path d="M153.8,43.6h-2.6v-9.4c0.1-1.4-0.2-2.8-0.8-4c-0.7-0.9-1.8-1.3-2.9-1.2c-1.2,0-2.2,0.6-2.9,1.5c-0.8,1.1-1.2,2.4-1.2,3.7
	v9.4h-2.6v-9.8c0-3.2-1.2-4.9-3.8-4.9c-1.1,0-2.2,0.5-2.9,1.5c-0.8,1.1-1.2,2.4-1.1,3.8v9.4h-2.6V27.1h2.6v2.6h0.1
	c1-1.9,3-3.1,5.1-3c1.1,0,2.1,0.3,2.9,0.9c0.8,0.6,1.4,1.5,1.7,2.5c1-2.1,3.1-3.5,5.5-3.4c3.6,0,5.4,2.2,5.4,6.7V43.6z"/>
<path d="M161.2,39.9l-2.6,7.9h-1.9l1.9-7.9H161.2z"/>
<path d="M187.7,37c0,1-0.2,1.9-0.6,2.8c-0.4,0.8-1,1.6-1.7,2.2c-0.8,0.6-1.6,1.1-2.6,1.4c-1.1,0.3-2.2,0.5-3.3,0.5
	c-1.8,0.1-3.7-0.3-5.2-1.3v-2.8c1.5,1.2,3.4,1.9,5.4,1.8c0.7,0,1.5-0.1,2.2-0.3c0.6-0.2,1.2-0.5,1.7-0.9c0.5-0.4,0.8-0.9,1.1-1.4
	c0.3-0.6,0.4-1.2,0.4-1.8c0-3-2.2-4.5-6.4-4.5h-1.9v-2.2h1.8c3.8,0,5.7-1.4,5.7-4.2c0-2.6-1.4-3.9-4.4-3.9c-1.7,0-3.3,0.6-4.5,1.6
	v-2.6c1.6-0.9,3.4-1.4,5.2-1.3c0.9,0,1.8,0.1,2.6,0.4c0.7,0.2,1.4,0.6,2,1.1c0.6,0.5,1,1.1,1.3,1.7c0.3,0.7,0.5,1.5,0.5,2.2
	c0,3-1.5,5-4.6,5.9v0.1c0.7,0.1,1.5,0.3,2.2,0.6c0.6,0.3,1.2,0.7,1.7,1.2c0.5,0.5,0.8,1,1.1,1.7C187.5,35.6,187.7,36.3,187.7,37z"/>
<path d="M202.6,26.5c0-0.6-0.1-1.3-0.3-1.8c-0.2-0.5-0.5-1-0.9-1.3c-0.4-0.4-0.8-0.6-1.3-0.8c-0.5-0.2-1.1-0.3-1.7-0.3
	c-0.5,0-1,0.1-1.5,0.2c-0.5,0.1-1,0.3-1.4,0.6c-0.5,0.3-0.9,0.6-1.4,0.9c-0.4,0.3-0.8,0.7-1.2,1.1v-2.8c0.7-0.7,1.5-1.3,2.5-1.7
	c1.1-0.4,2.2-0.6,3.4-0.6c0.9,0,1.8,0.1,2.6,0.4c0.8,0.3,1.5,0.7,2.1,1.2c0.6,0.6,1.1,1.2,1.4,2c0.4,0.8,0.5,1.7,0.5,2.7
	c0,0.8-0.1,1.7-0.3,2.5c-0.2,0.7-0.6,1.4-1,2.1c-0.5,0.7-1,1.3-1.6,1.9c-0.7,0.7-1.5,1.3-2.3,1.8c-1.1,0.8-2,1.4-2.7,2
	c-0.6,0.4-1.1,1-1.6,1.5c-0.4,0.4-0.7,0.9-0.9,1.4c-0.2,0.5-0.3,1.1-0.2,1.7h11.5v2.4h-14.3v-1.2c0-0.9,0.1-1.8,0.3-2.6
	c0.2-0.8,0.6-1.5,1.1-2.1c0.6-0.7,1.2-1.4,1.9-2c0.8-0.7,1.8-1.4,2.9-2.3c0.7-0.5,1.4-1.1,2.1-1.7c0.5-0.5,1-1,1.4-1.7
	c0.3-0.5,0.6-1.1,0.7-1.7C202.5,27.7,202.6,27.1,202.6,26.5z"/>
<path d="M211.5,43.9c-0.5,0-0.9-0.2-1.3-0.5c-0.3-0.3-0.5-0.8-0.5-1.3c0-0.5,0.2-0.9,0.5-1.3c0.3-0.3,0.8-0.5,1.3-0.5
	c1,0,1.8,0.8,1.8,1.8c0,0.5-0.2,0.9-0.5,1.3C212.5,43.7,212,43.9,211.5,43.9z"/>
<path d="M231.5,31.9c0,1.7-0.2,3.5-0.5,5.1c-0.3,1.3-0.8,2.6-1.5,3.8c-0.6,1-1.4,1.7-2.4,2.3c-1,0.5-2.1,0.8-3.3,0.8
	c-1.1,0-2.2-0.2-3.1-0.8c-0.9-0.5-1.7-1.3-2.3-2.2c-0.7-1.1-1.2-2.3-1.4-3.6c-0.3-1.6-0.5-3.2-0.5-4.9c0-1.8,0.1-3.6,0.5-5.3
	c0.3-1.4,0.8-2.7,1.5-3.9c0.6-1,1.4-1.8,2.4-2.4c1-0.5,2.2-0.8,3.3-0.8C229.1,20.1,231.5,24,231.5,31.9z M228.8,32.2
	c0-6.6-1.6-9.9-4.7-9.9c-3.3,0-4.9,3.3-4.9,10c0,6.2,1.6,9.4,4.9,9.4S228.8,38.5,228.8,32.2L228.8,32.2z"/>
<path d="M239,29.1c-1.2,0-2.3-0.5-3.2-1.3c-0.8-0.8-1.3-2-1.3-3.2c0-1.2,0.4-2.3,1.3-3.1c0.8-0.8,2-1.3,3.1-1.3
	c1.2,0,2.4,0.4,3.2,1.3c0.9,0.8,1.3,1.9,1.3,3.1c0,1.2-0.5,2.3-1.3,3.2C241.4,28.7,240.3,29.2,239,29.1z M239,22.1
	c-1.4,0-2.5,1.1-2.5,2.5c0,0.7,0.3,1.3,0.7,1.8c0.5,0.5,1.1,0.8,1.8,0.8c0.7,0,1.3-0.3,1.8-0.8c0.5-0.5,0.8-1.2,0.8-1.8
	C241.6,23.3,240.5,22.1,239,22.1C239.1,22.1,239.1,22.1,239,22.1z"/>
<path d="M268.8,43.6h-2.6V41h-0.1c-1,1.9-2.9,3.1-5.1,3c-1.4,0.1-2.8-0.4-3.9-1.3c-1-0.9-1.5-2.2-1.4-3.5c0-3.1,1.8-4.9,5.4-5.4
	l5-0.7c0-2.8-1.1-4.2-3.4-4.2c-2,0-3.9,0.7-5.4,2v-2.7c1.7-1,3.6-1.6,5.6-1.5c3.9,0,5.8,2.1,5.8,6.2V43.6z M266.2,35.2l-4,0.5
	c-1,0.1-1.9,0.4-2.8,0.9c-0.7,0.6-1,1.4-0.9,2.3c0,0.8,0.3,1.5,0.9,2c0.6,0.5,1.5,0.8,2.3,0.8c1.2,0,2.4-0.5,3.2-1.4
	c0.9-1,1.3-2.2,1.3-3.5L266.2,35.2z"/>
<path d="M276.4,43.6h-2.6V19.1h2.6V43.6z"/>
<path d="M304.1,36h-11.6c-0.1,1.6,0.5,3.1,1.5,4.2c1,1,2.4,1.6,3.9,1.5c1.9,0,3.7-0.7,5.1-1.8v2.5c-1.7,1.1-3.7,1.7-5.8,1.6
	c-2.1,0.1-4.1-0.7-5.5-2.2c-1.4-1.8-2.1-4-2-6.3c-0.1-2.3,0.7-4.5,2.2-6.2c1.4-1.6,3.3-2.5,5.4-2.4c1.9-0.1,3.7,0.7,5,2.1
	c1.3,1.7,1.9,3.7,1.8,5.8L304.1,36z M301.4,33.7c0.1-1.3-0.3-2.6-1.1-3.6c-0.8-0.9-1.9-1.3-3-1.3c-1.2,0-2.3,0.5-3.2,1.3
	c-0.9,1-1.5,2.2-1.6,3.5L301.4,33.7z"/>
<path d="M307.1,43v-2.8c1.4,1,3,1.6,4.8,1.6c2.3,0,3.5-0.8,3.5-2.3c0-0.4-0.1-0.8-0.3-1.1c-0.2-0.3-0.5-0.6-0.8-0.8
	c-0.4-0.3-0.8-0.5-1.2-0.6l-1.5-0.6c-0.7-0.3-1.3-0.5-1.9-0.9c-0.5-0.3-1-0.6-1.4-1c-0.4-0.4-0.6-0.8-0.8-1.3
	c-0.2-0.5-0.3-1.1-0.3-1.7c0-0.7,0.2-1.4,0.5-2c0.4-0.6,0.8-1.1,1.4-1.5c0.6-0.4,1.3-0.7,2-0.9c0.8-0.2,1.5-0.3,2.3-0.3
	c1.3,0,2.6,0.2,3.8,0.7v2.7c-1.2-0.8-2.7-1.2-4.2-1.2c-0.5,0-0.9,0.1-1.3,0.2c-0.4,0.1-0.7,0.3-1,0.5c-0.3,0.2-0.5,0.4-0.7,0.7
	c-0.2,0.3-0.2,0.6-0.2,0.9c0,0.4,0.1,0.7,0.2,1.1c0.2,0.3,0.4,0.6,0.7,0.8c0.3,0.2,0.7,0.5,1.1,0.6l1.5,0.6c0.7,0.2,1.3,0.5,2,0.9
	c0.5,0.3,1,0.6,1.5,1c0.4,0.4,0.7,0.8,0.9,1.3c0.2,0.5,0.4,1.1,0.3,1.7c0,0.7-0.2,1.5-0.5,2.1c-0.4,0.6-0.9,1.1-1.5,1.5
	c-0.6,0.4-1.3,0.7-2.1,0.9c-0.8,0.2-1.6,0.3-2.5,0.3C310,44,308.5,43.7,307.1,43z"/>
<path d="M329.7,43.4c-0.8,0.4-1.6,0.5-2.5,0.5c-2.9,0-4.3-1.6-4.3-4.8v-9.8h-2.8v-2.2h2.8v-4l2.6-0.8v4.9h4.2v2.2h-4.2v9.3
	c-0.1,0.8,0.1,1.7,0.6,2.4c0.5,0.5,1.2,0.8,1.9,0.7c0.6,0,1.2-0.2,1.7-0.5L329.7,43.4z"/>
<path d="M346.5,36h-11.6c-0.1,1.6,0.5,3.1,1.5,4.2c1,1,2.4,1.6,3.9,1.5c1.9,0,3.7-0.7,5.1-1.8v2.5c-1.7,1.1-3.7,1.7-5.8,1.6
	c-2.1,0.1-4.1-0.7-5.5-2.2c-1.4-1.8-2.1-4-2-6.3c-0.1-2.3,0.7-4.5,2.2-6.2c1.4-1.6,3.3-2.5,5.4-2.4c1.9-0.1,3.7,0.7,5,2.1
	c1.3,1.7,1.9,3.7,1.8,5.8L346.5,36z M343.8,33.7c0.1-1.3-0.3-2.5-1.1-3.6c-0.8-0.9-1.9-1.3-3-1.3c-1.2,0-2.4,0.5-3.2,1.3
	c-0.9,1-1.5,2.2-1.6,3.5H343.8z"/>
<path d="M373.6,43.6H371v-2.8h-0.1c-1.9,3.1-6,4.1-9.1,2.2c-0.6-0.3-1.1-0.8-1.5-1.2c-1.3-1.7-2-3.8-1.9-6c-0.1-2.4,0.6-4.7,2.1-6.6
	c1.3-1.6,3.4-2.5,5.5-2.5c2-0.1,4,0.9,5,2.7h0.1V19.1h2.6V43.6z M371,36.1v-2.5c0-1.3-0.4-2.5-1.3-3.4c-0.9-0.9-2.1-1.4-3.4-1.4
	c-1.5-0.1-2.9,0.6-3.8,1.8c-1,1.4-1.5,3.2-1.4,4.9c-0.1,1.6,0.4,3.2,1.3,4.5c0.9,1.1,2.2,1.7,3.6,1.7c1.4,0,2.7-0.5,3.6-1.6
	C370.6,39,371,37.6,371,36.1z"/>
<path d="M392.2,36h-11.6c-0.1,1.6,0.5,3.1,1.5,4.2c1,1,2.4,1.6,3.9,1.5c1.9,0,3.7-0.7,5.1-1.8v2.5c-1.7,1.1-3.7,1.7-5.8,1.6
	c-2.1,0.1-4.1-0.7-5.5-2.2c-1.4-1.8-2.1-4-2-6.3c-0.1-2.3,0.7-4.5,2.2-6.2c1.4-1.6,3.3-2.5,5.4-2.4c1.9-0.1,3.7,0.7,5,2.1
	c1.3,1.7,1.9,3.7,1.8,5.8V36z M389.5,33.7c0.1-1.3-0.3-2.6-1.1-3.6c-0.8-0.9-1.9-1.3-3-1.3c-1.2,0-2.4,0.5-3.2,1.4
	c-0.9,1-1.5,2.2-1.6,3.5H389.5z"/>
<path d="M398.9,43.6h-2.6V19.1h2.6V43.6z"/>
<path d="M427,43.6h-2.6v-9.4c0-3.5-1.3-5.3-3.8-5.3c-1.3,0-2.4,0.5-3.2,1.5c-0.9,1-1.4,2.4-1.3,3.8v9.4h-2.7V27.1h2.6v2.7h0.1
	c1.1-2,3.2-3.2,5.4-3.1c1.6-0.1,3.1,0.5,4.1,1.8c1,1.5,1.5,3.3,1.4,5L427,43.6z"/>
<path d="M438.9,43.9c-2.2,0.1-4.3-0.7-5.8-2.3c-1.5-1.7-2.3-3.9-2.2-6.1c-0.1-2.4,0.7-4.7,2.3-6.5c1.6-1.6,3.9-2.5,6.2-2.3
	c2.2-0.1,4.3,0.7,5.8,2.3c1.5,1.8,2.2,4,2.1,6.3c0.1,2.3-0.7,4.6-2.2,6.3C443.3,43.2,441.1,44,438.9,43.9z M439,28.9
	c-1.5-0.1-3,0.6-4,1.7c-1.1,1.4-1.6,3.1-1.5,4.8c-0.1,1.7,0.4,3.3,1.5,4.6c1,1.1,2.5,1.8,4,1.7c1.5,0.1,3-0.5,3.9-1.7
	c1-1.4,1.5-3,1.4-4.7c0.1-1.7-0.4-3.4-1.4-4.8C442,29.4,440.6,28.8,439,28.9z"/>
<path d="M459.9,29.7c-0.6-0.4-1.3-0.6-2-0.5c-1.2,0-2.2,0.6-2.8,1.6c-0.8,1.3-1.2,2.8-1.1,4.3v8.4h-2.6V27.1h2.6v3.4h0.1
	c0.3-1.1,0.9-2,1.7-2.7c0.7-0.6,1.6-1,2.6-1c0.5,0,1.1,0,1.6,0.2V29.7z"/>
<path d="M470.4,43.4c-0.8,0.4-1.6,0.5-2.5,0.5c-2.9,0-4.3-1.6-4.3-4.8v-9.8h-2.8v-2.2h2.8v-4l2.6-0.8v4.9h4.1v2.2h-4.2v9.3
	c-0.1,0.8,0.1,1.7,0.6,2.4c0.5,0.5,1.2,0.8,1.9,0.7c0.6,0,1.2-0.2,1.7-0.5L470.4,43.4z"/>
<path d="M487.2,36h-11.7c-0.1,1.6,0.5,3.1,1.5,4.2c1,1,2.4,1.6,3.9,1.5c1.9,0,3.7-0.7,5.1-1.8v2.5c-1.7,1.1-3.7,1.7-5.8,1.6
	c-2.1,0.1-4.1-0.7-5.5-2.2c-1.4-1.8-2.1-4-2-6.3c-0.1-2.3,0.7-4.5,2.2-6.2c1.4-1.6,3.3-2.5,5.4-2.4c1.9-0.1,3.7,0.7,5,2.1
	c1.3,1.6,1.9,3.7,1.8,5.8V36z M484.5,33.7c0.1-1.3-0.3-2.5-1.1-3.6c-0.8-0.9-1.9-1.3-3-1.3c-1.2,0-2.4,0.5-3.2,1.3
	c-0.9,1-1.5,2.2-1.6,3.5H484.5z"/>
<path d="M8.2,123.6v-23.1h6.6c1.7-0.1,3.4,0.4,4.8,1.5c1.1,0.9,1.8,2.3,1.8,3.8c0,1.2-0.3,2.4-1.1,3.4c-0.7,1-1.8,1.7-2.9,2.1v0.1
	c1.4,0.1,2.7,0.7,3.7,1.8c1,1.1,1.5,2.5,1.4,3.9c0.1,1.8-0.7,3.6-2.1,4.8c-1.5,1.3-3.4,1.9-5.4,1.8L8.2,123.6z M11,102.9v7.5h2.8
	c1.3,0.1,2.5-0.3,3.5-1.1c0.9-0.7,1.3-1.9,1.3-3c0-2.2-1.5-3.4-4.4-3.4L11,102.9z M11,112.8v8.3h3.7c1.3,0.1,2.6-0.3,3.7-1.1
	c0.9-0.8,1.4-1.9,1.3-3.1c0-2.7-1.9-4.1-5.6-4.1L11,112.8z"/>
<path d="M43.1,111.6H27.9v-2.1h15.1V111.6z M43.1,118.4H27.9v-2.1h15.1V118.4z"/>
<path d="M80.4,116.5c0,1-0.2,2.1-0.6,3.1c-0.4,0.9-0.9,1.7-1.7,2.4c-0.7,0.7-1.6,1.2-2.6,1.5c-1.1,0.4-2.2,0.5-3.4,0.5
	c-1.7,0.1-3.3-0.2-4.8-1v-2.8c1.4,1,3.1,1.5,4.8,1.5c0.8,0,1.5-0.1,2.3-0.4c0.6-0.2,1.2-0.6,1.7-1c0.5-0.4,0.8-1,1.1-1.6
	c0.3-0.7,0.4-1.3,0.4-2.1c0.1-1.3-0.5-2.6-1.5-3.5c-1.3-0.9-2.8-1.4-4.4-1.3h-1h-1c-0.3,0-0.7,0-1,0.1s-0.6,0-0.9,0.1l0.8-11.6h10.7
	v2.4H71l-0.5,6.8l1.1-0.1h1c1.1,0,2.2,0.1,3.3,0.5c0.9,0.3,1.7,0.8,2.5,1.4c0.7,0.6,1.2,1.4,1.5,2.2
	C80.2,114.5,80.4,115.5,80.4,116.5z"/>
<path d="M98.9,102c-0.3,0.6-0.8,1.4-1.3,2.3s-1,1.9-1.6,3.1s-1.1,2.4-1.7,3.7s-1.1,2.7-1.6,4.1s-1,2.8-1.3,4.2
	c-0.4,1.4-0.7,2.8-0.8,4.2h-2.8c0.2-1.4,0.5-2.8,0.9-4.2c0.4-1.4,0.9-2.8,1.4-4.2s1-2.7,1.6-4s1.1-2.4,1.7-3.5c0.5-1.1,1-2,1.5-2.8
	c0.5-0.9,0.8-1.5,1.1-1.9H84.2v-2.4h14.7L98.9,102z"/>
<path d="M104,123.9c-0.5,0-0.9-0.2-1.3-0.5c-0.3-0.3-0.5-0.8-0.5-1.2c0-0.5,0.2-0.9,0.5-1.3c0.3-0.3,0.8-0.5,1.3-0.5
	c1,0,1.8,0.8,1.8,1.8C105.9,123.1,105,123.9,104,123.9C104,123.9,104,123.9,104,123.9L104,123.9z"/>
<path d="M122.9,117c0,1-0.2,1.9-0.6,2.8c-0.4,0.8-1,1.6-1.7,2.2c-0.8,0.6-1.6,1.1-2.6,1.4c-1.1,0.3-2.2,0.5-3.3,0.5
	c-1.8,0.1-3.7-0.3-5.2-1.3v-2.8c1.5,1.2,3.4,1.9,5.3,1.8c0.7,0,1.5-0.1,2.2-0.3c0.6-0.2,1.2-0.5,1.7-0.9c0.5-0.4,0.8-0.9,1.1-1.4
	c0.3-0.6,0.4-1.2,0.4-1.9c0-3-2.1-4.5-6.4-4.5h-1.9v-2.2h1.8c3.8,0,5.7-1.4,5.7-4.2c0-2.6-1.5-3.9-4.4-3.9c-1.7,0-3.3,0.6-4.6,1.6
	v-2.6c1.6-0.9,3.4-1.4,5.2-1.3c0.9,0,1.8,0.1,2.6,0.4c0.7,0.2,1.4,0.6,2,1.1c0.6,0.5,1,1.1,1.3,1.7c0.3,0.7,0.5,1.5,0.5,2.2
	c0,3-1.5,5-4.6,5.9v0.1c0.8,0.1,1.5,0.3,2.2,0.6c0.6,0.3,1.2,0.7,1.7,1.1c0.5,0.5,0.9,1,1.1,1.7C122.8,115.6,122.9,116.3,122.9,117z
	"/>
<path d="M160.5,123.6h-2.6v-9.4c0.1-1.4-0.2-2.8-0.8-4c-0.7-0.9-1.8-1.3-2.9-1.2c-1.2,0-2.2,0.6-2.9,1.6c-0.8,1.1-1.2,2.4-1.2,3.7
	v9.4h-2.6v-9.8c0-3.2-1.2-4.9-3.8-4.9c-1.1,0-2.2,0.5-2.9,1.5c-0.8,1.1-1.2,2.4-1.1,3.8v9.4h-2.6v-16.5h2.6v2.6h0.1
	c1-1.9,3-3.1,5.1-3c2.2,0,4.1,1.4,4.7,3.4c1-2.1,3.1-3.5,5.5-3.4c3.6,0,5.4,2.2,5.4,6.7L160.5,123.6z"/>
<path d="M167.9,119.9l-2.6,7.9h-1.9l1.9-7.9H167.9z"/>
<path d="M194.4,117c0,1-0.2,1.9-0.6,2.8c-0.4,0.8-1,1.6-1.7,2.2c-0.8,0.6-1.6,1.1-2.6,1.4c-1.1,0.3-2.2,0.5-3.3,0.5
	c-1.8,0.1-3.7-0.3-5.2-1.3v-2.8c1.5,1.2,3.4,1.9,5.4,1.8c0.7,0,1.5-0.1,2.2-0.3c0.6-0.2,1.2-0.5,1.7-0.9c0.5-0.4,0.8-0.8,1.1-1.4
	c0.3-0.6,0.4-1.2,0.4-1.9c0-3-2.2-4.5-6.4-4.5h-1.9v-2.2h1.8c3.8,0,5.7-1.4,5.7-4.2c0-2.6-1.4-3.9-4.4-3.9c-1.7,0-3.3,0.6-4.6,1.6
	v-2.6c1.6-0.9,3.4-1.4,5.2-1.3c0.9,0,1.8,0.1,2.6,0.4c0.7,0.2,1.4,0.6,2,1.1c0.6,0.5,1,1.1,1.3,1.7c0.3,0.7,0.5,1.5,0.5,2.2
	c0,3-1.5,5-4.6,5.9v0.1c0.7,0.1,1.5,0.3,2.2,0.6c0.6,0.3,1.2,0.7,1.7,1.1c0.5,0.5,0.9,1,1.1,1.7C194.2,115.6,194.4,116.3,194.4,117z
	"/>
<path d="M213.2,116.2c0,1.1-0.2,2.1-0.6,3.1c-0.3,0.9-0.9,1.7-1.5,2.4c-0.6,0.7-1.4,1.2-2.3,1.6c-0.9,0.4-1.9,0.6-2.9,0.6
	c-2.2,0.1-4.2-1-5.5-2.8c-0.7-1-1.2-2.1-1.4-3.3c-0.4-1.4-0.5-2.9-0.5-4.4c0-1.8,0.2-3.7,0.7-5.5c0.4-1.5,1-2.9,1.9-4.2
	c0.8-1.1,1.8-2,3-2.7c1.2-0.7,2.5-1,3.9-1c1.3-0.1,2.6,0.2,3.8,0.7v2.5c-1.2-0.6-2.5-0.9-3.8-0.9c-1,0-1.9,0.2-2.8,0.7
	c-0.9,0.5-1.6,1.2-2.1,2c-0.6,0.9-1.1,1.9-1.4,3c-0.3,1.3-0.5,2.7-0.5,4h0.1c1.1-1.9,3.1-3,5.3-2.8c0.9,0,1.9,0.2,2.7,0.5
	c0.8,0.3,1.5,0.8,2.1,1.5c0.6,0.7,1,1.4,1.3,2.2C213.1,114.3,213.3,115.3,213.2,116.2z M210.5,116.6c0-0.7-0.1-1.5-0.3-2.2
	c-0.2-0.6-0.5-1.2-0.9-1.6c-0.4-0.4-0.9-0.8-1.4-1c-0.6-0.3-1.3-0.4-1.9-0.4c-0.6,0-1.2,0.1-1.8,0.4c-0.5,0.2-1,0.6-1.4,1
	c-0.8,0.9-1.3,2.1-1.3,3.3c0,0.8,0.1,1.5,0.3,2.2c0.2,0.7,0.6,1.3,1,1.8c0.4,0.5,0.9,0.9,1.5,1.2c0.6,0.3,1.2,0.5,1.9,0.4
	c0.6,0,1.2-0.1,1.8-0.4c0.5-0.2,1-0.6,1.4-1.1c0.4-0.5,0.7-1,0.9-1.6C210.5,118,210.6,117.3,210.5,116.6L210.5,116.6z"/>
<path d="M218.2,123.9c-0.5,0-0.9-0.2-1.3-0.5c-0.3-0.3-0.5-0.8-0.5-1.3c0-0.5,0.2-0.9,0.5-1.3c0.3-0.4,0.8-0.5,1.3-0.5
	c0.5,0,1,0.2,1.3,0.5c0.3,0.3,0.5,0.8,0.5,1.3c0,0.5-0.2,0.9-0.5,1.3C219.1,123.7,218.7,123.9,218.2,123.9z"/>
<path d="M238.2,111.9c0,1.7-0.2,3.5-0.5,5.1c-0.3,1.3-0.8,2.6-1.5,3.8c-0.6,1-1.4,1.8-2.4,2.3c-1,0.5-2.1,0.8-3.3,0.8
	c-1.1,0-2.2-0.2-3.1-0.8c-0.9-0.5-1.7-1.3-2.3-2.2c-0.7-1.1-1.2-2.3-1.4-3.6c-0.3-1.6-0.5-3.2-0.5-4.9c0-1.8,0.1-3.6,0.5-5.4
	c0.3-1.4,0.8-2.7,1.5-3.9c0.6-1,1.4-1.8,2.4-2.4c1-0.5,2.2-0.8,3.3-0.8C235.7,100.1,238.2,104,238.2,111.9z M235.5,112.2
	c0-6.6-1.6-9.9-4.7-9.9c-3.3,0-4.9,3.3-4.9,10c0,6.2,1.6,9.4,4.8,9.4S235.5,118.5,235.5,112.2L235.5,112.2z"/>
<path d="M245.7,109.1c-1.2,0-2.3-0.5-3.1-1.3c-0.9-0.8-1.3-2-1.3-3.2c0-1.2,0.4-2.3,1.3-3.1c0.8-0.8,2-1.3,3.1-1.3
	c1.2,0,2.3,0.4,3.2,1.3c0.9,0.8,1.3,1.9,1.3,3.1c0,1.2-0.5,2.3-1.3,3.2C248.1,108.7,246.9,109.2,245.7,109.1z M245.7,102.1
	c-0.7,0-1.3,0.3-1.8,0.7c-0.5,0.5-0.8,1.1-0.7,1.8c0,0.7,0.2,1.3,0.7,1.8c0.5,0.5,1.1,0.8,1.8,0.8c0.7,0,1.3-0.3,1.8-0.8
	c0.5-0.5,0.8-1.2,0.8-1.8C248.3,103.3,247.1,102.1,245.7,102.1C245.7,102.1,245.7,102.1,245.7,102.1z"/>
<path d="M275.5,123.6h-2.6V121h-0.1c-1,1.9-2.9,3.1-5.1,3c-1.4,0.1-2.8-0.4-3.9-1.3c-1-0.9-1.5-2.2-1.4-3.5c0-3.1,1.8-4.9,5.5-5.4
	l4.9-0.7c0-2.8-1.1-4.2-3.4-4.2c-2,0-3.9,0.7-5.4,2v-2.7c1.7-1,3.6-1.6,5.6-1.6c3.9,0,5.8,2.1,5.8,6.2L275.5,123.6z M272.8,115.2
	l-4,0.6c-1,0.1-1.9,0.4-2.8,0.9c-0.7,0.6-1,1.4-0.9,2.3c0,0.8,0.3,1.5,0.9,2c0.6,0.5,1.5,0.8,2.3,0.8c1.2,0,2.4-0.5,3.2-1.4
	c0.9-1,1.3-2.2,1.3-3.5L272.8,115.2z"/>
<path d="M283.1,123.6h-2.6V99.1h2.6V123.6z"/>
<path d="M296.5,123v-2.8c1.4,1,3,1.6,4.8,1.6c2.3,0,3.5-0.8,3.5-2.3c0-0.4-0.1-0.8-0.3-1.1c-0.2-0.3-0.5-0.6-0.8-0.8
	c-0.4-0.3-0.8-0.5-1.2-0.6l-1.5-0.6c-0.7-0.3-1.3-0.5-1.9-0.9c-0.5-0.3-1-0.6-1.4-1c-0.4-0.4-0.6-0.8-0.8-1.3
	c-0.2-0.5-0.3-1.1-0.3-1.7c0-0.7,0.2-1.4,0.5-2.1c0.4-0.6,0.8-1.1,1.4-1.5c0.6-0.4,1.3-0.7,2-0.9c0.8-0.2,1.6-0.3,2.4-0.3
	c1.3,0,2.6,0.2,3.8,0.7v2.7c-1.2-0.8-2.7-1.2-4.2-1.2c-0.5,0-0.9,0.1-1.3,0.2c-0.4,0.1-0.7,0.3-1,0.5c-0.3,0.2-0.5,0.4-0.7,0.7
	c-0.2,0.3-0.2,0.6-0.2,0.9c0,0.4,0.1,0.7,0.2,1.1c0.2,0.3,0.4,0.6,0.7,0.8c0.3,0.2,0.7,0.5,1.1,0.6l1.5,0.6c0.7,0.2,1.3,0.5,2,0.9
	c0.5,0.3,1,0.6,1.5,1c0.4,0.4,0.7,0.8,0.9,1.3c0.2,0.5,0.3,1.1,0.3,1.7c0,0.7-0.2,1.5-0.5,2.1c-0.4,0.6-0.9,1.1-1.4,1.5
	c-0.6,0.4-1.3,0.7-2.1,0.9c-0.8,0.2-1.6,0.3-2.5,0.3C299.4,124,297.9,123.7,296.5,123z"/>
<path d="M324.8,123.6h-2.6v-2.6h-0.1c-1,1.9-2.9,3.1-5.1,3c-3.9,0-5.9-2.3-5.9-7v-9.9h2.6v9.4c0,3.5,1.3,5.2,4,5.2
	c1.2,0,2.4-0.5,3.2-1.4c0.9-1,1.3-2.4,1.2-3.7v-9.5h2.6L324.8,123.6z"/>
<path d="M338.8,109.7c-0.6-0.4-1.3-0.6-2-0.5c-1.2,0-2.2,0.6-2.8,1.6c-0.8,1.3-1.2,2.8-1.1,4.4v8.4h-2.6v-16.5h2.6v3.4h0.1
	c0.3-1.1,0.9-2,1.7-2.7c0.7-0.6,1.6-1,2.6-1c0.5,0,1.1,0,1.6,0.2V109.7z"/>
<path d="M364.8,123.6h-2.6v-2.8h-0.1c-1.1,2.1-3.3,3.3-5.7,3.2c-1.9,0.1-3.8-0.7-5-2.2c-1.3-1.7-2-3.8-1.9-6
	c-0.1-2.4,0.6-4.7,2.1-6.6c1.3-1.6,3.4-2.5,5.5-2.5c2-0.1,3.9,0.9,4.9,2.7h0.1V99.1h2.6L364.8,123.6z M362.1,116.1v-2.4
	c0-1.3-0.4-2.5-1.3-3.4c-0.9-0.9-2.1-1.4-3.4-1.4c-1.5-0.1-2.9,0.6-3.8,1.8c-1,1.4-1.5,3.2-1.4,4.9c-0.1,1.6,0.4,3.2,1.3,4.5
	c0.9,1.1,2.2,1.7,3.6,1.6c1.4,0,2.7-0.6,3.6-1.6C361.7,119,362.2,117.6,362.1,116.1z"/>
<path d="M383.4,116h-11.6c-0.1,1.6,0.5,3.1,1.5,4.2c1,1,2.4,1.6,3.9,1.5c1.9,0,3.7-0.7,5.1-1.8v2.5c-1.7,1.1-3.7,1.7-5.8,1.6
	c-2.1,0.1-4.1-0.7-5.5-2.2c-1.4-1.8-2.1-4-2-6.3c-0.1-2.3,0.7-4.5,2.2-6.3c1.4-1.6,3.3-2.5,5.4-2.4c1.9-0.1,3.7,0.7,5,2.1
	c1.3,1.7,1.9,3.7,1.8,5.8L383.4,116z M380.7,113.7c0.1-1.3-0.3-2.5-1.1-3.6c-0.8-0.9-1.9-1.3-3-1.3c-1.2,0-2.4,0.5-3.2,1.3
	c-0.9,1-1.5,2.2-1.6,3.5H380.7z"/>
<path d="M390,123.6h-2.6V99.1h2.6V123.6z"/>
<path d="M411.3,123.9c-2.2,0.1-4.3-0.7-5.8-2.3c-1.5-1.7-2.3-3.9-2.2-6.1c-0.1-2.4,0.7-4.7,2.3-6.5c1.6-1.6,3.9-2.5,6.1-2.3
	c2.2-0.1,4.3,0.7,5.8,2.3c1.5,1.8,2.2,4,2.1,6.3c0.1,2.3-0.7,4.6-2.2,6.3C415.7,123.2,413.5,124,411.3,123.9z M411.5,108.9
	c-1.5-0.1-3,0.6-4,1.7c-1.1,1.4-1.6,3.1-1.5,4.8c-0.1,1.7,0.4,3.3,1.5,4.6c1,1.1,2.5,1.8,4,1.7c1.5,0.1,3-0.5,3.9-1.7
	c1-1.4,1.5-3,1.4-4.7c0.1-1.7-0.4-3.4-1.4-4.8C414.5,109.4,413,108.8,411.5,108.9z"/>
<path d="M437,116h-11.6c-0.1,1.6,0.5,3.1,1.5,4.2c1,1,2.4,1.6,3.9,1.5c1.9,0,3.7-0.7,5.1-1.8v2.5c-1.7,1.1-3.7,1.7-5.8,1.6
	c-2.1,0.1-4.1-0.7-5.5-2.2c-1.4-1.8-2.1-4-2-6.3c-0.1-2.3,0.7-4.5,2.2-6.3c1.4-1.6,3.3-2.5,5.4-2.4c1.9-0.1,3.7,0.7,5,2.1
	c1.3,1.7,1.9,3.7,1.8,5.8L437,116z M434.3,113.7c0.1-1.3-0.3-2.5-1.1-3.6c-0.8-0.9-1.9-1.3-3-1.3c-1.2,0-2.3,0.5-3.2,1.3
	c-0.9,1-1.5,2.2-1.6,3.5H434.3z"/>
<path d="M440,123v-2.8c1.4,1,3,1.6,4.8,1.6c2.3,0,3.5-0.8,3.5-2.3c0-0.4-0.1-0.8-0.3-1.1c-0.2-0.3-0.5-0.6-0.8-0.8
	c-0.4-0.3-0.8-0.5-1.2-0.6l-1.5-0.6c-0.7-0.3-1.3-0.5-1.9-0.9c-0.5-0.3-1-0.6-1.4-1c-0.4-0.4-0.6-0.8-0.8-1.3
	c-0.2-0.5-0.3-1.1-0.3-1.7c0-0.7,0.2-1.4,0.5-2.1c0.4-0.6,0.8-1.1,1.4-1.5c0.6-0.4,1.3-0.7,2-0.9c0.8-0.2,1.5-0.3,2.3-0.3
	c1.3,0,2.6,0.2,3.8,0.7v2.7c-1.2-0.8-2.7-1.2-4.2-1.2c-0.5,0-0.9,0.1-1.3,0.2c-0.4,0.1-0.7,0.3-1,0.5c-0.3,0.2-0.5,0.4-0.7,0.7
	c-0.2,0.3-0.2,0.6-0.2,0.9c0,0.4,0.1,0.7,0.2,1.1c0.2,0.3,0.4,0.6,0.7,0.8c0.3,0.2,0.7,0.5,1.1,0.6l1.5,0.6c0.7,0.2,1.3,0.5,2,0.9
	c0.5,0.3,1,0.6,1.5,1c0.4,0.4,0.7,0.8,0.9,1.3c0.2,0.5,0.3,1.1,0.3,1.7c0,0.7-0.2,1.5-0.5,2.1c-0.4,0.6-0.9,1.1-1.4,1.5
	c-0.6,0.4-1.3,0.7-2.1,0.9c-0.8,0.2-1.6,0.3-2.5,0.3C442.9,124,441.4,123.7,440,123z"/>
<path d="M462.7,123.4c-0.8,0.4-1.6,0.5-2.5,0.5c-2.9,0-4.3-1.6-4.3-4.8v-9.8H453v-2.2h2.8v-4l2.6-0.9v4.9h4.2v2.2h-4.2v9.3
	c-0.1,0.8,0.1,1.7,0.6,2.4c0.5,0.5,1.2,0.8,1.9,0.7c0.6,0,1.2-0.2,1.7-0.6L462.7,123.4z"/>
<path d="M479.5,116h-11.7c-0.1,1.6,0.5,3.1,1.5,4.2c1,1,2.4,1.6,3.9,1.5c1.9,0,3.7-0.7,5.1-1.8v2.5c-1.7,1.1-3.7,1.7-5.8,1.6
	c-2.1,0.1-4.1-0.7-5.5-2.2c-1.4-1.8-2.1-4-2-6.3c-0.1-2.3,0.7-4.5,2.2-6.2c1.4-1.6,3.3-2.5,5.4-2.4c1.9-0.1,3.7,0.7,5,2.1
	c1.3,1.7,1.9,3.7,1.8,5.8V116z M476.7,113.7c0.1-1.3-0.3-2.5-1.1-3.6c-0.8-0.9-1.9-1.3-3-1.3c-1.2,0-2.3,0.5-3.2,1.3
	c-0.9,1-1.5,2.2-1.6,3.5H476.7z"/>
<path d="M24,202.6c-2,1-4.2,1.4-6.4,1.4c-3,0.1-5.8-1-7.9-3.2c-2.1-2.3-3.1-5.3-3-8.3c-0.2-3.3,1.1-6.6,3.3-9
	c2.2-2.3,5.3-3.5,8.5-3.4c1.9-0.1,3.7,0.3,5.5,0.9v2.9c-1.7-0.9-3.6-1.4-5.5-1.4c-2.4-0.1-4.8,0.9-6.4,2.7c-1.7,2-2.6,4.5-2.5,7.1
	c-0.1,2.5,0.7,4.9,2.3,6.7c1.6,1.7,3.8,2.6,6.1,2.5c2.1,0.1,4.2-0.5,6-1.6L24,202.6z"/>
<path d="M44.6,191.6H29.4v-2.1h15.2V191.6z M44.6,198.4H29.4v-2.1h15.2V198.4z"/>
<path d="M69,203.6h-2.6v-20c-0.3,0.3-0.6,0.5-0.9,0.7c-0.4,0.3-0.9,0.6-1.3,0.8c-0.5,0.2-1,0.5-1.5,0.7c-0.5,0.2-1,0.4-1.6,0.5v-2.7
	c0.6-0.2,1.2-0.4,1.8-0.6c0.7-0.3,1.3-0.6,1.9-0.9s1.2-0.7,1.8-1.1c0.5-0.3,1-0.7,1.4-1.1h1L69,203.6z"/>
<path d="M91.4,182c-0.4,0.6-0.8,1.4-1.3,2.3s-1,1.9-1.6,3.1s-1.1,2.4-1.7,3.7s-1.1,2.7-1.6,4.1s-1,2.8-1.3,4.2
	c-0.4,1.4-0.7,2.8-0.8,4.2h-2.8c0.2-1.4,0.5-2.8,0.9-4.2c0.4-1.4,0.9-2.8,1.4-4.2s1-2.7,1.6-4s1.1-2.4,1.7-3.5s1-2,1.5-2.9
	s0.8-1.5,1.1-1.9H76.7v-2.4h14.7V182z"/>
<path d="M96.5,203.9c-0.5,0-0.9-0.2-1.3-0.5c-0.3-0.3-0.5-0.8-0.5-1.3c0-0.5,0.2-0.9,0.5-1.3c0.3-0.4,0.8-0.5,1.3-0.5
	c1,0,1.8,0.8,1.8,1.8C98.3,203.1,97.5,203.9,96.5,203.9C96.5,203.9,96.5,203.9,96.5,203.9z"/>
<path d="M101.5,197.1c0-0.6,0.1-1.2,0.3-1.8c0.2-0.6,0.5-1.2,0.8-1.7c0.4-0.6,0.8-1.1,1.3-1.5c0.5-0.4,1.2-0.8,1.8-1.1
	c-1-0.5-1.8-1.3-2.4-2.1c-0.6-0.9-0.9-1.9-0.9-2.9c0-0.8,0.2-1.6,0.5-2.4c0.3-0.7,0.8-1.3,1.4-1.9c0.6-0.5,1.3-1,2.1-1.2
	c0.8-0.3,1.7-0.5,2.6-0.4c0.9,0,1.8,0.1,2.6,0.5c0.8,0.3,1.5,0.7,2.1,1.2c0.6,0.5,1,1.2,1.4,1.9c0.3,0.7,0.5,1.5,0.5,2.3
	c0,1-0.3,2.1-0.9,2.9c-0.6,0.9-1.4,1.6-2.4,2.1c0.6,0.3,1.2,0.6,1.8,1.1c0.5,0.4,1,0.9,1.3,1.5c0.4,0.5,0.6,1.1,0.8,1.7
	c0.2,0.6,0.3,1.2,0.3,1.8c0,1-0.2,1.9-0.5,2.8c-0.4,0.8-0.9,1.6-1.5,2.2c-0.7,0.6-1.5,1.1-2.4,1.4c-1,0.3-2,0.5-3,0.5
	c-1,0-2-0.2-3-0.5c-0.9-0.3-1.7-0.8-2.4-1.4c-0.7-0.6-1.2-1.3-1.6-2.2C101.7,199,101.5,198.1,101.5,197.1z M104.3,196.9
	c0,0.7,0.1,1.4,0.3,2c0.2,0.6,0.5,1.1,0.9,1.5c0.4,0.4,0.9,0.7,1.5,0.9c0.6,0.2,1.3,0.3,1.9,0.3c0.6,0,1.3-0.1,1.9-0.3
	c0.6-0.2,1.1-0.6,1.5-1c0.4-0.4,0.8-0.9,1-1.5c0.2-0.6,0.4-1.3,0.3-1.9c0-0.6-0.1-1.2-0.3-1.8c-0.2-0.6-0.5-1.1-0.9-1.5
	c-0.4-0.4-0.9-0.8-1.5-1c-0.6-0.3-1.3-0.4-1.9-0.4c-0.6,0-1.3,0.1-1.9,0.3c-0.5,0.2-1,0.6-1.5,1c-0.4,0.4-0.8,0.9-1,1.5
	C104.5,195.6,104.4,196.3,104.3,196.9L104.3,196.9z M105.2,186.2c0,0.5,0.1,1,0.3,1.5c0.4,0.9,1.1,1.7,2,2.1c0.5,0.2,1,0.3,1.5,0.3
	c0.5,0,1-0.1,1.5-0.3c0.5-0.2,0.9-0.5,1.2-0.8c0.3-0.4,0.6-0.8,0.8-1.2c0.2-0.5,0.3-1,0.3-1.5c0-0.5-0.1-1.1-0.3-1.6
	c-0.2-0.5-0.5-0.9-0.8-1.2c-0.4-0.3-0.8-0.6-1.2-0.8c-0.5-0.2-1-0.3-1.5-0.3c-0.5,0-1.1,0.1-1.6,0.3c-0.5,0.2-0.9,0.5-1.2,0.8
	c-0.3,0.4-0.6,0.8-0.8,1.2C105.2,185.1,105.2,185.6,105.2,186.2L105.2,186.2z"/>
<path d="M153,203.6h-2.6v-9.4c0.1-1.4-0.2-2.8-0.9-4c-0.7-0.9-1.7-1.3-2.8-1.2c-1.2,0-2.2,0.6-2.9,1.6c-0.8,1.1-1.2,2.4-1.2,3.7v9.4
	h-2.6v-9.8c0-3.2-1.2-4.9-3.8-4.9c-1.1,0-2.2,0.5-2.9,1.5c-0.8,1.1-1.2,2.4-1.1,3.8v9.4h-2.6v-16.5h2.6v2.6h0.1c1-1.9,3-3.1,5.1-3
	c2.2,0,4.1,1.4,4.7,3.4c1-2.1,3.1-3.5,5.5-3.4c3.6,0,5.5,2.2,5.4,6.7L153,203.6z"/>
<path d="M178.8,203.6h-2.6V201h-0.1c-1,1.9-2.9,3.1-5.1,3c-1.4,0.1-2.8-0.4-3.9-1.3c-0.9-0.9-1.4-2.2-1.4-3.5c0-3.1,1.8-4.9,5.4-5.4
	l4.9-0.7c0-2.8-1.1-4.2-3.4-4.2c-2,0-3.9,0.7-5.4,2v-2.7c1.7-1,3.6-1.6,5.6-1.6c3.9,0,5.8,2.1,5.8,6.2L178.8,203.6z M176.2,195.2
	l-4,0.6c-1,0.1-1.9,0.4-2.8,0.9c-0.7,0.6-1,1.4-0.9,2.3c0,0.8,0.3,1.5,0.9,2c0.6,0.5,1.5,0.8,2.3,0.8c1.2,0,2.4-0.5,3.2-1.4
	c0.9-1,1.3-2.2,1.3-3.5L176.2,195.2z"/>
<path d="M186.4,203.6h-2.6v-24.4h2.6V203.6z"/>
<path d="M199.8,203v-2.8c1.4,1,3,1.6,4.8,1.6c2.3,0,3.5-0.8,3.5-2.3c0-0.4-0.1-0.8-0.3-1.1c-0.2-0.3-0.5-0.6-0.8-0.8
	c-0.4-0.3-0.8-0.5-1.2-0.6l-1.5-0.6c-0.7-0.3-1.3-0.5-1.9-0.9c-0.5-0.3-1-0.6-1.4-1c-0.4-0.4-0.6-0.8-0.8-1.3
	c-0.2-0.5-0.3-1.1-0.3-1.7c0-0.7,0.2-1.4,0.5-2.1c0.4-0.6,0.8-1.1,1.4-1.5c0.6-0.4,1.3-0.7,2-0.9c0.8-0.2,1.6-0.3,2.4-0.3
	c1.3,0,2.6,0.2,3.8,0.7v2.7c-1.2-0.8-2.7-1.2-4.2-1.2c-0.5,0-0.9,0.1-1.3,0.2c-0.4,0.1-0.7,0.3-1,0.5c-0.3,0.2-0.5,0.4-0.7,0.7
	c-0.2,0.3-0.2,0.6-0.2,0.9c0,0.4,0.1,0.7,0.2,1.1c0.2,0.3,0.4,0.6,0.7,0.8c0.3,0.2,0.7,0.5,1.1,0.6l1.5,0.6c0.7,0.2,1.3,0.5,2,0.9
	c0.5,0.3,1,0.6,1.5,1c0.4,0.4,0.7,0.8,0.9,1.3c0.2,0.5,0.3,1.1,0.3,1.7c0,0.7-0.2,1.5-0.5,2.1c-0.4,0.6-0.9,1.1-1.4,1.5
	c-0.6,0.4-1.3,0.7-2.1,0.9c-0.8,0.2-1.6,0.3-2.5,0.3C202.7,204,201.2,203.7,199.8,203z"/>
<path d="M228.2,203.6h-2.6v-2.6h-0.1c-1,1.9-2.9,3.1-5.1,3c-3.9,0-5.9-2.3-5.9-7v-9.9h2.6v9.4c0,3.5,1.3,5.2,4,5.2
	c1.2,0,2.4-0.5,3.2-1.4c0.9-1,1.3-2.4,1.2-3.7v-9.5h2.6V203.6z"/>
<path d="M242.1,189.7c-0.6-0.4-1.3-0.6-2-0.5c-1.2,0-2.2,0.6-2.8,1.6c-0.8,1.3-1.2,2.8-1.1,4.4v8.4h-2.6v-16.5h2.6v3.4h0.1
	c0.3-1.1,0.9-2,1.7-2.7c0.7-0.6,1.6-1,2.6-1c0.5,0,1.1,0,1.6,0.2L242.1,189.7z"/>
<line class="st0" x1="39.8" y1="7.1" x2="0.8" y2="7.1"/>
<line class="st1" x1="30.7" y1="7.1" x2="0.8" y2="7.1"/>
<path d="M39.8,7.1c-4.6-1.7-9-4.1-12.8-7.1l2.6,7.1l-2.6,7.1C30.8,11.2,35.1,8.8,39.8,7.1z"/>
<line class="st0" x1="39.8" y1="87.1" x2="0.8" y2="87.1"/>
<line class="st1" x1="30.7" y1="87.1" x2="0.8" y2="87.1"/>
<path d="M39.8,87.1c-4.6-1.7-9-4.1-12.8-7.1l2.6,7.1l-2.6,7.1C30.8,91.2,35.1,88.8,39.8,87.1z"/>
<line class="st0" x1="39.8" y1="167.1" x2="0.8" y2="167.1"/>
<line class="st1" x1="30.7" y1="167.1" x2="0.8" y2="167.1"/>
<path d="M39.8,167.1c-4.6-1.7-9-4.1-12.8-7.1l2.6,7.1l-2.6,7.1C30.8,171.2,35.1,168.8,39.8,167.1z"/>
</svg>
