<svg id="Capa_1" data-name="Capa 1" xmlns="http://www.w3.org/2000/svg" viewBox="0 0 366.89 453.45"><path d="M36.81,51.19H24.94V28.78H36.31v2.38H27.56v7.45h8.1V41h-8.1v7.84h9.25Z" transform="translate(-22.22 -27.5)"/><path d="M43.34,51.19H40.78V27.5h2.56Z" transform="translate(-22.22 -27.5)"/><path d="M59.92,48.88h-.06v9.67H57.3V35.19h2.56V38h.06a6.08,6.08,0,0,1,5.53-3.19A5.87,5.87,0,0,1,70.28,37,8.87,8.87,0,0,1,72,42.72a9.93,9.93,0,0,1-2,6.43,6.49,6.49,0,0,1-5.34,2.41A5.36,5.36,0,0,1,59.92,48.88Zm-.06-6.46v2.24A4.74,4.74,0,0,0,61.15,48a4.58,4.58,0,0,0,6.92-.4,8.14,8.14,0,0,0,1.32-4.95,6.49,6.49,0,0,0-1.23-4.19A4.1,4.1,0,0,0,64.81,37a4.54,4.54,0,0,0-3.59,1.55A5.71,5.71,0,0,0,59.86,42.42Z" transform="translate(-22.22 -27.5)"/><path d="M84.45,37.78a3.15,3.15,0,0,0-1.93-.51,3.28,3.28,0,0,0-2.75,1.54A7.19,7.19,0,0,0,78.67,43v8.16H76.11v-16h2.56v3.29h.06a5.65,5.65,0,0,1,1.68-2.63,3.79,3.79,0,0,1,2.51-.94,4.31,4.31,0,0,1,1.53.21Z" transform="translate(-22.22 -27.5)"/><path d="M93.92,51.56a7.4,7.4,0,0,1-5.66-2.24,8.31,8.31,0,0,1-2.12-5.94,8.69,8.69,0,0,1,2.2-6.3,7.94,7.94,0,0,1,6-2.27A7.17,7.17,0,0,1,99.88,37a8.7,8.7,0,0,1,2,6.1,8.62,8.62,0,0,1-2.16,6.14A7.62,7.62,0,0,1,93.92,51.56ZM94.11,37a4.88,4.88,0,0,0-3.91,1.68,6.88,6.88,0,0,0-1.43,4.63,6.54,6.54,0,0,0,1.45,4.49,4.94,4.94,0,0,0,3.89,1.64,4.69,4.69,0,0,0,3.82-1.61,7,7,0,0,0,1.34-4.58,7.14,7.14,0,0,0-1.34-4.63A4.66,4.66,0,0,0,94.11,37Z" transform="translate(-22.22 -27.5)"/><path d="M119.64,51.19h-2.56V48.47H117a6.46,6.46,0,0,1-10.32.94,8.77,8.77,0,0,1-1.81-5.85,9.63,9.63,0,0,1,2-6.36,6.6,6.6,0,0,1,5.33-2.39,5.13,5.13,0,0,1,4.8,2.6h.06V27.5h2.56ZM117.08,44V41.59a4.6,4.6,0,0,0-1.28-3.28A4.33,4.33,0,0,0,112.55,37a4.4,4.4,0,0,0-3.69,1.72,7.5,7.5,0,0,0-1.34,4.75,6.8,6.8,0,0,0,1.28,4.36,4.23,4.23,0,0,0,3.47,1.61,4.38,4.38,0,0,0,3.47-1.55A5.76,5.76,0,0,0,117.08,44Z" transform="translate(-22.22 -27.5)"/><path d="M137.77,51.19H135.2V48.66h-.06a5.27,5.27,0,0,1-4.94,2.9q-5.71,0-5.72-6.81V35.19H127v9.15q0,5.07,3.88,5.07A3.89,3.89,0,0,0,134,48a5.25,5.25,0,0,0,1.21-3.61V35.19h2.57Z" transform="translate(-22.22 -27.5)"/><path d="M153.84,50.45a8.3,8.3,0,0,1-4.37,1.11A7.25,7.25,0,0,1,144,49.34a8.05,8.05,0,0,1-2.11-5.78,8.88,8.88,0,0,1,2.27-6.35,7.93,7.93,0,0,1,6-2.4,8.47,8.47,0,0,1,3.72.78v2.63A6.55,6.55,0,0,0,150.06,37a5.13,5.13,0,0,0-4,1.76,6.64,6.64,0,0,0-1.57,4.61A6.32,6.32,0,0,0,146,47.78a5.09,5.09,0,0,0,4,1.63A6.46,6.46,0,0,0,153.84,48Z" transform="translate(-22.22 -27.5)"/><path d="M165.14,51a5,5,0,0,1-2.39.5q-4.2,0-4.2-4.69V37.38H155.8V35.19h2.75V31.28l2.56-.83v4.74h4v2.19h-4v9a3.72,3.72,0,0,0,.55,2.3,2.16,2.16,0,0,0,1.81.69,2.67,2.67,0,0,0,1.67-.54Z" transform="translate(-22.22 -27.5)"/><path d="M175.25,51.56a7.4,7.4,0,0,1-5.66-2.24,8.26,8.26,0,0,1-2.12-5.94,8.65,8.65,0,0,1,2.2-6.3,7.92,7.92,0,0,1,6-2.27A7.18,7.18,0,0,1,181.21,37a8.7,8.7,0,0,1,2,6.1,8.58,8.58,0,0,1-2.17,6.14A7.58,7.58,0,0,1,175.25,51.56ZM175.44,37a4.88,4.88,0,0,0-3.91,1.68,6.88,6.88,0,0,0-1.44,4.63,6.54,6.54,0,0,0,1.46,4.49,4.94,4.94,0,0,0,3.89,1.64,4.7,4.7,0,0,0,3.82-1.61,7,7,0,0,0,1.33-4.58,7.13,7.13,0,0,0-1.33-4.63A4.68,4.68,0,0,0,175.44,37Z" transform="translate(-22.22 -27.5)"/><path d="M208.94,43.83h-11.3A6,6,0,0,0,199.08,48a4.93,4.93,0,0,0,3.78,1.46,7.86,7.86,0,0,0,5-1.79V50a9.31,9.31,0,0,1-5.58,1.53,6.74,6.74,0,0,1-5.33-2.18A8.91,8.91,0,0,1,195,43.25a8.77,8.77,0,0,1,2.12-6.09,6.82,6.82,0,0,1,5.26-2.35,6,6,0,0,1,4.86,2,8.52,8.52,0,0,1,1.72,5.64Zm-2.63-2.17a5.21,5.21,0,0,0-1.07-3.46A3.65,3.65,0,0,0,202.31,37a4.13,4.13,0,0,0-3.08,1.3,5.89,5.89,0,0,0-1.56,3.39Z" transform="translate(-22.22 -27.5)"/><path d="M211.84,50.61V47.86a7.62,7.62,0,0,0,4.61,1.55c2.25,0,3.38-.75,3.38-2.25a2,2,0,0,0-.29-1.09,2.79,2.79,0,0,0-.78-.79,6.62,6.62,0,0,0-1.16-.62l-1.43-.57a17.66,17.66,0,0,1-1.87-.85,5.57,5.57,0,0,1-1.34-1,3.52,3.52,0,0,1-.81-1.22,4.42,4.42,0,0,1-.27-1.61,3.83,3.83,0,0,1,.51-2A4.47,4.47,0,0,1,213.77,36a6.37,6.37,0,0,1,2-.88,8.57,8.57,0,0,1,2.27-.3,9.21,9.21,0,0,1,3.72.72v2.59A7.25,7.25,0,0,0,217.66,37a4.72,4.72,0,0,0-1.3.16,3.24,3.24,0,0,0-1,.46,2.15,2.15,0,0,0-.64.71,1.93,1.93,0,0,0-.23.92,2.23,2.23,0,0,0,.23,1.05,2.32,2.32,0,0,0,.66.75,5.8,5.8,0,0,0,1.06.59l1.43.58c.7.27,1.34.55,1.9.83a6.83,6.83,0,0,1,1.44,1,4.18,4.18,0,0,1,.71,5,4.51,4.51,0,0,1-1.4,1.45,6.3,6.3,0,0,1-2,.86,9.92,9.92,0,0,1-2.4.28A9.16,9.16,0,0,1,211.84,50.61Z" transform="translate(-22.22 -27.5)"/><path d="M237.3,50.45a8.34,8.34,0,0,1-4.38,1.11,7.25,7.25,0,0,1-5.52-2.22,8.09,8.09,0,0,1-2.1-5.78,8.88,8.88,0,0,1,2.26-6.35,7.93,7.93,0,0,1,6.05-2.4,8.44,8.44,0,0,1,3.72.78v2.63A6.55,6.55,0,0,0,233.52,37a5.14,5.14,0,0,0-4,1.76,6.69,6.69,0,0,0-1.57,4.61,6.32,6.32,0,0,0,1.48,4.44,5.09,5.09,0,0,0,4,1.63A6.49,6.49,0,0,0,237.3,48Z" transform="translate(-22.22 -27.5)"/><path d="M252.62,51.19h-2.56v-2.5H250a5.38,5.38,0,0,1-4.92,2.87,5.26,5.26,0,0,1-3.74-1.26A4.38,4.38,0,0,1,240,46.94q0-4.48,5.29-5.22l4.79-.67q0-4.08-3.29-4.08a7.83,7.83,0,0,0-5.22,2V36.31a9.89,9.89,0,0,1,5.43-1.5q5.64,0,5.64,6Zm-2.56-8.1-3.86.53a6.31,6.31,0,0,0-2.68.89,2.53,2.53,0,0,0-.91,2.24,2.42,2.42,0,0,0,.84,1.91,3.17,3.17,0,0,0,2.22.75,4.13,4.13,0,0,0,3.15-1.34,4.76,4.76,0,0,0,1.24-3.38Z" transform="translate(-22.22 -27.5)"/><path d="M260,51.19h-2.57V27.5H260Z" transform="translate(-22.22 -27.5)"/><path d="M276.66,51.19h-2.57v-2.5H274a5.36,5.36,0,0,1-4.92,2.87,5.27,5.27,0,0,1-3.74-1.26A4.41,4.41,0,0,1,264,46.94q0-4.48,5.28-5.22l4.79-.67q0-4.08-3.29-4.08a7.83,7.83,0,0,0-5.22,2V36.31a9.9,9.9,0,0,1,5.44-1.5q5.64,0,5.64,6Zm-2.57-8.1-3.86.53a6.31,6.31,0,0,0-2.68.89,2.53,2.53,0,0,0-.91,2.24,2.42,2.42,0,0,0,.84,1.91,3.19,3.19,0,0,0,2.22.75,4.13,4.13,0,0,0,3.15-1.34,4.76,4.76,0,0,0,1.24-3.38Z" transform="translate(-22.22 -27.5)"/><path d="M289.83,37.78a3.18,3.18,0,0,0-1.94-.51,3.26,3.26,0,0,0-2.74,1.54,7.12,7.12,0,0,0-1.1,4.22v8.16h-2.57v-16h2.57v3.29h.06a5.56,5.56,0,0,1,1.67-2.63,3.81,3.81,0,0,1,2.52-.94,4.38,4.38,0,0,1,1.53.21Z" transform="translate(-22.22 -27.5)"/><path d="M315,51.19h-2.56V48.47h-.06a6.46,6.46,0,0,1-10.32.94,8.77,8.77,0,0,1-1.81-5.85,9.63,9.63,0,0,1,2-6.36,6.6,6.6,0,0,1,5.33-2.39,5.13,5.13,0,0,1,4.8,2.6h.06V27.5H315ZM312.47,44V41.59a4.6,4.6,0,0,0-1.28-3.28A4.33,4.33,0,0,0,307.94,37a4.43,4.43,0,0,0-3.69,1.72,7.5,7.5,0,0,0-1.34,4.75,6.74,6.74,0,0,0,1.29,4.36,4.2,4.2,0,0,0,3.46,1.61,4.38,4.38,0,0,0,3.47-1.55A5.76,5.76,0,0,0,312.47,44Z" transform="translate(-22.22 -27.5)"/><path d="M333.08,43.83h-11.3A6,6,0,0,0,323.22,48,5,5,0,0,0,327,49.41a7.86,7.86,0,0,0,5-1.79V50a9.31,9.31,0,0,1-5.58,1.53,6.74,6.74,0,0,1-5.33-2.18,8.91,8.91,0,0,1-1.94-6.13,8.77,8.77,0,0,1,2.12-6.09,6.82,6.82,0,0,1,5.26-2.35,6,6,0,0,1,4.86,2,8.52,8.52,0,0,1,1.72,5.64Zm-2.63-2.17a5.21,5.21,0,0,0-1.07-3.46A3.65,3.65,0,0,0,326.45,37a4.1,4.1,0,0,0-3.07,1.3,5.84,5.84,0,0,0-1.57,3.39Z" transform="translate(-22.22 -27.5)"/><path d="M38.25,89.59H35.69V86.87h-.07A5.91,5.91,0,0,1,30.12,90a6,6,0,0,1-4.82-2.15A8.82,8.82,0,0,1,23.5,82a9.63,9.63,0,0,1,2-6.36,6.6,6.6,0,0,1,5.33-2.39,5.12,5.12,0,0,1,4.79,2.6h.07V65.9h2.56Zm-2.56-7.24V80a4.6,4.6,0,0,0-1.28-3.28,4.33,4.33,0,0,0-3.25-1.34,4.4,4.4,0,0,0-3.69,1.72,7.5,7.5,0,0,0-1.35,4.75,6.74,6.74,0,0,0,1.29,4.36,4.23,4.23,0,0,0,3.47,1.61,4.38,4.38,0,0,0,3.47-1.55A5.76,5.76,0,0,0,35.69,82.35Z" transform="translate(-22.22 -27.5)"/><path d="M50.12,90a7.4,7.4,0,0,1-5.66-2.24,8.31,8.31,0,0,1-2.12-6,8.64,8.64,0,0,1,2.21-6.29,7.92,7.92,0,0,1,6-2.27,7.18,7.18,0,0,1,5.59,2.21,8.74,8.74,0,0,1,2,6.1,8.62,8.62,0,0,1-2.16,6.14A7.61,7.61,0,0,1,50.12,90Zm.19-14.59a4.86,4.86,0,0,0-3.9,1.68A6.88,6.88,0,0,0,45,81.68a6.54,6.54,0,0,0,1.45,4.49,5,5,0,0,0,3.89,1.64,4.69,4.69,0,0,0,3.82-1.61,7,7,0,0,0,1.34-4.58A7.14,7.14,0,0,0,54.13,77,4.66,4.66,0,0,0,50.31,75.37Z" transform="translate(-22.22 -27.5)"/><path d="M61.22,89V86.26a7.58,7.58,0,0,0,4.61,1.55c2.25,0,3.37-.75,3.37-2.25a1.91,1.91,0,0,0-.29-1.09,2.79,2.79,0,0,0-.78-.79A6.51,6.51,0,0,0,67,83.06l-1.43-.57a17.66,17.66,0,0,1-1.87-.85,5.38,5.38,0,0,1-1.34-1,3.7,3.7,0,0,1-.82-1.22,4.42,4.42,0,0,1-.27-1.61,3.74,3.74,0,0,1,.52-2,4.54,4.54,0,0,1,1.37-1.46,6.48,6.48,0,0,1,2-.88,8.64,8.64,0,0,1,2.28-.3,9.13,9.13,0,0,1,3.71.72v2.59A7.23,7.23,0,0,0,67,75.37a4.77,4.77,0,0,0-1.3.16,3.48,3.48,0,0,0-1,.46,2.26,2.26,0,0,0-.64.71,1.92,1.92,0,0,0-.22.92,2,2,0,0,0,.89,1.8,5.48,5.48,0,0,0,1.06.59c.41.18.89.37,1.42.58.71.27,1.34.55,1.91.83a6.51,6.51,0,0,1,1.43,1,3.93,3.93,0,0,1,.92,1.24,4.09,4.09,0,0,1,.32,1.68,3.92,3.92,0,0,1-.53,2.06,4.37,4.37,0,0,1-1.39,1.45,6.45,6.45,0,0,1-2,.86A9.84,9.84,0,0,1,65.5,90,9.13,9.13,0,0,1,61.22,89Z" transform="translate(-22.22 -27.5)"/><path d="M97.11,73.59l-6.38,16H88.22l-6.06-16H85L89,85.21a10.42,10.42,0,0,1,.56,2.24h.07a10.42,10.42,0,0,1,.5-2.18l4.25-11.68Z" transform="translate(-22.22 -27.5)"/><path d="M112.72,82.23h-11.3a6,6,0,0,0,1.44,4.12,5,5,0,0,0,3.78,1.46,7.86,7.86,0,0,0,5-1.79v2.41A9.31,9.31,0,0,1,106,90a6.74,6.74,0,0,1-5.33-2.18,8.91,8.91,0,0,1-1.93-6.13,8.77,8.77,0,0,1,2.11-6.09,6.82,6.82,0,0,1,5.26-2.35,6,6,0,0,1,4.86,2,8.47,8.47,0,0,1,1.72,5.64Zm-2.63-2.17A5.21,5.21,0,0,0,109,76.6a3.65,3.65,0,0,0-2.93-1.23,4.11,4.11,0,0,0-3.07,1.3,5.84,5.84,0,0,0-1.57,3.39Z" transform="translate(-22.22 -27.5)"/><path d="M127.5,88.85A8.34,8.34,0,0,1,123.12,90a7.25,7.25,0,0,1-5.52-2.22A8.09,8.09,0,0,1,115.5,82a8.84,8.84,0,0,1,2.27-6.35,7.91,7.91,0,0,1,6-2.4,8.41,8.41,0,0,1,3.72.78v2.63a6.55,6.55,0,0,0-3.81-1.25,5.1,5.1,0,0,0-4,1.76,6.65,6.65,0,0,0-1.58,4.61,6.37,6.37,0,0,0,1.48,4.44,5.12,5.12,0,0,0,4,1.63,6.47,6.47,0,0,0,3.94-1.39Z" transform="translate(-22.22 -27.5)"/><path d="M138.8,89.43a5,5,0,0,1-2.39.5q-4.22,0-4.21-4.69V75.77h-2.75V73.59h2.75V69.68l2.57-.83v4.74h4v2.18h-4v9a3.79,3.79,0,0,0,.54,2.3,2.18,2.18,0,0,0,1.81.68,2.68,2.68,0,0,0,1.68-.53Z" transform="translate(-22.22 -27.5)"/><path d="M148.91,90a7.4,7.4,0,0,1-5.67-2.24,8.31,8.31,0,0,1-2.12-6,8.64,8.64,0,0,1,2.21-6.29,7.92,7.92,0,0,1,5.95-2.27,7.18,7.18,0,0,1,5.59,2.21,8.7,8.7,0,0,1,2,6.1,8.62,8.62,0,0,1-2.17,6.14A7.6,7.6,0,0,1,148.91,90Zm.18-14.59a4.87,4.87,0,0,0-3.9,1.68,6.88,6.88,0,0,0-1.44,4.63,6.54,6.54,0,0,0,1.45,4.49,5,5,0,0,0,3.89,1.64,4.69,4.69,0,0,0,3.82-1.61,7,7,0,0,0,1.34-4.58A7.14,7.14,0,0,0,152.91,77,4.66,4.66,0,0,0,149.09,75.37Z" transform="translate(-22.22 -27.5)"/><path d="M169.31,76.18a3.15,3.15,0,0,0-1.93-.51,3.28,3.28,0,0,0-2.75,1.54,7.19,7.19,0,0,0-1.1,4.22v8.16H161v-16h2.56v3.29h.06a5.65,5.65,0,0,1,1.68-2.63,3.79,3.79,0,0,1,2.51-.94,4.31,4.31,0,0,1,1.53.21Z" transform="translate(-22.22 -27.5)"/><path d="M185,82.23H173.66a6,6,0,0,0,1.43,4.12,5,5,0,0,0,3.79,1.46,7.84,7.84,0,0,0,5-1.79v2.41A9.26,9.26,0,0,1,178.27,90a6.73,6.73,0,0,1-5.33-2.18A8.91,8.91,0,0,1,171,81.65a8.77,8.77,0,0,1,2.12-6.09,6.81,6.81,0,0,1,5.26-2.35,6,6,0,0,1,4.85,2A8.47,8.47,0,0,1,185,80.88Zm-2.62-2.17a5.26,5.26,0,0,0-1.07-3.46,3.66,3.66,0,0,0-2.93-1.23,4.12,4.12,0,0,0-3.08,1.3,5.89,5.89,0,0,0-1.56,3.39Z" transform="translate(-22.22 -27.5)"/><path d="M187.86,89V86.26a7.58,7.58,0,0,0,4.61,1.55c2.25,0,3.37-.75,3.37-2.25a1.91,1.91,0,0,0-.29-1.09,2.79,2.79,0,0,0-.78-.79,6.18,6.18,0,0,0-1.15-.62l-1.43-.57a17.66,17.66,0,0,1-1.87-.85,5.38,5.38,0,0,1-1.34-1,3.7,3.7,0,0,1-.82-1.22,4.42,4.42,0,0,1-.27-1.61,3.74,3.74,0,0,1,.52-2,4.54,4.54,0,0,1,1.37-1.46,6.48,6.48,0,0,1,2-.88,8.64,8.64,0,0,1,2.28-.3,9.13,9.13,0,0,1,3.71.72v2.59a7.23,7.23,0,0,0-4.06-1.15,4.65,4.65,0,0,0-1.29.16,3.42,3.42,0,0,0-1,.46,2.26,2.26,0,0,0-.64.71,1.92,1.92,0,0,0-.22.92,2,2,0,0,0,.89,1.8,5.48,5.48,0,0,0,1.06.59l1.42.58c.71.27,1.34.55,1.91.83a6.51,6.51,0,0,1,1.43,1,3.93,3.93,0,0,1,.92,1.24,4.09,4.09,0,0,1,.32,1.68,4,4,0,0,1-.52,2.06,4.51,4.51,0,0,1-1.4,1.45,6.45,6.45,0,0,1-2,.86,9.84,9.84,0,0,1-2.39.28A9.13,9.13,0,0,1,187.86,89Z" transform="translate(-22.22 -27.5)"/><path d="M228.86,89.59H226l-2.37-6.28h-9.5l-2.24,6.28h-2.92l8.6-22.41h2.71ZM222.72,81,219.2,71.4a9.1,9.1,0,0,1-.34-1.5h-.06a9.21,9.21,0,0,1-.36,1.5L215,81Z" transform="translate(-22.22 -27.5)"/><path d="M253.31,73.59,246,92.15q-2,5-5.53,5a6.05,6.05,0,0,1-1.67-.2v-2.3a4.68,4.68,0,0,0,1.52.28c1.29,0,2.26-.77,2.9-2.31l1.28-3-6.25-16h2.85l4.33,12.31c.05.16.16.56.32,1.22h.1c0-.25.15-.65.31-1.19l4.55-12.34Z" transform="translate(-22.22 -27.5)"/><path d="M265.17,89.59V67.18h6.38a7,7,0,0,1,4.61,1.42,4.63,4.63,0,0,1,1.7,3.71,5.43,5.43,0,0,1-1,3.31,5.59,5.59,0,0,1-2.85,2v.06a5.76,5.76,0,0,1,3.63,1.71A5.27,5.27,0,0,1,279,83.15a5.88,5.88,0,0,1-2.06,4.66,7.73,7.73,0,0,1-5.21,1.78Zm2.63-20v7.23h2.68a5.15,5.15,0,0,0,3.4-1,3.62,3.62,0,0,0,1.23-2.93q0-3.25-4.3-3.26Zm0,9.59v8.06h3.56A5.35,5.35,0,0,0,275,86.12a3.77,3.77,0,0,0,1.27-3q0-4-5.41-4Z" transform="translate(-22.22 -27.5)"/><path d="M291,89V86.26a7.58,7.58,0,0,0,4.61,1.55c2.25,0,3.37-.75,3.37-2.25a1.91,1.91,0,0,0-.29-1.09,2.79,2.79,0,0,0-.78-.79,6.51,6.51,0,0,0-1.15-.62l-1.43-.57a17.66,17.66,0,0,1-1.87-.85,5.38,5.38,0,0,1-1.34-1,3.7,3.7,0,0,1-.82-1.22,4.42,4.42,0,0,1-.27-1.61,3.74,3.74,0,0,1,.52-2,4.54,4.54,0,0,1,1.37-1.46,6.48,6.48,0,0,1,2-.88,8.63,8.63,0,0,1,2.27-.3,9.14,9.14,0,0,1,3.72.72v2.59a7.23,7.23,0,0,0-4.06-1.15,4.77,4.77,0,0,0-1.3.16,3.48,3.48,0,0,0-1,.46,2.26,2.26,0,0,0-.64.71,1.93,1.93,0,0,0-.23.92,2,2,0,0,0,.9,1.8,5.48,5.48,0,0,0,1.06.59c.41.18.89.37,1.42.58.71.27,1.34.55,1.91.83a6.51,6.51,0,0,1,1.43,1,3.93,3.93,0,0,1,.92,1.24,4.09,4.09,0,0,1,.32,1.68,3.92,3.92,0,0,1-.53,2.06,4.37,4.37,0,0,1-1.39,1.45,6.45,6.45,0,0,1-2,.86,9.84,9.84,0,0,1-2.39.28A9.13,9.13,0,0,1,291,89Z" transform="translate(-22.22 -27.5)"/><path d="M318.38,82.23h-11.3a6,6,0,0,0,1.44,4.12,4.93,4.93,0,0,0,3.78,1.46,7.88,7.88,0,0,0,5-1.79v2.41A9.31,9.31,0,0,1,311.69,90a6.74,6.74,0,0,1-5.33-2.18,8.91,8.91,0,0,1-1.94-6.13,8.77,8.77,0,0,1,2.12-6.09,6.81,6.81,0,0,1,5.26-2.35,6,6,0,0,1,4.86,2,8.52,8.52,0,0,1,1.72,5.64Zm-2.63-2.17a5.26,5.26,0,0,0-1.07-3.46,3.65,3.65,0,0,0-2.93-1.23,4.13,4.13,0,0,0-3.08,1.3,5.89,5.89,0,0,0-1.56,3.39Z" transform="translate(-22.22 -27.5)"/><path d="M38.25,128H35.69v-2.72h-.07a5.91,5.91,0,0,1-5.5,3.09,6,6,0,0,1-4.82-2.15,8.82,8.82,0,0,1-1.8-5.85,9.63,9.63,0,0,1,2-6.36,6.6,6.6,0,0,1,5.33-2.39,5.12,5.12,0,0,1,4.79,2.6h.07V104.3h2.56Zm-2.56-7.24v-2.36a4.6,4.6,0,0,0-1.28-3.28,4.33,4.33,0,0,0-3.25-1.34,4.4,4.4,0,0,0-3.69,1.72,7.5,7.5,0,0,0-1.35,4.75,6.74,6.74,0,0,0,1.29,4.36,4.23,4.23,0,0,0,3.47,1.61,4.38,4.38,0,0,0,3.47-1.55A5.76,5.76,0,0,0,35.69,120.75Z" transform="translate(-22.22 -27.5)"/><path d="M56.3,120.63H45a6,6,0,0,0,1.44,4.12,4.93,4.93,0,0,0,3.78,1.46,7.86,7.86,0,0,0,5-1.79v2.41a9.31,9.31,0,0,1-5.58,1.53,6.74,6.74,0,0,1-5.33-2.18,8.91,8.91,0,0,1-1.94-6.13A8.77,8.77,0,0,1,44.46,114a6.81,6.81,0,0,1,5.26-2.35,6,6,0,0,1,4.86,2,8.52,8.52,0,0,1,1.72,5.64Zm-2.63-2.17A5.26,5.26,0,0,0,52.6,115a3.65,3.65,0,0,0-2.93-1.23,4.13,4.13,0,0,0-3.08,1.3A5.89,5.89,0,0,0,45,118.46Z" transform="translate(-22.22 -27.5)"/><path d="M73.45,128H70.89v-9.13q0-5.08-3.72-5.09A4,4,0,0,0,64,115.21a5.36,5.36,0,0,0-1.26,3.65V128H60.17V112h2.56v2.65h.07a5.76,5.76,0,0,1,5.25-3,4.88,4.88,0,0,1,4,1.7,7.53,7.53,0,0,1,1.39,4.9Z" transform="translate(-22.22 -27.5)"/><path d="M85,128.36a7.42,7.42,0,0,1-5.67-2.24,8.31,8.31,0,0,1-2.11-6,8.64,8.64,0,0,1,2.2-6.29,7.92,7.92,0,0,1,6-2.27,7.18,7.18,0,0,1,5.59,2.21,8.7,8.7,0,0,1,2,6.1,8.58,8.58,0,0,1-2.17,6.14A7.58,7.58,0,0,1,85,128.36Zm.19-14.59a4.88,4.88,0,0,0-3.91,1.68,6.88,6.88,0,0,0-1.44,4.63,6.54,6.54,0,0,0,1.46,4.49,4.93,4.93,0,0,0,3.89,1.64A4.7,4.7,0,0,0,89,124.6,7,7,0,0,0,90.31,120,7.13,7.13,0,0,0,89,115.39,4.68,4.68,0,0,0,85.16,113.77Z" transform="translate(-22.22 -27.5)"/><path d="M104.45,127.83a5,5,0,0,1-2.39.5q-4.2,0-4.2-4.69v-9.47H95.11V112h2.75v-3.91l2.56-.83V112h4v2.18h-4v9a3.72,3.72,0,0,0,.55,2.3,2.17,2.17,0,0,0,1.81.68,2.65,2.65,0,0,0,1.67-.53Z" transform="translate(-22.22 -27.5)"/><path d="M119.33,128h-2.56v-2.5h-.07a5.36,5.36,0,0,1-4.92,2.87A5.27,5.27,0,0,1,108,127.1a4.41,4.41,0,0,1-1.35-3.36q0-4.48,5.28-5.22l4.8-.67q0-4.08-3.3-4.08a7.83,7.83,0,0,0-5.22,2v-2.63a9.92,9.92,0,0,1,5.44-1.5q5.64,0,5.64,6Zm-2.56-8.1-3.86.53a6.31,6.31,0,0,0-2.69.89,2.53,2.53,0,0,0-.91,2.24,2.42,2.42,0,0,0,.84,1.91,3.22,3.22,0,0,0,2.23.75,4.09,4.09,0,0,0,3.14-1.34,4.77,4.77,0,0,0,1.25-3.38Z" transform="translate(-22.22 -27.5)"/><path d="M143.83,127.25a8.34,8.34,0,0,1-4.38,1.11,7.25,7.25,0,0,1-5.52-2.22,8.09,8.09,0,0,1-2.1-5.78,8.88,8.88,0,0,1,2.26-6.35,7.93,7.93,0,0,1,6-2.4,8.41,8.41,0,0,1,3.72.78V115a6.55,6.55,0,0,0-3.81-1.25,5.14,5.14,0,0,0-4,1.76,6.69,6.69,0,0,0-1.57,4.61,6.37,6.37,0,0,0,1.48,4.44,5.09,5.09,0,0,0,4,1.63,6.47,6.47,0,0,0,3.94-1.39Z" transform="translate(-22.22 -27.5)"/><path d="M154.39,128.36a7.4,7.4,0,0,1-5.66-2.24,8.27,8.27,0,0,1-2.12-6,8.64,8.64,0,0,1,2.2-6.29,7.94,7.94,0,0,1,6-2.27,7.17,7.17,0,0,1,5.58,2.21,10,10,0,0,1-.15,12.24A7.62,7.62,0,0,1,154.39,128.36Zm.19-14.59a4.88,4.88,0,0,0-3.91,1.68,6.88,6.88,0,0,0-1.44,4.63,6.54,6.54,0,0,0,1.46,4.49,4.94,4.94,0,0,0,3.89,1.64,4.7,4.7,0,0,0,3.82-1.61,7,7,0,0,0,1.33-4.58,7.13,7.13,0,0,0-1.33-4.63A4.68,4.68,0,0,0,154.58,113.77Z" transform="translate(-22.22 -27.5)"/><path d="M189.17,128h-2.56V118.8a6.89,6.89,0,0,0-.82-3.84,3.1,3.1,0,0,0-2.76-1.19,3.43,3.43,0,0,0-2.79,1.5,5.77,5.77,0,0,0-1.15,3.59V128h-2.56v-9.5q0-4.72-3.64-4.72a3.38,3.38,0,0,0-2.78,1.41,5.85,5.85,0,0,0-1.09,3.68V128h-2.57V112H169v2.53h.06a5.43,5.43,0,0,1,5-2.91,4.64,4.64,0,0,1,4.53,3.31,5.72,5.72,0,0,1,5.31-3.31q5.28,0,5.28,6.52Z" transform="translate(-22.22 -27.5)"/><path d="M200.7,128.36a7.4,7.4,0,0,1-5.66-2.24,8.31,8.31,0,0,1-2.12-6,8.68,8.68,0,0,1,2.2-6.29,7.94,7.94,0,0,1,6-2.27,7.16,7.16,0,0,1,5.58,2.21,10,10,0,0,1-.15,12.24A7.62,7.62,0,0,1,200.7,128.36Zm.19-14.59a4.88,4.88,0,0,0-3.91,1.68,6.93,6.93,0,0,0-1.43,4.63,6.54,6.54,0,0,0,1.45,4.49,5,5,0,0,0,3.89,1.64,4.69,4.69,0,0,0,3.82-1.61,7,7,0,0,0,1.34-4.58,7.14,7.14,0,0,0-1.34-4.63A4.66,4.66,0,0,0,200.89,113.77Z" transform="translate(-22.22 -27.5)"/><path d="M239.22,128h-2.91l-2.37-6.28h-9.5L222.2,128h-2.92l8.6-22.41h2.71Zm-6.14-8.64-3.52-9.55a9.1,9.1,0,0,1-.34-1.5h-.06a9.21,9.21,0,0,1-.36,1.5l-3.49,9.55Z" transform="translate(-22.22 -27.5)"/><path d="M260.05,128V105.58h6.37A7,7,0,0,1,271,107a4.6,4.6,0,0,1,1.7,3.71,5.43,5.43,0,0,1-1,3.31,5.52,5.52,0,0,1-2.84,2v.06a5.7,5.7,0,0,1,3.62,1.71,5.27,5.27,0,0,1,1.36,3.76,5.85,5.85,0,0,1-2.06,4.66,7.7,7.7,0,0,1-5.2,1.78Zm2.62-20v7.23h2.69a5.11,5.11,0,0,0,3.39-1,3.62,3.62,0,0,0,1.23-2.93c0-2.18-1.43-3.26-4.29-3.26Zm0,9.59v8.06h3.56a5.33,5.33,0,0,0,3.59-1.09,3.74,3.74,0,0,0,1.27-3q0-4-5.4-4Z" transform="translate(-22.22 -27.5)"/><path d="M302.53,116.36H287.84V114.3h14.69Zm0,6.66H287.84V121h14.69Z" transform="translate(-22.22 -27.5)"/><path d="M42.28,166.39h-2.9L37,160.11H27.5l-2.23,6.28H22.34L30.94,144h2.72Zm-6.14-8.64-3.52-9.55a10.28,10.28,0,0,1-.34-1.5h-.06a9.21,9.21,0,0,1-.36,1.5l-3.48,9.55Z" transform="translate(-22.22 -27.5)"/><path d="M44.46,155.28c1.38-2.14,2.79-3.32,3.81-3.32s1.51,1,2.24,3.48l.48,1.7c2.79-3.84,4.16-5.18,5.6-5.18a1.27,1.27,0,0,1,1.35,1.37,2.34,2.34,0,0,1-.77,1.54c-.29.22-.48.29-.67.25-.36-.06-.71-.86-1.19-.86-.7,0-1.92,1.28-4,4.1l1.06,3.26c.61,1.92,1.09,2.88,1.63,2.88s1.09-.38,2.34-1.89l.57.74c-1.37,2.17-2.94,3.42-4.09,3.42-.87,0-1.57-1.05-2.34-3.45l-.86-2.79c-3.14,4.51-4.51,6.24-5.95,6.24a1.38,1.38,0,0,1-1.41-1.5c0-.93.8-1.92,1.41-1.92.44,0,.73.86,1.18.86s1.6-1,4.42-4.89l-.87-2.82c-.54-1.73-.83-2.34-1.28-2.34s-1,.32-2,1.83Z" transform="translate(-22.22 -27.5)"/><path d="M60.43,166.39V144H66.8a7,7,0,0,1,4.61,1.42,4.6,4.6,0,0,1,1.7,3.71,5.43,5.43,0,0,1-1,3.31,5.56,5.56,0,0,1-2.84,2v.06a5.7,5.7,0,0,1,3.62,1.71A5.27,5.27,0,0,1,74.22,160a5.85,5.85,0,0,1-2.06,4.66,7.7,7.7,0,0,1-5.2,1.78Zm2.62-20v7.23h2.69a5.11,5.11,0,0,0,3.39-1,3.62,3.62,0,0,0,1.23-2.93q0-3.26-4.29-3.26Zm0,9.59V164h3.56a5.35,5.35,0,0,0,3.59-1.09,3.74,3.74,0,0,0,1.27-3q0-4-5.4-4Z" transform="translate(-22.22 -27.5)"/><path d="M77.66,155.28c1.37-2.14,2.78-3.32,3.8-3.32s1.51,1,2.24,3.48l.48,1.7C87,153.3,88.34,152,89.78,152a1.27,1.27,0,0,1,1.35,1.37,2.34,2.34,0,0,1-.77,1.54c-.29.22-.48.29-.67.25-.36-.06-.71-.86-1.19-.86-.7,0-1.92,1.28-4,4.1l1,3.26c.61,1.92,1.09,2.88,1.63,2.88s1.09-.38,2.34-1.89l.57.74c-1.37,2.17-2.94,3.42-4.09,3.42-.86,0-1.57-1.05-2.34-3.45l-.86-2.79c-3.14,4.51-4.51,6.24-6,6.24a1.39,1.39,0,0,1-1.41-1.5c0-.93.8-1.92,1.41-1.92.45,0,.73.86,1.18.86s1.6-1,4.42-4.89l-.87-2.82c-.54-1.73-.83-2.34-1.28-2.34s-1,.32-2,1.83Z" transform="translate(-22.22 -27.5)"/><path d="M109,158.11h-6.31v6.29H100.6v-6.29H94.3V156h6.3v-6.29h2.08V156H109Z" transform="translate(-22.22 -27.5)"/><path d="M132.85,166.39H130l-2.38-6.28h-9.5l-2.23,6.28h-2.93l8.6-22.41h2.72Zm-6.14-8.64-3.51-9.55a8.88,8.88,0,0,1-.35-1.5h-.06a9.21,9.21,0,0,1-.36,1.5L119,157.75Z" transform="translate(-22.22 -27.5)"/><path d="M134.27,155.12c1-1.47,2.78-3.16,3.93-3.16s1.54,2,1.73,4.83.35,5.57.48,7.61c1.44-2.14,4.64-6.68,4.61-9a3.78,3.78,0,0,0-.48-1.57.87.87,0,0,1,.13-1,2.15,2.15,0,0,1,1.47-.83c.73,0,1.18.7,1.18,1.76a8.23,8.23,0,0,1-1.12,3.68,101.88,101.88,0,0,1-11.61,16.28l-3.33.87-.29-.74A28.88,28.88,0,0,0,138.3,167c0-2.56-.42-7.17-.71-10.08-.19-1.95-.51-2.69-.83-2.69s-1.21.74-2,1.7Z" transform="translate(-22.22 -27.5)"/><path d="M150.2,166.39V144h6.37a7,7,0,0,1,4.61,1.42,4.6,4.6,0,0,1,1.7,3.71,5.43,5.43,0,0,1-1,3.31,5.52,5.52,0,0,1-2.84,2v.06a5.7,5.7,0,0,1,3.62,1.71A5.27,5.27,0,0,1,164,160a5.85,5.85,0,0,1-2.06,4.66,7.7,7.7,0,0,1-5.2,1.78Zm2.62-20v7.23h2.69a5.11,5.11,0,0,0,3.39-1,3.62,3.62,0,0,0,1.23-2.93q0-3.26-4.29-3.26Zm0,9.59V164h3.56a5.33,5.33,0,0,0,3.59-1.09,3.74,3.74,0,0,0,1.27-3q0-4-5.4-4Z" transform="translate(-22.22 -27.5)"/><path d="M166.66,155.12c1-1.47,2.78-3.16,3.93-3.16s1.54,2,1.73,4.83.35,5.57.48,7.61c1.44-2.14,4.64-6.68,4.61-9a3.78,3.78,0,0,0-.48-1.57.87.87,0,0,1,.13-1,2.15,2.15,0,0,1,1.47-.83c.74,0,1.18.7,1.18,1.76a8.23,8.23,0,0,1-1.12,3.68A101.88,101.88,0,0,1,167,173.68l-3.33.87-.29-.74a28.88,28.88,0,0,0,7.33-6.78c0-2.56-.42-7.17-.7-10.08-.2-1.95-.52-2.69-.84-2.69s-1.21.74-2,1.7Z" transform="translate(-22.22 -27.5)"/><path d="M206.73,154.76H192V152.7h14.69Zm0,6.66H192v-2.06h14.69Z" transform="translate(-22.22 -27.5)"/><path d="M230.59,166.39h-2.91l-2.37-6.28h-9.5l-2.24,6.28h-2.92L219.24,144H222Zm-6.14-8.64-3.52-9.55a9.1,9.1,0,0,1-.34-1.5h-.06a9.21,9.21,0,0,1-.36,1.5l-3.49,9.55Z" transform="translate(-22.22 -27.5)"/><path d="M233.88,166.39V144h6.38a7,7,0,0,1,4.61,1.42,4.63,4.63,0,0,1,1.7,3.71,5.43,5.43,0,0,1-1,3.31,5.56,5.56,0,0,1-2.84,2v.06a5.7,5.7,0,0,1,3.62,1.71,5.27,5.27,0,0,1,1.36,3.76,5.88,5.88,0,0,1-2.06,4.66,7.72,7.72,0,0,1-5.2,1.78Zm2.63-20v7.23h2.69a5.14,5.14,0,0,0,3.39-1,3.62,3.62,0,0,0,1.23-2.93q0-3.26-4.29-3.26Zm0,9.59V164h3.56a5.35,5.35,0,0,0,3.59-1.09,3.74,3.74,0,0,0,1.27-3q0-4-5.4-4Z" transform="translate(-22.22 -27.5)"/><path d="M262.79,165.65a8.33,8.33,0,0,1-4.37,1.11,7.25,7.25,0,0,1-5.53-2.22,8.09,8.09,0,0,1-2.1-5.78,8.88,8.88,0,0,1,2.27-6.35,7.91,7.91,0,0,1,6-2.4,8.41,8.41,0,0,1,3.72.78v2.63a6.55,6.55,0,0,0-3.81-1.25,5.1,5.1,0,0,0-4,1.76,6.64,6.64,0,0,0-1.57,4.61,6.36,6.36,0,0,0,1.47,4.44,5.12,5.12,0,0,0,4,1.63,6.47,6.47,0,0,0,3.94-1.39Z" transform="translate(-22.22 -27.5)"/><path d="M273.35,166.76a7.4,7.4,0,0,1-5.66-2.24,8.31,8.31,0,0,1-2.12-5.94,8.65,8.65,0,0,1,2.21-6.3,7.9,7.9,0,0,1,6-2.27,7.16,7.16,0,0,1,5.58,2.21,8.71,8.71,0,0,1,2,6.11,8.61,8.61,0,0,1-2.16,6.13A7.62,7.62,0,0,1,273.35,166.76Zm.19-14.59a4.88,4.88,0,0,0-3.91,1.68,6.93,6.93,0,0,0-1.43,4.63,6.54,6.54,0,0,0,1.45,4.49,5,5,0,0,0,3.89,1.64,4.69,4.69,0,0,0,3.82-1.61,7,7,0,0,0,1.34-4.58,7.14,7.14,0,0,0-1.34-4.63A4.66,4.66,0,0,0,273.54,152.17Z" transform="translate(-22.22 -27.5)"/><path d="M284.45,165.81v-2.75a7.58,7.58,0,0,0,4.61,1.55c2.25,0,3.37-.75,3.37-2.25a2,2,0,0,0-.29-1.09,2.79,2.79,0,0,0-.78-.79,6.51,6.51,0,0,0-1.15-.62l-1.43-.57a16.78,16.78,0,0,1-1.87-.85,5.44,5.44,0,0,1-1.35-1,3.67,3.67,0,0,1-.81-1.22,4.42,4.42,0,0,1-.27-1.61,3.83,3.83,0,0,1,.51-2,4.69,4.69,0,0,1,1.38-1.46,6.48,6.48,0,0,1,2-.88,8.57,8.57,0,0,1,2.27-.3,9.14,9.14,0,0,1,3.72.72v2.6a7.18,7.18,0,0,0-4.06-1.16,4.77,4.77,0,0,0-1.3.16,3.48,3.48,0,0,0-1,.46,2.15,2.15,0,0,0-.64.71,1.93,1.93,0,0,0-.23.92,2.23,2.23,0,0,0,.23,1.05,2.32,2.32,0,0,0,.66.75,5.91,5.91,0,0,0,1.07.59c.41.18.89.37,1.42.58a20.67,20.67,0,0,1,1.9.83,6.35,6.35,0,0,1,1.44,1,3.93,3.93,0,0,1,.92,1.24,4.09,4.09,0,0,1,.32,1.68,3.92,3.92,0,0,1-.53,2.06,4.4,4.4,0,0,1-1.4,1.45,6.3,6.3,0,0,1-2,.86,9.84,9.84,0,0,1-2.39.28A9.13,9.13,0,0,1,284.45,165.81Z" transform="translate(-22.22 -27.5)"/><path d="M317.26,155.38c0,7.42-4.51,11.36-10,11.36-5.7,0-9.7-4.42-9.7-10.94,0-6.85,4.26-11.33,10-11.33S317.26,149,317.26,155.38Zm-16.73.35c0,4.61,2.49,8.74,6.88,8.74s6.91-4.07,6.91-9c0-4.29-2.24-8.77-6.88-8.77S300.53,151,300.53,155.73Z" transform="translate(-22.22 -27.5)"/><path d="M330.17,162.83l-2.5,7.68h-1.83l1.83-7.68Z" transform="translate(-22.22 -27.5)"/><path d="M38.25,204.79H35.69v-2.72h-.07a5.91,5.91,0,0,1-5.5,3.09A6,6,0,0,1,25.3,203a8.82,8.82,0,0,1-1.8-5.85,9.63,9.63,0,0,1,2-6.36,6.6,6.6,0,0,1,5.33-2.39,5.12,5.12,0,0,1,4.79,2.6h.07V181.1h2.56Zm-2.56-7.24v-2.36a4.6,4.6,0,0,0-1.28-3.28,4.33,4.33,0,0,0-3.25-1.34,4.4,4.4,0,0,0-3.69,1.72A7.5,7.5,0,0,0,26.12,197a6.74,6.74,0,0,0,1.29,4.36A4.23,4.23,0,0,0,30.88,203a4.38,4.38,0,0,0,3.47-1.55A5.76,5.76,0,0,0,35.69,197.55Z" transform="translate(-22.22 -27.5)"/><path d="M56.3,197.43H45a6,6,0,0,0,1.44,4.12A4.93,4.93,0,0,0,50.22,203a7.91,7.91,0,0,0,5-1.78v2.4a9.31,9.31,0,0,1-5.58,1.53A6.74,6.74,0,0,1,44.28,203a8.91,8.91,0,0,1-1.94-6.13,8.77,8.77,0,0,1,2.12-6.09,6.81,6.81,0,0,1,5.26-2.35,6,6,0,0,1,4.86,2,8.52,8.52,0,0,1,1.72,5.64Zm-2.63-2.17a5.26,5.26,0,0,0-1.07-3.46,3.65,3.65,0,0,0-2.93-1.23,4.13,4.13,0,0,0-3.08,1.3A5.89,5.89,0,0,0,45,195.26Z" transform="translate(-22.22 -27.5)"/><path d="M62.8,202.48h-.07v2.31H60.17V181.1h2.56v10.5h.07a6.07,6.07,0,0,1,5.53-3.19,5.87,5.87,0,0,1,4.82,2.15,8.87,8.87,0,0,1,1.74,5.76,9.92,9.92,0,0,1-2,6.43,6.51,6.51,0,0,1-5.35,2.41A5.25,5.25,0,0,1,62.8,202.48ZM62.73,196v2.24A4.74,4.74,0,0,0,64,201.62,4.26,4.26,0,0,0,67.3,203,4.32,4.32,0,0,0,71,201.23a8.19,8.19,0,0,0,1.32-5A6.5,6.5,0,0,0,71,192.08a4.08,4.08,0,0,0-3.34-1.51,4.57,4.57,0,0,0-3.6,1.55A5.75,5.75,0,0,0,62.73,196Z" transform="translate(-22.22 -27.5)"/><path d="M80.3,184.73a1.66,1.66,0,0,1-1.18-.47,1.61,1.61,0,0,1-.48-1.19,1.63,1.63,0,0,1,.48-1.2,1.73,1.73,0,0,1,2.37,0,1.6,1.6,0,0,1,.49,1.2,1.56,1.56,0,0,1-.49,1.17A1.65,1.65,0,0,1,80.3,184.73Zm1.25,20.06H79v-16h2.57Z" transform="translate(-22.22 -27.5)"/><path d="M100.39,204.79H97.83v-2.72h-.06a6.46,6.46,0,0,1-10.32.94,8.77,8.77,0,0,1-1.81-5.85,9.63,9.63,0,0,1,2-6.36A6.6,6.6,0,0,1,93,188.41a5.13,5.13,0,0,1,4.8,2.6h.06V181.1h2.56Zm-2.56-7.24v-2.36a4.6,4.6,0,0,0-1.28-3.28,4.33,4.33,0,0,0-3.25-1.34,4.4,4.4,0,0,0-3.69,1.72A7.5,7.5,0,0,0,88.27,197a6.8,6.8,0,0,0,1.28,4.36A4.23,4.23,0,0,0,93,203a4.38,4.38,0,0,0,3.47-1.55A5.76,5.76,0,0,0,97.83,197.55Z" transform="translate(-22.22 -27.5)"/><path d="M112.27,205.16a7.4,7.4,0,0,1-5.67-2.24,8.31,8.31,0,0,1-2.12-5.94,8.65,8.65,0,0,1,2.21-6.3,7.92,7.92,0,0,1,6-2.27,7.18,7.18,0,0,1,5.59,2.21,8.75,8.75,0,0,1,2,6.11,8.61,8.61,0,0,1-2.16,6.13A7.6,7.6,0,0,1,112.27,205.16Zm.18-14.59a4.86,4.86,0,0,0-3.9,1.68,6.88,6.88,0,0,0-1.44,4.63,6.54,6.54,0,0,0,1.45,4.49,5,5,0,0,0,3.89,1.64,4.69,4.69,0,0,0,3.82-1.61,7,7,0,0,0,1.34-4.58,7.14,7.14,0,0,0-1.34-4.63A4.66,4.66,0,0,0,112.45,190.57Z" transform="translate(-22.22 -27.5)"/><path d="M144.55,204.79H142v-2.5h-.06a5.36,5.36,0,0,1-4.92,2.87,5.27,5.27,0,0,1-3.74-1.26,4.41,4.41,0,0,1-1.35-3.36q0-4.48,5.28-5.22l4.79-.67c0-2.72-1.09-4.08-3.29-4.08a7.88,7.88,0,0,0-5.22,2v-2.63a9.9,9.9,0,0,1,5.44-1.5q5.64,0,5.64,6Zm-2.57-8.1-3.86.54a6.18,6.18,0,0,0-2.68.88,2.53,2.53,0,0,0-.91,2.24,2.42,2.42,0,0,0,.84,1.91,3.19,3.19,0,0,0,2.22.75,4.13,4.13,0,0,0,3.15-1.34,4.76,4.76,0,0,0,1.24-3.38Z" transform="translate(-22.22 -27.5)"/><path d="M171,197.43H159.7a6,6,0,0,0,1.44,4.12,5,5,0,0,0,3.78,1.46,7.91,7.91,0,0,0,5-1.78v2.4a9.31,9.31,0,0,1-5.58,1.53A6.76,6.76,0,0,1,159,203a8.91,8.91,0,0,1-1.93-6.13,8.77,8.77,0,0,1,2.11-6.09,6.84,6.84,0,0,1,5.26-2.35,6,6,0,0,1,4.86,2,8.47,8.47,0,0,1,1.72,5.64Zm-2.62-2.17a5.26,5.26,0,0,0-1.08-3.46,3.64,3.64,0,0,0-2.92-1.23,4.12,4.12,0,0,0-3.08,1.3,5.84,5.84,0,0,0-1.57,3.39Z" transform="translate(-22.22 -27.5)"/><path d="M173.91,204.21v-2.75a7.58,7.58,0,0,0,4.61,1.55c2.25,0,3.37-.75,3.37-2.25a2,2,0,0,0-.29-1.09,2.79,2.79,0,0,0-.78-.79,6.28,6.28,0,0,0-1.16-.62l-1.43-.57a17.44,17.44,0,0,1-1.86-.85,5.44,5.44,0,0,1-1.35-1,3.52,3.52,0,0,1-.81-1.22,4.42,4.42,0,0,1-.27-1.61,3.83,3.83,0,0,1,.51-2,4.58,4.58,0,0,1,1.38-1.46,6.37,6.37,0,0,1,2-.88,8.57,8.57,0,0,1,2.27-.3,9.14,9.14,0,0,1,3.72.72v2.6a7.18,7.18,0,0,0-4.06-1.16,4.77,4.77,0,0,0-1.3.16,3.48,3.48,0,0,0-1,.46,2.15,2.15,0,0,0-.64.71,1.93,1.93,0,0,0-.23.92,2.23,2.23,0,0,0,.23,1.05,2.32,2.32,0,0,0,.66.75,5.59,5.59,0,0,0,1.07.59c.41.18.89.37,1.42.58a20.67,20.67,0,0,1,1.9.83,6.35,6.35,0,0,1,1.44,1,3.93,3.93,0,0,1,.92,1.24,4.09,4.09,0,0,1,.32,1.68,3.92,3.92,0,0,1-.53,2.06,4.4,4.4,0,0,1-1.4,1.45,6.3,6.3,0,0,1-2,.86,9.84,9.84,0,0,1-2.39.28A9.1,9.1,0,0,1,173.91,204.21Z" transform="translate(-22.22 -27.5)"/><path d="M195.88,204.63a5,5,0,0,1-2.4.5q-4.2,0-4.2-4.69V191h-2.75v-2.19h2.75v-3.91l2.56-.83v4.74h4V191h-4v9a3.79,3.79,0,0,0,.55,2.3,2.17,2.17,0,0,0,1.81.69,2.68,2.68,0,0,0,1.68-.54Z" transform="translate(-22.22 -27.5)"/><path d="M210.75,204.79h-2.56v-2.5h-.07a5.36,5.36,0,0,1-4.92,2.87,5.27,5.27,0,0,1-3.74-1.26,4.41,4.41,0,0,1-1.35-3.36q0-4.48,5.28-5.22l4.8-.67q0-4.08-3.3-4.08a7.88,7.88,0,0,0-5.22,2v-2.63a9.92,9.92,0,0,1,5.44-1.5q5.64,0,5.64,6Zm-2.56-8.1-3.86.54a6.18,6.18,0,0,0-2.69.88,2.55,2.55,0,0,0-.91,2.24,2.42,2.42,0,0,0,.84,1.91,3.22,3.22,0,0,0,2.23.75,4.13,4.13,0,0,0,3.15-1.34,4.81,4.81,0,0,0,1.24-3.38Z" transform="translate(-22.22 -27.5)"/><path d="M237.62,204.79h-2.56v-9.13q0-5.08-3.72-5.09a4,4,0,0,0-3.18,1.44,5.41,5.41,0,0,0-1.25,3.65v9.13h-2.57v-16h2.57v2.65H227a5.78,5.78,0,0,1,5.25-3,4.88,4.88,0,0,1,4,1.7,7.53,7.53,0,0,1,1.39,4.9Z" transform="translate(-22.22 -27.5)"/><path d="M249.14,205.16a7.4,7.4,0,0,1-5.66-2.24,8.26,8.26,0,0,1-2.12-5.94,8.65,8.65,0,0,1,2.2-6.3,7.94,7.94,0,0,1,6-2.27,7.17,7.17,0,0,1,5.58,2.21,8.71,8.71,0,0,1,2,6.11,8.61,8.61,0,0,1-2.16,6.13A7.62,7.62,0,0,1,249.14,205.16Zm.19-14.59a4.88,4.88,0,0,0-3.91,1.68,6.88,6.88,0,0,0-1.44,4.63,6.54,6.54,0,0,0,1.46,4.49,4.94,4.94,0,0,0,3.89,1.64,4.7,4.7,0,0,0,3.82-1.61,7,7,0,0,0,1.33-4.58,7.13,7.13,0,0,0-1.33-4.63A4.68,4.68,0,0,0,249.33,190.57Z" transform="translate(-22.22 -27.5)"/><path d="M268.62,204.63a5,5,0,0,1-2.39.5q-4.2,0-4.2-4.69V191h-2.75v-2.19H262v-3.91l2.56-.83v4.74h4V191h-4v9a3.79,3.79,0,0,0,.55,2.3A2.17,2.17,0,0,0,267,203a2.63,2.63,0,0,0,1.67-.54Z" transform="translate(-22.22 -27.5)"/><path d="M283.5,204.79h-2.56v-2.5h-.06a5.39,5.39,0,0,1-4.93,2.87,5.27,5.27,0,0,1-3.74-1.26,4.41,4.41,0,0,1-1.35-3.36q0-4.48,5.28-5.22l4.8-.67q0-4.08-3.3-4.08a7.88,7.88,0,0,0-5.22,2v-2.63a9.92,9.92,0,0,1,5.44-1.5q5.64,0,5.64,6Zm-2.56-8.1-3.86.54a6.18,6.18,0,0,0-2.69.88,2.55,2.55,0,0,0-.91,2.24,2.42,2.42,0,0,0,.84,1.91,3.22,3.22,0,0,0,2.23.75,4.13,4.13,0,0,0,3.15-1.34,4.81,4.81,0,0,0,1.24-3.38Z" transform="translate(-22.22 -27.5)"/><path d="M299.23,204.05a8.3,8.3,0,0,1-4.37,1.11,7.25,7.25,0,0,1-5.52-2.22,8.05,8.05,0,0,1-2.11-5.78,8.88,8.88,0,0,1,2.27-6.35,7.93,7.93,0,0,1,6.05-2.4,8.47,8.47,0,0,1,3.72.78v2.63a6.55,6.55,0,0,0-3.82-1.25,5.13,5.13,0,0,0-4,1.76,6.64,6.64,0,0,0-1.57,4.61,6.32,6.32,0,0,0,1.48,4.44,5.09,5.09,0,0,0,4,1.63,6.46,6.46,0,0,0,3.93-1.39Z" transform="translate(-22.22 -27.5)"/><path d="M304.42,184.73a1.62,1.62,0,0,1-1.17-.47,1.61,1.61,0,0,1-.48-1.19,1.62,1.62,0,0,1,1.65-1.67,1.69,1.69,0,0,1,1.2.47,1.6,1.6,0,0,1,.49,1.2,1.56,1.56,0,0,1-.49,1.17A1.67,1.67,0,0,1,304.42,184.73Zm1.25,20.06h-2.56v-16h2.56Z" transform="translate(-22.22 -27.5)"/><path d="M317.55,205.16a7.4,7.4,0,0,1-5.67-2.24,8.3,8.3,0,0,1-2.11-5.94,8.65,8.65,0,0,1,2.2-6.3,7.92,7.92,0,0,1,5.95-2.27,7.18,7.18,0,0,1,5.59,2.21,8.71,8.71,0,0,1,2,6.11,8.61,8.61,0,0,1-2.17,6.13A7.6,7.6,0,0,1,317.55,205.16Zm.18-14.59a4.87,4.87,0,0,0-3.9,1.68,6.88,6.88,0,0,0-1.44,4.63,6.59,6.59,0,0,0,1.45,4.49,5,5,0,0,0,3.89,1.64,4.69,4.69,0,0,0,3.82-1.61,7,7,0,0,0,1.34-4.58,7.08,7.08,0,0,0-1.34-4.63A4.66,4.66,0,0,0,317.73,190.57Zm3.75-9.94-4.09,5.13h-2l3.48-5.13Z" transform="translate(-22.22 -27.5)"/><path d="M342.89,204.79h-2.56v-9.13q0-5.08-3.72-5.09a4,4,0,0,0-3.18,1.44,5.36,5.36,0,0,0-1.26,3.65v9.13h-2.56v-16h2.56v2.65h.06a5.78,5.78,0,0,1,5.25-3,4.91,4.91,0,0,1,4,1.7,7.53,7.53,0,0,1,1.39,4.9Z" transform="translate(-22.22 -27.5)"/><path d="M350.06,201.23l-2.5,7.68h-1.83l1.83-7.68Z" transform="translate(-22.22 -27.5)"/><path d="M376.28,197.43H365a6,6,0,0,0,1.44,4.12A5,5,0,0,0,370.2,203a7.91,7.91,0,0,0,5-1.78v2.4a9.27,9.27,0,0,1-5.58,1.53,6.72,6.72,0,0,1-5.32-2.18,8.86,8.86,0,0,1-1.94-6.13,8.72,8.72,0,0,1,2.12-6.09,6.8,6.8,0,0,1,5.25-2.35,6,6,0,0,1,4.86,2,8.47,8.47,0,0,1,1.72,5.64Zm-2.62-2.17a5.26,5.26,0,0,0-1.07-3.46,3.66,3.66,0,0,0-2.93-1.23,4.12,4.12,0,0,0-3.08,1.3,5.77,5.77,0,0,0-1.56,3.39Z" transform="translate(-22.22 -27.5)"/><path d="M382.72,204.79h-2.56V181.1h2.56Z" transform="translate(-22.22 -27.5)"/><path d="M27.22,240.88h-.06v9.67H24.59V227.19h2.57V230h.06a6.07,6.07,0,0,1,5.53-3.19A5.88,5.88,0,0,1,37.58,229a8.93,8.93,0,0,1,1.73,5.76,9.92,9.92,0,0,1-2,6.43A6.49,6.49,0,0,1,32,243.56,5.34,5.34,0,0,1,27.22,240.88Zm-.06-6.46v2.24A4.74,4.74,0,0,0,28.45,240a4.24,4.24,0,0,0,3.27,1.39,4.3,4.3,0,0,0,3.65-1.79,8.14,8.14,0,0,0,1.32-5,6.44,6.44,0,0,0-1.24-4.19A4.07,4.07,0,0,0,32.11,229a4.54,4.54,0,0,0-3.59,1.55A5.71,5.71,0,0,0,27.16,234.42Z" transform="translate(-22.22 -27.5)"/><path d="M51.75,229.78a3.16,3.16,0,0,0-1.94-.51,3.26,3.26,0,0,0-2.74,1.54A7.19,7.19,0,0,0,46,235v8.16H43.41v-16H46v3.29H46a5.64,5.64,0,0,1,1.67-2.63,3.81,3.81,0,0,1,2.52-.94,4.31,4.31,0,0,1,1.53.21Z" transform="translate(-22.22 -27.5)"/><path d="M61.22,243.56a7.42,7.42,0,0,1-5.67-2.24,8.3,8.3,0,0,1-2.11-5.94,8.65,8.65,0,0,1,2.2-6.3,7.92,7.92,0,0,1,6-2.27A7.18,7.18,0,0,1,67.18,229a8.7,8.7,0,0,1,2,6.1A8.58,8.58,0,0,1,67,241.26,7.58,7.58,0,0,1,61.22,243.56ZM61.41,229a4.88,4.88,0,0,0-3.91,1.68,6.88,6.88,0,0,0-1.44,4.63,6.54,6.54,0,0,0,1.46,4.49,4.93,4.93,0,0,0,3.89,1.64,4.7,4.7,0,0,0,3.82-1.61,7,7,0,0,0,1.33-4.58,7.13,7.13,0,0,0-1.33-4.63A4.68,4.68,0,0,0,61.41,229Z" transform="translate(-22.22 -27.5)"/><path d="M86.94,243.19H84.38v-2.72h-.07a6.46,6.46,0,0,1-10.32.94,8.82,8.82,0,0,1-1.8-5.85,9.58,9.58,0,0,1,2-6.36,6.6,6.6,0,0,1,5.33-2.39,5.13,5.13,0,0,1,4.79,2.6h.07V219.5h2.56ZM84.38,236v-2.36a4.57,4.57,0,0,0-1.29-3.28A4.3,4.3,0,0,0,79.84,229a4.4,4.4,0,0,0-3.68,1.72,7.5,7.5,0,0,0-1.35,4.75,6.74,6.74,0,0,0,1.29,4.36,4.21,4.21,0,0,0,3.46,1.61A4.39,4.39,0,0,0,83,239.86,5.76,5.76,0,0,0,84.38,236Z" transform="translate(-22.22 -27.5)"/><path d="M105.06,243.19H102.5v-2.53h-.06a5.27,5.27,0,0,1-4.94,2.9q-5.72,0-5.72-6.81v-9.56h2.55v9.15q0,5.07,3.87,5.07a3.91,3.91,0,0,0,3.09-1.39,5.25,5.25,0,0,0,1.21-3.61v-9.22h2.56Z" transform="translate(-22.22 -27.5)"/><path d="M121.14,242.45a8.33,8.33,0,0,1-4.37,1.11,7.25,7.25,0,0,1-5.53-2.22,8.09,8.09,0,0,1-2.1-5.78,8.88,8.88,0,0,1,2.27-6.35,7.91,7.91,0,0,1,6-2.4,8.41,8.41,0,0,1,3.72.78v2.63a6.55,6.55,0,0,0-3.81-1.25,5.1,5.1,0,0,0-4,1.76,6.64,6.64,0,0,0-1.57,4.61,6.36,6.36,0,0,0,1.47,4.44,5.12,5.12,0,0,0,4,1.63,6.47,6.47,0,0,0,3.94-1.39Z" transform="translate(-22.22 -27.5)"/><path d="M132.44,243a5,5,0,0,1-2.39.5q-4.22,0-4.21-4.69v-9.46h-2.75v-2.19h2.75v-3.91l2.57-.83v4.74h4v2.19h-4v9a3.79,3.79,0,0,0,.54,2.3,2.19,2.19,0,0,0,1.82.69,2.67,2.67,0,0,0,1.67-.54Z" transform="translate(-22.22 -27.5)"/><path d="M142.55,243.56a7.4,7.4,0,0,1-5.67-2.24,8.3,8.3,0,0,1-2.11-5.94,8.65,8.65,0,0,1,2.2-6.3,7.92,7.92,0,0,1,5.95-2.27,7.18,7.18,0,0,1,5.59,2.21,10,10,0,0,1-.16,12.24A7.6,7.6,0,0,1,142.55,243.56Zm.18-14.59a4.87,4.87,0,0,0-3.9,1.68,6.88,6.88,0,0,0-1.44,4.63,6.59,6.59,0,0,0,1.45,4.49,5,5,0,0,0,3.89,1.64,4.69,4.69,0,0,0,3.82-1.61,7,7,0,0,0,1.34-4.58,7.08,7.08,0,0,0-1.34-4.63A4.66,4.66,0,0,0,142.73,229Z" transform="translate(-22.22 -27.5)"/><path d="M176.23,235.83H164.94a6,6,0,0,0,1.44,4.12,4.93,4.93,0,0,0,3.78,1.46,7.84,7.84,0,0,0,5-1.79V242a9.26,9.26,0,0,1-5.57,1.53,6.74,6.74,0,0,1-5.33-2.18,8.91,8.91,0,0,1-1.94-6.13,8.77,8.77,0,0,1,2.12-6.09,6.81,6.81,0,0,1,5.26-2.35,6,6,0,0,1,4.86,2,8.52,8.52,0,0,1,1.71,5.64Zm-2.62-2.17a5.26,5.26,0,0,0-1.07-3.46,3.65,3.65,0,0,0-2.93-1.23,4.13,4.13,0,0,0-3.08,1.3,5.89,5.89,0,0,0-1.56,3.39Z" transform="translate(-22.22 -27.5)"/><path d="M179.14,242.61v-2.75a7.6,7.6,0,0,0,4.61,1.55c2.25,0,3.37-.75,3.37-2.25a2,2,0,0,0-.28-1.09,3,3,0,0,0-.79-.79,6.18,6.18,0,0,0-1.15-.62l-1.43-.57a17.66,17.66,0,0,1-1.87-.85,5.38,5.38,0,0,1-1.34-1,3.52,3.52,0,0,1-.81-1.22,4.21,4.21,0,0,1-.28-1.61,3.74,3.74,0,0,1,.52-2,4.54,4.54,0,0,1,1.37-1.46,6.6,6.6,0,0,1,2-.88,8.7,8.7,0,0,1,2.28-.3,9.21,9.21,0,0,1,3.72.72v2.59A7.28,7.28,0,0,0,185,229a4.65,4.65,0,0,0-1.29.16,3.42,3.42,0,0,0-1,.46,2.26,2.26,0,0,0-.64.71,1.92,1.92,0,0,0-.22.92,2.23,2.23,0,0,0,.22,1.05,2.36,2.36,0,0,0,.67.75,5.48,5.48,0,0,0,1.06.59l1.42.58c.71.27,1.35.55,1.91.83a6.83,6.83,0,0,1,1.44,1,3.9,3.9,0,0,1,.91,1.24,4.09,4.09,0,0,1,.32,1.68,3.92,3.92,0,0,1-.52,2.06,4.51,4.51,0,0,1-1.4,1.45,6.45,6.45,0,0,1-2,.86,9.84,9.84,0,0,1-2.39.28A9.16,9.16,0,0,1,179.14,242.61Z" transform="translate(-22.22 -27.5)"/><path d="M204.59,242.45a8.3,8.3,0,0,1-4.37,1.11,7.25,7.25,0,0,1-5.52-2.22,8.05,8.05,0,0,1-2.11-5.78,8.88,8.88,0,0,1,2.27-6.35,7.93,7.93,0,0,1,6-2.4,8.4,8.4,0,0,1,3.71.78v2.63a6.5,6.5,0,0,0-3.81-1.25,5.13,5.13,0,0,0-4,1.76,6.64,6.64,0,0,0-1.57,4.61,6.32,6.32,0,0,0,1.48,4.44,5.09,5.09,0,0,0,4,1.63,6.46,6.46,0,0,0,3.93-1.39Z" transform="translate(-22.22 -27.5)"/><path d="M219.92,243.19h-2.56v-2.5h-.06a5.38,5.38,0,0,1-4.92,2.87,5.28,5.28,0,0,1-3.75-1.26,4.41,4.41,0,0,1-1.35-3.36q0-4.49,5.28-5.22l4.8-.67q0-4.08-3.3-4.08a7.85,7.85,0,0,0-5.22,2v-2.63a10,10,0,0,1,5.44-1.5q5.64,0,5.64,6Zm-2.56-8.1-3.86.53a6.36,6.36,0,0,0-2.69.89,2.55,2.55,0,0,0-.9,2.24,2.42,2.42,0,0,0,.83,1.91,3.22,3.22,0,0,0,2.23.75,4.13,4.13,0,0,0,3.15-1.34,4.76,4.76,0,0,0,1.24-3.38Z" transform="translate(-22.22 -27.5)"/><path d="M227.31,243.19h-2.56V219.5h2.56Z" transform="translate(-22.22 -27.5)"/><path d="M244,243.19h-2.56v-2.5h-.06a5.38,5.38,0,0,1-4.92,2.87,5.28,5.28,0,0,1-3.75-1.26,4.41,4.41,0,0,1-1.35-3.36q0-4.49,5.28-5.22l4.8-.67q0-4.08-3.3-4.08a7.83,7.83,0,0,0-5.21,2v-2.63a9.89,9.89,0,0,1,5.43-1.5q5.64,0,5.64,6Zm-2.56-8.1-3.86.53a6.36,6.36,0,0,0-2.69.89,2.55,2.55,0,0,0-.9,2.24,2.45,2.45,0,0,0,.83,1.91,3.22,3.22,0,0,0,2.23.75,4.13,4.13,0,0,0,3.15-1.34,4.76,4.76,0,0,0,1.24-3.38Z" transform="translate(-22.22 -27.5)"/><path d="M257.12,229.78a3.13,3.13,0,0,0-1.93-.51,3.25,3.25,0,0,0-2.74,1.54,7.12,7.12,0,0,0-1.11,4.22v8.16h-2.56v-16h2.56v3.29h.07a5.56,5.56,0,0,1,1.67-2.63,3.81,3.81,0,0,1,2.51-.94,4.31,4.31,0,0,1,1.53.21Z" transform="translate(-22.22 -27.5)"/><path d="M276.09,243a5,5,0,0,1-2.39.5q-4.2,0-4.2-4.69v-9.46h-2.75v-2.19h2.75v-3.91l2.56-.83v4.74h4v2.19h-4v9a3.72,3.72,0,0,0,.55,2.3,2.17,2.17,0,0,0,1.81.69,2.65,2.65,0,0,0,1.67-.54Z" transform="translate(-22.22 -27.5)"/><path d="M291,243.19h-2.56v-2.5h-.07a5.36,5.36,0,0,1-4.92,2.87,5.27,5.27,0,0,1-3.74-1.26,4.41,4.41,0,0,1-1.35-3.36q0-4.49,5.28-5.22l4.8-.67q0-4.08-3.3-4.08a7.83,7.83,0,0,0-5.22,2v-2.63a9.92,9.92,0,0,1,5.44-1.5q5.64,0,5.64,6Zm-2.56-8.1-3.86.53a6.31,6.31,0,0,0-2.69.89,2.53,2.53,0,0,0-.91,2.24,2.42,2.42,0,0,0,.84,1.91,3.22,3.22,0,0,0,2.23.75,4.09,4.09,0,0,0,3.14-1.34,4.77,4.77,0,0,0,1.25-3.38Z" transform="translate(-22.22 -27.5)"/><path d="M318.52,243.19H316V234a6.89,6.89,0,0,0-.82-3.84,3.07,3.07,0,0,0-2.75-1.19,3.4,3.4,0,0,0-2.79,1.5,5.71,5.71,0,0,0-1.15,3.59v9.13h-2.56v-9.5q0-4.73-3.65-4.72a3.38,3.38,0,0,0-2.78,1.41,5.85,5.85,0,0,0-1.09,3.68v9.13H295.8v-16h2.56v2.53h.06a5.44,5.44,0,0,1,5-2.91,4.64,4.64,0,0,1,4.53,3.31,5.72,5.72,0,0,1,5.31-3.31c3.52,0,5.29,2.17,5.29,6.52Z" transform="translate(-22.22 -27.5)"/><path d="M326,240.88h-.06v2.31h-2.56V219.5h2.56V230H326a6.08,6.08,0,0,1,5.54-3.19,5.89,5.89,0,0,1,4.82,2.15,8.87,8.87,0,0,1,1.74,5.76,9.87,9.87,0,0,1-2,6.43,6.49,6.49,0,0,1-5.34,2.41A5.28,5.28,0,0,1,326,240.88Zm-.06-6.46v2.24a4.74,4.74,0,0,0,1.29,3.36,4.58,4.58,0,0,0,6.92-.4,8.14,8.14,0,0,0,1.32-5,6.49,6.49,0,0,0-1.23-4.19,4.08,4.08,0,0,0-3.34-1.51,4.56,4.56,0,0,0-3.6,1.55A5.75,5.75,0,0,0,325.92,234.42Z" transform="translate(-22.22 -27.5)"/><path d="M343.48,223.12a1.63,1.63,0,0,1-1.17-.46,1.61,1.61,0,0,1-.48-1.19,1.62,1.62,0,0,1,1.65-1.67,1.69,1.69,0,0,1,1.2.47,1.6,1.6,0,0,1,.49,1.2,1.56,1.56,0,0,1-.49,1.17A1.66,1.66,0,0,1,343.48,223.12Zm1.25,20.07h-2.56v-16h2.56Z" transform="translate(-22.22 -27.5)"/><path d="M362.78,235.83h-11.3a6,6,0,0,0,1.44,4.12,5,5,0,0,0,3.78,1.46,7.86,7.86,0,0,0,5-1.79V242a9.27,9.27,0,0,1-5.58,1.53,6.72,6.72,0,0,1-5.32-2.18,8.86,8.86,0,0,1-1.94-6.13,8.72,8.72,0,0,1,2.12-6.09,6.8,6.8,0,0,1,5.25-2.35,6,6,0,0,1,4.86,2,8.47,8.47,0,0,1,1.72,5.64Zm-2.62-2.17a5.26,5.26,0,0,0-1.07-3.46,3.66,3.66,0,0,0-2.93-1.23,4.12,4.12,0,0,0-3.08,1.3,5.77,5.77,0,0,0-1.56,3.39ZM359.75,219l-4.09,5.13h-2l3.49-5.13Z" transform="translate(-22.22 -27.5)"/><path d="M379.94,243.19h-2.56v-9.13c0-3.39-1.25-5.09-3.72-5.09a4,4,0,0,0-3.18,1.44,5.36,5.36,0,0,0-1.26,3.65v9.13h-2.56v-16h2.56v2.65h.06a5.78,5.78,0,0,1,5.25-3,4.91,4.91,0,0,1,4,1.7,7.59,7.59,0,0,1,1.39,4.9Z" transform="translate(-22.22 -27.5)"/><path d="M23.62,281v-2.75a7.62,7.62,0,0,0,4.61,1.55c2.25,0,3.38-.75,3.38-2.25a2,2,0,0,0-.29-1.09,2.79,2.79,0,0,0-.78-.79,6.28,6.28,0,0,0-1.16-.62L28,274.49a16.57,16.57,0,0,1-1.86-.85,5.44,5.44,0,0,1-1.35-1,3.52,3.52,0,0,1-.81-1.22,4.42,4.42,0,0,1-.27-1.61,3.83,3.83,0,0,1,.51-2,4.58,4.58,0,0,1,1.38-1.46,6.37,6.37,0,0,1,2-.88,8.57,8.57,0,0,1,2.27-.3,9.14,9.14,0,0,1,3.72.72v2.6a7.18,7.18,0,0,0-4.06-1.16,4.77,4.77,0,0,0-1.3.16,3.24,3.24,0,0,0-1,.46,2.09,2.09,0,0,0-.64.72,1.86,1.86,0,0,0-.23.91,2.23,2.23,0,0,0,.23,1.05,2.32,2.32,0,0,0,.66.75,5.8,5.8,0,0,0,1.06.59l1.43.58c.7.27,1.34.55,1.9.83a6.83,6.83,0,0,1,1.44,1,3.75,3.75,0,0,1,.91,1.24,4.44,4.44,0,0,1-.2,3.74,4.4,4.4,0,0,1-1.4,1.45,6.3,6.3,0,0,1-2,.86,9.84,9.84,0,0,1-2.39.28A9.17,9.17,0,0,1,23.62,281Z" transform="translate(-22.22 -27.5)"/><path d="M51,274.23H39.73a6,6,0,0,0,1.44,4.12A5,5,0,0,0,45,279.81a7.91,7.91,0,0,0,5-1.78v2.4A9.27,9.27,0,0,1,44.34,282,6.72,6.72,0,0,1,39,279.78a8.86,8.86,0,0,1-1.94-6.13,8.72,8.72,0,0,1,2.12-6.09,6.8,6.8,0,0,1,5.25-2.35,6,6,0,0,1,4.86,2A8.47,8.47,0,0,1,51,272.88Zm-2.62-2.17a5.26,5.26,0,0,0-1.07-3.46,3.66,3.66,0,0,0-2.93-1.23,4.12,4.12,0,0,0-3.08,1.3,5.77,5.77,0,0,0-1.56,3.39Z" transform="translate(-22.22 -27.5)"/><path d="M77.33,281.59H74.77v-2.72H74.7a6.46,6.46,0,0,1-10.32.94,8.82,8.82,0,0,1-1.8-5.85,9.58,9.58,0,0,1,2-6.36,6.6,6.6,0,0,1,5.33-2.39,5.13,5.13,0,0,1,4.79,2.6h.07V257.9h2.56Zm-2.56-7.24V272a4.57,4.57,0,0,0-1.29-3.28,4.3,4.3,0,0,0-3.25-1.34,4.4,4.4,0,0,0-3.68,1.72,7.5,7.5,0,0,0-1.35,4.75,6.79,6.79,0,0,0,1.29,4.37,4.23,4.23,0,0,0,3.46,1.6,4.39,4.39,0,0,0,3.48-1.55A5.76,5.76,0,0,0,74.77,274.35Z" transform="translate(-22.22 -27.5)"/><path d="M95.38,274.23H84.08a6,6,0,0,0,1.44,4.12,4.93,4.93,0,0,0,3.78,1.46,7.93,7.93,0,0,0,5-1.78v2.4A9.31,9.31,0,0,1,88.69,282a6.74,6.74,0,0,1-5.33-2.18,8.91,8.91,0,0,1-1.94-6.13,8.77,8.77,0,0,1,2.12-6.09,6.81,6.81,0,0,1,5.26-2.35,6,6,0,0,1,4.86,2,8.52,8.52,0,0,1,1.72,5.64Zm-2.63-2.17a5.26,5.26,0,0,0-1.07-3.46,3.65,3.65,0,0,0-2.93-1.23,4.13,4.13,0,0,0-3.08,1.3,5.89,5.89,0,0,0-1.56,3.39Z" transform="translate(-22.22 -27.5)"/><path d="M112.53,281.59H110v-9.13q0-5.08-3.72-5.09a4,4,0,0,0-3.18,1.44,5.36,5.36,0,0,0-1.26,3.65v9.13H99.25v-16h2.56v2.65h.07a5.75,5.75,0,0,1,5.24-3,4.9,4.9,0,0,1,4,1.7,7.53,7.53,0,0,1,1.39,4.9Z" transform="translate(-22.22 -27.5)"/><path d="M124.05,282a7.4,7.4,0,0,1-5.67-2.24,8.3,8.3,0,0,1-2.11-5.94,8.65,8.65,0,0,1,2.2-6.3,7.92,7.92,0,0,1,6-2.27,7.18,7.18,0,0,1,5.59,2.21,8.71,8.71,0,0,1,2,6.11,8.61,8.61,0,0,1-2.17,6.13A7.56,7.56,0,0,1,124.05,282Zm.18-14.59a4.87,4.87,0,0,0-3.9,1.68,6.88,6.88,0,0,0-1.44,4.63,6.59,6.59,0,0,0,1.45,4.49,5,5,0,0,0,3.89,1.64,4.69,4.69,0,0,0,3.82-1.61,7,7,0,0,0,1.34-4.58,7.08,7.08,0,0,0-1.34-4.63A4.66,4.66,0,0,0,124.23,267.37Z" transform="translate(-22.22 -27.5)"/><path d="M158.83,281.59h-2.56V272.4a7,7,0,0,0-.82-3.84,3.13,3.13,0,0,0-2.76-1.19,3.4,3.4,0,0,0-2.79,1.5,5.71,5.71,0,0,0-1.15,3.59v9.13h-2.56v-9.5c0-3.15-1.22-4.72-3.64-4.72a3.35,3.35,0,0,0-2.78,1.41,5.86,5.86,0,0,0-1.1,3.68v9.13h-2.56v-16h2.56v2.53h.06a5.45,5.45,0,0,1,5-2.91,4.62,4.62,0,0,1,2.86.92,4.55,4.55,0,0,1,1.67,2.4,5.72,5.72,0,0,1,5.32-3.32q5.28,0,5.28,6.52Z" transform="translate(-22.22 -27.5)"/><path d="M165,261.53a1.66,1.66,0,0,1-1.17-.47,1.61,1.61,0,0,1-.48-1.19,1.63,1.63,0,0,1,.48-1.2,1.66,1.66,0,0,1,1.17-.47,1.69,1.69,0,0,1,1.2.47,1.6,1.6,0,0,1,.49,1.2,1.56,1.56,0,0,1-.49,1.17A1.67,1.67,0,0,1,165,261.53Zm1.25,20.06h-2.56v-16h2.56Z" transform="translate(-22.22 -27.5)"/><path d="M184.7,281.59h-2.56v-9.13q0-5.08-3.72-5.09a4,4,0,0,0-3.18,1.44,5.36,5.36,0,0,0-1.26,3.65v9.13h-2.56v-16H174v2.65h.07a5.76,5.76,0,0,1,5.25-3,4.88,4.88,0,0,1,4,1.7,7.53,7.53,0,0,1,1.39,4.9Z" transform="translate(-22.22 -27.5)"/><path d="M201,281.59h-2.56v-2.5h-.06a5.38,5.38,0,0,1-4.92,2.87,5.26,5.26,0,0,1-3.74-1.26,4.38,4.38,0,0,1-1.36-3.36q0-4.48,5.28-5.22l4.8-.67q0-4.08-3.3-4.08a7.88,7.88,0,0,0-5.21,2v-2.63a9.89,9.89,0,0,1,5.43-1.5q5.64,0,5.64,6Zm-2.56-8.1-3.86.54a6.18,6.18,0,0,0-2.68.88,2.53,2.53,0,0,0-.91,2.24,2.45,2.45,0,0,0,.83,1.91,3.22,3.22,0,0,0,2.23.75,4.13,4.13,0,0,0,3.15-1.34,4.76,4.76,0,0,0,1.24-3.38Z" transform="translate(-22.22 -27.5)"/><path d="M217.2,279.28h-.06V289h-2.56V265.59h2.56v2.81h.06a6.08,6.08,0,0,1,5.53-3.19,5.85,5.85,0,0,1,4.83,2.15,8.87,8.87,0,0,1,1.74,5.76,9.87,9.87,0,0,1-2,6.43A6.49,6.49,0,0,1,222,282,5.36,5.36,0,0,1,217.2,279.28Zm-.06-6.46v2.24a4.74,4.74,0,0,0,1.29,3.36,4.26,4.26,0,0,0,3.27,1.39,4.31,4.31,0,0,0,3.65-1.78,8.19,8.19,0,0,0,1.32-5,6.49,6.49,0,0,0-1.23-4.19,4.13,4.13,0,0,0-3.35-1.51,4.55,4.55,0,0,0-3.59,1.55A5.71,5.71,0,0,0,217.14,272.82Z" transform="translate(-22.22 -27.5)"/><path d="M241.73,268.18a3.13,3.13,0,0,0-1.93-.51,3.28,3.28,0,0,0-2.75,1.54,7.19,7.19,0,0,0-1.1,4.22v8.16h-2.56v-16H236v3.29H236a5.56,5.56,0,0,1,1.67-2.63,3.81,3.81,0,0,1,2.51-.94,4.06,4.06,0,0,1,1.53.22Z" transform="translate(-22.22 -27.5)"/><path d="M251.2,282a7.4,7.4,0,0,1-5.66-2.24,8.31,8.31,0,0,1-2.12-5.94,8.69,8.69,0,0,1,2.2-6.3,7.94,7.94,0,0,1,6-2.27,7.16,7.16,0,0,1,5.58,2.21,8.71,8.71,0,0,1,2,6.11,8.61,8.61,0,0,1-2.16,6.13A7.59,7.59,0,0,1,251.2,282Zm.19-14.59a4.88,4.88,0,0,0-3.91,1.68,6.93,6.93,0,0,0-1.43,4.63,6.54,6.54,0,0,0,1.45,4.49,5,5,0,0,0,3.89,1.64,4.69,4.69,0,0,0,3.82-1.61,7,7,0,0,0,1.34-4.58,7.14,7.14,0,0,0-1.34-4.63A4.66,4.66,0,0,0,251.39,267.37Z" transform="translate(-22.22 -27.5)"/><path d="M276.92,281.59h-2.56v-2.72h-.06a6.46,6.46,0,0,1-10.32.94,8.77,8.77,0,0,1-1.81-5.85,9.63,9.63,0,0,1,2-6.36,6.6,6.6,0,0,1,5.33-2.39,5.13,5.13,0,0,1,4.8,2.6h.06V257.9h2.56Zm-2.56-7.24V272a4.6,4.6,0,0,0-1.28-3.28,4.33,4.33,0,0,0-3.25-1.34,4.43,4.43,0,0,0-3.69,1.72,7.5,7.5,0,0,0-1.34,4.75,6.79,6.79,0,0,0,1.29,4.37,4.23,4.23,0,0,0,3.46,1.6,4.38,4.38,0,0,0,3.47-1.55A5.76,5.76,0,0,0,274.36,274.35Z" transform="translate(-22.22 -27.5)"/><path d="M295.05,281.59h-2.57v-2.53h-.06a5.27,5.27,0,0,1-4.94,2.9q-5.72,0-5.71-6.81v-9.56h2.54v9.15q0,5.07,3.88,5.07a3.88,3.88,0,0,0,3.08-1.39,5.25,5.25,0,0,0,1.21-3.61v-9.22h2.57Z" transform="translate(-22.22 -27.5)"/><path d="M311.12,280.85a8.28,8.28,0,0,1-4.37,1.11,7.25,7.25,0,0,1-5.52-2.22,8.1,8.1,0,0,1-2.11-5.78,8.88,8.88,0,0,1,2.27-6.35,7.93,7.93,0,0,1,6.05-2.4,8.47,8.47,0,0,1,3.72.78v2.63a6.55,6.55,0,0,0-3.82-1.25,5.17,5.17,0,0,0-4,1.76,6.64,6.64,0,0,0-1.57,4.61,6.32,6.32,0,0,0,1.48,4.44,5.06,5.06,0,0,0,4,1.63,6.44,6.44,0,0,0,3.93-1.39Z" transform="translate(-22.22 -27.5)"/><path d="M322.42,281.43a5,5,0,0,1-2.39.5q-4.2,0-4.2-4.69v-9.46h-2.75v-2.19h2.75v-3.91l2.56-.83v4.74h4v2.19h-4v9a3.72,3.72,0,0,0,.55,2.3,2.17,2.17,0,0,0,1.81.69,2.65,2.65,0,0,0,1.67-.54Z" transform="translate(-22.22 -27.5)"/><path d="M332.53,282a7.4,7.4,0,0,1-5.66-2.24,8.31,8.31,0,0,1-2.12-5.94,8.65,8.65,0,0,1,2.2-6.3,7.94,7.94,0,0,1,6-2.27,7.17,7.17,0,0,1,5.58,2.21,8.71,8.71,0,0,1,2,6.11,8.61,8.61,0,0,1-2.16,6.13A7.59,7.59,0,0,1,332.53,282Zm.19-14.59a4.88,4.88,0,0,0-3.91,1.68,6.88,6.88,0,0,0-1.43,4.63,6.54,6.54,0,0,0,1.45,4.49,4.94,4.94,0,0,0,3.89,1.64,4.69,4.69,0,0,0,3.82-1.61,7,7,0,0,0,1.34-4.58,7.14,7.14,0,0,0-1.34-4.63A4.66,4.66,0,0,0,332.72,267.37Z" transform="translate(-22.22 -27.5)"/><path d="M27.22,317.67h-.06v9.68H24.59V304h2.57v2.81h.06a6,6,0,0,1,5.53-3.19,5.88,5.88,0,0,1,4.83,2.15,8.93,8.93,0,0,1,1.73,5.76,9.92,9.92,0,0,1-2,6.43A6.49,6.49,0,0,1,32,320.36,5.33,5.33,0,0,1,27.22,317.67Zm-.06-6.45v2.24a4.74,4.74,0,0,0,1.29,3.36,4.24,4.24,0,0,0,3.27,1.39,4.3,4.3,0,0,0,3.65-1.79,8.14,8.14,0,0,0,1.32-4.95,6.42,6.42,0,0,0-1.24-4.19,4.07,4.07,0,0,0-3.34-1.51,4.54,4.54,0,0,0-3.59,1.55A5.71,5.71,0,0,0,27.16,311.22Z" transform="translate(-22.22 -27.5)"/><path d="M56.34,320H53.78v-2.53h-.06a5.27,5.27,0,0,1-4.94,2.9q-5.72,0-5.72-6.81V304h2.55v9.15q0,5.07,3.87,5.07a3.91,3.91,0,0,0,3.09-1.39,5.25,5.25,0,0,0,1.21-3.61V304h2.56Z" transform="translate(-22.22 -27.5)"/><path d="M74.8,320H72.23v-9.13q0-5.08-3.71-5.09a4,4,0,0,0-3.18,1.44,5.36,5.36,0,0,0-1.26,3.65V320H61.52V304h2.56v2.65h.06a5.78,5.78,0,0,1,5.25-3,4.91,4.91,0,0,1,4,1.7,7.59,7.59,0,0,1,1.39,4.9Z" transform="translate(-22.22 -27.5)"/><path d="M87.05,319.83a5,5,0,0,1-2.39.5q-4.22,0-4.21-4.69v-9.47H77.7V304h2.75v-3.91l2.57-.83V304h4v2.18H83v9a3.79,3.79,0,0,0,.54,2.3,2.19,2.19,0,0,0,1.82.68,2.67,2.67,0,0,0,1.67-.53Z" transform="translate(-22.22 -27.5)"/><path d="M97.16,320.36a7.4,7.4,0,0,1-5.67-2.24,8.31,8.31,0,0,1-2.11-5.95,8.64,8.64,0,0,1,2.2-6.29,7.92,7.92,0,0,1,6-2.27,7.18,7.18,0,0,1,5.59,2.21,10,10,0,0,1-.16,12.24A7.6,7.6,0,0,1,97.16,320.36Zm.18-14.59a4.87,4.87,0,0,0-3.9,1.68A6.88,6.88,0,0,0,92,312.08a6.54,6.54,0,0,0,1.45,4.49,5,5,0,0,0,3.89,1.64,4.69,4.69,0,0,0,3.82-1.61A7,7,0,0,0,102.5,312a7.14,7.14,0,0,0-1.34-4.63A4.66,4.66,0,0,0,97.34,305.77Z" transform="translate(-22.22 -27.5)"/><path d="M110.11,320.33a1.68,1.68,0,0,1-1.23-.51,1.79,1.79,0,0,1,0-2.48,1.65,1.65,0,0,1,1.23-.52,1.68,1.68,0,0,1,1.25.52,1.74,1.74,0,0,1,0,2.48A1.71,1.71,0,0,1,110.11,320.33Z" transform="translate(-22.22 -27.5)"/><path d="M137.14,320H125.27V297.58h11.37V300h-8.75v7.45H136v2.36h-8.09v7.84h9.25Z" transform="translate(-22.22 -27.5)"/><path d="M143.67,320h-2.56V296.3h2.56Z" transform="translate(-22.22 -27.5)"/><path d="M169.08,320h-2.56v-2.5h-.07a5.36,5.36,0,0,1-4.92,2.87,5.27,5.27,0,0,1-3.74-1.26,4.41,4.41,0,0,1-1.35-3.36q0-4.49,5.28-5.22l4.8-.67q0-4.08-3.3-4.08a7.83,7.83,0,0,0-5.22,2v-2.63a9.92,9.92,0,0,1,5.44-1.5q5.64,0,5.64,6Zm-2.56-8.1-3.86.53a6.31,6.31,0,0,0-2.69.89,2.53,2.53,0,0,0-.91,2.24,2.42,2.42,0,0,0,.84,1.91,3.21,3.21,0,0,0,2.22.75,4.1,4.1,0,0,0,3.15-1.34,4.77,4.77,0,0,0,1.25-3.38Zm.34-16.06L162.77,301h-2l3.49-5.13Z" transform="translate(-22.22 -27.5)"/><path d="M187.19,320h-2.57v-9.13c0-3.39-1.23-5.09-3.71-5.09a4,4,0,0,0-3.18,1.44,5.36,5.36,0,0,0-1.26,3.65V320h-2.56V304h2.56v2.65h.06a5.78,5.78,0,0,1,5.25-3,4.91,4.91,0,0,1,4,1.7,7.59,7.59,0,0,1,1.39,4.9Z" transform="translate(-22.22 -27.5)"/><path d="M205.67,318.71q0,8.81-8.44,8.81a11.3,11.3,0,0,1-5.18-1.13v-2.56a10.64,10.64,0,0,0,5.15,1.5q5.91,0,5.91-6.28V317.3h-.06a6.48,6.48,0,0,1-10.31.93,8.54,8.54,0,0,1-1.82-5.73,10,10,0,0,1,2-6.48,6.58,6.58,0,0,1,5.37-2.41,5.23,5.23,0,0,1,4.8,2.6h.06V304h2.56Zm-2.56-6v-2.36a4.55,4.55,0,0,0-1.29-3.26,4.23,4.23,0,0,0-3.21-1.36,4.44,4.44,0,0,0-3.72,1.73,7.67,7.67,0,0,0-1.34,4.83,6.59,6.59,0,0,0,1.29,4.27,4.15,4.15,0,0,0,3.41,1.61,4.44,4.44,0,0,0,3.51-1.54A5.69,5.69,0,0,0,203.11,312.75Z" transform="translate(-22.22 -27.5)"/><path d="M223.8,320h-2.57v-2.53h-.06a5.27,5.27,0,0,1-4.94,2.9q-5.72,0-5.71-6.81V304h2.54v9.15q0,5.07,3.88,5.07a3.88,3.88,0,0,0,3.08-1.39,5.25,5.25,0,0,0,1.21-3.61V304h2.57Z" transform="translate(-22.22 -27.5)"/><path d="M231.53,320H229V296.3h2.56Z" transform="translate(-22.22 -27.5)"/><path d="M243.41,320.36a7.4,7.4,0,0,1-5.67-2.24,8.31,8.31,0,0,1-2.12-5.95,8.64,8.64,0,0,1,2.21-6.29,7.92,7.92,0,0,1,5.95-2.27,7.18,7.18,0,0,1,5.59,2.21,10,10,0,0,1-.16,12.24A7.6,7.6,0,0,1,243.41,320.36Zm.18-14.59a4.87,4.87,0,0,0-3.9,1.68,6.88,6.88,0,0,0-1.44,4.63,6.54,6.54,0,0,0,1.45,4.49,5,5,0,0,0,3.89,1.64,4.69,4.69,0,0,0,3.82-1.61,7,7,0,0,0,1.34-4.58,7.14,7.14,0,0,0-1.34-4.63A4.66,4.66,0,0,0,243.59,305.77Z" transform="translate(-22.22 -27.5)"/><path d="M282.5,309c0,7.42-4.51,11.36-10,11.36-5.7,0-9.7-4.42-9.7-10.94,0-6.85,4.26-11.33,10-11.33S282.5,302.58,282.5,309Zm-16.73.35c0,4.61,2.49,8.74,6.88,8.74s6.91-4.07,6.91-9c0-4.29-2.24-8.77-6.88-8.77S265.77,304.6,265.77,309.33Z" transform="translate(-22.22 -27.5)"/><path d="M307.91,312.63h-11.3a6,6,0,0,0,1.44,4.12,4.93,4.93,0,0,0,3.78,1.46,7.86,7.86,0,0,0,5-1.79v2.41a9.31,9.31,0,0,1-5.58,1.53,6.74,6.74,0,0,1-5.33-2.18,8.91,8.91,0,0,1-1.94-6.13,8.77,8.77,0,0,1,2.12-6.09,6.82,6.82,0,0,1,5.26-2.35,6,6,0,0,1,4.86,2,8.52,8.52,0,0,1,1.72,5.64Zm-2.63-2.17a5.21,5.21,0,0,0-1.07-3.46,3.65,3.65,0,0,0-2.93-1.23,4.13,4.13,0,0,0-3.08,1.3,5.89,5.89,0,0,0-1.56,3.39Z" transform="translate(-22.22 -27.5)"/><path d="M325.06,320H322.5v-9.13q0-5.08-3.72-5.09a4,4,0,0,0-3.18,1.44,5.36,5.36,0,0,0-1.26,3.65V320h-2.56V304h2.56v2.65h.07a5.78,5.78,0,0,1,5.25-3,4.88,4.88,0,0,1,4,1.7,7.53,7.53,0,0,1,1.39,4.9Z" transform="translate(-22.22 -27.5)"/><path d="M350.11,320h-2.56v-2.5h-.06a5.39,5.39,0,0,1-4.93,2.87,5.27,5.27,0,0,1-3.74-1.26,4.41,4.41,0,0,1-1.35-3.36q0-4.49,5.28-5.22l4.8-.67q0-4.08-3.3-4.08a7.83,7.83,0,0,0-5.22,2v-2.63a9.92,9.92,0,0,1,5.44-1.5q5.64,0,5.64,6Zm-2.56-8.1-3.86.53a6.31,6.31,0,0,0-2.69.89,2.55,2.55,0,0,0-.91,2.24,2.42,2.42,0,0,0,.84,1.91,3.22,3.22,0,0,0,2.23.75,4.13,4.13,0,0,0,3.15-1.34,4.81,4.81,0,0,0,1.24-3.38Z" transform="translate(-22.22 -27.5)"/><path d="M366.27,320H363.7V296.3h2.57Z" transform="translate(-22.22 -27.5)"/><path d="M382.91,320h-2.57v-2.5h-.06a5.36,5.36,0,0,1-4.92,2.87,5.27,5.27,0,0,1-3.74-1.26,4.41,4.41,0,0,1-1.35-3.36q0-4.49,5.28-5.22l4.79-.67c0-2.72-1.09-4.08-3.29-4.08a7.83,7.83,0,0,0-5.22,2v-2.63a9.9,9.9,0,0,1,5.44-1.5q5.64,0,5.64,6Zm-2.57-8.1-3.85.53a6.31,6.31,0,0,0-2.69.89,2.53,2.53,0,0,0-.91,2.24,2.42,2.42,0,0,0,.84,1.91,3.19,3.19,0,0,0,2.22.75,4.13,4.13,0,0,0,3.15-1.34,4.76,4.76,0,0,0,1.24-3.38Z" transform="translate(-22.22 -27.5)"/><path d="M37.45,351H26.16a6,6,0,0,0,1.43,4.12,5,5,0,0,0,3.79,1.46,7.88,7.88,0,0,0,5-1.78v2.4a9.26,9.26,0,0,1-5.57,1.53,6.73,6.73,0,0,1-5.33-2.18,8.91,8.91,0,0,1-1.94-6.13,8.77,8.77,0,0,1,2.12-6.09A6.81,6.81,0,0,1,30.88,342a6,6,0,0,1,4.85,2,8.47,8.47,0,0,1,1.72,5.64Zm-2.62-2.17a5.26,5.26,0,0,0-1.07-3.46,3.66,3.66,0,0,0-2.93-1.23,4.12,4.12,0,0,0-3.08,1.3,5.89,5.89,0,0,0-1.56,3.39Z" transform="translate(-22.22 -27.5)"/><path d="M52.23,357.65a8.3,8.3,0,0,1-4.37,1.11,7.25,7.25,0,0,1-5.52-2.22,8.05,8.05,0,0,1-2.11-5.78,8.88,8.88,0,0,1,2.27-6.35,7.93,7.93,0,0,1,6-2.4,8.47,8.47,0,0,1,3.72.78v2.63a6.55,6.55,0,0,0-3.82-1.25,5.13,5.13,0,0,0-4,1.76,6.64,6.64,0,0,0-1.57,4.61A6.32,6.32,0,0,0,44.34,355a5.06,5.06,0,0,0,4,1.63,6.46,6.46,0,0,0,3.93-1.39Z" transform="translate(-22.22 -27.5)"/><path d="M69.05,358.39H66.48v-2.53h-.06a5.27,5.27,0,0,1-4.94,2.9q-5.71,0-5.71-6.81v-9.56h2.54v9.15q0,5.07,3.88,5.07a3.88,3.88,0,0,0,3.08-1.39,5.25,5.25,0,0,0,1.21-3.61v-9.22h2.57Z" transform="translate(-22.22 -27.5)"/><path d="M85.67,358.39H83.11v-2.5h-.06a5.39,5.39,0,0,1-4.93,2.87,5.27,5.27,0,0,1-3.74-1.26A4.41,4.41,0,0,1,73,354.14q0-4.49,5.28-5.22l4.8-.67q0-4.08-3.3-4.08a7.92,7.92,0,0,0-5.22,2v-2.63A10,10,0,0,1,80,342q5.64,0,5.64,6Zm-2.56-8.1-3.86.54a6.23,6.23,0,0,0-2.69.88,2.55,2.55,0,0,0-.9,2.24,2.42,2.42,0,0,0,.83,1.91,3.22,3.22,0,0,0,2.23.75,4.13,4.13,0,0,0,3.15-1.34,4.76,4.76,0,0,0,1.24-3.38Z" transform="translate(-22.22 -27.5)"/><path d="M101.41,357.65A8.34,8.34,0,0,1,97,358.76a7.25,7.25,0,0,1-5.52-2.22,8.09,8.09,0,0,1-2.1-5.78,8.88,8.88,0,0,1,2.26-6.35,7.93,7.93,0,0,1,6-2.4,8.47,8.47,0,0,1,3.72.78v2.63a6.55,6.55,0,0,0-3.82-1.25,5.13,5.13,0,0,0-4,1.76A6.64,6.64,0,0,0,92,350.54,6.32,6.32,0,0,0,93.51,355a5.06,5.06,0,0,0,4,1.63,6.49,6.49,0,0,0,3.94-1.39Z" transform="translate(-22.22 -27.5)"/><path d="M106.59,338.33a1.64,1.64,0,0,1-1.17-.47,1.61,1.61,0,0,1-.48-1.19,1.62,1.62,0,0,1,1.65-1.67,1.69,1.69,0,0,1,1.2.47,1.6,1.6,0,0,1,.49,1.2,1.56,1.56,0,0,1-.49,1.17A1.67,1.67,0,0,1,106.59,338.33Zm1.25,20.06h-2.56v-16h2.56Z" transform="translate(-22.22 -27.5)"/><path d="M119.72,358.76a7.42,7.42,0,0,1-5.67-2.24,8.3,8.3,0,0,1-2.11-5.94,8.65,8.65,0,0,1,2.2-6.3,7.92,7.92,0,0,1,6-2.27,7.18,7.18,0,0,1,5.59,2.21,8.71,8.71,0,0,1,2,6.11,8.57,8.57,0,0,1-2.17,6.13A7.55,7.55,0,0,1,119.72,358.76Zm.19-14.59a4.88,4.88,0,0,0-3.91,1.68,6.88,6.88,0,0,0-1.44,4.63A6.54,6.54,0,0,0,116,355a4.93,4.93,0,0,0,3.89,1.64,4.7,4.7,0,0,0,3.82-1.61,7,7,0,0,0,1.33-4.58,7.13,7.13,0,0,0-1.33-4.63A4.68,4.68,0,0,0,119.91,344.17Zm3.75-9.94-4.1,5.13h-2l3.48-5.13Z" transform="translate(-22.22 -27.5)"/><path d="M145.06,358.39H142.5v-9.13q0-5.08-3.72-5.09a4,4,0,0,0-3.18,1.44,5.36,5.36,0,0,0-1.26,3.65v9.13h-2.56v-16h2.56V345h.07a5.76,5.76,0,0,1,5.25-3,4.89,4.89,0,0,1,4,1.7,7.53,7.53,0,0,1,1.39,4.9Z" transform="translate(-22.22 -27.5)"/><path d="M169.56,357.65a8.3,8.3,0,0,1-4.37,1.11,7.27,7.27,0,0,1-5.53-2.22,8.09,8.09,0,0,1-2.1-5.78,8.88,8.88,0,0,1,2.27-6.35,7.92,7.92,0,0,1,6-2.4,8.4,8.4,0,0,1,3.71.78v2.63a6.5,6.5,0,0,0-3.81-1.25,5.12,5.12,0,0,0-4,1.76,6.64,6.64,0,0,0-1.57,4.61,6.36,6.36,0,0,0,1.47,4.44,5.09,5.09,0,0,0,4,1.63,6.47,6.47,0,0,0,3.94-1.39Z" transform="translate(-22.22 -27.5)"/><path d="M180.12,358.76a7.4,7.4,0,0,1-5.66-2.24,8.31,8.31,0,0,1-2.12-5.94,8.65,8.65,0,0,1,2.21-6.3A7.92,7.92,0,0,1,180.5,342a7.18,7.18,0,0,1,5.59,2.21,8.75,8.75,0,0,1,2,6.11,8.61,8.61,0,0,1-2.16,6.13A7.57,7.57,0,0,1,180.12,358.76Zm.19-14.59a4.86,4.86,0,0,0-3.9,1.68,6.88,6.88,0,0,0-1.44,4.63,6.54,6.54,0,0,0,1.45,4.49,5,5,0,0,0,3.89,1.64,4.69,4.69,0,0,0,3.82-1.61,7,7,0,0,0,1.34-4.58,7.14,7.14,0,0,0-1.34-4.63A4.66,4.66,0,0,0,180.31,344.17Z" transform="translate(-22.22 -27.5)"/><path d="M200.53,345a3.16,3.16,0,0,0-1.94-.51,3.27,3.27,0,0,0-2.74,1.54,7.19,7.19,0,0,0-1.1,4.22v8.16h-2.56v-16h2.56v3.29h.06a5.64,5.64,0,0,1,1.67-2.63,3.81,3.81,0,0,1,2.52-.94,4.06,4.06,0,0,1,1.53.22Z" transform="translate(-22.22 -27.5)"/><path d="M211.66,345a3.18,3.18,0,0,0-1.94-.51A3.25,3.25,0,0,0,207,346a7.12,7.12,0,0,0-1.1,4.22v8.16h-2.57v-16h2.57v3.29h.06a5.56,5.56,0,0,1,1.67-2.63,3.81,3.81,0,0,1,2.51-.94,4.15,4.15,0,0,1,1.54.22Z" transform="translate(-22.22 -27.5)"/><path d="M227.3,351H216a6,6,0,0,0,1.44,4.12,4.93,4.93,0,0,0,3.78,1.46,7.91,7.91,0,0,0,5-1.78v2.4a9.31,9.31,0,0,1-5.58,1.53,6.74,6.74,0,0,1-5.33-2.18,8.91,8.91,0,0,1-1.94-6.13,8.77,8.77,0,0,1,2.12-6.09,6.81,6.81,0,0,1,5.26-2.35,6,6,0,0,1,4.86,2,8.52,8.52,0,0,1,1.72,5.64Zm-2.63-2.17a5.26,5.26,0,0,0-1.07-3.46,3.65,3.65,0,0,0-2.93-1.23,4.13,4.13,0,0,0-3.08,1.3,5.89,5.89,0,0,0-1.56,3.39Z" transform="translate(-22.22 -27.5)"/><path d="M230.2,357.81v-2.75a7.6,7.6,0,0,0,4.61,1.55c2.25,0,3.38-.75,3.38-2.25a2,2,0,0,0-.29-1.09,2.79,2.79,0,0,0-.78-.79,6.62,6.62,0,0,0-1.16-.62l-1.43-.57a17.66,17.66,0,0,1-1.87-.85,5.57,5.57,0,0,1-1.34-1,3.52,3.52,0,0,1-.81-1.22,4.41,4.41,0,0,1-.28-1.61,3.83,3.83,0,0,1,.52-2,4.54,4.54,0,0,1,1.37-1.46,6.54,6.54,0,0,1,2-.88,8.57,8.57,0,0,1,2.27-.3,9.21,9.21,0,0,1,3.72.72v2.6a7.18,7.18,0,0,0-4.06-1.16,4.72,4.72,0,0,0-1.3.16,3.24,3.24,0,0,0-1,.46,2.15,2.15,0,0,0-.64.71,1.82,1.82,0,0,0-.23.92,2.12,2.12,0,0,0,.23,1.05,2.32,2.32,0,0,0,.66.75,5.8,5.8,0,0,0,1.06.59l1.42.58c.71.27,1.35.55,1.91.83a6.83,6.83,0,0,1,1.44,1,4.18,4.18,0,0,1,.71,5,4.51,4.51,0,0,1-1.4,1.45,6.4,6.4,0,0,1-2,.86,9.92,9.92,0,0,1-2.4.28A9.16,9.16,0,0,1,230.2,357.81Z" transform="translate(-22.22 -27.5)"/><path d="M247.38,356.08h-.07v9.67h-2.56V342.39h2.56v2.81h.07a6.05,6.05,0,0,1,5.53-3.19,5.85,5.85,0,0,1,4.82,2.15,8.87,8.87,0,0,1,1.74,5.76,9.92,9.92,0,0,1-2,6.43,6.52,6.52,0,0,1-5.35,2.41A5.34,5.34,0,0,1,247.38,356.08Zm-.07-6.46v2.24a4.74,4.74,0,0,0,1.29,3.36,4.59,4.59,0,0,0,6.92-.39,8.19,8.19,0,0,0,1.32-5,6.49,6.49,0,0,0-1.23-4.19,4.08,4.08,0,0,0-3.34-1.51,4.57,4.57,0,0,0-3.6,1.55A5.75,5.75,0,0,0,247.31,349.62Z" transform="translate(-22.22 -27.5)"/><path d="M270.25,358.76a7.38,7.38,0,0,1-5.66-2.24,8.26,8.26,0,0,1-2.12-5.94,8.65,8.65,0,0,1,2.2-6.3,7.92,7.92,0,0,1,5.95-2.27,7.18,7.18,0,0,1,5.59,2.21,8.71,8.71,0,0,1,2,6.11,8.57,8.57,0,0,1-2.17,6.13A7.55,7.55,0,0,1,270.25,358.76Zm.19-14.59a4.88,4.88,0,0,0-3.91,1.68,6.88,6.88,0,0,0-1.44,4.63,6.54,6.54,0,0,0,1.46,4.49,4.94,4.94,0,0,0,3.89,1.64,4.7,4.7,0,0,0,3.82-1.61,7,7,0,0,0,1.33-4.58,7.13,7.13,0,0,0-1.33-4.63A4.68,4.68,0,0,0,270.44,344.17Z" transform="translate(-22.22 -27.5)"/><path d="M295.59,358.39H293v-9.13q0-5.08-3.72-5.09a4,4,0,0,0-3.18,1.44,5.36,5.36,0,0,0-1.25,3.65v9.13h-2.57v-16h2.57V345h.06a5.78,5.78,0,0,1,5.25-3,4.88,4.88,0,0,1,4,1.7,7.53,7.53,0,0,1,1.39,4.9Z" transform="translate(-22.22 -27.5)"/><path d="M314.08,358.39h-2.56v-2.72h-.07a6.46,6.46,0,0,1-10.32.94,8.82,8.82,0,0,1-1.8-5.85,9.58,9.58,0,0,1,2-6.36,6.6,6.6,0,0,1,5.33-2.39,5.13,5.13,0,0,1,4.79,2.6h.07V334.7h2.56Zm-2.56-7.24v-2.36a4.57,4.57,0,0,0-1.29-3.28,4.3,4.3,0,0,0-3.25-1.34,4.4,4.4,0,0,0-3.68,1.72,7.5,7.5,0,0,0-1.35,4.75,6.74,6.74,0,0,0,1.29,4.36,4.21,4.21,0,0,0,3.46,1.61,4.39,4.39,0,0,0,3.48-1.55A5.76,5.76,0,0,0,311.52,351.15Z" transform="translate(-22.22 -27.5)"/><path d="M332.12,351H320.83a6,6,0,0,0,1.44,4.12,4.93,4.93,0,0,0,3.78,1.46,7.93,7.93,0,0,0,5-1.78v2.4a9.31,9.31,0,0,1-5.58,1.53,6.74,6.74,0,0,1-5.33-2.18,8.91,8.91,0,0,1-1.94-6.13,8.77,8.77,0,0,1,2.12-6.09,6.81,6.81,0,0,1,5.26-2.35,6,6,0,0,1,4.86,2,8.52,8.52,0,0,1,1.71,5.64Zm-2.62-2.17a5.26,5.26,0,0,0-1.07-3.46,3.65,3.65,0,0,0-2.93-1.23,4.13,4.13,0,0,0-3.08,1.3,5.89,5.89,0,0,0-1.56,3.39Z" transform="translate(-22.22 -27.5)"/><path d="M356.22,358.39h-2.56v-2.5h-.07a5.36,5.36,0,0,1-4.92,2.87,5.27,5.27,0,0,1-3.74-1.26,4.41,4.41,0,0,1-1.35-3.36q0-4.49,5.28-5.22l4.8-.67q0-4.08-3.3-4.08a7.88,7.88,0,0,0-5.22,2v-2.63a9.92,9.92,0,0,1,5.44-1.5q5.64,0,5.64,6Zm-2.56-8.1-3.86.54a6.18,6.18,0,0,0-2.69.88,2.53,2.53,0,0,0-.91,2.24,2.42,2.42,0,0,0,.84,1.91,3.22,3.22,0,0,0,2.23.75,4.09,4.09,0,0,0,3.14-1.34,4.77,4.77,0,0,0,1.25-3.38Z" transform="translate(-22.22 -27.5)"/><path d="M382.67,351H371.38a6,6,0,0,0,1.43,4.12,5,5,0,0,0,3.78,1.46,7.89,7.89,0,0,0,5-1.78v2.4a9.27,9.27,0,0,1-5.58,1.53,6.72,6.72,0,0,1-5.32-2.18,8.86,8.86,0,0,1-1.94-6.13,8.72,8.72,0,0,1,2.12-6.09,6.8,6.8,0,0,1,5.25-2.35,6,6,0,0,1,4.86,2,8.47,8.47,0,0,1,1.72,5.64Zm-2.62-2.17A5.26,5.26,0,0,0,379,345.4a3.66,3.66,0,0,0-2.93-1.23,4.12,4.12,0,0,0-3.08,1.3,5.77,5.77,0,0,0-1.56,3.39Z" transform="translate(-22.22 -27.5)"/><path d="M389.11,358.39h-2.56V334.7h2.56Z" transform="translate(-22.22 -27.5)"/><path d="M36.05,396.79H33.48v-2.5h-.06a5.36,5.36,0,0,1-4.92,2.87,5.27,5.27,0,0,1-3.74-1.26,4.41,4.41,0,0,1-1.35-3.36q0-4.49,5.28-5.22l4.79-.67c0-2.72-1.09-4.08-3.29-4.08a7.83,7.83,0,0,0-5.22,2v-2.63a9.9,9.9,0,0,1,5.44-1.5q5.64,0,5.64,6Zm-2.57-8.1-3.86.53a6.31,6.31,0,0,0-2.68.89,2.53,2.53,0,0,0-.91,2.24,2.42,2.42,0,0,0,.84,1.91,3.19,3.19,0,0,0,2.22.75,4.13,4.13,0,0,0,3.15-1.34,4.76,4.76,0,0,0,1.24-3.38Zm.35-16.06-4.1,5.13h-2l3.48-5.13Z" transform="translate(-22.22 -27.5)"/><path d="M54.16,396.79H51.59v-9.13q0-5.09-3.71-5.09A4,4,0,0,0,44.7,384a5.36,5.36,0,0,0-1.26,3.65v9.13H40.88v-16h2.56v2.65h.06a5.78,5.78,0,0,1,5.25-3,4.91,4.91,0,0,1,4,1.7,7.59,7.59,0,0,1,1.39,4.9Z" transform="translate(-22.22 -27.5)"/><path d="M72.64,395.51q0,8.81-8.44,8.81A11.27,11.27,0,0,1,59,403.19v-2.56a10.64,10.64,0,0,0,5.15,1.5q5.91,0,5.91-6.28V394.1H70a6.48,6.48,0,0,1-10.31.93,8.54,8.54,0,0,1-1.82-5.73,9.92,9.92,0,0,1,2-6.48,6.55,6.55,0,0,1,5.37-2.41A5.23,5.23,0,0,1,70,383h.06v-2.22h2.56Zm-2.56-6v-2.36a4.55,4.55,0,0,0-1.29-3.26,4.23,4.23,0,0,0-3.21-1.36,4.43,4.43,0,0,0-3.72,1.72,7.72,7.72,0,0,0-1.34,4.84,6.64,6.64,0,0,0,1.28,4.27A4.17,4.17,0,0,0,65.22,395a4.44,4.44,0,0,0,3.51-1.54A5.69,5.69,0,0,0,70.08,389.55Z" transform="translate(-22.22 -27.5)"/><path d="M90.77,396.79H88.2v-2.53h-.06a5.27,5.27,0,0,1-4.94,2.9q-5.72,0-5.72-6.81v-9.56H80v9.15Q80,395,83.91,395A3.92,3.92,0,0,0,87,393.62,5.25,5.25,0,0,0,88.2,390v-9.22h2.57Z" transform="translate(-22.22 -27.5)"/><path d="M98.5,396.79H95.94V373.1H98.5Z" transform="translate(-22.22 -27.5)"/><path d="M110.38,397.16a7.4,7.4,0,0,1-5.67-2.24,8.31,8.31,0,0,1-2.12-5.95,8.64,8.64,0,0,1,2.21-6.29,7.92,7.92,0,0,1,6-2.27,7.18,7.18,0,0,1,5.59,2.21,8.74,8.74,0,0,1,2,6.1,8.62,8.62,0,0,1-2.16,6.14A7.6,7.6,0,0,1,110.38,397.16Zm.18-14.59a4.86,4.86,0,0,0-3.9,1.68,6.88,6.88,0,0,0-1.44,4.63,6.54,6.54,0,0,0,1.45,4.49,5,5,0,0,0,3.89,1.64,4.69,4.69,0,0,0,3.82-1.61,7,7,0,0,0,1.34-4.58,7.14,7.14,0,0,0-1.34-4.63A4.66,4.66,0,0,0,110.56,382.57Z" transform="translate(-22.22 -27.5)"/><path d="M144.86,404.15H142.3V394h-.07a5.72,5.72,0,0,1-5.46,3.12,6,6,0,0,1-4.84-2.15,8.77,8.77,0,0,1-1.82-5.85,9.62,9.62,0,0,1,2-6.37,6.67,6.67,0,0,1,5.37-2.38,5,5,0,0,1,4.75,2.6h.07v-2.22h2.56Zm-2.56-14.57v-2.32a4.64,4.64,0,0,0-1.29-3.33,4.31,4.31,0,0,0-3.28-1.36,4.38,4.38,0,0,0-3.65,1.71,7.62,7.62,0,0,0-1.35,4.82,6.67,6.67,0,0,0,1.3,4.34,4.17,4.17,0,0,0,3.35,1.57,4.51,4.51,0,0,0,3.58-1.54A5.73,5.73,0,0,0,142.3,389.58Z" transform="translate(-22.22 -27.5)"/><path d="M163,396.79h-2.56v-2.53h-.06a5.27,5.27,0,0,1-4.94,2.9q-5.71,0-5.72-6.81v-9.56h2.55v9.15q0,5.07,3.87,5.07a3.93,3.93,0,0,0,3.09-1.39,5.25,5.25,0,0,0,1.21-3.61v-9.22H163Z" transform="translate(-22.22 -27.5)"/><path d="M181,389.43h-11.3a6,6,0,0,0,1.44,4.12,4.93,4.93,0,0,0,3.78,1.46,7.86,7.86,0,0,0,5-1.79v2.41a9.31,9.31,0,0,1-5.58,1.53A6.74,6.74,0,0,1,169,395a8.91,8.91,0,0,1-1.94-6.13,8.77,8.77,0,0,1,2.12-6.09,6.81,6.81,0,0,1,5.26-2.35,6,6,0,0,1,4.86,2,8.52,8.52,0,0,1,1.72,5.64Zm-2.63-2.17a5.26,5.26,0,0,0-1.07-3.46,3.65,3.65,0,0,0-2.93-1.23,4.13,4.13,0,0,0-3.08,1.3,5.89,5.89,0,0,0-1.56,3.39Z" transform="translate(-22.22 -27.5)"/><path d="M201.56,375.35a3.43,3.43,0,0,0-1.7-.42q-2.69,0-2.69,3.39v2.47h3.75V383h-3.75v13.82h-2.55V383h-2.73v-2.18h2.73v-2.6a5.38,5.38,0,0,1,1.46-4,4.87,4.87,0,0,1,3.62-1.46,5,5,0,0,1,1.86.28Z" transform="translate(-22.22 -27.5)"/><path d="M210.36,397.16a7.38,7.38,0,0,1-5.66-2.24,8.27,8.27,0,0,1-2.12-5.95,8.64,8.64,0,0,1,2.2-6.29,7.92,7.92,0,0,1,5.95-2.27,7.18,7.18,0,0,1,5.59,2.21,8.7,8.7,0,0,1,2,6.1,8.58,8.58,0,0,1-2.17,6.14A7.58,7.58,0,0,1,210.36,397.16Zm.19-14.59a4.88,4.88,0,0,0-3.91,1.68,6.88,6.88,0,0,0-1.44,4.63,6.54,6.54,0,0,0,1.46,4.49,4.93,4.93,0,0,0,3.89,1.64,4.7,4.7,0,0,0,3.82-1.61,7,7,0,0,0,1.33-4.58,7.13,7.13,0,0,0-1.33-4.63A4.68,4.68,0,0,0,210.55,382.57Z" transform="translate(-22.22 -27.5)"/><path d="M230.77,383.38a3.18,3.18,0,0,0-1.94-.51,3.25,3.25,0,0,0-2.74,1.54,7.12,7.12,0,0,0-1.11,4.22v8.16h-2.56v-16H225v3.29h.07a5.56,5.56,0,0,1,1.67-2.63,3.81,3.81,0,0,1,2.51-.94,4.41,4.41,0,0,1,1.54.21Z" transform="translate(-22.22 -27.5)"/><path d="M256.27,396.79H253.7V387.6a6.89,6.89,0,0,0-.82-3.84,3.08,3.08,0,0,0-2.76-1.19,3.4,3.4,0,0,0-2.78,1.5,5.71,5.71,0,0,0-1.15,3.59v9.13h-2.57v-9.5q0-4.73-3.64-4.72A3.38,3.38,0,0,0,237.2,384a5.85,5.85,0,0,0-1.09,3.68v9.13h-2.56v-16h2.56v2.53h.06a5.44,5.44,0,0,1,5-2.91,4.64,4.64,0,0,1,4.53,3.31,5.72,5.72,0,0,1,5.31-3.31c3.52,0,5.29,2.17,5.29,6.52Z" transform="translate(-22.22 -27.5)"/><path d="M272.56,396.79H270v-2.5h-.06a5.38,5.38,0,0,1-4.92,2.87,5.28,5.28,0,0,1-3.75-1.26,4.41,4.41,0,0,1-1.35-3.36q0-4.49,5.28-5.22l4.8-.67q0-4.08-3.3-4.08a7.87,7.87,0,0,0-5.22,2v-2.63a10,10,0,0,1,5.44-1.5q5.64,0,5.64,6Zm-2.56-8.1-3.86.53a6.36,6.36,0,0,0-2.69.89,2.55,2.55,0,0,0-.9,2.24,2.45,2.45,0,0,0,.83,1.91,3.22,3.22,0,0,0,2.23.75,4.13,4.13,0,0,0,3.15-1.34,4.76,4.76,0,0,0,1.24-3.38Z" transform="translate(-22.22 -27.5)"/><path d="M290.67,396.79h-2.56v-9.13q0-5.09-3.72-5.09a4,4,0,0,0-3.18,1.44,5.36,5.36,0,0,0-1.26,3.65v9.13h-2.56v-16H280v2.65H280a5.76,5.76,0,0,1,5.25-3,4.89,4.89,0,0,1,4,1.7,7.53,7.53,0,0,1,1.39,4.9Z" transform="translate(-22.22 -27.5)"/><path d="M306.83,396.79h-2.56V373.1h2.56Z" transform="translate(-22.22 -27.5)"/><path d="M318.7,397.16a7.4,7.4,0,0,1-5.66-2.24,8.31,8.31,0,0,1-2.12-5.95,8.68,8.68,0,0,1,2.2-6.29,7.94,7.94,0,0,1,6-2.27,7.16,7.16,0,0,1,5.58,2.21,10,10,0,0,1-.15,12.24A7.62,7.62,0,0,1,318.7,397.16Zm.19-14.59a4.88,4.88,0,0,0-3.91,1.68,6.93,6.93,0,0,0-1.43,4.63,6.54,6.54,0,0,0,1.45,4.49,5,5,0,0,0,3.89,1.64,4.69,4.69,0,0,0,3.82-1.61,7,7,0,0,0,1.34-4.58,7.14,7.14,0,0,0-1.34-4.63A4.66,4.66,0,0,0,318.89,382.57Z" transform="translate(-22.22 -27.5)"/><path d="M329.8,396.21v-2.75a7.58,7.58,0,0,0,4.61,1.55c2.25,0,3.37-.75,3.37-2.25a2,2,0,0,0-.29-1.09,2.79,2.79,0,0,0-.78-.79,6.28,6.28,0,0,0-1.16-.62l-1.43-.57a17.44,17.44,0,0,1-1.86-.85,5.44,5.44,0,0,1-1.35-1,3.52,3.52,0,0,1-.81-1.22,4.42,4.42,0,0,1-.27-1.61,3.89,3.89,0,0,1,.51-2,4.76,4.76,0,0,1,1.38-1.45,6.48,6.48,0,0,1,2-.88,8.57,8.57,0,0,1,2.27-.3,9.14,9.14,0,0,1,3.72.72v2.59a7.25,7.25,0,0,0-4.06-1.15,4.77,4.77,0,0,0-1.3.16,3.48,3.48,0,0,0-1,.46,2.15,2.15,0,0,0-.64.71,1.93,1.93,0,0,0-.23.92,2.23,2.23,0,0,0,.23,1.05,2.32,2.32,0,0,0,.66.75,5.59,5.59,0,0,0,1.07.59c.41.18.89.37,1.42.58a20.67,20.67,0,0,1,1.9.83,6.35,6.35,0,0,1,1.44,1,3.93,3.93,0,0,1,.92,1.24,4.09,4.09,0,0,1,.32,1.68,3.92,3.92,0,0,1-.53,2.06,4.4,4.4,0,0,1-1.4,1.45,6.3,6.3,0,0,1-2,.86,9.84,9.84,0,0,1-2.39.28A9.1,9.1,0,0,1,329.8,396.21Z" transform="translate(-22.22 -27.5)"/><path d="M37.17,419.19l-6.37,16H28.28l-6.06-16H25l4.06,11.62a10.51,10.51,0,0,1,.57,2.24h.06a10.18,10.18,0,0,1,.5-2.17l4.25-11.69Z" transform="translate(-22.22 -27.5)"/><path d="M52.78,427.83H41.48A6,6,0,0,0,42.92,432a5,5,0,0,0,3.78,1.46,7.86,7.86,0,0,0,5-1.79V434a9.27,9.27,0,0,1-5.58,1.53,6.72,6.72,0,0,1-5.32-2.18,8.86,8.86,0,0,1-1.94-6.13A8.72,8.72,0,0,1,41,421.16a6.8,6.8,0,0,1,5.25-2.35,6,6,0,0,1,4.86,2,8.47,8.47,0,0,1,1.72,5.64Zm-2.62-2.17a5.26,5.26,0,0,0-1.07-3.46A3.66,3.66,0,0,0,46.16,421a4.12,4.12,0,0,0-3.08,1.3,5.77,5.77,0,0,0-1.56,3.39Z" transform="translate(-22.22 -27.5)"/><path d="M67.56,434.45a8.3,8.3,0,0,1-4.37,1.11,7.27,7.27,0,0,1-5.53-2.22,8.09,8.09,0,0,1-2.1-5.78,8.88,8.88,0,0,1,2.27-6.35,7.92,7.92,0,0,1,6.05-2.4,8.4,8.4,0,0,1,3.71.78v2.63A6.5,6.5,0,0,0,63.78,421a5.12,5.12,0,0,0-4,1.76,6.64,6.64,0,0,0-1.57,4.61,6.36,6.36,0,0,0,1.47,4.44,5.09,5.09,0,0,0,4,1.63A6.47,6.47,0,0,0,67.56,432Z" transform="translate(-22.22 -27.5)"/><path d="M78.86,435a5,5,0,0,1-2.39.5q-4.2,0-4.2-4.69v-9.46H69.52v-2.19h2.75v-3.91l2.56-.83v4.74h4v2.19h-4v9a3.72,3.72,0,0,0,.55,2.3,2.16,2.16,0,0,0,1.81.69,2.67,2.67,0,0,0,1.67-.54Z" transform="translate(-22.22 -27.5)"/><path d="M89,435.56a7.42,7.42,0,0,1-5.67-2.24,8.3,8.3,0,0,1-2.11-5.94,8.65,8.65,0,0,1,2.2-6.3,7.92,7.92,0,0,1,6-2.27A7.18,7.18,0,0,1,94.93,421a8.7,8.7,0,0,1,2,6.1,8.58,8.58,0,0,1-2.17,6.14A7.58,7.58,0,0,1,89,435.56ZM89.16,421a4.88,4.88,0,0,0-3.91,1.68,6.88,6.88,0,0,0-1.44,4.63,6.54,6.54,0,0,0,1.46,4.49,4.93,4.93,0,0,0,3.89,1.64A4.7,4.7,0,0,0,93,431.8a7,7,0,0,0,1.33-4.58A7.13,7.13,0,0,0,93,422.59,4.68,4.68,0,0,0,89.16,421Z" transform="translate(-22.22 -27.5)"/><path d="M109.38,421.78a3.18,3.18,0,0,0-1.94-.51,3.25,3.25,0,0,0-2.74,1.54,7.12,7.12,0,0,0-1.11,4.22v8.16H101v-16h2.56v3.29h.07a5.56,5.56,0,0,1,1.67-2.63,3.81,3.81,0,0,1,2.51-.94,4.41,4.41,0,0,1,1.54.21Z" transform="translate(-22.22 -27.5)"/><path d="M125,427.83h-11.3a6,6,0,0,0,1.44,4.12,4.93,4.93,0,0,0,3.78,1.46,7.86,7.86,0,0,0,5-1.79V434a9.31,9.31,0,0,1-5.58,1.53,6.74,6.74,0,0,1-5.33-2.18,8.91,8.91,0,0,1-1.94-6.13,8.77,8.77,0,0,1,2.12-6.09,6.81,6.81,0,0,1,5.26-2.35,6,6,0,0,1,4.86,2,8.52,8.52,0,0,1,1.72,5.64Zm-2.63-2.17a5.26,5.26,0,0,0-1.07-3.46,3.65,3.65,0,0,0-2.93-1.23,4.13,4.13,0,0,0-3.08,1.3,5.89,5.89,0,0,0-1.56,3.39Z" transform="translate(-22.22 -27.5)"/><path d="M127.92,434.61v-2.75a7.6,7.6,0,0,0,4.61,1.55c2.25,0,3.38-.75,3.38-2.25a2,2,0,0,0-.29-1.09,3.08,3.08,0,0,0-.78-.79,6.62,6.62,0,0,0-1.16-.62l-1.43-.57a17.66,17.66,0,0,1-1.87-.85,5.57,5.57,0,0,1-1.34-1,3.52,3.52,0,0,1-.81-1.22,4.21,4.21,0,0,1-.28-1.61,3.74,3.74,0,0,1,.52-2,4.54,4.54,0,0,1,1.37-1.46,6.6,6.6,0,0,1,2-.88,8.7,8.7,0,0,1,2.28-.3,9.21,9.21,0,0,1,3.72.72v2.59a7.26,7.26,0,0,0-4.07-1.15,4.65,4.65,0,0,0-1.29.16,3.24,3.24,0,0,0-1,.46,2.3,2.3,0,0,0-.65.71,1.92,1.92,0,0,0-.22.92,2.23,2.23,0,0,0,.22,1,2.49,2.49,0,0,0,.67.75,5.48,5.48,0,0,0,1.06.59l1.42.58c.71.27,1.35.55,1.91.83a6.83,6.83,0,0,1,1.44,1,3.9,3.9,0,0,1,.91,1.24,4.09,4.09,0,0,1,.32,1.68A3.92,3.92,0,0,1,138,433a4.51,4.51,0,0,1-1.4,1.45,6.35,6.35,0,0,1-2,.86,9.78,9.78,0,0,1-2.39.28A9.16,9.16,0,0,1,127.92,434.61Z" transform="translate(-22.22 -27.5)"/><path d="M168.92,435.19H166l-2.38-6.28h-9.5l-2.23,6.28H149l8.6-22.41h2.72Zm-6.14-8.64L159.27,417a8.88,8.88,0,0,1-.35-1.5h-.06a8.27,8.27,0,0,1-.36,1.5L155,426.55Z" transform="translate(-22.22 -27.5)"/><path d="M193.38,419.19,186,437.75c-1.32,3.31-3.16,5-5.54,5a6.11,6.11,0,0,1-1.67-.2v-2.3a4.68,4.68,0,0,0,1.52.28c1.29,0,2.26-.77,2.9-2.31l1.29-3-6.25-16h2.84l4.33,12.31c.05.16.16.56.33,1.22h.09c0-.25.16-.65.31-1.19l4.55-12.34Z" transform="translate(-22.22 -27.5)"/><path d="M205.23,435.19V412.78h6.38a7,7,0,0,1,4.61,1.42,4.63,4.63,0,0,1,1.7,3.71,5.43,5.43,0,0,1-1,3.31,5.61,5.61,0,0,1-2.84,2v.06a5.7,5.7,0,0,1,3.62,1.71,5.27,5.27,0,0,1,1.36,3.76,5.88,5.88,0,0,1-2.06,4.66,7.72,7.72,0,0,1-5.2,1.78Zm2.63-20v7.23h2.69a5.14,5.14,0,0,0,3.39-1,3.62,3.62,0,0,0,1.23-2.93q0-3.26-4.29-3.26Zm0,9.59v8.06h3.56a5.35,5.35,0,0,0,3.59-1.09,3.74,3.74,0,0,0,1.27-3q0-4-5.4-4Z" transform="translate(-22.22 -27.5)"/><path d="M244.86,427.83h-11.3A6,6,0,0,0,235,432a5,5,0,0,0,3.78,1.46,7.86,7.86,0,0,0,5-1.79V434a9.31,9.31,0,0,1-5.58,1.53,6.74,6.74,0,0,1-5.33-2.18,8.91,8.91,0,0,1-1.93-6.13,8.77,8.77,0,0,1,2.11-6.09,6.82,6.82,0,0,1,5.26-2.35,6,6,0,0,1,4.86,2,8.47,8.47,0,0,1,1.72,5.64Zm-2.63-2.17a5.21,5.21,0,0,0-1.07-3.46,3.65,3.65,0,0,0-2.93-1.23,4.11,4.11,0,0,0-3.07,1.3,5.84,5.84,0,0,0-1.57,3.39Z" transform="translate(-22.22 -27.5)"/><path d="M262,435.19h-2.57v-9.13q0-5.08-3.72-5.09a4,4,0,0,0-3.18,1.44,5.41,5.41,0,0,0-1.25,3.65v9.13h-2.57v-16h2.57v2.65h.06a5.78,5.78,0,0,1,5.25-3,4.88,4.88,0,0,1,4,1.7,7.53,7.53,0,0,1,1.4,4.9Z" transform="translate(-22.22 -27.5)"/><path d="M288.47,427.83h-11.3a6,6,0,0,0,1.44,4.12,5,5,0,0,0,3.78,1.46,7.86,7.86,0,0,0,5-1.79V434a9.31,9.31,0,0,1-5.58,1.53,6.74,6.74,0,0,1-5.33-2.18,8.91,8.91,0,0,1-1.93-6.13,8.77,8.77,0,0,1,2.11-6.09,6.82,6.82,0,0,1,5.26-2.35,6,6,0,0,1,4.86,2,8.47,8.47,0,0,1,1.72,5.64Zm-2.63-2.17a5.21,5.21,0,0,0-1.07-3.46,3.65,3.65,0,0,0-2.93-1.23,4.1,4.1,0,0,0-3.07,1.3,5.84,5.84,0,0,0-1.57,3.39Z" transform="translate(-22.22 -27.5)"/><path d="M294.91,435.19h-2.57V411.5h2.57Z" transform="translate(-22.22 -27.5)"/><path d="M311.48,432.88h-.06v9.67h-2.56V419.19h2.56V422h.06a6.08,6.08,0,0,1,5.54-3.19,5.85,5.85,0,0,1,4.82,2.15,8.87,8.87,0,0,1,1.74,5.76,9.87,9.87,0,0,1-2,6.43,6.49,6.49,0,0,1-5.34,2.41A5.36,5.36,0,0,1,311.48,432.88Zm-.06-6.46v2.24a4.74,4.74,0,0,0,1.29,3.36,4.58,4.58,0,0,0,6.92-.4,8.14,8.14,0,0,0,1.32-4.95,6.49,6.49,0,0,0-1.23-4.19,4.08,4.08,0,0,0-3.34-1.51,4.56,4.56,0,0,0-3.6,1.55A5.75,5.75,0,0,0,311.42,426.42Z" transform="translate(-22.22 -27.5)"/><path d="M330.23,435.19h-2.56V411.5h2.56Z" transform="translate(-22.22 -27.5)"/><path d="M346.88,435.19h-2.57v-2.5h-.06a5.38,5.38,0,0,1-4.92,2.87,5.26,5.26,0,0,1-3.74-1.26,4.38,4.38,0,0,1-1.36-3.36q0-4.49,5.29-5.22l4.79-.67q0-4.08-3.29-4.08a7.83,7.83,0,0,0-5.22,2v-2.63a9.89,9.89,0,0,1,5.43-1.5c3.76,0,5.65,2,5.65,6Zm-2.57-8.1-3.86.53a6.31,6.31,0,0,0-2.68.89,2.53,2.53,0,0,0-.91,2.24,2.42,2.42,0,0,0,.84,1.91,3.17,3.17,0,0,0,2.22.75,4.13,4.13,0,0,0,3.15-1.34,4.76,4.76,0,0,0,1.24-3.38Z" transform="translate(-22.22 -27.5)"/><path d="M365,435.19h-2.56v-9.13q0-5.08-3.72-5.09a4,4,0,0,0-3.18,1.44,5.36,5.36,0,0,0-1.25,3.65v9.13H351.7v-16h2.57v2.65h.06a5.78,5.78,0,0,1,5.25-3,4.88,4.88,0,0,1,4,1.7,7.53,7.53,0,0,1,1.39,4.9Z" transform="translate(-22.22 -27.5)"/><path d="M376.5,435.56a7.38,7.38,0,0,1-5.66-2.24,8.26,8.26,0,0,1-2.12-5.94,8.65,8.65,0,0,1,2.2-6.3,7.94,7.94,0,0,1,6-2.27,7.17,7.17,0,0,1,5.58,2.21,8.7,8.7,0,0,1,2,6.1,8.58,8.58,0,0,1-2.17,6.14A7.58,7.58,0,0,1,376.5,435.56Zm.19-14.59a4.88,4.88,0,0,0-3.91,1.68,6.88,6.88,0,0,0-1.44,4.63,6.54,6.54,0,0,0,1.46,4.49,4.94,4.94,0,0,0,3.89,1.64,4.7,4.7,0,0,0,3.82-1.61,7,7,0,0,0,1.33-4.58,7.13,7.13,0,0,0-1.33-4.63A4.68,4.68,0,0,0,376.69,421Z" transform="translate(-22.22 -27.5)"/><path d="M38.25,481H35.69V470.84h-.07A5.72,5.72,0,0,1,30.16,474a6,6,0,0,1-4.84-2.15A8.77,8.77,0,0,1,23.5,466a9.58,9.58,0,0,1,2-6.36,6.65,6.65,0,0,1,5.38-2.39,5,5,0,0,1,4.74,2.6h.07v-2.22h2.56Zm-2.56-14.57v-2.32a4.64,4.64,0,0,0-1.29-3.33,4.31,4.31,0,0,0-3.28-1.36,4.38,4.38,0,0,0-3.65,1.71,7.62,7.62,0,0,0-1.35,4.82,6.67,6.67,0,0,0,1.3,4.34,4.17,4.17,0,0,0,3.35,1.57,4.51,4.51,0,0,0,3.58-1.54A5.73,5.73,0,0,0,35.69,466.38Z" transform="translate(-22.22 -27.5)"/><path d="M56.38,473.59H53.81v-2.53h-.06a5.27,5.27,0,0,1-4.94,2.9q-5.72,0-5.72-6.81v-9.56h2.55v9.15q0,5.07,3.88,5.07a3.89,3.89,0,0,0,3.08-1.39,5.25,5.25,0,0,0,1.21-3.61v-9.22h2.57Z" transform="translate(-22.22 -27.5)"/><path d="M74.41,466.23H63.11a6,6,0,0,0,1.44,4.12,4.93,4.93,0,0,0,3.78,1.46,7.91,7.91,0,0,0,5-1.78v2.4A9.31,9.31,0,0,1,67.72,474a6.74,6.74,0,0,1-5.33-2.18,8.91,8.91,0,0,1-1.94-6.13,8.77,8.77,0,0,1,2.12-6.09,6.81,6.81,0,0,1,5.26-2.35,6,6,0,0,1,4.86,2,8.52,8.52,0,0,1,1.72,5.64Zm-2.63-2.17a5.26,5.26,0,0,0-1.07-3.46,3.65,3.65,0,0,0-2.93-1.23,4.13,4.13,0,0,0-3.08,1.3,5.89,5.89,0,0,0-1.56,3.39Z" transform="translate(-22.22 -27.5)"/><path d="M89.61,473.59H87.05V449.9h2.56Z" transform="translate(-22.22 -27.5)"/><path d="M101.48,474a7.4,7.4,0,0,1-5.66-2.24,8.31,8.31,0,0,1-2.12-5.94,8.65,8.65,0,0,1,2.21-6.3,7.92,7.92,0,0,1,6-2.27,7.19,7.19,0,0,1,5.59,2.21,8.75,8.75,0,0,1,2,6.11,8.61,8.61,0,0,1-2.16,6.13A7.57,7.57,0,0,1,101.48,474Zm.19-14.59a4.86,4.86,0,0,0-3.9,1.68,6.88,6.88,0,0,0-1.44,4.63,6.54,6.54,0,0,0,1.45,4.49,5,5,0,0,0,3.89,1.64,4.69,4.69,0,0,0,3.82-1.61,7,7,0,0,0,1.34-4.58,7.14,7.14,0,0,0-1.34-4.63A4.66,4.66,0,0,0,101.67,459.37Z" transform="translate(-22.22 -27.5)"/><path d="M112.58,473v-2.75a7.58,7.58,0,0,0,4.61,1.55c2.25,0,3.37-.75,3.37-2.25a1.91,1.91,0,0,0-.29-1.09,2.79,2.79,0,0,0-.78-.79,6.51,6.51,0,0,0-1.15-.62l-1.43-.57a17.66,17.66,0,0,1-1.87-.85,5.2,5.2,0,0,1-1.34-1,3.55,3.55,0,0,1-.82-1.22,4.42,4.42,0,0,1-.27-1.61,3.83,3.83,0,0,1,.51-2,4.69,4.69,0,0,1,1.38-1.46,6.48,6.48,0,0,1,2-.88,8.63,8.63,0,0,1,2.27-.3,9.14,9.14,0,0,1,3.72.72v2.6a7.16,7.16,0,0,0-4.06-1.16,4.77,4.77,0,0,0-1.3.16,3.48,3.48,0,0,0-1,.46,2.19,2.19,0,0,0-.64.72,1.86,1.86,0,0,0-.23.91,2.23,2.23,0,0,0,.23,1.05,2.32,2.32,0,0,0,.66.75,5.91,5.91,0,0,0,1.07.59c.41.18.89.37,1.42.58.71.27,1.34.55,1.91.83a6.51,6.51,0,0,1,1.43,1,3.93,3.93,0,0,1,.92,1.24,4.09,4.09,0,0,1,.32,1.68,3.92,3.92,0,0,1-.53,2.06,4.47,4.47,0,0,1-1.39,1.45,6.45,6.45,0,0,1-2,.86,9.84,9.84,0,0,1-2.39.28A9.13,9.13,0,0,1,112.58,473Z" transform="translate(-22.22 -27.5)"/><path d="M146.8,472.85a8.34,8.34,0,0,1-4.38,1.11,7.25,7.25,0,0,1-5.52-2.22,8.09,8.09,0,0,1-2.1-5.78,8.88,8.88,0,0,1,2.26-6.35,7.93,7.93,0,0,1,6.05-2.4,8.44,8.44,0,0,1,3.72.78v2.63a6.55,6.55,0,0,0-3.81-1.25,5.17,5.17,0,0,0-4,1.76,6.69,6.69,0,0,0-1.57,4.61,6.32,6.32,0,0,0,1.48,4.44,5.06,5.06,0,0,0,4,1.63,6.49,6.49,0,0,0,3.94-1.39Z" transform="translate(-22.22 -27.5)"/><path d="M157.36,474a7.38,7.38,0,0,1-5.66-2.24,8.26,8.26,0,0,1-2.12-5.94,8.65,8.65,0,0,1,2.2-6.3,7.92,7.92,0,0,1,5.95-2.27,7.18,7.18,0,0,1,5.59,2.21,8.71,8.71,0,0,1,2,6.11,8.57,8.57,0,0,1-2.17,6.13A7.55,7.55,0,0,1,157.36,474Zm.19-14.59a4.88,4.88,0,0,0-3.91,1.68,6.88,6.88,0,0,0-1.44,4.63,6.54,6.54,0,0,0,1.46,4.49,4.93,4.93,0,0,0,3.89,1.64,4.7,4.7,0,0,0,3.82-1.61,7,7,0,0,0,1.33-4.58,7.13,7.13,0,0,0-1.33-4.63A4.68,4.68,0,0,0,157.55,459.37Z" transform="translate(-22.22 -27.5)"/><path d="M182.7,473.59h-2.56v-9.13q0-5.08-3.72-5.09a4,4,0,0,0-3.18,1.44,5.36,5.36,0,0,0-1.26,3.65v9.13h-2.56v-16H172v2.65h.07a5.76,5.76,0,0,1,5.25-3,4.88,4.88,0,0,1,4,1.7,7.53,7.53,0,0,1,1.39,4.9Z" transform="translate(-22.22 -27.5)"/><path d="M195,473.43a5,5,0,0,1-2.39.5q-4.2,0-4.2-4.69v-9.46h-2.75v-2.19h2.75v-3.91l2.56-.83v4.74h4v2.19h-4v9a3.72,3.72,0,0,0,.55,2.3,2.17,2.17,0,0,0,1.81.69,2.65,2.65,0,0,0,1.67-.54Z" transform="translate(-22.22 -27.5)"/><path d="M199.69,453.53a1.62,1.62,0,0,1-1.17-.47,1.58,1.58,0,0,1-.49-1.19,1.6,1.6,0,0,1,.49-1.2,1.62,1.62,0,0,1,1.17-.47,1.67,1.67,0,0,1,1.19.47,1.61,1.61,0,0,1,.5,1.2,1.57,1.57,0,0,1-.5,1.17A1.65,1.65,0,0,1,199.69,453.53Zm1.25,20.06h-2.56v-16h2.56Z" transform="translate(-22.22 -27.5)"/><path d="M219,466.23H207.69a6,6,0,0,0,1.43,4.12,5,5,0,0,0,3.79,1.46,7.93,7.93,0,0,0,5-1.78v2.4A9.31,9.31,0,0,1,212.3,474a6.74,6.74,0,0,1-5.33-2.18,8.91,8.91,0,0,1-1.94-6.13,8.77,8.77,0,0,1,2.12-6.09,6.81,6.81,0,0,1,5.26-2.35,6,6,0,0,1,4.86,2,8.52,8.52,0,0,1,1.71,5.64Zm-2.62-2.17a5.26,5.26,0,0,0-1.07-3.46,3.65,3.65,0,0,0-2.93-1.23,4.12,4.12,0,0,0-3.08,1.3,5.89,5.89,0,0,0-1.56,3.39Z" transform="translate(-22.22 -27.5)"/><path d="M236.14,473.59h-2.56v-9.13q0-5.08-3.72-5.09a4,4,0,0,0-3.18,1.44,5.36,5.36,0,0,0-1.26,3.65v9.13h-2.56v-16h2.56v2.65h.06a5.78,5.78,0,0,1,5.25-3,4.91,4.91,0,0,1,4,1.7,7.53,7.53,0,0,1,1.39,4.9Z" transform="translate(-22.22 -27.5)"/><path d="M253.83,466.23h-11.3a6,6,0,0,0,1.44,4.12,5,5,0,0,0,3.78,1.46,7.91,7.91,0,0,0,5-1.78v2.4a9.31,9.31,0,0,1-5.58,1.53,6.74,6.74,0,0,1-5.33-2.18,8.91,8.91,0,0,1-1.93-6.13,8.77,8.77,0,0,1,2.11-6.09,6.82,6.82,0,0,1,5.26-2.35,6,6,0,0,1,4.86,2,8.52,8.52,0,0,1,1.72,5.64Zm-2.63-2.17a5.21,5.21,0,0,0-1.07-3.46,3.65,3.65,0,0,0-2.93-1.23,4.13,4.13,0,0,0-3.08,1.3,5.89,5.89,0,0,0-1.56,3.39Z" transform="translate(-22.22 -27.5)"/><path d="M258.59,473.93a1.65,1.65,0,0,1-1.22-.51,1.76,1.76,0,0,1,0-2.48,1.63,1.63,0,0,1,1.22-.52,1.75,1.75,0,0,1,1.25,3A1.71,1.71,0,0,1,258.59,473.93Z" transform="translate(-22.22 -27.5)"/><line x1="206.82" y1="34" x2="192.45" y2="34"/><line x1="201.48" y1="34" x2="192.45" y2="34" style="fill:none;stroke:#000;stroke-linecap:round;stroke-linejoin:round;stroke-width:1.2px"/><path d="M229,61.5a26.55,26.55,0,0,1-7.56-4.21L223,61.5l-1.52,4.21A26.55,26.55,0,0,1,229,61.5Z" transform="translate(-22.22 -27.5)"/><line x1="215" y1="72" x2="200.63" y2="72"/><line x1="209.67" y1="72" x2="200.63" y2="72" style="fill:none;stroke:#000;stroke-linecap:round;stroke-linejoin:round;stroke-width:1.2px"/><path d="M237.22,99.5a26.69,26.69,0,0,1-7.56-4.21l1.53,4.21-1.53,4.21A26.69,26.69,0,0,1,237.22,99.5Z" transform="translate(-22.22 -27.5)"/><line x1="254.11" y1="72" x2="239.74" y2="72"/><line x1="248.77" y1="72" x2="239.74" y2="72" style="fill:none;stroke:#000;stroke-linecap:round;stroke-linejoin:round;stroke-width:1.2px"/><path d="M276.33,99.5a26.55,26.55,0,0,1-7.56-4.21l1.52,4.21-1.52,4.21A26.55,26.55,0,0,1,276.33,99.5Z" transform="translate(-22.22 -27.5)"/><line x1="146.82" y1="379" x2="132.45" y2="379"/><line x1="141.48" y1="379" x2="132.45" y2="379" style="fill:none;stroke:#000;stroke-linecap:round;stroke-linejoin:round;stroke-width:1.2px"/><path d="M169,406.5a26.55,26.55,0,0,1-7.56-4.21L163,406.5l-1.52,4.21A26.55,26.55,0,0,1,169,406.5Z" transform="translate(-22.22 -27.5)"/><line x1="197.63" y1="379" x2="183.26" y2="379"/><line x1="192.3" y1="379" x2="183.26" y2="379" style="fill:none;stroke:#000;stroke-linecap:round;stroke-linejoin:round;stroke-width:1.2px"/><path d="M219.85,406.5a26.55,26.55,0,0,1-7.56-4.21l1.52,4.21-1.52,4.21A26.55,26.55,0,0,1,219.85,406.5Z" transform="translate(-22.22 -27.5)"/><line x1="256.78" y1="34" x2="242.41" y2="34"/><line x1="251.44" y1="34" x2="242.41" y2="34" style="fill:none;stroke:#000;stroke-linecap:round;stroke-linejoin:round;stroke-width:1.2px"/><path d="M279,61.5a26.55,26.55,0,0,1-7.56-4.21L273,61.5l-1.52,4.21A26.55,26.55,0,0,1,279,61.5Z" transform="translate(-22.22 -27.5)"/><circle cx="227.3" cy="88.74" r="3.26"/><line x1="295.05" y1="113.92" x2="275.91" y2="140.96" style="fill:none;stroke:#000;stroke-miterlimit:10"/><line x1="260.01" y1="267.5" x2="240.88" y2="294.54" style="fill:none;stroke:#000;stroke-miterlimit:10"/></svg>