<svg id="Capa_1" data-name="Capa 1" xmlns="http://www.w3.org/2000/svg" viewBox="0 0 1152.25 171.35"><path d="M37.2,54.91h-13V30.4H36.65V33H27.08v8.15h8.86v2.58H27.08v8.58H37.2Z" transform="translate(-22.64 -17.79)"/><path d="M54.33,37.41l-5.88,8.85,5.77,8.65H51l-3.44-5.68c-.21-.35-.47-.79-.77-1.33h-.06l-.81,1.33-3.5,5.68H39.15l6-8.58-5.7-8.92h3.26l3.38,6c.25.44.5.9.74,1.37h.07l4.37-7.35Z" transform="translate(-22.64 -17.79)"/><path d="M59,33a1.77,1.77,0,0,1-1.28-.51,1.86,1.86,0,0,1,0-2.6A1.75,1.75,0,0,1,59,29.32a1.82,1.82,0,0,1,1.31.53,1.72,1.72,0,0,1,.54,1.3,1.76,1.76,0,0,1-.54,1.29A1.81,1.81,0,0,1,59,33Zm1.37,21.95h-2.8V37.41h2.8Z" transform="translate(-22.64 -17.79)"/><path d="M65,54.28v-3a8.29,8.29,0,0,0,5,1.69q3.7,0,3.7-2.46a2.16,2.16,0,0,0-.32-1.19,3.3,3.3,0,0,0-.85-.86,6.57,6.57,0,0,0-1.27-.68l-1.56-.62a21.46,21.46,0,0,1-2.05-.93,6.47,6.47,0,0,1-1.46-1.06,3.83,3.83,0,0,1-.89-1.34,4.73,4.73,0,0,1-.3-1.76,4.24,4.24,0,0,1,.56-2.18,5.08,5.08,0,0,1,1.51-1.59,7,7,0,0,1,2.14-1A9.77,9.77,0,0,1,71.76,37a10.07,10.07,0,0,1,4.06.78v2.84a7.91,7.91,0,0,0-4.44-1.26,5.2,5.2,0,0,0-1.42.18,3.37,3.37,0,0,0-1.08.5,2.35,2.35,0,0,0-.7.78,2,2,0,0,0-.25,1A2.34,2.34,0,0,0,68.18,43a2.41,2.41,0,0,0,.72.82,5.51,5.51,0,0,0,1.16.65q.69.3,1.56.63c.77.3,1.47.61,2.09.92A7.43,7.43,0,0,1,75.28,47a4.17,4.17,0,0,1,1,1.36,4.42,4.42,0,0,1,.35,1.83,4.24,4.24,0,0,1-.58,2.25,4.91,4.91,0,0,1-1.52,1.59,7,7,0,0,1-2.21.94,10.6,10.6,0,0,1-2.61.31A10,10,0,0,1,65,54.28Z" transform="translate(-22.64 -17.79)"/><path d="M89.05,54.74a5.45,5.45,0,0,1-2.61.54c-3.07,0-4.6-1.7-4.6-5.12V39.8h-3V37.41h3V33.14l2.8-.91v5.18h4.41V39.8H84.64v9.86a4.06,4.06,0,0,0,.6,2.51,2.36,2.36,0,0,0,2,.76,2.93,2.93,0,0,0,1.83-.59Z" transform="translate(-22.64 -17.79)"/><path d="M106.86,46.86H94.5a6.53,6.53,0,0,0,1.58,4.51A5.41,5.41,0,0,0,100.21,53a8.63,8.63,0,0,0,5.44-2v2.63a10.17,10.17,0,0,1-6.11,1.68,7.38,7.38,0,0,1-5.82-2.39,9.71,9.71,0,0,1-2.12-6.7,9.59,9.59,0,0,1,2.31-6.66A7.45,7.45,0,0,1,99.66,37,6.59,6.59,0,0,1,105,39.22a9.28,9.28,0,0,1,1.88,6.17ZM104,44.48a5.68,5.68,0,0,0-1.17-3.77,4,4,0,0,0-3.21-1.35,4.52,4.52,0,0,0-3.36,1.41,6.39,6.39,0,0,0-1.71,3.71Z" transform="translate(-22.64 -17.79)"/><path d="M128,55.32a8.15,8.15,0,0,1-6.2-2.45,9.12,9.12,0,0,1-2.31-6.51,9.43,9.43,0,0,1,2.41-6.88A8.63,8.63,0,0,1,128.41,37a7.83,7.83,0,0,1,6.11,2.41,9.56,9.56,0,0,1,2.2,6.68,9.4,9.4,0,0,1-2.37,6.71A8.31,8.31,0,0,1,128,55.32Zm.2-16a5.34,5.34,0,0,0-4.27,1.83,7.56,7.56,0,0,0-1.57,5.07A7.16,7.16,0,0,0,124,51.17,5.42,5.42,0,0,0,128.2,53a5.12,5.12,0,0,0,4.18-1.76,7.6,7.6,0,0,0,1.46-5,7.75,7.75,0,0,0-1.46-5.06A5.1,5.1,0,0,0,128.2,39.36Z" transform="translate(-22.64 -17.79)"/><path d="M149.31,54.74a5.45,5.45,0,0,1-2.61.54c-3.07,0-4.6-1.7-4.6-5.12V39.8h-3V37.41h3V33.14l2.8-.91v5.18h4.41V39.8H144.9v9.86a4.06,4.06,0,0,0,.6,2.51,2.36,2.36,0,0,0,2,.76,2.93,2.93,0,0,0,1.83-.59Z" transform="translate(-22.64 -17.79)"/><path d="M162.18,40.25a3.41,3.41,0,0,0-2.12-.57,3.59,3.59,0,0,0-3,1.69,7.87,7.87,0,0,0-1.2,4.62v8.92h-2.81V37.41h2.81V41h.06a6.13,6.13,0,0,1,1.83-2.88,4.22,4.22,0,0,1,2.75-1,4.6,4.6,0,0,1,1.68.24Z" transform="translate(-22.64 -17.79)"/><path d="M172.54,55.32a8.13,8.13,0,0,1-6.2-2.45A9.13,9.13,0,0,1,164,46.36a9.47,9.47,0,0,1,2.41-6.88A8.65,8.65,0,0,1,173,37a7.86,7.86,0,0,1,6.11,2.41,9.55,9.55,0,0,1,2.19,6.68,9.4,9.4,0,0,1-2.37,6.71A8.27,8.27,0,0,1,172.54,55.32Zm.2-16a5.34,5.34,0,0,0-4.27,1.83,7.56,7.56,0,0,0-1.57,5.07,7.16,7.16,0,0,0,1.59,4.91A5.39,5.39,0,0,0,172.74,53a5.15,5.15,0,0,0,4.18-1.76,7.65,7.65,0,0,0,1.46-5,7.8,7.8,0,0,0-1.46-5.06A5.12,5.12,0,0,0,172.74,39.36Z" transform="translate(-22.64 -17.79)"/><path d="M198.19,52.38h-.07V63h-2.8V37.41h2.8v3.07h.07A6.63,6.63,0,0,1,204.24,37a6.41,6.41,0,0,1,5.28,2.35,9.74,9.74,0,0,1,1.9,6.3,10.88,10.88,0,0,1-2.14,7,7.12,7.12,0,0,1-5.85,2.64A5.85,5.85,0,0,1,198.19,52.38Zm-.07-7.06v2.44a5.22,5.22,0,0,0,1.41,3.69A5,5,0,0,0,207.1,51a9,9,0,0,0,1.44-5.42A7.08,7.08,0,0,0,207.19,41a4.47,4.47,0,0,0-3.65-1.65,4.94,4.94,0,0,0-3.93,1.7A6.19,6.19,0,0,0,198.12,45.32Z" transform="translate(-22.64 -17.79)"/><path d="M225,40.25a3.41,3.41,0,0,0-2.12-.57,3.59,3.59,0,0,0-3,1.69A7.87,7.87,0,0,0,218.7,46v8.92h-2.81V37.41h2.81V41h.06a6.13,6.13,0,0,1,1.83-2.88,4.22,4.22,0,0,1,2.75-1,4.6,4.6,0,0,1,1.68.24Z" transform="translate(-22.64 -17.79)"/><path d="M235.38,55.32a8.13,8.13,0,0,1-6.2-2.45,9.13,9.13,0,0,1-2.32-6.51,9.47,9.47,0,0,1,2.41-6.88A8.65,8.65,0,0,1,235.79,37a7.82,7.82,0,0,1,6.1,2.41,9.51,9.51,0,0,1,2.2,6.68,9.4,9.4,0,0,1-2.37,6.71A8.27,8.27,0,0,1,235.38,55.32Zm.2-16a5.34,5.34,0,0,0-4.27,1.83,7.56,7.56,0,0,0-1.57,5.07,7.21,7.21,0,0,0,1.58,4.91A5.43,5.43,0,0,0,235.58,53a5.15,5.15,0,0,0,4.18-1.76,7.65,7.65,0,0,0,1.46-5,7.8,7.8,0,0,0-1.46-5.06A5.12,5.12,0,0,0,235.58,39.36Z" transform="translate(-22.64 -17.79)"/><path d="M263.5,54.91h-2.8v-3h-.07a7,7,0,0,1-11.28,1,9.63,9.63,0,0,1-2-6.4,10.49,10.49,0,0,1,2.19-7A7.22,7.22,0,0,1,255.39,37a5.6,5.6,0,0,1,5.24,2.83h.07V29h2.8ZM260.7,47V44.42a5,5,0,0,0-1.4-3.59,4.69,4.69,0,0,0-3.55-1.47,4.83,4.83,0,0,0-4,1.88,8.21,8.21,0,0,0-1.47,5.19,7.42,7.42,0,0,0,1.41,4.78A4.6,4.6,0,0,0,255.44,53a4.77,4.77,0,0,0,3.8-1.69A6.32,6.32,0,0,0,260.7,47Z" transform="translate(-22.64 -17.79)"/><path d="M283.33,54.91h-2.8V52.14h-.07a5.75,5.75,0,0,1-5.4,3.18q-6.26,0-6.26-7.45V37.41h2.79v10q0,5.53,4.24,5.54a4.28,4.28,0,0,0,3.37-1.51,5.82,5.82,0,0,0,1.33-4V37.41h2.8Z" transform="translate(-22.64 -17.79)"/><path d="M300.91,54.1a9.06,9.06,0,0,1-4.78,1.22,7.89,7.89,0,0,1-6-2.44,8.83,8.83,0,0,1-2.3-6.31,9.73,9.73,0,0,1,2.48-7A8.65,8.65,0,0,1,296.88,37a9.23,9.23,0,0,1,4.07.85v2.87a7.13,7.13,0,0,0-4.17-1.36,5.63,5.63,0,0,0-4.4,1.92,7.26,7.26,0,0,0-1.72,5,6.92,6.92,0,0,0,1.62,4.85A5.54,5.54,0,0,0,296.61,53a7,7,0,0,0,4.3-1.52Z" transform="translate(-22.64 -17.79)"/><path d="M313.27,54.74a5.45,5.45,0,0,1-2.61.54c-3.07,0-4.6-1.7-4.6-5.12V39.8h-3V37.41h3V33.14l2.8-.91v5.18h4.41V39.8h-4.41v9.86a4.06,4.06,0,0,0,.6,2.51,2.36,2.36,0,0,0,2,.76,2.93,2.93,0,0,0,1.83-.59Z" transform="translate(-22.64 -17.79)"/><path d="M324.33,55.32a8.15,8.15,0,0,1-6.2-2.45,9.12,9.12,0,0,1-2.31-6.51,9.43,9.43,0,0,1,2.41-6.88A8.61,8.61,0,0,1,324.74,37a7.84,7.84,0,0,1,6.11,2.41A9.55,9.55,0,0,1,333,46.09a9.44,9.44,0,0,1-2.36,6.71A8.31,8.31,0,0,1,324.33,55.32Zm.2-16a5.34,5.34,0,0,0-4.27,1.83,7.56,7.56,0,0,0-1.57,5.07,7.16,7.16,0,0,0,1.59,4.91A5.42,5.42,0,0,0,324.53,53a5.13,5.13,0,0,0,4.18-1.76,7.6,7.6,0,0,0,1.46-5,7.75,7.75,0,0,0-1.46-5.06A5.11,5.11,0,0,0,324.53,39.36Z" transform="translate(-22.64 -17.79)"/><path d="M361.17,46.86H348.82a6.52,6.52,0,0,0,1.57,4.51A5.42,5.42,0,0,0,354.53,53,8.58,8.58,0,0,0,360,51v2.63a10.13,10.13,0,0,1-6.1,1.68A7.4,7.4,0,0,1,348,52.93a9.76,9.76,0,0,1-2.12-6.7,9.55,9.55,0,0,1,2.32-6.66A7.43,7.43,0,0,1,354,37a6.57,6.57,0,0,1,5.31,2.22,9.23,9.23,0,0,1,1.88,6.17Zm-2.87-2.38a5.68,5.68,0,0,0-1.17-3.77,4,4,0,0,0-3.2-1.35,4.55,4.55,0,0,0-3.37,1.41,6.52,6.52,0,0,0-1.71,3.71Z" transform="translate(-22.64 -17.79)"/><path d="M379.94,54.91h-2.8v-10c0-3.72-1.36-5.57-4.07-5.57a4.4,4.4,0,0,0-3.48,1.58,5.83,5.83,0,0,0-1.38,4v10h-2.8V37.41h2.8v2.9h.07A6.31,6.31,0,0,1,374,37a5.39,5.39,0,0,1,4.4,1.85,8.29,8.29,0,0,1,1.52,5.36Z" transform="translate(-22.64 -17.79)"/><path d="M393.34,54.74a5.49,5.49,0,0,1-2.62.54c-3.06,0-4.6-1.7-4.6-5.12V39.8h-3V37.41h3V33.14l2.81-.91v5.18h4.41V39.8h-4.41v9.86a4.06,4.06,0,0,0,.6,2.51,2.34,2.34,0,0,0,2,.76,3,3,0,0,0,1.83-.59Z" transform="translate(-22.64 -17.79)"/><path d="M406.21,40.25a3.43,3.43,0,0,0-2.12-.57,3.59,3.59,0,0,0-3,1.69A7.79,7.79,0,0,0,399.88,46v8.92h-2.8V37.41h2.8V41H400a6.13,6.13,0,0,1,1.83-2.88,4.22,4.22,0,0,1,2.75-1,4.6,4.6,0,0,1,1.68.24Z" transform="translate(-22.64 -17.79)"/><path d="M423.31,46.86H411a6.52,6.52,0,0,0,1.57,4.51A5.41,5.41,0,0,0,416.66,53a8.61,8.61,0,0,0,5.44-2v2.63a10.13,10.13,0,0,1-6.1,1.68,7.39,7.39,0,0,1-5.83-2.39,9.76,9.76,0,0,1-2.12-6.7,9.55,9.55,0,0,1,2.32-6.66A7.43,7.43,0,0,1,416.12,37a6.57,6.57,0,0,1,5.31,2.22,9.23,9.23,0,0,1,1.88,6.17Zm-2.87-2.38a5.68,5.68,0,0,0-1.17-3.77,4,4,0,0,0-3.2-1.35,4.53,4.53,0,0,0-3.37,1.41A6.52,6.52,0,0,0,411,44.48Z" transform="translate(-22.64 -17.79)"/><path d="M439.94,54.91h-2.8V29h2.8Z" transform="translate(-22.64 -17.79)"/><path d="M452.93,55.32a8.15,8.15,0,0,1-6.2-2.45,9.12,9.12,0,0,1-2.31-6.51,9.43,9.43,0,0,1,2.41-6.88A8.61,8.61,0,0,1,453.34,37a7.84,7.84,0,0,1,6.11,2.41,9.55,9.55,0,0,1,2.19,6.68,9.4,9.4,0,0,1-2.36,6.71A8.31,8.31,0,0,1,452.93,55.32Zm.2-16a5.34,5.34,0,0,0-4.27,1.83,7.56,7.56,0,0,0-1.57,5.07,7.16,7.16,0,0,0,1.59,4.91A5.42,5.42,0,0,0,453.13,53a5.12,5.12,0,0,0,4.18-1.76,7.6,7.6,0,0,0,1.46-5,7.75,7.75,0,0,0-1.46-5.06A5.1,5.1,0,0,0,453.13,39.36Z" transform="translate(-22.64 -17.79)"/><path d="M465.06,54.28v-3a8.29,8.29,0,0,0,5,1.69c2.46,0,3.7-.82,3.7-2.46a2.16,2.16,0,0,0-.32-1.19,3.19,3.19,0,0,0-.86-.86,6.47,6.47,0,0,0-1.26-.68l-1.56-.62a21.46,21.46,0,0,1-2.05-.93,6.77,6.77,0,0,1-1.47-1.06,3.81,3.81,0,0,1-.88-1.34,4.73,4.73,0,0,1-.3-1.76,4.14,4.14,0,0,1,.56-2.18,5.17,5.17,0,0,1,1.5-1.59,7.14,7.14,0,0,1,2.15-1A9.77,9.77,0,0,1,471.8,37a10.07,10.07,0,0,1,4.06.78v2.84a7.93,7.93,0,0,0-4.44-1.26,5.2,5.2,0,0,0-1.42.18,3.37,3.37,0,0,0-1.08.5,2.25,2.25,0,0,0-.7.78,2,2,0,0,0-.25,1,2.34,2.34,0,0,0,.25,1.14,2.41,2.41,0,0,0,.72.82,5.51,5.51,0,0,0,1.16.65q.69.3,1.56.63c.77.3,1.47.61,2.08.92A7.26,7.26,0,0,1,475.32,47a4.17,4.17,0,0,1,1,1.36,4.42,4.42,0,0,1,.35,1.83,4.24,4.24,0,0,1-.58,2.25,4.84,4.84,0,0,1-1.53,1.59,6.84,6.84,0,0,1-2.2.94,10.6,10.6,0,0,1-2.61.31A10,10,0,0,1,465.06,54.28Z" transform="translate(-22.64 -17.79)"/><path d="M504.32,37.41l-7,17.5h-2.76L488,37.41H491l4.44,12.71a11.55,11.55,0,0,1,.62,2.45h.07a11.41,11.41,0,0,1,.54-2.38l4.65-12.78Z" transform="translate(-22.64 -17.79)"/><path d="M521.39,46.86H509a6.53,6.53,0,0,0,1.58,4.51A5.41,5.41,0,0,0,514.74,53a8.63,8.63,0,0,0,5.44-2v2.63a10.13,10.13,0,0,1-6.1,1.68,7.39,7.39,0,0,1-5.83-2.39,9.76,9.76,0,0,1-2.12-6.7,9.59,9.59,0,0,1,2.31-6.66A7.47,7.47,0,0,1,514.2,37a6.57,6.57,0,0,1,5.31,2.22,9.28,9.28,0,0,1,1.88,6.17Zm-2.87-2.38a5.68,5.68,0,0,0-1.17-3.77,4,4,0,0,0-3.21-1.35,4.52,4.52,0,0,0-3.36,1.41,6.45,6.45,0,0,0-1.71,3.71Z" transform="translate(-22.64 -17.79)"/><path d="M537.56,54.1a9.12,9.12,0,0,1-4.79,1.22,7.9,7.9,0,0,1-6-2.44,8.83,8.83,0,0,1-2.3-6.31,9.73,9.73,0,0,1,2.48-7A8.66,8.66,0,0,1,533.52,37a9.2,9.2,0,0,1,4.07.85v2.87a7.13,7.13,0,0,0-4.17-1.36,5.64,5.64,0,0,0-4.4,1.92,7.31,7.31,0,0,0-1.72,5,6.92,6.92,0,0,0,1.62,4.85A5.55,5.55,0,0,0,533.25,53a7.06,7.06,0,0,0,4.31-1.52Z" transform="translate(-22.64 -17.79)"/><path d="M549.91,54.74a5.45,5.45,0,0,1-2.61.54c-3.07,0-4.6-1.7-4.6-5.12V39.8h-3V37.41h3V33.14l2.8-.91v5.18h4.41V39.8H545.5v9.86a4.06,4.06,0,0,0,.6,2.51,2.36,2.36,0,0,0,2,.76,2.93,2.93,0,0,0,1.83-.59Z" transform="translate(-22.64 -17.79)"/><path d="M561,55.32a8.11,8.11,0,0,1-6.19-2.45,9.09,9.09,0,0,1-2.32-6.51,9.43,9.43,0,0,1,2.41-6.88A8.64,8.64,0,0,1,561.38,37a7.83,7.83,0,0,1,6.11,2.41,9.56,9.56,0,0,1,2.2,6.68,9.4,9.4,0,0,1-2.37,6.71A8.31,8.31,0,0,1,561,55.32Zm.21-16a5.36,5.36,0,0,0-4.28,1.83,7.56,7.56,0,0,0-1.57,5.07,7.16,7.16,0,0,0,1.59,4.91A5.43,5.43,0,0,0,561.18,53a5.11,5.11,0,0,0,4.17-1.76,7.6,7.6,0,0,0,1.47-5,7.75,7.75,0,0,0-1.47-5.06A5.09,5.09,0,0,0,561.18,39.36Z" transform="translate(-22.64 -17.79)"/><path d="M583.29,40.25a3.41,3.41,0,0,0-2.12-.57,3.59,3.59,0,0,0-3,1.69A7.87,7.87,0,0,0,577,46v8.92h-2.81V37.41H577V41H577a6,6,0,0,1,1.82-2.88,4.22,4.22,0,0,1,2.76-1,4.58,4.58,0,0,1,1.67.24Z" transform="translate(-22.64 -17.79)"/><path d="M600.4,46.86H588a6.57,6.57,0,0,0,1.57,4.51A5.43,5.43,0,0,0,593.75,53a8.58,8.58,0,0,0,5.43-2v2.63a10.11,10.11,0,0,1-6.1,1.68,7.42,7.42,0,0,1-5.83-2.39,9.75,9.75,0,0,1-2.11-6.7,9.59,9.59,0,0,1,2.31-6.66A7.45,7.45,0,0,1,593.2,37a6.6,6.6,0,0,1,5.32,2.22,9.28,9.28,0,0,1,1.88,6.17Zm-2.87-2.38a5.79,5.79,0,0,0-1.17-3.77,4,4,0,0,0-3.21-1.35,4.56,4.56,0,0,0-3.37,1.41,6.44,6.44,0,0,0-1.7,3.71Z" transform="translate(-22.64 -17.79)"/><path d="M603.58,54.28v-3a8.25,8.25,0,0,0,5,1.69q3.69,0,3.69-2.46a2.16,2.16,0,0,0-.32-1.19,3.15,3.15,0,0,0-.85-.86,6.57,6.57,0,0,0-1.27-.68l-1.56-.62a21.2,21.2,0,0,1-2-.93,6.32,6.32,0,0,1-1.47-1.06,3.83,3.83,0,0,1-.89-1.34,4.73,4.73,0,0,1-.3-1.76,4.24,4.24,0,0,1,.56-2.18,5.08,5.08,0,0,1,1.51-1.59,7,7,0,0,1,2.14-1,9.83,9.83,0,0,1,2.49-.32,10.15,10.15,0,0,1,4.07.78v2.84a8,8,0,0,0-4.45-1.26,5.13,5.13,0,0,0-1.41.18,3.32,3.32,0,0,0-1.09.5,2.35,2.35,0,0,0-.7.78,2,2,0,0,0-.25,1,2.34,2.34,0,0,0,.25,1.14,2.45,2.45,0,0,0,.73.82,5,5,0,0,0,1.16.65c.45.2,1,.41,1.55.63.78.3,1.47.61,2.09.92A7.18,7.18,0,0,1,613.83,47a4,4,0,0,1,1,1.36,4.42,4.42,0,0,1,.35,1.83,4.32,4.32,0,0,1-.57,2.25,5,5,0,0,1-1.53,1.59,6.89,6.89,0,0,1-2.21.94,10.6,10.6,0,0,1-2.61.31A10,10,0,0,1,603.58,54.28Z" transform="translate(-22.64 -17.79)"/><path d="M643.31,54.91l-1.11-6.85H631.81l-4,6.85h-3.38L639.05,30.4h3l4.27,24.51ZM640.16,35c0-.11,0-.24,0-.39s0-.3,0-.44v-.82h-.07c0,.1-.08.22-.13.36l-.19.45c-.07.15-.14.3-.22.45l-.19.39-6.05,10.43h8.46Z" transform="translate(-22.64 -17.79)"/><path d="M674.7,37.41l-8.05,20.3c-1.43,3.62-3.45,5.44-6,5.44a6.21,6.21,0,0,1-1.82-.23V60.41a5,5,0,0,0,1.65.31c1.41,0,2.47-.84,3.18-2.53l1.4-3.32-6.83-17.46h3.11L666,50.88c.06.17.18.61.36,1.33h.1c.06-.28.17-.71.34-1.3l5-13.5Z" transform="translate(-22.64 -17.79)"/><path d="M703.7,35.7a7.37,7.37,0,0,1-.32,2.2,5.87,5.87,0,0,1-1,1.9,6.29,6.29,0,0,1-1.73,1.48,7.68,7.68,0,0,1-2.5.9v.06a5.61,5.61,0,0,1,1.85.63,4.66,4.66,0,0,1,1.33,1.1,4.4,4.4,0,0,1,.79,1.46,5.47,5.47,0,0,1,.27,1.74,7.7,7.7,0,0,1-.69,3.34,6.93,6.93,0,0,1-1.93,2.42,8.49,8.49,0,0,1-2.91,1.47,12.53,12.53,0,0,1-3.65.51h-7.48L690.9,30.4h6.75a7.67,7.67,0,0,1,2.6.41,5.42,5.42,0,0,1,1.9,1.13,4.74,4.74,0,0,1,1.16,1.68A5.54,5.54,0,0,1,703.7,35.7Zm-4.34,11.65a3.47,3.47,0,0,0-1.24-2.82,5.94,5.94,0,0,0-3.83-1H691l-1.81,8.82h3.95A9.83,9.83,0,0,0,696,52a5.3,5.3,0,0,0,1.92-1A4,4,0,0,0,699,49.4,5.55,5.55,0,0,0,699.36,47.35Zm1.34-11.1a3.53,3.53,0,0,0-.21-1.23,2.79,2.79,0,0,0-.66-1,3.19,3.19,0,0,0-1.18-.72,5.33,5.33,0,0,0-1.77-.26h-3.57l-1.71,7.91h3.22a8.65,8.65,0,0,0,2.57-.34,5.29,5.29,0,0,0,1.83-1,3.9,3.9,0,0,0,1.08-1.47,4.82,4.82,0,0,0,.36-1.89Z" transform="translate(-22.64 -17.79)"/><path d="M731.88,54.91h-2.8v-3H729a7,7,0,0,1-11.28,1,9.63,9.63,0,0,1-2-6.4,10.49,10.49,0,0,1,2.19-7A7.22,7.22,0,0,1,723.77,37,5.6,5.6,0,0,1,729,39.83h.07V29h2.8ZM729.08,47V44.42a5,5,0,0,0-1.4-3.59,4.69,4.69,0,0,0-3.55-1.47,4.83,4.83,0,0,0-4,1.88,8.21,8.21,0,0,0-1.47,5.19A7.42,7.42,0,0,0,720,51.21,4.6,4.6,0,0,0,723.82,53a4.77,4.77,0,0,0,3.8-1.69A6.32,6.32,0,0,0,729.08,47Z" transform="translate(-22.64 -17.79)"/><path d="M751.62,46.86H739.27a6.52,6.52,0,0,0,1.57,4.51A5.42,5.42,0,0,0,745,53a8.58,8.58,0,0,0,5.43-2v2.63a10.13,10.13,0,0,1-6.1,1.68,7.4,7.4,0,0,1-5.83-2.39,9.76,9.76,0,0,1-2.12-6.7,9.55,9.55,0,0,1,2.32-6.66A7.43,7.43,0,0,1,744.43,37a6.57,6.57,0,0,1,5.31,2.22,9.23,9.23,0,0,1,1.88,6.17Zm-2.87-2.38a5.68,5.68,0,0,0-1.17-3.77,4,4,0,0,0-3.2-1.35A4.55,4.55,0,0,0,741,40.77a6.52,6.52,0,0,0-1.71,3.71Z" transform="translate(-22.64 -17.79)"/><path d="M770.39,54.91h-2.8v-10c0-3.72-1.36-5.57-4.07-5.57A4.4,4.4,0,0,0,760,40.94a5.83,5.83,0,0,0-1.37,4v10h-2.81V37.41h2.81v2.9h.06A6.32,6.32,0,0,1,764.48,37a5.38,5.38,0,0,1,4.39,1.85,8.29,8.29,0,0,1,1.52,5.36Z" transform="translate(-22.64 -17.79)"/><path d="M783,55.32a8.13,8.13,0,0,1-6.19-2.45,9.09,9.09,0,0,1-2.32-6.51,9.47,9.47,0,0,1,2.41-6.88A8.64,8.64,0,0,1,783.39,37a7.83,7.83,0,0,1,6.11,2.41,9.51,9.51,0,0,1,2.2,6.68,9.4,9.4,0,0,1-2.37,6.71A8.29,8.29,0,0,1,783,55.32Zm.21-16a5.32,5.32,0,0,0-4.27,1.83,7.56,7.56,0,0,0-1.58,5.07,7.16,7.16,0,0,0,1.59,4.91A5.43,5.43,0,0,0,783.19,53a5.15,5.15,0,0,0,4.18-1.76,7.65,7.65,0,0,0,1.46-5,7.8,7.8,0,0,0-1.46-5.06A5.12,5.12,0,0,0,783.19,39.36Z" transform="translate(-22.64 -17.79)"/><path d="M804.29,54.74a5.45,5.45,0,0,1-2.61.54c-3.07,0-4.6-1.7-4.6-5.12V39.8h-3V37.41h3V33.14l2.8-.91v5.18h4.41V39.8h-4.41v9.86a4.06,4.06,0,0,0,.6,2.51,2.37,2.37,0,0,0,2,.76,2.92,2.92,0,0,0,1.82-.59Z" transform="translate(-22.64 -17.79)"/><path d="M820.56,54.91h-2.8V52.17h-.07a5.86,5.86,0,0,1-5.38,3.15,5.71,5.71,0,0,1-4.09-1.39,4.76,4.76,0,0,1-1.48-3.67q0-4.9,5.77-5.71l5.25-.73c0-3-1.2-4.46-3.6-4.46a8.58,8.58,0,0,0-5.71,2.15V38.64A10.78,10.78,0,0,1,814.39,37q6.18,0,6.17,6.53Zm-2.8-8.85-4.22.58a6.84,6.84,0,0,0-2.94,1,2.78,2.78,0,0,0-1,2.45,2.67,2.67,0,0,0,.91,2.1A3.54,3.54,0,0,0,813,53a4.5,4.5,0,0,0,3.44-1.46,5.22,5.22,0,0,0,1.36-3.7Z" transform="translate(-22.64 -17.79)"/><path d="M840.78,54.91H838v-3h-.07a6.47,6.47,0,0,1-6,3.39A6.54,6.54,0,0,1,826.62,53a9.68,9.68,0,0,1-2-6.4,10.49,10.49,0,0,1,2.19-7A7.2,7.2,0,0,1,832.66,37a5.6,5.6,0,0,1,5.25,2.83H838V29h2.8ZM838,47V44.42a5,5,0,0,0-1.4-3.59A4.71,4.71,0,0,0,833,39.36a4.81,4.81,0,0,0-4,1.88,8.21,8.21,0,0,0-1.47,5.19,7.42,7.42,0,0,0,1.41,4.78A4.6,4.6,0,0,0,832.71,53a4.79,4.79,0,0,0,3.81-1.69A6.32,6.32,0,0,0,838,47Z" transform="translate(-22.64 -17.79)"/><path d="M853.77,55.32a8.15,8.15,0,0,1-6.2-2.45,9.12,9.12,0,0,1-2.31-6.51,9.43,9.43,0,0,1,2.41-6.88A8.63,8.63,0,0,1,854.18,37a7.83,7.83,0,0,1,6.11,2.41,9.56,9.56,0,0,1,2.2,6.68,9.4,9.4,0,0,1-2.37,6.71A8.31,8.31,0,0,1,853.77,55.32Zm.2-16a5.34,5.34,0,0,0-4.27,1.83,7.56,7.56,0,0,0-1.57,5.07,7.16,7.16,0,0,0,1.59,4.91A5.42,5.42,0,0,0,854,53a5.12,5.12,0,0,0,4.18-1.76,7.6,7.6,0,0,0,1.46-5,7.75,7.75,0,0,0-1.46-5.06A5.1,5.1,0,0,0,854,39.36Z" transform="translate(-22.64 -17.79)"/><path d="M888.48,54.1a9.12,9.12,0,0,1-4.79,1.22,7.9,7.9,0,0,1-6-2.44,8.83,8.83,0,0,1-2.3-6.31,9.73,9.73,0,0,1,2.48-7A8.67,8.67,0,0,1,884.45,37a9.18,9.18,0,0,1,4.06.85v2.87a7.13,7.13,0,0,0-4.17-1.36,5.64,5.64,0,0,0-4.4,1.92,7.31,7.31,0,0,0-1.72,5,6.92,6.92,0,0,0,1.62,4.85A5.55,5.55,0,0,0,884.17,53a7.06,7.06,0,0,0,4.31-1.52Z" transform="translate(-22.64 -17.79)"/><path d="M900,55.32a8.11,8.11,0,0,1-6.19-2.45,9.09,9.09,0,0,1-2.32-6.51,9.43,9.43,0,0,1,2.41-6.88A8.64,8.64,0,0,1,900.44,37a7.83,7.83,0,0,1,6.11,2.41,9.56,9.56,0,0,1,2.2,6.68,9.4,9.4,0,0,1-2.37,6.71A8.29,8.29,0,0,1,900,55.32Zm.21-16A5.36,5.36,0,0,0,896,41.19a7.61,7.61,0,0,0-1.57,5.07A7.16,7.16,0,0,0,896,51.17,5.43,5.43,0,0,0,900.24,53a5.15,5.15,0,0,0,4.18-1.76,7.65,7.65,0,0,0,1.46-5,7.8,7.8,0,0,0-1.46-5.06A5.12,5.12,0,0,0,900.24,39.36Z" transform="translate(-22.64 -17.79)"/><path d="M938.07,54.91h-2.8v-10a7.53,7.53,0,0,0-.9-4.2,3.37,3.37,0,0,0-3-1.3A3.7,3.7,0,0,0,928.31,41a6.25,6.25,0,0,0-1.26,3.93v10h-2.8V44.52q0-5.16-4-5.16a3.7,3.7,0,0,0-3,1.54,6.46,6.46,0,0,0-1.19,4v10h-2.81V37.41H916v2.77h.07A5.94,5.94,0,0,1,921.53,37a5,5,0,0,1,3.13,1,5,5,0,0,1,1.83,2.62A6.25,6.25,0,0,1,932.3,37q5.78,0,5.77,7.12Z" transform="translate(-22.64 -17.79)"/><path d="M950.69,55.32a8.13,8.13,0,0,1-6.2-2.45,9.13,9.13,0,0,1-2.32-6.51,9.47,9.47,0,0,1,2.41-6.88A8.65,8.65,0,0,1,951.1,37a7.86,7.86,0,0,1,6.11,2.41,9.55,9.55,0,0,1,2.19,6.68A9.4,9.4,0,0,1,957,52.8,8.27,8.27,0,0,1,950.69,55.32Zm.2-16a5.34,5.34,0,0,0-4.27,1.83,7.56,7.56,0,0,0-1.57,5.07,7.16,7.16,0,0,0,1.59,4.91A5.39,5.39,0,0,0,950.89,53a5.15,5.15,0,0,0,4.18-1.76,7.65,7.65,0,0,0,1.46-5,7.8,7.8,0,0,0-1.46-5.06A5.12,5.12,0,0,0,950.89,39.36Z" transform="translate(-22.64 -17.79)"/><path d="M987.7,54.91l-1.11-6.85H976.2l-4,6.85h-3.39l14.6-24.51h3l4.28,24.51ZM984.56,35q0-.16,0-.39c0-.15,0-.3,0-.44v-.82h-.06c0,.1-.08.22-.14.36l-.19.45-.21.45-.2.39-6.05,10.43h8.46Z" transform="translate(-22.64 -17.79)"/><path d="M1021.71,50.5l-1.61,1.61-5.81-5.82-5.77,5.82-1.61-1.61,5.81-5.78-5.81-5.81,1.61-1.6,5.77,5.81,5.81-5.81,1.61,1.6-5.81,5.81Z" transform="translate(-22.64 -17.79)"/><path d="M1055.1,35.7a7.37,7.37,0,0,1-.32,2.2,5.87,5.87,0,0,1-1,1.9,6.29,6.29,0,0,1-1.73,1.48,7.68,7.68,0,0,1-2.5.9v.06a5.53,5.53,0,0,1,1.85.63,4.66,4.66,0,0,1,1.33,1.1,4.4,4.4,0,0,1,.79,1.46,5.47,5.47,0,0,1,.27,1.74,7.7,7.7,0,0,1-.69,3.34,6.93,6.93,0,0,1-1.93,2.42,8.49,8.49,0,0,1-2.91,1.47,12.53,12.53,0,0,1-3.65.51h-7.48l5.17-24.51h6.75a7.67,7.67,0,0,1,2.6.41,5.42,5.42,0,0,1,1.9,1.13,4.74,4.74,0,0,1,1.16,1.68A5.54,5.54,0,0,1,1055.1,35.7Zm-4.34,11.65a3.47,3.47,0,0,0-1.24-2.82,5.94,5.94,0,0,0-3.83-1h-3.25l-1.81,8.82h3.95a9.83,9.83,0,0,0,2.77-.35,5.3,5.3,0,0,0,1.92-1,4,4,0,0,0,1.13-1.56A5.55,5.55,0,0,0,1050.76,47.35Zm1.34-11.1a3.53,3.53,0,0,0-.21-1.23,2.67,2.67,0,0,0-.66-1,3.19,3.19,0,0,0-1.18-.72,5.31,5.31,0,0,0-1.76-.26h-3.58L1043,40.91h3.22a8.65,8.65,0,0,0,2.57-.34,5.29,5.29,0,0,0,1.83-1,3.9,3.9,0,0,0,1.08-1.47,4.82,4.82,0,0,0,.36-1.89Z" transform="translate(-22.64 -17.79)"/><path d="M1070.91,51l-2.73,8.41h-2l2-8.41Z" transform="translate(-22.64 -17.79)"/><path d="M38.77,96.91H36v-3H35.9a6.46,6.46,0,0,1-6,3.39A6.55,6.55,0,0,1,24.61,95a9.68,9.68,0,0,1-2-6.4,10.49,10.49,0,0,1,2.19-7A7.22,7.22,0,0,1,30.66,79a5.6,5.6,0,0,1,5.24,2.83H36V71h2.8ZM36,89V86.42a5,5,0,0,0-1.4-3.59A4.71,4.71,0,0,0,31,81.36a4.83,4.83,0,0,0-4,1.88,8.21,8.21,0,0,0-1.47,5.19,7.42,7.42,0,0,0,1.41,4.78A4.6,4.6,0,0,0,30.71,95a4.77,4.77,0,0,0,3.8-1.69A6.32,6.32,0,0,0,36,89Z" transform="translate(-22.64 -17.79)"/><path d="M58.51,88.86H46.16a6.52,6.52,0,0,0,1.57,4.51A5.41,5.41,0,0,0,51.86,95,8.61,8.61,0,0,0,57.3,93v2.63a10.13,10.13,0,0,1-6.1,1.68,7.4,7.4,0,0,1-5.83-2.39,9.76,9.76,0,0,1-2.12-6.7,9.55,9.55,0,0,1,2.32-6.66A7.43,7.43,0,0,1,51.32,79a6.57,6.57,0,0,1,5.31,2.22,9.23,9.23,0,0,1,1.88,6.17Zm-2.87-2.38a5.68,5.68,0,0,0-1.17-3.77,4,4,0,0,0-3.2-1.35,4.53,4.53,0,0,0-3.37,1.41,6.52,6.52,0,0,0-1.71,3.71Z" transform="translate(-22.64 -17.79)"/><path d="M77.28,96.91H74.47v-10c0-3.72-1.35-5.57-4.06-5.57a4.4,4.4,0,0,0-3.48,1.58,5.83,5.83,0,0,0-1.38,4v10h-2.8V79.41h2.8v2.9h.07A6.31,6.31,0,0,1,71.36,79a5.39,5.39,0,0,1,4.4,1.85,8.29,8.29,0,0,1,1.52,5.36Z" transform="translate(-22.64 -17.79)"/><path d="M89.87,97.32a8.13,8.13,0,0,1-6.19-2.45,9.09,9.09,0,0,1-2.32-6.51,9.43,9.43,0,0,1,2.41-6.88A8.64,8.64,0,0,1,90.28,79a7.83,7.83,0,0,1,6.11,2.41,9.51,9.51,0,0,1,2.2,6.68,9.4,9.4,0,0,1-2.37,6.71A8.29,8.29,0,0,1,89.87,97.32Zm.21-16a5.36,5.36,0,0,0-4.28,1.83,7.61,7.61,0,0,0-1.57,5.07,7.16,7.16,0,0,0,1.59,4.91A5.43,5.43,0,0,0,90.08,95a5.15,5.15,0,0,0,4.18-1.76,7.65,7.65,0,0,0,1.46-5,7.8,7.8,0,0,0-1.46-5.06A5.12,5.12,0,0,0,90.08,81.36Z" transform="translate(-22.64 -17.79)"/><path d="M127.91,96.91h-2.8v-10a7.53,7.53,0,0,0-.9-4.2,3.37,3.37,0,0,0-3-1.3,3.7,3.7,0,0,0-3,1.64,6.25,6.25,0,0,0-1.26,3.93v10h-2.8V86.52q0-5.16-4-5.16a3.7,3.7,0,0,0-3,1.54,6.46,6.46,0,0,0-1.19,4v10h-2.8V79.41h2.8v2.77h.07A5.94,5.94,0,0,1,111.37,79a5,5,0,0,1,3.13,1,5,5,0,0,1,1.83,2.62A6.25,6.25,0,0,1,122.14,79q5.77,0,5.77,7.12Z" transform="translate(-22.64 -17.79)"/><path d="M134.65,75a1.77,1.77,0,0,1-1.28-.51,1.86,1.86,0,0,1,0-2.6,1.75,1.75,0,0,1,1.28-.53,1.82,1.82,0,0,1,1.31.53,1.75,1.75,0,0,1,.53,1.3,1.79,1.79,0,0,1-.53,1.29A1.81,1.81,0,0,1,134.65,75Zm1.36,22h-2.8V79.41H136Z" transform="translate(-22.64 -17.79)"/><path d="M156.21,96.91h-2.8v-10c0-3.72-1.35-5.57-4.07-5.57a4.37,4.37,0,0,0-3.47,1.58,5.83,5.83,0,0,0-1.38,4v10h-2.8V79.41h2.8v2.9h.07A6.3,6.3,0,0,1,150.3,79a5.35,5.35,0,0,1,4.39,1.85,8.23,8.23,0,0,1,1.52,5.36Z" transform="translate(-22.64 -17.79)"/><path d="M174,96.91h-2.8V94.17h-.07a5.86,5.86,0,0,1-5.38,3.15,5.7,5.7,0,0,1-4.09-1.39,4.76,4.76,0,0,1-1.48-3.67q0-4.91,5.77-5.71l5.25-.73c0-3-1.2-4.46-3.61-4.46a8.57,8.57,0,0,0-5.7,2.15V80.64A10.78,10.78,0,0,1,167.85,79Q174,79,174,85.53Zm-2.8-8.85-4.22.58a6.84,6.84,0,0,0-2.94,1,2.78,2.78,0,0,0-1,2.45,2.67,2.67,0,0,0,.91,2.1,3.54,3.54,0,0,0,2.44.81,4.5,4.5,0,0,0,3.44-1.46,5.22,5.22,0,0,0,1.36-3.7Z" transform="translate(-22.64 -17.79)"/><path d="M194.24,96.91h-2.8v-3h-.07a7.06,7.06,0,0,1-11.29,1,9.68,9.68,0,0,1-2-6.4,10.54,10.54,0,0,1,2.18-7A7.24,7.24,0,0,1,186.12,79a5.61,5.61,0,0,1,5.25,2.83h.07V71h2.8ZM191.44,89V86.42a5,5,0,0,0-1.4-3.59,4.71,4.71,0,0,0-3.56-1.47,4.81,4.81,0,0,0-4,1.88A8.21,8.21,0,0,0,181,88.43a7.42,7.42,0,0,0,1.41,4.78A4.6,4.6,0,0,0,186.17,95,4.8,4.8,0,0,0,190,93.27,6.32,6.32,0,0,0,191.44,89Z" transform="translate(-22.64 -17.79)"/><path d="M207.23,97.32a8.15,8.15,0,0,1-6.2-2.45,9.12,9.12,0,0,1-2.31-6.51,9.43,9.43,0,0,1,2.41-6.88A8.61,8.61,0,0,1,207.64,79a7.84,7.84,0,0,1,6.11,2.41,9.55,9.55,0,0,1,2.19,6.68,9.44,9.44,0,0,1-2.36,6.71A8.31,8.31,0,0,1,207.23,97.32Zm.2-16a5.34,5.34,0,0,0-4.27,1.83,7.56,7.56,0,0,0-1.57,5.07,7.16,7.16,0,0,0,1.59,4.91A5.42,5.42,0,0,0,207.43,95a5.13,5.13,0,0,0,4.18-1.76,7.6,7.6,0,0,0,1.46-5,7.75,7.75,0,0,0-1.46-5.06A5.11,5.11,0,0,0,207.43,81.36Z" transform="translate(-22.64 -17.79)"/><path d="M232.88,94.38h-.07V105H230V79.41h2.8v3.07h.07A6.63,6.63,0,0,1,238.93,79a6.39,6.39,0,0,1,5.28,2.35,9.68,9.68,0,0,1,1.9,6.3,10.82,10.82,0,0,1-2.14,7,7.1,7.1,0,0,1-5.84,2.64A5.86,5.86,0,0,1,232.88,94.38Zm-.07-7.06v2.44a5.22,5.22,0,0,0,1.41,3.69,5,5,0,0,0,7.57-.44,9,9,0,0,0,1.45-5.42A7.08,7.08,0,0,0,241.89,83a4.48,4.48,0,0,0-3.66-1.65,4.94,4.94,0,0,0-3.93,1.7A6.23,6.23,0,0,0,232.81,87.32Z" transform="translate(-22.64 -17.79)"/><path d="M259.71,82.25a3.41,3.41,0,0,0-2.12-.57,3.61,3.61,0,0,0-3,1.69,7.87,7.87,0,0,0-1.2,4.62v8.92h-2.81V79.41h2.81V83h.07a6,6,0,0,1,1.82-2.88,4.22,4.22,0,0,1,2.76-1,4.54,4.54,0,0,1,1.67.24Z" transform="translate(-22.64 -17.79)"/><path d="M270.07,97.32a8.15,8.15,0,0,1-6.2-2.45,9.12,9.12,0,0,1-2.31-6.51A9.43,9.43,0,0,1,264,81.48,8.61,8.61,0,0,1,270.48,79a7.84,7.84,0,0,1,6.11,2.41,9.55,9.55,0,0,1,2.19,6.68,9.44,9.44,0,0,1-2.36,6.71A8.31,8.31,0,0,1,270.07,97.32Zm.2-16A5.34,5.34,0,0,0,266,83.19a7.56,7.56,0,0,0-1.57,5.07A7.16,7.16,0,0,0,266,93.17,5.42,5.42,0,0,0,270.27,95a5.13,5.13,0,0,0,4.18-1.76,7.65,7.65,0,0,0,1.46-5,7.8,7.8,0,0,0-1.46-5.06A5.11,5.11,0,0,0,270.27,81.36Z" transform="translate(-22.64 -17.79)"/><path d="M298.2,96.91h-2.81v-3h-.06A7.06,7.06,0,0,1,284,95a9.63,9.63,0,0,1-2-6.4,10.49,10.49,0,0,1,2.19-7A7.22,7.22,0,0,1,290.08,79a5.62,5.62,0,0,1,5.25,2.83h.06V71h2.81ZM295.39,89V86.42a5,5,0,0,0-1.4-3.59,4.69,4.69,0,0,0-3.55-1.47,4.8,4.8,0,0,0-4,1.88,8.21,8.21,0,0,0-1.47,5.19,7.42,7.42,0,0,0,1.41,4.78A4.6,4.6,0,0,0,290.13,95a4.77,4.77,0,0,0,3.8-1.69A6.27,6.27,0,0,0,295.39,89Z" transform="translate(-22.64 -17.79)"/><path d="M318,96.91h-2.8V94.14h-.07a5.75,5.75,0,0,1-5.4,3.18q-6.25,0-6.25-7.45V79.41h2.78v10q0,5.53,4.24,5.54a4.26,4.26,0,0,0,3.37-1.51,5.77,5.77,0,0,0,1.33-4V79.41H318Z" transform="translate(-22.64 -17.79)"/><path d="M335.61,96.1a9.12,9.12,0,0,1-4.79,1.22,7.9,7.9,0,0,1-6-2.44,8.83,8.83,0,0,1-2.3-6.31A9.73,9.73,0,0,1,325,81.62,8.66,8.66,0,0,1,331.57,79a9.2,9.2,0,0,1,4.07.85v2.87a7.13,7.13,0,0,0-4.17-1.36,5.64,5.64,0,0,0-4.4,1.92,7.31,7.31,0,0,0-1.72,5A6.92,6.92,0,0,0,327,93.18,5.54,5.54,0,0,0,331.3,95a7.06,7.06,0,0,0,4.31-1.52Z" transform="translate(-22.64 -17.79)"/><path d="M348,96.74a5.45,5.45,0,0,1-2.61.54c-3.07,0-4.6-1.7-4.6-5.12V81.8h-3V79.41h3V75.14l2.8-.91v5.18H348V81.8h-4.41v9.86a4.06,4.06,0,0,0,.6,2.51,2.36,2.36,0,0,0,2,.76,2.93,2.93,0,0,0,1.83-.59Z" transform="translate(-22.64 -17.79)"/><path d="M359,97.32a8.15,8.15,0,0,1-6.2-2.45,9.12,9.12,0,0,1-2.31-6.51,9.43,9.43,0,0,1,2.41-6.88A8.64,8.64,0,0,1,359.43,79a7.83,7.83,0,0,1,6.11,2.41,9.56,9.56,0,0,1,2.2,6.68,9.4,9.4,0,0,1-2.37,6.71A8.31,8.31,0,0,1,359,97.32Zm.21-16A5.34,5.34,0,0,0,355,83.19a7.56,7.56,0,0,0-1.57,5.07A7.16,7.16,0,0,0,355,93.17,5.43,5.43,0,0,0,359.23,95a5.11,5.11,0,0,0,4.17-1.76,7.6,7.6,0,0,0,1.46-5,7.75,7.75,0,0,0-1.46-5.06A5.09,5.09,0,0,0,359.23,81.36Z" transform="translate(-22.64 -17.79)"/><path d="M393.73,96.1a9.12,9.12,0,0,1-4.79,1.22,7.92,7.92,0,0,1-6-2.44,8.83,8.83,0,0,1-2.3-6.31,9.73,9.73,0,0,1,2.48-6.95A8.67,8.67,0,0,1,389.7,79a9.18,9.18,0,0,1,4.06.85v2.87a7.13,7.13,0,0,0-4.17-1.36,5.64,5.64,0,0,0-4.4,1.92,7.3,7.3,0,0,0-1.71,5,6.91,6.91,0,0,0,1.61,4.85A5.55,5.55,0,0,0,389.42,95a7.06,7.06,0,0,0,4.31-1.52Z" transform="translate(-22.64 -17.79)"/><path d="M407.09,82.25a3.39,3.39,0,0,0-2.12-.57,3.58,3.58,0,0,0-3,1.69A7.79,7.79,0,0,0,400.77,88v8.92H398V79.41h2.8V83h.07a6.13,6.13,0,0,1,1.83-2.88,4.2,4.2,0,0,1,2.75-1,4.5,4.5,0,0,1,1.67.24Z" transform="translate(-22.64 -17.79)"/><path d="M424.29,96.91h-2.81V94.14h-.06A5.78,5.78,0,0,1,416,97.32q-6.25,0-6.25-7.45V79.41h2.79v10q0,5.53,4.23,5.54a4.28,4.28,0,0,0,3.38-1.51,5.81,5.81,0,0,0,1.32-4V79.41h2.81Z" transform="translate(-22.64 -17.79)"/><path d="M442.15,80.21,431.79,94.52H442v2.39H427.67V96L438,81.8h-9.39V79.41h13.51Z" transform="translate(-22.64 -17.79)"/><path d="M446.74,97.28a1.8,1.8,0,0,1-1.34-.56,1.87,1.87,0,0,1-.55-1.35A1.89,1.89,0,0,1,445.4,94a1.81,1.81,0,0,1,1.34-.57,1.93,1.93,0,0,1,1.93,1.93,1.91,1.91,0,0,1-1.93,1.91Z" transform="translate(-22.64 -17.79)"/><path d="M483.08,96.91h-3.53L466.94,77.37a7.88,7.88,0,0,1-.78-1.53h-.11a25.07,25.07,0,0,1,.14,3.36V96.91h-2.87V72.4H467l12.28,19.23c.51.8.84,1.34,1,1.64h.07a24.71,24.71,0,0,1-.18-3.61V72.4h2.88Z" transform="translate(-22.64 -17.79)"/><path d="M496.44,97.32a8.15,8.15,0,0,1-6.2-2.45,9.12,9.12,0,0,1-2.31-6.51,9.43,9.43,0,0,1,2.41-6.88A8.63,8.63,0,0,1,496.85,79,7.83,7.83,0,0,1,503,81.41a9.56,9.56,0,0,1,2.2,6.68,9.4,9.4,0,0,1-2.37,6.71A8.31,8.31,0,0,1,496.44,97.32Zm.2-16a5.34,5.34,0,0,0-4.27,1.83,7.56,7.56,0,0,0-1.57,5.07,7.16,7.16,0,0,0,1.59,4.91A5.42,5.42,0,0,0,496.64,95a5.12,5.12,0,0,0,4.18-1.76,7.6,7.6,0,0,0,1.46-5,7.75,7.75,0,0,0-1.46-5.06A5.1,5.1,0,0,0,496.64,81.36Z" transform="translate(-22.64 -17.79)"/><path d="M518.16,96.28v-3a8.29,8.29,0,0,0,5,1.69q3.69,0,3.69-2.46a2.15,2.15,0,0,0-.31-1.19,3.19,3.19,0,0,0-.86-.86,6.77,6.77,0,0,0-1.26-.68l-1.57-.62a22.39,22.39,0,0,1-2-.93,6.77,6.77,0,0,1-1.47-1.06,4,4,0,0,1-.89-1.34,4.73,4.73,0,0,1-.3-1.76,4.15,4.15,0,0,1,.57-2.18,5.05,5.05,0,0,1,1.5-1.59,7,7,0,0,1,2.15-1,9.75,9.75,0,0,1,2.48-.32,10.08,10.08,0,0,1,4.07.78v2.84a8,8,0,0,0-4.44-1.26,5.15,5.15,0,0,0-1.42.18A3.53,3.53,0,0,0,522,82a2.47,2.47,0,0,0-.7.78,2.08,2.08,0,0,0-.24,1,2.46,2.46,0,0,0,.24,1.14,2.56,2.56,0,0,0,.73.82,5.51,5.51,0,0,0,1.16.65q.69.3,1.56.63c.77.3,1.47.61,2.08.92A7,7,0,0,1,528.41,89a3.9,3.9,0,0,1,1,1.36,4.27,4.27,0,0,1,.35,1.83,4.32,4.32,0,0,1-.57,2.25,4.84,4.84,0,0,1-1.53,1.59,6.94,6.94,0,0,1-2.2.94,10.68,10.68,0,0,1-2.62.31A10,10,0,0,1,518.16,96.28Z" transform="translate(-22.64 -17.79)"/><path d="M548.14,88.86H535.78a6.57,6.57,0,0,0,1.57,4.51A5.42,5.42,0,0,0,541.49,95,8.58,8.58,0,0,0,546.92,93v2.63a10.13,10.13,0,0,1-6.1,1.68A7.42,7.42,0,0,1,535,94.93a9.75,9.75,0,0,1-2.11-6.7,9.59,9.59,0,0,1,2.31-6.66A7.43,7.43,0,0,1,540.94,79a6.6,6.6,0,0,1,5.32,2.22,9.28,9.28,0,0,1,1.88,6.17Zm-2.87-2.38a5.74,5.74,0,0,0-1.18-3.77,4,4,0,0,0-3.2-1.35,4.56,4.56,0,0,0-3.37,1.41,6.52,6.52,0,0,0-1.71,3.71Z" transform="translate(-22.64 -17.79)"/><path d="M576,88.86H563.67a6.57,6.57,0,0,0,1.57,4.51A5.43,5.43,0,0,0,569.38,95,8.58,8.58,0,0,0,574.81,93v2.63a10.11,10.11,0,0,1-6.1,1.68,7.42,7.42,0,0,1-5.83-2.39,9.75,9.75,0,0,1-2.11-6.7,9.59,9.59,0,0,1,2.31-6.66A7.43,7.43,0,0,1,568.83,79a6.6,6.6,0,0,1,5.32,2.22A9.28,9.28,0,0,1,576,87.39Zm-2.87-2.38A5.79,5.79,0,0,0,572,82.71a4,4,0,0,0-3.21-1.35,4.56,4.56,0,0,0-3.37,1.41,6.44,6.44,0,0,0-1.7,3.71Z" transform="translate(-22.64 -17.79)"/><path d="M594.79,96.91H592v-10c0-3.72-1.36-5.57-4.07-5.57a4.4,4.4,0,0,0-3.48,1.58,5.88,5.88,0,0,0-1.37,4v10h-2.8V79.41h2.8v2.9h.07A6.3,6.3,0,0,1,588.88,79a5.37,5.37,0,0,1,4.39,1.85,8.29,8.29,0,0,1,1.52,5.36Z" transform="translate(-22.64 -17.79)"/><path d="M608.19,96.74a5.45,5.45,0,0,1-2.61.54c-3.07,0-4.6-1.7-4.6-5.12V81.8h-3V79.41h3V75.14l2.8-.91v5.18h4.41V81.8h-4.41v9.86a4.06,4.06,0,0,0,.6,2.51,2.36,2.36,0,0,0,2,.76,2.93,2.93,0,0,0,1.83-.59Z" transform="translate(-22.64 -17.79)"/><path d="M621.06,82.25a3.41,3.41,0,0,0-2.12-.57,3.59,3.59,0,0,0-3,1.69,7.87,7.87,0,0,0-1.2,4.62v8.92h-2.81V79.41h2.81V83h.06a6.13,6.13,0,0,1,1.83-2.88,4.22,4.22,0,0,1,2.75-1,4.6,4.6,0,0,1,1.68.24Z" transform="translate(-22.64 -17.79)"/><path d="M636.63,96.91h-2.81V94.17h-.06a5.88,5.88,0,0,1-5.39,3.15,5.73,5.73,0,0,1-4.09-1.39,4.76,4.76,0,0,1-1.48-3.67q0-4.91,5.78-5.71l5.24-.73c0-3-1.2-4.46-3.6-4.46a8.59,8.59,0,0,0-5.71,2.15V80.64a10.79,10.79,0,0,1,6-1.64q6.16,0,6.17,6.53Zm-2.81-8.85-4.22.58a6.84,6.84,0,0,0-2.94,1,2.78,2.78,0,0,0-1,2.45,2.68,2.68,0,0,0,.92,2.1A3.53,3.53,0,0,0,629,95a4.53,4.53,0,0,0,3.45-1.46,5.25,5.25,0,0,0,1.35-3.7Z" transform="translate(-22.64 -17.79)"/><path d="M651,82.25a3.38,3.38,0,0,0-2.11-.57,3.59,3.59,0,0,0-3,1.69A7.79,7.79,0,0,0,644.71,88v8.92h-2.8V79.41h2.8V83h.07a6.13,6.13,0,0,1,1.83-2.88,4.2,4.2,0,0,1,2.75-1,4.5,4.5,0,0,1,1.67.24Z" transform="translate(-22.64 -17.79)"/><path d="M666.6,96.91h-2.8V94.17h-.07a5.86,5.86,0,0,1-5.38,3.15,5.71,5.71,0,0,1-4.09-1.39,4.76,4.76,0,0,1-1.48-3.67q0-4.91,5.77-5.71l5.25-.73c0-3-1.2-4.46-3.61-4.46a8.57,8.57,0,0,0-5.7,2.15V80.64A10.78,10.78,0,0,1,660.43,79q6.18,0,6.17,6.53Zm-2.8-8.85-4.22.58a6.84,6.84,0,0,0-2.94,1,2.78,2.78,0,0,0-1,2.45,2.67,2.67,0,0,0,.91,2.1A3.54,3.54,0,0,0,659,95a4.5,4.5,0,0,0,3.44-1.46,5.22,5.22,0,0,0,1.36-3.7Zm.38-17.57-4.48,5.6h-2.17l3.81-5.6Z" transform="translate(-22.64 -17.79)"/><path d="M695.54,88.86H683.18a6.57,6.57,0,0,0,1.57,4.51A5.42,5.42,0,0,0,688.89,95,8.58,8.58,0,0,0,694.32,93v2.63a10.11,10.11,0,0,1-6.1,1.68,7.42,7.42,0,0,1-5.83-2.39,9.75,9.75,0,0,1-2.11-6.7,9.59,9.59,0,0,1,2.31-6.66A7.43,7.43,0,0,1,688.34,79a6.6,6.6,0,0,1,5.32,2.22,9.28,9.28,0,0,1,1.88,6.17Zm-2.87-2.38a5.79,5.79,0,0,0-1.17-3.77,4,4,0,0,0-3.21-1.35,4.56,4.56,0,0,0-3.37,1.41,6.52,6.52,0,0,0-1.71,3.71Z" transform="translate(-22.64 -17.79)"/><path d="M714.3,96.91h-2.8v-10c0-3.72-1.36-5.57-4.07-5.57A4.4,4.4,0,0,0,704,82.94a5.88,5.88,0,0,0-1.37,4v10h-2.81V79.41h2.81v2.9h.07A6.3,6.3,0,0,1,708.39,79a5.37,5.37,0,0,1,4.39,1.85,8.29,8.29,0,0,1,1.52,5.36Z" transform="translate(-22.64 -17.79)"/><path d="M744.11,96.91H741.3v-3h-.07A7,7,0,0,1,730,95a9.63,9.63,0,0,1-2-6.4,10.49,10.49,0,0,1,2.19-7A7.22,7.22,0,0,1,736,79a5.6,5.6,0,0,1,5.24,2.83h.07V71h2.81ZM741.3,89V86.42a5,5,0,0,0-1.4-3.59,4.69,4.69,0,0,0-3.55-1.47,4.83,4.83,0,0,0-4,1.88,8.21,8.21,0,0,0-1.47,5.19,7.42,7.42,0,0,0,1.41,4.78A4.61,4.61,0,0,0,736,95a4.77,4.77,0,0,0,3.8-1.69A6.27,6.27,0,0,0,741.3,89Z" transform="translate(-22.64 -17.79)"/><path d="M763.84,88.86H751.49a6.52,6.52,0,0,0,1.57,4.51A5.42,5.42,0,0,0,757.2,95,8.58,8.58,0,0,0,762.63,93v2.63a10.13,10.13,0,0,1-6.1,1.68,7.4,7.4,0,0,1-5.83-2.39,9.76,9.76,0,0,1-2.12-6.7,9.55,9.55,0,0,1,2.32-6.66A7.43,7.43,0,0,1,756.65,79,6.57,6.57,0,0,1,762,81.22a9.23,9.23,0,0,1,1.88,6.17ZM761,86.48a5.68,5.68,0,0,0-1.17-3.77,4,4,0,0,0-3.2-1.35,4.55,4.55,0,0,0-3.37,1.41,6.52,6.52,0,0,0-1.71,3.71Z" transform="translate(-22.64 -17.79)"/><path d="M776.2,96.74a5.45,5.45,0,0,1-2.61.54c-3.07,0-4.6-1.7-4.6-5.12V81.8h-3V79.41h3V75.14l2.8-.91v5.18h4.41V81.8h-4.41v9.86a4.06,4.06,0,0,0,.6,2.51,2.36,2.36,0,0,0,2,.76,2.93,2.93,0,0,0,1.83-.59Z" transform="translate(-22.64 -17.79)"/><path d="M792.47,96.91h-2.8V94.17h-.07a5.87,5.87,0,0,1-5.38,3.15,5.74,5.74,0,0,1-4.1-1.39,4.8,4.8,0,0,1-1.48-3.67q0-4.91,5.78-5.71l5.25-.73c0-3-1.21-4.46-3.61-4.46a8.59,8.59,0,0,0-5.71,2.15V80.64A10.81,10.81,0,0,1,786.3,79q6.16,0,6.17,6.53Zm-2.8-8.85-4.22.58a6.84,6.84,0,0,0-2.94,1,2.78,2.78,0,0,0-1,2.45,2.67,2.67,0,0,0,.91,2.1,3.54,3.54,0,0,0,2.44.81,4.53,4.53,0,0,0,3.44-1.46,5.26,5.26,0,0,0,1.36-3.7Z" transform="translate(-22.64 -17.79)"/><path d="M800.55,96.91h-2.8V71h2.8Z" transform="translate(-22.64 -17.79)"/><path d="M809,96.91h-2.8V71H809Z" transform="translate(-22.64 -17.79)"/><path d="M828.77,88.86H816.41A6.53,6.53,0,0,0,818,93.37,5.41,5.41,0,0,0,822.12,95,8.63,8.63,0,0,0,827.56,93v2.63a10.15,10.15,0,0,1-6.1,1.68,7.39,7.39,0,0,1-5.83-2.39,9.71,9.71,0,0,1-2.12-6.7,9.59,9.59,0,0,1,2.31-6.66A7.45,7.45,0,0,1,821.57,79a6.59,6.59,0,0,1,5.32,2.22,9.28,9.28,0,0,1,1.88,6.17Zm-2.87-2.38a5.68,5.68,0,0,0-1.17-3.77,4,4,0,0,0-3.21-1.35,4.52,4.52,0,0,0-3.36,1.41,6.39,6.39,0,0,0-1.71,3.71Z" transform="translate(-22.64 -17.79)"/><path d="M832,96.28v-3A8.25,8.25,0,0,0,837,95q3.69,0,3.69-2.46a2.16,2.16,0,0,0-.32-1.19,3.15,3.15,0,0,0-.85-.86,6.77,6.77,0,0,0-1.26-.68l-1.57-.62a22.39,22.39,0,0,1-2-.93,6.32,6.32,0,0,1-1.47-1.06,4,4,0,0,1-.89-1.34,4.73,4.73,0,0,1-.3-1.76,4.24,4.24,0,0,1,.56-2.18,5.08,5.08,0,0,1,1.51-1.59,7.08,7.08,0,0,1,2.14-1,9.89,9.89,0,0,1,2.49-.32,10.12,10.12,0,0,1,4.07.78v2.84a8,8,0,0,0-4.45-1.26,5.13,5.13,0,0,0-1.41.18,3.32,3.32,0,0,0-1.09.5,2.47,2.47,0,0,0-.7.78,2,2,0,0,0-.25,1A2.34,2.34,0,0,0,835.1,85a2.56,2.56,0,0,0,.73.82,5.26,5.26,0,0,0,1.16.65c.45.2,1,.41,1.55.63.78.3,1.47.61,2.09.92A7.18,7.18,0,0,1,842.2,89a4,4,0,0,1,1,1.36,4.42,4.42,0,0,1,.35,1.83,4.32,4.32,0,0,1-.57,2.25,4.84,4.84,0,0,1-1.53,1.59,6.89,6.89,0,0,1-2.21.94,10.6,10.6,0,0,1-2.61.31A10,10,0,0,1,832,96.28Z" transform="translate(-22.64 -17.79)"/><path d="M856.39,96.28v-3a8.25,8.25,0,0,0,5,1.69q3.69,0,3.69-2.46a2.16,2.16,0,0,0-.32-1.19,3.15,3.15,0,0,0-.85-.86,6.57,6.57,0,0,0-1.27-.68l-1.56-.62a22.39,22.39,0,0,1-2-.93,6.32,6.32,0,0,1-1.47-1.06,4,4,0,0,1-.89-1.34,4.73,4.73,0,0,1-.3-1.76,4.24,4.24,0,0,1,.56-2.18,5.08,5.08,0,0,1,1.51-1.59,7.08,7.08,0,0,1,2.14-1,9.89,9.89,0,0,1,2.49-.32,10.15,10.15,0,0,1,4.07.78v2.84a8,8,0,0,0-4.45-1.26,5.13,5.13,0,0,0-1.41.18,3.32,3.32,0,0,0-1.09.5,2.47,2.47,0,0,0-.7.78,2,2,0,0,0-.25,1,2.34,2.34,0,0,0,.25,1.14,2.56,2.56,0,0,0,.73.82,5,5,0,0,0,1.16.65c.45.2,1,.41,1.55.63.78.3,1.47.61,2.09.92A7.18,7.18,0,0,1,866.64,89a4,4,0,0,1,1,1.36,4.42,4.42,0,0,1,.35,1.83,4.32,4.32,0,0,1-.57,2.25,4.84,4.84,0,0,1-1.53,1.59,6.89,6.89,0,0,1-2.21.94,10.6,10.6,0,0,1-2.61.31A10,10,0,0,1,856.39,96.28Z" transform="translate(-22.64 -17.79)"/><path d="M879.61,97.32a8.13,8.13,0,0,1-6.19-2.45,9.09,9.09,0,0,1-2.32-6.51,9.43,9.43,0,0,1,2.41-6.88A8.64,8.64,0,0,1,880,79a7.83,7.83,0,0,1,6.11,2.41,9.51,9.51,0,0,1,2.2,6.68A9.4,9.4,0,0,1,886,94.8,8.29,8.29,0,0,1,879.61,97.32Zm.21-16a5.36,5.36,0,0,0-4.28,1.83A7.61,7.61,0,0,0,874,88.26a7.16,7.16,0,0,0,1.59,4.91A5.43,5.43,0,0,0,879.82,95,5.15,5.15,0,0,0,884,93.2a7.65,7.65,0,0,0,1.46-5A7.8,7.8,0,0,0,884,83.13,5.12,5.12,0,0,0,879.82,81.36Z" transform="translate(-22.64 -17.79)"/><path d="M895.68,94.38h-.07v2.53h-2.8V71h2.8V82.48h.07A6.62,6.62,0,0,1,901.73,79,6.41,6.41,0,0,1,907,81.35a9.68,9.68,0,0,1,1.9,6.3,10.88,10.88,0,0,1-2.13,7,7.12,7.12,0,0,1-5.85,2.64A5.74,5.74,0,0,1,895.68,94.38Zm-.07-7.06v2.44A5.22,5.22,0,0,0,897,93.45a5,5,0,0,0,7.57-.44A9,9,0,0,0,906,87.59,7.08,7.08,0,0,0,904.68,83,4.47,4.47,0,0,0,901,81.36a4.94,4.94,0,0,0-3.93,1.7A6.19,6.19,0,0,0,895.61,87.32Z" transform="translate(-22.64 -17.79)"/><path d="M922.51,82.25a3.41,3.41,0,0,0-2.12-.57,3.59,3.59,0,0,0-3,1.69A7.87,7.87,0,0,0,916.18,88v8.92h-2.8V79.41h2.8V83h.07a6.13,6.13,0,0,1,1.83-2.88,4.22,4.22,0,0,1,2.75-1,4.6,4.6,0,0,1,1.68.24Z" transform="translate(-22.64 -17.79)"/><path d="M939.62,88.86H927.26a6.52,6.52,0,0,0,1.57,4.51A5.42,5.42,0,0,0,933,95,8.58,8.58,0,0,0,938.4,93v2.63a10.13,10.13,0,0,1-6.1,1.68,7.4,7.4,0,0,1-5.83-2.39,9.76,9.76,0,0,1-2.12-6.7,9.55,9.55,0,0,1,2.32-6.66A7.43,7.43,0,0,1,932.42,79a6.57,6.57,0,0,1,5.31,2.22,9.23,9.23,0,0,1,1.89,6.17Zm-2.88-2.38a5.68,5.68,0,0,0-1.17-3.77,4,4,0,0,0-3.2-1.35A4.55,4.55,0,0,0,929,82.77a6.52,6.52,0,0,0-1.71,3.71Z" transform="translate(-22.64 -17.79)"/><path d="M967.51,88.86H955.15a6.52,6.52,0,0,0,1.57,4.51A5.42,5.42,0,0,0,960.86,95,8.58,8.58,0,0,0,966.29,93v2.63a10.13,10.13,0,0,1-6.1,1.68,7.42,7.42,0,0,1-5.83-2.39,9.76,9.76,0,0,1-2.12-6.7,9.6,9.6,0,0,1,2.32-6.66A7.43,7.43,0,0,1,960.31,79a6.57,6.57,0,0,1,5.31,2.22,9.23,9.23,0,0,1,1.89,6.17Zm-2.88-2.38a5.68,5.68,0,0,0-1.17-3.77,4,4,0,0,0-3.2-1.35,4.56,4.56,0,0,0-3.37,1.41,6.52,6.52,0,0,0-1.71,3.71Z" transform="translate(-22.64 -17.79)"/><path d="M970.68,96.28v-3a8.29,8.29,0,0,0,5,1.69q3.71,0,3.7-2.46a2.16,2.16,0,0,0-.32-1.19,3.3,3.3,0,0,0-.85-.86,6.87,6.87,0,0,0-1.27-.68l-1.56-.62a20.14,20.14,0,0,1-2-.93,6.32,6.32,0,0,1-1.47-1.06,3.83,3.83,0,0,1-.89-1.34,4.73,4.73,0,0,1-.3-1.76,4.24,4.24,0,0,1,.56-2.18,5.08,5.08,0,0,1,1.51-1.59,7,7,0,0,1,2.14-1,9.77,9.77,0,0,1,2.49-.32,10.07,10.07,0,0,1,4.06.78v2.84A7.91,7.91,0,0,0,977,81.36a5.2,5.2,0,0,0-1.42.18,3.37,3.37,0,0,0-1.08.5,2.35,2.35,0,0,0-.7.78,2,2,0,0,0-.25,1,2.34,2.34,0,0,0,.25,1.14,2.41,2.41,0,0,0,.72.82,5.51,5.51,0,0,0,1.16.65q.69.3,1.56.63c.77.3,1.47.61,2.09.92A7.43,7.43,0,0,1,980.94,89a4.17,4.17,0,0,1,1,1.36,4.42,4.42,0,0,1,.35,1.83,4.24,4.24,0,0,1-.58,2.25,4.91,4.91,0,0,1-1.52,1.59A7,7,0,0,1,978,97a10.6,10.6,0,0,1-2.61.31A10,10,0,0,1,970.68,96.28Z" transform="translate(-22.64 -17.79)"/><path d="M994.71,96.74a5.45,5.45,0,0,1-2.61.54c-3.07,0-4.6-1.7-4.6-5.12V81.8h-3V79.41h3V75.14l2.8-.91v5.18h4.41V81.8H990.3v9.86a4.06,4.06,0,0,0,.6,2.51,2.36,2.36,0,0,0,2,.76,2.93,2.93,0,0,0,1.83-.59Z" transform="translate(-22.64 -17.79)"/><path d="M1011,96.91h-2.8V94.17h-.07a5.86,5.86,0,0,1-5.38,3.15,5.74,5.74,0,0,1-4.1-1.39,4.79,4.79,0,0,1-1.47-3.67q0-4.91,5.77-5.71l5.25-.73c0-3-1.2-4.46-3.61-4.46a8.55,8.55,0,0,0-5.7,2.15V80.64a10.75,10.75,0,0,1,5.94-1.64q6.16,0,6.17,6.53Zm-2.8-8.85-4.22.58a6.84,6.84,0,0,0-2.94,1,2.78,2.78,0,0,0-1,2.45,2.67,2.67,0,0,0,.91,2.1,3.54,3.54,0,0,0,2.44.81,4.5,4.5,0,0,0,3.44-1.46,5.22,5.22,0,0,0,1.36-3.7Z" transform="translate(-22.64 -17.79)"/><path d="M1033.17,97.32a8.13,8.13,0,0,1-6.2-2.45,9.13,9.13,0,0,1-2.32-6.51,9.47,9.47,0,0,1,2.41-6.88,8.65,8.65,0,0,1,6.52-2.48,7.82,7.82,0,0,1,6.1,2.41,9.51,9.51,0,0,1,2.2,6.68,9.4,9.4,0,0,1-2.37,6.71A8.27,8.27,0,0,1,1033.17,97.32Zm.2-16a5.34,5.34,0,0,0-4.27,1.83,7.56,7.56,0,0,0-1.57,5.07,7.11,7.11,0,0,0,1.59,4.91,5.39,5.39,0,0,0,4.25,1.79,5.15,5.15,0,0,0,4.18-1.76,7.65,7.65,0,0,0,1.46-5,7.8,7.8,0,0,0-1.46-5.06A5.12,5.12,0,0,0,1033.37,81.36Z" transform="translate(-22.64 -17.79)"/><path d="M1049.23,94.38h-.07V105h-2.8V79.41h2.8v3.07h.07a6.63,6.63,0,0,1,6-3.48,6.4,6.4,0,0,1,5.28,2.35,9.74,9.74,0,0,1,1.9,6.3,10.82,10.82,0,0,1-2.14,7,7.1,7.1,0,0,1-5.84,2.64A5.86,5.86,0,0,1,1049.23,94.38Zm-.07-7.06v2.44a5.22,5.22,0,0,0,1.41,3.69,5,5,0,0,0,7.57-.44,9,9,0,0,0,1.45-5.42,7.08,7.08,0,0,0-1.35-4.58,4.48,4.48,0,0,0-3.66-1.65,4.94,4.94,0,0,0-3.93,1.7A6.23,6.23,0,0,0,1049.16,87.32Z" transform="translate(-22.64 -17.79)"/><path d="M1081,88.86h-12.36a6.53,6.53,0,0,0,1.58,4.51,5.41,5.41,0,0,0,4.13,1.59,8.63,8.63,0,0,0,5.44-1.95v2.63a10.15,10.15,0,0,1-6.1,1.68,7.39,7.39,0,0,1-5.83-2.39,9.71,9.71,0,0,1-2.12-6.7,9.59,9.59,0,0,1,2.31-6.66A7.45,7.45,0,0,1,1073.8,79a6.59,6.59,0,0,1,5.32,2.22,9.28,9.28,0,0,1,1.88,6.17Zm-2.87-2.38a5.68,5.68,0,0,0-1.17-3.77,4,4,0,0,0-3.21-1.35,4.52,4.52,0,0,0-3.36,1.41,6.39,6.39,0,0,0-1.71,3.71Z" transform="translate(-22.64 -17.79)"/><path d="M1094.36,82.25a3.39,3.39,0,0,0-2.12-.57,3.58,3.58,0,0,0-3,1.69A7.79,7.79,0,0,0,1088,88v8.92h-2.8V79.41h2.8V83h.07a6.13,6.13,0,0,1,1.83-2.88,4.2,4.2,0,0,1,2.75-1,4.5,4.5,0,0,1,1.67.24Z" transform="translate(-22.64 -17.79)"/><path d="M1109.93,96.91h-2.8V94.17h-.07a5.86,5.86,0,0,1-5.38,3.15,5.74,5.74,0,0,1-4.1-1.39,4.79,4.79,0,0,1-1.47-3.67q0-4.91,5.77-5.71l5.25-.73c0-3-1.2-4.46-3.61-4.46a8.57,8.57,0,0,0-5.7,2.15V80.64a10.78,10.78,0,0,1,5.94-1.64q6.18,0,6.17,6.53Zm-2.8-8.85-4.22.58a6.84,6.84,0,0,0-2.94,1,2.78,2.78,0,0,0-1,2.45,2.67,2.67,0,0,0,.91,2.1,3.54,3.54,0,0,0,2.44.81,4.5,4.5,0,0,0,3.44-1.46,5.22,5.22,0,0,0,1.36-3.7Z" transform="translate(-22.64 -17.79)"/><path d="M1127.14,96.1a9.08,9.08,0,0,1-4.78,1.22,7.89,7.89,0,0,1-6-2.44,8.79,8.79,0,0,1-2.3-6.31,9.68,9.68,0,0,1,2.48-6.95,8.65,8.65,0,0,1,6.61-2.62,9.23,9.23,0,0,1,4.07.85v2.87a7.13,7.13,0,0,0-4.17-1.36,5.63,5.63,0,0,0-4.4,1.92,7.26,7.26,0,0,0-1.72,5,7,7,0,0,0,1.61,4.85,5.55,5.55,0,0,0,4.33,1.78,7,7,0,0,0,4.31-1.52Z" transform="translate(-22.64 -17.79)"/><path d="M1132.82,75a1.8,1.8,0,0,1-1.29-.51,1.86,1.86,0,0,1,0-2.6,1.77,1.77,0,0,1,1.29-.53,1.8,1.8,0,0,1,1.3.53,1.72,1.72,0,0,1,.54,1.3,1.76,1.76,0,0,1-.54,1.29A1.79,1.79,0,0,1,1132.82,75Zm1.36,22h-2.8V79.41h2.8Z" transform="translate(-22.64 -17.79)"/><path d="M1147.17,97.32a8.11,8.11,0,0,1-6.19-2.45,9.09,9.09,0,0,1-2.32-6.51,9.43,9.43,0,0,1,2.41-6.88,8.64,8.64,0,0,1,6.51-2.48,7.83,7.83,0,0,1,6.11,2.41,9.56,9.56,0,0,1,2.2,6.68,9.4,9.4,0,0,1-2.37,6.71A8.29,8.29,0,0,1,1147.17,97.32Zm.21-16a5.36,5.36,0,0,0-4.28,1.83,7.56,7.56,0,0,0-1.57,5.07,7.16,7.16,0,0,0,1.59,4.91,5.43,5.43,0,0,0,4.26,1.79,5.11,5.11,0,0,0,4.17-1.76,7.6,7.6,0,0,0,1.47-5,7.75,7.75,0,0,0-1.47-5.06A5.09,5.09,0,0,0,1147.38,81.36Zm4.1-10.87-4.48,5.6h-2.17l3.81-5.6Z" transform="translate(-22.64 -17.79)"/><path d="M1174.89,96.91h-2.8v-10c0-3.72-1.36-5.57-4.07-5.57a4.4,4.4,0,0,0-3.48,1.58,5.83,5.83,0,0,0-1.37,4v10h-2.81V79.41h2.81v2.9h.07A6.3,6.3,0,0,1,1169,79a5.37,5.37,0,0,1,4.39,1.85,8.29,8.29,0,0,1,1.52,5.36Z" transform="translate(-22.64 -17.79)"/><path d="M22.78,138.28v-3a8.25,8.25,0,0,0,5,1.69q3.69,0,3.69-2.46a2.16,2.16,0,0,0-.32-1.19,3.15,3.15,0,0,0-.85-.86,6.77,6.77,0,0,0-1.26-.68l-1.57-.62a22.39,22.39,0,0,1-2-.93A6,6,0,0,1,24,129.16a4,4,0,0,1-.89-1.34,4.73,4.73,0,0,1-.3-1.76,4.15,4.15,0,0,1,.57-2.18,4.94,4.94,0,0,1,1.5-1.59,7.08,7.08,0,0,1,2.14-1,9.89,9.89,0,0,1,2.49-.32,10.12,10.12,0,0,1,4.07.78v2.84a8,8,0,0,0-4.45-1.26,5.13,5.13,0,0,0-1.41.18,3.32,3.32,0,0,0-1.09.5,2.47,2.47,0,0,0-.7.78,2.09,2.09,0,0,0-.25,1,2.46,2.46,0,0,0,.25,1.14,2.56,2.56,0,0,0,.73.82,5.26,5.26,0,0,0,1.16.65c.45.2,1,.41,1.55.63.78.3,1.47.61,2.09.92A7.18,7.18,0,0,1,33,131a4,4,0,0,1,1,1.36,4.42,4.42,0,0,1,.35,1.83,4.32,4.32,0,0,1-.57,2.25,4.84,4.84,0,0,1-1.53,1.59,6.89,6.89,0,0,1-2.21.94,10.6,10.6,0,0,1-2.61.31A10,10,0,0,1,22.78,138.28Z" transform="translate(-22.64 -17.79)"/><path d="M46,139.32a8.13,8.13,0,0,1-6.19-2.45,9.09,9.09,0,0,1-2.32-6.51,9.43,9.43,0,0,1,2.41-6.88A8.64,8.64,0,0,1,46.41,121a7.83,7.83,0,0,1,6.11,2.41,9.51,9.51,0,0,1,2.2,6.68,9.4,9.4,0,0,1-2.37,6.71A8.29,8.29,0,0,1,46,139.32Zm.21-16a5.32,5.32,0,0,0-4.27,1.83,7.56,7.56,0,0,0-1.58,5.07A7.16,7.16,0,0,0,42,135.17,5.43,5.43,0,0,0,46.21,137a5.15,5.15,0,0,0,4.18-1.76,7.65,7.65,0,0,0,1.46-5,7.8,7.8,0,0,0-1.46-5.06A5.12,5.12,0,0,0,46.21,123.36Z" transform="translate(-22.64 -17.79)"/><path d="M62,138.91H59.2V113H62Z" transform="translate(-22.64 -17.79)"/><path d="M75,139.32a8.15,8.15,0,0,1-6.2-2.45,9.12,9.12,0,0,1-2.31-6.51,9.43,9.43,0,0,1,2.41-6.88A8.61,8.61,0,0,1,75.4,121a7.84,7.84,0,0,1,6.11,2.41,9.55,9.55,0,0,1,2.19,6.68,9.44,9.44,0,0,1-2.36,6.71A8.31,8.31,0,0,1,75,139.32Zm.2-16a5.34,5.34,0,0,0-4.27,1.83,7.56,7.56,0,0,0-1.57,5.07,7.16,7.16,0,0,0,1.59,4.91A5.4,5.4,0,0,0,75.19,137a5.13,5.13,0,0,0,4.18-1.76,7.65,7.65,0,0,0,1.46-5,7.8,7.8,0,0,0-1.46-5.06A5.11,5.11,0,0,0,75.19,123.36Z" transform="translate(-22.64 -17.79)"/><path d="M96.71,138.28v-3a8.27,8.27,0,0,0,5,1.69q3.69,0,3.69-2.46a2.08,2.08,0,0,0-.32-1.19,3.15,3.15,0,0,0-.85-.86,6.77,6.77,0,0,0-1.26-.68l-1.57-.62a22.39,22.39,0,0,1-2-.93,6,6,0,0,1-1.47-1.06,4,4,0,0,1-.89-1.34,4.73,4.73,0,0,1-.3-1.76,4.15,4.15,0,0,1,.57-2.18,4.94,4.94,0,0,1,1.5-1.59,7,7,0,0,1,2.15-1,9.75,9.75,0,0,1,2.48-.32,10.12,10.12,0,0,1,4.07.78v2.84a8,8,0,0,0-4.44-1.26,5.15,5.15,0,0,0-1.42.18,3.42,3.42,0,0,0-1.09.5,2.47,2.47,0,0,0-.7.78,2.09,2.09,0,0,0-.25,1,2.46,2.46,0,0,0,.25,1.14,2.56,2.56,0,0,0,.73.82,5.26,5.26,0,0,0,1.16.65c.46.2,1,.41,1.55.63.78.3,1.47.61,2.09.92A7.18,7.18,0,0,1,107,131a4,4,0,0,1,1,1.36,4.42,4.42,0,0,1,.35,1.83,4.32,4.32,0,0,1-.57,2.25,4.84,4.84,0,0,1-1.53,1.59,6.94,6.94,0,0,1-2.2.94,10.74,10.74,0,0,1-2.62.31A10,10,0,0,1,96.71,138.28Z" transform="translate(-22.64 -17.79)"/><path d="M126.68,130.86H114.33a6.52,6.52,0,0,0,1.57,4.51A5.42,5.42,0,0,0,120,137a8.58,8.58,0,0,0,5.43-2v2.63a10.13,10.13,0,0,1-6.1,1.68,7.4,7.4,0,0,1-5.83-2.39,9.76,9.76,0,0,1-2.12-6.7,9.55,9.55,0,0,1,2.32-6.66,7.43,7.43,0,0,1,5.75-2.57,6.57,6.57,0,0,1,5.31,2.22,9.23,9.23,0,0,1,1.88,6.17Zm-2.87-2.38a5.68,5.68,0,0,0-1.17-3.77,4,4,0,0,0-3.2-1.35,4.52,4.52,0,0,0-3.37,1.42,6.46,6.46,0,0,0-1.71,3.7Z" transform="translate(-22.64 -17.79)"/><path d="M155.45,138.91h-2.81v-3h-.07a7,7,0,0,1-11.28,1,9.63,9.63,0,0,1-2-6.4,10.49,10.49,0,0,1,2.19-7,7.22,7.22,0,0,1,5.83-2.61,5.6,5.6,0,0,1,5.24,2.83h.07V113h2.81ZM152.64,131v-2.58a5,5,0,0,0-1.4-3.59,4.69,4.69,0,0,0-3.55-1.47,4.83,4.83,0,0,0-4,1.88,8.21,8.21,0,0,0-1.47,5.19,7.42,7.42,0,0,0,1.41,4.78,4.61,4.61,0,0,0,3.79,1.75,4.77,4.77,0,0,0,3.8-1.69A6.27,6.27,0,0,0,152.64,131Z" transform="translate(-22.64 -17.79)"/><path d="M162.56,117a1.8,1.8,0,0,1-1.29-.51,1.86,1.86,0,0,1,0-2.6,1.77,1.77,0,0,1,1.29-.53,1.8,1.8,0,0,1,1.3.53,1.72,1.72,0,0,1,.54,1.3,1.76,1.76,0,0,1-.54,1.29A1.79,1.79,0,0,1,162.56,117Zm1.36,22h-2.8v-17.5h2.8Z" transform="translate(-22.64 -17.79)"/><path d="M178.72,124.25a3.39,3.39,0,0,0-2.12-.57,3.61,3.61,0,0,0-3,1.69,7.87,7.87,0,0,0-1.2,4.62v8.92h-2.8v-17.5h2.8V125h.07a6.13,6.13,0,0,1,1.83-2.88,4.2,4.2,0,0,1,2.75-1,4.54,4.54,0,0,1,1.67.24Z" transform="translate(-22.64 -17.79)"/><path d="M194.29,138.91h-2.8v-2.74h-.07a5.86,5.86,0,0,1-5.38,3.15,5.74,5.74,0,0,1-4.1-1.39,4.79,4.79,0,0,1-1.47-3.67q0-4.9,5.77-5.71l5.25-.73c0-3-1.2-4.46-3.61-4.46a8.59,8.59,0,0,0-5.71,2.15v-2.87a10.81,10.81,0,0,1,6-1.64q6.16,0,6.17,6.53Zm-2.8-8.85-4.22.58a6.84,6.84,0,0,0-2.94,1,2.78,2.78,0,0,0-1,2.45,2.67,2.67,0,0,0,.91,2.1,3.54,3.54,0,0,0,2.44.81,4.51,4.51,0,0,0,3.44-1.46,5.22,5.22,0,0,0,1.36-3.7Zm.37-17.57-4.47,5.6h-2.17l3.81-5.6Z" transform="translate(-22.64 -17.79)"/><path d="M224.1,147h-2.81V135.9h-.07a6.26,6.26,0,0,1-6,3.42A6.58,6.58,0,0,1,210,137a9.63,9.63,0,0,1-2-6.4,10.48,10.48,0,0,1,2.19-7A7.3,7.3,0,0,1,216,121a5.51,5.51,0,0,1,5.19,2.83h.07v-2.42h2.81ZM221.29,131v-2.55a5.1,5.1,0,0,0-1.41-3.64,4.71,4.71,0,0,0-3.58-1.48,4.82,4.82,0,0,0-4,1.87,8.35,8.35,0,0,0-1.47,5.27,7.24,7.24,0,0,0,1.42,4.74,4.53,4.53,0,0,0,3.66,1.72,4.93,4.93,0,0,0,3.92-1.68A6.24,6.24,0,0,0,221.29,131Z" transform="translate(-22.64 -17.79)"/><path d="M243.92,138.91h-2.8v-2.77h-.07a5.75,5.75,0,0,1-5.4,3.18q-6.26,0-6.26-7.45V121.41h2.79v10q0,5.54,4.24,5.54a4.28,4.28,0,0,0,3.37-1.51,5.77,5.77,0,0,0,1.33-4V121.41h2.8Z" transform="translate(-22.64 -17.79)"/><path d="M263.64,130.86H251.29a6.48,6.48,0,0,0,1.57,4.51A5.41,5.41,0,0,0,257,137a8.61,8.61,0,0,0,5.44-2v2.63a10.13,10.13,0,0,1-6.1,1.68,7.39,7.39,0,0,1-5.83-2.39,9.76,9.76,0,0,1-2.12-6.7,9.55,9.55,0,0,1,2.32-6.66,7.43,7.43,0,0,1,5.75-2.57,6.57,6.57,0,0,1,5.31,2.22,9.28,9.28,0,0,1,1.88,6.17Zm-2.87-2.38a5.68,5.68,0,0,0-1.17-3.77,4,4,0,0,0-3.2-1.35,4.5,4.5,0,0,0-3.37,1.42,6.46,6.46,0,0,0-1.71,3.7Z" transform="translate(-22.64 -17.79)"/><path d="M292.4,138.91h-2.8v-3h-.07a6.46,6.46,0,0,1-6,3.39,6.55,6.55,0,0,1-5.28-2.35,9.68,9.68,0,0,1-2-6.4,10.49,10.49,0,0,1,2.19-7,7.22,7.22,0,0,1,5.83-2.61,5.6,5.6,0,0,1,5.24,2.83h.07V113h2.8ZM289.6,131v-2.58a5,5,0,0,0-1.4-3.59,4.69,4.69,0,0,0-3.55-1.47,4.83,4.83,0,0,0-4,1.88,8.21,8.21,0,0,0-1.47,5.19,7.42,7.42,0,0,0,1.41,4.78,4.6,4.6,0,0,0,3.79,1.75,4.77,4.77,0,0,0,3.8-1.69A6.32,6.32,0,0,0,289.6,131Z" transform="translate(-22.64 -17.79)"/><path d="M310.6,138.91h-2.8v-2.74h-.07a5.86,5.86,0,0,1-5.38,3.15,5.71,5.71,0,0,1-4.09-1.39,4.76,4.76,0,0,1-1.48-3.67c0-3.27,1.92-5.17,5.78-5.71l5.24-.73c0-3-1.2-4.46-3.6-4.46a8.59,8.59,0,0,0-5.71,2.15v-2.87a10.79,10.79,0,0,1,5.95-1.64q6.17,0,6.16,6.53Zm-2.8-8.85-4.22.58a6.84,6.84,0,0,0-2.94,1,2.78,2.78,0,0,0-1,2.45,2.67,2.67,0,0,0,.91,2.1A3.56,3.56,0,0,0,303,137a4.5,4.5,0,0,0,3.44-1.46,5.22,5.22,0,0,0,1.36-3.7Z" transform="translate(-22.64 -17.79)"/><path d="M337.4,138.11a9.17,9.17,0,0,1-4.78,1.21,7.89,7.89,0,0,1-6-2.44,8.77,8.77,0,0,1-2.3-6.31,9.72,9.72,0,0,1,2.47-6.95,8.68,8.68,0,0,1,6.62-2.62,9.23,9.23,0,0,1,4.07.85v2.87a7.13,7.13,0,0,0-4.17-1.36,5.63,5.63,0,0,0-4.4,1.92,7.26,7.26,0,0,0-1.72,5.05,7,7,0,0,0,1.61,4.85,5.55,5.55,0,0,0,4.33,1.78,7,7,0,0,0,4.31-1.52Z" transform="translate(-22.64 -17.79)"/><path d="M349,139.32a8.13,8.13,0,0,1-6.19-2.45,9.09,9.09,0,0,1-2.32-6.51,9.47,9.47,0,0,1,2.41-6.88,8.64,8.64,0,0,1,6.51-2.48,7.83,7.83,0,0,1,6.11,2.41,9.51,9.51,0,0,1,2.2,6.68,9.4,9.4,0,0,1-2.37,6.71A8.29,8.29,0,0,1,349,139.32Zm.21-16a5.32,5.32,0,0,0-4.27,1.83,7.56,7.56,0,0,0-1.58,5.07,7.16,7.16,0,0,0,1.59,4.91,5.43,5.43,0,0,0,4.26,1.79,5.15,5.15,0,0,0,4.18-1.76,7.65,7.65,0,0,0,1.46-5,7.8,7.8,0,0,0-1.46-5.06A5.12,5.12,0,0,0,349.16,123.36Z" transform="translate(-22.64 -17.79)"/><path d="M387,138.91h-2.81v-10a7.62,7.62,0,0,0-.89-4.2,3.41,3.41,0,0,0-3-1.3,3.72,3.72,0,0,0-3,1.64,6.25,6.25,0,0,0-1.26,3.93v10h-2.8V128.52q0-5.16-4-5.16a3.67,3.67,0,0,0-3,1.54,6.4,6.4,0,0,0-1.2,4v10h-2.8v-17.5H365v2.77H365a5.94,5.94,0,0,1,5.43-3.18,5,5,0,0,1,3.13,1,5,5,0,0,1,1.83,2.62,6.25,6.25,0,0,1,5.81-3.62q5.77,0,5.78,7.12Z" transform="translate(-22.64 -17.79)"/><path d="M399.61,139.32a8.15,8.15,0,0,1-6.2-2.45,9.12,9.12,0,0,1-2.31-6.51,9.43,9.43,0,0,1,2.41-6.88A8.61,8.61,0,0,1,400,121a7.84,7.84,0,0,1,6.11,2.41,9.55,9.55,0,0,1,2.19,6.68A9.4,9.4,0,0,1,406,136.8,8.31,8.31,0,0,1,399.61,139.32Zm.2-16a5.34,5.34,0,0,0-4.27,1.83,7.56,7.56,0,0,0-1.57,5.07,7.16,7.16,0,0,0,1.59,4.91,5.42,5.42,0,0,0,4.25,1.79A5.13,5.13,0,0,0,404,135.2a7.6,7.6,0,0,0,1.46-5,7.75,7.75,0,0,0-1.46-5.06A5.11,5.11,0,0,0,399.81,123.36Z" transform="translate(-22.64 -17.79)"/><path d="M431.52,124.25a3.43,3.43,0,0,0-2.12-.57,3.59,3.59,0,0,0-3,1.69,7.79,7.79,0,0,0-1.21,4.62v8.92h-2.8v-17.5h2.8V125h.07a6.13,6.13,0,0,1,1.83-2.88,4.22,4.22,0,0,1,2.75-1,4.6,4.6,0,0,1,1.68.24Z" transform="translate(-22.64 -17.79)"/><path d="M448.62,130.86H436.27a6.52,6.52,0,0,0,1.57,4.51A5.41,5.41,0,0,0,442,137a8.61,8.61,0,0,0,5.44-2v2.63a10.13,10.13,0,0,1-6.1,1.68,7.39,7.39,0,0,1-5.83-2.39,9.76,9.76,0,0,1-2.12-6.7,9.55,9.55,0,0,1,2.32-6.66,7.43,7.43,0,0,1,5.75-2.57,6.57,6.57,0,0,1,5.31,2.22,9.23,9.23,0,0,1,1.88,6.17Zm-2.87-2.38a5.68,5.68,0,0,0-1.17-3.77,4,4,0,0,0-3.2-1.35,4.5,4.5,0,0,0-3.37,1.42,6.46,6.46,0,0,0-1.71,3.7Z" transform="translate(-22.64 -17.79)"/><path d="M451.8,138.28v-3a8.29,8.29,0,0,0,5,1.69q3.69,0,3.69-2.46a2.15,2.15,0,0,0-.31-1.19,3.19,3.19,0,0,0-.86-.86,6.77,6.77,0,0,0-1.26-.68l-1.57-.62a22.39,22.39,0,0,1-2-.93,6.45,6.45,0,0,1-1.47-1.06,4,4,0,0,1-.89-1.34,4.73,4.73,0,0,1-.3-1.76,4.15,4.15,0,0,1,.57-2.18,5.05,5.05,0,0,1,1.5-1.59,7,7,0,0,1,2.15-1,9.75,9.75,0,0,1,2.48-.32,10.08,10.08,0,0,1,4.07.78v2.84a8,8,0,0,0-4.44-1.26,5.15,5.15,0,0,0-1.42.18,3.53,3.53,0,0,0-1.09.5,2.47,2.47,0,0,0-.7.78,2.08,2.08,0,0,0-.24,1A2.46,2.46,0,0,0,455,127a2.56,2.56,0,0,0,.73.82,5.51,5.51,0,0,0,1.16.65q.69.3,1.56.63c.77.3,1.47.61,2.08.92a7,7,0,0,1,1.57,1.06,3.9,3.9,0,0,1,1,1.36,4.27,4.27,0,0,1,.35,1.83,4.32,4.32,0,0,1-.57,2.25,4.84,4.84,0,0,1-1.53,1.59,6.94,6.94,0,0,1-2.2.94,10.68,10.68,0,0,1-2.62.31A10,10,0,0,1,451.8,138.28Z" transform="translate(-22.64 -17.79)"/><path d="M481.86,138.91h-2.8v-2.77H479a5.75,5.75,0,0,1-5.4,3.18q-6.25,0-6.25-7.45V121.41h2.78v10q0,5.54,4.24,5.54a4.26,4.26,0,0,0,3.37-1.51,5.77,5.77,0,0,0,1.33-4V121.41h2.8Z" transform="translate(-22.64 -17.79)"/><path d="M490.32,138.91h-2.8V113h2.8Z" transform="translate(-22.64 -17.79)"/><path d="M504.11,138.74a5.45,5.45,0,0,1-2.61.54c-3.07,0-4.6-1.7-4.6-5.12V123.8h-3v-2.39h3v-4.27l2.8-.91v5.18h4.41v2.39H499.7v9.86a4.08,4.08,0,0,0,.6,2.51,2.36,2.36,0,0,0,2,.76,2.93,2.93,0,0,0,1.83-.59Z" transform="translate(-22.64 -17.79)"/><path d="M520.38,138.91h-2.8v-2.74h-.07a5.86,5.86,0,0,1-5.38,3.15,5.7,5.7,0,0,1-4.09-1.39,4.76,4.76,0,0,1-1.48-3.67q0-4.9,5.77-5.71l5.25-.73c0-3-1.2-4.46-3.61-4.46a8.57,8.57,0,0,0-5.7,2.15v-2.87a10.78,10.78,0,0,1,5.94-1.64q6.18,0,6.17,6.53Zm-2.8-8.85-4.22.58a6.84,6.84,0,0,0-2.94,1,2.78,2.78,0,0,0-1,2.45,2.67,2.67,0,0,0,.91,2.1,3.54,3.54,0,0,0,2.44.81,4.5,4.5,0,0,0,3.44-1.46,5.22,5.22,0,0,0,1.36-3.7Z" transform="translate(-22.64 -17.79)"/><path d="M540.6,138.91h-2.8v-3h-.07a7.06,7.06,0,0,1-11.29,1,9.62,9.62,0,0,1-2-6.4,10.54,10.54,0,0,1,2.18-7,7.24,7.24,0,0,1,5.83-2.61,5.61,5.61,0,0,1,5.25,2.83h.07V113h2.8ZM537.8,131v-2.58a5,5,0,0,0-1.4-3.59,4.71,4.71,0,0,0-3.56-1.47,4.81,4.81,0,0,0-4,1.88,8.21,8.21,0,0,0-1.47,5.19,7.42,7.42,0,0,0,1.41,4.78,4.6,4.6,0,0,0,3.78,1.75,4.8,4.8,0,0,0,3.81-1.69A6.32,6.32,0,0,0,537.8,131Z" transform="translate(-22.64 -17.79)"/><path d="M553.59,139.32a8.15,8.15,0,0,1-6.2-2.45,9.12,9.12,0,0,1-2.31-6.51,9.43,9.43,0,0,1,2.41-6.88A8.61,8.61,0,0,1,554,121a7.84,7.84,0,0,1,6.11,2.41,9.55,9.55,0,0,1,2.19,6.68,9.44,9.44,0,0,1-2.36,6.71A8.31,8.31,0,0,1,553.59,139.32Zm.2-16a5.34,5.34,0,0,0-4.27,1.83,7.56,7.56,0,0,0-1.57,5.07,7.16,7.16,0,0,0,1.59,4.91,5.42,5.42,0,0,0,4.25,1.79A5.13,5.13,0,0,0,558,135.2a7.6,7.6,0,0,0,1.46-5,7.75,7.75,0,0,0-1.46-5.06A5.11,5.11,0,0,0,553.79,123.36Z" transform="translate(-22.64 -17.79)"/><path d="M583.68,139.32a8.13,8.13,0,0,1-6.19-2.45,9.09,9.09,0,0,1-2.32-6.51,9.47,9.47,0,0,1,2.41-6.88,8.64,8.64,0,0,1,6.51-2.48,7.83,7.83,0,0,1,6.11,2.41,9.51,9.51,0,0,1,2.2,6.68A9.4,9.4,0,0,1,590,136.8,8.29,8.29,0,0,1,583.68,139.32Zm.21-16a5.32,5.32,0,0,0-4.27,1.83,7.56,7.56,0,0,0-1.58,5.07,7.16,7.16,0,0,0,1.59,4.91,5.43,5.43,0,0,0,4.26,1.79,5.15,5.15,0,0,0,4.18-1.76,7.65,7.65,0,0,0,1.46-5,7.8,7.8,0,0,0-1.46-5.06A5.12,5.12,0,0,0,583.89,123.36Z" transform="translate(-22.64 -17.79)"/><path d="M605,138.74a5.45,5.45,0,0,1-2.61.54c-3.07,0-4.6-1.7-4.6-5.12V123.8h-3v-2.39h3v-4.27l2.8-.91v5.18H605v2.39h-4.41v9.86a4.08,4.08,0,0,0,.6,2.51,2.37,2.37,0,0,0,2,.76,2.92,2.92,0,0,0,1.82-.59Z" transform="translate(-22.64 -17.79)"/><path d="M617.86,124.25a3.39,3.39,0,0,0-2.12-.57,3.61,3.61,0,0,0-3,1.69,7.87,7.87,0,0,0-1.2,4.62v8.92h-2.8v-17.5h2.8V125h.07a6.13,6.13,0,0,1,1.83-2.88,4.2,4.2,0,0,1,2.75-1,4.54,4.54,0,0,1,1.67.24Z" transform="translate(-22.64 -17.79)"/><path d="M628.22,139.32a8.15,8.15,0,0,1-6.2-2.45,9.12,9.12,0,0,1-2.31-6.51,9.43,9.43,0,0,1,2.41-6.88,8.63,8.63,0,0,1,6.51-2.48,7.83,7.83,0,0,1,6.11,2.41,9.56,9.56,0,0,1,2.2,6.68,9.4,9.4,0,0,1-2.37,6.71A8.31,8.31,0,0,1,628.22,139.32Zm.2-16a5.34,5.34,0,0,0-4.27,1.83,7.56,7.56,0,0,0-1.57,5.07,7.16,7.16,0,0,0,1.59,4.91,5.42,5.42,0,0,0,4.25,1.79,5.12,5.12,0,0,0,4.18-1.76,7.6,7.6,0,0,0,1.46-5,7.75,7.75,0,0,0-1.46-5.06A5.1,5.1,0,0,0,628.42,123.36Z" transform="translate(-22.64 -17.79)"/><path d="M664.76,121.41l-7,17.5H655l-6.63-17.5h3.08l4.44,12.71a11.55,11.55,0,0,1,.62,2.45h.07a11.41,11.41,0,0,1,.54-2.38l4.65-12.78Z" transform="translate(-22.64 -17.79)"/><path d="M681.83,130.86H669.48a6.48,6.48,0,0,0,1.57,4.51,5.41,5.41,0,0,0,4.13,1.59,8.61,8.61,0,0,0,5.44-2v2.63a10.13,10.13,0,0,1-6.1,1.68,7.39,7.39,0,0,1-5.83-2.39,9.76,9.76,0,0,1-2.12-6.7,9.55,9.55,0,0,1,2.32-6.66,7.43,7.43,0,0,1,5.75-2.57,6.57,6.57,0,0,1,5.31,2.22,9.23,9.23,0,0,1,1.88,6.17ZM679,128.48a5.68,5.68,0,0,0-1.17-3.77,4,4,0,0,0-3.2-1.35,4.5,4.5,0,0,0-3.37,1.42,6.46,6.46,0,0,0-1.71,3.7Z" transform="translate(-22.64 -17.79)"/><path d="M698,138.11a9.21,9.21,0,0,1-4.79,1.21,7.9,7.9,0,0,1-6-2.44,8.81,8.81,0,0,1-2.3-6.31,9.73,9.73,0,0,1,2.48-6.95A8.66,8.66,0,0,1,694,121a9.2,9.2,0,0,1,4.07.85v2.87a7.13,7.13,0,0,0-4.17-1.36,5.64,5.64,0,0,0-4.4,1.92,7.31,7.31,0,0,0-1.72,5.05,6.92,6.92,0,0,0,1.62,4.85,5.55,5.55,0,0,0,4.33,1.78,7.06,7.06,0,0,0,4.31-1.52Z" transform="translate(-22.64 -17.79)"/><path d="M710.35,138.74a5.45,5.45,0,0,1-2.61.54c-3.07,0-4.6-1.7-4.6-5.12V123.8h-3v-2.39h3v-4.27l2.8-.91v5.18h4.41v2.39h-4.41v9.86a4.08,4.08,0,0,0,.6,2.51,2.37,2.37,0,0,0,2,.76,2.92,2.92,0,0,0,1.82-.59Z" transform="translate(-22.64 -17.79)"/><path d="M721.41,139.32a8.11,8.11,0,0,1-6.19-2.45,9.09,9.09,0,0,1-2.32-6.51,9.43,9.43,0,0,1,2.41-6.88,8.64,8.64,0,0,1,6.51-2.48,7.83,7.83,0,0,1,6.11,2.41,9.56,9.56,0,0,1,2.2,6.68,9.4,9.4,0,0,1-2.37,6.71A8.29,8.29,0,0,1,721.41,139.32Zm.21-16a5.36,5.36,0,0,0-4.28,1.83,7.56,7.56,0,0,0-1.57,5.07,7.16,7.16,0,0,0,1.59,4.91,5.43,5.43,0,0,0,4.26,1.79,5.11,5.11,0,0,0,4.17-1.76,7.6,7.6,0,0,0,1.47-5,7.75,7.75,0,0,0-1.47-5.06A5.09,5.09,0,0,0,721.62,123.36Z" transform="translate(-22.64 -17.79)"/><path d="M743.73,124.25a3.41,3.41,0,0,0-2.12-.57,3.61,3.61,0,0,0-3,1.69,7.87,7.87,0,0,0-1.2,4.62v8.92H734.6v-17.5h2.81V125h.07a6,6,0,0,1,1.82-2.88,4.22,4.22,0,0,1,2.76-1,4.58,4.58,0,0,1,1.67.24Z" transform="translate(-22.64 -17.79)"/><path d="M771.3,147h-2.81V135.9h-.06a6.28,6.28,0,0,1-6,3.42,6.56,6.56,0,0,1-5.28-2.35,9.58,9.58,0,0,1-2-6.4,10.48,10.48,0,0,1,2.19-7,7.3,7.3,0,0,1,5.88-2.6,5.53,5.53,0,0,1,5.2,2.83h.06v-2.42h2.81ZM768.49,131v-2.55a5.1,5.1,0,0,0-1.41-3.64,4.71,4.71,0,0,0-3.58-1.48,4.82,4.82,0,0,0-4,1.87A8.34,8.34,0,0,0,758,130.5a7.24,7.24,0,0,0,1.41,4.74,4.53,4.53,0,0,0,3.66,1.72,4.93,4.93,0,0,0,3.92-1.68A6.24,6.24,0,0,0,768.49,131Z" transform="translate(-22.64 -17.79)"/><path d="M791.12,138.91h-2.8v-2.77h-.07a5.75,5.75,0,0,1-5.4,3.18q-6.26,0-6.26-7.45V121.41h2.79v10q0,5.54,4.24,5.54a4.26,4.26,0,0,0,3.37-1.51,5.77,5.77,0,0,0,1.33-4V121.41h2.8Z" transform="translate(-22.64 -17.79)"/><path d="M810.84,130.86H798.49a6.52,6.52,0,0,0,1.57,4.51A5.42,5.42,0,0,0,804.2,137a8.58,8.58,0,0,0,5.43-2v2.63a10.13,10.13,0,0,1-6.1,1.68,7.4,7.4,0,0,1-5.83-2.39,9.76,9.76,0,0,1-2.12-6.7,9.55,9.55,0,0,1,2.32-6.66,7.43,7.43,0,0,1,5.75-2.57,6.57,6.57,0,0,1,5.31,2.22,9.23,9.23,0,0,1,1.88,6.17ZM808,128.48a5.68,5.68,0,0,0-1.17-3.77,4,4,0,0,0-3.2-1.35,4.52,4.52,0,0,0-3.37,1.42,6.46,6.46,0,0,0-1.71,3.7Z" transform="translate(-22.64 -17.79)"/><path d="M838.73,130.86H826.38a6.52,6.52,0,0,0,1.57,4.51,5.42,5.42,0,0,0,4.14,1.59,8.58,8.58,0,0,0,5.43-2v2.63a10.13,10.13,0,0,1-6.1,1.68,7.4,7.4,0,0,1-5.83-2.39,9.76,9.76,0,0,1-2.12-6.7,9.55,9.55,0,0,1,2.32-6.66,7.43,7.43,0,0,1,5.75-2.57,6.57,6.57,0,0,1,5.31,2.22,9.23,9.23,0,0,1,1.88,6.17Zm-2.87-2.38a5.68,5.68,0,0,0-1.17-3.77,4,4,0,0,0-3.2-1.35,4.52,4.52,0,0,0-3.37,1.42,6.46,6.46,0,0,0-1.71,3.7Z" transform="translate(-22.64 -17.79)"/><path d="M841.91,138.28v-3a8.29,8.29,0,0,0,5,1.69q3.69,0,3.69-2.46a2.15,2.15,0,0,0-.31-1.19,3.19,3.19,0,0,0-.86-.86,6.47,6.47,0,0,0-1.26-.68l-1.56-.62a21.46,21.46,0,0,1-2-.93,6.45,6.45,0,0,1-1.47-1.06,3.81,3.81,0,0,1-.88-1.34,4.73,4.73,0,0,1-.3-1.76,4.14,4.14,0,0,1,.56-2.18,5.17,5.17,0,0,1,1.5-1.59,7.14,7.14,0,0,1,2.15-1,9.77,9.77,0,0,1,2.49-.32,10.07,10.07,0,0,1,4.06.78v2.84a8,8,0,0,0-4.44-1.26,5.2,5.2,0,0,0-1.42.18,3.37,3.37,0,0,0-1.08.5,2.25,2.25,0,0,0-.7.78,2,2,0,0,0-.25,1,2.34,2.34,0,0,0,.25,1.14,2.41,2.41,0,0,0,.72.82,5.51,5.51,0,0,0,1.16.65q.69.3,1.56.63c.77.3,1.47.61,2.08.92a7.26,7.26,0,0,1,1.58,1.06,4.17,4.17,0,0,1,1,1.36,4.42,4.42,0,0,1,.35,1.83,4.24,4.24,0,0,1-.58,2.25,4.84,4.84,0,0,1-1.53,1.59,6.84,6.84,0,0,1-2.2.94,10.63,10.63,0,0,1-2.62.31A10,10,0,0,1,841.91,138.28Z" transform="translate(-22.64 -17.79)"/><path d="M870.28,136.38h-.07V147h-2.8V121.41h2.8v3.07h.07a6.64,6.64,0,0,1,6.05-3.48,6.39,6.39,0,0,1,5.28,2.35,9.7,9.7,0,0,1,1.9,6.3,10.82,10.82,0,0,1-2.14,7,7.1,7.1,0,0,1-5.84,2.64A5.86,5.86,0,0,1,870.28,136.38Zm-.07-7.06v2.44a5.22,5.22,0,0,0,1.41,3.69,5,5,0,0,0,7.57-.44,8.88,8.88,0,0,0,1.45-5.42,7.08,7.08,0,0,0-1.35-4.58,4.48,4.48,0,0,0-3.66-1.65,4.94,4.94,0,0,0-3.93,1.7A6.23,6.23,0,0,0,870.21,129.32Z" transform="translate(-22.64 -17.79)"/><path d="M902.05,130.86H889.7a6.52,6.52,0,0,0,1.57,4.51A5.41,5.41,0,0,0,895.4,137a8.59,8.59,0,0,0,5.44-2v2.63a10.13,10.13,0,0,1-6.1,1.68,7.4,7.4,0,0,1-5.83-2.39,9.76,9.76,0,0,1-2.12-6.7,9.55,9.55,0,0,1,2.32-6.66,7.43,7.43,0,0,1,5.75-2.57,6.57,6.57,0,0,1,5.31,2.22,9.23,9.23,0,0,1,1.88,6.17Zm-2.87-2.38a5.68,5.68,0,0,0-1.17-3.77,4,4,0,0,0-3.2-1.35,4.5,4.5,0,0,0-3.37,1.42,6.46,6.46,0,0,0-1.71,3.7Z" transform="translate(-22.64 -17.79)"/><path d="M915.42,124.25a3.41,3.41,0,0,0-2.12-.57,3.59,3.59,0,0,0-3,1.69,7.79,7.79,0,0,0-1.21,4.62v8.92h-2.8v-17.5h2.8V125h.07a6.13,6.13,0,0,1,1.83-2.88,4.22,4.22,0,0,1,2.75-1,4.6,4.6,0,0,1,1.68.24Z" transform="translate(-22.64 -17.79)"/><path d="M921.33,136.38h-.07V147h-2.8V121.41h2.8v3.07h.07a6.63,6.63,0,0,1,6-3.48,6.41,6.41,0,0,1,5.28,2.35,9.76,9.76,0,0,1,1.9,6.3,10.88,10.88,0,0,1-2.14,7,7.1,7.1,0,0,1-5.84,2.64A5.86,5.86,0,0,1,921.33,136.38Zm-.07-7.06v2.44a5.22,5.22,0,0,0,1.41,3.69,5,5,0,0,0,7.57-.44,9,9,0,0,0,1.45-5.42,7.08,7.08,0,0,0-1.35-4.58,4.48,4.48,0,0,0-3.66-1.65,4.94,4.94,0,0,0-3.93,1.7A6.23,6.23,0,0,0,921.26,129.32Z" transform="translate(-22.64 -17.79)"/><path d="M953.1,130.86H940.74a6.53,6.53,0,0,0,1.58,4.51,5.41,5.41,0,0,0,4.13,1.59,8.63,8.63,0,0,0,5.44-2v2.63a10.15,10.15,0,0,1-6.1,1.68,7.39,7.39,0,0,1-5.83-2.39,9.71,9.71,0,0,1-2.12-6.7,9.59,9.59,0,0,1,2.31-6.66A7.45,7.45,0,0,1,945.9,121a6.59,6.59,0,0,1,5.32,2.22,9.28,9.28,0,0,1,1.88,6.17Zm-2.87-2.38a5.68,5.68,0,0,0-1.17-3.77,4,4,0,0,0-3.21-1.35,4.5,4.5,0,0,0-3.36,1.42,6.33,6.33,0,0,0-1.71,3.7Z" transform="translate(-22.64 -17.79)"/><path d="M971.86,138.91h-2.8v-10c0-3.72-1.36-5.57-4.07-5.57a4.37,4.37,0,0,0-3.47,1.58,5.83,5.83,0,0,0-1.38,4v10h-2.8v-17.5h2.8v2.9h.07A6.3,6.3,0,0,1,966,121a5.37,5.37,0,0,1,4.39,1.85,8.25,8.25,0,0,1,1.52,5.36Z" transform="translate(-22.64 -17.79)"/><path d="M992.08,138.91h-2.8v-3h-.07a7.06,7.06,0,0,1-11.29,1,9.68,9.68,0,0,1-2-6.4,10.54,10.54,0,0,1,2.18-7A7.24,7.24,0,0,1,984,121a5.6,5.6,0,0,1,5.25,2.83h.07V113h2.8Zm-2.8-7.91v-2.58a5,5,0,0,0-1.4-3.59,4.71,4.71,0,0,0-3.56-1.47,4.81,4.81,0,0,0-4,1.88,8.21,8.21,0,0,0-1.47,5.19,7.42,7.42,0,0,0,1.41,4.78A4.6,4.6,0,0,0,984,137a4.8,4.8,0,0,0,3.81-1.69A6.32,6.32,0,0,0,989.28,131Z" transform="translate(-22.64 -17.79)"/><path d="M999.19,117a1.77,1.77,0,0,1-1.28-.51,1.86,1.86,0,0,1,0-2.6,1.75,1.75,0,0,1,1.28-.53,1.82,1.82,0,0,1,1.31.53,1.72,1.72,0,0,1,.54,1.3,1.76,1.76,0,0,1-.54,1.29A1.81,1.81,0,0,1,999.19,117Zm1.37,22h-2.81v-17.5h2.81Z" transform="translate(-22.64 -17.79)"/><path d="M1018.16,138.11a9.21,9.21,0,0,1-4.79,1.21,7.92,7.92,0,0,1-6-2.44,8.81,8.81,0,0,1-2.3-6.31,9.73,9.73,0,0,1,2.48-6.95,8.67,8.67,0,0,1,6.62-2.62,9.18,9.18,0,0,1,4.06.85v2.87a7.13,7.13,0,0,0-4.17-1.36,5.64,5.64,0,0,0-4.4,1.92,7.3,7.3,0,0,0-1.71,5.05,6.91,6.91,0,0,0,1.61,4.85,5.55,5.55,0,0,0,4.33,1.78,7.06,7.06,0,0,0,4.31-1.52Z" transform="translate(-22.64 -17.79)"/><path d="M1036.55,138.91h-2.8v-2.77h-.07a5.77,5.77,0,0,1-5.4,3.18q-6.26,0-6.26-7.45V121.41h2.79v10q0,5.54,4.23,5.54a4.28,4.28,0,0,0,3.38-1.51,5.82,5.82,0,0,0,1.33-4V121.41h2.8Z" transform="translate(-22.64 -17.79)"/><path d="M1045,138.91h-2.81V113H1045Z" transform="translate(-22.64 -17.79)"/><path d="M1063.21,138.91h-2.81v-2.74h-.06a5.88,5.88,0,0,1-5.39,3.15,5.73,5.73,0,0,1-4.09-1.39,4.76,4.76,0,0,1-1.48-3.67q0-4.9,5.78-5.71l5.24-.73c0-3-1.2-4.46-3.6-4.46a8.59,8.59,0,0,0-5.71,2.15v-2.87a10.79,10.79,0,0,1,6-1.64q6.17,0,6.17,6.53Zm-2.81-8.85-4.22.58a6.84,6.84,0,0,0-2.94,1,2.78,2.78,0,0,0-1,2.45,2.68,2.68,0,0,0,.92,2.1,3.53,3.53,0,0,0,2.43.81,4.53,4.53,0,0,0,3.45-1.46,5.25,5.25,0,0,0,1.35-3.7Z" transform="translate(-22.64 -17.79)"/><path d="M1077.61,124.25a3.38,3.38,0,0,0-2.11-.57,3.59,3.59,0,0,0-3,1.69,7.79,7.79,0,0,0-1.21,4.62v8.92h-2.8v-17.5h2.8V125h.07a6.13,6.13,0,0,1,1.83-2.88,4.2,4.2,0,0,1,2.75-1,4.5,4.5,0,0,1,1.67.24Z" transform="translate(-22.64 -17.79)"/><path d="M1102.77,138.91H1100v-2.74h-.07a5.87,5.87,0,0,1-5.38,3.15,5.74,5.74,0,0,1-4.1-1.39,4.8,4.8,0,0,1-1.48-3.67q0-4.9,5.78-5.71l5.25-.73c0-3-1.21-4.46-3.61-4.46a8.59,8.59,0,0,0-5.71,2.15v-2.87a10.81,10.81,0,0,1,5.95-1.64q6.17,0,6.17,6.53Zm-2.8-8.85-4.22.58a6.84,6.84,0,0,0-2.94,1,2.78,2.78,0,0,0-1,2.45,2.67,2.67,0,0,0,.91,2.1,3.54,3.54,0,0,0,2.44.81,4.53,4.53,0,0,0,3.44-1.46,5.26,5.26,0,0,0,1.36-3.7Z" transform="translate(-22.64 -17.79)"/><path d="M1110.85,138.91h-2.8V113h2.8Z" transform="translate(-22.64 -17.79)"/><path d="M26.71,178.38h-.07V189h-2.8V163.41h2.8v3.07h.07a6.63,6.63,0,0,1,6-3.48A6.41,6.41,0,0,1,38,165.35a9.76,9.76,0,0,1,1.9,6.3,10.88,10.88,0,0,1-2.14,7A7.11,7.11,0,0,1,32,181.32,5.85,5.85,0,0,1,26.71,178.38Zm-.07-7.06v2.44a5.22,5.22,0,0,0,1.41,3.69A4.67,4.67,0,0,0,31.63,179a4.68,4.68,0,0,0,4-2,9,9,0,0,0,1.44-5.42A7.08,7.08,0,0,0,35.71,167a4.46,4.46,0,0,0-3.65-1.65,4.94,4.94,0,0,0-3.93,1.7A6.23,6.23,0,0,0,26.64,171.32Z" transform="translate(-22.64 -17.79)"/><path d="M47.22,180.91H44.41V155h2.81Z" transform="translate(-22.64 -17.79)"/><path d="M65.42,180.91H62.61v-2.74h-.06a5.88,5.88,0,0,1-5.39,3.15,5.71,5.71,0,0,1-4.09-1.39,4.76,4.76,0,0,1-1.48-3.67q0-4.9,5.78-5.71l5.24-.73c0-3-1.2-4.46-3.6-4.46a8.59,8.59,0,0,0-5.71,2.15v-2.87a10.79,10.79,0,0,1,6-1.64q6.16,0,6.17,6.53Zm-2.81-8.85-4.22.58a6.84,6.84,0,0,0-2.94,1,2.78,2.78,0,0,0-1,2.45,2.68,2.68,0,0,0,.92,2.1,3.53,3.53,0,0,0,2.43.81,4.5,4.5,0,0,0,3.44-1.46,5.22,5.22,0,0,0,1.36-3.7Z" transform="translate(-22.64 -17.79)"/><path d="M85.22,180.91h-2.8v-10c0-3.72-1.36-5.57-4.07-5.57a4.37,4.37,0,0,0-3.47,1.58,5.83,5.83,0,0,0-1.38,4v10H70.7v-17.5h2.8v2.9h.07A6.3,6.3,0,0,1,79.31,163a5.37,5.37,0,0,1,4.39,1.85,8.25,8.25,0,0,1,1.52,5.36Z" transform="translate(-22.64 -17.79)"/><path d="M97.82,181.32a8.15,8.15,0,0,1-6.2-2.45,9.12,9.12,0,0,1-2.31-6.51,9.43,9.43,0,0,1,2.41-6.88A8.61,8.61,0,0,1,98.23,163a7.84,7.84,0,0,1,6.11,2.41,9.55,9.55,0,0,1,2.19,6.68,9.4,9.4,0,0,1-2.36,6.71A8.31,8.31,0,0,1,97.82,181.32Zm.2-16a5.34,5.34,0,0,0-4.27,1.83,7.56,7.56,0,0,0-1.57,5.07,7.16,7.16,0,0,0,1.59,4.91A5.42,5.42,0,0,0,98,179a5.12,5.12,0,0,0,4.18-1.76,7.6,7.6,0,0,0,1.46-5,7.75,7.75,0,0,0-1.46-5.06A5.1,5.1,0,0,0,98,165.36Z" transform="translate(-22.64 -17.79)"/><path d="M135.54,189h-2.81V177.9h-.06a6.28,6.28,0,0,1-6,3.42,6.58,6.58,0,0,1-5.29-2.35,9.63,9.63,0,0,1-2-6.4,10.48,10.48,0,0,1,2.19-7,7.3,7.3,0,0,1,5.88-2.6,5.53,5.53,0,0,1,5.2,2.83h.06v-2.42h2.81ZM132.73,173v-2.55a5.1,5.1,0,0,0-1.41-3.64,4.71,4.71,0,0,0-3.58-1.48,4.82,4.82,0,0,0-4,1.87,8.35,8.35,0,0,0-1.47,5.27,7.24,7.24,0,0,0,1.42,4.74,4.53,4.53,0,0,0,3.66,1.72,4.93,4.93,0,0,0,3.92-1.68A6.24,6.24,0,0,0,132.73,173Z" transform="translate(-22.64 -17.79)"/><path d="M155.36,180.91h-2.8v-2.77h-.07a5.75,5.75,0,0,1-5.4,3.18q-6.26,0-6.26-7.45V163.41h2.79v10q0,5.54,4.24,5.54a4.26,4.26,0,0,0,3.37-1.51,5.77,5.77,0,0,0,1.33-4V163.41h2.8Z" transform="translate(-22.64 -17.79)"/><path d="M175.08,172.86H162.73a6.52,6.52,0,0,0,1.57,4.51,5.41,5.41,0,0,0,4.13,1.59,8.61,8.61,0,0,0,5.44-2v2.63a10.13,10.13,0,0,1-6.1,1.68,7.39,7.39,0,0,1-5.83-2.39,9.76,9.76,0,0,1-2.12-6.7,9.55,9.55,0,0,1,2.32-6.66,7.43,7.43,0,0,1,5.75-2.57,6.57,6.57,0,0,1,5.31,2.22,9.23,9.23,0,0,1,1.88,6.17Zm-2.87-2.38a5.68,5.68,0,0,0-1.17-3.77,4,4,0,0,0-3.2-1.35,4.5,4.5,0,0,0-3.37,1.42,6.46,6.46,0,0,0-1.71,3.7Z" transform="translate(-22.64 -17.79)"/><path d="M191.71,180.91h-2.8V155h2.8Z" transform="translate(-22.64 -17.79)"/><path d="M204.7,181.32a8.15,8.15,0,0,1-6.2-2.45,9.12,9.12,0,0,1-2.31-6.51,9.43,9.43,0,0,1,2.41-6.88,8.61,8.61,0,0,1,6.51-2.48,7.84,7.84,0,0,1,6.11,2.41,9.55,9.55,0,0,1,2.19,6.68,9.4,9.4,0,0,1-2.36,6.71A8.31,8.31,0,0,1,204.7,181.32Zm.2-16a5.34,5.34,0,0,0-4.27,1.83,7.56,7.56,0,0,0-1.57,5.07,7.16,7.16,0,0,0,1.59,4.91A5.42,5.42,0,0,0,204.9,179a5.12,5.12,0,0,0,4.18-1.76,7.6,7.6,0,0,0,1.46-5,7.75,7.75,0,0,0-1.46-5.06A5.1,5.1,0,0,0,204.9,165.36Z" transform="translate(-22.64 -17.79)"/><path d="M216.83,180.28v-3a8.29,8.29,0,0,0,5,1.69c2.46,0,3.7-.82,3.7-2.46a2.16,2.16,0,0,0-.32-1.19,3.3,3.3,0,0,0-.85-.86,6.87,6.87,0,0,0-1.27-.68l-1.56-.62a21.46,21.46,0,0,1-2-.93,6.45,6.45,0,0,1-1.47-1.06,3.81,3.81,0,0,1-.88-1.34,4.73,4.73,0,0,1-.3-1.76,4.14,4.14,0,0,1,.56-2.18,5.17,5.17,0,0,1,1.5-1.59,7.14,7.14,0,0,1,2.15-1,9.77,9.77,0,0,1,2.49-.32,10.07,10.07,0,0,1,4.06.78v2.84a7.93,7.93,0,0,0-4.44-1.26,5.2,5.2,0,0,0-1.42.18,3.37,3.37,0,0,0-1.08.5,2.25,2.25,0,0,0-.7.78,2,2,0,0,0-.25,1A2.34,2.34,0,0,0,220,169a2.41,2.41,0,0,0,.72.82,5.51,5.51,0,0,0,1.16.65q.69.3,1.56.63c.77.3,1.47.61,2.08.92a7.26,7.26,0,0,1,1.58,1.06,4.17,4.17,0,0,1,1,1.36,4.42,4.42,0,0,1,.35,1.83,4.24,4.24,0,0,1-.58,2.25,4.84,4.84,0,0,1-1.53,1.59,6.84,6.84,0,0,1-2.2.94,10.6,10.6,0,0,1-2.61.31A10,10,0,0,1,216.83,180.28Z" transform="translate(-22.64 -17.79)"/><path d="M254.26,180.11a9.21,9.21,0,0,1-4.79,1.21,7.9,7.9,0,0,1-6-2.44,8.81,8.81,0,0,1-2.3-6.31,9.73,9.73,0,0,1,2.48-6.95,8.67,8.67,0,0,1,6.62-2.62,9.18,9.18,0,0,1,4.06.85v2.87a7.13,7.13,0,0,0-4.17-1.36,5.64,5.64,0,0,0-4.4,1.92,7.3,7.3,0,0,0-1.71,5.05,6.91,6.91,0,0,0,1.61,4.85A5.55,5.55,0,0,0,250,179a7.06,7.06,0,0,0,4.31-1.52Z" transform="translate(-22.64 -17.79)"/><path d="M265.81,181.32a8.13,8.13,0,0,1-6.19-2.45,9.09,9.09,0,0,1-2.32-6.51,9.43,9.43,0,0,1,2.41-6.88,8.64,8.64,0,0,1,6.51-2.48,7.83,7.83,0,0,1,6.11,2.41,9.51,9.51,0,0,1,2.2,6.68,9.4,9.4,0,0,1-2.37,6.71A8.29,8.29,0,0,1,265.81,181.32Zm.21-16a5.36,5.36,0,0,0-4.28,1.83,7.61,7.61,0,0,0-1.57,5.07,7.16,7.16,0,0,0,1.59,4.91A5.43,5.43,0,0,0,266,179a5.15,5.15,0,0,0,4.18-1.76,7.65,7.65,0,0,0,1.46-5,7.8,7.8,0,0,0-1.46-5.06A5.12,5.12,0,0,0,266,165.36Z" transform="translate(-22.64 -17.79)"/><path d="M293.53,180.91h-2.8v-10c0-3.72-1.36-5.57-4.07-5.57a4.4,4.4,0,0,0-3.48,1.58,5.88,5.88,0,0,0-1.37,4v10H279v-17.5h2.8v2.9h.07a6.3,6.3,0,0,1,5.74-3.31,5.37,5.37,0,0,1,4.39,1.85,8.31,8.31,0,0,1,1.52,5.36Z" transform="translate(-22.64 -17.79)"/><path d="M306.93,180.74a5.45,5.45,0,0,1-2.61.54c-3.07,0-4.6-1.7-4.6-5.12V165.8h-3v-2.39h3v-4.27l2.8-.91v5.18h4.41v2.39h-4.41v9.86a4.08,4.08,0,0,0,.6,2.51,2.36,2.36,0,0,0,2,.76,2.93,2.93,0,0,0,1.83-.59Z" transform="translate(-22.64 -17.79)"/><path d="M312.11,159a1.77,1.77,0,0,1-1.28-.51,1.86,1.86,0,0,1,0-2.6,1.75,1.75,0,0,1,1.28-.53,1.82,1.82,0,0,1,1.31.53,1.75,1.75,0,0,1,.53,1.3,1.77,1.77,0,0,1-.53,1.29A1.81,1.81,0,0,1,312.11,159Zm1.37,21.95h-2.81v-17.5h2.81Z" transform="translate(-22.64 -17.79)"/><path d="M333.21,172.86H320.86a6.52,6.52,0,0,0,1.57,4.51,5.42,5.42,0,0,0,4.14,1.59,8.58,8.58,0,0,0,5.43-2v2.63a10.13,10.13,0,0,1-6.1,1.68,7.4,7.4,0,0,1-5.83-2.39,9.76,9.76,0,0,1-2.12-6.7,9.55,9.55,0,0,1,2.32-6.66A7.43,7.43,0,0,1,326,163a6.57,6.57,0,0,1,5.31,2.22,9.23,9.23,0,0,1,1.88,6.17Zm-2.87-2.38a5.68,5.68,0,0,0-1.17-3.77,4,4,0,0,0-3.2-1.35,4.52,4.52,0,0,0-3.37,1.42,6.46,6.46,0,0,0-1.71,3.7Z" transform="translate(-22.64 -17.79)"/><path d="M352,180.91h-2.8v-10c0-3.72-1.36-5.57-4.07-5.57a4.4,4.4,0,0,0-3.48,1.58,5.83,5.83,0,0,0-1.37,4v10h-2.81v-17.5h2.81v2.9h.06a6.33,6.33,0,0,1,5.75-3.31,5.38,5.38,0,0,1,4.39,1.85,8.31,8.31,0,0,1,1.52,5.36Z" transform="translate(-22.64 -17.79)"/><path d="M371.32,172.86H359a6.52,6.52,0,0,0,1.57,4.51,5.42,5.42,0,0,0,4.14,1.59,8.58,8.58,0,0,0,5.43-2v2.63a10.13,10.13,0,0,1-6.1,1.68,7.42,7.42,0,0,1-5.83-2.39,9.76,9.76,0,0,1-2.12-6.7,9.55,9.55,0,0,1,2.32-6.66,7.43,7.43,0,0,1,5.75-2.57,6.57,6.57,0,0,1,5.31,2.22,9.23,9.23,0,0,1,1.88,6.17Zm-2.87-2.38a5.68,5.68,0,0,0-1.17-3.77,4,4,0,0,0-3.2-1.35,4.52,4.52,0,0,0-3.37,1.42,6.46,6.46,0,0,0-1.71,3.7Z" transform="translate(-22.64 -17.79)"/><path d="M388,180.91h-2.8V155H388Z" transform="translate(-22.64 -17.79)"/><path d="M400.94,181.32a8.11,8.11,0,0,1-6.19-2.45,9.09,9.09,0,0,1-2.32-6.51,9.43,9.43,0,0,1,2.41-6.88,8.64,8.64,0,0,1,6.51-2.48,7.83,7.83,0,0,1,6.11,2.41,9.56,9.56,0,0,1,2.2,6.68,9.4,9.4,0,0,1-2.37,6.71A8.29,8.29,0,0,1,400.94,181.32Zm.21-16a5.36,5.36,0,0,0-4.28,1.83,7.61,7.61,0,0,0-1.57,5.07,7.16,7.16,0,0,0,1.59,4.91,5.43,5.43,0,0,0,4.26,1.79,5.15,5.15,0,0,0,4.18-1.76,7.65,7.65,0,0,0,1.46-5,7.8,7.8,0,0,0-1.46-5.06A5.12,5.12,0,0,0,401.15,165.36Z" transform="translate(-22.64 -17.79)"/><path d="M413.08,180.28v-3a8.25,8.25,0,0,0,5,1.69q3.69,0,3.69-2.46a2.16,2.16,0,0,0-.32-1.19,3.15,3.15,0,0,0-.85-.86,6.57,6.57,0,0,0-1.27-.68l-1.56-.62a20.14,20.14,0,0,1-2-.93,6,6,0,0,1-1.47-1.06,3.83,3.83,0,0,1-.89-1.34,4.73,4.73,0,0,1-.3-1.76,4.24,4.24,0,0,1,.56-2.18,5.08,5.08,0,0,1,1.51-1.59,7,7,0,0,1,2.14-1,9.77,9.77,0,0,1,2.49-.32,10.15,10.15,0,0,1,4.07.78v2.84a8,8,0,0,0-4.45-1.26,5.26,5.26,0,0,0-1.42.18,3.37,3.37,0,0,0-1.08.5,2.35,2.35,0,0,0-.7.78,2,2,0,0,0-.25,1,2.34,2.34,0,0,0,.25,1.14,2.53,2.53,0,0,0,.72.82,5.35,5.35,0,0,0,1.17.65c.45.2,1,.41,1.55.63.78.3,1.47.61,2.09.92a7.18,7.18,0,0,1,1.57,1.06,4,4,0,0,1,1,1.36,4.42,4.42,0,0,1,.35,1.83,4.32,4.32,0,0,1-.57,2.25,5,5,0,0,1-1.53,1.59,7,7,0,0,1-2.21.94,10.6,10.6,0,0,1-2.61.31A10,10,0,0,1,413.08,180.28Z" transform="translate(-22.64 -17.79)"/><path d="M452.33,163.41l-7,17.5h-2.75L436,163.41h3.07l4.45,12.71a11.46,11.46,0,0,1,.61,2.45h.07a10.8,10.8,0,0,1,.55-2.38l4.64-12.78Z" transform="translate(-22.64 -17.79)"/><path d="M469.4,172.86H457.05a6.52,6.52,0,0,0,1.57,4.51,5.42,5.42,0,0,0,4.14,1.59,8.58,8.58,0,0,0,5.43-2v2.63a10.13,10.13,0,0,1-6.1,1.68,7.4,7.4,0,0,1-5.83-2.39,9.76,9.76,0,0,1-2.12-6.7,9.55,9.55,0,0,1,2.32-6.66,7.43,7.43,0,0,1,5.75-2.57,6.57,6.57,0,0,1,5.31,2.22,9.23,9.23,0,0,1,1.88,6.17Zm-2.87-2.38a5.68,5.68,0,0,0-1.17-3.77,4,4,0,0,0-3.2-1.35,4.52,4.52,0,0,0-3.37,1.42,6.46,6.46,0,0,0-1.71,3.7Z" transform="translate(-22.64 -17.79)"/><path d="M485.57,180.11a9.17,9.17,0,0,1-4.78,1.21,7.93,7.93,0,0,1-6.05-2.44,8.81,8.81,0,0,1-2.29-6.31,9.72,9.72,0,0,1,2.47-6.95,8.68,8.68,0,0,1,6.62-2.62,9.15,9.15,0,0,1,4.06.85v2.87a7.09,7.09,0,0,0-4.17-1.36,5.66,5.66,0,0,0-4.4,1.92,7.3,7.3,0,0,0-1.71,5.05,6.91,6.91,0,0,0,1.61,4.85,5.55,5.55,0,0,0,4.33,1.78,7,7,0,0,0,4.31-1.52Z" transform="translate(-22.64 -17.79)"/><path d="M497.93,180.74a5.49,5.49,0,0,1-2.62.54c-3.06,0-4.6-1.7-4.6-5.12V165.8h-3v-2.39h3v-4.27l2.81-.91v5.18h4.41v2.39h-4.41v9.86a4.08,4.08,0,0,0,.6,2.51,2.34,2.34,0,0,0,2,.76,3,3,0,0,0,1.83-.59Z" transform="translate(-22.64 -17.79)"/><path d="M509,181.32a8.13,8.13,0,0,1-6.19-2.45,9.09,9.09,0,0,1-2.32-6.51,9.47,9.47,0,0,1,2.41-6.88,8.64,8.64,0,0,1,6.51-2.48,7.83,7.83,0,0,1,6.11,2.41,9.51,9.51,0,0,1,2.2,6.68,9.4,9.4,0,0,1-2.37,6.71A8.29,8.29,0,0,1,509,181.32Zm.21-16a5.32,5.32,0,0,0-4.27,1.83,7.56,7.56,0,0,0-1.58,5.07,7.16,7.16,0,0,0,1.59,4.91,5.43,5.43,0,0,0,4.26,1.79,5.15,5.15,0,0,0,4.18-1.76,7.65,7.65,0,0,0,1.46-5,7.8,7.8,0,0,0-1.46-5.06A5.12,5.12,0,0,0,509.19,165.36Z" transform="translate(-22.64 -17.79)"/><path d="M531.3,166.25a3.39,3.39,0,0,0-2.12-.57,3.61,3.61,0,0,0-3,1.69A7.87,7.87,0,0,0,525,172v8.92h-2.8v-17.5H525V167h.07a6.13,6.13,0,0,1,1.83-2.88,4.2,4.2,0,0,1,2.75-1,4.5,4.5,0,0,1,1.67.24Z" transform="translate(-22.64 -17.79)"/><path d="M548.41,172.86H536.05a6.53,6.53,0,0,0,1.58,4.51,5.41,5.41,0,0,0,4.13,1.59,8.63,8.63,0,0,0,5.44-2v2.63a10.15,10.15,0,0,1-6.1,1.68,7.39,7.39,0,0,1-5.83-2.39,9.71,9.71,0,0,1-2.12-6.7,9.59,9.59,0,0,1,2.31-6.66,7.45,7.45,0,0,1,5.75-2.57,6.59,6.59,0,0,1,5.32,2.22,9.28,9.28,0,0,1,1.88,6.17Zm-2.87-2.38a5.68,5.68,0,0,0-1.17-3.77,4,4,0,0,0-3.21-1.35,4.5,4.5,0,0,0-3.36,1.42,6.33,6.33,0,0,0-1.71,3.7Z" transform="translate(-22.64 -17.79)"/><path d="M551.59,180.28v-3a8.27,8.27,0,0,0,5,1.69q3.69,0,3.69-2.46a2.15,2.15,0,0,0-.31-1.19,3.35,3.35,0,0,0-.86-.86,6.77,6.77,0,0,0-1.26-.68l-1.57-.62a22.39,22.39,0,0,1-2-.93,6,6,0,0,1-1.47-1.06,4,4,0,0,1-.89-1.34,4.73,4.73,0,0,1-.3-1.76,4.15,4.15,0,0,1,.57-2.18,4.94,4.94,0,0,1,1.5-1.59,7,7,0,0,1,2.15-1,9.75,9.75,0,0,1,2.48-.32,10.12,10.12,0,0,1,4.07.78v2.84a8,8,0,0,0-4.44-1.26,5.15,5.15,0,0,0-1.42.18,3.42,3.42,0,0,0-1.09.5,2.47,2.47,0,0,0-.7.78,2.09,2.09,0,0,0-.25,1,2.46,2.46,0,0,0,.25,1.14,2.56,2.56,0,0,0,.73.82,5.26,5.26,0,0,0,1.16.65c.46.2,1,.41,1.56.63.77.3,1.46.61,2.08.92a7,7,0,0,1,1.57,1.06,4,4,0,0,1,1,1.36,4.27,4.27,0,0,1,.35,1.83,4.32,4.32,0,0,1-.57,2.25,4.84,4.84,0,0,1-1.53,1.59,6.94,6.94,0,0,1-2.2.94,10.74,10.74,0,0,1-2.62.31A10,10,0,0,1,551.59,180.28Z" transform="translate(-22.64 -17.79)"/><path d="M596.43,180.91h-3.18L590.66,174H580.27l-2.45,6.87h-3.19L584,156.4h3Zm-6.71-9.45L585.87,161a11.39,11.39,0,0,1-.38-1.64h-.06A9.58,9.58,0,0,1,585,161l-3.81,10.44Z" transform="translate(-22.64 -17.79)"/><path d="M623.18,163.41l-8,20.3c-1.44,3.62-3.45,5.44-6,5.44a6.33,6.33,0,0,1-1.83-.23v-2.51a5.07,5.07,0,0,0,1.66.31c1.41,0,2.47-.84,3.18-2.53l1.4-3.32-6.84-17.46h3.11l4.74,13.47c0,.17.17.61.36,1.33h.1c0-.28.17-.71.34-1.3l5-13.5Z" transform="translate(-22.64 -17.79)"/><path d="M636.15,180.91V156.4h7a7.6,7.6,0,0,1,5,1.56,5,5,0,0,1,1.87,4,6,6,0,0,1-1.13,3.62,6.1,6.1,0,0,1-3.11,2.19v.07a6.17,6.17,0,0,1,4,1.87,5.75,5.75,0,0,1,1.49,4.11A6.4,6.4,0,0,1,649,179a8.38,8.38,0,0,1-5.69,1.95ZM639,159v7.91H642a5.63,5.63,0,0,0,3.71-1.13,4,4,0,0,0,1.35-3.21q0-3.57-4.7-3.57Zm0,10.49v8.82h3.9a5.83,5.83,0,0,0,3.92-1.2,4.08,4.08,0,0,0,1.39-3.28q0-4.34-5.91-4.34Z" transform="translate(-22.64 -17.79)"/><path d="M686.94,180.11a9.21,9.21,0,0,1-4.79,1.21,7.92,7.92,0,0,1-6-2.44,8.81,8.81,0,0,1-2.3-6.31,9.73,9.73,0,0,1,2.48-6.95,8.67,8.67,0,0,1,6.62-2.62,9.18,9.18,0,0,1,4.06.85v2.87a7.13,7.13,0,0,0-4.17-1.36,5.64,5.64,0,0,0-4.4,1.92,7.3,7.3,0,0,0-1.71,5.05,6.91,6.91,0,0,0,1.61,4.85,5.55,5.55,0,0,0,4.33,1.78,7.06,7.06,0,0,0,4.31-1.52Z" transform="translate(-22.64 -17.79)"/><path d="M705.33,180.91h-2.8v-2.77h-.07a5.77,5.77,0,0,1-5.4,3.18q-6.25,0-6.26-7.45V163.41h2.79v10q0,5.54,4.24,5.54a4.28,4.28,0,0,0,3.37-1.51,5.82,5.82,0,0,0,1.33-4V163.41h2.8Z" transform="translate(-22.64 -17.79)"/><path d="M724.91,163.41l-8,20.3c-1.43,3.62-3.45,5.44-6.05,5.44a6.25,6.25,0,0,1-1.82-.23v-2.51a5,5,0,0,0,1.65.31c1.42,0,2.48-.84,3.18-2.53l1.4-3.32-6.83-17.46h3.11l4.73,13.47c.06.17.18.61.36,1.33h.1c.06-.28.17-.71.35-1.3l5-13.5Z" transform="translate(-22.64 -17.79)"/><path d="M740.45,180.91h-2.81v-2.74h-.06a5.88,5.88,0,0,1-5.39,3.15,5.73,5.73,0,0,1-4.09-1.39,4.76,4.76,0,0,1-1.48-3.67q0-4.9,5.78-5.71l5.24-.73c0-3-1.2-4.46-3.6-4.46a8.59,8.59,0,0,0-5.71,2.15v-2.87a10.79,10.79,0,0,1,5.95-1.64q6.16,0,6.17,6.53Zm-2.81-8.85-4.22.58a6.84,6.84,0,0,0-2.94,1,2.78,2.78,0,0,0-1,2.45,2.68,2.68,0,0,0,.92,2.1,3.53,3.53,0,0,0,2.43.81,4.53,4.53,0,0,0,3.45-1.46,5.25,5.25,0,0,0,1.35-3.7Z" transform="translate(-22.64 -17.79)"/><path d="M780.16,180.91h-2.8v-10a7.53,7.53,0,0,0-.9-4.2,3.37,3.37,0,0,0-3-1.3A3.7,3.7,0,0,0,770.4,167a6.25,6.25,0,0,0-1.26,3.93v10h-2.8V170.52q0-5.16-4-5.16a3.7,3.7,0,0,0-3.05,1.54,6.46,6.46,0,0,0-1.19,4v10h-2.8v-17.5h2.8v2.77h.07a5.94,5.94,0,0,1,5.43-3.18,5,5,0,0,1,3.13,1,5,5,0,0,1,1.83,2.62,6.25,6.25,0,0,1,5.81-3.62q5.77,0,5.77,7.12Z" transform="translate(-22.64 -17.79)"/><path d="M798,180.91h-2.8v-2.74h-.07a5.88,5.88,0,0,1-5.39,3.15,5.73,5.73,0,0,1-4.09-1.39,4.8,4.8,0,0,1-1.48-3.67q0-4.9,5.78-5.71l5.25-.73c0-3-1.21-4.46-3.61-4.46a8.59,8.59,0,0,0-5.71,2.15v-2.87a10.79,10.79,0,0,1,6-1.64q6.16,0,6.17,6.53Zm-2.8-8.85-4.23.58a6.84,6.84,0,0,0-2.93,1,2.76,2.76,0,0,0-1,2.45,2.68,2.68,0,0,0,.92,2.1,3.53,3.53,0,0,0,2.43.81,4.53,4.53,0,0,0,3.45-1.46,5.26,5.26,0,0,0,1.36-3.7Z" transform="translate(-22.64 -17.79)"/><path d="M818.21,179.51q0,9.63-9.23,9.64a12.41,12.41,0,0,1-5.68-1.23v-2.81a11.58,11.58,0,0,0,5.64,1.64q6.46,0,6.46-6.87V178h-.07a7.08,7.08,0,0,1-11.27,1,9.39,9.39,0,0,1-2-6.27,10.89,10.89,0,0,1,2.15-7.09,7.17,7.17,0,0,1,5.87-2.63,5.68,5.68,0,0,1,5.24,2.83h.07v-2.42h2.81ZM815.4,173v-2.58a5,5,0,0,0-1.41-3.58,4.64,4.64,0,0,0-3.51-1.48,4.87,4.87,0,0,0-4.07,1.89,8.4,8.4,0,0,0-1.47,5.28,7.25,7.25,0,0,0,1.41,4.68,4.56,4.56,0,0,0,3.74,1.75,4.88,4.88,0,0,0,3.83-1.67A6.23,6.23,0,0,0,815.4,173Z" transform="translate(-22.64 -17.79)"/><path d="M838.41,180.91H835.6v-10c0-3.72-1.35-5.57-4.06-5.57a4.39,4.39,0,0,0-3.48,1.58,5.83,5.83,0,0,0-1.38,4v10h-2.8v-17.5h2.8v2.9h.07a6.31,6.31,0,0,1,5.74-3.31,5.35,5.35,0,0,1,4.39,1.85,8.25,8.25,0,0,1,1.53,5.36Z" transform="translate(-22.64 -17.79)"/><path d="M845.12,159a1.77,1.77,0,0,1-1.28-.51,1.86,1.86,0,0,1,0-2.6,1.75,1.75,0,0,1,1.28-.53,1.82,1.82,0,0,1,1.31.53,1.72,1.72,0,0,1,.54,1.3,1.74,1.74,0,0,1-.54,1.29A1.81,1.81,0,0,1,845.12,159Zm1.37,21.95h-2.8v-17.5h2.8Z" transform="translate(-22.64 -17.79)"/><path d="M860.28,180.74a5.45,5.45,0,0,1-2.61.54c-3.07,0-4.6-1.7-4.6-5.12V165.8h-3v-2.39h3v-4.27l2.8-.91v5.18h4.41v2.39h-4.41v9.86a4.08,4.08,0,0,0,.6,2.51,2.36,2.36,0,0,0,2,.76,2.93,2.93,0,0,0,1.83-.59Z" transform="translate(-22.64 -17.79)"/><path d="M878.17,180.91h-2.8v-2.77h-.07a5.75,5.75,0,0,1-5.4,3.18q-6.25,0-6.25-7.45V163.41h2.78v10c0,3.69,1.42,5.54,4.24,5.54a4.3,4.3,0,0,0,3.38-1.51,5.81,5.81,0,0,0,1.32-4V163.41h2.8Z" transform="translate(-22.64 -17.79)"/><path d="M898.77,180.91H896v-3h-.06a7.06,7.06,0,0,1-11.29,1,9.63,9.63,0,0,1-2-6.4,10.49,10.49,0,0,1,2.19-7,7.22,7.22,0,0,1,5.83-2.61,5.62,5.62,0,0,1,5.25,2.83H896V155h2.81ZM896,173v-2.58a5,5,0,0,0-1.4-3.59,4.69,4.69,0,0,0-3.55-1.47,4.81,4.81,0,0,0-4,1.88,8.21,8.21,0,0,0-1.47,5.19,7.42,7.42,0,0,0,1.41,4.78A4.6,4.6,0,0,0,890.7,179a4.77,4.77,0,0,0,3.8-1.69A6.27,6.27,0,0,0,896,173Z" transform="translate(-22.64 -17.79)"/><path d="M928.09,172.86H915.74a6.52,6.52,0,0,0,1.57,4.51,5.42,5.42,0,0,0,4.14,1.59,8.58,8.58,0,0,0,5.43-2v2.63a10.13,10.13,0,0,1-6.1,1.68,7.4,7.4,0,0,1-5.83-2.39,9.76,9.76,0,0,1-2.12-6.7,9.55,9.55,0,0,1,2.32-6.66A7.43,7.43,0,0,1,920.9,163a6.57,6.57,0,0,1,5.31,2.22,9.23,9.23,0,0,1,1.88,6.17Zm-2.87-2.38a5.68,5.68,0,0,0-1.17-3.77,4,4,0,0,0-3.2-1.35,4.52,4.52,0,0,0-3.37,1.42,6.46,6.46,0,0,0-1.71,3.7Z" transform="translate(-22.64 -17.79)"/><path d="M931.27,180.28v-3a8.29,8.29,0,0,0,5,1.69q3.69,0,3.69-2.46a2.15,2.15,0,0,0-.31-1.19,3.19,3.19,0,0,0-.86-.86,6.77,6.77,0,0,0-1.26-.68l-1.56-.62a21.46,21.46,0,0,1-2-.93,6.45,6.45,0,0,1-1.47-1.06,4,4,0,0,1-.89-1.34,5,5,0,0,1-.29-1.76,4.14,4.14,0,0,1,.56-2.18,5.17,5.17,0,0,1,1.5-1.59,7,7,0,0,1,2.15-1A9.75,9.75,0,0,1,938,163a10.08,10.08,0,0,1,4.07.78v2.84a8,8,0,0,0-4.44-1.26,5.15,5.15,0,0,0-1.42.18,3.53,3.53,0,0,0-1.09.5,2.47,2.47,0,0,0-.7.78,2.08,2.08,0,0,0-.24,1,2.46,2.46,0,0,0,.24,1.14,2.56,2.56,0,0,0,.73.82,5.51,5.51,0,0,0,1.16.65q.69.3,1.56.63c.77.3,1.47.61,2.08.92a7.26,7.26,0,0,1,1.58,1.06,4.17,4.17,0,0,1,1,1.36,4.42,4.42,0,0,1,.35,1.83,4.33,4.33,0,0,1-.58,2.25,4.84,4.84,0,0,1-1.53,1.59,6.94,6.94,0,0,1-2.2.94,10.63,10.63,0,0,1-2.62.31A10,10,0,0,1,931.27,180.28Z" transform="translate(-22.64 -17.79)"/><path d="M976.12,180.91h-3.18l-2.6-6.87H960l-2.44,6.87h-3.2l9.4-24.51h3Zm-6.72-9.45L965.55,161a10.4,10.4,0,0,1-.37-1.64h-.07a8.82,8.82,0,0,1-.39,1.64l-3.81,10.44Z" transform="translate(-22.64 -17.79)"/><path d="M979.72,180.91V156.4h7a7.61,7.61,0,0,1,5,1.56,5,5,0,0,1,1.86,4,6,6,0,0,1-1.13,3.62,6.1,6.1,0,0,1-3.11,2.19v.07a6.22,6.22,0,0,1,4,1.87,5.74,5.74,0,0,1,1.48,4.11,6.42,6.42,0,0,1-2.25,5.09,8.4,8.4,0,0,1-5.69,1.95ZM982.59,159v7.91h2.94a5.61,5.61,0,0,0,3.71-1.13,4,4,0,0,0,1.35-3.21c0-2.38-1.56-3.57-4.7-3.57Zm0,10.49v8.82h3.9a5.82,5.82,0,0,0,3.92-1.2,4.08,4.08,0,0,0,1.39-3.28q0-4.34-5.91-4.34Z" transform="translate(-22.64 -17.79)"/><path d="M998.35,180.28v-3a8.29,8.29,0,0,0,5,1.69q3.69,0,3.69-2.46a2.15,2.15,0,0,0-.31-1.19,3.19,3.19,0,0,0-.86-.86,6.77,6.77,0,0,0-1.26-.68l-1.57-.62a22.39,22.39,0,0,1-2-.93,6.45,6.45,0,0,1-1.47-1.06,4,4,0,0,1-.89-1.34,4.73,4.73,0,0,1-.3-1.76,4.15,4.15,0,0,1,.57-2.18,5.17,5.17,0,0,1,1.5-1.59,7,7,0,0,1,2.15-1,9.75,9.75,0,0,1,2.48-.32,10.08,10.08,0,0,1,4.07.78v2.84a8,8,0,0,0-4.44-1.26,5.15,5.15,0,0,0-1.42.18,3.53,3.53,0,0,0-1.09.5,2.47,2.47,0,0,0-.7.78,2.08,2.08,0,0,0-.24,1,2.46,2.46,0,0,0,.24,1.14,2.56,2.56,0,0,0,.73.82,5.51,5.51,0,0,0,1.16.65q.69.3,1.56.63c.77.3,1.47.61,2.08.92a7,7,0,0,1,1.57,1.06,3.9,3.9,0,0,1,1,1.36,4.27,4.27,0,0,1,.35,1.83,4.32,4.32,0,0,1-.57,2.25,4.84,4.84,0,0,1-1.53,1.59,6.94,6.94,0,0,1-2.2.94,10.68,10.68,0,0,1-2.62.31A10,10,0,0,1,998.35,180.28Z" transform="translate(-22.64 -17.79)"/><path d="M1028.33,172.86H1016a6.52,6.52,0,0,0,1.57,4.51,5.42,5.42,0,0,0,4.14,1.59,8.58,8.58,0,0,0,5.43-2v2.63a10.13,10.13,0,0,1-6.1,1.68,7.42,7.42,0,0,1-5.83-2.39,9.76,9.76,0,0,1-2.12-6.7,9.6,9.6,0,0,1,2.32-6.66,7.43,7.43,0,0,1,5.75-2.57,6.6,6.6,0,0,1,5.32,2.22,9.28,9.28,0,0,1,1.88,6.17Zm-2.87-2.38a5.74,5.74,0,0,0-1.18-3.77,4,4,0,0,0-3.2-1.35,4.53,4.53,0,0,0-3.37,1.42,6.46,6.46,0,0,0-1.71,3.7Z" transform="translate(-22.64 -17.79)"/><path d="M1047.09,180.91h-2.8v-10c0-3.72-1.36-5.57-4.07-5.57a4.4,4.4,0,0,0-3.48,1.58,5.83,5.83,0,0,0-1.37,4v10h-2.81v-17.5h2.81v2.9h.06a6.33,6.33,0,0,1,5.75-3.31,5.38,5.38,0,0,1,4.39,1.85,8.31,8.31,0,0,1,1.52,5.36Z" transform="translate(-22.64 -17.79)"/><path d="M1069.6,163l-2.87,3.07a10,10,0,0,1,1.67,5.92,9.55,9.55,0,0,1-2.37,6.82,9.31,9.31,0,0,1-11.78.77l-2.48,2.73-1.4-1.33,2.55-2.81a10.75,10.75,0,0,1,.68-12.69,8.69,8.69,0,0,1,6.53-2.48,8.26,8.26,0,0,1,5.26,1.67l2.77-3Zm-6,3.62a5.16,5.16,0,0,0-3.67-1.26,5.33,5.33,0,0,0-4.28,1.83,7.61,7.61,0,0,0-1.57,5.07,7.94,7.94,0,0,0,.86,3.83Zm1.2,1.61-8.68,9.43a5.51,5.51,0,0,0,3.78,1.3,5.16,5.16,0,0,0,4.24-1.78,7.66,7.66,0,0,0,1.46-5A8.78,8.78,0,0,0,1064.76,168.23Z" transform="translate(-22.64 -17.79)"/><path d="M1073.85,181.28a1.8,1.8,0,0,1-1.34-.56,1.87,1.87,0,0,1-.55-1.35,1.89,1.89,0,0,1,.55-1.36,1.81,1.81,0,0,1,1.34-.57,1.93,1.93,0,0,1,1.93,1.93,1.91,1.91,0,0,1-1.93,1.91Z" transform="translate(-22.64 -17.79)"/><line x1="625.52" y1="4.21" x2="607.29" y2="4.21"/><line x1="618.75" y1="4.21" x2="607.29" y2="4.21" style="fill:none;stroke:#000;stroke-linecap:round;stroke-linejoin:round;stroke-width:1.2px"/><path d="M648.16,22a37,37,0,0,1-9.59-4.21L640.5,22l-1.93,4.21A37,37,0,0,1,648.16,22Z" transform="translate(-22.64 -17.79)"/><line x1="573.98" y1="131.21" x2="555.74" y2="131.21"/><line x1="567.2" y1="131.21" x2="555.74" y2="131.21" style="fill:none;stroke:#000;stroke-linecap:round;stroke-linejoin:round;stroke-width:1.2px"/><path d="M596.62,149a37,37,0,0,1-9.59-4.21L589,149,587,153.21A37,37,0,0,1,596.62,149Z" transform="translate(-22.64 -17.79)"/><line x1="627.87" y1="131.21" x2="609.63" y2="131.21"/><line x1="621.09" y1="131.21" x2="609.63" y2="131.21" style="fill:none;stroke:#000;stroke-linecap:round;stroke-linejoin:round;stroke-width:1.2px"/><path d="M650.51,149a37.19,37.19,0,0,1-9.6-4.21l1.93,4.21-1.93,4.21A37.19,37.19,0,0,1,650.51,149Z" transform="translate(-22.64 -17.79)"/><line x1="682.52" y1="4.21" x2="664.29" y2="4.21"/><line x1="675.75" y1="4.21" x2="664.29" y2="4.21" style="fill:none;stroke:#000;stroke-linecap:round;stroke-linejoin:round;stroke-width:1.2px"/><path d="M705.16,22a37,37,0,0,1-9.59-4.21L697.5,22l-1.93,4.21A37,37,0,0,1,705.16,22Z" transform="translate(-22.64 -17.79)"/></svg>