<svg id="Capa_1" data-name="Capa 1" xmlns="http://www.w3.org/2000/svg" viewBox="0 0 357.63 408.53"><path d="M32,51.56a9.8,9.8,0,0,1-7.63-3.14,11.61,11.61,0,0,1-2.87-8.17,12.36,12.36,0,0,1,2.92-8.63,10.22,10.22,0,0,1,8-3.21,9.62,9.62,0,0,1,7.48,3.12,11.69,11.69,0,0,1,2.84,8.17q0,5.49-2.91,8.68A10,10,0,0,1,32,51.56Zm.19-20.78a7.22,7.22,0,0,0-5.74,2.55A9.86,9.86,0,0,0,24.22,40a9.88,9.88,0,0,0,2.15,6.66A7,7,0,0,0,32,49.2a7.36,7.36,0,0,0,5.81-2.4,9.84,9.84,0,0,0,2.13-6.74c0-3-.69-5.24-2.07-6.86A7.07,7.07,0,0,0,32.16,30.78Z" transform="translate(-20.22 -27.03)"/><path d="M54.14,51a5,5,0,0,1-2.39.5q-4.2,0-4.2-4.69V37.38H44.8V35.19h2.75V31.28l2.56-.83v4.74h4v2.19h-4v9a3.72,3.72,0,0,0,.55,2.3,2.16,2.16,0,0,0,1.81.69,2.67,2.67,0,0,0,1.67-.54Z" transform="translate(-20.22 -27.03)"/><path d="M65.91,37.78A3.18,3.18,0,0,0,64,37.27a3.26,3.26,0,0,0-2.74,1.54A7.12,7.12,0,0,0,60.12,43v8.16H57.56v-16h2.56v3.29h.07a5.56,5.56,0,0,1,1.67-2.63,3.81,3.81,0,0,1,2.52-.94,4.38,4.38,0,0,1,1.53.21Z" transform="translate(-20.22 -27.03)"/><path d="M80.14,51.19H77.58v-2.5h-.06a5.39,5.39,0,0,1-4.93,2.87,5.27,5.27,0,0,1-3.74-1.26,4.41,4.41,0,0,1-1.35-3.36q0-4.48,5.28-5.22l4.8-.67q0-4.08-3.3-4.08a7.83,7.83,0,0,0-5.22,2V36.31a10,10,0,0,1,5.44-1.5q5.64,0,5.64,6Zm-2.56-8.1-3.86.53a6.36,6.36,0,0,0-2.69.89,2.55,2.55,0,0,0-.91,2.24A2.42,2.42,0,0,0,71,48.66a3.22,3.22,0,0,0,2.23.75,4.13,4.13,0,0,0,3.15-1.34,4.81,4.81,0,0,0,1.24-3.38Z" transform="translate(-20.22 -27.03)"/><path d="M100.42,51.56a7.4,7.4,0,0,1-5.66-2.24,8.31,8.31,0,0,1-2.12-5.94,8.69,8.69,0,0,1,2.2-6.3,7.94,7.94,0,0,1,6-2.27A7.17,7.17,0,0,1,106.38,37a8.7,8.7,0,0,1,2,6.1,8.62,8.62,0,0,1-2.16,6.14A7.62,7.62,0,0,1,100.42,51.56ZM100.61,37a4.88,4.88,0,0,0-3.91,1.68,6.88,6.88,0,0,0-1.43,4.63,6.54,6.54,0,0,0,1.45,4.49,4.94,4.94,0,0,0,3.89,1.64,4.69,4.69,0,0,0,3.82-1.61,7,7,0,0,0,1.34-4.58,7.14,7.14,0,0,0-1.34-4.63A4.66,4.66,0,0,0,100.61,37Z" transform="translate(-20.22 -27.03)"/><path d="M115.11,48.88h-.06v9.67h-2.57V35.19h2.57V38h.06a6.07,6.07,0,0,1,5.53-3.19A5.88,5.88,0,0,1,125.47,37a8.93,8.93,0,0,1,1.73,5.76,9.92,9.92,0,0,1-2,6.43,6.49,6.49,0,0,1-5.34,2.41A5.34,5.34,0,0,1,115.11,48.88Zm-.06-6.46v2.24A4.74,4.74,0,0,0,116.34,48a4.58,4.58,0,0,0,6.92-.4,8.14,8.14,0,0,0,1.32-4.95,6.44,6.44,0,0,0-1.24-4.19A4.07,4.07,0,0,0,120,37a4.54,4.54,0,0,0-3.59,1.55A5.71,5.71,0,0,0,115.05,42.42Z" transform="translate(-20.22 -27.03)"/><path d="M144.16,43.83h-11.3A6,6,0,0,0,134.3,48a4.93,4.93,0,0,0,3.78,1.46,7.86,7.86,0,0,0,5-1.79V50a9.31,9.31,0,0,1-5.58,1.53,6.74,6.74,0,0,1-5.33-2.18,8.91,8.91,0,0,1-1.94-6.13,8.77,8.77,0,0,1,2.12-6.09,6.81,6.81,0,0,1,5.26-2.35,6,6,0,0,1,4.86,2,8.52,8.52,0,0,1,1.72,5.64Zm-2.63-2.17a5.26,5.26,0,0,0-1.07-3.46A3.65,3.65,0,0,0,137.53,37a4.13,4.13,0,0,0-3.08,1.3,5.89,5.89,0,0,0-1.56,3.39Z" transform="translate(-20.22 -27.03)"/><path d="M156.38,37.78a3.18,3.18,0,0,0-1.94-.51,3.25,3.25,0,0,0-2.74,1.54A7.12,7.12,0,0,0,150.59,43v8.16H148v-16h2.56v3.29h.07a5.56,5.56,0,0,1,1.67-2.63,3.81,3.81,0,0,1,2.51-.94,4.41,4.41,0,0,1,1.54.21Z" transform="translate(-20.22 -27.03)"/><path d="M170.61,51.19h-2.56v-2.5H168a5.36,5.36,0,0,1-4.92,2.87,5.27,5.27,0,0,1-3.74-1.26A4.41,4.41,0,0,1,158,46.94q0-4.48,5.28-5.22l4.8-.67q0-4.08-3.3-4.08a7.83,7.83,0,0,0-5.22,2V36.31a9.92,9.92,0,0,1,5.44-1.5q5.64,0,5.64,6Zm-2.56-8.1-3.86.53a6.31,6.31,0,0,0-2.69.89,2.55,2.55,0,0,0-.91,2.24,2.42,2.42,0,0,0,.84,1.91,3.22,3.22,0,0,0,2.23.75,4.09,4.09,0,0,0,3.14-1.34,4.77,4.77,0,0,0,1.25-3.38Z" transform="translate(-20.22 -27.03)"/><path d="M186.34,50.45A8.3,8.3,0,0,1,182,51.56a7.25,7.25,0,0,1-5.52-2.22,8.05,8.05,0,0,1-2.11-5.78,8.88,8.88,0,0,1,2.27-6.35,7.93,7.93,0,0,1,6-2.4,8.47,8.47,0,0,1,3.72.78v2.63A6.55,6.55,0,0,0,182.56,37a5.13,5.13,0,0,0-4,1.76A6.64,6.64,0,0,0,177,43.34a6.32,6.32,0,0,0,1.48,4.44,5.09,5.09,0,0,0,4,1.63A6.46,6.46,0,0,0,186.34,48Z" transform="translate(-20.22 -27.03)"/><path d="M191.53,31.12a1.66,1.66,0,1,1,0-3.32,1.69,1.69,0,0,1,1.2.47,1.64,1.64,0,0,1,.49,1.2,1.6,1.6,0,0,1-.49,1.17A1.66,1.66,0,0,1,191.53,31.12Zm1.25,20.07h-2.56v-16h2.56Z" transform="translate(-20.22 -27.03)"/><path d="M204.66,51.56A7.4,7.4,0,0,1,199,49.32a8.3,8.3,0,0,1-2.11-5.94,8.65,8.65,0,0,1,2.2-6.3A7.92,7.92,0,0,1,205,34.81,7.18,7.18,0,0,1,210.62,37a8.69,8.69,0,0,1,2,6.1,8.62,8.62,0,0,1-2.16,6.14A7.6,7.6,0,0,1,204.66,51.56ZM204.84,37a4.87,4.87,0,0,0-3.9,1.68,6.88,6.88,0,0,0-1.44,4.63A6.54,6.54,0,0,0,201,47.77a5,5,0,0,0,3.89,1.64,4.69,4.69,0,0,0,3.82-1.61A7,7,0,0,0,210,43.22a7.14,7.14,0,0,0-1.34-4.63A4.66,4.66,0,0,0,204.84,37ZM208.59,27l-4.09,5.13h-2L206,27Z" transform="translate(-20.22 -27.03)"/><path d="M230,51.19h-2.56V42.06q0-5.09-3.72-5.09a4,4,0,0,0-3.18,1.44,5.36,5.36,0,0,0-1.26,3.65v9.13h-2.56v-16h2.56v2.65h.06a5.78,5.78,0,0,1,5.25-3,4.91,4.91,0,0,1,4,1.7,7.53,7.53,0,0,1,1.39,4.9Z" transform="translate(-20.22 -27.03)"/><path d="M256.88,51.19h-2.57V42q0-5-3.72-5a4,4,0,0,0-3.15,1.44,5.37,5.37,0,0,0-1.28,3.71v9.07h-2.57V27.5h2.57V37.84h.06a5.82,5.82,0,0,1,5.25-3c3.6,0,5.41,2.17,5.41,6.52Z" transform="translate(-20.22 -27.03)"/><path d="M273.16,51.19h-2.57v-2.5h-.06a5.36,5.36,0,0,1-4.92,2.87,5.27,5.27,0,0,1-3.74-1.26,4.41,4.41,0,0,1-1.35-3.36q0-4.48,5.28-5.22l4.79-.67q0-4.08-3.29-4.08a7.83,7.83,0,0,0-5.22,2V36.31a9.9,9.9,0,0,1,5.44-1.5q5.64,0,5.64,6Zm-2.57-8.1-3.86.53a6.31,6.31,0,0,0-2.68.89,2.53,2.53,0,0,0-.91,2.24,2.42,2.42,0,0,0,.84,1.91,3.19,3.19,0,0,0,2.22.75,4.13,4.13,0,0,0,3.15-1.34,4.76,4.76,0,0,0,1.24-3.38Z" transform="translate(-20.22 -27.03)"/><path d="M280.61,48.88h-.06v2.31H278V27.5h2.57V38h.06a6.07,6.07,0,0,1,5.53-3.19A5.87,5.87,0,0,1,291,37a8.87,8.87,0,0,1,1.74,5.76,9.92,9.92,0,0,1-1.95,6.43,6.49,6.49,0,0,1-5.34,2.41A5.25,5.25,0,0,1,280.61,48.88Zm-.06-6.46v2.24A4.74,4.74,0,0,0,281.84,48a4.58,4.58,0,0,0,6.92-.4,8.14,8.14,0,0,0,1.32-4.95,6.44,6.44,0,0,0-1.24-4.19A4.07,4.07,0,0,0,285.5,37a4.54,4.54,0,0,0-3.59,1.55A5.71,5.71,0,0,0,280.55,42.42Z" transform="translate(-20.22 -27.03)"/><path d="M298.11,31.12a1.61,1.61,0,0,1-1.17-.46,1.58,1.58,0,0,1-.49-1.19,1.6,1.6,0,0,1,.49-1.2,1.62,1.62,0,0,1,1.17-.47,1.65,1.65,0,0,1,1.19.47,1.61,1.61,0,0,1,.5,1.2,1.57,1.57,0,0,1-.5,1.17A1.62,1.62,0,0,1,298.11,31.12Zm1.25,20.07H296.8v-16h2.56Z" transform="translate(-20.22 -27.03)"/><path d="M312,51a5,5,0,0,1-2.39.5q-4.2,0-4.2-4.69V37.38h-2.76V35.19h2.76V31.28l2.56-.83v4.74h4v2.19h-4v9a3.79,3.79,0,0,0,.54,2.3,2.19,2.19,0,0,0,1.82.69,2.67,2.67,0,0,0,1.67-.54Z" transform="translate(-20.22 -27.03)"/><path d="M328.33,51.19h-2.56V48.66h-.07a5.27,5.27,0,0,1-4.93,2.9q-5.73,0-5.72-6.81V35.19h2.54v9.15q0,5.07,3.88,5.07A3.88,3.88,0,0,0,324.55,48a5.26,5.26,0,0,0,1.22-3.61V35.19h2.56Z" transform="translate(-20.22 -27.03)"/><path d="M345,51.19h-2.56v-2.5h-.06a5.38,5.38,0,0,1-4.92,2.87,5.28,5.28,0,0,1-3.75-1.26,4.41,4.41,0,0,1-1.35-3.36q0-4.48,5.28-5.22l4.8-.67q0-4.08-3.3-4.08a7.83,7.83,0,0,0-5.21,2V36.31a9.89,9.89,0,0,1,5.43-1.5q5.64,0,5.64,6Zm-2.56-8.1-3.86.53a6.36,6.36,0,0,0-2.69.89,2.55,2.55,0,0,0-.9,2.24,2.45,2.45,0,0,0,.83,1.91,3.22,3.22,0,0,0,2.23.75,4.13,4.13,0,0,0,3.15-1.34,4.76,4.76,0,0,0,1.24-3.38Z" transform="translate(-20.22 -27.03)"/><path d="M352.34,51.19h-2.56V27.5h2.56Z" transform="translate(-20.22 -27.03)"/><path d="M35.45,82.23H24.16a6,6,0,0,0,1.43,4.12,5,5,0,0,0,3.79,1.46,7.84,7.84,0,0,0,5-1.79v2.41A9.26,9.26,0,0,1,28.77,90a6.73,6.73,0,0,1-5.33-2.18,8.91,8.91,0,0,1-1.94-6.13,8.77,8.77,0,0,1,2.12-6.09,6.81,6.81,0,0,1,5.26-2.35,6,6,0,0,1,4.85,2,8.47,8.47,0,0,1,1.72,5.64Zm-2.62-2.17a5.26,5.26,0,0,0-1.07-3.46,3.66,3.66,0,0,0-2.93-1.23,4.12,4.12,0,0,0-3.08,1.3,5.89,5.89,0,0,0-1.56,3.39Z" transform="translate(-20.22 -27.03)"/><path d="M52.61,89.59H50.05V80.46q0-5.08-3.72-5.09a4,4,0,0,0-3.18,1.44,5.36,5.36,0,0,0-1.26,3.65v9.13H39.33v-16h2.56v2.65H42a5.78,5.78,0,0,1,5.25-3,4.91,4.91,0,0,1,4,1.7,7.53,7.53,0,0,1,1.39,4.9Z" transform="translate(-20.22 -27.03)"/><path d="M79.06,82.23H67.77a6,6,0,0,0,1.43,4.12A5,5,0,0,0,73,87.81,7.84,7.84,0,0,0,78,86v2.41A9.26,9.26,0,0,1,72.38,90a6.73,6.73,0,0,1-5.33-2.18,8.86,8.86,0,0,1-1.94-6.13,8.72,8.72,0,0,1,2.12-6.09,6.8,6.8,0,0,1,5.25-2.35,6,6,0,0,1,4.86,2,8.47,8.47,0,0,1,1.72,5.64Zm-2.62-2.17a5.26,5.26,0,0,0-1.07-3.46,3.66,3.66,0,0,0-2.93-1.23,4.12,4.12,0,0,0-3.08,1.3,5.83,5.83,0,0,0-1.56,3.39Z" transform="translate(-20.22 -27.03)"/><path d="M85.5,89.59H82.94V65.9H85.5Z" transform="translate(-20.22 -27.03)"/><path d="M102.08,87.27H102V97H99.45V73.59H102V76.4h.06a6,6,0,0,1,5.53-3.19,5.88,5.88,0,0,1,4.83,2.15,8.93,8.93,0,0,1,1.73,5.76,9.92,9.92,0,0,1-2,6.43A6.49,6.49,0,0,1,106.88,90,5.33,5.33,0,0,1,102.08,87.27ZM102,80.82v2.24a4.78,4.78,0,0,0,1.28,3.36,4.59,4.59,0,0,0,6.93-.4,8.14,8.14,0,0,0,1.32-5,6.44,6.44,0,0,0-1.24-4.19A4.07,4.07,0,0,0,107,75.37a4.54,4.54,0,0,0-3.59,1.55A5.71,5.71,0,0,0,102,80.82Z" transform="translate(-20.22 -27.03)"/><path d="M126.61,76.18a3.16,3.16,0,0,0-1.94-.51,3.26,3.26,0,0,0-2.74,1.54,7.19,7.19,0,0,0-1.1,4.22v8.16h-2.56v-16h2.56v3.29h.06a5.56,5.56,0,0,1,1.67-2.63,3.81,3.81,0,0,1,2.52-.94,4.38,4.38,0,0,1,1.53.21Z" transform="translate(-20.22 -27.03)"/><path d="M136.08,90a7.42,7.42,0,0,1-5.67-2.24,8.31,8.31,0,0,1-2.11-6,8.64,8.64,0,0,1,2.2-6.29,7.92,7.92,0,0,1,5.95-2.27A7.18,7.18,0,0,1,142,75.42a8.7,8.7,0,0,1,2,6.1,8.58,8.58,0,0,1-2.17,6.14A7.6,7.6,0,0,1,136.08,90Zm.19-14.59a4.88,4.88,0,0,0-3.91,1.68,6.88,6.88,0,0,0-1.44,4.63,6.54,6.54,0,0,0,1.46,4.49,4.93,4.93,0,0,0,3.89,1.64,4.7,4.7,0,0,0,3.82-1.61,7,7,0,0,0,1.33-4.58A7.13,7.13,0,0,0,140.09,77,4.68,4.68,0,0,0,136.27,75.37Z" transform="translate(-20.22 -27.03)"/><path d="M161.8,89.59h-2.57V86.87h-.06a6.46,6.46,0,0,1-10.32.94,8.82,8.82,0,0,1-1.8-5.85,9.58,9.58,0,0,1,2-6.36,6.6,6.6,0,0,1,5.33-2.39,5.13,5.13,0,0,1,4.79,2.6h.06V65.9h2.57Zm-2.57-7.24V80A4.56,4.56,0,0,0,158,76.71a4.3,4.3,0,0,0-3.25-1.34A4.4,4.4,0,0,0,151,77.09a7.5,7.5,0,0,0-1.35,4.75A6.74,6.74,0,0,0,151,86.2a4.21,4.21,0,0,0,3.46,1.61,4.39,4.39,0,0,0,3.48-1.55A5.76,5.76,0,0,0,159.23,82.35Z" transform="translate(-20.22 -27.03)"/><path d="M179.92,89.59h-2.56V87.06h-.06a5.28,5.28,0,0,1-4.94,2.9q-5.72,0-5.72-6.81V73.59h2.55v9.15q0,5.07,3.87,5.07a3.91,3.91,0,0,0,3.09-1.39,5.25,5.25,0,0,0,1.21-3.61V73.59h2.56Z" transform="translate(-20.22 -27.03)"/><path d="M196,88.85A8.34,8.34,0,0,1,191.62,90a7.25,7.25,0,0,1-5.52-2.22A8.09,8.09,0,0,1,184,82a8.84,8.84,0,0,1,2.27-6.35,7.91,7.91,0,0,1,6-2.4A8.41,8.41,0,0,1,196,74v2.63a6.55,6.55,0,0,0-3.81-1.25,5.1,5.1,0,0,0-4,1.76,6.65,6.65,0,0,0-1.58,4.61,6.37,6.37,0,0,0,1.48,4.44,5.12,5.12,0,0,0,4,1.63A6.47,6.47,0,0,0,196,86.42Z" transform="translate(-20.22 -27.03)"/><path d="M207.3,89.43a5,5,0,0,1-2.39.5q-4.22,0-4.21-4.69V75.77H198V73.59h2.75V69.68l2.57-.83v4.74h4v2.18h-4v9a3.79,3.79,0,0,0,.54,2.3,2.18,2.18,0,0,0,1.81.68,2.68,2.68,0,0,0,1.68-.53Z" transform="translate(-20.22 -27.03)"/><path d="M217.41,90a7.4,7.4,0,0,1-5.67-2.24,8.31,8.31,0,0,1-2.12-6,8.64,8.64,0,0,1,2.21-6.29,7.92,7.92,0,0,1,5.95-2.27,7.18,7.18,0,0,1,5.59,2.21,8.7,8.7,0,0,1,2,6.1,8.62,8.62,0,0,1-2.17,6.14A7.6,7.6,0,0,1,217.41,90Zm.18-14.59a4.87,4.87,0,0,0-3.9,1.68,6.88,6.88,0,0,0-1.44,4.63,6.54,6.54,0,0,0,1.45,4.49,5,5,0,0,0,3.89,1.64,4.69,4.69,0,0,0,3.82-1.61,7,7,0,0,0,1.34-4.58A7.14,7.14,0,0,0,221.41,77,4.66,4.66,0,0,0,217.59,75.37Z" transform="translate(-20.22 -27.03)"/><path d="M251.09,82.23H239.8a6,6,0,0,0,1.43,4.12A5,5,0,0,0,245,87.81,7.84,7.84,0,0,0,250,86v2.41A9.26,9.26,0,0,1,244.41,90a6.74,6.74,0,0,1-5.33-2.18,8.91,8.91,0,0,1-1.94-6.13,8.77,8.77,0,0,1,2.12-6.09,6.81,6.81,0,0,1,5.26-2.35,6,6,0,0,1,4.86,2,8.52,8.52,0,0,1,1.71,5.64Zm-2.62-2.17a5.26,5.26,0,0,0-1.07-3.46,3.65,3.65,0,0,0-2.93-1.23,4.12,4.12,0,0,0-3.08,1.3,5.89,5.89,0,0,0-1.56,3.39Z" transform="translate(-20.22 -27.03)"/><path d="M254,89V86.26a7.6,7.6,0,0,0,4.61,1.55c2.25,0,3.37-.75,3.37-2.25a2,2,0,0,0-.28-1.09,3,3,0,0,0-.79-.79,6.18,6.18,0,0,0-1.15-.62l-1.43-.57a17.66,17.66,0,0,1-1.87-.85,5.38,5.38,0,0,1-1.34-1,3.7,3.7,0,0,1-.82-1.22,4.42,4.42,0,0,1-.27-1.61,3.74,3.74,0,0,1,.52-2,4.54,4.54,0,0,1,1.37-1.46,6.48,6.48,0,0,1,2-.88,8.7,8.7,0,0,1,2.28-.3,9.21,9.21,0,0,1,3.72.72v2.59a7.28,7.28,0,0,0-4.07-1.15,4.65,4.65,0,0,0-1.29.16,3.42,3.42,0,0,0-1,.46,2.26,2.26,0,0,0-.64.71,1.92,1.92,0,0,0-.22.92,2,2,0,0,0,.89,1.8,5.48,5.48,0,0,0,1.06.59l1.42.58c.71.27,1.35.55,1.91.83a6.83,6.83,0,0,1,1.44,1,3.9,3.9,0,0,1,.91,1.24,4.09,4.09,0,0,1,.32,1.68,4,4,0,0,1-.52,2.06,4.51,4.51,0,0,1-1.4,1.45,6.45,6.45,0,0,1-2,.86,9.84,9.84,0,0,1-2.39.28A9.13,9.13,0,0,1,254,89Z" transform="translate(-20.22 -27.03)"/><path d="M279.45,88.85A8.3,8.3,0,0,1,275.08,90a7.28,7.28,0,0,1-5.53-2.22,8.09,8.09,0,0,1-2.1-5.78,8.88,8.88,0,0,1,2.27-6.35,7.92,7.92,0,0,1,6-2.4,8.4,8.4,0,0,1,3.71.78v2.63a6.5,6.5,0,0,0-3.81-1.25,5.13,5.13,0,0,0-4,1.76,6.64,6.64,0,0,0-1.57,4.61,6.36,6.36,0,0,0,1.47,4.44,5.13,5.13,0,0,0,4,1.63,6.46,6.46,0,0,0,3.93-1.39Z" transform="translate(-20.22 -27.03)"/><path d="M294.78,89.59h-2.56v-2.5h-.06A5.39,5.39,0,0,1,287.23,90a5.27,5.27,0,0,1-3.74-1.26,4.41,4.41,0,0,1-1.35-3.36q0-4.49,5.28-5.22l4.8-.67q0-4.08-3.3-4.08a7.83,7.83,0,0,0-5.22,2V74.71a10,10,0,0,1,5.44-1.5q5.64,0,5.64,6Zm-2.56-8.1-3.86.53a6.36,6.36,0,0,0-2.69.89,2.55,2.55,0,0,0-.9,2.24,2.42,2.42,0,0,0,.83,1.91,3.22,3.22,0,0,0,2.23.75A4.13,4.13,0,0,0,291,86.47a4.81,4.81,0,0,0,1.24-3.38Z" transform="translate(-20.22 -27.03)"/><path d="M302.17,89.59h-2.56V65.9h2.56Z" transform="translate(-20.22 -27.03)"/><path d="M318.81,89.59h-2.56v-2.5h-.06A5.38,5.38,0,0,1,311.27,90a5.28,5.28,0,0,1-3.75-1.26,4.41,4.41,0,0,1-1.35-3.36q0-4.49,5.28-5.22l4.8-.67q0-4.08-3.3-4.08a7.87,7.87,0,0,0-5.22,2V74.71a10,10,0,0,1,5.44-1.5q5.64,0,5.64,6Zm-2.56-8.1-3.86.53a6.36,6.36,0,0,0-2.69.89,2.55,2.55,0,0,0-.9,2.24,2.45,2.45,0,0,0,.83,1.91,3.22,3.22,0,0,0,2.23.75A4.13,4.13,0,0,0,315,86.47a4.76,4.76,0,0,0,1.24-3.38Z" transform="translate(-20.22 -27.03)"/><path d="M332,76.18a3.13,3.13,0,0,0-1.93-.51,3.28,3.28,0,0,0-2.75,1.54,7.19,7.19,0,0,0-1.1,4.22v8.16h-2.56v-16h2.56v3.29h.07a5.56,5.56,0,0,1,1.67-2.63,3.81,3.81,0,0,1,2.51-.94,4.31,4.31,0,0,1,1.53.21Z" transform="translate(-20.22 -27.03)"/><path d="M337.11,86l-2.5,7.69h-1.83L334.61,86Z" transform="translate(-20.22 -27.03)"/><path d="M35.45,120.63H24.16a6,6,0,0,0,1.43,4.12,5,5,0,0,0,3.79,1.46,7.84,7.84,0,0,0,5-1.79v2.41a9.26,9.26,0,0,1-5.57,1.53,6.73,6.73,0,0,1-5.33-2.18,8.91,8.91,0,0,1-1.94-6.13A8.77,8.77,0,0,1,23.62,114a6.81,6.81,0,0,1,5.26-2.35,6,6,0,0,1,4.85,2,8.47,8.47,0,0,1,1.72,5.64Zm-2.62-2.17A5.26,5.26,0,0,0,31.76,115a3.66,3.66,0,0,0-2.93-1.23,4.12,4.12,0,0,0-3.08,1.3,5.89,5.89,0,0,0-1.56,3.39Z" transform="translate(-20.22 -27.03)"/><path d="M38.36,127.41v-2.75A7.58,7.58,0,0,0,43,126.21c2.25,0,3.37-.75,3.37-2.25a1.91,1.91,0,0,0-.29-1.09,2.79,2.79,0,0,0-.78-.79,6.18,6.18,0,0,0-1.15-.62l-1.43-.57a17.66,17.66,0,0,1-1.87-.85,5.38,5.38,0,0,1-1.34-1,3.7,3.7,0,0,1-.82-1.22,4.42,4.42,0,0,1-.27-1.61,3.74,3.74,0,0,1,.52-2,4.54,4.54,0,0,1,1.37-1.46,6.48,6.48,0,0,1,2-.88,8.64,8.64,0,0,1,2.28-.3,9.13,9.13,0,0,1,3.71.72v2.59a7.23,7.23,0,0,0-4.06-1.15,4.65,4.65,0,0,0-1.29.16,3.42,3.42,0,0,0-1,.46,2.26,2.26,0,0,0-.64.71A1.92,1.92,0,0,0,41,116a2,2,0,0,0,.89,1.8,5.48,5.48,0,0,0,1.06.59l1.42.58c.71.27,1.34.55,1.91.83a6.51,6.51,0,0,1,1.43,1,3.93,3.93,0,0,1,.92,1.24,4.09,4.09,0,0,1,.32,1.68,4,4,0,0,1-.52,2.06,4.51,4.51,0,0,1-1.4,1.45,6.45,6.45,0,0,1-2,.86,9.84,9.84,0,0,1-2.39.28A9.13,9.13,0,0,1,38.36,127.41Z" transform="translate(-20.22 -27.03)"/><path d="M60.33,127.83a5,5,0,0,1-2.39.5c-2.8,0-4.21-1.56-4.21-4.69v-9.47H51V112h2.75v-3.91l2.57-.83V112h4v2.18h-4v9a3.79,3.79,0,0,0,.54,2.3,2.19,2.19,0,0,0,1.82.68,2.67,2.67,0,0,0,1.67-.53Z" transform="translate(-20.22 -27.03)"/><path d="M76.61,120.63H65.31a6,6,0,0,0,1.44,4.12,5,5,0,0,0,3.78,1.46,7.86,7.86,0,0,0,5-1.79v2.41a9.31,9.31,0,0,1-5.58,1.53,6.76,6.76,0,0,1-5.33-2.18,8.91,8.91,0,0,1-1.93-6.13A8.77,8.77,0,0,1,64.77,114,6.82,6.82,0,0,1,70,111.61a6,6,0,0,1,4.86,2,8.47,8.47,0,0,1,1.72,5.64ZM74,118.46A5.21,5.21,0,0,0,72.91,115,3.65,3.65,0,0,0,70,113.77a4.11,4.11,0,0,0-3.07,1.3,5.84,5.84,0,0,0-1.57,3.39Z" transform="translate(-20.22 -27.03)"/><path d="M88.28,127.41v-2.75a7.6,7.6,0,0,0,4.61,1.55c2.25,0,3.38-.75,3.38-2.25a2,2,0,0,0-.29-1.09,3.08,3.08,0,0,0-.78-.79,6.62,6.62,0,0,0-1.16-.62l-1.43-.57a17.66,17.66,0,0,1-1.87-.85,5.57,5.57,0,0,1-1.34-1,3.52,3.52,0,0,1-.81-1.22,4.21,4.21,0,0,1-.28-1.61,3.74,3.74,0,0,1,.52-2,4.54,4.54,0,0,1,1.37-1.46,6.6,6.6,0,0,1,2-.88,8.7,8.7,0,0,1,2.28-.3,9.21,9.21,0,0,1,3.72.72v2.59a7.28,7.28,0,0,0-4.07-1.15,4.65,4.65,0,0,0-1.29.16,3.42,3.42,0,0,0-1,.46,2.26,2.26,0,0,0-.64.71,1.92,1.92,0,0,0-.22.92,2.23,2.23,0,0,0,.22,1,2.36,2.36,0,0,0,.67.75,5.48,5.48,0,0,0,1.06.59l1.42.58c.71.27,1.35.55,1.91.83a6.83,6.83,0,0,1,1.44,1,3.9,3.9,0,0,1,.91,1.24,4.09,4.09,0,0,1,.32,1.68,3.92,3.92,0,0,1-.52,2.06,4.51,4.51,0,0,1-1.4,1.45,6.35,6.35,0,0,1-2,.86,9.78,9.78,0,0,1-2.39.28A9.16,9.16,0,0,1,88.28,127.41Z" transform="translate(-20.22 -27.03)"/><path d="M115.69,120.63h-11.3a6,6,0,0,0,1.44,4.12,4.93,4.93,0,0,0,3.78,1.46,7.86,7.86,0,0,0,5-1.79v2.41a9.31,9.31,0,0,1-5.58,1.53,6.74,6.74,0,0,1-5.33-2.18,8.91,8.91,0,0,1-1.94-6.13,8.77,8.77,0,0,1,2.12-6.09,6.82,6.82,0,0,1,5.26-2.35,6,6,0,0,1,4.86,2,8.52,8.52,0,0,1,1.72,5.64Zm-2.63-2.17A5.21,5.21,0,0,0,112,115a3.65,3.65,0,0,0-2.93-1.23,4.13,4.13,0,0,0-3.08,1.3,5.89,5.89,0,0,0-1.56,3.39Z" transform="translate(-20.22 -27.03)"/><path d="M136.67,114.58a3.16,3.16,0,0,0-1.94-.51,3.27,3.27,0,0,0-2.74,1.54,7.19,7.19,0,0,0-1.1,4.22V128h-2.56V112h2.56v3.29H131a5.72,5.72,0,0,1,1.67-2.63,3.83,3.83,0,0,1,2.52-.94,4.31,4.31,0,0,1,1.53.21Z" transform="translate(-20.22 -27.03)"/><path d="M152.31,120.63H141a6,6,0,0,0,1.43,4.12,5,5,0,0,0,3.78,1.46,7.84,7.84,0,0,0,5-1.79v2.41a9.27,9.27,0,0,1-5.58,1.53,6.72,6.72,0,0,1-5.32-2.18,8.86,8.86,0,0,1-1.94-6.13,8.72,8.72,0,0,1,2.12-6.09,6.8,6.8,0,0,1,5.25-2.35,6,6,0,0,1,4.86,2,8.47,8.47,0,0,1,1.72,5.64Zm-2.62-2.17a5.26,5.26,0,0,0-1.07-3.46,3.66,3.66,0,0,0-2.93-1.23,4.12,4.12,0,0,0-3.08,1.3,5.83,5.83,0,0,0-1.56,3.39Z" transform="translate(-20.22 -27.03)"/><path d="M167.64,128h-2.56v-2.5H165a5.39,5.39,0,0,1-4.93,2.87,5.27,5.27,0,0,1-3.74-1.26,4.41,4.41,0,0,1-1.35-3.36q0-4.48,5.28-5.22l4.8-.67q0-4.08-3.3-4.08a7.83,7.83,0,0,0-5.22,2v-2.63a10,10,0,0,1,5.44-1.5q5.64,0,5.64,6Zm-2.56-8.1-3.86.53a6.36,6.36,0,0,0-2.69.89,2.55,2.55,0,0,0-.91,2.24,2.42,2.42,0,0,0,.84,1.91,3.22,3.22,0,0,0,2.23.75,4.13,4.13,0,0,0,3.15-1.34,4.81,4.81,0,0,0,1.24-3.38Z" transform="translate(-20.22 -27.03)"/><path d="M175,128h-2.56V104.3H175Z" transform="translate(-20.22 -27.03)"/><path d="M181.53,107.92a1.66,1.66,0,1,1,0-3.32,1.69,1.69,0,0,1,1.2.47,1.64,1.64,0,0,1,.49,1.2,1.6,1.6,0,0,1-.49,1.17A1.66,1.66,0,0,1,181.53,107.92ZM182.78,128h-2.56V112h2.56Z" transform="translate(-20.22 -27.03)"/><path d="M199.12,112.72l-9.46,13.08H199V128H185.89v-.8l9.47-13h-8.58V112h12.34Z" transform="translate(-20.22 -27.03)"/><path d="M213.89,128h-2.56v-2.5h-.06a5.39,5.39,0,0,1-4.93,2.87,5.27,5.27,0,0,1-3.74-1.26,4.41,4.41,0,0,1-1.35-3.36q0-4.48,5.28-5.22l4.8-.67q0-4.08-3.3-4.08a7.83,7.83,0,0,0-5.22,2v-2.63a9.92,9.92,0,0,1,5.44-1.5q5.64,0,5.64,6Zm-2.56-8.1-3.86.53a6.31,6.31,0,0,0-2.69.89,2.55,2.55,0,0,0-.9,2.24,2.42,2.42,0,0,0,.83,1.91,3.22,3.22,0,0,0,2.23.75,4.13,4.13,0,0,0,3.15-1.34,4.81,4.81,0,0,0,1.24-3.38Z" transform="translate(-20.22 -27.03)"/><path d="M240.34,120.63H229.05a6,6,0,0,0,1.43,4.12,5,5,0,0,0,3.79,1.46,7.84,7.84,0,0,0,5-1.79v2.41a9.26,9.26,0,0,1-5.57,1.53,6.74,6.74,0,0,1-5.33-2.18,8.91,8.91,0,0,1-1.94-6.13,8.77,8.77,0,0,1,2.12-6.09,6.81,6.81,0,0,1,5.26-2.35,6,6,0,0,1,4.85,2,8.47,8.47,0,0,1,1.72,5.64Zm-2.62-2.17a5.26,5.26,0,0,0-1.07-3.46,3.65,3.65,0,0,0-2.93-1.23,4.12,4.12,0,0,0-3.08,1.3,5.89,5.89,0,0,0-1.56,3.39Z" transform="translate(-20.22 -27.03)"/><path d="M257.5,128h-2.56v-9.13q0-5.08-3.72-5.09a4,4,0,0,0-3.18,1.44,5.36,5.36,0,0,0-1.26,3.65V128h-2.56V112h2.56v2.65h.06a5.78,5.78,0,0,1,5.25-3,4.91,4.91,0,0,1,4,1.7,7.53,7.53,0,0,1,1.39,4.9Z" transform="translate(-20.22 -27.03)"/><path d="M269.75,127.83a5,5,0,0,1-2.39.5q-4.2,0-4.2-4.69v-9.47h-2.75V112h2.75v-3.91l2.56-.83V112h4v2.18h-4v9a3.72,3.72,0,0,0,.55,2.3,2.16,2.16,0,0,0,1.81.68,2.67,2.67,0,0,0,1.67-.53Z" transform="translate(-20.22 -27.03)"/><path d="M281.52,114.58a3.18,3.18,0,0,0-1.94-.51,3.25,3.25,0,0,0-2.74,1.54,7.12,7.12,0,0,0-1.11,4.22V128h-2.56V112h2.56v3.29h.07a5.56,5.56,0,0,1,1.67-2.63,3.81,3.81,0,0,1,2.51-.94,4.41,4.41,0,0,1,1.54.21Z" transform="translate(-20.22 -27.03)"/><path d="M297.16,120.63h-11.3a6,6,0,0,0,1.44,4.12,4.93,4.93,0,0,0,3.78,1.46,7.86,7.86,0,0,0,5-1.79v2.41a9.31,9.31,0,0,1-5.58,1.53,6.74,6.74,0,0,1-5.33-2.18,8.91,8.91,0,0,1-1.94-6.13,8.77,8.77,0,0,1,2.12-6.09,6.81,6.81,0,0,1,5.26-2.35,6,6,0,0,1,4.86,2,8.52,8.52,0,0,1,1.72,5.64Zm-2.63-2.17a5.26,5.26,0,0,0-1.07-3.46,3.65,3.65,0,0,0-2.93-1.23,4.13,4.13,0,0,0-3.08,1.3,5.89,5.89,0,0,0-1.56,3.39Z" transform="translate(-20.22 -27.03)"/><path d="M323.45,128h-2.56v-2.72h-.06a6.46,6.46,0,0,1-10.32.94,8.77,8.77,0,0,1-1.81-5.85,9.63,9.63,0,0,1,2-6.36,6.62,6.62,0,0,1,5.33-2.39,5.13,5.13,0,0,1,4.8,2.6h.06V104.3h2.56Zm-2.56-7.24v-2.36a4.6,4.6,0,0,0-1.28-3.28,4.33,4.33,0,0,0-3.25-1.34,4.43,4.43,0,0,0-3.69,1.72,7.56,7.56,0,0,0-1.34,4.75,6.74,6.74,0,0,0,1.29,4.36,4.21,4.21,0,0,0,3.46,1.61,4.38,4.38,0,0,0,3.47-1.55A5.71,5.71,0,0,0,320.89,120.75Z" transform="translate(-20.22 -27.03)"/><path d="M335.33,128.36a7.42,7.42,0,0,1-5.67-2.24,8.31,8.31,0,0,1-2.11-6,8.64,8.64,0,0,1,2.2-6.29,7.92,7.92,0,0,1,5.95-2.27,7.18,7.18,0,0,1,5.59,2.21,8.7,8.7,0,0,1,2,6.1,8.58,8.58,0,0,1-2.17,6.14A7.6,7.6,0,0,1,335.33,128.36Zm.19-14.59a4.88,4.88,0,0,0-3.91,1.68,6.88,6.88,0,0,0-1.44,4.63,6.59,6.59,0,0,0,1.45,4.49,5,5,0,0,0,3.9,1.64,4.7,4.7,0,0,0,3.82-1.61,7,7,0,0,0,1.33-4.58,7.13,7.13,0,0,0-1.33-4.63A4.68,4.68,0,0,0,335.52,113.77Z" transform="translate(-20.22 -27.03)"/><path d="M346.42,127.41v-2.75a7.6,7.6,0,0,0,4.61,1.55c2.25,0,3.38-.75,3.38-2.25a2,2,0,0,0-.29-1.09,3.08,3.08,0,0,0-.78-.79,6.62,6.62,0,0,0-1.16-.62l-1.43-.57a17.66,17.66,0,0,1-1.87-.85,5.57,5.57,0,0,1-1.34-1,3.52,3.52,0,0,1-.81-1.22,4.21,4.21,0,0,1-.28-1.61,3.74,3.74,0,0,1,.52-2,4.54,4.54,0,0,1,1.37-1.46,6.6,6.6,0,0,1,2-.88,8.7,8.7,0,0,1,2.28-.3,9.21,9.21,0,0,1,3.72.72v2.59a7.26,7.26,0,0,0-4.07-1.15,4.65,4.65,0,0,0-1.29.16,3.24,3.24,0,0,0-1,.46,2.3,2.3,0,0,0-.65.71,1.92,1.92,0,0,0-.22.92,2.23,2.23,0,0,0,.22,1,2.49,2.49,0,0,0,.67.75,5.48,5.48,0,0,0,1.06.59l1.42.58c.71.27,1.35.55,1.91.83a6.83,6.83,0,0,1,1.44,1,3.9,3.9,0,0,1,.91,1.24,4.09,4.09,0,0,1,.32,1.68,3.92,3.92,0,0,1-.52,2.06,4.51,4.51,0,0,1-1.4,1.45,6.35,6.35,0,0,1-2,.86,9.78,9.78,0,0,1-2.39.28A9.16,9.16,0,0,1,346.42,127.41Z" transform="translate(-20.22 -27.03)"/><path d="M35.17,150.39l-6.37,16H26.28l-6.06-16H23L27.09,162a10.51,10.51,0,0,1,.57,2.24h.06a10.18,10.18,0,0,1,.5-2.17l4.25-11.69Z" transform="translate(-20.22 -27.03)"/><path d="M50.78,159H39.48a6,6,0,0,0,1.44,4.12,5,5,0,0,0,3.78,1.46,7.91,7.91,0,0,0,5-1.78v2.4a9.27,9.27,0,0,1-5.58,1.53,6.72,6.72,0,0,1-5.32-2.18,8.86,8.86,0,0,1-1.94-6.13A8.72,8.72,0,0,1,39,152.36,6.8,6.8,0,0,1,44.2,150a6,6,0,0,1,4.86,2,8.47,8.47,0,0,1,1.72,5.64Zm-2.62-2.17a5.26,5.26,0,0,0-1.07-3.46,3.66,3.66,0,0,0-2.93-1.23,4.12,4.12,0,0,0-3.08,1.3,5.77,5.77,0,0,0-1.56,3.39Z" transform="translate(-20.22 -27.03)"/><path d="M65.56,165.65a8.3,8.3,0,0,1-4.37,1.11,7.27,7.27,0,0,1-5.53-2.22,8.09,8.09,0,0,1-2.1-5.78,8.88,8.88,0,0,1,2.27-6.35,7.92,7.92,0,0,1,6.05-2.4,8.4,8.4,0,0,1,3.71.78v2.63a6.5,6.5,0,0,0-3.81-1.25,5.12,5.12,0,0,0-4,1.76,6.64,6.64,0,0,0-1.57,4.61A6.36,6.36,0,0,0,57.66,163a5.12,5.12,0,0,0,4,1.63,6.47,6.47,0,0,0,3.94-1.39Z" transform="translate(-20.22 -27.03)"/><path d="M76.86,166.23a5,5,0,0,1-2.39.5q-4.2,0-4.2-4.69v-9.46H67.52v-2.19h2.75v-3.91l2.56-.83v4.74h4v2.19h-4v9a3.72,3.72,0,0,0,.55,2.3,2.16,2.16,0,0,0,1.81.69,2.67,2.67,0,0,0,1.67-.54Z" transform="translate(-20.22 -27.03)"/><path d="M87,166.76a7.42,7.42,0,0,1-5.67-2.24,8.3,8.3,0,0,1-2.11-5.94,8.65,8.65,0,0,1,2.2-6.3,7.92,7.92,0,0,1,6-2.27,7.18,7.18,0,0,1,5.59,2.21,8.71,8.71,0,0,1,2,6.11,8.57,8.57,0,0,1-2.17,6.13A7.58,7.58,0,0,1,87,166.76Zm.19-14.59a4.88,4.88,0,0,0-3.91,1.68,6.88,6.88,0,0,0-1.44,4.63A6.54,6.54,0,0,0,83.27,163a4.93,4.93,0,0,0,3.89,1.64A4.7,4.7,0,0,0,91,163a7,7,0,0,0,1.33-4.58A7.13,7.13,0,0,0,91,153.79,4.68,4.68,0,0,0,87.16,152.17Z" transform="translate(-20.22 -27.03)"/><path d="M107.38,153a3.18,3.18,0,0,0-1.94-.51A3.25,3.25,0,0,0,102.7,154a7.12,7.12,0,0,0-1.11,4.22v8.16H99v-16h2.56v3.29h.07a5.56,5.56,0,0,1,1.67-2.63,3.81,3.81,0,0,1,2.51-.94,4.15,4.15,0,0,1,1.54.22Z" transform="translate(-20.22 -27.03)"/><path d="M123,159h-11.3a6,6,0,0,0,1.44,4.12,4.93,4.93,0,0,0,3.78,1.46,7.91,7.91,0,0,0,5-1.78v2.4a9.31,9.31,0,0,1-5.58,1.53,6.74,6.74,0,0,1-5.33-2.18,8.91,8.91,0,0,1-1.94-6.13,8.77,8.77,0,0,1,2.12-6.09,6.81,6.81,0,0,1,5.26-2.35,6,6,0,0,1,4.86,2,8.52,8.52,0,0,1,1.72,5.64Zm-2.63-2.17a5.26,5.26,0,0,0-1.07-3.46,3.65,3.65,0,0,0-2.93-1.23,4.13,4.13,0,0,0-3.08,1.3,5.89,5.89,0,0,0-1.56,3.39Z" transform="translate(-20.22 -27.03)"/><path d="M125.92,165.81v-2.75a7.6,7.6,0,0,0,4.61,1.55c2.25,0,3.38-.75,3.38-2.25a2,2,0,0,0-.29-1.09,3.08,3.08,0,0,0-.78-.79,6.62,6.62,0,0,0-1.16-.62l-1.43-.57a17.66,17.66,0,0,1-1.87-.85,5.57,5.57,0,0,1-1.34-1,3.52,3.52,0,0,1-.81-1.22,4.21,4.21,0,0,1-.28-1.61,3.74,3.74,0,0,1,.52-2,4.54,4.54,0,0,1,1.37-1.46,6.6,6.6,0,0,1,2-.88,8.7,8.7,0,0,1,2.28-.3,9.21,9.21,0,0,1,3.72.72v2.6a7.19,7.19,0,0,0-4.07-1.16,4.65,4.65,0,0,0-1.29.16,3.24,3.24,0,0,0-1,.46,2.3,2.3,0,0,0-.65.71,1.92,1.92,0,0,0-.22.92,2.23,2.23,0,0,0,.22,1.05,2.49,2.49,0,0,0,.67.75,5.48,5.48,0,0,0,1.06.59l1.42.58c.71.27,1.35.55,1.91.83a6.83,6.83,0,0,1,1.44,1,3.9,3.9,0,0,1,.91,1.24,4.09,4.09,0,0,1,.32,1.68,3.92,3.92,0,0,1-.52,2.06,4.51,4.51,0,0,1-1.4,1.45,6.35,6.35,0,0,1-2,.86,9.78,9.78,0,0,1-2.39.28A9.16,9.16,0,0,1,125.92,165.81Z" transform="translate(-20.22 -27.03)"/><path d="M162,150.39,154.61,169c-1.31,3.31-3.16,5-5.53,5a6,6,0,0,1-1.67-.2v-2.3a4.63,4.63,0,0,0,1.51.28q1.94,0,2.91-2.31l1.28-3-6.25-16h2.84L154,162.7c.05.16.16.56.33,1.22h.09c.05-.25.16-.65.32-1.19l4.54-12.34Z" transform="translate(-20.22 -27.03)"/><path d="M181.83,153a3.18,3.18,0,0,0-1.94-.51,3.26,3.26,0,0,0-2.74,1.54,7.12,7.12,0,0,0-1.1,4.22v8.16h-2.57v-16h2.57v3.29h.06a5.56,5.56,0,0,1,1.67-2.63,3.81,3.81,0,0,1,2.52-.94,4.13,4.13,0,0,1,1.53.22Z" transform="translate(-20.22 -27.03)"/><path d="M197.47,159h-11.3a6,6,0,0,0,1.44,4.12,5,5,0,0,0,3.78,1.46,7.91,7.91,0,0,0,5-1.78v2.4a9.31,9.31,0,0,1-5.58,1.53,6.74,6.74,0,0,1-5.33-2.18,8.91,8.91,0,0,1-1.93-6.13,8.77,8.77,0,0,1,2.11-6.09,6.82,6.82,0,0,1,5.26-2.35,6,6,0,0,1,4.86,2,8.47,8.47,0,0,1,1.72,5.64Zm-2.63-2.17a5.21,5.21,0,0,0-1.07-3.46,3.65,3.65,0,0,0-2.93-1.23,4.11,4.11,0,0,0-3.07,1.3,5.84,5.84,0,0,0-1.57,3.39Z" transform="translate(-20.22 -27.03)"/><path d="M212.25,165.65a8.33,8.33,0,0,1-4.37,1.11,7.25,7.25,0,0,1-5.53-2.22,8.09,8.09,0,0,1-2.1-5.78,8.84,8.84,0,0,1,2.27-6.35,7.91,7.91,0,0,1,6-2.4,8.41,8.41,0,0,1,3.72.78v2.63a6.55,6.55,0,0,0-3.81-1.25,5.1,5.1,0,0,0-4,1.76,6.64,6.64,0,0,0-1.57,4.61,6.36,6.36,0,0,0,1.47,4.44,5.12,5.12,0,0,0,4,1.63,6.47,6.47,0,0,0,3.94-1.39Z" transform="translate(-20.22 -27.03)"/><path d="M217.44,146.33a1.62,1.62,0,0,1-1.17-.47,1.58,1.58,0,0,1-.49-1.19,1.6,1.6,0,0,1,.49-1.2,1.62,1.62,0,0,1,1.17-.47,1.67,1.67,0,0,1,1.19.47,1.6,1.6,0,0,1,.49,1.2,1.56,1.56,0,0,1-.49,1.17A1.65,1.65,0,0,1,217.44,146.33Zm1.25,20.06h-2.57v-16h2.57Z" transform="translate(-20.22 -27.03)"/><path d="M226.5,164.08h-.06v2.31h-2.56V142.7h2.56v10.5h.06A6.07,6.07,0,0,1,232,150a5.87,5.87,0,0,1,4.82,2.15,8.87,8.87,0,0,1,1.74,5.76,9.92,9.92,0,0,1-2,6.43,6.49,6.49,0,0,1-5.34,2.41A5.25,5.25,0,0,1,226.5,164.08Zm-.06-6.46v2.24a4.74,4.74,0,0,0,1.29,3.36,4.26,4.26,0,0,0,3.27,1.39,4.31,4.31,0,0,0,3.65-1.78,8.19,8.19,0,0,0,1.32-5,6.44,6.44,0,0,0-1.24-4.19,4.07,4.07,0,0,0-3.34-1.51,4.54,4.54,0,0,0-3.59,1.55A5.71,5.71,0,0,0,226.44,157.62Z" transform="translate(-20.22 -27.03)"/><path d="M255.55,159h-11.3a6,6,0,0,0,1.44,4.12,4.93,4.93,0,0,0,3.78,1.46,7.91,7.91,0,0,0,5-1.78v2.4a9.31,9.31,0,0,1-5.58,1.53,6.74,6.74,0,0,1-5.33-2.18,8.91,8.91,0,0,1-1.94-6.13,8.77,8.77,0,0,1,2.12-6.09A6.82,6.82,0,0,1,249,150a6,6,0,0,1,4.86,2,8.52,8.52,0,0,1,1.72,5.64Zm-2.63-2.17a5.26,5.26,0,0,0-1.07-3.46,3.65,3.65,0,0,0-2.93-1.23,4.13,4.13,0,0,0-3.08,1.3,5.89,5.89,0,0,0-1.56,3.39Z" transform="translate(-20.22 -27.03)"/><path d="M281.05,159h-11.3a6,6,0,0,0,1.44,4.12,4.93,4.93,0,0,0,3.78,1.46,7.91,7.91,0,0,0,5-1.78v2.4a9.31,9.31,0,0,1-5.58,1.53,6.74,6.74,0,0,1-5.33-2.18,8.91,8.91,0,0,1-1.94-6.13,8.77,8.77,0,0,1,2.12-6.09,6.82,6.82,0,0,1,5.26-2.35,6,6,0,0,1,4.86,2,8.52,8.52,0,0,1,1.72,5.64Zm-2.63-2.17a5.26,5.26,0,0,0-1.07-3.46,3.65,3.65,0,0,0-2.93-1.23,4.13,4.13,0,0,0-3.08,1.3,5.89,5.89,0,0,0-1.56,3.39Z" transform="translate(-20.22 -27.03)"/><path d="M284,165.81v-2.75a7.6,7.6,0,0,0,4.61,1.55c2.25,0,3.38-.75,3.38-2.25a2,2,0,0,0-.29-1.09,2.79,2.79,0,0,0-.78-.79,6.62,6.62,0,0,0-1.16-.62l-1.43-.57a17.66,17.66,0,0,1-1.87-.85,5.57,5.57,0,0,1-1.34-1,3.52,3.52,0,0,1-.81-1.22,4.41,4.41,0,0,1-.28-1.61,3.83,3.83,0,0,1,.52-2,4.47,4.47,0,0,1,1.38-1.46,6.37,6.37,0,0,1,2-.88,8.57,8.57,0,0,1,2.27-.3,9.21,9.21,0,0,1,3.72.72v2.6a7.18,7.18,0,0,0-4.06-1.16,4.72,4.72,0,0,0-1.3.16,3.24,3.24,0,0,0-1,.46,2.15,2.15,0,0,0-.64.71,1.82,1.82,0,0,0-.23.92,2.12,2.12,0,0,0,.23,1.05,2.32,2.32,0,0,0,.66.75,5.8,5.8,0,0,0,1.06.59l1.42.58c.71.27,1.35.55,1.91.83a6.83,6.83,0,0,1,1.44,1,4.18,4.18,0,0,1,.71,5,4.51,4.51,0,0,1-1.4,1.45,6.35,6.35,0,0,1-2,.86,9.78,9.78,0,0,1-2.39.28A9.16,9.16,0,0,1,284,165.81Z" transform="translate(-20.22 -27.03)"/><path d="M305.92,166.23a5,5,0,0,1-2.39.5q-4.2,0-4.2-4.69v-9.46h-2.75v-2.19h2.75v-3.91l2.56-.83v4.74h4v2.19h-4v9a3.72,3.72,0,0,0,.55,2.3,2.17,2.17,0,0,0,1.81.69,2.65,2.65,0,0,0,1.67-.54Z" transform="translate(-20.22 -27.03)"/><path d="M322.2,159H310.91a6,6,0,0,0,1.43,4.12,5,5,0,0,0,3.78,1.46,7.89,7.89,0,0,0,5-1.78v2.4a9.26,9.26,0,0,1-5.57,1.53,6.73,6.73,0,0,1-5.33-2.18,8.91,8.91,0,0,1-1.94-6.13,8.77,8.77,0,0,1,2.12-6.09,6.8,6.8,0,0,1,5.25-2.35,6,6,0,0,1,4.86,2,8.47,8.47,0,0,1,1.72,5.64Zm-2.62-2.17a5.26,5.26,0,0,0-1.07-3.46,3.66,3.66,0,0,0-2.93-1.23,4.12,4.12,0,0,0-3.08,1.3,5.83,5.83,0,0,0-1.56,3.39Z" transform="translate(-20.22 -27.03)"/><path d="M35.88,204.79H33.31v-9.13q0-5.08-3.72-5.09A4,4,0,0,0,26.41,192a5.41,5.41,0,0,0-1.25,3.65v9.13H22.59v-16h2.57v2.65h.06a5.78,5.78,0,0,1,5.25-3,4.88,4.88,0,0,1,4,1.7,7.53,7.53,0,0,1,1.4,4.9Z" transform="translate(-20.22 -27.03)"/><path d="M47.39,205.16a7.4,7.4,0,0,1-5.66-2.24A8.26,8.26,0,0,1,39.61,197a8.65,8.65,0,0,1,2.2-6.3,7.94,7.94,0,0,1,6-2.27,7.17,7.17,0,0,1,5.58,2.21,8.71,8.71,0,0,1,2,6.11,8.61,8.61,0,0,1-2.16,6.13A7.62,7.62,0,0,1,47.39,205.16Zm.19-14.59a4.88,4.88,0,0,0-3.91,1.68,6.88,6.88,0,0,0-1.44,4.63,6.54,6.54,0,0,0,1.46,4.49A4.94,4.94,0,0,0,47.58,203a4.7,4.7,0,0,0,3.82-1.61,7,7,0,0,0,1.33-4.58,7.13,7.13,0,0,0-1.33-4.63A4.68,4.68,0,0,0,47.58,190.57Z" transform="translate(-20.22 -27.03)"/><path d="M82.17,204.79H79.61V195.6a6.89,6.89,0,0,0-.82-3.84A3.1,3.1,0,0,0,76,190.57a3.43,3.43,0,0,0-2.79,1.5,5.77,5.77,0,0,0-1.15,3.59v9.13H69.53v-9.5q0-4.72-3.64-4.72A3.38,3.38,0,0,0,63.11,192,5.85,5.85,0,0,0,62,195.66v9.13H59.45v-16H62v2.53h.06a5.43,5.43,0,0,1,5-2.91,4.66,4.66,0,0,1,2.86.92,4.6,4.6,0,0,1,1.67,2.4,5.72,5.72,0,0,1,5.31-3.32q5.28,0,5.28,6.52Z" transform="translate(-20.22 -27.03)"/><path d="M89.64,202.48h-.06v2.31H87V181.1h2.56v10.5h.06a6.07,6.07,0,0,1,5.53-3.19,5.87,5.87,0,0,1,4.82,2.15,8.87,8.87,0,0,1,1.74,5.76,9.92,9.92,0,0,1-2,6.43,6.49,6.49,0,0,1-5.34,2.41A5.25,5.25,0,0,1,89.64,202.48ZM89.58,196v2.24a4.74,4.74,0,0,0,1.29,3.36A4.26,4.26,0,0,0,94.14,203a4.31,4.31,0,0,0,3.65-1.78,8.19,8.19,0,0,0,1.32-5,6.49,6.49,0,0,0-1.23-4.19,4.1,4.1,0,0,0-3.35-1.51,4.54,4.54,0,0,0-3.59,1.55A5.71,5.71,0,0,0,89.58,196Z" transform="translate(-20.22 -27.03)"/><path d="M114.17,191.38a3.16,3.16,0,0,0-1.94-.51,3.27,3.27,0,0,0-2.74,1.54,7.19,7.19,0,0,0-1.1,4.22v8.16h-2.56v-16h2.56v3.29h.06a5.72,5.72,0,0,1,1.67-2.63,3.83,3.83,0,0,1,2.52-.94,4.06,4.06,0,0,1,1.53.22Z" transform="translate(-20.22 -27.03)"/><path d="M129.81,197.43H118.52a6,6,0,0,0,1.43,4.12,5,5,0,0,0,3.78,1.46,7.89,7.89,0,0,0,5-1.78v2.4a9.27,9.27,0,0,1-5.58,1.53A6.72,6.72,0,0,1,117.8,203a8.86,8.86,0,0,1-1.94-6.13,8.72,8.72,0,0,1,2.12-6.09,6.8,6.8,0,0,1,5.25-2.35,6,6,0,0,1,4.86,2,8.47,8.47,0,0,1,1.72,5.64Zm-2.62-2.17a5.26,5.26,0,0,0-1.07-3.46,3.66,3.66,0,0,0-2.93-1.23,4.12,4.12,0,0,0-3.08,1.3,5.83,5.83,0,0,0-1.56,3.39Z" transform="translate(-20.22 -27.03)"/><path d="M145.08,202.48H145v9.67h-2.57V188.79H145v2.81h.06a6.07,6.07,0,0,1,5.53-3.19,5.88,5.88,0,0,1,4.83,2.15,8.93,8.93,0,0,1,1.73,5.76,9.92,9.92,0,0,1-1.95,6.43,6.49,6.49,0,0,1-5.34,2.41A5.34,5.34,0,0,1,145.08,202.48ZM145,196v2.24a4.78,4.78,0,0,0,1.28,3.36,4.26,4.26,0,0,0,3.28,1.39,4.31,4.31,0,0,0,3.65-1.78,8.19,8.19,0,0,0,1.32-5,6.44,6.44,0,0,0-1.24-4.19,4.07,4.07,0,0,0-3.34-1.51,4.54,4.54,0,0,0-3.59,1.55A5.71,5.71,0,0,0,145,196Z" transform="translate(-20.22 -27.03)"/><path d="M168,205.16a7.4,7.4,0,0,1-5.66-2.24,8.31,8.31,0,0,1-2.12-5.94,8.65,8.65,0,0,1,2.21-6.3,7.9,7.9,0,0,1,6-2.27,7.16,7.16,0,0,1,5.58,2.21,8.71,8.71,0,0,1,2,6.11,8.61,8.61,0,0,1-2.16,6.13A7.62,7.62,0,0,1,168,205.16Zm.19-14.59a4.88,4.88,0,0,0-3.91,1.68,6.93,6.93,0,0,0-1.43,4.63,6.54,6.54,0,0,0,1.45,4.49,5,5,0,0,0,3.89,1.64A4.69,4.69,0,0,0,172,201.4a7,7,0,0,0,1.34-4.58,7.14,7.14,0,0,0-1.34-4.63A4.66,4.66,0,0,0,168.14,190.57Z" transform="translate(-20.22 -27.03)"/><path d="M188.36,191.38a3.16,3.16,0,0,0-1.94-.51,3.26,3.26,0,0,0-2.74,1.54,7.19,7.19,0,0,0-1.1,4.22v8.16H180v-16h2.56v3.29h.06a5.56,5.56,0,0,1,1.67-2.63,3.81,3.81,0,0,1,2.52-.94,4.13,4.13,0,0,1,1.53.22Z" transform="translate(-20.22 -27.03)"/><path d="M204.8,212.15h-2.57V202h-.06a5.73,5.73,0,0,1-5.47,3.12,6,6,0,0,1-4.83-2.15,8.72,8.72,0,0,1-1.82-5.85,9.52,9.52,0,0,1,2-6.36,6.64,6.64,0,0,1,5.37-2.39,5,5,0,0,1,4.75,2.6h.06v-2.22h2.57Zm-2.57-14.57v-2.32a4.67,4.67,0,0,0-1.28-3.33,4.32,4.32,0,0,0-3.28-1.36,4.38,4.38,0,0,0-3.65,1.71,7.62,7.62,0,0,0-1.35,4.82,6.61,6.61,0,0,0,1.3,4.34,4.15,4.15,0,0,0,3.34,1.57,4.54,4.54,0,0,0,3.59-1.54A5.72,5.72,0,0,0,202.23,197.58Z" transform="translate(-20.22 -27.03)"/><path d="M222.92,204.79h-2.56v-2.53h-.06a5.28,5.28,0,0,1-4.94,2.9q-5.72,0-5.72-6.81v-9.56h2.55v9.15q0,5.07,3.87,5.07a3.91,3.91,0,0,0,3.09-1.39,5.25,5.25,0,0,0,1.21-3.61v-9.22h2.56Z" transform="translate(-20.22 -27.03)"/><path d="M241,197.43H229.66a6,6,0,0,0,1.43,4.12,5,5,0,0,0,3.79,1.46,7.88,7.88,0,0,0,5-1.78v2.4a9.26,9.26,0,0,1-5.57,1.53,6.73,6.73,0,0,1-5.33-2.18,8.91,8.91,0,0,1-1.94-6.13,8.77,8.77,0,0,1,2.12-6.09,6.81,6.81,0,0,1,5.26-2.35,6,6,0,0,1,4.85,2,8.47,8.47,0,0,1,1.72,5.64Zm-2.62-2.17a5.26,5.26,0,0,0-1.07-3.46,3.66,3.66,0,0,0-2.93-1.23,4.12,4.12,0,0,0-3.08,1.3,5.83,5.83,0,0,0-1.56,3.39Z" transform="translate(-20.22 -27.03)"/><path d="M266.45,197.43H255.16a6,6,0,0,0,1.43,4.12,5,5,0,0,0,3.79,1.46,7.88,7.88,0,0,0,5-1.78v2.4a9.26,9.26,0,0,1-5.57,1.53,6.73,6.73,0,0,1-5.33-2.18,8.91,8.91,0,0,1-1.94-6.13,8.77,8.77,0,0,1,2.12-6.09,6.81,6.81,0,0,1,5.26-2.35,6,6,0,0,1,4.85,2,8.47,8.47,0,0,1,1.72,5.64Zm-2.62-2.17a5.26,5.26,0,0,0-1.07-3.46,3.66,3.66,0,0,0-2.93-1.23,4.12,4.12,0,0,0-3.08,1.3,5.83,5.83,0,0,0-1.56,3.39Z" transform="translate(-20.22 -27.03)"/><path d="M272.89,204.79h-2.56V181.1h2.56Z" transform="translate(-20.22 -27.03)"/><path d="M30.94,229.78a3.18,3.18,0,0,0-1.94-.51,3.26,3.26,0,0,0-2.74,1.54,7.12,7.12,0,0,0-1.1,4.22v8.16H22.59v-16h2.57v3.29h.06a5.56,5.56,0,0,1,1.67-2.63,3.81,3.81,0,0,1,2.52-.94,4.38,4.38,0,0,1,1.53.21Z" transform="translate(-20.22 -27.03)"/><path d="M46.58,235.83H35.28A6,6,0,0,0,36.72,240a5,5,0,0,0,3.78,1.46,7.86,7.86,0,0,0,5-1.79V242a9.31,9.31,0,0,1-5.58,1.53,6.74,6.74,0,0,1-5.33-2.18,8.91,8.91,0,0,1-1.94-6.13,8.77,8.77,0,0,1,2.12-6.09A6.82,6.82,0,0,1,40,226.81a6,6,0,0,1,4.86,2,8.52,8.52,0,0,1,1.72,5.64ZM44,233.66a5.21,5.21,0,0,0-1.07-3.46A3.65,3.65,0,0,0,40,229a4.1,4.1,0,0,0-3.07,1.3,5.84,5.84,0,0,0-1.57,3.39Z" transform="translate(-20.22 -27.03)"/><path d="M49.48,242.61v-2.75a7.62,7.62,0,0,0,4.61,1.55c2.25,0,3.38-.75,3.38-2.25a2,2,0,0,0-.29-1.09,2.79,2.79,0,0,0-.78-.79,6.62,6.62,0,0,0-1.16-.62l-1.43-.57a16.57,16.57,0,0,1-1.86-.85,5.44,5.44,0,0,1-1.35-1,3.52,3.52,0,0,1-.81-1.22,4.42,4.42,0,0,1-.27-1.61,3.83,3.83,0,0,1,.51-2A4.58,4.58,0,0,1,51.41,228a6.37,6.37,0,0,1,2-.88,8.57,8.57,0,0,1,2.27-.3,9.14,9.14,0,0,1,3.72.72v2.59A7.25,7.25,0,0,0,55.3,229a4.77,4.77,0,0,0-1.3.16,3.24,3.24,0,0,0-1,.46,2.15,2.15,0,0,0-.64.71,1.93,1.93,0,0,0-.23.92,2.23,2.23,0,0,0,.23,1.05A2.32,2.32,0,0,0,53,233a5.8,5.8,0,0,0,1.06.59l1.43.58c.7.27,1.34.55,1.9.83a6.83,6.83,0,0,1,1.44,1,4.18,4.18,0,0,1,.71,5,4.51,4.51,0,0,1-1.4,1.45,6.3,6.3,0,0,1-2,.86,9.84,9.84,0,0,1-2.39.28A9.17,9.17,0,0,1,49.48,242.61Z" transform="translate(-20.22 -27.03)"/><path d="M77,243.19H74.41v-2.53h-.07a5.26,5.26,0,0,1-4.93,2.9q-5.73,0-5.72-6.81v-9.56h2.54v9.15c0,3.38,1.3,5.07,3.88,5.07A3.91,3.91,0,0,0,73.2,240a5.3,5.3,0,0,0,1.21-3.61v-9.22H77Z" transform="translate(-20.22 -27.03)"/><path d="M84.7,243.19H82.14V219.5H84.7Z" transform="translate(-20.22 -27.03)"/><path d="M97.31,243a5,5,0,0,1-2.39.5q-4.2,0-4.2-4.69v-9.46H88v-2.19h2.75v-3.91l2.56-.83v4.74h4v2.19h-4v9a3.72,3.72,0,0,0,.55,2.3,2.17,2.17,0,0,0,1.81.69,2.65,2.65,0,0,0,1.67-.54Z" transform="translate(-20.22 -27.03)"/><path d="M112.19,243.19h-2.57v-2.5h-.06a5.36,5.36,0,0,1-4.92,2.87,5.27,5.27,0,0,1-3.74-1.26,4.41,4.41,0,0,1-1.35-3.36q0-4.49,5.28-5.22l4.79-.67c0-2.72-1.09-4.08-3.29-4.08a7.83,7.83,0,0,0-5.22,2v-2.63a9.9,9.9,0,0,1,5.44-1.5q5.64,0,5.64,6Zm-2.57-8.1-3.85.53a6.31,6.31,0,0,0-2.69.89,2.53,2.53,0,0,0-.91,2.24,2.42,2.42,0,0,0,.84,1.91,3.19,3.19,0,0,0,2.22.75,4.13,4.13,0,0,0,3.15-1.34,4.76,4.76,0,0,0,1.24-3.38Z" transform="translate(-20.22 -27.03)"/><path d="M130.67,243.19h-2.56v-2.72h-.06a6.46,6.46,0,0,1-10.32.94,8.77,8.77,0,0,1-1.81-5.85,9.63,9.63,0,0,1,2-6.36,6.6,6.6,0,0,1,5.33-2.39,5.13,5.13,0,0,1,4.8,2.6h.06V219.5h2.56ZM128.11,236v-2.36a4.6,4.6,0,0,0-1.28-3.28,4.33,4.33,0,0,0-3.25-1.34,4.43,4.43,0,0,0-3.69,1.72,7.5,7.5,0,0,0-1.34,4.75,6.74,6.74,0,0,0,1.29,4.36,4.21,4.21,0,0,0,3.46,1.61,4.38,4.38,0,0,0,3.47-1.55A5.76,5.76,0,0,0,128.11,236Z" transform="translate(-20.22 -27.03)"/><path d="M142.55,243.56a7.4,7.4,0,0,1-5.67-2.24,8.3,8.3,0,0,1-2.11-5.94,8.65,8.65,0,0,1,2.2-6.3,7.92,7.92,0,0,1,5.95-2.27,7.18,7.18,0,0,1,5.59,2.21,10,10,0,0,1-.16,12.24A7.6,7.6,0,0,1,142.55,243.56Zm.18-14.59a4.87,4.87,0,0,0-3.9,1.68,6.88,6.88,0,0,0-1.44,4.63,6.59,6.59,0,0,0,1.45,4.49,5,5,0,0,0,3.89,1.64,4.69,4.69,0,0,0,3.82-1.61,7,7,0,0,0,1.34-4.58,7.08,7.08,0,0,0-1.34-4.63A4.66,4.66,0,0,0,142.73,229Z" transform="translate(-20.22 -27.03)"/><path d="M176.66,243.19h-2.57v-9.13q0-5.09-3.71-5.09a4,4,0,0,0-3.18,1.44,5.36,5.36,0,0,0-1.26,3.65v9.13h-2.56v-16h2.56v2.65H166a5.78,5.78,0,0,1,5.25-3,4.91,4.91,0,0,1,4,1.7,7.59,7.59,0,0,1,1.39,4.9Z" transform="translate(-20.22 -27.03)"/><path d="M188.17,243.56a7.4,7.4,0,0,1-5.66-2.24,8.31,8.31,0,0,1-2.12-5.94,8.65,8.65,0,0,1,2.2-6.3,7.94,7.94,0,0,1,6-2.27,7.17,7.17,0,0,1,5.58,2.21,10,10,0,0,1-.15,12.24A7.62,7.62,0,0,1,188.17,243.56Zm.19-14.59a4.88,4.88,0,0,0-3.91,1.68,6.88,6.88,0,0,0-1.43,4.63,6.54,6.54,0,0,0,1.45,4.49,4.94,4.94,0,0,0,3.89,1.64,4.69,4.69,0,0,0,3.82-1.61,7,7,0,0,0,1.34-4.58,7.14,7.14,0,0,0-1.34-4.63A4.66,4.66,0,0,0,188.36,229Z" transform="translate(-20.22 -27.03)"/><path d="M221.86,235.83h-11.3A6,6,0,0,0,212,240a5,5,0,0,0,3.78,1.46,7.86,7.86,0,0,0,5-1.79V242a9.31,9.31,0,0,1-5.58,1.53,6.74,6.74,0,0,1-5.33-2.18,8.91,8.91,0,0,1-1.93-6.13,8.77,8.77,0,0,1,2.11-6.09,6.82,6.82,0,0,1,5.26-2.35,6,6,0,0,1,4.86,2,8.47,8.47,0,0,1,1.72,5.64Zm-2.63-2.17a5.21,5.21,0,0,0-1.07-3.46,3.65,3.65,0,0,0-2.93-1.23,4.11,4.11,0,0,0-3.07,1.3,5.84,5.84,0,0,0-1.57,3.39Z" transform="translate(-20.22 -27.03)"/><path d="M224.77,242.61v-2.75a7.58,7.58,0,0,0,4.61,1.55c2.24,0,3.37-.75,3.37-2.25a2,2,0,0,0-.29-1.09,2.79,2.79,0,0,0-.78-.79,6.28,6.28,0,0,0-1.16-.62l-1.43-.57a16.57,16.57,0,0,1-1.86-.85,5.44,5.44,0,0,1-1.35-1,3.52,3.52,0,0,1-.81-1.22,4.42,4.42,0,0,1-.27-1.61,3.83,3.83,0,0,1,.51-2,4.58,4.58,0,0,1,1.38-1.46,6.37,6.37,0,0,1,2-.88,8.57,8.57,0,0,1,2.27-.3,9.14,9.14,0,0,1,3.72.72v2.59a7.25,7.25,0,0,0-4.06-1.15,4.77,4.77,0,0,0-1.3.16,3.36,3.36,0,0,0-1,.46,2.15,2.15,0,0,0-.64.71,1.93,1.93,0,0,0-.23.92,2.23,2.23,0,0,0,.23,1.05,2.32,2.32,0,0,0,.66.75,5.59,5.59,0,0,0,1.07.59c.41.18.89.37,1.42.58.7.27,1.34.55,1.9.83a6.58,6.58,0,0,1,1.44,1,3.75,3.75,0,0,1,.91,1.24,4.34,4.34,0,0,1-.2,3.74,4.4,4.4,0,0,1-1.4,1.45,6.3,6.3,0,0,1-2,.86,9.84,9.84,0,0,1-2.39.28A9.1,9.1,0,0,1,224.77,242.61Z" transform="translate(-20.22 -27.03)"/><path d="M261,243.19h-2.57v-2.53h-.06a5.27,5.27,0,0,1-4.94,2.9q-5.72,0-5.72-6.81v-9.56h2.55v9.15q0,5.07,3.88,5.07a3.89,3.89,0,0,0,3.08-1.39,5.25,5.25,0,0,0,1.21-3.61v-9.22H261Z" transform="translate(-20.22 -27.03)"/><path d="M279.47,243.19h-2.56v-9.13q0-5.09-3.72-5.09a4,4,0,0,0-3.18,1.44,5.36,5.36,0,0,0-1.26,3.65v9.13h-2.56v-16h2.56v2.65h.06a5.78,5.78,0,0,1,5.25-3,4.91,4.91,0,0,1,4,1.7,7.59,7.59,0,0,1,1.39,4.9Z" transform="translate(-20.22 -27.03)"/><path d="M305.64,227.19l-6.37,16h-2.52l-6.06-16h2.81l4.06,11.62a10.42,10.42,0,0,1,.56,2.24h.07a10.18,10.18,0,0,1,.5-2.17l4.25-11.69Z" transform="translate(-20.22 -27.03)"/><path d="M321.25,235.83H310a6,6,0,0,0,1.44,4.12,5,5,0,0,0,3.78,1.46,7.86,7.86,0,0,0,5-1.79V242a9.29,9.29,0,0,1-5.58,1.53,6.76,6.76,0,0,1-5.33-2.18,8.91,8.91,0,0,1-1.93-6.13,8.77,8.77,0,0,1,2.11-6.09,6.84,6.84,0,0,1,5.26-2.35,6,6,0,0,1,4.86,2,8.47,8.47,0,0,1,1.72,5.64Zm-2.63-2.17a5.21,5.21,0,0,0-1.07-3.46,3.64,3.64,0,0,0-2.93-1.23,4.11,4.11,0,0,0-3.07,1.3,5.84,5.84,0,0,0-1.57,3.39Z" transform="translate(-20.22 -27.03)"/><path d="M336,242.45a8.33,8.33,0,0,1-4.37,1.11,7.27,7.27,0,0,1-5.53-2.22,8.09,8.09,0,0,1-2.1-5.78,8.88,8.88,0,0,1,2.27-6.35,7.91,7.91,0,0,1,6-2.4,8.41,8.41,0,0,1,3.72.78v2.63a6.52,6.52,0,0,0-3.81-1.25,5.1,5.1,0,0,0-4,1.76,6.64,6.64,0,0,0-1.57,4.61,6.36,6.36,0,0,0,1.47,4.44,5.09,5.09,0,0,0,4,1.63A6.47,6.47,0,0,0,336,240Z" transform="translate(-20.22 -27.03)"/><path d="M347.33,243a5,5,0,0,1-2.39.5q-4.21,0-4.21-4.69v-9.46H338v-2.19h2.75v-3.91l2.57-.83v4.74h4v2.19h-4v9a3.79,3.79,0,0,0,.54,2.3,2.19,2.19,0,0,0,1.82.69,2.67,2.67,0,0,0,1.67-.54Z" transform="translate(-20.22 -27.03)"/><path d="M357.44,243.56a7.4,7.4,0,0,1-5.67-2.24,8.3,8.3,0,0,1-2.11-5.94,8.65,8.65,0,0,1,2.2-6.3,7.92,7.92,0,0,1,5.95-2.27A7.18,7.18,0,0,1,363.4,229a10,10,0,0,1-.16,12.24A7.6,7.6,0,0,1,357.44,243.56Zm.18-14.59a4.87,4.87,0,0,0-3.9,1.68,6.88,6.88,0,0,0-1.44,4.63,6.59,6.59,0,0,0,1.45,4.49,5,5,0,0,0,3.89,1.64,4.72,4.72,0,0,0,3.83-1.61,7,7,0,0,0,1.33-4.58,7.13,7.13,0,0,0-1.33-4.63A4.7,4.7,0,0,0,357.62,229Z" transform="translate(-20.22 -27.03)"/><path d="M377.84,229.78a3.13,3.13,0,0,0-1.93-.51,3.28,3.28,0,0,0-2.75,1.54,7.19,7.19,0,0,0-1.1,4.22v8.16H369.5v-16h2.56v3.29h.06a5.65,5.65,0,0,1,1.68-2.63,3.79,3.79,0,0,1,2.51-.94,4.31,4.31,0,0,1,1.53.21Z" transform="translate(-20.22 -27.03)"/><path d="M21.62,281v-2.75a7.62,7.62,0,0,0,4.61,1.55c2.25,0,3.38-.75,3.38-2.25a2,2,0,0,0-.29-1.09,2.79,2.79,0,0,0-.78-.79,6.28,6.28,0,0,0-1.16-.62L26,274.49a16.57,16.57,0,0,1-1.86-.85,5.44,5.44,0,0,1-1.35-1,3.52,3.52,0,0,1-.81-1.22,4.42,4.42,0,0,1-.27-1.61,3.83,3.83,0,0,1,.51-2,4.58,4.58,0,0,1,1.38-1.46,6.37,6.37,0,0,1,2-.88,8.57,8.57,0,0,1,2.27-.3,9.14,9.14,0,0,1,3.72.72v2.6a7.18,7.18,0,0,0-4.06-1.16,4.77,4.77,0,0,0-1.3.16,3.24,3.24,0,0,0-1,.46,2.09,2.09,0,0,0-.64.72,1.86,1.86,0,0,0-.23.91,2.23,2.23,0,0,0,.23,1.05,2.32,2.32,0,0,0,.66.75,5.8,5.8,0,0,0,1.06.59l1.43.58c.7.27,1.34.55,1.9.83a6.83,6.83,0,0,1,1.44,1,3.75,3.75,0,0,1,.91,1.24,4.44,4.44,0,0,1-.2,3.74,4.4,4.4,0,0,1-1.4,1.45,6.3,6.3,0,0,1-2,.86,9.84,9.84,0,0,1-2.39.28A9.17,9.17,0,0,1,21.62,281Z" transform="translate(-20.22 -27.03)"/><path d="M37.48,261.53a1.66,1.66,0,0,1-1.17-.47,1.61,1.61,0,0,1-.48-1.19,1.63,1.63,0,0,1,.48-1.2,1.66,1.66,0,0,1,1.17-.47,1.69,1.69,0,0,1,1.2.47,1.6,1.6,0,0,1,.49,1.2,1.56,1.56,0,0,1-.49,1.17A1.67,1.67,0,0,1,37.48,261.53Zm1.25,20.06H36.17v-16h2.56Z" transform="translate(-20.22 -27.03)"/><path d="M57.2,281.59H54.64v-9.13q0-5.08-3.72-5.09a4,4,0,0,0-3.18,1.44,5.36,5.36,0,0,0-1.26,3.65v9.13H43.92v-16h2.56v2.65h.07a5.76,5.76,0,0,1,5.25-3,4.88,4.88,0,0,1,4,1.7,7.53,7.53,0,0,1,1.39,4.9Z" transform="translate(-20.22 -27.03)"/><path d="M68.72,282a7.42,7.42,0,0,1-5.67-2.24,8.3,8.3,0,0,1-2.11-5.94,8.65,8.65,0,0,1,2.2-6.3,7.92,7.92,0,0,1,6-2.27,7.18,7.18,0,0,1,5.59,2.21,8.71,8.71,0,0,1,2,6.11,8.57,8.57,0,0,1-2.17,6.13A7.55,7.55,0,0,1,68.72,282Zm.19-14.59A4.88,4.88,0,0,0,65,269.05a6.88,6.88,0,0,0-1.44,4.63A6.54,6.54,0,0,0,65,278.17a4.93,4.93,0,0,0,3.89,1.64,4.7,4.7,0,0,0,3.82-1.61,7,7,0,0,0,1.33-4.58A7.13,7.13,0,0,0,72.73,269,4.68,4.68,0,0,0,68.91,267.37Z" transform="translate(-20.22 -27.03)"/><path d="M102.48,281.59H99.92v-2.53h-.06a5.27,5.27,0,0,1-4.94,2.9q-5.72,0-5.72-6.81v-9.56h2.55v9.15q0,5.07,3.87,5.07a3.9,3.9,0,0,0,3.09-1.39,5.25,5.25,0,0,0,1.21-3.61v-9.22h2.56Z" transform="translate(-20.22 -27.03)"/><path d="M120.94,281.59h-2.56v-9.13q0-5.08-3.72-5.09a4,4,0,0,0-3.18,1.44,5.36,5.36,0,0,0-1.26,3.65v9.13h-2.56v-16h2.56v2.65h.06a5.78,5.78,0,0,1,5.25-3,4.91,4.91,0,0,1,4,1.7,7.59,7.59,0,0,1,1.39,4.9Z" transform="translate(-20.22 -27.03)"/><path d="M147.81,281.59h-2.56v-9.13q0-5.08-3.72-5.09a4,4,0,0,0-3.18,1.44,5.36,5.36,0,0,0-1.26,3.65v9.13h-2.56v-16h2.56v2.65h.07a5.76,5.76,0,0,1,5.25-3,4.89,4.89,0,0,1,4,1.7,7.53,7.53,0,0,1,1.39,4.9Z" transform="translate(-20.22 -27.03)"/><path d="M165.58,281.59H163v-2.53H163A5.27,5.27,0,0,1,158,282q-5.73,0-5.72-6.81v-9.56h2.54v9.15c0,3.38,1.3,5.07,3.88,5.07a3.88,3.88,0,0,0,3.08-1.39,5.26,5.26,0,0,0,1.22-3.61v-9.22h2.56Z" transform="translate(-20.22 -27.03)"/><path d="M193.47,281.59h-2.56V272.4a7,7,0,0,0-.82-3.84,3.13,3.13,0,0,0-2.76-1.19,3.4,3.4,0,0,0-2.79,1.5,5.71,5.71,0,0,0-1.15,3.59v9.13h-2.56v-9.5c0-3.15-1.22-4.72-3.64-4.72a3.37,3.37,0,0,0-2.78,1.41,5.86,5.86,0,0,0-1.1,3.68v9.13h-2.56v-16h2.56v2.53h.07a5.42,5.42,0,0,1,5-2.91,4.65,4.65,0,0,1,4.54,3.32,5.7,5.7,0,0,1,5.31-3.32q5.28,0,5.28,6.52Z" transform="translate(-20.22 -27.03)"/><path d="M211.17,274.23H199.88a6,6,0,0,0,1.43,4.12,5,5,0,0,0,3.78,1.46,7.89,7.89,0,0,0,5-1.78v2.4a9.27,9.27,0,0,1-5.58,1.53,6.72,6.72,0,0,1-5.32-2.18,8.86,8.86,0,0,1-1.94-6.13,8.72,8.72,0,0,1,2.12-6.09,6.8,6.8,0,0,1,5.25-2.35,6,6,0,0,1,4.86,2,8.47,8.47,0,0,1,1.72,5.64Zm-2.62-2.17a5.26,5.26,0,0,0-1.07-3.46,3.66,3.66,0,0,0-2.93-1.23,4.12,4.12,0,0,0-3.08,1.3,5.77,5.77,0,0,0-1.56,3.39Z" transform="translate(-20.22 -27.03)"/><path d="M223.39,268.18a3.16,3.16,0,0,0-1.94-.51,3.27,3.27,0,0,0-2.74,1.54,7.19,7.19,0,0,0-1.1,4.22v8.16h-2.56v-16h2.56v3.29h.06a5.64,5.64,0,0,1,1.67-2.63,3.81,3.81,0,0,1,2.52-.94,4.06,4.06,0,0,1,1.53.22Z" transform="translate(-20.22 -27.03)"/><path d="M232.86,282a7.38,7.38,0,0,1-5.66-2.24,8.26,8.26,0,0,1-2.12-5.94,8.65,8.65,0,0,1,2.2-6.3,7.92,7.92,0,0,1,5.95-2.27,7.18,7.18,0,0,1,5.59,2.21,8.71,8.71,0,0,1,2,6.11,8.57,8.57,0,0,1-2.17,6.13A7.55,7.55,0,0,1,232.86,282Zm.19-14.59a4.88,4.88,0,0,0-3.91,1.68,6.88,6.88,0,0,0-1.44,4.63,6.54,6.54,0,0,0,1.46,4.49,4.93,4.93,0,0,0,3.89,1.64,4.7,4.7,0,0,0,3.82-1.61,7,7,0,0,0,1.33-4.58,7.13,7.13,0,0,0-1.33-4.63A4.68,4.68,0,0,0,233.05,267.37Z" transform="translate(-20.22 -27.03)"/><path d="M266.55,274.23h-11.3a6,6,0,0,0,1.44,4.12,4.93,4.93,0,0,0,3.78,1.46,7.91,7.91,0,0,0,5-1.78v2.4a9.31,9.31,0,0,1-5.58,1.53,6.74,6.74,0,0,1-5.33-2.18,8.91,8.91,0,0,1-1.94-6.13,8.77,8.77,0,0,1,2.12-6.09,6.82,6.82,0,0,1,5.26-2.35,6,6,0,0,1,4.86,2,8.52,8.52,0,0,1,1.72,5.64Zm-2.63-2.17a5.26,5.26,0,0,0-1.07-3.46,3.65,3.65,0,0,0-2.93-1.23,4.13,4.13,0,0,0-3.08,1.3,5.89,5.89,0,0,0-1.56,3.39Z" transform="translate(-20.22 -27.03)"/><path d="M269.45,281v-2.75a7.6,7.6,0,0,0,4.61,1.55c2.25,0,3.38-.75,3.38-2.25a2,2,0,0,0-.29-1.09,2.79,2.79,0,0,0-.78-.79,6.62,6.62,0,0,0-1.16-.62l-1.43-.57a17.66,17.66,0,0,1-1.87-.85,5.57,5.57,0,0,1-1.34-1,3.52,3.52,0,0,1-.81-1.22,4.41,4.41,0,0,1-.28-1.61,3.83,3.83,0,0,1,.52-2,4.47,4.47,0,0,1,1.38-1.46,6.37,6.37,0,0,1,2-.88,8.57,8.57,0,0,1,2.27-.3,9.21,9.21,0,0,1,3.72.72v2.6a7.18,7.18,0,0,0-4.06-1.16,4.72,4.72,0,0,0-1.3.16,3.24,3.24,0,0,0-1,.46,2.09,2.09,0,0,0-.64.72,1.76,1.76,0,0,0-.23.91,2.12,2.12,0,0,0,.23,1.05,2.32,2.32,0,0,0,.66.75,5.8,5.8,0,0,0,1.06.59l1.42.58c.71.27,1.35.55,1.91.83a6.83,6.83,0,0,1,1.44,1,4.18,4.18,0,0,1,.71,5,4.51,4.51,0,0,1-1.4,1.45,6.35,6.35,0,0,1-2,.86,9.78,9.78,0,0,1-2.39.28A9.16,9.16,0,0,1,269.45,281Z" transform="translate(-20.22 -27.03)"/><path d="M294.91,280.85a8.34,8.34,0,0,1-4.38,1.11,7.25,7.25,0,0,1-5.52-2.22,8.09,8.09,0,0,1-2.1-5.78,8.88,8.88,0,0,1,2.26-6.35,7.93,7.93,0,0,1,6.05-2.4,8.47,8.47,0,0,1,3.72.78v2.63a6.55,6.55,0,0,0-3.82-1.25,5.17,5.17,0,0,0-4,1.76,6.64,6.64,0,0,0-1.57,4.61,6.32,6.32,0,0,0,1.48,4.44,5.06,5.06,0,0,0,4,1.63,6.49,6.49,0,0,0,3.94-1.39Z" transform="translate(-20.22 -27.03)"/><path d="M310.23,281.59h-2.56v-2.5h-.06a5.38,5.38,0,0,1-4.92,2.87A5.26,5.26,0,0,1,299,280.7a4.38,4.38,0,0,1-1.36-3.36q0-4.48,5.29-5.22l4.79-.67q0-4.08-3.29-4.08a7.88,7.88,0,0,0-5.22,2v-2.63a9.89,9.89,0,0,1,5.43-1.5q5.64,0,5.64,6Zm-2.56-8.1-3.86.54a6.23,6.23,0,0,0-2.69.88,2.55,2.55,0,0,0-.9,2.24,2.45,2.45,0,0,0,.83,1.91,3.22,3.22,0,0,0,2.23.75,4.13,4.13,0,0,0,3.15-1.34,4.76,4.76,0,0,0,1.24-3.38Z" transform="translate(-20.22 -27.03)"/><path d="M317.62,281.59h-2.56V257.9h2.56Z" transform="translate(-20.22 -27.03)"/><path d="M334.27,281.59H331.7v-2.5h-.06a5.37,5.37,0,0,1-4.92,2.87A5.26,5.26,0,0,1,323,280.7a4.41,4.41,0,0,1-1.36-3.36q0-4.48,5.29-5.22l4.79-.67q0-4.08-3.29-4.08a7.88,7.88,0,0,0-5.22,2v-2.63a9.89,9.89,0,0,1,5.43-1.5c3.76,0,5.65,2,5.65,6Zm-2.57-8.1-3.86.54a6.18,6.18,0,0,0-2.68.88,2.53,2.53,0,0,0-.91,2.24,2.42,2.42,0,0,0,.84,1.91,3.17,3.17,0,0,0,2.22.75,4.13,4.13,0,0,0,3.15-1.34,4.76,4.76,0,0,0,1.24-3.38Z" transform="translate(-20.22 -27.03)"/><path d="M347.44,268.18a3.18,3.18,0,0,0-1.94-.51,3.26,3.26,0,0,0-2.74,1.54,7.12,7.12,0,0,0-1.1,4.22v8.16h-2.57v-16h2.57v3.29h.06a5.56,5.56,0,0,1,1.67-2.63,3.81,3.81,0,0,1,2.52-.94,4.13,4.13,0,0,1,1.53.22Z" transform="translate(-20.22 -27.03)"/><path d="M351.11,281.93a1.68,1.68,0,0,1-1.23-.51,1.79,1.79,0,0,1,0-2.48,1.65,1.65,0,0,1,1.23-.52,1.68,1.68,0,0,1,1.25.52,1.74,1.74,0,0,1,0,2.48A1.71,1.71,0,0,1,351.11,281.93Z" transform="translate(-20.22 -27.03)"/><path d="M34.81,320H22.94V297.58H34.31V300H25.56v7.45h8.1v2.36h-8.1v7.84h9.25Z" transform="translate(-20.22 -27.03)"/><path d="M52.06,320H49.5v-9.13q0-5.08-3.72-5.09a4,4,0,0,0-3.18,1.44,5.36,5.36,0,0,0-1.26,3.65V320H38.78V304h2.56v2.65h.07a5.76,5.76,0,0,1,5.25-3,4.89,4.89,0,0,1,4,1.7,7.53,7.53,0,0,1,1.39,4.9Z" transform="translate(-20.22 -27.03)"/><path d="M73.08,319.83a5,5,0,0,1-2.39.5c-2.8,0-4.21-1.56-4.21-4.69v-9.47H63.73V304h2.75v-3.91l2.57-.83V304h4v2.18h-4v9a3.79,3.79,0,0,0,.54,2.3,2.19,2.19,0,0,0,1.82.68,2.67,2.67,0,0,0,1.67-.53Z" transform="translate(-20.22 -27.03)"/><path d="M89.36,312.63H78.06a6,6,0,0,0,1.44,4.12,5,5,0,0,0,3.78,1.46,7.86,7.86,0,0,0,5-1.79v2.41a9.31,9.31,0,0,1-5.58,1.53,6.76,6.76,0,0,1-5.33-2.18,8.91,8.91,0,0,1-1.93-6.13A8.77,8.77,0,0,1,77.52,306a6.82,6.82,0,0,1,5.26-2.35,6,6,0,0,1,4.86,2,8.47,8.47,0,0,1,1.72,5.64Zm-2.63-2.17A5.21,5.21,0,0,0,85.66,307a3.65,3.65,0,0,0-2.93-1.23,4.11,4.11,0,0,0-3.07,1.3,5.84,5.84,0,0,0-1.57,3.39Zm-.4-14.63L82.23,301h-2l3.48-5.13Z" transform="translate(-20.22 -27.03)"/><path d="M101.58,306.58a3.18,3.18,0,0,0-1.94-.51,3.26,3.26,0,0,0-2.74,1.54,7.12,7.12,0,0,0-1.1,4.22V320H93.23V304H95.8v3.29h.06a5.56,5.56,0,0,1,1.67-2.63,3.81,3.81,0,0,1,2.52-.94,4.38,4.38,0,0,1,1.53.21Z" transform="translate(-20.22 -27.03)"/><path d="M127.08,320h-2.56V310.8a7,7,0,0,0-.82-3.84,3.13,3.13,0,0,0-2.76-1.19,3.4,3.4,0,0,0-2.79,1.5,5.71,5.71,0,0,0-1.15,3.59V320h-2.56v-9.5c0-3.15-1.22-4.72-3.64-4.72a3.35,3.35,0,0,0-2.78,1.41,5.86,5.86,0,0,0-1.1,3.68V320h-2.56V304h2.56v2.53H107a5.45,5.45,0,0,1,5-2.91,4.64,4.64,0,0,1,4.53,3.31,5.73,5.73,0,0,1,5.32-3.31q5.28,0,5.28,6.52Z" transform="translate(-20.22 -27.03)"/><path d="M133.23,299.92a1.65,1.65,0,0,1-1.17-.46,1.61,1.61,0,0,1-.48-1.19,1.63,1.63,0,0,1,.48-1.2,1.66,1.66,0,0,1,1.17-.47,1.69,1.69,0,0,1,1.2.47,1.6,1.6,0,0,1,.49,1.2,1.56,1.56,0,0,1-.49,1.17A1.66,1.66,0,0,1,133.23,299.92ZM134.48,320h-2.56V304h2.56Z" transform="translate(-20.22 -27.03)"/><path d="M153,320h-2.56v-9.13q0-5.08-3.72-5.09a4,4,0,0,0-3.18,1.44,5.36,5.36,0,0,0-1.26,3.65V320h-2.56V304h2.56v2.65h.07a5.76,5.76,0,0,1,5.25-3,4.88,4.88,0,0,1,4,1.7,7.53,7.53,0,0,1,1.39,4.9Z" transform="translate(-20.22 -27.03)"/><path d="M164.47,320.36a7.42,7.42,0,0,1-5.67-2.24,8.31,8.31,0,0,1-2.11-5.95,8.64,8.64,0,0,1,2.2-6.29,7.92,7.92,0,0,1,6-2.27,7.18,7.18,0,0,1,5.59,2.21,8.7,8.7,0,0,1,2,6.1,8.58,8.58,0,0,1-2.17,6.14A7.58,7.58,0,0,1,164.47,320.36Zm.19-14.59a4.88,4.88,0,0,0-3.91,1.68,6.88,6.88,0,0,0-1.44,4.63,6.54,6.54,0,0,0,1.46,4.49,4.93,4.93,0,0,0,3.89,1.64,4.7,4.7,0,0,0,3.82-1.61,7,7,0,0,0,1.33-4.58,7.13,7.13,0,0,0-1.33-4.63A4.68,4.68,0,0,0,164.66,305.77Z" transform="translate(-20.22 -27.03)"/><path d="M175.56,319.41v-2.75a7.6,7.6,0,0,0,4.61,1.55c2.25,0,3.38-.75,3.38-2.25a2,2,0,0,0-.29-1.09,3.08,3.08,0,0,0-.78-.79,6.62,6.62,0,0,0-1.16-.62l-1.43-.57A17.66,17.66,0,0,1,178,312a5.57,5.57,0,0,1-1.34-1,3.52,3.52,0,0,1-.81-1.22,4.21,4.21,0,0,1-.28-1.61,3.83,3.83,0,0,1,.52-2,4.54,4.54,0,0,1,1.37-1.46,6.54,6.54,0,0,1,2-.88,8.57,8.57,0,0,1,2.27-.3,9.21,9.21,0,0,1,3.72.72v2.59a7.25,7.25,0,0,0-4.06-1.15,4.72,4.72,0,0,0-1.3.16,3.24,3.24,0,0,0-1,.46,2.15,2.15,0,0,0-.64.71,1.82,1.82,0,0,0-.23.92,2.12,2.12,0,0,0,.23,1.05,2.32,2.32,0,0,0,.66.75,5.48,5.48,0,0,0,1.06.59l1.42.58c.71.27,1.35.55,1.91.83a6.83,6.83,0,0,1,1.44,1,3.9,3.9,0,0,1,.91,1.24,4.09,4.09,0,0,1,.32,1.68,3.92,3.92,0,0,1-.52,2.06,4.51,4.51,0,0,1-1.4,1.45,6.35,6.35,0,0,1-2,.86,9.78,9.78,0,0,1-2.39.28A9.16,9.16,0,0,1,175.56,319.41Z" transform="translate(-20.22 -27.03)"/><path d="M212.53,318.71q0,8.81-8.44,8.81a11.27,11.27,0,0,1-5.18-1.13v-2.56a10.64,10.64,0,0,0,5.15,1.5q5.91,0,5.91-6.28V317.3h-.06a6.48,6.48,0,0,1-10.31.93,8.54,8.54,0,0,1-1.82-5.73,9.92,9.92,0,0,1,2-6.48,6.58,6.58,0,0,1,5.37-2.41,5.23,5.23,0,0,1,4.8,2.6H210V304h2.56Zm-2.56-6v-2.36a4.55,4.55,0,0,0-1.29-3.26,4.23,4.23,0,0,0-3.21-1.36,4.43,4.43,0,0,0-3.72,1.73,7.67,7.67,0,0,0-1.34,4.83,6.59,6.59,0,0,0,1.29,4.27,4.14,4.14,0,0,0,3.41,1.61,4.44,4.44,0,0,0,3.51-1.54A5.69,5.69,0,0,0,210,312.75Z" transform="translate(-20.22 -27.03)"/><path d="M230.58,312.63h-11.3a6,6,0,0,0,1.44,4.12,5,5,0,0,0,3.78,1.46,7.86,7.86,0,0,0,5-1.79v2.41a9.31,9.31,0,0,1-5.58,1.53,6.74,6.74,0,0,1-5.33-2.18,8.91,8.91,0,0,1-1.94-6.13,8.77,8.77,0,0,1,2.12-6.09,6.82,6.82,0,0,1,5.26-2.35,6,6,0,0,1,4.86,2,8.52,8.52,0,0,1,1.72,5.64ZM228,310.46a5.21,5.21,0,0,0-1.07-3.46,3.65,3.65,0,0,0-2.93-1.23,4.1,4.1,0,0,0-3.07,1.3,5.84,5.84,0,0,0-1.57,3.39Z" transform="translate(-20.22 -27.03)"/><path d="M241.14,320.36a7.4,7.4,0,0,1-5.66-2.24,8.27,8.27,0,0,1-2.12-5.95,8.64,8.64,0,0,1,2.2-6.29,7.94,7.94,0,0,1,6-2.27,7.17,7.17,0,0,1,5.58,2.21,10,10,0,0,1-.15,12.24A7.62,7.62,0,0,1,241.14,320.36Zm.19-14.59a4.88,4.88,0,0,0-3.91,1.68,6.88,6.88,0,0,0-1.44,4.63,6.54,6.54,0,0,0,1.46,4.49,4.94,4.94,0,0,0,3.89,1.64,4.7,4.7,0,0,0,3.82-1.61,7,7,0,0,0,1.33-4.58,7.13,7.13,0,0,0-1.33-4.63A4.68,4.68,0,0,0,241.33,305.77Z" transform="translate(-20.22 -27.03)"/><path d="M275.92,320h-2.56V310.8a6.89,6.89,0,0,0-.82-3.84,3.13,3.13,0,0,0-2.76-1.19,3.43,3.43,0,0,0-2.79,1.5,5.77,5.77,0,0,0-1.15,3.59V320h-2.56v-9.5q0-4.73-3.64-4.72a3.38,3.38,0,0,0-2.78,1.41,5.85,5.85,0,0,0-1.09,3.68V320H253.2V304h2.57v2.53h.06a5.43,5.43,0,0,1,5-2.91,4.64,4.64,0,0,1,4.53,3.31,5.72,5.72,0,0,1,5.31-3.31q5.28,0,5.28,6.52Z" transform="translate(-20.22 -27.03)"/><path d="M293.62,312.63H282.33a6,6,0,0,0,1.44,4.12,4.93,4.93,0,0,0,3.78,1.46,7.88,7.88,0,0,0,5-1.79v2.41a9.31,9.31,0,0,1-5.58,1.53,6.74,6.74,0,0,1-5.33-2.18,8.91,8.91,0,0,1-1.94-6.13,8.77,8.77,0,0,1,2.12-6.09,6.81,6.81,0,0,1,5.26-2.35,6,6,0,0,1,4.86,2,8.52,8.52,0,0,1,1.71,5.64ZM291,310.46a5.26,5.26,0,0,0-1.07-3.46,3.65,3.65,0,0,0-2.93-1.23,4.13,4.13,0,0,0-3.08,1.3,5.89,5.89,0,0,0-1.56,3.39Zm-.41-14.63L286.5,301h-2l3.48-5.13Z" transform="translate(-20.22 -27.03)"/><path d="M304.92,319.83a5,5,0,0,1-2.39.5q-4.2,0-4.2-4.69v-9.47h-2.75V304h2.75v-3.91l2.56-.83V304h4v2.18h-4v9a3.72,3.72,0,0,0,.55,2.3,2.17,2.17,0,0,0,1.81.68,2.65,2.65,0,0,0,1.67-.53Z" transform="translate(-20.22 -27.03)"/><path d="M316.69,306.58a3.18,3.18,0,0,0-1.94-.51,3.26,3.26,0,0,0-2.74,1.54,7.12,7.12,0,0,0-1.1,4.22V320h-2.57V304h2.57v3.29H311a5.56,5.56,0,0,1,1.67-2.63,3.81,3.81,0,0,1,2.52-.94,4.38,4.38,0,0,1,1.53.21Z" transform="translate(-20.22 -27.03)"/><path d="M320.78,299.92a1.62,1.62,0,0,1-1.66-1.65,1.64,1.64,0,0,1,1.66-1.67,1.69,1.69,0,0,1,1.2.47,1.64,1.64,0,0,1,.49,1.2,1.6,1.6,0,0,1-.49,1.17A1.66,1.66,0,0,1,320.78,299.92ZM322,320h-2.56V304H322Z" transform="translate(-20.22 -27.03)"/><path d="M338.12,319.25a8.28,8.28,0,0,1-4.37,1.11,7.25,7.25,0,0,1-5.52-2.22,8.1,8.1,0,0,1-2.11-5.78,8.88,8.88,0,0,1,2.27-6.35,7.93,7.93,0,0,1,6.05-2.4,8.47,8.47,0,0,1,3.72.78V307a6.55,6.55,0,0,0-3.82-1.25,5.13,5.13,0,0,0-4,1.76,6.64,6.64,0,0,0-1.57,4.61,6.32,6.32,0,0,0,1.48,4.44,5.06,5.06,0,0,0,4,1.63,6.44,6.44,0,0,0,3.93-1.39Z" transform="translate(-20.22 -27.03)"/><path d="M348.69,320.36a7.4,7.4,0,0,1-5.67-2.24,8.31,8.31,0,0,1-2.11-5.95,8.64,8.64,0,0,1,2.2-6.29,7.92,7.92,0,0,1,5.95-2.27,7.18,7.18,0,0,1,5.59,2.21,10,10,0,0,1-.16,12.24A7.6,7.6,0,0,1,348.69,320.36Zm.19-14.59a4.88,4.88,0,0,0-3.91,1.68,6.88,6.88,0,0,0-1.44,4.63,6.59,6.59,0,0,0,1.45,4.49,5,5,0,0,0,3.9,1.64,4.71,4.71,0,0,0,3.82-1.61A7,7,0,0,0,354,312a7.13,7.13,0,0,0-1.33-4.63A4.69,4.69,0,0,0,348.88,305.77Z" transform="translate(-20.22 -27.03)"/><path d="M359.78,319.41v-2.75a7.6,7.6,0,0,0,4.61,1.55c2.25,0,3.38-.75,3.38-2.25a2,2,0,0,0-.29-1.09,3.08,3.08,0,0,0-.78-.79,6.62,6.62,0,0,0-1.16-.62l-1.43-.57a17.66,17.66,0,0,1-1.87-.85,5.57,5.57,0,0,1-1.34-1,3.52,3.52,0,0,1-.81-1.22,4.21,4.21,0,0,1-.28-1.61,3.74,3.74,0,0,1,.52-2,4.54,4.54,0,0,1,1.37-1.46,6.6,6.6,0,0,1,2-.88,8.7,8.7,0,0,1,2.28-.3,9.21,9.21,0,0,1,3.72.72v2.59a7.28,7.28,0,0,0-4.07-1.15,4.65,4.65,0,0,0-1.29.16,3.42,3.42,0,0,0-1,.46,2.26,2.26,0,0,0-.64.71,1.92,1.92,0,0,0-.22.92,2.23,2.23,0,0,0,.22,1.05,2.36,2.36,0,0,0,.67.75,5.48,5.48,0,0,0,1.06.59l1.42.58c.71.27,1.35.55,1.91.83a6.83,6.83,0,0,1,1.44,1,3.9,3.9,0,0,1,.91,1.24,4.09,4.09,0,0,1,.32,1.68,3.92,3.92,0,0,1-.52,2.06,4.51,4.51,0,0,1-1.4,1.45,6.45,6.45,0,0,1-2,.86,9.78,9.78,0,0,1-2.39.28A9.16,9.16,0,0,1,359.78,319.41Z" transform="translate(-20.22 -27.03)"/><path d="M36.25,358.39H33.69v-2.72h-.07a5.91,5.91,0,0,1-5.5,3.09,6,6,0,0,1-4.82-2.15,8.82,8.82,0,0,1-1.8-5.85,9.63,9.63,0,0,1,2-6.36A6.6,6.6,0,0,1,28.83,342a5.12,5.12,0,0,1,4.79,2.6h.07V334.7h2.56Zm-2.56-7.24v-2.36a4.6,4.6,0,0,0-1.28-3.28,4.33,4.33,0,0,0-3.25-1.34,4.4,4.4,0,0,0-3.69,1.72,7.5,7.5,0,0,0-1.35,4.75A6.74,6.74,0,0,0,25.41,355a4.23,4.23,0,0,0,3.47,1.61,4.38,4.38,0,0,0,3.47-1.55A5.76,5.76,0,0,0,33.69,351.15Z" transform="translate(-20.22 -27.03)"/><path d="M54.3,351H43a6,6,0,0,0,1.44,4.12,4.93,4.93,0,0,0,3.78,1.46,7.91,7.91,0,0,0,5-1.78v2.4a9.31,9.31,0,0,1-5.58,1.53,6.74,6.74,0,0,1-5.33-2.18,8.91,8.91,0,0,1-1.94-6.13,8.77,8.77,0,0,1,2.12-6.09A6.81,6.81,0,0,1,47.72,342a6,6,0,0,1,4.86,2,8.52,8.52,0,0,1,1.72,5.64Zm-2.63-2.17a5.26,5.26,0,0,0-1.07-3.46,3.65,3.65,0,0,0-2.93-1.23,4.13,4.13,0,0,0-3.08,1.3A5.89,5.89,0,0,0,43,348.86Z" transform="translate(-20.22 -27.03)"/><path d="M60.8,356.08h-.07v2.31H58.17V334.7h2.56v10.5h.07A6.07,6.07,0,0,1,66.33,342a5.87,5.87,0,0,1,4.82,2.15,8.87,8.87,0,0,1,1.74,5.76,9.92,9.92,0,0,1-2,6.43,6.51,6.51,0,0,1-5.35,2.41A5.25,5.25,0,0,1,60.8,356.08Zm-.07-6.46v2.24A4.74,4.74,0,0,0,62,355.22a4.26,4.26,0,0,0,3.28,1.39A4.32,4.32,0,0,0,69,354.83a8.19,8.19,0,0,0,1.32-5A6.5,6.5,0,0,0,69,345.68a4.08,4.08,0,0,0-3.34-1.51,4.57,4.57,0,0,0-3.6,1.55A5.75,5.75,0,0,0,60.73,349.62Z" transform="translate(-20.22 -27.03)"/><path d="M89.84,351H78.55A6,6,0,0,0,80,355.15a5,5,0,0,0,3.79,1.46,7.88,7.88,0,0,0,5-1.78v2.4a9.26,9.26,0,0,1-5.57,1.53,6.74,6.74,0,0,1-5.33-2.18,8.91,8.91,0,0,1-1.94-6.13A8.77,8.77,0,0,1,78,344.36,6.81,6.81,0,0,1,83.27,342a6,6,0,0,1,4.85,2,8.47,8.47,0,0,1,1.72,5.64Zm-2.62-2.17a5.26,5.26,0,0,0-1.07-3.46,3.65,3.65,0,0,0-2.93-1.23,4.12,4.12,0,0,0-3.08,1.3,5.89,5.89,0,0,0-1.56,3.39Z" transform="translate(-20.22 -27.03)"/><path d="M115.34,351H104.05a6,6,0,0,0,1.43,4.12,5,5,0,0,0,3.79,1.46,7.88,7.88,0,0,0,5-1.78v2.4a9.26,9.26,0,0,1-5.57,1.53,6.74,6.74,0,0,1-5.33-2.18,8.91,8.91,0,0,1-1.94-6.13,8.77,8.77,0,0,1,2.12-6.09,6.81,6.81,0,0,1,5.26-2.35,6,6,0,0,1,4.85,2,8.47,8.47,0,0,1,1.72,5.64Zm-2.62-2.17a5.26,5.26,0,0,0-1.07-3.46,3.65,3.65,0,0,0-2.93-1.23,4.12,4.12,0,0,0-3.08,1.3,5.89,5.89,0,0,0-1.56,3.39Z" transform="translate(-20.22 -27.03)"/><path d="M132.5,358.39h-2.56v-9.13q0-5.08-3.72-5.09a4,4,0,0,0-3.18,1.44,5.36,5.36,0,0,0-1.26,3.65v9.13h-2.56v-16h2.56V345h.06a5.78,5.78,0,0,1,5.25-3,4.91,4.91,0,0,1,4,1.7,7.53,7.53,0,0,1,1.39,4.9Z" transform="translate(-20.22 -27.03)"/><path d="M144.75,358.23a5,5,0,0,1-2.39.5q-4.2,0-4.2-4.69v-9.46h-2.75v-2.19h2.75v-3.91l2.56-.83v4.74h4v2.19h-4v9a3.72,3.72,0,0,0,.55,2.3,2.16,2.16,0,0,0,1.81.69,2.67,2.67,0,0,0,1.67-.54Z" transform="translate(-20.22 -27.03)"/><path d="M161,351h-11.3a6,6,0,0,0,1.44,4.12,5,5,0,0,0,3.78,1.46,7.91,7.91,0,0,0,5-1.78v2.4a9.27,9.27,0,0,1-5.58,1.53,6.72,6.72,0,0,1-5.32-2.18,8.86,8.86,0,0,1-1.94-6.13,8.72,8.72,0,0,1,2.12-6.09,6.8,6.8,0,0,1,5.25-2.35,6,6,0,0,1,4.86,2,8.47,8.47,0,0,1,1.72,5.64Zm-2.62-2.17a5.26,5.26,0,0,0-1.07-3.46,3.66,3.66,0,0,0-2.93-1.23,4.12,4.12,0,0,0-3.08,1.3,5.77,5.77,0,0,0-1.56,3.39Z" transform="translate(-20.22 -27.03)"/><path d="M178.19,358.39h-2.57v-9.13c0-3.39-1.23-5.09-3.71-5.09a4,4,0,0,0-3.18,1.44,5.36,5.36,0,0,0-1.26,3.65v9.13h-2.56v-16h2.56V345h.06a5.78,5.78,0,0,1,5.25-3,4.91,4.91,0,0,1,4,1.7,7.59,7.59,0,0,1,1.39,4.9Z" transform="translate(-20.22 -27.03)"/><path d="M196.67,358.39h-2.56v-2.72h-.06a6.46,6.46,0,0,1-10.32.94,8.77,8.77,0,0,1-1.81-5.85,9.63,9.63,0,0,1,2-6.36,6.6,6.6,0,0,1,5.33-2.39,5.13,5.13,0,0,1,4.8,2.6h.06V334.7h2.56Zm-2.56-7.24v-2.36a4.6,4.6,0,0,0-1.28-3.28,4.33,4.33,0,0,0-3.25-1.34,4.43,4.43,0,0,0-3.69,1.72,7.5,7.5,0,0,0-1.34,4.75,6.74,6.74,0,0,0,1.29,4.36,4.21,4.21,0,0,0,3.46,1.61,4.38,4.38,0,0,0,3.47-1.55A5.76,5.76,0,0,0,194.11,351.15Z" transform="translate(-20.22 -27.03)"/><path d="M214.72,351h-11.3a6,6,0,0,0,1.44,4.12,5,5,0,0,0,3.78,1.46,7.91,7.91,0,0,0,5-1.78v2.4a9.31,9.31,0,0,1-5.58,1.53,6.74,6.74,0,0,1-5.33-2.18,8.91,8.91,0,0,1-1.93-6.13,8.77,8.77,0,0,1,2.11-6.09,6.82,6.82,0,0,1,5.26-2.35,6,6,0,0,1,4.86,2,8.47,8.47,0,0,1,1.72,5.64Zm-2.63-2.17A5.21,5.21,0,0,0,211,345.4a3.65,3.65,0,0,0-2.93-1.23,4.1,4.1,0,0,0-3.07,1.3,5.84,5.84,0,0,0-1.57,3.39Z" transform="translate(-20.22 -27.03)"/><path d="M226.94,345a3.18,3.18,0,0,0-1.94-.51,3.26,3.26,0,0,0-2.74,1.54,7.12,7.12,0,0,0-1.1,4.22v8.16h-2.57v-16h2.57v3.29h.06a5.56,5.56,0,0,1,1.67-2.63,3.81,3.81,0,0,1,2.52-.94,4.13,4.13,0,0,1,1.53.22Z" transform="translate(-20.22 -27.03)"/><path d="M228.75,357.81v-2.75a7.6,7.6,0,0,0,4.61,1.55c2.25,0,3.37-.75,3.37-2.25a2,2,0,0,0-.28-1.09,3,3,0,0,0-.79-.79,6.18,6.18,0,0,0-1.15-.62l-1.43-.57a17.66,17.66,0,0,1-1.87-.85,5.38,5.38,0,0,1-1.34-1,3.7,3.7,0,0,1-.82-1.22,4.42,4.42,0,0,1-.27-1.61,3.74,3.74,0,0,1,.52-2,4.54,4.54,0,0,1,1.37-1.46,6.48,6.48,0,0,1,2-.88,8.64,8.64,0,0,1,2.28-.3,9.13,9.13,0,0,1,3.71.72v2.6a7.16,7.16,0,0,0-4.06-1.16,4.65,4.65,0,0,0-1.29.16,3.42,3.42,0,0,0-1,.46,2.26,2.26,0,0,0-.64.71,1.92,1.92,0,0,0-.22.92,2,2,0,0,0,.89,1.8,5.48,5.48,0,0,0,1.06.59l1.42.58c.71.27,1.34.55,1.91.83a6.51,6.51,0,0,1,1.43,1,3.78,3.78,0,0,1,.92,1.24,4.09,4.09,0,0,1,.32,1.68,4,4,0,0,1-.52,2.06,4.51,4.51,0,0,1-1.4,1.45,6.45,6.45,0,0,1-2,.86,9.84,9.84,0,0,1-2.39.28A9.13,9.13,0,0,1,228.75,357.81Z" transform="translate(-20.22 -27.03)"/><path d="M256.16,351h-11.3a6,6,0,0,0,1.44,4.12,4.93,4.93,0,0,0,3.78,1.46,7.91,7.91,0,0,0,5-1.78v2.4a9.31,9.31,0,0,1-5.58,1.53,6.74,6.74,0,0,1-5.33-2.18,8.91,8.91,0,0,1-1.94-6.13,8.77,8.77,0,0,1,2.12-6.09,6.81,6.81,0,0,1,5.26-2.35,6,6,0,0,1,4.86,2,8.52,8.52,0,0,1,1.72,5.64Zm-2.63-2.17a5.26,5.26,0,0,0-1.07-3.46,3.65,3.65,0,0,0-2.93-1.23,4.13,4.13,0,0,0-3.08,1.3,5.89,5.89,0,0,0-1.56,3.39Z" transform="translate(-20.22 -27.03)"/><path d="M279.7,357.65a8.3,8.3,0,0,1-4.37,1.11,7.28,7.28,0,0,1-5.53-2.22,8.09,8.09,0,0,1-2.1-5.78,8.88,8.88,0,0,1,2.27-6.35,7.92,7.92,0,0,1,6-2.4,8.4,8.4,0,0,1,3.71.78v2.63a6.5,6.5,0,0,0-3.81-1.25,5.13,5.13,0,0,0-4,1.76,6.64,6.64,0,0,0-1.57,4.61A6.36,6.36,0,0,0,271.8,355a5.09,5.09,0,0,0,4,1.63,6.46,6.46,0,0,0,3.93-1.39Z" transform="translate(-20.22 -27.03)"/><path d="M290.27,358.76a7.4,7.4,0,0,1-5.67-2.24,8.31,8.31,0,0,1-2.12-5.94,8.65,8.65,0,0,1,2.21-6.3,7.92,7.92,0,0,1,5.95-2.27,7.18,7.18,0,0,1,5.59,2.21,8.75,8.75,0,0,1,2,6.11,8.61,8.61,0,0,1-2.16,6.13A7.56,7.56,0,0,1,290.27,358.76Zm.18-14.59a4.86,4.86,0,0,0-3.9,1.68,6.88,6.88,0,0,0-1.44,4.63,6.54,6.54,0,0,0,1.45,4.49,5,5,0,0,0,3.89,1.64,4.69,4.69,0,0,0,3.82-1.61,7,7,0,0,0,1.34-4.58,7.14,7.14,0,0,0-1.34-4.63A4.66,4.66,0,0,0,290.45,344.17Z" transform="translate(-20.22 -27.03)"/><path d="M325.05,358.39h-2.57V349.2a6.89,6.89,0,0,0-.82-3.84,3.1,3.1,0,0,0-2.75-1.19,3.4,3.4,0,0,0-2.79,1.5,5.71,5.71,0,0,0-1.15,3.59v9.13h-2.56v-9.5c0-3.15-1.22-4.72-3.64-4.72a3.39,3.39,0,0,0-2.79,1.41,5.85,5.85,0,0,0-1.09,3.68v9.13h-2.56v-16h2.56v2.53H305a5.44,5.44,0,0,1,5-2.91,4.63,4.63,0,0,1,4.53,3.32,5.72,5.72,0,0,1,5.32-3.32q5.28,0,5.28,6.52Z" transform="translate(-20.22 -27.03)"/><path d="M336.58,358.76a7.42,7.42,0,0,1-5.67-2.24,8.3,8.3,0,0,1-2.11-5.94,8.65,8.65,0,0,1,2.2-6.3A7.92,7.92,0,0,1,337,342a7.18,7.18,0,0,1,5.59,2.21,8.71,8.71,0,0,1,2,6.11,8.57,8.57,0,0,1-2.17,6.13A7.56,7.56,0,0,1,336.58,358.76Zm.19-14.59a4.88,4.88,0,0,0-3.91,1.68,6.88,6.88,0,0,0-1.44,4.63,6.54,6.54,0,0,0,1.46,4.49,4.93,4.93,0,0,0,3.89,1.64,4.7,4.7,0,0,0,3.82-1.61,7,7,0,0,0,1.33-4.58,7.13,7.13,0,0,0-1.33-4.63A4.68,4.68,0,0,0,336.77,344.17Z" transform="translate(-20.22 -27.03)"/><path d="M360,358.39h-2.56V334.7H360Z" transform="translate(-20.22 -27.03)"/><path d="M376.61,358.39h-2.56v-2.5H374a5.36,5.36,0,0,1-4.92,2.87,5.27,5.27,0,0,1-3.74-1.26,4.41,4.41,0,0,1-1.35-3.36q0-4.49,5.28-5.22l4.8-.67q0-4.08-3.3-4.08a7.88,7.88,0,0,0-5.22,2v-2.63A9.92,9.92,0,0,1,371,342q5.64,0,5.64,6Zm-2.56-8.1-3.86.54a6.18,6.18,0,0,0-2.69.88,2.55,2.55,0,0,0-.91,2.24,2.42,2.42,0,0,0,.84,1.91,3.22,3.22,0,0,0,2.23.75,4.09,4.09,0,0,0,3.14-1.34,4.77,4.77,0,0,0,1.25-3.38Z" transform="translate(-20.22 -27.03)"/><path d="M25.22,394.47h-.06v9.68H22.59V380.79h2.57v2.81h.06a6,6,0,0,1,5.53-3.19,5.88,5.88,0,0,1,4.83,2.15,8.93,8.93,0,0,1,1.73,5.76,9.92,9.92,0,0,1-2,6.43A6.49,6.49,0,0,1,30,397.16,5.33,5.33,0,0,1,25.22,394.47ZM25.16,388v2.24a4.74,4.74,0,0,0,1.29,3.36,4.58,4.58,0,0,0,6.92-.4,8.14,8.14,0,0,0,1.32-5,6.42,6.42,0,0,0-1.24-4.19,4.07,4.07,0,0,0-3.34-1.51,4.54,4.54,0,0,0-3.59,1.55A5.71,5.71,0,0,0,25.16,388Z" transform="translate(-20.22 -27.03)"/><path d="M49.75,383.38a3.16,3.16,0,0,0-1.94-.51,3.26,3.26,0,0,0-2.74,1.54,7.19,7.19,0,0,0-1.1,4.22v8.16H41.41v-16H44v3.29H44a5.64,5.64,0,0,1,1.67-2.63,3.81,3.81,0,0,1,2.52-.94,4.31,4.31,0,0,1,1.53.21Z" transform="translate(-20.22 -27.03)"/><path d="M59.22,397.16a7.42,7.42,0,0,1-5.67-2.24A8.31,8.31,0,0,1,51.44,389a8.64,8.64,0,0,1,2.2-6.29,7.92,7.92,0,0,1,6-2.27,7.18,7.18,0,0,1,5.59,2.21,8.7,8.7,0,0,1,2,6.1A8.58,8.58,0,0,1,65,394.86,7.58,7.58,0,0,1,59.22,397.16Zm.19-14.59a4.88,4.88,0,0,0-3.91,1.68,6.88,6.88,0,0,0-1.44,4.63,6.54,6.54,0,0,0,1.46,4.49A4.93,4.93,0,0,0,59.41,395a4.7,4.7,0,0,0,3.82-1.61,7,7,0,0,0,1.33-4.58,7.13,7.13,0,0,0-1.33-4.63A4.68,4.68,0,0,0,59.41,382.57Z" transform="translate(-20.22 -27.03)"/><path d="M84,380.79l-7.36,18.56c-1.32,3.31-3.16,5-5.54,5a6.11,6.11,0,0,1-1.67-.2v-2.3a4.68,4.68,0,0,0,1.52.28q1.94,0,2.91-2.31l1.28-3-6.25-16h2.84l4.33,12.31c0,.16.16.56.33,1.22h.09c0-.25.16-.65.31-1.19l4.55-12.34Z" transform="translate(-20.22 -27.03)"/><path d="M99.62,389.43H88.33a6,6,0,0,0,1.44,4.12A4.93,4.93,0,0,0,93.55,395a7.88,7.88,0,0,0,5-1.79v2.41a9.31,9.31,0,0,1-5.58,1.53A6.74,6.74,0,0,1,87.61,395a8.91,8.91,0,0,1-1.94-6.13,8.77,8.77,0,0,1,2.12-6.09,6.81,6.81,0,0,1,5.26-2.35,6,6,0,0,1,4.86,2,8.52,8.52,0,0,1,1.71,5.64ZM97,387.26a5.26,5.26,0,0,0-1.07-3.46A3.65,3.65,0,0,0,93,382.57a4.13,4.13,0,0,0-3.08,1.3,5.89,5.89,0,0,0-1.56,3.39Z" transform="translate(-20.22 -27.03)"/><path d="M114.41,396.05a8.34,8.34,0,0,1-4.38,1.11,7.25,7.25,0,0,1-5.52-2.22,8.09,8.09,0,0,1-2.1-5.78,8.88,8.88,0,0,1,2.26-6.35,7.93,7.93,0,0,1,6-2.4,8.47,8.47,0,0,1,3.72.78v2.63a6.55,6.55,0,0,0-3.82-1.25,5.13,5.13,0,0,0-4,1.76,6.64,6.64,0,0,0-1.57,4.61,6.32,6.32,0,0,0,1.48,4.44,5.09,5.09,0,0,0,4,1.63,6.49,6.49,0,0,0,3.94-1.39Z" transform="translate(-20.22 -27.03)"/><path d="M129.19,396.05a8.34,8.34,0,0,1-4.38,1.11,7.25,7.25,0,0,1-5.52-2.22,8.09,8.09,0,0,1-2.1-5.78,8.88,8.88,0,0,1,2.26-6.35,7.93,7.93,0,0,1,6-2.4,8.41,8.41,0,0,1,3.72.78v2.63a6.55,6.55,0,0,0-3.81-1.25,5.14,5.14,0,0,0-4,1.76,6.69,6.69,0,0,0-1.57,4.61,6.32,6.32,0,0,0,1.48,4.44,5.09,5.09,0,0,0,4,1.63,6.47,6.47,0,0,0,3.94-1.39Z" transform="translate(-20.22 -27.03)"/><path d="M134.38,376.72a1.65,1.65,0,0,1-1.18-.46,1.61,1.61,0,0,1-.48-1.19,1.63,1.63,0,0,1,.48-1.2,1.66,1.66,0,0,1,1.18-.47,1.69,1.69,0,0,1,1.19.47,1.6,1.6,0,0,1,.49,1.2,1.56,1.56,0,0,1-.49,1.17A1.65,1.65,0,0,1,134.38,376.72Zm1.24,20.07h-2.56v-16h2.56Z" transform="translate(-20.22 -27.03)"/><path d="M147.5,397.16a7.4,7.4,0,0,1-5.66-2.24,8.27,8.27,0,0,1-2.12-5.95,8.64,8.64,0,0,1,2.2-6.29,7.94,7.94,0,0,1,6-2.27,7.17,7.17,0,0,1,5.58,2.21,8.7,8.7,0,0,1,2,6.1,8.58,8.58,0,0,1-2.17,6.14A7.58,7.58,0,0,1,147.5,397.16Zm.19-14.59a4.88,4.88,0,0,0-3.91,1.68,6.88,6.88,0,0,0-1.44,4.63,6.54,6.54,0,0,0,1.46,4.49,4.94,4.94,0,0,0,3.89,1.64,4.7,4.7,0,0,0,3.82-1.61,7,7,0,0,0,1.33-4.58,7.13,7.13,0,0,0-1.33-4.63A4.68,4.68,0,0,0,147.69,382.57Zm3.75-9.94-4.1,5.13h-2l3.48-5.13Z" transform="translate(-20.22 -27.03)"/><path d="M172.84,396.79h-2.56v-9.13q0-5.09-3.72-5.09a4,4,0,0,0-3.18,1.44,5.36,5.36,0,0,0-1.26,3.65v9.13h-2.56v-16h2.56v2.65h.07a5.78,5.78,0,0,1,5.25-3,4.88,4.88,0,0,1,4,1.7,7.53,7.53,0,0,1,1.39,4.9Z" transform="translate(-20.22 -27.03)"/><path d="M200.09,396.79h-2.56v-2.72h-.06a6.46,6.46,0,0,1-10.32.94,8.82,8.82,0,0,1-1.81-5.85,9.63,9.63,0,0,1,2-6.36,6.62,6.62,0,0,1,5.33-2.39,5.13,5.13,0,0,1,4.8,2.6h.06V373.1h2.56Zm-2.56-7.24v-2.36a4.6,4.6,0,0,0-1.28-3.28,4.31,4.31,0,0,0-3.25-1.34,4.43,4.43,0,0,0-3.69,1.72A7.56,7.56,0,0,0,188,389a6.74,6.74,0,0,0,1.29,4.36,4.21,4.21,0,0,0,3.46,1.61,4.4,4.4,0,0,0,3.48-1.55A5.76,5.76,0,0,0,197.53,389.55Z" transform="translate(-20.22 -27.03)"/><path d="M218.14,389.43h-11.3a6,6,0,0,0,1.44,4.12,5,5,0,0,0,3.78,1.46,7.86,7.86,0,0,0,5-1.79v2.41a9.29,9.29,0,0,1-5.58,1.53,6.76,6.76,0,0,1-5.33-2.18,8.91,8.91,0,0,1-1.93-6.13,8.77,8.77,0,0,1,2.11-6.09,6.84,6.84,0,0,1,5.26-2.35,6,6,0,0,1,4.86,2,8.47,8.47,0,0,1,1.72,5.64Zm-2.62-2.17a5.32,5.32,0,0,0-1.07-3.46,3.66,3.66,0,0,0-2.93-1.23,4.12,4.12,0,0,0-3.08,1.3,5.77,5.77,0,0,0-1.56,3.39Z" transform="translate(-20.22 -27.03)"/><path d="M243.72,396.79h-2.56v-2.53h-.07a5.27,5.27,0,0,1-4.93,2.9q-5.73,0-5.72-6.81v-9.56H233v9.15c0,3.38,1.3,5.07,3.88,5.07a3.94,3.94,0,0,0,3.09-1.39,5.3,5.3,0,0,0,1.21-3.61v-9.22h2.56Z" transform="translate(-20.22 -27.03)"/><path d="M262.17,396.79h-2.56v-9.13q0-5.09-3.72-5.09a4,4,0,0,0-3.18,1.44,5.36,5.36,0,0,0-1.26,3.65v9.13h-2.56v-16h2.56v2.65h.07a5.76,5.76,0,0,1,5.25-3,4.89,4.89,0,0,1,4,1.7,7.53,7.53,0,0,1,1.39,4.9Z" transform="translate(-20.22 -27.03)"/><path d="M288.34,380.79l-6.37,16h-2.52l-6.06-16h2.81l4.07,11.62a11,11,0,0,1,.56,2.24h.06a10.27,10.27,0,0,1,.5-2.18l4.25-11.68Z" transform="translate(-20.22 -27.03)"/><path d="M304,389.43H292.66a6,6,0,0,0,1.43,4.12,5,5,0,0,0,3.79,1.46,7.84,7.84,0,0,0,5-1.79v2.41a9.26,9.26,0,0,1-5.57,1.53,6.73,6.73,0,0,1-5.33-2.18,8.91,8.91,0,0,1-1.94-6.13,8.77,8.77,0,0,1,2.12-6.09,6.81,6.81,0,0,1,5.26-2.35,6,6,0,0,1,4.85,2,8.47,8.47,0,0,1,1.72,5.64Zm-2.62-2.17a5.26,5.26,0,0,0-1.07-3.46,3.66,3.66,0,0,0-2.93-1.23,4.12,4.12,0,0,0-3.08,1.3,5.83,5.83,0,0,0-1.56,3.39Z" transform="translate(-20.22 -27.03)"/><path d="M318.73,396.05a8.3,8.3,0,0,1-4.37,1.11,7.25,7.25,0,0,1-5.52-2.22,8.05,8.05,0,0,1-2.11-5.78,8.88,8.88,0,0,1,2.27-6.35,7.93,7.93,0,0,1,6.05-2.4,8.47,8.47,0,0,1,3.72.78v2.63a6.55,6.55,0,0,0-3.82-1.25,5.13,5.13,0,0,0-4,1.76,6.64,6.64,0,0,0-1.57,4.61,6.32,6.32,0,0,0,1.48,4.44,5.09,5.09,0,0,0,4,1.63,6.46,6.46,0,0,0,3.93-1.39Z" transform="translate(-20.22 -27.03)"/><path d="M330,396.63a5,5,0,0,1-2.39.5q-4.2,0-4.2-4.69V383h-2.75v-2.18h2.75v-3.91l2.56-.83v4.74h4V383h-4v9a3.72,3.72,0,0,0,.55,2.3,2.17,2.17,0,0,0,1.81.68,2.67,2.67,0,0,0,1.67-.53Z" transform="translate(-20.22 -27.03)"/><path d="M340.14,397.16a7.4,7.4,0,0,1-5.66-2.24,8.27,8.27,0,0,1-2.12-5.95,8.64,8.64,0,0,1,2.2-6.29,7.94,7.94,0,0,1,6-2.27,7.17,7.17,0,0,1,5.58,2.21,10,10,0,0,1-.15,12.24A7.62,7.62,0,0,1,340.14,397.16Zm.19-14.59a4.88,4.88,0,0,0-3.91,1.68,6.88,6.88,0,0,0-1.44,4.63,6.54,6.54,0,0,0,1.46,4.49,4.94,4.94,0,0,0,3.89,1.64,4.7,4.7,0,0,0,3.82-1.61,7,7,0,0,0,1.33-4.58,7.13,7.13,0,0,0-1.33-4.63A4.68,4.68,0,0,0,340.33,382.57Z" transform="translate(-20.22 -27.03)"/><path d="M360.55,383.38a3.18,3.18,0,0,0-1.94-.51,3.26,3.26,0,0,0-2.74,1.54,7.12,7.12,0,0,0-1.1,4.22v8.16H352.2v-16h2.57v3.29h.06a5.56,5.56,0,0,1,1.67-2.63,3.81,3.81,0,0,1,2.52-.94,4.38,4.38,0,0,1,1.53.21Z" transform="translate(-20.22 -27.03)"/><path d="M21.62,434.61v-2.75a7.62,7.62,0,0,0,4.61,1.55c2.25,0,3.38-.75,3.38-2.25a2,2,0,0,0-.29-1.09,2.79,2.79,0,0,0-.78-.79,6.28,6.28,0,0,0-1.16-.62L26,428.09a16.57,16.57,0,0,1-1.86-.85,5.44,5.44,0,0,1-1.35-1,3.52,3.52,0,0,1-.81-1.22,4.42,4.42,0,0,1-.27-1.61,3.83,3.83,0,0,1,.51-2A4.58,4.58,0,0,1,23.55,420a6.37,6.37,0,0,1,2-.88,8.57,8.57,0,0,1,2.27-.3,9.14,9.14,0,0,1,3.72.72v2.59A7.25,7.25,0,0,0,27.44,421a4.77,4.77,0,0,0-1.3.16,3.24,3.24,0,0,0-1,.46,2.15,2.15,0,0,0-.64.71,1.93,1.93,0,0,0-.23.92,2.23,2.23,0,0,0,.23,1,2.32,2.32,0,0,0,.66.75,5.8,5.8,0,0,0,1.06.59l1.43.58c.7.27,1.34.55,1.9.83A6.83,6.83,0,0,1,31,428a3.75,3.75,0,0,1,.91,1.24,4.44,4.44,0,0,1-.2,3.74,4.4,4.4,0,0,1-1.4,1.45,6.3,6.3,0,0,1-2,.86,9.84,9.84,0,0,1-2.39.28A9.17,9.17,0,0,1,21.62,434.61Z" transform="translate(-20.22 -27.03)"/><path d="M42.86,435.56a7.38,7.38,0,0,1-5.66-2.24,8.26,8.26,0,0,1-2.12-5.94,8.65,8.65,0,0,1,2.2-6.3,7.92,7.92,0,0,1,5.95-2.27A7.18,7.18,0,0,1,48.82,421a8.7,8.7,0,0,1,2,6.1,8.58,8.58,0,0,1-2.17,6.14A7.58,7.58,0,0,1,42.86,435.56ZM43.05,421a4.88,4.88,0,0,0-3.91,1.68,6.88,6.88,0,0,0-1.44,4.63,6.54,6.54,0,0,0,1.46,4.49,4.93,4.93,0,0,0,3.89,1.64,4.7,4.7,0,0,0,3.82-1.61,7,7,0,0,0,1.33-4.58,7.13,7.13,0,0,0-1.33-4.63A4.68,4.68,0,0,0,43.05,421Z" transform="translate(-20.22 -27.03)"/><path d="M57.55,432.88h-.07v2.31H54.92V411.5h2.56V422h.07a6.07,6.07,0,0,1,5.53-3.19A5.87,5.87,0,0,1,67.9,421a8.87,8.87,0,0,1,1.74,5.76,9.92,9.92,0,0,1-2,6.43,6.51,6.51,0,0,1-5.35,2.41A5.25,5.25,0,0,1,57.55,432.88Zm-.07-6.46v2.24A4.74,4.74,0,0,0,58.77,432a4.26,4.26,0,0,0,3.28,1.39,4.31,4.31,0,0,0,3.65-1.79A8.14,8.14,0,0,0,67,426.67a6.5,6.5,0,0,0-1.24-4.19A4.08,4.08,0,0,0,62.44,421a4.57,4.57,0,0,0-3.6,1.55A5.75,5.75,0,0,0,57.48,426.42Z" transform="translate(-20.22 -27.03)"/><path d="M82.08,421.78a3.18,3.18,0,0,0-1.94-.51,3.26,3.26,0,0,0-2.74,1.54A7.12,7.12,0,0,0,76.3,427v8.16H73.73v-16H76.3v3.29h.06A5.56,5.56,0,0,1,78,419.85a3.81,3.81,0,0,1,2.52-.94,4.38,4.38,0,0,1,1.53.21Z" transform="translate(-20.22 -27.03)"/><path d="M97.72,427.83H86.42A6,6,0,0,0,87.86,432a5,5,0,0,0,3.78,1.46,7.86,7.86,0,0,0,5-1.79V434A9.31,9.31,0,0,1,91,435.56a6.74,6.74,0,0,1-5.33-2.18,8.91,8.91,0,0,1-1.93-6.13,8.77,8.77,0,0,1,2.11-6.09,6.82,6.82,0,0,1,5.26-2.35,6,6,0,0,1,4.86,2,8.47,8.47,0,0,1,1.72,5.64Zm-2.63-2.17A5.21,5.21,0,0,0,94,422.2,3.65,3.65,0,0,0,91.09,421a4.11,4.11,0,0,0-3.07,1.3,5.84,5.84,0,0,0-1.57,3.39Z" transform="translate(-20.22 -27.03)"/><path d="M123.22,427.83h-11.3a6,6,0,0,0,1.44,4.12,5,5,0,0,0,3.78,1.46,7.86,7.86,0,0,0,5-1.79V434a9.31,9.31,0,0,1-5.58,1.53,6.74,6.74,0,0,1-5.33-2.18,8.91,8.91,0,0,1-1.93-6.13,8.77,8.77,0,0,1,2.11-6.09,6.82,6.82,0,0,1,5.26-2.35,6,6,0,0,1,4.86,2,8.47,8.47,0,0,1,1.72,5.64Zm-2.63-2.17a5.21,5.21,0,0,0-1.07-3.46,3.65,3.65,0,0,0-2.93-1.23,4.11,4.11,0,0,0-3.07,1.3,5.84,5.84,0,0,0-1.57,3.39Z" transform="translate(-20.22 -27.03)"/><path d="M129.66,435.19h-2.57V411.5h2.57Z" transform="translate(-20.22 -27.03)"/><path d="M150.3,435.56a7.4,7.4,0,0,1-5.67-2.24,8.3,8.3,0,0,1-2.11-5.94,8.65,8.65,0,0,1,2.2-6.3,7.92,7.92,0,0,1,5.95-2.27,7.18,7.18,0,0,1,5.59,2.21,10,10,0,0,1-.16,12.24A7.6,7.6,0,0,1,150.3,435.56Zm.18-14.59a4.87,4.87,0,0,0-3.9,1.68,6.88,6.88,0,0,0-1.44,4.63,6.54,6.54,0,0,0,1.45,4.49,5,5,0,0,0,3.89,1.64,4.69,4.69,0,0,0,3.82-1.61,7,7,0,0,0,1.34-4.58,7.08,7.08,0,0,0-1.34-4.63A4.66,4.66,0,0,0,150.48,421Z" transform="translate(-20.22 -27.03)"/><path d="M169.78,435a5,5,0,0,1-2.39.5q-4.2,0-4.2-4.69v-9.46h-2.75v-2.19h2.75v-3.91l2.56-.83v4.74h4v2.19h-4v9a3.72,3.72,0,0,0,.55,2.3,2.17,2.17,0,0,0,1.81.69,2.67,2.67,0,0,0,1.67-.54Z" transform="translate(-20.22 -27.03)"/><path d="M181.55,421.78a3.18,3.18,0,0,0-1.94-.51,3.26,3.26,0,0,0-2.74,1.54,7.12,7.12,0,0,0-1.1,4.22v8.16H173.2v-16h2.57v3.29h.06a5.56,5.56,0,0,1,1.67-2.63,3.81,3.81,0,0,1,2.52-.94,4.38,4.38,0,0,1,1.53.21Z" transform="translate(-20.22 -27.03)"/><path d="M191,435.56a7.4,7.4,0,0,1-5.67-2.24,8.31,8.31,0,0,1-2.12-5.94,8.65,8.65,0,0,1,2.21-6.3,7.92,7.92,0,0,1,5.95-2.27A7.18,7.18,0,0,1,197,421a8.74,8.74,0,0,1,2,6.1,8.62,8.62,0,0,1-2.16,6.14A7.6,7.6,0,0,1,191,435.56ZM191.2,421a4.86,4.86,0,0,0-3.9,1.68,6.88,6.88,0,0,0-1.44,4.63,6.54,6.54,0,0,0,1.45,4.49,5,5,0,0,0,3.89,1.64A4.69,4.69,0,0,0,195,431.8a7,7,0,0,0,1.34-4.58,7.14,7.14,0,0,0-1.34-4.63A4.66,4.66,0,0,0,191.2,421Z" transform="translate(-20.22 -27.03)"/><path d="M204,435.53a1.68,1.68,0,0,1-1.23-.51,1.76,1.76,0,0,1,0-2.48A1.65,1.65,0,0,1,204,432a1.68,1.68,0,0,1,1.25.52,1.75,1.75,0,0,1-1.25,3Z" transform="translate(-20.22 -27.03)"/></svg>