<?xml version="1.0" encoding="utf-8"?>
<!-- Generator: Adobe Illustrator 25.0.0, SVG Export Plug-In . SVG Version: 6.00 Build 0)  -->
<svg version="1.1" id="Capa_1" xmlns="http://www.w3.org/2000/svg" xmlns:xlink="http://www.w3.org/1999/xlink" x="0px" y="0px"
	 viewBox="0 0 1152.2 171.4" style="enable-background:new 0 0 1152.2 171.4;" xml:space="preserve">
<style type="text/css">
	.st0{fill:none;stroke:#000000;stroke-width:1.2;stroke-linecap:round;stroke-linejoin:round;}
	.st1{clip-path:url(#SVGID_2_);}
	.st2{fill:none;}
	.st3{font-family:'SegoeUI';}
	.st4{font-size:34px;}
	.st5{letter-spacing:9;}
	.st6{font-family:'SegoeUI-Italic';}
	.st7{letter-spacing:1;}
	.st8{letter-spacing:-1;}
	.st9{letter-spacing:14;}
</style>
<path d="M1085.3,143.3l-2.9,3.1c1.2,1.7,1.7,3.8,1.7,5.9c0.1,2.5-0.7,4.9-2.4,6.8c-3.2,3-8.2,3.4-11.8,0.8l-2.5,2.7l-1.4-1.3
	l2.6-2.8c-2.6-3.9-2.3-9.1,0.7-12.7c1.7-1.7,4.1-2.6,6.5-2.5c1.9-0.1,3.8,0.5,5.3,1.7l2.8-3L1085.3,143.3z M1079.3,146.9
	c-1-0.9-2.3-1.3-3.7-1.3c-1.6-0.1-3.2,0.6-4.3,1.8c-1.1,1.4-1.7,3.2-1.6,5.1c0,1.3,0.3,2.6,0.9,3.8L1079.3,146.9z M1080.5,148.5
	l-8.7,9.4c1.1,0.9,2.4,1.4,3.8,1.3c1.6,0.1,3.2-0.6,4.2-1.8c1.1-1.4,1.6-3.2,1.5-5C1081.3,151.1,1081,149.8,1080.5,148.5
	L1080.5,148.5z"/>
<g>
	<line class="st0" x1="669.1" y1="7.2" x2="657.6" y2="7.2"/>
	<path d="M675.9,7.2c-3.4-0.9-6.6-2.4-9.6-4.2l2,4.2l-2,4.2C669.3,9.5,672.5,8.1,675.9,7.2z"/>
</g>
<g>
	<line class="st0" x1="739.5" y1="7.2" x2="728.1" y2="7.2"/>
	<path d="M746.3,7.2c-3.4-0.9-6.6-2.4-9.6-4.2l2,4.2l-2,4.2C739.7,9.5,742.9,8.1,746.3,7.2z"/>
</g>
<g>
	<line class="st0" x1="540.2" y1="129.6" x2="528.8" y2="129.6"/>
	<path d="M547,129.6c-3.4-0.9-6.6-2.4-9.6-4.2l2,4.2l-2,4.2C540.4,131.9,543.6,130.5,547,129.6z"/>
</g>
<g>
	<line class="st0" x1="623.7" y1="129.6" x2="612.2" y2="129.6"/>
	<path d="M630.4,129.6c-3.4-0.9-6.6-2.4-9.6-4.2l2,4.2l-2,4.2C623.8,131.9,627,130.5,630.4,129.6z"/>
</g>
<g>
	<defs>
		<polygon id="SVGID_1_" points="1153.2,-1 0,-1 0,170.4 1108.4,170.4 1152.2,133.8 		"/>
	</defs>
	<clipPath id="SVGID_2_">
		<use xlink:href="#SVGID_1_"  style="overflow:visible;"/>
	</clipPath>
	<g class="st1">
		<rect x="7" y="13" class="st2" width="1135" height="155.6"/>
		<text transform="matrix(1 0 0 1 7 38.168)"><tspan x="0" y="0" class="st3 st4">Existe</tspan><tspan x="84.8" y="0" class="st3 st4 st5"> </tspan><tspan x="103.5" y="0" class="st3 st4">otro</tspan><tspan x="166.7" y="0" class="st3 st4 st5"> </tspan><tspan x="185.4" y="0" class="st3 st4">producto</tspan><tspan x="323.5" y="0" class="st3 st4 st5"> </tspan><tspan x="342.2" y="0" class="st3 st4">entre</tspan><tspan x="420.4" y="0" class="st3 st4 st5"> </tspan><tspan x="439.1" y="0" class="st3 st4">los</tspan><tspan x="481.7" y="0" class="st3 st4 st5"> </tspan><tspan x="500.4" y="0" class="st3 st4">vectores</tspan><tspan x="625.6" y="0" class="st3 st4 st5"> </tspan><tspan x="644.3" y="0" class="st6 st4">A</tspan><tspan x="665.8" y="0" class="st3 st4 st5"> </tspan><tspan x="684.5" y="0" class="st3 st4">y</tspan><tspan x="701" y="0" class="st3 st4 st5"> </tspan><tspan x="719.7" y="0" class="st6 st4">B</tspan><tspan x="739.2" y="0" class="st6 st4 st5"> </tspan><tspan x="758" y="0" class="st3 st4">denotado</tspan><tspan x="903.7" y="0" class="st3 st4 st5"> </tspan><tspan x="922.4" y="0" class="st3 st4">como</tspan><tspan x="1007.3" y="0" class="st3 st4 st5"> </tspan><tspan x="1026" y="0" class="st6 st4">A</tspan><tspan x="1047.5" y="0" class="st3 st4 st5"> </tspan><tspan x="1066.2" y="0" class="st3 st4">×</tspan><tspan x="1089.4" y="0" class="st3 st4 st5"> </tspan><tspan x="1108.1" y="0" class="st6 st4">B</tspan><tspan x="1127.6" y="0" class="st3 st4">,  </tspan><tspan x="0" y="40.8" class="st3 st4">denominado</tspan><tspan x="191" y="40.8" class="st3 st4 st7"> </tspan><tspan x="201.5" y="40.8" class="st3 st4">producto</tspan><tspan x="339.6" y="40.8" class="st3 st4 st7"> </tspan><tspan x="350.1" y="40.8" class="st3 st4">cruz.</tspan><tspan x="419.6" y="40.8" class="st3 st4 st7"> </tspan><tspan x="430.1" y="40.8" class="st3 st4">No</tspan><tspan x="475.4" y="40.8" class="st3 st4 st7"> </tspan><tspan x="485.9" y="40.8" class="st3 st4">se</tspan><tspan x="518.1" y="40.8" class="st3 st4 st7"> </tspan><tspan x="528.6" y="40.8" class="st3 st4">entrará</tspan><tspan x="635.4" y="40.8" class="st3 st4 st7"> </tspan><tspan x="645.9" y="40.8" class="st3 st4">en</tspan><tspan x="682.9" y="40.8" class="st3 st4 st7"> </tspan><tspan x="693.4" y="40.8" class="st3 st4">detalles</tspan><tspan x="808.7" y="40.8" class="st3 st4 st7"> </tspan><tspan x="819.2" y="40.8" class="st3 st4">sobre</tspan><tspan x="903.1" y="40.8" class="st3 st4 st7"> </tspan><tspan x="913.6" y="40.8" class="st3 st4">esta</tspan><tspan x="974.6" y="40.8" class="st3 st4 st7"> </tspan><tspan x="985.1" y="40.8" class="st3 st4">operación </tspan><tspan x="0" y="81.6" class="st3 st4">solo</tspan><tspan x="62.5" y="81.6" class="st3 st4 st8"> </tspan><tspan x="70.2" y="81.6" class="st3 st4">se</tspan><tspan x="102.5" y="81.6" class="st3 st4 st8"> </tspan><tspan x="110.2" y="81.6" class="st3 st4">dirá</tspan><tspan x="167.6" y="81.6" class="st3 st4 st8"> </tspan><tspan x="175.3" y="81.6" class="st3 st4">que</tspan><tspan x="232.3" y="81.6" class="st3 st4 st8"> </tspan><tspan x="240.1" y="81.6" class="st3 st4">da</tspan><tspan x="277.4" y="81.6" class="st3 st4 st8"> </tspan><tspan x="285.1" y="81.6" class="st3 st4">como</tspan><tspan x="370" y="81.6" class="st3 st4 st8"> </tspan><tspan x="377.7" y="81.6" class="st3 st4">resultado</tspan><tspan x="518" y="81.6" class="st3 st4 st8"> </tspan><tspan x="525.7" y="81.6" class="st3 st4">otro</tspan><tspan x="588.9" y="81.6" class="st3 st4 st8"> </tspan><tspan x="596.6" y="81.6" class="st3 st4">vector</tspan><tspan x="689.7" y="81.6" class="st3 st4 st8"> </tspan><tspan x="697.4" y="81.6" class="st3 st4">que</tspan><tspan x="754.5" y="81.6" class="st3 st4 st8"> </tspan><tspan x="762.2" y="81.6" class="st3 st4">es</tspan><tspan x="794.4" y="81.6" class="st3 st4 st8"> </tspan><tspan x="802.2" y="81.6" class="st3 st4">perpendicular</tspan><tspan x="1009.3" y="81.6" class="st3 st4 st8"> </tspan><tspan x="1017" y="81.6" class="st3 st4">al</tspan><tspan x="1042.6" y="81.6" class="st3 st4 st8"> </tspan><tspan x="1050.3" y="81.6" class="st3 st4">plano </tspan><tspan x="0" y="122.4" class="st3 st4">que</tspan><tspan x="57" y="122.4" class="st3 st4 st9"> </tspan><tspan x="80.9" y="122.4" class="st3 st4">los</tspan><tspan x="123.5" y="122.4" class="st3 st4 st9"> </tspan><tspan x="147.4" y="122.4" class="st3 st4">contiene</tspan><tspan x="276.8" y="122.4" class="st3 st4 st9"> </tspan><tspan x="300.7" y="122.4" class="st3 st4">los</tspan><tspan x="343.3" y="122.4" class="st3 st4 st9"> </tspan><tspan x="367.1" y="122.4" class="st3 st4">vectores</tspan><tspan x="492.4" y="122.4" class="st3 st4 st9"> </tspan><tspan x="516.2" y="122.4" class="st3 st4">A</tspan><tspan x="538.2" y="122.4" class="st3 st4 st9"> </tspan><tspan x="562.1" y="122.4" class="st3 st4">y</tspan><tspan x="578.5" y="122.4" class="st3 st4 st9"> </tspan><tspan x="602.4" y="122.4" class="st3 st4">B</tspan><tspan x="621.9" y="122.4" class="st3 st4 st9"> </tspan><tspan x="645.7" y="122.4" class="st3 st4">cuya</tspan><tspan x="714.4" y="122.4" class="st3 st4 st9"> </tspan><tspan x="738.3" y="122.4" class="st3 st4">magnitud</tspan><tspan x="883.2" y="122.4" class="st3 st4 st9"> </tspan><tspan x="907.1" y="122.4" class="st3 st4">es</tspan><tspan x="939.3" y="122.4" class="st3 st4 st9"> </tspan><tspan x="963.1" y="122.4" class="st3 st4">ABsen</tspan><tspan x="1056" y="122.4" class="st3 st4 st9">   </tspan><tspan x="1127.6" y="122.4" class="st3 st4">.</tspan></text>
	</g>
</g>
<g>
	<path d="M1093,160.4c0,0.3,0,0.5-0.1,0.7c-0.1,0.2-0.2,0.4-0.4,0.6s-0.4,0.3-0.6,0.4c-0.2,0.1-0.5,0.1-0.7,0.1s-0.5,0-0.7-0.1
		s-0.4-0.2-0.6-0.4s-0.3-0.4-0.4-0.6c-0.1-0.2-0.1-0.5-0.1-0.7s0-0.5,0.1-0.7c0.1-0.2,0.2-0.4,0.4-0.6s0.4-0.3,0.6-0.4
		c0.2-0.1,0.5-0.1,0.7-0.1s0.5,0,0.7,0.1c0.2,0.1,0.4,0.2,0.6,0.4s0.3,0.4,0.4,0.6C1093,159.9,1093,160.2,1093,160.4z"/>
</g>
</svg>
