<svg id="Capa_1" data-name="Capa 1" xmlns="http://www.w3.org/2000/svg" viewBox="0 0 357.6 511.47"><rect y="0.47" width="357.6" height="511" style="fill:none"/><g style="isolation:isolate"><path d="M12,30.06a9.8,9.8,0,0,1-7.63-3.14,11.61,11.61,0,0,1-2.87-8.17,12.36,12.36,0,0,1,2.92-8.63,10.22,10.22,0,0,1,8-3.21A9.62,9.62,0,0,1,19.82,10a11.71,11.71,0,0,1,2.84,8.17q0,5.49-2.91,8.68A10,10,0,0,1,12,30.06Zm.19-20.78a7.22,7.22,0,0,0-5.74,2.55,9.86,9.86,0,0,0-2.2,6.69,9.88,9.88,0,0,0,2.15,6.66A7,7,0,0,0,12,27.7a7.36,7.36,0,0,0,5.81-2.4,9.84,9.84,0,0,0,2.13-6.74c0-3-.69-5.24-2.07-6.86A7.07,7.07,0,0,0,12.16,9.28Z" transform="translate(0 -5.53)"/><path d="M34.14,29.53a5,5,0,0,1-2.39.5q-4.2,0-4.2-4.69V15.88H24.8V13.69h2.75V9.78L30.11,9v4.74h4v2.19h-4v9a3.72,3.72,0,0,0,.55,2.3,2.16,2.16,0,0,0,1.81.69,2.67,2.67,0,0,0,1.67-.54Z" transform="translate(0 -5.53)"/><path d="M45.91,16.28A3.18,3.18,0,0,0,44,15.77a3.26,3.26,0,0,0-2.74,1.54,7.12,7.12,0,0,0-1.11,4.22v8.16H37.56v-16h2.56V17h.07a5.56,5.56,0,0,1,1.67-2.63,3.81,3.81,0,0,1,2.52-.94,4.38,4.38,0,0,1,1.53.21Z" transform="translate(0 -5.53)"/><path d="M60.14,29.69H57.58v-2.5h-.06a5.39,5.39,0,0,1-4.93,2.87,5.27,5.27,0,0,1-3.74-1.26,4.41,4.41,0,0,1-1.35-3.36q0-4.49,5.28-5.22l4.8-.67q0-4.08-3.3-4.08a7.83,7.83,0,0,0-5.22,2V14.81a10,10,0,0,1,5.44-1.5q5.64,0,5.64,6Zm-2.56-8.1-3.86.53A6.36,6.36,0,0,0,51,23a2.55,2.55,0,0,0-.91,2.24A2.42,2.42,0,0,0,51,27.16a3.22,3.22,0,0,0,2.23.75,4.13,4.13,0,0,0,3.15-1.34,4.81,4.81,0,0,0,1.24-3.38Z" transform="translate(0 -5.53)"/></g><g style="isolation:isolate"><path d="M91.78,30.06a7.4,7.4,0,0,1-5.66-2.24A8.31,8.31,0,0,1,84,21.88a8.65,8.65,0,0,1,2.2-6.3,7.94,7.94,0,0,1,6-2.27,7.17,7.17,0,0,1,5.58,2.21,8.7,8.7,0,0,1,2,6.1,8.62,8.62,0,0,1-2.16,6.14A7.62,7.62,0,0,1,91.78,30.06ZM92,15.47a4.88,4.88,0,0,0-3.91,1.68,6.88,6.88,0,0,0-1.44,4.63,6.54,6.54,0,0,0,1.46,4.49A4.94,4.94,0,0,0,92,27.91a4.7,4.7,0,0,0,3.82-1.61,7,7,0,0,0,1.33-4.58,7.13,7.13,0,0,0-1.33-4.63A4.68,4.68,0,0,0,92,15.47Z" transform="translate(0 -5.53)"/><path d="M106.47,27.38h-.06v9.67h-2.57V13.69h2.57V16.5h.06A6.07,6.07,0,0,1,112,13.31a5.88,5.88,0,0,1,4.83,2.15,8.93,8.93,0,0,1,1.73,5.76,9.92,9.92,0,0,1-2,6.43,6.49,6.49,0,0,1-5.34,2.41A5.34,5.34,0,0,1,106.47,27.38Zm-.06-6.46v2.24a4.74,4.74,0,0,0,1.29,3.36A4.24,4.24,0,0,0,111,27.91a4.3,4.3,0,0,0,3.65-1.79,8.14,8.14,0,0,0,1.32-4.95A6.44,6.44,0,0,0,114.7,17a4.07,4.07,0,0,0-3.34-1.51A4.54,4.54,0,0,0,107.77,17,5.71,5.71,0,0,0,106.41,20.92Z" transform="translate(0 -5.53)"/><path d="M135.52,22.33h-11.3a6,6,0,0,0,1.44,4.12,4.93,4.93,0,0,0,3.78,1.46,7.86,7.86,0,0,0,5-1.79v2.41a9.31,9.31,0,0,1-5.58,1.53,6.74,6.74,0,0,1-5.33-2.18,8.91,8.91,0,0,1-1.94-6.13,8.77,8.77,0,0,1,2.12-6.09,6.81,6.81,0,0,1,5.26-2.35,6,6,0,0,1,4.86,2A8.52,8.52,0,0,1,135.52,21Zm-2.63-2.17a5.26,5.26,0,0,0-1.07-3.46,3.65,3.65,0,0,0-2.93-1.23,4.13,4.13,0,0,0-3.08,1.3,5.89,5.89,0,0,0-1.56,3.39Z" transform="translate(0 -5.53)"/><path d="M147.73,16.28a3.13,3.13,0,0,0-1.93-.51,3.28,3.28,0,0,0-2.75,1.54,7.19,7.19,0,0,0-1.1,4.22v8.16h-2.56v-16H142V17H142a5.56,5.56,0,0,1,1.67-2.63,3.81,3.81,0,0,1,2.51-.94,4.31,4.31,0,0,1,1.53.21Z" transform="translate(0 -5.53)"/><path d="M162,29.69h-2.56v-2.5h-.07a5.36,5.36,0,0,1-4.92,2.87,5.27,5.27,0,0,1-3.74-1.26,4.41,4.41,0,0,1-1.35-3.36q0-4.49,5.28-5.22l4.8-.67q0-4.08-3.3-4.08a7.83,7.83,0,0,0-5.22,2V14.81a9.92,9.92,0,0,1,5.44-1.5q5.64,0,5.64,6Zm-2.56-8.1-3.86.53a6.31,6.31,0,0,0-2.69.89,2.53,2.53,0,0,0-.91,2.24,2.42,2.42,0,0,0,.84,1.91,3.22,3.22,0,0,0,2.23.75,4.09,4.09,0,0,0,3.14-1.34,4.77,4.77,0,0,0,1.25-3.38Z" transform="translate(0 -5.53)"/><path d="M177.7,29a8.3,8.3,0,0,1-4.37,1.11,7.28,7.28,0,0,1-5.53-2.22,8.09,8.09,0,0,1-2.1-5.78A8.88,8.88,0,0,1,168,15.71a7.92,7.92,0,0,1,6.05-2.4,8.4,8.4,0,0,1,3.71.78v2.63a6.5,6.5,0,0,0-3.81-1.25,5.13,5.13,0,0,0-4,1.76,6.64,6.64,0,0,0-1.57,4.61,6.36,6.36,0,0,0,1.47,4.44,5.09,5.09,0,0,0,4,1.63,6.46,6.46,0,0,0,3.93-1.39Z" transform="translate(0 -5.53)"/><path d="M182.89,9.62A1.62,1.62,0,0,1,181.23,8a1.64,1.64,0,0,1,1.66-1.67,1.69,1.69,0,0,1,1.2.47,1.64,1.64,0,0,1,.49,1.2,1.6,1.6,0,0,1-.49,1.17A1.66,1.66,0,0,1,182.89,9.62Zm1.25,20.07h-2.56v-16h2.56Z" transform="translate(0 -5.53)"/><path d="M196,30.06a7.4,7.4,0,0,1-5.67-2.24,8.31,8.31,0,0,1-2.12-5.94,8.65,8.65,0,0,1,2.21-6.3,7.92,7.92,0,0,1,5.95-2.27A7.18,7.18,0,0,1,202,15.52a8.74,8.74,0,0,1,2,6.1,8.62,8.62,0,0,1-2.16,6.14A7.6,7.6,0,0,1,196,30.06Zm.18-14.59a4.86,4.86,0,0,0-3.9,1.68,6.88,6.88,0,0,0-1.44,4.63,6.54,6.54,0,0,0,1.45,4.49,5,5,0,0,0,3.89,1.64A4.69,4.69,0,0,0,200,26.3a7,7,0,0,0,1.34-4.58A7.14,7.14,0,0,0,200,17.09,4.66,4.66,0,0,0,196.2,15.47ZM200,5.53l-4.09,5.13h-2l3.48-5.13Z" transform="translate(0 -5.53)"/><path d="M221.36,29.69H218.8V20.56q0-5.08-3.72-5.09a4,4,0,0,0-3.18,1.44,5.36,5.36,0,0,0-1.26,3.65v9.13h-2.56v-16h2.56v2.65h.06a5.78,5.78,0,0,1,5.25-3,4.91,4.91,0,0,1,4,1.7,7.53,7.53,0,0,1,1.39,4.9Z" transform="translate(0 -5.53)"/></g><g style="isolation:isolate"><path d="M259.58,29.69H257V20.47q0-5-3.72-5a4,4,0,0,0-3.15,1.44,5.38,5.38,0,0,0-1.28,3.71v9.07h-2.57V6h2.57V16.34h.06a5.82,5.82,0,0,1,5.25-3c3.6,0,5.41,2.17,5.41,6.52Z" transform="translate(0 -5.53)"/><path d="M275.86,29.69h-2.57v-2.5h-.06a5.36,5.36,0,0,1-4.92,2.87,5.27,5.27,0,0,1-3.74-1.26,4.41,4.41,0,0,1-1.35-3.36q0-4.49,5.28-5.22l4.79-.67q0-4.08-3.29-4.08a7.83,7.83,0,0,0-5.22,2V14.81a9.9,9.9,0,0,1,5.44-1.5q5.64,0,5.64,6Zm-2.57-8.1-3.86.53a6.31,6.31,0,0,0-2.68.89,2.53,2.53,0,0,0-.91,2.24,2.42,2.42,0,0,0,.84,1.91,3.19,3.19,0,0,0,2.22.75,4.13,4.13,0,0,0,3.15-1.34,4.76,4.76,0,0,0,1.24-3.38Z" transform="translate(0 -5.53)"/><path d="M283.31,27.38h-.06v2.31h-2.57V6h2.57V16.5h.06a6.07,6.07,0,0,1,5.53-3.19,5.87,5.87,0,0,1,4.82,2.15,8.87,8.87,0,0,1,1.74,5.76,9.92,9.92,0,0,1-1.95,6.43,6.49,6.49,0,0,1-5.34,2.41A5.25,5.25,0,0,1,283.31,27.38Zm-.06-6.46v2.24a4.74,4.74,0,0,0,1.29,3.36,4.58,4.58,0,0,0,6.92-.4,8.14,8.14,0,0,0,1.32-4.95A6.44,6.44,0,0,0,291.54,17a4.07,4.07,0,0,0-3.34-1.51A4.54,4.54,0,0,0,284.61,17,5.71,5.71,0,0,0,283.25,20.92Z" transform="translate(0 -5.53)"/><path d="M300.81,9.62a1.61,1.61,0,0,1-1.17-.46A1.58,1.58,0,0,1,299.15,8a1.6,1.6,0,0,1,.49-1.2,1.62,1.62,0,0,1,1.17-.47,1.65,1.65,0,0,1,1.19.47,1.61,1.61,0,0,1,.5,1.2,1.57,1.57,0,0,1-.5,1.17A1.62,1.62,0,0,1,300.81,9.62Zm1.25,20.07H299.5v-16h2.56Z" transform="translate(0 -5.53)"/><path d="M314.67,29.53a5,5,0,0,1-2.39.5q-4.2,0-4.2-4.69V15.88h-2.75V13.69h2.75V9.78L310.64,9v4.74h4v2.19h-4v9a3.79,3.79,0,0,0,.54,2.3,2.19,2.19,0,0,0,1.82.69,2.67,2.67,0,0,0,1.67-.54Z" transform="translate(0 -5.53)"/><path d="M331,29.69h-2.56V27.16h-.07a5.27,5.27,0,0,1-4.93,2.9q-5.73,0-5.72-6.81V13.69h2.54v9.15q0,5.07,3.88,5.07a3.88,3.88,0,0,0,3.08-1.39,5.26,5.26,0,0,0,1.22-3.61V13.69H331Z" transform="translate(0 -5.53)"/><path d="M347.65,29.69h-2.56v-2.5H345a5.38,5.38,0,0,1-4.92,2.87,5.28,5.28,0,0,1-3.75-1.26A4.41,4.41,0,0,1,335,25.44q0-4.49,5.28-5.22l4.8-.67q0-4.08-3.3-4.08a7.83,7.83,0,0,0-5.21,2V14.81a9.89,9.89,0,0,1,5.43-1.5q5.64,0,5.64,6Zm-2.56-8.1-3.86.53a6.36,6.36,0,0,0-2.69.89,2.55,2.55,0,0,0-.9,2.24,2.45,2.45,0,0,0,.83,1.91,3.22,3.22,0,0,0,2.23.75,4.13,4.13,0,0,0,3.15-1.34,4.76,4.76,0,0,0,1.24-3.38Z" transform="translate(0 -5.53)"/><path d="M355,29.69h-2.56V6H355Z" transform="translate(0 -5.53)"/></g><g style="isolation:isolate"><path d="M15.45,60.73H4.16a6,6,0,0,0,1.43,4.12,5,5,0,0,0,3.79,1.46,7.84,7.84,0,0,0,5-1.79v2.41a9.26,9.26,0,0,1-5.57,1.53,6.73,6.73,0,0,1-5.33-2.18A8.91,8.91,0,0,1,1.5,60.15a8.77,8.77,0,0,1,2.12-6.09,6.81,6.81,0,0,1,5.26-2.35,6,6,0,0,1,4.85,2,8.47,8.47,0,0,1,1.72,5.64Zm-2.62-2.17a5.26,5.26,0,0,0-1.07-3.46,3.66,3.66,0,0,0-2.93-1.23,4.12,4.12,0,0,0-3.08,1.3,5.89,5.89,0,0,0-1.56,3.39Z" transform="translate(0 -5.53)"/><path d="M32.61,68.09H30.05V59q0-5.09-3.72-5.09a4,4,0,0,0-3.18,1.44A5.36,5.36,0,0,0,21.89,59v9.13H19.33v-16h2.56v2.65H22a5.78,5.78,0,0,1,5.25-3,4.91,4.91,0,0,1,4,1.7,7.53,7.53,0,0,1,1.39,4.9Z" transform="translate(0 -5.53)"/></g><g style="isolation:isolate"><path d="M71.85,60.73H60.56A6,6,0,0,0,62,64.85a5,5,0,0,0,3.78,1.46,7.84,7.84,0,0,0,5-1.79v2.41a9.26,9.26,0,0,1-5.57,1.53,6.73,6.73,0,0,1-5.33-2.18,8.91,8.91,0,0,1-1.94-6.13A8.77,8.77,0,0,1,60,54.06a6.8,6.8,0,0,1,5.25-2.35,6,6,0,0,1,4.86,2,8.47,8.47,0,0,1,1.72,5.64Zm-2.62-2.17a5.26,5.26,0,0,0-1.07-3.46,3.66,3.66,0,0,0-2.93-1.23,4.12,4.12,0,0,0-3.08,1.3,5.89,5.89,0,0,0-1.56,3.39Z" transform="translate(0 -5.53)"/><path d="M78.29,68.09H75.73V44.4h2.56Z" transform="translate(0 -5.53)"/></g><g style="isolation:isolate"><path d="M107.72,65.77h-.06v9.68h-2.57V52.09h2.57V54.9h.06a6,6,0,0,1,5.53-3.19,5.88,5.88,0,0,1,4.83,2.15,8.93,8.93,0,0,1,1.73,5.76,9.92,9.92,0,0,1-2,6.43,6.49,6.49,0,0,1-5.34,2.41A5.33,5.33,0,0,1,107.72,65.77Zm-.06-6.45v2.24A4.74,4.74,0,0,0,109,64.92a4.24,4.24,0,0,0,3.27,1.39,4.3,4.3,0,0,0,3.65-1.79,8.14,8.14,0,0,0,1.32-4.95A6.44,6.44,0,0,0,116,55.38a4.07,4.07,0,0,0-3.34-1.51A4.54,4.54,0,0,0,109,55.42,5.71,5.71,0,0,0,107.66,59.32Z" transform="translate(0 -5.53)"/><path d="M132.25,54.68a3.16,3.16,0,0,0-1.94-.51,3.26,3.26,0,0,0-2.74,1.54,7.19,7.19,0,0,0-1.1,4.22v8.16h-2.56v-16h2.56v3.29h.06a5.64,5.64,0,0,1,1.67-2.63,3.81,3.81,0,0,1,2.52-.94,4.31,4.31,0,0,1,1.53.21Z" transform="translate(0 -5.53)"/><path d="M141.72,68.46a7.42,7.42,0,0,1-5.67-2.24,8.31,8.31,0,0,1-2.11-5.95,8.64,8.64,0,0,1,2.2-6.29,7.92,7.92,0,0,1,6-2.27,7.18,7.18,0,0,1,5.59,2.21,8.7,8.7,0,0,1,2,6.1,8.58,8.58,0,0,1-2.17,6.14A7.58,7.58,0,0,1,141.72,68.46Zm.19-14.59A4.88,4.88,0,0,0,138,55.55a6.88,6.88,0,0,0-1.44,4.63A6.54,6.54,0,0,0,138,64.67a4.93,4.93,0,0,0,3.89,1.64,4.7,4.7,0,0,0,3.82-1.61,7,7,0,0,0,1.33-4.58,7.13,7.13,0,0,0-1.33-4.63A4.68,4.68,0,0,0,141.91,53.87Z" transform="translate(0 -5.53)"/><path d="M167.44,68.09h-2.56V65.37h-.07a6.46,6.46,0,0,1-10.32.94,8.82,8.82,0,0,1-1.8-5.85,9.58,9.58,0,0,1,2-6.36A6.6,6.6,0,0,1,160,51.71a5.13,5.13,0,0,1,4.79,2.6h.07V44.4h2.56Zm-2.56-7.24V58.49a4.57,4.57,0,0,0-1.29-3.28,4.3,4.3,0,0,0-3.25-1.34,4.4,4.4,0,0,0-3.68,1.72,7.5,7.5,0,0,0-1.35,4.75,6.74,6.74,0,0,0,1.29,4.36,4.21,4.21,0,0,0,3.46,1.61,4.39,4.39,0,0,0,3.48-1.55A5.76,5.76,0,0,0,164.88,60.85Z" transform="translate(0 -5.53)"/><path d="M185.56,68.09H183V65.56h-.06a5.27,5.27,0,0,1-4.94,2.9q-5.72,0-5.72-6.81V52.09h2.55v9.15q0,5.07,3.87,5.07a3.91,3.91,0,0,0,3.09-1.39A5.25,5.25,0,0,0,183,61.31V52.09h2.56Z" transform="translate(0 -5.53)"/><path d="M201.64,67.35a8.33,8.33,0,0,1-4.37,1.11,7.25,7.25,0,0,1-5.53-2.22,8.09,8.09,0,0,1-2.1-5.78,8.88,8.88,0,0,1,2.27-6.35,7.91,7.91,0,0,1,6-2.4,8.41,8.41,0,0,1,3.72.78v2.63a6.55,6.55,0,0,0-3.81-1.25,5.1,5.1,0,0,0-4,1.76,6.64,6.64,0,0,0-1.57,4.61,6.36,6.36,0,0,0,1.47,4.44,5.09,5.09,0,0,0,4,1.63,6.47,6.47,0,0,0,3.94-1.39Z" transform="translate(0 -5.53)"/><path d="M212.94,67.93a5,5,0,0,1-2.39.5q-4.22,0-4.21-4.69V54.27h-2.75V52.09h2.75V48.18l2.57-.83v4.74h4v2.18h-4v9a3.79,3.79,0,0,0,.54,2.3,2.19,2.19,0,0,0,1.82.68,2.67,2.67,0,0,0,1.67-.53Z" transform="translate(0 -5.53)"/><path d="M223.05,68.46a7.4,7.4,0,0,1-5.67-2.24,8.31,8.31,0,0,1-2.11-5.95,8.64,8.64,0,0,1,2.2-6.29,7.92,7.92,0,0,1,5.95-2.27A7.18,7.18,0,0,1,229,53.92a8.7,8.7,0,0,1,2,6.1,8.62,8.62,0,0,1-2.17,6.14A7.6,7.6,0,0,1,223.05,68.46Zm.18-14.59a4.87,4.87,0,0,0-3.9,1.68,6.88,6.88,0,0,0-1.44,4.63,6.59,6.59,0,0,0,1.45,4.49,5,5,0,0,0,3.89,1.64,4.69,4.69,0,0,0,3.82-1.61,7,7,0,0,0,1.34-4.58,7.08,7.08,0,0,0-1.34-4.63A4.66,4.66,0,0,0,223.23,53.87Z" transform="translate(0 -5.53)"/></g><g style="isolation:isolate"><path d="M269.65,60.73H258.36a6,6,0,0,0,1.43,4.12,5,5,0,0,0,3.79,1.46,7.84,7.84,0,0,0,5-1.79v2.41A9.26,9.26,0,0,1,263,68.46a6.74,6.74,0,0,1-5.33-2.18,8.91,8.91,0,0,1-1.94-6.13,8.77,8.77,0,0,1,2.12-6.09,6.81,6.81,0,0,1,5.26-2.35,6,6,0,0,1,4.85,2,8.47,8.47,0,0,1,1.72,5.64ZM267,58.56A5.26,5.26,0,0,0,266,55.1,3.66,3.66,0,0,0,263,53.87a4.12,4.12,0,0,0-3.08,1.3,5.83,5.83,0,0,0-1.56,3.39Z" transform="translate(0 -5.53)"/><path d="M272.56,67.51V64.76a7.6,7.6,0,0,0,4.61,1.55c2.25,0,3.37-.75,3.37-2.25a1.91,1.91,0,0,0-.29-1.09,2.79,2.79,0,0,0-.78-.79,6.18,6.18,0,0,0-1.15-.62L276.89,61a17.66,17.66,0,0,1-1.87-.85,5.38,5.38,0,0,1-1.34-1,3.7,3.7,0,0,1-.82-1.22,4.42,4.42,0,0,1-.27-1.61,3.74,3.74,0,0,1,.52-2,4.54,4.54,0,0,1,1.37-1.46,6.48,6.48,0,0,1,2-.88,8.64,8.64,0,0,1,2.28-.3,9.13,9.13,0,0,1,3.71.72V55a7.23,7.23,0,0,0-4.06-1.15,4.65,4.65,0,0,0-1.29.16,3.42,3.42,0,0,0-1,.46,2.26,2.26,0,0,0-.64.71,1.92,1.92,0,0,0-.22.92,2,2,0,0,0,.89,1.8,5.48,5.48,0,0,0,1.06.59c.41.18.89.37,1.42.58.71.27,1.34.55,1.91.83a6.51,6.51,0,0,1,1.43,1,3.93,3.93,0,0,1,.92,1.24,4.09,4.09,0,0,1,.32,1.68,4,4,0,0,1-.52,2.06,4.51,4.51,0,0,1-1.4,1.45,6.45,6.45,0,0,1-2,.86,9.84,9.84,0,0,1-2.39.28A9.13,9.13,0,0,1,272.56,67.51Z" transform="translate(0 -5.53)"/><path d="M298,67.35a8.3,8.3,0,0,1-4.37,1.11,7.27,7.27,0,0,1-5.53-2.22,8.09,8.09,0,0,1-2.1-5.78,8.88,8.88,0,0,1,2.27-6.35,7.92,7.92,0,0,1,6.05-2.4,8.4,8.4,0,0,1,3.71.78v2.63a6.52,6.52,0,0,0-3.81-1.25,5.12,5.12,0,0,0-4,1.76,6.64,6.64,0,0,0-1.57,4.61,6.36,6.36,0,0,0,1.47,4.44,5.09,5.09,0,0,0,4,1.63A6.46,6.46,0,0,0,298,64.92Z" transform="translate(0 -5.53)"/><path d="M313.34,68.09h-2.56v-2.5h-.06a5.39,5.39,0,0,1-4.93,2.87,5.27,5.27,0,0,1-3.74-1.26,4.41,4.41,0,0,1-1.35-3.36q0-4.48,5.28-5.22l4.8-.67q0-4.08-3.3-4.08a7.83,7.83,0,0,0-5.22,2V53.21a9.92,9.92,0,0,1,5.44-1.5q5.64,0,5.64,6ZM310.78,60l-3.86.53a6.31,6.31,0,0,0-2.69.89,2.55,2.55,0,0,0-.9,2.24,2.42,2.42,0,0,0,.83,1.91,3.22,3.22,0,0,0,2.23.75A4.13,4.13,0,0,0,309.54,65a4.81,4.81,0,0,0,1.24-3.38Z" transform="translate(0 -5.53)"/><path d="M320.73,68.09h-2.56V44.4h2.56Z" transform="translate(0 -5.53)"/><path d="M337.37,68.09h-2.56v-2.5h-.06a5.38,5.38,0,0,1-4.92,2.87,5.28,5.28,0,0,1-3.75-1.26,4.41,4.41,0,0,1-1.35-3.36q0-4.48,5.28-5.22l4.8-.67q0-4.08-3.3-4.08a7.85,7.85,0,0,0-5.22,2V53.21a10,10,0,0,1,5.44-1.5q5.64,0,5.64,6ZM334.81,60l-3.86.53a6.36,6.36,0,0,0-2.69.89,2.55,2.55,0,0,0-.9,2.24,2.42,2.42,0,0,0,.83,1.91,3.22,3.22,0,0,0,2.23.75A4.13,4.13,0,0,0,333.57,65a4.76,4.76,0,0,0,1.24-3.38Z" transform="translate(0 -5.53)"/><path d="M350.54,54.68a3.13,3.13,0,0,0-1.93-.51,3.28,3.28,0,0,0-2.75,1.54,7.19,7.19,0,0,0-1.1,4.22v8.16H342.2v-16h2.56v3.29h.07a5.56,5.56,0,0,1,1.67-2.63,3.79,3.79,0,0,1,2.51-.94,4.31,4.31,0,0,1,1.53.21Z" transform="translate(0 -5.53)"/><path d="M355.67,64.52l-2.5,7.69h-1.83l1.83-7.69Z" transform="translate(0 -5.53)"/></g><g style="isolation:isolate"><path d="M15.45,99.13H4.16a6,6,0,0,0,1.43,4.12,5,5,0,0,0,3.79,1.46,7.84,7.84,0,0,0,5-1.79v2.41a9.26,9.26,0,0,1-5.57,1.53,6.73,6.73,0,0,1-5.33-2.18A8.91,8.91,0,0,1,1.5,98.55a8.77,8.77,0,0,1,2.12-6.09,6.81,6.81,0,0,1,5.26-2.35,6,6,0,0,1,4.85,2,8.47,8.47,0,0,1,1.72,5.64ZM12.83,97a5.26,5.26,0,0,0-1.07-3.46,3.66,3.66,0,0,0-2.93-1.23,4.12,4.12,0,0,0-3.08,1.3A5.89,5.89,0,0,0,4.19,97Z" transform="translate(0 -5.53)"/><path d="M18.36,105.91v-2.75A7.58,7.58,0,0,0,23,104.71c2.25,0,3.37-.75,3.37-2.25a1.91,1.91,0,0,0-.29-1.09,2.79,2.79,0,0,0-.78-.79,6.18,6.18,0,0,0-1.15-.62l-1.43-.57a17.66,17.66,0,0,1-1.87-.85,5.38,5.38,0,0,1-1.34-1,3.7,3.7,0,0,1-.82-1.22,4.42,4.42,0,0,1-.27-1.61,3.74,3.74,0,0,1,.52-2,4.54,4.54,0,0,1,1.37-1.46,6.48,6.48,0,0,1,2-.88,8.64,8.64,0,0,1,2.28-.3,9.13,9.13,0,0,1,3.71.72v2.59a7.23,7.23,0,0,0-4.06-1.15,4.65,4.65,0,0,0-1.29.16,3.42,3.42,0,0,0-1,.46,2.26,2.26,0,0,0-.64.71,1.92,1.92,0,0,0-.22.92,2,2,0,0,0,.89,1.8,5.48,5.48,0,0,0,1.06.59l1.42.58c.71.27,1.34.55,1.91.83a6.51,6.51,0,0,1,1.43,1,3.93,3.93,0,0,1,.92,1.24,4.09,4.09,0,0,1,.32,1.68,4,4,0,0,1-.52,2.06,4.51,4.51,0,0,1-1.4,1.45,6.45,6.45,0,0,1-2,.86,9.84,9.84,0,0,1-2.39.28A9.13,9.13,0,0,1,18.36,105.91Z" transform="translate(0 -5.53)"/><path d="M40.33,106.33a5,5,0,0,1-2.39.5c-2.8,0-4.21-1.56-4.21-4.69V92.67H31V90.49h2.75V86.58l2.57-.83v4.74h4v2.18h-4v9a3.79,3.79,0,0,0,.54,2.3,2.19,2.19,0,0,0,1.82.68,2.67,2.67,0,0,0,1.67-.53Z" transform="translate(0 -5.53)"/><path d="M56.61,99.13H45.31a6,6,0,0,0,1.44,4.12,5,5,0,0,0,3.78,1.46,7.86,7.86,0,0,0,5-1.79v2.41a9.31,9.31,0,0,1-5.58,1.53,6.76,6.76,0,0,1-5.33-2.18,8.91,8.91,0,0,1-1.93-6.13,8.77,8.77,0,0,1,2.11-6.09A6.82,6.82,0,0,1,50,90.11a6,6,0,0,1,4.86,2,8.47,8.47,0,0,1,1.72,5.64ZM54,97a5.21,5.21,0,0,0-1.07-3.46A3.65,3.65,0,0,0,50,92.27a4.11,4.11,0,0,0-3.07,1.3A5.84,5.84,0,0,0,45.34,97Z" transform="translate(0 -5.53)"/></g><g style="isolation:isolate"><path d="M73.12,105.91v-2.75a7.62,7.62,0,0,0,4.61,1.55c2.25,0,3.38-.75,3.38-2.25a2,2,0,0,0-.29-1.09,2.79,2.79,0,0,0-.78-.79,6.28,6.28,0,0,0-1.16-.62l-1.43-.57a16.57,16.57,0,0,1-1.86-.85,5.44,5.44,0,0,1-1.35-1,3.52,3.52,0,0,1-.81-1.22,4.42,4.42,0,0,1-.27-1.61,3.83,3.83,0,0,1,.51-2,4.58,4.58,0,0,1,1.38-1.46,6.37,6.37,0,0,1,2-.88,8.57,8.57,0,0,1,2.27-.3,9.14,9.14,0,0,1,3.72.72v2.59a7.25,7.25,0,0,0-4.06-1.15,4.77,4.77,0,0,0-1.3.16,3.24,3.24,0,0,0-1,.46,2.15,2.15,0,0,0-.64.71,1.93,1.93,0,0,0-.23.92,2.23,2.23,0,0,0,.23,1,2.32,2.32,0,0,0,.66.75,5.8,5.8,0,0,0,1.06.59l1.43.58c.7.27,1.34.55,1.9.83a6.83,6.83,0,0,1,1.44,1,3.75,3.75,0,0,1,.91,1.24,4.44,4.44,0,0,1-.2,3.74,4.4,4.4,0,0,1-1.4,1.45,6.3,6.3,0,0,1-2,.86,9.84,9.84,0,0,1-2.39.28A9.17,9.17,0,0,1,73.12,105.91Z" transform="translate(0 -5.53)"/><path d="M100.53,99.13H89.23a6,6,0,0,0,1.44,4.12,5,5,0,0,0,3.78,1.46,7.86,7.86,0,0,0,5-1.79v2.41a9.27,9.27,0,0,1-5.58,1.53,6.72,6.72,0,0,1-5.32-2.18,8.86,8.86,0,0,1-1.94-6.13,8.72,8.72,0,0,1,2.12-6.09A6.8,6.8,0,0,1,94,90.11a6,6,0,0,1,4.86,2,8.47,8.47,0,0,1,1.72,5.64ZM97.91,97a5.26,5.26,0,0,0-1.07-3.46,3.66,3.66,0,0,0-2.93-1.23,4.12,4.12,0,0,0-3.08,1.3A5.77,5.77,0,0,0,89.27,97Z" transform="translate(0 -5.53)"/></g><g style="isolation:isolate"><path d="M126.34,93.08a3.18,3.18,0,0,0-1.94-.51,3.26,3.26,0,0,0-2.74,1.54,7.12,7.12,0,0,0-1.1,4.22v8.16H118v-16h2.57v3.29h.06a5.56,5.56,0,0,1,1.67-2.63,3.81,3.81,0,0,1,2.52-.94,4.38,4.38,0,0,1,1.53.21Z" transform="translate(0 -5.53)"/><path d="M142,99.13h-11.3a6,6,0,0,0,1.44,4.12,5,5,0,0,0,3.78,1.46,7.86,7.86,0,0,0,5-1.79v2.41a9.31,9.31,0,0,1-5.58,1.53,6.74,6.74,0,0,1-5.33-2.18A8.91,8.91,0,0,1,128,98.55a8.77,8.77,0,0,1,2.12-6.09,6.82,6.82,0,0,1,5.26-2.35,6,6,0,0,1,4.86,2A8.52,8.52,0,0,1,142,97.78ZM139.35,97a5.21,5.21,0,0,0-1.07-3.46,3.65,3.65,0,0,0-2.93-1.23,4.13,4.13,0,0,0-3.08,1.3A5.89,5.89,0,0,0,130.71,97Z" transform="translate(0 -5.53)"/><path d="M157.31,106.49h-2.57V104h-.06a5.36,5.36,0,0,1-4.92,2.87A5.27,5.27,0,0,1,146,105.6a4.41,4.41,0,0,1-1.35-3.36q0-4.48,5.28-5.22l4.79-.67q0-4.08-3.29-4.08a7.83,7.83,0,0,0-5.22,2V91.61a9.9,9.9,0,0,1,5.44-1.5q5.64,0,5.64,6Zm-2.57-8.1-3.86.53a6.31,6.31,0,0,0-2.68.89,2.53,2.53,0,0,0-.91,2.24,2.42,2.42,0,0,0,.84,1.91,3.19,3.19,0,0,0,2.22.75,4.13,4.13,0,0,0,3.15-1.34,4.76,4.76,0,0,0,1.24-3.38Z" transform="translate(0 -5.53)"/><path d="M164.7,106.49h-2.57V82.8h2.57Z" transform="translate(0 -5.53)"/><path d="M171.2,86.42A1.65,1.65,0,0,1,170,86a1.61,1.61,0,0,1-.48-1.19,1.63,1.63,0,0,1,.48-1.2,1.73,1.73,0,0,1,2.37,0,1.6,1.6,0,0,1,.49,1.2,1.56,1.56,0,0,1-.49,1.17A1.64,1.64,0,0,1,171.2,86.42Zm1.25,20.07h-2.57v-16h2.57Z" transform="translate(0 -5.53)"/><path d="M188.79,91.22l-9.47,13.08h9.38v2.19H175.56v-.8l9.47-13h-8.58V90.49h12.34Z" transform="translate(0 -5.53)"/><path d="M203.56,106.49H201V104h-.06a5.36,5.36,0,0,1-4.92,2.87,5.27,5.27,0,0,1-3.74-1.26,4.41,4.41,0,0,1-1.35-3.36q0-4.48,5.28-5.22l4.79-.67q0-4.08-3.29-4.08a7.83,7.83,0,0,0-5.22,2V91.61a9.9,9.9,0,0,1,5.44-1.5q5.64,0,5.64,6ZM201,98.39l-3.86.53a6.31,6.31,0,0,0-2.68.89,2.53,2.53,0,0,0-.91,2.24,2.42,2.42,0,0,0,.84,1.91,3.19,3.19,0,0,0,2.22.75,4.13,4.13,0,0,0,3.15-1.34A4.76,4.76,0,0,0,201,100Z" transform="translate(0 -5.53)"/></g><g style="isolation:isolate"><path d="M234.75,99.13H223.46a6,6,0,0,0,1.43,4.12,5,5,0,0,0,3.78,1.46,7.84,7.84,0,0,0,5-1.79v2.41a9.26,9.26,0,0,1-5.57,1.53,6.73,6.73,0,0,1-5.33-2.18,8.91,8.91,0,0,1-1.94-6.13,8.77,8.77,0,0,1,2.12-6.09,6.8,6.8,0,0,1,5.25-2.35,6,6,0,0,1,4.86,2,8.47,8.47,0,0,1,1.72,5.64ZM232.13,97a5.26,5.26,0,0,0-1.07-3.46,3.66,3.66,0,0,0-2.93-1.23,4.12,4.12,0,0,0-3.08,1.3A5.89,5.89,0,0,0,223.49,97Z" transform="translate(0 -5.53)"/><path d="M251.91,106.49h-2.56V97.36q0-5.08-3.72-5.09a4,4,0,0,0-3.18,1.44,5.36,5.36,0,0,0-1.26,3.65v9.13h-2.56v-16h2.56v2.65h.06a5.78,5.78,0,0,1,5.25-3,4.91,4.91,0,0,1,4,1.7,7.53,7.53,0,0,1,1.39,4.9Z" transform="translate(0 -5.53)"/><path d="M264.16,106.33a5,5,0,0,1-2.39.5q-4.2,0-4.2-4.69V92.67h-2.75V90.49h2.75V86.58l2.56-.83v4.74h4v2.18h-4v9a3.79,3.79,0,0,0,.54,2.3,2.19,2.19,0,0,0,1.82.68,2.67,2.67,0,0,0,1.67-.53Z" transform="translate(0 -5.53)"/><path d="M275.92,93.08a3.13,3.13,0,0,0-1.93-.51,3.25,3.25,0,0,0-2.74,1.54,7.12,7.12,0,0,0-1.11,4.22v8.16h-2.56v-16h2.56v3.29h.07a5.56,5.56,0,0,1,1.67-2.63,3.81,3.81,0,0,1,2.51-.94,4.31,4.31,0,0,1,1.53.21Z" transform="translate(0 -5.53)"/><path d="M291.57,99.13h-11.3a6,6,0,0,0,1.44,4.12,4.93,4.93,0,0,0,3.78,1.46,7.86,7.86,0,0,0,5-1.79v2.41a9.31,9.31,0,0,1-5.58,1.53,6.74,6.74,0,0,1-5.33-2.18,8.91,8.91,0,0,1-1.94-6.13,8.77,8.77,0,0,1,2.12-6.09A6.81,6.81,0,0,1,285,90.11a6,6,0,0,1,4.86,2,8.52,8.52,0,0,1,1.72,5.64ZM288.94,97a5.26,5.26,0,0,0-1.07-3.46,3.65,3.65,0,0,0-2.93-1.23,4.13,4.13,0,0,0-3.08,1.3A5.89,5.89,0,0,0,280.3,97Z" transform="translate(0 -5.53)"/></g><g style="isolation:isolate"><path d="M322.75,106.49h-2.56v-2.72h-.07a6.46,6.46,0,0,1-10.32.94,8.82,8.82,0,0,1-1.8-5.85,9.63,9.63,0,0,1,2-6.36,6.6,6.6,0,0,1,5.33-2.39,5.12,5.12,0,0,1,4.79,2.6h.07V82.8h2.56Zm-2.56-7.24V96.89a4.6,4.6,0,0,0-1.28-3.28,4.33,4.33,0,0,0-3.25-1.34A4.4,4.4,0,0,0,312,94a7.5,7.5,0,0,0-1.35,4.75,6.74,6.74,0,0,0,1.29,4.36,4.23,4.23,0,0,0,3.47,1.61,4.38,4.38,0,0,0,3.47-1.55A5.76,5.76,0,0,0,320.19,99.25Z" transform="translate(0 -5.53)"/><path d="M334.62,106.86a7.4,7.4,0,0,1-5.66-2.24,8.31,8.31,0,0,1-2.12-6,8.64,8.64,0,0,1,2.21-6.29A7.92,7.92,0,0,1,335,90.11a7.19,7.19,0,0,1,5.59,2.21,8.74,8.74,0,0,1,2,6.1,8.62,8.62,0,0,1-2.16,6.14A7.61,7.61,0,0,1,334.62,106.86Zm.19-14.59a4.86,4.86,0,0,0-3.9,1.68,6.88,6.88,0,0,0-1.44,4.63,6.54,6.54,0,0,0,1.45,4.49,5,5,0,0,0,3.89,1.64,4.69,4.69,0,0,0,3.82-1.61A7,7,0,0,0,340,98.52a7.14,7.14,0,0,0-1.34-4.63A4.66,4.66,0,0,0,334.81,92.27Z" transform="translate(0 -5.53)"/><path d="M345.72,105.91v-2.75a7.58,7.58,0,0,0,4.61,1.55c2.25,0,3.37-.75,3.37-2.25a1.91,1.91,0,0,0-.29-1.09,2.79,2.79,0,0,0-.78-.79,6.51,6.51,0,0,0-1.15-.62l-1.43-.57a17.66,17.66,0,0,1-1.87-.85,5.38,5.38,0,0,1-1.34-1,3.7,3.7,0,0,1-.82-1.22,4.42,4.42,0,0,1-.27-1.61,3.74,3.74,0,0,1,.52-2,4.54,4.54,0,0,1,1.37-1.46,6.48,6.48,0,0,1,2-.88,8.64,8.64,0,0,1,2.28-.3,9.13,9.13,0,0,1,3.71.72v2.59a7.23,7.23,0,0,0-4.06-1.15,4.77,4.77,0,0,0-1.3.16,3.48,3.48,0,0,0-1,.46,2.26,2.26,0,0,0-.64.71,1.92,1.92,0,0,0-.22.92,2,2,0,0,0,.89,1.8,5.48,5.48,0,0,0,1.06.59c.41.18.89.37,1.42.58.71.27,1.34.55,1.91.83a6.51,6.51,0,0,1,1.43,1,3.93,3.93,0,0,1,.92,1.24,4.09,4.09,0,0,1,.32,1.68,3.92,3.92,0,0,1-.53,2.06,4.37,4.37,0,0,1-1.39,1.45,6.45,6.45,0,0,1-2,.86,9.84,9.84,0,0,1-2.39.28A9.13,9.13,0,0,1,345.72,105.91Z" transform="translate(0 -5.53)"/></g><g style="isolation:isolate"><path d="M15.17,128.89l-6.37,16H6.28l-6.06-16H3l4.06,11.62a10.51,10.51,0,0,1,.57,2.24h.06a10.18,10.18,0,0,1,.5-2.17l4.25-11.69Z" transform="translate(0 -5.53)"/><path d="M30.78,137.53H19.48a6,6,0,0,0,1.44,4.12,5,5,0,0,0,3.78,1.46,7.91,7.91,0,0,0,5-1.78v2.4a9.27,9.27,0,0,1-5.58,1.53,6.72,6.72,0,0,1-5.32-2.18A8.86,8.86,0,0,1,16.83,137,8.72,8.72,0,0,1,19,130.86a6.8,6.8,0,0,1,5.25-2.35,6,6,0,0,1,4.86,2,8.47,8.47,0,0,1,1.72,5.64Zm-2.62-2.17a5.26,5.26,0,0,0-1.07-3.46,3.66,3.66,0,0,0-2.93-1.23,4.12,4.12,0,0,0-3.08,1.3,5.77,5.77,0,0,0-1.56,3.39Z" transform="translate(0 -5.53)"/><path d="M45.56,144.15a8.3,8.3,0,0,1-4.37,1.11A7.27,7.27,0,0,1,35.66,143a8.09,8.09,0,0,1-2.1-5.78,8.88,8.88,0,0,1,2.27-6.35,7.92,7.92,0,0,1,6.05-2.4,8.4,8.4,0,0,1,3.71.78v2.63a6.5,6.5,0,0,0-3.81-1.25,5.12,5.12,0,0,0-4,1.76A6.64,6.64,0,0,0,36.19,137a6.36,6.36,0,0,0,1.47,4.44,5.09,5.09,0,0,0,4,1.63,6.47,6.47,0,0,0,3.94-1.39Z" transform="translate(0 -5.53)"/><path d="M56.86,144.73a5,5,0,0,1-2.39.5q-4.2,0-4.2-4.69v-9.46H47.52v-2.19h2.75V125l2.56-.83v4.74h4v2.19h-4v9a3.72,3.72,0,0,0,.55,2.3,2.16,2.16,0,0,0,1.81.69,2.67,2.67,0,0,0,1.67-.54Z" transform="translate(0 -5.53)"/><path d="M67,145.26A7.42,7.42,0,0,1,61.3,143a8.3,8.3,0,0,1-2.11-5.94,8.65,8.65,0,0,1,2.2-6.3,7.92,7.92,0,0,1,6-2.27,7.18,7.18,0,0,1,5.59,2.21,8.71,8.71,0,0,1,2,6.11A8.57,8.57,0,0,1,72.77,143,7.55,7.55,0,0,1,67,145.26Zm.19-14.59a4.88,4.88,0,0,0-3.91,1.68A6.88,6.88,0,0,0,61.81,137a6.54,6.54,0,0,0,1.46,4.49,4.93,4.93,0,0,0,3.89,1.64A4.7,4.7,0,0,0,71,141.5a7,7,0,0,0,1.33-4.58A7.13,7.13,0,0,0,71,132.29,4.68,4.68,0,0,0,67.16,130.67Z" transform="translate(0 -5.53)"/><path d="M87.38,131.48a3.18,3.18,0,0,0-1.94-.51,3.25,3.25,0,0,0-2.74,1.54,7.12,7.12,0,0,0-1.11,4.22v8.16H79v-16h2.56v3.29h.07a5.56,5.56,0,0,1,1.67-2.63,3.81,3.81,0,0,1,2.51-.94,4.15,4.15,0,0,1,1.54.22Z" transform="translate(0 -5.53)"/><path d="M103,137.53H91.72a6,6,0,0,0,1.44,4.12,4.93,4.93,0,0,0,3.78,1.46,7.91,7.91,0,0,0,5-1.78v2.4a9.31,9.31,0,0,1-5.58,1.53A6.74,6.74,0,0,1,91,143.08,8.91,8.91,0,0,1,89.06,137a8.77,8.77,0,0,1,2.12-6.09,6.81,6.81,0,0,1,5.26-2.35,6,6,0,0,1,4.86,2,8.52,8.52,0,0,1,1.72,5.64Zm-2.63-2.17a5.26,5.26,0,0,0-1.07-3.46,3.65,3.65,0,0,0-2.93-1.23,4.13,4.13,0,0,0-3.08,1.3,5.89,5.89,0,0,0-1.56,3.39Z" transform="translate(0 -5.53)"/><path d="M105.92,144.31v-2.75a7.6,7.6,0,0,0,4.61,1.55c2.25,0,3.38-.75,3.38-2.25a2,2,0,0,0-.29-1.09,3.08,3.08,0,0,0-.78-.79,6.62,6.62,0,0,0-1.16-.62l-1.43-.57a17.66,17.66,0,0,1-1.87-.85,5.57,5.57,0,0,1-1.34-1,3.52,3.52,0,0,1-.81-1.22,4.21,4.21,0,0,1-.28-1.61,3.74,3.74,0,0,1,.52-2,4.54,4.54,0,0,1,1.37-1.46,6.6,6.6,0,0,1,2-.88,8.7,8.7,0,0,1,2.28-.3,9.21,9.21,0,0,1,3.72.72v2.6a7.19,7.19,0,0,0-4.07-1.16,4.65,4.65,0,0,0-1.29.16,3.24,3.24,0,0,0-1,.46,2.3,2.3,0,0,0-.65.71,1.92,1.92,0,0,0-.22.92,2.23,2.23,0,0,0,.22,1.05,2.49,2.49,0,0,0,.67.75,5.48,5.48,0,0,0,1.06.59l1.42.58c.71.27,1.35.55,1.91.83a6.83,6.83,0,0,1,1.44,1,3.9,3.9,0,0,1,.91,1.24,4.09,4.09,0,0,1,.32,1.68,3.92,3.92,0,0,1-.52,2.06,4.51,4.51,0,0,1-1.4,1.45,6.35,6.35,0,0,1-2,.86,9.78,9.78,0,0,1-2.39.28A9.16,9.16,0,0,1,105.92,144.31Z" transform="translate(0 -5.53)"/></g><g style="isolation:isolate"><path d="M160,128.89l-7.36,18.56c-1.31,3.31-3.16,5-5.53,5a6,6,0,0,1-1.67-.2v-2.3a4.63,4.63,0,0,0,1.51.28q1.94,0,2.91-2.31l1.28-3-6.25-16h2.84l4.33,12.31c0,.16.16.56.33,1.22h.09c.05-.25.16-.65.32-1.19l4.54-12.34Z" transform="translate(0 -5.53)"/></g><g style="isolation:isolate"><path d="M197.94,131.48A3.18,3.18,0,0,0,196,131a3.26,3.26,0,0,0-2.74,1.54,7.12,7.12,0,0,0-1.1,4.22v8.16h-2.57v-16h2.57v3.29h.06a5.56,5.56,0,0,1,1.67-2.63,3.81,3.81,0,0,1,2.52-.94,4.13,4.13,0,0,1,1.53.22Z" transform="translate(0 -5.53)"/><path d="M213.58,137.53h-11.3a6,6,0,0,0,1.44,4.12,5,5,0,0,0,3.78,1.46,7.91,7.91,0,0,0,5-1.78v2.4a9.31,9.31,0,0,1-5.58,1.53,6.74,6.74,0,0,1-5.33-2.18,8.91,8.91,0,0,1-1.94-6.13,8.77,8.77,0,0,1,2.12-6.09,6.82,6.82,0,0,1,5.26-2.35,6,6,0,0,1,4.86,2,8.52,8.52,0,0,1,1.72,5.64ZM211,135.36a5.21,5.21,0,0,0-1.07-3.46,3.65,3.65,0,0,0-2.93-1.23,4.1,4.1,0,0,0-3.07,1.3,5.84,5.84,0,0,0-1.57,3.39Z" transform="translate(0 -5.53)"/><path d="M228.36,144.15a8.34,8.34,0,0,1-4.38,1.11,7.25,7.25,0,0,1-5.52-2.22,8.09,8.09,0,0,1-2.1-5.78,8.88,8.88,0,0,1,2.26-6.35,7.93,7.93,0,0,1,6-2.4,8.41,8.41,0,0,1,3.72.78v2.63a6.55,6.55,0,0,0-3.81-1.25,5.14,5.14,0,0,0-4,1.76A6.69,6.69,0,0,0,219,137a6.37,6.37,0,0,0,1.48,4.44,5.09,5.09,0,0,0,4,1.63,6.47,6.47,0,0,0,3.94-1.39Z" transform="translate(0 -5.53)"/><path d="M233.55,124.83a1.62,1.62,0,0,1-1.17-.47,1.58,1.58,0,0,1-.49-1.19,1.6,1.6,0,0,1,.49-1.2,1.62,1.62,0,0,1,1.17-.47,1.67,1.67,0,0,1,1.19.47,1.6,1.6,0,0,1,.49,1.2,1.56,1.56,0,0,1-.49,1.17A1.65,1.65,0,0,1,233.55,124.83Zm1.25,20.06h-2.57v-16h2.57Z" transform="translate(0 -5.53)"/><path d="M242.61,142.58h-.06v2.31H240V121.2h2.57v10.5h.06a6.07,6.07,0,0,1,5.53-3.19,5.87,5.87,0,0,1,4.82,2.15,8.87,8.87,0,0,1,1.74,5.76,9.92,9.92,0,0,1-1.95,6.43,6.49,6.49,0,0,1-5.34,2.41A5.25,5.25,0,0,1,242.61,142.58Zm-.06-6.46v2.24a4.74,4.74,0,0,0,1.29,3.36,4.26,4.26,0,0,0,3.27,1.39,4.31,4.31,0,0,0,3.65-1.78,8.19,8.19,0,0,0,1.32-5,6.44,6.44,0,0,0-1.24-4.19,4.07,4.07,0,0,0-3.34-1.51,4.54,4.54,0,0,0-3.59,1.55A5.71,5.71,0,0,0,242.55,136.12Z" transform="translate(0 -5.53)"/><path d="M271.66,137.53h-11.3a6,6,0,0,0,1.44,4.12,4.93,4.93,0,0,0,3.78,1.46,7.91,7.91,0,0,0,5-1.78v2.4a9.31,9.31,0,0,1-5.58,1.53,6.74,6.74,0,0,1-5.33-2.18A8.91,8.91,0,0,1,257.7,137a8.77,8.77,0,0,1,2.12-6.09,6.81,6.81,0,0,1,5.26-2.35,6,6,0,0,1,4.86,2,8.52,8.52,0,0,1,1.72,5.64ZM269,135.36A5.26,5.26,0,0,0,268,131.9a3.65,3.65,0,0,0-2.93-1.23A4.13,4.13,0,0,0,262,132a5.89,5.89,0,0,0-1.56,3.39Z" transform="translate(0 -5.53)"/></g><g style="isolation:isolate"><path d="M315.15,137.53H303.86a6,6,0,0,0,1.43,4.12,5,5,0,0,0,3.79,1.46,7.88,7.88,0,0,0,5-1.78v2.4a9.26,9.26,0,0,1-5.57,1.53,6.74,6.74,0,0,1-5.33-2.18A8.91,8.91,0,0,1,301.2,137a8.77,8.77,0,0,1,2.12-6.09,6.81,6.81,0,0,1,5.26-2.35,6,6,0,0,1,4.85,2,8.47,8.47,0,0,1,1.72,5.64Zm-2.62-2.17a5.26,5.26,0,0,0-1.07-3.46,3.66,3.66,0,0,0-2.93-1.23,4.12,4.12,0,0,0-3.08,1.3,5.83,5.83,0,0,0-1.56,3.39Z" transform="translate(0 -5.53)"/><path d="M318.06,144.31v-2.75a7.6,7.6,0,0,0,4.61,1.55c2.25,0,3.37-.75,3.37-2.25a1.91,1.91,0,0,0-.29-1.09A2.79,2.79,0,0,0,325,139a6.18,6.18,0,0,0-1.15-.62l-1.43-.57a17.66,17.66,0,0,1-1.87-.85,5.38,5.38,0,0,1-1.34-1,3.7,3.7,0,0,1-.82-1.22,4.42,4.42,0,0,1-.27-1.61,3.74,3.74,0,0,1,.52-2,4.54,4.54,0,0,1,1.37-1.46,6.48,6.48,0,0,1,2-.88,8.64,8.64,0,0,1,2.28-.3,9.13,9.13,0,0,1,3.71.72v2.6a7.16,7.16,0,0,0-4.06-1.16,4.65,4.65,0,0,0-1.29.16,3.42,3.42,0,0,0-1,.46,2.26,2.26,0,0,0-.64.71,1.92,1.92,0,0,0-.22.92,2,2,0,0,0,.89,1.8,5.48,5.48,0,0,0,1.06.59c.41.18.89.37,1.42.58.71.27,1.34.55,1.91.83a6.51,6.51,0,0,1,1.43,1,3.93,3.93,0,0,1,.92,1.24,4.09,4.09,0,0,1,.32,1.68,4,4,0,0,1-.52,2.06,4.51,4.51,0,0,1-1.4,1.45,6.45,6.45,0,0,1-2,.86,9.84,9.84,0,0,1-2.39.28A9.13,9.13,0,0,1,318.06,144.31Z" transform="translate(0 -5.53)"/><path d="M340,144.73a5,5,0,0,1-2.39.5q-4.22,0-4.21-4.69v-9.46h-2.75v-2.19h2.75V125l2.57-.83v4.74h4v2.19h-4v9a3.79,3.79,0,0,0,.54,2.3,2.19,2.19,0,0,0,1.82.69,2.67,2.67,0,0,0,1.67-.54Z" transform="translate(0 -5.53)"/><path d="M356.31,137.53H345a6,6,0,0,0,1.44,4.12,5,5,0,0,0,3.78,1.46,7.91,7.91,0,0,0,5-1.78v2.4a9.31,9.31,0,0,1-5.58,1.53,6.74,6.74,0,0,1-5.33-2.18,8.91,8.91,0,0,1-1.93-6.13,8.77,8.77,0,0,1,2.11-6.09,6.82,6.82,0,0,1,5.26-2.35,6,6,0,0,1,4.86,2,8.47,8.47,0,0,1,1.72,5.64Zm-2.63-2.17a5.21,5.21,0,0,0-1.07-3.46,3.65,3.65,0,0,0-2.93-1.23,4.11,4.11,0,0,0-3.07,1.3,5.84,5.84,0,0,0-1.57,3.39Z" transform="translate(0 -5.53)"/></g><g style="isolation:isolate"><path d="M15.88,183.29H13.31v-9.13q0-5.08-3.72-5.09a4,4,0,0,0-3.18,1.44,5.41,5.41,0,0,0-1.25,3.65v9.13H2.59v-16H5.16v2.65h.06a5.78,5.78,0,0,1,5.25-3,4.88,4.88,0,0,1,4,1.7,7.53,7.53,0,0,1,1.4,4.9Z" transform="translate(0 -5.53)"/><path d="M27.39,183.66a7.4,7.4,0,0,1-5.66-2.24,8.26,8.26,0,0,1-2.12-5.94,8.65,8.65,0,0,1,2.2-6.3,7.94,7.94,0,0,1,6-2.27,7.17,7.17,0,0,1,5.58,2.21,8.71,8.71,0,0,1,2,6.11,8.61,8.61,0,0,1-2.16,6.13A7.59,7.59,0,0,1,27.39,183.66Zm.19-14.59a4.88,4.88,0,0,0-3.91,1.68,6.88,6.88,0,0,0-1.44,4.63,6.54,6.54,0,0,0,1.46,4.49,4.94,4.94,0,0,0,3.89,1.64,4.7,4.7,0,0,0,3.82-1.61,7,7,0,0,0,1.33-4.58,7.13,7.13,0,0,0-1.33-4.63A4.68,4.68,0,0,0,27.58,169.07Z" transform="translate(0 -5.53)"/><path d="M62.17,183.29H59.61V174.1a6.89,6.89,0,0,0-.82-3.84A3.13,3.13,0,0,0,56,169.07a3.43,3.43,0,0,0-2.79,1.5,5.77,5.77,0,0,0-1.15,3.59v9.13H49.53v-9.5q0-4.72-3.64-4.72a3.38,3.38,0,0,0-2.78,1.41A5.85,5.85,0,0,0,42,174.16v9.13H39.45v-16H42v2.53h.06a5.43,5.43,0,0,1,5-2.91,4.66,4.66,0,0,1,2.86.92,4.6,4.6,0,0,1,1.67,2.4,5.72,5.72,0,0,1,5.31-3.32q5.28,0,5.28,6.52Z" transform="translate(0 -5.53)"/><path d="M69.64,181h-.06v2.31H67V159.6h2.56v10.5h.06a6.07,6.07,0,0,1,5.53-3.19A5.87,5.87,0,0,1,80,169.06a8.87,8.87,0,0,1,1.74,5.76,9.92,9.92,0,0,1-2,6.43,6.49,6.49,0,0,1-5.34,2.41A5.25,5.25,0,0,1,69.64,181Zm-.06-6.46v2.24a4.74,4.74,0,0,0,1.29,3.36,4.26,4.26,0,0,0,3.27,1.39,4.31,4.31,0,0,0,3.65-1.78,8.19,8.19,0,0,0,1.32-5,6.49,6.49,0,0,0-1.23-4.19,4.1,4.1,0,0,0-3.35-1.51,4.54,4.54,0,0,0-3.59,1.55A5.71,5.71,0,0,0,69.58,174.52Z" transform="translate(0 -5.53)"/><path d="M94.17,169.88a3.16,3.16,0,0,0-1.94-.51,3.27,3.27,0,0,0-2.74,1.54,7.19,7.19,0,0,0-1.1,4.22v8.16H85.83v-16h2.56v3.29h.06A5.72,5.72,0,0,1,90.12,168a3.83,3.83,0,0,1,2.52-.94,4.06,4.06,0,0,1,1.53.22Z" transform="translate(0 -5.53)"/><path d="M109.81,175.93H98.52a6,6,0,0,0,1.43,4.12,5,5,0,0,0,3.78,1.46,7.89,7.89,0,0,0,5-1.78v2.4a9.27,9.27,0,0,1-5.58,1.53,6.72,6.72,0,0,1-5.32-2.18,8.86,8.86,0,0,1-1.94-6.13A8.72,8.72,0,0,1,98,169.26a6.8,6.8,0,0,1,5.25-2.35,6,6,0,0,1,4.86,2,8.47,8.47,0,0,1,1.72,5.64Zm-2.62-2.17a5.26,5.26,0,0,0-1.07-3.46,3.66,3.66,0,0,0-2.93-1.23,4.12,4.12,0,0,0-3.08,1.3,5.83,5.83,0,0,0-1.56,3.39Z" transform="translate(0 -5.53)"/></g><g style="isolation:isolate"><path d="M176.12,181h-.06v9.67h-2.57V167.29h2.57v2.81h.06a6.07,6.07,0,0,1,5.53-3.19,5.88,5.88,0,0,1,4.83,2.15,8.93,8.93,0,0,1,1.73,5.76,9.92,9.92,0,0,1-2,6.43,6.49,6.49,0,0,1-5.34,2.41A5.34,5.34,0,0,1,176.12,181Zm-.06-6.46v2.24a4.74,4.74,0,0,0,1.29,3.36,4.24,4.24,0,0,0,3.27,1.39,4.31,4.31,0,0,0,3.65-1.78,8.19,8.19,0,0,0,1.32-5,6.44,6.44,0,0,0-1.24-4.19,4.07,4.07,0,0,0-3.34-1.51,4.54,4.54,0,0,0-3.59,1.55A5.71,5.71,0,0,0,176.06,174.52Z" transform="translate(0 -5.53)"/><path d="M199,183.66a7.4,7.4,0,0,1-5.66-2.24,8.31,8.31,0,0,1-2.12-5.94,8.65,8.65,0,0,1,2.21-6.3,7.9,7.9,0,0,1,6-2.27,7.19,7.19,0,0,1,5.59,2.21,8.75,8.75,0,0,1,2,6.11,8.61,8.61,0,0,1-2.16,6.13A7.57,7.57,0,0,1,199,183.66Zm.19-14.59a4.86,4.86,0,0,0-3.9,1.68,6.88,6.88,0,0,0-1.44,4.63,6.54,6.54,0,0,0,1.45,4.49,5,5,0,0,0,3.89,1.64A4.69,4.69,0,0,0,203,179.9a7,7,0,0,0,1.34-4.58,7.14,7.14,0,0,0-1.34-4.63A4.66,4.66,0,0,0,199.18,169.07Z" transform="translate(0 -5.53)"/><path d="M219.4,169.88a3.16,3.16,0,0,0-1.94-.51,3.27,3.27,0,0,0-2.74,1.54,7.19,7.19,0,0,0-1.1,4.22v8.16h-2.56v-16h2.56v3.29h.06a5.64,5.64,0,0,1,1.67-2.63,3.81,3.81,0,0,1,2.52-.94,4.06,4.06,0,0,1,1.53.22Z" transform="translate(0 -5.53)"/><path d="M235.84,190.65h-2.56V180.54h-.07a5.72,5.72,0,0,1-5.47,3.12,6,6,0,0,1-4.83-2.15,8.72,8.72,0,0,1-1.82-5.85,9.52,9.52,0,0,1,2-6.36,6.64,6.64,0,0,1,5.37-2.39,5,5,0,0,1,4.75,2.6h.07v-2.22h2.56Zm-2.56-14.57v-2.32a4.64,4.64,0,0,0-1.29-3.33,4.31,4.31,0,0,0-3.28-1.36,4.38,4.38,0,0,0-3.65,1.71,7.62,7.62,0,0,0-1.35,4.82,6.61,6.61,0,0,0,1.3,4.34,4.15,4.15,0,0,0,3.34,1.57,4.54,4.54,0,0,0,3.59-1.54A5.73,5.73,0,0,0,233.28,176.08Z" transform="translate(0 -5.53)"/><path d="M254,183.29H251.4v-2.53h-.06a5.27,5.27,0,0,1-4.94,2.9q-5.72,0-5.72-6.81v-9.56h2.55v9.15q0,5.07,3.87,5.07a3.91,3.91,0,0,0,3.09-1.39,5.25,5.25,0,0,0,1.21-3.61v-9.22H254Z" transform="translate(0 -5.53)"/><path d="M272,175.93H260.7a6,6,0,0,0,1.43,4.12,5,5,0,0,0,3.79,1.46,7.88,7.88,0,0,0,5-1.78v2.4a9.26,9.26,0,0,1-5.57,1.53,6.74,6.74,0,0,1-5.33-2.18,8.91,8.91,0,0,1-1.94-6.13,8.77,8.77,0,0,1,2.12-6.09,6.81,6.81,0,0,1,5.26-2.35,6,6,0,0,1,4.86,2,8.52,8.52,0,0,1,1.71,5.64Zm-2.62-2.17a5.26,5.26,0,0,0-1.07-3.46,3.65,3.65,0,0,0-2.93-1.23,4.12,4.12,0,0,0-3.08,1.3,5.89,5.89,0,0,0-1.56,3.39Z" transform="translate(0 -5.53)"/></g><g style="isolation:isolate"><path d="M348.55,175.93H337.26a6,6,0,0,0,1.43,4.12,5,5,0,0,0,3.78,1.46,7.89,7.89,0,0,0,5-1.78v2.4a9.26,9.26,0,0,1-5.57,1.53,6.73,6.73,0,0,1-5.33-2.18,8.91,8.91,0,0,1-1.94-6.13,8.77,8.77,0,0,1,2.12-6.09,6.8,6.8,0,0,1,5.25-2.35,6,6,0,0,1,4.86,2,8.47,8.47,0,0,1,1.72,5.64Zm-2.62-2.17a5.26,5.26,0,0,0-1.07-3.46,3.66,3.66,0,0,0-2.93-1.23,4.12,4.12,0,0,0-3.08,1.3,5.89,5.89,0,0,0-1.56,3.39Z" transform="translate(0 -5.53)"/><path d="M355,183.29h-2.56V159.6H355Z" transform="translate(0 -5.53)"/></g><g style="isolation:isolate"><path d="M10.94,208.28A3.18,3.18,0,0,0,9,207.77a3.26,3.26,0,0,0-2.74,1.54,7.12,7.12,0,0,0-1.1,4.22v8.16H2.59v-16H5.16V209h.06a5.56,5.56,0,0,1,1.67-2.63,3.81,3.81,0,0,1,2.52-.94,4.38,4.38,0,0,1,1.53.21Z" transform="translate(0 -5.53)"/><path d="M26.58,214.33H15.28a6,6,0,0,0,1.44,4.12,5,5,0,0,0,3.78,1.46,7.86,7.86,0,0,0,5-1.79v2.41a9.31,9.31,0,0,1-5.58,1.53,6.74,6.74,0,0,1-5.33-2.18,8.91,8.91,0,0,1-1.94-6.13,8.77,8.77,0,0,1,2.12-6.09A6.82,6.82,0,0,1,20,205.31a6,6,0,0,1,4.86,2A8.52,8.52,0,0,1,26.58,213ZM24,212.16a5.21,5.21,0,0,0-1.07-3.46A3.65,3.65,0,0,0,20,207.47a4.1,4.1,0,0,0-3.07,1.3,5.84,5.84,0,0,0-1.57,3.39Z" transform="translate(0 -5.53)"/><path d="M29.48,221.11v-2.75a7.62,7.62,0,0,0,4.61,1.55c2.25,0,3.38-.75,3.38-2.25a2,2,0,0,0-.29-1.09,2.79,2.79,0,0,0-.78-.79,6.62,6.62,0,0,0-1.16-.62l-1.43-.57a16.57,16.57,0,0,1-1.86-.85,5.44,5.44,0,0,1-1.35-1,3.52,3.52,0,0,1-.81-1.22,4.42,4.42,0,0,1-.27-1.61,3.83,3.83,0,0,1,.51-2,4.58,4.58,0,0,1,1.38-1.46,6.37,6.37,0,0,1,2-.88,8.57,8.57,0,0,1,2.27-.3,9.14,9.14,0,0,1,3.72.72v2.59a7.25,7.25,0,0,0-4.06-1.15,4.77,4.77,0,0,0-1.3.16,3.24,3.24,0,0,0-1,.46,2.15,2.15,0,0,0-.64.71,1.93,1.93,0,0,0-.23.92,2.23,2.23,0,0,0,.23,1.05,2.32,2.32,0,0,0,.66.75,5.8,5.8,0,0,0,1.06.59l1.43.58c.7.27,1.34.55,1.9.83a6.83,6.83,0,0,1,1.44,1,4.18,4.18,0,0,1,.71,5,4.51,4.51,0,0,1-1.4,1.45,6.3,6.3,0,0,1-2,.86,9.84,9.84,0,0,1-2.39.28A9.17,9.17,0,0,1,29.48,221.11Z" transform="translate(0 -5.53)"/><path d="M57,221.69H54.41v-2.53h-.07a5.26,5.26,0,0,1-4.93,2.9q-5.73,0-5.72-6.81v-9.56h2.54v9.15c0,3.38,1.3,5.07,3.88,5.07a3.91,3.91,0,0,0,3.09-1.39,5.3,5.3,0,0,0,1.21-3.61v-9.22H57Z" transform="translate(0 -5.53)"/><path d="M64.7,221.69H62.14V198H64.7Z" transform="translate(0 -5.53)"/><path d="M77.31,221.53a5,5,0,0,1-2.39.5q-4.2,0-4.2-4.69v-9.46H68v-2.19h2.75v-3.91l2.56-.83v4.74h4v2.19h-4v9a3.72,3.72,0,0,0,.55,2.3,2.17,2.17,0,0,0,1.81.69,2.65,2.65,0,0,0,1.67-.54Z" transform="translate(0 -5.53)"/><path d="M92.19,221.69H89.62v-2.5h-.06a5.36,5.36,0,0,1-4.92,2.87,5.27,5.27,0,0,1-3.74-1.26,4.41,4.41,0,0,1-1.35-3.36q0-4.49,5.28-5.22l4.79-.67c0-2.72-1.09-4.08-3.29-4.08a7.83,7.83,0,0,0-5.22,2v-2.63a9.9,9.9,0,0,1,5.44-1.5q5.64,0,5.64,6Zm-2.57-8.1-3.85.53a6.31,6.31,0,0,0-2.69.89,2.53,2.53,0,0,0-.91,2.24,2.42,2.42,0,0,0,.84,1.91,3.19,3.19,0,0,0,2.22.75,4.13,4.13,0,0,0,3.15-1.34,4.76,4.76,0,0,0,1.24-3.38Z" transform="translate(0 -5.53)"/><path d="M110.67,221.69h-2.56V219h-.06a6.46,6.46,0,0,1-10.32.94,8.77,8.77,0,0,1-1.81-5.85,9.63,9.63,0,0,1,2-6.36,6.6,6.6,0,0,1,5.33-2.39,5.13,5.13,0,0,1,4.8,2.6h.06V198h2.56Zm-2.56-7.24v-2.36a4.6,4.6,0,0,0-1.28-3.28,4.33,4.33,0,0,0-3.25-1.34,4.43,4.43,0,0,0-3.69,1.72,7.5,7.5,0,0,0-1.34,4.75,6.74,6.74,0,0,0,1.29,4.36,4.21,4.21,0,0,0,3.46,1.61,4.38,4.38,0,0,0,3.47-1.55A5.76,5.76,0,0,0,108.11,214.45Z" transform="translate(0 -5.53)"/><path d="M122.55,222.06a7.4,7.4,0,0,1-5.67-2.24,8.3,8.3,0,0,1-2.11-5.94,8.65,8.65,0,0,1,2.2-6.3,7.92,7.92,0,0,1,6-2.27,7.18,7.18,0,0,1,5.59,2.21,10,10,0,0,1-.16,12.24A7.6,7.6,0,0,1,122.55,222.06Zm.18-14.59a4.87,4.87,0,0,0-3.9,1.68,6.88,6.88,0,0,0-1.44,4.63,6.59,6.59,0,0,0,1.45,4.49,5,5,0,0,0,3.89,1.64,4.69,4.69,0,0,0,3.82-1.61,7,7,0,0,0,1.34-4.58,7.08,7.08,0,0,0-1.34-4.63A4.66,4.66,0,0,0,122.73,207.47Z" transform="translate(0 -5.53)"/></g><g style="isolation:isolate"><path d="M156.58,221.69H154v-9.13q0-5.09-3.72-5.09a4,4,0,0,0-3.18,1.44,5.41,5.41,0,0,0-1.25,3.65v9.13h-2.57v-16h2.57v2.65h.06a5.78,5.78,0,0,1,5.25-3,4.88,4.88,0,0,1,4,1.7,7.53,7.53,0,0,1,1.4,4.9Z" transform="translate(0 -5.53)"/><path d="M168.09,222.06a7.4,7.4,0,0,1-5.66-2.24,8.31,8.31,0,0,1-2.12-5.94,8.65,8.65,0,0,1,2.2-6.3,7.94,7.94,0,0,1,6-2.27,7.17,7.17,0,0,1,5.58,2.21,10,10,0,0,1-.15,12.24A7.62,7.62,0,0,1,168.09,222.06Zm.19-14.59a4.88,4.88,0,0,0-3.91,1.68,6.88,6.88,0,0,0-1.44,4.63,6.54,6.54,0,0,0,1.46,4.49,4.94,4.94,0,0,0,3.89,1.64,4.7,4.7,0,0,0,3.82-1.61,7,7,0,0,0,1.33-4.58,7.13,7.13,0,0,0-1.33-4.63A4.68,4.68,0,0,0,168.28,207.47Z" transform="translate(0 -5.53)"/></g><g style="isolation:isolate"><path d="M201.65,214.33H190.36a6,6,0,0,0,1.43,4.12,5,5,0,0,0,3.79,1.46,7.84,7.84,0,0,0,5-1.79v2.41a9.26,9.26,0,0,1-5.57,1.53,6.74,6.74,0,0,1-5.33-2.18,8.91,8.91,0,0,1-1.94-6.13,8.77,8.77,0,0,1,2.12-6.09,6.81,6.81,0,0,1,5.26-2.35,6,6,0,0,1,4.85,2,8.47,8.47,0,0,1,1.72,5.64ZM199,212.16A5.26,5.26,0,0,0,198,208.7a3.66,3.66,0,0,0-2.93-1.23,4.12,4.12,0,0,0-3.08,1.3,5.83,5.83,0,0,0-1.56,3.39Z" transform="translate(0 -5.53)"/><path d="M204.56,221.11v-2.75a7.6,7.6,0,0,0,4.61,1.55c2.25,0,3.37-.75,3.37-2.25a1.91,1.91,0,0,0-.29-1.09,2.79,2.79,0,0,0-.78-.79,6.18,6.18,0,0,0-1.15-.62l-1.43-.57a17.66,17.66,0,0,1-1.87-.85,5.38,5.38,0,0,1-1.34-1,3.7,3.7,0,0,1-.82-1.22,4.42,4.42,0,0,1-.27-1.61,3.74,3.74,0,0,1,.52-2,4.54,4.54,0,0,1,1.37-1.46,6.48,6.48,0,0,1,2-.88,8.64,8.64,0,0,1,2.28-.3,9.13,9.13,0,0,1,3.71.72v2.59a7.23,7.23,0,0,0-4.06-1.15,4.65,4.65,0,0,0-1.29.16,3.42,3.42,0,0,0-1,.46,2.26,2.26,0,0,0-.64.71,1.92,1.92,0,0,0-.22.92,2,2,0,0,0,.89,1.8,5.48,5.48,0,0,0,1.06.59c.41.18.89.37,1.42.58.71.27,1.34.55,1.91.83a6.51,6.51,0,0,1,1.43,1,3.93,3.93,0,0,1,.92,1.24,4.09,4.09,0,0,1,.32,1.68,4,4,0,0,1-.52,2.06,4.51,4.51,0,0,1-1.4,1.45,6.45,6.45,0,0,1-2,.86,9.84,9.84,0,0,1-2.39.28A9.13,9.13,0,0,1,204.56,221.11Z" transform="translate(0 -5.53)"/></g><g style="isolation:isolate"><path d="M240.73,221.69h-2.56v-2.53h-.06a5.28,5.28,0,0,1-4.94,2.9q-5.71,0-5.72-6.81v-9.56H230v9.15q0,5.07,3.87,5.07a3.91,3.91,0,0,0,3.09-1.39,5.3,5.3,0,0,0,1.21-3.61v-9.22h2.56Z" transform="translate(0 -5.53)"/><path d="M259.18,221.69h-2.56v-9.13q0-5.09-3.72-5.09a4,4,0,0,0-3.18,1.44,5.36,5.36,0,0,0-1.25,3.65v9.13H245.9v-16h2.57v2.65h.06a5.78,5.78,0,0,1,5.25-3,4.88,4.88,0,0,1,4,1.7,7.53,7.53,0,0,1,1.39,4.9Z" transform="translate(0 -5.53)"/></g><g style="isolation:isolate"><path d="M285.27,205.69l-6.37,16h-2.52l-6.06-16h2.81l4.06,11.62a10.51,10.51,0,0,1,.57,2.24h.06a10.18,10.18,0,0,1,.5-2.17l4.25-11.69Z" transform="translate(0 -5.53)"/><path d="M300.88,214.33h-11.3a6,6,0,0,0,1.44,4.12,5,5,0,0,0,3.78,1.46,7.86,7.86,0,0,0,5-1.79v2.41a9.27,9.27,0,0,1-5.58,1.53,6.72,6.72,0,0,1-5.32-2.18,8.86,8.86,0,0,1-1.94-6.13,8.77,8.77,0,0,1,2.11-6.09,6.84,6.84,0,0,1,5.26-2.35,6,6,0,0,1,4.86,2,8.47,8.47,0,0,1,1.72,5.64Zm-2.62-2.17a5.26,5.26,0,0,0-1.07-3.46,3.66,3.66,0,0,0-2.93-1.23,4.12,4.12,0,0,0-3.08,1.3,5.77,5.77,0,0,0-1.56,3.39Z" transform="translate(0 -5.53)"/><path d="M315.66,221a8.33,8.33,0,0,1-4.37,1.11,7.28,7.28,0,0,1-5.53-2.22,8.09,8.09,0,0,1-2.1-5.78,8.88,8.88,0,0,1,2.27-6.35,7.91,7.91,0,0,1,6-2.4,8.41,8.41,0,0,1,3.72.78v2.63a6.5,6.5,0,0,0-3.81-1.25,5.12,5.12,0,0,0-4,1.76,6.64,6.64,0,0,0-1.57,4.61,6.36,6.36,0,0,0,1.47,4.44,5.09,5.09,0,0,0,4,1.63,6.47,6.47,0,0,0,3.94-1.39Z" transform="translate(0 -5.53)"/><path d="M327,221.53a5,5,0,0,1-2.39.5q-4.2,0-4.2-4.69v-9.46h-2.75v-2.19h2.75v-3.91l2.56-.83v4.74h4v2.19h-4v9a3.79,3.79,0,0,0,.54,2.3,2.19,2.19,0,0,0,1.82.69,2.67,2.67,0,0,0,1.67-.54Z" transform="translate(0 -5.53)"/><path d="M337.07,222.06a7.42,7.42,0,0,1-5.67-2.24,8.3,8.3,0,0,1-2.11-5.94,8.65,8.65,0,0,1,2.2-6.3,7.92,7.92,0,0,1,5.95-2.27,7.18,7.18,0,0,1,5.59,2.21,8.7,8.7,0,0,1,2,6.1,8.58,8.58,0,0,1-2.17,6.14A7.58,7.58,0,0,1,337.07,222.06Zm.19-14.59a4.88,4.88,0,0,0-3.91,1.68,6.88,6.88,0,0,0-1.44,4.63,6.54,6.54,0,0,0,1.46,4.49,4.93,4.93,0,0,0,3.89,1.64,4.7,4.7,0,0,0,3.82-1.61,7,7,0,0,0,1.33-4.58,7.13,7.13,0,0,0-1.33-4.63A4.68,4.68,0,0,0,337.26,207.47Z" transform="translate(0 -5.53)"/><path d="M357.47,208.28a3.13,3.13,0,0,0-1.93-.51,3.28,3.28,0,0,0-2.75,1.54,7.19,7.19,0,0,0-1.1,4.22v8.16h-2.56v-16h2.56V209h.07a5.56,5.56,0,0,1,1.67-2.63,3.81,3.81,0,0,1,2.51-.94,4.31,4.31,0,0,1,1.53.21Z" transform="translate(0 -5.53)"/></g><g style="isolation:isolate"><path d="M1.62,259.51v-2.75a7.62,7.62,0,0,0,4.61,1.55c2.25,0,3.38-.75,3.38-2.25A2,2,0,0,0,9.32,255a2.79,2.79,0,0,0-.78-.79,6.28,6.28,0,0,0-1.16-.62L6,253a16.57,16.57,0,0,1-1.86-.85,5.44,5.44,0,0,1-1.35-1A3.52,3.52,0,0,1,1.93,250a4.42,4.42,0,0,1-.27-1.61,3.83,3.83,0,0,1,.51-2,4.58,4.58,0,0,1,1.38-1.46,6.37,6.37,0,0,1,2-.88,8.57,8.57,0,0,1,2.27-.3,9.14,9.14,0,0,1,3.72.72V247a7.18,7.18,0,0,0-4.06-1.16,4.77,4.77,0,0,0-1.3.16,3.24,3.24,0,0,0-1,.46,2.09,2.09,0,0,0-.64.72,1.86,1.86,0,0,0-.23.91,2.23,2.23,0,0,0,.23,1,2.32,2.32,0,0,0,.66.75,5.8,5.8,0,0,0,1.06.59l1.43.58c.7.27,1.34.55,1.9.83a6.83,6.83,0,0,1,1.44,1,3.75,3.75,0,0,1,.91,1.24,4.44,4.44,0,0,1-.2,3.74,4.4,4.4,0,0,1-1.4,1.45,6.3,6.3,0,0,1-2,.86,9.84,9.84,0,0,1-2.39.28A9.17,9.17,0,0,1,1.62,259.51Z" transform="translate(0 -5.53)"/><path d="M17.48,240a1.66,1.66,0,0,1-1.17-.47,1.61,1.61,0,0,1-.48-1.19,1.63,1.63,0,0,1,.48-1.2,1.66,1.66,0,0,1,1.17-.47,1.69,1.69,0,0,1,1.2.47,1.6,1.6,0,0,1,.49,1.2,1.56,1.56,0,0,1-.49,1.17A1.67,1.67,0,0,1,17.48,240Zm1.25,20.06H16.17v-16h2.56Z" transform="translate(0 -5.53)"/><path d="M37.2,260.09H34.64V251q0-5.09-3.72-5.09a4,4,0,0,0-3.18,1.44A5.36,5.36,0,0,0,26.48,251v9.13H23.92v-16h2.56v2.65h.07a5.76,5.76,0,0,1,5.25-3,4.88,4.88,0,0,1,4,1.7,7.53,7.53,0,0,1,1.39,4.9Z" transform="translate(0 -5.53)"/><path d="M48.72,260.46a7.42,7.42,0,0,1-5.67-2.24,8.3,8.3,0,0,1-2.11-5.94,8.65,8.65,0,0,1,2.2-6.3,7.92,7.92,0,0,1,6-2.27,7.18,7.18,0,0,1,5.59,2.21,8.71,8.71,0,0,1,2,6.11,8.57,8.57,0,0,1-2.17,6.13A7.55,7.55,0,0,1,48.72,260.46Zm.19-14.59A4.88,4.88,0,0,0,45,247.55a6.88,6.88,0,0,0-1.44,4.63A6.54,6.54,0,0,0,45,256.67a4.93,4.93,0,0,0,3.89,1.64,4.7,4.7,0,0,0,3.82-1.61,7,7,0,0,0,1.33-4.58,7.13,7.13,0,0,0-1.33-4.63A4.68,4.68,0,0,0,48.91,245.87Z" transform="translate(0 -5.53)"/></g><g style="isolation:isolate"><path d="M90.13,260.09H87.57v-2.53h-.06a5.28,5.28,0,0,1-4.94,2.9q-5.71,0-5.72-6.81v-9.56H79.4v9.15q0,5.07,3.87,5.07a3.91,3.91,0,0,0,3.09-1.39,5.25,5.25,0,0,0,1.21-3.61v-9.22h2.56Z" transform="translate(0 -5.53)"/><path d="M108.58,260.09H106V251q0-5.09-3.72-5.09a4,4,0,0,0-3.18,1.44A5.36,5.36,0,0,0,97.87,251v9.13H95.3v-16h2.57v2.65h.06a5.78,5.78,0,0,1,5.25-3,4.88,4.88,0,0,1,4,1.7,7.53,7.53,0,0,1,1.39,4.9Z" transform="translate(0 -5.53)"/></g><g style="isolation:isolate"><path d="M143.17,260.09h-2.56V251q0-5.09-3.72-5.09a4,4,0,0,0-3.18,1.44,5.41,5.41,0,0,0-1.25,3.65v9.13h-2.57v-16h2.57v2.65h.06a5.78,5.78,0,0,1,5.25-3,4.88,4.88,0,0,1,4,1.7,7.53,7.53,0,0,1,1.39,4.9Z" transform="translate(0 -5.53)"/><path d="M160.94,260.09h-2.56v-2.53h-.06a5.28,5.28,0,0,1-4.94,2.9q-5.72,0-5.72-6.81v-9.56h2.55v9.15q0,5.07,3.87,5.07a3.91,3.91,0,0,0,3.09-1.39,5.3,5.3,0,0,0,1.21-3.61v-9.22h2.56Z" transform="translate(0 -5.53)"/><path d="M188.83,260.09h-2.56V250.9a6.89,6.89,0,0,0-.82-3.84,3.13,3.13,0,0,0-2.76-1.19,3.43,3.43,0,0,0-2.79,1.5,5.77,5.77,0,0,0-1.15,3.59v9.13h-2.56v-9.5q0-4.72-3.64-4.72a3.37,3.37,0,0,0-2.78,1.41,5.86,5.86,0,0,0-1.1,3.68v9.13h-2.56v-16h2.56v2.53h.07a5.43,5.43,0,0,1,5-2.91,4.66,4.66,0,0,1,2.86.92,4.6,4.6,0,0,1,1.67,2.4,5.71,5.71,0,0,1,5.31-3.32q5.28,0,5.28,6.52Z" transform="translate(0 -5.53)"/><path d="M206.53,252.73H195.24a6,6,0,0,0,1.43,4.12,5,5,0,0,0,3.79,1.46,7.88,7.88,0,0,0,5-1.78v2.4a9.26,9.26,0,0,1-5.57,1.53,6.74,6.74,0,0,1-5.33-2.18,8.91,8.91,0,0,1-1.94-6.13,8.77,8.77,0,0,1,2.12-6.09,6.81,6.81,0,0,1,5.26-2.35,6,6,0,0,1,4.86,2,8.52,8.52,0,0,1,1.71,5.64Zm-2.62-2.17a5.26,5.26,0,0,0-1.07-3.46,3.65,3.65,0,0,0-2.93-1.23,4.12,4.12,0,0,0-3.08,1.3,5.89,5.89,0,0,0-1.56,3.39Z" transform="translate(0 -5.53)"/><path d="M218.75,246.68a3.15,3.15,0,0,0-1.93-.51,3.28,3.28,0,0,0-2.75,1.54,7.19,7.19,0,0,0-1.1,4.22v8.16h-2.56v-16H213v3.29H213a5.65,5.65,0,0,1,1.68-2.63,3.79,3.79,0,0,1,2.51-.94,4.06,4.06,0,0,1,1.53.22Z" transform="translate(0 -5.53)"/><path d="M228.22,260.46a7.4,7.4,0,0,1-5.66-2.24,8.31,8.31,0,0,1-2.12-5.94,8.65,8.65,0,0,1,2.2-6.3,7.94,7.94,0,0,1,6-2.27,7.17,7.17,0,0,1,5.58,2.21,8.71,8.71,0,0,1,2,6.11,8.61,8.61,0,0,1-2.16,6.13A7.59,7.59,0,0,1,228.22,260.46Zm.19-14.59a4.88,4.88,0,0,0-3.91,1.68,6.88,6.88,0,0,0-1.43,4.63,6.54,6.54,0,0,0,1.45,4.49,4.94,4.94,0,0,0,3.89,1.64,4.69,4.69,0,0,0,3.82-1.61,7,7,0,0,0,1.34-4.58,7.14,7.14,0,0,0-1.34-4.63A4.66,4.66,0,0,0,228.41,245.87Z" transform="translate(0 -5.53)"/></g><g style="isolation:isolate"><path d="M269.65,252.73H258.36a6,6,0,0,0,1.43,4.12,5,5,0,0,0,3.79,1.46,7.88,7.88,0,0,0,5-1.78v2.4a9.26,9.26,0,0,1-5.57,1.53,6.74,6.74,0,0,1-5.33-2.18,8.91,8.91,0,0,1-1.94-6.13,8.77,8.77,0,0,1,2.12-6.09,6.81,6.81,0,0,1,5.26-2.35,6,6,0,0,1,4.85,2,8.47,8.47,0,0,1,1.72,5.64ZM267,250.56A5.26,5.26,0,0,0,266,247.1a3.66,3.66,0,0,0-2.93-1.23,4.12,4.12,0,0,0-3.08,1.3,5.83,5.83,0,0,0-1.56,3.39Z" transform="translate(0 -5.53)"/><path d="M272.56,259.51v-2.75a7.6,7.6,0,0,0,4.61,1.55c2.25,0,3.37-.75,3.37-2.25a1.91,1.91,0,0,0-.29-1.09,2.79,2.79,0,0,0-.78-.79,6.18,6.18,0,0,0-1.15-.62l-1.43-.57a17.66,17.66,0,0,1-1.87-.85,5.38,5.38,0,0,1-1.34-1,3.7,3.7,0,0,1-.82-1.22,4.42,4.42,0,0,1-.27-1.61,3.74,3.74,0,0,1,.52-2,4.54,4.54,0,0,1,1.37-1.46,6.48,6.48,0,0,1,2-.88,8.64,8.64,0,0,1,2.28-.3,9.13,9.13,0,0,1,3.71.72V247a7.16,7.16,0,0,0-4.06-1.16,4.65,4.65,0,0,0-1.29.16,3.42,3.42,0,0,0-1,.46,2.19,2.19,0,0,0-.64.72,1.86,1.86,0,0,0-.22.91,2,2,0,0,0,.89,1.8,5.48,5.48,0,0,0,1.06.59c.41.18.89.37,1.42.58.71.27,1.34.55,1.91.83a6.51,6.51,0,0,1,1.43,1,3.93,3.93,0,0,1,.92,1.24,4.09,4.09,0,0,1,.32,1.68,4,4,0,0,1-.52,2.06,4.51,4.51,0,0,1-1.4,1.45,6.45,6.45,0,0,1-2,.86,9.84,9.84,0,0,1-2.39.28A9.13,9.13,0,0,1,272.56,259.51Z" transform="translate(0 -5.53)"/><path d="M298,259.35a8.3,8.3,0,0,1-4.37,1.11,7.27,7.27,0,0,1-5.53-2.22,8.09,8.09,0,0,1-2.1-5.78,8.88,8.88,0,0,1,2.27-6.35,7.92,7.92,0,0,1,6.05-2.4,8.4,8.4,0,0,1,3.71.78v2.63a6.52,6.52,0,0,0-3.81-1.25,5.15,5.15,0,0,0-4,1.76,6.64,6.64,0,0,0-1.57,4.61,6.36,6.36,0,0,0,1.47,4.44,5.09,5.09,0,0,0,4,1.63,6.46,6.46,0,0,0,3.93-1.39Z" transform="translate(0 -5.53)"/><path d="M313.34,260.09h-2.56v-2.5h-.06a5.39,5.39,0,0,1-4.93,2.87,5.27,5.27,0,0,1-3.74-1.26,4.41,4.41,0,0,1-1.35-3.36q0-4.49,5.28-5.22l4.8-.67q0-4.08-3.3-4.08a7.88,7.88,0,0,0-5.22,2v-2.63a9.92,9.92,0,0,1,5.44-1.5q5.64,0,5.64,6Zm-2.56-8.1-3.86.54a6.18,6.18,0,0,0-2.69.88,2.55,2.55,0,0,0-.9,2.24,2.42,2.42,0,0,0,.83,1.91,3.22,3.22,0,0,0,2.23.75,4.13,4.13,0,0,0,3.15-1.34,4.81,4.81,0,0,0,1.24-3.38Z" transform="translate(0 -5.53)"/><path d="M320.73,260.09h-2.56V236.4h2.56Z" transform="translate(0 -5.53)"/><path d="M337.37,260.09h-2.56v-2.5h-.06a5.38,5.38,0,0,1-4.92,2.87,5.28,5.28,0,0,1-3.75-1.26,4.41,4.41,0,0,1-1.35-3.36q0-4.49,5.28-5.22l4.8-.67q0-4.08-3.3-4.08a7.9,7.9,0,0,0-5.22,2v-2.63a10,10,0,0,1,5.44-1.5q5.64,0,5.64,6Zm-2.56-8.1-3.86.54a6.23,6.23,0,0,0-2.69.88,2.55,2.55,0,0,0-.9,2.24,2.42,2.42,0,0,0,.83,1.91,3.22,3.22,0,0,0,2.23.75,4.13,4.13,0,0,0,3.15-1.34,4.76,4.76,0,0,0,1.24-3.38Z" transform="translate(0 -5.53)"/><path d="M350.54,246.68a3.13,3.13,0,0,0-1.93-.51,3.28,3.28,0,0,0-2.75,1.54,7.19,7.19,0,0,0-1.1,4.22v8.16H342.2v-16h2.56v3.29h.07a5.56,5.56,0,0,1,1.67-2.63,3.79,3.79,0,0,1,2.51-.94,4.06,4.06,0,0,1,1.53.22Z" transform="translate(0 -5.53)"/><path d="M354.22,260.43a1.68,1.68,0,0,1-1.23-.51,1.76,1.76,0,0,1,0-2.48,1.65,1.65,0,0,1,1.23-.52,1.69,1.69,0,0,1,1.25.52,1.75,1.75,0,0,1-1.25,3Z" transform="translate(0 -5.53)"/></g><g style="isolation:isolate"><path d="M14.81,298.49H2.94V276.08H14.31v2.38H5.56v7.45h8.1v2.36H5.56v7.84h9.25Z" transform="translate(0 -5.53)"/><path d="M32.06,298.49H29.5v-9.13q0-5.08-3.72-5.09a4,4,0,0,0-3.18,1.44,5.36,5.36,0,0,0-1.26,3.65v9.13H18.78v-16h2.56v2.65h.07a5.76,5.76,0,0,1,5.25-3,4.89,4.89,0,0,1,4,1.7,7.53,7.53,0,0,1,1.39,4.9Z" transform="translate(0 -5.53)"/></g><g style="isolation:isolate"><path d="M56,298.33a5,5,0,0,1-2.4.5q-4.2,0-4.2-4.69v-9.47H46.67v-2.18h2.75v-3.91l2.56-.83v4.74h4v2.18H52v9a3.79,3.79,0,0,0,.55,2.3,2.18,2.18,0,0,0,1.81.68,2.68,2.68,0,0,0,1.68-.53Z" transform="translate(0 -5.53)"/><path d="M72.3,291.13H61a6,6,0,0,0,1.44,4.12,4.93,4.93,0,0,0,3.78,1.46,7.86,7.86,0,0,0,5-1.79v2.41a9.31,9.31,0,0,1-5.58,1.53,6.74,6.74,0,0,1-5.33-2.18,8.91,8.91,0,0,1-1.94-6.13,8.77,8.77,0,0,1,2.12-6.09,6.81,6.81,0,0,1,5.26-2.35,6,6,0,0,1,4.86,2,8.52,8.52,0,0,1,1.72,5.64ZM69.67,289a5.26,5.26,0,0,0-1.07-3.46,3.65,3.65,0,0,0-2.93-1.23,4.13,4.13,0,0,0-3.08,1.3A5.89,5.89,0,0,0,61,289Zm-.4-14.63-4.1,5.13h-2l3.48-5.13Z" transform="translate(0 -5.53)"/><path d="M84.52,285.08a3.18,3.18,0,0,0-1.94-.51,3.25,3.25,0,0,0-2.74,1.54,7.12,7.12,0,0,0-1.11,4.22v8.16H76.17v-16h2.56v3.29h.07a5.56,5.56,0,0,1,1.67-2.63,3.81,3.81,0,0,1,2.51-.94,4.41,4.41,0,0,1,1.54.21Z" transform="translate(0 -5.53)"/><path d="M110,298.49h-2.57V289.3a6.89,6.89,0,0,0-.82-3.84,3.1,3.1,0,0,0-2.75-1.19,3.4,3.4,0,0,0-2.79,1.5,5.71,5.71,0,0,0-1.15,3.59v9.13H97.38V289q0-4.73-3.65-4.72A3.38,3.38,0,0,0,91,285.68a5.85,5.85,0,0,0-1.09,3.68v9.13H87.3v-16h2.56V285h.06a5.44,5.44,0,0,1,5-2.91,4.64,4.64,0,0,1,4.53,3.31,5.72,5.72,0,0,1,5.31-3.31c3.52,0,5.29,2.17,5.29,6.52Z" transform="translate(0 -5.53)"/><path d="M116.17,278.42a1.66,1.66,0,1,1,0-3.32,1.69,1.69,0,0,1,1.2.47,1.6,1.6,0,0,1,.49,1.2,1.56,1.56,0,0,1-.49,1.17A1.66,1.66,0,0,1,116.17,278.42Zm1.25,20.07h-2.56v-16h2.56Z" transform="translate(0 -5.53)"/><path d="M135.89,298.49h-2.56v-9.13q0-5.08-3.72-5.09a4,4,0,0,0-3.18,1.44,5.36,5.36,0,0,0-1.26,3.65v9.13h-2.56v-16h2.56v2.65h.06a5.78,5.78,0,0,1,5.25-3,4.91,4.91,0,0,1,4,1.7,7.53,7.53,0,0,1,1.39,4.9Z" transform="translate(0 -5.53)"/><path d="M147.41,298.86a7.4,7.4,0,0,1-5.67-2.24,8.31,8.31,0,0,1-2.12-5.95,8.64,8.64,0,0,1,2.21-6.29,7.92,7.92,0,0,1,5.95-2.27,7.18,7.18,0,0,1,5.59,2.21,10,10,0,0,1-.16,12.24A7.6,7.6,0,0,1,147.41,298.86Zm.18-14.59a4.87,4.87,0,0,0-3.9,1.68,6.88,6.88,0,0,0-1.44,4.63,6.54,6.54,0,0,0,1.45,4.49,5,5,0,0,0,3.89,1.64,4.69,4.69,0,0,0,3.82-1.61,7,7,0,0,0,1.34-4.58,7.14,7.14,0,0,0-1.34-4.63A4.66,4.66,0,0,0,147.59,284.27Z" transform="translate(0 -5.53)"/><path d="M158.5,297.91v-2.75a7.6,7.6,0,0,0,4.61,1.55c2.25,0,3.37-.75,3.37-2.25a2,2,0,0,0-.28-1.09,3,3,0,0,0-.79-.79,6.18,6.18,0,0,0-1.15-.62l-1.43-.57a17.66,17.66,0,0,1-1.87-.85,5.38,5.38,0,0,1-1.34-1,3.7,3.7,0,0,1-.82-1.22,4.42,4.42,0,0,1-.27-1.61,3.74,3.74,0,0,1,.52-2,4.54,4.54,0,0,1,1.37-1.46,6.48,6.48,0,0,1,2-.88,8.7,8.7,0,0,1,2.28-.3,9.21,9.21,0,0,1,3.72.72v2.59a7.28,7.28,0,0,0-4.07-1.15,4.65,4.65,0,0,0-1.29.16,3.42,3.42,0,0,0-1,.46,2.26,2.26,0,0,0-.64.71,1.92,1.92,0,0,0-.22.92,2,2,0,0,0,.89,1.8,5.48,5.48,0,0,0,1.06.59l1.42.58c.71.27,1.35.55,1.91.83a6.83,6.83,0,0,1,1.44,1,3.9,3.9,0,0,1,.91,1.24,4.09,4.09,0,0,1,.32,1.68,4,4,0,0,1-.52,2.06,4.51,4.51,0,0,1-1.4,1.45,6.45,6.45,0,0,1-2,.86,9.84,9.84,0,0,1-2.39.28A9.16,9.16,0,0,1,158.5,297.91Z" transform="translate(0 -5.53)"/></g><g style="isolation:isolate"><path d="M198.45,297.21q0,8.81-8.44,8.81a11.27,11.27,0,0,1-5.18-1.13v-2.56a10.64,10.64,0,0,0,5.15,1.5q5.91,0,5.91-6.28V295.8h-.06a6.48,6.48,0,0,1-10.31.93A8.54,8.54,0,0,1,183.7,291a9.92,9.92,0,0,1,2-6.48,6.58,6.58,0,0,1,5.37-2.41,5.24,5.24,0,0,1,4.8,2.6h.06v-2.22h2.56Zm-2.56-6v-2.36a4.55,4.55,0,0,0-1.29-3.26,4.23,4.23,0,0,0-3.21-1.36,4.42,4.42,0,0,0-3.72,1.73,7.67,7.67,0,0,0-1.34,4.83,6.59,6.59,0,0,0,1.28,4.27,4.17,4.17,0,0,0,3.42,1.61,4.45,4.45,0,0,0,3.51-1.54A5.69,5.69,0,0,0,195.89,291.25Z" transform="translate(0 -5.53)"/><path d="M216.5,291.13H205.2a6,6,0,0,0,1.44,4.12,4.93,4.93,0,0,0,3.78,1.46,7.86,7.86,0,0,0,5-1.79v2.41a9.31,9.31,0,0,1-5.58,1.53,6.74,6.74,0,0,1-5.33-2.18,8.91,8.91,0,0,1-1.94-6.13,8.77,8.77,0,0,1,2.12-6.09,6.82,6.82,0,0,1,5.26-2.35,6,6,0,0,1,4.86,2,8.52,8.52,0,0,1,1.72,5.64ZM213.87,289a5.26,5.26,0,0,0-1.07-3.46,3.65,3.65,0,0,0-2.93-1.23,4.13,4.13,0,0,0-3.08,1.3,5.89,5.89,0,0,0-1.56,3.39Z" transform="translate(0 -5.53)"/><path d="M227.06,298.86a7.38,7.38,0,0,1-5.66-2.24,8.27,8.27,0,0,1-2.12-5.95,8.64,8.64,0,0,1,2.2-6.29,7.92,7.92,0,0,1,6-2.27,7.18,7.18,0,0,1,5.59,2.21,8.7,8.7,0,0,1,2,6.1,8.58,8.58,0,0,1-2.17,6.14A7.58,7.58,0,0,1,227.06,298.86Zm.19-14.59a4.88,4.88,0,0,0-3.91,1.68,6.88,6.88,0,0,0-1.44,4.63,6.54,6.54,0,0,0,1.46,4.49,4.94,4.94,0,0,0,3.89,1.64,4.7,4.7,0,0,0,3.82-1.61,7,7,0,0,0,1.33-4.58,7.13,7.13,0,0,0-1.33-4.63A4.68,4.68,0,0,0,227.25,284.27Z" transform="translate(0 -5.53)"/><path d="M261.84,298.49h-2.56V289.3a7,7,0,0,0-.82-3.84,3.13,3.13,0,0,0-2.76-1.19,3.43,3.43,0,0,0-2.79,1.5,5.77,5.77,0,0,0-1.15,3.59v9.13H249.2V289q0-4.73-3.64-4.72a3.37,3.37,0,0,0-2.78,1.41,5.86,5.86,0,0,0-1.1,3.68v9.13h-2.56v-16h2.56V285h.07a5.43,5.43,0,0,1,5-2.91,4.64,4.64,0,0,1,4.53,3.31,5.71,5.71,0,0,1,5.31-3.31q5.28,0,5.28,6.52Z" transform="translate(0 -5.53)"/><path d="M279.54,291.13H268.25a6,6,0,0,0,1.43,4.12,5,5,0,0,0,3.79,1.46,7.84,7.84,0,0,0,5-1.79v2.41a9.26,9.26,0,0,1-5.57,1.53,6.74,6.74,0,0,1-5.33-2.18,8.91,8.91,0,0,1-1.94-6.13,8.77,8.77,0,0,1,2.12-6.09,6.81,6.81,0,0,1,5.26-2.35,6,6,0,0,1,4.86,2,8.52,8.52,0,0,1,1.71,5.64ZM276.92,289a5.26,5.26,0,0,0-1.07-3.46,3.65,3.65,0,0,0-2.93-1.23,4.12,4.12,0,0,0-3.08,1.3,5.89,5.89,0,0,0-1.56,3.39Zm-.41-14.63-4.09,5.13h-2l3.49-5.13Z" transform="translate(0 -5.53)"/><path d="M290.84,298.33a5,5,0,0,1-2.39.5q-4.2,0-4.2-4.69v-9.47H281.5v-2.18h2.75v-3.91l2.56-.83v4.74h4v2.18h-4v9a3.72,3.72,0,0,0,.55,2.3,2.17,2.17,0,0,0,1.81.68,2.67,2.67,0,0,0,1.67-.53Z" transform="translate(0 -5.53)"/><path d="M302.61,285.08a3.18,3.18,0,0,0-1.94-.51,3.26,3.26,0,0,0-2.74,1.54,7.12,7.12,0,0,0-1.1,4.22v8.16h-2.57v-16h2.57v3.29h.06a5.56,5.56,0,0,1,1.67-2.63,3.81,3.81,0,0,1,2.52-.94,4.38,4.38,0,0,1,1.53.21Z" transform="translate(0 -5.53)"/><path d="M306.7,278.42a1.62,1.62,0,0,1-1.66-1.65,1.64,1.64,0,0,1,1.66-1.67,1.69,1.69,0,0,1,1.2.47,1.64,1.64,0,0,1,.49,1.2,1.6,1.6,0,0,1-.49,1.17A1.66,1.66,0,0,1,306.7,278.42ZM308,298.49h-2.56v-16H308Z" transform="translate(0 -5.53)"/><path d="M324,297.75a8.3,8.3,0,0,1-4.37,1.11,7.25,7.25,0,0,1-5.52-2.22,8.05,8.05,0,0,1-2.11-5.78,8.88,8.88,0,0,1,2.27-6.35,7.92,7.92,0,0,1,6.05-2.4,8.47,8.47,0,0,1,3.72.78v2.63a6.55,6.55,0,0,0-3.82-1.25,5.13,5.13,0,0,0-4,1.76,6.64,6.64,0,0,0-1.57,4.61,6.32,6.32,0,0,0,1.48,4.44,5.06,5.06,0,0,0,4,1.63,6.46,6.46,0,0,0,3.93-1.39Z" transform="translate(0 -5.53)"/><path d="M334.61,298.86a7.4,7.4,0,0,1-5.67-2.24,8.31,8.31,0,0,1-2.11-5.95,8.64,8.64,0,0,1,2.2-6.29,7.92,7.92,0,0,1,6-2.27,7.18,7.18,0,0,1,5.59,2.21,10,10,0,0,1-.16,12.24A7.6,7.6,0,0,1,334.61,298.86Zm.18-14.59a4.87,4.87,0,0,0-3.9,1.68,6.88,6.88,0,0,0-1.44,4.63,6.54,6.54,0,0,0,1.45,4.49,5,5,0,0,0,3.89,1.64,4.69,4.69,0,0,0,3.82-1.61,7,7,0,0,0,1.34-4.58,7.14,7.14,0,0,0-1.34-4.63A4.66,4.66,0,0,0,334.79,284.27Z" transform="translate(0 -5.53)"/><path d="M345.7,297.91v-2.75a7.6,7.6,0,0,0,4.61,1.55c2.25,0,3.37-.75,3.37-2.25a2,2,0,0,0-.28-1.09,3,3,0,0,0-.79-.79,6.18,6.18,0,0,0-1.15-.62l-1.43-.57a17.66,17.66,0,0,1-1.87-.85,5.38,5.38,0,0,1-1.34-1,3.7,3.7,0,0,1-.82-1.22,4.42,4.42,0,0,1-.27-1.61,3.74,3.74,0,0,1,.52-2,4.54,4.54,0,0,1,1.37-1.46,6.48,6.48,0,0,1,2-.88,8.7,8.7,0,0,1,2.28-.3,9.21,9.21,0,0,1,3.72.72v2.59a7.28,7.28,0,0,0-4.07-1.15,4.65,4.65,0,0,0-1.29.16,3.42,3.42,0,0,0-1,.46,2.26,2.26,0,0,0-.64.71,1.92,1.92,0,0,0-.22.92,2.23,2.23,0,0,0,.22,1.05,2.36,2.36,0,0,0,.67.75,5.48,5.48,0,0,0,1.06.59l1.42.58c.71.27,1.35.55,1.91.83a6.83,6.83,0,0,1,1.44,1,3.9,3.9,0,0,1,.91,1.24,4.09,4.09,0,0,1,.32,1.68,4,4,0,0,1-.52,2.06,4.51,4.51,0,0,1-1.4,1.45,6.45,6.45,0,0,1-2,.86,9.84,9.84,0,0,1-2.39.28A9.13,9.13,0,0,1,345.7,297.91Z" transform="translate(0 -5.53)"/></g><g style="isolation:isolate"><path d="M16.25,336.89H13.69v-2.72h-.07a5.91,5.91,0,0,1-5.5,3.09,6,6,0,0,1-4.82-2.15,8.82,8.82,0,0,1-1.8-5.85,9.63,9.63,0,0,1,2-6.36,6.6,6.6,0,0,1,5.33-2.39,5.12,5.12,0,0,1,4.79,2.6h.07V313.2h2.56Zm-2.56-7.24v-2.36A4.6,4.6,0,0,0,12.41,324a4.33,4.33,0,0,0-3.25-1.34,4.4,4.4,0,0,0-3.69,1.72,7.5,7.5,0,0,0-1.35,4.75,6.74,6.74,0,0,0,1.29,4.36,4.23,4.23,0,0,0,3.47,1.61,4.38,4.38,0,0,0,3.47-1.55A5.76,5.76,0,0,0,13.69,329.65Z" transform="translate(0 -5.53)"/><path d="M34.3,329.53H23a6,6,0,0,0,1.44,4.12,4.93,4.93,0,0,0,3.78,1.46,7.91,7.91,0,0,0,5-1.78v2.4a9.31,9.31,0,0,1-5.58,1.53,6.74,6.74,0,0,1-5.33-2.18A8.91,8.91,0,0,1,20.34,329a8.77,8.77,0,0,1,2.12-6.09,6.81,6.81,0,0,1,5.26-2.35,6,6,0,0,1,4.86,2,8.52,8.52,0,0,1,1.72,5.64Zm-2.63-2.17a5.26,5.26,0,0,0-1.07-3.46,3.65,3.65,0,0,0-2.93-1.23,4.13,4.13,0,0,0-3.08,1.3A5.89,5.89,0,0,0,23,327.36Z" transform="translate(0 -5.53)"/><path d="M40.8,334.58h-.07v2.31H38.17V313.2h2.56v10.5h.07a6.07,6.07,0,0,1,5.53-3.19,5.87,5.87,0,0,1,4.82,2.15,8.87,8.87,0,0,1,1.74,5.76,9.92,9.92,0,0,1-2,6.43,6.51,6.51,0,0,1-5.35,2.41A5.25,5.25,0,0,1,40.8,334.58Zm-.07-6.46v2.24A4.74,4.74,0,0,0,42,333.72a4.26,4.26,0,0,0,3.28,1.39A4.32,4.32,0,0,0,49,333.33a8.19,8.19,0,0,0,1.32-5A6.5,6.5,0,0,0,49,324.18a4.08,4.08,0,0,0-3.34-1.51,4.57,4.57,0,0,0-3.6,1.55A5.75,5.75,0,0,0,40.73,328.12Z" transform="translate(0 -5.53)"/><path d="M69.84,329.53H58.55A6,6,0,0,0,60,333.65a5,5,0,0,0,3.79,1.46,7.88,7.88,0,0,0,5-1.78v2.4a9.26,9.26,0,0,1-5.57,1.53,6.74,6.74,0,0,1-5.33-2.18A8.91,8.91,0,0,1,55.89,329,8.77,8.77,0,0,1,58,322.86a6.81,6.81,0,0,1,5.26-2.35,6,6,0,0,1,4.85,2,8.47,8.47,0,0,1,1.72,5.64Zm-2.62-2.17a5.26,5.26,0,0,0-1.07-3.46,3.65,3.65,0,0,0-2.93-1.23,4.12,4.12,0,0,0-3.08,1.3,5.89,5.89,0,0,0-1.56,3.39Z" transform="translate(0 -5.53)"/></g><g style="isolation:isolate"><path d="M95,329.53H83.66a6,6,0,0,0,1.43,4.12,5,5,0,0,0,3.79,1.46,7.88,7.88,0,0,0,5-1.78v2.4a9.26,9.26,0,0,1-5.57,1.53,6.73,6.73,0,0,1-5.33-2.18A8.91,8.91,0,0,1,81,329a8.77,8.77,0,0,1,2.12-6.09,6.81,6.81,0,0,1,5.26-2.35,6,6,0,0,1,4.85,2A8.47,8.47,0,0,1,95,328.18Zm-2.62-2.17a5.26,5.26,0,0,0-1.07-3.46,3.66,3.66,0,0,0-2.93-1.23,4.12,4.12,0,0,0-3.08,1.3,5.89,5.89,0,0,0-1.56,3.39Z" transform="translate(0 -5.53)"/><path d="M112.11,336.89h-2.56v-9.13q0-5.08-3.72-5.09a4,4,0,0,0-3.18,1.44,5.36,5.36,0,0,0-1.26,3.65v9.13H98.83v-16h2.56v2.65h.06a5.78,5.78,0,0,1,5.25-3,4.91,4.91,0,0,1,4,1.7,7.53,7.53,0,0,1,1.39,4.9Z" transform="translate(0 -5.53)"/><path d="M124.36,336.73a5,5,0,0,1-2.39.5q-4.2,0-4.2-4.69v-9.46H115v-2.19h2.75V317l2.56-.83v4.74h4v2.19h-4v9a3.72,3.72,0,0,0,.55,2.3,2.16,2.16,0,0,0,1.81.69,2.67,2.67,0,0,0,1.67-.54Z" transform="translate(0 -5.53)"/><path d="M140.64,329.53h-11.3a6,6,0,0,0,1.44,4.12,5,5,0,0,0,3.78,1.46,7.91,7.91,0,0,0,5-1.78v2.4a9.29,9.29,0,0,1-5.58,1.53,6.76,6.76,0,0,1-5.33-2.18,8.91,8.91,0,0,1-1.93-6.13,8.77,8.77,0,0,1,2.11-6.09,6.84,6.84,0,0,1,5.26-2.35,6,6,0,0,1,4.86,2,8.47,8.47,0,0,1,1.72,5.64ZM138,327.36A5.32,5.32,0,0,0,137,323.9a3.66,3.66,0,0,0-2.93-1.23,4.12,4.12,0,0,0-3.08,1.3,5.77,5.77,0,0,0-1.56,3.39Z" transform="translate(0 -5.53)"/><path d="M157.8,336.89h-2.57v-9.13q0-5.08-3.71-5.09a4,4,0,0,0-3.18,1.44,5.36,5.36,0,0,0-1.26,3.65v9.13h-2.56v-16h2.56v2.65h.06a5.78,5.78,0,0,1,5.25-3,4.91,4.91,0,0,1,4,1.7,7.59,7.59,0,0,1,1.39,4.9Z" transform="translate(0 -5.53)"/><path d="M176.28,336.89h-2.56v-2.72h-.06a6.46,6.46,0,0,1-10.32.94,8.77,8.77,0,0,1-1.81-5.85,9.63,9.63,0,0,1,2-6.36,6.6,6.6,0,0,1,5.33-2.39,5.13,5.13,0,0,1,4.8,2.6h.06V313.2h2.56Zm-2.56-7.24v-2.36a4.6,4.6,0,0,0-1.28-3.28,4.33,4.33,0,0,0-3.25-1.34,4.42,4.42,0,0,0-3.69,1.72,7.5,7.5,0,0,0-1.34,4.75,6.74,6.74,0,0,0,1.29,4.36,4.2,4.2,0,0,0,3.46,1.61,4.38,4.38,0,0,0,3.47-1.55A5.76,5.76,0,0,0,173.72,329.65Z" transform="translate(0 -5.53)"/><path d="M194.33,329.53H183a6,6,0,0,0,1.44,4.12,5,5,0,0,0,3.78,1.46,7.91,7.91,0,0,0,5-1.78v2.4a9.31,9.31,0,0,1-5.58,1.53,6.74,6.74,0,0,1-5.33-2.18,8.91,8.91,0,0,1-1.93-6.13,8.77,8.77,0,0,1,2.11-6.09,6.82,6.82,0,0,1,5.26-2.35,6,6,0,0,1,4.86,2,8.52,8.52,0,0,1,1.72,5.64Zm-2.63-2.17a5.21,5.21,0,0,0-1.07-3.46,3.65,3.65,0,0,0-2.93-1.23,4.13,4.13,0,0,0-3.08,1.3,5.89,5.89,0,0,0-1.56,3.39Z" transform="translate(0 -5.53)"/><path d="M206.55,323.48a3.18,3.18,0,0,0-1.94-.51,3.26,3.26,0,0,0-2.74,1.54,7.12,7.12,0,0,0-1.1,4.22v8.16H198.2v-16h2.57v3.29h.06a5.56,5.56,0,0,1,1.67-2.63,3.81,3.81,0,0,1,2.52-.94,4.13,4.13,0,0,1,1.53.22Z" transform="translate(0 -5.53)"/><path d="M208.36,336.31v-2.75a7.58,7.58,0,0,0,4.61,1.55c2.25,0,3.37-.75,3.37-2.25a1.91,1.91,0,0,0-.29-1.09,2.79,2.79,0,0,0-.78-.79,6.18,6.18,0,0,0-1.15-.62l-1.43-.57a17.66,17.66,0,0,1-1.87-.85,5.38,5.38,0,0,1-1.34-1,3.7,3.7,0,0,1-.82-1.22,4.42,4.42,0,0,1-.27-1.61,3.74,3.74,0,0,1,.52-2,4.54,4.54,0,0,1,1.37-1.46,6.48,6.48,0,0,1,2-.88,8.64,8.64,0,0,1,2.28-.3,9.13,9.13,0,0,1,3.71.72v2.6a7.16,7.16,0,0,0-4.06-1.16,4.65,4.65,0,0,0-1.29.16,3.42,3.42,0,0,0-1,.46,2.26,2.26,0,0,0-.64.71,1.92,1.92,0,0,0-.22.92,2,2,0,0,0,.89,1.8,5.48,5.48,0,0,0,1.06.59c.41.18.89.37,1.42.58.71.27,1.34.55,1.91.83a6.51,6.51,0,0,1,1.43,1,3.93,3.93,0,0,1,.92,1.24,4.09,4.09,0,0,1,.32,1.68,4,4,0,0,1-.52,2.06,4.51,4.51,0,0,1-1.4,1.45,6.45,6.45,0,0,1-2,.86,9.84,9.84,0,0,1-2.39.28A9.13,9.13,0,0,1,208.36,336.31Z" transform="translate(0 -5.53)"/><path d="M235.77,329.53h-11.3a6,6,0,0,0,1.44,4.12,4.93,4.93,0,0,0,3.78,1.46,7.91,7.91,0,0,0,5-1.78v2.4a9.31,9.31,0,0,1-5.58,1.53,6.74,6.74,0,0,1-5.33-2.18,8.91,8.91,0,0,1-1.94-6.13,8.77,8.77,0,0,1,2.12-6.09,6.81,6.81,0,0,1,5.26-2.35,6,6,0,0,1,4.86,2,8.52,8.52,0,0,1,1.72,5.64Zm-2.63-2.17a5.26,5.26,0,0,0-1.07-3.46,3.65,3.65,0,0,0-2.93-1.23,4.13,4.13,0,0,0-3.08,1.3,5.89,5.89,0,0,0-1.56,3.39Z" transform="translate(0 -5.53)"/></g><g style="isolation:isolate"><path d="M258.9,336.15a8.33,8.33,0,0,1-4.37,1.11A7.25,7.25,0,0,1,249,335a8.09,8.09,0,0,1-2.1-5.78,8.88,8.88,0,0,1,2.27-6.35,7.91,7.91,0,0,1,6-2.4,8.41,8.41,0,0,1,3.72.78v2.63a6.55,6.55,0,0,0-3.81-1.25,5.1,5.1,0,0,0-4,1.76,6.64,6.64,0,0,0-1.57,4.61,6.36,6.36,0,0,0,1.47,4.44,5.09,5.09,0,0,0,4,1.63,6.47,6.47,0,0,0,3.94-1.39Z" transform="translate(0 -5.53)"/><path d="M269.46,337.26A7.4,7.4,0,0,1,263.8,335a8.31,8.31,0,0,1-2.12-5.94,8.69,8.69,0,0,1,2.2-6.3,7.94,7.94,0,0,1,6-2.27,7.17,7.17,0,0,1,5.58,2.21,8.71,8.71,0,0,1,2,6.11,8.61,8.61,0,0,1-2.16,6.13A7.59,7.59,0,0,1,269.46,337.26Zm.19-14.59a4.88,4.88,0,0,0-3.91,1.68,6.93,6.93,0,0,0-1.43,4.63,6.54,6.54,0,0,0,1.45,4.49,5,5,0,0,0,3.89,1.64,4.69,4.69,0,0,0,3.82-1.61,7,7,0,0,0,1.34-4.58,7.14,7.14,0,0,0-1.34-4.63A4.66,4.66,0,0,0,269.65,322.67Z" transform="translate(0 -5.53)"/><path d="M304.24,336.89h-2.56V327.7a6.89,6.89,0,0,0-.82-3.84,3.13,3.13,0,0,0-2.76-1.19,3.43,3.43,0,0,0-2.79,1.5,5.77,5.77,0,0,0-1.14,3.59v9.13H291.6v-9.5q0-4.72-3.64-4.72a3.38,3.38,0,0,0-2.78,1.41,5.85,5.85,0,0,0-1.09,3.68v9.13h-2.56v-16h2.56v2.53h.06a5.44,5.44,0,0,1,5-2.91,4.63,4.63,0,0,1,4.53,3.32,5.72,5.72,0,0,1,5.31-3.32q5.28,0,5.28,6.52Z" transform="translate(0 -5.53)"/><path d="M315.78,337.26a7.4,7.4,0,0,1-5.67-2.24,8.31,8.31,0,0,1-2.12-5.94,8.65,8.65,0,0,1,2.21-6.3,7.92,7.92,0,0,1,5.95-2.27,7.18,7.18,0,0,1,5.59,2.21,8.75,8.75,0,0,1,2,6.11,8.61,8.61,0,0,1-2.16,6.13A7.56,7.56,0,0,1,315.78,337.26Zm.18-14.59a4.86,4.86,0,0,0-3.9,1.68,6.88,6.88,0,0,0-1.44,4.63,6.54,6.54,0,0,0,1.45,4.49,5,5,0,0,0,3.89,1.64,4.69,4.69,0,0,0,3.82-1.61,7,7,0,0,0,1.34-4.58,7.14,7.14,0,0,0-1.34-4.63A4.66,4.66,0,0,0,316,322.67Z" transform="translate(0 -5.53)"/></g><g style="isolation:isolate"><path d="M338.76,336.89h-2.57V313.2h2.57Z" transform="translate(0 -5.53)"/><path d="M355.4,336.89h-2.57v-2.5h-.06a5.36,5.36,0,0,1-4.92,2.87,5.27,5.27,0,0,1-3.74-1.26,4.41,4.41,0,0,1-1.35-3.36q0-4.49,5.28-5.22l4.79-.67c0-2.72-1.09-4.08-3.29-4.08a7.88,7.88,0,0,0-5.22,2V322a9.9,9.9,0,0,1,5.44-1.5q5.64,0,5.64,6Zm-2.57-8.1-3.86.54a6.18,6.18,0,0,0-2.68.88,2.53,2.53,0,0,0-.91,2.24,2.42,2.42,0,0,0,.84,1.91,3.19,3.19,0,0,0,2.22.75,4.13,4.13,0,0,0,3.15-1.34,4.76,4.76,0,0,0,1.24-3.38Z" transform="translate(0 -5.53)"/></g><g style="isolation:isolate"><path d="M5.22,373H5.16v9.68H2.59V359.29H5.16v2.81h.06a6,6,0,0,1,5.53-3.19,5.88,5.88,0,0,1,4.83,2.15,8.93,8.93,0,0,1,1.73,5.76,9.92,9.92,0,0,1-1.95,6.43A6.49,6.49,0,0,1,10,375.66,5.33,5.33,0,0,1,5.22,373Zm-.06-6.45v2.24a4.74,4.74,0,0,0,1.29,3.36,4.28,4.28,0,0,0,3.27,1.39,4.3,4.3,0,0,0,3.65-1.79,8.14,8.14,0,0,0,1.32-5,6.42,6.42,0,0,0-1.24-4.19,4.07,4.07,0,0,0-3.34-1.51,4.54,4.54,0,0,0-3.59,1.55A5.71,5.71,0,0,0,5.16,366.52Z" transform="translate(0 -5.53)"/><path d="M29.75,361.88a3.16,3.16,0,0,0-1.94-.51,3.26,3.26,0,0,0-2.74,1.54,7.19,7.19,0,0,0-1.1,4.22v8.16H21.41v-16H24v3.29H24A5.64,5.64,0,0,1,25.7,360a3.81,3.81,0,0,1,2.52-.94,4.31,4.31,0,0,1,1.53.21Z" transform="translate(0 -5.53)"/><path d="M39.22,375.66a7.42,7.42,0,0,1-5.67-2.24,8.31,8.31,0,0,1-2.11-5.95,8.64,8.64,0,0,1,2.2-6.29,7.92,7.92,0,0,1,6-2.27,7.18,7.18,0,0,1,5.59,2.21,8.7,8.7,0,0,1,2,6.1A8.58,8.58,0,0,1,45,373.36,7.58,7.58,0,0,1,39.22,375.66Zm.19-14.59a4.88,4.88,0,0,0-3.91,1.68,6.88,6.88,0,0,0-1.44,4.63,6.54,6.54,0,0,0,1.46,4.49,4.93,4.93,0,0,0,3.89,1.64,4.7,4.7,0,0,0,3.82-1.61,7,7,0,0,0,1.33-4.58,7.13,7.13,0,0,0-1.33-4.63A4.68,4.68,0,0,0,39.41,361.07Z" transform="translate(0 -5.53)"/><path d="M64,359.29l-7.36,18.56c-1.32,3.31-3.16,5-5.54,5a6.11,6.11,0,0,1-1.67-.2v-2.3a4.68,4.68,0,0,0,1.52.28q1.94,0,2.91-2.31l1.28-3-6.25-16h2.84l4.33,12.31c.05.16.16.56.33,1.22h.09c0-.25.16-.65.31-1.19l4.55-12.34Z" transform="translate(0 -5.53)"/><path d="M79.62,367.93H68.33a6,6,0,0,0,1.44,4.12,4.93,4.93,0,0,0,3.78,1.46,7.88,7.88,0,0,0,5-1.79v2.41a9.31,9.31,0,0,1-5.58,1.53,6.74,6.74,0,0,1-5.33-2.18,8.91,8.91,0,0,1-1.94-6.13,8.77,8.77,0,0,1,2.12-6.09,6.81,6.81,0,0,1,5.26-2.35,6,6,0,0,1,4.86,2,8.52,8.52,0,0,1,1.71,5.64ZM77,365.76a5.26,5.26,0,0,0-1.07-3.46A3.65,3.65,0,0,0,73,361.07a4.13,4.13,0,0,0-3.08,1.3,5.89,5.89,0,0,0-1.56,3.39Z" transform="translate(0 -5.53)"/><path d="M94.41,374.55A8.34,8.34,0,0,1,90,375.66a7.25,7.25,0,0,1-5.52-2.22,8.09,8.09,0,0,1-2.1-5.78,8.88,8.88,0,0,1,2.26-6.35,7.93,7.93,0,0,1,6-2.4,8.47,8.47,0,0,1,3.72.78v2.63a6.55,6.55,0,0,0-3.82-1.25,5.13,5.13,0,0,0-4,1.76A6.64,6.64,0,0,0,85,367.44a6.32,6.32,0,0,0,1.48,4.44,5.09,5.09,0,0,0,4,1.63,6.49,6.49,0,0,0,3.94-1.39Z" transform="translate(0 -5.53)"/><path d="M109.19,374.55a8.34,8.34,0,0,1-4.38,1.11,7.25,7.25,0,0,1-5.52-2.22,8.09,8.09,0,0,1-2.1-5.78,8.88,8.88,0,0,1,2.26-6.35,7.93,7.93,0,0,1,6-2.4,8.41,8.41,0,0,1,3.72.78v2.63a6.55,6.55,0,0,0-3.81-1.25,5.14,5.14,0,0,0-4,1.76,6.69,6.69,0,0,0-1.57,4.61,6.32,6.32,0,0,0,1.48,4.44,5.09,5.09,0,0,0,4,1.63,6.47,6.47,0,0,0,3.94-1.39Z" transform="translate(0 -5.53)"/><path d="M114.38,355.22a1.65,1.65,0,0,1-1.18-.46,1.61,1.61,0,0,1-.48-1.19,1.63,1.63,0,0,1,.48-1.2,1.66,1.66,0,0,1,1.18-.47,1.69,1.69,0,0,1,1.19.47,1.6,1.6,0,0,1,.49,1.2,1.56,1.56,0,0,1-.49,1.17A1.65,1.65,0,0,1,114.38,355.22Zm1.24,20.07h-2.56v-16h2.56Z" transform="translate(0 -5.53)"/><path d="M127.5,375.66a7.4,7.4,0,0,1-5.66-2.24,8.27,8.27,0,0,1-2.12-5.95,8.64,8.64,0,0,1,2.2-6.29,7.94,7.94,0,0,1,6-2.27,7.17,7.17,0,0,1,5.58,2.21,8.7,8.7,0,0,1,2,6.1,8.58,8.58,0,0,1-2.17,6.14A7.58,7.58,0,0,1,127.5,375.66Zm.19-14.59a4.88,4.88,0,0,0-3.91,1.68,6.88,6.88,0,0,0-1.44,4.63,6.54,6.54,0,0,0,1.46,4.49,4.94,4.94,0,0,0,3.89,1.64,4.7,4.7,0,0,0,3.82-1.61,7,7,0,0,0,1.33-4.58,7.13,7.13,0,0,0-1.33-4.63A4.68,4.68,0,0,0,127.69,361.07Zm3.75-9.94-4.1,5.13h-2l3.48-5.13Z" transform="translate(0 -5.53)"/><path d="M152.84,375.29h-2.56v-9.13q0-5.09-3.72-5.09a4,4,0,0,0-3.18,1.44,5.36,5.36,0,0,0-1.26,3.65v9.13h-2.56v-16h2.56v2.65h.07a5.78,5.78,0,0,1,5.25-3,4.88,4.88,0,0,1,4,1.7,7.53,7.53,0,0,1,1.39,4.9Z" transform="translate(0 -5.53)"/></g><g style="isolation:isolate"><path d="M185.75,375.29h-2.56v-2.72h-.07a6.46,6.46,0,0,1-10.32.94,8.82,8.82,0,0,1-1.8-5.85,9.63,9.63,0,0,1,2-6.36,6.6,6.6,0,0,1,5.33-2.39,5.12,5.12,0,0,1,4.79,2.6h.07V351.6h2.56Zm-2.56-7.24v-2.36a4.6,4.6,0,0,0-1.28-3.28,4.33,4.33,0,0,0-3.25-1.34,4.4,4.4,0,0,0-3.69,1.72,7.5,7.5,0,0,0-1.35,4.75,6.74,6.74,0,0,0,1.29,4.36,4.23,4.23,0,0,0,3.47,1.61,4.38,4.38,0,0,0,3.47-1.55A5.76,5.76,0,0,0,183.19,368.05Z" transform="translate(0 -5.53)"/><path d="M203.8,367.93H192.5a6,6,0,0,0,1.44,4.12,4.93,4.93,0,0,0,3.78,1.46,7.86,7.86,0,0,0,5-1.79v2.41a9.31,9.31,0,0,1-5.58,1.53,6.74,6.74,0,0,1-5.33-2.18,8.91,8.91,0,0,1-1.94-6.13,8.77,8.77,0,0,1,2.12-6.09,6.81,6.81,0,0,1,5.26-2.35,6,6,0,0,1,4.86,2,8.52,8.52,0,0,1,1.72,5.64Zm-2.63-2.17a5.26,5.26,0,0,0-1.07-3.46,3.65,3.65,0,0,0-2.93-1.23,4.13,4.13,0,0,0-3.08,1.3,5.89,5.89,0,0,0-1.56,3.39Z" transform="translate(0 -5.53)"/></g><g style="isolation:isolate"><path d="M235,375.29h-2.56v-2.53h-.06a5.28,5.28,0,0,1-4.94,2.9q-5.72,0-5.72-6.81v-9.56h2.55v9.15q0,5.07,3.87,5.07a3.94,3.94,0,0,0,3.09-1.39,5.3,5.3,0,0,0,1.21-3.61v-9.22H235Z" transform="translate(0 -5.53)"/><path d="M253.48,375.29h-2.56v-9.13q0-5.09-3.72-5.09a4,4,0,0,0-3.18,1.44,5.36,5.36,0,0,0-1.25,3.65v9.13H240.2v-16h2.57v2.65h.06a5.78,5.78,0,0,1,5.25-3,4.88,4.88,0,0,1,4,1.7,7.53,7.53,0,0,1,1.39,4.9Z" transform="translate(0 -5.53)"/></g><g style="isolation:isolate"><path d="M285.27,359.29l-6.37,16h-2.52l-6.06-16h2.81l4.06,11.62a10.51,10.51,0,0,1,.57,2.24h.06a10.27,10.27,0,0,1,.5-2.18l4.25-11.68Z" transform="translate(0 -5.53)"/><path d="M300.88,367.93h-11.3a6,6,0,0,0,1.44,4.12,5,5,0,0,0,3.78,1.46,7.86,7.86,0,0,0,5-1.79v2.41a9.27,9.27,0,0,1-5.58,1.53,6.72,6.72,0,0,1-5.32-2.18,8.86,8.86,0,0,1-1.94-6.13,8.77,8.77,0,0,1,2.11-6.09,6.84,6.84,0,0,1,5.26-2.35,6,6,0,0,1,4.86,2,8.47,8.47,0,0,1,1.72,5.64Zm-2.62-2.17a5.26,5.26,0,0,0-1.07-3.46,3.66,3.66,0,0,0-2.93-1.23,4.12,4.12,0,0,0-3.08,1.3,5.77,5.77,0,0,0-1.56,3.39Z" transform="translate(0 -5.53)"/><path d="M315.66,374.55a8.33,8.33,0,0,1-4.37,1.11,7.28,7.28,0,0,1-5.53-2.22,8.09,8.09,0,0,1-2.1-5.78,8.88,8.88,0,0,1,2.27-6.35,7.91,7.91,0,0,1,6-2.4,8.41,8.41,0,0,1,3.72.78v2.63a6.5,6.5,0,0,0-3.81-1.25,5.12,5.12,0,0,0-4,1.76,6.64,6.64,0,0,0-1.57,4.61,6.36,6.36,0,0,0,1.47,4.44,5.12,5.12,0,0,0,4,1.63,6.47,6.47,0,0,0,3.94-1.39Z" transform="translate(0 -5.53)"/><path d="M327,375.13a5,5,0,0,1-2.39.5q-4.2,0-4.2-4.69v-9.47h-2.75v-2.18h2.75v-3.91l2.56-.83v4.74h4v2.18h-4v9a3.79,3.79,0,0,0,.54,2.3,2.19,2.19,0,0,0,1.82.68,2.67,2.67,0,0,0,1.67-.53Z" transform="translate(0 -5.53)"/><path d="M337.07,375.66a7.42,7.42,0,0,1-5.67-2.24,8.31,8.31,0,0,1-2.11-5.95,8.64,8.64,0,0,1,2.2-6.29,7.92,7.92,0,0,1,5.95-2.27,7.18,7.18,0,0,1,5.59,2.21,8.7,8.7,0,0,1,2,6.1,8.58,8.58,0,0,1-2.17,6.14A7.58,7.58,0,0,1,337.07,375.66Zm.19-14.59a4.88,4.88,0,0,0-3.91,1.68,6.88,6.88,0,0,0-1.44,4.63,6.54,6.54,0,0,0,1.46,4.49,4.93,4.93,0,0,0,3.89,1.64,4.7,4.7,0,0,0,3.82-1.61,7,7,0,0,0,1.33-4.58,7.13,7.13,0,0,0-1.33-4.63A4.68,4.68,0,0,0,337.26,361.07Z" transform="translate(0 -5.53)"/><path d="M357.47,361.88a3.13,3.13,0,0,0-1.93-.51,3.28,3.28,0,0,0-2.75,1.54,7.19,7.19,0,0,0-1.1,4.22v8.16h-2.56v-16h2.56v3.29h.07a5.56,5.56,0,0,1,1.67-2.63,3.81,3.81,0,0,1,2.51-.94,4.31,4.31,0,0,1,1.53.21Z" transform="translate(0 -5.53)"/></g><rect y="384.47" width="357.6" height="40" style="fill:none"/><g style="isolation:isolate"><path d="M1.68,413.79V411a7.83,7.83,0,0,0,4.75,1.59c2.32,0,3.48-.77,3.48-2.32a2,2,0,0,0-.3-1.12,3.23,3.23,0,0,0-.8-.81,6.14,6.14,0,0,0-1.2-.64l-1.47-.58c-.73-.29-1.37-.59-1.93-.88a6,6,0,0,1-1.38-1A3.71,3.71,0,0,1,2,403.93a4.41,4.41,0,0,1-.28-1.66,4,4,0,0,1,.53-2,4.62,4.62,0,0,1,1.42-1.5,6.53,6.53,0,0,1,2-.91A9.16,9.16,0,0,1,8,397.5a9.4,9.4,0,0,1,3.84.75v2.67a7.42,7.42,0,0,0-4.19-1.19,4.68,4.68,0,0,0-1.34.17,3.31,3.31,0,0,0-1,.47,2.11,2.11,0,0,0-.66.74,1.85,1.85,0,0,0-.23.94,2.21,2.21,0,0,0,.23,1.08,2.24,2.24,0,0,0,.68.77,5,5,0,0,0,1.1.61c.43.19.92.38,1.47.6.73.28,1.38.57,2,.86a6.71,6.71,0,0,1,1.48,1,3.92,3.92,0,0,1,.95,1.28,4.14,4.14,0,0,1,.33,1.73,4.05,4.05,0,0,1-.54,2.12,4.61,4.61,0,0,1-1.45,1.5,6.68,6.68,0,0,1-2.07.89,10.51,10.51,0,0,1-2.47.29A9.26,9.26,0,0,1,1.68,413.79Z" transform="translate(0 -5.53)"/><path d="M23.57,414.78a7.65,7.65,0,0,1-5.84-2.32,8.57,8.57,0,0,1-2.18-6.13,8.94,8.94,0,0,1,2.27-6.49A8.17,8.17,0,0,1,24,397.5a7.39,7.39,0,0,1,5.76,2.28,9,9,0,0,1,2.07,6.3,8.84,8.84,0,0,1-2.23,6.32A7.8,7.8,0,0,1,23.57,414.78Zm.2-15a5,5,0,0,0-4,1.73,7.1,7.1,0,0,0-1.48,4.78,6.77,6.77,0,0,0,1.49,4.62,5.1,5.1,0,0,0,4,1.69,4.82,4.82,0,0,0,3.94-1.66,7.18,7.18,0,0,0,1.37-4.72,7.33,7.33,0,0,0-1.37-4.77A4.83,4.83,0,0,0,23.77,399.73Z" transform="translate(0 -5.53)"/><path d="M38.72,412h-.06v2.38H36V390h2.65v10.83h.06a6.25,6.25,0,0,1,5.7-3.29,6.06,6.06,0,0,1,5,2.22,9.21,9.21,0,0,1,1.79,5.94,10.24,10.24,0,0,1-2,6.63,6.72,6.72,0,0,1-5.51,2.49A5.45,5.45,0,0,1,38.72,412Zm-.06-6.66v2.31A4.93,4.93,0,0,0,40,411.13a4.76,4.76,0,0,0,7.14-.41,8.43,8.43,0,0,0,1.36-5.11,6.64,6.64,0,0,0-1.27-4.32,4.22,4.22,0,0,0-3.45-1.56,4.67,4.67,0,0,0-3.7,1.6A5.86,5.86,0,0,0,38.66,405.35Z" transform="translate(0 -5.53)"/><path d="M64,400.57a3.2,3.2,0,0,0-2-.54,3.39,3.39,0,0,0-2.83,1.6A7.41,7.41,0,0,0,58.06,406v8.41H55.41v-16.5h2.65v3.4h.06a5.8,5.8,0,0,1,1.72-2.71,4,4,0,0,1,2.6-1,4.32,4.32,0,0,1,1.58.23Z" transform="translate(0 -5.53)"/><path d="M80.15,406.8H68.5A6.1,6.1,0,0,0,70,411.05a5.12,5.12,0,0,0,3.9,1.5A8.1,8.1,0,0,0,79,410.72v2.48a9.58,9.58,0,0,1-5.75,1.58,7,7,0,0,1-5.49-2.25,9.17,9.17,0,0,1-2-6.32,9.06,9.06,0,0,1,2.18-6.28,7,7,0,0,1,5.42-2.43,6.22,6.22,0,0,1,5,2.1,8.74,8.74,0,0,1,1.77,5.82Zm-2.71-2.24a5.41,5.41,0,0,0-1.1-3.56,3.77,3.77,0,0,0-3-1.27,4.27,4.27,0,0,0-3.18,1.33,6.08,6.08,0,0,0-1.61,3.5Z" transform="translate(0 -5.53)"/><path d="M106.44,406.8H94.79a6.15,6.15,0,0,0,1.49,4.25,5.09,5.09,0,0,0,3.9,1.5,8.14,8.14,0,0,0,5.12-1.83v2.48a9.6,9.6,0,0,1-5.75,1.58,7,7,0,0,1-5.5-2.25,9.21,9.21,0,0,1-2-6.32,9,9,0,0,1,2.18-6.28,7,7,0,0,1,5.42-2.43,6.19,6.19,0,0,1,5,2.1,8.74,8.74,0,0,1,1.77,5.82Zm-2.7-2.24a5.36,5.36,0,0,0-1.11-3.56,3.74,3.74,0,0,0-3-1.27,4.27,4.27,0,0,0-3.17,1.33,6.08,6.08,0,0,0-1.61,3.5Z" transform="translate(0 -5.53)"/><path d="M113.08,414.39h-2.64V390h2.64Z" transform="translate(0 -5.53)"/><path d="M134.37,414.78a7.62,7.62,0,0,1-5.84-2.32,8.54,8.54,0,0,1-2.19-6.13,8.9,8.9,0,0,1,2.28-6.49,8.15,8.15,0,0,1,6.14-2.34,7.39,7.39,0,0,1,5.76,2.28,9,9,0,0,1,2.07,6.3,8.84,8.84,0,0,1-2.24,6.32A7.78,7.78,0,0,1,134.37,414.78Zm.19-15a5,5,0,0,0-4,1.73,7.16,7.16,0,0,0-1.48,4.78,6.72,6.72,0,0,0,1.5,4.62,5.09,5.09,0,0,0,4,1.69,4.82,4.82,0,0,0,3.94-1.66,7.18,7.18,0,0,0,1.38-4.72,7.33,7.33,0,0,0-1.38-4.77A4.83,4.83,0,0,0,134.56,399.73Z" transform="translate(0 -5.53)"/><path d="M154.46,414.23a5.11,5.11,0,0,1-2.46.52c-2.89,0-4.34-1.62-4.34-4.84v-9.76h-2.83v-2.26h2.83v-4l2.64-.85v4.88h4.16v2.26H150.3v9.29a3.82,3.82,0,0,0,.57,2.37,2.22,2.22,0,0,0,1.87.71,2.74,2.74,0,0,0,1.72-.55Z" transform="translate(0 -5.53)"/><path d="M166.6,400.57a3.22,3.22,0,0,0-2-.54,3.39,3.39,0,0,0-2.83,1.6,7.34,7.34,0,0,0-1.14,4.35v8.41H158v-16.5h2.64v3.4h.07a5.72,5.72,0,0,1,1.72-2.71,4,4,0,0,1,2.6-1,4.36,4.36,0,0,1,1.58.23Z" transform="translate(0 -5.53)"/><path d="M176.36,414.78a7.62,7.62,0,0,1-5.84-2.32,8.53,8.53,0,0,1-2.18-6.13,8.9,8.9,0,0,1,2.27-6.49,8.15,8.15,0,0,1,6.14-2.34,7.39,7.39,0,0,1,5.76,2.28,9,9,0,0,1,2.07,6.3,8.88,8.88,0,0,1-2.23,6.32A7.82,7.82,0,0,1,176.36,414.78Zm.19-15a5,5,0,0,0-4,1.73,7.16,7.16,0,0,0-1.48,4.78,6.72,6.72,0,0,0,1.5,4.62,5.09,5.09,0,0,0,4,1.69,4.82,4.82,0,0,0,3.94-1.66,7.18,7.18,0,0,0,1.38-4.72,7.33,7.33,0,0,0-1.38-4.77A4.83,4.83,0,0,0,176.55,399.73Z" transform="translate(0 -5.53)"/></g></svg>