<?xml version="1.0" encoding="utf-8"?>
<!-- Generator: Adobe Illustrator 25.0.0, SVG Export Plug-In . SVG Version: 6.00 Build 0)  -->
<svg version="1.1" id="Capa_1" xmlns="http://www.w3.org/2000/svg" xmlns:xlink="http://www.w3.org/1999/xlink" x="0px" y="0px"
	 viewBox="0 0 518.2 255" style="enable-background:new 0 0 518.2 255;" xml:space="preserve">
<style type="text/css">
	.st0{fill:#003442;}
	.st1{fill:#003442;stroke:#000000;stroke-width:1.5;stroke-linecap:round;stroke-linejoin:round;}
</style>
<path class="st0" d="M45,68.1h-3l-2.4-6.4h-9.8l-2.3,6.5h-3L33.3,45h2.8L45,68.1z M38.7,59.2l-3.6-9.9c-0.2-0.5-0.3-1-0.4-1.5h-0.1
	c-0.1,0.5-0.2,1-0.4,1.5l-3.6,9.8L38.7,59.2z"/>
<path class="st0" d="M64.3,56.1H49.1v-2.1h15.2V56.1z M64.3,62.9H49.1v-2.1h15.2V62.9z"/>
<path class="st0" d="M93.3,46.5c-0.3,0.6-0.8,1.4-1.3,2.3s-1,1.9-1.6,3.1s-1.1,2.4-1.7,3.7s-1.1,2.7-1.6,4.1s-1,2.8-1.3,4.2
	c-0.4,1.4-0.7,2.8-0.8,4.2h-2.8c0.2-1.4,0.5-2.8,0.9-4.2c0.4-1.4,0.9-2.8,1.4-4.2s1.1-2.7,1.6-4s1.1-2.5,1.7-3.5s1-2,1.5-2.8
	s0.8-1.5,1.1-1.9H78.6V45h14.7L93.3,46.5z"/>
<path class="st0" d="M107.2,51c0-0.6-0.1-1.3-0.3-1.8c-0.4-1-1.2-1.8-2.2-2.1c-0.5-0.2-1.1-0.3-1.7-0.3c-0.5,0-1,0.1-1.5,0.2
	c-0.5,0.1-1,0.3-1.4,0.6c-0.5,0.3-0.9,0.6-1.4,0.9c-0.4,0.3-0.8,0.7-1.2,1.1v-2.8c0.7-0.7,1.6-1.3,2.5-1.7c1.1-0.4,2.2-0.6,3.4-0.6
	c0.9,0,1.8,0.1,2.6,0.4c0.8,0.3,1.5,0.7,2.1,1.2c0.6,0.6,1.1,1.2,1.4,2c0.4,0.8,0.5,1.7,0.5,2.7c0,0.8-0.1,1.7-0.3,2.5
	c-0.2,0.7-0.6,1.4-1,2.1c-0.5,0.7-1,1.3-1.6,1.9c-0.7,0.7-1.5,1.3-2.3,1.8c-1.1,0.8-2,1.4-2.7,2c-0.6,0.4-1.1,1-1.6,1.5
	c-0.4,0.4-0.7,0.9-0.9,1.4c-0.2,0.5-0.3,1.1-0.2,1.7h11.5v2.4H96.5v-1.2c0-0.9,0.1-1.8,0.3-2.6c0.2-0.8,0.6-1.5,1.1-2.1
	c0.6-0.7,1.2-1.4,1.9-2c0.8-0.7,1.8-1.4,2.9-2.3c0.7-0.5,1.4-1.1,2.1-1.7c0.5-0.5,1-1.1,1.4-1.7c0.3-0.5,0.6-1.1,0.7-1.7
	C107.2,52.2,107.2,51.6,107.2,51z"/>
<path class="st0" d="M116.2,68.4c-0.5,0-0.9-0.2-1.3-0.5c-0.3-0.3-0.5-0.8-0.5-1.3c0-0.5,0.2-0.9,0.5-1.3c0.3-0.3,0.8-0.5,1.3-0.5
	c0.5,0,1,0.2,1.3,0.5c0.3,0.3,0.5,0.8,0.5,1.3C118,67.6,117.2,68.4,116.2,68.4C116.2,68.4,116.2,68.4,116.2,68.4z"/>
<path class="st0" d="M133.4,45v15.3h3v2.4h-3v5.4h-2.6v-5.4H120v-2.3c1-1.1,2-2.4,3.1-3.7c1-1.3,2-2.6,3-3.9s1.8-2.7,2.6-4
	c0.7-1.2,1.4-2.5,2-3.8L133.4,45z M122.9,60.2h7.9V48.9c-0.8,1.4-1.6,2.7-2.3,3.8c-0.7,1.1-1.4,2.1-2,3s-1.3,1.7-1.9,2.5
	S123.5,59.6,122.9,60.2z"/>
<path class="st0" d="M172.7,68.1H170v-9.4c0.1-1.4-0.2-2.8-0.8-4c-0.7-0.9-1.8-1.3-2.9-1.2c-1.2,0-2.2,0.6-2.9,1.5
	c-0.8,1.1-1.2,2.4-1.2,3.7V68h-2.6v-9.8c0-3.2-1.2-4.9-3.8-4.9c-1.1,0-2.2,0.5-2.9,1.5c-0.8,1.1-1.2,2.4-1.1,3.8V68h-2.6V51.6h2.6
	v2.6h0.1c1-1.9,3-3.1,5.1-3c1.1,0,2.1,0.3,2.9,0.9c0.8,0.6,1.4,1.5,1.7,2.5c1-2.1,3.1-3.5,5.5-3.4c3.6,0,5.4,2.2,5.4,6.7V68.1z"/>
<path class="st0" d="M180.1,64.4l-2.6,7.9h-1.9l1.9-7.9H180.1z"/>
<path class="st0" d="M206.5,61.5c0,1-0.2,1.9-0.6,2.8c-0.4,0.8-1,1.6-1.7,2.2c-0.8,0.6-1.6,1.1-2.6,1.4c-1.1,0.3-2.2,0.5-3.3,0.5
	c-1.8,0.1-3.7-0.3-5.2-1.3v-2.8c1.5,1.2,3.4,1.9,5.4,1.8c0.7,0,1.5-0.1,2.2-0.3c0.6-0.2,1.2-0.5,1.7-0.9c0.5-0.4,0.8-0.9,1.1-1.4
	c0.3-0.6,0.4-1.2,0.4-1.8c0-3-2.2-4.5-6.4-4.5h-1.9V55h1.8c3.8,0,5.7-1.4,5.7-4.2c0-2.6-1.4-3.9-4.4-3.9c-1.7,0-3.3,0.6-4.5,1.6
	v-2.6c1.6-0.9,3.4-1.4,5.2-1.3c0.9,0,1.8,0.1,2.6,0.4c0.7,0.2,1.4,0.6,2,1.1c0.6,0.5,1,1.1,1.3,1.7c0.3,0.7,0.5,1.5,0.5,2.2
	c0,3-1.5,5-4.6,5.9V56c0.7,0.1,1.5,0.3,2.2,0.6c0.6,0.3,1.2,0.7,1.7,1.2c0.5,0.5,0.8,1,1.1,1.7C206.4,60.1,206.5,60.8,206.5,61.5z"
	/>
<path class="st0" d="M221.4,51c0-0.6-0.1-1.3-0.3-1.8c-0.2-0.5-0.5-1-0.9-1.3c-0.4-0.4-0.8-0.6-1.3-0.8c-0.5-0.2-1.1-0.3-1.7-0.3
	c-0.5,0-1,0.1-1.5,0.2c-0.5,0.1-1,0.3-1.4,0.6c-0.5,0.3-0.9,0.6-1.4,0.9c-0.4,0.3-0.8,0.7-1.2,1.1v-2.8c0.7-0.7,1.5-1.3,2.5-1.7
	c1.1-0.4,2.2-0.6,3.4-0.6c0.9,0,1.8,0.1,2.6,0.4c0.8,0.3,1.5,0.7,2.1,1.2c0.6,0.6,1.1,1.2,1.4,2c0.4,0.8,0.5,1.7,0.5,2.7
	c0,0.8-0.1,1.7-0.3,2.5c-0.2,0.7-0.6,1.4-1,2.1c-0.5,0.7-1,1.3-1.6,1.9c-0.7,0.7-1.5,1.3-2.3,1.8c-1.1,0.8-2,1.4-2.7,2
	c-0.6,0.4-1.1,1-1.6,1.5c-0.4,0.4-0.7,0.9-0.9,1.4c-0.2,0.5-0.3,1.1-0.2,1.7H225v2.4h-14.3v-1.2c0-0.9,0.1-1.8,0.3-2.6
	c0.2-0.8,0.6-1.5,1.1-2.1c0.6-0.7,1.2-1.4,1.9-2c0.8-0.7,1.8-1.4,2.9-2.3c0.7-0.5,1.4-1.1,2.1-1.7c0.5-0.5,1-1,1.4-1.7
	c0.3-0.5,0.6-1.1,0.7-1.7C221.3,52.2,221.4,51.6,221.4,51z"/>
<path class="st0" d="M230.3,68.4c-0.5,0-0.9-0.2-1.3-0.5c-0.3-0.3-0.5-0.8-0.5-1.3c0-0.5,0.2-0.9,0.5-1.3c0.3-0.3,0.8-0.5,1.3-0.5
	c1,0,1.8,0.8,1.8,1.8c0,0.5-0.2,0.9-0.5,1.3C231.3,68.2,230.8,68.4,230.3,68.4z"/>
<path class="st0" d="M250.3,56.4c0,1.7-0.2,3.5-0.5,5.1c-0.3,1.3-0.8,2.6-1.5,3.8c-0.6,1-1.4,1.7-2.4,2.3c-1,0.5-2.1,0.8-3.3,0.8
	c-1.1,0-2.2-0.2-3.1-0.8c-0.9-0.5-1.7-1.3-2.3-2.2c-0.7-1.1-1.2-2.3-1.4-3.6c-0.3-1.6-0.5-3.2-0.5-4.9c0-1.8,0.1-3.6,0.5-5.3
	c0.3-1.4,0.8-2.7,1.5-3.9c0.6-1,1.4-1.8,2.4-2.4c1-0.5,2.2-0.8,3.3-0.8C247.9,44.6,250.3,48.5,250.3,56.4z M247.6,56.7
	c0-6.6-1.6-9.9-4.7-9.9c-3.3,0-4.9,3.3-4.9,10c0,6.2,1.6,9.4,4.9,9.4S247.7,63,247.6,56.7L247.6,56.7z"/>
<path class="st0" d="M257.9,53.6c-1.2,0-2.3-0.5-3.2-1.3c-0.8-0.8-1.3-2-1.3-3.2c0-1.2,0.4-2.3,1.3-3.1c0.8-0.8,2-1.3,3.1-1.3
	c1.2,0,2.4,0.4,3.2,1.3c0.9,0.8,1.3,1.9,1.3,3.1c0,1.2-0.5,2.3-1.3,3.2C260.3,53.2,259.1,53.7,257.9,53.6z M257.9,46.6
	c-1.4,0-2.5,1.1-2.5,2.5c0,0.7,0.3,1.3,0.7,1.8c0.5,0.5,1.1,0.8,1.8,0.8c0.7,0,1.3-0.3,1.8-0.8c0.5-0.5,0.8-1.2,0.8-1.8
	C260.4,47.8,259.3,46.6,257.9,46.6C257.9,46.6,257.9,46.6,257.9,46.6z"/>
<path class="st0" d="M287.7,68.1H285v-2.6H285c-1,1.9-2.9,3.1-5.1,3c-1.4,0.1-2.8-0.4-3.9-1.3c-1-0.9-1.5-2.2-1.4-3.5
	c0-3.1,1.8-4.9,5.4-5.4l5-0.7c0-2.8-1.1-4.2-3.4-4.2c-2,0-3.9,0.7-5.4,2v-2.7c1.7-1,3.6-1.6,5.6-1.5c3.9,0,5.8,2.1,5.8,6.2V68.1z
	 M285,59.7l-4,0.5c-1,0.1-1.9,0.4-2.8,0.9c-0.7,0.6-1,1.4-0.9,2.3c0,0.8,0.3,1.5,0.9,2c0.6,0.5,1.5,0.8,2.3,0.8
	c1.2,0,2.4-0.5,3.2-1.4c0.9-1,1.3-2.2,1.3-3.5L285,59.7z"/>
<path class="st0" d="M295.3,68.1h-2.6V43.6h2.6V68.1z"/>
<path class="st0" d="M322.9,60.5h-11.6c-0.1,1.6,0.5,3.1,1.5,4.2c1,1,2.4,1.6,3.9,1.5c1.9,0,3.7-0.7,5.1-1.8v2.5
	c-1.7,1.1-3.7,1.7-5.8,1.6c-2.1,0.1-4.1-0.7-5.5-2.2c-1.4-1.8-2.1-4-2-6.3c-0.1-2.3,0.7-4.5,2.2-6.2c1.4-1.6,3.3-2.5,5.4-2.4
	c1.9-0.1,3.7,0.7,5,2.1c1.3,1.7,1.9,3.7,1.8,5.8L322.9,60.5z M320.2,58.2c0.1-1.3-0.3-2.6-1.1-3.6c-0.8-0.9-1.9-1.3-3-1.3
	c-1.2,0-2.3,0.5-3.2,1.3c-0.9,1-1.5,2.2-1.6,3.5L320.2,58.2z"/>
<path class="st0" d="M325.9,67.5v-2.8c1.4,1,3,1.6,4.8,1.6c2.3,0,3.5-0.8,3.5-2.3c0-0.4-0.1-0.8-0.3-1.1c-0.2-0.3-0.5-0.6-0.8-0.8
	c-0.4-0.3-0.8-0.5-1.2-0.6l-1.5-0.6c-0.7-0.3-1.3-0.5-1.9-0.9c-0.5-0.3-1-0.6-1.4-1c-0.4-0.4-0.6-0.8-0.8-1.3
	c-0.2-0.5-0.3-1.1-0.3-1.7c0-0.7,0.2-1.4,0.5-2c0.4-0.6,0.8-1.1,1.4-1.5c0.6-0.4,1.3-0.7,2-0.9c0.8-0.2,1.5-0.3,2.3-0.3
	c1.3,0,2.6,0.2,3.8,0.7v2.7c-1.2-0.8-2.7-1.2-4.2-1.2c-0.5,0-0.9,0.1-1.3,0.2c-0.4,0.1-0.7,0.3-1,0.5c-0.3,0.2-0.5,0.4-0.7,0.7
	c-0.2,0.3-0.2,0.6-0.2,0.9c0,0.4,0.1,0.7,0.2,1.1c0.2,0.3,0.4,0.6,0.7,0.8c0.3,0.2,0.7,0.5,1.1,0.6l1.5,0.6c0.7,0.2,1.3,0.5,2,0.9
	c0.5,0.3,1,0.6,1.5,1c0.4,0.4,0.7,0.8,0.9,1.3c0.2,0.5,0.4,1.1,0.3,1.7c0,0.7-0.2,1.5-0.5,2.1c-0.4,0.6-0.9,1.1-1.5,1.5
	c-0.6,0.4-1.3,0.7-2.1,0.9c-0.8,0.2-1.6,0.3-2.5,0.3C328.8,68.5,327.3,68.2,325.9,67.5z"/>
<path class="st0" d="M348.6,67.9c-0.8,0.4-1.6,0.5-2.5,0.5c-2.9,0-4.3-1.6-4.3-4.8v-9.8h-2.8v-2.2h2.8v-4l2.6-0.8v4.9h4.2v2.2h-4.2
	v9.3c-0.1,0.8,0.1,1.7,0.6,2.4c0.5,0.5,1.2,0.8,1.9,0.7c0.6,0,1.2-0.2,1.7-0.5L348.6,67.9z"/>
<path class="st0" d="M365.4,60.5h-11.6c-0.1,1.6,0.5,3.1,1.5,4.2c1,1,2.4,1.6,3.9,1.5c1.9,0,3.7-0.7,5.1-1.8v2.5
	c-1.7,1.1-3.7,1.7-5.8,1.6c-2.1,0.1-4.1-0.7-5.5-2.2c-1.4-1.8-2.1-4-2-6.3c-0.1-2.3,0.7-4.5,2.2-6.2c1.4-1.6,3.3-2.5,5.4-2.4
	c1.9-0.1,3.7,0.7,5,2.1c1.3,1.7,1.9,3.7,1.8,5.8L365.4,60.5z M362.7,58.2c0.1-1.3-0.3-2.5-1.1-3.6c-0.8-0.9-1.9-1.3-3-1.3
	c-1.2,0-2.4,0.5-3.2,1.3c-0.9,1-1.5,2.2-1.6,3.5H362.7z"/>
<path class="st0" d="M392.5,68.1h-2.6v-2.8h-0.1c-1.9,3.1-6,4.1-9.1,2.2c-0.6-0.3-1.1-0.8-1.5-1.2c-1.3-1.7-2-3.8-1.9-6
	c-0.1-2.4,0.6-4.7,2.1-6.6c1.3-1.6,3.4-2.5,5.5-2.5c2-0.1,4,0.9,5,2.7h0.1V43.6h2.6V68.1z M389.8,60.6v-2.5c0-1.3-0.4-2.5-1.3-3.4
	c-0.9-0.9-2.1-1.4-3.4-1.4c-1.5-0.1-2.9,0.6-3.8,1.8c-1,1.4-1.5,3.2-1.4,4.9c-0.1,1.6,0.4,3.2,1.3,4.5c0.9,1.1,2.2,1.7,3.6,1.7
	c1.4,0,2.7-0.5,3.6-1.6C389.4,63.5,389.9,62.1,389.8,60.6z"/>
<path class="st0" d="M411.1,60.5h-11.6c-0.1,1.6,0.5,3.1,1.5,4.2c1,1,2.4,1.6,3.9,1.5c1.9,0,3.7-0.7,5.1-1.8v2.5
	c-1.7,1.1-3.7,1.7-5.8,1.6c-2.1,0.1-4.1-0.7-5.5-2.2c-1.4-1.8-2.1-4-2-6.3c-0.1-2.3,0.7-4.5,2.2-6.2c1.4-1.6,3.3-2.5,5.4-2.4
	c1.9-0.1,3.7,0.7,5,2.1c1.3,1.7,1.9,3.7,1.8,5.8V60.5z M408.4,58.2c0.1-1.3-0.3-2.6-1.1-3.6c-0.8-0.9-1.9-1.3-3-1.3
	c-1.2,0-2.4,0.5-3.2,1.4c-0.9,1-1.5,2.2-1.6,3.5H408.4z"/>
<path class="st0" d="M417.7,68.1h-2.6V43.6h2.6V68.1z"/>
<path class="st0" d="M445.8,68.1h-2.6v-9.4c0-3.5-1.3-5.3-3.8-5.3c-1.3,0-2.4,0.5-3.2,1.5c-0.9,1-1.4,2.4-1.3,3.8V68h-2.7V51.6h2.6
	v2.7h0.1c1.1-2,3.2-3.2,5.4-3.1c1.6-0.1,3.1,0.5,4.1,1.8c1,1.5,1.5,3.3,1.4,5L445.8,68.1z"/>
<path class="st0" d="M457.7,68.4c-2.2,0.1-4.3-0.7-5.8-2.3c-1.5-1.7-2.3-3.9-2.2-6.1c-0.1-2.4,0.7-4.7,2.3-6.5
	c1.6-1.6,3.9-2.5,6.2-2.3c2.2-0.1,4.3,0.7,5.8,2.3c1.5,1.8,2.2,4,2.1,6.3c0.1,2.3-0.7,4.6-2.2,6.3C462.1,67.7,459.9,68.6,457.7,68.4
	z M457.9,53.4c-1.5-0.1-3,0.6-4,1.7c-1.1,1.4-1.6,3.1-1.5,4.8c-0.1,1.7,0.4,3.3,1.5,4.6c1,1.1,2.5,1.8,4,1.7c1.5,0.1,3-0.5,3.9-1.7
	c1-1.4,1.5-3,1.4-4.7c0.1-1.7-0.4-3.4-1.4-4.8C460.9,53.9,459.4,53.3,457.9,53.4z"/>
<path class="st0" d="M478.7,54.2c-0.6-0.4-1.3-0.6-2-0.5c-1.2,0-2.2,0.6-2.8,1.6c-0.8,1.3-1.2,2.8-1.1,4.3V68h-2.6V51.6h2.6V55h0.1
	c0.3-1.1,0.9-2,1.7-2.7c0.7-0.6,1.6-1,2.6-1c0.5,0,1.1,0,1.6,0.2V54.2z"/>
<path class="st0" d="M489.3,67.9c-0.8,0.4-1.6,0.5-2.5,0.5c-2.9,0-4.3-1.6-4.3-4.8v-9.8h-2.8v-2.2h2.8v-4l2.6-0.8v4.9h4.1v2.2h-4.2
	v9.3c-0.1,0.8,0.1,1.7,0.6,2.4c0.5,0.5,1.2,0.8,1.9,0.7c0.6,0,1.2-0.2,1.7-0.5L489.3,67.9z"/>
<path class="st0" d="M506.1,60.5h-11.7c-0.1,1.6,0.5,3.1,1.5,4.2c1,1,2.4,1.6,3.9,1.5c1.9,0,3.7-0.7,5.1-1.8v2.5
	c-1.7,1.1-3.7,1.7-5.8,1.6c-2.1,0.1-4.1-0.7-5.5-2.2c-1.4-1.8-2.1-4-2-6.3c-0.1-2.3,0.7-4.5,2.2-6.2c1.4-1.6,3.3-2.5,5.4-2.4
	c1.9-0.1,3.7,0.7,5,2.1c1.3,1.6,1.9,3.7,1.8,5.8V60.5z M503.4,58.2c0.1-1.3-0.3-2.5-1.1-3.6c-0.8-0.9-1.9-1.3-3-1.3
	c-1.2,0-2.4,0.5-3.2,1.3c-0.9,1-1.5,2.2-1.6,3.5H503.4z"/>
<path class="st0" d="M27.1,148.1V125h6.6c1.7-0.1,3.4,0.4,4.8,1.5c1.1,0.9,1.8,2.3,1.8,3.8c0,1.2-0.3,2.4-1.1,3.4
	c-0.7,1-1.8,1.7-2.9,2.1v0.1c1.4,0.1,2.7,0.7,3.7,1.8c1,1.1,1.5,2.5,1.4,3.9c0.1,1.8-0.7,3.6-2.1,4.8c-1.5,1.3-3.4,1.9-5.4,1.8
	L27.1,148.1z M29.8,127.4v7.5h2.8c1.3,0.1,2.5-0.3,3.5-1.1c0.9-0.7,1.3-1.9,1.3-3c0-2.2-1.5-3.4-4.4-3.4L29.8,127.4z M29.8,137.3
	v8.3h3.7c1.3,0.1,2.6-0.3,3.7-1.1c0.9-0.8,1.4-1.9,1.3-3.1c0-2.7-1.9-4.1-5.6-4.1L29.8,137.3z"/>
<path class="st0" d="M61.9,136.1H46.8v-2.1h15.1V136.1z M61.9,142.9H46.8v-2.1h15.1V142.9z"/>
<path class="st0" d="M99.3,141c0,1-0.2,2.1-0.6,3.1c-0.4,0.9-0.9,1.7-1.7,2.4c-0.7,0.7-1.6,1.2-2.6,1.5c-1.1,0.4-2.2,0.5-3.4,0.5
	c-1.7,0.1-3.3-0.2-4.8-1v-2.8c1.4,1,3.1,1.5,4.8,1.5c0.8,0,1.5-0.1,2.3-0.4c0.6-0.2,1.2-0.6,1.7-1c0.5-0.4,0.8-1,1.1-1.6
	c0.3-0.7,0.4-1.3,0.4-2.1c0.1-1.3-0.5-2.6-1.5-3.5c-1.3-0.9-2.8-1.4-4.4-1.3h-1h-1c-0.3,0-0.7,0-1,0.1s-0.6,0-0.9,0.1l0.8-11.6h10.7
	v2.4h-8.4l-0.5,6.8l1.1-0.1h1c1.1,0,2.2,0.1,3.3,0.5c0.9,0.3,1.7,0.8,2.5,1.4c0.7,0.6,1.2,1.4,1.5,2.2C99.1,139,99.3,140,99.3,141z"
	/>
<path class="st0" d="M117.7,126.5c-0.3,0.6-0.8,1.4-1.3,2.3s-1,1.9-1.6,3.1s-1.1,2.4-1.7,3.7s-1.1,2.7-1.6,4.1s-1,2.8-1.3,4.2
	c-0.4,1.4-0.7,2.8-0.8,4.2h-2.8c0.2-1.4,0.5-2.8,0.9-4.2c0.4-1.4,0.9-2.8,1.4-4.2s1-2.7,1.6-4s1.1-2.4,1.7-3.5c0.5-1.1,1-2,1.5-2.8
	c0.5-0.9,0.8-1.5,1.1-1.9H103v-2.4h14.7L117.7,126.5z"/>
<path class="st0" d="M122.8,148.4c-0.5,0-0.9-0.2-1.3-0.5c-0.3-0.3-0.5-0.8-0.5-1.2c0-0.5,0.2-0.9,0.5-1.3c0.3-0.3,0.8-0.5,1.3-0.5
	c1,0,1.8,0.8,1.8,1.8C124.7,147.6,123.9,148.4,122.8,148.4C122.9,148.4,122.9,148.4,122.8,148.4L122.8,148.4z"/>
<path class="st0" d="M141.8,141.5c0,1-0.2,1.9-0.6,2.8c-0.4,0.8-1,1.6-1.7,2.2c-0.8,0.6-1.6,1.1-2.6,1.4c-1.1,0.3-2.2,0.5-3.3,0.5
	c-1.8,0.1-3.7-0.3-5.2-1.3v-2.8c1.5,1.2,3.4,1.9,5.3,1.8c0.7,0,1.5-0.1,2.2-0.3c0.6-0.2,1.2-0.5,1.7-0.9c0.5-0.4,0.8-0.9,1.1-1.4
	c0.3-0.6,0.4-1.2,0.4-1.9c0-3-2.1-4.5-6.4-4.5h-1.9V135h1.8c3.8,0,5.7-1.4,5.7-4.2c0-2.6-1.5-3.9-4.4-3.9c-1.7,0-3.3,0.6-4.6,1.6
	v-2.6c1.6-0.9,3.4-1.4,5.2-1.3c0.9,0,1.8,0.1,2.6,0.4c0.7,0.2,1.4,0.6,2,1.1c0.6,0.5,1,1.1,1.3,1.7c0.3,0.7,0.5,1.5,0.5,2.2
	c0,3-1.5,5-4.6,5.9v0.1c0.8,0.1,1.5,0.3,2.2,0.6c0.6,0.3,1.2,0.7,1.7,1.1c0.5,0.5,0.9,1,1.1,1.7
	C141.6,140.1,141.8,140.8,141.8,141.5z"/>
<path class="st0" d="M179.3,148.1h-2.6v-9.4c0.1-1.4-0.2-2.8-0.8-4c-0.7-0.9-1.8-1.3-2.9-1.2c-1.2,0-2.2,0.6-2.9,1.6
	c-0.8,1.1-1.2,2.4-1.2,3.7v9.4h-2.6v-9.8c0-3.2-1.2-4.9-3.8-4.9c-1.1,0-2.2,0.5-2.9,1.5c-0.8,1.1-1.2,2.4-1.1,3.8v9.4h-2.6v-16.5
	h2.6v2.6h0.1c1-1.9,3-3.1,5.1-3c2.2,0,4.1,1.4,4.7,3.4c1-2.1,3.1-3.5,5.5-3.4c3.6,0,5.4,2.2,5.4,6.7L179.3,148.1z"/>
<path class="st0" d="M186.7,144.4l-2.6,7.9h-1.9l1.9-7.9H186.7z"/>
<path class="st0" d="M213.2,141.5c0,1-0.2,1.9-0.6,2.8c-0.4,0.8-1,1.6-1.7,2.2c-0.8,0.6-1.6,1.1-2.6,1.4c-1.1,0.3-2.2,0.5-3.3,0.5
	c-1.8,0.1-3.7-0.3-5.2-1.3v-2.8c1.5,1.2,3.4,1.9,5.4,1.8c0.7,0,1.5-0.1,2.2-0.3c0.6-0.2,1.2-0.5,1.7-0.9c0.5-0.4,0.8-0.8,1.1-1.4
	c0.3-0.6,0.4-1.2,0.4-1.9c0-3-2.2-4.5-6.4-4.5h-1.9V135h1.8c3.8,0,5.7-1.4,5.7-4.2c0-2.6-1.4-3.9-4.4-3.9c-1.7,0-3.3,0.6-4.6,1.6
	v-2.6c1.6-0.9,3.4-1.4,5.2-1.3c0.9,0,1.8,0.1,2.6,0.4c0.7,0.2,1.4,0.6,2,1.1c0.6,0.5,1,1.1,1.3,1.7c0.3,0.7,0.5,1.5,0.5,2.2
	c0,3-1.5,5-4.6,5.9v0.1c0.7,0.1,1.5,0.3,2.2,0.6c0.6,0.3,1.2,0.7,1.7,1.1c0.5,0.5,0.9,1,1.1,1.7C213,140.1,213.2,140.8,213.2,141.5z
	"/>
<path class="st0" d="M232.1,140.7c0,1.1-0.2,2.1-0.6,3.1c-0.3,0.9-0.9,1.7-1.5,2.4c-0.6,0.7-1.4,1.2-2.3,1.6
	c-0.9,0.4-1.9,0.6-2.9,0.6c-2.2,0.1-4.2-1-5.5-2.8c-0.7-1-1.2-2.1-1.4-3.3c-0.4-1.4-0.5-2.9-0.5-4.4c0-1.8,0.2-3.7,0.7-5.5
	c0.4-1.5,1-2.9,1.9-4.2c0.8-1.1,1.8-2,3-2.7c1.2-0.7,2.5-1,3.9-1c1.3-0.1,2.6,0.2,3.8,0.7v2.5c-1.2-0.6-2.5-0.9-3.8-0.9
	c-1,0-1.9,0.2-2.8,0.7c-0.9,0.5-1.6,1.2-2.1,2c-0.6,0.9-1.1,1.9-1.4,3c-0.3,1.3-0.5,2.7-0.5,4h0.1c1.1-1.9,3.1-3,5.3-2.8
	c0.9,0,1.9,0.2,2.7,0.5c0.8,0.3,1.5,0.8,2.1,1.5c0.6,0.7,1,1.4,1.3,2.2C231.9,138.8,232.1,139.8,232.1,140.7z M229.4,141.1
	c0-0.7-0.1-1.5-0.3-2.2c-0.2-0.6-0.5-1.2-0.9-1.6c-0.4-0.4-0.9-0.8-1.4-1c-0.6-0.3-1.3-0.4-1.9-0.4c-0.6,0-1.2,0.1-1.8,0.4
	c-0.5,0.2-1,0.6-1.4,1c-0.8,0.9-1.3,2.1-1.3,3.3c0,0.8,0.1,1.5,0.3,2.2c0.2,0.7,0.6,1.3,1,1.8c0.4,0.5,0.9,0.9,1.5,1.2
	c0.6,0.3,1.2,0.5,1.9,0.4c0.6,0,1.2-0.1,1.8-0.4c0.5-0.2,1-0.6,1.4-1.1c0.4-0.5,0.7-1,0.9-1.6C229.3,142.5,229.4,141.8,229.4,141.1
	L229.4,141.1z"/>
<path class="st0" d="M237,148.4c-0.5,0-0.9-0.2-1.3-0.5c-0.3-0.3-0.5-0.8-0.5-1.3c0-0.5,0.2-0.9,0.5-1.3c0.3-0.4,0.8-0.5,1.3-0.5
	c0.5,0,1,0.2,1.3,0.5c0.3,0.3,0.5,0.8,0.5,1.3c0,0.5-0.2,0.9-0.5,1.3C238,148.2,237.5,148.4,237,148.4z"/>
<path class="st0" d="M257,136.4c0,1.7-0.2,3.5-0.5,5.1c-0.3,1.3-0.8,2.6-1.5,3.8c-0.6,1-1.4,1.8-2.4,2.3c-1,0.5-2.1,0.8-3.3,0.8
	c-1.1,0-2.2-0.2-3.1-0.8c-0.9-0.5-1.7-1.3-2.3-2.2c-0.7-1.1-1.2-2.3-1.4-3.6c-0.3-1.6-0.5-3.2-0.5-4.9c0-1.8,0.1-3.6,0.5-5.4
	c0.3-1.4,0.8-2.7,1.5-3.9c0.6-1,1.4-1.8,2.4-2.4c1-0.5,2.2-0.8,3.3-0.8C254.6,124.6,257,128.5,257,136.4z M254.3,136.7
	c0-6.6-1.6-9.9-4.7-9.9c-3.3,0-4.9,3.3-4.9,10c0,6.2,1.6,9.4,4.8,9.4S254.3,143,254.3,136.7L254.3,136.7z"/>
<path class="st0" d="M264.6,133.6c-1.2,0-2.3-0.5-3.1-1.3c-0.9-0.8-1.3-2-1.3-3.2c0-1.2,0.4-2.3,1.3-3.1c0.8-0.8,2-1.3,3.1-1.3
	c1.2,0,2.3,0.4,3.2,1.3c0.9,0.8,1.3,1.9,1.3,3.1c0,1.2-0.5,2.3-1.3,3.2C266.9,133.2,265.8,133.7,264.6,133.6z M264.6,126.6
	c-0.7,0-1.3,0.3-1.8,0.7c-0.5,0.5-0.8,1.1-0.7,1.8c0,0.7,0.2,1.3,0.7,1.8c0.5,0.5,1.1,0.8,1.8,0.8c0.7,0,1.3-0.3,1.8-0.8
	c0.5-0.5,0.8-1.2,0.8-1.8C267.1,127.8,266,126.6,264.6,126.6C264.6,126.6,264.6,126.6,264.6,126.6z"/>
<path class="st0" d="M294.3,148.1h-2.6v-2.6h-0.1c-1,1.9-2.9,3.1-5.1,3c-1.4,0.1-2.8-0.4-3.9-1.3c-1-0.9-1.5-2.2-1.4-3.5
	c0-3.1,1.8-4.9,5.5-5.4l4.9-0.7c0-2.8-1.1-4.2-3.4-4.2c-2,0-3.9,0.7-5.4,2v-2.7c1.7-1,3.6-1.6,5.6-1.6c3.9,0,5.8,2.1,5.8,6.2
	L294.3,148.1z M291.7,139.7l-4,0.6c-1,0.1-1.9,0.4-2.8,0.9c-0.7,0.6-1,1.4-0.9,2.3c0,0.8,0.3,1.5,0.9,2c0.6,0.5,1.5,0.8,2.3,0.8
	c1.2,0,2.4-0.5,3.2-1.4c0.9-1,1.3-2.2,1.3-3.5L291.7,139.7z"/>
<path class="st0" d="M302,148.1h-2.6v-24.4h2.6V148.1z"/>
<path class="st0" d="M315.3,147.5v-2.8c1.4,1,3,1.6,4.8,1.6c2.3,0,3.5-0.8,3.5-2.3c0-0.4-0.1-0.8-0.3-1.1c-0.2-0.3-0.5-0.6-0.8-0.8
	c-0.4-0.3-0.8-0.5-1.2-0.6l-1.5-0.6c-0.7-0.3-1.3-0.5-1.9-0.9c-0.5-0.3-1-0.6-1.4-1c-0.4-0.4-0.6-0.8-0.8-1.3
	c-0.2-0.5-0.3-1.1-0.3-1.7c0-0.7,0.2-1.4,0.5-2.1c0.4-0.6,0.8-1.1,1.4-1.5c0.6-0.4,1.3-0.7,2-0.9c0.8-0.2,1.6-0.3,2.4-0.3
	c1.3,0,2.6,0.2,3.8,0.7v2.7c-1.2-0.8-2.7-1.2-4.2-1.2c-0.5,0-0.9,0.1-1.3,0.2c-0.4,0.1-0.7,0.3-1,0.5c-0.3,0.2-0.5,0.4-0.7,0.7
	c-0.2,0.3-0.2,0.6-0.2,0.9c0,0.4,0.1,0.7,0.2,1.1c0.2,0.3,0.4,0.6,0.7,0.8c0.3,0.2,0.7,0.5,1.1,0.6l1.5,0.6c0.7,0.2,1.3,0.5,2,0.9
	c0.5,0.3,1,0.6,1.5,1c0.4,0.4,0.7,0.8,0.9,1.3c0.2,0.5,0.3,1.1,0.3,1.7c0,0.7-0.2,1.5-0.5,2.1c-0.4,0.6-0.9,1.1-1.4,1.5
	c-0.6,0.4-1.3,0.7-2.1,0.9c-0.8,0.2-1.6,0.3-2.5,0.3C318.2,148.5,316.7,148.2,315.3,147.5z"/>
<path class="st0" d="M343.7,148.1h-2.6v-2.6H341c-1,1.9-2.9,3.1-5.1,3c-3.9,0-5.9-2.3-5.9-7v-9.9h2.6v9.4c0,3.5,1.3,5.2,4,5.2
	c1.2,0,2.4-0.5,3.2-1.4c0.9-1,1.3-2.4,1.2-3.7v-9.5h2.6L343.7,148.1z"/>
<path class="st0" d="M357.6,134.2c-0.6-0.4-1.3-0.6-2-0.5c-1.2,0-2.2,0.6-2.8,1.6c-0.8,1.3-1.2,2.8-1.1,4.4v8.4H349v-16.5h2.6v3.4
	h0.1c0.3-1.1,0.9-2,1.7-2.7c0.7-0.6,1.6-1,2.6-1c0.5,0,1.1,0,1.6,0.2V134.2z"/>
<path class="st0" d="M383.6,148.1H381v-2.8h-0.1c-1.1,2.1-3.3,3.3-5.7,3.2c-1.9,0.1-3.8-0.7-5-2.2c-1.3-1.7-2-3.8-1.9-6
	c-0.1-2.4,0.6-4.7,2.1-6.6c1.3-1.6,3.4-2.5,5.5-2.5c2-0.1,3.9,0.9,4.9,2.7h0.1v-10.3h2.6L383.6,148.1z M381,140.6v-2.4
	c0-1.3-0.4-2.5-1.3-3.4c-0.9-0.9-2.1-1.4-3.4-1.4c-1.5-0.1-2.9,0.6-3.8,1.8c-1,1.4-1.5,3.2-1.4,4.9c-0.1,1.6,0.4,3.2,1.3,4.5
	c0.9,1.1,2.2,1.7,3.6,1.6c1.4,0,2.7-0.6,3.6-1.6C380.5,143.5,381,142.1,381,140.6z"/>
<path class="st0" d="M402.2,140.5h-11.6c-0.1,1.6,0.5,3.1,1.5,4.2c1,1,2.4,1.6,3.9,1.5c1.9,0,3.7-0.7,5.1-1.8v2.5
	c-1.7,1.1-3.7,1.7-5.8,1.6c-2.1,0.1-4.1-0.7-5.5-2.2c-1.4-1.8-2.1-4-2-6.3c-0.1-2.3,0.7-4.5,2.2-6.3c1.4-1.6,3.3-2.5,5.4-2.4
	c1.9-0.1,3.7,0.7,5,2.1c1.3,1.7,1.9,3.7,1.8,5.8L402.2,140.5z M399.5,138.2c0.1-1.3-0.3-2.5-1.1-3.6c-0.8-0.9-1.9-1.3-3-1.3
	c-1.2,0-2.4,0.5-3.2,1.3c-0.9,1-1.5,2.2-1.6,3.5H399.5z"/>
<path class="st0" d="M408.9,148.1h-2.6v-24.4h2.6V148.1z"/>
<path class="st0" d="M430.1,148.4c-2.2,0.1-4.3-0.7-5.8-2.3c-1.5-1.7-2.3-3.9-2.2-6.1c-0.1-2.4,0.7-4.7,2.3-6.5
	c1.6-1.6,3.9-2.5,6.1-2.3c2.2-0.1,4.3,0.7,5.8,2.3c1.5,1.8,2.2,4,2.1,6.3c0.1,2.3-0.7,4.6-2.2,6.3
	C434.6,147.7,432.4,148.6,430.1,148.4z M430.3,133.4c-1.5-0.1-3,0.6-4,1.7c-1.1,1.4-1.6,3.1-1.5,4.8c-0.1,1.7,0.4,3.3,1.5,4.6
	c1,1.1,2.5,1.8,4,1.7c1.5,0.1,3-0.5,3.9-1.7c1-1.4,1.5-3,1.4-4.7c0.1-1.7-0.4-3.4-1.4-4.8C433.3,133.9,431.8,133.3,430.3,133.4z"/>
<path class="st0" d="M455.8,140.5h-11.6c-0.1,1.6,0.5,3.1,1.5,4.2c1,1,2.4,1.6,3.9,1.5c1.9,0,3.7-0.7,5.1-1.8v2.5
	c-1.7,1.1-3.7,1.7-5.8,1.6c-2.1,0.1-4.1-0.7-5.5-2.2c-1.4-1.8-2.1-4-2-6.3c-0.1-2.3,0.7-4.5,2.2-6.3c1.4-1.6,3.3-2.5,5.4-2.4
	c1.9-0.1,3.7,0.7,5,2.1c1.3,1.7,1.9,3.7,1.8,5.8L455.8,140.5z M453.1,138.2c0.1-1.3-0.3-2.5-1.1-3.6c-0.8-0.9-1.9-1.3-3-1.3
	c-1.2,0-2.3,0.5-3.2,1.3c-0.9,1-1.5,2.2-1.6,3.5H453.1z"/>
<path class="st0" d="M458.8,147.5v-2.8c1.4,1,3,1.6,4.8,1.6c2.3,0,3.5-0.8,3.5-2.3c0-0.4-0.1-0.8-0.3-1.1c-0.2-0.3-0.5-0.6-0.8-0.8
	c-0.4-0.3-0.8-0.5-1.2-0.6l-1.5-0.6c-0.7-0.3-1.3-0.5-1.9-0.9c-0.5-0.3-1-0.6-1.4-1c-0.4-0.4-0.6-0.8-0.8-1.3
	c-0.2-0.5-0.3-1.1-0.3-1.7c0-0.7,0.2-1.4,0.5-2.1c0.4-0.6,0.8-1.1,1.4-1.5c0.6-0.4,1.3-0.7,2-0.9c0.8-0.2,1.5-0.3,2.3-0.3
	c1.3,0,2.6,0.2,3.8,0.7v2.7c-1.2-0.8-2.7-1.2-4.2-1.2c-0.5,0-0.9,0.1-1.3,0.2c-0.4,0.1-0.7,0.3-1,0.5c-0.3,0.2-0.5,0.4-0.7,0.7
	c-0.2,0.3-0.2,0.6-0.2,0.9c0,0.4,0.1,0.7,0.2,1.1c0.2,0.3,0.4,0.6,0.7,0.8c0.3,0.2,0.7,0.5,1.1,0.6l1.5,0.6c0.7,0.2,1.3,0.5,2,0.9
	c0.5,0.3,1,0.6,1.5,1c0.4,0.4,0.7,0.8,0.9,1.3c0.2,0.5,0.3,1.1,0.3,1.7c0,0.7-0.2,1.5-0.5,2.1c-0.4,0.6-0.9,1.1-1.4,1.5
	c-0.6,0.4-1.3,0.7-2.1,0.9c-0.8,0.2-1.6,0.3-2.5,0.3C461.7,148.5,460.2,148.2,458.8,147.5z"/>
<path class="st0" d="M481.5,147.9c-0.8,0.4-1.6,0.5-2.5,0.5c-2.9,0-4.3-1.6-4.3-4.8v-9.8h-2.8v-2.2h2.8v-4l2.6-0.8v4.9h4.2v2.2h-4.2
	v9.3c-0.1,0.8,0.1,1.7,0.6,2.4c0.5,0.5,1.2,0.8,1.9,0.7c0.6,0,1.2-0.2,1.7-0.6L481.5,147.9z"/>
<path class="st0" d="M498.3,140.5h-11.7c-0.1,1.6,0.5,3.1,1.5,4.2c1,1,2.4,1.6,3.9,1.5c1.9,0,3.7-0.7,5.1-1.8v2.5
	c-1.7,1.1-3.7,1.7-5.8,1.6c-2.1,0.1-4.1-0.7-5.5-2.2c-1.4-1.8-2.1-4-2-6.3c-0.1-2.3,0.7-4.5,2.2-6.2c1.4-1.6,3.3-2.5,5.4-2.4
	c1.9-0.1,3.7,0.7,5,2.1c1.3,1.7,1.9,3.7,1.8,5.8V140.5z M495.6,138.2c0.1-1.3-0.3-2.5-1.1-3.6c-0.8-0.9-1.9-1.3-3-1.3
	c-1.2,0-2.3,0.5-3.2,1.3c-0.9,1-1.5,2.2-1.6,3.5H495.6z"/>
<path class="st0" d="M42.9,227.1c-2,1-4.2,1.4-6.4,1.4c-3,0.1-5.8-1-7.9-3.2c-2.1-2.3-3.1-5.3-3-8.3c-0.2-3.3,1.1-6.6,3.3-9
	c2.2-2.3,5.3-3.5,8.5-3.4c1.9-0.1,3.7,0.3,5.5,0.9v2.9c-1.7-0.9-3.6-1.4-5.5-1.4c-2.4-0.1-4.8,0.9-6.4,2.7c-1.7,2-2.6,4.5-2.5,7.1
	c-0.1,2.5,0.7,4.9,2.3,6.7c1.6,1.7,3.8,2.6,6.1,2.5c2.1,0.1,4.2-0.5,6-1.6L42.9,227.1z"/>
<path class="st0" d="M63.4,216.1H48.3v-2.1h15.2V216.1z M63.4,222.9H48.3v-2.1h15.2V222.9z"/>
<path class="st0" d="M87.8,228.1h-2.6v-20c-0.3,0.3-0.6,0.5-0.9,0.7c-0.4,0.3-0.9,0.6-1.3,0.8c-0.5,0.2-1,0.5-1.5,0.7
	c-0.5,0.2-1,0.4-1.6,0.5v-2.7c0.6-0.2,1.2-0.4,1.8-0.6c0.7-0.3,1.3-0.6,1.9-0.9s1.2-0.7,1.8-1.1c0.5-0.3,1-0.7,1.4-1.1h1L87.8,228.1
	z"/>
<path class="st0" d="M110.2,206.5c-0.4,0.6-0.8,1.4-1.3,2.3s-1,1.9-1.6,3.1s-1.1,2.4-1.7,3.7s-1.1,2.7-1.6,4.1s-1,2.8-1.3,4.2
	c-0.4,1.4-0.7,2.8-0.8,4.2H99c0.2-1.4,0.5-2.8,0.9-4.2c0.4-1.4,0.9-2.8,1.4-4.2s1-2.7,1.6-4s1.1-2.4,1.7-3.5s1-2,1.5-2.9
	s0.8-1.5,1.1-1.9H95.5v-2.4h14.7V206.5z"/>
<path class="st0" d="M115.3,228.4c-0.5,0-0.9-0.2-1.3-0.5c-0.3-0.3-0.5-0.8-0.5-1.3c0-0.5,0.2-0.9,0.5-1.3c0.3-0.4,0.8-0.5,1.3-0.5
	c1,0,1.8,0.8,1.8,1.8C117.1,227.6,116.3,228.4,115.3,228.4C115.3,228.4,115.3,228.4,115.3,228.4z"/>
<path class="st0" d="M120.3,221.6c0-0.6,0.1-1.2,0.3-1.8c0.2-0.6,0.5-1.2,0.8-1.7c0.4-0.6,0.8-1.1,1.3-1.5c0.5-0.4,1.2-0.8,1.8-1.1
	c-1-0.5-1.8-1.3-2.4-2.1c-0.6-0.9-0.9-1.9-0.9-2.9c0-0.8,0.2-1.6,0.5-2.4c0.3-0.7,0.8-1.3,1.4-1.9c0.6-0.5,1.3-1,2.1-1.2
	c0.8-0.3,1.7-0.5,2.6-0.4c0.9,0,1.8,0.1,2.6,0.5c0.8,0.3,1.5,0.7,2.1,1.2c0.6,0.5,1,1.2,1.4,1.9c0.3,0.7,0.5,1.5,0.5,2.3
	c0,1-0.3,2.1-0.9,2.9c-0.6,0.9-1.4,1.6-2.4,2.1c0.6,0.3,1.2,0.6,1.8,1.1c0.5,0.4,1,0.9,1.3,1.5c0.4,0.5,0.6,1.1,0.8,1.7
	c0.2,0.6,0.3,1.2,0.3,1.8c0,1-0.2,1.9-0.5,2.8c-0.4,0.8-0.9,1.6-1.5,2.2c-0.7,0.6-1.5,1.1-2.4,1.4c-1,0.3-2,0.5-3,0.5
	c-1,0-2-0.2-3-0.5c-0.9-0.3-1.7-0.8-2.4-1.4c-0.7-0.6-1.2-1.3-1.6-2.2C120.5,223.5,120.3,222.6,120.3,221.6z M123.2,221.4
	c0,0.7,0.1,1.4,0.3,2c0.2,0.6,0.5,1.1,0.9,1.5c0.4,0.4,0.9,0.7,1.5,0.9c0.6,0.2,1.3,0.3,1.9,0.3c0.6,0,1.3-0.1,1.9-0.3
	c0.6-0.2,1.1-0.6,1.5-1c0.4-0.4,0.8-0.9,1-1.5c0.2-0.6,0.4-1.3,0.3-1.9c0-0.6-0.1-1.2-0.3-1.8c-0.2-0.6-0.5-1.1-0.9-1.5
	c-0.4-0.4-0.9-0.8-1.5-1c-0.6-0.3-1.3-0.4-1.9-0.4c-0.6,0-1.3,0.1-1.9,0.3c-0.5,0.2-1,0.6-1.5,1c-0.4,0.4-0.8,0.9-1,1.5
	C123.3,220.1,123.2,220.8,123.2,221.4L123.2,221.4z M124,210.7c0,0.5,0.1,1,0.3,1.5c0.4,0.9,1.1,1.7,2,2.1c0.5,0.2,1,0.3,1.5,0.3
	c0.5,0,1-0.1,1.5-0.3c0.5-0.2,0.9-0.5,1.2-0.8c0.3-0.4,0.6-0.8,0.8-1.2c0.2-0.5,0.3-1,0.3-1.5c0-0.5-0.1-1.1-0.3-1.6
	c-0.2-0.5-0.5-0.9-0.8-1.2c-0.4-0.3-0.8-0.6-1.2-0.8c-0.5-0.2-1-0.3-1.5-0.3c-0.5,0-1.1,0.1-1.6,0.3c-0.5,0.2-0.9,0.5-1.2,0.8
	c-0.3,0.4-0.6,0.8-0.8,1.2C124.1,209.7,124,210.1,124,210.7L124,210.7z"/>
<path class="st0" d="M171.8,228.1h-2.6v-9.4c0.1-1.4-0.2-2.8-0.9-4c-0.7-0.9-1.7-1.3-2.8-1.2c-1.2,0-2.2,0.6-2.9,1.6
	c-0.8,1.1-1.2,2.4-1.2,3.7v9.4h-2.6v-9.8c0-3.2-1.2-4.9-3.8-4.9c-1.1,0-2.2,0.5-2.9,1.5c-0.8,1.1-1.2,2.4-1.1,3.8v9.4h-2.6v-16.5
	h2.6v2.6h0.1c1-1.9,3-3.1,5.1-3c2.2,0,4.1,1.4,4.7,3.4c1-2.1,3.1-3.5,5.5-3.4c3.6,0,5.5,2.2,5.4,6.7L171.8,228.1z"/>
<path class="st0" d="M197.7,228.1H195v-2.6h-0.1c-1,1.9-2.9,3.1-5.1,3c-1.4,0.1-2.8-0.4-3.9-1.3c-0.9-0.9-1.4-2.2-1.4-3.5
	c0-3.1,1.8-4.9,5.4-5.4l4.9-0.7c0-2.8-1.1-4.2-3.4-4.2c-2,0-3.9,0.7-5.4,2v-2.7c1.7-1,3.6-1.6,5.6-1.6c3.9,0,5.8,2.1,5.8,6.2
	L197.7,228.1z M195,219.7l-4,0.6c-1,0.1-1.9,0.4-2.8,0.9c-0.7,0.6-1,1.4-0.9,2.3c0,0.8,0.3,1.5,0.9,2c0.6,0.5,1.5,0.8,2.3,0.8
	c1.2,0,2.4-0.5,3.2-1.4c0.9-1,1.3-2.2,1.3-3.5L195,219.7z"/>
<path class="st0" d="M205.3,228.1h-2.6v-24.4h2.6V228.1z"/>
<path class="st0" d="M218.7,227.5v-2.8c1.4,1,3,1.6,4.8,1.6c2.3,0,3.5-0.8,3.5-2.3c0-0.4-0.1-0.8-0.3-1.1c-0.2-0.3-0.5-0.6-0.8-0.8
	c-0.4-0.3-0.8-0.5-1.2-0.6l-1.5-0.6c-0.7-0.3-1.3-0.5-1.9-0.9c-0.5-0.3-1-0.6-1.4-1c-0.4-0.4-0.6-0.8-0.8-1.3
	c-0.2-0.5-0.3-1.1-0.3-1.7c0-0.7,0.2-1.4,0.5-2.1c0.4-0.6,0.8-1.1,1.4-1.5c0.6-0.4,1.3-0.7,2-0.9c0.8-0.2,1.6-0.3,2.4-0.3
	c1.3,0,2.6,0.2,3.8,0.7v2.7c-1.2-0.8-2.7-1.2-4.2-1.2c-0.5,0-0.9,0.1-1.3,0.2c-0.4,0.1-0.7,0.3-1,0.5c-0.3,0.2-0.5,0.4-0.7,0.7
	c-0.2,0.3-0.2,0.6-0.2,0.9c0,0.4,0.1,0.7,0.2,1.1c0.2,0.3,0.4,0.6,0.7,0.8c0.3,0.2,0.7,0.5,1.1,0.6l1.5,0.6c0.7,0.2,1.3,0.5,2,0.9
	c0.5,0.3,1,0.6,1.5,1c0.4,0.4,0.7,0.8,0.9,1.3c0.2,0.5,0.3,1.1,0.3,1.7c0,0.7-0.2,1.5-0.5,2.1c-0.4,0.6-0.9,1.1-1.4,1.5
	c-0.6,0.4-1.3,0.7-2.1,0.9c-0.8,0.2-1.6,0.3-2.5,0.3C221.6,228.5,220,228.2,218.7,227.5z"/>
<path class="st0" d="M247,228.1h-2.6v-2.6h-0.1c-1,1.9-2.9,3.1-5.1,3c-3.9,0-5.9-2.3-5.9-7v-9.9h2.6v9.4c0,3.5,1.3,5.2,4,5.2
	c1.2,0,2.4-0.5,3.2-1.4c0.9-1,1.3-2.4,1.2-3.7v-9.5h2.6V228.1z"/>
<path class="st0" d="M260.9,214.2c-0.6-0.4-1.3-0.6-2-0.5c-1.2,0-2.2,0.6-2.8,1.6c-0.8,1.3-1.2,2.8-1.1,4.4v8.4h-2.6v-16.5h2.6v3.4
	h0.1c0.3-1.1,0.9-2,1.7-2.7c0.7-0.6,1.6-1,2.6-1c0.5,0,1.1,0,1.6,0.2L260.9,214.2z"/>
<line class="st0" x1="58.6" y1="31.6" x2="19.6" y2="31.6"/>
<line class="st1" x1="49.5" y1="31.6" x2="19.6" y2="31.6"/>
<path class="st0" d="M58.6,31.6c-4.6-1.7-9-4.1-12.8-7.1l2.6,7.1l-2.6,7.1C49.6,35.7,54,33.3,58.6,31.6z"/>
<line class="st0" x1="58.6" y1="111.6" x2="19.6" y2="111.6"/>
<line class="st1" x1="49.5" y1="111.6" x2="19.6" y2="111.6"/>
<path class="st0" d="M58.6,111.6c-4.6-1.7-9-4.1-12.8-7.1l2.6,7.1l-2.6,7.1C49.6,115.7,54,113.3,58.6,111.6z"/>
<line class="st0" x1="58.6" y1="191.6" x2="19.6" y2="191.6"/>
<line class="st1" x1="49.5" y1="191.6" x2="19.6" y2="191.6"/>
<path class="st0" d="M58.6,191.6c-4.6-1.7-9-4.1-12.8-7.1l2.6,7.1l-2.6,7.1C49.6,195.7,54,193.3,58.6,191.6z"/>
</svg>
