<?xml version="1.0" encoding="utf-8"?>
<!-- Generator: Adobe Illustrator 25.0.0, SVG Export Plug-In . SVG Version: 6.00 Build 0)  -->
<svg version="1.1" id="Capa_1" xmlns="http://www.w3.org/2000/svg" xmlns:xlink="http://www.w3.org/1999/xlink" x="0px" y="0px"
	 viewBox="0 0 357.6 424" style="enable-background:new 0 0 357.6 424;" xml:space="preserve">
<style type="text/css">
	.st0{fill:none;}
	.st1{font-family:'SegoeUI';}
	.st2{font-size:32px;}
	.st3{letter-spacing:10;}
	.st4{letter-spacing:12;}
	.st5{letter-spacing:4;}
	.st6{letter-spacing:17;}
	.st7{letter-spacing:50;}
	.st8{letter-spacing:6;}
	.st9{letter-spacing:1;}
	.st10{font-size:33px;}
</style>
<rect y="6" class="st0" width="357.6" height="511"/>
<text transform="matrix(1 0 0 1 0 29.6875)" class="st1 st2">Otra</text>
<text transform="matrix(1 0 0 1 62.4 29.6875)" class="st1 st2 st3"> </text>
<text transform="matrix(1 0 0 1 82.5 29.6875)" class="st1 st2">operación</text>
<text transform="matrix(1 0 0 1 223.6 29.6875)" class="st1 st2 st3"> </text>
<text transform="matrix(1 0 0 1 243.7 29.6875)" class="st1 st2">habitual </text>
<text transform="matrix(1 0 0 1 0 68.0875)" class="st1 st2">en</text>
<text transform="matrix(1 0 0 1 34.8 68.0875)" class="st1 st2 st4"> </text>
<text transform="matrix(1 0 0 1 56.4 68.0875)" class="st1 st2">el</text>
<text transform="matrix(1 0 0 1 80.9 68.0875)" class="st1 st2 st4"> </text>
<text transform="matrix(1 0 0 1 102.5 68.0875)" class="st1 st2">producto</text>
<text transform="matrix(1 0 0 1 232.6 68.0875)" class="st1 st2 st4"> </text>
<text transform="matrix(1 0 0 1 254.2 68.0875)" class="st1 st2">escalar, </text>
<text transform="matrix(1 0 0 1 0 106.4875)" class="st1 st2">este</text>
<text transform="matrix(1 0 0 1 57.9 106.4875)" class="st1 st2 st5"> </text>
<text transform="matrix(1 0 0 1 71.5 106.4875)" class="st1 st2">se</text>
<text transform="matrix(1 0 0 1 101.8 106.4875)" class="st1 st2 st5"> </text>
<text transform="matrix(1 0 0 1 115.4 106.4875)" class="st1 st2">realiza</text>
<text transform="matrix(1 0 0 1 205.8 106.4875)" class="st1 st2 st5"> </text>
<text transform="matrix(1 0 0 1 219.3 106.4875)" class="st1 st2">entre</text>
<text transform="matrix(1 0 0 1 292.9 106.4875)" class="st1 st2 st5"> </text>
<text transform="matrix(1 0 0 1 306.5 106.4875)" class="st1 st2">dos </text>
<text transform="matrix(1 0 0 1 0 144.8875)" class="st1 st2">vectores</text>
<text transform="matrix(1 0 0 1 117.9 144.8875)" class="st1 st2 st6"> </text>
<text transform="matrix(1 0 0 1 144.7 144.8875)" class="st1 st2">y</text>
<text transform="matrix(1 0 0 1 160.2 144.8875)" class="st1 st2 st6"> </text>
<text transform="matrix(1 0 0 1 187 144.8875)" class="st1 st2">recibe</text>
<text transform="matrix(1 0 0 1 272.9 144.8875)" class="st1 st2 st6"> </text>
<text transform="matrix(1 0 0 1 299.7 144.8875)" class="st1 st2">este </text>
<text transform="matrix(1 0 0 1 0 183.2875)" class="st1 st2">nombre</text>
<text transform="matrix(1 0 0 1 111.1 183.2875)" class="st1 st2 st7"> </text>
<text transform="matrix(1 0 0 1 170.9 183.2875)" class="st1 st2">porque</text>
<text transform="matrix(1 0 0 1 273.3 183.2875)" class="st1 st2 st7"> </text>
<text transform="matrix(1 0 0 1 333.1 183.2875)" class="st1 st2">el </text>
<text transform="matrix(1 0 0 1 0 221.6875)" class="st1 st2">resultado</text>
<text transform="matrix(1 0 0 1 132 221.6875)" class="st1 st2"> </text>
<text transform="matrix(1 0 0 1 140.7 221.6875)" class="st1 st2">no</text>
<text transform="matrix(1 0 0 1 177.5 221.6875)" class="st1 st2"> </text>
<text transform="matrix(1 0 0 1 186.2 221.6875)" class="st1 st2">es</text>
<text transform="matrix(1 0 0 1 216.5 221.6875)" class="st1 st2"> </text>
<text transform="matrix(1 0 0 1 225.2 221.6875)" class="st1 st2">un</text>
<text transform="matrix(1 0 0 1 261.4 221.6875)" class="st1 st2"> </text>
<text transform="matrix(1 0 0 1 270.1 221.6875)" class="st1 st2">vector </text>
<text transform="matrix(1 0 0 1 0 260.0875)" class="st1 st2">sino</text>
<text transform="matrix(1 0 0 1 58.2 260.0875)" class="st1 st2 st8"> </text>
<text transform="matrix(1 0 0 1 74.6 260.0875)" class="st1 st2">un</text>
<text transform="matrix(1 0 0 1 110.9 260.0875)" class="st1 st2 st8"> </text>
<text transform="matrix(1 0 0 1 127.3 260.0875)" class="st1 st2">numero</text>
<text transform="matrix(1 0 0 1 237.7 260.0875)" class="st1 st2 st8"> </text>
<text transform="matrix(1 0 0 1 254.2 260.0875)" class="st1 st2">escalar.  </text>
<text transform="matrix(1 0 0 1 0 298.4875)" class="st1 st2">En</text>
<text transform="matrix(1 0 0 1 34.3 298.4875)" class="st1 st2 st9"> </text>
<text transform="matrix(1 0 0 1 46 298.4875)" class="st1 st2">términos</text>
<text transform="matrix(1 0 0 1 170.5 298.4875)" class="st1 st2 st9"> </text>
<text transform="matrix(1 0 0 1 182.2 298.4875)" class="st1 st2">geométricos </text>
<text transform="matrix(1 0 0 1 0 336.8875)" class="st1 st2">debe</text>
<text transform="matrix(1 0 0 1 71.1 336.8875)" class="st1 st2"> </text>
<text transform="matrix(1 0 0 1 79.5 336.8875)" class="st1 st2">entenderse</text>
<text transform="matrix(1 0 0 1 237 336.8875)" class="st1 st2"> </text>
<text transform="matrix(1 0 0 1 245.4 336.8875)" class="st1 st2">como</text>
<text transform="matrix(1 0 0 1 325.2 336.8875)" class="st1 st2"> </text>
<text transform="matrix(1 0 0 1 333.6 336.8875)" class="st1 st2">la </text>
<text transform="matrix(1 0 0 1 0 375.2875)" class="st1 st2">proyección</text>
<text transform="matrix(1 0 0 1 155.1 375.2875)" class="st1 st2 st5"> </text>
<text transform="matrix(1 0 0 1 169.5 375.2875)" class="st1 st2">de</text>
<text transform="matrix(1 0 0 1 205.1 375.2875)" class="st1 st2 st5"> </text>
<text transform="matrix(1 0 0 1 219.5 375.2875)" class="st1 st2">un</text>
<text transform="matrix(1 0 0 1 255.7 375.2875)" class="st1 st2 st5"> </text>
<text transform="matrix(1 0 0 1 270.1 375.2875)" class="st1 st2">vector </text>
<rect y="390" class="st0" width="357.6" height="40"/>
<text transform="matrix(1 0 0 1 0 414.3906)" class="st1 st10">sobre el otro</text>
</svg>
