<?xml version="1.0" encoding="utf-8"?>
<!-- Generator: Adobe Illustrator 25.0.0, SVG Export Plug-In . SVG Version: 6.00 Build 0)  -->
<svg version="1.1" id="Capa_1" xmlns="http://www.w3.org/2000/svg" xmlns:xlink="http://www.w3.org/1999/xlink" x="0px" y="0px"
	 viewBox="0 0 366.9 453.5" style="enable-background:new 0 0 366.9 453.5;" xml:space="preserve">
<style type="text/css">
	.st0{fill:none;stroke:#000000;stroke-width:1.2;stroke-linecap:round;stroke-linejoin:round;}
</style>
<g>
	<g>
		<path d="M22.3,33.9H10.8V12.2h11v2.3h-8.5v7.2h7.8V24h-7.8v7.6h9V33.9z"/>
		<path d="M28.7,33.9h-2.5V11h2.5V33.9z"/>
		<path d="M60.9,31.7L60.9,31.7l-0.1,9.4h-2.5V18.4h2.5v2.7h0.1c1.2-2.1,3-3.1,5.4-3.1c2,0,3.6,0.7,4.7,2.1c1.1,1.4,1.7,3.2,1.7,5.6
			c0,2.6-0.6,4.7-1.9,6.2c-1.3,1.6-3,2.3-5.2,2.3C63.5,34.3,62,33.4,60.9,31.7z M60.8,25.5v2.2c0,1.3,0.4,2.4,1.2,3.3
			c0.8,0.9,1.9,1.3,3.2,1.3c1.5,0,2.7-0.6,3.5-1.7c0.9-1.2,1.3-2.7,1.3-4.8c0-1.7-0.4-3.1-1.2-4.1c-0.8-1-1.9-1.5-3.2-1.5
			c-1.4,0-2.6,0.5-3.5,1.5C61.2,22.7,60.8,23.9,60.8,25.5z"/>
		<path d="M84.6,21c-0.4-0.3-1.1-0.5-1.9-0.5c-1.1,0-1.9,0.5-2.7,1.5C79.4,23,79,24.3,79,26v7.9h-2.5V18.4H79v3.2h0.1
			c0.4-1.1,0.9-1.9,1.6-2.6c0.7-0.6,1.5-0.9,2.4-0.9c0.6,0,1.1,0.1,1.5,0.2V21z"/>
		<path d="M93.8,34.3c-2.3,0-4.1-0.7-5.5-2.2c-1.4-1.4-2.1-3.4-2.1-5.8c0-2.6,0.7-4.6,2.1-6.1c1.4-1.5,3.3-2.2,5.8-2.2
			c2.3,0,4.1,0.7,5.4,2.1c1.3,1.4,1.9,3.4,1.9,5.9c0,2.5-0.7,4.5-2.1,5.9C98,33.6,96.2,34.3,93.8,34.3z M94,20.2
			c-1.6,0-2.9,0.5-3.8,1.6c-0.9,1.1-1.4,2.6-1.4,4.5c0,1.8,0.5,3.3,1.4,4.3s2.2,1.6,3.8,1.6c1.6,0,2.8-0.5,3.7-1.6
			c0.9-1,1.3-2.5,1.3-4.4c0-1.9-0.4-3.4-1.3-4.5C96.8,20.7,95.6,20.2,94,20.2z"/>
		<path d="M118.7,33.9h-2.5v-2.6h-0.1c-1.2,2-2.9,3-5.3,3c-1.9,0-3.5-0.7-4.7-2.1c-1.2-1.4-1.7-3.3-1.7-5.7c0-2.6,0.6-4.6,1.9-6.2
			c1.3-1.5,3-2.3,5.2-2.3c2.1,0,3.7,0.8,4.6,2.5h0.1V11h2.5V33.9z M116.2,26.9v-2.3c0-1.3-0.4-2.3-1.2-3.2c-0.8-0.9-1.9-1.3-3.1-1.3
			c-1.5,0-2.7,0.6-3.6,1.7c-0.9,1.1-1.3,2.6-1.3,4.6c0,1.8,0.4,3.2,1.2,4.2c0.8,1,1.9,1.6,3.4,1.6c1.4,0,2.5-0.5,3.4-1.5
			C115.8,29.7,116.2,28.5,116.2,26.9z"/>
		<path d="M136.3,33.9h-2.5v-2.5h-0.1c-1,1.9-2.6,2.8-4.8,2.8c-3.7,0-5.5-2.2-5.5-6.6v-9.3h2.5v8.9c0,3.3,1.3,4.9,3.8,4.9
			c1.2,0,2.2-0.4,3-1.3c0.8-0.9,1.2-2.1,1.2-3.5v-8.9h2.5V33.9z"/>
		<path d="M151.9,33.2c-1.2,0.7-2.6,1.1-4.2,1.1c-2.2,0-4-0.7-5.4-2.2c-1.4-1.4-2-3.3-2-5.6c0-2.6,0.7-4.6,2.2-6.2
			c1.5-1.5,3.4-2.3,5.9-2.3c1.4,0,2.6,0.3,3.6,0.8v2.5c-1.2-0.8-2.4-1.2-3.7-1.2c-1.6,0-2.9,0.6-3.9,1.7c-1,1.1-1.5,2.6-1.5,4.5
			c0,1.8,0.5,3.2,1.4,4.3c1,1,2.2,1.6,3.8,1.6c1.4,0,2.6-0.4,3.8-1.3V33.2z"/>
		<path d="M162.8,33.8c-0.6,0.3-1.4,0.5-2.3,0.5c-2.7,0-4.1-1.5-4.1-4.5v-9.2h-2.7v-2.1h2.7v-3.8l2.5-0.8v4.6h3.9v2.1h-3.9v8.7
			c0,1,0.2,1.8,0.5,2.2c0.4,0.4,0.9,0.7,1.8,0.7c0.6,0,1.2-0.2,1.6-0.5V33.8z"/>
		<path d="M172.6,34.3c-2.3,0-4.1-0.7-5.5-2.2c-1.4-1.4-2.1-3.4-2.1-5.8c0-2.6,0.7-4.6,2.1-6.1c1.4-1.5,3.3-2.2,5.8-2.2
			c2.3,0,4.1,0.7,5.4,2.1c1.3,1.4,1.9,3.4,1.9,5.9c0,2.5-0.7,4.5-2.1,5.9C176.8,33.6,174.9,34.3,172.6,34.3z M172.8,20.2
			c-1.6,0-2.9,0.5-3.8,1.6c-0.9,1.1-1.4,2.6-1.4,4.5c0,1.8,0.5,3.3,1.4,4.3s2.2,1.6,3.8,1.6c1.6,0,2.8-0.5,3.7-1.6
			c0.9-1,1.3-2.5,1.3-4.4c0-1.9-0.4-3.4-1.3-4.5C175.6,20.7,174.4,20.2,172.8,20.2z"/>
		<path d="M221.4,26.8h-10.9c0,1.7,0.5,3.1,1.4,4s2.1,1.4,3.7,1.4c1.7,0,3.4-0.6,4.8-1.7v2.3c-1.4,1-3.2,1.5-5.4,1.5
			c-2.2,0-3.9-0.7-5.2-2.1c-1.3-1.4-1.9-3.4-1.9-5.9c0-2.4,0.7-4.4,2.1-5.9c1.4-1.5,3.1-2.3,5.1-2.3s3.6,0.7,4.7,2
			c1.1,1.3,1.7,3.1,1.7,5.5V26.8z M218.8,24.7c0-1.4-0.4-2.5-1-3.3c-0.7-0.8-1.6-1.2-2.8-1.2c-1.2,0-2.2,0.4-3,1.3
			c-0.8,0.8-1.3,1.9-1.5,3.3H218.8z"/>
		<path d="M224.2,33.4v-2.7c1.4,1,2.8,1.5,4.5,1.5c2.2,0,3.3-0.7,3.3-2.2c0-0.4-0.1-0.8-0.3-1.1c-0.2-0.3-0.4-0.5-0.8-0.8
			c-0.3-0.2-0.7-0.4-1.1-0.6c-0.4-0.2-0.9-0.4-1.4-0.6c-0.7-0.3-1.3-0.5-1.8-0.8c-0.5-0.3-1-0.6-1.3-0.9c-0.3-0.3-0.6-0.7-0.8-1.2
			c-0.2-0.4-0.3-1-0.3-1.6c0-0.7,0.2-1.4,0.5-1.9c0.3-0.6,0.8-1,1.3-1.4c0.6-0.4,1.2-0.7,1.9-0.9c0.7-0.2,1.4-0.3,2.2-0.3
			c1.3,0,2.5,0.2,3.6,0.7v2.5c-1.1-0.7-2.5-1.1-3.9-1.1c-0.5,0-0.9,0.1-1.3,0.2c-0.4,0.1-0.7,0.3-1,0.4c-0.3,0.2-0.5,0.4-0.6,0.7
			c-0.1,0.3-0.2,0.6-0.2,0.9c0,0.4,0.1,0.7,0.2,1c0.1,0.3,0.4,0.5,0.6,0.7c0.3,0.2,0.6,0.4,1,0.6c0.4,0.2,0.9,0.4,1.4,0.6
			c0.7,0.3,1.3,0.5,1.8,0.8c0.5,0.3,1,0.6,1.4,0.9c0.4,0.3,0.7,0.7,0.9,1.2c0.2,0.5,0.3,1,0.3,1.6c0,0.8-0.2,1.4-0.5,2
			c-0.3,0.6-0.8,1-1.4,1.4c-0.6,0.4-1.2,0.7-2,0.8c-0.7,0.2-1.5,0.3-2.3,0.3C226.7,34.3,225.3,34,224.2,33.4z"/>
		<path d="M248.8,33.2c-1.2,0.7-2.6,1.1-4.2,1.1c-2.2,0-4-0.7-5.4-2.2c-1.4-1.4-2-3.3-2-5.6c0-2.6,0.7-4.6,2.2-6.2
			c1.5-1.5,3.4-2.3,5.9-2.3c1.4,0,2.6,0.3,3.6,0.8v2.5c-1.2-0.8-2.4-1.2-3.7-1.2c-1.6,0-2.9,0.6-3.9,1.7c-1,1.1-1.5,2.6-1.5,4.5
			c0,1.8,0.5,3.2,1.4,4.3c1,1,2.2,1.6,3.8,1.6c1.4,0,2.6-0.4,3.8-1.3V33.2z"/>
		<path d="M263.7,33.9h-2.5v-2.4h-0.1c-1.1,1.9-2.7,2.8-4.8,2.8c-1.5,0-2.8-0.4-3.6-1.2c-0.9-0.8-1.3-1.9-1.3-3.3
			c0-2.9,1.7-4.6,5.1-5.1l4.6-0.7c0-2.6-1.1-4-3.2-4c-1.9,0-3.6,0.6-5.1,1.9v-2.5c1.5-1,3.3-1.5,5.3-1.5c3.6,0,5.5,1.9,5.5,5.8V33.9
			z M261.2,26.1l-3.7,0.5c-1.2,0.2-2,0.4-2.6,0.9c-0.6,0.4-0.9,1.1-0.9,2.2c0,0.8,0.3,1.4,0.8,1.9c0.5,0.5,1.3,0.7,2.2,0.7
			c1.2,0,2.2-0.4,3-1.3c0.8-0.9,1.2-2,1.2-3.3V26.1z"/>
		<path d="M270.8,33.9h-2.5V11h2.5V33.9z"/>
		<path d="M287,33.9h-2.5v-2.4h-0.1c-1.1,1.9-2.7,2.8-4.8,2.8c-1.5,0-2.8-0.4-3.6-1.2c-0.9-0.8-1.3-1.9-1.3-3.3
			c0-2.9,1.7-4.6,5.1-5.1l4.6-0.7c0-2.6-1.1-4-3.2-4c-1.9,0-3.6,0.6-5.1,1.9v-2.5c1.5-1,3.3-1.5,5.3-1.5c3.6,0,5.5,1.9,5.5,5.8V33.9
			z M284.5,26.1l-3.7,0.5c-1.2,0.2-2,0.4-2.6,0.9c-0.6,0.4-0.9,1.1-0.9,2.2c0,0.8,0.3,1.4,0.8,1.9c0.5,0.5,1.3,0.7,2.2,0.7
			c1.2,0,2.2-0.4,3-1.3c0.8-0.9,1.2-2,1.2-3.3V26.1z"/>
		<path d="M299.7,21c-0.4-0.3-1.1-0.5-1.9-0.5c-1.1,0-1.9,0.5-2.7,1.5c-0.7,1-1.1,2.4-1.1,4.1v7.9h-2.5V18.4h2.5v3.2h0.1
			c0.4-1.1,0.9-1.9,1.6-2.6c0.7-0.6,1.5-0.9,2.4-0.9c0.6,0,1.1,0.1,1.5,0.2V21z"/>
		<path d="M340.3,33.9h-2.5v-2.6h-0.1c-1.2,2-2.9,3-5.3,3c-1.9,0-3.5-0.7-4.7-2.1c-1.2-1.4-1.7-3.3-1.7-5.7c0-2.6,0.6-4.6,1.9-6.2
			s3-2.3,5.2-2.3c2.1,0,3.7,0.8,4.6,2.5h0.1V11h2.5V33.9z M337.8,26.9v-2.3c0-1.3-0.4-2.3-1.2-3.2c-0.8-0.9-1.9-1.3-3.1-1.3
			c-1.5,0-2.7,0.6-3.6,1.7c-0.9,1.1-1.3,2.6-1.3,4.6c0,1.8,0.4,3.2,1.2,4.2c0.8,1,2,1.6,3.4,1.6c1.4,0,2.5-0.5,3.4-1.5
			C337.4,29.7,337.8,28.5,337.8,26.9z"/>
		<path d="M357.8,26.8h-10.9c0,1.7,0.5,3.1,1.4,4s2.1,1.4,3.7,1.4c1.7,0,3.4-0.6,4.8-1.7v2.3c-1.4,1-3.2,1.5-5.4,1.5
			c-2.2,0-3.9-0.7-5.2-2.1c-1.3-1.4-1.9-3.4-1.9-5.9c0-2.4,0.7-4.4,2.1-5.9c1.4-1.5,3.1-2.3,5.1-2.3s3.6,0.7,4.7,2
			c1.1,1.3,1.7,3.1,1.7,5.5V26.8z M355.2,24.7c0-1.4-0.4-2.5-1-3.3c-0.7-0.8-1.6-1.2-2.8-1.2c-1.2,0-2.2,0.4-3,1.3
			c-0.8,0.8-1.3,1.9-1.5,3.3H355.2z"/>
		<path d="M23.7,71.1h-2.5v-2.6h-0.1c-1.2,2-2.9,3-5.3,3c-1.9,0-3.5-0.7-4.7-2.1C10,68,9.5,66.2,9.5,63.8c0-2.6,0.6-4.6,1.9-6.2
			c1.3-1.5,3-2.3,5.2-2.3c2.1,0,3.7,0.8,4.6,2.5h0.1v-9.6h2.5V71.1z M21.3,64.1v-2.3c0-1.3-0.4-2.3-1.2-3.2
			c-0.8-0.9-1.9-1.3-3.1-1.3c-1.5,0-2.7,0.6-3.6,1.7c-0.9,1.1-1.3,2.6-1.3,4.6c0,1.8,0.4,3.2,1.2,4.2c0.8,1,1.9,1.6,3.4,1.6
			c1.4,0,2.5-0.5,3.4-1.5C20.8,66.9,21.3,65.7,21.3,64.1z"/>
		<path d="M35.2,71.5c-2.3,0-4.1-0.7-5.5-2.2c-1.4-1.4-2.1-3.4-2.1-5.8c0-2.6,0.7-4.6,2.1-6.1c1.4-1.5,3.3-2.2,5.8-2.2
			c2.3,0,4.1,0.7,5.4,2.1c1.3,1.4,1.9,3.4,1.9,5.9c0,2.5-0.7,4.5-2.1,5.9C39.5,70.8,37.6,71.5,35.2,71.5z M35.4,57.4
			c-1.6,0-2.9,0.5-3.8,1.6c-0.9,1.1-1.4,2.6-1.4,4.5c0,1.8,0.5,3.3,1.4,4.3s2.2,1.6,3.8,1.6c1.6,0,2.8-0.5,3.7-1.6
			c0.9-1,1.3-2.5,1.3-4.4c0-1.9-0.4-3.4-1.3-4.5C38.3,57.9,37,57.4,35.4,57.4z"/>
		<path d="M46,70.6v-2.7c1.4,1,2.8,1.5,4.5,1.5c2.2,0,3.3-0.7,3.3-2.2c0-0.4-0.1-0.8-0.3-1.1c-0.2-0.3-0.4-0.5-0.8-0.8
			c-0.3-0.2-0.7-0.4-1.1-0.6c-0.4-0.2-0.9-0.4-1.4-0.6c-0.7-0.3-1.3-0.5-1.8-0.8c-0.5-0.3-1-0.6-1.3-0.9c-0.3-0.3-0.6-0.7-0.8-1.2
			c-0.2-0.4-0.3-1-0.3-1.6c0-0.7,0.2-1.4,0.5-1.9c0.3-0.6,0.8-1,1.3-1.4c0.6-0.4,1.2-0.7,1.9-0.9c0.7-0.2,1.4-0.3,2.2-0.3
			c1.3,0,2.5,0.2,3.6,0.7v2.5c-1.1-0.7-2.5-1.1-3.9-1.1c-0.5,0-0.9,0.1-1.3,0.2c-0.4,0.1-0.7,0.3-1,0.4c-0.3,0.2-0.5,0.4-0.6,0.7
			c-0.1,0.3-0.2,0.6-0.2,0.9c0,0.4,0.1,0.7,0.2,1c0.1,0.3,0.4,0.5,0.6,0.7c0.3,0.2,0.6,0.4,1,0.6c0.4,0.2,0.9,0.4,1.4,0.6
			c0.7,0.3,1.3,0.5,1.8,0.8c0.5,0.3,1,0.6,1.4,0.9c0.4,0.3,0.7,0.7,0.9,1.2c0.2,0.5,0.3,1,0.3,1.6c0,0.8-0.2,1.4-0.5,2
			c-0.3,0.6-0.8,1-1.4,1.4c-0.6,0.4-1.2,0.7-2,0.8c-0.7,0.2-1.5,0.3-2.3,0.3C48.5,71.5,47.2,71.2,46,70.6z"/>
		<path d="M93.3,55.6l-6.2,15.5h-2.4l-5.9-15.5h2.7l3.9,11.3c0.3,0.8,0.5,1.5,0.5,2.2h0.1c0.1-0.8,0.3-1.5,0.5-2.1l4.1-11.3H93.3z"
			/>
		<path d="M108.4,64H97.5c0,1.7,0.5,3.1,1.4,4c0.9,0.9,2.1,1.4,3.7,1.4c1.7,0,3.4-0.6,4.8-1.7V70c-1.4,1-3.2,1.5-5.4,1.5
			c-2.2,0-3.9-0.7-5.2-2.1c-1.3-1.4-1.9-3.4-1.9-5.9c0-2.4,0.7-4.4,2.1-5.9c1.4-1.5,3.1-2.3,5.1-2.3s3.6,0.7,4.7,2
			c1.1,1.3,1.7,3.1,1.7,5.5V64z M105.9,61.9c0-1.4-0.4-2.5-1-3.3c-0.7-0.8-1.6-1.2-2.8-1.2c-1.2,0-2.2,0.4-3,1.3
			c-0.8,0.8-1.3,1.9-1.5,3.3H105.9z"/>
		<path d="M122.7,70.4c-1.2,0.7-2.6,1.1-4.2,1.1c-2.2,0-4-0.7-5.4-2.2c-1.4-1.4-2-3.3-2-5.6c0-2.6,0.7-4.6,2.2-6.2
			c1.5-1.5,3.4-2.3,5.9-2.3c1.4,0,2.6,0.3,3.6,0.8v2.5c-1.2-0.8-2.4-1.2-3.7-1.2c-1.6,0-2.9,0.6-3.9,1.7c-1,1.1-1.5,2.6-1.5,4.5
			c0,1.8,0.5,3.2,1.4,4.3c1,1,2.2,1.6,3.8,1.6c1.4,0,2.6-0.4,3.8-1.3V70.4z"/>
		<path d="M133.7,71c-0.6,0.3-1.4,0.5-2.3,0.5c-2.7,0-4.1-1.5-4.1-4.5v-9.2h-2.7v-2.1h2.7v-3.8l2.5-0.8v4.6h3.9v2.1h-3.9v8.7
			c0,1,0.2,1.8,0.5,2.2c0.4,0.4,0.9,0.7,1.8,0.7c0.6,0,1.2-0.2,1.6-0.5V71z"/>
		<path d="M143.5,71.5c-2.3,0-4.1-0.7-5.5-2.2c-1.4-1.4-2.1-3.4-2.1-5.8c0-2.6,0.7-4.6,2.1-6.1c1.4-1.5,3.3-2.2,5.8-2.2
			c2.3,0,4.1,0.7,5.4,2.1c1.3,1.4,1.9,3.4,1.9,5.9c0,2.5-0.7,4.5-2.1,5.9C147.7,70.8,145.8,71.5,143.5,71.5z M143.7,57.4
			c-1.6,0-2.9,0.5-3.8,1.6c-0.9,1.1-1.4,2.6-1.4,4.5c0,1.8,0.5,3.3,1.4,4.3s2.2,1.6,3.8,1.6c1.6,0,2.8-0.5,3.7-1.6
			c0.9-1,1.3-2.5,1.3-4.4c0-1.9-0.4-3.4-1.3-4.5C146.5,57.9,145.3,57.4,143.7,57.4z"/>
		<path d="M163.2,58.2c-0.4-0.3-1.1-0.5-1.9-0.5c-1.1,0-1.9,0.5-2.7,1.5c-0.7,1-1.1,2.4-1.1,4.1v7.9h-2.5V55.6h2.5v3.2h0.1
			c0.4-1.1,0.9-1.9,1.6-2.6c0.7-0.6,1.5-0.9,2.4-0.9c0.6,0,1.1,0.1,1.5,0.2V58.2z"/>
		<path d="M178.4,64h-10.9c0,1.7,0.5,3.1,1.4,4c0.9,0.9,2.1,1.4,3.7,1.4c1.7,0,3.4-0.6,4.8-1.7V70c-1.4,1-3.2,1.5-5.4,1.5
			c-2.2,0-3.9-0.7-5.2-2.1c-1.3-1.4-1.9-3.4-1.9-5.9c0-2.4,0.7-4.4,2.1-5.9c1.4-1.5,3.1-2.3,5.1-2.3s3.6,0.7,4.7,2
			c1.1,1.3,1.7,3.1,1.7,5.5V64z M175.8,61.9c0-1.4-0.4-2.5-1-3.3c-0.7-0.8-1.6-1.2-2.8-1.2c-1.2,0-2.2,0.4-3,1.3
			c-0.8,0.8-1.3,1.9-1.5,3.3H175.8z"/>
		<path d="M181.2,70.6v-2.7c1.4,1,2.8,1.5,4.5,1.5c2.2,0,3.3-0.7,3.3-2.2c0-0.4-0.1-0.8-0.3-1.1c-0.2-0.3-0.4-0.5-0.8-0.8
			c-0.3-0.2-0.7-0.4-1.1-0.6c-0.4-0.2-0.9-0.4-1.4-0.6c-0.7-0.3-1.3-0.5-1.8-0.8c-0.5-0.3-1-0.6-1.3-0.9c-0.3-0.3-0.6-0.7-0.8-1.2
			c-0.2-0.4-0.3-1-0.3-1.6c0-0.7,0.2-1.4,0.5-1.9c0.3-0.6,0.8-1,1.3-1.4c0.6-0.4,1.2-0.7,1.9-0.9c0.7-0.2,1.4-0.3,2.2-0.3
			c1.3,0,2.5,0.2,3.6,0.7v2.5c-1.1-0.7-2.5-1.1-3.9-1.1c-0.5,0-0.9,0.1-1.3,0.2c-0.4,0.1-0.7,0.3-1,0.4c-0.3,0.2-0.5,0.4-0.6,0.7
			c-0.1,0.3-0.2,0.6-0.2,0.9c0,0.4,0.1,0.7,0.2,1c0.1,0.3,0.4,0.5,0.6,0.7c0.3,0.2,0.6,0.4,1,0.6c0.4,0.2,0.9,0.4,1.4,0.6
			c0.7,0.3,1.3,0.5,1.8,0.8c0.5,0.3,1,0.6,1.4,0.9c0.4,0.3,0.7,0.7,0.9,1.2c0.2,0.5,0.3,1,0.3,1.6c0,0.8-0.2,1.4-0.5,2
			c-0.3,0.6-0.8,1-1.4,1.4c-0.6,0.4-1.2,0.7-2,0.8c-0.7,0.2-1.5,0.3-2.3,0.3C183.8,71.5,182.4,71.2,181.2,70.6z"/>
		<path d="M233.5,71.1h-2.8l-2.3-6.1h-9.2l-2.2,6.1h-2.8l8.3-21.7h2.6L233.5,71.1z M227.5,62.8l-3.4-9.2c-0.1-0.3-0.2-0.8-0.3-1.5
			h-0.1c-0.1,0.6-0.2,1.1-0.3,1.5l-3.4,9.2H227.5z"/>
		<path d="M269.7,55.6l-7.1,18c-1.3,3.2-3.1,4.8-5.4,4.8c-0.6,0-1.2-0.1-1.6-0.2V76c0.5,0.2,1,0.3,1.5,0.3c1.3,0,2.2-0.7,2.8-2.2
			l1.2-2.9L255,55.6h2.8l4.2,11.9c0,0.2,0.2,0.5,0.3,1.2h0.1c0.1-0.2,0.2-0.6,0.3-1.2l4.4-12H269.7z"/>
		<path d="M293.7,71.1V49.4h6.2c1.9,0,3.4,0.5,4.5,1.4c1.1,0.9,1.7,2.1,1.7,3.6c0,1.2-0.3,2.3-1,3.2s-1.6,1.6-2.8,1.9v0.1
			c1.5,0.2,2.6,0.7,3.5,1.7c0.9,0.9,1.3,2.1,1.3,3.6c0,1.9-0.7,3.4-2,4.5s-3,1.7-5,1.7H293.7z M296.2,51.7v7h2.6
			c1.4,0,2.5-0.3,3.3-1c0.8-0.7,1.2-1.6,1.2-2.8c0-2.1-1.4-3.2-4.2-3.2H296.2z M296.2,61v7.8h3.5c1.5,0,2.7-0.4,3.5-1.1
			c0.8-0.7,1.2-1.7,1.2-2.9c0-2.6-1.7-3.8-5.2-3.8H296.2z"/>
		<path d="M331.2,70.6v-2.7c1.4,1,2.8,1.5,4.5,1.5c2.2,0,3.3-0.7,3.3-2.2c0-0.4-0.1-0.8-0.3-1.1c-0.2-0.3-0.4-0.5-0.8-0.8
			c-0.3-0.2-0.7-0.4-1.1-0.6c-0.4-0.2-0.9-0.4-1.4-0.6c-0.7-0.3-1.3-0.5-1.8-0.8c-0.5-0.3-1-0.6-1.3-0.9c-0.3-0.3-0.6-0.7-0.8-1.2
			c-0.2-0.4-0.3-1-0.3-1.6c0-0.7,0.2-1.4,0.5-1.9c0.3-0.6,0.8-1,1.3-1.4c0.6-0.4,1.2-0.7,1.9-0.9c0.7-0.2,1.4-0.3,2.2-0.3
			c1.3,0,2.5,0.2,3.6,0.7v2.5c-1.1-0.7-2.5-1.1-3.9-1.1c-0.5,0-0.9,0.1-1.3,0.2c-0.4,0.1-0.7,0.3-1,0.4c-0.3,0.2-0.5,0.4-0.6,0.7
			c-0.1,0.3-0.2,0.6-0.2,0.9c0,0.4,0.1,0.7,0.2,1c0.1,0.3,0.4,0.5,0.6,0.7c0.3,0.2,0.6,0.4,1,0.6c0.4,0.2,0.9,0.4,1.4,0.6
			c0.7,0.3,1.3,0.5,1.8,0.8c0.5,0.3,1,0.6,1.4,0.9c0.4,0.3,0.7,0.7,0.9,1.2c0.2,0.5,0.3,1,0.3,1.6c0,0.8-0.2,1.4-0.5,2
			c-0.3,0.6-0.8,1-1.4,1.4c-0.6,0.4-1.2,0.7-2,0.8c-0.7,0.2-1.5,0.3-2.3,0.3C333.8,71.5,332.4,71.2,331.2,70.6z"/>
		<path d="M357.8,64h-10.9c0,1.7,0.5,3.1,1.4,4s2.1,1.4,3.7,1.4c1.7,0,3.4-0.6,4.8-1.7V70c-1.4,1-3.2,1.5-5.4,1.5
			c-2.2,0-3.9-0.7-5.2-2.1c-1.3-1.4-1.9-3.4-1.9-5.9c0-2.4,0.7-4.4,2.1-5.9c1.4-1.5,3.1-2.3,5.1-2.3s3.6,0.7,4.7,2
			c1.1,1.3,1.7,3.1,1.7,5.5V64z M355.2,61.9c0-1.4-0.4-2.5-1-3.3c-0.7-0.8-1.6-1.2-2.8-1.2c-1.2,0-2.2,0.4-3,1.3
			c-0.8,0.8-1.3,1.9-1.5,3.3H355.2z"/>
		<path d="M23.7,108.3h-2.5v-2.6h-0.1c-1.2,2-2.9,3-5.3,3c-1.9,0-3.5-0.7-4.7-2.1c-1.2-1.4-1.7-3.3-1.7-5.7c0-2.6,0.6-4.6,1.9-6.2
			c1.3-1.5,3-2.3,5.2-2.3c2.1,0,3.7,0.8,4.6,2.5h0.1v-9.6h2.5V108.3z M21.3,101.3v-2.3c0-1.3-0.4-2.3-1.2-3.2
			c-0.8-0.9-1.9-1.3-3.1-1.3c-1.5,0-2.7,0.6-3.6,1.7c-0.9,1.1-1.3,2.6-1.3,4.6c0,1.8,0.4,3.2,1.2,4.2c0.8,1,1.9,1.6,3.4,1.6
			c1.4,0,2.5-0.5,3.4-1.5C20.8,104.1,21.3,102.9,21.3,101.3z"/>
		<path d="M41.2,101.2H30.3c0,1.7,0.5,3.1,1.4,4c0.9,0.9,2.1,1.4,3.7,1.4c1.7,0,3.4-0.6,4.8-1.7v2.3c-1.4,1-3.2,1.5-5.4,1.5
			c-2.2,0-3.9-0.7-5.2-2.1c-1.3-1.4-1.9-3.4-1.9-5.9c0-2.4,0.7-4.4,2.1-5.9c1.4-1.5,3.1-2.3,5.1-2.3s3.6,0.7,4.7,2
			c1.1,1.3,1.7,3.1,1.7,5.5V101.2z M38.7,99.1c0-1.4-0.4-2.5-1-3.3C37,95,36,94.6,34.8,94.6c-1.2,0-2.2,0.4-3,1.3
			c-0.8,0.8-1.3,1.9-1.5,3.3H38.7z"/>
		<path d="M57.8,108.3h-2.5v-8.8c0-3.3-1.2-4.9-3.6-4.9c-1.2,0-2.3,0.5-3.1,1.4c-0.8,0.9-1.2,2.1-1.2,3.5v8.8H45V92.8h2.5v2.6h0.1
			c1.2-2,2.9-2.9,5.1-2.9c1.7,0,3,0.5,3.9,1.6c0.9,1.1,1.3,2.7,1.3,4.7V108.3z"/>
		<path d="M69,108.7c-2.3,0-4.1-0.7-5.5-2.2c-1.4-1.4-2.1-3.4-2.1-5.8c0-2.6,0.7-4.6,2.1-6.1c1.4-1.5,3.3-2.2,5.8-2.2
			c2.3,0,4.1,0.7,5.4,2.1c1.3,1.4,1.9,3.4,1.9,5.9c0,2.5-0.7,4.5-2.1,5.9C73.2,108,71.4,108.7,69,108.7z M69.2,94.6
			c-1.6,0-2.9,0.5-3.8,1.6c-0.9,1.1-1.4,2.6-1.4,4.5c0,1.8,0.5,3.3,1.4,4.3s2.2,1.6,3.8,1.6c1.6,0,2.8-0.5,3.7-1.6
			c0.9-1,1.3-2.5,1.3-4.4c0-1.9-0.4-3.4-1.3-4.5C72,95.1,70.8,94.6,69.2,94.6z"/>
		<path d="M87.9,108.2c-0.6,0.3-1.4,0.5-2.3,0.5c-2.7,0-4.1-1.5-4.1-4.5V95h-2.7v-2.1h2.7v-3.8l2.5-0.8v4.6h3.9V95H84v8.7
			c0,1,0.2,1.8,0.5,2.2c0.4,0.4,0.9,0.7,1.8,0.7c0.6,0,1.2-0.2,1.6-0.5V108.2z"/>
		<path d="M102.3,108.3h-2.5v-2.4h-0.1c-1.1,1.9-2.7,2.8-4.8,2.8c-1.5,0-2.8-0.4-3.6-1.2c-0.9-0.8-1.3-1.9-1.3-3.3
			c0-2.9,1.7-4.6,5.1-5.1l4.6-0.7c0-2.6-1.1-4-3.2-4c-1.9,0-3.6,0.6-5.1,1.9v-2.5c1.5-1,3.3-1.5,5.3-1.5c3.6,0,5.5,1.9,5.5,5.8
			V108.3z M99.8,100.5l-3.7,0.5c-1.2,0.2-2,0.4-2.6,0.9c-0.6,0.4-0.9,1.1-0.9,2.2c0,0.8,0.3,1.4,0.8,1.9c0.5,0.5,1.3,0.7,2.2,0.7
			c1.2,0,2.2-0.4,3-1.3c0.8-0.9,1.2-2,1.2-3.3V100.5z"/>
		<path d="M145.4,107.6c-1.2,0.7-2.6,1.1-4.2,1.1c-2.2,0-4-0.7-5.4-2.2c-1.4-1.4-2-3.3-2-5.6c0-2.6,0.7-4.6,2.2-6.2
			c1.5-1.5,3.4-2.3,5.9-2.3c1.4,0,2.6,0.3,3.6,0.8v2.5c-1.2-0.8-2.4-1.2-3.7-1.2c-1.6,0-2.9,0.6-3.9,1.7c-1,1.1-1.5,2.6-1.5,4.5
			c0,1.8,0.5,3.2,1.4,4.3c1,1,2.2,1.6,3.8,1.6c1.4,0,2.6-0.4,3.8-1.3V107.6z"/>
		<path d="M155.6,108.7c-2.3,0-4.1-0.7-5.5-2.2c-1.4-1.4-2.1-3.4-2.1-5.8c0-2.6,0.7-4.6,2.1-6.1c1.4-1.5,3.3-2.2,5.8-2.2
			c2.3,0,4.1,0.7,5.4,2.1c1.3,1.4,1.9,3.4,1.9,5.9c0,2.5-0.7,4.5-2.1,5.9C159.9,108,158,108.7,155.6,108.7z M155.8,94.6
			c-1.6,0-2.9,0.5-3.8,1.6c-0.9,1.1-1.4,2.6-1.4,4.5c0,1.8,0.5,3.3,1.4,4.3s2.2,1.6,3.8,1.6c1.6,0,2.8-0.5,3.7-1.6
			c0.9-1,1.3-2.5,1.3-4.4c0-1.9-0.4-3.4-1.3-4.5C158.7,95.1,157.4,94.6,155.8,94.6z"/>
		<path d="M189.3,108.3h-2.5v-8.9c0-1.7-0.3-3-0.8-3.7c-0.5-0.8-1.4-1.2-2.7-1.2c-1.1,0-2,0.5-2.7,1.5c-0.7,1-1.1,2.1-1.1,3.5v8.8
			h-2.5v-9.2c0-3-1.2-4.6-3.5-4.6c-1.1,0-2,0.5-2.7,1.4c-0.7,0.9-1.1,2.1-1.1,3.6v8.8h-2.5V92.8h2.5v2.5h0.1
			c1.1-1.9,2.7-2.8,4.8-2.8c1.1,0,2,0.3,2.8,0.9c0.8,0.6,1.3,1.4,1.6,2.3c1.2-2.1,2.9-3.2,5.1-3.2c3.4,0,5.1,2.1,5.1,6.3V108.3z"/>
		<path d="M200.5,108.7c-2.3,0-4.1-0.7-5.5-2.2c-1.4-1.4-2.1-3.4-2.1-5.8c0-2.6,0.7-4.6,2.1-6.1c1.4-1.5,3.3-2.2,5.8-2.2
			c2.3,0,4.1,0.7,5.4,2.1s1.9,3.4,1.9,5.9c0,2.5-0.7,4.5-2.1,5.9C204.7,108,202.9,108.7,200.5,108.7z M200.7,94.6
			c-1.6,0-2.9,0.5-3.8,1.6c-0.9,1.1-1.4,2.6-1.4,4.5c0,1.8,0.5,3.3,1.4,4.3c0.9,1.1,2.2,1.6,3.8,1.6c1.6,0,2.8-0.5,3.7-1.6
			c0.9-1,1.3-2.5,1.3-4.4c0-1.9-0.4-3.4-1.3-4.5C203.5,95.1,202.3,94.6,200.7,94.6z"/>
		<path d="M257.2,108.3h-2.8l-2.3-6.1h-9.2l-2.2,6.1h-2.8l8.3-21.7h2.6L257.2,108.3z M251.3,100l-3.4-9.2c-0.1-0.3-0.2-0.8-0.3-1.5
			h-0.1c-0.1,0.6-0.2,1.1-0.3,1.5l-3.4,9.2H251.3z"/>
		<path d="M260.9,100.6c-0.5,0-0.9-0.2-1.2-0.5c-0.3-0.3-0.5-0.7-0.5-1.2c0-0.5,0.2-0.9,0.5-1.2c0.3-0.3,0.7-0.5,1.2-0.5
			c0.5,0,0.9,0.2,1.2,0.5c0.3,0.3,0.5,0.7,0.5,1.2c0,0.5-0.2,0.9-0.5,1.2C261.8,100.5,261.4,100.6,260.9,100.6z"/>
		<path d="M267.1,108.3V86.6h6.2c1.9,0,3.4,0.5,4.5,1.4c1.1,0.9,1.7,2.1,1.7,3.6c0,1.2-0.3,2.3-1,3.2s-1.6,1.6-2.8,1.9v0.1
			c1.5,0.2,2.6,0.7,3.5,1.7c0.9,0.9,1.3,2.1,1.3,3.6c0,1.9-0.7,3.4-2,4.5s-3,1.7-5,1.7H267.1z M269.7,88.9v7h2.6
			c1.4,0,2.5-0.3,3.3-1c0.8-0.7,1.2-1.6,1.2-2.8c0-2.1-1.4-3.2-4.2-3.2H269.7z M269.7,98.2v7.8h3.5c1.5,0,2.7-0.4,3.5-1.1
			c0.8-0.7,1.2-1.7,1.2-2.9c0-2.6-1.7-3.8-5.2-3.8H269.7z"/>
		<path d="M355.5,97.1h-14.2v-2h14.2V97.1z M355.5,103.5h-14.2v-2h14.2V103.5z"/>
		<path d="M27.6,145.5h-2.8l-2.3-6.1h-9.2l-2.2,6.1H8.3l8.3-21.7h2.6L27.6,145.5z M21.7,137.2l-3.4-9.2c-0.1-0.3-0.2-0.8-0.3-1.5
			h-0.1c-0.1,0.6-0.2,1.1-0.3,1.5l-3.4,9.2H21.7z"/>
		<path d="M35.6,145.5v-0.9c1.3-0.2,1.6-0.4,1.1-1.2l-2.3-3.6c-0.7,1.1-1.4,2.2-2,3.3c-0.6,1.1-0.5,1.3,1.1,1.6v0.9h-5.9v-0.9
			c2-0.2,2.4-0.5,3.5-2c0.9-1.2,1.7-2.4,2.6-3.8l-2.7-4.2c-0.9-1.5-1.3-1.7-3-1.9v-0.8h6.2v0.8c-1.3,0.2-1.4,0.4-0.9,1.3l1.9,2.8
			c0.6-0.9,1.2-2,1.8-2.9c0.5-0.9,0.3-1.1-1-1.3v-0.8h5.6v0.8c-1.7,0.2-2.3,0.3-3.6,1.9c-0.4,0.6-1.2,1.6-2.2,3.2l3,4.6
			c1.2,1.7,1.5,2,3.4,2.2v0.9H35.6z"/>
		<path d="M44.5,145.5v-21.7h6.2c1.9,0,3.4,0.5,4.5,1.4c1.1,0.9,1.6,2.1,1.6,3.6c0,1.2-0.3,2.3-1,3.2s-1.6,1.6-2.8,1.9v0.1
			c1.5,0.2,2.6,0.7,3.5,1.7c0.9,0.9,1.3,2.1,1.3,3.6c0,1.9-0.7,3.4-2,4.5s-3,1.7-5,1.7H44.5z M47,126.1v7h2.6c1.4,0,2.5-0.3,3.3-1
			c0.8-0.7,1.2-1.6,1.2-2.8c0-2.1-1.4-3.2-4.2-3.2H47z M47,135.4v7.8h3.5c1.5,0,2.7-0.4,3.5-1.1c0.8-0.7,1.2-1.7,1.2-2.9
			c0-2.6-1.7-3.8-5.2-3.8H47z"/>
		<path d="M67,145.5v-0.9c1.3-0.2,1.6-0.4,1.1-1.2l-2.3-3.6c-0.7,1.1-1.4,2.2-2,3.3c-0.6,1.1-0.5,1.3,1.1,1.6v0.9H59v-0.9
			c2-0.2,2.4-0.5,3.5-2c0.9-1.2,1.7-2.4,2.6-3.8l-2.7-4.2c-0.9-1.5-1.3-1.7-3-1.9v-0.8h6.2v0.8c-1.3,0.2-1.4,0.4-0.9,1.3l1.9,2.8
			c0.6-0.9,1.2-2,1.8-2.9c0.5-0.9,0.3-1.1-1-1.3v-0.8H73v0.8c-1.7,0.2-2.3,0.3-3.6,1.9c-0.4,0.6-1.2,1.6-2.2,3.2l3,4.6
			c1.2,1.7,1.5,2,3.4,2.2v0.9H67z"/>
		<path d="M90.7,137.5h-6.1v6.1h-2v-6.1h-6.1v-2h6.1v-6.1h2v6.1h6.1V137.5z"/>
		<path d="M113.8,145.5H111l-2.3-6.1h-9.2l-2.2,6.1h-2.8l8.3-21.7h2.6L113.8,145.5z M107.9,137.2l-3.4-9.2c-0.1-0.3-0.2-0.8-0.3-1.5
			h-0.1c-0.1,0.6-0.2,1.1-0.3,1.5l-3.4,9.2H107.9z"/>
		<path d="M128.8,132.8c-1.6,0.2-2,0.5-2.7,2.3c-0.8,1.7-1.6,3.8-3.8,9.2c-2,5-2.6,6.9-3.1,8.5c-0.2,0.7-0.5,0.8-0.9,0.8
			c-1,0-1.9-0.7-1.9-1.5c0-0.4,0.2-0.7,0.7-1.1c1-0.8,1.7-1.5,2.1-2.3c0.7-1.3,1.1-2.4,1.3-2.8c0.1-0.5,0.1-0.7-0.1-1.3
			c-1.2-3.5-2.9-7.3-3.8-9.6c-0.7-1.7-1-2.1-2.7-2.3v-0.8h6.3v0.8c-1.4,0.2-1.6,0.5-1.2,1.7l3,7.6c0.9-2.1,2.1-5.6,2.8-7.5
			c0.4-1.2,0.2-1.5-1.6-1.8v-0.8h5.7V132.8z"/>
		<path d="M131,145.5v-21.7h6.2c1.9,0,3.4,0.5,4.5,1.4c1.1,0.9,1.6,2.1,1.6,3.6c0,1.2-0.3,2.3-1,3.2s-1.6,1.6-2.8,1.9v0.1
			c1.5,0.2,2.6,0.7,3.5,1.7c0.9,0.9,1.3,2.1,1.3,3.6c0,1.9-0.7,3.4-2,4.5s-3,1.7-5,1.7H131z M133.5,126.1v7h2.6c1.4,0,2.5-0.3,3.3-1
			c0.8-0.7,1.2-1.6,1.2-2.8c0-2.1-1.4-3.2-4.2-3.2H133.5z M133.5,135.4v7.8h3.5c1.5,0,2.7-0.4,3.5-1.1c0.8-0.7,1.2-1.7,1.2-2.9
			c0-2.6-1.7-3.8-5.2-3.8H133.5z"/>
		<path d="M160.5,132.8c-1.6,0.2-2,0.5-2.7,2.3c-0.8,1.7-1.6,3.8-3.8,9.2c-2,5-2.6,6.9-3.1,8.5c-0.2,0.7-0.5,0.8-0.9,0.8
			c-1,0-1.9-0.7-1.9-1.5c0-0.4,0.2-0.7,0.7-1.1c1-0.8,1.7-1.5,2.1-2.3c0.7-1.3,1.1-2.4,1.3-2.8c0.1-0.5,0.1-0.7-0.1-1.3
			c-1.2-3.5-2.9-7.3-3.8-9.6c-0.7-1.7-1-2.1-2.7-2.3v-0.8h6.3v0.8c-1.4,0.2-1.6,0.5-1.2,1.7l3,7.6c0.9-2.1,2.1-5.6,2.8-7.5
			c0.4-1.2,0.2-1.5-1.6-1.8v-0.8h5.7V132.8z"/>
		<path d="M227.1,134.3h-14.2v-2h14.2V134.3z M227.1,140.7h-14.2v-2h14.2V140.7z"/>
		<path d="M250.2,145.5h-2.8l-2.3-6.1h-9.2l-2.2,6.1h-2.8l8.3-21.7h2.6L250.2,145.5z M244.2,137.2l-3.4-9.2
			c-0.1-0.3-0.2-0.8-0.3-1.5h-0.1c-0.1,0.6-0.2,1.1-0.3,1.5l-3.4,9.2H244.2z"/>
		<path d="M253.4,145.5v-21.7h6.2c1.9,0,3.4,0.5,4.5,1.4c1.1,0.9,1.7,2.1,1.7,3.6c0,1.2-0.3,2.3-1,3.2s-1.6,1.6-2.8,1.9v0.1
			c1.5,0.2,2.6,0.7,3.5,1.7c0.9,0.9,1.3,2.1,1.3,3.6c0,1.9-0.7,3.4-2,4.5s-3,1.7-5,1.7H253.4z M255.9,126.1v7h2.6
			c1.4,0,2.5-0.3,3.3-1c0.8-0.7,1.2-1.6,1.2-2.8c0-2.1-1.4-3.2-4.2-3.2H255.9z M255.9,135.4v7.8h3.5c1.5,0,2.7-0.4,3.5-1.1
			c0.8-0.7,1.2-1.7,1.2-2.9c0-2.6-1.7-3.8-5.2-3.8H255.9z"/>
		<path d="M281.4,144.8c-1.2,0.7-2.6,1.1-4.2,1.1c-2.2,0-4-0.7-5.4-2.2c-1.4-1.4-2-3.3-2-5.6c0-2.6,0.7-4.6,2.2-6.2
			c1.5-1.5,3.4-2.3,5.9-2.3c1.4,0,2.6,0.3,3.6,0.8v2.5c-1.2-0.8-2.4-1.2-3.7-1.2c-1.6,0-2.9,0.6-3.9,1.7c-1,1.1-1.5,2.6-1.5,4.5
			c0,1.8,0.5,3.2,1.4,4.3c1,1,2.2,1.6,3.8,1.6c1.4,0,2.6-0.4,3.8-1.3V144.8z"/>
		<path d="M291.6,145.9c-2.3,0-4.1-0.7-5.5-2.2c-1.4-1.4-2.1-3.4-2.1-5.8c0-2.6,0.7-4.6,2.1-6.1c1.4-1.5,3.3-2.2,5.8-2.2
			c2.3,0,4.1,0.7,5.4,2.1s1.9,3.4,1.9,5.9c0,2.5-0.7,4.5-2.1,5.9C295.8,145.2,294,145.9,291.6,145.9z M291.8,131.8
			c-1.6,0-2.9,0.5-3.8,1.6c-0.9,1.1-1.4,2.6-1.4,4.5c0,1.8,0.5,3.3,1.4,4.3c0.9,1.1,2.2,1.6,3.8,1.6c1.6,0,2.8-0.5,3.7-1.6
			c0.9-1,1.3-2.5,1.3-4.4c0-1.9-0.4-3.4-1.3-4.5C294.6,132.3,293.4,131.8,291.8,131.8z"/>
		<path d="M302.4,145v-2.7c1.4,1,2.8,1.5,4.5,1.5c2.2,0,3.3-0.7,3.3-2.2c0-0.4-0.1-0.8-0.3-1.1c-0.2-0.3-0.4-0.5-0.8-0.8
			c-0.3-0.2-0.7-0.4-1.1-0.6c-0.4-0.2-0.9-0.4-1.4-0.6c-0.7-0.3-1.3-0.5-1.8-0.8c-0.5-0.3-1-0.6-1.3-0.9c-0.3-0.3-0.6-0.7-0.8-1.2
			c-0.2-0.4-0.3-1-0.3-1.6c0-0.7,0.2-1.4,0.5-1.9c0.3-0.6,0.8-1,1.3-1.4c0.6-0.4,1.2-0.7,1.9-0.9c0.7-0.2,1.4-0.3,2.2-0.3
			c1.3,0,2.5,0.2,3.6,0.7v2.5c-1.1-0.7-2.5-1.1-3.9-1.1c-0.5,0-0.9,0.1-1.3,0.2c-0.4,0.1-0.7,0.3-1,0.4c-0.3,0.2-0.5,0.4-0.6,0.7
			c-0.1,0.3-0.2,0.6-0.2,0.9c0,0.4,0.1,0.7,0.2,1c0.1,0.3,0.4,0.5,0.6,0.7c0.3,0.2,0.6,0.4,1,0.6c0.4,0.2,0.9,0.4,1.4,0.6
			c0.7,0.3,1.3,0.5,1.8,0.8c0.5,0.3,1,0.6,1.4,0.9c0.4,0.3,0.7,0.7,0.9,1.2c0.2,0.5,0.3,1,0.3,1.6c0,0.8-0.2,1.4-0.5,2
			c-0.3,0.6-0.8,1-1.4,1.4c-0.6,0.4-1.2,0.7-2,0.8c-0.7,0.2-1.5,0.3-2.3,0.3C304.9,145.9,303.5,145.6,302.4,145z"/>
		<path d="M357.1,142.1l-2.4,7.4h-1.8l1.8-7.4H357.1z"/>
		<path d="M23.7,182.7h-2.5v-2.6h-0.1c-1.2,2-2.9,3-5.3,3c-1.9,0-3.5-0.7-4.7-2.1c-1.2-1.4-1.7-3.3-1.7-5.7c0-2.6,0.6-4.6,1.9-6.2
			c1.3-1.5,3-2.3,5.2-2.3c2.1,0,3.7,0.8,4.6,2.5h0.1v-9.6h2.5V182.7z M21.3,175.7v-2.3c0-1.3-0.4-2.3-1.2-3.2
			c-0.8-0.9-1.9-1.3-3.1-1.3c-1.5,0-2.7,0.6-3.6,1.7c-0.9,1.1-1.3,2.6-1.3,4.6c0,1.8,0.4,3.2,1.2,4.2c0.8,1,1.9,1.6,3.4,1.6
			c1.4,0,2.5-0.5,3.4-1.5C20.8,178.5,21.3,177.3,21.3,175.7z"/>
		<path d="M41.2,175.6H30.3c0,1.7,0.5,3.1,1.4,4c0.9,0.9,2.1,1.4,3.7,1.4c1.7,0,3.4-0.6,4.8-1.7v2.3c-1.4,1-3.2,1.5-5.4,1.5
			c-2.2,0-3.9-0.7-5.2-2.1c-1.3-1.4-1.9-3.4-1.9-5.9c0-2.4,0.7-4.4,2.1-5.9c1.4-1.5,3.1-2.3,5.1-2.3s3.6,0.7,4.7,2
			c1.1,1.3,1.7,3.1,1.7,5.5V175.6z M38.7,173.5c0-1.4-0.4-2.5-1-3.3c-0.7-0.8-1.6-1.2-2.8-1.2c-1.2,0-2.2,0.4-3,1.3
			c-0.8,0.8-1.3,1.9-1.5,3.3H38.7z"/>
		<path d="M47.5,180.5L47.5,180.5l-0.1,2.2H45v-22.9h2.5V170h0.1c1.2-2.1,3-3.1,5.4-3.1c2,0,3.5,0.7,4.7,2.1
			c1.1,1.4,1.7,3.2,1.7,5.6c0,2.6-0.6,4.7-1.9,6.2c-1.3,1.6-3,2.3-5.2,2.3C50.1,183.1,48.6,182.2,47.5,180.5z M47.5,174.3v2.2
			c0,1.3,0.4,2.4,1.2,3.3c0.8,0.9,1.9,1.3,3.2,1.3c1.5,0,2.7-0.6,3.5-1.7c0.9-1.2,1.3-2.7,1.3-4.8c0-1.7-0.4-3.1-1.2-4.1
			c-0.8-1-1.9-1.5-3.2-1.5c-1.4,0-2.6,0.5-3.5,1.5C47.9,171.5,47.5,172.7,47.5,174.3z"/>
		<path d="M64.5,163.3c-0.4,0-0.8-0.2-1.1-0.5c-0.3-0.3-0.5-0.7-0.5-1.2c0-0.5,0.2-0.9,0.5-1.2c0.3-0.3,0.7-0.5,1.1-0.5
			c0.5,0,0.8,0.2,1.2,0.5c0.3,0.3,0.5,0.7,0.5,1.2c0,0.4-0.2,0.8-0.5,1.1C65.3,163.2,64.9,163.3,64.5,163.3z M65.7,182.7h-2.5v-15.5
			h2.5V182.7z"/>
		<path d="M83.9,182.7h-2.5v-2.6h-0.1c-1.2,2-2.9,3-5.3,3c-1.9,0-3.5-0.7-4.7-2.1c-1.2-1.4-1.7-3.3-1.7-5.7c0-2.6,0.6-4.6,1.9-6.2
			c1.3-1.5,3-2.3,5.2-2.3c2.1,0,3.7,0.8,4.6,2.5h0.1v-9.6h2.5V182.7z M81.5,175.7v-2.3c0-1.3-0.4-2.3-1.2-3.2
			c-0.8-0.9-1.9-1.3-3.1-1.3c-1.5,0-2.7,0.6-3.6,1.7c-0.9,1.1-1.3,2.6-1.3,4.6c0,1.8,0.4,3.2,1.2,4.2c0.8,1,1.9,1.6,3.4,1.6
			c1.4,0,2.5-0.5,3.4-1.5C81,178.5,81.5,177.3,81.5,175.7z"/>
		<path d="M95.4,183.1c-2.3,0-4.1-0.7-5.5-2.2c-1.4-1.4-2.1-3.4-2.1-5.8c0-2.6,0.7-4.6,2.1-6.1c1.4-1.5,3.3-2.2,5.8-2.2
			c2.3,0,4.1,0.7,5.4,2.1c1.3,1.4,1.9,3.4,1.9,5.9c0,2.5-0.7,4.5-2.1,5.9C99.7,182.4,97.8,183.1,95.4,183.1z M95.6,169
			c-1.6,0-2.9,0.5-3.8,1.6c-0.9,1.1-1.4,2.6-1.4,4.5c0,1.8,0.5,3.3,1.4,4.3s2.2,1.6,3.8,1.6c1.6,0,2.8-0.5,3.7-1.6
			c0.9-1,1.3-2.5,1.3-4.4c0-1.9-0.4-3.4-1.3-4.5C98.5,169.5,97.2,169,95.6,169z"/>
		<path d="M126.5,182.7H124v-2.4h-0.1c-1.1,1.9-2.7,2.8-4.8,2.8c-1.5,0-2.8-0.4-3.6-1.2c-0.9-0.8-1.3-1.9-1.3-3.3
			c0-2.9,1.7-4.6,5.1-5.1l4.6-0.7c0-2.6-1.1-4-3.2-4c-1.9,0-3.6,0.6-5.1,1.9v-2.5c1.5-1,3.3-1.5,5.3-1.5c3.6,0,5.5,1.9,5.5,5.8
			V182.7z M124,174.9l-3.7,0.5c-1.2,0.2-2,0.4-2.6,0.9c-0.6,0.4-0.9,1.1-0.9,2.2c0,0.8,0.3,1.4,0.8,1.9c0.5,0.5,1.3,0.7,2.2,0.7
			c1.2,0,2.2-0.4,3-1.3c0.8-0.9,1.2-2,1.2-3.3V174.9z"/>
		<path d="M151.9,175.6h-10.9c0,1.7,0.5,3.1,1.4,4c0.9,0.9,2.1,1.4,3.7,1.4c1.7,0,3.4-0.6,4.8-1.7v2.3c-1.4,1-3.2,1.5-5.4,1.5
			c-2.2,0-3.9-0.7-5.2-2.1c-1.3-1.4-1.9-3.4-1.9-5.9c0-2.4,0.7-4.4,2.1-5.9c1.4-1.5,3.1-2.3,5.1-2.3s3.6,0.7,4.7,2
			c1.1,1.3,1.7,3.1,1.7,5.5V175.6z M149.3,173.5c0-1.4-0.4-2.5-1-3.3c-0.7-0.8-1.6-1.2-2.8-1.2c-1.2,0-2.2,0.4-3,1.3
			c-0.8,0.8-1.3,1.9-1.5,3.3H149.3z"/>
		<path d="M154.7,182.2v-2.7c1.4,1,2.8,1.5,4.5,1.5c2.2,0,3.3-0.7,3.3-2.2c0-0.4-0.1-0.8-0.3-1.1c-0.2-0.3-0.4-0.5-0.8-0.8
			c-0.3-0.2-0.7-0.4-1.1-0.6c-0.4-0.2-0.9-0.4-1.4-0.6c-0.7-0.3-1.3-0.5-1.8-0.8c-0.5-0.3-1-0.6-1.3-0.9c-0.3-0.3-0.6-0.7-0.8-1.2
			c-0.2-0.4-0.3-1-0.3-1.6c0-0.7,0.2-1.4,0.5-1.9c0.3-0.6,0.8-1,1.3-1.4c0.6-0.4,1.2-0.7,1.9-0.9c0.7-0.2,1.4-0.3,2.2-0.3
			c1.3,0,2.5,0.2,3.6,0.7v2.5c-1.1-0.7-2.5-1.1-3.9-1.1c-0.5,0-0.9,0.1-1.3,0.2c-0.4,0.1-0.7,0.3-1,0.4c-0.3,0.2-0.5,0.4-0.6,0.7
			c-0.1,0.3-0.2,0.6-0.2,0.9c0,0.4,0.1,0.7,0.2,1c0.1,0.3,0.4,0.5,0.6,0.7c0.3,0.2,0.6,0.4,1,0.6c0.4,0.2,0.9,0.4,1.4,0.6
			c0.7,0.3,1.3,0.5,1.8,0.8c0.5,0.3,1,0.6,1.4,0.9c0.4,0.3,0.7,0.7,0.9,1.2c0.2,0.5,0.3,1,0.3,1.6c0,0.8-0.2,1.4-0.5,2
			c-0.3,0.6-0.8,1-1.4,1.4c-0.6,0.4-1.2,0.7-2,0.8c-0.7,0.2-1.5,0.3-2.3,0.3C157.2,183.1,155.9,182.8,154.7,182.2z"/>
		<path d="M176,182.6c-0.6,0.3-1.4,0.5-2.3,0.5c-2.7,0-4.1-1.5-4.1-4.5v-9.2h-2.7v-2.1h2.7v-3.8l2.5-0.8v4.6h3.9v2.1h-3.9v8.7
			c0,1,0.2,1.8,0.5,2.2c0.4,0.4,0.9,0.7,1.8,0.7c0.6,0,1.2-0.2,1.6-0.5V182.6z"/>
		<path d="M190.4,182.7h-2.5v-2.4h-0.1c-1.1,1.9-2.7,2.8-4.8,2.8c-1.5,0-2.8-0.4-3.6-1.2c-0.9-0.8-1.3-1.9-1.3-3.3
			c0-2.9,1.7-4.6,5.1-5.1l4.6-0.7c0-2.6-1.1-4-3.2-4c-1.9,0-3.6,0.6-5.1,1.9v-2.5c1.5-1,3.3-1.5,5.3-1.5c3.6,0,5.5,1.9,5.5,5.8
			V182.7z M187.9,174.9l-3.7,0.5c-1.1,0.2-2,0.4-2.6,0.9c-0.6,0.4-0.9,1.1-0.9,2.2c0,0.8,0.3,1.4,0.8,1.9c0.5,0.5,1.3,0.7,2.2,0.7
			c1.2,0,2.2-0.4,3-1.3c0.8-0.9,1.2-2,1.2-3.3V174.9z"/>
		<path d="M216.2,182.7h-2.5v-8.8c0-3.3-1.2-4.9-3.6-4.9c-1.2,0-2.3,0.5-3.1,1.4c-0.8,0.9-1.2,2.1-1.2,3.5v8.8h-2.5v-15.5h2.5v2.6
			h0.1c1.2-2,2.9-2.9,5.1-2.9c1.7,0,3,0.5,3.9,1.6c0.9,1.1,1.3,2.7,1.3,4.7V182.7z"/>
		<path d="M227.3,183.1c-2.3,0-4.1-0.7-5.5-2.2c-1.4-1.4-2.1-3.4-2.1-5.8c0-2.6,0.7-4.6,2.1-6.1c1.4-1.5,3.3-2.2,5.8-2.2
			c2.3,0,4.1,0.7,5.4,2.1s1.9,3.4,1.9,5.9c0,2.5-0.7,4.5-2.1,5.9C231.5,182.4,229.7,183.1,227.3,183.1z M227.5,169
			c-1.6,0-2.9,0.5-3.8,1.6c-0.9,1.1-1.4,2.6-1.4,4.5c0,1.8,0.5,3.3,1.4,4.3c0.9,1.1,2.2,1.6,3.8,1.6c1.6,0,2.8-0.5,3.7-1.6
			c0.9-1,1.3-2.5,1.3-4.4c0-1.9-0.4-3.4-1.3-4.5C230.3,169.5,229.1,169,227.5,169z"/>
		<path d="M246.2,182.6c-0.6,0.3-1.4,0.5-2.3,0.5c-2.7,0-4.1-1.5-4.1-4.5v-9.2h-2.7v-2.1h2.7v-3.8l2.5-0.8v4.6h3.9v2.1h-3.9v8.7
			c0,1,0.2,1.8,0.5,2.2c0.4,0.4,0.9,0.7,1.8,0.7c0.6,0,1.2-0.2,1.6-0.5V182.6z"/>
		<path d="M260.6,182.7h-2.5v-2.4h-0.1c-1.1,1.9-2.7,2.8-4.8,2.8c-1.5,0-2.8-0.4-3.6-1.2c-0.9-0.8-1.3-1.9-1.3-3.3
			c0-2.9,1.7-4.6,5.1-5.1l4.6-0.7c0-2.6-1.1-4-3.2-4c-1.9,0-3.6,0.6-5.1,1.9v-2.5c1.5-1,3.3-1.5,5.3-1.5c3.6,0,5.5,1.9,5.5,5.8
			V182.7z M258.1,174.9l-3.7,0.5c-1.2,0.2-2,0.4-2.6,0.9c-0.6,0.4-0.9,1.1-0.9,2.2c0,0.8,0.3,1.4,0.8,1.9c0.5,0.5,1.3,0.7,2.2,0.7
			c1.2,0,2.2-0.4,3-1.3c0.8-0.9,1.2-2,1.2-3.3V174.9z"/>
		<path d="M275.9,182c-1.2,0.7-2.6,1.1-4.2,1.1c-2.2,0-4-0.7-5.4-2.2c-1.4-1.4-2-3.3-2-5.6c0-2.6,0.7-4.6,2.2-6.2
			c1.5-1.5,3.4-2.3,5.9-2.3c1.4,0,2.6,0.3,3.6,0.8v2.5c-1.2-0.8-2.4-1.2-3.7-1.2c-1.6,0-2.9,0.6-3.9,1.7c-1,1.1-1.5,2.6-1.5,4.5
			c0,1.8,0.5,3.2,1.4,4.3c1,1,2.2,1.6,3.8,1.6c1.4,0,2.6-0.4,3.8-1.3V182z"/>
		<path d="M280.9,163.3c-0.4,0-0.8-0.2-1.1-0.5c-0.3-0.3-0.5-0.7-0.5-1.2c0-0.5,0.2-0.9,0.5-1.2c0.3-0.3,0.7-0.5,1.1-0.5
			c0.5,0,0.8,0.2,1.2,0.5c0.3,0.3,0.5,0.7,0.5,1.2c0,0.4-0.2,0.8-0.5,1.1C281.7,163.2,281.3,163.3,280.9,163.3z M282.1,182.7h-2.5
			v-15.5h2.5V182.7z"/>
		<path d="M293.6,183.1c-2.3,0-4.1-0.7-5.5-2.2c-1.4-1.4-2.1-3.4-2.1-5.8c0-2.6,0.7-4.6,2.1-6.1c1.4-1.5,3.3-2.2,5.8-2.2
			c2.3,0,4.1,0.7,5.4,2.1s1.9,3.4,1.9,5.9c0,2.5-0.7,4.5-2.1,5.9C297.8,182.4,295.9,183.1,293.6,183.1z M293.8,169
			c-1.6,0-2.9,0.5-3.8,1.6c-0.9,1.1-1.4,2.6-1.4,4.5c0,1.8,0.5,3.3,1.4,4.3c0.9,1.1,2.2,1.6,3.8,1.6c1.6,0,2.8-0.5,3.7-1.6
			c0.9-1,1.3-2.5,1.3-4.4c0-1.9-0.4-3.4-1.3-4.5C296.6,169.5,295.4,169,293.8,169z M297.4,159.3l-4,5h-1.9l3.4-5H297.4z"/>
		<path d="M318.1,182.7h-2.5v-8.8c0-3.3-1.2-4.9-3.6-4.9c-1.2,0-2.3,0.5-3.1,1.4c-0.8,0.9-1.2,2.1-1.2,3.5v8.8h-2.5v-15.5h2.5v2.6
			h0.1c1.2-2,2.9-2.9,5.1-2.9c1.7,0,3,0.5,3.9,1.6c0.9,1.1,1.3,2.7,1.3,4.7V182.7z"/>
		<path d="M325.1,179.3l-2.4,7.4h-1.8l1.8-7.4H325.1z"/>
		<path d="M350.3,175.6h-10.9c0,1.7,0.5,3.1,1.4,4s2.1,1.4,3.7,1.4c1.7,0,3.4-0.6,4.8-1.7v2.3c-1.4,1-3.2,1.5-5.4,1.5
			c-2.2,0-3.9-0.7-5.2-2.1c-1.3-1.4-1.9-3.4-1.9-5.9c0-2.4,0.7-4.4,2.1-5.9c1.4-1.5,3.1-2.3,5.1-2.3s3.6,0.7,4.7,2
			c1.1,1.3,1.7,3.1,1.7,5.5V175.6z M347.7,173.5c0-1.4-0.4-2.5-1-3.3c-0.7-0.8-1.6-1.2-2.8-1.2c-1.2,0-2.2,0.4-3,1.3
			c-0.8,0.8-1.3,1.9-1.5,3.3H347.7z"/>
		<path d="M356.5,182.7H354v-22.9h2.5V182.7z"/>
		<path d="M13.1,217.7L13.1,217.7l-0.1,9.4h-2.5v-22.6H13v2.7h0.1c1.2-2.1,3-3.1,5.4-3.1c2,0,3.6,0.7,4.7,2.1
			c1.1,1.4,1.7,3.2,1.7,5.6c0,2.6-0.6,4.7-1.9,6.2c-1.3,1.6-3,2.3-5.2,2.3C15.7,220.3,14.1,219.4,13.1,217.7z M13,211.5v2.2
			c0,1.3,0.4,2.4,1.2,3.3c0.8,0.9,1.9,1.3,3.2,1.3c1.5,0,2.7-0.6,3.5-1.7c0.9-1.2,1.3-2.7,1.3-4.8c0-1.7-0.4-3.1-1.2-4.1
			c-0.8-1-1.9-1.5-3.2-1.5c-1.4,0-2.6,0.5-3.5,1.5C13.4,208.7,13,209.9,13,211.5z"/>
		<path d="M36.8,207c-0.4-0.3-1.1-0.5-1.9-0.5c-1.1,0-1.9,0.5-2.7,1.5c-0.7,1-1.1,2.4-1.1,4.1v7.9h-2.5v-15.5h2.5v3.2h0.1
			c0.4-1.1,0.9-1.9,1.6-2.6c0.7-0.6,1.5-0.9,2.4-0.9c0.6,0,1.1,0.1,1.5,0.2V207z"/>
		<path d="M46,220.3c-2.3,0-4.1-0.7-5.5-2.2c-1.4-1.4-2.1-3.4-2.1-5.8c0-2.6,0.7-4.6,2.1-6.1c1.4-1.5,3.3-2.2,5.8-2.2
			c2.3,0,4.1,0.7,5.4,2.1c1.3,1.4,1.9,3.4,1.9,5.9c0,2.5-0.7,4.5-2.1,5.9C50.2,219.6,48.3,220.3,46,220.3z M46.2,206.2
			c-1.6,0-2.9,0.5-3.8,1.6c-0.9,1.1-1.4,2.6-1.4,4.5c0,1.8,0.5,3.3,1.4,4.3s2.2,1.6,3.8,1.6c1.6,0,2.8-0.5,3.7-1.6
			c0.9-1,1.3-2.5,1.3-4.4c0-1.9-0.4-3.4-1.3-4.5C49,206.7,47.8,206.2,46.2,206.2z"/>
		<path d="M70.9,219.9h-2.5v-2.6h-0.1c-1.2,2-2.9,3-5.3,3c-1.9,0-3.5-0.7-4.7-2.1c-1.2-1.4-1.7-3.3-1.7-5.7c0-2.6,0.6-4.6,1.9-6.2
			c1.3-1.5,3-2.3,5.2-2.3c2.1,0,3.7,0.8,4.6,2.5h0.1V197h2.5V219.9z M68.4,212.9v-2.3c0-1.3-0.4-2.3-1.2-3.2
			c-0.8-0.9-1.9-1.3-3.1-1.3c-1.5,0-2.7,0.6-3.6,1.7c-0.9,1.1-1.3,2.6-1.3,4.6c0,1.8,0.4,3.2,1.2,4.2c0.8,1,1.9,1.6,3.4,1.6
			c1.4,0,2.5-0.5,3.4-1.5C68,215.7,68.4,214.5,68.4,212.9z"/>
		<path d="M88.5,219.9H86v-2.5h-0.1c-1,1.9-2.6,2.8-4.8,2.8c-3.7,0-5.5-2.2-5.5-6.6v-9.3h2.5v8.9c0,3.3,1.3,4.9,3.8,4.9
			c1.2,0,2.2-0.4,3-1.3c0.8-0.9,1.2-2.1,1.2-3.5v-8.9h2.5V219.9z"/>
		<path d="M104,219.2c-1.2,0.7-2.6,1.1-4.2,1.1c-2.2,0-4-0.7-5.4-2.2c-1.4-1.4-2-3.3-2-5.6c0-2.6,0.7-4.6,2.2-6.2
			c1.5-1.5,3.4-2.3,5.9-2.3c1.4,0,2.6,0.3,3.6,0.8v2.5c-1.2-0.8-2.4-1.2-3.7-1.2c-1.6,0-2.9,0.6-3.9,1.7c-1,1.1-1.5,2.6-1.5,4.5
			c0,1.8,0.5,3.2,1.4,4.3c1,1,2.2,1.6,3.8,1.6c1.4,0,2.6-0.4,3.8-1.3V219.2z"/>
		<path d="M115,219.8c-0.6,0.3-1.4,0.5-2.3,0.5c-2.7,0-4.1-1.5-4.1-4.5v-9.2h-2.7v-2.1h2.7v-3.8l2.5-0.8v4.6h3.9v2.1h-3.9v8.7
			c0,1,0.2,1.8,0.5,2.2c0.4,0.4,0.9,0.7,1.8,0.7c0.6,0,1.2-0.2,1.6-0.5V219.8z"/>
		<path d="M124.8,220.3c-2.3,0-4.1-0.7-5.5-2.2c-1.4-1.4-2.1-3.4-2.1-5.8c0-2.6,0.7-4.6,2.1-6.1c1.4-1.5,3.3-2.2,5.8-2.2
			c2.3,0,4.1,0.7,5.4,2.1c1.3,1.4,1.9,3.4,1.9,5.9c0,2.5-0.7,4.5-2.1,5.9C129,219.6,127.1,220.3,124.8,220.3z M125,206.2
			c-1.6,0-2.9,0.5-3.8,1.6c-0.9,1.1-1.4,2.6-1.4,4.5c0,1.8,0.5,3.3,1.4,4.3s2.2,1.6,3.8,1.6c1.6,0,2.8-0.5,3.7-1.6
			c0.9-1,1.3-2.5,1.3-4.4c0-1.9-0.4-3.4-1.3-4.5C127.8,206.7,126.6,206.2,125,206.2z"/>
		<path d="M158.5,212.8h-10.9c0,1.7,0.5,3.1,1.4,4c0.9,0.9,2.1,1.4,3.7,1.4c1.7,0,3.4-0.6,4.8-1.7v2.3c-1.4,1-3.2,1.5-5.4,1.5
			c-2.2,0-3.9-0.7-5.2-2.1c-1.3-1.4-1.9-3.4-1.9-5.9c0-2.4,0.7-4.4,2.1-5.9c1.4-1.5,3.1-2.3,5.1-2.3s3.6,0.7,4.7,2
			c1.1,1.3,1.7,3.1,1.7,5.5V212.8z M155.9,210.7c0-1.4-0.4-2.5-1-3.3c-0.7-0.8-1.6-1.2-2.8-1.2c-1.2,0-2.2,0.4-3,1.3
			c-0.8,0.8-1.3,1.9-1.5,3.3H155.9z"/>
		<path d="M161.3,219.4v-2.7c1.4,1,2.8,1.5,4.5,1.5c2.2,0,3.3-0.7,3.3-2.2c0-0.4-0.1-0.8-0.3-1.1c-0.2-0.3-0.4-0.5-0.8-0.8
			c-0.3-0.2-0.7-0.4-1.1-0.6c-0.4-0.2-0.9-0.4-1.4-0.6c-0.7-0.3-1.3-0.5-1.8-0.8c-0.5-0.3-1-0.6-1.3-0.9c-0.3-0.3-0.6-0.7-0.8-1.2
			c-0.2-0.4-0.3-1-0.3-1.6c0-0.7,0.2-1.4,0.5-1.9c0.3-0.6,0.8-1,1.3-1.4c0.6-0.4,1.2-0.7,1.9-0.9c0.7-0.2,1.4-0.3,2.2-0.3
			c1.3,0,2.5,0.2,3.6,0.7v2.5c-1.1-0.7-2.5-1.1-3.9-1.1c-0.5,0-0.9,0.1-1.3,0.2c-0.4,0.1-0.7,0.3-1,0.4c-0.3,0.2-0.5,0.4-0.6,0.7
			c-0.1,0.3-0.2,0.6-0.2,0.9c0,0.4,0.1,0.7,0.2,1c0.1,0.3,0.4,0.5,0.6,0.7c0.3,0.2,0.6,0.4,1,0.6c0.4,0.2,0.9,0.4,1.4,0.6
			c0.7,0.3,1.3,0.5,1.8,0.8c0.5,0.3,1,0.6,1.4,0.9c0.4,0.3,0.7,0.7,0.9,1.2c0.2,0.5,0.3,1,0.3,1.6c0,0.8-0.2,1.4-0.5,2
			c-0.3,0.6-0.8,1-1.4,1.4c-0.6,0.4-1.2,0.7-2,0.8c-0.7,0.2-1.5,0.3-2.3,0.3C163.8,220.3,162.4,220,161.3,219.4z"/>
		<path d="M185.9,219.2c-1.2,0.7-2.6,1.1-4.2,1.1c-2.2,0-4-0.7-5.4-2.2c-1.4-1.4-2-3.3-2-5.6c0-2.6,0.7-4.6,2.2-6.2
			c1.5-1.5,3.4-2.3,5.9-2.3c1.4,0,2.6,0.3,3.6,0.8v2.5c-1.2-0.8-2.4-1.2-3.7-1.2c-1.6,0-2.9,0.6-3.9,1.7c-1,1.1-1.5,2.6-1.5,4.5
			c0,1.8,0.5,3.2,1.4,4.3c1,1,2.2,1.6,3.8,1.6c1.4,0,2.6-0.4,3.8-1.3V219.2z"/>
		<path d="M200.8,219.9h-2.5v-2.4h-0.1c-1.1,1.9-2.7,2.8-4.8,2.8c-1.5,0-2.8-0.4-3.6-1.2c-0.9-0.8-1.3-1.9-1.3-3.3
			c0-2.9,1.7-4.6,5.1-5.1l4.6-0.7c0-2.6-1.1-4-3.2-4c-1.9,0-3.6,0.6-5.1,1.9v-2.5c1.5-1,3.3-1.5,5.3-1.5c3.6,0,5.5,1.9,5.5,5.8
			V219.9z M198.3,212.1l-3.7,0.5c-1.2,0.2-2,0.4-2.6,0.9c-0.6,0.4-0.9,1.1-0.9,2.2c0,0.8,0.3,1.4,0.8,1.9c0.5,0.5,1.3,0.7,2.2,0.7
			c1.2,0,2.2-0.4,3-1.3c0.8-0.9,1.2-2,1.2-3.3V212.1z"/>
		<path d="M207.9,219.9h-2.5V197h2.5V219.9z"/>
		<path d="M224.1,219.9h-2.5v-2.4h-0.1c-1.1,1.9-2.7,2.8-4.8,2.8c-1.5,0-2.8-0.4-3.6-1.2c-0.9-0.8-1.3-1.9-1.3-3.3
			c0-2.9,1.7-4.6,5.1-5.1l4.6-0.7c0-2.6-1.1-4-3.2-4c-1.9,0-3.6,0.6-5.1,1.9v-2.5c1.5-1,3.3-1.5,5.3-1.5c3.6,0,5.5,1.9,5.5,5.8
			V219.9z M221.6,212.1l-3.7,0.5c-1.2,0.2-2,0.4-2.6,0.9c-0.6,0.4-0.9,1.1-0.9,2.2c0,0.8,0.3,1.4,0.8,1.9c0.5,0.5,1.3,0.7,2.2,0.7
			c1.2,0,2.2-0.4,3-1.3c0.8-0.9,1.2-2,1.2-3.3V212.1z"/>
		<path d="M236.8,207c-0.4-0.3-1.1-0.5-1.9-0.5c-1.1,0-1.9,0.5-2.7,1.5c-0.7,1-1.1,2.4-1.1,4.1v7.9h-2.5v-15.5h2.5v3.2h0.1
			c0.4-1.1,0.9-1.9,1.6-2.6c0.7-0.6,1.5-0.9,2.4-0.9c0.6,0,1.1,0.1,1.5,0.2V207z"/>
		<path d="M256.2,219.8c-0.6,0.3-1.4,0.5-2.3,0.5c-2.7,0-4.1-1.5-4.1-4.5v-9.2h-2.7v-2.1h2.7v-3.8l2.5-0.8v4.6h3.9v2.1h-3.9v8.7
			c0,1,0.2,1.8,0.5,2.2c0.4,0.4,0.9,0.7,1.8,0.7c0.6,0,1.2-0.2,1.6-0.5V219.8z"/>
		<path d="M270.6,219.9h-2.5v-2.4h-0.1c-1.1,1.9-2.7,2.8-4.8,2.8c-1.5,0-2.8-0.4-3.6-1.2c-0.9-0.8-1.3-1.9-1.3-3.3
			c0-2.9,1.7-4.6,5.1-5.1l4.6-0.7c0-2.6-1.1-4-3.2-4c-1.9,0-3.6,0.6-5.1,1.9v-2.5c1.5-1,3.3-1.5,5.3-1.5c3.6,0,5.5,1.9,5.5,5.8
			V219.9z M268.2,212.1l-3.7,0.5c-1.2,0.2-2,0.4-2.6,0.9c-0.6,0.4-0.9,1.1-0.9,2.2c0,0.8,0.3,1.4,0.8,1.9c0.5,0.5,1.3,0.7,2.2,0.7
			c1.2,0,2.2-0.4,3-1.3c0.8-0.9,1.2-2,1.2-3.3V212.1z"/>
		<path d="M297.3,219.9h-2.5V211c0-1.7-0.3-3-0.8-3.7c-0.5-0.8-1.4-1.2-2.7-1.2c-1.1,0-2,0.5-2.7,1.5c-0.7,1-1.1,2.1-1.1,3.5v8.8
			h-2.5v-9.2c0-3-1.2-4.6-3.5-4.6c-1.1,0-2,0.5-2.7,1.4c-0.7,0.9-1.1,2.1-1.1,3.6v8.8h-2.5v-15.5h2.5v2.5h0.1
			c1.1-1.9,2.7-2.8,4.8-2.8c1.1,0,2,0.3,2.8,0.9c0.8,0.6,1.3,1.4,1.6,2.3c1.2-2.1,2.9-3.2,5.1-3.2c3.4,0,5.1,2.1,5.1,6.3V219.9z"/>
		<path d="M304.6,217.7L304.6,217.7l-0.1,2.2H302V197h2.5v10.2h0.1c1.2-2.1,3-3.1,5.4-3.1c2,0,3.5,0.7,4.7,2.1
			c1.1,1.4,1.7,3.2,1.7,5.6c0,2.6-0.6,4.7-1.9,6.2c-1.3,1.6-3,2.3-5.2,2.3C307.2,220.3,305.6,219.4,304.6,217.7z M304.5,211.5v2.2
			c0,1.3,0.4,2.4,1.2,3.3c0.8,0.9,1.9,1.3,3.2,1.3c1.5,0,2.7-0.6,3.5-1.7s1.3-2.7,1.3-4.8c0-1.7-0.4-3.1-1.2-4.1
			c-0.8-1-1.9-1.5-3.2-1.5c-1.4,0-2.6,0.5-3.5,1.5C304.9,208.7,304.5,209.9,304.5,211.5z"/>
		<path d="M321.5,200.5c-0.4,0-0.8-0.2-1.1-0.5c-0.3-0.3-0.5-0.7-0.5-1.2c0-0.5,0.2-0.9,0.5-1.2c0.3-0.3,0.7-0.5,1.1-0.5
			c0.5,0,0.8,0.2,1.2,0.5c0.3,0.3,0.5,0.7,0.5,1.2c0,0.4-0.2,0.8-0.5,1.1C322.4,200.4,322,200.5,321.5,200.5z M322.7,219.9h-2.5
			v-15.5h2.5V219.9z"/>
		<path d="M340.2,212.8h-10.9c0,1.7,0.5,3.1,1.4,4s2.1,1.4,3.7,1.4c1.7,0,3.4-0.6,4.8-1.7v2.3c-1.4,1-3.2,1.5-5.4,1.5
			c-2.2,0-3.9-0.7-5.2-2.1c-1.3-1.4-1.9-3.4-1.9-5.9c0-2.4,0.7-4.4,2.1-5.9c1.4-1.5,3.1-2.3,5.1-2.3s3.6,0.7,4.7,2
			c1.1,1.3,1.7,3.1,1.7,5.5V212.8z M337.7,210.7c0-1.4-0.4-2.5-1-3.3c-0.7-0.8-1.6-1.2-2.8-1.2c-1.2,0-2.2,0.4-3,1.3
			c-0.8,0.8-1.3,1.9-1.5,3.3H337.7z M337.3,196.5l-4,5h-1.9l3.4-5H337.3z"/>
		<path d="M356.8,219.9h-2.5v-8.8c0-3.3-1.2-4.9-3.6-4.9c-1.2,0-2.3,0.5-3.1,1.4c-0.8,0.9-1.2,2.1-1.2,3.5v8.8H344v-15.5h2.5v2.6
			h0.1c1.2-2,2.9-2.9,5.1-2.9c1.7,0,3,0.5,3.9,1.6c0.9,1.1,1.3,2.7,1.3,4.7V219.9z"/>
		<path d="M9.6,256.6v-2.7c1.4,1,2.8,1.5,4.5,1.5c2.2,0,3.3-0.7,3.3-2.2c0-0.4-0.1-0.8-0.3-1.1c-0.2-0.3-0.4-0.5-0.8-0.8
			c-0.3-0.2-0.7-0.4-1.1-0.6c-0.4-0.2-0.9-0.4-1.4-0.6c-0.7-0.3-1.3-0.5-1.8-0.8c-0.5-0.3-1-0.6-1.3-0.9c-0.3-0.3-0.6-0.7-0.8-1.2
			c-0.2-0.4-0.3-1-0.3-1.6c0-0.7,0.2-1.4,0.5-1.9c0.3-0.6,0.8-1,1.3-1.4c0.6-0.4,1.2-0.7,1.9-0.9c0.7-0.2,1.4-0.3,2.2-0.3
			c1.3,0,2.5,0.2,3.6,0.7v2.5c-1.1-0.7-2.5-1.1-3.9-1.1c-0.5,0-0.9,0.1-1.3,0.2c-0.4,0.1-0.7,0.3-1,0.4c-0.3,0.2-0.5,0.4-0.6,0.7
			c-0.1,0.3-0.2,0.6-0.2,0.9c0,0.4,0.1,0.7,0.2,1c0.1,0.3,0.4,0.5,0.6,0.7c0.3,0.2,0.6,0.4,1,0.6c0.4,0.2,0.9,0.4,1.4,0.6
			c0.7,0.3,1.3,0.5,1.8,0.8c0.5,0.3,1,0.6,1.4,0.9c0.4,0.3,0.7,0.8,0.9,1.2c0.2,0.5,0.3,1,0.3,1.6c0,0.8-0.2,1.4-0.5,2
			c-0.3,0.6-0.8,1-1.4,1.4c-0.6,0.4-1.2,0.7-2,0.8c-0.7,0.2-1.5,0.3-2.3,0.3C12.1,257.5,10.7,257.2,9.6,256.6z"/>
		<path d="M36.1,250H25.2c0,1.7,0.5,3.1,1.4,4c0.9,0.9,2.1,1.4,3.7,1.4c1.7,0,3.4-0.6,4.8-1.7v2.3c-1.4,1-3.2,1.5-5.4,1.5
			c-2.2,0-3.9-0.7-5.2-2.1c-1.3-1.4-1.9-3.4-1.9-5.9c0-2.4,0.7-4.4,2.1-5.9c1.4-1.5,3.1-2.3,5.1-2.3s3.6,0.7,4.7,2
			c1.1,1.3,1.7,3.1,1.7,5.5V250z M33.6,247.9c0-1.4-0.4-2.5-1-3.3c-0.7-0.8-1.6-1.2-2.8-1.2c-1.2,0-2.2,0.4-3,1.3
			c-0.8,0.8-1.3,1.9-1.5,3.3H33.6z"/>
		<path d="M82.1,257.1h-2.5v-2.6h-0.1c-1.2,2-2.9,3-5.3,3c-1.9,0-3.5-0.7-4.7-2.1c-1.2-1.4-1.7-3.3-1.7-5.7c0-2.6,0.6-4.6,1.9-6.2
			c1.3-1.5,3-2.3,5.2-2.3c2.1,0,3.7,0.8,4.6,2.5h0.1v-9.6h2.5V257.1z M79.6,250.1v-2.3c0-1.3-0.4-2.3-1.2-3.2
			c-0.8-0.9-1.9-1.3-3.1-1.3c-1.5,0-2.7,0.6-3.6,1.7c-0.9,1.1-1.3,2.6-1.3,4.6c0,1.8,0.4,3.2,1.2,4.2c0.8,1,1.9,1.6,3.4,1.6
			c1.4,0,2.5-0.5,3.4-1.5C79.2,252.9,79.6,251.7,79.6,250.1z"/>
		<path d="M99.6,250H88.6c0,1.7,0.5,3.1,1.4,4c0.9,0.9,2.1,1.4,3.7,1.4c1.7,0,3.4-0.6,4.8-1.7v2.3c-1.4,1-3.2,1.5-5.4,1.5
			c-2.2,0-3.9-0.7-5.2-2.1c-1.3-1.4-1.9-3.4-1.9-5.9c0-2.4,0.7-4.4,2.1-5.9c1.4-1.5,3.1-2.3,5.1-2.3s3.6,0.7,4.7,2
			c1.1,1.3,1.7,3.1,1.7,5.5V250z M97,247.9c0-1.4-0.4-2.5-1-3.3c-0.7-0.8-1.6-1.2-2.8-1.2c-1.2,0-2.2,0.4-3,1.3
			c-0.8,0.8-1.3,1.9-1.5,3.3H97z"/>
		<path d="M116.2,257.1h-2.5v-8.8c0-3.3-1.2-4.9-3.6-4.9c-1.2,0-2.3,0.5-3.1,1.4c-0.8,0.9-1.2,2.1-1.2,3.5v8.8h-2.5v-15.5h2.5v2.6
			h0.1c1.2-2,2.9-2.9,5.1-2.9c1.7,0,3,0.5,3.9,1.6c0.9,1.1,1.3,2.7,1.3,4.7V257.1z"/>
		<path d="M127.4,257.5c-2.3,0-4.1-0.7-5.5-2.2c-1.4-1.4-2.1-3.4-2.1-5.8c0-2.6,0.7-4.6,2.1-6.1c1.4-1.5,3.3-2.2,5.8-2.2
			c2.3,0,4.1,0.7,5.4,2.1c1.3,1.4,1.9,3.4,1.9,5.9c0,2.5-0.7,4.5-2.1,5.9C131.6,256.8,129.7,257.5,127.4,257.5z M127.5,243.4
			c-1.6,0-2.9,0.5-3.8,1.6c-0.9,1.1-1.4,2.6-1.4,4.5c0,1.8,0.5,3.3,1.4,4.3c0.9,1.1,2.2,1.6,3.8,1.6c1.6,0,2.8-0.5,3.7-1.6
			c0.9-1,1.3-2.5,1.3-4.4c0-1.9-0.4-3.4-1.3-4.5C130.4,243.9,129.1,243.4,127.5,243.4z"/>
		<path d="M161.1,257.1h-2.5v-8.9c0-1.7-0.3-3-0.8-3.7c-0.5-0.8-1.4-1.2-2.7-1.2c-1.1,0-2,0.5-2.7,1.5c-0.7,1-1.1,2.1-1.1,3.5v8.8
			h-2.5v-9.2c0-3-1.2-4.6-3.5-4.6c-1.1,0-2,0.5-2.7,1.4c-0.7,0.9-1.1,2.1-1.1,3.6v8.8H139v-15.5h2.5v2.5h0.1
			c1.1-1.9,2.7-2.8,4.8-2.8c1.1,0,2,0.3,2.8,0.9c0.8,0.6,1.3,1.4,1.6,2.3c1.2-2.1,2.9-3.2,5.1-3.2c3.4,0,5.1,2.1,5.1,6.3V257.1z"/>
		<path d="M167,237.7c-0.4,0-0.8-0.2-1.1-0.5c-0.3-0.3-0.5-0.7-0.5-1.2s0.2-0.8,0.5-1.2c0.3-0.3,0.7-0.5,1.1-0.5
			c0.5,0,0.8,0.2,1.2,0.5c0.3,0.3,0.5,0.7,0.5,1.2c0,0.4-0.2,0.8-0.5,1.1C167.9,237.6,167.5,237.7,167,237.7z M168.2,257.1h-2.5
			v-15.5h2.5V257.1z"/>
		<path d="M186.1,257.1h-2.5v-8.8c0-3.3-1.2-4.9-3.6-4.9c-1.2,0-2.3,0.5-3.1,1.4c-0.8,0.9-1.2,2.1-1.2,3.5v8.8h-2.5v-15.5h2.5v2.6
			h0.1c1.2-2,2.9-2.9,5.1-2.9c1.7,0,3,0.5,3.9,1.6s1.3,2.7,1.3,4.7V257.1z"/>
		<path d="M201.9,257.1h-2.5v-2.4h-0.1c-1.1,1.9-2.7,2.8-4.8,2.8c-1.5,0-2.8-0.4-3.6-1.2c-0.9-0.8-1.3-1.9-1.3-3.3
			c0-2.9,1.7-4.6,5.1-5.1l4.6-0.7c0-2.6-1.1-4-3.2-4c-1.9,0-3.6,0.6-5.1,1.9v-2.5c1.5-1,3.3-1.5,5.3-1.5c3.6,0,5.5,1.9,5.5,5.8
			V257.1z M199.4,249.3l-3.7,0.5c-1.2,0.2-2,0.4-2.6,0.9c-0.6,0.4-0.9,1.1-0.9,2.2c0,0.8,0.3,1.4,0.8,1.9s1.3,0.7,2.2,0.7
			c1.2,0,2.2-0.4,3-1.3c0.8-0.9,1.2-2,1.2-3.3V249.3z"/>
		<path d="M238.1,254.9L238.1,254.9l-0.1,9.4h-2.5v-22.6h2.5v2.7h0.1c1.2-2.1,3-3.1,5.4-3.1c2,0,3.6,0.7,4.7,2.1
			c1.1,1.4,1.7,3.2,1.7,5.6c0,2.6-0.6,4.7-1.9,6.2c-1.3,1.6-3,2.3-5.2,2.3C240.7,257.5,239.2,256.6,238.1,254.9z M238,248.7v2.2
			c0,1.3,0.4,2.4,1.2,3.3c0.8,0.9,1.9,1.3,3.2,1.3c1.5,0,2.7-0.6,3.5-1.7s1.3-2.8,1.3-4.8c0-1.7-0.4-3.1-1.2-4.1
			c-0.8-1-1.9-1.5-3.2-1.5c-1.4,0-2.6,0.5-3.5,1.5C238.5,245.9,238,247.1,238,248.7z"/>
		<path d="M261.9,244.2c-0.4-0.3-1.1-0.5-1.9-0.5c-1.1,0-1.9,0.5-2.7,1.5c-0.7,1-1.1,2.4-1.1,4.1v7.9h-2.5v-15.5h2.5v3.2h0.1
			c0.4-1.1,0.9-1.9,1.6-2.5s1.5-0.9,2.4-0.9c0.6,0,1.1,0.1,1.5,0.2V244.2z"/>
		<path d="M271,257.5c-2.3,0-4.1-0.7-5.5-2.2s-2.1-3.4-2.1-5.8c0-2.6,0.7-4.6,2.1-6.1c1.4-1.5,3.3-2.2,5.8-2.2
			c2.3,0,4.1,0.7,5.4,2.1c1.3,1.4,1.9,3.4,1.9,5.9c0,2.5-0.7,4.5-2.1,5.9S273.4,257.5,271,257.5z M271.2,243.4
			c-1.6,0-2.9,0.5-3.8,1.6c-0.9,1.1-1.4,2.6-1.4,4.5c0,1.8,0.5,3.3,1.4,4.3c0.9,1.1,2.2,1.6,3.8,1.6c1.6,0,2.8-0.5,3.7-1.6
			c0.9-1,1.3-2.5,1.3-4.4c0-1.9-0.4-3.4-1.3-4.5C274.1,243.9,272.8,243.4,271.2,243.4z"/>
		<path d="M296,257.1h-2.5v-2.6h-0.1c-1.2,2-2.9,3-5.3,3c-1.9,0-3.5-0.7-4.7-2.1c-1.2-1.4-1.7-3.3-1.7-5.7c0-2.6,0.6-4.6,1.9-6.2
			c1.3-1.5,3-2.3,5.2-2.3c2.1,0,3.7,0.8,4.6,2.5h0.1v-9.6h2.5V257.1z M293.5,250.1v-2.3c0-1.3-0.4-2.3-1.2-3.2s-1.9-1.3-3.1-1.3
			c-1.5,0-2.7,0.6-3.6,1.7s-1.3,2.6-1.3,4.6c0,1.8,0.4,3.2,1.2,4.2c0.8,1,2,1.6,3.4,1.6c1.4,0,2.5-0.5,3.4-1.5
			C293,252.9,293.5,251.7,293.5,250.1z"/>
		<path d="M313.5,257.1H311v-2.5H311c-1,1.9-2.6,2.8-4.8,2.8c-3.7,0-5.5-2.2-5.5-6.6v-9.3h2.5v8.9c0,3.3,1.3,4.9,3.8,4.9
			c1.2,0,2.2-0.4,3-1.3c0.8-0.9,1.2-2.1,1.2-3.5v-8.9h2.5V257.1z"/>
		<path d="M329.1,256.4c-1.2,0.7-2.6,1.1-4.2,1.1c-2.2,0-4-0.7-5.4-2.2c-1.4-1.4-2-3.3-2-5.6c0-2.6,0.7-4.6,2.2-6.2
			c1.5-1.5,3.4-2.3,5.9-2.3c1.4,0,2.6,0.3,3.6,0.8v2.5c-1.2-0.8-2.4-1.2-3.7-1.2c-1.6,0-2.9,0.6-3.9,1.7c-1,1.1-1.5,2.6-1.5,4.5
			c0,1.8,0.5,3.2,1.4,4.3c1,1,2.2,1.6,3.8,1.6c1.4,0,2.6-0.4,3.8-1.3V256.4z"/>
		<path d="M340,257c-0.6,0.3-1.4,0.5-2.3,0.5c-2.7,0-4.1-1.5-4.1-4.5v-9.2H331v-2.1h2.7v-3.8l2.5-0.8v4.6h3.9v2.1h-3.9v8.7
			c0,1,0.2,1.8,0.5,2.2s0.9,0.7,1.8,0.7c0.6,0,1.2-0.2,1.6-0.5V257z"/>
		<path d="M349.8,257.5c-2.3,0-4.1-0.7-5.5-2.2s-2.1-3.4-2.1-5.8c0-2.6,0.7-4.6,2.1-6.1c1.4-1.5,3.3-2.2,5.8-2.2
			c2.3,0,4.1,0.7,5.4,2.1c1.3,1.4,1.9,3.4,1.9,5.9c0,2.5-0.7,4.5-2.1,5.9S352.2,257.5,349.8,257.5z M350,243.4
			c-1.6,0-2.9,0.5-3.8,1.6c-0.9,1.1-1.4,2.6-1.4,4.5c0,1.8,0.5,3.3,1.4,4.3c0.9,1.1,2.2,1.6,3.8,1.6c1.6,0,2.8-0.5,3.7-1.6
			c0.9-1,1.3-2.5,1.3-4.4c0-1.9-0.4-3.4-1.3-4.5C352.8,243.9,351.6,243.4,350,243.4z"/>
		<path d="M13.1,292.1L13.1,292.1l-0.1,9.4h-2.5v-22.6H13v2.7h0.1c1.2-2.1,3-3.1,5.4-3.1c2,0,3.6,0.7,4.7,2.1
			c1.1,1.4,1.7,3.2,1.7,5.6c0,2.6-0.6,4.7-1.9,6.2c-1.3,1.6-3,2.3-5.2,2.3C15.7,294.7,14.1,293.8,13.1,292.1z M13,285.9v2.2
			c0,1.3,0.4,2.4,1.2,3.3c0.8,0.9,1.9,1.3,3.2,1.3c1.5,0,2.7-0.6,3.5-1.7c0.9-1.2,1.3-2.8,1.3-4.8c0-1.7-0.4-3.1-1.2-4.1
			c-0.8-1-1.9-1.5-3.2-1.5c-1.4,0-2.6,0.5-3.5,1.5C13.4,283.1,13,284.3,13,285.9z"/>
		<path d="M41.3,294.3h-2.5v-2.5h-0.1c-1,1.9-2.6,2.8-4.8,2.8c-3.7,0-5.5-2.2-5.5-6.6v-9.3h2.5v8.9c0,3.3,1.3,4.9,3.8,4.9
			c1.2,0,2.2-0.4,3-1.3c0.8-0.9,1.2-2.1,1.2-3.5v-8.9h2.5V294.3z"/>
		<path d="M59.1,294.3h-2.5v-8.8c0-3.3-1.2-4.9-3.6-4.9c-1.2,0-2.3,0.5-3.1,1.4c-0.8,0.9-1.2,2.1-1.2,3.5v8.8h-2.5v-15.5h2.5v2.6
			h0.1c1.2-2,2.9-2.9,5.1-2.9c1.7,0,3,0.5,3.9,1.6c0.9,1.1,1.3,2.7,1.3,4.7V294.3z"/>
		<path d="M71,294.2c-0.6,0.3-1.4,0.5-2.3,0.5c-2.7,0-4.1-1.5-4.1-4.5V281H62v-2.1h2.7v-3.8l2.5-0.8v4.6H71v2.1h-3.9v8.7
			c0,1,0.2,1.8,0.5,2.2c0.4,0.4,0.9,0.7,1.8,0.7c0.6,0,1.2-0.2,1.6-0.5V294.2z"/>
		<path d="M80.8,294.7c-2.3,0-4.1-0.7-5.5-2.2c-1.4-1.4-2.1-3.4-2.1-5.8c0-2.6,0.7-4.6,2.1-6.1c1.4-1.5,3.3-2.2,5.8-2.2
			c2.3,0,4.1,0.7,5.4,2.1c1.3,1.4,1.9,3.4,1.9,5.9c0,2.5-0.7,4.5-2.1,5.9C85,294,83.2,294.7,80.8,294.7z M81,280.6
			c-1.6,0-2.9,0.5-3.8,1.6c-0.9,1.1-1.4,2.6-1.4,4.5c0,1.8,0.5,3.3,1.4,4.3c0.9,1.1,2.2,1.6,3.8,1.6c1.6,0,2.8-0.5,3.7-1.6
			c0.9-1,1.3-2.5,1.3-4.4c0-1.9-0.4-3.4-1.3-4.5C83.8,281.1,82.6,280.6,81,280.6z"/>
		<path d="M93.4,294.7c-0.5,0-0.9-0.2-1.2-0.5c-0.3-0.3-0.5-0.7-0.5-1.2s0.2-0.9,0.5-1.2c0.3-0.3,0.7-0.5,1.2-0.5
			c0.5,0,0.9,0.2,1.2,0.5s0.5,0.7,0.5,1.2s-0.2,0.9-0.5,1.2C94.2,294.5,93.8,294.7,93.4,294.7z"/>
		<path d="M120.2,294.3h-11.5v-21.7h11v2.3h-8.5v7.2h7.8v2.3h-7.8v7.6h9V294.3z"/>
		<path d="M126.6,294.3h-2.5v-22.9h2.5V294.3z"/>
		<path d="M151.9,294.3h-2.5v-2.4h-0.1c-1.1,1.9-2.7,2.8-4.8,2.8c-1.5,0-2.8-0.4-3.6-1.2c-0.9-0.8-1.3-1.9-1.3-3.3
			c0-2.9,1.7-4.6,5.1-5.1l4.6-0.7c0-2.6-1.1-4-3.2-4c-1.9,0-3.6,0.6-5.1,1.9v-2.5c1.5-1,3.3-1.5,5.3-1.5c3.6,0,5.5,1.9,5.5,5.8
			V294.3z M149.4,286.5l-3.7,0.5c-1.2,0.2-2,0.4-2.6,0.9c-0.6,0.4-0.9,1.1-0.9,2.2c0,0.8,0.3,1.4,0.8,1.9c0.5,0.5,1.3,0.7,2.2,0.7
			c1.2,0,2.2-0.4,3-1.3c0.8-0.9,1.2-2,1.2-3.3V286.5z M149.7,270.9l-4,5h-1.9l3.4-5H149.7z"/>
		<path d="M169.4,294.3H167v-8.8c0-3.3-1.2-4.9-3.6-4.9c-1.2,0-2.3,0.5-3.1,1.4c-0.8,0.9-1.2,2.1-1.2,3.5v8.8h-2.5v-15.5h2.5v2.6
			h0.1c1.2-2,2.9-2.9,5.1-2.9c1.7,0,3,0.5,3.9,1.6c0.9,1.1,1.3,2.7,1.3,4.7V294.3z"/>
		<path d="M187.3,293.1c0,5.7-2.7,8.5-8.2,8.5c-1.9,0-3.6-0.4-5-1.1v-2.5c1.7,1,3.4,1.5,5,1.5c3.8,0,5.7-2,5.7-6.1v-1.7h-0.1
			c-1.2,2-3,3-5.3,3c-1.9,0-3.5-0.7-4.7-2.1c-1.2-1.4-1.8-3.2-1.8-5.5c0-2.6,0.6-4.7,1.9-6.3c1.3-1.6,3-2.3,5.2-2.3
			c2.1,0,3.6,0.8,4.6,2.5h0.1v-2.1h2.5V293.1z M184.9,287.3v-2.3c0-1.2-0.4-2.3-1.2-3.2c-0.8-0.9-1.9-1.3-3.1-1.3
			c-1.5,0-2.7,0.6-3.6,1.7c-0.9,1.1-1.3,2.7-1.3,4.7c0,1.7,0.4,3.1,1.2,4.1c0.8,1,1.9,1.6,3.3,1.6c1.4,0,2.5-0.5,3.4-1.5
			C184.4,290.1,184.9,288.9,184.9,287.3z"/>
		<path d="M204.9,294.3h-2.5v-2.5h-0.1c-1,1.9-2.6,2.8-4.8,2.8c-3.7,0-5.5-2.2-5.5-6.6v-9.3h2.5v8.9c0,3.3,1.3,4.9,3.8,4.9
			c1.2,0,2.2-0.4,3-1.3c0.8-0.9,1.2-2.1,1.2-3.5v-8.9h2.5V294.3z"/>
		<path d="M212.4,294.3h-2.5v-22.9h2.5V294.3z"/>
		<path d="M223.9,294.7c-2.3,0-4.1-0.7-5.5-2.2s-2.1-3.4-2.1-5.8c0-2.6,0.7-4.6,2.1-6.1c1.4-1.5,3.3-2.2,5.8-2.2
			c2.3,0,4.1,0.7,5.4,2.1c1.3,1.4,1.9,3.4,1.9,5.9c0,2.5-0.7,4.5-2.1,5.9S226.3,294.7,223.9,294.7z M224.1,280.6
			c-1.6,0-2.9,0.5-3.8,1.6c-0.9,1.1-1.4,2.6-1.4,4.5c0,1.8,0.5,3.3,1.4,4.3c0.9,1.1,2.2,1.6,3.8,1.6c1.6,0,2.8-0.5,3.7-1.6
			c0.9-1,1.3-2.5,1.3-4.4c0-1.9-0.4-3.4-1.3-4.5C226.9,281.1,225.7,280.6,224.1,280.6z"/>
		<path d="M282.8,287.2h-10.9c0,1.7,0.5,3.1,1.4,4c0.9,0.9,2.1,1.4,3.7,1.4c1.7,0,3.4-0.6,4.8-1.7v2.3c-1.4,1-3.2,1.5-5.4,1.5
			c-2.2,0-3.9-0.7-5.2-2.1c-1.3-1.4-1.9-3.4-1.9-5.9c0-2.4,0.7-4.4,2.1-5.9s3.1-2.3,5.1-2.3s3.6,0.7,4.7,2c1.1,1.3,1.7,3.1,1.7,5.5
			V287.2z M280.2,285.1c0-1.4-0.4-2.5-1-3.3c-0.7-0.8-1.6-1.2-2.8-1.2c-1.2,0-2.2,0.4-3,1.3c-0.8,0.8-1.3,1.9-1.5,3.3H280.2z"/>
		<path d="M299.4,294.3h-2.5v-8.8c0-3.3-1.2-4.9-3.6-4.9c-1.2,0-2.3,0.5-3.1,1.4c-0.8,0.9-1.2,2.1-1.2,3.5v8.8h-2.5v-15.5h2.5v2.6
			h0.1c1.2-2,2.9-2.9,5.1-2.9c1.7,0,3,0.5,3.9,1.6c0.9,1.1,1.3,2.7,1.3,4.7V294.3z"/>
		<path d="M324.4,294.3h-2.5v-2.4h-0.1c-1.1,1.9-2.7,2.8-4.8,2.8c-1.5,0-2.8-0.4-3.6-1.2c-0.9-0.8-1.3-1.9-1.3-3.3
			c0-2.9,1.7-4.6,5.1-5.1l4.6-0.7c0-2.6-1.1-4-3.2-4c-1.9,0-3.6,0.6-5.1,1.9v-2.5c1.5-1,3.3-1.5,5.3-1.5c3.6,0,5.5,1.9,5.5,5.8
			V294.3z M321.9,286.5l-3.7,0.5c-1.2,0.2-2,0.4-2.6,0.9c-0.6,0.4-0.9,1.1-0.9,2.2c0,0.8,0.3,1.4,0.8,1.9s1.3,0.7,2.2,0.7
			c1.2,0,2.2-0.4,3-1.3c0.8-0.9,1.2-2,1.2-3.3V286.5z"/>
		<path d="M340.7,294.3h-2.5v-22.9h2.5V294.3z"/>
		<path d="M356.8,294.3h-2.5v-2.4h-0.1c-1.1,1.9-2.7,2.8-4.8,2.8c-1.5,0-2.8-0.4-3.6-1.2c-0.9-0.8-1.3-1.9-1.3-3.3
			c0-2.9,1.7-4.6,5.1-5.1l4.6-0.7c0-2.6-1.1-4-3.2-4c-1.9,0-3.6,0.6-5.1,1.9v-2.5c1.5-1,3.3-1.5,5.3-1.5c3.6,0,5.5,1.9,5.5,5.8
			V294.3z M354.4,286.5l-3.7,0.5c-1.2,0.2-2,0.4-2.6,0.9c-0.6,0.4-0.9,1.1-0.9,2.2c0,0.8,0.3,1.4,0.8,1.9s1.3,0.7,2.2,0.7
			c1.2,0,2.2-0.4,3-1.3c0.8-0.9,1.2-2,1.2-3.3V286.5z"/>
		<path d="M23,324.4H12c0,1.7,0.5,3.1,1.4,4c0.9,0.9,2.1,1.4,3.7,1.4c1.7,0,3.4-0.6,4.8-1.7v2.3c-1.4,1-3.2,1.5-5.4,1.5
			c-2.2,0-3.9-0.7-5.2-2.1c-1.3-1.4-1.9-3.4-1.9-5.9c0-2.4,0.7-4.4,2.1-5.9c1.4-1.5,3.1-2.3,5.1-2.3s3.6,0.7,4.7,2
			c1.1,1.3,1.7,3.1,1.7,5.5V324.4z M20.4,322.3c0-1.4-0.4-2.5-1-3.3c-0.7-0.8-1.6-1.2-2.8-1.2c-1.2,0-2.2,0.4-3,1.3
			c-0.8,0.8-1.3,1.9-1.5,3.3H20.4z"/>
		<path d="M37.3,330.8c-1.2,0.7-2.6,1.1-4.2,1.1c-2.2,0-4-0.7-5.4-2.2c-1.4-1.4-2-3.3-2-5.6c0-2.6,0.7-4.6,2.2-6.2
			c1.5-1.5,3.4-2.3,5.9-2.3c1.4,0,2.6,0.3,3.6,0.8v2.5c-1.2-0.8-2.4-1.2-3.7-1.2c-1.6,0-2.9,0.6-3.9,1.7c-1,1.1-1.5,2.6-1.5,4.5
			c0,1.8,0.5,3.2,1.4,4.3c1,1,2.2,1.6,3.8,1.6c1.4,0,2.6-0.4,3.8-1.3V330.8z"/>
		<path d="M53.6,331.5h-2.5v-2.5H51c-1,1.9-2.6,2.8-4.8,2.8c-3.7,0-5.5-2.2-5.5-6.6V316h2.5v8.9c0,3.3,1.3,4.9,3.8,4.9
			c1.2,0,2.2-0.4,3-1.3c0.8-0.9,1.2-2.1,1.2-3.5V316h2.5V331.5z"/>
		<path d="M69.7,331.5h-2.5v-2.4h-0.1c-1.1,1.9-2.7,2.8-4.8,2.8c-1.5,0-2.8-0.4-3.6-1.2c-0.9-0.8-1.3-1.9-1.3-3.3
			c0-2.9,1.7-4.6,5.1-5.1l4.6-0.7c0-2.6-1.1-4-3.2-4c-1.9,0-3.6,0.6-5.1,1.9v-2.5c1.5-1,3.3-1.5,5.3-1.5c3.6,0,5.5,1.9,5.5,5.8
			V331.5z M67.2,323.7l-3.7,0.5c-1.2,0.2-2,0.4-2.6,0.9c-0.6,0.4-0.9,1.1-0.9,2.2c0,0.8,0.3,1.4,0.8,1.9c0.5,0.5,1.3,0.7,2.2,0.7
			c1.2,0,2.2-0.4,3-1.3c0.8-0.9,1.2-2,1.2-3.3V323.7z"/>
		<path d="M84.9,330.8c-1.2,0.7-2.6,1.1-4.2,1.1c-2.2,0-4-0.7-5.4-2.2c-1.4-1.4-2-3.3-2-5.6c0-2.6,0.7-4.6,2.2-6.2
			c1.5-1.5,3.4-2.3,5.9-2.3c1.4,0,2.6,0.3,3.6,0.8v2.5c-1.2-0.8-2.4-1.2-3.7-1.2c-1.6,0-2.9,0.6-3.9,1.7c-1,1.1-1.5,2.6-1.5,4.5
			c0,1.8,0.5,3.2,1.4,4.3c1,1,2.2,1.6,3.8,1.6c1.4,0,2.6-0.4,3.8-1.3V330.8z"/>
		<path d="M90,312.1c-0.4,0-0.8-0.2-1.1-0.5c-0.3-0.3-0.5-0.7-0.5-1.2s0.2-0.8,0.5-1.2c0.3-0.3,0.7-0.5,1.1-0.5
			c0.5,0,0.8,0.2,1.2,0.5c0.3,0.3,0.5,0.7,0.5,1.2c0,0.4-0.2,0.8-0.5,1.1C90.8,312,90.4,312.1,90,312.1z M91.2,331.5h-2.5V316h2.5
			V331.5z"/>
		<path d="M102.7,331.9c-2.3,0-4.1-0.7-5.5-2.2c-1.4-1.4-2.1-3.4-2.1-5.8c0-2.6,0.7-4.6,2.1-6.1c1.4-1.5,3.3-2.2,5.8-2.2
			c2.3,0,4.1,0.7,5.4,2.1c1.3,1.4,1.9,3.4,1.9,5.9c0,2.5-0.7,4.5-2.1,5.9C106.9,331.2,105,331.9,102.7,331.9z M102.8,317.8
			c-1.6,0-2.9,0.5-3.8,1.6c-0.9,1.1-1.4,2.6-1.4,4.5c0,1.8,0.5,3.3,1.4,4.3c0.9,1.1,2.2,1.6,3.8,1.6c1.6,0,2.8-0.5,3.7-1.6
			c0.9-1,1.3-2.5,1.3-4.4c0-1.9-0.4-3.4-1.3-4.5C105.7,318.3,104.5,317.8,102.8,317.8z M106.5,308.1l-4,5h-1.9l3.4-5H106.5z"/>
		<path d="M127.2,331.5h-2.5v-8.8c0-3.3-1.2-4.9-3.6-4.9c-1.2,0-2.3,0.5-3.1,1.4c-0.8,0.9-1.2,2.1-1.2,3.5v8.8h-2.5V316h2.5v2.6h0.1
			c1.2-2,2.9-2.9,5.1-2.9c1.7,0,3,0.5,3.9,1.6c0.9,1.1,1.3,2.7,1.3,4.7V331.5z"/>
		<path d="M163.5,330.8c-1.2,0.7-2.6,1.1-4.2,1.1c-2.2,0-4-0.7-5.4-2.2c-1.4-1.4-2-3.3-2-5.6c0-2.6,0.7-4.6,2.2-6.2
			c1.5-1.5,3.4-2.3,5.9-2.3c1.4,0,2.6,0.3,3.6,0.8v2.5c-1.2-0.8-2.4-1.2-3.7-1.2c-1.6,0-2.9,0.6-3.9,1.7c-1,1.1-1.5,2.6-1.5,4.5
			c0,1.8,0.5,3.2,1.4,4.3c1,1,2.2,1.6,3.8,1.6c1.4,0,2.6-0.4,3.8-1.3V330.8z"/>
		<path d="M173.7,331.9c-2.3,0-4.1-0.7-5.5-2.2c-1.4-1.4-2.1-3.4-2.1-5.8c0-2.6,0.7-4.6,2.1-6.1c1.4-1.5,3.3-2.2,5.8-2.2
			c2.3,0,4.1,0.7,5.4,2.1c1.3,1.4,1.9,3.4,1.9,5.9c0,2.5-0.7,4.5-2.1,5.9C177.9,331.2,176.1,331.9,173.7,331.9z M173.9,317.8
			c-1.6,0-2.9,0.5-3.8,1.6c-0.9,1.1-1.4,2.6-1.4,4.5c0,1.8,0.5,3.3,1.4,4.3c0.9,1.1,2.2,1.6,3.8,1.6c1.6,0,2.8-0.5,3.7-1.6
			c0.9-1,1.3-2.5,1.3-4.4c0-1.9-0.4-3.4-1.3-4.5C176.7,318.3,175.5,317.8,173.9,317.8z"/>
		<path d="M193.5,318.6c-0.4-0.3-1.1-0.5-1.9-0.5c-1.1,0-1.9,0.5-2.7,1.5c-0.7,1-1.1,2.4-1.1,4.1v7.9h-2.5V316h2.5v3.2h0.1
			c0.4-1.1,0.9-1.9,1.6-2.5s1.5-0.9,2.4-0.9c0.6,0,1.1,0.1,1.5,0.2V318.6z"/>
		<path d="M204.3,318.6c-0.4-0.3-1.1-0.5-1.9-0.5c-1.1,0-1.9,0.5-2.7,1.5c-0.7,1-1.1,2.4-1.1,4.1v7.9h-2.5V316h2.5v3.2h0.1
			c0.4-1.1,0.9-1.9,1.6-2.5s1.5-0.9,2.4-0.9c0.6,0,1.1,0.1,1.5,0.2V318.6z"/>
		<path d="M219.4,324.4h-10.9c0,1.7,0.5,3.1,1.4,4c0.9,0.9,2.1,1.4,3.7,1.4c1.7,0,3.4-0.6,4.8-1.7v2.3c-1.4,1-3.2,1.5-5.4,1.5
			c-2.2,0-3.9-0.7-5.2-2.1c-1.3-1.4-1.9-3.4-1.9-5.9c0-2.4,0.7-4.4,2.1-5.9s3.1-2.3,5.1-2.3s3.6,0.7,4.7,2c1.1,1.3,1.7,3.1,1.7,5.5
			V324.4z M216.9,322.3c0-1.4-0.4-2.5-1-3.3c-0.7-0.8-1.6-1.2-2.8-1.2c-1.2,0-2.2,0.4-3,1.3c-0.8,0.8-1.3,1.9-1.5,3.3H216.9z"/>
		<path d="M222.2,331v-2.7c1.4,1,2.8,1.5,4.5,1.5c2.2,0,3.3-0.7,3.3-2.2c0-0.4-0.1-0.8-0.3-1.1c-0.2-0.3-0.4-0.5-0.8-0.8
			c-0.3-0.2-0.7-0.4-1.1-0.6c-0.4-0.2-0.9-0.4-1.4-0.6c-0.7-0.3-1.3-0.5-1.8-0.8c-0.5-0.3-1-0.6-1.3-0.9c-0.3-0.3-0.6-0.7-0.8-1.2
			c-0.2-0.4-0.3-1-0.3-1.6c0-0.7,0.2-1.4,0.5-1.9c0.3-0.6,0.8-1,1.3-1.4c0.6-0.4,1.2-0.7,1.9-0.9c0.7-0.2,1.4-0.3,2.2-0.3
			c1.3,0,2.5,0.2,3.6,0.7v2.5c-1.1-0.7-2.5-1.1-3.9-1.1c-0.5,0-0.9,0.1-1.3,0.2c-0.4,0.1-0.7,0.3-1,0.4s-0.5,0.4-0.6,0.7
			c-0.1,0.3-0.2,0.6-0.2,0.9c0,0.4,0.1,0.7,0.2,1c0.1,0.3,0.4,0.5,0.6,0.7c0.3,0.2,0.6,0.4,1,0.6c0.4,0.2,0.9,0.4,1.4,0.6
			c0.7,0.3,1.3,0.5,1.8,0.8c0.5,0.3,1,0.6,1.4,0.9c0.4,0.3,0.7,0.8,0.9,1.2c0.2,0.5,0.3,1,0.3,1.6c0,0.8-0.2,1.4-0.5,2
			s-0.8,1-1.4,1.4c-0.6,0.4-1.2,0.7-2,0.8c-0.7,0.2-1.5,0.3-2.3,0.3C224.8,331.9,223.4,331.6,222.2,331z"/>
		<path d="M238.9,329.3L238.9,329.3l-0.1,9.4h-2.5V316h2.5v2.7h0.1c1.2-2.1,3-3.1,5.4-3.1c2,0,3.6,0.7,4.7,2.1
			c1.1,1.4,1.7,3.2,1.7,5.6c0,2.6-0.6,4.7-1.9,6.2c-1.3,1.6-3,2.3-5.2,2.3C241.5,331.9,240,331,238.9,329.3z M238.8,323.1v2.2
			c0,1.3,0.4,2.4,1.2,3.3c0.8,0.9,1.9,1.3,3.2,1.3c1.5,0,2.7-0.6,3.5-1.7s1.3-2.8,1.3-4.8c0-1.7-0.4-3.1-1.2-4.1
			c-0.8-1-1.9-1.5-3.2-1.5c-1.4,0-2.6,0.5-3.5,1.5C239.2,320.3,238.8,321.5,238.8,323.1z"/>
		<path d="M261,331.9c-2.3,0-4.1-0.7-5.5-2.2s-2.1-3.4-2.1-5.8c0-2.6,0.7-4.6,2.1-6.1c1.4-1.5,3.3-2.2,5.8-2.2
			c2.3,0,4.1,0.7,5.4,2.1c1.3,1.4,1.9,3.4,1.9,5.9c0,2.5-0.7,4.5-2.1,5.9S263.4,331.9,261,331.9z M261.2,317.8
			c-1.6,0-2.9,0.5-3.8,1.6c-0.9,1.1-1.4,2.6-1.4,4.5c0,1.8,0.5,3.3,1.4,4.3c0.9,1.1,2.2,1.6,3.8,1.6c1.6,0,2.8-0.5,3.7-1.6
			c0.9-1,1.3-2.5,1.3-4.4c0-1.9-0.4-3.4-1.3-4.5C264,318.3,262.8,317.8,261.2,317.8z"/>
		<path d="M285.6,331.5h-2.5v-8.8c0-3.3-1.2-4.9-3.6-4.9c-1.2,0-2.3,0.5-3.1,1.4c-0.8,0.9-1.2,2.1-1.2,3.5v8.8h-2.5V316h2.5v2.6h0.1
			c1.2-2,2.9-2.9,5.1-2.9c1.7,0,3,0.5,3.9,1.6c0.9,1.1,1.3,2.7,1.3,4.7V331.5z"/>
		<path d="M303.5,331.5H301v-2.6h-0.1c-1.2,2-2.9,3-5.3,3c-1.9,0-3.5-0.7-4.7-2.1c-1.2-1.4-1.7-3.3-1.7-5.7c0-2.6,0.6-4.6,1.9-6.2
			c1.3-1.5,3-2.3,5.2-2.3c2.1,0,3.7,0.8,4.6,2.5h0.1v-9.6h2.5V331.5z M301,324.5v-2.3c0-1.3-0.4-2.3-1.2-3.2s-1.9-1.3-3.1-1.3
			c-1.5,0-2.7,0.6-3.6,1.7s-1.3,2.6-1.3,4.6c0,1.8,0.4,3.2,1.2,4.2c0.8,1,2,1.6,3.4,1.6c1.4,0,2.5-0.5,3.4-1.5
			C300.6,327.3,301,326.1,301,324.5z"/>
		<path d="M321,324.4H310c0,1.7,0.5,3.1,1.4,4c0.9,0.9,2.1,1.4,3.7,1.4c1.7,0,3.4-0.6,4.8-1.7v2.3c-1.4,1-3.2,1.5-5.4,1.5
			c-2.2,0-3.9-0.7-5.2-2.1c-1.3-1.4-1.9-3.4-1.9-5.9c0-2.4,0.7-4.4,2.1-5.9s3.1-2.3,5.1-2.3s3.6,0.7,4.7,2c1.1,1.3,1.7,3.1,1.7,5.5
			V324.4z M318.4,322.3c0-1.4-0.4-2.5-1-3.3c-0.7-0.8-1.6-1.2-2.8-1.2c-1.2,0-2.2,0.4-3,1.3c-0.8,0.8-1.3,1.9-1.5,3.3H318.4z"/>
		<path d="M356.8,331.5h-2.5v-2.4h-0.1c-1.1,1.9-2.7,2.8-4.8,2.8c-1.5,0-2.8-0.4-3.6-1.2c-0.9-0.8-1.3-1.9-1.3-3.3
			c0-2.9,1.7-4.6,5.1-5.1l4.6-0.7c0-2.6-1.1-4-3.2-4c-1.9,0-3.6,0.6-5.1,1.9v-2.5c1.5-1,3.3-1.5,5.3-1.5c3.6,0,5.5,1.9,5.5,5.8
			V331.5z M354.4,323.7l-3.7,0.5c-1.2,0.2-2,0.4-2.6,0.9c-0.6,0.4-0.9,1.1-0.9,2.2c0,0.8,0.3,1.4,0.8,1.9s1.3,0.7,2.2,0.7
			c1.2,0,2.2-0.4,3-1.3c0.8-0.9,1.2-2,1.2-3.3V323.7z"/>
		<path d="M23,361.6H12c0,1.7,0.5,3.1,1.4,4c0.9,0.9,2.1,1.4,3.7,1.4c1.7,0,3.4-0.6,4.8-1.7v2.3c-1.4,1-3.2,1.5-5.4,1.5
			c-2.2,0-3.9-0.7-5.2-2.1c-1.3-1.4-1.9-3.4-1.9-5.9c0-2.4,0.7-4.4,2.1-5.9c1.4-1.5,3.1-2.3,5.1-2.3s3.6,0.7,4.7,2
			c1.1,1.3,1.7,3.1,1.7,5.5V361.6z M20.4,359.5c0-1.4-0.4-2.5-1-3.3c-0.7-0.8-1.6-1.2-2.8-1.2c-1.2,0-2.2,0.4-3,1.3
			c-0.8,0.8-1.3,1.9-1.5,3.3H20.4z"/>
		<path d="M29.2,368.7h-2.5v-22.9h2.5V368.7z"/>
		<path d="M56.1,368.7h-2.5v-2.4h-0.1c-1.1,1.9-2.7,2.8-4.8,2.8c-1.5,0-2.8-0.4-3.6-1.2c-0.9-0.8-1.3-1.9-1.3-3.3
			c0-2.9,1.7-4.6,5.1-5.1l4.6-0.7c0-2.6-1.1-4-3.2-4c-1.9,0-3.6,0.6-5.1,1.9v-2.5c1.5-1,3.3-1.5,5.3-1.5c3.6,0,5.5,1.9,5.5,5.8
			V368.7z M53.6,360.9l-3.7,0.5c-1.2,0.2-2,0.4-2.6,0.9c-0.6,0.4-0.9,1.1-0.9,2.2c0,0.8,0.3,1.4,0.8,1.9c0.5,0.5,1.3,0.7,2.2,0.7
			c1.2,0,2.2-0.4,3-1.3c0.8-0.9,1.2-2,1.2-3.3V360.9z M53.9,345.3l-4,5H48l3.4-5H53.9z"/>
		<path d="M73.6,368.7h-2.5v-8.8c0-3.3-1.2-4.9-3.6-4.9c-1.2,0-2.3,0.5-3.1,1.4c-0.8,0.9-1.2,2.1-1.2,3.5v8.8h-2.5v-15.5h2.5v2.6
			h0.1c1.2-2,2.9-2.9,5.1-2.9c1.7,0,3,0.5,3.9,1.6c0.9,1.1,1.3,2.7,1.3,4.7V368.7z"/>
		<path d="M91.5,367.5c0,5.7-2.7,8.5-8.2,8.5c-1.9,0-3.6-0.4-5-1.1v-2.5c1.7,1,3.4,1.5,5,1.5c3.8,0,5.7-2,5.7-6.1v-1.7H89
			c-1.2,2-3,3-5.3,3c-1.9,0-3.5-0.7-4.7-2.1c-1.2-1.4-1.8-3.2-1.8-5.5c0-2.6,0.6-4.7,1.9-6.3c1.3-1.6,3-2.3,5.2-2.3
			c2.1,0,3.6,0.8,4.6,2.5H89v-2.1h2.5V367.5z M89,361.7v-2.3c0-1.2-0.4-2.3-1.2-3.2c-0.8-0.9-1.9-1.3-3.1-1.3
			c-1.5,0-2.7,0.6-3.6,1.7c-0.9,1.1-1.3,2.7-1.3,4.7c0,1.7,0.4,3.1,1.2,4.1c0.8,1,1.9,1.6,3.3,1.6c1.4,0,2.5-0.5,3.4-1.5
			C88.6,364.5,89,363.3,89,361.7z"/>
		<path d="M109.1,368.7h-2.5v-2.5h-0.1c-1,1.9-2.6,2.8-4.8,2.8c-3.7,0-5.5-2.2-5.5-6.6v-9.3h2.5v8.9c0,3.3,1.3,4.9,3.8,4.9
			c1.2,0,2.2-0.4,3-1.3c0.8-0.9,1.2-2.1,1.2-3.5v-8.9h2.5V368.7z"/>
		<path d="M116.6,368.7h-2.5v-22.9h2.5V368.7z"/>
		<path d="M128.1,369.1c-2.3,0-4.1-0.7-5.5-2.2c-1.4-1.4-2.1-3.4-2.1-5.8c0-2.6,0.7-4.6,2.1-6.1c1.4-1.5,3.3-2.2,5.8-2.2
			c2.3,0,4.1,0.7,5.4,2.1c1.3,1.4,1.9,3.4,1.9,5.9c0,2.5-0.7,4.5-2.1,5.9C132.3,368.4,130.4,369.1,128.1,369.1z M128.3,355
			c-1.6,0-2.9,0.5-3.8,1.6c-0.9,1.1-1.4,2.6-1.4,4.5c0,1.8,0.5,3.3,1.4,4.3c0.9,1.1,2.2,1.6,3.8,1.6c1.6,0,2.8-0.5,3.7-1.6
			c0.9-1,1.3-2.5,1.3-4.4c0-1.9-0.4-3.4-1.3-4.5C131.1,355.5,129.9,355,128.3,355z"/>
		<path d="M163.7,375.9h-2.5v-9.8h-0.1c-1.1,2-2.8,3-5.3,3c-1.9,0-3.5-0.7-4.7-2.1c-1.2-1.4-1.8-3.3-1.8-5.7c0-2.6,0.6-4.6,1.9-6.2
			c1.3-1.5,3-2.3,5.2-2.3c2.1,0,3.7,0.8,4.6,2.5h0.1v-2.1h2.5V375.9z M161.3,361.8v-2.3c0-1.3-0.4-2.3-1.2-3.2
			c-0.8-0.9-1.9-1.3-3.2-1.3c-1.5,0-2.7,0.6-3.5,1.7c-0.9,1.1-1.3,2.7-1.3,4.7c0,1.8,0.4,3.2,1.3,4.2c0.8,1,1.9,1.5,3.2,1.5
			c1.5,0,2.6-0.5,3.5-1.5C160.8,364.5,161.3,363.3,161.3,361.8z"/>
		<path d="M181.3,368.7h-2.5v-2.5h-0.1c-1,1.9-2.6,2.8-4.8,2.8c-3.7,0-5.5-2.2-5.5-6.6v-9.3h2.5v8.9c0,3.3,1.3,4.9,3.8,4.9
			c1.2,0,2.2-0.4,3-1.3c0.8-0.9,1.2-2.1,1.2-3.5v-8.9h2.5V368.7z"/>
		<path d="M198.8,361.6h-10.9c0,1.7,0.5,3.1,1.4,4c0.9,0.9,2.1,1.4,3.7,1.4c1.7,0,3.4-0.6,4.8-1.7v2.3c-1.4,1-3.2,1.5-5.4,1.5
			c-2.2,0-3.9-0.7-5.2-2.1c-1.3-1.4-1.9-3.4-1.9-5.9c0-2.4,0.7-4.4,2.1-5.9s3.1-2.3,5.1-2.3s3.6,0.7,4.7,2c1.1,1.3,1.7,3.1,1.7,5.5
			V361.6z M196.2,359.5c0-1.4-0.4-2.5-1-3.3c-0.7-0.8-1.6-1.2-2.8-1.2c-1.2,0-2.2,0.4-3,1.3c-0.8,0.8-1.3,1.9-1.5,3.3H196.2z"/>
		<path d="M220.9,348c-0.5-0.3-1-0.4-1.7-0.4c-1.7,0-2.6,1.1-2.6,3.3v2.4h3.6v2.1h-3.6v13.4h-2.5v-13.4h-2.6v-2.1h2.6v-2.5
			c0-1.6,0.5-2.9,1.4-3.9c0.9-0.9,2.1-1.4,3.5-1.4c0.8,0,1.4,0.1,1.8,0.3V348z"/>
		<path d="M229.5,369.1c-2.3,0-4.1-0.7-5.5-2.2s-2.1-3.4-2.1-5.8c0-2.6,0.7-4.6,2.1-6.1c1.4-1.5,3.3-2.2,5.8-2.2
			c2.3,0,4.1,0.7,5.4,2.1c1.3,1.4,1.9,3.4,1.9,5.9c0,2.5-0.7,4.5-2.1,5.9S231.8,369.1,229.5,369.1z M229.6,355
			c-1.6,0-2.9,0.5-3.8,1.6c-0.9,1.1-1.4,2.6-1.4,4.5c0,1.8,0.5,3.3,1.4,4.3c0.9,1.1,2.2,1.6,3.8,1.6c1.6,0,2.8-0.5,3.7-1.6
			c0.9-1,1.3-2.5,1.3-4.4c0-1.9-0.4-3.4-1.3-4.5C232.5,355.5,231.2,355,229.6,355z"/>
		<path d="M249.2,355.8c-0.4-0.3-1.1-0.5-1.9-0.5c-1.1,0-1.9,0.5-2.7,1.5c-0.7,1-1.1,2.4-1.1,4.1v7.9h-2.5v-15.5h2.5v3.2h0.1
			c0.4-1.1,0.9-1.9,1.6-2.5s1.5-0.9,2.4-0.9c0.6,0,1.1,0.1,1.5,0.2V355.8z"/>
		<path d="M273.9,368.7h-2.5v-8.9c0-1.7-0.3-3-0.8-3.7c-0.5-0.8-1.4-1.2-2.7-1.2c-1.1,0-2,0.5-2.7,1.5c-0.7,1-1.1,2.1-1.1,3.5v8.8
			h-2.5v-9.2c0-3-1.2-4.6-3.5-4.6c-1.1,0-2,0.5-2.7,1.4s-1.1,2.1-1.1,3.6v8.8h-2.5v-15.5h2.5v2.5h0.1c1.1-1.9,2.7-2.8,4.8-2.8
			c1.1,0,2,0.3,2.8,0.9c0.8,0.6,1.3,1.4,1.6,2.3c1.2-2.1,2.9-3.2,5.1-3.2c3.4,0,5.1,2.1,5.1,6.3V368.7z"/>
		<path d="M289.7,368.7h-2.5v-2.4h-0.1c-1.1,1.9-2.7,2.8-4.8,2.8c-1.5,0-2.8-0.4-3.6-1.2c-0.9-0.8-1.3-1.9-1.3-3.3
			c0-2.9,1.7-4.6,5.1-5.1l4.6-0.7c0-2.6-1.1-4-3.2-4c-1.9,0-3.6,0.6-5.1,1.9v-2.5c1.5-1,3.3-1.5,5.3-1.5c3.6,0,5.5,1.9,5.5,5.8
			V368.7z M287.2,360.9l-3.7,0.5c-1.2,0.2-2,0.4-2.6,0.9c-0.6,0.4-0.9,1.1-0.9,2.2c0,0.8,0.3,1.4,0.8,1.9s1.3,0.7,2.2,0.7
			c1.2,0,2.2-0.4,3-1.3c0.8-0.9,1.2-2,1.2-3.3V360.9z"/>
		<path d="M307.3,368.7h-2.5v-8.8c0-3.3-1.2-4.9-3.6-4.9c-1.2,0-2.3,0.5-3.1,1.4c-0.8,0.9-1.2,2.1-1.2,3.5v8.8h-2.5v-15.5h2.5v2.6
			h0.1c1.2-2,2.9-2.9,5.1-2.9c1.7,0,3,0.5,3.9,1.6c0.9,1.1,1.3,2.7,1.3,4.7V368.7z"/>
		<path d="M325.2,368.7h-2.5v-22.9h2.5V368.7z"/>
		<path d="M336.7,369.1c-2.3,0-4.1-0.7-5.5-2.2s-2.1-3.4-2.1-5.8c0-2.6,0.7-4.6,2.1-6.1c1.4-1.5,3.3-2.2,5.8-2.2
			c2.3,0,4.1,0.7,5.4,2.1c1.3,1.4,1.9,3.4,1.9,5.9c0,2.5-0.7,4.5-2.1,5.9S339,369.1,336.7,369.1z M336.9,355c-1.6,0-2.9,0.5-3.8,1.6
			c-0.9,1.1-1.4,2.6-1.4,4.5c0,1.8,0.5,3.3,1.4,4.3c0.9,1.1,2.2,1.6,3.8,1.6c1.6,0,2.8-0.5,3.7-1.6c0.9-1,1.3-2.5,1.3-4.4
			c0-1.9-0.4-3.4-1.3-4.5C339.7,355.5,338.5,355,336.9,355z"/>
		<path d="M347.4,368.2v-2.7c1.4,1,2.8,1.5,4.5,1.5c2.2,0,3.3-0.7,3.3-2.2c0-0.4-0.1-0.8-0.3-1.1c-0.2-0.3-0.4-0.5-0.8-0.8
			c-0.3-0.2-0.7-0.4-1.1-0.6c-0.4-0.2-0.9-0.4-1.4-0.6c-0.7-0.3-1.3-0.5-1.8-0.8c-0.5-0.3-1-0.6-1.3-0.9c-0.3-0.3-0.6-0.7-0.8-1.2
			c-0.2-0.4-0.3-1-0.3-1.6c0-0.7,0.2-1.4,0.5-1.9c0.3-0.6,0.8-1,1.3-1.4c0.6-0.4,1.2-0.7,1.9-0.9c0.7-0.2,1.4-0.3,2.2-0.3
			c1.3,0,2.5,0.2,3.6,0.7v2.5c-1.1-0.7-2.5-1.1-3.9-1.1c-0.5,0-0.9,0.1-1.3,0.2c-0.4,0.1-0.7,0.3-1,0.4s-0.5,0.4-0.6,0.7
			c-0.1,0.3-0.2,0.6-0.2,0.9c0,0.4,0.1,0.7,0.2,1c0.1,0.3,0.4,0.5,0.6,0.7c0.3,0.2,0.6,0.4,1,0.6c0.4,0.2,0.9,0.4,1.4,0.6
			c0.7,0.3,1.3,0.5,1.8,0.8c0.5,0.3,1,0.6,1.4,0.9c0.4,0.3,0.7,0.8,0.9,1.2c0.2,0.5,0.3,1,0.3,1.6c0,0.8-0.2,1.4-0.5,2
			s-0.8,1-1.4,1.4c-0.6,0.4-1.2,0.7-2,0.8c-0.7,0.2-1.5,0.3-2.3,0.3C350,369.1,348.6,368.8,347.4,368.2z"/>
		<path d="M22.7,390.4l-6.2,15.5h-2.4l-5.9-15.5h2.7l3.9,11.3c0.3,0.8,0.5,1.5,0.5,2.2h0.1c0.1-0.8,0.3-1.5,0.5-2.1l4.1-11.3H22.7z"
			/>
		<path d="M37.8,398.8H26.9c0,1.7,0.5,3.1,1.4,4c0.9,0.9,2.1,1.4,3.7,1.4c1.7,0,3.4-0.6,4.8-1.7v2.3c-1.4,1-3.2,1.5-5.4,1.5
			c-2.2,0-3.9-0.7-5.2-2.1c-1.3-1.4-1.9-3.4-1.9-5.9c0-2.4,0.7-4.4,2.1-5.9c1.4-1.5,3.1-2.3,5.1-2.3s3.6,0.7,4.7,2
			c1.1,1.3,1.7,3.1,1.7,5.5V398.8z M35.3,396.7c0-1.4-0.4-2.5-1-3.3c-0.7-0.8-1.6-1.2-2.8-1.2c-1.2,0-2.2,0.4-3,1.3
			c-0.8,0.8-1.3,1.9-1.5,3.3H35.3z"/>
		<path d="M52.1,405.2c-1.2,0.7-2.6,1.1-4.2,1.1c-2.2,0-4-0.7-5.4-2.2c-1.4-1.4-2-3.3-2-5.6c0-2.6,0.7-4.6,2.2-6.2
			c1.5-1.5,3.4-2.3,5.9-2.3c1.4,0,2.6,0.3,3.6,0.8v2.5c-1.2-0.8-2.4-1.2-3.7-1.2c-1.6,0-2.9,0.6-3.9,1.7c-1,1.1-1.5,2.6-1.5,4.5
			c0,1.8,0.5,3.2,1.4,4.3c1,1,2.2,1.6,3.8,1.6c1.4,0,2.6-0.4,3.8-1.3V405.2z"/>
		<path d="M63.1,405.8c-0.6,0.3-1.4,0.5-2.3,0.5c-2.7,0-4.1-1.5-4.1-4.5v-9.2H54v-2.1h2.7v-3.8l2.5-0.8v4.6h3.9v2.1h-3.9v8.7
			c0,1,0.2,1.8,0.5,2.2c0.4,0.4,0.9,0.7,1.8,0.7c0.6,0,1.2-0.2,1.6-0.5V405.8z"/>
		<path d="M72.9,406.3c-2.3,0-4.1-0.7-5.5-2.2c-1.4-1.4-2.1-3.4-2.1-5.8c0-2.6,0.7-4.6,2.1-6.1c1.4-1.5,3.3-2.2,5.8-2.2
			c2.3,0,4.1,0.7,5.4,2.1c1.3,1.4,1.9,3.4,1.9,5.9c0,2.5-0.7,4.5-2.1,5.9C77.1,405.6,75.2,406.3,72.9,406.3z M73.1,392.2
			c-1.6,0-2.9,0.5-3.8,1.6c-0.9,1.1-1.4,2.6-1.4,4.5c0,1.8,0.5,3.3,1.4,4.3c0.9,1.1,2.2,1.6,3.8,1.6c1.6,0,2.8-0.5,3.7-1.6
			c0.9-1,1.3-2.5,1.3-4.4c0-1.9-0.4-3.4-1.3-4.5C75.9,392.7,74.7,392.2,73.1,392.2z"/>
		<path d="M92.6,393c-0.4-0.3-1.1-0.5-1.9-0.5c-1.1,0-1.9,0.5-2.7,1.5c-0.7,1-1.1,2.4-1.1,4.1v7.9h-2.5v-15.5H87v3.2h0.1
			c0.4-1.1,0.9-1.9,1.6-2.5s1.5-0.9,2.4-0.9c0.6,0,1.1,0.1,1.5,0.2V393z"/>
		<path d="M107.8,398.8H96.9c0,1.7,0.5,3.1,1.4,4c0.9,0.9,2.1,1.4,3.7,1.4c1.7,0,3.4-0.6,4.8-1.7v2.3c-1.4,1-3.2,1.5-5.4,1.5
			c-2.2,0-3.9-0.7-5.2-2.1c-1.3-1.4-1.9-3.4-1.9-5.9c0-2.4,0.7-4.4,2.1-5.9c1.4-1.5,3.1-2.3,5.1-2.3s3.6,0.7,4.7,2
			c1.1,1.3,1.7,3.1,1.7,5.5V398.8z M105.3,396.7c0-1.4-0.4-2.5-1-3.3c-0.7-0.8-1.6-1.2-2.8-1.2c-1.2,0-2.2,0.4-3,1.3
			c-0.8,0.8-1.3,1.9-1.5,3.3H105.3z"/>
		<path d="M110.6,405.4v-2.7c1.4,1,2.8,1.5,4.5,1.5c2.2,0,3.3-0.7,3.3-2.2c0-0.4-0.1-0.8-0.3-1.1c-0.2-0.3-0.4-0.5-0.8-0.8
			c-0.3-0.2-0.7-0.4-1.1-0.6c-0.4-0.2-0.9-0.4-1.4-0.6c-0.7-0.3-1.3-0.5-1.8-0.8c-0.5-0.3-1-0.6-1.3-0.9c-0.3-0.3-0.6-0.7-0.8-1.2
			c-0.2-0.4-0.3-1-0.3-1.6c0-0.7,0.2-1.4,0.5-1.9c0.3-0.6,0.8-1,1.3-1.4c0.6-0.4,1.2-0.7,1.9-0.9c0.7-0.2,1.4-0.3,2.2-0.3
			c1.3,0,2.5,0.2,3.6,0.7v2.5c-1.1-0.7-2.5-1.1-3.9-1.1c-0.5,0-0.9,0.1-1.3,0.2c-0.4,0.1-0.7,0.3-1,0.4c-0.3,0.2-0.5,0.4-0.6,0.7
			c-0.1,0.3-0.2,0.6-0.2,0.9c0,0.4,0.1,0.7,0.2,1c0.1,0.3,0.4,0.5,0.6,0.7c0.3,0.2,0.6,0.4,1,0.6c0.4,0.2,0.9,0.4,1.4,0.6
			c0.7,0.3,1.3,0.5,1.8,0.8c0.5,0.3,1,0.6,1.4,0.9c0.4,0.3,0.7,0.8,0.9,1.2c0.2,0.5,0.3,1,0.3,1.6c0,0.8-0.2,1.4-0.5,2
			c-0.3,0.6-0.8,1-1.4,1.4c-0.6,0.4-1.2,0.7-2,0.8c-0.7,0.2-1.5,0.3-2.3,0.3C113.2,406.3,111.8,406,110.6,405.4z"/>
		<path d="M150.1,405.9h-2.8l-2.3-6.1h-9.2l-2.2,6.1h-2.8l8.3-21.7h2.6L150.1,405.9z M144.1,397.6l-3.4-9.2
			c-0.1-0.3-0.2-0.8-0.3-1.5h-0.1c-0.1,0.6-0.2,1.1-0.3,1.5l-3.4,9.2H144.1z"/>
		<path d="M173.5,390.4l-7.1,18c-1.3,3.2-3.1,4.8-5.4,4.8c-0.6,0-1.2-0.1-1.6-0.2v-2.2c0.5,0.2,1,0.3,1.5,0.3c1.3,0,2.2-0.7,2.8-2.2
			l1.2-2.9l-6.1-15.5h2.8l4.2,11.9c0.1,0.2,0.2,0.5,0.3,1.2h0.1c0.1-0.2,0.2-0.6,0.3-1.2l4.4-12H173.5z"/>
		<path d="M184.7,405.9v-21.7h6.2c1.9,0,3.4,0.5,4.5,1.4c1.1,0.9,1.7,2.1,1.7,3.6c0,1.2-0.3,2.3-1,3.2s-1.6,1.6-2.8,1.9v0.1
			c1.5,0.2,2.6,0.7,3.5,1.7c0.9,0.9,1.3,2.1,1.3,3.6c0,1.9-0.7,3.4-2,4.5s-3,1.7-5,1.7H184.7z M187.3,386.5v7h2.6
			c1.4,0,2.5-0.3,3.3-1c0.8-0.7,1.2-1.6,1.2-2.8c0-2.1-1.4-3.2-4.2-3.2H187.3z M187.3,395.8v7.8h3.5c1.5,0,2.7-0.4,3.5-1.1
			s1.2-1.7,1.2-2.9c0-2.6-1.7-3.8-5.2-3.8H187.3z"/>
		<path d="M222.8,398.8h-10.9c0,1.7,0.5,3.1,1.4,4c0.9,0.9,2.1,1.4,3.7,1.4c1.7,0,3.4-0.6,4.8-1.7v2.3c-1.4,1-3.2,1.5-5.4,1.5
			c-2.2,0-3.9-0.7-5.2-2.1c-1.3-1.4-1.9-3.4-1.9-5.9c0-2.4,0.7-4.4,2.1-5.9s3.1-2.3,5.1-2.3s3.6,0.7,4.7,2c1.1,1.3,1.7,3.1,1.7,5.5
			V398.8z M220.3,396.7c0-1.4-0.4-2.5-1-3.3c-0.7-0.8-1.6-1.2-2.8-1.2c-1.2,0-2.2,0.4-3,1.3c-0.8,0.8-1.3,1.9-1.5,3.3H220.3z"/>
		<path d="M239.5,405.9H237v-8.8c0-3.3-1.2-4.9-3.6-4.9c-1.2,0-2.3,0.5-3.1,1.4c-0.8,0.9-1.2,2.1-1.2,3.5v8.8h-2.5v-15.5h2.5v2.6
			h0.1c1.2-2,2.9-2.9,5.1-2.9c1.7,0,3,0.5,3.9,1.6c0.9,1.1,1.3,2.7,1.3,4.7V405.9z"/>
		<path d="M264.8,398.8h-10.9c0,1.7,0.5,3.1,1.4,4c0.9,0.9,2.1,1.4,3.7,1.4c1.7,0,3.4-0.6,4.8-1.7v2.3c-1.4,1-3.2,1.5-5.4,1.5
			c-2.2,0-3.9-0.7-5.2-2.1c-1.3-1.4-1.9-3.4-1.9-5.9c0-2.4,0.7-4.4,2.1-5.9s3.1-2.3,5.1-2.3s3.6,0.7,4.7,2c1.1,1.3,1.7,3.1,1.7,5.5
			V398.8z M262.3,396.7c0-1.4-0.4-2.5-1-3.3c-0.7-0.8-1.6-1.2-2.8-1.2c-1.2,0-2.2,0.4-3,1.3c-0.8,0.8-1.3,1.9-1.5,3.3H262.3z"/>
		<path d="M271,405.9h-2.5V383h2.5V405.9z"/>
		<path d="M286.8,403.7L286.8,403.7l-0.1,9.4h-2.5v-22.6h2.5v2.7h0.1c1.2-2.1,3-3.1,5.4-3.1c2,0,3.6,0.7,4.7,2.1
			c1.1,1.4,1.7,3.2,1.7,5.6c0,2.6-0.6,4.7-1.9,6.2c-1.3,1.6-3,2.3-5.2,2.3C289.5,406.3,287.9,405.4,286.8,403.7z M286.8,397.5v2.2
			c0,1.3,0.4,2.4,1.2,3.3c0.8,0.9,1.9,1.3,3.2,1.3c1.5,0,2.7-0.6,3.5-1.7s1.3-2.8,1.3-4.8c0-1.7-0.4-3.1-1.2-4.1
			c-0.8-1-1.9-1.5-3.2-1.5c-1.4,0-2.6,0.5-3.5,1.5C287.2,394.7,286.8,395.9,286.8,397.5z"/>
		<path d="M305,405.9h-2.5V383h2.5V405.9z"/>
		<path d="M321.1,405.9h-2.5v-2.4h-0.1c-1.1,1.9-2.7,2.8-4.8,2.8c-1.5,0-2.8-0.4-3.6-1.2c-0.9-0.8-1.3-1.9-1.3-3.3
			c0-2.9,1.7-4.6,5.1-5.1l4.6-0.7c0-2.6-1.1-4-3.2-4c-1.9,0-3.6,0.6-5.1,1.9v-2.5c1.5-1,3.3-1.5,5.3-1.5c3.6,0,5.5,1.9,5.5,5.8
			V405.9z M318.6,398.1l-3.7,0.5c-1.2,0.2-2,0.4-2.6,0.9c-0.6,0.4-0.9,1.1-0.9,2.2c0,0.8,0.3,1.4,0.8,1.9s1.3,0.7,2.2,0.7
			c1.2,0,2.2-0.4,3-1.3c0.8-0.9,1.2-2,1.2-3.3V398.1z"/>
		<path d="M338.7,405.9h-2.5v-8.8c0-3.3-1.2-4.9-3.6-4.9c-1.2,0-2.3,0.5-3.1,1.4c-0.8,0.9-1.2,2.1-1.2,3.5v8.8h-2.5v-15.5h2.5v2.6
			h0.1c1.2-2,2.9-2.9,5.1-2.9c1.7,0,3,0.5,3.9,1.6c0.9,1.1,1.3,2.7,1.3,4.7V405.9z"/>
		<path d="M349.8,406.3c-2.3,0-4.1-0.7-5.5-2.2s-2.1-3.4-2.1-5.8c0-2.6,0.7-4.6,2.1-6.1c1.4-1.5,3.3-2.2,5.8-2.2
			c2.3,0,4.1,0.7,5.4,2.1c1.3,1.4,1.9,3.4,1.9,5.9c0,2.5-0.7,4.5-2.1,5.9S352.2,406.3,349.8,406.3z M350,392.2
			c-1.6,0-2.9,0.5-3.8,1.6c-0.9,1.1-1.4,2.6-1.4,4.5c0,1.8,0.5,3.3,1.4,4.3c0.9,1.1,2.2,1.6,3.8,1.6c1.6,0,2.8-0.5,3.7-1.6
			c0.9-1,1.3-2.5,1.3-4.4c0-1.9-0.4-3.4-1.3-4.5C352.8,392.7,351.6,392.2,350,392.2z"/>
		<path d="M23.7,450.3h-2.5v-9.8h-0.1c-1.1,2-2.8,3-5.3,3c-1.9,0-3.5-0.7-4.7-2.1c-1.2-1.4-1.8-3.3-1.8-5.7c0-2.6,0.6-4.6,1.9-6.2
			c1.3-1.5,3-2.3,5.2-2.3c2.1,0,3.7,0.8,4.6,2.5h0.1v-2.1h2.5V450.3z M21.3,436.2v-2.3c0-1.3-0.4-2.3-1.2-3.2
			c-0.8-0.9-1.9-1.3-3.2-1.3c-1.5,0-2.7,0.6-3.5,1.7c-0.9,1.1-1.3,2.7-1.3,4.7c0,1.8,0.4,3.2,1.3,4.2c0.8,1,1.9,1.5,3.2,1.5
			c1.5,0,2.6-0.5,3.5-1.5C20.8,438.9,21.3,437.7,21.3,436.2z"/>
		<path d="M41.3,443.1h-2.5v-2.5h-0.1c-1,1.9-2.6,2.8-4.8,2.8c-3.7,0-5.5-2.2-5.5-6.6v-9.3h2.5v8.9c0,3.3,1.3,4.9,3.8,4.9
			c1.2,0,2.2-0.4,3-1.3c0.8-0.9,1.2-2.1,1.2-3.5v-8.9h2.5V443.1z"/>
		<path d="M58.8,436H47.8c0,1.7,0.5,3.1,1.4,4c0.9,0.9,2.1,1.4,3.7,1.4c1.7,0,3.4-0.6,4.8-1.7v2.3c-1.4,1-3.2,1.5-5.4,1.5
			c-2.2,0-3.9-0.7-5.2-2.1c-1.3-1.4-1.9-3.4-1.9-5.9c0-2.4,0.7-4.4,2.1-5.9c1.4-1.5,3.1-2.3,5.1-2.3s3.6,0.7,4.7,2
			c1.1,1.3,1.7,3.1,1.7,5.5V436z M56.2,433.9c0-1.4-0.4-2.5-1-3.3c-0.7-0.8-1.6-1.2-2.8-1.2c-1.2,0-2.2,0.4-3,1.3
			c-0.8,0.8-1.3,1.9-1.5,3.3H56.2z"/>
		<path d="M132.7,443.1h-2.5v-22.9h2.5V443.1z"/>
		<path d="M144.2,443.5c-2.3,0-4.1-0.7-5.5-2.2c-1.4-1.4-2.1-3.4-2.1-5.8c0-2.6,0.7-4.6,2.1-6.1c1.4-1.5,3.3-2.2,5.8-2.2
			c2.3,0,4.1,0.7,5.4,2.1c1.3,1.4,1.9,3.4,1.9,5.9c0,2.5-0.7,4.5-2.1,5.9C148.5,442.8,146.6,443.5,144.2,443.5z M144.4,429.4
			c-1.6,0-2.9,0.5-3.8,1.6c-0.9,1.1-1.4,2.6-1.4,4.5c0,1.8,0.5,3.3,1.4,4.3c0.9,1.1,2.2,1.6,3.8,1.6c1.6,0,2.8-0.5,3.7-1.6
			c0.9-1,1.3-2.5,1.3-4.4c0-1.9-0.4-3.4-1.3-4.5C147.2,429.9,146,429.4,144.4,429.4z"/>
		<path d="M155,442.6v-2.7c1.4,1,2.8,1.5,4.5,1.5c2.2,0,3.3-0.7,3.3-2.2c0-0.4-0.1-0.8-0.3-1.1c-0.2-0.3-0.4-0.5-0.8-0.8
			c-0.3-0.2-0.7-0.4-1.1-0.6c-0.4-0.2-0.9-0.4-1.4-0.6c-0.7-0.3-1.3-0.5-1.8-0.8c-0.5-0.3-1-0.6-1.3-0.9c-0.3-0.3-0.6-0.7-0.8-1.2
			c-0.2-0.4-0.3-1-0.3-1.6c0-0.7,0.2-1.4,0.5-1.9c0.3-0.6,0.8-1,1.3-1.4c0.6-0.4,1.2-0.7,1.9-0.9c0.7-0.2,1.4-0.3,2.2-0.3
			c1.3,0,2.5,0.2,3.6,0.7v2.5c-1.1-0.7-2.5-1.1-3.9-1.1c-0.5,0-0.9,0.1-1.3,0.2c-0.4,0.1-0.7,0.3-1,0.4c-0.3,0.2-0.5,0.4-0.6,0.7
			c-0.1,0.3-0.2,0.6-0.2,0.9c0,0.4,0.1,0.7,0.2,1c0.1,0.3,0.4,0.5,0.6,0.7c0.3,0.2,0.6,0.4,1,0.6c0.4,0.2,0.9,0.4,1.4,0.6
			c0.7,0.3,1.3,0.5,1.8,0.8c0.5,0.3,1,0.6,1.4,0.9c0.4,0.3,0.7,0.8,0.9,1.2c0.2,0.5,0.3,1,0.3,1.6c0,0.8-0.2,1.4-0.5,2
			c-0.3,0.6-0.8,1-1.4,1.4c-0.6,0.4-1.2,0.7-2,0.8c-0.7,0.2-1.5,0.3-2.3,0.3C157.5,443.5,156.1,443.2,155,442.6z"/>
		<path d="M247.4,442.4c-1.2,0.7-2.6,1.1-4.2,1.1c-2.2,0-4-0.7-5.4-2.2c-1.4-1.4-2-3.3-2-5.6c0-2.6,0.7-4.6,2.2-6.2
			c1.5-1.5,3.4-2.3,5.9-2.3c1.4,0,2.6,0.3,3.6,0.8v2.5c-1.2-0.8-2.4-1.2-3.7-1.2c-1.6,0-2.9,0.6-3.9,1.7c-1,1.1-1.5,2.6-1.5,4.5
			c0,1.8,0.5,3.2,1.4,4.3c1,1,2.2,1.6,3.8,1.6c1.4,0,2.6-0.4,3.8-1.3V442.4z"/>
		<path d="M257.6,443.5c-2.3,0-4.1-0.7-5.5-2.2s-2.1-3.4-2.1-5.8c0-2.6,0.7-4.6,2.1-6.1c1.4-1.5,3.3-2.2,5.8-2.2
			c2.3,0,4.1,0.7,5.4,2.1c1.3,1.4,1.9,3.4,1.9,5.9c0,2.5-0.7,4.5-2.1,5.9S259.9,443.5,257.6,443.5z M257.8,429.4
			c-1.6,0-2.9,0.5-3.8,1.6c-0.9,1.1-1.4,2.6-1.4,4.5c0,1.8,0.5,3.3,1.4,4.3c0.9,1.1,2.2,1.6,3.8,1.6c1.6,0,2.8-0.5,3.7-1.6
			c0.9-1,1.3-2.5,1.3-4.4c0-1.9-0.4-3.4-1.3-4.5C260.6,429.9,259.4,429.4,257.8,429.4z"/>
		<path d="M282.1,443.1h-2.5v-8.8c0-3.3-1.2-4.9-3.6-4.9c-1.2,0-2.3,0.5-3.1,1.4c-0.8,0.9-1.2,2.1-1.2,3.5v8.8h-2.5v-15.5h2.5v2.6
			h0.1c1.2-2,2.9-2.9,5.1-2.9c1.7,0,3,0.5,3.9,1.6c0.9,1.1,1.3,2.7,1.3,4.7V443.1z"/>
		<path d="M294,443c-0.6,0.3-1.4,0.5-2.3,0.5c-2.7,0-4.1-1.5-4.1-4.5v-9.2H285v-2.1h2.7v-3.8l2.5-0.8v4.6h3.9v2.1h-3.9v8.7
			c0,1,0.2,1.8,0.5,2.2s0.9,0.7,1.8,0.7c0.6,0,1.2-0.2,1.6-0.5V443z"/>
		<path d="M298.6,423.7c-0.4,0-0.8-0.2-1.1-0.5c-0.3-0.3-0.5-0.7-0.5-1.2s0.2-0.8,0.5-1.2c0.3-0.3,0.7-0.5,1.1-0.5
			c0.5,0,0.8,0.2,1.2,0.5c0.3,0.3,0.5,0.7,0.5,1.2c0,0.4-0.2,0.8-0.5,1.1C299.4,423.6,299,423.7,298.6,423.7z M299.8,443.1h-2.5
			v-15.5h2.5V443.1z"/>
		<path d="M317.3,436h-10.9c0,1.7,0.5,3.1,1.4,4c0.9,0.9,2.1,1.4,3.7,1.4c1.7,0,3.4-0.6,4.8-1.7v2.3c-1.4,1-3.2,1.5-5.4,1.5
			c-2.2,0-3.9-0.7-5.2-2.1c-1.3-1.4-1.9-3.4-1.9-5.9c0-2.4,0.7-4.4,2.1-5.9s3.1-2.3,5.1-2.3s3.6,0.7,4.7,2c1.1,1.3,1.7,3.1,1.7,5.5
			V436z M314.7,433.9c0-1.4-0.4-2.5-1-3.3c-0.7-0.8-1.6-1.2-2.8-1.2c-1.2,0-2.2,0.4-3,1.3c-0.8,0.8-1.3,1.9-1.5,3.3H314.7z"/>
		<path d="M333.9,443.1h-2.5v-8.8c0-3.3-1.2-4.9-3.6-4.9c-1.2,0-2.3,0.5-3.1,1.4c-0.8,0.9-1.2,2.1-1.2,3.5v8.8H321v-15.5h2.5v2.6
			h0.1c1.2-2,2.9-2.9,5.1-2.9c1.7,0,3,0.5,3.9,1.6c0.9,1.1,1.3,2.7,1.3,4.7V443.1z"/>
		<path d="M351,436h-10.9c0,1.7,0.5,3.1,1.4,4c0.9,0.9,2.1,1.4,3.7,1.4c1.7,0,3.4-0.6,4.8-1.7v2.3c-1.4,1-3.2,1.5-5.4,1.5
			c-2.2,0-3.9-0.7-5.2-2.1c-1.3-1.4-1.9-3.4-1.9-5.9c0-2.4,0.7-4.4,2.1-5.9s3.1-2.3,5.1-2.3s3.6,0.7,4.7,2c1.1,1.3,1.7,3.1,1.7,5.5
			V436z M348.5,433.9c0-1.4-0.4-2.5-1-3.3c-0.7-0.8-1.6-1.2-2.8-1.2c-1.2,0-2.2,0.4-3,1.3c-0.8,0.8-1.3,1.9-1.5,3.3H348.5z"/>
		<path d="M355.7,443.5c-0.5,0-0.9-0.2-1.2-0.5c-0.3-0.3-0.5-0.7-0.5-1.2s0.2-0.9,0.5-1.2c0.3-0.3,0.7-0.5,1.2-0.5
			c0.5,0,0.9,0.2,1.2,0.5c0.3,0.3,0.5,0.7,0.5,1.2s-0.2,0.9-0.5,1.2C356.5,443.3,356.1,443.5,355.7,443.5z"/>
	</g>
</g>
<g>
	<line class="st0" x1="228.8" y1="42.1" x2="217.4" y2="42.1"/>
	<path d="M235.6,42.1c-3.4-0.9-6.6-2.4-9.6-4.2l2,4.2l-2,4.2C229,44.4,232.2,43,235.6,42.1z"/>
</g>
<g>
	<line class="st0" x1="250" y1="80.8" x2="238.5" y2="80.8"/>
	<path d="M256.8,80.8c-3.4-0.9-6.6-2.4-9.6-4.2l2,4.2l-2,4.2C250.1,83.2,253.4,81.7,256.8,80.8z"/>
</g>
<g>
	<line class="st0" x1="145.8" y1="379" x2="134.4" y2="379"/>
	<path d="M152.6,379c-3.4-0.9-6.6-2.4-9.6-4.2l2,4.2l-2,4.2C146,381.4,149.2,379.9,152.6,379z"/>
</g>
<g>
	<line class="st0" x1="194.9" y1="379" x2="183.4" y2="379"/>
	<path d="M201.7,379c-3.4-0.9-6.6-2.4-9.6-4.2l2,4.2l-2,4.2C195.1,381.4,198.3,379.9,201.7,379z"/>
</g>
<g>
	<line class="st0" x1="278.8" y1="80.8" x2="267.4" y2="80.8"/>
	<path d="M285.6,80.8c-3.4-0.9-6.6-2.4-9.6-4.2l2,4.2l-2,4.2C279,83.2,282.2,81.7,285.6,80.8z"/>
</g>
<g>
	<line class="st0" x1="303.8" y1="42.1" x2="292.4" y2="42.1"/>
	<path d="M310.6,42.1c-3.4-0.9-6.6-2.4-9.6-4.2l2,4.2l-2,4.2C304,44.4,307.2,43,310.6,42.1z"/>
</g>
<path d="M341.1,129.4l-2.7,2.8c1.1,1.6,1.6,3.5,1.5,5.5c0.1,2.3-0.7,4.6-2.2,6.3c-3,2.8-7.6,3.1-10.9,0.7l-2.3,2.5l-1.3-1.2l2.4-2.6
	c-2.4-3.6-2.1-8.4,0.6-11.7c1.6-1.6,3.8-2.4,6-2.3c1.8-0.1,3.5,0.5,4.9,1.5l2.6-2.8L341.1,129.4z M335.5,132.7
	c-0.9-0.8-2.2-1.2-3.4-1.2c-1.5-0.1-3,0.6-4,1.7c-1,1.3-1.5,3-1.5,4.7c0,1.2,0.2,2.4,0.8,3.5L335.5,132.7z M336.6,134.2l-8,8.7
	c1,0.8,2.2,1.3,3.5,1.2c1.5,0.1,2.9-0.5,3.9-1.6c1-1.3,1.5-3,1.4-4.6C337.4,136.6,337.1,135.3,336.6,134.2L336.6,134.2z"/>
<path d="M260.1,273.6l-3.2,3.4c1.3,2,2,4.3,1.9,6.6c0.1,2.8-0.8,5.6-2.7,7.7c-3.6,3.4-9.2,3.8-13.2,0.9l-2.8,3.1l-1.6-1.5l2.9-3.2
	c-2.9-4.4-2.6-10.2,0.8-14.2c1.9-1.9,4.6-2.9,7.3-2.8c2.1-0.1,4.2,0.6,5.9,1.9l3.1-3.4L260.1,273.6z M253.4,277.6
	c-1.1-1-2.6-1.5-4.1-1.4c-1.8-0.1-3.6,0.7-4.8,2.1c-1.3,1.6-1.9,3.6-1.8,5.7c0,1.5,0.3,3,1,4.3L253.4,277.6z M254.7,279.4L245,290
	c1.2,1,2.7,1.5,4.2,1.5c1.8,0.1,3.6-0.6,4.8-2c1.2-1.6,1.8-3.6,1.6-5.6C255.7,282.3,255.3,280.8,254.7,279.4L254.7,279.4z"/>
</svg>
