<svg id="Capa_1" data-name="Capa 1" xmlns="http://www.w3.org/2000/svg" xmlns:xlink="http://www.w3.org/1999/xlink" viewBox="0 0 1135 165.6"><defs><clipPath id="clip-path" transform="translate(-7 -3)"><polygon points="1153.2 -1 0 -1 0 170.4 1108.4 170.4 1152.2 133.8 1153.2 -1" style="fill:none"/></clipPath></defs><path d="M1085.3,143.3l-2.9,3.1a10.18,10.18,0,0,1,1.7,5.9,9.49,9.49,0,0,1-2.4,6.8,9.36,9.36,0,0,1-11.8.8l-2.5,2.7-1.4-1.3,2.6-2.8a10.67,10.67,0,0,1,.7-12.7,8.73,8.73,0,0,1,6.5-2.5,7.85,7.85,0,0,1,5.3,1.7l2.8-3Zm-6,3.6a5.41,5.41,0,0,0-3.7-1.3,5.46,5.46,0,0,0-4.3,1.8,7.6,7.6,0,0,0-1.6,5.1,8.49,8.49,0,0,0,.9,3.8Zm1.2,1.6-8.7,9.4a5.35,5.35,0,0,0,3.8,1.3,5.13,5.13,0,0,0,4.2-1.8,7.42,7.42,0,0,0,1.5-5,10.87,10.87,0,0,0-.8-3.9Z" transform="translate(-7 -3)"/><line x1="662.1" y1="4.2" x2="650.6" y2="4.2" style="fill:none;stroke:#000;stroke-linecap:round;stroke-linejoin:round;stroke-width:1.2000000476837158px"/><path d="M675.9,7.2A37.35,37.35,0,0,1,666.3,3l2,4.2-2,4.2A34.2,34.2,0,0,1,675.9,7.2Z" transform="translate(-7 -3)"/><line x1="732.5" y1="4.2" x2="721.1" y2="4.2" style="fill:none;stroke:#000;stroke-linecap:round;stroke-linejoin:round;stroke-width:1.2000000476837158px"/><path d="M746.3,7.2A37.35,37.35,0,0,1,736.7,3l2,4.2-2,4.2A34.2,34.2,0,0,1,746.3,7.2Z" transform="translate(-7 -3)"/><line x1="533.2" y1="126.6" x2="521.8" y2="126.6" style="fill:none;stroke:#000;stroke-linecap:round;stroke-linejoin:round;stroke-width:1.2000000476837158px"/><path d="M547,129.6a37.35,37.35,0,0,1-9.6-4.2l2,4.2-2,4.2A34.2,34.2,0,0,1,547,129.6Z" transform="translate(-7 -3)"/><line x1="616.7" y1="126.6" x2="605.2" y2="126.6" style="fill:none;stroke:#000;stroke-linecap:round;stroke-linejoin:round;stroke-width:1.2000000476837158px"/><path d="M630.4,129.6a37.35,37.35,0,0,1-9.6-4.2l2,4.2-2,4.2A34.2,34.2,0,0,1,630.4,129.6Z" transform="translate(-7 -3)"/><g style="clip-path:url(#clip-path)"><rect y="10" width="1135" height="155.6" style="fill:none"/><g style="isolation:isolate"><g style="isolation:isolate"><path d="M22.74,38.17H10.12V14.36H22.21v2.52h-9.3V24.8h8.6v2.51h-8.6v8.33h9.83Z" transform="translate(-7 -3)"/><path d="M39.37,21.17l-5.71,8.6,5.61,8.4H36.1l-3.33-5.51c-.21-.35-.46-.78-.75-1.3H32c-.05.1-.31.53-.78,1.3l-3.4,5.51H24.63l5.79-8.34-5.54-8.66h3.17L31.34,27c.24.43.48.87.71,1.33h.07l4.25-7.14Z" transform="translate(-7 -3)"/><path d="M44,16.85a1.73,1.73,0,0,1-1.76-1.76,1.72,1.72,0,0,1,.51-1.27,1.7,1.7,0,0,1,1.25-.5,1.76,1.76,0,0,1,1.27.5,1.79,1.79,0,0,1,0,2.52A1.77,1.77,0,0,1,44,16.85Zm1.32,21.32H42.56v-17h2.72Z" transform="translate(-7 -3)"/><path d="M49.77,37.55V34.63a8,8,0,0,0,4.89,1.65c2.39,0,3.59-.8,3.59-2.4a2,2,0,0,0-.31-1.15,3.15,3.15,0,0,0-.83-.84,6.44,6.44,0,0,0-1.23-.65c-.47-.2-1-.4-1.52-.61a21.12,21.12,0,0,1-2-.9,6.19,6.19,0,0,1-1.43-1,3.87,3.87,0,0,1-.86-1.31,4.63,4.63,0,0,1-.29-1.71,4,4,0,0,1,.55-2.11A4.8,4.8,0,0,1,51.81,22a6.93,6.93,0,0,1,2.08-.94,10.23,10.23,0,0,1,6.37.45v2.76a7.7,7.7,0,0,0-4.32-1.23,5.32,5.32,0,0,0-1.38.17,3.4,3.4,0,0,0-1.05.49,2.33,2.33,0,0,0-.68.76,2,2,0,0,0-.24,1,2.34,2.34,0,0,0,.24,1.11,2.4,2.4,0,0,0,.7.8,5.68,5.68,0,0,0,1.13.63l1.51.62a19.87,19.87,0,0,1,2,.88,7.17,7.17,0,0,1,1.53,1,4,4,0,0,1,1,1.32A4.38,4.38,0,0,1,61,33.62a4.2,4.2,0,0,1-.56,2.19A4.63,4.63,0,0,1,59,37.35a6.85,6.85,0,0,1-2.15.92,10.46,10.46,0,0,1-2.54.3A9.57,9.57,0,0,1,49.77,37.55Z" transform="translate(-7 -3)"/><path d="M73.11,38a5.18,5.18,0,0,1-2.54.53q-4.47,0-4.47-5V23.49H63.18V21.17H66.1V17l2.72-.88v5h4.29v2.32H68.82v9.58a4,4,0,0,0,.59,2.44,2.28,2.28,0,0,0,1.92.73,2.91,2.91,0,0,0,1.78-.56Z" transform="translate(-7 -3)"/><path d="M90.41,30.35h-12a6.4,6.4,0,0,0,1.53,4.38,5.26,5.26,0,0,0,4,1.55,8.39,8.39,0,0,0,5.28-1.9v2.56a9.92,9.92,0,0,1-5.93,1.63,7.2,7.2,0,0,1-5.66-2.32,9.5,9.5,0,0,1-2.06-6.52,9.28,9.28,0,0,1,2.25-6.46,7.2,7.2,0,0,1,5.59-2.5,6.39,6.39,0,0,1,5.16,2.16,9,9,0,0,1,1.83,6ZM87.62,28a5.54,5.54,0,0,0-1.14-3.67,3.88,3.88,0,0,0-3.11-1.31,4.37,4.37,0,0,0-3.27,1.38A6.24,6.24,0,0,0,78.44,28Z" transform="translate(-7 -3)"/></g><g style="isolation:isolate"><path d="M120.36,38.57a7.89,7.89,0,0,1-6-2.39,8.8,8.8,0,0,1-2.25-6.31,9.18,9.18,0,0,1,2.34-6.69,8.42,8.42,0,0,1,6.33-2.41,7.62,7.62,0,0,1,5.93,2.34,9.24,9.24,0,0,1,2.14,6.49,9.15,9.15,0,0,1-2.3,6.52A8.07,8.07,0,0,1,120.36,38.57Zm.2-15.51a5.18,5.18,0,0,0-4.15,1.79,7.32,7.32,0,0,0-1.53,4.92,6.92,6.92,0,0,0,1.55,4.76,5.25,5.25,0,0,0,4.13,1.75,5,5,0,0,0,4.06-1.71A7.42,7.42,0,0,0,126,29.7a7.52,7.52,0,0,0-1.42-4.91A5,5,0,0,0,120.56,23.06Z" transform="translate(-7 -3)"/><path d="M141.06,38a5.18,5.18,0,0,1-2.54.53q-4.46,0-4.46-5V23.49h-2.92V21.17h2.92V17l2.72-.88v5h4.28v2.32h-4.28v9.58a4,4,0,0,0,.58,2.44,2.32,2.32,0,0,0,1.93.73,2.88,2.88,0,0,0,1.77-.56Z" transform="translate(-7 -3)"/><path d="M153.56,23.92a3.34,3.34,0,0,0-2.05-.54A3.46,3.46,0,0,0,148.59,25a7.61,7.61,0,0,0-1.17,4.48v8.67H144.7v-17h2.72v3.5h.07a6,6,0,0,1,1.77-2.8,4.06,4.06,0,0,1,2.68-1,4.49,4.49,0,0,1,1.62.23Z" transform="translate(-7 -3)"/><path d="M163.62,38.57a7.87,7.87,0,0,1-6-2.39,8.8,8.8,0,0,1-2.25-6.31,9.18,9.18,0,0,1,2.34-6.69A8.39,8.39,0,0,1,164,20.77,7.63,7.63,0,0,1,170,23.11a9.28,9.28,0,0,1,2.13,6.49,9.11,9.11,0,0,1-2.3,6.52A8.07,8.07,0,0,1,163.62,38.57Zm.2-15.51a5.2,5.2,0,0,0-4.15,1.79,7.37,7.37,0,0,0-1.52,4.92,6.92,6.92,0,0,0,1.54,4.76,5.26,5.26,0,0,0,4.13,1.75,5,5,0,0,0,4.06-1.71,7.42,7.42,0,0,0,1.42-4.87,7.52,7.52,0,0,0-1.42-4.91A5,5,0,0,0,163.82,23.06Z" transform="translate(-7 -3)"/></g><g style="isolation:isolate"><path d="M197.94,35.71h-.06V46h-2.72V21.17h2.72v3h.06a6.44,6.44,0,0,1,5.88-3.39A6.23,6.23,0,0,1,209,23.05a9.44,9.44,0,0,1,1.84,6.12A10.56,10.56,0,0,1,208.72,36,6.92,6.92,0,0,1,203,38.57,5.71,5.71,0,0,1,197.94,35.71Zm-.06-6.86v2.38a5,5,0,0,0,1.37,3.58,4.87,4.87,0,0,0,7.35-.43A8.63,8.63,0,0,0,208,29.12a6.82,6.82,0,0,0-1.32-4.45,4.33,4.33,0,0,0-3.55-1.61,4.84,4.84,0,0,0-3.82,1.65A6.07,6.07,0,0,0,197.88,28.85Z" transform="translate(-7 -3)"/><path d="M224,23.92a3.37,3.37,0,0,0-2.06-.54A3.46,3.46,0,0,0,219,25a7.61,7.61,0,0,0-1.17,4.48v8.67h-2.73v-17h2.73v3.5h.06a6,6,0,0,1,1.78-2.8,4.05,4.05,0,0,1,2.67-1,4.59,4.59,0,0,1,1.63.23Z" transform="translate(-7 -3)"/><path d="M234.07,38.57a7.89,7.89,0,0,1-6-2.39,8.8,8.8,0,0,1-2.25-6.31,9.18,9.18,0,0,1,2.34-6.69,8.4,8.4,0,0,1,6.33-2.41,7.62,7.62,0,0,1,5.93,2.34,9.24,9.24,0,0,1,2.14,6.49,9.15,9.15,0,0,1-2.3,6.52A8.08,8.08,0,0,1,234.07,38.57Zm.2-15.51a5.18,5.18,0,0,0-4.15,1.79,7.32,7.32,0,0,0-1.53,4.92,6.92,6.92,0,0,0,1.55,4.76,5.23,5.23,0,0,0,4.13,1.75,5,5,0,0,0,4.06-1.71,7.48,7.48,0,0,0,1.42-4.87,7.58,7.58,0,0,0-1.42-4.91A5,5,0,0,0,234.27,23.06Z" transform="translate(-7 -3)"/><path d="M261.4,38.17h-2.73V35.28h-.06a6.86,6.86,0,0,1-11,1,9.34,9.34,0,0,1-1.92-6.21,10.16,10.16,0,0,1,2.13-6.76,7,7,0,0,1,5.66-2.54,5.46,5.46,0,0,1,5.1,2.76h.06V13h2.73Zm-2.73-7.69V28a4.84,4.84,0,0,0-1.36-3.48,4.58,4.58,0,0,0-3.45-1.43,4.7,4.7,0,0,0-3.92,1.83,8,8,0,0,0-1.43,5,7.2,7.2,0,0,0,1.37,4.64,4.48,4.48,0,0,0,3.68,1.71,4.62,4.62,0,0,0,3.69-1.65A6.1,6.1,0,0,0,258.67,30.48Z" transform="translate(-7 -3)"/><path d="M280.65,38.17h-2.72V35.48h-.07a5.57,5.57,0,0,1-5.24,3.09q-6.08,0-6.08-7.24V21.17h2.71V30.9c0,3.58,1.37,5.38,4.12,5.38a4.15,4.15,0,0,0,3.27-1.47A5.62,5.62,0,0,0,277.93,31V21.17h2.72Z" transform="translate(-7 -3)"/><path d="M297.74,37.39a8.93,8.93,0,0,1-4.65,1.18,7.68,7.68,0,0,1-5.87-2.37A8.56,8.56,0,0,1,285,30.07a9.45,9.45,0,0,1,2.4-6.75,8.44,8.44,0,0,1,6.43-2.55,9,9,0,0,1,3.95.83v2.79a6.88,6.88,0,0,0-4-1.33,5.48,5.48,0,0,0-4.28,1.87,7.08,7.08,0,0,0-1.66,4.9,6.77,6.77,0,0,0,1.56,4.72,5.42,5.42,0,0,0,4.21,1.73,6.87,6.87,0,0,0,4.19-1.48Z" transform="translate(-7 -3)"/><path d="M309.74,38a5.18,5.18,0,0,1-2.54.53q-4.47,0-4.47-5V23.49h-2.92V21.17h2.92V17l2.73-.88v5h4.28v2.32h-4.28v9.58a4,4,0,0,0,.58,2.44,2.3,2.3,0,0,0,1.92.73,2.91,2.91,0,0,0,1.78-.56Z" transform="translate(-7 -3)"/><path d="M320.48,38.57a7.89,7.89,0,0,1-6-2.39,8.8,8.8,0,0,1-2.25-6.31,9.18,9.18,0,0,1,2.34-6.69,8.4,8.4,0,0,1,6.33-2.41,7.62,7.62,0,0,1,5.93,2.34A9.24,9.24,0,0,1,329,29.6a9.15,9.15,0,0,1-2.3,6.52A8.07,8.07,0,0,1,320.48,38.57Zm.2-15.51a5.18,5.18,0,0,0-4.15,1.79A7.32,7.32,0,0,0,315,29.77a6.92,6.92,0,0,0,1.55,4.76,5.25,5.25,0,0,0,4.13,1.75,5,5,0,0,0,4.06-1.71,7.42,7.42,0,0,0,1.42-4.87,7.52,7.52,0,0,0-1.42-4.91A5,5,0,0,0,320.68,23.06Z" transform="translate(-7 -3)"/></g><g style="isolation:isolate"><path d="M365.62,30.35h-12a6.35,6.35,0,0,0,1.52,4.38,5.29,5.29,0,0,0,4,1.55,8.35,8.35,0,0,0,5.28-1.9v2.56a9.89,9.89,0,0,1-5.93,1.63,7.2,7.2,0,0,1-5.66-2.32,9.5,9.5,0,0,1-2.06-6.52A9.28,9.28,0,0,1,353,23.27a7.21,7.21,0,0,1,5.59-2.5,6.38,6.38,0,0,1,5.16,2.16,9,9,0,0,1,1.83,6ZM362.83,28a5.54,5.54,0,0,0-1.14-3.67,3.87,3.87,0,0,0-3.11-1.31,4.41,4.41,0,0,0-3.27,1.38,6.24,6.24,0,0,0-1.66,3.6Z" transform="translate(-7 -3)"/><path d="M383.85,38.17h-2.73v-9.7c0-3.61-1.31-5.41-3.95-5.41a4.25,4.25,0,0,0-3.37,1.54,5.63,5.63,0,0,0-1.34,3.87v9.7h-2.72v-17h2.72V24h.07a6.12,6.12,0,0,1,5.57-3.22,5.22,5.22,0,0,1,4.27,1.8,8.07,8.07,0,0,1,1.48,5.21Z" transform="translate(-7 -3)"/><path d="M396.86,38a5.18,5.18,0,0,1-2.54.53q-4.45,0-4.46-5V23.49h-2.92V21.17h2.92V17l2.72-.88v5h4.28v2.32h-4.28v9.58a4,4,0,0,0,.58,2.44,2.32,2.32,0,0,0,1.93.73,2.88,2.88,0,0,0,1.77-.56Z" transform="translate(-7 -3)"/><path d="M409.36,23.92a3.34,3.34,0,0,0-2.05-.54A3.46,3.46,0,0,0,404.39,25a7.61,7.61,0,0,0-1.17,4.48v8.67H400.5v-17h2.72v3.5h.07a6,6,0,0,1,1.77-2.8,4.06,4.06,0,0,1,2.68-1,4.49,4.49,0,0,1,1.62.23Z" transform="translate(-7 -3)"/><path d="M426,30.35H414a6.31,6.31,0,0,0,1.53,4.38,5.25,5.25,0,0,0,4,1.55,8.35,8.35,0,0,0,5.28-1.9v2.56a9.88,9.88,0,0,1-5.92,1.63,7.2,7.2,0,0,1-5.66-2.32,9.45,9.45,0,0,1-2.06-6.52,9.28,9.28,0,0,1,2.25-6.46,7.19,7.19,0,0,1,5.58-2.5,6.4,6.4,0,0,1,5.17,2.16,9,9,0,0,1,1.82,6ZM423.19,28a5.59,5.59,0,0,0-1.13-3.67,3.9,3.9,0,0,0-3.12-1.31,4.41,4.41,0,0,0-3.27,1.38A6.3,6.3,0,0,0,414,28Z" transform="translate(-7 -3)"/></g><g style="isolation:isolate"><path d="M451.58,38.17h-2.72V13h2.72Z" transform="translate(-7 -3)"/><path d="M464.2,38.57a7.88,7.88,0,0,1-6-2.39,8.8,8.8,0,0,1-2.25-6.31,9.18,9.18,0,0,1,2.34-6.69,8.39,8.39,0,0,1,6.32-2.41,7.63,7.63,0,0,1,5.94,2.34,9.28,9.28,0,0,1,2.13,6.49,9.11,9.11,0,0,1-2.3,6.52A8.06,8.06,0,0,1,464.2,38.57Zm.2-15.51a5.2,5.2,0,0,0-4.16,1.79,7.37,7.37,0,0,0-1.52,4.92,6.92,6.92,0,0,0,1.54,4.76,5.27,5.27,0,0,0,4.14,1.75,5,5,0,0,0,4.05-1.71,7.42,7.42,0,0,0,1.42-4.87,7.52,7.52,0,0,0-1.42-4.91A5,5,0,0,0,464.4,23.06Z" transform="translate(-7 -3)"/><path d="M476,37.55V34.63a8.06,8.06,0,0,0,4.9,1.65c2.39,0,3.59-.8,3.59-2.4a2.12,2.12,0,0,0-.31-1.15,3.3,3.3,0,0,0-.83-.84,6.44,6.44,0,0,0-1.23-.65c-.47-.2-1-.4-1.52-.61a21.12,21.12,0,0,1-2-.9,6.19,6.19,0,0,1-1.43-1,3.87,3.87,0,0,1-.86-1.31,4.44,4.44,0,0,1-.29-1.71,4.09,4.09,0,0,1,.54-2.11A5,5,0,0,1,478,22a7,7,0,0,1,2.09-.94,9.65,9.65,0,0,1,2.41-.31,9.78,9.78,0,0,1,4,.76v2.76a7.72,7.72,0,0,0-4.32-1.23,5.32,5.32,0,0,0-1.38.17,3.4,3.4,0,0,0-1,.49,2.23,2.23,0,0,0-.68.76,2,2,0,0,0-.24,1,2.34,2.34,0,0,0,.24,1.11,2.4,2.4,0,0,0,.7.8,5.68,5.68,0,0,0,1.13.63l1.51.62a20.89,20.89,0,0,1,2,.88,7.35,7.35,0,0,1,1.52,1,4.06,4.06,0,0,1,1,1.32,4.38,4.38,0,0,1,.34,1.78,4.2,4.2,0,0,1-.56,2.19,4.66,4.66,0,0,1-1.49,1.54,6.79,6.79,0,0,1-2.14.92,10.52,10.52,0,0,1-2.54.3A9.61,9.61,0,0,1,476,37.55Z" transform="translate(-7 -3)"/></g><g style="isolation:isolate"><path d="M523.52,21.17l-6.77,17h-2.68l-6.44-17h3l4.32,12.35a10.72,10.72,0,0,1,.59,2.37h.07a11.27,11.27,0,0,1,.53-2.3l4.52-12.42Z" transform="translate(-7 -3)"/><path d="M540.1,30.35h-12a6.4,6.4,0,0,0,1.53,4.38,5.26,5.26,0,0,0,4,1.55,8.39,8.39,0,0,0,5.28-1.9v2.56A9.92,9.92,0,0,1,533,38.57a7.2,7.2,0,0,1-5.66-2.32,9.5,9.5,0,0,1-2.06-6.52,9.28,9.28,0,0,1,2.25-6.46,7.2,7.2,0,0,1,5.59-2.5,6.39,6.39,0,0,1,5.16,2.16,9,9,0,0,1,1.82,6ZM537.32,28a5.59,5.59,0,0,0-1.14-3.67,3.9,3.9,0,0,0-3.11-1.31,4.37,4.37,0,0,0-3.27,1.38,6.24,6.24,0,0,0-1.66,3.6Z" transform="translate(-7 -3)"/><path d="M555.81,37.39a8.93,8.93,0,0,1-4.65,1.18,7.7,7.7,0,0,1-5.87-2.37,8.56,8.56,0,0,1-2.23-6.13,9.41,9.41,0,0,1,2.41-6.75,8.4,8.4,0,0,1,6.42-2.55,9,9,0,0,1,4,.83v2.79a6.88,6.88,0,0,0-4.05-1.33,5.44,5.44,0,0,0-4.27,1.87,7.08,7.08,0,0,0-1.67,4.9,6.73,6.73,0,0,0,1.57,4.72,5.41,5.41,0,0,0,4.21,1.73,6.86,6.86,0,0,0,4.18-1.48Z" transform="translate(-7 -3)"/><path d="M567.81,38a5.18,5.18,0,0,1-2.54.53q-4.46,0-4.46-5V23.49h-2.92V21.17h2.92V17l2.72-.88v5h4.28v2.32h-4.28v9.58a4,4,0,0,0,.58,2.44,2.32,2.32,0,0,0,1.93.73,2.9,2.9,0,0,0,1.77-.56Z" transform="translate(-7 -3)"/><path d="M578.55,38.57a7.87,7.87,0,0,1-6-2.39,8.8,8.8,0,0,1-2.25-6.31,9.18,9.18,0,0,1,2.34-6.69A8.39,8.39,0,0,1,579,20.77a7.63,7.63,0,0,1,5.94,2.34A9.28,9.28,0,0,1,587,29.6a9.15,9.15,0,0,1-2.3,6.52A8.07,8.07,0,0,1,578.55,38.57Zm.2-15.51a5.18,5.18,0,0,0-4.15,1.79,7.32,7.32,0,0,0-1.52,4.92,6.92,6.92,0,0,0,1.54,4.76,5.26,5.26,0,0,0,4.13,1.75,5,5,0,0,0,4.06-1.71,7.42,7.42,0,0,0,1.42-4.87,7.52,7.52,0,0,0-1.42-4.91A5,5,0,0,0,578.75,23.06Z" transform="translate(-7 -3)"/><path d="M600.24,23.92a3.39,3.39,0,0,0-2.06-.54A3.47,3.47,0,0,0,595.26,25a7.61,7.61,0,0,0-1.17,4.48v8.67h-2.72v-17h2.72v3.5h.07a6,6,0,0,1,1.78-2.8,4,4,0,0,1,2.67-1,4.59,4.59,0,0,1,1.63.23Z" transform="translate(-7 -3)"/><path d="M616.85,30.35h-12a6.36,6.36,0,0,0,1.53,4.38,5.26,5.26,0,0,0,4,1.55,8.39,8.39,0,0,0,5.28-1.9v2.56a9.92,9.92,0,0,1-5.93,1.63,7.2,7.2,0,0,1-5.66-2.32A9.45,9.45,0,0,1,602,29.73a9.28,9.28,0,0,1,2.25-6.46,7.2,7.2,0,0,1,5.59-2.5A6.39,6.39,0,0,1,615,22.93a9,9,0,0,1,1.82,6ZM614.07,28a5.65,5.65,0,0,0-1.14-3.67,3.9,3.9,0,0,0-3.11-1.31,4.41,4.41,0,0,0-3.28,1.38,6.3,6.3,0,0,0-1.66,3.6Z" transform="translate(-7 -3)"/><path d="M619.94,37.55V34.63a8,8,0,0,0,4.9,1.65c2.39,0,3.59-.8,3.59-2.4a2.12,2.12,0,0,0-.31-1.15,3.3,3.3,0,0,0-.83-.84,6.44,6.44,0,0,0-1.23-.65c-.47-.2-1-.4-1.52-.61a21.12,21.12,0,0,1-2-.9,6.19,6.19,0,0,1-1.43-1,3.87,3.87,0,0,1-.86-1.31,4.44,4.44,0,0,1-.29-1.71,4.09,4.09,0,0,1,.54-2.11A5,5,0,0,1,622,22a7,7,0,0,1,2.09-.94,10.2,10.2,0,0,1,6.36.45v2.76a7.66,7.66,0,0,0-4.31-1.23,5.32,5.32,0,0,0-1.38.17,3.4,3.4,0,0,0-1,.49,2.37,2.37,0,0,0-.69.76,2,2,0,0,0-.24,1,2.34,2.34,0,0,0,.24,1.11,2.55,2.55,0,0,0,.71.8,5.68,5.68,0,0,0,1.13.63l1.51.62a20.89,20.89,0,0,1,2,.88,7.35,7.35,0,0,1,1.52,1,3.89,3.89,0,0,1,1,1.32,4.72,4.72,0,0,1-.21,4,4.66,4.66,0,0,1-1.49,1.54,6.79,6.79,0,0,1-2.14.92,10.52,10.52,0,0,1-2.54.3A9.61,9.61,0,0,1,619.94,37.55Z" transform="translate(-7 -3)"/></g><g style="isolation:isolate"><path d="M667.88,38.17l-1.07-6.66h-10.1l-3.85,6.66h-3.29l14.18-23.81h2.92l4.15,23.81Zm-3-19.31c0-.11,0-.24,0-.38s0-.29,0-.43v-.8h-.07c0,.1-.08.22-.13.36l-.18.43-.21.44-.19.38L658.14,29h8.22Z" transform="translate(-7 -3)"/></g><g style="isolation:isolate"><path d="M707.79,21.17,700,40.89q-2.1,5.28-5.88,5.28a6,6,0,0,1-1.78-.22V43.51a5.08,5.08,0,0,0,1.61.3c1.38,0,2.41-.82,3.09-2.45l1.36-3.23-6.64-17h3l4.6,13.08c.06.17.17.6.35,1.29h.1q.09-.39.33-1.26L705,21.17Z" transform="translate(-7 -3)"/></g><g style="isolation:isolate"><path d="M745.39,19.51a7.17,7.17,0,0,1-.31,2.13,5.75,5.75,0,0,1-1,1.85,6.09,6.09,0,0,1-1.68,1.44,7.57,7.57,0,0,1-2.43.87v.07a5.46,5.46,0,0,1,1.8.6,4.85,4.85,0,0,1,1.29,1.07,4.45,4.45,0,0,1,.77,1.42,5.49,5.49,0,0,1,.26,1.69,7.36,7.36,0,0,1-.68,3.24,6.61,6.61,0,0,1-1.86,2.35,8.54,8.54,0,0,1-2.84,1.44,12.51,12.51,0,0,1-3.54.49h-7.27l5-23.81h6.56a7.24,7.24,0,0,1,2.52.4,5.34,5.34,0,0,1,1.84,1.1A4.48,4.48,0,0,1,745,17.49,5.22,5.22,0,0,1,745.39,19.51Zm-4.21,11.32A3.39,3.39,0,0,0,740,28.08a5.71,5.71,0,0,0-3.71-1h-3.16l-1.76,8.56h3.84a9.31,9.31,0,0,0,2.69-.34,5,5,0,0,0,1.86-1,3.77,3.77,0,0,0,1.1-1.52A5.21,5.21,0,0,0,741.18,30.83ZM742.47,20a3.44,3.44,0,0,0-.2-1.2,2.56,2.56,0,0,0-.64-1,3.07,3.07,0,0,0-1.14-.7,5.1,5.1,0,0,0-1.72-.26H735.3l-1.66,7.69h3.12a8.56,8.56,0,0,0,2.5-.33,5.09,5.09,0,0,0,1.78-.93,3.69,3.69,0,0,0,1.05-1.43,4.75,4.75,0,0,0,.35-1.84Z" transform="translate(-7 -3)"/></g><g style="isolation:isolate"><path d="M782.27,38.17h-2.73V35.28h-.06a6.86,6.86,0,0,1-11,1,9.34,9.34,0,0,1-1.92-6.21,10.16,10.16,0,0,1,2.13-6.76,7,7,0,0,1,5.66-2.54,5.47,5.47,0,0,1,5.1,2.76h.06V13h2.73Zm-2.73-7.69V28a4.84,4.84,0,0,0-1.36-3.48,4.58,4.58,0,0,0-3.45-1.43,4.7,4.7,0,0,0-3.92,1.83,8,8,0,0,0-1.43,5,7.2,7.2,0,0,0,1.37,4.64,4.48,4.48,0,0,0,3.68,1.71,4.62,4.62,0,0,0,3.69-1.65A6.1,6.1,0,0,0,779.54,30.48Z" transform="translate(-7 -3)"/><path d="M801.44,30.35h-12A6.35,6.35,0,0,0,791,34.73a5.29,5.29,0,0,0,4,1.55,8.35,8.35,0,0,0,5.28-1.9v2.56a9.89,9.89,0,0,1-5.93,1.63,7.21,7.21,0,0,1-5.66-2.32,9.49,9.49,0,0,1-2-6.52,9.28,9.28,0,0,1,2.25-6.46,7.18,7.18,0,0,1,5.58-2.5,6.36,6.36,0,0,1,5.16,2.16,9,9,0,0,1,1.83,6ZM798.65,28a5.54,5.54,0,0,0-1.14-3.67,3.87,3.87,0,0,0-3.11-1.31,4.41,4.41,0,0,0-3.27,1.38,6.24,6.24,0,0,0-1.66,3.6Z" transform="translate(-7 -3)"/><path d="M819.67,38.17H817v-9.7q0-5.41-4-5.41a4.26,4.26,0,0,0-3.38,1.54,5.68,5.68,0,0,0-1.34,3.87v9.7h-2.72v-17h2.72V24h.07a6.12,6.12,0,0,1,5.57-3.22,5.2,5.2,0,0,1,4.27,1.8,8,8,0,0,1,1.48,5.21Z" transform="translate(-7 -3)"/><path d="M831.9,38.57a7.87,7.87,0,0,1-6-2.39,8.8,8.8,0,0,1-2.25-6.31A9.18,9.18,0,0,1,826,23.18a8.39,8.39,0,0,1,6.32-2.41,7.63,7.63,0,0,1,5.94,2.34,9.28,9.28,0,0,1,2.13,6.49,9.15,9.15,0,0,1-2.3,6.52A8.07,8.07,0,0,1,831.9,38.57Zm.2-15.51A5.18,5.18,0,0,0,828,24.85a7.32,7.32,0,0,0-1.52,4.92A6.92,6.92,0,0,0,828,34.53a5.26,5.26,0,0,0,4.13,1.75,5,5,0,0,0,4.06-1.71,7.42,7.42,0,0,0,1.42-4.87,7.52,7.52,0,0,0-1.42-4.91A5,5,0,0,0,832.1,23.06Z" transform="translate(-7 -3)"/><path d="M852.61,38a5.21,5.21,0,0,1-2.54.53q-4.47,0-4.47-5V23.49h-2.92V21.17h2.92V17l2.72-.88v5h4.29v2.32h-4.29v9.58a4,4,0,0,0,.58,2.44,2.32,2.32,0,0,0,1.93.73,2.91,2.91,0,0,0,1.78-.56Z" transform="translate(-7 -3)"/><path d="M868.41,38.17h-2.72V35.51h-.07a5.7,5.7,0,0,1-5.23,3.06,5.55,5.55,0,0,1-4-1.35A4.63,4.63,0,0,1,855,33.65q0-4.75,5.61-5.54l5.1-.72q0-4.34-3.5-4.33a8.4,8.4,0,0,0-5.55,2.09V22.36a10.56,10.56,0,0,1,5.78-1.59q6,0,6,6.34Zm-2.72-8.6-4.1.56a6.69,6.69,0,0,0-2.86.94,2.71,2.71,0,0,0-1,2.38,2.62,2.62,0,0,0,.89,2,3.45,3.45,0,0,0,2.36.79,4.4,4.4,0,0,0,3.35-1.42,5.09,5.09,0,0,0,1.32-3.6Z" transform="translate(-7 -3)"/><path d="M888.05,38.17h-2.72V35.28h-.07a6.85,6.85,0,0,1-11,1,9.34,9.34,0,0,1-1.92-6.21,10.21,10.21,0,0,1,2.12-6.76,7,7,0,0,1,5.67-2.54,5.44,5.44,0,0,1,5.09,2.76h.07V13h2.72Zm-2.72-7.69V28A4.88,4.88,0,0,0,884,24.49a4.58,4.58,0,0,0-3.46-1.43,4.68,4.68,0,0,0-3.91,1.83,7.93,7.93,0,0,0-1.43,5,7.15,7.15,0,0,0,1.37,4.64,4.46,4.46,0,0,0,3.67,1.71,4.65,4.65,0,0,0,3.7-1.65A6.1,6.1,0,0,0,885.33,30.48Z" transform="translate(-7 -3)"/><path d="M900.67,38.57a7.89,7.89,0,0,1-6-2.39,8.8,8.8,0,0,1-2.25-6.31,9.18,9.18,0,0,1,2.34-6.69,8.4,8.4,0,0,1,6.33-2.41A7.62,7.62,0,0,1,907,23.11a9.28,9.28,0,0,1,2.13,6.49,9.15,9.15,0,0,1-2.29,6.52A8.08,8.08,0,0,1,900.67,38.57Zm.2-15.51a5.17,5.17,0,0,0-4.15,1.79,7.32,7.32,0,0,0-1.53,4.92,6.92,6.92,0,0,0,1.54,4.76,5.27,5.27,0,0,0,4.14,1.75,5,5,0,0,0,4.06-1.71,7.48,7.48,0,0,0,1.42-4.87,7.58,7.58,0,0,0-1.42-4.91A5,5,0,0,0,900.87,23.06Z" transform="translate(-7 -3)"/></g><g style="isolation:isolate"><path d="M943.74,37.39a8.86,8.86,0,0,1-4.64,1.18,7.67,7.67,0,0,1-5.87-2.37A8.57,8.57,0,0,1,931,30.07a9.45,9.45,0,0,1,2.41-6.75,8.44,8.44,0,0,1,6.43-2.55,9,9,0,0,1,3.95.83v2.79a6.88,6.88,0,0,0-4-1.33,5.46,5.46,0,0,0-4.28,1.87,7.08,7.08,0,0,0-1.67,4.9,6.77,6.77,0,0,0,1.57,4.72,5.42,5.42,0,0,0,4.21,1.73,6.84,6.84,0,0,0,4.18-1.48Z" transform="translate(-7 -3)"/><path d="M955,38.57a7.88,7.88,0,0,1-6-2.39,8.8,8.8,0,0,1-2.25-6.31A9.18,9.18,0,0,1,949,23.18a8.4,8.4,0,0,1,6.33-2.41,7.62,7.62,0,0,1,5.93,2.34,9.28,9.28,0,0,1,2.13,6.49,9.11,9.11,0,0,1-2.3,6.52A8.06,8.06,0,0,1,955,38.57Zm.2-15.51A5.17,5.17,0,0,0,951,24.85a7.32,7.32,0,0,0-1.53,4.92A6.92,6.92,0,0,0,951,34.53a5.27,5.27,0,0,0,4.14,1.75,5,5,0,0,0,4.05-1.71,7.42,7.42,0,0,0,1.42-4.87,7.52,7.52,0,0,0-1.42-4.91A4.93,4.93,0,0,0,955.17,23.06Z" transform="translate(-7 -3)"/><path d="M991.92,38.17H989.2V28.41a7.38,7.38,0,0,0-.87-4.09,3.31,3.31,0,0,0-2.93-1.26,3.65,3.65,0,0,0-3,1.59,6.14,6.14,0,0,0-1.22,3.82v9.7h-2.72V28.07q0-5-3.87-5a3.58,3.58,0,0,0-3,1.5,6.19,6.19,0,0,0-1.16,3.91v9.7h-2.73v-17h2.73v2.69h.06a5.78,5.78,0,0,1,5.28-3.09,4.91,4.91,0,0,1,3,1,5,5,0,0,1,1.78,2.55,6.05,6.05,0,0,1,5.64-3.52q5.61,0,5.61,6.92Z" transform="translate(-7 -3)"/><path d="M1004.17,38.57a7.87,7.87,0,0,1-6-2.39,8.8,8.8,0,0,1-2.25-6.31,9.18,9.18,0,0,1,2.34-6.69,8.39,8.39,0,0,1,6.32-2.41,7.64,7.64,0,0,1,5.94,2.34,9.28,9.28,0,0,1,2.13,6.49,9.15,9.15,0,0,1-2.3,6.52A8.07,8.07,0,0,1,1004.17,38.57Zm.2-15.51a5.18,5.18,0,0,0-4.15,1.79,7.32,7.32,0,0,0-1.52,4.92,6.92,6.92,0,0,0,1.54,4.76,5.26,5.26,0,0,0,4.13,1.75,5,5,0,0,0,4.06-1.71,7.42,7.42,0,0,0,1.42-4.87,7.52,7.52,0,0,0-1.42-4.91A5,5,0,0,0,1004.37,23.06Z" transform="translate(-7 -3)"/></g><g style="isolation:isolate"><path d="M1049.58,38.17l-1.07-6.66h-10.1l-3.85,6.66h-3.29l14.18-23.81h2.92l4.15,23.81Zm-3-19.31c0-.11,0-.24,0-.38s0-.29,0-.43v-.8h-.07c0,.1-.08.22-.13.36l-.18.43-.21.44c-.07.14-.14.27-.19.38L1039.84,29h8.22Z" transform="translate(-7 -3)"/></g><g style="isolation:isolate"><path d="M1092,33.88l-1.56,1.57-5.65-5.65-5.61,5.65-1.56-1.57,5.64-5.61-5.64-5.64,1.56-1.56,5.61,5.64,5.65-5.64,1.56,1.56-5.65,5.64Z" transform="translate(-7 -3)"/></g><g style="isolation:isolate"><path d="M1133.79,19.51a7.17,7.17,0,0,1-.31,2.13,5.75,5.75,0,0,1-1,1.85,6.09,6.09,0,0,1-1.68,1.44,7.57,7.57,0,0,1-2.43.87v.07a5.46,5.46,0,0,1,1.8.6,4.85,4.85,0,0,1,1.29,1.07,4.45,4.45,0,0,1,.77,1.42,5.48,5.48,0,0,1,.25,1.69,7.36,7.36,0,0,1-.67,3.24,6.53,6.53,0,0,1-1.87,2.35,8.4,8.4,0,0,1-2.83,1.44,12.51,12.51,0,0,1-3.54.49h-7.27l5-23.81h6.56a7.24,7.24,0,0,1,2.52.4,5.34,5.34,0,0,1,1.84,1.1,4.48,4.48,0,0,1,1.13,1.63A5.22,5.22,0,0,1,1133.79,19.51Zm-4.21,11.32a3.39,3.39,0,0,0-1.22-2.75,5.71,5.71,0,0,0-3.71-1h-3.16l-1.76,8.56h3.84a9.31,9.31,0,0,0,2.69-.34,5,5,0,0,0,1.86-1,3.77,3.77,0,0,0,1.1-1.52A5.21,5.21,0,0,0,1129.58,30.83ZM1130.87,20a3.68,3.68,0,0,0-.2-1.2,2.56,2.56,0,0,0-.64-1,3.07,3.07,0,0,0-1.14-.7,5.1,5.1,0,0,0-1.72-.26h-3.47L1122,24.57h3.12a8.51,8.51,0,0,0,2.5-.33,5.09,5.09,0,0,0,1.78-.93,3.69,3.69,0,0,0,1-1.43,4.75,4.75,0,0,0,.35-1.84Z" transform="translate(-7 -3)"/></g><g style="isolation:isolate"><path d="M1139.85,34.38l-2.66,8.17h-1.94l1.94-8.17Z" transform="translate(-7 -3)"/></g><g style="isolation:isolate"><path d="M24.27,79H21.54V76.08h-.06a6.3,6.3,0,0,1-5.85,3.29,6.34,6.34,0,0,1-5.12-2.29,9.34,9.34,0,0,1-1.92-6.21,10.16,10.16,0,0,1,2.13-6.76,7,7,0,0,1,5.66-2.54,5.47,5.47,0,0,1,5.1,2.76h.06V53.8h2.73Zm-2.73-7.69V68.77a4.84,4.84,0,0,0-1.36-3.48,4.58,4.58,0,0,0-3.45-1.43,4.7,4.7,0,0,0-3.92,1.83,8,8,0,0,0-1.43,5,7.2,7.2,0,0,0,1.37,4.64,4.48,4.48,0,0,0,3.68,1.71,4.62,4.62,0,0,0,3.69-1.65A6.1,6.1,0,0,0,21.54,71.28Z" transform="translate(-7 -3)"/><path d="M43.44,71.15h-12A6.35,6.35,0,0,0,33,75.53a5.29,5.29,0,0,0,4,1.55,8.35,8.35,0,0,0,5.28-1.9v2.56a9.89,9.89,0,0,1-5.93,1.63,7.21,7.21,0,0,1-5.66-2.32,9.49,9.49,0,0,1-2.05-6.52,9.27,9.27,0,0,1,2.24-6.46,7.21,7.21,0,0,1,5.59-2.5,6.36,6.36,0,0,1,5.16,2.16,9,9,0,0,1,1.83,6Zm-2.79-2.31a5.54,5.54,0,0,0-1.14-3.67,3.87,3.87,0,0,0-3.11-1.31,4.41,4.41,0,0,0-3.27,1.38,6.24,6.24,0,0,0-1.66,3.6Z" transform="translate(-7 -3)"/><path d="M61.67,79H59v-9.7q0-5.41-4-5.41a4.26,4.26,0,0,0-3.38,1.54,5.68,5.68,0,0,0-1.34,3.87V79H47.56V62h2.72v2.82h.07a6.12,6.12,0,0,1,5.57-3.22,5.2,5.2,0,0,1,4.27,1.8,8,8,0,0,1,1.48,5.21Z" transform="translate(-7 -3)"/><path d="M73.9,79.37a7.87,7.87,0,0,1-6-2.39,8.8,8.8,0,0,1-2.25-6.31A9.18,9.18,0,0,1,68,64a8.39,8.39,0,0,1,6.32-2.41,7.63,7.63,0,0,1,5.94,2.34,9.28,9.28,0,0,1,2.13,6.49,9.15,9.15,0,0,1-2.3,6.52A8.07,8.07,0,0,1,73.9,79.37Zm.2-15.51A5.18,5.18,0,0,0,70,65.65a7.3,7.3,0,0,0-1.52,4.92A6.92,6.92,0,0,0,70,75.33a5.26,5.26,0,0,0,4.13,1.75,5,5,0,0,0,4.06-1.71,7.42,7.42,0,0,0,1.42-4.87,7.52,7.52,0,0,0-1.42-4.91A5,5,0,0,0,74.1,63.86Z" transform="translate(-7 -3)"/><path d="M110.86,79h-2.72V69.21a7.38,7.38,0,0,0-.87-4.09,3.33,3.33,0,0,0-2.94-1.26,3.64,3.64,0,0,0-3,1.59,6.14,6.14,0,0,0-1.22,3.82V79H97.43V68.87q0-5-3.87-5a3.58,3.58,0,0,0-3,1.5,6.19,6.19,0,0,0-1.17,3.91V79H86.72V62h2.72v2.69h.07a5.78,5.78,0,0,1,5.28-3.09,4.89,4.89,0,0,1,4.81,3.52,6.08,6.08,0,0,1,5.65-3.52q5.61,0,5.61,6.92Z" transform="translate(-7 -3)"/><path d="M117.4,57.65a1.67,1.67,0,0,1-1.24-.5,1.65,1.65,0,0,1-.52-1.26,1.74,1.74,0,0,1,1.76-1.77,1.74,1.74,0,0,1,1.27.5,1.79,1.79,0,0,1,0,2.52A1.75,1.75,0,0,1,117.4,57.65ZM118.73,79H116V62h2.72Z" transform="translate(-7 -3)"/><path d="M138.35,79h-2.72v-9.7q0-5.41-3.95-5.41a4.27,4.27,0,0,0-3.38,1.54A5.68,5.68,0,0,0,127,69.27V79h-2.72V62H127v2.82H127a6.12,6.12,0,0,1,5.58-3.22,5.18,5.18,0,0,1,4.26,1.8,8,8,0,0,1,1.48,5.21Z" transform="translate(-7 -3)"/><path d="M155.65,79h-2.72V76.31h-.07a5.7,5.7,0,0,1-5.23,3.06,5.55,5.55,0,0,1-4-1.35,4.65,4.65,0,0,1-1.44-3.57q0-4.76,5.61-5.54l5.1-.72q0-4.34-3.51-4.33A8.39,8.39,0,0,0,143.88,66V63.16a10.56,10.56,0,0,1,5.78-1.59q6,0,6,6.34Zm-2.72-8.6-4.1.56a6.69,6.69,0,0,0-2.86.94,2.71,2.71,0,0,0-1,2.38,2.59,2.59,0,0,0,.89,2,3.45,3.45,0,0,0,2.36.79,4.4,4.4,0,0,0,3.35-1.42,5.09,5.09,0,0,0,1.32-3.6Z" transform="translate(-7 -3)"/><path d="M175.29,79h-2.72V76.08h-.07a6.85,6.85,0,0,1-11,1,9.34,9.34,0,0,1-1.92-6.21,10.21,10.21,0,0,1,2.12-6.76,7,7,0,0,1,5.66-2.54,5.45,5.45,0,0,1,5.1,2.76h.07V53.8h2.72Zm-2.72-7.69V68.77a4.88,4.88,0,0,0-1.36-3.48,4.58,4.58,0,0,0-3.46-1.43,4.71,4.71,0,0,0-3.92,1.83,8,8,0,0,0-1.42,5,7.15,7.15,0,0,0,1.37,4.64,4.46,4.46,0,0,0,3.67,1.71,4.65,4.65,0,0,0,3.7-1.65A6.15,6.15,0,0,0,172.57,71.28Z" transform="translate(-7 -3)"/><path d="M187.91,79.37a7.88,7.88,0,0,1-6-2.39,8.8,8.8,0,0,1-2.25-6.31A9.18,9.18,0,0,1,182,64a8.4,8.4,0,0,1,6.33-2.41,7.62,7.62,0,0,1,5.93,2.34,9.28,9.28,0,0,1,2.13,6.49,9.11,9.11,0,0,1-2.3,6.52A8,8,0,0,1,187.91,79.37Zm.2-15.51A5.17,5.17,0,0,0,184,65.65a7.3,7.3,0,0,0-1.53,4.92A6.92,6.92,0,0,0,184,75.33a5.27,5.27,0,0,0,4.14,1.75,5,5,0,0,0,4.06-1.71,7.48,7.48,0,0,0,1.41-4.87,7.58,7.58,0,0,0-1.41-4.91A5,5,0,0,0,188.11,63.86Z" transform="translate(-7 -3)"/></g><g style="isolation:isolate"><path d="M214,76.51H214V86.79h-2.72V62H214v3H214a6.44,6.44,0,0,1,5.88-3.39,6.23,6.23,0,0,1,5.13,2.28A9.44,9.44,0,0,1,226.89,70a10.56,10.56,0,0,1-2.07,6.83,6.92,6.92,0,0,1-5.68,2.57A5.71,5.71,0,0,1,214,76.51ZM214,69.65V72a5.08,5.08,0,0,0,1.37,3.58,4.87,4.87,0,0,0,7.35-.43,8.63,8.63,0,0,0,1.41-5.26,6.82,6.82,0,0,0-1.32-4.45,4.33,4.33,0,0,0-3.55-1.61,4.84,4.84,0,0,0-3.82,1.65A6.07,6.07,0,0,0,214,69.65Z" transform="translate(-7 -3)"/><path d="M240.11,64.72a3.37,3.37,0,0,0-2.06-.54,3.46,3.46,0,0,0-2.91,1.64A7.61,7.61,0,0,0,234,70.3V79h-2.73V62H234v3.5H234a6,6,0,0,1,1.78-2.8,4.05,4.05,0,0,1,2.67-1,4.59,4.59,0,0,1,1.63.23Z" transform="translate(-7 -3)"/><path d="M250.17,79.37a7.89,7.89,0,0,1-6-2.39,8.8,8.8,0,0,1-2.25-6.31A9.18,9.18,0,0,1,244.24,64a8.4,8.4,0,0,1,6.33-2.41,7.62,7.62,0,0,1,5.93,2.34,9.24,9.24,0,0,1,2.14,6.49,9.15,9.15,0,0,1-2.3,6.52A8.08,8.08,0,0,1,250.17,79.37Zm.2-15.51a5.18,5.18,0,0,0-4.15,1.79,7.3,7.3,0,0,0-1.53,4.92,6.92,6.92,0,0,0,1.55,4.76,5.23,5.23,0,0,0,4.13,1.75,5,5,0,0,0,4.06-1.71,7.48,7.48,0,0,0,1.42-4.87,7.58,7.58,0,0,0-1.42-4.91A5,5,0,0,0,250.37,63.86Z" transform="translate(-7 -3)"/><path d="M277.5,79h-2.73V76.08h-.06a6.86,6.86,0,0,1-11,1,9.34,9.34,0,0,1-1.92-6.21A10.16,10.16,0,0,1,264,64.11a7,7,0,0,1,5.66-2.54,5.46,5.46,0,0,1,5.1,2.76h.06V53.8h2.73Zm-2.73-7.69V68.77a4.84,4.84,0,0,0-1.36-3.48A4.58,4.58,0,0,0,270,63.86,4.7,4.7,0,0,0,266,65.69a8,8,0,0,0-1.43,5A7.2,7.2,0,0,0,266,75.37a4.48,4.48,0,0,0,3.68,1.71,4.62,4.62,0,0,0,3.69-1.65A6.1,6.1,0,0,0,274.77,71.28Z" transform="translate(-7 -3)"/><path d="M296.75,79H294V76.28H294a5.57,5.57,0,0,1-5.24,3.09q-6.08,0-6.08-7.24V62h2.71V71.7c0,3.58,1.37,5.38,4.12,5.38a4.18,4.18,0,0,0,3.27-1.47A5.62,5.62,0,0,0,294,71.76V62h2.72Z" transform="translate(-7 -3)"/><path d="M313.84,78.19a8.93,8.93,0,0,1-4.65,1.18A7.68,7.68,0,0,1,303.32,77a8.56,8.56,0,0,1-2.23-6.13,9.45,9.45,0,0,1,2.4-6.75,8.44,8.44,0,0,1,6.43-2.55,9,9,0,0,1,3.95.83v2.79a6.88,6.88,0,0,0-4.05-1.33,5.48,5.48,0,0,0-4.28,1.87,7.08,7.08,0,0,0-1.66,4.9,6.77,6.77,0,0,0,1.56,4.72,5.42,5.42,0,0,0,4.21,1.73,6.87,6.87,0,0,0,4.19-1.48Z" transform="translate(-7 -3)"/><path d="M325.84,78.8a5.18,5.18,0,0,1-2.54.53q-4.47,0-4.47-5V64.29h-2.92V62h2.92V57.82l2.73-.88v5h4.28v2.32h-4.28v9.58a4,4,0,0,0,.58,2.44,2.3,2.3,0,0,0,1.92.73,2.91,2.91,0,0,0,1.78-.56Z" transform="translate(-7 -3)"/><path d="M336.58,79.37a7.89,7.89,0,0,1-6-2.39,8.8,8.8,0,0,1-2.25-6.31A9.18,9.18,0,0,1,330.65,64,8.4,8.4,0,0,1,337,61.57a7.62,7.62,0,0,1,5.93,2.34,9.24,9.24,0,0,1,2.14,6.49,9.15,9.15,0,0,1-2.3,6.52A8.07,8.07,0,0,1,336.58,79.37Zm.2-15.51a5.18,5.18,0,0,0-4.15,1.79,7.3,7.3,0,0,0-1.53,4.92,6.92,6.92,0,0,0,1.55,4.76,5.25,5.25,0,0,0,4.13,1.75,5,5,0,0,0,4.06-1.71,7.42,7.42,0,0,0,1.42-4.87,7.52,7.52,0,0,0-1.42-4.91A5,5,0,0,0,336.78,63.86Z" transform="translate(-7 -3)"/></g><g style="isolation:isolate"><path d="M371.44,78.19a8.86,8.86,0,0,1-4.64,1.18A7.68,7.68,0,0,1,360.93,77a8.57,8.57,0,0,1-2.24-6.13,9.45,9.45,0,0,1,2.41-6.75,8.44,8.44,0,0,1,6.43-2.55,9,9,0,0,1,4,.83v2.79a6.91,6.91,0,0,0-4.05-1.33,5.46,5.46,0,0,0-4.28,1.87,7.08,7.08,0,0,0-1.67,4.9,6.77,6.77,0,0,0,1.57,4.72,5.42,5.42,0,0,0,4.21,1.73,6.84,6.84,0,0,0,4.18-1.48Z" transform="translate(-7 -3)"/><path d="M384.43,64.72a3.39,3.39,0,0,0-2.06-.54,3.47,3.47,0,0,0-2.92,1.64,7.61,7.61,0,0,0-1.17,4.48V79h-2.72V62h2.72v3.5h.07a6,6,0,0,1,1.78-2.8,4,4,0,0,1,2.67-1,4.59,4.59,0,0,1,1.63.23Z" transform="translate(-7 -3)"/><path d="M401.13,79H398.4V76.28h-.06a5.6,5.6,0,0,1-5.25,3.09q-6.07,0-6.07-7.24V62h2.7V71.7c0,3.58,1.37,5.38,4.12,5.38a4.2,4.2,0,0,0,3.28-1.47,5.61,5.61,0,0,0,1.28-3.85V62h2.73Z" transform="translate(-7 -3)"/><path d="M418.48,62.75,408.42,76.64h10V79h-14v-.85l10.07-13.83h-9.12V62h13.12Z" transform="translate(-7 -3)"/><path d="M422.94,79.33a1.77,1.77,0,0,1-1.3-.54,1.88,1.88,0,0,1,0-2.64,1.74,1.74,0,0,1,1.3-.55,1.87,1.87,0,0,1,1.33,3.19A1.83,1.83,0,0,1,422.94,79.33Z" transform="translate(-7 -3)"/></g><g style="isolation:isolate"><path d="M459.41,79H456L443.74,60A7.75,7.75,0,0,1,443,58.5h-.1a24.44,24.44,0,0,1,.13,3.27V79h-2.79V55.16h3.62l11.92,18.68a18,18,0,0,1,1,1.59h.07a25,25,0,0,1-.17-3.5V55.16h2.79Z" transform="translate(-7 -3)"/><path d="M472.4,79.37a7.88,7.88,0,0,1-6-2.39,8.8,8.8,0,0,1-2.25-6.31A9.18,9.18,0,0,1,466.47,64a8.39,8.39,0,0,1,6.32-2.41,7.63,7.63,0,0,1,5.94,2.34,9.28,9.28,0,0,1,2.13,6.49,9.11,9.11,0,0,1-2.3,6.52A8.06,8.06,0,0,1,472.4,79.37Zm.19-15.51a5.2,5.2,0,0,0-4.15,1.79,7.35,7.35,0,0,0-1.52,4.92,6.92,6.92,0,0,0,1.54,4.76,5.26,5.26,0,0,0,4.13,1.75,5,5,0,0,0,4.06-1.71,7.42,7.42,0,0,0,1.42-4.87,7.52,7.52,0,0,0-1.42-4.91A5,5,0,0,0,472.59,63.86Z" transform="translate(-7 -3)"/></g><g style="isolation:isolate"><path d="M494.63,78.35V75.43a8,8,0,0,0,4.89,1.65c2.39,0,3.59-.8,3.59-2.4a2,2,0,0,0-.31-1.15,3.15,3.15,0,0,0-.83-.84,6.44,6.44,0,0,0-1.23-.65c-.47-.2-1-.4-1.51-.61a20.25,20.25,0,0,1-2-.9,6.41,6.41,0,0,1-1.43-1,3.87,3.87,0,0,1-.86-1.31,4.63,4.63,0,0,1-.29-1.71,4,4,0,0,1,.55-2.11,4.8,4.8,0,0,1,1.46-1.55,6.93,6.93,0,0,1,2.08-.94,9.28,9.28,0,0,1,2.42-.31,9.73,9.73,0,0,1,3.95.76v2.76a7.7,7.7,0,0,0-4.32-1.23,5.32,5.32,0,0,0-1.38.17,3.4,3.4,0,0,0-1.05.49,2.33,2.33,0,0,0-.68.76,2,2,0,0,0-.24,1,2.17,2.17,0,0,0,.95,1.91,5.32,5.32,0,0,0,1.12.63l1.51.62a19.87,19.87,0,0,1,2,.88,7.17,7.17,0,0,1,1.53,1,4,4,0,0,1,1,1.32,4.68,4.68,0,0,1-.22,4,4.63,4.63,0,0,1-1.48,1.54,6.9,6.9,0,0,1-2.14.92,10.58,10.58,0,0,1-2.54.3A9.58,9.58,0,0,1,494.63,78.35Z" transform="translate(-7 -3)"/><path d="M523.75,71.15h-12a6.4,6.4,0,0,0,1.53,4.38,5.26,5.26,0,0,0,4,1.55,8.39,8.39,0,0,0,5.28-1.9v2.56a9.92,9.92,0,0,1-5.93,1.63A7.2,7.2,0,0,1,511,77.05a9.5,9.5,0,0,1-2.06-6.52,9.28,9.28,0,0,1,2.25-6.46,7.2,7.2,0,0,1,5.59-2.5,6.39,6.39,0,0,1,5.16,2.16,9,9,0,0,1,1.83,6ZM521,68.84a5.54,5.54,0,0,0-1.14-3.67,3.9,3.9,0,0,0-3.11-1.31,4.37,4.37,0,0,0-3.27,1.38,6.24,6.24,0,0,0-1.66,3.6Z" transform="translate(-7 -3)"/></g><g style="isolation:isolate"><path d="M552,71.15H540a6.35,6.35,0,0,0,1.52,4.38,5.29,5.29,0,0,0,4,1.55,8.35,8.35,0,0,0,5.28-1.9v2.56a9.89,9.89,0,0,1-5.93,1.63,7.2,7.2,0,0,1-5.66-2.32,9.5,9.5,0,0,1-2.06-6.52,9.28,9.28,0,0,1,2.25-6.46,7.21,7.21,0,0,1,5.59-2.5,6.38,6.38,0,0,1,5.16,2.16,9,9,0,0,1,1.83,6Zm-2.79-2.31a5.54,5.54,0,0,0-1.14-3.67A3.87,3.87,0,0,0,545,63.86a4.41,4.41,0,0,0-3.27,1.38,6.24,6.24,0,0,0-1.66,3.6Z" transform="translate(-7 -3)"/><path d="M570.25,79h-2.73v-9.7c0-3.61-1.31-5.41-3.95-5.41a4.25,4.25,0,0,0-3.37,1.54,5.63,5.63,0,0,0-1.34,3.87V79h-2.72V62h2.72v2.82h.07a6.12,6.12,0,0,1,5.57-3.22,5.22,5.22,0,0,1,4.27,1.8,8.07,8.07,0,0,1,1.48,5.21Z" transform="translate(-7 -3)"/><path d="M583.26,78.8a5.18,5.18,0,0,1-2.54.53q-4.46,0-4.46-5V64.29h-2.92V62h2.92V57.82l2.72-.88v5h4.28v2.32H579v9.58a4,4,0,0,0,.58,2.44,2.32,2.32,0,0,0,1.93.73,2.9,2.9,0,0,0,1.77-.56Z" transform="translate(-7 -3)"/><path d="M595.76,64.72a3.34,3.34,0,0,0-2-.54,3.46,3.46,0,0,0-2.92,1.64,7.61,7.61,0,0,0-1.17,4.48V79H586.9V62h2.72v3.5h.07a6,6,0,0,1,1.77-2.8,4.06,4.06,0,0,1,2.68-1,4.53,4.53,0,0,1,1.62.23Z" transform="translate(-7 -3)"/><path d="M610.89,79h-2.72V76.31h-.07a5.71,5.71,0,0,1-5.23,3.06,5.6,5.6,0,0,1-4-1.35,4.68,4.68,0,0,1-1.43-3.57q0-4.76,5.61-5.54l5.1-.72q0-4.34-3.51-4.33A8.37,8.37,0,0,0,599.12,66V63.16a10.53,10.53,0,0,1,5.77-1.59q6,0,6,6.34Zm-2.72-8.6-4.11.56a6.64,6.64,0,0,0-2.85.94,2.71,2.71,0,0,0-1,2.38,2.61,2.61,0,0,0,.88,2,3.48,3.48,0,0,0,2.37.79,4.4,4.4,0,0,0,3.35-1.42,5.09,5.09,0,0,0,1.32-3.6Z" transform="translate(-7 -3)"/><path d="M624.88,64.72a3.35,3.35,0,0,0-2.06-.54,3.46,3.46,0,0,0-2.91,1.64,7.61,7.61,0,0,0-1.17,4.48V79H616V62h2.72v3.5h.07a6,6,0,0,1,1.77-2.8,4.06,4.06,0,0,1,2.68-1,4.53,4.53,0,0,1,1.62.23Z" transform="translate(-7 -3)"/><path d="M640,79h-2.73V76.31h-.06A5.71,5.71,0,0,1,632,79.37,5.58,5.58,0,0,1,628,78a4.64,4.64,0,0,1-1.43-3.57q0-4.76,5.61-5.54l5.09-.72c0-2.89-1.16-4.33-3.5-4.33A8.37,8.37,0,0,0,628.24,66V63.16A10.53,10.53,0,0,1,634,61.57q6,0,6,6.34Zm-2.73-8.6-4.1.56a6.64,6.64,0,0,0-2.85.94,2.71,2.71,0,0,0-1,2.38,2.61,2.61,0,0,0,.88,2,3.48,3.48,0,0,0,2.37.79A4.38,4.38,0,0,0,636,75.66a5.09,5.09,0,0,0,1.32-3.6Zm.37-17.07-4.35,5.45h-2.11l3.7-5.45Z" transform="translate(-7 -3)"/></g><g style="isolation:isolate"><path d="M669.32,71.15h-12a6.35,6.35,0,0,0,1.52,4.38,5.29,5.29,0,0,0,4,1.55,8.35,8.35,0,0,0,5.28-1.9v2.56a9.89,9.89,0,0,1-5.93,1.63,7.2,7.2,0,0,1-5.66-2.32,9.5,9.5,0,0,1-2.06-6.52,9.28,9.28,0,0,1,2.25-6.46,7.21,7.21,0,0,1,5.59-2.5,6.38,6.38,0,0,1,5.16,2.16,9,9,0,0,1,1.83,6Zm-2.79-2.31a5.54,5.54,0,0,0-1.14-3.67,3.87,3.87,0,0,0-3.11-1.31A4.41,4.41,0,0,0,659,65.24a6.24,6.24,0,0,0-1.66,3.6Z" transform="translate(-7 -3)"/><path d="M687.55,79h-2.72v-9.7q0-5.41-4-5.41a4.25,4.25,0,0,0-3.37,1.54,5.63,5.63,0,0,0-1.34,3.87V79h-2.72V62h2.72v2.82h.07a6.12,6.12,0,0,1,5.57-3.22,5.22,5.22,0,0,1,4.27,1.8,8.07,8.07,0,0,1,1.48,5.21Z" transform="translate(-7 -3)"/></g><g style="isolation:isolate"><path d="M717.67,79h-2.73V76.08h-.06a6.86,6.86,0,0,1-11,1A9.34,9.34,0,0,1,702,70.87a10.16,10.16,0,0,1,2.13-6.76,7,7,0,0,1,5.66-2.54,5.46,5.46,0,0,1,5.1,2.76h.06V53.8h2.73Zm-2.73-7.69V68.77a4.84,4.84,0,0,0-1.36-3.48,4.58,4.58,0,0,0-3.45-1.43,4.7,4.7,0,0,0-3.92,1.83,8,8,0,0,0-1.43,5,7.2,7.2,0,0,0,1.37,4.64,4.48,4.48,0,0,0,3.68,1.71,4.62,4.62,0,0,0,3.69-1.65A6.1,6.1,0,0,0,714.94,71.28Z" transform="translate(-7 -3)"/><path d="M736.84,71.15h-12a6.31,6.31,0,0,0,1.53,4.38,5.25,5.25,0,0,0,4,1.55,8.35,8.35,0,0,0,5.28-1.9v2.56a9.88,9.88,0,0,1-5.92,1.63,7.22,7.22,0,0,1-5.67-2.32A9.49,9.49,0,0,1,722,70.53a9.27,9.27,0,0,1,2.24-6.46,7.21,7.21,0,0,1,5.59-2.5A6.36,6.36,0,0,1,735,63.73a9,9,0,0,1,1.83,6Zm-2.79-2.31a5.54,5.54,0,0,0-1.14-3.67,3.87,3.87,0,0,0-3.11-1.31,4.41,4.41,0,0,0-3.27,1.38,6.24,6.24,0,0,0-1.66,3.6Z" transform="translate(-7 -3)"/><path d="M748.84,78.8a5.18,5.18,0,0,1-2.54.53q-4.45,0-4.46-5V64.29h-2.92V62h2.92V57.82l2.72-.88v5h4.28v2.32h-4.28v9.58a4,4,0,0,0,.58,2.44,2.32,2.32,0,0,0,1.93.73,2.88,2.88,0,0,0,1.77-.56Z" transform="translate(-7 -3)"/><path d="M764.65,79h-2.72V76.31h-.07a5.71,5.71,0,0,1-5.23,3.06,5.6,5.6,0,0,1-4-1.35,4.68,4.68,0,0,1-1.43-3.57q0-4.76,5.61-5.54l5.1-.72q0-4.34-3.51-4.33A8.39,8.39,0,0,0,752.88,66V63.16a10.54,10.54,0,0,1,5.78-1.59q6,0,6,6.34Zm-2.72-8.6-4.1.56a6.64,6.64,0,0,0-2.86.94,2.71,2.71,0,0,0-1,2.38,2.61,2.61,0,0,0,.88,2,3.5,3.5,0,0,0,2.37.79,4.4,4.4,0,0,0,3.35-1.42,5.09,5.09,0,0,0,1.32-3.6Z" transform="translate(-7 -3)"/><path d="M772.5,79h-2.72V53.8h2.72Z" transform="translate(-7 -3)"/><path d="M780.74,79H778V53.8h2.73Z" transform="translate(-7 -3)"/><path d="M799.91,71.15h-12a6.35,6.35,0,0,0,1.52,4.38,5.29,5.29,0,0,0,4,1.55,8.35,8.35,0,0,0,5.28-1.9v2.56a9.89,9.89,0,0,1-5.93,1.63,7.21,7.21,0,0,1-5.66-2.32,9.5,9.5,0,0,1-2.06-6.52,9.28,9.28,0,0,1,2.25-6.46,7.21,7.21,0,0,1,5.59-2.5,6.36,6.36,0,0,1,5.16,2.16,9,9,0,0,1,1.83,6Zm-2.79-2.31A5.54,5.54,0,0,0,796,65.17a3.87,3.87,0,0,0-3.11-1.31,4.41,4.41,0,0,0-3.27,1.38,6.24,6.24,0,0,0-1.66,3.6Z" transform="translate(-7 -3)"/><path d="M803,78.35V75.43a8,8,0,0,0,4.9,1.65c2.39,0,3.58-.8,3.58-2.4a2,2,0,0,0-.31-1.15,3.15,3.15,0,0,0-.83-.84,6.06,6.06,0,0,0-1.22-.65l-1.52-.61a20.25,20.25,0,0,1-2-.9,6.41,6.41,0,0,1-1.43-1,3.87,3.87,0,0,1-.86-1.31,4.63,4.63,0,0,1-.29-1.71,4,4,0,0,1,.55-2.11A4.8,4.8,0,0,1,805,62.82a6.93,6.93,0,0,1,2.08-.94,9.28,9.28,0,0,1,2.42-.31,9.73,9.73,0,0,1,4,.76v2.76a7.7,7.7,0,0,0-4.32-1.23,5.24,5.24,0,0,0-1.37.17,3.46,3.46,0,0,0-1.06.49,2.33,2.33,0,0,0-.68.76,2,2,0,0,0-.24,1,2.34,2.34,0,0,0,.24,1.11,2.43,2.43,0,0,0,.71.8,5.41,5.41,0,0,0,1.13.63l1.51.62a20.66,20.66,0,0,1,2,.88,7.17,7.17,0,0,1,1.53,1,4,4,0,0,1,1,1.32,4.68,4.68,0,0,1-.22,4,4.63,4.63,0,0,1-1.48,1.54,6.9,6.9,0,0,1-2.14.92,10.58,10.58,0,0,1-2.54.3A9.58,9.58,0,0,1,803,78.35Z" transform="translate(-7 -3)"/></g><g style="isolation:isolate"><path d="M827.93,78.35V75.43a8,8,0,0,0,4.89,1.65c2.39,0,3.59-.8,3.59-2.4a2,2,0,0,0-.31-1.15,3.15,3.15,0,0,0-.83-.84A6.44,6.44,0,0,0,834,72c-.47-.2-1-.4-1.51-.61a20.25,20.25,0,0,1-2-.9,6.41,6.41,0,0,1-1.43-1,3.87,3.87,0,0,1-.86-1.31,4.63,4.63,0,0,1-.29-1.71,4,4,0,0,1,.55-2.11A4.8,4.8,0,0,1,830,62.82a6.93,6.93,0,0,1,2.08-.94,9.28,9.28,0,0,1,2.42-.31,9.73,9.73,0,0,1,3.95.76v2.76a7.7,7.7,0,0,0-4.32-1.23,5.32,5.32,0,0,0-1.38.17,3.4,3.4,0,0,0-1.05.49,2.33,2.33,0,0,0-.68.76,2,2,0,0,0-.24,1,2.17,2.17,0,0,0,1,1.91,5.32,5.32,0,0,0,1.12.63l1.51.62a19.87,19.87,0,0,1,2,.88,7.17,7.17,0,0,1,1.53,1,4,4,0,0,1,1,1.32,4.38,4.38,0,0,1,.34,1.78,4.2,4.2,0,0,1-.56,2.19,4.63,4.63,0,0,1-1.48,1.54,6.9,6.9,0,0,1-2.14.92,10.58,10.58,0,0,1-2.54.3A9.58,9.58,0,0,1,827.93,78.35Z" transform="translate(-7 -3)"/><path d="M850.49,79.37a7.89,7.89,0,0,1-6-2.39,8.8,8.8,0,0,1-2.25-6.31A9.18,9.18,0,0,1,844.56,64a8.4,8.4,0,0,1,6.33-2.41,7.62,7.62,0,0,1,5.93,2.34A9.28,9.28,0,0,1,859,70.4a9.15,9.15,0,0,1-2.3,6.52A8.08,8.08,0,0,1,850.49,79.37Zm.2-15.51a5.17,5.17,0,0,0-4.15,1.79A7.3,7.3,0,0,0,845,70.57a6.92,6.92,0,0,0,1.54,4.76,5.27,5.27,0,0,0,4.14,1.75,5,5,0,0,0,4.06-1.71,7.48,7.48,0,0,0,1.42-4.87,7.58,7.58,0,0,0-1.42-4.91A5,5,0,0,0,850.69,63.86Z" transform="translate(-7 -3)"/><path d="M866.09,76.51H866V79H863.3V53.8H866V65h.06A6.44,6.44,0,0,1,872,61.57a6.23,6.23,0,0,1,5.12,2.28A9.39,9.39,0,0,1,878.94,70a10.56,10.56,0,0,1-2.07,6.83,6.93,6.93,0,0,1-5.68,2.57A5.6,5.6,0,0,1,866.09,76.51ZM866,69.65V72a5,5,0,0,0,1.37,3.58,4.87,4.87,0,0,0,7.35-.43,8.63,8.63,0,0,0,1.4-5.26,6.82,6.82,0,0,0-1.31-4.45,4.34,4.34,0,0,0-3.55-1.61,4.83,4.83,0,0,0-3.82,1.65A6.07,6.07,0,0,0,866,69.65Z" transform="translate(-7 -3)"/><path d="M892.16,64.72a3.37,3.37,0,0,0-2.06-.54,3.46,3.46,0,0,0-2.91,1.64A7.61,7.61,0,0,0,886,70.3V79h-2.73V62H886v3.5h.06a6,6,0,0,1,1.78-2.8,4.05,4.05,0,0,1,2.67-1,4.59,4.59,0,0,1,1.63.23Z" transform="translate(-7 -3)"/><path d="M908.78,71.15h-12a6.4,6.4,0,0,0,1.53,4.38,5.26,5.26,0,0,0,4,1.55,8.39,8.39,0,0,0,5.28-1.9v2.56a9.92,9.92,0,0,1-5.93,1.63A7.2,7.2,0,0,1,896,77.05,9.5,9.5,0,0,1,894,70.53a9.28,9.28,0,0,1,2.25-6.46,7.2,7.2,0,0,1,5.59-2.5A6.39,6.39,0,0,1,907,63.73a9,9,0,0,1,1.83,6ZM906,68.84a5.54,5.54,0,0,0-1.14-3.67,3.88,3.88,0,0,0-3.11-1.31,4.37,4.37,0,0,0-3.27,1.38,6.24,6.24,0,0,0-1.66,3.6Z" transform="translate(-7 -3)"/></g><g style="isolation:isolate"><path d="M937,71.15H925a6.35,6.35,0,0,0,1.52,4.38,5.29,5.29,0,0,0,4,1.55,8.35,8.35,0,0,0,5.28-1.9v2.56a9.89,9.89,0,0,1-5.93,1.63,7.2,7.2,0,0,1-5.66-2.32,9.5,9.5,0,0,1-2.06-6.52,9.28,9.28,0,0,1,2.25-6.46,7.2,7.2,0,0,1,5.59-2.5,6.39,6.39,0,0,1,5.16,2.16,9,9,0,0,1,1.83,6Zm-2.79-2.31a5.54,5.54,0,0,0-1.14-3.67A3.87,3.87,0,0,0,930,63.86a4.41,4.41,0,0,0-3.27,1.38,6.24,6.24,0,0,0-1.66,3.6Z" transform="translate(-7 -3)"/><path d="M940.11,78.35V75.43A8,8,0,0,0,945,77.08c2.39,0,3.59-.8,3.59-2.4a2,2,0,0,0-.31-1.15,3.15,3.15,0,0,0-.83-.84,6.44,6.44,0,0,0-1.23-.65c-.47-.2-1-.4-1.51-.61a20.25,20.25,0,0,1-2-.9,6.41,6.41,0,0,1-1.43-1,3.87,3.87,0,0,1-.86-1.31,4.63,4.63,0,0,1-.29-1.71,4,4,0,0,1,.55-2.11,4.8,4.8,0,0,1,1.46-1.55,6.93,6.93,0,0,1,2.08-.94,9.28,9.28,0,0,1,2.42-.31,9.73,9.73,0,0,1,4,.76v2.76a7.7,7.7,0,0,0-4.32-1.23,5.32,5.32,0,0,0-1.38.17,3.51,3.51,0,0,0-1,.49,2.33,2.33,0,0,0-.68.76,2,2,0,0,0-.24,1,2.34,2.34,0,0,0,.24,1.11,2.43,2.43,0,0,0,.71.8,5.32,5.32,0,0,0,1.12.63l1.51.62a19.87,19.87,0,0,1,2,.88,7.17,7.17,0,0,1,1.53,1,4,4,0,0,1,1,1.32,4.68,4.68,0,0,1-.22,4,4.63,4.63,0,0,1-1.48,1.54,6.9,6.9,0,0,1-2.14.92,10.58,10.58,0,0,1-2.54.3A9.58,9.58,0,0,1,940.11,78.35Z" transform="translate(-7 -3)"/><path d="M963.45,78.8a5.18,5.18,0,0,1-2.54.53q-4.47,0-4.47-5V64.29h-2.92V62h2.92V57.82l2.73-.88v5h4.28v2.32h-4.28v9.58a4,4,0,0,0,.58,2.44,2.3,2.3,0,0,0,1.92.73,2.91,2.91,0,0,0,1.78-.56Z" transform="translate(-7 -3)"/><path d="M979.25,79h-2.72V76.31h-.07a5.69,5.69,0,0,1-5.23,3.06,5.57,5.57,0,0,1-4-1.35,4.65,4.65,0,0,1-1.44-3.57q0-4.76,5.61-5.54l5.1-.72q0-4.34-3.5-4.33A8.4,8.4,0,0,0,967.48,66V63.16a10.56,10.56,0,0,1,5.78-1.59q6,0,6,6.34Zm-2.72-8.6-4.1.56a6.74,6.74,0,0,0-2.86.94,2.71,2.71,0,0,0-1,2.38,2.62,2.62,0,0,0,.89,2,3.46,3.46,0,0,0,2.37.79,4.38,4.38,0,0,0,3.34-1.42,5.09,5.09,0,0,0,1.32-3.6Z" transform="translate(-7 -3)"/></g><g style="isolation:isolate"><path d="M1002,79.37a7.89,7.89,0,0,1-6-2.39,8.8,8.8,0,0,1-2.25-6.31A9.18,9.18,0,0,1,996,64a8.4,8.4,0,0,1,6.33-2.41,7.62,7.62,0,0,1,5.93,2.34,9.24,9.24,0,0,1,2.14,6.49,9.15,9.15,0,0,1-2.3,6.52A8.07,8.07,0,0,1,1002,79.37Zm.2-15.51A5.18,5.18,0,0,0,998,65.65a7.3,7.3,0,0,0-1.53,4.92A6.92,6.92,0,0,0,998,75.33a5.25,5.25,0,0,0,4.13,1.75,5,5,0,0,0,4.06-1.71,7.42,7.42,0,0,0,1.42-4.87,7.52,7.52,0,0,0-1.42-4.91A5,5,0,0,0,1002.16,63.86Z" transform="translate(-7 -3)"/><path d="M1017.57,76.51h-.07V86.79h-2.72V62h2.72v3h.07a6.43,6.43,0,0,1,5.87-3.39,6.23,6.23,0,0,1,5.13,2.28,9.45,9.45,0,0,1,1.85,6.12,10.56,10.56,0,0,1-2.08,6.83,6.92,6.92,0,0,1-5.68,2.57A5.69,5.69,0,0,1,1017.57,76.51Zm-.07-6.86V72a5.08,5.08,0,0,0,1.37,3.58,4.87,4.87,0,0,0,7.35-.43,8.63,8.63,0,0,0,1.41-5.26,6.88,6.88,0,0,0-1.31-4.45,4.36,4.36,0,0,0-3.56-1.61,4.84,4.84,0,0,0-3.82,1.65A6.07,6.07,0,0,0,1017.5,69.65Z" transform="translate(-7 -3)"/><path d="M1048.43,71.15h-12a6.35,6.35,0,0,0,1.52,4.38,5.29,5.29,0,0,0,4,1.55,8.35,8.35,0,0,0,5.28-1.9v2.56a9.89,9.89,0,0,1-5.93,1.63,7.2,7.2,0,0,1-5.66-2.32,9.5,9.5,0,0,1-2.06-6.52,9.28,9.28,0,0,1,2.25-6.46,7.2,7.2,0,0,1,5.59-2.5,6.39,6.39,0,0,1,5.16,2.16,9,9,0,0,1,1.83,6Zm-2.79-2.31a5.54,5.54,0,0,0-1.14-3.67,3.87,3.87,0,0,0-3.11-1.31,4.41,4.41,0,0,0-3.27,1.38,6.24,6.24,0,0,0-1.66,3.6Z" transform="translate(-7 -3)"/><path d="M1061.41,64.72a3.35,3.35,0,0,0-2.06-.54,3.46,3.46,0,0,0-2.91,1.64,7.61,7.61,0,0,0-1.17,4.48V79h-2.72V62h2.72v3.5h.06a6,6,0,0,1,1.78-2.8,4.05,4.05,0,0,1,2.67-1,4.55,4.55,0,0,1,1.63.23Z" transform="translate(-7 -3)"/><path d="M1076.54,79h-2.73V76.31h-.06a5.71,5.71,0,0,1-5.23,3.06,5.58,5.58,0,0,1-4-1.35,4.65,4.65,0,0,1-1.44-3.57q0-4.76,5.62-5.54l5.09-.72q0-4.34-3.5-4.33a8.4,8.4,0,0,0-5.55,2.09V63.16a10.58,10.58,0,0,1,5.78-1.59q6,0,6,6.34Zm-2.73-8.6-4.1.56a6.64,6.64,0,0,0-2.85.94,2.69,2.69,0,0,0-1,2.38,2.62,2.62,0,0,0,.89,2,3.46,3.46,0,0,0,2.37.79,4.38,4.38,0,0,0,3.34-1.42,5.09,5.09,0,0,0,1.32-3.6Z" transform="translate(-7 -3)"/><path d="M1093.25,78.19a8.87,8.87,0,0,1-4.65,1.18,7.66,7.66,0,0,1-5.86-2.37,8.57,8.57,0,0,1-2.24-6.13,9.45,9.45,0,0,1,2.41-6.75,8.41,8.41,0,0,1,6.42-2.55,9,9,0,0,1,4,.83v2.79a6.93,6.93,0,0,0-4-1.33,5.46,5.46,0,0,0-4.28,1.87,7.08,7.08,0,0,0-1.67,4.9,6.77,6.77,0,0,0,1.57,4.72,5.42,5.42,0,0,0,4.21,1.73,6.84,6.84,0,0,0,4.18-1.48Z" transform="translate(-7 -3)"/><path d="M1098.76,57.65a1.74,1.74,0,0,1-1.76-1.76,1.73,1.73,0,0,1,.52-1.27,1.69,1.69,0,0,1,1.24-.5,1.76,1.76,0,0,1,1.28.5,1.79,1.79,0,0,1,0,2.52A1.77,1.77,0,0,1,1098.76,57.65ZM1100.09,79h-2.72V62h2.72Z" transform="translate(-7 -3)"/><path d="M1112.71,79.37a7.89,7.89,0,0,1-6-2.39,8.8,8.8,0,0,1-2.25-6.31,9.18,9.18,0,0,1,2.34-6.69,8.4,8.4,0,0,1,6.33-2.41,7.62,7.62,0,0,1,5.93,2.34,9.24,9.24,0,0,1,2.14,6.49,9.15,9.15,0,0,1-2.3,6.52A8.08,8.08,0,0,1,1112.71,79.37Zm.2-15.51a5.18,5.18,0,0,0-4.15,1.79,7.3,7.3,0,0,0-1.53,4.92,6.92,6.92,0,0,0,1.55,4.76,5.23,5.23,0,0,0,4.13,1.75,5,5,0,0,0,4.06-1.71,7.42,7.42,0,0,0,1.42-4.87,7.52,7.52,0,0,0-1.42-4.91A5,5,0,0,0,1112.91,63.86Zm4-10.56-4.35,5.45h-2.1l3.7-5.45Z" transform="translate(-7 -3)"/><path d="M1139.64,79h-2.72v-9.7q0-5.41-4-5.41a4.25,4.25,0,0,0-3.37,1.54,5.63,5.63,0,0,0-1.34,3.87V79h-2.72V62h2.72v2.82h.07a6.12,6.12,0,0,1,5.57-3.22,5.22,5.22,0,0,1,4.27,1.8,8,8,0,0,1,1.48,5.21Z" transform="translate(-7 -3)"/></g><g style="isolation:isolate"><path d="M8.73,119.15v-2.92a8,8,0,0,0,4.89,1.65c2.39,0,3.59-.8,3.59-2.4a2,2,0,0,0-.31-1.15,3.15,3.15,0,0,0-.83-.84,6.44,6.44,0,0,0-1.23-.65c-.47-.2-1-.4-1.51-.61a20.25,20.25,0,0,1-2-.9,6.41,6.41,0,0,1-1.43-1A3.87,3.87,0,0,1,9.05,109a4.63,4.63,0,0,1-.29-1.71,4,4,0,0,1,.55-2.11,4.8,4.8,0,0,1,1.46-1.55,6.93,6.93,0,0,1,2.08-.94,9.28,9.28,0,0,1,2.42-.31,9.73,9.73,0,0,1,3.95.76v2.76a7.7,7.7,0,0,0-4.32-1.23,5.32,5.32,0,0,0-1.38.17,3.4,3.4,0,0,0-1,.49,2.33,2.33,0,0,0-.68.76,2,2,0,0,0-.24,1,2.34,2.34,0,0,0,.24,1.11,2.43,2.43,0,0,0,.71.8,5.32,5.32,0,0,0,1.12.63l1.51.62a19.87,19.87,0,0,1,2,.88,7.17,7.17,0,0,1,1.53,1,4,4,0,0,1,1,1.32,4.68,4.68,0,0,1-.22,4A4.73,4.73,0,0,1,18,119a6.9,6.9,0,0,1-2.14.92,10.58,10.58,0,0,1-2.54.3A9.58,9.58,0,0,1,8.73,119.15Z" transform="translate(-7 -3)"/><path d="M31.29,120.17a7.89,7.89,0,0,1-6-2.39A8.8,8.8,0,0,1,23,111.47a9.18,9.18,0,0,1,2.34-6.69,8.4,8.4,0,0,1,6.33-2.41,7.62,7.62,0,0,1,5.93,2.34,9.28,9.28,0,0,1,2.13,6.49,9.17,9.17,0,0,1-2.29,6.52A8.08,8.08,0,0,1,31.29,120.17Zm.2-15.51a5.14,5.14,0,0,0-4.15,1.79,7.3,7.3,0,0,0-1.53,4.92,6.92,6.92,0,0,0,1.54,4.76,5.27,5.27,0,0,0,4.14,1.75,5,5,0,0,0,4.06-1.71A7.48,7.48,0,0,0,37,111.3a7.58,7.58,0,0,0-1.42-4.91A5,5,0,0,0,31.49,104.66Z" transform="translate(-7 -3)"/><path d="M46.83,119.77H44.1V94.6h2.73Z" transform="translate(-7 -3)"/><path d="M59.44,120.17a7.87,7.87,0,0,1-6-2.39,8.8,8.8,0,0,1-2.25-6.31,9.18,9.18,0,0,1,2.34-6.69,8.39,8.39,0,0,1,6.32-2.41,7.63,7.63,0,0,1,5.94,2.34,9.28,9.28,0,0,1,2.13,6.49,9.17,9.17,0,0,1-2.3,6.52A8.07,8.07,0,0,1,59.44,120.17Zm.2-15.51a5.15,5.15,0,0,0-4.15,1.79A7.3,7.3,0,0,0,54,111.37a6.92,6.92,0,0,0,1.54,4.76,5.26,5.26,0,0,0,4.13,1.75,5,5,0,0,0,4.06-1.71,7.42,7.42,0,0,0,1.42-4.87,7.52,7.52,0,0,0-1.42-4.91A5,5,0,0,0,59.64,104.66Z" transform="translate(-7 -3)"/></g><g style="isolation:isolate"><path d="M78.93,119.15v-2.92a8,8,0,0,0,4.89,1.65c2.39,0,3.59-.8,3.59-2.4a2,2,0,0,0-.31-1.15,3.15,3.15,0,0,0-.83-.84,6.44,6.44,0,0,0-1.23-.65c-.47-.2-1-.4-1.51-.61a20.25,20.25,0,0,1-2-.9,6.41,6.41,0,0,1-1.43-1,3.87,3.87,0,0,1-.86-1.31,4.63,4.63,0,0,1-.29-1.71,4,4,0,0,1,.55-2.11A4.8,4.8,0,0,1,81,103.62a6.93,6.93,0,0,1,2.08-.94,9.28,9.28,0,0,1,2.42-.31,9.73,9.73,0,0,1,4,.76v2.76a7.7,7.7,0,0,0-4.32-1.23,5.32,5.32,0,0,0-1.38.17,3.4,3.4,0,0,0-1,.49,2.33,2.33,0,0,0-.68.76,2,2,0,0,0-.24,1,2.34,2.34,0,0,0,.24,1.11,2.43,2.43,0,0,0,.71.8,5.32,5.32,0,0,0,1.12.63l1.51.62a19.87,19.87,0,0,1,2,.88,7.17,7.17,0,0,1,1.53,1,4,4,0,0,1,1,1.32,4.68,4.68,0,0,1-.22,4A4.73,4.73,0,0,1,88.16,119a6.9,6.9,0,0,1-2.14.92,10.58,10.58,0,0,1-2.54.3A9.58,9.58,0,0,1,78.93,119.15Z" transform="translate(-7 -3)"/><path d="M108.05,112H96a6.4,6.4,0,0,0,1.53,4.38,5.26,5.26,0,0,0,4,1.55,8.39,8.39,0,0,0,5.28-1.9v2.56a9.92,9.92,0,0,1-5.93,1.63,7.2,7.2,0,0,1-5.66-2.32,9.5,9.5,0,0,1-2.06-6.52,9.28,9.28,0,0,1,2.25-6.46,7.2,7.2,0,0,1,5.59-2.5,6.39,6.39,0,0,1,5.16,2.16,9,9,0,0,1,1.83,6Zm-2.79-2.31a5.54,5.54,0,0,0-1.14-3.67,3.9,3.9,0,0,0-3.11-1.31A4.37,4.37,0,0,0,97.74,106a6.24,6.24,0,0,0-1.66,3.6Z" transform="translate(-7 -3)"/></g><g style="isolation:isolate"><path d="M134.47,119.77h-2.73v-2.89h-.06a6.86,6.86,0,0,1-11,1,9.34,9.34,0,0,1-1.92-6.21,10.16,10.16,0,0,1,2.13-6.76,7,7,0,0,1,5.66-2.54,5.47,5.47,0,0,1,5.1,2.75h.06V94.6h2.73Zm-2.73-7.69v-2.51a4.84,4.84,0,0,0-1.36-3.48,4.58,4.58,0,0,0-3.45-1.43,4.7,4.7,0,0,0-3.92,1.83,8,8,0,0,0-1.43,5,7.2,7.2,0,0,0,1.37,4.64,4.48,4.48,0,0,0,3.68,1.71,4.62,4.62,0,0,0,3.69-1.65A6.1,6.1,0,0,0,131.74,112.08Z" transform="translate(-7 -3)"/><path d="M141.37,98.45a1.67,1.67,0,0,1-1.24-.5,1.65,1.65,0,0,1-.52-1.26,1.74,1.74,0,0,1,1.76-1.77,1.74,1.74,0,0,1,1.27.5,1.76,1.76,0,0,1,0,2.52A1.75,1.75,0,0,1,141.37,98.45Zm1.33,21.32H140v-17h2.72Z" transform="translate(-7 -3)"/><path d="M157.08,105.52A3.37,3.37,0,0,0,155,105a3.49,3.49,0,0,0-2.92,1.64,7.59,7.59,0,0,0-1.17,4.48v8.67h-2.72v-17h2.72v3.5H151a6,6,0,0,1,1.78-2.8,4,4,0,0,1,2.67-1,4.59,4.59,0,0,1,1.63.23Z" transform="translate(-7 -3)"/><path d="M172.2,119.77h-2.72v-2.66h-.07a5.7,5.7,0,0,1-5.23,3.06,5.55,5.55,0,0,1-4-1.35,4.65,4.65,0,0,1-1.44-3.57q0-4.75,5.61-5.54l5.1-.72q0-4.33-3.5-4.33a8.4,8.4,0,0,0-5.55,2.09V104a10.56,10.56,0,0,1,5.78-1.59q6,0,6,6.34Zm-2.72-8.6-4.1.56a6.69,6.69,0,0,0-2.86.94,2.71,2.71,0,0,0-1,2.38,2.62,2.62,0,0,0,.89,2,3.45,3.45,0,0,0,2.36.79,4.4,4.4,0,0,0,3.35-1.42,5.09,5.09,0,0,0,1.32-3.6Zm.36-17.07-4.35,5.45h-2.1l3.7-5.45Z" transform="translate(-7 -3)"/></g><g style="isolation:isolate"><path d="M199.57,127.59h-2.73V116.85h-.06a6.1,6.1,0,0,1-5.81,3.32,6.38,6.38,0,0,1-5.14-2.29,9.29,9.29,0,0,1-1.94-6.21A10.17,10.17,0,0,1,186,104.9a7.07,7.07,0,0,1,5.71-2.53,5.38,5.38,0,0,1,5.05,2.75h.06v-2.35h2.73Zm-2.73-15.48v-2.47a5,5,0,0,0-1.37-3.54,4.58,4.58,0,0,0-3.47-1.44,4.69,4.69,0,0,0-3.89,1.82,8.12,8.12,0,0,0-1.43,5.12,7,7,0,0,0,1.38,4.61,4.4,4.4,0,0,0,3.55,1.67,4.78,4.78,0,0,0,3.81-1.64A6.06,6.06,0,0,0,196.84,112.11Z" transform="translate(-7 -3)"/><path d="M218.82,119.77H216.1v-2.69H216a5.57,5.57,0,0,1-5.24,3.09q-6.07,0-6.08-7.24V102.77h2.71v9.73c0,3.58,1.37,5.38,4.12,5.38a4.18,4.18,0,0,0,3.27-1.47,5.62,5.62,0,0,0,1.29-3.85v-9.79h2.72Z" transform="translate(-7 -3)"/><path d="M238,112H226a6.31,6.31,0,0,0,1.53,4.38,5.25,5.25,0,0,0,4,1.55,8.35,8.35,0,0,0,5.28-1.9v2.56a9.88,9.88,0,0,1-5.92,1.63,7.22,7.22,0,0,1-5.67-2.32,9.49,9.49,0,0,1-2.05-6.52,9.28,9.28,0,0,1,2.25-6.46,7.19,7.19,0,0,1,5.58-2.5,6.4,6.4,0,0,1,5.17,2.16,9,9,0,0,1,1.82,6Zm-2.79-2.31a5.59,5.59,0,0,0-1.13-3.67,3.9,3.9,0,0,0-3.12-1.31,4.41,4.41,0,0,0-3.27,1.38,6.3,6.3,0,0,0-1.66,3.6Z" transform="translate(-7 -3)"/></g><g style="isolation:isolate"><path d="M264.37,119.77h-2.73v-2.89h-.06a6.86,6.86,0,0,1-11,1,9.34,9.34,0,0,1-1.92-6.21,10.16,10.16,0,0,1,2.13-6.76,7,7,0,0,1,5.66-2.54,5.48,5.48,0,0,1,5.1,2.75h.06V94.6h2.73Zm-2.73-7.69v-2.51a4.84,4.84,0,0,0-1.36-3.48,4.58,4.58,0,0,0-3.45-1.43,4.7,4.7,0,0,0-3.92,1.83,8,8,0,0,0-1.43,5,7.2,7.2,0,0,0,1.37,4.64,4.48,4.48,0,0,0,3.68,1.71,4.62,4.62,0,0,0,3.69-1.65A6.1,6.1,0,0,0,261.64,112.08Z" transform="translate(-7 -3)"/><path d="M282.05,119.77h-2.73v-2.66h-.06a5.71,5.71,0,0,1-5.23,3.06,5.58,5.58,0,0,1-4-1.35,4.64,4.64,0,0,1-1.43-3.57q0-4.75,5.61-5.54l5.09-.72c0-2.89-1.16-4.33-3.5-4.33a8.36,8.36,0,0,0-5.54,2.09V104a10.53,10.53,0,0,1,5.77-1.59q6,0,6,6.34Zm-2.73-8.6-4.1.56a6.64,6.64,0,0,0-2.85.94,2.71,2.71,0,0,0-1,2.38,2.62,2.62,0,0,0,.89,2,3.46,3.46,0,0,0,2.37.79,4.38,4.38,0,0,0,3.34-1.42,5.09,5.09,0,0,0,1.32-3.6Z" transform="translate(-7 -3)"/></g><g style="isolation:isolate"><path d="M306.44,119a8.86,8.86,0,0,1-4.64,1.18,7.68,7.68,0,0,1-5.87-2.37,8.57,8.57,0,0,1-2.24-6.13,9.45,9.45,0,0,1,2.41-6.75,8.44,8.44,0,0,1,6.43-2.55,9,9,0,0,1,4,.83V106a6.91,6.91,0,0,0-4.05-1.33,5.46,5.46,0,0,0-4.28,1.87,7.08,7.08,0,0,0-1.67,4.9,6.77,6.77,0,0,0,1.57,4.72,5.42,5.42,0,0,0,4.21,1.73,6.84,6.84,0,0,0,4.18-1.48Z" transform="translate(-7 -3)"/><path d="M317.67,120.17a7.88,7.88,0,0,1-6-2.39,8.8,8.8,0,0,1-2.25-6.31,9.18,9.18,0,0,1,2.34-6.69,8.39,8.39,0,0,1,6.32-2.41,7.63,7.63,0,0,1,5.94,2.34,9.28,9.28,0,0,1,2.13,6.49,9.13,9.13,0,0,1-2.3,6.52A8,8,0,0,1,317.67,120.17Zm.2-15.51a5.14,5.14,0,0,0-4.15,1.79,7.3,7.3,0,0,0-1.53,4.92,6.92,6.92,0,0,0,1.54,4.76,5.27,5.27,0,0,0,4.14,1.75,5,5,0,0,0,4.05-1.71,7.42,7.42,0,0,0,1.42-4.87,7.52,7.52,0,0,0-1.42-4.91A4.93,4.93,0,0,0,317.87,104.66Z" transform="translate(-7 -3)"/><path d="M354.62,119.77H351.9V110a7.38,7.38,0,0,0-.87-4.09,3.31,3.31,0,0,0-2.93-1.26,3.65,3.65,0,0,0-3,1.59,6.14,6.14,0,0,0-1.22,3.82v9.7h-2.72v-10.1q0-5-3.87-5a3.58,3.58,0,0,0-2.95,1.5,6.19,6.19,0,0,0-1.16,3.91v9.7h-2.73v-17h2.73v2.69h.06a5.78,5.78,0,0,1,5.28-3.09,4.91,4.91,0,0,1,3,1,5,5,0,0,1,1.78,2.55,6.05,6.05,0,0,1,5.64-3.52q5.61,0,5.61,6.92Z" transform="translate(-7 -3)"/><path d="M366.87,120.17a7.86,7.86,0,0,1-6-2.39,8.8,8.8,0,0,1-2.25-6.31,9.18,9.18,0,0,1,2.34-6.69,8.39,8.39,0,0,1,6.32-2.41,7.64,7.64,0,0,1,5.94,2.34,9.28,9.28,0,0,1,2.13,6.49,9.17,9.17,0,0,1-2.3,6.52A8.07,8.07,0,0,1,366.87,120.17Zm.2-15.51a5.15,5.15,0,0,0-4.15,1.79,7.3,7.3,0,0,0-1.52,4.92,6.92,6.92,0,0,0,1.54,4.76,5.26,5.26,0,0,0,4.13,1.75,5,5,0,0,0,4.06-1.71,7.42,7.42,0,0,0,1.42-4.87,7.52,7.52,0,0,0-1.42-4.91A5,5,0,0,0,367.07,104.66Z" transform="translate(-7 -3)"/></g><g style="isolation:isolate"><path d="M396.32,105.52a3.35,3.35,0,0,0-2.06-.54,3.46,3.46,0,0,0-2.91,1.64,7.59,7.59,0,0,0-1.17,4.48v8.67h-2.72v-17h2.72v3.5h.07a5.88,5.88,0,0,1,1.77-2.8,4.05,4.05,0,0,1,2.67-1,4.59,4.59,0,0,1,1.63.23Z" transform="translate(-7 -3)"/><path d="M412.94,112h-12a6.35,6.35,0,0,0,1.52,4.38,5.29,5.29,0,0,0,4,1.55,8.35,8.35,0,0,0,5.28-1.9v2.56a9.89,9.89,0,0,1-5.93,1.63,7.2,7.2,0,0,1-5.66-2.32,9.5,9.5,0,0,1-2.06-6.52,9.28,9.28,0,0,1,2.25-6.46,7.21,7.21,0,0,1,5.59-2.5,6.38,6.38,0,0,1,5.16,2.16,9,9,0,0,1,1.83,6Zm-2.79-2.31A5.54,5.54,0,0,0,409,106a3.87,3.87,0,0,0-3.11-1.31,4.41,4.41,0,0,0-3.27,1.38,6.24,6.24,0,0,0-1.66,3.6Z" transform="translate(-7 -3)"/><path d="M416,119.15v-2.92a8,8,0,0,0,4.89,1.65c2.4,0,3.59-.8,3.59-2.4a2,2,0,0,0-.31-1.15,3.15,3.15,0,0,0-.83-.84,6.34,6.34,0,0,0-1.22-.65l-1.52-.61a20.25,20.25,0,0,1-2-.9,6.41,6.41,0,0,1-1.43-1,3.87,3.87,0,0,1-.86-1.31,4.63,4.63,0,0,1-.29-1.71,4,4,0,0,1,.55-2.11,4.8,4.8,0,0,1,1.46-1.55,6.93,6.93,0,0,1,2.08-.94,9.28,9.28,0,0,1,2.42-.31,9.73,9.73,0,0,1,3.95.76v2.76a7.7,7.7,0,0,0-4.32-1.23,5.19,5.19,0,0,0-1.37.17,3.46,3.46,0,0,0-1.06.49,2.33,2.33,0,0,0-.68.76,2,2,0,0,0-.24,1,2.34,2.34,0,0,0,.24,1.11,2.43,2.43,0,0,0,.71.8,5.58,5.58,0,0,0,1.12.63l1.52.62a20.66,20.66,0,0,1,2,.88,7.17,7.17,0,0,1,1.53,1,4,4,0,0,1,1,1.32,4.68,4.68,0,0,1-.22,4,4.73,4.73,0,0,1-1.48,1.54,6.9,6.9,0,0,1-2.14.92,10.58,10.58,0,0,1-2.54.3A9.58,9.58,0,0,1,416,119.15Z" transform="translate(-7 -3)"/><path d="M445.23,119.77h-2.72v-2.69h-.07a5.6,5.6,0,0,1-5.25,3.09q-6.07,0-6.07-7.24V102.77h2.7v9.73c0,3.58,1.38,5.38,4.12,5.38a4.2,4.2,0,0,0,3.28-1.47,5.62,5.62,0,0,0,1.29-3.85v-9.79h2.72Z" transform="translate(-7 -3)"/><path d="M453.45,119.77h-2.73V94.6h2.73Z" transform="translate(-7 -3)"/><path d="M466.84,119.6a5.16,5.16,0,0,1-2.54.53q-4.46,0-4.46-5V105.09h-2.92v-2.32h2.92V98.62l2.72-.88v5h4.28v2.32h-4.28v9.58a4,4,0,0,0,.58,2.44,2.32,2.32,0,0,0,1.93.73,2.88,2.88,0,0,0,1.77-.56Z" transform="translate(-7 -3)"/><path d="M482.65,119.77h-2.72v-2.66h-.07a5.7,5.7,0,0,1-5.23,3.06,5.6,5.6,0,0,1-4-1.35,4.68,4.68,0,0,1-1.43-3.57q0-4.75,5.61-5.54l5.1-.72q0-4.33-3.51-4.33a8.39,8.39,0,0,0-5.54,2.09V104a10.56,10.56,0,0,1,5.78-1.59q6,0,6,6.34Zm-2.72-8.6-4.1.56a6.64,6.64,0,0,0-2.86.94,2.71,2.71,0,0,0-1,2.38,2.59,2.59,0,0,0,.89,2,3.45,3.45,0,0,0,2.36.79,4.4,4.4,0,0,0,3.35-1.42,5.09,5.09,0,0,0,1.32-3.6Z" transform="translate(-7 -3)"/><path d="M502.29,119.77h-2.72v-2.89h-.07a6.86,6.86,0,0,1-11,1,9.39,9.39,0,0,1-1.91-6.21,10.21,10.21,0,0,1,2.12-6.76,7,7,0,0,1,5.66-2.54,5.46,5.46,0,0,1,5.1,2.75h.07V94.6h2.72Zm-2.72-7.69v-2.51a4.88,4.88,0,0,0-1.36-3.48,4.58,4.58,0,0,0-3.46-1.43,4.71,4.71,0,0,0-3.92,1.83,8,8,0,0,0-1.42,5,7.15,7.15,0,0,0,1.37,4.64,4.45,4.45,0,0,0,3.67,1.71,4.65,4.65,0,0,0,3.7-1.65A6.15,6.15,0,0,0,499.57,112.08Z" transform="translate(-7 -3)"/><path d="M514.91,120.17a7.88,7.88,0,0,1-6-2.39,8.8,8.8,0,0,1-2.25-6.31,9.18,9.18,0,0,1,2.34-6.69,8.39,8.39,0,0,1,6.32-2.41,7.63,7.63,0,0,1,5.94,2.34,9.28,9.28,0,0,1,2.13,6.49,9.13,9.13,0,0,1-2.3,6.52A8.06,8.06,0,0,1,514.91,120.17Zm.2-15.51a5.14,5.14,0,0,0-4.15,1.79,7.3,7.3,0,0,0-1.53,4.92,6.92,6.92,0,0,0,1.54,4.76,5.27,5.27,0,0,0,4.14,1.75,5,5,0,0,0,4-1.71,7.42,7.42,0,0,0,1.42-4.87,7.52,7.52,0,0,0-1.42-4.91A4.93,4.93,0,0,0,515.11,104.66Z" transform="translate(-7 -3)"/></g><g style="isolation:isolate"><path d="M542.56,120.17a7.89,7.89,0,0,1-6-2.39,8.8,8.8,0,0,1-2.25-6.31,9.18,9.18,0,0,1,2.34-6.69,8.42,8.42,0,0,1,6.33-2.41,7.65,7.65,0,0,1,5.94,2.34A9.28,9.28,0,0,1,551,111.2a9.17,9.17,0,0,1-2.3,6.52A8.07,8.07,0,0,1,542.56,120.17Zm.2-15.51a5.15,5.15,0,0,0-4.15,1.79,7.3,7.3,0,0,0-1.53,4.92,6.92,6.92,0,0,0,1.55,4.76,5.25,5.25,0,0,0,4.13,1.75,5,5,0,0,0,4.06-1.71,7.42,7.42,0,0,0,1.42-4.87,7.52,7.52,0,0,0-1.42-4.91A5,5,0,0,0,542.76,104.66Z" transform="translate(-7 -3)"/><path d="M563.26,119.6a5.18,5.18,0,0,1-2.54.53q-4.46,0-4.46-5V105.09h-2.92v-2.32h2.92V98.62l2.72-.88v5h4.28v2.32H559v9.58a4,4,0,0,0,.58,2.44,2.32,2.32,0,0,0,1.93.73,2.88,2.88,0,0,0,1.77-.56Z" transform="translate(-7 -3)"/><path d="M575.76,105.52a3.34,3.34,0,0,0-2-.54,3.46,3.46,0,0,0-2.92,1.64,7.59,7.59,0,0,0-1.17,4.48v8.67H566.9v-17h2.72v3.5h.07a6,6,0,0,1,1.77-2.8,4.06,4.06,0,0,1,2.68-1,4.49,4.49,0,0,1,1.62.23Z" transform="translate(-7 -3)"/><path d="M585.83,120.17a7.88,7.88,0,0,1-6-2.39,8.8,8.8,0,0,1-2.25-6.31,9.18,9.18,0,0,1,2.34-6.69,8.39,8.39,0,0,1,6.32-2.41,7.63,7.63,0,0,1,5.94,2.34,9.28,9.28,0,0,1,2.13,6.49,9.13,9.13,0,0,1-2.3,6.52A8.06,8.06,0,0,1,585.83,120.17Zm.19-15.51a5.16,5.16,0,0,0-4.15,1.79,7.35,7.35,0,0,0-1.52,4.92,6.92,6.92,0,0,0,1.54,4.76,5.26,5.26,0,0,0,4.13,1.75,5,5,0,0,0,4.06-1.71,7.42,7.42,0,0,0,1.42-4.87,7.52,7.52,0,0,0-1.42-4.91A5,5,0,0,0,586,104.66Z" transform="translate(-7 -3)"/></g><g style="isolation:isolate"><path d="M619.72,102.77l-6.77,17h-2.68l-6.44-17h3l4.32,12.35a10.72,10.72,0,0,1,.59,2.37h.07a11.27,11.27,0,0,1,.53-2.3l4.52-12.42Z" transform="translate(-7 -3)"/><path d="M636.3,112h-12a6.4,6.4,0,0,0,1.53,4.38,5.26,5.26,0,0,0,4,1.55,8.39,8.39,0,0,0,5.28-1.9v2.56a9.92,9.92,0,0,1-5.93,1.63,7.2,7.2,0,0,1-5.66-2.32,9.5,9.5,0,0,1-2.06-6.52,9.28,9.28,0,0,1,2.25-6.46,7.2,7.2,0,0,1,5.59-2.5,6.39,6.39,0,0,1,5.16,2.16,9,9,0,0,1,1.82,6Zm-2.78-2.31a5.59,5.59,0,0,0-1.14-3.67,3.9,3.9,0,0,0-3.11-1.31A4.37,4.37,0,0,0,626,106a6.24,6.24,0,0,0-1.67,3.6Z" transform="translate(-7 -3)"/><path d="M652,119a8.93,8.93,0,0,1-4.65,1.18,7.7,7.7,0,0,1-5.87-2.37,8.56,8.56,0,0,1-2.23-6.13,9.41,9.41,0,0,1,2.41-6.75,8.4,8.4,0,0,1,6.42-2.55,9,9,0,0,1,3.95.83V106a6.88,6.88,0,0,0-4-1.33,5.44,5.44,0,0,0-4.27,1.87,7.08,7.08,0,0,0-1.67,4.9,6.73,6.73,0,0,0,1.57,4.72,5.41,5.41,0,0,0,4.21,1.73A6.86,6.86,0,0,0,652,116.4Z" transform="translate(-7 -3)"/><path d="M664,119.6a5.18,5.18,0,0,1-2.54.53q-4.46,0-4.46-5V105.09h-2.93v-2.32H657V98.62l2.72-.88v5H664v2.32h-4.28v9.58a4,4,0,0,0,.58,2.44,2.32,2.32,0,0,0,1.93.73,2.9,2.9,0,0,0,1.77-.56Z" transform="translate(-7 -3)"/><path d="M674.75,120.17a7.87,7.87,0,0,1-6-2.39,8.8,8.8,0,0,1-2.25-6.31,9.18,9.18,0,0,1,2.34-6.69,8.39,8.39,0,0,1,6.32-2.41,7.63,7.63,0,0,1,5.94,2.34,9.28,9.28,0,0,1,2.13,6.49,9.17,9.17,0,0,1-2.3,6.52A8.07,8.07,0,0,1,674.75,120.17Zm.2-15.51a5.15,5.15,0,0,0-4.15,1.79,7.3,7.3,0,0,0-1.52,4.92,6.92,6.92,0,0,0,1.54,4.76,5.26,5.26,0,0,0,4.13,1.75,5,5,0,0,0,4.06-1.71,7.42,7.42,0,0,0,1.42-4.87,7.52,7.52,0,0,0-1.42-4.91A5,5,0,0,0,675,104.66Z" transform="translate(-7 -3)"/><path d="M696.44,105.52a3.39,3.39,0,0,0-2.06-.54,3.46,3.46,0,0,0-2.92,1.64,7.59,7.59,0,0,0-1.17,4.48v8.67h-2.72v-17h2.72v3.5h.07a6,6,0,0,1,1.78-2.8,4,4,0,0,1,2.67-1,4.59,4.59,0,0,1,1.63.23Z" transform="translate(-7 -3)"/></g><g style="isolation:isolate"><path d="M721.67,127.59h-2.73V116.85h-.06a6.1,6.1,0,0,1-5.81,3.32,6.38,6.38,0,0,1-5.14-2.29,9.29,9.29,0,0,1-1.94-6.21,10.17,10.17,0,0,1,2.13-6.77,7.07,7.07,0,0,1,5.71-2.53,5.38,5.38,0,0,1,5,2.75h.06v-2.35h2.73Zm-2.73-15.48v-2.47a5,5,0,0,0-1.37-3.54,4.58,4.58,0,0,0-3.47-1.44,4.69,4.69,0,0,0-3.89,1.82,8.12,8.12,0,0,0-1.43,5.12,7,7,0,0,0,1.38,4.61,4.4,4.4,0,0,0,3.55,1.67,4.78,4.78,0,0,0,3.81-1.64A6.06,6.06,0,0,0,718.94,112.11Z" transform="translate(-7 -3)"/><path d="M740.92,119.77H738.2v-2.69h-.07a5.57,5.57,0,0,1-5.24,3.09q-6.07,0-6.08-7.24V102.77h2.71v9.73c0,3.58,1.37,5.38,4.12,5.38a4.18,4.18,0,0,0,3.27-1.47,5.62,5.62,0,0,0,1.29-3.85v-9.79h2.72Z" transform="translate(-7 -3)"/><path d="M760.08,112h-12a6.31,6.31,0,0,0,1.53,4.38,5.25,5.25,0,0,0,4,1.55,8.35,8.35,0,0,0,5.28-1.9v2.56a9.88,9.88,0,0,1-5.92,1.63,7.18,7.18,0,0,1-5.66-2.32,9.45,9.45,0,0,1-2.06-6.52,9.28,9.28,0,0,1,2.25-6.46,7.19,7.19,0,0,1,5.58-2.5,6.4,6.4,0,0,1,5.17,2.16,9,9,0,0,1,1.82,6Zm-2.79-2.31a5.59,5.59,0,0,0-1.13-3.67,3.9,3.9,0,0,0-3.12-1.31,4.41,4.41,0,0,0-3.27,1.38,6.3,6.3,0,0,0-1.66,3.6Z" transform="translate(-7 -3)"/></g><g style="isolation:isolate"><path d="M785.62,112h-12a6.35,6.35,0,0,0,1.52,4.38,5.29,5.29,0,0,0,4,1.55,8.37,8.37,0,0,0,5.28-1.9v2.56a9.89,9.89,0,0,1-5.93,1.63,7.2,7.2,0,0,1-5.66-2.32,9.5,9.5,0,0,1-2.06-6.52,9.28,9.28,0,0,1,2.25-6.46,7.21,7.21,0,0,1,5.59-2.5,6.38,6.38,0,0,1,5.16,2.16,9,9,0,0,1,1.83,6Zm-2.79-2.31a5.54,5.54,0,0,0-1.14-3.67,3.87,3.87,0,0,0-3.11-1.31,4.41,4.41,0,0,0-3.27,1.38,6.24,6.24,0,0,0-1.66,3.6Z" transform="translate(-7 -3)"/><path d="M788.71,119.15v-2.92a8,8,0,0,0,4.89,1.65c2.4,0,3.59-.8,3.59-2.4a2,2,0,0,0-.31-1.15,3.15,3.15,0,0,0-.83-.84,6.44,6.44,0,0,0-1.23-.65c-.47-.2-1-.4-1.51-.61a20.25,20.25,0,0,1-2-.9,6.41,6.41,0,0,1-1.43-1A3.87,3.87,0,0,1,789,109a4.63,4.63,0,0,1-.29-1.71,4,4,0,0,1,.55-2.11,4.8,4.8,0,0,1,1.46-1.55,6.93,6.93,0,0,1,2.08-.94,9.28,9.28,0,0,1,2.42-.31,9.73,9.73,0,0,1,4,.76v2.76a7.7,7.7,0,0,0-4.32-1.23,5.32,5.32,0,0,0-1.38.17,3.4,3.4,0,0,0-1,.49,2.33,2.33,0,0,0-.68.76,2,2,0,0,0-.24,1,2.34,2.34,0,0,0,.24,1.11,2.43,2.43,0,0,0,.71.8,5.58,5.58,0,0,0,1.12.63l1.52.62a20.66,20.66,0,0,1,2,.88,7.17,7.17,0,0,1,1.53,1,4,4,0,0,1,1,1.32,4.68,4.68,0,0,1-.22,4,4.73,4.73,0,0,1-1.48,1.54,6.9,6.9,0,0,1-2.14.92,10.58,10.58,0,0,1-2.54.3A9.58,9.58,0,0,1,788.71,119.15Z" transform="translate(-7 -3)"/></g><g style="isolation:isolate"><path d="M814.75,117.31h-.07v10.28H812V102.77h2.72v3h.07a6.42,6.42,0,0,1,5.87-3.39,6.23,6.23,0,0,1,5.13,2.28,9.44,9.44,0,0,1,1.84,6.12,10.56,10.56,0,0,1-2.07,6.83,6.92,6.92,0,0,1-5.68,2.57A5.69,5.69,0,0,1,814.75,117.31Zm-.07-6.86v2.38a5,5,0,0,0,1.37,3.58,4.87,4.87,0,0,0,7.35-.43,8.63,8.63,0,0,0,1.41-5.26,6.82,6.82,0,0,0-1.32-4.45,4.33,4.33,0,0,0-3.55-1.61,4.84,4.84,0,0,0-3.82,1.65A6.07,6.07,0,0,0,814.68,110.45Z" transform="translate(-7 -3)"/><path d="M845.61,112h-12a6.4,6.4,0,0,0,1.53,4.38,5.27,5.27,0,0,0,4,1.55,8.39,8.39,0,0,0,5.28-1.9v2.56a9.92,9.92,0,0,1-5.93,1.63,7.2,7.2,0,0,1-5.66-2.32,9.5,9.5,0,0,1-2.06-6.52,9.28,9.28,0,0,1,2.25-6.46,7.2,7.2,0,0,1,5.59-2.5,6.39,6.39,0,0,1,5.16,2.16,9,9,0,0,1,1.83,6Zm-2.79-2.31a5.54,5.54,0,0,0-1.14-3.67,3.88,3.88,0,0,0-3.11-1.31A4.37,4.37,0,0,0,835.3,106a6.24,6.24,0,0,0-1.66,3.6Z" transform="translate(-7 -3)"/><path d="M858.59,105.52a3.37,3.37,0,0,0-2.06-.54,3.46,3.46,0,0,0-2.91,1.64,7.59,7.59,0,0,0-1.17,4.48v8.67h-2.73v-17h2.73v3.5h.06a6,6,0,0,1,1.78-2.8,4.05,4.05,0,0,1,2.67-1,4.59,4.59,0,0,1,1.63.23Z" transform="translate(-7 -3)"/><path d="M864.33,117.31h-.06v10.28h-2.73V102.77h2.73v3h.06a6.44,6.44,0,0,1,5.88-3.39,6.23,6.23,0,0,1,5.13,2.28,9.44,9.44,0,0,1,1.84,6.12,10.56,10.56,0,0,1-2.07,6.83,6.93,6.93,0,0,1-5.68,2.57A5.71,5.71,0,0,1,864.33,117.31Zm-.06-6.86v2.38a5,5,0,0,0,1.37,3.58A4.87,4.87,0,0,0,873,116a8.63,8.63,0,0,0,1.4-5.26,6.82,6.82,0,0,0-1.31-4.45,4.34,4.34,0,0,0-3.55-1.61,4.83,4.83,0,0,0-3.82,1.65A6.07,6.07,0,0,0,864.27,110.45Z" transform="translate(-7 -3)"/><path d="M895.2,112h-12a6.4,6.4,0,0,0,1.53,4.38,5.26,5.26,0,0,0,4,1.55A8.39,8.39,0,0,0,894,116v2.56a9.92,9.92,0,0,1-5.93,1.63,7.2,7.2,0,0,1-5.66-2.32,9.5,9.5,0,0,1-2.06-6.52,9.28,9.28,0,0,1,2.25-6.46,7.2,7.2,0,0,1,5.59-2.5,6.39,6.39,0,0,1,5.16,2.16,9,9,0,0,1,1.83,6Zm-2.79-2.31a5.54,5.54,0,0,0-1.14-3.67,3.88,3.88,0,0,0-3.11-1.31,4.37,4.37,0,0,0-3.27,1.38,6.24,6.24,0,0,0-1.66,3.6Z" transform="translate(-7 -3)"/><path d="M913.42,119.77H910.7v-9.7q0-5.41-4-5.41a4.27,4.27,0,0,0-3.38,1.54,5.67,5.67,0,0,0-1.33,3.87v9.7h-2.73v-17H902v2.82h.06a6.14,6.14,0,0,1,5.58-3.22,5.22,5.22,0,0,1,4.27,1.8,8.07,8.07,0,0,1,1.47,5.21Z" transform="translate(-7 -3)"/><path d="M933.06,119.77h-2.72v-2.89h-.06a6.86,6.86,0,0,1-11,1,9.34,9.34,0,0,1-1.92-6.21,10.16,10.16,0,0,1,2.13-6.76,7,7,0,0,1,5.66-2.54,5.48,5.48,0,0,1,5.1,2.75h.06V94.6h2.72Zm-2.72-7.69v-2.51a4.84,4.84,0,0,0-1.36-3.48,4.58,4.58,0,0,0-3.45-1.43,4.7,4.7,0,0,0-3.92,1.83,8,8,0,0,0-1.43,5,7.2,7.2,0,0,0,1.37,4.64,4.47,4.47,0,0,0,3.68,1.71,4.63,4.63,0,0,0,3.69-1.65A6.1,6.1,0,0,0,930.34,112.08Z" transform="translate(-7 -3)"/><path d="M940,98.45a1.67,1.67,0,0,1-1.24-.5,1.65,1.65,0,0,1-.52-1.26A1.74,1.74,0,0,1,940,94.92a1.74,1.74,0,0,1,1.27.5,1.79,1.79,0,0,1,0,2.52A1.75,1.75,0,0,1,940,98.45Zm1.33,21.32h-2.72v-17h2.72Z" transform="translate(-7 -3)"/><path d="M958.4,119a8.93,8.93,0,0,1-4.65,1.18,7.7,7.7,0,0,1-5.87-2.37,8.56,8.56,0,0,1-2.23-6.13,9.41,9.41,0,0,1,2.41-6.75,8.4,8.4,0,0,1,6.42-2.55,9,9,0,0,1,3.95.83V106a6.88,6.88,0,0,0-4-1.33,5.44,5.44,0,0,0-4.27,1.87,7,7,0,0,0-1.67,4.9,6.73,6.73,0,0,0,1.57,4.72,5.4,5.4,0,0,0,4.2,1.73,6.87,6.87,0,0,0,4.19-1.48Z" transform="translate(-7 -3)"/><path d="M976.26,119.77h-2.72v-2.69h-.07a5.59,5.59,0,0,1-5.24,3.09q-6.08,0-6.08-7.24V102.77h2.71v9.73c0,3.58,1.37,5.38,4.11,5.38a4.2,4.2,0,0,0,3.28-1.47,5.62,5.62,0,0,0,1.29-3.85v-9.79h2.72Z" transform="translate(-7 -3)"/><path d="M984.48,119.77h-2.72V94.6h2.72Z" transform="translate(-7 -3)"/><path d="M1002.16,119.77h-2.72v-2.66h-.07a5.7,5.7,0,0,1-5.23,3.06,5.55,5.55,0,0,1-4-1.35,4.65,4.65,0,0,1-1.44-3.57q0-4.75,5.61-5.54l5.1-.72q0-4.33-3.51-4.33a8.39,8.39,0,0,0-5.54,2.09V104a10.56,10.56,0,0,1,5.78-1.59q6,0,6,6.34Zm-2.72-8.6-4.1.56a6.69,6.69,0,0,0-2.86.94,2.71,2.71,0,0,0-1,2.38,2.59,2.59,0,0,0,.89,2,3.45,3.45,0,0,0,2.36.79,4.4,4.4,0,0,0,3.35-1.42,5.09,5.09,0,0,0,1.32-3.6Z" transform="translate(-7 -3)"/><path d="M1016.16,105.52a3.39,3.39,0,0,0-2.06-.54,3.46,3.46,0,0,0-2.92,1.64,7.59,7.59,0,0,0-1.17,4.48v8.67h-2.72v-17H1010v3.5h.07a6,6,0,0,1,1.78-2.8,4,4,0,0,1,2.67-1,4.59,4.59,0,0,1,1.63.23Z" transform="translate(-7 -3)"/></g><g style="isolation:isolate"><path d="M1038.92,119.77h-2.72v-2.66h-.06a5.71,5.71,0,0,1-5.23,3.06,5.58,5.58,0,0,1-4-1.35,4.65,4.65,0,0,1-1.44-3.57q0-4.75,5.62-5.54l5.09-.72q0-4.33-3.5-4.33a8.4,8.4,0,0,0-5.55,2.09V104a10.58,10.58,0,0,1,5.78-1.59q6,0,6,6.34Zm-2.72-8.6-4.1.56a6.64,6.64,0,0,0-2.85.94,2.69,2.69,0,0,0-1,2.38,2.62,2.62,0,0,0,.89,2,3.46,3.46,0,0,0,2.37.79,4.38,4.38,0,0,0,3.34-1.42,5.09,5.09,0,0,0,1.32-3.6Z" transform="translate(-7 -3)"/><path d="M1046.78,119.77h-2.73V94.6h2.73Z" transform="translate(-7 -3)"/></g><g style="isolation:isolate"><path d="M1062.84,117.31h-.06v10.28h-2.72V102.77h2.72v3h.06a6.44,6.44,0,0,1,5.88-3.39,6.23,6.23,0,0,1,5.13,2.28,9.44,9.44,0,0,1,1.84,6.12,10.56,10.56,0,0,1-2.07,6.83,6.92,6.92,0,0,1-5.68,2.57A5.71,5.71,0,0,1,1062.84,117.31Zm-.06-6.86v2.38a5.08,5.08,0,0,0,1.37,3.58,4.87,4.87,0,0,0,7.35-.43,8.63,8.63,0,0,0,1.41-5.26,6.82,6.82,0,0,0-1.32-4.45,4.33,4.33,0,0,0-3.55-1.61,4.84,4.84,0,0,0-3.82,1.65A6.07,6.07,0,0,0,1062.78,110.45Z" transform="translate(-7 -3)"/><path d="M1082.77,119.77H1080V94.6h2.73Z" transform="translate(-7 -3)"/><path d="M1100.45,119.77h-2.73v-2.66h-.06a5.71,5.71,0,0,1-5.23,3.06,5.6,5.6,0,0,1-4-1.35,4.68,4.68,0,0,1-1.43-3.57q0-4.75,5.61-5.54l5.09-.72c0-2.89-1.16-4.33-3.5-4.33a8.37,8.37,0,0,0-5.54,2.09V104a10.53,10.53,0,0,1,5.77-1.59q6,0,6,6.34Zm-2.73-8.6-4.1.56a6.64,6.64,0,0,0-2.85.94,2.71,2.71,0,0,0-1,2.38,2.61,2.61,0,0,0,.88,2,3.48,3.48,0,0,0,2.37.79,4.4,4.4,0,0,0,3.35-1.42,5.08,5.08,0,0,0,1.31-3.6Z" transform="translate(-7 -3)"/><path d="M1119.69,119.77H1117v-9.7q0-5.41-4-5.41a4.25,4.25,0,0,0-3.37,1.54,5.68,5.68,0,0,0-1.34,3.87v9.7h-2.72v-17h2.72v2.82h.07a6.12,6.12,0,0,1,5.57-3.22,5.2,5.2,0,0,1,4.27,1.8,8,8,0,0,1,1.48,5.21Z" transform="translate(-7 -3)"/><path d="M1131.92,120.17a7.87,7.87,0,0,1-6-2.39,8.8,8.8,0,0,1-2.25-6.31,9.18,9.18,0,0,1,2.34-6.69,8.39,8.39,0,0,1,6.32-2.41,7.64,7.64,0,0,1,5.94,2.34,9.28,9.28,0,0,1,2.13,6.49,9.17,9.17,0,0,1-2.3,6.52A8.07,8.07,0,0,1,1131.92,120.17Zm.2-15.51a5.15,5.15,0,0,0-4.15,1.79,7.3,7.3,0,0,0-1.52,4.92,6.92,6.92,0,0,0,1.54,4.76,5.26,5.26,0,0,0,4.13,1.75,5,5,0,0,0,4.06-1.71,7.42,7.42,0,0,0,1.42-4.87,7.52,7.52,0,0,0-1.42-4.91A5,5,0,0,0,1132.12,104.66Z" transform="translate(-7 -3)"/></g><g style="isolation:isolate"><path d="M24.27,168.39H21.54V157.65h-.06A6.1,6.1,0,0,1,15.67,161a6.38,6.38,0,0,1-5.14-2.29,9.29,9.29,0,0,1-1.94-6.21,10.17,10.17,0,0,1,2.13-6.77,7.07,7.07,0,0,1,5.71-2.53,5.37,5.37,0,0,1,5.05,2.76h.06v-2.36h2.73Zm-2.73-15.47v-2.48a4.91,4.91,0,0,0-1.37-3.53,4.55,4.55,0,0,0-3.47-1.45,4.69,4.69,0,0,0-3.89,1.82,8.12,8.12,0,0,0-1.43,5.12A7,7,0,0,0,12.76,157a4.4,4.4,0,0,0,3.55,1.67A4.78,4.78,0,0,0,20.12,157,6,6,0,0,0,21.54,152.92Z" transform="translate(-7 -3)"/><path d="M43.52,160.57H40.8v-2.69h-.07A5.57,5.57,0,0,1,35.49,161q-6.08,0-6.08-7.24V143.57h2.71v9.73c0,3.58,1.37,5.38,4.12,5.38a4.15,4.15,0,0,0,3.27-1.47,5.62,5.62,0,0,0,1.29-3.85v-9.79h2.72Z" transform="translate(-7 -3)"/><path d="M62.68,152.75h-12a6.31,6.31,0,0,0,1.53,4.38,5.25,5.25,0,0,0,4,1.55,8.35,8.35,0,0,0,5.28-1.9v2.56A9.88,9.88,0,0,1,55.58,161a7.15,7.15,0,0,1-5.66-2.32,9.45,9.45,0,0,1-2.06-6.52,9.28,9.28,0,0,1,2.25-6.46,7.19,7.19,0,0,1,5.58-2.5,6.4,6.4,0,0,1,5.17,2.16,9,9,0,0,1,1.82,6Zm-2.79-2.31a5.59,5.59,0,0,0-1.13-3.67,3.9,3.9,0,0,0-3.12-1.31,4.41,4.41,0,0,0-3.27,1.38,6.3,6.3,0,0,0-1.66,3.6Z" transform="translate(-7 -3)"/></g><g style="isolation:isolate"><path d="M93.38,160.57H90.66V135.4h2.72Z" transform="translate(-7 -3)"/><path d="M106,161a7.88,7.88,0,0,1-6-2.39,8.8,8.8,0,0,1-2.25-6.31,9.18,9.18,0,0,1,2.34-6.69,8.39,8.39,0,0,1,6.32-2.41,7.63,7.63,0,0,1,5.94,2.34,9.3,9.3,0,0,1,2.13,6.49,9.11,9.11,0,0,1-2.3,6.52A8.06,8.06,0,0,1,106,161Zm.19-15.51a5.2,5.2,0,0,0-4.15,1.79,7.37,7.37,0,0,0-1.52,4.92,6.92,6.92,0,0,0,1.54,4.76,5.26,5.26,0,0,0,4.13,1.75,5,5,0,0,0,4.06-1.71,7.42,7.42,0,0,0,1.42-4.87,7.52,7.52,0,0,0-1.42-4.91A5,5,0,0,0,106.19,145.46Z" transform="translate(-7 -3)"/><path d="M117.78,160V157a8.06,8.06,0,0,0,4.9,1.65c2.39,0,3.59-.8,3.59-2.39a2.13,2.13,0,0,0-.31-1.16,3.3,3.3,0,0,0-.83-.84,6.44,6.44,0,0,0-1.23-.65c-.47-.2-1-.4-1.52-.61a21.12,21.12,0,0,1-2-.9,6.19,6.19,0,0,1-1.43-1,3.87,3.87,0,0,1-.86-1.31,4.44,4.44,0,0,1-.29-1.71,4.09,4.09,0,0,1,.54-2.11,5,5,0,0,1,1.46-1.55,7,7,0,0,1,2.09-.93,9.21,9.21,0,0,1,2.41-.32,9.7,9.7,0,0,1,4,.76v2.76a7.66,7.66,0,0,0-4.31-1.23,5.32,5.32,0,0,0-1.38.17,3.65,3.65,0,0,0-1,.49,2.23,2.23,0,0,0-.68.76,2,2,0,0,0-.25,1,2.31,2.31,0,0,0,.25,1.11,2.4,2.4,0,0,0,.7.8,5.68,5.68,0,0,0,1.13.63l1.51.62a20.89,20.89,0,0,1,2,.88,7.35,7.35,0,0,1,1.52,1,4,4,0,0,1,1,1.32,4.62,4.62,0,0,1-.21,4,4.66,4.66,0,0,1-1.49,1.54,6.79,6.79,0,0,1-2.14.92,10.52,10.52,0,0,1-2.54.3A9.61,9.61,0,0,1,117.78,160Z" transform="translate(-7 -3)"/></g><g style="isolation:isolate"><path d="M168.74,159.79A8.86,8.86,0,0,1,164.1,161a7.67,7.67,0,0,1-5.87-2.37,8.57,8.57,0,0,1-2.24-6.13,9.45,9.45,0,0,1,2.41-6.75,8.44,8.44,0,0,1,6.43-2.55,9,9,0,0,1,3.95.83v2.79a6.91,6.91,0,0,0-4.05-1.33,5.46,5.46,0,0,0-4.28,1.87,7.08,7.08,0,0,0-1.67,4.9,6.77,6.77,0,0,0,1.57,4.72,5.42,5.42,0,0,0,4.21,1.73,6.84,6.84,0,0,0,4.18-1.48Z" transform="translate(-7 -3)"/><path d="M180,161a7.88,7.88,0,0,1-6-2.39,8.8,8.8,0,0,1-2.25-6.31,9.18,9.18,0,0,1,2.34-6.69,8.39,8.39,0,0,1,6.32-2.41,7.63,7.63,0,0,1,5.94,2.34,9.3,9.3,0,0,1,2.13,6.49,9.11,9.11,0,0,1-2.3,6.52A8.06,8.06,0,0,1,180,161Zm.2-15.51a5.17,5.17,0,0,0-4.15,1.79,7.32,7.32,0,0,0-1.53,4.92,6.92,6.92,0,0,0,1.54,4.76,5.27,5.27,0,0,0,4.14,1.75,5,5,0,0,0,4.05-1.71,7.42,7.42,0,0,0,1.42-4.87,7.52,7.52,0,0,0-1.42-4.91A4.93,4.93,0,0,0,180.17,145.46Z" transform="translate(-7 -3)"/><path d="M206.89,160.57h-2.72v-9.7q0-5.42-3.95-5.41a4.27,4.27,0,0,0-3.38,1.54,5.67,5.67,0,0,0-1.33,3.87v9.7h-2.73v-17h2.73v2.82h.06a6.13,6.13,0,0,1,5.58-3.22,5.22,5.22,0,0,1,4.27,1.8,8.07,8.07,0,0,1,1.47,5.21Z" transform="translate(-7 -3)"/><path d="M219.91,160.4a5.18,5.18,0,0,1-2.54.53q-4.47,0-4.47-5V145.89H210v-2.32h2.92v-4.15l2.73-.88v5h4.28v2.32h-4.28v9.58a4,4,0,0,0,.58,2.44,2.3,2.3,0,0,0,1.92.73,2.91,2.91,0,0,0,1.78-.56Z" transform="translate(-7 -3)"/><path d="M224.94,139.25a1.71,1.71,0,0,1-1.25-.5,1.68,1.68,0,0,1-.51-1.26,1.73,1.73,0,0,1,1.76-1.77,1.74,1.74,0,0,1,1.27.5,1.79,1.79,0,0,1,0,2.52A1.75,1.75,0,0,1,224.94,139.25Zm1.33,21.32h-2.72v-17h2.72Z" transform="translate(-7 -3)"/><path d="M245.44,152.75h-12a6.31,6.31,0,0,0,1.53,4.38,5.25,5.25,0,0,0,4,1.55,8.35,8.35,0,0,0,5.28-1.9v2.56a9.88,9.88,0,0,1-5.92,1.63,7.16,7.16,0,0,1-5.66-2.32,9.45,9.45,0,0,1-2.06-6.52,9.28,9.28,0,0,1,2.25-6.46,7.19,7.19,0,0,1,5.58-2.5,6.4,6.4,0,0,1,5.17,2.16,9,9,0,0,1,1.82,6Zm-2.79-2.31a5.59,5.59,0,0,0-1.13-3.67,3.9,3.9,0,0,0-3.12-1.31,4.41,4.41,0,0,0-3.27,1.38,6.3,6.3,0,0,0-1.66,3.6Z" transform="translate(-7 -3)"/><path d="M263.67,160.57H261v-9.7q0-5.42-3.95-5.41a4.27,4.27,0,0,0-3.38,1.54,5.68,5.68,0,0,0-1.34,3.87v9.7h-2.72v-17h2.72v2.82h.07a6.12,6.12,0,0,1,5.58-3.22,5.18,5.18,0,0,1,4.26,1.8,8,8,0,0,1,1.48,5.21Z" transform="translate(-7 -3)"/><path d="M282.46,152.75h-12a6.36,6.36,0,0,0,1.53,4.38,5.26,5.26,0,0,0,4,1.55,8.39,8.39,0,0,0,5.28-1.9v2.56a9.92,9.92,0,0,1-5.93,1.63,7.16,7.16,0,0,1-5.66-2.32,9.5,9.5,0,0,1-2.06-6.52,9.28,9.28,0,0,1,2.25-6.46,7.2,7.2,0,0,1,5.59-2.5,6.39,6.39,0,0,1,5.16,2.16,9,9,0,0,1,1.82,6Zm-2.78-2.31a5.59,5.59,0,0,0-1.14-3.67,3.9,3.9,0,0,0-3.11-1.31,4.41,4.41,0,0,0-3.28,1.38,6.3,6.3,0,0,0-1.66,3.6Z" transform="translate(-7 -3)"/></g><g style="isolation:isolate"><path d="M313.18,160.57h-2.72V135.4h2.72Z" transform="translate(-7 -3)"/><path d="M325.8,161a7.88,7.88,0,0,1-6-2.39,8.8,8.8,0,0,1-2.25-6.31,9.18,9.18,0,0,1,2.34-6.69,8.39,8.39,0,0,1,6.32-2.41,7.63,7.63,0,0,1,5.94,2.34,9.3,9.3,0,0,1,2.13,6.49,9.11,9.11,0,0,1-2.3,6.52A8.06,8.06,0,0,1,325.8,161Zm.2-15.51a5.2,5.2,0,0,0-4.16,1.79,7.37,7.37,0,0,0-1.52,4.92,6.92,6.92,0,0,0,1.54,4.76,5.27,5.27,0,0,0,4.14,1.75,5,5,0,0,0,4.05-1.71,7.42,7.42,0,0,0,1.42-4.87,7.52,7.52,0,0,0-1.42-4.91A5,5,0,0,0,326,145.46Z" transform="translate(-7 -3)"/><path d="M337.58,160V157a8.06,8.06,0,0,0,4.9,1.65c2.39,0,3.59-.8,3.59-2.39a2.13,2.13,0,0,0-.31-1.16,3.3,3.3,0,0,0-.83-.84,6.44,6.44,0,0,0-1.23-.65c-.47-.2-1-.4-1.52-.61a21.12,21.12,0,0,1-2-.9,6.19,6.19,0,0,1-1.43-1,3.87,3.87,0,0,1-.86-1.31,4.44,4.44,0,0,1-.29-1.71,4.09,4.09,0,0,1,.54-2.11,5,5,0,0,1,1.46-1.55,7,7,0,0,1,2.09-.93,9.21,9.21,0,0,1,2.41-.32,9.78,9.78,0,0,1,4,.76v2.76a7.72,7.72,0,0,0-4.32-1.23,5.32,5.32,0,0,0-1.38.17,3.65,3.65,0,0,0-1.05.49,2.23,2.23,0,0,0-.68.76,2,2,0,0,0-.24,1,2.31,2.31,0,0,0,.24,1.11,2.4,2.4,0,0,0,.7.8,5.68,5.68,0,0,0,1.13.63L344,151a20.89,20.89,0,0,1,2,.88,7.35,7.35,0,0,1,1.52,1,4.17,4.17,0,0,1,1,1.32,4.38,4.38,0,0,1,.34,1.78,4.2,4.2,0,0,1-.56,2.19,4.66,4.66,0,0,1-1.49,1.54,6.79,6.79,0,0,1-2.14.92,10.52,10.52,0,0,1-2.54.3A9.61,9.61,0,0,1,337.58,160Z" transform="translate(-7 -3)"/></g><g style="isolation:isolate"><path d="M390.22,143.57l-6.77,17h-2.68l-6.44-17h3l4.32,12.35a10.72,10.72,0,0,1,.59,2.37h.07a11.27,11.27,0,0,1,.53-2.3l4.52-12.42Z" transform="translate(-7 -3)"/><path d="M406.81,152.75h-12a6.4,6.4,0,0,0,1.53,4.38,5.26,5.26,0,0,0,4,1.55,8.39,8.39,0,0,0,5.28-1.9v2.56A9.92,9.92,0,0,1,399.7,161a7.16,7.16,0,0,1-5.66-2.32,9.5,9.5,0,0,1-2.06-6.52,9.28,9.28,0,0,1,2.25-6.46,7.2,7.2,0,0,1,5.59-2.5,6.39,6.39,0,0,1,5.16,2.16,9,9,0,0,1,1.83,6ZM404,150.44a5.59,5.59,0,0,0-1.14-3.67,3.9,3.9,0,0,0-3.11-1.31,4.37,4.37,0,0,0-3.27,1.38,6.24,6.24,0,0,0-1.66,3.6Z" transform="translate(-7 -3)"/><path d="M422.51,159.79a8.93,8.93,0,0,1-4.65,1.18A7.7,7.7,0,0,1,412,158.6a8.56,8.56,0,0,1-2.23-6.13,9.41,9.41,0,0,1,2.41-6.75,8.4,8.4,0,0,1,6.42-2.55,9,9,0,0,1,4,.83v2.79a6.88,6.88,0,0,0-4.05-1.33,5.44,5.44,0,0,0-4.27,1.87,7.08,7.08,0,0,0-1.67,4.9,6.73,6.73,0,0,0,1.57,4.72,5.41,5.41,0,0,0,4.21,1.73,6.86,6.86,0,0,0,4.18-1.48Z" transform="translate(-7 -3)"/><path d="M434.51,160.4a5.18,5.18,0,0,1-2.54.53q-4.46,0-4.46-5V145.89h-2.92v-2.32h2.92v-4.15l2.72-.88v5h4.28v2.32h-4.28v9.58a4,4,0,0,0,.58,2.44,2.32,2.32,0,0,0,1.93.73,2.88,2.88,0,0,0,1.77-.56Z" transform="translate(-7 -3)"/><path d="M445.25,161a7.87,7.87,0,0,1-6-2.39,8.8,8.8,0,0,1-2.25-6.31,9.18,9.18,0,0,1,2.34-6.69,8.39,8.39,0,0,1,6.32-2.41,7.63,7.63,0,0,1,5.94,2.34,9.3,9.3,0,0,1,2.13,6.49,9.15,9.15,0,0,1-2.3,6.52A8.07,8.07,0,0,1,445.25,161Zm.2-15.51a5.18,5.18,0,0,0-4.15,1.79,7.32,7.32,0,0,0-1.52,4.92,6.92,6.92,0,0,0,1.54,4.76,5.26,5.26,0,0,0,4.13,1.75,5,5,0,0,0,4.06-1.71,7.42,7.42,0,0,0,1.42-4.87,7.52,7.52,0,0,0-1.42-4.91A5,5,0,0,0,445.45,145.46Z" transform="translate(-7 -3)"/><path d="M466.94,146.32a3.39,3.39,0,0,0-2.06-.54,3.47,3.47,0,0,0-2.92,1.64,7.61,7.61,0,0,0-1.17,4.48v8.67h-2.72v-17h2.72v3.5h.07a6,6,0,0,1,1.78-2.8,4,4,0,0,1,2.67-1,4.59,4.59,0,0,1,1.63.23Z" transform="translate(-7 -3)"/><path d="M483.55,152.75h-12a6.36,6.36,0,0,0,1.53,4.38,5.26,5.26,0,0,0,4,1.55,8.39,8.39,0,0,0,5.28-1.9v2.56a9.92,9.92,0,0,1-5.93,1.63,7.16,7.16,0,0,1-5.66-2.32,9.5,9.5,0,0,1-2.06-6.52,9.28,9.28,0,0,1,2.25-6.46,7.19,7.19,0,0,1,5.58-2.5,6.4,6.4,0,0,1,5.17,2.16,9,9,0,0,1,1.82,6Zm-2.78-2.31a5.59,5.59,0,0,0-1.14-3.67,3.9,3.9,0,0,0-3.11-1.31,4.41,4.41,0,0,0-3.28,1.38,6.3,6.3,0,0,0-1.66,3.6Z" transform="translate(-7 -3)"/><path d="M486.64,160V157a8,8,0,0,0,4.9,1.65c2.39,0,3.59-.8,3.59-2.39a2.13,2.13,0,0,0-.31-1.16,3.3,3.3,0,0,0-.83-.84,6.44,6.44,0,0,0-1.23-.65c-.47-.2-1-.4-1.52-.61a21.12,21.12,0,0,1-2-.9,6.19,6.19,0,0,1-1.43-1,3.87,3.87,0,0,1-.86-1.31,4.44,4.44,0,0,1-.29-1.71,4.09,4.09,0,0,1,.54-2.11,5,5,0,0,1,1.46-1.55,7,7,0,0,1,2.09-.93,9.21,9.21,0,0,1,2.41-.32,9.73,9.73,0,0,1,3.95.76v2.76a7.69,7.69,0,0,0-4.31-1.23,5.32,5.32,0,0,0-1.38.17,3.65,3.65,0,0,0-1.05.49,2.23,2.23,0,0,0-.68.76,1.9,1.9,0,0,0-.25,1,2.2,2.2,0,0,0,.25,1.11,2.4,2.4,0,0,0,.7.8,5.68,5.68,0,0,0,1.13.63l1.51.62a20.89,20.89,0,0,1,2,.88,7.35,7.35,0,0,1,1.52,1,4,4,0,0,1,1,1.32,4.72,4.72,0,0,1-.21,4,4.66,4.66,0,0,1-1.49,1.54,6.79,6.79,0,0,1-2.14.92,10.52,10.52,0,0,1-2.54.3A9.61,9.61,0,0,1,486.64,160Z" transform="translate(-7 -3)"/></g><g style="isolation:isolate"><path d="M544.75,160.57h-3.09l-2.52-6.68H529l-2.37,6.68h-3.1l9.13-23.81h2.88Zm-6.53-9.18-3.73-10.15a10.64,10.64,0,0,1-.37-1.59h-.06a8.87,8.87,0,0,1-.38,1.59L530,151.39Z" transform="translate(-7 -3)"/></g><g style="isolation:isolate"><path d="M585.39,143.57l-7.82,19.72q-2.1,5.28-5.88,5.28a6,6,0,0,1-1.78-.22v-2.44a5.08,5.08,0,0,0,1.61.3c1.38,0,2.41-.82,3.09-2.45l1.36-3.22-6.64-17h3l4.6,13.08c.06.17.17.6.35,1.3h.1c.06-.27.17-.69.33-1.27l4.83-13.11Z" transform="translate(-7 -3)"/></g><g style="isolation:isolate"><path d="M612.52,160.57V136.76h6.77a7.44,7.44,0,0,1,4.9,1.51,4.88,4.88,0,0,1,1.81,3.94,5.8,5.8,0,0,1-1.09,3.52,5.93,5.93,0,0,1-3,2.12v.07a6.06,6.06,0,0,1,3.86,1.82,5.59,5.59,0,0,1,1.44,4,6.25,6.25,0,0,1-2.19,5,8.16,8.16,0,0,1-5.53,1.89Zm2.79-21.28V147h2.86a5.47,5.47,0,0,0,3.6-1.1,3.88,3.88,0,0,0,1.31-3.12q0-3.47-4.57-3.46Zm0,10.19V158h3.79a5.67,5.67,0,0,0,3.81-1.16,4,4,0,0,0,1.35-3.18c0-2.82-1.92-4.22-5.75-4.22Z" transform="translate(-7 -3)"/></g><g style="isolation:isolate"><path d="M667,159.79A8.86,8.86,0,0,1,662.4,161a7.67,7.67,0,0,1-5.87-2.37,8.57,8.57,0,0,1-2.24-6.13,9.45,9.45,0,0,1,2.41-6.75,8.44,8.44,0,0,1,6.43-2.55,9,9,0,0,1,4,.83v2.79a6.91,6.91,0,0,0-4.05-1.33,5.46,5.46,0,0,0-4.28,1.87,7.08,7.08,0,0,0-1.67,4.9,6.77,6.77,0,0,0,1.57,4.72,5.42,5.42,0,0,0,4.21,1.73A6.84,6.84,0,0,0,667,157.2Z" transform="translate(-7 -3)"/><path d="M684.91,160.57h-2.73v-2.69h-.06a5.6,5.6,0,0,1-5.25,3.09q-6.07,0-6.07-7.24V143.57h2.7v9.73c0,3.58,1.37,5.38,4.12,5.38a4.17,4.17,0,0,0,3.28-1.47,5.66,5.66,0,0,0,1.28-3.85v-9.79h2.73Z" transform="translate(-7 -3)"/><path d="M703.93,143.57l-7.82,19.72q-2.08,5.28-5.87,5.28a6,6,0,0,1-1.78-.22v-2.44a5,5,0,0,0,1.61.3c1.37,0,2.4-.82,3.09-2.45l1.36-3.22-6.64-17h3l4.6,13.08c0,.17.17.6.35,1.3h.1c0-.27.16-.69.33-1.27l4.83-13.11Z" transform="translate(-7 -3)"/><path d="M719,160.57H716.3v-2.66h-.07A5.69,5.69,0,0,1,711,161a5.57,5.57,0,0,1-4-1.35,4.63,4.63,0,0,1-1.44-3.57q0-4.76,5.61-5.54l5.1-.72c0-2.88-1.17-4.33-3.5-4.33a8.4,8.4,0,0,0-5.55,2.09v-2.79a10.56,10.56,0,0,1,5.78-1.59q6,0,6,6.34ZM716.3,152l-4.1.56a6.74,6.74,0,0,0-2.86.94,2.71,2.71,0,0,0-1,2.38,2.62,2.62,0,0,0,.89,2,3.46,3.46,0,0,0,2.37.79,4.38,4.38,0,0,0,3.34-1.42,5.09,5.09,0,0,0,1.32-3.6Z" transform="translate(-7 -3)"/></g><g style="isolation:isolate"><path d="M772.19,160.57h-2.72v-9.76a7.38,7.38,0,0,0-.87-4.09,3.31,3.31,0,0,0-2.93-1.26,3.62,3.62,0,0,0-3,1.59,6.08,6.08,0,0,0-1.22,3.82v9.7h-2.73v-10.1q0-5-3.86-5a3.58,3.58,0,0,0-3,1.5,6.25,6.25,0,0,0-1.16,3.91v9.7h-2.72v-17h2.72v2.69h.06a5.78,5.78,0,0,1,5.28-3.09,4.91,4.91,0,0,1,4.82,3.52,6.05,6.05,0,0,1,5.64-3.52q5.61,0,5.61,6.92Z" transform="translate(-7 -3)"/><path d="M789.51,160.57h-2.72v-2.66h-.07a5.7,5.7,0,0,1-5.23,3.06,5.55,5.55,0,0,1-4-1.35,4.63,4.63,0,0,1-1.44-3.57q0-4.76,5.61-5.54l5.1-.72c0-2.88-1.17-4.33-3.51-4.33a8.39,8.39,0,0,0-5.54,2.09v-2.79a10.56,10.56,0,0,1,5.78-1.59q6,0,6,6.34Zm-2.72-8.6-4.1.56a6.64,6.64,0,0,0-2.86.94,2.71,2.71,0,0,0-1,2.38,2.59,2.59,0,0,0,.89,2,3.45,3.45,0,0,0,2.36.79,4.4,4.4,0,0,0,3.35-1.42,5.09,5.09,0,0,0,1.32-3.6Z" transform="translate(-7 -3)"/><path d="M809.15,159.21q0,9.36-9,9.36a12.12,12.12,0,0,1-5.51-1.19v-2.73a11.37,11.37,0,0,0,5.48,1.6q6.27,0,6.28-6.68v-1.86h-.07a6.87,6.87,0,0,1-11,1,9.05,9.05,0,0,1-1.93-6.08,10.57,10.57,0,0,1,2.08-6.89,7,7,0,0,1,5.7-2.56,5.55,5.55,0,0,1,5.1,2.76h.07v-2.36h2.72Zm-2.72-6.33v-2.5a4.86,4.86,0,0,0-1.37-3.47,4.5,4.5,0,0,0-3.41-1.45,4.75,4.75,0,0,0-4,1.83,8.22,8.22,0,0,0-1.42,5.14,7,7,0,0,0,1.37,4.54,4.41,4.41,0,0,0,3.62,1.71,4.76,4.76,0,0,0,3.73-1.63A6.06,6.06,0,0,0,806.43,152.88Z" transform="translate(-7 -3)"/><path d="M828.77,160.57h-2.72v-9.7q0-5.42-3.95-5.41a4.27,4.27,0,0,0-3.38,1.54,5.68,5.68,0,0,0-1.34,3.87v9.7h-2.72v-17h2.72v2.82h.07a6.12,6.12,0,0,1,5.58-3.22,5.18,5.18,0,0,1,4.26,1.8,8,8,0,0,1,1.48,5.21Z" transform="translate(-7 -3)"/><path d="M835.3,139.25a1.73,1.73,0,0,1-1.76-1.76,1.72,1.72,0,0,1,.51-1.27,1.7,1.7,0,0,1,1.25-.5,1.76,1.76,0,0,1,1.27.5,1.79,1.79,0,0,1,0,2.52A1.77,1.77,0,0,1,835.3,139.25Zm1.32,21.32H833.9v-17h2.72Z" transform="translate(-7 -3)"/><path d="M850,160.4a5.18,5.18,0,0,1-2.54.53c-3,0-4.46-1.66-4.46-5V145.89h-2.93v-2.32H843v-4.15l2.72-.88v5H850v2.32h-4.28v9.58a4,4,0,0,0,.58,2.44,2.32,2.32,0,0,0,1.93.73,2.9,2.9,0,0,0,1.77-.56Z" transform="translate(-7 -3)"/><path d="M867.4,160.57h-2.72v-2.69h-.06a5.6,5.6,0,0,1-5.25,3.09q-6.07,0-6.08-7.24V143.57H856v9.73c0,3.58,1.37,5.38,4.12,5.38a4.18,4.18,0,0,0,3.28-1.47,5.66,5.66,0,0,0,1.28-3.85v-9.79h2.72Z" transform="translate(-7 -3)"/><path d="M887.41,160.57h-2.72v-2.89h-.07a6.85,6.85,0,0,1-11,1,9.34,9.34,0,0,1-1.92-6.21,10.23,10.23,0,0,1,2.12-6.76,7,7,0,0,1,5.66-2.54,5.45,5.45,0,0,1,5.1,2.76h.07V135.4h2.72Zm-2.72-7.69v-2.5a4.89,4.89,0,0,0-1.36-3.49,4.58,4.58,0,0,0-3.46-1.43,4.71,4.71,0,0,0-3.92,1.83,8,8,0,0,0-1.42,5A7.15,7.15,0,0,0,875.9,157a4.46,4.46,0,0,0,3.67,1.71,4.65,4.65,0,0,0,3.7-1.65A6.15,6.15,0,0,0,884.69,152.88Z" transform="translate(-7 -3)"/></g><g style="isolation:isolate"><path d="M930.52,152.75h-12a6.35,6.35,0,0,0,1.52,4.38,5.29,5.29,0,0,0,4,1.55,8.35,8.35,0,0,0,5.28-1.9v2.56a9.89,9.89,0,0,1-5.93,1.63,7.16,7.16,0,0,1-5.66-2.32,9.5,9.5,0,0,1-2.06-6.52,9.28,9.28,0,0,1,2.25-6.46,7.2,7.2,0,0,1,5.59-2.5,6.39,6.39,0,0,1,5.16,2.16,9,9,0,0,1,1.83,6Zm-2.79-2.31a5.54,5.54,0,0,0-1.14-3.67,3.87,3.87,0,0,0-3.11-1.31,4.41,4.41,0,0,0-3.27,1.38,6.24,6.24,0,0,0-1.66,3.6Z" transform="translate(-7 -3)"/><path d="M933.61,160V157a8,8,0,0,0,4.89,1.65c2.39,0,3.59-.8,3.59-2.39a2.05,2.05,0,0,0-.31-1.16,3.15,3.15,0,0,0-.83-.84,6.44,6.44,0,0,0-1.23-.65c-.47-.2-1-.4-1.51-.61a20.25,20.25,0,0,1-2-.9,6.41,6.41,0,0,1-1.43-1,3.87,3.87,0,0,1-.86-1.31,4.63,4.63,0,0,1-.29-1.71,4,4,0,0,1,.55-2.11,4.8,4.8,0,0,1,1.46-1.55,6.91,6.91,0,0,1,2.08-.93,9.29,9.29,0,0,1,2.42-.32,9.73,9.73,0,0,1,4,.76v2.76a7.7,7.7,0,0,0-4.32-1.23,5.32,5.32,0,0,0-1.38.17,3.78,3.78,0,0,0-1,.49,2.33,2.33,0,0,0-.68.76,2,2,0,0,0-.24,1,2.31,2.31,0,0,0,.24,1.11,2.43,2.43,0,0,0,.71.8,5.32,5.32,0,0,0,1.12.63L940,151a19.87,19.87,0,0,1,2,.88,7.17,7.17,0,0,1,1.53,1,4.14,4.14,0,0,1,1,1.32,4.68,4.68,0,0,1-.22,4,4.63,4.63,0,0,1-1.48,1.54,6.9,6.9,0,0,1-2.14.92,10.58,10.58,0,0,1-2.54.3A9.58,9.58,0,0,1,933.61,160Z" transform="translate(-7 -3)"/></g><g style="isolation:isolate"><path d="M991.65,160.57h-3.09L986,153.89h-10.1l-2.37,6.68h-3.11l9.14-23.81h2.88Zm-6.53-9.18-3.73-10.15a10.64,10.64,0,0,1-.37-1.59H981a8.87,8.87,0,0,1-.38,1.59l-3.71,10.15Z" transform="translate(-7 -3)"/><path d="M995.15,160.57V136.76h6.77a7.44,7.44,0,0,1,4.9,1.51,4.88,4.88,0,0,1,1.81,3.94,5.8,5.8,0,0,1-1.09,3.52,5.93,5.93,0,0,1-3,2.12v.07a6.06,6.06,0,0,1,3.86,1.82,5.59,5.59,0,0,1,1.44,4,6.25,6.25,0,0,1-2.19,5,8.16,8.16,0,0,1-5.53,1.89Zm2.79-21.28V147h2.86a5.47,5.47,0,0,0,3.6-1.1,3.88,3.88,0,0,0,1.31-3.12q0-3.47-4.57-3.46Zm0,10.19V158h3.79a5.67,5.67,0,0,0,3.81-1.16,4,4,0,0,0,1.35-3.18c0-2.82-1.92-4.22-5.75-4.22Z" transform="translate(-7 -3)"/><path d="M1013.25,160V157a8,8,0,0,0,4.89,1.65c2.4,0,3.59-.8,3.59-2.39a2.05,2.05,0,0,0-.31-1.16,3.15,3.15,0,0,0-.83-.84,6.34,6.34,0,0,0-1.22-.65l-1.52-.61a20.25,20.25,0,0,1-2-.9,6.41,6.41,0,0,1-1.43-1,3.87,3.87,0,0,1-.86-1.31,4.63,4.63,0,0,1-.29-1.71,4,4,0,0,1,.55-2.11,4.8,4.8,0,0,1,1.46-1.55,6.91,6.91,0,0,1,2.08-.93,9.29,9.29,0,0,1,2.42-.32,9.73,9.73,0,0,1,4,.76v2.76a7.7,7.7,0,0,0-4.32-1.23,5.32,5.32,0,0,0-1.38.17,3.78,3.78,0,0,0-1,.49,2.33,2.33,0,0,0-.68.76,2,2,0,0,0-.24,1,2.31,2.31,0,0,0,.24,1.11,2.43,2.43,0,0,0,.71.8,5.58,5.58,0,0,0,1.12.63l1.52.62a20.66,20.66,0,0,1,2,.88,7.17,7.17,0,0,1,1.53,1,4.14,4.14,0,0,1,1,1.32,4.68,4.68,0,0,1-.22,4,4.63,4.63,0,0,1-1.48,1.54,6.9,6.9,0,0,1-2.14.92,10.58,10.58,0,0,1-2.54.3A9.58,9.58,0,0,1,1013.25,160Z" transform="translate(-7 -3)"/><path d="M1042.37,152.75h-12a6.4,6.4,0,0,0,1.53,4.38,5.26,5.26,0,0,0,4,1.55,8.39,8.39,0,0,0,5.28-1.9v2.56a9.92,9.92,0,0,1-5.93,1.63,7.16,7.16,0,0,1-5.66-2.32,9.5,9.5,0,0,1-2.06-6.52,9.28,9.28,0,0,1,2.25-6.46,7.2,7.2,0,0,1,5.59-2.5,6.39,6.39,0,0,1,5.16,2.16,9,9,0,0,1,1.83,6Zm-2.79-2.31a5.54,5.54,0,0,0-1.14-3.67,3.88,3.88,0,0,0-3.11-1.31,4.37,4.37,0,0,0-3.27,1.38,6.24,6.24,0,0,0-1.66,3.6Z" transform="translate(-7 -3)"/><path d="M1060.59,160.57h-2.72v-9.7q0-5.42-3.95-5.41a4.27,4.27,0,0,0-3.38,1.54,5.67,5.67,0,0,0-1.33,3.87v9.7h-2.73v-17h2.73v2.82h.06a6.14,6.14,0,0,1,5.58-3.22,5.22,5.22,0,0,1,4.27,1.8,8.07,8.07,0,0,1,1.47,5.21Z" transform="translate(-7 -3)"/></g><g style="isolation:isolate"><path d="M1138.3,160.93a1.77,1.77,0,0,1-1.3-.54,1.88,1.88,0,0,1,0-2.64,1.74,1.74,0,0,1,1.3-.55,1.87,1.87,0,0,1,1.33,3.19A1.83,1.83,0,0,1,1138.3,160.93Z" transform="translate(-7 -3)"/></g></g></g><path d="M1093,160.4a1.48,1.48,0,0,1-.1.7,1.84,1.84,0,0,1-1,1,2.5,2.5,0,0,1-1.4,0,1.84,1.84,0,0,1-1-1,2.5,2.5,0,0,1,0-1.4,1.84,1.84,0,0,1,1-1,2.5,2.5,0,0,1,1.4,0,1.84,1.84,0,0,1,1,1A1.7,1.7,0,0,1,1093,160.4Z" transform="translate(-7 -3)"/></svg>