<svg id="Capa_1" data-name="Capa 1" xmlns="http://www.w3.org/2000/svg" viewBox="0 0 1120.29 647"><defs><style>.cls-1{font-size:23.69px;font-family:ArialMT, Arial;}.cls-2{letter-spacing:-0.02em;}.cls-3{letter-spacing:0em;}.cls-4{letter-spacing:-0.07em;}.cls-5{fill:#006098;}.cls-6{font-size:24.07px;fill:#fff;font-family:Arial-Black, Arial;}.cls-7{letter-spacing:0.02em;}.cls-8{fill:none;stroke:#e39d40;stroke-miterlimit:10;stroke-width:3px;}</style></defs><title>longitud</title><text class="cls-1" transform="translate(33.04 111.23)"><tspan xml:space="preserve">1 Km =  1000 m</tspan><tspan x="0" y="28.43">1 Hm = 100 m</tspan><tspan x="0" y="56.86">1 Dm = 10 m</tspan><tspan x="0" y="85.29">1 m = 10 dm</tspan><tspan x="0" y="113.73">1 m = 100 cm</tspan><tspan x="0" y="142.16">1 m = 1000 mm</tspan><tspan x="0" y="170.59">1 m = 1010</tspan><tspan x="0" y="199.02">1 m = 106 micras</tspan><tspan x="0" y="227.45">1 m = 3,281 pies </tspan><tspan x="0" y="255.88">1 m = 39,37 plg</tspan><tspan x="0" y="284.31">1 m = 1,094 yd</tspan><tspan x="0" y="312.75">1 milla = 1609 m</tspan><tspan x="0" y="341.18">1 milla = 5280 pies</tspan><tspan x="0" y="369.61">1 pie = 30,48 cm</tspan><tspan x="0" y="398.04">1 pie = 0,3048 m</tspan><tspan x="0" y="426.47">1 pie = 12 plg </tspan><tspan x="0" y="454.9">1 yd (yarda) = 3 pies</tspan><tspan x="0" y="483.33">1 yd (yarda) = 36 plg</tspan><tspan x="0" y="511.76">1 yd (yarda) = 0,914 m</tspan></text><path d="M157,279.32l7.11-12.55h2l2.07,12.55h-1.63l-.61-3.61h-5.07l-2,3.61Zm4.57-4.9h4.15l-.49-3.15q-.28-1.87-.35-3.12a22.74,22.74,0,0,1-1.25,2.56Z"/><circle cx="165.19" cy="264.32" r="1"/><text class="cls-1" transform="translate(341.04 128.23)">1<tspan class="cls-2" x="13.18" y="0"> </tspan><tspan class="cls-3" x="19.33" y="0" xml:space="preserve">Tn (ton) =  1000 kg</tspan><tspan x="0" y="28.43">1</tspan><tspan class="cls-2" x="13.18" y="28.43"> </tspan><tspan class="cls-3" x="19.33" y="28.43">Tn (ton) = 29 qq</tspan><tspan x="0" y="56.86">1 qq = 45 kg</tspan><tspan x="0" y="85.29" xml:space="preserve">1 qq =  100 Lb</tspan><tspan x="0" y="113.73">1 qq = 4 @</tspan><tspan x="0" y="142.16">1 @ = 25 lb</tspan><tspan x="0" y="170.59">1 @ = </tspan><tspan class="cls-4" x="70.81" y="170.59">1</tspan><tspan x="82.23" y="170.59">1,5 kg</tspan><tspan x="0" y="199.02">1 oz = 28,35 g</tspan><tspan x="0" y="227.45">1 Lb = 16 oz (onza)</tspan><tspan x="0" y="255.88">1 Lb = 454 g</tspan><tspan x="0" y="284.31">1 kg = 2,205Lb</tspan><tspan x="0" y="312.75">1 kg = 1000 g</tspan><tspan x="0" y="341.18">1 g = 1000 mg (mili)</tspan><tspan x="0" y="369.61">1 utm = 9,81 kg</tspan><tspan x="0" y="398.04">1 utm = 21,62 lb</tspan><tspan x="0" y="426.47">1 slug = 14,59 kg</tspan><tspan x="0" y="454.9" xml:space="preserve">1 slug = 2,1739 lb     </tspan></text><text class="cls-1" transform="translate(611.67 121.78)">1 h = 60 min<tspan x="0" y="28.43">1 h = 3600 s</tspan><tspan x="0" y="56.86">1 min = 60 s</tspan><tspan x="0" y="85.29">1 día = 24 h</tspan><tspan x="0" y="113.73">1 mes = 30 días</tspan><tspan x="0" y="142.16">1 año = 365 días </tspan><tspan x="0" y="170.59">1 parsec = 5 años</tspan><tspan x="0" y="199.02">1 siglo = 100 años</tspan><tspan x="0" y="227.45" xml:space="preserve">1 década = 10 años    </tspan></text><text class="cls-1" transform="translate(869.04 110.23)">Energía<tspan x="0" y="56.86">1 Joule = 10⁷ Ergios</tspan><tspan x="0" y="85.29">1 Kwh = 3,6 x 10⁶ J</tspan><tspan x="0" y="113.73">1 cal = 4,186 J</tspan><tspan x="0" y="142.16">1 Kcal = 1000 cal </tspan><tspan x="0" y="170.59">1 BTU = 252 cal</tspan><tspan x="0" y="227.45">Potencia</tspan><tspan x="0" y="284.31">1 Kw = 1000 w</tspan><tspan x="0" y="312.75">1 Hp = 1,014 CV</tspan><tspan x="0" y="341.18">1 Hp = 746 w</tspan><tspan x="0" y="369.61">1CV = 736 w</tspan></text><rect class="cls-5" x="6.19" y="8.23" width="1103" height="57.59"/><text class="cls-6" transform="translate(91.85 42.52)">Longitud</text><text class="cls-6" transform="translate(409.85 42.52)">Masa</text><text class="cls-6" transform="translate(670.19 41.59)">Tiempo</text><text class="cls-6" transform="translate(914.49 32.65)">Ene<tspan class="cls-7" x="49.49" y="0">r</tspan><tspan x="60.77" y="0">gía y</tspan><tspan x="0" y="22">potencia</tspan></text><line class="cls-8" x1="317.19" y1="7.5" x2="317.19" y2="643.32"/><line class="cls-8" x1="589.34" y1="7.5" x2="589.34" y2="643.32"/><line class="cls-8" x1="847.99" y1="7.5" x2="847.99" y2="643.32"/></svg>