<svg id="Capa_1" data-name="Capa 1" xmlns="http://www.w3.org/2000/svg" viewBox="0 0 931 558"><defs><style>.cls-1{fill:#006098;}.cls-2{font-size:21.59px;fill:#fff;font-family:Arial-Black, Arial;}.cls-3{letter-spacing:-0.03em;}.cls-4{letter-spacing:0.02em;}.cls-5{letter-spacing:-0.02em;}.cls-6{letter-spacing:0.02em;}.cls-7{letter-spacing:0em;}.cls-8{fill:none;stroke:#e39d40;stroke-miterlimit:10;stroke-width:3px;}.cls-9{font-size:32.28px;}.cls-10,.cls-11,.cls-9{font-family:ArialMT, Arial;}.cls-10{font-size:17.3px;}.cls-11,.cls-12,.cls-13{font-size:23.69px;}.cls-12,.cls-13{font-family:TimesNewRomanPS-ItalicMT, Times New Roman;font-style:italic;}.cls-13{letter-spacing:-0.02em;}</style></defs><title>potencia</title><rect class="cls-1" x="11" y="8" width="910" height="54"/><text class="cls-2" transform="translate(36.89 42.36)"><tspan class="cls-3">P</tspan><tspan x="15.03" y="0">otencia</tspan></text><text class="cls-2" transform="translate(185.22 42.36)">P<tspan class="cls-4" x="15.59" y="0">r</tspan><tspan x="25.52" y="0">efijo</tspan></text><text class="cls-2" transform="translate(314.38 42.36)">Ab<tspan class="cls-4" x="31.19" y="0">r</tspan><tspan class="cls-3" x="41.12" y="0">e</tspan><tspan x="54.96" y="0">vi</tspan><tspan class="cls-5" x="75.34" y="0">a</tspan><tspan x="89.37" y="0">tu</tspan><tspan class="cls-6" x="113.35" y="0">r</tspan><tspan class="cls-7" x="123.3" y="0">a</tspan></text><line class="cls-8" x1="159.53" y1="7" x2="159.53" y2="544"/><line class="cls-8" x1="286.5" y1="7" x2="286.5" y2="544"/><line class="cls-8" x1="466.5" y1="7" x2="466.5" y2="544"/><text class="cls-2" transform="translate(490.89 42.36)"><tspan class="cls-3">P</tspan><tspan x="15.03" y="0">otencia</tspan></text><text class="cls-2" transform="translate(639.43 42.36)">P<tspan class="cls-4" x="15.59" y="0">r</tspan><tspan x="25.52" y="0">efijo</tspan></text><text class="cls-2" transform="translate(765.3 42.36)">Ab<tspan class="cls-4" x="31.19" y="0">r</tspan><tspan class="cls-3" x="41.12" y="0">e</tspan><tspan x="54.96" y="0">vi</tspan><tspan class="cls-5" x="75.34" y="0">a</tspan><tspan x="89.37" y="0">tu</tspan><tspan class="cls-6" x="113.35" y="0">r</tspan><tspan class="cls-7" x="123.3" y="0">a</tspan></text><line class="cls-8" x1="613.53" y1="7" x2="613.53" y2="544"/><line class="cls-8" x1="740.5" y1="7" x2="740.5" y2="544"/><text class="cls-9" transform="translate(52.09 108.7)">10</text><text class="cls-10" transform="translate(90.99 98.7)">-24</text><text class="cls-9" transform="translate(52.09 154.7)">10</text><text class="cls-10" transform="translate(90.99 144.7)">-21</text><text class="cls-9" transform="translate(52.09 197.7)">10</text><text class="cls-10" transform="translate(90.99 187.7)">-18</text><text class="cls-9" transform="translate(52.09 243.7)">10</text><text class="cls-10" transform="translate(90.99 233.7)">-15</text><text class="cls-9" transform="translate(52.09 290.7)">10</text><text class="cls-10" transform="translate(90.99 280.7)">-12</text><text class="cls-9" transform="translate(52.09 334.7)">10</text><text class="cls-10" transform="translate(90.99 324.7)">-9</text><text class="cls-9" transform="translate(52.09 381.7)">10</text><text class="cls-10" transform="translate(90.99 371.7)">-6</text><text class="cls-9" transform="translate(52.09 424.7)">10</text><text class="cls-10" transform="translate(90.99 414.7)">-3</text><text class="cls-9" transform="translate(52.09 469.7)">10</text><text class="cls-10" transform="translate(90.99 459.7)">-2</text><text class="cls-9" transform="translate(52.09 515.7)">10</text><text class="cls-10" transform="translate(90.99 505.7)">-1</text><text class="cls-9" transform="translate(511.09 108.7)">10</text><text class="cls-10" transform="translate(549.99 98.7)">3</text><text class="cls-9" transform="translate(511.09 154.7)">10</text><text class="cls-10" transform="translate(549.99 144.7)">6</text><text class="cls-9" transform="translate(511.09 197.7)">10</text><text class="cls-10" transform="translate(549.99 187.7)">9</text><text class="cls-9" transform="translate(511.09 243.7)">10</text><text class="cls-10" transform="translate(549.99 233.7)">12</text><text class="cls-9" transform="translate(511.09 290.7)">10</text><text class="cls-10" transform="translate(549.99 280.7)">15</text><text class="cls-9" transform="translate(511.09 334.7)">10</text><text class="cls-10" transform="translate(549.99 324.7)">18</text><text class="cls-9" transform="translate(511.09 381.7)">10</text><text class="cls-10" transform="translate(549.99 371.7)">21</text><text class="cls-9" transform="translate(511.09 424.7)">10</text><text class="cls-10" transform="translate(549.99 414.7)">24</text><text class="cls-11" transform="translate(194.57 105.71)">yocto</text><text class="cls-11" transform="translate(658.23 105.71)">kilo</text><text class="cls-11" transform="translate(648.35 154.71)">mega</text><text class="cls-11" transform="translate(652.96 194.71)">giga</text><text class="cls-11" transform="translate(654.94 243.71)">tera</text><text class="cls-11" transform="translate(653.61 293.71)">peta</text><text class="cls-11" transform="translate(658.88 334.71)">exa</text><text class="cls-11" transform="translate(652.3 383.71)">zetta</text><text class="cls-11" transform="translate(652.3 424.71)">yotta</text><text class="cls-11" transform="translate(193.48 154.71)">zepto</text><text class="cls-11" transform="translate(202.72 194.71)">atto</text><text class="cls-11" transform="translate(190.2 240.71)">femto</text><text class="cls-11" transform="translate(200.73 293.71)">pico</text><text class="cls-11" transform="translate(195.45 334.71)">nano</text><text class="cls-11" transform="translate(194.81 381.71)">micro</text><text class="cls-11" transform="translate(206.01 426.71)">mili</text><text class="cls-11" transform="translate(196.12 469.71)">centi</text><text class="cls-11" transform="translate(200.07 515.71)">deci</text><text class="cls-12" transform="translate(378.92 105.71)">y</text><text class="cls-12" transform="translate(378.9 154.71)">z</text><text class="cls-12" transform="translate(377.31 195.71)">a</text><text class="cls-12" transform="translate(379.68 242.71)">f</text><text class="cls-12" transform="translate(378.62 289.71)">p</text><text class="cls-12" transform="translate(377.31 333.71)">n</text><text class="cls-12" transform="translate(374.68 422.71)">m</text><text class="cls-12" transform="translate(377.97 470.71)">c</text><text class="cls-12" transform="translate(376.42 517.71)">d</text><text class="cls-12" transform="translate(376.41 383)">µ</text><text class="cls-12" transform="translate(818.92 105.71)">k</text><text class="cls-12" transform="translate(818.9 154.71)">M</text><text class="cls-12" transform="translate(817.31 195.71)">G</text><text class="cls-13" transform="translate(819.68 242.71)">T</text><text class="cls-13" transform="translate(818.62 289.71)">P</text><text class="cls-12" transform="translate(817.31 333.71)">E</text><text class="cls-12" transform="translate(814.68 422.71)">Y</text><text class="cls-12" transform="translate(816.41 383)">Z</text></svg>