<?xml version="1.0" encoding="utf-8"?>
<!-- Generator: Adobe Illustrator 25.0.0, SVG Export Plug-In . SVG Version: 6.00 Build 0)  -->
<svg version="1.1" id="Capa_1" xmlns="http://www.w3.org/2000/svg" xmlns:xlink="http://www.w3.org/1999/xlink" x="0px" y="0px"
	 viewBox="0 0 733.2 262" style="enable-background:new 0 0 733.2 262;" xml:space="preserve">
<style type="text/css">
	.st0{fill:none;}
	.st1{font-family:'MyriadPro-Regular';}
	.st2{font-size:31px;}
	.st3{fill:none;stroke:#000000;stroke-width:1.2;stroke-linecap:round;stroke-linejoin:round;}
</style>
<g>
	<g>
		<path d="M22.9,31.2H11.8v-21h10.7v2.2h-8.2v7h7.6v2.2h-7.6v7.4h8.7V31.2z"/>
		<path d="M39.1,31.2h-2.4v-8.6c0-3.2-1.2-4.8-3.5-4.8c-1.2,0-2.2,0.5-3,1.4s-1.2,2-1.2,3.4v8.6h-2.4v-15H29v2.5h0.1
			c1.1-1.9,2.8-2.8,4.9-2.8c1.6,0,2.9,0.5,3.8,1.6s1.3,2.6,1.3,4.6V31.2z"/>
		<path d="M64.5,31.2h-2.4v-2.4h-0.1c-1,1.8-2.5,2.7-4.6,2.7c-3.6,0-5.4-2.1-5.4-6.4v-9h2.4v8.6c0,3.2,1.2,4.7,3.6,4.7
			c1.2,0,2.1-0.4,2.9-1.3s1.1-2,1.1-3.4v-8.6h2.4V31.2z"/>
		<path d="M81.8,31.2h-2.4v-8.6c0-3.2-1.2-4.8-3.5-4.8c-1.2,0-2.2,0.5-3,1.4s-1.2,2-1.2,3.4v8.6h-2.4v-15h2.4v2.5h0.1
			c1.1-1.9,2.8-2.8,4.9-2.8c1.6,0,2.9,0.5,3.8,1.6s1.3,2.6,1.3,4.6V31.2z"/>
		<path d="M94.2,30.6V28c1.3,1,2.7,1.5,4.3,1.5c2.1,0,3.2-0.7,3.2-2.1c0-0.4-0.1-0.7-0.3-1s-0.4-0.5-0.7-0.7s-0.7-0.4-1.1-0.6
			s-0.9-0.3-1.3-0.5c-0.7-0.3-1.2-0.5-1.8-0.8s-0.9-0.6-1.3-0.9s-0.6-0.7-0.8-1.2s-0.3-0.9-0.3-1.5c0-0.7,0.2-1.3,0.5-1.9
			s0.8-1,1.3-1.4s1.1-0.6,1.8-0.8s1.4-0.3,2.1-0.3c1.3,0,2.5,0.2,3.5,0.7v2.4c-1.1-0.7-2.4-1.1-3.8-1.1c-0.4,0-0.9,0.1-1.2,0.2
			s-0.7,0.2-0.9,0.4s-0.5,0.4-0.6,0.7s-0.2,0.5-0.2,0.9c0,0.4,0.1,0.7,0.2,1s0.3,0.5,0.6,0.7s0.6,0.4,1,0.6s0.8,0.3,1.3,0.5
			c0.7,0.3,1.3,0.5,1.8,0.8s1,0.6,1.3,0.9s0.7,0.7,0.9,1.2s0.3,1,0.3,1.6c0,0.7-0.2,1.4-0.5,1.9s-0.8,1-1.3,1.4s-1.2,0.6-1.9,0.8
			s-1.5,0.3-2.2,0.3C96.7,31.5,95.4,31.2,94.2,30.6z"/>
		<path d="M109.1,12.4c-0.4,0-0.8-0.1-1.1-0.4s-0.5-0.7-0.5-1.1s0.2-0.8,0.5-1.1s0.7-0.4,1.1-0.4c0.4,0,0.8,0.1,1.1,0.4
			s0.5,0.7,0.5,1.1c0,0.4-0.2,0.8-0.5,1.1S109.5,12.4,109.1,12.4z M110.3,31.2h-2.4v-15h2.4V31.2z"/>
		<path d="M114.2,30.6V28c1.3,1,2.7,1.5,4.3,1.5c2.1,0,3.2-0.7,3.2-2.1c0-0.4-0.1-0.7-0.3-1s-0.4-0.5-0.7-0.7s-0.7-0.4-1.1-0.6
			s-0.9-0.3-1.3-0.5c-0.7-0.3-1.2-0.5-1.8-0.8s-0.9-0.6-1.3-0.9s-0.6-0.7-0.8-1.2s-0.3-0.9-0.3-1.5c0-0.7,0.2-1.3,0.5-1.9
			s0.8-1,1.3-1.4s1.1-0.6,1.8-0.8s1.4-0.3,2.1-0.3c1.3,0,2.5,0.2,3.5,0.7v2.4c-1.1-0.7-2.4-1.1-3.8-1.1c-0.4,0-0.9,0.1-1.2,0.2
			s-0.7,0.2-0.9,0.4s-0.5,0.4-0.6,0.7s-0.2,0.5-0.2,0.9c0,0.4,0.1,0.7,0.2,1s0.3,0.5,0.6,0.7s0.6,0.4,1,0.6s0.8,0.3,1.3,0.5
			c0.7,0.3,1.3,0.5,1.8,0.8s1,0.6,1.3,0.9s0.7,0.7,0.9,1.2s0.3,1,0.3,1.6c0,0.7-0.2,1.4-0.5,1.9s-0.8,1-1.3,1.4s-1.2,0.6-1.9,0.8
			s-1.5,0.3-2.2,0.3C116.7,31.5,115.4,31.2,114.2,30.6z"/>
		<path d="M134.8,31c-0.6,0.3-1.3,0.5-2.2,0.5c-2.6,0-3.9-1.5-3.9-4.4v-8.9h-2.6v-2.1h2.6v-3.7l2.4-0.8v4.4h3.8v2.1h-3.8v8.5
			c0,1,0.2,1.7,0.5,2.2s0.9,0.6,1.7,0.6c0.6,0,1.1-0.2,1.6-0.5V31z"/>
		<path d="M150.1,24.3h-10.6c0,1.7,0.5,3,1.3,3.9s2,1.4,3.5,1.4c1.7,0,3.2-0.6,4.7-1.7v2.3c-1.3,1-3.1,1.4-5.2,1.4
			c-2.1,0-3.8-0.7-5-2s-1.8-3.3-1.8-5.8c0-2.3,0.7-4.2,2-5.7s3-2.2,4.9-2.2s3.5,0.6,4.6,1.9s1.6,3,1.6,5.3V24.3z M147.6,22.2
			c0-1.4-0.3-2.5-1-3.2s-1.6-1.2-2.7-1.2c-1.1,0-2.1,0.4-2.9,1.2s-1.3,1.9-1.5,3.2H147.6z"/>
		<path d="M175,31.2h-2.4v-8.6c0-1.7-0.3-2.9-0.8-3.6s-1.4-1.1-2.6-1.1c-1,0-1.9,0.5-2.6,1.4s-1.1,2.1-1.1,3.4v8.6h-2.4v-8.9
			c0-2.9-1.1-4.4-3.4-4.4c-1.1,0-1.9,0.4-2.6,1.3s-1,2-1,3.4v8.6h-2.4v-15h2.4v2.4h0.1c1.1-1.8,2.6-2.7,4.7-2.7c1,0,1.9,0.3,2.7,0.9
			s1.3,1.3,1.6,2.2c1.1-2.1,2.8-3.1,5-3.1c3.3,0,5,2,5,6.1V31.2z"/>
		<path d="M190.3,31.2h-2.4v-2.3h-0.1c-1,1.8-2.6,2.7-4.6,2.7c-1.5,0-2.7-0.4-3.5-1.2s-1.3-1.8-1.3-3.1c0-2.8,1.7-4.4,5-4.9l4.5-0.6
			c0-2.5-1-3.8-3.1-3.8c-1.8,0-3.4,0.6-4.9,1.8v-2.5c1.5-0.9,3.2-1.4,5.1-1.4c3.5,0,5.3,1.9,5.3,5.6V31.2z M187.9,23.6l-3.6,0.5
			c-1.1,0.2-2,0.4-2.5,0.8s-0.8,1.1-0.8,2.1c0,0.7,0.3,1.3,0.8,1.8s1.2,0.7,2.1,0.7c1.2,0,2.2-0.4,3-1.3s1.2-1.9,1.2-3.2V23.6z"/>
		<path d="M216.4,31.2H214v-2.5H214c-1.1,1.9-2.8,2.9-5.2,2.9c-1.9,0-3.4-0.7-4.5-2s-1.7-3.2-1.7-5.5c0-2.5,0.6-4.5,1.9-6
			s2.9-2.2,5-2.2c2.1,0,3.6,0.8,4.5,2.4h0.1V9h2.4V31.2z M214,24.4v-2.2c0-1.2-0.4-2.2-1.2-3.1s-1.8-1.3-3-1.3
			c-1.5,0-2.6,0.5-3.5,1.6s-1.3,2.6-1.3,4.5c0,1.7,0.4,3.1,1.2,4.1s1.9,1.5,3.2,1.5c1.3,0,2.4-0.5,3.3-1.5S214,25.9,214,24.4z"/>
		<path d="M233.4,24.3h-10.6c0,1.7,0.5,3,1.3,3.9s2,1.4,3.5,1.4c1.7,0,3.2-0.6,4.7-1.7v2.3c-1.3,1-3.1,1.4-5.2,1.4
			c-2.1,0-3.8-0.7-5-2s-1.8-3.3-1.8-5.8c0-2.3,0.7-4.2,2-5.7s3-2.2,4.9-2.2s3.5,0.6,4.6,1.9s1.6,3,1.6,5.3V24.3z M230.9,22.2
			c0-1.4-0.3-2.5-1-3.2s-1.6-1.2-2.7-1.2c-1.1,0-2.1,0.4-2.9,1.2s-1.3,1.9-1.5,3.2H230.9z"/>
		<path d="M256,30.5c-1.2,0.7-2.5,1-4.1,1c-2.1,0-3.9-0.7-5.2-2.1s-2-3.2-2-5.4c0-2.5,0.7-4.5,2.1-6s3.3-2.2,5.7-2.2
			c1.3,0,2.5,0.2,3.5,0.7V19c-1.1-0.8-2.3-1.2-3.6-1.2c-1.5,0-2.8,0.5-3.8,1.6s-1.5,2.5-1.5,4.3c0,1.8,0.5,3.1,1.4,4.2
			s2.2,1.5,3.7,1.5c1.3,0,2.5-0.4,3.7-1.3V30.5z"/>
		<path d="M265.9,31.5c-2.2,0-4-0.7-5.3-2.1s-2-3.3-2-5.6c0-2.5,0.7-4.5,2.1-5.9s3.2-2.1,5.6-2.1c2.2,0,4,0.7,5.2,2.1
			s1.9,3.3,1.9,5.7c0,2.4-0.7,4.3-2,5.8S268.2,31.5,265.9,31.5z M266.1,17.8c-1.5,0-2.8,0.5-3.7,1.6s-1.3,2.5-1.3,4.3
			c0,1.8,0.5,3.2,1.4,4.2s2.1,1.5,3.6,1.5c1.6,0,2.7-0.5,3.6-1.5s1.3-2.4,1.3-4.3c0-1.9-0.4-3.3-1.3-4.3S267.7,17.8,266.1,17.8z"/>
		<path d="M283.5,31.5c-2.2,0-4-0.7-5.3-2.1s-2-3.3-2-5.6c0-2.5,0.7-4.5,2.1-5.9s3.2-2.1,5.6-2.1c2.2,0,4,0.7,5.2,2.1
			s1.9,3.3,1.9,5.7c0,2.4-0.7,4.3-2,5.8S285.8,31.5,283.5,31.5z M283.7,17.8c-1.5,0-2.8,0.5-3.7,1.6s-1.3,2.5-1.3,4.3
			c0,1.8,0.5,3.2,1.4,4.2s2.1,1.5,3.6,1.5c1.6,0,2.7-0.5,3.6-1.5s1.3-2.4,1.3-4.3c0-1.9-0.4-3.3-1.3-4.3S285.2,17.8,283.7,17.8z"/>
		<path d="M302.6,18.6c-0.4-0.3-1-0.5-1.8-0.5c-1,0-1.9,0.5-2.6,1.5s-1,2.3-1,4v7.6h-2.4v-15h2.4v3.1h0.1c0.3-1.1,0.9-1.9,1.6-2.5
			s1.5-0.9,2.4-0.9c0.6,0,1.1,0.1,1.4,0.2V18.6z"/>
		<path d="M318,31.2h-2.4v-2.5h-0.1c-1.1,1.9-2.8,2.9-5.2,2.9c-1.9,0-3.4-0.7-4.5-2s-1.7-3.2-1.7-5.5c0-2.5,0.6-4.5,1.9-6
			s2.9-2.2,5-2.2c2.1,0,3.6,0.8,4.5,2.4h0.1V9h2.4V31.2z M315.6,24.4v-2.2c0-1.2-0.4-2.2-1.2-3.1s-1.8-1.3-3-1.3
			c-1.5,0-2.6,0.5-3.5,1.6s-1.3,2.6-1.3,4.5c0,1.7,0.4,3.1,1.2,4.1s1.9,1.5,3.2,1.5c1.3,0,2.4-0.5,3.3-1.5S315.6,25.9,315.6,24.4z"
			/>
		<path d="M335,24.3h-10.6c0,1.7,0.5,3,1.3,3.9s2,1.4,3.5,1.4c1.7,0,3.2-0.6,4.7-1.7v2.3c-1.3,1-3.1,1.4-5.2,1.4c-2.1,0-3.8-0.7-5-2
			s-1.8-3.3-1.8-5.8c0-2.3,0.7-4.2,2-5.7s3-2.2,4.9-2.2s3.5,0.6,4.6,1.9s1.6,3,1.6,5.3V24.3z M332.5,22.2c0-1.4-0.3-2.5-1-3.2
			s-1.6-1.2-2.7-1.2c-1.1,0-2.1,0.4-2.9,1.2s-1.3,1.9-1.5,3.2H332.5z"/>
		<path d="M351,31.2h-2.4v-8.6c0-3.2-1.2-4.8-3.5-4.8c-1.2,0-2.2,0.5-3,1.4s-1.2,2-1.2,3.4v8.6h-2.4v-15h2.4v2.5h0.1
			c1.1-1.9,2.8-2.8,4.9-2.8c1.6,0,2.9,0.5,3.8,1.6S351,20,351,22V31.2z"/>
		<path d="M366.3,31.2h-2.4v-2.3h-0.1c-1,1.8-2.6,2.7-4.6,2.7c-1.5,0-2.7-0.4-3.5-1.2s-1.3-1.8-1.3-3.1c0-2.8,1.7-4.4,5-4.9l4.5-0.6
			c0-2.5-1-3.8-3.1-3.8c-1.8,0-3.4,0.6-4.9,1.8v-2.5c1.5-0.9,3.2-1.4,5.1-1.4c3.5,0,5.3,1.9,5.3,5.6V31.2z M363.9,23.6l-3.6,0.5
			c-1.1,0.2-2,0.4-2.5,0.8s-0.8,1.1-0.8,2.1c0,0.7,0.3,1.3,0.8,1.8s1.2,0.7,2.1,0.7c1.2,0,2.2-0.4,3-1.3s1.2-1.9,1.2-3.2V23.6z"/>
		<path d="M383.6,31.2h-2.4v-2.5h-0.1c-1.1,1.9-2.8,2.9-5.2,2.9c-1.9,0-3.4-0.7-4.5-2c-1.1-1.3-1.7-3.2-1.7-5.5c0-2.5,0.6-4.5,1.9-6
			s2.9-2.2,5-2.2c2.1,0,3.6,0.8,4.5,2.4h0.1V9h2.4V31.2z M381.2,24.4v-2.2c0-1.2-0.4-2.2-1.2-3.1s-1.8-1.3-3-1.3
			c-1.5,0-2.6,0.5-3.5,1.6s-1.3,2.6-1.3,4.5c0,1.7,0.4,3.1,1.2,4.1c0.8,1,1.9,1.5,3.2,1.5c1.3,0,2.4-0.5,3.3-1.5
			C380.8,27.1,381.2,25.9,381.2,24.4z"/>
		<path d="M399.2,31.2h-2.4v-2.3h-0.1c-1,1.8-2.6,2.7-4.6,2.7c-1.5,0-2.7-0.4-3.5-1.2c-0.8-0.8-1.3-1.8-1.3-3.1c0-2.8,1.7-4.4,5-4.9
			l4.5-0.6c0-2.5-1-3.8-3.1-3.8c-1.8,0-3.4,0.6-4.9,1.8v-2.5c1.5-0.9,3.2-1.4,5.1-1.4c3.5,0,5.3,1.9,5.3,5.6V31.2z M396.8,23.6
			l-3.6,0.5c-1.1,0.2-2,0.4-2.5,0.8s-0.8,1.1-0.8,2.1c0,0.7,0.3,1.3,0.8,1.8s1.2,0.7,2.1,0.7c1.2,0,2.2-0.4,3-1.3
			c0.8-0.8,1.2-1.9,1.2-3.2V23.6z"/>
		<path d="M402.9,30.6V28c1.3,1,2.7,1.5,4.3,1.5c2.1,0,3.2-0.7,3.2-2.1c0-0.4-0.1-0.7-0.3-1c-0.2-0.3-0.4-0.5-0.7-0.7
			c-0.3-0.2-0.7-0.4-1.1-0.6c-0.4-0.2-0.9-0.3-1.3-0.5c-0.7-0.3-1.2-0.5-1.8-0.8s-0.9-0.6-1.3-0.9c-0.3-0.3-0.6-0.7-0.8-1.2
			s-0.3-0.9-0.3-1.5c0-0.7,0.2-1.3,0.5-1.9s0.8-1,1.3-1.4s1.1-0.6,1.8-0.8c0.7-0.2,1.4-0.3,2.1-0.3c1.3,0,2.5,0.2,3.5,0.7v2.4
			c-1.1-0.7-2.4-1.1-3.8-1.1c-0.4,0-0.9,0.1-1.2,0.2s-0.7,0.2-0.9,0.4s-0.5,0.4-0.6,0.7c-0.1,0.3-0.2,0.5-0.2,0.9
			c0,0.4,0.1,0.7,0.2,1c0.1,0.3,0.3,0.5,0.6,0.7s0.6,0.4,1,0.6s0.8,0.3,1.3,0.5c0.7,0.3,1.3,0.5,1.8,0.8s1,0.6,1.3,0.9
			s0.7,0.7,0.9,1.2c0.2,0.4,0.3,1,0.3,1.6c0,0.7-0.2,1.4-0.5,1.9s-0.8,1-1.3,1.4s-1.2,0.6-1.9,0.8s-1.5,0.3-2.2,0.3
			C405.3,31.5,404,31.2,402.9,30.6z"/>
		<path d="M431.1,23.8l3.5,7.3l-2.7,0l-1.9-4.7c-0.1-0.2-0.1-0.4-0.2-0.6c-0.1-0.3-0.2-0.5-0.3-0.7h-0.1c-0.1,0.1-0.1,0.2-0.2,0.3
			s-0.2,0.2-0.3,0.4s-0.2,0.2-0.3,0.3s-0.2,0.2-0.2,0.3l-3.9,4.7h-2.9l6.8-7.5l-3.4-7.5h2.7l1.8,4.8c0.1,0.2,0.2,0.5,0.3,0.8
			s0.2,0.5,0.2,0.6h0.1c0.1-0.1,0.1-0.2,0.2-0.3s0.2-0.2,0.2-0.3s0.2-0.2,0.3-0.4c0.1-0.1,0.2-0.2,0.3-0.3l4.1-4.9h2.7L431.1,23.8z"
			/>
		<path d="M441.9,33.7c-0.4,0.7-0.9,1.4-1.4,1.9s-0.9,1-1.4,1.4s-1,0.7-1.6,0.9c-0.6,0.2-1.2,0.3-1.9,0.3c-0.2,0-0.5,0-0.8-0.1
			c-0.3,0-0.5-0.1-0.7-0.1l0.5-2.1c0.1,0.1,0.3,0.1,0.6,0.2s0.5,0.1,0.7,0.1c0.7,0,1.3-0.2,1.8-0.6c0.5-0.4,1.1-0.9,1.5-1.7l1.8-2.8
			l-2.7-14.9h2.5l1.7,11.5c0,0.2,0,0.4,0.1,0.6s0,0.4,0,0.5h0.1c0-0.1,0.1-0.3,0.2-0.5c0.1-0.2,0.2-0.4,0.3-0.6l6.7-11.5h2.7
			L441.9,33.7z"/>
		<path d="M461.4,30.6V28c1.3,1,2.7,1.5,4.3,1.5c2.1,0,3.2-0.7,3.2-2.1c0-0.4-0.1-0.7-0.3-1c-0.2-0.3-0.4-0.5-0.7-0.7
			c-0.3-0.2-0.7-0.4-1.1-0.6c-0.4-0.2-0.9-0.3-1.3-0.5c-0.7-0.3-1.2-0.5-1.8-0.8s-0.9-0.6-1.3-0.9c-0.3-0.3-0.6-0.7-0.8-1.2
			s-0.3-0.9-0.3-1.5c0-0.7,0.2-1.3,0.5-1.9s0.8-1,1.3-1.4s1.1-0.6,1.8-0.8c0.7-0.2,1.4-0.3,2.1-0.3c1.3,0,2.5,0.2,3.5,0.7v2.4
			c-1.1-0.7-2.4-1.1-3.8-1.1c-0.4,0-0.9,0.1-1.2,0.2s-0.7,0.2-0.9,0.4s-0.5,0.4-0.6,0.7c-0.1,0.3-0.2,0.5-0.2,0.9
			c0,0.4,0.1,0.7,0.2,1c0.1,0.3,0.3,0.5,0.6,0.7s0.6,0.4,1,0.6s0.8,0.3,1.3,0.5c0.7,0.3,1.3,0.5,1.8,0.8s1,0.6,1.3,0.9
			s0.7,0.7,0.9,1.2c0.2,0.4,0.3,1,0.3,1.6c0,0.7-0.2,1.4-0.5,1.9s-0.8,1-1.3,1.4s-1.2,0.6-1.9,0.8s-1.5,0.3-2.2,0.3
			C463.9,31.5,462.5,31.2,461.4,30.6z"/>
		<path d="M487.1,24.3h-10.6c0,1.7,0.5,3,1.3,3.9s2,1.4,3.5,1.4c1.7,0,3.2-0.6,4.7-1.7v2.3c-1.3,1-3.1,1.4-5.2,1.4
			c-2.1,0-3.8-0.7-5-2s-1.8-3.3-1.8-5.8c0-2.3,0.7-4.2,2-5.7s3-2.2,4.9-2.2s3.5,0.6,4.6,1.9s1.6,3,1.6,5.3V24.3z M484.6,22.2
			c0-1.4-0.3-2.5-1-3.2c-0.7-0.8-1.6-1.2-2.7-1.2c-1.1,0-2.1,0.4-2.9,1.2s-1.3,1.9-1.5,3.2H484.6z"/>
		<path d="M502,29L502,29l-0.1,9.1h-2.4V16.2h2.4v2.6h0.1c1.2-2,2.9-3,5.2-3c1.9,0,3.4,0.7,4.5,2s1.6,3.1,1.6,5.4
			c0,2.5-0.6,4.5-1.8,6s-2.9,2.3-5,2.3C504.5,31.5,503,30.7,502,29z M501.9,22.9V25c0,1.2,0.4,2.3,1.2,3.2c0.8,0.9,1.8,1.3,3.1,1.3
			c1.5,0,2.6-0.6,3.4-1.7s1.2-2.7,1.2-4.6c0-1.7-0.4-3-1.2-3.9s-1.8-1.4-3.1-1.4c-1.4,0-2.5,0.5-3.4,1.5S501.9,21.5,501.9,22.9z"/>
		<path d="M529.3,31.2h-2.4v-2.4h-0.1c-1,1.8-2.5,2.7-4.6,2.7c-3.6,0-5.4-2.1-5.4-6.4v-9h2.4v8.6c0,3.2,1.2,4.7,3.6,4.7
			c1.2,0,2.1-0.4,2.9-1.3c0.8-0.9,1.1-2,1.1-3.4v-8.6h2.4V31.2z"/>
		<path d="M546.2,24.3h-10.6c0,1.7,0.5,3,1.3,3.9s2,1.4,3.5,1.4c1.7,0,3.2-0.6,4.7-1.7v2.3c-1.3,1-3.1,1.4-5.2,1.4
			c-2.1,0-3.8-0.7-5-2s-1.8-3.3-1.8-5.8c0-2.3,0.7-4.2,2-5.7s3-2.2,4.9-2.2s3.5,0.6,4.6,1.9s1.6,3,1.6,5.3V24.3z M543.7,22.2
			c0-1.4-0.3-2.5-1-3.2c-0.7-0.8-1.6-1.2-2.7-1.2c-1.1,0-2.1,0.4-2.9,1.2s-1.3,1.9-1.5,3.2H543.7z"/>
		<path d="M562.6,31.2h-2.4v-2.5h-0.1c-1.1,1.9-2.8,2.9-5.2,2.9c-1.9,0-3.4-0.7-4.5-2c-1.1-1.3-1.7-3.2-1.7-5.5c0-2.5,0.6-4.5,1.9-6
			s2.9-2.2,5-2.2c2.1,0,3.6,0.8,4.5,2.4h0.1V9h2.4V31.2z M560.2,24.4v-2.2c0-1.2-0.4-2.2-1.2-3.1s-1.8-1.3-3-1.3
			c-1.5,0-2.6,0.5-3.5,1.6s-1.3,2.6-1.3,4.5c0,1.7,0.4,3.1,1.2,4.1c0.8,1,1.9,1.5,3.2,1.5c1.3,0,2.4-0.5,3.3-1.5
			C559.8,27.1,560.2,25.9,560.2,24.4z"/>
		<path d="M579.6,24.3H569c0,1.7,0.5,3,1.3,3.9s2,1.4,3.5,1.4c1.7,0,3.2-0.6,4.7-1.7v2.3c-1.3,1-3.1,1.4-5.2,1.4c-2.1,0-3.8-0.7-5-2
			s-1.8-3.3-1.8-5.8c0-2.3,0.7-4.2,2-5.7s3-2.2,4.9-2.2s3.5,0.6,4.6,1.9s1.6,3,1.6,5.3V24.3z M577.1,22.2c0-1.4-0.3-2.5-1-3.2
			c-0.7-0.8-1.6-1.2-2.7-1.2c-1.1,0-2.1,0.4-2.9,1.2s-1.3,1.9-1.5,3.2H577.1z"/>
		<path d="M604.8,31.2h-2.4v-2.5h-0.1c-1.1,1.9-2.8,2.9-5.2,2.9c-1.9,0-3.4-0.7-4.5-2c-1.1-1.3-1.7-3.2-1.7-5.5c0-2.5,0.6-4.5,1.9-6
			s2.9-2.2,5-2.2c2.1,0,3.6,0.8,4.5,2.4h0.1V9h2.4V31.2z M602.4,24.4v-2.2c0-1.2-0.4-2.2-1.2-3.1s-1.8-1.3-3-1.3
			c-1.5,0-2.6,0.5-3.5,1.6s-1.3,2.6-1.3,4.5c0,1.7,0.4,3.1,1.2,4.1c0.8,1,1.9,1.5,3.2,1.5c1.3,0,2.4-0.5,3.3-1.5
			C602,27.1,602.4,25.9,602.4,24.4z"/>
		<path d="M621.7,24.3h-10.6c0,1.7,0.5,3,1.3,3.9s2,1.4,3.5,1.4c1.7,0,3.2-0.6,4.7-1.7v2.3c-1.3,1-3.1,1.4-5.2,1.4
			c-2.1,0-3.8-0.7-5-2s-1.8-3.3-1.8-5.8c0-2.3,0.7-4.2,2-5.7s3-2.2,4.9-2.2s3.5,0.6,4.6,1.9s1.6,3,1.6,5.3V24.3z M619.2,22.2
			c0-1.4-0.3-2.5-1-3.2c-0.7-0.8-1.6-1.2-2.7-1.2c-1.1,0-2.1,0.4-2.9,1.2s-1.3,1.9-1.5,3.2H619.2z"/>
		<path d="M632.8,11.1c-0.5-0.3-1-0.4-1.6-0.4c-1.7,0-2.5,1.1-2.5,3.2v2.3h3.5v2.1h-3.5v12.9h-2.4V18.2h-2.6v-2.1h2.6v-2.4
			c0-1.6,0.5-2.8,1.4-3.7s2-1.4,3.4-1.4c0.7,0,1.3,0.1,1.7,0.3V11.1z"/>
		<path d="M636,12.4c-0.4,0-0.8-0.1-1.1-0.4s-0.5-0.7-0.5-1.1s0.2-0.8,0.5-1.1s0.7-0.4,1.1-0.4c0.4,0,0.8,0.1,1.1,0.4
			c0.3,0.3,0.5,0.7,0.5,1.1c0,0.4-0.2,0.8-0.5,1.1C636.8,12.2,636.4,12.4,636,12.4z M637.1,31.2h-2.4v-15h2.4V31.2z"/>
		<path d="M654.4,31.2H652v-8.6c0-3.2-1.2-4.8-3.5-4.8c-1.2,0-2.2,0.5-3,1.4c-0.8,0.9-1.2,2-1.2,3.4v8.6H642v-15h2.4v2.5h0.1
			c1.1-1.9,2.8-2.8,4.9-2.8c1.6,0,2.9,0.5,3.8,1.6s1.3,2.6,1.3,4.6V31.2z"/>
		<path d="M660.2,12.4c-0.4,0-0.8-0.1-1.1-0.4s-0.5-0.7-0.5-1.1s0.2-0.8,0.5-1.1s0.7-0.4,1.1-0.4c0.4,0,0.8,0.1,1.1,0.4
			c0.3,0.3,0.5,0.7,0.5,1.1c0,0.4-0.2,0.8-0.5,1.1C661,12.2,660.6,12.4,660.2,12.4z M661.4,31.2H659v-15h2.4V31.2z"/>
		<path d="M674.1,18.6c-0.4-0.3-1-0.5-1.8-0.5c-1,0-1.9,0.5-2.6,1.5c-0.7,1-1,2.3-1,4v7.6h-2.4v-15h2.4v3.1h0.1
			c0.3-1.1,0.9-1.9,1.6-2.5s1.5-0.9,2.4-0.9c0.6,0,1.1,0.1,1.4,0.2V18.6z"/>
		<path d="M697.6,31.2h-2.4v-2.4h-0.1c-1,1.8-2.5,2.7-4.6,2.7c-3.6,0-5.4-2.1-5.4-6.4v-9h2.4v8.6c0,3.2,1.2,4.7,3.6,4.7
			c1.2,0,2.1-0.4,2.9-1.3c0.8-0.9,1.1-2,1.1-3.4v-8.6h2.4V31.2z"/>
		<path d="M714.9,31.2h-2.4v-8.6c0-3.2-1.2-4.8-3.5-4.8c-1.2,0-2.2,0.5-3,1.4c-0.8,0.9-1.2,2-1.2,3.4v8.6h-2.4v-15h2.4v2.5h0.1
			c1.1-1.9,2.8-2.8,4.9-2.8c1.6,0,2.9,0.5,3.8,1.6s1.3,2.6,1.3,4.6V31.2z"/>
		<path d="M23.2,52.2l-6,15h-2.4l-5.7-15h2.6l3.8,10.9c0.3,0.8,0.5,1.5,0.5,2.1h0.1c0.1-0.8,0.3-1.4,0.5-2l4-11H23.2z"/>
		<path d="M37.9,60.3H27.3c0,1.7,0.5,3,1.3,3.9s2,1.4,3.5,1.4c1.7,0,3.2-0.6,4.7-1.7v2.3c-1.3,1-3.1,1.4-5.2,1.4c-2.1,0-3.8-0.7-5-2
			s-1.8-3.3-1.8-5.8c0-2.3,0.7-4.2,2-5.7s3-2.2,4.9-2.2s3.5,0.6,4.6,1.9s1.6,3,1.6,5.3V60.3z M35.4,58.2c0-1.4-0.3-2.5-1-3.2
			s-1.6-1.2-2.7-1.2c-1.1,0-2.1,0.4-2.9,1.2s-1.3,1.9-1.5,3.2H35.4z"/>
		<path d="M51.7,66.5c-1.2,0.7-2.5,1-4.1,1c-2.1,0-3.9-0.7-5.2-2.1s-2-3.2-2-5.4c0-2.5,0.7-4.5,2.1-6s3.3-2.2,5.7-2.2
			c1.3,0,2.5,0.2,3.5,0.7V55c-1.1-0.8-2.3-1.2-3.6-1.2c-1.5,0-2.8,0.5-3.8,1.6s-1.5,2.5-1.5,4.3c0,1.8,0.5,3.1,1.4,4.2
			s2.2,1.5,3.7,1.5c1.3,0,2.5-0.4,3.7-1.3V66.5z"/>
		<path d="M62.3,67c-0.6,0.3-1.3,0.5-2.2,0.5c-2.6,0-3.9-1.5-3.9-4.4v-8.9h-2.6v-2.1h2.6v-3.7l2.4-0.8v4.4h3.8v2.1h-3.8v8.5
			c0,1,0.2,1.7,0.5,2.2s0.9,0.6,1.7,0.6c0.6,0,1.1-0.2,1.6-0.5V67z"/>
		<path d="M71.8,67.5c-2.2,0-4-0.7-5.3-2.1s-2-3.3-2-5.6c0-2.5,0.7-4.5,2.1-5.9s3.2-2.1,5.6-2.1c2.2,0,4,0.7,5.2,2.1
			s1.9,3.3,1.9,5.7c0,2.4-0.7,4.3-2,5.8S74.1,67.5,71.8,67.5z M72,53.8c-1.5,0-2.8,0.5-3.7,1.6s-1.3,2.5-1.3,4.3
			c0,1.8,0.5,3.2,1.4,4.2s2.1,1.5,3.6,1.5c1.6,0,2.7-0.5,3.6-1.5s1.3-2.4,1.3-4.3c0-1.9-0.4-3.3-1.3-4.3S73.5,53.8,72,53.8z"/>
		<path d="M90.9,54.6c-0.4-0.3-1-0.5-1.8-0.5c-1,0-1.9,0.5-2.6,1.5s-1,2.3-1,4v7.6h-2.4v-15h2.4v3.1h0.1c0.3-1.1,0.9-1.9,1.6-2.5
			s1.5-0.9,2.4-0.9c0.6,0,1.1,0.1,1.4,0.2V54.6z"/>
		<path d="M113.4,67.2H111v-2.4h-0.1c-1,1.8-2.5,2.7-4.6,2.7c-3.6,0-5.4-2.1-5.4-6.4v-9h2.4v8.6c0,3.2,1.2,4.7,3.6,4.7
			c1.2,0,2.1-0.4,2.9-1.3s1.1-2,1.1-3.4v-8.6h2.4V67.2z"/>
		<path d="M130.7,67.2h-2.4v-8.6c0-3.2-1.2-4.8-3.5-4.8c-1.2,0-2.2,0.5-3,1.4s-1.2,2-1.2,3.4v8.6h-2.4v-15h2.4v2.5h0.1
			c1.1-1.9,2.8-2.8,4.9-2.8c1.6,0,2.9,0.5,3.8,1.6s1.3,2.6,1.3,4.6V67.2z"/>
		<path d="M136.4,48.4c-0.4,0-0.8-0.1-1.1-0.4s-0.5-0.7-0.5-1.1s0.2-0.8,0.5-1.1s0.7-0.4,1.1-0.4c0.4,0,0.8,0.1,1.1,0.4
			s0.5,0.7,0.5,1.1c0,0.4-0.2,0.8-0.5,1.1S136.9,48.4,136.4,48.4z M137.6,67.2h-2.4v-15h2.4V67.2z"/>
		<path d="M149.4,67c-0.6,0.3-1.3,0.5-2.2,0.5c-2.6,0-3.9-1.5-3.9-4.4v-8.9h-2.6v-2.1h2.6v-3.7l2.4-0.8v4.4h3.8v2.1h-3.8v8.5
			c0,1,0.2,1.7,0.5,2.2s0.9,0.6,1.7,0.6c0.6,0,1.1-0.2,1.6-0.5V67z"/>
		<path d="M163.4,67.2H161v-2.3h-0.1c-1,1.8-2.6,2.7-4.6,2.7c-1.5,0-2.7-0.4-3.5-1.2s-1.3-1.8-1.3-3.1c0-2.8,1.7-4.4,5-4.9l4.5-0.6
			c0-2.5-1-3.8-3.1-3.8c-1.8,0-3.4,0.6-4.9,1.8v-2.5c1.5-0.9,3.2-1.4,5.1-1.4c3.5,0,5.3,1.9,5.3,5.6V67.2z M161,59.6l-3.6,0.5
			c-1.1,0.2-2,0.4-2.5,0.8S154,62,154,63c0,0.7,0.3,1.3,0.8,1.8s1.2,0.7,2.1,0.7c1.2,0,2.2-0.4,3-1.3s1.2-1.9,1.2-3.2V59.6z"/>
		<path d="M175.7,54.6c-0.4-0.3-1-0.5-1.8-0.5c-1,0-1.9,0.5-2.6,1.5s-1,2.3-1,4v7.6h-2.4v-15h2.4v3.1h0.1c0.3-1.1,0.9-1.9,1.6-2.5
			s1.5-0.9,2.4-0.9c0.6,0,1.1,0.1,1.4,0.2V54.6z"/>
		<path d="M179.6,48.4c-0.4,0-0.8-0.1-1.1-0.4s-0.5-0.7-0.5-1.1s0.2-0.8,0.5-1.1s0.7-0.4,1.1-0.4c0.4,0,0.8,0.1,1.1,0.4
			s0.5,0.7,0.5,1.1c0,0.4-0.2,0.8-0.5,1.1S180,48.4,179.6,48.4z M180.7,67.2h-2.4v-15h2.4V67.2z"/>
		<path d="M191.9,67.5c-2.2,0-4-0.7-5.3-2.1s-2-3.3-2-5.6c0-2.5,0.7-4.5,2.1-5.9s3.2-2.1,5.6-2.1c2.2,0,4,0.7,5.2,2.1
			s1.9,3.3,1.9,5.7c0,2.4-0.7,4.3-2,5.8S194.1,67.5,191.9,67.5z M192,53.8c-1.5,0-2.8,0.5-3.7,1.6s-1.3,2.5-1.3,4.3
			c0,1.8,0.5,3.2,1.4,4.2s2.1,1.5,3.6,1.5c1.6,0,2.7-0.5,3.6-1.5s1.3-2.4,1.3-4.3c0-1.9-0.4-3.3-1.3-4.3S193.6,53.8,192,53.8z"/>
		<path d="M223.7,74.1h-2.4v-9.5h-0.1c-1,2-2.8,2.9-5.1,2.9c-1.9,0-3.4-0.7-4.5-2s-1.7-3.2-1.7-5.5c0-2.5,0.6-4.5,1.9-6
			s2.9-2.2,5-2.2c2.1,0,3.5,0.8,4.5,2.4h0.1v-2.1h2.4V74.1z M221.3,60.4v-2.2c0-1.2-0.4-2.3-1.2-3.1s-1.8-1.3-3.1-1.3
			c-1.4,0-2.6,0.5-3.4,1.6s-1.3,2.6-1.3,4.5c0,1.7,0.4,3.1,1.2,4.1s1.9,1.5,3.1,1.5c1.4,0,2.5-0.5,3.4-1.4S221.3,61.9,221.3,60.4z"
			/>
		<path d="M240.7,67.2h-2.4v-2.4h-0.1c-1,1.8-2.5,2.7-4.6,2.7c-3.6,0-5.4-2.1-5.4-6.4v-9h2.4v8.6c0,3.2,1.2,4.7,3.6,4.7
			c1.2,0,2.1-0.4,2.9-1.3s1.1-2,1.1-3.4v-8.6h2.4V67.2z"/>
		<path d="M257.6,60.3H247c0,1.7,0.5,3,1.3,3.9s2,1.4,3.5,1.4c1.7,0,3.2-0.6,4.7-1.7v2.3c-1.3,1-3.1,1.4-5.2,1.4c-2.1,0-3.8-0.7-5-2
			s-1.8-3.3-1.8-5.8c0-2.3,0.7-4.2,2-5.7s3-2.2,4.9-2.2s3.5,0.6,4.6,1.9s1.6,3,1.6,5.3V60.3z M255.1,58.2c0-1.4-0.3-2.5-1-3.2
			s-1.6-1.2-2.7-1.2c-1.1,0-2.1,0.4-2.9,1.2s-1.3,1.9-1.5,3.2H255.1z"/>
		<path d="M279.7,67.2h-2.4v-2.3h-0.1c-1,1.8-2.6,2.7-4.6,2.7c-1.5,0-2.7-0.4-3.5-1.2s-1.3-1.8-1.3-3.1c0-2.8,1.7-4.4,5-4.9l4.5-0.6
			c0-2.5-1-3.8-3.1-3.8c-1.8,0-3.4,0.6-4.9,1.8v-2.5c1.5-0.9,3.2-1.4,5.1-1.4c3.5,0,5.3,1.9,5.3,5.6V67.2z M277.3,59.6l-3.6,0.5
			c-1.1,0.2-2,0.4-2.5,0.8s-0.8,1.1-0.8,2.1c0,0.7,0.3,1.3,0.8,1.8s1.2,0.7,2.1,0.7c1.2,0,2.2-0.4,3-1.3s1.2-1.9,1.2-3.2V59.6z"/>
		<path d="M286.7,65L286.7,65l-0.1,9.1h-2.4V52.2h2.4v2.6h0.1c1.2-2,2.9-3,5.2-3c1.9,0,3.4,0.7,4.5,2s1.6,3.1,1.6,5.4
			c0,2.5-0.6,4.5-1.8,6s-2.9,2.3-5,2.3C289.2,67.5,287.7,66.7,286.7,65z M286.6,58.9V61c0,1.2,0.4,2.3,1.2,3.2s1.8,1.3,3.1,1.3
			c1.5,0,2.6-0.6,3.4-1.7s1.2-2.7,1.2-4.6c0-1.7-0.4-3-1.2-3.9s-1.8-1.4-3.1-1.4c-1.4,0-2.5,0.5-3.4,1.5S286.6,57.5,286.6,58.9z"/>
		<path d="M314,67.2h-2.4v-2.4h-0.1c-1,1.8-2.5,2.7-4.6,2.7c-3.6,0-5.4-2.1-5.4-6.4v-9h2.4v8.6c0,3.2,1.2,4.7,3.6,4.7
			c1.2,0,2.1-0.4,2.9-1.3s1.1-2,1.1-3.4v-8.6h2.4V67.2z"/>
		<path d="M331.3,67.2h-2.4v-8.6c0-3.2-1.2-4.8-3.5-4.8c-1.2,0-2.2,0.5-3,1.4s-1.2,2-1.2,3.4v8.6h-2.4v-15h2.4v2.5h0.1
			c1.1-1.9,2.8-2.8,4.9-2.8c1.6,0,2.9,0.5,3.8,1.6s1.3,2.6,1.3,4.6V67.2z"/>
		<path d="M342.8,67c-0.6,0.3-1.3,0.5-2.2,0.5c-2.6,0-3.9-1.5-3.9-4.4v-8.9H334v-2.1h2.6v-3.7l2.4-0.8v4.4h3.8v2.1H339v8.5
			c0,1,0.2,1.7,0.5,2.2s0.9,0.6,1.7,0.6c0.6,0,1.1-0.2,1.6-0.5V67z"/>
		<path d="M358,60.3h-10.6c0,1.7,0.5,3,1.3,3.9s2,1.4,3.5,1.4c1.7,0,3.2-0.6,4.7-1.7v2.3c-1.3,1-3.1,1.4-5.2,1.4c-2.1,0-3.8-0.7-5-2
			s-1.8-3.3-1.8-5.8c0-2.3,0.7-4.2,2-5.7s3-2.2,4.9-2.2s3.5,0.6,4.6,1.9s1.6,3,1.6,5.3V60.3z M355.6,58.2c0-1.4-0.3-2.5-1-3.2
			s-1.6-1.2-2.7-1.2c-1.1,0-2.1,0.4-2.9,1.2s-1.3,1.9-1.5,3.2H355.6z"/>
		<path d="M381.4,60.3h-10.6c0,1.7,0.5,3,1.3,3.9s2,1.4,3.5,1.4c1.7,0,3.2-0.6,4.7-1.7v2.3c-1.3,1-3.1,1.4-5.2,1.4
			c-2.1,0-3.8-0.7-5-2s-1.8-3.3-1.8-5.8c0-2.3,0.7-4.2,2-5.7s3-2.2,4.9-2.2s3.5,0.6,4.6,1.9s1.6,3,1.6,5.3V60.3z M379,58.2
			c0-1.4-0.3-2.5-1-3.2c-0.7-0.8-1.6-1.2-2.7-1.2c-1.1,0-2.1,0.4-2.9,1.2s-1.3,1.9-1.5,3.2H379z"/>
		<path d="M397.5,67.2h-2.4v-8.6c0-3.2-1.2-4.8-3.5-4.8c-1.2,0-2.2,0.5-3,1.4c-0.8,0.9-1.2,2-1.2,3.4v8.6h-2.4v-15h2.4v2.5h0.1
			c1.1-1.9,2.8-2.8,4.9-2.8c1.6,0,2.9,0.5,3.8,1.6s1.3,2.6,1.3,4.6V67.2z"/>
		<path d="M412.2,67.2h-2.4V45h2.4V67.2z"/>
		<path d="M427.8,67.2h-2.4v-2.3h-0.1c-1,1.8-2.6,2.7-4.6,2.7c-1.5,0-2.7-0.4-3.5-1.2c-0.8-0.8-1.3-1.8-1.3-3.1c0-2.8,1.7-4.4,5-4.9
			l4.5-0.6c0-2.5-1-3.8-3.1-3.8c-1.8,0-3.4,0.6-4.9,1.8v-2.5c1.5-0.9,3.2-1.4,5.1-1.4c3.5,0,5.3,1.9,5.3,5.6V67.2z M425.4,59.6
			l-3.6,0.5c-1.1,0.2-2,0.4-2.5,0.8s-0.8,1.1-0.8,2.1c0,0.7,0.3,1.3,0.8,1.8s1.2,0.7,2.1,0.7c1.2,0,2.2-0.4,3-1.3
			c0.8-0.8,1.2-1.9,1.2-3.2V59.6z"/>
		<path d="M452.8,67.2h-2.4v-2.5h-0.1c-1.1,1.9-2.8,2.9-5.2,2.9c-1.9,0-3.4-0.7-4.5-2c-1.1-1.3-1.7-3.2-1.7-5.5c0-2.5,0.6-4.5,1.9-6
			s2.9-2.2,5-2.2c2.1,0,3.6,0.8,4.5,2.4h0.1V45h2.4V67.2z M450.4,60.4v-2.2c0-1.2-0.4-2.2-1.2-3.1s-1.8-1.3-3-1.3
			c-1.5,0-2.6,0.5-3.5,1.6s-1.3,2.6-1.3,4.5c0,1.7,0.4,3.1,1.2,4.1c0.8,1,1.9,1.5,3.2,1.5c1.3,0,2.4-0.5,3.3-1.5
			C450,63.1,450.4,61.9,450.4,60.4z"/>
		<path d="M458.9,48.4c-0.4,0-0.8-0.1-1.1-0.4s-0.5-0.7-0.5-1.1s0.2-0.8,0.5-1.1s0.7-0.4,1.1-0.4c0.4,0,0.8,0.1,1.1,0.4
			c0.3,0.3,0.5,0.7,0.5,1.1c0,0.4-0.2,0.8-0.5,1.1C459.7,48.2,459.3,48.4,458.9,48.4z M460.1,67.2h-2.4v-15h2.4V67.2z"/>
		<path d="M472.8,54.6c-0.4-0.3-1-0.5-1.8-0.5c-1,0-1.9,0.5-2.6,1.5c-0.7,1-1,2.3-1,4v7.6h-2.4v-15h2.4v3.1h0.1
			c0.3-1.1,0.9-1.9,1.6-2.5s1.5-0.9,2.4-0.9c0.6,0,1.1,0.1,1.4,0.2V54.6z"/>
		<path d="M487.4,60.3h-10.6c0,1.7,0.5,3,1.3,3.9s2,1.4,3.5,1.4c1.7,0,3.2-0.6,4.7-1.7v2.3c-1.3,1-3.1,1.4-5.2,1.4
			c-2.1,0-3.8-0.7-5-2s-1.8-3.3-1.8-5.8c0-2.3,0.7-4.2,2-5.7s3-2.2,4.9-2.2s3.5,0.6,4.6,1.9s1.6,3,1.6,5.3V60.3z M485,58.2
			c0-1.4-0.3-2.5-1-3.2c-0.7-0.8-1.6-1.2-2.7-1.2c-1.1,0-2.1,0.4-2.9,1.2s-1.3,1.9-1.5,3.2H485z"/>
		<path d="M501.3,66.5c-1.2,0.7-2.5,1-4.1,1c-2.1,0-3.9-0.7-5.2-2.1c-1.3-1.4-2-3.2-2-5.4c0-2.5,0.7-4.5,2.1-6s3.3-2.2,5.7-2.2
			c1.3,0,2.5,0.2,3.5,0.7V55c-1.1-0.8-2.3-1.2-3.6-1.2c-1.5,0-2.8,0.5-3.8,1.6c-1,1.1-1.5,2.5-1.5,4.3c0,1.8,0.5,3.1,1.4,4.2
			c0.9,1,2.2,1.5,3.7,1.5c1.3,0,2.5-0.4,3.7-1.3V66.5z"/>
		<path d="M515.1,66.5c-1.2,0.7-2.5,1-4.1,1c-2.1,0-3.9-0.7-5.2-2.1c-1.3-1.4-2-3.2-2-5.4c0-2.5,0.7-4.5,2.1-6s3.3-2.2,5.7-2.2
			c1.3,0,2.5,0.2,3.5,0.7V55c-1.1-0.8-2.3-1.2-3.6-1.2c-1.5,0-2.8,0.5-3.8,1.6c-1,1.1-1.5,2.5-1.5,4.3c0,1.8,0.5,3.1,1.4,4.2
			c0.9,1,2.2,1.5,3.7,1.5c1.3,0,2.5-0.4,3.7-1.3V66.5z"/>
		<path d="M520,48.4c-0.4,0-0.8-0.1-1.1-0.4s-0.5-0.7-0.5-1.1s0.2-0.8,0.5-1.1s0.7-0.4,1.1-0.4c0.4,0,0.8,0.1,1.1,0.4
			c0.3,0.3,0.5,0.7,0.5,1.1c0,0.4-0.2,0.8-0.5,1.1C520.8,48.2,520.4,48.4,520,48.4z M521.2,67.2h-2.4v-15h2.4V67.2z"/>
		<path d="M532.3,67.5c-2.2,0-4-0.7-5.3-2.1s-2-3.3-2-5.6c0-2.5,0.7-4.5,2.1-5.9s3.2-2.1,5.6-2.1c2.2,0,4,0.7,5.2,2.1
			s1.9,3.3,1.9,5.7c0,2.4-0.7,4.3-2,5.8S534.6,67.5,532.3,67.5z M532.5,53.8c-1.5,0-2.8,0.5-3.7,1.6s-1.3,2.5-1.3,4.3
			c0,1.8,0.5,3.2,1.4,4.2s2.1,1.5,3.6,1.5c1.6,0,2.7-0.5,3.6-1.5c0.8-1,1.3-2.4,1.3-4.3c0-1.9-0.4-3.3-1.3-4.3
			C535.2,54.3,534,53.8,532.5,53.8z M536,44.5l-3.8,4.8h-1.9l3.3-4.8H536z"/>
		<path d="M556.1,67.2h-2.4v-8.6c0-3.2-1.2-4.8-3.5-4.8c-1.2,0-2.2,0.5-3,1.4c-0.8,0.9-1.2,2-1.2,3.4v8.6h-2.4v-15h2.4v2.5h0.1
			c1.1-1.9,2.8-2.8,4.9-2.8c1.6,0,2.9,0.5,3.8,1.6s1.3,2.6,1.3,4.6V67.2z"/>
		<path d="M581.1,67.2h-2.4v-2.5h-0.1c-1.1,1.9-2.8,2.9-5.2,2.9c-1.9,0-3.4-0.7-4.5-2c-1.1-1.3-1.7-3.2-1.7-5.5c0-2.5,0.6-4.5,1.9-6
			s2.9-2.2,5-2.2c2.1,0,3.6,0.8,4.5,2.4h0.1V45h2.4V67.2z M578.7,60.4v-2.2c0-1.2-0.4-2.2-1.2-3.1s-1.8-1.3-3-1.3
			c-1.5,0-2.6,0.5-3.5,1.6s-1.3,2.6-1.3,4.5c0,1.7,0.4,3.1,1.2,4.1c0.8,1,1.9,1.5,3.2,1.5c1.3,0,2.4-0.5,3.3-1.5
			C578.3,63.1,578.7,61.9,578.7,60.4z"/>
		<path d="M598,60.3h-10.6c0,1.7,0.5,3,1.3,3.9s2,1.4,3.5,1.4c1.7,0,3.2-0.6,4.7-1.7v2.3c-1.3,1-3.1,1.4-5.2,1.4c-2.1,0-3.8-0.7-5-2
			s-1.8-3.3-1.8-5.8c0-2.3,0.7-4.2,2-5.7s3-2.2,4.9-2.2s3.5,0.6,4.6,1.9s1.6,3,1.6,5.3V60.3z M595.6,58.2c0-1.4-0.3-2.5-1-3.2
			c-0.7-0.8-1.6-1.2-2.7-1.2c-1.1,0-2.1,0.4-2.9,1.2s-1.3,1.9-1.5,3.2H595.6z"/>
		<path d="M604.1,67.2h-2.4V45h2.4V67.2z"/>
		<path d="M628.7,60.3h-10.6c0,1.7,0.5,3,1.3,3.9s2,1.4,3.5,1.4c1.7,0,3.2-0.6,4.7-1.7v2.3c-1.3,1-3.1,1.4-5.2,1.4
			c-2.1,0-3.8-0.7-5-2s-1.8-3.3-1.8-5.8c0-2.3,0.7-4.2,2-5.7s3-2.2,4.9-2.2s3.5,0.6,4.6,1.9s1.6,3,1.6,5.3V60.3z M626.3,58.2
			c0-1.4-0.3-2.5-1-3.2c-0.7-0.8-1.6-1.2-2.7-1.2c-1.1,0-2.1,0.4-2.9,1.2s-1.3,1.9-1.5,3.2H626.3z"/>
		<path d="M634.7,66.5c0,2.5-0.5,4.4-1.5,5.7c-1,1.3-2.4,2-4.3,2c-0.7,0-1.3-0.2-2-0.5v-2.2c0.7,0.4,1.4,0.7,2.1,0.7
			c2.2,0,3.3-1.7,3.3-5.2V52.2h2.4V66.5z M633.6,48.4c-0.4,0-0.8-0.1-1.1-0.4s-0.5-0.7-0.5-1.1s0.2-0.8,0.5-1.1s0.7-0.4,1.1-0.4
			c0.4,0,0.8,0.1,1.1,0.4c0.3,0.3,0.5,0.7,0.5,1.1c0,0.4-0.2,0.8-0.5,1.1C634.4,48.2,634,48.4,633.6,48.4z"/>
		<path d="M651.7,60.3h-10.6c0,1.7,0.5,3,1.3,3.9s2,1.4,3.5,1.4c1.7,0,3.2-0.6,4.7-1.7v2.3c-1.3,1-3.1,1.4-5.2,1.4
			c-2.1,0-3.8-0.7-5-2s-1.8-3.3-1.8-5.8c0-2.3,0.7-4.2,2-5.7s3-2.2,4.9-2.2s3.5,0.6,4.6,1.9s1.6,3,1.6,5.3V60.3z M649.2,58.2
			c0-1.4-0.3-2.5-1-3.2c-0.7-0.8-1.6-1.2-2.7-1.2c-1.1,0-2.1,0.4-2.9,1.2s-1.3,1.9-1.5,3.2H649.2z"/>
		<path d="M677.8,59.4h-5.9v5.9h-1.9v-5.9H664v-2h5.9v-5.9h1.9v5.9h5.9V59.4z"/>
		<path d="M689.3,59.8l3.5,7.3l-2.7,0l-1.9-4.7c-0.1-0.2-0.1-0.4-0.2-0.6c-0.1-0.3-0.2-0.5-0.3-0.7h-0.1c-0.1,0.1-0.1,0.2-0.2,0.3
			s-0.2,0.2-0.3,0.4s-0.2,0.2-0.3,0.3s-0.2,0.2-0.2,0.3l-3.9,4.7h-2.9l6.8-7.5l-3.4-7.5h2.7l1.8,4.8c0.1,0.2,0.2,0.5,0.3,0.8
			s0.2,0.5,0.2,0.6h0.1c0.1-0.1,0.1-0.2,0.2-0.3s0.2-0.2,0.2-0.3s0.2-0.2,0.3-0.4c0.1-0.1,0.2-0.2,0.3-0.3l4.1-4.9h2.7L689.3,59.8z"
			/>
		<path d="M716.9,52.2L710,69.6c-1.2,3.1-3,4.7-5.2,4.7c-0.6,0-1.1-0.1-1.6-0.2v-2.2c0.5,0.2,1,0.3,1.4,0.3c1.2,0,2.1-0.7,2.7-2.2
			l1.2-2.8l-5.9-15h2.7l4.1,11.5c0,0.1,0.2,0.5,0.3,1.1h0.1c0-0.2,0.1-0.6,0.3-1.1l4.3-11.6H716.9z"/>
		<path d="M23.6,103.2h-2.4v-2.4h-0.1c-1,1.8-2.5,2.7-4.6,2.7c-3.6,0-5.4-2.1-5.4-6.4v-9h2.4v8.6c0,3.2,1.2,4.7,3.6,4.7
			c1.2,0,2.1-0.4,2.9-1.3s1.1-2,1.1-3.4v-8.6h2.4V103.2z"/>
		<path d="M40.9,103.2h-2.4v-8.6c0-3.2-1.2-4.8-3.5-4.8c-1.2,0-2.2,0.5-3,1.4s-1.2,2-1.2,3.4v8.6h-2.4v-15h2.4v2.5h0.1
			c1.1-1.9,2.8-2.8,4.9-2.8c1.6,0,2.9,0.5,3.8,1.6s1.3,2.6,1.3,4.6V103.2z"/>
		<path d="M67.4,88.2l-6,15h-2.4l-5.7-15H56l3.8,10.9c0.3,0.8,0.5,1.5,0.5,2.1h0.1c0.1-0.8,0.3-1.4,0.5-2l4-11H67.4z"/>
		<path d="M82,96.3H71.4c0,1.7,0.5,3,1.3,3.9s2,1.4,3.5,1.4c1.7,0,3.2-0.6,4.7-1.7v2.3c-1.3,1-3.1,1.4-5.2,1.4c-2.1,0-3.8-0.7-5-2
			s-1.8-3.3-1.8-5.8c0-2.3,0.7-4.2,2-5.7s3-2.2,4.9-2.2s3.5,0.6,4.6,1.9s1.6,3,1.6,5.3V96.3z M79.6,94.2c0-1.4-0.3-2.5-1-3.2
			s-1.6-1.2-2.7-1.2c-1.1,0-2.1,0.4-2.9,1.2s-1.3,1.9-1.5,3.2H79.6z"/>
		<path d="M95.9,102.5c-1.2,0.7-2.5,1-4.1,1c-2.1,0-3.9-0.7-5.2-2.1s-2-3.2-2-5.4c0-2.5,0.7-4.5,2.1-6s3.3-2.2,5.7-2.2
			c1.3,0,2.5,0.2,3.5,0.7V91c-1.1-0.8-2.3-1.2-3.6-1.2c-1.5,0-2.8,0.5-3.8,1.6s-1.5,2.5-1.5,4.3c0,1.8,0.5,3.1,1.4,4.2
			s2.2,1.5,3.7,1.5c1.3,0,2.5-0.4,3.7-1.3V102.5z"/>
		<path d="M106.5,103c-0.6,0.3-1.3,0.5-2.2,0.5c-2.6,0-3.9-1.5-3.9-4.4v-8.9h-2.6v-2.1h2.6v-3.7l2.4-0.8v4.4h3.8v2.1h-3.8v8.5
			c0,1,0.2,1.7,0.5,2.2s0.9,0.6,1.7,0.6c0.6,0,1.1-0.2,1.6-0.5V103z"/>
		<path d="M116,103.5c-2.2,0-4-0.7-5.3-2.1s-2-3.3-2-5.6c0-2.5,0.7-4.5,2.1-5.9s3.2-2.1,5.6-2.1c2.2,0,4,0.7,5.2,2.1
			s1.9,3.3,1.9,5.7c0,2.4-0.7,4.3-2,5.8S118.2,103.5,116,103.5z M116.1,89.8c-1.5,0-2.8,0.5-3.7,1.6s-1.3,2.5-1.3,4.3
			c0,1.8,0.5,3.2,1.4,4.2s2.1,1.5,3.6,1.5c1.6,0,2.7-0.5,3.6-1.5s1.3-2.4,1.3-4.3c0-1.9-0.4-3.3-1.3-4.3S117.7,89.8,116.1,89.8z"/>
		<path d="M135.1,90.6c-0.4-0.3-1-0.5-1.8-0.5c-1,0-1.9,0.5-2.6,1.5s-1,2.3-1,4v7.6h-2.4v-15h2.4v3.1h0.1c0.3-1.1,0.9-1.9,1.6-2.5
			s1.5-0.9,2.4-0.9c0.6,0,1.1,0.1,1.4,0.2V90.6z"/>
		<path d="M160,103.2h-2.4v-2.4h-0.1c-1,1.8-2.5,2.7-4.6,2.7c-3.6,0-5.4-2.1-5.4-6.4v-9h2.4v8.6c0,3.2,1.2,4.7,3.6,4.7
			c1.2,0,2.1-0.4,2.9-1.3s1.1-2,1.1-3.4v-8.6h2.4V103.2z"/>
		<path d="M177.3,103.2h-2.4v-8.6c0-3.2-1.2-4.8-3.5-4.8c-1.2,0-2.2,0.5-3,1.4s-1.2,2-1.2,3.4v8.6h-2.4v-15h2.4v2.5h0.1
			c1.1-1.9,2.8-2.8,4.9-2.8c1.6,0,2.9,0.5,3.8,1.6s1.3,2.6,1.3,4.6V103.2z"/>
		<path d="M183.1,84.4c-0.4,0-0.8-0.1-1.1-0.4s-0.5-0.7-0.5-1.1s0.2-0.8,0.5-1.1s0.7-0.4,1.1-0.4c0.4,0,0.8,0.1,1.1,0.4
			s0.5,0.7,0.5,1.1c0,0.4-0.2,0.8-0.5,1.1S183.5,84.4,183.1,84.4z M184.3,103.2h-2.4v-15h2.4V103.2z"/>
		<path d="M196.1,103c-0.6,0.3-1.3,0.5-2.2,0.5c-2.6,0-3.9-1.5-3.9-4.4v-8.9h-2.6v-2.1h2.6v-3.7l2.4-0.8v4.4h3.8v2.1h-3.8v8.5
			c0,1,0.2,1.7,0.5,2.2s0.9,0.6,1.7,0.6c0.6,0,1.1-0.2,1.6-0.5V103z"/>
		<path d="M210,103.2h-2.4v-2.3h-0.1c-1,1.8-2.6,2.7-4.6,2.7c-1.5,0-2.7-0.4-3.5-1.2s-1.3-1.8-1.3-3.1c0-2.8,1.7-4.4,5-4.9l4.5-0.6
			c0-2.5-1-3.8-3.1-3.8c-1.8,0-3.4,0.6-4.9,1.8v-2.5c1.5-0.9,3.2-1.4,5.1-1.4c3.5,0,5.3,1.9,5.3,5.6V103.2z M207.6,95.6l-3.6,0.5
			c-1.1,0.2-2,0.4-2.5,0.8s-0.8,1.1-0.8,2.1c0,0.7,0.3,1.3,0.8,1.8s1.2,0.7,2.1,0.7c1.2,0,2.2-0.4,3-1.3s1.2-1.9,1.2-3.2V95.6z"/>
		<path d="M222.4,90.6c-0.4-0.3-1-0.5-1.8-0.5c-1,0-1.9,0.5-2.6,1.5s-1,2.3-1,4v7.6h-2.4v-15h2.4v3.1h0.1c0.3-1.1,0.9-1.9,1.6-2.5
			s1.5-0.9,2.4-0.9c0.6,0,1.1,0.1,1.4,0.2V90.6z"/>
		<path d="M226.2,84.4c-0.4,0-0.8-0.1-1.1-0.4s-0.5-0.7-0.5-1.1s0.2-0.8,0.5-1.1s0.7-0.4,1.1-0.4c0.4,0,0.8,0.1,1.1,0.4
			s0.5,0.7,0.5,1.1c0,0.4-0.2,0.8-0.5,1.1S226.7,84.4,226.2,84.4z M227.4,103.2H225v-15h2.4V103.2z"/>
		<path d="M238.5,103.5c-2.2,0-4-0.7-5.3-2.1s-2-3.3-2-5.6c0-2.5,0.7-4.5,2.1-5.9s3.2-2.1,5.6-2.1c2.2,0,4,0.7,5.2,2.1
			s1.9,3.3,1.9,5.7c0,2.4-0.7,4.3-2,5.8S240.8,103.5,238.5,103.5z M238.7,89.8c-1.5,0-2.8,0.5-3.7,1.6s-1.3,2.5-1.3,4.3
			c0,1.8,0.5,3.2,1.4,4.2s2.1,1.5,3.6,1.5c1.6,0,2.7-0.5,3.6-1.5s1.3-2.4,1.3-4.3c0-1.9-0.4-3.3-1.3-4.3S240.3,89.8,238.7,89.8z"/>
		<path d="M272.9,110.1h-2.4v-9.5h-0.1c-1,2-2.8,2.9-5.1,2.9c-1.9,0-3.4-0.7-4.5-2S259,98.3,259,96c0-2.5,0.6-4.5,1.9-6
			s2.9-2.2,5-2.2c2.1,0,3.5,0.8,4.5,2.4h0.1v-2.1h2.4V110.1z M270.4,96.4v-2.2c0-1.2-0.4-2.3-1.2-3.1s-1.8-1.3-3.1-1.3
			c-1.4,0-2.6,0.5-3.4,1.6s-1.3,2.6-1.3,4.5c0,1.7,0.4,3.1,1.2,4.1s1.9,1.5,3.1,1.5c1.4,0,2.5-0.5,3.4-1.4S270.4,97.9,270.4,96.4z"
			/>
		<path d="M289.8,103.2h-2.4v-2.4h-0.1c-1,1.8-2.5,2.7-4.6,2.7c-3.6,0-5.4-2.1-5.4-6.4v-9h2.4v8.6c0,3.2,1.2,4.7,3.6,4.7
			c1.2,0,2.1-0.4,2.9-1.3s1.1-2,1.1-3.4v-8.6h2.4V103.2z"/>
		<path d="M306.7,96.3h-10.6c0,1.7,0.5,3,1.3,3.9s2,1.4,3.5,1.4c1.7,0,3.2-0.6,4.7-1.7v2.3c-1.3,1-3.1,1.4-5.2,1.4
			c-2.1,0-3.8-0.7-5-2s-1.8-3.3-1.8-5.8c0-2.3,0.7-4.2,2-5.7s3-2.2,4.9-2.2s3.5,0.6,4.6,1.9s1.6,3,1.6,5.3V96.3z M304.3,94.2
			c0-1.4-0.3-2.5-1-3.2s-1.6-1.2-2.7-1.2c-1.1,0-2.1,0.4-2.9,1.2s-1.3,1.9-1.5,3.2H304.3z"/>
		<path d="M331.3,103.2h-2.4v-2.3h-0.1c-1,1.8-2.6,2.7-4.6,2.7c-1.5,0-2.7-0.4-3.5-1.2s-1.3-1.8-1.3-3.1c0-2.8,1.7-4.4,5-4.9
			l4.5-0.6c0-2.5-1-3.8-3.1-3.8c-1.8,0-3.4,0.6-4.9,1.8v-2.5c1.5-0.9,3.2-1.4,5.1-1.4c3.5,0,5.3,1.9,5.3,5.6V103.2z M328.9,95.6
			l-3.6,0.5c-1.1,0.2-2,0.4-2.5,0.8s-0.8,1.1-0.8,2.1c0,0.7,0.3,1.3,0.8,1.8s1.2,0.7,2.1,0.7c1.2,0,2.2-0.4,3-1.3s1.2-1.9,1.2-3.2
			V95.6z"/>
		<path d="M338.3,101L338.3,101l-0.1,9.1h-2.4V88.2h2.4v2.6h0.1c1.2-2,2.9-3,5.2-3c1.9,0,3.4,0.7,4.5,2s1.6,3.1,1.6,5.4
			c0,2.5-0.6,4.5-1.8,6s-2.9,2.3-5,2.3C340.9,103.5,339.4,102.7,338.3,101z M338.3,94.9V97c0,1.2,0.4,2.3,1.2,3.2s1.8,1.3,3.1,1.3
			c1.5,0,2.6-0.6,3.4-1.7s1.2-2.7,1.2-4.6c0-1.7-0.4-3-1.2-3.9s-1.8-1.4-3.1-1.4c-1.4,0-2.5,0.5-3.4,1.5S338.3,93.5,338.3,94.9z"/>
		<path d="M365.6,103.2h-2.4v-2.4h-0.1c-1,1.8-2.5,2.7-4.6,2.7c-3.6,0-5.4-2.1-5.4-6.4v-9h2.4v8.6c0,3.2,1.2,4.7,3.6,4.7
			c1.2,0,2.1-0.4,2.9-1.3s1.1-2,1.1-3.4v-8.6h2.4V103.2z"/>
		<path d="M382.9,103.2h-2.4v-8.6c0-3.2-1.2-4.8-3.5-4.8c-1.2,0-2.2,0.5-3,1.4c-0.8,0.9-1.2,2-1.2,3.4v8.6h-2.4v-15h2.4v2.5h0.1
			c1.1-1.9,2.8-2.8,4.9-2.8c1.6,0,2.9,0.5,3.8,1.6s1.3,2.6,1.3,4.6V103.2z"/>
		<path d="M394.4,103c-0.6,0.3-1.3,0.5-2.2,0.5c-2.6,0-3.9-1.5-3.9-4.4v-8.9h-2.6v-2.1h2.6v-3.7l2.4-0.8v4.4h3.8v2.1h-3.8v8.5
			c0,1,0.2,1.7,0.5,2.2s0.9,0.6,1.7,0.6c0.6,0,1.1-0.2,1.6-0.5V103z"/>
		<path d="M409.7,96.3h-10.6c0,1.7,0.5,3,1.3,3.9s2,1.4,3.5,1.4c1.7,0,3.2-0.6,4.7-1.7v2.3c-1.3,1-3.1,1.4-5.2,1.4
			c-2.1,0-3.8-0.7-5-2s-1.8-3.3-1.8-5.8c0-2.3,0.7-4.2,2-5.7s3-2.2,4.9-2.2s3.5,0.6,4.6,1.9s1.6,3,1.6,5.3V96.3z M407.2,94.2
			c0-1.4-0.3-2.5-1-3.2c-0.7-0.8-1.6-1.2-2.7-1.2c-1.1,0-2.1,0.4-2.9,1.2s-1.3,1.9-1.5,3.2H407.2z"/>
		<path d="M435.6,96.3H425c0,1.7,0.5,3,1.3,3.9s2,1.4,3.5,1.4c1.7,0,3.2-0.6,4.7-1.7v2.3c-1.3,1-3.1,1.4-5.2,1.4c-2.1,0-3.8-0.7-5-2
			s-1.8-3.3-1.8-5.8c0-2.3,0.7-4.2,2-5.7s3-2.2,4.9-2.2s3.5,0.6,4.6,1.9s1.6,3,1.6,5.3V96.3z M433.1,94.2c0-1.4-0.3-2.5-1-3.2
			c-0.7-0.8-1.6-1.2-2.7-1.2c-1.1,0-2.1,0.4-2.9,1.2s-1.3,1.9-1.5,3.2H433.1z"/>
		<path d="M451.7,103.2h-2.4v-8.6c0-3.2-1.2-4.8-3.5-4.8c-1.2,0-2.2,0.5-3,1.4c-0.8,0.9-1.2,2-1.2,3.4v8.6h-2.4v-15h2.4v2.5h0.1
			c1.1-1.9,2.8-2.8,4.9-2.8c1.6,0,2.9,0.5,3.8,1.6s1.3,2.6,1.3,4.6V103.2z"/>
		<path d="M468.8,103.2h-2.4V81h2.4V103.2z"/>
		<path d="M484.4,103.2H482v-2.3h-0.1c-1,1.8-2.6,2.7-4.6,2.7c-1.5,0-2.7-0.4-3.5-1.2c-0.8-0.8-1.3-1.8-1.3-3.1c0-2.8,1.7-4.4,5-4.9
			l4.5-0.6c0-2.5-1-3.8-3.1-3.8c-1.8,0-3.4,0.6-4.9,1.8v-2.5c1.5-0.9,3.2-1.4,5.1-1.4c3.5,0,5.3,1.9,5.3,5.6V103.2z M482,95.6
			l-3.6,0.5c-1.1,0.2-2,0.4-2.5,0.8S475,98,475,99c0,0.7,0.3,1.3,0.8,1.8s1.2,0.7,2.1,0.7c1.2,0,2.2-0.4,3-1.3
			c0.8-0.8,1.2-1.9,1.2-3.2V95.6z"/>
		<path d="M512,103.2h-2.4v-2.5h-0.1c-1.1,1.9-2.8,2.9-5.2,2.9c-1.9,0-3.4-0.7-4.5-2c-1.1-1.3-1.7-3.2-1.7-5.5c0-2.5,0.6-4.5,1.9-6
			s2.9-2.2,5-2.2c2.1,0,3.6,0.8,4.5,2.4h0.1V81h2.4V103.2z M509.6,96.4v-2.2c0-1.2-0.4-2.2-1.2-3.1s-1.8-1.3-3-1.3
			c-1.5,0-2.6,0.5-3.5,1.6s-1.3,2.6-1.3,4.5c0,1.7,0.4,3.1,1.2,4.1c0.8,1,1.9,1.5,3.2,1.5c1.3,0,2.4-0.5,3.3-1.5
			C509.1,99.1,509.6,97.9,509.6,96.4z"/>
		<path d="M518,84.4c-0.4,0-0.8-0.1-1.1-0.4s-0.5-0.7-0.5-1.1s0.2-0.8,0.5-1.1s0.7-0.4,1.1-0.4c0.4,0,0.8,0.1,1.1,0.4
			c0.3,0.3,0.5,0.7,0.5,1.1c0,0.4-0.2,0.8-0.5,1.1C518.9,84.2,518.5,84.4,518,84.4z M519.2,103.2h-2.4v-15h2.4V103.2z"/>
		<path d="M531.9,90.6c-0.4-0.3-1-0.5-1.8-0.5c-1,0-1.9,0.5-2.6,1.5c-0.7,1-1,2.3-1,4v7.6h-2.4v-15h2.4v3.1h0.1
			c0.3-1.1,0.9-1.9,1.6-2.5s1.5-0.9,2.4-0.9c0.6,0,1.1,0.1,1.4,0.2V90.6z"/>
		<path d="M546.6,96.3H536c0,1.7,0.5,3,1.3,3.9s2,1.4,3.5,1.4c1.7,0,3.2-0.6,4.7-1.7v2.3c-1.3,1-3.1,1.4-5.2,1.4c-2.1,0-3.8-0.7-5-2
			s-1.8-3.3-1.8-5.8c0-2.3,0.7-4.2,2-5.7s3-2.2,4.9-2.2s3.5,0.6,4.6,1.9s1.6,3,1.6,5.3V96.3z M544.1,94.2c0-1.4-0.3-2.5-1-3.2
			c-0.7-0.8-1.6-1.2-2.7-1.2c-1.1,0-2.1,0.4-2.9,1.2s-1.3,1.9-1.5,3.2H544.1z"/>
		<path d="M560.4,102.5c-1.2,0.7-2.5,1-4.1,1c-2.1,0-3.9-0.7-5.2-2.1c-1.3-1.4-2-3.2-2-5.4c0-2.5,0.7-4.5,2.1-6s3.3-2.2,5.7-2.2
			c1.3,0,2.5,0.2,3.5,0.7V91c-1.1-0.8-2.3-1.2-3.6-1.2c-1.5,0-2.8,0.5-3.8,1.6c-1,1.1-1.5,2.5-1.5,4.3c0,1.8,0.5,3.1,1.4,4.2
			c0.9,1,2.2,1.5,3.7,1.5c1.3,0,2.5-0.4,3.7-1.3V102.5z"/>
		<path d="M574.3,102.5c-1.2,0.7-2.5,1-4.1,1c-2.1,0-3.9-0.7-5.2-2.1c-1.3-1.4-2-3.2-2-5.4c0-2.5,0.7-4.5,2.1-6s3.3-2.2,5.7-2.2
			c1.3,0,2.5,0.2,3.5,0.7V91c-1.1-0.8-2.3-1.2-3.6-1.2c-1.5,0-2.8,0.5-3.8,1.6c-1,1.1-1.5,2.5-1.5,4.3c0,1.8,0.5,3.1,1.4,4.2
			c0.9,1,2.2,1.5,3.7,1.5c1.3,0,2.5-0.4,3.7-1.3V102.5z"/>
		<path d="M579.1,84.4c-0.4,0-0.8-0.1-1.1-0.4s-0.5-0.7-0.5-1.1s0.2-0.8,0.5-1.1s0.7-0.4,1.1-0.4c0.4,0,0.8,0.1,1.1,0.4
			c0.3,0.3,0.5,0.7,0.5,1.1c0,0.4-0.2,0.8-0.5,1.1C580,84.2,579.6,84.4,579.1,84.4z M580.3,103.2h-2.4v-15h2.4V103.2z"/>
		<path d="M591.5,103.5c-2.2,0-4-0.7-5.3-2.1s-2-3.3-2-5.6c0-2.5,0.7-4.5,2.1-5.9s3.2-2.1,5.6-2.1c2.2,0,4,0.7,5.2,2.1
			s1.9,3.3,1.9,5.7c0,2.4-0.7,4.3-2,5.8S593.7,103.5,591.5,103.5z M591.6,89.8c-1.5,0-2.8,0.5-3.7,1.6s-1.3,2.5-1.3,4.3
			c0,1.8,0.5,3.2,1.4,4.2s2.1,1.5,3.6,1.5c1.6,0,2.7-0.5,3.6-1.5c0.8-1,1.3-2.4,1.3-4.3c0-1.9-0.4-3.3-1.3-4.3
			C594.4,90.3,593.2,89.8,591.6,89.8z M595.1,80.5l-3.8,4.8h-1.9l3.3-4.8H595.1z"/>
		<path d="M615.2,103.2h-2.4v-8.6c0-3.2-1.2-4.8-3.5-4.8c-1.2,0-2.2,0.5-3,1.4c-0.8,0.9-1.2,2-1.2,3.4v8.6h-2.4v-15h2.4v2.5h0.1
			c1.1-1.9,2.8-2.8,4.9-2.8c1.6,0,2.9,0.5,3.8,1.6s1.3,2.6,1.3,4.6V103.2z"/>
		<path d="M642.8,103.2h-2.4v-2.5h-0.1c-1.1,1.9-2.8,2.9-5.2,2.9c-1.9,0-3.4-0.7-4.5-2c-1.1-1.3-1.7-3.2-1.7-5.5
			c0-2.5,0.6-4.5,1.9-6s2.9-2.2,5-2.2c2.1,0,3.6,0.8,4.5,2.4h0.1V81h2.4V103.2z M640.4,96.4v-2.2c0-1.2-0.4-2.2-1.2-3.1
			s-1.8-1.3-3-1.3c-1.5,0-2.6,0.5-3.5,1.6s-1.3,2.6-1.3,4.5c0,1.7,0.4,3.1,1.2,4.1c0.8,1,1.9,1.5,3.2,1.5c1.3,0,2.4-0.5,3.3-1.5
			C639.9,99.1,640.4,97.9,640.4,96.4z"/>
		<path d="M659.7,96.3h-10.6c0,1.7,0.5,3,1.3,3.9s2,1.4,3.5,1.4c1.7,0,3.2-0.6,4.7-1.7v2.3c-1.3,1-3.1,1.4-5.2,1.4
			c-2.1,0-3.8-0.7-5-2s-1.8-3.3-1.8-5.8c0-2.3,0.7-4.2,2-5.7s3-2.2,4.9-2.2s3.5,0.6,4.6,1.9s1.6,3,1.6,5.3V96.3z M657.2,94.2
			c0-1.4-0.3-2.5-1-3.2c-0.7-0.8-1.6-1.2-2.7-1.2c-1.1,0-2.1,0.4-2.9,1.2s-1.3,1.9-1.5,3.2H657.2z"/>
		<path d="M665.7,103.2h-2.4V81h2.4V103.2z"/>
		<path d="M692.8,96.3h-10.6c0,1.7,0.5,3,1.3,3.9s2,1.4,3.5,1.4c1.7,0,3.2-0.6,4.7-1.7v2.3c-1.3,1-3.1,1.4-5.2,1.4
			c-2.1,0-3.8-0.7-5-2s-1.8-3.3-1.8-5.8c0-2.3,0.7-4.2,2-5.7s3-2.2,4.9-2.2s3.5,0.6,4.6,1.9s1.6,3,1.6,5.3V96.3z M690.4,94.2
			c0-1.4-0.3-2.5-1-3.2c-0.7-0.8-1.6-1.2-2.7-1.2c-1.1,0-2.1,0.4-2.9,1.2s-1.3,1.9-1.5,3.2H690.4z"/>
		<path d="M698.9,102.5c0,2.5-0.5,4.4-1.5,5.7c-1,1.3-2.4,2-4.3,2c-0.7,0-1.3-0.2-2-0.5v-2.2c0.7,0.4,1.4,0.7,2.1,0.7
			c2.2,0,3.3-1.7,3.3-5.2V88.2h2.4V102.5z M697.7,84.4c-0.4,0-0.8-0.1-1.1-0.4s-0.5-0.7-0.5-1.1s0.2-0.8,0.5-1.1s0.7-0.4,1.1-0.4
			c0.4,0,0.8,0.1,1.1,0.4c0.3,0.3,0.5,0.7,0.5,1.1c0,0.4-0.2,0.8-0.5,1.1C698.5,84.2,698.1,84.4,697.7,84.4z"/>
		<path d="M715.8,96.3h-10.6c0,1.7,0.5,3,1.3,3.9s2,1.4,3.5,1.4c1.7,0,3.2-0.6,4.7-1.7v2.3c-1.3,1-3.1,1.4-5.2,1.4
			c-2.1,0-3.8-0.7-5-2s-1.8-3.3-1.8-5.8c0-2.3,0.7-4.2,2-5.7s3-2.2,4.9-2.2s3.5,0.6,4.6,1.9s1.6,3,1.6,5.3V96.3z M713.3,94.2
			c0-1.4-0.3-2.5-1-3.2c-0.7-0.8-1.6-1.2-2.7-1.2c-1.1,0-2.1,0.4-2.9,1.2s-1.3,1.9-1.5,3.2H713.3z"/>
		<path d="M26.2,131.4h-5.9v5.9h-1.9v-5.9h-5.9v-2h5.9v-5.9h1.9v5.9h5.9V131.4z"/>
		<path d="M34.9,141.7c-0.4,0.7-0.9,1.4-1.4,1.9s-0.9,1-1.4,1.4s-1,0.7-1.6,0.9s-1.2,0.3-1.9,0.3c-0.2,0-0.5,0-0.8-0.1
			s-0.5-0.1-0.7-0.1l0.5-2.1c0.1,0.1,0.3,0.1,0.6,0.2s0.5,0.1,0.7,0.1c0.7,0,1.3-0.2,1.8-0.6s1.1-0.9,1.5-1.7l1.8-2.8l-2.7-14.9h2.5
			l1.7,11.5c0,0.2,0,0.4,0.1,0.6s0,0.4,0,0.5h0.1c0-0.1,0.1-0.3,0.2-0.5s0.2-0.4,0.3-0.6l6.7-11.5h2.7L34.9,141.7z"/>
		<path d="M48.7,135.8l-2.3,7.2h-1.7l1.7-7.2H48.7z"/>
		<path d="M70.8,139.2h-2.4v-2.3h-0.1c-1,1.8-2.6,2.7-4.6,2.7c-1.5,0-2.7-0.4-3.5-1.2s-1.3-1.8-1.3-3.1c0-2.8,1.7-4.4,5-4.9l4.5-0.6
			c0-2.5-1-3.8-3.1-3.8c-1.8,0-3.4,0.6-4.9,1.8v-2.5c1.5-0.9,3.2-1.4,5.1-1.4c3.5,0,5.3,1.9,5.3,5.6V139.2z M68.4,131.6l-3.6,0.5
			c-1.1,0.2-2,0.4-2.5,0.8s-0.8,1.1-0.8,2.1c0,0.7,0.3,1.3,0.8,1.8s1.2,0.7,2.1,0.7c1.2,0,2.2-0.4,3-1.3s1.2-1.9,1.2-3.2V131.6z"/>
		<path d="M74.4,138.6V136c1.3,1,2.7,1.5,4.3,1.5c2.1,0,3.2-0.7,3.2-2.1c0-0.4-0.1-0.7-0.3-1s-0.4-0.5-0.7-0.7s-0.7-0.4-1.1-0.6
			s-0.9-0.3-1.3-0.5c-0.7-0.3-1.2-0.5-1.8-0.8s-0.9-0.6-1.3-0.9s-0.6-0.7-0.8-1.2s-0.3-0.9-0.3-1.5c0-0.7,0.2-1.3,0.5-1.9
			s0.8-1,1.3-1.4s1.1-0.6,1.8-0.8s1.4-0.3,2.1-0.3c1.3,0,2.5,0.2,3.5,0.7v2.4c-1.1-0.7-2.4-1.1-3.8-1.1c-0.4,0-0.9,0.1-1.2,0.2
			s-0.7,0.2-0.9,0.4s-0.5,0.4-0.6,0.7s-0.2,0.5-0.2,0.9c0,0.4,0.1,0.7,0.2,1s0.3,0.5,0.6,0.7s0.6,0.4,1,0.6s0.8,0.3,1.3,0.5
			c0.7,0.3,1.3,0.5,1.8,0.8s1,0.6,1.3,0.9s0.7,0.7,0.9,1.2s0.3,1,0.3,1.6c0,0.7-0.2,1.4-0.5,1.9s-0.8,1-1.3,1.4s-1.2,0.6-1.9,0.8
			s-1.5,0.3-2.2,0.3C76.9,139.5,75.5,139.2,74.4,138.6z"/>
		<path d="M92.6,116.5l-3.8,4.8h-1.9l3.3-4.8H92.6z M90.4,139.2H88v-15h2.4V139.2z"/>
		<path d="M101.5,138.6V136c1.3,1,2.7,1.5,4.3,1.5c2.1,0,3.2-0.7,3.2-2.1c0-0.4-0.1-0.7-0.3-1s-0.4-0.5-0.7-0.7s-0.7-0.4-1.1-0.6
			s-0.9-0.3-1.3-0.5c-0.7-0.3-1.2-0.5-1.8-0.8s-0.9-0.6-1.3-0.9s-0.6-0.7-0.8-1.2s-0.3-0.9-0.3-1.5c0-0.7,0.2-1.3,0.5-1.9
			s0.8-1,1.3-1.4s1.1-0.6,1.8-0.8s1.4-0.3,2.1-0.3c1.3,0,2.5,0.2,3.5,0.7v2.4c-1.1-0.7-2.4-1.1-3.8-1.1c-0.4,0-0.9,0.1-1.2,0.2
			s-0.7,0.2-0.9,0.4s-0.5,0.4-0.6,0.7s-0.2,0.5-0.2,0.9c0,0.4,0.1,0.7,0.2,1s0.3,0.5,0.6,0.7s0.6,0.4,1,0.6s0.8,0.3,1.3,0.5
			c0.7,0.3,1.3,0.5,1.8,0.8s1,0.6,1.3,0.9s0.7,0.7,0.9,1.2s0.3,1,0.3,1.6c0,0.7-0.2,1.4-0.5,1.9s-0.8,1-1.3,1.4s-1.2,0.6-1.9,0.8
			s-1.5,0.3-2.2,0.3C103.9,139.5,102.6,139.2,101.5,138.6z"/>
		<path d="M127.2,132.3h-10.6c0,1.7,0.5,3,1.3,3.9s2,1.4,3.5,1.4c1.7,0,3.2-0.6,4.7-1.7v2.3c-1.3,1-3.1,1.4-5.2,1.4
			c-2.1,0-3.8-0.7-5-2s-1.8-3.3-1.8-5.8c0-2.3,0.7-4.2,2-5.7s3-2.2,4.9-2.2s3.5,0.6,4.6,1.9s1.6,3,1.6,5.3V132.3z M124.7,130.2
			c0-1.4-0.3-2.5-1-3.2s-1.6-1.2-2.7-1.2c-1.1,0-2.1,0.4-2.9,1.2s-1.3,1.9-1.5,3.2H124.7z"/>
		<path d="M140.3,137L140.3,137l-0.1,9.1h-2.4v-21.9h2.4v2.6h0.1c1.2-2,2.9-3,5.2-3c1.9,0,3.4,0.7,4.5,2s1.6,3.1,1.6,5.4
			c0,2.5-0.6,4.5-1.8,6s-2.9,2.3-5,2.3C142.9,139.5,141.4,138.7,140.3,137z M140.3,130.9v2.1c0,1.2,0.4,2.3,1.2,3.2s1.8,1.3,3.1,1.3
			c1.5,0,2.6-0.6,3.4-1.7s1.2-2.7,1.2-4.6c0-1.7-0.4-3-1.2-3.9s-1.8-1.4-3.1-1.4c-1.4,0-2.5,0.5-3.4,1.5S140.3,129.5,140.3,130.9z"
			/>
		<path d="M167.6,139.2h-2.4v-2.4h-0.1c-1,1.8-2.5,2.7-4.6,2.7c-3.6,0-5.4-2.1-5.4-6.4v-9h2.4v8.6c0,3.2,1.2,4.7,3.6,4.7
			c1.2,0,2.1-0.4,2.9-1.3s1.1-2,1.1-3.4v-8.6h2.4V139.2z"/>
		<path d="M184.5,132.3h-10.6c0,1.7,0.5,3,1.3,3.9s2,1.4,3.5,1.4c1.7,0,3.2-0.6,4.7-1.7v2.3c-1.3,1-3.1,1.4-5.2,1.4
			c-2.1,0-3.8-0.7-5-2s-1.8-3.3-1.8-5.8c0-2.3,0.7-4.2,2-5.7s3-2.2,4.9-2.2s3.5,0.6,4.6,1.9s1.6,3,1.6,5.3V132.3z M182.1,130.2
			c0-1.4-0.3-2.5-1-3.2s-1.6-1.2-2.7-1.2c-1.1,0-2.1,0.4-2.9,1.2s-1.3,1.9-1.5,3.2H182.1z"/>
		<path d="M201,139.2h-2.4v-2.5h-0.1c-1.1,1.9-2.8,2.9-5.2,2.9c-1.9,0-3.4-0.7-4.5-2s-1.7-3.2-1.7-5.5c0-2.5,0.6-4.5,1.9-6
			s2.9-2.2,5-2.2c2.1,0,3.6,0.8,4.5,2.4h0.1V117h2.4V139.2z M198.6,132.4v-2.2c0-1.2-0.4-2.2-1.2-3.1s-1.8-1.3-3-1.3
			c-1.5,0-2.6,0.5-3.5,1.6s-1.3,2.6-1.3,4.5c0,1.7,0.4,3.1,1.2,4.1s1.9,1.5,3.2,1.5c1.3,0,2.4-0.5,3.3-1.5S198.6,133.9,198.6,132.4z
			"/>
		<path d="M217.9,132.3h-10.6c0,1.7,0.5,3,1.3,3.9s2,1.4,3.5,1.4c1.7,0,3.2-0.6,4.7-1.7v2.3c-1.3,1-3.1,1.4-5.2,1.4
			c-2.1,0-3.8-0.7-5-2s-1.8-3.3-1.8-5.8c0-2.3,0.7-4.2,2-5.7s3-2.2,4.9-2.2s3.5,0.6,4.6,1.9s1.6,3,1.6,5.3V132.3z M215.4,130.2
			c0-1.4-0.3-2.5-1-3.2s-1.6-1.2-2.7-1.2c-1.1,0-2.1,0.4-2.9,1.2s-1.3,1.9-1.5,3.2H215.4z"/>
		<path d="M240.6,132.3H230c0,1.7,0.5,3,1.3,3.9s2,1.4,3.5,1.4c1.7,0,3.2-0.6,4.7-1.7v2.3c-1.3,1-3.1,1.4-5.2,1.4
			c-2.1,0-3.8-0.7-5-2s-1.8-3.3-1.8-5.8c0-2.3,0.7-4.2,2-5.7s3-2.2,4.9-2.2s3.5,0.6,4.6,1.9s1.6,3,1.6,5.3V132.3z M238.2,130.2
			c0-1.4-0.3-2.5-1-3.2s-1.6-1.2-2.7-1.2c-1.1,0-2.1,0.4-2.9,1.2s-1.3,1.9-1.5,3.2H238.2z"/>
		<path d="M255.2,124.2l-5,7.6l5,7.4h-2.8l-2.9-4.9c-0.2-0.3-0.4-0.7-0.7-1.1h-0.1c0,0.1-0.3,0.5-0.7,1.1l-3,4.9h-2.8l5.1-7.4
			l-4.9-7.6h2.8l2.9,5.1c0.2,0.4,0.4,0.8,0.6,1.2h0.1l3.8-6.3H255.2z"/>
		<path d="M260.5,137L260.5,137l-0.1,9.1H258v-21.9h2.4v2.6h0.1c1.2-2,2.9-3,5.2-3c1.9,0,3.4,0.7,4.5,2s1.6,3.1,1.6,5.4
			c0,2.5-0.6,4.5-1.8,6s-2.9,2.3-5,2.3C263,139.5,261.5,138.7,260.5,137z M260.4,130.9v2.1c0,1.2,0.4,2.3,1.2,3.2s1.8,1.3,3.1,1.3
			c1.5,0,2.6-0.6,3.4-1.7s1.2-2.7,1.2-4.6c0-1.7-0.4-3-1.2-3.9s-1.8-1.4-3.1-1.4c-1.4,0-2.5,0.5-3.4,1.5S260.4,129.5,260.4,130.9z"
			/>
		<path d="M283.5,126.6c-0.4-0.3-1-0.5-1.8-0.5c-1,0-1.9,0.5-2.6,1.5s-1,2.3-1,4v7.6h-2.4v-15h2.4v3.1h0.1c0.3-1.1,0.9-1.9,1.6-2.5
			s1.5-0.9,2.4-0.9c0.6,0,1.1,0.1,1.4,0.2V126.6z"/>
		<path d="M298.2,132.3h-10.6c0,1.7,0.5,3,1.3,3.9s2,1.4,3.5,1.4c1.7,0,3.2-0.6,4.7-1.7v2.3c-1.3,1-3.1,1.4-5.2,1.4
			c-2.1,0-3.8-0.7-5-2s-1.8-3.3-1.8-5.8c0-2.3,0.7-4.2,2-5.7s3-2.2,4.9-2.2s3.5,0.6,4.6,1.9s1.6,3,1.6,5.3V132.3z M295.7,130.2
			c0-1.4-0.3-2.5-1-3.2s-1.6-1.2-2.7-1.2c-1.1,0-2.1,0.4-2.9,1.2s-1.3,1.9-1.5,3.2H295.7z"/>
		<path d="M300.9,138.6V136c1.3,1,2.7,1.5,4.3,1.5c2.1,0,3.2-0.7,3.2-2.1c0-0.4-0.1-0.7-0.3-1s-0.4-0.5-0.7-0.7s-0.7-0.4-1.1-0.6
			s-0.9-0.3-1.3-0.5c-0.7-0.3-1.2-0.5-1.8-0.8s-0.9-0.6-1.3-0.9s-0.6-0.7-0.8-1.2s-0.3-0.9-0.3-1.5c0-0.7,0.2-1.3,0.5-1.9
			s0.8-1,1.3-1.4s1.1-0.6,1.8-0.8s1.4-0.3,2.1-0.3c1.3,0,2.5,0.2,3.5,0.7v2.4c-1.1-0.7-2.4-1.1-3.8-1.1c-0.4,0-0.9,0.1-1.2,0.2
			s-0.7,0.2-0.9,0.4s-0.5,0.4-0.6,0.7s-0.2,0.5-0.2,0.9c0,0.4,0.1,0.7,0.2,1s0.3,0.5,0.6,0.7s0.6,0.4,1,0.6s0.8,0.3,1.3,0.5
			c0.7,0.3,1.3,0.5,1.8,0.8s1,0.6,1.3,0.9s0.7,0.7,0.9,1.2s0.3,1,0.3,1.6c0,0.7-0.2,1.4-0.5,1.9s-0.8,1-1.3,1.4s-1.2,0.6-1.9,0.8
			s-1.5,0.3-2.2,0.3C303.4,139.5,302,139.2,300.9,138.6z"/>
		<path d="M325.3,139.2h-2.4v-2.3h-0.1c-1,1.8-2.6,2.7-4.6,2.7c-1.5,0-2.7-0.4-3.5-1.2s-1.3-1.8-1.3-3.1c0-2.8,1.7-4.4,5-4.9
			l4.5-0.6c0-2.5-1-3.8-3.1-3.8c-1.8,0-3.4,0.6-4.9,1.8v-2.5c1.5-0.9,3.2-1.4,5.1-1.4c3.5,0,5.3,1.9,5.3,5.6V139.2z M322.9,131.6
			l-3.6,0.5c-1.1,0.2-2,0.4-2.5,0.8s-0.8,1.1-0.8,2.1c0,0.7,0.3,1.3,0.8,1.8s1.2,0.7,2.1,0.7c1.2,0,2.2-0.4,3-1.3s1.2-1.9,1.2-3.2
			V131.6z"/>
		<path d="M337.6,126.6c-0.4-0.3-1-0.5-1.8-0.5c-1,0-1.9,0.5-2.6,1.5s-1,2.3-1,4v7.6h-2.4v-15h2.4v3.1h0.1c0.3-1.1,0.9-1.9,1.6-2.5
			s1.5-0.9,2.4-0.9c0.6,0,1.1,0.1,1.4,0.2V126.6z"/>
		<path d="M349.7,139.2h-2.4V117h2.4V139.2z"/>
		<path d="M365.3,139.2h-2.4v-2.3h-0.1c-1,1.8-2.6,2.7-4.6,2.7c-1.5,0-2.7-0.4-3.5-1.2s-1.3-1.8-1.3-3.1c0-2.8,1.7-4.4,5-4.9
			l4.5-0.6c0-2.5-1-3.8-3.1-3.8c-1.8,0-3.4,0.6-4.9,1.8v-2.5c1.5-0.9,3.2-1.4,5.1-1.4c3.5,0,5.3,1.9,5.3,5.6V139.2z M362.9,131.6
			l-3.6,0.5c-1.1,0.2-2,0.4-2.5,0.8s-0.8,1.1-0.8,2.1c0,0.7,0.3,1.3,0.8,1.8s1.2,0.7,2.1,0.7c1.2,0,2.2-0.4,3-1.3s1.2-1.9,1.2-3.2
			V131.6z"/>
		<path d="M384.7,126.6c-0.4-0.3-1-0.5-1.8-0.5c-1,0-1.9,0.5-2.6,1.5c-0.7,1-1,2.3-1,4v7.6h-2.4v-15h2.4v3.1h0.1
			c0.3-1.1,0.9-1.9,1.6-2.5s1.5-0.9,2.4-0.9c0.6,0,1.1,0.1,1.4,0.2V126.6z"/>
		<path d="M399.4,132.3h-10.6c0,1.7,0.5,3,1.3,3.9s2,1.4,3.5,1.4c1.7,0,3.2-0.6,4.7-1.7v2.3c-1.3,1-3.1,1.4-5.2,1.4
			c-2.1,0-3.8-0.7-5-2s-1.8-3.3-1.8-5.8c0-2.3,0.7-4.2,2-5.7s3-2.2,4.9-2.2s3.5,0.6,4.6,1.9s1.6,3,1.6,5.3V132.3z M396.9,130.2
			c0-1.4-0.3-2.5-1-3.2c-0.7-0.8-1.6-1.2-2.7-1.2c-1.1,0-2.1,0.4-2.9,1.2s-1.3,1.9-1.5,3.2H396.9z"/>
		<path d="M405.4,139.2H403V117h2.4V139.2z"/>
		<path d="M421,139.2h-2.4v-2.3h-0.1c-1,1.8-2.6,2.7-4.6,2.7c-1.5,0-2.7-0.4-3.5-1.2c-0.8-0.8-1.3-1.8-1.3-3.1c0-2.8,1.7-4.4,5-4.9
			l4.5-0.6c0-2.5-1-3.8-3.1-3.8c-1.8,0-3.4,0.6-4.9,1.8v-2.5c1.5-0.9,3.2-1.4,5.1-1.4c3.5,0,5.3,1.9,5.3,5.6V139.2z M418.6,131.6
			l-3.6,0.5c-1.1,0.2-2,0.4-2.5,0.8s-0.8,1.1-0.8,2.1c0,0.7,0.3,1.3,0.8,1.8s1.2,0.7,2.1,0.7c1.2,0,2.2-0.4,3-1.3
			c0.8-0.8,1.2-1.9,1.2-3.2V131.6z"/>
		<path d="M435.7,138.5c-1.2,0.7-2.5,1-4.1,1c-2.1,0-3.9-0.7-5.2-2.1c-1.3-1.4-2-3.2-2-5.4c0-2.5,0.7-4.5,2.1-6s3.3-2.2,5.7-2.2
			c1.3,0,2.5,0.2,3.5,0.7v2.5c-1.1-0.8-2.3-1.2-3.6-1.2c-1.5,0-2.8,0.5-3.8,1.6c-1,1.1-1.5,2.5-1.5,4.3c0,1.8,0.5,3.1,1.4,4.2
			c0.9,1,2.2,1.5,3.7,1.5c1.3,0,2.5-0.4,3.7-1.3V138.5z"/>
		<path d="M440.6,120.4c-0.4,0-0.8-0.1-1.1-0.4s-0.5-0.7-0.5-1.1s0.2-0.8,0.5-1.1s0.7-0.4,1.1-0.4c0.4,0,0.8,0.1,1.1,0.4
			c0.3,0.3,0.5,0.7,0.5,1.1c0,0.4-0.2,0.8-0.5,1.1C441.4,120.2,441,120.4,440.6,120.4z M441.8,139.2h-2.4v-15h2.4V139.2z"/>
		<path d="M452.9,139.5c-2.2,0-4-0.7-5.3-2.1s-2-3.3-2-5.6c0-2.5,0.7-4.5,2.1-5.9s3.2-2.1,5.6-2.1c2.2,0,4,0.7,5.2,2.1
			s1.9,3.3,1.9,5.7c0,2.4-0.7,4.3-2,5.8S455.2,139.5,452.9,139.5z M453.1,125.8c-1.5,0-2.8,0.5-3.7,1.6s-1.3,2.5-1.3,4.3
			c0,1.8,0.5,3.2,1.4,4.2s2.1,1.5,3.6,1.5c1.6,0,2.7-0.5,3.6-1.5c0.8-1,1.3-2.4,1.3-4.3c0-1.9-0.4-3.3-1.3-4.3
			C455.8,126.3,454.6,125.8,453.1,125.8z M456.6,116.5l-3.8,4.8h-1.9l3.3-4.8H456.6z"/>
		<path d="M476.7,139.2h-2.4v-8.6c0-3.2-1.2-4.8-3.5-4.8c-1.2,0-2.2,0.5-3,1.4c-0.8,0.9-1.2,2-1.2,3.4v8.6h-2.4v-15h2.4v2.5h0.1
			c1.1-1.9,2.8-2.8,4.9-2.8c1.6,0,2.9,0.5,3.8,1.6s1.3,2.6,1.3,4.6V139.2z"/>
		<path d="M500.3,132.3h-10.6c0,1.7,0.5,3,1.3,3.9s2,1.4,3.5,1.4c1.7,0,3.2-0.6,4.7-1.7v2.3c-1.3,1-3.1,1.4-5.2,1.4
			c-2.1,0-3.8-0.7-5-2s-1.8-3.3-1.8-5.8c0-2.3,0.7-4.2,2-5.7s3-2.2,4.9-2.2s3.5,0.6,4.6,1.9s1.6,3,1.6,5.3V132.3z M497.9,130.2
			c0-1.4-0.3-2.5-1-3.2c-0.7-0.8-1.6-1.2-2.7-1.2c-1.1,0-2.1,0.4-2.9,1.2s-1.3,1.9-1.5,3.2H497.9z"/>
		<path d="M516.4,139.2H514v-8.6c0-3.2-1.2-4.8-3.5-4.8c-1.2,0-2.2,0.5-3,1.4c-0.8,0.9-1.2,2-1.2,3.4v8.6H504v-15h2.4v2.5h0.1
			c1.1-1.9,2.8-2.8,4.9-2.8c1.6,0,2.9,0.5,3.8,1.6s1.3,2.6,1.3,4.6V139.2z"/>
		<path d="M527.9,139c-0.6,0.3-1.3,0.5-2.2,0.5c-2.6,0-3.9-1.5-3.9-4.4v-8.9h-2.6v-2.1h2.6v-3.7l2.4-0.8v4.4h3.8v2.1h-3.8v8.5
			c0,1,0.2,1.7,0.5,2.2s0.9,0.6,1.7,0.6c0.6,0,1.1-0.2,1.6-0.5V139z"/>
		<path d="M538.9,126.6c-0.4-0.3-1-0.5-1.8-0.5c-1,0-1.9,0.5-2.6,1.5c-0.7,1-1,2.3-1,4v7.6h-2.4v-15h2.4v3.1h0.1
			c0.3-1.1,0.9-1.9,1.6-2.5s1.5-0.9,2.4-0.9c0.6,0,1.1,0.1,1.4,0.2V126.6z"/>
		<path d="M553.6,132.3H543c0,1.7,0.5,3,1.3,3.9s2,1.4,3.5,1.4c1.7,0,3.2-0.6,4.7-1.7v2.3c-1.3,1-3.1,1.4-5.2,1.4
			c-2.1,0-3.8-0.7-5-2s-1.8-3.3-1.8-5.8c0-2.3,0.7-4.2,2-5.7s3-2.2,4.9-2.2s3.5,0.6,4.6,1.9s1.6,3,1.6,5.3V132.3z M551.1,130.2
			c0-1.4-0.3-2.5-1-3.2c-0.7-0.8-1.6-1.2-2.7-1.2c-1.1,0-2.1,0.4-2.9,1.2s-1.3,1.9-1.5,3.2H551.1z"/>
		<path d="M566.7,139.2h-2.4V117h2.4V139.2z"/>
		<path d="M577.8,139.5c-2.2,0-4-0.7-5.3-2.1s-2-3.3-2-5.6c0-2.5,0.7-4.5,2.1-5.9s3.2-2.1,5.6-2.1c2.2,0,4,0.7,5.2,2.1
			s1.9,3.3,1.9,5.7c0,2.4-0.7,4.3-2,5.8S580.1,139.5,577.8,139.5z M578,125.8c-1.5,0-2.8,0.5-3.7,1.6s-1.3,2.5-1.3,4.3
			c0,1.8,0.5,3.2,1.4,4.2s2.1,1.5,3.6,1.5c1.6,0,2.7-0.5,3.6-1.5c0.8-1,1.3-2.4,1.3-4.3c0-1.9-0.4-3.3-1.3-4.3
			C580.7,126.3,579.5,125.8,578,125.8z"/>
		<path d="M588.2,138.6V136c1.3,1,2.7,1.5,4.3,1.5c2.1,0,3.2-0.7,3.2-2.1c0-0.4-0.1-0.7-0.3-1c-0.2-0.3-0.4-0.5-0.7-0.7
			c-0.3-0.2-0.7-0.4-1.1-0.6c-0.4-0.2-0.9-0.3-1.3-0.5c-0.7-0.3-1.2-0.5-1.8-0.8s-0.9-0.6-1.3-0.9c-0.3-0.3-0.6-0.7-0.8-1.2
			s-0.3-0.9-0.3-1.5c0-0.7,0.2-1.3,0.5-1.9s0.8-1,1.3-1.4s1.1-0.6,1.8-0.8c0.7-0.2,1.4-0.3,2.1-0.3c1.3,0,2.5,0.2,3.5,0.7v2.4
			c-1.1-0.7-2.4-1.1-3.8-1.1c-0.4,0-0.9,0.1-1.2,0.2s-0.7,0.2-0.9,0.4s-0.5,0.4-0.6,0.7c-0.1,0.3-0.2,0.5-0.2,0.9
			c0,0.4,0.1,0.7,0.2,1c0.1,0.3,0.3,0.5,0.6,0.7s0.6,0.4,1,0.6s0.8,0.3,1.3,0.5c0.7,0.3,1.3,0.5,1.8,0.8s1,0.6,1.3,0.9
			s0.7,0.7,0.9,1.2c0.2,0.4,0.3,1,0.3,1.6c0,0.7-0.2,1.4-0.5,1.9s-0.8,1-1.3,1.4s-1.2,0.6-1.9,0.8s-1.5,0.3-2.2,0.3
			C590.7,139.5,589.4,139.2,588.2,138.6z"/>
		<path d="M620.7,124.2l-6,15h-2.4l-5.7-15h2.6l3.8,10.9c0.3,0.8,0.5,1.5,0.5,2.1h0.1c0.1-0.8,0.3-1.4,0.5-2l4-11H620.7z"/>
		<path d="M635.3,132.3h-10.6c0,1.7,0.5,3,1.3,3.9s2,1.4,3.5,1.4c1.7,0,3.2-0.6,4.7-1.7v2.3c-1.3,1-3.1,1.4-5.2,1.4
			c-2.1,0-3.8-0.7-5-2s-1.8-3.3-1.8-5.8c0-2.3,0.7-4.2,2-5.7s3-2.2,4.9-2.2s3.5,0.6,4.6,1.9s1.6,3,1.6,5.3V132.3z M632.9,130.2
			c0-1.4-0.3-2.5-1-3.2c-0.7-0.8-1.6-1.2-2.7-1.2c-1.1,0-2.1,0.4-2.9,1.2s-1.3,1.9-1.5,3.2H632.9z"/>
		<path d="M649.2,138.5c-1.2,0.7-2.5,1-4.1,1c-2.1,0-3.9-0.7-5.2-2.1c-1.3-1.4-2-3.2-2-5.4c0-2.5,0.7-4.5,2.1-6s3.3-2.2,5.7-2.2
			c1.3,0,2.5,0.2,3.5,0.7v2.5c-1.1-0.8-2.3-1.2-3.6-1.2c-1.5,0-2.8,0.5-3.8,1.6c-1,1.1-1.5,2.5-1.5,4.3c0,1.8,0.5,3.1,1.4,4.2
			c0.9,1,2.2,1.5,3.7,1.5c1.3,0,2.5-0.4,3.7-1.3V138.5z"/>
		<path d="M659.8,139c-0.6,0.3-1.3,0.5-2.2,0.5c-2.6,0-3.9-1.5-3.9-4.4v-8.9H651v-2.1h2.6v-3.7l2.4-0.8v4.4h3.8v2.1H656v8.5
			c0,1,0.2,1.7,0.5,2.2s0.9,0.6,1.7,0.6c0.6,0,1.1-0.2,1.6-0.5V139z"/>
		<path d="M669.3,139.5c-2.2,0-4-0.7-5.3-2.1s-2-3.3-2-5.6c0-2.5,0.7-4.5,2.1-5.9s3.2-2.1,5.6-2.1c2.2,0,4,0.7,5.2,2.1
			s1.9,3.3,1.9,5.7c0,2.4-0.7,4.3-2,5.8S671.6,139.5,669.3,139.5z M669.5,125.8c-1.5,0-2.8,0.5-3.7,1.6s-1.3,2.5-1.3,4.3
			c0,1.8,0.5,3.2,1.4,4.2s2.1,1.5,3.6,1.5c1.6,0,2.7-0.5,3.6-1.5c0.8-1,1.3-2.4,1.3-4.3c0-1.9-0.4-3.3-1.3-4.3
			C672.2,126.3,671,125.8,669.5,125.8z"/>
		<path d="M688.4,126.6c-0.4-0.3-1-0.5-1.8-0.5c-1,0-1.9,0.5-2.6,1.5c-0.7,1-1,2.3-1,4v7.6h-2.4v-15h2.4v3.1h0.1
			c0.3-1.1,0.9-1.9,1.6-2.5s1.5-0.9,2.4-0.9c0.6,0,1.1,0.1,1.4,0.2V126.6z"/>
		<path d="M703.1,132.3h-10.6c0,1.7,0.5,3,1.3,3.9s2,1.4,3.5,1.4c1.7,0,3.2-0.6,4.7-1.7v2.3c-1.3,1-3.1,1.4-5.2,1.4
			c-2.1,0-3.8-0.7-5-2s-1.8-3.3-1.8-5.8c0-2.3,0.7-4.2,2-5.7s3-2.2,4.9-2.2s3.5,0.6,4.6,1.9s1.6,3,1.6,5.3V132.3z M700.6,130.2
			c0-1.4-0.3-2.5-1-3.2c-0.7-0.8-1.6-1.2-2.7-1.2c-1.1,0-2.1,0.4-2.9,1.2s-1.3,1.9-1.5,3.2H700.6z"/>
		<path d="M705.8,138.6V136c1.3,1,2.7,1.5,4.3,1.5c2.1,0,3.2-0.7,3.2-2.1c0-0.4-0.1-0.7-0.3-1c-0.2-0.3-0.4-0.5-0.7-0.7
			c-0.3-0.2-0.7-0.4-1.1-0.6c-0.4-0.2-0.9-0.3-1.3-0.5c-0.7-0.3-1.2-0.5-1.8-0.8s-0.9-0.6-1.3-0.9c-0.3-0.3-0.6-0.7-0.8-1.2
			s-0.3-0.9-0.3-1.5c0-0.7,0.2-1.3,0.5-1.9s0.8-1,1.3-1.4s1.1-0.6,1.8-0.8c0.7-0.2,1.4-0.3,2.1-0.3c1.3,0,2.5,0.2,3.5,0.7v2.4
			c-1.1-0.7-2.4-1.1-3.8-1.1c-0.4,0-0.9,0.1-1.2,0.2s-0.7,0.2-0.9,0.4s-0.5,0.4-0.6,0.7c-0.1,0.3-0.2,0.5-0.2,0.9
			c0,0.4,0.1,0.7,0.2,1c0.1,0.3,0.3,0.5,0.6,0.7s0.6,0.4,1,0.6s0.8,0.3,1.3,0.5c0.7,0.3,1.3,0.5,1.8,0.8s1,0.6,1.3,0.9
			s0.7,0.7,0.9,1.2c0.2,0.4,0.3,1,0.3,1.6c0,0.7-0.2,1.4-0.5,1.9s-0.8,1-1.3,1.4s-1.2,0.6-1.9,0.8s-1.5,0.3-2.2,0.3
			C708.3,139.5,706.9,139.2,705.8,138.6z"/>
		<path d="M23.6,175.2h-2.4v-2.4h-0.1c-1,1.8-2.5,2.7-4.6,2.7c-3.6,0-5.4-2.1-5.4-6.4v-9h2.4v8.6c0,3.2,1.2,4.7,3.6,4.7
			c1.2,0,2.1-0.4,2.9-1.3s1.1-2,1.1-3.4v-8.6h2.4V175.2z"/>
		<path d="M40.9,175.2h-2.4v-8.6c0-3.2-1.2-4.8-3.5-4.8c-1.2,0-2.2,0.5-3,1.4s-1.2,2-1.2,3.4v8.6h-2.4v-15h2.4v2.5h0.1
			c1.1-1.9,2.8-2.8,4.9-2.8c1.6,0,2.9,0.5,3.8,1.6s1.3,2.6,1.3,4.6V175.2z"/>
		<path d="M46.6,156.4c-0.4,0-0.8-0.1-1.1-0.4s-0.5-0.7-0.5-1.1s0.2-0.8,0.5-1.1s0.7-0.4,1.1-0.4c0.4,0,0.8,0.1,1.1,0.4
			s0.5,0.7,0.5,1.1c0,0.4-0.2,0.8-0.5,1.1S47.1,156.4,46.6,156.4z M47.8,175.2h-2.4v-15h2.4V175.2z"/>
		<path d="M59.6,175c-0.6,0.3-1.3,0.5-2.2,0.5c-2.6,0-3.9-1.5-3.9-4.4v-8.9h-2.6v-2.1h2.6v-3.7l2.4-0.8v4.4h3.8v2.1h-3.8v8.5
			c0,1,0.2,1.7,0.5,2.2s0.9,0.6,1.7,0.6c0.6,0,1.1-0.2,1.6-0.5V175z"/>
		<path d="M73.6,175.2h-2.4v-2.3h-0.1c-1,1.8-2.6,2.7-4.6,2.7c-1.5,0-2.7-0.4-3.5-1.2s-1.3-1.8-1.3-3.1c0-2.8,1.7-4.4,5-4.9l4.5-0.6
			c0-2.5-1-3.8-3.1-3.8c-1.8,0-3.4,0.6-4.9,1.8v-2.5c1.5-0.9,3.2-1.4,5.1-1.4c3.5,0,5.3,1.9,5.3,5.6V175.2z M71.2,167.6l-3.6,0.5
			c-1.1,0.2-2,0.4-2.5,0.8s-0.8,1.1-0.8,2.1c0,0.7,0.3,1.3,0.8,1.8s1.2,0.7,2.1,0.7c1.2,0,2.2-0.4,3-1.3s1.2-1.9,1.2-3.2V167.6z"/>
		<path d="M85.9,162.6c-0.4-0.3-1-0.5-1.8-0.5c-1,0-1.9,0.5-2.6,1.5s-1,2.3-1,4v7.6h-2.4v-15h2.4v3.1h0.1c0.3-1.1,0.9-1.9,1.6-2.5
			s1.5-0.9,2.4-0.9c0.6,0,1.1,0.1,1.4,0.2V162.6z"/>
		<path d="M89.7,156.4c-0.4,0-0.8-0.1-1.1-0.4s-0.5-0.7-0.5-1.1s0.2-0.8,0.5-1.1s0.7-0.4,1.1-0.4c0.4,0,0.8,0.1,1.1,0.4
			s0.5,0.7,0.5,1.1c0,0.4-0.2,0.8-0.5,1.1S90.2,156.4,89.7,156.4z M90.9,175.2h-2.4v-15h2.4V175.2z"/>
		<path d="M102,175.5c-2.2,0-4-0.7-5.3-2.1s-2-3.3-2-5.6c0-2.5,0.7-4.5,2.1-5.9s3.2-2.1,5.6-2.1c2.2,0,4,0.7,5.2,2.1
			s1.9,3.3,1.9,5.7c0,2.4-0.7,4.3-2,5.8S104.3,175.5,102,175.5z M102.2,161.8c-1.5,0-2.8,0.5-3.7,1.6s-1.3,2.5-1.3,4.3
			c0,1.8,0.5,3.2,1.4,4.2s2.1,1.5,3.6,1.5c1.6,0,2.7-0.5,3.6-1.5s1.3-2.4,1.3-4.3c0-1.9-0.4-3.3-1.3-4.3S103.8,161.8,102.2,161.8z"
			/>
		<path d="M112.4,174.6V172c1.3,1,2.7,1.5,4.3,1.5c2.1,0,3.2-0.7,3.2-2.1c0-0.4-0.1-0.7-0.3-1s-0.4-0.5-0.7-0.7s-0.7-0.4-1.1-0.6
			s-0.9-0.3-1.3-0.5c-0.7-0.3-1.2-0.5-1.8-0.8s-0.9-0.6-1.3-0.9s-0.6-0.7-0.8-1.2s-0.3-0.9-0.3-1.5c0-0.7,0.2-1.3,0.5-1.9
			s0.8-1,1.3-1.4s1.1-0.6,1.8-0.8s1.4-0.3,2.1-0.3c1.3,0,2.5,0.2,3.5,0.7v2.4c-1.1-0.7-2.4-1.1-3.8-1.1c-0.4,0-0.9,0.1-1.2,0.2
			s-0.7,0.2-0.9,0.4s-0.5,0.4-0.6,0.7s-0.2,0.5-0.2,0.9c0,0.4,0.1,0.7,0.2,1s0.3,0.5,0.6,0.7s0.6,0.4,1,0.6s0.8,0.3,1.3,0.5
			c0.7,0.3,1.3,0.5,1.8,0.8s1,0.6,1.3,0.9s0.7,0.7,0.9,1.2s0.3,1,0.3,1.6c0,0.7-0.2,1.4-0.5,1.9s-0.8,1-1.3,1.4s-1.2,0.6-1.9,0.8
			s-1.5,0.3-2.2,0.3C114.9,175.5,113.6,175.2,112.4,174.6z"/>
		<path d="M140.7,179.9h-2.1c-3-3.5-4.5-7.7-4.5-12.8c0-5.1,1.5-9.4,4.5-13h2.2c-3.1,3.7-4.6,8-4.6,13
			C136.2,172,137.7,176.3,140.7,179.9z"/>
		<path d="M150.5,175c-0.6,0.3-1.3,0.5-2.2,0.5c-2.6,0-3.9-1.5-3.9-4.4v-8.9h-2.6v-2.1h2.6v-3.7l2.4-0.8v4.4h3.8v2.1h-3.8v8.5
			c0,1,0.2,1.7,0.5,2.2s0.9,0.6,1.7,0.6c0.6,0,1.1-0.2,1.6-0.5V175z"/>
		<path d="M164.4,175.2H162v-2.3h-0.1c-1,1.8-2.6,2.7-4.6,2.7c-1.5,0-2.7-0.4-3.5-1.2s-1.3-1.8-1.3-3.1c0-2.8,1.7-4.4,5-4.9l4.5-0.6
			c0-2.5-1-3.8-3.1-3.8c-1.8,0-3.4,0.6-4.9,1.8v-2.5c1.5-0.9,3.2-1.4,5.1-1.4c3.5,0,5.3,1.9,5.3,5.6V175.2z M162,167.6l-3.6,0.5
			c-1.1,0.2-2,0.4-2.5,0.8S155,170,155,171c0,0.7,0.3,1.3,0.8,1.8s1.2,0.7,2.1,0.7c1.2,0,2.2-0.4,3-1.3s1.2-1.9,1.2-3.2V167.6z"/>
		<path d="M190.2,175.2h-2.4v-8.6c0-1.7-0.3-2.9-0.8-3.6s-1.4-1.1-2.6-1.1c-1,0-1.9,0.5-2.6,1.4s-1.1,2.1-1.1,3.4v8.6h-2.4v-8.9
			c0-2.9-1.1-4.4-3.4-4.4c-1.1,0-1.9,0.4-2.6,1.3s-1,2-1,3.4v8.6h-2.4v-15h2.4v2.4h0.1c1.1-1.8,2.6-2.7,4.7-2.7c1,0,1.9,0.3,2.7,0.9
			s1.3,1.3,1.6,2.2c1.1-2.1,2.8-3.1,5-3.1c3.3,0,5,2,5,6.1V175.2z"/>
		<path d="M197.2,173L197.2,173l-0.1,2.2h-2.4V153h2.4v9.8h0.1c1.2-2,2.9-3,5.2-3c1.9,0,3.4,0.7,4.5,2s1.6,3.1,1.6,5.4
			c0,2.5-0.6,4.5-1.8,6s-2.9,2.3-5,2.3C199.7,175.5,198.2,174.7,197.2,173z M197.2,166.9v2.1c0,1.2,0.4,2.3,1.2,3.2s1.8,1.3,3.1,1.3
			c1.5,0,2.6-0.6,3.4-1.7s1.2-2.7,1.2-4.6c0-1.7-0.4-3-1.2-3.9s-1.8-1.4-3.1-1.4c-1.4,0-2.5,0.5-3.4,1.5S197.2,165.5,197.2,166.9z"
			/>
		<path d="M213.6,156.4c-0.4,0-0.8-0.1-1.1-0.4s-0.5-0.7-0.5-1.1s0.2-0.8,0.5-1.1s0.7-0.4,1.1-0.4c0.4,0,0.8,0.1,1.1,0.4
			s0.5,0.7,0.5,1.1c0,0.4-0.2,0.8-0.5,1.1S214.1,156.4,213.6,156.4z M214.8,175.2h-2.4v-15h2.4V175.2z"/>
		<path d="M231.7,168.3h-10.6c0,1.7,0.5,3,1.3,3.9s2,1.4,3.5,1.4c1.7,0,3.2-0.6,4.7-1.7v2.3c-1.3,1-3.1,1.4-5.2,1.4
			c-2.1,0-3.8-0.7-5-2s-1.8-3.3-1.8-5.8c0-2.3,0.7-4.2,2-5.7s3-2.2,4.9-2.2s3.5,0.6,4.6,1.9s1.6,3,1.6,5.3V168.3z M229.3,166.2
			c0-1.4-0.3-2.5-1-3.2s-1.6-1.2-2.7-1.2c-1.1,0-2.1,0.4-2.9,1.2s-1.3,1.9-1.5,3.2H229.3z M228.9,152.5l-3.8,4.8h-1.9l3.3-4.8H228.9
			z"/>
		<path d="M247.8,175.2h-2.4v-8.6c0-3.2-1.2-4.8-3.5-4.8c-1.2,0-2.2,0.5-3,1.4s-1.2,2-1.2,3.4v8.6h-2.4v-15h2.4v2.5h0.1
			c1.1-1.9,2.8-2.8,4.9-2.8c1.6,0,2.9,0.5,3.8,1.6s1.3,2.6,1.3,4.6V175.2z"/>
		<path d="M263.1,175.2h-2.4V153h2.4V175.2z"/>
		<path d="M270.4,175.2H268V153h2.4V175.2z"/>
		<path d="M286,175.2h-2.4v-2.3h-0.1c-1,1.8-2.6,2.7-4.6,2.7c-1.5,0-2.7-0.4-3.5-1.2s-1.3-1.8-1.3-3.1c0-2.8,1.7-4.4,5-4.9l4.5-0.6
			c0-2.5-1-3.8-3.1-3.8c-1.8,0-3.4,0.6-4.9,1.8v-2.5c1.5-0.9,3.2-1.4,5.1-1.4c3.5,0,5.3,1.9,5.3,5.6V175.2z M283.6,167.6l-3.6,0.5
			c-1.1,0.2-2,0.4-2.5,0.8s-0.8,1.1-0.8,2.1c0,0.7,0.3,1.3,0.8,1.8s1.2,0.7,2.1,0.7c1.2,0,2.2-0.4,3-1.3s1.2-1.9,1.2-3.2V167.6z"/>
		<path d="M311.8,175.2h-2.4v-8.6c0-1.7-0.3-2.9-0.8-3.6s-1.4-1.1-2.6-1.1c-1,0-1.9,0.5-2.6,1.4s-1.1,2.1-1.1,3.4v8.6h-2.4v-8.9
			c0-2.9-1.1-4.4-3.4-4.4c-1.1,0-1.9,0.4-2.6,1.3s-1,2-1,3.4v8.6h-2.4v-15h2.4v2.4h0.1c1.1-1.8,2.6-2.7,4.7-2.7c1,0,1.9,0.3,2.7,0.9
			s1.3,1.3,1.6,2.2c1.1-2.1,2.8-3.1,5-3.1c3.3,0,5,2,5,6.1V175.2z"/>
		<path d="M327.1,175.2h-2.4v-2.3h-0.1c-1,1.8-2.6,2.7-4.6,2.7c-1.5,0-2.7-0.4-3.5-1.2s-1.3-1.8-1.3-3.1c0-2.8,1.7-4.4,5-4.9
			l4.5-0.6c0-2.5-1-3.8-3.1-3.8c-1.8,0-3.4,0.6-4.9,1.8v-2.5c1.5-0.9,3.2-1.4,5.1-1.4c3.5,0,5.3,1.9,5.3,5.6V175.2z M324.7,167.6
			l-3.6,0.5c-1.1,0.2-2,0.4-2.5,0.8s-0.8,1.1-0.8,2.1c0,0.7,0.3,1.3,0.8,1.8s1.2,0.7,2.1,0.7c1.2,0,2.2-0.4,3-1.3s1.2-1.9,1.2-3.2
			V167.6z"/>
		<path d="M344.4,175.2H342v-2.5h-0.1c-1.1,1.9-2.8,2.9-5.2,2.9c-1.9,0-3.4-0.7-4.5-2s-1.7-3.2-1.7-5.5c0-2.5,0.6-4.5,1.9-6
			s2.9-2.2,5-2.2c2.1,0,3.6,0.8,4.5,2.4h0.1V153h2.4V175.2z M342,168.4v-2.2c0-1.2-0.4-2.2-1.2-3.1s-1.8-1.3-3-1.3
			c-1.5,0-2.6,0.5-3.5,1.6s-1.3,2.6-1.3,4.5c0,1.7,0.4,3.1,1.2,4.1s1.9,1.5,3.2,1.5c1.3,0,2.4-0.5,3.3-1.5S342,169.9,342,168.4z"/>
		<path d="M355.5,175.5c-2.2,0-4-0.7-5.3-2.1s-2-3.3-2-5.6c0-2.5,0.7-4.5,2.1-5.9s3.2-2.1,5.6-2.1c2.2,0,4,0.7,5.2,2.1
			s1.9,3.3,1.9,5.7c0,2.4-0.7,4.3-2,5.8S357.8,175.5,355.5,175.5z M355.7,161.8c-1.5,0-2.8,0.5-3.7,1.6s-1.3,2.5-1.3,4.3
			c0,1.8,0.5,3.2,1.4,4.2s2.1,1.5,3.6,1.5c1.6,0,2.7-0.5,3.6-1.5s1.3-2.4,1.3-4.3c0-1.9-0.4-3.3-1.3-4.3S357.3,161.8,355.7,161.8z"
			/>
		<path d="M365.9,174.6V172c1.3,1,2.7,1.5,4.3,1.5c2.1,0,3.2-0.7,3.2-2.1c0-0.4-0.1-0.7-0.3-1c-0.2-0.3-0.4-0.5-0.7-0.7
			c-0.3-0.2-0.7-0.4-1.1-0.6c-0.4-0.2-0.9-0.3-1.3-0.5c-0.7-0.3-1.2-0.5-1.8-0.8c-0.5-0.3-0.9-0.6-1.3-0.9s-0.6-0.7-0.8-1.2
			s-0.3-0.9-0.3-1.5c0-0.7,0.2-1.3,0.5-1.9s0.8-1,1.3-1.4s1.1-0.6,1.8-0.8c0.7-0.2,1.4-0.3,2.1-0.3c1.3,0,2.5,0.2,3.5,0.7v2.4
			c-1.1-0.7-2.4-1.1-3.8-1.1c-0.4,0-0.9,0.1-1.2,0.2s-0.7,0.2-0.9,0.4s-0.5,0.4-0.6,0.7c-0.1,0.3-0.2,0.5-0.2,0.9
			c0,0.4,0.1,0.7,0.2,1c0.1,0.3,0.3,0.5,0.6,0.7s0.6,0.4,1,0.6s0.8,0.3,1.3,0.5c0.7,0.3,1.3,0.5,1.8,0.8s1,0.6,1.3,0.9
			s0.7,0.7,0.9,1.2c0.2,0.4,0.3,1,0.3,1.6c0,0.7-0.2,1.4-0.5,1.9s-0.8,1-1.3,1.4s-1.2,0.6-1.9,0.8s-1.5,0.3-2.2,0.3
			C368.4,175.5,367.1,175.2,365.9,174.6z"/>
		<path d="M399.7,160.2l-6,15h-2.4l-5.7-15h2.6l3.8,10.9c0.3,0.8,0.5,1.5,0.5,2.1h0.1c0.1-0.8,0.3-1.4,0.5-2l4-11H399.7z"/>
		<path d="M414.3,168.3h-10.6c0,1.7,0.5,3,1.3,3.9s2,1.4,3.5,1.4c1.7,0,3.2-0.6,4.7-1.7v2.3c-1.3,1-3.1,1.4-5.2,1.4
			c-2.1,0-3.8-0.7-5-2s-1.8-3.3-1.8-5.8c0-2.3,0.7-4.2,2-5.7s3-2.2,4.9-2.2s3.5,0.6,4.6,1.9s1.6,3,1.6,5.3V168.3z M411.9,166.2
			c0-1.4-0.3-2.5-1-3.2c-0.7-0.8-1.6-1.2-2.7-1.2c-1.1,0-2.1,0.4-2.9,1.2s-1.3,1.9-1.5,3.2H411.9z"/>
		<path d="M428.2,174.5c-1.2,0.7-2.5,1-4.1,1c-2.1,0-3.9-0.7-5.2-2.1c-1.3-1.4-2-3.2-2-5.4c0-2.5,0.7-4.5,2.1-6s3.3-2.2,5.7-2.2
			c1.3,0,2.5,0.2,3.5,0.7v2.5c-1.1-0.8-2.3-1.2-3.6-1.2c-1.5,0-2.8,0.5-3.8,1.6c-1,1.1-1.5,2.5-1.5,4.3c0,1.8,0.5,3.1,1.4,4.2
			c0.9,1,2.2,1.5,3.7,1.5c1.3,0,2.5-0.4,3.7-1.3V174.5z"/>
		<path d="M438.8,175c-0.6,0.3-1.3,0.5-2.2,0.5c-2.6,0-3.9-1.5-3.9-4.4v-8.9H430v-2.1h2.6v-3.7l2.4-0.8v4.4h3.8v2.1H435v8.5
			c0,1,0.2,1.7,0.5,2.2s0.9,0.6,1.7,0.6c0.6,0,1.1-0.2,1.6-0.5V175z"/>
		<path d="M448.3,175.5c-2.2,0-4-0.7-5.3-2.1s-2-3.3-2-5.6c0-2.5,0.7-4.5,2.1-5.9s3.2-2.1,5.6-2.1c2.2,0,4,0.7,5.2,2.1
			s1.9,3.3,1.9,5.7c0,2.4-0.7,4.3-2,5.8S450.5,175.5,448.3,175.5z M448.4,161.8c-1.5,0-2.8,0.5-3.7,1.6s-1.3,2.5-1.3,4.3
			c0,1.8,0.5,3.2,1.4,4.2s2.1,1.5,3.6,1.5c1.6,0,2.7-0.5,3.6-1.5c0.8-1,1.3-2.4,1.3-4.3c0-1.9-0.4-3.3-1.3-4.3
			C451.2,162.3,450,161.8,448.4,161.8z"/>
		<path d="M467.4,162.6c-0.4-0.3-1-0.5-1.8-0.5c-1,0-1.9,0.5-2.6,1.5c-0.7,1-1,2.3-1,4v7.6h-2.4v-15h2.4v3.1h0.1
			c0.3-1.1,0.9-1.9,1.6-2.5s1.5-0.9,2.4-0.9c0.6,0,1.1,0.1,1.4,0.2V162.6z"/>
		<path d="M482.1,168.3h-10.6c0,1.7,0.5,3,1.3,3.9s2,1.4,3.5,1.4c1.7,0,3.2-0.6,4.7-1.7v2.3c-1.3,1-3.1,1.4-5.2,1.4
			c-2.1,0-3.8-0.7-5-2s-1.8-3.3-1.8-5.8c0-2.3,0.7-4.2,2-5.7s3-2.2,4.9-2.2s3.5,0.6,4.6,1.9s1.6,3,1.6,5.3V168.3z M479.6,166.2
			c0-1.4-0.3-2.5-1-3.2c-0.7-0.8-1.6-1.2-2.7-1.2c-1.1,0-2.1,0.4-2.9,1.2s-1.3,1.9-1.5,3.2H479.6z"/>
		<path d="M484.8,174.6V172c1.3,1,2.7,1.5,4.3,1.5c2.1,0,3.2-0.7,3.2-2.1c0-0.4-0.1-0.7-0.3-1c-0.2-0.3-0.4-0.5-0.7-0.7
			c-0.3-0.2-0.7-0.4-1.1-0.6c-0.4-0.2-0.9-0.3-1.3-0.5c-0.7-0.3-1.2-0.5-1.8-0.8s-0.9-0.6-1.3-0.9c-0.3-0.3-0.6-0.7-0.8-1.2
			s-0.3-0.9-0.3-1.5c0-0.7,0.2-1.3,0.5-1.9s0.8-1,1.3-1.4s1.1-0.6,1.8-0.8c0.7-0.2,1.4-0.3,2.1-0.3c1.3,0,2.5,0.2,3.5,0.7v2.4
			c-1.1-0.7-2.4-1.1-3.8-1.1c-0.4,0-0.9,0.1-1.2,0.2s-0.7,0.2-0.9,0.4s-0.5,0.4-0.6,0.7c-0.1,0.3-0.2,0.5-0.2,0.9
			c0,0.4,0.1,0.7,0.2,1c0.1,0.3,0.3,0.5,0.6,0.7s0.6,0.4,1,0.6s0.8,0.3,1.3,0.5c0.7,0.3,1.3,0.5,1.8,0.8s1,0.6,1.3,0.9
			s0.7,0.7,0.9,1.2c0.2,0.4,0.3,1,0.3,1.6c0,0.7-0.2,1.4-0.5,1.9s-0.8,1-1.3,1.4s-1.2,0.6-1.9,0.8s-1.5,0.3-2.2,0.3
			C487.3,175.5,485.9,175.2,484.8,174.6z"/>
		<path d="M517,174.5c-1.2,0.7-2.5,1-4.1,1c-2.1,0-3.9-0.7-5.2-2.1c-1.3-1.4-2-3.2-2-5.4c0-2.5,0.7-4.5,2.1-6s3.3-2.2,5.7-2.2
			c1.3,0,2.5,0.2,3.5,0.7v2.5c-1.1-0.8-2.3-1.2-3.6-1.2c-1.5,0-2.8,0.5-3.8,1.6c-1,1.1-1.5,2.5-1.5,4.3c0,1.8,0.5,3.1,1.4,4.2
			c0.9,1,2.2,1.5,3.7,1.5c1.3,0,2.5-0.4,3.7-1.3V174.5z"/>
		<path d="M526.9,175.5c-2.2,0-4-0.7-5.3-2.1s-2-3.3-2-5.6c0-2.5,0.7-4.5,2.1-5.9s3.2-2.1,5.6-2.1c2.2,0,4,0.7,5.2,2.1
			s1.9,3.3,1.9,5.7c0,2.4-0.7,4.3-2,5.8S529.2,175.5,526.9,175.5z M527.1,161.8c-1.5,0-2.8,0.5-3.7,1.6s-1.3,2.5-1.3,4.3
			c0,1.8,0.5,3.2,1.4,4.2s2.1,1.5,3.6,1.5c1.6,0,2.7-0.5,3.6-1.5c0.8-1,1.3-2.4,1.3-4.3c0-1.9-0.4-3.3-1.3-4.3
			C529.8,162.3,528.6,161.8,527.1,161.8z"/>
		<path d="M559.5,175.2h-2.4v-8.6c0-1.7-0.3-2.9-0.8-3.6c-0.5-0.7-1.4-1.1-2.6-1.1c-1,0-1.9,0.5-2.6,1.4c-0.7,0.9-1.1,2.1-1.1,3.4
			v8.6h-2.4v-8.9c0-2.9-1.1-4.4-3.4-4.4c-1.1,0-1.9,0.4-2.6,1.3s-1,2-1,3.4v8.6h-2.4v-15h2.4v2.4h0.1c1.1-1.8,2.6-2.7,4.7-2.7
			c1,0,1.9,0.3,2.7,0.9s1.3,1.3,1.6,2.2c1.1-2.1,2.8-3.1,5-3.1c3.3,0,5,2,5,6.1V175.2z"/>
		<path d="M566.5,173L566.5,173l-0.1,9.1h-2.4v-21.9h2.4v2.6h0.1c1.2-2,2.9-3,5.2-3c1.9,0,3.4,0.7,4.5,2s1.6,3.1,1.6,5.4
			c0,2.5-0.6,4.5-1.8,6s-2.9,2.3-5,2.3C569.1,175.5,567.6,174.7,566.5,173z M566.5,166.9v2.1c0,1.2,0.4,2.3,1.2,3.2
			c0.8,0.9,1.8,1.3,3.1,1.3c1.5,0,2.6-0.6,3.4-1.7s1.2-2.7,1.2-4.6c0-1.7-0.4-3-1.2-3.9s-1.8-1.4-3.1-1.4c-1.4,0-2.5,0.5-3.4,1.5
			S566.5,165.5,566.5,166.9z"/>
		<path d="M588,175.5c-2.2,0-4-0.7-5.3-2.1s-2-3.3-2-5.6c0-2.5,0.7-4.5,2.1-5.9s3.2-2.1,5.6-2.1c2.2,0,4,0.7,5.2,2.1
			s1.9,3.3,1.9,5.7c0,2.4-0.7,4.3-2,5.8S590.2,175.5,588,175.5z M588.1,161.8c-1.5,0-2.8,0.5-3.7,1.6s-1.3,2.5-1.3,4.3
			c0,1.8,0.5,3.2,1.4,4.2s2.1,1.5,3.6,1.5c1.6,0,2.7-0.5,3.6-1.5c0.8-1,1.3-2.4,1.3-4.3c0-1.9-0.4-3.3-1.3-4.3
			C590.9,162.3,589.7,161.8,588.1,161.8z"/>
		<path d="M611.7,175.2h-2.4v-8.6c0-3.2-1.2-4.8-3.5-4.8c-1.2,0-2.2,0.5-3,1.4c-0.8,0.9-1.2,2-1.2,3.4v8.6h-2.4v-15h2.4v2.5h0.1
			c1.1-1.9,2.8-2.8,4.9-2.8c1.6,0,2.9,0.5,3.8,1.6s1.3,2.6,1.3,4.6V175.2z"/>
		<path d="M628.3,168.3h-10.6c0,1.7,0.5,3,1.3,3.9s2,1.4,3.5,1.4c1.7,0,3.2-0.6,4.7-1.7v2.3c-1.3,1-3.1,1.4-5.2,1.4
			c-2.1,0-3.8-0.7-5-2s-1.8-3.3-1.8-5.8c0-2.3,0.7-4.2,2-5.7s3-2.2,4.9-2.2s3.5,0.6,4.6,1.9s1.6,3,1.6,5.3V168.3z M625.8,166.2
			c0-1.4-0.3-2.5-1-3.2c-0.7-0.8-1.6-1.2-2.7-1.2c-1.1,0-2.1,0.4-2.9,1.2s-1.3,1.9-1.5,3.2H625.8z"/>
		<path d="M644.4,175.2H642v-8.6c0-3.2-1.2-4.8-3.5-4.8c-1.2,0-2.2,0.5-3,1.4c-0.8,0.9-1.2,2-1.2,3.4v8.6h-2.4v-15h2.4v2.5h0.1
			c1.1-1.9,2.8-2.8,4.9-2.8c1.6,0,2.9,0.5,3.8,1.6s1.3,2.6,1.3,4.6V175.2z"/>
		<path d="M655.9,175c-0.6,0.3-1.3,0.5-2.2,0.5c-2.6,0-3.9-1.5-3.9-4.4v-8.9h-2.6v-2.1h2.6v-3.7l2.4-0.8v4.4h3.8v2.1h-3.8v8.5
			c0,1,0.2,1.7,0.5,2.2s0.9,0.6,1.7,0.6c0.6,0,1.1-0.2,1.6-0.5V175z"/>
		<path d="M671.1,168.3h-10.6c0,1.7,0.5,3,1.3,3.9s2,1.4,3.5,1.4c1.7,0,3.2-0.6,4.7-1.7v2.3c-1.3,1-3.1,1.4-5.2,1.4
			c-2.1,0-3.8-0.7-5-2s-1.8-3.3-1.8-5.8c0-2.3,0.7-4.2,2-5.7s3-2.2,4.9-2.2s3.5,0.6,4.6,1.9s1.6,3,1.6,5.3V168.3z M668.7,166.2
			c0-1.4-0.3-2.5-1-3.2c-0.7-0.8-1.6-1.2-2.7-1.2c-1.1,0-2.1,0.4-2.9,1.2s-1.3,1.9-1.5,3.2H668.7z"/>
		<path d="M673.9,174.6V172c1.3,1,2.7,1.5,4.3,1.5c2.1,0,3.2-0.7,3.2-2.1c0-0.4-0.1-0.7-0.3-1c-0.2-0.3-0.4-0.5-0.7-0.7
			c-0.3-0.2-0.7-0.4-1.1-0.6c-0.4-0.2-0.9-0.3-1.3-0.5c-0.7-0.3-1.2-0.5-1.8-0.8s-0.9-0.6-1.3-0.9c-0.3-0.3-0.6-0.7-0.8-1.2
			s-0.3-0.9-0.3-1.5c0-0.7,0.2-1.3,0.5-1.9s0.8-1,1.3-1.4s1.1-0.6,1.8-0.8c0.7-0.2,1.4-0.3,2.1-0.3c1.3,0,2.5,0.2,3.5,0.7v2.4
			c-1.1-0.7-2.4-1.1-3.8-1.1c-0.4,0-0.9,0.1-1.2,0.2s-0.7,0.2-0.9,0.4s-0.5,0.4-0.6,0.7c-0.1,0.3-0.2,0.5-0.2,0.9
			c0,0.4,0.1,0.7,0.2,1c0.1,0.3,0.3,0.5,0.6,0.7s0.6,0.4,1,0.6s0.8,0.3,1.3,0.5c0.7,0.3,1.3,0.5,1.8,0.8s1,0.6,1.3,0.9
			s0.7,0.7,0.9,1.2c0.2,0.4,0.3,1,0.3,1.6c0,0.7-0.2,1.4-0.5,1.9s-0.8,1-1.3,1.4s-1.2,0.6-1.9,0.8s-1.5,0.3-2.2,0.3
			C676.3,175.5,675,175.2,673.9,174.6z"/>
		<path d="M687.6,179.9h-2.1c3-3.7,4.6-7.9,4.6-12.8c0-4.9-1.5-9.3-4.6-13h2.2c3,3.6,4.6,7.9,4.6,13
			C692.1,172.2,690.6,176.5,687.6,179.9z"/>
		<path d="M716.9,160.2l-6.9,17.4c-1.2,3.1-3,4.7-5.2,4.7c-0.6,0-1.1-0.1-1.6-0.2v-2.2c0.5,0.2,1,0.3,1.4,0.3c1.2,0,2.1-0.7,2.7-2.2
			l1.2-2.8l-5.9-15h2.7l4.1,11.5c0,0.1,0.2,0.5,0.3,1.1h0.1c0-0.2,0.1-0.6,0.3-1.1l4.3-11.6H716.9z"/>
		<path d="M13.8,211.2h-2.4V189h2.4V211.2z"/>
		<path d="M29.4,211.2H27v-2.3H27c-1,1.8-2.6,2.7-4.6,2.7c-1.5,0-2.7-0.4-3.5-1.2s-1.3-1.8-1.3-3.1c0-2.8,1.7-4.4,5-4.9l4.5-0.6
			c0-2.5-1-3.8-3.1-3.8c-1.8,0-3.4,0.6-4.9,1.8v-2.5c1.5-0.9,3.2-1.4,5.1-1.4c3.5,0,5.3,1.9,5.3,5.6V211.2z M27,203.6l-3.6,0.5
			c-1.1,0.2-2,0.4-2.5,0.8S20,206,20,207c0,0.7,0.3,1.3,0.8,1.8s1.2,0.7,2.1,0.7c1.2,0,2.2-0.4,3-1.3s1.2-1.9,1.2-3.2V203.6z"/>
		<path d="M33.1,210.6V208c1.3,1,2.7,1.5,4.3,1.5c2.1,0,3.2-0.7,3.2-2.1c0-0.4-0.1-0.7-0.3-1s-0.4-0.5-0.7-0.7s-0.7-0.4-1.1-0.6
			s-0.9-0.3-1.3-0.5c-0.7-0.3-1.2-0.5-1.8-0.8s-0.9-0.6-1.3-0.9s-0.6-0.7-0.8-1.2s-0.3-0.9-0.3-1.5c0-0.7,0.2-1.3,0.5-1.9
			s0.8-1,1.3-1.4s1.1-0.6,1.8-0.8s1.4-0.3,2.1-0.3c1.3,0,2.5,0.2,3.5,0.7v2.4c-1.1-0.7-2.4-1.1-3.8-1.1c-0.4,0-0.9,0.1-1.2,0.2
			s-0.7,0.2-0.9,0.4s-0.5,0.4-0.6,0.7s-0.2,0.5-0.2,0.9c0,0.4,0.1,0.7,0.2,1s0.3,0.5,0.6,0.7s0.6,0.4,1,0.6s0.8,0.3,1.3,0.5
			c0.7,0.3,1.3,0.5,1.8,0.8s1,0.6,1.3,0.9s0.7,0.7,0.9,1.2s0.3,1,0.3,1.6c0,0.7-0.2,1.4-0.5,1.9s-0.8,1-1.3,1.4s-1.2,0.6-1.9,0.8
			s-1.5,0.3-2.2,0.3C35.5,211.5,34.2,211.2,33.1,210.6z"/>
		<path d="M66.8,210.5c-1.2,0.7-2.5,1-4.1,1c-2.1,0-3.9-0.7-5.2-2.1s-2-3.2-2-5.4c0-2.5,0.7-4.5,2.1-6s3.3-2.2,5.7-2.2
			c1.3,0,2.5,0.2,3.5,0.7v2.5c-1.1-0.8-2.3-1.2-3.6-1.2c-1.5,0-2.8,0.5-3.8,1.6S58,202,58,203.8c0,1.8,0.5,3.1,1.4,4.2
			s2.2,1.5,3.7,1.5c1.3,0,2.5-0.4,3.7-1.3V210.5z"/>
		<path d="M76.7,211.5c-2.2,0-4-0.7-5.3-2.1s-2-3.3-2-5.6c0-2.5,0.7-4.5,2.1-5.9s3.2-2.1,5.6-2.1c2.2,0,4,0.7,5.2,2.1
			s1.9,3.3,1.9,5.7c0,2.4-0.7,4.3-2,5.8S79,211.5,76.7,211.5z M76.9,197.8c-1.5,0-2.8,0.5-3.7,1.6s-1.3,2.5-1.3,4.3
			c0,1.8,0.5,3.2,1.4,4.2s2.1,1.5,3.6,1.5c1.6,0,2.7-0.5,3.6-1.5s1.3-2.4,1.3-4.3c0-1.9-0.4-3.3-1.3-4.3S78.4,197.8,76.9,197.8z"/>
		<path d="M109.3,211.2h-2.4v-8.6c0-1.7-0.3-2.9-0.8-3.6s-1.4-1.1-2.6-1.1c-1,0-1.9,0.5-2.6,1.4s-1.1,2.1-1.1,3.4v8.6h-2.4v-8.9
			c0-2.9-1.1-4.4-3.4-4.4c-1.1,0-1.9,0.4-2.6,1.3s-1,2-1,3.4v8.6H88v-15h2.4v2.4h0.1c1.1-1.8,2.6-2.7,4.7-2.7c1,0,1.9,0.3,2.7,0.9
			s1.3,1.3,1.6,2.2c1.1-2.1,2.8-3.1,5-3.1c3.3,0,5,2,5,6.1V211.2z"/>
		<path d="M116.3,209L116.3,209l-0.1,9.1h-2.4v-21.9h2.4v2.6h0.1c1.2-2,2.9-3,5.2-3c1.9,0,3.4,0.7,4.5,2s1.6,3.1,1.6,5.4
			c0,2.5-0.6,4.5-1.8,6s-2.9,2.3-5,2.3C118.9,211.5,117.4,210.7,116.3,209z M116.2,202.9v2.1c0,1.2,0.4,2.3,1.2,3.2s1.8,1.3,3.1,1.3
			c1.5,0,2.6-0.6,3.4-1.7s1.2-2.7,1.2-4.6c0-1.7-0.4-3-1.2-3.9s-1.8-1.4-3.1-1.4c-1.4,0-2.5,0.5-3.4,1.5S116.2,201.5,116.2,202.9z"
			/>
		<path d="M137.7,211.5c-2.2,0-4-0.7-5.3-2.1s-2-3.3-2-5.6c0-2.5,0.7-4.5,2.1-5.9s3.2-2.1,5.6-2.1c2.2,0,4,0.7,5.2,2.1
			s1.9,3.3,1.9,5.7c0,2.4-0.7,4.3-2,5.8S140,211.5,137.7,211.5z M137.9,197.8c-1.5,0-2.8,0.5-3.7,1.6s-1.3,2.5-1.3,4.3
			c0,1.8,0.5,3.2,1.4,4.2s2.1,1.5,3.6,1.5c1.6,0,2.7-0.5,3.6-1.5s1.3-2.4,1.3-4.3c0-1.9-0.4-3.3-1.3-4.3S139.5,197.8,137.9,197.8z"
			/>
		<path d="M161.5,211.2h-2.4v-8.6c0-3.2-1.2-4.8-3.5-4.8c-1.2,0-2.2,0.5-3,1.4s-1.2,2-1.2,3.4v8.6h-2.4v-15h2.4v2.5h0.1
			c1.1-1.9,2.8-2.8,4.9-2.8c1.6,0,2.9,0.5,3.8,1.6s1.3,2.6,1.3,4.6V211.2z"/>
		<path d="M178.1,204.3h-10.6c0,1.7,0.5,3,1.3,3.9s2,1.4,3.5,1.4c1.7,0,3.2-0.6,4.7-1.7v2.3c-1.3,1-3.1,1.4-5.2,1.4
			c-2.1,0-3.8-0.7-5-2s-1.8-3.3-1.8-5.8c0-2.3,0.7-4.2,2-5.7s3-2.2,4.9-2.2s3.5,0.6,4.6,1.9s1.6,3,1.6,5.3V204.3z M175.6,202.2
			c0-1.4-0.3-2.5-1-3.2s-1.6-1.2-2.7-1.2c-1.1,0-2.1,0.4-2.9,1.2s-1.3,1.9-1.5,3.2H175.6z"/>
		<path d="M194.2,211.2h-2.4v-8.6c0-3.2-1.2-4.8-3.5-4.8c-1.2,0-2.2,0.5-3,1.4s-1.2,2-1.2,3.4v8.6h-2.4v-15h2.4v2.5h0.1
			c1.1-1.9,2.8-2.8,4.9-2.8c1.6,0,2.9,0.5,3.8,1.6s1.3,2.6,1.3,4.6V211.2z"/>
		<path d="M205.7,211c-0.6,0.3-1.3,0.5-2.2,0.5c-2.6,0-3.9-1.5-3.9-4.4v-8.9h-2.6v-2.1h2.6v-3.7l2.4-0.8v4.4h3.8v2.1h-3.8v8.5
			c0,1,0.2,1.7,0.5,2.2s0.9,0.6,1.7,0.6c0.6,0,1.1-0.2,1.6-0.5V211z"/>
		<path d="M220.9,204.3h-10.6c0,1.7,0.5,3,1.3,3.9s2,1.4,3.5,1.4c1.7,0,3.2-0.6,4.7-1.7v2.3c-1.3,1-3.1,1.4-5.2,1.4
			c-2.1,0-3.8-0.7-5-2s-1.8-3.3-1.8-5.8c0-2.3,0.7-4.2,2-5.7s3-2.2,4.9-2.2s3.5,0.6,4.6,1.9s1.6,3,1.6,5.3V204.3z M218.5,202.2
			c0-1.4-0.3-2.5-1-3.2s-1.6-1.2-2.7-1.2c-1.1,0-2.1,0.4-2.9,1.2s-1.3,1.9-1.5,3.2H218.5z"/>
		<path d="M223.6,210.6V208c1.3,1,2.7,1.5,4.3,1.5c2.1,0,3.2-0.7,3.2-2.1c0-0.4-0.1-0.7-0.3-1s-0.4-0.5-0.7-0.7s-0.7-0.4-1.1-0.6
			s-0.9-0.3-1.3-0.5c-0.7-0.3-1.2-0.5-1.8-0.8s-0.9-0.6-1.3-0.9s-0.6-0.7-0.8-1.2s-0.3-0.9-0.3-1.5c0-0.7,0.2-1.3,0.5-1.9
			s0.8-1,1.3-1.4s1.1-0.6,1.8-0.8s1.4-0.3,2.1-0.3c1.3,0,2.5,0.2,3.5,0.7v2.4c-1.1-0.7-2.4-1.1-3.8-1.1c-0.4,0-0.9,0.1-1.2,0.2
			s-0.7,0.2-0.9,0.4s-0.5,0.4-0.6,0.7s-0.2,0.5-0.2,0.9c0,0.4,0.1,0.7,0.2,1s0.3,0.5,0.6,0.7s0.6,0.4,1,0.6s0.8,0.3,1.3,0.5
			c0.7,0.3,1.3,0.5,1.8,0.8s1,0.6,1.3,0.9s0.7,0.7,0.9,1.2s0.3,1,0.3,1.6c0,0.7-0.2,1.4-0.5,1.9s-0.8,1-1.3,1.4s-1.2,0.6-1.9,0.8
			s-1.5,0.3-2.2,0.3C226.1,211.5,224.8,211.2,223.6,210.6z"/>
		<path d="M260,211.2h-2.4v-2.5h-0.1c-1.1,1.9-2.8,2.9-5.2,2.9c-1.9,0-3.4-0.7-4.5-2s-1.7-3.2-1.7-5.5c0-2.5,0.6-4.5,1.9-6
			s2.9-2.2,5-2.2c2.1,0,3.6,0.8,4.5,2.4h0.1V189h2.4V211.2z M257.5,204.4v-2.2c0-1.2-0.4-2.2-1.2-3.1s-1.8-1.3-3-1.3
			c-1.5,0-2.6,0.5-3.5,1.6s-1.3,2.6-1.3,4.5c0,1.7,0.4,3.1,1.2,4.1s1.9,1.5,3.2,1.5c1.3,0,2.4-0.5,3.3-1.5S257.5,205.9,257.5,204.4z
			"/>
		<path d="M276.9,204.3h-10.6c0,1.7,0.5,3,1.3,3.9s2,1.4,3.5,1.4c1.7,0,3.2-0.6,4.7-1.7v2.3c-1.3,1-3.1,1.4-5.2,1.4
			c-2.1,0-3.8-0.7-5-2s-1.8-3.3-1.8-5.8c0-2.3,0.7-4.2,2-5.7s3-2.2,4.9-2.2s3.5,0.6,4.6,1.9s1.6,3,1.6,5.3V204.3z M274.4,202.2
			c0-1.4-0.3-2.5-1-3.2s-1.6-1.2-2.7-1.2c-1.1,0-2.1,0.4-2.9,1.2s-1.3,1.9-1.5,3.2H274.4z"/>
		<path d="M302.5,211.2h-2.4v-2.4H300c-1,1.8-2.5,2.7-4.6,2.7c-3.6,0-5.4-2.1-5.4-6.4v-9h2.4v8.6c0,3.2,1.2,4.7,3.6,4.7
			c1.2,0,2.1-0.4,2.9-1.3s1.1-2,1.1-3.4v-8.6h2.4V211.2z"/>
		<path d="M319.8,211.2h-2.4v-8.6c0-3.2-1.2-4.8-3.5-4.8c-1.2,0-2.2,0.5-3,1.4s-1.2,2-1.2,3.4v8.6h-2.4v-15h2.4v2.5h0.1
			c1.1-1.9,2.8-2.8,4.9-2.8c1.6,0,2.9,0.5,3.8,1.6s1.3,2.6,1.3,4.6V211.2z"/>
		<path d="M346,196.2l-6,15h-2.4l-5.7-15h2.6l3.8,10.9c0.3,0.8,0.5,1.5,0.5,2.1h0.1c0.1-0.8,0.3-1.4,0.5-2l4-11H346z"/>
		<path d="M360.6,204.3H350c0,1.7,0.5,3,1.3,3.9s2,1.4,3.5,1.4c1.7,0,3.2-0.6,4.7-1.7v2.3c-1.3,1-3.1,1.4-5.2,1.4
			c-2.1,0-3.8-0.7-5-2s-1.8-3.3-1.8-5.8c0-2.3,0.7-4.2,2-5.7s3-2.2,4.9-2.2s3.5,0.6,4.6,1.9s1.6,3,1.6,5.3V204.3z M358.2,202.2
			c0-1.4-0.3-2.5-1-3.2s-1.6-1.2-2.7-1.2c-1.1,0-2.1,0.4-2.9,1.2s-1.3,1.9-1.5,3.2H358.2z"/>
		<path d="M374.5,210.5c-1.2,0.7-2.5,1-4.1,1c-2.1,0-3.9-0.7-5.2-2.1s-2-3.2-2-5.4c0-2.5,0.7-4.5,2.1-6s3.3-2.2,5.7-2.2
			c1.3,0,2.5,0.2,3.5,0.7v2.5c-1.1-0.8-2.3-1.2-3.6-1.2c-1.5,0-2.8,0.5-3.8,1.6s-1.5,2.5-1.5,4.3c0,1.8,0.5,3.1,1.4,4.2
			s2.2,1.5,3.7,1.5c1.3,0,2.5-0.4,3.7-1.3V210.5z"/>
		<path d="M385.1,211c-0.6,0.3-1.3,0.5-2.2,0.5c-2.6,0-3.9-1.5-3.9-4.4v-8.9h-2.6v-2.1h2.6v-3.7l2.4-0.8v4.4h3.8v2.1h-3.8v8.5
			c0,1,0.2,1.7,0.5,2.2s0.9,0.6,1.7,0.6c0.6,0,1.1-0.2,1.6-0.5V211z"/>
		<path d="M394.6,211.5c-2.2,0-4-0.7-5.3-2.1s-2-3.3-2-5.6c0-2.5,0.7-4.5,2.1-5.9s3.2-2.1,5.6-2.1c2.2,0,4,0.7,5.2,2.1
			s1.9,3.3,1.9,5.7c0,2.4-0.7,4.3-2,5.8S396.8,211.5,394.6,211.5z M394.7,197.8c-1.5,0-2.8,0.5-3.7,1.6s-1.3,2.5-1.3,4.3
			c0,1.8,0.5,3.2,1.4,4.2s2.1,1.5,3.6,1.5c1.6,0,2.7-0.5,3.6-1.5c0.8-1,1.3-2.4,1.3-4.3c0-1.9-0.4-3.3-1.3-4.3
			C397.5,198.3,396.3,197.8,394.7,197.8z"/>
		<path d="M413.7,198.6c-0.4-0.3-1-0.5-1.8-0.5c-1,0-1.9,0.5-2.6,1.5c-0.7,1-1,2.3-1,4v7.6h-2.4v-15h2.4v3.1h0.1
			c0.3-1.1,0.9-1.9,1.6-2.5s1.5-0.9,2.4-0.9c0.6,0,1.1,0.1,1.4,0.2V198.6z"/>
		<path d="M439,211.2h-2.4v-2.5h-0.1c-1.1,1.9-2.8,2.9-5.2,2.9c-1.9,0-3.4-0.7-4.5-2c-1.1-1.3-1.7-3.2-1.7-5.5c0-2.5,0.6-4.5,1.9-6
			s2.9-2.2,5-2.2c2.1,0,3.6,0.8,4.5,2.4h0.1V189h2.4V211.2z M436.6,204.4v-2.2c0-1.2-0.4-2.2-1.2-3.1s-1.8-1.3-3-1.3
			c-1.5,0-2.6,0.5-3.5,1.6s-1.3,2.6-1.3,4.5c0,1.7,0.4,3.1,1.2,4.1c0.8,1,1.9,1.5,3.2,1.5c1.3,0,2.4-0.5,3.3-1.5
			C436.1,207.1,436.6,205.9,436.6,204.4z"/>
		<path d="M454.6,211.2h-2.4v-2.3h-0.1c-1,1.8-2.6,2.7-4.6,2.7c-1.5,0-2.7-0.4-3.5-1.2c-0.8-0.8-1.3-1.8-1.3-3.1
			c0-2.8,1.7-4.4,5-4.9l4.5-0.6c0-2.5-1-3.8-3.1-3.8c-1.8,0-3.4,0.6-4.9,1.8v-2.5c1.5-0.9,3.2-1.4,5.1-1.4c3.5,0,5.3,1.9,5.3,5.6
			V211.2z M452.2,203.6l-3.6,0.5c-1.1,0.2-2,0.4-2.5,0.8s-0.8,1.1-0.8,2.1c0,0.7,0.3,1.3,0.8,1.8s1.2,0.7,2.1,0.7
			c1.2,0,2.2-0.4,3-1.3c0.8-0.8,1.2-1.9,1.2-3.2V203.6z"/>
		<path d="M471.9,211.2h-2.4v-2.5h-0.1c-1.1,1.9-2.8,2.9-5.2,2.9c-1.9,0-3.4-0.7-4.5-2c-1.1-1.3-1.7-3.2-1.7-5.5
			c0-2.5,0.6-4.5,1.9-6s2.9-2.2,5-2.2c2.1,0,3.6,0.8,4.5,2.4h0.1V189h2.4V211.2z M469.5,204.4v-2.2c0-1.2-0.4-2.2-1.2-3.1
			s-1.8-1.3-3-1.3c-1.5,0-2.6,0.5-3.5,1.6s-1.3,2.6-1.3,4.5c0,1.7,0.4,3.1,1.2,4.1c0.8,1,1.9,1.5,3.2,1.5c1.3,0,2.4-0.5,3.3-1.5
			C469.1,207.1,469.5,205.9,469.5,204.4z"/>
		<path d="M483,211.5c-2.2,0-4-0.7-5.3-2.1s-2-3.3-2-5.6c0-2.5,0.7-4.5,2.1-5.9s3.2-2.1,5.6-2.1c2.2,0,4,0.7,5.2,2.1
			s1.9,3.3,1.9,5.7c0,2.4-0.7,4.3-2,5.8S485.3,211.5,483,211.5z M483.2,197.8c-1.5,0-2.8,0.5-3.7,1.6s-1.3,2.5-1.3,4.3
			c0,1.8,0.5,3.2,1.4,4.2s2.1,1.5,3.6,1.5c1.6,0,2.7-0.5,3.6-1.5c0.8-1,1.3-2.4,1.3-4.3c0-1.9-0.4-3.3-1.3-4.3
			C485.9,198.3,484.8,197.8,483.2,197.8z"/>
		<path d="M510.5,215.9h-2.1c-3-3.5-4.5-7.7-4.5-12.8c0-5.1,1.5-9.4,4.5-13h2.2c-3.1,3.7-4.6,8-4.6,13
			C505.9,208,507.5,212.3,510.5,215.9z"/>
		<path d="M522.3,211.2v-0.8c1.9-0.2,2.2-0.5,1.8-1.7c-0.4-1.2-1-2.7-1.6-4.6H516c-0.5,1.3-0.9,2.5-1.3,3.7c-0.7,2-0.2,2.2,2.2,2.5
			v0.8h-6.9v-0.8c1.9-0.2,2.4-0.5,3.4-3.1l6.2-15.8l1-0.2c1.9,5.1,4,10.8,5.9,16c1,2.6,1.2,2.8,3.4,3.1v0.8H522.3z M519.3,195.2
			c-1,2.6-2,5.3-2.9,7.7h5.6L519.3,195.2z"/>
		<path d="M543.9,209L543.9,209l-0.1,9.1h-2.4v-21.9h2.4v2.6h0.1c1.2-2,2.9-3,5.2-3c1.9,0,3.4,0.7,4.5,2s1.6,3.1,1.6,5.4
			c0,2.5-0.6,4.5-1.8,6s-2.9,2.3-5,2.3C546.4,211.5,544.9,210.7,543.9,209z M543.8,202.9v2.1c0,1.2,0.4,2.3,1.2,3.2
			c0.8,0.9,1.8,1.3,3.1,1.3c1.5,0,2.6-0.6,3.4-1.7s1.2-2.7,1.2-4.6c0-1.7-0.4-3-1.2-3.9s-1.8-1.4-3.1-1.4c-1.4,0-2.5,0.5-3.4,1.5
			S543.8,201.5,543.8,202.9z"/>
		<path d="M565.3,211.5c-2.2,0-4-0.7-5.3-2.1s-2-3.3-2-5.6c0-2.5,0.7-4.5,2.1-5.9s3.2-2.1,5.6-2.1c2.2,0,4,0.7,5.2,2.1
			s1.9,3.3,1.9,5.7c0,2.4-0.7,4.3-2,5.8S567.6,211.5,565.3,211.5z M565.5,197.8c-1.5,0-2.8,0.5-3.7,1.6s-1.3,2.5-1.3,4.3
			c0,1.8,0.5,3.2,1.4,4.2s2.1,1.5,3.6,1.5c1.6,0,2.7-0.5,3.6-1.5c0.8-1,1.3-2.4,1.3-4.3c0-1.9-0.4-3.3-1.3-4.3
			C568.2,198.3,567,197.8,565.5,197.8z"/>
		<path d="M584.4,198.6c-0.4-0.3-1-0.5-1.8-0.5c-1,0-1.9,0.5-2.6,1.5c-0.7,1-1,2.3-1,4v7.6h-2.4v-15h2.4v3.1h0.1
			c0.3-1.1,0.9-1.9,1.6-2.5s1.5-0.9,2.4-0.9c0.6,0,1.1,0.1,1.4,0.2V198.6z"/>
		<path d="M609,204.3h-10.6c0,1.7,0.5,3,1.3,3.9s2,1.4,3.5,1.4c1.7,0,3.2-0.6,4.7-1.7v2.3c-1.3,1-3.1,1.4-5.2,1.4
			c-2.1,0-3.8-0.7-5-2s-1.8-3.3-1.8-5.8c0-2.3,0.7-4.2,2-5.7s3-2.2,4.9-2.2s3.5,0.6,4.6,1.9s1.6,3,1.6,5.3V204.3z M606.5,202.2
			c0-1.4-0.3-2.5-1-3.2c-0.7-0.8-1.6-1.2-2.7-1.2c-1.1,0-2.1,0.4-2.9,1.2s-1.3,1.9-1.5,3.2H606.5z"/>
		<path d="M615,210.5c0,2.5-0.5,4.4-1.5,5.7c-1,1.3-2.4,2-4.3,2c-0.7,0-1.3-0.2-2-0.5v-2.2c0.7,0.4,1.4,0.7,2.1,0.7
			c2.2,0,3.3-1.7,3.3-5.2v-14.8h2.4V210.5z M613.8,192.4c-0.4,0-0.8-0.1-1.1-0.4s-0.5-0.7-0.5-1.1s0.2-0.8,0.5-1.1s0.7-0.4,1.1-0.4
			c0.4,0,0.8,0.1,1.1,0.4c0.3,0.3,0.5,0.7,0.5,1.1c0,0.4-0.2,0.8-0.5,1.1C614.6,192.2,614.3,192.4,613.8,192.4z"/>
		<path d="M631.9,204.3h-10.6c0,1.7,0.5,3,1.3,3.9s2,1.4,3.5,1.4c1.7,0,3.2-0.6,4.7-1.7v2.3c-1.3,1-3.1,1.4-5.2,1.4
			c-2.1,0-3.8-0.7-5-2s-1.8-3.3-1.8-5.8c0-2.3,0.7-4.2,2-5.7s3-2.2,4.9-2.2s3.5,0.6,4.6,1.9s1.6,3,1.6,5.3V204.3z M629.5,202.2
			c0-1.4-0.3-2.5-1-3.2c-0.7-0.8-1.6-1.2-2.7-1.2c-1.1,0-2.1,0.4-2.9,1.2s-1.3,1.9-1.5,3.2H629.5z"/>
		<path d="M656.9,211.2h-2.4v-8.6c0-1.7-0.3-2.9-0.8-3.6c-0.5-0.7-1.4-1.1-2.6-1.1c-1,0-1.9,0.5-2.6,1.4c-0.7,0.9-1.1,2.1-1.1,3.4
			v8.6H645v-8.9c0-2.9-1.1-4.4-3.4-4.4c-1.1,0-1.9,0.4-2.6,1.3s-1,2-1,3.4v8.6h-2.4v-15h2.4v2.4h0.1c1.1-1.8,2.6-2.7,4.7-2.7
			c1,0,1.9,0.3,2.7,0.9s1.3,1.3,1.6,2.2c1.1-2.1,2.8-3.1,5-3.1c3.3,0,5,2,5,6.1V211.2z"/>
		<path d="M663.9,209L663.9,209l-0.1,9.1h-2.4v-21.9h2.4v2.6h0.1c1.2-2,2.9-3,5.2-3c1.9,0,3.4,0.7,4.5,2s1.6,3.1,1.6,5.4
			c0,2.5-0.6,4.5-1.8,6s-2.9,2.3-5,2.3C666.4,211.5,664.9,210.7,663.9,209z M663.8,202.9v2.1c0,1.2,0.4,2.3,1.2,3.2
			c0.8,0.9,1.8,1.3,3.1,1.3c1.5,0,2.6-0.6,3.4-1.7s1.2-2.7,1.2-4.6c0-1.7-0.4-3-1.2-3.9s-1.8-1.4-3.1-1.4c-1.4,0-2.5,0.5-3.4,1.5
			S663.8,201.5,663.8,202.9z"/>
		<path d="M681.4,211.2H679V189h2.4V211.2z"/>
		<path d="M692.6,211.5c-2.2,0-4-0.7-5.3-2.1s-2-3.3-2-5.6c0-2.5,0.7-4.5,2.1-5.9s3.2-2.1,5.6-2.1c2.2,0,4,0.7,5.2,2.1
			s1.9,3.3,1.9,5.7c0,2.4-0.7,4.3-2,5.8S694.8,211.5,692.6,211.5z M692.7,197.8c-1.5,0-2.8,0.5-3.7,1.6s-1.3,2.5-1.3,4.3
			c0,1.8,0.5,3.2,1.4,4.2s2.1,1.5,3.6,1.5c1.6,0,2.7-0.5,3.6-1.5c0.8-1,1.3-2.4,1.3-4.3c0-1.9-0.4-3.3-1.3-4.3
			C695.5,198.3,694.3,197.8,692.7,197.8z"/>
		<path d="M703.9,215.9h-2.1c3-3.7,4.6-7.9,4.6-12.8c0-4.9-1.5-9.3-4.6-13h2.2c3,3.6,4.6,7.9,4.6,13
			C708.5,208.2,707,212.5,703.9,215.9z"/>
		<path d="M715.1,207.8l-2.3,7.2h-1.7l1.7-7.2H715.1z"/>
	</g>
</g>
<g>
	<rect x="10" y="228.5" class="st0" width="618.7" height="82.2"/>
	<text transform="matrix(1 0 0 1 10.0142 250.5246)" class="st1 st2">como sigue</text>
</g>
<g>
	<line class="st3" x1="526.2" y1="187" x2="514.8" y2="187"/>
	<path d="M533,187c-3.4-0.9-6.6-2.4-9.6-4.2l2,4.2l-2,4.2C526.4,189.3,529.6,187.9,533,187z"/>
</g>
</svg>
