<svg id="Capa_1" data-name="Capa 1" xmlns="http://www.w3.org/2000/svg" viewBox="0 0 733.23 261.96"><path d="M32.81,38.69H20.94V16.28H32.31v2.38H23.56v7.45h8.1v2.36h-8.1v7.84h9.25Z" transform="translate(-19.5 -14.66)"/><path d="M50.06,38.69H47.5V29.56q0-5.08-3.72-5.09a4,4,0,0,0-3.18,1.44,5.36,5.36,0,0,0-1.26,3.65v9.13H36.78v-16h2.56v2.65h.07a5.76,5.76,0,0,1,5.25-3,4.89,4.89,0,0,1,4,1.7,7.53,7.53,0,0,1,1.39,4.9Z" transform="translate(-19.5 -14.66)"/><path d="M76.59,38.69H74V36.16H74A5.27,5.27,0,0,1,69,39.06q-5.72,0-5.72-6.81V22.69h2.55v9.15q0,5.07,3.87,5.07a3.91,3.91,0,0,0,3.09-1.39A5.25,5.25,0,0,0,74,31.91V22.69h2.56Z" transform="translate(-19.5 -14.66)"/><path d="M95.05,38.69H92.48V29.56q0-5.08-3.71-5.09a4,4,0,0,0-3.18,1.44,5.36,5.36,0,0,0-1.26,3.65v9.13H81.77v-16h2.56v2.65h.06a5.78,5.78,0,0,1,5.25-3,4.91,4.91,0,0,1,4,1.7,7.59,7.59,0,0,1,1.39,4.9Z" transform="translate(-19.5 -14.66)"/><path d="M107.67,38.11V35.36a7.6,7.6,0,0,0,4.61,1.55c2.25,0,3.38-.75,3.38-2.25a2,2,0,0,0-.29-1.09,3.08,3.08,0,0,0-.78-.79,6.62,6.62,0,0,0-1.16-.62L112,31.59a17.66,17.66,0,0,1-1.87-.85,5.57,5.57,0,0,1-1.34-1,3.52,3.52,0,0,1-.81-1.22,4.21,4.21,0,0,1-.28-1.61,3.83,3.83,0,0,1,.52-2,4.54,4.54,0,0,1,1.37-1.46,6.6,6.6,0,0,1,2-.88,8.7,8.7,0,0,1,2.28-.3,9.21,9.21,0,0,1,3.72.72v2.59a7.26,7.26,0,0,0-4.07-1.15,4.65,4.65,0,0,0-1.29.16,3.24,3.24,0,0,0-1,.46,2.3,2.3,0,0,0-.65.71,1.92,1.92,0,0,0-.22.92,2.23,2.23,0,0,0,.22,1.05,2.49,2.49,0,0,0,.67.75,5.48,5.48,0,0,0,1.06.59l1.42.58c.71.27,1.35.55,1.91.83a6.83,6.83,0,0,1,1.44,1,3.9,3.9,0,0,1,.91,1.24,4.09,4.09,0,0,1,.32,1.68,3.92,3.92,0,0,1-.52,2.06,4.51,4.51,0,0,1-1.4,1.45,6.35,6.35,0,0,1-2,.86,9.78,9.78,0,0,1-2.39.28A9.16,9.16,0,0,1,107.67,38.11Z" transform="translate(-19.5 -14.66)"/><path d="M123.53,18.62a1.66,1.66,0,1,1,0-3.32,1.69,1.69,0,0,1,1.2.47,1.64,1.64,0,0,1,.49,1.2,1.6,1.6,0,0,1-.49,1.17A1.66,1.66,0,0,1,123.53,18.62Zm1.25,20.07h-2.56v-16h2.56Z" transform="translate(-19.5 -14.66)"/><path d="M129,38.11V35.36a7.6,7.6,0,0,0,4.61,1.55c2.25,0,3.37-.75,3.37-2.25a2,2,0,0,0-.28-1.09,3,3,0,0,0-.79-.79,6.18,6.18,0,0,0-1.15-.62l-1.43-.57a17.66,17.66,0,0,1-1.87-.85,5.38,5.38,0,0,1-1.34-1,3.7,3.7,0,0,1-.82-1.22,4.42,4.42,0,0,1-.27-1.61,3.74,3.74,0,0,1,.52-2,4.54,4.54,0,0,1,1.37-1.46,6.48,6.48,0,0,1,2-.88,8.7,8.7,0,0,1,2.28-.3,9.21,9.21,0,0,1,3.72.72v2.59a7.28,7.28,0,0,0-4.07-1.15,4.65,4.65,0,0,0-1.29.16,3.42,3.42,0,0,0-1,.46,2.26,2.26,0,0,0-.64.71,1.92,1.92,0,0,0-.22.92,2,2,0,0,0,.89,1.8,5.48,5.48,0,0,0,1.06.59l1.42.58c.71.27,1.35.55,1.91.83a6.83,6.83,0,0,1,1.44,1,3.9,3.9,0,0,1,.91,1.24,4.09,4.09,0,0,1,.32,1.68,4,4,0,0,1-.52,2.06,4.51,4.51,0,0,1-1.4,1.45,6.45,6.45,0,0,1-2,.86,9.84,9.84,0,0,1-2.39.28A9.16,9.16,0,0,1,129,38.11Z" transform="translate(-19.5 -14.66)"/><path d="M151,38.53a5,5,0,0,1-2.39.5q-4.2,0-4.2-4.69V24.88h-2.76V22.69h2.76V18.78l2.56-.83v4.74h4v2.19h-4v9a3.79,3.79,0,0,0,.54,2.3,2.19,2.19,0,0,0,1.82.69,2.67,2.67,0,0,0,1.67-.54Z" transform="translate(-19.5 -14.66)"/><path d="M167.25,31.33H156a6,6,0,0,0,1.44,4.12,5,5,0,0,0,3.78,1.46,7.86,7.86,0,0,0,5-1.79v2.41a9.29,9.29,0,0,1-5.58,1.53,6.76,6.76,0,0,1-5.33-2.18,8.91,8.91,0,0,1-1.93-6.13,8.77,8.77,0,0,1,2.11-6.09,6.84,6.84,0,0,1,5.26-2.35,6,6,0,0,1,4.86,2A8.47,8.47,0,0,1,167.25,30Zm-2.63-2.17a5.21,5.21,0,0,0-1.07-3.46,3.64,3.64,0,0,0-2.93-1.23,4.11,4.11,0,0,0-3.07,1.3A5.84,5.84,0,0,0,156,29.16Z" transform="translate(-19.5 -14.66)"/><path d="M193.84,38.69h-2.56V29.5a6.89,6.89,0,0,0-.82-3.84,3.1,3.1,0,0,0-2.76-1.19,3.43,3.43,0,0,0-2.79,1.5,5.77,5.77,0,0,0-1.14,3.59v9.13H181.2v-9.5q0-4.73-3.64-4.72a3.38,3.38,0,0,0-2.78,1.41,5.85,5.85,0,0,0-1.09,3.68v9.13h-2.57v-16h2.57v2.53h.06a5.44,5.44,0,0,1,5-2.91,4.64,4.64,0,0,1,4.53,3.31,5.72,5.72,0,0,1,5.31-3.31q5.28,0,5.28,6.52Z" transform="translate(-19.5 -14.66)"/><path d="M210.14,38.69h-2.56v-2.5h-.06a5.39,5.39,0,0,1-4.93,2.87,5.27,5.27,0,0,1-3.74-1.26,4.41,4.41,0,0,1-1.35-3.36q0-4.48,5.28-5.22l4.8-.67q0-4.08-3.3-4.08a7.83,7.83,0,0,0-5.22,2V23.81a10,10,0,0,1,5.44-1.5q5.64,0,5.64,6Zm-2.56-8.1-3.86.53A6.36,6.36,0,0,0,201,32a2.55,2.55,0,0,0-.91,2.24,2.42,2.42,0,0,0,.84,1.91,3.22,3.22,0,0,0,2.23.75,4.13,4.13,0,0,0,3.15-1.34,4.81,4.81,0,0,0,1.24-3.38Z" transform="translate(-19.5 -14.66)"/><path d="M237.39,38.69h-2.56V36h-.06a6.46,6.46,0,0,1-10.32.94,8.77,8.77,0,0,1-1.81-5.85,9.63,9.63,0,0,1,2-6.36A6.6,6.6,0,0,1,230,22.31a5.13,5.13,0,0,1,4.8,2.6h.06V15h2.56Zm-2.56-7.24V29.09a4.6,4.6,0,0,0-1.28-3.28,4.33,4.33,0,0,0-3.25-1.34,4.4,4.4,0,0,0-3.69,1.72,7.5,7.5,0,0,0-1.34,4.75,6.8,6.8,0,0,0,1.28,4.36A4.23,4.23,0,0,0,230,36.91a4.38,4.38,0,0,0,3.47-1.55A5.76,5.76,0,0,0,234.83,31.45Z" transform="translate(-19.5 -14.66)"/><path d="M255.44,31.33h-11.3a6,6,0,0,0,1.44,4.12,4.93,4.93,0,0,0,3.78,1.46,7.86,7.86,0,0,0,5-1.79v2.41a9.31,9.31,0,0,1-5.58,1.53,6.74,6.74,0,0,1-5.33-2.18,8.91,8.91,0,0,1-1.94-6.13,8.77,8.77,0,0,1,2.12-6.09,6.82,6.82,0,0,1,5.26-2.35,6,6,0,0,1,4.86,2A8.52,8.52,0,0,1,255.44,30Zm-2.63-2.17a5.21,5.21,0,0,0-1.07-3.46,3.65,3.65,0,0,0-2.93-1.23,4.13,4.13,0,0,0-3.08,1.3,5.89,5.89,0,0,0-1.56,3.39Z" transform="translate(-19.5 -14.66)"/><path d="M279,38a8.3,8.3,0,0,1-4.37,1.11,7.25,7.25,0,0,1-5.52-2.22A8.05,8.05,0,0,1,267,31.06a8.88,8.88,0,0,1,2.27-6.35,7.93,7.93,0,0,1,6.05-2.4,8.47,8.47,0,0,1,3.72.78v2.63a6.55,6.55,0,0,0-3.82-1.25,5.13,5.13,0,0,0-4,1.76,6.64,6.64,0,0,0-1.57,4.61,6.32,6.32,0,0,0,1.48,4.44,5.09,5.09,0,0,0,4,1.63A6.46,6.46,0,0,0,279,35.52Z" transform="translate(-19.5 -14.66)"/><path d="M289.55,39.06a7.4,7.4,0,0,1-5.67-2.24,8.3,8.3,0,0,1-2.11-5.94,8.65,8.65,0,0,1,2.2-6.3,7.92,7.92,0,0,1,5.95-2.27,7.18,7.18,0,0,1,5.59,2.21,8.7,8.7,0,0,1,2,6.1,8.62,8.62,0,0,1-2.17,6.14A7.6,7.6,0,0,1,289.55,39.06Zm.18-14.59a4.87,4.87,0,0,0-3.9,1.68,6.88,6.88,0,0,0-1.44,4.63,6.59,6.59,0,0,0,1.45,4.49,5,5,0,0,0,3.89,1.64,4.69,4.69,0,0,0,3.82-1.61,7,7,0,0,0,1.34-4.58,7.08,7.08,0,0,0-1.34-4.63A4.66,4.66,0,0,0,289.73,24.47Z" transform="translate(-19.5 -14.66)"/><path d="M308.3,39.06a7.4,7.4,0,0,1-5.67-2.24,8.3,8.3,0,0,1-2.11-5.94,8.65,8.65,0,0,1,2.2-6.3,7.92,7.92,0,0,1,5.95-2.27,7.18,7.18,0,0,1,5.59,2.21,8.7,8.7,0,0,1,2,6.1,8.62,8.62,0,0,1-2.17,6.14A7.6,7.6,0,0,1,308.3,39.06Zm.18-14.59a4.87,4.87,0,0,0-3.9,1.68,6.88,6.88,0,0,0-1.44,4.63,6.54,6.54,0,0,0,1.45,4.49,5,5,0,0,0,3.89,1.64,4.69,4.69,0,0,0,3.82-1.61,7,7,0,0,0,1.34-4.58,7.08,7.08,0,0,0-1.34-4.63A4.66,4.66,0,0,0,308.48,24.47Z" transform="translate(-19.5 -14.66)"/><path d="M328.7,25.28a3.15,3.15,0,0,0-1.93-.51A3.28,3.28,0,0,0,324,26.31a7.19,7.19,0,0,0-1.1,4.22v8.16h-2.56v-16h2.56V26H323a5.65,5.65,0,0,1,1.68-2.63,3.79,3.79,0,0,1,2.51-.94,4.31,4.31,0,0,1,1.53.21Z" transform="translate(-19.5 -14.66)"/><path d="M345.14,38.69h-2.56V36h-.06a6.46,6.46,0,0,1-10.32.94,8.77,8.77,0,0,1-1.81-5.85,9.63,9.63,0,0,1,2-6.36,6.6,6.6,0,0,1,5.33-2.39,5.13,5.13,0,0,1,4.8,2.6h.06V15h2.56Zm-2.56-7.24V29.09a4.6,4.6,0,0,0-1.28-3.28,4.33,4.33,0,0,0-3.25-1.34,4.4,4.4,0,0,0-3.69,1.72A7.5,7.5,0,0,0,333,30.94a6.8,6.8,0,0,0,1.28,4.36,4.23,4.23,0,0,0,3.47,1.61,4.38,4.38,0,0,0,3.47-1.55A5.76,5.76,0,0,0,342.58,31.45Z" transform="translate(-19.5 -14.66)"/><path d="M363.19,31.33h-11.3a6,6,0,0,0,1.44,4.12,4.93,4.93,0,0,0,3.78,1.46,7.86,7.86,0,0,0,5-1.79v2.41a9.31,9.31,0,0,1-5.58,1.53,6.74,6.74,0,0,1-5.33-2.18,8.91,8.91,0,0,1-1.94-6.13,8.77,8.77,0,0,1,2.12-6.09,6.82,6.82,0,0,1,5.26-2.35,6,6,0,0,1,4.86,2A8.52,8.52,0,0,1,363.19,30Zm-2.63-2.17a5.21,5.21,0,0,0-1.07-3.46,3.65,3.65,0,0,0-2.93-1.23,4.13,4.13,0,0,0-3.08,1.3,5.89,5.89,0,0,0-1.56,3.39Z" transform="translate(-19.5 -14.66)"/><path d="M380.34,38.69h-2.56V29.56q0-5.08-3.72-5.09a4,4,0,0,0-3.18,1.44,5.36,5.36,0,0,0-1.26,3.65v9.13h-2.56v-16h2.56v2.65h.07a5.78,5.78,0,0,1,5.25-3,4.88,4.88,0,0,1,4,1.7,7.53,7.53,0,0,1,1.39,4.9Z" transform="translate(-19.5 -14.66)"/><path d="M396.62,38.69h-2.56v-2.5H394a5.38,5.38,0,0,1-4.92,2.87,5.26,5.26,0,0,1-3.74-1.26A4.38,4.38,0,0,1,384,34.44q0-4.48,5.29-5.22l4.79-.67q0-4.08-3.29-4.08a7.83,7.83,0,0,0-5.22,2V23.81a9.89,9.89,0,0,1,5.43-1.5q5.64,0,5.64,6Zm-2.56-8.1-3.86.53a6.31,6.31,0,0,0-2.68.89,2.53,2.53,0,0,0-.91,2.24,2.42,2.42,0,0,0,.84,1.91,3.17,3.17,0,0,0,2.22.75,4.13,4.13,0,0,0,3.15-1.34,4.76,4.76,0,0,0,1.24-3.38Z" transform="translate(-19.5 -14.66)"/><path d="M415.11,38.69h-2.56V36h-.07a6.46,6.46,0,0,1-10.32.94,8.82,8.82,0,0,1-1.8-5.85,9.63,9.63,0,0,1,2-6.36,6.6,6.6,0,0,1,5.33-2.39,5.13,5.13,0,0,1,4.79,2.6h.07V15h2.56Zm-2.56-7.24V29.09a4.6,4.6,0,0,0-1.28-3.28A4.33,4.33,0,0,0,408,24.47a4.4,4.4,0,0,0-3.69,1.72A7.5,7.5,0,0,0,403,30.94a6.74,6.74,0,0,0,1.29,4.36,4.22,4.22,0,0,0,3.46,1.61,4.39,4.39,0,0,0,3.48-1.55A5.76,5.76,0,0,0,412.55,31.45Z" transform="translate(-19.5 -14.66)"/><path d="M431.75,38.69h-2.56v-2.5h-.07a5.36,5.36,0,0,1-4.92,2.87,5.27,5.27,0,0,1-3.74-1.26,4.41,4.41,0,0,1-1.35-3.36q0-4.48,5.28-5.22l4.8-.67q0-4.08-3.3-4.08a7.83,7.83,0,0,0-5.22,2V23.81a9.92,9.92,0,0,1,5.44-1.5q5.64,0,5.64,6Zm-2.56-8.1-3.86.53a6.31,6.31,0,0,0-2.69.89,2.55,2.55,0,0,0-.91,2.24,2.42,2.42,0,0,0,.84,1.91,3.22,3.22,0,0,0,2.23.75A4.13,4.13,0,0,0,428,35.57a4.81,4.81,0,0,0,1.24-3.38Z" transform="translate(-19.5 -14.66)"/><path d="M435.61,38.11V35.36a7.58,7.58,0,0,0,4.61,1.55c2.25,0,3.37-.75,3.37-2.25a1.91,1.91,0,0,0-.29-1.09,2.79,2.79,0,0,0-.78-.79,6.18,6.18,0,0,0-1.15-.62l-1.43-.57a17.66,17.66,0,0,1-1.87-.85,5.38,5.38,0,0,1-1.34-1,3.7,3.7,0,0,1-.82-1.22,4.42,4.42,0,0,1-.27-1.61,3.74,3.74,0,0,1,.52-2,4.54,4.54,0,0,1,1.37-1.46,6.48,6.48,0,0,1,2-.88,8.64,8.64,0,0,1,2.28-.3,9.13,9.13,0,0,1,3.71.72v2.59a7.23,7.23,0,0,0-4.06-1.15,4.77,4.77,0,0,0-1.3.16,3.48,3.48,0,0,0-1,.46,2.26,2.26,0,0,0-.64.71,1.92,1.92,0,0,0-.22.92,2,2,0,0,0,.89,1.8,5.48,5.48,0,0,0,1.06.59c.41.18.89.37,1.42.58.71.27,1.34.55,1.91.83a6.51,6.51,0,0,1,1.43,1,3.93,3.93,0,0,1,.92,1.24,4.09,4.09,0,0,1,.32,1.68,4,4,0,0,1-.52,2.06,4.51,4.51,0,0,1-1.4,1.45,6.45,6.45,0,0,1-2,.86,9.84,9.84,0,0,1-2.39.28A9.13,9.13,0,0,1,435.61,38.11Z" transform="translate(-19.5 -14.66)"/><path d="M465.06,30.88l3.69,7.81-2.83,0-2-5c-.07-.16-.15-.39-.26-.67s-.21-.54-.31-.78h-.07l-.26.35-.29.38-.27.36-.23.28L458,38.69h-3l7.21-8-3.6-8h2.83l1.92,5.09c.1.25.19.52.28.81s.17.52.22.69h.07l.21-.27.27-.35c.09-.13.19-.25.29-.38l.29-.34,4.34-5.25h2.92Z" transform="translate(-19.5 -14.66)"/><path d="M476.62,41.34a17.79,17.79,0,0,1-1.45,2.07,9.66,9.66,0,0,1-1.54,1.53,6,6,0,0,1-1.72.94,5.83,5.83,0,0,1-2,.32,4.93,4.93,0,0,1-.81-.07,3.91,3.91,0,0,1-.71-.15l.49-2.26a2.21,2.21,0,0,0,.6.2,3.81,3.81,0,0,0,.74.08,3.37,3.37,0,0,0,1.94-.59,6,6,0,0,0,1.64-1.82l1.92-3-2.91-15.93h2.66L477.33,35a5.14,5.14,0,0,1,.05.66,3.24,3.24,0,0,1,0,.56h.09c.05-.13.14-.3.25-.53a5.25,5.25,0,0,1,.36-.66l7.1-12.31H488Z" transform="translate(-19.5 -14.66)"/><path d="M496.77,38.11V35.36a7.58,7.58,0,0,0,4.61,1.55c2.24,0,3.37-.75,3.37-2.25a2,2,0,0,0-.29-1.09,2.79,2.79,0,0,0-.78-.79,6.28,6.28,0,0,0-1.16-.62l-1.43-.57a16.57,16.57,0,0,1-1.86-.85,5.44,5.44,0,0,1-1.35-1,3.52,3.52,0,0,1-.81-1.22,4.42,4.42,0,0,1-.27-1.61,3.83,3.83,0,0,1,.51-2,4.58,4.58,0,0,1,1.38-1.46,6.37,6.37,0,0,1,2-.88,8.57,8.57,0,0,1,2.27-.3,9.14,9.14,0,0,1,3.72.72v2.59a7.25,7.25,0,0,0-4.06-1.15,4.77,4.77,0,0,0-1.3.16,3.36,3.36,0,0,0-1,.46,2.15,2.15,0,0,0-.64.71,1.93,1.93,0,0,0-.23.92,2.23,2.23,0,0,0,.23,1.05,2.32,2.32,0,0,0,.66.75,5.59,5.59,0,0,0,1.07.59c.41.18.89.37,1.42.58.7.27,1.34.55,1.9.83a6.58,6.58,0,0,1,1.44,1,3.75,3.75,0,0,1,.91,1.24,4.34,4.34,0,0,1-.2,3.74,4.4,4.4,0,0,1-1.4,1.45,6.3,6.3,0,0,1-2,.86,9.84,9.84,0,0,1-2.39.28A9.1,9.1,0,0,1,496.77,38.11Z" transform="translate(-19.5 -14.66)"/><path d="M524.17,31.33H512.88a6,6,0,0,0,1.43,4.12,5,5,0,0,0,3.78,1.46,7.84,7.84,0,0,0,5-1.79v2.41a9.27,9.27,0,0,1-5.58,1.53,6.72,6.72,0,0,1-5.32-2.18,8.86,8.86,0,0,1-1.94-6.13,8.72,8.72,0,0,1,2.12-6.09,6.8,6.8,0,0,1,5.25-2.35,6,6,0,0,1,4.86,2A8.47,8.47,0,0,1,524.17,30Zm-2.62-2.17a5.26,5.26,0,0,0-1.07-3.46,3.66,3.66,0,0,0-2.93-1.23,4.12,4.12,0,0,0-3.08,1.3,5.77,5.77,0,0,0-1.56,3.39Z" transform="translate(-19.5 -14.66)"/><path d="M539.44,36.38h-.06v9.67h-2.57V22.69h2.57V25.5h.06A6.07,6.07,0,0,1,545,22.31a5.88,5.88,0,0,1,4.83,2.15,8.93,8.93,0,0,1,1.73,5.76,9.92,9.92,0,0,1-1.95,6.43,6.51,6.51,0,0,1-5.35,2.41A5.34,5.34,0,0,1,539.44,36.38Zm-.06-6.46v2.24a4.73,4.73,0,0,0,1.28,3.36,4.59,4.59,0,0,0,6.93-.4,8.14,8.14,0,0,0,1.32-4.95A6.5,6.5,0,0,0,547.67,26a4.08,4.08,0,0,0-3.34-1.51,4.57,4.57,0,0,0-3.6,1.55A5.75,5.75,0,0,0,539.38,29.92Z" transform="translate(-19.5 -14.66)"/><path d="M568.56,38.69H566V36.16h-.06a5.27,5.27,0,0,1-4.94,2.9q-5.71,0-5.72-6.81V22.69h2.55v9.15q0,5.07,3.87,5.07a3.91,3.91,0,0,0,3.09-1.39A5.25,5.25,0,0,0,566,31.91V22.69h2.56Z" transform="translate(-19.5 -14.66)"/><path d="M586.59,31.33H575.3a6,6,0,0,0,1.43,4.12,5,5,0,0,0,3.79,1.46,7.84,7.84,0,0,0,5-1.79v2.41a9.26,9.26,0,0,1-5.57,1.53,6.74,6.74,0,0,1-5.33-2.18,8.91,8.91,0,0,1-1.94-6.13,8.77,8.77,0,0,1,2.12-6.09A6.81,6.81,0,0,1,580,22.31a6,6,0,0,1,4.86,2A8.52,8.52,0,0,1,586.59,30ZM584,29.16a5.26,5.26,0,0,0-1.07-3.46A3.65,3.65,0,0,0,580,24.47a4.12,4.12,0,0,0-3.08,1.3,5.89,5.89,0,0,0-1.56,3.39Z" transform="translate(-19.5 -14.66)"/><path d="M604.12,38.69h-2.56V36h-.06a6.46,6.46,0,0,1-10.32.94,8.82,8.82,0,0,1-1.8-5.85,9.58,9.58,0,0,1,2-6.36,6.58,6.58,0,0,1,5.32-2.39,5.13,5.13,0,0,1,4.8,2.6h.06V15h2.56Zm-2.56-7.24V29.09a4.6,4.6,0,0,0-1.28-3.28A4.31,4.31,0,0,0,597,24.47a4.43,4.43,0,0,0-3.69,1.72A7.56,7.56,0,0,0,592,30.94a6.74,6.74,0,0,0,1.29,4.36,4.21,4.21,0,0,0,3.46,1.61,4.39,4.39,0,0,0,3.48-1.55A5.76,5.76,0,0,0,601.56,31.45Z" transform="translate(-19.5 -14.66)"/><path d="M622.17,31.33H610.88a6,6,0,0,0,1.43,4.12,5,5,0,0,0,3.78,1.46,7.84,7.84,0,0,0,5-1.79v2.41a9.27,9.27,0,0,1-5.58,1.53,6.72,6.72,0,0,1-5.32-2.18,8.86,8.86,0,0,1-1.94-6.13,8.72,8.72,0,0,1,2.12-6.09,6.8,6.8,0,0,1,5.25-2.35,6,6,0,0,1,4.86,2A8.47,8.47,0,0,1,622.17,30Zm-2.62-2.17a5.26,5.26,0,0,0-1.07-3.46,3.66,3.66,0,0,0-2.93-1.23,4.12,4.12,0,0,0-3.08,1.3,5.77,5.77,0,0,0-1.56,3.39Z" transform="translate(-19.5 -14.66)"/><path d="M648.47,38.69h-2.56V36h-.07a6.46,6.46,0,0,1-10.32.94,8.82,8.82,0,0,1-1.8-5.85,9.58,9.58,0,0,1,2-6.36,6.6,6.6,0,0,1,5.33-2.39,5.13,5.13,0,0,1,4.79,2.6h.07V15h2.56Zm-2.56-7.24V29.09a4.57,4.57,0,0,0-1.29-3.28,4.29,4.29,0,0,0-3.24-1.34,4.4,4.4,0,0,0-3.69,1.72,7.5,7.5,0,0,0-1.35,4.75,6.74,6.74,0,0,0,1.29,4.36,4.22,4.22,0,0,0,3.46,1.61,4.39,4.39,0,0,0,3.48-1.55A5.76,5.76,0,0,0,645.91,31.45Z" transform="translate(-19.5 -14.66)"/><path d="M666.52,31.33h-11.3a6,6,0,0,0,1.44,4.12,4.93,4.93,0,0,0,3.78,1.46,7.86,7.86,0,0,0,5-1.79v2.41a9.31,9.31,0,0,1-5.58,1.53,6.74,6.74,0,0,1-5.33-2.18,8.91,8.91,0,0,1-1.94-6.13,8.77,8.77,0,0,1,2.12-6.09,6.81,6.81,0,0,1,5.26-2.35,6,6,0,0,1,4.86,2A8.52,8.52,0,0,1,666.52,30Zm-2.63-2.17a5.26,5.26,0,0,0-1.07-3.46,3.65,3.65,0,0,0-2.93-1.23,4.13,4.13,0,0,0-3.08,1.3,5.89,5.89,0,0,0-1.56,3.39Z" transform="translate(-19.5 -14.66)"/><path d="M678.3,17.25a3.44,3.44,0,0,0-1.71-.42q-2.69,0-2.68,3.39v2.47h3.75v2.19h-3.75V38.69h-2.55V24.88h-2.74V22.69h2.74v-2.6a5.37,5.37,0,0,1,1.45-4,4.89,4.89,0,0,1,3.63-1.46,5,5,0,0,1,1.86.28Z" transform="translate(-19.5 -14.66)"/><path d="M681.72,18.62a1.61,1.61,0,0,1-1.17-.46,1.58,1.58,0,0,1-.49-1.19,1.6,1.6,0,0,1,.49-1.2,1.62,1.62,0,0,1,1.17-.47,1.65,1.65,0,0,1,1.19.47,1.61,1.61,0,0,1,.5,1.2,1.57,1.57,0,0,1-.5,1.17A1.62,1.62,0,0,1,681.72,18.62ZM683,38.69h-2.56v-16H683Z" transform="translate(-19.5 -14.66)"/><path d="M701.44,38.69h-2.56V29.56c0-3.39-1.25-5.09-3.72-5.09A4,4,0,0,0,692,25.91a5.36,5.36,0,0,0-1.26,3.65v9.13h-2.56v-16h2.56v2.65h.06a5.78,5.78,0,0,1,5.25-3,4.91,4.91,0,0,1,4,1.7,7.59,7.59,0,0,1,1.39,4.9Z" transform="translate(-19.5 -14.66)"/><path d="M707.58,18.62a1.61,1.61,0,0,1-1.17-.46,1.58,1.58,0,0,1-.49-1.19,1.6,1.6,0,0,1,.49-1.2,1.62,1.62,0,0,1,1.17-.47,1.65,1.65,0,0,1,1.19.47,1.61,1.61,0,0,1,.5,1.2,1.57,1.57,0,0,1-.5,1.17A1.62,1.62,0,0,1,707.58,18.62Zm1.25,20.07h-2.56v-16h2.56Z" transform="translate(-19.5 -14.66)"/><path d="M722.36,25.28a3.16,3.16,0,0,0-1.94-.51,3.26,3.26,0,0,0-2.74,1.54,7.19,7.19,0,0,0-1.1,4.22v8.16H714v-16h2.56V26h.06a5.56,5.56,0,0,1,1.67-2.63,3.81,3.81,0,0,1,2.52-.94,4.38,4.38,0,0,1,1.53.21Z" transform="translate(-19.5 -14.66)"/><path d="M33.53,77.09H31V74.56h-.06A5.28,5.28,0,0,1,26,77.46q-5.71,0-5.72-6.81V61.09H22.8v9.15q0,5.07,3.87,5.07a3.91,3.91,0,0,0,3.09-1.39A5.3,5.3,0,0,0,31,70.31V61.09h2.56Z" transform="translate(-19.5 -14.66)"/><path d="M52,77.09H49.42V68q0-5.09-3.72-5.09a4,4,0,0,0-3.18,1.44A5.36,5.36,0,0,0,41.27,68v9.13H38.7v-16h2.57v2.65h.06a5.78,5.78,0,0,1,5.25-3,4.88,4.88,0,0,1,4,1.7A7.53,7.53,0,0,1,52,67.31Z" transform="translate(-19.5 -14.66)"/><path d="M78.16,61.09l-6.38,16H69.27l-6.07-16H66l4.06,11.62A10.42,10.42,0,0,1,70.64,75h.06a11.09,11.09,0,0,1,.5-2.18l4.25-11.68Z" transform="translate(-19.5 -14.66)"/><path d="M93.77,69.73H82.47a6,6,0,0,0,1.44,4.12,4.93,4.93,0,0,0,3.78,1.46,7.86,7.86,0,0,0,5-1.79v2.41a9.31,9.31,0,0,1-5.58,1.53,6.74,6.74,0,0,1-5.33-2.18,8.91,8.91,0,0,1-1.94-6.13,8.77,8.77,0,0,1,2.12-6.09,6.81,6.81,0,0,1,5.26-2.35,6,6,0,0,1,4.86,2,8.52,8.52,0,0,1,1.72,5.64Zm-2.63-2.17a5.26,5.26,0,0,0-1.07-3.46,3.65,3.65,0,0,0-2.93-1.23,4.13,4.13,0,0,0-3.08,1.3,5.89,5.89,0,0,0-1.56,3.39Z" transform="translate(-19.5 -14.66)"/><path d="M108.55,76.35a8.34,8.34,0,0,1-4.38,1.11,7.25,7.25,0,0,1-5.52-2.22,8.09,8.09,0,0,1-2.1-5.78,8.88,8.88,0,0,1,2.26-6.35,7.93,7.93,0,0,1,6-2.4,8.44,8.44,0,0,1,3.72.78v2.63a6.55,6.55,0,0,0-3.81-1.25,5.14,5.14,0,0,0-4,1.76,6.69,6.69,0,0,0-1.57,4.61,6.32,6.32,0,0,0,1.48,4.44,5.09,5.09,0,0,0,4,1.63,6.49,6.49,0,0,0,3.94-1.39Z" transform="translate(-19.5 -14.66)"/><path d="M119.84,76.93a5,5,0,0,1-2.39.5q-4.2,0-4.2-4.69V63.27H110.5V61.09h2.75V57.18l2.56-.83v4.74h4v2.18h-4v9a3.72,3.72,0,0,0,.55,2.3,2.17,2.17,0,0,0,1.81.68,2.63,2.63,0,0,0,1.67-.53Z" transform="translate(-19.5 -14.66)"/><path d="M130,77.46a7.4,7.4,0,0,1-5.66-2.24,8.31,8.31,0,0,1-2.12-6A8.64,8.64,0,0,1,124.38,63a7.9,7.9,0,0,1,6-2.27,7.16,7.16,0,0,1,5.58,2.21,8.7,8.7,0,0,1,2,6.1,8.62,8.62,0,0,1-2.16,6.14A7.62,7.62,0,0,1,130,77.46Zm.19-14.59a4.88,4.88,0,0,0-3.91,1.68,6.93,6.93,0,0,0-1.43,4.63,6.54,6.54,0,0,0,1.45,4.49,5,5,0,0,0,3.89,1.64A4.69,4.69,0,0,0,134,73.7a7,7,0,0,0,1.34-4.58A7.14,7.14,0,0,0,134,64.49,4.66,4.66,0,0,0,130.14,62.87Z" transform="translate(-19.5 -14.66)"/><path d="M150.36,63.68a3.16,3.16,0,0,0-1.94-.51,3.26,3.26,0,0,0-2.74,1.54,7.19,7.19,0,0,0-1.1,4.22v8.16H142v-16h2.56v3.29h.06a5.56,5.56,0,0,1,1.67-2.63,3.81,3.81,0,0,1,2.52-.94,4.38,4.38,0,0,1,1.53.21Z" transform="translate(-19.5 -14.66)"/><path d="M174.84,77.09h-2.56V74.56h-.06a5.27,5.27,0,0,1-4.94,2.9q-5.72,0-5.72-6.81V61.09h2.55v9.15q0,5.07,3.87,5.07a3.91,3.91,0,0,0,3.09-1.39,5.25,5.25,0,0,0,1.21-3.61V61.09h2.56Z" transform="translate(-19.5 -14.66)"/><path d="M193.3,77.09h-2.57V68q0-5.09-3.71-5.09a4,4,0,0,0-3.18,1.44A5.36,5.36,0,0,0,182.58,68v9.13H180v-16h2.56v2.65h.06a5.78,5.78,0,0,1,5.25-3,4.91,4.91,0,0,1,4,1.7,7.59,7.59,0,0,1,1.39,4.9Z" transform="translate(-19.5 -14.66)"/><path d="M199.44,57a1.61,1.61,0,0,1-1.17-.46,1.58,1.58,0,0,1-.49-1.19,1.6,1.6,0,0,1,.49-1.2,1.62,1.62,0,0,1,1.17-.47,1.67,1.67,0,0,1,1.19.47,1.6,1.6,0,0,1,.49,1.2,1.56,1.56,0,0,1-.49,1.17A1.64,1.64,0,0,1,199.44,57Zm1.25,20.07h-2.57v-16h2.57Z" transform="translate(-19.5 -14.66)"/><path d="M213.3,76.93a5,5,0,0,1-2.39.5q-4.22,0-4.21-4.69V63.27H204V61.09h2.75V57.18l2.57-.83v4.74h4v2.18h-4v9a3.79,3.79,0,0,0,.54,2.3,2.18,2.18,0,0,0,1.81.68,2.68,2.68,0,0,0,1.68-.53Z" transform="translate(-19.5 -14.66)"/><path d="M228.17,77.09h-2.56v-2.5h-.06a5.39,5.39,0,0,1-4.93,2.87,5.27,5.27,0,0,1-3.74-1.26,4.41,4.41,0,0,1-1.35-3.36q0-4.49,5.28-5.22l4.8-.67q0-4.08-3.3-4.08a7.87,7.87,0,0,0-5.22,2V62.21a10,10,0,0,1,5.44-1.5q5.64,0,5.64,6ZM225.61,69l-3.86.53a6.36,6.36,0,0,0-2.69.89,2.55,2.55,0,0,0-.9,2.24,2.42,2.42,0,0,0,.83,1.91,3.22,3.22,0,0,0,2.23.75A4.13,4.13,0,0,0,224.37,74a4.76,4.76,0,0,0,1.24-3.38Z" transform="translate(-19.5 -14.66)"/><path d="M241.34,63.68a3.13,3.13,0,0,0-1.93-.51,3.28,3.28,0,0,0-2.75,1.54,7.19,7.19,0,0,0-1.1,4.22v8.16H233v-16h2.56v3.29h.06a5.65,5.65,0,0,1,1.68-2.63,3.81,3.81,0,0,1,2.51-.94,4.31,4.31,0,0,1,1.53.21Z" transform="translate(-19.5 -14.66)"/><path d="M245.44,57a1.61,1.61,0,0,1-1.17-.46,1.58,1.58,0,0,1-.49-1.19,1.6,1.6,0,0,1,.49-1.2,1.62,1.62,0,0,1,1.17-.47,1.67,1.67,0,0,1,1.19.47,1.6,1.6,0,0,1,.49,1.2,1.56,1.56,0,0,1-.49,1.17A1.64,1.64,0,0,1,245.44,57Zm1.25,20.07h-2.57v-16h2.57Z" transform="translate(-19.5 -14.66)"/><path d="M258.56,77.46a7.4,7.4,0,0,1-5.66-2.24,8.31,8.31,0,0,1-2.12-6A8.68,8.68,0,0,1,253,63a7.94,7.94,0,0,1,6-2.27,7.17,7.17,0,0,1,5.58,2.21,8.7,8.7,0,0,1,2,6.1,8.62,8.62,0,0,1-2.16,6.14A7.62,7.62,0,0,1,258.56,77.46Zm.19-14.59a4.88,4.88,0,0,0-3.91,1.68,6.93,6.93,0,0,0-1.43,4.63,6.54,6.54,0,0,0,1.45,4.49,4.94,4.94,0,0,0,3.89,1.64,4.69,4.69,0,0,0,3.82-1.61,7,7,0,0,0,1.34-4.58,7.14,7.14,0,0,0-1.34-4.63A4.66,4.66,0,0,0,258.75,62.87Z" transform="translate(-19.5 -14.66)"/><path d="M293.05,84.45h-2.57V74.34h-.06A5.73,5.73,0,0,1,285,77.46a6,6,0,0,1-4.83-2.15,8.72,8.72,0,0,1-1.82-5.85,9.52,9.52,0,0,1,2-6.36,6.64,6.64,0,0,1,5.37-2.39,5,5,0,0,1,4.75,2.6h.06V61.09h2.57Zm-2.57-14.57V67.56a4.67,4.67,0,0,0-1.28-3.33,4.32,4.32,0,0,0-3.28-1.36,4.38,4.38,0,0,0-3.65,1.71,7.62,7.62,0,0,0-1.35,4.82,6.61,6.61,0,0,0,1.3,4.34,4.15,4.15,0,0,0,3.34,1.57,4.54,4.54,0,0,0,3.59-1.54A5.72,5.72,0,0,0,290.48,69.88Z" transform="translate(-19.5 -14.66)"/><path d="M311.17,77.09h-2.56V74.56h-.06a5.28,5.28,0,0,1-4.94,2.9q-5.72,0-5.72-6.81V61.09h2.55v9.15q0,5.07,3.87,5.07a3.91,3.91,0,0,0,3.09-1.39,5.25,5.25,0,0,0,1.21-3.61V61.09h2.56Z" transform="translate(-19.5 -14.66)"/><path d="M329.2,69.73H317.91a6,6,0,0,0,1.43,4.12,5,5,0,0,0,3.78,1.46,7.84,7.84,0,0,0,5-1.79v2.41a9.26,9.26,0,0,1-5.57,1.53,6.73,6.73,0,0,1-5.33-2.18,8.91,8.91,0,0,1-1.94-6.13,8.77,8.77,0,0,1,2.12-6.09,6.8,6.8,0,0,1,5.25-2.35,6,6,0,0,1,4.86,2,8.47,8.47,0,0,1,1.72,5.64Zm-2.62-2.17a5.26,5.26,0,0,0-1.07-3.46,3.66,3.66,0,0,0-2.93-1.23,4.12,4.12,0,0,0-3.08,1.3,5.89,5.89,0,0,0-1.56,3.39Z" transform="translate(-19.5 -14.66)"/><path d="M353.3,77.09h-2.57v-2.5h-.06a5.36,5.36,0,0,1-4.92,2.87A5.27,5.27,0,0,1,342,76.2a4.41,4.41,0,0,1-1.35-3.36q0-4.49,5.28-5.22l4.79-.67c0-2.72-1.09-4.08-3.29-4.08a7.83,7.83,0,0,0-5.22,2V62.21a9.9,9.9,0,0,1,5.44-1.5q5.64,0,5.64,6ZM350.73,69l-3.85.53a6.31,6.31,0,0,0-2.69.89,2.53,2.53,0,0,0-.91,2.24,2.42,2.42,0,0,0,.84,1.91,3.19,3.19,0,0,0,2.22.75A4.13,4.13,0,0,0,349.49,74a4.76,4.76,0,0,0,1.24-3.38Z" transform="translate(-19.5 -14.66)"/><path d="M360.75,74.77h-.06v9.68h-2.57V61.09h2.57V63.9h.06a6,6,0,0,1,5.53-3.19,5.88,5.88,0,0,1,4.83,2.15,8.87,8.87,0,0,1,1.73,5.76,9.92,9.92,0,0,1-1.95,6.43,6.49,6.49,0,0,1-5.34,2.41A5.34,5.34,0,0,1,360.75,74.77Zm-.06-6.45v2.24A4.74,4.74,0,0,0,362,73.92a4.58,4.58,0,0,0,6.92-.4,8.14,8.14,0,0,0,1.32-5A6.44,6.44,0,0,0,369,64.38a4.07,4.07,0,0,0-3.34-1.51,4.54,4.54,0,0,0-3.59,1.55A5.71,5.71,0,0,0,360.69,68.32Z" transform="translate(-19.5 -14.66)"/><path d="M389.88,77.09h-2.57V74.56h-.06a5.27,5.27,0,0,1-4.94,2.9q-5.71,0-5.72-6.81V61.09h2.55v9.15q0,5.07,3.88,5.07a3.89,3.89,0,0,0,3.08-1.39,5.25,5.25,0,0,0,1.21-3.61V61.09h2.57Z" transform="translate(-19.5 -14.66)"/><path d="M408.33,77.09h-2.56V68q0-5.09-3.72-5.09a4,4,0,0,0-3.18,1.44A5.36,5.36,0,0,0,397.61,68v9.13h-2.56v-16h2.56v2.65h.06a5.78,5.78,0,0,1,5.25-3,4.91,4.91,0,0,1,4,1.7,7.59,7.59,0,0,1,1.39,4.9Z" transform="translate(-19.5 -14.66)"/><path d="M420.58,76.93a5,5,0,0,1-2.39.5q-4.21,0-4.21-4.69V63.27h-2.75V61.09H414V57.18l2.57-.83v4.74h4v2.18h-4v9a3.79,3.79,0,0,0,.54,2.3,2.19,2.19,0,0,0,1.82.68,2.67,2.67,0,0,0,1.67-.53Z" transform="translate(-19.5 -14.66)"/><path d="M436.86,69.73h-11.3A6,6,0,0,0,427,73.85a5,5,0,0,0,3.78,1.46,7.86,7.86,0,0,0,5-1.79v2.41a9.31,9.31,0,0,1-5.58,1.53,6.74,6.74,0,0,1-5.33-2.18,8.91,8.91,0,0,1-1.93-6.13A8.77,8.77,0,0,1,425,63.06a6.82,6.82,0,0,1,5.26-2.35,6,6,0,0,1,4.86,2,8.47,8.47,0,0,1,1.72,5.64Zm-2.63-2.17a5.21,5.21,0,0,0-1.07-3.46,3.65,3.65,0,0,0-2.93-1.23,4.11,4.11,0,0,0-3.07,1.3,5.84,5.84,0,0,0-1.57,3.39Z" transform="translate(-19.5 -14.66)"/><path d="M462.36,69.73h-11.3a6,6,0,0,0,1.44,4.12,5,5,0,0,0,3.78,1.46,7.86,7.86,0,0,0,5-1.79v2.41a9.31,9.31,0,0,1-5.58,1.53,6.74,6.74,0,0,1-5.33-2.18,8.91,8.91,0,0,1-1.93-6.13,8.77,8.77,0,0,1,2.11-6.09,6.82,6.82,0,0,1,5.26-2.35,6,6,0,0,1,4.86,2,8.47,8.47,0,0,1,1.72,5.64Zm-2.63-2.17a5.21,5.21,0,0,0-1.07-3.46,3.65,3.65,0,0,0-2.93-1.23,4.11,4.11,0,0,0-3.07,1.3,5.84,5.84,0,0,0-1.57,3.39Z" transform="translate(-19.5 -14.66)"/><path d="M479.52,77.09H477V68q0-5.09-3.72-5.09a4,4,0,0,0-3.18,1.44A5.41,5.41,0,0,0,468.8,68v9.13h-2.57v-16h2.57v2.65h.06a5.78,5.78,0,0,1,5.25-3,4.88,4.88,0,0,1,4,1.7,7.53,7.53,0,0,1,1.4,4.9Z" transform="translate(-19.5 -14.66)"/><path d="M495.67,77.09h-2.56V53.4h2.56Z" transform="translate(-19.5 -14.66)"/><path d="M512.31,77.09h-2.56v-2.5h-.06a5.38,5.38,0,0,1-4.92,2.87A5.28,5.28,0,0,1,501,76.2a4.41,4.41,0,0,1-1.35-3.36q0-4.49,5.28-5.22l4.8-.67q0-4.08-3.3-4.08a7.87,7.87,0,0,0-5.22,2V62.21a10,10,0,0,1,5.44-1.5q5.64,0,5.64,6ZM509.75,69l-3.86.53a6.36,6.36,0,0,0-2.69.89,2.55,2.55,0,0,0-.9,2.24,2.45,2.45,0,0,0,.83,1.91,3.22,3.22,0,0,0,2.23.75A4.13,4.13,0,0,0,508.51,74a4.76,4.76,0,0,0,1.24-3.38Z" transform="translate(-19.5 -14.66)"/><path d="M539.56,77.09H537V74.37h-.06a6.46,6.46,0,0,1-10.32.94,8.77,8.77,0,0,1-1.81-5.85,9.63,9.63,0,0,1,2-6.36,6.62,6.62,0,0,1,5.33-2.39,5.13,5.13,0,0,1,4.8,2.6H537V53.4h2.56ZM537,69.85V67.49a4.6,4.6,0,0,0-1.28-3.28,4.33,4.33,0,0,0-3.25-1.34,4.43,4.43,0,0,0-3.69,1.72,7.5,7.5,0,0,0-1.34,4.75,6.74,6.74,0,0,0,1.29,4.36,4.21,4.21,0,0,0,3.46,1.61,4.38,4.38,0,0,0,3.47-1.55A5.76,5.76,0,0,0,537,69.85Z" transform="translate(-19.5 -14.66)"/><path d="M546.06,57a1.66,1.66,0,1,1,0-3.32,1.69,1.69,0,0,1,1.2.47,1.6,1.6,0,0,1,.49,1.2,1.56,1.56,0,0,1-.49,1.17A1.66,1.66,0,0,1,546.06,57Zm1.25,20.07h-2.56v-16h2.56Z" transform="translate(-19.5 -14.66)"/><path d="M560.84,63.68a3.13,3.13,0,0,0-1.93-.51,3.28,3.28,0,0,0-2.75,1.54,7.19,7.19,0,0,0-1.1,4.22v8.16H552.5v-16h2.56v3.29h.06a5.65,5.65,0,0,1,1.68-2.63,3.79,3.79,0,0,1,2.51-.94,4.31,4.31,0,0,1,1.53.21Z" transform="translate(-19.5 -14.66)"/><path d="M576.48,69.73H565.19a6,6,0,0,0,1.43,4.12,5,5,0,0,0,3.79,1.46,7.88,7.88,0,0,0,5-1.79v2.41a9.31,9.31,0,0,1-5.58,1.53,6.74,6.74,0,0,1-5.33-2.18,8.91,8.91,0,0,1-1.94-6.13,8.77,8.77,0,0,1,2.12-6.09,6.81,6.81,0,0,1,5.26-2.35,6,6,0,0,1,4.86,2,8.52,8.52,0,0,1,1.71,5.64Zm-2.62-2.17a5.26,5.26,0,0,0-1.07-3.46,3.65,3.65,0,0,0-2.93-1.23,4.12,4.12,0,0,0-3.08,1.3,5.89,5.89,0,0,0-1.56,3.39Z" transform="translate(-19.5 -14.66)"/><path d="M591.27,76.35a8.34,8.34,0,0,1-4.38,1.11,7.25,7.25,0,0,1-5.52-2.22,8.09,8.09,0,0,1-2.1-5.78,8.88,8.88,0,0,1,2.26-6.35,7.93,7.93,0,0,1,6.05-2.4,8.47,8.47,0,0,1,3.72.78v2.63a6.55,6.55,0,0,0-3.82-1.25,5.13,5.13,0,0,0-4,1.76,6.64,6.64,0,0,0-1.57,4.61,6.32,6.32,0,0,0,1.48,4.44,5.09,5.09,0,0,0,4,1.63,6.49,6.49,0,0,0,3.94-1.39Z" transform="translate(-19.5 -14.66)"/><path d="M606.05,76.35a8.34,8.34,0,0,1-4.38,1.11,7.25,7.25,0,0,1-5.52-2.22,8.09,8.09,0,0,1-2.1-5.78,8.88,8.88,0,0,1,2.26-6.35,7.93,7.93,0,0,1,6.05-2.4,8.44,8.44,0,0,1,3.72.78v2.63a6.55,6.55,0,0,0-3.81-1.25,5.14,5.14,0,0,0-4,1.76,6.69,6.69,0,0,0-1.57,4.61,6.32,6.32,0,0,0,1.48,4.44,5.09,5.09,0,0,0,4,1.63,6.49,6.49,0,0,0,3.94-1.39Z" transform="translate(-19.5 -14.66)"/><path d="M611.23,57a1.63,1.63,0,0,1-1.17-.46,1.61,1.61,0,0,1-.48-1.19,1.62,1.62,0,0,1,1.65-1.67,1.69,1.69,0,0,1,1.2.47,1.6,1.6,0,0,1,.49,1.2,1.56,1.56,0,0,1-.49,1.17A1.66,1.66,0,0,1,611.23,57Zm1.25,20.07h-2.56v-16h2.56Z" transform="translate(-19.5 -14.66)"/><path d="M624.36,77.46a7.38,7.38,0,0,1-5.66-2.24,8.27,8.27,0,0,1-2.12-6,8.64,8.64,0,0,1,2.2-6.29,7.92,7.92,0,0,1,6-2.27,7.18,7.18,0,0,1,5.59,2.21,8.7,8.7,0,0,1,2,6.1,8.58,8.58,0,0,1-2.17,6.14A7.58,7.58,0,0,1,624.36,77.46Zm.19-14.59a4.88,4.88,0,0,0-3.91,1.68,6.88,6.88,0,0,0-1.44,4.63,6.54,6.54,0,0,0,1.46,4.49,4.93,4.93,0,0,0,3.89,1.64,4.7,4.7,0,0,0,3.82-1.61,7,7,0,0,0,1.33-4.58,7.13,7.13,0,0,0-1.33-4.63A4.68,4.68,0,0,0,624.55,62.87Zm3.75-9.94-4.1,5.13h-2l3.48-5.13Z" transform="translate(-19.5 -14.66)"/><path d="M649.7,77.09h-2.56V68q0-5.09-3.72-5.09a4,4,0,0,0-3.18,1.44A5.36,5.36,0,0,0,639,68v9.13h-2.56v-16H639v2.65h.07a5.76,5.76,0,0,1,5.25-3,4.89,4.89,0,0,1,4,1.7,7.53,7.53,0,0,1,1.39,4.9Z" transform="translate(-19.5 -14.66)"/><path d="M677,77.09h-2.56V74.37h-.06a6.46,6.46,0,0,1-10.32.94,8.77,8.77,0,0,1-1.81-5.85,9.63,9.63,0,0,1,2-6.36,6.62,6.62,0,0,1,5.33-2.39,5.13,5.13,0,0,1,4.8,2.6h.06V53.4H677Zm-2.56-7.24V67.49a4.6,4.6,0,0,0-1.28-3.28,4.33,4.33,0,0,0-3.25-1.34,4.43,4.43,0,0,0-3.69,1.72,7.56,7.56,0,0,0-1.34,4.75,6.74,6.74,0,0,0,1.29,4.36,4.21,4.21,0,0,0,3.46,1.61,4.38,4.38,0,0,0,3.47-1.55A5.71,5.71,0,0,0,674.39,69.85Z" transform="translate(-19.5 -14.66)"/><path d="M695,69.73H683.7a6,6,0,0,0,1.44,4.12,5,5,0,0,0,3.78,1.46,7.86,7.86,0,0,0,5-1.79v2.41a9.31,9.31,0,0,1-5.58,1.53A6.76,6.76,0,0,1,683,75.28a8.91,8.91,0,0,1-1.93-6.13,8.77,8.77,0,0,1,2.11-6.09,6.84,6.84,0,0,1,5.26-2.35,6,6,0,0,1,4.86,2A8.47,8.47,0,0,1,695,68.38Zm-2.62-2.17a5.26,5.26,0,0,0-1.08-3.46,3.64,3.64,0,0,0-2.92-1.23,4.12,4.12,0,0,0-3.08,1.3,5.84,5.84,0,0,0-1.57,3.39Z" transform="translate(-19.5 -14.66)"/><path d="M701.44,77.09h-2.56V53.4h2.56Z" transform="translate(-19.5 -14.66)"/><path d="M728.25,69.73H717a6,6,0,0,0,1.44,4.12,5,5,0,0,0,3.78,1.46,7.86,7.86,0,0,0,5-1.79v2.41a9.29,9.29,0,0,1-5.58,1.53,6.76,6.76,0,0,1-5.33-2.18,8.91,8.91,0,0,1-1.93-6.13,8.77,8.77,0,0,1,2.11-6.09,6.84,6.84,0,0,1,5.26-2.35,6,6,0,0,1,4.86,2,8.47,8.47,0,0,1,1.72,5.64Zm-2.63-2.17a5.21,5.21,0,0,0-1.07-3.46,3.64,3.64,0,0,0-2.93-1.23,4.11,4.11,0,0,0-3.07,1.3A5.84,5.84,0,0,0,717,67.56Z" transform="translate(-19.5 -14.66)"/><path d="M734.69,76.42a10,10,0,0,1-1.59,6.07,5.32,5.32,0,0,1-4.54,2.13,4.82,4.82,0,0,1-2.12-.5V81.73a4.22,4.22,0,0,0,2.18.7c2.34,0,3.5-1.86,3.5-5.59V61.09h2.57ZM733.44,57a1.61,1.61,0,0,1-1.17-.46,1.58,1.58,0,0,1-.49-1.19,1.6,1.6,0,0,1,.49-1.2,1.62,1.62,0,0,1,1.17-.47,1.67,1.67,0,0,1,1.19.47,1.6,1.6,0,0,1,.49,1.2,1.56,1.56,0,0,1-.49,1.17A1.64,1.64,0,0,1,733.44,57Z" transform="translate(-19.5 -14.66)"/><path d="M752.73,69.73H741.44a6,6,0,0,0,1.44,4.12,4.93,4.93,0,0,0,3.78,1.46,7.84,7.84,0,0,0,5-1.79v2.41a9.26,9.26,0,0,1-5.57,1.53,6.74,6.74,0,0,1-5.33-2.18,8.91,8.91,0,0,1-1.94-6.13,8.77,8.77,0,0,1,2.12-6.09,6.81,6.81,0,0,1,5.26-2.35,6,6,0,0,1,4.86,2,8.52,8.52,0,0,1,1.71,5.64Zm-2.62-2.17A5.26,5.26,0,0,0,749,64.1a3.65,3.65,0,0,0-2.93-1.23,4.13,4.13,0,0,0-3.08,1.3,5.89,5.89,0,0,0-1.56,3.39Z" transform="translate(-19.5 -14.66)"/><path d="M36.31,107.21H30v6.29H27.92v-6.29h-6.3v-2.1h6.3V98.82H30v6.29h6.31Z" transform="translate(-19.5 -14.66)"/><path d="M48.62,107.67l3.69,7.82-2.83,0-2-5-.26-.67-.3-.78h-.08l-.26.35c-.1.13-.19.26-.29.38s-.18.25-.27.36l-.23.28-4.19,5.07h-3l7.2-8-3.59-8H45l1.93,5.09c.09.25.18.52.28.81s.16.52.22.69h.06l.22-.27.26-.35.29-.38.29-.34,4.35-5.25H55.8Z" transform="translate(-19.5 -14.66)"/><path d="M78.55,99.49l-7.36,18.56c-1.31,3.31-3.16,5-5.53,5a6.13,6.13,0,0,1-1.68-.2v-2.3a4.73,4.73,0,0,0,1.52.28q1.94,0,2.91-2.31l1.28-3-6.25-16h2.84l4.33,12.31c0,.16.16.56.33,1.22H71c0-.25.16-.65.31-1.19l4.55-12.34Z" transform="translate(-19.5 -14.66)"/><path d="M103,115.49h-2.56V113h-.06a5.28,5.28,0,0,1-4.94,2.9q-5.73,0-5.72-6.81V99.49h2.55v9.15q0,5.07,3.87,5.07a3.91,3.91,0,0,0,3.09-1.39,5.3,5.3,0,0,0,1.21-3.61V99.49H103Z" transform="translate(-19.5 -14.66)"/><path d="M121.45,115.49h-2.56v-9.13q0-5.08-3.72-5.09a4,4,0,0,0-3.18,1.44,5.36,5.36,0,0,0-1.26,3.65v9.13h-2.56v-16h2.56v2.65h.07a5.76,5.76,0,0,1,5.25-3,4.88,4.88,0,0,1,4,1.7,7.53,7.53,0,0,1,1.39,4.9Z" transform="translate(-19.5 -14.66)"/><path d="M147.62,99.49l-6.37,16h-2.52l-6.06-16h2.81l4.07,11.62a10.42,10.42,0,0,1,.56,2.24h.06a10.93,10.93,0,0,1,.5-2.18l4.25-11.68Z" transform="translate(-19.5 -14.66)"/><path d="M163.23,108.13H151.94a6,6,0,0,0,1.44,4.12,4.93,4.93,0,0,0,3.78,1.46,7.84,7.84,0,0,0,5-1.79v2.41a9.26,9.26,0,0,1-5.57,1.53,6.74,6.74,0,0,1-5.33-2.18,8.91,8.91,0,0,1-1.94-6.13,8.77,8.77,0,0,1,2.12-6.09,6.81,6.81,0,0,1,5.26-2.35,6,6,0,0,1,4.86,2,8.52,8.52,0,0,1,1.71,5.64ZM160.61,106a5.26,5.26,0,0,0-1.07-3.46,3.65,3.65,0,0,0-2.93-1.23,4.13,4.13,0,0,0-3.08,1.3A5.89,5.89,0,0,0,152,106Z" transform="translate(-19.5 -14.66)"/><path d="M178,114.75a8.34,8.34,0,0,1-4.38,1.11,7.25,7.25,0,0,1-5.52-2.22,8.09,8.09,0,0,1-2.1-5.78,8.88,8.88,0,0,1,2.26-6.35,7.93,7.93,0,0,1,6.05-2.4,8.47,8.47,0,0,1,3.72.78v2.63a6.55,6.55,0,0,0-3.82-1.25,5.13,5.13,0,0,0-4,1.76,6.64,6.64,0,0,0-1.57,4.61,6.32,6.32,0,0,0,1.48,4.44,5.09,5.09,0,0,0,4,1.63,6.49,6.49,0,0,0,3.94-1.39Z" transform="translate(-19.5 -14.66)"/><path d="M189.31,115.33a5,5,0,0,1-2.39.5q-4.2,0-4.2-4.69v-9.47H180V99.49h2.75V95.58l2.56-.83v4.74h4v2.18h-4v9a3.72,3.72,0,0,0,.55,2.3,2.17,2.17,0,0,0,1.81.68,2.65,2.65,0,0,0,1.67-.53Z" transform="translate(-19.5 -14.66)"/><path d="M199.42,115.86a7.4,7.4,0,0,1-5.66-2.24,8.31,8.31,0,0,1-2.12-6,8.68,8.68,0,0,1,2.2-6.29,7.94,7.94,0,0,1,6-2.27,7.17,7.17,0,0,1,5.58,2.21,10,10,0,0,1-.15,12.24A7.62,7.62,0,0,1,199.42,115.86Zm.19-14.59A4.88,4.88,0,0,0,195.7,103a6.88,6.88,0,0,0-1.43,4.63,6.54,6.54,0,0,0,1.45,4.49,4.94,4.94,0,0,0,3.89,1.64,4.69,4.69,0,0,0,3.82-1.61,7,7,0,0,0,1.34-4.58,7.14,7.14,0,0,0-1.34-4.63A4.66,4.66,0,0,0,199.61,101.27Z" transform="translate(-19.5 -14.66)"/><path d="M219.83,102.08a3.18,3.18,0,0,0-1.94-.51,3.26,3.26,0,0,0-2.74,1.54,7.12,7.12,0,0,0-1.1,4.22v8.16h-2.57v-16h2.57v3.29h.06a5.56,5.56,0,0,1,1.67-2.63,3.81,3.81,0,0,1,2.52-.94,4.38,4.38,0,0,1,1.53.21Z" transform="translate(-19.5 -14.66)"/><path d="M244.31,115.49h-2.56V113h-.06a5.28,5.28,0,0,1-4.94,2.9q-5.72,0-5.72-6.81V99.49h2.55v9.15q0,5.07,3.87,5.07a3.91,3.91,0,0,0,3.09-1.39,5.25,5.25,0,0,0,1.21-3.61V99.49h2.56Z" transform="translate(-19.5 -14.66)"/><path d="M262.77,115.49H260.2v-9.13q0-5.08-3.72-5.09a4,4,0,0,0-3.18,1.44,5.41,5.41,0,0,0-1.25,3.65v9.13h-2.57v-16h2.57v2.65h.06a5.78,5.78,0,0,1,5.25-3,4.91,4.91,0,0,1,4,1.7,7.59,7.59,0,0,1,1.39,4.9Z" transform="translate(-19.5 -14.66)"/><path d="M268.91,95.42a1.65,1.65,0,0,1-1.18-.46,1.61,1.61,0,0,1-.48-1.19,1.63,1.63,0,0,1,.48-1.2,1.73,1.73,0,0,1,2.37,0,1.6,1.6,0,0,1,.49,1.2,1.56,1.56,0,0,1-.49,1.17A1.64,1.64,0,0,1,268.91,95.42Zm1.25,20.07h-2.57v-16h2.57Z" transform="translate(-19.5 -14.66)"/><path d="M282.77,115.33a5,5,0,0,1-2.39.5q-4.22,0-4.21-4.69v-9.47h-2.75V99.49h2.75V95.58l2.56-.83v4.74h4v2.18h-4v9a3.79,3.79,0,0,0,.55,2.3,2.18,2.18,0,0,0,1.81.68,2.68,2.68,0,0,0,1.68-.53Z" transform="translate(-19.5 -14.66)"/><path d="M297.64,115.49h-2.56V113H295a5.39,5.39,0,0,1-4.93,2.87,5.27,5.27,0,0,1-3.74-1.26,4.41,4.41,0,0,1-1.35-3.36q0-4.48,5.28-5.22l4.8-.67q0-4.08-3.3-4.08a7.83,7.83,0,0,0-5.22,2v-2.63a10,10,0,0,1,5.44-1.5q5.64,0,5.64,6Zm-2.56-8.1-3.86.53a6.36,6.36,0,0,0-2.69.89,2.55,2.55,0,0,0-.91,2.24,2.42,2.42,0,0,0,.84,1.91,3.22,3.22,0,0,0,2.23.75,4.13,4.13,0,0,0,3.15-1.34,4.81,4.81,0,0,0,1.24-3.38Z" transform="translate(-19.5 -14.66)"/><path d="M310.81,102.08a3.15,3.15,0,0,0-1.93-.51,3.28,3.28,0,0,0-2.75,1.54,7.19,7.19,0,0,0-1.1,4.22v8.16h-2.56v-16H305v3.29h.06a5.65,5.65,0,0,1,1.68-2.63,3.79,3.79,0,0,1,2.51-.94,4.31,4.31,0,0,1,1.53.21Z" transform="translate(-19.5 -14.66)"/><path d="M314.91,95.42a1.65,1.65,0,0,1-1.18-.46,1.61,1.61,0,0,1-.48-1.19,1.63,1.63,0,0,1,.48-1.2,1.73,1.73,0,0,1,2.37,0,1.6,1.6,0,0,1,.49,1.2,1.56,1.56,0,0,1-.49,1.17A1.64,1.64,0,0,1,314.91,95.42Zm1.25,20.07h-2.57v-16h2.57Z" transform="translate(-19.5 -14.66)"/><path d="M328,115.86a7.4,7.4,0,0,1-5.66-2.24,8.31,8.31,0,0,1-2.12-6,8.64,8.64,0,0,1,2.2-6.29,7.94,7.94,0,0,1,6-2.27,7.17,7.17,0,0,1,5.58,2.21,10,10,0,0,1-.15,12.24A7.62,7.62,0,0,1,328,115.86Zm.19-14.59a4.88,4.88,0,0,0-3.91,1.68,6.88,6.88,0,0,0-1.43,4.63,6.54,6.54,0,0,0,1.45,4.49,4.94,4.94,0,0,0,3.89,1.64A4.69,4.69,0,0,0,332,112.1a7,7,0,0,0,1.34-4.58,7.14,7.14,0,0,0-1.34-4.63A4.66,4.66,0,0,0,328.22,101.27Z" transform="translate(-19.5 -14.66)"/><path d="M362.52,122.85H360V112.74h-.06a5.73,5.73,0,0,1-5.47,3.12,6,6,0,0,1-4.83-2.15,8.72,8.72,0,0,1-1.82-5.85,9.52,9.52,0,0,1,2-6.36,6.64,6.64,0,0,1,5.37-2.39,5,5,0,0,1,4.75,2.6H360V99.49h2.57ZM360,108.28V106a4.64,4.64,0,0,0-1.29-3.33,4.3,4.3,0,0,0-3.27-1.36,4.42,4.42,0,0,0-3.66,1.71,7.68,7.68,0,0,0-1.34,4.82,6.61,6.61,0,0,0,1.3,4.34,4.15,4.15,0,0,0,3.34,1.57,4.54,4.54,0,0,0,3.59-1.54A5.72,5.72,0,0,0,360,108.28Z" transform="translate(-19.5 -14.66)"/><path d="M380.64,115.49h-2.56V113H378a5.28,5.28,0,0,1-4.94,2.9q-5.71,0-5.72-6.81V99.49h2.55v9.15q0,5.07,3.87,5.07a3.91,3.91,0,0,0,3.09-1.39,5.3,5.3,0,0,0,1.21-3.61V99.49h2.56Z" transform="translate(-19.5 -14.66)"/><path d="M398.67,108.13H387.38a6,6,0,0,0,1.43,4.12,5,5,0,0,0,3.78,1.46,7.84,7.84,0,0,0,5-1.79v2.41a9.27,9.27,0,0,1-5.58,1.53,6.72,6.72,0,0,1-5.32-2.18,8.86,8.86,0,0,1-1.94-6.13,8.72,8.72,0,0,1,2.12-6.09,6.8,6.8,0,0,1,5.25-2.35,6,6,0,0,1,4.86,2,8.47,8.47,0,0,1,1.72,5.64ZM396.05,106A5.26,5.26,0,0,0,395,102.5a3.66,3.66,0,0,0-2.93-1.23,4.12,4.12,0,0,0-3.08,1.3,5.77,5.77,0,0,0-1.56,3.39Z" transform="translate(-19.5 -14.66)"/><path d="M422.77,115.49H420.2V113h-.06a5.37,5.37,0,0,1-4.92,2.87,5.26,5.26,0,0,1-3.74-1.26,4.41,4.41,0,0,1-1.36-3.36q0-4.48,5.29-5.22l4.79-.67q0-4.08-3.29-4.08a7.83,7.83,0,0,0-5.22,2v-2.63a9.89,9.89,0,0,1,5.43-1.5c3.76,0,5.65,2,5.65,6Zm-2.57-8.1-3.86.53a6.31,6.31,0,0,0-2.68.89,2.53,2.53,0,0,0-.91,2.24,2.42,2.42,0,0,0,.84,1.91,3.17,3.17,0,0,0,2.22.75,4.13,4.13,0,0,0,3.15-1.34A4.76,4.76,0,0,0,420.2,109Z" transform="translate(-19.5 -14.66)"/><path d="M430.22,113.17h-.06v9.68h-2.57V99.49h2.57v2.81h.06a6,6,0,0,1,5.53-3.19,5.88,5.88,0,0,1,4.83,2.15,8.93,8.93,0,0,1,1.73,5.76,9.92,9.92,0,0,1-1.95,6.43,6.49,6.49,0,0,1-5.34,2.41A5.33,5.33,0,0,1,430.22,113.17Zm-.06-6.45V109a4.74,4.74,0,0,0,1.29,3.36,4.24,4.24,0,0,0,3.27,1.39,4.3,4.3,0,0,0,3.65-1.79,8.14,8.14,0,0,0,1.32-5,6.42,6.42,0,0,0-1.24-4.19,4.07,4.07,0,0,0-3.34-1.51,4.54,4.54,0,0,0-3.59,1.55A5.71,5.71,0,0,0,430.16,106.72Z" transform="translate(-19.5 -14.66)"/><path d="M459.34,115.49h-2.56V113h-.06a5.27,5.27,0,0,1-4.94,2.9q-5.71,0-5.72-6.81V99.49h2.55v9.15q0,5.07,3.87,5.07a3.91,3.91,0,0,0,3.09-1.39,5.25,5.25,0,0,0,1.21-3.61V99.49h2.56Z" transform="translate(-19.5 -14.66)"/><path d="M477.8,115.49h-2.57v-9.13q0-5.08-3.71-5.09a4,4,0,0,0-3.18,1.44,5.36,5.36,0,0,0-1.26,3.65v9.13h-2.56v-16h2.56v2.65h.06a5.78,5.78,0,0,1,5.25-3,4.91,4.91,0,0,1,4,1.7,7.59,7.59,0,0,1,1.39,4.9Z" transform="translate(-19.5 -14.66)"/><path d="M490.05,115.33a5,5,0,0,1-2.39.5q-4.21,0-4.21-4.69v-9.47H480.7V99.49h2.75V95.58l2.57-.83v4.74h4v2.18h-4v9a3.79,3.79,0,0,0,.54,2.3,2.19,2.19,0,0,0,1.82.68,2.67,2.67,0,0,0,1.67-.53Z" transform="translate(-19.5 -14.66)"/><path d="M506.33,108.13H495a6,6,0,0,0,1.44,4.12,5,5,0,0,0,3.78,1.46,7.86,7.86,0,0,0,5-1.79v2.41a9.31,9.31,0,0,1-5.58,1.53,6.74,6.74,0,0,1-5.33-2.18,8.91,8.91,0,0,1-1.93-6.13,8.77,8.77,0,0,1,2.11-6.09,6.82,6.82,0,0,1,5.26-2.35,6,6,0,0,1,4.86,2,8.52,8.52,0,0,1,1.72,5.64ZM503.7,106a5.21,5.21,0,0,0-1.07-3.46,3.65,3.65,0,0,0-2.93-1.23,4.13,4.13,0,0,0-3.08,1.3,5.89,5.89,0,0,0-1.56,3.39Z" transform="translate(-19.5 -14.66)"/><path d="M531.83,108.13h-11.3a6,6,0,0,0,1.44,4.12,5,5,0,0,0,3.78,1.46,7.86,7.86,0,0,0,5-1.79v2.41a9.31,9.31,0,0,1-5.58,1.53,6.74,6.74,0,0,1-5.33-2.18,8.91,8.91,0,0,1-1.93-6.13,8.77,8.77,0,0,1,2.11-6.09,6.82,6.82,0,0,1,5.26-2.35,6,6,0,0,1,4.86,2,8.52,8.52,0,0,1,1.72,5.64ZM529.2,106a5.21,5.21,0,0,0-1.07-3.46,3.65,3.65,0,0,0-2.93-1.23,4.13,4.13,0,0,0-3.08,1.3,5.89,5.89,0,0,0-1.56,3.39Z" transform="translate(-19.5 -14.66)"/><path d="M549,115.49h-2.56v-9.13q0-5.08-3.72-5.09a4,4,0,0,0-3.18,1.44,5.36,5.36,0,0,0-1.25,3.65v9.13H535.7v-16h2.57v2.65h.06a5.78,5.78,0,0,1,5.25-3,4.88,4.88,0,0,1,4,1.7,7.53,7.53,0,0,1,1.39,4.9Z" transform="translate(-19.5 -14.66)"/><path d="M565.14,115.49h-2.56V91.8h2.56Z" transform="translate(-19.5 -14.66)"/><path d="M581.78,115.49h-2.56V113h-.06a5.39,5.39,0,0,1-4.93,2.87,5.27,5.27,0,0,1-3.74-1.26,4.41,4.41,0,0,1-1.35-3.36q0-4.48,5.28-5.22l4.8-.67q0-4.08-3.3-4.08a7.83,7.83,0,0,0-5.22,2v-2.63a10,10,0,0,1,5.44-1.5q5.64,0,5.64,6Zm-2.56-8.1-3.86.53a6.36,6.36,0,0,0-2.69.89,2.55,2.55,0,0,0-.9,2.24,2.42,2.42,0,0,0,.83,1.91,3.22,3.22,0,0,0,2.23.75,4.13,4.13,0,0,0,3.15-1.34,4.81,4.81,0,0,0,1.24-3.38Z" transform="translate(-19.5 -14.66)"/><path d="M609,115.49h-2.56v-2.72h-.06a6.46,6.46,0,0,1-10.32.94,8.77,8.77,0,0,1-1.81-5.85,9.63,9.63,0,0,1,2-6.36,6.6,6.6,0,0,1,5.33-2.39,5.13,5.13,0,0,1,4.8,2.6h.06V91.8H609Zm-2.56-7.24v-2.36a4.6,4.6,0,0,0-1.28-3.28,4.33,4.33,0,0,0-3.25-1.34,4.43,4.43,0,0,0-3.69,1.72,7.5,7.5,0,0,0-1.34,4.75,6.74,6.74,0,0,0,1.29,4.36,4.2,4.2,0,0,0,3.46,1.61,4.38,4.38,0,0,0,3.47-1.55A5.76,5.76,0,0,0,606.47,108.25Z" transform="translate(-19.5 -14.66)"/><path d="M615.53,95.42a1.66,1.66,0,1,1,0-3.32,1.69,1.69,0,0,1,1.2.47,1.64,1.64,0,0,1,.49,1.2,1.6,1.6,0,0,1-.49,1.17A1.66,1.66,0,0,1,615.53,95.42Zm1.25,20.07h-2.56v-16h2.56Z" transform="translate(-19.5 -14.66)"/><path d="M630.31,102.08a3.15,3.15,0,0,0-1.93-.51,3.28,3.28,0,0,0-2.75,1.54,7.19,7.19,0,0,0-1.1,4.22v8.16H622v-16h2.56v3.29h.06a5.65,5.65,0,0,1,1.68-2.63,3.79,3.79,0,0,1,2.51-.94,4.31,4.31,0,0,1,1.53.21Z" transform="translate(-19.5 -14.66)"/><path d="M646,108.13H634.66a6,6,0,0,0,1.43,4.12,5,5,0,0,0,3.79,1.46,7.84,7.84,0,0,0,5-1.79v2.41a9.26,9.26,0,0,1-5.57,1.53,6.73,6.73,0,0,1-5.33-2.18,8.91,8.91,0,0,1-1.94-6.13,8.77,8.77,0,0,1,2.12-6.09,6.81,6.81,0,0,1,5.26-2.35,6,6,0,0,1,4.85,2,8.47,8.47,0,0,1,1.72,5.64ZM643.33,106a5.26,5.26,0,0,0-1.07-3.46,3.66,3.66,0,0,0-2.93-1.23,4.12,4.12,0,0,0-3.08,1.3,5.83,5.83,0,0,0-1.56,3.39Z" transform="translate(-19.5 -14.66)"/><path d="M660.73,114.75a8.3,8.3,0,0,1-4.37,1.11,7.25,7.25,0,0,1-5.52-2.22,8.05,8.05,0,0,1-2.11-5.78,8.88,8.88,0,0,1,2.27-6.35,7.93,7.93,0,0,1,6-2.4,8.47,8.47,0,0,1,3.72.78v2.63a6.55,6.55,0,0,0-3.82-1.25,5.13,5.13,0,0,0-4,1.76,6.64,6.64,0,0,0-1.57,4.61,6.32,6.32,0,0,0,1.48,4.44,5.09,5.09,0,0,0,4,1.63,6.46,6.46,0,0,0,3.93-1.39Z" transform="translate(-19.5 -14.66)"/><path d="M675.52,114.75a8.34,8.34,0,0,1-4.38,1.11,7.25,7.25,0,0,1-5.52-2.22,8.09,8.09,0,0,1-2.1-5.78,8.88,8.88,0,0,1,2.26-6.35,7.93,7.93,0,0,1,6.05-2.4,8.47,8.47,0,0,1,3.72.78v2.63a6.55,6.55,0,0,0-3.82-1.25,5.13,5.13,0,0,0-4,1.76,6.64,6.64,0,0,0-1.57,4.61,6.32,6.32,0,0,0,1.48,4.44,5.09,5.09,0,0,0,4,1.63,6.49,6.49,0,0,0,3.94-1.39Z" transform="translate(-19.5 -14.66)"/><path d="M680.7,95.42a1.66,1.66,0,1,1,0-3.32,1.69,1.69,0,0,1,1.2.47,1.6,1.6,0,0,1,.49,1.2,1.56,1.56,0,0,1-.49,1.17A1.66,1.66,0,0,1,680.7,95.42ZM682,115.49h-2.56v-16H682Z" transform="translate(-19.5 -14.66)"/><path d="M693.83,115.86a7.42,7.42,0,0,1-5.67-2.24,8.31,8.31,0,0,1-2.11-6,8.64,8.64,0,0,1,2.2-6.29,7.92,7.92,0,0,1,6-2.27,7.18,7.18,0,0,1,5.59,2.21,8.7,8.7,0,0,1,2,6.1,8.58,8.58,0,0,1-2.17,6.14A7.6,7.6,0,0,1,693.83,115.86Zm.19-14.59a4.88,4.88,0,0,0-3.91,1.68,6.88,6.88,0,0,0-1.44,4.63,6.59,6.59,0,0,0,1.45,4.49,5,5,0,0,0,3.9,1.64,4.7,4.7,0,0,0,3.82-1.61,7,7,0,0,0,1.33-4.58,7.13,7.13,0,0,0-1.33-4.63A4.68,4.68,0,0,0,694,101.27Zm3.75-9.94-4.1,5.13h-2l3.48-5.13Z" transform="translate(-19.5 -14.66)"/><path d="M719.17,115.49h-2.56v-9.13q0-5.08-3.72-5.09a4,4,0,0,0-3.18,1.44,5.36,5.36,0,0,0-1.26,3.65v9.13h-2.56v-16h2.56v2.65h.07a5.76,5.76,0,0,1,5.25-3,4.89,4.89,0,0,1,4,1.7,7.53,7.53,0,0,1,1.39,4.9Z" transform="translate(-19.5 -14.66)"/><path d="M34.25,153.89H31.69v-2.72h-.07a5.91,5.91,0,0,1-5.5,3.09,6,6,0,0,1-4.82-2.15,8.82,8.82,0,0,1-1.8-5.85,9.63,9.63,0,0,1,2-6.36,6.6,6.6,0,0,1,5.33-2.39,5.12,5.12,0,0,1,4.79,2.6h.07V130.2h2.56Zm-2.56-7.24v-2.36A4.6,4.6,0,0,0,30.41,141a4.33,4.33,0,0,0-3.25-1.34,4.4,4.4,0,0,0-3.69,1.72,7.5,7.5,0,0,0-1.35,4.75,6.74,6.74,0,0,0,1.29,4.36,4.23,4.23,0,0,0,3.47,1.61,4.38,4.38,0,0,0,3.47-1.55A5.76,5.76,0,0,0,31.69,146.65Z" transform="translate(-19.5 -14.66)"/><path d="M52.3,146.53H41a6,6,0,0,0,1.44,4.12,4.93,4.93,0,0,0,3.78,1.46,7.91,7.91,0,0,0,5-1.78v2.4a9.31,9.31,0,0,1-5.58,1.53,6.74,6.74,0,0,1-5.33-2.18A8.91,8.91,0,0,1,38.34,146a8.77,8.77,0,0,1,2.12-6.09,6.81,6.81,0,0,1,5.26-2.35,6,6,0,0,1,4.86,2,8.52,8.52,0,0,1,1.72,5.64Zm-2.63-2.17a5.26,5.26,0,0,0-1.07-3.46,3.65,3.65,0,0,0-2.93-1.23,4.13,4.13,0,0,0-3.08,1.3A5.89,5.89,0,0,0,41,144.36Z" transform="translate(-19.5 -14.66)"/><path d="M58.73,153.89H56.17V130.2h2.56Z" transform="translate(-19.5 -14.66)"/><path d="M85.55,146.53H74.25a6,6,0,0,0,1.44,4.12,4.93,4.93,0,0,0,3.78,1.46,7.91,7.91,0,0,0,5-1.78v2.4a9.31,9.31,0,0,1-5.58,1.53,6.74,6.74,0,0,1-5.33-2.18A8.91,8.91,0,0,1,71.59,146a8.77,8.77,0,0,1,2.12-6.09A6.82,6.82,0,0,1,79,137.51a6,6,0,0,1,4.86,2,8.52,8.52,0,0,1,1.72,5.64Zm-2.63-2.17a5.26,5.26,0,0,0-1.07-3.46,3.65,3.65,0,0,0-2.93-1.23,4.13,4.13,0,0,0-3.08,1.3,5.89,5.89,0,0,0-1.56,3.39Z" transform="translate(-19.5 -14.66)"/><path d="M92,153.22a10,10,0,0,1-1.58,6.07,5.32,5.32,0,0,1-4.54,2.13,4.89,4.89,0,0,1-2.13-.5v-2.39a4.25,4.25,0,0,0,2.19.7q3.49,0,3.5-5.59V137.89H92Zm-1.25-19.39a1.66,1.66,0,0,1-1.17-.47,1.61,1.61,0,0,1-.48-1.19,1.63,1.63,0,0,1,.48-1.2,1.66,1.66,0,0,1,1.17-.47,1.69,1.69,0,0,1,1.2.47,1.6,1.6,0,0,1,.49,1.2,1.56,1.56,0,0,1-.49,1.17A1.67,1.67,0,0,1,90.73,133.83Z" transform="translate(-19.5 -14.66)"/><path d="M110,146.53H98.73a6,6,0,0,0,1.44,4.12,5,5,0,0,0,3.78,1.46,7.91,7.91,0,0,0,5-1.78v2.4a9.27,9.27,0,0,1-5.58,1.53A6.72,6.72,0,0,1,98,152.08,8.86,8.86,0,0,1,96.08,146a8.72,8.72,0,0,1,2.12-6.09,6.8,6.8,0,0,1,5.25-2.35,6,6,0,0,1,4.86,2,8.47,8.47,0,0,1,1.72,5.64Zm-2.62-2.17a5.26,5.26,0,0,0-1.07-3.46,3.66,3.66,0,0,0-2.93-1.23,4.12,4.12,0,0,0-3.08,1.3,5.77,5.77,0,0,0-1.56,3.39Z" transform="translate(-19.5 -14.66)"/><path d="M138.39,145.61h-6.31v6.29H130v-6.29h-6.3v-2.1H130v-6.29h2.08v6.29h6.31Z" transform="translate(-19.5 -14.66)"/><path d="M147.7,156.54a18.15,18.15,0,0,1-1.45,2.07,9.66,9.66,0,0,1-1.54,1.53,6.16,6.16,0,0,1-1.72.94,5.89,5.89,0,0,1-2,.32,4.9,4.9,0,0,1-.8-.07,3.91,3.91,0,0,1-.71-.15l.48-2.26a2.42,2.42,0,0,0,.61.2,3.81,3.81,0,0,0,.74.08,3.39,3.39,0,0,0,1.94-.59,6.16,6.16,0,0,0,1.64-1.82l1.92-3-2.91-15.94h2.66l1.86,12.28a5.14,5.14,0,0,1,.05.66,3.24,3.24,0,0,1,0,.56h.09c.05-.13.13-.3.24-.53a5.32,5.32,0,0,1,.37-.66l7.09-12.31h2.83Z" transform="translate(-19.5 -14.66)"/><path d="M162.39,150.33l-2.5,7.68h-1.83l1.83-7.68Z" transform="translate(-19.5 -14.66)"/><path d="M187.2,153.89h-2.56v-2.5h-.06a5.38,5.38,0,0,1-4.92,2.87,5.28,5.28,0,0,1-3.75-1.26,4.41,4.41,0,0,1-1.35-3.36q0-4.48,5.28-5.22l4.8-.67q0-4.08-3.3-4.08a7.92,7.92,0,0,0-5.22,2V139a10,10,0,0,1,5.44-1.5q5.64,0,5.64,6Zm-2.56-8.1-3.86.54a6.23,6.23,0,0,0-2.69.88,2.55,2.55,0,0,0-.9,2.24,2.45,2.45,0,0,0,.83,1.91,3.22,3.22,0,0,0,2.23.75,4.13,4.13,0,0,0,3.15-1.34,4.76,4.76,0,0,0,1.24-3.38Z" transform="translate(-19.5 -14.66)"/><path d="M191.06,153.31v-2.75a7.6,7.6,0,0,0,4.61,1.55c2.25,0,3.38-.75,3.38-2.25a2,2,0,0,0-.29-1.09A3.08,3.08,0,0,0,198,148a6.62,6.62,0,0,0-1.16-.62l-1.43-.57a17.66,17.66,0,0,1-1.87-.85,5.57,5.57,0,0,1-1.34-1,3.52,3.52,0,0,1-.81-1.22,4.21,4.21,0,0,1-.28-1.61,3.83,3.83,0,0,1,.52-2,4.54,4.54,0,0,1,1.37-1.46,6.54,6.54,0,0,1,2-.88,8.57,8.57,0,0,1,2.27-.3,9.21,9.21,0,0,1,3.72.72v2.6a7.18,7.18,0,0,0-4.06-1.16,4.72,4.72,0,0,0-1.3.16,3.24,3.24,0,0,0-1,.46,2.15,2.15,0,0,0-.64.71,1.82,1.82,0,0,0-.23.92A2.12,2.12,0,0,0,194,143a2.32,2.32,0,0,0,.66.75,5.48,5.48,0,0,0,1.06.59l1.42.58c.71.27,1.35.55,1.91.83a6.83,6.83,0,0,1,1.44,1,3.9,3.9,0,0,1,.91,1.24,4.09,4.09,0,0,1,.32,1.68,3.92,3.92,0,0,1-.52,2.06,4.51,4.51,0,0,1-1.4,1.45,6.35,6.35,0,0,1-2,.86,9.78,9.78,0,0,1-2.39.28A9.16,9.16,0,0,1,191.06,153.31Z" transform="translate(-19.5 -14.66)"/><path d="M210.47,129.73l-4.09,5.13h-2l3.49-5.13Zm-2.3,24.16h-2.56v-16h2.56Z" transform="translate(-19.5 -14.66)"/><path d="M221.16,153.31v-2.75a7.58,7.58,0,0,0,4.61,1.55c2.25,0,3.37-.75,3.37-2.25a2,2,0,0,0-.29-1.09,2.79,2.79,0,0,0-.78-.79,6.28,6.28,0,0,0-1.16-.62l-1.43-.57a17.44,17.44,0,0,1-1.86-.85,5.44,5.44,0,0,1-1.35-1,3.52,3.52,0,0,1-.81-1.22,4.42,4.42,0,0,1-.27-1.61,3.83,3.83,0,0,1,.51-2,4.58,4.58,0,0,1,1.38-1.46,6.37,6.37,0,0,1,2-.88,8.57,8.57,0,0,1,2.27-.3,9.14,9.14,0,0,1,3.72.72v2.6a7.18,7.18,0,0,0-4.06-1.16,4.77,4.77,0,0,0-1.3.16,3.48,3.48,0,0,0-1,.46,2.15,2.15,0,0,0-.64.71,1.93,1.93,0,0,0-.23.92A2.23,2.23,0,0,0,224,143a2.32,2.32,0,0,0,.66.75,5.59,5.59,0,0,0,1.07.59c.41.18.89.37,1.42.58a20.67,20.67,0,0,1,1.9.83,6.35,6.35,0,0,1,1.44,1,3.93,3.93,0,0,1,.92,1.24,4.09,4.09,0,0,1,.32,1.68,3.92,3.92,0,0,1-.53,2.06,4.4,4.4,0,0,1-1.4,1.45,6.3,6.3,0,0,1-2,.86,9.84,9.84,0,0,1-2.39.28A9.1,9.1,0,0,1,221.16,153.31Z" transform="translate(-19.5 -14.66)"/><path d="M248.56,146.53H237.27a6,6,0,0,0,1.43,4.12,5,5,0,0,0,3.78,1.46,7.89,7.89,0,0,0,5-1.78v2.4a9.26,9.26,0,0,1-5.57,1.53,6.73,6.73,0,0,1-5.33-2.18,8.86,8.86,0,0,1-1.94-6.13,8.72,8.72,0,0,1,2.12-6.09,6.8,6.8,0,0,1,5.25-2.35,6,6,0,0,1,4.86,2,8.47,8.47,0,0,1,1.72,5.64Zm-2.62-2.17a5.26,5.26,0,0,0-1.07-3.46,3.66,3.66,0,0,0-2.93-1.23,4.12,4.12,0,0,0-3.08,1.3,5.83,5.83,0,0,0-1.56,3.39Z" transform="translate(-19.5 -14.66)"/><path d="M263.83,151.58h-.06v9.67H261.2V137.89h2.57v2.81h.06a6.07,6.07,0,0,1,5.53-3.19,5.88,5.88,0,0,1,4.83,2.15,8.93,8.93,0,0,1,1.73,5.76,9.92,9.92,0,0,1-1.95,6.43,6.49,6.49,0,0,1-5.35,2.41A5.34,5.34,0,0,1,263.83,151.58Zm-.06-6.46v2.24a4.78,4.78,0,0,0,1.28,3.36,4.26,4.26,0,0,0,3.28,1.39,4.31,4.31,0,0,0,3.65-1.78,8.19,8.19,0,0,0,1.32-5,6.44,6.44,0,0,0-1.24-4.19,4.08,4.08,0,0,0-3.34-1.51,4.57,4.57,0,0,0-3.6,1.55A5.75,5.75,0,0,0,263.77,145.12Z" transform="translate(-19.5 -14.66)"/><path d="M293,153.89h-2.56v-2.53h-.06a5.27,5.27,0,0,1-4.94,2.9q-5.72,0-5.72-6.81v-9.56h2.55V147q0,5.07,3.87,5.07a3.91,3.91,0,0,0,3.09-1.39,5.25,5.25,0,0,0,1.21-3.61v-9.22H293Z" transform="translate(-19.5 -14.66)"/><path d="M311,146.53H299.69a6,6,0,0,0,1.43,4.12,5,5,0,0,0,3.79,1.46,7.93,7.93,0,0,0,5-1.78v2.4a9.31,9.31,0,0,1-5.58,1.53,6.74,6.74,0,0,1-5.33-2.18A8.91,8.91,0,0,1,297,146a8.77,8.77,0,0,1,2.12-6.09,6.81,6.81,0,0,1,5.26-2.35,6,6,0,0,1,4.86,2,8.52,8.52,0,0,1,1.71,5.64Zm-2.62-2.17a5.26,5.26,0,0,0-1.07-3.46,3.65,3.65,0,0,0-2.93-1.23,4.12,4.12,0,0,0-3.08,1.3,5.89,5.89,0,0,0-1.56,3.39Z" transform="translate(-19.5 -14.66)"/><path d="M328.52,153.89H326v-2.72h-.06a6.46,6.46,0,0,1-10.32.94,8.82,8.82,0,0,1-1.8-5.85,9.58,9.58,0,0,1,2-6.36,6.6,6.6,0,0,1,5.32-2.39,5.13,5.13,0,0,1,4.8,2.6H326V130.2h2.57ZM326,146.65v-2.36a4.56,4.56,0,0,0-1.28-3.28,4.31,4.31,0,0,0-3.25-1.34,4.43,4.43,0,0,0-3.69,1.72,7.56,7.56,0,0,0-1.34,4.75,6.74,6.74,0,0,0,1.29,4.36,4.21,4.21,0,0,0,3.46,1.61,4.39,4.39,0,0,0,3.48-1.55A5.76,5.76,0,0,0,326,146.65Z" transform="translate(-19.5 -14.66)"/><path d="M346.56,146.53H335.27a6,6,0,0,0,1.43,4.12,5,5,0,0,0,3.78,1.46,7.89,7.89,0,0,0,5-1.78v2.4a9.26,9.26,0,0,1-5.57,1.53,6.73,6.73,0,0,1-5.33-2.18,8.86,8.86,0,0,1-1.94-6.13,8.72,8.72,0,0,1,2.12-6.09,6.8,6.8,0,0,1,5.25-2.35,6,6,0,0,1,4.86,2,8.47,8.47,0,0,1,1.72,5.64Zm-2.62-2.17a5.26,5.26,0,0,0-1.07-3.46,3.66,3.66,0,0,0-2.93-1.23,4.12,4.12,0,0,0-3.08,1.3,5.83,5.83,0,0,0-1.56,3.39Z" transform="translate(-19.5 -14.66)"/><path d="M372.06,146.53H360.77a6,6,0,0,0,1.43,4.12,5,5,0,0,0,3.78,1.46,7.89,7.89,0,0,0,5-1.78v2.4a9.26,9.26,0,0,1-5.57,1.53,6.73,6.73,0,0,1-5.33-2.18,8.86,8.86,0,0,1-1.94-6.13,8.72,8.72,0,0,1,2.12-6.09,6.8,6.8,0,0,1,5.25-2.35,6,6,0,0,1,4.86,2,8.47,8.47,0,0,1,1.72,5.64Zm-2.62-2.17a5.26,5.26,0,0,0-1.07-3.46,3.66,3.66,0,0,0-2.93-1.23,4.12,4.12,0,0,0-3.08,1.3,5.83,5.83,0,0,0-1.56,3.39Z" transform="translate(-19.5 -14.66)"/><path d="M387.62,137.89,382.25,146l5.28,7.91h-3l-3.14-5.19c-.2-.32-.44-.73-.71-1.22h-.06c-.05.1-.3.5-.73,1.22l-3.21,5.19h-2.95L379.2,146,374,137.89h3l3.09,5.47c.23.4.46.82.67,1.25h.07l4-6.72Z" transform="translate(-19.5 -14.66)"/><path d="M393.25,151.58h-.06v9.67h-2.57V137.89h2.57v2.81h.06a6.07,6.07,0,0,1,5.53-3.19,5.88,5.88,0,0,1,4.83,2.15,8.87,8.87,0,0,1,1.73,5.76,9.92,9.92,0,0,1-1.95,6.43,6.49,6.49,0,0,1-5.34,2.41A5.35,5.35,0,0,1,393.25,151.58Zm-.06-6.46v2.24a4.74,4.74,0,0,0,1.29,3.36,4.26,4.26,0,0,0,3.27,1.39,4.31,4.31,0,0,0,3.65-1.78,8.19,8.19,0,0,0,1.32-5,6.44,6.44,0,0,0-1.24-4.19,4.07,4.07,0,0,0-3.34-1.51,4.54,4.54,0,0,0-3.59,1.55A5.71,5.71,0,0,0,393.19,145.12Z" transform="translate(-19.5 -14.66)"/><path d="M417.78,140.48a3.16,3.16,0,0,0-1.94-.51,3.27,3.27,0,0,0-2.74,1.54,7.19,7.19,0,0,0-1.1,4.22v8.16h-2.56v-16H412v3.29h.06a5.64,5.64,0,0,1,1.67-2.63,3.81,3.81,0,0,1,2.52-.94,4.06,4.06,0,0,1,1.53.22Z" transform="translate(-19.5 -14.66)"/><path d="M433.42,146.53h-11.3a6,6,0,0,0,1.44,4.12,5,5,0,0,0,3.78,1.46,7.89,7.89,0,0,0,5-1.78v2.4a9.27,9.27,0,0,1-5.58,1.53,6.72,6.72,0,0,1-5.32-2.18,8.86,8.86,0,0,1-1.94-6.13,8.72,8.72,0,0,1,2.12-6.09,6.8,6.8,0,0,1,5.25-2.35,6,6,0,0,1,4.86,2,8.47,8.47,0,0,1,1.72,5.64Zm-2.62-2.17a5.26,5.26,0,0,0-1.07-3.46,3.66,3.66,0,0,0-2.93-1.23,4.12,4.12,0,0,0-3.08,1.3,5.83,5.83,0,0,0-1.56,3.39Z" transform="translate(-19.5 -14.66)"/><path d="M436.33,153.31v-2.75a7.58,7.58,0,0,0,4.61,1.55c2.25,0,3.37-.75,3.37-2.25a1.91,1.91,0,0,0-.29-1.09,2.79,2.79,0,0,0-.78-.79,6.51,6.51,0,0,0-1.15-.62l-1.43-.57a17.66,17.66,0,0,1-1.87-.85,5.2,5.2,0,0,1-1.34-1,3.55,3.55,0,0,1-.82-1.22,4.42,4.42,0,0,1-.27-1.61,3.74,3.74,0,0,1,.52-2,4.54,4.54,0,0,1,1.37-1.46,6.48,6.48,0,0,1,2-.88,8.63,8.63,0,0,1,2.27-.3,9.14,9.14,0,0,1,3.72.72v2.6a7.16,7.16,0,0,0-4.06-1.16,4.77,4.77,0,0,0-1.3.16,3.48,3.48,0,0,0-1,.46,2.26,2.26,0,0,0-.64.71,1.93,1.93,0,0,0-.23.92,2,2,0,0,0,.9,1.8,5.48,5.48,0,0,0,1.06.59c.41.18.89.37,1.42.58.71.27,1.34.55,1.91.83a6.51,6.51,0,0,1,1.43,1,3.93,3.93,0,0,1,.92,1.24,4.09,4.09,0,0,1,.32,1.68,3.92,3.92,0,0,1-.53,2.06,4.47,4.47,0,0,1-1.39,1.45,6.45,6.45,0,0,1-2,.86,9.84,9.84,0,0,1-2.39.28A9.13,9.13,0,0,1,436.33,153.31Z" transform="translate(-19.5 -14.66)"/><path d="M462.33,153.89h-2.56v-2.5h-.07a5.36,5.36,0,0,1-4.92,2.87A5.27,5.27,0,0,1,451,153a4.41,4.41,0,0,1-1.35-3.36q0-4.48,5.28-5.22l4.8-.67q0-4.08-3.3-4.08a7.88,7.88,0,0,0-5.22,2V139a9.9,9.9,0,0,1,5.44-1.5q5.64,0,5.64,6Zm-2.56-8.1-3.86.54a6.18,6.18,0,0,0-2.69.88,2.53,2.53,0,0,0-.91,2.24,2.42,2.42,0,0,0,.84,1.91,3.22,3.22,0,0,0,2.23.75,4.09,4.09,0,0,0,3.14-1.34,4.77,4.77,0,0,0,1.25-3.38Z" transform="translate(-19.5 -14.66)"/><path d="M475.5,140.48a3.16,3.16,0,0,0-1.94-.51,3.26,3.26,0,0,0-2.74,1.54,7.19,7.19,0,0,0-1.1,4.22v8.16h-2.56v-16h2.56v3.29h.06a5.64,5.64,0,0,1,1.67-2.63,3.81,3.81,0,0,1,2.52-.94,4.09,4.09,0,0,1,1.53.22Z" transform="translate(-19.5 -14.66)"/><path d="M489.61,153.89h-2.56V130.2h2.56Z" transform="translate(-19.5 -14.66)"/><path d="M506.25,153.89h-2.56v-2.5h-.07a5.36,5.36,0,0,1-4.92,2.87A5.27,5.27,0,0,1,495,153a4.41,4.41,0,0,1-1.35-3.36q0-4.48,5.28-5.22l4.8-.67q0-4.08-3.3-4.08a7.88,7.88,0,0,0-5.22,2V139a9.92,9.92,0,0,1,5.44-1.5q5.64,0,5.64,6Zm-2.56-8.1-3.86.54a6.18,6.18,0,0,0-2.69.88,2.55,2.55,0,0,0-.91,2.24,2.42,2.42,0,0,0,.84,1.91,3.22,3.22,0,0,0,2.23.75,4.13,4.13,0,0,0,3.15-1.34,4.81,4.81,0,0,0,1.24-3.38Z" transform="translate(-19.5 -14.66)"/><path d="M528.19,140.48a3.18,3.18,0,0,0-1.94-.51,3.26,3.26,0,0,0-2.74,1.54,7.12,7.12,0,0,0-1.1,4.22v8.16h-2.57v-16h2.57v3.29h.06a5.56,5.56,0,0,1,1.67-2.63,3.81,3.81,0,0,1,2.52-.94,4.13,4.13,0,0,1,1.53.22Z" transform="translate(-19.5 -14.66)"/><path d="M543.83,146.53h-11.3a6,6,0,0,0,1.44,4.12,5,5,0,0,0,3.78,1.46,7.91,7.91,0,0,0,5-1.78v2.4a9.31,9.31,0,0,1-5.58,1.53,6.74,6.74,0,0,1-5.33-2.18,8.91,8.91,0,0,1-1.93-6.13,8.77,8.77,0,0,1,2.11-6.09,6.82,6.82,0,0,1,5.26-2.35,6,6,0,0,1,4.86,2,8.52,8.52,0,0,1,1.72,5.64Zm-2.63-2.17a5.21,5.21,0,0,0-1.07-3.46,3.65,3.65,0,0,0-2.93-1.23,4.13,4.13,0,0,0-3.08,1.3,5.89,5.89,0,0,0-1.56,3.39Z" transform="translate(-19.5 -14.66)"/><path d="M550.27,153.89H547.7V130.2h2.57Z" transform="translate(-19.5 -14.66)"/><path d="M566.91,153.89h-2.57v-2.5h-.06a5.36,5.36,0,0,1-4.92,2.87,5.27,5.27,0,0,1-3.74-1.26,4.41,4.41,0,0,1-1.35-3.36q0-4.48,5.28-5.22l4.79-.67q0-4.08-3.29-4.08a7.88,7.88,0,0,0-5.22,2V139a9.9,9.9,0,0,1,5.44-1.5q5.64,0,5.64,6Zm-2.57-8.1-3.86.54a6.18,6.18,0,0,0-2.68.88,2.53,2.53,0,0,0-.91,2.24,2.42,2.42,0,0,0,.84,1.91,3.19,3.19,0,0,0,2.22.75,4.13,4.13,0,0,0,3.15-1.34,4.76,4.76,0,0,0,1.24-3.38Z" transform="translate(-19.5 -14.66)"/><path d="M582.64,153.15a8.33,8.33,0,0,1-4.37,1.11,7.25,7.25,0,0,1-5.53-2.22,8.09,8.09,0,0,1-2.1-5.78,8.88,8.88,0,0,1,2.27-6.35,7.91,7.91,0,0,1,6-2.4,8.41,8.41,0,0,1,3.72.78v2.63a6.55,6.55,0,0,0-3.81-1.25,5.1,5.1,0,0,0-4,1.76,6.64,6.64,0,0,0-1.57,4.61,6.36,6.36,0,0,0,1.47,4.44,5.09,5.09,0,0,0,4,1.63,6.47,6.47,0,0,0,3.94-1.39Z" transform="translate(-19.5 -14.66)"/><path d="M587.83,133.83a1.62,1.62,0,0,1-1.17-.47,1.58,1.58,0,0,1-.49-1.19,1.6,1.6,0,0,1,.49-1.2,1.62,1.62,0,0,1,1.17-.47A1.65,1.65,0,0,1,589,131a1.61,1.61,0,0,1,.5,1.2,1.57,1.57,0,0,1-.5,1.17A1.63,1.63,0,0,1,587.83,133.83Zm1.25,20.06h-2.56v-16h2.56Z" transform="translate(-19.5 -14.66)"/><path d="M601,154.26a7.4,7.4,0,0,1-5.66-2.24,8.31,8.31,0,0,1-2.12-5.94,8.65,8.65,0,0,1,2.21-6.3,7.9,7.9,0,0,1,6-2.27,7.16,7.16,0,0,1,5.58,2.21,8.71,8.71,0,0,1,2,6.11,8.61,8.61,0,0,1-2.16,6.13A7.59,7.59,0,0,1,601,154.26Zm.19-14.59a4.88,4.88,0,0,0-3.91,1.68A6.93,6.93,0,0,0,595.8,146a6.54,6.54,0,0,0,1.45,4.49,5,5,0,0,0,3.89,1.64A4.69,4.69,0,0,0,605,150.5a7,7,0,0,0,1.34-4.58,7.14,7.14,0,0,0-1.34-4.63A4.66,4.66,0,0,0,601.14,139.67Zm3.75-9.94-4.09,5.13h-2l3.49-5.13Z" transform="translate(-19.5 -14.66)"/><path d="M626.3,153.89h-2.57v-9.13q0-5.08-3.71-5.09a4,4,0,0,0-3.18,1.44,5.36,5.36,0,0,0-1.26,3.65v9.13H613v-16h2.56v2.65h.06a5.78,5.78,0,0,1,5.25-3,4.91,4.91,0,0,1,4,1.7,7.59,7.59,0,0,1,1.39,4.9Z" transform="translate(-19.5 -14.66)"/><path d="M652.75,146.53h-11.3a6,6,0,0,0,1.44,4.12,5,5,0,0,0,3.78,1.46,7.91,7.91,0,0,0,5-1.78v2.4a9.29,9.29,0,0,1-5.58,1.53,6.76,6.76,0,0,1-5.33-2.18A8.91,8.91,0,0,1,638.8,146a8.77,8.77,0,0,1,2.11-6.09,6.84,6.84,0,0,1,5.26-2.35,6,6,0,0,1,4.86,2,8.47,8.47,0,0,1,1.72,5.64Zm-2.63-2.17a5.21,5.21,0,0,0-1.07-3.46,3.64,3.64,0,0,0-2.93-1.23,4.11,4.11,0,0,0-3.07,1.3,5.84,5.84,0,0,0-1.57,3.39Z" transform="translate(-19.5 -14.66)"/><path d="M669.91,153.89h-2.57v-9.13q0-5.08-3.72-5.09a4,4,0,0,0-3.17,1.44,5.36,5.36,0,0,0-1.26,3.65v9.13h-2.57v-16h2.57v2.65h.06a5.78,5.78,0,0,1,5.25-3,4.91,4.91,0,0,1,4,1.7,7.59,7.59,0,0,1,1.39,4.9Z" transform="translate(-19.5 -14.66)"/><path d="M682.16,153.73a5,5,0,0,1-2.39.5q-4.21,0-4.21-4.69v-9.46h-2.75v-2.19h2.75V134l2.56-.83v4.74h4v2.19h-4v9a3.79,3.79,0,0,0,.55,2.3,2.18,2.18,0,0,0,1.81.69,2.68,2.68,0,0,0,1.68-.54Z" transform="translate(-19.5 -14.66)"/><path d="M693.92,140.48A3.16,3.16,0,0,0,692,140a3.27,3.27,0,0,0-2.74,1.54,7.19,7.19,0,0,0-1.1,4.22v8.16h-2.56v-16h2.56v3.29h.06a5.58,5.58,0,0,1,1.68-2.63,3.77,3.77,0,0,1,2.51-.94,4.06,4.06,0,0,1,1.53.22Z" transform="translate(-19.5 -14.66)"/><path d="M709.56,146.53H698.27a6,6,0,0,0,1.43,4.12,5,5,0,0,0,3.78,1.46,7.89,7.89,0,0,0,5-1.78v2.4a9.26,9.26,0,0,1-5.57,1.53,6.73,6.73,0,0,1-5.33-2.18,8.86,8.86,0,0,1-1.94-6.13,8.72,8.72,0,0,1,2.12-6.09,6.8,6.8,0,0,1,5.25-2.35,6,6,0,0,1,4.86,2,8.47,8.47,0,0,1,1.72,5.64Zm-2.62-2.17a5.26,5.26,0,0,0-1.07-3.46,3.66,3.66,0,0,0-2.93-1.23,4.12,4.12,0,0,0-3.08,1.3,5.83,5.83,0,0,0-1.56,3.39Z" transform="translate(-19.5 -14.66)"/><path d="M23.16,192.29H20.59V168.6h2.57Z" transform="translate(-19.5 -14.66)"/><path d="M35,192.66a7.4,7.4,0,0,1-5.66-2.24,8.31,8.31,0,0,1-2.12-5.95,8.64,8.64,0,0,1,2.2-6.29,7.94,7.94,0,0,1,6-2.27A7.17,7.17,0,0,1,41,178.12a10,10,0,0,1-.15,12.24A7.62,7.62,0,0,1,35,192.66Zm.19-14.59a4.88,4.88,0,0,0-3.91,1.68,6.88,6.88,0,0,0-1.43,4.63,6.54,6.54,0,0,0,1.45,4.49,4.94,4.94,0,0,0,3.89,1.64A4.69,4.69,0,0,0,39,188.9a7,7,0,0,0,1.34-4.58A7.14,7.14,0,0,0,39,179.69,4.66,4.66,0,0,0,35.22,178.07Z" transform="translate(-19.5 -14.66)"/><path d="M46.12,191.71V189a7.62,7.62,0,0,0,4.61,1.55c2.25,0,3.38-.75,3.38-2.25a2,2,0,0,0-.29-1.09,2.79,2.79,0,0,0-.78-.79,6.28,6.28,0,0,0-1.16-.62l-1.43-.57a16.57,16.57,0,0,1-1.86-.85,5.44,5.44,0,0,1-1.35-1,3.52,3.52,0,0,1-.81-1.22,4.42,4.42,0,0,1-.27-1.61,3.89,3.89,0,0,1,.51-2,4.65,4.65,0,0,1,1.38-1.45,6.37,6.37,0,0,1,2-.88,8.57,8.57,0,0,1,2.27-.3,9.14,9.14,0,0,1,3.72.72v2.59a7.25,7.25,0,0,0-4.06-1.15,4.77,4.77,0,0,0-1.3.16,3.24,3.24,0,0,0-1,.46,2.15,2.15,0,0,0-.64.71,1.93,1.93,0,0,0-.23.92,2.23,2.23,0,0,0,.23,1.05,2.32,2.32,0,0,0,.66.75,5.8,5.8,0,0,0,1.06.59l1.43.58c.7.27,1.34.55,1.9.83a6.83,6.83,0,0,1,1.44,1,3.75,3.75,0,0,1,.91,1.24,4.44,4.44,0,0,1-.2,3.74,4.4,4.4,0,0,1-1.4,1.45,6.3,6.3,0,0,1-2,.86,9.84,9.84,0,0,1-2.39.28A9.17,9.17,0,0,1,46.12,191.71Z" transform="translate(-19.5 -14.66)"/><path d="M82,176.29l-6.38,16H73.12l-6.06-16h2.82l4.06,11.62a10.42,10.42,0,0,1,.56,2.24h.06a10.93,10.93,0,0,1,.5-2.18l4.25-11.68Z" transform="translate(-19.5 -14.66)"/><path d="M97.62,184.93H86.33a6,6,0,0,0,1.44,4.12,4.93,4.93,0,0,0,3.78,1.46,7.88,7.88,0,0,0,5-1.79v2.41a9.31,9.31,0,0,1-5.58,1.53,6.74,6.74,0,0,1-5.33-2.18,8.91,8.91,0,0,1-1.94-6.13,8.77,8.77,0,0,1,2.12-6.09,6.81,6.81,0,0,1,5.26-2.35,6,6,0,0,1,4.86,2,8.52,8.52,0,0,1,1.71,5.64ZM95,182.76a5.26,5.26,0,0,0-1.07-3.46A3.65,3.65,0,0,0,91,178.07a4.13,4.13,0,0,0-3.08,1.3,5.89,5.89,0,0,0-1.56,3.39Z" transform="translate(-19.5 -14.66)"/><path d="M112.41,191.55a8.34,8.34,0,0,1-4.38,1.11,7.25,7.25,0,0,1-5.52-2.22,8.09,8.09,0,0,1-2.1-5.78,8.88,8.88,0,0,1,2.26-6.35,7.93,7.93,0,0,1,6-2.4,8.47,8.47,0,0,1,3.72.78v2.63a6.55,6.55,0,0,0-3.82-1.25,5.13,5.13,0,0,0-4,1.76,6.64,6.64,0,0,0-1.57,4.61,6.32,6.32,0,0,0,1.48,4.44,5.09,5.09,0,0,0,4,1.63,6.49,6.49,0,0,0,3.94-1.39Z" transform="translate(-19.5 -14.66)"/><path d="M123.7,192.13a5,5,0,0,1-2.39.5q-4.2,0-4.2-4.69v-9.47h-2.75v-2.18h2.75v-3.91l2.56-.83v4.74h4v2.18h-4v9a3.72,3.72,0,0,0,.55,2.3,2.17,2.17,0,0,0,1.81.68,2.65,2.65,0,0,0,1.67-.53Z" transform="translate(-19.5 -14.66)"/><path d="M133.81,192.66a7.4,7.4,0,0,1-5.66-2.24,8.31,8.31,0,0,1-2.12-5.95,8.68,8.68,0,0,1,2.2-6.29,7.94,7.94,0,0,1,6-2.27,7.17,7.17,0,0,1,5.58,2.21,10,10,0,0,1-.15,12.24A7.62,7.62,0,0,1,133.81,192.66Zm.19-14.59a4.88,4.88,0,0,0-3.91,1.68,6.93,6.93,0,0,0-1.43,4.63,6.54,6.54,0,0,0,1.45,4.49,5,5,0,0,0,3.89,1.64,4.69,4.69,0,0,0,3.82-1.61,7,7,0,0,0,1.34-4.58,7.14,7.14,0,0,0-1.34-4.63A4.66,4.66,0,0,0,134,178.07Z" transform="translate(-19.5 -14.66)"/><path d="M154.22,178.88a3.18,3.18,0,0,0-1.94-.51,3.26,3.26,0,0,0-2.74,1.54,7.12,7.12,0,0,0-1.1,4.22v8.16h-2.56v-16h2.56v3.29h.06a5.56,5.56,0,0,1,1.67-2.63,3.81,3.81,0,0,1,2.52-.94,4.38,4.38,0,0,1,1.53.21Z" transform="translate(-19.5 -14.66)"/><path d="M169.86,184.93h-11.3a6,6,0,0,0,1.44,4.12,5,5,0,0,0,3.78,1.46,7.86,7.86,0,0,0,5-1.79v2.41a9.31,9.31,0,0,1-5.58,1.53,6.76,6.76,0,0,1-5.33-2.18,8.91,8.91,0,0,1-1.93-6.13,8.77,8.77,0,0,1,2.11-6.09,6.82,6.82,0,0,1,5.26-2.35,6,6,0,0,1,4.86,2,8.47,8.47,0,0,1,1.72,5.64Zm-2.63-2.17a5.21,5.21,0,0,0-1.07-3.46,3.65,3.65,0,0,0-2.93-1.23,4.11,4.11,0,0,0-3.07,1.3,5.84,5.84,0,0,0-1.57,3.39Z" transform="translate(-19.5 -14.66)"/><path d="M172.77,191.71V189a7.58,7.58,0,0,0,4.61,1.55c2.24,0,3.37-.75,3.37-2.25a2,2,0,0,0-.29-1.09,2.79,2.79,0,0,0-.78-.79,6.28,6.28,0,0,0-1.16-.62l-1.43-.57a17.44,17.44,0,0,1-1.86-.85,5.44,5.44,0,0,1-1.35-1,3.52,3.52,0,0,1-.81-1.22,4.42,4.42,0,0,1-.27-1.61,3.89,3.89,0,0,1,.51-2,4.65,4.65,0,0,1,1.38-1.45,6.37,6.37,0,0,1,2-.88,8.57,8.57,0,0,1,2.27-.3,9.14,9.14,0,0,1,3.72.72v2.59a7.25,7.25,0,0,0-4.06-1.15,4.77,4.77,0,0,0-1.3.16,3.36,3.36,0,0,0-1,.46,2.15,2.15,0,0,0-.64.71,1.93,1.93,0,0,0-.23.92,2.23,2.23,0,0,0,.23,1.05,2.32,2.32,0,0,0,.66.75,5.59,5.59,0,0,0,1.07.59c.41.18.89.37,1.42.58.7.27,1.34.55,1.9.83a6.58,6.58,0,0,1,1.44,1,3.75,3.75,0,0,1,.91,1.24,4.34,4.34,0,0,1-.2,3.74,4.4,4.4,0,0,1-1.4,1.45,6.3,6.3,0,0,1-2,.86,9.84,9.84,0,0,1-2.39.28A9.1,9.1,0,0,1,172.77,191.71Z" transform="translate(-19.5 -14.66)"/><path d="M209,192.29h-2.57v-2.53h-.06a5.27,5.27,0,0,1-4.94,2.9q-5.72,0-5.72-6.81v-9.56h2.55v9.15q0,5.07,3.88,5.07a3.92,3.92,0,0,0,3.08-1.39,5.25,5.25,0,0,0,1.21-3.61v-9.22H209Z" transform="translate(-19.5 -14.66)"/><path d="M227.47,192.29h-2.56v-9.13q0-5.08-3.72-5.09a4,4,0,0,0-3.18,1.44,5.36,5.36,0,0,0-1.26,3.65v9.13h-2.56v-16h2.56v2.65h.06a5.78,5.78,0,0,1,5.25-3,4.91,4.91,0,0,1,4,1.7,7.59,7.59,0,0,1,1.39,4.9Z" transform="translate(-19.5 -14.66)"/><path d="M233.61,172.22a1.61,1.61,0,0,1-1.17-.46,1.58,1.58,0,0,1-.49-1.19,1.6,1.6,0,0,1,.49-1.2,1.62,1.62,0,0,1,1.17-.47,1.65,1.65,0,0,1,1.19.47,1.61,1.61,0,0,1,.5,1.2,1.57,1.57,0,0,1-.5,1.17A1.62,1.62,0,0,1,233.61,172.22Zm1.25,20.07H232.3v-16h2.56Z" transform="translate(-19.5 -14.66)"/><path d="M247.47,192.13a5,5,0,0,1-2.39.5q-4.2,0-4.2-4.69v-9.47h-2.76v-2.18h2.76v-3.91l2.56-.83v4.74h4v2.18h-4v9a3.79,3.79,0,0,0,.54,2.3,2.19,2.19,0,0,0,1.82.68,2.67,2.67,0,0,0,1.67-.53Z" transform="translate(-19.5 -14.66)"/><path d="M262.34,192.29h-2.56v-2.5h-.06a5.38,5.38,0,0,1-4.92,2.87,5.3,5.3,0,0,1-3.75-1.26A4.41,4.41,0,0,1,249.7,188q0-4.48,5.28-5.22l4.8-.67q0-4.08-3.3-4.08a7.83,7.83,0,0,0-5.21,2v-2.63a9.89,9.89,0,0,1,5.43-1.5q5.64,0,5.64,6Zm-2.56-8.1-3.86.53a6.36,6.36,0,0,0-2.69.89,2.55,2.55,0,0,0-.9,2.24,2.45,2.45,0,0,0,.83,1.91,3.22,3.22,0,0,0,2.23.75,4.13,4.13,0,0,0,3.15-1.34,4.76,4.76,0,0,0,1.24-3.38Z" transform="translate(-19.5 -14.66)"/><path d="M275.52,178.88a3.18,3.18,0,0,0-1.94-.51,3.25,3.25,0,0,0-2.74,1.54,7.12,7.12,0,0,0-1.11,4.22v8.16h-2.56v-16h2.56v3.29h.07a5.56,5.56,0,0,1,1.67-2.63A3.81,3.81,0,0,1,274,176a4.41,4.41,0,0,1,1.54.21Z" transform="translate(-19.5 -14.66)"/><path d="M279.61,172.22a1.61,1.61,0,0,1-1.17-.46,1.58,1.58,0,0,1-.49-1.19,1.6,1.6,0,0,1,.49-1.2,1.62,1.62,0,0,1,1.17-.47,1.65,1.65,0,0,1,1.19.47,1.61,1.61,0,0,1,.5,1.2,1.57,1.57,0,0,1-.5,1.17A1.62,1.62,0,0,1,279.61,172.22Zm1.25,20.07H278.3v-16h2.56Z" transform="translate(-19.5 -14.66)"/><path d="M292.73,192.66a7.4,7.4,0,0,1-5.66-2.24,8.31,8.31,0,0,1-2.12-5.95,8.64,8.64,0,0,1,2.21-6.29,7.9,7.9,0,0,1,5.95-2.27,7.19,7.19,0,0,1,5.59,2.21,8.74,8.74,0,0,1,2,6.1,8.62,8.62,0,0,1-2.16,6.14A7.61,7.61,0,0,1,292.73,192.66Zm.19-14.59a4.86,4.86,0,0,0-3.9,1.68,6.88,6.88,0,0,0-1.44,4.63,6.54,6.54,0,0,0,1.45,4.49,5,5,0,0,0,3.89,1.64,4.69,4.69,0,0,0,3.82-1.61,7,7,0,0,0,1.34-4.58,7.14,7.14,0,0,0-1.34-4.63A4.66,4.66,0,0,0,292.92,178.07Z" transform="translate(-19.5 -14.66)"/><path d="M303.83,191.71V189a7.58,7.58,0,0,0,4.61,1.55c2.25,0,3.37-.75,3.37-2.25a1.91,1.91,0,0,0-.29-1.09,2.79,2.79,0,0,0-.78-.79,6.51,6.51,0,0,0-1.15-.62l-1.43-.57a17.66,17.66,0,0,1-1.87-.85,5.2,5.2,0,0,1-1.34-1,3.55,3.55,0,0,1-.82-1.22,4.42,4.42,0,0,1-.27-1.61,3.8,3.8,0,0,1,.52-2,4.62,4.62,0,0,1,1.37-1.45,6.48,6.48,0,0,1,2-.88,8.63,8.63,0,0,1,2.27-.3,9.14,9.14,0,0,1,3.72.72v2.59a7.23,7.23,0,0,0-4.06-1.15,4.77,4.77,0,0,0-1.3.16,3.48,3.48,0,0,0-1,.46,2.26,2.26,0,0,0-.64.71,1.93,1.93,0,0,0-.23.92,2,2,0,0,0,.9,1.8,5.48,5.48,0,0,0,1.06.59c.41.18.89.37,1.42.58.71.27,1.34.55,1.91.83a6.51,6.51,0,0,1,1.43,1,3.93,3.93,0,0,1,.92,1.24,4.09,4.09,0,0,1,.32,1.68,3.92,3.92,0,0,1-.53,2.06,4.47,4.47,0,0,1-1.39,1.45,6.45,6.45,0,0,1-2,.86,9.84,9.84,0,0,1-2.39.28A9.13,9.13,0,0,1,303.83,191.71Z" transform="translate(-19.5 -14.66)"/><path d="M333.86,197.38h-2.28a20,20,0,0,1-4.85-13.64,20.72,20.72,0,0,1,4.85-13.86h2.31A21.07,21.07,0,0,0,329,183.71,20.69,20.69,0,0,0,333.86,197.38Z" transform="translate(-19.5 -14.66)"/><path d="M344.22,192.13a5,5,0,0,1-2.39.5c-2.8,0-4.21-1.56-4.21-4.69v-9.47h-2.74v-2.18h2.74v-3.91l2.57-.83v4.74h4v2.18h-4v9a3.79,3.79,0,0,0,.54,2.3,2.19,2.19,0,0,0,1.82.68,2.67,2.67,0,0,0,1.67-.53Z" transform="translate(-19.5 -14.66)"/><path d="M359.09,192.29h-2.56v-2.5h-.06a5.38,5.38,0,0,1-4.92,2.87,5.3,5.3,0,0,1-3.75-1.26,4.41,4.41,0,0,1-1.35-3.36q0-4.48,5.28-5.22l4.8-.67q0-4.08-3.3-4.08a7.83,7.83,0,0,0-5.21,2v-2.63a9.89,9.89,0,0,1,5.43-1.5q5.64,0,5.64,6Zm-2.56-8.1-3.86.53a6.36,6.36,0,0,0-2.69.89,2.55,2.55,0,0,0-.9,2.24,2.45,2.45,0,0,0,.83,1.91,3.22,3.22,0,0,0,2.23.75,4.13,4.13,0,0,0,3.15-1.34,4.76,4.76,0,0,0,1.24-3.38Z" transform="translate(-19.5 -14.66)"/><path d="M386.64,192.29h-2.56V183.1a7,7,0,0,0-.82-3.84,3.1,3.1,0,0,0-2.76-1.19,3.43,3.43,0,0,0-2.79,1.5,5.77,5.77,0,0,0-1.15,3.59v9.13H374v-9.5q0-4.72-3.64-4.72a3.37,3.37,0,0,0-2.78,1.41,5.86,5.86,0,0,0-1.1,3.68v9.13h-2.56v-16h2.56v2.53h.07a5.43,5.43,0,0,1,5-2.91,4.64,4.64,0,0,1,4.53,3.31,5.7,5.7,0,0,1,5.31-3.31q5.28,0,5.28,6.52Z" transform="translate(-19.5 -14.66)"/><path d="M394.11,190h-.06v2.32h-2.57V168.6h2.57v10.5h.06a6,6,0,0,1,5.53-3.19,5.87,5.87,0,0,1,4.82,2.15,8.87,8.87,0,0,1,1.74,5.76,9.92,9.92,0,0,1-1.95,6.43,6.49,6.49,0,0,1-5.34,2.41A5.24,5.24,0,0,1,394.11,190Zm-.06-6.45v2.24a4.74,4.74,0,0,0,1.29,3.36,4.58,4.58,0,0,0,6.92-.4,8.14,8.14,0,0,0,1.32-4.95,6.42,6.42,0,0,0-1.24-4.19,4.07,4.07,0,0,0-3.34-1.51,4.54,4.54,0,0,0-3.59,1.55A5.71,5.71,0,0,0,394.05,183.52Z" transform="translate(-19.5 -14.66)"/><path d="M411.61,172.22a1.61,1.61,0,0,1-1.17-.46,1.58,1.58,0,0,1-.49-1.19,1.6,1.6,0,0,1,.49-1.2,1.62,1.62,0,0,1,1.17-.47,1.65,1.65,0,0,1,1.19.47,1.61,1.61,0,0,1,.5,1.2,1.57,1.57,0,0,1-.5,1.17A1.62,1.62,0,0,1,411.61,172.22Zm1.25,20.07H410.3v-16h2.56Z" transform="translate(-19.5 -14.66)"/><path d="M430.91,184.93h-11.3a6,6,0,0,0,1.44,4.12,4.93,4.93,0,0,0,3.78,1.46,7.86,7.86,0,0,0,5-1.79v2.41a9.31,9.31,0,0,1-5.58,1.53,6.74,6.74,0,0,1-5.33-2.18,8.91,8.91,0,0,1-1.94-6.13,8.77,8.77,0,0,1,2.12-6.09,6.81,6.81,0,0,1,5.26-2.35,6,6,0,0,1,4.86,2,8.52,8.52,0,0,1,1.72,5.64Zm-2.63-2.17a5.26,5.26,0,0,0-1.07-3.46,3.65,3.65,0,0,0-2.93-1.23,4.13,4.13,0,0,0-3.08,1.3,5.89,5.89,0,0,0-1.56,3.39Zm-.4-14.63-4.1,5.13h-2l3.48-5.13Z" transform="translate(-19.5 -14.66)"/><path d="M448.06,192.29H445.5v-9.13q0-5.08-3.72-5.09a4,4,0,0,0-3.18,1.44,5.36,5.36,0,0,0-1.26,3.65v9.13h-2.56v-16h2.56v2.65h.07a5.76,5.76,0,0,1,5.25-3,4.89,4.89,0,0,1,4,1.7,7.53,7.53,0,0,1,1.39,4.9Z" transform="translate(-19.5 -14.66)"/><path d="M464.22,192.29h-2.56V168.6h2.56Z" transform="translate(-19.5 -14.66)"/><path d="M472,192.29h-2.56V168.6H472Z" transform="translate(-19.5 -14.66)"/><path d="M488.61,192.29h-2.56v-2.5H486a5.36,5.36,0,0,1-4.92,2.87,5.27,5.27,0,0,1-3.74-1.26A4.41,4.41,0,0,1,476,188q0-4.48,5.28-5.22l4.8-.67q0-4.08-3.3-4.08a7.83,7.83,0,0,0-5.22,2v-2.63a9.92,9.92,0,0,1,5.44-1.5q5.64,0,5.64,6Zm-2.56-8.1-3.86.53a6.31,6.31,0,0,0-2.69.89,2.55,2.55,0,0,0-.91,2.24,2.42,2.42,0,0,0,.84,1.91,3.22,3.22,0,0,0,2.23.75,4.09,4.09,0,0,0,3.14-1.34,4.77,4.77,0,0,0,1.25-3.38Z" transform="translate(-19.5 -14.66)"/><path d="M516.16,192.29h-2.57V183.1a6.89,6.89,0,0,0-.82-3.84,3.07,3.07,0,0,0-2.75-1.19,3.4,3.4,0,0,0-2.79,1.5,5.71,5.71,0,0,0-1.15,3.59v9.13h-2.56v-9.5c0-3.15-1.22-4.72-3.64-4.72a3.39,3.39,0,0,0-2.79,1.41,5.85,5.85,0,0,0-1.09,3.68v9.13h-2.56v-16H496v2.53h.06a5.44,5.44,0,0,1,5-2.91,4.64,4.64,0,0,1,4.53,3.31,5.73,5.73,0,0,1,5.32-3.31q5.28,0,5.28,6.52Z" transform="translate(-19.5 -14.66)"/><path d="M532.45,192.29h-2.56v-2.5h-.06a5.38,5.38,0,0,1-4.92,2.87,5.28,5.28,0,0,1-3.75-1.26,4.41,4.41,0,0,1-1.35-3.36q0-4.48,5.28-5.22l4.8-.67q0-4.08-3.3-4.08a7.83,7.83,0,0,0-5.21,2v-2.63a9.89,9.89,0,0,1,5.43-1.5q5.64,0,5.64,6Zm-2.56-8.1-3.86.53a6.36,6.36,0,0,0-2.69.89,2.55,2.55,0,0,0-.9,2.24,2.45,2.45,0,0,0,.83,1.91,3.22,3.22,0,0,0,2.23.75,4.13,4.13,0,0,0,3.15-1.34,4.76,4.76,0,0,0,1.24-3.38Z" transform="translate(-19.5 -14.66)"/><path d="M550.94,192.29h-2.56v-2.72h-.07a6.46,6.46,0,0,1-10.32.94,8.82,8.82,0,0,1-1.8-5.85,9.58,9.58,0,0,1,2-6.36,6.6,6.6,0,0,1,5.33-2.39,5.13,5.13,0,0,1,4.79,2.6h.07V168.6h2.56Zm-2.56-7.24v-2.36a4.57,4.57,0,0,0-1.29-3.28,4.3,4.3,0,0,0-3.25-1.34,4.4,4.4,0,0,0-3.68,1.72,7.5,7.5,0,0,0-1.35,4.75,6.74,6.74,0,0,0,1.29,4.36,4.21,4.21,0,0,0,3.46,1.61A4.39,4.39,0,0,0,547,189,5.76,5.76,0,0,0,548.38,185.05Z" transform="translate(-19.5 -14.66)"/><path d="M562.81,192.66a7.4,7.4,0,0,1-5.66-2.24,8.31,8.31,0,0,1-2.12-5.95,8.68,8.68,0,0,1,2.2-6.29,7.94,7.94,0,0,1,6-2.27,7.17,7.17,0,0,1,5.58,2.21,10,10,0,0,1-.15,12.24A7.62,7.62,0,0,1,562.81,192.66Zm.19-14.59a4.88,4.88,0,0,0-3.91,1.68,6.88,6.88,0,0,0-1.43,4.63,6.54,6.54,0,0,0,1.45,4.49,5,5,0,0,0,3.89,1.64,4.69,4.69,0,0,0,3.82-1.61,7,7,0,0,0,1.34-4.58,7.14,7.14,0,0,0-1.34-4.63A4.66,4.66,0,0,0,563,178.07Z" transform="translate(-19.5 -14.66)"/><path d="M573.91,191.71V189a7.58,7.58,0,0,0,4.61,1.55c2.25,0,3.37-.75,3.37-2.25a2,2,0,0,0-.29-1.09,2.79,2.79,0,0,0-.78-.79,6.28,6.28,0,0,0-1.16-.62l-1.43-.57a17.44,17.44,0,0,1-1.86-.85,5.44,5.44,0,0,1-1.35-1,3.52,3.52,0,0,1-.81-1.22,4.42,4.42,0,0,1-.27-1.61,3.89,3.89,0,0,1,.51-2,4.65,4.65,0,0,1,1.38-1.45,6.37,6.37,0,0,1,2-.88,8.57,8.57,0,0,1,2.27-.3,9.14,9.14,0,0,1,3.72.72v2.59a7.25,7.25,0,0,0-4.06-1.15,4.77,4.77,0,0,0-1.3.16,3.48,3.48,0,0,0-1,.46,2.15,2.15,0,0,0-.64.71,1.93,1.93,0,0,0-.23.92,2.23,2.23,0,0,0,.23,1.05,2.32,2.32,0,0,0,.66.75,5.59,5.59,0,0,0,1.07.59c.41.18.89.37,1.42.58a20.67,20.67,0,0,1,1.9.83,6.58,6.58,0,0,1,1.44,1,3.93,3.93,0,0,1,.92,1.24,4.09,4.09,0,0,1,.32,1.68,3.92,3.92,0,0,1-.53,2.06,4.4,4.4,0,0,1-1.4,1.45,6.3,6.3,0,0,1-2,.86,9.84,9.84,0,0,1-2.39.28A9.1,9.1,0,0,1,573.91,191.71Z" transform="translate(-19.5 -14.66)"/><path d="M609.8,176.29l-6.38,16h-2.51l-6.07-16h2.82l4.06,11.62a10.42,10.42,0,0,1,.56,2.24h.06a10.93,10.93,0,0,1,.5-2.18l4.25-11.68Z" transform="translate(-19.5 -14.66)"/><path d="M625.41,184.93h-11.3a6,6,0,0,0,1.44,4.12,4.93,4.93,0,0,0,3.78,1.46,7.86,7.86,0,0,0,5-1.79v2.41a9.31,9.31,0,0,1-5.58,1.53,6.74,6.74,0,0,1-5.33-2.18,8.91,8.91,0,0,1-1.94-6.13,8.77,8.77,0,0,1,2.12-6.09,6.81,6.81,0,0,1,5.26-2.35,6,6,0,0,1,4.86,2,8.52,8.52,0,0,1,1.72,5.64Zm-2.63-2.17a5.26,5.26,0,0,0-1.07-3.46,3.65,3.65,0,0,0-2.93-1.23,4.13,4.13,0,0,0-3.08,1.3,5.89,5.89,0,0,0-1.56,3.39Z" transform="translate(-19.5 -14.66)"/><path d="M640.19,191.55a8.34,8.34,0,0,1-4.38,1.11,7.25,7.25,0,0,1-5.52-2.22,8.09,8.09,0,0,1-2.1-5.78,8.88,8.88,0,0,1,2.26-6.35,7.93,7.93,0,0,1,6-2.4,8.41,8.41,0,0,1,3.72.78v2.63a6.55,6.55,0,0,0-3.81-1.25,5.14,5.14,0,0,0-4,1.76,6.69,6.69,0,0,0-1.57,4.61,6.32,6.32,0,0,0,1.48,4.44,5.09,5.09,0,0,0,4,1.63,6.47,6.47,0,0,0,3.94-1.39Z" transform="translate(-19.5 -14.66)"/><path d="M651.48,192.13a5,5,0,0,1-2.39.5q-4.2,0-4.2-4.69v-9.47h-2.75v-2.18h2.75v-3.91l2.56-.83v4.74h4v2.18h-4v9a3.72,3.72,0,0,0,.55,2.3,2.17,2.17,0,0,0,1.81.68,2.63,2.63,0,0,0,1.67-.53Z" transform="translate(-19.5 -14.66)"/><path d="M661.59,192.66a7.4,7.4,0,0,1-5.66-2.24,8.31,8.31,0,0,1-2.12-5.95,8.64,8.64,0,0,1,2.21-6.29,7.9,7.9,0,0,1,6-2.27,7.16,7.16,0,0,1,5.58,2.21,10,10,0,0,1-.15,12.24A7.61,7.61,0,0,1,661.59,192.66Zm.19-14.59a4.84,4.84,0,0,0-3.9,1.68,6.88,6.88,0,0,0-1.44,4.63,6.54,6.54,0,0,0,1.45,4.49,5,5,0,0,0,3.89,1.64,4.69,4.69,0,0,0,3.82-1.61,7,7,0,0,0,1.34-4.58,7.14,7.14,0,0,0-1.34-4.63A4.66,4.66,0,0,0,661.78,178.07Z" transform="translate(-19.5 -14.66)"/><path d="M682,178.88a3.16,3.16,0,0,0-1.94-.51,3.26,3.26,0,0,0-2.74,1.54,7.19,7.19,0,0,0-1.1,4.22v8.16h-2.56v-16h2.56v3.29h.06A5.64,5.64,0,0,1,678,177a3.81,3.81,0,0,1,2.52-.94,4.35,4.35,0,0,1,1.53.21Z" transform="translate(-19.5 -14.66)"/><path d="M697.64,184.93h-11.3a6,6,0,0,0,1.44,4.12,5,5,0,0,0,3.78,1.46,7.86,7.86,0,0,0,5-1.79v2.41a9.29,9.29,0,0,1-5.58,1.53,6.76,6.76,0,0,1-5.33-2.18,8.91,8.91,0,0,1-1.93-6.13,8.77,8.77,0,0,1,2.11-6.09,6.84,6.84,0,0,1,5.26-2.35,6,6,0,0,1,4.86,2,8.47,8.47,0,0,1,1.72,5.64ZM695,182.76A5.32,5.32,0,0,0,694,179.3a3.66,3.66,0,0,0-2.93-1.23,4.12,4.12,0,0,0-3.08,1.3,5.77,5.77,0,0,0-1.56,3.39Z" transform="translate(-19.5 -14.66)"/><path d="M700.55,191.71V189a7.58,7.58,0,0,0,4.61,1.55c2.25,0,3.37-.75,3.37-2.25a2,2,0,0,0-.29-1.09,2.79,2.79,0,0,0-.78-.79,6.28,6.28,0,0,0-1.16-.62l-1.42-.57a16.78,16.78,0,0,1-1.87-.85,5.44,5.44,0,0,1-1.35-1,3.52,3.52,0,0,1-.81-1.22,4.42,4.42,0,0,1-.27-1.61,3.89,3.89,0,0,1,.51-2,4.76,4.76,0,0,1,1.38-1.45,6.48,6.48,0,0,1,2-.88,8.57,8.57,0,0,1,2.27-.3,9.14,9.14,0,0,1,3.72.72v2.59a7.25,7.25,0,0,0-4.06-1.15,4.77,4.77,0,0,0-1.3.16,3.48,3.48,0,0,0-1,.46,2.15,2.15,0,0,0-.64.71,1.93,1.93,0,0,0-.23.92,2.23,2.23,0,0,0,.23,1.05,2.32,2.32,0,0,0,.66.75,5.59,5.59,0,0,0,1.07.59c.41.18.89.37,1.42.58a20.67,20.67,0,0,1,1.9.83,6.35,6.35,0,0,1,1.44,1,3.93,3.93,0,0,1,.92,1.24,4.09,4.09,0,0,1,.32,1.68,3.92,3.92,0,0,1-.53,2.06,4.4,4.4,0,0,1-1.4,1.45,6.3,6.3,0,0,1-2,.86,9.84,9.84,0,0,1-2.39.28A9.1,9.1,0,0,1,700.55,191.71Z" transform="translate(-19.5 -14.66)"/><path d="M31.5,230a8.34,8.34,0,0,1-4.38,1.11,7.25,7.25,0,0,1-5.52-2.22,8.09,8.09,0,0,1-2.1-5.78,8.84,8.84,0,0,1,2.27-6.35,7.91,7.91,0,0,1,6-2.4,8.41,8.41,0,0,1,3.72.78v2.63a6.55,6.55,0,0,0-3.81-1.25,5.1,5.1,0,0,0-4,1.76,6.65,6.65,0,0,0-1.58,4.61,6.37,6.37,0,0,0,1.48,4.44,5.09,5.09,0,0,0,4,1.63,6.47,6.47,0,0,0,3.94-1.39Z" transform="translate(-19.5 -14.66)"/><path d="M42.06,231.06a7.4,7.4,0,0,1-5.66-2.24,8.31,8.31,0,0,1-2.12-5.94,8.69,8.69,0,0,1,2.2-6.3,7.94,7.94,0,0,1,6-2.27A7.17,7.17,0,0,1,48,216.52a10,10,0,0,1-.15,12.24A7.62,7.62,0,0,1,42.06,231.06Zm.19-14.59a4.88,4.88,0,0,0-3.91,1.68,6.93,6.93,0,0,0-1.43,4.63,6.54,6.54,0,0,0,1.45,4.49,4.94,4.94,0,0,0,3.89,1.64,4.69,4.69,0,0,0,3.82-1.61,7,7,0,0,0,1.34-4.58,7.14,7.14,0,0,0-1.34-4.63A4.66,4.66,0,0,0,42.25,216.47Z" transform="translate(-19.5 -14.66)"/><path d="M76.84,230.69H74.28V221.5a6.89,6.89,0,0,0-.82-3.84,3.13,3.13,0,0,0-2.76-1.19,3.43,3.43,0,0,0-2.79,1.5,5.77,5.77,0,0,0-1.14,3.59v9.13H64.2v-9.5q0-4.73-3.64-4.72a3.38,3.38,0,0,0-2.78,1.41,5.85,5.85,0,0,0-1.09,3.68v9.13H54.12v-16h2.57v2.53h.06a5.44,5.44,0,0,1,5-2.91,4.64,4.64,0,0,1,4.53,3.31,5.72,5.72,0,0,1,5.31-3.31q5.28,0,5.28,6.52Z" transform="translate(-19.5 -14.66)"/><path d="M84.31,228.38h-.06v9.67H81.69V214.69h2.56v2.81h.06a6.08,6.08,0,0,1,5.53-3.19,5.85,5.85,0,0,1,4.83,2.15,8.87,8.87,0,0,1,1.74,5.76,9.93,9.93,0,0,1-2,6.43,6.49,6.49,0,0,1-5.34,2.41A5.36,5.36,0,0,1,84.31,228.38Zm-.06-6.46v2.24a4.74,4.74,0,0,0,1.29,3.36,4.58,4.58,0,0,0,6.92-.4,8.14,8.14,0,0,0,1.32-5A6.49,6.49,0,0,0,92.55,218a4.1,4.1,0,0,0-3.35-1.51A4.55,4.55,0,0,0,85.61,218,5.71,5.71,0,0,0,84.25,221.92Z" transform="translate(-19.5 -14.66)"/><path d="M107.19,231.06a7.4,7.4,0,0,1-5.67-2.24,8.3,8.3,0,0,1-2.11-5.94,8.65,8.65,0,0,1,2.2-6.3,7.92,7.92,0,0,1,6-2.27,7.18,7.18,0,0,1,5.59,2.21,10,10,0,0,1-.16,12.24A7.6,7.6,0,0,1,107.19,231.06Zm.19-14.59a4.88,4.88,0,0,0-3.91,1.68,6.88,6.88,0,0,0-1.44,4.63,6.59,6.59,0,0,0,1.45,4.49,5,5,0,0,0,3.9,1.64,4.71,4.71,0,0,0,3.82-1.61,7,7,0,0,0,1.33-4.58,7.13,7.13,0,0,0-1.33-4.63A4.69,4.69,0,0,0,107.38,216.47Z" transform="translate(-19.5 -14.66)"/><path d="M132.53,230.69H130v-9.13q0-5.09-3.72-5.09a4,4,0,0,0-3.18,1.44,5.36,5.36,0,0,0-1.26,3.65v9.13h-2.56v-16h2.56v2.65h.07a5.75,5.75,0,0,1,5.24-3,4.9,4.9,0,0,1,4,1.7,7.53,7.53,0,0,1,1.39,4.9Z" transform="translate(-19.5 -14.66)"/><path d="M150.22,223.33h-11.3a6,6,0,0,0,1.44,4.12,5,5,0,0,0,3.78,1.46,7.86,7.86,0,0,0,5-1.79v2.41a9.31,9.31,0,0,1-5.58,1.53,6.74,6.74,0,0,1-5.33-2.18,8.91,8.91,0,0,1-1.93-6.13,8.77,8.77,0,0,1,2.11-6.09,6.82,6.82,0,0,1,5.26-2.35,6,6,0,0,1,4.86,2,8.47,8.47,0,0,1,1.72,5.64Zm-2.63-2.17a5.21,5.21,0,0,0-1.07-3.46,3.65,3.65,0,0,0-2.93-1.23,4.11,4.11,0,0,0-3.07,1.3,5.84,5.84,0,0,0-1.57,3.39Z" transform="translate(-19.5 -14.66)"/><path d="M167.38,230.69h-2.57v-9.13q0-5.09-3.72-5.09a4,4,0,0,0-3.18,1.44,5.41,5.41,0,0,0-1.25,3.65v9.13h-2.57v-16h2.57v2.65h.06a5.78,5.78,0,0,1,5.25-3,4.88,4.88,0,0,1,4,1.7,7.53,7.53,0,0,1,1.4,4.9Z" transform="translate(-19.5 -14.66)"/><path d="M179.62,230.53a5,5,0,0,1-2.39.5q-4.2,0-4.2-4.69v-9.46h-2.75v-2.19H173v-3.91l2.56-.83v4.74h4v2.19h-4v9a3.79,3.79,0,0,0,.55,2.3,2.17,2.17,0,0,0,1.81.69,2.63,2.63,0,0,0,1.67-.54Z" transform="translate(-19.5 -14.66)"/><path d="M195.91,223.33h-11.3a6,6,0,0,0,1.44,4.12,4.93,4.93,0,0,0,3.78,1.46,7.86,7.86,0,0,0,5-1.79v2.41a9.31,9.31,0,0,1-5.58,1.53,6.74,6.74,0,0,1-5.33-2.18,8.91,8.91,0,0,1-1.94-6.13,8.77,8.77,0,0,1,2.12-6.09,6.81,6.81,0,0,1,5.26-2.35,6,6,0,0,1,4.86,2,8.52,8.52,0,0,1,1.72,5.64Zm-2.63-2.17a5.26,5.26,0,0,0-1.07-3.46,3.65,3.65,0,0,0-2.93-1.23,4.13,4.13,0,0,0-3.08,1.3,5.89,5.89,0,0,0-1.56,3.39Z" transform="translate(-19.5 -14.66)"/><path d="M198.81,230.11v-2.75a7.6,7.6,0,0,0,4.61,1.55c2.25,0,3.38-.75,3.38-2.25a2,2,0,0,0-.29-1.09,3.08,3.08,0,0,0-.78-.79,6.62,6.62,0,0,0-1.16-.62l-1.43-.57a17.66,17.66,0,0,1-1.87-.85,5.57,5.57,0,0,1-1.34-1,3.52,3.52,0,0,1-.81-1.22,4.21,4.21,0,0,1-.28-1.61,3.83,3.83,0,0,1,.52-2,4.54,4.54,0,0,1,1.37-1.46,6.54,6.54,0,0,1,2-.88,8.57,8.57,0,0,1,2.27-.3,9.21,9.21,0,0,1,3.72.72v2.59a7.26,7.26,0,0,0-4.07-1.15,4.7,4.7,0,0,0-1.29.16,3.24,3.24,0,0,0-1,.46,2.15,2.15,0,0,0-.64.71,1.82,1.82,0,0,0-.23.92,2.12,2.12,0,0,0,.23,1.05,2.32,2.32,0,0,0,.66.75,5.48,5.48,0,0,0,1.06.59l1.42.58c.71.27,1.35.55,1.91.83a6.83,6.83,0,0,1,1.44,1,3.9,3.9,0,0,1,.91,1.24,4.09,4.09,0,0,1,.32,1.68,3.92,3.92,0,0,1-.52,2.06,4.51,4.51,0,0,1-1.4,1.45,6.35,6.35,0,0,1-2,.86,9.78,9.78,0,0,1-2.39.28A9.16,9.16,0,0,1,198.81,230.11Z" transform="translate(-19.5 -14.66)"/><path d="M213.42,235.78h-2.28A20.69,20.69,0,0,0,216,222.11a21.07,21.07,0,0,0-4.91-13.83h2.31a20.64,20.64,0,0,1,4.88,13.86A19.89,19.89,0,0,1,213.42,235.78Z" transform="translate(-19.5 -14.66)"/><path d="M244.52,214.69l-7.36,18.56c-1.32,3.31-3.16,5-5.54,5A6.11,6.11,0,0,1,230,238v-2.3a4.68,4.68,0,0,0,1.52.28q1.93,0,2.91-2.31l1.28-3-6.25-16h2.84L236.58,227c0,.16.16.56.33,1.22H237c.05-.25.16-.65.31-1.19l4.55-12.34Z" transform="translate(-19.5 -14.66)"/><path d="M258.59,230.69H256V207h2.56Z" transform="translate(-19.5 -14.66)"/><path d="M275.23,230.69h-2.56v-2.5h-.06a5.38,5.38,0,0,1-4.92,2.87A5.26,5.26,0,0,1,264,229.8a4.38,4.38,0,0,1-1.36-3.36q0-4.49,5.29-5.22l4.79-.67q0-4.08-3.29-4.08a7.83,7.83,0,0,0-5.22,2v-2.63a9.89,9.89,0,0,1,5.43-1.5q5.64,0,5.64,6Zm-2.56-8.1-3.86.53a6.36,6.36,0,0,0-2.69.89,2.55,2.55,0,0,0-.9,2.24,2.45,2.45,0,0,0,.83,1.91,3.22,3.22,0,0,0,2.23.75,4.13,4.13,0,0,0,3.15-1.34,4.76,4.76,0,0,0,1.24-3.38Z" transform="translate(-19.5 -14.66)"/><path d="M279.09,230.11v-2.75a7.62,7.62,0,0,0,4.61,1.55c2.25,0,3.38-.75,3.38-2.25a2,2,0,0,0-.29-1.09,2.79,2.79,0,0,0-.78-.79,6.62,6.62,0,0,0-1.16-.62l-1.43-.57a17.66,17.66,0,0,1-1.87-.85,5.57,5.57,0,0,1-1.34-1,3.52,3.52,0,0,1-.81-1.22,4.41,4.41,0,0,1-.28-1.61,3.83,3.83,0,0,1,.52-2,4.47,4.47,0,0,1,1.38-1.46,6.37,6.37,0,0,1,2-.88,8.57,8.57,0,0,1,2.27-.3A9.14,9.14,0,0,1,289,215v2.59a7.25,7.25,0,0,0-4.06-1.15,4.72,4.72,0,0,0-1.3.16,3.24,3.24,0,0,0-1,.46,2.15,2.15,0,0,0-.64.71,1.93,1.93,0,0,0-.23.92,2.23,2.23,0,0,0,.23,1.05,2.32,2.32,0,0,0,.66.75,5.8,5.8,0,0,0,1.06.59l1.42.58c.71.27,1.35.55,1.91.83a6.83,6.83,0,0,1,1.44,1,4.18,4.18,0,0,1,.71,5,4.51,4.51,0,0,1-1.4,1.45,6.3,6.3,0,0,1-2,.86,9.9,9.9,0,0,1-2.39.28A9.17,9.17,0,0,1,279.09,230.11Z" transform="translate(-19.5 -14.66)"/><path d="M313.31,230a8.33,8.33,0,0,1-4.37,1.11,7.27,7.27,0,0,1-5.53-2.22,8.09,8.09,0,0,1-2.1-5.78,8.88,8.88,0,0,1,2.27-6.35,7.91,7.91,0,0,1,6-2.4,8.41,8.41,0,0,1,3.72.78v2.63a6.5,6.5,0,0,0-3.81-1.25,5.12,5.12,0,0,0-4,1.76,6.64,6.64,0,0,0-1.57,4.61,6.36,6.36,0,0,0,1.47,4.44,5.09,5.09,0,0,0,4,1.63,6.46,6.46,0,0,0,3.93-1.39Z" transform="translate(-19.5 -14.66)"/><path d="M323.88,231.06a7.4,7.4,0,0,1-5.67-2.24,8.31,8.31,0,0,1-2.12-5.94,8.65,8.65,0,0,1,2.21-6.3,7.92,7.92,0,0,1,5.95-2.27,7.18,7.18,0,0,1,5.59,2.21,8.74,8.74,0,0,1,2,6.1,8.62,8.62,0,0,1-2.16,6.14A7.6,7.6,0,0,1,323.88,231.06Zm.18-14.59a4.86,4.86,0,0,0-3.9,1.68,6.88,6.88,0,0,0-1.44,4.63,6.54,6.54,0,0,0,1.45,4.49,5,5,0,0,0,3.89,1.64,4.69,4.69,0,0,0,3.82-1.61,7,7,0,0,0,1.34-4.58,7.14,7.14,0,0,0-1.34-4.63A4.66,4.66,0,0,0,324.06,216.47Z" transform="translate(-19.5 -14.66)"/><path d="M358.66,230.69h-2.57V221.5a6.89,6.89,0,0,0-.82-3.84,3.1,3.1,0,0,0-2.75-1.19,3.4,3.4,0,0,0-2.79,1.5,5.71,5.71,0,0,0-1.15,3.59v9.13H346v-9.5c0-3.15-1.22-4.72-3.64-4.72a3.39,3.39,0,0,0-2.79,1.41,5.85,5.85,0,0,0-1.09,3.68v9.13h-2.56v-16h2.56v2.53h.06a5.44,5.44,0,0,1,5-2.91,4.64,4.64,0,0,1,4.53,3.31,5.73,5.73,0,0,1,5.32-3.31q5.28,0,5.28,6.52Z" transform="translate(-19.5 -14.66)"/><path d="M366.12,228.38h-.06v9.67H363.5V214.69h2.56v2.81h.06a6.09,6.09,0,0,1,5.54-3.19,5.85,5.85,0,0,1,4.82,2.15,8.87,8.87,0,0,1,1.74,5.76,9.92,9.92,0,0,1-2,6.43,6.52,6.52,0,0,1-5.35,2.41A5.36,5.36,0,0,1,366.12,228.38Zm-.06-6.46v2.24a4.74,4.74,0,0,0,1.29,3.36,4.58,4.58,0,0,0,6.92-.4,8.14,8.14,0,0,0,1.32-5,6.49,6.49,0,0,0-1.23-4.19,4.08,4.08,0,0,0-3.34-1.51,4.57,4.57,0,0,0-3.6,1.55A5.75,5.75,0,0,0,366.06,221.92Z" transform="translate(-19.5 -14.66)"/><path d="M389,231.06a7.38,7.38,0,0,1-5.66-2.24,8.26,8.26,0,0,1-2.12-5.94,8.65,8.65,0,0,1,2.2-6.3,7.94,7.94,0,0,1,6-2.27,7.17,7.17,0,0,1,5.58,2.21,8.7,8.7,0,0,1,2,6.1,8.58,8.58,0,0,1-2.17,6.14A7.58,7.58,0,0,1,389,231.06Zm.19-14.59a4.88,4.88,0,0,0-3.91,1.68,6.88,6.88,0,0,0-1.44,4.63,6.54,6.54,0,0,0,1.46,4.49,4.94,4.94,0,0,0,3.89,1.64A4.7,4.7,0,0,0,393,227.3a7,7,0,0,0,1.33-4.58,7.13,7.13,0,0,0-1.33-4.63A4.68,4.68,0,0,0,389.19,216.47Z" transform="translate(-19.5 -14.66)"/><path d="M414.34,230.69h-2.56v-9.13q0-5.09-3.72-5.09a4,4,0,0,0-3.18,1.44,5.36,5.36,0,0,0-1.26,3.65v9.13h-2.56v-16h2.56v2.65h.07a5.78,5.78,0,0,1,5.25-3,4.88,4.88,0,0,1,4,1.7,7.53,7.53,0,0,1,1.39,4.9Z" transform="translate(-19.5 -14.66)"/><path d="M432,223.33h-11.3a6,6,0,0,0,1.44,4.12,5,5,0,0,0,3.78,1.46,7.86,7.86,0,0,0,5-1.79v2.41a9.27,9.27,0,0,1-5.58,1.53,6.72,6.72,0,0,1-5.32-2.18,8.86,8.86,0,0,1-1.94-6.13,8.72,8.72,0,0,1,2.12-6.09,6.8,6.8,0,0,1,5.25-2.35,6,6,0,0,1,4.86,2A8.47,8.47,0,0,1,432,222Zm-2.62-2.17a5.26,5.26,0,0,0-1.07-3.46,3.66,3.66,0,0,0-2.93-1.23,4.12,4.12,0,0,0-3.08,1.3,5.77,5.77,0,0,0-1.56,3.39Z" transform="translate(-19.5 -14.66)"/><path d="M449.19,230.69h-2.57v-9.13q0-5.09-3.71-5.09a4,4,0,0,0-3.18,1.44,5.36,5.36,0,0,0-1.26,3.65v9.13h-2.56v-16h2.56v2.65h.06a5.78,5.78,0,0,1,5.25-3,4.91,4.91,0,0,1,4,1.7,7.59,7.59,0,0,1,1.39,4.9Z" transform="translate(-19.5 -14.66)"/><path d="M461.44,230.53a5,5,0,0,1-2.39.5q-4.21,0-4.21-4.69v-9.46h-2.75v-2.19h2.75v-3.91l2.57-.83v4.74h4v2.19h-4v9a3.79,3.79,0,0,0,.54,2.3,2.19,2.19,0,0,0,1.82.69,2.67,2.67,0,0,0,1.67-.54Z" transform="translate(-19.5 -14.66)"/><path d="M477.72,223.33h-11.3a6,6,0,0,0,1.44,4.12,5,5,0,0,0,3.78,1.46,7.86,7.86,0,0,0,5-1.79v2.41a9.31,9.31,0,0,1-5.58,1.53,6.74,6.74,0,0,1-5.33-2.18,8.91,8.91,0,0,1-1.93-6.13,8.77,8.77,0,0,1,2.11-6.09,6.82,6.82,0,0,1,5.26-2.35,6,6,0,0,1,4.86,2,8.47,8.47,0,0,1,1.72,5.64Zm-2.63-2.17A5.21,5.21,0,0,0,474,217.7a3.65,3.65,0,0,0-2.93-1.23,4.1,4.1,0,0,0-3.07,1.3,5.84,5.84,0,0,0-1.57,3.39Z" transform="translate(-19.5 -14.66)"/><path d="M480.62,230.11v-2.75a7.62,7.62,0,0,0,4.61,1.55c2.25,0,3.38-.75,3.38-2.25a2,2,0,0,0-.29-1.09,2.79,2.79,0,0,0-.78-.79,6.28,6.28,0,0,0-1.16-.62l-1.43-.57a16.57,16.57,0,0,1-1.86-.85,5.44,5.44,0,0,1-1.35-1,3.52,3.52,0,0,1-.81-1.22,4.42,4.42,0,0,1-.27-1.61,3.83,3.83,0,0,1,.51-2,4.58,4.58,0,0,1,1.38-1.46,6.37,6.37,0,0,1,2-.88,8.57,8.57,0,0,1,2.27-.3,9.14,9.14,0,0,1,3.72.72v2.59a7.25,7.25,0,0,0-4.06-1.15,4.77,4.77,0,0,0-1.3.16,3.24,3.24,0,0,0-1,.46,2.15,2.15,0,0,0-.64.71,1.93,1.93,0,0,0-.23.92,2.23,2.23,0,0,0,.23,1.05,2.32,2.32,0,0,0,.66.75,5.8,5.8,0,0,0,1.06.59l1.43.58c.7.27,1.34.55,1.9.83a6.83,6.83,0,0,1,1.44,1,3.75,3.75,0,0,1,.91,1.24,4.44,4.44,0,0,1-.2,3.74,4.4,4.4,0,0,1-1.4,1.45,6.3,6.3,0,0,1-2,.86,9.84,9.84,0,0,1-2.39.28A9.17,9.17,0,0,1,480.62,230.11Z" transform="translate(-19.5 -14.66)"/><path d="M517.59,230.69H515V228H515a6.46,6.46,0,0,1-10.32.94,8.82,8.82,0,0,1-1.81-5.85,9.63,9.63,0,0,1,2-6.36,6.62,6.62,0,0,1,5.33-2.39,5.13,5.13,0,0,1,4.8,2.6H515V207h2.56ZM515,223.45v-2.36a4.6,4.6,0,0,0-1.28-3.28,4.31,4.31,0,0,0-3.25-1.34,4.43,4.43,0,0,0-3.69,1.72,7.56,7.56,0,0,0-1.34,4.75,6.74,6.74,0,0,0,1.29,4.36,4.21,4.21,0,0,0,3.46,1.61,4.4,4.4,0,0,0,3.48-1.55A5.76,5.76,0,0,0,515,223.45Z" transform="translate(-19.5 -14.66)"/><path d="M535.64,223.33h-11.3a6,6,0,0,0,1.44,4.12,5,5,0,0,0,3.78,1.46,7.86,7.86,0,0,0,5-1.79v2.41a9.29,9.29,0,0,1-5.58,1.53,6.76,6.76,0,0,1-5.33-2.18,8.91,8.91,0,0,1-1.93-6.13,8.77,8.77,0,0,1,2.11-6.09,6.84,6.84,0,0,1,5.26-2.35,6,6,0,0,1,4.86,2,8.47,8.47,0,0,1,1.72,5.64ZM533,221.16A5.32,5.32,0,0,0,532,217.7a3.66,3.66,0,0,0-2.93-1.23,4.12,4.12,0,0,0-3.08,1.3,5.77,5.77,0,0,0-1.56,3.39Z" transform="translate(-19.5 -14.66)"/><path d="M561.22,230.69h-2.56v-2.53h-.07a5.27,5.27,0,0,1-4.93,2.9q-5.73,0-5.72-6.81v-9.56h2.54v9.15c0,3.38,1.3,5.07,3.88,5.07a3.91,3.91,0,0,0,3.09-1.39,5.3,5.3,0,0,0,1.21-3.61v-9.22h2.56Z" transform="translate(-19.5 -14.66)"/><path d="M579.67,230.69h-2.56v-9.13q0-5.09-3.72-5.09a4,4,0,0,0-3.18,1.44,5.36,5.36,0,0,0-1.26,3.65v9.13h-2.56v-16H569v2.65H569a5.76,5.76,0,0,1,5.25-3,4.89,4.89,0,0,1,4,1.7,7.53,7.53,0,0,1,1.39,4.9Z" transform="translate(-19.5 -14.66)"/><path d="M605.84,214.69l-6.37,16H597l-6.06-16h2.81l4.07,11.62a11,11,0,0,1,.56,2.24h.06a10.18,10.18,0,0,1,.5-2.17l4.25-11.69Z" transform="translate(-19.5 -14.66)"/><path d="M621.45,223.33H610.16a6,6,0,0,0,1.43,4.12,5,5,0,0,0,3.79,1.46,7.84,7.84,0,0,0,5-1.79v2.41a9.26,9.26,0,0,1-5.57,1.53,6.73,6.73,0,0,1-5.33-2.18,8.91,8.91,0,0,1-1.94-6.13,8.77,8.77,0,0,1,2.12-6.09,6.81,6.81,0,0,1,5.26-2.35,6,6,0,0,1,4.85,2,8.47,8.47,0,0,1,1.72,5.64Zm-2.62-2.17a5.26,5.26,0,0,0-1.07-3.46,3.66,3.66,0,0,0-2.93-1.23,4.12,4.12,0,0,0-3.08,1.3,5.83,5.83,0,0,0-1.56,3.39Z" transform="translate(-19.5 -14.66)"/><path d="M636.23,230a8.3,8.3,0,0,1-4.37,1.11,7.25,7.25,0,0,1-5.52-2.22,8.05,8.05,0,0,1-2.11-5.78,8.88,8.88,0,0,1,2.27-6.35,7.93,7.93,0,0,1,6-2.4,8.47,8.47,0,0,1,3.72.78v2.63a6.55,6.55,0,0,0-3.82-1.25,5.13,5.13,0,0,0-4,1.76,6.64,6.64,0,0,0-1.57,4.61,6.32,6.32,0,0,0,1.48,4.44,5.06,5.06,0,0,0,4,1.63,6.46,6.46,0,0,0,3.93-1.39Z" transform="translate(-19.5 -14.66)"/><path d="M647.53,230.53a5,5,0,0,1-2.39.5q-4.2,0-4.2-4.69v-9.46h-2.75v-2.19h2.75v-3.91l2.56-.83v4.74h4v2.19h-4v9a3.72,3.72,0,0,0,.55,2.3,2.17,2.17,0,0,0,1.81.69,2.67,2.67,0,0,0,1.67-.54Z" transform="translate(-19.5 -14.66)"/><path d="M657.64,231.06a7.4,7.4,0,0,1-5.66-2.24,8.26,8.26,0,0,1-2.12-5.94,8.65,8.65,0,0,1,2.2-6.3,7.94,7.94,0,0,1,6-2.27,7.17,7.17,0,0,1,5.58,2.21,10,10,0,0,1-.15,12.24A7.62,7.62,0,0,1,657.64,231.06Zm.19-14.59a4.88,4.88,0,0,0-3.91,1.68,6.88,6.88,0,0,0-1.44,4.63,6.54,6.54,0,0,0,1.46,4.49,4.94,4.94,0,0,0,3.89,1.64,4.7,4.7,0,0,0,3.82-1.61,7,7,0,0,0,1.33-4.58,7.13,7.13,0,0,0-1.33-4.63A4.68,4.68,0,0,0,657.83,216.47Z" transform="translate(-19.5 -14.66)"/><path d="M678.05,217.28a3.18,3.18,0,0,0-1.94-.51,3.26,3.26,0,0,0-2.74,1.54,7.12,7.12,0,0,0-1.1,4.22v8.16H669.7v-16h2.57V218h.06a5.56,5.56,0,0,1,1.67-2.63,3.81,3.81,0,0,1,2.52-.94,4.38,4.38,0,0,1,1.53.21Z" transform="translate(-19.5 -14.66)"/><path d="M34.25,269.09H31.69v-2.72h-.07a5.91,5.91,0,0,1-5.5,3.09,6,6,0,0,1-4.82-2.15,8.82,8.82,0,0,1-1.8-5.85,9.63,9.63,0,0,1,2-6.36,6.6,6.6,0,0,1,5.33-2.39,5.12,5.12,0,0,1,4.79,2.6h.07V245.4h2.56Zm-2.56-7.24v-2.36a4.6,4.6,0,0,0-1.28-3.28,4.33,4.33,0,0,0-3.25-1.34,4.4,4.4,0,0,0-3.69,1.72,7.5,7.5,0,0,0-1.35,4.75,6.79,6.79,0,0,0,1.29,4.37,4.25,4.25,0,0,0,3.47,1.6,4.38,4.38,0,0,0,3.47-1.55A5.76,5.76,0,0,0,31.69,261.85Z" transform="translate(-19.5 -14.66)"/><path d="M50.89,269.09H48.33v-2.5h-.06a5.39,5.39,0,0,1-4.93,2.87,5.27,5.27,0,0,1-3.74-1.26,4.41,4.41,0,0,1-1.35-3.36q0-4.48,5.28-5.22l4.8-.67q0-4.08-3.3-4.08a7.88,7.88,0,0,0-5.22,2v-2.63a10,10,0,0,1,5.44-1.5q5.64,0,5.64,6ZM48.33,261l-3.86.54a6.23,6.23,0,0,0-2.69.88,2.55,2.55,0,0,0-.9,2.24,2.42,2.42,0,0,0,.83,1.91,3.22,3.22,0,0,0,2.23.75A4.13,4.13,0,0,0,47.09,266a4.81,4.81,0,0,0,1.24-3.38Z" transform="translate(-19.5 -14.66)"/><path d="M69.38,269.09H66.81v-2.72h-.06a6.46,6.46,0,0,1-10.32.94,8.82,8.82,0,0,1-1.81-5.85,9.63,9.63,0,0,1,2-6.36A6.62,6.62,0,0,1,62,252.71a5.13,5.13,0,0,1,4.8,2.6h.06V245.4h2.57Zm-2.57-7.24v-2.36a4.56,4.56,0,0,0-1.28-3.28,4.31,4.31,0,0,0-3.25-1.34,4.43,4.43,0,0,0-3.69,1.72,7.56,7.56,0,0,0-1.34,4.75,6.79,6.79,0,0,0,1.29,4.37,4.23,4.23,0,0,0,3.46,1.6,4.39,4.39,0,0,0,3.48-1.55A5.76,5.76,0,0,0,66.81,261.85Z" transform="translate(-19.5 -14.66)"/><path d="M81.25,269.46a7.4,7.4,0,0,1-5.66-2.24,8.26,8.26,0,0,1-2.12-5.94,8.65,8.65,0,0,1,2.2-6.3,7.92,7.92,0,0,1,6-2.27,7.18,7.18,0,0,1,5.59,2.21,8.71,8.71,0,0,1,2,6.11,8.57,8.57,0,0,1-2.17,6.13A7.55,7.55,0,0,1,81.25,269.46Zm.19-14.59a4.88,4.88,0,0,0-3.91,1.68,6.88,6.88,0,0,0-1.44,4.63,6.54,6.54,0,0,0,1.46,4.49,4.94,4.94,0,0,0,3.89,1.64,4.7,4.7,0,0,0,3.82-1.61,7,7,0,0,0,1.33-4.58,7.13,7.13,0,0,0-1.33-4.63A4.68,4.68,0,0,0,81.44,254.87Z" transform="translate(-19.5 -14.66)"/><path d="M108.8,274.18h-2.28a20,20,0,0,1-4.85-13.64,20.72,20.72,0,0,1,4.85-13.86h2.31a21.07,21.07,0,0,0-4.91,13.83A20.68,20.68,0,0,0,108.8,274.18Z" transform="translate(-19.5 -14.66)"/><path d="M128.37,269.09h-9.21l.28-1.12c2.24-.23,2.31-.64,2.12-2.15-.16-1.08-.36-2.27-.55-3.55H115c-.6,1.12-1.37,2.37-1.92,3.52-.67,1.41-.6,1.89,2.12,2.18l-.26,1.12H107l.29-1.12c2.4-.32,2.72-.55,4.54-3.65l9.31-16.09,1.54-.23c1.28,7.91,2.21,12.83,2.88,16.8.41,2.53.61,2.88,3.1,3.17Zm-8.67-15.52h-.06c-1.25,2.37-2.66,4.83-3.88,7.1h5Z" transform="translate(-19.5 -14.66)"/><path d="M141.94,266.78h-.06v9.67h-2.56V253.09h2.56v2.81h.06a6.07,6.07,0,0,1,5.53-3.19,5.88,5.88,0,0,1,4.83,2.15,8.87,8.87,0,0,1,1.73,5.76,9.92,9.92,0,0,1-1.95,6.43,6.49,6.49,0,0,1-5.34,2.41A5.35,5.35,0,0,1,141.94,266.78Zm-.06-6.46v2.24a4.74,4.74,0,0,0,1.29,3.36,4.26,4.26,0,0,0,3.27,1.39,4.31,4.31,0,0,0,3.65-1.78,8.19,8.19,0,0,0,1.32-5,6.49,6.49,0,0,0-1.23-4.19,4.13,4.13,0,0,0-3.35-1.51,4.54,4.54,0,0,0-3.59,1.55A5.71,5.71,0,0,0,141.88,260.32Z" transform="translate(-19.5 -14.66)"/><path d="M164.82,269.46a7.4,7.4,0,0,1-5.67-2.24,8.31,8.31,0,0,1-2.12-5.94,8.65,8.65,0,0,1,2.21-6.3,7.92,7.92,0,0,1,5.95-2.27,7.18,7.18,0,0,1,5.59,2.21,8.7,8.7,0,0,1,2,6.11,8.61,8.61,0,0,1-2.16,6.13A7.56,7.56,0,0,1,164.82,269.46Zm.18-14.59a4.87,4.87,0,0,0-3.9,1.68,6.88,6.88,0,0,0-1.44,4.63,6.54,6.54,0,0,0,1.45,4.49,5,5,0,0,0,3.89,1.64,4.69,4.69,0,0,0,3.82-1.61,7,7,0,0,0,1.34-4.58,7.14,7.14,0,0,0-1.34-4.63A4.66,4.66,0,0,0,165,254.87Z" transform="translate(-19.5 -14.66)"/><path d="M185.22,255.68a3.16,3.16,0,0,0-1.94-.51,3.27,3.27,0,0,0-2.74,1.54,7.19,7.19,0,0,0-1.1,4.22v8.16h-2.56v-16h2.56v3.29h.06a5.65,5.65,0,0,1,1.68-2.63,3.79,3.79,0,0,1,2.51-.94,4.06,4.06,0,0,1,1.53.22Z" transform="translate(-19.5 -14.66)"/><path d="M209.63,261.73h-11.3a6,6,0,0,0,1.44,4.12,5,5,0,0,0,3.78,1.46,7.91,7.91,0,0,0,5-1.78v2.4a9.31,9.31,0,0,1-5.58,1.53,6.74,6.74,0,0,1-5.33-2.18,8.91,8.91,0,0,1-1.93-6.13,8.77,8.77,0,0,1,2.11-6.09,6.82,6.82,0,0,1,5.26-2.35,6,6,0,0,1,4.86,2,8.47,8.47,0,0,1,1.72,5.64ZM207,259.56a5.21,5.21,0,0,0-1.07-3.46,3.65,3.65,0,0,0-2.93-1.23,4.1,4.1,0,0,0-3.07,1.3,5.84,5.84,0,0,0-1.57,3.39Z" transform="translate(-19.5 -14.66)"/><path d="M216.07,268.42a10,10,0,0,1-1.59,6.07,5.32,5.32,0,0,1-4.54,2.13,4.82,4.82,0,0,1-2.12-.5v-2.39a4.22,4.22,0,0,0,2.18.7c2.34,0,3.5-1.86,3.5-5.59V253.09h2.57ZM214.82,249a1.66,1.66,0,0,1-1.18-.47,1.61,1.61,0,0,1-.48-1.19,1.63,1.63,0,0,1,.48-1.2,1.66,1.66,0,0,1,1.18-.47,1.69,1.69,0,0,1,1.19.47,1.6,1.6,0,0,1,.49,1.2,1.56,1.56,0,0,1-.49,1.17A1.66,1.66,0,0,1,214.82,249Z" transform="translate(-19.5 -14.66)"/><path d="M234.11,261.73H222.82a6,6,0,0,0,1.43,4.12,5,5,0,0,0,3.78,1.46,7.89,7.89,0,0,0,5-1.78v2.4a9.26,9.26,0,0,1-5.57,1.53,6.73,6.73,0,0,1-5.33-2.18,8.91,8.91,0,0,1-1.94-6.13,8.77,8.77,0,0,1,2.12-6.09,6.8,6.8,0,0,1,5.25-2.35,6,6,0,0,1,4.86,2,8.47,8.47,0,0,1,1.72,5.64Zm-2.62-2.17a5.26,5.26,0,0,0-1.07-3.46,3.66,3.66,0,0,0-2.93-1.23,4.12,4.12,0,0,0-3.08,1.3,5.83,5.83,0,0,0-1.56,3.39Z" transform="translate(-19.5 -14.66)"/><path d="M260.71,269.09h-2.57V259.9a6.89,6.89,0,0,0-.82-3.84,3.1,3.1,0,0,0-2.75-1.19,3.4,3.4,0,0,0-2.79,1.5,5.71,5.71,0,0,0-1.15,3.59v9.13h-2.56v-9.5c0-3.15-1.22-4.72-3.64-4.72a3.39,3.39,0,0,0-2.79,1.41,5.85,5.85,0,0,0-1.09,3.68v9.13H238v-16h2.56v2.53h.06a5.44,5.44,0,0,1,5-2.91,4.63,4.63,0,0,1,4.53,3.32,5.72,5.72,0,0,1,5.32-3.32q5.28,0,5.28,6.52Z" transform="translate(-19.5 -14.66)"/><path d="M268.18,266.78h-.07v9.67h-2.56V253.09h2.56v2.81h.07a6.07,6.07,0,0,1,5.53-3.19,5.85,5.85,0,0,1,4.82,2.15,8.87,8.87,0,0,1,1.74,5.76,9.92,9.92,0,0,1-1.95,6.43,6.52,6.52,0,0,1-5.35,2.41A5.34,5.34,0,0,1,268.18,266.78Zm-.07-6.46v2.24a4.74,4.74,0,0,0,1.29,3.36,4.59,4.59,0,0,0,6.92-.39,8.19,8.19,0,0,0,1.32-5,6.49,6.49,0,0,0-1.23-4.19,4.11,4.11,0,0,0-3.34-1.51,4.57,4.57,0,0,0-3.6,1.55A5.75,5.75,0,0,0,268.11,260.32Z" transform="translate(-19.5 -14.66)"/><path d="M286.93,269.09h-2.57V245.4h2.57Z" transform="translate(-19.5 -14.66)"/><path d="M298.8,269.46a7.4,7.4,0,0,1-5.66-2.24,8.26,8.26,0,0,1-2.12-5.94,8.65,8.65,0,0,1,2.2-6.3,7.94,7.94,0,0,1,6-2.27,7.17,7.17,0,0,1,5.58,2.21,8.71,8.71,0,0,1,2,6.11,8.57,8.57,0,0,1-2.17,6.13A7.55,7.55,0,0,1,298.8,269.46Zm.19-14.59a4.88,4.88,0,0,0-3.91,1.68,6.88,6.88,0,0,0-1.44,4.63,6.54,6.54,0,0,0,1.46,4.49,4.94,4.94,0,0,0,3.89,1.64,4.7,4.7,0,0,0,3.82-1.61,7,7,0,0,0,1.33-4.58,7.13,7.13,0,0,0-1.33-4.63A4.68,4.68,0,0,0,299,254.87Z" transform="translate(-19.5 -14.66)"/><path d="M310.93,274.18h-2.29a20.68,20.68,0,0,0,4.88-13.67,21.07,21.07,0,0,0-4.91-13.83h2.32a20.63,20.63,0,0,1,4.87,13.86A19.88,19.88,0,0,1,310.93,274.18Z" transform="translate(-19.5 -14.66)"/><path d="M322.86,265.53l-2.5,7.68h-1.83l1.83-7.68Z" transform="translate(-19.5 -14.66)"/><path d="M347.13,268.35a8.34,8.34,0,0,1-4.38,1.11,7.25,7.25,0,0,1-5.52-2.22,8.09,8.09,0,0,1-2.1-5.78,8.88,8.88,0,0,1,2.26-6.35,7.93,7.93,0,0,1,6.05-2.4,8.41,8.41,0,0,1,3.72.78v2.63a6.55,6.55,0,0,0-3.81-1.25,5.17,5.17,0,0,0-4,1.76,6.69,6.69,0,0,0-1.57,4.61,6.37,6.37,0,0,0,1.48,4.44,5.06,5.06,0,0,0,4,1.63,6.47,6.47,0,0,0,3.94-1.39Z" transform="translate(-19.5 -14.66)"/><path d="M357.69,269.46a7.4,7.4,0,0,1-5.66-2.24,8.31,8.31,0,0,1-2.12-5.94,8.65,8.65,0,0,1,2.2-6.3,7.94,7.94,0,0,1,6-2.27,7.17,7.17,0,0,1,5.58,2.21,8.71,8.71,0,0,1,2,6.11,8.61,8.61,0,0,1-2.16,6.13A7.59,7.59,0,0,1,357.69,269.46Zm.19-14.59a4.88,4.88,0,0,0-3.91,1.68,6.88,6.88,0,0,0-1.44,4.63,6.54,6.54,0,0,0,1.46,4.49,4.94,4.94,0,0,0,3.89,1.64,4.7,4.7,0,0,0,3.82-1.61,7,7,0,0,0,1.33-4.58,7.13,7.13,0,0,0-1.33-4.63A4.68,4.68,0,0,0,357.88,254.87Z" transform="translate(-19.5 -14.66)"/><path d="M392.47,269.09h-2.56V259.9a6.89,6.89,0,0,0-.82-3.84,3.13,3.13,0,0,0-2.76-1.19,3.43,3.43,0,0,0-2.79,1.5,5.77,5.77,0,0,0-1.15,3.59v9.13h-2.56v-9.5q0-4.72-3.64-4.72a3.38,3.38,0,0,0-2.78,1.41,5.85,5.85,0,0,0-1.09,3.68v9.13h-2.57v-16h2.57v2.53h.06a5.43,5.43,0,0,1,5-2.91,4.66,4.66,0,0,1,2.86.92,4.6,4.6,0,0,1,1.67,2.4,5.72,5.72,0,0,1,5.31-3.32q5.28,0,5.28,6.52Z" transform="translate(-19.5 -14.66)"/><path d="M404,269.46a7.4,7.4,0,0,1-5.66-2.24,8.31,8.31,0,0,1-2.12-5.94,8.65,8.65,0,0,1,2.21-6.3,7.9,7.9,0,0,1,5.95-2.27,7.16,7.16,0,0,1,5.58,2.21,8.71,8.71,0,0,1,2,6.11,8.61,8.61,0,0,1-2.16,6.13A7.57,7.57,0,0,1,404,269.46Zm.19-14.59a4.84,4.84,0,0,0-3.9,1.68,6.88,6.88,0,0,0-1.44,4.63,6.54,6.54,0,0,0,1.45,4.49,5,5,0,0,0,3.89,1.64A4.69,4.69,0,0,0,408,265.7a7,7,0,0,0,1.34-4.58,7.14,7.14,0,0,0-1.34-4.63A4.66,4.66,0,0,0,404.19,254.87Z" transform="translate(-19.5 -14.66)"/><path d="M423.86,268.51v-2.75a7.6,7.6,0,0,0,4.61,1.55c2.25,0,3.38-.75,3.38-2.25a2,2,0,0,0-.29-1.09,2.79,2.79,0,0,0-.78-.79,6.62,6.62,0,0,0-1.16-.62l-1.43-.57a17.66,17.66,0,0,1-1.87-.85,5.57,5.57,0,0,1-1.34-1,3.52,3.52,0,0,1-.81-1.22,4.41,4.41,0,0,1-.28-1.61,3.83,3.83,0,0,1,.52-2,4.47,4.47,0,0,1,1.38-1.46,6.37,6.37,0,0,1,2-.88,8.57,8.57,0,0,1,2.27-.3,9.21,9.21,0,0,1,3.72.72V256a7.18,7.18,0,0,0-4.06-1.16,4.72,4.72,0,0,0-1.3.16,3.24,3.24,0,0,0-1,.46,2.09,2.09,0,0,0-.64.72,1.76,1.76,0,0,0-.23.91,2.12,2.12,0,0,0,.23,1.05,2.32,2.32,0,0,0,.66.75,5.8,5.8,0,0,0,1.06.59l1.42.58c.71.27,1.35.55,1.91.83a6.83,6.83,0,0,1,1.44,1,4.18,4.18,0,0,1,.71,5,4.51,4.51,0,0,1-1.4,1.45,6.4,6.4,0,0,1-2,.86,9.92,9.92,0,0,1-2.4.28A9.16,9.16,0,0,1,423.86,268.51Z" transform="translate(-19.5 -14.66)"/><path d="M439.72,249a1.62,1.62,0,0,1-1.17-.47,1.61,1.61,0,0,1-.48-1.19,1.62,1.62,0,0,1,1.65-1.67,1.69,1.69,0,0,1,1.2.47,1.6,1.6,0,0,1,.49,1.2,1.56,1.56,0,0,1-.49,1.17A1.67,1.67,0,0,1,439.72,249ZM441,269.09h-2.56v-16H441Z" transform="translate(-19.5 -14.66)"/><path d="M459.82,267.81q0,8.81-8.44,8.81a11.34,11.34,0,0,1-5.19-1.13v-2.56a10.65,10.65,0,0,0,5.16,1.5q5.91,0,5.9-6.28V266.4h-.06a6.47,6.47,0,0,1-10.3.93,8.49,8.49,0,0,1-1.82-5.73,9.92,9.92,0,0,1,2-6.48,6.54,6.54,0,0,1,5.36-2.41,5.22,5.22,0,0,1,4.8,2.6h.06v-2.22h2.57Zm-2.57-6v-2.36a4.55,4.55,0,0,0-1.29-3.26,4.2,4.2,0,0,0-3.21-1.36A4.44,4.44,0,0,0,449,256.6a7.67,7.67,0,0,0-1.35,4.83,6.64,6.64,0,0,0,1.29,4.28,4.19,4.19,0,0,0,3.41,1.6,4.46,4.46,0,0,0,3.51-1.53A5.74,5.74,0,0,0,457.25,261.85Z" transform="translate(-19.5 -14.66)"/><path d="M477.94,269.09h-2.56v-2.53h-.06a5.28,5.28,0,0,1-4.94,2.9q-5.72,0-5.72-6.81v-9.56h2.55v9.15q0,5.07,3.87,5.07a3.91,3.91,0,0,0,3.09-1.39,5.3,5.3,0,0,0,1.21-3.61v-9.22h2.56Z" transform="translate(-19.5 -14.66)"/><path d="M496,261.73H484.68a6,6,0,0,0,1.43,4.12,5,5,0,0,0,3.78,1.46,7.89,7.89,0,0,0,5-1.78v2.4a9.26,9.26,0,0,1-5.57,1.53,6.73,6.73,0,0,1-5.33-2.18,8.91,8.91,0,0,1-1.94-6.13,8.72,8.72,0,0,1,2.12-6.09,6.8,6.8,0,0,1,5.25-2.35,6,6,0,0,1,4.86,2,8.47,8.47,0,0,1,1.72,5.64Zm-2.62-2.17a5.26,5.26,0,0,0-1.07-3.46,3.66,3.66,0,0,0-2.93-1.23,4.12,4.12,0,0,0-3.08,1.3,5.83,5.83,0,0,0-1.56,3.39Z" transform="translate(-19.5 -14.66)"/><line x1="112.16" y1="227.34" x2="93.93" y2="227.34"/><line x1="105.39" y1="227.34" x2="93.93" y2="227.34" style="fill:none;stroke:#000;stroke-linecap:round;stroke-linejoin:round;stroke-width:1.2px"/><path d="M131.66,242a37,37,0,0,1-9.59-4.21L124,242l-1.93,4.21A37,37,0,0,1,131.66,242Z" transform="translate(-19.5 -14.66)"/></svg>