<svg id="Capa_1" data-name="Capa 1" xmlns="http://www.w3.org/2000/svg" viewBox="0 0 977 669"><defs><style>.cls-1{fill:#502149;}.cls-2{fill:#af4b94;}.cls-3,.cls-4{fill:#fff;}.cls-4{font-size:32px;font-family:Arial-BoldItalicMT, Arial;font-weight:700;font-style:italic;}.cls-5{font-family:ArialMT, Arial;font-weight:400;font-style:normal;}.cls-6{letter-spacing:-0.06em;}</style></defs><title>popper</title><path class="cls-1" d="M746.84,597.83c-1.09,0-2.18,0-3.27-.05l-273.13-7.52a4.61,4.61,0,0,1-4.48-4.73,4.85,4.85,0,0,1,4.73-4.48l276.15,7.56a4.61,4.61,0,0,1,0,9.22Zm-672.2-69a4.59,4.59,0,0,1-3.9-2.15,116.75,116.75,0,0,1-17.58-51.25L31.24,252.7a4.61,4.61,0,0,1,9.17-.91L62.33,474.56a107.51,107.51,0,0,0,16.2,47.24,4.61,4.61,0,0,1-3.89,7.06Zm812-131.78a4.68,4.68,0,0,1-1.16-.15,4.6,4.6,0,0,1-3.3-5.61L941.33,163a109,109,0,0,0,3.45-27.21,105.21,105.21,0,0,0-.59-11.37,4.61,4.61,0,1,1,9.17-1,118.15,118.15,0,0,1-3.12,41.85L891.1,393.63A4.62,4.62,0,0,1,886.64,397.08ZM312.82,64.63a4.61,4.61,0,0,1-.33-9.2l275.65-20a4.49,4.49,0,0,1,4.93,4.26,4.6,4.6,0,0,1-4.26,4.92L313.16,64.62Z"/><path class="cls-2" d="M891.26,89.61a72,72,0,0,0-60.53-25.7L138.09,114.3a72,72,0,0,0-66.43,78.86L99,471a72,72,0,0,0,69.68,64.92l13,.36,19,104.53,84.16-101.69,460,12.67a72,72,0,0,0,71.68-53.92l89.14-344A72,72,0,0,0,891.26,89.61Z"/><path class="cls-3" d="M803,171.16c-18,0-33.58-7.72-45.19-22.32a61.77,61.77,0,0,1-4.68,5.06c-11.67,11.29-26.67,17.26-43.4,17.26-17.89,0-33.52-7.75-45.19-22.4C654,135.5,648.6,119.19,648.6,100.29c0-25.25,9.57-48,28.45-67.52C695.48,13.68,718,2.55,743.93-.32a23,23,0,0,1,25.57,22.9v7.93a24,24,0,0,1-.24,3.3l1-1c18.39-19.1,40.87-30.24,66.85-33.11a23,23,0,0,1,25.56,22.9v7.93a23,23,0,0,1-11.54,20,99.11,99.11,0,0,0-14,9.6,53.34,53.34,0,0,1,13.35,11.36c9.28,10.88,14,24.08,14,39.24a58.89,58.89,0,0,1-18,43.18C834.75,165.17,819.75,171.16,803,171.16ZM788.07,104c.51,6.57,2.4,11.86,5.75,16.09s5.94,5,9.18,5c4.83,0,8.19-1.27,11.25-4.24s4.09-5.78,4.09-10.17c0-5.21-1.57-7.73-3-9.34-1.54-1.81-2.19-1.84-3.06-1.84a22.72,22.72,0,0,0-4,2.14A23,23,0,0,1,788.07,104Zm-93.27,0c.5,6.58,2.4,11.86,5.76,16.07s6,5,9.17,5c4.86,0,8.25-1.28,11.36-4.29,2.93-2.83,4.12-5.76,4.12-10.12,0-5.2-1.58-7.73-3-9.34-1.53-1.79-2.2-1.84-3.15-1.84a30.37,30.37,0,0,0-3.93,2.14A23,23,0,0,1,694.8,104Zm49.13-43.89a49.93,49.93,0,0,1,5.35,3.64,95.79,95.79,0,0,1,6-11.69A97.33,97.33,0,0,0,743.93,60.09Z"/><path class="cls-1" d="M746.46,22.58v7.93Q711,50.94,702.63,82.33q9-5.86,16.39-5.87,12.29,0,20.76,9.93t8.46,24.29a35.64,35.64,0,0,1-11.13,26.67Q726,148.12,709.74,148.13t-27.18-13.71q-10.93-13.72-10.93-34.12,0-28.77,22-51.54T746.46,22.58Zm93.14,0v7.93q-35.51,20.43-43.83,51.82,9-5.86,16.52-5.87,12.15,0,20.62,9.93t8.46,24.29a35.73,35.73,0,0,1-11.06,26.67Q819.26,148.12,803,148.13t-27.24-13.71Q764.9,120.7,764.9,100.3q0-28.77,21.92-51.54T839.6,22.58Z"/><text class="cls-4" transform="translate(248.71 234.91)">Según Popper (1934),<tspan class="cls-5" x="327.19" y="0" xml:space="preserve"> el término </tspan><tspan class="cls-5"><tspan x="5.3" y="38.4">“ciencia” podría manejarse como </tspan><tspan x="2.63" y="76.8">sinónimo de ciencia “positiva”, es </tspan><tspan x="-29.45" y="115.2">deci</tspan><tspan class="cls-6" x="29.26" y="115.2">r</tspan><tspan x="38.15" y="115.2">, aquella parte del saber humano </tspan><tspan x="28.38" y="153.6">que se maneja con el Método </tspan><tspan x="34.68" y="192">Hipotético-Deductivo (MHD).</tspan></tspan></text></svg>