<svg id="Capa_1" data-name="Capa 1" xmlns="http://www.w3.org/2000/svg" xmlns:xlink="http://www.w3.org/1999/xlink" viewBox="0 0 900 872"><defs><style>.cls-1{fill:none;}.cls-2{clip-path:url(#clip-path);}.cls-3{fill:#76316a;}.cls-4{fill:#af4b94;}.cls-5{fill:#bb885a;}.cls-6{fill:#a95c39;}.cls-7{fill:#d5a971;}.cls-8{fill:#262624;}.cls-17,.cls-9{fill:#fff;}.cls-10{fill:#f4da7d;}.cls-11{font-size:61.36px;font-family:Arial-BoldMT, Arial;font-weight:700;letter-spacing:0.1em;}.cls-12{letter-spacing:0.08em;}.cls-13{fill:#8ec9fc;}.cls-14{fill:#dc495d;}.cls-15{fill:#eebaa8;}.cls-16{fill:#6ea0fb;}.cls-17{font-size:29px;font-family:Arial-Black, Arial;font-weight:800;}.cls-18{letter-spacing:-0.03em;}.cls-19{letter-spacing:-0.02em;}.cls-20{letter-spacing:0.02em;}.cls-21{letter-spacing:0.02em;}.cls-22{letter-spacing:0.02em;}</style><clipPath id="clip-path"><rect class="cls-1" x="9.5" y="6.5" width="879" height="861" rx="23.57"/></clipPath></defs><title>votos</title><g class="cls-2"><rect class="cls-3" x="8" y="-4" width="882" height="882"/><path class="cls-4" d="M632.76-4H282.92c-84.2,56.44-139.63,152.47-139.63,261.46C143.29,431.18,284.12,572,457.84,572S772.39,431.18,772.39,257.46C772.39,148.47,717,52.44,632.76-4Z"/><rect class="cls-5" x="319.15" y="324.46" width="280.37" height="174.23"/><rect class="cls-6" x="319.15" y="315.93" width="280.37" height="8.53"/><rect class="cls-5" x="310.57" y="267.99" width="297.53" height="47.94"/><polygon class="cls-7" points="560.05 239.88 459.34 239.88 358.62 239.88 310.57 267.99 459.34 267.99 608.1 267.99 560.05 239.88"/><polygon class="cls-5" points="396.2 257.46 527.75 257.46 519.26 250.15 406.13 250.15 396.2 257.46"/><polygon class="cls-8" points="406.13 250.15 406.13 253.88 401.5 257.46 523.67 257.46 519.26 253.73 519.26 250.15 406.13 250.15"/><polygon class="cls-6" points="406.13 250.15 406.13 253.88 519.26 253.73 519.26 250.15 406.13 250.15"/><polygon class="cls-6" points="573.48 411.82 570.71 415.98 568.7 367.38 358.31 376.06 366.85 363.24 353.61 354.43 328.96 391.46 342.2 400.27 347.27 392.66 349.4 444.25 557.61 435.65 548.83 448.84 562.07 457.65 586.72 420.63 573.48 411.82"/><rect class="cls-9" x="347.91" y="366.4" width="222.29" height="67.76" transform="translate(-16.13 19.28) rotate(-2.37)"/><rect class="cls-10" x="339.96" y="349.58" width="15.9" height="44.48" transform="translate(264.35 -130.48) rotate(33.65)"/><rect class="cls-10" x="559.82" y="406.96" width="15.9" height="44.48" transform="translate(333 -242.71) rotate(33.65)"/><text class="cls-11" transform="matrix(1, -0.04, 0.04, 1, 364.2, 427.47)">VO<tspan class="cls-12" x="100.92" y="0">T</tspan><tspan x="143.43" y="0">O</tspan></text><path class="cls-4" d="M8,585.19S143.07,474,449.63,474C749.07,474,890,585.19,890,585.19V878H8Z"/><path class="cls-3" d="M114.91,877.24H69.52s-10.14-47.09-12.65-62-4.62-20.89-8.43-25.51A121.81,121.81,0,0,1,32.57,766c-5.72-11.34-13.66-26.31-10.24-28.92s10.44,11.15,11.85,13.26,4.42,5.22,5,5-7.73-16.37-9-20.89-4.72-10.64-1-12.25,9,9,11,13.46,9.3,15.56,9.62,15.46S43.52,728.6,43,722s-.2-11.08,3.62-9.88,5.42,8.94,6.63,15.66,4.92,19.38,5.82,19.49.8-34.32,5.82-33.43S69,725,69.12,735.26s.1,20,1,23.49,3.11,6.63,4,6.43,3-11.35,11.85-13.66,13.76-.4,12.05,3-7.33,2.3-10,7.63-6.53,14.56-5.82,22.49,1.5,23.5,5.82,32.73S110.69,862,114.91,877.24Z"/><path class="cls-3" d="M864.26,877.24H818.88s-10.15-47.09-12.66-62-4.62-20.89-8.43-25.51A122.27,122.27,0,0,1,781.92,766c-5.72-11.34-13.65-26.31-10.24-28.92s10.44,11.15,11.85,13.26,4.42,5.22,5,5-7.73-16.37-9-20.89-4.72-10.64-1-12.25,9,9,11,13.46,9.3,15.56,9.62,15.46-6.3-22.52-6.8-29.08-.2-11.08,3.61-9.88,5.42,8.94,6.63,15.66,4.92,19.38,5.82,19.49.81-34.32,5.83-33.43,4.11,11.13,4.21,21.38.1,20,1,23.49,3.11,6.63,4,6.43,3-11.35,11.85-13.66,13.76-.4,12,3-7.33,2.3-10,7.63-6.52,14.56-5.82,22.49,1.5,23.5,5.82,32.73S860.05,862,864.26,877.24Z"/><path class="cls-3" d="M133.46,878H214s1.47-56.45-6.47-97.61S194,716.3,194,716.3s12.35-7.57,17.64-18.38,7.06-25.79,13.67-37.48,6.84-20.51,0-20.73-19,13.45-22.05,21.61-5.29,12.13-7.05,11.47-7.5-4-9.27-31.31-3.52-56.23-11-55.57-5.29,32.41-4.41,41.9,1.32,20.94-.88,20.72-5.07-26.9-6.62-43.66-4.63-27.34-12.35-25.13-1.1,37.48,0,48.51,1.55,22-.44,22-8.82-34.18-12.34-47.19-10.37-19-15-15,8.38,50,9.7,56.44,2.43,19.41.89,20.73S116.18,609.5,108,611.05s-5.74,22.49,0,36.16,19.18,39.91,22.93,45.86,9.26,19.19,12.35,21.61,4.41,56.45,2.2,82.91S133.46,878,133.46,878Z"/><path class="cls-3" d="M620.6,877.24h68.76s15.36-71.35,19.16-94,7-31.65,12.78-38.64a185.35,185.35,0,0,0,24-35.91c8.67-17.19,20.69-39.85,15.52-43.81S745,681.76,742.91,685s-6.7,7.91-7.61,7.61S747,667.76,749,660.92s7.15-16.13,1.52-18.56-13.69,13.69-16.73,20.38-14.09,23.58-14.58,23.43,9.56-34.12,10.32-44.06.3-16.79-5.48-15-8.21,13.54-10,23.74-7.45,29.36-8.82,29.51-1.22-52-8.83-50.64-6.23,16.87-6.38,32.38-.16,30.28-1.53,35.6-4.71,10-6.08,9.74-4.56-17.19-18-20.69-20.84-.61-18.26,4.56,11.11,3.5,15.22,11.56S671.25,725,670.19,737s-2.28,35.6-8.82,49.59S627,854.12,620.6,877.24Z"/><path class="cls-3" d="M386.34,878s69.59-136.87,71-187.47,3.37-41,1.42-50.59-11.72-48.64-13.14-53.79-23.26-45.62-16.33-51.48,24.5,33.55,27.69,32-20.06-56.27-9.58-58.94,27.16,50.78,29.46,50.78-10.29-72.79,2.13-70.3,17.22,68.34,20.6,68.52-.36-62.67,12.07-61.07,5,91.07,4.61,105.45a87.14,87.14,0,0,0,21.31-14.56c10.83-9.94,14.31-16.51,18.46-11.71s.36,20.59-6.39,30.53S528,626.27,523.74,634.08s-13.85,46-16,66S483.62,842.32,460.19,878Z"/><polygon class="cls-9" points="753.78 527.15 768.66 452.64 856.51 468.32 822.78 595.19 769.84 584.79 742 577.74 753.78 527.15"/><path class="cls-13" d="M796.72,507.62s-10.24-19.69-17.07-15,12.91,31.09,17,31.3,40.35-35.64,37.71-41.32S823.05,483.34,796.72,507.62Z"/><path class="cls-5" d="M783.57,661.27s14.11-31.77,12.54-43.14S789.18,596,789.9,586s10.53-39.21,8.57-44.31-14.12-7.06-21.18,7.06-7.45,36.07-7.45,36.07l-27.84-7,11.78-50.59s-19.23,10.19-24.33,22.74-9,40.79-5.1,50.59,17.45,18,17.65,29.41-3.53,33.34-3.53,33.34Z"/><path class="cls-14" d="M703,878h85.23S804,809.5,804.48,751.46s-6.27-93.59-6.27-93.59-39.48-23.79-69.55,0C728.66,657.87,733.37,785.45,703,878Z"/><path class="cls-9" d="M275.69,585.19,258.85,614.6,233,658.91s-75.39-39.21-104.36-67.45l50.24-80,47.84,38Z"/><path class="cls-14" d="M192.13,570.52c.52-14.15-.5-26.91-3.68-27-4.22-.13-6.93,12.3-8,26.27-13.89-.47-26.27.57-26.36,3.7-.13,4.17,12,6.87,25.81,8-.23,14.49,1.27,27.39,4.62,26.5,3.19-.84,5.66-12.64,6.9-25.92,14.74.29,28-1.21,27.14-4.61C217.67,574.23,205.6,571.74,192.13,570.52Z"/><path class="cls-5" d="M258.83,695.78s.59-30.2-4.31-40.4-22.36-36.47-30.59-43.92-15.1-13.33-9.81-19.21,22.48,5.88,30.07,11.76,14.66,10.59,14.66,10.59l16.84-29.41-49-35.69s22.55-5.69,31,0,22,18.24,30.59,22,16.28,15.88,16.47,23.73-7.84,45.88-7.45,56.66,3.53,38.44,3.53,38.44Z"/><path class="cls-10" d="M379.09,878H286.54s-42.61-86.54-42.35-185.1c0,0,30.05-24,64.83-9.93C309,683,336,801.4,379.09,878Z"/><polygon class="cls-9" points="400.24 527.15 385.35 452.64 297.51 468.32 331.24 595.19 384.18 584.79 412.02 577.74 400.24 527.15"/><path class="cls-13" d="M346.61,509.5s-17.08-14.42-21.77-7.51,23.9,24,27.84,22.64,24.65-48.19,20-52.47S362.31,477.1,346.61,509.5Z"/><path class="cls-15" d="M370.45,661.27s-14.12-31.77-12.55-43.14S364.84,596,364.12,586s-10.53-39.21-8.57-44.31,14.12-7.06,21.18,7.06,7.45,36.07,7.45,36.07l27.84-7-11.78-50.59s19.23,10.19,24.33,22.74,9,40.79,5.1,50.59-17.45,18-17.65,29.41,3.53,33.34,3.53,33.34Z"/><path class="cls-14" d="M451,878H365.75s-15.69-68.5-16.21-126.54,6.27-93.59,6.27-93.59,39.48-23.79,69.54,0C425.35,657.87,420.65,785.45,451,878Z"/><path class="cls-9" d="M602,585.19,618.8,614.6l25.91,44.31s75.38-39.21,104.36-67.45l-50.24-80L651,549.5Z"/><path class="cls-14" d="M685.53,570.52c-.53-14.15.5-26.91,3.67-27,4.22-.13,6.93,12.3,8,26.27,13.89-.47,26.28.57,26.37,3.7.12,4.17-12,6.87-25.81,8,.23,14.49-1.28,27.39-4.63,26.5-3.19-.84-5.65-12.64-6.89-25.92-14.75.29-28-1.21-27.15-4.61C660,574.23,672.06,571.74,685.53,570.52Z"/><path class="cls-15" d="M618.83,695.78s-.59-30.2,4.31-40.4,22.35-36.47,30.59-43.92,15.1-13.33,9.8-19.21-22.48,5.88-30.06,11.76S618.8,614.6,618.8,614.6L602,585.19l49-35.69s-22.55-5.69-31,0-22,18.24-30.59,22-16.27,15.88-16.47,23.73,7.85,45.88,7.45,56.66-3.53,38.44-3.53,38.44Z"/><path class="cls-16" d="M498.56,878h92.55s42.62-86.54,42.36-185.1c0,0-30.05-24-64.83-9.93C568.64,683,541.7,801.4,498.56,878Z"/><path class="cls-9" d="M79.22,711.85l27.45,23.93,31.77,28s56.47-64.83,68.24-88.36l-60.4-54-34.9,48.52Z"/><path class="cls-13" d="M144.78,682.52s-2.32-21.67-10.4-20.67.63,32.74,4.36,34.76,50.68-12.79,50.31-18.9S178.23,673.28,144.78,682.52Z"/><path class="cls-15" d="M97.26,801.66s5.3-31.57,8.24-35.69,22.16-15.88,29.41-22,17.06-8.23,16.86-12.55-4.9-12.74-15.29-9.41-23.73,13.53-29.81,13.73L79.22,711.85l32.16-42s-29.61,1.38-32.16,8.63S67.07,699.31,62.36,704.8s-10,13.13-8.23,20.39,3.22,53.33-.35,65.88Z"/><path class="cls-14" d="M17.65,878s15.17-54.64,16.21-91c0,0,35.82-17.52,81.05,8.36,0,0-2.09,56.48-12.55,82.62Z"/><path class="cls-9" d="M551,711.85l-27.45,23.93-31.76,28s-56.47-64.83-68.24-88.36l60.4-54,34.9,48.52Z"/><path class="cls-13" d="M470.57,690.32S452,681,449.42,688.25s26.78,16.55,30,14.48,11.16-49.1,6.06-52S477.3,657.5,470.57,690.32Z"/><path class="cls-5" d="M533,801.66s-5.3-31.57-8.24-35.69-22.16-15.88-29.41-22-17.06-8.23-16.86-12.55,4.9-12.74,15.29-9.41,23.73,13.53,29.8,13.73L551,711.85l-32.15-42s29.61,1.38,32.15,8.63,12.16,20.79,16.87,26.28,10,13.13,8.23,20.39-3.22,53.33.35,65.88Z"/><path class="cls-10" d="M612.56,878s-15.16-54.64-16.21-91c0,0-35.81-17.52-81,8.36,0,0,2.09,56.48,12.55,82.62Z"/></g><text class="cls-17" transform="translate(78.19 116.27)">Ni<tspan class="cls-18" x="33.81" y="0">v</tspan><tspan x="50.78" y="0">el nacional</tspan></text><text class="cls-17" transform="translate(286.19 186.27)">Local</text><text class="cls-17" transform="translate(385.36 114.27)">Sindical</text><text class="cls-17" transform="translate(460.19 186.27)"><tspan class="cls-19">P</tspan><tspan x="20.45" y="0">a</tspan><tspan class="cls-20" x="39.79" y="0">r</tspan><tspan x="53.16" y="0">a alcalde</tspan></text><text class="cls-17" transform="translate(606.19 110.27)"><tspan class="cls-19">P</tspan><tspan x="20.45" y="0">a</tspan><tspan class="cls-20" x="39.79" y="0">r</tspan><tspan x="53.16" y="0">a Con</tspan><tspan class="cls-21" x="143.41" y="0">g</tspan><tspan class="cls-22" x="163.28" y="0">r</tspan><tspan x="176.62" y="0">eso</tspan></text></svg>