<svg xmlns="http://www.w3.org/2000/svg" viewBox="0 0 1002 896.11"><defs><style>.cls-1{isolation:isolate;}.cls-2,.cls-35{font-size:24px;}.cls-2{font-family:Arial-BoldItalicMT, Arial;font-weight:700;font-style:italic;}.cls-3,.cls-35{font-family:ArialMT, Arial;}.cls-3{font-weight:400;font-style:normal;}.cls-4{fill:#eaeaea;}.cls-5{fill:#022123;}.cls-6{fill:#e8c1a0;}.cls-7{fill:#d8a47d;}.cls-8{fill:#efd0b4;}.cls-9{fill:#fff;}.cls-10{fill:#dbcca2;}.cls-11{fill:#c4b286;}.cls-12,.cls-64{fill:#f5f5f5;}.cls-13{fill:#efe8e1;}.cls-14{fill:#053738;}.cls-15{fill:#0e5959;}.cls-16{fill:#820808;}.cls-17{fill:#a50808;}.cls-18{fill:#c33;}.cls-19{fill:#cc0d0d;}.cls-20{fill:#965436;}.cls-21{fill:#89482f;}.cls-22{fill:#ad5f40;}.cls-22,.cls-23{opacity:0.53;}.cls-23{fill:#cc7252;}.cls-24{fill:#6b2915;}.cls-25{fill:#ba5d0f;}.cls-26{fill:#c5d3cf;}.cls-27{fill:#ed193e;}.cls-28{fill:#dedfe0;}.cls-28,.cls-31,.cls-33,.cls-42,.cls-49,.cls-53,.cls-55,.cls-56{mix-blend-mode:multiply;}.cls-29{fill:#adafb2;}.cls-30{fill:#e3f2ed;}.cls-31{fill:#bec0c2;}.cls-32,.cls-34{fill:#294468;}.cls-33,.cls-56,.cls-63{opacity:0.4;}.cls-34{mix-blend-mode:screen;}.cls-36{fill:#2b3233;}.cls-37{fill:#01191c;}.cls-38{fill:#601402;}.cls-39{fill:#a3390a;}.cls-40{fill:#b23d0f;}.cls-41{fill:#bc3e17;}.cls-42{fill:#8e2d06;opacity:0.24;}.cls-43{fill:#4f1602;}.cls-44{fill:#ce4824;}.cls-45{fill:#bf7806;}.cls-46,.cls-49{fill:#f7b50f;}.cls-47,.cls-54{fill:#ffdf24;}.cls-48{fill:#e8bd07;}.cls-49{opacity:0.64;}.cls-50{fill:#ffd939;}.cls-51{fill:#965c08;}.cls-52{fill:#ffe05f;}.cls-53{fill:#efc30c;opacity:0.3;}.cls-54{opacity:0.29;}.cls-55,.cls-56{fill:#7a5136;}.cls-55{opacity:0.27;}.cls-57{fill:#085a6d;}.cls-58{fill:#117889;}.cls-59{fill:#281102;}.cls-60{fill:#107a8c;}.cls-61{fill:#1793a0;}.cls-62{fill:#44200c;}.cls-63{fill:#d3c8c2;}.cls-64{opacity:0.51;}.cls-65{fill:#14090a;}.cls-66{fill:#4f6276;opacity:0.54;}.cls-67{fill:#87a2b9;}.cls-68{fill:#a6c2d7;}.cls-69{fill:#6688a2;}.cls-70{fill:#355d76;}.cls-71{fill:#90a8bd;}.cls-72{letter-spacing:-0.06em;}.cls-73{fill:none;stroke:#8b1810;stroke-miterlimit:10;stroke-width:3px;stroke-dasharray:10 12;}</style></defs><title>articulo6</title><g class="cls-1"><g id="Capa_1" data-name="Capa 1"><text class="cls-2" transform="translate(166.92 69.84)">Al extranjero que haya cometido en el exterior un delito en<tspan x="-26.09" y="28.8">perjuicio de extranjero</tspan><tspan class="cls-3" x="231.32" y="28.8">, siempre que se reúnan estas condiciones:</tspan></text><circle class="cls-4" cx="177.62" cy="227.48" r="84.55"/><circle class="cls-4" cx="177.62" cy="428.68" r="84.55"/><circle class="cls-4" cx="177.62" cy="620.87" r="84.55"/><path class="cls-5" d="M206.54,635.43a1.11,1.11,0,0,0,0-.17c0-.15,0-.31,0-.46,1.09-12.9-18.95-9.25-32.91-15.57-1.58-.71-8.77,1.81-9.8,2.12-20.28,6-30.29,2.19-29.61,13.27-.21.24.62,3.23.69,3.4l12.55,31.62,46.34-.12L205,639.58A32.12,32.12,0,0,1,206.54,635.43Z"/><path class="cls-6" d="M190.49,626.82c0,6.39-8.88,11.57-19.85,11.57s-21.47-5.42-19.85-11.57c1.53-5.82,8.89-11.58,19.85-11.58S190.49,620.43,190.49,626.82Z"/><rect class="cls-7" x="157.85" y="601.84" width="24.65" height="28.9"/><path class="cls-8" d="M189.61,585.4c-.84-.43-.12-.8-1.15.5,0-14.4-4.76-25.45-18.56-25.06-12.75.36-18.36,10.58-18.41,24.9-.91-1.23-.22-.85-1-.52-1.46.6-1.77,4-.71,7.56s3.11,6,4.57,5.4a.94.94,0,0,0,.26-.14c2.72,11,9,20.86,16,20.86s12.48-9.79,14.84-20.77c1.39.15,3.29-2,4.45-5.14C191.14,589.51,191,586.11,189.61,585.4Z"/><path class="cls-9" d="M164.47,624.94a1.6,1.6,0,1,1-1.57-1.85A1.73,1.73,0,0,1,164.47,624.94Z"/><path class="cls-9" d="M180.46,624.86a1.6,1.6,0,1,1-1.58-1.85A1.73,1.73,0,0,1,180.46,624.86Z"/><path class="cls-10" d="M166.58,557c-.38-.4-.63-2.17-1.81-3a7.08,7.08,0,0,0-4.79-.86c-4.39.39-4.9,3-4.24,6.83-2.5-2.41-7.25,1-8.77,3.29-1.93,2.84-3.17,8.07,1.23,8.86-2.71-.34-5.87,2.52-7.09,5-1.71,3.53-1.15,6.74,2,8.8-4.72.06-8.24,14.11-1.94,14.83-2.86,1.52-3.22,6.35-2.83,9.38.5,4,2.45,6,5.49,8.09,2.59,1.8,8.35,3.84,11.21,1.93.93-.62,2.32-3.58,2.85-4.66s-.85-2.64-.13-3.67c0-.11-.19.73-.17.61.3.16-.13-.83.17-.61.74-2.76-.57-5.46-1.56-7.91a34.18,34.18,0,0,1-1.2-3.43c-.53-1.82-.78-1.73-2-3a13.57,13.57,0,0,1-3.55-6.06c-.39-1.61-.68-8.29,2.32-5.33.57-1.56,1.2-3.37.66-5.08,3.43-.34,2-5.44,1.81-7.52,3.05,2.72,4-4.34,4.41-5.79,2.62.92,3.58-2.27,4.81-4,1.13-1.6,3.89-2.76,4.56.08-.24-2.51-1.12-4.94-1.6-7.42Z"/><path class="cls-11" d="M151.77,586.82c-.76-1.68-2-.94-2.61.43s-.11,3.21.21,4.5a8,8,0,0,0,5.17,5.61c0,2.4,1.26,4.91,2.23,7a9.09,9.09,0,0,1,.57,7c-2-.27-1.28,4.54-2.52,5.87-1.47,1.58-5.64,1.71-6.23-.87,3.95.53,5.35-2.64,6.18-6.45.36-1.65,0-3.44-1.6-4.13-2.39-1-2.33,1.53-3.6,2.85-4.22-2.68,2.34-4.92,2.85-6.44,1.16-3.53-4.27-4.58-5.85-1.79a2.25,2.25,0,0,1-.15-2.72c.59-1.17,1.69-.91,2.2-1.66,1-1.47-.84-2.39-1.3-4.08a9,9,0,0,1,.39-5.45c.92-1.83,3.12-2.68,4.1-.41a1.19,1.19,0,0,0,.56-.83Z"/><path class="cls-10" d="M173.57,557c.37-.4.62-2.17,1.8-3a7.08,7.08,0,0,1,4.79-.86c4.4.39,4.9,3,4.25,6.83,2.49-2.41,7.24,1,8.77,3.29,1.92,2.84,3.16,8.07-1.23,8.86,2.71-.34,5.87,2.52,7.08,5,1.71,3.53,1.15,6.74-2,8.8,4.72.06,8.25,14.11,1.95,14.83,2.86,1.52,3.21,6.35,2.83,9.38-.5,4-2.46,6-5.5,8.09-2.59,1.8-6.1,3.25-9,1.34a9.77,9.77,0,0,1-2.55-3.26c-.6-1.22-.29-3.48-1-4.51a3.38,3.38,0,0,1-.08-.34c-.3.16-1,.15-1.34.37-.74-2.76.58-5.46,1.57-7.91.47-1.17.86-2.27,1.2-3.43.53-1.82.77-1.73,2-3a13.47,13.47,0,0,0,3.55-6.06c.39-1.61.68-8.29-2.32-5.33-.57-1.56-1.2-3.37-.66-5.08-3.43-.34-2-5.44-1.81-7.52-3.05,2.72-3.95-4.34-4.41-5.79-2.62.92-3.57-2.27-4.81-4-1.13-1.6-3.89-2.76-4.55.08.23-2.51,1.11-4.94,1.6-7.42Z"/><path class="cls-11" d="M188.37,586.82c.77-1.68,2-.94,2.61.43s.12,3.21-.2,4.5a8,8,0,0,1-5.17,5.61c0,2.4-1.27,4.91-2.24,7a9.13,9.13,0,0,0-.57,7c2-.27,1.28,4.54,2.52,5.87,1.47,1.58,5.64,1.71,6.23-.87-4,.53-5.34-2.64-6.18-6.45-.36-1.65,0-3.44,1.6-4.13,2.39-1,2.34,1.53,3.61,2.85,4.22-2.68-2.35-4.92-2.85-6.44-1.17-3.53,4.26-4.58,5.85-1.79a2.27,2.27,0,0,0,.15-2.72c-.59-1.17-1.7-.91-2.2-1.66-1-1.47.83-2.39,1.29-4.08a9,9,0,0,0-.39-5.45c-.92-1.83-3.11-2.68-4.1-.41a1.19,1.19,0,0,1-.56-.83Z"/><rect class="cls-12" x="160.87" y="621.01" width="18.76" height="23.3"/><path class="cls-5" d="M149,624.86c0-.18-.15-.19-.05,0,2.57-.8,4.85-3.4,6.46-5.8a11.43,11.43,0,0,0,1.66-3.53c.39-1.6-.29-3.11-.1-4.6,3.55.18,6.82,8.13,7.93,11.06,2.71,7.11,3.38,14.58,3.31,22.32,0,4.68.11,10-1,14.54-2.36,9.14-13.1.64-16.48-3.43-6.94-8.35-6.13-18.56-3-28.24a11,11,0,0,1,1.17-2.29Z"/><path class="cls-5" d="M192.66,624.06c0-.18.15-.19,0,0-2.57-.81-4.84-3.4-6.46-5.8a11.75,11.75,0,0,1-1.65-3.53c-.4-1.61.29-3.11.09-4.6-3.54.18-6.82,8.12-7.93,11.06-2.71,7.11-3.38,14.58-3.3,22.31,0,4.69-.12,10,1.05,14.54,2.35,9.15,13.09.64,16.48-3.42,6.94-8.35,6.13-18.57,3-28.25a12,12,0,0,0-1.17-2.28Z"/><path class="cls-9" d="M185.34,645s-3.57,3.15-13.55,3.54c-10.15.39-14.22-3.14-14.22-3.14L164,624.8l13.71-.26Z"/><path class="cls-13" d="M164.47,625.18c-.05.74-1.12,2.8-1.46,4a34.51,34.51,0,0,0-1.39,6c-.51,5.24,3.31-1.8,4.18-3-1.06,3.17-1.46,13.67,3.63,13.33,2.22-.16,3.4-3.87,4-5.79a19.11,19.11,0,0,0,.94-5,14.35,14.35,0,0,1,.16-3.6c.31,1.23.82,3.42,2,4.09,1.95,1.14,2.46-1.36,2.21-2.85-.4-2.35-1.36-5.79-2.85-7.58a17.36,17.36,0,0,1-5.85.66c-1.87,0-4-.64-5.66,0h.4Z"/><path class="cls-11" d="M179.63,570.21a8.19,8.19,0,0,0,5.09,3c-.8.19-1.49,2.07-1.49,3.09,0,1.89,1.45,3,3,3.7-2.48,1.29,2,6.93,4.35,5.61-2.22-.49-2.06-4.19-1.11-5.75.06-.06.06-.06,0,0-2.34,1.94-5.29-5.57-.85-6.79a4.71,4.71,0,0,1-3.67-2.41c-1-1.66-.07-3.81-1.27-5.26a2.41,2.41,0,0,0-4,0c-1.13,1.5-.63,3.82.26,5.27Z"/><path class="cls-11" d="M160.51,570.21a8.19,8.19,0,0,1-5.09,3c.8.19,1.49,2.07,1.49,3.09,0,1.89-1.45,3-3,3.7,2.48,1.29-2,6.93-4.35,5.61,2.22-.49,2.06-4.19,1.11-5.75-.05-.06-.06-.06,0,0,2.34,1.94,5.29-5.57.85-6.79a4.71,4.71,0,0,0,3.67-2.41c1-1.66.07-3.81,1.27-5.26a2.41,2.41,0,0,1,4,0c1.13,1.5.63,3.82-.26,5.27Z"/><path class="cls-5" d="M183.16,552.88H153.75v14.5h.07a.48.48,0,0,0-.07.26c0,1.44,6.24,4.63,14.3,4.63S183,569.08,183,567.64a.5.5,0,0,0-.08-.26h.28Z"/><rect class="cls-5" x="147.34" y="550.09" width="41.22" height="3.96"/><path class="cls-14" d="M178.06,554a39,39,0,0,1-6,12c-1.44,1.93-3.83,4.45-6.19,4.95,1,.83,3.55.44,4.79.3a38,38,0,0,0,4.6-.85,10.62,10.62,0,0,0,4.19-1.64c1.51-1.09,1.76-3,1.92-4.79s.24-3.42.3-5.15c.05-1.34.63-3.59.08-4.8a12.27,12.27,0,0,1-1.76.22,9.32,9.32,0,0,0-1.82,0Z"/><path class="cls-14" d="M154.45,554.16c.3.11.24,3.94.3,5,.09,1.85.19,3.73.1,5.57s-.07,2.65,1.6,3.65a21.64,21.64,0,0,0,4.5,1.82,10.41,10.41,0,0,0,1.77.32c-2.62-1.56-3.65-5.65-4.09-8.57-.37-2.4-.65-6.11.88-8.1a50.45,50.45,0,0,1-5.06.06Z"/><path class="cls-15" d="M180.36,554.59c-.66,1.5-.75,3.49-1.18,5.12a26.34,26.34,0,0,1-1.92,5.18,13.9,13.9,0,0,1-4.67,5.7c1.16.42,3.36-.63,4.49-1,1.4-.42,2.63-.84,3.35-2.38a13,13,0,0,0,.83-5c.08-1.79.32-3.59.41-5.36a11,11,0,0,0,0-2.88,5,5,0,0,0-1.18.53Z"/><path class="cls-16" d="M223.8,631.38c-5.71-1-10,3.11-13.93,7.23a12.12,12.12,0,0,1-5.61,3.53,12.1,12.1,0,0,1-5.62-3.53c-3.91-4.12-8.22-8.25-13.93-7.23h-.26c.85.23,1.68.13,2.58.28,7.23,1.17,9.71,12.74,17,13.34v0h.39v0c7.32-.6,9.8-12.17,17-13.34.91-.15,1.73,0,2.58-.28Z"/><path class="cls-16" d="M207,628.76a2.71,2.71,0,1,1-2.71-2.86A2.79,2.79,0,0,1,207,628.76Z"/><path class="cls-16" d="M215,681.37h-4.74a1.72,1.72,0,0,0,.74-1.43,1.66,1.66,0,0,0-1.61-1.71h-3v-39a5.28,5.28,0,0,0,0-6.5h1.52a1.57,1.57,0,0,0,0-3.13h-7a1.57,1.57,0,0,0,0,3.13h1.52a5.31,5.31,0,0,0,0,6.5v39h-3a1.66,1.66,0,0,0-1.61,1.71,1.72,1.72,0,0,0,.74,1.43h-4.74a1.09,1.09,0,0,0,0,2.18H215a1.09,1.09,0,0,0,0-2.18Z"/><path class="cls-17" d="M205.74,635.78c0,1.54-.84,2.79-1.87,2.79s-1.87-1.25-1.87-2.79.83-2.79,1.87-2.79S205.74,634.24,205.74,635.78Z"/><rect class="cls-17" x="203.03" y="637.07" width="1.68" height="41.98"/><path class="cls-17" d="M206.64,679.46a.8.8,0,0,1-.77.82H199.8a.8.8,0,0,1-.77-.82h0a.8.8,0,0,1,.77-.82h6.07a.8.8,0,0,1,.77.82Z"/><path class="cls-17" d="M208.45,681.85a.34.34,0,0,1-.33.34h-13.8a.33.33,0,0,1-.32-.34h0a.33.33,0,0,1,.32-.34h13.8a.34.34,0,0,1,.33.34Z"/><path class="cls-17" d="M206.77,630.87a.86.86,0,0,1-.84.89H201.8a.86.86,0,0,1-.83-.89h0a.85.85,0,0,1,.83-.88h4.13a.85.85,0,0,1,.84.88Z"/><path class="cls-18" d="M204.71,635.3a1.4,1.4,0,1,1-1.36-1.77A1.61,1.61,0,0,1,204.71,635.3Z"/><path class="cls-18" d="M203.55,678.23a.28.28,0,0,1-.26.28h0a.28.28,0,0,1-.26-.28v-41.7a.27.27,0,0,1,.26-.27h0a.27.27,0,0,1,.26.27Z"/><path class="cls-16" d="M186,631.62a1.56,1.56,0,1,1-1.55-1.77A1.68,1.68,0,0,1,186,631.62Z"/><path class="cls-16" d="M226,631.62a1.56,1.56,0,1,1-1.55-1.77A1.68,1.68,0,0,1,226,631.62Z"/><path class="cls-16" d="M191.16,642.81c0,.33-.14.6-.32.6H177.42c-.18,0-.32-.27-.32-.6h0c0-.33.14-.6.32-.6h13.42c.18,0,.32.27.32.6Z"/><path class="cls-16" d="M178,643.32a6.16,6.16,0,1,0,12.32,0Z"/><path class="cls-17" d="M187.39,643.24c-.14.47-.16,1.3-.33,1.89a6.34,6.34,0,0,1-.83,1.83c-.53.81-1.62,1.86-2.62,1.75,1,.71,3.21-.38,4.12-1.23a7.5,7.5,0,0,0,1.41-2c.18-.32,1-1.82.82-2.15a.06.06,0,0,1,0,0c-.87.22-2-.44-2.8.09Z"/><polygon class="cls-16" points="178.59 642.65 178.3 642.49 183.18 632.49 183.47 632.64 178.59 642.65"/><polygon class="cls-16" points="190.25 642.72 189.96 642.86 185.54 632.62 185.83 632.48 190.25 642.72"/><rect class="cls-16" x="184.39" y="632.2" width="0.24" height="11.7"/><rect class="cls-17" x="177.28" y="642.53" width="13.59" height="0.46"/><path class="cls-19" d="M188.55,643.29c.34.55-.75,2.34-1.1,2.92a8.12,8.12,0,0,1-1.93,2.15,4.78,4.78,0,0,0,2.92-2.17c.6-.91.95-2,1.56-2.89a6.64,6.64,0,0,0-1.26,0Z"/><path class="cls-19" d="M178.54,643.45c-.4.11,1,2.77,1.29,3.17A7,7,0,0,0,181,648a17.9,17.9,0,0,0,1.64,1c-.66-1-1.49-1.41-1.82-2.65a5.48,5.48,0,0,1,.18-3.11,4.83,4.83,0,0,1-2.55.14c-.06.06,0,.07,0,0Z"/><path class="cls-16" d="M217.93,643.22c0,.33.14.6.32.6h13.42c.18,0,.32-.27.32-.6h0c0-.33-.14-.6-.32-.6H218.25c-.18,0-.32.27-.32.6Z"/><path class="cls-16" d="M231.14,643.72a6.16,6.16,0,1,1-12.32,0Z"/><path class="cls-17" d="M221.7,643.65c.14.47.16,1.3.33,1.89a6.47,6.47,0,0,0,.83,1.83c.53.81,1.62,1.86,2.62,1.75-1,.71-3.21-.38-4.12-1.23a7.66,7.66,0,0,1-1.41-2c-.18-.32-1-1.82-.82-2.15a.06.06,0,0,0,0,0c.87.22,2-.44,2.8.09Z"/><polygon class="cls-16" points="230.5 643.06 230.79 642.9 225.91 632.9 225.62 633.05 230.5 643.06"/><polygon class="cls-16" points="218.84 643.13 219.13 643.27 223.55 633.03 223.26 632.89 218.84 643.13"/><rect class="cls-16" x="224.46" y="632.61" width="0.24" height="11.7"/><rect class="cls-17" x="218.22" y="642.94" width="13.59" height="0.46"/><path class="cls-19" d="M220.54,643.7c-.34.55.75,2.34,1.1,2.91a8,8,0,0,0,1.93,2.16,4.78,4.78,0,0,1-2.92-2.17c-.6-.91-1-2-1.56-2.89a6.64,6.64,0,0,1,1.26,0Z"/><path class="cls-19" d="M230.55,643.85c.4.11-1,2.78-1.29,3.18a7,7,0,0,1-1.16,1.39,17.9,17.9,0,0,1-1.64,1c.66-1,1.49-1.41,1.82-2.65a5.47,5.47,0,0,0-.18-3.11,4.94,4.94,0,0,0,2.55.14c.06.06,0,.06,0,0Z"/><polygon class="cls-20" points="147.85 656.29 136.22 648.65 142.65 638.83 154.27 646.46 147.85 656.29"/><path class="cls-20" d="M153.29,652.83c-1.77,2.72-4.47,4.09-6,3.07s-1.37-4,.4-6.75,4.47-4.09,6-3.07S155.06,650.12,153.29,652.83Z"/><path class="cls-21" d="M142.3,642c0-.13-.08.14,0,0a12.89,12.89,0,0,1-2.83,4.44,7.82,7.82,0,0,1-2.86,1.87c.93.55,8.47,5.75,10.25,6.63s3.71.49,5.28-1.71a5.16,5.16,0,0,0,.91-1.53c.09-.78-.65-.46-1.16-.43a5.39,5.39,0,0,1-3.86-1.51,21.19,21.19,0,0,1-3.93-4c-.74-1.06-1.17-2.49-1.94-3.29Z"/><path class="cls-22" d="M142.77,639.59c.12.82-1.09,2.58-.16,2.9.41.14,1,0,1.48.17s1,.4,1.54.59A15.19,15.19,0,0,1,151.3,647c.85.91,1.62,1.93,1,3.56a9.56,9.56,0,0,1-1,2.05c-.44.62-1.18.95-1.58,1.59,2.34,1.38,4.64-4.77,4.4-5.69-.86-3.44-11.05-8.86-11.52-8.85Z"/><path class="cls-23" d="M153.49,648.35a26.13,26.13,0,0,0-5.41-5.35,8.7,8.7,0,0,0-5.27-1.76s0,0,0,0c.28-.31.22-.89.29-1.24,1.6,1,3.42,1.69,5,2.77a48.43,48.43,0,0,1,4.61,3.53,2.92,2.92,0,0,1,.94,1.09c.12.33.09,1.14-.3.89Z"/><path class="cls-21" d="M129.85,675.37a1.5,1.5,0,0,1-2.07.44h0a1.5,1.5,0,0,1-.44-2.07l14.57-22.44a1.48,1.48,0,0,1,2.06-.44h0a1.48,1.48,0,0,1,.44,2.06Z"/><path class="cls-23" d="M128.8,673.84a.36.36,0,0,1-.49.11h0a.37.37,0,0,1-.11-.5l13.49-20.77a.35.35,0,0,1,.49-.1h0a.35.35,0,0,1,.1.49Z"/><path class="cls-21" d="M127.58,680.43a1.71,1.71,0,0,1-2.36.5l-1.2-.77a1.72,1.72,0,0,1-.5-2.37l8.76-13.49a1.71,1.71,0,0,1,2.36-.5l1.19.78a1.71,1.71,0,0,1,.51,2.36Z"/><path class="cls-20" d="M144.59,654.22c-.41.63-1.65.55-2.77-.18s-1.7-1.82-1.29-2.45,1.64-.54,2.76.18S145,653.6,144.59,654.22Z"/><path class="cls-23" d="M150.54,651.32a5.57,5.57,0,0,1-2,.88,8.61,8.61,0,0,1-2.16-.11,13.48,13.48,0,0,1-3.94-1.2,9.5,9.5,0,0,1-2.74-2.09,3.77,3.77,0,0,1-.85-1.11c-.1-.27,0-1.2-.09-1.34s-.08-.29,0-.16a9.73,9.73,0,0,1-2.72,1.5c1.73.47,3.29,1.78,4.79,2.78s3.11,2.32,4.62,3.52c1.67,1.32,4.14-.45,5.21-2.76Z"/><rect class="cls-20" x="132.66" y="641.41" width="9.68" height="1.99" transform="translate(-476.23 408.02) rotate(-57.02)"/><path class="cls-20" d="M139.76,633.7c-.51-.33-1.46.11-2.59,1.11l-6.75,10.4c-.45,1.43-.47,2.48,0,2.81,1,.69,4-2,6.56-5.92S140.81,634.38,139.76,633.7Z"/><path class="cls-20" d="M140.43,644.31c-2.14,3.3-4.45,5.6-5.16,5.14s.44-3.51,2.58-6.81,4.45-5.59,5.17-5.13S142.57,641,140.43,644.31Z"/><rect class="cls-20" x="148.99" y="652.36" width="9.68" height="1.99" transform="translate(-477.9 426.53) rotate(-57)"/><path class="cls-20" d="M160.87,647.74c.51.33.49,1.38,0,2.82L154.16,661c-1.13,1-2.08,1.44-2.59,1.11-1-.69.17-4.45,2.74-8.41S159.82,647.06,160.87,647.74Z"/><path class="cls-20" d="M150.9,651.45c-2.14,3.3-3.3,6.34-2.59,6.8s3-1.83,5.17-5.13,3.29-6.34,2.58-6.8S153,648.15,150.9,651.45Z"/><path class="cls-20" d="M143.35,657.58c-.45.69-2,.5-3.39-.42s-2.2-2.22-1.75-2.92,2-.5,3.38.42S143.8,656.88,143.35,657.58Z"/><path class="cls-23" d="M141.12,656.3a1.26,1.26,0,1,1-.51-1.43A1.09,1.09,0,0,1,141.12,656.3Z"/><path class="cls-24" d="M137.78,649.13c-.06.1-.24.1-.39,0h0c-.15-.1-.22-.26-.16-.36l6.12-9.43c.07-.1.24-.1.39,0h0c.16.1.23.26.16.36Z"/><path class="cls-24" d="M148.5,655.83a.39.39,0,0,1-.52.17h0a.39.39,0,0,1-.06-.55l5.81-9a.38.38,0,0,1,.52-.17h0a.4.4,0,0,1,.06.55Z"/><path class="cls-21" d="M138.88,638.44c-.4,0-1.89,2.75-2.35,3.45-.72,1.11-2.12,2.49-2.41,3.71.49-.33.88-.86,1.41-1.15a6.69,6.69,0,0,0-.54,1.38c.4-.22.61-.6,1-.85a7.68,7.68,0,0,0,0,1.06,11.94,11.94,0,0,0,2.13-2.9A10.4,10.4,0,0,0,140,640c-.81.57-1.33,1.51-2.23,2,.23-1.11,1.39-2.6,1.09-3.56Z"/><path class="cls-21" d="M155.2,649.38c-1.45,2.27-3.61,4.61-4.51,7.12.52-.11.87-.9,1.38-1.12a4.75,4.75,0,0,0-.72,1.55c.36-.21.68-.7,1.07-.87a2,2,0,0,0-.27,1.28c1-.53,1.95-2.36,2.61-3.27a18.6,18.6,0,0,0,2.05-3.5c-.74.4-1.29,1.39-2,1.84.24-.63.67-1.31.89-1.89a6.74,6.74,0,0,1-1,1,7.05,7.05,0,0,1,.69-2.11Z"/><path class="cls-23" d="M126,678.58a.94.94,0,0,1-1.31.28h0a.94.94,0,0,1-.28-1.31l8.32-12.82a1,1,0,0,1,1.31-.28h0a1,1,0,0,1,.28,1.32Z"/><path class="cls-23" d="M138.85,634.13c-1.39.23-3.09,3.08-3.45,4.31.63-.31,1-1.1,1.71-1.44a36.57,36.57,0,0,0-2.23,3.82,12.63,12.63,0,0,0,2.46-2.58c0,.75-.88,1.53-1,2.29,1.3-.74,2.32-2.73,3-4,.28-.56.84-1.23.52-1.89a.9.9,0,0,0-1.57-.15Z"/><path class="cls-23" d="M160.18,648c-1.76.16-3.51,3.71-4.45,5.11.72-.45,1.32-1.29,2-1.71a11.29,11.29,0,0,1-.76,1.41c.49-.19.81-.74,1.25-1.07-.41,1.33-1.45,2.57-2,3.86,1.39-1.05,2.43-3.18,3.39-4.67a6.78,6.78,0,0,0,1.12-1.88c.11-.65-.45-1.54-1.07-.8Z"/><path class="cls-21" d="M161.33,669.77c0,1.29-5.42,2.33-12.1,2.33s-12.1-1-12.1-2.33,5.42-2.33,12.1-2.33S161.33,668.48,161.33,669.77Z"/><path class="cls-25" d="M160.59,669.06c0,1.13-5.08,2.05-11.36,2.05s-11.36-.92-11.36-2.05,5.09-2,11.36-2S160.59,667.93,160.59,669.06Z"/><path class="cls-26" d="M186.79,290.55a5.4,5.4,0,0,1-6,4.7L162.31,293a5.41,5.41,0,0,1-4.71-6L172.43,167.4a5.4,5.4,0,0,1,6-4.7L196.91,165a5.41,5.41,0,0,1,4.7,6Z"/><path class="cls-27" d="M180.54,163l-2.08-.26a5.4,5.4,0,0,0-6,4.7L157.6,286.93a5.41,5.41,0,0,0,4.71,6l2.08.26Z"/><path class="cls-9" d="M193.77,184.23l.86-.21h0a3.23,3.23,0,0,0-.45-.66c-.08,0-2.6-.33-3.78-.47l0-.07c-.17-.47-.37-1-.58-1.51,0,0,0-.09-.05-.13-.1-.27-.21-.53-.32-.8,0,0,0-.08,0-.12-.1-.26-.21-.51-.32-.78l0-.06h0c-.41-1-.83-2-1.24-3l1.18-.26h0l0,0v0h0l.08.1h0a.08.08,0,0,0,.07,0h0s0,0,0,0a.64.64,0,0,1,0-.09h0v0a0,0,0,0,1,0,0l1.13-.24h0l0,0s0,0,0,0h0a.43.43,0,0,0,.07.1h0a.1.1,0,0,0,.08,0h0a0,0,0,0,0,0,0,.29.29,0,0,0,0-.09h0v-.05l.89-.19.24-.05s0,0,0,0v0h0l.08.1h0l.07,0h0a.36.36,0,0,1,0-.1h0l0,0,1.14-.25h0s0,0,0,0v0h0l.08.1h0a.11.11,0,0,0,.07,0h0s0,0,0,0a.29.29,0,0,0,0-.09h0s0,0,0,0h0l1.16-.25h0s0-.23-.12-.31h-.25l-.33-.07h0l-.2,0h-.09c-.93-.19-2.46-.48-3.89-.74a2.48,2.48,0,0,0-.2-.4h0A2.11,2.11,0,0,0,189,173h-.16a1.9,1.9,0,0,0-.47.18h0l-.08.06,0,0h0l-.14.13,0,0-1-.18-.12,0h0l-.54-.1-.26-.61h0c-.19-.45-.36-.83-.49-1.13a.36.36,0,0,1,0-.09l-.06-.13,0-.09-.05-.11,0-.07a.81.81,0,0,0-.06-.13c-.7-1.49-1.71-2.5-2.25-2.24s-.42,1.67.27,3.16l.06.13,0,.09,0,.07.06.12,0,.07.24.48.11.21s0,0,0,.05l.25.49h0l.31.61-.26.45h0l-.55,1,0,0-.18,0h-.06l-.09,0h0a1.25,1.25,0,0,0-.42.23.18.18,0,0,0-.07,0h0l0,0,0,0h0a2.42,2.42,0,0,0,.1.36h0a3.31,3.31,0,0,0,.18.41l-1.08,1.91,0,.1c-.05.08-.1.16-.14.24a2,2,0,0,0-.11.2.41.41,0,0,0-.05.09l-.11.19,0,.07-.13.24h0l-.22.41h0a.21.21,0,0,0,0,.06v0l-.11.18v0a3.48,3.48,0,0,0-.17.31h0l0,.09v0l0,0h0l0,0a.41.41,0,0,0,.13.27l0,0,.94-.73h0l0,0h0l.06.07s0,0,0,0h0a.11.11,0,0,0,.07,0h0l0,0a1,1,0,0,1,0-.12h0l0,0,.92-.71,0,0h0l.06.08h0a.11.11,0,0,0,.07,0h0l0,0,0-.12h0l0,0,.63-.48.29-.23,0,0h0l.05.08h0s0,0,.07,0h0a0,0,0,0,0,0,0,.74.74,0,0,0,0-.12h0a0,0,0,0,0,0,0s0,0,0,0l.92-.71h0s0,0,0,0h0l0,.08h0a.08.08,0,0,0,.08,0h0v0a.69.69,0,0,0,0-.13h0a.43.43,0,0,0,0-.05l.93-.73,1.56,3h0l.06.1c.12.22.24.44.35.66a.67.67,0,0,1,.06.12c.13.23.26.46.38.69l.12.21.36.66a.56.56,0,0,0,0,.08l.34.62,0,.06c-.06.09-.13.19-.19.3l0,0h0l-1.31,2a.43.43,0,0,1,0,.07l-.11.16a.16.16,0,0,1,0,.07l-.18.29,0,0s-.05.08-.06.11h0l0,.07h0l0,0a2,2,0,0,0,.15.6h0l.07.17.71-.52h0l2.2-1.6,0,0a.43.43,0,0,0,0,.07l.07.11.15.22a.9.9,0,0,0,.21-.08l.2-.11c0-.05,0-.1-.05-.16h0s0-.06,0-.09a0,0,0,0,0,0,0s0,0,0-.07v0h0l0-.11,2.67-.67Z"/><rect class="cls-9" x="164.67" y="175.1" width="19.97" height="1.37" transform="translate(-21.21 327.57) rotate(-82.96)"/><rect class="cls-9" x="173.49" y="175.26" width="6.41" height="1.36" transform="translate(-19.83 329.42) rotate(-82.86)"/><rect class="cls-9" x="172.64" y="182.12" width="6.41" height="1.36" transform="translate(-27.19 334.84) rotate(-82.94)"/><rect class="cls-9" x="174.32" y="168.58" width="6.41" height="1.36" transform="translate(-12.31 324.58) rotate(-82.92)"/><polygon class="cls-9" points="161.23 289.62 160.55 289.54 163.01 269.71 163.69 269.8 161.23 289.62"/><rect class="cls-9" x="159.94" y="279.37" width="6.41" height="0.68" transform="translate(-134.58 407.04) rotate(-82.9)"/><rect class="cls-9" x="159.09" y="286.23" width="6.41" height="0.68" transform="translate(-142.13 412.21) rotate(-82.9)"/><rect class="cls-9" x="160.77" y="272.68" width="6.41" height="0.68" transform="translate(-127.16 402.13) rotate(-82.93)"/><rect class="cls-9" x="154.67" y="258.83" width="19.97" height="0.68" transform="translate(-112.77 390.75) rotate(-82.94)"/><rect class="cls-9" x="162.48" y="258.87" width="6.41" height="0.68" transform="translate(-111.43 392.81) rotate(-83.15)"/><rect class="cls-9" x="161.63" y="265.73" width="6.41" height="0.68" transform="translate(-119.7 396.47) rotate(-82.84)"/><rect class="cls-9" x="163.31" y="252.18" width="6.41" height="0.68" transform="translate(-104.61 386.63) rotate(-82.92)"/><path class="cls-28" d="M195.39,166.09l-3.11-.38a5,5,0,0,1,4.12,5.83L181.93,288.27a5.06,5.06,0,0,1-5.42,4.65l3.1.38a5.06,5.06,0,0,0,5.43-4.65l14.47-116.73A5.06,5.06,0,0,0,195.39,166.09Z"/><rect class="cls-29" x="152.83" y="271.18" width="38.94" height="1.33" transform="translate(-118.66 409.45) rotate(-82.94)"/><rect class="cls-29" x="168.05" y="271.26" width="12.49" height="1.33" transform="translate(-117.01 411.43) rotate(-82.93)"/><rect class="cls-29" x="166.4" y="284.63" width="12.49" height="1.33" transform="translate(-131.81 421.35) rotate(-82.9)"/><rect class="cls-29" x="169.67" y="258.23" width="12.5" height="1.33" transform="translate(-102.64 401.64) rotate(-82.94)"/><rect class="cls-29" x="157.78" y="231.22" width="38.94" height="1.33" transform="translate(-74.6 379.39) rotate(-82.96)"/><rect class="cls-29" x="173.01" y="231.29" width="12.49" height="1.33" transform="translate(-72.98 381.33) rotate(-82.94)"/><rect class="cls-29" x="171.35" y="244.67" width="12.49" height="1.33" transform="translate(-87.77 391.31) rotate(-82.91)"/><rect class="cls-29" x="174.62" y="218.26" width="12.5" height="1.33" transform="translate(-58.63 371.5) rotate(-82.94)"/><path class="cls-30" d="M190.55,285.17a5.4,5.4,0,0,1-5.17,5.63l-18.57.81a5.4,5.4,0,0,1-5.64-5.17l-5.24-120.33a5.4,5.4,0,0,1,5.17-5.63l18.57-.81a5.4,5.4,0,0,1,5.64,5.16Z"/><path class="cls-27" d="M163.2,160.39l-2.1.09a5.4,5.4,0,0,0-5.17,5.63l5.24,120.33a5.4,5.4,0,0,0,5.64,5.17l2.1-.09Z"/><path class="cls-9" d="M179.77,179.17l.81-.36h0s-.46-.56-.56-.57-2.62.11-3.8.17a.25.25,0,0,1,0-.07c-.26-.44-.53-.9-.83-1.39l-.07-.13-.44-.73-.07-.11c-.14-.24-.29-.47-.44-.71l0-.06h0c-.57-.92-1.16-1.87-1.73-2.77l1.12-.45h0l0,0,0,0h0l.09.09h0a.08.08,0,0,0,.07,0h0v0a.36.36,0,0,0,0-.09h0s0,0,0,0v0l1.07-.43h0l0,0v0h0l.1.08h0a.1.1,0,0,0,.06-.05h0s0,0,0,0l0-.09h0v0l.84-.34.24-.09s0,0,0,0l0,0h0l.09.08h0s.06,0,.07,0h0s0,0,0,0a.47.47,0,0,0,0-.09h0l0,0,1.08-.43h0l0,0h0l.09.09h0a.08.08,0,0,0,.07,0h0l0,0a.35.35,0,0,0-.05-.08h0l0,0h0l1.11-.44h0s0-.23-.17-.29h-.91c-1,0-2.51-.06-4-.08a2.59,2.59,0,0,0-.27-.36h0a2.2,2.2,0,0,0-.26-.27h-.1l-.05,0a1.52,1.52,0,0,0-.43.25h0l-.06.07,0,0h0l-.11.15,0,0-1,0h-.66c-.12-.2-.24-.38-.36-.56h0c-.26-.41-.48-.75-.67-1l-.05-.08a.83.83,0,0,1-.08-.12l-.06-.09-.06-.09,0-.06a.62.62,0,0,0-.09-.12c-.93-1.36-2.09-2.18-2.59-1.84s-.14,1.72.8,3.08l.08.11.06.08,0,.07.07.1,0,.07.31.43.14.2,0,0,.33.45h0l.4.55c-.05.14-.11.31-.18.49h0l-.37,1a.12.12,0,0,0,0,0l-.18.05h0l-.09,0h0a1.57,1.57,0,0,0-.38.3l-.05.06h0l0,0,0,0h0a2.11,2.11,0,0,0,.16.34h0c.08.14.17.27.24.38l-.74,2.06,0,.1a2.77,2.77,0,0,0-.1.26c0,.08,0,.15-.08.22l0,.09c0,.07-.05.14-.07.21l0,.08-.09.25h0l-.16.45h0s0,0,0,.06,0,0,0,0,0,.14-.07.2h0c0,.14-.08.25-.11.34h0a.51.51,0,0,0,0,.09,0,0,0,0,0,0,0l0,0v.05a.41.41,0,0,0,.17.24l0,0,.81-.88h0l0,0h0l.07.07h0a.1.1,0,0,0,.07,0h0v0l0-.12h0s0,0,0,0l.78-.86,0,0h0l.06.06s0,0,0,0h0s0,0,.06,0h0v0a.61.61,0,0,0,0-.12h0v0l.53-.58.25-.28s0,0,0,0h0l.06.07h0a.08.08,0,0,0,.06,0h0s0,0,0,0a.3.3,0,0,0,0-.11h0a.08.08,0,0,0,0,0l.79-.85h0l0,0h0l.07.06a0,0,0,0,0,0,0h0a.12.12,0,0,0,.07,0h0s0,0,0,0a.28.28,0,0,0,0-.12h0v0l0,0,.8-.88c.66.88,1.35,1.79,2,2.67h0l.07.08c.15.21.31.4.46.6a1,1,0,0,1,.08.11c.17.2.33.41.48.61a1.46,1.46,0,0,0,.16.19c.15.2.31.4.47.59l.05.07.44.55,0,.06-.14.32a.14.14,0,0,0,0,.06h0c-.3.66-.68,1.54-1,2.2l0,.08c0,.06-.05.12-.08.17l0,.07c0,.13-.1.23-.13.32l0,0s0,.08,0,.11h0l0,.08h0l0,0a2.55,2.55,0,0,0,.25.56h0l.09.16.62-.63h0l1.91-1.95,0,0,0,.07.09.09.18.19a.78.78,0,0,0,.2-.11.8.8,0,0,0,.17-.15l-.06-.14h0a.25.25,0,0,0,0-.07v0s0,0,0-.07h0a.31.31,0,0,0-.05-.1l2.52-1.1Z"/><rect class="cls-9" x="158.83" y="164.02" width="1.37" height="19.97" transform="translate(-7.55 7.23) rotate(-2.54)"/><rect class="cls-9" x="160.88" y="170.62" width="1.37" height="6.41" transform="translate(-7.18 6.97) rotate(-2.42)"/><rect class="cls-9" x="161.18" y="177.53" width="1.36" height="6.41" transform="translate(-7.67 7.17) rotate(-2.48)"/><rect class="cls-9" x="160.59" y="163.89" width="1.36" height="6.41" transform="translate(-7.09 7.14) rotate(-2.48)"/><rect class="cls-9" x="164.07" y="268.55" width="0.68" height="19.97" transform="matrix(1, -0.04, 0.04, 1, -11.78, 7.3)"/><rect class="cls-9" x="165.09" y="275.2" width="0.68" height="6.41" transform="translate(-11.22 6.98) rotate(-2.34)"/><rect class="cls-9" x="165.39" y="282.1" width="0.68" height="6.41" transform="matrix(1, -0.04, 0.04, 1, -12.38, 7.56)"/><rect class="cls-9" x="164.8" y="268.47" width="0.68" height="6.41" transform="translate(-12.33 7.89) rotate(-2.64)"/><polygon class="cls-9" points="164.29 267.86 163.61 267.89 162.74 247.94 163.42 247.91 164.29 267.86"/><rect class="cls-9" x="164.19" y="254.56" width="0.68" height="6.41" transform="translate(-11.14 7.46) rotate(-2.51)"/><rect class="cls-9" x="164.49" y="261.47" width="0.68" height="6.41" transform="translate(-10.64 6.93) rotate(-2.33)"/><rect class="cls-9" x="163.9" y="247.83" width="0.68" height="6.41" transform="translate(-10.32 7.06) rotate(-2.39)"/><path class="cls-28" d="M178.35,161l-3.12.13a5.07,5.07,0,0,1,5,5.07l5.12,117.51a5.06,5.06,0,0,1-4.57,5.49l3.12-.14a5.07,5.07,0,0,0,4.58-5.48l-5.12-117.52A5.06,5.06,0,0,0,178.35,161Z"/><rect class="cls-29" x="172.49" y="249.66" width="1.33" height="38.94" transform="translate(-11.4 7.69) rotate(-2.46)"/><rect class="cls-29" x="174.47" y="262.62" width="1.33" height="12.49" transform="translate(-11.45 7.82) rotate(-2.48)"/><rect class="cls-29" x="175.06" y="276.09" width="1.33" height="12.49" transform="translate(-11.89 7.76) rotate(-2.45)"/><rect class="cls-29" x="173.9" y="249.51" width="1.33" height="12.49" transform="translate(-10.77 7.69) rotate(-2.45)"/><rect class="cls-29" x="170.74" y="209.43" width="1.33" height="38.94" transform="translate(-9.67 7.57) rotate(-2.46)"/><rect class="cls-29" x="172.72" y="222.39" width="1.33" height="12.49" transform="translate(-9.72 7.7) rotate(-2.48)"/><rect class="cls-29" x="173.31" y="235.86" width="1.33" height="12.49" transform="translate(-10.17 7.64) rotate(-2.45)"/><rect class="cls-29" x="172.15" y="209.27" width="1.33" height="12.5" transform="matrix(1, -0.04, 0.04, 1, -8.96, 7.5)"/><path class="cls-31" d="M157.77,285.58h32.76a2.82,2.82,0,0,0,0-.41l-.8-18.46,9.83-79.29H156.86l3.4,78.11Z"/><path class="cls-32" d="M209.66,284a3,3,0,0,0,2.48-3V193a3.42,3.42,0,0,0-2.34-3.41,6.66,6.66,0,0,0-1.45-.24H143.09v94.8h65.39A5.42,5.42,0,0,0,209.66,284Z"/><g class="cls-33"><path class="cls-32" d="M149.33,277.62V195.18c.3-5.12,12.44-5.81,12.44-5.81l0-.05H143.09v94.8h17.67A13.11,13.11,0,0,0,159,284C149.48,283.84,149.33,277.62,149.33,277.62Z"/></g><path class="cls-9" d="M158,222.82v2.87h-.49v-6.93h1.94c1.4,0,2.14.62,2.14,2s-.74,2-2.14,2Zm0-3.62v3.17h1.45c1.09,0,1.65-.39,1.65-1.58s-.56-1.59-1.65-1.59Z"/><path class="cls-9" d="M166.2,223.66h-3.06l-.74,2h-.51l2.53-6.93h.5l2.54,6.93h-.52Zm-2.9-.45H166l-1.36-3.72Z"/><path class="cls-9" d="M170.66,225.79a4.21,4.21,0,0,1-2.26-.66l.2-.44a3.48,3.48,0,0,0,2,.66c1.05,0,1.81-.37,1.81-1.46,0-2.3-3.85-.68-3.85-3.54,0-1.16.94-1.69,2.09-1.69a4.25,4.25,0,0,1,2.12.54l-.18.43a3.88,3.88,0,0,0-1.94-.53c-.89,0-1.59.41-1.59,1.25,0,2.34,3.85.71,3.85,3.54C173,225.33,171.91,225.79,170.66,225.79Z"/><path class="cls-9" d="M176.39,225.79a4.27,4.27,0,0,1-2.26-.66l.21-.44a3.45,3.45,0,0,0,2,.66c1,0,1.81-.37,1.81-1.46,0-2.3-3.85-.68-3.85-3.54,0-1.16.93-1.69,2.09-1.69a4.21,4.21,0,0,1,2.11.54l-.18.43a3.84,3.84,0,0,0-1.93-.53c-.89,0-1.59.41-1.59,1.25,0,2.34,3.84.71,3.84,3.54C178.68,225.33,177.65,225.79,176.39,225.79Z"/><path class="cls-9" d="M180.76,222.82v2.87h-.5v-6.93h2c1.39,0,2.14.62,2.14,2s-.75,2-2.14,2Zm0-3.62v3.17h1.45c1.09,0,1.64-.39,1.64-1.58s-.55-1.59-1.64-1.59Z"/><path class="cls-9" d="M185.58,222.22c0-2.71,1.1-3.56,2.76-3.56s2.76.85,2.76,3.56-1.11,3.57-2.76,3.57S185.58,224.94,185.58,222.22Zm5,0c0-2.45-.9-3.12-2.26-3.12s-2.26.67-2.26,3.12.9,3.13,2.26,3.13S190.6,224.68,190.6,222.22Z"/><path class="cls-9" d="M195.07,222.54l1.84,3.15h-.57l-1.84-3.13h-1.38v3.13h-.49v-6.93h2c1.34,0,2,.66,2,1.9A1.69,1.69,0,0,1,195.07,222.54Zm-1.95-3.34v2.91h1.55c1,0,1.55-.43,1.55-1.45s-.51-1.46-1.55-1.46Z"/><path class="cls-9" d="M200,219.2v6.49h-.5V219.2h-2v-.44H202v.44Z"/><path class="cls-34" d="M197.85,189.62h9.37s4.08-.13,4.53,3.09l-.19,19.4-.26-18.31s-.87-3.49-3.94-3.82C204.87,189.7,197.85,189.62,197.85,189.62Z"/><text class="cls-35" transform="translate(292.54 233.88)">a) que se halle en territorio colombiano;</text><text class="cls-35" transform="translate(292.54 377.49)">b) que el delito tenga señalada en Colombia pena <tspan x="0" y="28.8">privativa de la libertad cuyo mínimo no sea inferior </tspan><tspan x="0" y="57.6">a tres (3) años;</tspan><tspan x="0" y="115.2">c) que no se trate de delito político, y</tspan></text><text class="cls-35" transform="translate(292.54 598.82)">d) que solicitada la extradición no hubiere sido concedida <tspan x="0" y="28.8">por el gobierno colombiano. Cuando la extradición no </tspan><tspan x="0" y="57.6">fuere aceptada habrá lugar a proceso penal.</tspan></text><path class="cls-36" d="M204.25,430.17a.59.59,0,0,0,0-.14c0-.13,0-.26,0-.4.89-10.87-16.64-8.09-28.19-13.18-.79-.35-6,1.59-6.88,1.85-16.65,5.1-24.86,1.85-24.3,11.19a1,1,0,0,0-.28.68l.67,1.74c0,.14.11.29.17.44L155.74,459l38-.1L203,433.66a7.51,7.51,0,0,0,1.23-3.4Z"/><path class="cls-37" d="M191.07,422.91c0,5.38-7.29,9.75-16.3,9.75s-16.3-4.37-16.3-9.75,7.3-9.75,16.3-9.75S191.07,417.52,191.07,422.91Z"/><rect class="cls-37" x="164.15" y="402.14" width="20.24" height="24.35"/><path class="cls-37" d="M190.35,388c-.69-.36-.1-.67-.95.43,0-12.14-3.91-21.45-15.24-21.12-10.46.3-15.07,8.92-15.11,21-.74-1-.18-.72-.85-.44-1.19.5-1.45,3.36-.57,6.37s2.55,5.06,3.74,4.56l.22-.13c2.23,9.29,7.43,17.58,13.12,17.58S185,408,186.9,398.74c1.14.12,2.7-1.67,3.65-4.33C191.6,391.48,191.51,388.61,190.35,388Z"/><path class="cls-12" d="M178.81,404.87c0,1.68-1.08-.74-4-.61-2.26.1-4.15,2.29-4.15.61s1.83-3,4.1-3S178.81,403.19,178.81,404.87Z"/><path class="cls-12" d="M182.19,387.19a46.94,46.94,0,0,1-5.12,3.3c-.55.32-1.84.71-1.84,1.63s1.61,1.71,2.15,2c2.05,1.11,3.85,1.21,5.73-.37,1.4-1.17,2.32-3.43,1.15-5.24-.43-.67-1.57-1.51-2.17-1.07Z"/><path class="cls-12" d="M166.57,387.44a46.94,46.94,0,0,0,5.12,3.3c.56.31,1.85.7,1.84,1.63s-1.61,1.7-2.15,2c-2,1.12-3.85,1.22-5.73-.37-1.39-1.17-2.32-3.42-1.15-5.23.43-.68,1.57-1.51,2.17-1.08Z"/><path class="cls-38" d="M145.28,457a1.38,1.38,0,0,1-.43,1.88l-11.09,6.15a1.34,1.34,0,0,1-1.8-.63l-4.49-8.18a1.38,1.38,0,0,1,.43-1.88L139,448.21a1.36,1.36,0,0,1,1.8.64Z"/><path class="cls-39" d="M147.77,467.42a1.46,1.46,0,0,1-.35,2l-23.68,13.15a1.45,1.45,0,0,1-1.88-.77l-14.58-26.58a1.47,1.47,0,0,1,.35-2l23.68-13.15a1.45,1.45,0,0,1,1.88.77Z"/><path class="cls-40" d="M108.07,454.15a15.51,15.51,0,0,0,1.65,2.73c.78,1.37,1.51,2.76,2.31,4.11,1.44,2.4,2.83,4.86,4.26,7.25,1.92,3.22,3.75,7,6.17,9.72a3.67,3.67,0,0,0,3.63,1.22,17.29,17.29,0,0,0,5.95-2.67c.69-.48,2.69-1.79,2.6-3-.07-.92-1.71-1.28-2.33-1.63-3.78-2.1-7.81-3.39-11-6.81a24,24,0,0,1-5.39-8.87c-.48-1.39-.74-3.25-2-4.05-1.09-.67-1.85-.24-2.75.19a8.83,8.83,0,0,0-2.71,1.53,1.31,1.31,0,0,0-.28.58Z"/><path class="cls-41" d="M108.41,454.24c-.4.87,1.32,3.49,1.75,4.39.91,1.88,2,3.71,3,5.55a98.26,98.26,0,0,0,6.45,10.05,18.43,18.43,0,0,0,2.09,2.55c.69.69,1.71,1.32,1.25-.17a23.88,23.88,0,0,0-2.78-5.07c-1.06-1.69-2.07-3.46-3-5.24a31.08,31.08,0,0,1-3.24-7.85,18.16,18.16,0,0,0-.92-3.95c-.5-1.15-1.28-2.11-2.34-1.77-.65.21-2.32.95-2.36,1.67Z"/><path class="cls-42" d="M120.55,446.68c0-.2.3,0,.61.05s.81,0,1.22,0a8.61,8.61,0,0,1,3.05,1.28,17.88,17.88,0,0,1,5.87,6.43A25.67,25.67,0,0,1,135,467.9a13.57,13.57,0,0,1-1.19,5.35,9.29,9.29,0,0,1-1.21,1.78c-.22.26-.49.43-.71.69s-1.34,1.93-1.67,2c1.6,0,15.72-8.26,14.78-7.66-.4.25,2.53-1,2-2.53-.83-2.22-2.83-5.22-3.88-7.35s-2.1-4.21-3.23-6.27c-1-1.86-1.83-3.74-2.84-5.58-.75-1.36-1.46-2.77-2.25-4.1-.53-.89-1.33-2.83-2.19-3.29s-6.76,3-7.45,3.19-2.85,1.46-3.42,1.74-.81.84-1.41.87Z"/><path class="cls-42" d="M126.36,443.63c1.81.33,3.4,1.93,4.8,3.41a29.25,29.25,0,0,1,4.72,6.91,39.83,39.83,0,0,1,3.9,12.3c.17,1.3.06,2.5.13,3.76.09,1.77,1.3,1.53,2.25,1.08a9.71,9.71,0,0,0,2.58-1.79c1-1,.69-2.07.06-3.6-3.16-7.65-7.71-15-11.51-22.29-.38-.74-.84-1.78-1.58-2.13a2.31,2.31,0,0,0-2,.32,6.78,6.78,0,0,1-1.93,1c-.48.12-1.71.38-1.43,1.22.07-.05.09,0,.15,0Z"/><path class="cls-38" d="M145.21,456.9a1.47,1.47,0,0,1-.36,2l-9,5a1.46,1.46,0,0,1-1.88-.77l-4.22-7.71a1.45,1.45,0,0,1,.35-2l9-5a1.46,1.46,0,0,1,1.88.77Z"/><path class="cls-39" d="M145.17,456.63a1.42,1.42,0,0,1-.36,1.94l-8.75,4.85a1.39,1.39,0,0,1-1.82-.72l-4.06-7.4a1.42,1.42,0,0,1,.36-1.94l8.75-4.86a1.4,1.4,0,0,1,1.82.73Z"/><path class="cls-40" d="M139,449.12c.82,2.77-.18,5.72-1.29,7.86a13.6,13.6,0,0,1-1.88,2.67c-.43.5-1.77,1.5-1.38,2.5.63,1.59,4.62-1.16,5.45-1.57,1.25-.61,5-1.21,4.7-3.34-.22-1.68-1.64-3.79-2.53-5.29a14.61,14.61,0,0,0-1.52-2.42c-.43-.47-1.63-1.14-1.47,0Z"/><path class="cls-42" d="M137.94,449.61a36.84,36.84,0,0,1,3.82,6.57c.44.88.84,3,1.91,2.57s1.07-1.53.48-2.71c-.75-1.52-1.62-3-2.45-4.35-.42-.7-.8-1.5-1.21-2.16-.15-.24-.43-.66-.7-.74s-.57.26-.93.14a2.52,2.52,0,0,1-.88.75Z"/><path class="cls-43" d="M108.61,454.85l-.34.19a.24.24,0,0,1-.23-.42l.35-.19a.24.24,0,0,1,.22.42Z"/><path class="cls-43" d="M131.29,442.26l-.71.39a.22.22,0,0,1-.28-.11.22.22,0,0,1,0-.31l.71-.39a.21.21,0,0,1,.28.12A.22.22,0,0,1,131.29,442.26Zm-1.42.78-.71.4a.21.21,0,0,1-.28-.12.22.22,0,0,1,.05-.3l.71-.39a.22.22,0,0,1,.28.11A.22.22,0,0,1,129.87,443Zm-1.42.79-.71.39c-.09.06-.21,0-.28-.11a.22.22,0,0,1,.05-.3l.71-.4a.24.24,0,0,1,.23.42Zm-1.41.79-.71.39a.23.23,0,0,1-.29-.11.24.24,0,0,1,.06-.31l.71-.39a.22.22,0,0,1,.28.12A.22.22,0,0,1,127,444.62Zm-1.42.78-.71.4a.21.21,0,0,1-.28-.12.22.22,0,0,1,.05-.3l.71-.39a.22.22,0,0,1,.28.11A.22.22,0,0,1,125.62,445.4Zm-1.42.79-.71.39a.21.21,0,0,1-.28-.11.22.22,0,0,1,.05-.3l.71-.4a.22.22,0,0,1,.28.12A.21.21,0,0,1,124.2,446.19Zm-1.42.79-.7.39a.23.23,0,0,1-.29-.11.21.21,0,0,1,.06-.3l.71-.4a.24.24,0,0,1,.22.42Zm-1.41.79-.71.39a.25.25,0,0,1-.23-.42l.71-.39a.22.22,0,0,1,.28.11A.24.24,0,0,1,121.37,447.77Zm-1.42.78-.71.4a.21.21,0,0,1-.28-.12.22.22,0,0,1,.05-.3l.71-.39a.21.21,0,0,1,.28.11A.21.21,0,0,1,120,448.55Zm-1.42.79-.71.39a.22.22,0,0,1-.28-.11.21.21,0,0,1,.06-.3l.7-.4a.23.23,0,0,1,.29.12A.22.22,0,0,1,118.53,449.34Zm-1.41.79-.71.39a.21.21,0,0,1-.28-.12.21.21,0,0,1,.05-.3l.71-.39a.22.22,0,0,1,.28.11A.24.24,0,0,1,117.12,450.13Zm-1.42.78-.71.4a.21.21,0,0,1-.28-.12.22.22,0,0,1,.05-.3l.71-.39a.22.22,0,0,1,.28.11A.21.21,0,0,1,115.7,450.91Zm-1.42.79-.71.39a.24.24,0,0,1-.23-.41l.71-.4a.24.24,0,0,1,.23.42Zm-1.41.79-.71.39a.21.21,0,0,1-.28-.12.21.21,0,0,1,.05-.3l.71-.39a.21.21,0,0,1,.28.12A.22.22,0,0,1,112.87,452.49Zm-1.42.78-.71.4a.21.21,0,0,1-.28-.12.22.22,0,0,1,.05-.3l.71-.39a.22.22,0,0,1,.28.11A.22.22,0,0,1,111.45,453.27Zm-1.42.79-.71.39c-.09.06-.21,0-.28-.11a.22.22,0,0,1,0-.3l.71-.4a.21.21,0,0,1,.28.12A.21.21,0,0,1,110,454.06Z"/><path class="cls-43" d="M132.34,441.67l-.35.19a.22.22,0,0,1-.28-.11.21.21,0,0,1,.06-.3l.34-.2a.24.24,0,0,1,.23.42Z"/><path class="cls-43" d="M122.81,481.25l-.35.19a.21.21,0,0,1-.28-.12.22.22,0,0,1,0-.3l.35-.19a.21.21,0,0,1,.28.12A.23.23,0,0,1,122.81,481.25Z"/><path class="cls-43" d="M145.48,468.66l-.71.39a.21.21,0,0,1-.28-.12.22.22,0,0,1,0-.3l.71-.39a.22.22,0,0,1,.28.11A.23.23,0,0,1,145.48,468.66Zm-1.42.78-.71.4a.24.24,0,0,1-.22-.42l.7-.39a.23.23,0,0,1,.29.11A.21.21,0,0,1,144.06,469.44Zm-1.41.79-.71.39a.22.22,0,0,1-.28-.11.21.21,0,0,1,.05-.3l.71-.4a.21.21,0,0,1,.28.12A.22.22,0,0,1,142.65,470.23Zm-1.42.79-.71.39a.21.21,0,0,1-.28-.12.22.22,0,0,1,0-.3l.71-.39a.21.21,0,0,1,.28.12A.23.23,0,0,1,141.23,471Zm-1.42.78-.71.4a.22.22,0,0,1-.28-.12.22.22,0,0,1,.05-.3l.71-.39a.23.23,0,0,1,.29.11A.22.22,0,0,1,139.81,471.8Zm-1.42.79-.7.39a.22.22,0,0,1-.29-.11.22.22,0,0,1,.06-.3l.71-.4a.24.24,0,0,1,.22.42Zm-1.41.79-.71.39a.22.22,0,0,1-.28-.11.24.24,0,0,1,0-.31l.71-.39a.21.21,0,0,1,.28.12A.22.22,0,0,1,137,473.38Zm-1.42.78-.71.4a.21.21,0,0,1-.28-.12.22.22,0,0,1,.05-.3l.71-.39a.22.22,0,0,1,.28.11A.21.21,0,0,1,135.56,474.16Zm-1.42.79-.7.39a.22.22,0,0,1-.29-.11.21.21,0,0,1,.06-.3l.71-.4a.22.22,0,0,1,.28.12A.21.21,0,0,1,134.14,475Zm-1.41.79-.71.39a.22.22,0,0,1-.28-.11.23.23,0,0,1,0-.31l.71-.39a.21.21,0,0,1,.28.12A.22.22,0,0,1,132.73,475.74Zm-1.42.79-.71.39a.21.21,0,0,1-.28-.12.22.22,0,0,1,.05-.3l.71-.39a.22.22,0,0,1,.28.11A.23.23,0,0,1,131.31,476.53Zm-1.42.78-.71.4a.22.22,0,0,1-.28-.12.21.21,0,0,1,.06-.3l.7-.39a.22.22,0,0,1,.29.11A.21.21,0,0,1,129.89,477.31Zm-1.41.79-.71.39a.22.22,0,0,1-.28-.11.21.21,0,0,1,.05-.3l.71-.4a.21.21,0,0,1,.28.12A.22.22,0,0,1,128.48,478.1Zm-1.42.79-.71.39a.21.21,0,0,1-.28-.12.22.22,0,0,1,.05-.3l.71-.39a.25.25,0,0,1,.23.42Zm-1.42.78-.71.4a.22.22,0,0,1-.28-.12.22.22,0,0,1,0-.3l.71-.39a.22.22,0,0,1,.29.11A.22.22,0,0,1,125.64,479.67Zm-1.41.79-.71.39a.21.21,0,0,1-.28-.11.21.21,0,0,1,.05-.3l.71-.4a.21.21,0,0,1,.28.12A.22.22,0,0,1,124.23,480.46Z"/><path class="cls-43" d="M146.54,468.07l-.35.19a.22.22,0,0,1-.28-.11.21.21,0,0,1,.05-.3l.35-.2a.21.21,0,0,1,.28.12A.22.22,0,0,1,146.54,468.07Z"/><path class="cls-44" d="M111.12,454.54a19.68,19.68,0,0,0,1.37,5.15,51.21,51.21,0,0,0,2.86,6.27,67.14,67.14,0,0,0,6.08,9.39c.68.86,2.21,2.06,2.59,3.1.23.63,0,.92-.55,1.12s-.89-.07-1.35-.63a81.4,81.4,0,0,1-5.1-7.57c-2-3.1-3.51-6.37-5.14-9.62-.8-1.59-3.49-5.5-2-6.63a4.67,4.67,0,0,1,1.28-.71Z"/><path class="cls-44" d="M130.33,454.29a12.59,12.59,0,0,0,1.51,3.42,34.32,34.32,0,0,0,2,3.22,14.28,14.28,0,0,1-1.65-4.76c-.26-1.85.55-2.74,1.19-3.92a11.13,11.13,0,0,1-1.68,1.2c-.41.2-1.67.52-1.31,1.18Z"/><path class="cls-43" d="M131.16,454.6l-.34.19a.24.24,0,0,1-.23-.42l.35-.19a.24.24,0,0,1,.22.42Z"/><path class="cls-43" d="M139.27,450.1l-.68.37a.22.22,0,0,1-.28-.11.22.22,0,0,1,.05-.3l.68-.38a.21.21,0,0,1,.28.12A.22.22,0,0,1,139.27,450.1Zm-1.35.75-.68.37a.22.22,0,0,1-.28-.11.22.22,0,0,1,0-.3l.68-.38a.21.21,0,0,1,.28.12A.22.22,0,0,1,137.92,450.85Zm-1.35.75-.68.37a.22.22,0,0,1-.28-.11.22.22,0,0,1,0-.3l.68-.38a.21.21,0,0,1,.28.12A.22.22,0,0,1,136.57,451.6Zm-1.35.75-.68.37a.22.22,0,0,1-.28-.11.21.21,0,0,1,.05-.3l.68-.38a.21.21,0,0,1,.28.12A.22.22,0,0,1,135.22,452.35Zm-1.35.75-.68.37a.22.22,0,0,1-.28-.11.22.22,0,0,1,.05-.3l.68-.38a.22.22,0,0,1,.28.12A.22.22,0,0,1,133.87,453.1Zm-1.36.75-.67.37a.22.22,0,0,1-.28-.11.21.21,0,0,1,.05-.3l.68-.38a.24.24,0,0,1,.22.42Z"/><path class="cls-43" d="M140.29,449.53l-.35.19a.22.22,0,0,1-.28-.11.22.22,0,0,1,.05-.3l.35-.2a.25.25,0,0,1,.23.42Z"/><path class="cls-43" d="M135.38,462.67l-.35.2a.25.25,0,0,1-.23-.42l.35-.19a.22.22,0,0,1,.28.11A.22.22,0,0,1,135.38,462.67Z"/><path class="cls-43" d="M143.48,458.17l-.67.38a.23.23,0,0,1-.29-.12.22.22,0,0,1,.06-.3l.67-.37a.21.21,0,0,1,.28.11A.21.21,0,0,1,143.48,458.17Zm-1.35.75-.68.38a.24.24,0,0,1-.22-.42l.67-.37a.22.22,0,0,1,.28.11A.21.21,0,0,1,142.13,458.92Zm-1.35.75-.68.38a.24.24,0,0,1-.22-.42l.67-.37a.22.22,0,0,1,.28.11A.21.21,0,0,1,140.78,459.67Zm-1.35.75-.68.38a.24.24,0,0,1-.22-.42l.67-.37a.22.22,0,0,1,.28.11A.21.21,0,0,1,139.43,460.42Zm-1.35.75-.68.38a.22.22,0,0,1-.28-.12.22.22,0,0,1,0-.3l.68-.37a.22.22,0,0,1,.28.11A.22.22,0,0,1,138.08,461.17Zm-1.35.75-.68.38a.21.21,0,0,1-.28-.12.22.22,0,0,1,0-.3l.68-.37a.22.22,0,0,1,.28.11A.22.22,0,0,1,136.73,461.92Z"/><path class="cls-43" d="M144.5,457.6l-.34.2a.24.24,0,0,1-.23-.42l.35-.19a.22.22,0,0,1,.28.11A.21.21,0,0,1,144.5,457.6Z"/><path class="cls-45" d="M149.36,481.9c-.11.26-.24.52-.35.78a3.16,3.16,0,0,0,.73-1.09c-.12.09-.31.24-.48.19Z"/><path class="cls-45" d="M145.77,482.57a11.88,11.88,0,0,1-.34,1.43,2.64,2.64,0,0,0,.82-1.38.59.59,0,0,1-.52,0Z"/><path class="cls-45" d="M147.38,482.63a3.22,3.22,0,0,0-.45.93l0,0a1.86,1.86,0,0,0,.82-1.22.65.65,0,0,1-.48.12Z"/><path class="cls-46" d="M149.29,466c4.16,3.79,5.05,10.31,2,14.58s-8.93,4.65-13.09.87-5.06-10.32-2-14.59S145.12,462.19,149.29,466Z"/><path class="cls-47" d="M149.12,466.05c4.13,3.75,5.26,9.86,2.53,13.66s-8.28,3.83-12.41.08-5.26-9.87-2.53-13.67S145,462.29,149.12,466.05Z"/><path class="cls-45" d="M148.1,466.26c3.93,2.84,5.45,8.06,3.4,11.66s-6.92,4.21-10.85,1.37-5.45-8.06-3.39-11.66S144.17,463.42,148.1,466.26Z"/><path class="cls-48" d="M147.82,467c3.78,2.73,5.28,7.69,3.34,11.08s-6.58,3.93-10.36,1.2-5.27-7.7-3.33-11.09S144,464.26,147.82,467Z"/><path class="cls-45" d="M135.32,472.65a3.91,3.91,0,0,0-.91,1.52c.28-.12.69-.7.92-.95a1.26,1.26,0,0,1-.06-.55Z"/><path class="cls-45" d="M135.75,474.62a3.41,3.41,0,0,0-1,1.38c.43-.18.73-.58,1.15-.78a2,2,0,0,1-.1-.53c-.05-.05,0,0,0,.08Z"/><path class="cls-45" d="M136.48,476.38a2.8,2.8,0,0,0-1,1.41c.46-.25.85-.59,1.32-.87a5.57,5.57,0,0,0-.37-.68Z"/><path class="cls-45" d="M136.48,479.35c.16-.46.73-.9,1-1.33,0,0,0,0,0,0,.13.23.36.35.5.57,0,0,0,0,0,0-.46,0-.88,1-1.25,1.24-.25-.31-.33-.55,0-.78Z"/><path class="cls-45" d="M137.78,481a9,9,0,0,0,1-1.44c.23.16.43.35.67.5-.5,0-1,1-1.18,1.49-.16-.16-.33-.36-.47-.5Z"/><path class="cls-45" d="M140,480.45a18.33,18.33,0,0,1-.7,1.85.58.58,0,0,0,.28.09,8.71,8.71,0,0,0,.88-1.57c-.2-.06-.37-.19-.49-.06Z"/><path class="cls-45" d="M134.4,472.47c.28-.54.93-.7.73-1.43-.3.26-.83.93-.77,1.33Z"/><path class="cls-49" d="M136.15,466.93c-.4.07-.91,1.37-1.11,1.82a9.24,9.24,0,0,0-.62,2.39,11.91,11.91,0,0,0,.42,4.9,6,6,0,0,0,1.57,3,9.21,9.21,0,0,0-.57-1.65,3,3,0,0,1-.2-1c0-.28.14-.36.17-.62a9.47,9.47,0,0,0-.37-2.43,10.66,10.66,0,0,1,.05-4.7c.1-.33.46-1.47.63-1.41Z"/><path class="cls-45" d="M141.4,481.56a6.14,6.14,0,0,1-.64,1.55.75.75,0,0,0,.25.09c.21-.5.64-.95.84-1.45a1.17,1.17,0,0,1-.45-.31Z"/><path class="cls-45" d="M143,482.27a3.65,3.65,0,0,1-.52,1.4.9.9,0,0,0,.38.1,5.28,5.28,0,0,1,.56-1.6c-.2.08-.16,0-.31,0a.36.36,0,0,0-.18.32Z"/><path class="cls-45" d="M144.38,482.52a3.49,3.49,0,0,1-.48,1.39s0,.07,0,.07c.45-.09.9-1,1-1.48a.53.53,0,0,1-.49,0,2,2,0,0,1-.13.45Z"/><path class="cls-45" d="M148.79,474.38a3.15,3.15,0,0,0-1.09-3.91l-.53-.4c-.89-.67-2.31-1.21-3.23.81l-.06.12-2-1.37c.26-.52.56-1.14.81-1.6l-1.24-.69a4.7,4.7,0,0,0-1,1.31l-.65-.45a.57.57,0,0,0-.36-.08l0,0v0a1,1,0,0,0-.62.49.9.9,0,0,0,.08,1.19l.8.55a3.1,3.1,0,0,0,1,3.9l.69.52c.67.5,2.22,1.33,3.31-1l1.9,1.32c-.47,1-.95,1.87-1.16,2.28l1.18.89A10.42,10.42,0,0,0,148,476.1l.92.7,0-.06.16.12c.31.21.78,0,1-.42a.91.91,0,0,0-.09-1.19Zm-2.36-2.25.43.32a.94.94,0,0,1,.38.87l-1.75-1.21C145.77,471.78,146.08,471.86,146.43,472.13Zm-4.37.57-.39-.29a1,1,0,0,1-.5-1l1.87,1.29C142.78,473,142.47,473,142.06,472.7Z"/><path class="cls-50" d="M149.12,474a3.17,3.17,0,0,0-1.08-3.92l-.54-.4c-.89-.66-2.3-1.21-3.23.81l-.06.12-2-1.36c.26-.53.56-1.14.81-1.6l-1.24-.7a5.11,5.11,0,0,0-1,1.31l-.65-.44a.5.5,0,0,0-.36-.09l0,0,0,0a1,1,0,0,0-.62.49.91.91,0,0,0,.09,1.19l.8.55a3.11,3.11,0,0,0,1,3.91l.69.52c.67.5,2.23,1.33,3.31-1l1.91,1.31c-.48,1-1,1.87-1.17,2.29l1.18.88a10.59,10.59,0,0,0,1.41-2.17l.92.69,0-.05.16.11c.31.21.77,0,1-.42a.91.91,0,0,0-.09-1.19Zm-2.35-2.26.43.32a1,1,0,0,1,.38.87l-1.76-1.21C146.1,471.36,146.41,471.44,146.77,471.71Zm-4.38.58L142,472a1,1,0,0,1-.49-1l1.86,1.29C143.11,472.57,142.81,472.6,142.39,472.29Z"/><polygon class="cls-51" points="145.74 476.98 145.46 477.32 146.61 478.24 146.81 477.86 145.74 476.98"/><polygon class="cls-51" points="146.54 475.06 146.87 474.65 145 473.44 144.76 473.8 146.54 475.06"/><path class="cls-52" d="M143.63,472.17a8.49,8.49,0,0,1,.38-.82,8.72,8.72,0,0,1,.4-.81,2.3,2.3,0,0,1,1-1.14c1-.45,2.25.5,2.82,1.39.24.39,1,2,.34,2.28-.13-.28-.14-.63-.25-.94a3.3,3.3,0,0,0-.49-.93,2,2,0,0,0-1.38-.87c-.69,0-.76.57-.74,1.17a.86.86,0,0,1-1,.84c-.32,0-.63-.12-1-.17Z"/><path class="cls-52" d="M139.43,468.28c-.66.49.42.89.57,1.21s-.16,1.11-.18,1.53a2.92,2.92,0,0,0,.42,1.47c.25.44.92,1.41,1.43,1.28a7,7,0,0,1-.66-2.66,4.92,4.92,0,0,1,.59-2c.13-.27.56-1.56,0-1.39-.18.06-.36.4-.51.55s-.31.21-.59,0a1.12,1.12,0,0,0-.78-.2c-.2.05-.69.54-.39.68Z"/><path class="cls-53" d="M137.27,468.37c-.41.21-.61,1.8-.68,2.32a8.43,8.43,0,0,0,.09,2.56c.27,1.3,1.36,4.09,2.7,4.41-.13-1-1.14-2-.84-3.1.25.15.34.47.58.63.12-.3-.05-.62,0-.94.57.18.9.78,1.56.35,0-.38-.41-.75-.58-1.06a4,4,0,0,1-.51-1.22,3.3,3.3,0,0,1,0-1.25c.13-.65.17-.55-.27-1s-.84-1.56-.07-2.1c.46-.32.55.1,1,.14s.51-.36.78-.63.62-.52,1.06-.36.8.37.64.89c-.1.35-.58.79-.44,1.15a2.34,2.34,0,0,0,1,.7,1.5,1.5,0,0,1,1.69-2.07c-.26-.25-.62-.41-.88-.65.63-.18,1.54.28,2.13-.05-.49-1.72-3-2.12-4.28-1.83a6.46,6.46,0,0,0-3.9,2c-.32.37-1.44,1.85-1.21,2.34Z"/><path class="cls-54" d="M137.14,472.83a5.55,5.55,0,0,0,.89,2.45,10.39,10.39,0,0,0,1.8,2.36,7.77,7.77,0,0,0,3.41,2.19c.43.1,1.48.47,1.88.09s-.32-.86-.63-1.13c-.48-.43-1-.76-1-1.52,0-.52.13-.75-.26-1.17-.66-.73-1.77-.64-2.54-1.18a4.56,4.56,0,0,1-1.72-3c-.09-.42-.14-1-.47-1.2a.76.76,0,0,0-1,.21,3.58,3.58,0,0,0-.29,2.27Z"/><path class="cls-45" d="M146.14,482.68c.07.27-.35.87-.5,1.19a2,2,0,0,0,1-1.25,1,1,0,0,1-.55-.09Z"/><path class="cls-45" d="M147.84,482.45a3.88,3.88,0,0,0-.4,1c.43-.24.56-.68.84-1.09l-.07-.14a1.22,1.22,0,0,1-.47.08Z"/><path class="cls-45" d="M149.39,481.71c.21.06-.24.69-.31.92a2.45,2.45,0,0,0,.77-1.16l-.46.24Z"/><path class="cls-55" d="M153.5,470c2.34,4.52,1.48,10-1.91,12.2s-8,.35-10.38-4.16-1.48-10,1.91-12.2S151.16,465.44,153.5,470Z"/><path class="cls-56" d="M155.13,470.61c2.34,4.52,1.49,10-1.91,12.2s-8,.35-10.37-4.17-1.49-10,1.9-12.2S152.79,466.09,155.13,470.61Z"/><path class="cls-45" d="M153.18,483.37l-.62.5a2.62,2.62,0,0,0,1.08-.59.62.62,0,0,1-.51-.07Z"/><path class="cls-45" d="M149.67,482.22c-.19.44-.64.67-.87,1.07a2.23,2.23,0,0,0,1.28-.8.65.65,0,0,1-.46-.27Z"/><path class="cls-45" d="M151.11,483a2.71,2.71,0,0,0-.78.59l0,0a1.59,1.59,0,0,0,1.21-.66.66.66,0,0,1-.47-.12Z"/><path class="cls-46" d="M159.27,469.57c2.32,5.28.6,11.35-3.84,13.56s-9.9-.28-12.21-5.55-.6-11.35,3.83-13.56S157,464.3,159.27,469.57Z"/><path class="cls-47" d="M159.1,469.55c2.29,5.23,1,11.06-3,13s-9-.67-11.3-5.9-.95-11.06,3-13S156.81,464.32,159.1,469.55Z"/><path class="cls-45" d="M158.09,469.25c2.47,4.34,1.83,9.58-1.43,11.7s-7.9.32-10.37-4-1.83-9.58,1.43-11.7S155.62,464.9,158.09,469.25Z"/><path class="cls-48" d="M157.56,469.74c2.37,4.18,1.8,9.19-1.27,11.18s-7.48.23-9.86-3.94-1.8-9.19,1.27-11.19S155.18,465.56,157.56,469.74Z"/><path class="cls-45" d="M144,468.61a3.44,3.44,0,0,0-1.41.89,4.76,4.76,0,0,0,1.2-.38,1.18,1.18,0,0,1,.16-.51Z"/><path class="cls-45" d="M143.65,470.53a3,3,0,0,0-1.4.73c.45.05.88-.15,1.34-.12a1.79,1.79,0,0,1,.11-.51c0-.07,0,0,0,.05Z"/><path class="cls-45" d="M143.62,472.4a2.39,2.39,0,0,0-1.45.73c.52,0,1-.1,1.53-.11a3.94,3.94,0,0,0-.07-.77Z"/><path class="cls-45" d="M142.48,475c.32-.33,1-.43,1.42-.68h0c0,.26.19.47.23.72h0c-.43-.19-1.16.41-1.61.47-.11-.39-.08-.63.34-.66Z"/><path class="cls-45" d="M143,477a8.23,8.23,0,0,0,1.47-.77c.15.25.25.51.41.76-.46-.23-1.33.34-1.64.72-.09-.21-.17-.48-.24-.66Z"/><path class="cls-45" d="M145.24,477.6a14,14,0,0,1-1.35,1.26.66.66,0,0,0,.22.22,7.48,7.48,0,0,0,1.41-.93c-.16-.15-.27-.35-.43-.29Z"/><path class="cls-45" d="M143.25,468c.47-.33,1.12-.16,1.22-.88-.37.08-1.11.4-1.21.77Z"/><path class="cls-49" d="M147,464.07c-.39-.13-1.36.75-1.71,1a7.75,7.75,0,0,0-1.49,1.78,10.39,10.39,0,0,0-1.51,4.43,6,6,0,0,0,.25,3.37,9.46,9.46,0,0,0,.12-1.7,2.53,2.53,0,0,1,.21-1c.13-.22.26-.24.39-.45a8.83,8.83,0,0,0,.61-2.28,9.34,9.34,0,0,1,1.86-4c.22-.23,1-1,1.12-.91Z"/><path class="cls-45" d="M146.09,479.24a5.2,5.2,0,0,1-1.18,1,.73.73,0,0,0,.19.2c.39-.33,1-.52,1.32-.85a1.17,1.17,0,0,1-.28-.48Z"/><path class="cls-45" d="M147.27,480.63a3,3,0,0,1-1,1,.88.88,0,0,0,.31.27c.17-.41.8-.79,1.12-1.11-.21,0-.15-.07-.28-.15a.3.3,0,0,0-.28.19Z"/><path class="cls-45" d="M148.42,481.5a2.9,2.9,0,0,1-1,1s0,.08,0,.07c.43.14,1.2-.44,1.46-.8a.56.56,0,0,1-.43-.27,1.41,1.41,0,0,1-.3.34Z"/><path class="cls-45" d="M155.57,476.59a3,3,0,0,0,.53-3.9l-.33-.61c-.55-1-1.62-2.15-3.25-.85l-.09.08-1.27-2.13c.43-.33,1-.72,1.35-1l-.85-1.19a4,4,0,0,0-1.41.65l-.42-.7a.62.62,0,0,0-.29-.24l0,0,0,0a.93.93,0,0,0-.76.13.84.84,0,0,0-.38,1.07l.52.86a2.91,2.91,0,0,0-.63,3.84l.43.78c.41.76,1.5,2.22,3.38.74l1.22,2c-.81.62-1.59,1.16-1.94,1.41l.73,1.34a9.63,9.63,0,0,0,2.11-1.2l.57,1,0,0,.1.17a.78.78,0,0,0,1.1.13.81.81,0,0,0,.38-1.06Zm-1.27-3.08.27.49a.93.93,0,0,1,0,.93L153.46,473C153.84,472.89,154.09,473.11,154.3,473.51Zm-4.19-1.6-.24-.44a1,1,0,0,1-.05-1.13l1.19,2C150.66,472.49,150.37,472.37,150.11,471.91Z"/><path class="cls-50" d="M156,476.4a3,3,0,0,0,.53-3.91l-.33-.6c-.55-1-1.62-2.16-3.24-.86l-.1.08L151.62,469l1.35-1-.85-1.19a4.21,4.21,0,0,0-1.41.66l-.41-.7a.61.61,0,0,0-.3-.25l0,0,0,0a1,1,0,0,0-.75.13.83.83,0,0,0-.38,1.07l.51.86a2.92,2.92,0,0,0-.63,3.84l.43.78c.41.76,1.5,2.22,3.39.74l1.21,2.05c-.81.62-1.58,1.16-1.94,1.42l.73,1.33a8.72,8.72,0,0,0,2.12-1.2l.57,1,0,0,.1.17a.79.79,0,0,0,1.1.14.83.83,0,0,0,.38-1.07Zm-1.26-3.09.27.49a.93.93,0,0,1,0,.93l-1.12-1.88C154.3,472.69,154.55,472.91,154.77,473.31Zm-4.19-1.6-.24-.44a1,1,0,0,1-.06-1.12l1.2,2C151.12,472.29,150.83,472.18,150.58,471.71Z"/><polygon class="cls-51" points="151.8 477.37 151.41 477.53 152.1 478.87 152.43 478.64 151.8 477.37"/><polygon class="cls-51" points="153.27 476.1 153.72 475.9 152.5 473.96 152.14 474.16 153.27 476.1"/><path class="cls-52" d="M151.75,472.2a5.05,5.05,0,0,1,.66-.52,4.64,4.64,0,0,1,.68-.51,2.09,2.09,0,0,1,1.32-.52c1.12.12,1.86,1.52,2,2.56.07.46.12,2.15-.57,2.13,0-.3.12-.61.14-.92a3.35,3.35,0,0,0-.09-1.05A2.2,2.2,0,0,0,155,472c-.64-.32-.91.12-1.13.65s-.82.52-1.26.23c-.28-.18-.53-.41-.8-.6Z"/><path class="cls-52" d="M149.44,466.82c-.79.1,0,1,.05,1.32s-.57.88-.75,1.24a2.62,2.62,0,0,0-.19,1.47c.06.5.29,1.66.8,1.79a6.62,6.62,0,0,1,.43-2.62,4.26,4.26,0,0,1,1.32-1.47c.22-.17,1.11-1.08.53-1.21-.19,0-.49.17-.68.22-.36.1-.36,0-.55-.25a1.29,1.29,0,0,0-.63-.55c-.2-.05-.83.14-.62.4Z"/><path class="cls-53" d="M147.44,465.86c-.44,0-1.24,1.26-1.51,1.68a7.08,7.08,0,0,0-.9,2.25c-.27,1.25-.35,4.19.73,5.11.28-.92-.27-2.25.45-3.08.16.25.12.57.27.82.23-.2.2-.56.4-.8.44.44.51,1.11,1.27,1.06.15-.34-.07-.85-.11-1.2a4.05,4.05,0,0,1,0-1.3,3,3,0,0,1,.51-1.06c.38-.5.38-.39.15-1s-.16-1.75.75-1.85c.54-.06.47.35.83.59s.6-.07,1-.17a.94.94,0,0,1,1.09.2c.37.39.59.7.24,1.08s-.83.4-.85.78a2.63,2.63,0,0,0,.67,1.09c.06-1.35,1.32-1.62,2.34-1-.15-.34-.41-.65-.56-1,.65.16,1.3,1,2,1,.22-1.71-1.9-3.26-3.18-3.64a6.38,6.38,0,0,0-4.3-.17c-.43.17-2,.92-2,1.45Z"/><path class="cls-54" d="M145.6,469.65a5.58,5.58,0,0,0-.14,2.55,11,11,0,0,0,.72,2.9,8.84,8.84,0,0,0,2.25,3.53c.35.3,1.16,1.12,1.66,1s0-.91-.12-1.28a2.23,2.23,0,0,1-.33-1.8c.17-.47.41-.58.22-1.14-.31-.94-1.36-1.4-1.85-2.24a4.64,4.64,0,0,1-.38-3.44c.08-.41.25-.91,0-1.27a.79.79,0,0,0-1-.31c-.71.34-1,1.43-1.14,1.82Z"/><path class="cls-45" d="M150,482.49c0,.26-.64.58-.91.79a1.8,1.8,0,0,0,1.39-.61,1.17,1.17,0,0,1-.47-.34Z"/><path class="cls-45" d="M151.59,483.11a3.62,3.62,0,0,0-.77.69c.49,0,.78-.31,1.19-.53,0-.06,0-.12,0-.15a1.17,1.17,0,0,1-.46-.17Z"/><path class="cls-45" d="M153.28,483.21c.17.16-.49.49-.64.65a2.13,2.13,0,0,0,1.15-.63l-.51,0Z"/><path class="cls-57" d="M148,410.56l3.82-5.29,1.66-9.38-26.11-23.23-6.65,7.86,7.42,8.17,0,0c-2.52,2.38-2.5,6.58,0,9.38a6.43,6.43,0,0,0,9.17.76l0,0Zm-18.7-13.28c-2.2-2.42-2.38-5.89-.43-7.78l4.7,5.17a3.26,3.26,0,0,1-1.19,1c-.84.29-1.23-.25-1.93-.36-.78,2.39,2.89,1.71,4.81,1.21l1.61,1.77C134.85,400.15,131.47,399.7,129.28,397.28Z"/><polygon class="cls-58" points="127.35 372.66 126.09 374.3 152.69 398.65 153.46 395.89 127.35 372.66"/><rect class="cls-57" x="120.94" y="376.29" width="5.31" height="1" transform="translate(-243.85 227.67) rotate(-49.75)"/><path class="cls-57" d="M132.4,426c-2.24,1.09-9.88-5.94-10.56-8.08-.52-1.65,12-14.37,12-14.37l.45-3.31,2.87-1.69L148,410.26s-4.19.61-5.3,1.48C139.07,414.55,135.52,424.51,132.4,426Z"/><path class="cls-59" d="M122.35,417.82c0-1,2.39-3.31,3.13-4.16,1.18-1.37,2.57-2.71,3.87-4s2.57-2.46,3.89-3.63c.59-.53,1.31-1,1.85-1.57.74-.77.28-.76.6-1.79,1.23-4,6.37-.38,7.41,1.41.85,1.48.4,3-.49,4.44s-1.2,2.89-2.17,4.27c-2,2.83-3.43,5.9-5.21,8.79-.79,1.27-2,3.09-3.47,3.35-1.71.31-9.55-5.83-9.42-7.44Z"/><polygon class="cls-60" points="125.2 375.81 121.35 380.36 149.02 407.32 151.35 405.03 151.35 399.78 125.2 375.81"/><polygon class="cls-61" points="125.44 376.15 151.12 401.44 151.35 405.03 150.43 405.96 123.18 378.36 123.95 377.38 125.2 375.81 125.44 376.15"/><path class="cls-62" d="M138.78,401.42a2,2,0,0,0-2.18.36c-.68.62-.57,1.9-1.07,2.71-1.32,2.13-3.65,3.82-5.48,5.46a53.84,53.84,0,0,0-5,5.1,5.13,5.13,0,0,0-1.29,2.17,2.39,2.39,0,0,0,.81,2,7.15,7.15,0,0,0,2,1.61c.51.28.63.19.91-.37a13,13,0,0,0,.66-1.66,25.07,25.07,0,0,1,2.29-5.14,36.35,36.35,0,0,1,3.47-4.66c.67-.8,1.37-1.54,2.1-2.26s1.25-1.53,2-2.21,2.08-.6,2.25-1.57-.45-1.3-1.08-1.6c-.21-.1-.58-.34-.7-.1Z"/><path class="cls-63" d="M137.92,402a3.24,3.24,0,0,0,.31-.24c-.38-.27-1.18.25-1.45.58-.5.61-.67,1.51-1.17,2.16a38.2,38.2,0,0,1-3.38,3.47c-2.2,2.22-4.57,4.21-6.69,6.5a4.65,4.65,0,0,0-1.42,2.76c0,1.19.71,1.7,1.43,2.4.2-.35.06-1,.13-1.39a8.09,8.09,0,0,1,1-2.43,21,21,0,0,1,3.07-4.28c1.83-2,3.77-3.75,5.74-5.51a6.4,6.4,0,0,0,1-1,7.57,7.57,0,0,0,.47-1.31,2.68,2.68,0,0,1,.91-.95c.25-.2.78-1.18.14-.85Z"/><path class="cls-63" d="M142.8,407.1a13.53,13.53,0,0,1-1.37,2.53c-.59,1-1.25,2-1.92,2.9a24,24,0,0,1-4.64,5.12,7.56,7.56,0,0,1-4.1,2.05,7.28,7.28,0,0,1-3.41-1,3.12,3.12,0,0,1-1.49-2.8,4.61,4.61,0,0,0,.85,5.47,7.88,7.88,0,0,1,.92.69,9.22,9.22,0,0,0,1,.81,3.13,3.13,0,0,0,2.5.77,5.89,5.89,0,0,0,2.41-1.85c.82-1,1.63-2,2.37-3.06,1.17-1.64,2.32-3.32,3.39-5,.73-1.14,1.52-2.34,2.12-3.52s1-2.21,1.63-3.31Z"/><polygon class="cls-64" points="125.19 376.52 124.1 377.93 151.1 403.86 151.01 401.76 125.19 376.52"/><rect class="cls-58" x="127.17" y="373.26" width="3.25" height="1.95" transform="translate(-240.07 230.78) rotate(-49.76)"/><rect class="cls-58" x="150.14" y="394.04" width="3.58" height="1.68" transform="translate(-247.65 255.77) rotate(-49.76)"/><path class="cls-65" d="M200.18,462.68c-1.55,1.95-3.69,3.41-5.47,5.2-2,2.05-4,4-6.16,5.83-1.59,1.33-3,3-5,3.84-2.14.92-3.28-.73-5.3-.74-5.11,0-4.9,8.21-3,11.25,2.52,4,8,1,10.8-.87a151.08,151.08,0,0,0,12.34-10c1.6-1.37,3.22-2.73,4.7-4.24.71-.73,3.16-2.4,3.33-3.37s-2.54-2.77-3.28-3.45a36.49,36.49,0,0,1-3-3.29Z"/><path class="cls-66" d="M200.49,463.79c-.42,1-.26,2.21-.69,3.27-.62,1.49-1.37,2.95-2.12,4.38a32.1,32.1,0,0,1-5.15,7.22,37.45,37.45,0,0,1-5.24,4.73c-1.26.91-4.14,1.84-5.44.26-.6-.73-.17-1.95-.37-2.78a3.19,3.19,0,0,0-1.47-2c-2.27-1.26-3.65.42-4.37,2.42-1.19,3.3-.07,8.46,4.32,7.74,4-.65,7.14-3.4,10.15-6,3.76-3.25,7.26-6.78,11.09-9.82q1.34-1.05,2.64-2.22c1.08-1,1.51-1.08.61-2.36a24.36,24.36,0,0,0-2-2.63c-.35-.38-.81-.66-1.14-1s-.64-1.32-.91-1Z"/><path class="cls-66" d="M201.17,464.92c.37,4.59-2.14,9.28-4.66,12.85l7.66-6.88c.53-.48,1-.77.75-1.49a11.09,11.09,0,0,0-1.33-1.48,18.4,18.4,0,0,1-2.42-3Z"/><path class="cls-65" d="M210.25,470.86a.56.56,0,0,1-.1.78l-1.25,1.05a.55.55,0,0,1-.79,0l-10.86-12.91a.55.55,0,0,1,.1-.78l1.25-1a.55.55,0,0,1,.79,0Z"/><path class="cls-67" d="M201.91,460.8v-2.55L225.46,436s10.24-5.25,13.08-6.22c3-1,9.65-1.07,9.65-1.07s-6.91,7.56-9.81,10.89c-2.62,3-9.43,12.85-9.43,12.85l-20,16.77Z"/><path class="cls-68" d="M246.68,429.68c-1.59-.22-3.48,1.33-4.73,2.15a43.45,43.45,0,0,0-5.71,4.07,52.9,52.9,0,0,0-6.71,8c-1.39,1.89-2.77,4.19-2.78,6.62,0,3.58,3-1.13,3.67-2.26,2.49-4,5.16-8.31,8.6-11.56,1.47-1.38,3-2.87,4.5-4.22.94-.84,3-2.07,3.41-2.85Z"/><path class="cls-69" d="M206.9,465.1a.73.73,0,0,1-1,0l-1.34-1.39a.73.73,0,0,1,0-1l17.72-17.08a.74.74,0,0,1,1,0l1.35,1.4a.73.73,0,0,1,0,1Z"/><path class="cls-68" d="M234.14,432.54c-1.27-.16-2.66.92-3.75,1.47a32.83,32.83,0,0,0-4,2.12c-2.46,1.67-4.54,3.88-6.87,5.82a159.93,159.93,0,0,0-11.5,11.19,44.12,44.12,0,0,0-4.3,4.35c-1.16,1.59-1.51,4.72,1.22,2.83,5.7-3.93,9.82-10.1,14.9-14.72,2.91-2.64,5.89-5.38,9-7.67,1.05-.78,6.44-4.07,5.76-5.47a2.31,2.31,0,0,0-.46,0Z"/><path class="cls-70" d="M206.65,464.48a.68.68,0,0,1-1,0h0a.68.68,0,0,1,0-1l13.82-13.6a.68.68,0,0,1,.95,0h0a.68.68,0,0,1,0,.95Z"/><path class="cls-66" d="M199.74,464.12a3,3,0,0,1,.25-.34c-3.3,2.71-6.26,6.06-9.45,8.94-1.48,1.34-2.93,2.6-4.31,4-1.15,1.2-2.29,2.4-4.11,2.05,1.41,2.35,4.27-.7,5.3-1.77,1.54-1.59,3.16-3,4.83-4.45s2.91-2.81,4.35-4.25c1.11-1.11,2.84-2.11,3.48-3.61.19-.46.47-.77.09-1.19-.18.1-.09.21-.17.34Z"/><path class="cls-71" d="M178.94,485.22a1,1,0,1,1-1.93-.11,1,1,0,1,1,1.93.11Z"/><path class="cls-65" d="M199.94,462.79c1.33,1.1-.08,4,.55,5.49.85,2,2.86,1.62,4.61,2,.53.11,2.3.8,2.65.37.52-.63-1-2.09-1.29-2.5-1.35-1.66-2.62-3.6-4.33-4.88a7.15,7.15,0,0,0-1.81-.79Z"/><path class="cls-65" d="M199.9,463.4c-1.34,1.72-3.17,1.47-4.86,2.44s-1.18,3.07-2.88,3.7c-1,.35-1.88,0-2.82.69a5,5,0,0,0-1.49,2.35,7.24,7.24,0,0,1-3.11,4.06,6.39,6.39,0,0,1-2.8,1.21c2.76,1.77,8.13-4.51,9.79-6.27,1.26-1.35,2.48-2.82,3.73-4.15s2.86-2.28,4.2-3.53a3,3,0,0,0,.6-.69.78.78,0,0,1-.36.19Z"/><text class="cls-2" transform="translate(137.51 758.85)">En el caso a que se refiere el presente numeral no se procederá <tspan x="6.06" y="28.8">sino mediante querella o petición del Procurador General de la </tspan><tspan x="17.41" y="57.6">Nación y siempre que no hubiere sido juzgado en el exterio</tspan><tspan class="cls-72" x="694.89" y="57.6">r</tspan><tspan x="702.91" y="57.6">. </tspan><tspan x="202.83" y="86.4">(Código Penal Colombiano )</tspan></text><rect class="cls-73" x="15.96" y="16.2" width="970.08" height="863.72" rx="12"/></g></g></svg>