<svg xmlns="http://www.w3.org/2000/svg" xmlns:xlink="http://www.w3.org/1999/xlink" viewBox="0 0 874.77 210.9"><defs><style>.cls-1{mask:url(#mask);filter:url(#luminosity-noclip-10);}.cls-10,.cls-100,.cls-114,.cls-12,.cls-130,.cls-14,.cls-147,.cls-154,.cls-16,.cls-161,.cls-18,.cls-180,.cls-2,.cls-4,.cls-52,.cls-56,.cls-6,.cls-63,.cls-72,.cls-79,.cls-8,.cls-84{mix-blend-mode:multiply;}.cls-2{fill:url(#linear-gradient);}.cls-3{mask:url(#mask-2);filter:url(#luminosity-noclip-15);}.cls-4{fill:url(#linear-gradient-2);}.cls-5{mask:url(#mask-3);filter:url(#luminosity-noclip-16);}.cls-6{fill:url(#linear-gradient-3);}.cls-7{mask:url(#mask-4);filter:url(#luminosity-noclip-17);}.cls-8{fill:url(#linear-gradient-4);}.cls-9{mask:url(#mask-5);filter:url(#luminosity-noclip-18);}.cls-10{fill:url(#linear-gradient-5);}.cls-11{mask:url(#mask-6);filter:url(#luminosity-noclip-11);}.cls-12{fill:url(#linear-gradient-6);}.cls-13{mask:url(#mask-7);filter:url(#luminosity-noclip-12);}.cls-14{fill:url(#linear-gradient-7);}.cls-15{mask:url(#mask-8);filter:url(#luminosity-noclip-13);}.cls-16{fill:url(#linear-gradient-8);}.cls-17{mask:url(#mask-9);filter:url(#luminosity-noclip-14);}.cls-18{fill:url(#linear-gradient-9);}.cls-19{isolation:isolate;}.cls-20{fill:#d3d3d3;opacity:0.45;}.cls-21{font-size:12px;font-family:ArialMT, Arial;}.cls-22{letter-spacing:0.24em;}.cls-23{letter-spacing:0.24em;}.cls-24{letter-spacing:0.09em;}.cls-25{letter-spacing:0.09em;}.cls-26{letter-spacing:0.13em;}.cls-27{letter-spacing:0.13em;}.cls-28{letter-spacing:0.07em;}.cls-29{letter-spacing:0.07em;}.cls-30{letter-spacing:0.13em;}.cls-31{letter-spacing:0.13em;}.cls-32{letter-spacing:0.24em;}.cls-33{letter-spacing:0.24em;}.cls-34{letter-spacing:0.27em;}.cls-35{letter-spacing:0.27em;}.cls-36{letter-spacing:0.08em;}.cls-37{letter-spacing:0.08em;}.cls-38{letter-spacing:0.17em;}.cls-39{letter-spacing:0.17em;}.cls-40{fill:#7d402e;}.cls-41{fill:#5b3526;}.cls-42{fill:#8e493a;}.cls-43{fill:#613922;}.cls-44{fill:#d68432;}.cls-45{fill:#c8702a;}.cls-46{fill:#b56225;}.cls-47{fill:#e8a33e;}.cls-48{fill:#faf0d6;}.cls-49{fill:#dfcca3;}.cls-50{fill:#edba8a;}.cls-51{mask:url(#mask-10);}.cls-100,.cls-111,.cls-114,.cls-130,.cls-147,.cls-154,.cls-161,.cls-180,.cls-52,.cls-56,.cls-63,.cls-72,.cls-79,.cls-84{opacity:0.4;}.cls-52{fill:url(#linear-gradient-10);}.cls-53{fill:#be6626;}.cls-54{fill:#df9673;}.cls-55{fill:#e9dea4;}.cls-56{fill:#a85629;}.cls-57{fill:#de9e77;}.cls-58{fill:#744527;}.cls-59{fill:#b8a595;}.cls-60{fill:#857465;}.cls-61{fill:#a18e7e;}.cls-62{mask:url(#mask-11);}.cls-63{fill:url(#linear-gradient-11);}.cls-64{fill:#4e3a32;}.cls-65{fill:#5c5249;}.cls-66{fill:#74665a;}.cls-67{fill:#f6e0b8;}.cls-68{fill:#b79b6b;}.cls-69{fill:#a8b5b4;}.cls-70{fill:#bcd1cf;}.cls-71{fill:#859c9a;}.cls-72{fill:#63300b;}.cls-73{fill:#6f8aa0;}.cls-74{fill:#556e7d;}.cls-75{fill:#24282c;}.cls-76{fill:#29333f;}.cls-77{fill:#52443e;}.cls-78{mask:url(#mask-12);}.cls-79{fill:url(#linear-gradient-12);}.cls-80{fill:#35404d;}.cls-81{fill:#8ba5c1;}.cls-82{fill:#796c5e;}.cls-83{fill:#a6aeb4;}.cls-84{fill:#6d360d;}.cls-85{fill:#333d44;}.cls-86{fill:#b4cde2;}.cls-87{fill:#cc7f5e;}.cls-88{fill:#809eb2;}.cls-89{fill:#eaac47;}.cls-90{fill:#757f86;}.cls-91{fill:#68727b;}.cls-92{fill:#d28667;}.cls-93{fill:#804521;}.cls-94{fill:#6d361c;}.cls-95{fill:#ac9c91;}.cls-96{fill:#988a82;}.cls-97{fill:#433125;}.cls-98{fill:#f9ece5;}.cls-99{mask:url(#mask-13);}.cls-100{fill:url(#linear-gradient-13);}.cls-101{fill:#3e2d25;}.cls-102{fill:#32221d;}.cls-103{fill:#68493c;}.cls-104{fill:#ebaf88;}.cls-105{fill:#73513e;}.cls-106{fill:#ddc276;}.cls-107{fill:#f3d486;}.cls-108{fill:#634333;}.cls-109{fill:#462f25;}.cls-110{mask:url(#mask-14);}.cls-111{fill:url(#linear-gradient-14);}.cls-112,.cls-114{fill:#52392c;}.cls-113{fill:#c1a76a;}.cls-115{fill:#4e3832;}.cls-116{fill:#96634a;}.cls-117{fill:#513529;}.cls-118{fill:#d1edf7;}.cls-119{fill:#83a1b4;}.cls-120{fill:#698693;}.cls-121{fill:#b5d1db;}.cls-122{fill:#44585e;}.cls-123{fill:#b07851;}.cls-124{fill:#f8e790;}.cls-125{fill:#bd8456;}.cls-126{fill:#94664e;}.cls-127{fill:#c5936a;opacity:0.3;}.cls-128{fill:#6b4630;}.cls-129{fill:#edb97b;}.cls-130{fill:#481d07;}.cls-131{fill:#97877e;}.cls-132{fill:#efc3aa;}.cls-133{fill:#e29b76;}.cls-134{fill:#523323;}.cls-135{fill:#f8e7df;}.cls-136{fill:#ac9c94;}.cls-137{fill:#d68560;}.cls-138{fill:#c5b5b0;}.cls-139{fill:#714329;}.cls-140{fill:#5b331f;}.cls-141{fill:#472517;}.cls-142{fill:#403630;}.cls-143{fill:#eee0d7;}.cls-144{fill:#4e453e;}.cls-145{fill:#423932;}.cls-146{mask:url(#mask-15);}.cls-147{fill:url(#linear-gradient-15);}.cls-148{fill:#ebe6c6;}.cls-149{fill:#dcd8b2;}.cls-150{fill:#3f3229;}.cls-151{fill:#45281c;}.cls-152{fill:#faefe8;}.cls-153{mask:url(#mask-16);}.cls-154{fill:url(#linear-gradient-16);}.cls-155{fill:#e8a280;}.cls-156{fill:#e29e75;}.cls-157{fill:#6c8086;}.cls-158{fill:#425255;}.cls-159{fill:#4d5f66;}.cls-160{mask:url(#mask-17);}.cls-161{fill:url(#linear-gradient-17);}.cls-162{fill:#3d4344;}.cls-163{fill:#675c52;}.cls-164{fill:#88804e;}.cls-165{fill:#2a3031;}.cls-166{fill:#e8e8b9;}.cls-167{fill:#944c3f;}.cls-168{fill:#97b5be;}.cls-169{fill:#4a5b60;}.cls-170{fill:#837f63;}.cls-171{fill:#c0a594;}.cls-172{fill:#c4c495;}.cls-173{fill:#f8e7dd;}.cls-174{fill:#ebd7cc;}.cls-175{fill:#ffffd4;}.cls-176{fill:#6b462f;}.cls-177{fill:#563524;}.cls-178{fill:#8d6f5f;}.cls-179{mask:url(#mask-18);}.cls-180{fill:url(#linear-gradient-18);}.cls-181{filter:url(#luminosity-noclip-9);}.cls-182{filter:url(#luminosity-noclip-8);}.cls-183{filter:url(#luminosity-noclip-7);}.cls-184{filter:url(#luminosity-noclip-6);}.cls-185{filter:url(#luminosity-noclip-5);}.cls-186{filter:url(#luminosity-noclip-4);}.cls-187{filter:url(#luminosity-noclip-3);}.cls-188{filter:url(#luminosity-noclip-2);}.cls-189{filter:url(#luminosity-noclip);}</style><filter id="luminosity-noclip" x="762.94" y="-5333.22" width="3.9" height="32766" filterUnits="userSpaceOnUse" color-interpolation-filters="sRGB"><feFlood flood-color="#fff" result="bg"/><feBlend in="SourceGraphic" in2="bg"/></filter><mask id="mask" x="762.94" y="-5333.22" width="3.9" height="32766" maskUnits="userSpaceOnUse"><g class="cls-189"/></mask><linearGradient id="linear-gradient" x1="764.81" y1="87.11" x2="764.92" y2="81.95" gradientUnits="userSpaceOnUse"><stop offset="0"/><stop offset="1" stop-color="#fff"/></linearGradient><filter id="luminosity-noclip-2" x="644.56" y="-5333.22" width="2.5" height="32766" filterUnits="userSpaceOnUse" color-interpolation-filters="sRGB"><feFlood flood-color="#fff" result="bg"/><feBlend in="SourceGraphic" in2="bg"/></filter><mask id="mask-2" x="644.56" y="-5333.22" width="2.5" height="32766" maskUnits="userSpaceOnUse"><g class="cls-188"/></mask><linearGradient id="linear-gradient-2" x1="645.81" y1="86.86" x2="645.81" y2="82.77" xlink:href="#linear-gradient"/><filter id="luminosity-noclip-3" x="644.72" y="-5333.22" width="1.66" height="32766" filterUnits="userSpaceOnUse" color-interpolation-filters="sRGB"><feFlood flood-color="#fff" result="bg"/><feBlend in="SourceGraphic" in2="bg"/></filter><mask id="mask-3" x="644.72" y="-5333.22" width="1.66" height="32766" maskUnits="userSpaceOnUse"><g class="cls-187"/></mask><linearGradient id="linear-gradient-3" x1="645.27" y1="77.88" x2="645.72" y2="82.69" xlink:href="#linear-gradient"/><filter id="luminosity-noclip-4" x="663.88" y="-5333.22" width="4.3" height="32766" filterUnits="userSpaceOnUse" color-interpolation-filters="sRGB"><feFlood flood-color="#fff" result="bg"/><feBlend in="SourceGraphic" in2="bg"/></filter><mask id="mask-4" x="663.88" y="-5333.22" width="4.3" height="32766" maskUnits="userSpaceOnUse"><g class="cls-186"/></mask><linearGradient id="linear-gradient-4" x1="666.02" y1="84.08" x2="666.02" y2="79.17" xlink:href="#linear-gradient"/><filter id="luminosity-noclip-5" x="665.28" y="-5333.22" width="1.83" height="32766" filterUnits="userSpaceOnUse" color-interpolation-filters="sRGB"><feFlood flood-color="#fff" result="bg"/><feBlend in="SourceGraphic" in2="bg"/></filter><mask id="mask-5" x="665.28" y="-5333.22" width="1.83" height="32766" maskUnits="userSpaceOnUse"><g class="cls-185"/></mask><linearGradient id="linear-gradient-5" x1="666.25" y1="71.64" x2="666.17" y2="76.94" xlink:href="#linear-gradient"/><filter id="luminosity-noclip-6" x="764.05" y="-5333.22" width="1.79" height="32766" filterUnits="userSpaceOnUse" color-interpolation-filters="sRGB"><feFlood flood-color="#fff" result="bg"/><feBlend in="SourceGraphic" in2="bg"/></filter><mask id="mask-6" x="764.05" y="-5333.22" width="1.79" height="32766" maskUnits="userSpaceOnUse"><g class="cls-184"/></mask><linearGradient id="linear-gradient-6" x1="764.96" y1="75.07" x2="764.94" y2="79.9" gradientUnits="userSpaceOnUse"><stop offset="0"/><stop offset="0.99" stop-color="#fff"/></linearGradient><filter id="luminosity-noclip-7" x="802.9" y="-5333.22" width="5.92" height="32766" filterUnits="userSpaceOnUse" color-interpolation-filters="sRGB"><feFlood flood-color="#fff" result="bg"/><feBlend in="SourceGraphic" in2="bg"/></filter><mask id="mask-7" x="802.9" y="-5333.22" width="5.92" height="32766" maskUnits="userSpaceOnUse"><g class="cls-183"/></mask><linearGradient id="linear-gradient-7" x1="805.61" y1="85.09" x2="805.95" y2="78.31" xlink:href="#linear-gradient"/><filter id="luminosity-noclip-8" x="804.71" y="-5333.22" width="2.7" height="32766" filterUnits="userSpaceOnUse" color-interpolation-filters="sRGB"><feFlood flood-color="#fff" result="bg"/><feBlend in="SourceGraphic" in2="bg"/></filter><mask id="mask-8" x="804.71" y="-5333.22" width="2.7" height="32766" maskUnits="userSpaceOnUse"><g class="cls-182"/></mask><linearGradient id="linear-gradient-8" x1="805.97" y1="69.62" x2="806.08" y2="76.2" xlink:href="#linear-gradient-6"/><filter id="luminosity-noclip-9" x="837.34" y="-5333.22" width="6.56" height="32766" filterUnits="userSpaceOnUse" color-interpolation-filters="sRGB"><feFlood flood-color="#fff" result="bg"/><feBlend in="SourceGraphic" in2="bg"/></filter><mask id="mask-9" x="837.34" y="-5333.22" width="6.56" height="32766" maskUnits="userSpaceOnUse"><g class="cls-181"/></mask><linearGradient id="linear-gradient-9" x1="840.62" y1="89.86" x2="840.62" y2="79.27" xlink:href="#linear-gradient"/><filter id="luminosity-noclip-10" x="762.94" y="82.06" width="3.9" height="3.3" filterUnits="userSpaceOnUse" color-interpolation-filters="sRGB"><feFlood flood-color="#fff" result="bg"/><feBlend in="SourceGraphic" in2="bg"/></filter><mask id="mask-10" x="762.94" y="82.06" width="3.9" height="3.3" maskUnits="userSpaceOnUse"><g class="cls-1"><path class="cls-2" d="M766.84,82.06H763l0,2.76a3.76,3.76,0,0,0,3.87,0Z"/></g></mask><linearGradient id="linear-gradient-10" x1="764.81" y1="87.11" x2="764.92" y2="81.95" gradientUnits="userSpaceOnUse"><stop offset="0" stop-color="#f8e7a3"/><stop offset="1" stop-color="#925915"/></linearGradient><filter id="luminosity-noclip-11" x="764.05" y="76.41" width="1.79" height="3" filterUnits="userSpaceOnUse" color-interpolation-filters="sRGB"><feFlood flood-color="#fff" result="bg"/><feBlend in="SourceGraphic" in2="bg"/></filter><mask id="mask-11" x="764.05" y="76.41" width="1.79" height="3" maskUnits="userSpaceOnUse"><g class="cls-11"><path class="cls-12" d="M765.32,78.39l-.19-2h-.37l-.19,2c-.31.08-.52.27-.52.48s.4.54.89.54.9-.24.9-.54S765.63,78.47,765.32,78.39Z"/></g></mask><linearGradient id="linear-gradient-11" x1="764.96" y1="75.07" x2="764.94" y2="79.9" gradientUnits="userSpaceOnUse"><stop offset="0" stop-color="#f8e7a3"/><stop offset="0.99" stop-color="#d0420f"/></linearGradient><filter id="luminosity-noclip-12" x="802.9" y="78.32" width="5.92" height="3.42" filterUnits="userSpaceOnUse" color-interpolation-filters="sRGB"><feFlood flood-color="#fff" result="bg"/><feBlend in="SourceGraphic" in2="bg"/></filter><mask id="mask-12" x="802.9" y="78.32" width="5.92" height="3.42" maskUnits="userSpaceOnUse"><g class="cls-13"><polygon class="cls-14" points="808.83 78.33 803.01 78.33 802.9 81.74 808.72 81.74 808.83 78.33"/></g></mask><linearGradient id="linear-gradient-12" x1="805.61" y1="85.09" x2="805.95" y2="78.31" gradientUnits="userSpaceOnUse"><stop offset="0" stop-color="#f8e7a3"/><stop offset="1" stop-color="#97330c"/></linearGradient><filter id="luminosity-noclip-13" x="804.71" y="70.74" width="2.7" height="4.98" filterUnits="userSpaceOnUse" color-interpolation-filters="sRGB"><feFlood flood-color="#fff" result="bg"/><feBlend in="SourceGraphic" in2="bg"/></filter><mask id="mask-13" x="804.71" y="70.74" width="2.7" height="4.98" maskUnits="userSpaceOnUse"><g class="cls-15"><path class="cls-16" d="M804.74,74.92a.44.44,0,0,0,0,.37c.28.58,2.9.71,2.63-.42-.18-.74-1.4,0-.92-4.13h-.64C805.83,75.45,805.11,74,804.74,74.92Z"/></g></mask><linearGradient id="linear-gradient-13" x1="805.97" y1="69.62" x2="806.08" y2="76.2" xlink:href="#linear-gradient-11"/><filter id="luminosity-noclip-14" x="837.34" y="78.95" width="6.56" height="7.92" filterUnits="userSpaceOnUse" color-interpolation-filters="sRGB"><feFlood flood-color="#fff" result="bg"/><feBlend in="SourceGraphic" in2="bg"/></filter><mask id="mask-14" x="837.34" y="78.95" width="6.56" height="7.92" maskUnits="userSpaceOnUse"><g class="cls-17"><polygon class="cls-18" points="843.3 79.81 837.67 78.95 837.34 86.86 843.9 86.77 843.3 79.81"/></g></mask><linearGradient id="linear-gradient-14" x1="840.62" y1="89.86" x2="840.62" y2="79.27" gradientUnits="userSpaceOnUse"><stop offset="0" stop-color="#f8e7a3"/><stop offset="1" stop-color="#c94510"/></linearGradient><filter id="luminosity-noclip-15" x="644.56" y="81.16" width="2.5" height="5.43" filterUnits="userSpaceOnUse" color-interpolation-filters="sRGB"><feFlood flood-color="#fff" result="bg"/><feBlend in="SourceGraphic" in2="bg"/></filter><mask id="mask-15" x="644.56" y="81.16" width="2.5" height="5.43" maskUnits="userSpaceOnUse"><g class="cls-3"><rect class="cls-4" x="644.56" y="81.16" width="2.5" height="5.43"/></g></mask><linearGradient id="linear-gradient-15" x1="645.81" y1="86.86" x2="645.81" y2="82.77" gradientUnits="userSpaceOnUse"><stop offset="0" stop-color="#f8e7a3"/><stop offset="1" stop-color="#99330c"/></linearGradient><filter id="luminosity-noclip-16" x="644.72" y="78.45" width="1.66" height="2.86" filterUnits="userSpaceOnUse" color-interpolation-filters="sRGB"><feFlood flood-color="#fff" result="bg"/><feBlend in="SourceGraphic" in2="bg"/></filter><mask id="mask-16" x="644.72" y="78.45" width="1.66" height="2.86" maskUnits="userSpaceOnUse"><g class="cls-5"><path class="cls-6" d="M645.78,80.18l0-1.73h-.39v1.79c-.05.64-.64.47-.64.65s.37.42.83.42.83-.19.83-.42S645.8,80.77,645.78,80.18Z"/></g></mask><linearGradient id="linear-gradient-16" x1="645.27" y1="77.88" x2="645.72" y2="82.69" gradientUnits="userSpaceOnUse"><stop offset="0" stop-color="#f8e7a3"/><stop offset="1" stop-color="#c40c01"/></linearGradient><filter id="luminosity-noclip-17" x="663.88" y="79.12" width="4.3" height="4.35" filterUnits="userSpaceOnUse" color-interpolation-filters="sRGB"><feFlood flood-color="#fff" result="bg"/><feBlend in="SourceGraphic" in2="bg"/></filter><mask id="mask-17" x="663.88" y="79.12" width="4.3" height="4.35" maskUnits="userSpaceOnUse"><g class="cls-7"><rect class="cls-8" x="663.88" y="79.12" width="4.3" height="4.35"/></g></mask><linearGradient id="linear-gradient-17" x1="666.02" y1="84.08" x2="666.02" y2="79.17" gradientUnits="userSpaceOnUse"><stop offset="0" stop-color="#f8e7a3"/><stop offset="1" stop-color="#b02e0b"/></linearGradient><filter id="luminosity-noclip-18" x="665.28" y="72.23" width="1.83" height="3.85" filterUnits="userSpaceOnUse" color-interpolation-filters="sRGB"><feFlood flood-color="#fff" result="bg"/><feBlend in="SourceGraphic" in2="bg"/></filter><mask id="mask-18" x="665.28" y="72.23" width="1.83" height="3.85" maskUnits="userSpaceOnUse"><g class="cls-9"><path class="cls-10" d="M665.28,75.7l.41.38h.77l.64-.38c-.46-.4-.79-.65-.57-3.47H666C666.05,74.9,665.66,75.45,665.28,75.7Z"/></g></mask><linearGradient id="linear-gradient-18" x1="666.25" y1="71.64" x2="666.17" y2="76.94" xlink:href="#linear-gradient-16"/></defs><title>justicia-internacional</title><g class="cls-19"><g id="Capa_1" data-name="Capa 1"><rect class="cls-20" x="-8.24" y="-2.65" width="886.63" height="220.62"/><text class="cls-21" transform="translate(41.8 29.15)">Se<tspan class="cls-22" x="14.68" y="0"> </tspan><tspan x="20.9" y="0">trata</tspan><tspan class="cls-22" x="44.91" y="0"> </tspan><tspan x="51.13" y="0">en</tspan><tspan class="cls-22" x="64.47" y="0"> </tspan><tspan x="70.69" y="0">consecuencia</tspan><tspan class="cls-22" x="144.07" y="0"> </tspan><tspan x="150.29" y="0">de</tspan><tspan class="cls-22" x="163.64" y="0"> </tspan><tspan x="169.86" y="0">un</tspan><tspan class="cls-22" x="183.2" y="0"> </tspan><tspan x="189.42" y="0">esfuerzo</tspan><tspan class="cls-22" x="235.45" y="0"> </tspan><tspan x="241.67" y="0">más</tspan><tspan class="cls-23" x="264.33" y="0"> </tspan><tspan x="270.55" y="0">de</tspan><tspan class="cls-22" x="283.9" y="0"> </tspan><tspan x="290.12" y="0">la</tspan><tspan class="cls-22" x="299.46" y="0"> </tspan><tspan x="305.68" y="0">comunidad</tspan><tspan class="cls-22" x="364.38" y="0"> </tspan><tspan x="370.6" y="0">internacional</tspan><tspan class="cls-22" x="438.64" y="0"> </tspan><tspan x="444.86" y="0">por</tspan><tspan class="cls-22" x="462.21" y="0"> </tspan><tspan x="468.42" y="0">lograr</tspan><tspan class="cls-22" x="499.1" y="0"> </tspan><tspan x="505.32" y="0">una</tspan><tspan class="cls-22" x="525.34" y="0"> </tspan><tspan x="531.56" y="0">“justicia </tspan><tspan x="0" y="14.4">internacional”</tspan><tspan class="cls-24" x="72.04" y="14.4"> </tspan><tspan x="76.51" y="14.4">ante</tspan><tspan class="cls-24" x="99.87" y="14.4"> </tspan><tspan x="104.34" y="14.4">graves</tspan><tspan class="cls-24" x="140.36" y="14.4"> </tspan><tspan x="144.83" y="14.4">crímenes</tspan><tspan class="cls-25" x="194.17" y="14.4"> </tspan><tspan x="198.64" y="14.4">internacionales,</tspan><tspan class="cls-24" x="282.7" y="14.4"> </tspan><tspan x="287.17" y="14.4">y</tspan><tspan class="cls-24" x="293.17" y="14.4"> </tspan><tspan x="297.64" y="14.4">si</tspan><tspan class="cls-24" x="306.3" y="14.4"> </tspan><tspan x="310.77" y="14.4">bien,</tspan><tspan class="cls-24" x="336.8" y="14.4"> </tspan><tspan x="341.27" y="14.4">estos</tspan><tspan class="cls-24" x="369.95" y="14.4"> </tspan><tspan x="374.42" y="14.4">nuevos</tspan><tspan class="cls-24" x="413.11" y="14.4"> </tspan><tspan x="417.58" y="14.4">tribunales</tspan><tspan class="cls-25" x="469.62" y="14.4"> </tspan><tspan x="474.09" y="14.4">no</tspan><tspan class="cls-24" x="487.43" y="14.4"> </tspan><tspan x="491.9" y="14.4">son</tspan><tspan class="cls-24" x="511.25" y="14.4"> </tspan><tspan x="515.72" y="14.4">en</tspan><tspan class="cls-24" x="529.07" y="14.4"> </tspan><tspan x="533.54" y="14.4">sentido </tspan><tspan x="0" y="28.8">estricto</tspan><tspan class="cls-26" x="38.68" y="28.8"> </tspan><tspan x="43.63" y="28.8">tribunales</tspan><tspan class="cls-27" x="95.66" y="28.8"> </tspan><tspan x="100.6" y="28.8">penales</tspan><tspan class="cls-26" x="142.64" y="28.8"> </tspan><tspan x="147.58" y="28.8">internacionales,</tspan><tspan class="cls-27" x="231.64" y="28.8"> </tspan><tspan x="236.58" y="28.8">sí</tspan><tspan class="cls-26" x="245.92" y="28.8"> </tspan><tspan x="250.87" y="28.8">son</tspan><tspan class="cls-27" x="270.21" y="28.8"> </tspan><tspan x="275.16" y="28.8">relevantes</tspan><tspan class="cls-26" x="330.52" y="28.8"> </tspan><tspan x="335.47" y="28.8">para</tspan><tspan class="cls-26" x="359.49" y="28.8"> </tspan><tspan x="364.44" y="28.8">un</tspan><tspan class="cls-27" x="377.78" y="28.8"> </tspan><tspan x="382.73" y="28.8">estudio</tspan><tspan class="cls-26" x="421.43" y="28.8"> </tspan><tspan x="426.37" y="28.8">completo</tspan><tspan class="cls-27" x="475.06" y="28.8"> </tspan><tspan x="480.01" y="28.8">de</tspan><tspan class="cls-26" x="493.36" y="28.8"> </tspan><tspan x="498.31" y="28.8">la</tspan><tspan class="cls-27" x="507.65" y="28.8"> </tspan><tspan x="512.59" y="28.8">historia</tspan><tspan class="cls-26" x="551.28" y="28.8"> </tspan><tspan x="556.22" y="28.8">del </tspan><tspan x="0" y="43.2">derecho penal internacional.</tspan><tspan x="0" y="72">En</tspan><tspan class="cls-28" x="14.68" y="72"> </tspan><tspan x="18.84" y="72">el</tspan><tspan class="cls-29" x="28.18" y="72"> </tspan><tspan x="32.34" y="72">desarrollo</tspan><tspan class="cls-28" x="85.03" y="72"> </tspan><tspan x="89.2" y="72">de</tspan><tspan class="cls-28" x="102.54" y="72"> </tspan><tspan x="106.71" y="72">cada</tspan><tspan class="cls-28" x="132.73" y="72"> </tspan><tspan x="136.89" y="72">uno</tspan><tspan class="cls-28" x="156.91" y="72"> </tspan><tspan x="161.07" y="72">de</tspan><tspan class="cls-29" x="174.42" y="72"> </tspan><tspan x="178.58" y="72">los</tspan><tspan class="cls-28" x="193.92" y="72"> </tspan><tspan x="198.08" y="72">tribunales,</tspan><tspan class="cls-28" x="253.45" y="72"> </tspan><tspan x="257.61" y="72">encontraremos</tspan><tspan class="cls-29" x="337.65" y="72"> </tspan><tspan x="341.81" y="72">que</tspan><tspan class="cls-28" x="361.83" y="72"> </tspan><tspan x="366" y="72">los</tspan><tspan class="cls-28" x="381.33" y="72"> </tspan><tspan x="385.5" y="72">mismos</tspan><tspan class="cls-28" x="426.83" y="72"> </tspan><tspan x="430.99" y="72">fueron</tspan><tspan class="cls-28" x="465.02" y="72"> </tspan><tspan x="469.18" y="72">creados</tspan><tspan class="cls-29" x="511.87" y="72"> </tspan><tspan x="516.03" y="72">cuando</tspan><tspan class="cls-28" x="555.4" y="72"> </tspan><tspan x="559.56" y="72">ya </tspan><tspan x="0" y="86.4">había</tspan><tspan class="cls-30" x="30.03" y="86.4"> </tspan><tspan x="34.95" y="86.4">sido</tspan><tspan class="cls-30" x="56.96" y="86.4"> </tspan><tspan x="61.88" y="86.4">firmado</tspan><tspan class="cls-31" x="101.9" y="86.4"> </tspan><tspan x="106.82" y="86.4">el</tspan><tspan class="cls-30" x="116.16" y="86.4"> </tspan><tspan x="121.08" y="86.4">Estatuto</tspan><tspan class="cls-30" x="165.11" y="86.4"> </tspan><tspan x="170.03" y="86.4">de</tspan><tspan class="cls-30" x="183.38" y="86.4"> </tspan><tspan x="188.3" y="86.4">Roma,</tspan><tspan class="cls-31" x="223.64" y="86.4"> </tspan><tspan x="228.56" y="86.4">que</tspan><tspan class="cls-30" x="248.58" y="86.4"> </tspan><tspan x="253.51" y="86.4">es</tspan><tspan class="cls-30" x="266.18" y="86.4"> </tspan><tspan x="271.1" y="86.4">el</tspan><tspan class="cls-30" x="280.44" y="86.4"> </tspan><tspan x="285.36" y="86.4">tratado</tspan><tspan class="cls-30" x="322.72" y="86.4"> </tspan><tspan x="327.64" y="86.4">internacional</tspan><tspan class="cls-31" x="395.69" y="86.4"> </tspan><tspan x="400.61" y="86.4">que</tspan><tspan class="cls-30" x="420.63" y="86.4"> </tspan><tspan x="425.55" y="86.4">dará</tspan><tspan class="cls-30" x="449.57" y="86.4"> </tspan><tspan x="454.49" y="86.4">vida</tspan><tspan class="cls-30" x="476.5" y="86.4"> </tspan><tspan x="481.42" y="86.4">a</tspan><tspan class="cls-31" x="488.1" y="86.4"> </tspan><tspan x="493.02" y="86.4">la</tspan><tspan class="cls-30" x="502.36" y="86.4"> </tspan><tspan x="507.28" y="86.4">Corte</tspan><tspan class="cls-30" x="536.62" y="86.4"> </tspan><tspan x="541.54" y="86.4">Penal </tspan><tspan x="0" y="100.8">Internacional</tspan><tspan class="cls-32" x="68.71" y="100.8"> </tspan><tspan x="74.93" y="100.8">(en</tspan><tspan class="cls-33" x="92.27" y="100.8"> </tspan><tspan x="98.49" y="100.8">adelante</tspan><tspan class="cls-32" x="144.53" y="100.8"> </tspan><tspan x="150.75" y="100.8">CPI),</tspan><tspan class="cls-32" x="178.08" y="100.8"> </tspan><tspan x="184.3" y="100.8">como</tspan><tspan class="cls-33" x="213.64" y="100.8"> </tspan><tspan x="219.86" y="100.8">tribunal</tspan><tspan class="cls-32" x="259.22" y="100.8"> </tspan><tspan x="265.43" y="100.8">permanente,</tspan><tspan class="cls-32" x="332.81" y="100.8"> </tspan><tspan x="339.02" y="100.8">sin</tspan><tspan class="cls-33" x="354.36" y="100.8"> </tspan><tspan x="360.58" y="100.8">embargo,</tspan><tspan class="cls-32" x="411.28" y="100.8"> </tspan><tspan x="417.49" y="100.8">debe</tspan><tspan class="cls-32" x="444.19" y="100.8"> </tspan><tspan x="450.4" y="100.8">comprenderse</tspan><tspan class="cls-33" x="527.11" y="100.8"> </tspan><tspan x="533.33" y="100.8">que</tspan><tspan class="cls-32" x="553.35" y="100.8"> </tspan><tspan x="559.56" y="100.8">su </tspan><tspan x="0" y="115.2">creación</tspan><tspan class="cls-34" x="45.36" y="115.2"> </tspan><tspan x="51.94" y="115.2">resulta</tspan><tspan class="cls-35" x="87.96" y="115.2"> </tspan><tspan x="94.54" y="115.2">necesaria,</tspan><tspan class="cls-34" x="149.9" y="115.2"> </tspan><tspan x="156.49" y="115.2">toda</tspan><tspan class="cls-34" x="179.84" y="115.2"> </tspan><tspan x="186.42" y="115.2">vez</tspan><tspan class="cls-34" x="205.1" y="115.2"> </tspan><tspan x="211.68" y="115.2">que,</tspan><tspan class="cls-34" x="235.03" y="115.2"> </tspan><tspan x="241.62" y="115.2">como</tspan><tspan class="cls-35" x="270.96" y="115.2"> </tspan><tspan x="277.54" y="115.2">se</tspan><tspan class="cls-34" x="290.21" y="115.2"> </tspan><tspan x="296.8" y="115.2">verá</tspan><tspan class="cls-34" x="320.14" y="115.2"> </tspan><tspan x="326.72" y="115.2">en</tspan><tspan class="cls-35" x="340.07" y="115.2"> </tspan><tspan x="346.65" y="115.2">el</tspan><tspan class="cls-34" x="355.99" y="115.2"> </tspan><tspan x="362.57" y="115.2">desarrollo</tspan><tspan class="cls-34" x="415.27" y="115.2"> </tspan><tspan x="421.85" y="115.2">del</tspan><tspan class="cls-34" x="437.86" y="115.2"> </tspan><tspan x="444.44" y="115.2">semestre,</tspan><tspan class="cls-34" x="497.13" y="115.2"> </tspan><tspan x="503.71" y="115.2">la</tspan><tspan class="cls-35" x="513.05" y="115.2"> </tspan><tspan x="519.63" y="115.2">CPI</tspan><tspan class="cls-34" x="539.63" y="115.2"> </tspan><tspan x="546.21" y="115.2">tiene </tspan><tspan x="0" y="129.6">competencia</tspan><tspan class="cls-36" x="68.04" y="129.6"> </tspan><tspan x="72.31" y="129.6">temporal</tspan><tspan class="cls-36" x="119" y="129.6"> </tspan><tspan x="123.27" y="129.6">posterior</tspan><tspan class="cls-37" x="169.95" y="129.6"> </tspan><tspan x="174.22" y="129.6">a</tspan><tspan class="cls-36" x="180.9" y="129.6"> </tspan><tspan x="185.17" y="129.6">la</tspan><tspan class="cls-36" x="194.5" y="129.6"> </tspan><tspan x="198.77" y="129.6">entrada</tspan><tspan class="cls-36" x="239.47" y="129.6"> </tspan><tspan x="243.74" y="129.6">en</tspan><tspan class="cls-37" x="257.09" y="129.6"> </tspan><tspan x="261.36" y="129.6">vigor</tspan><tspan class="cls-36" x="287.37" y="129.6"> </tspan><tspan x="291.64" y="129.6">del</tspan><tspan class="cls-36" x="307.65" y="129.6"> </tspan><tspan x="311.92" y="129.6">tratado,</tspan><tspan class="cls-36" x="352.62" y="129.6"> </tspan><tspan x="356.88" y="129.6">por</tspan><tspan class="cls-37" x="374.23" y="129.6"> </tspan><tspan x="378.5" y="129.6">lo</tspan><tspan class="cls-36" x="387.84" y="129.6"> </tspan><tspan x="392.11" y="129.6">que</tspan><tspan class="cls-36" x="412.13" y="129.6"> </tspan><tspan x="416.4" y="129.6">hechos</tspan><tspan class="cls-36" x="455.09" y="129.6"> </tspan><tspan x="459.36" y="129.6">como</tspan><tspan class="cls-37" x="488.71" y="129.6"> </tspan><tspan x="492.97" y="129.6">los</tspan><tspan class="cls-36" x="508.31" y="129.6"> </tspan><tspan x="512.58" y="129.6">que</tspan><tspan class="cls-36" x="532.61" y="129.6"> </tspan><tspan x="536.88" y="129.6">juzgan </tspan><tspan x="0" y="144">estos</tspan><tspan class="cls-38" x="28.68" y="144"> </tspan><tspan x="34.01" y="144">tribunales</tspan><tspan class="cls-38" x="86.04" y="144"> </tspan><tspan x="91.36" y="144">internacionalizados,</tspan><tspan class="cls-38" x="197.43" y="144"> </tspan><tspan x="202.75" y="144">no</tspan><tspan class="cls-38" x="216.1" y="144"> </tspan><tspan x="221.43" y="144">entran</tspan><tspan class="cls-38" x="255.45" y="144"> </tspan><tspan x="260.78" y="144">dentro</tspan><tspan class="cls-38" x="294.8" y="144"> </tspan><tspan x="300.13" y="144">de</tspan><tspan class="cls-39" x="313.48" y="144"> </tspan><tspan x="318.8" y="144">la</tspan><tspan class="cls-38" x="328.14" y="144"> </tspan><tspan x="333.47" y="144">órbita</tspan><tspan class="cls-38" x="363.48" y="144"> </tspan><tspan x="368.81" y="144">de</tspan><tspan class="cls-38" x="382.16" y="144"> </tspan><tspan x="387.48" y="144">competencia</tspan><tspan class="cls-38" x="455.52" y="144"> </tspan><tspan x="460.85" y="144">del</tspan><tspan class="cls-38" x="476.86" y="144"> </tspan><tspan x="482.18" y="144">naciente</tspan><tspan class="cls-38" x="527.55" y="144"> </tspan><tspan x="532.88" y="144">tribunal </tspan><tspan x="0" y="158.4">permanente por el que abogó Basiouni.</tspan></text><rect class="cls-40" x="707.51" y="139.73" width="60.15" height="11.67"/><rect class="cls-41" x="711.15" y="139.73" width="52.87" height="11.67"/><rect class="cls-42" x="705.51" y="138.28" width="64.16" height="2.55"/><path class="cls-43" d="M758.91,75.87a3.7,3.7,0,0,0,1.33-2.15v2A1.35,1.35,0,0,1,758.91,75.87Z"/><path class="cls-43" d="M758.74,76.69a3.79,3.79,0,0,0,1.36-2.13l0,2A1.34,1.34,0,0,1,758.74,76.69Z"/><path class="cls-43" d="M758.66,77.35a3.71,3.71,0,0,0,1.42-2.09l-.1,1.95A1.33,1.33,0,0,1,758.66,77.35Z"/><path class="cls-43" d="M770.86,75.3a3.78,3.78,0,0,1-1.4-2.13l0,2A1.41,1.41,0,0,0,770.86,75.3Z"/><path class="cls-43" d="M771.06,76.11A3.73,3.73,0,0,1,769.62,74l.08,2A1.43,1.43,0,0,0,771.06,76.11Z"/><path class="cls-43" d="M771.15,76.77a3.68,3.68,0,0,1-1.49-2.07l.13,2A1.41,1.41,0,0,0,771.15,76.77Z"/><path class="cls-44" d="M776.22,102.24c.26.29,1,.6.89-.13s-.53-1.12-.47-1.8.4-.12.34-.89c0-.34-1.24-3.11-1.24-3.23S776.22,102.24,776.22,102.24Z"/><path class="cls-44" d="M753.25,95.71c-.53.24-.84,3.43-1,3.74-.4.61.67.27.61,1s-.39.63-.4,1.39.84.33.84.46Z"/><path class="cls-45" d="M766,149.9c2-.26,2.21-.83,2.06-1.12s-1.08-.25-.92-.82,1.1-.53.92-1.05-.91-1.07-.66-1.88-1.08-1.32-1.08-1.32Z"/><path class="cls-45" d="M763.6,149.71c-1.81,0-2-.63-1.93-1s.73-.41.8-.81-.61-.5-.63-1c-.06-1.1.57-1.43.55-2.24-.74-1.89.69-1.3.69-1.3Z"/><path class="cls-46" d="M761.39,85.52s-.54-1.46-.4-1.68c.38-.61,7-1,7.7-.13.27.31-.26,1.57-.26,1.57Z"/><path class="cls-44" d="M774.33,104.25c3.69,1.09,2.51-16.13-2.79-18.64C770.08,84.91,769.52,102.83,774.33,104.25Z"/><path class="cls-44" d="M755.22,104.41c-3.67,1.07-3.89-17.91,2.38-18.91C759.21,85.24,760,103,755.22,104.41Z"/><path class="cls-44" d="M759,112.67c-.78-1.87-3.32-18-2.53-26.75,3.09-1.62,11.72-2.28,15.1-.21,2.09,9.55.16,22.82-1,28Z"/><path class="cls-45" d="M763.59,102.62c0,.49,1.37.54,2,.53,1.2,0,2.37-1,2.17-1.34s-1,.4-2.13.61C764.88,102.55,763.58,102.24,763.59,102.62Z"/><path class="cls-45" d="M772,100.18c-.84,1.2-1.12,2.21-4.4,3.7-.51.23-.35.74,0,.74.7,0,3.2-.37,4.31-2Z"/><path class="cls-45" d="M772.27,90c.21,8-1.62,17.13-2.43,21l-10.31-1a105.68,105.68,0,0,1-3.15-21.72c-.24,9,2,22.69,2.66,24.41l11.59,1.08C771.61,109.28,773.16,98.9,772.27,90Z"/><path class="cls-47" d="M761.28,84.69l3.44,7.23,3.48-7.3S763.39,83.67,761.28,84.69Z"/><path class="cls-48" d="M761.57,84.62l3.15,6.14,3.2-6.2S763.5,83.75,761.57,84.62Z"/><path class="cls-49" d="M767.18,84.77c0-.43-1-.77-2.33-.77s-2.33.34-2.33.77,1.05.78,2.33.78S767.18,85.2,767.18,84.77Z"/><path class="cls-50" d="M766.84,82.06H763l0,2.76a3.76,3.76,0,0,0,3.87,0Z"/><g class="cls-51"><path class="cls-52" d="M766.84,82.06H763l0,2.76a3.76,3.76,0,0,0,3.87,0Z"/></g><path class="cls-47" d="M769.21,84.64c-.11-.55-.4-1-.64-.92s-.37.54-.26,1.1.4,1,.65.92S769.32,85.2,769.21,84.64Z"/><path class="cls-47" d="M761.43,84.82c.17-.55.11-1-.13-1.12s-.58.3-.74.84-.11,1,.13,1.12S761.27,85.36,761.43,84.82Z"/><path class="cls-45" d="M762.89,150.6c-.2-6.22-2.49-17.37-3.49-20.83-2-6.85-1.4-21.86-1.4-21.86l13.38-.82s.79,15.83-1.56,22.68c-1,2.92-3.59,18.08-2.77,20.66Z"/><path class="cls-44" d="M763.16,150.6a143.22,143.22,0,0,0-3-21.24c-1.68-7-1.49-22.59-1.49-22.59l12.38-1.16s0,16.77-2,23.75c-.85,3-3.06,18.44-2.35,21.07Z"/><path class="cls-45" d="M772,103.66c-1.14,1.14-1.55,2.13-5.86,3.36-.66.2-.49.72,0,.75.89,0,4.12-.13,5.64-1.71Z"/><path class="cls-45" d="M756.87,100a7.81,7.81,0,0,0,4.29,3.49c.48.21.39.72,0,.74a5.17,5.17,0,0,1-4.06-1.82Z"/><path class="cls-45" d="M757.19,103.48c1.13,1.08,1.59,2,5.58,3.07.61.16.51.69.05.75-.79.09-3.71.07-5.23-1.43Z"/><path class="cls-45" d="M771.15,113.13c.12-3.24.18-3.06.21-5.12-2,.68-4.65,4.76-7.06,4.76-2.14,0-3.77-4-5.59-4.55,0,1.71-.44,2.68-.37,5.89C763.3,116.85,767.76,116.14,771.15,113.13Z"/><path class="cls-53" d="M776.31,103.67a2.37,2.37,0,1,0-3.15,1.88A2.63,2.63,0,0,0,776.31,103.67Z"/><path class="cls-53" d="M757.31,101.87a2.36,2.36,0,1,0-1,3.52A2.62,2.62,0,0,0,757.31,101.87Z"/><path class="cls-50" d="M760.3,111.76c-3.78-3.91-8.73-8.39-5.8-10.79,2.6-2.14,6.86,10.12,6.86,10.12Z"/><path class="cls-54" d="M755.72,101.15A1.41,1.41,0,0,1,756,101a1.12,1.12,0,0,0-1.46,0c-2.93,2.4,2,6.88,5.8,10.79l.22-.14C757,107.69,752.83,103.32,755.72,101.15Z"/><path class="cls-54" d="M754.44,103.06c0-.51-.29-.92-.6-.91s-.54.44-.52.95.28.93.59.92S754.46,103.58,754.44,103.06Z"/><path class="cls-50" d="M768,112.28c4.09-3.88,10-8.57,7-11.1-2.64-2.28-7.88,10.44-7.88,10.44Z"/><path class="cls-54" d="M775,101.18c-.5-.43-1.09-.33-1.73.12a1.1,1.1,0,0,1,.57.24c2.82,2.29-2.55,6.67-6.39,10.34l.51.4C772.08,108.4,778,103.71,775,101.18Z"/><path class="cls-53" d="M764.66,150.32c-.17-.64-.68-2.78-.14-3.24a2.62,2.62,0,0,0,.18-2.27c-.37-.48-.38-19.4-.36-27.51h.42c0,10.51-.25,25.75,0,26.65.4.56.61,3,0,3.45-.2.17-.07,1.46.28,2.81Z"/><path class="cls-55" d="M759.9,150.6h4.88s-.44-2.46-1.9-2.26C762.38,148.41,759.88,149.72,759.9,150.6Z"/><path class="cls-55" d="M769.05,150.6h-4.37s.44-2.46,1.75-2.26C766.87,148.41,769.08,149.72,769.05,150.6Z"/><polygon class="cls-53" points="764.55 117.85 762.84 116.85 763.05 116.49 764.56 117.37 766.38 116.43 766.58 116.81 764.55 117.85"/><rect class="cls-47" x="764.59" y="91.08" width="0.42" height="18.89"/><path class="cls-54" d="M776.17,102.79c0-.42-.22-.77-.5-.77s-.49.35-.49.77.22.78.49.78S776.17,103.22,776.17,102.79Z"/><path class="cls-49" d="M772.48,93.39a6,6,0,0,1,3.2-.63s.35,1.72.45,2.14c0,0-3.4.57-3.65,1.48Z"/><path class="cls-49" d="M752.75,94.55c1-.1,2.81,0,3.76,1.06l-.1-3.13a3.69,3.69,0,0,0-3.23-.67Z"/><path class="cls-56" d="M772.42,86.19a3.72,3.72,0,0,0-.88-.58.17.17,0,0,0-.14,0,8.26,8.26,0,0,0-2.16-.77,1.68,1.68,0,0,0,0-.18,1.26,1.26,0,0,0-.5-.89.08.08,0,0,0,0,0,3.33,3.33,0,0,0-1.86-.46V82.06H763v1.29a7.62,7.62,0,0,0-1.75.34c-.23,0-.51.38-.65.85a1.12,1.12,0,0,0-.06.23,17.68,17.68,0,0,0-3.13.77,4,4,0,0,0-.49.16C759.71,87.88,768.47,88.16,772.42,86.19Z"/><path class="cls-57" d="M760.79,79.23c-1.63-.16-2-3-.73-3.19C760.69,76,761.36,79.28,760.79,79.23Z"/><path class="cls-57" d="M769.42,75.73c2.1-.1.79,3.44-.24,3.23C768.5,78.83,768.82,75.75,769.42,75.73Z"/><path class="cls-58" d="M769.92,75.22a5.16,5.16,0,0,0-5-5.39,5.3,5.3,0,0,0-5.1,5.39c0,3,2.18,7,5,7S769.89,78.2,769.92,75.22Z"/><path class="cls-50" d="M764,83.35a5.2,5.2,0,0,0,1.81,0c.41-.12,4-1.43,3.18-6.29-1.63-9.49-7.61-7.15-8.54,0C760.32,78.13,761.56,82.51,764,83.35Z"/><path class="cls-59" d="M760.46,77.39c-.14,1.42,1.3,5.19,3.55,6a5.2,5.2,0,0,0,1.81,0c.36-.1,3.28-.67,3.39-5.49a5.27,5.27,0,0,1-8.75-.47Z"/><path class="cls-58" d="M759.87,76.13a11,11,0,0,0,.75,2.56l.44-.27s-.17-4.08.92-6C762,72.41,759.87,75.39,759.87,76.13Z"/><path class="cls-58" d="M769.9,76.07a13.19,13.19,0,0,1-.74,2.58l-.41-.25s.19-4.06-.87-6C767.88,72.41,770,74.46,769.9,76.07Z"/><path class="cls-50" d="M768.69,72.88c0-1.75-1.7-3.16-3.81-3.16s-3.81,1.41-3.81,3.16,1.71,3.17,3.81,3.17S768.69,74.63,768.69,72.88Z"/><path class="cls-58" d="M763,82.41c-.42-.35-1.18-2.57.32-3.2a4.2,4.2,0,0,1,3.51.18c1,.63.11,3-.12,3.14s-.55.17-.62-.12.11-1.71-.12-1.85-2.13-.12-2.32.21.09,1.38,0,1.53S763.41,82.72,763,82.41Z"/><path class="cls-60" d="M765.67,81.17c0-.18-.33-.32-.74-.33s-.74.15-.74.32.33.33.74.33S765.67,81.35,765.67,81.17Z"/><path class="cls-50" d="M765.85,80.88c0-.14-.38-.46-.88-.46s-.94.33-.94.46.42.06.93.05S765.85,81,765.85,80.88Z"/><path class="cls-61" d="M769.89,78.78c0-.24-.14-.42-.22-.4s-.13.21-.09.45.14.42.23.41S769.93,79,769.89,78.78Z"/><path class="cls-61" d="M770.26,78.3c-.06-.17-.18-.27-.26-.24s-.1.19,0,.36.18.27.26.24S770.33,78.47,770.26,78.3Z"/><path class="cls-50" d="M765.32,78.39l-.19-2h-.37l-.19,2c-.31.08-.52.27-.52.48s.4.54.89.54.9-.24.9-.54S765.63,78.47,765.32,78.39Z"/><g class="cls-62"><path class="cls-63" d="M765.32,78.39l-.19-2h-.37l-.19,2c-.31.08-.52.27-.52.48s.4.54.89.54.9-.24.9-.54S765.63,78.47,765.32,78.39Z"/></g><path class="cls-64" d="M762.51,77.74c-.24-.25-.31-.55-.12-.7s1.26-.2,1.4,0,0,.56-.24.7A1.26,1.26,0,0,1,762.51,77.74Z"/><path class="cls-64" d="M766.34,77.74c-.25-.25-.32-.55-.12-.7s1.26-.2,1.4,0,0,.56-.24.7A1.25,1.25,0,0,1,766.34,77.74Z"/><path class="cls-57" d="M764.25,76.92a1.15,1.15,0,0,0-1.14-.76c-.64,0-1.19.5-1.19.76s.53.24,1.17.24S764.25,77.19,764.25,76.92Z"/><path class="cls-57" d="M768.1,76.92c0-.26-.5-.76-1.15-.76s-1.19.5-1.19.76.53.24,1.18.24S768.1,77.19,768.1,76.92Z"/><path class="cls-58" d="M766.87,75.62c1.11-.05,2.16-.87,0-.87-1,0-1.21-.12-1.29.27S766.18,75.64,766.87,75.62Z"/><path class="cls-58" d="M762.86,75.74c-1.1,0-2.18-.75-.06-.86.94,0,1.18-.19,1.29.19S763.54,75.73,762.86,75.74Z"/><path class="cls-57" d="M767.48,73.38a24.5,24.5,0,0,0-2.61.06,24,24,0,0,0-2.58-.06,16.14,16.14,0,0,0,5.19,0Z"/><path class="cls-57" d="M766.88,73c0-.07-.93,0-2.07,0s-2-.1-2,0a17.74,17.74,0,0,0,4.12,0Z"/><path class="cls-57" d="M767.84,78c0-.16-.43-.28-1-.28s-1,.12-1,.28.41,0,.94,0S767.84,78.11,767.84,78Z"/><path class="cls-57" d="M763.91,78c0-.16-.42-.28-.95-.28s-1,.12-1,.28.41,0,.94,0S763.91,78.11,763.91,78Z"/><path class="cls-54" d="M761.92,112.38c0-.82-.4-1.48-.91-1.48s-.93.67-.93,1.49.4,1.48.91,1.47S761.91,113.19,761.92,112.38Z"/><path class="cls-50" d="M762.18,112.16c-.23-.84-.9-1.63-1.35-1.6s-.56.89-.51,1.77.44,1.55.9,1.53A1.51,1.51,0,0,0,762.18,112.16Z"/><path class="cls-50" d="M762.37,113.5c0-.77-.14-1.41-.38-1.42s-.12.69-.15,1.46-.2,1.32,0,1.33S762.34,114.27,762.37,113.5Z"/><path class="cls-50" d="M761.63,114c.11-.76,0-1.41-.23-1.44s-.19.66-.3,1.43-.34,1.29-.1,1.33S761.52,114.76,761.63,114Z"/><path class="cls-50" d="M760.82,114c.21-.74.2-1.39,0-1.46s-.28.63-.5,1.37-.52,1.24-.29,1.31S760.6,114.69,760.82,114Z"/><path class="cls-54" d="M767.19,112.31c0-.82.39-1.48.89-1.48s.91.67.92,1.49-.4,1.48-.9,1.47S767.19,113.13,767.19,112.31Z"/><path class="cls-50" d="M766.93,112.09c.23-.84.88-1.62,1.33-1.6s.54.89.5,1.77-.44,1.56-.89,1.53A1.51,1.51,0,0,1,766.93,112.09Z"/><path class="cls-50" d="M766.74,113.43c0-.77.14-1.41.38-1.42s.11.69.14,1.46.2,1.32,0,1.33S766.77,114.2,766.74,113.43Z"/><path class="cls-50" d="M767.47,113.93c-.11-.76,0-1.41.23-1.44s.18.66.29,1.43.33,1.29.1,1.33S767.57,114.69,767.47,113.93Z"/><path class="cls-50" d="M768.27,113.88c-.21-.74-.2-1.39,0-1.46s.27.63.48,1.37.52,1.24.29,1.31S768.48,114.62,768.27,113.88Z"/><rect class="cls-65" x="759.25" y="110.83" width="2.85" height="0.51" transform="translate(54.16 414.06) rotate(-31.52)"/><rect class="cls-65" x="767.95" y="109.39" width="0.51" height="2.85" transform="translate(261.92 699.12) rotate(-57.49)"/><path class="cls-66" d="M766.06,111.71a.57.57,0,0,0,.4-.68.56.56,0,0,0-.74-.24.58.58,0,0,0-.4.68A.55.55,0,0,0,766.06,111.71Zm-.29-.75c.24-.09.49,0,.55.12s-.08.37-.32.46-.49,0-.55-.12S765.53,111.06,765.77,111Z"/><path class="cls-66" d="M764.69,112.54a.54.54,0,0,0,.43-.64.57.57,0,0,0-.74-.29.54.54,0,0,0-.43.64A.57.57,0,0,0,764.69,112.54Zm-.26-.76c.25-.07.49,0,.55.16s-.1.35-.35.43-.49,0-.55-.16S764.18,111.85,764.43,111.78Z"/><polygon class="cls-66" points="766.02 111.01 766.29 111.15 766.73 110.11 766.46 109.98 766.02 111.01"/><polygon class="cls-66" points="764.68 111.87 764.86 112.13 765.83 111.47 765.65 111.22 764.68 111.87"/><path class="cls-66" d="M762.72,111.85a.54.54,0,0,0,.77,0,.58.58,0,0,0-.19-.77.54.54,0,0,0-.77,0A.58.58,0,0,0,762.72,111.85Zm.47-.65c.2.16.28.4.18.54s-.34.12-.55,0-.28-.41-.18-.54S763,111,763.19,111.2Z"/><polygon class="cls-66" points="763.26 111.45 763.16 111.75 764.25 112.17 764.35 111.87 763.26 111.45"/><polygon class="cls-66" points="762.31 110.11 762.04 110.27 762.6 111.3 762.87 111.14 762.31 110.11"/><rect class="cls-45" x="758.65" y="93.74" width="4.5" height="1.13"/><rect class="cls-49" x="758.94" y="93.92" width="3.92" height="0.76"/><path class="cls-45" d="M772.21,100.69c.29-.84,1.24-1.29,1.21-1.79s-1.16.18-1.16.18Z"/><path class="cls-45" d="M757.49,101c-.47-.84-2-1.29-2-1.79s1.92.18,1.92.18Z"/><path class="cls-67" d="M773.92,95.45a16.23,16.23,0,0,1,2.21-.55c-.1-.42-.45-2.14-.45-2.14a4.92,4.92,0,0,0-2.13.21A8.74,8.74,0,0,1,773.92,95.45Z"/><path class="cls-67" d="M755.07,91.8a3,3,0,0,0-1.89,0l-.43,2.74a6.42,6.42,0,0,1,2,.11A13.5,13.5,0,0,1,755.07,91.8Z"/><polygon class="cls-68" points="769.32 150.03 765.26 150.03 764.68 150.48 763.94 150.03 759.63 150.03 759.63 150.66 769.32 150.66 769.32 150.03"/><rect class="cls-69" x="688.56" y="150.58" width="129.4" height="3.09"/><rect class="cls-69" x="698.34" y="114.39" width="115.78" height="1.67"/><rect class="cls-69" x="748.28" y="106.5" width="17.16" height="1.67"/><rect class="cls-69" x="698.34" y="82.13" width="117.04" height="1.67"/><rect class="cls-69" x="714.76" y="56.19" width="2.06" height="96.45"/><rect class="cls-69" x="731.19" y="56.19" width="2.06" height="96.45"/><rect class="cls-69" x="747.62" y="56.19" width="2.06" height="96.45"/><rect class="cls-69" x="764.04" y="56.19" width="2.06" height="96.45"/><rect class="cls-69" x="780.47" y="56.19" width="2.06" height="95.99"/><rect class="cls-69" x="796.89" y="56.19" width="2.06" height="96.45"/><path class="cls-69" d="M815.38,58.31a2.12,2.12,0,0,0-2.12-2.12H700.46a2.12,2.12,0,0,0-2.12,2.12v94.33h2.06V58.25H813.32v94.39h2.06Z"/><rect class="cls-69" x="748.45" y="107.34" width="8.92" height="8.24"/><path class="cls-70" d="M813.26,56.19H802.51c-2.53.56-5.18,1.24-7.94,2.06h2.32V82.13H782.53V62.42l-2.06.81v18.9H766.1V69.67l-2.06,1V82.13H749.68V78.48c-.69.4-1.38.8-2.06,1.21v2.44h-4l-2.7,1.67h6.75v30.59H733.25V88.75l-2.06,1.39v24.25H716.82V100.57l-2.06,1.6v12.22H700.4v0l-2.06,1.91v34.32h-9.78v1.69H685.3v1.54h56.89c1-.5,1.92-1,2.88-1.54l2.55-1.41,2.06-1.16V116.07H764V141c.69-.45,1.38-.89,2.06-1.35V116.07h14.37v13.5l2.06-1.55v-12h14.36v.28c.7-.61,1.39-1.21,2.06-1.82a1.07,1.07,0,0,0,.16-.14H799V83.8h14.37v16.61c.7-.77,1.39-1.54,2.06-2.3V58.31A2.12,2.12,0,0,0,813.26,56.19Zm-96.44,59.88h14.37v34.51H716.82Zm-16.42,0h14.36v34.51H700.4Zm47.22,34.51H733.25V116.07h14.37ZM764,114.39h-6.67v-6.22H764Zm0-7.89H749.68V83.8H764Zm16.43,7.89H766.1V83.8h14.37Zm16.42,0H782.53V83.8h14.36Zm16.43-32.26H799V58.25h14.37Z"/><rect class="cls-71" x="685.3" y="152.27" width="135.92" height="1.54"/><path class="cls-72" d="M805.64,116v0h1.28l-.27-1.68h-1.29l.1.62-5.06.82a.5.5,0,0,0-.37.24h5.46Z"/><path class="cls-72" d="M813.32,82.13H811l0,0a15.34,15.34,0,0,0-2,.62,1.93,1.93,0,0,0-1.27,0h0l-.12,0-.4.11-.25.06v0l-.11,0-.3.12h0l-.22.11a4.66,4.66,0,0,0-.5.26l-.06,0h0a3.43,3.43,0,0,0-.43.32h8v30.59h-5.59c-.05.6-.1,1.15-.14,1.68h5.73v34.51h-.08c0,.32,0,.64.07.95a10.31,10.31,0,0,0-3,1.33h-.15l-.89.67h12v-.67h-.33a8.38,8.38,0,0,0-1-.59H818v-1.69h-2.57V98.11h0V64.4c-.64.35-1.32.78-2.06,1.22Z"/><path class="cls-73" d="M799.78,82.91c-.12-.36-1.13-.33-2.25.06s-1.92,1-1.79,1.36,1.13.34,2.25-.06S799.91,83.27,799.78,82.91Z"/><path class="cls-74" d="M799.88,83.19c-.13-.36-1.06-.36-2.09,0s-1.76,1-1.63,1.31,1.06.36,2.09,0S800,83.55,799.88,83.19Z"/><path class="cls-75" d="M815.73,113.09c.31-2.14-.14-3-1-3.17s-1.84,1.51-2.14,3.65.16,4,1,4.1S815.43,115.23,815.73,113.09Z"/><polygon class="cls-76" points="796.74 113.85 799.88 109.74 799.49 109.32 796.66 113.43 796.74 113.85"/><path class="cls-77" d="M795.1,108.25c-.1-.9.92-1,1.25-.21l3.4,20.85a.65.65,0,0,1-1.25.21Z"/><rect class="cls-77" x="795.61" y="113.16" width="2" height="0.81" transform="translate(-7.89 129.81) rotate(-9.27)"/><path class="cls-77" d="M791.14,115.83l5.25-.85.17,1-5.25.86A.53.53,0,1,1,791.14,115.83Z"/><polygon class="cls-50" points="808.83 78.33 803.01 78.33 802.9 81.74 808.72 81.74 808.83 78.33"/><g class="cls-78"><polygon class="cls-79" points="808.83 78.33 803.01 78.33 802.9 81.74 808.72 81.74 808.83 78.33"/></g><path class="cls-76" d="M804.1,153.33c0-7.1-3.25-18.13-4.3-22.69-1.84-8-2.39-7.63-.59-23.3l14.64-.4s2.12,15.8-1,25.41c-1,3.08-4.39,17.84-3.8,20.78Z"/><path class="cls-80" d="M804.47,153.33c0-7.1-2.72-18.13-3.59-22.69-1.54-8-2.41-8-.91-23.72l13.15-.17s2.41,12.56-1,23.89c-.92,3.06-4,19.55-3.51,22.49Z"/><path class="cls-81" d="M799.21,109.07c-.72-.21-6-21.9-2-24.95,4.63-3.55,15.26-3.05,18.39,0s-.77,22.45-1.5,24.21S800.31,109.4,799.21,109.07Z"/><path class="cls-81" d="M809.17,80.89a10.27,10.27,0,0,1-6.49,0l-1.11,2.88h9Z"/><path class="cls-82" d="M813.59,109.85a47.7,47.7,0,0,1-14.21.06v.7a43.25,43.25,0,0,0,14.22-.06Z"/><rect class="cls-80" x="804.67" y="110.08" width="2.74" height="1.45"/><rect class="cls-83" x="805.17" y="110.28" width="1.75" height="1.04"/><rect class="cls-80" x="809.18" y="110.18" width="0.56" height="1.31"/><rect class="cls-80" x="811.4" y="110.02" width="0.56" height="1.31"/><rect class="cls-80" x="800.73" y="109.93" width="0.56" height="1.31"/><rect class="cls-80" x="802.82" y="110.13" width="0.56" height="1.31"/><path class="cls-84" d="M806.5,113.63a31.34,31.34,0,0,0,7.86-1.14c-.2-3.31-.51-5.55-.51-5.55l-.69,0a1.76,1.76,0,0,0,0-.21l-13.15.17c0,.14,0,.26,0,.4l-.72,0c-.25,2.14-.45,4-.61,5.58A31.45,31.45,0,0,0,806.5,113.63Z"/><path class="cls-73" d="M807,93.14c-4.74,0-9.77-2-12.09-4.92.31,8.63,3.53,20.76,4,20.93,1.09.37,14.54,1.38,15.27-.67a107.23,107.23,0,0,0,3-18.72A16.39,16.39,0,0,1,807,93.14Z"/><polygon class="cls-85" points="807.19 83.58 805.98 81.84 804.78 83.58 805.98 84.56 807.19 83.58"/><polygon class="cls-85" points="805.73 83.97 803.33 99.42 805.85 103.39 809.26 98.74 806.18 83.97 805.73 83.97"/><path class="cls-81" d="M793.74,101.49c-2.87-2.19-5.56-17,4.33-17.67.79,0-.16,10.63-.16,10.63S797.66,104.48,793.74,101.49Z"/><path class="cls-73" d="M794.15,97.57a9.85,9.85,0,0,1-2.93-6.6c-.56,4.36.95,9.33,2.52,10.52,3.92,3,4.38-7,4.38-7s0-2.8.17-5.5C797.64,94.37,796.59,99.47,794.15,97.57Z"/><path class="cls-81" d="M816.15,100.21c5.26-2.13,7.59-16.31-2.88-17-.83-.06,1.27,9.66,1.27,9.66S811.23,102.21,816.15,100.21Z"/><path class="cls-73" d="M818.82,85.81c2.54,4,1.57,8.16-1.11,9.52-.86.44-2.91-3.07-4.15-7.5.42,2.49.83,5.11.83,5.11s-3.16,9.27,1.76,7.27C820.12,98.6,822.41,90.16,818.82,85.81Z"/><path class="cls-86" d="M819.31,98.65a3.43,3.43,0,0,0-1.5-4.88,4.15,4.15,0,0,0-5.44,1c-1.09,1.62-.41,3.8,1.51,4.89A4.15,4.15,0,0,0,819.31,98.65Z"/><path class="cls-86" d="M799.94,97a3.15,3.15,0,0,0-4.77-1.6A5,5,0,0,0,792.8,101a3.15,3.15,0,0,0,4.77,1.61A5,5,0,0,0,799.94,97Z"/><path class="cls-54" d="M799.81,94.8c.07-.5,0-.93-.24-1s-.41.37-.48.87,0,.94.25,1S799.75,95.31,799.81,94.8Z"/><path class="cls-50" d="M802,93.25c-.23-.33-1-.34-1.74,0s-1.13.85-.9,1.18,1,.35,1.74,0S802.22,93.58,802,93.25Z"/><path class="cls-54" d="M801.15,93.56c-.67.11-1.36.52-1.81.41a.43.43,0,0,0,0,.44,1.28,1.28,0,0,0,1.59.17C802,94.11,801.58,93.49,801.15,93.56Z"/><path class="cls-50" d="M810.88,92.31l.9.33c-4.37,3.92-11.24,11.47-16.47,9.87-3-.9-1.92-5.19,0-6.36C799.21,93.72,808.53,93.48,810.88,92.31Z"/><path class="cls-54" d="M794.18,97.34c-1,1.74-1.16,4.48,1.13,5.17,5.23,1.6,12.1-6,16.47-9.87l-.78-.29c-2.73,1.82-7,.87-9,1.82C798,96.12,797.15,98.7,794.18,97.34Z"/><polygon class="cls-87" points="801.37 94.16 805.4 98.49 806.83 97.34 801.93 93.79 801.37 94.16"/><path class="cls-50" d="M813.53,92.54c0-.33-1-.49-1.7-.54s-1.29.19-1.31.52.53.64,1.23.68S813.51,92.87,813.53,92.54Z"/><path class="cls-54" d="M813.06,92.69c0-.33-.47-.37-1.17-.42s-1.81.51-1.83.84,1,0,1.69.09S813,93,813.06,92.69Z"/><path class="cls-50" d="M801.15,93.82l.36-.75c6-.32,14-1.27,17,2.73,1.69,2.26-1.23,5.43-3.24,5.57C811.12,101.67,802.11,94.48,801.15,93.82Z"/><path class="cls-54" d="M818.84,96.36c-.2,1.08-1.88,2.18-3,2.27-2.84.25-11.86-3.9-14.58-5.1l-.14.29c1,.66,9.86,8.08,14,7.78C817,101.47,819.73,98.58,818.84,96.36Z"/><path class="cls-50" d="M816.72,98.93a.84.84,0,1,0-1,.87A.93.93,0,0,0,816.72,98.93Z"/><path class="cls-54" d="M815.62,99.76a.92.92,0,0,1-.44-1.22,1,1,0,0,1,.43-.55,1,1,0,0,0-.82.69.91.91,0,0,0,.45,1.21.73.73,0,0,0,.67-.1A.74.74,0,0,1,815.62,99.76Z"/><polygon class="cls-86" points="801.4 81.93 804.06 83.8 805.68 81.4 802.63 80.84 801.4 81.93"/><polygon class="cls-86" points="810.24 81.73 807.78 83.78 806.18 81.4 809.19 80.81 810.24 81.73"/><path class="cls-73" d="M812.62,109.34c1-.15,2.14-.67,2.22-1s-.28-.54-.25-.75.45.06.49-.26-.19-.86-.13-1.08.24-.09.33-.45a9.26,9.26,0,0,0-.35-2.07Z"/><path class="cls-73" d="M799.54,109.24c-1.14-.11-1.34,0-1.38-.54s.28-.5.15-.84-.64-.2-.76-.54.39-1.36.09-3.13C797.61,104,799.54,109.24,799.54,109.24Z"/><path class="cls-88" d="M814.47,108.2c0-.26-1.35,0-3.27.18s-3.7.1-3.69.35,1.8.73,3.72.58S814.48,108.46,814.47,108.2Z"/><path class="cls-88" d="M804.77,107.5c0-.33-2.06-1.34-4-1.47s-2.94.67-3,1,.91.07,2.83.2S804.73,107.84,804.77,107.5Z"/><path class="cls-88" d="M804.61,106.26c.11-.26-.47-1.12-1.42-1.41a2,2,0,0,0-2,.36c-.1.26.68.3,1.62.59S804.51,106.52,804.61,106.26Z"/><path class="cls-54" d="M813.57,92.8a.78.78,0,0,0-1-.28c-.11.14.27.29.64.76s.5,1,.67,1C814.3,94.13,813.93,93.27,813.57,92.8Z"/><path class="cls-50" d="M813.71,92.6a.76.76,0,0,0-1-.27c-.11.13.27.28.64.75s.56,1.09.67,1A1.86,1.86,0,0,0,813.71,92.6Z"/><path class="cls-54" d="M812.91,92.77a.78.78,0,0,0-.94-.48c-.13.11.21.34.47.87s.29,1.09.46,1.08C813.38,94.21,813.17,93.31,812.91,92.77Z"/><path class="cls-50" d="M813.09,92.61a.76.76,0,0,0-.94-.48c-.13.11.21.34.47.87s.33,1.18.46,1.07A1.8,1.8,0,0,0,813.09,92.61Z"/><path class="cls-54" d="M812.3,92.88a.73.73,0,0,0-.92-.47c-.14.11.19.33.42.87s.22,1,.4,1.06C812.63,94.37,812.53,93.41,812.3,92.88Z"/><path class="cls-50" d="M812.51,92.61a.67.67,0,0,0-.94-.36c-.14.1.19.33.42.86s.26,1.18.4,1.07A2.12,2.12,0,0,0,812.51,92.61Z"/><polygon class="cls-89" points="818.4 89.47 818.35 90.35 820.23 91.81 820.62 91.33 820.6 90.54 820.19 90.82 818.4 89.47"/><polygon class="cls-89" points="818.44 88.11 818.39 88.99 820.27 90.44 820.53 90.09 820.43 89.34 820.23 89.45 818.44 88.11"/><path class="cls-89" d="M791.07,93.84a3.47,3.47,0,0,0,1.09-2.39c.09-1.41-.41-1.6-.3-1.94s.93-1,.93-1l-.93-.34A12.36,12.36,0,0,0,791.07,93.84Z"/><rect class="cls-76" x="806.41" y="118.65" width="0.45" height="34.65"/><rect class="cls-76" x="806.52" y="118.46" width="1.88" height="0.39" transform="translate(-4.8 198.06) rotate(-13.94)"/><polygon class="cls-76" points="804.83 118.48 804.96 118.11 806.74 118.71 806.62 119.08 804.83 118.48"/><path class="cls-90" d="M800.06,153.49h6.67s-.77-2.14-1.78-2.09C802.6,151.51,800.06,153.49,800.06,153.49Z"/><path class="cls-90" d="M812.49,153.49h-6s.16-2,1.06-2C810,151.4,812.49,153.49,812.49,153.49Z"/><polygon class="cls-91" points="811.96 152.85 800.85 152.85 799.95 153.53 812.56 153.53 811.96 152.85"/><path class="cls-56" d="M813.05,82.66a16.44,16.44,0,0,0-3-.76l.21-.17-1-.92-.44.09.08-2.58H803l-.08,2.57-.3,0-1.23,1.09.33.23a14.9,14.9,0,0,0-2.76.92C801.93,86.08,810.06,86.71,813.05,82.66Z"/><path class="cls-50" d="M812.17,73.58c0-1-.52-1.87-1.24-1.87s-1.33.84-1.36,1.87.53,1.87,1.25,1.87S812.14,74.61,812.17,73.58Z"/><path class="cls-92" d="M811.12,73.8c0-.71.26-1.28.55-1.28a.31.31,0,0,1,.26.17c-.09-.24-.22-.4-.37-.4s-.55.58-.56,1.29a1.94,1.94,0,0,0,.25,1.11A2.32,2.32,0,0,1,811.12,73.8Z"/><path class="cls-92" d="M811.29,73.14c.19-.08.4.14.46.49a1.3,1.3,0,0,1,0,.34,1.06,1.06,0,0,0,0-.51c-.06-.35-.27-.57-.47-.49a.54.54,0,0,0-.25.45A.43.43,0,0,1,811.29,73.14Z"/><path class="cls-50" d="M802.43,73.7c0-1-.54-1.87-1.26-1.87s-1.31.84-1.34,1.87.54,1.87,1.26,1.87S802.41,74.73,802.43,73.7Z"/><path class="cls-92" d="M801,74c0-.71-.25-1.28-.53-1.28a.31.31,0,0,0-.25.17c.09-.24.21-.4.36-.4s.52.58.54,1.29a2,2,0,0,1-.24,1.11A2.55,2.55,0,0,0,801,74Z"/><path class="cls-92" d="M800.84,73.35c-.19-.08-.39.14-.45.49a1.3,1.3,0,0,0,0,.34,1.17,1.17,0,0,1,0-.5c.06-.36.26-.58.45-.5a.54.54,0,0,1,.25.45A.46.46,0,0,0,800.84,73.35Z"/><path class="cls-93" d="M801.59,73.87c-.16-3.13-2-5.93.73-7.29s4.59-3.2,6.61-2.88,3.1,7.68,1.41,11.45S801.59,73.87,801.59,73.87Z"/><path class="cls-94" d="M805.78,70.29a14.88,14.88,0,0,1-4.92-.79c.13,1.27.65,2.78.73,4.37,0,0,7,5,8.75,1.28a13.1,13.1,0,0,0,.8-5.82A14.26,14.26,0,0,1,805.78,70.29Z"/><path class="cls-50" d="M801.46,78.11c.3.42,2.7,2.16,4.51,2.08s4.63-1.76,4.74-2.4a20.1,20.1,0,0,0-.1-6.23A25.28,25.28,0,0,0,809.13,67c-.41-1.11-5-1.12-5.47,0a29.2,29.2,0,0,0-2.14,5.19C800.83,74.84,801.16,77.69,801.46,78.11Z"/><path class="cls-95" d="M806.22,75.47c-2.1,0-3.92-.58-4.91-2.32a10.57,10.57,0,0,0,.15,5c.3.42,2.7,2.16,4.51,2.08s4.63-1.76,4.74-2.4a21.56,21.56,0,0,0,.16-4.2C809.83,75.08,808.14,75.47,806.22,75.47Z"/><path class="cls-96" d="M806,79.77c-1.73.08-4-1.34-4.62-1.92a1,1,0,0,0,.11.26c.3.42,2.7,2.16,4.51,2.08s4.63-1.76,4.74-2.4v0A9.27,9.27,0,0,1,806,79.77Z"/><polygon class="cls-94" points="802.13 70.04 801.15 70.01 801.2 73.87 801.78 73.87 802.13 70.04"/><polygon class="cls-94" points="810.16 69.76 811.11 70.01 810.88 73.98 810.5 74.04 810.16 69.76"/><path class="cls-97" d="M803.63,76.35a17.65,17.65,0,0,0,5,0,6.67,6.67,0,0,1-1.07,2.09,11.13,11.13,0,0,1-3.05,0C804.27,78.32,803.3,76.23,803.63,76.35Z"/><path class="cls-98" d="M803.76,76.38a25.32,25.32,0,0,0,4.77,0,6,6,0,0,1-1,1.92,10,10,0,0,1-2.89,0C804.37,78.19,803.45,76.27,803.76,76.38Z"/><path class="cls-97" d="M808.78,76.38c.06-.06.07-.14,0-.17s-.14,0-.2.06-.07.14,0,.17A.2.2,0,0,0,808.78,76.38Z"/><path class="cls-97" d="M803.69,76.27a.19.19,0,0,0-.22,0c-.05,0,0,.11,0,.17a.19.19,0,0,0,.22,0S803.75,76.33,803.69,76.27Z"/><path class="cls-50" d="M804.74,74.92a.44.44,0,0,0,0,.37c.28.58,2.9.71,2.63-.42-.18-.74-1.4,0-.92-4.13h-.64C805.83,75.45,805.11,74,804.74,74.92Z"/><g class="cls-99"><path class="cls-100" d="M804.74,74.92a.44.44,0,0,0,0,.37c.28.58,2.9.71,2.63-.42-.18-.74-1.4,0-.92-4.13h-.64C805.83,75.45,805.11,74,804.74,74.92Z"/></g><path class="cls-101" d="M801.67,70.6h4.11s-.69,3.63-3.15,2.74C801.34,72.87,801.67,70.6,801.67,70.6Z"/><path class="cls-101" d="M810.53,70.6h-4.11s.69,3.63,3.15,2.74C810.86,72.87,810.53,70.6,810.53,70.6Z"/><path class="cls-102" d="M807.68,70.88v0h-.89s.57,3,2.58,2.24h0A2.37,2.37,0,0,1,807.68,70.88Z"/><path class="cls-93" d="M807,69.93c-.1-.2.13-1.05.33-1.09s2.11.62,2.09.84,0,.64-.28.69A5.35,5.35,0,0,1,807,69.93Z"/><path class="cls-93" d="M805.08,69.89c.09-.2-.13-1-.34-1.08s-2.11.61-2.09.84,0,.63.28.69A5.58,5.58,0,0,0,805.08,69.89Z"/><rect class="cls-101" x="805.48" y="70.6" width="1.24" height="0.36"/><polygon class="cls-101" points="801.71 70.58 801.03 71.7 801.16 71.85 801.71 71.21 801.71 70.58"/><polygon class="cls-101" points="810.49 70.58 811.24 71.7 811.09 71.85 810.49 71.21 810.49 70.58"/><path class="cls-103" d="M810.34,70.81h-2a2,2,0,0,1,.88.93A2,2,0,0,1,809.4,73l.2-.06C810.6,72.57,810.34,70.81,810.34,70.81Z"/><path class="cls-103" d="M802.83,70.8a2.45,2.45,0,0,1,1.31,2.11,3.67,3.67,0,0,0,1.2-2.11Z"/><path class="cls-102" d="M802.3,71h-.39c-.29,2,1.06,2.6,2,2A2.45,2.45,0,0,1,802.3,71Z"/><path class="cls-93" d="M810.8,65.54a1.05,1.05,0,0,0-1.85-.62l-1.21-1.1C809.93,63.14,810.76,63.82,810.8,65.54Z"/><polygon class="cls-89" points="796.43 83.48 796.57 83.83 797.41 83.42 797.22 83.08 796.43 83.48"/><polygon class="cls-89" points="797.63 82.92 797.77 83.31 798.53 83.08 798.4 82.73 797.63 82.92"/><path class="cls-104" d="M814.63,90.28c.78-.2,1.61.82,1.84,2.29s-.26,4.34-.53,3.49c-.52-1.65-2.46-1.84-2.7-3.32A2,2,0,0,1,814.63,90.28Z"/><path class="cls-54" d="M814.88,91.51a4.47,4.47,0,0,1,1.36,2.64c.15.9,0,2.46-.17,2-.36-1.07-2.35-1.58-2.84-3.25C812.62,90.88,814,90.91,814.88,91.51Z"/><path class="cls-105" d="M825.33,106.35c-2.67-4.65,3.52-16.55,5.46-18.7C834.16,83.91,832.15,118.23,825.33,106.35Z"/><polygon class="cls-106" points="818.67 95.14 816.62 93.75 814.82 96.93 816.5 98.99 818.67 95.14"/><path class="cls-107" d="M817.59,96.78a1,1,0,0,0,.07.15l1-1.8-2-1.38-.84,1.48A3.35,3.35,0,0,1,817.59,96.78Z"/><path class="cls-105" d="M815,100.4l3.15-6.06,8.8,6.83c1.86,1.44,4.24,5.76,1.68,7.35S817.94,104.37,815,100.4Z"/><path class="cls-108" d="M830.21,93.31c-3.46,10.68-6.34,13.34-13.92,4.9L815,100.4c3,4,11.07,9.71,13.63,8.12C830.11,107.59,831,95,830.21,93.31Z"/><path class="cls-109" d="M830.21,93.31c-.17.53-.34,1-.51,1.52,0,4.25-.73,11.83-1.88,12.55-2.35,1.46-9.34-3.23-12.77-7.08l-.06.1c3,4,11.07,9.71,13.63,8.12C830.11,107.59,831,95,830.21,93.31Z"/><polygon class="cls-104" points="843.3 79.81 837.67 78.95 837.34 86.86 843.9 86.77 843.3 79.81"/><g class="cls-110"><polygon class="cls-111" points="843.3 79.81 837.67 78.95 837.34 86.86 843.9 86.77 843.3 79.81"/></g><polygon class="cls-106" points="835.39 86.67 837.17 83.19 843.93 83.09 844.53 87.36 835.39 86.67"/><path class="cls-104" d="M814.4,86.82c.37-.1.51,1,.79,2.35s1,2.85.51,2.94c-.38.06-1-1.07-1.3-2.45S814,86.92,814.4,86.82Z"/><path class="cls-109" d="M829.12,110.7c-1.37,21.15,11.16,32.18,9.27,42.43h6.68c1.15-14.94,5.19-24.48,6.68-40.49C852.34,106.25,829.12,110.7,829.12,110.7Z"/><path class="cls-109" d="M839.06,152.15c-.32.62-1.29.57-.91-.72s-.16-2.4-.5-2.44.42-2.82,0-4.72C837.69,144.27,839.82,150.67,839.06,152.15Z"/><path class="cls-109" d="M844.77,153.13c.34.68,1.32.65.89-.76s.07-2.59.42-2.62-.52-3.06-.2-5.11C845.88,144.64,844,151.51,844.77,153.13Z"/><path class="cls-112" d="M831,110.7c-1,21.08,9.58,32.08,8.07,42.3h5.6c.86-14.9,4.18-24.41,5.31-40.37C850.39,106.26,831,110.7,831,110.7Z"/><polygon class="cls-109" points="841.38 152.8 840.93 152.8 839.56 125.5 840.01 125.5 841.38 152.8"/><path class="cls-109" d="M839.39,125.72a8.85,8.85,0,0,1-3.76-1.1l.16-.4a8.4,8.4,0,0,0,8.34-.13l.19.41A8.28,8.28,0,0,1,839.39,125.72Z"/><path class="cls-106" d="M830.58,89.17c4.2-3.62,8-5.31,15.7-2.92,2.19,2.45,6.16,16.94,2.69,28.52-1.24,4.13-16.57,2.42-17.2,1.13C830,112.23,830.58,89.17,830.58,89.17Z"/><rect class="cls-113" x="837.58" y="117.93" width="1.14" height="2.07" transform="translate(688.54 952.19) rotate(-87.9)"/><path class="cls-114" d="M850.49,122.13c.45-2.58.71-4.37,1-7.29A37.56,37.56,0,0,0,841,113.48,35.08,35.08,0,0,0,829,115.3a36.78,36.78,0,0,0,.59,6.32C835.15,123.46,842.89,123,850.49,122.13Z"/><polygon class="cls-115" points="838.87 85.52 838.16 85.81 836.05 97.29 837.87 99.29 839.79 96.79 838.87 85.52"/><path class="cls-105" d="M838,113c.29,6,11.82,7.06,11.82,7.06,3.87-12.71,2.91-30.12,1.19-33.13-1-1.78-7.15-2.13-7.15-2.13l-6,9.76a17.11,17.11,0,0,1-1.79-9.32s-5.36.91-6,3.38c-3.05,12.46-2.49,25.57-.5,30.21C829.69,118.81,836.55,119.57,838,113Z"/><path class="cls-108" d="M837.8,95.42a151.24,151.24,0,0,0,0,19.24l.18-.24Z"/><polygon class="cls-116" points="837.8 95.84 845.37 84.89 843.96 84.58 837.92 94.3 837.8 95.84"/><path class="cls-116" d="M838,94.61a22.13,22.13,0,0,1-1.65-9.74l-1.46.63s.14,6.28,2.88,10.34Z"/><path class="cls-108" d="M851.05,86.91a2,2,0,0,0-.61-.61c.79,2.16-.27,4.12-1,6.61-8.38,29.56-21,23.62-20.69,2.59-2.62,9.34-1.39,20.45.23,24.23,0,0,8,.23,9-5.31.8,5.6,13.31,5.77,13.31,5.77C855.17,107.48,852.77,89.92,851.05,86.91Z"/><path class="cls-117" d="M851.05,86.91a2,2,0,0,0-.61-.61,5,5,0,0,1,.15,2.82,36.64,36.64,0,0,1-.74,16.12,37.29,37.29,0,0,1-6.63,13.69,32,32,0,0,0,8.07,1.26C855.17,107.48,852.77,89.92,851.05,86.91Z"/><polygon class="cls-118" points="841.5 108.95 843.71 110.43 849.08 102.17 846.91 101.02 841.5 108.95"/><path class="cls-119" d="M841.76,109.87s5.78-8.7,6.09-8.79c.51-.14,10.33,7,10.41,7.52s-5.6,9.07-5.6,9.07Z"/><path class="cls-120" d="M852.11,103.81a5.3,5.3,0,0,1,1,5.14c-1.12,2.92-5.08,4.14-8.86,2.72h0l8.38,6s5.68-8.66,5.6-9.07A52.74,52.74,0,0,0,852.11,103.81Z"/><polygon class="cls-121" points="846.15 109.44 848.32 110.89 851.37 107.31 849.08 105.52 846.15 109.44"/><path class="cls-122" d="M844.52,110.07a.56.56,0,1,0-.56.6A.58.58,0,0,0,844.52,110.07Z"/><path class="cls-122" d="M846.75,111.5a.56.56,0,1,0-.56.6A.58.58,0,0,0,846.75,111.5Z"/><path class="cls-122" d="M849.58,113.44a.56.56,0,1,0-.56.6A.58.58,0,0,0,849.58,113.44Z"/><path class="cls-122" d="M852,115a.56.56,0,1,0-1.12,0,.56.56,0,1,0,1.12,0Z"/><path class="cls-54" d="M847.66,110.74c-1.6.51-1.67.79-1.76,1.86-.06.68.23,1,.48,1.1s.54-.08.59-.76a7.13,7.13,0,0,0,0-.8,5.77,5.77,0,0,0,.84-.23c.69-.23.87-.64.83-.91S848.34,110.52,847.66,110.74Z"/><path class="cls-104" d="M846.93,114c-1.18-.81-1-2,.12-2.75s2.47-1.94,3.06-1.29.07,1.63-.84,3.37A1.46,1.46,0,0,1,846.93,114Z"/><path class="cls-123" d="M834.72,154.55h7.16S842.33,148.15,834.72,154.55Z"/><path class="cls-123" d="M840.61,154.55h5.5S843.19,147.59,840.61,154.55Z"/><path class="cls-115" d="M837.37,85.47l.9-2.28c.22-.15.76-.27,1,.08a7.16,7.16,0,0,1,.61,2.6l-1.39,1Z"/><path class="cls-105" d="M855.55,103.46c1.61.47,4.63-3.9,4.54-5.22s-8.46-13.15-11.44-12.55S850.58,102,855.55,103.46Z"/><path class="cls-108" d="M856.58,101.56c-2.23-.11-4.92-2.89-7-6.1,1,3.64,3.5,7.57,5.75,8.22,1.6.47,4.86-4.12,4.77-5.44a2.75,2.75,0,0,0-.32-.8C859.1,99.31,857.71,101.62,856.58,101.56Z"/><path class="cls-108" d="M852.64,100.32c.5-1.32,1.51-3.23,1.93-2.74s-1.51,3.81-1.51,3.81Z"/><path class="cls-108" d="M852.36,100.19c-.12-1.61-.05-3.87.38-3.65s.29,3.9.29,3.9Z"/><polygon class="cls-106" points="849.31 107.47 848.09 109.72 850.19 112.19 852.47 110.1 849.31 107.47"/><path class="cls-107" d="M850.3,109.59c-.41-.47-1.25-.24-1.94.48l1.58,1.79C850.54,111,850.71,110.06,850.3,109.59Z"/><path class="cls-105" d="M852.37,111.87c2.34-1.24,9.06-11.77,7.74-13.68-3.18-4.61-11,5.78-11.56,8.79C848.21,108.79,852.37,111.87,852.37,111.87Z"/><path class="cls-108" d="M860.11,98.19,860,98.1c-.89,3.61-6.71,11.35-9.06,12.62.75.68,1.39,1.15,1.39,1.15C854.71,110.63,861.43,100.1,860.11,98.19Z"/><path class="cls-104" d="M848.82,114.19c.5-.58.77-1.22.59-1.43s-.73.1-1.23.68-.77,1.22-.59,1.42S848.31,114.77,848.82,114.19Z"/><path class="cls-104" d="M847.56,114.15c.32-.44.42-1,.23-1.14s-.6,0-.92.46-.43,1-.24,1.14S847.24,114.59,847.56,114.15Z"/><path class="cls-104" d="M847,113.06a1.06,1.06,0,0,0,0-1.22c-.18-.21-.49-.22-.81.35s-.7,1.3-.34,1.71S846.65,113.63,847,113.06Z"/><path class="cls-124" d="M839.33,83.15s1.29,2.9,2.25,2.82a12.49,12.49,0,0,0,3.27-1.52l-.92-1.36Z"/><path class="cls-124" d="M835.82,85.48c.44.28,2.45-2.29,2.45-2.29h-1.49S835.29,85.14,835.82,85.48Z"/><path class="cls-104" d="M813.46,92.19c-.08-.64-.11-1.13-.43-1.08s-.51.6-.43,1.24.42,1.11.74,1.06S813.55,92.82,813.46,92.19Z"/><path class="cls-104" d="M814.22,91.54c0-.64.06-1.13-.34-1.14s-.71.51-.72,1.15.3,1.17.69,1.18S814.21,92.18,814.22,91.54Z"/><path class="cls-104" d="M814.68,92.82c.41-.23,1.19-.79,1-1.15s-1.12,0-1.52.18a.86.86,0,0,0-.4,1.09C814,93.3,814.28,93.06,814.68,92.82Z"/><path class="cls-104" d="M814.93,92.55c.21.6.78,1.32,1.12,1.19s.46-.72.25-1.32-.65-1-1-.87S814.73,91.94,814.93,92.55Z"/><path class="cls-125" d="M844.31,95.5c-.67,0-1.42,1.67-1.42,1.67l2.92.1S845,95.5,844.31,95.5Z"/><path class="cls-126" d="M853.28,109.89c-.13-.19-.44-.16-.68.06a.66.66,0,0,0-.22.76c.13.19.44.16.68-.07A.65.65,0,0,0,853.28,109.89Z"/><path class="cls-108" d="M849.31,98c-.69-1.79-1.49-5.86-1.1-6.09S849.92,97,849.92,97Z"/><path class="cls-108" d="M849.67,97.09c-.89-.54-2.6-2-2.52-2.25s2.44,1.6,2.44,1.6Z"/><path class="cls-116" d="M839.74,110a.57.57,0,1,0-.56.69A.64.64,0,0,0,839.74,110Z"/><path class="cls-116" d="M839.74,106a.57.57,0,1,0-.56.7A.64.64,0,0,0,839.74,106Z"/><path class="cls-116" d="M839.74,102a.57.57,0,1,0-.56.69A.64.64,0,0,0,839.74,102Z"/><path class="cls-127" d="M848.24,90.2c-.26-.61-.26-3.81,1-4.53l.61.27C849,86.11,848.43,87.76,848.24,90.2Z"/><path class="cls-127" d="M830.22,92a7.74,7.74,0,0,1,.61-4.49l1.22-.92C831.21,87.35,830.4,89.55,830.22,92Z"/><polygon class="cls-128" points="846.38 153.96 834.95 154.08 834.2 154.7 846.38 154.7 846.38 153.96"/><path class="cls-129" d="M838.86,153.23c0-.17-.42-.55-1-.55s-1.21.38-1.21.55.59,0,1.21,0S838.86,153.39,838.86,153.23Z"/><path class="cls-129" d="M840.06,152.33c0-.15-.44-.48-1.09-.48s-1.26.33-1.26.48.61,0,1.26,0S840.06,152.47,840.06,152.33Z"/><path class="cls-130" d="M850.82,86.53a7.58,7.58,0,0,0-1-.59h0l-.61-.27-.06,0h0a19.55,19.55,0,0,0-3.83-.8l0,0-.92-.2c.25-.14.4-.24.4-.24l-.92-1.36h-.35l-.28-3.28-3.91-.6c-.59,0-1.17.06-1.73.11l-.17,3.86h-.71a6.3,6.3,0,0,0-1.07,2l-.78.34A13.17,13.17,0,0,0,832,86.61s0,0,0,0l-.08.06a6.25,6.25,0,0,0-.6.4,25.88,25.88,0,0,0,9.18,1.49C844.8,88.53,848.55,87.74,850.82,86.53Z"/><path class="cls-131" d="M839.71,79.18c-1.6,1.19-7.62-4-5.55-7.41.64-1.06,4.6-3,5.46-1.7S841.59,77.77,839.71,79.18Z"/><path class="cls-104" d="M835.7,84.63c1.67.55,7.93.69,8.4-3.74.45-4.17,2.46-5.7,2.37-6.51-.19-1.81-2.56-4.12-4.09-4.8s-5.11-1.13-8.81,4c-.38.53.19.92.83,1.38s-2.18,1.43-2.35,3.32A6.16,6.16,0,0,0,835.7,84.63Z"/><path class="cls-132" d="M842.47,70.17c-.4-1-2.47-1.1-4.26-.34s-3.77,2.3-3.44,3.38,3.68.54,5.52-.25S842.89,71.25,842.47,70.17Z"/><path class="cls-133" d="M834,74.68c.41-.33.65-.57.41-.74a5.52,5.52,0,0,1-.7-.56l-.15.21C833.27,74,833.56,74.33,834,74.68Z"/><path class="cls-133" d="M844,79.71c-.47,4.35-6.67,4.23-8.32,3.7a6,6,0,0,1-3.64-5.26s0,.09,0,.14a6.16,6.16,0,0,0,3.65,6.34c1.67.55,7.93.69,8.4-3.74.45-4.17,2.46-5.7,2.37-6.51a2.58,2.58,0,0,0-.17-.69C845.94,74.57,844.42,76.17,844,79.71Z"/><path class="cls-134" d="M833.93,80.3h2.45s-.48,1.94-1.23,2C834.78,82.3,834.22,81.52,833.93,80.3Z"/><polygon class="cls-135" points="836.37 80.5 834.08 80.45 834.32 81.26 835.89 81.44 836.37 80.5"/><path class="cls-133" d="M833.56,80.61c1.11-1.62,1.56-5.32,2-6.6A5.25,5.25,0,0,1,834,73l-.47.62c-.38.53.19.92.83,1.38s-2.17,1.39-2.34,3.28C832,79.14,832.12,82.73,833.56,80.61Z"/><path class="cls-104" d="M835.69,78v0l0,.12s.25,0,.21.41-.73-.2-.7-.75a10.81,10.81,0,0,0,.53-3.91l-.54-.08c-.09,3.44-1.68,4.07-1.71,4.55s2.63,1.32,2.71.07C836.18,78,835.69,78,835.69,78Z"/><path class="cls-131" d="M833.2,80.7c.49.1.69-2.16,1.92-2.26s2.26,2.63,3.1,2.63c0,0-2.37.38-3.16-.51C834.17,80.81,833.63,80.94,833.2,80.7Z"/><path class="cls-131" d="M844.16,81.6c1.77,1,5.3-5.39,2.27-8.59-.92-1-4.94-2.22-5.22-.71S842.11,80.43,844.16,81.6Z"/><path class="cls-136" d="M843.73,75.89a4.63,4.63,0,0,1,3.39,1.85,4.76,4.76,0,0,0-.86-4.6c-.85-.91-4.55-2-4.81-.66a12.31,12.31,0,0,0,.42,3.84A3.48,3.48,0,0,1,843.73,75.89Z"/><path class="cls-104" d="M845.88,77.37c.39.43-.51,3.92-1.76,3.42C841.06,79.57,843.51,74.79,845.88,77.37Z"/><path class="cls-131" d="M839.51,74.8c.16-.54-.44-1.21-1.33-1.51s-1.73-.11-1.9.41.55.47,1.44.78S839.35,75.34,839.51,74.8Z"/><path class="cls-137" d="M845.62,77.82a.35.35,0,0,0-.06-.19c-1.64-1.83-3.29.83-2.14,2.21C842.82,78.46,844.18,76.48,845.62,77.82Z"/><path class="cls-137" d="M844.76,78.56a.19.19,0,0,0,0-.1c-.19-1.39-1.75-.95-1.64.05A.81.81,0,0,1,844.76,78.56Z"/><path class="cls-104" d="M836.11,78.35c0-.31-.52-.59-1.14-.62s-1.11.2-1.11.51.5.6,1.12.63S836.11,78.67,836.11,78.35Z"/><path class="cls-137" d="M835.69,78v0l0,.12s.25,0,.21.41-2.13.22-2.1-.34,1.53-1,1.61-4.38l-.22,0c-.09,3.44-1.68,4.07-1.71,4.55s2.63,1.32,2.71.07C836.18,78,835.69,78,835.69,78Z"/><path class="cls-131" d="M835.36,73.65c-.11-.51-.8-.82-1.54-.71s-1.24.62-1.15,1.13.59.17,1.33.05S835.47,74.16,835.36,73.65Z"/><path class="cls-138" d="M841.78,72.22c-.22.35.38,1.3,1.33,1.22.33,0,.63-.75.44-1.1S842.12,71.67,841.78,72.22Z"/><path class="cls-134" d="M839.11,75.89a1.47,1.47,0,0,0-1.59-1.12,1.22,1.22,0,0,0-.81,1.6,1.49,1.49,0,0,0,1.6,1.15A1.21,1.21,0,0,0,839.11,75.89Zm-1,1.36a1.18,1.18,0,0,1-1.26-.91,1,1,0,0,1,.63-1.26,1.17,1.17,0,0,1,1.26.88A1,1,0,0,1,838.14,77.25Z"/><path class="cls-134" d="M834.74,75.63a1.38,1.38,0,0,0-1.5-1.1,1.23,1.23,0,0,0-.84,1.57,1.38,1.38,0,0,0,1.51,1.13A1.24,1.24,0,0,0,834.74,75.63Zm-1,1.33a1.07,1.07,0,0,1-1.19-.89,1,1,0,0,1,.66-1.24,1.09,1.09,0,0,1,1.18.87A1,1,0,0,1,833.75,77Z"/><path class="cls-134" d="M838.08,75.89a.41.41,0,0,0-.4-.34.33.33,0,0,0-.22.43.39.39,0,0,0,.4.34C838,76.3,838.12,76.11,838.08,75.89Z"/><path class="cls-134" d="M833.93,75.59c0-.21-.21-.36-.37-.33a.33.33,0,0,0-.23.42.37.37,0,0,0,.37.33A.33.33,0,0,0,833.93,75.59Z"/><polygon class="cls-134" points="844.84 76.31 838.89 75.84 838.91 76.25 844.32 76.48 844.84 76.31"/><path class="cls-133" d="M841.12,78.59c-.16-.55-1-.86-1.89-.7s-1.46.73-1.31,1.28,1,.89,1.88.73S841.28,79.15,841.12,78.59Z"/><path class="cls-104" d="M836.61,71.88c.14-.27,4.18,1.11,4.18,1.11l-.38.11S836.39,72.28,836.61,71.88Z"/><path class="cls-104" d="M836.49,72.51a9.61,9.61,0,0,0-2.1,0l.41.21S836.76,72.76,836.49,72.51Z"/><path class="cls-134" d="M836.71,75.57a1.48,1.48,0,0,0-1.15-.53,1.29,1.29,0,0,0-1,.36l-.26-.19a1.52,1.52,0,0,1,1.21-.49,1.83,1.83,0,0,1,1.42.66Z"/><path class="cls-108" d="M825.4,104.58c-.28-1.42-.63-3.6-.17-3.77s.86,3.2.86,3.2Z"/><path class="cls-108" d="M823.5,104.43c.09-1.45.3-3.64.79-3.69s0,3.31,0,3.31Z"/><path class="cls-139" d="M642.29,92.58c-3.91-.27-8.34-2.78-6-6.55s3.24-5.82,2.85-8.2,1.32-8.08,4.56-8.08,7.88,1.92,8.93,5.23-.59,9,.34,10.52S657.37,93.64,642.29,92.58Z"/><path class="cls-140" d="M653,85.5c-.67-1.1,0-4.39,0-7.37-.78,3.86-.36-7.57-7.8-6.7-6.82.8-4.88,11.79-6.23,9.31A21.37,21.37,0,0,1,636.33,86c-2.38,3.77,2,6.28,6,6.55C657.37,93.64,653.93,87,653,85.5Z"/><path class="cls-141" d="M650.3,86.22c-1.15-4-2.08-7.51-4.64-7.51s-3.83,3.44-4.65,7.51c-1.53,7.54,2.08,7.5,4.65,7.5S652.21,92.77,650.3,86.22Z"/><path class="cls-142" d="M648.3,87l.66-1.45c-2.81-1.24-6.44,0-6.44,0l.88,1.51Z"/><path class="cls-104" d="M635.83,101.81c.75.76,4.07-9,4.07-9l-2-1.64S634.24,100.2,635.83,101.81Z"/><path class="cls-54" d="M637.93,91.2s-.39,1-.87,2.32l1.23.87s-1.22,4.7-2.23,7.41c1-.71,3.84-9,3.84-9Z"/><path class="cls-104" d="M656.35,102c1-.12-2.81-10.3-2.81-10.3l-2.47.58S654.17,102.22,656.35,102Z"/><path class="cls-54" d="M652.71,94.6l1.75-.41c-.51-1.45-.92-2.53-.92-2.53l-2.47.58s2.37,7.61,4.42,9.37A51.18,51.18,0,0,1,652.71,94.6Z"/><polygon class="cls-143" points="650.57 95.13 654.68 92.88 653.54 91.67 650.53 94.29 650.57 95.13"/><polygon class="cls-143" points="641 95.21 636.86 92.62 637.81 91.25 641.13 94.38 641 95.21"/><path class="cls-144" d="M640.84,95.06l-3.77-3.57s2.53-3.56,4-3.9S640.84,95.06,640.84,95.06Z"/><path class="cls-145" d="M641.51,88a25.27,25.27,0,0,1-1.62,5.09l-2.82-1.62,3.77,3.57S642,89.63,641.51,88Z"/><path class="cls-144" d="M650.51,94.82l3.63-3.33s-2.69-3.56-4.22-3.9S650.51,94.82,650.51,94.82Z"/><path class="cls-145" d="M651.31,93.25a38,38,0,0,1-1.11-5.57l-.28-.09c-1.52-.35.59,7.23.59,7.23l3.63-3.33h0Z"/><path class="cls-104" d="M644,153.43c1.82-9.32-3.33-14.05-1.1-21.45,1-3.29-1.92-6.27-2.26-18.1,2.35-2,10.67.15,10.67.15-1.15,12.07-3.47,14.92-2.7,17.95,1.91,7.41-2.63,11.58-.93,21.45Z"/><path class="cls-54" d="M646.18,153.43c-.11-2.19.07-5.93-.09-10.18-.47-12.54,1-11.46,2.36-12.15-.2-2.78,1.78-6.16,2.81-17.07,0,0-8.25-2.11-10.58-.15.3,10.44,2.58,14,2.44,16.94a.37.37,0,0,1,.24-.11c1,0,2.68-.26,1.91,12.84-.23,4,.54,7.53.47,9.88Z"/><path class="cls-144" d="M642.07,154.58H646S646.29,150.22,642.07,154.58Z"/><path class="cls-144" d="M649,154.58h-3.21S645.59,150.22,649,154.58Z"/><path class="cls-144" d="M652.28,109.44c-4.24-9.87-.82-12.44-1.47-20-.45-5.34-10.39-3.48-10.63-.29-.61,8.4,3.06,10.69-.89,20.27-2.54,6.19,1.26,11.87,2.67,20.82h7.63C650.28,122.48,654.56,114.74,652.28,109.44Z"/><path class="cls-145" d="M652.28,109.44c-3.79-8.82-1.46-11.81-1.39-17.74-.4,5.07-3.11,3.74-5.5,3.74-2.22,0-4.57,1.06-5.25-3.25.26,6.1,2.58,8.93-.85,17.25-2.54,6.19,1.26,11.87,2.67,20.82h7.63C650.28,122.48,654.56,114.74,652.28,109.44Zm-6.55,16.93c-3.53,0-6.4-4.88-6.4-10.89s2.87-10.9,6.4-10.9,6.4,4.88,6.4,10.9S649.27,126.37,645.73,126.37Z"/><path class="cls-143" d="M643.22,86.57,645.74,92l2.57-5.58S645.28,85.43,643.22,86.57Z"/><path class="cls-104" d="M643.57,86.48l2,2.1,2.24-2.27S645.28,85.46,643.57,86.48Z"/><path class="cls-104" d="M635.82,101.77c.36,1.51,6.85-5.24,6.8-6.41S635.16,99,635.82,101.77Z"/><path class="cls-54" d="M642.47,95.21c-1.34,2.13-6.15,6.9-6.46,5.61a2.89,2.89,0,0,1,0-.29,2.11,2.11,0,0,0-.15,1.24c.36,1.51,6.85-5.24,6.8-6.41A.15.15,0,0,0,642.47,95.21Z"/><path class="cls-104" d="M656.37,101.79c-.26,1.34-7-4.67-7.56-6.05S656.86,99.28,656.37,101.79Z"/><path class="cls-54" d="M656.24,100.67a2.55,2.55,0,0,1,0,.39c-.21,1.24-5.85-3.66-7.27-5.58-.14,0-.2.11-.14.26.58,1.38,7.33,7.4,7.56,6.05A2.18,2.18,0,0,0,656.24,100.67Z"/><rect class="cls-104" x="644.56" y="81.16" width="2.5" height="5.43"/><g class="cls-146"><rect class="cls-147" x="644.56" y="81.16" width="2.5" height="5.43"/></g><path class="cls-130" d="M652,89a6.43,6.43,0,0,0-1.82-1.35,3.83,3.83,0,0,0-1.62-1.16l.44-1a6.11,6.11,0,0,0-1.91-.49v-.69a6.31,6.31,0,0,0,.58-.44,19.83,19.83,0,0,0-2.22-.12q-.85,0-1.65.06a5.78,5.78,0,0,0,.8.57v.69a11.77,11.77,0,0,0-2,.47l.58,1a6.21,6.21,0,0,0-1.92,1,.38.38,0,0,0-.15,0,5.3,5.3,0,0,0-2,1.52,14.73,14.73,0,0,0,6.39,1.26A14.21,14.21,0,0,0,652,89Z"/><path class="cls-104" d="M645.86,85.08c-2.65-1.14-4.56-2.66-4.44-9,2.77-3.78,5.71-4,8.33-.24C649.75,83,648.18,83.74,645.86,85.08Z"/><path class="cls-54" d="M649.4,94.84c-.4-.44-.66-.87-.82-.72s0,.63.42,1.07.85.68,1,.53S649.8,95.28,649.4,94.84Z"/><path class="cls-54" d="M642.28,94.76c.4-.44.65-.88.82-.73s0,.63-.4,1.08-.86.69-1,.54S641.89,95.21,642.28,94.76Z"/><path class="cls-148" d="M649.32,89.37l-8.63.48c1,3.75,1.66,5.66,1.2,11l7.49.46C649.46,96.42,649.54,93,649.32,89.37Z"/><path class="cls-149" d="M647.51,97.73a7.06,7.06,0,0,1,1.89,2.16c.07-4.15.11-7.23-.08-10.52l-8.63.48a28.9,28.9,0,0,1,1.33,6.8C643.45,95.93,645.65,96.31,647.51,97.73Z"/><path class="cls-150" d="M648,78.47a.65.65,0,0,0-.62-.64.6.6,0,0,0-.55.66.65.65,0,0,0,.62.64A.6.6,0,0,0,648,78.47Z"/><path class="cls-150" d="M646.55,77.53l0,.35a5.05,5.05,0,0,1,2.36.46S648.46,77.55,646.55,77.53Z"/><path class="cls-150" d="M644.21,78.46c0-.38-.3-.67-.59-.64a.64.64,0,0,0-.47.74c0,.38.3.66.59.63A.62.62,0,0,0,644.21,78.46Z"/><path class="cls-150" d="M644.44,77.47v.37a4.34,4.34,0,0,0-2.24.54S642.6,77.53,644.44,77.47Z"/><path class="cls-151" d="M644.16,81.93h3a1.51,1.51,0,0,1-3,0Z"/><path class="cls-152" d="M644.28,82h2.77a1.59,1.59,0,0,1-1.34.66A1.66,1.66,0,0,1,644.28,82Z"/><g class="cls-153"><path class="cls-154" d="M645.78,80.18l0-1.73h-.39v1.79c-.05.64-.64.47-.64.65s.37.42.83.42.83-.19.83-.42S645.8,80.77,645.78,80.18Z"/></g><path class="cls-155" d="M643.8,80.74c.06-.24-.24-.52-.68-.63s-.83,0-.89.25.25.52.68.62S643.75,81,643.8,80.74Z"/><path class="cls-155" d="M648.76,80.25c-.07-.23-.48-.32-.91-.2s-.72.42-.65.66.48.33.91.2S648.83,80.49,648.76,80.25Z"/><path class="cls-139" d="M642.16,77.14a3.84,3.84,0,0,1,2.57-.8,2.6,2.6,0,0,0-1.67,0A2.66,2.66,0,0,0,642.16,77.14Z"/><path class="cls-139" d="M646.7,76.48a3.81,3.81,0,0,1,2.57.83s-.67-.89-1.36-1A2.75,2.75,0,0,0,646.7,76.48Z"/><path class="cls-104" d="M635.61,101.1c0,.48.21.87.47.87s.47-.39.47-.87-.21-.87-.47-.87S635.61,100.62,635.61,101.1Z"/><path class="cls-104" d="M655.54,101.33c.17.44.51.73.75.64s.3-.54.12-1-.51-.73-.75-.64S655.36,100.88,655.54,101.33Z"/><path class="cls-104" d="M650.53,96a1.81,1.81,0,0,0-1-.78c-.4-.08-.45.41-.57,1s.24.6.64.69S650.88,96.4,650.53,96Z"/><path class="cls-104" d="M649.85,95.47c0-.17-.35-.28-1-.35s-1.22,0-1.23.13.45.23,1.06.29S649.83,95.64,649.85,95.47Z"/><path class="cls-104" d="M649.51,96c0-.17-.35-.28-1-.33s-1.21,0-1.23.13.46.23,1.07.28S649.49,96.17,649.51,96Z"/><path class="cls-104" d="M649.8,96.61c0-.17-.36-.27-1-.32s-1.22,0-1.23.16.46.22,1.06.26S649.78,96.78,649.8,96.61Z"/><path class="cls-104" d="M641.15,95.92a1.9,1.9,0,0,1,1-.8c.41-.09.47.4.6.95s-.23.6-.63.69S640.8,96.35,641.15,95.92Z"/><path class="cls-104" d="M641.84,95.4c0-.17.34-.29.95-.36s1.24-.08,1.26.09-.46.25-1.07.32S641.86,95.57,641.84,95.4Z"/><path class="cls-104" d="M642.19,95.93c0-.17.35-.29,1-.36s1.24-.06,1.26.11-.47.24-1.08.31S642.21,96.1,642.19,95.93Z"/><path class="cls-104" d="M641.91,96.54c0-.17.36-.28,1-.34s1.23,0,1.25.13-.47.23-1.08.29S641.93,96.71,641.91,96.54Z"/><polygon class="cls-145" points="640.97 107.47 643.67 108.92 640.82 108.12 640.97 107.47"/><polygon class="cls-145" points="651.2 108.08 648.27 108.96 650.85 107.51 651.2 108.08"/><path class="cls-104" d="M649.69,80.45l.32-2.11a.94.94,0,0,1,.66.6A1.33,1.33,0,0,1,649.69,80.45Z"/><path class="cls-104" d="M641.44,80.65l-.34-2.23a1,1,0,0,0-.72.64A1.4,1.4,0,0,0,641.44,80.65Z"/><path class="cls-151" d="M647.42,81.82a.2.2,0,0,0-.28,0,.21.21,0,0,0-.06.28.21.21,0,0,0,.28,0A.21.21,0,0,0,647.42,81.82Z"/><path class="cls-151" d="M644.25,82a.21.21,0,0,0-.09-.27.22.22,0,0,0-.28.06.2.2,0,0,0,.09.27A.2.2,0,0,0,644.25,82Z"/><path class="cls-139" d="M638.19,81a3.93,3.93,0,0,0,.72-2.77,9.21,9.21,0,0,1,1.79-5.91s-2.58,2.65-2,5.77A7.57,7.57,0,0,1,638.19,81Z"/><path class="cls-139" d="M652,83.34a4,4,0,0,1-.14-2.87,9.17,9.17,0,0,0-.57-6.16s2,3.14.84,6.07A7.54,7.54,0,0,0,652,83.34Z"/><path class="cls-156" d="M670.46,76.17l.46-3a.9.9,0,0,1,.94.75A1.69,1.69,0,0,1,670.46,76.17Z"/><path class="cls-156" d="M661.62,76.17l-.49-3a1,1,0,0,0-1,.75C659.9,74.8,660.13,75.8,661.62,76.17Z"/><path class="cls-157" d="M652.94,102c-3-1,1.55-15.26,4.77-16.59S662.41,100.47,652.94,102Z"/><path class="cls-158" d="M657.88,86.25a3.24,3.24,0,0,0-1.06.85c1.25,10.05-4,14.45-3.7,14.55C662.59,100.14,661.1,84.93,657.88,86.25Z"/><path class="cls-158" d="M656.92,93.18c-.26-.42-1-2.15-.83-2.24s1,1.31,1,1.31Z"/><path class="cls-157" d="M678.53,101.74c3.15-.67,0-14.31-3.12-15.87S669,99.38,678.53,101.74Z"/><path class="cls-158" d="M678.25,100.14c-1.28-5-5.24-10.64-3.1-14.36-3-.64-5.86,13.67,3.38,16C679.48,101.54,679,100.12,678.25,100.14Z"/><path class="cls-159" d="M661.65,84.82l-.52-.95a9.8,9.8,0,0,1,5-1.3c1.51,0,3.9.08,5.32,1.24l-.87,1.5Z"/><rect class="cls-104" x="663.88" y="79.12" width="4.3" height="4.35"/><g class="cls-160"><rect class="cls-161" x="663.88" y="79.12" width="4.3" height="4.35"/></g><path class="cls-162" d="M664.39,153.59c-2.89-11.56-6.65-41.58-5.68-46.17l15.74-.38s-.71,37.28-2,46.55c0,0-.47,1.18-.59.07-.95-8.38-4.68-16.31-1.57-20.35-.14-7.39-2.7-17.32-4.25-16.55s-1.83,10.76-2,15.52c2.68,1.18,1.73,10.69.95,21.18Z"/><rect class="cls-163" x="661.28" y="111.97" width="10.55" height="0.91"/><rect class="cls-164" x="665.39" y="111.74" width="2.17" height="1.37"/><rect class="cls-162" x="663.64" y="111.67" width="0.49" height="1.94"/><rect class="cls-162" x="668.7" y="111.55" width="0.5" height="1.94"/><path class="cls-165" d="M674.45,107.07v0l-8,.19Z"/><path class="cls-165" d="M666,116.76c-1.92.77-2.73,10.91-2.93,15.67,3.32,1.18,2,10.51,1.63,21l-.31,0s0,.06,0,.08l.64-.13c.78-10.49,1.73-20-.95-21.18.17-4.76.46-14.75,2-15.52l.13,0A.59.59,0,0,0,666,116.76Z"/><path class="cls-165" d="M671.25,133.31c-.16-6.75-2.66-16.71-4.75-16.52,1.55.9,3.7,9.77,3.83,16.52-3.11,4,.62,12,1.57,20.35.12,1.11.59-.07.59-.07C672.58,152.92,667.78,136.94,671.25,133.31Z"/><path class="cls-166" d="M672.84,85.33c-3.66-3.3-9-2.78-15.07.3,2.24,10.2.94,21,1,25.94l15.69-.24Z"/><polygon class="cls-167" points="665.23 108.24 665.9 84.55 666.47 84.39 667.01 108.1 666.14 110.66 665.23 108.24"/><path class="cls-114" d="M674.36,111.33h.09l-.07-1.09c0-1.81.07-3,.07-3.17v0h-.26l-.29-4.65a18,18,0,0,0-7.88-1.74,18.39,18.39,0,0,0-6.95,1.33c0,2-.12,3.82-.19,5.44h-.17c-.35,1.65-.09,6.56.52,12.72a27.37,27.37,0,0,0,5.58.62c.29-2.12.69-3.71,1.27-4l.13,0a.52.52,0,0,1,.29.07l.14.1v0l.14.13,0,0,.13.17,0,0,.14.21,0,0a2.55,2.55,0,0,1,.14.24v0l.15.29h0a15.86,15.86,0,0,1,.78,2.06h0l.13.43,0,.1v0a20.09,20.09,0,0,0,5.77-1.06C674.24,116.39,674.31,113.52,674.36,111.33Z"/><path class="cls-157" d="M676,86.47c-.33-1.2-5.15-2.83-5.15-2.83A21.51,21.51,0,0,0,666.13,94a21,21,0,0,0-4.8-10.08s-4.46,1.36-4.78,2.56c-.88,4.34,3.57,11.13,1.55,29.93,0,0,5-1,5.63-3.06a62.23,62.23,0,0,0,2.44-12.92,62.77,62.77,0,0,0,2.91,13.12c.65,2.11,5.74,2.43,5.74,2.43C673.17,104.33,676,91.48,676,86.47Z"/><path class="cls-168" d="M666.3,97.49s3.24-9.52,6.56-13.07l-1.91-1C667,87.79,665.93,92.06,666.3,97.49Z"/><path class="cls-168" d="M666,97.68S662.8,88,659.56,84.46l1.91-.8C665.33,88,666.38,92.26,666,97.68Z"/><path class="cls-169" d="M666.25,96.88c-7.83.17-8.75-4.17-9.26-4.42a80.29,80.29,0,0,1,.78,24.36s5.41-1.15,6.06-3.26a68.43,68.43,0,0,0,2.34-13.14,70.51,70.51,0,0,0,2.74,13.33c.66,2.11,6.31,2.51,6.31,2.51-1.17-8.27-.29-17.28.32-23.6C674.13,94.65,672.3,97,666.25,96.88Z"/><path class="cls-170" d="M668.56,106.58c0-.32-.23-.56-.4-.53s-.27.31-.22.63.23.55.4.53S668.61,106.9,668.56,106.58Z"/><path class="cls-170" d="M667.73,102.35c-.05-.32-.23-.56-.4-.53s-.27.31-.22.63.23.55.4.53S667.78,102.67,667.73,102.35Z"/><path class="cls-157" d="M652.52,101.7c.52,1.29,8.11-2.76,8.54-5.09.14-.76-.83-1.17-1.5-1.27C656.55,95.63,651.06,98.12,652.52,101.7Z"/><path class="cls-158" d="M652.52,101.13a3.47,3.47,0,0,1-.26-1,3.23,3.23,0,0,0,.26,1.6c.52,1.29,8.11-2.76,8.54-5.09a.54.54,0,0,0,0-.38C660.24,98.57,653,102.39,652.52,101.13Z"/><path class="cls-157" d="M679.19,101.52c-.6,1.28-8.08-2.76-8.39-5.08-.09-.72.67-1.31,2-1.18C675.73,95.55,680.89,97.85,679.19,101.52Z"/><path class="cls-158" d="M673.73,96.63a1.29,1.29,0,1,0-1.28,1.47A1.39,1.39,0,0,0,673.73,96.63Z"/><path class="cls-158" d="M661,96.74a1.2,1.2,0,1,0-1.17,1.44A1.33,1.33,0,0,0,661,96.74Z"/><path class="cls-158" d="M679.05,101.11c-.67,1.13-6.57-3-7.55-5.47-.48.15-.74.41-.7.8.3,2.54,7.79,6.36,8.39,5.08C679.39,101.08,679.18,100.89,679.05,101.11Z"/><polygon class="cls-166" points="668.52 81.41 663.7 81.41 662.7 83.99 669.52 83.99 668.52 81.41"/><path class="cls-171" d="M660.53,154.51h4.63S666.32,151.51,660.53,154.51Z"/><path class="cls-171" d="M675.3,154.51h-3.76S670.6,151.51,675.3,154.51Z"/><path class="cls-166" d="M673.34,97a1.33,1.33,0,0,0-.8-1.62,1.16,1.16,0,0,0-1.54.73,1.34,1.34,0,0,0,.81,1.62A1.15,1.15,0,0,0,673.34,97Z"/><path class="cls-172" d="M671.84,96.66a1.33,1.33,0,0,1-.75-.74.78.78,0,0,0-.09.21,1.34,1.34,0,0,0,.81,1.62,1.15,1.15,0,0,0,1.53-.73,1.22,1.22,0,0,0-.05-.88A1.15,1.15,0,0,1,671.84,96.66Z"/><path class="cls-166" d="M661.2,96.36a1.16,1.16,0,1,0-.85,1.37A1.14,1.14,0,0,0,661.2,96.36Z"/><path class="cls-172" d="M661.2,96.36a1.27,1.27,0,0,0-.23-.43,1.17,1.17,0,0,1-2,.5,1.2,1.2,0,0,0,0,.5,1.16,1.16,0,0,0,2.25-.57Z"/><path class="cls-54" d="M670.37,93.92c-.6-.56-1-1.12-1.22-.89s.11.86.71,1.42,1.26.82,1.47.59S671,94.48,670.37,93.92Z"/><path class="cls-54" d="M662,94c.53-.62.86-1.22,1.09-1s0,.87-.54,1.48-1.14,1-1.37.75S661.49,94.64,662,94Z"/><path class="cls-173" d="M669.8,89.69a29.12,29.12,0,0,0-8.51.19c1,2.23,1.27,7.2,1.38,11.88a26.7,26.7,0,0,1,7.3.15C670.25,97.13,670.38,92.28,669.8,89.69Z"/><path class="cls-174" d="M665.27,95.94a14.22,14.22,0,0,1,4.87,2.52,40.11,40.11,0,0,0-.34-8.77,29.12,29.12,0,0,0-8.51.19,19.7,19.7,0,0,1,1.06,5.45A15.37,15.37,0,0,1,665.27,95.94Z"/><polygon class="cls-167" points="665.86 84.96 665.03 83.9 665.66 81.97 666.63 81.97 667.35 83.9 666.39 85.11 665.86 84.96"/><path class="cls-104" d="M672.26,95.75a2.63,2.63,0,0,0-1.46-1.12c-.58-.12-.66.59-.82,1.38s.34.86.92,1S672.76,96.37,672.26,95.75Z"/><path class="cls-104" d="M671.27,95c0-.25-.5-.41-1.37-.5s-1.76-.07-1.78.18.66.33,1.53.42S671.25,95.26,671.27,95Z"/><path class="cls-104" d="M670.78,95.79c0-.25-.51-.4-1.38-.49s-1.76,0-1.78.19.66.34,1.54.42S670.75,96,670.78,95.79Z"/><path class="cls-104" d="M671.19,96.67c0-.25-.51-.39-1.38-.46s-1.76,0-1.78.22.67.32,1.54.39S671.18,96.92,671.19,96.67Z"/><path class="cls-104" d="M660.36,96.05c.44-.67.76-1.09,1.31-1.27s.7.52,1,1.28-.24.9-.8,1.08S659.93,96.71,660.36,96.05Z"/><path class="cls-104" d="M661.25,95.22c0-.25.45-.46,1.29-.64s1.71-.25,1.76,0-.61.4-1.45.58S661.3,95.46,661.25,95.22Z"/><path class="cls-104" d="M661.81,95.93c0-.24.45-.45,1.3-.62s1.71-.24,1.76,0-.62.4-1.46.57S661.86,96.17,661.81,95.93Z"/><path class="cls-104" d="M661.5,96.85c0-.24.46-.45,1.3-.6s1.72-.21,1.76,0-.62.39-1.46.55S661.54,97.1,661.5,96.85Z"/><polygon class="cls-175" points="661.88 83.45 663.7 84.05 665.96 81.37 663.3 81.28 661.88 83.45"/><polygon class="cls-175" points="670.11 83 668.42 84.05 666.19 81.37 668.81 81.28 670.11 83"/><path class="cls-157" d="M671.56,107.63a4.69,4.69,0,0,0,3.55,3l-.35-2.18Z"/><path class="cls-157" d="M661,107.59a4.44,4.44,0,0,1-3.26,3l.34-2.17Z"/><path class="cls-169" d="M675.11,93.54c0-.57.24-1.91.45-1.93s-.25,3.43-.25,3.43Z"/><path class="cls-169" d="M656.93,91.84c0-.57.24-1.92.46-1.93s-.26,3.43-.26,3.43Z"/><path class="cls-166" d="M671.61,93.69h2.3s-.94-2-1.17-1.84A10.79,10.79,0,0,0,671.61,93.69Z"/><path class="cls-158" d="M676.52,96.36s2.05,1.13,2.22.85l-.09.84C678.4,97.43,677.31,96.83,676.52,96.36Z"/><path class="cls-158" d="M656.72,96.07s-2.2.83-2.09,1.15l-.58-.62A5.35,5.35,0,0,0,656.72,96.07Z"/><path class="cls-157" d="M678.52,100.72c-.07.51.08,1,.34,1s.53-.34.61-.84-.07-.94-.33-1S678.6,100.22,678.52,100.72Z"/><path class="cls-130" d="M674.21,85c-.49-.25-1-.49-1.5-.69L671,83.47l0,0a4.71,4.71,0,0,0-.94-.42l.11-.07-1.29-1.72-.64,0V79.12h-4.29V81.3l-.58,0-1.42,2.17h0l-.43.21h0l-1.91.8.05.06c-.35.13-.71.29-1.07.45a30.85,30.85,0,0,0,8,.94A31.33,31.33,0,0,0,674.21,85Z"/><path class="cls-176" d="M661.62,77.22c-.63-2.08-2.75-7.34-1-9.91s9.79-5.54,10.76-4-.84,2.06-.84,2.06,1.22-.25,1.48.71-.84,1.68-.84,1.68.68.48.58,1.93a75,75,0,0,1-1.28,7.72Z"/><path class="cls-177" d="M666.06,72.84A10.29,10.29,0,0,1,660,71a32.24,32.24,0,0,0,1.61,6.21l8.91.19s.73-3.37,1.1-6.08A10.48,10.48,0,0,1,666.06,72.84Z"/><path class="cls-104" d="M662.12,78c.39,1,2.77,2.37,4,2.46,1.5.11,3.61-1.74,3.89-2.52a35,35,0,0,0,.65-5.14c.15-2.25-1.55-4.47-1.82-4.87a3.36,3.36,0,0,0-4.77-.28c-.52.52-2.39,3.13-2.35,5.15A29.12,29.12,0,0,0,662.12,78Z"/><path class="cls-156" d="M670.64,72.31a34.74,34.74,0,0,1-.65,5.14c-.28.78-2.39,2.63-3.89,2.52-1.21-.09-3.59-1.42-4-2.46a28.57,28.57,0,0,1-.42-4.91v.17a29.12,29.12,0,0,0,.42,5.2c.39,1,2.77,2.37,4,2.46,1.5.11,3.61-1.74,3.89-2.52a35,35,0,0,0,.65-5.14,4.34,4.34,0,0,0,0-.51Z"/><polygon class="cls-178" points="671.76 154.03 671.18 154.07 671.18 154.6 675.76 154.6 675.76 154.29 671.76 154.03"/><polygon class="cls-178" points="664.74 154.03 665.39 154.07 665.39 154.6 660.29 154.6 660.29 154.29 664.74 154.03"/><path class="cls-176" d="M668.16,67.28c1.46-1.71-.84-1-1.89-1s-3.17-.26-1.91,1C665.13,68,667.08,68.56,668.16,67.28Z"/><path class="cls-151" d="M667.49,76.29s.09,1.75-.39,2-1.63.27-2-.1-.25-1.88-.25-1.88Z"/><polygon class="cls-152" points="665.04 77.62 667.35 77.62 667.57 76.62 664.82 76.62 665.04 77.62"/><path class="cls-177" d="M666.28,76.88a3.68,3.68,0,0,1,2.24.75,4.85,4.85,0,0,0-.61-1.78,8.73,8.73,0,0,0-3.38,0c-.23.11-.44,1-.57,1.85A3.58,3.58,0,0,1,666.28,76.88Z"/><path class="cls-104" d="M665.28,75.7l.41.38h.77l.64-.38c-.46-.4-.79-.65-.57-3.47H666C666.05,74.9,665.66,75.45,665.28,75.7Z"/><g class="cls-179"><path class="cls-180" d="M665.28,75.7l.41.38h.77l.64-.38c-.46-.4-.79-.65-.57-3.47H666C666.05,74.9,665.66,75.45,665.28,75.7Z"/></g><path class="cls-101" d="M663.51,73.92a1.08,1.08,0,0,1,0-1,.89.89,0,0,1,.84,0,1,1,0,0,1,0,.94A.6.6,0,0,1,663.51,73.92Z"/><path class="cls-101" d="M667.85,73.92a1,1,0,0,1,0-1,.87.87,0,0,1,.83,0,1,1,0,0,1,0,.94A.6.6,0,0,1,667.85,73.92Z"/><path class="cls-176" d="M667.5,71.81c-.26-.15-.9-.91-.47-1.06a6.33,6.33,0,0,1,2.5.47c.23.16,0,.82-.15.82S667.5,71.81,667.5,71.81Z"/><path class="cls-176" d="M664.82,71.78c.25-.17.85-1,.41-1.09a6.24,6.24,0,0,0-2.48.6c-.22.17,0,.82.19.81S664.82,71.78,664.82,71.78Z"/><path class="cls-176" d="M671.18,67.79c.43.27,1.37.72.86,2.82a2.71,2.71,0,0,0-1.66-2.54Z"/><path class="cls-137" d="M669.35,74.15c0-.14-.45-.26-1-.26s-1,.12-1,.26.45.25,1,.25S669.35,74.29,669.35,74.15Z"/><path class="cls-137" d="M665,74.15c0-.14-.45-.26-1-.26s-1,.12-1,.26.45.25,1,.25S665,74.29,665,74.15Z"/></g></g></svg>