<svg xmlns="http://www.w3.org/2000/svg" xmlns:xlink="http://www.w3.org/1999/xlink" viewBox="0 0 874.77 210.9"><defs><style>.cls-1{isolation:isolate;}.cls-2{fill:#d3d3d3;opacity:0.45;}.cls-3{fill:#9fa4a4;}.cls-4{fill:#8a9090;}.cls-5{fill:#c6c9c9;}.cls-6{fill:#dbdddd;}.cls-7{fill:#f4a602;}.cls-8{fill:#c47143;}.cls-9{fill:#a5a5a5;}.cls-22,.cls-9{opacity:0.34;}.cls-15,.cls-17,.cls-18,.cls-21,.cls-22,.cls-9{mix-blend-mode:multiply;}.cls-10{fill:#a4a4a4;}.cls-11{fill:#f4bc02;}.cls-12{fill:#3c3c3c;}.cls-13{fill:#843e19;}.cls-14{fill:#c22f2f;}.cls-15,.cls-17,.cls-18{opacity:0.37;}.cls-15{fill:url(#linear-gradient);}.cls-16{fill:#8c5119;}.cls-17{fill:url(#linear-gradient-2);}.cls-18{fill:url(#linear-gradient-3);}.cls-19,.cls-21{fill:#9d6b3b;}.cls-20{fill:#86480d;}.cls-21{opacity:0.35;}.cls-22{fill:#6b3524;}.cls-23{fill:#a6a5a0;}.cls-24{fill:#fcc083;}.cls-25{fill:#e8aa63;}.cls-26{fill:#4d5053;}.cls-27{fill:#353535;}.cls-28{fill:#fff;}.cls-29{fill:#e5e2e1;}.cls-30{fill:#f3f3f3;}.cls-31{fill:#d5d5d5;}.cls-32{font-size:12px;font-family:ArialMT, Arial;}.cls-33{letter-spacing:0.15em;}.cls-34{letter-spacing:0.07em;}.cls-35{letter-spacing:0.12em;}.cls-36{letter-spacing:-0.11em;}.cls-37{letter-spacing:0.09em;}.cls-38{letter-spacing:0.09em;}.cls-39{letter-spacing:0.02em;}.cls-40{letter-spacing:0.07em;}.cls-41{letter-spacing:-0.06em;}.cls-42{letter-spacing:0.08em;}.cls-43{letter-spacing:0.08em;}.cls-44{letter-spacing:0.55em;}.cls-45{letter-spacing:0.38em;}.cls-46{letter-spacing:0.49em;}.cls-47{letter-spacing:0.12em;}.cls-48{letter-spacing:0.12em;}</style><linearGradient id="linear-gradient" x1="736.88" y1="84.54" x2="782.09" y2="84.54" gradientUnits="userSpaceOnUse"><stop offset="0" stop-color="#535353"/><stop offset="1" stop-color="#a8a8a8"/></linearGradient><linearGradient id="linear-gradient-2" x1="785.49" y1="91.11" x2="817.04" y2="91.11" xlink:href="#linear-gradient"/><linearGradient id="linear-gradient-3" x1="700.67" y1="91.11" x2="732.21" y2="91.11" xlink:href="#linear-gradient"/></defs><title>ruanda</title><g class="cls-1"><g id="Capa_1" data-name="Capa 1"><rect class="cls-2" x="-8.24" y="-3.32" width="886.63" height="220.62"/><path class="cls-3" d="M137.17,48.24H78.47c-2.6,1.47-9.61,9.69-11.74,12.56-16.51,22.28,2.75,23.48,2.75,23.48l62.23-12.47C117.86,61.47,133.84,50.35,137.17,48.24Z"/><path class="cls-4" d="M125,67.88H88c-.27,3.66-1.37,10.7-5.75,16l9.22-.31,29.91-1S132.76,72.47,125,67.88Z"/><path class="cls-5" d="M69.66,67.88a8.75,8.75,0,0,1,5.85,8.21c0,3.92-1.46,6.47-6.07,8.21l12.81-.43c4.38-5.29,5.48-12.33,5.75-16Z"/><path class="cls-3" d="M78.37,162.49h58.71c-3.51-2.25-19.1-13.26-5.37-23.52L69.48,126.5S50.22,127.7,66.73,150C68.83,152.81,75.68,160.85,78.37,162.49Z"/><path class="cls-4" d="M125,142.9H88c-.27-3.66-1.37-10.7-5.75-16l9.22.31,29.91,1S132.76,138.31,125,142.9Z"/><path class="cls-5" d="M69.66,142.9a8.74,8.74,0,0,0,5.85-8.21c0-3.91-1.46-6.46-6.07-8.21l12.81.43c4.38,5.29,5.48,12.33,5.75,16Z"/><path class="cls-6" d="M162.06,48.24H78.8c9.08,7,14.69,29.17,14.69,57.21,0,26.24-5.61,50.22-14.69,57.21h83.26c9.07-7,14.69-31,14.69-57.21C176.75,77.41,171.13,55.23,162.06,48.24Z"/><path class="cls-7" d="M159.62,139a7.26,7.26,0,1,1-7.26-7.26A7.26,7.26,0,0,1,159.62,139Z"/><path class="cls-8" d="M157.49,139a5.13,5.13,0,1,1-5.13-5.13A5.13,5.13,0,0,1,157.49,139Z"/><path class="cls-9" d="M93.49,105.45c0,26.24-5.61,50.22-14.69,57.21h83.26C140,120.72,93.49,105.45,93.49,105.45Z"/><path class="cls-3" d="M105.46,78.05c.56,2.32.81,3.49,1.26,5.84h54.67c-.45-2.35-.7-3.52-1.26-5.84Z"/><path class="cls-3" d="M108.55,97.29h54.67c-.2-2.37-.32-3.55-.63-5.91H107.92C108.23,93.74,108.36,94.92,108.55,97.29Z"/><path class="cls-3" d="M109,110.78h54.67c0-2.37,0-3.56,0-5.94H109C109,107.22,109,108.41,109,110.78Z"/><path class="cls-3" d="M107.92,124.25h54.67c.31-2.36.43-3.54.63-5.92H108.55C108.36,120.71,108.23,121.89,107.92,124.25Z"/><path class="cls-3" d="M105.46,137.58h16.6c.56-2.33.81-3.5,1.26-5.84h-16.6C106.27,134.08,106,135.25,105.46,137.58Z"/><path class="cls-10" d="M188.3,159.24c0-1.78.52-3.24,1.17-3.24s1.18,1.45,1.18,3.24-.52,3.24-1.17,3.25S188.3,161,188.3,159.24Z"/><polygon class="cls-11" points="188.25 159.24 190.77 159.24 194.08 152.17 184.64 152.18 188.25 159.24"/><path class="cls-11" d="M187,77.42h4.77A1.4,1.4,0,0,1,193,78.93v4.26H185.7V78.94A1.4,1.4,0,0,1,187,77.42Z"/><polygon class="cls-12" points="194.08 152.17 194.08 148.09 194.06 110.94 184.62 110.95 184.64 148.1 184.64 152.18 194.08 152.17"/><rect class="cls-12" x="184.61" y="80.58" width="9.44" height="37.16" transform="translate(-0.1 0.19) rotate(-0.06)"/><rect class="cls-11" x="184.62" y="113.66" width="9.44" height="4.08" transform="translate(-0.12 0.2) rotate(-0.06)"/><polygon class="cls-11" points="190.89 84.66 187.62 84.66 187.63 108.87 190.91 106.81 190.89 84.66"/><rect class="cls-11" x="184.6" y="82.75" width="9.44" height="2.14"/><path class="cls-13" d="M757.64,59c-11.44,0-28.85,3.48-23.35,15.49,7.13,15.58,3.18,26.43,3.18,26.43,6.88,2.84,20.17,2.36,20.17,2.36s13.3.48,20.18-2.36c0,0-4-10.85,3.18-26.43C786.49,62.51,769.09,59,757.64,59Z"/><path class="cls-14" d="M757.64,62.27c-9.35,0-23.4,2.93-18.49,12.72,6,12,2.18,29.31,2.18,29.31,5.61,2.34,16.31,2,16.31,2s10.71.39,16.31-2c0,0-3.84-17.28,2.19-29.31C781.05,65.2,767,62.27,757.64,62.27Z"/><path class="cls-15" d="M777,62.8,736.88,81.54c3.34,11.83.59,19.41.59,19.41a24,24,0,0,0,4.25,1.24c-.22,1.33-.39,2.11-.39,2.11,5.61,2.34,16.31,2,16.31,2s10.71.39,16.31-2c0,0-.17-.78-.38-2.11a24.28,24.28,0,0,0,4.25-1.24s-4-10.85,3.18-26.43C783.61,68.8,781.25,65.13,777,62.8Z"/><path class="cls-13" d="M800,73.31c-8,0-20.13,2.43-16.29,10.81,5,10.87,2.22,18.44,2.22,18.44,4.79,2,14.07,1.65,14.07,1.65s9.28.33,14.08-1.65c0,0-2.76-7.57,2.21-18.44C820.11,75.74,808,73.31,800,73.31Z"/><path class="cls-16" d="M800,75.57c-6.52,0-16.33,2.05-12.9,8.88,4.2,8.39,1.52,20.44,1.52,20.44,3.91,1.64,11.38,1.36,11.38,1.36s7.47.28,11.38-1.36c0,0-2.68-12,1.53-20.44C816.31,77.62,806.51,75.57,800,75.57Z"/><path class="cls-17" d="M813.48,75.94,785.49,89c2.33,8.25.42,13.54.42,13.54a16,16,0,0,0,3,.86c-.15.94-.27,1.47-.27,1.47,3.91,1.64,11.38,1.36,11.38,1.36s7.47.28,11.38-1.36c0,0-.12-.53-.27-1.47a16.3,16.3,0,0,0,3-.86S811.3,95,816.27,84.12C818.1,80.13,816.45,77.56,813.48,75.94Z"/><path class="cls-13" d="M715.15,73.31c-8,0-20.13,2.43-16.29,10.81,5,10.87,2.22,18.44,2.22,18.44,4.8,2,14.07,1.65,14.07,1.65s9.28.33,14.08-1.65c0,0-2.76-7.57,2.22-18.44C735.28,75.74,723.14,73.31,715.15,73.31Z"/><path class="cls-16" d="M715.15,75.57c-6.52,0-16.33,2.05-12.9,8.88,4.2,8.39,1.52,20.44,1.52,20.44,3.91,1.64,11.38,1.36,11.38,1.36s7.47.28,11.38-1.36c0,0-2.68-12,1.53-20.44C731.48,77.62,721.68,75.57,715.15,75.57Z"/><path class="cls-18" d="M728.65,75.94,700.67,89c2.33,8.25.41,13.54.41,13.54a16,16,0,0,0,3,.86c-.15.94-.27,1.47-.27,1.47,3.91,1.64,11.38,1.36,11.38,1.36s7.47.28,11.38-1.36c0,0-.12-.53-.27-1.47a16.3,16.3,0,0,0,3-.86s-2.76-7.57,2.22-18.44C733.27,80.13,731.62,77.56,728.65,75.94Z"/><rect class="cls-13" x="693.63" y="99.18" width="128.02" height="54.27"/><rect class="cls-19" x="708.77" y="110.59" width="22.88" height="30.94"/><rect class="cls-20" x="710.44" y="112.84" width="19.54" height="26.42"/><rect class="cls-19" x="697.36" y="110.59" width="8.32" height="30.94"/><rect class="cls-20" x="698.99" y="112.84" width="5.06" height="26.42"/><rect class="cls-19" x="708.77" y="102.43" width="22.88" height="6.03"/><rect class="cls-20" x="710.44" y="103.82" width="19.54" height="3.25"/><rect class="cls-19" x="697.36" y="102.43" width="8.32" height="6.03"/><rect class="cls-20" x="698.99" y="103.82" width="5.06" height="3.25"/><rect class="cls-19" x="708.77" y="143.69" width="22.88" height="6.03"/><rect class="cls-20" x="710.44" y="145.08" width="19.54" height="3.25"/><rect class="cls-19" x="697.36" y="143.69" width="8.32" height="6.03"/><rect class="cls-20" x="698.99" y="145.08" width="5.06" height="3.25"/><rect class="cls-19" x="746.15" y="110.59" width="22.88" height="30.94"/><rect class="cls-20" x="747.81" y="112.84" width="19.54" height="26.42"/><rect class="cls-19" x="734.74" y="110.59" width="8.32" height="30.94"/><rect class="cls-20" x="736.36" y="112.84" width="5.07" height="26.42"/><rect class="cls-19" x="746.15" y="102.43" width="22.88" height="6.03"/><rect class="cls-20" x="747.81" y="103.82" width="19.54" height="3.25"/><rect class="cls-19" x="734.74" y="102.43" width="8.32" height="6.03"/><rect class="cls-20" x="736.36" y="103.82" width="5.07" height="3.25"/><rect class="cls-19" x="746.15" y="143.69" width="22.88" height="6.03"/><rect class="cls-20" x="747.81" y="145.08" width="19.54" height="3.25"/><rect class="cls-19" x="734.74" y="143.69" width="8.32" height="6.03"/><rect class="cls-20" x="736.36" y="145.08" width="5.07" height="3.25"/><rect class="cls-19" x="783.52" y="110.59" width="22.88" height="30.94"/><rect class="cls-20" x="785.19" y="112.84" width="19.54" height="26.42"/><rect class="cls-19" x="772.11" y="110.59" width="8.32" height="30.94"/><rect class="cls-20" x="773.74" y="112.84" width="5.06" height="26.42"/><rect class="cls-19" x="783.52" y="102.43" width="22.88" height="6.03"/><rect class="cls-20" x="785.19" y="103.82" width="19.54" height="3.25"/><rect class="cls-19" x="772.11" y="102.43" width="8.32" height="6.03"/><rect class="cls-20" x="773.74" y="103.82" width="5.06" height="3.25"/><rect class="cls-19" x="783.52" y="143.69" width="22.88" height="6.03"/><rect class="cls-20" x="785.19" y="145.08" width="19.54" height="3.25"/><rect class="cls-19" x="772.11" y="143.69" width="8.32" height="6.03"/><rect class="cls-20" x="773.74" y="145.08" width="5.06" height="3.25"/><rect class="cls-19" x="809.48" y="110.59" width="8.33" height="30.94"/><rect class="cls-20" x="811.11" y="112.84" width="5.06" height="26.42"/><polygon class="cls-21" points="710.44 139.26 710.44 112.84 729.98 112.84 710.44 139.26"/><rect class="cls-21" x="698.99" y="112.84" width="5.06" height="26.42"/><polygon class="cls-21" points="747.81 139.26 747.81 112.84 767.35 112.84 747.81 139.26"/><rect class="cls-21" x="736.36" y="112.84" width="5.07" height="26.42"/><polygon class="cls-21" points="785.19 139.26 785.19 112.84 804.73 112.84 785.19 139.26"/><rect class="cls-21" x="773.74" y="112.84" width="5.06" height="26.42"/><rect class="cls-21" x="811.11" y="112.84" width="5.06" height="26.42"/><rect class="cls-19" x="809.48" y="102.43" width="8.33" height="6.03"/><rect class="cls-20" x="811.11" y="103.82" width="5.06" height="3.25"/><rect class="cls-19" x="809.48" y="143.69" width="8.33" height="6.03"/><rect class="cls-20" x="811.11" y="145.08" width="5.06" height="3.25"/><rect class="cls-22" x="693.63" y="99.18" width="128.02" height="10.39"/><rect class="cls-19" x="689.72" y="93.7" width="135.84" height="6.39"/><path class="cls-23" d="M758.63,86.48c-32.71,0-6.36-40.63,0-40.63S787.75,86.48,758.63,86.48Z"/><path class="cls-24" d="M761.43,67.78h-7.58a14.46,14.46,0,0,1-4.36,12l7.78,9.4H758l7.78-9.4A14.47,14.47,0,0,1,761.43,67.78Z"/><path class="cls-25" d="M761.43,67.78h-7.58a14,14,0,0,1-1,7c3.16-1.23,5.69-3.84,8.47-6.23A7,7,0,0,1,761.43,67.78Z"/><path class="cls-24" d="M767.62,55.33c-.29-.75-.8-.36-1.2.13.12-5.85-3-8.82-3-8.82h-11.6s-3.12,3-3,8.78c-.39-.47-.88-.82-1.16-.09-.53,1.36.71,3.23.47,5.12-.16,1.28.85,1.15,1.49.79a21.22,21.22,0,0,0,1.17,3.44c1.21,2.82,4.7,5.39,6.83,5.39s5.57-2.59,6.84-5.39a16.23,16.23,0,0,0,1.17-3.46c.64.37,1.68.53,1.52-.77C766.91,58.56,768.15,56.69,767.62,55.33Z"/><path class="cls-26" d="M750.45,73.88l-.88.25h.06A3,3,0,0,0,750.45,73.88Z"/><path class="cls-26" d="M764.93,73.91a2.88,2.88,0,0,0,.74.21Z"/><path class="cls-27" d="M775.9,79a3,3,0,0,0-.33-.44c-1.58-1.73-6.54-3.41-9.9-4.39a2.88,2.88,0,0,1-.74-.21,3.91,3.91,0,0,1-2.08-2.64l-3.08,2.34c-.73.41-1.46,2.61-2.12,2.61s-1.36-2.2-2.1-2.61l-3.09-2.34a3.93,3.93,0,0,1-2,2.61,3,3,0,0,1-.82.24h-.06c-3.32,1-8.19,2.62-9.81,4.32a2.65,2.65,0,0,0-.38.5c-.81,1.47-1.58,9.1-2,14.75H778C777.48,88.05,776.71,80.42,775.9,79Z"/><path class="cls-28" d="M756.82,77.48l-4.53,6.58a.58.58,0,0,0,.42.91l6.87.68a.58.58,0,0,0,.62-.71l-1.75-7.26a.59.59,0,0,0-.57-.45h-.59A.57.57,0,0,0,756.82,77.48Z"/><path class="cls-28" d="M758.5,77.48,763,84.06a.58.58,0,0,1-.42.91l-6.87.68a.58.58,0,0,1-.63-.71l1.76-7.26a.57.57,0,0,1,.56-.45H758A.61.61,0,0,1,758.5,77.48Z"/><path class="cls-29" d="M756.82,77.52l-4.67,8.17a.59.59,0,0,0,.43.87l7,1a.58.58,0,0,0,.64-.69l-1.8-9.13a.58.58,0,0,0-.57-.47h-.53A.6.6,0,0,0,756.82,77.52Z"/><path class="cls-29" d="M758.49,77.52l4.67,8.17a.59.59,0,0,1-.43.87l-7,1a.58.58,0,0,1-.65-.69l1.8-9.13a.58.58,0,0,1,.57-.47H758A.6.6,0,0,1,758.49,77.52Z"/><path class="cls-30" d="M756.85,77.62l-3.25,9.23a.59.59,0,0,0,.55.78h7a.58.58,0,0,0,.54-.78l-3.24-9.23a.6.6,0,0,0-.55-.39h-.53A.58.58,0,0,0,756.85,77.62Z"/><path class="cls-28" d="M755.78,77a.56.56,0,1,1-.55-.55A.56.56,0,0,1,755.78,77Z"/><circle class="cls-28" cx="760.22" cy="76.97" r="0.55"/><path class="cls-31" d="M774.37,74.16a3.42,3.42,0,0,0-1.61-6.07A3.42,3.42,0,0,0,771.32,62a3.42,3.42,0,0,0-1.45-6.25,3.4,3.4,0,0,0,1.09-2.5,3.44,3.44,0,0,0-2.06-3.14c1.06-5.27-9.14-15.21-11.26-7.64-2.12-7.57-12.32,2.37-11.27,7.64a3.42,3.42,0,0,0-1,5.64A3.42,3.42,0,0,0,744,62a3.42,3.42,0,0,0-1.44,6.05,3.42,3.42,0,0,0-1.61,6.07,3.43,3.43,0,1,0,3,.61,3.43,3.43,0,0,0,2.52-3.3,3.38,3.38,0,0,0-1.31-2.68,3.43,3.43,0,0,0,1.39-6.25,3.42,3.42,0,0,0,1.65-5.85,3.44,3.44,0,0,0,3-3.4c0-.06,0-.13,0-.19,4.26.21,5.87-3.11,6.48-5.55.6,2.44,2.22,5.76,6.48,5.55,0,.06,0,.13,0,.19a3.44,3.44,0,0,0,3,3.4,3.42,3.42,0,0,0,1.65,5.85,3.43,3.43,0,0,0,1.38,6.25,3.42,3.42,0,0,0,1.22,6,3.42,3.42,0,1,0,3-.61Z"/><text class="cls-32" transform="translate(236.33 49.21)">El<tspan class="cls-33" x="10.67" y="0"> </tspan><tspan x="15.82" y="0">tribunal</tspan><tspan class="cls-33" x="55.17" y="0"> </tspan><tspan x="60.32" y="0">con</tspan><tspan class="cls-33" x="79.67" y="0"> </tspan><tspan x="84.81" y="0">sede</tspan><tspan class="cls-33" x="110.83" y="0"> </tspan><tspan x="115.98" y="0">en</tspan><tspan class="cls-34" x="129.33" y="0"> </tspan><tspan x="133.45" y="0">Arusha,</tspan><tspan class="cls-35" x="174.8" y="0"> </tspan><tspan class="cls-36" x="179.62" y="0">T</tspan><tspan x="185.62" y="0">anzania,</tspan><tspan class="cls-33" x="230.98" y="0"> </tspan><tspan x="236.13" y="0">comparte</tspan><tspan class="cls-33" x="286.15" y="0"> </tspan><tspan x="291.3" y="0">fiscal</tspan><tspan class="cls-33" x="318.64" y="0"> </tspan><tspan x="323.78" y="0">con</tspan><tspan class="cls-33" x="343.13" y="0"> </tspan><tspan x="348.28" y="0">el</tspan><tspan class="cls-33" x="357.62" y="0"> </tspan><tspan x="362.76" y="0">tribunal </tspan><tspan x="0" y="14.4">penal</tspan><tspan class="cls-37" x="29.36" y="14.4"> </tspan><tspan x="33.8" y="14.4">internacional</tspan><tspan class="cls-37" x="101.84" y="14.4"> </tspan><tspan x="106.28" y="14.4">para</tspan><tspan class="cls-38" x="130.29" y="14.4"> </tspan><tspan x="134.73" y="14.4">la</tspan><tspan class="cls-39" x="144.07" y="14.4"> </tspan><tspan x="147.62" y="14.4">Antigua</tspan><tspan class="cls-40" x="188.32" y="14.4"> </tspan><tspan class="cls-41" x="192.47" y="14.4">Y</tspan><tspan x="199.81" y="14.4">ugoslavia,</tspan><tspan class="cls-37" x="253.84" y="14.4"> </tspan><tspan x="258.28" y="14.4">lo</tspan><tspan class="cls-37" x="267.62" y="14.4"> </tspan><tspan x="272.05" y="14.4">que</tspan><tspan class="cls-38" x="292.08" y="14.4"> </tspan><tspan x="296.51" y="14.4">es</tspan><tspan class="cls-37" x="309.18" y="14.4"> </tspan><tspan x="313.62" y="14.4">cuestionable,</tspan><tspan class="cls-37" x="384.34" y="14.4"> </tspan><tspan x="388.77" y="14.4">no </tspan><tspan x="0" y="28.8">solo</tspan><tspan class="cls-42" x="22.01" y="28.8"> </tspan><tspan x="26.34" y="28.8">por</tspan><tspan class="cls-43" x="43.69" y="28.8"> </tspan><tspan x="48.01" y="28.8">los</tspan><tspan class="cls-42" x="63.35" y="28.8"> </tspan><tspan x="67.68" y="28.8">millares</tspan><tspan class="cls-43" x="109.02" y="28.8"> </tspan><tspan x="113.35" y="28.8">de</tspan><tspan class="cls-42" x="126.7" y="28.8"> </tspan><tspan x="131.03" y="28.8">kilómetros</tspan><tspan class="cls-42" x="185.71" y="28.8"> </tspan><tspan x="190.04" y="28.8">de</tspan><tspan class="cls-43" x="203.38" y="28.8"> </tspan><tspan x="207.71" y="28.8">distancia,</tspan><tspan class="cls-42" x="258.41" y="28.8"> </tspan><tspan x="262.74" y="28.8">sino</tspan><tspan class="cls-43" x="284.75" y="28.8"> </tspan><tspan x="289.08" y="28.8">por</tspan><tspan class="cls-42" x="306.42" y="28.8"> </tspan><tspan x="310.75" y="28.8">las</tspan><tspan class="cls-43" x="326.09" y="28.8"> </tspan><tspan x="330.42" y="28.8">diferencias</tspan><tspan class="cls-42" x="388.45" y="28.8"> </tspan><tspan x="392.78" y="28.8">el </tspan><tspan x="0" y="43.2">derecho sustancial aplicable y las particularidades de los hechos.</tspan><tspan x="0" y="72">Adicionalmente, el tribunal también debe compartir sala de apelaciones con </tspan><tspan x="0" y="86.4">el</tspan><tspan class="cls-44" x="9.34" y="86.4"> </tspan><tspan x="19.25" y="86.4">tribunal</tspan><tspan class="cls-44" x="58.61" y="86.4"> </tspan><tspan x="68.51" y="86.4">para</tspan><tspan class="cls-44" x="92.53" y="86.4"> </tspan><tspan x="102.44" y="86.4">la</tspan><tspan class="cls-45" x="111.78" y="86.4"> </tspan><tspan x="119.72" y="86.4">Antigua</tspan><tspan class="cls-46" x="160.42" y="86.4"> </tspan><tspan class="cls-41" x="169.68" y="86.4">Y</tspan><tspan x="177.02" y="86.4">ugoslavia,</tspan><tspan class="cls-44" x="231.06" y="86.4"> </tspan><tspan x="240.97" y="86.4">lo</tspan><tspan class="cls-44" x="250.31" y="86.4"> </tspan><tspan x="260.22" y="86.4">que</tspan><tspan class="cls-44" x="280.24" y="86.4"> </tspan><tspan x="290.15" y="86.4">nuevamente</tspan><tspan class="cls-44" x="356.19" y="86.4"> </tspan><tspan x="366.1" y="86.4">resulta </tspan><tspan x="0" y="100.8">problemático,</tspan><tspan class="cls-47" x="72.04" y="100.8"> </tspan><tspan x="76.75" y="100.8">para</tspan><tspan class="cls-48" x="100.77" y="100.8"> </tspan><tspan x="105.49" y="100.8">garantizar</tspan><tspan class="cls-47" x="158.85" y="100.8"> </tspan><tspan x="163.57" y="100.8">un</tspan><tspan class="cls-47" x="176.91" y="100.8"> </tspan><tspan x="181.63" y="100.8">juicio</tspan><tspan class="cls-48" x="208.98" y="100.8"> </tspan><tspan x="213.69" y="100.8">justo</tspan><tspan class="cls-47" x="239.04" y="100.8"> </tspan><tspan x="243.76" y="100.8">en</tspan><tspan class="cls-48" x="257.11" y="100.8"> </tspan><tspan x="261.82" y="100.8">cada</tspan><tspan class="cls-47" x="287.85" y="100.8"> </tspan><tspan x="292.56" y="100.8">caso,</tspan><tspan class="cls-47" x="321.25" y="100.8"> </tspan><tspan x="325.96" y="100.8">sobre</tspan><tspan class="cls-48" x="355.98" y="100.8"> </tspan><tspan x="360.7" y="100.8">todo</tspan><tspan class="cls-47" x="384.05" y="100.8"> </tspan><tspan x="388.77" y="100.8">en </tspan><tspan x="0" y="115.2">relación con los procesados en Ruanda.</tspan></text></g></g></svg>