<svg xmlns="http://www.w3.org/2000/svg" viewBox="0 0 874.77 210.9"><defs><style>.cls-1{isolation:isolate;}.cls-2,.cls-3{fill:#d3d3d3;}.cls-2{opacity:0.45;}.cls-3{mix-blend-mode:soft-light;}.cls-4{fill:#9d6b3b;}.cls-5{fill:#39486b;}.cls-6{fill:#fcc083;}.cls-7{fill:#24272b;}.cls-8{fill:#4d2000;}.cls-9{fill:#843e19;}.cls-10{fill:#cdcdcd;}.cls-11{fill:#c9cccc;}.cls-12{fill:#a8a8a8;}.cls-13{fill:#a0a4a4;}.cls-14{fill:#c6c8c8;opacity:0.74;}.cls-14,.cls-26{mix-blend-mode:multiply;}.cls-15{fill:#e8e9e9;}.cls-16{fill:#b5b8b8;}.cls-17{fill:#666c75;}.cls-18{fill:#a3a7ac;}.cls-19{fill:#fdcd9f;}.cls-20{fill:#23282b;}.cls-21{fill:#c22f2f;}.cls-22{fill:#1e1e1e;}.cls-23{fill:#855a2b;}.cls-24{fill:#6c3900;}.cls-25{fill:#bb9877;}.cls-26{fill:#c0a081;opacity:0.44;}.cls-27{fill:#f4bc02;}.cls-28{fill:#353535;}.cls-29{fill:#efefef;}.cls-30{fill:#dbdbdb;}.cls-31{fill:#a3a5a6;}.cls-32{fill:#f7f7f7;}.cls-33{fill:#a4a4a4;}.cls-34{fill:#9a816d;}.cls-35{fill:#b6a492;}.cls-36{fill:#45494c;}.cls-37{fill:#5a5e60;}.cls-38{fill:#303336;}.cls-39{fill:#414447;}.cls-40{fill:#35383b;}.cls-41{fill:#9c9d9f;}.cls-42{fill:#9f6432;}.cls-43{fill:#515b5b;}.cls-44{font-size:13px;font-family:ArialMT, Arial;}.cls-45{letter-spacing:0.02em;}.cls-46{letter-spacing:0.02em;}.cls-47{letter-spacing:0em;}.cls-48{letter-spacing:-0.06em;}.cls-49{letter-spacing:0.21em;}.cls-50{letter-spacing:0.21em;}.cls-51{letter-spacing:0.21em;}.cls-52{letter-spacing:-0.02em;}.cls-53{letter-spacing:-0.02em;}.cls-54{letter-spacing:0.18em;}.cls-55{letter-spacing:0.18em;}.cls-56{letter-spacing:0.05em;}.cls-57{letter-spacing:0.05em;}.cls-58{letter-spacing:0.13em;}.cls-59{letter-spacing:0.13em;}.cls-60{letter-spacing:0.05em;}</style></defs><title>ruanda4</title><g class="cls-1"><g id="Capa_1" data-name="Capa 1"><rect class="cls-2" x="-8.24" y="-2.65" width="886.63" height="220.62"/><circle class="cls-3" cx="723.21" cy="105.45" r="96.55"/><rect class="cls-4" x="708.79" y="107.05" width="28.85" height="20.44"/><path class="cls-5" d="M718.9,137.76h8.41a26,26,0,0,0,4.26-.66,4.65,4.65,0,0,0,3.66-4.53v-.08a4.64,4.64,0,0,0-4.63-4.64l-14.76,0a4.64,4.64,0,0,0-4.64,4.64v.2a4.64,4.64,0,0,0,3.75,4.55A28.26,28.26,0,0,0,718.9,137.76Z"/><path class="cls-6" d="M717.27,130.53c-.68,0-1.23.74-1.23,1.66s.55,1.65,1.23,1.65,1.24-.74,1.24-1.65S718,130.53,717.27,130.53Z"/><path class="cls-6" d="M729,130.53c-.68,0-1.23.74-1.23,1.66s.55,1.65,1.23,1.65,1.24-.74,1.24-1.65S729.67,130.53,729,130.53Z"/><path class="cls-6" d="M726.22,126.6c-.61-.3-2.2-.81-2.2-.81l-.63-1.08a.31.31,0,0,0-.26-.19h0a.31.31,0,0,0-.26.19l-.63,1.08s-1.58.51-2.2.81a2.61,2.61,0,0,0-1.33,1.53l-1.09,3h11l-1.09-3A2.61,2.61,0,0,0,726.22,126.6Z"/><path class="cls-7" d="M723.13,126.54a5.83,5.83,0,0,0-4.76,1.81,8,8,0,0,0-1.53,4.73,7.83,7.83,0,0,0,2.59,5.85,6.35,6.35,0,0,0,7.4,0,7.87,7.87,0,0,0,2.59-5.85,8,8,0,0,0-1.53-4.73A5.84,5.84,0,0,0,723.13,126.54Z"/><rect class="cls-8" x="689.38" y="164.22" width="18.89" height="21.58"/><path class="cls-9" d="M680.86,182.86a3.15,3.15,0,0,0-3.86-.81,19.69,19.69,0,0,1-15.47,0,3.15,3.15,0,0,0-3.86.81l0,0c-.92,1.54.27,3.25,1.71,3.9a25,25,0,0,0,19.84,0c1.43-.65,2.62-2.36,1.7-3.9Z"/><path class="cls-9" d="M710.42,182.86a3.15,3.15,0,0,0-3.86-.81,19.69,19.69,0,0,1-15.47,0,3.15,3.15,0,0,0-3.86.81.13.13,0,0,0,0,0c-.92,1.54.27,3.25,1.7,3.9a25,25,0,0,0,19.84,0c1.44-.65,2.63-2.36,1.71-3.9Z"/><rect class="cls-4" x="653.64" y="151.43" width="60.8" height="21.79"/><polygon class="cls-10" points="682.26 155.75 680.07 153.59 680.07 155.75 682.26 155.75"/><polygon class="cls-11" points="680.07 153.59 672.56 153.59 672.56 165.21 682.26 165.21 682.26 155.75 680.07 155.75 680.07 153.59"/><polygon class="cls-12" points="680.07 155.75 682.26 155.75 680.07 153.59 680.07 155.75"/><rect class="cls-13" x="673.76" y="159.4" width="7.51" height="0.5"/><rect class="cls-13" x="673.76" y="160.32" width="7.51" height="0.5"/><rect class="cls-13" x="673.76" y="161.24" width="7.51" height="0.5"/><rect class="cls-13" x="673.76" y="162.16" width="7.51" height="0.5"/><rect class="cls-13" x="673.76" y="163.08" width="7.51" height="0.5"/><rect class="cls-13" x="673.76" y="156.67" width="7.51" height="0.5"/><rect class="cls-13" x="673.76" y="157.59" width="7.51" height="0.5"/><rect class="cls-13" x="673.76" y="158.51" width="7.51" height="0.5"/><polygon class="cls-14" points="678.45 155.97 672.58 155.97 672.58 165.16 680.65 165.16 680.65 158.13 678.45 155.97"/><polygon class="cls-10" points="679.23 158.48 677.03 156.32 677.03 158.48 679.23 158.48"/><polygon class="cls-15" points="677.03 156.32 669.53 156.32 669.53 167.94 679.23 167.94 679.23 158.48 677.03 158.48 677.03 156.32"/><polygon class="cls-12" points="677.03 158.48 679.23 158.48 677.03 156.32 677.03 158.48"/><rect class="cls-16" x="670.73" y="162.13" width="7.51" height="0.5"/><rect class="cls-16" x="670.73" y="163.05" width="7.51" height="0.5"/><rect class="cls-16" x="670.73" y="163.97" width="7.51" height="0.5"/><rect class="cls-16" x="670.73" y="164.89" width="7.51" height="0.5"/><rect class="cls-16" x="670.73" y="165.82" width="7.51" height="0.5"/><rect class="cls-16" x="670.73" y="159.4" width="7.51" height="0.5"/><rect class="cls-16" x="670.73" y="160.32" width="7.51" height="0.5"/><rect class="cls-16" x="670.73" y="161.24" width="7.51" height="0.5"/><polygon class="cls-17" points="677.81 178.19 660.63 178.19 662.39 173.22 676.04 173.22 677.81 178.19"/><path class="cls-18" d="M678.63,163.61l-3,1.32,2.27,4.91a3.14,3.14,0,0,1,.26,1.63l-.62,5.43a4.19,4.19,0,0,0-1-.11H661.32c-.32,0-.7-3.16-.9-5.11a3.07,3.07,0,0,1,1-2.56l3.94-3.71-2.5-2.42-5.17,4.78a3.07,3.07,0,0,0-1,2.45l.64,10.13a4.14,4.14,0,0,0,2,2.33c1.86,1,5,2.44,6.43,2.44h7c1.54,0,4.52-1.57,6.21-2.52a4.07,4.07,0,0,0,1.82-2.06l.92-9.1a3,3,0,0,0-.26-1.58Z"/><path class="cls-19" d="M663.82,178.37c-.64,0-1.16.69-1.16,1.54s.52,1.55,1.16,1.55,1.15-.69,1.15-1.55S664.45,178.37,663.82,178.37Z"/><path class="cls-19" d="M674.75,178.37c-.64,0-1.16.69-1.16,1.54s.52,1.55,1.16,1.55,1.15-.69,1.15-1.55S675.38,178.37,674.75,178.37Z"/><path class="cls-19" d="M672.17,174.7c-.58-.28-2.06-.76-2.06-.76l-.58-1a.31.31,0,0,0-.25-.18h0a.31.31,0,0,0-.25.18l-.58,1s-1.49.48-2.06.76a2.47,2.47,0,0,0-1.24,1.43l-1,2.83h10.29l-1-2.83A2.47,2.47,0,0,0,672.17,174.7Z"/><path class="cls-20" d="M669.28,174.65a5.45,5.45,0,0,0-4.44,1.68,7.46,7.46,0,0,0-1.43,4.42,7.29,7.29,0,0,0,2.42,5.45,5.87,5.87,0,0,0,6.9,0,7.29,7.29,0,0,0,2.42-5.45,7.52,7.52,0,0,0-1.42-4.42A5.48,5.48,0,0,0,669.28,174.65Z"/><path class="cls-6" d="M665.24,165.48s2.29-1.67.76-3.19-3.21.75-3.21.75Z"/><path class="cls-6" d="M678.64,163.59s-.7-2.52-2.59-1.72-.42,3.16-.42,3.16Z"/><path class="cls-9" d="M711.67,33.9h0a1.73,1.73,0,0,0,1.73-1.73v-9.4A1.76,1.76,0,0,0,711.67,21h0a1.72,1.72,0,0,0-1.73,1.73v9.4A1.76,1.76,0,0,0,711.67,33.9Z"/><path class="cls-9" d="M734.86,33.9h0a1.76,1.76,0,0,0,1.76-1.76V22.77A1.76,1.76,0,0,0,734.9,21h0a1.73,1.73,0,0,0-1.73,1.73v9.43A1.73,1.73,0,0,0,734.86,33.9Z"/><rect class="cls-21" x="713.84" y="17.54" width="18.89" height="21.58"/><rect class="cls-22" x="715.64" y="28.65" width="15.34" height="9.35"/><path class="cls-9" d="M712.72,19.76a2.89,2.89,0,0,0,3.52.74,18,18,0,0,1,14.09,0,2.89,2.89,0,0,0,3.52-.74l0,0c.84-1.4-.25-3-1.56-3.56a22.71,22.71,0,0,0-18.07,0c-1.31.59-2.4,2.16-1.56,3.56Z"/><path class="cls-9" d="M739.4,33.9h0a1.73,1.73,0,0,0,1.73-1.73v-9.4A1.76,1.76,0,0,0,739.4,21h0a1.72,1.72,0,0,0-1.73,1.73v9.4A1.76,1.76,0,0,0,739.4,33.9Z"/><path class="cls-9" d="M762.59,33.9h0a1.76,1.76,0,0,0,1.77-1.76V22.77A1.76,1.76,0,0,0,762.62,21h0a1.72,1.72,0,0,0-1.73,1.73v9.43A1.72,1.72,0,0,0,762.59,33.9Z"/><rect class="cls-21" x="741.57" y="17.54" width="18.89" height="21.58"/><path class="cls-9" d="M740.45,19.76a2.89,2.89,0,0,0,3.52.74,18,18,0,0,1,14.09,0,2.89,2.89,0,0,0,3.52-.74s0,0,0,0c.84-1.4-.24-3-1.55-3.56a22.71,22.71,0,0,0-18.07,0c-1.31.59-2.4,2.16-1.56,3.56Z"/><path class="cls-9" d="M683.55,33.9h0a1.73,1.73,0,0,0,1.73-1.73v-9.4A1.76,1.76,0,0,0,683.55,21h0a1.72,1.72,0,0,0-1.73,1.73v9.4A1.76,1.76,0,0,0,683.55,33.9Z"/><path class="cls-9" d="M706.74,33.9h0a1.76,1.76,0,0,0,1.76-1.76V22.77A1.76,1.76,0,0,0,706.78,21h0A1.73,1.73,0,0,0,705,22.74v9.43A1.73,1.73,0,0,0,706.74,33.9Z"/><rect class="cls-21" x="685.72" y="17.54" width="18.89" height="21.58"/><path class="cls-9" d="M684.6,19.76a2.89,2.89,0,0,0,3.52.74,18,18,0,0,1,14.09,0,2.89,2.89,0,0,0,3.52-.74l0,0c.84-1.4-.25-3-1.56-3.56a22.71,22.71,0,0,0-18.07,0c-1.31.59-2.4,2.16-1.56,3.56Z"/><polygon class="cls-20" points="713.63 28.05 732.94 28.05 730.96 33.63 715.61 33.63 713.63 28.05"/><rect class="cls-4" x="678.6" y="32.03" width="89.23" height="22.09"/><path class="cls-23" d="M703.19,48.48a2.07,2.07,0,1,1-2.06-2.06A2.07,2.07,0,0,1,703.19,48.48Z"/><path class="cls-24" d="M702.86,48.48a1.73,1.73,0,1,1-1.73-1.72A1.73,1.73,0,0,1,702.86,48.48Z"/><path class="cls-25" d="M700.1,47.46c-.14-.41,7.38-3.51,7.79-3.66a.77.77,0,1,1,.52,1.45C708,45.4,700.25,47.86,700.1,47.46Z"/><path class="cls-4" d="M703.28,46.87a.69.69,0,0,0,.47,0,.68.68,0,0,0,.41-.88.69.69,0,0,0-.89-.41.66.66,0,0,0-.36.3.73.73,0,0,1,.39.42A.77.77,0,0,1,703.28,46.87Z"/><path class="cls-26" d="M702.49,47a.71.71,0,0,0,0-.43,1.21,1.21,0,0,0-.21-.37c-1.25.58-2.2,1.08-2.15,1.23A6.36,6.36,0,0,0,702.49,47Z"/><path class="cls-4" d="M699.56,46.39a2,2,0,0,0,.06,1.24,1.9,1.9,0,0,0,.76,1,.29.29,0,0,1,.11.31,1.71,1.71,0,0,0-.07.39l1.74-.63a1.62,1.62,0,0,0-.3-.26.26.26,0,0,1-.11-.3,2,2,0,0,0-.06-1.25,2,2,0,0,0-.76-1,.29.29,0,0,1-.11-.31,1.71,1.71,0,0,0,.07-.39l-1.74.63a1.62,1.62,0,0,0,.3.26A.27.27,0,0,1,699.56,46.39Z"/><path class="cls-4" d="M700.67,49.51h0a.54.54,0,0,0,.53.11l.56-.21a.51.51,0,0,0,.34-.42h0Z"/><path class="cls-27" d="M700,48.09l1.73-.63a.2.2,0,0,1,.26.12h0a.21.21,0,0,1-.12.26l-1.74.63a.2.2,0,0,1-.25-.12h0A.21.21,0,0,1,700,48.09Z"/><path class="cls-25" d="M700.32,49.18l1.83-.66a.21.21,0,0,1,.27.12h0a.2.2,0,0,1-.13.27l-1.82.67a.21.21,0,0,1-.27-.13h0A.21.21,0,0,1,700.32,49.18Z"/><path class="cls-4" d="M699.21,45.52h0a.51.51,0,0,1,.34-.42l.56-.21a.54.54,0,0,1,.53.11h0Z"/><path class="cls-27" d="M699.6,47.05l1.73-.63a.2.2,0,0,0,.13-.25h0a.19.19,0,0,0-.25-.11l-1.74.63a.19.19,0,0,0-.12.25h0A.2.2,0,0,0,699.6,47.05Z"/><path class="cls-25" d="M699.16,46l1.83-.67a.21.21,0,0,0,.13-.27h0a.21.21,0,0,0-.27-.12l-1.83.66a.21.21,0,0,0-.12.27h0A.21.21,0,0,0,699.16,46Z"/><path class="cls-28" d="M713,42.26l-1.83-5.64a4.23,4.23,0,0,1,.49-3.64L714,29.5a4.68,4.68,0,0,0,1.07.12h16.61a4.49,4.49,0,0,0,1.47-.24l2.06,4.48a4.2,4.2,0,0,1,.1,3.3l-2.69,6.92,3.56,1.28,3.35-8.46a4.22,4.22,0,0,0,.07-2.95l-2.89-8.34a4.63,4.63,0,0,0-2.26-2.6c-2.1-1.08-5.61-2.75-7.24-2.75h-7.91c-1.74,0-5.08,1.76-7,2.82a4.69,4.69,0,0,0-2,2.33l-3.16,7.82a4.28,4.28,0,0,0-.09,3l2.49,7.32Z"/><path class="cls-6" d="M732.59,44.08s-1.6,2.56.62,3.44,2.94-2.16,2.94-2.16Z"/><path class="cls-6" d="M709.47,43.47s.46,2.9,2.68,2.25.86-3.47.86-3.47Z"/><ellipse class="cls-6" cx="729.36" cy="26.11" rx="1.3" ry="1.74"/><path class="cls-6" d="M717.07,27.85c.71,0,1.29-.78,1.29-1.74s-.58-1.74-1.29-1.74-1.3.78-1.3,1.74S716.35,27.85,717.07,27.85Z"/><path class="cls-6" d="M720,32c.65.32,2.32.85,2.32.85l.65,1.14a.34.34,0,0,0,.28.19h0a.34.34,0,0,0,.28-.19l.65-1.14s1.67-.53,2.32-.85a2.75,2.75,0,0,0,1.39-1.6L729,27.19H717.43l1.14,3.18A2.72,2.72,0,0,0,720,32Z"/><path class="cls-29" d="M731.82,28.83c.38,0,.73-.22,1-1a11.31,11.31,0,0,0,.31-2.74,9.74,9.74,0,0,0-.53-3.38c-.2-.52-.46-.69-.75-.69s-.54.17-.75.69a9.76,9.76,0,0,0-.52,3.38,11.31,11.31,0,0,0,.31,2.74C731.1,28.61,731.45,28.83,731.82,28.83Z"/><path class="cls-30" d="M729.53,30.34c.58,0,1.13-.31,1.51-1.45a14.19,14.19,0,0,0,.48-3.78,12.1,12.1,0,0,0-.82-4.67c-.32-.73-.72-1-1.17-1s-.85.23-1.17,1a12.12,12.12,0,0,0-.81,4.67,13.8,13.8,0,0,0,.48,3.78C728.4,30,729,30.34,729.53,30.34Z"/><path class="cls-29" d="M714.8,28.83c-.37,0-.73-.22-1-1a11.31,11.31,0,0,1-.31-2.74,9.74,9.74,0,0,1,.53-3.38c.2-.52.46-.69.75-.69s.55.17.75.69a9.74,9.74,0,0,1,.53,3.38,11.31,11.31,0,0,1-.31,2.74C715.53,28.61,715.17,28.83,714.8,28.83Z"/><path class="cls-30" d="M717.09,30.34c-.58,0-1.13-.31-1.5-1.45a13.77,13.77,0,0,1-.49-3.78,12.1,12.1,0,0,1,.82-4.67c.32-.73.72-1,1.17-1s.85.23,1.17,1a12.1,12.1,0,0,1,.82,4.67,13.77,13.77,0,0,1-.49,3.78C718.22,30,717.67,30.34,717.09,30.34Z"/><path class="cls-29" d="M723.21,32a6.12,6.12,0,0,0,5-1.89,8.47,8.47,0,0,0,1.6-5A8.2,8.2,0,0,0,727.09,19a6.6,6.6,0,0,0-7.76,0,8.24,8.24,0,0,0-2.72,6.13,8.41,8.41,0,0,0,1.61,5A6.11,6.11,0,0,0,723.21,32Z"/><rect class="cls-31" x="716.3" y="41.3" width="13.83" height="10.16"/><rect class="cls-32" x="723.64" y="42.19" width="5.7" height="8.15"/><rect class="cls-33" x="726.28" y="40.92" width="0.29" height="4.2" transform="translate(680.93 769.29) rotate(-89.8)"/><rect class="cls-33" x="726.27" y="41.67" width="0.29" height="4.2" transform="matrix(0, -1, 1, 0, 680.18, 770.03)"/><rect class="cls-33" x="726.27" y="42.42" width="0.29" height="4.2" transform="translate(679.41 770.78) rotate(-89.8)"/><rect class="cls-33" x="726.27" y="43.17" width="0.29" height="4.2" transform="translate(678.67 771.52) rotate(-89.8)"/><rect class="cls-33" x="726.27" y="43.91" width="0.29" height="4.2" transform="translate(677.92 772.27) rotate(-89.8)"/><rect class="cls-33" x="726.27" y="44.66" width="0.29" height="4.2" transform="translate(677.17 773.01) rotate(-89.8)"/><rect class="cls-33" x="726.26" y="45.41" width="0.29" height="4.2" transform="translate(676.42 773.76) rotate(-89.8)"/><rect class="cls-33" x="726.26" y="46.16" width="0.29" height="4.2" transform="translate(675.65 774.5) rotate(-89.8)"/><rect class="cls-33" x="726.26" y="46.91" width="0.29" height="4.2" transform="translate(674.9 775.24) rotate(-89.8)"/><rect class="cls-32" x="717.34" y="42.19" width="5.7" height="8.15"/><rect class="cls-33" x="719.97" y="40.92" width="0.29" height="4.2" transform="translate(674.63 762.98) rotate(-89.8)"/><rect class="cls-33" x="719.97" y="41.67" width="0.29" height="4.2" transform="translate(673.96 763.73) rotate(-89.81)"/><rect class="cls-33" x="719.97" y="42.41" width="0.29" height="4.2" transform="translate(673.15 764.47) rotate(-89.8)"/><rect class="cls-33" x="719.97" y="43.16" width="0.29" height="4.2" transform="translate(672.39 765.22) rotate(-89.8)"/><rect class="cls-33" x="719.97" y="43.91" width="0.29" height="4.2" transform="translate(671.56 765.96) rotate(-89.8)"/><rect class="cls-33" x="719.96" y="44.66" width="0.29" height="4.2" transform="translate(670.88 766.71) rotate(-89.8)"/><rect class="cls-33" x="719.96" y="45.41" width="0.29" height="4.2" transform="translate(670.12 767.45) rotate(-89.8)"/><rect class="cls-33" x="719.96" y="46.16" width="0.29" height="4.2" transform="translate(669.39 768.2) rotate(-89.8)"/><rect class="cls-33" x="719.96" y="46.91" width="0.29" height="4.2" transform="translate(668.64 768.94) rotate(-89.8)"/><polygon class="cls-10" points="745.66 51.27 748.82 51.94 747.6 50.04 745.66 51.27"/><polygon class="cls-11" points="748.82 51.94 755.44 47.74 748.91 37.47 740.35 42.91 745.66 51.27 747.6 50.04 748.82 51.94"/><polygon class="cls-12" points="747.6 50.04 745.66 51.27 748.82 51.94 747.6 50.04"/><rect class="cls-13" x="743.74" y="44.9" width="7.85" height="0.53" transform="translate(92.43 408.07) rotate(-32.44)"/><rect class="cls-13" x="743.22" y="44.08" width="7.85" height="0.53" transform="translate(92.76 407.63) rotate(-32.43)"/><rect class="cls-13" x="742.7" y="43.27" width="7.85" height="0.53" transform="translate(93.11 407.22) rotate(-32.43)"/><rect class="cls-13" x="742.19" y="42.46" width="7.85" height="0.53" transform="translate(93.5 406.86) rotate(-32.44)"/><rect class="cls-13" x="741.67" y="41.64" width="7.85" height="0.53" transform="translate(93.82 406.41) rotate(-32.43)"/><rect class="cls-13" x="745.27" y="47.31" width="7.85" height="0.53" transform="translate(91.37 409.27) rotate(-32.44)"/><rect class="cls-13" x="744.75" y="46.49" width="7.85" height="0.53" transform="translate(91.7 408.82) rotate(-32.43)"/><rect class="cls-13" x="744.24" y="45.68" width="7.85" height="0.53" transform="matrix(0.84, -0.54, 0.54, 0.84, 92.06, 408.42)"/><polygon class="cls-14" points="748.9 48.93 754.08 45.64 748.93 37.53 741.8 42.05 745.75 48.26 748.9 48.93"/><polygon class="cls-10" points="746.8 47.16 749.96 47.83 748.75 45.92 746.8 47.16"/><polygon class="cls-15" points="749.96 47.83 756.58 43.63 750.06 33.36 741.49 38.8 746.8 47.16 748.75 45.92 749.96 47.83"/><polygon class="cls-12" points="748.75 45.92 746.8 47.16 749.96 47.83 748.75 45.92"/><rect class="cls-16" x="744.88" y="40.79" width="7.85" height="0.53" transform="translate(94.79 408) rotate(-32.43)"/><rect class="cls-16" x="744.36" y="39.97" width="7.85" height="0.53" transform="matrix(0.84, -0.54, 0.54, 0.84, 95.14, 407.59)"/><rect class="cls-16" x="743.85" y="39.16" width="7.85" height="0.53" transform="translate(95.52 407.24) rotate(-32.44)"/><rect class="cls-16" x="743.33" y="38.34" width="7.85" height="0.53" transform="translate(95.85 406.79) rotate(-32.43)"/><rect class="cls-16" x="742.81" y="37.53" width="7.85" height="0.53" transform="translate(96.21 406.39) rotate(-32.43)"/><rect class="cls-16" x="746.41" y="43.2" width="7.85" height="0.53" transform="translate(93.73 409.2) rotate(-32.43)"/><rect class="cls-16" x="745.9" y="42.38" width="7.85" height="0.53" transform="translate(94.09 408.8) rotate(-32.43)"/><rect class="cls-16" x="745.38" y="41.57" width="7.85" height="0.53" transform="translate(94.47 408.43) rotate(-32.44)"/><polygon class="cls-10" points="683.43 41.78 683.66 45 685.16 43.3 683.43 41.78"/><polygon class="cls-11" points="683.66 45 689.55 50.19 697.59 41.06 689.98 34.35 683.43 41.78 685.16 43.3 683.66 45"/><polygon class="cls-12" points="685.16 43.3 683.43 41.78 683.66 45 685.16 43.3"/><rect class="cls-13" x="689.6" y="38.08" width="0.53" height="7.85" transform="translate(202.12 531.68) rotate(-48.6)"/><rect class="cls-13" x="690.23" y="37.35" width="0.53" height="7.85" transform="translate(202.87 531.91) rotate(-48.6)"/><rect class="cls-13" x="690.87" y="36.63" width="0.53" height="7.85" transform="translate(203.65 532.16) rotate(-48.6)"/><rect class="cls-13" x="691.51" y="35.91" width="0.53" height="7.85" transform="translate(204.41 532.39) rotate(-48.6)"/><rect class="cls-13" x="692.15" y="35.18" width="0.53" height="7.85" transform="translate(205.17 532.62) rotate(-48.6)"/><rect class="cls-13" x="687.71" y="40.22" width="0.53" height="7.85" transform="translate(199.89 531) rotate(-48.6)"/><rect class="cls-13" x="688.34" y="39.5" width="0.53" height="7.85" transform="translate(200.65 531.24) rotate(-48.6)"/><rect class="cls-13" x="688.98" y="38.77" width="0.53" height="7.85" transform="translate(201.4 531.47) rotate(-48.6)"/><polygon class="cls-14" points="686.58 44.24 691.19 48.3 697.54 41.09 691.21 35.51 686.35 41.02 686.58 44.24"/><polygon class="cls-10" points="687.7 41.73 687.93 44.95 689.42 43.25 687.7 41.73"/><polygon class="cls-15" points="687.93 44.95 693.82 50.14 701.86 41.02 694.25 34.31 687.7 41.73 689.42 43.25 687.93 44.95"/><polygon class="cls-12" points="689.42 43.25 687.7 41.73 687.93 44.95 689.42 43.25"/><rect class="cls-16" x="693.86" y="38.03" width="0.53" height="7.85" transform="translate(203.61 534.88) rotate(-48.6)"/><rect class="cls-16" x="694.5" y="37.31" width="0.53" height="7.85" transform="translate(204.38 535.11) rotate(-48.6)"/><rect class="cls-16" x="695.14" y="36.58" width="0.53" height="7.85" transform="translate(205.13 535.34) rotate(-48.6)"/><rect class="cls-16" x="695.78" y="35.86" width="0.53" height="7.85" transform="translate(205.87 535.56) rotate(-48.6)"/><rect class="cls-16" x="696.41" y="35.14" width="0.53" height="7.85" transform="translate(206.64 535.8) rotate(-48.6)"/><rect class="cls-16" x="691.97" y="40.17" width="0.53" height="7.85" transform="translate(201.37 534.19) rotate(-48.6)"/><rect class="cls-16" x="692.61" y="39.45" width="0.53" height="7.85" transform="translate(202.13 534.42) rotate(-48.6)"/><rect class="cls-16" x="693.25" y="38.73" width="0.53" height="7.85" transform="translate(202.91 534.68) rotate(-48.6)"/><path class="cls-9" d="M760.5,182.78a3.15,3.15,0,0,0-3.86-.81,19.78,19.78,0,0,1-15.47,0,3.15,3.15,0,0,0-3.86.81l0,0c-.92,1.54.27,3.26,1.71,3.91a25,25,0,0,0,19.83,0c1.44-.65,2.63-2.37,1.71-3.91Z"/><path class="cls-9" d="M790.06,182.78a3.16,3.16,0,0,0-3.86-.81,19.78,19.78,0,0,1-15.47,0,3.17,3.17,0,0,0-3.87.81s0,0,0,0c-.92,1.54.28,3.26,1.71,3.91a25,25,0,0,0,19.84,0c1.44-.65,2.63-2.37,1.71-3.91Z"/><rect class="cls-4" x="733.74" y="151.34" width="60.8" height="21.8"/><polygon class="cls-10" points="786.16 156.23 783.96 154.07 783.96 156.23 786.16 156.23"/><polygon class="cls-11" points="783.96 154.07 776.46 154.07 776.46 165.7 786.16 165.7 786.16 156.23 783.96 156.23 783.96 154.07"/><polygon class="cls-12" points="783.96 156.23 786.16 156.23 783.96 154.07 783.96 156.23"/><rect class="cls-13" x="777.66" y="159.88" width="7.51" height="0.5"/><rect class="cls-13" x="777.66" y="160.81" width="7.51" height="0.5"/><rect class="cls-13" x="777.66" y="161.73" width="7.51" height="0.5"/><rect class="cls-13" x="777.66" y="162.65" width="7.51" height="0.5"/><rect class="cls-13" x="777.66" y="163.57" width="7.51" height="0.5"/><rect class="cls-13" x="777.66" y="157.15" width="7.51" height="0.5"/><rect class="cls-13" x="777.66" y="158.07" width="7.51" height="0.5"/><rect class="cls-13" x="777.66" y="159" width="7.51" height="0.5"/><polygon class="cls-14" points="782.35 156.46 776.48 156.46 776.48 165.65 784.55 165.65 784.55 158.62 782.35 156.46"/><polygon class="cls-10" points="783.13 158.96 780.93 156.8 780.93 158.96 783.13 158.96"/><polygon class="cls-15" points="780.93 156.8 773.43 156.8 773.43 168.43 783.13 168.43 783.13 158.96 780.93 158.96 780.93 156.8"/><polygon class="cls-12" points="780.93 158.96 783.13 158.96 780.93 156.8 780.93 158.96"/><rect class="cls-16" x="774.63" y="162.62" width="7.51" height="0.5"/><rect class="cls-16" x="774.63" y="163.54" width="7.51" height="0.5"/><rect class="cls-16" x="774.63" y="164.46" width="7.51" height="0.5"/><rect class="cls-16" x="774.63" y="165.38" width="7.51" height="0.5"/><rect class="cls-16" x="774.63" y="166.3" width="7.51" height="0.5"/><rect class="cls-16" x="774.63" y="159.88" width="7.51" height="0.5"/><rect class="cls-16" x="774.63" y="160.81" width="7.51" height="0.5"/><rect class="cls-16" x="774.63" y="161.73" width="7.51" height="0.5"/><polygon class="cls-34" points="786.92 178.08 769.88 178.08 771.63 173.15 785.17 173.15 786.92 178.08"/><path class="cls-35" d="M787.46,165.54,788.9,170a5,5,0,0,1-.58,4.25l-1.7,2.59a4.26,4.26,0,0,0-1-.11H771a3.94,3.94,0,0,0-1.3.21l-1.61-3.49a4.9,4.9,0,0,1-.11-3.85l2.18-5.62-3.14-1.13-2.79,7a5,5,0,0,0-.08,3.44l2.4,6.93a4.09,4.09,0,0,0,2,2.3c1.85.95,4.95,2.42,6.38,2.42h7c1.53,0,4.48-1.55,6.16-2.49a4,4,0,0,0,1.8-2l2.62-6.48a4.94,4.94,0,0,0,.1-3.45l-2-6Z"/><path class="cls-19" d="M781.33,174.62c-.57-.28-2-.75-2-.75l-.58-1a.31.31,0,0,0-.25-.18h0a.31.31,0,0,0-.25.18l-.57,1s-1.47.47-2,.75a2.38,2.38,0,0,0-1.23,1.41l-1,2.81h10.2l-1-2.81A2.45,2.45,0,0,0,781.33,174.62Z"/><path class="cls-20" d="M778.46,174.56a5.06,5.06,0,0,0-4.14,1.58,6.94,6.94,0,0,0-1.33,4.11,6.83,6.83,0,0,0,2.25,5.09,5.5,5.5,0,0,0,6.44,0,6.79,6.79,0,0,0,2.25-5.09,7,7,0,0,0-1.32-4.11A5.08,5.08,0,0,0,778.46,174.56Z"/><path class="cls-20" d="M778.6,185.52c-1.37.65-2.25,3.58-.18,4.28,1.06.36,1.86-.05,2.49.46s.44,1.45-.46,1.75c.87.74,2.8.09,3.11-1.54a2.4,2.4,0,0,0-2.17-2.6c-.68,0-2.3.72-2.63-.6-.24-.93.64-1.42.62-1.77C779.35,185,778.93,185.36,778.6,185.52Z"/><path class="cls-6" d="M770.19,163.94s1.38-2.27-.58-3-2.56,1.92-2.56,1.92Z"/><path class="cls-6" d="M790.58,164.48s-.45-2.54-2.38-1.95-.73,3.07-.73,3.07Z"/><polygon class="cls-20" points="740.63 177.98 757.3 177.98 755.59 173.16 742.34 173.16 740.63 177.98"/><rect class="cls-36" x="742.12" y="157.24" width="12.48" height="8.67"/><rect class="cls-32" x="748.58" y="158.08" width="4.92" height="7.03"/><rect class="cls-33" x="750.86" y="156.98" width="0.25" height="3.63" transform="translate(589.59 909.22) rotate(-89.8)"/><rect class="cls-33" x="750.86" y="157.63" width="0.25" height="3.63" transform="translate(588.94 909.87) rotate(-89.8)"/><rect class="cls-33" x="750.86" y="158.28" width="0.25" height="3.63" transform="translate(588.31 910.51) rotate(-89.8)"/><rect class="cls-33" x="750.85" y="158.92" width="0.25" height="3.63" transform="translate(587.66 911.16) rotate(-89.8)"/><polygon class="cls-33" points="752.79 161.26 749.16 161.25 749.16 161.5 752.79 161.51 752.79 161.26"/><rect class="cls-33" x="750.85" y="160.22" width="0.25" height="3.63" transform="translate(586.53 912.48) rotate(-89.82)"/><rect class="cls-33" x="750.85" y="160.86" width="0.25" height="3.63" transform="translate(585.69 913.08) rotate(-89.8)"/><rect class="cls-33" x="750.85" y="161.51" width="0.25" height="3.63" transform="translate(585.04 913.72) rotate(-89.8)"/><rect class="cls-33" x="750.84" y="162.16" width="0.25" height="3.63" transform="translate(584.59 914.41) rotate(-89.82)"/><rect class="cls-32" x="743.14" y="158.08" width="4.92" height="7.03"/><rect class="cls-33" x="745.42" y="156.98" width="0.25" height="3.63" transform="translate(584.16 903.78) rotate(-89.8)"/><rect class="cls-33" x="745.42" y="157.63" width="0.25" height="3.63" transform="translate(583.52 904.43) rotate(-89.8)"/><rect class="cls-33" x="745.41" y="158.28" width="0.25" height="3.63" transform="translate(583.06 905.11) rotate(-89.82)"/><rect class="cls-33" x="745.41" y="158.92" width="0.25" height="3.62" transform="translate(582.22 905.71) rotate(-89.8)"/><rect class="cls-33" x="745.41" y="159.57" width="0.25" height="3.62" transform="translate(581.57 906.35) rotate(-89.8)"/><rect class="cls-33" x="745.41" y="160.22" width="0.25" height="3.63" transform="translate(581.11 907.04) rotate(-89.82)"/><rect class="cls-33" x="745.41" y="160.86" width="0.25" height="3.63" transform="translate(580.29 907.64) rotate(-89.8)"/><rect class="cls-33" x="745.4" y="161.51" width="0.25" height="3.63" transform="translate(579.64 908.29) rotate(-89.8)"/><rect class="cls-33" x="745.4" y="162.16" width="0.25" height="3.63" transform="translate(579.16 908.97) rotate(-89.82)"/><path class="cls-20" d="M758.85,156.66l-3.19.53,2.08,11a4.78,4.78,0,0,1,.08,1.07l-.36,7.56a4.12,4.12,0,0,0-1.27-.21H741.85a4.08,4.08,0,0,0-.93.11l-1.17-4a4.63,4.63,0,0,1,.41-3.42l2.29-3.89-2.8-1.67-2.85,5.32a4.57,4.57,0,0,0-.6,3.21l1.5,8a4.06,4.06,0,0,0,1.77,2c1.64.92,4.53,2.44,6,2.44h6.83c1.4,0,4.43-1.44,6.24-2.37a4,4,0,0,0,2-2.25l.7-11a4.69,4.69,0,0,0-.1-1.24Z"/><path class="cls-19" d="M754.21,178.15c.62,0,1.12.67,1.12,1.5s-.5,1.5-1.12,1.5-1.12-.67-1.12-1.5S753.59,178.15,754.21,178.15Z"/><path class="cls-19" d="M743.6,178.15c.62,0,1.12.67,1.12,1.5s-.5,1.5-1.12,1.5-1.12-.67-1.12-1.5S743,178.15,743.6,178.15Z"/><path class="cls-19" d="M746.1,174.59c.56-.27,2-.74,2-.74l.56-1a.31.31,0,0,1,.24-.18h0a.31.31,0,0,1,.24.18l.56,1s1.44.46,2,.73a2.37,2.37,0,0,1,1.2,1.38l1,2.75h-10l1-2.75A2.37,2.37,0,0,1,746.1,174.59Z"/><path class="cls-37" d="M748.9,174.54a5.3,5.3,0,0,1,4.32,1.63,7.27,7.27,0,0,1,1.38,4.29,7.1,7.1,0,0,1-2.34,5.29,5.71,5.71,0,0,1-6.71,0,7.1,7.1,0,0,1-2.34-5.29,7.27,7.27,0,0,1,1.38-4.29A5.3,5.3,0,0,1,748.9,174.54Z"/><path class="cls-6" d="M742.45,165.4s1.78-1.91,0-3-2.84,1.35-2.84,1.35Z"/><path class="cls-6" d="M758.85,156.66s0-2.54-2-2.31-1.23,2.84-1.23,2.84Z"/><rect class="cls-4" x="778.79" y="60.73" width="21.79" height="78.15"/><path class="cls-9" d="M812,62.75a2.92,2.92,0,0,0-.75,3.57,18.18,18.18,0,0,1,0,14.29,2.92,2.92,0,0,0,.75,3.57l0,0c1.43.85,3-.25,3.61-1.58a23.08,23.08,0,0,0,0-18.33c-.6-1.33-2.18-2.43-3.61-1.58Z"/><path class="cls-38" d="M812.54,77.06V69.89a22.47,22.47,0,0,0-.61-3.76,6.73,6.73,0,0,0-4.79-4.53L800.61,65c0,4.82,0,11.92,0,16.75l6.67,3.37a6.64,6.64,0,0,0,4.79-4.6A25.2,25.2,0,0,0,812.54,77.06Z"/><path class="cls-39" d="M811.88,65a4.65,4.65,0,0,0-4.53-3.66h-.08a4.49,4.49,0,0,0-1.94.44h0l-4.75,1.75v3.94s1,.17,2.07.38c0,3.49,0,7.77,0,11.23l-2.05.09v4L805.31,85h0a4.53,4.53,0,0,0,1.92.42h.19A4.63,4.63,0,0,0,812,81.64a28.73,28.73,0,0,0,.55-4V69.28A27.11,27.11,0,0,0,811.88,65Z"/><path class="cls-6" d="M805.31,79.32c0,.68.74,1.23,1.65,1.23s1.66-.55,1.66-1.23-.74-1.24-1.66-1.24S805.31,78.63,805.31,79.32Z"/><path class="cls-6" d="M805.31,67.61c0,.68.74,1.23,1.65,1.23s1.66-.55,1.66-1.23-.74-1.24-1.66-1.24S805.31,66.92,805.31,67.61Z"/><path class="cls-6" d="M801.38,70.37c-.3.61-.81,2.2-.81,2.2l-1.08.63a.31.31,0,0,0-.19.26h0a.31.31,0,0,0,.19.26l1.08.63s.51,1.58.81,2.2a2.61,2.61,0,0,0,1.53,1.33l3,1.09V73.47h0V68l-3,1.09A2.61,2.61,0,0,0,801.38,70.37Z"/><path class="cls-7" d="M801.32,73.46a5.83,5.83,0,0,0,1.81,4.76,8,8,0,0,0,4.73,1.53,7.79,7.79,0,0,0,5.84-2.59,6.3,6.3,0,0,0,0-7.4,7.83,7.83,0,0,0-5.84-2.59,8,8,0,0,0-4.73,1.53A5.84,5.84,0,0,0,801.32,73.46Z"/><path class="cls-9" d="M812,89.49a2.92,2.92,0,0,0-.75,3.57,18.21,18.21,0,0,1,0,14.3,2.92,2.92,0,0,0,.75,3.57l0,0c1.43.85,3-.25,3.61-1.57a23.11,23.11,0,0,0,0-18.34c-.6-1.32-2.18-2.43-3.61-1.58Z"/><path class="cls-40" d="M812.54,103.8V96.63a16.54,16.54,0,0,0-.8-3.64c-.57-1.81-2.83-3.11-5.46-3.11l-5.68,3.94c0,3.63,0,9,0,12.59l5.82,4c2.67,0,5-1.35,5.48-3.2A17.57,17.57,0,0,0,812.54,103.8Z"/><path class="cls-39" d="M812.54,104.44V96a27.19,27.19,0,0,0-.66-4.27,4.64,4.64,0,0,0-4.53-3.65h-.08a4.63,4.63,0,0,0-4.64,4.63c0,4.24,0,10.51,0,14.76a4.64,4.64,0,0,0,4.64,4.64h.19a4.64,4.64,0,0,0,4.55-3.76A28.64,28.64,0,0,0,812.54,104.44Z"/><path class="cls-41" d="M811.88,91.76a4.64,4.64,0,0,0-4.53-3.65h-.08a4.63,4.63,0,0,0-1.94.43h0l-4.75,1.76v3.94s1,.17,2.07.37c0,3.5,0,7.78,0,11.24l-2.05.09v4l4.75,1.79h0a4.54,4.54,0,0,0,1.92.43h.19a4.64,4.64,0,0,0,4.55-3.76,28.64,28.64,0,0,0,.55-3.94V96A27.19,27.19,0,0,0,811.88,91.76Z"/><path class="cls-6" d="M805.31,106.06c0,.69.74,1.24,1.65,1.24s1.66-.55,1.66-1.24-.74-1.23-1.66-1.23S805.31,105.38,805.31,106.06Z"/><path class="cls-6" d="M805.31,94.35c0,.68.74,1.24,1.65,1.24s1.66-.56,1.66-1.24-.74-1.23-1.66-1.23S805.31,93.67,805.31,94.35Z"/><path class="cls-6" d="M801.38,97.11c-.3.62-.81,2.21-.81,2.21l-1.08.62a.31.31,0,0,0-.19.27h0a.33.33,0,0,0,.19.27l1.08.62s.51,1.59.81,2.21a2.6,2.6,0,0,0,1.53,1.32l3,1.09v-5.51h0V94.7l-3,1.08A2.65,2.65,0,0,0,801.38,97.11Z"/><path class="cls-42" d="M801.32,100.21a5.84,5.84,0,0,0,1.81,4.76,8,8,0,0,0,4.73,1.53,7.83,7.83,0,0,0,5.84-2.59,6.3,6.3,0,0,0,0-7.4,7.79,7.79,0,0,0-5.84-2.59,8,8,0,0,0-4.73,1.52A5.86,5.86,0,0,0,801.32,100.21Z"/><path class="cls-9" d="M812,116.24a2.92,2.92,0,0,0-.75,3.57,18.18,18.18,0,0,1,0,14.29,2.92,2.92,0,0,0,.75,3.57l0,0c1.43.85,3-.25,3.61-1.58a23.08,23.08,0,0,0,0-18.33c-.6-1.33-2.18-2.43-3.61-1.58Z"/><path class="cls-40" d="M812.54,130.55v-7.17a16.31,16.31,0,0,0-.8-3.64c-.57-1.82-2.83-3.12-5.46-3.12l-5.68,3.95c0,3.62,0,9,0,12.59l5.82,4c2.67,0,5-1.34,5.48-3.2A17.51,17.51,0,0,0,812.54,130.55Z"/><path class="cls-39" d="M812.54,131.18v-8.41a27.11,27.11,0,0,0-.66-4.26,4.65,4.65,0,0,0-4.53-3.66h-.08a4.63,4.63,0,0,0-4.64,4.63c0,4.25,0,10.51,0,14.76a4.63,4.63,0,0,0,4.64,4.64h.19a4.63,4.63,0,0,0,4.55-3.75A28.73,28.73,0,0,0,812.54,131.18Z"/><path class="cls-39" d="M811.89,118.51a4.66,4.66,0,0,0-4.54-3.66h-.08a4.71,4.71,0,0,0-1.94.44h0L800.57,117V121s1,.17,2.06.38c0,3.49,0,7.77,0,11.23l-2,.09v4l4.75,1.79h0a4.6,4.6,0,0,0,1.92.42h.2a4.63,4.63,0,0,0,4.55-3.75,28.73,28.73,0,0,0,.55-3.95v-8.41A27.11,27.11,0,0,0,811.89,118.51Z"/><path class="cls-6" d="M805.31,132.81c0,.68.74,1.23,1.65,1.23s1.66-.55,1.66-1.23-.74-1.24-1.66-1.24S805.31,132.13,805.31,132.81Z"/><path class="cls-6" d="M805.31,121.1c0,.68.74,1.23,1.65,1.23s1.66-.55,1.66-1.23-.74-1.24-1.66-1.24S805.31,120.41,805.31,121.1Z"/><path class="cls-6" d="M801.38,123.86c-.3.62-.81,2.2-.81,2.2l-1.08.63a.31.31,0,0,0-.19.26h0a.31.31,0,0,0,.19.26l1.08.63s.51,1.58.81,2.2a2.61,2.61,0,0,0,1.53,1.33l3,1.09V127h0v-5.51l-3,1.09A2.61,2.61,0,0,0,801.38,123.86Z"/><path class="cls-8" d="M801.32,127a5.83,5.83,0,0,0,1.81,4.76,8,8,0,0,0,4.73,1.53,7.79,7.79,0,0,0,5.84-2.59,6.3,6.3,0,0,0,0-7.4,7.83,7.83,0,0,0-5.84-2.59,8,8,0,0,0-4.73,1.53A5.84,5.84,0,0,0,801.32,127Z"/><rect class="cls-4" x="645.84" y="60.73" width="21.79" height="78.15"/><path class="cls-9" d="M634.45,136.87a2.91,2.91,0,0,0,.75-3.57,18.3,18.3,0,0,1,0-14.3,2.91,2.91,0,0,0-.75-3.57l0,0c-1.42-.85-3,.25-3.6,1.58a23,23,0,0,0,0,18.33c.6,1.33,2.18,2.43,3.6,1.58Z"/><path class="cls-38" d="M633.89,122.56v7.17a23.42,23.42,0,0,0,.6,3.76,6.75,6.75,0,0,0,4.8,4.53l6.53-3.4c0-4.82,0-11.92,0-16.75l-6.68-3.38a6.66,6.66,0,0,0-4.79,4.61A24.52,24.52,0,0,0,633.89,122.56Z"/><path class="cls-39" d="M634.55,134.6a4.64,4.64,0,0,0,4.53,3.66h.08a4.67,4.67,0,0,0,1.94-.44h0l4.75-1.75v-3.95s-1-.16-2.06-.37c0-3.5,0-7.77,0-11.23.69,0,1.43-.08,2.05-.1v-4l-4.75-1.79h0a4.58,4.58,0,0,0-1.92-.43H639a4.64,4.64,0,0,0-4.55,3.76,28.17,28.17,0,0,0-.54,3.94v8.41A26,26,0,0,0,634.55,134.6Z"/><path class="cls-6" d="M641.11,120.3c0-.68-.74-1.24-1.65-1.24s-1.65.56-1.65,1.24.74,1.23,1.65,1.23S641.11,121,641.11,120.3Z"/><path class="cls-6" d="M641.11,132c0-.68-.74-1.24-1.65-1.24s-1.65.56-1.65,1.24.74,1.24,1.65,1.24S641.11,132.69,641.11,132Z"/><path class="cls-6" d="M645,129.25c.31-.62.82-2.2.82-2.2l1.08-.63a.33.33,0,0,0,.19-.27h0a.35.35,0,0,0-.19-.27l-1.08-.62a23.54,23.54,0,0,0-.82-2.21,2.58,2.58,0,0,0-1.52-1.32l-3-1.09v5.51h0v5.52l3-1.09A2.63,2.63,0,0,0,645,129.25Z"/><path class="cls-8" d="M645.1,126.15a5.84,5.84,0,0,0-1.8-4.76,8,8,0,0,0-4.73-1.52,7.84,7.84,0,0,0-5.85,2.58,6.3,6.3,0,0,0,0,7.4,7.82,7.82,0,0,0,5.85,2.59,8,8,0,0,0,4.73-1.52A5.85,5.85,0,0,0,645.1,126.15Z"/><path class="cls-9" d="M634.45,110.13a2.92,2.92,0,0,0,.75-3.58,18.27,18.27,0,0,1,0-14.29,2.91,2.91,0,0,0-.75-3.57l0,0c-1.42-.85-3,.25-3.6,1.58a23,23,0,0,0,0,18.33c.6,1.33,2.18,2.43,3.6,1.58Z"/><path class="cls-40" d="M633.89,95.81V103a16.73,16.73,0,0,0,.79,3.64c.57,1.82,2.83,3.12,5.46,3.12l5.68-3.95c0-3.62,0-9,0-12.59l-5.82-4c-2.68,0-5,1.34-5.49,3.2A17.26,17.26,0,0,0,633.89,95.81Z"/><path class="cls-39" d="M633.89,95.18v8.41a25.8,25.8,0,0,0,.66,4.26,4.64,4.64,0,0,0,4.53,3.66h.08a4.63,4.63,0,0,0,4.63-4.63c0-4.25,0-10.51,0-14.76a4.63,4.63,0,0,0-4.63-4.64H639a4.63,4.63,0,0,0-4.55,3.75A28.26,28.26,0,0,0,633.89,95.18Z"/><path class="cls-41" d="M634.55,107.85a4.64,4.64,0,0,0,4.53,3.66h.08a4.52,4.52,0,0,0,1.94-.44h0l4.75-1.76v-3.94s-1-.17-2.06-.38c0-3.49,0-7.77,0-11.23l2.05-.09v-4l-4.75-1.79h0a4.73,4.73,0,0,0-1.92-.42H639a4.63,4.63,0,0,0-4.55,3.75,28.26,28.26,0,0,0-.54,4v8.41A25.8,25.8,0,0,0,634.55,107.85Z"/><path class="cls-6" d="M641.11,93.55c0-.68-.74-1.23-1.65-1.23s-1.65.55-1.65,1.23.74,1.24,1.65,1.24S641.11,94.24,641.11,93.55Z"/><path class="cls-6" d="M641.11,105.26c0-.68-.74-1.23-1.65-1.23s-1.65.55-1.65,1.23.74,1.24,1.65,1.24S641.11,106,641.11,105.26Z"/><path class="cls-6" d="M645,102.51a23.54,23.54,0,0,0,.82-2.21l1.08-.62a.35.35,0,0,0,.19-.27h0a.33.33,0,0,0-.19-.27l-1.08-.63s-.51-1.58-.82-2.2A2.59,2.59,0,0,0,643.52,95l-3-1.09v5.52h0v5.51l3-1.09A2.61,2.61,0,0,0,645,102.51Z"/><path class="cls-7" d="M645.1,99.41a5.82,5.82,0,0,0-1.8-4.76,8,8,0,0,0-4.73-1.53,7.82,7.82,0,0,0-5.85,2.59,6.3,6.3,0,0,0,0,7.4,7.85,7.85,0,0,0,5.85,2.59,8,8,0,0,0,4.73-1.53A5.82,5.82,0,0,0,645.1,99.41Z"/><path class="cls-9" d="M634.45,83.38a2.91,2.91,0,0,0,.75-3.57,18.3,18.3,0,0,1,0-14.3,2.91,2.91,0,0,0-.75-3.57l0,0c-1.42-.85-3,.25-3.6,1.58a23,23,0,0,0,0,18.33c.6,1.33,2.18,2.43,3.6,1.58Z"/><path class="cls-40" d="M633.89,69.07v7.17a16.73,16.73,0,0,0,.79,3.64c.57,1.81,2.83,3.12,5.46,3.12l5.68-4c0-3.63,0-9,0-12.59l-5.82-4c-2.68,0-5,1.35-5.49,3.21A17.13,17.13,0,0,0,633.89,69.07Z"/><path class="cls-39" d="M633.89,68.43v8.41a25.87,25.87,0,0,0,.66,4.27,4.63,4.63,0,0,0,4.53,3.65h.08a4.63,4.63,0,0,0,4.63-4.63c0-4.24,0-10.5,0-14.76a4.63,4.63,0,0,0-4.63-4.64H639a4.64,4.64,0,0,0-4.55,3.76A28.17,28.17,0,0,0,633.89,68.43Z"/><path class="cls-39" d="M634.54,81.11a4.64,4.64,0,0,0,4.53,3.65h.08a4.63,4.63,0,0,0,1.94-.43h0l4.74-1.75v-4s-1-.17-2.06-.37c0-3.5,0-7.77,0-11.23.69,0,1.43-.08,2.05-.1V63l-4.74-1.79h0a4.58,4.58,0,0,0-1.92-.43H639a4.65,4.65,0,0,0-4.55,3.76,28.17,28.17,0,0,0-.54,3.94v8.41A27,27,0,0,0,634.54,81.11Z"/><path class="cls-6" d="M641.11,66.81c0-.68-.74-1.24-1.65-1.24s-1.65.56-1.65,1.24.74,1.23,1.65,1.23S641.11,67.49,641.11,66.81Z"/><path class="cls-6" d="M641.11,78.52c0-.68-.74-1.24-1.65-1.24s-1.65.56-1.65,1.24.74,1.24,1.65,1.24S641.11,79.2,641.11,78.52Z"/><path class="cls-6" d="M645,75.76a23.54,23.54,0,0,0,.82-2.21l1.08-.62a.33.33,0,0,0,.19-.27h0a.35.35,0,0,0-.19-.27l-1.08-.62a23.54,23.54,0,0,0-.82-2.21,2.58,2.58,0,0,0-1.52-1.32l-3-1.09v5.51h0v5.52l3-1.09A2.63,2.63,0,0,0,645,75.76Z"/><path class="cls-42" d="M645.1,72.66a5.83,5.83,0,0,0-1.8-4.76,8,8,0,0,0-4.73-1.52A7.84,7.84,0,0,0,632.72,69a6.3,6.3,0,0,0,0,7.4A7.82,7.82,0,0,0,638.57,79a8.09,8.09,0,0,0,4.73-1.52A5.85,5.85,0,0,0,645.1,72.66Z"/><path class="cls-20" d="M690.47,89.63c-2.08.81-4.14.51-4.6-.68s.84-2.8,2.92-3.61,4.13-.51,4.6.67S692.54,88.81,690.47,89.63Z"/><path class="cls-43" d="M690.7,90.05c.72-1-.71-4.71-1.86-5-2.21,1-3.58,2.73-3.07,4S687.43,92.18,690.7,90.05Z"/><path class="cls-20" d="M685.51,83.06c-1.53,1.62-3.52,2.23-4.44,1.36s-.43-2.9,1.1-4.52,3.52-2.23,4.44-1.36S687,81.44,685.51,83.06Z"/><path class="cls-43" d="M686.27,82.77c.13-1.2-3-3.72-4.1-3.35-2.48,2.24-1.72,4.16-.62,5S684.69,84.56,686.27,82.77Z"/><path class="cls-20" d="M692.47,93.52s-1.74-2.61-2.07-3L679.74,78.83a4.41,4.41,0,0,0-.77-.67l2.41-3.94a5,5,0,0,1,3.1-2.21l4.88-1-.72-3.53-6.47,1.62A5,5,0,0,0,679.11,71l-5.42,7.18a4.37,4.37,0,0,0-.33,2.93c.47,2,1.37,5.52,2.49,6.74l5.08,5.59c1,1.14,4.47,2.55,6.57,3.34.7.27,4,1.4,4.52,1.53l14.76,4,1.3-4.16S692.84,93.71,692.47,93.52Z"/><polygon class="cls-10" points="700.51 71.34 702.11 68.54 699.93 69.11 700.51 71.34"/><polygon class="cls-15" points="702.11 68.54 700.13 60.95 688.37 64.03 690.93 73.84 700.51 71.34 699.93 69.11 702.11 68.54"/><polygon class="cls-12" points="699.93 69.11 700.51 71.34 702.11 68.54 699.93 69.11"/><rect class="cls-16" x="695.04" y="63.64" width="0.53" height="7.85" transform="translate(5.54 178.16) rotate(-14.66)"/><rect class="cls-16" x="694.11" y="63.88" width="0.53" height="7.85" transform="matrix(0.97, -0.25, 0.25, 0.97, 5.45, 177.97)"/><rect class="cls-16" x="693.17" y="64.13" width="0.53" height="7.85" transform="matrix(0.97, -0.25, 0.25, 0.97, 5.36, 177.74)"/><rect class="cls-16" x="692.24" y="64.37" width="0.53" height="7.85" transform="matrix(0.97, -0.25, 0.25, 0.97, 5.26, 177.47)"/><rect class="cls-16" x="691.31" y="64.61" width="0.53" height="7.85" transform="translate(5.17 177.28) rotate(-14.66)"/><rect class="cls-16" x="697.8" y="62.92" width="0.53" height="7.85" transform="translate(5.81 178.87) rotate(-14.66)"/><rect class="cls-16" x="696.87" y="63.16" width="0.53" height="7.85" transform="translate(5.72 178.65) rotate(-14.66)"/><rect class="cls-16" x="695.94" y="63.4" width="0.53" height="7.85" transform="matrix(0.97, -0.25, 0.25, 0.97, 5.62, 178.38)"/><path class="cls-19" d="M687.67,90.08a1.72,1.72,0,0,1-2.45,2.22,1.5,1.5,0,0,1,.4-2A1.48,1.48,0,0,1,687.67,90.08Z"/><path class="cls-19" d="M679.79,81.4a1.73,1.73,0,1,1-2.06.2A1.5,1.5,0,0,1,679.79,81.4Z"/><path class="cls-19" d="M684.56,80.8a23.16,23.16,0,0,1,2.08,1.09l1.22-.27a.32.32,0,0,1,.32.07h0a.36.36,0,0,1,0,.33l-.38,1.19s.69,1.52.88,2.18a2.57,2.57,0,0,1-.24,2L687,90.25l-3.71-4.09h0l-3.71-4.08,3-1.24A2.65,2.65,0,0,1,684.56,80.8Z"/><path class="cls-37" d="M686.69,83.05a5.84,5.84,0,0,1,1.86,4.75,8,8,0,0,1-2.47,4.31,7.85,7.85,0,0,1-6.07,2,6.3,6.3,0,0,1-5-5.48,7.8,7.8,0,0,1,2.58-5.85,8.08,8.08,0,0,1,4.53-2.06A5.85,5.85,0,0,1,686.69,83.05Z"/><path class="cls-6" d="M689.36,71s2.88,0,2.49-2.21-3.21-1.32-3.21-1.32Z"/><path class="cls-6" d="M706.78,102.31s3,1.56,4-1-2.65-3.2-2.65-3.2Z"/><text class="cls-44" transform="translate(54.59 49.69)">Un<tspan class="cls-45" x="16.62" y="0"> </tspan><tspan x="20.44" y="0">elemento</tspan><tspan class="cls-46" x="73.92" y="0"> </tspan><tspan x="77.74" y="0">final</tspan><tspan class="cls-45" x="101.59" y="0"> </tspan><tspan x="105.41" y="0">que</tspan><tspan class="cls-45" x="127.1" y="0"> </tspan><tspan x="130.92" y="0">debe</tspan><tspan class="cls-46" x="159.84" y="0"> </tspan><tspan x="163.66" y="0">destacarse</tspan><tspan class="cls-45" x="227.25" y="0"> </tspan><tspan x="231.07" y="0">es</tspan><tspan class="cls-45" x="244.8" y="0"> </tspan><tspan x="248.62" y="0">que</tspan><tspan class="cls-46" x="270.32" y="0"> </tspan><tspan x="274.13" y="0">mientras</tspan><tspan class="cls-45" x="323.98" y="0"> </tspan><tspan x="327.8" y="0">en</tspan><tspan class="cls-45" x="342.26" y="0"> </tspan><tspan x="346.08" y="0">el</tspan><tspan class="cls-46" x="356.2" y="0"> </tspan><tspan x="360.02" y="0">caso</tspan><tspan class="cls-45" x="387.48" y="0"> </tspan><tspan x="391.3" y="0">de</tspan><tspan class="cls-47" x="405.76" y="0"> </tspan><tspan class="cls-48" x="409.34" y="0">Y</tspan><tspan x="417.29" y="0">ugoslavia</tspan><tspan class="cls-45" x="472.22" y="0"> </tspan><tspan x="476.04" y="0">existió </tspan><tspan x="0" y="15.6">dificultades</tspan><tspan class="cls-49" x="65.04" y="15.6"> </tspan><tspan x="71.36" y="15.6">para</tspan><tspan class="cls-50" x="97.38" y="15.6"> </tspan><tspan x="103.7" y="15.6">el</tspan><tspan class="cls-49" x="113.81" y="15.6"> </tspan><tspan x="120.13" y="15.6">juzgamiento</tspan><tspan class="cls-49" x="190.23" y="15.6"> </tspan><tspan x="196.55" y="15.6">por</tspan><tspan class="cls-49" x="215.34" y="15.6"> </tspan><tspan x="221.66" y="15.6">la</tspan><tspan class="cls-49" x="231.78" y="15.6"> </tspan><tspan x="238.1" y="15.6">renuencia</tspan><tspan class="cls-49" x="295.2" y="15.6"> </tspan><tspan x="301.52" y="15.6">de</tspan><tspan class="cls-50" x="315.98" y="15.6"> </tspan><tspan x="322.29" y="15.6">los</tspan><tspan class="cls-49" x="338.91" y="15.6"> </tspan><tspan x="345.23" y="15.6">estados</tspan><tspan class="cls-49" x="390.76" y="15.6"> </tspan><tspan x="397.08" y="15.6">en</tspan><tspan class="cls-50" x="411.54" y="15.6"> </tspan><tspan x="417.86" y="15.6">cooperar</tspan><tspan class="cls-51" x="469.17" y="15.6"> </tspan><tspan x="475.49" y="15.6">con</tspan><tspan class="cls-49" x="496.45" y="15.6"> </tspan><tspan x="502.77" y="15.6">el </tspan><tspan x="0" y="31.2">tribunal</tspan><tspan class="cls-52" x="42.64" y="31.2"> </tspan><tspan x="46.01" y="31.2">para</tspan><tspan class="cls-53" x="72.03" y="31.2"> </tspan><tspan x="75.4" y="31.2">detener</tspan><tspan class="cls-52" x="119.49" y="31.2"> </tspan><tspan x="122.86" y="31.2">a</tspan><tspan class="cls-53" x="130.09" y="31.2"> </tspan><tspan x="133.46" y="31.2">los</tspan><tspan class="cls-52" x="150.08" y="31.2"> </tspan><tspan x="153.45" y="31.2">acusados,</tspan><tspan class="cls-52" x="212.71" y="31.2"> </tspan><tspan x="216.08" y="31.2">en</tspan><tspan class="cls-53" x="230.54" y="31.2"> </tspan><tspan x="233.91" y="31.2">Ruanda</tspan><tspan class="cls-52" x="279.45" y="31.2"> </tspan><tspan x="282.82" y="31.2">se</tspan><tspan class="cls-53" x="296.55" y="31.2"> </tspan><tspan x="299.92" y="31.2">tenían</tspan><tspan class="cls-52" x="336.06" y="31.2"> </tspan><tspan x="339.43" y="31.2">75.000</tspan><tspan class="cls-52" x="379.19" y="31.2"> </tspan><tspan x="382.56" y="31.2">personas</tspan><tspan class="cls-53" x="436.04" y="31.2"> </tspan><tspan x="439.41" y="31.2">detenidas,</tspan><tspan class="cls-52" x="499.41" y="31.2"> </tspan><tspan x="502.78" y="31.2">lo </tspan><tspan x="0" y="46.8">cual</tspan><tspan class="cls-54" x="23.85" y="46.8"> </tspan><tspan x="29.74" y="46.8">generó</tspan><tspan class="cls-54" x="70.22" y="46.8"> </tspan><tspan x="76.12" y="46.8">mayores</tspan><tspan class="cls-55" x="125.96" y="46.8"> </tspan><tspan x="131.86" y="46.8">dificultades</tspan><tspan class="cls-54" x="196.9" y="46.8"> </tspan><tspan x="202.79" y="46.8">para</tspan><tspan class="cls-54" x="228.81" y="46.8"> </tspan><tspan x="234.7" y="46.8">el</tspan><tspan class="cls-54" x="244.82" y="46.8"> </tspan><tspan x="250.72" y="46.8">proceso</tspan><tspan class="cls-54" x="296.97" y="46.8"> </tspan><tspan x="302.86" y="46.8">de</tspan><tspan class="cls-54" x="317.32" y="46.8"> </tspan><tspan x="323.21" y="46.8">juzgamiento,</tspan><tspan class="cls-55" x="396.93" y="46.8"> </tspan><tspan x="402.82" y="46.8">máxime</tspan><tspan class="cls-54" x="448.32" y="46.8"> </tspan><tspan x="454.22" y="46.8">cuando</tspan><tspan class="cls-54" x="496.87" y="46.8"> </tspan><tspan x="502.76" y="46.8">el </tspan><tspan x="0" y="62.4">tribunal</tspan><tspan class="cls-56" x="42.64" y="62.4"> </tspan><tspan x="46.96" y="62.4">no</tspan><tspan class="cls-56" x="61.42" y="62.4"> </tspan><tspan x="65.74" y="62.4">tenía</tspan><tspan class="cls-57" x="94.65" y="62.4"> </tspan><tspan x="98.97" y="62.4">la</tspan><tspan class="cls-56" x="109.09" y="62.4"> </tspan><tspan x="113.41" y="62.4">sede</tspan><tspan class="cls-56" x="141.6" y="62.4"> </tspan><tspan x="145.92" y="62.4">en</tspan><tspan class="cls-56" x="160.38" y="62.4"> </tspan><tspan x="164.7" y="62.4">el</tspan><tspan class="cls-56" x="174.81" y="62.4"> </tspan><tspan x="179.13" y="62.4">país,</tspan><tspan class="cls-57" x="207.32" y="62.4"> </tspan><tspan x="211.63" y="62.4">así</tspan><tspan class="cls-56" x="228.98" y="62.4"> </tspan><tspan x="233.29" y="62.4">como</tspan><tspan class="cls-56" x="265.08" y="62.4"> </tspan><tspan x="269.4" y="62.4">los</tspan><tspan class="cls-56" x="286.02" y="62.4"> </tspan><tspan x="290.34" y="62.4">límites</tspan><tspan class="cls-56" x="327.9" y="62.4"> </tspan><tspan x="332.22" y="62.4">presupuestales</tspan><tspan class="cls-57" x="420.39" y="62.4"> </tspan><tspan x="424.71" y="62.4">que</tspan><tspan class="cls-56" x="446.4" y="62.4"> </tspan><tspan x="450.71" y="62.4">generaban </tspan><tspan x="0" y="78">grandes</tspan><tspan class="cls-58" x="46.98" y="78"> </tspan><tspan x="52.23" y="78">dificultades</tspan><tspan class="cls-59" x="117.28" y="78"> </tspan><tspan x="122.53" y="78">políticas</tspan><tspan class="cls-58" x="170.22" y="78"> </tspan><tspan x="175.48" y="78">y</tspan><tspan class="cls-58" x="181.98" y="78"> </tspan><tspan x="187.23" y="78">sociales.</tspan><tspan class="cls-59" x="237.81" y="78"> </tspan><tspan x="243.07" y="78">Finalmente,</tspan><tspan class="cls-58" x="310.99" y="78"> </tspan><tspan x="316.25" y="78">se</tspan><tspan class="cls-59" x="329.98" y="78"> </tspan><tspan x="335.23" y="78">estableció</tspan><tspan class="cls-58" x="393.77" y="78"> </tspan><tspan x="399.03" y="78">un</tspan><tspan class="cls-58" x="413.49" y="78"> </tspan><tspan x="418.74" y="78">juzgamiento</tspan><tspan class="cls-59" x="488.84" y="78"> </tspan><tspan x="494.1" y="78">por </tspan><tspan x="0" y="93.6">parte</tspan><tspan class="cls-60" x="29.63" y="93.6"> </tspan><tspan x="33.84" y="93.6">del</tspan><tspan class="cls-60" x="51.19" y="93.6"> </tspan><tspan x="55.4" y="93.6">tribunal</tspan><tspan class="cls-60" x="98.04" y="93.6"> </tspan><tspan x="102.25" y="93.6">frente</tspan><tspan class="cls-60" x="135.5" y="93.6"> </tspan><tspan x="139.71" y="93.6">a</tspan><tspan class="cls-60" x="146.94" y="93.6"> </tspan><tspan x="151.15" y="93.6">los</tspan><tspan class="cls-60" x="167.77" y="93.6"> </tspan><tspan x="171.98" y="93.6">máximos</tspan><tspan class="cls-60" x="223.98" y="93.6"> </tspan><tspan x="228.19" y="93.6">responsables,</tspan><tspan class="cls-60" x="309.14" y="93.6"> </tspan><tspan x="313.35" y="93.6">mientras</tspan><tspan class="cls-60" x="363.19" y="93.6"> </tspan><tspan x="367.41" y="93.6">que</tspan><tspan class="cls-60" x="389.1" y="93.6"> </tspan><tspan x="393.31" y="93.6">la</tspan><tspan class="cls-60" x="403.43" y="93.6"> </tspan><tspan x="407.64" y="93.6">justicia</tspan><tspan class="cls-60" x="447.38" y="93.6"> </tspan><tspan x="451.59" y="93.6">ordinaria</tspan><tspan class="cls-60" x="502.17" y="93.6"> </tspan><tspan x="506.38" y="93.6">y </tspan><tspan x="0" y="109.2">una justicia comunitaria llamada Gacaca juzgó a la mayoría de hutus.</tspan></text></g></g></svg>