<svg xmlns="http://www.w3.org/2000/svg" viewBox="0 0 874.77 210.9"><defs><style>.cls-1{isolation:isolate;}.cls-2,.cls-25{fill:#d3d3d3;}.cls-2{opacity:0.45;}.cls-3{fill:#9fa4a4;}.cls-4{fill:#8a9090;}.cls-5{fill:#c6c9c9;}.cls-6{fill:#dbdddd;}.cls-7{fill:#f4a602;}.cls-8{fill:#c47143;}.cls-9{fill:#a5a5a5;opacity:0.34;}.cls-17,.cls-20,.cls-42,.cls-9{mix-blend-mode:multiply;}.cls-10{fill:#a4a4a4;}.cls-11{fill:#f4bc02;}.cls-12{fill:#3c3c3c;}.cls-13{fill:#fcc083;}.cls-14{fill:#e8aa63;}.cls-15{fill:#eceded;}.cls-16{fill:#353535;}.cls-17{fill:#7d7d7d;opacity:0.35;}.cls-18{fill:#4d5053;}.cls-19{fill:#787878;}.cls-20{fill:#c6c8c8;opacity:0.74;}.cls-21{fill:#cdcdcd;}.cls-22{fill:#e8e9e9;}.cls-23{fill:#a8a8a8;}.cls-24{fill:#b5b8b8;}.cls-25{mix-blend-mode:soft-light;}.cls-26{fill:#9d6b3b;}.cls-27{fill:#39486b;}.cls-28{fill:#24272b;}.cls-29{fill:#4d2000;}.cls-30{fill:#843e19;}.cls-31{fill:#c9cccc;}.cls-32{fill:#a0a4a4;}.cls-33{fill:#666c75;}.cls-34{fill:#a3a7ac;}.cls-35{fill:#fdcd9f;}.cls-36{fill:#23282b;}.cls-37{fill:#c22f2f;}.cls-38{fill:#1e1e1e;}.cls-39{fill:#855a2b;}.cls-40{fill:#6c3900;}.cls-41{fill:#bb9877;}.cls-42{fill:#c0a081;opacity:0.44;}.cls-43{fill:#efefef;}.cls-44{fill:#dbdbdb;}.cls-45{fill:#a3a5a6;}.cls-46{fill:#f7f7f7;}.cls-47{fill:#9a816d;}.cls-48{fill:#b6a492;}.cls-49{fill:#45494c;}.cls-50{fill:#5a5e60;}.cls-51{fill:#303336;}.cls-52{fill:#414447;}.cls-53{fill:#35383b;}.cls-54{fill:#9c9d9f;}.cls-55{fill:#9f6432;}.cls-56{fill:#515b5b;}.cls-57{font-size:12px;font-family:ArialMT, Arial;}.cls-58{letter-spacing:0.55em;}.cls-59{letter-spacing:0.55em;}.cls-60{letter-spacing:0.27em;}.cls-61{letter-spacing:0.27em;}.cls-62{letter-spacing:0.81em;}.cls-63{letter-spacing:0.81em;}.cls-64{letter-spacing:0.43em;}.cls-65{letter-spacing:0.43em;}.cls-66{letter-spacing:0.09em;}.cls-67{letter-spacing:0.09em;}.cls-68{letter-spacing:0.66em;}.cls-69{letter-spacing:0.66em;}.cls-70{letter-spacing:0.22em;}.cls-71{letter-spacing:0.22em;}.cls-72{letter-spacing:0.47em;}.cls-73{letter-spacing:0.47em;}.cls-74{letter-spacing:-0.02em;}.cls-75{letter-spacing:-0.06em;}.cls-76{letter-spacing:-0.03em;}.cls-77{letter-spacing:-0.03em;}.cls-78{letter-spacing:0.04em;}.cls-79{letter-spacing:0.04em;}.cls-80{letter-spacing:0.06em;}.cls-81{letter-spacing:-0.05em;}.cls-82{letter-spacing:-0.05em;}.cls-83{letter-spacing:-0.01em;}.cls-84{letter-spacing:-0.01em;}</style></defs><title>ruanda</title><g class="cls-1"><g id="Capa_1" data-name="Capa 1"><rect class="cls-2" x="-8.24" y="-3.32" width="886.63" height="220.62"/><path class="cls-3" d="M811.92,119.89H782.5c-1.3.74-4.81,4.86-5.88,6.3C768.35,137.35,778,138,778,138l31.18-6.25C802.24,126.52,810.25,121,811.92,119.89Z"/><path class="cls-4" d="M805.8,129.73H787.28a14.62,14.62,0,0,1-2.88,8l4.62-.16,15-.5S809.71,132,805.8,129.73Z"/><path class="cls-5" d="M778.09,129.73a4.4,4.4,0,0,1,2.93,4.12c0,2-.73,3.24-3,4.11l6.42-.21a14.62,14.62,0,0,0,2.88-8Z"/><path class="cls-3" d="M782.45,177.14h29.42c-1.75-1.12-9.57-6.64-2.69-11.78L778,159.11s-9.65.6-1.38,11.77C777.67,172.3,781.11,176.32,782.45,177.14Z"/><path class="cls-4" d="M805.8,167.33H787.28a14.62,14.62,0,0,0-2.88-8l4.62.15,15,.51S809.71,165,805.8,167.33Z"/><path class="cls-5" d="M778.09,167.33a4.4,4.4,0,0,0,2.93-4.11c0-2-.73-3.24-3-4.12l6.42.22a14.62,14.62,0,0,1,2.88,8Z"/><path class="cls-6" d="M824.39,119.89H782.67c4.55,3.51,7.36,14.62,7.36,28.67,0,13.15-2.81,25.17-7.36,28.67h41.72c4.55-3.5,7.36-15.52,7.36-28.67C831.75,134.51,828.94,123.4,824.39,119.89Z"/><path class="cls-7" d="M823.17,165.37a3.64,3.64,0,1,1-3.64-3.63A3.64,3.64,0,0,1,823.17,165.37Z"/><path class="cls-8" d="M822.1,165.37a2.57,2.57,0,1,1-2.57-2.57A2.57,2.57,0,0,1,822.1,165.37Z"/><path class="cls-9" d="M790,148.56c0,13.15-2.81,25.17-7.36,28.67h41.72C813.33,156.21,790,148.56,790,148.56Z"/><path class="cls-3" d="M796,134.83c.28,1.17.41,1.75.63,2.93h27.39c-.22-1.18-.35-1.76-.63-2.93Z"/><path class="cls-3" d="M797.58,144.47H825c-.1-1.18-.16-1.78-.31-3h-27.4C797.42,142.69,797.48,143.29,797.58,144.47Z"/><path class="cls-3" d="M797.78,151.24h27.39c0-1.19,0-1.79,0-3H797.78C797.81,149.45,797.81,150.05,797.78,151.24Z"/><path class="cls-3" d="M797.26,158h27.4c.15-1.18.21-1.77.31-3H797.58C797.48,156.21,797.42,156.8,797.26,158Z"/><path class="cls-3" d="M796,164.66h8.32c.28-1.16.4-1.75.63-2.92h-8.32C796.44,162.91,796.31,163.5,796,164.66Z"/><path class="cls-10" d="M837.54,175.52c0-.9.26-1.62.59-1.62s.59.72.59,1.62-.26,1.62-.59,1.62S837.54,176.42,837.54,175.52Z"/><polygon class="cls-11" points="837.52 175.52 838.78 175.52 840.44 171.98 835.71 171.98 837.52 175.52"/><path class="cls-11" d="M836.86,134.52h2.4a.7.7,0,0,1,.62.76v2.14h-3.64v-2.13A.7.7,0,0,1,836.86,134.52Z"/><polygon class="cls-12" points="840.44 171.98 840.44 169.93 840.42 151.31 835.69 151.32 835.71 169.94 835.71 171.98 840.44 171.98"/><rect class="cls-12" x="835.69" y="136.1" width="4.73" height="18.62" transform="translate(-0.15 0.85) rotate(-0.06)"/><rect class="cls-11" x="835.7" y="152.68" width="4.73" height="2.04" transform="matrix(1, 0, 0, 1, -0.16, 0.87)"/><polygon class="cls-11" points="838.84 138.14 837.2 138.15 837.21 150.28 838.85 149.25 838.84 138.14"/><rect class="cls-11" x="835.69" y="137.19" width="4.73" height="1.07"/><path class="cls-12" d="M555.6,25.39a18.3,18.3,0,0,0-13.6,0c-6,2.6-6.07,7.66-6.07,15.55h25.73C561.66,33.05,561.59,28,555.6,25.39Z"/><path class="cls-13" d="M553.92,56.74H544a19.08,19.08,0,0,1-5.74,15.83l10.24,12.37h1l10.24-12.37A19.09,19.09,0,0,1,553.92,56.74Z"/><path class="cls-14" d="M553.92,56.74H544a18.49,18.49,0,0,1-1.28,9.2c4.16-1.62,7.48-5,11.15-8.2C553.86,57.1,553.92,56.74,553.92,56.74Z"/><path class="cls-15" d="M543.41,63.74a19.49,19.49,0,0,1-5.2,8.83l10.24,12.37h1l10.24-12.37a19.46,19.46,0,0,1-5.19-8.83l-5.48,3Z"/><path class="cls-16" d="M543.41,63.74c-.74,2.73,4.82,7,4.82,7l-2.78,14.18L548.93,87l3.48-2.09-2.62-14.1s5.41-4.37,4.67-7.1l-5.48,3Z"/><path class="cls-13" d="M562.07,40.36c-.38-1-1.05-.48-1.58.17.15-7.7-3.92-11.62-3.92-11.62H541.29s-4.09,3.91-4,11.56c-.52-.62-1.16-1.08-1.54-.11-.69,1.79.94,4.24.63,6.73-.21,1.68,1.11,1.51,2,1a28.73,28.73,0,0,0,1.55,4.53c1.59,3.72,6.18,7.1,9,7.1s7.33-3.41,9-7.1a21.43,21.43,0,0,0,1.54-4.55c.84.49,2.21.69,2-1C561.13,44.6,562.77,42.15,562.07,40.36Z"/><polygon class="cls-17" points="556.99 65.33 554.08 63.64 548.98 66.77 543.89 63.64 540.98 65.33 545.99 72.44 548.98 67.98 551.98 72.44 556.99 65.33"/><polygon class="cls-15" points="548.98 66.77 551.98 70.85 556.77 63.74 554.08 62.05 548.98 66.77"/><polygon class="cls-15" points="548.98 66.77 545.99 70.85 541.1 63.92 543.79 62.05 548.98 66.77"/><path class="cls-18" d="M571.57,69.75c-1.94-3.54-16.77-7.11-16.77-7.11v.06l-.19-.06a32,32,0,0,1-1.79,11.91c-.76,2.32-1.61,4.67-2.35,6.64l-1.49,4s-1.46-3.23-1.75-4c-.74-2-1.6-4.32-2.35-6.64a31.87,31.87,0,0,1-1.8-11.91l-.18.06v-.06s-14.84,3.57-16.78,7.11c-1,1.85-2,11.53-2.57,18.58h50.6C573.56,81.28,572.59,71.6,571.57,69.75Z"/><path class="cls-19" d="M557.4,69.23l1.89-5.47-4.45-1.31A36.65,36.65,0,0,1,553.08,74,108.2,108.2,0,0,1,549,85a115.13,115.13,0,0,1-4.06-11,36.65,36.65,0,0,1-1.76-11.53l-4.45,1.31,1.88,5.47-3.22,1.55L549,85.45l11.65-14.67Z"/><path class="cls-12" d="M540,28.69s8.57,16.07,22-.63C562,28.06,550.24,18.7,540,28.69Z"/><path class="cls-12" d="M539.81,46.88c-.55-4.75-1-15.87,6.1-19l-2.18-1s-6.37,1.29-7,11.12l1.71,10.38h0A1.31,1.31,0,0,0,539.81,46.88Z"/><path class="cls-12" d="M559.28,48.35h.07L561.05,38c-.59-9.84-7-11.12-7-11.12l-2.18,1c7.12,3.1,6.65,14.21,6.1,19A1.27,1.27,0,0,0,559.28,48.35Z"/><path class="cls-20" d="M542.41,65.56l-2.26-2.23-1.47.43v0c-4.54,1.33-11.29,3.65-12.56,6-1,1.85-2,11.53-2.57,18.58h18.86Z"/><polygon class="cls-21" points="533.81 63.99 526.95 57.25 526.95 63.99 533.81 63.99"/><polygon class="cls-22" points="526.95 57.25 503.55 57.25 503.55 93.52 533.81 93.52 533.81 63.99 526.95 63.99 526.95 57.25"/><polygon class="cls-23" points="526.95 63.99 533.81 63.99 526.95 57.25 526.95 63.99"/><rect class="cls-24" x="507.28" y="75.38" width="23.42" height="1.57"/><rect class="cls-24" x="507.28" y="78.26" width="23.42" height="1.57"/><rect class="cls-24" x="507.28" y="81.14" width="23.42" height="1.57"/><rect class="cls-24" x="507.28" y="84.01" width="23.42" height="1.57"/><rect class="cls-24" x="507.28" y="86.89" width="23.42" height="1.57"/><rect class="cls-24" x="507.28" y="66.86" width="23.42" height="1.57"/><rect class="cls-24" x="507.28" y="69.74" width="23.42" height="1.57"/><rect class="cls-24" x="507.28" y="72.61" width="23.42" height="1.57"/><path class="cls-20" d="M516.16,57.25v.25c0-.1,0-.17,0-.25h-2.86a1.09,1.09,0,0,0,0,.25c0-.09-.06-.17-.08-.25h-2.69a1.76,1.76,0,0,0,0,.55.93.93,0,0,0-.18-.55h-1.91a2.18,2.18,0,0,0-.31,1.21h0v2.88a1.24,1.24,0,0,0,1.1,1.34h0a1.13,1.13,0,0,0,1-.7,1.53,1.53,0,0,0,.14-.62V58.42h.24l0,3.79v1a1.43,1.43,0,0,0,1.27,1.55h0a1.43,1.43,0,0,0,1.31-1.52v-.33l0-4.49h.3l0,4.51v.82a1.42,1.42,0,0,0,1.27,1.54h0A1.43,1.43,0,0,0,516,63.77l0-1.35,0-4h.27l0,3.87v.92a1.43,1.43,0,0,0,1.27,1.55h0a1.44,1.44,0,0,0,1.32-1.52s.05-4.66.05-4.77h0c0-.34,0-.79,0-1.21Z"/><path class="cls-13" d="M518.21,57.76c0-.95.2-2.65-1-2.65a2.58,2.58,0,0,0-1.31.15c-.65.3-.51,1.84-.51,1.84,0-1.57-.54-1.84-1.44-1.86-1.78,0-1.45,1.86-1.45,1.86a1.36,1.36,0,0,0-1.35-1.51,1.31,1.31,0,0,0-1.48,1.51,1,1,0,0,0-.64-.93,1.38,1.38,0,0,0-1.24.13,1.91,1.91,0,0,0-.52,1.46h0v2.88a1.24,1.24,0,0,0,1.1,1.34h0a1.13,1.13,0,0,0,1-.7,1.57,1.57,0,0,0,.14-.62v-3h.23l0,3.78v1A1.43,1.43,0,0,0,511,64.06h0a1.44,1.44,0,0,0,1.32-1.52v-.33l0-4.49h.3l0,4.51V63a1.43,1.43,0,0,0,1.27,1.55h0a1.44,1.44,0,0,0,1.32-1.52V61.72l0-4h.27l0,3.87v.92a1.43,1.43,0,0,0,1.28,1.55h0a1.43,1.43,0,0,0,1.32-1.52s.05-4.66.05-4.77Z"/><circle class="cls-25" cx="372.19" cy="105.45" r="88.68"/><rect class="cls-26" x="358.94" y="106.92" width="26.49" height="18.77"/><path class="cls-27" d="M368.23,135.13H376a24.59,24.59,0,0,0,3.91-.61,4.27,4.27,0,0,0,3.36-4.16v-.08A4.25,4.25,0,0,0,379,126l-13.56,0a4.26,4.26,0,0,0-4.26,4.26v.18a4.26,4.26,0,0,0,3.45,4.18A26.44,26.44,0,0,0,368.23,135.13Z"/><path class="cls-13" d="M366.73,128.49c-.62,0-1.13.68-1.13,1.52s.51,1.52,1.13,1.52,1.14-.68,1.14-1.52S367.36,128.49,366.73,128.49Z"/><path class="cls-13" d="M377.49,128.49c-.63,0-1.14.68-1.14,1.52s.51,1.52,1.14,1.52,1.13-.68,1.13-1.52S378.11,128.49,377.49,128.49Z"/><path class="cls-13" d="M375,124.88c-.56-.28-2-.75-2-.75l-.58-1a.27.27,0,0,0-.24-.17h0a.29.29,0,0,0-.25.17l-.57,1s-1.46.47-2,.75a2.41,2.41,0,0,0-1.22,1.4l-1,2.79h10.13l-1-2.79A2.38,2.38,0,0,0,375,124.88Z"/><path class="cls-28" d="M372.11,124.82a5.35,5.35,0,0,0-4.37,1.66,7.34,7.34,0,0,0-1.41,4.35,7.22,7.22,0,0,0,2.38,5.37,5.8,5.8,0,0,0,6.8,0,7.22,7.22,0,0,0,2.38-5.37,7.34,7.34,0,0,0-1.41-4.35A5.35,5.35,0,0,0,372.11,124.82Z"/><rect class="cls-29" x="341.11" y="159.43" width="17.35" height="19.82"/><path class="cls-30" d="M333.29,176.55a2.9,2.9,0,0,0-3.55-.74,18.14,18.14,0,0,1-14.2,0,2.9,2.9,0,0,0-3.55.74l0,0c-.84,1.41.25,3,1.57,3.59a23,23,0,0,0,18.22,0c1.32-.6,2.42-2.18,1.57-3.59Z"/><path class="cls-30" d="M360.44,176.55a2.9,2.9,0,0,0-3.55-.74,18.16,18.16,0,0,1-14.21,0,2.91,2.91,0,0,0-3.55.74l0,0c-.85,1.41.25,3,1.57,3.59a23,23,0,0,0,18.22,0c1.32-.6,2.41-2.18,1.57-3.59Z"/><rect class="cls-26" x="308.29" y="147.68" width="55.84" height="20.02"/><polygon class="cls-21" points="334.58 151.65 332.56 149.66 332.56 151.65 334.58 151.65"/><polygon class="cls-31" points="332.56 149.66 325.67 149.66 325.67 160.34 334.58 160.34 334.58 151.65 332.56 151.65 332.56 149.66"/><polygon class="cls-23" points="332.56 151.65 334.58 151.65 332.56 149.66 332.56 151.65"/><rect class="cls-32" x="326.77" y="155" width="6.89" height="0.46"/><rect class="cls-32" x="326.77" y="155.85" width="6.89" height="0.46"/><rect class="cls-32" x="326.77" y="156.69" width="6.89" height="0.46"/><rect class="cls-32" x="326.77" y="157.54" width="6.89" height="0.46"/><rect class="cls-32" x="326.77" y="158.38" width="6.89" height="0.46"/><rect class="cls-32" x="326.77" y="152.49" width="6.89" height="0.46"/><rect class="cls-32" x="326.77" y="153.34" width="6.89" height="0.46"/><rect class="cls-32" x="326.77" y="154.18" width="6.89" height="0.46"/><polygon class="cls-20" points="331.07 151.85 325.69 151.85 325.69 160.29 333.09 160.29 333.09 153.84 331.07 151.85"/><polygon class="cls-21" points="331.8 154.15 329.77 152.17 329.77 154.15 331.8 154.15"/><polygon class="cls-22" points="329.77 152.17 322.89 152.17 322.89 162.85 331.8 162.85 331.8 154.15 329.77 154.15 329.77 152.17"/><polygon class="cls-23" points="329.77 154.15 331.8 154.15 329.77 152.17 329.77 154.15"/><rect class="cls-24" x="323.98" y="157.51" width="6.89" height="0.46"/><rect class="cls-24" x="323.98" y="158.35" width="6.89" height="0.46"/><rect class="cls-24" x="323.98" y="159.2" width="6.89" height="0.46"/><rect class="cls-24" x="323.98" y="160.05" width="6.89" height="0.46"/><rect class="cls-24" x="323.98" y="160.89" width="6.89" height="0.46"/><rect class="cls-24" x="323.98" y="155" width="6.89" height="0.46"/><rect class="cls-24" x="323.98" y="155.85" width="6.89" height="0.46"/><rect class="cls-24" x="323.98" y="156.69" width="6.89" height="0.46"/><polygon class="cls-33" points="330.48 172.26 314.7 172.26 316.32 167.7 328.86 167.7 330.48 172.26"/><path class="cls-34" d="M331.24,158.87l-2.79,1.21,2.08,4.51a2.72,2.72,0,0,1,.24,1.49l-.57,5a4.14,4.14,0,0,0-.87-.1h-14c-.29,0-.64-2.9-.83-4.69a2.84,2.84,0,0,1,.87-2.35l3.63-3.41-2.3-2.22L312,162.69a2.85,2.85,0,0,0-.9,2.25l.59,9.31a3.77,3.77,0,0,0,1.85,2.13c1.72.88,4.58,2.24,5.91,2.24h6.46c1.42,0,4.15-1.44,5.71-2.31a3.76,3.76,0,0,0,1.67-1.89l.85-8.36a2.77,2.77,0,0,0-.24-1.45Z"/><path class="cls-35" d="M317.63,172.42c-.58,0-1.06.64-1.06,1.42s.48,1.42,1.06,1.42,1.06-.64,1.06-1.42S318.22,172.42,317.63,172.42Z"/><path class="cls-35" d="M327.67,172.42c-.58,0-1.06.64-1.06,1.42s.48,1.42,1.06,1.42,1.06-.64,1.06-1.42S328.26,172.42,327.67,172.42Z"/><path class="cls-35" d="M325.31,169.05c-.53-.26-1.89-.69-1.89-.69l-.54-.93a.26.26,0,0,0-.23-.16h0a.27.27,0,0,0-.23.16l-.53.93s-1.36.43-1.89.69a2.27,2.27,0,0,0-1.14,1.31l-.93,2.6h9.45l-.93-2.6A2.3,2.3,0,0,0,325.31,169.05Z"/><path class="cls-36" d="M322.65,169a5,5,0,0,0-4.08,1.55,6.93,6.93,0,0,0-1.31,4.06,6.73,6.73,0,0,0,2.22,5,5.44,5.44,0,0,0,6.34,0,6.7,6.7,0,0,0,2.22-5,6.92,6.92,0,0,0-1.3-4.06A5,5,0,0,0,322.65,169Z"/><path class="cls-13" d="M318.94,160.58s2.1-1.53.7-2.92-2.94.68-2.94.68Z"/><path class="cls-13" d="M331.25,158.85s-.64-2.31-2.38-1.58-.38,2.9-.38,2.9Z"/><path class="cls-30" d="M361.59,39.73h0a1.59,1.59,0,0,0,1.59-1.58V29.52a1.63,1.63,0,0,0-1.62-1.63h0A1.59,1.59,0,0,0,360,29.48v8.63A1.61,1.61,0,0,0,361.59,39.73Z"/><path class="cls-30" d="M382.89,39.73h0a1.62,1.62,0,0,0,1.62-1.62V29.52a1.63,1.63,0,0,0-1.62-1.63h0a1.59,1.59,0,0,0-1.59,1.59v8.67A1.59,1.59,0,0,0,382.89,39.73Z"/><rect class="cls-37" x="363.58" y="24.71" width="17.35" height="19.82"/><rect class="cls-38" x="365.23" y="34.91" width="14.09" height="8.59"/><path class="cls-30" d="M362.55,26.74a2.62,2.62,0,0,0,3.23.68,16.54,16.54,0,0,1,13,0,2.62,2.62,0,0,0,3.23-.68l0,0c.77-1.29-.23-2.72-1.43-3.27a20.91,20.91,0,0,0-16.6,0c-1.2.55-2.19,2-1.42,3.27Z"/><path class="cls-30" d="M387.06,39.73h0a1.59,1.59,0,0,0,1.59-1.58V29.52a1.63,1.63,0,0,0-1.62-1.63h0a1.59,1.59,0,0,0-1.58,1.59v8.63A1.61,1.61,0,0,0,387.06,39.73Z"/><path class="cls-30" d="M408.35,39.73h0A1.62,1.62,0,0,0,410,38.11V29.52a1.63,1.63,0,0,0-1.62-1.63h0a1.6,1.6,0,0,0-1.59,1.59v8.67A1.59,1.59,0,0,0,408.35,39.73Z"/><rect class="cls-37" x="389.05" y="24.71" width="17.35" height="19.82"/><path class="cls-30" d="M388,26.74a2.62,2.62,0,0,0,3.23.68,16.52,16.52,0,0,1,12.94,0,2.64,2.64,0,0,0,3.24-.68l0,0c.77-1.29-.23-2.72-1.43-3.27a20.91,20.91,0,0,0-16.6,0c-1.2.55-2.2,2-1.43,3.27Z"/><path class="cls-30" d="M335.76,39.73h0a1.58,1.58,0,0,0,1.58-1.58V29.52a1.62,1.62,0,0,0-1.62-1.63h0a1.59,1.59,0,0,0-1.59,1.59v8.63A1.62,1.62,0,0,0,335.76,39.73Z"/><path class="cls-30" d="M357.06,39.73h0a1.61,1.61,0,0,0,1.62-1.62V29.52a1.62,1.62,0,0,0-1.62-1.63h0a1.59,1.59,0,0,0-1.59,1.59v8.67A1.59,1.59,0,0,0,357.06,39.73Z"/><rect class="cls-37" x="337.75" y="24.71" width="17.35" height="19.82"/><path class="cls-30" d="M336.72,26.74a2.63,2.63,0,0,0,3.24.68,16.52,16.52,0,0,1,12.94,0,2.62,2.62,0,0,0,3.23-.68l0,0c.77-1.29-.23-2.72-1.43-3.27a20.91,20.91,0,0,0-16.6,0c-1.2.55-2.2,2-1.43,3.27Z"/><polygon class="cls-36" points="363.38 34.36 381.13 34.36 379.3 39.49 365.2 39.49 363.38 34.36"/><rect class="cls-26" x="331.21" y="38.02" width="81.95" height="20.29"/><path class="cls-39" d="M353.8,53.13a1.9,1.9,0,1,1-1.9-1.9A1.9,1.9,0,0,1,353.8,53.13Z"/><path class="cls-40" d="M353.49,53.13a1.59,1.59,0,1,1-1.59-1.59A1.59,1.59,0,0,1,353.49,53.13Z"/><path class="cls-41" d="M351,52.19c-.13-.37,6.78-3.23,7.15-3.36a.7.7,0,0,1,.91.42.71.71,0,0,1-.42.91C358.23,50.3,351.1,52.55,351,52.19Z"/><path class="cls-26" d="M353.88,51.64a.63.63,0,1,0,0-1.19.57.57,0,0,0-.33.28.7.7,0,0,1,.33.91Z"/><path class="cls-42" d="M353.15,51.79a.61.61,0,0,0,0-.39,1.09,1.09,0,0,0-.19-.34c-1.15.53-2,1-2,1.13A5.89,5.89,0,0,0,353.15,51.79Z"/><path class="cls-26" d="M350.46,51.2a1.94,1.94,0,0,0,.06,1.15,1.87,1.87,0,0,0,.69.91.24.24,0,0,1,.11.28,1.43,1.43,0,0,0-.07.36l1.61-.58a1.72,1.72,0,0,0-.28-.24.24.24,0,0,1-.11-.28,1.81,1.81,0,0,0-.05-1.14,1.85,1.85,0,0,0-.69-.92.24.24,0,0,1-.11-.28,1.43,1.43,0,0,0,.07-.36l-1.61.59a1.68,1.68,0,0,0,.28.23A.24.24,0,0,1,350.46,51.2Z"/><path class="cls-26" d="M351.48,54.08h0a.49.49,0,0,0,.49.1l.51-.19a.47.47,0,0,0,.31-.39h0Z"/><path class="cls-11" d="M350.85,52.77l1.59-.58a.18.18,0,0,1,.24.1h0a.18.18,0,0,1-.12.23l-1.59.58a.17.17,0,0,1-.23-.11h0A.18.18,0,0,1,350.85,52.77Z"/><path class="cls-41" d="M351.16,53.77l1.68-.61a.19.19,0,0,1,.25.12h0a.19.19,0,0,1-.11.25l-1.68.61a.19.19,0,0,1-.25-.12h0A.19.19,0,0,1,351.16,53.77Z"/><path class="cls-26" d="M350.14,50.41h0a.5.5,0,0,1,.31-.39l.52-.19a.49.49,0,0,1,.49.1h0Z"/><path class="cls-11" d="M350.5,51.82l1.59-.58a.19.19,0,0,0,.12-.24h0a.17.17,0,0,0-.23-.11l-1.6.58a.19.19,0,0,0-.11.23h0A.2.2,0,0,0,350.5,51.82Z"/><path class="cls-41" d="M350.1,50.84l1.68-.61a.19.19,0,0,0,.11-.25h0a.2.2,0,0,0-.25-.12l-1.68.61a.19.19,0,0,0-.11.25h0A.19.19,0,0,0,350.1,50.84Z"/><path class="cls-16" d="M362.82,47.41l-1.69-5.17a3.89,3.89,0,0,1,.46-3.35l2.11-3.2a3.93,3.93,0,0,0,1,.12h15.25a4.09,4.09,0,0,0,1.36-.23l1.89,4.12a3.89,3.89,0,0,1,.09,3l-2.47,6.36,3.27,1.17,3.08-7.77a3.89,3.89,0,0,0,.06-2.71l-2.65-7.66a4.26,4.26,0,0,0-2.08-2.39c-1.92-1-5.15-2.52-6.64-2.52h-7.27c-1.6,0-4.67,1.61-6.42,2.59a4.34,4.34,0,0,0-1.88,2.13l-2.9,7.18a3.89,3.89,0,0,0-.08,2.71l2.29,6.74Z"/><path class="cls-13" d="M380.8,49.09s-1.47,2.35.57,3.15,2.7-2,2.7-2Z"/><path class="cls-13" d="M359.56,48.52s.43,2.67,2.46,2.07.8-3.19.8-3.19Z"/><ellipse class="cls-13" cx="377.83" cy="32.58" rx="1.19" ry="1.59"/><path class="cls-13" d="M366.54,34.17a1.44,1.44,0,0,0,1.2-1.59,1.44,1.44,0,0,0-1.2-1.59c-.65,0-1.19.71-1.19,1.59S365.89,34.17,366.54,34.17Z"/><path class="cls-13" d="M369.2,38c.6.29,2.13.78,2.13.78l.6,1a.3.3,0,0,0,.26.19h0a.31.31,0,0,0,.26-.19l.6-1s1.53-.49,2.13-.78a2.55,2.55,0,0,0,1.28-1.47l1-2.92H366.88l1,2.92A2.55,2.55,0,0,0,369.2,38Z"/><path class="cls-43" d="M380.1,35.08c.34,0,.66-.21.88-1a10.13,10.13,0,0,0,.29-2.51,8.93,8.93,0,0,0-.48-3.1c-.19-.48-.43-.64-.69-.64s-.51.16-.69.64a8.68,8.68,0,0,0-.49,3.1,10.13,10.13,0,0,0,.29,2.51C379.43,34.87,379.75,35.08,380.1,35.08Z"/><path class="cls-44" d="M378,36.46c.53,0,1-.28,1.38-1.33a12.44,12.44,0,0,0,.45-3.47,11.1,11.1,0,0,0-.76-4.29c-.29-.67-.65-.88-1.07-.88s-.78.21-1.07.88a11.11,11.11,0,0,0-.75,4.29,12.85,12.85,0,0,0,.44,3.47C377,36.18,377.46,36.46,378,36.46Z"/><path class="cls-43" d="M364.46,35.08c-.34,0-.67-.21-.89-1a10.67,10.67,0,0,1-.28-2.51,8.93,8.93,0,0,1,.48-3.1c.19-.48.42-.64.69-.64s.5.16.69.64a8.93,8.93,0,0,1,.48,3.1,10.67,10.67,0,0,1-.28,2.51C365.13,34.87,364.8,35.08,364.46,35.08Z"/><path class="cls-44" d="M366.56,36.46c-.53,0-1-.28-1.38-1.33a12.85,12.85,0,0,1-.44-3.47,11.11,11.11,0,0,1,.75-4.29c.29-.67.66-.88,1.07-.88s.79.21,1.08.88a11.11,11.11,0,0,1,.75,4.29,12.85,12.85,0,0,1-.44,3.47C367.6,36.18,367.1,36.46,366.56,36.46Z"/><path class="cls-43" d="M372.19,38a5.62,5.62,0,0,0,4.59-1.74,7.78,7.78,0,0,0,1.47-4.56,7.56,7.56,0,0,0-2.5-5.64,6.1,6.1,0,0,0-7.13,0,7.59,7.59,0,0,0-2.49,5.64,7.71,7.71,0,0,0,1.47,4.56A5.62,5.62,0,0,0,372.19,38Z"/><rect class="cls-45" x="365.84" y="46.54" width="12.7" height="9.33"/><rect class="cls-46" x="372.58" y="47.35" width="5.23" height="7.48"/><rect class="cls-10" x="375" y="46.18" width="0.27" height="3.86" transform="translate(325.75 423.08) rotate(-89.8)"/><rect class="cls-10" x="375" y="46.87" width="0.27" height="3.86" transform="translate(325.06 423.76) rotate(-89.8)"/><rect class="cls-10" x="375" y="47.56" width="0.27" height="3.86" transform="translate(324.36 424.44) rotate(-89.8)"/><rect class="cls-10" x="375" y="48.24" width="0.27" height="3.86" transform="translate(323.68 425.13) rotate(-89.8)"/><rect class="cls-10" x="374.99" y="48.93" width="0.27" height="3.86" transform="translate(322.99 425.81) rotate(-89.8)"/><rect class="cls-10" x="374.99" y="49.62" width="0.27" height="3.86" transform="translate(322.3 426.5) rotate(-89.8)"/><rect class="cls-10" x="374.99" y="50.31" width="0.27" height="3.86" transform="translate(321.61 427.18) rotate(-89.8)"/><rect class="cls-10" x="374.99" y="51" width="0.27" height="3.86" transform="translate(320.91 427.86) rotate(-89.8)"/><rect class="cls-10" x="374.99" y="51.68" width="0.27" height="3.86" transform="translate(320.22 428.55) rotate(-89.8)"/><rect class="cls-46" x="366.79" y="47.35" width="5.23" height="7.48"/><rect class="cls-10" x="369.21" y="46.18" width="0.27" height="3.86" transform="translate(319.97 417.29) rotate(-89.8)"/><rect class="cls-10" x="369.21" y="46.87" width="0.27" height="3.86" transform="translate(319.32 417.98) rotate(-89.81)"/><rect class="cls-10" x="369.21" y="47.55" width="0.27" height="3.86" transform="translate(318.6 418.66) rotate(-89.8)"/><rect class="cls-10" x="369.21" y="48.24" width="0.27" height="3.86" transform="translate(317.91 419.34) rotate(-89.8)"/><rect class="cls-10" x="369.21" y="48.93" width="0.27" height="3.86" transform="translate(317.18 420.02) rotate(-89.8)"/><rect class="cls-10" x="369.2" y="49.62" width="0.27" height="3.86" transform="translate(316.52 420.71) rotate(-89.8)"/><rect class="cls-10" x="369.2" y="50.31" width="0.27" height="3.86" transform="translate(315.83 421.39) rotate(-89.8)"/><rect class="cls-10" x="369.2" y="50.99" width="0.27" height="3.86" transform="translate(315.15 422.07) rotate(-89.8)"/><rect class="cls-10" x="369.2" y="51.68" width="0.27" height="3.86" transform="translate(314.46 422.76) rotate(-89.8)"/><polygon class="cls-21" points="392.81 55.69 395.7 56.31 394.59 54.55 392.81 55.69"/><polygon class="cls-31" points="395.7 56.31 401.78 52.44 395.79 43.02 387.93 48.01 392.81 55.69 394.59 54.55 395.7 56.31"/><polygon class="cls-23" points="394.59 54.55 392.81 55.69 395.7 56.31 394.59 54.55"/><rect class="cls-32" x="391.04" y="49.83" width="7.21" height="0.48" transform="translate(34.71 219.49) rotate(-32.44)"/><rect class="cls-32" x="390.57" y="49.09" width="7.21" height="0.48" transform="translate(35.03 219.1) rotate(-32.43)"/><rect class="cls-32" x="390.09" y="48.34" width="7.21" height="0.48" transform="translate(35.35 218.72) rotate(-32.43)"/><rect class="cls-32" x="389.62" y="47.59" width="7.21" height="0.48" transform="translate(35.69 218.38) rotate(-32.44)"/><rect class="cls-32" x="389.14" y="46.84" width="7.21" height="0.48" transform="translate(36.01 217.98) rotate(-32.43)"/><rect class="cls-32" x="392.45" y="52.05" width="7.21" height="0.48" transform="translate(33.74 220.59) rotate(-32.44)"/><rect class="cls-32" x="391.97" y="51.3" width="7.21" height="0.48" transform="translate(34.06 220.19) rotate(-32.43)"/><rect class="cls-32" x="391.5" y="50.55" width="7.21" height="0.48" transform="translate(34.39 219.83) rotate(-32.43)"/><polygon class="cls-20" points="395.78 53.54 400.54 50.52 395.8 43.06 389.26 47.22 392.89 52.92 395.78 53.54"/><polygon class="cls-21" points="393.86 51.91 396.75 52.53 395.64 50.78 393.86 51.91"/><polygon class="cls-22" points="396.75 52.53 402.83 48.67 396.84 39.24 388.98 44.24 393.86 51.91 395.64 50.78 396.75 52.53"/><polygon class="cls-23" points="395.64 50.78 393.86 51.91 396.75 52.53 395.64 50.78"/><rect class="cls-24" x="392.09" y="46.06" width="7.21" height="0.48" transform="translate(36.89 219.44) rotate(-32.43)"/><rect class="cls-24" x="391.61" y="45.31" width="7.21" height="0.48" transform="matrix(0.84, -0.54, 0.54, 0.84, 37.22, 219.07)"/><rect class="cls-24" x="391.14" y="44.56" width="7.21" height="0.48" transform="translate(37.56 218.72) rotate(-32.44)"/><rect class="cls-24" x="390.66" y="43.82" width="7.21" height="0.48" transform="translate(37.87 218.33) rotate(-32.43)"/><rect class="cls-24" x="390.19" y="43.07" width="7.21" height="0.48" transform="translate(38.2 217.96) rotate(-32.43)"/><rect class="cls-24" x="393.5" y="48.27" width="7.21" height="0.48" transform="matrix(0.84, -0.54, 0.54, 0.84, 35.92, 220.54)"/><rect class="cls-24" x="393.02" y="47.53" width="7.21" height="0.48" transform="translate(36.25 220.17) rotate(-32.43)"/><rect class="cls-24" x="392.55" y="46.78" width="7.21" height="0.48" transform="translate(36.59 219.82) rotate(-32.44)"/><polygon class="cls-21" points="335.65 46.97 335.86 49.93 337.24 48.37 335.65 46.97"/><polygon class="cls-31" points="335.86 49.93 341.27 54.69 348.65 46.31 341.67 40.15 335.65 46.97 337.24 48.37 335.86 49.93"/><polygon class="cls-23" points="337.24 48.37 335.65 46.97 335.86 49.93 337.24 48.37"/><rect class="cls-32" x="341.31" y="43.57" width="0.48" height="7.21" transform="translate(80.28 272.17) rotate(-48.6)"/><rect class="cls-32" x="341.9" y="42.91" width="0.48" height="7.21" transform="translate(80.98 272.38) rotate(-48.6)"/><rect class="cls-32" x="342.48" y="42.24" width="0.48" height="7.21" transform="translate(81.68 272.61) rotate(-48.6)"/><rect class="cls-32" x="343.07" y="41.58" width="0.48" height="7.21" transform="translate(82.38 272.82) rotate(-48.6)"/><rect class="cls-32" x="343.66" y="40.91" width="0.48" height="7.21" transform="translate(83.08 273.04) rotate(-48.6)"/><rect class="cls-32" x="339.58" y="45.54" width="0.48" height="7.21" transform="translate(78.23 271.55) rotate(-48.6)"/><rect class="cls-32" x="340.16" y="44.88" width="0.48" height="7.21" transform="translate(78.92 271.76) rotate(-48.6)"/><rect class="cls-32" x="340.75" y="44.21" width="0.48" height="7.21" transform="translate(79.62 271.97) rotate(-48.6)"/><polygon class="cls-20" points="338.54 49.23 342.77 52.96 348.61 46.34 342.8 41.21 338.33 46.28 338.54 49.23"/><polygon class="cls-21" points="339.57 46.93 339.78 49.88 341.15 48.33 339.57 46.93"/><polygon class="cls-22" points="339.78 49.88 345.19 54.65 352.57 46.27 345.58 40.11 339.57 46.93 341.15 48.33 339.78 49.88"/><polygon class="cls-23" points="341.15 48.33 339.57 46.93 339.78 49.88 341.15 48.33"/><rect class="cls-24" x="345.23" y="43.53" width="0.48" height="7.21" transform="translate(81.65 275.1) rotate(-48.6)"/><rect class="cls-24" x="345.82" y="42.86" width="0.48" height="7.21" transform="translate(82.35 275.32) rotate(-48.6)"/><rect class="cls-24" x="346.4" y="42.2" width="0.48" height="7.21" transform="translate(83.04 275.53) rotate(-48.6)"/><rect class="cls-24" x="346.99" y="41.54" width="0.48" height="7.21" transform="translate(83.73 275.74) rotate(-48.6)"/><rect class="cls-24" x="347.57" y="40.87" width="0.48" height="7.21" transform="translate(84.43 275.95) rotate(-48.6)"/><rect class="cls-24" x="343.5" y="45.5" width="0.48" height="7.21" transform="translate(79.59 274.47) rotate(-48.6)"/><rect class="cls-24" x="344.08" y="44.83" width="0.48" height="7.21" transform="translate(80.28 274.69) rotate(-48.6)"/><rect class="cls-24" x="344.67" y="44.17" width="0.48" height="7.21" transform="translate(80.99 274.91) rotate(-48.6)"/><path class="cls-30" d="M406.44,176.47a2.9,2.9,0,0,0-3.55-.74,18.16,18.16,0,0,1-14.21,0,2.91,2.91,0,0,0-3.55.74l0,.05c-.85,1.41.25,3,1.57,3.58a22.9,22.9,0,0,0,18.22,0c1.31-.6,2.41-2.17,1.56-3.58Z"/><path class="cls-30" d="M433.58,176.47a2.9,2.9,0,0,0-3.55-.74,18.14,18.14,0,0,1-14.2,0,2.9,2.9,0,0,0-3.55.74l0,.05c-.84,1.41.25,3,1.57,3.58a22.9,22.9,0,0,0,18.22,0c1.32-.6,2.42-2.17,1.57-3.58Z"/><rect class="cls-26" x="381.86" y="147.6" width="55.84" height="20.02"/><polygon class="cls-21" points="430 152.09 427.98 150.11 427.98 152.09 430 152.09"/><polygon class="cls-31" points="427.98 150.11 421.1 150.11 421.1 160.78 430 160.78 430 152.09 427.98 152.09 427.98 150.11"/><polygon class="cls-23" points="427.98 152.09 430 152.09 427.98 150.11 427.98 152.09"/><rect class="cls-32" x="422.19" y="155.44" width="6.89" height="0.46"/><rect class="cls-32" x="422.19" y="156.29" width="6.89" height="0.46"/><rect class="cls-32" x="422.19" y="157.14" width="6.89" height="0.46"/><rect class="cls-32" x="422.19" y="157.98" width="6.89" height="0.46"/><rect class="cls-32" x="422.19" y="158.83" width="6.89" height="0.46"/><rect class="cls-32" x="422.19" y="152.94" width="6.89" height="0.46"/><rect class="cls-32" x="422.19" y="153.78" width="6.89" height="0.46"/><rect class="cls-32" x="422.19" y="154.63" width="6.89" height="0.46"/><polygon class="cls-20" points="426.5 152.3 421.11 152.3 421.11 160.74 428.52 160.74 428.52 154.28 426.5 152.3"/><polygon class="cls-21" points="427.22 154.6 425.2 152.62 425.2 154.6 427.22 154.6"/><polygon class="cls-22" points="425.2 152.62 418.31 152.62 418.31 163.29 427.22 163.29 427.22 154.6 425.2 154.6 425.2 152.62"/><polygon class="cls-23" points="425.2 154.6 427.22 154.6 425.2 152.62 425.2 154.6"/><rect class="cls-24" x="419.41" y="157.95" width="6.89" height="0.46"/><rect class="cls-24" x="419.41" y="158.8" width="6.89" height="0.46"/><rect class="cls-24" x="419.41" y="159.65" width="6.89" height="0.46"/><rect class="cls-24" x="419.41" y="160.49" width="6.89" height="0.46"/><rect class="cls-24" x="419.41" y="161.34" width="6.89" height="0.46"/><rect class="cls-24" x="419.41" y="155.44" width="6.89" height="0.46"/><rect class="cls-24" x="419.41" y="156.29" width="6.89" height="0.46"/><rect class="cls-24" x="419.41" y="157.14" width="6.89" height="0.46"/><polygon class="cls-47" points="430.7 172.16 415.05 172.16 416.66 167.63 429.09 167.63 430.7 172.16"/><path class="cls-48" d="M431.2,160.64l1.32,4.06a4.56,4.56,0,0,1-.53,3.9L430.42,171a3.57,3.57,0,0,0-.87-.1H416.1a3.58,3.58,0,0,0-1.19.2l-1.47-3.21a4.49,4.49,0,0,1-.11-3.54l2-5.16-2.88-1-2.56,6.47a4.52,4.52,0,0,0-.07,3.16l2.2,6.37a3.75,3.75,0,0,0,1.84,2.11c1.69.87,4.54,2.22,5.86,2.22h6.41c1.41,0,4.11-1.42,5.66-2.28a3.76,3.76,0,0,0,1.65-1.89l2.41-5.95a4.52,4.52,0,0,0,.09-3.16l-1.88-5.55Z"/><path class="cls-35" d="M425.56,169a19.75,19.75,0,0,0-1.87-.69l-.53-.92a.26.26,0,0,0-.23-.16h0a.29.29,0,0,0-.23.16l-.53.92a19.75,19.75,0,0,0-1.87.69,2.2,2.2,0,0,0-1.13,1.3l-.92,2.57h9.37l-.93-2.57A2.2,2.2,0,0,0,425.56,169Z"/><path class="cls-36" d="M422.93,168.93a4.67,4.67,0,0,0-3.8,1.44,6.42,6.42,0,0,0-1.22,3.78,6.25,6.25,0,0,0,2.07,4.67,5,5,0,0,0,5.91,0,6.25,6.25,0,0,0,2.07-4.67,6.42,6.42,0,0,0-1.22-3.78A4.69,4.69,0,0,0,422.93,168.93Z"/><path class="cls-36" d="M423.06,179c-1.26.59-2.07,3.29-.17,3.93,1,.34,1.71,0,2.29.43s.41,1.33-.43,1.6c.8.68,2.58.08,2.87-1.41a2.21,2.21,0,0,0-2-2.39c-.62,0-2.11.66-2.42-.55-.22-.86.6-1.3.58-1.62S423.36,178.84,423.06,179Z"/><path class="cls-13" d="M415.34,159.17s1.26-2.09-.54-2.77-2.35,1.77-2.35,1.77Z"/><path class="cls-13" d="M434.06,159.67s-.41-2.34-2.19-1.79-.66,2.81-.66,2.81Z"/><polygon class="cls-36" points="388.18 172.06 403.5 172.06 401.93 167.63 389.76 167.63 388.18 172.06"/><rect class="cls-49" x="389.56" y="153.02" width="11.46" height="7.96"/><rect class="cls-46" x="395.49" y="153.79" width="4.52" height="6.46"/><rect class="cls-10" x="397.58" y="152.78" width="0.23" height="3.33" transform="translate(241.87 551.6) rotate(-89.8)"/><rect class="cls-10" x="397.58" y="153.37" width="0.23" height="3.33" transform="translate(241.28 552.19) rotate(-89.8)"/><rect class="cls-10" x="397.58" y="153.97" width="0.23" height="3.33" transform="translate(240.69 552.79) rotate(-89.8)"/><rect class="cls-10" x="397.57" y="154.56" width="0.23" height="3.33" transform="translate(240.09 553.38) rotate(-89.8)"/><polygon class="cls-10" points="399.35 156.71 396.02 156.7 396.02 156.93 399.35 156.94 399.35 156.71"/><rect class="cls-10" x="397.57" y="155.75" width="0.23" height="3.33" transform="translate(238.99 554.59) rotate(-89.82)"/><rect class="cls-10" x="397.57" y="156.34" width="0.23" height="3.33" transform="translate(238.3 555.14) rotate(-89.8)"/><rect class="cls-10" x="397.57" y="156.94" width="0.23" height="3.33" transform="translate(237.7 555.73) rotate(-89.8)"/><rect class="cls-10" x="397.57" y="157.53" width="0.23" height="3.33" transform="translate(237.21 556.37) rotate(-89.82)"/><rect class="cls-46" x="390.49" y="153.79" width="4.52" height="6.46"/><rect class="cls-10" x="392.58" y="152.78" width="0.23" height="3.33" transform="translate(236.89 546.6) rotate(-89.8)"/><rect class="cls-10" x="392.58" y="153.37" width="0.23" height="3.33" transform="translate(236.3 547.19) rotate(-89.8)"/><rect class="cls-10" x="392.58" y="153.97" width="0.23" height="3.33" transform="translate(235.8 547.83) rotate(-89.82)"/><rect class="cls-10" x="392.58" y="154.56" width="0.23" height="3.33" transform="translate(235.11 548.38) rotate(-89.8)"/><rect class="cls-10" x="392.58" y="155.16" width="0.23" height="3.33" transform="translate(234.51 548.97) rotate(-89.8)"/><rect class="cls-10" x="392.57" y="155.75" width="0.23" height="3.33" transform="translate(234.01 549.6) rotate(-89.82)"/><rect class="cls-10" x="392.57" y="156.34" width="0.23" height="3.33" transform="translate(233.33 550.15) rotate(-89.8)"/><rect class="cls-10" x="392.57" y="156.94" width="0.23" height="3.33" transform="translate(232.73 550.74) rotate(-89.8)"/><rect class="cls-10" x="392.57" y="157.53" width="0.23" height="3.33" transform="translate(232.23 551.37) rotate(-89.82)"/><path class="cls-36" d="M404.92,152.48,402,153l1.91,10.11a4,4,0,0,1,.07,1l-.33,6.95a3.77,3.77,0,0,0-1.17-.19H389.3a4,4,0,0,0-.85.1l-1.07-3.68a4.19,4.19,0,0,1,.38-3.14l2.1-3.58L387.28,159l-2.61,4.88a4.19,4.19,0,0,0-.55,2.95l1.38,7.35a3.64,3.64,0,0,0,1.62,1.84c1.51.84,4.16,2.24,5.54,2.24h6.27c1.29,0,4.07-1.32,5.73-2.18a3.65,3.65,0,0,0,1.81-2.07l.63-10.12a4.28,4.28,0,0,0-.08-1.13Z"/><path class="cls-35" d="M400.66,172.22c.56,0,1,.62,1,1.38s-.46,1.37-1,1.37-1-.61-1-1.37S400.09,172.22,400.66,172.22Z"/><path class="cls-35" d="M390.91,172.22c.57,0,1,.62,1,1.38s-.46,1.37-1,1.37-1-.61-1-1.37S390.35,172.22,390.91,172.22Z"/><path class="cls-35" d="M393.21,169c.51-.25,1.83-.67,1.83-.67l.52-.9a.26.26,0,0,1,.22-.16h0a.26.26,0,0,1,.22.16l.52.9s1.32.42,1.83.67a2.21,2.21,0,0,1,1.11,1.27l.9,2.52H391.2l.9-2.52A2.21,2.21,0,0,1,393.21,169Z"/><path class="cls-50" d="M395.78,168.9a4.89,4.89,0,0,1,4,1.51,6.64,6.64,0,0,1,1.27,3.93,6.52,6.52,0,0,1-2.16,4.87,5.27,5.27,0,0,1-6.15,0,6.52,6.52,0,0,1-2.16-4.87,6.64,6.64,0,0,1,1.27-3.93A4.88,4.88,0,0,1,395.78,168.9Z"/><path class="cls-13" d="M389.86,160.51s1.63-1.76,0-2.77-2.61,1.24-2.61,1.24Z"/><path class="cls-13" d="M404.92,152.48s0-2.33-1.8-2.11S402,153,402,153Z"/><rect class="cls-26" x="423.24" y="64.38" width="20.02" height="71.78"/><path class="cls-30" d="M453.71,66.23a2.68,2.68,0,0,0-.69,3.28,16.72,16.72,0,0,1,0,13.13,2.68,2.68,0,0,0,.69,3.28l0,0c1.3.78,2.76-.23,3.31-1.45a21.16,21.16,0,0,0,0-16.84c-.55-1.22-2-2.23-3.31-1.45Z"/><path class="cls-51" d="M454.23,79.37V72.79a20.6,20.6,0,0,0-.56-3.45,6.16,6.16,0,0,0-4.4-4.16l-6,3.12c0,4.42,0,11,0,15.38l6.13,3.1a6.11,6.11,0,0,0,4.4-4.23A22.34,22.34,0,0,0,454.23,79.37Z"/><path class="cls-52" d="M453.62,68.32A4.26,4.26,0,0,0,449.46,65h-.07a4.22,4.22,0,0,0-1.78.4h0L443.23,67v3.62s.94.15,1.9.34c0,3.21,0,7.14,0,10.32-.63,0-1.31.07-1.88.08V85l4.36,1.64h0a4.28,4.28,0,0,0,1.76.39h.18a4.26,4.26,0,0,0,4.18-3.45,26.44,26.44,0,0,0,.5-3.63V72.23A23.46,23.46,0,0,0,453.62,68.32Z"/><path class="cls-13" d="M447.59,81.45c0,.63.68,1.13,1.52,1.13s1.52-.5,1.52-1.13-.68-1.14-1.52-1.14S447.59,80.82,447.59,81.45Z"/><path class="cls-13" d="M447.59,70.69c0,.63.68,1.14,1.52,1.14s1.52-.51,1.52-1.14-.68-1.13-1.52-1.13S447.59,70.07,447.59,70.69Z"/><path class="cls-13" d="M444,73.23c-.28.57-.74,2-.74,2l-1,.58a.29.29,0,0,0-.17.24h0a.31.31,0,0,0,.17.25l1,.57s.46,1.46.74,2a2.41,2.41,0,0,0,1.4,1.22l2.79,1V76.07h0V71l-2.79,1A2.38,2.38,0,0,0,444,73.23Z"/><path class="cls-28" d="M443.93,76.07a5.32,5.32,0,0,0,1.66,4.37,7.29,7.29,0,0,0,4.34,1.41,7.2,7.2,0,0,0,5.37-2.38,5.8,5.8,0,0,0,0-6.8,7.2,7.2,0,0,0-5.37-2.38,7.29,7.29,0,0,0-4.34,1.41A5.32,5.32,0,0,0,443.93,76.07Z"/><path class="cls-30" d="M453.71,90.79a2.68,2.68,0,0,0-.69,3.28,16.72,16.72,0,0,1,0,13.13,2.68,2.68,0,0,0,.69,3.28l0,0c1.3.79,2.76-.23,3.31-1.44a21.16,21.16,0,0,0,0-16.84c-.55-1.22-2-2.23-3.31-1.45Z"/><path class="cls-53" d="M454.23,103.94V97.35A15,15,0,0,0,453.5,94c-.52-1.67-2.6-2.86-5-2.86l-5.22,3.62c0,3.33,0,8.23,0,11.56l5.35,3.64c2.46,0,4.57-1.24,5-2.94A16.65,16.65,0,0,0,454.23,103.94Z"/><path class="cls-52" d="M454.23,104.52V96.8a23.69,23.69,0,0,0-.61-3.92,4.26,4.26,0,0,0-4.16-3.36h-.07a4.25,4.25,0,0,0-4.26,4.25c0,3.91,0,9.66,0,13.56a4.26,4.26,0,0,0,4.26,4.26h.18a4.26,4.26,0,0,0,4.18-3.45A26.55,26.55,0,0,0,454.23,104.52Z"/><path class="cls-54" d="M453.62,92.88a4.26,4.26,0,0,0-4.16-3.36h-.07a4.22,4.22,0,0,0-1.78.4h0l-4.36,1.61v3.62s.94.16,1.9.35c0,3.21,0,7.13,0,10.31l-1.88.09v3.66l4.36,1.64h0a4.13,4.13,0,0,0,1.76.39h.18a4.26,4.26,0,0,0,4.18-3.45,26.55,26.55,0,0,0,.5-3.62V96.8A23.69,23.69,0,0,0,453.62,92.88Z"/><path class="cls-13" d="M447.59,106c0,.63.68,1.14,1.52,1.14s1.52-.51,1.52-1.14-.68-1.13-1.52-1.13S447.59,105.39,447.59,106Z"/><path class="cls-13" d="M447.59,95.26c0,.62.68,1.13,1.52,1.13s1.52-.51,1.52-1.13-.68-1.14-1.52-1.14S447.59,94.63,447.59,95.26Z"/><path class="cls-13" d="M444,97.79c-.28.57-.74,2-.74,2l-1,.57a.31.31,0,0,0-.17.25h0a.3.3,0,0,0,.17.24l1,.58s.46,1.45.74,2a2.38,2.38,0,0,0,1.4,1.22l2.79,1v-5.06h0V95.57l-2.79,1A2.41,2.41,0,0,0,444,97.79Z"/><path class="cls-55" d="M443.93,100.63a5.36,5.36,0,0,0,1.66,4.38,7.35,7.35,0,0,0,4.34,1.4A7.17,7.17,0,0,0,455.3,104a5.79,5.79,0,0,0,0-6.79,7.17,7.17,0,0,0-5.37-2.38,7.35,7.35,0,0,0-4.34,1.4A5.35,5.35,0,0,0,443.93,100.63Z"/><path class="cls-30" d="M453.71,115.36a2.68,2.68,0,0,0-.69,3.28,16.72,16.72,0,0,1,0,13.13,2.67,2.67,0,0,0,.69,3.27l0,0c1.3.78,2.76-.23,3.31-1.45a21.16,21.16,0,0,0,0-16.84c-.55-1.22-2-2.23-3.31-1.45Z"/><path class="cls-53" d="M454.23,128.5v-6.59a15.09,15.09,0,0,0-.73-3.34c-.52-1.66-2.6-2.86-5-2.86l-5.22,3.63c0,3.32,0,8.23,0,11.56l5.35,3.63c2.46,0,4.57-1.23,5-2.94A16.5,16.5,0,0,0,454.23,128.5Z"/><path class="cls-52" d="M454.23,129.08v-7.72a23.69,23.69,0,0,0-.61-3.92,4.27,4.27,0,0,0-4.16-3.36h-.07a4.26,4.26,0,0,0-4.26,4.26c0,3.9,0,9.65,0,13.55a4.27,4.27,0,0,0,4.26,4.27h.18a4.26,4.26,0,0,0,4.18-3.45A26.44,26.44,0,0,0,454.23,129.08Z"/><path class="cls-52" d="M453.63,117.44a4.28,4.28,0,0,0-4.16-3.36h-.08a4.3,4.3,0,0,0-1.78.41h0l-4.36,1.61v3.63s.93.15,1.89.34c0,3.21,0,7.14,0,10.32-.63,0-1.31.06-1.88.08v3.66l4.36,1.65h0a4.36,4.36,0,0,0,1.77.39h.18a4.26,4.26,0,0,0,4.18-3.45,26.44,26.44,0,0,0,.5-3.63v-7.72A24.84,24.84,0,0,0,453.63,117.44Z"/><path class="cls-13" d="M447.59,130.58c0,.62.68,1.13,1.52,1.13s1.52-.51,1.52-1.13-.68-1.14-1.52-1.14S447.59,130,447.59,130.58Z"/><path class="cls-13" d="M447.59,119.82c0,.63.68,1.14,1.52,1.14s1.52-.51,1.52-1.14-.68-1.13-1.52-1.13S447.59,119.19,447.59,119.82Z"/><path class="cls-13" d="M444,122.36a20.93,20.93,0,0,0-.74,2l-1,.57a.31.31,0,0,0-.17.25h0a.31.31,0,0,0,.17.25l1,.57s.46,1.46.74,2a2.45,2.45,0,0,0,1.4,1.22l2.79,1V125.2h0v-5.06l-2.79,1A2.38,2.38,0,0,0,444,122.36Z"/><path class="cls-29" d="M443.93,125.2a5.32,5.32,0,0,0,1.66,4.37,7.28,7.28,0,0,0,4.34,1.4,7.19,7.19,0,0,0,5.37-2.37,5.8,5.8,0,0,0,0-6.8,7.2,7.2,0,0,0-5.37-2.38,7.35,7.35,0,0,0-4.34,1.4A5.36,5.36,0,0,0,443.93,125.2Z"/><rect class="cls-26" x="301.12" y="64.38" width="20.02" height="71.78"/><path class="cls-30" d="M290.66,134.31a2.68,2.68,0,0,0,.69-3.28,16.81,16.81,0,0,1,0-13.13,2.68,2.68,0,0,0-.69-3.28l0,0c-1.31-.79-2.76.23-3.31,1.44a21.16,21.16,0,0,0,0,16.84c.55,1.22,2,2.23,3.31,1.45Z"/><path class="cls-51" d="M290.14,121.16v6.59a21.72,21.72,0,0,0,.56,3.45,6.17,6.17,0,0,0,4.41,4.16l6-3.12c0-4.43,0-11,0-15.38l-6.13-3.1a6.08,6.08,0,0,0-4.4,4.23A22.26,22.26,0,0,0,290.14,121.16Z"/><path class="cls-52" d="M290.75,132.22a4.27,4.27,0,0,0,4.16,3.36H295a4.22,4.22,0,0,0,1.78-.4h0l4.36-1.61V130s-.93-.16-1.89-.35c0-3.2,0-7.13,0-10.31l1.88-.09v-3.66l-4.36-1.64h0a4.16,4.16,0,0,0-1.76-.39h-.18a4.27,4.27,0,0,0-4.19,3.45,26.55,26.55,0,0,0-.5,3.62v7.72A24.84,24.84,0,0,0,290.75,132.22Z"/><path class="cls-13" d="M296.78,119.09c0-.63-.68-1.14-1.52-1.14s-1.51.51-1.51,1.14.68,1.13,1.51,1.13S296.78,119.71,296.78,119.09Z"/><path class="cls-13" d="M296.78,129.84c0-.62-.68-1.13-1.52-1.13s-1.52.51-1.51,1.13.68,1.14,1.51,1.14S296.78,130.47,296.78,129.84Z"/><path class="cls-13" d="M300.39,127.31c.28-.57.75-2,.75-2l1-.57a.31.31,0,0,0,.18-.24h0q0-.13-.18-.24l-1-.58s-.47-1.45-.75-2a2.38,2.38,0,0,0-1.4-1.22l-2.78-1v5.06h0v5.06l2.78-1A2.41,2.41,0,0,0,300.39,127.31Z"/><path class="cls-29" d="M300.45,124.47a5.39,5.39,0,0,0-1.66-4.38,7.38,7.38,0,0,0-4.35-1.4,7.18,7.18,0,0,0-5.37,2.38,5.83,5.83,0,0,0,0,6.79,7.18,7.18,0,0,0,5.37,2.38,7.38,7.38,0,0,0,4.35-1.4A5.38,5.38,0,0,0,300.45,124.47Z"/><path class="cls-30" d="M290.66,109.74a2.68,2.68,0,0,0,.69-3.28,16.81,16.81,0,0,1,0-13.13,2.67,2.67,0,0,0-.69-3.27l0,0c-1.31-.78-2.76.23-3.31,1.45a21.16,21.16,0,0,0,0,16.84c.55,1.22,2,2.23,3.31,1.45Z"/><path class="cls-53" d="M290.14,96.6v6.59a15.71,15.71,0,0,0,.73,3.34c.53,1.67,2.6,2.86,5,2.86l5.22-3.63c0-3.32,0-8.23,0-11.56l-5.35-3.63c-2.45,0-4.56,1.23-5,2.94A15.94,15.94,0,0,0,290.14,96.6Z"/><path class="cls-52" d="M290.14,96v7.72a24.84,24.84,0,0,0,.61,3.92,4.28,4.28,0,0,0,4.16,3.36H295a4.27,4.27,0,0,0,4.26-4.26c0-3.9,0-9.65,0-13.55A4.25,4.25,0,0,0,295,88.94h-.18a4.27,4.27,0,0,0-4.19,3.45A26.44,26.44,0,0,0,290.14,96Z"/><path class="cls-54" d="M290.75,107.66a4.28,4.28,0,0,0,4.16,3.36H295a4.08,4.08,0,0,0,1.78-.41h0l4.36-1.61v-3.62s-.93-.16-1.89-.35c0-3.21,0-7.14,0-10.32.63,0,1.31-.06,1.88-.08V91l-4.36-1.65h0a4.31,4.31,0,0,0-1.76-.39h-.18a4.27,4.27,0,0,0-4.19,3.45,26.44,26.44,0,0,0-.5,3.63v7.72A24.84,24.84,0,0,0,290.75,107.66Z"/><path class="cls-13" d="M296.78,94.52c0-.62-.68-1.13-1.52-1.13s-1.51.51-1.51,1.13.68,1.14,1.51,1.14S296.78,95.15,296.78,94.52Z"/><path class="cls-13" d="M296.78,105.28c0-.63-.68-1.14-1.52-1.14s-1.52.51-1.51,1.14.68,1.13,1.51,1.13S296.78,105.91,296.78,105.28Z"/><path class="cls-13" d="M300.39,102.75c.28-.57.75-2,.75-2l1-.57a.31.31,0,0,0,.18-.25h0a.31.31,0,0,0-.18-.25l-1-.57s-.47-1.46-.75-2a2.45,2.45,0,0,0-1.4-1.22l-2.78-1V99.9h0V105l2.78-1A2.4,2.4,0,0,0,300.39,102.75Z"/><path class="cls-28" d="M300.45,99.9a5.37,5.37,0,0,0-1.66-4.37,7.38,7.38,0,0,0-4.35-1.4,7.21,7.21,0,0,0-5.37,2.37,5.85,5.85,0,0,0,0,6.8,7.22,7.22,0,0,0,5.37,2.38,7.38,7.38,0,0,0,4.35-1.4A5.39,5.39,0,0,0,300.45,99.9Z"/><path class="cls-30" d="M290.66,85.18a2.68,2.68,0,0,0,.69-3.28,16.81,16.81,0,0,1,0-13.13,2.68,2.68,0,0,0-.69-3.28l0,0c-1.31-.78-2.76.23-3.31,1.45a21.13,21.13,0,0,0,0,16.83c.55,1.22,2,2.24,3.31,1.45Z"/><path class="cls-53" d="M290.14,72v6.58a15.59,15.59,0,0,0,.73,3.34c.53,1.67,2.6,2.87,5,2.87l5.22-3.63c0-3.33,0-8.23,0-11.56L295.78,66c-2.45,0-4.56,1.24-5,3A15.94,15.94,0,0,0,290.14,72Z"/><path class="cls-52" d="M290.14,71.45v7.73a24.76,24.76,0,0,0,.61,3.91,4.27,4.27,0,0,0,4.16,3.36H295a4.26,4.26,0,0,0,4.26-4.25c0-3.9,0-9.65,0-13.56A4.25,4.25,0,0,0,295,64.38h-.18a4.27,4.27,0,0,0-4.19,3.45A26.55,26.55,0,0,0,290.14,71.45Z"/><path class="cls-52" d="M290.74,83.09a4.28,4.28,0,0,0,4.17,3.36H295a4.22,4.22,0,0,0,1.78-.4h0l4.36-1.61V80.82s-.94-.15-1.9-.35c0-3.2,0-7.13,0-10.31l1.88-.09V66.41l-4.36-1.64h0a4.16,4.16,0,0,0-1.76-.39h-.18a4.26,4.26,0,0,0-4.18,3.45,26.55,26.55,0,0,0-.5,3.62v7.73A24.43,24.43,0,0,0,290.74,83.09Z"/><path class="cls-13" d="M296.78,70c0-.63-.68-1.14-1.52-1.14s-1.51.51-1.51,1.14.68,1.13,1.51,1.13S296.78,70.59,296.78,70Z"/><path class="cls-13" d="M296.78,80.72c0-.63-.68-1.14-1.52-1.14s-1.52.51-1.51,1.14.68,1.13,1.51,1.13S296.78,81.34,296.78,80.72Z"/><path class="cls-13" d="M300.39,78.18c.28-.57.75-2,.75-2l1-.58q.18-.1.18-.24h0a.31.31,0,0,0-.18-.24l-1-.57s-.47-1.46-.75-2a2.41,2.41,0,0,0-1.4-1.22l-2.78-1v5.06h0V80.4l2.78-1A2.38,2.38,0,0,0,300.39,78.18Z"/><path class="cls-55" d="M300.45,75.34A5.39,5.39,0,0,0,298.79,71a7.38,7.38,0,0,0-4.35-1.4,7.22,7.22,0,0,0-5.37,2.38,5.85,5.85,0,0,0,0,6.8,7.21,7.21,0,0,0,5.37,2.37,7.38,7.38,0,0,0,4.35-1.4A5.38,5.38,0,0,0,300.45,75.34Z"/><path class="cls-36" d="M342.11,90.92c-1.9.74-3.8.47-4.22-.62s.77-2.57,2.68-3.32,3.8-.47,4.22.62S344,90.17,342.11,90.92Z"/><path class="cls-56" d="M342.33,91.3c.66-.89-.66-4.32-1.71-4.54-2,.89-3.29,2.51-2.82,3.71S339.33,93.26,342.33,91.3Z"/><path class="cls-36" d="M337.56,84.88c-1.4,1.49-3.23,2.05-4.08,1.25s-.4-2.66,1-4.15,3.23-2,4.08-1.24S339,83.4,337.56,84.88Z"/><path class="cls-56" d="M338.26,84.61c.12-1.09-2.75-3.41-3.77-3.07-2.27,2.06-1.58,3.82-.57,4.63S336.81,86.26,338.26,84.61Z"/><path class="cls-36" d="M344,94.49s-1.61-2.39-1.91-2.73L332.26,81a3.81,3.81,0,0,0-.71-.62l2.21-3.62a4.64,4.64,0,0,1,2.85-2l4.49-.94-.67-3.25-5.93,1.5a4.58,4.58,0,0,0-2.82,1.74l-5,6.59a4,4,0,0,0-.3,2.69c.43,1.86,1.26,5.06,2.29,6.19l4.66,5.13c1,1,4.11,2.35,6,3.07.64.24,3.7,1.29,4.14,1.41l13.57,3.69,1.18-3.81S344.29,94.67,344,94.49Z"/><polygon class="cls-21" points="351.34 74.12 352.81 71.55 350.8 72.08 351.34 74.12"/><polygon class="cls-22" points="352.81 71.55 350.99 64.58 340.18 67.41 342.54 76.42 351.34 74.12 350.8 72.08 352.81 71.55"/><polygon class="cls-23" points="350.8 72.08 351.34 74.12 352.81 71.55 350.8 72.08"/><rect class="cls-24" x="346.31" y="67.05" width="0.48" height="7.21" transform="translate(-6.6 90) rotate(-14.66)"/><rect class="cls-24" x="345.46" y="67.27" width="0.48" height="7.21" transform="translate(-6.68 89.81) rotate(-14.66)"/><rect class="cls-24" x="344.6" y="67.5" width="0.48" height="7.21" transform="translate(-6.77 89.6) rotate(-14.66)"/><rect class="cls-24" x="343.74" y="67.72" width="0.48" height="7.21" transform="matrix(0.97, -0.25, 0.25, 0.97, -6.85, 89.37)"/><rect class="cls-24" x="342.89" y="67.94" width="0.48" height="7.21" transform="matrix(0.97, -0.25, 0.25, 0.97, -6.94, 89.18)"/><rect class="cls-24" x="348.85" y="66.38" width="0.48" height="7.21" transform="translate(-6.35 90.64) rotate(-14.66)"/><rect class="cls-24" x="347.99" y="66.61" width="0.48" height="7.21" transform="translate(-6.43 90.44) rotate(-14.66)"/><rect class="cls-24" x="347.14" y="66.83" width="0.48" height="7.21" transform="matrix(0.97, -0.25, 0.25, 0.97, -6.52, 90.2)"/><path class="cls-35" d="M339.55,91.33a1.58,1.58,0,1,1-1.89.18A1.37,1.37,0,0,1,339.55,91.33Z"/><path class="cls-35" d="M332.31,83.36a1.59,1.59,0,0,1-2.25,2,1.59,1.59,0,0,1,2.25-2Z"/><path class="cls-35" d="M336.69,82.81c.58.23,1.91,1,1.91,1l1.12-.25a.32.32,0,0,1,.3.07h0a.28.28,0,0,1,0,.3L339.71,85s.63,1.4.81,2a2.44,2.44,0,0,1-.22,1.85l-1.39,2.62-3.41-3.75h0L332.09,84l2.74-1.14A2.4,2.4,0,0,1,336.69,82.81Z"/><path class="cls-50" d="M338.64,84.88a5.37,5.37,0,0,1,1.72,4.36,7.42,7.42,0,0,1-2.28,4,7.15,7.15,0,0,1-5.57,1.85,5.81,5.81,0,0,1-4.58-5,7.23,7.23,0,0,1,2.38-5.38,7.38,7.38,0,0,1,4.16-1.88A5.35,5.35,0,0,1,338.64,84.88Z"/><path class="cls-13" d="M341.1,73.8s2.64,0,2.29-2-3-1.22-3-1.22Z"/><path class="cls-13" d="M357.1,102.56s2.78,1.44,3.62-.87-2.44-2.94-2.44-2.94Z"/><text class="cls-57" transform="translate(33.96 51.84)">Este<tspan class="cls-58" x="24.01" y="0"> </tspan><tspan x="33.93" y="0">comité</tspan><tspan class="cls-59" x="69.27" y="0"> </tspan><tspan x="79.19" y="0">tuvo</tspan><tspan class="cls-58" x="101.87" y="0"> </tspan><tspan x="111.79" y="0">un</tspan><tspan class="cls-59" x="125.14" y="0"> </tspan><tspan x="135.06" y="0">mandato</tspan><tspan class="cls-58" x="181.76" y="0"> </tspan><tspan x="191.68" y="0">muy </tspan><tspan x="0" y="14.4">limitado,</tspan><tspan class="cls-60" x="44.68" y="14.4"> </tspan><tspan x="51.24" y="14.4">pues</tspan><tspan class="cls-60" x="77.26" y="14.4"> </tspan><tspan x="83.82" y="14.4">solamente</tspan><tspan class="cls-61" x="139.18" y="14.4"> </tspan><tspan x="145.74" y="14.4">contaba</tspan><tspan class="cls-60" x="188.44" y="14.4"> </tspan><tspan x="195" y="14.4">con </tspan><tspan x="0" y="28.8">cuatro</tspan><tspan class="cls-62" x="33.35" y="28.8"> </tspan><tspan x="46.42" y="28.8">meses</tspan><tspan class="cls-62" x="81.76" y="28.8"> </tspan><tspan x="94.83" y="28.8">para</tspan><tspan class="cls-63" x="118.85" y="28.8"> </tspan><tspan x="131.92" y="28.8">desarrollar</tspan><tspan class="cls-62" x="188.61" y="28.8"> </tspan><tspan x="201.67" y="28.8">su </tspan><tspan x="0" y="43.2">actividad,</tspan><tspan class="cls-64" x="50.7" y="43.2"> </tspan><tspan x="59.18" y="43.2">lo</tspan><tspan class="cls-64" x="68.52" y="43.2"> </tspan><tspan x="77" y="43.2">que</tspan><tspan class="cls-64" x="97.02" y="43.2"> </tspan><tspan x="105.5" y="43.2">conllevó</tspan><tspan class="cls-65" x="149.53" y="43.2"> </tspan><tspan x="158.01" y="43.2">a</tspan><tspan class="cls-64" x="164.69" y="43.2"> </tspan><tspan x="173.17" y="43.2">que</tspan><tspan class="cls-64" x="193.19" y="43.2"> </tspan><tspan x="201.67" y="43.2">su </tspan><tspan x="0" y="57.6">informe</tspan><tspan class="cls-66" x="40.01" y="57.6"> </tspan><tspan x="44.46" y="57.6">fuese</tspan><tspan class="cls-67" x="73.82" y="57.6"> </tspan><tspan x="78.26" y="57.6">un</tspan><tspan class="cls-66" x="91.61" y="57.6"> </tspan><tspan x="96.05" y="57.6">recuento</tspan><tspan class="cls-67" x="142.75" y="57.6"> </tspan><tspan x="147.2" y="57.6">muy</tspan><tspan class="cls-66" x="169.87" y="57.6"> </tspan><tspan x="174.32" y="57.6">general </tspan><tspan x="0" y="72">de</tspan><tspan class="cls-68" x="13.35" y="72"> </tspan><tspan x="24.58" y="72">informes</tspan><tspan class="cls-68" x="70.59" y="72"> </tspan><tspan x="81.82" y="72">presentados</tspan><tspan class="cls-69" x="147.87" y="72"> </tspan><tspan x="159.1" y="72">por</tspan><tspan class="cls-68" x="176.44" y="72"> </tspan><tspan x="187.67" y="72">otras </tspan><tspan x="0" y="86.4">instancias,</tspan><tspan class="cls-70" x="56.7" y="86.4"> </tspan><tspan x="62.62" y="86.4">pero</tspan><tspan class="cls-70" x="86.64" y="86.4"> </tspan><tspan x="92.57" y="86.4">sin</tspan><tspan class="cls-71" x="107.91" y="86.4"> </tspan><tspan x="113.83" y="86.4">el</tspan><tspan class="cls-70" x="123.17" y="86.4"> </tspan><tspan x="129.1" y="86.4">nivel</tspan><tspan class="cls-70" x="153.78" y="86.4"> </tspan><tspan x="159.71" y="86.4">de</tspan><tspan class="cls-70" x="173.06" y="86.4"> </tspan><tspan x="178.99" y="86.4">detalle </tspan><tspan x="0" y="100.8">que</tspan><tspan class="cls-72" x="20.02" y="100.8"> </tspan><tspan x="28.95" y="100.8">tenía</tspan><tspan class="cls-72" x="55.64" y="100.8"> </tspan><tspan x="64.57" y="100.8">el</tspan><tspan class="cls-72" x="73.91" y="100.8"> </tspan><tspan x="82.84" y="100.8">informe</tspan><tspan class="cls-73" x="122.85" y="100.8"> </tspan><tspan x="131.78" y="100.8">del</tspan><tspan class="cls-72" x="147.8" y="100.8"> </tspan><tspan x="156.73" y="100.8">comité</tspan><tspan class="cls-72" x="192.07" y="100.8"> </tspan><tspan x="201" y="100.8">de </tspan><tspan x="0" y="115.2">expertos para la antigua</tspan><tspan class="cls-74" x="128.75" y="115.2"> </tspan><tspan class="cls-75" x="131.87" y="115.2">Y</tspan><tspan x="139.21" y="115.2">ugoslavia. </tspan></text><text class="cls-57" transform="translate(590.05 70.42)">El<tspan class="cls-76" x="10.67" y="0"> </tspan><tspan x="13.62" y="0">4</tspan><tspan class="cls-77" x="20.29" y="0"> </tspan><tspan x="23.24" y="0">de</tspan><tspan class="cls-76" x="36.58" y="0"> </tspan><tspan x="39.53" y="0">octubre</tspan><tspan class="cls-77" x="79.56" y="0"> </tspan><tspan x="82.5" y="0">de</tspan><tspan class="cls-76" x="95.85" y="0"> </tspan><tspan x="98.8" y="0">1999</tspan><tspan class="cls-77" x="125.49" y="0"> </tspan><tspan x="128.44" y="0">el</tspan><tspan class="cls-76" x="137.78" y="0"> </tspan><tspan x="140.73" y="0">comité</tspan><tspan class="cls-77" x="176.07" y="0"> </tspan><tspan x="179.02" y="0">presentó</tspan><tspan class="cls-76" x="225.72" y="0"> </tspan><tspan x="228.66" y="0">su </tspan><tspan x="0" y="14.4">informe prelimina</tspan><tspan class="cls-75" x="92.03" y="14.4">r</tspan><tspan x="95.37" y="14.4">.</tspan></text><text class="cls-57" transform="translate(493.02 125.94)"><tspan class="cls-74">Y</tspan><tspan class="cls-78" x="7.79" y="0"> </tspan><tspan x="11.59" y="0">el</tspan><tspan class="cls-79" x="20.93" y="0"> </tspan><tspan x="24.74" y="0">9</tspan><tspan class="cls-78" x="31.42" y="0"> </tspan><tspan x="35.22" y="0">de</tspan><tspan class="cls-79" x="48.57" y="0"> </tspan><tspan x="52.38" y="0">diciembre</tspan><tspan class="cls-78" x="104.4" y="0"> </tspan><tspan x="108.2" y="0">de</tspan><tspan class="cls-79" x="121.55" y="0"> </tspan><tspan x="125.36" y="0">1994</tspan><tspan class="cls-78" x="152.05" y="0"> </tspan><tspan x="155.86" y="0">el</tspan><tspan class="cls-79" x="165.2" y="0"> </tspan><tspan x="169.01" y="0">informe</tspan><tspan class="cls-78" x="209.02" y="0"> </tspan><tspan x="212.83" y="0">definitivo </tspan><tspan x="0" y="14.4">ante</tspan><tspan class="cls-80" x="23.36" y="14.4"> </tspan><tspan x="27.46" y="14.4">el</tspan><tspan class="cls-80" x="36.8" y="14.4"> </tspan><tspan x="40.9" y="14.4">secretario</tspan><tspan class="cls-80" x="93.58" y="14.4"> </tspan><tspan x="97.68" y="14.4">general,</tspan><tspan class="cls-80" x="141.05" y="14.4"> </tspan><tspan x="145.15" y="14.4">informe</tspan><tspan class="cls-80" x="185.16" y="14.4"> </tspan><tspan x="189.26" y="14.4">que,</tspan><tspan class="cls-80" x="212.62" y="14.4"> </tspan><tspan x="216.72" y="14.4">aún</tspan><tspan class="cls-80" x="236.74" y="14.4"> </tspan><tspan x="240.84" y="14.4">con </tspan><tspan x="0" y="28.8">grandes</tspan><tspan class="cls-81" x="43.37" y="28.8"> </tspan><tspan x="46.15" y="28.8">falencias,</tspan><tspan class="cls-81" x="96.84" y="28.8"> </tspan><tspan x="99.63" y="28.8">fue</tspan><tspan class="cls-81" x="116.31" y="28.8"> </tspan><tspan x="119.09" y="28.8">un</tspan><tspan class="cls-82" x="132.44" y="28.8"> </tspan><tspan x="135.23" y="28.8">insumo</tspan><tspan class="cls-81" x="173.91" y="28.8"> </tspan><tspan x="176.69" y="28.8">importante</tspan><tspan class="cls-81" x="233.39" y="28.8"> </tspan><tspan x="236.17" y="28.8">para </tspan><tspan x="0" y="43.2">que</tspan><tspan class="cls-83" x="20.02" y="43.2"> </tspan><tspan x="23.25" y="43.2">finalmente</tspan><tspan class="cls-83" x="78.61" y="43.2"> </tspan><tspan x="81.84" y="43.2">el</tspan><tspan class="cls-84" x="91.18" y="43.2"> </tspan><tspan x="94.4" y="43.2">consejo</tspan><tspan class="cls-83" x="135.76" y="43.2"> </tspan><tspan x="138.99" y="43.2">de</tspan><tspan class="cls-83" x="152.34" y="43.2"> </tspan><tspan x="155.56" y="43.2">seguridad</tspan><tspan class="cls-83" x="208.27" y="43.2"> </tspan><tspan x="211.49" y="43.2">decidiera </tspan><tspan x="0" y="57.6">crear el tribunal penal internacional para Ruanda.</tspan></text></g></g></svg>