<svg xmlns="http://www.w3.org/2000/svg" viewBox="0 0 874.77 210.9"><defs><style>.cls-1{isolation:isolate;}.cls-2,.cls-3{fill:#d3d3d3;}.cls-2{opacity:0.45;}.cls-3{mix-blend-mode:soft-light;}.cls-4{fill:#9d6b3b;}.cls-5{fill:#843e19;}.cls-6{fill:#c22f2f;}.cls-7{fill:#1e1e1e;}.cls-8{fill:#23282b;}.cls-9{fill:#855a2b;}.cls-10{fill:#6c3900;}.cls-11{fill:#bb9877;}.cls-12{fill:#c0a081;opacity:0.44;}.cls-12,.cls-25{mix-blend-mode:multiply;}.cls-13{fill:#f4bc02;}.cls-14{fill:#353535;}.cls-15{fill:#fcc083;}.cls-16{fill:#efefef;}.cls-17{fill:#dbdbdb;}.cls-18{fill:#a3a5a6;}.cls-19{fill:#f7f7f7;}.cls-20{fill:#a4a4a4;}.cls-21{fill:#cdcdcd;}.cls-22{fill:#c9cccc;}.cls-23{fill:#a8a8a8;}.cls-24{fill:#a0a4a4;}.cls-25{fill:#c6c8c8;opacity:0.74;}.cls-26{fill:#e8e9e9;}.cls-27{fill:#b5b8b8;}.cls-28{fill:#303336;}.cls-29{fill:#414447;}.cls-30{fill:#24272b;}.cls-31{fill:#35383b;}.cls-32{fill:#9c9d9f;}.cls-33{fill:#9f6432;}.cls-34{fill:#515b5b;}.cls-35{fill:#fdcd9f;}.cls-36{fill:#5a5e60;}.cls-37{font-size:12px;font-family:ArialMT, Arial;}.cls-38{letter-spacing:0.33em;}.cls-39{letter-spacing:0.33em;}.cls-40{letter-spacing:-0.06em;}.cls-41{letter-spacing:0.23em;}.cls-42{letter-spacing:0.23em;}.cls-43{letter-spacing:-0.03em;}.cls-44{letter-spacing:-0.03em;}.cls-45{letter-spacing:0.02em;}.cls-46{letter-spacing:0.02em;}.cls-47{letter-spacing:-0.02em;}.cls-48{letter-spacing:-0.02em;}.cls-49{letter-spacing:0.36em;}.cls-50{letter-spacing:0.36em;}.cls-51{letter-spacing:0.17em;}.cls-52{letter-spacing:0.17em;}.cls-53{letter-spacing:0.02em;}</style></defs><title>ruanda4</title><g class="cls-1"><g id="Capa_1" data-name="Capa 1"><rect class="cls-2" x="-8.24" y="-2.65" width="886.63" height="220.62"/><circle class="cls-3" cx="668.16" cy="186.33" r="174.88"/><rect class="cls-4" x="642.04" y="189.22" width="52.25" height="37.01"/><path class="cls-5" d="M647.26,56.74h.07a3.14,3.14,0,0,0,3.13-3.14v-17a3.2,3.2,0,0,0-3.2-3.2h-.06a3.13,3.13,0,0,0-3.13,3.13v17A3.19,3.19,0,0,0,647.26,56.74Z"/><path class="cls-5" d="M689.26,56.74h.07a3.19,3.19,0,0,0,3.19-3.2V36.59a3.19,3.19,0,0,0-3.19-3.2h-.07a3.13,3.13,0,0,0-3.13,3.13V53.6A3.14,3.14,0,0,0,689.26,56.74Z"/><rect class="cls-6" x="651.19" y="27.1" width="34.21" height="39.08"/><rect class="cls-7" x="654.45" y="47.22" width="27.79" height="16.93"/><path class="cls-5" d="M649.16,31.12a5.2,5.2,0,0,0,6.37,1.34,32.52,32.52,0,0,1,25.53,0,5.21,5.21,0,0,0,6.37-1.34l.05-.07c1.52-2.54-.45-5.37-2.82-6.44a41.11,41.11,0,0,0-32.73,0c-2.37,1.07-4.34,3.9-2.82,6.44Z"/><path class="cls-5" d="M697.48,56.74h.07a3.14,3.14,0,0,0,3.13-3.14v-17a3.19,3.19,0,0,0-3.19-3.2h-.07a3.13,3.13,0,0,0-3.13,3.13v17A3.19,3.19,0,0,0,697.48,56.74Z"/><path class="cls-5" d="M739.48,56.74h.07a3.19,3.19,0,0,0,3.19-3.2V36.59a3.19,3.19,0,0,0-3.19-3.2h-.07a3.13,3.13,0,0,0-3.13,3.13V53.6A3.14,3.14,0,0,0,739.48,56.74Z"/><rect class="cls-6" x="701.41" y="27.1" width="34.22" height="39.08"/><path class="cls-5" d="M699.38,31.12a5.2,5.2,0,0,0,6.37,1.34,32.52,32.52,0,0,1,25.53,0,5.2,5.2,0,0,0,6.37-1.34l.05-.07c1.52-2.54-.45-5.37-2.82-6.44a41.11,41.11,0,0,0-32.73,0c-2.37,1.07-4.34,3.9-2.82,6.44Z"/><path class="cls-5" d="M596.33,56.74h.07a3.14,3.14,0,0,0,3.13-3.14v-17a3.2,3.2,0,0,0-3.2-3.2h-.06a3.13,3.13,0,0,0-3.13,3.13v17A3.19,3.19,0,0,0,596.33,56.74Z"/><path class="cls-5" d="M638.33,56.74h.07a3.19,3.19,0,0,0,3.19-3.2V36.59a3.19,3.19,0,0,0-3.19-3.2h-.07a3.13,3.13,0,0,0-3.13,3.13V53.6A3.14,3.14,0,0,0,638.33,56.74Z"/><rect class="cls-6" x="600.26" y="27.1" width="34.21" height="39.08"/><path class="cls-5" d="M598.23,31.12a5.21,5.21,0,0,0,6.37,1.34,32.52,32.52,0,0,1,25.53,0,5.2,5.2,0,0,0,6.37-1.34l0-.07c1.52-2.54-.45-5.37-2.82-6.44a41.11,41.11,0,0,0-32.73,0c-2.37,1.07-4.34,3.9-2.82,6.44Z"/><polygon class="cls-8" points="650.8 46.13 685.79 46.13 682.2 56.25 654.39 56.25 650.8 46.13"/><rect class="cls-4" x="587.36" y="53.35" width="161.61" height="40.01"/><path class="cls-9" d="M631.9,83.15a3.74,3.74,0,1,1-3.74-3.74A3.73,3.73,0,0,1,631.9,83.15Z"/><path class="cls-10" d="M631.3,83.15A3.14,3.14,0,1,1,628.16,80,3.14,3.14,0,0,1,631.3,83.15Z"/><path class="cls-11" d="M626.31,81.29c-.26-.73,13.36-6.36,14.09-6.62a1.4,1.4,0,1,1,1,2.63C640.63,77.57,626.58,82,626.31,81.29Z"/><path class="cls-4" d="M632.06,80.22a1.25,1.25,0,1,0-.66-1.81,1.41,1.41,0,0,1,.69.77A1.38,1.38,0,0,1,632.06,80.22Z"/><path class="cls-12" d="M630.62,80.52a1.15,1.15,0,0,0,0-.78,2,2,0,0,0-.38-.67c-2.27,1.05-4,2-3.89,2.22S628.25,81.15,630.62,80.52Z"/><path class="cls-4" d="M625.33,79.35a3.5,3.5,0,0,0,.11,2.26,3.59,3.59,0,0,0,1.36,1.8.47.47,0,0,1,.2.55,3.57,3.57,0,0,0-.12.71L630,83.52a2.9,2.9,0,0,0-.55-.46.49.49,0,0,1-.2-.56,3.85,3.85,0,0,0-1.48-4,.51.51,0,0,1-.2-.56,3.57,3.57,0,0,0,.12-.71l-3.16,1.15a4,4,0,0,0,.55.47A.48.48,0,0,1,625.33,79.35Z"/><path class="cls-4" d="M627.33,85h0a.93.93,0,0,0,1,.19l1-.37a.93.93,0,0,0,.61-.77h0Z"/><path class="cls-13" d="M626.08,82.44l3.14-1.15a.37.37,0,0,1,.47.22h0a.37.37,0,0,1-.22.47l-3.14,1.14a.37.37,0,0,1-.47-.21h0A.36.36,0,0,1,626.08,82.44Z"/><path class="cls-11" d="M626.7,84.41l3.31-1.2a.4.4,0,0,1,.5.23h0a.38.38,0,0,1-.23.49L627,85.15a.38.38,0,0,1-.49-.23h0A.4.4,0,0,1,626.7,84.41Z"/><path class="cls-4" d="M624.69,77.78h0a.94.94,0,0,1,.61-.77l1-.37a.94.94,0,0,1,1,.2h0Z"/><path class="cls-13" d="M625.4,80.56l3.14-1.14a.37.37,0,0,0,.22-.47h0a.35.35,0,0,0-.46-.22l-3.14,1.15a.37.37,0,0,0-.23.46h0A.36.36,0,0,0,625.4,80.56Z"/><path class="cls-11" d="M624.6,78.65l3.31-1.21a.38.38,0,0,0,.23-.49h0a.38.38,0,0,0-.5-.23l-3.3,1.2a.38.38,0,0,0-.23.5h0A.38.38,0,0,0,624.6,78.65Z"/><path class="cls-14" d="M649.68,71.88l-3.31-10.21a7.61,7.61,0,0,1,.89-6.59l4.16-6.32a8.24,8.24,0,0,0,1.94.23h30.08a8.17,8.17,0,0,0,2.67-.44l3.73,8.12a7.66,7.66,0,0,1,.18,6l-4.86,12.53,6.43,2.32,6.08-15.33a7.64,7.64,0,0,0,.12-5.33l-5.23-15.11a8.38,8.38,0,0,0-4.1-4.73c-3.79-1.94-10.16-5-13.1-5H661c-3.15,0-9.2,3.19-12.65,5.12a8.34,8.34,0,0,0-3.7,4.2l-5.73,14.17a7.61,7.61,0,0,0-.15,5.34l4.5,13.27Z"/><path class="cls-15" d="M685.16,75.18s-2.9,4.64,1.11,6.22,5.32-3.9,5.32-3.9Z"/><path class="cls-15" d="M643.27,74.07s.84,5.25,4.85,4.08,1.57-6.3,1.57-6.3Z"/><ellipse class="cls-15" cx="679.29" cy="42.63" rx="2.35" ry="3.14"/><path class="cls-15" d="M657,45.77c1.29,0,2.34-1.41,2.34-3.14s-1-3.15-2.34-3.15-2.35,1.41-2.35,3.15S655.74,45.77,657,45.77Z"/><path class="cls-15" d="M662.28,53.24c1.17.58,4.19,1.54,4.19,1.54l1.19,2.06a.61.61,0,0,0,.5.36h0a.63.63,0,0,0,.51-.36l1.18-2.06s3-1,4.2-1.54a5,5,0,0,0,2.52-2.9l2.06-5.76H657.69l2.07,5.76A5,5,0,0,0,662.28,53.24Z"/><path class="cls-16" d="M683.76,47.56c.67,0,1.32-.41,1.75-1.89a20.24,20.24,0,0,0,.56-5,17.83,17.83,0,0,0-1-6.12c-.37-.94-.84-1.25-1.36-1.25s-1,.31-1.36,1.25a17.59,17.59,0,0,0-.95,6.12,20.24,20.24,0,0,0,.56,5C682.44,47.15,683.08,47.56,683.76,47.56Z"/><path class="cls-17" d="M679.61,50.28c1,0,2-.56,2.72-2.61a25.17,25.17,0,0,0,.88-6.85,22.11,22.11,0,0,0-1.48-8.47c-.58-1.31-1.3-1.73-2.12-1.73s-1.54.42-2.12,1.73A22.11,22.11,0,0,0,676,40.82a25.17,25.17,0,0,0,.88,6.85C677.56,49.72,678.56,50.28,679.61,50.28Z"/><path class="cls-16" d="M652.93,47.56c-.68,0-1.32-.41-1.76-1.89a20.74,20.74,0,0,1-.56-5,17.83,17.83,0,0,1,.95-6.12c.38-.94.84-1.25,1.37-1.25s1,.31,1.36,1.25a17.83,17.83,0,0,1,1,6.12,20.74,20.74,0,0,1-.56,5C654.24,47.15,653.6,47.56,652.93,47.56Z"/><path class="cls-17" d="M657.07,50.28c-1.05,0-2-.56-2.72-2.61a25.2,25.2,0,0,1-.87-6.85A21.92,21.92,0,0,1,655,32.35c.58-1.31,1.3-1.73,2.11-1.73s1.54.42,2.12,1.73a21.92,21.92,0,0,1,1.48,8.47,25.2,25.2,0,0,1-.87,6.85C659.12,49.72,658.13,50.28,657.07,50.28Z"/><path class="cls-16" d="M668.16,53.35c3.49,0,6.8-.73,9.05-3.43a15.18,15.18,0,0,0,2.9-9,14.89,14.89,0,0,0-4.92-11.11,12,12,0,0,0-14.06,0,14.89,14.89,0,0,0-4.92,11.11,15.25,15.25,0,0,0,2.9,9C661.36,52.62,664.67,53.35,668.16,53.35Z"/><rect class="cls-18" x="655.64" y="70.15" width="25.04" height="18.4"/><rect class="cls-19" x="668.94" y="71.75" width="10.32" height="14.75"/><rect class="cls-20" x="673.71" y="69.45" width="0.53" height="7.61" transform="translate(598.43 746.98) rotate(-89.8)"/><rect class="cls-20" x="673.71" y="70.8" width="0.53" height="7.61" transform="translate(597.07 748.32) rotate(-89.8)"/><rect class="cls-20" x="673.71" y="72.16" width="0.53" height="7.61" transform="translate(595.69 749.67) rotate(-89.8)"/><rect class="cls-20" x="673.7" y="73.52" width="0.53" height="7.61" transform="translate(594.35 751.02) rotate(-89.8)"/><rect class="cls-20" x="673.7" y="74.87" width="0.53" height="7.61" transform="translate(592.99 752.37) rotate(-89.8)"/><rect class="cls-20" x="673.69" y="76.23" width="0.53" height="7.61" transform="translate(591.63 753.72) rotate(-89.8)"/><rect class="cls-20" x="673.69" y="77.59" width="0.53" height="7.61" transform="translate(590.26 755.06) rotate(-89.8)"/><rect class="cls-20" x="673.69" y="78.95" width="0.53" height="7.61" transform="translate(588.89 756.41) rotate(-89.8)"/><rect class="cls-20" x="673.68" y="80.3" width="0.53" height="7.61" transform="translate(587.53 757.76) rotate(-89.8)"/><rect class="cls-19" x="657.52" y="71.75" width="10.32" height="14.75"/><rect class="cls-20" x="662.3" y="69.44" width="0.53" height="7.61" transform="translate(587.04 735.56) rotate(-89.8)"/><rect class="cls-20" x="662.29" y="70.8" width="0.53" height="7.61" transform="translate(585.75 736.91) rotate(-89.81)"/><rect class="cls-20" x="662.29" y="72.16" width="0.53" height="7.61" transform="translate(584.34 738.25) rotate(-89.8)"/><rect class="cls-20" x="662.29" y="73.52" width="0.53" height="7.61" transform="translate(582.97 739.6) rotate(-89.8)"/><rect class="cls-20" x="662.28" y="74.87" width="0.53" height="7.61" transform="translate(581.54 740.94) rotate(-89.8)"/><rect class="cls-20" x="662.28" y="76.23" width="0.53" height="7.61" transform="translate(580.24 742.3) rotate(-89.8)"/><rect class="cls-20" x="662.27" y="77.59" width="0.53" height="7.61" transform="matrix(0, -1, 1, 0, 578.88, 743.65)"/><rect class="cls-20" x="662.27" y="78.94" width="0.53" height="7.61" transform="translate(577.53 745) rotate(-89.8)"/><rect class="cls-20" x="662.27" y="80.3" width="0.53" height="7.61" transform="translate(576.17 746.34) rotate(-89.8)"/><polygon class="cls-21" points="708.82 88.2 714.53 89.42 712.34 85.96 708.82 88.2"/><polygon class="cls-22" points="714.53 89.42 726.53 81.8 714.72 63.21 699.21 73.06 708.82 88.2 712.34 85.96 714.53 89.42"/><polygon class="cls-23" points="712.34 85.96 708.82 88.2 714.53 89.42 712.34 85.96"/><rect class="cls-24" x="705.34" y="76.65" width="14.22" height="0.95" transform="translate(69.79 394.18) rotate(-32.44)"/><rect class="cls-24" x="704.4" y="75.18" width="14.22" height="0.95" transform="translate(70.41 393.4) rotate(-32.43)"/><rect class="cls-24" x="703.47" y="73.71" width="14.22" height="0.95" transform="translate(71.05 392.66) rotate(-32.43)"/><rect class="cls-24" x="702.53" y="72.23" width="14.22" height="0.95" transform="translate(71.72 391.98) rotate(-32.44)"/><rect class="cls-24" x="701.59" y="70.76" width="14.22" height="0.95" transform="translate(72.34 391.2) rotate(-32.43)"/><rect class="cls-24" x="708.12" y="81.02" width="14.22" height="0.95" transform="translate(67.87 396.34) rotate(-32.44)"/><rect class="cls-24" x="707.18" y="79.55" width="14.22" height="0.95" transform="translate(68.5 395.57) rotate(-32.43)"/><rect class="cls-24" x="706.24" y="78.07" width="14.22" height="0.95" transform="translate(69.15 394.84) rotate(-32.43)"/><polygon class="cls-25" points="714.69 83.96 724.07 78 714.74 63.3 701.84 71.5 708.98 82.74 714.69 83.96"/><polygon class="cls-21" points="710.89 80.75 716.6 81.97 714.41 78.52 710.89 80.75"/><polygon class="cls-26" points="716.6 81.97 728.6 74.35 716.78 55.76 701.28 65.62 710.89 80.75 714.41 78.52 716.6 81.97"/><polygon class="cls-23" points="714.41 78.52 710.89 80.75 716.6 81.97 714.41 78.52"/><rect class="cls-27" x="707.41" y="69.21" width="14.22" height="0.95" transform="translate(74.08 394.08) rotate(-32.43)"/><rect class="cls-27" x="706.47" y="67.73" width="14.22" height="0.95" transform="matrix(0.84, -0.54, 0.54, 0.84, 74.72, 393.34)"/><rect class="cls-27" x="705.54" y="66.26" width="14.22" height="0.95" transform="translate(75.39 392.66) rotate(-32.44)"/><rect class="cls-27" x="704.6" y="64.79" width="14.22" height="0.95" transform="translate(76.01 391.88) rotate(-32.43)"/><rect class="cls-27" x="703.66" y="63.31" width="14.22" height="0.95" transform="translate(76.66 391.15) rotate(-32.43)"/><rect class="cls-27" x="710.19" y="73.57" width="14.22" height="0.95" transform="translate(72.17 396.25) rotate(-32.43)"/><rect class="cls-27" x="709.25" y="72.1" width="14.22" height="0.95" transform="translate(72.82 395.52) rotate(-32.43)"/><rect class="cls-27" x="708.31" y="70.63" width="14.22" height="0.95" transform="translate(73.48 394.83) rotate(-32.44)"/><polygon class="cls-21" points="596.12 71.01 596.53 76.83 599.24 73.76 596.12 71.01"/><polygon class="cls-22" points="596.53 76.83 607.19 86.23 621.76 69.71 607.97 57.56 596.12 71.01 599.24 73.76 596.53 76.83"/><polygon class="cls-23" points="599.24 73.76 596.12 71.01 596.53 76.83 599.24 73.76"/><rect class="cls-24" x="607.28" y="64.3" width="0.95" height="14.22" transform="translate(152.25 480.05) rotate(-48.6)"/><rect class="cls-24" x="608.43" y="62.99" width="0.95" height="14.22" transform="translate(153.62 480.47) rotate(-48.6)"/><rect class="cls-24" x="609.59" y="61.68" width="0.95" height="14.22" transform="translate(155.01 480.91) rotate(-48.6)"/><rect class="cls-24" x="610.74" y="60.37" width="0.95" height="14.22" transform="translate(156.39 481.34) rotate(-48.6)"/><rect class="cls-24" x="611.9" y="59.06" width="0.95" height="14.22" transform="translate(157.76 481.75) rotate(-48.6)"/><rect class="cls-24" x="603.86" y="68.18" width="0.95" height="14.22" transform="translate(148.2 478.82) rotate(-48.6)"/><rect class="cls-24" x="605.01" y="66.88" width="0.95" height="14.22" transform="translate(149.57 479.24) rotate(-48.6)"/><rect class="cls-24" x="606.17" y="65.57" width="0.95" height="14.22" transform="translate(150.94 479.66) rotate(-48.6)"/><polygon class="cls-25" points="601.82 75.47 610.16 82.82 621.67 69.76 610.21 59.65 601.4 69.64 601.82 75.47"/><polygon class="cls-21" points="603.84 70.92 604.26 76.75 606.97 73.68 603.84 70.92"/><polygon class="cls-26" points="604.26 76.75 614.92 86.15 629.48 69.63 615.7 57.48 603.84 70.92 606.97 73.68 604.26 76.75"/><polygon class="cls-23" points="606.97 73.68 603.84 70.92 604.26 76.75 606.97 73.68"/><rect class="cls-27" x="615.01" y="64.22" width="0.95" height="14.22" transform="translate(154.95 485.83) rotate(-48.6)"/><rect class="cls-27" x="616.16" y="62.91" width="0.95" height="14.22" transform="translate(156.32 486.26) rotate(-48.6)"/><rect class="cls-27" x="617.32" y="61.6" width="0.95" height="14.22" transform="translate(157.69 486.68) rotate(-48.6)"/><rect class="cls-27" x="618.47" y="60.29" width="0.95" height="14.22" transform="translate(159.05 487.08) rotate(-48.6)"/><rect class="cls-27" x="619.63" y="58.98" width="0.95" height="14.22" transform="translate(160.43 487.51) rotate(-48.6)"/><rect class="cls-27" x="611.58" y="68.1" width="0.95" height="14.22" transform="translate(150.88 484.58) rotate(-48.6)"/><rect class="cls-27" x="612.74" y="66.79" width="0.95" height="14.22" transform="translate(152.25 485.01) rotate(-48.6)"/><rect class="cls-27" x="613.89" y="65.48" width="0.95" height="14.22" transform="translate(153.64 485.45) rotate(-48.6)"/><rect class="cls-4" x="768.83" y="105.33" width="39.47" height="141.55"/><path class="cls-5" d="M828.93,109a5.28,5.28,0,0,0-1.36,6.47,33.06,33.06,0,0,1,0,25.89,5.28,5.28,0,0,0,1.36,6.47l.07.05c2.58,1.54,5.44-.46,6.53-2.86a41.77,41.77,0,0,0,0-33.21c-1.09-2.4-3.95-4.4-6.53-2.86Z"/><path class="cls-28" d="M830,134.9v-13a42,42,0,0,0-1.1-6.8c-.81-3.55-4.23-6.94-8.68-8.2l-11.83,6.16c0,8.72,0,21.59-.05,30.33l12.08,6.11c4.5-1.27,8-4.75,8.68-8.34A44.14,44.14,0,0,0,830,134.9Z"/><path class="cls-29" d="M828.76,113.1a8.43,8.43,0,0,0-8.21-6.62h-.15a8.25,8.25,0,0,0-3.51.79h0l-8.6,3.18v7.14s1.84.31,3.74.68c0,6.33,0,14.08,0,20.34-1.25.08-2.58.14-3.71.17V146l8.6,3.24h0a8.25,8.25,0,0,0,3.48.77h.35a8.4,8.4,0,0,0,8.25-6.8,52.39,52.39,0,0,0,1-7.15V120.82A48.42,48.42,0,0,0,828.76,113.1Z"/><path class="cls-15" d="M816.86,139c0,1.23,1.34,2.24,3,2.24s3-1,3-2.24-1.34-2.24-3-2.24S816.86,137.76,816.86,139Z"/><path class="cls-15" d="M816.86,117.79c0,1.23,1.34,2.23,3,2.23s3-1,3-2.23-1.34-2.24-3-2.24S816.86,116.55,816.86,117.79Z"/><path class="cls-15" d="M809.74,122.78c-.55,1.13-1.47,4-1.47,4l-2,1.13a.58.58,0,0,0-.34.48h0a.58.58,0,0,0,.34.48l2,1.13s.92,2.88,1.47,4a4.73,4.73,0,0,0,2.77,2.4l5.49,2v-10h0v-10l-5.49,2A4.73,4.73,0,0,0,809.74,122.78Z"/><path class="cls-30" d="M809.63,128.39c0,3.33.7,6.48,3.28,8.63a14.5,14.5,0,0,0,8.57,2.76,14.15,14.15,0,0,0,10.58-4.69,11.43,11.43,0,0,0,0-13.4A14.15,14.15,0,0,0,821.48,117a14.5,14.5,0,0,0-8.57,2.77C810.33,121.91,809.63,125.07,809.63,128.39Z"/><path class="cls-5" d="M828.93,157.42a5.28,5.28,0,0,0-1.36,6.47,33.06,33.06,0,0,1,0,25.89,5.28,5.28,0,0,0,1.36,6.47l.07.05c2.58,1.54,5.44-.46,6.53-2.86a41.77,41.77,0,0,0,0-33.21c-1.09-2.4-3.95-4.4-6.53-2.85Z"/><path class="cls-31" d="M830,183.34v-13a30.06,30.06,0,0,0-1.44-6.59c-1-3.29-5.12-5.65-9.89-5.65l-10.29,7.15c0,6.56,0,16.23,0,22.8l10.54,7.17c4.85,0,9-2.44,9.94-5.8A32.54,32.54,0,0,0,830,183.34Z"/><path class="cls-29" d="M830,184.49V169.26a48.42,48.42,0,0,0-1.19-7.72,8.43,8.43,0,0,0-8.21-6.62h-.15a8.4,8.4,0,0,0-8.4,8.38c0,7.7,0,19,0,26.74a8.39,8.39,0,0,0,8.4,8.4h.35a8.4,8.4,0,0,0,8.25-6.8A52.39,52.39,0,0,0,830,184.49Z"/><path class="cls-32" d="M828.76,161.54a8.43,8.43,0,0,0-8.21-6.62h-.15a8.25,8.25,0,0,0-3.51.79h0l-8.6,3.18V166s1.84.31,3.74.68c0,6.33,0,14.08,0,20.34-1.25.08-2.58.14-3.71.17v7.22l8.6,3.25h0a8.25,8.25,0,0,0,3.48.77h.35a8.4,8.4,0,0,0,8.25-6.8,52.39,52.39,0,0,0,1-7.15V169.26A48.42,48.42,0,0,0,828.76,161.54Z"/><path class="cls-15" d="M816.86,187.44c0,1.24,1.34,2.24,3,2.24s3-1,3-2.24-1.34-2.24-3-2.24S816.86,186.2,816.86,187.44Z"/><path class="cls-15" d="M816.86,166.23c0,1.23,1.34,2.24,3,2.24s3-1,3-2.24-1.34-2.24-3-2.24S816.86,165,816.86,166.23Z"/><path class="cls-15" d="M809.74,171.23c-.55,1.12-1.47,4-1.47,4l-2,1.13a.58.58,0,0,0-.34.48h0a.58.58,0,0,0,.34.48l2,1.13s.92,2.88,1.47,4a4.73,4.73,0,0,0,2.77,2.4l5.49,2v-10h0v-10l-5.49,2A4.75,4.75,0,0,0,809.74,171.23Z"/><path class="cls-33" d="M809.63,176.83c0,3.33.7,6.49,3.28,8.63a14.5,14.5,0,0,0,8.57,2.76,14.15,14.15,0,0,0,10.58-4.69,11.43,11.43,0,0,0,0-13.4,14.19,14.19,0,0,0-10.58-4.69,14.5,14.5,0,0,0-8.57,2.77C810.33,170.35,809.63,173.51,809.63,176.83Z"/><path class="cls-5" d="M828.93,205.86a5.28,5.28,0,0,0-1.36,6.47,33.06,33.06,0,0,1,0,25.89,5.28,5.28,0,0,0,1.36,6.47l.07.05c2.58,1.54,5.44-.46,6.53-2.86a41.77,41.77,0,0,0,0-33.21c-1.09-2.4-3.95-4.39-6.53-2.85Z"/><path class="cls-31" d="M830,231.78v-13a30.06,30.06,0,0,0-1.44-6.59c-1-3.29-5.12-5.65-9.89-5.65l-10.29,7.15c0,6.56,0,16.23,0,22.8l10.54,7.17c4.85,0,9-2.43,9.94-5.8A32.54,32.54,0,0,0,830,231.78Z"/><path class="cls-29" d="M830,232.94V217.71a48.34,48.34,0,0,0-1.19-7.73,8.43,8.43,0,0,0-8.21-6.62h-.15a8.4,8.4,0,0,0-8.4,8.38c0,7.7,0,19,0,26.74a8.4,8.4,0,0,0,8.4,8.41h.35a8.41,8.41,0,0,0,8.25-6.81A52.5,52.5,0,0,0,830,232.94Z"/><path class="cls-29" d="M828.77,210a8.41,8.41,0,0,0-8.21-6.62h-.14a8.29,8.29,0,0,0-3.52.79h0l-8.61,3.18v7.14s1.85.31,3.74.69c0,6.32,0,14.07,0,20.34-1.25.07-2.59.13-3.72.16v7.22l8.61,3.25h0a8.29,8.29,0,0,0,3.48.78h.35a8.41,8.41,0,0,0,8.25-6.81,51.36,51.36,0,0,0,1-7.14V217.71A48.67,48.67,0,0,0,828.77,210Z"/><rect class="cls-4" x="528.02" y="105.33" width="39.47" height="141.55"/><path class="cls-5" d="M507.4,243.24a5.31,5.31,0,0,0,1.36-6.47,33,33,0,0,1,0-25.89,5.31,5.31,0,0,0-1.36-6.47l-.08,0c-2.57-1.54-5.44.46-6.52,2.86a41.69,41.69,0,0,0,0,33.21c1.08,2.4,3.95,4.4,6.52,2.86Z"/><path class="cls-28" d="M506.37,217.32v13a42,42,0,0,0,1.1,6.8c.82,3.55,4.24,6.94,8.69,8.2L528,239.15c0-8.72,0-21.59.06-30.33L516,202.71c-4.5,1.27-8,4.75-8.67,8.34A44.61,44.61,0,0,0,506.37,217.32Z"/><path class="cls-29" d="M507.57,239.12a8.42,8.42,0,0,0,8.21,6.63h.14a8.33,8.33,0,0,0,3.52-.8h0l8.61-3.18v-7.14s-1.85-.3-3.74-.68c0-6.33,0-14.08,0-20.34,1.25-.08,2.59-.14,3.72-.17v-7.22L519.46,203h0a8.28,8.28,0,0,0-3.48-.77h-.35a8.4,8.4,0,0,0-8.25,6.8,51.25,51.25,0,0,0-1,7.15V231.4A48.75,48.75,0,0,0,507.57,239.12Z"/><path class="cls-5" d="M507.4,194.8a5.31,5.31,0,0,0,1.36-6.47,33,33,0,0,1,0-25.89A5.31,5.31,0,0,0,507.4,156l-.08-.05c-2.57-1.54-5.44.46-6.52,2.86a41.69,41.69,0,0,0,0,33.21c1.08,2.4,3.95,4.4,6.52,2.86Z"/><path class="cls-31" d="M506.37,168.88v13a30.68,30.68,0,0,0,1.44,6.59c1,3.29,5.13,5.65,9.89,5.65L528,187c0-6.56,0-16.23,0-22.8L517.5,157c-4.85,0-9,2.44-9.94,5.81A31.77,31.77,0,0,0,506.37,168.88Z"/><path class="cls-29" d="M506.37,167.73V183a48.75,48.75,0,0,0,1.2,7.72,8.41,8.41,0,0,0,8.21,6.62h.14a8.39,8.39,0,0,0,8.4-8.38c0-7.7,0-19,0-26.74a8.4,8.4,0,0,0-8.4-8.4h-.35a8.4,8.4,0,0,0-8.25,6.8A51.25,51.25,0,0,0,506.37,167.73Z"/><path class="cls-32" d="M507.57,190.68a8.41,8.41,0,0,0,8.21,6.62h.14a8.32,8.32,0,0,0,3.52-.79h0l8.61-3.18V186.2s-1.85-.31-3.74-.68c0-6.33,0-14.08,0-20.34,1.25-.08,2.59-.14,3.72-.17v-7.22l-8.61-3.25h0a8.28,8.28,0,0,0-3.48-.77h-.35a8.4,8.4,0,0,0-8.25,6.8,51.25,51.25,0,0,0-1,7.15V183A48.75,48.75,0,0,0,507.57,190.68Z"/><path class="cls-15" d="M519.46,164.78c0-1.23-1.34-2.24-3-2.24s-3,1-3,2.24,1.34,2.24,3,2.24S519.46,166,519.46,164.78Z"/><path class="cls-15" d="M519.46,186c0-1.23-1.34-2.24-3-2.24s-3,1-3,2.24,1.34,2.24,3,2.24S519.46,187.23,519.46,186Z"/><path class="cls-15" d="M526.59,181c.54-1.13,1.46-4,1.46-4l2-1.13a.58.58,0,0,0,.34-.48h0a.58.58,0,0,0-.34-.48l-2-1.13s-.92-2.88-1.46-4a4.76,4.76,0,0,0-2.77-2.4l-5.49-2v10h0v10l5.49-2A4.76,4.76,0,0,0,526.59,181Z"/><path class="cls-30" d="M526.69,175.39c0-3.33-.7-6.49-3.27-8.63a14.52,14.52,0,0,0-8.57-2.76,14.19,14.19,0,0,0-10.59,4.69,11.47,11.47,0,0,0,0,13.4,14.22,14.22,0,0,0,10.59,4.69,14.53,14.53,0,0,0,8.57-2.77C526,181.87,526.69,178.71,526.69,175.39Z"/><path class="cls-5" d="M507.4,146.36a5.31,5.31,0,0,0,1.36-6.47,33,33,0,0,1,0-25.89,5.31,5.31,0,0,0-1.36-6.47l-.08,0c-2.57-1.54-5.44.46-6.52,2.86a41.69,41.69,0,0,0,0,33.21c1.08,2.4,3.95,4.4,6.52,2.85Z"/><path class="cls-31" d="M506.37,120.44v13a30.68,30.68,0,0,0,1.44,6.59c1,3.29,5.13,5.65,9.89,5.65l10.3-7.15c0-6.56,0-16.23,0-22.8l-10.54-7.17c-4.85,0-9,2.44-9.94,5.8A32,32,0,0,0,506.37,120.44Z"/><path class="cls-29" d="M506.37,119.29v15.23a48.75,48.75,0,0,0,1.2,7.72,8.41,8.41,0,0,0,8.21,6.62h.14a8.39,8.39,0,0,0,8.4-8.38c0-7.7,0-19,0-26.74a8.41,8.41,0,0,0-8.4-8.41h-.35a8.41,8.41,0,0,0-8.25,6.81A51.25,51.25,0,0,0,506.37,119.29Z"/><path class="cls-29" d="M507.56,142.24a8.41,8.41,0,0,0,8.2,6.62h.15a8.25,8.25,0,0,0,3.51-.79h0l8.6-3.18v-7.14s-1.84-.31-3.74-.69c0-6.32,0-14.07,0-20.34,1.25-.07,2.58-.13,3.71-.16v-7.22l-8.6-3.25h0a8.24,8.24,0,0,0-3.47-.78h-.36a8.4,8.4,0,0,0-8.24,6.81,51.25,51.25,0,0,0-1,7.15v15.23A47.58,47.58,0,0,0,507.56,142.24Z"/><path class="cls-15" d="M519.46,116.34c0-1.24-1.34-2.24-3-2.24s-3,1-3,2.24,1.34,2.24,3,2.24S519.46,117.58,519.46,116.34Z"/><path class="cls-15" d="M519.46,137.55c0-1.23-1.34-2.24-3-2.24s-3,1-3,2.24,1.34,2.24,3,2.24S519.46,138.79,519.46,137.55Z"/><path class="cls-15" d="M526.59,132.55c.54-1.12,1.46-4,1.46-4l2-1.13a.58.58,0,0,0,.34-.49h0a.58.58,0,0,0-.34-.48l-2-1.13s-.92-2.88-1.46-4a4.76,4.76,0,0,0-2.77-2.4l-5.49-2v10h0v10l5.49-2A4.78,4.78,0,0,0,526.59,132.55Z"/><path class="cls-33" d="M526.69,127c0-3.33-.7-6.49-3.27-8.63a14.52,14.52,0,0,0-8.57-2.76,14.19,14.19,0,0,0-10.59,4.69,9.51,9.51,0,0,0-2.16,6.7,9.54,9.54,0,0,0,2.16,6.7,14.22,14.22,0,0,0,10.59,4.69,14.53,14.53,0,0,0,8.57-2.77C526,133.43,526.69,130.27,526.69,127Z"/><path class="cls-8" d="M608.85,157.67c-3.76,1.47-7.48.92-8.32-1.22s1.52-5.07,5.28-6.55,7.49-.92,8.33,1.22S612.61,156.2,608.85,157.67Z"/><path class="cls-34" d="M609.28,158.43c1.3-1.75-1.29-8.53-3.36-9-4,1.77-6.5,5-5.57,7.33S603.36,162.29,609.28,158.43Z"/><path class="cls-8" d="M599.88,145.77c-2.77,2.94-6.37,4-8,2.46s-.78-5.24,2-8.18,6.37-4,8-2.45S602.65,142.84,599.88,145.77Z"/><path class="cls-34" d="M601.25,145.24c.24-2.17-5.41-6.72-7.42-6.06-4.49,4.06-3.12,7.54-1.13,9.13S598.39,148.49,601.25,145.24Z"/><path class="cls-8" d="M612.49,164.72s-3.16-4.72-3.76-5.38l-19.3-21.23a8.12,8.12,0,0,0-1.41-1.22l4.37-7.13a9.16,9.16,0,0,1,5.61-4l8.85-1.85-1.31-6.39-11.71,2.93a9.19,9.19,0,0,0-5.55,3.44l-9.82,13a8,8,0,0,0-.59,5.31c.86,3.67,2.49,10,4.51,12.21l9.2,10.12c1.88,2.08,8.09,4.62,11.9,6,1.27.48,7.31,2.54,8.18,2.77l26.74,7.3,2.35-7.52S613.16,165.07,612.49,164.72Z"/><polygon class="cls-21" points="627.04 124.55 629.95 119.48 625.99 120.52 627.04 124.55"/><polygon class="cls-26" points="629.95 119.48 626.35 105.73 605.05 111.31 609.7 129.08 627.04 124.55 625.99 120.52 629.95 119.48"/><polygon class="cls-23" points="625.99 120.52 627.04 124.55 629.95 119.48 625.99 120.52"/><rect class="cls-27" x="617.14" y="110.6" width="0.95" height="14.22" transform="translate(-9.68 160.13) rotate(-14.66)"/><rect class="cls-27" x="615.45" y="111.04" width="0.95" height="14.22" transform="translate(-9.85 159.76) rotate(-14.66)"/><rect class="cls-27" x="613.76" y="111.48" width="0.95" height="14.22" transform="translate(-10.02 159.34) rotate(-14.66)"/><rect class="cls-27" x="612.07" y="111.93" width="0.95" height="14.22" transform="translate(-10.19 158.89) rotate(-14.66)"/><rect class="cls-27" x="610.38" y="112.37" width="0.95" height="14.22" transform="translate(-10.35 158.51) rotate(-14.66)"/><rect class="cls-27" x="622.14" y="109.29" width="0.95" height="14.22" transform="translate(-9.19 161.39) rotate(-14.66)"/><rect class="cls-27" x="620.45" y="109.73" width="0.95" height="14.22" transform="translate(-9.35 160.98) rotate(-14.66)"/><rect class="cls-27" x="618.76" y="110.17" width="0.95" height="14.22" transform="translate(-9.52 160.53) rotate(-14.66)"/><path class="cls-35" d="M603.8,158.48c.83.92.51,2.56-.71,3.68s-2.9,1.27-3.73.36-.51-2.56.71-3.68S603,157.57,603.8,158.48Z"/><path class="cls-35" d="M589.52,142.78c.83.91.51,2.56-.72,3.67s-2.89,1.27-3.72.36-.52-2.56.71-3.68S588.68,141.86,589.52,142.78Z"/><path class="cls-35" d="M598.15,141.68c1.16.46,3.78,2,3.78,2l2.21-.48a.58.58,0,0,1,.58.13h0a.59.59,0,0,1,.08.59l-.69,2.16s1.25,2.74,1.6,3.94a4.8,4.8,0,0,1-.43,3.65l-2.74,5.15-6.72-7.39h0l-6.72-7.4,5.4-2.24A4.74,4.74,0,0,1,598.15,141.68Z"/><path class="cls-36" d="M602,145.76c2.24,2.47,3.84,5.28,3.38,8.59a14.46,14.46,0,0,1-4.48,7.82,14.24,14.24,0,0,1-11,3.66,11.48,11.48,0,0,1-9-9.93,14.21,14.21,0,0,1,4.68-10.6,14.48,14.48,0,0,1,8.21-3.72C597.12,141.43,599.77,143.3,602,145.76Z"/><path class="cls-15" d="M606.85,123.91s5.22,0,4.52-4-5.83-2.39-5.83-2.39Z"/><path class="cls-15" d="M638.4,180.64s5.49,2.82,7.15-1.73-4.8-5.79-4.8-5.79Z"/><text class="cls-37" transform="translate(36.91 48.98)">Un<tspan class="cls-38" x="15.34" y="0"> </tspan><tspan x="22.58" y="0">elemento</tspan><tspan class="cls-39" x="71.94" y="0"> </tspan><tspan x="79.18" y="0">final</tspan><tspan class="cls-38" x="101.19" y="0"> </tspan><tspan x="108.43" y="0">que</tspan><tspan class="cls-38" x="128.45" y="0"> </tspan><tspan x="135.69" y="0">debe</tspan><tspan class="cls-38" x="162.38" y="0"> </tspan><tspan x="169.62" y="0">destacarse</tspan><tspan class="cls-38" x="228.32" y="0"> </tspan><tspan x="235.55" y="0">es</tspan><tspan class="cls-39" x="248.23" y="0"> </tspan><tspan x="255.46" y="0">que</tspan><tspan class="cls-38" x="275.49" y="0"> </tspan><tspan x="282.72" y="0">mientras</tspan><tspan class="cls-38" x="328.74" y="0"> </tspan><tspan x="335.97" y="0">en</tspan><tspan class="cls-39" x="349.32" y="0"> </tspan><tspan x="356.56" y="0">el</tspan><tspan class="cls-38" x="365.9" y="0"> </tspan><tspan x="373.13" y="0">caso</tspan><tspan class="cls-38" x="398.48" y="0"> </tspan><tspan x="405.72" y="0">de </tspan><tspan class="cls-40" x="0" y="14.4">Y</tspan><tspan x="7.34" y="14.4">ugoslavia</tspan><tspan class="cls-41" x="58.04" y="14.4"> </tspan><tspan x="64.13" y="14.4">existió</tspan><tspan class="cls-42" x="98.14" y="14.4"> </tspan><tspan x="104.22" y="14.4">dificultades</tspan><tspan class="cls-42" x="164.26" y="14.4"> </tspan><tspan x="170.34" y="14.4">para</tspan><tspan class="cls-41" x="194.36" y="14.4"> </tspan><tspan x="200.44" y="14.4">el</tspan><tspan class="cls-41" x="209.78" y="14.4"> </tspan><tspan x="215.87" y="14.4">juzgamiento</tspan><tspan class="cls-42" x="280.57" y="14.4"> </tspan><tspan x="286.66" y="14.4">por</tspan><tspan class="cls-42" x="304" y="14.4"> </tspan><tspan x="310.08" y="14.4">la</tspan><tspan class="cls-41" x="319.42" y="14.4"> </tspan><tspan x="325.51" y="14.4">renuencia</tspan><tspan class="cls-41" x="378.21" y="14.4"> </tspan><tspan x="384.29" y="14.4">de</tspan><tspan class="cls-42" x="397.64" y="14.4"> </tspan><tspan x="403.73" y="14.4">los </tspan><tspan x="0" y="28.8">estados</tspan><tspan class="cls-43" x="42.03" y="28.8"> </tspan><tspan x="45.01" y="28.8">en</tspan><tspan class="cls-44" x="58.36" y="28.8"> </tspan><tspan x="61.34" y="28.8">cooperar</tspan><tspan class="cls-43" x="108.71" y="28.8"> </tspan><tspan x="111.69" y="28.8">con</tspan><tspan class="cls-44" x="131.04" y="28.8"> </tspan><tspan x="134.02" y="28.8">el</tspan><tspan class="cls-43" x="143.36" y="28.8"> </tspan><tspan x="146.35" y="28.8">tribunal</tspan><tspan class="cls-43" x="185.7" y="28.8"> </tspan><tspan x="188.69" y="28.8">para</tspan><tspan class="cls-44" x="212.71" y="28.8"> </tspan><tspan x="215.69" y="28.8">detener</tspan><tspan class="cls-43" x="256.39" y="28.8"> </tspan><tspan x="259.37" y="28.8">a</tspan><tspan class="cls-43" x="266.05" y="28.8"> </tspan><tspan x="269.03" y="28.8">los</tspan><tspan class="cls-44" x="284.37" y="28.8"> </tspan><tspan x="287.35" y="28.8">acusados,</tspan><tspan class="cls-43" x="342.06" y="28.8"> </tspan><tspan x="345.04" y="28.8">en</tspan><tspan class="cls-44" x="358.39" y="28.8"> </tspan><tspan x="361.37" y="28.8">Ruanda</tspan><tspan class="cls-43" x="403.41" y="28.8"> </tspan><tspan x="406.39" y="28.8">se </tspan><tspan x="0" y="43.2">tenían</tspan><tspan class="cls-45" x="33.36" y="43.2"> </tspan><tspan x="36.98" y="43.2">75.000</tspan><tspan class="cls-45" x="73.68" y="43.2"> </tspan><tspan x="77.29" y="43.2">personas</tspan><tspan class="cls-45" x="126.66" y="43.2"> </tspan><tspan x="130.27" y="43.2">detenidas,</tspan><tspan class="cls-45" x="185.65" y="43.2"> </tspan><tspan x="189.26" y="43.2">lo</tspan><tspan class="cls-45" x="198.6" y="43.2"> </tspan><tspan x="202.21" y="43.2">cual</tspan><tspan class="cls-46" x="224.23" y="43.2"> </tspan><tspan x="227.84" y="43.2">generó</tspan><tspan class="cls-45" x="265.21" y="43.2"> </tspan><tspan x="268.82" y="43.2">mayores</tspan><tspan class="cls-45" x="314.83" y="43.2"> </tspan><tspan x="318.45" y="43.2">dificultades</tspan><tspan class="cls-45" x="378.48" y="43.2"> </tspan><tspan x="382.09" y="43.2">para</tspan><tspan class="cls-45" x="406.11" y="43.2"> </tspan><tspan x="409.73" y="43.2">el </tspan><tspan x="0" y="57.6">proceso</tspan><tspan class="cls-47" x="42.69" y="57.6"> </tspan><tspan x="45.83" y="57.6">de</tspan><tspan class="cls-47" x="59.18" y="57.6"> </tspan><tspan x="62.32" y="57.6">juzgamiento,</tspan><tspan class="cls-47" x="130.36" y="57.6"> </tspan><tspan x="133.5" y="57.6">máxime</tspan><tspan class="cls-48" x="175.5" y="57.6"> </tspan><tspan x="178.64" y="57.6">cuando</tspan><tspan class="cls-47" x="218.01" y="57.6"> </tspan><tspan x="221.15" y="57.6">el</tspan><tspan class="cls-47" x="230.49" y="57.6"> </tspan><tspan x="233.63" y="57.6">tribunal</tspan><tspan class="cls-47" x="272.99" y="57.6"> </tspan><tspan x="276.13" y="57.6">no</tspan><tspan class="cls-47" x="289.47" y="57.6"> </tspan><tspan x="292.61" y="57.6">tenía</tspan><tspan class="cls-47" x="319.3" y="57.6"> </tspan><tspan x="322.44" y="57.6">la</tspan><tspan class="cls-48" x="331.78" y="57.6"> </tspan><tspan x="334.92" y="57.6">sede</tspan><tspan class="cls-47" x="360.94" y="57.6"> </tspan><tspan x="364.08" y="57.6">en</tspan><tspan class="cls-47" x="377.43" y="57.6"> </tspan><tspan x="380.57" y="57.6">el</tspan><tspan class="cls-47" x="389.91" y="57.6"> </tspan><tspan x="393.05" y="57.6">país, </tspan><tspan x="0" y="72">así</tspan><tspan class="cls-49" x="16.01" y="72"> </tspan><tspan x="23.7" y="72">como</tspan><tspan class="cls-49" x="53.04" y="72"> </tspan><tspan x="60.73" y="72">los</tspan><tspan class="cls-49" x="76.07" y="72"> </tspan><tspan x="83.76" y="72">límites</tspan><tspan class="cls-50" x="118.43" y="72"> </tspan><tspan x="126.12" y="72">presupuestales</tspan><tspan class="cls-49" x="207.5" y="72"> </tspan><tspan x="215.19" y="72">que</tspan><tspan class="cls-49" x="235.21" y="72"> </tspan><tspan x="242.9" y="72">generaban</tspan><tspan class="cls-49" x="300.29" y="72"> </tspan><tspan x="307.98" y="72">grandes</tspan><tspan class="cls-49" x="351.34" y="72"> </tspan><tspan x="359.03" y="72">dificultades </tspan><tspan x="0" y="86.4">políticas</tspan><tspan class="cls-51" x="44.02" y="86.4"> </tspan><tspan x="49.44" y="86.4">y</tspan><tspan class="cls-51" x="55.44" y="86.4"> </tspan><tspan x="60.86" y="86.4">sociales.</tspan><tspan class="cls-51" x="107.55" y="86.4"> </tspan><tspan x="112.97" y="86.4">Finalmente,</tspan><tspan class="cls-51" x="175.66" y="86.4"> </tspan><tspan x="181.08" y="86.4">se</tspan><tspan class="cls-51" x="193.75" y="86.4"> </tspan><tspan x="199.17" y="86.4">estableció</tspan><tspan class="cls-52" x="253.21" y="86.4"> </tspan><tspan x="258.63" y="86.4">un</tspan><tspan class="cls-51" x="271.98" y="86.4"> </tspan><tspan x="277.39" y="86.4">juzgamiento</tspan><tspan class="cls-51" x="342.1" y="86.4"> </tspan><tspan x="347.52" y="86.4">por</tspan><tspan class="cls-51" x="364.86" y="86.4"> </tspan><tspan x="370.28" y="86.4">parte</tspan><tspan class="cls-51" x="397.63" y="86.4"> </tspan><tspan x="403.05" y="86.4">del </tspan><tspan x="0" y="100.8">tribunal</tspan><tspan class="cls-53" x="39.36" y="100.8"> </tspan><tspan x="42.95" y="100.8">frente</tspan><tspan class="cls-53" x="73.64" y="100.8"> </tspan><tspan x="77.23" y="100.8">a</tspan><tspan class="cls-53" x="83.91" y="100.8"> </tspan><tspan x="87.5" y="100.8">los</tspan><tspan class="cls-53" x="102.84" y="100.8"> </tspan><tspan x="106.44" y="100.8">máximos</tspan><tspan class="cls-53" x="154.44" y="100.8"> </tspan><tspan x="158.04" y="100.8">responsables,</tspan><tspan class="cls-53" x="232.75" y="100.8"> </tspan><tspan x="236.34" y="100.8">mientras</tspan><tspan class="cls-53" x="282.36" y="100.8"> </tspan><tspan x="285.95" y="100.8">que</tspan><tspan class="cls-53" x="305.97" y="100.8"> </tspan><tspan x="309.57" y="100.8">la</tspan><tspan class="cls-53" x="318.91" y="100.8"> </tspan><tspan x="322.5" y="100.8">justicia</tspan><tspan class="cls-53" x="359.18" y="100.8"> </tspan><tspan x="362.78" y="100.8">ordinaria</tspan><tspan class="cls-53" x="409.47" y="100.8"> </tspan><tspan x="413.07" y="100.8">y </tspan><tspan x="0" y="115.2">una justicia comunitaria llamada Gacaca juzgó a la mayoría de hutus.</tspan></text></g></g></svg>