<svg xmlns="http://www.w3.org/2000/svg" viewBox="0 0 874.77 210.9"><defs><style>.cls-1{isolation:isolate;}.cls-2{fill:#d3d3d3;opacity:0.45;}.cls-3{fill:#9fa4a4;}.cls-4{fill:#8a9090;}.cls-5{fill:#c6c9c9;}.cls-6{fill:#dbdddd;}.cls-7{fill:#f4a602;}.cls-8{fill:#c47143;}.cls-9{fill:#a5a5a5;opacity:0.34;}.cls-54,.cls-55,.cls-9{mix-blend-mode:multiply;}.cls-10{fill:#a4a4a4;}.cls-11{fill:#f4bc02;}.cls-12{fill:#3c3c3c;}.cls-13{font-size:12px;font-family:ArialMT, Arial;}.cls-14{letter-spacing:0.04em;}.cls-15{letter-spacing:0.04em;}.cls-16{letter-spacing:0.16em;}.cls-17{letter-spacing:0.35em;}.cls-18{letter-spacing:0.35em;}.cls-19{letter-spacing:0.06em;}.cls-20{letter-spacing:0.06em;}.cls-21{letter-spacing:0.02em;}.cls-22{letter-spacing:0.02em;}.cls-23{letter-spacing:0.21em;}.cls-24{letter-spacing:0.21em;}.cls-25,.cls-54,.cls-55{fill:#9d6b3b;}.cls-26{fill:#51351f;}.cls-27{fill:#382214;}.cls-28,.cls-29{fill:#294c9e;}.cls-28{opacity:0.15;}.cls-28,.cls-29,.cls-36,.cls-43,.cls-44,.cls-48{mix-blend-mode:color-burn;}.cls-29{opacity:0.25;}.cls-30{fill:#c4a286;}.cls-31{fill:#272532;}.cls-32{fill:#de0045;}.cls-33{fill:#f4a68d;}.cls-34{fill:#f8cebd;}.cls-35{fill:#3e9576;}.cls-36{fill:#353759;}.cls-36,.cls-43,.cls-44,.cls-48{opacity:0.18;}.cls-37{fill:#294f69;}.cls-38{fill:#353a56;}.cls-39{fill:#2c2e41;}.cls-40{fill:#dfedfa;}.cls-41{fill:#3d3e57;}.cls-42{fill:#c1dddb;}.cls-43{fill:#3c3e59;}.cls-44{fill:#9091b8;}.cls-45{fill:#381c27;}.cls-46{fill:#ba4e00;}.cls-47{fill:#822b00;}.cls-49{fill:#9193bd;}.cls-50{fill:#603e26;}.cls-51{fill:#4c321c;}.cls-52{fill:#70492a;}.cls-53{fill:#ad7f59;}.cls-55{opacity:0.35;}.cls-56{fill:#fff;}.cls-57{fill:#f6bbae;}.cls-58{fill:#f4a700;}</style></defs><title>ruanda</title><g class="cls-1"><g id="Capa_1" data-name="Capa 1"><rect class="cls-2" x="-8.24" y="-3.32" width="886.63" height="220.62"/><path class="cls-3" d="M137.17,48.24H78.47c-2.6,1.47-9.61,9.69-11.74,12.56-16.51,22.28,2.75,23.48,2.75,23.48l62.23-12.47C117.86,61.47,133.84,50.35,137.17,48.24Z"/><path class="cls-4" d="M125,67.88H88c-.27,3.66-1.37,10.7-5.75,16l9.22-.31,29.91-1S132.76,72.47,125,67.88Z"/><path class="cls-5" d="M69.66,67.88a8.75,8.75,0,0,1,5.85,8.21c0,3.92-1.46,6.47-6.07,8.21l12.81-.43c4.38-5.29,5.48-12.33,5.75-16Z"/><path class="cls-3" d="M78.37,162.49h58.71c-3.51-2.25-19.1-13.26-5.37-23.52L69.48,126.5S50.22,127.7,66.73,150C68.83,152.81,75.68,160.85,78.37,162.49Z"/><path class="cls-4" d="M125,142.9H88c-.27-3.66-1.37-10.7-5.75-16l9.22.31,29.91,1S132.76,138.31,125,142.9Z"/><path class="cls-5" d="M69.66,142.9a8.74,8.74,0,0,0,5.85-8.21c0-3.91-1.46-6.46-6.07-8.21l12.81.43c4.38,5.29,5.48,12.33,5.75,16Z"/><path class="cls-6" d="M162.06,48.24H78.8c9.08,7,14.69,29.17,14.69,57.21,0,26.24-5.61,50.22-14.69,57.21h83.26c9.07-7,14.69-31,14.69-57.21C176.75,77.41,171.13,55.23,162.06,48.24Z"/><path class="cls-7" d="M159.62,139a7.26,7.26,0,1,1-7.26-7.26A7.26,7.26,0,0,1,159.62,139Z"/><path class="cls-8" d="M157.49,139a5.13,5.13,0,1,1-5.13-5.13A5.13,5.13,0,0,1,157.49,139Z"/><path class="cls-9" d="M93.49,105.45c0,26.24-5.61,50.22-14.69,57.21h83.26C140,120.72,93.49,105.45,93.49,105.45Z"/><path class="cls-3" d="M105.46,78.05c.56,2.32.81,3.49,1.26,5.84h54.67c-.45-2.35-.7-3.52-1.26-5.84Z"/><path class="cls-3" d="M108.55,97.29h54.67c-.2-2.37-.32-3.55-.63-5.91H107.92C108.23,93.74,108.36,94.92,108.55,97.29Z"/><path class="cls-3" d="M109,110.78h54.67c0-2.37,0-3.56,0-5.94H109C109,107.22,109,108.41,109,110.78Z"/><path class="cls-3" d="M107.92,124.25h54.67c.31-2.36.43-3.54.63-5.92H108.55C108.36,120.71,108.23,121.89,107.92,124.25Z"/><path class="cls-3" d="M105.46,137.58h16.6c.56-2.33.81-3.5,1.26-5.84h-16.6C106.27,134.08,106,135.25,105.46,137.58Z"/><path class="cls-10" d="M188.3,159.24c0-1.78.52-3.24,1.17-3.24s1.18,1.45,1.18,3.24-.52,3.24-1.17,3.25S188.3,161,188.3,159.24Z"/><polygon class="cls-11" points="188.25 159.24 190.77 159.24 194.08 152.17 184.64 152.18 188.25 159.24"/><path class="cls-11" d="M187,77.42h4.77A1.4,1.4,0,0,1,193,78.93v4.26H185.7V78.94A1.4,1.4,0,0,1,187,77.42Z"/><polygon class="cls-12" points="194.08 152.17 194.08 148.09 194.06 110.94 184.62 110.95 184.64 148.1 184.64 152.18 194.08 152.17"/><rect class="cls-12" x="184.61" y="80.58" width="9.44" height="37.16" transform="translate(-0.1 0.19) rotate(-0.06)"/><rect class="cls-11" x="184.62" y="113.66" width="9.44" height="4.08" transform="translate(-0.12 0.2) rotate(-0.06)"/><polygon class="cls-11" points="190.89 84.66 187.62 84.66 187.63 108.87 190.91 106.81 190.89 84.66"/><rect class="cls-11" x="184.6" y="82.75" width="9.44" height="2.14"/><text class="cls-13" transform="translate(236.33 56.2)">Mediante la resolución 955 de 1994 el consejo de seguridad crea el tribunal <tspan x="0" y="14.4">penal</tspan><tspan class="cls-14" x="29.36" y="14.4"> </tspan><tspan x="33.23" y="14.4">internacional</tspan><tspan class="cls-14" x="101.27" y="14.4"> </tspan><tspan x="105.14" y="14.4">para</tspan><tspan class="cls-14" x="129.15" y="14.4"> </tspan><tspan x="133.02" y="14.4">Ruanda,</tspan><tspan class="cls-14" x="178.39" y="14.4"> </tspan><tspan x="182.25" y="14.4">con</tspan><tspan class="cls-14" x="201.6" y="14.4"> </tspan><tspan x="205.47" y="14.4">un</tspan><tspan class="cls-15" x="218.81" y="14.4"> </tspan><tspan x="222.68" y="14.4">mandato</tspan><tspan class="cls-14" x="269.38" y="14.4"> </tspan><tspan x="273.24" y="14.4">temporal</tspan><tspan class="cls-14" x="319.93" y="14.4"> </tspan><tspan x="323.8" y="14.4">del</tspan><tspan class="cls-14" x="339.81" y="14.4"> </tspan><tspan x="343.67" y="14.4">1</tspan><tspan class="cls-14" x="350.35" y="14.4"> </tspan><tspan x="354.21" y="14.4">de</tspan><tspan class="cls-14" x="367.56" y="14.4"> </tspan><tspan x="371.43" y="14.4">enero </tspan><tspan x="0" y="28.8">al</tspan><tspan class="cls-16" x="9.34" y="28.8"> </tspan><tspan x="14.56" y="28.8">31</tspan><tspan class="cls-16" x="27.91" y="28.8"> </tspan><tspan x="33.13" y="28.8">de</tspan><tspan class="cls-16" x="46.48" y="28.8"> </tspan><tspan x="51.7" y="28.8">diciembre</tspan><tspan class="cls-16" x="103.72" y="28.8"> </tspan><tspan x="108.94" y="28.8">de</tspan><tspan class="cls-16" x="122.29" y="28.8"> </tspan><tspan x="127.51" y="28.8">1994,</tspan><tspan class="cls-16" x="157.54" y="28.8"> </tspan><tspan x="162.76" y="28.8">destacando</tspan><tspan class="cls-16" x="224.81" y="28.8"> </tspan><tspan x="230.03" y="28.8">que,</tspan><tspan class="cls-16" x="253.39" y="28.8"> </tspan><tspan x="258.61" y="28.8">al</tspan><tspan class="cls-16" x="267.95" y="28.8"> </tspan><tspan x="273.17" y="28.8">ser</tspan><tspan class="cls-16" x="289.84" y="28.8"> </tspan><tspan x="295.06" y="28.8">una</tspan><tspan class="cls-16" x="315.09" y="28.8"> </tspan><tspan x="320.31" y="28.8">guerra</tspan><tspan class="cls-16" x="355" y="28.8"> </tspan><tspan x="360.22" y="28.8">civil,</tspan><tspan class="cls-16" x="383.55" y="28.8"> </tspan><tspan x="388.77" y="28.8">en </tspan><tspan x="0" y="43.2">relación</tspan><tspan class="cls-17" x="42.02" y="43.2"> </tspan><tspan x="49.6" y="43.2">con</tspan><tspan class="cls-18" x="68.95" y="43.2"> </tspan><tspan x="76.52" y="43.2">las</tspan><tspan class="cls-17" x="91.86" y="43.2"> </tspan><tspan x="99.44" y="43.2">infracciones</tspan><tspan class="cls-17" x="163.47" y="43.2"> </tspan><tspan x="171.04" y="43.2">al</tspan><tspan class="cls-18" x="180.38" y="43.2"> </tspan><tspan x="187.96" y="43.2">Derecho</tspan><tspan class="cls-17" x="233.31" y="43.2"> </tspan><tspan x="240.89" y="43.2">Internacional</tspan><tspan class="cls-18" x="309.6" y="43.2"> </tspan><tspan x="317.18" y="43.2">Humanitario,</tspan><tspan class="cls-17" x="385.2" y="43.2"> </tspan><tspan x="392.78" y="43.2">el </tspan><tspan x="0" y="57.6">tribunal</tspan><tspan class="cls-19" x="39.36" y="57.6"> </tspan><tspan x="43.41" y="57.6">sólo</tspan><tspan class="cls-20" x="65.42" y="57.6"> </tspan><tspan x="69.47" y="57.6">tendrá</tspan><tspan class="cls-19" x="103.5" y="57.6"> </tspan><tspan x="107.55" y="57.6">competencia</tspan><tspan class="cls-19" x="175.59" y="57.6"> </tspan><tspan x="179.64" y="57.6">frente</tspan><tspan class="cls-19" x="210.32" y="57.6"> </tspan><tspan x="214.37" y="57.6">a</tspan><tspan class="cls-20" x="221.05" y="57.6"> </tspan><tspan x="225.1" y="57.6">las</tspan><tspan class="cls-19" x="240.44" y="57.6"> </tspan><tspan x="244.49" y="57.6">que</tspan><tspan class="cls-19" x="264.51" y="57.6"> </tspan><tspan x="268.56" y="57.6">se</tspan><tspan class="cls-19" x="281.23" y="57.6"> </tspan><tspan x="285.29" y="57.6">cometan</tspan><tspan class="cls-20" x="331.31" y="57.6"> </tspan><tspan x="335.36" y="57.6">en</tspan><tspan class="cls-19" x="348.71" y="57.6"> </tspan><tspan x="352.76" y="57.6">contravía </tspan><tspan x="0" y="72">del</tspan><tspan class="cls-21" x="16.01" y="72"> </tspan><tspan x="19.54" y="72">artículo</tspan><tspan class="cls-22" x="58.89" y="72"> </tspan><tspan x="62.42" y="72">3</tspan><tspan class="cls-21" x="69.1" y="72"> </tspan><tspan x="72.63" y="72">común</tspan><tspan class="cls-22" x="108.65" y="72"> </tspan><tspan x="112.18" y="72">de</tspan><tspan class="cls-21" x="125.52" y="72"> </tspan><tspan x="129.05" y="72">los</tspan><tspan class="cls-21" x="144.39" y="72"> </tspan><tspan x="147.92" y="72">convenios</tspan><tspan class="cls-22" x="201.96" y="72"> </tspan><tspan x="205.49" y="72">de</tspan><tspan class="cls-21" x="218.83" y="72"> </tspan><tspan x="222.36" y="72">ginebra</tspan><tspan class="cls-21" x="262.4" y="72"> </tspan><tspan x="265.92" y="72">y</tspan><tspan class="cls-22" x="271.92" y="72"> </tspan><tspan x="275.46" y="72">el</tspan><tspan class="cls-21" x="284.79" y="72"> </tspan><tspan x="288.32" y="72">protocolo</tspan><tspan class="cls-22" x="337.69" y="72"> </tspan><tspan x="341.22" y="72">II</tspan><tspan class="cls-21" x="347.89" y="72"> </tspan><tspan x="351.42" y="72">adicional, </tspan><tspan x="0" y="86.4">que</tspan><tspan class="cls-23" x="20.02" y="86.4"> </tspan><tspan x="25.86" y="86.4">son</tspan><tspan class="cls-23" x="45.21" y="86.4"> </tspan><tspan x="51.05" y="86.4">el</tspan><tspan class="cls-24" x="60.39" y="86.4"> </tspan><tspan x="66.24" y="86.4">marco</tspan><tspan class="cls-23" x="99.58" y="86.4"> </tspan><tspan x="105.42" y="86.4">normativo</tspan><tspan class="cls-23" x="158.11" y="86.4"> </tspan><tspan x="163.95" y="86.4">del</tspan><tspan class="cls-23" x="179.96" y="86.4"> </tspan><tspan x="185.81" y="86.4">Derecho</tspan><tspan class="cls-24" x="231.16" y="86.4"> </tspan><tspan x="237" y="86.4">Internacional</tspan><tspan class="cls-23" x="305.72" y="86.4"> </tspan><tspan x="311.56" y="86.4">Humanitario</tspan><tspan class="cls-23" x="376.25" y="86.4"> </tspan><tspan x="382.1" y="86.4">que </tspan><tspan x="0" y="100.8">aplica en los conflictos armados no internacionales. </tspan></text><polygon class="cls-25" points="731.27 96.95 731.27 122.07 726.44 119.26 726.44 94.16 731.27 96.95"/><polygon class="cls-26" points="731.27 96.95 731.27 122.07 726.44 119.26 726.44 94.16 731.27 96.95"/><polygon class="cls-25" points="731.27 96.95 731.27 122.06 754.91 108.58 754.91 83.47 750.08 86.26 750.08 105.79 736.11 113.69 736.11 110.9 736.11 94.16 731.27 96.95"/><polygon class="cls-27" points="736.11 110.9 736.11 113.69 750.08 105.79 747.66 104.39 736.11 110.9"/><polygon class="cls-27" points="736.11 94.16 736.11 110.9 747.66 104.39 747.66 87.65 736.11 94.16"/><polygon class="cls-27" points="747.66 87.65 747.66 104.39 750.08 105.79 750.08 86.26 747.66 87.65 747.66 87.65"/><polygon class="cls-28" points="750.08 86.26 754.91 83.47 754.91 85.56 750.08 88.35 750.08 86.26"/><polygon class="cls-28" points="731.27 96.95 736.1 94.16 736.1 96.25 731.27 99.04 731.27 96.95"/><polygon class="cls-28" points="736.11 94.16 750.08 86.26 747.66 88.7 736.11 95.2 736.11 94.16"/><polygon class="cls-25" points="794.52 133.67 794.52 158.79 789.69 155.99 789.69 130.88 794.52 133.67"/><polygon class="cls-26" points="794.52 133.67 794.52 158.79 789.69 155.99 789.69 130.88 794.52 133.67"/><polygon class="cls-25" points="794.52 133.67 794.52 158.79 818.16 145.3 818.16 120.19 813.33 122.98 813.33 142.51 799.35 150.41 799.35 147.63 799.35 130.88 794.52 133.67"/><polygon class="cls-25" points="799.35 147.63 799.35 150.41 813.33 142.51 810.91 141.12 799.35 147.63"/><polygon class="cls-27" points="799.35 130.88 799.35 147.63 810.91 141.12 810.91 124.38 799.35 130.88"/><polygon class="cls-27" points="810.91 124.38 810.91 141.12 813.33 142.51 813.33 122.98 810.91 124.38 810.91 124.38"/><polygon class="cls-29" points="810.91 124.38 810.91 141.12 813.33 142.51 813.33 122.98 810.91 124.38 810.91 124.38"/><polygon class="cls-28" points="813.33 122.98 818.16 120.19 818.16 122.28 813.33 125.07 813.33 122.98"/><polygon class="cls-28" points="794.52 133.67 799.35 130.88 799.35 132.97 794.52 135.76 794.52 133.67"/><polygon class="cls-28" points="799.35 130.88 813.33 122.98 810.91 125.42 799.35 131.93 799.35 130.88"/><polygon class="cls-26" points="740.42 49.95 740.42 52.74 742.84 54.1 742.84 54.1 747.67 56.89 750.09 58.28 815.72 96.41 820.55 99.2 820.55 99.14 820.55 96.41 740.42 49.95"/><polygon class="cls-26" points="742.84 54.1 742.84 79.21 820.55 124.31 820.55 99.2 815.72 96.41 815.72 115.94 747.67 76.42 747.67 56.89 742.84 54.1"/><polygon class="cls-25" points="747.67 56.89 747.67 76.42 750.09 75.03 750.09 58.28 747.67 56.89"/><polygon class="cls-25" points="747.67 76.42 815.72 115.94 815.72 113.15 750.09 75.03 747.67 76.42"/><polygon class="cls-27" points="750.09 58.28 750.09 75.03 815.72 113.15 815.72 96.41 750.09 58.28"/><polygon class="cls-25" points="822.96 97.79 822.96 122.93 820.55 124.31 820.55 99.2 822.96 97.79"/><polygon class="cls-25" points="825.42 93.62 825.42 96.43 822.96 97.79 820.55 99.2 820.55 96.41 825.42 93.62"/><polygon class="cls-25" points="825.42 93.62 820.55 96.41 740.43 49.94 745.1 47.27 752.49 51.29 754.91 52.69 825.42 93.62"/><polygon class="cls-28" points="820.55 99.2 822.96 97.79 822.96 99.88 820.55 101.29 820.55 99.2"/><polygon class="cls-25" points="721.61 88.57 721.61 91.36 726.44 94.15 726.44 94.16 731.27 96.94 733.69 98.34 794.49 133.68 799.32 136.47 799.32 136.41 799.32 133.68 721.61 88.57"/><polygon class="cls-26" points="721.61 88.57 721.61 91.36 726.44 94.15 726.44 94.16 731.27 96.94 733.69 98.34 794.49 133.68 799.32 136.47 799.32 136.41 799.32 133.68 721.61 88.57"/><polygon class="cls-25" points="799.32 136.41 799.32 136.47 804.15 133.68 808.47 131.29 808.47 131.29 810.88 129.89 815.72 127.1 815.72 127.1 820.55 124.31 820.55 121.52 799.32 133.68 799.32 136.41"/><polygon class="cls-27" points="742.84 76.42 721.61 88.57 799.32 133.68 820.55 121.52 742.84 76.42"/><path class="cls-30" d="M799.32,133.68c1.75-1.05,3.51-2.08,5.27-3.11l5.29-3.06,5.32-3q2.67-1.5,5.35-3c-1.75,1-3.51,2.08-5.27,3.11L810,127.69l-5.32,3Q802,132.22,799.32,133.68Z"/><path class="cls-30" d="M820.55,96.41c.79-.51,1.6-1,2.41-1.44s1.62-.92,2.46-1.35c-.79.5-1.6,1-2.41,1.44S821.38,96,820.55,96.41Z"/><path class="cls-27" d="M747.67,76.42a8.12,8.12,0,0,1,1.16-.78,8,8,0,0,1,1.25-.61,8.94,8.94,0,0,1-1.15.78A8.6,8.6,0,0,1,747.67,76.42Z"/><polygon class="cls-28" points="691.93 120.06 727.81 99.33 727.77 99.25 729.17 98.45 738.13 103.62 797.81 156.47 807.62 162.18 787.33 173.78 784.53 173.78 691.93 120.06"/><path class="cls-31" d="M740.6,61.6a.36.36,0,0,1,.27,0h0c0,.29,0,.58,0,.86h0l-.83-.48h0a1.31,1.31,0,0,1,.23-.24A.76.76,0,0,1,740.6,61.6Z"/><path class="cls-32" d="M758.26,76.53h0Z"/><path class="cls-33" d="M721.7,122.84a3.74,3.74,0,0,0,3.31-1.07c1.3-1.82,1.91-5.12,2.27-5.88a11.63,11.63,0,0,0,.7-2.14,28.44,28.44,0,0,1,.86-7.51,46.53,46.53,0,0,0,1.3-10.84c0-.89,0-1.67-.07-2.3a3.3,3.3,0,0,1,1-2.6c2-1.91,6-5.67,6.07-5.79a33.12,33.12,0,0,1-3.83-2.19c-1.42,2.33-11.77,3.64-10.61,8.39a50.85,50.85,0,0,1,1.32,6c.14,1.73.59,16-.12,18.35-.15.48-.94,1.86-1.58,3.79a7.15,7.15,0,0,1-2,3.08C720,122.48,721.48,122.79,721.7,122.84Z"/><polygon class="cls-31" points="734.7 128.32 733 127.72 732.88 125.13 734.56 124.94 734.7 128.32"/><path class="cls-31" d="M736.84,122.17a5.94,5.94,0,0,0-1.17,2.45,12,12,0,0,0,0,3l-1,.66-.14-3.38S736.46,122.17,736.84,122.17Z"/><path class="cls-31" d="M727.29,127.27s-1.56,1.46-1.14,2.82c0,0,0,.46,1.14.53s5.92-1.08,6.3-1.65.64-3.2,1.43-4.38,1.82-2.42,1.82-2.42a3.08,3.08,0,0,0-.53-3.55l-6.53,8.06Z"/><path class="cls-34" d="M736.68,118.62a28.23,28.23,0,0,1,.87-7.51,46.93,46.93,0,0,0,1.29-10.83,24.22,24.22,0,0,0-1.07-5.62S744.12,89,744.26,89s-6.74-5-6.74-5-6.14,4.57-6.77,6.65.4,5.41.59,6.15c1.44,5.64,2.9,17.08.91,22.83-.3.85-1.76,2.92-2.19,3.92a38.22,38.22,0,0,1-2.4,3.7,6.66,6.66,0,0,0,4.66.52c2.3-.74,3.2-6,3.66-7A10.8,10.8,0,0,0,736.68,118.62Z"/><polygon class="cls-31" points="727.23 123.47 725.26 122.66 726.49 119.74 727.09 120.09 727.23 123.47"/><path class="cls-31" d="M729.16,117.14a5.76,5.76,0,0,1-1,2.63c-.69,1.17,0,3,0,3l-1,.66-.14-3.38S728.61,117.38,729.16,117.14Z"/><path class="cls-31" d="M728,113.74a33.12,33.12,0,0,1-3,7.2,3.29,3.29,0,0,1-4.62,1.17s-3,2.26-3,2.59,1,1.29,5.56.5c0,0,1.85-.33,2.09-.7s1.06-3.47,2.68-4.9a3.83,3.83,0,0,0,1.54-3.74A3.69,3.69,0,0,0,728,113.74Z"/><path class="cls-35" d="M731.12,78.07l.64.77h0S741.4,70.58,742,70.5a10.45,10.45,0,0,0,.78-3.14c.79-4.4,1.77-11.85,1.77-11.85l-.29-4.16s-1.57-.71-3.16,1.3-1.26,12.94-1.46,13.47c-.33.9-11,8.68-11,8.68Z"/><path class="cls-36" d="M731.12,78.07l.64.77h0S741.4,70.58,742,70.5a10.45,10.45,0,0,0,.78-3.14c.79-4.4,1.77-11.85,1.77-11.85l-.29-4.16s-1.57-.71-3.16,1.3-1.26,12.94-1.46,13.47c-.33.9-11,8.68-11,8.68Z"/><path class="cls-37" d="M728.23,75.75a2.47,2.47,0,0,0,.12.73l0,.14a4.25,4.25,0,0,0,1.76,2.16,2.2,2.2,0,0,0,.39.18,1.43,1.43,0,0,0,.82.09l.11,0a.93.93,0,0,0,.4-.31h0a1.25,1.25,0,0,0,.2-.74,2.13,2.13,0,0,0-.07-.55s0-.06,0-.09-.07-.22-.11-.33a4.38,4.38,0,0,0-1.14-1.64l-.1-.08-.13-.11-.35-.23a1.44,1.44,0,0,0-1.51-.14A1.11,1.11,0,0,0,728.23,75.75Z"/><path class="cls-31" d="M756.56,84.57c-1,2.77-2.48,6.26-8.52,8A22.49,22.49,0,0,0,745,93.6l-.67.31a8.46,8.46,0,0,0-2.73,1.91c-.11.1-.21.23-.31.33a3.63,3.63,0,0,0-.9,2.54s0,0,0,0a4.44,4.44,0,0,1-2.47,3.11,11.33,11.33,0,0,1-3.78,1.28,13.23,13.23,0,0,1-8.3-1.28,4.54,4.54,0,0,1-2.42-2.89h0a.21.21,0,0,0,0-.06.89.89,0,0,0,0-.15c-.19-1.29-1.23-8.38-.58-10.16s8.26-7,14.65-8.8a3.49,3.49,0,0,0,2.15-1.7q.15-.27.3-.6a13.8,13.8,0,0,0,.75-1.84,5.3,5.3,0,0,1,1.57-1.29,12.41,12.41,0,0,1,11.26,0,5,5,0,0,1,1.8,1.6c.13.34.29.67.44,1l.27.59a.05.05,0,0,0,0,0C756.92,79.6,757.71,81.38,756.56,84.57Z"/><path class="cls-35" d="M757.06,60.51c-1.29,3-2.94,7.36-3,9.53a14.53,14.53,0,0,0,.23,2.86,13.53,13.53,0,0,0,.89,3,3.1,3.1,0,0,1,.44,1,2.71,2.71,0,0,1-.39,2.21,5.14,5.14,0,0,1-1.85,1.7,11,11,0,0,1-5,1.31,11.66,11.66,0,0,1-6.24-1.31,5.66,5.66,0,0,1-1.36-1.07,3,3,0,0,1-.3-.35,3.59,3.59,0,0,1-.28-.44,3.68,3.68,0,0,1-.21-.45,2.7,2.7,0,0,1-.12-.47,1.68,1.68,0,0,1,0-.45v-.14a3.1,3.1,0,0,1,.75-1.84c.08-.24.15-.5.22-.75.07-.44.13-.92.2-1.42a5.35,5.35,0,0,0,.07-.56,20.47,20.47,0,0,0-.54-6c-.1-.42-.19-.82-.29-1.21a5.12,5.12,0,0,0-.15-.56c-.26-1-.51-1.82-.64-2.45a1,1,0,0,1-.06-.21.38.38,0,0,1,0-.1,2.36,2.36,0,0,1-.07-.44,3.49,3.49,0,0,1,.23-1.8,5.66,5.66,0,0,1,.35-.76l.24-.44c.09-.14.18-.3.27-.46s.19-.34.3-.52.12-.23.18-.37a17,17,0,0,0,1-3.66,11.88,11.88,0,0,1,.31-1.3,3.43,3.43,0,0,1,.16-.56s0-.08,0-.13h0l.17-.32.12-.13s.38-.15.67-.24h0l.2-.06.11,0c.38-.1,1.18-.24,1.18-.24h2.53l1.65.15,1.06.1,1.66.16.21.11.5.25L753,52l4,3.51.26.23a.28.28,0,0,0,0,.06l1.22,1.33S757.87,58.58,757.06,60.51Z"/><path class="cls-34" d="M739.28,81.28l.06,0Z"/><path class="cls-33" d="M751.84,54.86a22.62,22.62,0,0,1-5.38,3.87c.52-.35,4.91-3.12,5.6-4.31a2.72,2.72,0,0,0,.52-1.86A2.73,2.73,0,0,1,751.84,54.86Z"/><g class="cls-1"><path class="cls-38" d="M735.43,82.88a23.37,23.37,0,0,0-.89,6.37c0,1.34.05,2.61.09,2.69.26.45.8.16,1.39-.18a2.6,2.6,0,0,0,1.37-1.41c.05-.14.07-1.44.08-2.79a13.89,13.89,0,0,0-.92-5.32Z"/><path class="cls-31" d="M727.47,87.82l7.33,4.29a.46.46,0,0,1-.17-.17c0-.08-.07-1.35-.09-2.69a23.37,23.37,0,0,1,.89-6.37l-7.33-4.29a23.37,23.37,0,0,0-.89,6.37,26.14,26.14,0,0,0,.09,2.69A.46.46,0,0,0,727.47,87.82Z"/><polygon class="cls-39" points="736.55 82.24 729.22 77.94 728.1 78.59 735.43 82.88 736.55 82.24"/></g><path class="cls-39" d="M728.59,80.41h0a.24.24,0,0,0-.22.29l.69,4.7a3.81,3.81,0,0,0,1.76,2.51,1.56,1.56,0,0,0,1.42.19,1.09,1.09,0,0,0,.59-.82l.7-3.89a.26.26,0,0,0-.52-.09l-.7,3.89a.52.52,0,0,1-.29.43,1,1,0,0,1-.94-.17,3.28,3.28,0,0,1-1.5-2.13l-.7-4.69A.27.27,0,0,0,728.59,80.41Z"/><polygon class="cls-38" points="729.89 83.38 731.94 84.56 731.94 83.67 729.89 82.48 729.89 83.38"/><path class="cls-33" d="M726.67,77.88a17.3,17.3,0,0,0-.36,4.31,2,2,0,0,0,1.78,0c.24-.29.57-3.76,1.81-3.42a2,2,0,0,1,0,1.82c-.48,1.21-.07,1.35-.07,1.35l1.26-1.84a2.37,2.37,0,0,0,.4-1.08,1.88,1.88,0,0,0,0-.34v-.37c0-.49.45-.79.52-.89s0-.06,0-.09-.07-.22-.11-.33a4.3,4.3,0,0,0-1.15-1.64l-.09-.08-.14-.11C730.07,75.49,726.67,77.88,726.67,77.88Z"/><path class="cls-31" d="M755,139.49c.74-1.26,1.49-2.51,2.24-3.76a4.44,4.44,0,0,0,.35-.68c.26-.69,2.55-.1,3.14.75s1.35-1.41,1.48-1.38a10.91,10.91,0,0,1,.59,4L761.72,140l-.66-.15s-1.67,3.2-3.55,4.14-4.74.19-4.74.19-.66-.33,1.12-2.93C754.4,140.48,754.76,139.92,755,139.49Z"/><path class="cls-40" d="M776.49,65.45a5.39,5.39,0,0,0-.48-.25s.09,1.08.09,1.08l.24.35.2-.42Z"/><path class="cls-31" d="M742.73,126.11a4.94,4.94,0,0,0,4.46,0,1.58,1.58,0,0,0,.92-1.23s.48-.06.48-.08c0-.93.17-11,.32-16.25a2.7,2.7,0,0,1,1.89-2.5c4.78-1.51,17.19-5.43,17.49-5.59s5.33-4.39,5.33-4.39L771.3,89.8h-4.5c-.78,0-17,5.57-22.72,10,0,0-2.23,1.43-2.23,6.23l-.37,19C741.31,125.58,742,125.68,742.73,126.11Z"/><path class="cls-41" d="M780.49,95.59c0,.19,0,.41-.06.63a10.39,10.39,0,0,1-2,5.35,39.43,39.43,0,0,1-5,4.69c-3,2.48-6.39,5-7.95,6.19a2.36,2.36,0,0,0-1,1.78v0l-.79,20.07c0,.45-.59,1-1.21,1.38a4.17,4.17,0,0,1-1.38.47,4.84,4.84,0,0,1-3.08-.47,2.66,2.66,0,0,1-1.43-1.55c0-2.24.71-22.48,1-24.42.2-1.42,9.56-12.92,9.56-12.92l.93-6L778,92.64l2.44.46A13.61,13.61,0,0,1,780.49,95.59Z"/><path class="cls-32" d="M780.45,91.2Z"/><path class="cls-31" d="M741.9,124.88a46.37,46.37,0,0,1-5.43,3.58,17.48,17.48,0,0,0-3.39,2.18s0,1.28.67,1.41,4.5.3,5.33-.23a9.24,9.24,0,0,1,3.09-1.48,7.15,7.15,0,0,1,1.61,0v.87s3.72-.1,4.22-.8-.61-5.69-.67-4.71a5.73,5.73,0,0,1-3.35.45C742.91,125.75,743,125.08,741.9,124.88Z"/><path class="cls-41" d="M759.1,106.75l0,0a.16.16,0,0,0,0-.07l0-.06A.54.54,0,0,1,759.1,106.75Z"/><path class="cls-31" d="M759.11,106.46h0l0,0h0s0,0,0,0Z"/><path class="cls-41" d="M756.29,89.88l3.93,3.6c.44-1.24.92-3,1.28-4.36,1.12-4.13,2.89-10.39,3.06-12.6,0-.13,0-.64,0-.77v.1a66.88,66.88,0,0,1,1.44-8c-.93.51-1.12.81-2.15,2.42a50.72,50.72,0,0,0-3.18,7.08q-1.9,5-3.51,10.16Z"/><path class="cls-31" d="M756.2,90.42a2.68,2.68,0,0,0,.12.77s0,0,0,0a4.53,4.53,0,0,0,1.94,2.47l.24.13.17.07a2,2,0,0,0,.59.13h0a1,1,0,0,0,.58-.17h0a.88.88,0,0,0,.3-.36s0,0,0,0v0c0-.07,0-.16.08-.25s0-.23,0-.35a3.1,3.1,0,0,0-.32-1.28,3.57,3.57,0,0,0-.25-.47v0a4.61,4.61,0,0,0-1.5-1.51,2.46,2.46,0,0,0-.68-.27l-.13,0C756.72,89.13,756.2,89.56,756.2,90.42Z"/><path class="cls-33" d="M754.92,96.75a2.14,2.14,0,0,0,2.29,1.07.39.39,0,0,0,.34-.31c.2-.94.62-3.49,1.12-3.62a1.58,1.58,0,0,1-.08.31,3.39,3.39,0,0,0-.07,1.74c.06.15.45.28.51.13a3.83,3.83,0,0,1,.51-1.24,3.47,3.47,0,0,0,.34-1c0-.47,0-.84,0-.84a12.47,12.47,0,0,1-.15-2s0,0,0,0a4.61,4.61,0,0,0-1.5-1.51,2.46,2.46,0,0,0-.68-.27c-.22.35-.69,1.12-1.27,1.92a0,0,0,0,0,0,0,7.44,7.44,0,0,0-1.43,4.26A6.6,6.6,0,0,0,754.92,96.75Z"/><path class="cls-42" d="M781.17,77.54a3.24,3.24,0,0,0-1.53.78c0,.22-1.9,5.51-2.17,8.24s-2.2,6.29-1.93,6.21,6.67-2.7,6.67-2.7V81.83Z"/><path class="cls-43" d="M770.25,99.28a1.55,1.55,0,0,0,0-.31v-.19a4,4,0,0,0-.11-.56.49.49,0,0,0,0-.11,4.6,4.6,0,0,0-1.42-2.06,4.1,4.1,0,0,0-.5-.35,3.06,3.06,0,0,0-.5-.23,1.3,1.3,0,0,0-1.11.07.86.86,0,0,0-.29.31,1.43,1.43,0,0,0-.17.73,3.7,3.7,0,0,0,.69,2c0,.08.11.15.16.22a4.23,4.23,0,0,0,1.22,1.1,3.28,3.28,0,0,0,1.28.3l10.94-3.93c0-.22.05-.44.06-.63Z"/><path class="cls-31" d="M762.24,90.77v1.56c0,1.39.91,2.78,2.76,3.84a13.59,13.59,0,0,0,6.66,1.6,15,15,0,0,0,4.91-.8,10.26,10.26,0,0,0,1.74-.8c1.84-1.06,2.76-2.45,2.76-3.84V90.77h-.4a3.08,3.08,0,0,0-.45-.68,6.08,6.08,0,0,0-1.91-1.6,14.72,14.72,0,0,0-13.31,0,5.71,5.71,0,0,0-2.36,2.28Z"/><path class="cls-41" d="M762.77,87.82c-1,3.38-.53,3.76-.53,3.76a5.43,5.43,0,0,0,2.78,3,13.64,13.64,0,0,0,6.66,1.59,14.83,14.83,0,0,0,4.89-.79,10.58,10.58,0,0,0,1.77-.8,7.33,7.33,0,0,0,1.51-1.29A4.91,4.91,0,0,0,781,91.25a2.68,2.68,0,0,0,.07-.27,7.53,7.53,0,0,0,.16-1.42l-.07-2.44s-.44-3.6.18-5.37c.73-2.08,4.14-8.32,4.14-8.32s-6.62-5-8-6-7.12-.78-11.47.41c0,0-1.94,5.6-2.15,8.52S763.72,84.55,762.77,87.82Z"/><path class="cls-41" d="M786.93,92.68a.92.92,0,0,1-.62.83l-5.25,1.88-.53.19-10.71,3.85-.33.12-.47-.79-.44-.76h0l-1.82-3.09,0-.06h0l13.06-5.39.71-.29-.93-6.32a12.63,12.63,0,0,1,.91-7.06,6.1,6.1,0,0,1,.29-.57,4.75,4.75,0,0,1,.45-.76,2.87,2.87,0,0,1,4.24-1s0,0,0,0a0,0,0,0,1,0,0s0,0,0,0a148.15,148.15,0,0,1,1.31,14.82c0,.4,0,.78.06,1.16C786.94,90.81,787,91.93,786.93,92.68Z"/><path class="cls-31" d="M766,96a3.67,3.67,0,0,0,.69,2l.16.23a4.34,4.34,0,0,0,1.22,1.09,1.66,1.66,0,0,0,1.41.24h0l.15-.06a1.12,1.12,0,0,0,.51-1.06v-.2a4,4,0,0,0-.11-.56.3.3,0,0,0,0-.1,4.54,4.54,0,0,0-1.42-2.06,3.23,3.23,0,0,0-.5-.35,3.06,3.06,0,0,0-.5-.23,1.26,1.26,0,0,0-1.11.06.82.82,0,0,0-.29.32A1.42,1.42,0,0,0,766,96Z"/><path class="cls-34" d="M761.4,99.61a4.72,4.72,0,0,0,2.16.78c1.93-1,2.38-1.22,2.73-2a1,1,0,0,1,.41-.42,1.94,1.94,0,0,1,.67-.19,6.31,6.31,0,0,1,1.68.06,1.86,1.86,0,0,0,1-.18,4.66,4.66,0,0,0-1.46-2.16,3.23,3.23,0,0,0-.5-.35,1.92,1.92,0,0,0-.51-.23l-1.11.07h-.18a8.45,8.45,0,0,0-1.25.16,3.39,3.39,0,0,0-1.88,1.12C762.34,97.16,761.25,99.35,761.4,99.61Z"/><path class="cls-40" d="M767.46,79.63c0,2.27,0,5.14,0,5.14.5-.46,2.14-2.61,2.73-3.33,3.18-3.86,7.21-10.7,7.28-12.45.07-2.07-.89-2.3-.89-2.3-4.06-1.87-5.44,0-5.62.32,0,0-1.35-.06-1.35-.06C767.64,70.39,767.42,76,767.46,79.63Z"/><path class="cls-34" d="M771.43,74.4A29.69,29.69,0,0,1,770,70.85c-.1-.34-.2-.67-.26-1a9.72,9.72,0,0,1-.24-2l5.33-6.78,1.13,2.59.06.13a25.81,25.81,0,0,0,.63,3.28S777.05,70.21,771.43,74.4Z"/><path class="cls-33" d="M775.94,63.74A12.19,12.19,0,0,1,774.4,67,5.88,5.88,0,0,1,772,69.22a12.44,12.44,0,0,1-2.26.67,9.72,9.72,0,0,1-.24-2l5.33-6.78Z"/><polygon class="cls-31" points="771.81 72.18 770.79 72.02 769.59 72.48 770.24 74.41 771.81 75.13 772.92 73.57 771.81 72.18"/><path class="cls-31" d="M771.81,75.13c-.24.61-.82,2.62-1.48,5h0c-.22.78-.44,1.59-.65,2.42l-.79.77c-.8.8-1.35,1.34-1.42,1.4h0a19,19,0,0,1-.35-2c.17-.45.34-.9.5-1.35,1.34-3.65,2.63-7,2.63-7l1.27-.88Z"/><path class="cls-31" d="M779.4,68.86c-.71,3.89-2.75,6.65-7.31,11.29l-2.41,2.44-.79.77c-.8.8-1.35,1.34-1.42,1.4A33.56,33.56,0,0,1,769.79,81c.19-.28.36-.53.54-.78h0a46.67,46.67,0,0,0,3.48-5.24,44.65,44.65,0,0,0,3.62-8.08l0,0S779.4,68.78,779.4,68.86Z"/><path class="cls-31" d="M768.76,69.38a62.31,62.31,0,0,0-1,9.65c0,.78-.1,1.59-.16,2.43-.08,1-.15,2.13-.15,3.31a19,19,0,0,1-.35-2,72.88,72.88,0,0,1-.26-10.64,30.5,30.5,0,0,1,.62-4.72,9.56,9.56,0,0,0,.63,1s.07,0,.1.07A8,8,0,0,0,768.76,69.38Z"/><path class="cls-44" d="M780.51,75.77c.09-.2.18-.39.28-.57,0,0-2.08,2.67-1.39,9.57.16,1.64.28,3,.38,4.12-.36.19-13.08,5.9-13,6s13.81-5.69,13.81-5.69l-.94-6.32A12.73,12.73,0,0,1,780.51,75.77Z"/><path class="cls-31" d="M765,94.75h0a.14.14,0,0,1-.12-.14c.11-1.28,2.37-9.66,2.52-10v-.12l.05.24.18-.2c0,.07-2.34,8.2-2.51,10.14C765.14,94.77,765.09,94.75,765,94.75Z"/><path class="cls-45" d="M777.16,62.79l-.87,2.87a12.13,12.13,0,0,1-.25-1.94A8.25,8.25,0,0,0,777.16,62.79Z"/><polygon class="cls-45" points="765.65 58.21 765.81 61.01 766.34 57.95 765.65 58.21"/><path class="cls-34" d="M765.79,61.49a6.38,6.38,0,0,1,.36,2,11.22,11.22,0,0,0,1.4,5.26h0c.13.2.23.34.28.44.29.47,2.81,0,4.29-.62a5.94,5.94,0,0,0,2.43-2.22c1.61-2.27.94-3.17,3.28-6.18-.58-7.21-5.94-6.6-5.94-6.6C765.56,53.59,765.79,61.49,765.79,61.49Z"/><path class="cls-45" d="M765.65,58.26a1.32,1.32,0,0,1,1.16-.06c.27.21.48.49.75.7a3.15,3.15,0,0,0,2.66.26c1-.24,2.64-.75,3.6-.14.25,0,.36.33.39.57.11.76,0,1.54.08,2.3a4.73,4.73,0,0,1,.08,1.12l1.32,1.54,1-.61a26.83,26.83,0,0,0,1.72-4,6.49,6.49,0,0,0-1.71-5.29A6.24,6.24,0,0,0,772.05,53c-2.9,0-5.76,1.36-6.34,4.41A5.39,5.39,0,0,0,765.65,58.26Z"/><path class="cls-34" d="M774.74,63.59a7.67,7.67,0,0,0,.28-1.17c.08-.52.37-1.42,1.36-1.23,1.38.25,0,3.17-.53,3.42s-1.11-1-1.11-1Z"/><path class="cls-31" d="M782,155.68l2.24-3.76a4.7,4.7,0,0,0,.36-.68c.25-.69,2.54-.09,3.13.75s1.35-1.41,1.48-1.38a10.63,10.63,0,0,1,.6,4l-1.1,1.57L788,156s-1.66,3.2-3.55,4.14-4.74.19-4.74.19-.66-.32,1.13-2.93C781.34,156.68,781.7,156.11,782,155.68Z"/><path class="cls-31" d="M791.46,92c0,.17,0,.6,0,.72a38.18,38.18,0,0,1-.86,4.42l-.92,3.56s-.89,3.19-1.28,4.62-.84,3.13-1.28,4.36L784.26,107c.26-2.74,1.83-9.57,1.83-9.57s.63-1.68,1.48-3.92c1-2.61,1.15-3.41,1.93-5.14a24,24,0,0,1,2.08-3.74,4.31,4.31,0,0,1,.61-.76C792.16,84,791.73,88.79,791.46,92Z"/><path class="cls-45" d="M805.32,79.66s.21.84,0,1a13.22,13.22,0,0,0-.78,1.73s-.85-2.29-.79-2.36.66-1.34.66-1.34Z"/><path class="cls-31" d="M769.67,142.3a4.94,4.94,0,0,0,4.46,0,1.58,1.58,0,0,0,.92-1.22s.63-11,.8-16.33a2.72,2.72,0,0,1,1.89-2.51c4.78-1.5,17.19-5.42,17.49-5.58s5.33-4.39,5.33-4.39L798.24,106h-4.5c-.78,0-17,5.58-22.72,10,0,0-2.23,1.43-2.23,6.23l-.37,19C768.26,141.77,768.92,141.87,769.67,142.3Z"/><path class="cls-41" d="M805.39,117.77a40.36,40.36,0,0,1-5,4.69c-3,2.48-6.38,5-8,6.19a2.34,2.34,0,0,0-.95,1.77v0l-.78,20.06c0,.46-.6,1-1.22,1.39a3.86,3.86,0,0,1-1.39.46,4.82,4.82,0,0,1-3.07-.46,2.67,2.67,0,0,1-1.44-1.56c0-2.24.72-22.48,1-24.42a8,8,0,0,1,1.1-1.93c.36-.52.77-1.1,1.23-1.73,2.83-3.86,7.23-9.27,7.23-9.27l.93-6,9.93,1.86,2.45.46S808.05,114.42,805.39,117.77Z"/><path class="cls-40" d="M812.46,89.7v0a14.47,14.47,0,0,1-1.2,2.28,16.74,16.74,0,0,0-2.79,6.28c-.31,2-.54,4.2-.71,6.14s-2.85,3.65-2.93,4.41c0,0,0,0,0,0a4.41,4.41,0,0,1-2.53,3.33,13.23,13.23,0,0,1-7.89,1.36,13,13,0,0,1-2.18-.45,9.82,9.82,0,0,1-2.17-.91c-2.18-1.26-2.95-3-2.33-4.63l.07-.16c1.38-4,3.68-12.41,3.86-14.63,0-.08,0-.49,0-.57l.11-.11c.21-3.22.36-7.74.36-7.74.36-.85,2.07-1.32,4.48-.56a4,4,0,0,1,.49.17c.14-.29.28-.58.44-.85a2,2,0,0,0,.35.1c.18-.28,1.56-2.18,5.62-.32a1.09,1.09,0,0,1,.63.66l0-.13c0-.16,0-.32.07-.49,0,0,0,0,0,0s.41.28,1,.72c.76.58,1.87,1.44,3,2.33a29.68,29.68,0,0,1,4.18,3.72.08.08,0,0,1,0,0Z"/><path class="cls-32" d="M807.39,107.4h0S807.4,107.39,807.39,107.4Z"/><path class="cls-46" d="M797.41,86s0,.11,0,.16c0,.21.06.43.09.64.25,1.55.68,3.11.68,3.11,4.79-2.35,6-4.7,6.34-5.68a5.41,5.41,0,0,0,.11-1.06,20.93,20.93,0,0,1-.12-2.75L804,77.46l-6.47,5.69A10.08,10.08,0,0,0,797.41,86Z"/><path class="cls-31" d="M768.84,141.07a47.3,47.3,0,0,1-5.43,3.59,16.6,16.6,0,0,0-3.38,2.18s0,1.27.67,1.4,4.49.31,5.33-.23a9.39,9.39,0,0,1,3.08-1.48,7.11,7.11,0,0,1,1.61,0v.88s3.72-.1,4.22-.81-.61-5.69-.66-4.71a5.7,5.7,0,0,1-3.36.45C769.85,141.94,770,141.27,768.84,141.07Z"/><path class="cls-46" d="M794.17,77.9a6.16,6.16,0,0,1,.35,2,11.37,11.37,0,0,0,.65,3.2c.09.25.18.48.28.69a6.37,6.37,0,0,0,.92,1.47,5,5,0,0,0,.49.51l.12.09,0,0,.11,0h.14s0,0,0,0a14.69,14.69,0,0,0,3.22-1.19,4.29,4.29,0,0,0,1.63-1.71c.1-.15.18-.31.27-.46a19.92,19.92,0,0,0,1.1-2.26c1.05-.63,0-1.22,2.68-3.66-.53-7.2-5.89-6.64-5.89-6.64C794,70,794.17,77.9,794.17,77.9Z"/><path class="cls-41" d="M786,122.94l0,0,.05-.06s0-.05,0-.07A.37.37,0,0,1,786,122.94Z"/><path class="cls-31" d="M786.05,122.66l0,0h0a.05.05,0,0,1,.05,0h0l0,0Z"/><path class="cls-42" d="M808.11,94a3.07,3.07,0,0,0-1.52.78,55.59,55.59,0,0,0-2.18,8.24c-.27,2.73-2.2,6.28-1.93,6.2s6.67-2.69,6.67-2.69V98.31Z"/><path class="cls-41" d="M785.49,111.22C787,112,790,113,790,113l1.87-3.87a25.34,25.34,0,0,0,2.44-8.8l.19-2,1.58-11.43.28-1.55a6.37,6.37,0,0,1-.92-1.47c-.1-.21-.19-.44-.28-.69-1.4.37-2.67.37-3,.75,0,0-.5,5-.71,8.25v0l0,.24a76.08,76.08,0,0,1-3.14,12.79A6.54,6.54,0,0,1,785.9,108c-.82.63-1.55,1.08-1.6,1.32C784.3,109.3,783.77,110.4,785.49,111.22Z"/><path class="cls-41" d="M795.62,114.9c.7.69,2.38,2,2.82,2.93a6.84,6.84,0,0,1,.41,1.14c.79,2.78,1.47,4.33,4.24,2.49,2.61-1.74,4.25-3.55,4.37-6.23h0v-1c0-.53,0-1.23,0-2,0-.16,0-.32,0-.48v0c0-.41,0-.82,0-1.24v0c0-.13,0-.25,0-.37,0-.43,0-.85,0-1.24a.07.07,0,0,1,0-.05c0-.78.15-2.44.33-4.4s.4-4.18.72-6.14a15.83,15.83,0,0,1,2.62-6l.16-.26h0a13.68,13.68,0,0,0,1.2-2.28v0h0v0a.08.08,0,0,0,0,0,1.46,1.46,0,0,0-.11-.18l0,0a10.06,10.06,0,0,0-.92-.9c-.81-.73-2-1.7-3.13-2.62s-2.17-1.89-2.93-2.46l-.16.22c-.15.21-.31.43-.45.65a46,46,0,0,0-4.22,8.75l-.09.23c0,.06,0,.13-.08.2a80.08,80.08,0,0,0-3.08,12.75l-.06.37C797,107.84,795.62,114.9,795.62,114.9Z"/><path class="cls-31" d="M793.92,94.88a57.65,57.65,0,0,1-.2,6.83l-.29,3.35s.85-2.63,2-11c.06-.41.89-5.26,1.42-8.24a5,5,0,0,1-.49-.54h0a9.15,9.15,0,0,1-1-1.7,16.87,16.87,0,0,0-.27,2.81l.25.11.78.37-.82.35-.36.15a21.5,21.5,0,0,0-1,7.51Z"/><path class="cls-45" d="M792.68,76.24a3.56,3.56,0,0,1,2.67-.52c-.16-.73.57-1.5,1.23-1.3a2.11,2.11,0,0,1,1,1,2,2,0,0,1,1.55-1.23,3.34,3.34,0,0,1,2,.32.87.87,0,0,1,.49.41,1.14,1.14,0,0,1,0,.49l-.09,1.75,1.2,1.59s1.09-.52,1.32.12c.45-1.14,1.27,1.78,1.27,1.78s1.92-5,1.33-7.59c-.38-1.65-1.69-1.54-1.69-1.54a6.4,6.4,0,0,1,.49-1.29c-.07,0-.47.26-.85.45a4,4,0,0,0-.06-.88,4,4,0,0,1-.79.72l-.14-.39c-1.62-2.89-5.95-1.25-5.95-1.25l.32.85c-1-.85-4.16-.4-3.52,0s1.19,1.83.41,1.49-1.51.5-1.51.5a1.6,1.6,0,0,1,1.06.45,4.43,4.43,0,0,0-1.9.76,2.18,2.18,0,0,1,1.52.56,6.61,6.61,0,0,0-1.78.09,7.93,7.93,0,0,1,1.2.89.28.28,0,0,1,.13.2c0,.1-.09.18-.16.24A2.24,2.24,0,0,0,792.68,76.24Z"/><path class="cls-46" d="M803.26,80.25a14.5,14.5,0,0,1,0-1.63c.08-.52.36-1.41,1.35-1.23,1.38.25,0,3.17-.52,3.42S803.26,80.25,803.26,80.25Z"/><path class="cls-31" d="M797.14,107s2-5.63,4.38-10.52l3.12-6.6-1.13-1.16h1.62l1-3.6.22-.78-1.82-2.15a3.84,3.84,0,0,1-.53,2.67,37.76,37.76,0,0,0-3.77,8.23c0,.06-2.16,7.45-3,12.59C797.28,105.83,797.13,106.81,797.14,107Z"/><path class="cls-47" d="M797.41,86s0,.11,0,.16c0,.21.06.43.09.64,2.16.07,5.13-3.16,5.73-4.58-.39-.08-.4.2-1.09.89a4.29,4.29,0,0,1-1.63,1.71A16.37,16.37,0,0,1,797.41,86Z"/><path class="cls-43" d="M801.1,117.8l-2.45,1.41c-2.62-3.37-5.52-1.18-5.52-1.18l-6.27,4.23c-.46.63-.87,1.21-1.23,1.73l3,1.66s7.89-5.18,9.22-5.2,2.48,1.88,2.55,2a13.12,13.12,0,0,0-1.42-2.84Z"/><g class="cls-1"><path class="cls-41" d="M783.77,107.07l17.5,10.16a.16.16,0,0,0-.1,0A23.62,23.62,0,0,0,795,120l-17.49-10.17a24,24,0,0,1,6.16-2.81C783.72,107.05,783.75,107.05,783.77,107.07Z"/><path class="cls-41" d="M783.77,107.07l17.5,10.16a.16.16,0,0,0-.1,0A23.62,23.62,0,0,0,795,120l-17.49-10.17a24,24,0,0,1,6.16-2.81C783.72,107.05,783.75,107.05,783.77,107.07Z"/><path class="cls-31" d="M788.74,124.85l-17.49-10.16c-.12-.07-.1-.33.09-.52a34.07,34.07,0,0,1,6.17-4.31L795,120a33.36,33.36,0,0,0-6.16,4.31C788.65,124.52,788.63,124.79,788.74,124.85Z"/><path class="cls-41" d="M795,120a23.62,23.62,0,0,1,6.17-2.81c.26,0,.2.42-.07.58l-12.19,7c-.27.16-.33-.24-.07-.49A33.36,33.36,0,0,1,795,120Z"/></g><g class="cls-48"><path class="cls-49" d="M783.77,107.07l17.5,10.16a.16.16,0,0,0-.1,0A23.62,23.62,0,0,0,795,120l-17.49-10.17a24,24,0,0,1,6.16-2.81C783.72,107.05,783.75,107.05,783.77,107.07Z"/></g><path class="cls-31" d="M789.69,100.65l-1.87,9.78s-4.26-1.13-4.05-3.36c.2-2.07,2.32-9.64,2.32-9.64Z"/><path class="cls-31" d="M783.71,107.63a4.3,4.3,0,0,0,2.08,3.27c1.14.66,2.07.27,2.07-.88a4.32,4.32,0,0,0-2.07-3.27C784.64,106.09,783.71,106.48,783.71,107.63Z"/><path class="cls-41" d="M813.85,108.86a.92.92,0,0,1-.62.83l-5.78,2.08-10.72,3.84-.32.12-.46-.79-.45-.76-1.81-3.1h-.12l3.08-1.41,9.77-3.91,1-.42L806.52,99a12.57,12.57,0,0,1,.89-7,.25.25,0,0,1,0-.07c.65-1.43,1.6-2.69,2.92-2.87a3.17,3.17,0,0,1,2,.53s0,0,0,0a.06.06,0,0,1,0,0s0,0,0,0C812.84,90.88,814,104.94,813.85,108.86Z"/><path class="cls-31" d="M792.91,112.22a3.63,3.63,0,0,0,.7,2,1.7,1.7,0,0,0,.15.22,4.23,4.23,0,0,0,1.22,1.1,1.66,1.66,0,0,0,1.41.24h0l.15,0a1.13,1.13,0,0,0,.51-1.07v-.19a2.91,2.91,0,0,0-.11-.56.49.49,0,0,0,0-.11,4.66,4.66,0,0,0-1.41-2.06,5.16,5.16,0,0,0-.51-.35,2.72,2.72,0,0,0-.5-.23,1.3,1.3,0,0,0-1.11.07.86.86,0,0,0-.29.31A1.43,1.43,0,0,0,792.91,112.22Z"/><path class="cls-46" d="M788.3,115.8a4.82,4.82,0,0,0,2.16.77c1.93-1,2.39-1.22,2.73-2a1,1,0,0,1,.41-.42,2.19,2.19,0,0,1,.67-.2A6.4,6.4,0,0,1,796,114a1.84,1.84,0,0,0,1-.18,4.71,4.71,0,0,0-1.45-2.16,4.2,4.2,0,0,0-.51-.35,2.45,2.45,0,0,0-.5-.23l-1.11.07-.19,0a6.94,6.94,0,0,0-1.24.16,3.39,3.39,0,0,0-1.88,1.11C789.24,113.34,788.15,115.53,788.3,115.8Z"/><path class="cls-46" d="M782.42,113.94a2.15,2.15,0,0,0,2.29,1.07.38.38,0,0,0,.34-.31c.2-.94.62-3.49,1.13-3.62a3.19,3.19,0,0,1-.09.31,3.37,3.37,0,0,0-.06,1.74c.06.16.44.28.5.13a4.08,4.08,0,0,1,.52-1.23,4.12,4.12,0,0,0,.33-1c0-.47,0-.85,0-.85a14,14,0,0,1-.15-2,0,0,0,0,0,0,0,4.48,4.48,0,0,0-1.5-1.5,2.28,2.28,0,0,0-.68-.28c-.21.36-.69,1.12-1.27,1.92v0a7.38,7.38,0,0,0-1.43,4.25A6.6,6.6,0,0,0,782.42,113.94Z"/><path class="cls-43" d="M807.48,112.27c-.07.1-.05-.52,0-.5s-9.64,3.46-9.64,3.46l.68.39Z"/><polygon class="cls-50" points="691.26 77.95 691.26 81.39 697.24 84.84 697.24 84.85 703.21 88.3 706.2 90.02 781.37 133.71 787.35 137.16 787.35 137.09 787.35 133.71 691.26 77.95"/><polygon class="cls-51" points="697.23 84.85 697.23 120.89 787.35 173.22 787.35 137.16 781.37 133.72 781.37 162.87 703.21 117.44 703.21 88.3 697.23 84.85"/><polygon class="cls-50" points="703.21 88.3 703.21 117.45 706.2 115.72 706.2 90.02 703.21 88.3"/><polygon class="cls-52" points="703.21 117.45 781.37 162.86 781.37 159.41 706.2 115.72 703.21 117.45"/><polygon class="cls-25" points="706.2 90.02 706.2 115.72 781.37 159.41 781.37 133.71 706.2 90.02"/><polygon class="cls-53" points="709.19 77.95 712.17 79.67 723.49 73.27 726.47 71.54 726.47 68.09 709.19 77.95"/><polygon class="cls-54" points="712.17 79.67 715.16 81.39 720.5 87.98 723.49 86.26 723.49 73.27 712.17 79.67"/><polygon class="cls-25" points="787.35 137.16 787.35 173.21 807.62 161.63 807.62 125.59 801.65 129.03 801.65 158.18 793.32 162.86 793.32 159.41 793.32 133.71 787.35 137.16"/><polygon class="cls-50" points="787.35 137.09 787.35 137.16 793.32 133.71 798.66 130.76 798.66 130.76 801.65 129.03 807.62 125.59 807.62 125.58 813.6 122.13 813.6 118.68 787.35 133.71 787.35 137.09"/><polygon class="cls-52" points="793.32 159.41 793.32 162.86 801.65 158.18 798.66 156.46 793.32 159.41"/><polygon class="cls-26" points="793.32 133.71 793.32 159.41 798.66 156.46 798.66 130.76 793.32 133.71"/><polygon class="cls-25" points="797.78 117.46 797.16 117.82 787.35 123.36 715.16 81.39 712.17 79.67 709.19 77.95 726.47 68.09 717.51 62.91 691.26 77.95 787.35 133.71 813.6 118.68 804.63 113.51 797.78 117.46"/><polygon class="cls-27" points="798.66 130.76 798.66 156.46 801.65 158.18 801.65 129.03 798.66 130.76 798.66 130.76"/><polygon class="cls-50" points="798.66 130.76 798.66 156.46 801.65 158.18 801.65 129.03 798.66 130.76 798.66 130.76"/><polygon class="cls-55" points="691.26 77.95 691.26 81.4 697.24 84.85 697.24 84.85 697.24 120.9 787.35 173.22 787.35 137.1 787.35 133.72 691.26 77.95"/><polygon class="cls-28" points="801.65 129.04 807.62 125.59 807.62 128.17 801.65 131.62 801.65 129.04"/><polygon class="cls-28" points="787.35 137.16 793.32 133.72 793.32 136.3 787.35 139.75 787.35 137.16"/><polygon class="cls-28" points="793.33 133.72 801.65 129.04 798.66 132.05 793.33 135.01 793.33 133.72"/><path class="cls-56" d="M771.81,72.18a9.93,9.93,0,0,1,.65,2.5,14.37,14.37,0,0,0,2.75-1.8c1.85-2.09,2.24-6,2.24-6l-1-1.41S774.59,71.5,771.81,72.18Z"/><path class="cls-56" d="M770.79,72a10.63,10.63,0,0,1-.87-2.65h-1.16a15.21,15.21,0,0,0,.93,5.19S769.88,72.4,770.79,72Z"/><path class="cls-45" d="M767.92,65.65s-1.13-.1-1.44.31c0,0,.25,2.59,1.29,3.32S771,69,771,69s.36-1.78-.19-2.53S767.92,65.65,767.92,65.65Z"/><path class="cls-57" d="M769.69,67.13a2,2,0,0,0-1.35-.59c-.81,0-1.05.3-1.05.3A1.84,1.84,0,0,0,769.69,67.13Z"/><path class="cls-30" d="M709.19,78c1.41-.87,2.84-1.72,4.27-2.55l4.31-2.49,4.33-2.44q2.17-1.22,4.37-2.38-2.13,1.29-4.27,2.55l-4.31,2.49-4.34,2.43C712.11,76.37,710.65,77.16,709.19,78Z"/><path class="cls-30" d="M787.35,133.72q3.2-2,6.45-3.95l6.53-3.82,6.6-3.7c2.2-1.22,4.43-2.41,6.67-3.57-2.14,1.35-4.29,2.66-6.46,3.95l-6.53,3.82-6.59,3.7C791.81,131.37,789.59,132.55,787.35,133.72Z"/><polygon class="cls-28" points="714.56 81.05 723.49 76 723.49 73.27 712.17 79.67 714.56 81.05"/><path class="cls-30" d="M793.32,162.86c1.33-.88,2.72-1.67,4.1-2.46s2.78-1.54,4.23-2.22c-1.33.89-2.72,1.67-4.09,2.47S794.77,162.19,793.32,162.86Z"/><polygon class="cls-43" points="754.55 60.22 752.37 62.45 752.82 74.14 740.49 79.37 740.91 79.86 744.26 82.07 754.08 75.13 756.62 65.45 754.55 60.22"/><path class="cls-35" d="M759,58.7a.28.28,0,0,0,0-.09c0-.06,0-.1,0-.15s0-.21,0-.21h0c-.16-1.35-1.24-1.9-2.63-1.37a4.94,4.94,0,0,0-.66.32,6.89,6.89,0,0,0-3.32,5.24,3.89,3.89,0,0,0,0,.49c0,.09.05.17.07.25h0l1,11.44c-.66.39-12.29,5.1-13.52,5.59h0l-.05,0h0L741.7,83l1,1.5h0c.4-.16,13.27-5.45,15.07-6.74S759.09,61.52,759,58.7Z"/><path class="cls-37" d="M739.33,81.3a3.5,3.5,0,0,0,.76,2l.19.23a3.18,3.18,0,0,0,.53.51l.21.18.21.13h0a1.46,1.46,0,0,0,1.48.16h0a1.08,1.08,0,0,0,.43-1,2.94,2.94,0,0,0-.08-.63l0-.1s0-.11,0-.16h0c0-.07,0-.13-.08-.21s0,0,0,0a4.32,4.32,0,0,0-1.47-1.78l-.08,0s-.05,0-.07-.06h0l-.12-.06-.19-.09a1.45,1.45,0,0,0-1-.1h0l-.05,0h0a.92.92,0,0,0-.52.74v0a.18.18,0,0,0,0,.1s0,0,0,.07A.28.28,0,0,0,739.33,81.3Z"/><path class="cls-34" d="M733.36,85c0,.32,1.51,1,1.95,1a22.92,22.92,0,0,0,3.28-.55,7.86,7.86,0,0,0,1.62-.93,3.35,3.35,0,0,0,.6-.53l.13-.15,0,0a1.87,1.87,0,0,1,1-.66l1-.37s0-.11,0-.16h0c0-.07,0-.13-.08-.21s0,0,0,0a4.32,4.32,0,0,0-1.47-1.78l-.08,0s-.05,0-.07-.06h0l-.12-.06-.19-.09a7.63,7.63,0,0,1-1.58.68c-.51.09-1,.16-1.29.19a3.17,3.17,0,0,0-2.06.9c-.24.28-1,1.34-1,1.34l-1.11.67S733.34,84.66,733.36,85Z"/><path class="cls-43" d="M755.26,79.09a5.14,5.14,0,0,1-1.85,1.7,11,11,0,0,1-5,1.31Z"/><path class="cls-44" d="M807.47,92c.09-.2.18-.39.28-.57,0,0-2.09,2.66-1.4,9.57.16,1.63.29,3,.38,4.11-.36.19-13.07,5.9-13,6s13.8-5.69,13.8-5.69L806.55,99A12.63,12.63,0,0,1,807.47,92Z"/><path class="cls-43" d="M750.13,51.06a1.22,1.22,0,0,1-1.65,1.07,7.21,7.21,0,0,0-1.19-.39,16.11,16.11,0,0,0-2.3.06,14.22,14.22,0,0,0-1.77.48c-.29,1.94-.87,5.29-1.69,6.73-1.19,2.05-1.53,3.91-.71,5.15.56.83,6.47,3.35,6.47,3.35L742.56,67l.1,1.61h0c-.23,2.61-.88,8.55-2.17,10.77a3.59,3.59,0,0,1-.28-.44,3.68,3.68,0,0,1-.21-.45,2.7,2.7,0,0,1-.12-.47,1.68,1.68,0,0,1,0-.45v-.14a3.1,3.1,0,0,1,.75-1.84c.08-.24.15-.5.22-.75.07-.44.13-.92.2-1.42a5.35,5.35,0,0,0,.07-.56,20.47,20.47,0,0,0-.54-6c-.1-.42-.19-.82-.29-1.21a5.12,5.12,0,0,0-.15-.56c-.25-1-.5-1.82-.64-2.45,0-.11-.05-.21-.07-.31a2.36,2.36,0,0,1-.07-.44,3.49,3.49,0,0,1,.23-1.8,5.66,5.66,0,0,1,.35-.76l.24-.44c.09-.14.18-.3.27-.46s.19-.34.3-.52.12-.23.18-.37a17,17,0,0,0,1-3.66,11.88,11.88,0,0,1,.31-1.3,3.43,3.43,0,0,1,.16-.56s0-.08,0-.13h0l.17-.32.12-.13s.38-.15.67-.24h0l.2-.06.11,0c.38-.1,1.18-.24,1.18-.24h2.53l1.65.15Z"/><path class="cls-34" d="M752.62,47.86a13.89,13.89,0,0,0,0,4.7,2.73,2.73,0,0,1-.74,2.3,22.62,22.62,0,0,1-5.38,3.87l-.06,0a32.07,32.07,0,0,1,.18-4.22s0,0,0-.06v-.06a7.17,7.17,0,0,1,.41-1.51l-.15-1a4.77,4.77,0,0,1-1.72.06c-.85-.16-1.82-2.39-2.33-3.6s-.5-5.27-.4-6.22,2.07-1.73,2.07-1.73l5.21,3.49a4.63,4.63,0,0,0,1.49-.75c.25-.35.49.85,1.47,1.16S753.17,46.23,752.62,47.86Z"/><path class="cls-58" d="M742.41,39.61c1.15-2.07,3.78-2.56,5-2.68l.5,0a6.33,6.33,0,0,1,1-.22,4.7,4.7,0,0,1,1.45,0A6.13,6.13,0,0,1,754.67,40a5.71,5.71,0,0,1,.31,3.41,2,2,0,0,0,.18,1.24l.4.75a3.66,3.66,0,0,1-1.66,3.9h0A3.11,3.11,0,0,1,752,51.41c0-.18,0-.71-.06-1a9.94,9.94,0,0,1,.1-2.18c0-.11.65-.54.69-.64.52-1.54.36-2.75-.57-3a1,1,0,0,0-1.29.53.21.21,0,0,1-.09.12c-.43-.42-1.72-.11-2-.64a4.11,4.11,0,0,0-1.77-2.17c-.5-.3-1.06,0-1.7-.06a2.18,2.18,0,0,1-.55-.09,1.36,1.36,0,0,1-.42-.18,1.63,1.63,0,0,1-.37-.46,1,1,0,0,0-.3.08,1.67,1.67,0,0,0-.6.53,5.16,5.16,0,0,0-.7,1.54,3.34,3.34,0,0,1-.6-1.84A4.37,4.37,0,0,1,742.41,39.61Z"/><path class="cls-58" d="M744.27,41.51a.52.52,0,0,0,.06.47.91.91,0,0,0,.55.28,1.44,1.44,0,0,1,1.18.89,1.3,1.3,0,0,0-1.21-.62,1.27,1.27,0,0,1-.8-.26,1,1,0,0,1-.3-.9Z"/><path class="cls-33" d="M747,52.92a6.5,6.5,0,0,0,4.17-5.3,6.44,6.44,0,0,1-4.32,4.28Z"/></g></g></svg>