<svg id="Capa_1" data-name="Capa 1" xmlns="http://www.w3.org/2000/svg" viewBox="0 0 1201.47 379.05"><defs><style>.cls-1,.cls-12,.cls-13,.cls-15,.cls-4{fill:none;}.cls-1,.cls-15{stroke:#40a7e3;}.cls-1,.cls-12,.cls-15{stroke-linecap:round;}.cls-1,.cls-12,.cls-15,.cls-4{stroke-miterlimit:10;}.cls-1,.cls-12{stroke-width:3px;}.cls-1{stroke-dasharray:10;}.cls-2{fill:#1b71a3;}.cls-3{fill:#40a7e3;}.cls-12,.cls-13,.cls-4{stroke:#000;}.cls-5{font-size:21.01px;}.cls-10,.cls-14,.cls-16,.cls-5,.cls-7,.cls-8,.cls-9{font-family:Arial-ItalicMT, Arial;font-style:italic;}.cls-6{fill:#1b1b1b;}.cls-7{font-size:29.38px;}.cls-8{font-size:16.46px;}.cls-9{font-size:14px;}.cls-10{font-size:23.79px;}.cls-11{fill:#e6a754;}.cls-14{font-size:15.13px;}.cls-15{stroke-width:2px;stroke-dasharray:1 5;}.cls-16{font-size:16.72px;}.cls-17{fill:#54b0e6;}</style></defs><title>aceleracionestangenciales</title><path class="cls-1" d="M47.05,372C49,375.37-3.31,96.15,295.54,75"/><polygon class="cls-2" points="70.5 207.97 145.72 66.57 151.28 69.52 150.59 49.81 133.86 60.26 139.41 63.22 64.2 204.62 70.5 207.97"/><polygon class="cls-2" points="72.92 204.55 116.21 154.63 120.97 158.76 124.7 139.39 106.06 145.83 110.82 149.96 67.53 199.87 72.92 204.55"/><polygon class="cls-2" points="133.4 135.33 251.11 34.33 255.21 39.11 261.75 20.5 242.36 24.13 246.46 28.91 128.75 129.91 133.4 135.33"/><circle cx="70.57" cy="204.44" r="7.31"/><circle cx="128.79" cy="135.25" r="7.31"/><polyline class="cls-3" points="285.87 67.56 300.18 74.92 286.28 85.55"/><polyline class="cls-3" points="972.74 61.1 987.05 68.46 973.15 79.09"/><polyline class="cls-4" points="128.79 135.25 284.95 319.26 69.08 204.85"/><text class="cls-5" transform="translate(35.27 204.97)">P1</text><text class="cls-5" transform="translate(146.61 144)">P2</text><text class="cls-5" transform="translate(96.87 76.84)">V1</text><polygon class="cls-6" points="97.42 57.91 111.5 57.91 111.5 60.01 117.2 56.72 111.5 53.43 111.5 55.53 97.42 55.53 97.42 57.91"/><text class="cls-5" transform="translate(472.07 167.32)">V1</text><polygon class="cls-6" points="472.62 148.38 486.7 148.38 486.7 150.48 492.4 147.19 486.7 143.9 486.7 146 472.62 146 472.62 148.38"/><text class="cls-5" transform="translate(201.07 38.34)">V2</text><polygon class="cls-6" points="201.61 19.41 215.7 19.41 215.7 21.5 221.4 18.22 215.7 14.93 215.7 17.03 201.61 17.03 201.61 19.41"/><text class="cls-5" transform="translate(553.92 233.66)">V2</text><polygon class="cls-6" points="554.46 214.72 568.55 214.72 568.55 216.82 574.24 213.53 568.55 210.25 568.55 212.34 554.46 212.34 554.46 214.72"/><text class="cls-7" transform="translate(781.31 263.45)">a</text><polygon class="cls-6" points="782.02 242.7 796.11 242.7 796.11 244.8 801.8 241.51 796.11 238.22 796.11 240.32 782.02 240.32 782.02 242.7"/><text class="cls-5" transform="translate(566.66 137.33)">V</text><polygon class="cls-6" points="566.7 118.39 580.79 118.39 580.79 120.49 586.48 117.2 580.79 113.92 580.79 116.02 566.7 116.02 566.7 118.39"/><text class="cls-5" transform="translate(792.82 86.28)">V</text><polygon class="cls-6" points="792.86 67.34 806.95 67.34 806.95 69.44 812.64 66.15 806.95 62.87 806.95 64.96 792.86 64.96 792.86 67.34"/><text class="cls-8" transform="translate(204.97 207.13)">R</text><text class="cls-8" transform="translate(153.3 275.13)">R</text><path d="M114.89,196H97.64l8.62-21Zm-14.64-1.75h12l-6-14.66Z"/><path d="M182.89,247.35H165.64l8.62-21Zm-14.64-1.75h12l-6-14.67Z"/><text class="cls-9" transform="translate(116.04 194.98)">s</text><path d="M563.53,138.54H546.28l8.62-21Zm-14.64-1.75h12l-6-14.67Z"/><text class="cls-10" transform="translate(185.31 248.75)">o</text><text class="cls-10" transform="translate(291.07 333.29)">o</text><text class="cls-10" transform="translate(431.43 310)">o</text><text class="cls-10" transform="translate(983.84 329.83)">o</text><line class="cls-4" x1="194.75" y1="229.92" x2="189.62" y2="252.37"/><path d="M510.64,214H493.39l8.62-21ZM496,212.22h12l-6-14.67Z"/><text class="cls-10" transform="translate(513.06 215.38)">o</text><line class="cls-4" x1="522.5" y1="196.54" x2="517.38" y2="218.99"/><path class="cls-6" d="M219.15,244.44a27.47,27.47,0,0,0-.83,2.64c-.11.43-.22.83-.3,1.27s-.14.89-.2,1.33l-.8.52a22.93,22.93,0,0,1,.95-4.73,12.47,12.47,0,0,0-1.88,1.07c-.6.41-1.23.78-1.81,1.22a48.39,48.39,0,0,0-10.11,11,81.15,81.15,0,0,0-7.35,13.08l-.73-.31a80.87,80.87,0,0,1,7.43-13.22,48.89,48.89,0,0,1,10.29-11.15c.59-.45,1.24-.83,1.85-1.25a13.36,13.36,0,0,1,2-1.1,25.15,25.15,0,0,0-5.15-1.06l1.07-.71,1.46.23c.47.09,1,.23,1.45.35C217.4,243.84,218.3,244.13,219.15,244.44Z"/><polygon class="cls-2" points="446.71 287.98 518.82 150.5 526.51 154.53 525.71 134.81 509.03 145.36 516.72 149.39 444.6 286.88 446.71 287.98"/><polygon class="cls-2" points="448.12 288.52 566.27 187.4 571.91 193.99 578.48 175.38 559.08 179 564.72 185.59 446.58 286.72 448.12 288.52"/><polygon class="cls-2" points="527.56 133.69 565.34 163.12 560.01 169.97 579.55 172.68 572.13 154.4 566.8 161.24 529.02 131.81 527.56 133.69"/><path class="cls-6" d="M503.45,238.77c-1.71.31-3.4.66-5.05,1l-.57-.66c1.5-.35,3-.68,4.57-1-.84-.93-1.62-1.92-2.51-2.8a49,49,0,0,0-9.46-8,27.42,27.42,0,0,0-5.53-2.75,12.36,12.36,0,0,0-1.46-.46,12.51,12.51,0,0,0-1.5-.33,10,10,0,0,0-3-.12l-.17-.77a14.19,14.19,0,0,1,6.37.93,27.88,27.88,0,0,1,5.68,2.83,49.44,49.44,0,0,1,9.61,8.17c.9.89,1.69,1.88,2.54,2.82.51-1.48,1-3,1.46-4.53l.64.73Q504.32,236.37,503.45,238.77Z"/><path class="cls-1" d="M733.3,341.61S708.1,81.2,982.08,68.28"/><polygon class="cls-2" points="763.75 197.02 838.96 55.62 844.52 58.57 843.83 38.86 827.1 49.31 832.66 52.26 757.44 193.66 763.75 197.02"/><polygon class="cls-11" points="757.82 201.94 828.25 239.07 826.29 242.78 839.43 242.28 832.42 231.15 830.47 234.86 760.04 197.73 757.82 201.94"/><line class="cls-12" x1="842.5" y1="245.23" x2="976.39" y2="314.53"/><path class="cls-13" d="M978,302.89l1-1.78q3.16-6-.65-10.51t-20.61-13.41q-33.87-17.94-42.45-23.29-13.28-8.35-19.45-14.83a41.36,41.36,0,0,1-9.15-14.9q-9.3,3.18-23-.44T822.15,205.4Q797,192.07,792,189.76q-9-4.2-13.51-4.17t-7.37,5.48l-.95,1.79"/><text class="cls-5" transform="translate(882.28 219.43)">R</text><text class="cls-14" transform="translate(798.82 263.91)">rad</text><path class="cls-15" d="M893.66,171.72s-47.58,4.39-84.55,39.9"/><text class="cls-16" transform="translate(893.65 163.23)">En el movimiento circular uniforme,<tspan x="1.36" y="20.06">la aceleración instantánea siempre</tspan><tspan x="48.28" y="40.12">apunta hacia el centro</tspan><tspan x="90.12" y="60.18">del círculo.</tspan></text><circle cx="762.04" cy="198.2" r="7.31"/><polygon class="cls-17" points="804.61 205.06 808.11 205.06 808.11 213.3 816.35 213.3 816.35 216.8 804.61 216.8 804.61 205.06"/></svg>