<svg id="Capa_1" data-name="Capa 1" xmlns="http://www.w3.org/2000/svg" viewBox="0 0 986.74 444.73"><defs><style>.cls-1{fill:#e39d40;}.cls-13,.cls-15,.cls-19,.cls-2,.cls-20,.cls-21,.cls-25,.cls-27,.cls-3,.cls-4,.cls-5{fill:none;}.cls-19,.cls-2,.cls-21,.cls-25,.cls-3,.cls-5{stroke:#000;}.cls-13,.cls-15,.cls-19,.cls-2,.cls-20,.cls-21,.cls-27,.cls-3,.cls-4,.cls-5{stroke-miterlimit:10;}.cls-3{stroke-dasharray:5.18 5.18;}.cls-13,.cls-15,.cls-27,.cls-4{stroke:#40a7e3;}.cls-13,.cls-15,.cls-20,.cls-21,.cls-25,.cls-27,.cls-4,.cls-5{stroke-linecap:round;}.cls-13,.cls-15,.cls-4{stroke-width:2px;}.cls-20,.cls-5{stroke-width:3px;}.cls-6{font-size:31.2px;}.cls-17,.cls-22,.cls-26,.cls-28,.cls-6,.cls-8{font-family:Arial-ItalicMT, Arial;font-style:italic;}.cls-7{font-size:18.2px;}.cls-8{font-size:15.57px;}.cls-10,.cls-11,.cls-9{font-size:9.08px;}.cls-10{letter-spacing:0em;}.cls-11{letter-spacing:0em;}.cls-12{letter-spacing:0em;}.cls-13{stroke-dasharray:4.92 4.92;}.cls-14{fill:#61c5ff;}.cls-15,.cls-19,.cls-25{stroke-dasharray:5;}.cls-16{fill:#40a7e3;}.cls-17{font-size:17.84px;}.cls-18{font-size:10.41px;}.cls-20{stroke:#006098;}.cls-22,.cls-29,.cls-31{font-size:20.42px;}.cls-23,.cls-30{font-size:11.91px;}.cls-24,.cls-28{font-size:15.92px;}.cls-24{letter-spacing:0em;}.cls-25{stroke-linejoin:round;}.cls-26{font-size:12.24px;}.cls-27{stroke-width:0.75px;stroke-dasharray:3;}.cls-30{letter-spacing:0em;}.cls-31{letter-spacing:0em;}</style></defs><title>aceleracionmovimiento_velocidadparticula</title><rect class="cls-1" x="64.34" y="209.13" width="363.33" height="139.98"/><line class="cls-2" x1="427.99" y1="345.47" x2="427.99" y2="342.97"/><line class="cls-3" x1="427.99" y1="337.79" x2="427.99" y2="215.99"/><line class="cls-2" x1="427.99" y1="213.4" x2="427.99" y2="210.9"/><line class="cls-4" x1="66.43" y1="209.6" x2="467.93" y2="209.6"/><line class="cls-5" x1="65.67" y1="69.85" x2="65.67" y2="385.58"/><line class="cls-5" x1="25.56" y1="348.06" x2="514.69" y2="348.06"/><text class="cls-6" transform="translate(37.86 377.92)">0</text><text class="cls-6" transform="translate(28.92 214.63)">a<tspan class="cls-7" x="17.35" y="0">x</tspan></text><text class="cls-6" transform="translate(56.93 56.25)">a<tspan class="cls-7" x="17.35" y="0">x</tspan></text><text class="cls-6" transform="translate(423.99 387.46)">t</text><text class="cls-6" transform="translate(525.68 358.57)">t</text><text class="cls-8" transform="translate(256.59 141.77)">Aceleración constante: la gráfica a<tspan class="cls-9" x="237.97" y="0">x </tspan><tspan x="245.04" y="0">-t es una </tspan><tspan x="0" y="18.68">línea horizontal (pendiente=0) </tspan></text><text class="cls-8" transform="translate(106 379.75)">El área bajo la gráfica a<tspan class="cls-10" x="163.56" y="0">x </tspan><tspan x="170.62" y="0">-t es V</tspan><tspan class="cls-10" x="215.61" y="0">x </tspan><tspan x="222.67" y="0">- V</tspan><tspan class="cls-11" x="242.56" y="0">0x </tspan><tspan class="cls-12" x="254.68" y="0">=</tspan><tspan x="-21.72" y="18.68">cambio de velocidad del tiempo 0 al tiempo t</tspan></text><line class="cls-4" x1="441.99" y1="166.12" x2="441.99" y2="168.62"/><line class="cls-13" x1="441.99" y1="173.54" x2="441.99" y2="190.76"/><line class="cls-4" x1="441.99" y1="193.22" x2="441.99" y2="195.72"/><polygon class="cls-14" points="442.31 204.32 450.25 195.51 434.37 195.51 442.31 204.32"/><line class="cls-15" x1="250.99" y1="360.18" x2="250.99" y2="322.07"/><polygon class="cls-14" points="251.47 317.81 243.53 326.63 259.41 326.63 251.47 317.81"/><polygon class="cls-14" points="652.11 271.41 828.34 182.27 828.1 271.67 652.11 271.41"/><rect class="cls-16" x="653.23" y="271.36" width="174.56" height="47.39"/><text class="cls-17" transform="translate(611.59 372.3)">El área total bajo la gráfica a<tspan class="cls-18" x="226.14" y="0">x </tspan><tspan x="234.23" y="0">-t es x - x</tspan><tspan class="cls-18" x="307.59" y="0">0 </tspan><tspan x="316.27" y="0">=</tspan><tspan x="5.14" y="21.41">cambio en la coordenada x del tiempo 0</tspan><tspan x="122.19" y="42.82">al tiempo t</tspan></text><line class="cls-5" x1="652.93" y1="153.69" x2="652.93" y2="342.34"/><line class="cls-5" x1="889.97" y1="319.5" x2="632.96" y2="319.5"/><polyline class="cls-19" points="652.51 181.84 827.4 181.84 827.4 317.74"/><line class="cls-19" x1="650.19" y1="270.81" x2="826.83" y2="270.81"/><line class="cls-20" x1="636.19" y1="279.31" x2="845.29" y2="173.34"/><line class="cls-21" x1="840.31" y1="181.49" x2="883.42" y2="181.49"/><line class="cls-21" x1="874.04" y1="182.68" x2="874.04" y2="240.66"/><line class="cls-21" x1="851.3" y1="182.68" x2="851.3" y2="223.61"/><polyline class="cls-21" points="856.49 192.03 851.24 181.25 845.85 191.06"/><polyline class="cls-21" points="878.88 192.03 873.63 181.25 868.24 191.06"/><line class="cls-21" x1="851.09" y1="240.09" x2="851.09" y2="287.47"/><line class="cls-21" x1="873.54" y1="260.77" x2="873.54" y2="317.53"/><line class="cls-21" x1="850.88" y1="305.33" x2="850.88" y2="318.24"/><line class="cls-21" x1="841.54" y1="271.38" x2="861.7" y2="271.38"/><polyline class="cls-21" points="845.75 281 850.89 271.8 855.9 280.73"/><text class="cls-22" transform="translate(623.17 191.49)">V<tspan class="cls-23" x="13.62" y="0">x </tspan></text><text class="cls-22" transform="translate(841.3 237.35)">a<tspan class="cls-23" x="11.36" y="0">x</tspan><tspan class="cls-24" x="17.32" y="0">t</tspan></text><text class="cls-22" transform="translate(867.2 257.06)">v<tspan class="cls-23" x="10.21" y="0">x</tspan></text><text class="cls-22" transform="translate(645.4 147.05)">V<tspan class="cls-23" x="13.62" y="0">x </tspan></text><text class="cls-22" transform="translate(619.02 269.42)">V<tspan class="cls-23" x="13.62" y="0">0x </tspan></text><text class="cls-22" transform="translate(840.35 304.29)">V<tspan class="cls-23" x="13.62" y="0">0x </tspan></text><text class="cls-22" transform="translate(631.58 342.8)">0</text><text class="cls-22" transform="translate(822.78 342.8)">t</text><text class="cls-22" transform="translate(895.17 324.99)">t</text><path class="cls-25" d="M745.8,304.18l-24,52.33s32.87-29.14,37.34-36.89c9.08-15.76,38.11-58,38.83-61.53"/><text class="cls-26" transform="matrix(0.89, -0.46, 0.46, 0.89, 670.5, 252.86)">Pendiente=Aceleración</text><path class="cls-27" d="M859.65,206.7s39.52-1.13,45.73-38.11"/><path class="cls-27" d="M699.59,163.23s-4.8,40.65,9.32,53.63"/><polygon class="cls-16" points="709.78 219.82 711.55 213.46 703.64 217.4 709.78 219.82"/><polygon points="799.17 255.98 793.22 258.82 801.38 262.19 799.17 255.98"/><polygon class="cls-16" points="855.21 206.85 860.26 211.09 859.95 202.26 855.21 206.85"/><polygon points="748.37 298.36 742.41 301.2 750.58 304.57 748.37 298.36"/><text class="cls-28" transform="translate(683.33 109.04)">Aceleración<tspan x="4.86" y="15.92">constante:</tspan><tspan x="-11.73" y="31.84">la gráfica </tspan><tspan class="cls-29" x="57.28" y="31.84">v</tspan><tspan class="cls-30" x="67.49" y="31.84">x </tspan><tspan class="cls-29" x="76.76" y="31.84">- t</tspan><tspan x="-4.43" y="47.75">es una recta </tspan></text><text class="cls-28" transform="translate(815.82 127)">Durante el intervalo t,<tspan x="3.54" y="15.92">la velocidad cambia </tspan><tspan x="1.81" y="31.84">como </tspan><tspan class="cls-31" x="45.16" y="31.84">v</tspan><tspan class="cls-23" x="55.37" y="31.84">x </tspan><tspan class="cls-29" x="64.64" y="31.84">- v</tspan><tspan class="cls-23" x="87.33" y="31.84">0x </tspan><tspan class="cls-29" x="103.22" y="31.84">= a</tspan><tspan class="cls-23" x="132.18" y="31.84">x</tspan><tspan class="cls-29" x="138.14" y="31.84">t.</tspan></text></svg>