<svg id="Capa_1" data-name="Capa 1" xmlns="http://www.w3.org/2000/svg" viewBox="0 0 969.36 316.81"><defs><style>.cls-1{fill:none;stroke:#000;stroke-miterlimit:10;}.cls-2{font-size:24.91px;}.cls-10,.cls-11,.cls-2,.cls-6,.cls-7,.cls-9{font-family:Arial-ItalicMT, Arial;font-style:italic;}.cls-3{fill:#2e8dbc;}.cls-4{fill:#40a7e3;}.cls-5{font-size:32px;}.cls-5,.cls-8{font-family:Arial-BoldMT, Arial;font-weight:700;}.cls-6{font-size:37.68px;}.cls-7{font-size:25.15px;}.cls-8{font-size:28.49px;}.cls-9{font-size:37.33px;}.cls-10{font-size:36.81px;}.cls-11{font-size:24.57px;}.cls-12{letter-spacing:-0.06em;}</style></defs><title>actividadejemplo1</title><polygon class="cls-1" points="68.32 12.19 56.79 40.31 79.86 40.31 68.32 12.19"/><text class="cls-2" transform="translate(102.52 39.45)">x = 2,3 - 0 = 2,3 m</text><polygon class="cls-1" points="68.32 56.74 56.79 84.86 79.86 84.86 68.32 56.74"/><text class="cls-2" transform="translate(101.64 85)">t = 1,0 - 0 = 1,0 s</text><polygon class="cls-1" points="68.03 114.7 56.79 142.11 79.28 142.11 68.03 114.7"/><text class="cls-2" transform="translate(101.17 141.27)">x = 57,5 - 9,2 = 48,3 m</text><polygon class="cls-1" points="68.03 158.12 56.79 185.53 79.28 185.53 68.03 158.12"/><text class="cls-2" transform="translate(99.15 185.68)">t = 5,0 - 2,0 = 3,0 s</text><path class="cls-3" d="M14,20.74,7,20a8.08,8.08,0,0,1,1.14-2.88,6.22,6.22,0,0,1,2.15-1.82A8.91,8.91,0,0,1,13,14.44a22.57,22.57,0,0,1,3.8-.31,30.79,30.79,0,0,1,5.28.37A6.82,6.82,0,0,1,25.42,16a5.37,5.37,0,0,1,1.47,2.28,8.27,8.27,0,0,1,.54,2.83v8.42a10.32,10.32,0,0,0,.17,2.1,8.93,8.93,0,0,0,.75,1.95H21.49A8,8,0,0,1,21,32.5a8.43,8.43,0,0,1-.25-1.21,9.46,9.46,0,0,1-2.85,2,11.83,11.83,0,0,1-4.51.79,7.47,7.47,0,0,1-5.17-1.58A5,5,0,0,1,6.4,28.58,5.08,5.08,0,0,1,7.67,25q1.28-1.41,4.7-2.08,4.11-.83,5.33-1.16a23.9,23.9,0,0,0,2.59-.87A2.59,2.59,0,0,0,19.73,19a2.83,2.83,0,0,0-1.95-.53,5.12,5.12,0,0,0-2.7.57A3.19,3.19,0,0,0,14,20.74Zm6.34,3.84c-1,.36-2.05.67-3.14,1a7.14,7.14,0,0,0-2.82,1.17A1.8,1.8,0,0,0,13.72,28a1.84,1.84,0,0,0,.6,1.41,2.57,2.57,0,0,0,1.77.55,4.51,4.51,0,0,0,2.27-.6A3.52,3.52,0,0,0,19.85,28a4.9,4.9,0,0,0,.44-2.22Z"/><path class="cls-3" d="M31.83,26.3h7.8v7.32h-7.8Z"/><path class="cls-3" d="M6.4,124.1h7.37v9.12a7.27,7.27,0,0,1,2.49-1.73,8,8,0,0,1,3.08-.57,7.45,7.45,0,0,1,5.76,2.5q2.28,2.51,2.28,7.19a13.7,13.7,0,0,1-1,5.5,7.83,7.83,0,0,1-2.88,3.55,7.4,7.4,0,0,1-4.09,1.18,7.51,7.51,0,0,1-3.51-.83,9.11,9.11,0,0,1-2.62-2.42v2.82H6.4Zm7.32,16.73a5.52,5.52,0,0,0,.93,3.56,2.92,2.92,0,0,0,2.34,1.1,2.71,2.71,0,0,0,2.19-1.09,5.76,5.76,0,0,0,.89-3.65,5.21,5.21,0,0,0-.87-3.32,2.65,2.65,0,0,0-2.1-1.06,3.05,3.05,0,0,0-2.44,1.11A5,5,0,0,0,13.72,140.83Z"/><path class="cls-3" d="M30.89,143.09H38.7v7.32H30.89Z"/><polygon class="cls-1" points="68.38 227.25 56.79 255.52 79.98 255.52 68.38 227.25"/><text class="cls-2" transform="translate(105.11 254.65)">x = 57,5 - 0 = 57,5 m</text><polygon class="cls-1" points="68.38 272.03 56.79 300.3 79.98 300.3 68.38 272.03"/><text class="cls-2" transform="translate(102.38 300.45)">t = 5,0 - 0 = 5,0 s</text><path class="cls-3" d="M21.49,249.92l6.94.79a9.79,9.79,0,0,1-1.88,3.76,8.63,8.63,0,0,1-3.35,2.46,13,13,0,0,1-5.17.88,19.43,19.43,0,0,1-5.06-.56,9,9,0,0,1-3.47-1.83,9.16,9.16,0,0,1-2.28-3,10.44,10.44,0,0,1-.82-4.52,10.62,10.62,0,0,1,1-4.89,8.8,8.8,0,0,1,2-2.57,9.23,9.23,0,0,1,2.62-1.7,14.68,14.68,0,0,1,5.48-.88q4.66,0,7.11,1.67a8.86,8.86,0,0,1,3.44,4.88l-6.88.92A3.15,3.15,0,0,0,20,243.52a3.84,3.84,0,0,0-2.29-.62,3.66,3.66,0,0,0-2.93,1.3,5.89,5.89,0,0,0-1.12,3.93,5.14,5.14,0,0,0,1.11,3.57,3.65,3.65,0,0,0,2.83,1.21,3.91,3.91,0,0,0,2.42-.73A4.4,4.4,0,0,0,21.49,249.92Z"/><path class="cls-3" d="M31.81,250.06h7.8v7.32h-7.8Z"/><polygon class="cls-4" points="396.46 65.23 514.92 65.23 514.92 76.8 537.71 63.64 514.92 50.49 514.92 62.05 396.46 62.05 396.46 65.23"/><polygon class="cls-4" points="396.46 162.02 514.92 162.02 514.92 173.59 537.71 160.44 514.92 147.28 514.92 158.85 396.46 158.85 396.46 162.02"/><polygon class="cls-4" points="396.46 264.55 514.92 264.55 514.92 276.12 537.71 262.97 514.92 249.81 514.92 261.38 396.46 261.38 396.46 264.55"/><text class="cls-5" transform="translate(576.69 87.92)">V</text><text class="cls-2" transform="translate(611.3 84.54)">med-x</text><text class="cls-6" transform="translate(711.35 74.05)">=</text><text class="cls-6" transform="translate(834.06 74.05)">=</text><line class="cls-1" x1="741.22" y1="60.02" x2="822.59" y2="60.02"/><text class="cls-7" transform="translate(746.86 51.04)">2,3 m</text><text class="cls-8" transform="translate(868.22 66.89)">2,3</text><text class="cls-7" transform="translate(751.05 88.31)">1,0 s</text><text class="cls-8" transform="translate(918.58 52.63)">m</text><text class="cls-8" transform="translate(923.04 78.67)">s</text><text class="cls-5" transform="translate(576.69 173.74)">V</text><text class="cls-2" transform="translate(611.3 170.36)">med-x</text><text class="cls-9" transform="translate(711.35 173.63)">=</text><text class="cls-9" transform="translate(832.97 173.63)">=</text><line class="cls-1" x1="740.95" y1="159.73" x2="821.55" y2="159.73"/><text class="cls-2" transform="translate(739.61 150.84)">48,3 m</text><text class="cls-8" transform="translate(858.71 166.54)">16,1</text><text class="cls-2" transform="translate(750.68 187.76)">3,0 s</text><text class="cls-8" transform="translate(918.77 152.41)">m</text><text class="cls-8" transform="translate(923.23 178.21)">s</text><text class="cls-5" transform="translate(576.69 268.17)">V</text><text class="cls-2" transform="translate(611.3 264.78)">med-x</text><text class="cls-10" transform="translate(711.35 283.17)">=</text><text class="cls-10" transform="translate(831.39 283.17)">=</text><line class="cls-1" x1="740.54" y1="269.46" x2="820.03" y2="269.46"/><text class="cls-11" transform="translate(739.22 259.81)">57,5 m</text><text class="cls-8" transform="translate(857.17 276.17)"><tspan class="cls-12">1</tspan><tspan x="14.27" y="0">1,5</tspan></text><text class="cls-11" transform="translate(750.14 297.1)">5,0 s</text><text class="cls-8" transform="translate(919.06 262.24)">m</text><text class="cls-8" transform="translate(923.52 287.68)">s</text></svg>