<svg id="Capa_1" data-name="Capa 1" xmlns="http://www.w3.org/2000/svg" viewBox="0 0 1164.71 631.2"><defs><style>.cls-1,.cls-7{font-size:51.01px;}.cls-1,.cls-6{font-family:CambriaMath, Cambria Math;}.cls-2{letter-spacing:0em;}.cls-3{letter-spacing:0em;}.cls-4{letter-spacing:0em;}.cls-5{letter-spacing:0em;}.cls-6{font-size:36.68px;}.cls-7{font-family:ArialMT, Arial;}</style></defs><title>datos</title><path d="M52.24,62.38,52,63.6a3.11,3.11,0,0,0-1.7.65,2.78,2.78,0,0,0-.86,1.46,9.87,9.87,0,0,0-.25,2.5c0,.25,0,1,.07,2.24l.7,18.24v2h.25L61,71.23a23.49,23.49,0,0,0,1.41-3,6.07,6.07,0,0,0,.48-2.17c0-1.4-.83-2.23-2.49-2.5l.27-1.22H70.82l-.28,1.22a3.13,3.13,0,0,0-1.28.52,6.64,6.64,0,0,0-1.37,1.36,38.11,38.11,0,0,0-2.35,3.7L49.6,96.78H46.28L44.62,69a17.41,17.41,0,0,0-.37-2.78,4,4,0,0,0-.82-1.8,2.77,2.77,0,0,0-1.78-.83l.28-1.22Z"/><path d="M76.51,106.7l.27-1.09a6,6,0,0,0,.89-.23,1.39,1.39,0,0,0,.63-.44,2.24,2.24,0,0,0,.39-.85,6,6,0,0,0,.13-1.4c0-.22,0-.46,0-.75s0-.57,0-.88,0-.63-.07-1-.06-.65-.08-1h-8l-.81,1.26c-.27.43-.52.85-.74,1.26a8.15,8.15,0,0,0-.53,1.23,3.86,3.86,0,0,0-.19,1.2c0,.87.64,1.37,1.91,1.52L70,106.7H62.16l.2-1.09a3.29,3.29,0,0,0,.87-.28,3.5,3.5,0,0,0,.81-.59,8,8,0,0,0,.91-1.09c.33-.46.72-1.07,1.19-1.82L77.68,83.16h2.95l1.63,18.94a10.5,10.5,0,0,0,.22,1.54,3.58,3.58,0,0,0,.43,1,1.73,1.73,0,0,0,.67.62,2.93,2.93,0,0,0,1,.31l-.27,1.09Zm1.24-19.61q-1.56,2.53-3.09,5.09T71.57,97.3h6.89q-.09-1.15-.18-2.25c-.06-.74-.1-1.51-.14-2.32s-.07-1.68-.1-2.6,0-1.93,0-3Z"/><text class="cls-1" transform="translate(102.72 96.38)">=</text><text class="cls-1" transform="translate(154.85 96.38)">120</text><path d="M261.22,47.53a4.65,4.65,0,0,0-.49-1.34,1.24,1.24,0,0,0-.58-.5,3.3,3.3,0,0,0-1.14-.13h-1.72L254.7,57.77h-4.31l6.4-28.47c.22-1,.37-1.72.46-2.26a8.81,8.81,0,0,0,.14-1.43,1.62,1.62,0,0,0-.64-1.47,4.62,4.62,0,0,0-2.28-.47l.3-1.3,6.31-.22h1.44l-4.88,21.74h.79a7.53,7.53,0,0,0,4.2-1.63,27.89,27.89,0,0,0,3.73-3,4,4,0,0,0,1.39-2.69c0-.82-.56-1.27-1.69-1.37l.27-1.22h8.07l.47,1.22c-1.37,1.24-2.84,2.46-4.38,3.66l-6.18,4.78,2.44,9a10.36,10.36,0,0,0,.54,1.66,2.1,2.1,0,0,0,.55.76,1.32,1.32,0,0,0,.83.25,2.77,2.77,0,0,0,1.55-.7,16.52,16.52,0,0,0,2-2l1.42,1.4A21.36,21.36,0,0,1,270,57.24a5.33,5.33,0,0,1-2.84.93,3.71,3.71,0,0,1-2.69-1,6.68,6.68,0,0,1-1.57-3.2Zm25.94-7.25a20.33,20.33,0,0,1,4.56-5.07,7.74,7.74,0,0,1,4.59-1.65,4.69,4.69,0,0,1,3.63,1.35,5.64,5.64,0,0,1,1.25,3.93v.35a2.51,2.51,0,0,1,0,.37A18.21,18.21,0,0,1,305.43,35a7.64,7.64,0,0,1,4.43-1.48,4.62,4.62,0,0,1,3.53,1.32,5.19,5.19,0,0,1,1.25,3.71,20,20,0,0,1-.72,4.46l-1.62,6.52a18.77,18.77,0,0,0-.68,3.84,2.47,2.47,0,0,0,.33,1.44,1.16,1.16,0,0,0,1,.45,2.72,2.72,0,0,0,1.59-.61A17.19,17.19,0,0,0,317,52.36l1.42,1.4a23.71,23.71,0,0,1-3.73,3.34A6.41,6.41,0,0,1,311,58.17,3.22,3.22,0,0,1,308.41,57a4.42,4.42,0,0,1-1-2.95,20.46,20.46,0,0,1,.82-4.76l1.1-4.31c.4-1.56.66-2.72.78-3.46a11.1,11.1,0,0,0,.19-1.82,4.2,4.2,0,0,0-.57-2.48,2.2,2.2,0,0,0-1.87-.76,4.06,4.06,0,0,0-2.24.79,11.1,11.1,0,0,0-2.52,2.44A19.65,19.65,0,0,0,301,43a15.88,15.88,0,0,0-1.34,3.92l-2.26,10.89h-4.31l2.86-12.66c.35-1.54.59-2.68.71-3.42a11.15,11.15,0,0,0,.19-1.91,4,4,0,0,0-.64-2.55,2.42,2.42,0,0,0-2-.76,4,4,0,0,0-2.15.79,11.26,11.26,0,0,0-2.58,2.51,18.14,18.14,0,0,0-2.14,3.33A17.94,17.94,0,0,0,286,47l-2.36,10.79h-4.31L283,42a18.2,18.2,0,0,0,.54-3.69,2.59,2.59,0,0,0-.32-1.45,1.2,1.2,0,0,0-1-.44,2.78,2.78,0,0,0-1.63.63,17.7,17.7,0,0,0-2.36,2.31l-1.42-1.4a24.09,24.09,0,0,1,3.78-3.35,6.14,6.14,0,0,1,3.47-1.06,3.14,3.14,0,0,1,2.48,1,3.92,3.92,0,0,1,.91,2.7,8.42,8.42,0,0,1-.57,2.91Z"/><text class="cls-1" transform="translate(269.32 130.56)">ℎ</text><rect x="248.11" y="80.33" width="71.65" height="3.25"/><text class="cls-1" transform="translate(333.89 96.38)">=</text><text class="cls-1" transform="translate(386.23 96.38)">33</text><text class="cls-1" transform="translate(442.8 96.38)">,</text><text class="cls-1" transform="translate(453.31 96.38)"><tspan class="cls-2">3</tspan><tspan x="28.14" y="0">3</tspan></text><path d="M528.85,40.28a20.33,20.33,0,0,1,4.56-5.07A7.73,7.73,0,0,1,538,33.56a4.72,4.72,0,0,1,3.64,1.35,5.63,5.63,0,0,1,1.24,3.93v.35c0,.11,0,.24,0,.37A18.21,18.21,0,0,1,547.12,35a7.61,7.61,0,0,1,4.42-1.48,4.63,4.63,0,0,1,3.54,1.32,5.18,5.18,0,0,1,1.24,3.71,20,20,0,0,1-.72,4.46L554,49.57a18.55,18.55,0,0,0-.67,3.84,2.56,2.56,0,0,0,.32,1.44,1.18,1.18,0,0,0,1,.45,2.77,2.77,0,0,0,1.6-.61,17.77,17.77,0,0,0,2.39-2.33l1.42,1.4a23.71,23.71,0,0,1-3.74,3.34,6.38,6.38,0,0,1-3.63,1.07A3.21,3.21,0,0,1,550.1,57a4.43,4.43,0,0,1-1-2.95A20.6,20.6,0,0,1,550,49.3L551,45c.4-1.56.66-2.72.79-3.46a12.1,12.1,0,0,0,.18-1.82,4.2,4.2,0,0,0-.57-2.48,2.17,2.17,0,0,0-1.87-.76,4.12,4.12,0,0,0-2.24.79,11.08,11.08,0,0,0-2.51,2.44A19.74,19.74,0,0,0,542.66,43a15.49,15.49,0,0,0-1.33,3.92l-2.27,10.89h-4.31l2.87-12.66c.35-1.54.58-2.68.71-3.42a12.12,12.12,0,0,0,.18-1.91,4,4,0,0,0-.63-2.55,2.44,2.44,0,0,0-2-.76,4.08,4.08,0,0,0-2.16.79,11.44,11.44,0,0,0-2.57,2.51A18.23,18.23,0,0,0,529,43.1,18.53,18.53,0,0,0,527.73,47l-2.37,10.79h-4.31L524.69,42a18.37,18.37,0,0,0,.55-3.69,2.5,2.5,0,0,0-.33-1.45,1.18,1.18,0,0,0-1-.44,2.8,2.8,0,0,0-1.63.63,17.77,17.77,0,0,0-2.35,2.31l-1.42-1.4a24.56,24.56,0,0,1,3.77-3.35,6.17,6.17,0,0,1,3.48-1.06,3.12,3.12,0,0,1,2.47,1,3.92,3.92,0,0,1,.91,2.7,8.42,8.42,0,0,1-.57,2.91Z"/><path d="M546.06,112.8a5.46,5.46,0,0,0-1.46-3.36,5.21,5.21,0,0,0-3.72-1.15,4.84,4.84,0,0,0-3.19,1,3.25,3.25,0,0,0-1.22,2.65,3.79,3.79,0,0,0,.31,1.59A4.68,4.68,0,0,0,538,115a21.81,21.81,0,0,0,2.94,2,21.61,21.61,0,0,1,2.51,1.73,8.65,8.65,0,0,1,1.5,1.56,5.34,5.34,0,0,1,.79,1.63,7.4,7.4,0,0,1,.25,2.08,6.16,6.16,0,0,1-1.18,3.8,7,7,0,0,1-3.21,2.35A12.88,12.88,0,0,1,537,131a26.05,26.05,0,0,1-4.06-.31,31.41,31.41,0,0,1-4.43-1.06l1.2-5.43h1.94A5.2,5.2,0,0,0,533,127.8a5.51,5.51,0,0,0,4,1.22,5.82,5.82,0,0,0,3.7-1.06,3.62,3.62,0,0,0,1.34-3,4.55,4.55,0,0,0-.38-1.93,4.76,4.76,0,0,0-1.22-1.56,19.72,19.72,0,0,0-2.69-1.87,21.09,21.09,0,0,1-3-2.12,6.62,6.62,0,0,1-1.64-2,6.2,6.2,0,0,1,.52-6,6.62,6.62,0,0,1,3-2.28,12.17,12.17,0,0,1,4.58-.8,30.3,30.3,0,0,1,4.23.27,20,20,0,0,1,3.79.95l-1.12,5.23Z"/><rect x="517.88" y="80.33" width="43.56" height="3.25"/><text class="cls-1" transform="translate(570.03 96.38)"><tspan xml:space="preserve">    </tspan><tspan class="cls-3" x="44.93" y="0"> </tspan><tspan x="56.01" y="0" xml:space="preserve">   </tspan><tspan class="cls-4" x="89.71" y="0"> </tspan><tspan class="cls-5" x="100.79" y="0" xml:space="preserve">   </tspan><tspan class="cls-4" x="134.5" y="0"> </tspan><tspan x="145.58" y="0" xml:space="preserve">  </tspan><tspan class="cls-3" x="168.04" y="0"> </tspan><tspan x="179.12" y="0" xml:space="preserve">    </tspan></text><path d="M815.93,73.79l2.29-1.64,1.6.4-3.66,15.79a17.24,17.24,0,0,0-.55,3.68,2.57,2.57,0,0,0,.32,1.45,1.18,1.18,0,0,0,1,.45,2.85,2.85,0,0,0,1.6-.61A18.43,18.43,0,0,0,820.94,91l1.42,1.39a21.34,21.34,0,0,1-3.83,3.4,6.16,6.16,0,0,1-3.42,1,3.18,3.18,0,0,1-2.47-1,3.9,3.9,0,0,1-.92-2.71,8.23,8.23,0,0,1,.58-2.92L812,90a21.76,21.76,0,0,1-4.53,5.11,7.4,7.4,0,0,1-4.53,1.62,4.94,4.94,0,0,1-4.25-2.07,9.67,9.67,0,0,1-1.51-5.8,20.87,20.87,0,0,1,1.68-8.24,15.21,15.21,0,0,1,4.62-6.22A10.44,10.44,0,0,1,810,72.15a12.22,12.22,0,0,1,3,.36A10.56,10.56,0,0,1,815.93,73.79Zm-2.19,7.42a15.84,15.84,0,0,0,.3-1.76c.05-.5.07-1,.07-1.62a4.08,4.08,0,0,0-.82-2.82,3.65,3.65,0,0,0-2.79-.89,6.33,6.33,0,0,0-4.61,2.06,13.94,13.94,0,0,0-3.18,5.55,21.79,21.79,0,0,0-1.15,6.93,8.32,8.32,0,0,0,.71,3.88,2.51,2.51,0,0,0,2.38,1.28,4.85,4.85,0,0,0,3.22-1.42,19.72,19.72,0,0,0,3.27-4.05,17.74,17.74,0,0,0,2.38-6.06Z"/><path d="M835,106.7l.27-1.09a5.59,5.59,0,0,0,.88-.23,1.37,1.37,0,0,0,.64-.44,2.23,2.23,0,0,0,.38-.85,5.93,5.93,0,0,0,.14-1.4c0-.22,0-.46,0-.75s0-.57,0-.88,0-.63-.07-1,0-.65-.08-1h-8c-.28.41-.55.83-.82,1.26s-.51.85-.73,1.26a7.25,7.25,0,0,0-.53,1.23,3.87,3.87,0,0,0-.2,1.2c0,.87.64,1.37,1.92,1.52l-.23,1.09h-7.83l.2-1.09a3.29,3.29,0,0,0,.87-.28,3.47,3.47,0,0,0,.8-.59,8,8,0,0,0,.92-1.09c.32-.46.72-1.07,1.19-1.82l11.53-18.67h3l1.63,18.94a9.3,9.3,0,0,0,.22,1.54,3.32,3.32,0,0,0,.42,1,1.8,1.8,0,0,0,.67.62,3,3,0,0,0,1,.31l-.26,1.09Zm1.23-19.61q-1.56,2.53-3.09,5.09t-3.09,5.12H837q-.09-1.15-.18-2.25c-.06-.74-.11-1.51-.14-2.32s-.07-1.68-.1-2.6,0-1.93,0-3Z"/><text class="cls-1" transform="translate(861.2 96.38)">=</text><text class="cls-1" transform="translate(913.34 96.38)">−</text><text class="cls-1" transform="translate(951.34 96.38)">5</text><text class="cls-1" transform="translate(979.6 96.38)"> </text><path d="M1001.83,78.9a20,20,0,0,1,4.56-5.07,7.75,7.75,0,0,1,4.58-1.66,4.71,4.71,0,0,1,3.64,1.36,5.61,5.61,0,0,1,1.25,3.92v.35a2.64,2.64,0,0,1,0,.38,18.28,18.28,0,0,1,4.27-4.53,7.71,7.71,0,0,1,4.42-1.48,4.63,4.63,0,0,1,3.54,1.32,5.2,5.2,0,0,1,1.25,3.71,20,20,0,0,1-.73,4.46L1027,88.19a19.33,19.33,0,0,0-.67,3.83,2.48,2.48,0,0,0,.33,1.45,1.16,1.16,0,0,0,1,.45,2.82,2.82,0,0,0,1.59-.61,17.81,17.81,0,0,0,2.39-2.33l1.42,1.39a23.65,23.65,0,0,1-3.73,3.34,6.43,6.43,0,0,1-3.64,1.07,3.19,3.19,0,0,1-2.59-1.16,4.41,4.41,0,0,1-1-3,20.54,20.54,0,0,1,.82-4.76l1.1-4.3c.39-1.57.66-2.72.78-3.47a12.09,12.09,0,0,0,.19-1.81,4.1,4.1,0,0,0-.58-2.48,2.17,2.17,0,0,0-1.86-.76,4.18,4.18,0,0,0-2.25.78,11.52,11.52,0,0,0-2.51,2.44,20.46,20.46,0,0,0-2.16,3.27,15.75,15.75,0,0,0-1.33,3.92L1012,96.38h-4.3l2.86-12.65c.35-1.54.59-2.69.71-3.42a12.38,12.38,0,0,0,.19-1.91,4,4,0,0,0-.64-2.55,2.42,2.42,0,0,0-2-.76,4.08,4.08,0,0,0-2.15.78,11.12,11.12,0,0,0-2.58,2.52,16.14,16.14,0,0,0-3.44,7.21l-2.37,10.78H994l3.63-15.79a17.5,17.5,0,0,0,.55-3.68,2.57,2.57,0,0,0-.32-1.45,1.18,1.18,0,0,0-1-.45,2.78,2.78,0,0,0-1.64.64,18.17,18.17,0,0,0-2.35,2.3l-1.42-1.39a24,24,0,0,1,3.77-3.35,6.12,6.12,0,0,1,3.48-1.06,3.14,3.14,0,0,1,2.48,1,4,4,0,0,1,.91,2.7,8.23,8.23,0,0,1-.58,2.92Z"/><text class="cls-1" transform="translate(1034.44 96.38)">/</text><path d="M1078.26,78.62a5.45,5.45,0,0,0-1.45-3.36,5.22,5.22,0,0,0-3.73-1.14,4.87,4.87,0,0,0-3.19,1,3.3,3.3,0,0,0-1.22,2.66,3.78,3.78,0,0,0,.32,1.58,4.65,4.65,0,0,0,1.25,1.51,21.93,21.93,0,0,0,2.94,2,21,21,0,0,1,2.52,1.73,8.54,8.54,0,0,1,1.49,1.56,5.49,5.49,0,0,1,.8,1.63,7.45,7.45,0,0,1,.25,2.08,6.21,6.21,0,0,1-1.18,3.8,6.93,6.93,0,0,1-3.22,2.35,12.79,12.79,0,0,1-4.62.78,27.23,27.23,0,0,1-4.06-.31,34.07,34.07,0,0,1-4.43-1.06l1.19-5.43h1.95a5.12,5.12,0,0,0,1.34,3.61,5.51,5.51,0,0,0,4,1.22,5.78,5.78,0,0,0,3.7-1.06,3.62,3.62,0,0,0,1.33-3,4.55,4.55,0,0,0-.37-1.93,4.9,4.9,0,0,0-1.22-1.56,20.39,20.39,0,0,0-2.69-1.87,22.18,22.18,0,0,1-3-2.11,6.77,6.77,0,0,1-1.63-2.06,5.76,5.76,0,0,1-.55-2.55,5.83,5.83,0,0,1,1.06-3.45,6.71,6.71,0,0,1,3-2.28,12.17,12.17,0,0,1,4.58-.8,28.62,28.62,0,0,1,4.22.28,19.36,19.36,0,0,1,3.8.94l-1.12,5.23Z"/><text class="cls-6" transform="translate(1085.31 77.66)">2</text><text class="cls-7" transform="translate(1108.62 96.38)"> </text><text class="cls-7" transform="translate(39.26 187.54)"> </text><text class="cls-7" transform="translate(39.26 254.98)"> </text><path d="M52.24,322.22,52,323.44a3,3,0,0,0-1.7.65,2.71,2.71,0,0,0-.86,1.45,10,10,0,0,0-.25,2.51c0,.25,0,1,.07,2.24l.7,18.23v2h.25L61,331.06a24.12,24.12,0,0,0,1.41-2.95,6.12,6.12,0,0,0,.48-2.18q0-2.1-2.49-2.49l.27-1.22H70.82l-.28,1.22a3.11,3.11,0,0,0-1.28.51,6.48,6.48,0,0,0-1.37,1.37,36.85,36.85,0,0,0-2.35,3.7L49.6,356.62H46.28l-1.66-27.78a17.27,17.27,0,0,0-.37-2.77,4,4,0,0,0-.82-1.81,2.76,2.76,0,0,0-1.78-.82l.28-1.22Z"/><path d="M65.88,365.44a7.19,7.19,0,0,0,.91-.2,1.28,1.28,0,0,0,.62-.51,3.9,3.9,0,0,0,.52-1.15c.15-.51.33-1.24.53-2.19l2.94-13.05c.12-.53.21-1,.27-1.4a7.17,7.17,0,0,0,.09-1,1.47,1.47,0,0,0-.4-1.15,2.49,2.49,0,0,0-1.52-.36l.27-1.13H79.5a16.3,16.3,0,0,1,3.55.34,7.17,7.17,0,0,1,2.4,1,3.84,3.84,0,0,1,1.36,1.55,4.84,4.84,0,0,1,.42,2.07c0,2.93-1.84,5-5.53,6.21a.66.66,0,0,1,0,.15.25.25,0,0,0,0,.08,5.79,5.79,0,0,1,2.53,1.83,4.43,4.43,0,0,1,.86,2.69,7.2,7.2,0,0,1-.64,3.07,5.79,5.79,0,0,1-2,2.29,9.88,9.88,0,0,1-3.4,1.45,21.2,21.2,0,0,1-5,.51h-8.4Zm5.38-.8,1.08,0,1.55,0a14.79,14.79,0,0,0,3.34-.33,6.1,6.1,0,0,0,2.33-1,4.14,4.14,0,0,0,1.36-1.84,7.49,7.49,0,0,0,.44-2.7,3.83,3.83,0,0,0-.25-1.45,2.42,2.42,0,0,0-.83-1.05,4.16,4.16,0,0,0-1.49-.63,10.62,10.62,0,0,0-2.21-.2H73.3Zm5.24-11.06a13,13,0,0,0,3.31-.36A6,6,0,0,0,82,352.17a4,4,0,0,0,1.23-1.64,5.69,5.69,0,0,0,.39-2.16,4,4,0,0,0-.31-1.38,2.42,2.42,0,0,0-.85-1,4.32,4.32,0,0,0-1.5-.61,10.43,10.43,0,0,0-2.25-.2c-.58,0-1.12,0-1.64,0s-1,.05-1.5.1l-1.84,8.29Z"/><text class="cls-1" transform="translate(106.54 356.22)">=</text><text class="cls-1" transform="translate(158.67 356.22)">40</text><path d="M236.73,307.36a4.91,4.91,0,0,0-.49-1.34,1.24,1.24,0,0,0-.58-.5,3.65,3.65,0,0,0-1.14-.12H232.8l-2.59,12.2H225.9l6.4-28.47c.22-1,.37-1.71.46-2.25a8.92,8.92,0,0,0,.14-1.43,1.62,1.62,0,0,0-.64-1.47,4.6,4.6,0,0,0-2.28-.48l.3-1.29,6.3-.23H238l-4.88,21.75h.79a7.61,7.61,0,0,0,4.2-1.63,28.67,28.67,0,0,0,3.73-3,4,4,0,0,0,1.39-2.69c0-.81-.56-1.27-1.69-1.37l.27-1.22h8.07l.47,1.22c-1.37,1.25-2.84,2.47-4.38,3.66l-6.18,4.78,2.44,9a10.52,10.52,0,0,0,.54,1.65,2,2,0,0,0,.55.76,1.25,1.25,0,0,0,.83.25,2.7,2.7,0,0,0,1.55-.7,15.66,15.66,0,0,0,2-2l1.42,1.39a21.5,21.5,0,0,1-3.71,3.29,5.4,5.4,0,0,1-2.84.92,3.71,3.71,0,0,1-2.69-1,6.63,6.63,0,0,1-1.57-3.2Zm25.94-7.24a20,20,0,0,1,4.56-5.07,7.69,7.69,0,0,1,4.59-1.66,4.66,4.66,0,0,1,3.63,1.36,5.59,5.59,0,0,1,1.25,3.92V299a2.4,2.4,0,0,1,0,.37,18.39,18.39,0,0,1,4.27-4.52,7.71,7.71,0,0,1,4.43-1.48,4.62,4.62,0,0,1,3.53,1.32,5.2,5.2,0,0,1,1.25,3.71,20,20,0,0,1-.72,4.46l-1.62,6.53a18.81,18.81,0,0,0-.68,3.83,2.48,2.48,0,0,0,.33,1.45,1.16,1.16,0,0,0,1,.45,2.79,2.79,0,0,0,1.59-.61,17.81,17.81,0,0,0,2.39-2.33l1.42,1.39a23.21,23.21,0,0,1-3.73,3.34,6.43,6.43,0,0,1-3.64,1.07,3.22,3.22,0,0,1-2.59-1.16,4.41,4.41,0,0,1-1-2.95,20.54,20.54,0,0,1,.82-4.76l1.1-4.31c.4-1.56.66-2.71.78-3.46a11,11,0,0,0,.19-1.82,4.16,4.16,0,0,0-.57-2.47,2.2,2.2,0,0,0-1.87-.76,4.12,4.12,0,0,0-2.24.78,11.32,11.32,0,0,0-2.52,2.44,20.07,20.07,0,0,0-2.15,3.26,15.82,15.82,0,0,0-1.34,3.93l-2.26,10.88h-4.31L271.44,305c.35-1.55.59-2.69.71-3.43a11.14,11.14,0,0,0,.19-1.9,3.93,3.93,0,0,0-.64-2.55,2.42,2.42,0,0,0-2-.76,4.08,4.08,0,0,0-2.15.78,11.12,11.12,0,0,0-2.58,2.52,16.14,16.14,0,0,0-3.44,7.21l-2.36,10.78h-4.31l3.63-15.79a17.48,17.48,0,0,0,.55-3.69,2.56,2.56,0,0,0-.32-1.44,1.18,1.18,0,0,0-1-.45,2.73,2.73,0,0,0-1.63.64,17.48,17.48,0,0,0-2.36,2.3l-1.42-1.4a24.63,24.63,0,0,1,3.78-3.35,6.13,6.13,0,0,1,3.47-1.05,3.13,3.13,0,0,1,2.48,1,3.92,3.92,0,0,1,.91,2.7,8.43,8.43,0,0,1-.57,2.92Z"/><text class="cls-1" transform="translate(244.83 390.4)">ℎ</text><rect x="223.65" y="340.17" width="71.65" height="3.25"/><text class="cls-1" transform="translate(309.44 356.22)">=</text><text class="cls-1" transform="translate(361.57 356.22)">11</text><text class="cls-1" transform="translate(418.14 356.22)">,</text><text class="cls-1" transform="translate(428.65 356.22)">11</text><path d="M504.39,300.12a20,20,0,0,1,4.56-5.07,7.69,7.69,0,0,1,4.59-1.66,4.66,4.66,0,0,1,3.63,1.36,5.59,5.59,0,0,1,1.25,3.92V299a2.4,2.4,0,0,1,0,.37,18.39,18.39,0,0,1,4.27-4.52,7.71,7.71,0,0,1,4.43-1.48,4.62,4.62,0,0,1,3.53,1.32,5.2,5.2,0,0,1,1.25,3.71,20,20,0,0,1-.72,4.46l-1.62,6.53a18.81,18.81,0,0,0-.68,3.83,2.48,2.48,0,0,0,.33,1.45,1.16,1.16,0,0,0,1,.45,2.79,2.79,0,0,0,1.59-.61,17.81,17.81,0,0,0,2.39-2.33l1.42,1.39a23.21,23.21,0,0,1-3.73,3.34,6.43,6.43,0,0,1-3.64,1.07,3.22,3.22,0,0,1-2.59-1.16,4.41,4.41,0,0,1-1-2.95,20.54,20.54,0,0,1,.82-4.76l1.1-4.31c.4-1.56.66-2.71.78-3.46a11,11,0,0,0,.19-1.82,4.16,4.16,0,0,0-.57-2.47,2.2,2.2,0,0,0-1.87-.76,4.12,4.12,0,0,0-2.24.78,11.32,11.32,0,0,0-2.52,2.44,20.07,20.07,0,0,0-2.15,3.26,15.82,15.82,0,0,0-1.34,3.93l-2.26,10.88H510.3L513.16,305c.35-1.55.59-2.69.71-3.43a11.14,11.14,0,0,0,.19-1.9,3.93,3.93,0,0,0-.64-2.55,2.42,2.42,0,0,0-2-.76,4.08,4.08,0,0,0-2.15.78,11.12,11.12,0,0,0-2.58,2.52,16.14,16.14,0,0,0-3.44,7.21l-2.36,10.78H496.6l3.63-15.79a17.48,17.48,0,0,0,.55-3.69,2.56,2.56,0,0,0-.32-1.44,1.18,1.18,0,0,0-1-.45,2.73,2.73,0,0,0-1.63.64,17.48,17.48,0,0,0-2.36,2.3l-1.42-1.4a24.63,24.63,0,0,1,3.78-3.35,6.13,6.13,0,0,1,3.47-1.05,3.13,3.13,0,0,1,2.48,1,4,4,0,0,1,.91,2.7,8.43,8.43,0,0,1-.57,2.92Z"/><path d="M521.6,372.64a5.46,5.46,0,0,0-1.46-3.37,5.19,5.19,0,0,0-3.72-1.14,4.82,4.82,0,0,0-3.19,1,3.27,3.27,0,0,0-1.22,2.65,3.91,3.91,0,0,0,.31,1.58,4.84,4.84,0,0,0,1.26,1.51,21,21,0,0,0,2.94,2,21.76,21.76,0,0,1,2.52,1.74,8.53,8.53,0,0,1,1.49,1.55,5.49,5.49,0,0,1,.8,1.63,7.84,7.84,0,0,1,.25,2.08,6.15,6.15,0,0,1-1.19,3.8,7,7,0,0,1-3.21,2.36,13,13,0,0,1-4.62.77,27.23,27.23,0,0,1-4.06-.31,32.17,32.17,0,0,1-4.43-1.06l1.19-5.43h1.94a5.17,5.17,0,0,0,1.35,3.61,5.51,5.51,0,0,0,4,1.22,5.78,5.78,0,0,0,3.7-1.06,3.59,3.59,0,0,0,1.33-3,4.55,4.55,0,0,0-.37-1.93A4.9,4.9,0,0,0,516,381.3a20.52,20.52,0,0,0-2.69-1.86,21.51,21.51,0,0,1-3-2.12,6.62,6.62,0,0,1-1.63-2.06,5.63,5.63,0,0,1-.55-2.55,5.76,5.76,0,0,1,1.06-3.45,6.65,6.65,0,0,1,3-2.28,12.17,12.17,0,0,1,4.58-.8,30.17,30.17,0,0,1,4.22.28,19.39,19.39,0,0,1,3.8,1l-1.12,5.23Z"/><rect x="493.42" y="340.17" width="43.56" height="3.25"/><text class="cls-1" transform="translate(545.58 356.22)"><tspan xml:space="preserve">    </tspan><tspan class="cls-3" x="44.93" y="0"> </tspan><tspan x="56.01" y="0" xml:space="preserve">  </tspan><tspan class="cls-4" x="78.48" y="0"> </tspan><tspan x="89.56" y="0" xml:space="preserve">   </tspan><tspan class="cls-2" x="123.26" y="0"> </tspan><tspan x="134.39" y="0" xml:space="preserve">   </tspan><tspan class="cls-4" x="168.09" y="0"> </tspan><tspan x="179.17" y="0" xml:space="preserve">  </tspan><tspan class="cls-4" x="201.64" y="0"> </tspan><tspan class="cls-5" x="212.72" y="0" xml:space="preserve">   </tspan></text><path d="M814,333.63l2.29-1.65,1.6.4-3.67,15.79a17.83,17.83,0,0,0-.54,3.69,2.48,2.48,0,0,0,.32,1.44,1.18,1.18,0,0,0,1,.45,2.77,2.77,0,0,0,1.6-.61,17.77,17.77,0,0,0,2.39-2.33l1.42,1.4a22.16,22.16,0,0,1-3.83,3.4,6.24,6.24,0,0,1-3.42,1,3.15,3.15,0,0,1-2.47-1,3.9,3.9,0,0,1-.92-2.71,8.42,8.42,0,0,1,.57-2.91l-.32-.1a22.12,22.12,0,0,1-4.53,5.1,7.4,7.4,0,0,1-4.54,1.62,4.94,4.94,0,0,1-4.24-2.07,9.64,9.64,0,0,1-1.51-5.8,20.78,20.78,0,0,1,1.68-8.23,15.24,15.24,0,0,1,4.62-6.23A10.42,10.42,0,0,1,808.1,332a12.22,12.22,0,0,1,3,.36A10.44,10.44,0,0,1,814,333.63Zm-2.19,7.42a15.59,15.59,0,0,0,.3-1.77c.05-.5.07-1,.07-1.62a4,4,0,0,0-.82-2.81,3.65,3.65,0,0,0-2.79-.9A6.33,6.33,0,0,0,804,336a14,14,0,0,0-3.19,5.54,22.17,22.17,0,0,0-1.14,6.94,8.3,8.3,0,0,0,.71,3.87,2.5,2.5,0,0,0,2.38,1.28,4.81,4.81,0,0,0,3.22-1.42,19.5,19.5,0,0,0,3.27-4.05,17.53,17.53,0,0,0,2.37-6.06Z"/><path d="M822.27,365.44a7,7,0,0,0,.9-.2,1.3,1.3,0,0,0,.63-.51,4.21,4.21,0,0,0,.51-1.15q.23-.76.54-2.19l2.93-13.05c.12-.53.21-1,.27-1.4a7.17,7.17,0,0,0,.09-1,1.43,1.43,0,0,0-.4-1.15,2.46,2.46,0,0,0-1.51-.36l.27-1.13h9.38a16.4,16.4,0,0,1,3.56.34,7.17,7.17,0,0,1,2.4,1,3.92,3.92,0,0,1,1.36,1.55,4.84,4.84,0,0,1,.42,2.07c0,2.93-1.85,5-5.54,6.21a.66.66,0,0,1,0,.15v.08a5.7,5.7,0,0,1,2.52,1.83,4.43,4.43,0,0,1,.86,2.69,7.2,7.2,0,0,1-.63,3.07,5.82,5.82,0,0,1-2,2.29,9.79,9.79,0,0,1-3.4,1.45,21.08,21.08,0,0,1-5,.51h-8.4Zm5.37-.8,1.08,0,1.55,0a14.73,14.73,0,0,0,3.34-.33,6,6,0,0,0,2.33-1,4.07,4.07,0,0,0,1.36-1.84,7.28,7.28,0,0,0,.44-2.7,3.83,3.83,0,0,0-.25-1.45,2.28,2.28,0,0,0-.83-1.05,4.09,4.09,0,0,0-1.49-.63,10.62,10.62,0,0,0-2.21-.2h-3.28Zm5.25-11.06a13,13,0,0,0,3.3-.36,6,6,0,0,0,2.2-1.05,4,4,0,0,0,1.23-1.64,5.9,5.9,0,0,0,.38-2.16,4,4,0,0,0-.3-1.38,2.45,2.45,0,0,0-.86-1,4.16,4.16,0,0,0-1.5-.61,10.31,10.31,0,0,0-2.25-.2c-.57,0-1.12,0-1.64,0s-1,.05-1.49.1l-1.85,8.29Z"/><text class="cls-1" transform="translate(862.73 356.22)">=</text><text class="cls-1" transform="translate(915.07 356.22)">0</text><text class="cls-7" transform="translate(943.17 356.22)"> </text><text class="cls-7" transform="translate(39.28 447.35)"> </text><text class="cls-7" transform="translate(39.28 514.79)"> </text><path d="M56.72,583.73a22,22,0,0,1-4.53,5.11,7.45,7.45,0,0,1-4.54,1.61,4.93,4.93,0,0,1-4.24-2.06,9.7,9.7,0,0,1-1.51-5.81,20.82,20.82,0,0,1,1.68-8.23,15.24,15.24,0,0,1,4.62-6.23,10.43,10.43,0,0,1,6.55-2.27,11.8,11.8,0,0,1,2.81.31,9.9,9.9,0,0,1,2.62,1.08l1.3-5.75c.13-.55.25-1.16.35-1.82a12,12,0,0,0,.15-1.75,2,2,0,0,0-.28-1.13,1.52,1.52,0,0,0-.78-.56,7.65,7.65,0,0,0-1.83-.25l.3-1.29,6.25-.23h1.47L60.91,582a18,18,0,0,0-.55,3.68,2.57,2.57,0,0,0,.32,1.45,1.18,1.18,0,0,0,1,.44,2.77,2.77,0,0,0,1.6-.61,17.53,17.53,0,0,0,2.39-2.32l1.42,1.39a22.41,22.41,0,0,1-3.86,3.41,6.18,6.18,0,0,1-3.39,1,3.18,3.18,0,0,1-2.47-1,3.93,3.93,0,0,1-.92-2.72,8.42,8.42,0,0,1,.57-2.91Zm1.67-8.82a16.49,16.49,0,0,0,.37-3.39,4,4,0,0,0-.82-2.82,3.61,3.61,0,0,0-2.74-.89,6.26,6.26,0,0,0-4.56,2.06,14.18,14.18,0,0,0-3.17,5.54,22,22,0,0,0-1.16,7,8.25,8.25,0,0,0,.71,3.87,2.5,2.5,0,0,0,2.38,1.29,4.12,4.12,0,0,0,1.57-.34,6.63,6.63,0,0,0,1.65-1.08,13.09,13.09,0,0,0,1.7-1.82q.82-1.08,1.53-2.16a14.88,14.88,0,0,0,1.29-2.56,21,21,0,0,0,1-3.58Z"/><text class="cls-1" transform="translate(84.58 590.08)">=</text><text class="cls-1" transform="translate(136.72 590.08)">20</text><text class="cls-1" transform="translate(193.29 590.08)"> </text><path d="M215.52,572.6a20,20,0,0,1,4.56-5.07,7.68,7.68,0,0,1,4.58-1.66,4.67,4.67,0,0,1,3.64,1.36,5.59,5.59,0,0,1,1.25,3.92v.35a2.4,2.4,0,0,1,0,.37,18.39,18.39,0,0,1,4.27-4.52,7.64,7.64,0,0,1,4.42-1.48,4.63,4.63,0,0,1,3.54,1.32A5.2,5.2,0,0,1,243,570.9a20.09,20.09,0,0,1-.73,4.46l-1.62,6.53a19.21,19.21,0,0,0-.67,3.83,2.48,2.48,0,0,0,.33,1.45,1.15,1.15,0,0,0,1,.44,2.75,2.75,0,0,0,1.59-.61,17,17,0,0,0,2.39-2.32l1.42,1.39a24.17,24.17,0,0,1-3.73,3.34,6.43,6.43,0,0,1-3.64,1.07,3.22,3.22,0,0,1-2.59-1.16,4.42,4.42,0,0,1-1-3,20.46,20.46,0,0,1,.82-4.76l1.1-4.31c.39-1.56.66-2.71.78-3.46a12.21,12.21,0,0,0,.19-1.82,4.14,4.14,0,0,0-.58-2.48,2.19,2.19,0,0,0-1.86-.76,4.2,4.2,0,0,0-2.25.79,11.52,11.52,0,0,0-2.51,2.44,20.39,20.39,0,0,0-2.16,3.26A15.83,15.83,0,0,0,228,579.2l-2.27,10.88h-4.3l2.86-12.65c.35-1.55.58-2.69.71-3.43a12.26,12.26,0,0,0,.19-1.9,4,4,0,0,0-.64-2.56,2.45,2.45,0,0,0-2-.76,4.1,4.1,0,0,0-2.15.79,11.26,11.26,0,0,0-2.58,2.51,18.49,18.49,0,0,0-2.14,3.33,18,18,0,0,0-1.3,3.89L212,590.08h-4.3l3.63-15.79a17.57,17.57,0,0,0,.55-3.69,2.56,2.56,0,0,0-.32-1.44,1.18,1.18,0,0,0-1-.45,2.83,2.83,0,0,0-1.64.63,19.13,19.13,0,0,0-2.35,2.31l-1.42-1.4a25.11,25.11,0,0,1,3.77-3.35,6.19,6.19,0,0,1,3.48-1,3.14,3.14,0,0,1,2.48,1,4,4,0,0,1,.91,2.7,8.5,8.5,0,0,1-.58,2.92Z"/><text class="cls-7" transform="translate(248.13 590.08)"> </text></svg>