<svg id="Capa_1" data-name="Capa 1" xmlns="http://www.w3.org/2000/svg" viewBox="0 0 1729.55 158.54"><defs><style>.cls-1,.cls-3{font-size:67.9px;}.cls-1,.cls-2{font-family:CambriaMath, Cambria Math;}.cls-2{font-size:48.82px;}.cls-3{font-family:ArialMT, Arial;}.cls-4{letter-spacing:0em;}.cls-5{letter-spacing:0.27em;}</style></defs><title>ecuaciones2</title><text class="cls-1" transform="translate(25.09 103.68)">20</text><text class="cls-1" transform="translate(115.39 103.68)">+</text><text class="cls-1" transform="translate(180.98 103.68)">11</text><text class="cls-1" transform="translate(256.29 103.68)">,</text><text class="cls-1" transform="translate(270.26 103.68)">11</text><path d="M368.62,97.41a24.24,24.24,0,0,1-5.56,5.14,10.47,10.47,0,0,1-5.58,1.66q-6.93,0-6.93-7a21.14,21.14,0,0,1,.56-4.67L355,75.33h-5.57L350,73a13.81,13.81,0,0,0,3-.29,5.49,5.49,0,0,0,1.69-.73,4.7,4.7,0,0,0,1.24-1.33,12.47,12.47,0,0,0,1.1-2.2c.35-.9.88-2.46,1.59-4.7h4.57L361.29,72h10.08l-.73,3.35H360.56l-2.95,12.86c-.57,2.5-.94,4.3-1.09,5.39a19.17,19.17,0,0,0-.24,2.64q0,4.11,3.42,4.11a5.62,5.62,0,0,0,3.1-1.11,20.88,20.88,0,0,0,3.89-3.8Z"/><text class="cls-1" transform="translate(392.61 103.68)">=</text><text class="cls-1" transform="translate(462 103.68)">33</text><text class="cls-1" transform="translate(537.32 103.68)">,</text><text class="cls-1" transform="translate(551.28 103.68)">33</text><text class="cls-1" transform="translate(641.04 103.68)">−</text><text class="cls-1" transform="translate(706.9 103.68)">2,5</text><path d="M819.15,97.41a24,24,0,0,1-5.55,5.14,10.48,10.48,0,0,1-5.59,1.66q-6.91,0-6.92-7a20.56,20.56,0,0,1,.56-4.67l3.91-17.21H800l.5-2.29a13.88,13.88,0,0,0,3-.29,5.6,5.6,0,0,0,1.69-.73,4.85,4.85,0,0,0,1.24-1.33,11.84,11.84,0,0,0,1.09-2.2c.36-.9.89-2.46,1.6-4.7h4.57L811.83,72h10.08l-.73,3.35H811.1l-3,12.86c-.58,2.5-.94,4.3-1.1,5.39a20.58,20.58,0,0,0-.23,2.64q0,4.11,3.42,4.11a5.62,5.62,0,0,0,3.1-1.11,20.88,20.88,0,0,0,3.89-3.8Z"/><text class="cls-2" transform="translate(826.62 78.77)">2</text><text class="cls-3" transform="translate(857.64 103.69)"><tspan xml:space="preserve">      </tspan></text><text class="cls-1" transform="translate(970.48 103.69)">2<tspan class="cls-4" x="37.59" y="0">,</tspan><tspan x="51.59" y="0">5</tspan></text><path d="M1082.81,97.42a24,24,0,0,1-5.56,5.14,10.39,10.39,0,0,1-5.58,1.66q-6.93,0-6.93-7a20.63,20.63,0,0,1,.56-4.67l3.91-17.21h-5.57l.5-2.28a13.15,13.15,0,0,0,3-.3,5.49,5.49,0,0,0,1.69-.73A4.57,4.57,0,0,0,1070,70.7a12.47,12.47,0,0,0,1.1-2.2q.52-1.35,1.59-4.69h4.57L1075.48,72h10.08l-.73,3.34h-10.08l-3,12.87c-.58,2.5-.94,4.29-1.1,5.38a20.72,20.72,0,0,0-.23,2.64q0,4.11,3.42,4.11a5.62,5.62,0,0,0,3.1-1.11,20.88,20.88,0,0,0,3.89-3.8Z"/><text class="cls-2" transform="translate(1090.06 78.77)">2</text><text class="cls-1" transform="translate(1136.09 103.69)">−</text><text class="cls-1" transform="translate(1201.68 103.69)">22</text><text class="cls-1" transform="translate(1276.99 103.69)">,</text><text class="cls-1" transform="translate(1290.96 103.69)">22</text><path d="M1389.32,97.42a24,24,0,0,1-5.56,5.14,10.39,10.39,0,0,1-5.58,1.66q-6.93,0-6.93-7a21.21,21.21,0,0,1,.56-4.67l3.91-17.21h-5.57l.5-2.28a13.08,13.08,0,0,0,3-.3,5.49,5.49,0,0,0,1.69-.73,4.57,4.57,0,0,0,1.24-1.33,12.47,12.47,0,0,0,1.1-2.2q.52-1.35,1.59-4.69h4.57L1382,72h10.08l-.73,3.34h-10.08l-3,12.87c-.57,2.5-.94,4.29-1.09,5.38a19.3,19.3,0,0,0-.24,2.64q0,4.11,3.42,4.11a5.62,5.62,0,0,0,3.1-1.11,20.88,20.88,0,0,0,3.89-3.8Z"/><text class="cls-1" transform="translate(1409.51 103.69)">+</text><text class="cls-1" transform="translate(1475.09 103.69)">20</text><text class="cls-1" transform="translate(1569.2 103.69)"><tspan class="cls-5">=</tspan><tspan x="69.33" y="0">0</tspan></text><text class="cls-3" transform="translate(1676 103.69)"> </text></svg>