<svg id="Capa_1" data-name="Capa 1" xmlns="http://www.w3.org/2000/svg" viewBox="0 0 1345.43 884.31"><defs><style>.cls-1{font-size:163.75px;}.cls-1,.cls-2,.cls-3,.cls-5{font-family:CambriaMath, Cambria Math;}.cls-2{font-size:281.88px;}.cls-3,.cls-4{font-size:126.62px;}.cls-4{font-family:ArialMT, Arial;}.cls-5{font-size:91.06px;}</style></defs><title>ecuacion1-1</title><text class="cls-1" transform="translate(401.93 -391.2)">=</text><text class="cls-2" transform="translate(525.61 -364.77)">{</text><text class="cls-1" transform="translate(663.12 -298.03)">7</text><text class="cls-1" transform="translate(753.84 -298.03)">,</text><text class="cls-1" transform="translate(787.57 -298.03)">90</text><path d="M77.29,151.11Q71.35,159.76,66,163.79a18.38,18.38,0,0,1-11.25,4,12.3,12.3,0,0,1-10.55-5.13q-3.74-5.15-3.74-14.41a51.56,51.56,0,0,1,4.18-20.44,37.71,37.71,0,0,1,11.47-15.45,25.89,25.89,0,0,1,16.26-5.66,29.71,29.71,0,0,1,7,.77,25.45,25.45,0,0,1,6.53,2.69L89.1,95.9c.33-1.36.62-2.86.87-4.51a30.7,30.7,0,0,0,.37-4.33,4.85,4.85,0,0,0-.68-2.81,3.89,3.89,0,0,0-2-1.4,20,20,0,0,0-4.54-.61L83.91,79l15.52-.56h3.64L87.68,146.91a45.61,45.61,0,0,0-1.36,9.15,6.31,6.31,0,0,0,.8,3.59,2.93,2.93,0,0,0,2.54,1.11,6.88,6.88,0,0,0,4-1.52,42.81,42.81,0,0,0,5.94-5.78l3.52,3.47a55.52,55.52,0,0,1-9.58,8.47,15.48,15.48,0,0,1-8.41,2.47A7.86,7.86,0,0,1,79,165.33a9.69,9.69,0,0,1-2.29-6.74,20.84,20.84,0,0,1,1.43-7.23Zm4.14-21.88a41.21,41.21,0,0,0,.93-8.41q0-4.83-2-7c-1.36-1.46-3.63-2.2-6.8-2.2a15.48,15.48,0,0,0-11.31,5.11,35.06,35.06,0,0,0-7.89,13.75,54.63,54.63,0,0,0-2.87,17.25c0,4.29.58,7.49,1.76,9.62a6.2,6.2,0,0,0,5.9,3.18,10.1,10.1,0,0,0,3.9-.83A15.92,15.92,0,0,0,67.12,157a32.62,32.62,0,0,0,4.21-4.52c1.38-1.77,2.64-3.55,3.8-5.34a38.92,38.92,0,0,0,3.21-6.37,50.67,50.67,0,0,0,2.54-8.88Z"/><text class="cls-3" transform="translate(275.86 166.88)">200</text><text class="cls-3" transform="translate(486.44 166.88)"> </text><path d="M541.63,123.48Q547.31,115,553,110.89a19.15,19.15,0,0,1,11.37-4.11q5.94,0,9,3.37t3.09,9.74v.87a7.72,7.72,0,0,1-.06.92A45.15,45.15,0,0,1,587,110.46a19,19,0,0,1,11-3.68q5.68,0,8.78,3.28t3.09,9.21a49.17,49.17,0,0,1-1.8,11.07l-4,16.2a45.89,45.89,0,0,0-1.67,9.52,6.23,6.23,0,0,0,.8,3.59,2.93,2.93,0,0,0,2.54,1.11,6.88,6.88,0,0,0,3.95-1.52,43.38,43.38,0,0,0,5.94-5.78l3.52,3.47a58,58,0,0,1-9.27,8.28,15.84,15.84,0,0,1-9,2.66,8,8,0,0,1-6.43-2.88,11,11,0,0,1-2.41-7.32,51.13,51.13,0,0,1,2-11.81l2.72-10.7c1-3.87,1.64-6.74,1.95-8.59a28.59,28.59,0,0,0,.46-4.52q0-4.26-1.42-6.15c-1-1.25-2.49-1.88-4.64-1.88a10.32,10.32,0,0,0-5.56,1.94,28.35,28.35,0,0,0-6.25,6.06,51.1,51.1,0,0,0-5.35,8.1,38.91,38.91,0,0,0-3.3,9.74l-5.63,27h-10.7l7.11-31.41c.87-3.83,1.46-6.67,1.77-8.5a28.89,28.89,0,0,0,.46-4.73q0-4.45-1.58-6.34a6.06,6.06,0,0,0-4.91-1.88,10.21,10.21,0,0,0-5.35,1.94,28.39,28.39,0,0,0-6.4,6.25,39.82,39.82,0,0,0-8.53,17.9L533,166.88h-10.7l9-39.2a44.81,44.81,0,0,0,1.36-9.15,6.22,6.22,0,0,0-.81-3.59,2.91,2.91,0,0,0-2.53-1.11,6.92,6.92,0,0,0-4.05,1.58,44.94,44.94,0,0,0-5.85,5.72l-3.52-3.47a60.27,60.27,0,0,1,9.37-8.31,15.17,15.17,0,0,1,8.62-2.63,7.76,7.76,0,0,1,6.15,2.57,9.74,9.74,0,0,1,2.26,6.7,20.82,20.82,0,0,1-1.42,7.24Z"/><text class="cls-4" transform="translate(622.06 166.88)"> </text><path d="M56,457.44a4.92,4.92,0,0,1-3-.89A6.46,6.46,0,0,1,51.09,454,14.34,14.34,0,0,1,50,450.15a36.81,36.81,0,0,1-.31-4.89,70.32,70.32,0,0,1,.44-7.54q.42-4,1.11-8.1l2.6-17.13c.16-1,.29-1.92.4-2.81s.15-1.54.15-1.95a6.93,6.93,0,0,0-.62-3.15,2.15,2.15,0,0,0-2.1-1.24,5.53,5.53,0,0,0-2.53.71,17.26,17.26,0,0,0-2.75,1.83,33.42,33.42,0,0,0-2.69,2.38c-.87.84-1.67,1.64-2.42,2.38l-3-3.46q1.91-2,4.08-3.93A37.57,37.57,0,0,1,47,399.73a24.05,24.05,0,0,1,5.07-2.54,15.91,15.91,0,0,1,5.44-1,8.38,8.38,0,0,1,3.84.77,6.1,6.1,0,0,1,2.32,2.05,8,8,0,0,1,1.14,2.78,14.7,14.7,0,0,1,.31,3c0,.57,0,1.13-.06,1.67a14.87,14.87,0,0,1-.19,1.48l-3.46,22.38q-.56,3.52-.93,6.9a54.35,54.35,0,0,0-.37,6,22.86,22.86,0,0,0,.31,4.21c.21,1.07.6,1.6,1.17,1.6a11.69,11.69,0,0,0,5.14-1.63,37.68,37.68,0,0,0,6.49-4.52,63.18,63.18,0,0,0,6.8-6.8,58.67,58.67,0,0,0,6.12-8.5,49.84,49.84,0,0,0,4.42-9.65,32,32,0,0,0,1.7-10.2,5.39,5.39,0,0,0-1-3.43,3.62,3.62,0,0,0-3-1.21,7,7,0,0,0-4.79,2A34.27,34.27,0,0,0,79,410.39l-3.53-3.15a30,30,0,0,1,7.76-7.85,22.86,22.86,0,0,1,4.67-2.48,13,13,0,0,1,4.7-.93c3,0,5.11.78,6.43,2.32a9.27,9.27,0,0,1,2,6.22,26.13,26.13,0,0,1-1,6.8,56.21,56.21,0,0,1-3,8.1,87.07,87.07,0,0,1-4.58,8.75,91.59,91.59,0,0,1-5.87,8.71,83.68,83.68,0,0,1-6.86,8,54.8,54.8,0,0,1-7.58,6.52,38.72,38.72,0,0,1-8,4.42A21.24,21.24,0,0,1,56,457.44Z"/><path d="M116.82,482.8a18.62,18.62,0,0,1-6.63-1.11,13.57,13.57,0,0,1-5-3.2,14,14,0,0,1-3.13-5.05,19.16,19.16,0,0,1-1.09-6.69,34.51,34.51,0,0,1,2-11.8,30.21,30.21,0,0,1,5.46-9.56,26,26,0,0,1,8.25-6.43A23,23,0,0,1,127,436.61a17.59,17.59,0,0,1,7,1.29,13.93,13.93,0,0,1,8,8.67,20,20,0,0,1,1,6.35,35.65,35.65,0,0,1-2,12.25,28.6,28.6,0,0,1-5.54,9.43,24.71,24.71,0,0,1-8.31,6.07A25.23,25.23,0,0,1,116.82,482.8Zm-7.07-14.18q0,5.11,2.11,7.53t6.42,2.43a9.34,9.34,0,0,0,4.54-1.18,15.11,15.11,0,0,0,3.91-3.18,22.68,22.68,0,0,0,3.18-4.69,36.22,36.22,0,0,0,2.38-5.76,42.58,42.58,0,0,0,1.49-6.33,41.41,41.41,0,0,0,.51-6.38q0-4.94-2-7.5C131,441.86,129,441,126.2,441a10.14,10.14,0,0,0-4.67,1.11,14.27,14.27,0,0,0-4,3.07,21.88,21.88,0,0,0-3.27,4.62,34.9,34.9,0,0,0-2.45,5.74,43.32,43.32,0,0,0-1.53,6.4A41.65,41.65,0,0,0,109.75,468.62Z"/><text class="cls-3" transform="translate(191.48 456.38)">=</text><text class="cls-3" transform="translate(139.64 166.88)">=</text><text class="cls-3" transform="translate(320.89 456.38)">500</text><path d="M579.06,317.13q5.69-8.46,11.31-12.58a19.18,19.18,0,0,1,11.38-4.11q5.94,0,9,3.37t3.09,9.74v.86a7.75,7.75,0,0,1-.06.93,45.15,45.15,0,0,1,10.6-11.22,19,19,0,0,1,11-3.68q5.7,0,8.78,3.28t3.1,9.21a49.25,49.25,0,0,1-1.8,11.07l-4,16.19a46.77,46.77,0,0,0-1.67,9.53,6.16,6.16,0,0,0,.81,3.58,2.91,2.91,0,0,0,2.53,1.12,6.89,6.89,0,0,0,4-1.52,44,44,0,0,0,5.94-5.78l3.52,3.46a59.05,59.05,0,0,1-9.27,8.29,15.84,15.84,0,0,1-9,2.66,8,8,0,0,1-6.43-2.88,11,11,0,0,1-2.41-7.33,51.21,51.21,0,0,1,2-11.81l2.72-10.69c1-3.88,1.64-6.74,2-8.6a29.73,29.73,0,0,0,.46-4.51q0-4.26-1.42-6.15t-4.64-1.89a10.23,10.23,0,0,0-5.56,1.95,28.35,28.35,0,0,0-6.25,6.06,50.42,50.42,0,0,0-5.35,8.1,39.16,39.16,0,0,0-3.31,9.74l-5.62,27h-10.7l7.11-31.41q1.3-5.76,1.76-8.5a29.13,29.13,0,0,0,.47-4.73q0-4.45-1.58-6.34a6,6,0,0,0-4.91-1.89,10.14,10.14,0,0,0-5.35,1.95,28.53,28.53,0,0,0-6.4,6.24,40,40,0,0,0-8.53,17.9l-5.88,26.78H559.71l9-39.2a44.11,44.11,0,0,0,1.36-9.15,6.21,6.21,0,0,0-.8-3.59,2.93,2.93,0,0,0-2.54-1.11,6.9,6.9,0,0,0-4,1.57,45,45,0,0,0-5.85,5.72l-3.52-3.46a60.49,60.49,0,0,1,9.37-8.32,15.16,15.16,0,0,1,8.62-2.62,7.76,7.76,0,0,1,6.15,2.56,9.77,9.77,0,0,1,2.26,6.71,21.05,21.05,0,0,1-1.42,7.24Z"/><path d="M621.77,497.15q-.67-5.5-3.62-8.35T608.91,486a12,12,0,0,0-7.91,2.5,8.12,8.12,0,0,0-3,6.58,9.31,9.31,0,0,0,.77,3.93,12.06,12.06,0,0,0,3.12,3.74,54.69,54.69,0,0,0,7.3,5,51.6,51.6,0,0,1,6.24,4.3,20.07,20.07,0,0,1,3.71,3.86,13.36,13.36,0,0,1,2,4,18.78,18.78,0,0,1,.62,5.16,15.29,15.29,0,0,1-2.94,9.43,17.28,17.28,0,0,1-8,5.84,32.08,32.08,0,0,1-11.47,1.92,65.9,65.9,0,0,1-10.08-.77,80.66,80.66,0,0,1-11-2.63l3-13.48H586q.24,5.94,3.33,9t9.83,3q5.88,0,9.19-2.63a9,9,0,0,0,3.3-7.45,11.46,11.46,0,0,0-.92-4.79,12,12,0,0,0-3-3.87,50,50,0,0,0-6.68-4.63,53.58,53.58,0,0,1-7.51-5.26,16.45,16.45,0,0,1-4-5.1,14.08,14.08,0,0,1-1.36-6.34,14.36,14.36,0,0,1,2.62-8.56,16.67,16.67,0,0,1,7.52-5.66,30.11,30.11,0,0,1,11.37-2,74.39,74.39,0,0,1,10.48.68,49.46,49.46,0,0,1,9.43,2.35l-2.78,13Z"/><rect x="551.91" y="416.55" width="108.13" height="8.06"/><text class="cls-4" transform="translate(660.04 456.38)"> </text><path d="M87.12,709.72l5.68-4.08,4,1-9.09,39.2A43.89,43.89,0,0,0,86.31,755a6.16,6.16,0,0,0,.81,3.58,2.91,2.91,0,0,0,2.53,1.11,6.87,6.87,0,0,0,4-1.51,43.49,43.49,0,0,0,5.93-5.78l3.53,3.46a54,54,0,0,1-9.49,8.44,15.52,15.52,0,0,1-8.5,2.51A7.83,7.83,0,0,1,79,764.25a9.66,9.66,0,0,1-2.29-6.74,20.73,20.73,0,0,1,1.42-7.23l-.8-.25Q71.35,758.69,66,762.7a18.33,18.33,0,0,1-11.25,4,12.28,12.28,0,0,1-10.54-5.13q-3.75-5.13-3.74-14.4a51.68,51.68,0,0,1,4.17-20.44,37.9,37.9,0,0,1,11.47-15.46,25.88,25.88,0,0,1,16.26-5.65,30.5,30.5,0,0,1,7.51.89A26.32,26.32,0,0,1,87.12,709.72Zm-5.44,18.42a40.58,40.58,0,0,0,.74-4.39q.18-1.85.18-4,0-4.76-2-7t-6.92-2.23a15.71,15.71,0,0,0-11.44,5.13,34.57,34.57,0,0,0-7.91,13.76,54.61,54.61,0,0,0-2.85,17.22q0,6.43,1.76,9.61a6.21,6.21,0,0,0,5.91,3.19q4.08,0,8-3.53a49.12,49.12,0,0,0,8.09-10,43.81,43.81,0,0,0,5.91-15.06Z"/><path d="M129.15,791.05q-1.47-8.44-2.58-14.61t-2-10.49c-.6-2.89-1.16-5.24-1.66-7.05a29.09,29.09,0,0,0-1.47-4.22,5.61,5.61,0,0,0-1.45-2.07,2.54,2.54,0,0,0-1.57-.56,5.17,5.17,0,0,0-1.47.2,3.79,3.79,0,0,0-1.38.83,10.46,10.46,0,0,0-1.53,1.75c-.55.76-1.23,1.74-2,3l-3.42-2.22a53.69,53.69,0,0,1,3.51-4.67,17.14,17.14,0,0,1,3.18-3,11,11,0,0,1,3.23-1.55,12.75,12.75,0,0,1,3.6-.47,10.1,10.1,0,0,1,2.75.33,6.14,6.14,0,0,1,2.09,1,7.1,7.1,0,0,1,1.67,1.84,24.75,24.75,0,0,1,1.49,2.74,19.33,19.33,0,0,1,.84,2.8c.3,1.21.61,2.62.94,4.22s.65,3.37,1,5.29.65,3.94,1,6,.64,4.26.94,6.47.58,4.38.84,6.51a90.43,90.43,0,0,0,6-8.82,92.84,92.84,0,0,0,4.52-8.45,54.35,54.35,0,0,0,2.82-7.25,17.94,17.94,0,0,0,.93-5.22,3.43,3.43,0,0,0-1-2.8,5.89,5.89,0,0,0-3.42-1l.58-2.85h12.67l1.55,2.58a165.56,165.56,0,0,1-10.38,21.19,177.07,177.07,0,0,1-13.4,19.8q-3.25,3.87-5.85,6.67t-4.8,4.83a37,37,0,0,1-4.09,3.31A22.62,22.62,0,0,1,118,807.3a16.34,16.34,0,0,1-3.53,1.11,26.91,26.91,0,0,1-3.67.42,16.35,16.35,0,0,1-2.47-.22,16.81,16.81,0,0,1-2.56-.58l2.23-9.74h4v.27c0,2,.82,3,2.45,3a10.92,10.92,0,0,0,6.58-2.51A55.69,55.69,0,0,0,129.15,791.05Z"/><text class="cls-3" transform="translate(204.76 765.7)">=</text><text class="cls-3" transform="translate(334.17 765.7)">−</text><path d="M443.65,771a22,22,0,0,0-2,2.81,11.45,11.45,0,0,0-1.14,2.69,12.24,12.24,0,0,0-.34,3.1c0,3.09,1.11,5.34,3.34,6.77s5.58,2.13,10.08,2.13q7.61,0,12.21-3.43t7.88-11q3.29-7.6,6.37-23l-.87-.19q-6,8.24-11.12,12A18.37,18.37,0,0,1,457,766.63a12.27,12.27,0,0,1-10.48-5.07q-3.75-5.07-3.74-14.47a51.38,51.38,0,0,1,4.14-20.31,38.11,38.11,0,0,1,11.5-15.49,26,26,0,0,1,16.38-5.75,28.27,28.27,0,0,1,7.36.93,25.38,25.38,0,0,1,7,3.16l5.69-4.09,3.95,1-6.36,28.82q-.69,3-3.1,15.27-2.54,13-4.11,18.36a52.3,52.3,0,0,1-3.92,9.8,27.41,27.41,0,0,1-6.06,7.7,26.21,26.21,0,0,1-9,5.07,39.23,39.23,0,0,1-12.52,1.79q-23.37,0-23.37-13.6a10.39,10.39,0,0,1,2.1-6.31,28.09,28.09,0,0,1,6.74-6Zm17.75-11.68a11,11,0,0,0,6.27-2.17,31.27,31.27,0,0,0,6.68-6.86,49,49,0,0,0,5.53-9,51.34,51.34,0,0,0,3.37-10.63,52.85,52.85,0,0,0,1.4-11.07q0-4.82-2-7c-1.37-1.46-3.63-2.19-6.81-2.19a15.49,15.49,0,0,0-11.31,5.1,35,35,0,0,0-7.88,13.76,54.36,54.36,0,0,0-2.88,17.25c0,4.28.62,7.49,1.86,9.61A6.25,6.25,0,0,0,461.4,759.34Z"/><text class="cls-3" transform="translate(543.23 765.7)">=</text><text class="cls-3" transform="translate(672.64 765.7)">−</text><text class="cls-3" transform="translate(767.48 765.7)">9</text><text class="cls-3" transform="translate(837.63 765.7)">,</text><text class="cls-3" transform="translate(863.72 765.7)">81</text><text class="cls-3" transform="translate(1003.64 765.7)"> </text><path d="M1058.82,722.3q5.7-8.47,11.32-12.58a19.15,19.15,0,0,1,11.38-4.11q5.93,0,9,3.37t3.09,9.73v.87a7.75,7.75,0,0,1-.06.93,45.17,45.17,0,0,1,10.61-11.22,18.89,18.89,0,0,1,11-3.68q5.68,0,8.78,3.27t3.09,9.22a49.63,49.63,0,0,1-1.79,11.06l-4,16.2a46.82,46.82,0,0,0-1.67,9.52,6.29,6.29,0,0,0,.8,3.59,2.93,2.93,0,0,0,2.54,1.11,6.92,6.92,0,0,0,4-1.51,44.08,44.08,0,0,0,5.93-5.78l3.53,3.46A58.47,58.47,0,0,1,1127,764a15.77,15.77,0,0,1-9,2.66,8,8,0,0,1-6.43-2.87,11.06,11.06,0,0,1-2.41-7.33,51.21,51.21,0,0,1,2-11.81l2.72-10.69c1-3.88,1.64-6.74,1.95-8.6a28.49,28.49,0,0,0,.46-4.51q0-4.27-1.42-6.15t-4.63-1.89a10.26,10.26,0,0,0-5.57,1.95,28.12,28.12,0,0,0-6.24,6.06,49.76,49.76,0,0,0-5.35,8.1,38.81,38.81,0,0,0-3.31,9.73l-5.63,27h-10.69l7.11-31.41q1.29-5.74,1.76-8.5a28.89,28.89,0,0,0,.46-4.73c0-3-.52-5.08-1.57-6.33a6,6,0,0,0-4.92-1.89,10.14,10.14,0,0,0-5.35,1.95,28.53,28.53,0,0,0-6.4,6.24,40.24,40.24,0,0,0-8.53,17.9l-5.87,26.77h-10.7l9-39.2a44.62,44.62,0,0,0,1.36-9.15,6.27,6.27,0,0,0-.8-3.58,2.94,2.94,0,0,0-2.54-1.12,6.92,6.92,0,0,0-4,1.58,44.38,44.38,0,0,0-5.84,5.72l-3.53-3.46a60.42,60.42,0,0,1,9.37-8.32,15.2,15.2,0,0,1,8.63-2.63,7.79,7.79,0,0,1,6.15,2.57,9.81,9.81,0,0,1,2.25,6.71,20.73,20.73,0,0,1-1.42,7.23Z"/><text class="cls-3" transform="translate(1139.25 765.7)">/</text><path d="M1248,721.62c-.45-3.67-1.66-6.45-3.61-8.35s-5-2.84-9.25-2.84a12,12,0,0,0-7.91,2.5,8.14,8.14,0,0,0-3,6.59,9.45,9.45,0,0,0,.77,3.92,12,12,0,0,0,3.12,3.74,54.69,54.69,0,0,0,7.3,5,51.6,51.6,0,0,1,6.24,4.3,20.66,20.66,0,0,1,3.71,3.86,13.36,13.36,0,0,1,2,4,18.91,18.91,0,0,1,.62,5.17A15.29,15.29,0,0,1,1245,759a17.42,17.42,0,0,1-8,5.84,32.08,32.08,0,0,1-11.47,1.91,64.66,64.66,0,0,1-10.08-.77,79.2,79.2,0,0,1-11-2.63l3-13.47h4.83q.24,5.93,3.33,9t9.83,3c3.92,0,7-.87,9.19-2.63a9,9,0,0,0,3.3-7.45A11.5,11.5,0,0,0,1237,747a11.86,11.86,0,0,0-3-3.86,48.93,48.93,0,0,0-6.68-4.64,53.58,53.58,0,0,1-7.51-5.26,16.23,16.23,0,0,1-4-5.1,14,14,0,0,1-1.36-6.33,14.3,14.3,0,0,1,2.63-8.57,16.59,16.59,0,0,1,7.51-5.66,30.31,30.31,0,0,1,11.37-2,72.92,72.92,0,0,1,10.48.68,48,48,0,0,1,9.43,2.35l-2.78,13Z"/><text class="cls-5" transform="translate(1265.66 719.22)">2</text><text class="cls-4" transform="translate(1323.99 765.7)"> </text></svg>