<svg id="Capa_1" data-name="Capa 1" xmlns="http://www.w3.org/2000/svg" viewBox="0 0 1985.66 452.91"><defs><style>.cls-1,.cls-2{font-size:81.97px;}.cls-1,.cls-6{font-family:CambriaMath, Cambria Math;}.cls-2,.cls-7{font-family:ArialMT, Arial;}.cls-3{letter-spacing:0em;}.cls-4{letter-spacing:0.28em;}.cls-5{letter-spacing:0.22em;}.cls-6{font-size:58.94px;}.cls-7{font-size:56.18px;}.cls-8{letter-spacing:0em;}</style></defs><title>ecuaciones</title><path d="M98.19,110.85q-.6-3.16-1.25-6.09c-.42-1.94-.86-3.76-1.32-5.44A16.52,16.52,0,0,0,94.5,96a2.77,2.77,0,0,0-.94-1.08,2.4,2.4,0,0,0-1.26-.3,3,3,0,0,0-1.52.38,5.66,5.66,0,0,0-1.48,1.32,34,34,0,0,0-2.12,2.94l-2.6-1.72a25,25,0,0,1,4.84-5.68A8.43,8.43,0,0,1,94.9,90a7.85,7.85,0,0,1,2.18.28,4.84,4.84,0,0,1,1.67.87,5.62,5.62,0,0,1,1.28,1.5,12.44,12.44,0,0,1,1.08,2.5,35.36,35.36,0,0,1,1,3.92c.3,1.56.58,3.18.82,4.86h.4q3.84-5.4,5.82-7.9a31.24,31.24,0,0,1,3.34-3.72,9.13,9.13,0,0,1,2.63-1.73,9.29,9.29,0,0,1,3.34-.5,8.4,8.4,0,0,1,3.08.48l-1.6,7.25h-2.8c-.16-1.12-.63-1.68-1.4-1.68a2.61,2.61,0,0,0-.76.12,3.67,3.67,0,0,0-1,.52,14.44,14.44,0,0,0-1.7,1.56c-.74.77-1.58,1.72-2.52,2.84s-1.89,2.3-2.88,3.52l-2.72,3.41q.72,3.84,1.36,6.64c.43,1.87.81,3.42,1.14,4.66s.63,2.22.88,2.94a5.49,5.49,0,0,0,.82,1.62,2.73,2.73,0,0,0,.9.77,2.54,2.54,0,0,0,1.06.22,3.24,3.24,0,0,0,2.1-.85,18.84,18.84,0,0,0,3-3.8L118,122a24.73,24.73,0,0,1-5.07,5.87,8.7,8.7,0,0,1-5.38,1.7,6.33,6.33,0,0,1-2.92-.62,5.59,5.59,0,0,1-2.08-2,13.92,13.92,0,0,1-1.56-4.25,62.18,62.18,0,0,1-1.52-7.84H99q-4.25,6-6.31,8.56a35.53,35.53,0,0,1-3.4,3.85,8.81,8.81,0,0,1-2.6,1.74,9.33,9.33,0,0,1-3.34.5,8.46,8.46,0,0,1-3.09-.48l1.61-7.25h2.8c.16,1.12.62,1.68,1.4,1.68a2.75,2.75,0,0,0,1.18-.3,8,8,0,0,0,1.78-1.44q1.16-1.14,3.2-3.58T98.19,110.85Z"/><path d="M145.68,124.13a16.1,16.1,0,0,0-.21-2.49,4,4,0,0,0-.61-1.57,2.3,2.3,0,0,0-1.09-.82,5.47,5.47,0,0,0-1.65-.27,6.75,6.75,0,0,0-3,.69,9.79,9.79,0,0,0-2.65,1.91,15.21,15.21,0,0,0-2.23,2.87,20.76,20.76,0,0,0-1.73,3.54,23.13,23.13,0,0,0-1.11,4,21.89,21.89,0,0,0-.39,4.1,7.62,7.62,0,0,0,1.21,4.64,4.26,4.26,0,0,0,3.63,1.6,12.19,12.19,0,0,0,2.5-.24,9.1,9.1,0,0,0,2.25-.82,15.06,15.06,0,0,0,2.26-1.51c.78-.63,1.63-1.4,2.57-2.32q.56.57,1.05,1.14l1.05,1.13a23.66,23.66,0,0,1-6.21,4.8,14.68,14.68,0,0,1-6.68,1.56c-3,0-5.25-.86-6.83-2.6s-2.38-4.22-2.38-7.44a21.88,21.88,0,0,1,.61-5.22A21,21,0,0,1,127.8,126a19.39,19.39,0,0,1,2.72-4,17.46,17.46,0,0,1,3.54-3.12,16.51,16.51,0,0,1,4.23-2,15.72,15.72,0,0,1,4.78-.72,31.2,31.2,0,0,1,3.89.23,29.79,29.79,0,0,1,3.73.72l-1.61,7Z"/><text class="cls-1" transform="translate(179.48 128.94)">=</text><text class="cls-1" transform="translate(263.26 128.94)">20</text><text class="cls-1" transform="translate(371.95 128.94)">+</text><text class="cls-1" transform="translate(451.46 128.94)">11</text><text class="cls-1" transform="translate(542.39 128.94)">,</text><text class="cls-1" transform="translate(559.25 128.94)">11</text><path d="M677.64,121.37a29.08,29.08,0,0,1-6.71,6.21,12.59,12.59,0,0,1-6.74,2q-8.37,0-8.37-8.45a25.42,25.42,0,0,1,.68-5.64l4.73-20.77H654.5l.6-2.76a16.67,16.67,0,0,0,3.59-.36,6.61,6.61,0,0,0,2-.89,5.68,5.68,0,0,0,1.5-1.6,15.29,15.29,0,0,0,1.32-2.66q.65-1.62,1.92-5.66H671l-2.2,9.88H681l-.88,4H667.91l-3.56,15.53q-1,4.52-1.32,6.5a23.3,23.3,0,0,0-.28,3.18q0,5,4.12,5a6.7,6.7,0,0,0,3.74-1.35,25.2,25.2,0,0,0,4.71-4.58Z"/><text class="cls-2" transform="translate(683.92 128.94)"><tspan xml:space="preserve">            </tspan><tspan class="cls-3" x="273.28" y="0"> </tspan><tspan x="296.3" y="0" xml:space="preserve">  </tspan></text><path d="M1043.91,110.85q-.6-3.16-1.24-6.09c-.43-1.94-.87-3.76-1.32-5.44a17.22,17.22,0,0,0-1.12-3.3,2.85,2.85,0,0,0-.94-1.08,2.4,2.4,0,0,0-1.26-.3,3,3,0,0,0-1.52.38,5.5,5.5,0,0,0-1.48,1.32,32,32,0,0,0-2.12,2.94l-2.61-1.72a25.28,25.28,0,0,1,4.85-5.68,8.39,8.39,0,0,1,5.48-1.89,7.9,7.9,0,0,1,2.18.28,4.79,4.79,0,0,1,1.66.87,5.45,5.45,0,0,1,1.28,1.5,11.39,11.39,0,0,1,1.08,2.5,31.38,31.38,0,0,1,1,3.92c.31,1.56.58,3.18.83,4.86h.4q3.84-5.4,5.82-7.9a30.39,30.39,0,0,1,3.34-3.72,9.09,9.09,0,0,1,2.62-1.73,9.33,9.33,0,0,1,3.34-.5,8.42,8.42,0,0,1,3.09.48l-1.6,7.25h-2.81c-.16-1.12-.62-1.68-1.4-1.68a2.66,2.66,0,0,0-.76.12,3.79,3.79,0,0,0-1,.52,13.68,13.68,0,0,0-1.7,1.56c-.75.77-1.59,1.72-2.52,2.84s-1.9,2.3-2.88,3.52l-2.72,3.41q.72,3.84,1.36,6.64c.42,1.87.8,3.42,1.14,4.66s.62,2.22.88,2.94a5.26,5.26,0,0,0,.82,1.62,2.73,2.73,0,0,0,.9.77,2.54,2.54,0,0,0,1.06.22,3.24,3.24,0,0,0,2.1-.85,18.54,18.54,0,0,0,2.94-3.8l2.6,1.72a24.5,24.5,0,0,1-5.06,5.87,8.72,8.72,0,0,1-5.38,1.7,6.33,6.33,0,0,1-2.92-.62,5.69,5.69,0,0,1-2.09-2,14.47,14.47,0,0,1-1.56-4.25,66.07,66.07,0,0,1-1.52-7.84h-.4q-4.24,6-6.3,8.56a36.65,36.65,0,0,1-3.4,3.85,8.94,8.94,0,0,1-2.6,1.74,9.39,9.39,0,0,1-3.35.5,8.4,8.4,0,0,1-3.08-.48l1.6-7.25h2.8q.24,1.68,1.41,1.68a2.75,2.75,0,0,0,1.18-.3,8.28,8.28,0,0,0,1.78-1.44q1.15-1.14,3.2-3.58T1043.91,110.85Z"/><path d="M1086.93,145.52l.43-1.76a10.09,10.09,0,0,0,1.42-.36,2.15,2.15,0,0,0,1-.72,3.56,3.56,0,0,0,.61-1.37,9.12,9.12,0,0,0,.22-2.24c0-.35,0-.74,0-1.2s0-.92-.07-1.42-.07-1-.12-1.54-.09-1-.13-1.54H1077.4c-.44.65-.88,1.32-1.31,2s-.82,1.37-1.18,2a12.43,12.43,0,0,0-.85,2,6.21,6.21,0,0,0-.31,1.92c0,1.4,1,2.22,3.07,2.45l-.37,1.76h-12.58l.32-1.76a5.35,5.35,0,0,0,1.4-.45,5,5,0,0,0,1.29-.95,12.52,12.52,0,0,0,1.47-1.75c.53-.74,1.16-1.71,1.91-2.92l18.54-30h4.75l2.62,30.42a14.37,14.37,0,0,0,.36,2.47,5.15,5.15,0,0,0,.67,1.67,3,3,0,0,0,1.08,1,5.07,5.07,0,0,0,1.63.49l-.43,1.76Zm2-31.52c-1.67,2.73-3.32,5.45-5,8.19s-3.3,5.47-5,8.22h11.08c-.09-1.23-.19-2.44-.28-3.62s-.18-2.42-.23-3.72-.11-2.7-.16-4.18-.07-3.11-.07-4.89Z"/><text class="cls-1" transform="translate(1129.34 128.94)"><tspan class="cls-4">=</tspan><tspan class="cls-5" x="84.02" y="0">0</tspan><tspan x="147.53" y="0">+</tspan></text><text class="cls-1" transform="translate(1356.15 128.94)">33</text><text class="cls-1" transform="translate(1447.08 128.94)">,</text><text class="cls-1" transform="translate(1463.94 128.94)">33</text><path d="M1582.33,121.37a29.26,29.26,0,0,1-6.7,6.21,12.65,12.65,0,0,1-6.75,2q-8.36,0-8.36-8.45a24.85,24.85,0,0,1,.68-5.64l4.72-20.77h-6.72l.6-2.76a16.56,16.56,0,0,0,3.58-.36,6.61,6.61,0,0,0,2-.89,5.41,5.41,0,0,0,1.5-1.6,14.61,14.61,0,0,0,1.32-2.66q.65-1.62,1.92-5.66h5.53l-2.2,9.88h12.16l-.88,4h-12.16L1569,110.25q-1,4.52-1.32,6.5a25,25,0,0,0-.28,3.18c0,3.31,1.38,5,4.12,5a6.73,6.73,0,0,0,3.75-1.35A25.2,25.2,0,0,0,1580,119Zm30.36-13.2v-5.33H1662v5.33Z"/><text class="cls-6" transform="translate(1686.24 81.05)">1</text><text class="cls-6" transform="translate(1686.24 170.05)">2</text><rect x="1686.24" y="103.15" width="34.08" height="5.22"/><text class="cls-1" transform="translate(1733.83 128.94)">(5)</text><path d="M1875.25,121.37a29.26,29.26,0,0,1-6.7,6.21,12.65,12.65,0,0,1-6.75,2q-8.37,0-8.36-8.45a24.85,24.85,0,0,1,.68-5.64l4.72-20.77h-6.72l.6-2.76a16.64,16.64,0,0,0,3.58-.36,6.61,6.61,0,0,0,2-.89,5.41,5.41,0,0,0,1.5-1.6,15.29,15.29,0,0,0,1.32-2.66q.64-1.62,1.92-5.66h5.53l-2.21,9.88h12.17l-.88,4h-12.17L1862,110.25q-1,4.52-1.32,6.5a23.3,23.3,0,0,0-.28,3.18q0,5,4.12,5a6.76,6.76,0,0,0,3.75-1.35,25.2,25.2,0,0,0,4.7-4.58Z"/><text class="cls-6" transform="translate(1884.26 98.86)">2</text><text class="cls-2" transform="translate(1921.4 128.94)"> </text><text class="cls-7" transform="translate(678.05 371.16)">S</text><text class="cls-7" transform="translate(715.53 371.16)"><tspan class="cls-8">i</tspan><tspan x="12.54" y="0"> </tspan></text><path d="M762.84,353.07q-.6-3.17-1.24-6.08t-1.32-5.45a18,18,0,0,0-1.12-3.3,2.94,2.94,0,0,0-.94-1.08,2.45,2.45,0,0,0-1.26-.3,3.09,3.09,0,0,0-1.52.38,5.5,5.5,0,0,0-1.48,1.32,31.67,31.67,0,0,0-2.13,2.94l-2.6-1.72a25.25,25.25,0,0,1,4.85-5.68,8.38,8.38,0,0,1,5.48-1.88,7.54,7.54,0,0,1,2.18.28,4.61,4.61,0,0,1,1.66.86,5.76,5.76,0,0,1,1.28,1.5,12.13,12.13,0,0,1,1.08,2.5,31.38,31.38,0,0,1,1,3.92c.31,1.56.58,3.18.82,4.87h.4q3.85-5.41,5.83-7.91a30.39,30.39,0,0,1,3.34-3.72,7.59,7.59,0,0,1,6-2.22,8.36,8.36,0,0,1,3.08.48l-1.6,7.24h-2.8c-.16-1.12-.63-1.68-1.4-1.68a2.66,2.66,0,0,0-.76.12,4,4,0,0,0-1,.52,13.68,13.68,0,0,0-1.7,1.56c-.75.78-1.59,1.72-2.52,2.84s-1.9,2.3-2.88,3.53l-2.73,3.4c.48,2.56.94,4.77,1.36,6.64s.81,3.42,1.15,4.67.62,2.22.88,2.94a5.26,5.26,0,0,0,.82,1.62,2.69,2.69,0,0,0,.9.76,2.36,2.36,0,0,0,1.06.22,3.28,3.28,0,0,0,2.1-.84,18.84,18.84,0,0,0,2.94-3.8l2.6,1.72a24.64,24.64,0,0,1-5.06,5.86,8.72,8.72,0,0,1-5.38,1.7,6.38,6.38,0,0,1-2.93-.62,5.5,5.5,0,0,1-2.08-2A14.5,14.5,0,0,1,765.6,365a64.15,64.15,0,0,1-1.52-7.85h-.4q-4.24,6-6.3,8.57a37.4,37.4,0,0,1-3.4,3.84,8.59,8.59,0,0,1-2.61,1.74,9.29,9.29,0,0,1-3.34.5,8.4,8.4,0,0,1-3.08-.48l1.6-7.24h2.8c.16,1.12.63,1.68,1.4,1.68a2.68,2.68,0,0,0,1.18-.3,8,8,0,0,0,1.79-1.44q1.15-1.14,3.2-3.59T762.84,353.07Z"/><path d="M810.34,366.35a15,15,0,0,0-.22-2.49,3.74,3.74,0,0,0-.6-1.56,2.22,2.22,0,0,0-1.09-.82,5.27,5.27,0,0,0-1.66-.28,6.75,6.75,0,0,0-3,.69,9.77,9.77,0,0,0-2.65,1.92,15.56,15.56,0,0,0-2.23,2.86,20.73,20.73,0,0,0-1.72,3.54,23.65,23.65,0,0,0-1.11,4,22,22,0,0,0-.39,4.1,7.6,7.6,0,0,0,1.21,4.65,4.26,4.26,0,0,0,3.62,1.6,12.27,12.27,0,0,0,2.51-.25,8.65,8.65,0,0,0,2.24-.82,13.89,13.89,0,0,0,2.26-1.51,34.42,34.42,0,0,0,2.58-2.32c.36.39.71.76,1,1.14l1.05,1.14a23.48,23.48,0,0,1-6.22,4.79,14.65,14.65,0,0,1-6.67,1.57q-4.47,0-6.84-2.61t-2.37-7.44a22.46,22.46,0,0,1,.6-5.22,21,21,0,0,1,1.74-4.74,20.49,20.49,0,0,1,2.72-4,18.34,18.34,0,0,1,3.54-3.12,16.83,16.83,0,0,1,4.23-2,15.76,15.76,0,0,1,4.78-.72,31.49,31.49,0,0,1,3.9.23,34.36,34.36,0,0,1,3.73.72l-1.61,7.05Z"/><text class="cls-1" transform="translate(844.14 371.16)">=</text><path d="M947.33,353.07q-.6-3.17-1.24-6.08t-1.32-5.45a18,18,0,0,0-1.12-3.3,2.94,2.94,0,0,0-.94-1.08,2.45,2.45,0,0,0-1.26-.3,3.09,3.09,0,0,0-1.52.38,5.67,5.67,0,0,0-1.49,1.32,34,34,0,0,0-2.12,2.94l-2.6-1.72a25.5,25.5,0,0,1,4.84-5.68,8.43,8.43,0,0,1,5.49-1.88,7.59,7.59,0,0,1,2.18.28,4.61,4.61,0,0,1,1.66.86,5.76,5.76,0,0,1,1.28,1.5,12.7,12.7,0,0,1,1.08,2.5,33.25,33.25,0,0,1,1,3.92c.31,1.56.58,3.18.82,4.87h.4q3.84-5.41,5.83-7.91a30.39,30.39,0,0,1,3.34-3.72,8.91,8.91,0,0,1,2.62-1.72,9.07,9.07,0,0,1,3.34-.5,8.36,8.36,0,0,1,3.08.48l-1.6,7.24h-2.8c-.16-1.12-.63-1.68-1.4-1.68a2.66,2.66,0,0,0-.76.12,4,4,0,0,0-1,.52,13,13,0,0,0-1.7,1.56c-.75.78-1.59,1.72-2.52,2.84s-1.9,2.3-2.89,3.53l-2.72,3.4c.48,2.56.94,4.77,1.36,6.64s.81,3.42,1.14,4.67.63,2.22.89,2.94a5.26,5.26,0,0,0,.82,1.62,2.69,2.69,0,0,0,.9.76,2.36,2.36,0,0,0,1.06.22,3.28,3.28,0,0,0,2.1-.84,18.84,18.84,0,0,0,2.94-3.8l2.6,1.72A24.64,24.64,0,0,1,962,370.1a8.72,8.72,0,0,1-5.38,1.7,6.38,6.38,0,0,1-2.93-.62,5.5,5.5,0,0,1-2.08-2,14.22,14.22,0,0,1-1.56-4.24,64.15,64.15,0,0,1-1.52-7.85h-.4q-4.24,6-6.3,8.57a36.11,36.11,0,0,1-3.41,3.84,8.44,8.44,0,0,1-2.6,1.74,9.29,9.29,0,0,1-3.34.5,8.4,8.4,0,0,1-3.08-.48L931,364h2.8c.16,1.12.63,1.68,1.4,1.68a2.68,2.68,0,0,0,1.18-.3A7.82,7.82,0,0,0,938.2,364q1.17-1.14,3.21-3.59T947.33,353.07Z"/><path d="M990.22,387.74l.43-1.76a8.05,8.05,0,0,0,1.43-.36,2.17,2.17,0,0,0,1-.72,3.44,3.44,0,0,0,.62-1.36,9.87,9.87,0,0,0,.21-2.25c0-.34,0-.74,0-1.19s0-.93-.08-1.43-.06-1-.11-1.54-.09-1-.13-1.54H980.7c-.45.66-.88,1.33-1.31,2s-.83,1.36-1.18,2a11.49,11.49,0,0,0-.85,2,6.24,6.24,0,0,0-.32,1.93c0,1.4,1,2.21,3.08,2.44l-.37,1.76H967.17l.31-1.76a5.22,5.22,0,0,0,1.4-.44,5.52,5.52,0,0,0,1.3-1,12,12,0,0,0,1.46-1.76c.53-.74,1.17-1.71,1.92-2.92l18.53-30h4.75l2.62,30.42a16.81,16.81,0,0,0,.36,2.48,5.25,5.25,0,0,0,.68,1.67,2.8,2.8,0,0,0,1.08,1,4.84,4.84,0,0,0,1.62.49l-.43,1.76Zm2-31.52q-2.51,4.09-5,8.19c-1.64,2.74-3.29,5.47-5,8.22h11.08c-.1-1.23-.19-2.43-.29-3.61s-.17-2.43-.23-3.73-.11-2.7-.16-4.17-.07-3.11-.07-4.9Z"/><text class="cls-7" transform="translate(1009.92 371.16)"> </text></svg>