<svg id="Capa_1" data-name="Capa 1" xmlns="http://www.w3.org/2000/svg" viewBox="0 0 456.64 419.61"><defs><style>.cls-1{font-size:25.98px;fill:#8fa9d9;}.cls-1,.cls-11,.cls-6,.cls-7{font-family:ArialMT, Arial;}.cls-12,.cls-2,.cls-4,.cls-8{fill:none;}.cls-10,.cls-3,.cls-6,.cls-7,.cls-9{font-size:15.64px;}.cls-10,.cls-3,.cls-5{font-family:Arial-ItalicMT, Arial;font-style:italic;}.cls-4{stroke:#000;}.cls-12,.cls-4,.cls-8{stroke-miterlimit:10;}.cls-5{font-size:15.02px;}.cls-10,.cls-7,.cls-9{fill:#1d1d1b;}.cls-8{stroke:#1d1d1b;}.cls-9{font-family:Arial-BoldMT, Arial;font-weight:700;}.cls-11{font-style:normal;}.cls-12{stroke:#e95215;}</style></defs><title>ejercicio_ejemplo1</title><text class="cls-1" transform="translate(8.6 18.2)"> </text><text class="cls-1" transform="translate(4.7 60)"> </text><text class="cls-1" transform="translate(152.61 52.65)"> </text><rect class="cls-2" x="4.67" y="2.31" width="276.21" height="89.1"/><text class="cls-3" transform="translate(15.88 27.53)">R</text><line class="cls-4" x1="14.06" y1="13.94" x2="35.91" y2="13.94"/><text class="cls-5" transform="translate(24.98 32.78)">O</text><text class="cls-1" transform="translate(9.52 70.47)"> </text><text class="cls-3" transform="translate(16.8 79.8)">R</text><line class="cls-4" x1="14.98" y1="66.2" x2="36.83" y2="66.2"/><text class="cls-5" transform="translate(25.91 85.04)">O</text><text class="cls-1" transform="translate(9.52 183.5)"> </text><text class="cls-3" transform="translate(14.98 195.34)">VT</text><line class="cls-4" x1="14.98" y1="179.24" x2="36.83" y2="179.24"/><text class="cls-1" transform="translate(107.73 331.81)"> </text><text class="cls-3" transform="translate(89.58 342.67)">VT</text><line class="cls-4" x1="113.19" y1="327.55" x2="135.04" y2="327.55"/><text class="cls-1" transform="translate(11.33 235.88)"> </text><text class="cls-3" transform="translate(16.79 247.72)">VT</text><line class="cls-4" x1="16.79" y1="231.62" x2="38.64" y2="231.62"/><line class="cls-4" x1="50.89" y1="239.18" x2="133.28" y2="239.18"/><text class="cls-6" transform="translate(38.99 27.53)">:distancia promedio al sol</text><text class="cls-6" transform="translate(19.5 110.7)">Distancia recorrida en un año;</text><text class="cls-6" transform="translate(18.27 151.11)">d = 2 </text><text class="cls-6" transform="translate(38.99 78.74)"><tspan xml:space="preserve">= 149,6x10⁶ km  =  149,6x10⁹m</tspan></text><text class="cls-7" transform="translate(54.99 152.18)">π R0 = 2π (149,6x10⁶km) = 939,96x10⁶km</text><line class="cls-8" x1="67.61" y1="136.82" x2="87.11" y2="136.82"/><text class="cls-6" transform="translate(38.99 192.51)">: velocidad promedio alrededor del sol</text><text class="cls-7" transform="translate(38.99 244.72)">=</text><text class="cls-7" transform="translate(80.85 233.12)">d</text><text class="cls-7" transform="translate(50.89 252.47)">365,25 dias</text><line class="cls-4" x1="145.98" y1="239.18" x2="246.47" y2="239.18"/><text class="cls-7" transform="translate(146.88 235.88)">939,96x10⁶km</text><text class="cls-7" transform="translate(156 252.47)">365,25 dias</text><line class="cls-4" x1="323.47" y1="239.18" x2="346.5" y2="239.18"/><text class="cls-7" transform="translate(324.37 235.88)">km</text><text class="cls-7" transform="translate(324.76 252.47)">dia</text><line class="cls-4" x1="413.35" y1="336.99" x2="436.39" y2="336.99"/><text class="cls-7" transform="translate(417.55 333.7)">m</text><text class="cls-7" transform="translate(420.54 350.29)">s</text><text class="cls-7" transform="translate(135.04 244.72)">=</text><text class="cls-7" transform="translate(248.32 244.72)">=2,57x10⁶</text><text class="cls-7" transform="translate(23.34 285.08)">Ahora, se hace la conversión de unidades para pasar<tspan x="97.36" y="18.76" xml:space="preserve"> km a m y día a segundo:</tspan></text><text class="cls-7" transform="translate(110.83 342)">= 2,57x10⁶</text><text class="cls-7" transform="translate(191.87 333.82)">km</text><text class="cls-7" transform="translate(191.86 350.15)">dia</text><line class="cls-8" x1="185.57" y1="336.14" x2="220.01" y2="336.14"/><text class="cls-7" transform="translate(222.87 344.98)">*</text><text class="cls-7" transform="translate(230.95 333.82)">1000m</text><text class="cls-7" transform="translate(244.44 350.15)">km</text><line class="cls-8" x1="230.95" y1="336.14" x2="281.07" y2="336.14"/><text class="cls-9" transform="translate(199.1 389.31)">(29745,4)²</text><text class="cls-9" transform="translate(194.59 408.91)">149,6x10⁹</text><line class="cls-8" x1="198.45" y1="394.89" x2="272.94" y2="394.89"/><text class="cls-9" transform="translate(290.94 389.31)">5.9x10³m</text><text class="cls-10" transform="translate(312.52 408.91)">s<tspan class="cls-11" x="7.82" y="0">²</tspan></text><line class="cls-8" x1="287.63" y1="394.89" x2="361.63" y2="394.89"/><text class="cls-7" transform="translate(304.4 333.82)">dia</text><text class="cls-7" transform="translate(288.76 350.15)">86400S</text><line class="cls-8" x1="290.92" y1="336.14" x2="341.04" y2="336.14"/><text class="cls-7" transform="translate(283.94 344.98)">*</text><text class="cls-7" transform="translate(344.46 341.98)">=29745.4</text><path class="cls-12" d="M216.52,322.39c-2.1,1.5-27.34,13.21-27.34,13.21"/><path class="cls-12" d="M222.15,339.09c-2.1,1.51-27.34,13.22-27.34,13.22"/><path class="cls-12" d="M265.65,339.09c-2.1,1.51-27.34,13.22-27.34,13.22"/><path class="cls-12" d="M324.37,320.66c-2.1,1.5-27.35,13.21-27.35,13.21"/><text class="cls-9" transform="translate(133.06 396.83)">a</text><text class="cls-9" transform="translate(141.87 403.97)">C</text><text class="cls-7" transform="translate(154.64 399.71)">= </text><text class="cls-7" transform="translate(186.09 399.71)">= </text><text class="cls-7" transform="translate(275.98 399.71)">= </text><text class="cls-9" transform="translate(167.59 389.3)">v²</text><text class="cls-9" transform="translate(168.9 409.83)">R</text><line class="cls-8" x1="166.3" y1="395.19" x2="182.45" y2="395.19"/></svg>