<svg id="Capa_1" data-name="Capa 1" xmlns="http://www.w3.org/2000/svg" viewBox="0 0 758 328"><defs><style>.cls-1{fill:#40a7e3;}</style></defs><title>Ejercicio_liebre version 2</title><polygon class="cls-1" points="304.29 177.56 379.45 177.56 379.45 184.9 393.9 176.56 379.45 168.21 379.45 175.55 304.29 175.55 304.29 177.56"/><path d="M92.25,36.31,96.67,15.2h5.69c1.59,0,2.6,0,3,.07a9.36,9.36,0,0,1,2.34.53,6.31,6.31,0,0,1,1.87,1.14,6.77,6.77,0,0,1,1.46,1.75A8.43,8.43,0,0,1,112,21a12.14,12.14,0,0,1,.33,2.92A13.49,13.49,0,0,1,111,30a11.9,11.9,0,0,1-3.28,4.2,9.92,9.92,0,0,1-3.9,1.79,20.06,20.06,0,0,1-4.16.31Zm5.06-3.39h2.2a14.16,14.16,0,0,0,3.46-.3,4.84,4.84,0,0,0,2-1.1,9.54,9.54,0,0,0,2.16-3.11,11,11,0,0,0,.88-4.58,6.26,6.26,0,0,0-.73-3.38,3.54,3.54,0,0,0-1.79-1.51,9.51,9.51,0,0,0-2.67-.25h-2.52Z"/><path d="M119.28,25.35l-4-.34a6.09,6.09,0,0,1,2.41-3.2,8.07,8.07,0,0,1,4.56-1.15,6.65,6.65,0,0,1,4.37,1.19,3.66,3.66,0,0,1,1.41,2.9,9.69,9.69,0,0,1-.12,1.47c-.09.52-.37,1.88-.86,4.09a21.38,21.38,0,0,0-.61,3.83,7.88,7.88,0,0,0,.35,2.17h-4a8.15,8.15,0,0,1-.3-1.72,6.37,6.37,0,0,1-2.09,1.54,5.68,5.68,0,0,1-2.38.54,4.26,4.26,0,0,1-3.14-1.24,4.37,4.37,0,0,1-1.23-3.21,4.63,4.63,0,0,1,1.36-3.5q1.35-1.3,4.86-1.58a19,19,0,0,0,3.94-.59,4.89,4.89,0,0,0,.26-1.38,1.35,1.35,0,0,0-.53-1.11,2.38,2.38,0,0,0-1.58-.45,3,3,0,0,0-1.75.45A2.33,2.33,0,0,0,119.28,25.35Zm3.94,3.84c-.25.06-.58.12-1,.18a9.47,9.47,0,0,0-4.06,1.1,1.73,1.73,0,0,0-.16,2.61,1.91,1.91,0,0,0,1.37.5,3.57,3.57,0,0,0,1.77-.46A3.07,3.07,0,0,0,122.37,32a7.79,7.79,0,0,0,.73-2.23Z"/><path d="M130.89,24.09l.64-3.07h2l.51-2.45,4.74-2.85L137.68,21h2.52l-.64,3.07H137l-1.34,6.41q-.36,1.74-.36,2a.92.92,0,0,0,.3.74,1.68,1.68,0,0,0,1.1.27c.18,0,.64,0,1.37-.1l-.65,3.07a11.29,11.29,0,0,1-2.19.21,4.93,4.93,0,0,1-3.19-.84,2.9,2.9,0,0,1-1-2.34,22.49,22.49,0,0,1,.53-3.25l1.29-6.15Z"/><path d="M140.28,30a9.42,9.42,0,0,1,2.4-6.77,8.27,8.27,0,0,1,6.3-2.53,7.25,7.25,0,0,1,5.29,1.86,6.72,6.72,0,0,1,1.9,5A9.41,9.41,0,0,1,153.79,34a8,8,0,0,1-6.36,2.7,8.16,8.16,0,0,1-3.83-.86,5.57,5.57,0,0,1-2.49-2.45A7.24,7.24,0,0,1,140.28,30ZM152.07,27a3.28,3.28,0,0,0-.86-2.36,2.94,2.94,0,0,0-2.21-.88,3.73,3.73,0,0,0-2.38.83A5.27,5.27,0,0,0,145,27a8.39,8.39,0,0,0-.58,2.9,3.66,3.66,0,0,0,.9,2.61,2.89,2.89,0,0,0,2.24,1A3.49,3.49,0,0,0,150.42,32,7.75,7.75,0,0,0,152.07,27Z"/><path d="M157.16,32l4-.64a3.24,3.24,0,0,0,3.48,2.32,3.75,3.75,0,0,0,2.27-.63,1.28,1.28,0,0,0,.59-1.05,1.05,1.05,0,0,0-.31-.75,5.27,5.27,0,0,0-1.71-.78,18.78,18.78,0,0,1-4.64-2,3.6,3.6,0,0,1-1.4-2.94,4.2,4.2,0,0,1,1.36-3.12,9.61,9.61,0,0,1,10.07-.75,4.73,4.73,0,0,1,1.91,2.92l-3.81.66a2.43,2.43,0,0,0-1-1.25,4.26,4.26,0,0,0-2.22-.56,3.12,3.12,0,0,0-1.87.43,1.24,1.24,0,0,0-.57,1,1.12,1.12,0,0,0,.58.95,13.63,13.63,0,0,0,2.32.8,12.47,12.47,0,0,1,4,1.73,3.63,3.63,0,0,1,1.44,2.88,4.88,4.88,0,0,1-1.83,3.78,7.62,7.62,0,0,1-5.16,1.59,9.14,9.14,0,0,1-5.12-1.21A6.09,6.09,0,0,1,157.16,32Z"/><path d="M175.83,32.32h4.09l-.83,4H175ZM178.19,21h4.08l-.84,4h-4.07Z"/><path d="M202.4,39.64l-4.57-23.76h3.06L203.65,30c.5,2.57.83,4.65,1,6.22,1-2,1.81-3.64,2.45-4.82l8.48-15.56h3.27l-13,23.76Z"/><path d="M217.48,41.21l1.9-9.06a9.38,9.38,0,0,1-3.46,1.55l.28-1.34a12.1,12.1,0,0,0,2.18-1.16A11.06,11.06,0,0,0,220,30a4.43,4.43,0,0,0,.62-.8h.86L219,41.21Z"/><path d="M100.82,185.9,97.3,167.65h2.36l2.11,10.88c.39,2,.65,3.57.76,4.78.77-1.56,1.39-2.79,1.88-3.71l6.52-11.95h2.51l-10,18.25Z"/><path d="M114.3,185.38l1.46-6.94a7.19,7.19,0,0,1-2.65,1.19l.22-1a10,10,0,0,0,2.9-1.83,3.41,3.41,0,0,0,.48-.61h.66l-1.93,9.22Z"/><path d="M483.48,207.66,480,189.4h2.36l2.11,10.89c.39,2,.65,3.57.76,4.78.77-1.56,1.39-2.8,1.88-3.71l6.51-12h2.52l-10,18.26Z"/><path d="M497,207.13l1.45-6.93a7.06,7.06,0,0,1-2.64,1.18l.21-1a9,9,0,0,0,1.67-.89,8.1,8.1,0,0,0,1.24-.95,3.41,3.41,0,0,0,.48-.61H500l-1.92,9.22Z"/><path d="M538.41,207.66,534.9,189.4h2.35l2.12,10.89c.39,2,.64,3.57.76,4.78.76-1.56,1.39-2.8,1.88-3.71l6.51-12H551l-10,18.26Z"/><path d="M549.56,207.13a5,5,0,0,1,.49-1.37,4.68,4.68,0,0,1,.82-1c.35-.33,1-.89,2-1.67a12.54,12.54,0,0,0,1.22-1,3.34,3.34,0,0,0,.68-1,1.58,1.58,0,0,0,.14-.69,1.46,1.46,0,0,0-.44-1.08,1.53,1.53,0,0,0-1.1-.44,1.6,1.6,0,0,0-1.13.45,2.7,2.7,0,0,0-.69,1.44l-1.11-.17a3,3,0,0,1,1-1.92,2.85,2.85,0,0,1,2-.71,3.06,3.06,0,0,1,1.42.33,2.2,2.2,0,0,1,1,.91,2.47,2.47,0,0,1,.32,1.22,2.82,2.82,0,0,1-.65,1.76A17.56,17.56,0,0,1,553,204.2a14.36,14.36,0,0,0-1.25,1.09,4,4,0,0,0-.62.8h4.11l-.22,1Z"/><path d="M244.8,24.8h-8.57V23.31h8.57Zm0,3.95h-8.57V27.26h8.57Z"/><path d="M253.88,24.91a5.53,5.53,0,0,1,1.35-.84,3.48,3.48,0,0,1,1.32-.28,3.26,3.26,0,0,1,2.45,1,3.8,3.8,0,0,1,1,2.72,5.49,5.49,0,0,1-1.43,3.79,4,4,0,0,1-3,1.35,3.49,3.49,0,0,1-2.69-1.18,4.87,4.87,0,0,1-1.07-3.37,12.86,12.86,0,0,1,.69-4.05,9,9,0,0,1,1.32-2.65,5.31,5.31,0,0,1,1.66-1.52,4,4,0,0,1,2-.49,3,3,0,0,1,2.17.83,3.58,3.58,0,0,1,1,2.37l-1.49.14a2.46,2.46,0,0,0-.6-1.52,1.56,1.56,0,0,0-1.16-.47,2.37,2.37,0,0,0-1.44.55A4.61,4.61,0,0,0,254.6,23,9.51,9.51,0,0,0,253.88,24.91Zm-.55,3.88a2.63,2.63,0,0,0,.68,1.85,2,2,0,0,0,1.54.75,2.3,2.3,0,0,0,1.27-.46A3.68,3.68,0,0,0,258,29.54a4.09,4.09,0,0,0,.47-1.85,2.74,2.74,0,0,0-.65-1.9,2.08,2.08,0,0,0-1.58-.71,2.6,2.6,0,0,0-2,1A3.88,3.88,0,0,0,253.33,28.79Z"/><path d="M261.61,28.18a11.92,11.92,0,0,1,.49-3.35,12.24,12.24,0,0,1,1.09-2.72,6.77,6.77,0,0,1,1.25-1.59,4.77,4.77,0,0,1,1.27-.85,3.48,3.48,0,0,1,1.39-.27,3.22,3.22,0,0,1,2.49,1.11,4.62,4.62,0,0,1,1,3.19,13.68,13.68,0,0,1-.69,4.27,8.09,8.09,0,0,1-2.27,3.74,3.82,3.82,0,0,1-2.54.95,3.15,3.15,0,0,1-2.47-1.15A4.89,4.89,0,0,1,261.61,28.18Zm1.55.41a3.59,3.59,0,0,0,.4,1.86,1.75,1.75,0,0,0,1.6.94,2.27,2.27,0,0,0,1.69-.85,7.55,7.55,0,0,0,1.65-3.47,16.73,16.73,0,0,0,.56-3.75,3.07,3.07,0,0,0-.54-2,1.78,1.78,0,0,0-1.41-.62,2.27,2.27,0,0,0-1.19.33,3.33,3.33,0,0,0-1.06,1.13,11.42,11.42,0,0,0-1.25,3.36A14.26,14.26,0,0,0,263.16,28.59Z"/><path d="M330.27,24.8H321.7V23.31h8.57Zm0,3.95H321.7V27.26h8.57Z"/><path d="M340.07,32.44l2.05-9.81a10.11,10.11,0,0,1-3.74,1.68l.31-1.46a12.52,12.52,0,0,0,2.36-1.25,12.48,12.48,0,0,0,1.75-1.34,5.13,5.13,0,0,0,.67-.86h.93l-2.72,13Z"/><path d="M349.44,24.91a5.68,5.68,0,0,1,1.34-.84,3.57,3.57,0,0,1,1.33-.28,3.24,3.24,0,0,1,2.44,1,3.76,3.76,0,0,1,1,2.72,5.45,5.45,0,0,1-1.44,3.79,3.94,3.94,0,0,1-3,1.35,3.49,3.49,0,0,1-2.69-1.18,4.82,4.82,0,0,1-1.07-3.37,12.86,12.86,0,0,1,.69-4.05,9.23,9.23,0,0,1,1.31-2.65A5.34,5.34,0,0,1,351,19.89a4,4,0,0,1,2-.49,3,3,0,0,1,2.17.83,3.53,3.53,0,0,1,.95,2.37l-1.48.14a2.58,2.58,0,0,0-.6-1.52,1.56,1.56,0,0,0-1.16-.47,2.35,2.35,0,0,0-1.44.55A4.5,4.5,0,0,0,350.16,23,9.51,9.51,0,0,0,349.44,24.91Zm-.56,3.88a2.67,2.67,0,0,0,.68,1.85,2.06,2.06,0,0,0,1.55.75,2.33,2.33,0,0,0,1.27-.46,3.58,3.58,0,0,0,1.14-1.39,4,4,0,0,0,.47-1.85,2.69,2.69,0,0,0-.65-1.9,2.06,2.06,0,0,0-1.57-.71,2.58,2.58,0,0,0-2,1A3.88,3.88,0,0,0,348.88,28.79Z"/><path d="M356.86,32.44l.38-1.82h1.83l-.33,1.59a4.29,4.29,0,0,1-.93,2.09,2.39,2.39,0,0,1-1.49.76l.15-.7c.7-.19,1.16-.83,1.39-1.92Z"/><path d="M363.55,32.44a16,16,0,0,1,.91-3.15,24.68,24.68,0,0,1,2.16-4.42,18.75,18.75,0,0,1,3-3.77h-6.47l.31-1.47h8.29l-.3,1.47a17,17,0,0,0-3.69,4.77,24.09,24.09,0,0,0-2.5,6.57Z"/><rect x="280.69" y="25.6" width="29.78" height="0.63"/><path d="M284.39,20.89l2.72-13h1.59L287,16l4.67-4.47h2.12l-4,3.51,2.43,5.9h-1.76l-1.88-4.83-1.95,1.68L286,20.89Z"/><path d="M293.43,20.89l2-9.41H297L296.67,13a6.32,6.32,0,0,1,1.6-1.38,3.1,3.1,0,0,1,1.53-.38,2.32,2.32,0,0,1,1.47.46A2.18,2.18,0,0,1,302,13a5.41,5.41,0,0,1,1.51-1.33,3.43,3.43,0,0,1,1.67-.43,2.49,2.49,0,0,1,1.77.55,2.09,2.09,0,0,1,.59,1.57,8.1,8.1,0,0,1-.21,1.44l-1.26,6.06H304.5l1.3-6.22a6.08,6.08,0,0,0,.17-1.09.93.93,0,0,0-.3-.73,1.2,1.2,0,0,0-.82-.26,2.85,2.85,0,0,0-1.46.43,3.17,3.17,0,0,0-1.16,1.14,7.9,7.9,0,0,0-.72,2.16l-1,4.57H299l1.33-6.36a5.25,5.25,0,0,0,.14-.92,1,1,0,0,0-1-1A2.86,2.86,0,0,0,298,13a3.45,3.45,0,0,0-1.22,1.21,7.28,7.28,0,0,0-.77,2.21L295,20.89Z"/><path d="M291.44,43.22l2.71-13h1.6l-1,5A6.62,6.62,0,0,1,296.38,34,3.57,3.57,0,0,1,298,33.6a2.54,2.54,0,0,1,1.82.62,2.14,2.14,0,0,1,.65,1.62,10.83,10.83,0,0,1-.29,1.83L299,43.22h-1.6l1.2-5.69a10.85,10.85,0,0,0,.25-1.56,1,1,0,0,0-.32-.76,1.33,1.33,0,0,0-.92-.29,3.17,3.17,0,0,0-1.65.46,3.24,3.24,0,0,0-1.24,1.25,9.6,9.6,0,0,0-.82,2.55l-.84,4Z"/><rect x="379.14" y="25.6" width="29.78" height="0.63"/><path d="M388.52,20.89l2-9.41h1.61L391.76,13a6.32,6.32,0,0,1,1.6-1.38,3.1,3.1,0,0,1,1.53-.38,2.28,2.28,0,0,1,1.46.46,2.24,2.24,0,0,1,.78,1.3,5.41,5.41,0,0,1,1.51-1.33,3.41,3.41,0,0,1,1.67-.43,2.48,2.48,0,0,1,1.76.55,2.05,2.05,0,0,1,.59,1.57,7.83,7.83,0,0,1-.2,1.44l-1.27,6.06h-1.6l1.29-6.22a6.08,6.08,0,0,0,.17-1.09,1,1,0,0,0-.29-.73,1.23,1.23,0,0,0-.83-.26,2.91,2.91,0,0,0-1.46.43,3.14,3.14,0,0,0-1.15,1.14,7.27,7.27,0,0,0-.72,2.16l-1,4.57H394l1.32-6.36a4.63,4.63,0,0,0,.15-.92,1,1,0,0,0-1-1A2.83,2.83,0,0,0,393,13a3.37,3.37,0,0,0-1.22,1.21,7.28,7.28,0,0,0-.77,2.21l-.93,4.45Z"/><path d="M390,40l1.61-.1a3,3,0,0,0,.21,1.18,1.65,1.65,0,0,0,.78.79,2.73,2.73,0,0,0,1.34.31,2.52,2.52,0,0,0,1.59-.42,1.24,1.24,0,0,0,.53-1,1.16,1.16,0,0,0-.32-.79,5,5,0,0,0-1.6-.92,17.82,17.82,0,0,1-1.62-.76,2.76,2.76,0,0,1-.9-.86,2.12,2.12,0,0,1-.3-1.13,2.49,2.49,0,0,1,.89-1.91,3.59,3.59,0,0,1,2.48-.8,4,4,0,0,1,2.7.82,2.91,2.91,0,0,1,1,2.16l-1.57.1a1.78,1.78,0,0,0-.6-1.34,2.39,2.39,0,0,0-1.61-.5,2,2,0,0,0-1.29.38,1.08,1.08,0,0,0-.46.83,1,1,0,0,0,.4.78,6.5,6.5,0,0,0,1.37.7,9.75,9.75,0,0,1,2.32,1.26,2.39,2.39,0,0,1,.76,1.79,2.46,2.46,0,0,1-.43,1.37A2.91,2.91,0,0,1,396,43a4.9,4.9,0,0,1-2.07.4,4.7,4.7,0,0,1-2.78-.8A2.86,2.86,0,0,1,390,40Z"/><path d="M417.3,25.21l.38-1.81h1.83L419.18,25a4.2,4.2,0,0,1-.94,2.09,2.32,2.32,0,0,1-1.49.76l.15-.7c.7-.19,1.17-.83,1.39-1.92Z"/><path d="M461.25,39.64l-4.57-23.76h3.06L462.5,30c.51,2.57.84,4.65,1,6.22,1-2,1.81-3.64,2.44-4.82l8.48-15.56h3.27l-13,23.76Z"/><path d="M473.28,41.21a6.34,6.34,0,0,1,.63-1.79A6.18,6.18,0,0,1,475,38c.45-.43,1.31-1.16,2.59-2.18a17.62,17.62,0,0,0,1.58-1.37,4.59,4.59,0,0,0,.9-1.25,2.27,2.27,0,0,0,.18-.91,1.88,1.88,0,0,0-.58-1.4,2,2,0,0,0-1.44-.58,2.1,2.1,0,0,0-1.47.59,3.45,3.45,0,0,0-.9,1.88l-1.45-.22a3.9,3.9,0,0,1,1.24-2.51,3.67,3.67,0,0,1,2.56-.93,4,4,0,0,1,1.85.43,2.85,2.85,0,0,1,1.25,1.2,3.25,3.25,0,0,1,.42,1.58,3.74,3.74,0,0,1-.85,2.3,22.26,22.26,0,0,1-3.08,2.71,16.55,16.55,0,0,0-1.63,1.43,5,5,0,0,0-.81,1h5.37l-.29,1.35Z"/><path d="M503.66,24.8h-8.58V23.31h8.58Zm0,3.95h-8.58V27.26h8.58Z"/><path d="M512.74,24.91a5.48,5.48,0,0,1,1.34-.84,3.56,3.56,0,0,1,1.32-.28,3.25,3.25,0,0,1,2.45,1,3.8,3.8,0,0,1,1,2.72,5.44,5.44,0,0,1-1.43,3.79,3.94,3.94,0,0,1-3,1.35,3.48,3.48,0,0,1-2.69-1.18,4.82,4.82,0,0,1-1.08-3.37,12.86,12.86,0,0,1,.69-4.05,9.5,9.5,0,0,1,1.32-2.65,5.42,5.42,0,0,1,1.66-1.52,4,4,0,0,1,2-.49,3,3,0,0,1,2.17.83,3.58,3.58,0,0,1,1,2.37l-1.49.14a2.46,2.46,0,0,0-.6-1.52,1.54,1.54,0,0,0-1.15-.47,2.4,2.4,0,0,0-1.45.55A4.49,4.49,0,0,0,513.46,23,9.51,9.51,0,0,0,512.74,24.91Zm-.56,3.88a2.67,2.67,0,0,0,.68,1.85,2.05,2.05,0,0,0,1.54.75,2.36,2.36,0,0,0,1.28-.46,3.58,3.58,0,0,0,1.14-1.39,4.09,4.09,0,0,0,.47-1.85,2.74,2.74,0,0,0-.65-1.9,2.06,2.06,0,0,0-1.57-.71,2.61,2.61,0,0,0-2,1A3.88,3.88,0,0,0,512.18,28.79Z"/><path d="M520.46,28.18a13.25,13.25,0,0,1,1.59-6.07,6.52,6.52,0,0,1,1.25-1.59,4.62,4.62,0,0,1,1.27-.85A3.43,3.43,0,0,1,526,19.4a3.19,3.19,0,0,1,2.49,1.11,4.62,4.62,0,0,1,1,3.19,13.68,13.68,0,0,1-.69,4.27,8.17,8.17,0,0,1-2.27,3.74,3.84,3.84,0,0,1-2.54.95,3.14,3.14,0,0,1-2.47-1.15A4.89,4.89,0,0,1,520.46,28.18Zm1.55.41a3.7,3.7,0,0,0,.4,1.86,1.76,1.76,0,0,0,1.6.94,2.27,2.27,0,0,0,1.7-.85,7.75,7.75,0,0,0,1.65-3.47,16.62,16.62,0,0,0,.55-3.75,3.13,3.13,0,0,0-.53-2,1.8,1.8,0,0,0-1.42-.62,2.3,2.3,0,0,0-1.19.33,3.33,3.33,0,0,0-1.06,1.13,11.71,11.71,0,0,0-1.25,3.36A14.26,14.26,0,0,0,522,28.59Z"/><path d="M589.12,24.8h-8.57V23.31h8.57Zm0,3.95h-8.57V27.26h8.57Z"/><path d="M595.62,32.44a7.05,7.05,0,0,1,.68-1.95A6.62,6.62,0,0,1,597.47,29c.48-.47,1.42-1.26,2.8-2.36A20.44,20.44,0,0,0,602,25.17a5,5,0,0,0,1-1.36,2.3,2.3,0,0,0,.21-1,2.05,2.05,0,0,0-.64-1.52,2.11,2.11,0,0,0-1.55-.63,2.26,2.26,0,0,0-1.6.64,3.75,3.75,0,0,0-1,2l-1.57-.23a4.24,4.24,0,0,1,1.34-2.72,4,4,0,0,1,2.77-1,4.31,4.31,0,0,1,2,.46,3.12,3.12,0,0,1,1.35,1.29,3.59,3.59,0,0,1,.45,1.72,4.07,4.07,0,0,1-.92,2.49,24.66,24.66,0,0,1-3.33,2.93,20.19,20.19,0,0,0-1.77,1.54,5.31,5.31,0,0,0-.87,1.14h5.81l-.31,1.47Z"/><path d="M608.29,24.91a5.53,5.53,0,0,1,1.35-.84,3.48,3.48,0,0,1,1.32-.28,3.26,3.26,0,0,1,2.45,1,3.8,3.8,0,0,1,1,2.72,5.49,5.49,0,0,1-1.43,3.79,4,4,0,0,1-3,1.35,3.46,3.46,0,0,1-2.68-1.18,4.82,4.82,0,0,1-1.08-3.37,12.86,12.86,0,0,1,.69-4.05,9,9,0,0,1,1.32-2.65,5.31,5.31,0,0,1,1.66-1.52,4,4,0,0,1,2-.49,3,3,0,0,1,2.17.83,3.58,3.58,0,0,1,1,2.37l-1.49.14a2.46,2.46,0,0,0-.6-1.52,1.56,1.56,0,0,0-1.16-.47,2.39,2.39,0,0,0-1.44.55A4.61,4.61,0,0,0,609,23,9.51,9.51,0,0,0,608.29,24.91Zm-.55,3.88a2.63,2.63,0,0,0,.68,1.85,2,2,0,0,0,1.54.75,2.36,2.36,0,0,0,1.28-.46,3.76,3.76,0,0,0,1.14-1.39,4.09,4.09,0,0,0,.47-1.85,2.74,2.74,0,0,0-.65-1.9,2.08,2.08,0,0,0-1.58-.71,2.6,2.6,0,0,0-2,1A3.88,3.88,0,0,0,607.74,28.79Z"/><path d="M615.72,32.44l.38-1.82h1.82l-.32,1.59a4.38,4.38,0,0,1-.94,2.09,2.37,2.37,0,0,1-1.49.76l.15-.7c.7-.19,1.17-.83,1.39-1.92Z"/><path d="M623.87,25.3a2.77,2.77,0,0,1-1.09-1,2.69,2.69,0,0,1-.37-1.35,3.35,3.35,0,0,1,.85-2.18,3.83,3.83,0,0,1,3.08-1.35,3.74,3.74,0,0,1,2.69.92,2.94,2.94,0,0,1,1,2.24,2.9,2.9,0,0,1-.54,1.71,3.61,3.61,0,0,1-1.66,1.22,3.29,3.29,0,0,1,1.11,1,3.19,3.19,0,0,1,.44,1.68,4.49,4.49,0,0,1-1.24,3.11,4.25,4.25,0,0,1-3.29,1.36,3.68,3.68,0,0,1-2.67-1,3.39,3.39,0,0,1-1-2.53,4.05,4.05,0,0,1,.73-2.44A3.57,3.57,0,0,1,623.87,25.3Zm-1.13,4a2.22,2.22,0,0,0,.26,1,1.91,1.91,0,0,0,.8.79,2.47,2.47,0,0,0,3.32-.93,3.68,3.68,0,0,0,.64-2.06,2,2,0,0,0-.59-1.48,2.15,2.15,0,0,0-1.55-.58,2.69,2.69,0,0,0-2,.9A3.25,3.25,0,0,0,622.74,29.27ZM624,23a1.77,1.77,0,0,0,.54,1.35,2,2,0,0,0,1.47.51,2.49,2.49,0,0,0,1.79-.67,2.25,2.25,0,0,0,.68-1.65,1.81,1.81,0,0,0-.53-1.34,2.07,2.07,0,0,0-1.48-.52,2.64,2.64,0,0,0-1.3.33,2.15,2.15,0,0,0-.88.89A2.44,2.44,0,0,0,624,23Z"/><rect x="539.54" y="25.6" width="29.78" height="0.63"/><path d="M543.21,20.89l2-9.41h1.6L546.45,13a6.32,6.32,0,0,1,1.6-1.38,3.1,3.1,0,0,1,1.53-.38,2.29,2.29,0,0,1,1.47.46,2.18,2.18,0,0,1,.77,1.3,5.41,5.41,0,0,1,1.51-1.33,3.43,3.43,0,0,1,1.67-.43,2.49,2.49,0,0,1,1.77.55,2.09,2.09,0,0,1,.59,1.57,8.85,8.85,0,0,1-.2,1.44l-1.27,6.06h-1.6l1.29-6.22a6.08,6.08,0,0,0,.17-1.09,1,1,0,0,0-.29-.73,1.23,1.23,0,0,0-.83-.26,2.88,2.88,0,0,0-1.46.43A3.17,3.17,0,0,0,552,14.16a7.9,7.9,0,0,0-.72,2.16l-.95,4.57h-1.61l1.33-6.36a5.25,5.25,0,0,0,.14-.92,1,1,0,0,0-.29-.74,1,1,0,0,0-.74-.28,2.87,2.87,0,0,0-1.44.43,3.42,3.42,0,0,0-1.21,1.21,7,7,0,0,0-.77,2.21l-.93,4.45Z"/><path d="M558.27,20.89l2-9.41h1.6l-2,9.41Zm2.34-11.17L561,7.9h1.6l-.38,1.82Z"/><path d="M550.29,43.22l2.71-13h1.6l-1,5A6.59,6.59,0,0,1,555.23,34a3.61,3.61,0,0,1,1.59-.38,2.51,2.51,0,0,1,1.81.62,2.14,2.14,0,0,1,.65,1.62,10.48,10.48,0,0,1-.28,1.83l-1.16,5.55h-1.61l1.2-5.69a11.53,11.53,0,0,0,.26-1.56,1,1,0,0,0-.32-.76,1.35,1.35,0,0,0-.92-.29,3.2,3.2,0,0,0-1.66.46,3.24,3.24,0,0,0-1.24,1.25,10,10,0,0,0-.82,2.55l-.84,4Z"/><rect x="637.99" y="25.6" width="29.78" height="0.63"/><path d="M647.37,20.89l2-9.41h1.6L650.61,13a6.32,6.32,0,0,1,1.6-1.38,3.1,3.1,0,0,1,1.53-.38,2.32,2.32,0,0,1,1.47.46A2.18,2.18,0,0,1,656,13a5.41,5.41,0,0,1,1.51-1.33,3.43,3.43,0,0,1,1.67-.43,2.5,2.5,0,0,1,1.77.55,2.09,2.09,0,0,1,.59,1.57,8.1,8.1,0,0,1-.21,1.44l-1.26,6.06h-1.61l1.3-6.22a5.82,5.82,0,0,0,.16-1.09.92.92,0,0,0-.29-.73,1.2,1.2,0,0,0-.82-.26,2.85,2.85,0,0,0-1.46.43,3.1,3.1,0,0,0-1.16,1.14,7.9,7.9,0,0,0-.72,2.16l-1,4.57h-1.6l1.33-6.36a5.25,5.25,0,0,0,.14-.92,1,1,0,0,0-1-1,2.86,2.86,0,0,0-1.43.43,3.45,3.45,0,0,0-1.22,1.21,7.28,7.28,0,0,0-.77,2.21L649,20.89Z"/><path d="M648.89,40l1.6-.1a3,3,0,0,0,.21,1.18,1.68,1.68,0,0,0,.79.79,2.7,2.7,0,0,0,1.33.31,2.52,2.52,0,0,0,1.59-.42,1.25,1.25,0,0,0,.54-1,1.21,1.21,0,0,0-.32-.79,5.12,5.12,0,0,0-1.6-.92,17.14,17.14,0,0,1-1.63-.76,2.72,2.72,0,0,1-.89-.86,2.12,2.12,0,0,1-.3-1.13,2.48,2.48,0,0,1,.88-1.91,3.59,3.59,0,0,1,2.48-.8,4,4,0,0,1,2.7.82,2.84,2.84,0,0,1,1,2.16l-1.57.1a1.78,1.78,0,0,0-.6-1.34,2.36,2.36,0,0,0-1.6-.5,2,2,0,0,0-1.3.38,1.11,1.11,0,0,0-.46.83,1,1,0,0,0,.4.78,6.68,6.68,0,0,0,1.38.7,10,10,0,0,1,2.32,1.26,2.43,2.43,0,0,1,.76,1.79,2.54,2.54,0,0,1-.43,1.37A3,3,0,0,1,654.82,43a5,5,0,0,1-2.08.4,4.65,4.65,0,0,1-2.77-.8A2.86,2.86,0,0,1,648.89,40Z"/><path d="M99.14,86.16a3.85,3.85,0,0,1-2.87,1.57,2.91,2.91,0,0,1-2.23-1,4.18,4.18,0,0,1-.89-2.87,7,7,0,0,1,.71-3.14,5.34,5.34,0,0,1,1.76-2.13,3.81,3.81,0,0,1,2.12-.71,2.84,2.84,0,0,1,2.65,1.69l1.07-5.06h1.59l-2.71,13H98.86Zm-4.39-2.58a5,5,0,0,0,.19,1.55,2,2,0,0,0,.67.94,1.74,1.74,0,0,0,1.12.38,2.52,2.52,0,0,0,2-1.13,5.87,5.87,0,0,0,1.19-3.73,2.46,2.46,0,0,0-.59-1.74,1.92,1.92,0,0,0-1.47-.63,2.21,2.21,0,0,0-1,.26,3.11,3.11,0,0,0-.94.87,5.41,5.41,0,0,0-.78,1.56A5.18,5.18,0,0,0,94.75,83.58Z"/><path d="M106.66,87.52l2-9.81A10.18,10.18,0,0,1,105,79.39l.3-1.45a13.1,13.1,0,0,0,2.36-1.25,12.58,12.58,0,0,0,1.75-1.35,5.16,5.16,0,0,0,.68-.86H111l-2.72,13Z"/><path d="M122.58,79.88H114V78.4h8.57Zm0,4H114V82.34h8.57Z"/><path d="M129.92,86.16a3.86,3.86,0,0,1-2.87,1.57,2.9,2.9,0,0,1-2.23-1,4.18,4.18,0,0,1-.89-2.87,7,7,0,0,1,.7-3.14,5.28,5.28,0,0,1,1.77-2.13,3.79,3.79,0,0,1,2.12-.71,2.85,2.85,0,0,1,2.65,1.69l1.06-5.06h1.59l-2.71,13h-1.48Zm-4.4-2.58a4.94,4.94,0,0,0,.2,1.55,2,2,0,0,0,.66.94,1.77,1.77,0,0,0,1.13.38,2.52,2.52,0,0,0,2-1.13,5.81,5.81,0,0,0,1.19-3.73,2.46,2.46,0,0,0-.58-1.74,1.92,1.92,0,0,0-1.47-.63,2.15,2.15,0,0,0-1.05.26,3,3,0,0,0-.94.87,5.68,5.68,0,0,0-.79,1.56A5.46,5.46,0,0,0,125.52,83.58Z"/><path d="M134.13,87.52a6.86,6.86,0,0,1,.68-1.94A6.45,6.45,0,0,1,136,84.09c.48-.47,1.42-1.26,2.8-2.36a20.44,20.44,0,0,0,1.72-1.48,4.87,4.87,0,0,0,1-1.36,2.3,2.3,0,0,0,.21-1,2.07,2.07,0,0,0-.64-1.52,2.1,2.1,0,0,0-1.55-.62,2.29,2.29,0,0,0-1.6.63,3.75,3.75,0,0,0-1,2l-1.57-.23a4.24,4.24,0,0,1,1.34-2.72,4,4,0,0,1,2.77-1,4.31,4.31,0,0,1,2,.46,3.12,3.12,0,0,1,1.35,1.29,3.59,3.59,0,0,1,.45,1.72,4,4,0,0,1-.92,2.49A23.94,23.94,0,0,1,139,83.37a18.46,18.46,0,0,0-1.77,1.55,5.28,5.28,0,0,0-.87,1.13h5.81l-.31,1.47Z"/><path d="M144.14,87.52l.38-1.82h1.82L146,87.29a4.29,4.29,0,0,1-.93,2.09,2.37,2.37,0,0,1-1.49.76l.15-.7c.7-.19,1.16-.83,1.39-1.92Z"/><path d="M160.18,86.16a3.86,3.86,0,0,1-2.87,1.57,2.91,2.91,0,0,1-2.23-1,4.18,4.18,0,0,1-.89-2.87,7,7,0,0,1,.71-3.14,5.26,5.26,0,0,1,1.76-2.13,3.79,3.79,0,0,1,2.12-.71,2.85,2.85,0,0,1,2.65,1.69l1.06-5.06h1.6l-2.71,13H159.9Zm-4.39-2.58a5,5,0,0,0,.19,1.55,2,2,0,0,0,.67.94,1.73,1.73,0,0,0,1.12.38,2.52,2.52,0,0,0,2-1.13,5.86,5.86,0,0,0,1.18-3.73,2.46,2.46,0,0,0-.58-1.74,1.92,1.92,0,0,0-1.47-.63,2.15,2.15,0,0,0-1,.26,3,3,0,0,0-.94.87,5.41,5.41,0,0,0-.78,1.56A5.18,5.18,0,0,0,155.79,83.58Z"/><path d="M170.84,84.32l1.56.16a4.74,4.74,0,0,1-1.55,2.21,4.25,4.25,0,0,1-2.88,1,3.91,3.91,0,0,1-1.92-.48,3.16,3.16,0,0,1-1.33-1.4,4.76,4.76,0,0,1-.46-2.1,6.62,6.62,0,0,1,.72-3,5.08,5.08,0,0,1,1.84-2.16,4.68,4.68,0,0,1,2.46-.7A3.55,3.55,0,0,1,172,79a3.92,3.92,0,0,1,1,2.85,8.78,8.78,0,0,1-.12,1.42h-6.93a4.6,4.6,0,0,0,0,.49,3,3,0,0,0,.61,2,1.91,1.91,0,0,0,1.49.69,2.88,2.88,0,0,0,1.62-.54A3.56,3.56,0,0,0,170.84,84.32ZM166.18,82h5.28c0-.16,0-.28,0-.35a2.58,2.58,0,0,0-.61-1.85,2,2,0,0,0-1.55-.64,2.86,2.86,0,0,0-1.87.71A4.2,4.2,0,0,0,166.18,82Z"/><path d="M174,87.52l2.71-13h1.6l-1,4.65a5.3,5.3,0,0,1,1.38-1A3,3,0,0,1,180,77.9a2.84,2.84,0,0,1,2.2,1,4.16,4.16,0,0,1,.88,2.87,6.9,6.9,0,0,1-.35,2.28,6.44,6.44,0,0,1-.88,1.74,5.6,5.6,0,0,1-1.08,1.13,4.3,4.3,0,0,1-1.14.63,3.59,3.59,0,0,1-1.13.2,2.81,2.81,0,0,1-1.64-.49,3.17,3.17,0,0,1-1.1-1.5l-.37,1.78Zm2.37-3.86V84a2.59,2.59,0,0,0,.58,1.83,1.85,1.85,0,0,0,1.43.63,2.33,2.33,0,0,0,1.55-.59A4.23,4.23,0,0,0,181.1,84a6.82,6.82,0,0,0,.45-2.3,2.72,2.72,0,0,0-.57-1.84,1.82,1.82,0,0,0-1.42-.66,2.31,2.31,0,0,0-1.59.67,5,5,0,0,0-1.22,2.06A5.49,5.49,0,0,0,176.39,83.66Z"/><path d="M191,84.32l1.56.16A4.74,4.74,0,0,1,191,86.69a4.25,4.25,0,0,1-2.88,1,3.91,3.91,0,0,1-1.92-.48,3.16,3.16,0,0,1-1.33-1.4,4.76,4.76,0,0,1-.46-2.1,6.62,6.62,0,0,1,.72-3A5.08,5.08,0,0,1,187,78.6a4.68,4.68,0,0,1,2.46-.7,3.55,3.55,0,0,1,2.69,1,3.92,3.92,0,0,1,1,2.85,8.78,8.78,0,0,1-.12,1.42H186.1a4.42,4.42,0,0,0,0,.49,3,3,0,0,0,.6,2,1.91,1.91,0,0,0,1.49.69,2.85,2.85,0,0,0,1.62-.54A3.56,3.56,0,0,0,191,84.32ZM186.36,82h5.28c0-.16,0-.28,0-.35a2.58,2.58,0,0,0-.61-1.85,2,2,0,0,0-1.55-.64,2.86,2.86,0,0,0-1.87.71A4.27,4.27,0,0,0,186.36,82Z"/><path d="M194.2,87.52l2-9.41h1.46l-.35,1.64A7.88,7.88,0,0,1,199,78.34a3.58,3.58,0,0,1,1.69-.44,2.5,2.5,0,0,1,1.79.62,2.2,2.2,0,0,1,.65,1.66,9.5,9.5,0,0,1-.23,1.64l-1.2,5.7h-1.6l1.25-6a7.32,7.32,0,0,0,.19-1.29,1,1,0,0,0-.33-.76,1.35,1.35,0,0,0-.93-.29,3.15,3.15,0,0,0-2.19.89,5.64,5.64,0,0,0-1.42,3l-.91,4.38Z"/><path d="M216.24,84.32l1.56.16a4.74,4.74,0,0,1-1.55,2.21,4.24,4.24,0,0,1-2.88,1,3.91,3.91,0,0,1-1.92-.48,3.22,3.22,0,0,1-1.33-1.4,4.76,4.76,0,0,1-.45-2.1,6.61,6.61,0,0,1,.71-3,5,5,0,0,1,1.85-2.16,4.62,4.62,0,0,1,2.45-.7,3.55,3.55,0,0,1,2.69,1,3.92,3.92,0,0,1,1,2.85,8.78,8.78,0,0,1-.12,1.42h-6.93a4.42,4.42,0,0,0,0,.49,3,3,0,0,0,.6,2,1.91,1.91,0,0,0,1.49.69,2.85,2.85,0,0,0,1.62-.54A3.56,3.56,0,0,0,216.24,84.32ZM211.58,82h5.28c0-.16,0-.28,0-.35a2.58,2.58,0,0,0-.61-1.85,2,2,0,0,0-1.55-.64,2.86,2.86,0,0,0-1.87.71A4.27,4.27,0,0,0,211.58,82Z"/><path d="M219.57,84.31l1.6-.1a3,3,0,0,0,.21,1.18,1.72,1.72,0,0,0,.79.79,2.7,2.7,0,0,0,1.33.31,2.57,2.57,0,0,0,1.6-.42,1.28,1.28,0,0,0,.53-1,1.21,1.21,0,0,0-.32-.79,4.93,4.93,0,0,0-1.6-.92,17.14,17.14,0,0,1-1.63-.76,2.72,2.72,0,0,1-.89-.86,2.12,2.12,0,0,1-.3-1.13,2.46,2.46,0,0,1,.89-1.91,3.57,3.57,0,0,1,2.48-.8,3.9,3.9,0,0,1,2.69.82,2.84,2.84,0,0,1,1,2.16l-1.56.1a1.82,1.82,0,0,0-.61-1.34,2.34,2.34,0,0,0-1.6-.5,2,2,0,0,0-1.29.38,1.08,1.08,0,0,0-.46.83,1,1,0,0,0,.4.78,6.74,6.74,0,0,0,1.37.7,9.06,9.06,0,0,1,2.32,1.26,2.39,2.39,0,0,1,.76,1.79,2.46,2.46,0,0,1-.43,1.37,3,3,0,0,1-1.31,1.08,5,5,0,0,1-2.08.4,4.67,4.67,0,0,1-2.77-.8A2.86,2.86,0,0,1,219.57,84.31Z"/><path d="M232.24,86.22,232,87.53a4.43,4.43,0,0,1-1.12.15,2.34,2.34,0,0,1-1.52-.47,1.2,1.2,0,0,1-.42-1,8.73,8.73,0,0,1,.23-1.43l1.14-5.47H229l.26-1.24h1.27L231,75.8l1.84-1.11-.72,3.42h1.58l-.27,1.24h-1.57l-1.09,5.2a10.66,10.66,0,0,0-.2,1.19.54.54,0,0,0,.16.43.79.79,0,0,0,.54.16A3.93,3.93,0,0,0,232.24,86.22Z"/><path d="M239.87,86.35a6.25,6.25,0,0,1-1.6,1.05,4.12,4.12,0,0,1-1.65.33,2.9,2.9,0,0,1-2.1-.76,2.61,2.61,0,0,1-.79-2,2.66,2.66,0,0,1,.35-1.39,2.79,2.79,0,0,1,1-1,4,4,0,0,1,1.45-.53,16,16,0,0,1,2-.17,7.35,7.35,0,0,0,2.17-.32,4.29,4.29,0,0,0,.18-1.09,1,1,0,0,0-.41-.88,2.6,2.6,0,0,0-1.63-.44,2.82,2.82,0,0,0-1.65.45,2.48,2.48,0,0,0-.93,1.27l-1.62-.14a4.22,4.22,0,0,1,1.57-2.15,4.7,4.7,0,0,1,2.71-.74,4.28,4.28,0,0,1,2.77.83,2,2,0,0,1,.78,1.62,8.6,8.6,0,0,1-.22,1.74l-.53,2.34a9,9,0,0,0-.24,1.82,6,6,0,0,0,.19,1.27h-1.62A6.2,6.2,0,0,1,239.87,86.35Zm.6-3.59a5.19,5.19,0,0,1-.73.2c-.25.05-.68.1-1.28.15a10.19,10.19,0,0,0-2,.31,1.7,1.7,0,0,0-.87.61,1.62,1.62,0,0,0-.29.92,1.45,1.45,0,0,0,.46,1.11,1.9,1.9,0,0,0,1.33.43,3.13,3.13,0,0,0,2.69-1.59A6.67,6.67,0,0,0,240.47,82.76Z"/><path d="M243.62,87.52l2-9.41H247L246.61,80A6.35,6.35,0,0,1,248,78.42a2.33,2.33,0,0,1,1.42-.52,2.83,2.83,0,0,1,1.18.35L250,79.73a1.53,1.53,0,0,0-.91-.3,2.5,2.5,0,0,0-1.73.94,7.19,7.19,0,0,0-1.39,3.38l-.8,3.77Z"/><path d="M261.61,84.32l1.56.16a4.71,4.71,0,0,1-1.54,2.21,4.26,4.26,0,0,1-2.89,1,3.94,3.94,0,0,1-1.92-.48,3.14,3.14,0,0,1-1.32-1.4,4.63,4.63,0,0,1-.46-2.1,6.74,6.74,0,0,1,.71-3,5.1,5.1,0,0,1,1.85-2.16,4.64,4.64,0,0,1,2.45-.7,3.55,3.55,0,0,1,2.69,1,3.92,3.92,0,0,1,1,2.85,7.81,7.81,0,0,1-.13,1.42H256.7a2.93,2.93,0,0,0,0,.49,3,3,0,0,0,.61,2,1.9,1.9,0,0,0,1.48.69,2.85,2.85,0,0,0,1.62-.54A3.49,3.49,0,0,0,261.61,84.32ZM257,82h5.28c0-.16,0-.28,0-.35a2.62,2.62,0,0,0-.6-1.85,2,2,0,0,0-1.55-.64,2.84,2.84,0,0,0-1.87.71A4.21,4.21,0,0,0,257,82Z"/><path d="M264.79,87.52l2-9.41h1.45l-.34,1.64a7.88,7.88,0,0,1,1.77-1.41,3.57,3.57,0,0,1,1.68-.44,2.5,2.5,0,0,1,1.79.62,2.17,2.17,0,0,1,.66,1.66,9.5,9.5,0,0,1-.23,1.64l-1.2,5.7h-1.6l1.25-6a7.08,7.08,0,0,0,.18-1.29,1,1,0,0,0-.32-.76,1.39,1.39,0,0,0-.94-.29,3.15,3.15,0,0,0-2.19.89,5.64,5.64,0,0,0-1.41,3l-.91,4.38Z"/><path d="M279.8,87.52l2.71-13h1.6l-2.71,13Z"/><path d="M290.3,86.35a6.29,6.29,0,0,1-1.61,1.05,4.11,4.11,0,0,1-1.64.33A2.9,2.9,0,0,1,285,87a2.62,2.62,0,0,1-.8-2,2.67,2.67,0,0,1,.36-1.39,2.76,2.76,0,0,1,.95-1,4,4,0,0,1,1.45-.53,16.14,16.14,0,0,1,2-.17,7.35,7.35,0,0,0,2.17-.32,4.37,4.37,0,0,0,.19-1.09,1.08,1.08,0,0,0-.41-.88,2.62,2.62,0,0,0-1.63-.44,2.8,2.8,0,0,0-1.65.45,2.55,2.55,0,0,0-.94,1.27l-1.62-.14a4.27,4.27,0,0,1,1.57-2.15,4.74,4.74,0,0,1,2.72-.74,4.26,4.26,0,0,1,2.76.83,2,2,0,0,1,.78,1.62,7.94,7.94,0,0,1-.22,1.74l-.52,2.34a8.45,8.45,0,0,0-.25,1.82,6,6,0,0,0,.19,1.27h-1.62A5.55,5.55,0,0,1,290.3,86.35Zm.59-3.59a4.7,4.7,0,0,1-.72.2q-.39.08-1.29.15a10.48,10.48,0,0,0-2,.31A1.64,1.64,0,0,0,286,84a1.56,1.56,0,0,0-.3.92,1.46,1.46,0,0,0,.47,1.11,1.86,1.86,0,0,0,1.32.43,3.13,3.13,0,0,0,2.7-1.59A7,7,0,0,0,290.89,82.76Z"/><path d="M299.08,87.52l2-9.41h1.61l-.33,1.55a6.76,6.76,0,0,1,1.6-1.38,3.21,3.21,0,0,1,1.53-.38,2.28,2.28,0,0,1,1.46.47,2.25,2.25,0,0,1,.78,1.29,5.21,5.21,0,0,1,1.51-1.32,3.42,3.42,0,0,1,1.67-.44,2.48,2.48,0,0,1,1.76.56,2,2,0,0,1,.59,1.57,7.76,7.76,0,0,1-.2,1.43l-1.27,6.06h-1.6l1.29-6.22a6.08,6.08,0,0,0,.17-1.09.93.93,0,0,0-.29-.72,1.18,1.18,0,0,0-.83-.27,2.91,2.91,0,0,0-1.46.43,3.14,3.14,0,0,0-1.15,1.14,7.25,7.25,0,0,0-.72,2.17l-1,4.56h-1.6l1.32-6.35a4.74,4.74,0,0,0,.15-.92,1,1,0,0,0-1-1,2.83,2.83,0,0,0-1.43.43,3.45,3.45,0,0,0-1.22,1.21,7.38,7.38,0,0,0-.77,2.21l-.93,4.45Z"/><path d="M314.14,87.52l2-9.41h1.61l-2,9.41Zm2.33-11.17.39-1.82h1.59l-.38,1.82Z"/><path d="M318.38,84.31l1.6-.1a2.83,2.83,0,0,0,.22,1.18,1.65,1.65,0,0,0,.78.79,2.7,2.7,0,0,0,1.33.31,2.57,2.57,0,0,0,1.6-.42,1.28,1.28,0,0,0,.53-1,1.21,1.21,0,0,0-.32-.79,4.93,4.93,0,0,0-1.6-.92,15.4,15.4,0,0,1-1.62-.76,2.66,2.66,0,0,1-.9-.86,2.12,2.12,0,0,1-.3-1.13,2.46,2.46,0,0,1,.89-1.91,3.57,3.57,0,0,1,2.48-.8,3.9,3.9,0,0,1,2.69.82,2.84,2.84,0,0,1,1,2.16l-1.56.1a1.82,1.82,0,0,0-.61-1.34,2.34,2.34,0,0,0-1.6-.5,2,2,0,0,0-1.29.38,1.08,1.08,0,0,0-.46.83,1,1,0,0,0,.4.78,6.74,6.74,0,0,0,1.37.7,9.06,9.06,0,0,1,2.32,1.26,2.39,2.39,0,0,1,.76,1.79,2.46,2.46,0,0,1-.43,1.37,3,3,0,0,1-1.31,1.08,5,5,0,0,1-2.08.4,4.67,4.67,0,0,1-2.77-.8A2.86,2.86,0,0,1,318.38,84.31Z"/><path d="M327.29,87.52l2-9.41h1.6l-.33,1.55a6.76,6.76,0,0,1,1.6-1.38,3.21,3.21,0,0,1,1.53-.38,2.33,2.33,0,0,1,1.47.47,2.18,2.18,0,0,1,.77,1.29,5.21,5.21,0,0,1,1.51-1.32,3.45,3.45,0,0,1,1.67-.44,2.49,2.49,0,0,1,1.77.56,2.06,2.06,0,0,1,.59,1.57,8,8,0,0,1-.21,1.43L340,87.52h-1.61l1.3-6.22a6.08,6.08,0,0,0,.17-1.09.91.91,0,0,0-.3-.72,1.16,1.16,0,0,0-.82-.27,2.85,2.85,0,0,0-1.46.43,3.17,3.17,0,0,0-1.16,1.14,7.87,7.87,0,0,0-.72,2.17l-1,4.56h-1.6l1.33-6.35a5.38,5.38,0,0,0,.14-.92,1,1,0,0,0-1-1,2.86,2.86,0,0,0-1.43.43,3.42,3.42,0,0,0-1.21,1.21,7.36,7.36,0,0,0-.78,2.21l-.93,4.45Z"/><path d="M348.76,86.35a6.29,6.29,0,0,1-1.61,1.05,4.12,4.12,0,0,1-1.65.33,2.89,2.89,0,0,1-2.09-.76,2.59,2.59,0,0,1-.8-2,2.67,2.67,0,0,1,.36-1.39,2.76,2.76,0,0,1,.95-1,4,4,0,0,1,1.45-.53,16.14,16.14,0,0,1,2.05-.17,7.35,7.35,0,0,0,2.17-.32,4.29,4.29,0,0,0,.18-1.09,1.07,1.07,0,0,0-.4-.88,2.64,2.64,0,0,0-1.63-.44,2.83,2.83,0,0,0-1.66.45,2.54,2.54,0,0,0-.93,1.27l-1.62-.14a4.22,4.22,0,0,1,1.57-2.15,4.72,4.72,0,0,1,2.72-.74,4.26,4.26,0,0,1,2.76.83,2,2,0,0,1,.78,1.62,7.94,7.94,0,0,1-.22,1.74l-.52,2.34a8.45,8.45,0,0,0-.25,1.82,6,6,0,0,0,.19,1.27h-1.62A5.55,5.55,0,0,1,348.76,86.35Zm.59-3.59a5.44,5.44,0,0,1-.72.2q-.39.08-1.29.15a10.34,10.34,0,0,0-2,.31,1.7,1.7,0,0,0-.87.61,1.62,1.62,0,0,0-.29.92,1.46,1.46,0,0,0,.47,1.11,1.86,1.86,0,0,0,1.32.43,3.13,3.13,0,0,0,2.69-1.59A6.67,6.67,0,0,0,349.35,82.76Z"/><path d="M356.76,91.13l2.71-13H361l-.27,1.31a6,6,0,0,1,1.47-1.19,3,3,0,0,1,1.38-.33,2.88,2.88,0,0,1,2.23,1,4,4,0,0,1,.89,2.8,7,7,0,0,1-.49,2.68,5.93,5.93,0,0,1-1.19,2,5.07,5.07,0,0,1-1.44,1.08,3.41,3.41,0,0,1-1.49.34A2.88,2.88,0,0,1,359.42,86l-1.06,5.12Zm3.17-7.45a4.81,4.81,0,0,0,.15,1.46,2,2,0,0,0,.72.93,2,2,0,0,0,1.17.35,2.55,2.55,0,0,0,2.24-1.55,6.65,6.65,0,0,0,.85-3.18,2.64,2.64,0,0,0-.58-1.84,1.8,1.8,0,0,0-1.42-.66,2.07,2.07,0,0,0-1.13.33,3.26,3.26,0,0,0-1,1,5.52,5.52,0,0,0-.74,1.58A5.34,5.34,0,0,0,359.93,83.68Z"/><path d="M367.92,84a6.56,6.56,0,0,1,1.62-4.56,4.5,4.5,0,0,1,3.51-1.49A3.67,3.67,0,0,1,375.79,79a4,4,0,0,1,1,2.87,7,7,0,0,1-.66,3A4.88,4.88,0,0,1,374.31,87a4.77,4.77,0,0,1-2.55.74,4.19,4.19,0,0,1-2-.47,3.23,3.23,0,0,1-1.37-1.32A4.15,4.15,0,0,1,367.92,84Zm1.6-.16a2.85,2.85,0,0,0,.64,2,2.12,2.12,0,0,0,1.62.68,2.66,2.66,0,0,0,1-.21,2.78,2.78,0,0,0,.94-.63,4.22,4.22,0,0,0,.74-1,6.13,6.13,0,0,0,.49-1.17,5.77,5.77,0,0,0,.27-1.69,2.78,2.78,0,0,0-.64-2,2.11,2.11,0,0,0-1.62-.71,2.67,2.67,0,0,0-1.37.36,3.68,3.68,0,0,0-1.12,1,4.65,4.65,0,0,0-.73,1.61A6.49,6.49,0,0,0,369.52,83.79Z"/><path d="M377.87,84.31l1.61-.1a3,3,0,0,0,.21,1.18,1.65,1.65,0,0,0,.78.79,2.76,2.76,0,0,0,1.34.31,2.52,2.52,0,0,0,1.59-.42,1.25,1.25,0,0,0,.53-1,1.16,1.16,0,0,0-.32-.79,4.85,4.85,0,0,0-1.59-.92,17.14,17.14,0,0,1-1.63-.76,2.63,2.63,0,0,1-.89-.86,2,2,0,0,1-.31-1.13,2.49,2.49,0,0,1,.89-1.91,3.59,3.59,0,0,1,2.48-.8,4,4,0,0,1,2.7.82,2.84,2.84,0,0,1,1,2.16l-1.57.1a1.78,1.78,0,0,0-.6-1.34,2.36,2.36,0,0,0-1.6-.5,2,2,0,0,0-1.3.38,1.08,1.08,0,0,0-.46.83,1,1,0,0,0,.4.78,7.05,7.05,0,0,0,1.37.7,8.87,8.87,0,0,1,2.32,1.26,2.4,2.4,0,0,1,.77,1.79,2.54,2.54,0,0,1-.43,1.37,3,3,0,0,1-1.31,1.08,5,5,0,0,1-2.08.4,4.65,4.65,0,0,1-2.77-.8A2.84,2.84,0,0,1,377.87,84.31Z"/><path d="M386.73,87.52l2-9.41h1.6l-2,9.41Zm2.34-11.17.38-1.82h1.6l-.38,1.82Z"/><path d="M397.32,84.09l1.6.17a5.36,5.36,0,0,1-1.71,2.62,4,4,0,0,1-2.53.85,3.31,3.31,0,0,1-2.49-1,3.85,3.85,0,0,1-.95-2.77,8,8,0,0,1,.61-3,4.87,4.87,0,0,1,1.75-2.26,4.5,4.5,0,0,1,2.6-.78,3.31,3.31,0,0,1,2.4.86,3,3,0,0,1,.89,2.26l-1.58.11a1.87,1.87,0,0,0-.52-1.4,1.8,1.8,0,0,0-1.34-.51,2.46,2.46,0,0,0-1.67.61,4,4,0,0,0-1.11,1.86,7.75,7.75,0,0,0-.41,2.39,2.68,2.68,0,0,0,.53,1.81,1.71,1.71,0,0,0,1.32.6,2.28,2.28,0,0,0,1.49-.59A4,4,0,0,0,397.32,84.09Z"/><path d="M399.83,87.52l2-9.41h1.6l-2,9.41Zm2.34-11.17.38-1.82h1.6l-.38,1.82Z"/><path d="M404.21,84a6.56,6.56,0,0,1,1.62-4.56,4.5,4.5,0,0,1,3.51-1.49A3.65,3.65,0,0,1,412.08,79a3.91,3.91,0,0,1,1,2.87,7.12,7.12,0,0,1-.65,3A4.9,4.9,0,0,1,410.6,87a4.71,4.71,0,0,1-2.54.74,4.16,4.16,0,0,1-2-.47,3.26,3.26,0,0,1-1.38-1.32A4.15,4.15,0,0,1,404.21,84Zm1.6-.16a2.9,2.9,0,0,0,.64,2,2.15,2.15,0,0,0,1.62.68,2.59,2.59,0,0,0,1-.21,2.68,2.68,0,0,0,.94-.63,4,4,0,0,0,.74-1,5.55,5.55,0,0,0,.49-1.17,5.48,5.48,0,0,0,.28-1.69,2.79,2.79,0,0,0-.65-2,2.07,2.07,0,0,0-1.61-.71,2.73,2.73,0,0,0-1.38.36,3.8,3.8,0,0,0-1.12,1,4.84,4.84,0,0,0-.73,1.61A6.49,6.49,0,0,0,405.81,83.79ZM408.07,77l1.67-2.44h2L409.4,77Z"/><path d="M414,87.52l2-9.41h1.46l-.35,1.64a7.88,7.88,0,0,1,1.77-1.41,3.58,3.58,0,0,1,1.69-.44,2.5,2.5,0,0,1,1.79.62,2.2,2.2,0,0,1,.65,1.66,9.5,9.5,0,0,1-.23,1.64l-1.2,5.7H420l1.25-6a7.32,7.32,0,0,0,.19-1.29,1,1,0,0,0-.33-.76,1.35,1.35,0,0,0-.93-.29,3.15,3.15,0,0,0-2.19.89,5.64,5.64,0,0,0-1.42,3l-.91,4.38Z"/><path d="M99.14,122.55a3.86,3.86,0,0,1-2.87,1.58,2.89,2.89,0,0,1-2.23-1,4.18,4.18,0,0,1-.89-2.87,7,7,0,0,1,.71-3.14A5.34,5.34,0,0,1,95.62,115a3.81,3.81,0,0,1,2.12-.71,2.86,2.86,0,0,1,2.65,1.69l1.07-5h1.59l-2.71,13H98.86ZM94.75,120a4.94,4.94,0,0,0,.19,1.55,2,2,0,0,0,.67.94,1.69,1.69,0,0,0,1.12.38,2.52,2.52,0,0,0,2-1.13A5.86,5.86,0,0,0,99.9,118a2.47,2.47,0,0,0-.59-1.75,1.92,1.92,0,0,0-1.47-.63,2.21,2.21,0,0,0-1,.26,3.11,3.11,0,0,0-.94.87,5.35,5.35,0,0,0-.78,1.57A5.08,5.08,0,0,0,94.75,120Z"/><path d="M106.66,123.91l2-9.8a10.35,10.35,0,0,1-3.74,1.67l.3-1.45a13.1,13.1,0,0,0,2.36-1.25,11.21,11.21,0,0,0,1.75-1.35,4.78,4.78,0,0,0,.68-.86H111l-2.72,13Z"/><path d="M122.58,116.28H114v-1.49h8.57Zm0,3.94H114v-1.49h8.57Z"/><path d="M125.79,183.43l-.27,1.31a4.35,4.35,0,0,1-1.11.15,2.29,2.29,0,0,1-1.53-.47,1.17,1.17,0,0,1-.42-1,8.89,8.89,0,0,1,.23-1.43l1.14-5.46h-1.27l.26-1.24h1.27l.49-2.32,1.83-1.1-.72,3.42h1.58l-.27,1.24h-1.57l-1.09,5.2a10.66,10.66,0,0,0-.2,1.18.61.61,0,0,0,.16.44.79.79,0,0,0,.54.15A3.93,3.93,0,0,0,125.79,183.43Z"/><path d="M141.73,177.1h-8.58v-1.49h8.58Zm0,3.94h-8.58v-1.49h8.58Z"/><path d="M177.36,183.43l-.27,1.31a4.43,4.43,0,0,1-1.12.15,2.28,2.28,0,0,1-1.52-.47,1.17,1.17,0,0,1-.42-1,8.89,8.89,0,0,1,.23-1.43l1.14-5.46h-1.27l.26-1.24h1.27l.48-2.32,1.84-1.1-.72,3.42h1.58l-.27,1.24H177l-1.09,5.2a10.66,10.66,0,0,0-.2,1.18.57.57,0,0,0,.16.44.79.79,0,0,0,.54.15A3.93,3.93,0,0,0,177.36,183.43Z"/><path d="M189,180.84l.34-1.61h4.89l-.33,1.61Z"/><path d="M203.58,184.73l2-9.8a10.27,10.27,0,0,1-3.74,1.67l.31-1.45a13.8,13.8,0,0,0,2.36-1.25,11.71,11.71,0,0,0,1.75-1.35,4.75,4.75,0,0,0,.67-.86h.93l-2.72,13Z"/><path d="M210.58,180.47a12,12,0,0,1,.5-3.35,11.77,11.77,0,0,1,1.09-2.72,6.72,6.72,0,0,1,1.25-1.59,4.86,4.86,0,0,1,1.27-.85,3.48,3.48,0,0,1,1.39-.27,3.19,3.19,0,0,1,2.48,1.11,4.61,4.61,0,0,1,1,3.2,13.66,13.66,0,0,1-.69,4.26A8.16,8.16,0,0,1,216.6,184a3.82,3.82,0,0,1-2.54,1,3.17,3.17,0,0,1-2.47-1.15A4.94,4.94,0,0,1,210.58,180.47Zm1.55.41a3.74,3.74,0,0,0,.4,1.87,1.75,1.75,0,0,0,1.61.93,2.25,2.25,0,0,0,1.69-.84,7.74,7.74,0,0,0,1.65-3.48,16.55,16.55,0,0,0,.55-3.74,3.06,3.06,0,0,0-.53-2,1.79,1.79,0,0,0-1.41-.62,2.31,2.31,0,0,0-1.2.33,3.27,3.27,0,0,0-1,1.12,11.11,11.11,0,0,0-1.25,3.37A14.22,14.22,0,0,0,212.13,180.88Z"/><path d="M223.48,177.59a2.76,2.76,0,0,1-1.09-1,2.64,2.64,0,0,1-.36-1.34,3.28,3.28,0,0,1,.85-2.18,4.27,4.27,0,0,1,5.77-.44,3.05,3.05,0,0,1,.45,4,3.63,3.63,0,0,1-1.67,1.21,3.25,3.25,0,0,1,1.12,1,3.12,3.12,0,0,1,.43,1.67,4.52,4.52,0,0,1-1.23,3.11,4.23,4.23,0,0,1-3.29,1.36,3.64,3.64,0,0,1-2.68-1,3.36,3.36,0,0,1-1-2.52,4.08,4.08,0,0,1,.73-2.45A3.68,3.68,0,0,1,223.48,177.59Zm-1.12,4a2.14,2.14,0,0,0,.26,1,1.94,1.94,0,0,0,.79.79,2.56,2.56,0,0,0,1.22.29,2.43,2.43,0,0,0,2.1-1.22,3.64,3.64,0,0,0,.64-2.07,2,2,0,0,0-.59-1.48,2.12,2.12,0,0,0-1.54-.57,2.72,2.72,0,0,0-2.05.89A3.32,3.32,0,0,0,222.36,181.56Zm1.25-6.26a1.79,1.79,0,0,0,.53,1.34,2.06,2.06,0,0,0,1.48.51,2.43,2.43,0,0,0,1.78-.67,2.18,2.18,0,0,0,.69-1.64,1.76,1.76,0,0,0-.54-1.34,2,2,0,0,0-1.47-.52,2.62,2.62,0,0,0-1.3.33,2.07,2.07,0,0,0-.89.89A2.39,2.39,0,0,0,223.61,175.3Z"/><path d="M230.76,180.47a12,12,0,0,1,.5-3.35,11.77,11.77,0,0,1,1.09-2.72,6.72,6.72,0,0,1,1.25-1.59,4.86,4.86,0,0,1,1.27-.85,3.48,3.48,0,0,1,1.39-.27,3.19,3.19,0,0,1,2.48,1.11,4.61,4.61,0,0,1,1,3.2,13.66,13.66,0,0,1-.69,4.26,8.16,8.16,0,0,1-2.27,3.75,3.82,3.82,0,0,1-2.54,1,3.17,3.17,0,0,1-2.47-1.15A4.94,4.94,0,0,1,230.76,180.47Zm1.55.41a3.74,3.74,0,0,0,.4,1.87,1.75,1.75,0,0,0,1.61.93,2.25,2.25,0,0,0,1.69-.84,7.74,7.74,0,0,0,1.65-3.48,16.55,16.55,0,0,0,.55-3.74,3.06,3.06,0,0,0-.53-2,1.79,1.79,0,0,0-1.41-.62,2.31,2.31,0,0,0-1.2.33,3.18,3.18,0,0,0-1,1.12,11.11,11.11,0,0,0-1.25,3.37A14.22,14.22,0,0,0,232.31,180.88Z"/><path d="M240.85,180.47a12,12,0,0,1,.5-3.35,11.77,11.77,0,0,1,1.09-2.72,6.72,6.72,0,0,1,1.25-1.59A4.86,4.86,0,0,1,245,172a3.48,3.48,0,0,1,1.39-.27,3.19,3.19,0,0,1,2.48,1.11,4.61,4.61,0,0,1,1,3.2,13.66,13.66,0,0,1-.69,4.26,8.16,8.16,0,0,1-2.27,3.75,3.82,3.82,0,0,1-2.54,1,3.17,3.17,0,0,1-2.47-1.15A4.94,4.94,0,0,1,240.85,180.47Zm1.55.41a3.74,3.74,0,0,0,.4,1.87,1.75,1.75,0,0,0,1.61.93,2.25,2.25,0,0,0,1.69-.84,7.74,7.74,0,0,0,1.65-3.48,16.55,16.55,0,0,0,.55-3.74,3.06,3.06,0,0,0-.53-2,1.8,1.8,0,0,0-1.42-.62,2.3,2.3,0,0,0-1.19.33,3.18,3.18,0,0,0-1,1.12,11.11,11.11,0,0,0-1.25,3.37A13.62,13.62,0,0,0,242.4,180.88Z"/><path d="M252.64,184.73l-1.55-9.4h1.56l.81,5.18c.09.57.2,1.49.33,2.77.3-.67.7-1.43,1.18-2.29l3.14-5.66h1.69l-5.38,9.4Z"/><path d="M259.79,184.73a7.18,7.18,0,0,1,.69-1.94,6.61,6.61,0,0,1,1.16-1.49c.49-.47,1.42-1.25,2.8-2.36a18.89,18.89,0,0,0,1.72-1.48,4.82,4.82,0,0,0,1-1.35,2.5,2.5,0,0,0,.2-1,2.08,2.08,0,0,0-.63-1.52,2.15,2.15,0,0,0-1.56-.62,2.27,2.27,0,0,0-1.59.63,3.75,3.75,0,0,0-1,2l-1.56-.23a4.27,4.27,0,0,1,1.34-2.72,4,4,0,0,1,2.77-1,4.39,4.39,0,0,1,2,.46,3.17,3.17,0,0,1,1.36,1.3,3.56,3.56,0,0,1,.45,1.72,4.07,4.07,0,0,1-.92,2.49,25.07,25.07,0,0,1-3.34,2.93,17.11,17.11,0,0,0-1.76,1.54,5.72,5.72,0,0,0-.88,1.13h5.82l-.31,1.47Z"/><path d="M434,183.43l-.26,1.31a4.49,4.49,0,0,1-1.12.15,2.27,2.27,0,0,1-1.52-.47,1.15,1.15,0,0,1-.43-1,10.3,10.3,0,0,1,.23-1.43l1.15-5.46h-1.27l.26-1.24h1.26l.49-2.32,1.83-1.1-.71,3.42h1.57l-.26,1.24h-1.57l-1.09,5.2a8.53,8.53,0,0,0-.2,1.18.57.57,0,0,0,.16.44.79.79,0,0,0,.54.15A3.85,3.85,0,0,0,434,183.43Z"/><path d="M449.94,177.1h-8.58v-1.49h8.58Zm0,3.94h-8.58v-1.49h8.58Z"/><path d="M511.94,200.75l.76-1.6h11.13l-.74,1.6Z"/><path d="M455,181l.76-1.6h11.14l-.75,1.6Z"/><path d="M341.3,123.51l-3.51-18.26h2.35l2.12,10.89c.39,2,.64,3.57.76,4.78.76-1.56,1.39-2.8,1.88-3.71l6.51-12h2.51l-10,18.26Z"/><path d="M352.45,123a5,5,0,0,1,.49-1.37,4.4,4.4,0,0,1,.82-1c.34-.34,1-.89,2-1.67a12.09,12.09,0,0,0,1.21-1,3.2,3.2,0,0,0,.69-1,1.74,1.74,0,0,0,.14-.69,1.47,1.47,0,0,0-.45-1.08,1.52,1.52,0,0,0-1.1-.44,1.58,1.58,0,0,0-1.12.45,2.63,2.63,0,0,0-.69,1.44l-1.11-.17a3,3,0,0,1,.95-1.92,2.81,2.81,0,0,1,2-.71,3,3,0,0,1,1.41.33,2.17,2.17,0,0,1,1,.91,2.58,2.58,0,0,1,.32,1.22,2.86,2.86,0,0,1-.65,1.76,17.23,17.23,0,0,1-2.36,2.07,16.07,16.07,0,0,0-1.25,1.09,4.35,4.35,0,0,0-.62.8h4.11l-.22,1Z"/><path d="M152.38,186.62l-3.51-18.26h2.35l2.12,10.89c.39,2,.64,3.57.76,4.78.76-1.56,1.39-2.8,1.88-3.71l6.51-12H165l-10,18.26Z"/><path d="M163.53,186.1a4.93,4.93,0,0,1,.49-1.38,4.4,4.4,0,0,1,.82-1.05c.34-.33,1-.89,2-1.67A13.94,13.94,0,0,0,168,181a3.34,3.34,0,0,0,.68-1,1.74,1.74,0,0,0,.14-.69,1.47,1.47,0,0,0-.45-1.08,1.5,1.5,0,0,0-1.1-.44,1.58,1.58,0,0,0-1.12.45,2.7,2.7,0,0,0-.69,1.44l-1.11-.16a3,3,0,0,1,1-1.93,2.8,2.8,0,0,1,2-.7,3,3,0,0,1,1.41.32,2.14,2.14,0,0,1,1,.92,2.52,2.52,0,0,1,.32,1.21,2.86,2.86,0,0,1-.65,1.76,17.23,17.23,0,0,1-2.36,2.07,16.07,16.07,0,0,0-1.25,1.09,3.89,3.89,0,0,0-.61.81h4.11l-.22,1Z"/><path d="M309.71,122.55a3.88,3.88,0,0,1-2.87,1.58,2.87,2.87,0,0,1-2.23-1,4.18,4.18,0,0,1-.89-2.87,7,7,0,0,1,.7-3.14,5.28,5.28,0,0,1,1.77-2.13,3.79,3.79,0,0,1,2.12-.71A2.87,2.87,0,0,1,311,116l1.06-5h1.59l-2.71,13h-1.48Zm-4.4-2.58a4.9,4.9,0,0,0,.2,1.55,2,2,0,0,0,.66.94,1.72,1.72,0,0,0,1.13.38,2.51,2.51,0,0,0,2-1.13,5.8,5.8,0,0,0,1.19-3.72,2.47,2.47,0,0,0-.58-1.75,1.92,1.92,0,0,0-1.47-.63,2.15,2.15,0,0,0-1.05.26,3,3,0,0,0-.94.87,5.61,5.61,0,0,0-.79,1.57A5.35,5.35,0,0,0,305.31,120Z"/><path d="M313.92,123.91a6.86,6.86,0,0,1,.68-1.94,6.66,6.66,0,0,1,1.17-1.49c.48-.47,1.42-1.26,2.8-2.36a20.44,20.44,0,0,0,1.72-1.48,5,5,0,0,0,1-1.35,2.34,2.34,0,0,0,.21-1,2.09,2.09,0,0,0-.64-1.52,2.14,2.14,0,0,0-1.55-.62,2.29,2.29,0,0,0-1.6.63,3.75,3.75,0,0,0-1,2l-1.57-.23a4.24,4.24,0,0,1,1.34-2.72,4,4,0,0,1,2.77-1,4.44,4.44,0,0,1,2,.46,3.09,3.09,0,0,1,1.35,1.3,3.56,3.56,0,0,1,.45,1.72,4.07,4.07,0,0,1-.92,2.49,25.42,25.42,0,0,1-3.33,2.93,18.63,18.63,0,0,0-1.77,1.54,5.28,5.28,0,0,0-.87,1.13H322l-.31,1.47Z"/><path d="M333.15,116.28h-8.58v-1.49h8.58Zm0,3.94h-8.58v-1.49h8.58Z"/><path d="M369.89,126.16a14.93,14.93,0,0,1-1.39-6.27,13.46,13.46,0,0,1,.56-4,14.5,14.5,0,0,1,1.71-3.65,27.76,27.76,0,0,1,2.44-3.12h1.25a17.7,17.7,0,0,0-2.2,3.12,16.33,16.33,0,0,0-1.67,4,14.84,14.84,0,0,0-.53,3.9,19.55,19.55,0,0,0,1,6.06Z"/><path d="M377.35,121l-.26,1.31a4.49,4.49,0,0,1-1.12.15,2.32,2.32,0,0,1-1.52-.47,1.19,1.19,0,0,1-.43-1,10.25,10.25,0,0,1,.23-1.42l1.15-5.47h-1.27l.26-1.24h1.26l.49-2.31,1.83-1.11-.71,3.42h1.57l-.26,1.24H377l-1.09,5.2a8.56,8.56,0,0,0-.2,1.19.54.54,0,0,0,.16.43.79.79,0,0,0,.54.15A3.82,3.82,0,0,0,377.35,121Z"/><path d="M383.93,118.44l.33-1.6h4.89l-.32,1.6Z"/><path d="M398.53,122.34l2.06-9.81a10.18,10.18,0,0,1-3.74,1.68l.3-1.46a14.67,14.67,0,0,0,4.11-2.59,5.16,5.16,0,0,0,.68-.86h.93l-2.72,13Z"/><path d="M405.54,118.08a13.25,13.25,0,0,1,1.59-6.07,6.52,6.52,0,0,1,1.25-1.59,4.62,4.62,0,0,1,1.27-.85,3.43,3.43,0,0,1,1.38-.27,3.21,3.21,0,0,1,2.49,1.11,4.62,4.62,0,0,1,1,3.19,13.3,13.3,0,0,1-.7,4.26,8.06,8.06,0,0,1-2.26,3.75,3.84,3.84,0,0,1-2.55,1,3.13,3.13,0,0,1-2.46-1.15A4.89,4.89,0,0,1,405.54,118.08Zm1.55.41a3.7,3.7,0,0,0,.4,1.86,1.75,1.75,0,0,0,1.6.93,2.27,2.27,0,0,0,1.7-.84,7.75,7.75,0,0,0,1.65-3.47,16.62,16.62,0,0,0,.55-3.75,3.13,3.13,0,0,0-.53-2,1.8,1.8,0,0,0-1.42-.62,2.3,2.3,0,0,0-1.19.33,3.33,3.33,0,0,0-1.06,1.13,11.42,11.42,0,0,0-1.25,3.36A14.26,14.26,0,0,0,407.09,118.49Z"/><path d="M418.44,115.2a2.84,2.84,0,0,1-1.09-1,2.68,2.68,0,0,1-.36-1.35,3.3,3.3,0,0,1,.85-2.18,3.79,3.79,0,0,1,3.07-1.35,3.74,3.74,0,0,1,2.69.92,3,3,0,0,1,.46,4,3.56,3.56,0,0,1-1.67,1.21,3.56,3.56,0,0,1,1.12,1,3.18,3.18,0,0,1,.43,1.68,4.48,4.48,0,0,1-1.23,3.1,4.26,4.26,0,0,1-3.3,1.37,3.68,3.68,0,0,1-2.67-1,3.39,3.39,0,0,1-1-2.53,4.11,4.11,0,0,1,.74-2.45A3.61,3.61,0,0,1,418.44,115.2Zm-1.12,4a2.1,2.1,0,0,0,.26,1,1.83,1.83,0,0,0,.79.79,2.5,2.5,0,0,0,3.32-.93,3.6,3.6,0,0,0,.64-2.06,2,2,0,0,0-.59-1.48,2.14,2.14,0,0,0-1.55-.58,2.69,2.69,0,0,0-2,.9A3.24,3.24,0,0,0,417.32,119.17Zm1.24-6.27a1.77,1.77,0,0,0,.54,1.35,2.06,2.06,0,0,0,1.48.51,2.47,2.47,0,0,0,1.78-.67,2.22,2.22,0,0,0,.69-1.65,1.78,1.78,0,0,0-.54-1.34,2.06,2.06,0,0,0-1.47-.52,2.66,2.66,0,0,0-1.31.33,2.15,2.15,0,0,0-.88.89A2.44,2.44,0,0,0,418.56,112.9Z"/><path d="M425.72,118.08a13.25,13.25,0,0,1,1.59-6.07,6.52,6.52,0,0,1,1.25-1.59,4.62,4.62,0,0,1,1.27-.85,3.43,3.43,0,0,1,1.38-.27,3.21,3.21,0,0,1,2.49,1.11,4.62,4.62,0,0,1,1,3.19,13.3,13.3,0,0,1-.7,4.26,8.06,8.06,0,0,1-2.26,3.75,3.84,3.84,0,0,1-2.55,1,3.13,3.13,0,0,1-2.46-1.15A4.89,4.89,0,0,1,425.72,118.08Zm1.55.41a3.59,3.59,0,0,0,.4,1.86,1.75,1.75,0,0,0,1.6.93,2.27,2.27,0,0,0,1.7-.84,7.75,7.75,0,0,0,1.65-3.47,16.62,16.62,0,0,0,.55-3.75,3.13,3.13,0,0,0-.53-2,1.8,1.8,0,0,0-1.42-.62,2.3,2.3,0,0,0-1.19.33A3.33,3.33,0,0,0,429,112a11.42,11.42,0,0,0-1.25,3.36A14.26,14.26,0,0,0,427.27,118.49Z"/><path d="M435.81,118.08A13.25,13.25,0,0,1,437.4,112a6.52,6.52,0,0,1,1.25-1.59,4.62,4.62,0,0,1,1.27-.85,3.43,3.43,0,0,1,1.38-.27,3.21,3.21,0,0,1,2.49,1.11,4.62,4.62,0,0,1,1,3.19,13.3,13.3,0,0,1-.7,4.26,8.06,8.06,0,0,1-2.26,3.75,3.84,3.84,0,0,1-2.55,1,3.13,3.13,0,0,1-2.46-1.15A4.89,4.89,0,0,1,435.81,118.08Zm1.55.41a3.59,3.59,0,0,0,.4,1.86,1.75,1.75,0,0,0,1.6.93,2.27,2.27,0,0,0,1.7-.84,7.75,7.75,0,0,0,1.65-3.47,16.62,16.62,0,0,0,.55-3.75,3.13,3.13,0,0,0-.53-2,1.8,1.8,0,0,0-1.42-.62,2.3,2.3,0,0,0-1.19.33,3.33,3.33,0,0,0-1.06,1.13,11.42,11.42,0,0,0-1.25,3.36A14.26,14.26,0,0,0,437.36,118.49Z"/><path d="M448.21,109.13a14.73,14.73,0,0,1,1.4,6.25,13.48,13.48,0,0,1-.56,4,15.09,15.09,0,0,1-1.71,3.66,30.36,30.36,0,0,1-2.44,3.12h-1.25a17.7,17.7,0,0,0,2.19-3.13,16.78,16.78,0,0,0,1.68-4,15.26,15.26,0,0,0,.52-3.9,19.49,19.49,0,0,0-1-6.05Z"/><rect x="471.75" y="180.08" width="96.12" height="0.63"/><path d="M488.7,174.9l2.06-9.8a10.35,10.35,0,0,1-3.74,1.67l.3-1.45a13.44,13.44,0,0,0,2.36-1.25,11.85,11.85,0,0,0,1.75-1.35,4.35,4.35,0,0,0,.67-.86H493l-2.72,13Z"/><path d="M495.71,170.64a12,12,0,0,1,.49-3.35,11.75,11.75,0,0,1,1.1-2.72,6.51,6.51,0,0,1,1.24-1.59,4.9,4.9,0,0,1,1.28-.85,3.4,3.4,0,0,1,1.38-.27,3.22,3.22,0,0,1,2.49,1.11,4.64,4.64,0,0,1,1,3.2,13.66,13.66,0,0,1-.69,4.26,8.18,8.18,0,0,1-2.27,3.75,3.81,3.81,0,0,1-2.54.94,3.19,3.19,0,0,1-2.47-1.14A4.94,4.94,0,0,1,495.71,170.64Zm1.55.41a3.63,3.63,0,0,0,.4,1.87,1.74,1.74,0,0,0,1.6.93A2.24,2.24,0,0,0,501,173a7.64,7.64,0,0,0,1.66-3.48,17.14,17.14,0,0,0,.55-3.74,3,3,0,0,0-.54-2,1.73,1.73,0,0,0-1.41-.62,2.39,2.39,0,0,0-1.19.32A3.43,3.43,0,0,0,499,164.6a11.39,11.39,0,0,0-1.25,3.37A14.1,14.1,0,0,0,497.26,171.05Z"/><path d="M508.61,167.76a2.66,2.66,0,0,1-1.46-2.36,3.33,3.33,0,0,1,.85-2.18,4.27,4.27,0,0,1,5.77-.44,2.94,2.94,0,0,1,1,2.25,2.9,2.9,0,0,1-.54,1.71,3.6,3.6,0,0,1-1.66,1.21,3.21,3.21,0,0,1,1.11,1,3.13,3.13,0,0,1,.44,1.67,4.49,4.49,0,0,1-1.24,3.11,4.21,4.21,0,0,1-3.29,1.36,3.64,3.64,0,0,1-2.67-1,3.37,3.37,0,0,1-1-2.52,4.09,4.09,0,0,1,.74-2.45A3.64,3.64,0,0,1,508.61,167.76Zm-1.13,4a2.26,2.26,0,0,0,.26,1,2,2,0,0,0,.8.79,2.52,2.52,0,0,0,1.21.29,2.45,2.45,0,0,0,2.11-1.22,3.71,3.71,0,0,0,.64-2.07,2,2,0,0,0-.59-1.48,2.15,2.15,0,0,0-1.55-.57,2.68,2.68,0,0,0-2,.89A3.27,3.27,0,0,0,507.48,171.73Zm1.25-6.26a1.76,1.76,0,0,0,.54,1.34,2.05,2.05,0,0,0,1.47.51,2.45,2.45,0,0,0,1.79-.67,2.21,2.21,0,0,0,.68-1.64,1.76,1.76,0,0,0-.53-1.34,2,2,0,0,0-1.48-.52,2.75,2.75,0,0,0-1.3.32,2.12,2.12,0,0,0-.88.9A2.41,2.41,0,0,0,508.73,165.47Z"/><path d="M515.89,170.64a12,12,0,0,1,.49-3.35,11.75,11.75,0,0,1,1.1-2.72,6.51,6.51,0,0,1,1.24-1.59,5.07,5.07,0,0,1,1.28-.85,3.4,3.4,0,0,1,1.38-.27,3.22,3.22,0,0,1,2.49,1.11,4.64,4.64,0,0,1,1,3.2,13.66,13.66,0,0,1-.69,4.26,8.18,8.18,0,0,1-2.27,3.75,3.81,3.81,0,0,1-2.54.94,3.19,3.19,0,0,1-2.47-1.14A4.94,4.94,0,0,1,515.89,170.64Zm1.55.41a3.63,3.63,0,0,0,.4,1.87,1.74,1.74,0,0,0,1.6.93,2.24,2.24,0,0,0,1.69-.84,7.64,7.64,0,0,0,1.66-3.48,16.55,16.55,0,0,0,.55-3.74,3,3,0,0,0-.54-2,1.73,1.73,0,0,0-1.41-.62,2.39,2.39,0,0,0-1.19.32,3.43,3.43,0,0,0-1.06,1.13,11.39,11.39,0,0,0-1.25,3.37A14.1,14.1,0,0,0,517.44,171.05Z"/><path d="M526,170.64a12,12,0,0,1,.49-3.35,11.75,11.75,0,0,1,1.1-2.72,6.51,6.51,0,0,1,1.24-1.59,5.07,5.07,0,0,1,1.28-.85,3.4,3.4,0,0,1,1.38-.27A3.22,3.22,0,0,1,534,163a4.64,4.64,0,0,1,1,3.2,13.66,13.66,0,0,1-.69,4.26,8.18,8.18,0,0,1-2.27,3.75,3.81,3.81,0,0,1-2.54.94A3.16,3.16,0,0,1,527,174,4.89,4.89,0,0,1,526,170.64Zm1.55.41a3.63,3.63,0,0,0,.4,1.87,1.74,1.74,0,0,0,1.6.93,2.24,2.24,0,0,0,1.69-.84,7.64,7.64,0,0,0,1.66-3.48,16.55,16.55,0,0,0,.55-3.74,3,3,0,0,0-.54-2,1.73,1.73,0,0,0-1.41-.62,2.39,2.39,0,0,0-1.19.32,3.43,3.43,0,0,0-1.06,1.13A11.39,11.39,0,0,0,528,168,14.1,14.1,0,0,0,527.53,171.05Z"/><path d="M537.76,174.9l-1.54-9.41h1.56l.81,5.19c.08.56.19,1.49.32,2.77.31-.67.7-1.43,1.18-2.29l3.15-5.67h1.69l-5.39,9.41Z"/><path d="M544.92,174.9a6.2,6.2,0,0,1,1.85-3.43c.49-.47,1.42-1.26,2.8-2.36a20.44,20.44,0,0,0,1.72-1.48,4.87,4.87,0,0,0,1-1.36,2.27,2.27,0,0,0,.21-1,2,2,0,0,0-.64-1.52,2.14,2.14,0,0,0-1.55-.62,2.25,2.25,0,0,0-1.59.63,3.75,3.75,0,0,0-1,2l-1.57-.23a4.25,4.25,0,0,1,1.35-2.72,4,4,0,0,1,2.76-1,4.44,4.44,0,0,1,2,.46,3.09,3.09,0,0,1,1.35,1.3,3.56,3.56,0,0,1,.45,1.72,4,4,0,0,1-.92,2.48,24.45,24.45,0,0,1-3.33,2.94A18.63,18.63,0,0,0,548,172.3a6,6,0,0,0-.87,1.13H553l-.31,1.47Z"/><path d="M102.61,236.16l-.26,1.31a4.49,4.49,0,0,1-1.12.15,2.32,2.32,0,0,1-1.52-.46,1.22,1.22,0,0,1-.43-1,10.3,10.3,0,0,1,.23-1.43l1.15-5.46H99.39l.26-1.24h1.26l.49-2.31,1.83-1.11-.71,3.42h1.57l-.26,1.24h-1.57l-1.09,5.2a8.53,8.53,0,0,0-.2,1.18.57.57,0,0,0,.16.44.79.79,0,0,0,.54.15A3.79,3.79,0,0,0,102.61,236.16Z"/><path d="M118.55,229.83H110v-1.49h8.57Zm0,3.94H110v-1.49h8.57Z"/><path d="M125.05,237.47a6.83,6.83,0,0,1,.68-1.95A6.39,6.39,0,0,1,126.9,234c.48-.47,1.41-1.25,2.8-2.36a19.85,19.85,0,0,0,1.71-1.48,4.82,4.82,0,0,0,1-1.35,2.31,2.31,0,0,0,.2-1,2.08,2.08,0,0,0-.63-1.52,2.14,2.14,0,0,0-1.55-.62,2.29,2.29,0,0,0-1.6.63,3.78,3.78,0,0,0-1,2l-1.57-.23a4.27,4.27,0,0,1,1.34-2.73,4,4,0,0,1,2.77-1,4.31,4.31,0,0,1,2,.46,3,3,0,0,1,1.35,1.29,3.56,3.56,0,0,1,.45,1.72,4.07,4.07,0,0,1-.92,2.49,25.42,25.42,0,0,1-3.33,2.93,20.19,20.19,0,0,0-1.77,1.54,5.28,5.28,0,0,0-.87,1.13h5.81l-.31,1.48Z"/><path d="M138.17,230.33a2.72,2.72,0,0,1-1.09-1,2.53,2.53,0,0,1-.37-1.34,3.33,3.33,0,0,1,.85-2.18,4.29,4.29,0,0,1,5.77-.44,2.93,2.93,0,0,1,1,2.25,2.89,2.89,0,0,1-.53,1.71,3.53,3.53,0,0,1-1.66,1.21,3.31,3.31,0,0,1,1.11,1,3.15,3.15,0,0,1,.44,1.67,4.52,4.52,0,0,1-1.24,3.11,4.22,4.22,0,0,1-3.29,1.37,3.72,3.72,0,0,1-2.68-1,3.4,3.4,0,0,1-1-2.53,4.08,4.08,0,0,1,.73-2.45A3.6,3.6,0,0,1,138.17,230.33Zm-1.13,4a2.26,2.26,0,0,0,.26,1,2,2,0,0,0,.79.79,2.56,2.56,0,0,0,1.22.29,2.45,2.45,0,0,0,2.11-1.22,3.7,3.7,0,0,0,.63-2.07,2,2,0,0,0-.59-1.48,2.11,2.11,0,0,0-1.54-.57,2.71,2.71,0,0,0-2,.89A3.28,3.28,0,0,0,137,234.29Zm1.25-6.26a1.78,1.78,0,0,0,.53,1.34,2.06,2.06,0,0,0,1.48.51,2.45,2.45,0,0,0,1.79-.67,2.21,2.21,0,0,0,.68-1.64,1.79,1.79,0,0,0-.53-1.34,2,2,0,0,0-1.48-.52,2.62,2.62,0,0,0-1.3.33,2,2,0,0,0-.88.89A2.41,2.41,0,0,0,138.29,228Z"/><path d="M147.81,229.94a5.1,5.1,0,0,1,1.34-.84,3.38,3.38,0,0,1,1.33-.28,3.24,3.24,0,0,1,2.44,1,3.74,3.74,0,0,1,1,2.72,5.41,5.41,0,0,1-1.44,3.78,3.94,3.94,0,0,1-3,1.36,3.5,3.5,0,0,1-2.69-1.19,4.85,4.85,0,0,1-1.07-3.37,13,13,0,0,1,.69-4,9.16,9.16,0,0,1,1.31-2.64,5.62,5.62,0,0,1,1.67-1.53,4.1,4.1,0,0,1,2-.48,3,3,0,0,1,2.17.82,3.63,3.63,0,0,1,1,2.37l-1.49.14a2.58,2.58,0,0,0-.6-1.52,1.6,1.6,0,0,0-1.16-.47,2.36,2.36,0,0,0-1.44.56,4.38,4.38,0,0,0-1.25,1.65A9.36,9.36,0,0,0,147.81,229.94Zm-.56,3.88a2.61,2.61,0,0,0,.69,1.84,2,2,0,0,0,1.54.75,2.25,2.25,0,0,0,1.27-.46,3.57,3.57,0,0,0,1.15-1.38,4.13,4.13,0,0,0,.47-1.85,2.68,2.68,0,0,0-.66-1.9,2,2,0,0,0-1.57-.72,2.61,2.61,0,0,0-2,1A3.93,3.93,0,0,0,147.25,233.82Z"/><path d="M155.52,233.75l1.63-.16c0,.23,0,.37,0,.42a2.61,2.61,0,0,0,.3,1.18,2.23,2.23,0,0,0,.8.91,2,2,0,0,0,1.08.31,2.76,2.76,0,0,0,1.52-.51,3.65,3.65,0,0,0,1.24-1.5,4.45,4.45,0,0,0,.48-2,2.35,2.35,0,0,0-.64-1.74,2.25,2.25,0,0,0-1.69-.66,2.7,2.7,0,0,0-1.32.34,3.76,3.76,0,0,0-1.17,1l-1.4-.1,2-6.64h6.34l-.31,1.47h-4.93l-1,3.3a4.26,4.26,0,0,1,1.13-.6,3.67,3.67,0,0,1,1.19-.2,3.25,3.25,0,0,1,2.44,1,3.67,3.67,0,0,1,1,2.69,5.86,5.86,0,0,1-.66,2.76,4.63,4.63,0,0,1-1.8,1.94,4.79,4.79,0,0,1-2.48.68,3.78,3.78,0,0,1-2-.51,3.26,3.26,0,0,1-1.29-1.39,4,4,0,0,1-.43-1.77C155.51,234,155.51,233.87,155.52,233.75Z"/><path d="M168.44,230.33a2.72,2.72,0,0,1-1.09-1A2.53,2.53,0,0,1,167,228a3.33,3.33,0,0,1,.85-2.18,4.29,4.29,0,0,1,5.77-.44,2.93,2.93,0,0,1,1,2.25,2.89,2.89,0,0,1-.53,1.71,3.53,3.53,0,0,1-1.66,1.21,3.31,3.31,0,0,1,1.11,1,3.15,3.15,0,0,1,.44,1.67,4.52,4.52,0,0,1-1.24,3.11,4.22,4.22,0,0,1-3.29,1.37,3.72,3.72,0,0,1-2.68-1,3.4,3.4,0,0,1-1-2.53,4.08,4.08,0,0,1,.73-2.45A3.6,3.6,0,0,1,168.44,230.33Zm-1.13,4a2.26,2.26,0,0,0,.26,1,2,2,0,0,0,.79.79,2.56,2.56,0,0,0,1.22.29,2.45,2.45,0,0,0,2.11-1.22,3.7,3.7,0,0,0,.63-2.07,2,2,0,0,0-.58-1.48,2.15,2.15,0,0,0-1.55-.57,2.71,2.71,0,0,0-2,.89A3.28,3.28,0,0,0,167.31,234.29Zm1.25-6.26a1.75,1.75,0,0,0,.54,1.34,2,2,0,0,0,1.47.51,2.45,2.45,0,0,0,1.79-.67,2.21,2.21,0,0,0,.68-1.64,1.79,1.79,0,0,0-.53-1.34,2,2,0,0,0-1.48-.52,2.62,2.62,0,0,0-1.3.33,2,2,0,0,0-.88.89A2.41,2.41,0,0,0,168.56,228Z"/><path d="M180.23,234.25l1.6-.1a3,3,0,0,0,.21,1.18,1.74,1.74,0,0,0,.79.8,2.81,2.81,0,0,0,1.33.31,2.45,2.45,0,0,0,1.59-.43,1.23,1.23,0,0,0,.54-1,1.21,1.21,0,0,0-.32-.79,5.16,5.16,0,0,0-1.6-.91,16.32,16.32,0,0,1-1.63-.77,2.63,2.63,0,0,1-.89-.86,2.09,2.09,0,0,1-.3-1.12,2.48,2.48,0,0,1,.88-1.92,3.59,3.59,0,0,1,2.48-.8,4,4,0,0,1,2.7.82,2.84,2.84,0,0,1,1,2.16l-1.57.11a1.78,1.78,0,0,0-.6-1.35,2.36,2.36,0,0,0-1.6-.5,2,2,0,0,0-1.3.39,1.08,1.08,0,0,0-.46.82,1,1,0,0,0,.4.78,7.08,7.08,0,0,0,1.38.71,9.25,9.25,0,0,1,2.32,1.26,2.41,2.41,0,0,1,.76,1.79,2.59,2.59,0,0,1-.43,1.37,2.94,2.94,0,0,1-1.31,1.07,5,5,0,0,1-2.08.41,4.65,4.65,0,0,1-2.77-.81A2.86,2.86,0,0,1,180.23,234.25Z"/><path d="M200.53,236.1a3.88,3.88,0,0,1-2.87,1.58,2.89,2.89,0,0,1-2.23-1,4.16,4.16,0,0,1-.89-2.87,7,7,0,0,1,.71-3.14,5.4,5.4,0,0,1,1.76-2.13,3.79,3.79,0,0,1,2.12-.71,2.86,2.86,0,0,1,2.65,1.7l1.06-5.06h1.6l-2.71,13h-1.48Zm-4.39-2.58a4.89,4.89,0,0,0,.19,1.55,2,2,0,0,0,.67,1,1.72,1.72,0,0,0,1.12.37,2.5,2.5,0,0,0,2-1.13,5.81,5.81,0,0,0,1.18-3.72,2.47,2.47,0,0,0-.58-1.75,1.92,1.92,0,0,0-1.47-.63,2.15,2.15,0,0,0-1,.26,3,3,0,0,0-.94.87,5.48,5.48,0,0,0-.78,1.57A5.08,5.08,0,0,0,196.14,233.52Z"/><path d="M204.22,237.47l2-9.41h1.61l-2,9.41Zm2.33-11.18.39-1.81h1.59l-.38,1.81Z"/><path d="M208.46,234.25l1.6-.1a3,3,0,0,0,.21,1.18,1.79,1.79,0,0,0,.79.8,2.81,2.81,0,0,0,1.33.31A2.5,2.5,0,0,0,214,236a1.25,1.25,0,0,0,.53-1,1.21,1.21,0,0,0-.32-.79,5.16,5.16,0,0,0-1.6-.91,14.72,14.72,0,0,1-1.62-.77,2.57,2.57,0,0,1-.9-.86,2.09,2.09,0,0,1-.3-1.12,2.46,2.46,0,0,1,.89-1.92,3.57,3.57,0,0,1,2.48-.8,4,4,0,0,1,2.69.82,2.84,2.84,0,0,1,1,2.16l-1.56.11a1.83,1.83,0,0,0-.61-1.35,2.34,2.34,0,0,0-1.6-.5,1.91,1.91,0,0,0-1.29.39,1,1,0,0,0-.46.82,1,1,0,0,0,.4.78,6.58,6.58,0,0,0,1.37.71,9.06,9.06,0,0,1,2.32,1.26,2.37,2.37,0,0,1,.76,1.79,2.51,2.51,0,0,1-.43,1.37,2.89,2.89,0,0,1-1.31,1.07,5,5,0,0,1-2.08.41,4.67,4.67,0,0,1-2.77-.81A2.86,2.86,0,0,1,208.46,234.25Z"/><path d="M221.13,236.16l-.27,1.31a4.43,4.43,0,0,1-1.12.15,2.34,2.34,0,0,1-1.52-.46,1.21,1.21,0,0,1-.42-1,8.89,8.89,0,0,1,.23-1.43l1.14-5.46H217.9l.26-1.24h1.27l.48-2.31,1.84-1.11-.72,3.42h1.58l-.27,1.24h-1.57l-1.09,5.2a10.66,10.66,0,0,0-.2,1.18.57.57,0,0,0,.16.44.79.79,0,0,0,.54.15A3.93,3.93,0,0,0,221.13,236.16Z"/><path d="M228.76,236.3a6.84,6.84,0,0,1-1.6,1,4.12,4.12,0,0,1-1.65.33,2.9,2.9,0,0,1-2.1-.77,2.59,2.59,0,0,1-.79-2,2.7,2.7,0,0,1,.35-1.4,2.79,2.79,0,0,1,1-1,4.13,4.13,0,0,1,1.45-.53,18.1,18.1,0,0,1,2.05-.17,7,7,0,0,0,2.17-.32,4.16,4.16,0,0,0,.18-1.08,1,1,0,0,0-.41-.88,2.53,2.53,0,0,0-1.63-.44,2.82,2.82,0,0,0-1.65.44,2.52,2.52,0,0,0-.93,1.27l-1.62-.14a4.19,4.19,0,0,1,1.57-2.14,4.63,4.63,0,0,1,2.71-.75,4.22,4.22,0,0,1,2.77.84,2,2,0,0,1,.78,1.61,8.6,8.6,0,0,1-.22,1.74l-.53,2.34a9.09,9.09,0,0,0-.24,1.82,6.12,6.12,0,0,0,.19,1.28H229A6.2,6.2,0,0,1,228.76,236.3Zm.6-3.6a3.41,3.41,0,0,1-.73.2c-.25,0-.68.1-1.28.15a10,10,0,0,0-2,.32,1.65,1.65,0,0,0-.87.61,1.57,1.57,0,0,0-.29.92,1.44,1.44,0,0,0,.46,1.1,1.9,1.9,0,0,0,1.33.44,3.12,3.12,0,0,0,2.69-1.6A6.58,6.58,0,0,0,229.36,232.7Z"/><path d="M232.51,237.47l2-9.41h1.45l-.35,1.64a7.57,7.57,0,0,1,1.78-1.41,3.47,3.47,0,0,1,1.68-.45,2.5,2.5,0,0,1,1.79.62,2.18,2.18,0,0,1,.65,1.66,8.66,8.66,0,0,1-.23,1.65l-1.19,5.7h-1.61l1.25-6a6.4,6.4,0,0,0,.19-1.28,1,1,0,0,0-.32-.76,1.34,1.34,0,0,0-.94-.3,3.15,3.15,0,0,0-2.19.89,5.64,5.64,0,0,0-1.41,3l-.92,4.38Z"/><path d="M249.09,234l1.61.16a5.38,5.38,0,0,1-1.72,2.62,4,4,0,0,1-2.53.86,3.28,3.28,0,0,1-2.48-1,3.85,3.85,0,0,1-.95-2.78,7.92,7.92,0,0,1,.61-3,4.92,4.92,0,0,1,1.75-2.26,4.48,4.48,0,0,1,2.6-.78,3.31,3.31,0,0,1,2.4.86,3,3,0,0,1,.88,2.26l-1.57.11a1.93,1.93,0,0,0-.52-1.4,1.82,1.82,0,0,0-1.34-.51,2.49,2.49,0,0,0-1.68.62,4,4,0,0,0-1.11,1.85,7.73,7.73,0,0,0-.4,2.4,2.67,2.67,0,0,0,.53,1.8,1.65,1.65,0,0,0,1.31.61,2.28,2.28,0,0,0,1.49-.6A3.79,3.79,0,0,0,249.09,234Z"/><path d="M251.61,237.47l2-9.41h1.6l-2,9.41ZM254,226.29l.38-1.81h1.59l-.38,1.81Z"/><path d="M262.05,236.3a6.88,6.88,0,0,1-1.61,1,4.12,4.12,0,0,1-1.65.33,2.94,2.94,0,0,1-2.1-.77,2.59,2.59,0,0,1-.79-2,2.7,2.7,0,0,1,.36-1.4,2.76,2.76,0,0,1,.95-1,4.13,4.13,0,0,1,1.45-.53,18.34,18.34,0,0,1,2-.17,7,7,0,0,0,2.17-.32,4.16,4.16,0,0,0,.18-1.08,1,1,0,0,0-.4-.88,2.57,2.57,0,0,0-1.63-.44,2.83,2.83,0,0,0-1.66.44,2.58,2.58,0,0,0-.93,1.27l-1.62-.14a4.19,4.19,0,0,1,1.57-2.14,4.64,4.64,0,0,1,2.72-.75,4.21,4.21,0,0,1,2.76.84,2,2,0,0,1,.78,1.61,7.94,7.94,0,0,1-.22,1.74l-.52,2.34a8.53,8.53,0,0,0-.25,1.82,6.12,6.12,0,0,0,.19,1.28h-1.62A5.55,5.55,0,0,1,262.05,236.3Zm.59-3.6a3.49,3.49,0,0,1-.72.2q-.39.07-1.29.15a10.14,10.14,0,0,0-2,.32,1.65,1.65,0,0,0-.87.61,1.57,1.57,0,0,0-.29.92A1.45,1.45,0,0,0,258,236a1.86,1.86,0,0,0,1.32.44,3.12,3.12,0,0,0,2.69-1.6A6.58,6.58,0,0,0,262.64,232.7Z"/><path d="M277.26,235.76a4.75,4.75,0,0,1-3.47,1.92,2.48,2.48,0,0,1-1.76-.63,2,2,0,0,1-.67-1.52,11,11,0,0,1,.31-2l1.13-5.43h1.6l-1.25,6a5.76,5.76,0,0,0-.16,1.17,1,1,0,0,0,.32.83,1.34,1.34,0,0,0,.95.3,2.87,2.87,0,0,0,1.32-.33,3.38,3.38,0,0,0,1.1-.89,4.48,4.48,0,0,0,.76-1.32,11.27,11.27,0,0,0,.45-1.71l.85-4.06h1.61l-2,9.41H276.9Z"/><path d="M281.07,234.25l1.61-.1a3,3,0,0,0,.21,1.18,1.71,1.71,0,0,0,.78.8,2.88,2.88,0,0,0,1.34.31,2.45,2.45,0,0,0,1.59-.43,1.22,1.22,0,0,0,.53-1,1.16,1.16,0,0,0-.32-.79,5.07,5.07,0,0,0-1.59-.91,16.32,16.32,0,0,1-1.63-.77,2.54,2.54,0,0,1-.89-.86,2,2,0,0,1-.31-1.12,2.49,2.49,0,0,1,.89-1.92,3.59,3.59,0,0,1,2.48-.8,4,4,0,0,1,2.7.82,2.88,2.88,0,0,1,1,2.16l-1.57.11a1.78,1.78,0,0,0-.6-1.35,2.37,2.37,0,0,0-1.61-.5,2,2,0,0,0-1.29.39,1,1,0,0,0-.46.82,1,1,0,0,0,.4.78,6.88,6.88,0,0,0,1.37.71A9.06,9.06,0,0,1,288,233a2.38,2.38,0,0,1,.77,1.79,2.59,2.59,0,0,1-.43,1.37,2.92,2.92,0,0,1-1.32,1.07,4.9,4.9,0,0,1-2.07.41,4.7,4.7,0,0,1-2.78-.81A2.86,2.86,0,0,1,281.07,234.25Z"/><path d="M296.34,236.3a6.88,6.88,0,0,1-1.61,1,4.11,4.11,0,0,1-1.64.33,2.9,2.9,0,0,1-2.1-.77,2.6,2.6,0,0,1-.8-2,2.7,2.7,0,0,1,.36-1.4,2.76,2.76,0,0,1,.95-1,4.21,4.21,0,0,1,1.45-.53,18.34,18.34,0,0,1,2.05-.17,7,7,0,0,0,2.17-.32,4.24,4.24,0,0,0,.19-1.08,1.05,1.05,0,0,0-.41-.88,2.55,2.55,0,0,0-1.63-.44,2.8,2.8,0,0,0-1.65.44,2.6,2.6,0,0,0-.94,1.27l-1.62-.14a4.24,4.24,0,0,1,1.57-2.14,4.67,4.67,0,0,1,2.72-.75,4.21,4.21,0,0,1,2.76.84,2,2,0,0,1,.78,1.61,7.94,7.94,0,0,1-.22,1.74l-.52,2.34a8.53,8.53,0,0,0-.25,1.82,6.12,6.12,0,0,0,.19,1.28h-1.62A5.55,5.55,0,0,1,296.34,236.3Zm.59-3.6a3.17,3.17,0,0,1-.72.2q-.39.07-1.29.15a10.28,10.28,0,0,0-2,.32,1.58,1.58,0,0,0-.86.61,1.51,1.51,0,0,0-.3.92,1.45,1.45,0,0,0,.47,1.1,1.86,1.86,0,0,0,1.32.44,3.08,3.08,0,0,0,1.54-.42,3.13,3.13,0,0,0,1.16-1.18A6.86,6.86,0,0,0,296.93,232.7Z"/><path d="M300.08,237.47l2-9.41h1.45l-.34,1.64a7.34,7.34,0,0,1,1.77-1.41,3.47,3.47,0,0,1,1.68-.45,2.52,2.52,0,0,1,1.8.62,2.21,2.21,0,0,1,.65,1.66,9.58,9.58,0,0,1-.23,1.65l-1.2,5.7H306l1.25-6a7,7,0,0,0,.18-1.28,1,1,0,0,0-.32-.76,1.33,1.33,0,0,0-.93-.3,3.15,3.15,0,0,0-2.2.89,5.64,5.64,0,0,0-1.41,3l-.91,4.38Z"/><path d="M316.52,236.1a3.88,3.88,0,0,1-2.87,1.58,2.87,2.87,0,0,1-2.23-1,4.16,4.16,0,0,1-.89-2.87,7,7,0,0,1,.7-3.14,5.42,5.42,0,0,1,1.77-2.13,3.79,3.79,0,0,1,2.12-.71,2.86,2.86,0,0,1,2.65,1.7l1.06-5.06h1.59l-2.71,13h-1.48Zm-4.4-2.58a4.85,4.85,0,0,0,.2,1.55,2.05,2.05,0,0,0,.66,1,1.76,1.76,0,0,0,1.13.37,2.49,2.49,0,0,0,2-1.13,5.82,5.82,0,0,0,1.19-3.72,2.47,2.47,0,0,0-.58-1.75,1.92,1.92,0,0,0-1.47-.63,2.15,2.15,0,0,0-1.05.26,3,3,0,0,0-.94.87,5.75,5.75,0,0,0-.79,1.57A5.35,5.35,0,0,0,312.12,233.52Z"/><path d="M320.55,233.9a6.6,6.6,0,0,1,1.62-4.57,4.5,4.5,0,0,1,3.51-1.49,3.66,3.66,0,0,1,2.74,1.07,3.93,3.93,0,0,1,1,2.87,6.94,6.94,0,0,1-.66,3,4.89,4.89,0,0,1-4.41,2.89,4.23,4.23,0,0,1-2-.47,3.28,3.28,0,0,1-1.38-1.33A4.11,4.11,0,0,1,320.55,233.9Zm1.6-.16a2.84,2.84,0,0,0,.64,2,2.11,2.11,0,0,0,1.62.69,2.66,2.66,0,0,0,1-.21,3,3,0,0,0,.94-.63,4.7,4.7,0,0,0,.74-1,5.86,5.86,0,0,0,.49-1.18,5.66,5.66,0,0,0,.27-1.68,2.83,2.83,0,0,0-.64-2,2.1,2.1,0,0,0-1.61-.71,2.71,2.71,0,0,0-1.38.36,3.8,3.8,0,0,0-1.12,1.05,4.65,4.65,0,0,0-.73,1.61A6.56,6.56,0,0,0,322.15,233.74Z"/><path d="M341.74,236.1a3.88,3.88,0,0,1-2.87,1.58,2.87,2.87,0,0,1-2.23-1,4.16,4.16,0,0,1-.89-2.87,7,7,0,0,1,.7-3.14,5.42,5.42,0,0,1,1.77-2.13,3.79,3.79,0,0,1,2.12-.71,2.86,2.86,0,0,1,2.65,1.7l1.06-5.06h1.59l-2.71,13h-1.48Zm-4.4-2.58a4.85,4.85,0,0,0,.2,1.55,2.05,2.05,0,0,0,.66,1,1.76,1.76,0,0,0,1.13.37,2.48,2.48,0,0,0,2-1.13,5.76,5.76,0,0,0,1.19-3.72,2.47,2.47,0,0,0-.58-1.75,1.92,1.92,0,0,0-1.47-.63,2.15,2.15,0,0,0-1.05.26,3,3,0,0,0-.94.87,5.75,5.75,0,0,0-.79,1.57A5.35,5.35,0,0,0,337.34,233.52Z"/><path d="M349.25,237.47l2.06-9.81a10.26,10.26,0,0,1-3.74,1.67l.3-1.45a12.8,12.8,0,0,0,2.36-1.25,11.21,11.21,0,0,0,1.75-1.35,4.58,4.58,0,0,0,.67-.85h.93l-2.72,13Z"/><rect x="239.18" y="299.08" width="35.01" height="0.63"/><path d="M250.21,293.48l2.31-11.06h1.88l-.38,1.82a7.65,7.65,0,0,1,1.88-1.62,3.69,3.69,0,0,1,1.79-.45,2.68,2.68,0,0,1,1.73.55,2.6,2.6,0,0,1,.91,1.52,6,6,0,0,1,1.78-1.55,3.91,3.91,0,0,1,2-.52,2.93,2.93,0,0,1,2.08.66,2.42,2.42,0,0,1,.69,1.84,9.8,9.8,0,0,1-.24,1.69l-1.49,7.12h-1.89l1.53-7.31a6.81,6.81,0,0,0,.19-1.28,1.07,1.07,0,0,0-.34-.85,1.38,1.38,0,0,0-1-.32,3.43,3.43,0,0,0-1.72.51,3.8,3.8,0,0,0-1.36,1.34,9.23,9.23,0,0,0-.85,2.55l-1.12,5.36h-1.89l1.57-7.47a5.64,5.64,0,0,0,.16-1.08,1.15,1.15,0,0,0-1.21-1.21,3.39,3.39,0,0,0-1.69.51,4.08,4.08,0,0,0-1.43,1.43,8.44,8.44,0,0,0-.91,2.59l-1.09,5.23Z"/><path d="M252,316l1.88-.11a3.54,3.54,0,0,0,.25,1.38,2,2,0,0,0,.93.94,3.24,3.24,0,0,0,1.56.36,2.93,2.93,0,0,0,1.88-.5,1.47,1.47,0,0,0,.62-1.17,1.4,1.4,0,0,0-.37-.93,6.14,6.14,0,0,0-1.88-1.08A18.11,18.11,0,0,1,255,314a3.11,3.11,0,0,1-1.06-1,2.56,2.56,0,0,1-.35-1.33,2.92,2.92,0,0,1,1-2.25,4.2,4.2,0,0,1,2.92-.94,4.66,4.66,0,0,1,3.17,1,3.36,3.36,0,0,1,1.13,2.54l-1.84.13a2.16,2.16,0,0,0-.71-1.59,2.78,2.78,0,0,0-1.89-.58,2.32,2.32,0,0,0-1.52.45,1.27,1.27,0,0,0-.54,1,1.18,1.18,0,0,0,.47.91,8.26,8.26,0,0,0,1.61.84,10.62,10.62,0,0,1,2.73,1.47,2.82,2.82,0,0,1,.9,2.11,2.91,2.91,0,0,1-.51,1.61,3.46,3.46,0,0,1-1.54,1.27,5.9,5.9,0,0,1-2.44.47,5.46,5.46,0,0,1-3.26-.95A3.34,3.34,0,0,1,252,316Z"/><path d="M191.69,306.57,194.11,295a12,12,0,0,1-4.4,2l.36-1.71a14.54,14.54,0,0,0,2.77-1.47,13.75,13.75,0,0,0,2.06-1.58,6,6,0,0,0,.79-1h1.1l-3.2,15.33Z"/><path d="M202.71,297.72a6.42,6.42,0,0,1,1.58-1,4,4,0,0,1,1.56-.33,3.79,3.79,0,0,1,2.87,1.19,4.43,4.43,0,0,1,1.14,3.2,6.41,6.41,0,0,1-1.69,4.45,4.62,4.62,0,0,1-3.54,1.59,4.07,4.07,0,0,1-3.16-1.39,5.66,5.66,0,0,1-1.27-4,14.9,14.9,0,0,1,.82-4.76,10.62,10.62,0,0,1,1.54-3.11,6.4,6.4,0,0,1,2-1.8,4.77,4.77,0,0,1,2.34-.57,3.48,3.48,0,0,1,2.55,1,4.2,4.2,0,0,1,1.12,2.79l-1.75.17a2.94,2.94,0,0,0-.7-1.8,1.88,1.88,0,0,0-1.36-.55,2.79,2.79,0,0,0-1.7.66,5.32,5.32,0,0,0-1.46,1.94A11.61,11.61,0,0,0,202.71,297.72Zm-.65,4.56a3.08,3.08,0,0,0,.8,2.17,2.39,2.39,0,0,0,1.81.88,2.7,2.7,0,0,0,1.5-.54,4,4,0,0,0,1.34-1.63,4.74,4.74,0,0,0,.56-2.17,3.21,3.21,0,0,0-.77-2.24,2.41,2.41,0,0,0-1.85-.83,3.06,3.06,0,0,0-2.32,1.22A4.55,4.55,0,0,0,202.06,302.28Z"/><path d="M211.44,306.57l.45-2.14H214l-.38,1.87a5,5,0,0,1-1.1,2.46,2.78,2.78,0,0,1-1.76.89l.18-.82c.83-.23,1.37-1,1.64-2.26Z"/><path d="M219.3,306.57a19.83,19.83,0,0,1,1.07-3.71,29.57,29.57,0,0,1,2.54-5.19,21.66,21.66,0,0,1,3.5-4.43h-7.62l.37-1.73h9.75l-.36,1.73a20.1,20.1,0,0,0-4.33,5.61,28.68,28.68,0,0,0-2.95,7.72Z"/><path d="M285.66,297.8l.48-1.48a16.73,16.73,0,0,1,2.4,1c-.13-1.25-.2-2.12-.21-2.59h1.51a25.19,25.19,0,0,1-.24,2.58,19.3,19.3,0,0,1,2.46-1l.48,1.48a12.67,12.67,0,0,1-2.59.59,16.56,16.56,0,0,1,1.79,2l-1.25.88a26.16,26.16,0,0,1-1.43-2.24,16,16,0,0,1-1.35,2.24l-1.23-.88a19.64,19.64,0,0,1,1.73-2C287.31,298.21,286.46,298,285.66,297.8Z"/><path d="M304.6,310.27a8.27,8.27,0,0,1,.81-2.29,7.8,7.8,0,0,1,1.37-1.75c.57-.55,1.66-1.47,3.29-2.77a26.23,26.23,0,0,0,2-1.74,5.66,5.66,0,0,0,1.13-1.59,2.8,2.8,0,0,0,.24-1.16,2.41,2.41,0,0,0-.74-1.79,2.51,2.51,0,0,0-1.83-.73,2.68,2.68,0,0,0-1.87.74,4.43,4.43,0,0,0-1.15,2.39l-1.84-.27a5,5,0,0,1,1.58-3.2,4.68,4.68,0,0,1,3.25-1.17,5.12,5.12,0,0,1,2.36.54,3.71,3.71,0,0,1,1.59,1.52,4.23,4.23,0,0,1,.53,2,4.75,4.75,0,0,1-1.08,2.93,29.67,29.67,0,0,1-3.92,3.45,22.11,22.11,0,0,0-2.08,1.81,6.76,6.76,0,0,0-1,1.33h6.83l-.37,1.73Z"/><path d="M320,301.88a3.36,3.36,0,0,1-1.29-1.21,3.11,3.11,0,0,1-.42-1.57,3.88,3.88,0,0,1,1-2.57,5,5,0,0,1,6.78-.51,3.47,3.47,0,0,1,1.15,2.64,3.42,3.42,0,0,1-.62,2,4.15,4.15,0,0,1-2,1.42,4,4,0,0,1,1.31,1.22,3.75,3.75,0,0,1,.51,2,5.29,5.29,0,0,1-1.45,3.66,5,5,0,0,1-3.87,1.6,4.28,4.28,0,0,1-3.14-1.19,3.94,3.94,0,0,1-1.22-3,4.84,4.84,0,0,1,.86-2.88A4.19,4.19,0,0,1,320,301.88Zm-1.33,4.66a2.63,2.63,0,0,0,.31,1.22,2.25,2.25,0,0,0,.93.93,2.91,2.91,0,0,0,1.43.34,2.86,2.86,0,0,0,2.48-1.44,4.27,4.27,0,0,0,.75-2.42,2.33,2.33,0,0,0-.69-1.74,2.52,2.52,0,0,0-1.82-.68,3.15,3.15,0,0,0-2.4,1.05A3.84,3.84,0,0,0,318.7,306.54Zm1.47-7.36a2.09,2.09,0,0,0,.63,1.58,2.42,2.42,0,0,0,1.74.6,2.87,2.87,0,0,0,2.09-.79,2.6,2.6,0,0,0,.81-1.93,2.1,2.1,0,0,0-.63-1.58,2.37,2.37,0,0,0-1.73-.61,3.06,3.06,0,0,0-1.53.39,2.43,2.43,0,0,0-1,1A2.77,2.77,0,0,0,320.17,299.18Z"/><path d="M331.37,301.42a6.07,6.07,0,0,1,1.58-1,4.14,4.14,0,0,1,1.55-.32,3.82,3.82,0,0,1,2.88,1.18,4.46,4.46,0,0,1,1.13,3.2,6.41,6.41,0,0,1-1.68,4.45,4.66,4.66,0,0,1-3.55,1.59,4.1,4.1,0,0,1-3.16-1.39,5.71,5.71,0,0,1-1.26-4,15.16,15.16,0,0,1,.81-4.76,10.62,10.62,0,0,1,1.55-3.11,6.26,6.26,0,0,1,1.95-1.8,4.8,4.8,0,0,1,2.34-.57,3.48,3.48,0,0,1,2.55,1,4.21,4.21,0,0,1,1.13,2.79l-1.75.17a3,3,0,0,0-.7-1.8,1.91,1.91,0,0,0-1.36-.55,2.77,2.77,0,0,0-1.7.66,5.23,5.23,0,0,0-1.47,1.94A10.92,10.92,0,0,0,331.37,301.42Zm-.66,4.56a3.13,3.13,0,0,0,.8,2.17,2.41,2.41,0,0,0,1.82.88,2.7,2.7,0,0,0,1.5-.54,4.2,4.2,0,0,0,1.34-1.63,4.72,4.72,0,0,0,.55-2.17,3.2,3.2,0,0,0-.76-2.24,2.46,2.46,0,0,0-1.85-.83,3.08,3.08,0,0,0-2.33,1.22A4.62,4.62,0,0,0,330.71,306Z"/><path d="M340.43,305.91l1.91-.19c0,.27,0,.43,0,.49a3.07,3.07,0,0,0,.35,1.38,2.55,2.55,0,0,0,.95,1.07,2.34,2.34,0,0,0,1.27.37,3.24,3.24,0,0,0,1.78-.6,4.45,4.45,0,0,0,1.47-1.76,5.28,5.28,0,0,0,.56-2.29,2.8,2.8,0,0,0-.76-2.06,2.65,2.65,0,0,0-2-.77,3.29,3.29,0,0,0-1.56.4,4.55,4.55,0,0,0-1.37,1.19l-1.64-.12,2.3-7.81h7.46l-.37,1.73H345l-1.15,3.88a5.32,5.32,0,0,1,1.33-.7,4.19,4.19,0,0,1,1.4-.23,3.84,3.84,0,0,1,2.88,1.15,4.35,4.35,0,0,1,1.12,3.17,6.85,6.85,0,0,1-.77,3.24,5.61,5.61,0,0,1-5,3.08,4.55,4.55,0,0,1-2.32-.59,3.82,3.82,0,0,1-1.52-1.64,4.81,4.81,0,0,1-.5-2.08C340.42,306.15,340.42,306.05,340.43,305.91Z"/><path d="M355.61,301.88a3.33,3.33,0,0,1-1.28-1.21,3.11,3.11,0,0,1-.42-1.57,3.88,3.88,0,0,1,1-2.57,5,5,0,0,1,6.78-.51,3.59,3.59,0,0,1,.53,4.65,4.15,4.15,0,0,1-2,1.42,4,4,0,0,1,1.31,1.22,3.75,3.75,0,0,1,.51,2,5.29,5.29,0,0,1-1.45,3.66,5,5,0,0,1-3.87,1.6,4.3,4.3,0,0,1-3.15-1.19,4,4,0,0,1-1.21-3,4.77,4.77,0,0,1,.86-2.88A4.2,4.2,0,0,1,355.61,301.88Zm-1.32,4.66a2.52,2.52,0,0,0,.31,1.22,2.2,2.2,0,0,0,.93.93A2.91,2.91,0,0,0,357,309a2.87,2.87,0,0,0,2.48-1.44,4.27,4.27,0,0,0,.75-2.42,2.34,2.34,0,0,0-.7-1.74,2.48,2.48,0,0,0-1.81-.68,3.15,3.15,0,0,0-2.4,1.05A3.84,3.84,0,0,0,354.29,306.54Zm1.47-7.36a2.09,2.09,0,0,0,.63,1.58,2.41,2.41,0,0,0,1.73.6,2.91,2.91,0,0,0,2.1-.79,2.6,2.6,0,0,0,.81-1.93,2.1,2.1,0,0,0-.63-1.58,2.37,2.37,0,0,0-1.73-.61,3.12,3.12,0,0,0-1.54.39,2.4,2.4,0,0,0-1,1A2.77,2.77,0,0,0,355.76,299.18Z"/><path d="M369.48,306.49l1.88-.11a3.37,3.37,0,0,0,.25,1.38,2.08,2.08,0,0,0,.92.94,3.28,3.28,0,0,0,1.57.36,3,3,0,0,0,1.88-.5,1.47,1.47,0,0,0,.62-1.17,1.4,1.4,0,0,0-.37-.93,6.14,6.14,0,0,0-1.88-1.08,19.82,19.82,0,0,1-1.92-.9,3.09,3.09,0,0,1-1.05-1,2.5,2.5,0,0,1-.35-1.32,2.92,2.92,0,0,1,1-2.25A4.19,4.19,0,0,1,375,299a4.67,4.67,0,0,1,3.17,1,3.4,3.4,0,0,1,1.13,2.54l-1.85.12a2.11,2.11,0,0,0-.7-1.58,2.79,2.79,0,0,0-1.89-.58,2.32,2.32,0,0,0-1.52.45,1.25,1.25,0,0,0-.54,1,1.15,1.15,0,0,0,.47.92,7.58,7.58,0,0,0,1.61.83,10.86,10.86,0,0,1,2.73,1.48,2.82,2.82,0,0,1,.9,2.11,2.94,2.94,0,0,1-.51,1.61,3.52,3.52,0,0,1-1.54,1.27,5.93,5.93,0,0,1-2.44.47,5.51,5.51,0,0,1-3.26-.95A3.34,3.34,0,0,1,369.48,306.49Z"/><path d="M397.18,301.29H387.1v-1.75h10.08Zm0,4.64H387.1v-1.75h10.08Z"/><path d="M409.94,310.27l.82-3.89h-6.23l.4-1.87,8.55-9.51H415l-2,9.71h2.15l-.35,1.67h-2.14l-.83,3.89Zm1.17-5.56,1.33-6.38-5.69,6.38Z"/><path d="M418.52,310.27a20.49,20.49,0,0,1,1.06-3.71,31,31,0,0,1,2.54-5.19,22.29,22.29,0,0,1,3.5-4.43H418l.36-1.73h9.75l-.35,1.73a19.92,19.92,0,0,0-4.33,5.61,28.68,28.68,0,0,0-2.95,7.72Z"/><path d="M432.1,301.88a3.33,3.33,0,0,1-1.28-1.21,3.12,3.12,0,0,1-.43-1.57,3.93,3.93,0,0,1,1-2.57,4.48,4.48,0,0,1,3.62-1.59,4.44,4.44,0,0,1,3.16,1.08,3.48,3.48,0,0,1,1.16,2.64,3.42,3.42,0,0,1-.63,2,4.07,4.07,0,0,1-1.95,1.42,4,4,0,0,1,1.31,1.22,3.75,3.75,0,0,1,.51,2,5.29,5.29,0,0,1-1.45,3.66,5,5,0,0,1-3.87,1.6,4.28,4.28,0,0,1-3.15-1.19,4,4,0,0,1-1.22-3,4.77,4.77,0,0,1,.87-2.88A4.17,4.17,0,0,1,432.1,301.88Zm-1.32,4.66a2.52,2.52,0,0,0,.31,1.22,2.2,2.2,0,0,0,.93.93,2.88,2.88,0,0,0,1.43.34,2.85,2.85,0,0,0,2.47-1.44,4.27,4.27,0,0,0,.75-2.42,2.33,2.33,0,0,0-.69-1.74,2.5,2.5,0,0,0-1.82-.68,3.18,3.18,0,0,0-2.4,1.05A3.88,3.88,0,0,0,430.78,306.54Zm1.47-7.36a2.09,2.09,0,0,0,.63,1.58,2.41,2.41,0,0,0,1.73.6,2.91,2.91,0,0,0,2.1-.79,2.6,2.6,0,0,0,.81-1.93,2.1,2.1,0,0,0-.63-1.58,2.38,2.38,0,0,0-1.74-.61,3.11,3.11,0,0,0-1.53.39,2.4,2.4,0,0,0-1,1A2.77,2.77,0,0,0,432.25,299.18Z"/><path d="M440.64,305.91l1.92-.19c0,.27,0,.43,0,.49a3,3,0,0,0,.35,1.38,2.53,2.53,0,0,0,.94,1.07,2.37,2.37,0,0,0,1.27.37,3.22,3.22,0,0,0,1.78-.6,4.45,4.45,0,0,0,1.47-1.76,5.28,5.28,0,0,0,.56-2.29,2.84,2.84,0,0,0-.75-2.06,2.69,2.69,0,0,0-2-.77,3.22,3.22,0,0,0-1.55.4,4.43,4.43,0,0,0-1.37,1.19L441.6,303l2.3-7.81h7.46l-.37,1.73h-5.8l-1.14,3.88a5.16,5.16,0,0,1,1.33-.7,4.15,4.15,0,0,1,1.4-.23,3.84,3.84,0,0,1,2.87,1.15,4.36,4.36,0,0,1,1.13,3.17,6.86,6.86,0,0,1-.78,3.24,5.48,5.48,0,0,1-2.11,2.28,5.56,5.56,0,0,1-2.92.8,4.57,4.57,0,0,1-2.32-.59,3.74,3.74,0,0,1-1.51-1.64,4.69,4.69,0,0,1-.51-2.08C440.63,306.15,440.64,306.05,440.64,305.91Z"/><path d="M454.11,310.27a20.49,20.49,0,0,1,1.06-3.71,30.29,30.29,0,0,1,2.54-5.19,22.29,22.29,0,0,1,3.5-4.43H453.6l.36-1.73h9.75l-.35,1.73a19.94,19.94,0,0,0-4.34,5.61,28.64,28.64,0,0,0-2.94,7.72Z"/><path d="M464.32,306.77l1.77-.18a3.12,3.12,0,0,0,.72,1.83,1.83,1.83,0,0,0,1.32.54,2.78,2.78,0,0,0,2-.94,8.37,8.37,0,0,0,2-3.95,7.82,7.82,0,0,1-1.68,1,3.81,3.81,0,0,1-4-.63A4.31,4.31,0,0,1,465,301a6.37,6.37,0,0,1,1.69-4.43,4.64,4.64,0,0,1,3.55-1.58,4.06,4.06,0,0,1,3.15,1.4,5.77,5.77,0,0,1,1.25,4,15,15,0,0,1-.84,4.92,9.12,9.12,0,0,1-2.67,4.21,4.86,4.86,0,0,1-3.1,1.1,3.55,3.55,0,0,1-2.58-1A4.13,4.13,0,0,1,464.32,306.77Zm2.51-6a3.3,3.3,0,0,0,.76,2.29,2.37,2.37,0,0,0,1.82.86,2.67,2.67,0,0,0,1.55-.54,4.21,4.21,0,0,0,1.32-1.58,4.65,4.65,0,0,0,.56-2.18,3.7,3.7,0,0,0-.37-1.62,2.56,2.56,0,0,0-1-1.13,2.49,2.49,0,0,0-1.28-.38,2.52,2.52,0,0,0-1.23.33,4.05,4.05,0,0,0-1.12,1,4.49,4.49,0,0,0-.77,1.49A5.14,5.14,0,0,0,466.83,300.73Z"/><path d="M481.37,310.27l2.31-11.06h1.88l-.38,1.82a7.65,7.65,0,0,1,1.88-1.62,3.69,3.69,0,0,1,1.79-.45,2.68,2.68,0,0,1,1.73.55,2.6,2.6,0,0,1,.91,1.52,6.13,6.13,0,0,1,1.77-1.55,4,4,0,0,1,2-.52,2.93,2.93,0,0,1,2.08.66,2.41,2.41,0,0,1,.69,1.84,9.8,9.8,0,0,1-.24,1.69l-1.49,7.12h-1.89L495.9,303a6.26,6.26,0,0,0,.2-1.28,1.11,1.11,0,0,0-.34-.86,1.43,1.43,0,0,0-1-.31,3.43,3.43,0,0,0-1.72.51,3.8,3.8,0,0,0-1.36,1.34,9.23,9.23,0,0,0-.85,2.55l-1.12,5.36h-1.89l1.57-7.47a5.64,5.64,0,0,0,.16-1.08,1.15,1.15,0,0,0-.34-.87,1.17,1.17,0,0,0-.88-.34,3.38,3.38,0,0,0-1.68.51,4.13,4.13,0,0,0-1.43,1.42,8.62,8.62,0,0,0-.91,2.6l-1.09,5.23Z"/><path d="M516.36,301.29H506.28v-1.75h10.08Zm0,4.64H506.28v-1.75h10.08Z"/><path d="M529.12,310.27l.82-3.89h-6.23l.4-1.87,8.55-9.51h1.54l-2,9.71h2.15l-.35,1.67h-2.14l-.83,3.89Zm1.16-5.56,1.34-6.38-5.69,6.38Z"/><path d="M537.7,310.27a20.49,20.49,0,0,1,1.06-3.71,31,31,0,0,1,2.54-5.19,22.29,22.29,0,0,1,3.5-4.43h-7.61l.36-1.73h9.75l-.35,1.73a19.92,19.92,0,0,0-4.33,5.61,28.68,28.68,0,0,0-3,7.72Z"/><path d="M551.28,301.88a3.26,3.26,0,0,1-1.28-1.21,3.12,3.12,0,0,1-.43-1.57,3.93,3.93,0,0,1,1-2.57,4.48,4.48,0,0,1,3.62-1.59,4.44,4.44,0,0,1,3.16,1.08,3.48,3.48,0,0,1,1.16,2.64,3.42,3.42,0,0,1-.63,2,4.07,4.07,0,0,1-2,1.42,4.11,4.11,0,0,1,1.31,1.22,3.75,3.75,0,0,1,.51,2,5.34,5.34,0,0,1-1.45,3.66,5,5,0,0,1-3.87,1.6,4.28,4.28,0,0,1-3.15-1.19,4,4,0,0,1-1.22-3,4.77,4.77,0,0,1,.87-2.88A4.17,4.17,0,0,1,551.28,301.88ZM550,306.54a2.52,2.52,0,0,0,.31,1.22,2.2,2.2,0,0,0,.93.93,2.94,2.94,0,0,0,3.9-1.1,4.27,4.27,0,0,0,.75-2.42,2.33,2.33,0,0,0-.69-1.74,2.5,2.5,0,0,0-1.82-.68,3.18,3.18,0,0,0-2.4,1.05A3.88,3.88,0,0,0,550,306.54Zm1.47-7.36a2.09,2.09,0,0,0,.63,1.58,2.41,2.41,0,0,0,1.73.6,2.91,2.91,0,0,0,2.1-.79,2.6,2.6,0,0,0,.81-1.93,2.1,2.1,0,0,0-.63-1.58,2.38,2.38,0,0,0-1.74-.61,3.11,3.11,0,0,0-1.53.39,2.4,2.4,0,0,0-1,1A2.77,2.77,0,0,0,551.43,299.18Z"/><path d="M559.49,310.27l.45-2.13h2.14L561.7,310a5.13,5.13,0,0,1-1.1,2.46,2.78,2.78,0,0,1-1.76.89l.18-.82c.83-.23,1.37-1,1.64-2.26Z"/><path d="M568.55,301.42a6.24,6.24,0,0,1,1.58-1,4.14,4.14,0,0,1,1.55-.32,3.82,3.82,0,0,1,2.88,1.18,4.42,4.42,0,0,1,1.13,3.2,6.41,6.41,0,0,1-1.68,4.45,4.65,4.65,0,0,1-3.54,1.59,4.11,4.11,0,0,1-3.17-1.39,5.71,5.71,0,0,1-1.26-4,15.16,15.16,0,0,1,.81-4.76,10.62,10.62,0,0,1,1.55-3.11,6.29,6.29,0,0,1,2-1.8,4.76,4.76,0,0,1,2.33-.57,3.48,3.48,0,0,1,2.56,1,4.2,4.2,0,0,1,1.12,2.79l-1.75.17a3,3,0,0,0-.7-1.8,1.9,1.9,0,0,0-1.36-.55,2.79,2.79,0,0,0-1.7.66,5.23,5.23,0,0,0-1.47,1.94A10.92,10.92,0,0,0,568.55,301.42Zm-.66,4.56a3.09,3.09,0,0,0,.81,2.17,2.37,2.37,0,0,0,1.81.88,2.7,2.7,0,0,0,1.5-.54,4.12,4.12,0,0,0,1.34-1.63,4.72,4.72,0,0,0,.55-2.17,3.2,3.2,0,0,0-.76-2.24,2.44,2.44,0,0,0-1.85-.83,3.06,3.06,0,0,0-2.32,1.22A4.57,4.57,0,0,0,567.89,306Z"/><path d="M582.78,310.27,586,295h1.88l-2,9.47,5.5-5.26h2.49l-4.72,4.12,2.85,6.94h-2.06l-2.21-5.68-2.29,2-.77,3.7Z"/><path d="M593.41,310.27l2.31-11.06h1.89l-.39,1.82a7.65,7.65,0,0,1,1.88-1.62,3.7,3.7,0,0,1,1.8-.45,2.65,2.65,0,0,1,1.72.55,2.55,2.55,0,0,1,.91,1.52,6.29,6.29,0,0,1,1.78-1.55,3.91,3.91,0,0,1,2-.52,2.9,2.9,0,0,1,2.08.66,2.41,2.41,0,0,1,.69,1.84,9.8,9.8,0,0,1-.24,1.69l-1.49,7.12h-1.88L608,303a7.07,7.07,0,0,0,.2-1.28,1.11,1.11,0,0,0-.35-.86,1.42,1.42,0,0,0-1-.31,3.37,3.37,0,0,0-1.72.51,3.65,3.65,0,0,0-1.36,1.34,8.61,8.61,0,0,0-.85,2.55l-1.13,5.36H599.9l1.56-7.47a5.88,5.88,0,0,0,.17-1.08,1.16,1.16,0,0,0-1.22-1.21,3.32,3.32,0,0,0-1.68.51,4,4,0,0,0-1.43,1.42,8.35,8.35,0,0,0-.91,2.6l-1.09,5.23Z"/></svg>