<svg id="Capa_1" data-name="Capa 1" xmlns="http://www.w3.org/2000/svg" viewBox="0 0 1013.25 462.79"><defs><style>.cls-1{font-size:39.74px;font-family:Arial-BoldItalicMT, Arial;font-weight:700;}.cls-1,.cls-12,.cls-14,.cls-15,.cls-2,.cls-4,.cls-5,.cls-9{font-style:italic;}.cls-2{font-size:38.31px;}.cls-12,.cls-14,.cls-15,.cls-2,.cls-4,.cls-5,.cls-9{font-family:Arial-ItalicMT, Arial;}.cls-3,.cls-7,.cls-8{fill:none;stroke-miterlimit:10;}.cls-3,.cls-8{stroke:#000;}.cls-4{font-size:36px;}.cls-5{font-size:33.14px;}.cls-6{font-size:20.86px;}.cls-7{stroke:red;}.cls-8{stroke-dasharray:2;}.cls-9{font-size:34.75px;}.cls-10{font-size:21.87px;}.cls-11{letter-spacing:0em;}.cls-12{font-size:47.41px;}.cls-13,.cls-15{font-size:29.84px;}.cls-14{font-size:40.98px;}</style></defs><title>ejercicio1caidalibre</title><text class="cls-1" transform="translate(167.92 82.38)">Datos:</text><text class="cls-2" transform="translate(318.46 84.74)">h = 828 m</text><text class="cls-2" transform="translate(587.99 86.6)">a = g = 9,81</text><line class="cls-3" x1="810.04" y1="74.28" x2="869.13" y2="74.28"/><text class="cls-4" transform="translate(827.47 64.3)">m</text><text class="cls-4" transform="translate(830.17 108.63)">s</text><path d="M853.24,98.64a5.62,5.62,0,0,1,.56-1.57,5.16,5.16,0,0,1,.94-1.2c.39-.38,1.14-1,2.25-1.9a18,18,0,0,0,1.39-1.19,4.14,4.14,0,0,0,.77-1.09,1.94,1.94,0,0,0,.17-.8,1.64,1.64,0,0,0-.51-1.22,1.7,1.7,0,0,0-1.26-.5,1.84,1.84,0,0,0-1.28.51,2.93,2.93,0,0,0-.78,1.63l-1.27-.18a3.53,3.53,0,0,1,1.08-2.2,3.24,3.24,0,0,1,2.23-.8,3.58,3.58,0,0,1,1.62.37,2.55,2.55,0,0,1,1.09,1,2.91,2.91,0,0,1,.36,1.39,3.2,3.2,0,0,1-.74,2,19.79,19.79,0,0,1-2.68,2.37,14.59,14.59,0,0,0-1.43,1.24,4.64,4.64,0,0,0-.7.91h4.68l-.25,1.19Z"/><text class="cls-5" transform="translate(7.05 182.26)">Se utiliza la siguiente ecuación: V<tspan class="cls-6" x="493.74" y="0">f </tspan><tspan x="505.33" y="0">² = V</tspan><tspan class="cls-6" x="576.24" y="0">t </tspan><tspan x="587.83" y="0">² + 2ah, donde va la V</tspan><tspan class="cls-6" x="913.03" y="0">i </tspan><tspan x="923.46" y="0" xml:space="preserve">= 0   </tspan></text><line class="cls-7" x1="572.37" y1="196.58" x2="615.73" y2="144.05"/><rect class="cls-8" x="985.33" y="147.63" width="14.12" height="16.14"/><text class="cls-9" transform="translate(304.54 279.85)">V<tspan class="cls-10" x="23.18" y="0" xml:space="preserve">f  </tspan><tspan class="cls-11" x="41.41" y="0" xml:space="preserve">= 2gh =   2(9,81) (828)</tspan></text><polyline class="cls-3" points="707.64 246.08 496.82 246.08 479.8 280.92 475.75 271.6 472.13 271.6"/><text class="cls-12" transform="translate(270.16 390.44)">V<tspan class="cls-13" x="31.62" y="0" xml:space="preserve">f  </tspan><tspan x="56.49" y="0">= 127,5</tspan></text><line class="cls-3" x1="499.18" y1="380.27" x2="566.43" y2="380.27"/><line class="cls-3" x1="624.69" y1="380.27" x2="742.01" y2="380.27"/><text class="cls-14" transform="translate(519.02 368.91)">m</text><text class="cls-14" transform="translate(522.09 419.36)">s</text><path d="M605.63,370.51a8,8,0,0,1-2.77,3.19,6.84,6.84,0,0,1-4,1.34,19.35,19.35,0,0,1-5.63-1.24,19.32,19.32,0,0,0-5.62-1.25,4.55,4.55,0,0,0-2.4.75,4.83,4.83,0,0,0-1.78,1.82h-1.94a8,8,0,0,1,2.75-3.19,6.85,6.85,0,0,1,4-1.34,19.61,19.61,0,0,1,5.63,1.24,19.72,19.72,0,0,0,5.62,1.25,4.55,4.55,0,0,0,2.4-.75,4.83,4.83,0,0,0,1.78-1.82Z"/><path d="M605.63,380.4a8,8,0,0,1-2.77,3.2,6.91,6.91,0,0,1-4,1.34,19.44,19.44,0,0,1-5.63-1.25,19.32,19.32,0,0,0-5.62-1.25,4.64,4.64,0,0,0-2.4.75,4.9,4.9,0,0,0-1.78,1.82h-1.94a8,8,0,0,1,2.75-3.19,6.85,6.85,0,0,1,4-1.34,19.61,19.61,0,0,1,5.63,1.24,19.72,19.72,0,0,0,5.62,1.25,4.55,4.55,0,0,0,2.4-.75,4.83,4.83,0,0,0,1.78-1.82Z"/><text class="cls-15" transform="translate(629.45 365.18)">459 km</text><text class="cls-15" transform="translate(662.32 418.97)">h</text></svg>