<svg id="Capa_1" data-name="Capa 1" xmlns="http://www.w3.org/2000/svg" viewBox="0 0 442.53 237.64"><defs><style>.cls-1,.cls-2,.cls-5{fill:none;}.cls-1,.cls-5{stroke:#1d1d1b;stroke-miterlimit:10;}.cls-3,.cls-4{font-size:15.64px;}.cls-3,.cls-4,.cls-6{fill:#1d1d1b;}.cls-3{font-family:ArialMT, Arial;}.cls-4{font-family:Arial-ItalicMT, Arial;font-style:italic;}.cls-5{stroke-width:2px;}</style></defs><title>ejercicio_ejemplo2</title><line class="cls-1" x1="320.91" y1="133.89" x2="357.9" y2="133.89"/><rect class="cls-2" x="-85.05" y="-118.46" width="612" height="792"/><rect class="cls-2" x="-85.05" y="-118.46" width="612" height="792"/><text class="cls-3" transform="translate(13.81 26.76)">Datos:</text><text class="cls-4" transform="translate(63.82 26.76)">w</text><text class="cls-4" transform="translate(75.78 31.66)">g</text><text class="cls-4" transform="translate(91.84 26.76)">=25 RPM,</text><text class="cls-4" transform="translate(221.46 26.76)">R</text><text class="cls-4" transform="translate(233.39 31.66)">g</text><text class="cls-4" transform="translate(41.85 138.01)">w</text><text class="cls-4" transform="translate(53.8 142.91)">g</text><text class="cls-4" transform="translate(63.08 138.01)">R</text><text class="cls-4" transform="translate(75.01 142.91)">g</text><text class="cls-4" transform="translate(104.05 138.01)">w</text><text class="cls-4" transform="translate(116.01 142.91)">p</text><text class="cls-4" transform="translate(279.06 138.01)">w</text><text class="cls-4" transform="translate(291.01 142.91)">p</text><text class="cls-4" transform="translate(316.77 124.09)">w</text><text class="cls-4" transform="translate(327.18 128.99)">g</text><text class="cls-4" transform="translate(339.09 124.09)">R</text><text class="cls-4" transform="translate(349.5 128.99)">g</text><text class="cls-4" transform="translate(327.78 148.4)">R</text><text class="cls-4" transform="translate(338.19 153.3)">p</text><text class="cls-4" transform="translate(125.28 138.01)">R</text><text class="cls-4" transform="translate(137.21 142.91)">p</text><text class="cls-4" transform="translate(252.28 27.32)">= 4m,</text><text class="cls-4" transform="translate(358.18 26.76)">R</text><text class="cls-4" transform="translate(370.11 31.66)">p</text><text class="cls-4" transform="translate(389 27.32)">= 2m,</text><text class="cls-4" transform="translate(12.29 80.38)">V</text><text class="cls-4" transform="translate(21.72 84.88)">T</text><text class="cls-4" transform="translate(12.29 138.21)">V</text><text class="cls-4" transform="translate(21.72 142.71)">T</text><text class="cls-3" transform="translate(32.81 79.72)">: velocidad tangencial igual a lo lardo de la banda</text><text class="cls-3" transform="translate(32.81 138.21)">=</text><text class="cls-3" transform="translate(90.28 138.21)">=</text><text class="cls-3" transform="translate(307.14 138.21)">=</text><line class="cls-5" x1="181.65" y1="138.21" x2="217.7" y2="138.21"/><path class="cls-6" d="M223.74,138.21a30.59,30.59,0,0,0-8.55,4.76l1.72-4.76-1.72-4.75A30.31,30.31,0,0,0,223.74,138.21Z"/><text class="cls-4" transform="translate(193.2 212.02)">w</text><text class="cls-4" transform="translate(205.16 216.92)">p</text><text class="cls-3" transform="translate(221.29 212.22)"><tspan xml:space="preserve">= 25 RPM  *</tspan></text><text class="cls-3" transform="translate(319.58 198.59)">4</text><text class="cls-3" transform="translate(319.58 223.07)">2</text><line class="cls-1" x1="317.45" y1="206.34" x2="330.22" y2="206.34"/><text class="cls-3" transform="translate(335.28 212.22)">=</text><text class="cls-3" transform="translate(352.8 212.02)">50 RPM</text></svg>