<svg id="Capa_1" data-name="Capa 1" xmlns="http://www.w3.org/2000/svg" viewBox="0 0 457.9 85.08"><defs><style>.cls-1{fill:#fff;}.cls-2{font-size:25.98px;font-family:Arial-ItalicMT, Arial;font-style:italic;}</style></defs><title>formula-39-2</title><path class="cls-1" d="M22.58,45.2l1.16-.84.82.21-1.87,8a8.67,8.67,0,0,0-.28,1.88,1.24,1.24,0,0,0,.17.73.6.6,0,0,0,.52.23,1.4,1.4,0,0,0,.81-.31A9,9,0,0,0,25.13,54l.72.71a11,11,0,0,1-2,1.74,3.21,3.21,0,0,1-1.74.51,1.59,1.59,0,0,1-1.26-.52A2,2,0,0,1,20.43,55a4.41,4.41,0,0,1,.29-1.49l-.16-.05a11,11,0,0,1-2.31,2.6,3.79,3.79,0,0,1-2.31.83,2.5,2.5,0,0,1-2.16-1.06,4.93,4.93,0,0,1-.77-3,10.58,10.58,0,0,1,.86-4.19,7.8,7.8,0,0,1,2.35-3.18,5.34,5.34,0,0,1,3.34-1.16,6.31,6.31,0,0,1,1.54.19A5.4,5.4,0,0,1,22.58,45.2ZM21.46,49a6.45,6.45,0,0,0,.15-.9,7,7,0,0,0,0-.82,2.08,2.08,0,0,0-.42-1.44,1.87,1.87,0,0,0-1.42-.45,3.25,3.25,0,0,0-2.35,1.05,7.13,7.13,0,0,0-1.62,2.82,11.2,11.2,0,0,0-.58,3.53,4.26,4.26,0,0,0,.36,2,1.27,1.27,0,0,0,1.21.65,2.44,2.44,0,0,0,1.64-.72,9.93,9.93,0,0,0,1.66-2.06,9,9,0,0,0,1.22-3.09Z"/><path class="cls-1" d="M25.45,39.75,22.27,42.5l-.67-.76,2-1.77H15.89V38.78h7.74L21.6,37l.67-.76L25.45,39Z"/><path class="cls-1" d="M41.65,47.5V45.81H57.28V47.5Zm0,5.26V51.07H57.28v1.69Z"/><path class="cls-1" d="M83,45.2l1.17-.84.81.21-1.87,8a9.34,9.34,0,0,0-.28,1.88,1.24,1.24,0,0,0,.17.73.6.6,0,0,0,.52.23,1.4,1.4,0,0,0,.81-.31A9,9,0,0,0,85.53,54l.72.71a11.34,11.34,0,0,1-1.94,1.74,3.22,3.22,0,0,1-1.75.51,1.59,1.59,0,0,1-1.25-.52A2,2,0,0,1,80.84,55a4.18,4.18,0,0,1,.29-1.49L81,53.47a11,11,0,0,1-2.31,2.6,3.74,3.74,0,0,1-2.3.83,2.51,2.51,0,0,1-2.17-1.06,4.93,4.93,0,0,1-.77-3,10.58,10.58,0,0,1,.86-4.19,7.89,7.89,0,0,1,2.35-3.18A5.34,5.34,0,0,1,80,44.36a6.31,6.31,0,0,1,1.54.19A5.4,5.4,0,0,1,83,45.2ZM81.86,49a8.72,8.72,0,0,0,.16-.9c0-.25,0-.53,0-.82a2.13,2.13,0,0,0-.41-1.44,1.9,1.9,0,0,0-1.43-.45,3.21,3.21,0,0,0-2.34,1.05,7,7,0,0,0-1.63,2.82,11.2,11.2,0,0,0-.58,3.53,4.26,4.26,0,0,0,.36,2,1.28,1.28,0,0,0,1.21.65,2.48,2.48,0,0,0,1.65-.72,10.26,10.26,0,0,0,1.66-2.06,9.2,9.2,0,0,0,1.21-3.09Z"/><path class="cls-1" d="M85.86,39.75,82.67,42.5,82,41.74,84,40H76.29V38.78H84L82,37l.67-.76L85.86,39Z"/><path class="cls-1" d="M89.43,58.74c.08-.35.14-.63.17-.86a3.32,3.32,0,0,0,.05-.58c0-.44-.17-.66-.53-.66a.83.83,0,0,0-.34.07,1.37,1.37,0,0,0-.34.2,5.23,5.23,0,0,0-.4.34c-.15.14-.31.31-.49.49l-.62-.58c.3-.31.58-.57.82-.79a6.29,6.29,0,0,1,.72-.55,3.13,3.13,0,0,1,.68-.31,2.61,2.61,0,0,1,.69-.1,1.29,1.29,0,0,1,1,.44A1.76,1.76,0,0,1,91.24,57a2,2,0,0,1-.12.72l.12.06A7.52,7.52,0,0,1,93,56a3.09,3.09,0,0,1,1.77-.58,6.28,6.28,0,0,1,.64,0,5.21,5.21,0,0,1,.59.09l-.46,2.18h-1a1.46,1.46,0,0,0-.23-.77.63.63,0,0,0-.54-.24,1.08,1.08,0,0,0-.48.13,2.9,2.9,0,0,0-.57.39,5.52,5.52,0,0,0-.6.59,6.1,6.1,0,0,0-.56.75,5.27,5.27,0,0,0-.77,1.78l-.92,4.28H88.08Z"/><path class="cls-1" d="M108,59.94v5.2h-1.28v-5.2h-4.92v-1.2h4.92V53.55H108v5.19h4.92v1.2Z"/><path class="cls-1" d="M125.9,45.2l1.16-.84.82.21-1.87,8a8.67,8.67,0,0,0-.28,1.88,1.24,1.24,0,0,0,.17.73.6.6,0,0,0,.52.23,1.4,1.4,0,0,0,.81-.31A9,9,0,0,0,128.45,54l.72.71a11,11,0,0,1-1.95,1.74,3.21,3.21,0,0,1-1.74.51,1.59,1.59,0,0,1-1.26-.52,2,2,0,0,1-.47-1.38,4.41,4.41,0,0,1,.29-1.49l-.16-.05a11,11,0,0,1-2.31,2.6,3.79,3.79,0,0,1-2.31.83,2.5,2.5,0,0,1-2.16-1.06,4.93,4.93,0,0,1-.77-3,10.58,10.58,0,0,1,.86-4.19,7.8,7.8,0,0,1,2.35-3.18,5.34,5.34,0,0,1,3.34-1.16,6.31,6.31,0,0,1,1.54.19A5.4,5.4,0,0,1,125.9,45.2ZM124.78,49a6.45,6.45,0,0,0,.15-.9,7,7,0,0,0,0-.82,2.08,2.08,0,0,0-.42-1.44,1.87,1.87,0,0,0-1.42-.45,3.25,3.25,0,0,0-2.35,1.05,7.13,7.13,0,0,0-1.62,2.82,11.2,11.2,0,0,0-.58,3.53,4.26,4.26,0,0,0,.36,2,1.27,1.27,0,0,0,1.21.65,2.44,2.44,0,0,0,1.64-.72,9.93,9.93,0,0,0,1.66-2.06,9,9,0,0,0,1.22-3.09Z"/><path class="cls-1" d="M128.77,39.75l-3.18,2.75-.67-.76L127,40h-7.74V38.78H127l-2-1.76.67-.76L128.77,39Z"/><path class="cls-1" d="M136.43,62.89a10.18,10.18,0,0,1-.88.87,5.49,5.49,0,0,1-.81.59,3.55,3.55,0,0,1-.79.34,3.49,3.49,0,0,1-.79.1,2.21,2.21,0,0,1-1.6-.51A2,2,0,0,1,131,62.8a6.73,6.73,0,0,1,.05-.74,6.34,6.34,0,0,1,.14-.78l1.07-4.68h-1.55l.18-.69a2.67,2.67,0,0,0,.84-.1,1.39,1.39,0,0,0,.51-.29,2.14,2.14,0,0,0,.27-.31,4.3,4.3,0,0,0,.25-.45c.08-.17.17-.38.26-.61l.29-.84h1.41l-.52,2.29h3.07l-.21,1H134l-.92,3.79c-.06.25-.11.48-.15.68s-.07.38-.09.54,0,.31-.05.45,0,.25,0,.37a1.38,1.38,0,0,0,.22.84.85.85,0,0,0,.74.31,1.7,1.7,0,0,0,.92-.32,5.68,5.68,0,0,0,1.11-1Z"/><path class="cls-1" d="M171.63,61.91l.14-2.16a4.8,4.8,0,0,0,1.38.2,1.89,1.89,0,0,0,1.13-.31,5.35,5.35,0,0,0,1.22-1.58l.73-1.31L174,43.24h2.25l1,6.81c.2,1.34.38,2.69.52,4l6-10.84h2.39L177.61,58.5a9.7,9.7,0,0,1-2.2,3,3.6,3.6,0,0,1-2.22.72A4.56,4.56,0,0,1,171.63,61.91Z"/><path class="cls-1" d="M211.41,61.07h-1.95V37.46h1.95Z"/><path class="cls-1" d="M225.43,45.2l1.17-.84.81.21-1.86,8a8.67,8.67,0,0,0-.28,1.88,1.25,1.25,0,0,0,.16.73.61.61,0,0,0,.52.23,1.35,1.35,0,0,0,.81-.31A8.4,8.4,0,0,0,228,54l.73.71a11.34,11.34,0,0,1-2,1.74,3.22,3.22,0,0,1-1.75.51,1.59,1.59,0,0,1-1.25-.52,2,2,0,0,1-.47-1.38,4.41,4.41,0,0,1,.29-1.49l-.16-.05a11.42,11.42,0,0,1-2.31,2.6,3.79,3.79,0,0,1-2.31.83,2.5,2.5,0,0,1-2.16-1.06,4.86,4.86,0,0,1-.77-3,10.57,10.57,0,0,1,.85-4.19,7.91,7.91,0,0,1,2.36-3.18,5.33,5.33,0,0,1,3.33-1.16,6.39,6.39,0,0,1,1.55.19A5.35,5.35,0,0,1,225.43,45.2ZM224.32,49q.1-.52.15-.9c0-.25,0-.53,0-.82a2.08,2.08,0,0,0-.42-1.44,1.87,1.87,0,0,0-1.42-.45,3.23,3.23,0,0,0-2.35,1.05,7.13,7.13,0,0,0-1.62,2.82,11.22,11.22,0,0,0-.59,3.53,4.26,4.26,0,0,0,.36,2,1.3,1.3,0,0,0,1.22.65,2.48,2.48,0,0,0,1.64-.72A9.93,9.93,0,0,0,223,52.62a9,9,0,0,0,1.21-3.09Z"/><path class="cls-1" d="M228.31,39.75l-3.18,2.75-.68-.76,2-1.77h-7.74V38.78h7.74l-2-1.76.68-.76L228.31,39Z"/><path class="cls-1" d="M234.74,61.07h-2V37.46h2Z"/><path class="cls-1" d="M252.72,47.5V45.81h15.63V47.5Zm0,5.26V51.07h15.63v1.69Z"/><path class="cls-1" d="M316.21,45.2l1.16-.84.82.21-1.87,8a9.34,9.34,0,0,0-.28,1.88,1.24,1.24,0,0,0,.17.73.6.6,0,0,0,.52.23,1.4,1.4,0,0,0,.81-.31A9,9,0,0,0,318.76,54l.72.71a11,11,0,0,1-2,1.74,3.18,3.18,0,0,1-1.74.51,1.61,1.61,0,0,1-1.26-.52,2,2,0,0,1-.47-1.38,4.41,4.41,0,0,1,.29-1.49l-.16-.05a11,11,0,0,1-2.31,2.6,3.79,3.79,0,0,1-2.31.83,2.5,2.5,0,0,1-2.16-1.06,4.93,4.93,0,0,1-.77-3,10.58,10.58,0,0,1,.86-4.19,7.8,7.8,0,0,1,2.35-3.18,5.34,5.34,0,0,1,3.34-1.16,6.31,6.31,0,0,1,1.54.19A5.4,5.4,0,0,1,316.21,45.2ZM315.09,49a6.45,6.45,0,0,0,.15-.9,7,7,0,0,0,0-.82,2.08,2.08,0,0,0-.42-1.44,1.87,1.87,0,0,0-1.42-.45,3.25,3.25,0,0,0-2.35,1.05,7.13,7.13,0,0,0-1.62,2.82,11.2,11.2,0,0,0-.58,3.53,4.26,4.26,0,0,0,.36,2,1.27,1.27,0,0,0,1.21.65,2.44,2.44,0,0,0,1.64-.72,10.27,10.27,0,0,0,1.67-2.06A9.2,9.2,0,0,0,315,49.53Z"/><path class="cls-1" d="M319.08,39.75,315.9,42.5l-.67-.76,2-1.77h-7.74V38.78h7.74l-2-1.76.67-.76L319.08,39Z"/><path class="cls-1" d="M322.65,58.74c.08-.35.14-.63.17-.86a3.32,3.32,0,0,0,.05-.58c0-.44-.17-.66-.53-.66a.83.83,0,0,0-.34.07,1.37,1.37,0,0,0-.34.2,5.23,5.23,0,0,0-.4.34l-.49.49-.62-.58c.3-.31.58-.57.82-.79a6.29,6.29,0,0,1,.72-.55,3.13,3.13,0,0,1,.68-.31,2.61,2.61,0,0,1,.69-.1,1.29,1.29,0,0,1,1,.44,1.76,1.76,0,0,1,.36,1.15,2,2,0,0,1-.12.72l.12.06A7.52,7.52,0,0,1,326.24,56a3.09,3.09,0,0,1,1.77-.58,6.28,6.28,0,0,1,.64,0,5.21,5.21,0,0,1,.59.09l-.46,2.18h-1a1.46,1.46,0,0,0-.23-.77.63.63,0,0,0-.54-.24,1.08,1.08,0,0,0-.48.13,2.9,2.9,0,0,0-.57.39,5.52,5.52,0,0,0-.6.59,6.1,6.1,0,0,0-.56.75,5.27,5.27,0,0,0-.77,1.78l-.92,4.28H321.3Z"/><path class="cls-1" d="M349.45,32.34a3.56,3.56,0,0,0,.72-.05,1.14,1.14,0,0,0,.43-.18,1,1,0,0,0,.26-.33c.06-.14.14-.34.24-.63h.76l-.15,2.64h-7.43v-.44a11.65,11.65,0,0,1,1.05-1.94,20.38,20.38,0,0,1,1.87-2.33c.7-.77,1.2-1.36,1.5-1.75a8.26,8.26,0,0,0,.76-1.13,4.89,4.89,0,0,0,.36-.89,3.44,3.44,0,0,0,.1-.84,3.17,3.17,0,0,0-.21-1.2,1.81,1.81,0,0,0-.67-.82,1.94,1.94,0,0,0-1.12-.29A2.27,2.27,0,0,0,345.65,24h-1.1V22.3a10.69,10.69,0,0,1,2.05-.74,7,7,0,0,1,1.71-.23,3.78,3.78,0,0,1,2.53.73,2.67,2.67,0,0,1,.86,2.14,4.1,4.1,0,0,1-.09.88,4.25,4.25,0,0,1-.3.79,6.28,6.28,0,0,1-.55.84c-.23.3-.48.61-.76.92s-.75.82-1.43,1.55a19.54,19.54,0,0,0-2.52,3.16Z"/><path class="cls-1" d="M371.24,50.12v7.31h-1.8V50.12h-6.91V48.44h6.91V41.13h1.8v7.31h6.92v1.68Z"/><path class="cls-1" d="M405.08,45.2l1.16-.84.82.21-1.87,8a8.67,8.67,0,0,0-.28,1.88,1.24,1.24,0,0,0,.17.73.6.6,0,0,0,.52.23,1.4,1.4,0,0,0,.81-.31A9,9,0,0,0,407.63,54l.72.71a11,11,0,0,1-2,1.74,3.21,3.21,0,0,1-1.74.51,1.59,1.59,0,0,1-1.26-.52,2,2,0,0,1-.47-1.38,4.41,4.41,0,0,1,.29-1.49l-.16-.05a11,11,0,0,1-2.31,2.6,3.79,3.79,0,0,1-2.31.83,2.5,2.5,0,0,1-2.16-1.06,4.93,4.93,0,0,1-.77-3,10.58,10.58,0,0,1,.86-4.19,7.8,7.8,0,0,1,2.35-3.18,5.34,5.34,0,0,1,3.34-1.16,6.31,6.31,0,0,1,1.54.19A5.4,5.4,0,0,1,405.08,45.2ZM404,49a6.45,6.45,0,0,0,.15-.9,7,7,0,0,0,0-.82,2.08,2.08,0,0,0-.42-1.44,1.87,1.87,0,0,0-1.42-.45A3.25,3.25,0,0,0,400,46.42a7.13,7.13,0,0,0-1.62,2.82,11.2,11.2,0,0,0-.58,3.53,4.26,4.26,0,0,0,.36,2,1.27,1.27,0,0,0,1.21.65,2.44,2.44,0,0,0,1.64-.72,9.93,9.93,0,0,0,1.66-2.06,9,9,0,0,0,1.22-3.09Z"/><path class="cls-1" d="M408,39.75l-3.18,2.75-.67-.76,2-1.77h-7.74V38.78h7.74l-2-1.76.67-.76L408,39Z"/><path class="cls-1" d="M415.61,62.89a10.18,10.18,0,0,1-.88.87,5.49,5.49,0,0,1-.81.59,3.55,3.55,0,0,1-.79.34,3.49,3.49,0,0,1-.79.1,2.21,2.21,0,0,1-1.6-.51,2,2,0,0,1-.53-1.48,6.73,6.73,0,0,1,.05-.74,6.34,6.34,0,0,1,.14-.78l1.07-4.68h-1.55l.18-.69a2.67,2.67,0,0,0,.84-.1,1.39,1.39,0,0,0,.51-.29,2.14,2.14,0,0,0,.27-.31,4.3,4.3,0,0,0,.25-.45c.08-.17.17-.38.26-.61l.29-.84h1.41l-.52,2.29h3.07l-.21,1h-3.06l-.92,3.79c-.06.25-.11.48-.15.68s-.07.38-.09.54,0,.31-.05.45,0,.25,0,.37a1.38,1.38,0,0,0,.22.84.85.85,0,0,0,.74.31,1.7,1.7,0,0,0,.92-.32,5.68,5.68,0,0,0,1.11-1Z"/><path class="cls-1" d="M436.63,32.34a3.56,3.56,0,0,0,.72-.05,1.14,1.14,0,0,0,.43-.18,1,1,0,0,0,.26-.33c.06-.14.14-.34.24-.63H439l-.15,2.64h-7.43v-.44a11.65,11.65,0,0,1,1.05-1.94,20.38,20.38,0,0,1,1.87-2.33c.7-.77,1.2-1.36,1.5-1.75a8.26,8.26,0,0,0,.76-1.13,4.19,4.19,0,0,0,.35-.89,3,3,0,0,0,.11-.84,3.17,3.17,0,0,0-.21-1.2,1.81,1.81,0,0,0-.67-.82,1.94,1.94,0,0,0-1.12-.29A2.27,2.27,0,0,0,432.83,24h-1.1V22.3a10.69,10.69,0,0,1,2-.74,7,7,0,0,1,1.71-.23,3.78,3.78,0,0,1,2.53.73,2.67,2.67,0,0,1,.86,2.14,4.1,4.1,0,0,1-.09.88,4.25,4.25,0,0,1-.3.79,6.28,6.28,0,0,1-.55.84c-.23.3-.48.61-.76.92s-.75.82-1.43,1.55a19.54,19.54,0,0,0-2.52,3.16Z"/><rect class="cls-1" x="296.98" y="15.73" width="145.14" height="1.68"/><text class="cls-2" transform="translate(11.68 102.61)"> </text><polygon class="cls-1" points="281.28 68.55 276.84 36.16 278.82 35.88 282.03 59.26 295.37 15.57 298.76 15.57 298.76 17.57 296.85 17.57 281.28 68.55"/><rect class="cls-1" x="298.53" y="23.48" width="2" height="50.01"/><rect class="cls-1" x="388.21" y="23.48" width="2" height="50.01"/><rect class="cls-1" x="335.77" y="23.48" width="2" height="50.01"/><rect class="cls-1" x="424.82" y="23.48" width="2" height="50.01"/></svg>