<svg id="Capa_1" data-name="Capa 1" xmlns="http://www.w3.org/2000/svg" viewBox="0 0 1080 203.68"><defs><style>.cls-1{font-size:74.97px;}.cls-1,.cls-2{font-family:ArialMT, Arial;}.cls-2{font-size:69.96px;}.cls-3,.cls-4{fill:none;stroke:#000;stroke-miterlimit:10;}.cls-4{stroke-width:4px;}</style></defs><title>formula1</title><text class="cls-1" transform="translate(22.81 110.59)">V</text><text class="cls-1" transform="translate(118.36 124.41)">=</text><text class="cls-1" transform="translate(279.42 124.41)">=</text><text class="cls-1" transform="translate(453.46 124.41)">=</text><text class="cls-1" transform="translate(780.77 124.41)">=</text><text class="cls-1" transform="translate(62.47 152.06)">x</text><text class="cls-1" transform="translate(520.17 61.26)">v</text><text class="cls-1" transform="translate(551.16 96.73)">f</text><text class="cls-1" transform="translate(832.32 88.65)">v</text><text class="cls-2" transform="translate(861.85 116.08)">med-x</text><text class="cls-1" transform="translate(674.38 61.26)">x</text><text class="cls-1" transform="translate(705.38 96.73)">i</text><polygon class="cls-3" points="361.36 125.17 341.8 172.88 380.93 172.88 361.36 125.17"/><polygon class="cls-3" points="361.36 41.83 341.8 89.54 380.93 89.54 361.36 41.83"/><text class="cls-1" transform="translate(383.21 172.66)">t</text><text class="cls-1" transform="translate(383.21 89.54)">x</text><line class="cls-4" x1="328.39" y1="109.37" x2="434.41" y2="109.37"/><line class="cls-4" x1="520.17" y1="107.43" x2="751.11" y2="107.43"/><line class="cls-4" x1="601.12" y1="38.91" x2="654.13" y2="38.91"/><text class="cls-1" transform="translate(532.84 164.45)">t</text><text class="cls-1" transform="translate(686.21 164.45)">t</text><text class="cls-1" transform="translate(559.83 193.25)">f</text><text class="cls-1" transform="translate(714.05 193.25)">i</text><line class="cls-4" x1="609.79" y1="135.43" x2="662.8" y2="135.43"/><text class="cls-1" transform="translate(205.08 172.88)">t</text><text class="cls-1" transform="translate(196.98 89.76)">x</text><line class="cls-4" x1="180.82" y1="109.58" x2="253.4" y2="109.58"/></svg>