<svg id="Capa_1" data-name="Capa 1" xmlns="http://www.w3.org/2000/svg" viewBox="0 0 1080 203.68"><defs><style>.cls-1{fill:#fff;}</style></defs><title>formulacafe</title><path class="cls-1" d="M224.4,176.37H183.77l20.31-49.53Zm-39.14-1h37.65l-18.83-45.89Z"/><path class="cls-1" d="M243.91,170.27l-1.1,5.42a18,18,0,0,1-4.61.62,9.53,9.53,0,0,1-6.3-1.94,4.91,4.91,0,0,1-1.76-4,39.71,39.71,0,0,1,1-5.89l4.72-22.59h-5.24l1.07-5.12h5.23l2-9.56,7.58-4.57-3,14.13H250l-1.1,5.12h-6.48l-4.5,21.49a40.11,40.11,0,0,0-.84,4.91,2.32,2.32,0,0,0,.68,1.79,3.24,3.24,0,0,0,2.21.62A16,16,0,0,0,243.91,170.27Z"/><path class="cls-1" d="M432.87,176.17H392.25l20.31-49.52Zm-39.13-1h37.64l-18.82-45.89Z"/><path class="cls-1" d="M432.87,73H392.25l20.31-49.53Zm-39.13-1h37.64L412.56,26.12Z"/><path class="cls-1" d="M452.39,170.07l-1.1,5.42a18,18,0,0,1-4.62.62,9.52,9.52,0,0,1-6.29-1.94,4.91,4.91,0,0,1-1.76-4,40.59,40.59,0,0,1,.95-5.89l4.72-22.59h-5.23l1.06-5.12h5.24l2-9.56,7.58-4.57-3,14.13h6.52l-1.1,5.12h-6.48l-4.5,21.49a40.11,40.11,0,0,0-.84,4.91,2.3,2.3,0,0,0,.67,1.79,3.22,3.22,0,0,0,2.22.62A15.61,15.61,0,0,0,452.39,170.07Z"/><path class="cls-1" d="M312,158.05A55.27,55.27,0,0,1,318.59,133a27.57,27.57,0,0,1,5.16-6.59,20,20,0,0,1,5.25-3.5,14.35,14.35,0,0,1,5.73-1.11A13.25,13.25,0,0,1,345,126.34q4.13,4.57,4.12,13.22a56.06,56.06,0,0,1-2.86,17.61q-3.36,10.32-9.37,15.48a15.78,15.78,0,0,1-10.5,3.92,13,13,0,0,1-10.2-4.74Q312,167.09,312,158.05Zm6.4,1.68a15.17,15.17,0,0,0,1.65,7.72,7.2,7.2,0,0,0,6.63,3.85,9.31,9.31,0,0,0,7-3.48q4.53-4.9,6.83-14.37A69,69,0,0,0,342.82,138q0-5.78-2.21-8.34a7.34,7.34,0,0,0-5.84-2.56,9.49,9.49,0,0,0-4.92,1.35,13.75,13.75,0,0,0-4.38,4.65q-3,4.65-5.16,13.91A58.06,58.06,0,0,0,318.44,159.73Z"/><path class="cls-1" d="M65.25,103.31a26.86,26.86,0,0,1-6.63,4.34A17.08,17.08,0,0,1,51.81,109a12,12,0,0,1-8.67-3.17,10.74,10.74,0,0,1-3.3-8.11A11.17,11.17,0,0,1,41.32,92a11.61,11.61,0,0,1,3.94-4,17.39,17.39,0,0,1,6-2.18,67.93,67.93,0,0,1,8.48-.69q6.24-.26,8.95-1.32a17.3,17.3,0,0,0,.77-4.5,4.34,4.34,0,0,0-1.69-3.63C66.24,74.41,64,73.8,61,73.8a11.7,11.7,0,0,0-6.83,1.85,10.38,10.38,0,0,0-3.86,5.25l-6.7-.58a17.47,17.47,0,0,1,6.5-8.86,19.26,19.26,0,0,1,11.22-3.08q7.2,0,11.42,3.44A8.12,8.12,0,0,1,76,78.49a33.67,33.67,0,0,1-.92,7.21l-2.16,9.66a36.44,36.44,0,0,0-1,7.51,25.47,25.47,0,0,0,.8,5.27H66A23.7,23.7,0,0,1,65.25,103.31ZM67.7,88.44a16.11,16.11,0,0,1-3,.85c-1.06.19-2.84.4-5.33.62a40.07,40.07,0,0,0-8.16,1.3,6.77,6.77,0,0,0-3.59,2.51,6.41,6.41,0,0,0-1.21,3.8,6,6,0,0,0,1.92,4.58,7.72,7.72,0,0,0,5.48,1.79A12.93,12.93,0,0,0,65,97.3,27.85,27.85,0,0,0,67.7,88.44Z"/><path class="cls-1" d="M174.27,90.41H138.84V84.26h35.43Zm0,16.29H138.84v-6.15h35.43Z"/><path class="cls-1" d="M559.3,90.41H523.87V84.26H559.3Zm0,16.29H523.87v-6.15H559.3Z"/><path class="cls-1" d="M208,105.13l11.2-53.66h6.63l-11.21,53.66Z"/><path class="cls-1" d="M224.91,105.13,233,66.26h6.62l-8.12,38.87ZM234.58,59l1.57-7.5h6.59L241.16,59Z"/><path class="cls-1" d="M241.79,105.13l8.12-38.87h6.63l-1.35,6.4a26.59,26.59,0,0,1,6.6-5.71,13.07,13.07,0,0,1,6.32-1.57,9.51,9.51,0,0,1,6.06,1.92,9.1,9.1,0,0,1,3.2,5.36,21.84,21.84,0,0,1,6.24-5.47,14.06,14.06,0,0,1,6.9-1.81c3.25,0,5.68.77,7.31,2.31a8.47,8.47,0,0,1,2.43,6.47,34.09,34.09,0,0,1-.84,5.93l-5.24,25h-6.62l5.34-25.69a23.65,23.65,0,0,0,.7-4.51,3.86,3.86,0,0,0-1.21-3,4.91,4.91,0,0,0-3.41-1.1,11.93,11.93,0,0,0-6,1.8,12.89,12.89,0,0,0-4.77,4.7,31.45,31.45,0,0,0-3,9l-3.95,18.85h-6.63l5.49-26.24a19.87,19.87,0,0,0,.59-3.81A4.16,4.16,0,0,0,269.48,72a4.21,4.21,0,0,0-3.09-1.17,11.77,11.77,0,0,0-5.91,1.8,14.09,14.09,0,0,0-5,5,30,30,0,0,0-3.18,9.14l-3.85,18.37Z"/><path class="cls-1" d="M76.1,149.61,93,129.87l-9.7-19.14h7.32l3.3,6.92q1.83,3.87,3.29,7.43l11.21-14.35h8.09l-16.33,19.66L110,149.61h-7.32L98.8,141.7q-1.24-2.52-2.82-6.26L84.41,149.61Z"/><path class="cls-1" d="M446.71,72.51l-6.37-38.88h6.44l3.34,21.42q.54,3.51,1.35,11.46,1.9-4.14,4.87-9.49l13-23.39h7L454.07,72.51Z"/><path class="cls-1" d="M458.58,100.34,475.49,80.6l-9.7-19.14h7.33l3.29,6.92q1.83,3.87,3.29,7.43l11.21-14.35H499L482.67,81.12l9.81,19.22h-7.32l-3.88-7.91c-.83-1.69-1.77-3.77-2.82-6.26l-11.57,14.17Z"/><path class="cls-1" d="M607.94,56.56q-5.67,6.52-11.86,6.52A11.91,11.91,0,0,1,586.87,59c-2.45-2.73-3.67-6.67-3.67-11.85a28.79,28.79,0,0,1,2.91-13,22,22,0,0,1,7.28-8.81,15.69,15.69,0,0,1,8.77-2.93q7.25,0,10.94,7l4.4-20.91h6.59L612.88,62.2h-6.11ZM589.79,45.91a20.25,20.25,0,0,0,.8,6.4,8.32,8.32,0,0,0,2.75,3.9A7.18,7.18,0,0,0,598,57.77q4.5,0,8.16-4.69,4.9-6.21,4.9-15.37a10.17,10.17,0,0,0-2.41-7.21,7.93,7.93,0,0,0-6.08-2.6A8.94,8.94,0,0,0,598.22,29a12.79,12.79,0,0,0-3.88,3.6A22.79,22.79,0,0,0,591.1,39,22,22,0,0,0,589.79,45.91Z"/><path class="cls-1" d="M633.24,62.2l-6.37-38.88h6.44l3.33,21.42q.55,3.51,1.36,11.45,1.9-4.12,4.87-9.48l13-23.39h7L640.6,62.2Z"/><path class="cls-1" d="M646.47,90l16.91-19.73-9.7-19.14H661l3.29,6.92q1.83,3.87,3.29,7.43L678.8,51.15h8.09L670.56,70.81,680.37,90h-7.32l-3.88-7.9c-.83-1.69-1.77-3.77-2.82-6.26L654.78,90Z"/><path class="cls-1" d="M621.59,165.55q-5.67,6.52-11.86,6.52a11.87,11.87,0,0,1-9.2-4.08q-3.69-4.08-3.68-11.84a28.84,28.84,0,0,1,2.91-13,22.11,22.11,0,0,1,7.28-8.81,15.68,15.68,0,0,1,8.77-2.92q7.25,0,11,7l4.39-20.91h6.59l-11.2,53.67h-6.12ZM603.44,154.9a20.62,20.62,0,0,0,.8,6.41,8.42,8.42,0,0,0,2.75,3.9,7.22,7.22,0,0,0,4.65,1.55q4.5,0,8.16-4.68,4.91-6.22,4.91-15.38a10.19,10.19,0,0,0-2.42-7.21,8,8,0,0,0-6.08-2.6,8.9,8.9,0,0,0-4.33,1.06,12.6,12.6,0,0,0-3.88,3.61,22.15,22.15,0,0,0-3.24,6.46A21.93,21.93,0,0,0,603.44,154.9Z"/><path class="cls-1" d="M652.57,165.81l-1.1,5.42a18.49,18.49,0,0,1-4.62.62,9.57,9.57,0,0,1-6.29-1.94,4.92,4.92,0,0,1-1.76-4,40.59,40.59,0,0,1,1-5.89l4.72-22.59h-5.23l1.06-5.13h5.24l2-9.55,7.58-4.58-3,14.13h6.52l-1.1,5.13H651.1l-4.5,21.49a40.43,40.43,0,0,0-.84,4.9,2.34,2.34,0,0,0,.67,1.8,3.25,3.25,0,0,0,2.22.62A16.09,16.09,0,0,0,652.57,165.81Z"/><rect class="cls-1" x="258.08" y="151.02" width="40.26" height="2"/><path class="cls-1" d="M284.67,161.62a1,1,0,0,1,.31-1.38l12.9-8.22L285,143.8a1,1,0,0,1,1.07-1.69l14.23,9.06a1,1,0,0,1,.47.85,1,1,0,0,1-.47.84l-14.23,9.06a.94.94,0,0,1-.53.16A1,1,0,0,1,284.67,161.62Z"/><rect class="cls-1" x="379.59" y="110.16" width="119.88" height="4"/><rect class="cls-1" x="583.28" y="98.49" width="106.02" height="4"/><path class="cls-1" d="M726.1,101.54a36,36,0,0,1-3.36-15.1,32.72,32.72,0,0,1,1.36-9.63A35.83,35.83,0,0,1,728.23,68a67.46,67.46,0,0,1,5.88-7.52h3A41.67,41.67,0,0,0,731.83,68a40.56,40.56,0,0,0-4,9.53,35.67,35.67,0,0,0-1.27,9.41A47.13,47.13,0,0,0,729,101.54Z"/><path class="cls-1" d="M740.8,92.33l-3.72-22.69h3.76l1.95,12.5q.32,2.06.79,6.69c.74-1.61,1.68-3.46,2.84-5.54L754,69.64h4.08l-13,22.69Z"/><path class="cls-1" d="M773.62,84.62l3.76.38a11.31,11.31,0,0,1-3.73,5.32,10.23,10.23,0,0,1-6.95,2.53,9.34,9.34,0,0,1-4.63-1.17,7.69,7.69,0,0,1-3.21-3.39,11.3,11.3,0,0,1-1.1-5.06A16.23,16.23,0,0,1,759.48,76a12.31,12.31,0,0,1,4.46-5.19,11,11,0,0,1,5.92-1.7,8.57,8.57,0,0,1,6.48,2.52,9.49,9.49,0,0,1,2.43,6.88,20.28,20.28,0,0,1-.3,3.42H761.76a8.93,8.93,0,0,0-.09,1.19A7.18,7.18,0,0,0,763.14,88a4.59,4.59,0,0,0,3.58,1.67,6.9,6.9,0,0,0,3.91-1.3A8.47,8.47,0,0,0,773.62,84.62ZM762.38,79h12.73c0-.4,0-.69,0-.86a6.26,6.26,0,0,0-1.46-4.45,4.9,4.9,0,0,0-3.74-1.55,6.88,6.88,0,0,0-4.52,1.71A10.27,10.27,0,0,0,762.38,79Z"/><path class="cls-1" d="M781,92.33,787.53,61h3.87l-6.54,31.32Z"/><path class="cls-1" d="M791.7,83.72a15.83,15.83,0,0,1,3.91-11,10.81,10.81,0,0,1,8.46-3.59,8.83,8.83,0,0,1,6.61,2.56,9.49,9.49,0,0,1,2.51,6.92,17,17,0,0,1-1.58,7.28,11.72,11.72,0,0,1-4.5,5.16,11.5,11.5,0,0,1-6.14,1.8,10.2,10.2,0,0,1-4.82-1.14,7.75,7.75,0,0,1-3.31-3.2A9.78,9.78,0,0,1,791.7,83.72Zm3.86-.38a7,7,0,0,0,1.54,4.86A5.12,5.12,0,0,0,801,89.85a6.29,6.29,0,0,0,2.46-.5,6.86,6.86,0,0,0,2.26-1.53,10.09,10.09,0,0,0,1.79-2.34,15.55,15.55,0,0,0,1.85-6.89,6.83,6.83,0,0,0-1.55-4.77,5.08,5.08,0,0,0-3.9-1.7,6.53,6.53,0,0,0-3.31.86,8.86,8.86,0,0,0-2.71,2.54,11.45,11.45,0,0,0-1.77,3.87A16.05,16.05,0,0,0,795.56,83.34Z"/><path class="cls-1" d="M831,84.06l3.87.41a13,13,0,0,1-4.13,6.31,9.75,9.75,0,0,1-6.11,2.07,7.92,7.92,0,0,1-6-2.4,9.26,9.26,0,0,1-2.3-6.69,19.12,19.12,0,0,1,1.48-7.3A11.73,11.73,0,0,1,822.05,71a10.85,10.85,0,0,1,6.27-1.87,8,8,0,0,1,5.79,2.06,7.24,7.24,0,0,1,2.14,5.46l-3.81.25a4.58,4.58,0,0,0-1.25-3.37A4.41,4.41,0,0,0,828,72.31a6,6,0,0,0-4,1.48,9.6,9.6,0,0,0-2.68,4.47,18.7,18.7,0,0,0-1,5.78,6.4,6.4,0,0,0,1.29,4.36,4,4,0,0,0,3.16,1.45,5.54,5.54,0,0,0,3.6-1.43A9.27,9.27,0,0,0,831,84.06Z"/><path class="cls-1" d="M837.08,92.33l4.74-22.69h3.87L841,92.33Zm5.64-26.94.92-4.38h3.85l-.92,4.38Z"/><path class="cls-1" d="M862.25,89c-2.21,2.54-4.51,3.81-6.92,3.81A7,7,0,0,1,850,90.46q-2.15-2.38-2.14-6.91a16.7,16.7,0,0,1,1.7-7.57,12.83,12.83,0,0,1,4.25-5.14,9.13,9.13,0,0,1,5.11-1.71,6.86,6.86,0,0,1,6.39,4.08L867.83,61h3.84l-6.53,31.32h-3.57Zm-10.6-6.22a12,12,0,0,0,.47,3.74,4.93,4.93,0,0,0,1.61,2.28,4.2,4.2,0,0,0,2.71.91A6,6,0,0,0,861.2,87a14,14,0,0,0,2.87-9,5.94,5.94,0,0,0-1.41-4.21,4.66,4.66,0,0,0-3.55-1.52,5.24,5.24,0,0,0-2.53.62A7.43,7.43,0,0,0,854.31,75a13.27,13.27,0,0,0-1.89,3.77A12.88,12.88,0,0,0,851.65,82.82Z"/><path class="cls-1" d="M886.59,89.51A15.09,15.09,0,0,1,882.72,92a9.82,9.82,0,0,1-4,.81A7,7,0,0,1,873.68,91a6.28,6.28,0,0,1-1.92-4.74,6.54,6.54,0,0,1,.86-3.36,6.81,6.81,0,0,1,2.3-2.35,10,10,0,0,1,3.51-1.27,39,39,0,0,1,4.94-.41,17.53,17.53,0,0,0,5.23-.77,10,10,0,0,0,.45-2.63,2.53,2.53,0,0,0-1-2.11,6.2,6.2,0,0,0-3.93-1.07,6.8,6.8,0,0,0-4,1.08,6.05,6.05,0,0,0-2.26,3.07L874,76.09a10.2,10.2,0,0,1,3.8-5.17,11.28,11.28,0,0,1,6.54-1.79,10.23,10.23,0,0,1,6.67,2A4.73,4.73,0,0,1,892.87,75a19.89,19.89,0,0,1-.53,4.21l-1.26,5.65a21,21,0,0,0-.6,4.38,14.21,14.21,0,0,0,.47,3.07H887A13.41,13.41,0,0,1,886.59,89.51ZM888,80.84a10.07,10.07,0,0,1-1.74.49c-.62.11-1.66.23-3.11.36a23.41,23.41,0,0,0-4.76.76,4,4,0,0,0-2.1,1.46,3.78,3.78,0,0,0-.7,2.23,3.49,3.49,0,0,0,1.12,2.67,4.49,4.49,0,0,0,3.19,1,7.31,7.31,0,0,0,3.7-1,7.46,7.46,0,0,0,2.8-2.83A16.46,16.46,0,0,0,888,80.84Z"/><path class="cls-1" d="M910.93,89q-3.31,3.81-6.93,3.81a6.93,6.93,0,0,1-5.37-2.39q-2.14-2.38-2.15-6.91a16.83,16.83,0,0,1,1.7-7.57,12.83,12.83,0,0,1,4.25-5.14,9.16,9.16,0,0,1,5.12-1.71,6.88,6.88,0,0,1,6.39,4.08L916.5,61h3.85l-6.54,31.32h-3.57Zm-10.6-6.22a12,12,0,0,0,.47,3.74,4.91,4.91,0,0,0,1.6,2.28,4.25,4.25,0,0,0,2.72.91A6,6,0,0,0,909.88,87a14,14,0,0,0,2.86-9,5.94,5.94,0,0,0-1.41-4.21,4.64,4.64,0,0,0-3.54-1.52,5.3,5.3,0,0,0-2.54.62A7.41,7.41,0,0,0,903,75a13,13,0,0,0-1.89,3.77A12.6,12.6,0,0,0,900.33,82.82Z"/><path class="cls-1" d="M720.35,144.85l4.74-22.7H729l-4.74,22.7ZM726,117.9l.92-4.38h3.84l-.91,4.38Z"/><path class="cls-1" d="M730.22,144.85l4.74-22.7h3.51l-.83,4a18.12,18.12,0,0,1,4.27-3.4,8.5,8.5,0,0,1,4.06-1.07,6,6,0,0,1,4.33,1.5,5.26,5.26,0,0,1,1.57,4,22.5,22.5,0,0,1-.56,4l-2.88,13.74h-3.87l3-14.39a16.32,16.32,0,0,0,.45-3.09,2.36,2.36,0,0,0-.78-1.84,3.25,3.25,0,0,0-2.25-.71A7.6,7.6,0,0,0,739.7,127c-1.55,1.43-2.68,3.87-3.41,7.33l-2.2,10.56Z"/><path class="cls-1" d="M754.92,137.09l3.87-.24a7.19,7.19,0,0,0,.51,2.85,4.07,4.07,0,0,0,1.89,1.92,6.63,6.63,0,0,0,3.22.75,6.07,6.07,0,0,0,3.84-1,3,3,0,0,0,1.29-2.41,2.92,2.92,0,0,0-.77-1.91,12.41,12.41,0,0,0-3.86-2.21A35,35,0,0,1,761,133a6.4,6.4,0,0,1-2.16-2.06,5.14,5.14,0,0,1-.72-2.72,6,6,0,0,1,2.13-4.62,8.66,8.66,0,0,1,6-1.92q4.26,0,6.5,2a6.86,6.86,0,0,1,2.32,5.2l-3.78.26a4.37,4.37,0,0,0-1.45-3.25,5.71,5.71,0,0,0-3.87-1.2,4.78,4.78,0,0,0-3.12.92,2.6,2.6,0,0,0-1.11,2,2.41,2.41,0,0,0,1,1.88,16.21,16.21,0,0,0,3.31,1.71,22.37,22.37,0,0,1,5.6,3,5.79,5.79,0,0,1,1.84,4.32,6.1,6.1,0,0,1-1,3.31,7.2,7.2,0,0,1-3.16,2.6,12.1,12.1,0,0,1-5,1,11.3,11.3,0,0,1-6.69-2Q754.77,141.48,754.92,137.09Z"/><path class="cls-1" d="M785.48,141.7l-.64,3.17a10.79,10.79,0,0,1-2.7.36,5.61,5.61,0,0,1-3.67-1.13,2.89,2.89,0,0,1-1-2.33,23.57,23.57,0,0,1,.56-3.44l2.76-13.19H777.7l.62-3h3l1.18-5.57L787,113.9l-1.73,8.25h3.81l-.64,3h-3.79L782,137.69a23.77,23.77,0,0,0-.5,2.86,1.33,1.33,0,0,0,.4,1,1.88,1.88,0,0,0,1.29.36A8.85,8.85,0,0,0,785.48,141.7Z"/><path class="cls-1" d="M803.9,142a15.43,15.43,0,0,1-3.87,2.54,10,10,0,0,1-4,.8,7,7,0,0,1-5.06-1.85,6.28,6.28,0,0,1-1.92-4.73,6.57,6.57,0,0,1,.86-3.37,6.9,6.9,0,0,1,2.3-2.35,10.17,10.17,0,0,1,3.5-1.27,39.2,39.2,0,0,1,4.95-.41,17.53,17.53,0,0,0,5.23-.77,10.3,10.3,0,0,0,.44-2.62,2.53,2.53,0,0,0-1-2.12,6.24,6.24,0,0,0-3.93-1.07,6.86,6.86,0,0,0-4,1.08A6.09,6.09,0,0,0,795.2,129l-3.91-.34a10.2,10.2,0,0,1,3.79-5.17,11.24,11.24,0,0,1,6.55-1.8,10.23,10.23,0,0,1,6.67,2,4.75,4.75,0,0,1,1.88,3.89,19.48,19.48,0,0,1-.54,4.21l-1.26,5.64a21.56,21.56,0,0,0-.59,4.38,14.28,14.28,0,0,0,.47,3.08h-3.91A13.52,13.52,0,0,1,803.9,142Zm1.43-8.67a9.25,9.25,0,0,1-1.74.49c-.62.11-1.66.24-3.11.36a24.42,24.42,0,0,0-4.77.76,4,4,0,0,0-2.09,1.47,3.79,3.79,0,0,0-.71,2.22,3.5,3.5,0,0,0,1.13,2.67,4.48,4.48,0,0,0,3.19,1.05,7.58,7.58,0,0,0,6.5-3.85A16.64,16.64,0,0,0,805.33,133.35Z"/><path class="cls-1" d="M812.94,144.85l4.74-22.7h3.5l-.83,4a18.32,18.32,0,0,1,4.27-3.4,8.53,8.53,0,0,1,4.06-1.07,6,6,0,0,1,4.33,1.5,5.22,5.22,0,0,1,1.57,4,22.25,22.25,0,0,1-.55,4l-2.89,13.74h-3.87l3-14.39a17,17,0,0,0,.44-3.09,2.38,2.38,0,0,0-.77-1.84,3.29,3.29,0,0,0-2.26-.71,7.62,7.62,0,0,0-5.29,2.14q-2.31,2.14-3.41,7.33l-2.2,10.56Z"/><path class="cls-1" d="M846.31,141.7l-.64,3.17a10.66,10.66,0,0,1-2.69.36,5.62,5.62,0,0,1-3.68-1.13,2.88,2.88,0,0,1-1-2.33,23,23,0,0,1,.55-3.44l2.76-13.19h-3.06l.62-3h3.06l1.17-5.57,4.43-2.68-1.73,8.25h3.8l-.64,3h-3.78l-2.63,12.55a22.77,22.77,0,0,0-.49,2.86,1.36,1.36,0,0,0,.39,1,1.92,1.92,0,0,0,1.3.36A8.82,8.82,0,0,0,846.31,141.7Z"/><path class="cls-1" d="M864.73,142a15.43,15.43,0,0,1-3.87,2.54,10,10,0,0,1-4,.8,7,7,0,0,1-5.07-1.85,6.28,6.28,0,0,1-1.92-4.73,6.48,6.48,0,0,1,.87-3.37,6.78,6.78,0,0,1,2.29-2.35,10.3,10.3,0,0,1,3.51-1.27,39.17,39.17,0,0,1,4.94-.41,17.53,17.53,0,0,0,5.23-.77,10,10,0,0,0,.45-2.62,2.55,2.55,0,0,0-1-2.12,6.25,6.25,0,0,0-3.94-1.07,6.8,6.8,0,0,0-4,1.08A6.11,6.11,0,0,0,856,129l-3.91-.34a10.21,10.21,0,0,1,3.8-5.17,11.22,11.22,0,0,1,6.55-1.8,10.22,10.22,0,0,1,6.66,2,4.72,4.72,0,0,1,1.88,3.89,20,20,0,0,1-.53,4.21l-1.26,5.64a21,21,0,0,0-.6,4.38,15,15,0,0,0,.47,3.08h-3.91A15,15,0,0,1,864.73,142Zm1.43-8.67a9.25,9.25,0,0,1-1.74.49c-.62.11-1.66.24-3.11.36a24.15,24.15,0,0,0-4.76.76,4,4,0,0,0-2.1,1.47,3.78,3.78,0,0,0-.7,2.22,3.49,3.49,0,0,0,1.12,2.67,4.49,4.49,0,0,0,3.19,1.05,7.58,7.58,0,0,0,6.5-3.85A16.38,16.38,0,0,0,866.16,133.35Zm-6.32-13.95,4-5.88h4.88L863,119.4Z"/><path class="cls-1" d="M873.77,144.85l4.74-22.7H882l-.84,4a18.34,18.34,0,0,1,4.28-3.4,8.47,8.47,0,0,1,4.06-1.07,6,6,0,0,1,4.32,1.5,5.22,5.22,0,0,1,1.57,4,22.25,22.25,0,0,1-.55,4L892,144.85h-3.86l3-14.39a16.32,16.32,0,0,0,.45-3.09,2.36,2.36,0,0,0-.78-1.84,3.26,3.26,0,0,0-2.26-.71,7.58,7.58,0,0,0-5.28,2.14q-2.32,2.14-3.41,7.33l-2.2,10.56Z"/><path class="cls-1" d="M914.77,137.13l3.76.39a11.36,11.36,0,0,1-3.73,5.32,10.27,10.27,0,0,1-6.95,2.52,9.4,9.4,0,0,1-4.63-1.17,7.59,7.59,0,0,1-3.2-3.38,11.32,11.32,0,0,1-1.1-5.07,16.09,16.09,0,0,1,1.72-7.21,12.29,12.29,0,0,1,4.45-5.19,11.06,11.06,0,0,1,5.92-1.7,8.59,8.59,0,0,1,6.49,2.52,9.54,9.54,0,0,1,2.42,6.88,20.28,20.28,0,0,1-.3,3.42H902.91a10.8,10.8,0,0,0-.08,1.2,7.22,7.22,0,0,0,1.46,4.86,4.58,4.58,0,0,0,3.58,1.68,6.89,6.89,0,0,0,3.91-1.31A8.47,8.47,0,0,0,914.77,137.13Zm-11.24-5.62h12.74c0-.4,0-.68,0-.85a6.27,6.27,0,0,0-1.45-4.46,4.92,4.92,0,0,0-3.74-1.55,6.88,6.88,0,0,0-4.52,1.71A10.28,10.28,0,0,0,903.53,131.51Z"/><path class="cls-1" d="M937.74,142a15.39,15.39,0,0,1-3.86,2.54,10,10,0,0,1-4,.8,7,7,0,0,1-5.06-1.85,6.29,6.29,0,0,1-1.93-4.73,6.48,6.48,0,0,1,.87-3.37,6.81,6.81,0,0,1,2.3-2.35,10.17,10.17,0,0,1,3.5-1.27,39.2,39.2,0,0,1,4.95-.41,17.39,17.39,0,0,0,5.22-.77,10,10,0,0,0,.45-2.62,2.55,2.55,0,0,0-1-2.12,6.24,6.24,0,0,0-3.93-1.07,6.81,6.81,0,0,0-4,1.08,6.09,6.09,0,0,0-2.25,3.07l-3.91-.34a10.14,10.14,0,0,1,3.79-5.17,11.22,11.22,0,0,1,6.55-1.8,10.25,10.25,0,0,1,6.67,2,4.75,4.75,0,0,1,1.88,3.89,19.48,19.48,0,0,1-.54,4.21l-1.26,5.64a21,21,0,0,0-.6,4.38,15,15,0,0,0,.47,3.08h-3.91A15,15,0,0,1,937.74,142Zm1.43-8.67a9.25,9.25,0,0,1-1.74.49c-.62.11-1.65.24-3.11.36a24.29,24.29,0,0,0-4.76.76,4,4,0,0,0-2.09,1.47,3.79,3.79,0,0,0-.71,2.22,3.49,3.49,0,0,0,1.12,2.67,4.52,4.52,0,0,0,3.2,1.05,7.58,7.58,0,0,0,6.49-3.85A16.12,16.12,0,0,0,939.17,133.35Z"/><path class="cls-1" d="M975.61,137.13l3.76.39a11.43,11.43,0,0,1-3.73,5.32,10.3,10.3,0,0,1-7,2.52,9.33,9.33,0,0,1-4.62-1.17,7.61,7.61,0,0,1-3.21-3.38,11.32,11.32,0,0,1-1.1-5.07,16.23,16.23,0,0,1,1.72-7.21,12.24,12.24,0,0,1,4.46-5.19,11,11,0,0,1,5.92-1.7,8.59,8.59,0,0,1,6.48,2.52,9.51,9.51,0,0,1,2.43,6.88,20.28,20.28,0,0,1-.3,3.42H963.75a9,9,0,0,0-.09,1.2,7.17,7.17,0,0,0,1.47,4.86,4.55,4.55,0,0,0,3.58,1.68,6.94,6.94,0,0,0,3.91-1.31A8.54,8.54,0,0,0,975.61,137.13Zm-11.24-5.62H977.1c0-.4,0-.68,0-.85a6.27,6.27,0,0,0-1.45-4.46,4.9,4.9,0,0,0-3.74-1.55,6.88,6.88,0,0,0-4.52,1.71A10.27,10.27,0,0,0,964.37,131.51Z"/><path class="cls-1" d="M983.28,144.85l4.74-22.7h3.51l-.84,4a18.34,18.34,0,0,1,4.28-3.4,8.47,8.47,0,0,1,4.06-1.07,6,6,0,0,1,4.32,1.5,5.22,5.22,0,0,1,1.57,4,22.25,22.25,0,0,1-.55,4l-2.89,13.74h-3.86l3-14.39a16.32,16.32,0,0,0,.45-3.09,2.36,2.36,0,0,0-.78-1.84,3.26,3.26,0,0,0-2.26-.71,7.62,7.62,0,0,0-5.29,2.14c-1.54,1.43-2.68,3.87-3.4,7.33l-2.2,10.56Z"/><path class="cls-1" d="M1018.26,144.85l9.87-11.52-5.66-11.18h4.27l1.92,4c.71,1.51,1.36,3,1.92,4.34l6.54-8.38h4.73l-9.53,11.48,5.72,11.22h-4.27l-2.27-4.62c-.48-1-1-2.2-1.64-3.65l-6.75,8.27Z"/><path class="cls-1" d="M1048.88,113a35.75,35.75,0,0,1,3.37,15.08,33,33,0,0,1-1.35,9.64,36.59,36.59,0,0,1-4.14,8.82,68,68,0,0,1-5.88,7.52h-3a43,43,0,0,0,5.28-7.54,39.16,39.16,0,0,0,4-9.52,36.37,36.37,0,0,0,1.25-9.41A47,47,0,0,0,1046,113Z"/></svg>