<svg id="Capa_1" data-name="Capa 1" xmlns="http://www.w3.org/2000/svg" viewBox="0 0 206.68 62.36"><defs><style>.cls-1,.cls-2,.cls-3,.cls-4{fill:#fff;}.cls-2,.cls-4{font-size:18px;}.cls-2,.cls-3{font-family:CambriaMath, Cambria Math;}.cls-3{font-size:13.02px;}.cls-4{font-family:ArialMT, Arial;}</style></defs><title>formula-39-1</title><path class="cls-1" d="M20.65,25.27l.81-.58.56.14L20.73,30.4a6.1,6.1,0,0,0-.19,1.3.84.84,0,0,0,.11.51.41.41,0,0,0,.36.16.93.93,0,0,0,.56-.22,5.87,5.87,0,0,0,.85-.82l.5.49A7.23,7.23,0,0,1,21.57,33a2.2,2.2,0,0,1-1.21.36,1.12,1.12,0,0,1-.87-.36,1.37,1.37,0,0,1-.33-1,2.91,2.91,0,0,1,.21-1l-.12,0a7.54,7.54,0,0,1-1.6,1.8,2.59,2.59,0,0,1-1.6.57,1.75,1.75,0,0,1-1.5-.73A3.45,3.45,0,0,1,14,30.59a7.28,7.28,0,0,1,.6-2.9,5.28,5.28,0,0,1,1.63-2.2,3.7,3.7,0,0,1,2.31-.8,4.13,4.13,0,0,1,1.07.13A3.47,3.47,0,0,1,20.65,25.27Zm-.77,2.62c.05-.24.08-.45.1-.63a4.91,4.91,0,0,0,0-.57,1.44,1.44,0,0,0-.29-1,1.31,1.31,0,0,0-1-.32,2.25,2.25,0,0,0-1.62.73,5,5,0,0,0-1.13,2,7.76,7.76,0,0,0-.4,2.45,2.86,2.86,0,0,0,.25,1.36.89.89,0,0,0,.84.45,1.71,1.71,0,0,0,1.14-.5A7.24,7.24,0,0,0,19,30.41a6.56,6.56,0,0,0,.84-2.14Z"/><path class="cls-1" d="M25.14,32.75c.06-.24.1-.44.13-.61a3.28,3.28,0,0,0,0-.4c0-.31-.12-.47-.37-.47a.64.64,0,0,0-.24.05,1.28,1.28,0,0,0-.25.14c-.08.07-.18.15-.28.25s-.21.21-.34.34l-.44-.41c.21-.22.41-.41.58-.56a4.78,4.78,0,0,1,.51-.38,2.19,2.19,0,0,1,.47-.22,1.61,1.61,0,0,1,.49-.07.88.88,0,0,1,.73.31,1.21,1.21,0,0,1,.26.81,1.36,1.36,0,0,1-.09.51l.09,0a5.32,5.32,0,0,1,1.25-1.26,2.2,2.2,0,0,1,1.25-.4l.45,0,.41.07L29.46,32h-.74a1,1,0,0,0-.16-.55.46.46,0,0,0-.38-.17.82.82,0,0,0-.34.09,2.69,2.69,0,0,0-.4.28,4.16,4.16,0,0,0-.42.42,4.21,4.21,0,0,0-.4.52,4.47,4.47,0,0,0-.33.61,4.09,4.09,0,0,0-.21.65l-.65,3H24.19Z"/><text class="cls-2" transform="translate(36.14 33.24)">=</text><text class="cls-2" transform="translate(54.63 33.24)"> </text><path class="cls-1" d="M70,23.15c.07-.31.12-.56.15-.74a3.37,3.37,0,0,0,.05-.52.74.74,0,0,0-.1-.4.56.56,0,0,0-.28-.19,2.38,2.38,0,0,0-.64-.09l.1-.46,2.22-.08H72L69.8,30.4a6.45,6.45,0,0,0-.19,1.3.92.92,0,0,0,.11.51.41.41,0,0,0,.36.16,1,1,0,0,0,.57-.22,5.45,5.45,0,0,0,.84-.82l.5.49a7.71,7.71,0,0,1-1.39,1.23,2.29,2.29,0,0,1-1.21.33,1.1,1.1,0,0,1-.91-.42,1.61,1.61,0,0,1-.35-1.06,8.18,8.18,0,0,1,.25-1.71Zm4.81,4.17A6.9,6.9,0,0,0,75,26a.63.63,0,0,0-.19-.54A1.55,1.55,0,0,0,74,25.3l.09-.46,2.15-.08h.52L75.52,30.4a6.45,6.45,0,0,0-.19,1.3.92.92,0,0,0,.11.51.41.41,0,0,0,.36.16.91.91,0,0,0,.56-.22,5.87,5.87,0,0,0,.85-.82l.5.49a7.78,7.78,0,0,1-1.4,1.24,2.34,2.34,0,0,1-1.2.32,1.13,1.13,0,0,1-.92-.42,1.61,1.61,0,0,1-.34-1.06,7.39,7.39,0,0,1,.25-1.71Zm2.83-5.93-.41,1.71H75.63l.4-1.71Z"/><path class="cls-1" d="M82.19,27.07a7.23,7.23,0,0,1,1.61-1.79,2.7,2.7,0,0,1,1.62-.58,1.64,1.64,0,0,1,1.28.48,1.94,1.94,0,0,1,.44,1.38v.12a.71.71,0,0,1,0,.14,6.53,6.53,0,0,1,1.51-1.6,2.68,2.68,0,0,1,1.56-.52,1.63,1.63,0,0,1,1.25.46,1.85,1.85,0,0,1,.44,1.31,7.12,7.12,0,0,1-.26,1.58l-.57,2.3a6.57,6.57,0,0,0-.24,1.35.83.83,0,0,0,.12.51.39.39,0,0,0,.36.16,1,1,0,0,0,.56-.22,5.87,5.87,0,0,0,.85-.82l.5.49A8.39,8.39,0,0,1,91.89,33a2.3,2.3,0,0,1-1.29.38,1.14,1.14,0,0,1-.91-.41,1.55,1.55,0,0,1-.34-1,7,7,0,0,1,.29-1.68L90,28.73a11.92,11.92,0,0,0,.28-1.22,3.51,3.51,0,0,0,.07-.64,1.52,1.52,0,0,0-.2-.88.78.78,0,0,0-.66-.26,1.53,1.53,0,0,0-.8.27,4.12,4.12,0,0,0-.88.86A7.11,7.11,0,0,0,87.07,28a5.14,5.14,0,0,0-.47,1.39l-.8,3.84H84.28l1-4.46c.12-.55.2-1,.25-1.21a4.59,4.59,0,0,0,.06-.68,1.42,1.42,0,0,0-.22-.9.85.85,0,0,0-.7-.26,1.46,1.46,0,0,0-.76.27,4.15,4.15,0,0,0-.91.89,7.43,7.43,0,0,0-.76,1.17,6.67,6.67,0,0,0-.45,1.37L81,33.24H79.44l1.29-5.57a6.93,6.93,0,0,0,.19-1.3.83.83,0,0,0-.12-.51.39.39,0,0,0-.36-.16,1,1,0,0,0-.57.22,6.07,6.07,0,0,0-.83.82l-.5-.5a8.39,8.39,0,0,1,1.33-1.18,2.14,2.14,0,0,1,1.22-.37,1.12,1.12,0,0,1,.88.36,1.43,1.43,0,0,1,.32,1,3,3,0,0,1-.2,1Z"/><path class="cls-1" d="M61.7,44.28l.09-.43,5.06-7.94h1l.9,7.94-.09.43Zm1.51-1h4.26l-.32-3.35c-.05-.52-.08-1-.11-1.43S67,37.67,67,37.34h-.09Z"/><path class="cls-1" d="M74.7,43.05a7.22,7.22,0,0,1-.61.62,4,4,0,0,1-.58.42,2.58,2.58,0,0,1-.55.23,2.1,2.1,0,0,1-.56.07A1.58,1.58,0,0,1,71.27,44a1.43,1.43,0,0,1-.37-1,3.28,3.28,0,0,1,0-.52,4.85,4.85,0,0,1,.09-.55l.76-3.29H70.7l.13-.49a2.2,2.2,0,0,0,.59-.07,1.25,1.25,0,0,0,.36-.2,2.13,2.13,0,0,0,.18-.22,3,3,0,0,0,.18-.32c.06-.12.12-.27.18-.43l.21-.59h1l-.36,1.61h2.16l-.15.71H73l-.65,2.66c0,.18-.08.34-.1.48s0,.27-.07.39,0,.21,0,.31,0,.18,0,.26a1.07,1.07,0,0,0,.16.6.62.62,0,0,0,.52.21,1.18,1.18,0,0,0,.65-.22,4.31,4.31,0,0,0,.78-.71Z"/><text class="cls-3" transform="translate(75.86 44.28)">⟶</text><text class="cls-3" transform="translate(91.23 44.28)">0</text><path class="cls-1" d="M105.69,19.77a.69.69,0,0,1-.43-.13.86.86,0,0,1-.27-.36,2,2,0,0,1-.15-.55,4.86,4.86,0,0,1,0-.69,10.15,10.15,0,0,1,.06-1.07c0-.39.1-.77.16-1.16l.37-2.43.06-.4c0-.13,0-.22,0-.28a1,1,0,0,0-.09-.45.32.32,0,0,0-.3-.17.76.76,0,0,0-.36.1,2.2,2.2,0,0,0-.39.26,4,4,0,0,0-.38.34l-.34.34-.43-.5.58-.55a5.29,5.29,0,0,1,.66-.51,4,4,0,0,1,.72-.36,2.27,2.27,0,0,1,.77-.13,1.08,1.08,0,0,1,.54.11.78.78,0,0,1,.33.29,1.13,1.13,0,0,1,.17.39,2.15,2.15,0,0,1,0,.43,1.93,1.93,0,0,1,0,.24,1.49,1.49,0,0,1,0,.21l-.5,3.18c0,.33-.09.66-.13,1s0,.6,0,.85a3.39,3.39,0,0,0,0,.6c0,.15.09.22.17.22a1.59,1.59,0,0,0,.73-.23,5.14,5.14,0,0,0,.92-.64,8.87,8.87,0,0,0,1-1,8.28,8.28,0,0,0,.87-1.21,6.8,6.8,0,0,0,.63-1.37,4.54,4.54,0,0,0,.24-1.45.74.74,0,0,0-.14-.48.49.49,0,0,0-.42-.18,1,1,0,0,0-.68.29,4.61,4.61,0,0,0-.65.75l-.5-.45a3.9,3.9,0,0,1,.49-.6,4,4,0,0,1,.61-.51,3.58,3.58,0,0,1,.66-.36,2.09,2.09,0,0,1,.67-.13,1.16,1.16,0,0,1,.92.33,1.37,1.37,0,0,1,.28.89,3.64,3.64,0,0,1-.15,1,7.71,7.71,0,0,1-.42,1.15,12.51,12.51,0,0,1-.65,1.25,14.22,14.22,0,0,1-.84,1.24,11.76,11.76,0,0,1-1,1.13,8.34,8.34,0,0,1-1.08.93,6.06,6.06,0,0,1-1.13.63A3.18,3.18,0,0,1,105.69,19.77Z"/><path class="cls-1" d="M109,39.87a2.7,2.7,0,0,1,.68.75,3.93,3.93,0,0,1,.41,1.22l.21,1a5.8,5.8,0,0,0,.22.87,2.11,2.11,0,0,0,.29.62,1.24,1.24,0,0,0,.39.34,2.06,2.06,0,0,0,.63.19l-.09.43h-2.44a15.94,15.94,0,0,1-.5-1.87l-.38-1.86a5,5,0,0,0-.24-.81,1.54,1.54,0,0,0-.32-.51,1,1,0,0,0-.44-.24,2.68,2.68,0,0,0-.61-.06h-1l-.62,2.79c-.05.23-.09.41-.11.54s0,.28-.05.43a2.89,2.89,0,0,0,0,.4.89.89,0,0,0,.08.43.54.54,0,0,0,.27.22,2.38,2.38,0,0,0,.6.11l-.09.43h-3.62l.1-.43a1.25,1.25,0,0,0,.5-.18.91.91,0,0,0,.28-.33,2.45,2.45,0,0,0,.21-.51,10.67,10.67,0,0,0,.29-1.17l1.5-6.77a6.79,6.79,0,0,0,.19-1.39.76.76,0,0,0-.2-.6,1.18,1.18,0,0,0-.66-.19l.1-.43h3.91a8.87,8.87,0,0,1,1.52.11,3.42,3.42,0,0,1,1,.33,2,2,0,0,1,.69.57,2.47,2.47,0,0,1,.43.78,3.1,3.1,0,0,1,.14.92,3.41,3.41,0,0,1-.83,2.31A5.15,5.15,0,0,1,109,39.77Zm-2-.66a4.8,4.8,0,0,0,2-.35,2.53,2.53,0,0,0,1.17-1.12,3.43,3.43,0,0,0,.43-1.69,2.76,2.76,0,0,0-.07-.67,2.11,2.11,0,0,0-.18-.49,1.58,1.58,0,0,0-.29-.34,1.71,1.71,0,0,0-.44-.26,2.58,2.58,0,0,0-.61-.16,7.63,7.63,0,0,0-.95-.05c-.31,0-.64,0-1,0l-1.13,5.09Z"/><rect class="cls-1" x="101.72" y="27.54" width="12" height="1.14"/><text class="cls-2" transform="translate(116.66 19.62)">∆</text><path class="cls-1" d="M134,13.35a1.87,1.87,0,0,0-.51-1.18,1.85,1.85,0,0,0-1.32-.41,1.69,1.69,0,0,0-1.12.36,1.15,1.15,0,0,0-.43.93,1.36,1.36,0,0,0,.11.56,1.63,1.63,0,0,0,.44.53,7.39,7.39,0,0,0,1,.72,7.08,7.08,0,0,1,.89.61,2.41,2.41,0,0,1,.52.55,1.92,1.92,0,0,1,.29.57,3.1,3.1,0,0,1,.08.74,2.24,2.24,0,0,1-.41,1.34,2.49,2.49,0,0,1-1.14.83,4.6,4.6,0,0,1-1.63.27,9.73,9.73,0,0,1-1.43-.11,11.52,11.52,0,0,1-1.56-.37l.42-1.92H129a1.8,1.8,0,0,0,.48,1.27,1.91,1.91,0,0,0,1.39.44,2,2,0,0,0,1.31-.38,1.28,1.28,0,0,0,.47-1.06,1.59,1.59,0,0,0-.13-.68,1.76,1.76,0,0,0-.43-.55,8.86,8.86,0,0,0-.95-.66A7.68,7.68,0,0,1,130,15a2.59,2.59,0,0,1-.58-.73,2.21,2.21,0,0,1,.18-2.12,2.39,2.39,0,0,1,1.07-.8,4.26,4.26,0,0,1,1.62-.28,11.36,11.36,0,0,1,1.49.09,7.32,7.32,0,0,1,1.34.34l-.4,1.84Z"/><text class="cls-2" transform="translate(117.27 45.31)">∆</text><path class="cls-1" d="M134.13,43.64A6.31,6.31,0,0,1,132.65,45a2.77,2.77,0,0,1-1.48.44,1.63,1.63,0,0,1-1.83-1.86,5.59,5.59,0,0,1,.15-1.24l1-4.56h-1.47l.13-.61a3.63,3.63,0,0,0,.78-.07,1.56,1.56,0,0,0,.45-.2,1.24,1.24,0,0,0,.33-.35A3.12,3.12,0,0,0,131,36c.1-.24.24-.66.42-1.25h1.22l-.49,2.17h2.68l-.2.89H132l-.78,3.41c-.15.66-.25,1.14-.29,1.43a5.33,5.33,0,0,0-.06.7c0,.73.3,1.09.9,1.09a1.46,1.46,0,0,0,.82-.3,5.44,5.44,0,0,0,1-1Z"/><rect class="cls-1" x="116.66" y="27.54" width="19.38" height="1.14"/><text class="cls-2" transform="translate(141.08 33.24)">=</text><text class="cls-2" transform="translate(159.57 33.24)"> </text><path class="cls-1" d="M169.66,19.76a.75.75,0,0,1-.43-.12,1,1,0,0,1-.27-.36,2.1,2.1,0,0,1-.15-.55,5,5,0,0,1-.05-.7,8.22,8.22,0,0,1,.07-1.07c0-.38.09-.76.15-1.15l.37-2.44a3,3,0,0,0,.06-.4c0-.12,0-.21,0-.27a1,1,0,0,0-.09-.45.29.29,0,0,0-.29-.18.89.89,0,0,0-.37.1l-.39.26c-.13.11-.26.22-.38.34s-.24.23-.34.34l-.42-.49a7.73,7.73,0,0,1,.58-.56,5.34,5.34,0,0,1,.65-.5,3.46,3.46,0,0,1,.72-.36,2.28,2.28,0,0,1,.77-.14,1.25,1.25,0,0,1,.55.11.94.94,0,0,1,.33.29,1.09,1.09,0,0,1,.16.4,2,2,0,0,1,0,.42,1.77,1.77,0,0,1,0,.24,1.25,1.25,0,0,1,0,.21l-.49,3.18c-.06.34-.1.66-.14,1s0,.61,0,.85a4.47,4.47,0,0,0,0,.6c0,.15.09.23.17.23a1.72,1.72,0,0,0,.73-.23,5.24,5.24,0,0,0,.92-.65,8,8,0,0,0,1-1,9.52,9.52,0,0,0,.87-1.21,7.07,7.07,0,0,0,.63-1.37,4.59,4.59,0,0,0,.24-1.45.72.72,0,0,0-.14-.49.49.49,0,0,0-.42-.17,1,1,0,0,0-.68.28,4.61,4.61,0,0,0-.65.75l-.5-.44a4,4,0,0,1,.5-.61,4.77,4.77,0,0,1,.6-.51,3.3,3.3,0,0,1,.67-.35,1.8,1.8,0,0,1,.66-.13,1.15,1.15,0,0,1,.92.33,1.29,1.29,0,0,1,.28.88,3.77,3.77,0,0,1-.15,1,8.61,8.61,0,0,1-.42,1.15,12.4,12.4,0,0,1-.65,1.24,11.26,11.26,0,0,1-.84,1.24A11.76,11.76,0,0,1,173,18a7.63,7.63,0,0,1-1.08.93,5.1,5.1,0,0,1-1.13.63A3,3,0,0,1,169.66,19.76Z"/><text class="cls-3" transform="translate(177.38 13.02)">2</text><path class="cls-1" d="M177.3,39.86a2.47,2.47,0,0,1,.68.76,3.91,3.91,0,0,1,.42,1.22l.2,1c.07.32.14.61.22.87a1.93,1.93,0,0,0,.3.61,1.1,1.1,0,0,0,.38.34,2.26,2.26,0,0,0,.63.19l-.09.43h-2.43a12.3,12.3,0,0,1-.5-1.86l-.39-1.87a4.19,4.19,0,0,0-.23-.81,1.41,1.41,0,0,0-.33-.51.91.91,0,0,0-.44-.24,3.4,3.4,0,0,0-.61,0h-1l-.61,2.78a4.78,4.78,0,0,0-.11.55q0,.2-.06.42c0,.15,0,.29,0,.4a.83.83,0,0,0,.09.43.51.51,0,0,0,.26.22,2.08,2.08,0,0,0,.61.11l-.1.43h-3.61l.1-.43a1.26,1.26,0,0,0,.5-.17,1,1,0,0,0,.28-.33,2.34,2.34,0,0,0,.21-.52c.06-.2.16-.59.29-1.17l1.49-6.77a6.84,6.84,0,0,0,.2-1.39.75.75,0,0,0-.2-.59,1.2,1.2,0,0,0-.66-.2l.09-.43h3.91a8.78,8.78,0,0,1,1.52.11,4,4,0,0,1,1,.33,2.31,2.31,0,0,1,.7.57,2.27,2.27,0,0,1,.42.78,2.83,2.83,0,0,1,.14.93,3.38,3.38,0,0,1-.82,2.3,5.19,5.19,0,0,1-2.44,1.44Zm-2-.66a4.82,4.82,0,0,0,2-.34,2.6,2.6,0,0,0,1.17-1.13,3.5,3.5,0,0,0,.43-1.68,3.39,3.39,0,0,0-.07-.68,1.86,1.86,0,0,0-.19-.49,1.31,1.31,0,0,0-.29-.34,1.65,1.65,0,0,0-.44-.26,3,3,0,0,0-.61-.16,7.8,7.8,0,0,0-.94,0l-1,0-1.12,5.09Z"/><rect class="cls-1" x="166.52" y="27.54" width="19.14" height="1.14"/><text class="cls-4" transform="translate(185.66 33.24)"> </text></svg>