<svg id="Capa_1" data-name="Capa 1" xmlns="http://www.w3.org/2000/svg" viewBox="0 0 2745.5 370.03"><defs><style>.cls-1,.cls-3,.cls-4,.cls-6,.cls-7{font-size:114.88px;}.cls-1,.cls-2{font-family:CambriaMath, Cambria Math;}.cls-2{font-size:83.09px;}.cls-3{font-family:Arial-ItalicMT, Arial;}.cls-3,.cls-4{font-style:italic;}.cls-4{font-family:Arial-BoldItalicMT, Arial;font-weight:700;}.cls-5{letter-spacing:0em;}.cls-6,.cls-7{font-family:ArialMT, Arial;}.cls-7{fill:#c42826;}</style></defs><title>formula_flecha1</title><path d="M69.16,208.56q-1.12-6.84-2.89-16.13t-3.45-16.88q-1.68-7.61-2.46-10.29a16.29,16.29,0,0,0-1.52-3.85,4.58,4.58,0,0,0-1.34-1.51,2.58,2.58,0,0,0-1.29-.37,3.64,3.64,0,0,0-2.58,1.15,20.85,20.85,0,0,0-3.09,4.86l-5.1-2.36a25.72,25.72,0,0,1,7.4-8.83,16,16,0,0,1,9.54-2.95,16.47,16.47,0,0,1,7,1.26,10.7,10.7,0,0,1,4.23,3.48,18.2,18.2,0,0,1,2.53,5.64A87.87,87.87,0,0,1,78,171.26q1.74,11.06,3,21.71a85.8,85.8,0,0,0,9.57-17.39,42.07,42.07,0,0,0,3.33-15.15,4.56,4.56,0,0,0-1-3.22A5,5,0,0,0,89.3,156l.78-3.7H105.9l2,3.7a84.82,84.82,0,0,1-3.48,9.37A167.7,167.7,0,0,1,95,183.49q-5.33,9-11.61,18.06-7.35,10.55-12.79,17a66.13,66.13,0,0,1-9.42,9.56,22,22,0,0,1-6,3.34,18.42,18.42,0,0,1-6.06,1,24.68,24.68,0,0,1-7.85-1.23l2.8-12.68H50a7.64,7.64,0,0,0,.7,3.48A2.45,2.45,0,0,0,53,223.14a6.76,6.76,0,0,0,2.52-.47,13.7,13.7,0,0,0,3-1.88A35.39,35.39,0,0,0,63,216.22Q65.74,213,69.16,208.56Z"/><text class="cls-1" transform="translate(109.47 207.93)">(</text><path d="M199.73,197.73q-5.67,6.22-10.41,8.67a24.11,24.11,0,0,1-11.19,2.44q-6.39,0-9.82-3.28t-3.42-9.06a30,30,0,0,1,.4-5q.39-2.39,1.62-7.83l5.78-24.34h-8.75l1.06-4.54A18.68,18.68,0,0,0,171,154a8.57,8.57,0,0,0,3.39-2.19,15.45,15.45,0,0,0,2.67-4.43,78.07,78.07,0,0,0,3-9.14H193.5l-3.25,14h13.63l-1.52,7H188.62l-5.44,22.44c-.94,3.85-1.58,6.78-1.94,8.78a30.31,30.31,0,0,0-.53,5.07,6.22,6.22,0,0,0,.95,3.84,3.35,3.35,0,0,0,2.81,1.21,9.3,9.3,0,0,0,5.19-1.8,28.27,28.27,0,0,0,5.75-5.55Z"/><text class="cls-1" transform="translate(205.62 207.93)">)</text><text class="cls-1" transform="translate(284.89 207.93)">=</text><text class="cls-1" transform="translate(402.86 207.93)"> </text><text class="cls-1" transform="translate(428.14 207.93)">ℎ</text><text class="cls-2" transform="translate(491.59 231.29)">0</text><text class="cls-1" transform="translate(570.08 207.93)">+</text><path d="M701.48,208.9a4.46,4.46,0,0,1-2.72-.82,5.74,5.74,0,0,1-1.77-2.3,13.19,13.19,0,0,1-1-3.5,32,32,0,0,1-.28-4.43,64.52,64.52,0,0,1,.39-6.85q.39-3.65,1-7.35l2.36-15.53c.15-.9.27-1.75.36-2.56a15.31,15.31,0,0,0,.14-1.76,6.31,6.31,0,0,0-.56-2.86,2,2,0,0,0-1.9-1.12,5,5,0,0,0-2.3.64,14.82,14.82,0,0,0-2.5,1.66c-.84.67-1.65,1.39-2.44,2.15l-2.19,2.16-2.69-3.14q1.74-1.78,3.7-3.56a34.49,34.49,0,0,1,4.15-3.2,22.23,22.23,0,0,1,4.6-2.3,14.49,14.49,0,0,1,4.94-.87,7.5,7.5,0,0,1,3.48.71,5.48,5.48,0,0,1,2.1,1.85,7.27,7.27,0,0,1,1,2.52,14.11,14.11,0,0,1,.28,2.72c0,.53,0,1-.06,1.52a12.53,12.53,0,0,1-.17,1.34l-3.14,20.31q-.5,3.19-.84,6.25a51.33,51.33,0,0,0-.34,5.41,21.65,21.65,0,0,0,.28,3.82c.19,1,.55,1.46,1.07,1.46a10.6,10.6,0,0,0,4.66-1.49,34.29,34.29,0,0,0,5.89-4.09,57.88,57.88,0,0,0,6.17-6.17,54.65,54.65,0,0,0,5.55-7.72,45.3,45.3,0,0,0,4-8.75,28.85,28.85,0,0,0,1.54-9.25,4.91,4.91,0,0,0-.87-3.12,3.28,3.28,0,0,0-2.72-1.09,6.35,6.35,0,0,0-4.35,1.82,31.72,31.72,0,0,0-4.12,4.8l-3.2-2.86a26.46,26.46,0,0,1,3.17-3.87,26.06,26.06,0,0,1,3.87-3.25,20.39,20.39,0,0,1,4.24-2.25,11.86,11.86,0,0,1,4.26-.84q4,0,5.84,2.1a8.46,8.46,0,0,1,1.79,5.64,23.87,23.87,0,0,1-1,6.17,51.28,51.28,0,0,1-2.7,7.35,77,77,0,0,1-4.15,7.94,82.73,82.73,0,0,1-5.32,7.9,77.71,77.71,0,0,1-6.23,7.24A50.49,50.49,0,0,1,716,203.4a35.91,35.91,0,0,1-7.24,4A19.43,19.43,0,0,1,701.48,208.9Z"/><text class="cls-2" transform="translate(742.78 231.29)">0</text><text class="cls-1" transform="translate(795.62 207.93)"> </text><path d="M863.19,168c-.41-3.33-1.51-5.85-3.28-7.57s-4.57-2.58-8.39-2.58a10.88,10.88,0,0,0-7.18,2.27,7.36,7.36,0,0,0-2.75,6,8.6,8.6,0,0,0,.7,3.56,10.93,10.93,0,0,0,2.84,3.4,48.69,48.69,0,0,0,6.62,4.54,47.32,47.32,0,0,1,5.66,3.9,19.46,19.46,0,0,1,3.37,3.5,12.18,12.18,0,0,1,1.79,3.68,17.14,17.14,0,0,1,.56,4.68,13.94,13.94,0,0,1-2.66,8.56,15.86,15.86,0,0,1-7.24,5.3,29.08,29.08,0,0,1-10.4,1.74,58.93,58.93,0,0,1-9.15-.71,72,72,0,0,1-10-2.38l2.69-12.23h4.38q.22,5.38,3,8.14t8.92,2.74q5.32,0,8.32-2.38a8.14,8.14,0,0,0,3-6.76,10.2,10.2,0,0,0-.85-4.35,10.79,10.79,0,0,0-2.74-3.5,46.13,46.13,0,0,0-6.06-4.21,48.71,48.71,0,0,1-6.82-4.77,15.08,15.08,0,0,1-3.67-4.62,12.87,12.87,0,0,1-1.24-5.75,13,13,0,0,1,2.39-7.77,15,15,0,0,1,6.81-5.13,27.33,27.33,0,0,1,10.32-1.8,67.3,67.3,0,0,1,9.51.62,44.47,44.47,0,0,1,8.56,2.13L867.73,168Z"/><path d="M921,196.78a42.73,42.73,0,0,1-11,9,26.8,26.8,0,0,1-13,3q-8.13,0-12.59-5T880,190.05a43,43,0,0,1,2.16-12.87,37.52,37.52,0,0,1,6.54-12.34,30.39,30.39,0,0,1,10.49-8.47,29.13,29.13,0,0,1,13-3q6.78,0,10.18,2.75t3.39,8.59q0,9.53-8.94,14.3t-26.56,4.77a37,37,0,0,0-.68,7.29c0,3.92.77,6.78,2.3,8.55s4,2.67,7.52,2.67a19.4,19.4,0,0,0,9.34-2.25,38.5,38.5,0,0,0,8.83-6.9ZM891.19,179a60.7,60.7,0,0,0,13.58-1.43,18.23,18.23,0,0,0,8.69-4.38,10.88,10.88,0,0,0,3-8.1,8.16,8.16,0,0,0-1.6-5.36,5.8,5.8,0,0,0-4.74-1.93q-5.67,0-10.91,5.72T891.19,179Zm55.3-6.62a40.33,40.33,0,0,0,1.23-8.3,5.74,5.74,0,0,0-.72-3.26,2.66,2.66,0,0,0-2.3-1,6.24,6.24,0,0,0-3.68,1.43,40,40,0,0,0-5.3,5.18l-3.2-3.14a54.89,54.89,0,0,1,8.59-7.65,13.64,13.64,0,0,1,7.74-2.28,7.07,7.07,0,0,1,5.58,2.33,8.9,8.9,0,0,1,2,6.09,19.24,19.24,0,0,1-1.34,6.62l.67.22q5.51-7.74,10.46-11.47a16.84,16.84,0,0,1,10.24-3.73q5.22,0,8,3t2.8,8.33a44.94,44.94,0,0,1-1.62,10l-3.65,14.7a41.91,41.91,0,0,0-1.51,8.64,5.62,5.62,0,0,0,.73,3.25,2.64,2.64,0,0,0,2.3,1,6.25,6.25,0,0,0,3.59-1.38,39.15,39.15,0,0,0,5.38-5.24l3.2,3.14a50.76,50.76,0,0,1-8.42,7.55,14.51,14.51,0,0,1-8.18,2.38,7.23,7.23,0,0,1-5.84-2.61,10,10,0,0,1-2.19-6.65A46.17,46.17,0,0,1,973,188.87l2.46-9.7q1.35-5.28,1.77-7.8a26.09,26.09,0,0,0,.42-4.09q0-3.87-1.29-5.59a4.93,4.93,0,0,0-4.21-1.71,9.09,9.09,0,0,0-5.07,1.88,28.91,28.91,0,0,0-5.78,5.67,44.34,44.34,0,0,0-4.91,7.35,37,37,0,0,0-3,8.77L948,207.94h-9.7Z"/><path d="M1063.36,157.18q-7,9.42-16.38,23.16a135,135,0,0,0-1.41,15.15,12,12,0,0,0,.85,5.3,2.91,2.91,0,0,0,2.8,1.6,6.66,6.66,0,0,0,3.56-1.32,20.75,20.75,0,0,0,4.29-4.07l3.26,3a34.77,34.77,0,0,1-8.19,6.93,15,15,0,0,1-7.18,1.88q-7.47,0-7.46-10.88a47.65,47.65,0,0,1,.33-5.33h-.56q-5.77,8.64-10.94,12.42a18.29,18.29,0,0,1-11,3.79,10.34,10.34,0,0,1-6.89-2.36,13.88,13.88,0,0,1-4.16-6.25,26.08,26.08,0,0,1-1.34-8.5,48.35,48.35,0,0,1,3.81-19,33.87,33.87,0,0,1,10.6-14.14,24.68,24.68,0,0,1,15.26-5.13q6.29,0,9.85,3.93t3.95,11.5l.5-.06,7.35-14.47h9.71ZM1039,180.74a65.5,65.5,0,0,0,1-10.32q0-6.4-1.88-9.48a6.37,6.37,0,0,0-5.86-3.09q-5.16,0-9.59,4.6a32.93,32.93,0,0,0-7.1,12.45,49.73,49.73,0,0,0-2.66,16.1c0,3.78.56,6.58,1.68,8.42a5.53,5.53,0,0,0,5,2.74q4.82,0,9.93-5.66T1039,180.74Z"/><text class="cls-1" transform="translate(1065.92 207.93)"> </text><path d="M1130.18,197.34a40.34,40.34,0,0,1-9.39,8.69,17.71,17.71,0,0,1-9.46,2.81q-11.71,0-11.72-11.84a35.58,35.58,0,0,1,1-7.9l6.62-29.12h-9.42l.84-3.87a22.17,22.17,0,0,0,5-.5,9.08,9.08,0,0,0,2.86-1.24,7.88,7.88,0,0,0,2.11-2.24,21.2,21.2,0,0,0,1.85-3.73q.88-2.27,2.69-7.94h7.74l-3.09,13.86h17.06L1133.6,160h-17l-5,21.77q-1.45,6.33-1.85,9.11a34,34,0,0,0-.4,4.46q0,7,5.78,7a9.49,9.49,0,0,0,5.25-1.88,35.42,35.42,0,0,0,6.59-6.43Z"/><text class="cls-1" transform="translate(1136.34 207.93)"> </text><text class="cls-1" transform="translate(1186.89 207.93)">−</text><text class="cls-2" transform="translate(1298.39 140.55)">1</text><text class="cls-2" transform="translate(1298.39 265.76)">2</text><rect x="1298.39" y="171.56" width="47.86" height="7.28"/><text class="cls-1" transform="translate(1365.79 207.93)"> </text><path d="M1404.8,212.77a18.31,18.31,0,0,0-1.79,2.55,9.51,9.51,0,0,0-1,2.44,10.93,10.93,0,0,0-.31,2.8,6.74,6.74,0,0,0,3,6.14q3,1.94,9.14,1.94,6.9,0,11.08-3.11t7.15-10q3-6.9,5.78-20.86l-.79-.17q-5.43,7.46-10.09,10.88a16.64,16.64,0,0,1-10,3.42,11.12,11.12,0,0,1-9.51-4.6q-3.39-4.59-3.39-13.12a46.69,46.69,0,0,1,3.75-18.43,34.63,34.63,0,0,1,10.44-14,23.53,23.53,0,0,1,14.86-5.22,25.79,25.79,0,0,1,6.68.85,23.15,23.15,0,0,1,6.34,2.86l5.16-3.71,3.59.9-5.78,26.14q-.61,2.74-2.81,13.86-2.3,11.78-3.73,16.65a47.07,47.07,0,0,1-3.56,8.9,24.6,24.6,0,0,1-5.5,7,23.67,23.67,0,0,1-8.16,4.6,35.55,35.55,0,0,1-11.36,1.62q-21.2,0-21.2-12.34a9.42,9.42,0,0,1,1.91-5.72,25.3,25.3,0,0,1,6.11-5.44Zm16.1-10.61a9.91,9.91,0,0,0,5.69-2,28.2,28.2,0,0,0,6.06-6.23,45.29,45.29,0,0,0,5-8.13,46.61,46.61,0,0,0,3.06-9.65,48,48,0,0,0,1.26-10q0-4.36-1.85-6.36t-6.17-2a14.08,14.08,0,0,0-10.27,4.62,32,32,0,0,0-7.15,12.48,49.43,49.43,0,0,0-2.61,15.65c0,3.89.57,6.8,1.69,8.73A5.67,5.67,0,0,0,1420.9,202.16Z"/><text class="cls-1" transform="translate(1461.48 207.93)"> </text><path d="M1525.73,197.34a40.14,40.14,0,0,1-9.39,8.69,17.65,17.65,0,0,1-9.45,2.81q-11.73,0-11.73-11.84a35,35,0,0,1,1-7.9l6.62-29.12h-9.43l.84-3.87a22.17,22.17,0,0,0,5-.5,9.14,9.14,0,0,0,2.87-1.24,8,8,0,0,0,2.1-2.24,21.2,21.2,0,0,0,1.85-3.73c.6-1.51,1.49-4.16,2.69-7.94h7.74l-3.08,13.86h17.05l-1.23,5.66H1512.1l-5,21.77q-1.45,6.33-1.85,9.11a33.69,33.69,0,0,0-.39,4.46q0,7,5.78,7a9.49,9.49,0,0,0,5.24-1.88,35.11,35.11,0,0,0,6.59-6.43Z"/><text class="cls-2" transform="translate(1538.48 165.82)">2</text><text class="cls-3" transform="translate(1590.94 207.93)"><tspan xml:space="preserve">   </tspan></text><text class="cls-4" transform="translate(1686.4 207.93)">;<tspan class="cls-5" x="38.25" y="0"> </tspan><tspan x="70.4" y="0" xml:space="preserve">  </tspan></text><path d="M1861.58,176.25q2,11.83,3.23,17t2.61,6.64a2.48,2.48,0,0,0,1.9.85,3.81,3.81,0,0,0,2.61-1.1,18.56,18.56,0,0,0,3.12-4.91l5.1,2.36a25.67,25.67,0,0,1-7.38,8.86,16.27,16.27,0,0,1-9.67,2.92,14.22,14.22,0,0,1-5.47-.87,8.08,8.08,0,0,1-3.48-2.89,19.84,19.84,0,0,1-2.52-5.69,77.29,77.29,0,0,1-2.05-9.62H1849q-4.77,6.84-7.63,10.43a43.42,43.42,0,0,1-4.91,5.39,13.7,13.7,0,0,1-3.92,2.52,12.45,12.45,0,0,1-4.52.73,17.52,17.52,0,0,1-3-.31,16.5,16.5,0,0,1-2.66-.64l2.63-12.18h5a2.75,2.75,0,0,0,.59,1.77,1.76,1.76,0,0,0,1.37.59,4.25,4.25,0,0,0,1.88-.42,11,11,0,0,0,2.41-1.88,50.21,50.21,0,0,0,3.9-4.29q2.36-2.83,8-10-1.18-6.61-2.22-11.41a50.34,50.34,0,0,0-1.88-7,8.49,8.49,0,0,0-1.6-2.89,2.41,2.41,0,0,0-1.71-.73,3.34,3.34,0,0,0-2,.59A8,8,0,0,0,1837,162a27,27,0,0,0-2,3.51l-5.1-2.36a26,26,0,0,1,7.32-8.86,15.48,15.48,0,0,1,9.28-2.92,14,14,0,0,1,6.84,1.35,9.84,9.84,0,0,1,3.87,4.68,49.29,49.29,0,0,1,2.86,10.69h.57q4.14-5.84,6.45-8.78a36.45,36.45,0,0,1,4.26-4.71,13,13,0,0,1,3.81-2.5,12.1,12.1,0,0,1,4.38-.73,17,17,0,0,1,5.66,1l-2.63,12.12h-5c-.19-1.57-.88-2.36-2.08-2.36a4,4,0,0,0-1.65.39,9.45,9.45,0,0,0-2.3,1.77,47.62,47.62,0,0,0-3.56,4Q1865.85,170.92,1861.58,176.25Z"/><text class="cls-1" transform="translate(1886.97 207.93)">(</text><path d="M1977.11,197.73q-5.65,6.22-10.4,8.67a24.11,24.11,0,0,1-11.19,2.44q-6.4,0-9.82-3.28t-3.42-9.06a31.06,31.06,0,0,1,.39-5c.26-1.59.81-4.2,1.63-7.83l5.78-24.34h-8.75l1.06-4.54a18.68,18.68,0,0,0,5.95-.73,8.72,8.72,0,0,0,3.39-2.19,15.68,15.68,0,0,0,2.67-4.43,78.45,78.45,0,0,0,3-9.14h13.47l-3.26,14h13.63l-1.51,7H1966l-5.44,22.44c-.94,3.85-1.58,6.78-1.94,8.78a29.29,29.29,0,0,0-.53,5.07,6.16,6.16,0,0,0,1,3.84,3.35,3.35,0,0,0,2.81,1.21,9.25,9.25,0,0,0,5.18-1.8,27.77,27.77,0,0,0,5.75-5.55Z"/><text class="cls-1" transform="translate(1983.01 207.93)">)</text><text class="cls-1" transform="translate(2062.27 207.93)">=</text><text class="cls-1" transform="translate(2180.25 207.93)"> </text><path d="M2225.49,208.9a4.46,4.46,0,0,1-2.72-.82,5.63,5.63,0,0,1-1.76-2.3,12.81,12.81,0,0,1-1-3.5,32,32,0,0,1-.28-4.43,64.52,64.52,0,0,1,.39-6.85c.27-2.43.6-4.88,1-7.35l2.36-15.53c.15-.9.27-1.75.36-2.56a15.31,15.31,0,0,0,.14-1.76,6.31,6.31,0,0,0-.56-2.86,2,2,0,0,0-1.9-1.12,5,5,0,0,0-2.3.64,14.82,14.82,0,0,0-2.5,1.66c-.84.67-1.65,1.39-2.44,2.15l-2.19,2.16-2.69-3.14q1.74-1.78,3.7-3.56a35.3,35.3,0,0,1,4.15-3.2,22.23,22.23,0,0,1,4.6-2.3,14.49,14.49,0,0,1,4.94-.87,7.5,7.5,0,0,1,3.48.71,5.41,5.41,0,0,1,2.1,1.85,7.08,7.08,0,0,1,1,2.52,14.11,14.11,0,0,1,.28,2.72c0,.53,0,1-.06,1.52a12.53,12.53,0,0,1-.17,1.34l-3.14,20.31q-.49,3.19-.84,6.25a51.08,51.08,0,0,0-.33,5.41,20.73,20.73,0,0,0,.28,3.82c.18,1,.54,1.46,1.06,1.46a10.57,10.57,0,0,0,4.66-1.49,34.29,34.29,0,0,0,5.89-4.09,57.88,57.88,0,0,0,6.17-6.17,54.65,54.65,0,0,0,5.55-7.72,45.3,45.3,0,0,0,4-8.75,28.85,28.85,0,0,0,1.54-9.25,4.91,4.91,0,0,0-.87-3.12,3.28,3.28,0,0,0-2.72-1.09,6.31,6.31,0,0,0-4.34,1.82,31.17,31.17,0,0,0-4.13,4.8l-3.19-2.86a27.08,27.08,0,0,1,7-7.12,20.07,20.07,0,0,1,4.23-2.25,11.86,11.86,0,0,1,4.26-.84c2.7,0,4.64.7,5.84,2.1a8.46,8.46,0,0,1,1.79,5.64,23.87,23.87,0,0,1-.95,6.17,52.4,52.4,0,0,1-2.69,7.35,79.18,79.18,0,0,1-4.16,7.94,82.73,82.73,0,0,1-5.32,7.9,76.24,76.24,0,0,1-6.23,7.24,50.49,50.49,0,0,1-6.87,5.92,35.91,35.91,0,0,1-7.24,4A19.43,19.43,0,0,1,2225.49,208.9Z"/><text class="cls-2" transform="translate(2266.79 231.29)">0</text><text class="cls-1" transform="translate(2319.63 207.93)"> </text><path d="M2387.14,167.78a24.7,24.7,0,0,0-.7-6.17,5.38,5.38,0,0,0-1.9-2.86,6.27,6.27,0,0,0-3.73-.95,14.07,14.07,0,0,0-10.19,4.51q-4.51,4.51-7.37,12.79a48.56,48.56,0,0,0-2.86,15.9q0,5.73,2.24,8.5t6.73,2.78a19,19,0,0,0,8.84-1.94,33.41,33.41,0,0,0,7.88-6.08l3.42,3.42a37.18,37.18,0,0,1-10.63,8.52,25.24,25.24,0,0,1-11.53,2.7q-8.13,0-12.34-4.83t-4.2-14a44.3,44.3,0,0,1,2.24-13.18,38.54,38.54,0,0,1,6.56-12.62,28,28,0,0,1,10.1-8.14,28.91,28.91,0,0,1,12.34-2.69,53.11,53.11,0,0,1,13.74,1.68L2393,167.78Zm35.07,41.12q-8.7,0-13.49-4.88t-4.8-14a47.08,47.08,0,0,1,1.35-10.37,38.77,38.77,0,0,1,5.83-13.92,27.56,27.56,0,0,1,23.28-12.28q9,0,13.68,4.91t4.72,14a47.38,47.38,0,0,1-2.28,13.91,38,38,0,0,1-6.22,12.45,25.62,25.62,0,0,1-9.45,7.6A29.72,29.72,0,0,1,2422.21,208.9Zm-8.47-16.5q0,6.18,2.55,9.12t7.71,2.94q5.51,0,9.76-4.93t6.73-13.83a59.17,59.17,0,0,0,2.47-15.62q0-6.06-2.36-9.11t-7.34-3.06a13.22,13.22,0,0,0-10.18,4.88q-4.35,4.88-6.85,14A60.68,60.68,0,0,0,2413.74,192.4Z"/><path d="M2501.27,168q-.61-5-3.28-7.57t-8.38-2.58a10.86,10.86,0,0,0-7.18,2.27,7.34,7.34,0,0,0-2.75,6,8.44,8.44,0,0,0,.7,3.56,10.88,10.88,0,0,0,2.83,3.4,49.35,49.35,0,0,0,6.62,4.54,46.51,46.51,0,0,1,5.66,3.9,18.79,18.79,0,0,1,3.37,3.5,12.45,12.45,0,0,1,1.8,3.68,17.14,17.14,0,0,1,.56,4.68,13.88,13.88,0,0,1-2.67,8.56,15.88,15.88,0,0,1-7.23,5.3,29.13,29.13,0,0,1-10.41,1.74,58.8,58.8,0,0,1-9.14-.71,72.4,72.4,0,0,1-10-2.38l2.7-12.23h4.37q.22,5.38,3,8.14t8.92,2.74q5.32,0,8.33-2.38a8.13,8.13,0,0,0,3-6.76,10.36,10.36,0,0,0-.84-4.35,10.83,10.83,0,0,0-2.75-3.5,44.78,44.78,0,0,0-6.06-4.21,47.93,47.93,0,0,1-6.81-4.77,15,15,0,0,1-3.68-4.62,13.95,13.95,0,0,1,1.15-13.52,15,15,0,0,1,6.82-5.13,27.26,27.26,0,0,1,10.32-1.8,67.4,67.4,0,0,1,9.51.62,44.19,44.19,0,0,1,8.55,2.13L2505.82,168Z"/><text class="cls-1" transform="translate(2512.28 207.93)"> </text><path d="M2603.91,157.18q-7,9.42-16.38,23.16a134.31,134.31,0,0,0-1.4,15.15,12.18,12.18,0,0,0,.84,5.3,2.91,2.91,0,0,0,2.8,1.6,6.69,6.69,0,0,0,3.57-1.32,21.26,21.26,0,0,0,4.29-4.07l3.25,3a34.77,34.77,0,0,1-8.19,6.93,15,15,0,0,1-7.18,1.88q-7.46,0-7.46-10.88a45.53,45.53,0,0,1,.34-5.33h-.56q-5.79,8.64-10.94,12.42a18.32,18.32,0,0,1-11,3.79,10.37,10.37,0,0,1-6.9-2.36,13.86,13.86,0,0,1-4.15-6.25,25.81,25.81,0,0,1-1.35-8.5,48.18,48.18,0,0,1,3.82-19,33.7,33.7,0,0,1,10.6-14.14,24.65,24.65,0,0,1,15.25-5.13q6.29,0,9.85,3.93t3.95,11.5l.51-.06,7.35-14.47h9.7Zm-24.4,23.56a65.5,65.5,0,0,0,.95-10.32c0-4.27-.62-7.43-1.88-9.48a6.36,6.36,0,0,0-5.86-3.09q-5.16,0-9.59,4.6a33.06,33.06,0,0,0-7.1,12.45,50,50,0,0,0-2.66,16.1c0,3.78.56,6.58,1.68,8.42a5.54,5.54,0,0,0,5,2.74q4.83,0,9.93-5.66T2579.51,180.74Z"/><text class="cls-1" transform="translate(2606.48 207.93)"> </text><path d="M2670.73,197.34a40.14,40.14,0,0,1-9.39,8.69,17.65,17.65,0,0,1-9.45,2.81q-11.73,0-11.73-11.84a35,35,0,0,1,1-7.9l6.62-29.12h-9.43l.85-3.87a22.31,22.31,0,0,0,5-.5,9.08,9.08,0,0,0,2.86-1.24,8,8,0,0,0,2.1-2.24,21.2,21.2,0,0,0,1.85-3.73q.9-2.27,2.69-7.94h7.74l-3.08,13.86h17l-1.23,5.66H2657.1l-5,21.77q-1.46,6.33-1.85,9.11a33.69,33.69,0,0,0-.39,4.46q0,7,5.78,7a9.49,9.49,0,0,0,5.24-1.88,35.11,35.11,0,0,0,6.59-6.43Z"/><text class="cls-6" transform="translate(2679.58 207.93)"> </text><text class="cls-7" transform="translate(40.89 393.69)"> </text></svg>