<svg id="Capa_1" data-name="Capa 1" xmlns="http://www.w3.org/2000/svg" viewBox="0 0 438.31 65.69"><defs><style>.cls-1{font-size:9px;font-family:Consolas;}.cls-1,.cls-7{fill:#e52421;}.cls-2,.cls-5,.cls-6,.cls-7{font-size:18px;}.cls-2,.cls-3,.cls-4{font-family:CambriaMath, Cambria Math;}.cls-3{font-size:10.5px;}.cls-4{font-size:13.02px;}.cls-5{font-family:Arial-ItalicMT, Arial;font-style:italic;}.cls-6,.cls-7{font-family:ArialMT, Arial;}</style></defs><title>formula_flecha2</title><text class="cls-1" transform="translate(14.62 4.43)"> </text><path d="M19.05,33.87c-.11-.72-.26-1.56-.45-2.53s-.36-1.85-.54-2.64-.3-1.33-.39-1.62a2.79,2.79,0,0,0-.23-.6.88.88,0,0,0-.21-.24.54.54,0,0,0-.21,0,.57.57,0,0,0-.4.18,3.35,3.35,0,0,0-.48.76l-.8-.37a4,4,0,0,1,1.16-1.39A2.55,2.55,0,0,1,18,24.91a2.64,2.64,0,0,1,1.1.2,1.68,1.68,0,0,1,.66.55,2.88,2.88,0,0,1,.39.88A11.88,11.88,0,0,1,20.43,28c.19,1.16.34,2.29.47,3.41a13.56,13.56,0,0,0,1.5-2.73,6.49,6.49,0,0,0,.52-2.37.73.73,0,0,0-.16-.51.83.83,0,0,0-.55-.19l.12-.58h2.48l.31.58a12.4,12.4,0,0,1-.55,1.47,25.87,25.87,0,0,1-1.46,2.84c-.56.94-1.17,1.89-1.82,2.83q-1.16,1.65-2,2.67a11.72,11.72,0,0,1-1.47,1.5,3.73,3.73,0,0,1-.94.52,3,3,0,0,1-1,.15,3.78,3.78,0,0,1-1.23-.19l.44-2h.92a1.11,1.11,0,0,0,.11.55.38.38,0,0,0,.36.17,1.05,1.05,0,0,0,.4-.07,1.94,1.94,0,0,0,.46-.3,4.66,4.66,0,0,0,.71-.71Q18.52,34.58,19.05,33.87Z"/><path d="M35.66,35.43l-.09.41c0,.1,0,.21,0,.33a.53.53,0,0,0,.08.35.29.29,0,0,0,.23.09.76.76,0,0,0,.42-.17,5.16,5.16,0,0,0,.54-.53l.46.45a5,5,0,0,1-1.12.91,2.33,2.33,0,0,1-1.08.26,1.3,1.3,0,0,1-1-.32,1.39,1.39,0,0,1-.32-1,3.62,3.62,0,0,1,.05-.51,5,5,0,0,1,.13-.63L34.26,34c.07-.25.13-.51.18-.79a4,4,0,0,0,.08-.64c0-.39-.15-.59-.46-.59a1.17,1.17,0,0,0-.67.35,3.6,3.6,0,0,0-.65.77,3.35,3.35,0,0,0-.39,1.1l-.7,3.26H29.82l.92-4c.05-.2.08-.36.1-.48a2.06,2.06,0,0,0,0-.33.77.77,0,0,0-.11-.48.43.43,0,0,0-.36-.15,1.1,1.1,0,0,0-.69.36,3.44,3.44,0,0,0-.64.77,3.33,3.33,0,0,0-.4,1.09L28,37.43H26.13l1-4.42a3.29,3.29,0,0,0,.1-.63.69.69,0,0,0-.07-.32.26.26,0,0,0-.24-.11.74.74,0,0,0-.43.17,4.37,4.37,0,0,0-.53.53l-.46-.46a5,5,0,0,1,1.13-.91,2.2,2.2,0,0,1,1-.26,1.17,1.17,0,0,1,.84.3,1,1,0,0,1,.31.78,1,1,0,0,1,0,.3l.08,0A4.77,4.77,0,0,1,30,31.37,2.34,2.34,0,0,1,31.26,31a1.42,1.42,0,0,1,1,.35,1.36,1.36,0,0,1,.38,1,3.88,3.88,0,0,1,1.07-1A2.24,2.24,0,0,1,34.93,31a1.34,1.34,0,0,1,1,.37,1.36,1.36,0,0,1,.37,1,2.85,2.85,0,0,1,0,.46,4,4,0,0,1-.09.52Zm8.06,0a3.36,3.36,0,0,0-.09.72.62.62,0,0,0,.07.33.25.25,0,0,0,.24.11.69.69,0,0,0,.42-.18,3.58,3.58,0,0,0,.54-.52l.46.45a4.72,4.72,0,0,1-1.16.92,2.13,2.13,0,0,1-1,.25,1.17,1.17,0,0,1-.85-.29,1,1,0,0,1-.31-.78,1.06,1.06,0,0,1,0-.31H42a6.31,6.31,0,0,1-.8.82,2.5,2.5,0,0,1-.71.43,2.19,2.19,0,0,1-.83.14A1.39,1.39,0,0,1,38.48,37a2.49,2.49,0,0,1-.39-1.51,5.9,5.9,0,0,1,.25-1.71,4.42,4.42,0,0,1,.71-1.46,3.22,3.22,0,0,1,1.17-1A3.39,3.39,0,0,1,41.81,31a2.8,2.8,0,0,1,1.61.46L44,31l.71.11Zm-1.26-2a4.36,4.36,0,0,0,.1-.94,1.14,1.14,0,0,0-.15-.64.62.62,0,0,0-.53-.21,1.28,1.28,0,0,0-1,.59,4.49,4.49,0,0,0-.74,1.6,6.65,6.65,0,0,0-.28,1.8,1.38,1.38,0,0,0,.13.69.49.49,0,0,0,.43.23,1.28,1.28,0,0,0,.85-.41,3.37,3.37,0,0,0,.71-1,7.7,7.7,0,0,0,.47-1.52Z"/><path d="M50.15,33.84c.15.89.27,1.54.37,1.92a2,2,0,0,0,.3.76.27.27,0,0,0,.21.09.44.44,0,0,0,.3-.12,2,2,0,0,0,.35-.56l.58.27a3,3,0,0,1-.84,1,1.83,1.83,0,0,1-1.09.33,1.73,1.73,0,0,1-.62-.09,1,1,0,0,1-.4-.33,2.1,2.1,0,0,1-.28-.65,8.46,8.46,0,0,1-.24-1.09h-.06c-.36.52-.65.91-.86,1.18a5.46,5.46,0,0,1-.56.62,1.5,1.5,0,0,1-.45.28,1.3,1.3,0,0,1-.51.08l-.34,0a2.28,2.28,0,0,1-.3-.07l.3-1.38h.57a.36.36,0,0,0,.07.2.2.2,0,0,0,.15.06.54.54,0,0,0,.22,0,2.38,2.38,0,0,0,.27-.22,6,6,0,0,0,.44-.48l.91-1.13c-.09-.5-.18-.93-.26-1.3a5,5,0,0,0-.21-.78A.8.8,0,0,0,48,32,.25.25,0,0,0,47.8,32a.44.44,0,0,0-.23.06,1.11,1.11,0,0,0-.2.22,2.75,2.75,0,0,0-.22.4l-.58-.27a2.87,2.87,0,0,1,.83-1A1.77,1.77,0,0,1,48.45,31a1.51,1.51,0,0,1,.78.16,1.12,1.12,0,0,1,.43.53A5.06,5.06,0,0,1,50,32.92h.06l.73-1a4.42,4.42,0,0,1,.49-.53,1.43,1.43,0,0,1,.43-.28,1.24,1.24,0,0,1,.5-.09,1.85,1.85,0,0,1,.64.12l-.3,1.37H52q0-.27-.24-.27a.49.49,0,0,0-.19,0,1.39,1.39,0,0,0-.26.2,4.09,4.09,0,0,0-.4.45Z"/><text class="cls-2" transform="translate(58.72 33.77)">=</text><text class="cls-2" transform="translate(77.21 33.77)"> </text><path d="M86.44,23.32a.74.74,0,0,1-.38-.09.67.67,0,0,1-.24-.26,1.45,1.45,0,0,1-.11-.4,3.84,3.84,0,0,1,0-.5,7.28,7.28,0,0,1,0-.78c0-.27.07-.55.12-.83q.33-2,.33-2.37a.51.51,0,0,0,0-.32.22.22,0,0,0-.19-.09.6.6,0,0,0-.27.07l-.29.18-.28.23-.26.23L84.48,18q.21-.22.45-.45a3.9,3.9,0,0,1,.51-.4,2.29,2.29,0,0,1,.56-.29,1.71,1.71,0,0,1,.59-.11.82.82,0,0,1,.44.11.9.9,0,0,1,.27.28,1.28,1.28,0,0,1,.13.39,2.83,2.83,0,0,1,0,.41,2,2,0,0,1,0,.32L87,20.54c0,.22-.07.43-.1.64s0,.4,0,.56a2.17,2.17,0,0,0,0,.4q0,.15.06.15a1.16,1.16,0,0,0,.52-.16,3.93,3.93,0,0,0,.67-.45A6.24,6.24,0,0,0,88.9,21a6.57,6.57,0,0,0,.63-.84,4.9,4.9,0,0,0,.46-1,3.24,3.24,0,0,0,.17-1,.69.69,0,0,0-.11-.43.39.39,0,0,0-.3-.14.72.72,0,0,0-.44.2,3.3,3.3,0,0,0-.47.5L88.46,18a3.34,3.34,0,0,1,.36-.48,2.74,2.74,0,0,1,.45-.39,2.2,2.2,0,0,1,.49-.28,1.43,1.43,0,0,1,.49-.1A.81.81,0,0,1,91,17a1.42,1.42,0,0,1,.23.84,2.86,2.86,0,0,1-.11.7,5.83,5.83,0,0,1-.32.83q-.21.43-.48.9c-.19.31-.4.61-.62.9a9.49,9.49,0,0,1-.73.82,5.57,5.57,0,0,1-.8.67,4.3,4.3,0,0,1-.84.45A2.44,2.44,0,0,1,86.44,23.32Z"/><text class="cls-3" transform="translate(91.12 26.33)">0</text><text class="cls-3" transform="translate(92.14 18.05)">2</text><text class="cls-4" transform="translate(98.92 23.21)">(</text><path d="M109.38,18.46a1.35,1.35,0,0,0-.38-.85,1.45,1.45,0,0,0-1-.27,1.51,1.51,0,0,0-.48.07,1,1,0,0,0-.38.19.81.81,0,0,0-.25.3.78.78,0,0,0-.09.37,1.18,1.18,0,0,0,0,.34.8.8,0,0,0,.18.3,1.71,1.71,0,0,0,.37.3c.16.11.37.23.62.37a5.46,5.46,0,0,1,.68.42,2.46,2.46,0,0,1,.43.42,1.08,1.08,0,0,1,.22.44,2.19,2.19,0,0,1,.07.53,1.73,1.73,0,0,1-.19.81,1.67,1.67,0,0,1-.51.61,2.36,2.36,0,0,1-.78.38,3.41,3.41,0,0,1-1,.14,8.92,8.92,0,0,1-1.16-.08,8.57,8.57,0,0,1-1.19-.26l.33-1.45h.55a1.21,1.21,0,0,0,.38.89,1.59,1.59,0,0,0,1,.29,1.67,1.67,0,0,0,1-.27.9.9,0,0,0,.36-.76,1.51,1.51,0,0,0,0-.39.76.76,0,0,0-.18-.31,2.31,2.31,0,0,0-.35-.3l-.59-.36a6.54,6.54,0,0,1-.64-.41,3.06,3.06,0,0,1-.45-.41,1.54,1.54,0,0,1-.26-.44,1.62,1.62,0,0,1-.08-.49,1.64,1.64,0,0,1,.17-.74,1.61,1.61,0,0,1,.48-.59,2.23,2.23,0,0,1,.75-.39,3.31,3.31,0,0,1,1-.14,7.94,7.94,0,0,1,1.14.08,7,7,0,0,1,1,.22l-.31,1.44Z"/><path d="M116.56,21.86a5.86,5.86,0,0,1-1.47,1.1,3.56,3.56,0,0,1-1.58.37,2.42,2.42,0,0,1-.88-.15,1.74,1.74,0,0,1-.65-.44,1.82,1.82,0,0,1-.4-.69,3,3,0,0,1-.14-.93,4,4,0,0,1,.07-.75,5.53,5.53,0,0,1,.19-.78,5.25,5.25,0,0,1,.33-.77,4.19,4.19,0,0,1,.47-.69,3.69,3.69,0,0,1,2.93-1.41,1.89,1.89,0,0,1,1.24.36,1.24,1.24,0,0,1,.42,1q0,2.3-4.36,2.3c0,.11,0,.23,0,.36s0,.27,0,.42a1.49,1.49,0,0,0,.29,1,1.13,1.13,0,0,0,.88.32,2.56,2.56,0,0,0,1.14-.27,4.22,4.22,0,0,0,.54-.36,5.43,5.43,0,0,0,.57-.53Zm-3.7-2.09a7,7,0,0,0,1.39-.12,3.48,3.48,0,0,0,1-.33,1.5,1.5,0,0,0,.55-.5,1.16,1.16,0,0,0,.18-.63.92.92,0,0,0-.2-.62.71.71,0,0,0-.57-.22,1.53,1.53,0,0,0-.69.17,2.64,2.64,0,0,0-.65.49,3.81,3.81,0,0,0-.55.76A5.36,5.36,0,0,0,112.86,19.77Z"/><path d="M121,18.41a5.31,5.31,0,0,1,1.21-1.27,2.16,2.16,0,0,1,1.25-.42,1.29,1.29,0,0,1,1,.36,1.43,1.43,0,0,1,.34,1,3.58,3.58,0,0,1-.06.55c0,.23-.09.49-.15.76s-.12.56-.19.85-.13.56-.19.8-.1.46-.14.63A2.12,2.12,0,0,0,124,22a.56.56,0,0,0,.09.35.35.35,0,0,0,.29.1.59.59,0,0,0,.23,0,1.28,1.28,0,0,0,.25-.14,2.6,2.6,0,0,0,.28-.24l.34-.36.44.42q-.32.32-.57.54a3.2,3.2,0,0,1-.51.38,2.05,2.05,0,0,1-.48.22,1.82,1.82,0,0,1-.52.08,1,1,0,0,1-.42-.09,1,1,0,0,1-.55-.62,1.34,1.34,0,0,1-.08-.46,3.57,3.57,0,0,1,.06-.6,6.68,6.68,0,0,1,.16-.74c.07-.28.15-.54.21-.8s.12-.48.17-.7.09-.4.12-.57a3.73,3.73,0,0,0,0-.41.9.9,0,0,0-.15-.58.57.57,0,0,0-.48-.19,1.11,1.11,0,0,0-.41.1,2.15,2.15,0,0,0-.44.28,2.78,2.78,0,0,0-.44.41,4.91,4.91,0,0,0-.39.51,4.4,4.4,0,0,0-.31.56,2.94,2.94,0,0,0-.2.59L120,23.21h-1.24l1-4.14a4.12,4.12,0,0,0,.12-.59,2.62,2.62,0,0,0,0-.43c0-.31-.12-.46-.37-.46a.67.67,0,0,0-.24,0,1.05,1.05,0,0,0-.24.15,1.93,1.93,0,0,0-.29.24l-.34.34L118,18c.21-.22.41-.4.58-.56A6,6,0,0,1,119,17a2.05,2.05,0,0,1,.48-.22,1.57,1.57,0,0,1,.49-.07.88.88,0,0,1,.73.31,1.25,1.25,0,0,1,.26.81,2.65,2.65,0,0,1,0,.27,1.12,1.12,0,0,1-.08.26Z"/><text class="cls-4" transform="translate(126.1 23.21)"> </text><path d="M137.32,16.85a1.55,1.55,0,0,1,0,.21,1.6,1.6,0,0,1-.05.21c-.36.47-.7.93-1,1.38s-.64.88-.94,1.32c0,.36-.09.68-.11,1s-.05.56-.05.81a1.69,1.69,0,0,0,0,.35.51.51,0,0,0,.08.22.26.26,0,0,0,.14.11.6.6,0,0,0,.2,0c.26,0,.6-.24,1-.73l.21.22.22.2c-.21.21-.4.4-.57.54a2.9,2.9,0,0,1-.49.36,1.78,1.78,0,0,1-.45.2,1.51,1.51,0,0,1-.48.07c-.66,0-1-.42-1-1.25a2.53,2.53,0,0,1,0-.28,2.45,2.45,0,0,1,0-.27l0,0h0c-.24.33-.47.61-.68.85a4,4,0,0,1-.65.56,2.34,2.34,0,0,1-.63.32,2.53,2.53,0,0,1-.67.1,1.44,1.44,0,0,1-.67-.15,1.33,1.33,0,0,1-.49-.42,2.05,2.05,0,0,1-.3-.65,3.12,3.12,0,0,1-.1-.84,5.69,5.69,0,0,1,.12-1.18,6.22,6.22,0,0,1,.36-1.08,5.06,5.06,0,0,1,.57-.92,3.93,3.93,0,0,1,.74-.73,3.34,3.34,0,0,1,.87-.47,2.87,2.87,0,0,1,1-.17,1.57,1.57,0,0,1,1.21.46,2.22,2.22,0,0,1,.49,1.42h.07c.14-.29.29-.58.44-.87s.3-.57.45-.87ZM134.19,20a5.77,5.77,0,0,0,.14-1.21,2,2,0,0,0-.23-1.08.8.8,0,0,0-.71-.34,1.47,1.47,0,0,0-.65.15,2.51,2.51,0,0,0-.57.43,3,3,0,0,0-.46.63,5.15,5.15,0,0,0-.36.79,6.09,6.09,0,0,0-.22.89,5.84,5.84,0,0,0-.08.93,2,2,0,0,0,.2,1,.68.68,0,0,0,.62.32,1.28,1.28,0,0,0,.61-.17,2.49,2.49,0,0,0,.61-.5,5.22,5.22,0,0,0,.58-.79A8.56,8.56,0,0,0,134.19,20Z"/><text class="cls-4" transform="translate(137.97 23.21)">)</text><text class="cls-3" transform="translate(143.38 18.47)">2</text><text class="cls-4" transform="translate(109.78 42.83)">2</text><text class="cls-4" transform="translate(117.35 42.83)">g</text><rect x="84.16" y="28.07" width="66" height="1.14"/><text class="cls-5" transform="translate(150.16 33.77)"> </text><text class="cls-5" transform="translate(155.15 33.77)">; </text><path d="M171.58,28.81c.21,1.23.38,2.12.51,2.66a2.75,2.75,0,0,0,.41,1,.42.42,0,0,0,.3.13.64.64,0,0,0,.41-.17,3.25,3.25,0,0,0,.48-.77l.8.37a4.09,4.09,0,0,1-1.15,1.39,2.6,2.6,0,0,1-1.52.45,2.29,2.29,0,0,1-.86-.13,1.31,1.31,0,0,1-.54-.46,3.11,3.11,0,0,1-.4-.89,12.72,12.72,0,0,1-.32-1.51h-.08c-.5.72-.9,1.26-1.2,1.64a6.87,6.87,0,0,1-.77.84,2.19,2.19,0,0,1-.61.4,2.3,2.3,0,0,1-1.18.06,1.84,1.84,0,0,1-.42-.1l.41-1.9h.79a.42.42,0,0,0,.1.27.27.27,0,0,0,.21.1.73.73,0,0,0,.3-.07,1.64,1.64,0,0,0,.37-.29,7.89,7.89,0,0,0,.62-.68c.24-.29.66-.81,1.24-1.56-.12-.69-.24-1.29-.34-1.79a7.89,7.89,0,0,0-.3-1.09,1.45,1.45,0,0,0-.25-.45.4.4,0,0,0-.27-.11.51.51,0,0,0-.3.09,1.18,1.18,0,0,0-.28.3,3.71,3.71,0,0,0-.31.55l-.8-.37a4.09,4.09,0,0,1,1.14-1.39,2.48,2.48,0,0,1,1.46-.46,2.2,2.2,0,0,1,1.07.21,1.54,1.54,0,0,1,.61.74,7.55,7.55,0,0,1,.45,1.67h.08c.44-.61.77-1.07,1-1.37a5.73,5.73,0,0,1,.67-.74,1.91,1.91,0,0,1,.6-.39,1.78,1.78,0,0,1,.69-.12,2.78,2.78,0,0,1,.88.16l-.41,1.9h-.79c0-.25-.14-.37-.33-.37a.69.69,0,0,0-.26.06,1.6,1.6,0,0,0-.36.28,6.65,6.65,0,0,0-.55.62Z"/><path d="M185.84,35.43l-.09.41c0,.1,0,.21,0,.33a.53.53,0,0,0,.08.35.29.29,0,0,0,.23.09.76.76,0,0,0,.42-.17,5.16,5.16,0,0,0,.54-.53l.46.45a5,5,0,0,1-1.12.91,2.33,2.33,0,0,1-1.08.26,1.3,1.3,0,0,1-1-.32,1.39,1.39,0,0,1-.32-1,3.62,3.62,0,0,1,.05-.51,5,5,0,0,1,.13-.63l.29-1.11c.07-.25.13-.51.18-.79a4,4,0,0,0,.08-.64c0-.39-.15-.59-.46-.59a1.17,1.17,0,0,0-.67.35,3.6,3.6,0,0,0-.65.77,3.35,3.35,0,0,0-.39,1.1l-.7,3.26H180l.92-4c.05-.2.08-.36.1-.48a2.06,2.06,0,0,0,0-.33.77.77,0,0,0-.11-.48.43.43,0,0,0-.36-.15,1.1,1.1,0,0,0-.69.36,3.44,3.44,0,0,0-.64.77,3.33,3.33,0,0,0-.4,1.09l-.71,3.26h-1.82l1-4.42a3.29,3.29,0,0,0,.1-.63.69.69,0,0,0-.07-.32.26.26,0,0,0-.24-.11.74.74,0,0,0-.43.17,4.37,4.37,0,0,0-.53.53l-.46-.46a5,5,0,0,1,1.13-.91,2.2,2.2,0,0,1,1-.26,1.17,1.17,0,0,1,.84.3,1,1,0,0,1,.31.78,1,1,0,0,1,0,.3l.08,0a4.77,4.77,0,0,1,1.12-1.07,2.34,2.34,0,0,1,1.26-.35,1.42,1.42,0,0,1,1,.35,1.36,1.36,0,0,1,.38,1,3.88,3.88,0,0,1,1.07-1,2.24,2.24,0,0,1,1.21-.33,1.34,1.34,0,0,1,1,.37,1.36,1.36,0,0,1,.37,1,2.85,2.85,0,0,1,0,.46,4,4,0,0,1-.09.52Zm8.06,0a3.36,3.36,0,0,0-.09.72.62.62,0,0,0,.07.33.25.25,0,0,0,.24.11.69.69,0,0,0,.42-.18,3.58,3.58,0,0,0,.54-.52l.46.45a4.72,4.72,0,0,1-1.16.92,2.13,2.13,0,0,1-1,.25,1.17,1.17,0,0,1-.85-.29,1,1,0,0,1-.31-.78,1.06,1.06,0,0,1,0-.31h-.09a6.31,6.31,0,0,1-.8.82,2.5,2.5,0,0,1-.71.43,2.19,2.19,0,0,1-.83.14,1.39,1.39,0,0,1-1.16-.51,2.49,2.49,0,0,1-.39-1.51,5.9,5.9,0,0,1,.25-1.71,4.42,4.42,0,0,1,.71-1.46,3.22,3.22,0,0,1,1.17-1A3.39,3.39,0,0,1,192,31a2.8,2.8,0,0,1,1.61.46l.62-.46.71.11Zm-1.26-2a4.36,4.36,0,0,0,.1-.94,1.14,1.14,0,0,0-.15-.64.62.62,0,0,0-.53-.21,1.28,1.28,0,0,0-1,.59,4.49,4.49,0,0,0-.74,1.6,6.65,6.65,0,0,0-.28,1.8,1.38,1.38,0,0,0,.13.69.49.49,0,0,0,.43.23,1.28,1.28,0,0,0,.85-.41,3.37,3.37,0,0,0,.71-1,7.7,7.7,0,0,0,.47-1.52Z"/><path d="M200.33,33.84c.15.89.27,1.54.37,1.92a2,2,0,0,0,.3.76.27.27,0,0,0,.21.09.44.44,0,0,0,.3-.12,2,2,0,0,0,.35-.56l.58.27a3,3,0,0,1-.84,1,1.83,1.83,0,0,1-1.09.33,1.73,1.73,0,0,1-.62-.09,1,1,0,0,1-.4-.33,2.1,2.1,0,0,1-.28-.65,8.46,8.46,0,0,1-.24-1.09h-.06c-.36.52-.65.91-.86,1.18a5.46,5.46,0,0,1-.56.62,1.5,1.5,0,0,1-.45.28,1.3,1.3,0,0,1-.51.08l-.34,0a2.28,2.28,0,0,1-.3-.07l.3-1.38h.57a.36.36,0,0,0,.07.2.2.2,0,0,0,.15.06.54.54,0,0,0,.22,0,2.38,2.38,0,0,0,.27-.22,6,6,0,0,0,.44-.48l.91-1.13c-.09-.5-.18-.93-.26-1.3a5,5,0,0,0-.21-.78.8.8,0,0,0-.18-.33A.25.25,0,0,0,198,32a.44.44,0,0,0-.23.06,1.11,1.11,0,0,0-.2.22,2.75,2.75,0,0,0-.22.4l-.58-.27a2.87,2.87,0,0,1,.83-1,1.77,1.77,0,0,1,1-.33,1.51,1.51,0,0,1,.78.16,1.12,1.12,0,0,1,.43.53,5.06,5.06,0,0,1,.33,1.21h.06l.73-1a4.42,4.42,0,0,1,.49-.53,1.43,1.43,0,0,1,.43-.28,1.24,1.24,0,0,1,.5-.09,1.85,1.85,0,0,1,.64.12l-.3,1.37h-.57q0-.27-.24-.27a.49.49,0,0,0-.19,0,1.39,1.39,0,0,0-.26.2,4.09,4.09,0,0,0-.4.45Z"/><text class="cls-2" transform="translate(208.9 33.77)">=</text><text class="cls-2" transform="translate(227.39 33.77)"> </text><path d="M236.62,23.32a.74.74,0,0,1-.38-.09A.67.67,0,0,1,236,23a1.45,1.45,0,0,1-.11-.4,3.84,3.84,0,0,1,0-.5,7.28,7.28,0,0,1,0-.78c0-.27.07-.55.12-.83q.33-2,.33-2.37a.51.51,0,0,0,0-.32.22.22,0,0,0-.19-.09.6.6,0,0,0-.27.07l-.29.18-.28.23-.26.23-.35-.42q.21-.22.45-.45a3.9,3.9,0,0,1,.51-.4,2.29,2.29,0,0,1,.56-.29,1.71,1.71,0,0,1,.59-.11.82.82,0,0,1,.44.11.9.9,0,0,1,.27.28,1.28,1.28,0,0,1,.13.39,2.83,2.83,0,0,1,0,.41,2,2,0,0,1,0,.32l-.4,2.31c0,.22-.07.43-.1.64s0,.4,0,.56a2.06,2.06,0,0,0,0,.4q0,.15.06.15a1.16,1.16,0,0,0,.52-.16,3.93,3.93,0,0,0,.67-.45,6.24,6.24,0,0,0,.71-.67,6.57,6.57,0,0,0,.63-.84,4.9,4.9,0,0,0,.46-1,3.24,3.24,0,0,0,.17-1,.69.69,0,0,0-.11-.43.39.39,0,0,0-.3-.14.72.72,0,0,0-.44.2,3.3,3.3,0,0,0-.47.5l-.38-.37a3.34,3.34,0,0,1,.36-.48,2.74,2.74,0,0,1,.45-.39,2.2,2.2,0,0,1,.49-.28,1.43,1.43,0,0,1,.49-.1.81.81,0,0,1,.72.32,1.42,1.42,0,0,1,.23.84,2.5,2.5,0,0,1-.12.7,4.75,4.75,0,0,1-.31.83q-.21.43-.48.9c-.19.31-.4.61-.62.9a9.49,9.49,0,0,1-.73.82,5.57,5.57,0,0,1-.8.67,4.3,4.3,0,0,1-.84.45A2.44,2.44,0,0,1,236.62,23.32Z"/><text class="cls-3" transform="translate(241.3 26.33)">0</text><text class="cls-3" transform="translate(242.32 18.05)">2</text><text class="cls-4" transform="translate(249.11 23.21)"> </text><path d="M257,18.46a1.3,1.3,0,0,0-.38-.85,1.4,1.4,0,0,0-.95-.27,1.53,1.53,0,0,0-.49.07,1.13,1.13,0,0,0-.38.19.81.81,0,0,0-.25.3.78.78,0,0,0-.09.37,1.16,1.16,0,0,0,0,.34.92.92,0,0,0,.17.3,1.71,1.71,0,0,0,.37.3,7.11,7.11,0,0,0,.63.37,5.28,5.28,0,0,1,.67.42,2.15,2.15,0,0,1,.43.42,1.24,1.24,0,0,1,.23.44,2.2,2.2,0,0,1,.06.53,1.73,1.73,0,0,1-.18.81,1.8,1.8,0,0,1-.52.61,2.36,2.36,0,0,1-.78.38,3.36,3.36,0,0,1-1,.14,8.77,8.77,0,0,1-1.15-.08,8.39,8.39,0,0,1-1.2-.26l.33-1.45h.56a1.2,1.2,0,0,0,.37.89,2,2,0,0,0,2,0,.89.89,0,0,0,.37-.76,1.48,1.48,0,0,0-.05-.39.74.74,0,0,0-.17-.31,3.15,3.15,0,0,0-.36-.3l-.58-.36a5.73,5.73,0,0,1-.65-.41,3.06,3.06,0,0,1-.45-.41,1.5,1.5,0,0,1-.25-.44,1.37,1.37,0,0,1-.09-.49,1.64,1.64,0,0,1,.17-.74,1.84,1.84,0,0,1,.48-.59,2.23,2.23,0,0,1,.75-.39,3.38,3.38,0,0,1,1-.14,7.8,7.8,0,0,1,1.13.08,6.72,6.72,0,0,1,1,.22l-.3,1.44Z"/><path d="M264.15,21.86a5.86,5.86,0,0,1-1.47,1.1,3.56,3.56,0,0,1-1.58.37,2.39,2.39,0,0,1-.88-.15,1.74,1.74,0,0,1-.65-.44,1.82,1.82,0,0,1-.4-.69,3,3,0,0,1-.14-.93,4,4,0,0,1,.07-.75,4.43,4.43,0,0,1,.19-.78,5.25,5.25,0,0,1,.33-.77,4.19,4.19,0,0,1,.47-.69A3.69,3.69,0,0,1,263,16.72a1.89,1.89,0,0,1,1.24.36,1.24,1.24,0,0,1,.42,1q0,2.3-4.36,2.3c0,.11,0,.23-.05.36s0,.27,0,.42a1.49,1.49,0,0,0,.29,1,1.11,1.11,0,0,0,.88.32,2.32,2.32,0,0,0,.59-.07,2.44,2.44,0,0,0,.55-.2,4.22,4.22,0,0,0,.54-.36,6.65,6.65,0,0,0,.57-.53Zm-3.7-2.09a7,7,0,0,0,1.39-.12,3.48,3.48,0,0,0,1-.33,1.5,1.5,0,0,0,.55-.5,1.15,1.15,0,0,0,.17-.63.92.92,0,0,0-.19-.62.71.71,0,0,0-.57-.22,1.53,1.53,0,0,0-.69.17,2.47,2.47,0,0,0-.65.49,3.81,3.81,0,0,0-.55.76A5.36,5.36,0,0,0,260.45,19.77Z"/><path d="M268.59,18.41a5.33,5.33,0,0,1,1.22-1.27,2.13,2.13,0,0,1,1.24-.42,1.32,1.32,0,0,1,1,.36,1.47,1.47,0,0,1,.33,1,3.58,3.58,0,0,1-.06.55c0,.23-.08.49-.14.76s-.13.56-.19.85-.14.56-.19.8l-.15.63a2.12,2.12,0,0,0-.06.33.56.56,0,0,0,.09.35.37.37,0,0,0,.29.1.67.67,0,0,0,.24,0,1.23,1.23,0,0,0,.24-.14,1.9,1.9,0,0,0,.28-.24c.1-.1.22-.22.34-.36l.44.42q-.31.32-.57.54a2.81,2.81,0,0,1-.51.38,2.05,2.05,0,0,1-.48.22,1.72,1.72,0,0,1-.52.08,1,1,0,0,1-.42-.09,1.1,1.1,0,0,1-.55-.62,1.34,1.34,0,0,1-.08-.46,3.57,3.57,0,0,1,.06-.6,6.68,6.68,0,0,1,.16-.74c.08-.28.15-.54.21-.8s.13-.48.17-.7.09-.4.12-.57a2.25,2.25,0,0,0,0-.41.9.9,0,0,0-.15-.58.57.57,0,0,0-.48-.19,1.11,1.11,0,0,0-.41.1,2.46,2.46,0,0,0-.44.28,3.3,3.3,0,0,0-.44.41,4.91,4.91,0,0,0-.39.51,4.4,4.4,0,0,0-.31.56,2.94,2.94,0,0,0-.2.59l-.71,3.19h-1.25l.95-4.14a4.12,4.12,0,0,0,.12-.59,2.62,2.62,0,0,0,0-.43c0-.31-.12-.46-.37-.46a.59.59,0,0,0-.23,0,1.1,1.1,0,0,0-.25.15,2.6,2.6,0,0,0-.29.24l-.34.34-.44-.41c.21-.22.41-.4.58-.56a4.78,4.78,0,0,1,.51-.38,2,2,0,0,1,.47-.22,1.63,1.63,0,0,1,.5-.07.87.87,0,0,1,.72.31,1.2,1.2,0,0,1,.26.81,2.65,2.65,0,0,1,0,.27,1.12,1.12,0,0,1-.08.26Z"/><text class="cls-4" transform="translate(273.76 23.21)"> </text><text class="cls-4" transform="translate(276.59 23.21)">2</text><path d="M292.5,16.85a1.55,1.55,0,0,1,0,.21,1.6,1.6,0,0,1,0,.21c-.36.47-.7.93-1,1.38s-.64.88-.94,1.32c-.05.36-.09.68-.12,1s0,.56,0,.81a1.69,1.69,0,0,0,0,.35.51.51,0,0,0,.08.22.26.26,0,0,0,.14.11.6.6,0,0,0,.2,0c.26,0,.6-.24,1-.73L292,22l.22.2c-.21.21-.4.4-.57.54a2.9,2.9,0,0,1-.49.36,1.78,1.78,0,0,1-.45.2,1.51,1.51,0,0,1-.48.07c-.66,0-1-.42-1-1.25V21.8l0-.27-.05,0h0a9.68,9.68,0,0,1-.69.85,3.56,3.56,0,0,1-.64.56,2.34,2.34,0,0,1-.63.32,2.53,2.53,0,0,1-.67.1,1.44,1.44,0,0,1-.67-.15,1.33,1.33,0,0,1-.49-.42,2.05,2.05,0,0,1-.3-.65,3.12,3.12,0,0,1-.1-.84,5.69,5.69,0,0,1,.12-1.18,5.48,5.48,0,0,1,.36-1.08,5.06,5.06,0,0,1,.57-.92,4.2,4.2,0,0,1,.73-.73,3.56,3.56,0,0,1,.88-.47,2.87,2.87,0,0,1,1-.17,1.57,1.57,0,0,1,1.21.46,2.22,2.22,0,0,1,.49,1.42h.07c.14-.29.29-.58.44-.87s.3-.57.45-.87ZM289.37,20a5.77,5.77,0,0,0,.14-1.21,2,2,0,0,0-.23-1.08.8.8,0,0,0-.71-.34,1.47,1.47,0,0,0-.65.15,2.51,2.51,0,0,0-.57.43,3,3,0,0,0-.46.63,5.15,5.15,0,0,0-.36.79,5,5,0,0,0-.22.89,5.84,5.84,0,0,0-.08.93,2,2,0,0,0,.2,1,.68.68,0,0,0,.62.32,1.28,1.28,0,0,0,.61-.17,2.49,2.49,0,0,0,.61-.5,5.22,5.22,0,0,0,.58-.79A8.56,8.56,0,0,0,289.37,20Z"/><text class="cls-4" transform="translate(260.09 42.83)">g</text><rect x="234.34" y="28.07" width="58.8" height="1.14"/><text class="cls-5" transform="translate(293.14 33.77)"> </text><text class="cls-5" transform="translate(298.13 33.77)">; </text><path d="M314.79,32.17a6,6,0,0,1-1.63,1.36,3.7,3.7,0,0,1-1.75.38,2.15,2.15,0,0,1-1.54-.51,1.87,1.87,0,0,1-.54-1.42,4.94,4.94,0,0,1,.07-.79c0-.25.12-.65.25-1.22l.91-3.82h-1.37l.16-.71a3.09,3.09,0,0,0,.93-.11,1.4,1.4,0,0,0,.54-.35,2.36,2.36,0,0,0,.41-.69,11,11,0,0,0,.48-1.43h2.11l-.51,2.19h2.13l-.23,1.1h-2.16l-.85,3.52c-.15.6-.25,1.06-.3,1.37a4.43,4.43,0,0,0-.09.8,1,1,0,0,0,.15.6.52.52,0,0,0,.44.19,1.45,1.45,0,0,0,.82-.28,5.07,5.07,0,0,0,.9-.87Z"/><path d="M323.63,28.75l-.5,2.31h-.81a4.85,4.85,0,0,0-.09-1,.85.85,0,0,0-.24-.43.73.73,0,0,0-.47-.14H321l-1.37,6.22a3.22,3.22,0,0,0-.06.35,3.84,3.84,0,0,0,0,.39.5.5,0,0,0,.15.41.82.82,0,0,0,.47.14l-.09.42h-3.38l.09-.42a.78.78,0,0,0,.72-.54,4.29,4.29,0,0,0,.23-.75l1.37-6.22h-.51a1.29,1.29,0,0,0-.57.1,1.67,1.67,0,0,0-.48.44,4.35,4.35,0,0,0-.52.88h-.83l.48-2.17Z"/><text class="cls-2" transform="translate(329.5 33.77)">=</text><text class="cls-2" transform="translate(347.99 33.77)"> </text><text class="cls-4" transform="translate(354.94 23.21)">2</text><path d="M364.79,23.32a.78.78,0,0,1-.39-.09.58.58,0,0,1-.23-.26,1.45,1.45,0,0,1-.12-.4,3.84,3.84,0,0,1,0-.5,7.43,7.43,0,0,1,.05-.78c0-.27.06-.55.11-.83.23-1.36.34-2.15.34-2.37a.44.44,0,0,0-.06-.32.2.2,0,0,0-.18-.09.54.54,0,0,0-.27.07,1.75,1.75,0,0,0-.29.18l-.29.23-.25.23-.35-.42.45-.45a3.25,3.25,0,0,1,.5-.4,2.71,2.71,0,0,1,.56-.29,1.76,1.76,0,0,1,.59-.11.82.82,0,0,1,.44.11.8.8,0,0,1,.27.28,1.06,1.06,0,0,1,.13.39,1.9,1.9,0,0,1,0,.41,2.23,2.23,0,0,1,0,.32l-.4,2.31c0,.22-.07.43-.09.64a4.07,4.07,0,0,0,0,.56,2.17,2.17,0,0,0,0,.4q0,.15.06.15a1.23,1.23,0,0,0,.53-.16,4.36,4.36,0,0,0,.67-.45,6.19,6.19,0,0,0,.7-.67,5.82,5.82,0,0,0,.64-.84,5.5,5.5,0,0,0,.45-1,3,3,0,0,0,.17-1,.63.63,0,0,0-.11-.43.36.36,0,0,0-.3-.14.7.7,0,0,0-.43.2,3.89,3.89,0,0,0-.48.5l-.37-.37a2.74,2.74,0,0,1,.36-.48,3.16,3.16,0,0,1,.44-.39,2.2,2.2,0,0,1,.49-.28,1.48,1.48,0,0,1,.49-.1.83.83,0,0,1,.73.32,1.42,1.42,0,0,1,.22.84,2.86,2.86,0,0,1-.11.7,4.84,4.84,0,0,1-.32.83,8,8,0,0,1-.48.9,7.59,7.59,0,0,1-.62.9,9.38,9.38,0,0,1-.72.82,6.93,6.93,0,0,1-.8.67,4.1,4.1,0,0,1-.85.45A2.38,2.38,0,0,1,364.79,23.32Z"/><text class="cls-3" transform="translate(369.47 25.85)">0</text><text class="cls-4" transform="translate(376.24 23.21)"> </text><path d="M384.17,18.46a1.3,1.3,0,0,0-.38-.85,1.4,1.4,0,0,0-1-.27,1.53,1.53,0,0,0-.49.07,1.13,1.13,0,0,0-.38.19.81.81,0,0,0-.25.3.78.78,0,0,0-.09.37,1.16,1.16,0,0,0,.05.34.92.92,0,0,0,.17.3,1.71,1.71,0,0,0,.37.3,7.11,7.11,0,0,0,.63.37,5.28,5.28,0,0,1,.67.42,2.15,2.15,0,0,1,.43.42,1.24,1.24,0,0,1,.23.44,2.2,2.2,0,0,1,.06.53,1.73,1.73,0,0,1-.18.81,1.8,1.8,0,0,1-.52.61,2.36,2.36,0,0,1-.78.38,3.36,3.36,0,0,1-1,.14,8.77,8.77,0,0,1-1.15-.08,8.39,8.39,0,0,1-1.2-.26l.33-1.45h.56a1.2,1.2,0,0,0,.37.89,2,2,0,0,0,2.05,0,.89.89,0,0,0,.37-.76,1.48,1.48,0,0,0-.05-.39.74.74,0,0,0-.17-.31,3.15,3.15,0,0,0-.36-.3l-.58-.36a5.73,5.73,0,0,1-.65-.41,3.06,3.06,0,0,1-.45-.41,1.5,1.5,0,0,1-.25-.44,1.37,1.37,0,0,1-.09-.49,1.64,1.64,0,0,1,.17-.74,1.84,1.84,0,0,1,.48-.59,2.23,2.23,0,0,1,.75-.39,3.38,3.38,0,0,1,1-.14,7.8,7.8,0,0,1,1.13.08,6.72,6.72,0,0,1,1,.22l-.3,1.44Z"/><path d="M391.36,21.86a6.08,6.08,0,0,1-1.48,1.1,3.53,3.53,0,0,1-1.58.37,2.42,2.42,0,0,1-.88-.15,1.83,1.83,0,0,1-.65-.44,2.12,2.12,0,0,1-.4-.69,3,3,0,0,1-.13-.93,4.93,4.93,0,0,1,.06-.75,4.47,4.47,0,0,1,.2-.78,5.25,5.25,0,0,1,.33-.77,4.14,4.14,0,0,1,.46-.69,3.93,3.93,0,0,1,1.29-1,3.76,3.76,0,0,1,1.64-.37,1.85,1.85,0,0,1,1.24.36,1.24,1.24,0,0,1,.42,1q0,2.3-4.35,2.3a3.48,3.48,0,0,0,0,.36,2.82,2.82,0,0,0,0,.42,1.49,1.49,0,0,0,.28,1,1.13,1.13,0,0,0,.88.32,2.22,2.22,0,0,0,.59-.07,2.27,2.27,0,0,0,.55-.2,5.14,5.14,0,0,0,.55-.36,6.65,6.65,0,0,0,.57-.53Zm-3.7-2.09a6.88,6.88,0,0,0,1.38-.12,3.69,3.69,0,0,0,1-.33,1.39,1.39,0,0,0,.54-.5,1.16,1.16,0,0,0,.18-.63.92.92,0,0,0-.2-.62.71.71,0,0,0-.57-.22,1.59,1.59,0,0,0-.69.17,2.43,2.43,0,0,0-.64.49,3.46,3.46,0,0,0-.55.76A4.76,4.76,0,0,0,387.66,19.77Z"/><path d="M395.73,18.41A5.33,5.33,0,0,1,397,17.14a2.13,2.13,0,0,1,1.24-.42,1.32,1.32,0,0,1,1,.36,1.47,1.47,0,0,1,.33,1,3.58,3.58,0,0,1-.06.55c0,.23-.08.49-.14.76s-.13.56-.19.85-.14.56-.19.8l-.15.63a2.12,2.12,0,0,0-.06.33.56.56,0,0,0,.09.35.37.37,0,0,0,.29.1.67.67,0,0,0,.24,0,1.23,1.23,0,0,0,.24-.14,1.9,1.9,0,0,0,.28-.24c.1-.1.22-.22.34-.36l.44.42q-.32.32-.57.54a2.81,2.81,0,0,1-.51.38,2.05,2.05,0,0,1-.48.22,1.72,1.72,0,0,1-.52.08,1,1,0,0,1-.42-.09,1.1,1.1,0,0,1-.55-.62,1.34,1.34,0,0,1-.08-.46,3.57,3.57,0,0,1,.06-.6,6.68,6.68,0,0,1,.16-.74c.08-.28.15-.54.21-.8s.13-.48.18-.7.08-.4.11-.57a2.25,2.25,0,0,0,0-.41.9.9,0,0,0-.15-.58.57.57,0,0,0-.48-.19,1.11,1.11,0,0,0-.41.1,2.46,2.46,0,0,0-.44.28,3.3,3.3,0,0,0-.44.41,4.91,4.91,0,0,0-.39.51,4.4,4.4,0,0,0-.31.56,2.94,2.94,0,0,0-.2.59l-.71,3.19h-1.25l.95-4.14a4.12,4.12,0,0,0,.12-.59,2.62,2.62,0,0,0,0-.43c0-.31-.12-.46-.37-.46a.59.59,0,0,0-.23,0,1.1,1.1,0,0,0-.25.15,2.6,2.6,0,0,0-.29.24l-.34.34L392.7,18c.21-.22.41-.4.58-.56a4.78,4.78,0,0,1,.51-.38,2,2,0,0,1,.47-.22,1.63,1.63,0,0,1,.5-.07.87.87,0,0,1,.72.31,1.2,1.2,0,0,1,.26.81,2.65,2.65,0,0,1,0,.27,1.12,1.12,0,0,1-.08.26Z"/><text class="cls-4" transform="translate(400.9 23.21)"> </text><path d="M412.08,16.85a1.55,1.55,0,0,0,0,.21,1.6,1.6,0,0,1-.05.21c-.36.47-.71.93-1,1.38s-.65.88-.94,1.32c0,.36-.09.68-.12,1a8,8,0,0,0,0,.81,3.16,3.16,0,0,0,0,.35.68.68,0,0,0,.08.22.36.36,0,0,0,.14.11.64.64,0,0,0,.2,0c.27,0,.61-.24,1-.73l.22.22.22.2c-.22.21-.41.4-.58.54a3.33,3.33,0,0,1-.48.36,2,2,0,0,1-.46.2,1.45,1.45,0,0,1-.47.07c-.66,0-1-.42-1-1.25a2.53,2.53,0,0,1,0-.28c0-.09,0-.18,0-.27l0,0h0a9.68,9.68,0,0,1-.69.85,3.94,3.94,0,0,1-.64.56,2.26,2.26,0,0,1-.64.32,2.47,2.47,0,0,1-.67.1,1.47,1.47,0,0,1-.67-.15,1.51,1.51,0,0,1-.49-.42,1.84,1.84,0,0,1-.29-.65,3.11,3.11,0,0,1-.11-.84,5.69,5.69,0,0,1,.13-1.18A4.9,4.9,0,0,1,405,19a4.52,4.52,0,0,1,.56-.92,4.26,4.26,0,0,1,.74-.73,3.34,3.34,0,0,1,.87-.47,3,3,0,0,1,1-.17,1.58,1.58,0,0,1,1.22.46,2.17,2.17,0,0,1,.48,1.42h.07l.45-.87c.15-.28.3-.57.44-.87ZM409,20a5.73,5.73,0,0,0,.13-1.21,2,2,0,0,0-.22-1.08.81.81,0,0,0-.71-.34,1.44,1.44,0,0,0-.65.15,2.14,2.14,0,0,0-.57.43,3,3,0,0,0-.47.63,5.12,5.12,0,0,0-.35.79,5,5,0,0,0-.22.89,4.87,4.87,0,0,0-.08.93,2,2,0,0,0,.19,1,.69.69,0,0,0,.63.32,1.31,1.31,0,0,0,.61-.17,2.65,2.65,0,0,0,.6-.5,4.62,4.62,0,0,0,.58-.79A8.55,8.55,0,0,0,409,20Z"/><text class="cls-4" transform="translate(380.22 42.83)">g</text><rect x="354.94" y="28.07" width="57.78" height="1.14"/><text class="cls-5" transform="translate(412.78 33.77)"> </text><text class="cls-5" transform="translate(417.77 33.77)">;</text><text class="cls-6" transform="translate(422.8 33.77)"> </text><text class="cls-7" transform="translate(14.62 65.69)"> </text></svg>