<svg id="Capa_1" data-name="Capa 1" xmlns="http://www.w3.org/2000/svg" viewBox="0 0 365.24 90.9"><defs><style>.cls-1{font-size:9px;font-family:Consolas;}.cls-1,.cls-7{fill:#e52421;}.cls-2{font-size:18.48px;}.cls-2,.cls-3{font-family:CambriaMath, Cambria Math;}.cls-3,.cls-7{font-size:25.98px;}.cls-4{letter-spacing:0em;}.cls-5{letter-spacing:0em;}.cls-6{letter-spacing:0em;}.cls-7{font-family:ArialMT, Arial;}.cls-8{fill:none;stroke:#000;stroke-miterlimit:10;stroke-width:2px;}</style></defs><title>formula_nave2</title><text class="cls-1" transform="translate(-3.05 0.94)"> </text><path d="M38.89,14.46l-.14.63a1.56,1.56,0,0,0-.87.33,1.4,1.4,0,0,0-.44.74,5.26,5.26,0,0,0-.13,1.27c0,.13,0,.51,0,1.14l.36,9.29v1h.12l5.5-9.9a13,13,0,0,0,.72-1.51,3.09,3.09,0,0,0,.24-1.11c0-.71-.42-1.13-1.27-1.26l.14-.63h5.19l-.14.63a1.51,1.51,0,0,0-.65.26,3.18,3.18,0,0,0-.7.69,18.67,18.67,0,0,0-1.2,1.89L37.54,32H35.86L35,17.84a9.81,9.81,0,0,0-.19-1.42,2.13,2.13,0,0,0-.42-.92,1.36,1.36,0,0,0-.9-.41l.14-.63Z"/><path d="M42.61,61a3.67,3.67,0,0,1,1,1.09,5.7,5.7,0,0,1,.6,1.76l.29,1.48a10.79,10.79,0,0,0,.32,1.25,3.21,3.21,0,0,0,.42.89,1.6,1.6,0,0,0,.56.49,3.21,3.21,0,0,0,.91.27l-.13.62H43.06a20.77,20.77,0,0,1-.73-2.69l-.55-2.69a7.26,7.26,0,0,0-.34-1.17,2.19,2.19,0,0,0-.47-.74,1.39,1.39,0,0,0-.63-.34,4.41,4.41,0,0,0-.88-.08H38l-.89,4c-.07.33-.13.59-.16.79s-.05.4-.07.61,0,.41,0,.58a1.33,1.33,0,0,0,.13.62.8.8,0,0,0,.38.32,3.15,3.15,0,0,0,.88.15l-.14.62H32.88l.14-.62a1.63,1.63,0,0,0,.73-.25,1.33,1.33,0,0,0,.4-.47,4.86,4.86,0,0,0,.31-.74c.09-.3.23-.86.42-1.7L37,55.3a9.58,9.58,0,0,0,.28-2,1.08,1.08,0,0,0-.29-.86,1.6,1.6,0,0,0-1-.28l.14-.62h5.64a12,12,0,0,1,2.2.16,5,5,0,0,1,1.45.47,3.25,3.25,0,0,1,1,.82,3.53,3.53,0,0,1,.61,1.13,4.48,4.48,0,0,1,.2,1.34,4.9,4.9,0,0,1-1.19,3.32,7.43,7.43,0,0,1-3.52,2.08Zm-2.86-1a7,7,0,0,0,2.9-.5,3.72,3.72,0,0,0,1.69-1.62A5,5,0,0,0,45,55.49a4.13,4.13,0,0,0-.1-1,2.69,2.69,0,0,0-.27-.7,1.79,1.79,0,0,0-.42-.49,2.24,2.24,0,0,0-.63-.38,4,4,0,0,0-.88-.23,11.83,11.83,0,0,0-1.37-.07c-.44,0-.92,0-1.42.05l-1.62,7.35Z"/><rect x="32.17" y="43.18" width="17.34" height="1.68"/><text class="cls-2" transform="translate(49.51 20.26)">2</text><text class="cls-3" transform="translate(68.47 51.46)">=</text><text class="cls-3" transform="translate(95.1 51.46)">3</text><path d="M112.6,52.55a4,4,0,0,0-.4.58,2.06,2.06,0,0,0-.31,1.18,1.52,1.52,0,0,0,.69,1.39,3.87,3.87,0,0,0,2.06.44,4.1,4.1,0,0,0,2.51-.7,5.47,5.47,0,0,0,1.62-2.27,25.74,25.74,0,0,0,1.3-4.72l-.17,0a11.48,11.48,0,0,1-2.29,2.47,3.79,3.79,0,0,1-2.27.77,2.53,2.53,0,0,1-2.15-1,4.93,4.93,0,0,1-.77-3,10.69,10.69,0,0,1,.85-4.17,7.85,7.85,0,0,1,2.36-3.17A5.32,5.32,0,0,1,119,39.12a5.63,5.63,0,0,1,1.51.19,5.06,5.06,0,0,1,1.44.64l1.17-.83.81.2-1.31,5.91c-.09.42-.3,1.46-.63,3.13s-.63,3-.85,3.77a10.15,10.15,0,0,1-.8,2,5.5,5.5,0,0,1-1.25,1.58,5.17,5.17,0,0,1-1.84,1,7.92,7.92,0,0,1-2.57.37q-4.8,0-4.8-2.79a2.1,2.1,0,0,1,.44-1.29,5.6,5.6,0,0,1,1.38-1.24Zm3.64-2.4a2.3,2.3,0,0,0,1.29-.44,6.6,6.6,0,0,0,1.37-1.41,9,9,0,0,0,1.83-4A10.83,10.83,0,0,0,121,42a2.06,2.06,0,0,0-.42-1.44,1.83,1.83,0,0,0-1.39-.45,3.17,3.17,0,0,0-2.32,1.05A7,7,0,0,0,115.26,44a11.23,11.23,0,0,0-.59,3.54,4.06,4.06,0,0,0,.38,2A1.26,1.26,0,0,0,116.24,50.15Z"/><text class="cls-3" transform="translate(125.39 51.46)"><tspan class="cls-4" xml:space="preserve">  </tspan><tspan class="cls-5" x="11.39" y="0"> </tspan><tspan class="cls-4" x="17.14" y="0"> </tspan><tspan class="cls-5" x="22.83" y="0"> </tspan><tspan class="cls-4" x="28.58" y="0" xml:space="preserve">  </tspan><tspan class="cls-6" x="39.97" y="0"> </tspan><tspan class="cls-4" x="45.72" y="0"> </tspan><tspan class="cls-5" x="51.41" y="0"> </tspan><tspan class="cls-4" x="57.16" y="0"> </tspan><tspan class="cls-5" x="62.85" y="0"> </tspan><tspan class="cls-4" x="68.6" y="0" xml:space="preserve">  </tspan><tspan class="cls-5" x="79.99" y="0"> </tspan><tspan class="cls-4" x="85.74" y="0"> </tspan><tspan x="91.43" y="0"> </tspan></text><path d="M229.31,34.14l-.14.63a1.64,1.64,0,0,0-.87.32,1.47,1.47,0,0,0-.44.75,5.34,5.34,0,0,0-.12,1.27c0,.13,0,.51,0,1.14l.35,9.29v1h.13l5.49-9.9a13,13,0,0,0,.72-1.51,3.09,3.09,0,0,0,.24-1.11q0-1.06-1.26-1.26l.14-.63h5.18l-.14.63A1.56,1.56,0,0,0,238,35a3.18,3.18,0,0,0-.7.69q-.37.49-1.2,1.89l-8.11,14h-1.69l-.85-14.14a9.93,9.93,0,0,0-.18-1.42,2.13,2.13,0,0,0-.42-.92,1.39,1.39,0,0,0-.91-.41l.14-.63Z"/><text class="cls-3" transform="translate(247.08 51.46)">=</text><text class="cls-3" transform="translate(293.05 51.46)">3</text><path d="M310.55,52.55a4,4,0,0,0-.4.58,2.06,2.06,0,0,0-.31,1.18,1.52,1.52,0,0,0,.69,1.39,3.87,3.87,0,0,0,2.06.44,4.1,4.1,0,0,0,2.51-.7,5.47,5.47,0,0,0,1.62-2.27,25,25,0,0,0,1.3-4.72l-.17,0a11.48,11.48,0,0,1-2.29,2.47,3.79,3.79,0,0,1-2.27.77,2.53,2.53,0,0,1-2.15-1,4.93,4.93,0,0,1-.77-3,10.69,10.69,0,0,1,.85-4.17,7.85,7.85,0,0,1,2.36-3.17A5.33,5.33,0,0,1,317,39.12a5.61,5.61,0,0,1,1.5.19,5.06,5.06,0,0,1,1.44.64l1.17-.83.81.2-1.31,5.91c-.09.42-.3,1.46-.63,3.13s-.63,3-.85,3.77a10.15,10.15,0,0,1-.8,2A5.5,5.5,0,0,1,317,55.72a5.17,5.17,0,0,1-1.84,1,7.88,7.88,0,0,1-2.57.37q-4.8,0-4.8-2.79a2.1,2.1,0,0,1,.44-1.29,5.6,5.6,0,0,1,1.38-1.24Zm3.64-2.4a2.3,2.3,0,0,0,1.29-.44,6.6,6.6,0,0,0,1.37-1.41,9,9,0,0,0,1.83-4A10.83,10.83,0,0,0,319,42a2.06,2.06,0,0,0-.42-1.44,1.83,1.83,0,0,0-1.39-.45,3.17,3.17,0,0,0-2.32,1.05A7,7,0,0,0,313.21,44a11.23,11.23,0,0,0-.59,3.54,4.06,4.06,0,0,0,.38,2A1.26,1.26,0,0,0,314.19,50.15Z"/><path d="M333.8,43.61a3.77,3.77,0,0,1,1,1.09,5.7,5.7,0,0,1,.6,1.76l.29,1.47a12.78,12.78,0,0,0,.32,1.26,3,3,0,0,0,.43.89,1.68,1.68,0,0,0,.55.49,3.21,3.21,0,0,0,.91.27l-.13.62h-3.51a19.37,19.37,0,0,1-.72-2.69L333,46.08a6.14,6.14,0,0,0-.34-1.17,2,2,0,0,0-.47-.74,1.3,1.3,0,0,0-.63-.34,3.77,3.77,0,0,0-.88-.08h-1.45l-.89,4c-.07.33-.13.59-.15.78s-.06.4-.08.62,0,.41,0,.58a1.29,1.29,0,0,0,.12.61.81.81,0,0,0,.38.33,4.27,4.27,0,0,0,.88.15l-.14.62h-5.21l.14-.62a1.77,1.77,0,0,0,.72-.25,1.31,1.31,0,0,0,.41-.48,4,4,0,0,0,.3-.74c.09-.29.23-.85.42-1.69l2.15-9.77a9.58,9.58,0,0,0,.28-2,1.07,1.07,0,0,0-.29-.87,1.6,1.6,0,0,0-.95-.27l.14-.63H333a12.94,12.94,0,0,1,2.19.16,5.25,5.25,0,0,1,1.45.48,3.12,3.12,0,0,1,1,.82,3.53,3.53,0,0,1,.61,1.13,4.12,4.12,0,0,1,.2,1.33,4.88,4.88,0,0,1-1.19,3.33,7.47,7.47,0,0,1-3.51,2.08Zm-2.87-1a7,7,0,0,0,2.9-.5,3.67,3.67,0,0,0,1.69-1.62,5,5,0,0,0,.62-2.44,4.07,4.07,0,0,0-.1-1,2.57,2.57,0,0,0-.26-.7,2,2,0,0,0-.42-.5,2.29,2.29,0,0,0-.64-.37,3.53,3.53,0,0,0-.88-.23,9.77,9.77,0,0,0-1.36-.07c-.45,0-.92,0-1.42.05l-1.63,7.35Z"/><rect x="293.05" y="27.76" width="47.64" height="1.68"/><text class="cls-3" transform="translate(340.69 51.46)"><tspan class="cls-4"> </tspan><tspan x="5.7" y="0"> </tspan></text><text class="cls-3" transform="translate(352.07 51.46)"><tspan class="cls-4" xml:space="preserve">  </tspan><tspan class="cls-5" x="11.39" y="0"> </tspan><tspan class="cls-4" x="17.14" y="0"> </tspan><tspan class="cls-5" x="22.83" y="0"> </tspan><tspan class="cls-4" x="28.58" y="0" xml:space="preserve">  </tspan><tspan class="cls-6" x="39.97" y="0"> </tspan><tspan x="45.72" y="0"> </tspan></text><text class="cls-7" transform="translate(-3.05 97.83)"> </text><polyline class="cls-8" points="293.9 28.02 283.53 54.31 278.92 41.17"/></svg>