<svg id="Capa_1" data-name="Capa 1" xmlns="http://www.w3.org/2000/svg" viewBox="0 0 1080 203.68"><defs><style>.cls-1{fill:#fff;}</style></defs><title>formula</title><path class="cls-1" d="M224.4,177.88H183.77l20.31-49.53Zm-39.14-1h37.65L204.08,131Z"/><path class="cls-1" d="M243.91,171.78l-1.1,5.41a18,18,0,0,1-4.61.63,9.58,9.58,0,0,1-6.3-1.94,4.94,4.94,0,0,1-1.76-4,39.76,39.76,0,0,1,1-5.9l4.72-22.58h-5.24l1.07-5.13h5.23l2-9.55,7.58-4.58-3,14.13H250l-1.1,5.13h-6.48l-4.5,21.48a40.44,40.44,0,0,0-.84,4.91,2.31,2.31,0,0,0,.68,1.79,3.19,3.19,0,0,0,2.21.63A16,16,0,0,0,243.91,171.78Z"/><path class="cls-1" d="M432.87,157.85H392.25l20.31-49.52Zm-39.13-1h37.64L412.56,111Z"/><path class="cls-1" d="M432.87,74.51H392.25L412.56,25Zm-39.13-1h37.64L412.56,27.62Z"/><path class="cls-1" d="M452.39,151.76l-1.1,5.41a18.06,18.06,0,0,1-4.62.63,9.52,9.52,0,0,1-6.29-2,4.91,4.91,0,0,1-1.76-4,40.8,40.8,0,0,1,.95-5.89l4.72-22.59h-5.23l1.06-5.12h5.24l2-9.56,7.58-4.57-3,14.13h6.52l-1.1,5.12h-6.48l-4.5,21.49a40.44,40.44,0,0,0-.84,4.91,2.3,2.3,0,0,0,.67,1.79,3.22,3.22,0,0,0,2.22.62A16.11,16.11,0,0,0,452.39,151.76Z"/><path class="cls-1" d="M312,159.55a55.27,55.27,0,0,1,6.55-25.08,27.77,27.77,0,0,1,5.16-6.59,19.93,19.93,0,0,1,5.25-3.49,14.19,14.19,0,0,1,5.73-1.12A13.26,13.26,0,0,1,345,127.85q4.13,4.58,4.12,13.21a56.06,56.06,0,0,1-2.86,17.61q-3.36,10.32-9.37,15.49a15.77,15.77,0,0,1-10.5,3.91,13,13,0,0,1-10.2-4.74Q312,168.59,312,159.55Zm6.4,1.68a15.21,15.21,0,0,0,1.65,7.73,7.21,7.21,0,0,0,6.63,3.84,9.31,9.31,0,0,0,7-3.48q4.53-4.9,6.83-14.36a69.06,69.06,0,0,0,2.28-15.47q0-5.79-2.21-8.35a7.34,7.34,0,0,0-5.84-2.56,9.49,9.49,0,0,0-4.92,1.35,13.94,13.94,0,0,0-4.38,4.65q-3,4.65-5.16,13.91A58.14,58.14,0,0,0,318.44,161.23Z"/><path class="cls-1" d="M56.17,109.64,45.85,56h6.91L59,88Q60.7,96.69,61.22,102q3.38-6.89,5.53-10.91L85.89,56h7.4L63.86,109.64Z"/><path class="cls-1" d="M174.27,91.91H138.84V85.76h35.43Zm0,16.29H138.84v-6.15h35.43Z"/><path class="cls-1" d="M559.3,91.91H523.87V85.76H559.3Zm0,16.29H523.87v-6.15H559.3Z"/><path class="cls-1" d="M208,106.64,219.2,53h6.63l-11.21,53.67Z"/><path class="cls-1" d="M224.91,106.64,233,67.76h6.62l-8.12,38.88Zm9.67-46.16L236.15,53h6.59l-1.58,7.51Z"/><path class="cls-1" d="M241.79,106.64l8.12-38.88h6.63l-1.35,6.41a26.38,26.38,0,0,1,6.6-5.71,13.08,13.08,0,0,1,6.32-1.58,9.46,9.46,0,0,1,6.06,1.93,9.07,9.07,0,0,1,3.2,5.36,21.89,21.89,0,0,1,6.24-5.48,14.17,14.17,0,0,1,6.9-1.81c3.25,0,5.68.77,7.31,2.31a8.51,8.51,0,0,1,2.43,6.48,34.34,34.34,0,0,1-.84,5.93l-5.24,25h-6.62l5.34-25.7a23.69,23.69,0,0,0,.7-4.5,3.86,3.86,0,0,0-1.21-3,4.86,4.86,0,0,0-3.41-1.1,12,12,0,0,0-6,1.79,12.91,12.91,0,0,0-4.77,4.71,31.45,31.45,0,0,0-3,9l-3.95,18.85h-6.63l5.49-26.25a19.87,19.87,0,0,0,.59-3.81,4.14,4.14,0,0,0-1.19-3.07,4.21,4.21,0,0,0-3.09-1.17,11.86,11.86,0,0,0-5.91,1.79,14.11,14.11,0,0,0-5,5,29.91,29.91,0,0,0-3.18,9.13l-3.85,18.38Z"/><path class="cls-1" d="M76.1,151.11,93,131.38l-9.7-19.15h7.32l3.3,6.92q1.83,3.88,3.29,7.43l11.21-14.35h8.09l-16.33,19.66L110,151.11h-7.32L98.8,143.2q-1.24-2.52-2.82-6.26L84.41,151.11Z"/><path class="cls-1" d="M434.3,74l16.91-19.73-9.7-19.14h7.32l3.3,6.92q1.83,3.87,3.29,7.43l11.21-14.35h8.09L458.39,54.8,468.2,74h-7.32L457,66.11c-.83-1.69-1.77-3.77-2.82-6.26L442.61,74Z"/><path class="cls-1" d="M624.12,68.38q-5.68,6.51-11.87,6.51a11.87,11.87,0,0,1-9.2-4.08q-3.69-4.08-3.68-11.84a28.84,28.84,0,0,1,2.91-13,22,22,0,0,1,7.28-8.8,15.62,15.62,0,0,1,8.77-2.93q7.24,0,10.95,7l4.39-20.9h6.59L629.06,74h-6.12ZM606,57.72a20.62,20.62,0,0,0,.8,6.41,8.42,8.42,0,0,0,2.75,3.9,7.17,7.17,0,0,0,4.65,1.55q4.5,0,8.16-4.68,4.9-6.23,4.91-15.38a10.21,10.21,0,0,0-2.42-7.21,8,8,0,0,0-6.08-2.6,9,9,0,0,0-4.33,1.06,12.6,12.6,0,0,0-3.88,3.61,22.28,22.28,0,0,0-3.24,6.46A22,22,0,0,0,606,57.72Z"/><path class="cls-1" d="M637,74l16.91-19.73-9.7-19.14h7.33l3.29,6.92q1.83,3.87,3.29,7.43l11.21-14.35h8.09L661.09,54.8,670.9,74h-7.32l-3.88-7.9c-.83-1.69-1.77-3.77-2.82-6.26L645.31,74Z"/><path class="cls-1" d="M617.3,158.9q-5.68,6.51-11.86,6.52a11.85,11.85,0,0,1-9.21-4.09q-3.68-4.08-3.68-11.84a28.87,28.87,0,0,1,2.91-13,22.08,22.08,0,0,1,7.28-8.8,15.69,15.69,0,0,1,8.77-2.93q7.25,0,11,7l4.39-20.9h6.59l-11.2,53.67h-6.12Zm-18.16-10.65a20.55,20.55,0,0,0,.8,6.4,8.49,8.49,0,0,0,2.75,3.9,7.18,7.18,0,0,0,4.65,1.56q4.5,0,8.16-4.69,4.9-6.22,4.91-15.37a10.21,10.21,0,0,0-2.42-7.22,8,8,0,0,0-6.08-2.6,8.91,8.91,0,0,0-4.33,1.07,12.67,12.67,0,0,0-3.88,3.6,22.28,22.28,0,0,0-3.24,6.46A22,22,0,0,0,599.14,148.25Z"/><path class="cls-1" d="M648.27,159.16l-1.1,5.41a18,18,0,0,1-4.61.63,9.58,9.58,0,0,1-6.3-1.94,4.94,4.94,0,0,1-1.76-4,40.8,40.8,0,0,1,1-5.89l4.73-22.59h-5.24l1.06-5.12h5.24l2-9.56,7.58-4.57-3,14.13h6.52l-1.1,5.12H646.8l-4.5,21.49a40.44,40.44,0,0,0-.84,4.91,2.3,2.3,0,0,0,.67,1.79,3.22,3.22,0,0,0,2.22.62A16.11,16.11,0,0,0,648.27,159.16Z"/><rect class="cls-1" x="258.08" y="152.52" width="40.26" height="2"/><path class="cls-1" d="M284.67,163.12a1,1,0,0,1,.31-1.38l12.9-8.22L285,145.3a1,1,0,0,1-.31-1.38,1,1,0,0,1,1.38-.3l14.23,9.06a1,1,0,0,1,.47.84,1,1,0,0,1-.47.85l-14.23,9.06a1,1,0,0,1-1.38-.31Z"/><rect class="cls-1" x="379.59" y="91.84" width="106.02" height="4"/><rect class="cls-1" x="578.98" y="91.84" width="106.02" height="4"/><path class="cls-1" d="M726.1,103.05a36,36,0,0,1-3.36-15.11,32.72,32.72,0,0,1,1.36-9.63,35.77,35.77,0,0,1,4.13-8.81A66.55,66.55,0,0,1,734.11,62h3a41.67,41.67,0,0,0-5.29,7.52,40.38,40.38,0,0,0-4,9.53,35.59,35.59,0,0,0-1.27,9.4A47.19,47.19,0,0,0,729,103.05Z"/><path class="cls-1" d="M740.8,93.84l-3.72-22.69h3.76l1.95,12.5q.32,2,.79,6.68c.74-1.61,1.68-3.45,2.84-5.53L754,71.15h4.08l-13,22.69Z"/><path class="cls-1" d="M773.62,86.12l3.76.39a11.31,11.31,0,0,1-3.73,5.32,10.27,10.27,0,0,1-6.95,2.52,9.44,9.44,0,0,1-4.63-1.16,7.74,7.74,0,0,1-3.21-3.39,11.3,11.3,0,0,1-1.1-5.06,16.27,16.27,0,0,1,1.72-7.22,12.31,12.31,0,0,1,4.46-5.19,11,11,0,0,1,5.92-1.7,8.57,8.57,0,0,1,6.48,2.52A9.52,9.52,0,0,1,778.77,80a20.11,20.11,0,0,1-.3,3.42H761.76a9,9,0,0,0-.09,1.2,7.17,7.17,0,0,0,1.47,4.86,4.57,4.57,0,0,0,3.58,1.68,7,7,0,0,0,3.91-1.3A8.5,8.5,0,0,0,773.62,86.12Zm-11.24-5.61h12.73c0-.4,0-.69,0-.86a6.29,6.29,0,0,0-1.46-4.46,4.89,4.89,0,0,0-3.74-1.54,6.92,6.92,0,0,0-4.52,1.7A10.31,10.31,0,0,0,762.38,80.51Z"/><path class="cls-1" d="M781,93.84l6.54-31.33h3.87l-6.54,31.33Z"/><path class="cls-1" d="M791.7,85.23a15.87,15.87,0,0,1,3.91-11,10.84,10.84,0,0,1,8.46-3.59,8.84,8.84,0,0,1,6.61,2.57,9.47,9.47,0,0,1,2.51,6.92,17,17,0,0,1-1.58,7.28,11.72,11.72,0,0,1-4.5,5.16A11.57,11.57,0,0,1,801,94.35a10.32,10.32,0,0,1-4.82-1.13A7.83,7.83,0,0,1,792.84,90,9.74,9.74,0,0,1,791.7,85.23Zm3.86-.39a6.91,6.91,0,0,0,1.54,4.86A5.09,5.09,0,0,0,801,91.36a6.48,6.48,0,0,0,2.46-.5,7.18,7.18,0,0,0,2.26-1.53A10.09,10.09,0,0,0,807.52,87a15.55,15.55,0,0,0,1.85-6.89,6.87,6.87,0,0,0-1.55-4.78,5.08,5.08,0,0,0-3.9-1.7,6.44,6.44,0,0,0-3.31.87A8.94,8.94,0,0,0,797.9,77a11.5,11.5,0,0,0-1.77,3.88A16,16,0,0,0,795.56,84.84Z"/><path class="cls-1" d="M831,85.57l3.87.4a13.07,13.07,0,0,1-4.13,6.32,9.8,9.8,0,0,1-6.11,2.06,8,8,0,0,1-6-2.39,9.29,9.29,0,0,1-2.3-6.69A19.13,19.13,0,0,1,817.83,78a11.83,11.83,0,0,1,4.22-5.46,10.92,10.92,0,0,1,6.27-1.87,8,8,0,0,1,5.79,2.06,7.28,7.28,0,0,1,2.14,5.46l-3.81.26A4.61,4.61,0,0,0,831.19,75,4.4,4.4,0,0,0,828,73.82a6,6,0,0,0-4,1.47,9.64,9.64,0,0,0-2.68,4.48,18.7,18.7,0,0,0-1,5.78,6.41,6.41,0,0,0,1.29,4.36,4,4,0,0,0,3.16,1.45,5.6,5.6,0,0,0,3.6-1.43A9.38,9.38,0,0,0,831,85.57Z"/><path class="cls-1" d="M837.08,93.84l4.74-22.69h3.87L841,93.84Zm5.64-26.95.92-4.38h3.85l-.92,4.38Z"/><path class="cls-1" d="M862.25,90.55c-2.21,2.53-4.51,3.8-6.92,3.8A7,7,0,0,1,850,92q-2.15-2.39-2.14-6.91a16.74,16.74,0,0,1,1.7-7.58,12.83,12.83,0,0,1,4.25-5.14,9.13,9.13,0,0,1,5.11-1.71,6.86,6.86,0,0,1,6.39,4.08l2.57-12.2h3.84l-6.53,31.33h-3.57Zm-10.6-6.22a12,12,0,0,0,.47,3.74,5,5,0,0,0,1.61,2.28,4.2,4.2,0,0,0,2.71.9,6,6,0,0,0,4.76-2.73,14.06,14.06,0,0,0,2.87-9,6,6,0,0,0-1.41-4.21,4.65,4.65,0,0,0-3.55-1.51,5.13,5.13,0,0,0-2.53.62,7.39,7.39,0,0,0-2.27,2.1,13.4,13.4,0,0,0-1.89,3.77A13,13,0,0,0,851.65,84.33Z"/><path class="cls-1" d="M886.59,91a15.37,15.37,0,0,1-3.87,2.53,10,10,0,0,1-4,.8,7,7,0,0,1-5.07-1.85,6.28,6.28,0,0,1-1.92-4.73,6.57,6.57,0,0,1,.86-3.37,6.9,6.9,0,0,1,2.3-2.35,10.22,10.22,0,0,1,3.51-1.27,39.59,39.59,0,0,1,4.94-.4,17.87,17.87,0,0,0,5.23-.77,10,10,0,0,0,.45-2.63,2.55,2.55,0,0,0-1-2.12,6.2,6.2,0,0,0-3.93-1.06,6.88,6.88,0,0,0-4,1.07,6.09,6.09,0,0,0-2.26,3.07L874,77.6a10.16,10.16,0,0,1,3.8-5.17,11.21,11.21,0,0,1,6.54-1.8,10.23,10.23,0,0,1,6.67,2,4.75,4.75,0,0,1,1.88,3.89,20,20,0,0,1-.53,4.21l-1.26,5.64a21.16,21.16,0,0,0-.6,4.38,14.28,14.28,0,0,0,.47,3.08H887A13.41,13.41,0,0,1,886.59,91ZM888,82.34a8.56,8.56,0,0,1-1.74.49c-.62.12-1.66.24-3.11.37a23.41,23.41,0,0,0-4.76.76,4,4,0,0,0-2.1,1.46,3.78,3.78,0,0,0-.7,2.22,3.49,3.49,0,0,0,1.12,2.67,4.49,4.49,0,0,0,3.19,1,7.52,7.52,0,0,0,6.5-3.85A16.38,16.38,0,0,0,888,82.34Z"/><path class="cls-1" d="M910.93,90.55q-3.31,3.8-6.93,3.8A6.92,6.92,0,0,1,898.63,92q-2.14-2.39-2.15-6.91a16.88,16.88,0,0,1,1.7-7.58,12.83,12.83,0,0,1,4.25-5.14,9.16,9.16,0,0,1,5.12-1.71,6.88,6.88,0,0,1,6.39,4.08l2.56-12.2h3.85l-6.54,31.33h-3.57Zm-10.6-6.22a12,12,0,0,0,.47,3.74,5,5,0,0,0,1.6,2.28,4.24,4.24,0,0,0,2.72.9,6,6,0,0,0,4.76-2.73,14.05,14.05,0,0,0,2.86-9,6,6,0,0,0-1.41-4.21,4.63,4.63,0,0,0-3.54-1.51,5.19,5.19,0,0,0-2.54.62,7.37,7.37,0,0,0-2.26,2.1,13.14,13.14,0,0,0-1.89,3.77A12.7,12.7,0,0,0,900.33,84.33Z"/><path class="cls-1" d="M720.35,146.35l4.74-22.69H729l-4.74,22.69ZM726,119.41l.92-4.38h3.84l-.91,4.38Z"/><path class="cls-1" d="M730.22,146.35,735,123.66h3.51l-.83,4a18.65,18.65,0,0,1,4.27-3.4,8.49,8.49,0,0,1,4.06-1.06,6,6,0,0,1,4.33,1.49,5.29,5.29,0,0,1,1.57,4,22.42,22.42,0,0,1-.56,4l-2.88,13.74h-3.87l3-14.38a16.5,16.5,0,0,0,.45-3.1,2.37,2.37,0,0,0-.78-1.84,3.24,3.24,0,0,0-2.25-.7,7.56,7.56,0,0,0-5.29,2.14c-1.55,1.42-2.68,3.86-3.41,7.33l-2.2,10.55Z"/><path class="cls-1" d="M754.92,138.59l3.87-.23a7.1,7.1,0,0,0,.51,2.84,4,4,0,0,0,1.89,1.92,6.63,6.63,0,0,0,3.22.75,6.07,6.07,0,0,0,3.84-1,3,3,0,0,0,1.29-2.42,2.9,2.9,0,0,0-.77-1.9,12,12,0,0,0-3.86-2.21,37,37,0,0,1-3.92-1.85,6.4,6.4,0,0,1-2.16-2.06,5.15,5.15,0,0,1-.72-2.73,6,6,0,0,1,2.13-4.61,8.66,8.66,0,0,1,6-1.92q4.26,0,6.5,2a6.88,6.88,0,0,1,2.32,5.21l-3.78.25a4.37,4.37,0,0,0-1.45-3.25,5.76,5.76,0,0,0-3.87-1.19,4.72,4.72,0,0,0-3.12.92,2.59,2.59,0,0,0-1.11,2,2.4,2.4,0,0,0,1,1.88,16.21,16.21,0,0,0,3.31,1.71,22.63,22.63,0,0,1,5.6,3,5.78,5.78,0,0,1,1.84,4.31,6.14,6.14,0,0,1-1,3.32,7.18,7.18,0,0,1-3.16,2.59,11.94,11.94,0,0,1-5,1,11.29,11.29,0,0,1-6.69-1.94Q754.77,143,754.92,138.59Z"/><path class="cls-1" d="M785.48,143.21l-.64,3.16a10.82,10.82,0,0,1-2.7.37,5.56,5.56,0,0,1-3.67-1.14,2.88,2.88,0,0,1-1-2.33,24,24,0,0,1,.56-3.44l2.76-13.18H777.7l.62-3h3l1.18-5.58,4.42-2.67-1.73,8.25h3.81l-.64,3h-3.79L782,139.19a23.77,23.77,0,0,0-.5,2.87,1.32,1.32,0,0,0,.4,1,1.83,1.83,0,0,0,1.29.37A9.31,9.31,0,0,0,785.48,143.21Z"/><path class="cls-1" d="M803.9,143.53a15.37,15.37,0,0,1-3.87,2.53,9.86,9.86,0,0,1-4,.8A7,7,0,0,1,791,145a6.26,6.26,0,0,1-1.92-4.73,6.51,6.51,0,0,1,.86-3.36,6.81,6.81,0,0,1,2.3-2.35,10,10,0,0,1,3.5-1.27,37.33,37.33,0,0,1,4.95-.41,17.87,17.87,0,0,0,5.23-.77,10.3,10.3,0,0,0,.44-2.63,2.51,2.51,0,0,0-1-2.11,6.18,6.18,0,0,0-3.93-1.07,6.86,6.86,0,0,0-4,1.08,6.11,6.11,0,0,0-2.25,3.06l-3.91-.34a10.24,10.24,0,0,1,3.79-5.17,11.24,11.24,0,0,1,6.55-1.79,10.28,10.28,0,0,1,6.67,2,4.76,4.76,0,0,1,1.88,3.89,19.4,19.4,0,0,1-.54,4.21l-1.26,5.64a21.74,21.74,0,0,0-.59,4.38,14.2,14.2,0,0,0,.47,3.08h-3.91A13.41,13.41,0,0,1,803.9,143.53Zm1.43-8.68a9.26,9.26,0,0,1-1.74.5c-.62.11-1.66.23-3.11.36a23.67,23.67,0,0,0-4.77.76,4,4,0,0,0-2.09,1.46,3.79,3.79,0,0,0-.71,2.22,3.5,3.5,0,0,0,1.13,2.68,4.52,4.52,0,0,0,3.19,1,7.54,7.54,0,0,0,6.5-3.84A16.71,16.71,0,0,0,805.33,134.85Z"/><path class="cls-1" d="M812.94,146.35l4.74-22.69h3.5l-.83,4a18.86,18.86,0,0,1,4.27-3.4,8.52,8.52,0,0,1,4.06-1.06,6,6,0,0,1,4.33,1.49,5.26,5.26,0,0,1,1.57,4,22.17,22.17,0,0,1-.55,4l-2.89,13.74h-3.87l3-14.38a17.15,17.15,0,0,0,.44-3.1A2.4,2.4,0,0,0,830,127a3.29,3.29,0,0,0-2.26-.7,7.58,7.58,0,0,0-5.29,2.14q-2.31,2.13-3.41,7.33l-2.2,10.55Z"/><path class="cls-1" d="M846.31,143.21l-.64,3.16a10.68,10.68,0,0,1-2.69.37,5.57,5.57,0,0,1-3.68-1.14,2.87,2.87,0,0,1-1-2.33,23.39,23.39,0,0,1,.55-3.44l2.76-13.18h-3.06l.62-3h3.06l1.17-5.58,4.43-2.67-1.73,8.25h3.8l-.64,3h-3.78l-2.63,12.54a22.78,22.78,0,0,0-.49,2.87,1.35,1.35,0,0,0,.39,1,1.87,1.87,0,0,0,1.3.37A9.28,9.28,0,0,0,846.31,143.21Z"/><path class="cls-1" d="M864.73,143.53a15.37,15.37,0,0,1-3.87,2.53,9.82,9.82,0,0,1-4,.8,7,7,0,0,1-5.07-1.85,6.26,6.26,0,0,1-1.92-4.73,6.42,6.42,0,0,1,.87-3.36,6.7,6.7,0,0,1,2.29-2.35,10.09,10.09,0,0,1,3.51-1.27,37.3,37.3,0,0,1,4.94-.41,17.87,17.87,0,0,0,5.23-.77,10,10,0,0,0,.45-2.63,2.53,2.53,0,0,0-1-2.11,6.19,6.19,0,0,0-3.94-1.07,6.8,6.8,0,0,0-4,1.08,6.12,6.12,0,0,0-2.26,3.06l-3.91-.34a10.25,10.25,0,0,1,3.8-5.17,11.22,11.22,0,0,1,6.55-1.79,10.27,10.27,0,0,1,6.66,2A4.73,4.73,0,0,1,871,129a20,20,0,0,1-.53,4.21l-1.26,5.64a21.16,21.16,0,0,0-.6,4.38,14.86,14.86,0,0,0,.47,3.08h-3.91A14.86,14.86,0,0,1,864.73,143.53Zm1.43-8.68a9.26,9.26,0,0,1-1.74.5c-.62.11-1.66.23-3.11.36a23.41,23.41,0,0,0-4.76.76,4,4,0,0,0-2.1,1.46,3.78,3.78,0,0,0-.7,2.22,3.5,3.5,0,0,0,1.12,2.68,4.54,4.54,0,0,0,3.19,1,7.54,7.54,0,0,0,6.5-3.84A16.45,16.45,0,0,0,866.16,134.85Zm-6.32-13.95,4-5.87h4.88L863,120.9Z"/><path class="cls-1" d="M873.77,146.35l4.74-22.69H882l-.84,4a18.89,18.89,0,0,1,4.28-3.4,8.46,8.46,0,0,1,4.06-1.06,6,6,0,0,1,4.32,1.49,5.26,5.26,0,0,1,1.57,4,22.17,22.17,0,0,1-.55,4L892,146.35h-3.86l3-14.38a16.5,16.5,0,0,0,.45-3.1,2.37,2.37,0,0,0-.78-1.84,3.25,3.25,0,0,0-2.26-.7,7.54,7.54,0,0,0-5.28,2.14q-2.32,2.13-3.41,7.33l-2.2,10.55Z"/><path class="cls-1" d="M914.77,138.64l3.76.38a11.31,11.31,0,0,1-3.73,5.32,10.27,10.27,0,0,1-6.95,2.52,9.39,9.39,0,0,1-4.63-1.16,7.67,7.67,0,0,1-3.2-3.39,11.3,11.3,0,0,1-1.1-5.06,16.09,16.09,0,0,1,1.72-7.21,12.38,12.38,0,0,1,4.45-5.2,11.05,11.05,0,0,1,5.92-1.69,8.59,8.59,0,0,1,6.49,2.52,9.53,9.53,0,0,1,2.42,6.88,20.28,20.28,0,0,1-.3,3.42H902.91a10.78,10.78,0,0,0-.08,1.19,7.18,7.18,0,0,0,1.46,4.86,4.58,4.58,0,0,0,3.58,1.68,6.87,6.87,0,0,0,3.91-1.3A8.47,8.47,0,0,0,914.77,138.64ZM903.53,133h12.74c0-.4,0-.69,0-.86a6.26,6.26,0,0,0-1.45-4.45,4.92,4.92,0,0,0-3.74-1.55,6.88,6.88,0,0,0-4.52,1.71A10.24,10.24,0,0,0,903.53,133Z"/><path class="cls-1" d="M937.74,143.53a15.33,15.33,0,0,1-3.86,2.53,9.86,9.86,0,0,1-4,.8,7,7,0,0,1-5.06-1.85,6.27,6.27,0,0,1-1.93-4.73,6.42,6.42,0,0,1,.87-3.36,6.72,6.72,0,0,1,2.3-2.35,10,10,0,0,1,3.5-1.27,37.33,37.33,0,0,1,4.95-.41,17.73,17.73,0,0,0,5.22-.77,10,10,0,0,0,.45-2.63,2.53,2.53,0,0,0-1-2.11,6.18,6.18,0,0,0-3.93-1.07,6.81,6.81,0,0,0-4,1.08,6.11,6.11,0,0,0-2.25,3.06l-3.91-.34a10.18,10.18,0,0,1,3.79-5.17,11.22,11.22,0,0,1,6.55-1.79,10.3,10.3,0,0,1,6.67,2A4.76,4.76,0,0,1,944,129a19.4,19.4,0,0,1-.54,4.21l-1.26,5.64a21.16,21.16,0,0,0-.6,4.38,14.86,14.86,0,0,0,.47,3.08h-3.91A14.86,14.86,0,0,1,937.74,143.53Zm1.43-8.68a9.26,9.26,0,0,1-1.74.5c-.62.11-1.65.23-3.11.36a23.54,23.54,0,0,0-4.76.76,3.92,3.92,0,0,0-2.09,1.46,3.79,3.79,0,0,0-.71,2.22,3.5,3.5,0,0,0,1.12,2.68,4.56,4.56,0,0,0,3.2,1,7.54,7.54,0,0,0,6.49-3.84A16.19,16.19,0,0,0,939.17,134.85Z"/><path class="cls-1" d="M975.61,138.64l3.76.38a11.38,11.38,0,0,1-3.73,5.32,10.3,10.3,0,0,1-7,2.52,9.32,9.32,0,0,1-4.62-1.16,7.69,7.69,0,0,1-3.21-3.39,11.3,11.3,0,0,1-1.1-5.06,16.23,16.23,0,0,1,1.72-7.21,12.33,12.33,0,0,1,4.46-5.2,11,11,0,0,1,5.92-1.69,8.59,8.59,0,0,1,6.48,2.52,9.49,9.49,0,0,1,2.43,6.88,20.28,20.28,0,0,1-.3,3.42H963.75a8.93,8.93,0,0,0-.09,1.19,7.13,7.13,0,0,0,1.47,4.86,4.55,4.55,0,0,0,3.58,1.68,6.92,6.92,0,0,0,3.91-1.3A8.54,8.54,0,0,0,975.61,138.64ZM964.37,133H977.1c0-.4,0-.69,0-.86a6.26,6.26,0,0,0-1.45-4.45,4.9,4.9,0,0,0-3.74-1.55,6.88,6.88,0,0,0-4.52,1.71A10.23,10.23,0,0,0,964.37,133Z"/><path class="cls-1" d="M983.28,146.35,988,123.66h3.51l-.84,4a18.89,18.89,0,0,1,4.28-3.4,8.46,8.46,0,0,1,4.06-1.06,6,6,0,0,1,4.32,1.49,5.26,5.26,0,0,1,1.57,4,22.17,22.17,0,0,1-.55,4l-2.89,13.74h-3.86l3-14.38a16.5,16.5,0,0,0,.45-3.1,2.37,2.37,0,0,0-.78-1.84,3.25,3.25,0,0,0-2.26-.7,7.58,7.58,0,0,0-5.29,2.14c-1.54,1.42-2.68,3.86-3.4,7.33l-2.2,10.55Z"/><path class="cls-1" d="M1018.26,146.35l9.87-11.52-5.66-11.17h4.27l1.92,4c.71,1.51,1.36,3,1.92,4.33l6.54-8.37h4.73l-9.53,11.47,5.72,11.22h-4.27l-2.27-4.61c-.48-1-1-2.21-1.64-3.66l-6.75,8.27Z"/><path class="cls-1" d="M1048.88,114.49a35.79,35.79,0,0,1,3.37,15.09,33,33,0,0,1-1.35,9.63,36.48,36.48,0,0,1-4.14,8.83,69,69,0,0,1-5.88,7.52h-3a43.36,43.36,0,0,0,5.28-7.54,39.49,39.49,0,0,0,4-9.52,36.37,36.37,0,0,0,1.25-9.41,47,47,0,0,0-2.46-14.6Z"/></svg>