<svg id="Capa_1" data-name="Capa 1" xmlns="http://www.w3.org/2000/svg" viewBox="0 0 308.46 85.63"><defs><style>.cls-1,.cls-3{font-size:18.24px;}.cls-1,.cls-2{font-family:CambriaMath, Cambria Math;}.cls-2{font-size:13.26px;}.cls-3{font-family:ArialMT, Arial;}</style></defs><title>formula1</title><path d="M22.48,47.79a.69.69,0,0,1-.43-.13.8.8,0,0,1-.28-.36,2.07,2.07,0,0,1-.15-.56,5,5,0,0,1-.05-.7A8.51,8.51,0,0,1,21.64,45c0-.38.09-.77.16-1.17l.37-2.46c0-.15,0-.28.06-.41s0-.22,0-.28a1,1,0,0,0-.09-.45.31.31,0,0,0-.3-.18.79.79,0,0,0-.37.1,2.94,2.94,0,0,0-.39.26,4.4,4.4,0,0,0-.39.35l-.35.34-.43-.5c.19-.19.38-.38.59-.56a5.29,5.29,0,0,1,.66-.51,3.58,3.58,0,0,1,.73-.37A2.39,2.39,0,0,1,22.7,39a1.12,1.12,0,0,1,.55.12.85.85,0,0,1,.33.29,1.1,1.1,0,0,1,.17.4,2.15,2.15,0,0,1,0,.43,1.77,1.77,0,0,1,0,.24,1.5,1.5,0,0,1,0,.22l-.5,3.22c-.06.34-.1.67-.14,1s-.05.62-.05.86a3.24,3.24,0,0,0,.05.61c0,.15.08.23.16.23a1.71,1.71,0,0,0,.74-.23A5.92,5.92,0,0,0,25,45.7a10.06,10.06,0,0,0,1-1,8.32,8.32,0,0,0,.88-1.23,7.62,7.62,0,0,0,.64-1.39,4.71,4.71,0,0,0,.24-1.47.77.77,0,0,0-.13-.49.53.53,0,0,0-.44-.18,1,1,0,0,0-.69.29,5.21,5.21,0,0,0-.65.76l-.51-.45a4,4,0,0,1,.5-.61,4.27,4.27,0,0,1,.62-.52,3.11,3.11,0,0,1,.67-.36,1.86,1.86,0,0,1,.68-.13,1.15,1.15,0,0,1,.92.33,1.35,1.35,0,0,1,.29.9,3.84,3.84,0,0,1-.15,1,8.35,8.35,0,0,1-.43,1.16,12,12,0,0,1-.66,1.27,12.53,12.53,0,0,1-.85,1.25,10.81,10.81,0,0,1-1,1.15,8,8,0,0,1-1.1.94,5.67,5.67,0,0,1-1.14.64A3.25,3.25,0,0,1,22.48,47.79Z"/><path d="M31.61,48.31c-.08-.36-.15-.68-.2-1s-.12-.49-.17-.68a3.47,3.47,0,0,0-.14-.47,1.28,1.28,0,0,0-.15-.29.45.45,0,0,0-.16-.15.66.66,0,0,0-.2-.06.71.71,0,0,0-.21,0,.64.64,0,0,0-.19.13,1.44,1.44,0,0,0-.22.25l-.28.42-.5-.32c.18-.27.34-.49.48-.67a3.63,3.63,0,0,1,.42-.44,1.48,1.48,0,0,1,1-.3,1,1,0,0,1,.58.16,1.14,1.14,0,0,1,.38.45,3,3,0,0,1,.24.73c.07.29.14.63.21,1h.08l.68-.88c.19-.25.36-.46.51-.64a5.67,5.67,0,0,1,.4-.42,1.73,1.73,0,0,1,.34-.25,1.21,1.21,0,0,1,.35-.12,2.41,2.41,0,0,1,.4,0,1.45,1.45,0,0,1,.59.12l-.33,1.27H35c0-.18-.09-.28-.21-.28l-.16,0a1.22,1.22,0,0,0-.2.1l-.27.22a4.1,4.1,0,0,0-.35.36c-.14.15-.3.33-.48.55l-.61.76c.12.6.22,1.08.31,1.43a5.17,5.17,0,0,0,.24.83.9.9,0,0,0,.23.37.44.44,0,0,0,.27.09.64.64,0,0,0,.2,0,.47.47,0,0,0,.19-.11,1.24,1.24,0,0,0,.23-.26c.08-.11.18-.25.29-.43l.49.32q-.29.42-.51.69a2.17,2.17,0,0,1-.43.43,1,1,0,0,1-.42.21,2,2,0,0,1-.51.06,1.5,1.5,0,0,1-.44-.07.81.81,0,0,1-.34-.25,1.46,1.46,0,0,1-.18-.29c0-.13-.11-.26-.15-.4s-.09-.29-.13-.45-.07-.29-.1-.43a2.7,2.7,0,0,1-.06-.36,1.31,1.31,0,0,1,0-.23h-.07l-.68.9c-.19.26-.36.48-.52.66a4.86,4.86,0,0,1-.42.45,2.22,2.22,0,0,1-.37.29,1.66,1.66,0,0,1-.37.14,2.74,2.74,0,0,1-.43,0,1.26,1.26,0,0,1-.57-.12l.3-1.26h.55c0,.19.08.28.21.28l.14,0,.16-.08a2.63,2.63,0,0,0,.23-.2c.09-.09.21-.21.35-.37s.32-.35.52-.59Z"/><text class="cls-1" transform="translate(42.14 47.64)">=</text><path d="M65.13,29.75c-.09-.47-.18-.92-.28-1.35s-.19-.84-.29-1.22a4,4,0,0,0-.25-.73.64.64,0,0,0-.21-.24.49.49,0,0,0-.28-.07.64.64,0,0,0-.34.09,1.17,1.17,0,0,0-.33.29c-.12.14-.27.36-.47.65l-.58-.38a5.47,5.47,0,0,1,1.08-1.26,1.86,1.86,0,0,1,1.22-.42,1.75,1.75,0,0,1,.48.06,1.08,1.08,0,0,1,.37.19,1.21,1.21,0,0,1,.29.34,3,3,0,0,1,.24.55,7.49,7.49,0,0,1,.22.88q.1.51.18,1.08h.09c.57-.8,1-1.39,1.3-1.76a6.84,6.84,0,0,1,.74-.83,1.68,1.68,0,0,1,1.33-.49,1.88,1.88,0,0,1,.68.1L70,26.85h-.63c0-.25-.14-.38-.31-.38l-.17,0a.89.89,0,0,0-.22.11,4.28,4.28,0,0,0-.38.35c-.16.17-.35.38-.56.63l-.64.79-.6.75c.1.57.2,1.07.3,1.48s.18.77.25,1,.14.5.2.66a1.49,1.49,0,0,0,.18.36.76.76,0,0,0,.2.17.6.6,0,0,0,.24,0,.79.79,0,0,0,.47-.19,4.27,4.27,0,0,0,.65-.85l.58.38a5.43,5.43,0,0,1-1.13,1.31,1.93,1.93,0,0,1-1.2.38,1.45,1.45,0,0,1-.65-.14,1.28,1.28,0,0,1-.46-.44,3.15,3.15,0,0,1-.35-.94,14.55,14.55,0,0,1-.33-1.75h-.09c-.63.88-1.1,1.52-1.41,1.91a8.42,8.42,0,0,1-.75.85,2.27,2.27,0,0,1-.58.39,2.2,2.2,0,0,1-.75.11,1.86,1.86,0,0,1-.68-.11l.35-1.61h.63c0,.25.14.37.31.37a.65.65,0,0,0,.26-.06,1.93,1.93,0,0,0,.4-.32c.17-.17.41-.44.71-.8S64.55,30.47,65.13,29.75Z"/><path d="M68.37,58.22a6.63,6.63,0,0,1-1.5,1.38,2.74,2.74,0,0,1-1.5.45,1.65,1.65,0,0,1-1.86-1.88,5.69,5.69,0,0,1,.15-1.26l1-4.62H63.22l.13-.62a3.17,3.17,0,0,0,.8-.08,1.33,1.33,0,0,0,.45-.2,1.27,1.27,0,0,0,.34-.35,3.24,3.24,0,0,0,.29-.59c.1-.24.24-.66.43-1.26h1.23l-.49,2.2h2.71l-.2.9H66.2l-.79,3.45c-.16.67-.25,1.16-.3,1.45a5.46,5.46,0,0,0-.06.71c0,.73.31,1.1.92,1.1a1.48,1.48,0,0,0,.83-.3,4.84,4.84,0,0,0,1-1Z"/><rect x="60.89" y="41.76" width="10.27" height="1.2"/><text class="cls-1" transform="translate(74.24 47.64)"> </text><text class="cls-1" transform="translate(83.31 47.64)">=</text><text class="cls-1" transform="translate(102.05 47.64)"> </text><text class="cls-1" transform="translate(109.13 33.78)">∆</text><path d="M124.25,29.75q-.14-.7-.27-1.35c-.1-.44-.2-.84-.3-1.22a3.35,3.35,0,0,0-.25-.73.51.51,0,0,0-.21-.24.47.47,0,0,0-.28-.07.69.69,0,0,0-.34.09,1.17,1.17,0,0,0-.33.29c-.11.14-.27.36-.47.65l-.58-.38a6,6,0,0,1,1.08-1.26,1.88,1.88,0,0,1,1.22-.42,1.77,1.77,0,0,1,.49.06,1.18,1.18,0,0,1,.37.19,1.38,1.38,0,0,1,.28.34,2,2,0,0,1,.24.55,7.49,7.49,0,0,1,.22.88q.1.51.18,1.08h.09c.57-.8,1-1.39,1.3-1.76a6.84,6.84,0,0,1,.74-.83,1.72,1.72,0,0,1,1.33-.49,1.94,1.94,0,0,1,.69.1l-.36,1.62h-.62c0-.25-.14-.38-.32-.38a.45.45,0,0,0-.16,0,.75.75,0,0,0-.22.11,2.57,2.57,0,0,0-.38.35c-.17.17-.35.38-.56.63l-.64.79-.61.75c.11.57.21,1.07.3,1.48s.18.77.26,1,.14.5.19.66a1.19,1.19,0,0,0,.19.36.63.63,0,0,0,.2.17.52.52,0,0,0,.23,0,.76.76,0,0,0,.47-.19,4.27,4.27,0,0,0,.65-.85l.58.38a5.43,5.43,0,0,1-1.12,1.31,2,2,0,0,1-1.2.38,1.42,1.42,0,0,1-.65-.14,1.3,1.3,0,0,1-.47-.44,3.18,3.18,0,0,1-.34-.94,13.15,13.15,0,0,1-.34-1.75h-.09c-.63.88-1.1,1.52-1.4,1.91a8.28,8.28,0,0,1-.76.85,2.11,2.11,0,0,1-.58.39,2.14,2.14,0,0,1-.74.11,1.92,1.92,0,0,1-.69-.11l.36-1.61h.62c0,.25.14.37.31.37a.7.7,0,0,0,.27-.06,1.94,1.94,0,0,0,.39-.32c.17-.17.41-.44.71-.8S123.68,30.47,124.25,29.75Z"/><text class="cls-1" transform="translate(110.42 59.9)">∆</text><path d="M127.49,58.22A6.61,6.61,0,0,1,126,59.6a2.79,2.79,0,0,1-1.5.45,1.66,1.66,0,0,1-1.87-1.88,5.72,5.72,0,0,1,.16-1.26l1-4.62h-1.5l.13-.62a3.17,3.17,0,0,0,.8-.08,1.49,1.49,0,0,0,.46-.2,1.24,1.24,0,0,0,.33-.35,3.24,3.24,0,0,0,.29-.59c.1-.24.24-.66.43-1.26H126l-.49,2.2h2.71l-.2.9h-2.7l-.8,3.45c-.15.67-.25,1.16-.29,1.45a5.46,5.46,0,0,0-.06.71c0,.73.3,1.1.91,1.1a1.51,1.51,0,0,0,.84-.3,5.07,5.07,0,0,0,1-1Z"/><rect x="109.14" y="41.76" width="21.14" height="1.2"/><text class="cls-1" transform="translate(135.36 47.64)">=</text><path d="M158.35,29.17c-.09-.47-.18-.93-.28-1.36s-.19-.84-.29-1.21a4.56,4.56,0,0,0-.25-.74.86.86,0,0,0-.21-.24.61.61,0,0,0-.28-.06.74.74,0,0,0-.34.08,1.44,1.44,0,0,0-.33.3,5.65,5.65,0,0,0-.47.65l-.58-.38a5.34,5.34,0,0,1,1.08-1.27,1.86,1.86,0,0,1,1.22-.42,1.43,1.43,0,0,1,.48.07.93.93,0,0,1,.37.19,1.35,1.35,0,0,1,.29.33,3.11,3.11,0,0,1,.24.56c.07.23.15.52.22.87s.13.71.18,1.08h.09c.57-.8,1-1.38,1.29-1.76a7.42,7.42,0,0,1,.75-.82,2.11,2.11,0,0,1,.58-.39,2.2,2.2,0,0,1,.75-.11,1.9,1.9,0,0,1,.68.11l-.36,1.61h-.62c0-.25-.14-.37-.31-.37l-.17,0a1,1,0,0,0-.22.12,3.12,3.12,0,0,0-.38.35c-.16.17-.35.38-.56.63l-.64.78-.61.76c.11.57.21,1.06.31,1.48s.18.76.25,1,.14.49.2.65a1,1,0,0,0,.18.36.6.6,0,0,0,.2.17.47.47,0,0,0,.24,0,.69.69,0,0,0,.46-.19,3.79,3.79,0,0,0,.66-.84l.58.38A5.64,5.64,0,0,1,161.62,33a1.93,1.93,0,0,1-1.2.37,1.45,1.45,0,0,1-.65-.13,1.28,1.28,0,0,1-.46-.44,3.23,3.23,0,0,1-.35-.95,17.45,17.45,0,0,1-.34-1.74h-.09c-.63.88-1.09,1.52-1.4,1.9a7.49,7.49,0,0,1-.76.86,1.83,1.83,0,0,1-.57.38,2,2,0,0,1-.75.12,1.82,1.82,0,0,1-.68-.11l.35-1.61h.63c0,.25.13.37.31.37a.54.54,0,0,0,.26-.07,1.85,1.85,0,0,0,.4-.32c.17-.17.41-.43.71-.79Z"/><path d="M165.81,36.77a4.29,4.29,0,0,1-1,2.1,2.48,2.48,0,0,1-1.82.68,1.59,1.59,0,0,1-.44,0c0-.11.05-.22.07-.33s.05-.23.08-.33H163a1.4,1.4,0,0,0,.47-.08,1,1,0,0,0,.38-.29,2.22,2.22,0,0,0,.32-.58,6.42,6.42,0,0,0,.28-.94l1.29-5.75h-1.11l.11-.5c.24,0,.43,0,.57,0a.8.8,0,0,0,.36-.11.54.54,0,0,0,.21-.29A3.51,3.51,0,0,1,167,28.5a3.2,3.2,0,0,1,2-.58,3.92,3.92,0,0,1,.63,0,4.34,4.34,0,0,1,.52.09l-.26,1.2h-.65a.85.85,0,0,0-.22-.54.64.64,0,0,0-.46-.17,1.09,1.09,0,0,0-.57.14,1.32,1.32,0,0,0-.4.44,3.67,3.67,0,0,0-.29.69,4.27,4.27,0,0,0-.17.69h1.79l-.14.72H167Z"/><text class="cls-1" transform="translate(175.74 33.19)">−</text><path d="M197.74,29.16c-.09-.47-.18-.92-.28-1.36s-.19-.83-.29-1.21a3.35,3.35,0,0,0-.25-.73.51.51,0,0,0-.21-.24.49.49,0,0,0-.28-.07.67.67,0,0,0-.34.09,1.17,1.17,0,0,0-.33.29c-.12.14-.27.36-.47.65l-.58-.38a5.72,5.72,0,0,1,1.08-1.26,1.86,1.86,0,0,1,1.22-.42,1.83,1.83,0,0,1,.49.06,1.13,1.13,0,0,1,.36.19,1.21,1.21,0,0,1,.29.34,3,3,0,0,1,.24.55,7.49,7.49,0,0,1,.22.88q.1.51.18,1.08h.09c.57-.8,1-1.39,1.3-1.76a6.84,6.84,0,0,1,.74-.83,1.68,1.68,0,0,1,1.33-.49,1.84,1.84,0,0,1,.68.1l-.35,1.61H202c0-.24-.14-.37-.31-.37l-.17,0a.89.89,0,0,0-.22.11,3.34,3.34,0,0,0-.37.35q-.25.25-.57.63l-.64.79-.6.75c.1.57.21,1.07.3,1.48s.18.76.25,1,.14.5.2.66a1.49,1.49,0,0,0,.18.36,1,1,0,0,0,.2.17.61.61,0,0,0,.24,0,.75.75,0,0,0,.47-.18,4.27,4.27,0,0,0,.65-.85l.58.38A5.22,5.22,0,0,1,201,33a1.92,1.92,0,0,1-1.19.38,1.39,1.39,0,0,1-.65-.14,1.23,1.23,0,0,1-.47-.44,3.41,3.41,0,0,1-.35-.95,14.47,14.47,0,0,1-.33-1.74h-.09c-.63.88-1.1,1.52-1.41,1.91a7.33,7.33,0,0,1-.75.85,2.27,2.27,0,0,1-.58.39,2.2,2.2,0,0,1-.75.11,1.86,1.86,0,0,1-.68-.11l.35-1.61h.63c0,.25.14.37.31.37a.65.65,0,0,0,.26-.06,1.93,1.93,0,0,0,.4-.32c.17-.17.41-.44.71-.8S197.16,29.88,197.74,29.16Z"/><path d="M205.42,34.74c-.06.26-.1.46-.12.61a2.1,2.1,0,0,0,0,.41.49.49,0,0,0,.1.35.37.37,0,0,0,.3.11.67.67,0,0,0,.24,0l.25-.14.29-.25.35-.37.44.43c-.22.23-.43.42-.61.58a6.08,6.08,0,0,1-.52.38,2.32,2.32,0,0,1-.49.22,2,2,0,0,1-.5.06,1,1,0,0,1-.44-.09.94.94,0,0,1-.34-.25,1,1,0,0,1-.22-.38,1.46,1.46,0,0,1-.08-.48,3.87,3.87,0,0,1,.05-.53c0-.22.08-.45.14-.69s.11-.51.17-.78.13-.55.19-.81.12-.53.17-.78.09-.47.11-.67a.38.38,0,0,0,0-.1v-.09a.46.46,0,0,0-.18-.37,1.1,1.1,0,0,0-.58-.13l.08-.44,1.87-.07h.32ZM207,27.82l-.31,1.39h-1.29l.31-1.39Z"/><path d="M162.89,58.22a6.58,6.58,0,0,1-1.49,1.38,2.8,2.8,0,0,1-1.51.45A1.65,1.65,0,0,1,158,58.17a5.69,5.69,0,0,1,.15-1.26l1.06-4.62h-1.5l.13-.62a3.17,3.17,0,0,0,.8-.08,1.33,1.33,0,0,0,.45-.19,1.18,1.18,0,0,0,.34-.36,3,3,0,0,0,.29-.59c.1-.24.24-.66.43-1.26h1.23l-.49,2.2h2.71l-.2.9h-2.71l-.79,3.45c-.15.68-.25,1.16-.29,1.45a4.4,4.4,0,0,0-.07.71c0,.74.31,1.11.92,1.11a1.48,1.48,0,0,0,.83-.3,5.37,5.37,0,0,0,1.05-1Z"/><path d="M165.81,63.49a4.29,4.29,0,0,1-1,2.1,2.48,2.48,0,0,1-1.82.68,1.59,1.59,0,0,1-.44,0c0-.11.05-.22.07-.33s.05-.23.08-.34l.11,0h.2a1.4,1.4,0,0,0,.47-.08,1,1,0,0,0,.38-.29,2.22,2.22,0,0,0,.32-.58,6.42,6.42,0,0,0,.28-.94l1.29-5.75h-1.11l.11-.5c.24,0,.43,0,.57,0a.8.8,0,0,0,.36-.11.54.54,0,0,0,.21-.29A3.51,3.51,0,0,1,167,55.22a3.2,3.2,0,0,1,2-.58,3.92,3.92,0,0,1,.63,0,4.34,4.34,0,0,1,.52.09l-.26,1.2h-.65a.85.85,0,0,0-.22-.54.6.6,0,0,0-.46-.17,1.09,1.09,0,0,0-.57.14,1.32,1.32,0,0,0-.4.44,3.67,3.67,0,0,0-.29.69,4,4,0,0,0-.17.69h1.79l-.14.72H167Z"/><text class="cls-1" transform="translate(175.74 59.91)">−</text><path d="M199.68,58.22a6.19,6.19,0,0,1-1.49,1.38,2.79,2.79,0,0,1-1.5.45,1.65,1.65,0,0,1-1.86-1.88,5.69,5.69,0,0,1,.15-1.26L196,52.29h-1.5l.14-.62a3.08,3.08,0,0,0,.79-.08,1.14,1.14,0,0,0,.79-.55,3.56,3.56,0,0,0,.3-.59q.13-.36.42-1.26h1.23l-.49,2.2h2.71l-.19.9h-2.71l-.8,3.45c-.15.68-.25,1.16-.29,1.45a5.6,5.6,0,0,0-.06.71c0,.74.3,1.11.92,1.11a1.51,1.51,0,0,0,.83-.3,6,6,0,0,0,1-1Z"/><path d="M202.83,61.46c-.06.25-.1.46-.13.61a3.17,3.17,0,0,0,0,.41.49.49,0,0,0,.1.35.37.37,0,0,0,.3.11.59.59,0,0,0,.23,0,1,1,0,0,0,.25-.15,1.93,1.93,0,0,0,.29-.24l.36-.37.44.43c-.23.23-.43.42-.61.58a4.88,4.88,0,0,1-.53.38,2.05,2.05,0,0,1-.48.22,2,2,0,0,1-.5.06,1,1,0,0,1-.44-.09.86.86,0,0,1-.34-.25,1,1,0,0,1-.22-.38,1.27,1.27,0,0,1-.08-.48,3.87,3.87,0,0,1,.05-.53c0-.22.08-.45.13-.69s.12-.51.18-.78.13-.55.19-.81.12-.53.17-.78.09-.47.11-.67a.38.38,0,0,0,0-.1v-.09a.46.46,0,0,0-.18-.37,1.1,1.1,0,0,0-.58-.13l.07-.44,1.88-.07h.32Zm1.56-6.92-.32,1.39h-1.28l.31-1.39Z"/><rect x="154.1" y="41.76" width="54.73" height="1.2"/><text class="cls-1" transform="translate(213.92 47.64)">=</text><path d="M235.83,47.79a.69.69,0,0,1-.43-.13.8.8,0,0,1-.28-.36,2.07,2.07,0,0,1-.15-.56,5,5,0,0,1-.05-.7A8.51,8.51,0,0,1,235,45c0-.38.09-.77.16-1.17l.37-2.46c0-.15,0-.28.06-.41s0-.22,0-.28a1,1,0,0,0-.09-.45.31.31,0,0,0-.3-.18.79.79,0,0,0-.37.1,2.94,2.94,0,0,0-.39.26,4.4,4.4,0,0,0-.39.35l-.35.34-.43-.5c.19-.19.38-.38.59-.56a5.29,5.29,0,0,1,.66-.51,3.58,3.58,0,0,1,.73-.37,2.39,2.39,0,0,1,.79-.14,1.12,1.12,0,0,1,.55.12.85.85,0,0,1,.33.29,1.1,1.1,0,0,1,.17.4,2.15,2.15,0,0,1,0,.43,1.77,1.77,0,0,1,0,.24,1.5,1.5,0,0,1,0,.22l-.5,3.22c-.06.34-.1.67-.14,1s-.05.62-.05.86a3.37,3.37,0,0,0,0,.61c0,.15.09.23.17.23a1.71,1.71,0,0,0,.74-.23,5.92,5.92,0,0,0,.94-.65,10.06,10.06,0,0,0,1-1,8.32,8.32,0,0,0,.88-1.23,7.62,7.62,0,0,0,.64-1.39,4.71,4.71,0,0,0,.24-1.47.72.72,0,0,0-.14-.49.5.5,0,0,0-.43-.18,1,1,0,0,0-.69.29,5.21,5.21,0,0,0-.65.76l-.51-.45a4,4,0,0,1,.5-.61,4.27,4.27,0,0,1,.62-.52,3.11,3.11,0,0,1,.67-.36,1.86,1.86,0,0,1,.68-.13,1.16,1.16,0,0,1,.92.33,1.35,1.35,0,0,1,.29.9,3.84,3.84,0,0,1-.15,1,8.35,8.35,0,0,1-.43,1.16,12,12,0,0,1-.66,1.27,12.53,12.53,0,0,1-.85,1.25,10.81,10.81,0,0,1-1,1.15,8.58,8.58,0,0,1-1.1.94,5.47,5.47,0,0,1-1.15.64A3.15,3.15,0,0,1,235.83,47.79Z"/><path d="M248.62,51.43h-1.26c.06-.28.13-.57.2-.89s.15-.64.23-1,.15-.64.22-1,.14-.61.2-.88.1-.52.13-.74a2.87,2.87,0,0,0,0-.52,1,1,0,0,0-.15-.6.63.63,0,0,0-.51-.19,1.28,1.28,0,0,0-.67.23,3.47,3.47,0,0,0-.68.61,5.35,5.35,0,0,0-.57.86,3.62,3.62,0,0,0-.36,1l-.66,3.08h-1.27l1-4.22c.05-.23.09-.44.12-.61a4,4,0,0,0,0-.43c0-.31-.13-.47-.38-.47a.69.69,0,0,0-.24,0,1.28,1.28,0,0,0-.25.14,3,3,0,0,0-.29.25l-.35.35-.45-.42c.21-.22.41-.4.59-.56a3.35,3.35,0,0,1,.52-.39,2.16,2.16,0,0,1,.49-.23,1.93,1.93,0,0,1,.49-.07.93.93,0,0,1,.75.31,1.29,1.29,0,0,1,.26.83,2.64,2.64,0,0,1,0,.28,1.11,1.11,0,0,1-.07.26l.07,0A5.11,5.11,0,0,1,247,45.25a2.18,2.18,0,0,1,1.27-.43,1.37,1.37,0,0,1,1,.35,1.43,1.43,0,0,1,.34,1v.12a.45.45,0,0,1,0,.11h0a5,5,0,0,1,1.19-1.22,2.2,2.2,0,0,1,1.25-.4,1.3,1.3,0,0,1,1,.37,1.47,1.47,0,0,1,.34,1,3.36,3.36,0,0,1-.06.54c0,.22-.1.47-.16.74s-.13.56-.2.85-.15.57-.21.82-.07.31-.1.42,0,.19,0,.26l0,.19v.16a.56.56,0,0,0,.09.36.37.37,0,0,0,.29.11.64.64,0,0,0,.23,0,.91.91,0,0,0,.25-.14,2.05,2.05,0,0,0,.29-.25l.36-.36.44.42a5.93,5.93,0,0,1-.58.56,5,5,0,0,1-.51.39,2.39,2.39,0,0,1-.5.22,1.77,1.77,0,0,1-.52.08,1,1,0,0,1-.44-.09,1,1,0,0,1-.34-.25,1,1,0,0,1-.22-.38,1.4,1.4,0,0,1-.08-.47,5.54,5.54,0,0,1,.23-1.37c.08-.28.15-.55.22-.81s.12-.49.17-.71.09-.41.12-.58a4,4,0,0,0,0-.43.92.92,0,0,0-.15-.58.58.58,0,0,0-.48-.19,1,1,0,0,0-.43.1,2.28,2.28,0,0,0-.45.29,2.66,2.66,0,0,0-.45.44,3.65,3.65,0,0,0-.41.54,5.36,5.36,0,0,0-.34.62,4.26,4.26,0,0,0-.22.66Zm12.22-1.38a5.85,5.85,0,0,1-1.5,1.12,3.57,3.57,0,0,1-1.61.38,2.5,2.5,0,0,1-.9-.15,1.8,1.8,0,0,1-.66-.45,2,2,0,0,1-.41-.71,3,3,0,0,1-.14-.94,5.24,5.24,0,0,1,.07-.77,4.58,4.58,0,0,1,.2-.79,4.49,4.49,0,0,1,.34-.78,4.16,4.16,0,0,1,.47-.71,3.81,3.81,0,0,1,1.31-1,3.76,3.76,0,0,1,1.67-.38,1.89,1.89,0,0,1,1.26.36,1.27,1.27,0,0,1,.43,1c0,1.56-1.48,2.35-4.43,2.35a3.48,3.48,0,0,0-.05.36,3,3,0,0,0,0,.43,1.48,1.48,0,0,0,.29,1,1.12,1.12,0,0,0,.89.33,2.48,2.48,0,0,0,1.16-.28,3.6,3.6,0,0,0,.56-.37c.18-.15.38-.33.58-.53Zm-3.77-2.12a7.88,7.88,0,0,0,1.41-.13,3.31,3.31,0,0,0,1-.34A1.46,1.46,0,0,0,260,47a1.21,1.21,0,0,0,.18-.64.93.93,0,0,0-.2-.63.75.75,0,0,0-.58-.23,1.53,1.53,0,0,0-.71.18,2.27,2.27,0,0,0-.65.49,3.39,3.39,0,0,0-.56.78A4.73,4.73,0,0,0,257.07,47.93Z"/><path d="M268.22,49.2a5.81,5.81,0,0,0-.12.61,3,3,0,0,0,0,.4.5.5,0,0,0,.11.36.36.36,0,0,0,.28.11.59.59,0,0,0,.23,0,.91.91,0,0,0,.25-.14,2.82,2.82,0,0,0,.29-.25l.36-.36.21.21.22.21-.59.57a3.35,3.35,0,0,1-.52.39,2.12,2.12,0,0,1-.49.22,2,2,0,0,1-.49.07.91.91,0,0,1-.73-.3,1.25,1.25,0,0,1-.26-.83,1.77,1.77,0,0,1,.09-.56l-.09,0a7,7,0,0,1-.64.79,4.7,4.7,0,0,1-.61.53,2.25,2.25,0,0,1-.62.31,2.32,2.32,0,0,1-.65.1,1.41,1.41,0,0,1-1.19-.56,2.62,2.62,0,0,1-.42-1.61,5.88,5.88,0,0,1,.13-1.2,5.39,5.39,0,0,1,.38-1.09,4.41,4.41,0,0,1,.58-.93,4.13,4.13,0,0,1,.74-.71,3.19,3.19,0,0,1,.85-.46,2.74,2.74,0,0,1,.94-.17,3.67,3.67,0,0,1,.78.08,1.74,1.74,0,0,1,.68.34c.08-.27.14-.5.18-.7s.08-.36.11-.53a3.58,3.58,0,0,0,0-.4.53.53,0,0,0,0-.23.29.29,0,0,0-.12-.15,1.15,1.15,0,0,0-.26-.08l-.42,0,.09-.44,1.93-.08h.33Zm-.87-1.43c0-.24.09-.47.13-.7a3.91,3.91,0,0,0,.06-.64,1,1,0,0,0-.24-.75,1.07,1.07,0,0,0-.75-.22,1.55,1.55,0,0,0-.71.17,2.15,2.15,0,0,0-.6.45,3.51,3.51,0,0,0-.49.67,5,5,0,0,0-.36.81,6.29,6.29,0,0,0-.22.88,5.27,5.27,0,0,0-.07.87,2.12,2.12,0,0,0,.2,1,.67.67,0,0,0,.63.34,1.31,1.31,0,0,0,.66-.2,2.67,2.67,0,0,0,.71-.58,4.76,4.76,0,0,0,.62-.92A4.88,4.88,0,0,0,267.35,47.77Z"/><text class="cls-2" transform="translate(271.05 51.43)">−</text><path d="M284.14,48.31c-.07-.36-.14-.68-.2-1s-.11-.49-.16-.68a3.3,3.3,0,0,0-.15-.47,1.31,1.31,0,0,0-.14-.29.47.47,0,0,0-.17-.15.52.52,0,0,0-.2-.06.65.65,0,0,0-.2,0,.57.57,0,0,0-.2.13,2,2,0,0,0-.22.25q-.12.16-.27.42l-.5-.32c.18-.27.34-.49.48-.67a2.55,2.55,0,0,1,.42-.44,1.54,1.54,0,0,1,.44-.23,1.64,1.64,0,0,1,.52-.07,1,1,0,0,1,.59.16,1.12,1.12,0,0,1,.37.45,3.44,3.44,0,0,1,.25.73c.06.29.13.63.2,1h.09l.67-.88c.19-.25.36-.46.51-.64a5.67,5.67,0,0,1,.4-.42A1.77,1.77,0,0,1,287,45a1.16,1.16,0,0,1,.34-.12,2.5,2.5,0,0,1,.4,0,1.41,1.41,0,0,1,.59.12L288,46.21h-.54c0-.18-.08-.28-.21-.28l-.15,0a.92.92,0,0,0-.2.1l-.27.22q-.15.13-.36.36c-.14.15-.3.33-.47.55l-.61.76c.11.6.22,1.08.3,1.43a5.17,5.17,0,0,0,.24.83.9.9,0,0,0,.24.37.39.39,0,0,0,.26.09.64.64,0,0,0,.2,0,.5.5,0,0,0,.2-.11,1.23,1.23,0,0,0,.22-.26c.08-.11.18-.25.29-.43l.49.32q-.29.42-.51.69a2.15,2.15,0,0,1-.42.43,1,1,0,0,1-.43.21,2,2,0,0,1-.51.06,1.5,1.5,0,0,1-.44-.07.73.73,0,0,1-.33-.25.9.9,0,0,1-.18-.29c-.06-.13-.11-.26-.16-.4s-.09-.29-.13-.45-.07-.29-.1-.43,0-.25-.06-.36,0-.18,0-.23h-.07l-.67.9c-.2.26-.37.48-.53.66a3.79,3.79,0,0,1-.42.45,1.62,1.62,0,0,1-.37.29,1.66,1.66,0,0,1-.37.14,2.61,2.61,0,0,1-.42,0,1.28,1.28,0,0,1-.58-.12l.3-1.26h.55c0,.19.08.28.21.28l.14,0a.79.79,0,0,0,.16-.08,1.69,1.69,0,0,0,.23-.2c.09-.09.21-.21.35-.37s.32-.35.53-.59Z"/><text class="cls-3" transform="translate(289.69 47.64)"> </text></svg>