<svg id="Capa_1" data-name="Capa 1" xmlns="http://www.w3.org/2000/svg" viewBox="0 0 283.29 93.02"><defs><style>.cls-1,.cls-3{font-size:13.98px;}.cls-1,.cls-10,.cls-11,.cls-3,.cls-4,.cls-5,.cls-6,.cls-7{fill:#fff;}.cls-1{font-family:Consolas-Bold, Consolas;font-weight:700;}.cls-2{letter-spacing:0em;}.cls-3,.cls-4{font-family:Consolas;}.cls-4{font-size:9px;}.cls-10,.cls-6{font-size:22.02px;}.cls-6,.cls-7{font-family:CambriaMath, Cambria Math;}.cls-7{font-size:16.02px;}.cls-8{letter-spacing:0em;}.cls-9{letter-spacing:0em;}.cls-10,.cls-11{font-family:ArialMT, Arial;}.cls-11{font-size:25.98px;}</style></defs><title>formula_nave1</title><text class="cls-1" transform="translate(18.09 13.55)">Dato<tspan class="cls-2" x="30.74" y="0">s</tspan><tspan x="38.47" y="0">:</tspan></text><text class="cls-3" transform="translate(64.22 13.55)"> </text><text class="cls-4" transform="translate(18.09 27.71)"> </text><path class="cls-5" d="M27.33,53.24l1-.71.68.17-1.58,6.82a8,8,0,0,0-.23,1.59,1,1,0,0,0,.14.62.5.5,0,0,0,.44.2,1.21,1.21,0,0,0,.69-.27,8,8,0,0,0,1-1l.61.6a9,9,0,0,1-1.65,1.47,2.69,2.69,0,0,1-1.48.43,1.33,1.33,0,0,1-1.06-.44,1.65,1.65,0,0,1-.4-1.17,3.57,3.57,0,0,1,.25-1.26l-.14,0a9.36,9.36,0,0,1-2,2.2,3.18,3.18,0,0,1-2,.7,2.13,2.13,0,0,1-1.83-.89,4.23,4.23,0,0,1-.65-2.51A8.88,8.88,0,0,1,20,56.2a6.57,6.57,0,0,1,2-2.69,4.55,4.55,0,0,1,2.83-1,4.93,4.93,0,0,1,1.3.16A4.28,4.28,0,0,1,27.33,53.24Zm-.95,3.2a5.5,5.5,0,0,0,.13-.76c0-.22,0-.45,0-.7a1.77,1.77,0,0,0-.35-1.21A1.58,1.58,0,0,0,25,53.38a2.75,2.75,0,0,0-2,.89,6.14,6.14,0,0,0-1.37,2.39,9.53,9.53,0,0,0-.5,3,3.49,3.49,0,0,0,.31,1.67,1.08,1.08,0,0,0,1,.55,2.08,2.08,0,0,0,1.39-.61,8.88,8.88,0,0,0,1.41-1.75,7.66,7.66,0,0,0,1-2.61Z"/><path class="cls-5" d="M39.37,59.74h-.83A3.3,3.3,0,0,0,38.4,59a1.27,1.27,0,0,0-.29-.54,1,1,0,0,0-.48-.31,2.09,2.09,0,0,0-.71-.1,2.21,2.21,0,0,0-1.09.28,3.78,3.78,0,0,0-.95.77,5.82,5.82,0,0,0-.77,1.14,9.52,9.52,0,0,0-.58,1.38,10.74,10.74,0,0,0-.37,1.51A9.8,9.8,0,0,0,33,64.6a2.64,2.64,0,0,0,.44,1.71,1.68,1.68,0,0,0,1.36.53,3.22,3.22,0,0,0,.84-.1,2.33,2.33,0,0,0,.7-.32,2.68,2.68,0,0,0,.6-.57,4.92,4.92,0,0,0,.5-.83h.86l-.5,2.18c-.28.08-.55.16-.81.21a7.37,7.37,0,0,1-.77.14l-.74.09-.75,0a4.26,4.26,0,0,1-1.44-.23,2.83,2.83,0,0,1-1-.67,2.77,2.77,0,0,1-.64-1.06,4.19,4.19,0,0,1-.22-1.42,8.83,8.83,0,0,1,.21-2,8,8,0,0,1,.57-1.71,6.6,6.6,0,0,1,.9-1.42,5.81,5.81,0,0,1,1.14-1.08,4.6,4.6,0,0,1,1.32-.68A4.51,4.51,0,0,1,37,57.2c.23,0,.46,0,.68,0a5.26,5.26,0,0,1,.67.07c.23,0,.46.08.7.13s.49.13.76.22Z"/><text class="cls-6" transform="translate(47.79 62.99)">=</text><path class="cls-5" d="M74.57,40l-.12.49a1.24,1.24,0,0,0-.43.1.6.6,0,0,0-.27.22,1,1,0,0,0-.14.37,4,4,0,0,0,0,.54c0,.07,0,.15,0,.27s0,.26,0,.45c0,.52.07,1,.1,1.59s.07,1.07.1,1.58.06,1,.08,1.46,0,.87,0,1.22H74L77.16,43c.15-.26.28-.48.38-.67a4,4,0,0,0,.23-.49,2.87,2.87,0,0,0,.13-.38,2,2,0,0,0,0-.34c0-.39-.28-.61-.83-.64l.1-.49h3.42l-.09.49a1.52,1.52,0,0,0-.32.06.83.83,0,0,0-.32.2,3.86,3.86,0,0,0-.4.48c-.15.21-.35.5-.58.88l-5,8.18H72.73c-.12-1.39-.23-2.77-.34-4.13s-.22-2.76-.33-4.16a4.69,4.69,0,0,0-.09-.64,1.51,1.51,0,0,0-.18-.45.92.92,0,0,0-.3-.29,1.14,1.14,0,0,0-.45-.13l.11-.49Z"/><path class="cls-5" d="M74.11,69.67c-.07.28-.13.57-.21.89s-.14.63-.21.93-.13.59-.18.85a3.51,3.51,0,0,0-.07.64.79.79,0,0,0,0,.28.4.4,0,0,0,.14.18.7.7,0,0,0,.26.11,2.22,2.22,0,0,0,.43.06l-.1.48H70.87l.08-.48a1.66,1.66,0,0,0,.4-.1.61.61,0,0,0,.27-.22,1.65,1.65,0,0,0,.22-.51c.07-.22.15-.53.24-.94l1.28-5.7c0-.23.09-.43.12-.61a2.64,2.64,0,0,0,0-.44.62.62,0,0,0-.18-.5,1,1,0,0,0-.66-.15l.12-.5h3.59a6.92,6.92,0,0,1,1.72.18,3,3,0,0,1,1.1.5,1.69,1.69,0,0,1,.59.75,2.52,2.52,0,0,1,.17.93,2.73,2.73,0,0,1-.71,1.93,4.42,4.42,0,0,1-2.14,1.18.14.14,0,0,0,0,.06v0a2,2,0,0,1,.59.63,3.92,3.92,0,0,1,.39,1c.12.49.23.89.31,1.19a2.55,2.55,0,0,0,.28.71,1,1,0,0,0,.41.39,2.2,2.2,0,0,0,.67.18l-.11.48H77.36a4.87,4.87,0,0,1-.27-.75c-.09-.29-.17-.58-.24-.86s-.19-.77-.26-1.07-.14-.55-.21-.76a2.64,2.64,0,0,0-.21-.49,1.08,1.08,0,0,0-.26-.3.82.82,0,0,0-.36-.14l-.51,0Zm1.09-.79a3.88,3.88,0,0,0,2.38-.63,2.26,2.26,0,0,0,.83-1.91,2,2,0,0,0-.13-.73,1,1,0,0,0-.41-.49,2.17,2.17,0,0,0-.72-.27,6.24,6.24,0,0,0-1.05-.08h-.9l-.93,4.09Z"/><rect class="cls-5" x="70.35" y="55.97" width="10.98" height="1.44"/><text class="cls-7" transform="translate(81.33 44.87)">2</text><text class="cls-6" transform="translate(95.19 62.99)"><tspan xml:space="preserve">    </tspan><tspan class="cls-8" x="19.4" y="0"> </tspan><tspan x="24.2" y="0" xml:space="preserve">  </tspan><tspan class="cls-8" x="33.9" y="0"> </tspan><tspan x="38.7" y="0" xml:space="preserve">   </tspan><tspan class="cls-9" x="53.25" y="0"> </tspan><tspan x="58.06" y="0" xml:space="preserve">  </tspan></text><path class="cls-5" d="M172.36,53.24l1-.71.69.17-1.58,6.82a7.45,7.45,0,0,0-.24,1.59,1.09,1.09,0,0,0,.14.62.5.5,0,0,0,.44.2,1.21,1.21,0,0,0,.69-.27,7.35,7.35,0,0,0,1-1l.61.6a9,9,0,0,1-1.65,1.47,2.69,2.69,0,0,1-1.48.43,1.33,1.33,0,0,1-1.06-.44,1.65,1.65,0,0,1-.4-1.17,3.57,3.57,0,0,1,.25-1.26l-.14,0a9.36,9.36,0,0,1-2,2.2,3.15,3.15,0,0,1-1.95.7,2.16,2.16,0,0,1-1.84-.89,4.23,4.23,0,0,1-.65-2.51A8.88,8.88,0,0,1,165,56.2a6.66,6.66,0,0,1,2-2.69,4.55,4.55,0,0,1,2.83-1,5,5,0,0,1,1.31.16A4.35,4.35,0,0,1,172.36,53.24Zm-1,3.2a5.5,5.5,0,0,0,.13-.76c0-.22,0-.45,0-.7a1.72,1.72,0,0,0-.35-1.21,1.58,1.58,0,0,0-1.21-.39,2.73,2.73,0,0,0-2,.89,6,6,0,0,0-1.38,2.39,9.53,9.53,0,0,0-.5,3,3.62,3.62,0,0,0,.31,1.67,1.09,1.09,0,0,0,1,.55,2.07,2.07,0,0,0,1.39-.61,8.22,8.22,0,0,0,1.41-1.75,7.67,7.67,0,0,0,1-2.61Z"/><path class="cls-5" d="M184.33,59.74h-.83a3.3,3.3,0,0,0-.14-.78,1.27,1.27,0,0,0-.29-.54,1,1,0,0,0-.48-.31,2.09,2.09,0,0,0-.71-.1,2.21,2.21,0,0,0-1.09.28,3.78,3.78,0,0,0-.95.77,5.82,5.82,0,0,0-.77,1.14,9.52,9.52,0,0,0-.58,1.38,10.74,10.74,0,0,0-.37,1.51A9.8,9.8,0,0,0,178,64.6a2.64,2.64,0,0,0,.44,1.71,1.68,1.68,0,0,0,1.36.53,3.22,3.22,0,0,0,.84-.1,2.33,2.33,0,0,0,.7-.32,2.68,2.68,0,0,0,.6-.57,4.92,4.92,0,0,0,.5-.83h.86l-.5,2.18c-.28.08-.55.16-.81.21a7.37,7.37,0,0,1-.77.14l-.74.09-.75,0a4.26,4.26,0,0,1-1.44-.23,2.83,2.83,0,0,1-1-.67,2.77,2.77,0,0,1-.64-1.06,4.19,4.19,0,0,1-.22-1.42,8.83,8.83,0,0,1,.21-2,8,8,0,0,1,.57-1.71,6.6,6.6,0,0,1,.9-1.42,5.81,5.81,0,0,1,1.14-1.08,4.6,4.6,0,0,1,1.32-.68A4.51,4.51,0,0,1,182,57.2c.23,0,.46,0,.68,0a5.26,5.26,0,0,1,.67.07c.23,0,.46.08.7.13s.49.13.76.22Z"/><text class="cls-6" transform="translate(192.69 62.99)">=</text><text class="cls-6" transform="translate(215.26 62.99)">3</text><path class="cls-5" d="M230.07,63.92a3.54,3.54,0,0,0-.34.48,2.28,2.28,0,0,0-.2.47,2.12,2.12,0,0,0-.06.54,1.29,1.29,0,0,0,.58,1.18,3.38,3.38,0,0,0,1.75.37,3.47,3.47,0,0,0,2.13-.6,4.66,4.66,0,0,0,1.37-1.92,21.38,21.38,0,0,0,1.11-4l-.16,0a9.82,9.82,0,0,1-1.93,2.09,3.24,3.24,0,0,1-1.92.65,2.14,2.14,0,0,1-1.83-.88,4.23,4.23,0,0,1-.65-2.52,9,9,0,0,1,.72-3.53,6.66,6.66,0,0,1,2-2.69,4.5,4.5,0,0,1,2.85-1,4.83,4.83,0,0,1,1.28.16,4.52,4.52,0,0,1,1.22.55l1-.71.68.17-1.1,5c-.08.35-.26,1.24-.54,2.66s-.53,2.57-.72,3.19a9,9,0,0,1-.68,1.7,4.59,4.59,0,0,1-1.05,1.34,4.53,4.53,0,0,1-1.57.89,7,7,0,0,1-2.17.31q-4.07,0-4.07-2.37a1.78,1.78,0,0,1,.37-1.1,5,5,0,0,1,1.17-1Zm3.09-2a1.91,1.91,0,0,0,1.09-.37,5.35,5.35,0,0,0,1.16-1.2,8.45,8.45,0,0,0,1-1.56,8.86,8.86,0,0,0,.59-1.84A9.28,9.28,0,0,0,237.2,55a1.78,1.78,0,0,0-.35-1.22,1.59,1.59,0,0,0-1.19-.38,2.65,2.65,0,0,0-2,.89,6,6,0,0,0-1.37,2.39,9.25,9.25,0,0,0-.5,3,3.36,3.36,0,0,0,.32,1.67A1.07,1.07,0,0,0,233.16,61.88Z"/><text class="cls-10" transform="translate(241.23 62.99)"> </text><text class="cls-10" transform="translate(247.35 62.99)"> </text><text class="cls-11" transform="translate(18.09 102.35)"> </text></svg>