<svg id="Capa_1" data-name="Capa 1" xmlns="http://www.w3.org/2000/svg" viewBox="0 0 1269.42 241.15"><defs><style>.cls-1{font-size:59.19px;}.cls-1,.cls-2,.cls-3,.cls-4,.cls-5,.cls-7{font-family:ArialMT, Arial;}.cls-2{font-size:34.62px;}.cls-3{font-size:74.97px;}.cls-4{font-size:39.66px;}.cls-5{font-size:47.29px;}.cls-6,.cls-8{fill:none;stroke:#000;stroke-miterlimit:10;}.cls-6{stroke-width:4px;}.cls-7{font-size:36.6px;}.cls-8{stroke-width:3px;}</style></defs><title>formula2</title><text class="cls-1" transform="translate(424.01 121.6)">h</text><text class="cls-1" transform="translate(287.91 87.12)">V</text><text class="cls-1" transform="translate(301.39 196.36)">V</text><text class="cls-1" transform="translate(335.08 227.36)">f</text><text class="cls-2" transform="translate(364.22 170.94)">2</text><text class="cls-1" transform="translate(1061.16 182.35)">x</text><text class="cls-1" transform="translate(1089.66 210.97)">i</text><text class="cls-1" transform="translate(447.26 196.36)">V</text><text class="cls-1" transform="translate(480.95 227.36)">i</text><text class="cls-1" transform="translate(733.21 202.21)">f</text><text class="cls-1" transform="translate(839.85 201.21)">i</text><text class="cls-2" transform="translate(510.09 170.94)">2</text><text class="cls-3" transform="translate(10.1 83.17)">Datos:</text><text class="cls-3" transform="translate(10.1 196.36)">Usando</text><text class="cls-1" transform="translate(338.76 87.11)">=</text><text class="cls-1" transform="translate(398.68 201.21)">=</text><text class="cls-1" transform="translate(1164.75 196.36)">0</text><text class="cls-1" transform="translate(1116.17 201.21)">=</text><text class="cls-1" transform="translate(505.13 83.16)">=</text><text class="cls-4" transform="translate(397.12 48.33)">80 km</text><text class="cls-5" transform="translate(557.84 66.87)">22,22</text><line class="cls-6" x1="398.68" y1="66.16" x2="482.38" y2="66.16"/><text class="cls-7" transform="translate(690.53 44.8)">m<tspan x="0" y="43.92">s</tspan></text><line class="cls-8" x1="681.87" y1="54.94" x2="727.23" y2="54.94"/><text class="cls-1" transform="translate(544.82 198.5)">+</text><text class="cls-1" transform="translate(599.22 182.35)"><tspan xml:space="preserve">2a (x  - x  ) </tspan></text><text class="cls-1" transform="translate(951.17 199.58)">sea</text></svg>