<svg id="Capa_1" data-name="Capa 1" xmlns="http://www.w3.org/2000/svg" viewBox="0 0 357.85 73.99"><defs><style>.cls-1,.cls-2{font-size:25.98px;}.cls-1{font-family:CambriaMath, Cambria Math;}.cls-2{font-family:ArialMT, Arial;}.cls-3{fill:none;stroke:#000;stroke-miterlimit:10;stroke-width:2px;}</style></defs><title>formula_nave3</title><text class="cls-1" transform="translate(16.98 44.54)">=</text><text class="cls-1" transform="translate(62.93 44.54)">3</text><text class="cls-1" transform="translate(77.33 43.4)">(</text><text class="cls-1" transform="translate(88.13 44.54)">9</text><text class="cls-1" transform="translate(102.53 44.54)">,</text><text class="cls-1" transform="translate(107.85 44.54)">81</text><text class="cls-1" transform="translate(136.67 43.4)">)</text><text class="cls-1" transform="translate(147.47 43.4)">(</text><text class="cls-1" transform="translate(158.28 44.54)">9</text><text class="cls-1" transform="translate(172.67 44.54)">,</text><text class="cls-1" transform="translate(178 44.54)">45</text><text class="cls-1" transform="translate(206.76 43.4)">)</text><rect x="62.94" y="19.04" width="154.62" height="1.68"/><text class="cls-1" transform="translate(224.76 44.54)">=</text><text class="cls-1" transform="translate(251.38 44.54)">16</text><text class="cls-1" transform="translate(280.2 44.54)">,</text><text class="cls-1" transform="translate(285.52 44.54)">68</text><path d="M324.23,16a10.41,10.41,0,0,1,2.32-2.59,4,4,0,0,1,2.33-.84,2.41,2.41,0,0,1,1.86.69,2.87,2.87,0,0,1,.63,2v.18a1.28,1.28,0,0,1,0,.19,9.34,9.34,0,0,1,2.17-2.3,3.88,3.88,0,0,1,2.26-.76,2.37,2.37,0,0,1,1.8.67,2.66,2.66,0,0,1,.63,1.89,9.82,9.82,0,0,1-.37,2.27L337,20.68a9.33,9.33,0,0,0-.34,1.95,1.31,1.31,0,0,0,.16.74.6.6,0,0,0,.52.23,1.4,1.4,0,0,0,.81-.32,8.2,8.2,0,0,0,1.22-1.18l.72.71a12,12,0,0,1-1.9,1.7,3.27,3.27,0,0,1-1.85.54,1.62,1.62,0,0,1-1.32-.59,2.24,2.24,0,0,1-.5-1.5,10.4,10.4,0,0,1,.42-2.42l.56-2.2c.2-.79.34-1.38.4-1.76a6.45,6.45,0,0,0,.1-.93,2.09,2.09,0,0,0-.3-1.26,1.1,1.1,0,0,0-1-.39,2.18,2.18,0,0,0-1.14.4,6.15,6.15,0,0,0-1.28,1.25,10.35,10.35,0,0,0-1.1,1.66,8.05,8.05,0,0,0-.68,2l-1.15,5.54h-2.19l1.45-6.44c.18-.79.3-1.37.37-1.75a6.23,6.23,0,0,0,.09-1,2.08,2.08,0,0,0-.32-1.3,1.24,1.24,0,0,0-1-.39,2.15,2.15,0,0,0-1.1.4,5.81,5.81,0,0,0-1.31,1.29,8.71,8.71,0,0,0-1.09,1.69,9.54,9.54,0,0,0-.66,2l-1.21,5.49h-2.19l1.85-8a8.83,8.83,0,0,0,.28-1.88,1.24,1.24,0,0,0-.17-.73.58.58,0,0,0-.52-.23,1.4,1.4,0,0,0-.83.32,10.11,10.11,0,0,0-1.2,1.17l-.72-.71a13.41,13.41,0,0,1,1.92-1.7,3.13,3.13,0,0,1,1.77-.54,1.6,1.6,0,0,1,1.27.52,2.07,2.07,0,0,1,.46,1.38,4.31,4.31,0,0,1-.29,1.48Z"/><path d="M333.07,52.88a2.77,2.77,0,0,0-.74-1.71,2.65,2.65,0,0,0-1.9-.59,2.41,2.41,0,0,0-1.62.52,1.64,1.64,0,0,0-.62,1.35,2,2,0,0,0,.15.8A2.37,2.37,0,0,0,329,54a11.63,11.63,0,0,0,1.49,1,9.56,9.56,0,0,1,1.28.88,4.26,4.26,0,0,1,.76.79,2.68,2.68,0,0,1,.41.83,3.7,3.7,0,0,1,.13,1.06,3.1,3.1,0,0,1-.61,1.94,3.58,3.58,0,0,1-1.63,1.2,6.66,6.66,0,0,1-2.35.39A12.76,12.76,0,0,1,326.4,62a14.87,14.87,0,0,1-2.26-.54l.61-2.76h1a2.64,2.64,0,0,0,.68,1.84,2.84,2.84,0,0,0,2,.62,2.94,2.94,0,0,0,1.88-.54,1.82,1.82,0,0,0,.68-1.53,2.26,2.26,0,0,0-.19-1,2.35,2.35,0,0,0-.62-.8,10.41,10.41,0,0,0-1.37-.95,10,10,0,0,1-1.54-1.08,3.31,3.31,0,0,1-.83-1,2.86,2.86,0,0,1-.28-1.3,2.94,2.94,0,0,1,.54-1.76A3.41,3.41,0,0,1,328.25,50a6.21,6.21,0,0,1,2.33-.41,15.52,15.52,0,0,1,2.15.14,10.41,10.41,0,0,1,1.94.49l-.57,2.66Z"/><rect x="318.66" y="36.26" width="22.26" height="1.68"/><text class="cls-2" transform="translate(345.24 44.54)"> </text><text class="cls-2" transform="translate(352.43 44.54)"> </text><polyline class="cls-3" points="63.89 19.44 53.52 45.73 48.91 32.59"/></svg>