<svg id="Capa_1" data-name="Capa 1" xmlns="http://www.w3.org/2000/svg" viewBox="0 0 609.94 461.99"><defs><style>.cls-1,.cls-2,.cls-8{fill:none;stroke-linecap:round;stroke-miterlimit:10;}.cls-1{stroke:#40a7e3;stroke-width:3px;stroke-dasharray:10;}.cls-2{stroke:#000;}.cls-3{fill:#1b71a3;}.cls-4{fill:#e6a754;}.cls-5{font-size:21.01px;}.cls-10,.cls-5{font-family:Arial-ItalicMT, Arial;font-style:italic;}.cls-6{fill:#1b1b1b;}.cls-10,.cls-7{font-size:14px;}.cls-8{stroke:#965b0c;stroke-width:4px;stroke-dasharray:1 10;}.cls-9{fill:#965b0c;}</style></defs><title>imagenejemploparticula</title><circle class="cls-1" cx="235.44" cy="228.86" r="153.48"/><line class="cls-2" x1="233.28" y1="141.18" x2="233.28" y2="314.51"/><line class="cls-2" x1="158.57" y1="184.38" x2="307.99" y2="271.32"/><line class="cls-2" x1="157.48" y1="271.05" x2="309.08" y2="184.65"/><polygon class="cls-3" points="233.9 68.15 131.64 68.15 131.64 61.86 114.56 71.72 131.64 81.59 131.64 75.29 233.9 75.29 233.9 68.15"/><polygon class="cls-3" points="235.22 386.85 337.48 386.85 337.48 393.15 354.56 383.28 337.48 373.41 337.48 379.71 235.22 379.71 235.22 386.85"/><polygon class="cls-4" points="231.46 73.61 231.46 121.06 227.26 121.06 233.84 132.45 240.42 121.06 236.22 121.06 236.22 73.61 231.46 73.61"/><polygon class="cls-4" points="236.09 379.43 236.09 331.99 240.28 331.99 233.71 320.6 227.13 331.99 231.33 331.99 231.33 379.43 236.09 379.43"/><polygon class="cls-3" points="371.48 148.45 319.02 61.01 324.42 57.77 307.17 48.2 307.5 67.93 312.9 64.69 365.36 152.12 371.48 148.45"/><polygon class="cls-4" points="362.22 150.05 323.49 172.86 321.36 169.24 314.88 180.69 328.03 180.58 325.9 176.96 364.64 154.15 362.22 150.05"/><polygon class="cls-3" points="367.12 308.83 421.09 217.93 426.51 221.15 426.74 201.42 409.54 211.07 414.95 214.29 360.98 305.18 367.12 308.83"/><polygon class="cls-3" points="99.38 147.78 43.86 237.73 38.5 234.43 37.93 254.14 55.29 244.79 49.94 241.48 105.45 151.53 99.38 147.78"/><polygon class="cls-3" points="97.07 305.35 149.29 397.26 143.82 400.37 160.83 410.35 160.97 390.62 155.5 393.73 103.28 301.82 97.07 305.35"/><polygon class="cls-4" points="362.48 300.74 327.86 279.38 330.06 275.81 316.92 275.43 323.16 287 325.36 283.43 359.98 304.79 362.48 300.74"/><polygon class="cls-4" points="103.09 155.37 137.71 176.73 135.51 180.3 148.65 180.69 142.41 169.11 140.21 172.68 105.59 151.32 103.09 155.37"/><polygon class="cls-4" points="106.49 303.6 141.81 283.43 143.89 287.07 150.52 275.71 137.37 275.65 139.45 279.29 104.13 299.46 106.49 303.6"/><circle cx="101.43" cy="152.44" r="9.27"/><circle cx="234.28" cy="380.62" r="9.27"/><circle cx="102.31" cy="305.15" r="9.27"/><circle cx="233.83" cy="74.77" r="9.27"/><circle cx="365.36" cy="151.56" r="9.27"/><circle cx="367.12" cy="305.15" r="9.27"/><text class="cls-5" transform="translate(419.62 264.44)">V</text><polygon class="cls-6" points="417.54 244.38 431.63 244.38 431.63 246.47 437.32 243.19 431.63 239.9 431.63 242 417.54 242 417.54 244.38"/><text class="cls-5" transform="translate(301.75 418.67)">V</text><polygon class="cls-6" points="299.67 398.6 313.76 398.6 313.76 400.7 319.46 397.41 313.76 394.12 313.76 396.22 299.67 396.22 299.67 398.6"/><text class="cls-5" transform="translate(101.2 391.11)">V</text><polygon class="cls-6" points="99.12 371.04 113.21 371.04 113.21 373.14 118.9 369.85 113.21 366.56 113.21 368.66 99.12 368.66 99.12 371.04"/><text class="cls-5" transform="translate(27.9 221.05)">V</text><polygon class="cls-6" points="25.82 200.98 39.91 200.98 39.91 203.08 45.6 199.79 39.91 196.5 39.91 198.6 25.82 198.6 25.82 200.98"/><text class="cls-5" transform="translate(135.79 58.61)">V</text><polygon class="cls-6" points="133.72 38.55 147.81 38.55 147.81 40.65 153.5 37.36 147.81 34.07 147.81 36.17 133.72 36.17 133.72 38.55"/><text class="cls-5" transform="translate(346.9 77.97)">V</text><polygon class="cls-6" points="344.83 57.9 358.92 57.9 358.92 60 364.61 56.71 358.92 53.42 358.92 55.52 344.83 55.52 344.83 57.9"/><text class="cls-5" transform="translate(181.82 126.16)">a<tspan class="cls-7" x="11.69" y="0">rad</tspan></text><polygon class="cls-6" points="183.44 110.54 191.59 110.54 191.59 112.64 197.28 109.35 191.59 106.06 191.59 108.16 183.44 108.16 183.44 110.54"/><text class="cls-5" transform="translate(102.29 202.24)">a<tspan class="cls-7" x="11.69" y="0">rad</tspan></text><polygon class="cls-6" points="103.91 186.62 112.05 186.62 112.05 188.72 117.75 185.43 112.05 182.14 112.05 184.24 103.91 184.24 103.91 186.62"/><text class="cls-5" transform="translate(123.91 319.81)">a<tspan class="cls-7" x="11.69" y="0">rad</tspan></text><polygon class="cls-6" points="125.53 304.19 133.67 304.19 133.67 306.29 139.36 303 133.67 299.71 133.67 301.81 125.53 301.81 125.53 304.19"/><text class="cls-5" transform="translate(247.53 364.77)">a<tspan class="cls-7" x="11.69" y="0">rad</tspan></text><polygon class="cls-6" points="249.15 349.15 257.3 349.15 257.3 351.25 262.99 347.96 257.3 344.67 257.3 346.77 249.15 346.77 249.15 349.15"/><text class="cls-5" transform="translate(338.31 269.67)">a<tspan class="cls-7" x="11.69" y="0">rad</tspan></text><polygon class="cls-6" points="339.93 254.05 348.07 254.05 348.07 256.15 353.76 252.86 348.07 249.57 348.07 251.67 339.93 251.67 339.93 254.05"/><text class="cls-5" transform="translate(309.78 146.04)">a<tspan class="cls-7" x="11.69" y="0">rad</tspan></text><polygon class="cls-6" points="311.4 130.42 319.54 130.42 319.54 132.52 325.23 129.23 319.54 125.94 319.54 128.04 311.4 128.04 311.4 130.42"/><path class="cls-8" d="M326,187.82s73.9,44.16,119-55"/><polygon class="cls-9" points="328.67 189.5 323.12 195.05 323.17 189.55 323.22 184.06 328.72 184 334.22 183.95 328.67 189.5"/><text class="cls-10" transform="translate(405.42 93.94)">La aceleración tiene <tspan x="-16.34" y="16.8">magnitud constante, pero </tspan><tspan x="8.18" y="33.6">dirección variable</tspan></text><text class="cls-10" transform="translate(467.29 300.63)">La velocidad y la <tspan x="-23.73" y="16.8">aceleración siempre son </tspan><tspan x="2.33" y="33.6">perpendiculares</tspan></text><path class="cls-8" d="M381.33,311.28s10,19.42,52.61,6.26"/><polygon class="cls-9" points="383.95 313.94 378.4 319.49 378.45 313.99 378.5 308.49 384 308.44 389.5 308.39 383.95 313.94"/></svg>