<svg id="Capa_1" data-name="Capa 1" xmlns="http://www.w3.org/2000/svg" viewBox="0 0 852.8 460.65"><defs><style>.cls-1{font-size:77.29px;}.cls-1,.cls-3,.cls-4,.cls-6,.cls-8{font-family:Arial-ItalicMT, Arial;}.cls-1,.cls-3,.cls-4,.cls-6,.cls-8,.cls-9{font-style:italic;}.cls-2{fill:#211b21;}.cls-3{font-size:35.79px;}.cls-4{font-size:29.44px;}.cls-5{letter-spacing:-0.04em;}.cls-6{font-size:19.64px;}.cls-7{fill:none;stroke:#211b21;stroke-linecap:round;stroke-miterlimit:10;stroke-width:2px;}.cls-8{font-size:27.86px;}.cls-9{font-size:33.42px;font-family:Arial-BoldItalicMT, Arial;font-weight:700;}.cls-10{letter-spacing:-0.07em;}.cls-11{letter-spacing:0em;}</style></defs><title>movimientobote</title><text class="cls-1" transform="translate(49.63 77.63)">v</text><polygon class="cls-2" points="130.15 20.64 116.86 12.97 116.86 18.96 50.21 18.96 50.21 22.32 116.86 22.32 116.86 28.31 130.15 20.64"/><text class="cls-3" transform="translate(86.91 77.55)">br</text><text class="cls-4" transform="translate(184.68 79.03)">= <tspan class="cls-5" x="25.37" y="0">V</tspan><tspan x="43.91" y="0">elocidad bote con relación al río</tspan></text><text class="cls-1" transform="translate(49.63 171.74)">v</text><polygon class="cls-2" points="130.15 114.75 116.86 107.09 116.86 113.08 50.21 113.08 50.21 116.44 116.86 116.44 116.86 122.42 130.15 114.75"/><text class="cls-3" transform="translate(86.91 171.67)">bT</text><text class="cls-4" transform="translate(156.05 173.14)">= <tspan class="cls-5" x="25.37" y="0">V</tspan><tspan x="43.91" y="0">elocidad bote con relación a la tierra</tspan></text><text class="cls-1" transform="translate(49.63 265.86)">v</text><polygon class="cls-2" points="130.15 208.87 116.86 201.2 116.86 207.19 50.21 207.19 50.21 210.55 116.86 210.55 116.86 216.54 130.15 208.87"/><text class="cls-3" transform="translate(86.91 265.78)">bT</text><text class="cls-4" transform="translate(167.52 267.26)">= <tspan class="cls-5" x="25.37" y="0">V</tspan><tspan x="43.91" y="0">elocidad río con relación a la tierra</tspan></text><text class="cls-6" transform="translate(268.8 370.53)">por lo tanto,</text><path d="M43.79,383.69l-3.85-23.47h3.89l2,12.93c.22,1.42.5,3.72.82,6.92.77-1.67,1.75-3.57,2.94-5.73l7.85-14.12h4.22L48.23,383.69Z"/><polygon class="cls-2" points="83.52 350.32 75.74 345.83 75.74 349.33 36.7 349.33 36.7 351.3 75.74 351.3 75.74 354.81 83.52 350.32"/><path d="M58.89,383.65l3.13-15h1.86L62.76,374a6.86,6.86,0,0,1,1.6-1.15,3.52,3.52,0,0,1,1.49-.33,3.28,3.28,0,0,1,2.55,1.14,4.79,4.79,0,0,1,1,3.3,8.23,8.23,0,0,1-.4,2.65,7.87,7.87,0,0,1-1,2,6.5,6.5,0,0,1-1.25,1.3,5,5,0,0,1-1.32.72,3.86,3.86,0,0,1-1.3.24,3.31,3.31,0,0,1-1.89-.56A3.68,3.68,0,0,1,61,381.59l-.43,2.06Zm2.75-4.46v.34a3,3,0,0,0,.66,2.12,2.14,2.14,0,0,0,1.66.73,2.76,2.76,0,0,0,1.79-.68,4.91,4.91,0,0,0,1.33-2.13,7.81,7.81,0,0,0,.52-2.66,3.16,3.16,0,0,0-.66-2.13A2.08,2.08,0,0,0,65.3,374a2.63,2.63,0,0,0-1.84.77,5.7,5.7,0,0,0-1.4,2.38A6.32,6.32,0,0,0,61.64,379.19Z"/><path d="M74.61,383.65l2.78-13.3H72.47l.35-1.71H84.64l-.36,1.71H79.39l-2.77,13.3Z"/><polygon class="cls-2" points="648.15 350.32 640.37 345.83 640.37 349.33 601.34 349.33 601.34 351.3 640.37 351.3 640.37 354.81 648.15 350.32"/><path d="M130.74,383.69l-3.85-23.47h3.89l2,12.93c.23,1.42.5,3.72.82,6.92.77-1.67,1.75-3.57,2.94-5.73l7.85-14.12h4.22l-13.44,23.47Z"/><polygon class="cls-2" points="170.47 350.32 162.69 345.83 162.69 349.33 123.65 349.33 123.65 351.3 162.69 351.3 162.69 354.81 170.47 350.32"/><path d="M145.84,383.65l3.14-15h1.85L149.71,374a6.86,6.86,0,0,1,1.6-1.15,3.55,3.55,0,0,1,1.49-.33,3.28,3.28,0,0,1,2.55,1.14,4.79,4.79,0,0,1,1,3.3,8.23,8.23,0,0,1-.41,2.65,7.56,7.56,0,0,1-1,2,6.47,6.47,0,0,1-1.24,1.3,5,5,0,0,1-1.32.72,4,4,0,0,1-1.3.24,3.32,3.32,0,0,1-1.9-.56,3.75,3.75,0,0,1-1.28-1.74l-.43,2.06Zm2.75-4.46v.34a3,3,0,0,0,.66,2.12,2.16,2.16,0,0,0,1.66.73,2.76,2.76,0,0,0,1.79-.68,4.82,4.82,0,0,0,1.33-2.13,7.84,7.84,0,0,0,.53-2.66,3.11,3.11,0,0,0-.67-2.13,2.08,2.08,0,0,0-1.63-.75,2.63,2.63,0,0,0-1.84.77,5.7,5.7,0,0,0-1.4,2.38A6.32,6.32,0,0,0,148.59,379.19Z"/><path d="M157.5,383.65l2.28-10.87h1.63L161,375a7.41,7.41,0,0,1,1.65-1.86,2.65,2.65,0,0,1,1.64-.61,3.31,3.31,0,0,1,1.36.4l-.76,1.72a1.77,1.77,0,0,0-1.05-.35,2.84,2.84,0,0,0-2,1.09,8.15,8.15,0,0,0-1.6,3.9l-.93,4.36Z"/><path d="M501.66,383.69l-3.84-23.47h3.89l2,12.93c.22,1.42.49,3.72.82,6.92.76-1.67,1.74-3.57,2.94-5.73l7.84-14.12h4.23l-13.44,23.47Z"/><polygon class="cls-2" points="541.39 350.32 533.62 345.83 533.62 349.33 494.58 349.33 494.58 351.3 533.62 351.3 533.62 354.81 541.39 350.32"/><path d="M516.77,383.65l3.13-15h1.85L520.64,374a6.86,6.86,0,0,1,1.6-1.15,3.48,3.48,0,0,1,1.49-.33,3.26,3.26,0,0,1,2.54,1.14,4.79,4.79,0,0,1,1,3.3,8,8,0,0,1-.41,2.65,7.55,7.55,0,0,1-1,2,6.5,6.5,0,0,1-1.25,1.3,5,5,0,0,1-1.32.72,3.86,3.86,0,0,1-1.3.24,3.27,3.27,0,0,1-1.89-.56,3.62,3.62,0,0,1-1.28-1.74l-.43,2.06Zm2.74-4.46v.34a3,3,0,0,0,.67,2.12,2.13,2.13,0,0,0,1.66.73,2.74,2.74,0,0,0,1.78-.68,4.83,4.83,0,0,0,1.34-2.13,7.81,7.81,0,0,0,.52-2.66,3.16,3.16,0,0,0-.66-2.13,2.08,2.08,0,0,0-1.63-.75,2.62,2.62,0,0,0-1.84.77,5.81,5.81,0,0,0-1.41,2.38A6.32,6.32,0,0,0,519.51,379.19Z"/><path d="M528.43,383.65l2.27-10.87h1.64l-.46,2.22a7.6,7.6,0,0,1,1.64-1.86,2.67,2.67,0,0,1,1.64-.61,3.35,3.35,0,0,1,1.37.4l-.76,1.72a1.77,1.77,0,0,0-1.06-.35,2.84,2.84,0,0,0-2,1.09,8.15,8.15,0,0,0-1.61,3.9l-.92,4.36Z"/><path d="M109.84,367.62h-9.9V365.9h9.9Zm0,4.55h-9.9v-1.72h9.9Z"/><path d="M215.59,383.69l-3.85-23.47h3.89l2,12.93c.22,1.42.5,3.72.82,6.92.77-1.67,1.75-3.57,2.94-5.73l7.85-14.12h4.22L220,383.69Z"/><polygon class="cls-2" points="255.32 350.32 247.54 345.83 247.54 349.33 208.5 349.33 208.5 351.3 247.54 351.3 247.54 354.81 255.32 350.32"/><path d="M230.69,383.65,233,372.78h1.63l-.46,2.22a7.6,7.6,0,0,1,1.64-1.86,2.7,2.7,0,0,1,1.65-.61,3.31,3.31,0,0,1,1.36.4l-.76,1.72a1.77,1.77,0,0,0-1.05-.35,2.84,2.84,0,0,0-2,1.09,8.25,8.25,0,0,0-1.61,3.9l-.92,4.36Z"/><path d="M241.74,383.65l2.77-13.3h-4.92l.36-1.71h11.81l-.36,1.71h-4.88l-2.78,13.3Z"/><path d="M609.25,383.69l-3.85-23.47h3.89l2,12.93c.22,1.42.5,3.72.82,6.92.77-1.67,1.75-3.57,2.94-5.73l7.85-14.12h4.22l-13.44,23.47Z"/><path d="M624.35,383.65l2.28-10.87h1.63L627.8,375a7.41,7.41,0,0,1,1.65-1.86,2.65,2.65,0,0,1,1.64-.61,3.31,3.31,0,0,1,1.36.4l-.76,1.72a1.77,1.77,0,0,0-1.05-.35,2.84,2.84,0,0,0-2,1.09,8.15,8.15,0,0,0-1.6,3.9l-.93,4.36Z"/><path d="M635.4,383.65l2.77-13.3h-4.92l.36-1.71h11.81l-.36,1.71h-4.88l-2.78,13.3Z"/><path d="M188.87,374V369.9h-4.09v-1.72h4.09V364.1h1.74v4.08h4.08v1.72h-4.08V374Z"/><path d="M394.83,383.79,391,360.32h3.89l2,12.93c.22,1.42.49,3.72.82,6.92.76-1.67,1.74-3.57,2.94-5.73l7.84-14.12h4.22l-13.43,23.47Z"/><polygon class="cls-2" points="434.56 350.42 426.79 345.93 426.79 349.43 387.75 349.43 387.75 351.4 426.79 351.4 426.79 354.91 434.56 350.42"/><path d="M409.94,383.75l3.13-15h1.85l-1.11,5.37a6.86,6.86,0,0,1,1.6-1.15,3.48,3.48,0,0,1,1.49-.33,3.26,3.26,0,0,1,2.54,1.14,4.79,4.79,0,0,1,1,3.3,8,8,0,0,1-.41,2.65,7.55,7.55,0,0,1-1,2,6.5,6.5,0,0,1-1.25,1.3,5,5,0,0,1-1.32.72,3.86,3.86,0,0,1-1.3.24,3.27,3.27,0,0,1-1.89-.56,3.62,3.62,0,0,1-1.28-1.74l-.43,2.06Zm2.74-4.46v.34a3,3,0,0,0,.67,2.12,2.13,2.13,0,0,0,1.66.73,2.74,2.74,0,0,0,1.78-.68,4.92,4.92,0,0,0,1.34-2.13,7.77,7.77,0,0,0,.52-2.66,3.16,3.16,0,0,0-.66-2.13,2.1,2.1,0,0,0-1.63-.75,2.66,2.66,0,0,0-1.85.77,5.81,5.81,0,0,0-1.4,2.38A6.32,6.32,0,0,0,412.68,379.29Z"/><path d="M425.66,383.75l2.78-13.3h-4.93l.36-1.71h11.81l-.36,1.71h-4.88l-2.77,13.3Z"/><rect x="379.53" y="348.23" width="2.34" height="36.2"/><rect x="439.86" y="348.23" width="2.34" height="36.2"/><rect x="486.03" y="348.23" width="2.34" height="36.2"/><rect x="546.36" y="348.23" width="2.34" height="36.2"/><path d="M462,364.51h-9.91v-1.72H462Zm0,4.55h-9.91v-1.72H462Z"/><path d="M691.05,364.51h-9.91v-1.72h9.91Zm0,4.55h-9.91v-1.72h9.91Z"/><path d="M554.08,358.88a6.22,6.22,0,0,1,.61-1.73,5.79,5.79,0,0,1,1-1.33c.43-.41,1.26-1.11,2.49-2.09q1.11-.9,1.53-1.32a4.45,4.45,0,0,0,.86-1.21,2.08,2.08,0,0,0,.18-.87,1.81,1.81,0,0,0-.57-1.35,1.88,1.88,0,0,0-1.38-.56,2,2,0,0,0-1.42.57,3.3,3.3,0,0,0-.86,1.8l-1.4-.2a3.82,3.82,0,0,1,1.2-2.42,3.54,3.54,0,0,1,2.46-.89,3.89,3.89,0,0,1,1.78.41,2.68,2.68,0,0,1,1.2,1.15,3.13,3.13,0,0,1,.41,1.53,3.61,3.61,0,0,1-.82,2.21,22.5,22.5,0,0,1-3,2.61,17.87,17.87,0,0,0-1.57,1.37,4.84,4.84,0,0,0-.77,1h5.16l-.27,1.31Z"/><rect x="592.94" y="348.23" width="2.34" height="36.2"/><rect x="653.27" y="348.23" width="2.34" height="36.2"/><path d="M661,358.88a5.92,5.92,0,0,1,.61-1.73,5.74,5.74,0,0,1,1-1.33c.43-.41,1.26-1.11,2.49-2.09a18.25,18.25,0,0,0,1.53-1.32,4.25,4.25,0,0,0,.86-1.21,2.08,2.08,0,0,0,.18-.87,1.84,1.84,0,0,0-.56-1.35,1.91,1.91,0,0,0-1.38-.56,2,2,0,0,0-1.42.57,3.24,3.24,0,0,0-.87,1.8l-1.39-.2a3.76,3.76,0,0,1,1.19-2.42,3.56,3.56,0,0,1,2.46-.89,3.93,3.93,0,0,1,1.79.41,2.78,2.78,0,0,1,1.2,1.15,3.12,3.12,0,0,1,.4,1.53,3.55,3.55,0,0,1-.82,2.21,22.14,22.14,0,0,1-3,2.61,15.31,15.31,0,0,0-1.57,1.37,4.59,4.59,0,0,0-.78,1h5.17l-.28,1.31Z"/><path d="M574.83,370.68v-4.12h-4.08v-1.72h4.08v-4.08h1.74v4.08h4.09v1.72h-4.09v4.12Z"/><polyline class="cls-7" points="470.02 376.35 474.23 385.36 479.63 336.74 674.51 336.74"/><path d="M741.47,368.23a6.22,6.22,0,0,1,.61-1.73,5.54,5.54,0,0,1,1-1.32q.64-.63,2.49-2.1,1.11-.9,1.53-1.32a4.2,4.2,0,0,0,.85-1.21,1.92,1.92,0,0,0,.19-.87,1.81,1.81,0,0,0-.57-1.35,1.88,1.88,0,0,0-1.38-.56,2,2,0,0,0-1.42.57,3.3,3.3,0,0,0-.86,1.8l-1.4-.2a3.81,3.81,0,0,1,1.19-2.42,3.57,3.57,0,0,1,2.47-.89A3.89,3.89,0,0,1,748,357a2.78,2.78,0,0,1,1.2,1.15,3.12,3.12,0,0,1,.4,1.53,3.55,3.55,0,0,1-.82,2.21,21.46,21.46,0,0,1-3,2.61,16.49,16.49,0,0,0-1.57,1.37,5.63,5.63,0,0,0-.78,1h5.17l-.27,1.31Z"/><path d="M804.23,367.19a6.34,6.34,0,0,1,.61-1.73,6,6,0,0,1,1-1.32q.64-.63,2.49-2.1a15.09,15.09,0,0,0,1.53-1.32,4.58,4.58,0,0,0,.86-1.2,2.13,2.13,0,0,0,.18-.88,1.84,1.84,0,0,0-.56-1.35,1.91,1.91,0,0,0-1.39-.55,2.06,2.06,0,0,0-1.42.56,3.37,3.37,0,0,0-.86,1.81l-1.4-.21a3.82,3.82,0,0,1,1.2-2.42,3.55,3.55,0,0,1,2.46-.88,3.85,3.85,0,0,1,1.78.4,2.7,2.7,0,0,1,1.2,1.16,3.13,3.13,0,0,1,.41,1.52,3.63,3.63,0,0,1-.82,2.22,22.5,22.5,0,0,1-3,2.61,16.33,16.33,0,0,0-1.57,1.37,4.8,4.8,0,0,0-.77,1h5.17l-.28,1.31Z"/><text class="cls-8" transform="translate(706.39 380.95)"><tspan xml:space="preserve">10  +  5</tspan></text><polyline class="cls-7" points="698.19 380.9 701.85 384.23 709.18 353.6 818.74 352.82"/><text class="cls-9" transform="translate(343.81 436.83)">=<tspan class="cls-10" x="19.52" y="0">1</tspan><tspan class="cls-11" x="35.63" y="0">1,2 km/h</tspan></text></svg>