<svg id="Capa_1" data-name="Capa 1" xmlns="http://www.w3.org/2000/svg" viewBox="0 0 680 302"><defs><style>.cls-1,.cls-12,.cls-13,.cls-6,.cls-7,.cls-8{fill:none;stroke-miterlimit:10;}.cls-1,.cls-12{stroke:#1d1d1b;}.cls-10,.cls-2,.cls-4{font-size:35.92px;}.cls-10,.cls-11,.cls-2,.cls-5{font-family:ArialMT, Arial;}.cls-3{font-size:26.34px;font-family:Arial-BoldItalicMT, Arial;font-weight:700;font-style:italic;}.cls-10,.cls-11,.cls-3{fill:#1d1d1b;}.cls-4{font-family:CambriaMath, Cambria Math;}.cls-5{letter-spacing:0em;}.cls-6,.cls-7{stroke:#1694d2;stroke-width:5px;}.cls-7{stroke-dasharray:11.98 11.98;}.cls-8{stroke:#4cb270;}.cls-13,.cls-8{stroke-width:4px;}.cls-9{fill:#4cb270;}.cls-11{font-size:23.76px;}.cls-12{stroke-width:2px;}.cls-13{stroke:#f39221;}.cls-14{fill:#f39221;}</style></defs><title>Movimientodeunproyectilgrafico1</title><line class="cls-1" x1="53.26" y1="55.48" x2="53.26" y2="285.52"/><line class="cls-1" x1="22.09" y1="247.56" x2="581.33" y2="247.56"/><text class="cls-2" transform="translate(49.38 39.23)">y</text><text class="cls-2" transform="translate(27.67 277.93)">o</text><text class="cls-2" transform="translate(593.88 256.56)">X</text><text class="cls-3" transform="translate(113.78 132.72)">V0</text><text class="cls-4" transform="translate(118.07 129.16)">⃗<tspan class="cls-5" x="13.23" y="0"> </tspan></text><text class="cls-3" transform="translate(275.76 159.97)">a</text><text class="cls-4" transform="translate(277.9 163.53)">⃗<tspan class="cls-5" x="13.23" y="0"> </tspan></text><path class="cls-6" d="M53.26,247.56s1.18-1.75,3.49-4.87"/><path class="cls-7" d="M64.05,233.19C94.3,195.13,185.87,94.23,310.74,88.1c0,0,114-13.25,247.12,150.09"/><path class="cls-6" d="M561.63,242.86c1.24,1.55,2.48,3.11,3.73,4.7"/><line class="cls-8" x1="51.39" y1="249.8" x2="137.43" y2="148.45"/><polygon class="cls-9" points="143.14 157.13 146.72 137.51 127.94 144.22 143.14 157.13"/><text class="cls-10" transform="translate(203.9 217.41)">a</text><text class="cls-10" transform="translate(223.04 229.38)">x</text><text class="cls-10" transform="translate(246.36 217.41)">= 0,a</text><text class="cls-10" transform="translate(345.69 217.41)">= -g</text><text class="cls-11" transform="translate(328.36 223.79)">y</text><text class="cls-10" transform="translate(462.63 119.4)">Trayectoria</text><line class="cls-12" x1="459.72" y1="111.29" x2="436.6" y2="129.16"/><line class="cls-13" x1="310.74" y1="129.16" x2="310.74" y2="170.09"/><polygon class="cls-14" points="301.85 163.35 310.74 167.13 319.63 163.35 310.74 184.42 301.85 163.35"/></svg>