<svg id="Capa_1" data-name="Capa 1" xmlns="http://www.w3.org/2000/svg" viewBox="0 0 423.49 49.77"><defs><style>.cls-1,.cls-4,.cls-5{font-size:18px;}.cls-1,.cls-2,.cls-3{font-family:CambriaMath, Cambria Math;}.cls-2{font-size:13.02px;}.cls-3{font-size:26.08px;}.cls-4{font-family:Arial-ItalicMT, Arial;font-style:italic;}.cls-5{font-family:ArialMT, Arial;}</style></defs><title>simbolo1</title><text class="cls-1" transform="translate(7.88 30.63)">∆</text><path d="M22.53,24.34a7.15,7.15,0,0,1,1.66-1.71,2.84,2.84,0,0,1,1.61-.55,5.26,5.26,0,0,1,1.07.1l-.42,2h-.91a1.66,1.66,0,0,0-.15-.57.53.53,0,0,0-.56-.36,1.21,1.21,0,0,0-.69.27,4.82,4.82,0,0,0-.84.85,7.18,7.18,0,0,0-.74,1.12,5.82,5.82,0,0,0-.46,1.36l-.84,3.81H19.74L21,25.05c.08-.35.13-.62.16-.81s0-.36,0-.49a1,1,0,0,0-.11-.51.43.43,0,0,0-.36-.15,1,1,0,0,0-.58.22,6.49,6.49,0,0,0-.83.81l-.5-.49a8.93,8.93,0,0,1,1.35-1.2,2.17,2.17,0,0,1,1.21-.36,1.1,1.1,0,0,1,.87.37,1.35,1.35,0,0,1,.32.95,2.69,2.69,0,0,1-.16.91Z"/><text class="cls-1" transform="translate(27.62 30.63)"> </text><text class="cls-1" transform="translate(36.5 30.63)">=</text><path d="M62.84,24.35a7.62,7.62,0,0,1,1.66-1.72,2.85,2.85,0,0,1,1.61-.54,4.72,4.72,0,0,1,1.08.1l-.43,2h-.9a2.56,2.56,0,0,0-.15-.57.74.74,0,0,0-.23-.28.67.67,0,0,0-.33-.08,1.17,1.17,0,0,0-.69.28,4.49,4.49,0,0,0-.84.85,7.24,7.24,0,0,0-.75,1.11,6.43,6.43,0,0,0-.46,1.37l-.83,3.8H60.06l1.27-5.57a7.56,7.56,0,0,0,.16-.82c0-.19,0-.35,0-.48a.87.87,0,0,0-.12-.51.41.41,0,0,0-.36-.16,1,1,0,0,0-.57.23,5.8,5.8,0,0,0-.84.81l-.5-.49a7.56,7.56,0,0,1,1.36-1.2,2.12,2.12,0,0,1,1.2-.36,1.11,1.11,0,0,1,.88.37,1.4,1.4,0,0,1,.32.95,2.7,2.7,0,0,1-.17.9Z"/><text class="cls-2" transform="translate(65.54 34.29)">2</text><text class="cls-3" transform="translate(62.25 35.18)">⃗ </text><text class="cls-3" transform="translate(87.05 35.18)">⃗ </text><text class="cls-3" transform="translate(15.25 32.66)">⃗ </text><text class="cls-3" transform="translate(11.14 -53.43)">⃗ </text><text class="cls-4" transform="translate(73.76 30.63)"> </text><path d="M88.64,24.35a7.62,7.62,0,0,1,1.66-1.72,2.85,2.85,0,0,1,1.61-.54,4.72,4.72,0,0,1,1.08.1l-.43,2h-.9a2.56,2.56,0,0,0-.15-.57.74.74,0,0,0-.23-.28.67.67,0,0,0-.33-.08,1.17,1.17,0,0,0-.69.28,4.49,4.49,0,0,0-.84.85,7.24,7.24,0,0,0-.75,1.11,6.43,6.43,0,0,0-.46,1.37l-.83,3.8H85.86l1.27-5.57a7.56,7.56,0,0,0,.16-.82c0-.19,0-.35,0-.48a.87.87,0,0,0-.12-.51.41.41,0,0,0-.36-.16,1,1,0,0,0-.58.23,6.45,6.45,0,0,0-.83.81l-.5-.49a7.56,7.56,0,0,1,1.36-1.2,2.12,2.12,0,0,1,1.2-.36,1.11,1.11,0,0,1,.88.37,1.4,1.4,0,0,1,.32.95,2.7,2.7,0,0,1-.17.9Z"/><text class="cls-2" transform="translate(90.92 34.29)">1</text><text class="cls-5" transform="translate(104.19 30.63)">= </text><text class="cls-1" transform="translate(119.72 30.63)">(</text><path d="M131.42,26.66c-.09-.46-.18-.91-.27-1.34s-.19-.82-.29-1.19a3.57,3.57,0,0,0-.25-.73.53.53,0,0,0-.21-.23.45.45,0,0,0-.27-.07.74.74,0,0,0-.34.08,1.61,1.61,0,0,0-.32.29c-.12.14-.27.36-.47.65l-.57-.38a6.17,6.17,0,0,1,1.06-1.25,1.9,1.9,0,0,1,1.21-.41,1.75,1.75,0,0,1,.48.06,1,1,0,0,1,.36.19,1.29,1.29,0,0,1,.28.33,2.2,2.2,0,0,1,.24.55,7.06,7.06,0,0,1,.22.86c.06.34.12.7.18,1.07h.08c.57-.79,1-1.37,1.28-1.74a6.39,6.39,0,0,1,.74-.81,2,2,0,0,1,.57-.38,1.92,1.92,0,0,1,.74-.11,1.82,1.82,0,0,1,.67.1l-.35,1.59h-.61c0-.24-.14-.36-.31-.36a.52.52,0,0,0-.17,0,.78.78,0,0,0-.21.12,2.31,2.31,0,0,0-.38.34c-.16.17-.35.38-.55.62s-.42.51-.63.78l-.6.74c.1.57.2,1.05.3,1.46s.18.75.25,1,.14.48.19.64a1.49,1.49,0,0,0,.18.36.76.76,0,0,0,.2.17.56.56,0,0,0,.23,0,.72.72,0,0,0,.46-.18,3.84,3.84,0,0,0,.65-.84l.57.38a5.46,5.46,0,0,1-1.11,1.29,1.91,1.91,0,0,1-1.18.37,1.38,1.38,0,0,1-.64-.13,1.2,1.2,0,0,1-.46-.44,3.1,3.1,0,0,1-.34-.93,12.61,12.61,0,0,1-.34-1.72h-.09c-.62.87-1.08,1.5-1.38,1.88a7.07,7.07,0,0,1-.75.84,1.72,1.72,0,0,1-.57.38,2.42,2.42,0,0,1-1.41,0l.35-1.59h.62c0,.24.14.37.31.37a.5.5,0,0,0,.25-.07,1.47,1.47,0,0,0,.4-.32,9.67,9.67,0,0,0,.7-.78C130.42,27.91,130.85,27.37,131.42,26.66Z"/><text class="cls-2" transform="translate(136.64 34.29)">2</text><text class="cls-1" transform="translate(148.88 30.63)">−</text><path d="M170.53,26.66c-.08-.46-.18-.91-.27-1.34s-.19-.82-.29-1.19a4.63,4.63,0,0,0-.24-.73.68.68,0,0,0-.21-.23.49.49,0,0,0-.28-.07.73.73,0,0,0-.33.08,1.62,1.62,0,0,0-.33.29c-.11.14-.27.36-.46.65l-.57-.38a5.59,5.59,0,0,1,1.06-1.25,1.88,1.88,0,0,1,1.2-.41,1.75,1.75,0,0,1,.48.06,1.18,1.18,0,0,1,.37.19,1.52,1.52,0,0,1,.28.33,3.31,3.31,0,0,1,.24.55c.07.23.14.52.21.86s.13.7.18,1.07h.09c.56-.79,1-1.37,1.28-1.74a6.45,6.45,0,0,1,.73-.81A1.68,1.68,0,0,1,175,22.1a1.88,1.88,0,0,1,.68.1l-.35,1.59h-.62c0-.24-.14-.36-.31-.36a.44.44,0,0,0-.16,0,1,1,0,0,0-.22.12,2.36,2.36,0,0,0-.37.34c-.17.17-.35.38-.56.62l-.63.78-.6.74c.11.57.21,1.05.3,1.46l.25,1c.08.27.14.48.2.64a1,1,0,0,0,.18.36.73.73,0,0,0,.19.17.61.61,0,0,0,.24,0,.72.72,0,0,0,.46-.18,3.9,3.9,0,0,0,.64-.84l.58.38a5.46,5.46,0,0,1-1.12,1.29,1.89,1.89,0,0,1-1.18.37,1.41,1.41,0,0,1-.64-.13,1.2,1.2,0,0,1-.46-.44,3.1,3.1,0,0,1-.34-.93,14,14,0,0,1-.33-1.72h-.09c-.62.87-1.08,1.5-1.39,1.88a8.23,8.23,0,0,1-.74.84,2,2,0,0,1-.57.38,1.92,1.92,0,0,1-.74.11,1.82,1.82,0,0,1-.67-.1l.35-1.59h.61c0,.24.14.37.31.37a.54.54,0,0,0,.26-.07,1.64,1.64,0,0,0,.39-.32,9.67,9.67,0,0,0,.7-.78C169.53,27.91,170,27.37,170.53,26.66Z"/><text class="cls-2" transform="translate(175.34 34.29)">1</text><text class="cls-1" transform="translate(183.62 30.63)">)</text><path d="M193.26,24.71c.07-.31.12-.57.16-.78a4,4,0,0,0,.05-.54,1,1,0,0,0-.05-.33.41.41,0,0,0-.15-.21.76.76,0,0,0-.29-.11l-.45,0,.1-.47,2.14-.08h.52L194,27.79a7.08,7.08,0,0,0-.15.75,4.28,4.28,0,0,0,0,.55.83.83,0,0,0,.12.51.39.39,0,0,0,.36.16,1,1,0,0,0,.61-.25,6.93,6.93,0,0,0,.8-.78l.5.49c-.28.28-.53.53-.75.73a4,4,0,0,1-.62.48,2.17,2.17,0,0,1-.59.26,2.23,2.23,0,0,1-.65.08,1.19,1.19,0,0,1-.54-.12,1.08,1.08,0,0,1-.39-.32,1.6,1.6,0,0,1-.24-.47,2.12,2.12,0,0,1-.08-.57,5.6,5.6,0,0,1,.06-.75q.06-.42.18-1Z"/><text class="cls-1" transform="translate(196.89 30.63)">̂</text><text class="cls-1" transform="translate(196.89 30.63)"> </text><text class="cls-1" transform="translate(204.81 30.63)">+</text><text class="cls-1" transform="translate(222.27 30.63)">(</text><path d="M234.07,30.65c-.17-1-.4-2.26-.69-3.71s-.52-2.5-.62-2.87a1.91,1.91,0,0,0-.39-.86.44.44,0,0,0-.3-.11.77.77,0,0,0-.53.23,4.18,4.18,0,0,0-.61.79l-.57-.38a5,5,0,0,1,1.14-1.28,2,2,0,0,1,1.17-.37,1.65,1.65,0,0,1,.62.1,1,1,0,0,1,.35.23,1.43,1.43,0,0,1,.31.45,4.91,4.91,0,0,1,.24.65c.07.24.14.59.22,1,.14.76.28,1.55.41,2.39s.25,1.61.34,2.32a20.26,20.26,0,0,0,1.45-2.41,12.88,12.88,0,0,0,.85-2.05,5.32,5.32,0,0,0,.26-1.41.69.69,0,0,0-.18-.56,1,1,0,0,0-.59-.18l.08-.43h2.31l.24.44a28.23,28.23,0,0,1-1.81,3.91,42.13,42.13,0,0,1-2.57,4.06,20.53,20.53,0,0,1-2.32,2.79,4.49,4.49,0,0,1-1.23.84,2.68,2.68,0,0,1-1,.19l-.42,0a1.46,1.46,0,0,1-.38-.08l.38-1.7h.7c0,.37.13.56.38.56a1.88,1.88,0,0,0,1.19-.64A13,13,0,0,0,234.07,30.65Z"/><text class="cls-2" transform="translate(239.3 34.29)">2</text><text class="cls-1" transform="translate(251.54 30.63)">−</text><path d="M273.3,30.65c-.17-1-.4-2.26-.7-3.71s-.51-2.5-.61-2.87a1.91,1.91,0,0,0-.39-.86.44.44,0,0,0-.3-.11.77.77,0,0,0-.53.23,3.8,3.8,0,0,0-.61.79l-.57-.38a5,5,0,0,1,1.13-1.28,2,2,0,0,1,1.18-.37,1.65,1.65,0,0,1,.62.1,1.11,1.11,0,0,1,.35.23,1.43,1.43,0,0,1,.31.45,4.91,4.91,0,0,1,.24.65c.07.24.14.59.22,1,.14.76.28,1.55.41,2.39s.25,1.61.34,2.32a18.89,18.89,0,0,0,1.44-2.41,13,13,0,0,0,.86-2.05A5.32,5.32,0,0,0,277,23.4a.69.69,0,0,0-.18-.56,1.07,1.07,0,0,0-.6-.18l.09-.43h2.31l.24.44A29.45,29.45,0,0,1,277,26.58a40.4,40.4,0,0,1-2.58,4.06,19.89,19.89,0,0,1-2.31,2.79,4.53,4.53,0,0,1-1.24.84,2.59,2.59,0,0,1-1,.19l-.42,0a1.46,1.46,0,0,1-.38-.08l.38-1.7h.7c0,.37.12.56.38.56a1.88,1.88,0,0,0,1.19-.64A13,13,0,0,0,273.3,30.65Z"/><text class="cls-2" transform="translate(278.12 34.29)">1</text><text class="cls-1" transform="translate(286.4 30.63)">)</text><path d="M297.12,30.78a8.86,8.86,0,0,1-.5,1.62,3.81,3.81,0,0,1-.76,1.18,3,3,0,0,1-1.1.73,4.3,4.3,0,0,1-1.51.25l-.44,0-.31-.07.2-.77a1.52,1.52,0,0,0,.32.06h.35a2.11,2.11,0,0,0,.68-.11,1.42,1.42,0,0,0,.57-.41,2.86,2.86,0,0,0,.48-.84,8.51,8.51,0,0,0,.41-1.37l1.42-6.33q.1-.47.15-.78a2.84,2.84,0,0,0,.05-.54,1,1,0,0,0,0-.33.41.41,0,0,0-.15-.21.76.76,0,0,0-.29-.11l-.45,0,.1-.47,2.14-.08h.5Z"/><text class="cls-1" transform="translate(300.57 30.63)">̂</text><text class="cls-1" transform="translate(409.35 25.54)">̂</text><text class="cls-1" transform="translate(312.39 30.63)">+</text><text class="cls-1" transform="translate(329.85 30.63)">(</text><path d="M344.65,28.16l-.54,2.47h-6.36l-.17-.43,4.81-5.54c.68-.77,1.17-1.33,1.49-1.66l-.05-.06h-2.06a2.71,2.71,0,0,0-.67.06,1.42,1.42,0,0,0-.42.22,2.19,2.19,0,0,0-.45.46,6,6,0,0,0-.54.86h-.78l.51-2.31h6.25l.17.44-4.19,4.82c-.82.93-1.52,1.72-2.12,2.37l.05.06h2a4.17,4.17,0,0,0,.81-.06,1.14,1.14,0,0,0,.49-.21,2.34,2.34,0,0,0,.44-.48,8.7,8.7,0,0,0,.55-1Z"/><text class="cls-2" transform="translate(345.62 34.29)">2</text><text class="cls-1" transform="translate(357.86 30.63)">−</text><path d="M382.61,28.16l-.54,2.47h-6.36l-.17-.43,4.81-5.54c.68-.77,1.18-1.33,1.49-1.66l0-.06h-2.06a2.62,2.62,0,0,0-.66.06,1.35,1.35,0,0,0-.43.22,2.19,2.19,0,0,0-.45.46,6,6,0,0,0-.54.86h-.78l.52-2.31h6.25l.16.44-4.19,4.82c-.81.93-1.52,1.72-2.12,2.37l.05.06h2a4.17,4.17,0,0,0,.81-.06,1.14,1.14,0,0,0,.49-.21,2.34,2.34,0,0,0,.44-.48,8.44,8.44,0,0,0,.56-1Z"/><text class="cls-2" transform="translate(383.18 34.29)">1</text><text class="cls-1" transform="translate(391.46 30.63)">)</text><path d="M403.6,27a1.52,1.52,0,0,0-.18-.47.43.43,0,0,0-.2-.18,1.24,1.24,0,0,0-.4,0h-.61l-.91,4.3h-1.52l2.25-10c.08-.34.14-.61.17-.8a3.37,3.37,0,0,0,.05-.5.58.58,0,0,0-.23-.52,1.61,1.61,0,0,0-.8-.17l.1-.46,2.23-.08h.51l-1.73,7.68h.28a2.66,2.66,0,0,0,1.49-.58,10.08,10.08,0,0,0,1.31-1.07,1.36,1.36,0,0,0,.49-.95q0-.42-.6-.48l.1-.43h2.85l.17.43c-.49.44-1,.87-1.55,1.29l-2.18,1.69.86,3.17a3.41,3.41,0,0,0,.19.59.72.72,0,0,0,.19.27.53.53,0,0,0,.3.08,1,1,0,0,0,.54-.24,5.87,5.87,0,0,0,.72-.71l.5.49a7.45,7.45,0,0,1-1.31,1.16,1.92,1.92,0,0,1-1,.32,1.3,1.3,0,0,1-.95-.34,2.34,2.34,0,0,1-.55-1.12Z"/><text class="cls-5" transform="translate(409.35 30.63)">.</text><text class="cls-5" transform="translate(413.6 31.01)"> </text><text class="cls-5" transform="translate(7.9 54.7)"> </text></svg>