<svg id="Capa_1" data-name="Capa 1" xmlns="http://www.w3.org/2000/svg" viewBox="0 0 24.92 29.61"><defs><style>.cls-1{font-size:13.02px;}.cls-1,.cls-3{font-family:CambriaMath, Cambria Math;}.cls-2{font-size:18px;font-family:ArialMT, Arial;}.cls-3{font-size:26.08px;}</style></defs><title>simbolo1</title><path d="M8.51,12.2a7.62,7.62,0,0,1,1.66-1.72,2.85,2.85,0,0,1,1.61-.54,4.72,4.72,0,0,1,1.08.1l-.43,2h-.9a2.56,2.56,0,0,0-.15-.57.6.6,0,0,0-.23-.28.67.67,0,0,0-.33-.08,1.21,1.21,0,0,0-.69.27,4.93,4.93,0,0,0-.84.86,6.48,6.48,0,0,0-.74,1.11,5.89,5.89,0,0,0-.47,1.37l-.83,3.8H5.73L7,12.91a5.71,5.71,0,0,0,.16-.82c0-.19,0-.35,0-.48a.83.83,0,0,0-.12-.51.39.39,0,0,0-.36-.16,1,1,0,0,0-.57.22,5.55,5.55,0,0,0-.83.82l-.51-.49a7.56,7.56,0,0,1,1.36-1.2,2.12,2.12,0,0,1,1.2-.36,1.13,1.13,0,0,1,.88.36,1.44,1.44,0,0,1,.32,1,2.7,2.7,0,0,1-.17.9Z"/><text class="cls-1" transform="translate(11.21 22.14)">2</text><text class="cls-2" transform="translate(4.62 42.48)"> </text><text class="cls-3" transform="translate(7.87 21.6)">⃗ </text><text class="cls-3" transform="translate(7.87 -35.52)">⃗ </text></svg>