<svg id="Capa_1" data-name="Capa 1" xmlns="http://www.w3.org/2000/svg" viewBox="0 0 3307.8 1671.43"><defs><style>.cls-1{font-size:194.48px;}.cls-1,.cls-25,.cls-26{font-family:CambriaMath, Cambria Math;}.cls-2{letter-spacing:0em;}.cls-3{letter-spacing:0em;}.cls-4{letter-spacing:0em;}.cls-26,.cls-33,.cls-5,.cls-50,.cls-53{font-size:122.18px;}.cls-18,.cls-5{font-family:ArialMT, Arial;}.cls-6{letter-spacing:0em;}.cls-7{letter-spacing:-0.04em;}.cls-8{letter-spacing:-0.04em;}.cls-9{letter-spacing:0em;}.cls-10{letter-spacing:0em;}.cls-11{letter-spacing:0em;}.cls-12{letter-spacing:0em;}.cls-13{letter-spacing:0em;}.cls-14{letter-spacing:0em;}.cls-15{letter-spacing:-0.04em;}.cls-16{letter-spacing:0em;}.cls-17{letter-spacing:0em;}.cls-18{font-size:78.19px;}.cls-19{letter-spacing:-0.01em;}.cls-20{letter-spacing:-0.01em;}.cls-21{letter-spacing:0em;}.cls-22{letter-spacing:-0.01em;}.cls-23{letter-spacing:0em;}.cls-24{letter-spacing:-0.01em;}.cls-25{font-size:88.38px;}.cls-27{letter-spacing:0em;}.cls-28{letter-spacing:0.01em;}.cls-29{letter-spacing:0.01em;}.cls-30{letter-spacing:0em;}.cls-31{letter-spacing:0em;}.cls-32{letter-spacing:0.13em;}.cls-33{font-family:Arial-ItalicMT, Arial;font-style:italic;}.cls-34{letter-spacing:0.06em;}.cls-35{letter-spacing:0em;}.cls-36{letter-spacing:0.05em;}.cls-37{letter-spacing:0.06em;}.cls-38{letter-spacing:0.38em;}.cls-39{letter-spacing:0em;}.cls-40{letter-spacing:0.38em;}.cls-41{letter-spacing:0.39em;}.cls-42{letter-spacing:-0.04em;}.cls-43{letter-spacing:-0.04em;}.cls-44{letter-spacing:0em;}.cls-45{letter-spacing:-0.04em;}.cls-46{letter-spacing:-0.05em;}.cls-47{letter-spacing:0em;}.cls-48{letter-spacing:0.07em;}.cls-49{letter-spacing:0.07em;}.cls-50{fill:#2c3b62;}.cls-50,.cls-53{font-family:Arial-BoldMT, Arial;font-weight:700;}.cls-51{letter-spacing:0em;}.cls-52{letter-spacing:0em;}</style></defs><title>simbolo1</title><text class="cls-1" transform="translate(699.44 -424.63)">=</text><text class="cls-1" transform="translate(898.2 -424.63)">3</text><text class="cls-1" transform="translate(1005.94 -424.63)">,</text><text class="cls-1" transform="translate(1046 -424.63)">924</text><text class="cls-1" transform="translate(1477.16 -424.63)">10</text><text class="cls-1" transform="translate(1883.83 -424.63)"> <tspan class="cls-2" x="42.83" y="0"> </tspan><tspan class="cls-3" x="85.07" y="0" xml:space="preserve">   </tspan><tspan class="cls-2" x="213.55" y="0"> </tspan><tspan x="255.8" y="0" xml:space="preserve">   </tspan><tspan class="cls-4" x="384.28" y="0"> </tspan><tspan x="426.52" y="0" xml:space="preserve">  </tspan></text><text class="cls-1" transform="translate(2571.51 -424.63)">=</text><text class="cls-1" transform="translate(2886.76 -424.63)">,</text><text class="cls-1" transform="translate(3191.9 -424.63)">°</text><text class="cls-1" transform="translate(3264.82 -424.63)"> </text><text class="cls-1" transform="translate(3307.8 -424.63)"> <tspan class="cls-2" x="42.83" y="0"> </tspan><tspan class="cls-3" x="85.07" y="0" xml:space="preserve">   </tspan></text><text class="cls-5" transform="translate(166.51 225.81)">Duran<tspan class="cls-6" x="332.77" y="0">t</tspan><tspan x="366.23" y="0">e</tspan><tspan class="cls-7" x="434.18" y="0"> </tspan><tspan x="463.11" y="0">un</tspan><tspan class="cls-8" x="599.01" y="0"> </tspan><tspan x="627.95" y="0">in</tspan><tspan class="cls-9" x="723.04" y="0">t</tspan><tspan x="757.23" y="0">ervalo</tspan><tspan class="cls-8" x="1090.01" y="0"> </tspan><tspan x="1118.94" y="0">de</tspan><tspan class="cls-8" x="1254.84" y="0"> </tspan><tspan class="cls-10" x="1283.78" y="0">t</tspan><tspan x="1317.6" y="0">iempo</tspan><tspan class="cls-8" x="1650.37" y="0"> </tspan><tspan class="cls-11" x="1679.31" y="0">∆</tspan><tspan class="cls-12" x="1754.18" y="0">t,</tspan><tspan class="cls-8" x="1821.83" y="0"> </tspan><tspan class="cls-13" x="1850.76" y="0">l</tspan><tspan x="1878.4" y="0">a</tspan><tspan class="cls-8" x="1946.35" y="0"> </tspan><tspan x="1975.28" y="0">par</tspan><tspan class="cls-12" x="2151.87" y="0">tí</tspan><tspan class="cls-14" x="2219.52" y="0">c</tspan><tspan x="2280.97" y="0">ula</tspan></text><text class="cls-5" transform="translate(2613.07 225.81)"> </text><text class="cls-5" transform="translate(2641.5 225.81)">se<tspan class="cls-15" x="129.04" y="0"> </tspan><tspan class="cls-16" x="158.1" y="0">muev</tspan><tspan class="cls-17" x="456.86" y="0">e</tspan><tspan x="524.57" y="0"> </tspan></text><text class="cls-5" transform="translate(166.51 388.68)">de </text><text class="cls-5" transform="translate(335.49 388.68)">P</text><text class="cls-18" transform="translate(416.98 398.9)">1</text><text class="cls-5" transform="translate(460.56 388.72)"><tspan class="cls-10">,</tspan><tspan class="cls-19" x="33.82" y="0"> </tspan><tspan x="66.91" y="0">donde</tspan><tspan class="cls-20" x="406.66" y="0"> </tspan><tspan x="439.27" y="0">su</tspan><tspan class="cls-19" x="568.31" y="0"> </tspan><tspan class="cls-21" x="601.4" y="0">vec</tspan><tspan class="cls-10" x="791.52" y="0">t</tspan><tspan x="825.35" y="0">or</tspan><tspan class="cls-19" x="933.98" y="0"> </tspan><tspan x="967.07" y="0">de</tspan><tspan class="cls-22" x="1102.98" y="0"> </tspan><tspan class="cls-23" x="1136.06" y="0">p</tspan><tspan x="1203.77" y="0">osición</tspan><tspan class="cls-24" x="1584.09" y="0"> </tspan><tspan x="1616.69" y="0">es </tspan></text><path d="M2266.86,346.07q5.85-7.94,11.25-11.64a19.24,19.24,0,0,1,10.95-3.69,33.87,33.87,0,0,1,7.28.65l-2.87,13.37h-6.14a13.63,13.63,0,0,0-1-3.88,4.27,4.27,0,0,0-1.55-1.91,4.33,4.33,0,0,0-2.27-.54,8.17,8.17,0,0,0-4.68,1.85,31.9,31.9,0,0,0-5.7,5.79,46.84,46.84,0,0,0-5,7.57,39.2,39.2,0,0,0-3.13,9.25l-5.67,25.83H2248l8.65-37.82a55.92,55.92,0,0,0,1.08-5.55,27.86,27.86,0,0,0,.24-3.28,6,6,0,0,0-.78-3.46,2.8,2.8,0,0,0-2.45-1.07,6.61,6.61,0,0,0-3.9,1.52,42,42,0,0,0-5.64,5.52l-3.4-3.34a57.18,57.18,0,0,1,9.19-8.15,14.62,14.62,0,0,1,8.17-2.41,7.49,7.49,0,0,1,5.93,2.47,9.4,9.4,0,0,1,2.18,6.47,18.32,18.32,0,0,1-1.13,6.15Z"/><text class="cls-25" transform="translate(2281.84 413.56)">1</text><text class="cls-26" transform="translate(2292.84 388.72)">⃗</text><text class="cls-5" transform="translate(2338.04 388.72)"> </text><text class="cls-5" transform="translate(2371.03 388.72)">a<tspan class="cls-22" x="67.95" y="0"> </tspan><tspan x="101.04" y="0">P</tspan></text><text class="cls-18" transform="translate(2553.49 398.9)">2</text><text class="cls-5" transform="translate(2597.06 388.72)"><tspan class="cls-12">,</tspan><tspan class="cls-22" x="33.82" y="0"> </tspan><tspan x="66.91" y="0">don</tspan><tspan class="cls-23" x="270.76" y="0">d</tspan><tspan x="338.47" y="0">e</tspan><tspan class="cls-22" x="406.42" y="0"> </tspan><tspan class="cls-27" x="439.51" y="0">s</tspan><tspan class="cls-14" x="500.6" y="0">u</tspan><tspan class="cls-16" x="568.92" y="0"> </tspan></text><text class="cls-5" transform="translate(166.55 553.67)">vec<tspan class="cls-10" x="190.13" y="0">t</tspan><tspan x="223.95" y="0">or</tspan><tspan class="cls-28" x="332.59" y="0"> </tspan><tspan x="368" y="0">de</tspan><tspan class="cls-29" x="503.9" y="0"> </tspan><tspan class="cls-30" x="538.95" y="0">posición</tspan><tspan class="cls-29" x="987.21" y="0"> </tspan><tspan x="1022.26" y="0">es </tspan></text><path d="M1380.62,511q5.85-7.93,11.25-11.63a19.18,19.18,0,0,1,11-3.7,34.35,34.35,0,0,1,7.27.65l-2.86,13.37h-6.14a13.72,13.72,0,0,0-1-3.88,4.27,4.27,0,0,0-1.55-1.91,4.33,4.33,0,0,0-2.27-.54,8.17,8.17,0,0,0-4.68,1.85,32.23,32.23,0,0,0-5.7,5.79,45.2,45.2,0,0,0-5,7.58,39.1,39.1,0,0,0-3.13,9.24L1372,553.66h-10.32l8.65-37.82a54.85,54.85,0,0,0,1.08-5.55,29.86,29.86,0,0,0,.23-3.28,6,6,0,0,0-.77-3.46,2.83,2.83,0,0,0-2.45-1.07,6.68,6.68,0,0,0-3.9,1.52,41.38,41.38,0,0,0-5.64,5.52l-3.4-3.34a57.63,57.63,0,0,1,9.18-8.15,14.65,14.65,0,0,1,8.18-2.41,7.49,7.49,0,0,1,5.93,2.47,9.41,9.41,0,0,1,2.18,6.48,18.27,18.27,0,0,1-1.13,6.14Z"/><text class="cls-25" transform="translate(1398.89 578.51)">2</text><text class="cls-26" transform="translate(1410.3 553.67)">⃗</text><text class="cls-5" transform="translate(1455.1 553.67)">.</text><text class="cls-5" transform="translate(1488.94 553.67)"> </text><text class="cls-5" transform="translate(1524 553.67)">El<tspan class="cls-29" x="108.64" y="0"> </tspan><tspan class="cls-27" x="143.68" y="0">c</tspan><tspan class="cls-31" x="204.77" y="0">a</tspan><tspan x="273.09" y="0">mbio</tspan><tspan class="cls-29" x="537.91" y="0"> </tspan><tspan x="572.95" y="0">de</tspan><tspan class="cls-29" x="708.85" y="0"> </tspan><tspan x="743.9" y="0">posic</tspan><tspan class="cls-23" x="1029.12" y="0">i</tspan><tspan x="1056.02" y="0">ón</tspan><tspan class="cls-29" x="1191.92" y="0"> </tspan><tspan x="1226.97" y="0">duran</tspan><tspan class="cls-12" x="1539.46" y="0">t</tspan><tspan class="cls-23" x="1573.28" y="0">e</tspan><tspan x="1640.98" y="0"> </tspan></text><text class="cls-5" transform="translate(166.59 740.23)">es<tspan class="cls-10" x="129.04" y="0">t</tspan><tspan class="cls-30" x="162.86" y="0">e</tspan><tspan class="cls-32" x="230.81" y="0"> </tspan><tspan x="280.89" y="0">in</tspan><tspan class="cls-12" x="375.98" y="0">t</tspan><tspan x="409.8" y="0">ervalo </tspan></text><text class="cls-26" transform="translate(959.54 740.23)">∆</text><path d="M1059,697.58q5.83-7.94,11.24-11.64a19.24,19.24,0,0,1,11-3.69,33.87,33.87,0,0,1,7.28.65l-2.87,13.36h-6.14a13.64,13.64,0,0,0-1-3.87,4.21,4.21,0,0,0-1.55-1.91,4.3,4.3,0,0,0-2.26-.54,8.17,8.17,0,0,0-4.69,1.85,31.57,31.57,0,0,0-5.69,5.79,45.55,45.55,0,0,0-5,7.57,38.72,38.72,0,0,0-3.14,9.25l-5.66,25.83h-10.33l8.66-37.82q.82-3.58,1.07-5.55a27.86,27.86,0,0,0,.24-3.28,6,6,0,0,0-.78-3.46,2.8,2.8,0,0,0-2.44-1.07,6.61,6.61,0,0,0-3.91,1.52,42.58,42.58,0,0,0-5.64,5.52l-3.4-3.35a57.52,57.52,0,0,1,9.19-8.14,14.62,14.62,0,0,1,8.17-2.41,7.51,7.51,0,0,1,5.94,2.47,9.45,9.45,0,0,1,2.17,6.47,18.08,18.08,0,0,1-1.13,6.15Z"/><text class="cls-26" transform="translate(1045.8 716.16)">⃗</text><text class="cls-26" transform="translate(1093.45 740.19)"> </text><text class="cls-26" transform="translate(1153.68 740.19)">=</text><text class="cls-26" transform="translate(1279.16 740.19)"> </text><path d="M1332.53,697.54q5.84-7.93,11.24-11.64a19.26,19.26,0,0,1,11-3.7,33.8,33.8,0,0,1,7.28.66l-2.87,13.36H1353a13.64,13.64,0,0,0-1-3.87,4.16,4.16,0,0,0-1.55-1.91,4.3,4.3,0,0,0-2.26-.54,8.17,8.17,0,0,0-4.69,1.85,31.57,31.57,0,0,0-5.69,5.79,46.29,46.29,0,0,0-5,7.57,39.2,39.2,0,0,0-3.13,9.25l-5.67,25.83h-10.32l8.65-37.82a55.92,55.92,0,0,0,1.08-5.55,28,28,0,0,0,.24-3.28,6,6,0,0,0-.78-3.46,2.8,2.8,0,0,0-2.44-1.08,6.63,6.63,0,0,0-3.91,1.53,43,43,0,0,0-5.64,5.51l-3.4-3.34a57.52,57.52,0,0,1,9.19-8.14,14.63,14.63,0,0,1,8.17-2.42,7.52,7.52,0,0,1,5.94,2.48,9.45,9.45,0,0,1,2.17,6.47,18.08,18.08,0,0,1-1.13,6.15Z"/><text class="cls-25" transform="translate(1350.84 765.03)">2</text><text class="cls-26" transform="translate(1362.24 740.19)">⃗</text><text class="cls-33" transform="translate(1406.63 740.19)"> </text><text class="cls-33" transform="translate(1456.72 740.19)">-</text><path d="M1523.9,697.54q5.83-7.93,11.24-11.64a19.26,19.26,0,0,1,10.95-3.7,33.8,33.8,0,0,1,7.28.66l-2.86,13.36h-6.15a14,14,0,0,0-1-3.87,4.28,4.28,0,0,0-1.55-1.91,4.36,4.36,0,0,0-2.27-.54,8.19,8.19,0,0,0-4.69,1.85,31.89,31.89,0,0,0-5.69,5.79,45.55,45.55,0,0,0-5,7.57,38.72,38.72,0,0,0-3.14,9.25l-5.66,25.83H1505l8.65-37.82q.83-3.58,1.07-5.55a28,28,0,0,0,.24-3.28,6,6,0,0,0-.78-3.46,2.79,2.79,0,0,0-2.44-1.08,6.63,6.63,0,0,0-3.91,1.53,43,43,0,0,0-5.64,5.51l-3.4-3.34a57.52,57.52,0,0,1,9.19-8.14,14.63,14.63,0,0,1,8.17-2.42,7.5,7.5,0,0,1,5.94,2.48,9.45,9.45,0,0,1,2.18,6.47,18.1,18.1,0,0,1-1.14,6.15Z"/><text class="cls-25" transform="translate(1539.4 765.03)">1</text><text class="cls-26" transform="translate(1550.4 740.19)">⃗</text><text class="cls-5" transform="translate(1595.6 740.19)"> </text><text class="cls-5" transform="translate(1645.7 740.19)">= </text><text class="cls-26" transform="translate(1767.02 740.19)">(</text><path d="M1846.42,713.23c-.59-3.15-1.21-6.17-1.84-9.07s-1.3-5.61-2-8.12a26.8,26.8,0,0,0-1.67-4.92,4.32,4.32,0,0,0-1.41-1.61,3.55,3.55,0,0,0-1.87-.45,4.53,4.53,0,0,0-2.27.57,8.78,8.78,0,0,0-2.21,2A48.67,48.67,0,0,0,1830,696l-3.88-2.56a37.77,37.77,0,0,1,7.22-8.47,12.59,12.59,0,0,1,8.17-2.81,11.29,11.29,0,0,1,3.25.42,7.31,7.31,0,0,1,2.48,1.28,8.65,8.65,0,0,1,1.91,2.24,18.53,18.53,0,0,1,1.61,3.73,49.67,49.67,0,0,1,1.46,5.85q.69,3.48,1.22,7.25h.6q5.73-8.05,8.68-11.79a47.94,47.94,0,0,1,5-5.55,13.53,13.53,0,0,1,3.91-2.56,13.67,13.67,0,0,1,5-.75,12.5,12.5,0,0,1,4.6.72l-2.39,10.8h-4.18c-.24-1.67-.93-2.51-2.09-2.51a4,4,0,0,0-1.13.18,5.57,5.57,0,0,0-1.46.78,19.28,19.28,0,0,0-2.54,2.32q-1.67,1.74-3.75,4.24t-4.3,5.25l-4.06,5.07q1.08,5.73,2,9.9c.64,2.79,1.2,5.1,1.7,7s.94,3.31,1.31,4.39a8.09,8.09,0,0,0,1.23,2.41,4,4,0,0,0,1.34,1.14,3.6,3.6,0,0,0,1.58.33,4.87,4.87,0,0,0,3.13-1.26,27.56,27.56,0,0,0,4.39-5.66l3.88,2.56q-4.19,6.21-7.55,8.74a13,13,0,0,1-8,2.54,9.32,9.32,0,0,1-4.35-.93,8.19,8.19,0,0,1-3.1-3,20.93,20.93,0,0,1-2.33-6.33,96.32,96.32,0,0,1-2.27-11.69h-.59q-6.33,8.89-9.4,12.77a54.84,54.84,0,0,1-5.07,5.73,12.8,12.8,0,0,1-3.88,2.59,13.67,13.67,0,0,1-5,.75,12.41,12.41,0,0,1-4.59-.72l2.38-10.8h4.18c.24,1.67.93,2.51,2.09,2.51a4.06,4.06,0,0,0,1.76-.45,12,12,0,0,0,2.65-2.15q1.74-1.69,4.78-5.34T1846.42,713.23Z"/><text class="cls-25" transform="translate(1881.91 765.03)">2</text><text class="cls-26" transform="translate(1964.99 740.19)">−</text><path d="M2111.59,713.23q-.89-4.72-1.85-9.07c-.63-2.9-1.29-5.61-2-8.12a26.8,26.8,0,0,0-1.67-4.92,4.32,4.32,0,0,0-1.41-1.61,3.56,3.56,0,0,0-1.88-.45,4.52,4.52,0,0,0-2.26.57,8.78,8.78,0,0,0-2.21,2,48.67,48.67,0,0,0-3.16,4.38l-3.88-2.56a37.77,37.77,0,0,1,7.22-8.47,12.59,12.59,0,0,1,8.17-2.81,11.34,11.34,0,0,1,3.25.42,7.31,7.31,0,0,1,2.48,1.28,8.65,8.65,0,0,1,1.91,2.24,19.12,19.12,0,0,1,1.61,3.73,49.67,49.67,0,0,1,1.46,5.85q.69,3.48,1.22,7.25h.6q5.73-8.05,8.68-11.79a47.94,47.94,0,0,1,5-5.55,13.53,13.53,0,0,1,3.91-2.56,13.67,13.67,0,0,1,5-.75,12.41,12.41,0,0,1,4.59.72l-2.38,10.8h-4.18c-.24-1.67-.93-2.51-2.09-2.51a4,4,0,0,0-1.13.18,5.57,5.57,0,0,0-1.46.78,19.28,19.28,0,0,0-2.54,2.32q-1.66,1.74-3.75,4.24t-4.3,5.25l-4.06,5.07c.72,3.82,1.39,7.12,2,9.9s1.2,5.1,1.7,7,.94,3.31,1.31,4.39a8.09,8.09,0,0,0,1.23,2.41,4,4,0,0,0,1.34,1.14,3.6,3.6,0,0,0,1.58.33,4.87,4.87,0,0,0,3.13-1.26,27.56,27.56,0,0,0,4.39-5.66l3.88,2.56q-4.18,6.21-7.55,8.74a13,13,0,0,1-8,2.54,9.32,9.32,0,0,1-4.35-.93,8.19,8.19,0,0,1-3.1-3,20.93,20.93,0,0,1-2.33-6.33,96.32,96.32,0,0,1-2.27-11.69h-.59q-6.33,8.89-9.4,12.77a54.84,54.84,0,0,1-5.07,5.73,12.8,12.8,0,0,1-3.88,2.59,13.67,13.67,0,0,1-5,.75,12.41,12.41,0,0,1-4.59-.72l2.38-10.8h4.18c.24,1.67.93,2.51,2.09,2.51a4.06,4.06,0,0,0,1.76-.45,12,12,0,0,0,2.65-2.15q1.74-1.69,4.77-5.34T2111.59,713.23Z"/><text class="cls-25" transform="translate(2144.19 765.03)">1</text><text class="cls-26" transform="translate(2200.39 740.19)">)</text><path d="M2265.83,700q.72-3.16,1.05-5.31a24.53,24.53,0,0,0,.33-3.64,7.19,7.19,0,0,0-.3-2.26,2.68,2.68,0,0,0-1-1.41,5.05,5.05,0,0,0-2-.71,30.25,30.25,0,0,0-3-.33l.66-3.16,14.56-.54h3.52l-8.6,38.3q-.64,2.87-1,5.07a26.1,26.1,0,0,0-.33,3.76,6,6,0,0,0,.78,3.46,2.79,2.79,0,0,0,2.44,1.08,6.74,6.74,0,0,0,4.18-1.73,51.72,51.72,0,0,0,5.37-5.31l3.4,3.34q-2.8,2.92-5,4.95a31.29,31.29,0,0,1-4.24,3.28,14.93,14.93,0,0,1-4,1.79,16.87,16.87,0,0,1-4.39.54,7.94,7.94,0,0,1-3.67-.81,7.8,7.8,0,0,1-2.65-2.18,9.55,9.55,0,0,1-1.64-3.19,13,13,0,0,1-.57-3.91,35.73,35.73,0,0,1,.42-5c.27-1.93.69-4.1,1.25-6.53Z"/><text class="cls-26" transform="translate(2290.44 740.19)">̂</text><text class="cls-26" transform="translate(2290.44 740.19)"> </text><text class="cls-26" transform="translate(2344.56 740.19)">+</text><text class="cls-26" transform="translate(2463.07 740.19)">(</text><path d="M2543.2,740.31q-1.74-10.44-4.72-25.17-3.17-15.75-4.17-19.51c-.84-3-1.71-5-2.63-5.79a2.94,2.94,0,0,0-2.09-.78,5.19,5.19,0,0,0-3.58,1.56,29.29,29.29,0,0,0-4.11,5.36l-3.88-2.56q4.11-6.15,7.7-8.68a13.5,13.5,0,0,1,8-2.54,11.79,11.79,0,0,1,4.18.66,8,8,0,0,1,2.38,1.58,9.87,9.87,0,0,1,2.12,3.07,28.77,28.77,0,0,1,1.61,4.42c.46,1.63,1,4,1.52,7q1.44,7.69,2.78,16.19t2.29,15.78a137,137,0,0,0,9.82-16.34,87.19,87.19,0,0,0,5.78-13.9,35.11,35.11,0,0,0,1.76-9.61c0-1.87-.39-3.14-1.19-3.82a7.08,7.08,0,0,0-4.06-1.19l.6-2.92H2579l1.61,3a194.7,194.7,0,0,1-12.29,26.55,276.63,276.63,0,0,1-17.48,27.56q-9.42,13.07-15.69,18.91a30.23,30.23,0,0,1-8.41,5.73,18.13,18.13,0,0,1-6.86,1.31A23,23,0,0,1,2517,766a10.82,10.82,0,0,1-2.54-.56l2.57-11.58h4.71q0,3.82,2.62,3.82,3.47,0,8.06-4.32A91.34,91.34,0,0,0,2543.2,740.31Z"/><text class="cls-25" transform="translate(2578.74 765.03)">2</text><text class="cls-26" transform="translate(2661.41 740.19)">−</text><path d="M2809.1,740.31q-1.74-10.44-4.72-25.17-3.15-15.75-4.17-19.51c-.84-3-1.71-5-2.63-5.79a2.92,2.92,0,0,0-2.08-.78,5.16,5.16,0,0,0-3.58,1.56,28.81,28.81,0,0,0-4.12,5.36l-3.88-2.56q4.13-6.15,7.7-8.68a13.5,13.5,0,0,1,8-2.54,11.79,11.79,0,0,1,4.18.66,8,8,0,0,1,2.38,1.58,9.7,9.7,0,0,1,2.12,3.07,27.76,27.76,0,0,1,1.61,4.42q.69,2.45,1.52,7,1.44,7.69,2.78,16.19t2.3,15.78a138.22,138.22,0,0,0,9.81-16.34,88.29,88.29,0,0,0,5.79-13.9,35.5,35.5,0,0,0,1.76-9.61c0-1.87-.4-3.14-1.2-3.82a7,7,0,0,0-4-1.19l.59-2.92h15.69l1.61,3a194.7,194.7,0,0,1-12.29,26.55,274.82,274.82,0,0,1-17.48,27.56q-9.42,13.07-15.69,18.91a30.09,30.09,0,0,1-8.41,5.73,18.09,18.09,0,0,1-6.86,1.31,23.08,23.08,0,0,1-2.89-.21,10.82,10.82,0,0,1-2.54-.56l2.57-11.58h4.71q0,3.82,2.63,3.82,3.45,0,8.05-4.32A91.34,91.34,0,0,0,2809.1,740.31Z"/><text class="cls-25" transform="translate(2841.83 765.03)">1</text><text class="cls-26" transform="translate(2898.03 740.19)">)</text><path d="M2970.76,741.21a59.53,59.53,0,0,1-3.35,11,26.18,26.18,0,0,1-5.16,8,20.49,20.49,0,0,1-7.48,4.92,29.59,29.59,0,0,1-10.26,1.73,23.93,23.93,0,0,1-3-.15,12.22,12.22,0,0,1-2.11-.45l1.37-5.25a9.41,9.41,0,0,0,2.12.39c.77.06,1.58.09,2.41.09a13.47,13.47,0,0,0,4.59-.75,9.25,9.25,0,0,0,3.88-2.8,20.32,20.32,0,0,0,3.28-5.67,56.65,56.65,0,0,0,2.75-9.33l9.66-43q.72-3.16,1.05-5.31a25.76,25.76,0,0,0,.32-3.64,7.52,7.52,0,0,0-.29-2.26,2.68,2.68,0,0,0-1-1.41,5.11,5.11,0,0,0-2-.71,30,30,0,0,0-3-.33l.66-3.16,14.55-.54h3.4Z"/><text class="cls-26" transform="translate(2994.19 740.19)">̂</text><text class="cls-26" transform="translate(2994.19 740.19)"><tspan xml:space="preserve">  </tspan></text><text class="cls-26" transform="translate(3074.83 740.19)">+</text><text class="cls-26" transform="translate(166.59 916.5)">(</text><path d="M267,899.73l-3.64,16.77H220.17L219,913.57,251.67,876q6.91-7.93,10.14-11.28l-.36-.41h-14a18.12,18.12,0,0,0-4.53.41,9.51,9.51,0,0,0-2.87,1.46,17.06,17.06,0,0,0-3.07,3.11,39.44,39.44,0,0,0-3.67,5.87H228l3.52-15.69H274l1.13,3-28.45,32.69q-8.29,9.48-14.38,16.11l.36.41h13.48a29.45,29.45,0,0,0,5.49-.38,8.23,8.23,0,0,0,3.34-1.47,13.91,13.91,0,0,0,2.95-3.25,53.3,53.3,0,0,0,3.79-6.83Z"/><text class="cls-25" transform="translate(273.62 941.38)">2</text><text class="cls-26" transform="translate(356.71 916.54)">−</text><path d="M524.31,899.77l-3.64,16.77H477.48l-1.14-2.93L509,876q6.91-7.93,10.14-11.28l-.36-.41h-14a18.12,18.12,0,0,0-4.53.41,9.32,9.32,0,0,0-2.87,1.47,16.65,16.65,0,0,0-3.07,3.1,39.44,39.44,0,0,0-3.67,5.87h-5.31l3.52-15.69h42.42l1.13,3L504,895.18q-8.3,9.48-14.38,16.11l.36.41h13.48a29.52,29.52,0,0,0,5.49-.38,8.35,8.35,0,0,0,3.34-1.46,14.2,14.2,0,0,0,3-3.26,52.6,52.6,0,0,0,3.79-6.83Z"/><text class="cls-25" transform="translate(528.16 941.38)">1</text><text class="cls-26" transform="translate(584.37 916.54)">)</text><path d="M666.75,892a11.11,11.11,0,0,0-1.19-3.22,3,3,0,0,0-1.37-1.2,8.6,8.6,0,0,0-2.75-.3h-4.11l-6.21,29.24H640.8l15.34-68.19q.76-3.47,1.1-5.4a20.74,20.74,0,0,0,.33-3.43,3.93,3.93,0,0,0-1.52-3.52c-1-.68-2.84-1-5.46-1.13l.71-3.11,15.1-.53h3.46l-11.7,52.08h1.91q4.48,0,10-3.91a66.41,66.41,0,0,0,8.92-7.25c2.23-2.23,3.34-4.37,3.34-6.44s-1.35-3-4-3.28l.65-2.93h19.33l1.14,2.93q-5,4.47-10.5,8.77l-14.8,11.45L680,904.19a25.6,25.6,0,0,0,1.28,4,4.94,4.94,0,0,0,1.31,1.82,3.12,3.12,0,0,0,2,.6,6.47,6.47,0,0,0,3.7-1.67,36.25,36.25,0,0,0,4.89-4.83l3.4,3.34a50.34,50.34,0,0,1-8.89,7.87,12.81,12.81,0,0,1-6.8,2.21,8.91,8.91,0,0,1-6.44-2.3q-2.38-2.3-3.76-7.66Z"/><text class="cls-5" transform="translate(706.18 916.54)"><tspan class="cls-10">.</tspan><tspan class="cls-34" x="33.82" y="0"> </tspan><tspan x="74.49" y="0">Se</tspan><tspan class="cls-34" x="223.93" y="0"> </tspan><tspan x="264.6" y="0">d</tspan><tspan class="cls-35" x="332.55" y="0">e</tspan><tspan class="cls-12" x="400.86" y="0">f</tspan><tspan x="434.69" y="0">ine</tspan><tspan class="cls-36" x="597.73" y="0"> </tspan><tspan class="cls-30" x="638.4" y="0">la</tspan><tspan class="cls-36" x="733.49" y="0"> </tspan><tspan x="774.16" y="0">v</tspan></text><text class="cls-5" transform="translate(1542.25 916.54)">eloci<tspan class="cls-17" x="251.28" y="0">d</tspan><tspan x="318.98" y="0">ad</tspan><tspan class="cls-37" x="454.88" y="0"> </tspan><tspan class="cls-16" x="495.55" y="0">media</tspan><tspan class="cls-37" x="828.32" y="0"> </tspan><tspan x="868.99" y="0">y</tspan><tspan class="cls-37" x="930.08" y="0"> </tspan><tspan x="970.74" y="0">la</tspan><tspan class="cls-36" x="1065.84" y="0"> </tspan><tspan class="cls-27" x="1106.5" y="0">veloci</tspan><tspan class="cls-23" x="1418.87" y="0">d</tspan><tspan x="1486.57" y="0">a</tspan><tspan class="cls-23" x="1554.52" y="0">d</tspan><tspan x="1622.23" y="0"> </tspan></text><text class="cls-5" transform="translate(166.51 1079.4)">ins<tspan class="cls-10" x="156.18" y="0">t</tspan><tspan class="cls-30" x="190.01" y="0">an</tspan><tspan class="cls-10" x="325.91" y="0">t</tspan><tspan x="359.73" y="0">ánea</tspan><tspan class="cls-38" x="631.53" y="0"> </tspan><tspan x="712.15" y="0">duran</tspan><tspan class="cls-12" x="1024.64" y="0">t</tspan><tspan class="cls-39" x="1058.46" y="0">e</tspan><tspan class="cls-40" x="1126.17" y="0"> </tspan><tspan x="1207.15" y="0">es</tspan><tspan class="cls-10" x="1336.19" y="0">t</tspan><tspan class="cls-30" x="1370.01" y="0">e</tspan><tspan class="cls-41" x="1437.96" y="0"> </tspan><tspan class="cls-21" x="1518.95" y="0">in</tspan><tspan class="cls-12" x="1614.04" y="0">t</tspan><tspan x="1647.87" y="0">erva</tspan><tspan class="cls-23" x="1885.54" y="0">l</tspan><tspan x="1912.44" y="0">o</tspan><tspan class="cls-41" x="1980.39" y="0"> </tspan><tspan class="cls-16" x="2061.38" y="0">igua</tspan><tspan class="cls-17" x="2292.37" y="0">l</tspan><tspan class="cls-41" x="2319.27" y="0"> </tspan><tspan x="2400.26" y="0">que</tspan><tspan class="cls-41" x="2604.11" y="0"> </tspan><tspan x="2685.09" y="0">en</tspan><tspan class="cls-41" x="2820.99" y="0"> </tspan><tspan x="2901.98" y="0">el </tspan></text><text class="cls-5" transform="translate(166.51 1241.04)">movim<tspan class="cls-23" x="359.74" y="0">i</tspan><tspan x="386.64" y="0">en</tspan><tspan class="cls-10" x="522.54" y="0">t</tspan><tspan x="556.36" y="0">o</tspan><tspan class="cls-42" x="624.31" y="0"> </tspan><tspan class="cls-30" x="652.88" y="0">rec</tspan><tspan class="cls-12" x="822.61" y="0">t</tspan><tspan class="cls-21" x="856.43" y="0">il</tspan><tspan class="cls-10" x="910.72" y="0">í</tspan><tspan x="944.54" y="0">ne</tspan><tspan class="cls-39" x="1080.44" y="0">o</tspan><tspan class="cls-12" x="1148.15" y="0">,</tspan><tspan class="cls-42" x="1181.97" y="0"> </tspan><tspan x="1210.54" y="0">la</tspan><tspan class="cls-43" x="1305.63" y="0"> </tspan><tspan class="cls-21" x="1334.2" y="0">úni</tspan><tspan class="cls-44" x="1497.25" y="0">c</tspan><tspan x="1557.97" y="0">a</tspan><tspan class="cls-42" x="1625.92" y="0"> </tspan><tspan x="1654.49" y="0">di</tspan><tspan class="cls-12" x="1749.59" y="0">f</tspan><tspan x="1783.41" y="0">er</tspan><tspan class="cls-23" x="1892.05" y="0">e</tspan><tspan x="1959.75" y="0">ncia</tspan><tspan class="cls-45" x="2183.89" y="0"> </tspan><tspan x="2212.46" y="0">es</tspan><tspan class="cls-46" x="2341.49" y="0"> </tspan><tspan x="2369.7" y="0">que</tspan><tspan class="cls-42" x="2573.55" y="0"> </tspan><tspan x="2602.12" y="0">en</tspan><tspan class="cls-46" x="2738.02" y="0"> </tspan><tspan x="2766.22" y="0">es</tspan><tspan class="cls-47" x="2895.26" y="0">t</tspan><tspan class="cls-31" x="2929.45" y="0">e</tspan><tspan x="2997.77" y="0"> </tspan></text><text class="cls-5" transform="translate(166.51 1402.69)">caso<tspan class="cls-48" x="258.08" y="0"> </tspan><tspan x="300.82" y="0">el</tspan><tspan class="cls-48" x="395.92" y="0"> </tspan><tspan x="438.66" y="0">vec</tspan><tspan class="cls-12" x="628.79" y="0">t</tspan><tspan x="662.61" y="0">or</tspan><tspan class="cls-48" x="771.25" y="0"> </tspan><tspan x="813.99" y="0">de</tspan><tspan class="cls-48" x="949.89" y="0"> </tspan><tspan x="992.63" y="0">posición</tspan><tspan class="cls-48" x="1440.9" y="0"> </tspan><tspan class="cls-12" x="1483.64" y="0">t</tspan><tspan class="cls-23" x="1517.47" y="0">i</tspan><tspan x="1544.37" y="0">ene</tspan><tspan class="cls-49" x="1748.22" y="0"> </tspan><tspan x="1790.96" y="0">3</tspan><tspan class="cls-48" x="1858.91" y="0"> </tspan><tspan x="1901.65" y="0">comp</tspan><tspan class="cls-23" x="2200.42" y="0">o</tspan><tspan x="2268.12" y="0">nen</tspan><tspan class="cls-12" x="2471.97" y="0">t</tspan><tspan x="2505.8" y="0">es</tspan><tspan class="cls-12" x="2634.84" y="0">.</tspan><tspan x="2668.66" y="0"> </tspan></text><text class="cls-50" transform="translate(2880.43 1402.69)">Pa<tspan class="cls-31" x="149.44" y="0">se</tspan><tspan x="286.08" y="0"> </tspan></text><text class="cls-50" transform="translate(166.51 1563.97)">e<tspan class="cls-12" x="67.95" y="0">l</tspan><tspan class="cls-21" x="101.77" y="0" xml:space="preserve"> mo</tspan><tspan class="cls-9" x="318.99" y="0">u</tspan><tspan x="393.86" y="0">se en </tspan><tspan class="cls-51" x="740.24" y="0">l</tspan><tspan x="774.43" y="0">os n</tspan><tspan class="cls-51" x="1025.59" y="0">ú</tspan><tspan class="cls-30" x="1100.46" y="0">meros para ver </tspan><tspan class="cls-12" x="2010.54" y="0">l</tspan><tspan x="2044.36" y="0">a </tspan><tspan class="cls-52" x="2146.26" y="0">i</tspan><tspan class="cls-47" x="2180.08" y="0">n</tspan><tspan x="2254.96" y="0">forma</tspan><tspan class="cls-23" x="2594.41" y="0">c</tspan><tspan class="cls-12" x="2662.12" y="0">i</tspan><tspan x="2695.94" y="0">ón:</tspan></text><text class="cls-53" transform="translate(3052.02 1563.97)"> </text><text class="cls-5" transform="translate(3086.23 1563.97)"> </text><text class="cls-5" transform="translate(166.51 1725.6)"> </text></svg>