<svg id="Capa_1" data-name="Capa 1" xmlns="http://www.w3.org/2000/svg" viewBox="0 0 26.16 30.48"><defs><style>.cls-1{font-size:13.02px;}.cls-1,.cls-3{font-family:CambriaMath, Cambria Math;}.cls-2{font-size:16.02px;font-family:ArialMT, Arial;}.cls-3{font-size:26.08px;}</style></defs><title>simbolo1</title><path d="M8.51,12.77a7.34,7.34,0,0,1,1.66-1.71,2.79,2.79,0,0,1,1.61-.55,4.72,4.72,0,0,1,1.08.1l-.43,2h-.9a2.28,2.28,0,0,0-.15-.57.63.63,0,0,0-.23-.29.67.67,0,0,0-.33-.08,1.23,1.23,0,0,0-.69.28,4.49,4.49,0,0,0-.84.85,6.53,6.53,0,0,0-.74,1.12,5.63,5.63,0,0,0-.47,1.36l-.83,3.8H5.73L7,13.48a5.71,5.71,0,0,0,.16-.82c0-.19,0-.35,0-.48a.87.87,0,0,0-.12-.51.41.41,0,0,0-.36-.16,1,1,0,0,0-.57.23,5.89,5.89,0,0,0-.83.81l-.51-.49a8.46,8.46,0,0,1,1.36-1.2,2.12,2.12,0,0,1,1.2-.36,1.11,1.11,0,0,1,.88.37,1.4,1.4,0,0,1,.32,1,2.75,2.75,0,0,1-.17.91Z"/><text class="cls-1" transform="translate(10.79 22.71)">1</text><text class="cls-2" transform="translate(4.61 41.19)"> </text><text class="cls-3" transform="translate(7.87 22.59)">⃗ </text></svg>