<svg id="Capa_1" data-name="Capa 1" xmlns="http://www.w3.org/2000/svg" viewBox="0 0 438.31 289.28"><defs><style>.cls-1,.cls-2,.cls-6,.cls-8{font-size:18px;}.cls-1{fill:#e52421;}.cls-1,.cls-6{font-family:ArialMT, Arial;}.cls-11,.cls-12,.cls-13,.cls-2,.cls-9{font-family:CambriaMath, Cambria Math;}.cls-3{letter-spacing:0em;}.cls-4{letter-spacing:0em;}.cls-5{letter-spacing:0em;}.cls-7{letter-spacing:0em;}.cls-8{font-family:Arial-BoldMT, Arial;font-weight:700;}.cls-9{font-size:13.02px;}.cls-10{fill:#6dc0ed;}.cls-11{font-size:31.98px;}.cls-12,.cls-13{font-size:33.71px;}.cls-13,.cls-14{fill:none;}.cls-13{stroke:#000;stroke-miterlimit:10;stroke-width:0.91px;}</style></defs><title>solucion-edificio</title><text class="cls-1" transform="translate(14.63 3.16)"> </text><text class="cls-2" transform="translate(14.63 29.8)">T<tspan class="cls-3" x="10.67" y="0">ie</tspan><tspan x="24.42" y="0">mpo</tspan></text><text class="cls-2" transform="translate(73.61 29.8)"> </text><text class="cls-2" transform="translate(77.57 29.8)"><tspan class="cls-3">d</tspan><tspan x="9.97" y="0">e</tspan></text><text class="cls-2" transform="translate(96.3 29.8)"> </text><text class="cls-2" transform="translate(100.26 29.8)">v<tspan class="cls-4" x="9.07" y="0">u</tspan><tspan x="19.03" y="0">e</tspan><tspan class="cls-5" x="27.81" y="0">l</tspan><tspan x="32.71" y="0">o</tspan></text><text class="cls-6" transform="translate(142.55 29.8)"> </text><text class="cls-6" transform="translate(14.63 53.86)"> </text><path d="M65.31,88a6.66,6.66,0,0,1-1.47,1.36,2.77,2.77,0,0,1-1.48.44,1.64,1.64,0,0,1-1.84-1.86,5.59,5.59,0,0,1,.15-1.24l1-4.56H60.23l.14-.6a4.35,4.35,0,0,0,.78-.08,1.33,1.33,0,0,0,.45-.2,1.24,1.24,0,0,0,.33-.35,3.12,3.12,0,0,0,.29-.58c.09-.24.23-.65.42-1.25h1.21l-.48,2.17H66l-.19.89H63.18l-.78,3.41c-.16.66-.25,1.14-.29,1.43a4.2,4.2,0,0,0-.07.7c0,.73.31,1.09.91,1.09a1.46,1.46,0,0,0,.82-.3,5.16,5.16,0,0,0,1-1Z"/><text class="cls-2" transform="translate(71.75 89.62)">=</text><path d="M126.38,73.75a8,8,0,0,1-1.6,1.8,2.63,2.63,0,0,1-1.6.57,1.73,1.73,0,0,1-1.5-.73,3.37,3.37,0,0,1-.53-2,7.46,7.46,0,0,1,.59-2.91,5.45,5.45,0,0,1,1.63-2.2,3.7,3.7,0,0,1,2.31-.8,4.35,4.35,0,0,1,1,.11,3.58,3.58,0,0,1,.93.38l.46-2c0-.19.08-.41.12-.64a5.12,5.12,0,0,0,0-.62.74.74,0,0,0-.09-.4.56.56,0,0,0-.28-.19,3,3,0,0,0-.65-.09l.11-.46,2.2-.08H130l-2.19,9.73a6.45,6.45,0,0,0-.19,1.3.92.92,0,0,0,.11.51.42.42,0,0,0,.37.16,1,1,0,0,0,.56-.21,6.2,6.2,0,0,0,.84-.83l.5.5a8,8,0,0,1-1.36,1.2,2.24,2.24,0,0,1-1.2.35,1.12,1.12,0,0,1-.87-.36,1.41,1.41,0,0,1-.32-1,3.12,3.12,0,0,1,.2-1Zm.59-3.11a6.46,6.46,0,0,0,.13-1.2,1.43,1.43,0,0,0-.29-1,1.29,1.29,0,0,0-1-.32,2.19,2.19,0,0,0-1.61.73,5,5,0,0,0-1.12,2,7.83,7.83,0,0,0-.41,2.46,3,3,0,0,0,.25,1.36.9.9,0,0,0,.84.46,1.45,1.45,0,0,0,.56-.12,2.27,2.27,0,0,0,.58-.39,4.69,4.69,0,0,0,.6-.64,7.55,7.55,0,0,0,.54-.76,5.37,5.37,0,0,0,.46-.9,7.42,7.42,0,0,0,.36-1.26Z"/><path d="M94.79,89.68l-.1.43a1.1,1.1,0,0,0-.6.23,1,1,0,0,0-.3.51,3.53,3.53,0,0,0-.09.89c0,.08,0,.35,0,.79L94,99v.7h.09l3.81-6.86a8.55,8.55,0,0,0,.5-1,2.21,2.21,0,0,0,.16-.77c0-.49-.29-.79-.88-.88l.1-.43h3.6l-.1.43a1,1,0,0,0-.45.18,2.4,2.4,0,0,0-.49.48,13.65,13.65,0,0,0-.83,1.31l-5.62,9.74H92.69L92.1,92A6,6,0,0,0,92,91a1.46,1.46,0,0,0-.29-.64,1,1,0,0,0-.63-.29l.1-.43Z"/><path d="M100.39,105.45a2.54,2.54,0,0,1-.94-.16,2,2,0,0,1-1.16-1.18,2.59,2.59,0,0,1-.16-1,5.12,5.12,0,0,1,.28-1.69,4.21,4.21,0,0,1,.79-1.37,3.66,3.66,0,0,1,1.18-.92,3.31,3.31,0,0,1,1.48-.33,2.59,2.59,0,0,1,1,.18,2,2,0,0,1,1.14,1.24,2.71,2.71,0,0,1,.15.91,5.1,5.1,0,0,1-.29,1.75,4.29,4.29,0,0,1-.79,1.35,3.77,3.77,0,0,1-1.19.87A3.67,3.67,0,0,1,100.39,105.45Zm-1-2a1.57,1.57,0,0,0,.31,1.08,1.14,1.14,0,0,0,.91.35,1.34,1.34,0,0,0,.65-.17,2,2,0,0,0,.56-.46,3.43,3.43,0,0,0,.46-.67,6.11,6.11,0,0,0,.34-.82,6.37,6.37,0,0,0,.21-.91,5.67,5.67,0,0,0,.07-.91,1.71,1.71,0,0,0-.28-1.07,1,1,0,0,0-.87-.36,1.53,1.53,0,0,0-.67.15,2.18,2.18,0,0,0-.57.44,3.26,3.26,0,0,0-.47.66,4.6,4.6,0,0,0-.35.82,5.61,5.61,0,0,0-.22.92A6.19,6.19,0,0,0,99.38,103.42Z"/><path d="M116.48,90,116,92.37h-.84a2.72,2.72,0,0,0-.47-1.56,1.6,1.6,0,0,0-1.29-.48,3,3,0,0,0-2.25,1.21,8.66,8.66,0,0,0-1.65,3.21,12.86,12.86,0,0,0-.61,3.69,3.26,3.26,0,0,0,.48,2,1.7,1.7,0,0,0,1.46.63,3.12,3.12,0,0,0,1.15-.19,2.71,2.71,0,0,0,.92-.67,5.69,5.69,0,0,0,.85-1.32h.85l-.54,2.5a12.93,12.93,0,0,1-3.44.46,3.24,3.24,0,0,1-2.52-.95,4,4,0,0,1-.86-2.78,11.85,11.85,0,0,1,.46-3,10.39,10.39,0,0,1,1.31-3,6,6,0,0,1,2-1.94,4.91,4.91,0,0,1,2.53-.67,9.89,9.89,0,0,1,1.49.1A9.7,9.7,0,0,1,116.48,90Z"/><path d="M120.58,101.83a2.82,2.82,0,0,1-2.11-.77,3,3,0,0,1-.75-2.2,7.42,7.42,0,0,1,.21-1.62,6,6,0,0,1,.91-2.18,4.48,4.48,0,0,1,1.58-1.43,4.4,4.4,0,0,1,2.07-.5,2.83,2.83,0,0,1,2.14.77,3,3,0,0,1,.74,2.2,7.66,7.66,0,0,1-.35,2.18,6.1,6.1,0,0,1-1,2,4.13,4.13,0,0,1-1.48,1.19A4.73,4.73,0,0,1,120.58,101.83Zm-1.32-2.59a2.12,2.12,0,0,0,.4,1.43,1.49,1.49,0,0,0,1.2.46,2,2,0,0,0,1.53-.77,5.57,5.57,0,0,0,1.06-2.17,9.17,9.17,0,0,0,.38-2.45,2.34,2.34,0,0,0-.36-1.42,1.37,1.37,0,0,0-1.16-.48,2.05,2.05,0,0,0-1.59.76,5.46,5.46,0,0,0-1.07,2.19A9.53,9.53,0,0,0,119.26,99.24ZM133,95.41a1.9,1.9,0,0,0-.51-1.19,1.85,1.85,0,0,0-1.32-.4,1.69,1.69,0,0,0-1.12.36,1.12,1.12,0,0,0-.43.93,1.25,1.25,0,0,0,.11.56,1.63,1.63,0,0,0,.44.53,7.76,7.76,0,0,0,1,.71,10.14,10.14,0,0,1,.89.61,2.9,2.9,0,0,1,.52.55,2,2,0,0,1,.29.58,3.07,3.07,0,0,1,.08.73,2.22,2.22,0,0,1-.41,1.34,2.42,2.42,0,0,1-1.14.83,4.39,4.39,0,0,1-1.63.28,9.73,9.73,0,0,1-1.43-.11,12.16,12.16,0,0,1-1.57-.38l.43-1.91h.68a1.82,1.82,0,0,0,.48,1.27,1.91,1.91,0,0,0,1.39.43,2,2,0,0,0,1.31-.37,1.28,1.28,0,0,0,.47-1.06,1.59,1.59,0,0,0-.13-.68,1.66,1.66,0,0,0-.43-.55,6.66,6.66,0,0,0-.95-.66,7.07,7.07,0,0,1-1.07-.75,2.28,2.28,0,0,1-.58-.72,2.13,2.13,0,0,1-.19-.9,2.1,2.1,0,0,1,.37-1.22,2.4,2.4,0,0,1,1.07-.81,4.43,4.43,0,0,1,1.62-.28,11.27,11.27,0,0,1,1.49.1,7.28,7.28,0,0,1,1.34.33l-.4,1.85Z"/><text class="cls-2" transform="translate(134.62 101.68)">30°</text><rect x="90.22" y="83.92" width="71.04" height="1.14"/><text class="cls-6" transform="translate(164.26 89.62)"><tspan xml:space="preserve">   </tspan><tspan class="cls-7" x="15" y="0"> </tspan><tspan x="20.04" y="0" xml:space="preserve">  </tspan><tspan class="cls-7" x="30.04" y="0"> </tspan><tspan x="35.08" y="0" xml:space="preserve">  </tspan><tspan class="cls-7" x="45.08" y="0"> </tspan><tspan x="50.12" y="0" xml:space="preserve">  </tspan></text><path d="M230.37,88a6.66,6.66,0,0,1-1.47,1.36,2.83,2.83,0,0,1-1.49.44,1.63,1.63,0,0,1-1.83-1.86,5.59,5.59,0,0,1,.15-1.24l1-4.56h-1.47l.13-.6a4.48,4.48,0,0,0,.79-.08,1.37,1.37,0,0,0,.44-.2,1.24,1.24,0,0,0,.33-.35,3.12,3.12,0,0,0,.29-.58c.1-.24.24-.65.43-1.25h1.21l-.49,2.17h2.68l-.2.89h-2.67l-.78,3.41c-.15.66-.25,1.14-.29,1.43a5.33,5.33,0,0,0-.06.7c0,.73.3,1.09.9,1.09a1.46,1.46,0,0,0,.82-.3,5.44,5.44,0,0,0,1-1Z"/><text class="cls-2" transform="translate(236.86 89.62)">=</text><text class="cls-2" transform="translate(291.27 75.99)">50</text><text class="cls-2" transform="translate(255.27 101.68)">40</text><text class="cls-2" transform="translate(279.21 101.68)">∗</text><path d="M302.34,90l-.52,2.38H301a2.65,2.65,0,0,0-.47-1.56,1.57,1.57,0,0,0-1.29-.48A3,3,0,0,0,297,91.54a9,9,0,0,0-1.65,3.21,12.82,12.82,0,0,0-.6,3.69,3.27,3.27,0,0,0,.47,2,1.71,1.71,0,0,0,1.46.63,3.12,3.12,0,0,0,1.15-.19,2.62,2.62,0,0,0,.92-.67,6,6,0,0,0,.86-1.32h.84l-.54,2.5a12.93,12.93,0,0,1-3.44.46,3.26,3.26,0,0,1-2.52-.95,4,4,0,0,1-.86-2.78,11.85,11.85,0,0,1,.46-3,10.39,10.39,0,0,1,1.31-3,6,6,0,0,1,2-1.94,4.89,4.89,0,0,1,2.53-.67,9.84,9.84,0,0,1,1.48.1A9.45,9.45,0,0,1,302.34,90Z"/><path d="M306.44,101.83a2.83,2.83,0,0,1-2.11-.77,3,3,0,0,1-.75-2.2,7.42,7.42,0,0,1,.21-1.62,6.2,6.2,0,0,1,.91-2.18,4.43,4.43,0,0,1,1.59-1.43,4.33,4.33,0,0,1,2.06-.5,2.87,2.87,0,0,1,2.15.77,3.08,3.08,0,0,1,.74,2.2,7.35,7.35,0,0,1-.36,2.18,5.9,5.9,0,0,1-1,2,4,4,0,0,1-1.48,1.19A4.73,4.73,0,0,1,306.44,101.83Zm-1.32-2.59a2.12,2.12,0,0,0,.4,1.43,1.5,1.5,0,0,0,1.21.46,2,2,0,0,0,1.53-.77,5.71,5.71,0,0,0,1.05-2.17,9.22,9.22,0,0,0,.39-2.45,2.34,2.34,0,0,0-.37-1.42,1.36,1.36,0,0,0-1.15-.48,2.09,2.09,0,0,0-1.6.76,5.46,5.46,0,0,0-1.07,2.19A9.53,9.53,0,0,0,305.12,99.24Zm13.71-3.83a1.9,1.9,0,0,0-.51-1.19,1.83,1.83,0,0,0-1.31-.4,1.7,1.7,0,0,0-1.13.36,1.12,1.12,0,0,0-.43.93,1.4,1.4,0,0,0,.11.56,1.63,1.63,0,0,0,.44.53,8.49,8.49,0,0,0,1,.71,8.82,8.82,0,0,1,.89.61,3.36,3.36,0,0,1,.53.55,2.22,2.22,0,0,1,.28.58,2.6,2.6,0,0,1,.09.73,2.16,2.16,0,0,1-.42,1.34,2.42,2.42,0,0,1-1.14.83,4.35,4.35,0,0,1-1.63.28,9.73,9.73,0,0,1-1.43-.11,11.67,11.67,0,0,1-1.56-.38l.42-1.91h.68a1.86,1.86,0,0,0,.48,1.27,1.92,1.92,0,0,0,1.4.43,2,2,0,0,0,1.3-.37,1.28,1.28,0,0,0,.47-1.06,1.59,1.59,0,0,0-.13-.68,1.66,1.66,0,0,0-.43-.55,6.66,6.66,0,0,0-.95-.66,7.63,7.63,0,0,1-1.07-.75,2.24,2.24,0,0,1-.57-.72,2,2,0,0,1-.2-.9,2,2,0,0,1,.38-1.22,2.37,2.37,0,0,1,1.06-.81,4.5,4.5,0,0,1,1.62-.28,11.15,11.15,0,0,1,1.49.1,7.09,7.09,0,0,1,1.34.33l-.39,1.85Z"/><text class="cls-2" transform="translate(320.54 101.68)">30°</text><rect x="255.28" y="83.92" width="91.98" height="1.14"/><text class="cls-2" transform="translate(352.24 89.62)">=</text><path d="M377.76,87.16a3.66,3.66,0,0,0,.06.77.91.91,0,0,0,.2.43,1.07,1.07,0,0,0,.42.25,3.36,3.36,0,0,0,.68.14c.28,0,.64.06,1.09.07v.8h-7.58v-.8A12.06,12.06,0,0,0,374,88.7a1.69,1.69,0,0,0,.64-.23.91.91,0,0,0,.32-.42,2.73,2.73,0,0,0,.1-.89V80.81a.81.81,0,0,0-.14-.52.47.47,0,0,0-.37-.16,1.49,1.49,0,0,0-.62.21,13.37,13.37,0,0,0-1.31.82l-.54-.93,4.59-2.75h1.12c0,.56-.05,1.34-.05,2.34Z"/><text class="cls-2" transform="translate(381.46 89.62)">,</text><path d="M392.4,89a1.86,1.86,0,0,0,.64-.28.79.79,0,0,0,.23-.41,3.72,3.72,0,0,0,.07-.9V86.14h-4.71v-1L394,77.56h2V85h.27a2.14,2.14,0,0,0,.61-.06.63.63,0,0,0,.3-.21,1.72,1.72,0,0,0,.25-.57h.92l-.11,2h-2.24v1.31a3.78,3.78,0,0,0,.08.92.76.76,0,0,0,.24.4,1.92,1.92,0,0,0,.63.27v.58H392.4Zm-2.07-4h3V83q0-1.27.09-2.67h-.09l-3,4.53Z"/><text class="cls-2" transform="translate(398.87 89.62)"> </text><path d="M404.87,87.16a2.1,2.1,0,0,0,.41,1.23,1.36,1.36,0,0,0,1.12.45,1.53,1.53,0,0,0,1.07-.34,1.17,1.17,0,0,0,.38-1,1.46,1.46,0,0,0-.12-.62,1.53,1.53,0,0,0-.41-.5,7.3,7.3,0,0,0-.91-.63,4.09,4.09,0,0,1-1.28-1.09,2.2,2.2,0,0,1-.4-1.27,2.29,2.29,0,0,1,1-2,4.6,4.6,0,0,1,2.71-.69,9.46,9.46,0,0,1,1.45.11,10.45,10.45,0,0,1,1.42.29l-.46,2.1h-1.11a2.23,2.23,0,0,0-.42-1.2,1.22,1.22,0,0,0-1-.39,1.44,1.44,0,0,0-.95.3,1.06,1.06,0,0,0-.35.83,1.19,1.19,0,0,0,.3.8,5.5,5.5,0,0,0,1.16.86,4.21,4.21,0,0,1,1.33,1.14,2.37,2.37,0,0,1,.41,1.38,2.45,2.45,0,0,1-.48,1.53,2.9,2.9,0,0,1-1.31.94,5.61,5.61,0,0,1-1.9.31,12.64,12.64,0,0,1-3.27-.42l.5-2.18Z"/><text class="cls-8" transform="translate(411.88 89.62)"> </text><text class="cls-6" transform="translate(14.62 125.5)"> </text><text class="cls-2" transform="translate(67.34 160.78)">ℎ</text><text class="cls-2" transform="translate(77.6 160)">(</text><text class="cls-2" transform="translate(85.11 160.78)">1</text><text class="cls-2" transform="translate(95.06 160.78)">,</text><text class="cls-2" transform="translate(98.79 160.78)">4</text><text class="cls-2" transform="translate(108.74 160)">)</text><text class="cls-2" transform="translate(121.16 160.78)">=</text><text class="cls-2" transform="translate(139.65 160.78)">40</text><text class="cls-2" transform="translate(163.59 160.78)">∗</text><path d="M183,158a2.25,2.25,0,0,0,.49,1.6,2,2,0,0,0,1.54.52,2.65,2.65,0,0,0,1.88-.65,2.36,2.36,0,0,0,.68-1.81,2.28,2.28,0,0,0-.18-.94,2.63,2.63,0,0,0-.58-.79,7.46,7.46,0,0,0-1.1-.85,8,8,0,0,1-1.08-.87,3.35,3.35,0,0,1-.69-.95,2.68,2.68,0,0,1-.25-1.18,3.39,3.39,0,0,1,.5-1.83,3.27,3.27,0,0,1,1.42-1.22,4.85,4.85,0,0,1,2.11-.43,9.93,9.93,0,0,1,1.49.11,11.18,11.18,0,0,1,1.53.37l-.49,2.26h-.85a3.13,3.13,0,0,0-.23-1.17,1.14,1.14,0,0,0-.55-.61,2,2,0,0,0-1-.19,2.66,2.66,0,0,0-1.28.3,2.05,2.05,0,0,0-.84.81,2.26,2.26,0,0,0-.29,1.15,2,2,0,0,0,.34,1.16,5.47,5.47,0,0,0,1.33,1.17,8.33,8.33,0,0,1,1.32,1.07,3.19,3.19,0,0,1,.67,1,3.25,3.25,0,0,1,.21,1.22,3.56,3.56,0,0,1-.51,1.9,3.47,3.47,0,0,1-1.45,1.28,4.76,4.76,0,0,1-2.13.46,12.44,12.44,0,0,1-1.75-.14,11.48,11.48,0,0,1-1.67-.33l.52-2.42Zm15.39,1a6.59,6.59,0,0,1-1.73,1.41,4.14,4.14,0,0,1-2,.48,2.5,2.5,0,0,1-2-.78A3.11,3.11,0,0,1,192,158a6.57,6.57,0,0,1,.34-2,5.73,5.73,0,0,1,1-1.94A4.84,4.84,0,0,1,195,152.7a4.5,4.5,0,0,1,2-.48,2.5,2.5,0,0,1,1.6.44,1.62,1.62,0,0,1,.53,1.34,2.4,2.4,0,0,1-1.4,2.24,9.08,9.08,0,0,1-4.16.75,5.8,5.8,0,0,0-.11,1.14,2,2,0,0,0,.36,1.34,1.47,1.47,0,0,0,1.18.42,3.06,3.06,0,0,0,1.46-.35,6.49,6.49,0,0,0,1.39-1.08Zm-4.67-2.79a9.27,9.27,0,0,0,2.12-.22,2.9,2.9,0,0,0,1.37-.69,1.71,1.71,0,0,0,.47-1.27,1.26,1.26,0,0,0-.25-.84.92.92,0,0,0-.74-.3,2.32,2.32,0,0,0-1.71.9A5.83,5.83,0,0,0,193.71,156.24Zm8.66-1a6.1,6.1,0,0,0,.19-1.3.88.88,0,0,0-.11-.51.43.43,0,0,0-.36-.15,1,1,0,0,0-.58.22,6.49,6.49,0,0,0-.83.81l-.5-.49a8.93,8.93,0,0,1,1.35-1.2,2.1,2.1,0,0,1,1.21-.36,1.1,1.1,0,0,1,.87.37,1.36,1.36,0,0,1,.33.95,3.08,3.08,0,0,1-.22,1l.11,0a8,8,0,0,1,1.64-1.8,2.64,2.64,0,0,1,1.6-.59,1.64,1.64,0,0,1,1.26.47,1.87,1.87,0,0,1,.44,1.31,7.06,7.06,0,0,1-.26,1.57l-.57,2.31a6.17,6.17,0,0,0-.23,1.35.88.88,0,0,0,.11.51.44.44,0,0,0,.36.16,1,1,0,0,0,.56-.22,6.49,6.49,0,0,0,.85-.82l.5.49a8.39,8.39,0,0,1-1.32,1.18,2.27,2.27,0,0,1-1.28.38,1.16,1.16,0,0,1-.92-.41,1.55,1.55,0,0,1-.34-1,7.49,7.49,0,0,1,.29-1.68l.39-1.52c.14-.55.23-1,.27-1.22a3.61,3.61,0,0,0,.07-.65,1.51,1.51,0,0,0-.2-.87.78.78,0,0,0-.66-.27,1.43,1.43,0,0,0-.8.3,4.57,4.57,0,0,0-.9.88,6.65,6.65,0,0,0-.77,1.16,5.74,5.74,0,0,0-.48,1.37l-.83,3.81h-1.52Z"/><text class="cls-2" transform="translate(205.04 160.78)">30</text><text class="cls-2" transform="translate(224.97 160)">(</text><text class="cls-2" transform="translate(232.48 160.78)">1</text><text class="cls-2" transform="translate(242.43 160.78)">,</text><text class="cls-2" transform="translate(246.16 160.78)">4</text><text class="cls-2" transform="translate(256.11 160)">)</text><text class="cls-2" transform="translate(267.56 160.78)">−</text><text class="cls-2" transform="translate(285.02 147.15)">1</text><text class="cls-2" transform="translate(285.02 172.84)">2</text><rect x="290.26" y="155.08" width="9.96" height="1.14"/><text class="cls-2" transform="translate(297.98 160.78)">(</text><text class="cls-2" transform="translate(305.49 160.78)">9</text><text class="cls-2" transform="translate(315.44 160.78)">,</text><text class="cls-2" transform="translate(319.17 160.78)">81</text><text class="cls-2" transform="translate(339.1 160.78)">)</text><text class="cls-2" transform="translate(346.6 160.78)">(</text><text class="cls-2" transform="translate(354.04 160.78)">1</text><text class="cls-2" transform="translate(363.99 160.78)">,</text><text class="cls-2" transform="translate(367.72 160.78)">4</text><text class="cls-2" transform="translate(377.67 160.78)">)</text><text class="cls-9" transform="translate(390.35 154.18)">2</text><text class="cls-6" transform="translate(398.56 160.78)"> </text><text class="cls-6" transform="translate(14.62 192.87)"> </text><text class="cls-6" transform="translate(14.62 216.68)"> </text><text class="cls-6" transform="translate(14.62 240.5)"> </text><text class="cls-1" transform="translate(14.62 264.26)"> </text><text class="cls-1" transform="translate(14.62 288.07)"> </text><text class="cls-1" transform="translate(257.14 303.34)"> </text><rect class="cls-10" x="9.35" y="191.56" width="419.6" height="60.05" rx="10.01"/><path d="M105.3,220.36l.2.06a9.47,9.47,0,0,1,2.55-2.26,5.68,5.68,0,0,1,2.84-.72,3.41,3.41,0,0,1,2.5.9,3.36,3.36,0,0,1,.9,2.47,9.23,9.23,0,0,1-.1,1.25c-.07.5-.15.94-.24,1.33l-1.24,4.87a7.86,7.86,0,0,0-.26,1.82,1.37,1.37,0,0,0,.2.85.75.75,0,0,0,.58.23,1.74,1.74,0,0,0,1-.42,9.9,9.9,0,0,0,1.33-1.31l1.13,1.12a12.54,12.54,0,0,1-2.74,2.22,5.5,5.5,0,0,1-2.67.66,3.29,3.29,0,0,1-2.39-.78,3.22,3.22,0,0,1-.79-2.39,11.55,11.55,0,0,1,.42-2.86l.72-2.72c.17-.67.33-1.34.45-2a8.4,8.4,0,0,0,.19-1.58,1.66,1.66,0,0,0-.28-1,1,1,0,0,0-.85-.36,2.92,2.92,0,0,0-1.85,1,8.06,8.06,0,0,0-1.59,2,9.2,9.2,0,0,0-.82,2.46l-1.72,8H98.3l4-17.65a11.55,11.55,0,0,0,.35-2.23,1.86,1.86,0,0,0-.07-.54.74.74,0,0,0-.22-.32,1,1,0,0,0-.37-.2,8.65,8.65,0,0,0-.92-.16l.25-1,4.67-.25h1.76Z"/><text class="cls-11" transform="translate(117.08 231.74)">(</text><path d="M143,228.82a6.63,6.63,0,0,0,.11,1.37,1.55,1.55,0,0,0,.36.75,1.67,1.67,0,0,0,.74.45,6.18,6.18,0,0,0,1.22.25c.48.06,1.13.09,1.93.12v1.42H133.85v-1.42a22.29,22.29,0,0,0,2.47-.22,3,3,0,0,0,1.13-.39,1.54,1.54,0,0,0,.57-.75,5,5,0,0,0,.18-1.58V217.53a1.41,1.41,0,0,0-.24-.92.81.81,0,0,0-.66-.28,2.69,2.69,0,0,0-1.1.36,24.74,24.74,0,0,0-2.34,1.46l-1-1.65,8.15-4.89h2c-.06,1-.1,2.39-.1,4.16Z"/><text class="cls-11" transform="translate(149.47 233.18)">,</text><path d="M169,232.15a2.92,2.92,0,0,0,1.14-.5,1.44,1.44,0,0,0,.42-.72,8.15,8.15,0,0,0,.11-1.61V227h-8.37v-1.68l9.48-13.56h3.52V225h.48a3.79,3.79,0,0,0,1.08-.11,1.06,1.06,0,0,0,.54-.38,3.11,3.11,0,0,0,.43-1h1.64l-.19,3.45h-4v2.33a6.35,6.35,0,0,0,.14,1.65,1.36,1.36,0,0,0,.43.71,3.56,3.56,0,0,0,1.11.47v1h-8ZM165.3,225h5.34v-3.58c0-1.5.06-3.08.16-4.73h-.16l-5.34,8Z"/><text class="cls-11" transform="translate(180.49 231.74)">)</text><text class="cls-11" transform="translate(202.7 233.18)">=</text><path d="M248.07,228.82a6.77,6.77,0,0,0,.1,1.37,1.75,1.75,0,0,0,.36.75,1.73,1.73,0,0,0,.74.45,6.18,6.18,0,0,0,1.22.25c.49.06,1.13.09,1.94.12v1.42H239v-1.42a22.53,22.53,0,0,0,2.48-.22,3,3,0,0,0,1.13-.39,1.54,1.54,0,0,0,.57-.75,5,5,0,0,0,.18-1.58V217.53a1.35,1.35,0,0,0-.25-.92.81.81,0,0,0-.66-.28,2.69,2.69,0,0,0-1.1.36,26.38,26.38,0,0,0-2.33,1.46l-1-1.65,8.15-4.89h2c-.06,1-.09,2.39-.09,4.16Z"/><path d="M268.43,221.92l0,.2a5.81,5.81,0,0,1,2.74,2,5.81,5.81,0,0,1-.06,6.4,6.23,6.23,0,0,1-2.83,2.13,12.68,12.68,0,0,1-8.45.07,6,6,0,0,1-2.72-2,5.63,5.63,0,0,1-.07-6.21,6.61,6.61,0,0,1,2.83-2.14l0-.2a5.12,5.12,0,0,1-3.45-5,4.55,4.55,0,0,1,1-2.87,6.45,6.45,0,0,1,2.82-2,11,11,0,0,1,4.07-.72A9.9,9.9,0,0,1,270,213a4.56,4.56,0,0,1,1.93,3.94,5,5,0,0,1-.88,2.95A6.11,6.11,0,0,1,268.43,221.92Zm-7.51,5.28a5.65,5.65,0,0,0,.82,3.35,2.82,2.82,0,0,0,2.44,1.13,2.77,2.77,0,0,0,2.39-1.11,5.2,5.2,0,0,0,.81-3.11,5.51,5.51,0,0,0-.87-3.29,2.8,2.8,0,0,0-2.36-1.19,2.84,2.84,0,0,0-2.42,1.08A5.2,5.2,0,0,0,260.92,227.2Zm.18-10.14a5.15,5.15,0,0,0,.81,3.13,2.72,2.72,0,0,0,2.35,1.09,2.63,2.63,0,0,0,2.27-1,5.95,5.95,0,0,0,0-5.87,2.7,2.7,0,0,0-2.27-1,2.88,2.88,0,0,0-2.34.94A4.21,4.21,0,0,0,261.1,217.06Z"/><text class="cls-11" transform="translate(273.7 233.18)">,</text><path d="M293.2,232.15a2.79,2.79,0,0,0,1.13-.5,1.39,1.39,0,0,0,.43-.72,8.15,8.15,0,0,0,.11-1.61V227H286.5v-1.68L296,211.75h3.51V225H300a3.79,3.79,0,0,0,1.08-.11,1.08,1.08,0,0,0,.53-.38,2.72,2.72,0,0,0,.43-1h1.64l-.18,3.45h-4v2.33a6.84,6.84,0,0,0,.14,1.65,1.51,1.51,0,0,0,.43.71,3.76,3.76,0,0,0,1.12.47v1h-8ZM289.53,225h5.34v-3.58c0-1.5.05-3.08.16-4.73h-.16l-5.34,8Z"/><text class="cls-11" transform="translate(304.72 233.18)"> </text><path d="M337.05,228.26c-.11.43-.18.77-.22,1a6.65,6.65,0,0,0,0,.81,1.37,1.37,0,0,0,.2.85.75.75,0,0,0,.58.23,1.7,1.7,0,0,0,1-.43,9.21,9.21,0,0,0,1.33-1.3l1.13,1.12a12.56,12.56,0,0,1-2.75,2.22,5.44,5.44,0,0,1-2.66.66,3.22,3.22,0,0,1-2.39-.8,3.36,3.36,0,0,1-.78-2.44,9.21,9.21,0,0,1,.11-1.25,15.55,15.55,0,0,1,.31-1.54l.72-2.72c.17-.61.32-1.26.45-1.94a9,9,0,0,0,.19-1.59c0-1-.37-1.43-1.12-1.43a2.72,2.72,0,0,0-1.64.85,7.58,7.58,0,0,0-2.58,4.6l-1.72,8h-4.49l2.28-9.93c.11-.48.19-.88.23-1.18a6.44,6.44,0,0,0,.06-.81,2,2,0,0,0-.28-1.18,1,1,0,0,0-.89-.36,2.71,2.71,0,0,0-1.69.89,8.5,8.5,0,0,0-1.58,1.87,8.68,8.68,0,0,0-1,2.69l-1.75,8h-4.48l2.51-10.86a7.26,7.26,0,0,0,.24-1.54,1.59,1.59,0,0,0-.17-.8.65.65,0,0,0-.6-.28,1.75,1.75,0,0,0-1,.44,9.66,9.66,0,0,0-1.31,1.29l-1.13-1.12a12,12,0,0,1,2.77-2.23,5.37,5.37,0,0,1,2.56-.64,2.93,2.93,0,0,1,2.07.72,2.78,2.78,0,0,1,.67,2.66l.19.1a11.52,11.52,0,0,1,2.76-2.64,5.69,5.69,0,0,1,3.1-.84,3.39,3.39,0,0,1,2.46.86,3.25,3.25,0,0,1,.94,2.37,10.15,10.15,0,0,1,2.62-2.45,5.75,5.75,0,0,1,3-.78,3.1,3.1,0,0,1,3.37,3.37,10.77,10.77,0,0,1-.08,1.14,10,10,0,0,1-.23,1.28Z"/><text class="cls-12" transform="matrix(0.95, 0, -0.32, 0.95, 341.54, 233.18)"> </text><text class="cls-13" transform="matrix(0.95, 0, -0.32, 0.95, 341.54, 233.18)"> </text><rect class="cls-14" x="12.32" y="198.14" width="413.7" height="46.92"/></svg>