<svg id="Capa_1" data-name="Capa 1" xmlns="http://www.w3.org/2000/svg" viewBox="0 0 3261.31 936.01"><defs><style>.cls-1,.cls-4{font-size:186.37px;}.cls-1,.cls-3,.cls-5,.cls-6{font-family:CambriaMath, Cambria Math;}.cls-2{letter-spacing:0em;}.cls-3{font-size:134.02px;}.cls-4{font-family:ArialMT, Arial;}.cls-5{font-size:194.48px;}.cls-6{font-size:139.85px;}.cls-7{letter-spacing:0em;}.cls-8{letter-spacing:0em;}.cls-9{letter-spacing:0em;}</style></defs><title>solucion1-3</title><text class="cls-1" transform="translate(48.83 360.09)">2</text><text class="cls-1" transform="translate(203.7 360.09)">=</text><text class="cls-1" transform="translate(394.17 360.09)">2</text><text class="cls-1" transform="translate(538.6 360.09)">+</text><text class="cls-1" transform="translate(718.63 360.09)">500</text><path d="M1044.12,331.79q0,11.1,5.14,16.51t15.88,5.42q12.38,0,19.47-6.74t7.1-18.74a23,23,0,0,0-2-9.78,27.56,27.56,0,0,0-5.91-8.1,82.25,82.25,0,0,0-11.42-8.87,77.7,77.7,0,0,1-11.19-9,35.48,35.48,0,0,1-7.1-9.87,27.64,27.64,0,0,1-2.64-12.2,34.59,34.59,0,0,1,5.19-18.92,34,34,0,0,1,14.65-12.65,50.74,50.74,0,0,1,21.84-4.46,98.57,98.57,0,0,1,15.51,1.14,111,111,0,0,1,15.79,3.86l-5.1,23.39h-8.73q-.36-7.72-2.37-12.15a12.6,12.6,0,0,0-5.73-6.32,21.79,21.79,0,0,0-9.92-1.91,27.6,27.6,0,0,0-13.29,3.09,21.42,21.42,0,0,0-8.73,8.42,23.77,23.77,0,0,0-3,11.87,20.35,20.35,0,0,0,3.59,12q3.6,5.14,13.79,12.15a91.7,91.7,0,0,1,13.6,11.06,32.9,32.9,0,0,1,6.92,10.32,33.41,33.41,0,0,1,2.23,12.65,36.64,36.64,0,0,1-5.33,19.7,35.16,35.16,0,0,1-15,13.29,50.14,50.14,0,0,1-22.07,4.69,130,130,0,0,1-18.06-1.37,139.33,139.33,0,0,1-17.34-3.46l5.46-25Zm159,10.19a69.14,69.14,0,0,1-17.88,14.65,43.42,43.42,0,0,1-21.06,4.91q-13.2,0-20.43-8.05t-7.24-22.43a69.7,69.7,0,0,1,3.51-20.88,60.92,60.92,0,0,1,10.6-20,49.41,49.41,0,0,1,17-13.74,47.26,47.26,0,0,1,21.12-4.87q11,0,16.51,4.46t5.51,13.92q0,15.46-14.52,23.2t-43.08,7.74a60.14,60.14,0,0,0-1.1,11.83q0,9.56,3.73,13.88t12.2,4.32a31.59,31.59,0,0,0,15.15-3.64,63.18,63.18,0,0,0,14.33-11.2Zm-48.41-28.85a97.14,97.14,0,0,0,22-2.32q9.19-2.22,14.11-7.1t4.91-13.14q0-5.55-2.59-8.69c-1.73-2.1-4.29-3.14-7.69-3.14q-9.2,0-17.7,9.28T1154.71,313.13Zm89.23-10.73a65.58,65.58,0,0,0,2-13.47q0-3.65-1.18-5.28A4.29,4.29,0,0,0,1241,282a10.21,10.21,0,0,0-6,2.32,65.43,65.43,0,0,0-8.6,8.42l-5.19-5.1q8.37-8.73,13.92-12.42a22.25,22.25,0,0,1,12.56-3.68,11.48,11.48,0,0,1,9.06,3.77,14.43,14.43,0,0,1,3.32,9.88,31.22,31.22,0,0,1-2.19,10.73l1.1.37q8.91-12.56,17-18.61t16.6-6.05c5.65,0,10,1.62,13,4.87s4.55,7.75,4.55,13.51q0,5.73-2.64,16.29l-5.92,23.84q-2.45,9.92-2.45,14,0,3.64,1.18,5.28a4.29,4.29,0,0,0,3.73,1.64,10.08,10.08,0,0,0,5.82-2.23,63.43,63.43,0,0,0,8.74-8.51l5.19,5.1q-7.83,8.37-13.65,12.24a23.57,23.57,0,0,1-13.29,3.86,11.72,11.72,0,0,1-9.46-4.23,16.17,16.17,0,0,1-3.55-10.78q0-5.91,3-17.38l4-15.74q2.17-8.57,2.86-12.65a41.67,41.67,0,0,0,.68-6.65c0-4.18-.69-7.2-2.09-9.05s-3.67-2.78-6.82-2.78q-3.83,0-8.24,3.05a47.18,47.18,0,0,0-9.37,9.19,72,72,0,0,0-8,11.92,59.38,59.38,0,0,0-4.92,14.25l-8.64,39.4h-15.75Zm119.25,59.14q-13.56,0-20.2-8.28t-6.64-24.84a152.9,152.9,0,0,1,2-22.2,161.2,161.2,0,0,1,6.6-27,99.69,99.69,0,0,1,11.83-24.48,55,55,0,0,1,16.65-16.47,38.38,38.38,0,0,1,20.43-5.78q26.39,0,26.39,33.49a143.43,143.43,0,0,1-2.14,22.61,164.81,164.81,0,0,1-6.78,26.8,100.66,100.66,0,0,1-11.74,24.16,54.39,54.39,0,0,1-16.38,16.24A37.4,37.4,0,0,1,1363.19,361.54Zm36-60.33h-43.68q-4.28,19.76-4.28,33.22,0,10.19,3.1,15t10,4.77q10.18,0,19.33-13.69T1399.14,301.21Zm-41.5-9.28h43.59q4.27-19.2,4.28-33,0-9.55-3.1-14.29t-9.64-4.73q-10.65,0-19.7,13.47T1357.64,291.93Z"/><text class="cls-1" transform="translate(1436.14 352.45)">(</text><text class="cls-1" transform="translate(1513.67 360.09)">0</text><text class="cls-1" transform="translate(1616.91 360.09)">,</text><text class="cls-1" transform="translate(1655.3 360.09)">4</text><text class="cls-1" transform="translate(1757.99 352.45)">)</text><text class="cls-1" transform="translate(1876.18 360.04)">−</text><text class="cls-1" transform="translate(2056.95 218.96)">1</text><text class="cls-1" transform="translate(2056.95 484.9)">2</text><rect x="2056.96" y="301.41" width="103.3" height="11.87"/><text class="cls-1" transform="translate(2190.98 360.04)">(</text><text class="cls-1" transform="translate(2268.5 360.04)">9</text><text class="cls-1" transform="translate(2371.75 360.04)">,</text><text class="cls-1" transform="translate(2410.14 360.04)"><tspan class="cls-2">8</tspan><tspan x="102.82" y="0">1</tspan></text><text class="cls-1" transform="translate(2616.07 360.04)">)</text><text class="cls-1" transform="translate(2693.6 360.04)">(</text><text class="cls-1" transform="translate(2770.38 360.04)">0</text><text class="cls-1" transform="translate(2873.63 360.04)">,</text><text class="cls-1" transform="translate(2912.02 360.04)">4</text><text class="cls-1" transform="translate(3014.71 360.04)">)</text><text class="cls-3" transform="translate(3092.09 291.63)">2</text><text class="cls-4" transform="translate(3176.55 360.04)"> </text><path d="M126.66,740.49q0,11.58,5.36,17.23t16.57,5.65q12.91,0,20.33-7t7.4-19.56a24.14,24.14,0,0,0-2-10.21,28.91,28.91,0,0,0-6.17-8.45,86.68,86.68,0,0,0-11.92-9.26,81.19,81.19,0,0,1-11.68-9.35,37.3,37.3,0,0,1-7.41-10.3,29,29,0,0,1-2.75-12.73,36.11,36.11,0,0,1,5.41-19.75,35.51,35.51,0,0,1,15.29-13.2,53,53,0,0,1,22.79-4.65A103.3,103.3,0,0,1,194,640.06a117,117,0,0,1,16.48,4l-5.32,24.41h-9.11q-.39-8.07-2.47-12.68a13.23,13.23,0,0,0-6-6.6q-3.88-2-10.35-2a28.77,28.77,0,0,0-13.86,3.23,22.42,22.42,0,0,0-9.12,8.79,24.75,24.75,0,0,0-3.13,12.39,21.26,21.26,0,0,0,3.75,12.49q3.75,5.36,14.39,12.67a97.24,97.24,0,0,1,14.19,11.54,34.3,34.3,0,0,1,7.22,10.78,34.76,34.76,0,0,1,2.33,13.2,38.29,38.29,0,0,1-5.56,20.56,36.76,36.76,0,0,1-15.67,13.86,52.25,52.25,0,0,1-23,4.89,135.45,135.45,0,0,1-18.84-1.42,144.79,144.79,0,0,1-18.09-3.61l5.69-26.11Zm165.93,10.63q-9.21,10.17-18.66,15.29a45.38,45.38,0,0,1-22,5.13q-13.77,0-21.31-8.41t-7.55-23.4a72.82,72.82,0,0,1,3.65-21.8A63.73,63.73,0,0,1,237.8,697a51.68,51.68,0,0,1,17.75-14.34,49.45,49.45,0,0,1,22-5.08q11.49,0,17.24,4.65t5.74,14.53q0,16.16-15.14,24.22t-45,8.07a63,63,0,0,0-1.14,12.35q0,10,3.9,14.48c2.59,3,6.84,4.51,12.72,4.51a32.88,32.88,0,0,0,15.81-3.8,66.17,66.17,0,0,0,15-11.68ZM242.07,721a101.69,101.69,0,0,0,23-2.42q9.58-2.33,14.72-7.41t5.13-13.72c0-3.86-.91-6.89-2.71-9.07s-4.48-3.28-8-3.28q-9.6,0-18.47,9.69T242.07,721Zm93.11-11.21a68.13,68.13,0,0,0,2.09-14q0-3.79-1.23-5.51a4.5,4.5,0,0,0-3.9-1.71,10.66,10.66,0,0,0-6.22,2.42,69.17,69.17,0,0,0-9,8.79l-5.41-5.32q8.73-9.12,14.52-13a23.11,23.11,0,0,1,13.11-3.85,12,12,0,0,1,9.45,3.94q3.47,3.95,3.46,10.31a32.65,32.65,0,0,1-2.28,11.2l1.14.38q9.31-13.11,17.71-19.42T386,677.72q8.83,0,13.58,5.08t4.75,14.1q0,6-2.75,17l-6.17,24.88q-2.56,10.35-2.57,14.62,0,3.79,1.24,5.51a4.47,4.47,0,0,0,3.89,1.71,10.6,10.6,0,0,0,6.08-2.33,66.48,66.48,0,0,0,9.11-8.88l5.42,5.32q-8.18,8.73-14.25,12.77a24.48,24.48,0,0,1-13.86,4,12.23,12.23,0,0,1-9.88-4.42,16.89,16.89,0,0,1-3.7-11.25q0-6.18,3.13-18.14l4.18-16.43q2.28-8.92,3-13.2a43.24,43.24,0,0,0,.71-6.93c0-4.37-.72-7.51-2.18-9.45s-3.83-2.89-7.12-2.89q-4,0-8.6,3.18a49.06,49.06,0,0,0-9.78,9.59A75.21,75.21,0,0,0,351.89,714a62,62,0,0,0-5.12,14.86l-9,41.12H321.32Zm124.45,61.73q-14.16,0-21.08-8.64T431.61,737a159.34,159.34,0,0,1,2.09-23.17,168.82,168.82,0,0,1,6.89-28.15,103.93,103.93,0,0,1,12.34-25.55,57.58,57.58,0,0,1,17.38-17.19,40,40,0,0,1,21.32-6q27.54,0,27.54,35a151.21,151.21,0,0,1-2.23,23.6,173.19,173.19,0,0,1-7.08,28,105.31,105.31,0,0,1-12.25,25.21,56.78,56.78,0,0,1-17.09,16.95A39,39,0,0,1,459.63,771.54Zm37.51-63H451.55q-4.46,20.61-4.46,34.66,0,10.63,3.23,15.62t10.45,5q10.64,0,20.17-14.3T497.14,708.58Zm-43.31-9.69h45.49q4.46-20,4.46-34.47,0-10-3.23-14.91t-10.06-4.93q-11.12,0-20.56,14T453.83,698.89Z"/><text class="cls-5" transform="translate(590.4 770.02)">=</text><text class="cls-5" transform="translate(789.16 770.02)">3</text><text class="cls-5" transform="translate(896.9 770.02)">,</text><text class="cls-5" transform="translate(936.96 770.02)">924</text><path d="M1304.89,727.1c-.94-5-1.93-9.82-2.94-14.44s-2.06-8.92-3.13-12.91a41.82,41.82,0,0,0-2.66-7.84,6.8,6.8,0,0,0-2.23-2.56,5.71,5.71,0,0,0-3-.71,7.27,7.27,0,0,0-3.61.9,13.83,13.83,0,0,0-3.52,3.13,79.4,79.4,0,0,0-5,7l-6.17-4.08q6-9,11.49-13.48a20,20,0,0,1,13-4.47,17.87,17.87,0,0,1,5.17.67,11.28,11.28,0,0,1,3.94,2,13.4,13.4,0,0,1,3,3.56,29.46,29.46,0,0,1,2.57,5.93,81.24,81.24,0,0,1,2.32,9.31q1.1,5.55,1.95,11.54h1q9.12-12.82,13.82-18.76a73.5,73.5,0,0,1,7.93-8.83A21.22,21.22,0,0,1,1345,679a21.87,21.87,0,0,1,7.92-1.19,19.94,19.94,0,0,1,7.32,1.14l-3.8,17.19h-6.65q-.57-4-3.32-4a6.37,6.37,0,0,0-1.81.29,8.82,8.82,0,0,0-2.32,1.23,31,31,0,0,0-4,3.7q-2.65,2.76-6,6.75t-6.84,8.35l-6.46,8.07q1.71,9.12,3.23,15.77t2.71,11.06q1.18,4.41,2.09,7a13.27,13.27,0,0,0,1.94,3.85,6.52,6.52,0,0,0,2.14,1.8,5.76,5.76,0,0,0,2.52.52,7.75,7.75,0,0,0,5-2q2.43-2,7-9l6.18,4.08q-6.66,9.87-12,13.91a20.62,20.62,0,0,1-12.77,4,15,15,0,0,1-6.93-1.47,13.2,13.2,0,0,1-4.94-4.7q-2.09-3.24-3.7-10.07a150.16,150.16,0,0,1-3.61-18.61h-.95q-10.07,14.14-15,20.32a84.55,84.55,0,0,1-8.07,9.11,20.52,20.52,0,0,1-6.17,4.14,22,22,0,0,1-7.93,1.18,19.88,19.88,0,0,1-7.31-1.14l3.8-17.18h6.64q.57,4,3.33,4a6.37,6.37,0,0,0,2.8-.71,18.71,18.71,0,0,0,4.22-3.42q2.76-2.7,7.6-8.5T1304.89,727.1Z"/><text class="cls-5" transform="translate(1368.12 770.02)">10</text><text class="cls-6" transform="translate(1583.95 698.64)">−</text><text class="cls-6" transform="translate(1685.9 698.64)">3</text><text class="cls-5" transform="translate(1774.79 770.02)"> <tspan class="cls-7" x="42.83" y="0"> </tspan><tspan class="cls-8" x="85.07" y="0" xml:space="preserve">   </tspan><tspan class="cls-7" x="213.55" y="0"> </tspan><tspan x="255.8" y="0" xml:space="preserve">   </tspan><tspan class="cls-9" x="384.28" y="0"> </tspan><tspan x="426.52" y="0" xml:space="preserve">  </tspan></text><path d="M2398.77,677q0,14.06-4.61,33.09t-13,33.05q-8.4,14-20.27,21.22a50.55,50.55,0,0,1-26.78,7.22q-17.38,0-26.11-10t-8.74-29.16q0-14,4.51-33.23t12.87-33.33q8.35-14.16,20.22-21.56a50.24,50.24,0,0,1,27.16-7.41q17.47,0,26.12,10T2398.77,677Zm-31.91,32.76h-38.08a166.46,166.46,0,0,0-3.56,19.28,136.81,136.81,0,0,0-1.09,16.14q0,8.36,2.52,12.44t7.93,4.08q9.48,0,17.89-13.39T2366.86,709.72Zm-35.51-12h38.08q2.09-9.59,3.27-17.66a103.72,103.72,0,0,0,1.19-15q0-9.89-2.33-14.1t-7.74-4.23q-9.68,0-18.09,12.91T2331.35,697.75Z"/><text class="cls-5" transform="translate(2462.46 770.02)">=</text><path d="M2718.2,771.54q-23.37,0-34.52-16.19t-11.16-49q0-32.86,12.44-50.19t34.95-17.33q23.36,0,34.85,15.9t11.49,48.67q0,33.62-12.21,50.85T2718.2,771.54Zm-16.81-67.9q0,20.9,1.85,33.24t5.84,18.18a12.28,12.28,0,0,0,10.64,5.84,11.33,11.33,0,0,0,6.31-1.75,15.53,15.53,0,0,0,4.84-5.51,39,39,0,0,0,3.66-10,95.62,95.62,0,0,0,2.18-15.48q.67-9.26.67-20.66A267.9,267.9,0,0,0,2736.1,679q-1.29-11.58-3.66-17.85t-5.6-8.93a11.45,11.45,0,0,0-7.5-2.66,12.11,12.11,0,0,0-10.64,5.94q-3.9,5.94-5.6,17.66A219.76,219.76,0,0,0,2701.39,703.64Z"/><text class="cls-5" transform="translate(2777.71 770.02)">,</text><path d="M2922,746.75a34.91,34.91,0,0,0,9.21-.9,9.24,9.24,0,0,0,4.79-3.13,18.26,18.26,0,0,0,2.9-6.7h10.92l-2.18,34h-87v-6.27q7.32-16.8,29.91-43.3,10.26-12.06,15.62-19.85a71,71,0,0,0,8-14.72,39.76,39.76,0,0,0,2.66-14.34q0-10.44-4.66-16.38a15.3,15.3,0,0,0-12.72-5.93q-15.48,0-19.85,22.31h-17.09V649.13q15.48-6.25,25-8.26a97.12,97.12,0,0,1,20-2q14,0,22.79,3.75t12.77,10.16a28,28,0,0,1,4,15,34.6,34.6,0,0,1-2.81,14q-2.79,6.46-9.68,14.72t-23.22,23.65q-5,4.75-12,12.49t-11.07,13.24v1Zm116.49,0a34.81,34.81,0,0,0,9.21-.9,9.23,9.23,0,0,0,4.8-3.13,18.1,18.1,0,0,0,2.89-6.7h10.93l-2.19,34h-87v-6.27q7.3-16.8,29.91-43.3,10.26-12.06,15.62-19.85a71.42,71.42,0,0,0,8-14.72,39.75,39.75,0,0,0,2.65-14.34q0-10.44-4.65-16.38a15.3,15.3,0,0,0-12.72-5.93q-15.48,0-19.85,22.31h-17.09V649.13q15.47-6.25,25-8.26a97.29,97.29,0,0,1,20-2q14,0,22.79,3.75t12.77,10.16a28,28,0,0,1,3.94,15,34.59,34.59,0,0,1-2.8,14q-2.81,6.46-9.69,14.72t-23.21,23.65q-5,4.75-12,12.49t-11.06,13.24v1Z"/><text class="cls-5" transform="translate(3082.85 770.02)">°</text><text class="cls-5" transform="translate(3155.78 770.02)"> </text><text class="cls-5" transform="translate(3198.76 770.02)"> <tspan class="cls-7" x="42.83" y="0"> </tspan><tspan class="cls-8" x="85.07" y="0" xml:space="preserve">   </tspan></text></svg>