<svg id="Capa_1" data-name="Capa 1" xmlns="http://www.w3.org/2000/svg" viewBox="0 0 1299 516.5"><defs><style>.cls-1,.cls-2{font-size:127.75px;}.cls-1{font-family:CambriaMath, Cambria Math;}.cls-2{font-family:ArialMT, Arial;}</style></defs><title>solucion1-1</title><path d="M82.94,270.29A45,45,0,0,1,72.49,280,19.62,19.62,0,0,1,62,283.07q-13,0-13-13.16A39.08,39.08,0,0,1,50,261.12l7.36-32.38H46.88l.94-4.3a25.27,25.27,0,0,0,5.58-.56,10.14,10.14,0,0,0,3.18-1.38A8.81,8.81,0,0,0,58.92,220,23.54,23.54,0,0,0,61,215.86c.66-1.68,1.66-4.63,3-8.83h8.61l-3.43,15.41h19l-1.37,6.3h-19l-5.55,24.2Q60.6,260,60.17,263.08a37.48,37.48,0,0,0-.44,5q0,7.74,6.43,7.74A10.55,10.55,0,0,0,72,273.69a39.43,39.43,0,0,0,7.33-7.15Z"/><text class="cls-1" transform="translate(128.63 282.07)">=</text><path d="M352.68,169.46q-6,8.73-11.35,12.79A18.57,18.57,0,0,1,330,186.3a12.38,12.38,0,0,1-10.63-5.17q-3.78-5.19-3.78-14.54A52.19,52.19,0,0,1,319.77,146a38.21,38.21,0,0,1,11.57-15.6,26.17,26.17,0,0,1,16.41-5.71,29.71,29.71,0,0,1,7,.78,25.32,25.32,0,0,1,6.58,2.72l3.24-14.41c.33-1.38.63-2.89.88-4.56a29.75,29.75,0,0,0,.37-4.36,4.86,4.86,0,0,0-.69-2.84,3.85,3.85,0,0,0-2-1.41,20.1,20.1,0,0,0-4.59-.62l.75-3.24L375,96.17h3.68l-15.53,69.05a45.85,45.85,0,0,0-1.37,9.23,6.31,6.31,0,0,0,.81,3.62,2.93,2.93,0,0,0,2.55,1.12,7,7,0,0,0,4-1.53,43,43,0,0,0,6-5.83l3.56,3.49a55.6,55.6,0,0,1-9.67,8.55,15.57,15.57,0,0,1-8.48,2.5,7.94,7.94,0,0,1-6.18-2.56,9.76,9.76,0,0,1-2.31-6.8,21,21,0,0,1,1.44-7.3Zm4.18-22.08a41.94,41.94,0,0,0,.93-8.48c0-3.25-.68-5.61-2.06-7.09s-3.66-2.21-6.86-2.21a15.63,15.63,0,0,0-11.41,5.15,35.37,35.37,0,0,0-8,13.88,55,55,0,0,0-2.9,17.4c0,4.33.6,7.56,1.78,9.7a6.27,6.27,0,0,0,6,3.21,10.08,10.08,0,0,0,3.93-.84,16.1,16.1,0,0,0,4.15-2.71,33.17,33.17,0,0,0,4.24-4.56q2.08-2.67,3.83-5.39a38.09,38.09,0,0,0,3.25-6.43,51.48,51.48,0,0,0,2.56-8.95Z"/><path d="M281.4,368.73a5,5,0,0,1-3-.9,6.37,6.37,0,0,1-2-2.56,13.83,13.83,0,0,1-1.06-3.9,35.61,35.61,0,0,1-.32-4.93,71.73,71.73,0,0,1,.44-7.61c.29-2.7.66-5.43,1.12-8.17l2.62-17.28c.17-1,.3-1.94.41-2.84s.15-1.55.15-2a7,7,0,0,0-.62-3.18,2.17,2.17,0,0,0-2.12-1.25,5.57,5.57,0,0,0-2.56.72,16.61,16.61,0,0,0-2.77,1.84,35.92,35.92,0,0,0-2.72,2.4l-2.43,2.4-3-3.49c1.28-1.33,2.66-2.65,4.11-4a38.4,38.4,0,0,1,4.62-3.56,24.93,24.93,0,0,1,5.11-2.56,16.19,16.19,0,0,1,5.49-1,8.51,8.51,0,0,1,3.87.77,6.2,6.2,0,0,1,2.34,2.06,7.88,7.88,0,0,1,1.15,2.81,15,15,0,0,1,.32,3c0,.58,0,1.14-.07,1.68s-.1,1-.18,1.5l-3.5,22.58q-.56,3.55-.93,6.95a55.9,55.9,0,0,0-.38,6,22.94,22.94,0,0,0,.32,4.24c.2,1.09.6,1.63,1.18,1.63a11.67,11.67,0,0,0,5.18-1.66,37.7,37.7,0,0,0,6.55-4.55,63.38,63.38,0,0,0,6.86-6.86,59.18,59.18,0,0,0,6.17-8.58,50.08,50.08,0,0,0,4.46-9.73A32,32,0,0,0,318,318.58a5.4,5.4,0,0,0-1-3.46,3.59,3.59,0,0,0-3-1.22,7,7,0,0,0-4.84,2,34.87,34.87,0,0,0-4.58,5.33L301,318.08a29.89,29.89,0,0,1,3.53-4.31,29.09,29.09,0,0,1,4.3-3.61,22.76,22.76,0,0,1,4.71-2.5,13.21,13.21,0,0,1,4.74-.93q4.5,0,6.49,2.33a9.34,9.34,0,0,1,2,6.27,26.67,26.67,0,0,1-1.06,6.87,57.23,57.23,0,0,1-3,8.17,89.38,89.38,0,0,1-4.61,8.82,93.48,93.48,0,0,1-5.93,8.8,85,85,0,0,1-6.93,8.05,55.74,55.74,0,0,1-7.64,6.58,39.68,39.68,0,0,1-8,4.46A21.64,21.64,0,0,1,281.4,368.73Z"/><path d="M342.73,394.37a19,19,0,0,1-6.69-1.12,13.79,13.79,0,0,1-5-3.23,14.18,14.18,0,0,1-3.16-5.09,19.29,19.29,0,0,1-1.1-6.76,35,35,0,0,1,2-11.91,30.55,30.55,0,0,1,5.52-9.64,26.06,26.06,0,0,1,8.32-6.48A23.14,23.14,0,0,1,353,347.76a17.77,17.77,0,0,1,7.07,1.3,14.32,14.32,0,0,1,5,3.52,14.5,14.5,0,0,1,3,5.23,20.07,20.07,0,0,1,1,6.41,35.77,35.77,0,0,1-2,12.36,28.62,28.62,0,0,1-5.58,9.51,24.65,24.65,0,0,1-8.39,6.12A25.35,25.35,0,0,1,342.73,394.37Zm-7.14-14.31q0,5.16,2.13,7.6t6.49,2.45a9.33,9.33,0,0,0,4.57-1.19,14.84,14.84,0,0,0,4-3.21,23.9,23.9,0,0,0,3.21-4.73,37.24,37.24,0,0,0,2.4-5.81,44.69,44.69,0,0,0,1.5-6.39,42.17,42.17,0,0,0,.51-6.44c0-3.32-.65-5.84-2-7.56s-3.38-2.58-6.19-2.58a10.34,10.34,0,0,0-4.71,1.12,14.55,14.55,0,0,0-4,3.1,22.61,22.61,0,0,0-3.29,4.66,34.18,34.18,0,0,0-2.47,5.79,42.89,42.89,0,0,0-1.55,6.46A42.41,42.41,0,0,0,335.59,380.06Z"/><path d="M398.76,371.94c-.53-2.51-1-4.7-1.41-6.55s-.78-3.45-1.12-4.78a28.14,28.14,0,0,0-1-3.25,10.24,10.24,0,0,0-1-2,3.23,3.23,0,0,0-1.12-1.05,3.45,3.45,0,0,0-1.41-.36,3.89,3.89,0,0,0-1.42.25,4.23,4.23,0,0,0-1.34.87,12.52,12.52,0,0,0-1.53,1.75c-.55.75-1.19,1.72-1.9,2.92L382,357.49c1.23-1.82,2.33-3.36,3.32-4.62a17.83,17.83,0,0,1,2.92-3,9.29,9.29,0,0,1,3-1.62,12.64,12.64,0,0,1,3.65-.49,7,7,0,0,1,4,1.08,8.13,8.13,0,0,1,2.6,3.14,21.63,21.63,0,0,1,1.7,5.09q.68,3,1.44,6.93h.58c1.8-2.36,3.35-4.41,4.67-6.15s2.49-3.2,3.52-4.39a34,34,0,0,1,2.78-2.92,11.49,11.49,0,0,1,2.4-1.72,8.35,8.35,0,0,1,2.4-.83,15.39,15.39,0,0,1,2.76-.23,10,10,0,0,1,4.08.81l-2.24,8.84H422c-.08-1.29-.56-1.93-1.43-1.93a3.69,3.69,0,0,0-1.08.18,5.53,5.53,0,0,0-1.39.71,15.27,15.27,0,0,0-1.86,1.51c-.7.64-1.53,1.48-2.49,2.51s-2.05,2.29-3.27,3.79-2.64,3.26-4.22,5.29q1.21,6.19,2.09,9.92a39.29,39.29,0,0,0,1.68,5.69,6.19,6.19,0,0,0,1.61,2.58,3,3,0,0,0,1.84.61,5.36,5.36,0,0,0,1.42-.18,3.46,3.46,0,0,0,1.34-.79,11.07,11.07,0,0,0,1.55-1.75c.57-.76,1.24-1.77,2-3l3.36,2.19c-1.32,2-2.48,3.59-3.5,4.85a17.18,17.18,0,0,1-3,3,8.34,8.34,0,0,1-3,1.46,14.71,14.71,0,0,1-3.5.38,9.34,9.34,0,0,1-3.05-.47,5.16,5.16,0,0,1-2.33-1.73,8.33,8.33,0,0,1-1.26-2,27.41,27.41,0,0,1-1.07-2.76c-.33-1-.63-2-.9-3.07s-.49-2.06-.67-3-.32-1.75-.43-2.49-.17-1.27-.2-1.63h-.49l-4.69,6.25c-1.33,1.78-2.54,3.31-3.61,4.58a39.9,39.9,0,0,1-2.92,3.14,13.69,13.69,0,0,1-2.56,1.95,8.54,8.54,0,0,1-2.57,1,14.86,14.86,0,0,1-2.94.27,9.06,9.06,0,0,1-4-.81l2.07-8.75h3.81c.09,1.32.58,2,1.48,2a5.35,5.35,0,0,0,1-.18,4,4,0,0,0,1.09-.56,14.91,14.91,0,0,0,1.6-1.35c.64-.61,1.46-1.46,2.44-2.56s2.2-2.46,3.64-4.1S396.76,374.36,398.76,371.94Z"/><rect x="259.2" y="241.88" width="177.99" height="8.13"/><text class="cls-1" transform="translate(472.6 282.07)">=</text><text class="cls-1" transform="translate(603.67 185.37)">200</text><text class="cls-1" transform="translate(603.67 367.67)">500</text><rect x="603.7" y="241.88" width="211.96" height="8.13"/><text class="cls-1" transform="translate(851.07 282.07)">=</text><text class="cls-1" transform="translate(981.63 282.07)">0</text><text class="cls-1" transform="translate(1052.41 282.07)">,</text><text class="cls-1" transform="translate(1078.73 282.07)">45</text><text class="cls-2" transform="translate(1219.5 282.07)"> </text></svg>