<svg id="Capa_1" data-name="Capa 1" xmlns="http://www.w3.org/2000/svg" viewBox="0 0 3585.4 921.84"><defs><style>.cls-1,.cls-2,.cls-4{font-size:201.24px;}.cls-1{font-family:ArialMT, Arial;}.cls-2,.cls-3{font-family:CambriaMath, Cambria Math;}.cls-3{font-size:144.71px;}.cls-4{font-family:Arial-BoldMT, Arial;font-weight:700;}</style></defs><title>solucion1-2</title><text class="cls-1" transform="translate(54.27 206.81)"> </text><text class="cls-2" transform="translate(54.31 521.1)">ℎ</text><text class="cls-2" transform="translate(225.36 521.1)">=</text><text class="cls-3" transform="translate(431.16 403.54)">1</text><text class="cls-3" transform="translate(431.16 622.04)">2</text><rect x="431.16" y="457.8" width="83.66" height="12.81"/><path d="M572.06,529.56a31.62,31.62,0,0,0-3.15,4.47,17.44,17.44,0,0,0-1.81,4.27,19.22,19.22,0,0,0-.54,4.92q0,7.37,5.3,10.76t16,3.39q12.09,0,19.4-5.46t12.53-17.54q5.21-12.09,10.12-36.55l-1.37-.3Q619,510.6,610.87,516.59a29.16,29.16,0,0,1-17.59,6q-10.71,0-16.65-8.06t-6-23a81.65,81.65,0,0,1,6.59-32.28q6.57-15.48,18.27-24.61a41.24,41.24,0,0,1,26-9.14A45.05,45.05,0,0,1,633.27,427a41.05,41.05,0,0,1,11.11,5l9-6.48,6.29,1.57-10.12,45.79q-1.1,4.81-4.92,24.27-4,20.64-6.53,29.18a82.47,82.47,0,0,1-6.24,15.58,43.32,43.32,0,0,1-9.63,12.23,41.43,41.43,0,0,1-14.3,8.06,62.09,62.09,0,0,1-19.9,2.85q-37.14,0-37.14-21.62a16.43,16.43,0,0,1,3.34-10q3.35-4.51,10.71-9.53ZM600.26,511a17.42,17.42,0,0,0,10-3.44q5-3.45,10.61-10.91a79.26,79.26,0,0,0,8.8-14.25,82.54,82.54,0,0,0,5.35-16.9,83.71,83.71,0,0,0,2.22-17.59q0-7.66-3.25-11.15t-10.81-3.49q-10,0-18,8.11t-12.53,21.86a86.72,86.72,0,0,0-4.57,27.42q0,10.22,2.95,15.28T600.26,511Z"/><path d="M742.86,502.54q-8.55,10.31-16.46,15.23a31,31,0,0,1-16.56,4.91q-20.54,0-20.54-20.73A62.18,62.18,0,0,1,691,488.09l11.6-51H686.06l1.47-6.78a39.66,39.66,0,0,0,8.8-.88,15.84,15.84,0,0,0,5-2.16,13.87,13.87,0,0,0,3.68-3.93,36.45,36.45,0,0,0,3.25-6.54q1.56-4,4.71-13.9h13.56l-5.4,24.27H751l-2.16,9.92H719l-8.75,38.13q-2.55,11.1-3.24,16a58.29,58.29,0,0,0-.69,7.81q0,12.18,10.12,12.18a16.55,16.55,0,0,0,9.19-3.29q4.86-3.28,11.55-11.25Z"/><text class="cls-3" transform="translate(765.05 447.25)">2</text><text class="cls-2" transform="translate(912.78 521.1)">=</text><text class="cls-2" transform="translate(1118.45 521.1)">0</text><text class="cls-2" transform="translate(1229.93 521.1)">,</text><text class="cls-2" transform="translate(1271.39 521.1)">5</text><text class="cls-2" transform="translate(1427.35 521.1)">∗</text><text class="cls-2" transform="translate(1569.02 521.1)">9</text><text class="cls-2" transform="translate(1680.51 521.1)">,</text><text class="cls-2" transform="translate(1721.96 521.1)">81</text><text class="cls-2" transform="translate(1988.81 521.1)">∗</text><text class="cls-2" transform="translate(2130.48 521.1)">0</text><text class="cls-2" transform="translate(2241.97 521.1)">,</text><text class="cls-2" transform="translate(2283.42 521.1)">4</text><text class="cls-3" transform="translate(2395.32 447.25)">2</text><text class="cls-2" transform="translate(2542.29 521.1)">=</text><path d="M2806.91,522.68q-24.16,0-35.72-16.75t-11.54-50.66q0-34,12.87-51.93t36.16-17.93q24.18,0,36.06,16.46t11.89,50.36q0,34.78-12.62,52.61T2806.91,522.68Zm-17.39-70.26q0,21.61,1.92,34.39t6,18.82a12.72,12.72,0,0,0,11,6,11.77,11.77,0,0,0,6.54-1.81,16.07,16.07,0,0,0,5-5.7,40.91,40.91,0,0,0,3.78-10.32,98.74,98.74,0,0,0,2.26-16q.69-9.57.69-21.37a274.5,274.5,0,0,0-1.33-29.58q-1.32-12-3.78-18.47t-5.8-9.24a11.84,11.84,0,0,0-7.76-2.75,12.52,12.52,0,0,0-11,6.14q-4,6.15-5.8,18.28A227.24,227.24,0,0,0,2789.52,452.42Z"/><text class="cls-2" transform="translate(2868.5 521.1)">,</text><path d="M3052.82,393.47,2998.28,521.4h-20.14v-6.78l49.33-99.93v-1.47h-43.73a27.31,27.31,0,0,0-7.66.88,9.4,9.4,0,0,0-4.87,3.39q-1.92,2.5-3.68,10.27h-11.4l2.55-40.78h94.14Z"/><path d="M3150.86,450.26l.2,1.28q11.39,4.43,17.24,12.77t5.85,19.95a34.13,34.13,0,0,1-6.19,20.29q-6.2,8.7-17.84,13.46t-27.26,4.77q-14.85,0-25.9-4.38t-17.14-12.77a35.28,35.28,0,0,1-.4-39.06q5.7-8.15,17.79-13.46l-.2-1.28q-21.72-9.43-21.71-31.34a28.59,28.59,0,0,1,6.24-18q6.24-8,17.73-12.53a69.68,69.68,0,0,1,25.65-4.52q23.88,0,36.06,8.74t12.18,24.77a31.67,31.67,0,0,1-5.55,18.57Q3162.06,445.44,3150.86,450.26Zm-47.26,33.21q0,14.05,5.15,21.13t15.38,7.07q9.93,0,15-7t5.11-19.56q0-13.15-5.51-20.68a17.45,17.45,0,0,0-14.83-7.52q-10.12,0-15.23,6.83T3103.6,483.47Zm1.17-63.77q0,12.87,5.07,19.7t14.78,6.83q9.54,0,14.3-6.43t4.77-18.33q0-12.18-5-18.62t-14.29-6.44q-9.73,0-14.69,5.9T3104.77,419.7Z"/><text class="cls-2" transform="translate(3184.25 521.1)"> </text><path d="M3387.3,490.15a55.22,55.22,0,0,0-1.38,6.39,39.29,39.29,0,0,0-.29,5.11c0,2.56.42,4.32,1.27,5.31a4.57,4.57,0,0,0,3.64,1.47q2.85,0,6.39-2.7a61.77,61.77,0,0,0,8.35-8.21l7.07,7.08q-9.63,9.82-17.24,13.95a34.62,34.62,0,0,1-16.76,4.13q-10.11,0-15-5t-4.91-15.33a55.52,55.52,0,0,1,.69-7.91,93.88,93.88,0,0,1,2-9.68l4.52-17.1q1.58-5.79,2.8-12.23a57.15,57.15,0,0,0,1.23-10q0-9-7.08-9-4.22,0-10.31,5.4a53.26,53.26,0,0,0-10.08,11.84q-4,6.44-6.14,17.05l-10.81,50.41H3296.9l14.34-62.5q1.08-4.51,1.48-7.42a38.44,38.44,0,0,0,.39-5.06c0-3.4-.59-5.88-1.77-7.42s-3.05-2.3-5.6-2.3q-4.51,0-10.66,5.6a54.23,54.23,0,0,0-9.93,11.79q-3.78,6.18-6,16.9l-11,50.41H3239.9l15.82-68.29a46.78,46.78,0,0,0,1.48-9.73,9.66,9.66,0,0,0-1.08-5,4,4,0,0,0-3.74-1.77q-3,0-6.58,2.75a62.33,62.33,0,0,0-8.25,8.15l-7.08-7.07q9.83-10,17.44-14.05a33.84,33.84,0,0,1,16.07-4c5.43,0,9.78,1.52,13,4.57a15.75,15.75,0,0,1,4.86,12,18.26,18.26,0,0,1-.59,4.71l1.18.59q8.94-11.3,17.34-16.6a35.77,35.77,0,0,1,19.51-5.31q9.82,0,15.48,5.4t5.94,14.94q8.16-10.41,16.46-15.38a35.94,35.94,0,0,1,18.82-5q9.91,0,15.57,5.6t5.65,15.62a63.15,63.15,0,0,1-.49,7.18,61.79,61.79,0,0,1-1.47,8.05Z"/><text class="cls-4" transform="translate(3414.26 521.1)"> </text><text class="cls-4" transform="translate(3470.01 521.1)"> </text><text class="cls-4" transform="translate(54.31 846.71)"> </text></svg>