<svg id="Capa_1" data-name="Capa 1" xmlns="http://www.w3.org/2000/svg" viewBox="0 0 810.15 550.37"><defs><style>.cls-1,.cls-3{font-size:163.75px;}.cls-1,.cls-2{font-family:CambriaMath, Cambria Math;}.cls-2{font-size:281.88px;}.cls-3{font-family:ArialMT, Arial;}</style></defs><title>solucion</title><path d="M102.61,319.23q-7,8.38-13.39,12.39a25.14,25.14,0,0,1-13.48,4Q59,335.62,59,318.75a50.85,50.85,0,0,1,1.36-11.28L69.83,266H56.39l1.2-5.51a33.13,33.13,0,0,0,7.16-.72A13.35,13.35,0,0,0,68.83,258a11.34,11.34,0,0,0,3-3.2,30.94,30.94,0,0,0,2.64-5.32q1.27-3.24,3.83-11.31h11l-4.4,19.75h24.31L107.49,266H83.18l-7.12,31q-2.07,9-2.63,13a46.6,46.6,0,0,0-.56,6.36q0,9.91,8.23,9.91a13.47,13.47,0,0,0,7.48-2.68A49.68,49.68,0,0,0,98,314.43Z"/><text class="cls-1" transform="translate(161.17 334.34)">=</text><text class="cls-2" transform="translate(284.85 360.77)">{</text><path d="M462.41,213.29a34.65,34.65,0,0,0,.52,7,8.26,8.26,0,0,0,1.84,3.84,8.6,8.6,0,0,0,3.79,2.32,30.75,30.75,0,0,0,6.24,1.28c2.5.29,5.81.49,9.91.6v7.27h-69v-7.27a110.91,110.91,0,0,0,12.67-1.08,15,15,0,0,0,5.8-2,7.78,7.78,0,0,0,2.92-3.84,25.41,25.41,0,0,0,.92-8.07V155.48c0-2.19-.41-3.76-1.24-4.72a4.26,4.26,0,0,0-3.4-1.44,13.87,13.87,0,0,0-5.64,1.84,127.19,127.19,0,0,0-11.95,7.51l-4.88-8.47,41.74-25h10.24q-.48,7.68-.48,21.27Z"/><text class="cls-1" transform="translate(495.89 235.6)">,</text><path d="M604.62,236.87q-19.68,0-29.07-13.63T566.16,182q0-27.66,10.47-42.26t29.43-14.59q19.66,0,29.34,13.4t9.68,41q0,28.31-10.28,42.82T604.62,236.87ZM590.46,179.7q0,17.6,1.56,28T596.94,223a10.35,10.35,0,0,0,9,4.92,9.51,9.51,0,0,0,5.31-1.48,13.1,13.1,0,0,0,4.08-4.64,32.8,32.8,0,0,0,3.08-8.39,81.51,81.51,0,0,0,1.84-13q.56-7.78.56-17.39a224.5,224.5,0,0,0-1.08-24.07,64.62,64.62,0,0,0-3.08-15q-2-5.28-4.72-7.51a9.6,9.6,0,0,0-6.31-2.24,10.2,10.2,0,0,0-9,5q-3.29,5-4.72,14.88A184.87,184.87,0,0,0,590.46,179.7Z"/><path d="M719.34,213.29a34.65,34.65,0,0,0,.52,7,8.26,8.26,0,0,0,1.84,3.84,8.66,8.66,0,0,0,3.79,2.32,30.89,30.89,0,0,0,6.24,1.28c2.51.29,5.81.49,9.92.6v7.27h-69v-7.27a111.37,111.37,0,0,0,12.68-1.08,15,15,0,0,0,5.79-2,7.78,7.78,0,0,0,2.92-3.84,25.41,25.41,0,0,0,.92-8.07V155.48c0-2.19-.41-3.76-1.24-4.72a4.26,4.26,0,0,0-3.4-1.44,13.79,13.79,0,0,0-5.63,1.84,127,127,0,0,0-12,7.51l-4.88-8.47,41.74-25h10.24q-.48,7.68-.48,21.27Z"/><text class="cls-1" transform="translate(422.36 427.51)">7</text><text class="cls-1" transform="translate(513.08 427.51)">,</text><text class="cls-1" transform="translate(546.81 427.51)">90</text><text class="cls-3" transform="translate(47.04 631.72)"> </text></svg>