<svg id="Capa_1" data-name="Capa 1" xmlns="http://www.w3.org/2000/svg" viewBox="0 0 3611.01 506.09"><defs><style>.cls-1{font-size:82.62px;font-family:Consolas;}.cls-1,.cls-19{fill:#c42826;}.cls-12,.cls-18,.cls-2,.cls-4,.cls-5,.cls-7{font-size:128.33px;}.cls-2,.cls-3,.cls-4,.cls-5{font-family:CambriaMath, Cambria Math;}.cls-3{font-size:91.98px;}.cls-4,.cls-6{letter-spacing:0.18em;}.cls-5{letter-spacing:0.18em;}.cls-12,.cls-7{font-family:Arial-ItalicMT, Arial;font-style:italic;}.cls-12,.cls-8{letter-spacing:0em;}.cls-9{letter-spacing:0em;}.cls-10{letter-spacing:0em;}.cls-11{letter-spacing:0em;}.cls-13{letter-spacing:0em;}.cls-14{letter-spacing:0em;}.cls-15{letter-spacing:0em;}.cls-16{letter-spacing:0em;}.cls-17{letter-spacing:0em;}.cls-18,.cls-19{font-family:ArialMT, Arial;}.cls-19{font-size:165.23px;}</style></defs><title>textotarget1</title><text class="cls-1" transform="translate(52.94 66.67)"> </text><path d="M75.25,271.49a4.94,4.94,0,0,1-3-.91,6.37,6.37,0,0,1-2-2.57,14.24,14.24,0,0,1-1.07-3.91,37.75,37.75,0,0,1-.31-5,72.45,72.45,0,0,1,.44-7.65q.44-4.06,1.13-8.21l2.63-17.35c.17-1,.3-2,.41-2.86a19.67,19.67,0,0,0,.15-2,7.3,7.3,0,0,0-.62-3.2,2.2,2.2,0,0,0-2.13-1.25,5.58,5.58,0,0,0-2.57.72,17.47,17.47,0,0,0-2.79,1.85c-.94.75-1.85,1.56-2.73,2.41s-1.69,1.66-2.44,2.42l-3-3.51c1.3-1.34,2.67-2.67,4.14-4A37.59,37.59,0,0,1,66.1,213a24.22,24.22,0,0,1,5.14-2.57,16.13,16.13,0,0,1,5.52-1,8.42,8.42,0,0,1,3.88.78A6.09,6.09,0,0,1,83,212.31a7.8,7.8,0,0,1,1.16,2.82,15,15,0,0,1,.31,3c0,.58,0,1.14-.06,1.69a12.77,12.77,0,0,1-.19,1.5L80.7,244q-.56,3.59-.94,7a56,56,0,0,0-.37,6,23.38,23.38,0,0,0,.31,4.26c.21,1.09.61,1.63,1.19,1.63a11.74,11.74,0,0,0,5.2-1.66,37.22,37.22,0,0,0,6.58-4.58,63.08,63.08,0,0,0,6.9-6.89,60.41,60.41,0,0,0,6.2-8.61,50.58,50.58,0,0,0,4.48-9.78A32.26,32.26,0,0,0,112,221.11a5.48,5.48,0,0,0-1-3.48,3.66,3.66,0,0,0-3-1.22,7,7,0,0,0-4.85,2,34.25,34.25,0,0,0-4.61,5.36l-3.57-3.2a28.87,28.87,0,0,1,3.54-4.32,30,30,0,0,1,4.32-3.64,23.44,23.44,0,0,1,4.73-2.51,13.37,13.37,0,0,1,4.77-.93c3,0,5.18.78,6.51,2.34a9.38,9.38,0,0,1,2,6.3,26.37,26.37,0,0,1-1.07,6.89,56.76,56.76,0,0,1-3,8.21,90.46,90.46,0,0,1-4.64,8.87,95.58,95.58,0,0,1-5.95,8.84,88.75,88.75,0,0,1-7,8.08,55.6,55.6,0,0,1-7.68,6.61,39.79,39.79,0,0,1-8.08,4.48A21.62,21.62,0,0,1,75.25,271.49Z"/><text class="cls-2" transform="translate(162.54 270.42)">=</text><path d="M335.08,198.49q.75-3.31,1.06-5.3a23.17,23.17,0,0,0,.31-3.66,5,5,0,0,0-.68-2.85,3.84,3.84,0,0,0-2-1.41,20.15,20.15,0,0,0-4.6-.63l.75-3.26,15.79-.56h3.7L334,250.19a47.13,47.13,0,0,0-1.38,9.27,6.24,6.24,0,0,0,.82,3.63,2.93,2.93,0,0,0,2.57,1.13,7,7,0,0,0,4-1.53,44.68,44.68,0,0,0,6-5.86l3.57,3.51q-6.08,6.39-9.93,8.74a16.28,16.28,0,0,1-8.61,2.35,8,8,0,0,1-6.52-3,11.58,11.58,0,0,1-2.44-7.61,61.36,61.36,0,0,1,1.75-12.16Zm34.36,29.7a46.34,46.34,0,0,0,1.44-9.4c0-1.88-.45-3.15-1.34-3.82s-2.67-1-5.3-1.13l.69-3.32,15.29-.56h3.7l-9,40.23a46.15,46.15,0,0,0-1.37,9.27,6.33,6.33,0,0,0,.81,3.63,2.93,2.93,0,0,0,2.57,1.13,7,7,0,0,0,4-1.53,44.68,44.68,0,0,0,6-5.86l3.58,3.51q-6.15,6.45-10,8.77a16.28,16.28,0,0,1-8.58,2.32,8,8,0,0,1-6.52-3,11.58,11.58,0,0,1-2.44-7.61,54.79,54.79,0,0,1,1.75-12.16ZM389.62,186l-2.88,12.15H375.65L378.53,186Z"/><path d="M422.6,226.44q5.76-8.59,11.46-12.75a19.41,19.41,0,0,1,11.53-4.17q6,0,9.15,3.41t3.13,9.87v.88a7.91,7.91,0,0,1-.06.94,45.66,45.66,0,0,1,10.75-11.37,19.18,19.18,0,0,1,11.12-3.73q5.76,0,8.9,3.32t3.13,9.34a49.5,49.5,0,0,1-1.82,11.21l-4.07,16.42a46.87,46.87,0,0,0-1.69,9.65,6.33,6.33,0,0,0,.81,3.63,2.94,2.94,0,0,0,2.57,1.13,7,7,0,0,0,4-1.53,44.61,44.61,0,0,0,6-5.86l3.57,3.51a59,59,0,0,1-9.4,8.39,16,16,0,0,1-9.15,2.7,8.05,8.05,0,0,1-6.51-2.92,11.14,11.14,0,0,1-2.45-7.42,51.73,51.73,0,0,1,2.07-12l2.76-10.84q1.5-5.9,2-8.71a29.46,29.46,0,0,0,.47-4.57c0-2.89-.48-5-1.44-6.24s-2.53-1.91-4.7-1.91a10.48,10.48,0,0,0-5.64,2,29.09,29.09,0,0,0-6.33,6.14,51.54,51.54,0,0,0-5.42,8.21A39.4,39.4,0,0,0,454,243l-5.7,27.39H437.45l7.2-31.84q1.32-5.82,1.79-8.61a29.9,29.9,0,0,0,.47-4.8q0-4.5-1.6-6.42a6.14,6.14,0,0,0-5-1.91,10.31,10.31,0,0,0-5.42,2,28.91,28.91,0,0,0-6.49,6.33,46.67,46.67,0,0,0-5.39,8.37,45.94,45.94,0,0,0-3.25,9.77l-6,27.14H403l9.15-39.73a44.81,44.81,0,0,0,1.38-9.28,6.33,6.33,0,0,0-.81-3.63,3,3,0,0,0-2.57-1.13,7,7,0,0,0-4.11,1.6,45,45,0,0,0-5.92,5.8l-3.57-3.51a60.38,60.38,0,0,1,9.49-8.43,15.35,15.35,0,0,1,8.74-2.66,7.88,7.88,0,0,1,6.24,2.6,9.93,9.93,0,0,1,2.29,6.79,21.19,21.19,0,0,1-1.45,7.34Z"/><text class="cls-3" transform="translate(294.19 349.74)">∆</text><path d="M383.4,341.07a49.66,49.66,0,0,1-4.35,4.36,27.41,27.41,0,0,1-4.05,2.94,16,16,0,0,1-3.9,1.66,15.48,15.48,0,0,1-4,.52q-5.34,0-8-2.52t-2.63-7.41a31,31,0,0,1,.25-3.66,36.48,36.48,0,0,1,.7-3.88l5.34-23.27h-7.72l.9-3.46a13.68,13.68,0,0,0,4.2-.51,7.65,7.65,0,0,0,2.53-1.42,9,9,0,0,0,1.31-1.55,18.14,18.14,0,0,0,1.25-2.22,32.53,32.53,0,0,0,1.28-3.08c.44-1.18.92-2.56,1.46-4.15h7l-2.56,11.41h15.27l-1,5H371.5l-4.58,18.82c-.3,1.26-.55,2.39-.74,3.39s-.35,1.91-.47,2.72-.21,1.54-.25,2.2-.07,1.27-.07,1.84a7,7,0,0,0,1.13,4.22,4.24,4.24,0,0,0,3.68,1.53,8.38,8.38,0,0,0,4.58-1.6,30.46,30.46,0,0,0,5.52-5Z"/><text class="cls-3" transform="translate(391.68 349.74)">→</text><text class="cls-3" transform="translate(468.76 349.74)">0</text><text class="cls-3" transform="translate(543.18 194.94)">∆</text><path d="M612,165.65c.42-1.73.71-3.17.88-4.31a21.18,21.18,0,0,0,.24-2.87c0-2.19-.88-3.28-2.65-3.28a4.53,4.53,0,0,0-1.68.33,8.2,8.2,0,0,0-1.73,1,19.15,19.15,0,0,0-2,1.7q-1.08,1-2.43,2.43l-3.1-2.92q2.25-2.3,4.11-3.93a27.48,27.48,0,0,1,3.57-2.7,14.21,14.21,0,0,1,3.37-1.55,12.06,12.06,0,0,1,3.46-.49,6.33,6.33,0,0,1,5.14,2.18A8.64,8.64,0,0,1,621,157a9.63,9.63,0,0,1-.63,3.6l.63.27a37.43,37.43,0,0,1,8.82-8.92,15.78,15.78,0,0,1,8.83-2.85,27,27,0,0,1,3.21.18c1,.12,2,.27,2.9.45l-2.29,10.87h-5.21a7.23,7.23,0,0,0-1.15-3.86,3.19,3.19,0,0,0-2.67-1.17,5,5,0,0,0-2.38.63,14.79,14.79,0,0,0-2.85,1.93,26,26,0,0,0-3,3,35.28,35.28,0,0,0-2.81,3.73,29.41,29.41,0,0,0-2.31,4.29,24,24,0,0,0-1.48,4.56l-4.58,21.29h-8.8Z"/><text class="cls-3" transform="translate(613.17 193.28)">⃗</text><text class="cls-3" transform="translate(547.54 335.42)">∆</text><path d="M636.76,326.75a49.67,49.67,0,0,1-4.36,4.36,26.84,26.84,0,0,1-4,2.94,16.1,16.1,0,0,1-3.91,1.66,15.35,15.35,0,0,1-4,.52q-5.34,0-8-2.52t-2.63-7.41a29,29,0,0,1,.25-3.66,34.7,34.7,0,0,1,.7-3.89l5.34-23.26h-7.72l.89-3.46a13.59,13.59,0,0,0,4.2-.51,7.6,7.6,0,0,0,2.54-1.42,9,9,0,0,0,1.3-1.55,16.87,16.87,0,0,0,1.26-2.22c.42-.87.85-1.9,1.28-3.08s.92-2.57,1.46-4.15h7l-2.56,11.41h15.27l-1,5H624.86l-4.58,18.82c-.3,1.26-.55,2.39-.74,3.39s-.36,1.91-.48,2.72-.2,1.54-.24,2.2-.07,1.27-.07,1.84a7,7,0,0,0,1.12,4.22,4.28,4.28,0,0,0,3.69,1.53,8.4,8.4,0,0,0,4.58-1.6,30.79,30.79,0,0,0,5.52-5Z"/><rect x="543.14" y="229.67" width="106.29" height="8.26"/><text class="cls-2" transform="translate(670.92 270.42)"> </text><text class="cls-2" transform="translate(734.83 270.42)">=</text><path d="M909.74,179.47a41.72,41.72,0,0,0-.83,4.23,21.33,21.33,0,0,0-.2,2.83,3.64,3.64,0,0,0,.69,2.47,2.57,2.57,0,0,0,2,.76,4.31,4.31,0,0,0,1.6-.32,7.47,7.47,0,0,0,1.7-1,19.85,19.85,0,0,0,2-1.73c.74-.71,1.57-1.55,2.5-2.54.47.51,1,1,1.48,1.5l1.48,1.46q-2.25,2.29-4.09,3.93a24.65,24.65,0,0,1-3.57,2.7,14,14,0,0,1-3.39,1.53,12.79,12.79,0,0,1-3.46.47,6.3,6.3,0,0,1-5-2.09,8.53,8.53,0,0,1-1.79-5.73,11.88,11.88,0,0,1,.63-3.86l-.63-.27a48.78,48.78,0,0,1-4.45,5.43,28,28,0,0,1-4.27,3.71,15.88,15.88,0,0,1-4.26,2.13,15,15,0,0,1-4.49.68,9.78,9.78,0,0,1-8.27-3.84q-2.91-3.84-2.92-11.16a37.63,37.63,0,0,1,.92-8.38,36.66,36.66,0,0,1,2.61-7.54,32.28,32.28,0,0,1,4-6.43,27.84,27.84,0,0,1,5.12-5,22.94,22.94,0,0,1,5.93-3.21,18.91,18.91,0,0,1,6.51-1.15,23.53,23.53,0,0,1,5.43.59,12.33,12.33,0,0,1,4.72,2.33q.76-2.82,1.21-4.83c.3-1.33.55-2.56.74-3.68a16.38,16.38,0,0,0,.29-2.81,4.47,4.47,0,0,0-.24-1.57,2.18,2.18,0,0,0-.88-1,4.65,4.65,0,0,0-1.77-.58,28.92,28.92,0,0,0-2.9-.27l.58-3.06,13.39-.54h2.29Zm-6.06-9.92c.33-1.62.63-3.23.89-4.85a27.25,27.25,0,0,0,.41-4.45q0-3.63-1.64-5.16c-1.09-1-2.84-1.53-5.23-1.53a10.67,10.67,0,0,0-4.92,1.15,15.06,15.06,0,0,0-4.16,3.14,23.45,23.45,0,0,0-3.36,4.62,33.54,33.54,0,0,0-2.5,5.62,38.71,38.71,0,0,0-1.52,6.11,36.63,36.63,0,0,0-.52,6.08q0,4.86,1.37,7.21a4.73,4.73,0,0,0,4.42,2.36,9.63,9.63,0,0,0,4.59-1.39,19.18,19.18,0,0,0,4.87-4,31.49,31.49,0,0,0,4.33-6.4A32.71,32.71,0,0,0,903.68,169.55Z"/><path d="M942.44,165.69c.42-1.74.72-3.18.88-4.32a21.28,21.28,0,0,0,.25-2.87c0-2.18-.89-3.28-2.65-3.28a4.4,4.4,0,0,0-1.69.34,7.72,7.72,0,0,0-1.73,1,23.51,23.51,0,0,0-2,1.71c-.72.68-1.53,1.49-2.43,2.42l-3.1-2.92c1.5-1.53,2.87-2.83,4.11-3.93a27.8,27.8,0,0,1,3.57-2.69,13.83,13.83,0,0,1,3.37-1.55,12.06,12.06,0,0,1,3.46-.5,6.32,6.32,0,0,1,5.14,2.18,8.6,8.6,0,0,1,1.82,5.73,9.58,9.58,0,0,1-.63,3.59l.63.27A37.76,37.76,0,0,1,960.3,152a15.69,15.69,0,0,1,8.82-2.86,27,27,0,0,1,3.21.18c1,.12,2,.27,2.9.45l-2.29,10.87h-5.21a7.26,7.26,0,0,0-1.15-3.86,3.19,3.19,0,0,0-2.67-1.17,5,5,0,0,0-2.38.63,14.79,14.79,0,0,0-2.85,1.93,26.93,26.93,0,0,0-3,3,35.07,35.07,0,0,0-2.8,3.72,28.53,28.53,0,0,0-2.32,4.29,24,24,0,0,0-1.48,4.56L944.51,195h-8.8Z"/><text class="cls-3" transform="translate(943.55 193.32)">⃗</text><path d="M915.25,319.92a42.17,42.17,0,0,0-.83,4.22,21.71,21.71,0,0,0-.21,2.83,3.61,3.61,0,0,0,.7,2.47,2.56,2.56,0,0,0,2,.77,4.22,4.22,0,0,0,1.59-.32,7.76,7.76,0,0,0,1.71-1,19.44,19.44,0,0,0,2-1.72c.73-.71,1.57-1.55,2.49-2.54.48.51,1,1,1.49,1.5l1.48,1.46q-2.25,2.29-4.09,3.93a25.4,25.4,0,0,1-3.57,2.7,13.59,13.59,0,0,1-3.39,1.52,12.41,12.41,0,0,1-3.46.48,6.3,6.3,0,0,1-5-2.09,8.5,8.5,0,0,1-1.8-5.73,11.83,11.83,0,0,1,.63-3.86l-.63-.27a47.69,47.69,0,0,1-4.44,5.43,28,28,0,0,1-4.27,3.71,15.93,15.93,0,0,1-4.27,2.13,14.89,14.89,0,0,1-4.49.68,9.77,9.77,0,0,1-8.26-3.84q-2.93-3.84-2.92-11.16a37.63,37.63,0,0,1,.92-8.38,35.6,35.6,0,0,1,2.61-7.55,32.21,32.21,0,0,1,4-6.42,27.84,27.84,0,0,1,5.12-5,23,23,0,0,1,5.92-3.21,18.78,18.78,0,0,1,6.52-1.15,23.59,23.59,0,0,1,5.43.59,12.19,12.19,0,0,1,4.72,2.33q.76-2.82,1.21-4.83c.3-1.33.55-2.56.74-3.68a17.46,17.46,0,0,0,.29-2.81,4.43,4.43,0,0,0-.24-1.57,2.18,2.18,0,0,0-.88-1,4.64,4.64,0,0,0-1.77-.59c-.77-.11-1.73-.2-2.9-.26l.58-3.06,13.39-.54h2.29ZM909.18,310c.33-1.62.63-3.24.9-4.85a27.25,27.25,0,0,0,.41-4.45q0-3.65-1.64-5.16c-1.1-1-2.84-1.53-5.24-1.53a10.78,10.78,0,0,0-4.91,1.14,15.15,15.15,0,0,0-4.16,3.15,23.89,23.89,0,0,0-3.37,4.62,34.34,34.34,0,0,0-2.49,5.62,39.57,39.57,0,0,0-1.53,6.11,37.6,37.6,0,0,0-.51,6.08c0,3.23.45,5.64,1.37,7.21a4.73,4.73,0,0,0,4.42,2.36,9.58,9.58,0,0,0,4.58-1.4,19,19,0,0,0,4.88-4,31.78,31.78,0,0,0,4.33-6.4A32.33,32.33,0,0,0,909.18,310Z"/><path d="M965.58,326.75a49.66,49.66,0,0,1-4.35,4.36,27.89,27.89,0,0,1-4,2.94,16.26,16.26,0,0,1-3.91,1.66,15.46,15.46,0,0,1-3.95.52c-3.57,0-6.22-.84-8-2.52s-2.62-4.15-2.62-7.41a30.83,30.83,0,0,1,.24-3.66,37.13,37.13,0,0,1,.7-3.89L945,295.49h-7.72l.9-3.46a13.68,13.68,0,0,0,4.2-.51,7.55,7.55,0,0,0,2.53-1.42,9,9,0,0,0,1.31-1.55,16.91,16.91,0,0,0,1.25-2.22c.42-.87.85-1.9,1.28-3.08s.93-2.57,1.46-4.15h7l-2.56,11.41h15.27l-1,5H953.68l-4.58,18.82c-.3,1.26-.55,2.39-.74,3.39s-.35,1.91-.47,2.72-.2,1.54-.25,2.2-.07,1.27-.07,1.84a7,7,0,0,0,1.13,4.22,4.24,4.24,0,0,0,3.68,1.53,8.38,8.38,0,0,0,4.58-1.6,30.46,30.46,0,0,0,5.52-5Z"/><rect x="866.44" y="229.67" width="112.91" height="8.26"/><text class="cls-2" transform="translate(1015.15 270.42)">=</text><path d="M1190.09,179.47q-.63,2.66-.84,4.23a23.16,23.16,0,0,0-.2,2.83,3.59,3.59,0,0,0,.7,2.47,2.56,2.56,0,0,0,2,.76,4.22,4.22,0,0,0,1.59-.32,7.73,7.73,0,0,0,1.71-1,21,21,0,0,0,2-1.73c.73-.71,1.56-1.55,2.49-2.54.48.51,1,1,1.48,1.5l1.49,1.46q-2.25,2.29-4.09,3.93a24.65,24.65,0,0,1-3.57,2.7,14.19,14.19,0,0,1-3.39,1.53,12.79,12.79,0,0,1-3.46.47,6.28,6.28,0,0,1-5-2.09,8.48,8.48,0,0,1-1.8-5.73,11.88,11.88,0,0,1,.63-3.86l-.63-.27a48.78,48.78,0,0,1-4.44,5.43,28,28,0,0,1-4.27,3.71,15.93,15.93,0,0,1-4.27,2.13,14.89,14.89,0,0,1-4.49.68,9.76,9.76,0,0,1-8.26-3.84q-2.93-3.84-2.92-11.16a37.63,37.63,0,0,1,.92-8.38,36.06,36.06,0,0,1,2.6-7.54,33.22,33.22,0,0,1,4-6.43,28.48,28.48,0,0,1,5.12-5,23.27,23.27,0,0,1,5.93-3.21,19,19,0,0,1,6.51-1.15,23.62,23.62,0,0,1,5.44.59,12.23,12.23,0,0,1,4.71,2.33q.76-2.82,1.22-4.83c.3-1.33.54-2.56.74-3.68a17.46,17.46,0,0,0,.29-2.81,4.24,4.24,0,0,0-.25-1.57,2.1,2.1,0,0,0-.87-1,4.64,4.64,0,0,0-1.78-.58,28.69,28.69,0,0,0-2.89-.27l.58-3.06,13.38-.54h2.29Zm-6.07-9.92c.33-1.62.63-3.23.9-4.85a27.17,27.17,0,0,0,.4-4.45q0-3.63-1.63-5.16c-1.1-1-2.84-1.53-5.24-1.53a10.66,10.66,0,0,0-4.91,1.15,14.91,14.91,0,0,0-4.16,3.14,23.48,23.48,0,0,0-3.37,4.62,32.72,32.72,0,0,0-2.49,5.62,39.86,39.86,0,0,0-1.53,6.11,37.7,37.7,0,0,0-.51,6.08c0,3.24.45,5.64,1.37,7.21a4.72,4.72,0,0,0,4.42,2.36,9.59,9.59,0,0,0,4.58-1.39,19,19,0,0,0,4.87-4,31.11,31.11,0,0,0,4.34-6.4A32.7,32.7,0,0,0,1184,169.55Z"/><path d="M1229.51,173.32q-.81-3.76-1.42-6.56c-.4-1.85-.78-3.45-1.12-4.78a28.38,28.38,0,0,0-1-3.26,10.13,10.13,0,0,0-1-2,3.18,3.18,0,0,0-1.12-1.06,3.5,3.5,0,0,0-1.42-.36,3.8,3.8,0,0,0-1.41.25,4.33,4.33,0,0,0-1.35.87,12.75,12.75,0,0,0-1.53,1.76c-.55.74-1.19,1.72-1.91,2.92l-3.45-2.25q1.83-2.75,3.32-4.63a17.93,17.93,0,0,1,2.92-3,9.67,9.67,0,0,1,3-1.61,12.32,12.32,0,0,1,3.66-.5,7,7,0,0,1,4,1.08,8.1,8.1,0,0,1,2.61,3.15,21.63,21.63,0,0,1,1.7,5.09c.45,2,.93,4.34,1.44,6.94h.59l4.67-6.15c1.31-1.74,2.49-3.2,3.52-4.4a32.49,32.49,0,0,1,2.79-2.92,11.21,11.21,0,0,1,2.4-1.73,8.35,8.35,0,0,1,2.4-.83,15.55,15.55,0,0,1,2.76-.23,10.05,10.05,0,0,1,4.09.81l-2.24,8.85h-3.73c-.09-1.29-.57-1.93-1.44-1.93a3.69,3.69,0,0,0-1.08.18,5.62,5.62,0,0,0-1.39.72,16.07,16.07,0,0,0-1.86,1.5c-.71.65-1.54,1.48-2.5,2.52s-2,2.29-3.27,3.79-2.64,3.27-4.23,5.3q1.21,6.19,2.09,9.93a41,41,0,0,0,1.69,5.7,6.19,6.19,0,0,0,1.61,2.58,3,3,0,0,0,1.84.61,5.36,5.36,0,0,0,1.42-.18,3.56,3.56,0,0,0,1.35-.79,11.07,11.07,0,0,0,1.55-1.75c.56-.76,1.24-1.77,2-3l3.37,2.2c-1.32,2-2.49,3.59-3.51,4.85a17.27,17.27,0,0,1-3,3,8.56,8.56,0,0,1-3,1.46,14.65,14.65,0,0,1-3.5.38,9.3,9.3,0,0,1-3-.47,5.13,5.13,0,0,1-2.34-1.73,8.22,8.22,0,0,1-1.26-2.05,27.41,27.41,0,0,1-1.07-2.76c-.33-1-.63-2-.9-3.08s-.5-2.05-.68-3-.32-1.76-.42-2.49-.18-1.28-.2-1.64h-.5q-2.7,3.58-4.69,6.26t-3.62,4.58a40.23,40.23,0,0,1-2.92,3.15,13.69,13.69,0,0,1-2.56,2,8.7,8.7,0,0,1-2.58,1,14.71,14.71,0,0,1-2.94.27,9.06,9.06,0,0,1-4-.81l2.07-8.76h3.82c.09,1.32.58,2,1.48,2a5.09,5.09,0,0,0,1-.18,4.07,4.07,0,0,0,1.1-.56,14.91,14.91,0,0,0,1.6-1.35c.64-.61,1.46-1.47,2.45-2.56s2.2-2.46,3.63-4.11S1227.5,175.75,1229.51,173.32Z"/><path d="M1196.71,319.93a41.1,41.1,0,0,0-.83,4.22,21.59,21.59,0,0,0-.21,2.83,3.63,3.63,0,0,0,.7,2.47,2.56,2.56,0,0,0,2,.76,4.21,4.21,0,0,0,1.59-.31,7.76,7.76,0,0,0,1.71-1,21,21,0,0,0,2-1.73c.73-.7,1.57-1.55,2.49-2.54.48.51,1,1,1.49,1.51s1,1,1.48,1.46q-2.25,2.28-4.09,3.93a25.28,25.28,0,0,1-3.57,2.69,13.64,13.64,0,0,1-3.39,1.53,12.79,12.79,0,0,1-3.46.47,6.3,6.3,0,0,1-5-2.09,8.47,8.47,0,0,1-1.79-5.72,11.89,11.89,0,0,1,.62-3.87l-.62-.27a49.91,49.91,0,0,1-4.45,5.44,27.94,27.94,0,0,1-4.27,3.7,15.77,15.77,0,0,1-4.26,2.14,15,15,0,0,1-4.5.67,9.77,9.77,0,0,1-8.26-3.84q-2.92-3.84-2.92-11.16a37.69,37.69,0,0,1,.92-8.38,36.08,36.08,0,0,1,2.61-7.54,32.21,32.21,0,0,1,4-6.42,27.58,27.58,0,0,1,5.12-5,23.67,23.67,0,0,1,5.92-3.21,19,19,0,0,1,6.52-1.14,23.61,23.61,0,0,1,5.43.58,12.22,12.22,0,0,1,4.72,2.34q.76-2.83,1.21-4.83c.3-1.33.55-2.56.74-3.68a16.48,16.48,0,0,0,.29-2.81,4.43,4.43,0,0,0-.24-1.57,2.2,2.2,0,0,0-.88-1,4.65,4.65,0,0,0-1.77-.58,28.92,28.92,0,0,0-2.9-.27l.58-3,13.39-.54h2.29Zm-6.07-9.93c.33-1.61.63-3.23.9-4.85a27.23,27.23,0,0,0,.41-4.44q0-3.65-1.64-5.17t-5.23-1.53a10.8,10.8,0,0,0-4.92,1.15,15.06,15.06,0,0,0-4.16,3.14,24.28,24.28,0,0,0-3.37,4.63,33.86,33.86,0,0,0-2.49,5.61,38.71,38.71,0,0,0-1.52,6.11,36.66,36.66,0,0,0-.52,6.09c0,3.23.45,5.63,1.37,7.2a4.71,4.71,0,0,0,4.42,2.36,9.56,9.56,0,0,0,4.58-1.39,19.21,19.21,0,0,0,4.88-4,31.22,31.22,0,0,0,4.33-6.4A32.08,32.08,0,0,0,1190.64,310Z"/><path d="M1247,326.75a49.66,49.66,0,0,1-4.35,4.36,26.45,26.45,0,0,1-4,2.94,15.71,15.71,0,0,1-3.91,1.66,15,15,0,0,1-4,.52c-3.57,0-6.22-.84-8-2.51s-2.62-4.15-2.62-7.42a31.1,31.1,0,0,1,.24-3.66,36.94,36.94,0,0,1,.7-3.88l5.34-23.26h-7.72l.9-3.46a13.33,13.33,0,0,0,4.2-.52,7.36,7.36,0,0,0,2.53-1.41,9.44,9.44,0,0,0,1.31-1.55,16.59,16.59,0,0,0,1.25-2.23,32.25,32.25,0,0,0,1.28-3.07c.44-1.19.93-2.57,1.46-4.16h7l-2.56,11.41h15.27l-1,5h-15.23l-4.58,18.81c-.3,1.26-.54,2.39-.74,3.39s-.35,1.91-.47,2.72-.2,1.54-.25,2.2-.07,1.28-.07,1.84a7,7,0,0,0,1.13,4.23,4.28,4.28,0,0,0,3.68,1.52,8.44,8.44,0,0,0,4.58-1.59,30.53,30.53,0,0,0,5.53-5Z"/><rect x="1146.79" y="229.67" width="115.12" height="8.26"/><path d="M1298.61,228.19q.75-3.31,1.1-5.58a25.73,25.73,0,0,0,.34-3.82,7.63,7.63,0,0,0-.31-2.38,2.78,2.78,0,0,0-1.1-1.47,5,5,0,0,0-2.07-.75c-.85-.15-1.91-.26-3.16-.35l.69-3.32,15.29-.56h3.69l-9,40.23c-.46,2-.8,3.78-1,5.32a27.62,27.62,0,0,0-.35,3.95,6.24,6.24,0,0,0,.82,3.63,2.93,2.93,0,0,0,2.57,1.13,7,7,0,0,0,4.38-1.82,51.75,51.75,0,0,0,5.64-5.57l3.57,3.51c-2,2-3.72,3.78-5.29,5.2a31.78,31.78,0,0,1-4.45,3.44,15.23,15.23,0,0,1-4.2,1.88,17.51,17.51,0,0,1-4.6.57,8.11,8.11,0,0,1-6.65-3.14,10.41,10.41,0,0,1-1.72-3.35,13.59,13.59,0,0,1-.59-4.1,38,38,0,0,1,.43-5.3c.3-2,.73-4.31,1.32-6.86Z"/><text class="cls-2" transform="translate(1325.22 270.42)">̂</text><text class="cls-2" transform="translate(1325.22 270.42)"> </text><text class="cls-2" transform="translate(1381.94 270.42)">+</text><path d="M1549.74,179.47c-.42,1.77-.69,3.18-.83,4.23a23.16,23.16,0,0,0-.2,2.83,3.59,3.59,0,0,0,.7,2.47,2.55,2.55,0,0,0,2,.76,4.31,4.31,0,0,0,1.6-.32,7.73,7.73,0,0,0,1.71-1,22.29,22.29,0,0,0,2-1.73c.73-.71,1.56-1.55,2.49-2.54.48.51,1,1,1.48,1.5l1.48,1.46c-1.49,1.53-2.86,2.84-4.08,3.93a24.65,24.65,0,0,1-3.57,2.7,14.37,14.37,0,0,1-3.39,1.53,12.84,12.84,0,0,1-3.46.47,6.27,6.27,0,0,1-5-2.09,8.48,8.48,0,0,1-1.8-5.73,11.88,11.88,0,0,1,.63-3.86l-.63-.27a48.78,48.78,0,0,1-4.45,5.43,28,28,0,0,1-4.26,3.71,15.93,15.93,0,0,1-4.27,2.13,14.94,14.94,0,0,1-4.49.68,9.76,9.76,0,0,1-8.26-3.84q-2.92-3.84-2.92-11.16a37,37,0,0,1,.92-8.38,36.06,36.06,0,0,1,2.6-7.54,32.28,32.28,0,0,1,4-6.43,28.16,28.16,0,0,1,5.12-5,23.1,23.1,0,0,1,5.93-3.21,19,19,0,0,1,6.51-1.15,23.62,23.62,0,0,1,5.44.59,12.3,12.3,0,0,1,4.71,2.33q.77-2.82,1.22-4.83c.29-1.33.54-2.56.74-3.68a17.46,17.46,0,0,0,.29-2.81,4.24,4.24,0,0,0-.25-1.57,2.16,2.16,0,0,0-.87-1,4.7,4.7,0,0,0-1.78-.58,28.63,28.63,0,0,0-2.9-.27l.59-3.06,13.38-.54h2.29Zm-6.06-9.92c.33-1.62.63-3.23.9-4.85a27.17,27.17,0,0,0,.4-4.45c0-2.42-.54-4.14-1.64-5.16s-2.83-1.53-5.23-1.53a10.67,10.67,0,0,0-4.92,1.15,15,15,0,0,0-4.15,3.14,23.48,23.48,0,0,0-3.37,4.62,32.72,32.72,0,0,0-2.49,5.62,38.78,38.78,0,0,0-2,12.19q0,4.86,1.37,7.21a4.75,4.75,0,0,0,4.43,2.36,9.62,9.62,0,0,0,4.58-1.39,19,19,0,0,0,4.87-4,31.51,31.51,0,0,0,4.34-6.4A33.07,33.07,0,0,0,1543.68,169.55Z"/><path d="M1590.11,194.7q-1.48-8.53-2.61-14.75c-.74-4.15-1.43-7.68-2-10.6s-1.17-5.3-1.68-7.12a28.16,28.16,0,0,0-1.49-4.27,5.49,5.49,0,0,0-1.46-2.09,2.59,2.59,0,0,0-1.59-.56,5.3,5.3,0,0,0-1.48.2,4,4,0,0,0-1.39.83,10.82,10.82,0,0,0-1.55,1.78c-.56.76-1.24,1.76-2,3l-3.45-2.25a54.94,54.94,0,0,1,3.54-4.72,17.4,17.4,0,0,1,3.21-3,10.85,10.85,0,0,1,3.26-1.57,13.08,13.08,0,0,1,3.64-.48,10.26,10.26,0,0,1,2.78.34,6.26,6.26,0,0,1,2.11,1.06,7.44,7.44,0,0,1,1.69,1.86,24.23,24.23,0,0,1,1.5,2.76,20.89,20.89,0,0,1,.86,2.83c.29,1.23.61,2.65.94,4.27s.66,3.4,1,5.34.66,4,1,6.11.64,4.31.94,6.54.58,4.42.85,6.57a91.06,91.06,0,0,0,6.06-8.91,92.08,92.08,0,0,0,4.56-8.53,54.77,54.77,0,0,0,2.86-7.32,18.35,18.35,0,0,0,.94-5.28,3.5,3.5,0,0,0-1-2.83,6,6,0,0,0-3.46-1l.58-2.87h12.8l1.57,2.6a167.53,167.53,0,0,1-10.48,21.4,179.54,179.54,0,0,1-13.55,20q-3.27,3.92-5.9,6.74c-1.75,1.88-3.37,3.51-4.85,4.87a37.85,37.85,0,0,1-4.13,3.35,23.43,23.43,0,0,1-3.71,2.08,16.74,16.74,0,0,1-3.57,1.13,27.17,27.17,0,0,1-3.7.42,16.82,16.82,0,0,1-2.5-.22,17.1,17.1,0,0,1-2.58-.58l2.25-9.84h4.08v.27c0,2,.83,3.05,2.47,3.05a11.07,11.07,0,0,0,6.65-2.53A56,56,0,0,0,1590.11,194.7Z"/><path d="M1558.57,319.93c-.42,1.76-.69,3.17-.83,4.22a23.3,23.3,0,0,0-.2,2.83,3.57,3.57,0,0,0,.7,2.47,2.55,2.55,0,0,0,2,.76,4.26,4.26,0,0,0,1.6-.31,8.24,8.24,0,0,0,1.71-1,22.29,22.29,0,0,0,2-1.73c.73-.7,1.56-1.55,2.49-2.54.48.51,1,1,1.48,1.51s1,1,1.48,1.46c-1.49,1.52-2.86,2.83-4.08,3.93a25.28,25.28,0,0,1-3.57,2.69,14,14,0,0,1-3.39,1.53,12.84,12.84,0,0,1-3.46.47,6.27,6.27,0,0,1-5-2.09,8.47,8.47,0,0,1-1.8-5.72,11.89,11.89,0,0,1,.63-3.87l-.63-.27a49.91,49.91,0,0,1-4.45,5.44,27.9,27.9,0,0,1-4.26,3.7,15.68,15.68,0,0,1-4.27,2.14,14.93,14.93,0,0,1-4.49.67,9.76,9.76,0,0,1-8.26-3.84q-2.92-3.84-2.92-11.16a37.11,37.11,0,0,1,.92-8.38,36.06,36.06,0,0,1,2.6-7.54,32.21,32.21,0,0,1,4-6.42,27.89,27.89,0,0,1,5.12-5,23.73,23.73,0,0,1,5.93-3.21,19,19,0,0,1,6.51-1.14,23.64,23.64,0,0,1,5.44.58,12.18,12.18,0,0,1,4.71,2.34q.77-2.83,1.22-4.83c.29-1.33.54-2.56.74-3.68a17.57,17.57,0,0,0,.29-2.81,4.2,4.2,0,0,0-.25-1.57,2.18,2.18,0,0,0-.87-1,4.7,4.7,0,0,0-1.78-.58,28.63,28.63,0,0,0-2.9-.27l.59-3,13.38-.54H1569Zm-6.06-9.93c.33-1.61.63-3.23.9-4.85a27.15,27.15,0,0,0,.4-4.44c0-2.43-.54-4.15-1.64-5.17s-2.83-1.53-5.23-1.53a10.8,10.8,0,0,0-4.92,1.15,15,15,0,0,0-4.15,3.14,23.86,23.86,0,0,0-3.37,4.63,32.28,32.28,0,0,0-2.49,5.61,38.78,38.78,0,0,0-2,12.2q0,4.85,1.37,7.2a4.73,4.73,0,0,0,4.43,2.36,9.62,9.62,0,0,0,4.58-1.39,19,19,0,0,0,4.87-4,31.24,31.24,0,0,0,4.34-6.4A32.8,32.8,0,0,0,1552.51,310Z"/><path d="M1608.91,326.75a49.67,49.67,0,0,1-4.36,4.36,25.51,25.51,0,0,1-4,2.94,15.71,15.71,0,0,1-3.91,1.66,14.92,14.92,0,0,1-3.95.52q-5.34,0-8-2.51t-2.63-7.42a29.22,29.22,0,0,1,.25-3.66,34.52,34.52,0,0,1,.7-3.88l5.34-23.26h-7.72l.89-3.46a13.25,13.25,0,0,0,4.2-.52,7.41,7.41,0,0,0,2.54-1.41,9.41,9.41,0,0,0,1.3-1.55,17.73,17.73,0,0,0,1.26-2.23,32.25,32.25,0,0,0,1.28-3.07c.43-1.19.92-2.57,1.46-4.16h7L1598,290.51h15.27l-1,5H1597l-4.58,18.81c-.3,1.26-.55,2.39-.74,3.39s-.36,1.91-.48,2.72-.2,1.54-.24,2.2-.07,1.28-.07,1.84a7,7,0,0,0,1.12,4.23,4.3,4.3,0,0,0,3.69,1.52,8.47,8.47,0,0,0,4.58-1.59,30.86,30.86,0,0,0,5.52-5Z"/><rect x="1506.45" y="229.67" width="118.97" height="8.26"/><path d="M1669.77,271.49a62.9,62.9,0,0,1-3.51,11.53,27.62,27.62,0,0,1-5.42,8.43,21.5,21.5,0,0,1-7.87,5.17,31.1,31.1,0,0,1-10.77,1.82,26.13,26.13,0,0,1-3.11-.16,13.54,13.54,0,0,1-2.22-.47l1.44-5.52a9.83,9.83,0,0,0,2.23.41c.81.06,1.66.1,2.53.1a14.31,14.31,0,0,0,4.83-.79,9.81,9.81,0,0,0,4.07-2.94,21.68,21.68,0,0,0,3.45-6,60.11,60.11,0,0,0,2.88-9.8l10.15-45.12q.75-3.31,1.1-5.58a25.73,25.73,0,0,0,.34-3.82,7.63,7.63,0,0,0-.31-2.38,2.73,2.73,0,0,0-1.1-1.47,5,5,0,0,0-2.06-.75c-.86-.15-1.92-.26-3.17-.35l.69-3.32,15.29-.56h3.57Z"/><text class="cls-4" transform="translate(1694.25 270.42)">̂</text><text class="cls-5" transform="translate(1694.25 270.42)"> <tspan class="cls-6" x="51.23" y="0"> </tspan></text><text class="cls-4" transform="translate(2096.09 239.93)">̂</text><text class="cls-5" transform="translate(2096.09 239.93)"> <tspan class="cls-6" x="51.23" y="0"> </tspan></text><text class="cls-2" transform="translate(1779.59 270.42)">+</text><path d="M1947.4,179.47c-.42,1.77-.69,3.18-.83,4.23a23.16,23.16,0,0,0-.2,2.83,3.59,3.59,0,0,0,.7,2.47,2.56,2.56,0,0,0,2,.76,4.22,4.22,0,0,0,1.59-.32,7.73,7.73,0,0,0,1.71-1,22.29,22.29,0,0,0,2-1.73c.73-.71,1.56-1.55,2.49-2.54.48.51,1,1,1.48,1.5l1.49,1.46q-2.25,2.29-4.09,3.93a24.65,24.65,0,0,1-3.57,2.7,14.37,14.37,0,0,1-3.39,1.53,12.79,12.79,0,0,1-3.46.47,6.28,6.28,0,0,1-5-2.09,8.48,8.48,0,0,1-1.8-5.73,11.88,11.88,0,0,1,.63-3.86l-.63-.27a49.93,49.93,0,0,1-4.44,5.43,28,28,0,0,1-4.27,3.71,15.93,15.93,0,0,1-4.27,2.13,14.89,14.89,0,0,1-4.49.68,9.76,9.76,0,0,1-8.26-3.84q-2.92-3.84-2.92-11.16a37,37,0,0,1,.92-8.38,36.06,36.06,0,0,1,2.6-7.54,33.22,33.22,0,0,1,4-6.43,28.48,28.48,0,0,1,5.12-5,23.27,23.27,0,0,1,5.93-3.21,19,19,0,0,1,6.51-1.15,23.62,23.62,0,0,1,5.44.59,12.3,12.3,0,0,1,4.71,2.33q.77-2.82,1.22-4.83c.3-1.33.54-2.56.74-3.68a17.46,17.46,0,0,0,.29-2.81,4.24,4.24,0,0,0-.25-1.57,2.1,2.1,0,0,0-.87-1,4.64,4.64,0,0,0-1.78-.58,28.69,28.69,0,0,0-2.89-.27l.58-3.06,13.38-.54h2.29Zm-6.06-9.92c.33-1.62.63-3.23.9-4.85a27.17,27.17,0,0,0,.4-4.45c0-2.42-.54-4.14-1.64-5.16s-2.83-1.53-5.23-1.53a10.73,10.73,0,0,0-4.92,1.15,15,15,0,0,0-4.15,3.14,23.48,23.48,0,0,0-3.37,4.62,32.72,32.72,0,0,0-2.49,5.62,39.86,39.86,0,0,0-1.53,6.11,37.7,37.7,0,0,0-.51,6.08c0,3.24.45,5.64,1.37,7.21a4.72,4.72,0,0,0,4.42,2.36,9.59,9.59,0,0,0,4.58-1.39,19,19,0,0,0,4.87-4,31.51,31.51,0,0,0,4.34-6.4A33.07,33.07,0,0,0,1941.34,169.55Zm62.78,11.9L2001.24,195h-35.66l-1.21-2.7,9-9.88,9.16-10.06q4.52-4.94,8.69-9.45t7.55-8.11a1.21,1.21,0,0,0-.27-.22h-11.54a15.53,15.53,0,0,0-3.37.31,6.51,6.51,0,0,0-2.56,1.22,10.92,10.92,0,0,0-2.29,2.51q-1.12,1.62-2.61,4.27h-4.58l2.79-12.8h34.94l1.08,2.69-5.64,6.24q-2.67,3-5.3,5.84l-5.25,5.73c-1.76,1.9-3.57,3.88-5.46,5.93l-5.93,6.46-6.65,7.3a1.35,1.35,0,0,0,.27.23h11.05l3,0a10.76,10.76,0,0,0,2.2-.25,5.55,5.55,0,0,0,1.73-.74,6.53,6.53,0,0,0,1.54-1.53,20.33,20.33,0,0,0,1.62-2.58c.57-1.05,1.24-2.35,2-3.91Z"/><path d="M1951.27,319.93a41.1,41.1,0,0,0-.83,4.22,21.59,21.59,0,0,0-.21,2.83,3.63,3.63,0,0,0,.7,2.47,2.56,2.56,0,0,0,2,.76,4.21,4.21,0,0,0,1.59-.31,7.76,7.76,0,0,0,1.71-1,21,21,0,0,0,2-1.73c.73-.7,1.57-1.55,2.49-2.54.48.51,1,1,1.49,1.51s1,1,1.48,1.46q-2.25,2.28-4.09,3.93a25.28,25.28,0,0,1-3.57,2.69,13.64,13.64,0,0,1-3.39,1.53,12.79,12.79,0,0,1-3.46.47,6.3,6.3,0,0,1-5-2.09,8.47,8.47,0,0,1-1.79-5.72,11.89,11.89,0,0,1,.62-3.87l-.62-.27a49.91,49.91,0,0,1-4.45,5.44,27.94,27.94,0,0,1-4.27,3.7,15.77,15.77,0,0,1-4.26,2.14,15,15,0,0,1-4.5.67,9.77,9.77,0,0,1-8.26-3.84q-2.92-3.84-2.92-11.16a37.69,37.69,0,0,1,.92-8.38,36.08,36.08,0,0,1,2.61-7.54,32.21,32.21,0,0,1,4-6.42,27.58,27.58,0,0,1,5.12-5,23.67,23.67,0,0,1,5.92-3.21,19,19,0,0,1,6.52-1.14,23.61,23.61,0,0,1,5.43.58,12.22,12.22,0,0,1,4.72,2.34q.76-2.83,1.21-4.83c.3-1.33.55-2.56.74-3.68a16.48,16.48,0,0,0,.29-2.81,4.43,4.43,0,0,0-.24-1.57,2.2,2.2,0,0,0-.88-1,4.65,4.65,0,0,0-1.77-.58,28.92,28.92,0,0,0-2.9-.27l.58-3,13.39-.54h2.29ZM1945.2,310c.33-1.61.63-3.23.9-4.85a27.23,27.23,0,0,0,.41-4.44q0-3.65-1.64-5.17t-5.23-1.53a10.8,10.8,0,0,0-4.92,1.15,15.06,15.06,0,0,0-4.16,3.14,24.28,24.28,0,0,0-3.37,4.63,33.86,33.86,0,0,0-2.49,5.61,38.71,38.71,0,0,0-1.52,6.11,36.66,36.66,0,0,0-.52,6.09c0,3.23.45,5.63,1.37,7.2a4.71,4.71,0,0,0,4.42,2.36,9.56,9.56,0,0,0,4.58-1.39,19.21,19.21,0,0,0,4.88-4,31.22,31.22,0,0,0,4.33-6.4A32.08,32.08,0,0,0,1945.2,310Z"/><path d="M2001.6,326.75a49.66,49.66,0,0,1-4.35,4.36,26.45,26.45,0,0,1-4,2.94,15.71,15.71,0,0,1-3.91,1.66,15,15,0,0,1-4,.52c-3.57,0-6.22-.84-8-2.51s-2.62-4.15-2.62-7.42a31.1,31.1,0,0,1,.24-3.66,36.94,36.94,0,0,1,.7-3.88L1981,295.5h-7.72l.9-3.46a13.33,13.33,0,0,0,4.2-.52,7.36,7.36,0,0,0,2.53-1.41,9.44,9.44,0,0,0,1.31-1.55,17.77,17.77,0,0,0,1.25-2.23,32.25,32.25,0,0,0,1.28-3.07c.44-1.19.93-2.57,1.46-4.16h7l-2.56,11.41H2006l-1,5H1989.7l-4.58,18.81c-.3,1.26-.55,2.39-.74,3.39s-.35,1.91-.47,2.72-.2,1.54-.25,2.2-.07,1.28-.07,1.84a7,7,0,0,0,1.13,4.23,4.28,4.28,0,0,0,3.68,1.52,8.44,8.44,0,0,0,4.58-1.59,30.53,30.53,0,0,0,5.53-5Z"/><rect x="1904.11" y="229.67" width="109.05" height="8.26"/><path d="M2067.67,244.67a11.89,11.89,0,0,0-1.26-3.38A3.15,3.15,0,0,0,2065,240a9.32,9.32,0,0,0-2.88-.31h-4.32l-6.52,30.71h-10.84l16.1-71.63c.55-2.42.93-4.31,1.16-5.67a21.86,21.86,0,0,0,.35-3.6,4.12,4.12,0,0,0-1.6-3.7c-1.07-.71-3-1.1-5.73-1.19l.75-3.26,15.85-.56h3.63l-12.28,54.7h2q4.7,0,10.56-4.1a71.53,71.53,0,0,0,9.36-7.61q3.51-3.51,3.51-6.77,0-3.07-4.26-3.45l.69-3.07h20.3l1.19,3.07q-5.19,4.69-11,9.21l-15.54,12,6.14,22.62a27.44,27.44,0,0,0,1.34,4.17,5.15,5.15,0,0,0,1.38,1.91,3.25,3.25,0,0,0,2.1.63,6.82,6.82,0,0,0,3.89-1.76,38.62,38.62,0,0,0,5.14-5.07l3.57,3.51a53.12,53.12,0,0,1-9.34,8.27,13.52,13.52,0,0,1-7.14,2.32,9.39,9.39,0,0,1-6.77-2.41q-2.51-2.41-3.95-8.06Z"/><text class="cls-2" transform="translate(2109.59 270.42)"> </text><text class="cls-2" transform="translate(2137.69 270.42)"> </text><text class="cls-7" transform="translate(2166.31 270.42)"><tspan class="cls-8">(vel</tspan><tspan class="cls-9" x="207.3" y="0">o</tspan><tspan class="cls-10" x="278.41" y="0">c</tspan><tspan class="cls-11" x="342.83" y="0">id</tspan><tspan class="cls-9" x="442.97" y="0">a</tspan><tspan x="514.09" y="0">d</tspan></text><text class="cls-7" transform="translate(2752.36 270.42)"> </text><text class="cls-12" transform="translate(2788.08 270.42)">in<tspan class="cls-13" x="100.14" y="0">s</tspan><tspan class="cls-14" x="164.56" y="0">t</tspan><tspan x="199.83" y="0">ant</tspan><tspan class="cls-15" x="378.61" y="0">á</tspan><tspan class="cls-16" x="449.73" y="0">nea)</tspan><tspan class="cls-17" x="707.09" y="0"> </tspan></text><text class="cls-18" transform="translate(3531.11 270.42)"> </text><text class="cls-19" transform="translate(32.94 506.09)"> </text></svg>