<svg id="Capa_1" data-name="Capa 1" xmlns="http://www.w3.org/2000/svg" viewBox="0 0 2457.98 496.58"><defs><style>.cls-1{font-size:119.2px;}.cls-1,.cls-2{font-family:CambriaMath, Cambria Math;}.cls-2,.cls-3,.cls-4{font-size:164.8px;}.cls-3{font-family:Arial-ItalicMT, Arial;font-style:italic;}.cls-4{font-family:ArialMT, Arial;}.cls-5{letter-spacing:0em;}</style></defs><title>textotarget2</title><path d="M60.28,308.45a6.43,6.43,0,0,1-3.91-1.16,8.27,8.27,0,0,1-2.53-3.3,18.13,18.13,0,0,1-1.37-5,46.12,46.12,0,0,1-.4-6.36,90.83,90.83,0,0,1,.56-9.82c.38-3.48.86-7,1.45-10.54L57.46,250c.21-1.28.39-2.5.52-3.66a22.87,22.87,0,0,0,.2-2.53,9.32,9.32,0,0,0-.8-4.11A2.83,2.83,0,0,0,54.64,238a7.15,7.15,0,0,0-3.3.93,23,23,0,0,0-3.58,2.37q-1.8,1.46-3.5,3.1t-3.14,3.1L37.26,243c1.66-1.71,3.43-3.42,5.31-5.11a47.67,47.67,0,0,1,6-4.58,31.33,31.33,0,0,1,6.6-3.3,20.71,20.71,0,0,1,7.08-1.25,10.82,10.82,0,0,1,5,1,7.86,7.86,0,0,1,3,2.65,10.2,10.2,0,0,1,1.49,3.62,19.44,19.44,0,0,1,.4,3.91c0,.75,0,1.47-.08,2.17a17.23,17.23,0,0,1-.24,1.93l-4.5,29.13q-.73,4.59-1.21,9a72.38,72.38,0,0,0-.48,7.77,29.94,29.94,0,0,0,.4,5.47c.27,1.39.78,2.09,1.53,2.09a15.18,15.18,0,0,0,6.68-2.13,48.57,48.57,0,0,0,8.45-5.88,81.14,81.14,0,0,0,8.85-8.85,76.39,76.39,0,0,0,8-11.06A65.18,65.18,0,0,0,105.22,257a41.59,41.59,0,0,0,2.21-13.27,7.06,7.06,0,0,0-1.25-4.47,4.69,4.69,0,0,0-3.9-1.57A9.06,9.06,0,0,0,96,240.34a44.29,44.29,0,0,0-5.91,6.88l-4.59-4.11a39.14,39.14,0,0,1,10.1-10.22,29.12,29.12,0,0,1,6.08-3.21,16.85,16.85,0,0,1,6.11-1.21c3.86,0,6.65,1,8.37,3a12,12,0,0,1,2.58,8.08,34,34,0,0,1-1.37,8.85A74.52,74.52,0,0,1,113.55,259a114.89,114.89,0,0,1-6,11.38A123.12,123.12,0,0,1,100,281.7,111.41,111.41,0,0,1,91,292.08a71.89,71.89,0,0,1-9.85,8.49,51.47,51.47,0,0,1-10.38,5.75A27.9,27.9,0,0,1,60.28,308.45Z"/><path d="M175.11,340.6H163.76q.81-3.74,1.83-8t2.07-8.64c.7-2.91,1.36-5.78,2-8.62s1.21-5.48,1.71-7.94.91-4.68,1.22-6.64a31.76,31.76,0,0,0,.47-4.68c0-2.45-.48-4.24-1.43-5.39a5.61,5.61,0,0,0-4.56-1.71,11.12,11.12,0,0,0-6,2.09,28.61,28.61,0,0,0-6.08,5.5,42.79,42.79,0,0,0-5.15,7.69,32.87,32.87,0,0,0-3.2,8.64l-5.94,27.71H129.3l8.73-38c.5-2.1.87-3.92,1.11-5.48a27.24,27.24,0,0,0,.35-3.84q0-4.24-3.44-4.25a5.59,5.59,0,0,0-2.12.44,10.6,10.6,0,0,0-2.27,1.31,25.43,25.43,0,0,0-2.59,2.21q-1.4,1.33-3.15,3.14l-4-3.78c1.9-1.94,3.65-3.62,5.27-5a34.47,34.47,0,0,1,4.65-3.5,19.53,19.53,0,0,1,4.4-2,14.86,14.86,0,0,1,4.48-.67,8.19,8.19,0,0,1,6.66,2.82,11.21,11.21,0,0,1,2.36,7.42,18.52,18.52,0,0,1-.17,2.5,10.42,10.42,0,0,1-.64,2.39l.69.29A47.76,47.76,0,0,1,160.67,285,19.69,19.69,0,0,1,172,281.17q6.18,0,9.23,3.17t3.05,9.34v1a5.21,5.21,0,0,1-.11,1h.23a44.78,44.78,0,0,1,10.77-11,19.78,19.78,0,0,1,11.17-3.58q6.18,0,9.23,3.32t3.06,9.31a27.49,27.49,0,0,1-.59,4.86q-.59,3.06-1.42,6.72T214.8,313q-1,3.93-1.86,7.42-.52,2.27-.84,3.69c-.22,1-.38,1.75-.5,2.39s-.19,1.19-.23,1.66-.06,1-.06,1.51a5,5,0,0,0,.82,3.2,3.19,3.19,0,0,0,2.62,1,5.78,5.78,0,0,0,2.09-.4,10.28,10.28,0,0,0,2.24-1.28,25.94,25.94,0,0,0,2.62-2.25q1.43-1.37,3.17-3.28l4,3.84q-2.79,2.91-5.21,5a34.36,34.36,0,0,1-4.66,3.47,18.89,18.89,0,0,1-4.45,2,15.86,15.86,0,0,1-4.66.67,9.67,9.67,0,0,1-4-.81,8.83,8.83,0,0,1-3.06-2.24,10.51,10.51,0,0,1-2-3.38,12.72,12.72,0,0,1-.7-4.28,49,49,0,0,1,2-12.28c.74-2.52,1.41-4.94,2-7.24s1.11-4.45,1.54-6.41.77-3.7,1-5.24a24.54,24.54,0,0,0,.38-3.81c0-2.4-.46-4.17-1.37-5.29a5.17,5.17,0,0,0-4.28-1.69,9.29,9.29,0,0,0-3.84.93,19.21,19.21,0,0,0-4.1,2.59,31,31,0,0,0-4.05,3.93,39.76,39.76,0,0,0-3.66,4.92,42.27,42.27,0,0,0-3,5.55,32.44,32.44,0,0,0-2,5.88Zm110.17-12.4a53.77,53.77,0,0,1-13.47,10.07,31.81,31.81,0,0,1-14.47,3.37,22.22,22.22,0,0,1-8.06-1.36,15.77,15.77,0,0,1-5.93-4,17.3,17.3,0,0,1-3.67-6.38,26.49,26.49,0,0,1-1.25-8.46,42.65,42.65,0,0,1,.58-6.9,44.68,44.68,0,0,1,1.8-7.16,48.88,48.88,0,0,1,3-7,37.78,37.78,0,0,1,4.25-6.37,34.86,34.86,0,0,1,11.79-9.46,33.47,33.47,0,0,1,15-3.4q7.45,0,11.32,3.26t3.87,9.25q0,21.07-39.87,21.07c-.19,1-.35,2.11-.46,3.29a38.42,38.42,0,0,0-.18,3.87c0,4.23.87,7.32,2.59,9.26s4.42,2.91,8.06,2.91a23.69,23.69,0,0,0,5.42-.61,21.87,21.87,0,0,0,5-1.9,29.89,29.89,0,0,0,5-3.29,57.92,57.92,0,0,0,5.24-4.8Zm-33.87-19.09a65.89,65.89,0,0,0,12.72-1.17,30.28,30.28,0,0,0,8.73-3,13.5,13.5,0,0,0,5-4.54,10.84,10.84,0,0,0,1.6-5.77,8.23,8.23,0,0,0-1.8-5.64,6.62,6.62,0,0,0-5.24-2,13.9,13.9,0,0,0-6.32,1.57,21.86,21.86,0,0,0-5.87,4.45,32.86,32.86,0,0,0-5,7A46.28,46.28,0,0,0,251.41,309.11Z"/><path d="M351.94,320.51a53,53,0,0,0-1.08,5.48,27.91,27.91,0,0,0-.26,3.66,4.67,4.67,0,0,0,.9,3.2,3.32,3.32,0,0,0,2.59,1,5.47,5.47,0,0,0,2.06-.4,10.92,10.92,0,0,0,2.22-1.28,28.35,28.35,0,0,0,2.62-2.25c.95-.91,2-2,3.23-3.28q.93,1,1.92,1.95l1.92,1.89c-1.94,2-3.71,3.67-5.3,5.09a31.73,31.73,0,0,1-4.63,3.49,17.61,17.61,0,0,1-4.39,2,16.26,16.26,0,0,1-4.48.61,8.14,8.14,0,0,1-6.52-2.7,11,11,0,0,1-2.33-7.42,15.21,15.21,0,0,1,.82-5l-.82-.35a64.54,64.54,0,0,1-5.76,7,37.36,37.36,0,0,1-5.53,4.81,20.57,20.57,0,0,1-5.53,2.76,19.44,19.44,0,0,1-5.82.87q-6.93,0-10.71-5t-3.78-14.47a48.18,48.18,0,0,1,1.19-10.85,46.82,46.82,0,0,1,3.37-9.78,42.51,42.51,0,0,1,5.21-8.32,36.31,36.31,0,0,1,6.64-6.44,30.35,30.35,0,0,1,7.68-4.16,24.47,24.47,0,0,1,8.44-1.48,31,31,0,0,1,7.05.75,16,16,0,0,1,6.11,3q1-3.66,1.57-6.26t1-4.77a22.26,22.26,0,0,0,.38-3.64,5.65,5.65,0,0,0-.32-2,2.83,2.83,0,0,0-1.14-1.34,6.06,6.06,0,0,0-2.3-.76c-1-.15-2.24-.27-3.75-.35l.76-4,17.34-.7h3Zm-7.86-12.86q.63-3.13,1.16-6.29a35.12,35.12,0,0,0,.53-5.76q0-4.71-2.13-6.69t-6.78-2a13.91,13.91,0,0,0-6.37,1.48,19.44,19.44,0,0,0-5.39,4.08,30.55,30.55,0,0,0-4.36,6,42.33,42.33,0,0,0-3.23,7.28,48.81,48.81,0,0,0-2,7.92,47.74,47.74,0,0,0-.67,7.88c0,4.19.59,7.31,1.77,9.34a6.14,6.14,0,0,0,5.74,3.06,12.47,12.47,0,0,0,5.93-1.8,24.76,24.76,0,0,0,6.32-5.21,40.5,40.5,0,0,0,5.62-8.3A42.71,42.71,0,0,0,344.08,307.65Z"/><text class="cls-1" transform="translate(375.45 340.6)">−</text><path d="M493,312.54q-1-4.89-1.84-8.5c-.52-2.4-1-4.47-1.45-6.2a40.75,40.75,0,0,0-1.31-4.22,13.44,13.44,0,0,0-1.31-2.59,4.12,4.12,0,0,0-1.46-1.36,4.34,4.34,0,0,0-1.83-.47,5.17,5.17,0,0,0-1.83.32,5.44,5.44,0,0,0-1.75,1.14,15.61,15.61,0,0,0-2,2.27q-1.08,1.45-2.47,3.78l-4.49-2.91c1.6-2.37,3-4.37,4.31-6a22.46,22.46,0,0,1,3.79-3.9,12.33,12.33,0,0,1,3.92-2.09,16,16,0,0,1,4.75-.64,9.1,9.1,0,0,1,5.24,1.39,10.56,10.56,0,0,1,3.37,4.08,28.84,28.84,0,0,1,2.21,6.61q.89,3.92,1.87,9h.75l6.06-8c1.7-2.25,3.23-4.15,4.57-5.7a44.12,44.12,0,0,1,3.6-3.78,14.88,14.88,0,0,1,3.12-2.24,10.66,10.66,0,0,1,3.11-1.08,19.58,19.58,0,0,1,3.58-.29,13,13,0,0,1,5.3,1.05L528,293.68h-4.83c-.12-1.67-.74-2.5-1.87-2.5a4.91,4.91,0,0,0-1.39.23,7.61,7.61,0,0,0-1.81.93,21.51,21.51,0,0,0-2.41,2c-.91.84-2,1.92-3.23,3.26s-2.66,3-4.25,4.92-3.42,4.23-5.47,6.87c1,5.35,1.95,9.64,2.7,12.86a51.88,51.88,0,0,0,2.19,7.39,8,8,0,0,0,2.09,3.35,3.86,3.86,0,0,0,2.39.79,6.64,6.64,0,0,0,1.83-.24,4.56,4.56,0,0,0,1.75-1,15.17,15.17,0,0,0,2-2.27c.73-1,1.61-2.3,2.62-3.93l4.36,2.85c-1.71,2.56-3.22,4.66-4.54,6.28a22.47,22.47,0,0,1-3.84,3.85,10.74,10.74,0,0,1-3.84,1.89,18.85,18.85,0,0,1-4.54.49,11.85,11.85,0,0,1-4-.61,6.66,6.66,0,0,1-3-2.24,10.9,10.9,0,0,1-1.63-2.65,35.18,35.18,0,0,1-1.39-3.58c-.43-1.28-.82-2.61-1.17-4s-.64-2.67-.87-3.87-.42-2.28-.55-3.24-.23-1.65-.27-2.12h-.64q-3.48,4.66-6.08,8.12t-4.68,5.94a51.84,51.84,0,0,1-3.79,4.07,17.11,17.11,0,0,1-3.32,2.53,11.13,11.13,0,0,1-3.34,1.28,18.71,18.71,0,0,1-3.81.35,11.84,11.84,0,0,1-5.18-1l2.67-11.35h4.95c.12,1.7.76,2.56,1.92,2.56a6.57,6.57,0,0,0,1.25-.24,5,5,0,0,0,1.43-.72,17.09,17.09,0,0,0,2.06-1.75c.84-.8,1.9-1.9,3.18-3.32s2.85-3.19,4.71-5.32S490.42,315.68,493,312.54Z"/><text class="cls-2" transform="translate(588.1 307.08)">=</text><text class="cls-2" transform="translate(756.69 307.08)"> </text><text class="cls-2" transform="translate(820.96 182.33)">∆</text><path d="M955.07,124.8q7.89-10.71,15.17-15.69a25.9,25.9,0,0,1,14.77-5,45.9,45.9,0,0,1,9.82.88L991,123h-8.29a18.49,18.49,0,0,0-1.36-5.23,5.79,5.79,0,0,0-2.1-2.58,5.86,5.86,0,0,0-3.05-.72,11,11,0,0,0-6.32,2.49,43.42,43.42,0,0,0-7.68,7.81,61.52,61.52,0,0,0-6.8,10.22,52.42,52.42,0,0,0-4.23,12.47l-7.64,34.84H929.57l11.66-51a74.55,74.55,0,0,0,1.45-7.49,36.67,36.67,0,0,0,.32-4.42,8.19,8.19,0,0,0-1-4.67,3.79,3.79,0,0,0-3.3-1.45,9.05,9.05,0,0,0-5.27,2,57.75,57.75,0,0,0-7.61,7.45l-4.58-4.51q7.39-7.73,12.39-11a19.66,19.66,0,0,1,11-3.26,10.11,10.11,0,0,1,8,3.34,12.7,12.7,0,0,1,2.94,8.73A24.52,24.52,0,0,1,954,124.4Z"/><text class="cls-2" transform="translate(937.97 182.33)">⃗</text><text class="cls-2" transform="translate(827.61 417.51)">∆</text><path d="M981.92,402.29q-7,8.46-13.48,12.48a25.34,25.34,0,0,1-13.56,4q-16.82,0-16.82-17a50.89,50.89,0,0,1,1.37-11.35l9.5-41.76H935.41l1.21-5.55a32.19,32.19,0,0,0,7.2-.73,12.78,12.78,0,0,0,4.1-1.77,11.3,11.3,0,0,0,3-3.21,29.7,29.7,0,0,0,2.65-5.36q1.29-3.25,3.87-11.38h11.1l-4.42,19.87H988.6l-1.77,8.13H962.37l-7.17,31.22c-1.39,6.07-2.28,10.42-2.65,13.08a47.38,47.38,0,0,0-.57,6.4q0,10,8.29,10a13.58,13.58,0,0,0,7.53-2.69,50.75,50.75,0,0,0,9.45-9.22Z"/><rect x="821.02" y="254.9" width="180.18" height="10.44"/><text class="cls-3" transform="translate(1028.66 307.08)"> </text><text class="cls-4" transform="translate(1074.31 307.08)"> </text><text class="cls-3" transform="translate(1119.96 307.08)">(velocidad</text><text class="cls-3" transform="translate(1872.15 307.08)"> </text><text class="cls-3" transform="translate(1917.59 307.08)">med<tspan class="cls-5" x="320.59" y="0">i</tspan><tspan x="356.87" y="0">a)</tspan></text><text class="cls-4" transform="translate(2420.72 307.08)"> </text></svg>