<svg id="Capa_1" data-name="Capa 1" xmlns="http://www.w3.org/2000/svg" viewBox="0 0 1517.16 716.97"><defs><style>.cls-1,.cls-2,.cls-6,.cls-7{font-size:105.65px;}.cls-1,.cls-6,.cls-9{font-family:CambriaMath, Cambria Math;}.cls-2,.cls-7{font-family:ArialMT, Arial;}.cls-3{letter-spacing:0em;}.cls-4{letter-spacing:0em;}.cls-5{letter-spacing:0em;}.cls-6,.cls-7,.cls-8,.cls-9{stroke:#000;stroke-miterlimit:10;}.cls-9{font-size:114.69px;stroke-width:2px;}.cls-10{font-size:91.95px;font-family:Cambria-BoldItalic, Cambria;font-weight:700;font-style:italic;}</style></defs><title>ultima</title><text class="cls-1" transform="translate(40.49 165.71)"> </text><path d="M72.55,149.66q0,6.3,2.92,9.37t9,3.07q7,0,11-3.82t4-10.63a13,13,0,0,0-1.11-5.54,15.72,15.72,0,0,0-3.35-4.6,47.76,47.76,0,0,0-6.47-5,43.48,43.48,0,0,1-6.35-5.08,20.06,20.06,0,0,1-4-5.59,15.68,15.68,0,0,1-1.5-6.92,19.66,19.66,0,0,1,2.94-10.73A19.35,19.35,0,0,1,88,97a28.78,28.78,0,0,1,12.38-2.53,56,56,0,0,1,8.79.65,62.82,62.82,0,0,1,8.95,2.19l-2.88,13.26h-5a19.06,19.06,0,0,0-1.34-6.89,7.15,7.15,0,0,0-3.25-3.58A12.4,12.4,0,0,0,100.05,99a15.57,15.57,0,0,0-7.53,1.76,12.21,12.21,0,0,0-5,4.77,13.52,13.52,0,0,0-1.7,6.73,11.57,11.57,0,0,0,2,6.79q2,2.91,7.82,6.88a52.35,52.35,0,0,1,7.71,6.27,18.54,18.54,0,0,1,3.92,5.86,18.89,18.89,0,0,1,1.26,7.17,20.73,20.73,0,0,1-3,11.17,19.9,19.9,0,0,1-8.51,7.53,28.38,28.38,0,0,1-12.51,2.65,73.16,73.16,0,0,1-10.24-.77,79.92,79.92,0,0,1-9.82-2l3.09-14.19Zm90.36,5.78a39.41,39.41,0,0,1-10.14,8.31,24.71,24.71,0,0,1-11.94,2.78q-7.49,0-11.58-4.56t-4.11-12.72a39.73,39.73,0,0,1,2-11.84,34.67,34.67,0,0,1,6-11.35,28.1,28.1,0,0,1,9.65-7.79,26.82,26.82,0,0,1,12-2.76c4.16,0,7.28.85,9.36,2.53s3.12,4.32,3.12,7.89q0,8.77-8.23,13.16t-24.43,4.38a34.51,34.51,0,0,0-.61,6.71q0,5.41,2.11,7.87c1.41,1.63,3.72,2.45,6.91,2.45a17.8,17.8,0,0,0,8.59-2.07,36,36,0,0,0,8.13-6.34Zm-27.45-16.35A55.24,55.24,0,0,0,148,137.77a16.69,16.69,0,0,0,8-4,10,10,0,0,0,2.79-7.46,7.5,7.5,0,0,0-1.47-4.92,5.33,5.33,0,0,0-4.36-1.78q-5.22,0-10,5.26T135.46,139.09ZM186.32,133a36.82,36.82,0,0,0,1.14-7.63,5.19,5.19,0,0,0-.68-3,2.42,2.42,0,0,0-2.11-.93,5.76,5.76,0,0,0-3.38,1.32,37.06,37.06,0,0,0-4.87,4.77l-2.95-2.89a51.28,51.28,0,0,1,7.9-7,12.61,12.61,0,0,1,7.12-2.09,6.52,6.52,0,0,1,5.13,2.14,8.21,8.21,0,0,1,1.88,5.6,17.7,17.7,0,0,1-1.24,6.09l.62.2A48,48,0,0,1,204.5,119a15.58,15.58,0,0,1,9.42-3.43q4.8,0,7.38,2.76c1.72,1.84,2.58,4.4,2.58,7.66a41.11,41.11,0,0,1-1.5,9.24L219,148.73a38.86,38.86,0,0,0-1.4,8,5.26,5.26,0,0,0,.67,3,2.45,2.45,0,0,0,2.12.93,5.75,5.75,0,0,0,3.3-1.26,36.27,36.27,0,0,0,4.95-4.83l2.94,2.89a46.08,46.08,0,0,1-7.73,6.94,13.36,13.36,0,0,1-7.54,2.19,6.64,6.64,0,0,1-5.36-2.4,9.18,9.18,0,0,1-2-6.11,42.36,42.36,0,0,1,1.7-9.85l2.27-8.93c.82-3.23,1.37-5.62,1.62-7.17a23.77,23.77,0,0,0,.39-3.76c0-2.38-.39-4.09-1.19-5.14a4.52,4.52,0,0,0-3.86-1.57,8.35,8.35,0,0,0-4.67,1.73,26.7,26.7,0,0,0-5.32,5.21,40.52,40.52,0,0,0-4.51,6.76,33.68,33.68,0,0,0-2.79,8.07l-4.9,22.34h-8.92Z"/><text class="cls-1" transform="translate(232.77 165.71)"> </text><text class="cls-1" transform="translate(256.01 165.71)">30°</text><text class="cls-1" transform="translate(441.96 165.71)">=</text><path d="M569.81,85.74c-.44-2.09-.84-3.91-1.17-5.45s-.65-2.87-.94-4a24,24,0,0,0-.83-2.71A9.06,9.06,0,0,0,566,72a2.76,2.76,0,0,0-.94-.88,2.8,2.8,0,0,0-1.17-.29,3.44,3.44,0,0,0-1.18.2,3.74,3.74,0,0,0-1.12.73,10.44,10.44,0,0,0-1.27,1.45c-.46.63-1,1.44-1.58,2.43l-2.88-1.87c1-1.51,2-2.79,2.77-3.84a14.51,14.51,0,0,1,2.42-2.5A7.89,7.89,0,0,1,563.6,66a10.08,10.08,0,0,1,3-.41,5.87,5.87,0,0,1,3.36.89,6.74,6.74,0,0,1,2.16,2.61,18.11,18.11,0,0,1,1.42,4.24q.55,2.52,1.2,5.76h.48c1.49-2,2.79-3.66,3.88-5.11s2.07-2.66,2.93-3.65a28.32,28.32,0,0,1,2.31-2.43,9.93,9.93,0,0,1,2-1.44,7.42,7.42,0,0,1,2-.69,13.3,13.3,0,0,1,2.29-.18,8.32,8.32,0,0,1,3.4.67l-1.87,7.35h-3.1c-.07-1.07-.47-1.6-1.19-1.6a3.47,3.47,0,0,0-.9.14,4.74,4.74,0,0,0-1.15.6A13.47,13.47,0,0,0,584.31,74c-.59.54-1.28,1.23-2.07,2.09s-1.71,1.91-2.73,3.15S577.33,82,576,83.69q1,5.15,1.73,8.24a33.37,33.37,0,0,0,1.4,4.74,5.31,5.31,0,0,0,1.34,2.15,2.53,2.53,0,0,0,1.53.5,4.38,4.38,0,0,0,1.18-.15,2.92,2.92,0,0,0,1.12-.65,9.55,9.55,0,0,0,1.29-1.46c.47-.63,1-1.47,1.68-2.51l2.79,1.82q-1.64,2.47-2.91,4a14,14,0,0,1-2.46,2.47,7,7,0,0,1-2.46,1.21,12.17,12.17,0,0,1-2.91.32,7.44,7.44,0,0,1-2.54-.4,4.18,4.18,0,0,1-1.94-1.43,6.81,6.81,0,0,1-1-1.7,21,21,0,0,1-.9-2.29c-.27-.83-.52-1.68-.75-2.56s-.41-1.71-.56-2.48-.26-1.46-.35-2.07-.14-1.07-.17-1.36h-.41l-3.9,5.2q-1.66,2.22-3,3.81t-2.43,2.61a11.62,11.62,0,0,1-2.12,1.62,7.27,7.27,0,0,1-2.15.82,12.19,12.19,0,0,1-2.44.23,7.66,7.66,0,0,1-3.33-.67L553,96.45h3.17c.08,1.09.49,1.64,1.23,1.64a3.62,3.62,0,0,0,.81-.15,3.16,3.16,0,0,0,.91-.47,10.54,10.54,0,0,0,1.33-1.11c.53-.51,1.21-1.22,2-2.13s1.83-2,3-3.42S568.15,87.75,569.81,85.74Z"/><path d="M583.9,191a7.56,7.56,0,0,0-2.22-5q-1.8-1.61-5.61-1.61a9.55,9.55,0,0,0-2.84.41A7.38,7.38,0,0,0,571,186a5.26,5.26,0,0,0-1.45,1.74,4.67,4.67,0,0,0-.52,2.2,6.76,6.76,0,0,0,.26,2,4.51,4.51,0,0,0,1,1.76,11.16,11.16,0,0,0,2.17,1.79c.93.62,2.16,1.33,3.67,2.13a32.92,32.92,0,0,1,4,2.5,13,13,0,0,1,2.52,2.42,7.61,7.61,0,0,1,1.3,2.63,12.08,12.08,0,0,1,.37,3.12,10,10,0,0,1-4.1,8.32,14.34,14.34,0,0,1-4.57,2.24,20.23,20.23,0,0,1-5.77.78,50.24,50.24,0,0,1-6.75-.45,45.58,45.58,0,0,1-7-1.53l1.94-8.5h3.24a7.07,7.07,0,0,0,2.18,5.2c1.34,1.16,3.39,1.74,6.18,1.74a9.61,9.61,0,0,0,5.88-1.61,5.27,5.27,0,0,0,2.14-4.48,8.28,8.28,0,0,0-.26-2.25,4.52,4.52,0,0,0-1-1.81,11.94,11.94,0,0,0-2.09-1.77c-.89-.61-2-1.32-3.46-2.11a32.78,32.78,0,0,1-3.78-2.43,15.54,15.54,0,0,1-2.62-2.42,8.88,8.88,0,0,1-1.51-2.58,8.43,8.43,0,0,1-.48-2.87,9.65,9.65,0,0,1,1-4.35,10.22,10.22,0,0,1,2.81-3.45,13.72,13.72,0,0,1,4.41-2.28,19.16,19.16,0,0,1,5.78-.82,45.7,45.7,0,0,1,6.66.45,41.29,41.29,0,0,1,5.92,1.31L587.23,191Z"/><rect x="550.07" y="132.25" width="47.19" height="6.69"/><text class="cls-2" transform="translate(597.62 165.71)"><tspan xml:space="preserve">  </tspan></text><text class="cls-2" transform="translate(579.92 165.71)"><tspan xml:space="preserve">  </tspan><tspan class="cls-3" x="58.71" y="0"> </tspan><tspan x="88.27" y="0" xml:space="preserve">  </tspan><tspan class="cls-3" x="146.98" y="0"> </tspan><tspan x="176.54" y="0" xml:space="preserve">  </tspan></text><text class="cls-2" transform="translate(814.78 165.71)"><tspan xml:space="preserve">x= Sen 30*(s)    </tspan><tspan class="cls-4" x="760.44" y="0"> </tspan><tspan x="790.01" y="0" xml:space="preserve">  </tspan><tspan class="cls-5" x="848.71" y="0"> </tspan><tspan x="878.28" y="0" xml:space="preserve">  </tspan><tspan class="cls-5" x="936.98" y="0"> </tspan><tspan x="966.55" y="0"> </tspan><tspan class="cls-4" x="995.9" y="0"> </tspan><tspan x="1025.47" y="0" xml:space="preserve">  </tspan></text><text class="cls-2" transform="translate(38.8 366.09)"> </text><path d="M103.93,291.23a35,35,0,0,0-.69,3.51,19.08,19.08,0,0,0-.17,2.35,3,3,0,0,0,.58,2.06,2.13,2.13,0,0,0,1.66.63,3.57,3.57,0,0,0,1.32-.26,6.91,6.91,0,0,0,1.42-.82,17.22,17.22,0,0,0,1.68-1.44c.61-.58,1.3-1.29,2.07-2.11.4.43.81.84,1.23,1.25s.84.82,1.23,1.22q-1.86,1.89-3.39,3.26a20.28,20.28,0,0,1-3,2.24,11.61,11.61,0,0,1-2.82,1.27,10.47,10.47,0,0,1-2.87.39A5.22,5.22,0,0,1,98,303a7.06,7.06,0,0,1-1.49-4.75,9.82,9.82,0,0,1,.52-3.21l-.52-.23a41.45,41.45,0,0,1-3.69,4.52,24.13,24.13,0,0,1-3.55,3.08,13,13,0,0,1-3.54,1.77,12.59,12.59,0,0,1-3.74.56,8.1,8.1,0,0,1-6.86-3.19q-2.43-3.19-2.43-9.27a31,31,0,0,1,.77-7,30.11,30.11,0,0,1,2.16-6.27A27.81,27.81,0,0,1,79,273.75a23.3,23.3,0,0,1,4.26-4.12A19.63,19.63,0,0,1,88.18,267a15.8,15.8,0,0,1,5.41-.95,19.9,19.9,0,0,1,4.52.48,10.38,10.38,0,0,1,3.92,1.95c.42-1.57.75-2.91,1-4s.46-2.12.62-3.06a14.22,14.22,0,0,0,.24-2.33,3.7,3.7,0,0,0-.2-1.3,1.78,1.78,0,0,0-.73-.86,3.77,3.77,0,0,0-1.48-.49,23.71,23.71,0,0,0-2.4-.22l.48-2.54,11.12-.45h1.91Zm-5-8.24c.27-1.35.52-2.69.75-4a23.13,23.13,0,0,0,.33-3.7c0-2-.45-3.44-1.36-4.29a6.28,6.28,0,0,0-4.35-1.27,8.85,8.85,0,0,0-4.08,1,12.19,12.19,0,0,0-3.45,2.61,19.27,19.27,0,0,0-2.8,3.84,27.34,27.34,0,0,0-2.07,4.67,31.34,31.34,0,0,0-1.27,5.07,30.51,30.51,0,0,0-.43,5.06,12.28,12.28,0,0,0,1.14,6,3.93,3.93,0,0,0,3.67,2,8,8,0,0,0,3.81-1.15,16,16,0,0,0,4-3.34,26.55,26.55,0,0,0,3.6-5.32A27.38,27.38,0,0,0,98.89,283Z"/><path d="M136.61,286.12c-.45-2.09-.84-3.9-1.18-5.45s-.65-2.86-.93-4a25,25,0,0,0-.84-2.7,9.19,9.19,0,0,0-.84-1.67,2.69,2.69,0,0,0-.93-.87,2.74,2.74,0,0,0-1.18-.3,3.48,3.48,0,0,0-1.18.2,3.59,3.59,0,0,0-1.11.73,10,10,0,0,0-1.27,1.46c-.46.62-1,1.43-1.59,2.42l-2.87-1.86q1.53-2.28,2.76-3.85a15.29,15.29,0,0,1,2.42-2.5,7.89,7.89,0,0,1,2.52-1.34,10.45,10.45,0,0,1,3-.41,5.79,5.79,0,0,1,3.36.9,6.7,6.7,0,0,1,2.17,2.61,18.35,18.35,0,0,1,1.41,4.23q.57,2.52,1.2,5.77h.48l3.88-5.11q1.65-2.18,2.93-3.66a28.2,28.2,0,0,1,2.32-2.43,9.44,9.44,0,0,1,2-1.43,6.89,6.89,0,0,1,2-.69,12.32,12.32,0,0,1,2.29-.19,8.32,8.32,0,0,1,3.4.67L159,274H155.9c-.08-1.07-.48-1.6-1.2-1.6a3,3,0,0,0-.89.15,4.87,4.87,0,0,0-1.16.59,14.39,14.39,0,0,0-1.55,1.25c-.58.54-1.27,1.24-2.07,2.09s-1.7,1.91-2.72,3.16-2.19,2.71-3.51,4.4q1,5.15,1.74,8.25a34.44,34.44,0,0,0,1.39,4.74,5.15,5.15,0,0,0,1.35,2.14,2.46,2.46,0,0,0,1.53.5,4.37,4.37,0,0,0,1.17-.14,2.88,2.88,0,0,0,1.12-.66,8.92,8.92,0,0,0,1.29-1.45q.71-1,1.68-2.52l2.8,1.83q-1.65,2.46-2.91,4a14.62,14.62,0,0,1-2.47,2.46,6.72,6.72,0,0,1-2.46,1.21,12,12,0,0,1-2.91.32,7.74,7.74,0,0,1-2.54-.39,4.25,4.25,0,0,1-1.94-1.44,6.81,6.81,0,0,1-1-1.7,23.26,23.26,0,0,1-.9-2.29c-.27-.82-.52-1.67-.74-2.56s-.41-1.71-.56-2.48-.27-1.46-.36-2.07-.14-1.06-.17-1.36h-.41l-3.9,5.2q-1.65,2.22-3,3.81a31.39,31.39,0,0,1-2.42,2.61,11.13,11.13,0,0,1-2.13,1.62,7.19,7.19,0,0,1-2.15.83,12.22,12.22,0,0,1-2.44.22,7.47,7.47,0,0,1-3.32-.67l1.71-7.28H123c.07,1.1.48,1.64,1.23,1.64a3.64,3.64,0,0,0,.8-.15,3.23,3.23,0,0,0,.91-.46,11.77,11.77,0,0,0,1.33-1.12c.53-.51,1.21-1.22,2-2.13s1.83-2,3-3.41S134.94,288.14,136.61,286.12Z"/><path d="M109.58,406.4a35,35,0,0,0-.69,3.51,19,19,0,0,0-.17,2.35,3,3,0,0,0,.58,2.05,2.15,2.15,0,0,0,1.66.63,3.46,3.46,0,0,0,1.33-.26,6.31,6.31,0,0,0,1.42-.82,17,17,0,0,0,1.68-1.43c.6-.59,1.3-1.29,2.07-2.11.39.42.8.84,1.23,1.25l1.23,1.21c-1.24,1.27-2.38,2.36-3.4,3.27a21.43,21.43,0,0,1-3,2.23,11.24,11.24,0,0,1-2.82,1.27,10.53,10.53,0,0,1-2.87.4,5.21,5.21,0,0,1-4.18-1.74,7,7,0,0,1-1.5-4.76,9.82,9.82,0,0,1,.53-3.21l-.53-.22a40.13,40.13,0,0,1-3.69,4.51A23.5,23.5,0,0,1,95,417.61a13.28,13.28,0,0,1-3.55,1.78,12.53,12.53,0,0,1-3.73.56,8.13,8.13,0,0,1-6.87-3.2q-2.41-3.18-2.42-9.27a31.13,31.13,0,0,1,.76-7,30,30,0,0,1,2.17-6.27,26.5,26.5,0,0,1,3.34-5.33,23.31,23.31,0,0,1,4.25-4.13,19.17,19.17,0,0,1,4.93-2.66,15.53,15.53,0,0,1,5.41-.95,19.81,19.81,0,0,1,4.51.48,10.07,10.07,0,0,1,3.92,1.94c.42-1.57.76-2.9,1-4s.45-2.13.61-3.06a14.39,14.39,0,0,0,.25-2.33,3.56,3.56,0,0,0-.21-1.31,1.83,1.83,0,0,0-.73-.86,4,4,0,0,0-1.47-.48,23.86,23.86,0,0,0-2.41-.23l.49-2.53,11.12-.45h1.9Zm-5-8.25c.27-1.34.52-2.68.74-4a21.9,21.9,0,0,0,.34-3.69c0-2-.46-3.45-1.36-4.29a6.23,6.23,0,0,0-4.35-1.27,9,9,0,0,0-4.09.95,12.88,12.88,0,0,0-3.45,2.61,19.74,19.74,0,0,0-2.8,3.85,27.24,27.24,0,0,0-2.07,4.66A32.82,32.82,0,0,0,86.24,402a31.5,31.5,0,0,0-.43,5.05,12.26,12.26,0,0,0,1.14,6,3.93,3.93,0,0,0,3.68,2,8,8,0,0,0,3.8-1.16,15.49,15.49,0,0,0,4-3.34,25.39,25.39,0,0,0,3.6-5.31A27,27,0,0,0,104.55,398.15Z"/><path d="M151.4,412.07a38.53,38.53,0,0,1-3.62,3.62,22,22,0,0,1-3.35,2.45,13.84,13.84,0,0,1-3.25,1.38,12.89,12.89,0,0,1-3.28.43q-4.44,0-6.63-2.09t-2.18-6.16a24.29,24.29,0,0,1,.21-3,27.53,27.53,0,0,1,.57-3.23l4.44-19.33H127.9l.74-2.87a11.36,11.36,0,0,0,3.49-.43,6.33,6.33,0,0,0,2.11-1.18,7.9,7.9,0,0,0,1.08-1.28,14.51,14.51,0,0,0,1.05-1.85c.34-.72.7-1.57,1.06-2.56s.76-2.13,1.21-3.45h5.82L142.34,382H155l-.85,4.14H141.52l-3.81,15.64c-.25,1-.45,2-.62,2.81s-.29,1.59-.39,2.26-.17,1.28-.2,1.83-.06,1.06-.06,1.53a5.85,5.85,0,0,0,.93,3.51,3.58,3.58,0,0,0,3.06,1.26,7,7,0,0,0,3.81-1.32,25.68,25.68,0,0,0,4.59-4.16Z"/><rect x="67.96" y="332.63" width="95.79" height="6.69"/><text class="cls-1" transform="translate(193.33 366.09)">=</text><text class="cls-1" transform="translate(488.75 569.72)">=</text><path d="M310.23,350.05q0,6.29,2.91,9.36t9,3.07q7,0,11-3.82t4-10.63a13.08,13.08,0,0,0-1.11-5.54,15.74,15.74,0,0,0-3.35-4.59,47.16,47.16,0,0,0-6.48-5,44.72,44.72,0,0,1-6.34-5.08,20.29,20.29,0,0,1-4-5.6,15.77,15.77,0,0,1-1.49-6.91,19.61,19.61,0,0,1,2.94-10.73,19.24,19.24,0,0,1,8.3-7.17A28.71,28.71,0,0,1,338,294.85a56,56,0,0,1,8.79.64,61.94,61.94,0,0,1,8.95,2.2l-2.89,13.25h-4.95a19.39,19.39,0,0,0-1.34-6.88,7.18,7.18,0,0,0-3.25-3.59,12.44,12.44,0,0,0-5.62-1.08,15.63,15.63,0,0,0-7.54,1.75,12.24,12.24,0,0,0-4.95,4.77,13.55,13.55,0,0,0-1.7,6.74,11.53,11.53,0,0,0,2,6.78q2,2.91,7.81,6.89a52.38,52.38,0,0,1,7.71,6.26,18.69,18.69,0,0,1,3.93,5.86,18.89,18.89,0,0,1,1.26,7.17,20.79,20.79,0,0,1-3,11.17,20,20,0,0,1-8.51,7.53A28.38,28.38,0,0,1,322.25,367a73,73,0,0,1-10.24-.78,78.63,78.63,0,0,1-9.83-2l3.1-14.18Zm90.35,5.77a39.21,39.21,0,0,1-10.13,8.31,24.67,24.67,0,0,1-11.95,2.78q-7.47,0-11.58-4.56t-4.1-12.72a39.46,39.46,0,0,1,2-11.84,34.48,34.48,0,0,1,6-11.35,28,28,0,0,1,9.64-7.78,26.82,26.82,0,0,1,12-2.76q6.24,0,9.37,2.52t3.12,7.9q0,8.76-8.23,13.15t-24.43,4.39a34.3,34.3,0,0,0-.62,6.7c0,3.61.71,6.24,2.12,7.87s3.71,2.45,6.91,2.45a17.94,17.94,0,0,0,8.59-2.06,35.82,35.82,0,0,0,8.12-6.35Zm-27.44-16.35a55.13,55.13,0,0,0,12.48-1.31,16.77,16.77,0,0,0,8-4,10,10,0,0,0,2.78-7.45,7.53,7.53,0,0,0-1.47-4.93,5.31,5.31,0,0,0-4.36-1.78q-5.2,0-10,5.26T373.14,339.47ZM424,333.38a37.26,37.26,0,0,0,1.13-7.63,5.16,5.16,0,0,0-.67-3,2.43,2.43,0,0,0-2.11-.93,5.78,5.78,0,0,0-3.38,1.31,37.18,37.18,0,0,0-4.88,4.78L411.15,325a52,52,0,0,1,7.89-7,12.6,12.6,0,0,1,7.12-2.08A6.49,6.49,0,0,1,431.3,318a8.16,8.16,0,0,1,1.88,5.59,17.61,17.61,0,0,1-1.24,6.09l.62.21a47.78,47.78,0,0,1,9.62-10.55A15.48,15.48,0,0,1,451.6,316q4.78,0,7.37,2.76t2.58,7.66a41.57,41.57,0,0,1-1.49,9.23l-3.36,13.52a38.57,38.57,0,0,0-1.39,7.94,5.16,5.16,0,0,0,.67,3,2.43,2.43,0,0,0,2.12.93,5.75,5.75,0,0,0,3.3-1.26,36,36,0,0,0,5-4.82l2.94,2.88a46.48,46.48,0,0,1-7.74,6.94,13.31,13.31,0,0,1-7.53,2.19,6.62,6.62,0,0,1-5.36-2.39,9.16,9.16,0,0,1-2-6.12,42.5,42.5,0,0,1,1.71-9.85l2.27-8.92q1.23-4.86,1.62-7.18a23.66,23.66,0,0,0,.39-3.76q0-3.56-1.19-5.13a4.53,4.53,0,0,0-3.87-1.58,8.4,8.4,0,0,0-4.67,1.73,26.42,26.42,0,0,0-5.31,5.21,40.93,40.93,0,0,0-4.51,6.76,33.24,33.24,0,0,0-2.79,8.07l-4.9,22.34h-8.92Z"/><text class="cls-1" transform="translate(470.45 366.09)">30</text><text class="cls-1" transform="translate(587.4 366.09)"> </text><text class="cls-1" transform="translate(610.65 366.09)">(</text><path d="M690.64,291.23a35,35,0,0,0-.69,3.51,19.08,19.08,0,0,0-.17,2.35,3,3,0,0,0,.58,2.06,2.13,2.13,0,0,0,1.66.63,3.57,3.57,0,0,0,1.32-.26,6.91,6.91,0,0,0,1.42-.82,17.22,17.22,0,0,0,1.68-1.44c.61-.58,1.3-1.29,2.07-2.11.4.43.81.84,1.23,1.25s.84.82,1.23,1.22q-1.86,1.89-3.39,3.26a20.28,20.28,0,0,1-3,2.24,11.55,11.55,0,0,1-2.81,1.27,10.59,10.59,0,0,1-2.88.39,5.22,5.22,0,0,1-4.18-1.74,7.06,7.06,0,0,1-1.49-4.75,9.82,9.82,0,0,1,.52-3.21l-.52-.23a41.45,41.45,0,0,1-3.69,4.52,24.13,24.13,0,0,1-3.55,3.08,13,13,0,0,1-3.54,1.77,12.59,12.59,0,0,1-3.74.56,8.1,8.1,0,0,1-6.86-3.19q-2.43-3.19-2.43-9.27a31,31,0,0,1,.77-7,30.11,30.11,0,0,1,2.16-6.27,27.81,27.81,0,0,1,3.34-5.34,23.3,23.3,0,0,1,4.26-4.12,19.63,19.63,0,0,1,4.92-2.67,15.8,15.8,0,0,1,5.41-.95,19.9,19.9,0,0,1,4.52.48,10.31,10.31,0,0,1,3.92,1.95c.42-1.57.75-2.91,1-4s.46-2.12.62-3.06a14.22,14.22,0,0,0,.24-2.33,3.7,3.7,0,0,0-.2-1.3,1.78,1.78,0,0,0-.73-.86,3.77,3.77,0,0,0-1.48-.49,23.71,23.71,0,0,0-2.4-.22l.48-2.54,11.12-.45h1.91Zm-5-8.24c.27-1.35.52-2.69.75-4a23.13,23.13,0,0,0,.33-3.7c0-2-.45-3.44-1.36-4.29A6.28,6.28,0,0,0,681,269.7a8.85,8.85,0,0,0-4.08,1,12.19,12.19,0,0,0-3.45,2.61,19.27,19.27,0,0,0-2.8,3.84,27.34,27.34,0,0,0-2.07,4.67,31.34,31.34,0,0,0-1.27,5.07,30.51,30.51,0,0,0-.43,5.06,12.28,12.28,0,0,0,1.14,6,3.93,3.93,0,0,0,3.67,2,8,8,0,0,0,3.81-1.15,16,16,0,0,0,4-3.34,26.55,26.55,0,0,0,3.6-5.32A27.38,27.38,0,0,0,685.6,283Z"/><path d="M733.2,276.2a7.58,7.58,0,0,0-2.22-5q-1.8-1.61-5.61-1.6a9.55,9.55,0,0,0-2.84.41,7,7,0,0,0-2.24,1.14,5.22,5.22,0,0,0-1.45,1.73,4.69,4.69,0,0,0-.52,2.2,6.78,6.78,0,0,0,.26,2,4.58,4.58,0,0,0,1,1.76,11.16,11.16,0,0,0,2.17,1.79,41.47,41.47,0,0,0,3.67,2.12,35.61,35.61,0,0,1,4,2.5,13.36,13.36,0,0,1,2.52,2.43,7.61,7.61,0,0,1,1.3,2.63,12,12,0,0,1,.37,3.12,10.07,10.07,0,0,1-4.1,8.32,14.55,14.55,0,0,1-4.57,2.24,20.23,20.23,0,0,1-5.77.78,50.24,50.24,0,0,1-6.75-.45,48.07,48.07,0,0,1-7-1.53l1.94-8.51h3.24a7.09,7.09,0,0,0,2.18,5.21c1.34,1.16,3.39,1.73,6.18,1.73a9.61,9.61,0,0,0,5.88-1.6,5.27,5.27,0,0,0,2.14-4.48,8.28,8.28,0,0,0-.26-2.25,4.41,4.41,0,0,0-1-1.81,11.54,11.54,0,0,0-2.09-1.78c-.89-.61-2-1.31-3.46-2.11a32.8,32.8,0,0,1-3.78-2.42,16,16,0,0,1-2.62-2.43,8.84,8.84,0,0,1-1.51-2.57,8.48,8.48,0,0,1-.48-2.87,9.65,9.65,0,0,1,1-4.35,10.22,10.22,0,0,1,2.81-3.45,13.72,13.72,0,0,1,4.41-2.28,18.86,18.86,0,0,1,5.78-.82,45.7,45.7,0,0,1,6.66.45,42.67,42.67,0,0,1,5.92,1.3l-1.79,8.44Z"/><path d="M692,406.4q-.51,2.21-.69,3.51a18.79,18.79,0,0,0-.16,2.35,3,3,0,0,0,.57,2.05,2.15,2.15,0,0,0,1.66.63,3.46,3.46,0,0,0,1.33-.26,6.31,6.31,0,0,0,1.42-.82,17,17,0,0,0,1.68-1.43c.61-.59,1.3-1.29,2.07-2.11.4.42.81.84,1.23,1.25l1.23,1.21c-1.24,1.27-2.38,2.36-3.4,3.27a20.85,20.85,0,0,1-3,2.23,11.24,11.24,0,0,1-2.82,1.27,10.53,10.53,0,0,1-2.87.4,5.21,5.21,0,0,1-4.18-1.74,7,7,0,0,1-1.49-4.76,9.82,9.82,0,0,1,.52-3.21l-.52-.22a40.13,40.13,0,0,1-3.7,4.51,23,23,0,0,1-3.54,3.08,13.28,13.28,0,0,1-3.55,1.78,12.53,12.53,0,0,1-3.73.56,8.13,8.13,0,0,1-6.87-3.2q-2.41-3.18-2.42-9.27a31.13,31.13,0,0,1,.76-7,30.53,30.53,0,0,1,2.17-6.27,26.5,26.5,0,0,1,3.34-5.33,23.31,23.31,0,0,1,4.25-4.13,19.34,19.34,0,0,1,4.93-2.66,15.53,15.53,0,0,1,5.41-.95,19.81,19.81,0,0,1,4.51.48,10.07,10.07,0,0,1,3.92,1.94c.42-1.57.76-2.9,1-4s.45-2.13.61-3.06a13.34,13.34,0,0,0,.25-2.33,3.56,3.56,0,0,0-.21-1.31A1.83,1.83,0,0,0,691,372a3.89,3.89,0,0,0-1.47-.48,23.56,23.56,0,0,0-2.41-.23l.49-2.53,11.12-.45h1.9Zm-5-8.25c.27-1.34.52-2.68.74-4a21.9,21.9,0,0,0,.34-3.69c0-2-.46-3.45-1.36-4.29a6.23,6.23,0,0,0-4.35-1.27,9,9,0,0,0-4.09.95,12.88,12.88,0,0,0-3.45,2.61,19.74,19.74,0,0,0-2.8,3.85,27.24,27.24,0,0,0-2.07,4.66,32.82,32.82,0,0,0-1.27,5.08,31.5,31.5,0,0,0-.43,5.05,12.26,12.26,0,0,0,1.14,6,3.93,3.93,0,0,0,3.68,2,8,8,0,0,0,3.8-1.16,15.49,15.49,0,0,0,4-3.34,25.39,25.39,0,0,0,3.6-5.31A27,27,0,0,0,687,398.15Z"/><path d="M733.84,412.07a41.08,41.08,0,0,1-3.62,3.62,22.56,22.56,0,0,1-3.36,2.45,13.84,13.84,0,0,1-3.25,1.38,12.89,12.89,0,0,1-3.28.43q-4.44,0-6.63-2.09t-2.18-6.16a24.29,24.29,0,0,1,.21-3,29.78,29.78,0,0,1,.57-3.23l4.44-19.33h-6.41l.74-2.87a11.32,11.32,0,0,0,3.49-.43,6.23,6.23,0,0,0,2.11-1.18,7.9,7.9,0,0,0,1.08-1.28,14.51,14.51,0,0,0,1-1.85,27.1,27.1,0,0,0,1.06-2.56c.36-1,.77-2.13,1.21-3.45h5.82L724.77,382h12.68l-.85,4.14H724l-3.81,15.64c-.25,1-.45,2-.62,2.81s-.29,1.59-.39,2.26-.16,1.28-.2,1.83-.06,1.06-.06,1.53a5.85,5.85,0,0,0,.93,3.51,3.58,3.58,0,0,0,3.06,1.26,7,7,0,0,0,3.81-1.32,25.68,25.68,0,0,0,4.59-4.16Z"/><rect x="654.67" y="332.63" width="87.34" height="6.69"/><text class="cls-1" transform="translate(742 366.09)">)</text><text class="cls-2" transform="translate(785.64 366.09)"> </text><text class="cls-6" transform="translate(344.13 371.26)"> </text><text class="cls-7" transform="translate(342.44 571.63)"> </text><path class="cls-8" d="M407.57,496.78a35,35,0,0,0-.69,3.51,19.08,19.08,0,0,0-.17,2.35,3,3,0,0,0,.58,2.05,2.12,2.12,0,0,0,1.66.64,3.66,3.66,0,0,0,1.33-.26,7.18,7.18,0,0,0,1.42-.82,18.73,18.73,0,0,0,1.68-1.44c.6-.58,1.29-1.29,2.07-2.11.39.42.8.84,1.23,1.25l1.23,1.21q-1.87,1.9-3.4,3.27a21.56,21.56,0,0,1-3,2.24,11.61,11.61,0,0,1-2.82,1.27,10.52,10.52,0,0,1-2.87.39,5.21,5.21,0,0,1-4.18-1.74,7,7,0,0,1-1.5-4.75,9.82,9.82,0,0,1,.53-3.21l-.53-.23a41.24,41.24,0,0,1-3.69,4.52A24.09,24.09,0,0,1,393,508a13.38,13.38,0,0,1-3.55,1.77,12.53,12.53,0,0,1-3.73.56,8.15,8.15,0,0,1-6.87-3.19q-2.42-3.19-2.42-9.27a31,31,0,0,1,.76-7,29.56,29.56,0,0,1,2.17-6.27,26.57,26.57,0,0,1,3.34-5.34,23.25,23.25,0,0,1,4.25-4.12,18.91,18.91,0,0,1,4.93-2.67,15.76,15.76,0,0,1,5.41-.95,19.81,19.81,0,0,1,4.51.48,10.21,10.21,0,0,1,3.92,1.94c.42-1.56.76-2.9,1-4s.45-2.12.61-3.06a14.39,14.39,0,0,0,.25-2.33,3.56,3.56,0,0,0-.21-1.31,1.8,1.8,0,0,0-.73-.85,3.77,3.77,0,0,0-1.47-.49c-.64-.1-1.44-.17-2.41-.22l.49-2.54,11.12-.45h1.9Zm-5-8.24c.27-1.35.52-2.69.74-4a22.11,22.11,0,0,0,.34-3.7c0-2-.46-3.44-1.36-4.29a6.28,6.28,0,0,0-4.35-1.27,9,9,0,0,0-4.09.95,12.72,12.72,0,0,0-3.45,2.62,19.37,19.37,0,0,0-2.8,3.84,27.24,27.24,0,0,0-2.07,4.66,32.82,32.82,0,0,0-1.27,5.08,31.6,31.6,0,0,0-.43,5.05,12.23,12.23,0,0,0,1.14,6,3.92,3.92,0,0,0,3.68,2,8,8,0,0,0,3.8-1.15,15.69,15.69,0,0,0,4.05-3.34,25.74,25.74,0,0,0,3.6-5.32A27,27,0,0,0,402.54,488.54Z"/><path class="cls-8" d="M440.25,491.67c-.45-2.09-.84-3.9-1.18-5.45s-.64-2.86-.93-4a21.89,21.89,0,0,0-.84-2.71,8,8,0,0,0-.84-1.66,2.53,2.53,0,0,0-.93-.87,2.74,2.74,0,0,0-1.18-.3,3.42,3.42,0,0,0-1.17.2,3.74,3.74,0,0,0-1.12.73,9.46,9.46,0,0,0-1.27,1.46c-.46.62-1,1.43-1.58,2.42l-2.88-1.86q1.53-2.28,2.76-3.85a14.54,14.54,0,0,1,2.43-2.5A7.69,7.69,0,0,1,434,472a10.35,10.35,0,0,1,3-.41,5.87,5.87,0,0,1,3.36.89,6.7,6.7,0,0,1,2.16,2.62A18.32,18.32,0,0,1,444,479.3q.56,2.52,1.19,5.77h.49l3.88-5.12q1.64-2.16,2.93-3.65a28.32,28.32,0,0,1,2.31-2.43,9.48,9.48,0,0,1,2-1.43,6.73,6.73,0,0,1,2-.69,12.44,12.44,0,0,1,2.3-.19,8.31,8.31,0,0,1,3.39.67l-1.86,7.35h-3.1c-.07-1.07-.47-1.6-1.19-1.6a3.08,3.08,0,0,0-.9.15,4.49,4.49,0,0,0-1.15.59,13.47,13.47,0,0,0-1.55,1.25c-.59.54-1.28,1.23-2.07,2.09S451,484,450,485.22s-2.19,2.71-3.51,4.4c.68,3.43,1.25,6.18,1.74,8.25a32.28,32.28,0,0,0,1.4,4.73,5.21,5.21,0,0,0,1.34,2.15,2.46,2.46,0,0,0,1.53.5,4.43,4.43,0,0,0,1.18-.15,2.8,2.8,0,0,0,1.12-.65A9.42,9.42,0,0,0,456,503q.72-1,1.68-2.52l2.8,1.83q-1.63,2.46-2.91,4a14.6,14.6,0,0,1-2.46,2.46,6.87,6.87,0,0,1-2.46,1.21,12.17,12.17,0,0,1-2.91.32,7.66,7.66,0,0,1-2.54-.39,4.15,4.15,0,0,1-1.94-1.44,6.82,6.82,0,0,1-1.05-1.7,23.27,23.27,0,0,1-.89-2.29c-.28-.82-.52-1.68-.75-2.56s-.41-1.71-.56-2.48-.27-1.46-.35-2.07-.15-1.06-.17-1.36h-.41l-3.9,5.2q-1.66,2.22-3,3.81a33.11,33.11,0,0,1-2.43,2.61,10.92,10.92,0,0,1-2.13,1.62,6.86,6.86,0,0,1-2.14.82,12.29,12.29,0,0,1-2.45.23,7.65,7.65,0,0,1-3.32-.67l1.72-7.28h3.17c.08,1.1.49,1.64,1.23,1.64a3.54,3.54,0,0,0,.8-.15,3.27,3.27,0,0,0,.92-.46,11,11,0,0,0,1.32-1.12q.81-.77,2-2.13t3-3.41Q437.75,494.7,440.25,491.67Z"/><path class="cls-8" d="M413.23,612a35,35,0,0,0-.69,3.51,19,19,0,0,0-.17,2.35,3,3,0,0,0,.58,2.05,2.13,2.13,0,0,0,1.66.63,3.38,3.38,0,0,0,1.32-.26,6.48,6.48,0,0,0,1.42-.82A15.94,15.94,0,0,0,419,618q.92-.87,2.07-2.1c.4.42.81.84,1.23,1.25s.84.81,1.23,1.21q-1.86,1.9-3.39,3.26a20.28,20.28,0,0,1-3,2.24,11.24,11.24,0,0,1-2.82,1.27,10.47,10.47,0,0,1-2.87.39,5.21,5.21,0,0,1-4.18-1.73,7.09,7.09,0,0,1-1.49-4.76,9.82,9.82,0,0,1,.52-3.21l-.52-.22a42.24,42.24,0,0,1-3.69,4.51,23.55,23.55,0,0,1-3.55,3.08,13,13,0,0,1-3.54,1.77,12.28,12.28,0,0,1-3.74.56,8.1,8.1,0,0,1-6.86-3.19Q382,619.12,382,613a31.13,31.13,0,0,1,.77-7A30.51,30.51,0,0,1,385,599.8a27,27,0,0,1,3.34-5.33,23,23,0,0,1,4.26-4.13,19.28,19.28,0,0,1,4.92-2.66,15.58,15.58,0,0,1,5.41-1,19.88,19.88,0,0,1,4.52.49,10.1,10.1,0,0,1,3.91,1.94c.43-1.57.76-2.9,1-4s.46-2.13.62-3.06a14.22,14.22,0,0,0,.24-2.33,3.76,3.76,0,0,0-.2-1.31,1.83,1.83,0,0,0-.73-.86,4,4,0,0,0-1.48-.48,23.33,23.33,0,0,0-2.4-.23l.48-2.53,11.12-.45h1.9Zm-5-8.25c.27-1.34.52-2.68.75-4a22.91,22.91,0,0,0,.33-3.69c0-2-.45-3.45-1.36-4.29a6.23,6.23,0,0,0-4.35-1.27,9,9,0,0,0-4.08,1A12.19,12.19,0,0,0,396,594a19.56,19.56,0,0,0-2.8,3.84,27.7,27.7,0,0,0-2.07,4.67,31.6,31.6,0,0,0-1.27,5.07,30.6,30.6,0,0,0-.43,5.06,12.26,12.26,0,0,0,1.14,6,3.92,3.92,0,0,0,3.67,2,8,8,0,0,0,3.81-1.16,15.81,15.81,0,0,0,4.05-3.34,26.27,26.27,0,0,0,3.6-5.32A27.38,27.38,0,0,0,408.19,603.7Z"/><path class="cls-8" d="M455.05,617.62a41.08,41.08,0,0,1-3.62,3.62,21.29,21.29,0,0,1-3.36,2.44,12.89,12.89,0,0,1-3.25,1.38,12.46,12.46,0,0,1-3.28.43c-3,0-5.17-.69-6.62-2.09s-2.19-3.44-2.19-6.15a24.29,24.29,0,0,1,.21-3,29.77,29.77,0,0,1,.58-3.23L438,591.65h-6.42l.75-2.87a11.41,11.41,0,0,0,3.49-.43,6.28,6.28,0,0,0,2.1-1.18,7.54,7.54,0,0,0,1.09-1.29,15.68,15.68,0,0,0,1-1.84c.35-.72.7-1.58,1.06-2.56s.77-2.13,1.22-3.45h5.82L446,587.51h12.69l-.86,4.14H445.16l-3.81,15.63c-.24,1.05-.45,2-.61,2.82s-.29,1.59-.39,2.26-.17,1.28-.21,1.83-.05,1-.05,1.53a5.8,5.8,0,0,0,.93,3.5,3.53,3.53,0,0,0,3.06,1.27,7,7,0,0,0,3.8-1.32,25,25,0,0,0,4.59-4.16Z"/><rect class="cls-8" x="371.6" y="538.18" width="95.79" height="6.69"/><rect x="1206.17" y="538.18" width="95.79" height="6.69"/><text class="cls-9" transform="translate(572.56 561.83)">0,5 (5) = 2,5 </text><text class="cls-10" transform="translate(1217.11 520.74)">m</text><text class="cls-10" transform="translate(1231.7 620.57)">s</text></svg>