<svg id="Capa_1" data-name="Capa 1" xmlns="http://www.w3.org/2000/svg" viewBox="0 0 2909.34 499.64"><defs><style>.cls-1{font-size:57.54px;fill:#c42826;font-family:Consolas;}.cls-11,.cls-2,.cls-6,.cls-7{font-size:70.2px;}.cls-13,.cls-14,.cls-2,.cls-3,.cls-5{font-family:CambriaMath, Cambria Math;}.cls-3{font-size:51.02px;}.cls-4{letter-spacing:0em;}.cls-5{font-size:41.43px;}.cls-15,.cls-6{font-family:Arial-ItalicMT, Arial;font-style:italic;}.cls-16,.cls-7{font-family:ArialMT, Arial;}.cls-8{letter-spacing:0em;}.cls-9{letter-spacing:0em;}.cls-10{letter-spacing:0em;}.cls-11,.cls-23{font-family:Arial-BoldMT, Arial;font-weight:700;}.cls-12{letter-spacing:0em;}.cls-13{font-size:54.47px;}.cls-14,.cls-15,.cls-16,.cls-23{font-size:76.72px;}.cls-17{letter-spacing:0em;}.cls-18{letter-spacing:0em;}.cls-19{letter-spacing:0em;}.cls-20{letter-spacing:0em;}.cls-21{letter-spacing:0em;}.cls-22{letter-spacing:0em;}</style></defs><title>vector4</title><text class="cls-1" transform="translate(79.07 34.13)"> </text><path d="M108.51,123.08l3.15-2.26,2.2.55-5,21.73a24.37,24.37,0,0,0-.76,5.08,3.4,3.4,0,0,0,.45,2,1.63,1.63,0,0,0,1.41.62,3.83,3.83,0,0,0,2.19-.84,24.42,24.42,0,0,0,3.29-3.2l1.95,1.91a29.18,29.18,0,0,1-5.26,4.68,8.55,8.55,0,0,1-4.71,1.39,4.35,4.35,0,0,1-3.39-1.4,5.37,5.37,0,0,1-1.27-3.74,11.45,11.45,0,0,1,.79-4l-.45-.14a30.14,30.14,0,0,1-6.24,7,10.13,10.13,0,0,1-6.24,2.23,6.8,6.8,0,0,1-5.84-2.85c-1.38-1.89-2.07-4.56-2.07-8A28.67,28.67,0,0,1,85,132.53,20.91,20.91,0,0,1,91.34,124a14.34,14.34,0,0,1,9-3.14,16.78,16.78,0,0,1,4.17.5A14.64,14.64,0,0,1,108.51,123.08Zm-3,10.22a19.22,19.22,0,0,0,.41-2.43,22,22,0,0,0,.11-2.23,5.65,5.65,0,0,0-1.13-3.88,5.06,5.06,0,0,0-3.84-1.23,8.68,8.68,0,0,0-6.34,2.85A19,19,0,0,0,90.31,134a30.39,30.39,0,0,0-1.58,9.55,11.38,11.38,0,0,0,1,5.33A3.44,3.44,0,0,0,93,150.64a6.65,6.65,0,0,0,4.44-1.95,27.1,27.1,0,0,0,4.49-5.57,24.31,24.31,0,0,0,3.28-8.35Z"/><text class="cls-2" transform="translate(139.65 154.18)">=</text><path d="M234.73,114.82c.27-1.21.47-2.17.58-2.89a12.2,12.2,0,0,0,.17-2,2.73,2.73,0,0,0-.37-1.56,2.21,2.21,0,0,0-1.08-.77,11,11,0,0,0-2.52-.34l.41-1.78,8.64-.31h2l-8.43,37.94a25.46,25.46,0,0,0-.76,5.08,3.4,3.4,0,0,0,.45,2,1.6,1.6,0,0,0,1.4.62,3.83,3.83,0,0,0,2.2-.84,25,25,0,0,0,3.29-3.2l2,1.91a30.07,30.07,0,0,1-5.43,4.79,9,9,0,0,1-4.72,1.28,4.36,4.36,0,0,1-3.56-1.63,6.33,6.33,0,0,1-1.34-4.16,33.57,33.57,0,0,1,1-6.65Zm18.75,16.25a25.72,25.72,0,0,0,.79-5.14,2.47,2.47,0,0,0-.74-2.09,5.56,5.56,0,0,0-2.9-.62l.38-1.82,8.36-.3h2l-4.94,22a25.53,25.53,0,0,0-.75,5.08,3.41,3.41,0,0,0,.44,2,1.63,1.63,0,0,0,1.41.62,3.83,3.83,0,0,0,2.19-.84,24.42,24.42,0,0,0,3.29-3.2l1.95,1.91a29.29,29.29,0,0,1-5.45,4.8,8.8,8.8,0,0,1-4.69,1.27,4.38,4.38,0,0,1-3.57-1.63,6.33,6.33,0,0,1-1.33-4.16,30,30,0,0,1,1-6.65Zm11-23.1-1.57,6.65h-6.07l1.58-6.65Z"/><path d="M282.48,130.11a27.74,27.74,0,0,1,6.28-7,10.59,10.59,0,0,1,6.3-2.28,6.48,6.48,0,0,1,5,1.86,7.74,7.74,0,0,1,1.71,5.4v.48a5,5,0,0,1,0,.52,24.84,24.84,0,0,1,5.88-6.22,10.49,10.49,0,0,1,6.08-2,6.39,6.39,0,0,1,4.87,1.81,7.17,7.17,0,0,1,1.71,5.11,27.49,27.49,0,0,1-1,6.14l-2.23,9a25.63,25.63,0,0,0-.93,5.28,3.4,3.4,0,0,0,.45,2,1.61,1.61,0,0,0,1.4.62,3.83,3.83,0,0,0,2.2-.84,25,25,0,0,0,3.29-3.2l1.95,1.91a32.24,32.24,0,0,1-5.14,4.6,8.77,8.77,0,0,1-5,1.47,4.42,4.42,0,0,1-3.57-1.59,6.11,6.11,0,0,1-1.34-4.06,28.14,28.14,0,0,1,1.14-6.55l1.5-5.93c.55-2.15.91-3.74,1.08-4.76a16.25,16.25,0,0,0,.26-2.51,5.73,5.73,0,0,0-.79-3.41,3,3,0,0,0-2.57-1,5.66,5.66,0,0,0-3.08,1.08,15.77,15.77,0,0,0-3.47,3.36,27.28,27.28,0,0,0-3,4.49,21.1,21.1,0,0,0-1.83,5.39l-3.12,15h-5.93l3.94-17.41c.48-2.12.8-3.7,1-4.71a16.2,16.2,0,0,0,.25-2.62,5.55,5.55,0,0,0-.87-3.52,3.37,3.37,0,0,0-2.73-1,5.61,5.61,0,0,0-3,1.08,15.72,15.72,0,0,0-3.55,3.46,22,22,0,0,0-4.73,9.92l-3.26,14.84h-5.93l5-21.73a24.6,24.6,0,0,0,.75-5.07,3.53,3.53,0,0,0-.44-2,1.63,1.63,0,0,0-1.41-.62,3.85,3.85,0,0,0-2.24.88,24.3,24.3,0,0,0-3.24,3.17l-2-1.92a33.51,33.51,0,0,1,5.2-4.61,8.41,8.41,0,0,1,4.78-1.46,4.34,4.34,0,0,1,3.41,1.42,5.45,5.45,0,0,1,1.25,3.72,11.41,11.41,0,0,1-.79,4Z"/><text class="cls-3" transform="translate(211.41 197.14)">∆</text><path d="M261.3,192.33a27.31,27.31,0,0,1-2.41,2.41,15.16,15.16,0,0,1-2.25,1.64,9,9,0,0,1-2.16.92,8.56,8.56,0,0,1-2.2.28,6.18,6.18,0,0,1-4.42-1.39,5.44,5.44,0,0,1-1.46-4.11,17,17,0,0,1,.14-2,18.72,18.72,0,0,1,.39-2.16l3-12.9h-4.28l.5-1.92a7.46,7.46,0,0,0,2.32-.28,4.35,4.35,0,0,0,1.41-.79,4.88,4.88,0,0,0,.72-.86,8.55,8.55,0,0,0,.7-1.23c.23-.48.47-1,.71-1.71s.51-1.42.81-2.3h3.89l-1.42,6.33h8.47l-.58,2.76H254.7l-2.54,10.44c-.17.7-.3,1.32-.41,1.88s-.2,1.06-.26,1.51a12,12,0,0,0-.14,1.22c0,.36,0,.7,0,1a3.92,3.92,0,0,0,.62,2.34,2.4,2.4,0,0,0,2,.85,4.71,4.71,0,0,0,2.54-.89,16.51,16.51,0,0,0,3.06-2.78Z"/><text class="cls-3" transform="translate(265.84 197.14)">→</text><text class="cls-3" transform="translate(308.8 197.14)">0</text><text class="cls-3" transform="translate(350.23 112.75)">∆</text><path d="M389.45,113.18a2.84,2.84,0,0,1-1.49-.37,2.34,2.34,0,0,1-.92-1,5,5,0,0,1-.45-1.55,13.39,13.39,0,0,1-.13-2,27.56,27.56,0,0,1,.18-3c.11-1.08.26-2.17.45-3.26.88-5.34,1.32-8.43,1.32-9.3a1.93,1.93,0,0,0-.22-1.25.86.86,0,0,0-.73-.34,2.45,2.45,0,0,0-1.06.27,8.27,8.27,0,0,0-1.13.7c-.38.28-.75.59-1.11.91l-1,.91-1.37-1.67c.55-.58,1.13-1.16,1.76-1.74a15.85,15.85,0,0,1,2-1.59,9.89,9.89,0,0,1,2.19-1.13,6.65,6.65,0,0,1,2.32-.42,3.19,3.19,0,0,1,1.73.42,3,3,0,0,1,1,1.11,4.76,4.76,0,0,1,.53,1.51,9.83,9.83,0,0,1,.13,1.62,10.27,10.27,0,0,1-.1,1.27l-1.57,9c-.15.87-.27,1.71-.37,2.54a18.87,18.87,0,0,0-.15,2.2,7.24,7.24,0,0,0,.13,1.54q.12.6.24.6a4.71,4.71,0,0,0,2.05-.64,15.64,15.64,0,0,0,2.63-1.74,23.9,23.9,0,0,0,2.76-2.63,21.89,21.89,0,0,0,2.48-3.3,19.42,19.42,0,0,0,1.78-3.74,11.72,11.72,0,0,0,.69-3.94,2.66,2.66,0,0,0-.44-1.7,1.46,1.46,0,0,0-1.18-.52,2.68,2.68,0,0,0-1.7.76,14.54,14.54,0,0,0-1.87,2l-1.47-1.47a12.39,12.39,0,0,1,1.42-1.86,12.07,12.07,0,0,1,1.75-1.55,8.59,8.59,0,0,1,1.9-1.07,5.06,5.06,0,0,1,1.93-.4,3.23,3.23,0,0,1,2.84,1.23,5.54,5.54,0,0,1,.88,3.3,10.27,10.27,0,0,1-.44,2.74,21.79,21.79,0,0,1-1.23,3.26,35.15,35.15,0,0,1-1.9,3.53,38.48,38.48,0,0,1-2.42,3.51,36.5,36.5,0,0,1-2.84,3.22,22.84,22.84,0,0,1-3.14,2.62,16.56,16.56,0,0,1-3.32,1.79A9.33,9.33,0,0,1,389.45,113.18Z"/><text class="cls-3" transform="translate(390.93 111.98)">⃗</text><text class="cls-3" transform="translate(353.34 189.85)">∆</text><path d="M402.88,185a29,29,0,0,1-2.42,2.42,15.2,15.2,0,0,1-2.24,1.63,9.11,9.11,0,0,1-2.17.92,8.44,8.44,0,0,1-2.19.29,6.17,6.17,0,0,1-4.42-1.4,5.4,5.4,0,0,1-1.46-4.11,15.18,15.18,0,0,1,.14-2,20.48,20.48,0,0,1,.38-2.15l3-12.91h-4.29l.5-1.92a7.53,7.53,0,0,0,2.33-.28,4.28,4.28,0,0,0,1.41-.79,4.88,4.88,0,0,0,.72-.86,11,11,0,0,0,.7-1.23c.23-.48.47-1.05.71-1.71s.51-1.42.81-2.3h3.88l-1.42,6.33h8.47l-.57,2.76h-8.45l-2.54,10.44c-.16.7-.3,1.32-.41,1.88s-.19,1.06-.26,1.51-.11.85-.14,1.22,0,.7,0,1a3.83,3.83,0,0,0,.62,2.34,2.35,2.35,0,0,0,2,.85,4.65,4.65,0,0,0,2.54-.89,17.11,17.11,0,0,0,3.07-2.77Z"/><rect x="350.27" y="131.54" width="60.61" height="4.6"/><text class="cls-2" transform="translate(422.39 154.18)"> </text><text class="cls-2" transform="translate(457.7 154.18)">=</text><path d="M553.81,104.15a23.34,23.34,0,0,0-.46,2.34,11.53,11.53,0,0,0-.11,1.57,2,2,0,0,0,.38,1.37,1.44,1.44,0,0,0,1.11.42,2.26,2.26,0,0,0,.88-.17,4.34,4.34,0,0,0,.95-.55,10.75,10.75,0,0,0,1.12-1c.41-.39.87-.86,1.39-1.4.26.28.53.56.82.83l.82.81c-.83.85-1.59,1.57-2.27,2.18a13.48,13.48,0,0,1-2,1.49,7.41,7.41,0,0,1-1.88.85,6.75,6.75,0,0,1-1.92.26,3.47,3.47,0,0,1-2.79-1.16,4.72,4.72,0,0,1-1-3.17,6.36,6.36,0,0,1,.35-2.14l-.35-.15a27.5,27.5,0,0,1-2.47,3,16,16,0,0,1-2.37,2.06,8.83,8.83,0,0,1-2.36,1.18,8.3,8.3,0,0,1-2.49.37,5.43,5.43,0,0,1-4.59-2.13,10.08,10.08,0,0,1-1.62-6.19,20.69,20.69,0,0,1,.51-4.64A20.32,20.32,0,0,1,534.94,96a17.67,17.67,0,0,1,2.23-3.56A15.34,15.34,0,0,1,540,89.73,12.53,12.53,0,0,1,543.3,88a10.29,10.29,0,0,1,3.61-.64,13.43,13.43,0,0,1,3,.32,6.78,6.78,0,0,1,2.62,1.3c.28-1.05.5-1.94.67-2.68s.3-1.42.41-2a9.13,9.13,0,0,0,.16-1.56,2.42,2.42,0,0,0-.13-.87,1.22,1.22,0,0,0-.49-.57,2.61,2.61,0,0,0-1-.33c-.43-.06-1-.11-1.61-.15l.32-1.69,7.43-.3h1.27Zm-3.36-5.51c.18-.89.34-1.79.49-2.69a14.92,14.92,0,0,0,.23-2.46,3.78,3.78,0,0,0-.91-2.87,4.19,4.19,0,0,0-2.9-.84,6,6,0,0,0-2.73.63,8.5,8.5,0,0,0-2.31,1.75,12.76,12.76,0,0,0-1.86,2.56,18.36,18.36,0,0,0-1.39,3.12,21.69,21.69,0,0,0-.84,3.38,20.86,20.86,0,0,0-.29,3.38,8.19,8.19,0,0,0,.76,4,2.62,2.62,0,0,0,2.45,1.3,5.25,5.25,0,0,0,2.54-.77,10.48,10.48,0,0,0,2.71-2.23,17.18,17.18,0,0,0,2.4-3.55A18.16,18.16,0,0,0,550.45,98.64Z"/><path d="M572.84,113.17a2.86,2.86,0,0,1-1.49-.36,2.34,2.34,0,0,1-.92-1,4.93,4.93,0,0,1-.45-1.56,14.92,14.92,0,0,1-.13-2,27.56,27.56,0,0,1,.18-3c.11-1.08.26-2.17.45-3.26q1.32-8,1.32-9.29a2,2,0,0,0-.21-1.26.88.88,0,0,0-.74-.34,2.37,2.37,0,0,0-1.06.28,7.3,7.3,0,0,0-1.13.69c-.38.29-.75.59-1.11.91l-1,.91-1.37-1.67c.55-.58,1.13-1.16,1.76-1.74a15.77,15.77,0,0,1,2-1.58,10.39,10.39,0,0,1,2.19-1.14,6.69,6.69,0,0,1,2.32-.42,3.19,3.19,0,0,1,1.73.42,3.16,3.16,0,0,1,1,1.11,4.52,4.52,0,0,1,.53,1.51,10,10,0,0,1,.13,1.62,12,12,0,0,1-.09,1.27l-1.57,9c-.15.86-.28,1.71-.38,2.54a18.58,18.58,0,0,0-.15,2.19,7.18,7.18,0,0,0,.13,1.54c.08.4.16.6.25.6a4.82,4.82,0,0,0,2-.63,16,16,0,0,0,2.63-1.75,24.66,24.66,0,0,0,2.76-2.62,22.5,22.5,0,0,0,2.48-3.31,18.76,18.76,0,0,0,1.78-3.73,11.82,11.82,0,0,0,.69-4,2.61,2.61,0,0,0-.44-1.69,1.45,1.45,0,0,0-1.18-.53,2.75,2.75,0,0,0-1.7.76,14.52,14.52,0,0,0-1.86,2l-1.47-1.47a12.62,12.62,0,0,1,3.16-3.41,8.43,8.43,0,0,1,1.91-1.07,5,5,0,0,1,1.93-.4,3.25,3.25,0,0,1,2.84,1.23,5.65,5.65,0,0,1,.87,3.3,10.27,10.27,0,0,1-.44,2.74,22.3,22.3,0,0,1-1.23,3.27,36,36,0,0,1-1.89,3.52,39.38,39.38,0,0,1-2.43,3.52,37.85,37.85,0,0,1-2.84,3.21,23,23,0,0,1-3.14,2.63,16.74,16.74,0,0,1-3.32,1.78A9.08,9.08,0,0,1,572.84,113.17Z"/><text class="cls-3" transform="translate(574.29 111.98)">⃗</text><path d="M557.64,181.25c-.23,1-.38,1.76-.46,2.35a13.24,13.24,0,0,0-.11,1.56,2,2,0,0,0,.39,1.37,1.4,1.4,0,0,0,1.11.43,2.27,2.27,0,0,0,.88-.18,4.5,4.5,0,0,0,.95-.54,11.89,11.89,0,0,0,1.12-1q.62-.59,1.38-1.41c.27.28.54.56.82.83l.83.81c-.84.85-1.59,1.58-2.27,2.18a13.6,13.6,0,0,1-2,1.5,7.51,7.51,0,0,1-1.88.84,6.85,6.85,0,0,1-1.92.27,3.48,3.48,0,0,1-2.79-1.16,4.68,4.68,0,0,1-1-3.18,6.62,6.62,0,0,1,.35-2.14l-.35-.15a27.5,27.5,0,0,1-2.46,3,16,16,0,0,1-2.37,2.06,8.74,8.74,0,0,1-2.37,1.18,8.21,8.21,0,0,1-2.49.38,5.42,5.42,0,0,1-4.58-2.13,10.1,10.1,0,0,1-1.62-6.19,20.84,20.84,0,0,1,.51-4.65,20.3,20.3,0,0,1,1.44-4.19,18.61,18.61,0,0,1,2.23-3.56,15.65,15.65,0,0,1,2.84-2.75,13,13,0,0,1,3.29-1.78,10.56,10.56,0,0,1,3.61-.64,12.88,12.88,0,0,1,3,.33,6.65,6.65,0,0,1,2.61,1.29c.29-1,.51-1.94.68-2.68s.3-1.42.41-2a9.13,9.13,0,0,0,.16-1.55,2.5,2.5,0,0,0-.14-.88,1.2,1.2,0,0,0-.48-.57,2.5,2.5,0,0,0-1-.32,14.13,14.13,0,0,0-1.6-.15l.32-1.7,7.42-.3h1.27Zm-3.36-5.5c.18-.9.35-1.8.5-2.69a15,15,0,0,0,.22-2.47,3.76,3.76,0,0,0-.91-2.86,4.12,4.12,0,0,0-2.9-.85,6,6,0,0,0-2.73.63,8.61,8.61,0,0,0-2.3,1.75,13.09,13.09,0,0,0-1.87,2.56,17.9,17.9,0,0,0-1.38,3.12,21.56,21.56,0,0,0-.85,3.39,20.7,20.7,0,0,0-.28,3.37,8.14,8.14,0,0,0,.76,4A2.61,2.61,0,0,0,545,187a5.39,5.39,0,0,0,2.54-.77,10.66,10.66,0,0,0,2.7-2.23,17.35,17.35,0,0,0,2.41-3.55A18,18,0,0,0,554.28,175.75Z"/><path d="M585.46,185a27.54,27.54,0,0,1-2.41,2.42,15.26,15.26,0,0,1-2.25,1.63,9,9,0,0,1-2.16.92,8.55,8.55,0,0,1-2.19.29,6.2,6.2,0,0,1-4.43-1.4,5.43,5.43,0,0,1-1.45-4.11,16.9,16.9,0,0,1,.13-2,18.17,18.17,0,0,1,.39-2.15l3-12.91h-4.28l.5-1.92a7.57,7.57,0,0,0,2.33-.28,4.23,4.23,0,0,0,1.4-.79,5.38,5.38,0,0,0,.73-.86,9.65,9.65,0,0,0,.69-1.23,16.49,16.49,0,0,0,.71-1.71c.24-.65.51-1.42.81-2.3h3.89l-1.42,6.33h8.47l-.57,2.76h-8.45l-2.54,10.44c-.17.7-.3,1.32-.41,1.88s-.2,1.06-.26,1.51-.11.85-.14,1.22,0,.7,0,1a3.83,3.83,0,0,0,.63,2.34,2.34,2.34,0,0,0,2,.85,4.68,4.68,0,0,0,2.54-.89,16.76,16.76,0,0,0,3.06-2.77Z"/><rect x="529.79" y="131.54" width="64.44" height="4.6"/><text class="cls-2" transform="translate(613.8 154.18)">=</text><path d="M709.93,104.15c-.23,1-.38,1.76-.46,2.34a13.4,13.4,0,0,0-.11,1.57,2,2,0,0,0,.39,1.37,1.41,1.41,0,0,0,1.11.42,2.29,2.29,0,0,0,.88-.17,4.58,4.58,0,0,0,1-.55,11.89,11.89,0,0,0,1.12-1c.4-.39.86-.86,1.38-1.4.27.28.54.56.82.83s.56.54.82.81c-.83.85-1.58,1.57-2.26,2.18a13.48,13.48,0,0,1-2,1.49,7.57,7.57,0,0,1-1.88.85,6.84,6.84,0,0,1-1.92.26A3.45,3.45,0,0,1,706,112a4.67,4.67,0,0,1-1-3.17,6.62,6.62,0,0,1,.35-2.14l-.35-.15a27.5,27.5,0,0,1-2.47,3,15.44,15.44,0,0,1-2.36,2.06,8.74,8.74,0,0,1-2.37,1.18,8.3,8.3,0,0,1-2.49.37,5.41,5.41,0,0,1-4.58-2.13,10.08,10.08,0,0,1-1.62-6.19,20.69,20.69,0,0,1,.51-4.64A20.3,20.3,0,0,1,691.06,96a18.61,18.61,0,0,1,2.23-3.56,15.65,15.65,0,0,1,2.84-2.75A12.68,12.68,0,0,1,699.42,88a10.33,10.33,0,0,1,3.61-.64,13.52,13.52,0,0,1,3,.32,6.81,6.81,0,0,1,2.61,1.3c.29-1.05.51-1.94.68-2.68s.3-1.42.41-2a10.28,10.28,0,0,0,.16-1.56,2.4,2.4,0,0,0-.14-.87,1.2,1.2,0,0,0-.48-.57,2.66,2.66,0,0,0-1-.33c-.42-.06-1-.11-1.61-.15L707,79l7.42-.3h1.27Zm-3.36-5.51c.18-.89.35-1.79.5-2.69a14.84,14.84,0,0,0,.22-2.46,3.78,3.78,0,0,0-.91-2.87,4.17,4.17,0,0,0-2.9-.84,6,6,0,0,0-2.73.63,8.46,8.46,0,0,0-2.3,1.75,12.79,12.79,0,0,0-1.87,2.56,17.57,17.57,0,0,0-1.38,3.12,20.65,20.65,0,0,0-.85,3.38,20.86,20.86,0,0,0-.29,3.38,8.31,8.31,0,0,0,.76,4,2.63,2.63,0,0,0,2.46,1.3,5.28,5.28,0,0,0,2.54-.77,10.45,10.45,0,0,0,2.7-2.23,17.2,17.2,0,0,0,2.41-3.55A18.15,18.15,0,0,0,706.57,98.64Z"/><path d="M729,113.17a2.87,2.87,0,0,1-1.5-.36,2.47,2.47,0,0,1-.92-1,5.52,5.52,0,0,1-.45-1.56,15,15,0,0,1-.12-2,30.11,30.11,0,0,1,.17-3c.12-1.08.27-2.17.45-3.26q1.32-8,1.32-9.29a2,2,0,0,0-.21-1.26.86.86,0,0,0-.73-.34,2.3,2.3,0,0,0-1.06.28,7.37,7.37,0,0,0-1.14.69c-.38.29-.75.59-1.11.91s-.69.63-1,.91l-1.37-1.67c.54-.58,1.13-1.16,1.75-1.74a15.77,15.77,0,0,1,2-1.58,10.39,10.39,0,0,1,2.19-1.14,6.73,6.73,0,0,1,2.32-.42,3.16,3.16,0,0,1,1.73.42,3.28,3.28,0,0,1,1.05,1.11,4.51,4.51,0,0,1,.52,1.51,8.81,8.81,0,0,1,0,2.89l-1.57,9c-.15.86-.27,1.71-.37,2.54a18.58,18.58,0,0,0-.15,2.19,8,8,0,0,0,.12,1.54c.08.4.17.6.25.6a4.82,4.82,0,0,0,2-.63,16,16,0,0,0,2.63-1.75,25.6,25.6,0,0,0,2.77-2.62,23.23,23.23,0,0,0,2.48-3.31,19.33,19.33,0,0,0,1.78-3.73,12.07,12.07,0,0,0,.68-4,2.62,2.62,0,0,0-.43-1.69,1.48,1.48,0,0,0-1.19-.53,2.73,2.73,0,0,0-1.69.76,14.54,14.54,0,0,0-1.87,2l-1.47-1.47a12.16,12.16,0,0,1,1.42-1.85,12.64,12.64,0,0,1,1.74-1.56A8.65,8.65,0,0,1,742,87.71a5.06,5.06,0,0,1,1.93-.4,3.24,3.24,0,0,1,2.84,1.23,5.65,5.65,0,0,1,.87,3.3,10.21,10.21,0,0,1-.43,2.74,22.41,22.41,0,0,1-1.24,3.27,36,36,0,0,1-1.89,3.52,35.6,35.6,0,0,1-2.43,3.52,36.18,36.18,0,0,1-2.84,3.21,22.46,22.46,0,0,1-3.14,2.63,17,17,0,0,1-3.31,1.78A9.12,9.12,0,0,1,729,113.17Z"/><path d="M758.78,113l-.64-2.79c-.22-1-.44-2-.66-2.75a8.51,8.51,0,0,0-.62-1.69,1.58,1.58,0,0,0-.64-.7,1.79,1.79,0,0,0-.79-.18,2,2,0,0,0-1.35.53,9.88,9.88,0,0,0-1.61,2.2l-1.72-1a25.34,25.34,0,0,1,2.21-2.95,5.83,5.83,0,0,1,1.8-1.39,5.47,5.47,0,0,1,2.26-.41,3.33,3.33,0,0,1,2.29.78,5.49,5.49,0,0,1,1.41,2.69c.34,1.27.65,2.63.94,4.08h.28l2-2.57c.85-1.08,1.58-2,2.19-2.6a10.19,10.19,0,0,1,1.61-1.48,4.78,4.78,0,0,1,1.39-.7,6.21,6.21,0,0,1,1.65-.2,4.92,4.92,0,0,1,2.06.41l-1.09,4.18h-1.92c0-.6-.27-.91-.65-.91a1.87,1.87,0,0,0-.71.17,5.5,5.5,0,0,0-1.06.77c-.45.4-1.06,1-1.82,1.84s-1.85,2.08-3.27,3.74c.29,1.52.61,3,1,4.41a23.88,23.88,0,0,0,.82,2.81,2.09,2.09,0,0,0,.65,1,1.58,1.58,0,0,0,.94.27,2.12,2.12,0,0,0,.93-.19,2.75,2.75,0,0,0,.88-.76,14.32,14.32,0,0,0,1.19-1.76l1.72,1a25.21,25.21,0,0,1-2.27,3,5.36,5.36,0,0,1-1.78,1.34,5.54,5.54,0,0,1-2.18.37,3.93,3.93,0,0,1-1.57-.29,2.87,2.87,0,0,1-1.14-.89,4.63,4.63,0,0,1-.78-1.42,25.37,25.37,0,0,1-.73-2.81q-.43-2-.54-2.58h-.22q-2.26,3-3.56,4.47a22.67,22.67,0,0,1-2.12,2.18,5.93,5.93,0,0,1-1.64,1,5.18,5.18,0,0,1-1.88.32,5,5,0,0,1-2.09-.43l1.09-4.14H751c0,.59.25.89.62.89a2.12,2.12,0,0,0,1.09-.37,13.75,13.75,0,0,0,2-1.84C755.59,116.66,757,115.1,758.78,113Z"/><path d="M726.43,181.25a22.91,22.91,0,0,0-.46,2.35,11.4,11.4,0,0,0-.11,1.56,2,2,0,0,0,.38,1.37,1.41,1.41,0,0,0,1.11.43,2.27,2.27,0,0,0,.88-.18,4.5,4.5,0,0,0,.95-.54,11.89,11.89,0,0,0,1.12-1q.62-.59,1.38-1.41c.27.28.54.56.83.83l.82.81c-.83.85-1.59,1.58-2.27,2.18a13.6,13.6,0,0,1-2,1.5,7.51,7.51,0,0,1-1.88.84,6.75,6.75,0,0,1-1.92.27,3.51,3.51,0,0,1-2.79-1.16,4.73,4.73,0,0,1-1-3.18,6.62,6.62,0,0,1,.34-2.14l-.34-.15a27.5,27.5,0,0,1-2.47,3,16,16,0,0,1-2.37,2.06,8.83,8.83,0,0,1-2.36,1.18,8.3,8.3,0,0,1-2.49.38,5.43,5.43,0,0,1-4.59-2.13A10.1,10.1,0,0,1,705.6,182a20.84,20.84,0,0,1,.51-4.65,19.74,19.74,0,0,1,1.45-4.19,17.67,17.67,0,0,1,2.23-3.56,15.34,15.34,0,0,1,2.84-2.75,12.82,12.82,0,0,1,3.29-1.78,10.52,10.52,0,0,1,3.61-.64,12.85,12.85,0,0,1,3,.33,6.62,6.62,0,0,1,2.62,1.29c.28-1,.5-1.94.67-2.68s.3-1.42.41-2a9.13,9.13,0,0,0,.16-1.55,2.51,2.51,0,0,0-.13-.88,1.28,1.28,0,0,0-.49-.57,2.45,2.45,0,0,0-1-.32,14.34,14.34,0,0,0-1.61-.15l.32-1.7,7.43-.3h1.27Zm-3.36-5.5c.18-.9.34-1.8.49-2.69a15.13,15.13,0,0,0,.23-2.47,3.8,3.8,0,0,0-.91-2.86,4.15,4.15,0,0,0-2.9-.85,6,6,0,0,0-2.73.63,8.5,8.5,0,0,0-2.31,1.75,13.05,13.05,0,0,0-1.86,2.56,18.72,18.72,0,0,0-1.39,3.12,21.53,21.53,0,0,0-.84,3.39,19.68,19.68,0,0,0-.29,3.37,8.14,8.14,0,0,0,.76,4,2.62,2.62,0,0,0,2.45,1.31,5.36,5.36,0,0,0,2.54-.77A10.69,10.69,0,0,0,719,184a17.74,17.74,0,0,0,2.4-3.55A18.43,18.43,0,0,0,723.07,175.75Z"/><path d="M754.25,185a29,29,0,0,1-2.42,2.42,15.2,15.2,0,0,1-2.24,1.63,9.11,9.11,0,0,1-2.17.92,8.44,8.44,0,0,1-2.19.29,6.17,6.17,0,0,1-4.42-1.4,5.44,5.44,0,0,1-1.46-4.11,15.18,15.18,0,0,1,.14-2,20.48,20.48,0,0,1,.38-2.15l3-12.91h-4.29l.5-1.92a7.53,7.53,0,0,0,2.33-.28,4.28,4.28,0,0,0,1.41-.79,4.88,4.88,0,0,0,.72-.86,11,11,0,0,0,.7-1.23c.23-.48.47-1.05.71-1.71s.51-1.42.81-2.3h3.88l-1.42,6.33h8.47l-.57,2.76h-8.45l-2.54,10.44c-.16.7-.3,1.32-.41,1.88s-.19,1.06-.26,1.51-.11.85-.14,1.22,0,.7,0,1a3.83,3.83,0,0,0,.62,2.34,2.35,2.35,0,0,0,2,.85,4.65,4.65,0,0,0,2.54-.89,17.11,17.11,0,0,0,3.07-2.77Z"/><rect x="685.92" y="131.54" width="90.15" height="4.6"/><path d="M795.9,131.07c.28-1.21.48-2.23.6-3a13.64,13.64,0,0,0,.19-2.09,4.27,4.27,0,0,0-.17-1.3,1.6,1.6,0,0,0-.6-.81,2.93,2.93,0,0,0-1.13-.41c-.47-.08-1-.14-1.73-.19l.37-1.82,8.37-.3h2l-4.94,22c-.25,1.1-.44,2.07-.56,2.92a14.36,14.36,0,0,0-.19,2.16,3.4,3.4,0,0,0,.45,2,1.6,1.6,0,0,0,1.4.62,3.86,3.86,0,0,0,2.4-1,29.47,29.47,0,0,0,3.08-3l2,1.91c-1.08,1.12-2,2.07-2.9,2.85a16.52,16.52,0,0,1-2.43,1.88,8.32,8.32,0,0,1-2.3,1,9.45,9.45,0,0,1-2.52.31,4.4,4.4,0,0,1-3.63-1.71,5.62,5.62,0,0,1-.94-1.84,7.35,7.35,0,0,1-.33-2.24,20.72,20.72,0,0,1,.24-2.9q.24-1.67.72-3.75Z"/><text class="cls-2" transform="translate(810.18 154.18)">̂</text><text class="cls-2" transform="translate(810.18 154.18)"> </text><text class="cls-2" transform="translate(841.27 154.18)">+</text><path d="M933.57,99.16a22.91,22.91,0,0,0-.46,2.35,13.24,13.24,0,0,0-.11,1.56,2,2,0,0,0,.38,1.37,1.41,1.41,0,0,0,1.11.43,2.32,2.32,0,0,0,.89-.18,4.45,4.45,0,0,0,.94-.54,10.75,10.75,0,0,0,1.12-1c.41-.39.87-.86,1.39-1.41.26.28.54.56.82.83l.82.81c-.83.85-1.58,1.58-2.27,2.18a13.6,13.6,0,0,1-2,1.5,7.36,7.36,0,0,1-1.88.84,6.73,6.73,0,0,1-1.91.27,3.48,3.48,0,0,1-2.79-1.16,4.68,4.68,0,0,1-1-3.18,6.36,6.36,0,0,1,.35-2.14l-.35-.15a27.5,27.5,0,0,1-2.47,3,15.44,15.44,0,0,1-2.36,2.06,8.74,8.74,0,0,1-2.37,1.18,8.3,8.3,0,0,1-2.49.38,5.43,5.43,0,0,1-4.59-2.13,10.11,10.11,0,0,1-1.61-6.19,20.84,20.84,0,0,1,.51-4.65,20.3,20.3,0,0,1,1.44-4.19,18.13,18.13,0,0,1,2.23-3.56,15.34,15.34,0,0,1,2.84-2.75A13,13,0,0,1,923.06,83a10.56,10.56,0,0,1,3.61-.64,12.79,12.79,0,0,1,3,.33,6.62,6.62,0,0,1,2.62,1.29c.28-1,.51-1.94.67-2.68s.31-1.42.41-2a9.29,9.29,0,0,0,.17-1.55,2.5,2.5,0,0,0-.14-.88,1.16,1.16,0,0,0-.49-.57,2.45,2.45,0,0,0-1-.32,14.11,14.11,0,0,0-1.61-.15l.33-1.7,7.42-.3h1.27Zm-3.36-5.5c.18-.9.35-1.8.5-2.69a15,15,0,0,0,.22-2.47,3.76,3.76,0,0,0-.91-2.86,4.14,4.14,0,0,0-2.9-.85,6,6,0,0,0-2.73.63,8.31,8.31,0,0,0-2.3,1.75,13.09,13.09,0,0,0-1.87,2.56,17.9,17.9,0,0,0-1.38,3.12,20.51,20.51,0,0,0-.85,3.39,20.74,20.74,0,0,0-.29,3.37,8.25,8.25,0,0,0,.76,4,2.64,2.64,0,0,0,2.46,1.31,5.39,5.39,0,0,0,2.54-.77,10.66,10.66,0,0,0,2.7-2.23,17.74,17.74,0,0,0,2.4-3.55A18.43,18.43,0,0,0,930.21,93.66Z"/><path d="M952.61,108.18a2.87,2.87,0,0,1-1.5-.36,2.4,2.4,0,0,1-.92-1,4.93,4.93,0,0,1-.45-1.56,14.89,14.89,0,0,1-.12-2,27.58,27.58,0,0,1,.17-3c.12-1.07.27-2.16.45-3.26q1.32-8,1.32-9.29a2.06,2.06,0,0,0-.21-1.26.9.9,0,0,0-.74-.34,2.5,2.5,0,0,0-1.06.28,6.68,6.68,0,0,0-1.13.7,13.38,13.38,0,0,0-1.11.91l-1,.91-1.37-1.67c.55-.59,1.14-1.17,1.76-1.75a15.77,15.77,0,0,1,2-1.58,10.35,10.35,0,0,1,2.19-1.13,6.52,6.52,0,0,1,2.32-.43A2.95,2.95,0,0,1,956,83.86a4.6,4.6,0,0,1,.52,1.5,10,10,0,0,1,.14,1.62,12.29,12.29,0,0,1-.1,1.27l-1.57,9c-.15.86-.28,1.71-.38,2.54a18.58,18.58,0,0,0-.15,2.19,8.08,8.08,0,0,0,.13,1.55c.08.4.17.6.25.6a4.86,4.86,0,0,0,2-.64,15.25,15.25,0,0,0,2.63-1.74,24.79,24.79,0,0,0,2.76-2.63,21.24,21.24,0,0,0,2.48-3.3,18.84,18.84,0,0,0,1.78-3.74,11.78,11.78,0,0,0,.69-3.95,2.63,2.63,0,0,0-.44-1.69,1.44,1.44,0,0,0-1.18-.52,2.65,2.65,0,0,0-1.69.76,13.45,13.45,0,0,0-1.87,2l-1.47-1.47A11.76,11.76,0,0,1,962,85.35a12.64,12.64,0,0,1,1.74-1.56,9.08,9.08,0,0,1,1.91-1.07,5.21,5.21,0,0,1,1.93-.4,3.22,3.22,0,0,1,2.84,1.24,5.61,5.61,0,0,1,.87,3.3,10.33,10.33,0,0,1-.44,2.74,22.21,22.21,0,0,1-1.23,3.26,36.11,36.11,0,0,1-1.89,3.53,36.69,36.69,0,0,1-2.43,3.51,35,35,0,0,1-2.84,3.21,22.35,22.35,0,0,1-3.14,2.63,16.44,16.44,0,0,1-3.31,1.78A9.12,9.12,0,0,1,952.61,108.18Z"/><path d="M983,117.91l-1.17-6.73c-.71-3.85-1.3-6.62-1.78-8.34a6.1,6.1,0,0,0-1.18-2.61,1.15,1.15,0,0,0-.89-.34,2.24,2.24,0,0,0-1,.18,2.86,2.86,0,0,0-.86.72,21.83,21.83,0,0,0-1.38,1.83l-1.72-1a21.56,21.56,0,0,1,2.35-2.91,6.35,6.35,0,0,1,2-1.43,6.17,6.17,0,0,1,2.38-.42,4.49,4.49,0,0,1,1.73.29,3.36,3.36,0,0,1,1.2.87,5.69,5.69,0,0,1,.92,1.56,17,17,0,0,1,.8,2.88q.39,1.91.91,5.18c.34,2.17.65,4.34.92,6.48a41.14,41.14,0,0,0,5-7.79q1.88-3.89,1.87-5.8c0-1.1-.71-1.67-2.14-1.72l.28-1.5h6.05l.83,1.25q-1.15,2.73-2.08,4.62c-1.1,2.17-2.36,4.4-3.8,6.68a70.34,70.34,0,0,1-4.46,6.35c-1.53,1.95-3.25,3.94-5.13,6a21,21,0,0,1-3.33,3.1,10.12,10.12,0,0,1-2.49,1.27,8.21,8.21,0,0,1-2.48.36,7.27,7.27,0,0,1-1.27-.13,7.45,7.45,0,0,1-1.34-.35l1.09-4.71h2v.16c0,1,.46,1.45,1.39,1.45a4.73,4.73,0,0,0,2.84-1.32A30.59,30.59,0,0,0,983,117.91Z"/><path d="M951.22,181.25a20.46,20.46,0,0,0-.46,2.35,11.54,11.54,0,0,0-.12,1.56,2,2,0,0,0,.39,1.37,1.41,1.41,0,0,0,1.11.43,2.27,2.27,0,0,0,.88-.18,4.5,4.5,0,0,0,1-.54,11.89,11.89,0,0,0,1.12-1q.61-.59,1.38-1.41c.27.28.54.56.83.83l.82.81c-.83.85-1.59,1.58-2.27,2.18a13.6,13.6,0,0,1-2,1.5A7.51,7.51,0,0,1,952,190a6.85,6.85,0,0,1-1.92.27,3.49,3.49,0,0,1-2.79-1.16,4.73,4.73,0,0,1-1-3.18,6.62,6.62,0,0,1,.35-2.14l-.35-.15a26.39,26.39,0,0,1-2.46,3,16,16,0,0,1-2.37,2.06,8.74,8.74,0,0,1-2.37,1.18,8.21,8.21,0,0,1-2.49.38,5.42,5.42,0,0,1-4.58-2.13,10.1,10.1,0,0,1-1.62-6.19,20.84,20.84,0,0,1,.51-4.65,19.74,19.74,0,0,1,1.45-4.19,17.67,17.67,0,0,1,2.23-3.56,15.34,15.34,0,0,1,2.84-2.75,12.93,12.93,0,0,1,3.28-1.78,10.62,10.62,0,0,1,3.62-.64,12.85,12.85,0,0,1,3,.33A6.68,6.68,0,0,1,950,166c.28-1,.5-1.94.67-2.68s.3-1.42.41-2a9.13,9.13,0,0,0,.16-1.55,2.29,2.29,0,0,0-.14-.88,1.2,1.2,0,0,0-.48-.57,2.45,2.45,0,0,0-1-.32,14.34,14.34,0,0,0-1.61-.15l.32-1.7,7.43-.3H957Zm-3.37-5.5c.19-.9.35-1.8.5-2.69a15.13,15.13,0,0,0,.23-2.47,3.8,3.8,0,0,0-.91-2.86,4.16,4.16,0,0,0-2.91-.85,6,6,0,0,0-2.72.63,8.5,8.5,0,0,0-2.31,1.75,13.51,13.51,0,0,0-1.87,2.56,19.54,19.54,0,0,0-1.38,3.12,22.72,22.72,0,0,0-.85,3.39,20.7,20.7,0,0,0-.28,3.37,8.14,8.14,0,0,0,.76,4,2.61,2.61,0,0,0,2.45,1.31,5.36,5.36,0,0,0,2.54-.77,10.87,10.87,0,0,0,2.71-2.23,17.74,17.74,0,0,0,2.4-3.55A18,18,0,0,0,947.85,175.75Z"/><path d="M979,185a27.54,27.54,0,0,1-2.41,2.42,15.75,15.75,0,0,1-2.24,1.63,9.11,9.11,0,0,1-2.17.92,8.55,8.55,0,0,1-2.19.29,6.17,6.17,0,0,1-4.42-1.4,5.4,5.4,0,0,1-1.46-4.11,16.9,16.9,0,0,1,.13-2,20.47,20.47,0,0,1,.39-2.15l3-12.91h-4.29l.5-1.92a7.53,7.53,0,0,0,2.33-.28,4.38,4.38,0,0,0,1.41-.79,5.36,5.36,0,0,0,.72-.86,11,11,0,0,0,.7-1.23c.23-.48.46-1.05.71-1.71s.51-1.42.81-2.3h3.88L973,164.94h8.47l-.57,2.76h-8.45l-2.54,10.44c-.16.7-.3,1.32-.41,1.88s-.19,1.06-.26,1.51-.11.85-.14,1.22,0,.7,0,1a3.83,3.83,0,0,0,.62,2.34,2.34,2.34,0,0,0,2,.85,4.65,4.65,0,0,0,2.54-.89,17.11,17.11,0,0,0,3.07-2.77Z"/><rect x="909.56" y="131.54" width="92.44" height="4.6"/><path d="M1026,154.76a34,34,0,0,1-1.92,6.3,14.81,14.81,0,0,1-3,4.61,11.73,11.73,0,0,1-4.3,2.83,17.12,17.12,0,0,1-5.9,1,13.28,13.28,0,0,1-1.7-.09,6.77,6.77,0,0,1-1.21-.26l.79-3a6.07,6.07,0,0,0,1.21.22c.45,0,.91,0,1.39,0a7.7,7.7,0,0,0,2.64-.43,5.35,5.35,0,0,0,2.23-1.61,11.92,11.92,0,0,0,1.88-3.26,32.73,32.73,0,0,0,1.58-5.36l5.55-24.68c.28-1.21.48-2.23.6-3a13.64,13.64,0,0,0,.19-2.09,4.27,4.27,0,0,0-.17-1.3,1.49,1.49,0,0,0-.6-.81,2.93,2.93,0,0,0-1.13-.41c-.47-.08-1.05-.14-1.73-.19l.37-1.82,8.37-.3h2Z"/><text class="cls-2" transform="translate(1039.63 154.18)">̂</text><text class="cls-2" transform="translate(1039.63 154.18)"><tspan class="cls-4"> </tspan><tspan x="15.39" y="0"> </tspan></text><text class="cls-2" transform="translate(1086.03 154.18)">+</text><path d="M1178.31,104.15a20.78,20.78,0,0,0-.46,2.34,11.67,11.67,0,0,0-.12,1.57,2,2,0,0,0,.39,1.37,1.44,1.44,0,0,0,1.11.42,2.26,2.26,0,0,0,.88-.17,4.58,4.58,0,0,0,1-.55,11.89,11.89,0,0,0,1.12-1c.41-.39.87-.86,1.38-1.4.27.28.54.56.83.83l.82.81c-.83.85-1.59,1.57-2.27,2.18a13.48,13.48,0,0,1-2,1.49,7.57,7.57,0,0,1-1.88.85,6.8,6.8,0,0,1-1.92.26,3.47,3.47,0,0,1-2.79-1.16,4.72,4.72,0,0,1-1-3.17,6.62,6.62,0,0,1,.35-2.14l-.35-.15a26.39,26.39,0,0,1-2.46,3,16,16,0,0,1-2.37,2.06,8.74,8.74,0,0,1-2.37,1.18,8.2,8.2,0,0,1-2.49.37,5.42,5.42,0,0,1-4.58-2.13,10.08,10.08,0,0,1-1.62-6.19,20.69,20.69,0,0,1,.51-4.64,19.74,19.74,0,0,1,1.45-4.19,17.67,17.67,0,0,1,2.23-3.56,15.34,15.34,0,0,1,2.84-2.75,12.63,12.63,0,0,1,3.28-1.78,10.38,10.38,0,0,1,3.62-.64,13.43,13.43,0,0,1,3,.32,6.85,6.85,0,0,1,2.62,1.3c.28-1.05.5-1.94.67-2.68s.3-1.42.41-2a9.13,9.13,0,0,0,.16-1.56,2.42,2.42,0,0,0-.13-.87,1.28,1.28,0,0,0-.49-.57,2.61,2.61,0,0,0-1-.33c-.43-.06-1-.11-1.61-.15l.32-1.69,7.43-.3h1.27Zm-3.37-5.51c.19-.89.35-1.79.5-2.69a14.92,14.92,0,0,0,.23-2.46,3.83,3.83,0,0,0-.91-2.87,4.22,4.22,0,0,0-2.91-.84,6,6,0,0,0-2.72.63,8.5,8.5,0,0,0-2.31,1.75,13.2,13.2,0,0,0-1.87,2.56,19.15,19.15,0,0,0-1.38,3.12,22.9,22.9,0,0,0-.85,3.38,20.82,20.82,0,0,0-.28,3.38,8.19,8.19,0,0,0,.76,4,2.61,2.61,0,0,0,2.45,1.3,5.25,5.25,0,0,0,2.54-.77,10.65,10.65,0,0,0,2.71-2.23,17.18,17.18,0,0,0,2.4-3.55A17.79,17.79,0,0,0,1174.94,98.64Z"/><path d="M1197.34,113.17a2.83,2.83,0,0,1-1.49-.36,2.34,2.34,0,0,1-.92-1,4.93,4.93,0,0,1-.45-1.56,13.39,13.39,0,0,1-.13-2,27.56,27.56,0,0,1,.18-3c.11-1.08.26-2.17.45-3.26q1.32-8,1.32-9.29a2,2,0,0,0-.22-1.26.86.86,0,0,0-.73-.34,2.33,2.33,0,0,0-1.06.28,7.3,7.3,0,0,0-1.13.69c-.39.29-.75.59-1.11.91l-1,.91-1.37-1.67c.55-.58,1.13-1.16,1.76-1.74a15.77,15.77,0,0,1,2-1.58,9.93,9.93,0,0,1,2.19-1.14,6.64,6.64,0,0,1,2.31-.42,3.2,3.2,0,0,1,1.74.42,3.25,3.25,0,0,1,1,1.11,4.76,4.76,0,0,1,.53,1.51,10,10,0,0,1,.13,1.62,10.13,10.13,0,0,1-.1,1.27l-1.57,9c-.15.86-.27,1.71-.37,2.54a18.58,18.58,0,0,0-.15,2.19,8,8,0,0,0,.12,1.54c.09.4.17.6.25.6a4.81,4.81,0,0,0,2-.63,15.91,15.91,0,0,0,2.62-1.75,23.88,23.88,0,0,0,2.77-2.62,22.5,22.5,0,0,0,2.48-3.31,19.33,19.33,0,0,0,1.78-3.73,11.81,11.81,0,0,0,.68-4,2.62,2.62,0,0,0-.43-1.69,1.46,1.46,0,0,0-1.18-.53,2.73,2.73,0,0,0-1.7.76,14.54,14.54,0,0,0-1.87,2l-1.47-1.47a12.84,12.84,0,0,1,1.42-1.85,12.15,12.15,0,0,1,1.75-1.56,8.59,8.59,0,0,1,1.9-1.07,5.06,5.06,0,0,1,1.93-.4,3.23,3.23,0,0,1,2.84,1.23,5.65,5.65,0,0,1,.88,3.3,10.27,10.27,0,0,1-.44,2.74,22.3,22.3,0,0,1-1.23,3.27,38.45,38.45,0,0,1-1.9,3.52,35.6,35.6,0,0,1-2.43,3.52,34.65,34.65,0,0,1-2.84,3.21,23,23,0,0,1-3.13,2.63,17,17,0,0,1-3.32,1.78A9.12,9.12,0,0,1,1197.34,113.17Z"/><path d="M1235.39,116.77l-1.33,6.33h-17l-.68-1.33L1228.11,109q2.06-2.22,4.29-4.35l-.1-.16h-5.49a5.21,5.21,0,0,0-2,.31,4.48,4.48,0,0,0-1.42,1.13,10.89,10.89,0,0,0-1.52,2.34h-2.29l1.3-6h16.71l.66,1.31-11.93,13c-.61.63-2,2-4.13,4.19l.1.12h5.24a8.79,8.79,0,0,0,2.48-.24,3,3,0,0,0,1.34-.93,15.26,15.26,0,0,0,1.72-2.94Z"/><path d="M1193.27,181.25a20.46,20.46,0,0,0-.46,2.35,11.54,11.54,0,0,0-.12,1.56,2,2,0,0,0,.39,1.37,1.41,1.41,0,0,0,1.11.43,2.27,2.27,0,0,0,.88-.18,4.5,4.5,0,0,0,1-.54,11.89,11.89,0,0,0,1.12-1q.61-.59,1.38-1.41c.27.28.54.56.83.83l.82.81c-.83.85-1.59,1.58-2.27,2.18a13.6,13.6,0,0,1-2,1.5,7.51,7.51,0,0,1-1.88.84,6.8,6.8,0,0,1-1.92.27,3.51,3.51,0,0,1-2.79-1.16,4.73,4.73,0,0,1-1-3.18,6.62,6.62,0,0,1,.35-2.14l-.35-.15a26.39,26.39,0,0,1-2.46,3,16,16,0,0,1-2.37,2.06,8.83,8.83,0,0,1-2.36,1.18,8.32,8.32,0,0,1-2.5.38,5.42,5.42,0,0,1-4.58-2.13,10.1,10.1,0,0,1-1.62-6.19,20.84,20.84,0,0,1,.51-4.65,19.74,19.74,0,0,1,1.45-4.19,17.67,17.67,0,0,1,2.23-3.56,15.34,15.34,0,0,1,2.84-2.75,12.93,12.93,0,0,1,3.28-1.78,10.62,10.62,0,0,1,3.62-.64,12.85,12.85,0,0,1,3,.33A6.68,6.68,0,0,1,1192,166c.28-1,.5-1.94.67-2.68s.3-1.42.41-2a9.13,9.13,0,0,0,.16-1.55,2.51,2.51,0,0,0-.13-.88,1.28,1.28,0,0,0-.49-.57,2.45,2.45,0,0,0-1-.32,14.34,14.34,0,0,0-1.61-.15l.32-1.7,7.43-.3h1.27Zm-3.37-5.5c.19-.9.35-1.8.5-2.69a15.13,15.13,0,0,0,.23-2.47,3.8,3.8,0,0,0-.91-2.86,4.15,4.15,0,0,0-2.9-.85,6,6,0,0,0-2.73.63,8.5,8.5,0,0,0-2.31,1.75,13.51,13.51,0,0,0-1.87,2.56,19.54,19.54,0,0,0-1.38,3.12,21.53,21.53,0,0,0-.84,3.39,19.68,19.68,0,0,0-.29,3.37,8.14,8.14,0,0,0,.76,4,2.61,2.61,0,0,0,2.45,1.31,5.36,5.36,0,0,0,2.54-.77,10.87,10.87,0,0,0,2.71-2.23,17.74,17.74,0,0,0,2.4-3.55A18,18,0,0,0,1189.9,175.75Z"/><path d="M1221.09,185a29,29,0,0,1-2.42,2.42,15.75,15.75,0,0,1-2.24,1.63,9.11,9.11,0,0,1-2.17.92,8.5,8.5,0,0,1-2.19.29,6.17,6.17,0,0,1-4.42-1.4,5.4,5.4,0,0,1-1.46-4.11,15.18,15.18,0,0,1,.14-2,20.48,20.48,0,0,1,.38-2.15l3-12.91h-4.29l.5-1.92a7.53,7.53,0,0,0,2.33-.28,4.38,4.38,0,0,0,1.41-.79,4.88,4.88,0,0,0,.72-.86,11,11,0,0,0,.7-1.23c.23-.48.47-1.05.71-1.71s.51-1.42.81-2.3h3.88l-1.42,6.33h8.47l-.57,2.76h-8.45l-2.54,10.44c-.16.7-.3,1.32-.41,1.88s-.19,1.06-.26,1.51-.11.85-.14,1.22,0,.7,0,1a3.83,3.83,0,0,0,.62,2.34,2.34,2.34,0,0,0,2,.85,4.65,4.65,0,0,0,2.54-.89,17.11,17.11,0,0,0,3.07-2.77Z"/><rect x="1154.29" y="131.54" width="87.08" height="4.6"/><path d="M1271.32,140.09a6.39,6.39,0,0,0-.68-1.86,1.68,1.68,0,0,0-.79-.68,5.11,5.11,0,0,0-1.58-.17h-2.36l-3.57,16.79h-5.93l8.81-39.17c.3-1.33.51-2.36.64-3.11a12.62,12.62,0,0,0,.19-2,2.26,2.26,0,0,0-.88-2,6.29,6.29,0,0,0-3.13-.65l.41-1.78,8.67-.31h2l-6.72,29.92h1.1a10.46,10.46,0,0,0,5.77-2.24,38.93,38.93,0,0,0,5.13-4.17,5.45,5.45,0,0,0,1.91-3.7c0-1.12-.77-1.75-2.33-1.89l.38-1.68h11.11l.65,1.68q-2.85,2.58-6,5l-8.51,6.58,3.36,12.38a15.23,15.23,0,0,0,.74,2.28,2.91,2.91,0,0,0,.75,1,1.79,1.79,0,0,0,1.15.35,3.7,3.7,0,0,0,2.13-1,21.19,21.19,0,0,0,2.81-2.78l2,1.92a28.91,28.91,0,0,1-5.1,4.52,7.36,7.36,0,0,1-3.91,1.27,5.09,5.09,0,0,1-3.7-1.32,9.16,9.16,0,0,1-2.16-4.4Z"/><text class="cls-2" transform="translate(1313.49 154.18)">=</text><path d="M1409.62,104.15a20.78,20.78,0,0,0-.46,2.34,11.67,11.67,0,0,0-.12,1.57,2,2,0,0,0,.39,1.37,1.44,1.44,0,0,0,1.11.42,2.26,2.26,0,0,0,.88-.17,4.58,4.58,0,0,0,.95-.55,11.89,11.89,0,0,0,1.12-1c.41-.39.87-.86,1.38-1.4.27.28.54.56.82.83s.56.54.83.81c-.83.85-1.59,1.57-2.27,2.18a13.48,13.48,0,0,1-2,1.49,7.57,7.57,0,0,1-1.88.85,6.84,6.84,0,0,1-1.92.26,3.46,3.46,0,0,1-2.79-1.16,4.72,4.72,0,0,1-1-3.17,6.62,6.62,0,0,1,.35-2.14l-.35-.15a26.39,26.39,0,0,1-2.46,3,16,16,0,0,1-2.37,2.06,8.74,8.74,0,0,1-2.37,1.18,8.2,8.2,0,0,1-2.49.37,5.42,5.42,0,0,1-4.58-2.13,10.08,10.08,0,0,1-1.62-6.19,20.69,20.69,0,0,1,.51-4.64,19.74,19.74,0,0,1,1.45-4.19,17.67,17.67,0,0,1,2.23-3.56,15.34,15.34,0,0,1,2.84-2.75A12.63,12.63,0,0,1,1399.1,88a10.38,10.38,0,0,1,3.62-.64,13.43,13.43,0,0,1,3,.32,6.85,6.85,0,0,1,2.62,1.3c.28-1.05.5-1.94.67-2.68s.3-1.42.41-2a9.13,9.13,0,0,0,.16-1.56,2.2,2.2,0,0,0-.14-.87,1.2,1.2,0,0,0-.48-.57,2.6,2.6,0,0,0-1-.33c-.42-.06-1-.11-1.6-.15l.32-1.69,7.43-.3h1.27Zm-3.37-5.51c.19-.89.35-1.79.5-2.69a14.92,14.92,0,0,0,.23-2.46,3.83,3.83,0,0,0-.91-2.87,4.22,4.22,0,0,0-2.91-.84,6,6,0,0,0-2.72.63,8.5,8.5,0,0,0-2.31,1.75,12.79,12.79,0,0,0-1.87,2.56,19.15,19.15,0,0,0-1.38,3.12,22.9,22.9,0,0,0-.85,3.38,20.82,20.82,0,0,0-.28,3.38,8.19,8.19,0,0,0,.76,4,2.61,2.61,0,0,0,2.45,1.3,5.25,5.25,0,0,0,2.54-.77,10.65,10.65,0,0,0,2.71-2.23,17.18,17.18,0,0,0,2.4-3.55A17.79,17.79,0,0,0,1406.25,98.64Z"/><text class="cls-5" transform="translate(1419.74 93.95)">2</text><path d="M1459.77,100.74,1459,97.1c-.23-1-.43-1.91-.63-2.65a14.85,14.85,0,0,0-.56-1.81,5.69,5.69,0,0,0-.56-1.11,1.69,1.69,0,0,0-.62-.58,1.73,1.73,0,0,0-.78-.2,2,2,0,0,0-.79.14,2.47,2.47,0,0,0-.75.48,6.81,6.81,0,0,0-.84,1c-.31.42-.66,1-1.06,1.62l-1.92-1.24c.68-1,1.3-1.87,1.84-2.57a10,10,0,0,1,1.62-1.67,5.49,5.49,0,0,1,1.68-.9,7,7,0,0,1,2-.27,3.88,3.88,0,0,1,2.25.6,4.49,4.49,0,0,1,1.44,1.74,12.64,12.64,0,0,1,1,2.83c.25,1.12.51,2.4.8,3.85h.32l2.59-3.41c.73-1,1.38-1.78,2-2.45a19.33,19.33,0,0,1,1.54-1.62,6.49,6.49,0,0,1,1.33-.95,4.76,4.76,0,0,1,1.34-.47,8.8,8.8,0,0,1,1.53-.12,5.53,5.53,0,0,1,2.26.45l-1.24,4.91h-2.07c-.05-.72-.31-1.07-.8-1.07a2.17,2.17,0,0,0-.59.09,3.21,3.21,0,0,0-.78.4,9.6,9.6,0,0,0-1,.84c-.39.36-.85.82-1.38,1.39s-1.14,1.28-1.82,2.11-1.46,1.81-2.34,2.94c.45,2.29.83,4.12,1.16,5.5A21.79,21.79,0,0,0,1466,108a3.5,3.5,0,0,0,.9,1.43,1.69,1.69,0,0,0,1,.34,3.2,3.2,0,0,0,.78-.1,2.12,2.12,0,0,0,.75-.44,6.32,6.32,0,0,0,.86-1c.32-.43.69-1,1.12-1.68l1.87,1.22c-.73,1.09-1.38,2-1.94,2.69a9.75,9.75,0,0,1-1.65,1.64,4.57,4.57,0,0,1-1.64.81,8.15,8.15,0,0,1-2,.21,5,5,0,0,1-1.69-.26,2.72,2.72,0,0,1-1.29-1,4.39,4.39,0,0,1-.7-1.13,14.34,14.34,0,0,1-.6-1.53c-.18-.55-.35-1.12-.5-1.71s-.27-1.14-.37-1.66-.18-1-.24-1.38-.09-.71-.11-.91h-.27l-2.61,3.48c-.74,1-1.41,1.83-2,2.54a22.69,22.69,0,0,1-1.62,1.74,7.71,7.71,0,0,1-1.42,1.09,5.11,5.11,0,0,1-1.43.54,8.32,8.32,0,0,1-1.64.15,5,5,0,0,1-2.21-.45l1.14-4.85h2.12c0,.73.32,1.09.82,1.09a2.56,2.56,0,0,0,.54-.1,2.33,2.33,0,0,0,.61-.31,7.25,7.25,0,0,0,.88-.75c.36-.34.81-.81,1.36-1.42s1.22-1.36,2-2.27S1458.66,102.08,1459.77,100.74Z"/><path d="M1427.65,181.24c-.23,1-.38,1.76-.46,2.34a13.4,13.4,0,0,0-.11,1.57,2,2,0,0,0,.38,1.37,1.44,1.44,0,0,0,1.11.42,2.31,2.31,0,0,0,.89-.17,4.54,4.54,0,0,0,.94-.55,11.89,11.89,0,0,0,1.13-1c.4-.39.86-.86,1.38-1.4.26.28.54.56.82.83s.56.54.82.81c-.83.85-1.58,1.57-2.27,2.18a13.48,13.48,0,0,1-2,1.49,7.41,7.41,0,0,1-1.88.85,7.1,7.1,0,0,1-1.91.26,3.45,3.45,0,0,1-2.79-1.16,4.67,4.67,0,0,1-1-3.17,6.36,6.36,0,0,1,.35-2.14l-.35-.15a27.5,27.5,0,0,1-2.47,3,15.44,15.44,0,0,1-2.36,2.06,9,9,0,0,1-2.37,1.18,8.3,8.3,0,0,1-2.49.37,5.43,5.43,0,0,1-4.59-2.13c-1.08-1.42-1.61-3.48-1.61-6.19a20.69,20.69,0,0,1,.51-4.64,20.09,20.09,0,0,1,1.44-4.19,18.13,18.13,0,0,1,2.23-3.56,15.34,15.34,0,0,1,2.84-2.75,13,13,0,0,1,3.29-1.79,10.55,10.55,0,0,1,3.61-.63,13.36,13.36,0,0,1,3,.32,6.78,6.78,0,0,1,2.62,1.3c.28-1.05.51-1.94.67-2.68s.31-1.42.41-2a9.28,9.28,0,0,0,.17-1.56,2.4,2.4,0,0,0-.14-.87,1.16,1.16,0,0,0-.49-.57,2.61,2.61,0,0,0-1-.33c-.42-.06-1-.11-1.61-.15l.33-1.69,7.42-.3h1.27Zm-3.36-5.51c.18-.89.35-1.79.5-2.69a14.94,14.94,0,0,0,.22-2.46,3.78,3.78,0,0,0-.91-2.87,4.19,4.19,0,0,0-2.9-.84,6,6,0,0,0-2.73.63,8.27,8.27,0,0,0-2.3,1.74,13.16,13.16,0,0,0-1.87,2.57,17.8,17.8,0,0,0-1.38,3.11,21.53,21.53,0,0,0-1.14,6.77,8.31,8.31,0,0,0,.76,4A2.63,2.63,0,0,0,1415,187a5.28,5.28,0,0,0,2.54-.77,10.45,10.45,0,0,0,2.7-2.23,17.18,17.18,0,0,0,2.4-3.55A18.16,18.16,0,0,0,1424.29,175.73Z"/><path d="M1455.47,185a27.33,27.33,0,0,1-2.42,2.41,13.87,13.87,0,0,1-2.24,1.63,9,9,0,0,1-2.17.93,8.43,8.43,0,0,1-2.19.28,6.17,6.17,0,0,1-4.42-1.39,5.44,5.44,0,0,1-1.46-4.11,16.91,16.91,0,0,1,.14-2,18.72,18.72,0,0,1,.39-2.16l3-12.9h-4.28l.49-1.92a7.44,7.44,0,0,0,2.33-.29,4.16,4.16,0,0,0,1.41-.78,4.88,4.88,0,0,0,.72-.86,8.55,8.55,0,0,0,.7-1.23c.23-.49.47-1.05.71-1.71s.51-1.42.81-2.31h3.89l-1.42,6.33h8.47l-.58,2.77h-8.44l-2.54,10.44c-.17.69-.31,1.32-.41,1.88s-.2,1.05-.27,1.5-.11.86-.13,1.22,0,.71,0,1a3.94,3.94,0,0,0,.62,2.34,2.39,2.39,0,0,0,2.05.84,4.69,4.69,0,0,0,2.54-.88,17.57,17.57,0,0,0,3.06-2.78Z"/><rect x="1385.6" y="131.54" width="92.83" height="4.6"/><path d="M1498.27,131.07c.27-1.21.47-2.23.6-3a13.64,13.64,0,0,0,.19-2.09,4.27,4.27,0,0,0-.17-1.3,1.6,1.6,0,0,0-.6-.81,3,3,0,0,0-1.13-.41c-.47-.08-1.05-.14-1.73-.19l.37-1.82,8.37-.3h2l-4.94,22c-.25,1.1-.44,2.07-.56,2.92a14.36,14.36,0,0,0-.19,2.16,3.49,3.49,0,0,0,.44,2,1.63,1.63,0,0,0,1.41.62,3.86,3.86,0,0,0,2.4-1,29.47,29.47,0,0,0,3.08-3l2,1.91c-1.08,1.12-2,2.07-2.9,2.85a17.06,17.06,0,0,1-2.43,1.88,8.32,8.32,0,0,1-2.3,1,9.56,9.56,0,0,1-2.52.31A4.4,4.4,0,0,1,1496,153a5.62,5.62,0,0,1-.94-1.84,7.35,7.35,0,0,1-.33-2.24,20.72,20.72,0,0,1,.24-2.9q.24-1.67.72-3.75Z"/><text class="cls-2" transform="translate(1512.54 154.18)">̂</text><text class="cls-2" transform="translate(1512.54 154.18)"> </text><text class="cls-2" transform="translate(1283.95 133.84)">̂</text><text class="cls-2" transform="translate(1283.95 133.84)"> </text><text class="cls-2" transform="translate(1543.64 154.18)">+</text><path d="M1635.94,104.15a23.34,23.34,0,0,0-.46,2.34,11.53,11.53,0,0,0-.11,1.57,2,2,0,0,0,.38,1.37,1.44,1.44,0,0,0,1.11.42,2.34,2.34,0,0,0,.89-.17,4.54,4.54,0,0,0,.94-.55,10.75,10.75,0,0,0,1.12-1c.41-.39.87-.86,1.39-1.4.26.28.54.56.82.83l.82.81c-.83.85-1.59,1.57-2.27,2.18a13.48,13.48,0,0,1-2,1.49,7.41,7.41,0,0,1-1.88.85,6.75,6.75,0,0,1-1.92.26A3.47,3.47,0,0,1,1632,112a4.72,4.72,0,0,1-1-3.17,6.36,6.36,0,0,1,.35-2.14l-.35-.15a27.5,27.5,0,0,1-2.47,3,16,16,0,0,1-2.37,2.06,8.83,8.83,0,0,1-2.36,1.18,8.3,8.3,0,0,1-2.49.37,5.43,5.43,0,0,1-4.59-2.13,10.08,10.08,0,0,1-1.62-6.19,20.69,20.69,0,0,1,.51-4.64,20.32,20.32,0,0,1,1.45-4.19,17.67,17.67,0,0,1,2.23-3.56,15.34,15.34,0,0,1,2.84-2.75,12.53,12.53,0,0,1,3.29-1.78,10.29,10.29,0,0,1,3.61-.64,13.36,13.36,0,0,1,3,.32,6.78,6.78,0,0,1,2.62,1.3c.28-1.05.51-1.94.67-2.68s.3-1.42.41-2a9.13,9.13,0,0,0,.16-1.56,2.42,2.42,0,0,0-.13-.87,1.22,1.22,0,0,0-.49-.57,2.61,2.61,0,0,0-1-.33c-.43-.06-1-.11-1.61-.15L1633,79l7.43-.3h1.27Zm-3.36-5.51c.18-.89.35-1.79.49-2.69a14.92,14.92,0,0,0,.23-2.46,3.78,3.78,0,0,0-.91-2.87,4.19,4.19,0,0,0-2.9-.84,6,6,0,0,0-2.73.63,8.31,8.31,0,0,0-2.3,1.75,12.79,12.79,0,0,0-1.87,2.56,18.36,18.36,0,0,0-1.39,3.12,21.69,21.69,0,0,0-.84,3.38,20.86,20.86,0,0,0-.29,3.38,8.19,8.19,0,0,0,.76,4,2.63,2.63,0,0,0,2.45,1.3,5.29,5.29,0,0,0,2.55-.77,10.45,10.45,0,0,0,2.7-2.23,17.18,17.18,0,0,0,2.4-3.55A18.16,18.16,0,0,0,1632.58,98.64Z"/><text class="cls-5" transform="translate(1646.07 93.95)">2</text><path d="M1686.62,112.6q-.82-4.74-1.45-8.19T1684,98.53c-.34-1.62-.65-2.93-.93-4a15.75,15.75,0,0,0-.83-2.36,3,3,0,0,0-.81-1.16,1.39,1.39,0,0,0-.88-.31,3,3,0,0,0-.82.11,2,2,0,0,0-.77.46,5.25,5.25,0,0,0-.86,1q-.47.63-1.14,1.65l-1.92-1.24a31.12,31.12,0,0,1,2-2.62,9.62,9.62,0,0,1,1.78-1.66,6.53,6.53,0,0,1,1.81-.87,7.54,7.54,0,0,1,2-.26,5.36,5.36,0,0,1,1.54.19,3.56,3.56,0,0,1,1.17.58,4.14,4.14,0,0,1,.94,1,13.06,13.06,0,0,1,.83,1.53,10.69,10.69,0,0,1,.47,1.57c.17.68.35,1.47.53,2.36s.36,1.89.55,3,.36,2.21.54,3.39.36,2.38.53,3.62.32,2.46.47,3.65a53,53,0,0,0,5.89-9.68,29.59,29.59,0,0,0,1.58-4.06,10.11,10.11,0,0,0,.53-2.92,1.89,1.89,0,0,0-.58-1.57,3.29,3.29,0,0,0-1.91-.55l.32-1.6h7.1l.87,1.45a92.52,92.52,0,0,1-5.82,11.87,99.28,99.28,0,0,1-7.51,11.1c-1.21,1.44-2.3,2.69-3.27,3.73s-1.87,2-2.69,2.71a21.39,21.39,0,0,1-2.29,1.85,13.21,13.21,0,0,1-2.06,1.16,8.87,8.87,0,0,1-2,.62,13.51,13.51,0,0,1-2.06.24,9.65,9.65,0,0,1-1.38-.12,10.5,10.5,0,0,1-1.43-.33l1.25-5.45h2.26v.15c0,1.12.46,1.69,1.37,1.69a6.15,6.15,0,0,0,3.69-1.41A31.14,31.14,0,0,0,1686.62,112.6Z"/><path d="M1654.74,181.24a23.34,23.34,0,0,0-.46,2.34,11.53,11.53,0,0,0-.11,1.57,2,2,0,0,0,.38,1.37,1.44,1.44,0,0,0,1.11.42,2.34,2.34,0,0,0,.89-.17,4.54,4.54,0,0,0,.94-.55,10.75,10.75,0,0,0,1.12-1c.41-.39.87-.86,1.39-1.4.26.28.54.56.82.83l.82.81c-.83.85-1.59,1.57-2.27,2.18a13.48,13.48,0,0,1-2,1.49,7.41,7.41,0,0,1-1.88.85,7.12,7.12,0,0,1-1.92.26,3.47,3.47,0,0,1-2.79-1.16,4.72,4.72,0,0,1-1-3.17,6.36,6.36,0,0,1,.35-2.14l-.35-.15a27.5,27.5,0,0,1-2.47,3,16,16,0,0,1-2.37,2.06,9.14,9.14,0,0,1-2.36,1.18,8.3,8.3,0,0,1-2.49.37,5.43,5.43,0,0,1-4.59-2.13,10.08,10.08,0,0,1-1.62-6.19,20.69,20.69,0,0,1,.51-4.64,20.11,20.11,0,0,1,1.45-4.19,17.67,17.67,0,0,1,2.23-3.56,15.34,15.34,0,0,1,2.84-2.75,12.86,12.86,0,0,1,3.29-1.79,10.51,10.51,0,0,1,3.61-.63,13.36,13.36,0,0,1,3,.32,6.78,6.78,0,0,1,2.62,1.3c.28-1.05.51-1.94.67-2.68s.3-1.42.41-2a9.13,9.13,0,0,0,.16-1.56,2.42,2.42,0,0,0-.13-.87,1.22,1.22,0,0,0-.49-.57,2.61,2.61,0,0,0-1-.33c-.43-.06-1-.11-1.61-.15l.32-1.69,7.43-.3h1.27Zm-3.36-5.51c.18-.89.35-1.79.49-2.69a15,15,0,0,0,.23-2.46,3.78,3.78,0,0,0-.91-2.87,4.19,4.19,0,0,0-2.9-.84,6,6,0,0,0-2.73.63,8.27,8.27,0,0,0-2.3,1.74,12.76,12.76,0,0,0-1.87,2.57,18.61,18.61,0,0,0-1.39,3.11,22.09,22.09,0,0,0-.84,3.39,20.86,20.86,0,0,0-.29,3.38,8.19,8.19,0,0,0,.76,4,2.62,2.62,0,0,0,2.45,1.3,5.29,5.29,0,0,0,2.55-.77,10.45,10.45,0,0,0,2.7-2.23,17.18,17.18,0,0,0,2.4-3.55A18.16,18.16,0,0,0,1651.38,175.73Z"/><path d="M1682.56,185a28.75,28.75,0,0,1-2.42,2.41,13.87,13.87,0,0,1-2.24,1.63,9,9,0,0,1-2.17.93,8.43,8.43,0,0,1-2.19.28,6.17,6.17,0,0,1-4.42-1.39,5.44,5.44,0,0,1-1.46-4.11,16.91,16.91,0,0,1,.14-2,21.14,21.14,0,0,1,.38-2.16l3-12.9h-4.29l.5-1.92a7.48,7.48,0,0,0,2.33-.29,4.16,4.16,0,0,0,1.41-.78,4.88,4.88,0,0,0,.72-.86,9.61,9.61,0,0,0,.7-1.23c.23-.49.47-1.05.71-1.71s.51-1.42.81-2.31h3.88l-1.42,6.33H1685l-.57,2.77H1676l-2.54,10.44c-.17.69-.31,1.32-.42,1.88s-.19,1.05-.26,1.5-.11.86-.13,1.22,0,.71,0,1a3.94,3.94,0,0,0,.62,2.34,2.38,2.38,0,0,0,2,.84,4.63,4.63,0,0,0,2.54-.88,17.22,17.22,0,0,0,3.07-2.78Z"/><rect x="1611.92" y="131.54" width="94.75" height="4.6"/><path d="M1731.08,154.76a35.59,35.59,0,0,1-1.92,6.3,15,15,0,0,1-3,4.61,11.65,11.65,0,0,1-4.3,2.83,17.08,17.08,0,0,1-5.9,1,13,13,0,0,1-1.69-.09,6.89,6.89,0,0,1-1.22-.26l.79-3a6.17,6.17,0,0,0,1.22.22c.44,0,.9,0,1.38,0a7.7,7.7,0,0,0,2.64-.43,5.29,5.29,0,0,0,2.23-1.61,11.67,11.67,0,0,0,1.89-3.26,32.83,32.83,0,0,0,1.57-5.36l5.56-24.68c.27-1.21.47-2.23.6-3a14.84,14.84,0,0,0,.18-2.09,4,4,0,0,0-.17-1.3,1.49,1.49,0,0,0-.6-.81,2.87,2.87,0,0,0-1.13-.41c-.47-.08-1-.14-1.73-.19l.38-1.82,8.36-.3h2Z"/><text class="cls-2" transform="translate(1744.68 154.18)">̂</text><text class="cls-2" transform="translate(1989.11 136.15)">̂</text><text class="cls-2" transform="translate(1791.08 154.18)">+</text><path d="M1883.36,104.15a23.34,23.34,0,0,0-.46,2.34,11.53,11.53,0,0,0-.11,1.57,2,2,0,0,0,.38,1.37,1.44,1.44,0,0,0,1.11.42,2.31,2.31,0,0,0,.89-.17,4.54,4.54,0,0,0,.94-.55,10.75,10.75,0,0,0,1.12-1c.41-.39.87-.86,1.39-1.4.26.28.54.56.82.83s.56.54.82.81c-.83.85-1.59,1.57-2.27,2.18a13.48,13.48,0,0,1-2,1.49,7.41,7.41,0,0,1-1.88.85,6.75,6.75,0,0,1-1.92.26,3.47,3.47,0,0,1-2.79-1.16,4.72,4.72,0,0,1-1-3.17,6.36,6.36,0,0,1,.35-2.14l-.35-.15a27.5,27.5,0,0,1-2.47,3,15.93,15.93,0,0,1-2.36,2.06,8.89,8.89,0,0,1-2.37,1.18,8.3,8.3,0,0,1-2.49.37,5.43,5.43,0,0,1-4.59-2.13,10.08,10.08,0,0,1-1.62-6.19,20.78,20.78,0,0,1,2-8.83,18.13,18.13,0,0,1,2.23-3.56,15.34,15.34,0,0,1,2.84-2.75,12.68,12.68,0,0,1,3.29-1.78,10.29,10.29,0,0,1,3.61-.64,13.36,13.36,0,0,1,3,.32,6.78,6.78,0,0,1,2.62,1.3c.28-1.05.51-1.94.67-2.68s.31-1.42.41-2a9.28,9.28,0,0,0,.17-1.56,2.4,2.4,0,0,0-.14-.87,1.16,1.16,0,0,0-.49-.57,2.61,2.61,0,0,0-1-.33c-.42-.06-1-.11-1.61-.15l.33-1.69,7.42-.3h1.27ZM1880,98.64c.18-.89.35-1.79.5-2.69a14.84,14.84,0,0,0,.22-2.46,3.78,3.78,0,0,0-.91-2.87,4.19,4.19,0,0,0-2.9-.84,6,6,0,0,0-2.73.63,8.31,8.31,0,0,0-2.3,1.75,12.79,12.79,0,0,0-1.87,2.56,17.57,17.57,0,0,0-1.38,3.12,20.65,20.65,0,0,0-.85,3.38,20.86,20.86,0,0,0-.29,3.38,8.19,8.19,0,0,0,.76,4,2.63,2.63,0,0,0,2.46,1.3,5.28,5.28,0,0,0,2.54-.77,10.45,10.45,0,0,0,2.7-2.23,17.18,17.18,0,0,0,2.4-3.55A18.16,18.16,0,0,0,1880,98.64Z"/><text class="cls-5" transform="translate(1893.49 93.95)">2</text><path d="M1943.11,105.25l-1.6,7.49h-19.78l-.67-1.49,5-5.48,5.08-5.58q2.51-2.75,4.82-5.24c1.55-1.67,2.94-3.17,4.19-4.5l-.15-.13h-6.4a8.28,8.28,0,0,0-1.87.18,3.64,3.64,0,0,0-1.42.67,6.07,6.07,0,0,0-1.27,1.4,27.08,27.08,0,0,0-1.45,2.36H1925l1.55-7.1H1946l.59,1.5-3.12,3.46L1940.48,96l-2.92,3.18-3,3.28-3.29,3.59q-1.73,1.88-3.69,4a.53.53,0,0,0,.15.12h7.77a5.32,5.32,0,0,0,1.22-.14,2.94,2.94,0,0,0,1-.41,3.55,3.55,0,0,0,.86-.84,11.13,11.13,0,0,0,.9-1.44c.32-.58.69-1.3,1.12-2.16Z"/><path d="M1899.46,181.24a20.78,20.78,0,0,0-.46,2.34,11.67,11.67,0,0,0-.12,1.57,2,2,0,0,0,.39,1.37,1.44,1.44,0,0,0,1.11.42,2.26,2.26,0,0,0,.88-.17,4.58,4.58,0,0,0,1-.55,11.89,11.89,0,0,0,1.12-1c.41-.39.87-.86,1.38-1.4.27.28.54.56.82.83s.56.54.83.81c-.83.85-1.59,1.57-2.27,2.18a13.48,13.48,0,0,1-2,1.49,7.57,7.57,0,0,1-1.88.85,7.23,7.23,0,0,1-1.92.26,3.45,3.45,0,0,1-2.79-1.16,4.72,4.72,0,0,1-1-3.17,6.62,6.62,0,0,1,.35-2.14l-.35-.15a27.5,27.5,0,0,1-2.46,3,16,16,0,0,1-2.37,2.06,9,9,0,0,1-2.37,1.18,8.2,8.2,0,0,1-2.49.37,5.42,5.42,0,0,1-4.58-2.13,10.08,10.08,0,0,1-1.62-6.19,20.69,20.69,0,0,1,.51-4.64,19.55,19.55,0,0,1,1.45-4.19,17.67,17.67,0,0,1,2.23-3.56,15.34,15.34,0,0,1,2.84-2.75,12.8,12.8,0,0,1,3.28-1.79,10.61,10.61,0,0,1,3.62-.63,13.43,13.43,0,0,1,3,.32,6.85,6.85,0,0,1,2.62,1.3c.28-1.05.5-1.94.67-2.68s.3-1.42.41-2a9.13,9.13,0,0,0,.16-1.56,2.2,2.2,0,0,0-.14-.87,1.2,1.2,0,0,0-.48-.57,2.6,2.6,0,0,0-1-.33c-.42-.06-1-.11-1.6-.15l.32-1.69,7.43-.3h1.27Zm-3.37-5.51c.19-.89.35-1.79.5-2.69a15,15,0,0,0,.23-2.46,3.83,3.83,0,0,0-.91-2.87,4.22,4.22,0,0,0-2.91-.84,6,6,0,0,0-2.72.63,8.46,8.46,0,0,0-2.31,1.74,13.16,13.16,0,0,0-1.87,2.57,18.58,18.58,0,0,0-1.38,3.11,22.12,22.12,0,0,0-.85,3.39,20.82,20.82,0,0,0-.28,3.38,8.19,8.19,0,0,0,.76,4,2.61,2.61,0,0,0,2.45,1.3,5.28,5.28,0,0,0,2.54-.77,10.65,10.65,0,0,0,2.71-2.23,17.18,17.18,0,0,0,2.4-3.55A17.79,17.79,0,0,0,1896.09,175.73Z"/><path d="M1927.27,185a27.32,27.32,0,0,1-2.41,2.41,14.32,14.32,0,0,1-2.24,1.63,9.33,9.33,0,0,1-2.17.93,8.54,8.54,0,0,1-2.19.28,6.21,6.21,0,0,1-4.43-1.39,5.43,5.43,0,0,1-1.45-4.11,16.77,16.77,0,0,1,.13-2,21.14,21.14,0,0,1,.39-2.16l3-12.9h-4.29l.5-1.92a7.53,7.53,0,0,0,2.33-.29,4.36,4.36,0,0,0,1.41-.78,5.93,5.93,0,0,0,.72-.86,11,11,0,0,0,.7-1.23c.23-.49.46-1.05.71-1.71s.51-1.42.8-2.31h3.89l-1.42,6.33h8.47l-.57,2.77h-8.45l-2.54,10.44c-.16.69-.3,1.32-.41,1.88s-.19,1.05-.26,1.5-.11.86-.14,1.22,0,.71,0,1a3.87,3.87,0,0,0,.63,2.34,2.36,2.36,0,0,0,2,.84,4.66,4.66,0,0,0,2.54-.88,17.22,17.22,0,0,0,3.07-2.78Z"/><rect x="1859.35" y="131.54" width="89.38" height="4.6"/><path d="M1978.3,140.09a6.64,6.64,0,0,0-.69-1.86,1.68,1.68,0,0,0-.79-.68,5.07,5.07,0,0,0-1.57-.17h-2.37l-3.56,16.79h-5.93l8.8-39.17c.3-1.33.51-2.36.64-3.11a12.62,12.62,0,0,0,.19-2,2.23,2.23,0,0,0-.88-2,6.26,6.26,0,0,0-3.13-.65l.41-1.78,8.67-.31h2l-6.72,29.92h1.1a10.43,10.43,0,0,0,5.77-2.24,38.93,38.93,0,0,0,5.13-4.17,5.43,5.43,0,0,0,1.92-3.7c0-1.12-.78-1.75-2.33-1.89l.37-1.68h11.11l.65,1.68q-2.85,2.58-6,5l-8.5,6.58,3.36,12.38a14.34,14.34,0,0,0,.73,2.28,2.81,2.81,0,0,0,.76,1,1.74,1.74,0,0,0,1.14.35,3.7,3.7,0,0,0,2.13-1,21.19,21.19,0,0,0,2.81-2.78l2,1.92a28.56,28.56,0,0,1-5.1,4.52,7.34,7.34,0,0,1-3.91,1.27,5.11,5.11,0,0,1-3.7-1.32,9.16,9.16,0,0,1-2.16-4.4Z"/><text class="cls-6" transform="translate(2001.3 154.18)"> </text><text class="cls-7" transform="translate(2020.88 154.18)">(a<tspan class="cls-8" x="62.42" y="0">c</tspan><tspan x="97.66" y="0">e</tspan><tspan class="cls-9" x="136.7" y="0">l</tspan><tspan x="152.36" y="0">era</tspan><tspan class="cls-8" x="253.82" y="0">c</tspan><tspan class="cls-9" x="289.06" y="0">i</tspan><tspan class="cls-10" x="304.73" y="0">ó</tspan><tspan x="343.49" y="0">n</tspan></text><text class="cls-11" transform="translate(2403.96 154.18)"> </text><text class="cls-7" transform="translate(2423.68 154.18)"><tspan class="cls-9">i</tspan><tspan x="15.67" y="0">n</tspan><tspan class="cls-8" x="54.71" y="0">s</tspan><tspan class="cls-9" x="89.95" y="0">t</tspan><tspan x="109.52" y="0">an</tspan><tspan class="cls-12" x="187.6" y="0">t</tspan><tspan x="207.18" y="0">án</tspan><tspan class="cls-10" x="285.26" y="0">e</tspan><tspan x="324.02" y="0">a) </tspan></text><text class="cls-7" transform="translate(2830.27 154.18)"> </text><text class="cls-7" transform="translate(79.12 275.41)"> </text><path d="M950.56,369.54l3.44-2.48,2.4.6-5.5,23.75a26.48,26.48,0,0,0-.83,5.55,3.72,3.72,0,0,0,.49,2.17,1.74,1.74,0,0,0,1.53.67,4.17,4.17,0,0,0,2.4-.91,26.59,26.59,0,0,0,3.6-3.51l2.13,2.1a32,32,0,0,1-5.75,5.11,9.31,9.31,0,0,1-5.15,1.52,4.77,4.77,0,0,1-3.71-1.53,5.9,5.9,0,0,1-1.38-4.09,12.5,12.5,0,0,1,.86-4.38l-.49-.15a32.9,32.9,0,0,1-6.82,7.68,11.12,11.12,0,0,1-6.81,2.43,7.43,7.43,0,0,1-6.39-3.11q-2.26-3.1-2.27-8.72a31.34,31.34,0,0,1,2.53-12.38,23,23,0,0,1,6.95-9.37,15.72,15.72,0,0,1,9.85-3.43,17.84,17.84,0,0,1,4.55.55A15.74,15.74,0,0,1,950.56,369.54Zm-3.3,11.16a21.71,21.71,0,0,0,.45-2.66,23.17,23.17,0,0,0,.11-2.44,6.14,6.14,0,0,0-1.23-4.23q-1.25-1.35-4.2-1.35a9.53,9.53,0,0,0-6.93,3.11,20.81,20.81,0,0,0-4.79,8.34,33.1,33.1,0,0,0-1.73,10.43,12.37,12.37,0,0,0,1.07,5.82,3.75,3.75,0,0,0,3.58,1.93,7.28,7.28,0,0,0,4.85-2.13,29.51,29.51,0,0,0,4.91-6.09,26.59,26.59,0,0,0,3.57-9.12Z"/><path d="M986.36,419.24h-5.19q.38-1.69.84-3.66c.31-1.3.63-2.62.94-3.95s.63-2.64.92-3.93.56-2.51.79-3.63.41-2.14.56-3a14.57,14.57,0,0,0,.21-2.14,3.87,3.87,0,0,0-.65-2.46,2.58,2.58,0,0,0-2.09-.78,5.05,5.05,0,0,0-2.74,1,12.64,12.64,0,0,0-2.78,2.51,19.71,19.71,0,0,0-2.35,3.51,15.07,15.07,0,0,0-1.47,3.95l-2.71,12.66h-5.21l4-17.34c.23-1,.4-1.79.5-2.5a11.85,11.85,0,0,0,.16-1.76c0-1.29-.52-1.94-1.57-1.94a2.63,2.63,0,0,0-1,.2,4.74,4.74,0,0,0-1,.6,13.16,13.16,0,0,0-1.18,1q-.63.62-1.44,1.44l-1.83-1.73c.87-.89,1.67-1.66,2.41-2.3a15.31,15.31,0,0,1,2.12-1.6,9,9,0,0,1,2-.93,7,7,0,0,1,2-.31,3.76,3.76,0,0,1,3.05,1.29,5.17,5.17,0,0,1,1.07,3.4,7.12,7.12,0,0,1-.08,1.14,4.75,4.75,0,0,1-.29,1.09l.32.13a21.68,21.68,0,0,1,5-5.29,9,9,0,0,1,5.19-1.76,5.65,5.65,0,0,1,4.22,1.45,5.93,5.93,0,0,1,1.39,4.27v.47a2.49,2.49,0,0,1,0,.46h.1a20.41,20.41,0,0,1,4.93-5,9,9,0,0,1,5.1-1.64,5.47,5.47,0,0,1,4.22,1.52,6.06,6.06,0,0,1,1.39,4.26,13.15,13.15,0,0,1-.26,2.22c-.18.93-.4,1.95-.65,3.07s-.54,2.27-.84,3.47-.59,2.33-.85,3.39l-.39,1.69c-.1.43-.17.8-.22,1.09a7,7,0,0,0-.11.76q0,.31,0,.69a2.35,2.35,0,0,0,.37,1.46,1.48,1.48,0,0,0,1.2.45,2.72,2.72,0,0,0,1-.18,4.57,4.57,0,0,0,1-.59,9.92,9.92,0,0,0,1.2-1c.43-.42.92-.92,1.45-1.5l1.83,1.75c-.85.89-1.64,1.65-2.38,2.29a15.07,15.07,0,0,1-2.12,1.58,8.57,8.57,0,0,1-2,.93,7.08,7.08,0,0,1-2.13.31,4.53,4.53,0,0,1-1.83-.37,4,4,0,0,1-1.4-1,4.68,4.68,0,0,1-.89-1.54,5.84,5.84,0,0,1-.32-2,22.48,22.48,0,0,1,.93-5.61c.34-1.15.65-2.25.92-3.31s.51-2,.71-2.92.35-1.7.46-2.4a10.5,10.5,0,0,0,.17-1.74,3.79,3.79,0,0,0-.62-2.42,2.39,2.39,0,0,0-2-.77,4.25,4.25,0,0,0-1.75.42,9.16,9.16,0,0,0-1.88,1.19,14,14,0,0,0-1.84,1.79,17.33,17.33,0,0,0-1.68,2.25,20.62,20.62,0,0,0-1.37,2.54,14.5,14.5,0,0,0-.92,2.69Zm50.43-5.67a24.65,24.65,0,0,1-6.16,4.61,14.6,14.6,0,0,1-6.61,1.54,10,10,0,0,1-3.68-.63,7,7,0,0,1-2.71-1.82,7.9,7.9,0,0,1-1.68-2.91,12.21,12.21,0,0,1-.57-3.87,19.34,19.34,0,0,1,.27-3.15,19.56,19.56,0,0,1,.82-3.27,21.91,21.91,0,0,1,1.38-3.2,17.6,17.6,0,0,1,1.95-2.91,16,16,0,0,1,5.38-4.32,15.28,15.28,0,0,1,6.88-1.56,7.85,7.85,0,0,1,5.17,1.49,5.24,5.24,0,0,1,1.77,4.23q0,9.63-18.22,9.63a15.07,15.07,0,0,0-.21,1.5,16.22,16.22,0,0,0-.08,1.77,6.27,6.27,0,0,0,1.18,4.23,4.68,4.68,0,0,0,3.68,1.33,10.47,10.47,0,0,0,2.48-.28,9.9,9.9,0,0,0,2.3-.86,13.34,13.34,0,0,0,2.27-1.51,28.47,28.47,0,0,0,2.4-2.19Zm-15.48-8.72a30.07,30.07,0,0,0,5.81-.53,14,14,0,0,0,4-1.38,6.15,6.15,0,0,0,2.29-2.08,4.92,4.92,0,0,0,.73-2.63,3.75,3.75,0,0,0-.82-2.58,3,3,0,0,0-2.4-.93,6.33,6.33,0,0,0-2.88.72,9.68,9.68,0,0,0-2.69,2,15.29,15.29,0,0,0-2.3,3.19A21.23,21.23,0,0,0,1021.31,404.85Z"/><path d="M1067.14,410.06a25.27,25.27,0,0,0-.49,2.5,13.24,13.24,0,0,0-.12,1.68,2.11,2.11,0,0,0,.41,1.46,1.52,1.52,0,0,0,1.18.45,2.62,2.62,0,0,0,1-.18,5,5,0,0,0,1-.59,11.74,11.74,0,0,0,1.2-1q.65-.63,1.47-1.5c.28.3.58.59.88.89l.88.86c-.89.91-1.7,1.68-2.42,2.33a15.31,15.31,0,0,1-2.12,1.6,8.42,8.42,0,0,1-2,.9,7.28,7.28,0,0,1-2,.28,3.7,3.7,0,0,1-3-1.24,5,5,0,0,1-1.07-3.39,7,7,0,0,1,.38-2.29l-.38-.16a28.51,28.51,0,0,1-2.63,3.22,16.49,16.49,0,0,1-2.53,2.2,9.59,9.59,0,0,1-2.52,1.26,8.75,8.75,0,0,1-2.66.4,5.8,5.8,0,0,1-4.9-2.28q-1.73-2.26-1.73-6.6a22.46,22.46,0,0,1,.55-5,21.54,21.54,0,0,1,1.54-4.46,19.59,19.59,0,0,1,2.38-3.81,16.8,16.8,0,0,1,3-2.94,13.82,13.82,0,0,1,3.52-1.9,11.19,11.19,0,0,1,3.85-.68,14.06,14.06,0,0,1,3.22.35,7.15,7.15,0,0,1,2.79,1.38c.3-1.11.54-2.07.72-2.86s.32-1.51.44-2.18a9.49,9.49,0,0,0,.17-1.66,2.76,2.76,0,0,0-.14-.93,1.27,1.27,0,0,0-.52-.61,2.74,2.74,0,0,0-1-.35c-.45-.07-1-.12-1.72-.16l.35-1.81,7.92-.32h1.36Zm-3.59-5.87c.19-1,.37-1.92.53-2.88a16,16,0,0,0,.24-2.63,4,4,0,0,0-1-3.06,4.47,4.47,0,0,0-3.1-.9,6.24,6.24,0,0,0-2.91.68,8.69,8.69,0,0,0-2.46,1.86,13.91,13.91,0,0,0-2,2.74,19.54,19.54,0,0,0-1.47,3.32,23.68,23.68,0,0,0-.91,3.62,22.42,22.42,0,0,0-.3,3.6,8.75,8.75,0,0,0,.81,4.27,2.8,2.8,0,0,0,2.62,1.4,5.71,5.71,0,0,0,2.71-.83,11.27,11.27,0,0,0,2.89-2.38,18.29,18.29,0,0,0,2.56-3.79A19.31,19.31,0,0,0,1063.55,404.19Z"/><text class="cls-13" transform="translate(1077.96 419.24)">−</text><path d="M1131.52,406.42c-.32-1.49-.59-2.78-.83-3.88s-.47-2.05-.67-2.84a15.44,15.44,0,0,0-.6-1.92,5.24,5.24,0,0,0-.6-1.19,1.83,1.83,0,0,0-.66-.62,2,2,0,0,0-.84-.22,2.32,2.32,0,0,0-.84.15,2.61,2.61,0,0,0-.79.52,6.72,6.72,0,0,0-.91,1c-.33.44-.7,1-1.13,1.73l-2.05-1.33c.73-1.09,1.39-2,2-2.74a10.63,10.63,0,0,1,1.73-1.79,5.59,5.59,0,0,1,1.8-.95,7.09,7.09,0,0,1,2.16-.3,4.2,4.2,0,0,1,2.4.64,4.87,4.87,0,0,1,1.54,1.86,13.49,13.49,0,0,1,1,3c.27,1.2.55,2.57.85,4.11h.35l2.76-3.64c.78-1,1.48-1.9,2.09-2.61a20.44,20.44,0,0,1,1.65-1.73,7,7,0,0,1,1.42-1,5.05,5.05,0,0,1,1.43-.49,8.92,8.92,0,0,1,1.63-.14,5.94,5.94,0,0,1,2.42.48l-1.33,5.24h-2.21c0-.76-.33-1.14-.85-1.14a1.9,1.9,0,0,0-.63.11,3.23,3.23,0,0,0-.83.42,8.77,8.77,0,0,0-1.1.89c-.42.38-.91.88-1.48,1.49s-1.21,1.36-1.94,2.25-1.56,1.93-2.5,3.14q.72,3.66,1.24,5.88a23,23,0,0,0,1,3.37,3.71,3.71,0,0,0,1,1.53,1.76,1.76,0,0,0,1.09.36,2.84,2.84,0,0,0,.84-.11,2.08,2.08,0,0,0,.8-.46,6.77,6.77,0,0,0,.91-1c.34-.45.74-1.05,1.2-1.79l2,1.3c-.78,1.17-1.48,2.13-2.08,2.87a10.38,10.38,0,0,1-1.75,1.76,5,5,0,0,1-1.76.86,8.56,8.56,0,0,1-2.07.23,5.33,5.33,0,0,1-1.81-.28,3.11,3.11,0,0,1-1.39-1,5.37,5.37,0,0,1-.74-1.21c-.23-.51-.44-1.06-.64-1.64s-.37-1.19-.53-1.82-.29-1.22-.4-1.77-.19-1-.25-1.48-.1-.76-.12-1h-.29l-2.78,3.71c-.79,1.06-1.51,2-2.14,2.71a24.44,24.44,0,0,1-1.73,1.87A8.22,8.22,0,0,1,1124,419a5.15,5.15,0,0,1-1.53.59,8.45,8.45,0,0,1-1.74.16,5.39,5.39,0,0,1-2.37-.48l1.23-5.19h2.26q.08,1.17.87,1.17a2.82,2.82,0,0,0,.58-.1,2.73,2.73,0,0,0,.65-.34,7.11,7.11,0,0,0,.94-.79c.38-.37.87-.87,1.45-1.52s1.3-1.46,2.16-2.43S1130.34,407.86,1131.52,406.42Z"/><text class="cls-14" transform="translate(1175.39 403.51)">=</text><text class="cls-14" transform="translate(1254.03 403.51)"> </text><text class="cls-13" transform="translate(1283.95 358.63)">∆</text><path d="M1326.1,359.08a3.13,3.13,0,0,1-1.6-.38,2.59,2.59,0,0,1-1-1.09,5.56,5.56,0,0,1-.48-1.67,15,15,0,0,1-.13-2.1,31.31,31.31,0,0,1,.18-3.24c.13-1.15.29-2.32.48-3.49.94-5.69,1.41-9,1.41-9.92a2.14,2.14,0,0,0-.22-1.34,1,1,0,0,0-.79-.36,2.67,2.67,0,0,0-1.13.29,8.48,8.48,0,0,0-1.21.75,13.5,13.5,0,0,0-1.18,1l-1.08,1-1.46-1.78c.58-.62,1.21-1.24,1.87-1.86a17.08,17.08,0,0,1,2.12-1.69,10.4,10.4,0,0,1,2.34-1.21,7.09,7.09,0,0,1,2.47-.45,3.4,3.4,0,0,1,1.85.45,3.33,3.33,0,0,1,1.12,1.18,4.87,4.87,0,0,1,.55,1.61,10.28,10.28,0,0,1,.15,1.73,11.92,11.92,0,0,1-.11,1.36l-1.67,9.62c-.16.93-.29,1.83-.4,2.72a19,19,0,0,0-.16,2.34,8.34,8.34,0,0,0,.13,1.65q.13.63.27.63a5.12,5.12,0,0,0,2.18-.67,17.3,17.3,0,0,0,2.81-1.87,26.17,26.17,0,0,0,3-2.8,23.69,23.69,0,0,0,2.64-3.53,20.32,20.32,0,0,0,1.91-4,12.82,12.82,0,0,0,.73-4.21,2.82,2.82,0,0,0-.47-1.81,1.56,1.56,0,0,0-1.26-.56,2.88,2.88,0,0,0-1.81.81,14.84,14.84,0,0,0-2,2.12l-1.57-1.57a12.66,12.66,0,0,1,1.51-2,13.75,13.75,0,0,1,1.86-1.67,9.85,9.85,0,0,1,2-1.14,5.54,5.54,0,0,1,2.06-.42,3.44,3.44,0,0,1,3,1.31,6,6,0,0,1,.93,3.53,10.89,10.89,0,0,1-.46,2.92,23.53,23.53,0,0,1-1.32,3.49,40,40,0,0,1-2,3.76,39.12,39.12,0,0,1-2.59,3.75,36.86,36.86,0,0,1-3,3.43,24.12,24.12,0,0,1-3.35,2.81,18.14,18.14,0,0,1-3.53,1.9A9.74,9.74,0,0,1,1326.1,359.08Z"/><text class="cls-13" transform="translate(1327.3 357.48)">⃗</text><text class="cls-13" transform="translate(1287.02 442.25)">∆</text><path d="M1340.18,437.12a31.3,31.3,0,0,1-2.58,2.58,15.66,15.66,0,0,1-2.4,1.74,9.52,9.52,0,0,1-2.31,1,9.16,9.16,0,0,1-2.34.3,6.61,6.61,0,0,1-4.72-1.48,5.81,5.81,0,0,1-1.56-4.39,17.35,17.35,0,0,1,.15-2.17,20.8,20.8,0,0,1,.41-2.3l3.17-13.78h-4.58l.53-2.05a8.09,8.09,0,0,0,2.49-.3,4.61,4.61,0,0,0,1.5-.84,4.81,4.81,0,0,0,.77-.92,9.69,9.69,0,0,0,.75-1.32c.25-.51.5-1.12.76-1.82s.54-1.52.86-2.46h4.15l-1.51,6.76h9l-.61,2.95h-9l-2.71,11.15c-.18.74-.33,1.41-.44,2s-.21,1.13-.28,1.61-.12.92-.15,1.31,0,.75,0,1.09a4.12,4.12,0,0,0,.67,2.5,2.53,2.53,0,0,0,2.18.9,5,5,0,0,0,2.71-.94,18,18,0,0,0,3.27-3Z"/><rect x="1283.95" y="379.35" width="64.44" height="4.99"/><text class="cls-15" transform="translate(1348.39 403.51)"> </text><text class="cls-16" transform="translate(1369.87 403.51)"> </text><text class="cls-16" transform="translate(1391.36 403.51)"><tspan class="cls-17">(</tspan><tspan class="cls-18" x="25.63" y="0">a</tspan><tspan x="68.22" y="0">c</tspan><tspan class="cls-18" x="106.58" y="0">e</tspan><tspan class="cls-19" x="149.17" y="0">l</tspan><tspan class="cls-20" x="166.06" y="0">e</tspan><tspan class="cls-21" x="208.65" y="0">r</tspan><tspan class="cls-18" x="234.27" y="0">a</tspan><tspan x="276.87" y="0">c</tspan><tspan class="cls-22" x="315.23" y="0">i</tspan><tspan class="cls-18" x="332.12" y="0">ó</tspan><tspan x="374.71" y="0">n</tspan></text><text class="cls-23" transform="translate(1808.71 403.51)"> </text><text class="cls-16" transform="translate(1830.19 403.51)"><tspan class="cls-17">m</tspan><tspan class="cls-18" x="63.98" y="0">ed</tspan><tspan class="cls-22" x="149.17" y="0">i</tspan><tspan class="cls-18" x="166.06" y="0">a</tspan><tspan x="208.65" y="0">)</tspan></text><text class="cls-16" transform="translate(2064.57 403.51)"> </text><text class="cls-16" transform="translate(1491.48 527.41)"> </text></svg>