<svg id="Capa_1" data-name="Capa 1" xmlns="http://www.w3.org/2000/svg" viewBox="0 0 2893.03 942.58"><defs><style>.cls-1,.cls-21{font-size:55.23px;}.cls-1,.cls-46{fill:#c42826;}.cls-1{font-family:Consolas;}.cls-14,.cls-2,.cls-27,.cls-35{font-size:85.8px;}.cls-14,.cls-2,.cls-21,.cls-46{font-family:ArialMT, Arial;}.cls-3{letter-spacing:0em;}.cls-4{letter-spacing:0em;}.cls-5{letter-spacing:0.04em;}.cls-6{letter-spacing:0.04em;}.cls-7{letter-spacing:0em;}.cls-8{letter-spacing:0em;}.cls-14,.cls-9{letter-spacing:0em;}.cls-10{letter-spacing:0.04em;}.cls-11{letter-spacing:0em;}.cls-12{letter-spacing:0.04em;}.cls-13{letter-spacing:0em;}.cls-15{letter-spacing:0.04em;}.cls-16{letter-spacing:0em;}.cls-17{letter-spacing:0em;}.cls-18{letter-spacing:0em;}.cls-19{letter-spacing:0em;}.cls-20{letter-spacing:0em;}.cls-22{letter-spacing:0.03em;}.cls-23{letter-spacing:0.04em;}.cls-24{letter-spacing:0em;}.cls-25{letter-spacing:0.03em;}.cls-26{font-size:61.49px;}.cls-26,.cls-27{font-family:CambriaMath, Cambria Math;}.cls-28{letter-spacing:0.03em;}.cls-29{letter-spacing:0em;}.cls-30{letter-spacing:0.04em;}.cls-31{letter-spacing:0em;}.cls-32{letter-spacing:-0.06em;}.cls-33{letter-spacing:-0.06em;}.cls-34{letter-spacing:-0.06em;}.cls-35{font-family:Arial-ItalicMT, Arial;font-style:italic;}.cls-36{letter-spacing:0em;}.cls-37{letter-spacing:-0.02em;}.cls-38{letter-spacing:-0.02em;}.cls-39{letter-spacing:-0.02em;}.cls-40{letter-spacing:-0.02em;}.cls-41{letter-spacing:0em;}.cls-42{letter-spacing:-0.01em;}.cls-43{letter-spacing:-0.01em;}.cls-44{letter-spacing:-0.01em;}.cls-45{letter-spacing:-0.01em;}.cls-46{font-size:110.47px;}</style></defs><title>vector1</title><text class="cls-1" transform="translate(63.02 111.88)"> </text><text class="cls-2" transform="translate(63.02 217.17)"><tspan class="cls-3">D</tspan><tspan class="cls-4" x="61.87" y="0">urante</tspan><tspan class="cls-5" x="305.66" y="0"> </tspan><tspan class="cls-4" x="332.84" y="0">un</tspan><tspan class="cls-6" x="428.45" y="0"> </tspan><tspan class="cls-4" x="456.06" y="0">int</tspan><tspan class="cls-7" x="546.93" y="0">e</tspan><tspan class="cls-4" x="594.48" y="0">r</tspan><tspan class="cls-8" x="623.13" y="0">v</tspan><tspan class="cls-9" x="665.86" y="0">alo</tspan><tspan class="cls-10" x="780.61" y="0"> </tspan><tspan class="cls-11" x="808.22" y="0">de</tspan><tspan class="cls-12" x="903.83" y="0"> </tspan><tspan class="cls-9" x="931.01" y="0">t</tspan><tspan x="954.93" y="0">i</tspan><tspan class="cls-7" x="973.99" y="0">e</tspan><tspan x="1021.54" y="0">m</tspan><tspan class="cls-9" x="1093.01" y="0">po</tspan><tspan class="cls-10" x="1188.61" y="0"> </tspan><tspan class="cls-13" x="1216.22" y="0">∆</tspan></text><path d="M1362.28,209.25a30.19,30.19,0,0,1-7,6.5,13.23,13.23,0,0,1-7.06,2.09q-8.76,0-8.76-8.84a26.57,26.57,0,0,1,.71-5.9l4.95-21.75h-7l.63-2.89a17.31,17.31,0,0,0,3.75-.37,6.75,6.75,0,0,0,2.13-.93,5.92,5.92,0,0,0,1.58-1.67,16.46,16.46,0,0,0,1.38-2.79c.44-1.13,1.11-3.1,2-5.93h5.78l-2.3,10.35h12.73l-.92,4.23H1352.1l-3.72,16.26q-1.1,4.72-1.39,6.81a25.77,25.77,0,0,0-.29,3.33q0,5.19,4.32,5.19a7.1,7.1,0,0,0,3.91-1.4,26.34,26.34,0,0,0,4.92-4.8Z"/><text class="cls-14" transform="translate(1367.06 217.17)">,<tspan class="cls-15" x="23.92" y="0"> </tspan><tspan class="cls-16" x="51.54" y="0">l</tspan><tspan x="70.34" y="0">a</tspan><tspan class="cls-15" x="118.14" y="0"> </tspan><tspan x="145.75" y="0">par</tspan><tspan class="cls-16" x="270.01" y="0">t</tspan><tspan x="293.59" y="0">í</tspan><tspan class="cls-17" x="317.52" y="0">c</tspan><tspan x="360.59" y="0">u</tspan><tspan class="cls-16" x="408.39" y="0">l</tspan><tspan class="cls-11" x="427.19" y="0">a</tspan><tspan class="cls-10" x="474.99" y="0"> </tspan><tspan class="cls-11" x="502.61" y="0">se</tspan><tspan class="cls-15" x="593.39" y="0"> </tspan><tspan class="cls-18" x="621" y="0">m</tspan><tspan class="cls-11" x="692.47" y="0">u</tspan><tspan class="cls-19" x="740.28" y="0">e</tspan><tspan class="cls-20" x="787.82" y="0">v</tspan><tspan class="cls-11" x="830.89" y="0">e</tspan><tspan class="cls-10" x="878.69" y="0"> </tspan><tspan class="cls-11" x="906.3" y="0">de</tspan><tspan class="cls-18" x="1001.91" y="0"> </tspan></text><text class="cls-2" transform="translate(2397.44 217.17)">P</text><text class="cls-21" transform="translate(2454.28 223.43)">1</text><text class="cls-2" transform="translate(2484.85 217.17)"><tspan class="cls-9">,</tspan><tspan class="cls-15" x="23.92" y="0"> </tspan><tspan class="cls-9" x="51.54" y="0">don</tspan><tspan class="cls-19" x="194.94" y="0">de</tspan><tspan x="290.03" y="0"> </tspan></text><text class="cls-2" transform="translate(63.06 332.83)"><tspan class="cls-4">su</tspan><tspan class="cls-22" x="90.79" y="0"> </tspan><tspan class="cls-7" x="117.63" y="0">v</tspan><tspan class="cls-11" x="160.35" y="0">ect</tspan><tspan class="cls-7" x="275.06" y="0">or</tspan><tspan class="cls-23" x="351.01" y="0"> </tspan><tspan class="cls-4" x="377.85" y="0">d</tspan><tspan class="cls-8" x="425.65" y="0">e</tspan><tspan class="cls-22" x="473.19" y="0"> </tspan><tspan class="cls-4" x="500.03" y="0">ve</tspan><tspan class="cls-16" x="590.82" y="0">l</tspan><tspan class="cls-4" x="609.62" y="0">o</tspan><tspan class="cls-24" x="657.42" y="0">c</tspan><tspan class="cls-16" x="700.49" y="0">i</tspan><tspan class="cls-11" x="719.3" y="0">dad</tspan><tspan class="cls-25" x="862.7" y="0"> </tspan><tspan class="cls-11" x="889.2" y="0">es</tspan><tspan x="979.99" y="0"> </tspan></text><path d="M1085.4,333.54a3.26,3.26,0,0,1-2-.61,4.17,4.17,0,0,1-1.32-1.72,9.33,9.33,0,0,1-.72-2.62,24,24,0,0,1-.2-3.3,46.8,46.8,0,0,1,.29-5.12q.28-2.71.75-5.48l1.76-11.61c.11-.67.2-1.3.27-1.9a13.09,13.09,0,0,0,.11-1.32,4.77,4.77,0,0,0-.42-2.14,1.46,1.46,0,0,0-1.42-.84,3.74,3.74,0,0,0-1.72.48,11.63,11.63,0,0,0-1.87,1.24c-.62.5-1.23,1-1.82,1.61l-1.63,1.61-2-2.34c.86-.89,1.78-1.78,2.76-2.66a25.35,25.35,0,0,1,3.1-2.39,17,17,0,0,1,3.44-1.72,10.85,10.85,0,0,1,3.68-.65,5.61,5.61,0,0,1,2.6.53,4.07,4.07,0,0,1,1.57,1.38,5.26,5.26,0,0,1,.78,1.89,10.07,10.07,0,0,1,.21,2c0,.39,0,.77,0,1.13a9.15,9.15,0,0,1-.12,1L1089,315.19c-.25,1.59-.46,3.15-.63,4.67a39.4,39.4,0,0,0-.25,4,15.51,15.51,0,0,0,.21,2.85c.14.73.41,1.09.8,1.09a7.91,7.91,0,0,0,3.48-1.11,25.14,25.14,0,0,0,4.39-3.06,40.9,40.9,0,0,0,4.61-4.61,39.43,39.43,0,0,0,4.15-5.76,33.58,33.58,0,0,0,3-6.53,21.86,21.86,0,0,0,1.15-6.91,3.69,3.69,0,0,0-.65-2.33,2.45,2.45,0,0,0-2-.82,4.71,4.71,0,0,0-3.25,1.37,22.79,22.79,0,0,0-3.08,3.58l-2.39-2.14a20.36,20.36,0,0,1,5.26-5.32,15.29,15.29,0,0,1,3.16-1.68,9,9,0,0,1,3.19-.62c2,0,3.46.52,4.35,1.57a6.22,6.22,0,0,1,1.34,4.21,17.52,17.52,0,0,1-.71,4.61,36.62,36.62,0,0,1-2,5.48,57.5,57.5,0,0,1-3.1,5.93,61.72,61.72,0,0,1-4,5.91,57.41,57.41,0,0,1-4.65,5.4,37.19,37.19,0,0,1-5.13,4.42,26.64,26.64,0,0,1-5.4,3A14.53,14.53,0,0,1,1085.4,333.54Z"/><text class="cls-26" transform="translate(1114.67 350.47)">1</text><text class="cls-27" transform="translate(1122.04 332.79)">⃗</text><text class="cls-2" transform="translate(1153.34 332.79)"> </text><text class="cls-2" transform="translate(1180.19 332.79)"><tspan class="cls-7">a</tspan><tspan class="cls-23" x="47.54" y="0"> </tspan><tspan x="74.38" y="0">P</tspan></text><text class="cls-21" transform="translate(1311.68 339.06)">2</text><text class="cls-14" transform="translate(1342.24 332.79)">,<tspan class="cls-23" x="23.92" y="0"> </tspan><tspan class="cls-11" x="50.76" y="0">don</tspan><tspan class="cls-7" x="194.17" y="0">d</tspan><tspan class="cls-11" x="241.71" y="0">e</tspan><tspan class="cls-28" x="289.52" y="0"> </tspan><tspan class="cls-17" x="316.35" y="0">s</tspan><tspan class="cls-19" x="359.43" y="0">u</tspan><tspan class="cls-28" x="406.97" y="0"> </tspan><tspan class="cls-7" x="433.81" y="0">v</tspan><tspan class="cls-11" x="476.54" y="0">e</tspan><tspan class="cls-17" x="524.34" y="0">c</tspan><tspan class="cls-29" x="567.41" y="0">t</tspan><tspan class="cls-11" x="590.99" y="0">or</tspan><tspan class="cls-23" x="667.45" y="0"> </tspan><tspan class="cls-7" x="694.29" y="0">d</tspan><tspan class="cls-11" x="741.83" y="0">e</tspan><tspan class="cls-28" x="789.63" y="0"> </tspan><tspan class="cls-19" x="816.47" y="0">v</tspan><tspan x="859.2" y="0">e</tspan><tspan class="cls-16" x="907" y="0">l</tspan><tspan class="cls-11" x="925.81" y="0">o</tspan><tspan class="cls-17" x="973.61" y="0">c</tspan><tspan class="cls-11" x="1016.68" y="0">ida</tspan><tspan class="cls-7" x="1131.43" y="0">d</tspan><tspan class="cls-30" x="1178.97" y="0"> </tspan><tspan class="cls-7" x="1205.81" y="0">es</tspan><tspan class="cls-13" x="1296.08" y="0"> </tspan></text><path d="M2680.57,333.51a3.33,3.33,0,0,1-2-.61,4.24,4.24,0,0,1-1.32-1.72,9.33,9.33,0,0,1-.72-2.62,24,24,0,0,1-.21-3.31,46.89,46.89,0,0,1,.3-5.11q.28-2.72.75-5.49l1.76-11.6c.11-.67.2-1.3.27-1.91a13.09,13.09,0,0,0,.11-1.32,4.75,4.75,0,0,0-.42-2.13,1.46,1.46,0,0,0-1.42-.84,3.71,3.71,0,0,0-1.72.48,11.63,11.63,0,0,0-1.87,1.24c-.62.5-1.23,1-1.82,1.61s-1.13,1.11-1.63,1.61l-2-2.34c.86-.9,1.78-1.78,2.76-2.66a25.35,25.35,0,0,1,3.1-2.39,17,17,0,0,1,3.44-1.72,10.85,10.85,0,0,1,3.68-.65,5.61,5.61,0,0,1,2.6.53,4.15,4.15,0,0,1,1.57,1.38,5.28,5.28,0,0,1,.78,1.88,10.24,10.24,0,0,1,.21,2c0,.39,0,.76-.05,1.13a9.15,9.15,0,0,1-.12,1l-2.35,15.17c-.25,1.59-.46,3.15-.63,4.67a39.4,39.4,0,0,0-.25,4,15.66,15.66,0,0,0,.21,2.85c.14.73.41,1.09.8,1.09a7.91,7.91,0,0,0,3.48-1.11,25.14,25.14,0,0,0,4.39-3.06,40.9,40.9,0,0,0,4.61-4.61,39.43,39.43,0,0,0,4.15-5.76,33.58,33.58,0,0,0,3-6.53,21.88,21.88,0,0,0,1.15-6.92,3.66,3.66,0,0,0-.65-2.32,2.46,2.46,0,0,0-2-.82,4.74,4.74,0,0,0-3.25,1.36,23.38,23.38,0,0,0-3.08,3.59l-2.39-2.14a19.23,19.23,0,0,1,2.37-2.89,19.91,19.91,0,0,1,2.89-2.43,15.29,15.29,0,0,1,3.16-1.68,8.81,8.81,0,0,1,3.19-.62c2,0,3.46.52,4.35,1.57a6.22,6.22,0,0,1,1.34,4.21,17.39,17.39,0,0,1-.71,4.6,36.32,36.32,0,0,1-2,5.49,59.53,59.53,0,0,1-3.1,5.93,63,63,0,0,1-4,5.91,57.41,57.41,0,0,1-4.65,5.4,37.88,37.88,0,0,1-5.13,4.42,26.44,26.44,0,0,1-5.41,3A14.44,14.44,0,0,1,2680.57,333.51Z"/><text class="cls-26" transform="translate(2711.67 350.47)">2</text><text class="cls-27" transform="translate(2719.41 332.79)">⃗</text><text class="cls-2" transform="translate(2750.7 332.79)"><tspan class="cls-31">.</tspan><tspan x="24.27" y="0"> </tspan></text><text class="cls-2" transform="translate(63.03 464.24)"><tspan class="cls-3">E</tspan><tspan class="cls-4" x="57.14" y="0">l</tspan><tspan x="76.29" y="0"> </tspan></text><text class="cls-2" transform="translate(157.67 464.24)"><tspan class="cls-4">ca</tspan><tspan x="90.79" y="0">m</tspan><tspan class="cls-4" x="162.26" y="0">bio</tspan><tspan class="cls-32" x="277.01" y="0"> </tspan><tspan class="cls-11" x="295.52" y="0">de</tspan><tspan class="cls-32" x="391.13" y="0"> </tspan><tspan class="cls-9" x="409.65" y="0">vel</tspan><tspan class="cls-7" x="519.58" y="0">o</tspan><tspan class="cls-4" x="567.12" y="0">c</tspan><tspan class="cls-16" x="610.11" y="0">i</tspan><tspan class="cls-4" x="628.91" y="0">dad</tspan><tspan class="cls-32" x="772.32" y="0"> </tspan><tspan class="cls-11" x="790.84" y="0">d</tspan><tspan class="cls-7" x="838.64" y="0">u</tspan><tspan class="cls-9" x="886.18" y="0">r</tspan><tspan class="cls-19" x="914.84" y="0">a</tspan><tspan class="cls-11" x="962.38" y="0">nte</tspan><tspan class="cls-33" x="1081.91" y="0"> </tspan><tspan class="cls-11" x="1100.43" y="0">e</tspan><tspan class="cls-20" x="1148.23" y="0">s</tspan><tspan class="cls-16" x="1191.3" y="0">t</tspan><tspan class="cls-11" x="1214.88" y="0">e</tspan><tspan class="cls-34" x="1262.68" y="0"> </tspan><tspan class="cls-16" x="1281.2" y="0">i</tspan><tspan class="cls-11" x="1300" y="0">nter</tspan><tspan class="cls-19" x="1448.19" y="0">v</tspan><tspan class="cls-9" x="1490.91" y="0">a</tspan><tspan x="1538.71" y="0">l</tspan><tspan class="cls-11" x="1557.78" y="0">o</tspan><tspan class="cls-34" x="1605.58" y="0"> </tspan><tspan class="cls-7" x="1624.1" y="0">e</tspan><tspan class="cls-11" x="1671.64" y="0">s</tspan><tspan x="1714.62" y="0"> </tspan></text><text class="cls-27" transform="translate(1891.94 464.24)">∆</text><path d="M1958,465a3.35,3.35,0,0,1-2-.61,4.34,4.34,0,0,1-1.32-1.72,9.68,9.68,0,0,1-.71-2.62,23.94,23.94,0,0,1-.21-3.31,49.4,49.4,0,0,1,.29-5.11q.3-2.71.76-5.48l1.76-11.61c.11-.67.2-1.3.27-1.9a12.56,12.56,0,0,0,.1-1.32,4.77,4.77,0,0,0-.42-2.14,1.45,1.45,0,0,0-1.42-.84,3.78,3.78,0,0,0-1.72.48,12,12,0,0,0-1.86,1.24,23,23,0,0,0-1.82,1.61l-1.64,1.61-2-2.34c.87-.89,1.79-1.78,2.77-2.66a24.61,24.61,0,0,1,3.1-2.39,16.94,16.94,0,0,1,3.43-1.72,10.87,10.87,0,0,1,3.69-.65,5.61,5.61,0,0,1,2.6.53,4.15,4.15,0,0,1,1.57,1.38,5.45,5.45,0,0,1,.77,1.88,10.24,10.24,0,0,1,.21,2c0,.39,0,.77,0,1.13a9,9,0,0,1-.13,1l-2.34,15.17c-.25,1.59-.46,3.15-.63,4.67a36.75,36.75,0,0,0-.25,4,15.59,15.59,0,0,0,.21,2.85c.14.73.4,1.09.79,1.09a7.91,7.91,0,0,0,3.48-1.11,25.19,25.19,0,0,0,4.4-3.06,42.63,42.63,0,0,0,4.61-4.61,39.37,39.37,0,0,0,4.14-5.76,33.58,33.58,0,0,0,3-6.53,21.58,21.58,0,0,0,1.15-6.91,3.63,3.63,0,0,0-.65-2.33,2.45,2.45,0,0,0-2-.82,4.75,4.75,0,0,0-3.25,1.37,23.32,23.32,0,0,0-3.08,3.58l-2.38-2.14a20.32,20.32,0,0,1,2.36-2.89,19.91,19.91,0,0,1,2.89-2.43,15.36,15.36,0,0,1,3.17-1.68,9,9,0,0,1,3.18-.62,5.44,5.44,0,0,1,4.36,1.57,6.27,6.27,0,0,1,1.34,4.21,17.94,17.94,0,0,1-.71,4.61,39,39,0,0,1-2,5.48,59.53,59.53,0,0,1-3.1,5.93,63.65,63.65,0,0,1-4,5.91,60.52,60.52,0,0,1-4.65,5.4,36.68,36.68,0,0,1-5.14,4.42,26.37,26.37,0,0,1-5.4,3A14.49,14.49,0,0,1,1958,465Z"/><text class="cls-27" transform="translate(1957.91 447.69)">⃗</text><text class="cls-27" transform="translate(1992.16 464.25)"> </text><text class="cls-27" transform="translate(2034.89 464.25)">=</text><text class="cls-27" transform="translate(2123.26 464.25)"> </text><path d="M2157,465a3.32,3.32,0,0,1-2-.6,4.24,4.24,0,0,1-1.32-1.72,9,9,0,0,1-.71-2.62,24,24,0,0,1-.21-3.31,46.76,46.76,0,0,1,.29-5.11c.19-1.81.45-3.64.75-5.49l1.76-11.6c.11-.67.2-1.31.27-1.91a13.09,13.09,0,0,0,.11-1.32,4.72,4.72,0,0,0-.42-2.13,1.46,1.46,0,0,0-1.42-.84,3.74,3.74,0,0,0-1.72.48,11,11,0,0,0-1.87,1.24c-.62.5-1.23,1-1.82,1.61l-1.63,1.61-2-2.35c.86-.89,1.78-1.78,2.76-2.65a25.35,25.35,0,0,1,3.1-2.39,16,16,0,0,1,3.44-1.72,10.85,10.85,0,0,1,3.68-.65,5.59,5.59,0,0,1,2.6.52,4,4,0,0,1,1.57,1.39,5.28,5.28,0,0,1,.78,1.88,10.14,10.14,0,0,1,.21,2c0,.39,0,.77,0,1.13a9.23,9.23,0,0,1-.13,1l-2.35,15.16c-.25,1.6-.46,3.15-.62,4.68a37,37,0,0,0-.26,4,15.66,15.66,0,0,0,.21,2.85c.14.72.41,1.09.8,1.09a7.91,7.91,0,0,0,3.48-1.11,25.14,25.14,0,0,0,4.39-3.06,41.75,41.75,0,0,0,4.61-4.61,39.43,39.43,0,0,0,4.15-5.76,33.94,33.94,0,0,0,3-6.54,21.82,21.82,0,0,0,1.15-6.91,3.66,3.66,0,0,0-.65-2.32,2.42,2.42,0,0,0-2-.82,4.7,4.7,0,0,0-3.25,1.36,23.25,23.25,0,0,0-3.08,3.58l-2.39-2.13a19.23,19.23,0,0,1,2.37-2.89,18.72,18.72,0,0,1,2.89-2.43,15.29,15.29,0,0,1,3.16-1.68,8.83,8.83,0,0,1,3.19-.63,5.44,5.44,0,0,1,4.35,1.57,6.24,6.24,0,0,1,1.34,4.21,17.46,17.46,0,0,1-.71,4.61,37.12,37.12,0,0,1-2,5.49,58.54,58.54,0,0,1-3.1,5.93,62.87,62.87,0,0,1-4,5.9,56.3,56.3,0,0,1-4.65,5.41,37.88,37.88,0,0,1-5.13,4.42,26.58,26.58,0,0,1-5.4,3A14.53,14.53,0,0,1,2157,465Z"/><text class="cls-26" transform="translate(2188.06 481.93)">2</text><text class="cls-27" transform="translate(2195.79 464.25)">⃗</text><text class="cls-35" transform="translate(2226.72 464.25)"> </text><text class="cls-35" transform="translate(2245.16 464.25)">-</text><path d="M2288.39,465a3.32,3.32,0,0,1-2-.6,4.42,4.42,0,0,1-1.32-1.72,9.68,9.68,0,0,1-.71-2.62,24,24,0,0,1-.21-3.31,49.4,49.4,0,0,1,.29-5.11q.3-2.72.76-5.49l1.76-11.6c.11-.67.2-1.31.27-1.91a12.38,12.38,0,0,0,.1-1.32,4.72,4.72,0,0,0-.42-2.13,1.46,1.46,0,0,0-1.42-.84,3.78,3.78,0,0,0-1.72.48,11.34,11.34,0,0,0-1.86,1.24c-.63.5-1.24,1-1.83,1.61l-1.63,1.61-2-2.35c.87-.89,1.79-1.78,2.77-2.65a24.61,24.61,0,0,1,3.1-2.39,15.74,15.74,0,0,1,3.43-1.72,10.87,10.87,0,0,1,3.69-.65,5.58,5.58,0,0,1,2.59.52,4.12,4.12,0,0,1,1.58,1.39,5.45,5.45,0,0,1,.77,1.88,10.14,10.14,0,0,1,.21,2c0,.39,0,.77,0,1.13a9.23,9.23,0,0,1-.13,1L2292,446.61c-.26,1.6-.46,3.15-.63,4.68a36.75,36.75,0,0,0-.25,4,15.66,15.66,0,0,0,.21,2.85c.14.72.4,1.09.79,1.09a7.91,7.91,0,0,0,3.48-1.11,25.19,25.19,0,0,0,4.4-3.06,43.55,43.55,0,0,0,4.61-4.61,40.14,40.14,0,0,0,4.14-5.76,33.94,33.94,0,0,0,3-6.54,21.54,21.54,0,0,0,1.15-6.91,3.66,3.66,0,0,0-.65-2.32,2.42,2.42,0,0,0-2-.82,4.72,4.72,0,0,0-3.25,1.36,23.81,23.81,0,0,0-3.08,3.58l-2.38-2.13a19.78,19.78,0,0,1,2.36-2.89,18.72,18.72,0,0,1,2.89-2.43A15.36,15.36,0,0,1,2310,424a8.82,8.82,0,0,1,3.18-.63,5.48,5.48,0,0,1,4.36,1.57,6.29,6.29,0,0,1,1.34,4.21,17.88,17.88,0,0,1-.71,4.61,38.4,38.4,0,0,1-2,5.49,56.57,56.57,0,0,1-3.1,5.93,61,61,0,0,1-4,5.9,56.3,56.3,0,0,1-4.65,5.41,36.71,36.71,0,0,1-5.13,4.42,26.32,26.32,0,0,1-5.4,3A14.49,14.49,0,0,1,2288.39,465Z"/><text class="cls-26" transform="translate(2317.67 481.93)">1</text><text class="cls-27" transform="translate(2325.04 464.25)">⃗</text><text class="cls-2" transform="translate(2356.33 464.25)"> </text><text class="cls-14" transform="translate(2374.78 464.25)">.<tspan class="cls-33" x="23.92" y="0"> </tspan><tspan class="cls-36" x="42.44" y="0">S</tspan><tspan class="cls-11" x="99.58" y="0">e</tspan><tspan class="cls-34" x="147.38" y="0"> </tspan><tspan class="cls-11" x="165.9" y="0">define</tspan><tspan class="cls-18" x="400.18" y="0"> </tspan></text><text class="cls-2" transform="translate(63.07 579.14)"><tspan class="cls-4">la</tspan><tspan class="cls-37" x="66.95" y="0"> </tspan><tspan class="cls-4" x="89.07" y="0">a</tspan><tspan class="cls-17" x="136.87" y="0">c</tspan><tspan class="cls-4" x="179.94" y="0">e</tspan><tspan x="227.74" y="0">l</tspan><tspan class="cls-8" x="246.81" y="0">e</tspan><tspan class="cls-9" x="294.35" y="0">r</tspan><tspan class="cls-8" x="323.01" y="0">a</tspan><tspan class="cls-4" x="370.55" y="0">ción</tspan><tspan class="cls-38" x="528.29" y="0"> </tspan><tspan x="550.41" y="0">m</tspan><tspan class="cls-4" x="621.88" y="0">ed</tspan><tspan class="cls-16" x="717.48" y="0">i</tspan><tspan class="cls-11" x="736.28" y="0">a</tspan><tspan class="cls-38" x="784.09" y="0"> </tspan><tspan class="cls-4" x="806.21" y="0">y</tspan><tspan class="cls-37" x="849.19" y="0"> </tspan><tspan class="cls-11" x="871.31" y="0">la</tspan><tspan class="cls-39" x="938.26" y="0"> </tspan><tspan class="cls-9" x="960.47" y="0">a</tspan><tspan class="cls-17" x="1008.27" y="0">c</tspan><tspan class="cls-7" x="1051.34" y="0">e</tspan><tspan class="cls-11" x="1098.89" y="0">lera</tspan><tspan class="cls-17" x="1242.29" y="0">c</tspan><tspan class="cls-29" x="1285.36" y="0">i</tspan><tspan class="cls-11" x="1304.17" y="0">ón</tspan><tspan class="cls-38" x="1399.77" y="0"> </tspan><tspan class="cls-29" x="1421.89" y="0">i</tspan><tspan class="cls-11" x="1440.7" y="0">n</tspan><tspan class="cls-17" x="1488.5" y="0">s</tspan><tspan class="cls-9" x="1531.57" y="0">tan</tspan><tspan class="cls-16" x="1651.09" y="0">t</tspan><tspan class="cls-9" x="1674.67" y="0">á</tspan><tspan class="cls-7" x="1722.48" y="0">n</tspan><tspan class="cls-11" x="1770.02" y="0">ea</tspan><tspan class="cls-40" x="1865.62" y="0"> </tspan><tspan class="cls-9" x="1887.75" y="0">dura</tspan><tspan class="cls-7" x="2059.81" y="0">n</tspan><tspan class="cls-16" x="2107.35" y="0">t</tspan><tspan class="cls-9" x="2130.93" y="0">e</tspan><tspan class="cls-40" x="2178.73" y="0"> </tspan><tspan class="cls-9" x="2200.86" y="0">e</tspan><tspan class="cls-17" x="2248.66" y="0">s</tspan><tspan class="cls-9" x="2291.73" y="0">te</tspan><tspan class="cls-38" x="2363.45" y="0"> </tspan><tspan class="cls-11" x="2385.57" y="0">in</tspan><tspan class="cls-16" x="2452.52" y="0">t</tspan><tspan class="cls-9" x="2476.1" y="0">er</tspan><tspan class="cls-17" x="2552.56" y="0">v</tspan><tspan class="cls-9" x="2595.63" y="0">a</tspan><tspan class="cls-16" x="2643.43" y="0">l</tspan><tspan class="cls-9" x="2662.24" y="0">o</tspan><tspan x="2710.04" y="0"> </tspan></text><text class="cls-2" transform="translate(63.07 692.56)"><tspan class="cls-4">igua</tspan><tspan class="cls-41" x="162.55" y="0">l</tspan><tspan class="cls-42" x="181.36" y="0"> </tspan><tspan class="cls-4" x="204.59" y="0">qu</tspan><tspan class="cls-19" x="300.2" y="0">e</tspan><tspan class="cls-43" x="347.74" y="0"> </tspan><tspan class="cls-4" x="370.64" y="0">en</tspan><tspan class="cls-42" x="466.24" y="0"> </tspan><tspan class="cls-4" x="489.48" y="0">e</tspan><tspan class="cls-41" x="537.28" y="0">l</tspan><tspan class="cls-42" x="556.08" y="0"> </tspan><tspan x="579.32" y="0">m</tspan><tspan class="cls-4" x="650.79" y="0">o</tspan><tspan class="cls-8" x="698.59" y="0">v</tspan><tspan class="cls-9" x="741.32" y="0">i</tspan><tspan x="760.46" y="0">m</tspan><tspan class="cls-11" x="831.93" y="0">iento</tspan><tspan class="cls-44" x="1018.41" y="0"> </tspan><tspan class="cls-9" x="1041.3" y="0">r</tspan><tspan class="cls-7" x="1069.96" y="0">e</tspan><tspan class="cls-11" x="1117.5" y="0">ctilín</tspan><tspan class="cls-7" x="1294.43" y="0">e</tspan><tspan class="cls-9" x="1341.97" y="0">o,</tspan><tspan class="cls-44" x="1413.7" y="0"> </tspan><tspan class="cls-29" x="1436.59" y="0">l</tspan><tspan class="cls-11" x="1455.4" y="0">a</tspan><tspan class="cls-42" x="1503.2" y="0"> </tspan><tspan class="cls-9" x="1526.43" y="0">ún</tspan><tspan class="cls-16" x="1622.04" y="0">i</tspan><tspan class="cls-20" x="1640.84" y="0">c</tspan><tspan class="cls-7" x="1683.91" y="0">a</tspan><tspan class="cls-45" x="1731.46" y="0"> </tspan><tspan class="cls-9" x="1754.69" y="0">d</tspan><tspan class="cls-29" x="1802.49" y="0">i</tspan><tspan class="cls-11" x="1821.3" y="0">fere</tspan><tspan class="cls-7" x="1969.48" y="0">n</tspan><tspan class="cls-17" x="2017.03" y="0">c</tspan><tspan class="cls-11" x="2060.1" y="0">ia</tspan><tspan class="cls-44" x="2127.05" y="0"> </tspan><tspan class="cls-7" x="2149.94" y="0">e</tspan><tspan class="cls-17" x="2197.48" y="0">s</tspan><tspan class="cls-42" x="2240.55" y="0"> </tspan><tspan class="cls-9" x="2263.79" y="0">q</tspan><tspan class="cls-7" x="2311.59" y="0">u</tspan><tspan class="cls-11" x="2359.14" y="0">e</tspan><tspan class="cls-42" x="2406.94" y="0"> </tspan><tspan class="cls-7" x="2430.17" y="0">e</tspan><tspan class="cls-9" x="2477.72" y="0">n</tspan><tspan class="cls-44" x="2525.52" y="0"> </tspan><tspan class="cls-9" x="2548.41" y="0">e</tspan><tspan class="cls-17" x="2596.22" y="0">s</tspan><tspan class="cls-9" x="2639.29" y="0">te</tspan><tspan x="2711.01" y="0"> </tspan></text><text class="cls-2" transform="translate(63.07 806.32)"><tspan class="cls-4">caso</tspan><tspan class="cls-7" x="181.57" y="0"> </tspan><tspan class="cls-4" x="205.24" y="0">el </tspan><tspan class="cls-7" x="296.11" y="0">v</tspan><tspan class="cls-4" x="338.84" y="0">e</tspan><tspan class="cls-17" x="386.64" y="0">c</tspan><tspan class="cls-9" x="429.71" y="0">tor</tspan><tspan class="cls-7" x="530.09" y="0"> </tspan><tspan class="cls-11" x="553.76" y="0">de</tspan><tspan class="cls-7" x="649.36" y="0"> </tspan><tspan class="cls-4" x="673.03" y="0">veloc</tspan><tspan x="873.74" y="0">i</tspan></text><text class="cls-2" transform="translate(956.39 806.32)"><tspan class="cls-11">da</tspan><tspan class="cls-19" x="95.6" y="0">d</tspan><tspan class="cls-9" x="143.15" y="0" xml:space="preserve"> t</tspan><tspan x="190.99" y="0">i</tspan><tspan class="cls-11" x="210.06" y="0">ene</tspan><tspan class="cls-16" x="353.46" y="0"> </tspan><tspan class="cls-9" x="377.04" y="0">3 </tspan><tspan class="cls-19" x="448.77" y="0">c</tspan><tspan class="cls-9" x="491.49" y="0">o</tspan><tspan x="539.29" y="0">m</tspan><tspan class="cls-11" x="610.76" y="0">pone</tspan><tspan class="cls-7" x="801.97" y="0">n</tspan><tspan class="cls-9" x="849.52" y="0">te</tspan><tspan class="cls-17" x="921.24" y="0">s</tspan><tspan class="cls-18" x="964.31" y="0">.</tspan></text><text class="cls-2" transform="translate(1945.11 806.32)"> </text><text class="cls-46" transform="translate(63.02 942.58)"> </text></svg>