<svg id="Capa_1" data-name="Capa 1" xmlns="http://www.w3.org/2000/svg" viewBox="0 0 526.29 330.74"><defs><style>.cls-1,.cls-2{font-size:26.34px;}.cls-1{font-family:Arial-BoldItalicMT, Arial;font-weight:700;}.cls-1,.cls-2,.cls-3{font-style:italic;}.cls-2,.cls-3{font-family:Arial-ItalicMT, Arial;}.cls-3{font-size:16.02px;}.cls-3,.cls-6{fill:#1d1d1b;}.cls-4{fill:none;stroke:#000;stroke-miterlimit:10;}.cls-5{font-size:9px;fill:#e52421;font-family:Consolas;}.cls-6{font-size:35.92px;font-family:ArialMT, Arial;}</style></defs><title>velocidadparticula2</title><text class="cls-1" transform="translate(38.09 47.85)">Datos:</text><text class="cls-2" transform="translate(134.54 46.76)">Vx(t) = 40t+ 5t</text><text class="cls-2" transform="translate(38.09 83.42)">a</text><text class="cls-3" transform="translate(306.31 38.02)">2</text><line class="cls-4" x1="165.64" y1="88.34" x2="232.72" y2="88.34"/><text class="cls-2" transform="translate(25.91 154.4)">∆v = Vx (2) - Vx (0) = 20 - 40 = -20</text><text class="cls-2" transform="translate(177.15 83.42)">∆v</text><text class="cls-2" transform="translate(177.15 114.08)">∆t</text><line class="cls-4" x1="433.54" y1="147.19" x2="474.51" y2="147.19"/><text class="cls-2" transform="translate(445.05 142.28)">m</text><text class="cls-2" transform="translate(445.05 172.94)">s</text><line class="cls-4" x1="477.01" y1="277.76" x2="517.98" y2="277.76"/><text class="cls-2" transform="translate(488.52 272.84)">m</text><text class="cls-2" transform="translate(488.52 303.51)">s</text><line class="cls-4" x1="349.88" y1="202.03" x2="390.85" y2="202.03"/><text class="cls-2" transform="translate(361.4 197.12)">m</text><text class="cls-2" transform="translate(361.4 227.78)">s²</text><text class="cls-5" transform="translate(24.25 3.96)"> </text><text class="cls-2" transform="translate(55.19 91.47)">med - x =</text><text class="cls-2" transform="translate(74.59 194.33)">a</text><line class="cls-4" x1="222.96" y1="201.44" x2="273.8" y2="201.44"/><text class="cls-2" transform="translate(234.47 194.33)">20</text><text class="cls-2" transform="translate(234.47 224.99)">2</text><line class="cls-4" x1="85.11" y1="275.81" x2="198.96" y2="275.81"/><text class="cls-2" transform="translate(96 266.53)">dVx (2)</text><text class="cls-2" transform="translate(127.4 304.07)">dt</text><text class="cls-2" transform="translate(91.69 202.38)">med - x =</text><text class="cls-2" transform="translate(11.72 277.44)">a (2)= </text><text class="cls-2" transform="translate(206.5 277.44)">= Vx’ (2) = -10(2) = -20</text><text class="cls-6" transform="translate(208 201.44)">-</text><text class="cls-2" transform="translate(283.09 206.6)">= -10</text></svg>