<svg id="Capa_1" data-name="Capa 1" xmlns="http://www.w3.org/2000/svg" viewBox="0 0 969.36 316.81"><defs><style>.cls-1{fill:none;stroke:#000;stroke-miterlimit:10;}.cls-2{font-size:28px;}.cls-10,.cls-12,.cls-13,.cls-15,.cls-16,.cls-2,.cls-3,.cls-5,.cls-7,.cls-8,.cls-9{font-family:Arial-ItalicMT, Arial;font-style:italic;}.cls-3{font-size:27.3px;}.cls-4{fill:#2e8dbc;}.cls-5{font-size:28.15px;}.cls-6{fill:#40a7e3;}.cls-7{font-size:42.12px;}.cls-8{font-size:29.44px;}.cls-9{font-size:37.68px;}.cls-10{font-size:25.15px;}.cls-11{font-size:28.49px;}.cls-11,.cls-14,.cls-17{font-family:Arial-BoldMT, Arial;font-weight:700;}.cls-12{font-size:37.33px;}.cls-13{font-size:24.91px;}.cls-14{font-size:28.23px;}.cls-15{font-size:36.81px;}.cls-16{font-size:24.57px;}.cls-17{font-size:27.84px;}.cls-18{letter-spacing:-0.06em;}</style></defs><title>velocidadyrapidez2</title><polygon class="cls-1" points="68.32 14.19 56.79 42.31 79.86 42.31 68.32 14.19"/><text class="cls-2" transform="translate(89.97 41.45)">x = 2,3 - 0 = 2,3 m</text><polygon class="cls-1" points="68.32 58.74 56.79 86.86 79.86 86.86 68.32 58.74"/><text class="cls-2" transform="translate(89.95 87)">t = 1,0 - 0 = 1,0 s</text><polygon class="cls-1" points="68.03 116.7 56.79 144.11 79.28 144.11 68.03 116.7"/><text class="cls-3" transform="translate(89.14 143.27)">x = 57,5 - 9,2 = 48,3 m</text><polygon class="cls-1" points="68.03 160.12 56.79 187.53 79.28 187.53 68.03 160.12"/><text class="cls-3" transform="translate(89.12 187.68)">t = 5,0 - 2,0 = 3,0 s</text><path class="cls-4" d="M17.29,18.31l-4.41-.47A4.74,4.74,0,0,1,13.6,16,4,4,0,0,1,15,14.87a5.85,5.85,0,0,1,1.75-.54,13.87,13.87,0,0,1,2.4-.2,18.55,18.55,0,0,1,3.34.24,4.18,4.18,0,0,1,2.1,1,3.46,3.46,0,0,1,.93,1.44,5.43,5.43,0,0,1,.34,1.79v5.32a6.59,6.59,0,0,0,.1,1.33,6.69,6.69,0,0,0,.47,1.23H22.05a4.21,4.21,0,0,1-.34-.71,6.63,6.63,0,0,1-.16-.76,5.93,5.93,0,0,1-1.8,1.25,7.6,7.6,0,0,1-2.85.49,4.79,4.79,0,0,1-3.27-1A3.39,3.39,0,0,1,13.32,21a5.45,5.45,0,0,1,3-1.32c1.73-.35,2.85-.59,3.37-.73a14.92,14.92,0,0,0,1.63-.55,1.64,1.64,0,0,0-.35-1.19,1.75,1.75,0,0,0-1.24-.34,3.23,3.23,0,0,0-1.7.36A2,2,0,0,0,17.29,18.31Zm4,2.43q-.95.33-2,.6a4.63,4.63,0,0,0-1.78.73,1.16,1.16,0,0,0-.39.85,1.15,1.15,0,0,0,.38.89,1.57,1.57,0,0,0,1.12.35,2.85,2.85,0,0,0,1.43-.37,2.25,2.25,0,0,0,.94-.92,3,3,0,0,0,.28-1.4Z"/><path class="cls-4" d="M28.59,21.82h4.93v4.63H28.59Z"/><path class="cls-4" d="M12.51,121.27h4.66V127a4.82,4.82,0,0,1,1.58-1.09,5,5,0,0,1,1.94-.36,4.72,4.72,0,0,1,3.64,1.58,6.54,6.54,0,0,1,1.44,4.55,8.56,8.56,0,0,1-.66,3.47,4.86,4.86,0,0,1-1.82,2.25,4.93,4.93,0,0,1-4.8.22,5.78,5.78,0,0,1-1.66-1.53v1.78H12.51Zm4.63,10.57a3.41,3.41,0,0,0,.59,2.25,1.82,1.82,0,0,0,1.48.7,1.7,1.7,0,0,0,1.38-.69,3.6,3.6,0,0,0,.57-2.3,3.3,3.3,0,0,0-.55-2.1,1.68,1.68,0,0,0-1.34-.67,1.89,1.89,0,0,0-1.53.7A3.16,3.16,0,0,0,17.14,131.84Z"/><path class="cls-4" d="M28,133.27h4.93v4.63H28Z"/><polygon class="cls-1" points="68.38 229.25 56.79 257.52 79.98 257.52 68.38 229.25"/><text class="cls-5" transform="translate(90.15 256.65)">x = 57,5 - 0 = 57,5 m</text><polygon class="cls-1" points="68.38 274.03 56.79 302.3 79.98 302.3 68.38 274.03"/><text class="cls-5" transform="translate(90.12 302.45)">t = 5,0 - 0 = 5,0 s</text><path class="cls-4" d="M22.05,239.25l4.39.5a6.09,6.09,0,0,1-1.19,2.37,5.51,5.51,0,0,1-2.12,1.56,8.25,8.25,0,0,1-3.27.56,11.93,11.93,0,0,1-3.19-.36,5.58,5.58,0,0,1-2.2-1.15A5.87,5.87,0,0,1,13,240.85a7.94,7.94,0,0,1,.12-5.95,5.58,5.58,0,0,1,1.27-1.62,5.73,5.73,0,0,1,1.65-1.07,9.21,9.21,0,0,1,3.46-.56,7.92,7.92,0,0,1,4.5,1.06,5.53,5.53,0,0,1,2.17,3.08l-4.34.58a2,2,0,0,0-.74-1.16,2.44,2.44,0,0,0-1.45-.4,2.36,2.36,0,0,0-1.86.83,3.71,3.71,0,0,0-.7,2.48,3.21,3.21,0,0,0,.7,2.25,2.29,2.29,0,0,0,1.79.77,2.48,2.48,0,0,0,1.53-.46A2.77,2.77,0,0,0,22.05,239.25Z"/><path class="cls-4" d="M28.57,239.34h4.94V244H28.57Z"/><polygon class="cls-6" points="396.46 65.23 514.92 65.23 514.92 76.8 537.71 63.64 514.92 50.49 514.92 62.05 396.46 62.05 396.46 65.23"/><polygon class="cls-6" points="396.46 162.02 514.92 162.02 514.92 173.59 537.71 160.44 514.92 147.28 514.92 158.85 396.46 158.85 396.46 162.02"/><polygon class="cls-6" points="396.46 264.55 514.92 264.55 514.92 276.12 537.71 262.97 514.92 249.81 514.92 261.38 396.46 261.38 396.46 264.55"/><text class="cls-7" transform="translate(586.13 87.42)">V</text><text class="cls-8" transform="translate(617.83 84.04)">med-x</text><text class="cls-9" transform="translate(718.01 74.05)">=</text><text class="cls-9" transform="translate(834.06 74.05)">=</text><line class="cls-1" x1="747.88" y1="60.02" x2="829.25" y2="60.02"/><text class="cls-10" transform="translate(753.52 51.04)">2,3 m</text><text class="cls-11" transform="translate(868.22 66.89)">2,3</text><text class="cls-10" transform="translate(757.71 88.31)">1,0 s</text><text class="cls-11" transform="translate(918.58 52.63)">m</text><text class="cls-11" transform="translate(923.04 78.67)">s</text><line class="cls-1" x1="914.2" y1="58.71" x2="952.05" y2="58.71"/><text class="cls-7" transform="translate(586.13 173.24)">V</text><text class="cls-8" transform="translate(617.83 169.85)">med-x</text><text class="cls-12" transform="translate(718.01 173.63)">=</text><text class="cls-12" transform="translate(832.97 173.63)">=</text><line class="cls-1" x1="747.61" y1="159.73" x2="828.21" y2="159.73"/><text class="cls-13" transform="translate(746.27 150.84)">48,3 m</text><text class="cls-14" transform="translate(858.97 166.54)">16,1</text><text class="cls-13" transform="translate(757.34 187.76)">3,0 s</text><text class="cls-14" transform="translate(918.89 152.41)">m</text><text class="cls-14" transform="translate(923.31 178.21)">s</text><line class="cls-1" x1="914.55" y1="158.44" x2="952.05" y2="158.44"/><text class="cls-7" transform="translate(586.13 267.66)">V</text><text class="cls-8" transform="translate(617.83 264.28)">med-x</text><text class="cls-15" transform="translate(718.01 283.17)">=</text><text class="cls-15" transform="translate(831.39 283.17)">=</text><line class="cls-1" x1="747.2" y1="269.46" x2="826.69" y2="269.46"/><text class="cls-16" transform="translate(745.88 259.81)">57,5 m</text><text class="cls-17" transform="translate(857.79 276.17)"><tspan class="cls-18">1</tspan><tspan x="13.95" y="0">1,5</tspan></text><text class="cls-16" transform="translate(756.8 297.1)">5,0 s</text><text class="cls-17" transform="translate(919.35 262.24)">m</text><text class="cls-17" transform="translate(923.7 287.68)">s</text><line class="cls-1" x1="915.07" y1="268.18" x2="952.05" y2="268.18"/></svg>