<svg id="Capa_1" data-name="Capa 1" xmlns="http://www.w3.org/2000/svg" viewBox="0 0 121.47 38.2"><defs><style>.cls-1{font-size:18px;fill:#e52421;font-family:ArialMT, Arial;}.cls-2,.cls-3,.cls-4{fill:#8fa9d9;}.cls-3,.cls-4{font-size:25.98px;}.cls-3,.cls-5{font-family:CambriaMath, Cambria Math;}.cls-4{font-family:Arial-BoldMT, Arial;font-weight:700;}.cls-5{font-size:31.98px;}</style></defs><title>wt</title><text class="cls-1" transform="translate(83.54 -4.99)"> </text><path class="cls-2" d="M18.63,23.83a2.93,2.93,0,0,1-1.11-.18,1.33,1.33,0,0,1-.63-.52,2.37,2.37,0,0,1-.26-.79,7.47,7.47,0,0,1-.06-1,14.42,14.42,0,0,1,.09-1.56c.06-.54.13-1.09.23-1.64l.77-3.59c.05-.22.09-.42.13-.6a2.94,2.94,0,0,0,.05-.44,1,1,0,0,0-.16-.6.76.76,0,0,0-.65-.22A4.07,4.07,0,0,0,14.78,14L14,13.15a7.73,7.73,0,0,1,1.79-1.53,4.69,4.69,0,0,1,2.63-.78,2.56,2.56,0,0,1,1.92.69A2.34,2.34,0,0,1,21,13.25a6.9,6.9,0,0,1-.14,1.32l-.82,3.87c-.08.45-.14.88-.19,1.31a7.94,7.94,0,0,0-.08,1.12,4.16,4.16,0,0,0,.06.79c.05.2.1.31.17.31a2,2,0,0,0,.92-.33,8.28,8.28,0,0,0,1.22-.92,12.34,12.34,0,0,0,1.3-1.37,11.42,11.42,0,0,0,1.18-1.7,9.51,9.51,0,0,0,.85-1.93,6.67,6.67,0,0,0,.33-2.06,1.38,1.38,0,0,0-.2-.79.7.7,0,0,0-.62-.28,1.32,1.32,0,0,0-.87.35,5.61,5.61,0,0,0-.81.93l-.89-.71a6.38,6.38,0,0,1,1.78-1.71,4.06,4.06,0,0,1,2.19-.61,2.06,2.06,0,0,1,1.69.62,2.52,2.52,0,0,1,.49,1.64,5,5,0,0,1-.23,1.37,9.45,9.45,0,0,1-.66,1.65c-.29.57-.62,1.16-1,1.77a16.73,16.73,0,0,1-1.3,1.77,19.29,19.29,0,0,1-1.51,1.62,12.09,12.09,0,0,1-1.68,1.33,9.1,9.1,0,0,1-1.76.89A5.14,5.14,0,0,1,18.63,23.83Z"/><path class="cls-2" d="M40.43,16.65l-.71,3.27H38.56a6.18,6.18,0,0,0-.12-1.41,1.13,1.13,0,0,0-.34-.6,1,1,0,0,0-.68-.2h-.8l-1.94,8.82q-.06.3-.09.51a4,4,0,0,0,0,.55.68.68,0,0,0,.22.58,1.12,1.12,0,0,0,.66.2l-.13.6H30.52l.13-.6a1.28,1.28,0,0,0,.63-.23,1.26,1.26,0,0,0,.39-.54A5.92,5.92,0,0,0,32,26.53l1.94-8.82h-.72a1.81,1.81,0,0,0-.8.15,2,2,0,0,0-.69.62A5.65,5.65,0,0,0,31,19.73H29.81l.67-3.08Z"/><text class="cls-3" transform="translate(48.98 23.63)">=</text><path class="cls-2" d="M82.49,13.89a8.85,8.85,0,0,1,2.24-2.28,4.6,4.6,0,0,1,2.58-.77,7.22,7.22,0,0,1,1.78.24l-.75,3.41H86.07a2.72,2.72,0,0,0-.18-1.18.67.67,0,0,0-.63-.33,1.42,1.42,0,0,0-.75.25,4.2,4.2,0,0,0-1,.93,6,6,0,0,0-.85,1.34,8,8,0,0,0-.5,1.62l-1.43,6.51H77.12l2-8.82a6.65,6.65,0,0,0,.19-1.25,1.28,1.28,0,0,0-.14-.65.53.53,0,0,0-.48-.23,1.38,1.38,0,0,0-.85.36,7.31,7.31,0,0,0-1.07,1.05l-.91-.92a9.68,9.68,0,0,1,2.25-1.81,4.33,4.33,0,0,1,2.07-.52,2.34,2.34,0,0,1,1.68.59A2,2,0,0,1,82.53,13a3.22,3.22,0,0,1-.14.87Z"/><path class="cls-2" d="M99.4,21.72h-.11a4.38,4.38,0,0,1-4.08,2.11,4.76,4.76,0,0,1-2.29-.55,4.07,4.07,0,0,1-1.6-1.56,4.49,4.49,0,0,1-.58-2.3,6.88,6.88,0,0,1,.8-3.19,10.53,10.53,0,0,1,2.32-3,15.12,15.12,0,0,1,3.49-2.41l.82,1.07a10.72,10.72,0,0,0-2.76,3.66,10,10,0,0,0-1.06,4.32,4.54,4.54,0,0,0,.33,2,1.08,1.08,0,0,0,1,.64q1.61,0,2.4-3.54l.94-4.22h3.59l-.92,4A10.63,10.63,0,0,0,101.4,21a2,2,0,0,0,.27,1.18,1,1,0,0,0,.85.35,1.92,1.92,0,0,0,1.47-.87,6.46,6.46,0,0,0,1.11-2.4,11.75,11.75,0,0,0,.41-3.16,9.33,9.33,0,0,0-.29-2.46,6.46,6.46,0,0,0-.76-1.83l1-1a9.94,9.94,0,0,1,2.69,2.92A6.66,6.66,0,0,1,109,17a7.29,7.29,0,0,1-.82,3.4,6.19,6.19,0,0,1-2.29,2.49,6.09,6.09,0,0,1-3.27.9,3.63,3.63,0,0,1-2-.54A3.15,3.15,0,0,1,99.4,21.72Z"/><text class="cls-4" transform="translate(110.39 23.63)"> </text><text class="cls-5" transform="translate(6.88 -76.59)">)</text><text class="cls-5" transform="translate(29.1 -75.15)">=</text><text class="cls-5" transform="translate(100.09 -75.15)">,</text></svg>