<svg xmlns="http://www.w3.org/2000/svg" viewBox="0 0 1200 652.22"><defs><style>.cls-1{isolation:isolate;}.cls-2{fill:#cacccb;}.cls-3{fill:#feb349;}.cls-4{fill:#3f3f3f;}.cls-5{fill:#8cdfd8;}.cls-6{fill:#d7d4d3;opacity:0.74;mix-blend-mode:multiply;}.cls-7{font-size:29px;font-family:Arial-BoldItalicMT, Arial;font-weight:700;font-style:italic;}.cls-8{font-family:ArialMT, Arial;font-weight:400;font-style:normal;}</style></defs><title>analisis</title><g class="cls-1"><g id="Capa_1" data-name="Capa 1"><path class="cls-2" d="M346.34,20.91C189.85,20.91,63,152.64,63,315.15v6c0,162.51,126.85,294.24,283.34,294.24H1202V20.91Z"/><path class="cls-3" d="M220.74,181.34C182.26,208.73,157,289.63,146,324.71a10.65,10.65,0,0,0,10.19,13.82h28c-18.26,111.53,95.88,81.52,95.88,81.52l-12,67.4h98s-7.14-37.66-11.64-57.61c-5.62-24.94,8.46-52.37,20.74-70.2,17.18-24.94,28.22-53.8,30.49-84C415.35,146.17,259.37,153.83,220.74,181.34Z"/><path class="cls-4" d="M226.28,264.82a16.64,16.64,0,1,0,16.64,16.64A16.64,16.64,0,0,0,226.28,264.82Z"/><path class="cls-4" d="M341.31,192.21c-24-12.91-67.8-18.58-101.21-5C215.85,197.11,205.79,214,211,230.88c4.52,14.7,17.06,21.11,35.7,21,29.35-.25,56.21-2.65,67.72,51.55,10.08,47.42,98.44,14.79,72.73-57.76A98,98,0,0,0,341.31,192.21Z"/><path class="cls-5" d="M363.45,235.18l4.8-3.05a34.23,34.23,0,0,0-3.26-6.59l-5.35,2A30.15,30.15,0,0,0,357,224.2a27.8,27.8,0,0,0-3.13-2.93l2.4-5.19a35.25,35.25,0,0,0-6.3-3.77l-3.42,4.57a30,30,0,0,0-8.29-2.16l-.75-5.58a34.94,34.94,0,0,0-7.37.27l-.39,5.57a29.79,29.79,0,0,0-8.18,2.66L318,213.46a36.62,36.62,0,0,0-6.05,4.23l2.6,4.76-.1.09a30.24,30.24,0,0,0-5.37,6.61l-5.1-1.54a35,35,0,0,0-2.82,6.84l4.62,2.53a20.93,20.93,0,0,0-1,8.62l-5,1.43a34.41,34.41,0,0,0,1.31,7.31l5.13-.37a30.26,30.26,0,0,0,3.87,7.81l-3.38,3.85c.74,1,1.53,1.93,2.38,2.85a36.14,36.14,0,0,0,2.67,2.59l4.09-3.06a30.11,30.11,0,0,0,7.48,4.46l-.77,5.09a36.35,36.35,0,0,0,7.18,1.88l1.81-4.87a29.79,29.79,0,0,0,8.69-.3l2.15,4.81a35.49,35.49,0,0,0,7-2.28l-1.13-5.21a30.09,30.09,0,0,0,7-4.84l.09-.09,4.54,3a34.48,34.48,0,0,0,4.69-5.7L360.75,260a29.55,29.55,0,0,0,3.28-7.95l5.59,0a35.4,35.4,0,0,0,.83-7.32l-5.51-1.2A30.06,30.06,0,0,0,363.45,235.18Zm-27.62,28.64a19.64,19.64,0,1,1,18.83-20.41A19.64,19.64,0,0,1,335.83,263.82Z"/><path class="cls-3" d="M303.7,211.72l4.12-2a30.43,30.43,0,0,0-2.1-6.06l-4.49,1.08a26.37,26.37,0,0,0-4.34-6l-.08-.09,2.48-4a30.3,30.3,0,0,0-5-3.95L291,194.22a25.9,25.9,0,0,0-6.95-2.7l-.07-4.85a31,31,0,0,0-6.37-.58l-.93,4.8a26.46,26.46,0,0,0-7.27,1.46l-2.73-4.11a30.82,30.82,0,0,0-5.66,2.95l1.84,4.61a26.53,26.53,0,0,0-2.85,2.39,26.87,26.87,0,0,0-2.48,2.76L253,199a31.11,31.11,0,0,0-3.14,5.54l4,2.88a25.94,25.94,0,0,0-1.71,7.22l-4.82.78a28.91,28.91,0,0,0,.37,6.37l4.83.24a26,26,0,0,0,2.46,7l-3.55,3.18a30.59,30.59,0,0,0,3.79,5.17l4.07-2.35.09.08a25.86,25.86,0,0,0,5.82,4.54L264,244.09a30.51,30.51,0,0,0,6,2.31l2.1-4.05a26.23,26.23,0,0,0,7.49.67l1.33,4.3a31.11,31.11,0,0,0,6.31-1.27l-.42-4.45a25.88,25.88,0,0,0,6.7-3.51l3.39,2.86a28.48,28.48,0,0,0,2.44-2.12,32.09,32.09,0,0,0,2.19-2.35l-2.73-3.5a26.17,26.17,0,0,0,3.72-6.57l4.43.57a31,31,0,0,0,1.48-6.26l-4.24-1.48A26.38,26.38,0,0,0,303.7,211.72Zm-27,18.13a13.35,13.35,0,1,1,14.56-12A13.36,13.36,0,0,1,276.7,229.85Z"/><path class="cls-6" d="M315.61,166.53V487.45h50.47s-7.14-37.66-11.64-57.61c-5.62-24.94,8.46-52.37,20.74-70.2,17.18-24.94,28.22-53.8,30.49-84C411.09,203.06,364.45,173.59,315.61,166.53Z"/><text class="cls-7" transform="translate(742.78 171.88)">MICMAC <tspan class="cls-8"><tspan x="-274.08" y="69.6">Para esta sesión es importante tener la herramienta </tspan><tspan x="-218.49" y="104.4">del manual que se encuentra inmerso en el </tspan><tspan x="-215.24" y="139.2">aplicativo y es fundamental para realizar el </tspan><tspan x="-282.16" y="174">desarrollo e interpretación de las siguientes aspectos </tspan><tspan x="-248.33" y="208.8">que se nombrar a continuación que se dará una </tspan><tspan x="-225.74" y="243.6">breve definición que posteriormente ustedes </tspan><tspan x="-249.11" y="278.4">deberán profundizar en el documento y la forma </tspan><tspan x="-62.1" y="313.2">como se relaciona.</tspan></tspan></text></g></g></svg>