<svg xmlns="http://www.w3.org/2000/svg" viewBox="0 0 1200 652.22"><defs><style>.cls-1{isolation:isolate;}.cls-2{fill:#cacccb;}.cls-3{font-size:29px;font-family:ArialMT, Arial;}.cls-4{fill:#9d9d9d;}.cls-5{fill:#bebebe;}.cls-14,.cls-18,.cls-6{fill:#d7d4d3;}.cls-6{opacity:0.45;}.cls-13,.cls-18,.cls-6{mix-blend-mode:multiply;}.cls-7{fill:#feb349;}.cls-8{fill:#31c0b9;}.cls-9{fill:#3f3f3f;}.cls-10{fill:#fff;}.cls-11{fill:#8cdfd8;}.cls-12{fill:#e5e6e5;}.cls-13{opacity:0.74;}.cls-15{fill:#727272;}.cls-16{fill:#2b2b2b;}.cls-17{fill:#4a4a4a;}.cls-19{fill:#f0ece7;}.cls-20{fill:#8c9090;}.cls-21{fill:#fecb68;}.cls-22{fill:#2c2e3b;}</style></defs><title>analisis</title><g class="cls-1"><g id="Capa_1" data-name="Capa 1"><path class="cls-2" d="M932,56.29H253.2v-.06h-296V596h296v-.08H932c142,0,257.22-119.59,257.22-267.12v-5.4C1189.19,175.88,1074,56.29,932,56.29Z"/><text class="cls-3" transform="translate(143.23 253.97)"><tspan xml:space="preserve"> La funcionalidad y desarrollo del </tspan><tspan x="4.86" y="34.8">escenario análisis estructural de </tspan><tspan x="11.31" y="69.6">variables se desarrollará con el </tspan><tspan x="-24.16" y="104.4">aplicativo de uso gratis y del instituto </tspan><tspan x="113.66" y="139.2">de prospectiva.</tspan></text><polygon class="cls-4" points="863.64 358.14 859.49 358.14 764.14 358.14 701.44 420.25 859.49 420.25 863.64 420.25 1021.68 420.25 958.98 358.14 863.64 358.14"/><rect class="cls-5" x="701.44" y="420.25" width="320.24" height="70.07"/><rect class="cls-6" x="861.56" y="420.25" width="160.12" height="70.07"/><path class="cls-7" d="M847.6,235.21s-16.85-6.42-24.21,0c0,0,5.89,25.72-6.54,28.66-2.42.58-4.79,1.28-7,2,1.76.81,3.54,1.67,5.37,2.64,12,6.35,29.16,4.57,42.39-1.23-4.84-1.55-9.31-3.44-11.44-5.57C840.24,255.86,847.6,235.21,847.6,235.21Z"/><path class="cls-8" d="M835.62,268.4a19.34,19.34,0,0,1-14.7-6.88,8.1,8.1,0,0,1-4.07,2.35A105.32,105.32,0,0,0,793,273.2s15.79,68.61,14.56,84.94H867l8.78-86.41s-19.19-3.32-27.32-8.29A19.52,19.52,0,0,1,835.62,268.4Z"/><path class="cls-7" d="M803.76,189.27a60.09,60.09,0,0,0-.62,12.55,8.11,8.11,0,0,0-2.37-.38c-5.22,0-7.73,5.39-7.73,11.3s2.84,11.53,8.06,11.53c1.93,0,3.39-.1,4.89-1.23,3.84,13,12.46,24.8,31.14,24.8,35.34,0,25.85-58.57,25.85-58.57S817.17,166,803.76,189.27Z"/><path class="cls-9" d="M790.83,213.39s-1.83,21.11,21,16.78h0a62.86,62.86,0,0,1-3.18-8.11,10.79,10.79,0,0,1-4.74.67c-5.22,0-9.45-4.78-9.45-10.69s4.23-8.6,9.45-8.6a8.51,8.51,0,0,1,2.37.38,96.36,96.36,0,0,1,.61-14.55,18.91,18.91,0,0,1,7.25-7.13,2.83,2.83,0,0,1,.92-.52S787.88,156.29,790.83,213.39Z"/><path class="cls-9" d="M852.38,174.58C845,167,829.85,155.16,802.86,179c0,0,40.49,50.57,70.83,2.4C873.69,181.35,860.74,183.22,852.38,174.58Z"/><path class="cls-9" d="M838.27,222.48c-13.09,0-17.66,8.27-17.66,8.27-12.76-10.21-6.35-40.66-6.35-40.66l-4.12-5.31c-9.49,1.24-4.58,31.16-3.94,39s6.87,26.2,31.47,26.23c21.67,0,23.89-23,23.89-23l-7.25,4.5S851.36,222.48,838.27,222.48Z"/><path class="cls-10" d="M837.65,238.84c8.13,0,8.11-7.26,8.11-7.26H829.57S829.52,238.84,837.65,238.84Z"/><path class="cls-11" d="M790.1,348.78c0-7.36,33.86-57.67,12.76-72.88s-25.29,25.82-38.37,66.83c-10.22,32.06,58.86,43.42,58.86,43.42l7.24-17.49S790.1,356.14,790.1,348.78Z"/><path class="cls-7" d="M829.53,368.5l-6.18,17.65s16.79,9,20.55-2.87S829.53,368.5,829.53,368.5Z"/><path class="cls-12" d="M748.63,319.82s5.67,17-7.09,18-5.24,17.67,14.07,21.92c0,0-16.57-13.74-7-15.7S766.2,334.55,748.63,319.82Z"/><polygon class="cls-12" points="732.71 398.68 732.71 403.91 765.26 403.91 765.26 398.68 748.63 398.68 732.71 398.68"/><path class="cls-12" d="M728.67,368.25c-.17.89-.31,1.79-.4,2.71A9.79,9.79,0,1,0,732.42,389c3.76,5.86,9.61,9.65,16.21,9.65,11.33,0,20.52-11.12,20.52-24.83a29.3,29.3,0,0,0-.55-5.6Zm-2.35,18.14a5.86,5.86,0,0,1,1.84-11.54,28.83,28.83,0,0,0,2.47,10.9A5.83,5.83,0,0,1,726.32,386.39Z"/><g class="cls-13"><rect class="cls-14" x="748.26" y="398.68" width="17.01" height="5.23"/><path class="cls-14" d="M748.26,368.25v30.4l.37,0c11.33,0,20.52-11.12,20.52-24.83a29.3,29.3,0,0,0-.55-5.6Z"/></g><rect class="cls-15" x="851.36" y="376.76" width="108.01" height="8.14"/><path class="cls-15" d="M848.91,387.59a14.06,14.06,0,0,0-14.23,13h28.46A14.08,14.08,0,0,0,848.91,387.59Z"/><polygon class="cls-16" points="922.19 359.09 912.94 394.42 955.35 394.42 946.09 359.09 922.19 359.09"/><rect class="cls-17" x="858.07" y="263.87" width="152.14" height="100.12"/><path class="cls-17" d="M907.25,390.5H961a6.32,6.32,0,0,1,6.32,6.32v.13a6.31,6.31,0,0,1-6.31,6.31H907.25a6.31,6.31,0,0,1-6.31-6.31v-.13A6.32,6.32,0,0,1,907.25,390.5Z"/><path class="cls-18" d="M934.43,403.26H961a6.31,6.31,0,0,0,6.31-6.32v-.13A6.3,6.3,0,0,0,961,390.5h-6.72L947.38,364h62.84V263.87H934.43Z"/><path class="cls-17" d="M1000.48,161.9a39.18,39.18,0,1,0,39.17,39.17A39.17,39.17,0,0,0,1000.48,161.9Z"/><path class="cls-19" d="M1000.48,170.7a30.59,30.59,0,1,0,23.41,10.9A30.58,30.58,0,0,0,1000.48,170.7Z"/><path class="cls-20" d="M1000.48,173.88c-.34,0-.62.13-.62.3v8.56c0,.17.28.31.62.31s.62-.14.62-.31v-8.56C1001.1,174,1000.82,173.88,1000.48,173.88Z"/><path class="cls-20" d="M1000.48,220.11c-.34,0-.62.14-.62.31V229c0,.17.28.31.62.31s.62-.14.62-.31v-8.56C1001.1,220.25,1000.82,220.11,1000.48,220.11Z"/><path class="cls-20" d="M1028.17,201h-8.57c-.17,0-.31.28-.31.62s.14.62.31.62h8.57c.16,0,.3-.28.3-.62S1028.33,201,1028.17,201Z"/><polygon class="cls-21" points="1000.53 202.56 999.39 203.78 1014.79 218.22 1016.61 218.83 1015.93 217 1000.53 202.56"/><path class="cls-20" d="M981.48,201h-8.56c-.17,0-.31.28-.31.62s.14.62.31.62h8.56c.17,0,.31-.28.31-.62S981.65,201,981.48,201Z"/><path class="cls-22" d="M1000.66,200.29l-6.85-21.87-1.87-1.51-.56,2.27,6.81,21.74a2.72,2.72,0,0,0-.42.34,3.65,3.65,0,0,0-.18.34l-10.5.28-2,1.61,2.07,1.71,10.56-.28a2.43,2.43,0,0,0,.41.5,3,3,0,0,0,3.76-4.56A2.86,2.86,0,0,0,1000.66,200.29Z"/></g></g></svg>