<svg xmlns="http://www.w3.org/2000/svg" viewBox="0 0 1200 652.22"><defs><style>.cls-1{isolation:isolate;}.cls-2{fill:#cacccb;}.cls-3{fill:#e8eae9;}.cls-4{fill:#d8dad9;}.cls-15,.cls-4,.cls-7,.cls-9{mix-blend-mode:multiply;}.cls-5{fill:#8cdfd8;}.cls-6{fill:#979797;}.cls-7,.cls-9{opacity:0.75;}.cls-15,.cls-8,.cls-9{fill:#d7d9d8;}.cls-10{fill:#feb349;}.cls-11{fill:#3f3f3f;}.cls-12{fill:#686868;}.cls-13{fill:#efefef;}.cls-14{fill:#f9f9f9;}.cls-15{opacity:0.85;}.cls-16{font-size:29px;font-family:ArialMT, Arial;}</style></defs><title>analisis</title><g class="cls-1"><g id="Capa_1" data-name="Capa 1"><path class="cls-2" d="M1037.73,327.46v-5.4c0-147.53-115.17-267.12-257.23-267.12H3.72V594.58H780.5C922.56,594.58,1037.73,475,1037.73,327.46Z"/><rect class="cls-3" x="776.54" y="210.49" width="180.36" height="216.88"/><polygon class="cls-4" points="755.49 297.5 755.49 397.78 896.13 397.78 896.13 209.24 829.17 209.24 755.49 297.5"/><polygon class="cls-5" points="841.36 143.22 839.52 141.6 663.25 141.6 663.25 397.78 887.6 397.78 887.6 184.42 841.36 184.42 841.36 143.22"/><polygon class="cls-6" points="839.71 184.42 887.6 184.42 887.6 184.04 839.52 141.6 839.71 184.42"/><g class="cls-7"><polygon class="cls-8" points="839.71 184.42 887.6 184.42 887.6 184.04 839.52 141.6 839.71 184.42"/></g><path class="cls-9" d="M939.7,341.12a8.86,8.86,0,0,0-1.79-1.88,8.69,8.69,0,0,0-3.72-1.81,9.32,9.32,0,0,0-1.77-.18H833.14a8.78,8.78,0,0,0-8.78,8.78v80.49H941.2V346a8.85,8.85,0,0,0-.69-3.42A10.2,10.2,0,0,0,939.7,341.12Z"/><path class="cls-10" d="M812.93,337.25h99.28A8.78,8.78,0,0,1,921,346V450.57a8.77,8.77,0,0,1-8.77,8.77H812.93a8.78,8.78,0,0,1-8.78-8.78V346A8.78,8.78,0,0,1,812.93,337.25Z"/><rect class="cls-11" x="818.55" y="351.65" width="89.15" height="17.13"/><rect class="cls-12" x="818.55" y="392.86" width="16.06" height="13.17"/><rect class="cls-12" x="842.64" y="392.86" width="16.06" height="13.17"/><rect class="cls-12" x="866.72" y="392.86" width="16.06" height="13.17"/><rect class="cls-10" x="890.81" y="392.86" width="16.06" height="13.17"/><rect class="cls-12" x="818.55" y="414.2" width="16.06" height="13.17"/><rect class="cls-12" x="842.64" y="414.2" width="16.06" height="13.17"/><rect class="cls-12" x="866.72" y="414.2" width="16.06" height="13.17"/><rect class="cls-10" x="890.81" y="414.2" width="16.06" height="13.17"/><rect class="cls-12" x="818.55" y="435.54" width="16.06" height="13.17"/><rect class="cls-12" x="842.64" y="435.54" width="16.06" height="13.17"/><rect class="cls-12" x="866.72" y="435.54" width="16.06" height="13.17"/><rect class="cls-13" x="890.81" y="435.54" width="16.06" height="13.17"/><rect class="cls-12" x="818.55" y="376.77" width="16.06" height="7.82"/><rect class="cls-12" x="842.64" y="376.77" width="16.06" height="7.82"/><rect class="cls-12" x="866.72" y="376.77" width="16.06" height="7.82"/><rect class="cls-13" x="890.81" y="376.77" width="16.06" height="7.82"/><path class="cls-9" d="M912.21,337.25H862.54v122.1h49.67a8.78,8.78,0,0,0,8.78-8.78V346A8.78,8.78,0,0,0,912.21,337.25Z"/><path class="cls-11" d="M806,280.19l34,28.63a44.27,44.27,0,0,0,5.64-48.7Z"/><path class="cls-10" d="M785.76,319.75a44.27,44.27,0,0,0,33.29,2.95L806,280.19Z"/><path class="cls-6" d="M806,235.72v44.47l39.64-20.07A44.43,44.43,0,0,0,806,235.72Z"/><path class="cls-14" d="M819.05,322.7A44.53,44.53,0,0,0,840,308.82l-34-28.63Z"/><path class="cls-11" d="M785.76,319.75,806,280.19,769.5,305.57A44.67,44.67,0,0,0,785.76,319.75Z"/><path class="cls-13" d="M768.18,256.87a44.26,44.26,0,0,0,1.32,48.7L806,280.19V235.72a44.56,44.56,0,0,0-37.81,21.15Z"/><polygon class="cls-13" points="717.01 160.17 711 160.17 711 223.45 711 229.52 717.01 229.52 845.63 229.52 845.63 223.45 717.01 223.45 717.01 160.17"/><path class="cls-11" d="M810.23,183.06c-11.44,4.73-52.94,21.31-78.14,23.53l9.36,10.8S796.33,200,812.13,186.5l4.69,8.45,11.65-20.38h-23Z"/><polygon class="cls-15" points="740.57 229.82 727.33 207.39 714.1 229.82 702.09 250.16 701.24 250.16 701.24 397.21 753.43 397.21 753.43 250.16 752.58 250.16 740.57 229.82"/><rect class="cls-10" x="675.15" y="250.16" width="52.18" height="199.76"/><rect class="cls-13" x="691.3" y="250.16" width="19.88" height="199.76"/><polygon class="cls-13" points="675.15 251.59 727.33 251.59 701.24 207.39 675.15 251.59"/><path class="cls-6" d="M675.15,445.28c0,5.82,5.35,10.55,12,10.55h28.27c6.6,0,12-4.73,12-10.55V415.53H675.15Z"/><path class="cls-11" d="M688,229.82a46.61,46.61,0,0,0,26.48,0l-13.24-22.43Z"/><text class="cls-16" transform="translate(122.6 193.87)">El análisis estructural, matriz de <tspan x="-0.84" y="34.8">impactos cruzados o análisis de </tspan><tspan x="-34.75" y="69.6">dependencia e influencias, es uno de </tspan><tspan x="2.39" y="104.4">los métodos más utilizado en el </tspan><tspan x="-42.75" y="139.2">desarrollo de escenarios prospectivos. </tspan><tspan x="-24.21" y="174" xml:space="preserve">Permite el estudio de las relaciones  </tspan><tspan x="-35.48" y="208.8">directas, las relaciones indirecta y las </tspan><tspan x="-41.96" y="243.6">relaciones potenciales en el desarrollo </tspan><tspan x="28.16" y="278.4">de un proyecto o problema.</tspan></text></g></g></svg>