<svg xmlns="http://www.w3.org/2000/svg" viewBox="0 0 1200 652.22"><defs><style>.cls-1{isolation:isolate;}.cls-2{fill:#cacccb;}.cls-3{fill:#3f3f3f;}.cls-4{fill:#535353;}.cls-5{fill:#8cdfd8;}.cls-6{fill:#f9f9f9;}.cls-7{fill:#feb349;}.cls-8{fill:#818583;}.cls-9{fill:#d7d4d3;opacity:0.74;mix-blend-mode:multiply;}.cls-10{font-size:29px;font-family:ArialMT, Arial;}</style></defs><title>analisis</title><g class="cls-1"><g id="Capa_1" data-name="Capa 1"><path class="cls-2" d="M346.34,20.91C189.85,20.91,63,152.64,63,315.15v6c0,162.51,126.85,294.24,283.34,294.24H1202V20.91Z"/><polygon class="cls-3" points="281.35 393.9 252.5 464.9 370.63 464.9 341.78 393.9 281.35 393.9"/><rect class="cls-4" x="161.34" y="171.75" width="300.45" height="229.82"/><path class="cls-4" d="M374.27,455.18H248.86a14.34,14.34,0,0,0-14.33,14.33v.28a14.34,14.34,0,0,0,14.33,14.34H374.27a14.33,14.33,0,0,0,14.32-14.34v-.28A14.33,14.33,0,0,0,374.27,455.18Z"/><rect class="cls-5" x="183.48" y="188.7" width="256.17" height="195.92"/><rect class="cls-6" x="213.5" y="215.28" width="177.93" height="169.34"/><rect class="cls-2" x="289.34" y="281.92" width="64.51" height="64.51"/><rect class="cls-3" x="241.14" y="247.81" width="69.12" height="69.12"/><rect class="cls-5" x="241.14" y="282.36" width="34.55" height="34.57"/><rect class="cls-5" x="275.7" y="247.81" width="34.57" height="34.56"/><rect class="cls-7" x="275.7" y="282.36" width="34.57" height="34.57"/><rect class="cls-8" x="384.83" y="206.71" width="42.51" height="163.29"/><rect class="cls-7" x="196.7" y="197.25" width="173.91" height="32.15"/><polygon class="cls-3" points="351.52 341.86 324.39 333.09 333.17 360.22 339.79 353.6 355.03 368.84 360.15 363.72 344.91 348.48 351.52 341.86"/><path class="cls-9" d="M312,484.13h62.3a14.33,14.33,0,0,0,14.32-14.34v-.28a14.33,14.33,0,0,0-14.32-14.33h-7.59l-21.79-53.62h116.9V171.75H312Z"/><text class="cls-10" transform="translate(605.86 208.65)">Adicionalmente, vamos a trabajar la <tspan x="-69.26" y="34.8">herramienta se denomina MIC MAC (Matriz de </tspan><tspan x="-62.86" y="69.6">impactos cruzados y multiplicación aplicada a </tspan><tspan x="-42.7" y="104.4">la Clasificación). El objetivo es analizar las </tspan><tspan x="-46.76" y="139.2">relaciones que existen entre las variables y </tspan><tspan x="-22.56" y="174">observar el cambio a través del tiempo, </tspan><tspan x="-68.56" y="208.8">haciendo un análisis profundo con el ánimo de </tspan><tspan x="34.66" y="243.6">proyectar escenarios posibles.</tspan></text></g></g></svg>