<svg id="Capa_1" data-name="Capa 1" xmlns="http://www.w3.org/2000/svg" xmlns:xlink="http://www.w3.org/1999/xlink" viewBox="0 0 1080 1344.94"><defs><style>.cls-1,.cls-36{fill:#fff;}.cls-2{fill:#e3464f;}.cls-3{fill:#71b7ba;}.cls-4{fill:#90dde1;}.cls-5{fill:#6bacb0;}.cls-6{fill:#3c3662;}.cls-7{fill:#a4e0fd;}.cls-8{fill:#4a7791;}.cls-9{fill:#69abd2;}.cls-10{fill:#5c529b;}.cls-11{fill:#7dc4c4;}.cls-12{fill:#27243e;}.cls-13{fill:#3f3967;}.cls-14{fill:#516795;}.cls-15{fill:#7e9ee2;}.cls-16{fill:#312d4d;}.cls-17{fill:#574e90;}.cls-18{fill:#3c356c;}.cls-19{fill:#a3bcef;}.cls-20{fill:#484177;}.cls-21{fill:url(#linear-gradient);}.cls-22{fill:#556390;}.cls-23{fill:url(#linear-gradient-2);}.cls-24{fill:url(#linear-gradient-3);}.cls-25{fill:#38335b;}.cls-26{fill:#8098ca;}.cls-27{fill:#eab279;}.cls-28{fill:#c48447;}.cls-29{fill:#322521;}.cls-30{fill:#7cc2d6;}.cls-31{fill:#fcfcff;}.cls-32{fill:#584f94;}.cls-33{fill:#daf9f9;}.cls-34{fill:#f2d1ac;}.cls-35{fill:#bfdefd;}.cls-36,.cls-39{font-size:22px;font-family:Arial-BoldMT, Arial;font-weight:700;}.cls-37{letter-spacing:-0.04em;}.cls-38{letter-spacing:-0.11em;}.cls-40{fill:#ffca00;}.cls-41{fill:#8dccdb;}.cls-42{fill:#e5e5e5;}.cls-43{fill:#456785;}</style><linearGradient id="linear-gradient" x1="768.61" y1="401.79" x2="761.36" y2="130.65" gradientUnits="userSpaceOnUse"><stop offset="0.09" stop-color="#8aa0ca"/><stop offset="0.87" stop-color="#d1ddf2"/></linearGradient><linearGradient id="linear-gradient-2" x1="642.78" y1="405.16" x2="635.53" y2="134.01" xlink:href="#linear-gradient"/><linearGradient id="linear-gradient-3" x1="896.67" y1="398.37" x2="889.42" y2="127.22" xlink:href="#linear-gradient"/></defs><title>tecnologia</title><rect id="banner_03" data-name="banner 03" class="cls-1" x="-7.8" y="715.94" width="1096.22" height="374.21"/><rect id="banner_02" data-name="banner 02" class="cls-2" x="-8.42" y="358.33" width="1096.22" height="357.82"/><rect id="banner_02-2" data-name="banner 02" class="cls-2" x="-8.42" y="1075.87" width="1096.22" height="270.12"/><rect id="banner_01" data-name="banner 01" class="cls-1" x="-8.42" y="0.65" width="1096.22" height="357.82"/><g id="illustration02"><rect class="cls-3" x="300.1" y="435.16" width="101.29" height="234.86"/><rect class="cls-4" x="270.55" y="435.16" width="94.52" height="234.86"/><rect class="cls-5" x="274.83" y="445.7" width="86.02" height="20.03" transform="translate(635.69 911.43) rotate(180)"/><rect class="cls-5" x="274.83" y="469.69" width="86.02" height="20.03" transform="translate(635.69 959.41) rotate(180)"/><rect class="cls-5" x="274.83" y="493.68" width="86.02" height="20.03" transform="translate(635.69 1007.39) rotate(180)"/><rect class="cls-5" x="274.83" y="517.67" width="86.02" height="20.03" transform="translate(635.69 1055.37) rotate(180)"/><rect class="cls-5" x="274.83" y="541.66" width="86.02" height="20.03" transform="translate(635.69 1103.35) rotate(180)"/><rect class="cls-5" x="274.83" y="565.65" width="86.02" height="20.03" transform="translate(635.69 1151.33) rotate(180)"/><rect class="cls-5" x="274.83" y="589.64" width="86.02" height="20.03" transform="translate(635.69 1199.31) rotate(180)"/><rect class="cls-5" x="274.83" y="613.63" width="86.02" height="20.03" transform="translate(635.69 1247.29) rotate(180)"/><rect class="cls-5" x="274.83" y="637.62" width="86.02" height="20.03" transform="translate(635.69 1295.27) rotate(180)"/><rect class="cls-3" x="176.68" y="476.92" width="83.28" height="193.1"/><rect class="cls-4" x="152.39" y="476.92" width="77.71" height="193.1"/><rect class="cls-5" x="155.91" y="485.59" width="70.72" height="16.47" transform="translate(382.54 987.65) rotate(180)"/><rect class="cls-5" x="155.91" y="505.31" width="70.72" height="16.47" transform="translate(382.54 1027.1) rotate(180)"/><rect class="cls-5" x="155.91" y="525.04" width="70.72" height="16.47" transform="translate(382.54 1066.54) rotate(180)"/><rect class="cls-5" x="155.91" y="544.76" width="70.72" height="16.47" transform="translate(382.54 1105.99) rotate(180)"/><rect class="cls-5" x="155.91" y="564.48" width="70.72" height="16.47" transform="translate(382.54 1145.44) rotate(180)"/><rect class="cls-5" x="155.91" y="584.21" width="70.72" height="16.47" transform="translate(382.54 1184.89) rotate(180)"/><rect class="cls-5" x="155.91" y="603.93" width="70.72" height="16.47" transform="translate(382.54 1224.34) rotate(180)"/><rect class="cls-5" x="155.91" y="623.66" width="70.72" height="16.47" transform="translate(382.54 1263.78) rotate(180)"/><rect class="cls-5" x="155.91" y="643.38" width="70.72" height="16.47" transform="translate(382.54 1303.23) rotate(180)"/><rect class="cls-6" x="114.16" y="670.04" width="343.85" height="0.55"/><g id="cloud"><g id="cloud-2" data-name="cloud"><path class="cls-7" d="M131.2,568.84a11,11,0,0,0,.13-1.64A12.15,12.15,0,0,0,108,562.48a8.48,8.48,0,0,0-14.13,6.33H92.28a8.22,8.22,0,0,0-8.2,8.2h0a8.22,8.22,0,0,0,8.2,8.2H130.6a8.22,8.22,0,0,0,8.19-8.2h0A8.23,8.23,0,0,0,131.2,568.84Z"/></g><rect class="cls-8" x="103.61" y="567.01" width="16.71" height="15.11"/><rect class="cls-9" x="102.9" y="567.01" width="18.12" height="4.56" rx="0.56"/><rect class="cls-1" x="103.67" y="568.18" width="1.79" height="2.42"/><rect class="cls-1" x="106.36" y="568.18" width="1.79" height="2.42"/><rect class="cls-1" x="109.05" y="568.18" width="1.79" height="2.42"/><rect class="cls-9" x="102.9" y="572.43" width="18.12" height="4.56" rx="0.56"/><rect class="cls-1" x="103.67" y="573.59" width="1.79" height="2.42"/><rect class="cls-1" x="106.36" y="573.59" width="1.79" height="2.42"/><rect class="cls-1" x="109.05" y="573.59" width="1.79" height="2.42"/><rect class="cls-9" x="102.9" y="577.85" width="18.12" height="4.56" rx="0.56"/><rect class="cls-1" x="103.67" y="579.01" width="1.79" height="2.42"/><rect class="cls-1" x="106.36" y="579.01" width="1.79" height="2.42"/><rect class="cls-1" x="109.05" y="579.01" width="1.79" height="2.42"/></g><rect class="cls-10" x="104.23" y="589.17" width="5.94" height="8.6"/><polygon class="cls-10" points="102.17 595.96 112.24 595.96 107.28 602.32 102.17 595.96"/><rect class="cls-10" x="116.63" y="593.72" width="5.94" height="8.6" transform="translate(239.2 1196.04) rotate(180)"/><polygon class="cls-10" points="124.64 595.53 114.56 595.53 119.52 589.17 124.64 595.53"/><g id="cloud-3" data-name="cloud"><g id="cloud-4" data-name="cloud"><path class="cls-7" d="M463.29,508.43a10.44,10.44,0,0,0,.12-1.59,11.78,11.78,0,0,0-22.64-4.59,8.23,8.23,0,0,0-13.71,6.15h-1.54a8,8,0,0,0-7.95,8h0a8,8,0,0,0,7.95,8h37.19a8,8,0,0,0,8-8h0A8,8,0,0,0,463.29,508.43Z"/></g><rect class="cls-8" x="436.52" y="506.65" width="16.21" height="14.66"/><rect class="cls-9" x="435.83" y="506.65" width="17.58" height="4.43" rx="0.55"/><rect class="cls-1" x="436.58" y="507.78" width="1.74" height="2.35"/><rect class="cls-1" x="439.19" y="507.78" width="1.74" height="2.35"/><rect class="cls-1" x="441.8" y="507.78" width="1.74" height="2.35"/><rect class="cls-9" x="435.83" y="511.91" width="17.58" height="4.43" rx="0.55"/><rect class="cls-1" x="436.58" y="513.04" width="1.74" height="2.35"/><rect class="cls-1" x="439.19" y="513.04" width="1.74" height="2.35"/><rect class="cls-1" x="441.8" y="513.04" width="1.74" height="2.35"/><rect class="cls-9" x="435.83" y="517.16" width="17.58" height="4.43" rx="0.55"/><rect class="cls-1" x="436.58" y="518.29" width="1.74" height="2.35"/><rect class="cls-1" x="439.19" y="518.29" width="1.74" height="2.35"/><rect class="cls-1" x="441.8" y="518.29" width="1.74" height="2.35"/></g><rect class="cls-10" x="437.12" y="528.16" width="5.76" height="8.34"/><polygon class="cls-10" points="435.12 534.75 444.89 534.75 440.08 540.91 435.12 534.75"/><rect class="cls-10" x="449.15" y="532.57" width="5.76" height="8.34" transform="translate(904.07 1073.48) rotate(180)"/><polygon class="cls-10" points="456.92 534.32 447.15 534.32 451.96 528.16 456.92 534.32"/><g id="cloud-5" data-name="cloud"><g id="cloud-6" data-name="cloud"><path class="cls-7" d="M231.63,415.8a11.78,11.78,0,0,0-22.53-6.17,8.23,8.23,0,0,0-13.71,6.14h-1.53a8,8,0,0,0-8,8h0a8,8,0,0,0,8,7.95H231a8,8,0,0,0,8-7.95h0A8,8,0,0,0,231.63,415.8Z"/></g><rect class="cls-8" x="204.86" y="414.03" width="16.21" height="14.66"/><rect class="cls-9" x="204.17" y="414.03" width="17.58" height="4.43" rx="0.55"/><rect class="cls-1" x="204.92" y="415.16" width="1.74" height="2.35"/><rect class="cls-1" x="207.52" y="415.16" width="1.74" height="2.35"/><rect class="cls-1" x="210.13" y="415.16" width="1.74" height="2.35"/><rect class="cls-9" x="204.17" y="419.28" width="17.58" height="4.43" rx="0.55"/><rect class="cls-1" x="204.92" y="420.41" width="1.74" height="2.35"/><rect class="cls-1" x="207.52" y="420.41" width="1.74" height="2.35"/><rect class="cls-1" x="210.13" y="420.41" width="1.74" height="2.35"/><rect class="cls-9" x="204.17" y="424.54" width="17.58" height="4.43" rx="0.55"/><rect class="cls-1" x="204.92" y="425.67" width="1.74" height="2.35"/><rect class="cls-1" x="207.52" y="425.67" width="1.74" height="2.35"/><rect class="cls-1" x="210.13" y="425.67" width="1.74" height="2.35"/></g><rect class="cls-10" x="205.46" y="435.53" width="5.76" height="8.34"/><polygon class="cls-10" points="203.45 442.12 213.22 442.12 208.41 448.29 203.45 442.12"/><rect class="cls-10" x="217.49" y="439.95" width="5.76" height="8.34" transform="translate(440.74 888.23) rotate(180)"/><polygon class="cls-10" points="225.26 441.7 215.48 441.7 220.29 435.53 225.26 441.7"/><path class="cls-11" d="M113.18,477.21a3,3,0,0,1-4.23-.38,3,3,0,0,1,.38-4.18,3,3,0,0,1,4.23.38A3,3,0,0,1,113.18,477.21Z"/><path class="cls-11" d="M123.41,465.94h0a1,1,0,0,0,.06-1.33A17.16,17.16,0,0,0,99.75,463a1,1,0,0,0-.12,1.33h0a1,1,0,0,0,1.35.15,15.4,15.4,0,0,1,21.07,1.42A1,1,0,0,0,123.41,465.94Z"/><path class="cls-11" d="M120.49,468.68h0a1,1,0,0,0,0-1.36,13.47,13.47,0,0,0-18.22-1.23,1,1,0,0,0-.15,1.35h0a1,1,0,0,0,1.34.16,11.71,11.71,0,0,1,15.64,1.06A1,1,0,0,0,120.49,468.68Z"/><path class="cls-11" d="M117.66,471.34h0a.94.94,0,0,0,0-1.37,9.94,9.94,0,0,0-12.92-.88,1,1,0,0,0-.16,1.36h0a1,1,0,0,0,1.32.17,8.15,8.15,0,0,1,10.39.71A1,1,0,0,0,117.66,471.34Z"/><path class="cls-11" d="M331.52,421.61a3,3,0,0,1-4.23-.39,3,3,0,0,1,.38-4.18,3,3,0,0,1,4.23.39A3,3,0,0,1,331.52,421.61Z"/><path class="cls-11" d="M341.75,410.34h0a1,1,0,0,0,.06-1.33,17.15,17.15,0,0,0-23.72-1.6.94.94,0,0,0-.12,1.32h0a1,1,0,0,0,1.35.15,15.39,15.39,0,0,1,21.07,1.43A1,1,0,0,0,341.75,410.34Z"/><path class="cls-11" d="M338.83,413.08h0a1,1,0,0,0,0-1.36,13.48,13.48,0,0,0-18.22-1.23,1,1,0,0,0-.15,1.35h0a1,1,0,0,0,1.34.15,11.72,11.72,0,0,1,15.64,1.06A1,1,0,0,0,338.83,413.08Z"/><path class="cls-11" d="M336,415.73h0a.94.94,0,0,0,0-1.37,9.94,9.94,0,0,0-12.92-.88,1,1,0,0,0-.16,1.36h0a1,1,0,0,0,1.32.18,8.15,8.15,0,0,1,10.39.71A1,1,0,0,0,336,415.73Z"/><ellipse class="cls-11" cx="436.8" cy="587.29" rx="2.97" ry="3" transform="translate(-187.72 968.96) rotate(-84.79)"/><path class="cls-11" d="M449,578.3h0A1,1,0,0,0,449,577a17.16,17.16,0,0,0-23.72-1.6,1,1,0,0,0-.12,1.33h0a1,1,0,0,0,1.36.15,15.38,15.38,0,0,1,21.06,1.42A1,1,0,0,0,449,578.3Z"/><path class="cls-11" d="M446,581h0a1,1,0,0,0,0-1.36,13.47,13.47,0,0,0-18.22-1.23,1,1,0,0,0-.15,1.35h0A1,1,0,0,0,429,580,11.72,11.72,0,0,1,444.69,581,1,1,0,0,0,446,581Z"/><path class="cls-11" d="M443.21,583.7h0a1,1,0,0,0,0-1.37,9.92,9.92,0,0,0-12.91-.88.94.94,0,0,0-.17,1.36h0a1,1,0,0,0,1.32.17,8.15,8.15,0,0,1,10.39.71A1,1,0,0,0,443.21,583.7Z"/></g><g id="illustration01"><path class="cls-12" d="M952.36,234.6l-1.57-.79c4-8,9.9-13.62,15.62-19.07,7.13-6.79,13.85-13.2,16.09-23.44.91-4.19.28-7.69-1.89-10.42-5.15-6.49-17.31-6.74-17.43-6.74l0-1.75c.53,0,13.11.26,18.78,7.4,2.51,3.16,3.26,7.16,2.23,11.88C981.86,202.43,975,209,967.62,216,962,221.36,956.21,226.89,952.36,234.6Z"/><ellipse class="cls-12" cx="948.39" cy="256.32" rx="44.61" ry="9.64"/><rect class="cls-12" x="903.77" y="239.28" width="89.23" height="17.04" transform="translate(1896.77 495.6) rotate(180)"/><ellipse class="cls-13" cx="948.39" cy="239.28" rx="44.61" ry="9.64"/><ellipse class="cls-12" cx="935.46" cy="237.44" rx="23.48" ry="4.47"/><circle class="cls-14" cx="935.39" cy="215.63" r="21.73" transform="translate(-24.52 220.68) rotate(-13.28)"/><path class="cls-15" d="M929.28,148s2.44,37.35-14.4,59.32c24.41,27.1,41.5,15.14,41.5,15.14s23.68-27.59,15.87-79.22C968.17,116.26,929,136.78,929.28,148Z"/><path class="cls-12" d="M911.94,193.75h47a0,0,0,0,1,0,0V213.9a23.49,23.49,0,0,1-23.49,23.49h0a23.49,23.49,0,0,1-23.49-23.49V193.75A0,0,0,0,1,911.94,193.75Z" transform="translate(1870.84 431.13) rotate(180)"/><path class="cls-15" d="M927.09,209.89a10.68,10.68,0,1,0,15.07-1.07A10.68,10.68,0,0,0,927.09,209.89Zm3.24,2.81c1.25-1.43,4.93-4.18,9-.64a6.39,6.39,0,1,1-9,.64Z"/><ellipse class="cls-16" cx="855.91" cy="182.21" rx="22.08" ry="4.77"/><rect class="cls-16" x="833.84" y="173.78" width="44.15" height="8.43" transform="translate(1711.83 355.99) rotate(180)"/><ellipse class="cls-17" cx="855.91" cy="173.78" rx="22.08" ry="4.77"/><ellipse class="cls-18" cx="849.52" cy="172.87" rx="11.62" ry="2.21"/><circle class="cls-14" cx="849.48" cy="162.08" r="10.75" transform="translate(134.2 648.15) rotate(-45)"/><path class="cls-19" d="M846.46,128.62s1.21,18.48-7.13,29.36c12.08,13.4,20.54,7.48,20.54,7.48s11.72-13.65,7.85-39.19C865.7,112.91,846.34,123.06,846.46,128.62Z"/><path class="cls-18" d="M837.88,151.25h23.24a0,0,0,0,1,0,0v10a11.62,11.62,0,0,1-11.62,11.62h0a11.62,11.62,0,0,1-11.62-11.62v-10A0,0,0,0,1,837.88,151.25Z" transform="translate(1699 324.1) rotate(180)"/><path class="cls-19" d="M845.38,159.24a5.28,5.28,0,1,0,7.45-.53A5.28,5.28,0,0,0,845.38,159.24Zm1.6,1.39a3.16,3.16,0,1,1,.32,4.46A3.15,3.15,0,0,1,847,160.63Z"/><rect class="cls-20" x="802.57" y="103.74" width="8.99" height="3" transform="translate(413.75 817.79) rotate(-68.53)"/><rect class="cls-20" x="802.14" y="113.91" width="2.96" height="1.24" transform="translate(1513.86 507.56) rotate(-159.15)"/><rect class="cls-20" x="802.36" y="114.56" width="1.78" height="1.86" transform="translate(1512.83 509.26) rotate(-159.15)"/><rect class="cls-20" x="802.14" y="113.91" width="2.96" height="1.24" transform="translate(1513.86 507.56) rotate(-159.15)"/><path class="cls-20" d="M801.33,116.19h0l.28-.13a1.8,1.8,0,0,1,1.35,0h0a1.75,1.75,0,0,1,1,.91l.13.28h0l-.52,1.38h0l-.29.12a1.75,1.75,0,0,1-1.33,0h0a1.75,1.75,0,0,1-1-.91l-.14-.28h0Z"/><rect class="cls-20" x="801.19" y="117.84" width="1.7" height="1.19" transform="translate(1509.42 514.56) rotate(-159.15)"/><polygon class="cls-20" points="802.87 117.23 801.07 121.98 800.63 122.16 800.42 121.73 802.23 116.98 802.87 117.23"/><polygon class="cls-19" points="801.95 113.89 805.29 115.16 807.72 113.95 800.94 111.37 801.95 113.89"/><polygon class="cls-19" points="808.15 108.03 804.56 106.66 802.24 107.23 809.51 110 808.15 108.03"/><rect class="cls-20" x="801" y="108.2" width="8.25" height="4.72" transform="translate(1518.2 500.42) rotate(-159.15)"/><rect class="cls-20" x="808.24" y="95.21" width="14.05" height="4.52" transform="translate(1584.96 -188.41) rotate(152.81)"/><path class="cls-19" d="M822.26,99.45l8.09-4.16a5,5,0,0,0,2.14-6.67h0a5,5,0,0,0-6.66-2.14l-8.1,4.16Z"/><path class="cls-19" d="M811.77,104.84l5.7-2.94L813,93.1,807.25,96a5,5,0,0,0-2.14,6.67h0A5,5,0,0,0,811.77,104.84Z"/><path class="cls-20" d="M806.75,100.67a2.61,2.61,0,1,1,2.8,2.4A2.6,2.6,0,0,1,806.75,100.67Zm1.09-.08A1.51,1.51,0,1,0,809.23,99,1.53,1.53,0,0,0,807.84,100.59Z"/><path class="cls-18" d="M870.62,126.93l-1.22-.33a36.38,36.38,0,0,0,.89-9.86c-.35-7.22-2.87-12.8-7.5-16.57-5.76-4.72-11-5.55-14.45-5.42a15.19,15.19,0,0,0-6.09,1.42l-.61-1.11a16,16,0,0,1,6.58-1.58c3.65-.15,9.27.71,15.38,5.7,4.85,4,7.6,10,8,17.54A36.8,36.8,0,0,1,870.62,126.93Z"/><rect class="cls-20" x="838.28" y="110.47" width="14.46" height="3.02" transform="translate(1601.37 -283.11) rotate(144.86)"/><path class="cls-20" d="M859,131.15h0a3.94,3.94,0,0,0,1-5.49L846.07,106l-6.44,4.54,13.91,19.7A3.93,3.93,0,0,0,859,131.15Z"/><path class="cls-19" d="M838.9,117,824.65,93.72a6.63,6.63,0,0,1,1.85-8.9h0a6.62,6.62,0,0,1,9,1.3l17,21.33Z"/><path class="cls-20" d="M827.88,86.79a4.26,4.26,0,1,1-1,5.93A4.26,4.26,0,0,1,827.88,86.79Zm1,1.47a2.47,2.47,0,1,0,3.43.6A2.46,2.46,0,0,0,828.91,88.26Z"/><circle class="cls-19" cx="856.22" cy="127.59" r="10.75" transform="translate(407.19 867.7) rotate(-67.23)"/><path class="cls-20" d="M850.65,124.13a6.73,6.73,0,1,0,9.19-2.5A6.75,6.75,0,0,0,850.65,124.13Zm2.35,1.34a4,4,0,1,1,1.5,5.5A4,4,0,0,1,853,125.47Z"/><ellipse class="cls-16" cx="692.32" cy="177.72" rx="22.08" ry="4.77"/><rect class="cls-16" x="670.25" y="169.29" width="44.15" height="8.43"/><ellipse class="cls-17" cx="692.32" cy="169.29" rx="22.08" ry="4.77"/><ellipse class="cls-18" cx="698.72" cy="168.38" rx="11.62" ry="2.21"/><circle class="cls-14" cx="698.76" cy="157.59" r="10.75" transform="translate(431.27 822.08) rotate(-80.78)"/><path class="cls-19" d="M701.78,124.13s-1.21,18.48,7.12,29.36c-12.08,13.4-20.53,7.49-20.53,7.49s-11.72-13.65-7.85-39.2C682.54,108.42,701.9,118.58,701.78,124.13Z"/><path class="cls-18" d="M698.74,146.76h0a11.62,11.62,0,0,1,11.62,11.62v10a0,0,0,0,1,0,0H687.12a0,0,0,0,1,0,0v-10A11.62,11.62,0,0,1,698.74,146.76Z"/><path class="cls-19" d="M695.41,154.22a5.29,5.29,0,1,0,7.45.53A5.28,5.28,0,0,0,695.41,154.22Zm5.53,6.38a3.16,3.16,0,1,1,.32-4.46A3.16,3.16,0,0,1,700.94,160.6Z"/><rect class="cls-20" x="739.67" y="96.25" width="3" height="8.99" transform="matrix(0.93, -0.37, 0.37, 0.93, 14.55, 278.25)"/><rect class="cls-20" x="743.14" y="109.42" width="2.96" height="1.24" transform="translate(9.59 272.2) rotate(-20.85)"/><rect class="cls-20" x="744.09" y="110.07" width="1.78" height="1.86" transform="translate(9.27 272.38) rotate(-20.85)"/><rect class="cls-20" x="743.14" y="109.42" width="2.96" height="1.24" transform="translate(9.59 272.2) rotate(-20.85)"/><path class="cls-20" d="M746.91,111.7h0l-.28-.12a1.76,1.76,0,0,0-1.35,0h0a1.8,1.8,0,0,0-1,.91l-.12.28h0l.53,1.38h0l.29.12a1.8,1.8,0,0,0,1.33,0h0a1.8,1.8,0,0,0,1-.9l.14-.29h0Z"/><rect class="cls-20" x="745.35" y="113.36" width="1.7" height="1.19" transform="translate(8.3 273.02) rotate(-20.85)"/><polygon class="cls-20" points="745.36 112.74 747.17 117.49 747.6 117.68 747.82 117.24 746.01 112.49 745.36 112.74"/><polygon class="cls-19" points="746.29 109.4 742.95 110.67 740.52 109.46 747.29 106.88 746.29 109.4"/><polygon class="cls-19" points="740.09 103.54 743.68 102.17 746 102.74 738.73 105.51 740.09 103.54"/><rect class="cls-20" x="738.98" y="103.71" width="8.25" height="4.72" transform="translate(10.9 271.4) rotate(-20.85)"/><rect class="cls-20" x="725.94" y="90.73" width="14.05" height="4.52" transform="translate(123.52 -324.7) rotate(27.19)"/><path class="cls-19" d="M726,95l-8.1-4.16a5,5,0,0,1-2.14-6.67h0A5,5,0,0,1,722.41,82l8.09,4.16Z"/><path class="cls-19" d="M736.47,100.35l-5.71-2.94,4.53-8.8,5.7,2.93a5,5,0,0,1,2.14,6.67h0A5,5,0,0,1,736.47,100.35Z"/><path class="cls-20" d="M738.69,98.58a2.61,2.61,0,1,1,2.8-2.4A2.61,2.61,0,0,1,738.69,98.58Zm.32-4.11a1.51,1.51,0,1,0,1.39,1.63A1.53,1.53,0,0,0,739,94.47Z"/><path class="cls-18" d="M678.66,121.49l1.22-.33a36.38,36.38,0,0,1-.89-9.86c.35-7.22,2.87-12.8,7.5-16.58,5.76-4.71,11-5.55,14.45-5.42A15.09,15.09,0,0,1,707,90.73l.61-1.11A15.81,15.81,0,0,0,701.06,88c-3.65-.16-9.27.71-15.38,5.7-4.85,4-7.6,10-8,17.53A36.9,36.9,0,0,0,678.66,121.49Z"/><rect class="cls-20" x="695.5" y="105.98" width="14.46" height="3.02" transform="translate(189.95 -384.89) rotate(35.14)"/><path class="cls-20" d="M689.2,126.67h0a4,4,0,0,1-.94-5.5l13.91-19.69,6.44,4.55L694.7,125.72A4,4,0,0,1,689.2,126.67Z"/><path class="cls-19" d="M709.34,112.51l14.25-23.28a6.64,6.64,0,0,0-1.85-8.9h0a6.63,6.63,0,0,0-9,1.3l-17,21.33Z"/><path class="cls-20" d="M721.4,88.23a4.26,4.26,0,1,1-1-5.93A4.27,4.27,0,0,1,721.4,88.23Zm-5.51-3.86a2.47,2.47,0,1,0,3.44-.6A2.48,2.48,0,0,0,715.89,84.37Z"/><circle class="cls-19" cx="692.02" cy="123.1" r="10.75" transform="translate(321.02 720.1) rotate(-68.23)"/><path class="cls-20" d="M688.4,117.14a6.73,6.73,0,1,0,9.19,2.5A6.73,6.73,0,0,0,688.4,117.14Zm5.34,9.34a4,4,0,1,1,1.5-5.5A4,4,0,0,1,693.74,126.48Z"/><path class="cls-12" d="M594.46,227.46l-1.73-.26c1.09-7.1-6.15-11.64-14.53-16.9-11.07-6.94-24.84-15.58-24.58-33.76.28-19.42,17.9-26.79,18.08-26.86l.66,1.62c-.17.07-16.72,7-17,25.26-.25,17.2,12.5,25.2,23.75,32.25C588,214.4,595.73,219.22,594.46,227.46Z"/><path class="cls-18" d="M577.83,142.81a64.74,64.74,0,0,1,.28-31.3c2.75-10.14,8.13-18.6,15.55-24.48,8.77-7,16.76-7.35,21.92-6.46a22.92,22.92,0,0,1,9.28,3.72L623,86.74a20.16,20.16,0,0,0-8.09-3.16c-6.55-1.09-13.06.89-19.34,5.86-13.8,10.94-19.59,31.61-14.74,52.68Z"/><ellipse class="cls-12" cx="592.36" cy="265.21" rx="44.95" ry="9.71"/><rect class="cls-12" x="547.4" y="248.05" width="89.91" height="17.17"/><ellipse class="cls-13" cx="592.36" cy="248.05" rx="44.95" ry="9.71"/><ellipse class="cls-12" cx="606.08" cy="246.19" rx="23.66" ry="4.5"/><circle class="cls-14" cx="605.45" cy="224.22" r="21.89"/><path class="cls-15" d="M611.6,156.09s-2.46,37.63,14.52,59.77c-24.6,27.3-41.82,15.25-41.82,15.25s-23.86-27.8-16-79.82C572.43,124.09,611.85,144.77,611.6,156.09Z"/><path class="cls-12" d="M606.12,202.17h0a23.66,23.66,0,0,1,23.66,23.66v20.3a0,0,0,0,1,0,0H582.46a0,0,0,0,1,0,0v-20.3A23.66,23.66,0,0,1,606.12,202.17Z"/><path class="cls-15" d="M597.7,217.35a10.76,10.76,0,1,0,15.18,1.09A10.78,10.78,0,0,0,597.7,217.35Zm11.27,13a6.44,6.44,0,1,1,.65-9.08A6.43,6.43,0,0,1,609,230.35Z"/><polygon class="cls-21" points="961.61 302.08 570.28 302.08 739.85 132.81 790.08 132.81 961.61 302.08"/><polygon class="cls-22" points="793.45 133.7 736.49 133.7 736.34 133.83 793.6 133.83 793.45 133.7"/><polygon class="cls-22" points="794.33 134.49 735.62 134.49 735.47 134.63 794.49 134.63 794.33 134.49"/><polygon class="cls-22" points="795.26 135.34 734.7 135.34 734.53 135.49 795.43 135.49 795.26 135.34"/><polygon class="cls-22" points="796.26 136.23 733.71 136.23 733.53 136.4 796.44 136.4 796.26 136.23"/><polygon class="cls-22" points="797.32 137.19 732.66 137.19 732.47 137.37 797.52 137.37 797.32 137.19"/><polygon class="cls-22" points="798.46 138.22 731.53 138.22 731.33 138.4 798.67 138.4 798.46 138.22"/><polygon class="cls-22" points="799.68 139.32 730.33 139.32 730.11 139.52 799.9 139.52 799.68 139.32"/><polygon class="cls-22" points="800.99 140.5 729.03 140.5 728.79 140.71 801.23 140.71 800.99 140.5"/><polygon class="cls-22" points="802.41 141.77 727.63 141.77 727.37 142.01 802.67 142.01 802.41 141.77"/><polygon class="cls-22" points="803.94 143.15 726.11 143.15 725.84 143.41 804.22 143.41 803.94 143.15"/><polygon class="cls-22" points="805.68 144.72 724.39 144.72 724.09 145 805.99 145 805.68 144.72"/><polygon class="cls-22" points="807.5 146.36 722.59 146.36 722.26 146.66 807.83 146.66 807.5 146.36"/><polygon class="cls-22" points="809.48 148.15 720.63 148.15 720.27 148.47 809.84 148.47 809.48 148.15"/><polygon class="cls-22" points="811.65 150.11 718.48 150.11 718.08 150.47 812.05 150.47 811.65 150.11"/><polygon class="cls-22" points="814.05 152.27 716.1 152.27 715.67 152.67 814.5 152.67 814.05 152.27"/><polygon class="cls-22" points="816.71 154.67 713.47 154.67 712.99 155.11 817.2 155.11 816.71 154.67"/><polygon class="cls-22" points="819.67 157.34 710.54 157.34 710 157.83 820.22 157.83 819.67 157.34"/><polygon class="cls-22" points="822.99 160.33 707.26 160.33 706.65 160.89 823.61 160.89 822.99 160.33"/><polygon class="cls-22" points="826.74 163.71 703.55 163.71 702.86 164.34 827.44 164.34 826.74 163.71"/><polygon class="cls-22" points="831 167.55 699.33 167.55 698.54 168.28 831.81 168.28 831 167.55"/><polygon class="cls-22" points="836.15 172.19 694.24 172.19 693.31 173.03 837.08 173.03 836.15 172.19"/><polygon class="cls-22" points="841.87 177.35 688.58 177.35 687.5 178.33 842.96 178.33 841.87 177.35"/><polygon class="cls-22" points="848.58 183.4 681.93 183.4 680.66 184.56 849.87 184.56 848.58 183.4"/><polygon class="cls-22" points="856.58 190.61 674.02 190.61 672.49 192.01 858.13 192.01 856.58 190.61"/><polygon class="cls-22" points="866.27 199.34 664.43 199.34 662.56 201.05 868.16 201.05 866.27 199.34"/><polygon class="cls-22" points="878.24 210.13 652.59 210.13 650.23 212.28 880.62 212.28 878.24 210.13"/><polygon class="cls-22" points="893.41 223.81 637.57 223.81 634.54 226.57 896.48 226.57 893.41 223.81"/><polygon class="cls-22" points="913.28 241.72 617.91 241.72 613.86 245.41 917.38 245.41 913.28 241.72"/><polygon class="cls-22" points="940.4 266.17 591.08 266.17 585.37 271.36 946.16 271.36 940.4 266.17"/><polygon class="cls-22" points="596.1 304.21 535.72 304.21 735.78 132.78 743.43 132.78 596.1 304.21"/><polygon class="cls-23" points="592.91 304.21 532.54 304.21 735.38 132.78 743.03 132.78 592.91 304.21"/><polygon class="cls-22" points="993.91 304.21 933.54 304.21 786.21 132.78 793.87 132.78 993.91 304.21"/><polygon class="cls-24" points="997.1 304.21 936.73 304.21 786.62 132.78 794.27 132.78 997.1 304.21"/><rect class="cls-25" x="819.81" y="132.01" width="6.06" height="18.17" transform="matrix(1, 0, 0, 1, -0.59, 3.48)"/><rect class="cls-12" x="820.32" y="159.88" width="5.99" height="2.52" transform="translate(1648.96 309.84) rotate(179.14)"/><rect class="cls-12" x="821.54" y="161.32" width="3.6" height="3.76" transform="translate(1649.06 313.97) rotate(179.14)"/><rect class="cls-12" x="820.32" y="159.88" width="5.99" height="2.52" transform="translate(1648.96 309.84) rotate(179.14)"/><path class="cls-12" d="M820.25,166h0l.44-.44a3.6,3.6,0,0,1,2.51-1.06h0a3.59,3.59,0,0,1,2.53,1l.46.43h0l0,3h0l-.44.44a3.64,3.64,0,0,1-2.49,1h0a3.59,3.59,0,0,1-2.51-1l-.47-.43h0Z"/><rect class="cls-12" x="821.56" y="168.44" width="3.43" height="2.4" transform="translate(1649.02 326.86) rotate(179.14)"/><polygon class="cls-12" points="823.93 166.75 824.09 177.02 823.42 177.69 822.69 177.04 822.54 166.77 823.93 166.75"/><polygon class="cls-26" points="819.7 161.18 826.93 161.07 830.58 156.97 815.93 157.19 819.7 161.18"/><polygon class="cls-26" points="826.96 145.53 819.2 145.65 815.26 148.45 830.98 148.22 826.96 145.53"/><rect class="cls-25" x="814.85" y="147.78" width="16.68" height="9.54" transform="translate(-2.21 12.42) rotate(-0.86)"/><rect class="cls-25" x="821.5" y="119.4" width="28.4" height="9.14" transform="translate(15.67 327.24) rotate(-22.36)"/><path class="cls-15" d="M849.44,129.13l17-7a10,10,0,0,0,5.44-13h0a10,10,0,0,0-13-5.45l-17,7Z"/><path class="cls-15" d="M827.4,138.19l12-4.93-7.61-18.49-12,4.93a10,10,0,0,0-5.45,13h0A10,10,0,0,0,827.4,138.19Z"/><path class="cls-25" d="M818,129a5.27,5.27,0,1,1,5.24,5.31A5.28,5.28,0,0,1,818,129Zm2.22,0a3.05,3.05,0,1,0,3.07-3A3.06,3.06,0,0,0,820.21,129Z"/><path class="cls-12" d="M967.35,142l-3.49-.38a54.48,54.48,0,0,0-1.59-17.86c-3.26-12-10.49-19.32-21.52-21.75-26.93-5.93-39.39,9.53-39.51,9.69l-2.77-2.17a32.7,32.7,0,0,1,10.62-8c6.44-3.19,17.29-6.29,32.42-3,12.26,2.7,20.61,11.13,24.17,24.36A57.13,57.13,0,0,1,967.35,142Z"/><rect class="cls-12" x="900.84" y="128.24" width="29.22" height="6.1" transform="translate(1379.1 -668.91) rotate(111.93)"/><path class="cls-12" d="M959.45,149h0A8,8,0,0,0,955,138.6l-45.24-18.13-5.91,14.79,45.23,18.13A8,8,0,0,0,959.45,149Z"/><path class="cls-15" d="M909.75,147.05,860,123.23a13.41,13.41,0,0,1-6.63-17.14h0a13.41,13.41,0,0,1,16.69-7.68L922.26,116Z"/><path class="cls-25" d="M857.87,107.92a8.61,8.61,0,1,1,4.74,11.21A8.61,8.61,0,0,1,857.87,107.92Zm3.35,1.36a5,5,0,1,0,6.49-2.74A5,5,0,0,0,861.22,109.28Z"/><circle class="cls-15" cx="950.76" cy="146" r="21.73" transform="translate(-4.07 29.55) rotate(-1.78)"/><path class="cls-12" d="M937.52,146.24a13.61,13.61,0,1,0,12.83-14.34A13.61,13.61,0,0,0,937.52,146.24Zm5.46-.3a8.14,8.14,0,1,1,8.58,7.68A8.14,8.14,0,0,1,943,145.94Z"/><rect class="cls-25" x="662.47" y="127.84" width="18.3" height="6.11" transform="translate(185.16 612.1) rotate(-55.72)"/><rect class="cls-12" x="656.9" y="146.09" width="6.04" height="2.53" transform="translate(203.03 -351.11) rotate(34.9)"/><rect class="cls-12" x="656.92" y="147.17" width="3.63" height="3.79" transform="translate(203.8 -350.12) rotate(34.9)"/><rect class="cls-12" x="656.9" y="146.09" width="6.04" height="2.53" transform="translate(203.03 -351.11) rotate(34.9)"/><path class="cls-12" d="M659.76,153.11h0l-.12-.61a3.63,3.63,0,0,0-1.49-2.3h0a3.67,3.67,0,0,0-2.67-.61l-.62.1h0l-1.72,2.46h0l.12.62a3.65,3.65,0,0,0,1.49,2.27l0,0a3.59,3.59,0,0,0,2.64.61l.63-.09h0Z"/><rect class="cls-12" x="653.43" y="153.27" width="3.45" height="2.42" transform="translate(206.26 -347.1) rotate(34.9)"/><polygon class="cls-12" points="656.24 151.69 650.32 160.18 650.49 161.12 651.47 160.99 657.39 152.5 656.24 151.69"/><polygon class="cls-26" points="662.92 149.43 656.94 145.26 656.21 139.78 668.31 148.23 662.92 149.43"/><polygon class="cls-26" points="665.68 132.27 672.09 136.75 673.8 141.31 660.8 132.25 665.68 132.27"/><rect class="cls-25" x="656.47" y="135.46" width="16.81" height="9.61" transform="translate(199.86 -355.21) rotate(34.9)"/><polygon class="cls-25" points="677.73 120.23 654.66 95.55 661.31 89.19 684.38 113.87 677.73 120.23"/><path class="cls-15" d="M653.11,101.86l-12.82-13.4a10.08,10.08,0,0,1,.32-14.24h0a10.07,10.07,0,0,1,14.24.31l12.82,13.39Z"/><path class="cls-15" d="M673,123.21l-9-9.44,14.56-13.93,9,9.43a10.08,10.08,0,0,1-.31,14.25h0A10.08,10.08,0,0,1,673,123.21Z"/><path class="cls-25" d="M678.45,121.28a5.31,5.31,0,1,1,7-2.75A5.31,5.31,0,0,1,678.45,121.28Zm3.35-7.68a3.07,3.07,0,1,0,1.59,4A3.07,3.07,0,0,0,681.8,113.6Z"/><rect class="cls-25" x="597.51" y="119.12" width="29.44" height="6.14" transform="translate(197.44 -344.4) rotate(37.08)"/><path class="cls-25" d="M583.39,160.28h0A8,8,0,0,1,581.85,149l29.66-39.13,12.78,9.7-29.66,39.13A8,8,0,0,1,583.39,160.28Z"/><path class="cls-15" d="M625.34,132.85,656,86.46a13.52,13.52,0,0,0-3.16-18.25h0a13.53,13.53,0,0,0-18.41,2l-36,42.25Z"/><path class="cls-25" d="M651.56,84.27a8.67,8.67,0,1,1-1.72-12.14A8.68,8.68,0,0,1,651.56,84.27ZM640.62,76a5,5,0,1,0,7-1A5,5,0,0,0,640.62,76Z"/><circle class="cls-15" cx="589.36" cy="153.22" r="21.89"/><path class="cls-12" d="M582.4,140.83a13.71,13.71,0,1,0,18.53,5.73A13.72,13.72,0,0,0,582.4,140.83Zm10.23,19.38a8.2,8.2,0,1,1,3.42-11.08A8.2,8.2,0,0,1,592.63,160.21Z"/><path class="cls-1" d="M871,349.46c-6.41-10.64-13.18-21.54-20.41-32.82l-2.15-5.35a155.71,155.71,0,0,0-8.3-29.55l0-.09c-5.39-13.23-13.78-29-25-46.78l-.55-95.59A16.29,16.29,0,0,0,798.43,123l-83.5,0a16.22,16.22,0,0,0-16,16.25l-.25,58c-7-2.95-12.43-4.35-16.68-4.35-6.52,0-9.54,3.38-10.76,5.4-5.39,8.9,2.9,19.38,5.62,22.83A139,139,0,0,0,693.28,238c-3.69,3-7.41,7.24-8.91,12.88s-.61,11.21,2.54,17c-4.81,7.72-4.3,16.82,1.63,25.62.54.8,1.13,1.62,1.76,2.42a47.8,47.8,0,0,0,3.77,4.31,21.5,21.5,0,0,0-7,9.74c-1.22,3.71-1.75,9.61,2.63,16.63a31.76,31.76,0,0,0,2,2.86c4.77,6.08,9.66,9.17,14.52,9.17a10.32,10.32,0,0,0,1.11-.06,15.84,15.84,0,0,0,6.89,1.65l35.24.3,15,9Z"/><path class="cls-27" d="M839.05,349.46c5.7-4.33,9.73-10,10.82-16.89l-28.23-70.32c-72.83-77.48-132,35.1-106.9,49.64l62.48,37.57Z"/><path class="cls-27" d="M863.29,349.46q-9.06-15-19.36-31l-56.53,31Z"/><path class="cls-28" d="M754.91,333.9s20.56-1.35,41.11,4.85c12,3.61,16.35-5.26,12.39-15.28-6.19-15.68-24.51-29.56-42.27-23.09C750.53,306.07,745.46,329.34,754.91,333.9Z"/><path class="cls-27" d="M805.31,273.94s-118-89.52-128.48-72.18c-12,19.86,112.65,96.94,112.65,96.94Z"/><path class="cls-11" d="M799.42,334.28l-85.15-.72a9.88,9.88,0,0,1-9.57-10.13l.76-184.09a9.62,9.62,0,0,1,9.48-9.7l83.49,0a9.68,9.68,0,0,1,9.57,9.73l1.07,184.94A9.74,9.74,0,0,1,799.42,334.28Z"/><path class="cls-29" d="M800.6,333a9.46,9.46,0,0,1-1.07.06l-85.13-.81a8.65,8.65,0,0,1-8.27-8.87l.74-183.89a8.4,8.4,0,0,1,8.18-8.49l83.5-.13h.39a8.11,8.11,0,0,1,5.52,2.54,8.49,8.49,0,0,1,2.34,5.86l1.05,185.13A8.46,8.46,0,0,1,800.6,333Z"/><polygon class="cls-1" points="803.82 140.55 804.81 325.04 708.91 324.27 709.6 140.33 803.82 140.55"/><rect class="cls-30" x="717.49" y="212.22" width="79.15" height="41.05" rx="2.06"/><path class="cls-1" d="M788.8,224H723.89a.1.1,0,0,1-.1-.1.1.1,0,0,1,.1-.09H788.8a.09.09,0,0,1,.09.09A.09.09,0,0,1,788.8,224Z"/><path class="cls-1" d="M788.8,237.71H723.89a.1.1,0,0,1-.1-.1.1.1,0,0,1,.1-.09H788.8a.09.09,0,0,1,.09.09A.09.09,0,0,1,788.8,237.71Z"/><path class="cls-1" d="M788.8,231H723.89a.1.1,0,0,1-.1-.1.1.1,0,0,1,.1-.09H788.8a.09.09,0,0,1,.09.09A.09.09,0,0,1,788.8,231Z"/><path class="cls-1" d="M788.8,244.69H723.7l-.08-24.54a.18.18,0,0,1,.19-.19h0a.19.19,0,0,1,.19.19l.08,24.15H788.8a.2.2,0,0,1,.19.19A.2.2,0,0,1,788.8,244.69Z"/><path class="cls-1" d="M757.39,226.38l-14.77,14.2L735,233.84l-11.25,10.52a.19.19,0,0,0,0,.27.2.2,0,0,0,.14.06.19.19,0,0,0,.13-.06l11-10.27,7.61,6.74,14.76-14.19Z"/><path class="cls-1" d="M736,234.13a1,1,0,1,1-1-1A1,1,0,0,1,736,234.13Z"/><path class="cls-1" d="M743.77,240.74a1,1,0,1,1-1-1A1,1,0,0,1,743.77,240.74Z"/><circle class="cls-1" cx="757.51" cy="226.49" r="1.02"/><rect class="cls-30" x="717.7" y="161.25" width="38.06" height="30.49" rx="2.06"/><path class="cls-31" d="M754,185.27H721.4V162.79a.18.18,0,0,1,.17-.17.18.18,0,0,1,.18.17v22.13H754a.18.18,0,0,1,.17.17A.18.18,0,0,1,754,185.27Z"/><rect class="cls-31" x="724.64" y="178.21" width="3.6" height="6.88"/><rect class="cls-31" x="729.66" y="176.64" width="3.6" height="8.45"/><rect class="cls-31" x="734.68" y="173.46" width="3.6" height="11.63"/><rect class="cls-31" x="739.69" y="171.24" width="3.6" height="13.85"/><rect class="cls-31" x="744.71" y="166.45" width="3.6" height="18.64"/><rect class="cls-30" x="758.58" y="161.25" width="38.06" height="30.49" rx="2.06"/><path class="cls-31" d="M794.87,185.27h-32.6V164a.17.17,0,0,1,.18-.17.17.17,0,0,1,.17.17v20.91h32.25a.18.18,0,0,1,.18.17A.18.18,0,0,1,794.87,185.27Z"/><path class="cls-31" d="M762.45,185.09c5.46-.47,6.22-22.43,14.32-12.58,7.7,9.35,8.1-8,16.47-8V184.9Z"/><path class="cls-11" d="M796.66,158.38H717.74v-6.73h78.92Zm-78.73-.19h78.54v-6.35H717.93Z"/><rect class="cls-11" x="736.94" y="153.89" width="13.1" height="2.26"/><rect class="cls-11" x="751.33" y="153.89" width="6.78" height="2.26"/><rect class="cls-11" x="719.19" y="153.89" width="16" height="2.26"/><rect class="cls-11" x="717.96" y="196.03" width="37.56" height="2.13"/><rect class="cls-11" x="717.96" y="203.88" width="32.85" height="2.13"/><rect class="cls-11" x="717.96" y="199.91" width="56.98" height="2.13"/><path class="cls-11" d="M756.4,267.31h0a22,22,0,1,0,10.21,41.52L756.4,289.32Z"/><path class="cls-32" d="M766.58,308.83a22,22,0,0,0,11.8-19.51h-22Z"/><path class="cls-33" d="M756.4,267.31v22h22A22,22,0,0,0,756.4,267.31Z"/><path class="cls-27" d="M833.09,338.65c-51.13-3.52-37.33-78.15-37.33-78.15s-18.29-23.63-15.58-38.3,10.55-11.84,10.55-11.84l1.22,1.69c1.49,2.08,4.24,6,7.7,11.1,9.87,14.63,25.55,39.35,34.34,61C842.06,304.87,849.79,339.79,833.09,338.65Z"/><path class="cls-34" d="M800.62,219.28a31,31,0,0,1-6,3.24,12.37,12.37,0,0,1-1.67-14.33C794.41,210.26,797.16,214.15,800.62,219.28Z"/><path class="cls-27" d="M705.49,300c-2.8-.82-6.19-3.35-10-8.24-.54-.69-1-1.36-1.47-2-12.76-18.95,10.81-28.3,10.81-28.3a71.09,71.09,0,0,0,5.57,14C717.44,287.89,714.36,302.58,705.49,300Z"/><path class="cls-34" d="M703.84,297.34c-1.94-.56-4.28-2.31-6.93-5.69-.37-.47-.71-.94-1-1.4a12.89,12.89,0,0,1,3.47-5C704.56,285.7,705.1,294.69,703.84,297.34Z"/><path class="cls-27" d="M706.79,331.94c-2.51.32-5.9-1.5-9.91-6.62a24.92,24.92,0,0,1-1.59-2.26c-8.95-14.33,8.87-21.4,8.87-21.4a55.45,55.45,0,0,0,4.35,10.89C713.41,321.23,712,331.27,706.79,331.94Z"/><path class="cls-34" d="M705.73,329.57c-1.86.23-4.38-1.12-7.35-4.91-.45-.58-.84-1.14-1.18-1.68a15.74,15.74,0,0,1,3.18-4.09C704.89,319.26,706.13,325.63,705.73,329.57Z"/><path class="cls-27" d="M706.56,277.38c-3-.44-6.73-3-11-8.46-.27-.34-.52-.67-.76-1-14.32-19.63,10.09-29.31,10.09-29.31a70.77,70.77,0,0,0,5.58,14C717.22,264.55,714.64,278.58,706.56,277.38Z"/><path class="cls-34" d="M704.68,274.54c-2-.29-4.47-2-7.33-5.62-.18-.23-.35-.45-.51-.68a12,12,0,0,1,3.44-5.09C705.14,263.55,705.76,271.74,704.68,274.54Z"/><g id="data_02" data-name="data 02"><path class="cls-35" d="M843.58,60.71h5a.71.71,0,0,0,.71-.71h0a.7.7,0,0,0-.71-.7h-5a.7.7,0,0,0-.7.7h0A.7.7,0,0,0,843.58,60.71Z"/><path class="cls-35" d="M843.58,63.28h5a.71.71,0,0,0,.71-.71h0a.71.71,0,0,0-.71-.71h-5a.7.7,0,0,0-.7.71h0A.7.7,0,0,0,843.58,63.28Z"/><path class="cls-35" d="M843.58,65.84h5a.7.7,0,0,0,.71-.7h0a.71.71,0,0,0-.71-.71h-5a.7.7,0,0,0-.7.71h0A.7.7,0,0,0,843.58,65.84Z"/><path class="cls-35" d="M859.32,81.89a12.5,12.5,0,1,0,5.8-23.58h0v6.06a6.44,6.44,0,0,1,0,12.88,6.35,6.35,0,0,1-3-.73Z"/><path class="cls-15" d="M852.62,70.81a12.48,12.48,0,0,0,6.7,11.08l2.8-5.37a6.42,6.42,0,0,1-3.46-5.71Z"/><path class="cls-1" d="M852.62,70.81h6a6.44,6.44,0,0,1,6.44-6.44V58.31A12.49,12.49,0,0,0,852.62,70.81Z"/></g><g id="data"><rect class="cls-35" x="703.7" y="49.07" width="22.56" height="21.37" rx="3.08"/><rect class="cls-31" x="707.74" y="60.71" width="2.13" height="6.17"/><rect class="cls-31" x="710.72" y="59.78" width="2.13" height="7.1"/><rect class="cls-31" x="713.69" y="57.89" width="2.13" height="8.98"/><rect class="cls-31" x="716.67" y="56.57" width="2.13" height="10.3"/><rect class="cls-31" x="719.64" y="53.73" width="2.13" height="13.14"/></g><path class="cls-15" d="M644.63,40.11h0A9.44,9.44,0,1,0,649,57.9l-4.36-8.36Z"/><path class="cls-35" d="M649,57.9a9.41,9.41,0,0,0,5.06-8.36h-9.42Z"/><path class="cls-1" d="M644.63,40.11v9.43h9.42A9.44,9.44,0,0,0,644.63,40.11Z"/></g><text class="cls-36" transform="translate(116.14 1120.65)">Las redes TS<tspan class="cls-37" x="136.95" y="0">A</tspan><tspan x="152.02" y="0" xml:space="preserve"> nos recuerdan superficialmente a las redes PER</tspan><tspan class="cls-38" x="661.9" y="0">T</tspan><tspan x="672.9" y="0">; sin embargo, el </tspan><tspan x="160.79" y="26.4">método TS</tspan><tspan class="cls-37" x="274.46" y="26.4">A</tspan><tspan x="289.53" y="26.4" xml:space="preserve"> posee dos características distintivas: </tspan><tspan x="46.07" y="79.2">1) su capacidad para incluir tecnologías alternativas, utilizando técnicas </tspan><tspan x="366.4" y="105.6">booleanas.</tspan><tspan x="17.98" y="158.4">2) el uso de estimaciones probabilísticas del tiempo transcurrido entre nodos </tspan><tspan x="277.77" y="184.8">tecnológicos. (Cruzat, 2014)</tspan></text><text class="cls-39" transform="translate(92.66 136.95)">Las aplicaciones actuales se han <tspan x="-15.27" y="26.4">centrado en sistemas basados en la </tspan><tspan x="-20.13" y="52.8">tecnología; los nodos en estas redes </tspan><tspan x="-4.23" y="79.2">han sido tecnologías intermedias. </tspan></text><text class="cls-36" transform="translate(571.58 552.8)">Las redes conducen a un sistema final que <tspan x="12.84" y="26.4">depende de las tecnologías intermedias. </tspan></text><text class="cls-39" transform="translate(99.96 864.26)">El diseño final de una red tecnológica y los <tspan x="18.33" y="26.4">intervalos de tiempo entre los nodos se </tspan><tspan x="-0.64" y="52.8">determinan en general realizando una serie </tspan><tspan x="10.95" y="79.2">de entrevistas exhaustivas con expertos. </tspan></text><rect class="cls-40" x="784.96" y="850.66" width="7.32" height="115.58"/><rect class="cls-40" x="785.06" y="840.61" width="7.32" height="152.24" transform="translate(1705.45 128) rotate(90)"/><rect class="cls-41" x="782.64" y="901.34" width="12.18" height="30.78" transform="translate(1705.45 128) rotate(90)"/><path class="cls-41" d="M855.89,830.17a32.47,32.47,0,0,0-32.19-37.92l-.5,0a49.59,49.59,0,0,0-93.45,23.15c0,1.07.09,2.12.16,3.17A32.64,32.64,0,0,0,741,881.91h100a28,28,0,0,0,14.84-51.74Z"/><path class="cls-41" d="M741,881.91h100a28,28,0,0,0,14.84-51.74,32.47,32.47,0,0,0-32.19-37.92l-.5,0,0-.06-89,89A32.89,32.89,0,0,0,741,881.91Z"/><path class="cls-1" d="M799.08,852.19a10.46,10.46,0,1,1-10.46-10.46A10.45,10.45,0,0,1,799.08,852.19Z"/><path class="cls-1" d="M829.31,824.82a3.07,3.07,0,0,1-2.46-1.22,47.65,47.65,0,0,0-76.46,0,3.07,3.07,0,0,1-4.91-3.68,53.79,53.79,0,0,1,86.28,0,3.06,3.06,0,0,1-.62,4.29A3,3,0,0,1,829.31,824.82Z"/><path class="cls-1" d="M818.64,835.57a3.07,3.07,0,0,1-2.57-1.39,32.78,32.78,0,0,0-54.9,0,3.07,3.07,0,0,1-5.13-3.36,38.92,38.92,0,0,1,65.16,0,3.05,3.05,0,0,1-.88,4.24A3,3,0,0,1,818.64,835.57Z"/><path class="cls-1" d="M769,846.07a3.15,3.15,0,0,1-1.3-.29,3.07,3.07,0,0,1-1.47-4.08,24.65,24.65,0,0,1,44.71,0,3.07,3.07,0,1,1-5.55,2.61,18.52,18.52,0,0,0-33.61,0A3.07,3.07,0,0,1,769,846.07Z"/><rect class="cls-42" x="754.89" y="948.06" width="67.46" height="50.9" rx="2.37"/><rect class="cls-41" x="758.36" y="951.25" width="60.53" height="40.46"/><polygon class="cls-43" points="818.89 991.71 758.36 991.71 818.89 951.25 818.89 991.71"/><path class="cls-42" d="M749.46,1000.26v1.3a2.75,2.75,0,0,0,2.75,2.75H825a2.75,2.75,0,0,0,2.75-2.75v-1.3Z"/><rect class="cls-42" x="830.63" y="892.58" width="77.56" height="61.16" rx="2.61"/><rect class="cls-41" x="845.8" y="888.56" width="47.22" height="65.31" rx="0.1" transform="translate(1790.63 51.81) rotate(90)"/><path class="cls-43" d="M836.86,944.83a.1.1,0,0,1-.1-.11L902,897.61a.11.11,0,0,1,.11.1v47a.11.11,0,0,1-.11.11Z"/><path class="cls-41" d="M876.2,953.74H862.62c0,4.29-3.33,6.7-10,7.93h33.6C879.53,960.44,876.2,958,876.2,953.74Z"/><path class="cls-42" d="M893.9,964.35a2.68,2.68,0,0,0-2.68-2.68H847.61a2.69,2.69,0,0,0-2.69,2.68Z"/><rect class="cls-42" x="669.26" y="892.58" width="77.56" height="61.16" rx="2.61" transform="translate(1416.07 1846.32) rotate(180)"/><rect class="cls-41" x="684.43" y="888.56" width="47.22" height="65.31" rx="0.1" transform="translate(1629.26 213.18) rotate(90)"/><path class="cls-43" d="M740.69,944.72v-47a.1.1,0,0,0-.1-.1l-65.21,47.11a.11.11,0,0,0,.11.11h65.1A.1.1,0,0,0,740.69,944.72Z"/><path class="cls-41" d="M701.25,953.74h13.58c0,4.29,3.33,6.7,10,7.93h-33.6C697.92,960.44,701.25,958,701.25,953.74Z"/><path class="cls-42" d="M683.55,964.35a2.68,2.68,0,0,1,2.68-2.68h43.61a2.68,2.68,0,0,1,2.68,2.68Z"/></svg>