<svg id="Capa_1" data-name="Capa 1" xmlns="http://www.w3.org/2000/svg" xmlns:xlink="http://www.w3.org/1999/xlink" viewBox="0 0 822.05 612.5"><defs><style>.cls-1{fill:url(#linear-gradient);}.cls-2{fill:url(#Degradado_sin_nombre_14);}.cls-3,.cls-5{fill:#fff;}.cls-4{fill:url(#Degradado_sin_nombre_14-2);}.cls-5{font-size:13.8px;font-family:Arial-BoldItalicMT, Arial;font-weight:700;font-style:italic;}.cls-6{letter-spacing:-0.07em;}.cls-7{letter-spacing:-0.04em;}.cls-8{letter-spacing:0em;}.cls-9{font-size:14px;font-family:ArialMT, Arial;}.cls-10{letter-spacing:0.02em;}.cls-11{letter-spacing:0em;}.cls-12{letter-spacing:0.02em;}.cls-13{letter-spacing:0em;}.cls-14{letter-spacing:-0.03em;}.cls-15{letter-spacing:-0.03em;}.cls-16{letter-spacing:0.51em;}.cls-17{letter-spacing:0.51em;}.cls-18{letter-spacing:0.2em;}.cls-19{letter-spacing:0.14em;}.cls-20{letter-spacing:0.14em;}.cls-21{letter-spacing:0.06em;}.cls-22{letter-spacing:0.06em;}.cls-23{letter-spacing:-0.03em;}.cls-24{letter-spacing:-0.03em;}.cls-25{letter-spacing:0em;}.cls-26{letter-spacing:0em;}.cls-27{letter-spacing:0.23em;}.cls-28{letter-spacing:0.23em;}.cls-29{fill:url(#Degradado_sin_nombre_14-3);}.cls-30{fill:#ee084b;}.cls-31{fill:url(#Degradado_sin_nombre_14-4);}.cls-32{fill:url(#Degradado_sin_nombre_14-5);}.cls-33{letter-spacing:-0.02em;}.cls-34{letter-spacing:0.04em;}.cls-35{letter-spacing:0.04em;}.cls-36{letter-spacing:0.21em;}.cls-37{letter-spacing:0.21em;}.cls-38{letter-spacing:0.04em;}.cls-39{letter-spacing:0.04em;}.cls-40{letter-spacing:-0.02em;}.cls-41{letter-spacing:-0.02em;}.cls-42{letter-spacing:0.03em;}.cls-43{letter-spacing:0.03em;}.cls-44{fill:url(#Degradado_sin_nombre_14-6);}.cls-45{fill:url(#Degradado_sin_nombre_14-7);}.cls-46{letter-spacing:-0.07em;}.cls-47{letter-spacing:0em;}.cls-48{letter-spacing:-0.02em;}.cls-49{letter-spacing:0.13em;}.cls-50{letter-spacing:0.13em;}.cls-51{letter-spacing:0.29em;}.cls-52{letter-spacing:0.29em;}.cls-53{letter-spacing:0.07em;}.cls-54{letter-spacing:0.07em;}.cls-55{letter-spacing:0.06em;}.cls-56{letter-spacing:0.06em;}.cls-57{letter-spacing:0.02em;}.cls-58{letter-spacing:0.02em;}.cls-59{fill:#d9201e;}.cls-60{fill:#e5581e;}</style><linearGradient id="linear-gradient" x1="-17.91" y1="48.43" x2="826.37" y2="596.16" gradientUnits="userSpaceOnUse"><stop offset="0" stop-color="#fff"/><stop offset="1" stop-color="#e5e5e6"/></linearGradient><linearGradient id="Degradado_sin_nombre_14" x1="212.81" y1="333.13" x2="410.87" y2="333.13" gradientTransform="translate(177.72 -212.88)" gradientUnits="userSpaceOnUse"><stop offset="0" stop-color="#ee084b"/><stop offset="0.06" stop-color="#ed1146"/><stop offset="0.29" stop-color="#e93034"/><stop offset="0.52" stop-color="#e74628"/><stop offset="0.73" stop-color="#e65321"/><stop offset="0.93" stop-color="#e5581e"/></linearGradient><linearGradient id="Degradado_sin_nombre_14-2" x1="197.88" y1="26.62" x2="441.86" y2="26.62" gradientTransform="matrix(1, 0, 0, 1, 0, 0)" xlink:href="#Degradado_sin_nombre_14"/><linearGradient id="Degradado_sin_nombre_14-3" x1="21.06" y1="97.1" x2="148.62" y2="97.1" gradientTransform="matrix(1, 0, 0, 1, 0, 0)" xlink:href="#Degradado_sin_nombre_14"/><linearGradient id="Degradado_sin_nombre_14-4" x1="27.81" y1="333.13" x2="173.48" y2="333.13" gradientTransform="translate(388.92 -1.69)" xlink:href="#Degradado_sin_nombre_14"/><linearGradient id="Degradado_sin_nombre_14-5" x1="197.88" y1="264.01" x2="489.56" y2="264.01" gradientTransform="matrix(1, 0, 0, 1, 0, 0)" xlink:href="#Degradado_sin_nombre_14"/><linearGradient id="Degradado_sin_nombre_14-6" x1="-158.81" y1="333.13" x2="-3.82" y2="333.13" gradientTransform="translate(570.88 180.27)" xlink:href="#Degradado_sin_nombre_14"/><linearGradient id="Degradado_sin_nombre_14-7" x1="197.88" y1="441.31" x2="553.03" y2="441.31" gradientTransform="matrix(1, 0, 0, 1, 0, 0)" xlink:href="#Degradado_sin_nombre_14"/></defs><title>definiciones</title><rect class="cls-1" x="-3.33" y="-1.18" width="825.38" height="653.62"/><rect class="cls-2" x="390.54" y="-198.98" width="198.06" height="638.44" transform="translate(369.32 609.81) rotate(-90)"/><rect class="cls-3" x="190.11" y="28.4" width="598.91" height="183.69"/><rect class="cls-4" x="197.88" y="8.26" width="243.97" height="36.72"/><text class="cls-5" transform="translate(206.68 32.74)">ENTREVIS<tspan class="cls-6" x="69" y="0">T</tspan><tspan x="76.4" y="0">AR</tspan><tspan class="cls-7" x="96.33" y="0" xml:space="preserve"> A</tspan><tspan class="cls-8" x="109.1" y="0" xml:space="preserve"> LOS USUARIOS: </tspan></text><text class="cls-9" transform="translate(211.03 62.01)">es<tspan class="cls-10" x="14.79" y="0"> </tspan><tspan class="cls-11" x="19" y="0">necesario</tspan><tspan class="cls-12" x="79.7" y="0"> </tspan><tspan x="83.91" y="0">que</tspan><tspan class="cls-10" x="107.27" y="0"> </tspan><tspan class="cls-11" x="111.48" y="0">todos</tspan><tspan class="cls-12" x="145.73" y="0"> </tspan><tspan x="149.94" y="0">los</tspan><tspan class="cls-12" x="167.83" y="0"> </tspan><tspan class="cls-13" x="172.04" y="0">actores</tspan><tspan class="cls-10" x="217.95" y="0"> </tspan><tspan x="222.17" y="0">representantes</tspan><tspan class="cls-10" x="315.56" y="0"> </tspan><tspan class="cls-11" x="319.77" y="0">de</tspan><tspan class="cls-12" x="335.34" y="0"> </tspan><tspan x="339.55" y="0">las</tspan><tspan class="cls-12" x="357.45" y="0"> </tspan><tspan class="cls-13" x="361.66" y="0">diferentes</tspan><tspan class="cls-10" x="423.14" y="0"> </tspan><tspan x="427.35" y="0">áreas</tspan><tspan class="cls-12" x="462.37" y="0"> </tspan><tspan class="cls-13" x="466.58" y="0">involucradas</tspan><tspan class="cls-10" x="545.18" y="0"> </tspan><tspan x="549.39" y="0">se </tspan><tspan x="0" y="15">reúnan,</tspan><tspan class="cls-14" x="47.48" y="15"> </tspan><tspan x="50.93" y="15">guiados</tspan><tspan class="cls-14" x="99.97" y="15"> </tspan><tspan x="103.41" y="15">por</tspan><tspan class="cls-14" x="123.64" y="15"> </tspan><tspan x="127.09" y="15">los</tspan><tspan class="cls-14" x="144.98" y="15"> </tspan><tspan x="148.43" y="15">analistas</tspan><tspan class="cls-14" x="203.68" y="15"> </tspan><tspan x="207.13" y="15">informáticos</tspan><tspan class="cls-14" x="282.59" y="15"> </tspan><tspan x="286.04" y="15">o</tspan><tspan class="cls-15" x="293.82" y="15"> </tspan><tspan x="297.27" y="15">expertos</tspan><tspan class="cls-14" x="350.96" y="15"> </tspan><tspan x="354.41" y="15">en</tspan><tspan class="cls-14" x="369.98" y="15"> </tspan><tspan x="373.42" y="15">desarrollo,</tspan><tspan class="cls-14" x="438.79" y="15"> </tspan><tspan x="442.23" y="15">con</tspan><tspan class="cls-14" x="464.8" y="15"> </tspan><tspan x="468.25" y="15">el</tspan><tspan class="cls-14" x="479.14" y="15"> </tspan><tspan x="482.59" y="15">fin</tspan><tspan class="cls-14" x="497.37" y="15"> </tspan><tspan x="500.82" y="15">de</tspan><tspan class="cls-14" x="516.39" y="15"> </tspan><tspan x="519.83" y="15">discutir </tspan><tspan x="0" y="30">y</tspan><tspan class="cls-16" x="7" y="30"> </tspan><tspan x="18.03" y="30">conocer</tspan><tspan class="cls-17" x="67.84" y="30"> </tspan><tspan x="78.87" y="30">cuáles</tspan><tspan class="cls-16" x="119.34" y="30"> </tspan><tspan x="130.37" y="30">son</tspan><tspan class="cls-17" x="152.94" y="30"> </tspan><tspan x="163.97" y="30">sus</tspan><tspan class="cls-16" x="185.76" y="30"> </tspan><tspan x="196.79" y="30">inquietudes,</tspan><tspan class="cls-17" x="272.29" y="30"> </tspan><tspan x="283.32" y="30">necesidades</tspan><tspan class="cls-16" x="361.93" y="30"> </tspan><tspan x="372.97" y="30">o</tspan><tspan class="cls-17" x="380.75" y="30"> </tspan><tspan x="391.78" y="30">expectativas</tspan><tspan class="cls-16" x="469.6" y="30"> </tspan><tspan x="480.63" y="30">frente</tspan><tspan class="cls-17" x="516.43" y="30"> </tspan><tspan x="527.46" y="30">a</tspan><tspan class="cls-16" x="535.25" y="30"> </tspan><tspan x="546.28" y="30">las </tspan><tspan x="0" y="45">funcionalidades</tspan><tspan class="cls-18" x="97.3" y="45"> </tspan><tspan x="103.99" y="45">y</tspan><tspan class="cls-18" x="110.99" y="45"> </tspan><tspan x="117.68" y="45">desempeño</tspan><tspan class="cls-18" x="190.84" y="45"> </tspan><tspan x="197.53" y="45">del</tspan><tspan class="cls-18" x="216.21" y="45"> </tspan><tspan x="222.91" y="45">sistema</tspan><tspan class="cls-18" x="271.14" y="45"> </tspan><tspan x="277.83" y="45">de</tspan><tspan class="cls-18" x="293.4" y="45"> </tspan><tspan x="300.09" y="45">información.</tspan><tspan class="cls-18" x="376.35" y="45"> </tspan><tspan x="383.04" y="45">Para</tspan><tspan class="cls-18" x="412.61" y="45"> </tspan><tspan x="419.3" y="45">realizar</tspan><tspan class="cls-18" x="465.2" y="45"> </tspan><tspan x="471.89" y="45">las</tspan><tspan class="cls-18" x="489.79" y="45"> </tspan><tspan x="496.48" y="45">entrevistas </tspan><tspan x="0" y="60">existen</tspan><tspan class="cls-19" x="44.36" y="60"> </tspan><tspan x="50.19" y="60">muchas</tspan><tspan class="cls-20" x="99.21" y="60"> </tspan><tspan x="105.04" y="60">metodologías</tspan><tspan class="cls-19" x="189.1" y="60"> </tspan><tspan x="194.93" y="60">o</tspan><tspan class="cls-19" x="202.72" y="60"> </tspan><tspan x="208.55" y="60">técnicas</tspan><tspan class="cls-19" x="259.91" y="60"> </tspan><tspan x="265.74" y="60">que</tspan><tspan class="cls-20" x="289.1" y="60"> </tspan><tspan class="cls-11" x="294.93" y="60">los</tspan><tspan class="cls-19" x="312.83" y="60"> </tspan><tspan x="318.66" y="60">expertos</tspan><tspan class="cls-19" x="372.36" y="60"> </tspan><tspan x="378.19" y="60">utilizan,</tspan><tspan class="cls-19" x="425.66" y="60"> </tspan><tspan x="431.49" y="60">para</tspan><tspan class="cls-19" x="459.51" y="60"> </tspan><tspan class="cls-13" x="465.34" y="60">efectos</tspan><tspan class="cls-19" x="510.48" y="60"> </tspan><tspan x="516.31" y="60">de</tspan><tspan class="cls-19" x="531.88" y="60"> </tspan><tspan x="537.72" y="60">este </tspan><tspan x="0" y="75">curso,</tspan><tspan class="cls-21" x="38.12" y="75"> </tspan><tspan x="42.79" y="75">no</tspan><tspan class="cls-21" x="58.36" y="75"> </tspan><tspan x="63.02" y="75">se</tspan><tspan class="cls-22" x="77.81" y="75"> </tspan><tspan x="82.48" y="75">abordará</tspan><tspan class="cls-21" x="138.52" y="75"> </tspan><tspan x="143.18" y="75">ninguna,</tspan><tspan class="cls-21" x="196.9" y="75"> </tspan><tspan x="201.56" y="75">solo</tspan><tspan class="cls-21" x="227.24" y="75"> </tspan><tspan x="231.91" y="75">se</tspan><tspan class="cls-22" x="246.69" y="75"> </tspan><tspan x="251.36" y="75">recomienda</tspan><tspan class="cls-21" x="324.51" y="75"> </tspan><tspan x="329.17" y="75">que</tspan><tspan class="cls-21" x="352.53" y="75"> </tspan><tspan x="357.2" y="75">las</tspan><tspan class="cls-21" x="375.09" y="75"> </tspan><tspan x="379.76" y="75">entrevistas</tspan><tspan class="cls-22" x="447.45" y="75"> </tspan><tspan x="452.12" y="75">sean</tspan><tspan class="cls-21" x="482.48" y="75"> </tspan><tspan x="487.14" y="75">dirigidas</tspan><tspan class="cls-21" x="539.28" y="75"> </tspan><tspan x="543.94" y="75">por </tspan><tspan x="0" y="90">expertos</tspan><tspan class="cls-23" x="53.7" y="90"> </tspan><tspan x="57.15" y="90">en</tspan><tspan class="cls-24" x="72.72" y="90"> </tspan><tspan x="76.18" y="90">levantamiento</tspan><tspan class="cls-23" x="163.34" y="90"> </tspan><tspan x="166.8" y="90">de</tspan><tspan class="cls-24" x="182.37" y="90"> </tspan><tspan x="185.82" y="90">requerimientos</tspan><tspan class="cls-23" x="278.42" y="90"> </tspan><tspan x="281.88" y="90">informáticos,</tspan><tspan class="cls-24" x="361.24" y="90"> </tspan><tspan x="364.69" y="90">siguiendo</tspan><tspan class="cls-23" x="424.63" y="90"> </tspan><tspan x="428.08" y="90">técnicas</tspan><tspan class="cls-24" x="479.44" y="90"> </tspan><tspan x="482.9" y="90">que</tspan><tspan class="cls-23" x="506.25" y="90"> </tspan><tspan x="509.71" y="90">permitan </tspan><tspan x="0" y="105">llegar</tspan><tspan class="cls-25" x="34.24" y="105"> </tspan><tspan x="38.08" y="105">al</tspan><tspan class="cls-25" x="48.98" y="105"> </tspan><tspan x="52.82" y="105">mayor</tspan><tspan class="cls-25" x="91.72" y="105"> </tspan><tspan x="95.56" y="105">nivel</tspan><tspan class="cls-25" x="124.35" y="105"> </tspan><tspan x="128.19" y="105">de</tspan><tspan class="cls-25" x="143.77" y="105"> </tspan><tspan x="147.61" y="105">detalle</tspan><tspan class="cls-25" x="188.86" y="105"> </tspan><tspan x="192.71" y="105">posible</tspan><tspan class="cls-25" x="237.07" y="105"> </tspan><tspan x="240.91" y="105">sobre</tspan><tspan class="cls-25" x="275.93" y="105"> </tspan><tspan x="279.77" y="105">lo</tspan><tspan class="cls-26" x="290.67" y="105"> </tspan><tspan x="294.51" y="105">que</tspan><tspan class="cls-25" x="317.87" y="105"> </tspan><tspan x="321.71" y="105">se</tspan><tspan class="cls-25" x="336.5" y="105"> </tspan><tspan x="340.34" y="105">requiere</tspan><tspan class="cls-25" x="391.71" y="105"> </tspan><tspan x="395.55" y="105">o</tspan><tspan class="cls-25" x="403.33" y="105"> </tspan><tspan x="407.18" y="105">espera.</tspan><tspan class="cls-25" x="453.87" y="105"> </tspan><tspan x="457.71" y="105">Si</tspan><tspan class="cls-25" x="470.16" y="105"> </tspan><tspan x="474" y="105">los</tspan><tspan class="cls-25" x="491.9" y="105"> </tspan><tspan x="495.74" y="105">expertos</tspan><tspan class="cls-25" x="549.44" y="105"> </tspan><tspan x="553.28" y="105">lo </tspan><tspan x="0" y="120">consideran</tspan><tspan class="cls-27" x="68.49" y="120"> </tspan><tspan x="75.67" y="120">necesario,</tspan><tspan class="cls-27" x="140.26" y="120"> </tspan><tspan x="147.43" y="120">se</tspan><tspan class="cls-27" x="162.22" y="120"> </tspan><tspan x="169.4" y="120">puede</tspan><tspan class="cls-27" x="208.33" y="120"> </tspan><tspan x="215.5" y="120">aplicar</tspan><tspan class="cls-27" x="256.74" y="120"> </tspan><tspan x="263.92" y="120">también</tspan><tspan class="cls-27" x="313.73" y="120"> </tspan><tspan x="320.9" y="120">algún</tspan><tspan class="cls-28" x="355.16" y="120"> </tspan><tspan x="362.33" y="120">tipo</tspan><tspan class="cls-27" x="384.9" y="120"> </tspan><tspan x="392.08" y="120">de</tspan><tspan class="cls-27" x="407.65" y="120"> </tspan><tspan x="414.83" y="120">encuesta</tspan><tspan class="cls-27" x="471.65" y="120"> </tspan><tspan x="478.82" y="120">con</tspan><tspan class="cls-27" x="501.4" y="120"> </tspan><tspan x="508.57" y="120">el</tspan><tspan class="cls-27" x="519.47" y="120"> </tspan><tspan x="526.64" y="120">fin</tspan><tspan class="cls-27" x="541.43" y="120"> </tspan><tspan x="548.61" y="120">de </tspan><tspan x="0" y="135">establecer de una manera más formal cuáles son sus expectativas y necesidades. </tspan></text><path class="cls-29" d="M84.84,160.88A63.78,63.78,0,1,1,148.62,97.1,63.85,63.85,0,0,1,84.84,160.88Zm0-123A59.2,59.2,0,1,0,144,97.1,59.26,59.26,0,0,0,84.84,37.9Z"/><path class="cls-30" d="M123.33,97.89c0,.09-.1.17-.13.26a4.12,4.12,0,0,1-4.31,3.12H99.11v2.83c0,.62,0,1.23,0,1.85a1.12,1.12,0,0,1-.69,1.19,1.16,1.16,0,0,1-1.33-.36c-1.67-1.68-3.33-3.37-5-5a1.86,1.86,0,0,0-1.14-.48c-2.39,0-4.78,0-7.17,0a4.17,4.17,0,0,1-4.49-4.47V92.16c-.24.2-.41.33-.55.47-1.59,1.58-3.18,3.16-4.76,4.76a1.27,1.27,0,0,1-1.5.46c-.61-.26-.64-.8-.64-1.37,0-1.47,0-3,0-4.5H63.32C62.5,92,62,91.57,62,90.92s.5-1.15,1.34-1.15h9.39c.89,0,1.3.42,1.32,1.33s0,1.9,0,3.07c1.31-1.3,2.44-2.48,3.63-3.61a11.19,11.19,0,0,1,1.44-1l.16.14v-.8c0-5.06.06-10.11,0-15.17a4.29,4.29,0,0,1,4.61-4.58c1.57.08,3.15,0,4.73,0h.84c0-1.86,0-3.63,0-5.4a1.8,1.8,0,0,0-1.79-1.65H52.26c-1.8,0-2.45.65-2.45,2.44V87.39c0,1.71.66,2.37,2.36,2.37h5.62a1.08,1.08,0,0,1,1.2,1,1,1,0,0,1-.76,1.2,1.65,1.65,0,0,1-.59,0H51.8a4.06,4.06,0,0,1-4.2-4.2q0-7.57,0-15.16V64.26a4.1,4.1,0,0,1,4.34-4.37H87.36a4.1,4.1,0,0,1,4.3,4.26c0,1.48,0,3,0,4.44a4.83,4.83,0,0,0,.06.57h.9c2.76,0,5.52,0,8.28,0a1.11,1.11,0,0,1,1.23,1.09,1.17,1.17,0,0,1-1.23,1.12c-.19,0-.39,0-.59,0H83.67a1.93,1.93,0,0,0-2.19,2.18v23.3a2,2,0,0,0,2.2,2.19q4,0,8,0a1.83,1.83,0,0,1,1.43.59,46.38,46.38,0,0,0,3.79,3.59v-2.55c0-1.31.31-1.62,1.6-1.62h20.12c1.85,0,2.5-.64,2.5-2.47V74c0-2-.57-2.57-2.53-2.57H106.75a3.64,3.64,0,0,1-.74,0,1,1,0,0,1-.89-1.17,1,1,0,0,1,1-1,6.15,6.15,0,0,1,.74,0c3.77,0,7.55.08,11.32,0,2.56-.07,4.33.82,5.15,3.32Z"/><path class="cls-30" d="M123.33,133.1a1.62,1.62,0,0,1-1.56.75c-3,0-6,0-9,0h-.45a1.1,1.1,0,0,1-1.13-1.11,1.07,1.07,0,0,1,1.14-1.1c.81,0,1.62,0,2.54,0,0-.62,0-1.17,0-1.73,0-.8.4-1.23,1.07-1.24s1.11.42,1.14,1.25c0,.54,0,1.08,0,1.67h4v-1.81c0-1.23,0-2.46,0-3.7a4.79,4.79,0,0,0-4.69-4.76q-6.73-.09-13.46,0a4.71,4.71,0,0,0-4.68,4.46c-.14,1.91,0,3.83,0,5.81h4.06c0-.6,0-1.18,0-1.77a1.05,1.05,0,0,1,1.08-1.14,1.07,1.07,0,0,1,1.12,1.12c0,.58,0,1.17,0,1.85h2.34c.85,0,1.36.45,1.34,1.13s-.53,1.08-1.34,1.08H97.31c-.8,0-1.29-.37-1.29-1.1,0-2.42-.14-4.84.06-7.24a7,7,0,0,1,7-6.43c.22,0,.43,0,.82,0a8.65,8.65,0,0,1-2.68-7.62,8.32,8.32,0,0,1,3-5.35,8.59,8.59,0,0,1,11.35.37,8.7,8.7,0,0,1,0,12.52,18,18,0,0,1,2.24.28,7,7,0,0,1,5.32,5.38c0,.16.11.32.16.47Zm-20-20.45a6.36,6.36,0,1,0,12.71.06,6.36,6.36,0,0,0-12.71-.06Z"/><path class="cls-30" d="M55.39,109.74a8.64,8.64,0,0,1-2.57-7.83,8.29,8.29,0,0,1,3.07-5.16,8.52,8.52,0,0,1,11.27.49,8.31,8.31,0,0,1,2.66,6.2,8.62,8.62,0,0,1-2.7,6.28,20.55,20.55,0,0,1,2.12.23,7.06,7.06,0,0,1,5.68,6.91c0,2.12,0,4.24,0,6.36,0,1-.4,1.33-1.37,1.33q-12.31,0-24.62,0c-1,0-1.33-.4-1.33-1.36,0-2,0-4.09,0-6.13a7.06,7.06,0,0,1,6.79-7.24Zm17.32,12.55v-5a4.91,4.91,0,0,0-5.3-5.31H55.29q-.48,0-1,0a4.58,4.58,0,0,0-4.39,4,59.35,59.35,0,0,0,0,6.26h4v-.83c0-.3,0-.59,0-.89A1.14,1.14,0,0,1,55,119.36a1.13,1.13,0,0,1,1.08,1.24c0,.56,0,1.12,0,1.69H66.41c0-.59,0-1.13,0-1.66,0-.79.5-1.29,1.15-1.27a1.12,1.12,0,0,1,1.06,1.26c0,.55,0,1.11,0,1.67ZM61.29,109.78a6.35,6.35,0,1,0-6.4-6.29A6.33,6.33,0,0,0,61.29,109.78Z"/><rect class="cls-31" x="416.73" y="12.22" width="145.68" height="638.44" transform="translate(158.13 821) rotate(-90)"/><rect class="cls-3" x="190.11" y="263.89" width="598.91" height="135.11"/><rect class="cls-32" x="197.88" y="245.65" width="291.68" height="36.72"/><text class="cls-5" transform="translate(208.24 268.64)">DOCUMEN<tspan class="cls-6" x="71.28" y="0">T</tspan><tspan x="78.68" y="0" xml:space="preserve">AR LOS  REQUERIMIEN</tspan><tspan class="cls-33" x="235.82" y="0">T</tspan><tspan x="244" y="0">OS: </tspan></text><text class="cls-9" transform="translate(211.03 299.4)">aquí<tspan class="cls-34" x="27.25" y="0"> </tspan><tspan x="31.67" y="0">se</tspan><tspan class="cls-34" x="46.46" y="0"> </tspan><tspan x="50.89" y="0">construyen</tspan><tspan class="cls-34" x="119.37" y="0"> </tspan><tspan x="123.8" y="0">los</tspan><tspan class="cls-35" x="141.69" y="0"> </tspan><tspan x="146.12" y="0">documentos</tspan><tspan class="cls-34" x="222.39" y="0"> </tspan><tspan x="226.81" y="0">donde</tspan><tspan class="cls-34" x="265.75" y="0"> </tspan><tspan x="270.17" y="0">se</tspan><tspan class="cls-34" x="284.96" y="0"> </tspan><tspan x="289.38" y="0">especifican</tspan><tspan class="cls-34" x="359.43" y="0"> </tspan><tspan x="363.85" y="0">de</tspan><tspan class="cls-34" x="379.42" y="0"> </tspan><tspan x="383.85" y="0">manera</tspan><tspan class="cls-35" x="431.32" y="0"> </tspan><tspan x="435.75" y="0">formal,</tspan><tspan class="cls-34" x="478.53" y="0"> </tspan><tspan x="482.96" y="0">con</tspan><tspan class="cls-34" x="505.53" y="0"> </tspan><tspan x="509.96" y="0">el</tspan><tspan class="cls-34" x="520.85" y="0"> </tspan><tspan x="525.28" y="0">mayor </tspan><tspan x="0" y="17">detalle</tspan><tspan class="cls-36" x="41.25" y="17"> </tspan><tspan x="48.13" y="17">posible,</tspan><tspan class="cls-36" x="96.39" y="17"> </tspan><tspan x="103.27" y="17">cada</tspan><tspan class="cls-36" x="133.62" y="17"> </tspan><tspan x="140.5" y="17">uno</tspan><tspan class="cls-37" x="163.86" y="17"> </tspan><tspan x="170.74" y="17">de</tspan><tspan class="cls-36" x="186.31" y="17"> </tspan><tspan x="193.19" y="17">los</tspan><tspan class="cls-36" x="211.09" y="17"> </tspan><tspan x="217.96" y="17">requerimientos</tspan><tspan class="cls-36" x="310.56" y="17"> </tspan><tspan x="317.44" y="17">que</tspan><tspan class="cls-36" x="340.8" y="17"> </tspan><tspan x="347.68" y="17">se</tspan><tspan class="cls-36" x="362.46" y="17"> </tspan><tspan x="369.34" y="17">espera</tspan><tspan class="cls-37" x="412.15" y="17"> </tspan><tspan x="419.03" y="17">sean</tspan><tspan class="cls-36" x="449.39" y="17"> </tspan><tspan x="456.26" y="17">cumplidos</tspan><tspan class="cls-36" x="519.29" y="17"> </tspan><tspan x="526.17" y="17">por</tspan><tspan class="cls-36" x="546.4" y="17"> </tspan><tspan x="553.28" y="17">el </tspan><tspan x="0" y="34">sistema.</tspan><tspan class="cls-38" x="52.12" y="34"> </tspan><tspan x="56.61" y="34">Es</tspan><tspan class="cls-39" x="72.95" y="34"> </tspan><tspan x="77.43" y="34">determinante</tspan><tspan class="cls-38" x="159.15" y="34"> </tspan><tspan x="163.63" y="34">para</tspan><tspan class="cls-39" x="191.65" y="34"> </tspan><tspan x="196.14" y="34">el</tspan><tspan class="cls-38" x="207.04" y="34"> </tspan><tspan x="211.52" y="34">éxito</tspan><tspan class="cls-38" x="241.09" y="34"> </tspan><tspan x="245.58" y="34">del</tspan><tspan class="cls-39" x="264.26" y="34"> </tspan><tspan x="268.75" y="34">proyecto,</tspan><tspan class="cls-38" x="326.33" y="34"> </tspan><tspan x="330.82" y="34">que</tspan><tspan class="cls-38" x="354.17" y="34"> </tspan><tspan x="358.66" y="34">este</tspan><tspan class="cls-39" x="385.12" y="34"> </tspan><tspan x="389.61" y="34">documento</tspan><tspan class="cls-38" x="458.88" y="34"> </tspan><tspan x="463.36" y="34">quede</tspan><tspan class="cls-39" x="502.29" y="34"> </tspan><tspan x="506.78" y="34">muy</tspan><tspan class="cls-38" x="533.22" y="34"> </tspan><tspan x="537.71" y="34">bien </tspan><tspan x="0" y="51">redactado,</tspan><tspan class="cls-40" x="66.16" y="51"> </tspan><tspan x="69.84" y="51">y</tspan><tspan class="cls-40" x="76.84" y="51"> </tspan><tspan x="80.51" y="51">sobre</tspan><tspan class="cls-40" x="115.53" y="51"> </tspan><tspan x="119.21" y="51">todo</tspan><tspan class="cls-40" x="146.46" y="51"> </tspan><tspan x="150.14" y="51">con</tspan><tspan class="cls-40" x="172.71" y="51"> </tspan><tspan x="176.39" y="51">el</tspan><tspan class="cls-40" x="187.28" y="51"> </tspan><tspan x="190.96" y="51">mayor</tspan><tspan class="cls-40" x="229.86" y="51"> </tspan><tspan x="233.54" y="51">nivel</tspan><tspan class="cls-41" x="262.33" y="51"> </tspan><tspan x="266.01" y="51">de</tspan><tspan class="cls-40" x="281.58" y="51"> </tspan><tspan x="285.26" y="51">detalle</tspan><tspan class="cls-40" x="326.51" y="51"> </tspan><tspan x="330.19" y="51">posible,</tspan><tspan class="cls-40" x="378.45" y="51"> </tspan><tspan x="382.12" y="51">dado</tspan><tspan class="cls-40" x="413.27" y="51"> </tspan><tspan x="416.95" y="51">que</tspan><tspan class="cls-40" x="440.3" y="51"> </tspan><tspan x="443.98" y="51">cualquier</tspan><tspan class="cls-40" x="500.79" y="51"> </tspan><tspan x="504.47" y="51">omisión</tspan><tspan class="cls-40" x="552.71" y="51"> </tspan><tspan x="556.39" y="51">o </tspan><tspan x="0" y="68">elemento</tspan><tspan class="cls-42" x="57.59" y="68"> </tspan><tspan x="61.87" y="68">faltante,</tspan><tspan class="cls-42" x="111.68" y="68"> </tspan><tspan x="115.95" y="68">puede</tspan><tspan class="cls-42" x="154.88" y="68"> </tspan><tspan x="159.15" y="68">causar</tspan><tspan class="cls-42" x="201.17" y="68"> </tspan><tspan x="205.45" y="68">reprocesos</tspan><tspan class="cls-42" x="274.7" y="68"> </tspan><tspan x="278.97" y="68">o</tspan><tspan class="cls-43" x="286.76" y="68"> </tspan><tspan x="291.03" y="68">sobrecostos</tspan><tspan class="cls-42" x="366.52" y="68"> </tspan><tspan x="370.79" y="68">durante</tspan><tspan class="cls-42" x="418.27" y="68"> </tspan><tspan x="422.54" y="68">las</tspan><tspan class="cls-42" x="440.44" y="68"> </tspan><tspan x="444.71" y="68">etapas</tspan><tspan class="cls-42" x="486.75" y="68"> </tspan><tspan x="491.02" y="68">de</tspan><tspan class="cls-42" x="506.59" y="68"> </tspan><tspan x="510.86" y="68">diseño</tspan><tspan class="cls-42" x="552.12" y="68"> </tspan><tspan x="556.39" y="68">o </tspan><tspan x="0" y="85" xml:space="preserve">desarrollo.  </tspan></text><rect class="cls-44" x="412.07" y="194.18" width="154.99" height="638.44" transform="translate(-23.83 1002.96) rotate(-90)"/><rect class="cls-3" x="190.11" y="441.52" width="598.91" height="143.75"/><rect class="cls-45" x="197.88" y="422.95" width="355.14" height="36.72"/><text class="cls-5" transform="translate(207.77 447.42)"><tspan class="cls-46">V</tspan><tspan class="cls-47" x="8.18" y="0">ALIDAR E</tspan><tspan class="cls-48" x="73.33" y="0">L</tspan><tspan x="81.51" y="0" xml:space="preserve"> DOCUMEN</tspan><tspan class="cls-48" x="156.62" y="0">T</tspan><tspan x="164.8" y="0" xml:space="preserve">O  DE REQUERIMIEN</tspan><tspan class="cls-33" x="303.55" y="0">T</tspan><tspan x="311.72" y="0">OS: </tspan></text><text class="cls-9" transform="translate(211.03 476.7)">los<tspan class="cls-49" x="17.9" y="0"> </tspan><tspan x="23.55" y="0">analistas</tspan><tspan class="cls-49" x="78.8" y="0"> </tspan><tspan x="84.46" y="0">o</tspan><tspan class="cls-50" x="92.24" y="0"> </tspan><tspan x="97.89" y="0">personas</tspan><tspan class="cls-49" x="155.49" y="0"> </tspan><tspan x="161.14" y="0">encargadas</tspan><tspan class="cls-49" x="234.3" y="0"> </tspan><tspan x="239.96" y="0">de</tspan><tspan class="cls-49" x="255.53" y="0"> </tspan><tspan x="261.18" y="0">la</tspan><tspan class="cls-49" x="272.08" y="0"> </tspan><tspan x="277.73" y="0">documentación</tspan><tspan class="cls-49" x="372.68" y="0"> </tspan><tspan x="378.33" y="0">de</tspan><tspan class="cls-50" x="393.91" y="0"> </tspan><tspan x="399.56" y="0">los</tspan><tspan class="cls-49" x="417.45" y="0"> </tspan><tspan x="423.11" y="0">requerimientos,</tspan><tspan class="cls-49" x="519.59" y="0"> </tspan><tspan x="525.25" y="0">deben </tspan><tspan x="0" y="17">volver</tspan><tspan class="cls-51" x="37.34" y="17"> </tspan><tspan x="45.25" y="17">nuevamente</tspan><tspan class="cls-52" x="122.31" y="17"> </tspan><tspan x="130.21" y="17">donde</tspan><tspan class="cls-51" x="169.14" y="17"> </tspan><tspan x="177.05" y="17">los</tspan><tspan class="cls-51" x="194.95" y="17"> </tspan><tspan x="202.85" y="17">usuarios</tspan><tspan class="cls-51" x="255.77" y="17"> </tspan><tspan x="263.68" y="17">para</tspan><tspan class="cls-52" x="291.7" y="17"> </tspan><tspan x="299.61" y="17">validar</tspan><tspan class="cls-51" x="340.85" y="17"> </tspan><tspan x="348.75" y="17">con</tspan><tspan class="cls-51" x="371.33" y="17"> </tspan><tspan x="379.23" y="17">ellos,</tspan><tspan class="cls-51" x="411.92" y="17"> </tspan><tspan x="419.82" y="17">el</tspan><tspan class="cls-52" x="430.72" y="17"> </tspan><tspan x="438.63" y="17">documento</tspan><tspan class="cls-51" x="507.89" y="17"> </tspan><tspan x="515.8" y="17">con</tspan><tspan class="cls-51" x="538.37" y="17"> </tspan><tspan x="546.28" y="17">las </tspan><tspan x="0" y="34">especificaciones.</tspan><tspan class="cls-53" x="106.61" y="34"> </tspan><tspan x="111.43" y="34">Esto</tspan><tspan class="cls-54" x="139.45" y="34"> </tspan><tspan x="144.27" y="34">con</tspan><tspan class="cls-53" x="166.84" y="34"> </tspan><tspan x="171.66" y="34">el</tspan><tspan class="cls-54" x="182.56" y="34"> </tspan><tspan x="187.38" y="34">fin</tspan><tspan class="cls-53" x="202.16" y="34"> </tspan><tspan x="206.98" y="34">de</tspan><tspan class="cls-54" x="222.55" y="34"> </tspan><tspan x="227.37" y="34">asegurarse</tspan><tspan class="cls-53" x="297.41" y="34"> </tspan><tspan x="302.23" y="34">que</tspan><tspan class="cls-54" x="325.59" y="34"> </tspan><tspan x="330.41" y="34">lo</tspan><tspan class="cls-53" x="341.31" y="34"> </tspan><tspan x="346.13" y="34">que</tspan><tspan class="cls-54" x="369.49" y="34"> </tspan><tspan x="374.31" y="34">quedó</tspan><tspan class="cls-53" x="413.24" y="34"> </tspan><tspan x="418.06" y="34">allí,</tspan><tspan class="cls-54" x="439.84" y="34"> </tspan><tspan x="444.66" y="34">esté</tspan><tspan class="cls-53" x="471.13" y="34"> </tspan><tspan x="475.95" y="34">bien</tspan><tspan class="cls-54" x="502.41" y="34"> </tspan><tspan x="507.23" y="34">escrito,</tspan><tspan class="cls-53" x="552.36" y="34"> </tspan><tspan x="557.18" y="34">y </tspan><tspan x="0" y="51">que</tspan><tspan class="cls-55" x="23.36" y="51"> </tspan><tspan x="28.13" y="51">si</tspan><tspan class="cls-56" x="38.24" y="51"> </tspan><tspan x="43.01" y="51">se</tspan><tspan class="cls-55" x="57.79" y="51"> </tspan><tspan x="62.56" y="51">haya</tspan><tspan class="cls-55" x="92.92" y="51"> </tspan><tspan x="97.69" y="51">identificado</tspan><tspan class="cls-55" x="168.52" y="51"> </tspan><tspan x="173.29" y="51">correctamente</tspan><tspan class="cls-56" x="262.77" y="51"> </tspan><tspan x="267.54" y="51">lo</tspan><tspan class="cls-55" x="278.43" y="51"> </tspan><tspan x="283.2" y="51">que</tspan><tspan class="cls-55" x="306.56" y="51"> </tspan><tspan x="311.33" y="51">se</tspan><tspan class="cls-55" x="326.12" y="51"> </tspan><tspan x="330.89" y="51">requiere</tspan><tspan class="cls-56" x="382.25" y="51"> </tspan><tspan x="387.02" y="51">para</tspan><tspan class="cls-55" x="415.04" y="51"> </tspan><tspan x="419.81" y="51">el</tspan><tspan class="cls-55" x="430.71" y="51"> </tspan><tspan x="435.48" y="51">sistema.</tspan><tspan class="cls-55" x="487.6" y="51"> </tspan><tspan x="492.37" y="51">En</tspan><tspan class="cls-56" x="509.5" y="51"> </tspan><tspan x="514.26" y="51">caso</tspan><tspan class="cls-55" x="543.84" y="51"> </tspan><tspan x="548.61" y="51">de </tspan><tspan x="0" y="68">que</tspan><tspan class="cls-57" x="23.36" y="68"> </tspan><tspan x="27.46" y="68">se</tspan><tspan class="cls-57" x="42.25" y="68"> </tspan><tspan x="46.36" y="68">identifique</tspan><tspan class="cls-57" x="110.18" y="68"> </tspan><tspan x="114.29" y="68">algún</tspan><tspan class="cls-57" x="148.54" y="68"> </tspan><tspan x="152.65" y="68">elemento</tspan><tspan class="cls-57" x="210.24" y="68"> </tspan><tspan x="214.35" y="68">o</tspan><tspan class="cls-57" x="222.13" y="68"> </tspan><tspan x="226.24" y="68">detalle</tspan><tspan class="cls-57" x="267.49" y="68"> </tspan><tspan x="271.6" y="68">faltante,</tspan><tspan class="cls-58" x="321.41" y="68"> </tspan><tspan x="325.52" y="68">este</tspan><tspan class="cls-57" x="351.98" y="68"> </tspan><tspan x="356.09" y="68">es</tspan><tspan class="cls-57" x="370.87" y="68"> </tspan><tspan x="374.98" y="68">el</tspan><tspan class="cls-57" x="385.87" y="68"> </tspan><tspan x="389.98" y="68">momento</tspan><tspan class="cls-57" x="448.34" y="68"> </tspan><tspan x="452.44" y="68">de</tspan><tspan class="cls-57" x="468.02" y="68"> </tspan><tspan x="472.12" y="68">ajustarlo,</tspan><tspan class="cls-57" x="528.93" y="68"> </tspan><tspan x="533.03" y="68">dado </tspan><tspan x="0" y="85">que, si pasa a la fase siguiente, es difícil poder hacerlo, o incluso puede ser muy tarde.</tspan></text><path class="cls-59" d="M84.84,578.89a63.78,63.78,0,1,1,63.78-63.78A63.85,63.85,0,0,1,84.84,578.89Zm0-123A59.2,59.2,0,1,0,144,515.11,59.25,59.25,0,0,0,84.84,455.92Z"/><path class="cls-30" d="M131.05,526.87v4.39c-.12.92-.22,1.85-.36,2.77-1.62,10.08-7.13,17.43-15.83,22.55a1.73,1.73,0,0,1-2,0c-1.91-1.36-3.83-2.7-5.71-4.1a2.38,2.38,0,0,0-1.53-.58q-24.84,0-49.69,0a4.7,4.7,0,0,1-5-5q0-22.38,0-44.76a4.12,4.12,0,0,1,.06-.93,3.09,3.09,0,0,1,3-2.53c1.56,0,3.11,0,4.71,0v-.95c0-5.69,0-11.38,0-17.06,0-1.94.65-3.27,2.53-3.91h48.22c1.87.64,2.54,2,2.52,3.91,0,8.81,0,17.62,0,26.43v1h2.81a4.72,4.72,0,0,1,5,5.05c0,2,0,3.91,0,5.86a.93.93,0,0,0,.31.68,27,27,0,0,0,8.54,2.34c1.25.09,1.74.47,1.94,1.7C130.76,524.77,130.9,525.82,131.05,526.87Zm-27.59,21.92-.38-.5a29.64,29.64,0,0,1-5.6-11.68,32,32,0,0,1-.4-13,1.74,1.74,0,0,1,1.7-1.63,32.37,32.37,0,0,0,4.29-.77,25.1,25.1,0,0,0,9.8-4.67,1.48,1.48,0,0,1,2.06.1c.52.42,1,.82,1.72,1.34v-4.64c0-1.7-.48-2.16-2.2-2.16H81.19c-1.38,0-1.7-.22-2.22-1.51-.89-2.23-1.77-4.45-2.67-6.67-.42-1.05-.68-1.22-1.82-1.22H54.84c-.26,0-.51,0-.76,0v40.67h7.79c1.14,0,1.85.62,1.85,1.56s-.71,1.57-1.85,1.57H54.05c0,.25,0,.4,0,.55,0,2.23.31,2.58,2.56,2.58h46.87ZM61.89,479.94v18.75H74.75a4.37,4.37,0,0,1,4.36,2.94c.78,1.9,1.55,3.8,2.28,5.72a1,1,0,0,0,1.06.75c8.53,0,17.06,0,25.58,0,.25,0,.5,0,.73,0V479.94ZM128,528.79c-.06-.85-.14-1.94-.2-3,0-.5-.25-.69-.76-.78a33.33,33.33,0,0,1-12.68-4.83.74.74,0,0,0-1,0A33.31,33.31,0,0,1,100.67,525c-.52.09-.7.29-.76.78a30.07,30.07,0,0,0,.2,8c1.39,8.53,6,14.9,13.23,19.45a.78.78,0,0,0,1,0C123.24,547.64,127.76,539.56,128,528.79Z"/><path class="cls-30" d="M69.22,545.65A1.56,1.56,0,1,1,70.77,544,1.57,1.57,0,0,1,69.22,545.65Z"/><path class="cls-30" d="M85.3,486.17H68.23c-.23,0-.47,0-.7,0a1.56,1.56,0,0,1,0-3.12c.21,0,.42,0,.63,0h34.44c.21,0,.42,0,.62,0a1.56,1.56,0,0,1,0,3.12c-.23,0-.47,0-.7,0Z"/><path class="cls-30" d="M85.34,492.43H68.2a6.71,6.71,0,0,1-.78,0,1.53,1.53,0,0,1-1.4-1.52,1.55,1.55,0,0,1,1.43-1.58c.23,0,.47,0,.7,0h34.36c.24,0,.48,0,.71,0a1.56,1.56,0,0,1,0,3.11c-.23,0-.46,0-.7,0Z"/><path class="cls-30" d="M94.21,498.69H85.68c-1.19,0-1.92-.61-1.9-1.59s.72-1.54,1.87-1.54H102.8c1.15,0,1.84.59,1.85,1.55s-.68,1.58-1.83,1.58Z"/><path class="cls-30" d="M98.47,505H94.09a1.57,1.57,0,1,1,0-3.12h8.85a1.57,1.57,0,1,1,0,3.12Z"/><path class="cls-30" d="M112,533.83c1.53-1.54,2.93-3,4.4-4.43a4.67,4.67,0,0,1,7.83,2.31,4.42,4.42,0,0,1-1.16,4.27c-2.59,2.64-5.2,5.27-7.86,7.85a4.56,4.56,0,0,1-6.32,0q-2.27-2.1-4.37-4.37a4.65,4.65,0,0,1,.16-6.5,4.71,4.71,0,0,1,6.56,0C111.5,533.22,111.71,533.49,112,533.83Zm9.33-1a5.58,5.58,0,0,0-.47-1.06,1.56,1.56,0,0,0-2.45,0c-1.72,1.71-3.42,3.44-5.15,5.14a1.55,1.55,0,0,1-2.47,0c-.52-.5-1-1-1.55-1.54a1.58,1.58,0,1,0-2.22,2.2c1.24,1.26,2.49,2.52,3.76,3.76a1.57,1.57,0,0,0,2.47,0q3.73-3.69,7.41-7.42A5.28,5.28,0,0,0,121.34,532.85Z"/><path class="cls-60" d="M84.84,398.92a63.78,63.78,0,1,1,63.78-63.78A63.85,63.85,0,0,1,84.84,398.92Zm0-123A59.19,59.19,0,1,0,144,335.14,59.25,59.25,0,0,0,84.84,276Z"/><path class="cls-30" d="M104.44,293.35c.42.37.87.73,1.27,1.13q9.17,9.16,18.33,18.31a2.83,2.83,0,0,1,.89,2.16q0,25.83,0,51.65c0,1.7-.4,2.09-2.14,2.09h-6.23v.92c0,1.94,0,3.87,0,5.8a1.44,1.44,0,0,1-1.61,1.63H57.33c-1.78,0-2.14-.36-2.14-2.15v-73.8c0-1.82.37-2.17,2.21-2.17h6.16c0-1.24,0-2.43,0-3.61a1.86,1.86,0,0,1,1-2Zm-1.82,2.84H66.4v69.65h55.67V315.67H104.61c-1.57,0-2-.42-2-2V296.19Zm-44.57,5.56V374.2h55.67v-5.51H65.8c-1.89,0-2.24-.35-2.24-2.24v-64.7Zm61.83,11.09-14.41-14.4v14.4Z"/><path class="cls-30" d="M98.4,356.12H82.31a4,4,0,0,1-1-.08,1.27,1.27,0,0,1-1-1.32,1.3,1.3,0,0,1,1.09-1.34,4.49,4.49,0,0,1,.9,0h32.28a3.64,3.64,0,0,1,.81,0,1.36,1.36,0,0,1,.07,2.67,3.45,3.45,0,0,1-1,.07Z"/><path class="cls-30" d="M98.48,336.59h15.85a8.75,8.75,0,0,1,.89,0,1.37,1.37,0,0,1,0,2.73,4.53,4.53,0,0,1-.74,0H82.16c-1.18,0-1.84-.52-1.85-1.39s.64-1.4,1.82-1.4Z"/><path class="cls-30" d="M98.42,345h16.09c1.37,0,2,.43,2,1.35s-.67,1.44-2.05,1.44H82.38a4.43,4.43,0,0,1-1-.08,1.3,1.3,0,0,1-1.09-1.41A1.33,1.33,0,0,1,81.58,345c.3,0,.6,0,.9,0Z"/><path class="cls-30" d="M98.39,322.63H82.46a6.71,6.71,0,0,1-.9,0,1.32,1.32,0,0,1-1.24-1.29,1.3,1.3,0,0,1,1-1.38,3.79,3.79,0,0,1,.89-.09H114.6a3.79,3.79,0,0,1,.89.09,1.36,1.36,0,0,1-.19,2.67,6.56,6.56,0,0,1-.89,0Z"/><path class="cls-30" d="M98.47,331H82.38c-1.4,0-2.08-.46-2.07-1.4s.7-1.39,2.09-1.39h32a4.26,4.26,0,0,1,1.13.12,1.23,1.23,0,0,1,1,1.34,1.27,1.27,0,0,1-1.06,1.27,5.39,5.39,0,0,1-1.06.06Z"/><path class="cls-30" d="M77.47,317.05c-1.31,0-2.62,0-3.92,0a1.44,1.44,0,0,1-1.63-1.6q0-4,0-7.92a1.43,1.43,0,0,1,1.62-1.61h7.91a1.4,1.4,0,0,1,1.61,1.6c0,2.64,0,5.27,0,7.91,0,1.13-.53,1.61-1.68,1.62Zm-2.74-2.85h5.49v-5.44H74.73Z"/><path class="cls-30" d="M74.69,322.61c-.49,0-1,0-1.47,0a1.32,1.32,0,0,1-1.28-1.25A1.25,1.25,0,0,1,73,319.94a19.61,19.61,0,0,1,3.34,0,1.24,1.24,0,0,1,1.1,1.47,1.3,1.3,0,0,1-1.3,1.22c-.49,0-1,0-1.47,0Z"/><path class="cls-30" d="M74.74,345c.49,0,1,0,1.47,0a1.31,1.31,0,0,1,1.26,1.26,1.21,1.21,0,0,1-1.09,1.4,19.49,19.49,0,0,1-3.33,0,1.3,1.3,0,0,1-1.12-1.39A1.38,1.38,0,0,1,73.27,345c.49,0,1,0,1.47,0Z"/><path class="cls-30" d="M74.72,356.11c-.47,0-.93,0-1.39,0a1.43,1.43,0,0,1-1.4-1.42,1.39,1.39,0,0,1,1.39-1.34c.92,0,1.85,0,2.77,0a1.35,1.35,0,0,1,1.38,1.33,1.37,1.37,0,0,1-1.36,1.43C75.64,356.14,75.18,356.11,74.72,356.11Z"/><path class="cls-30" d="M74.67,331c-.52,0-1,0-1.55,0A1.24,1.24,0,0,1,72,329.69a1.17,1.17,0,0,1,1-1.36,20.34,20.34,0,0,1,3.49,0,1.15,1.15,0,0,1,1,1.37A1.23,1.23,0,0,1,76.3,331,14.77,14.77,0,0,1,74.67,331Z"/><path class="cls-30" d="M74.74,336.57c.53,0,1.08,0,1.61.09a1.22,1.22,0,0,1,1.11,1.3,1.16,1.16,0,0,1-1.06,1.33,22.83,22.83,0,0,1-3.41,0,1.17,1.17,0,0,1-1-1.35,1.25,1.25,0,0,1,1.15-1.28C73.63,336.59,74.18,336.6,74.74,336.57Z"/></svg>