<svg id="Capa_1" data-name="Capa 1" xmlns="http://www.w3.org/2000/svg" viewBox="0 0 511.33 255.12"><defs><style>.cls-1{fill:#ddd;opacity:0.75;}.cls-2{fill:#20d4aa;}.cls-3{fill:#00953e;}.cls-4{font-size:24px;}.cls-4,.cls-8{font-family:Arial-BoldItalicMT, Arial;}.cls-5{font-weight:700;font-style:italic;}.cls-6,.cls-7{font-family:ArialMT, Arial;}.cls-6{letter-spacing:0em;}.cls-8{font-size:16px;}</style></defs><title>notas</title><path class="cls-1" d="M201.17,33.2H48A31.87,31.87,0,0,0,16.11,65.08V179.74A31.88,31.88,0,0,0,48,211.62H92.49l25.27,33.48a8.54,8.54,0,0,0,13.63,0l25.27-33.48h44.51A31.88,31.88,0,0,0,233,179.74V65.08A31.87,31.87,0,0,0,201.17,33.2Z"/><path class="cls-2" d="M200.83,90.25v-5.1Q223.64,72,229,51.86q-5.79,3.76-10.53,3.77a16.88,16.88,0,0,1-13.34-6.38,23.22,23.22,0,0,1-5.44-15.61,22.9,22.9,0,0,1,7.15-17.13,24.34,24.34,0,0,1,17.59-6.93q10.44,0,17.46,8.81t7,21.92q0,18.48-14.13,33.11A54.21,54.21,0,0,1,200.83,90.25Zm-59.84,0v-5.1Q163.8,72,169.15,51.86q-5.79,3.76-10.61,3.77a16.8,16.8,0,0,1-13.25-6.38,23.22,23.22,0,0,1-5.44-15.61A23,23,0,0,1,147,16.5,24.19,24.19,0,0,1,164.5,9.58q10.53,0,17.5,8.81t7,21.92q0,18.48-14.09,33.11A54,54,0,0,1,141,90.25Z"/><path class="cls-1" d="M449.22,33.2H296a31.87,31.87,0,0,0-31.88,31.88V179.74A31.88,31.88,0,0,0,296,211.62h44.51l25.27,33.48a8.54,8.54,0,0,0,13.63,0l25.27-33.48h44.51a31.88,31.88,0,0,0,31.88-31.88V65.08A31.87,31.87,0,0,0,449.22,33.2Z"/><path class="cls-3" d="M448.88,90.25v-5.1Q471.69,72,477,51.86q-5.79,3.76-10.53,3.77a16.88,16.88,0,0,1-13.34-6.38,23.22,23.22,0,0,1-5.44-15.61,22.9,22.9,0,0,1,7.15-17.13,24.34,24.34,0,0,1,17.59-6.93q10.44,0,17.46,8.81t7,21.92q0,18.48-14.13,33.11A54.21,54.21,0,0,1,448.88,90.25Zm-59.84,0v-5.1Q411.85,72,417.2,51.86q-5.79,3.76-10.61,3.77a16.8,16.8,0,0,1-13.25-6.38,23.22,23.22,0,0,1-5.44-15.61A23,23,0,0,1,395,16.5a24.19,24.19,0,0,1,17.55-6.93q10.53,0,17.5,8.81t7,21.92q0,18.48-14.09,33.11A54,54,0,0,1,389,90.25Z"/><text class="cls-4" transform="translate(62.36 130.21)"><tspan class="cls-5">Ecología</tspan><tspan class="cls-6" x="100.02" y="0"> </tspan><tspan class="cls-7" x="106.77" y="0">de </tspan><tspan class="cls-7"><tspan x="0" y="28.8">los saberes</tspan></tspan></text><text class="cls-8" transform="translate(336.65 119.39)"><tspan class="cls-5">Alternativa </tspan><tspan class="cls-5" x="-42.25" y="19.2">latinoamericana </tspan><tspan class="cls-7" x="84.03" y="19.2">frente </tspan><tspan class="cls-7"><tspan x="-32.47" y="38.4">a la monocultura y el </tspan><tspan x="1.33" y="57.6">capitalismo</tspan></tspan></text></svg>