<svg id="Capa_1" data-name="Capa 1" xmlns="http://www.w3.org/2000/svg" viewBox="0 0 925.8 198.42"><defs><style>.cls-1{fill:#e8e8e8;}.cls-1,.cls-35{opacity:0.47;}.cls-2{fill:#ece5de;}.cls-3{fill:#c9984c;}.cls-4{fill:#daaf8b;}.cls-5{fill:#f1dad9;}.cls-6{fill:#505941;}.cls-7{fill:#1f2235;}.cls-8{opacity:0.21;}.cls-9{fill:#b56158;}.cls-10{fill:#4a3f47;}.cls-11{fill:#8f5e56;}.cls-12{fill:#d6b46a;}.cls-13{fill:#d17f69;}.cls-14{fill:#8c4e3f;}.cls-15{fill:#4b392b;}.cls-16{fill:#365aac;}.cls-17{fill:#354f7d;}.cls-18{fill:#6069ba;}.cls-19{fill:#e5c2a5;}.cls-20{fill:#633627;}.cls-21{fill:#6f7ccd;}.cls-22{opacity:0.38;}.cls-23{fill:#fbf7dd;}.cls-24{fill:#bb4f3a;}.cls-25{fill:#a67440;}.cls-26{fill:#303558;}.cls-27{fill:#c8974b;}.cls-28{fill:#3f4676;}.cls-29{fill:#8a6f40;}.cls-30{fill:#e0ca99;}.cls-31{fill:#bc503b;}.cls-32{fill:#625046;}.cls-33{fill:#e2b96d;}.cls-34{fill:#b58c50;}.cls-36{fill:#9e7d54;}.cls-37{fill:#ce8b9c;}.cls-38{fill:#48342f;}.cls-39{opacity:0.18;}.cls-40{fill:#ac6e80;}.cls-41{font-size:18px;fill:#303030;font-family:ArialMT, Arial;}.cls-42{letter-spacing:0.49em;}.cls-43{letter-spacing:0.49em;}.cls-44{letter-spacing:0.45em;}.cls-45{letter-spacing:0.45em;}.cls-46{letter-spacing:0.02em;}.cls-47{letter-spacing:0.02em;}.cls-48{letter-spacing:-0.04em;}.cls-49{letter-spacing:0em;}</style></defs><title>tarjeta 04</title><rect class="cls-1" x="-8.71" y="-4.07" width="936.69" height="206.56"/><path class="cls-2" d="M810.31,36.57c-5-2.79-10.59-.61-14.22,2.82a22.77,22.77,0,0,0-6.47,13.2,41.42,41.42,0,0,0,.85,14.87c.53,2.45,1.26,5,3.06,6.75,1.29,1.26,3.62,1.88,4.8.51a2.76,2.76,0,0,0,2.54,2.16,6.61,6.61,0,0,0,3.45-.86,14.44,14.44,0,0,1,3.32-1.38c1.3-.27,2.69-.06,3.94-.51,1.43-.52,2.6-1.86,4.13-1.86,2.21,0,3.45,2.76,5.59,3.3A4.09,4.09,0,0,0,825,74.39a12.08,12.08,0,0,0,2.24-3.31c-.22,1.16,1.27,2.06,2.41,1.74a4.92,4.92,0,0,0,2.54-2.37,43.11,43.11,0,0,0,4.38-9.22c1.15-3.42,1.86-7.15.83-10.61-1-3.18-3.26-5.74-5.54-8.16-2.88-3.06-5.92-6.16-9.82-7.75s-8.87-1.27-11.68,1.86"/><path class="cls-3" d="M860.4,151c.39,0,.05-2.61.43-2.49.93.28-1.47-54.58-26.18-60.41-15.8-3.73-35.09,1.61-35.09,1.61s-20.84,10.95-20.84,61.3Z"/><path class="cls-4" d="M797.08,43.89c-1.25,10.4-2.7,34.32,10.37,33.61v8.12l-7.89,4.06s3.61,10.37,20.75,8.34S837,88.78,837,88.78L826.17,85.4l-.23-19.62s5.1.38,5-6.09c-.13-6.08-5.64-5.41-5.64-5.41l-.33-10.9a4.34,4.34,0,0,0-4.34-4.21h-18.2A5.36,5.36,0,0,0,797.08,43.89Z"/><path class="cls-2" d="M810.42,51.89c1.29,0,2.45-.9,3.71-1.21a34.44,34.44,0,0,1,4.9-.35.41.41,0,0,0,.11-.8,9.31,9.31,0,0,0-5,.11c-1.3.3-3.17.74-3.89,2a.2.2,0,0,0,.17.29Z"/><path class="cls-5" d="M819.37,53.47a4.71,4.71,0,0,0-8,1.46,10.34,10.34,0,0,0,4,.82c1.36-.07,3.52-1,4-2.28"/><path class="cls-6" d="M817.31,52.86a2.33,2.33,0,0,1-.52,2.32,1.55,1.55,0,0,1-2,.1,2.29,2.29,0,0,1-.68-2.26,2.4,2.4,0,0,1,1.79-1.3A1.2,1.2,0,0,1,817.31,52.86Z"/><path class="cls-5" d="M805,55.5A3.9,3.9,0,0,0,801.56,53a4.45,4.45,0,0,0-3.79,2.26A8,8,0,0,0,801,56.91c1.17.21,3.42-.34,4.17-1.47"/><path class="cls-6" d="M803.4,54.14a2.67,2.67,0,0,1-.72,2.3,1.22,1.22,0,0,1-1.78-.1,2.58,2.58,0,0,1-.34-2.36,2.21,2.21,0,0,1,1.71-1.15C803.47,52.73,803.4,54.14,803.4,54.14Z"/><path class="cls-2" d="M797.28,52.49a9.1,9.1,0,0,1,4.25-1,13.48,13.48,0,0,1,3.79,1,.36.36,0,0,0,.35-.6c-2.31-2-6.31-1.53-8.62.17a.23.23,0,0,0,.23.39Z"/><path class="cls-7" d="M826.12,56c-1.45.53-2.05,2.64-2,4a.43.43,0,0,0,.84.11c.27-1,1.8-1.35,2.06-.12.21,1-.71,1.15-1.35,1.33-.27.08-.39.54-.09.67,1.6.68,2.91-1.38,2.09-2.75a1.93,1.93,0,0,0-3.54.64l.83.23a9.82,9.82,0,0,1,.68-2.21,8.22,8.22,0,0,0,.78-1.64c0-.17-.12-.37-.31-.31Z"/><path class="cls-2" d="M795.71,49.49a31.77,31.77,0,0,0,19.56-9.21,11.43,11.43,0,0,0,1.11,3.22,3.86,3.86,0,0,0,2.65,2,2.36,2.36,0,0,0,2.63-1.65c.29,3.33,1.44,10.29,4.29,10.44.35-3.74-.17-8.66,0-12.41a2.82,2.82,0,0,0-.53-2.19,2.69,2.69,0,0,0-1.26-.58c-6-1.5-12.18-1.34-18.31-1.17-2.14.06-4.39.15-6.22,1.26a8.32,8.32,0,0,0-3.35,4.57,24.74,24.74,0,0,0-.94,5.7"/><g class="cls-8"><path class="cls-9" d="M818.83,57.31a6.43,6.43,0,0,0-5.75,1.57,1.13,1.13,0,0,0-.43.75c0,.59.74.85,1.34.89a16.44,16.44,0,0,0,3.78-.15,4.06,4.06,0,0,0,1.51-.47,1.65,1.65,0,0,0,.84-1.28,1.24,1.24,0,0,0-1.84-1.13"/></g><path class="cls-7" d="M808,53.77a21.69,21.69,0,0,0-.07,4.71c0,1.44-.29,3.59.2,5s1.73.75,2.36-.18c.26-.39-.34-.85-.65-.5-1.08,1.24-1.07-1.39-1.08-1.95q0-1.16-.05-2.33a21.68,21.68,0,0,0-.33-4.71.2.2,0,0,0-.38,0Z"/><g class="cls-8"><path class="cls-9" d="M811,66.7c.49-.35.5-1,.92-1.43s1.15-.47,1.4-1a.64.64,0,0,0-.09-.73c-.63-.78-2,0-2.45.57s-1.22,1.79-.51,2.47a.61.61,0,0,0,.73.09Z"/></g><g class="cls-8"><path class="cls-9" d="M810.83,67.89a6.42,6.42,0,0,0,1.48-.32,5.34,5.34,0,0,0,1.16-.69A3.56,3.56,0,0,0,815,64.4c0-.66-1-1.2-1.44-.6s-.63,1.35-1.11,2a4.1,4.1,0,0,1-1.86,1.4c-.48.13-.27.82.2.73Z"/></g><path class="cls-7" d="M809.21,67.66a8.31,8.31,0,0,0,5.8-5.12.35.35,0,0,0-.63-.27,14,14,0,0,1-2.23,2.94A11.57,11.57,0,0,1,809,67.06c-.35.15-.09.67.25.6Z"/><path class="cls-7" d="M811.38,55.21c2-2.93,4.69-4,7.79-1.82.42.29.94-.37.55-.72-2.69-2.39-8-1.52-8.84,2.32a.28.28,0,0,0,.51.21Z"/><path class="cls-7" d="M797.85,55.52c1-1,1.7-2,3.21-2.08a3.62,3.62,0,0,1,3.59,2.27c.3.63,1.24.08.94-.55a4.73,4.73,0,0,0-4.38-2.71c-1.56.06-3.57,1.12-3.82,2.8a.28.28,0,0,0,.46.27Z"/><path class="cls-10" d="M714.79,147.12c.37.46-1.16-50.7,23.38-57.08,15-3.9,36.05,1.09,36.05,1.09s17.56,9.67,18.66,57.69Z"/><path class="cls-7" d="M738.6,26.69a18.2,18.2,0,0,0-7.22-.86c-2.41.37-4.81,2-5.31,4.37-.35,1.65.24,3.43-.26,5-.92,3-4.67,3.66-7.35,5.23a10.38,10.38,0,0,0-4.08,12.77c.89,2,2.44,3.73,2.7,5.89s-.91,4.34-1.49,6.5a14.16,14.16,0,0,0,4.87,14.16A17.87,17.87,0,0,0,735.4,83.1c3.65-.78,7.25-2.58,10.94-2,3.85.59,7.6,3.7,11.2,2.22,1.19-.49,2.28-1.48,3.56-1.34a7,7,0,0,1,2.68,1.44c2.61,1.6,6.13.84,8.59-1a12,12,0,0,0,4.51-11.68c-.69-3.51-2.94-6.58-3.51-10.11-.62-3.86.86-7.72,1.35-11.6s-.54-8.59-4.16-10.09c-2.77-1.14-6.3,0-8.68-1.87-2-1.54-2.21-4.42-3-6.83a11.87,11.87,0,0,0-8.51-8,10,10,0,0,0-10.54,4.43"/><path class="cls-11" d="M733.17,47.59c-1,10.33-1.9,34.06,11,33.07l.18,8-7.73,4.2s3.81,10.2,20.74,7.8,16.32-9.54,16.32-9.54l-10.8-3.11-.67-19.43s5.07.26,4.78-6.14c-.27-6-5.71-5.23-5.71-5.23l-.79-15-22.2.51A5.32,5.32,0,0,0,733.17,47.59Z"/><path class="cls-7" d="M728,57.1A6.78,6.78,0,0,0,736.46,49a7.46,7.46,0,0,0,11.64-6.23,6.83,6.83,0,0,0,8.84,2.15,11.46,11.46,0,0,0,2.72,9.37,4.92,4.92,0,0,0,3.8,1.94c2.3-.17,3.64-2.81,3.63-5.12,0-4.43-3.33-8.36-7.36-10.18s-8.64-1.89-13-1.42-9.19,1.58-12.8,4.38-5.93,7.63-4.68,12"/><path class="cls-12" d="M762,56.74c2.39-1.12,2.48-6.28,2.63-8.61a29.15,29.15,0,0,0-1.57-11.36.93.93,0,0,0-1.78.54,31.1,31.1,0,0,1,1.48,10.86,32.82,32.82,0,0,1-.87,5.76c-.27,1.14-.59,1.72-.09,2.76a.15.15,0,0,0,.2,0Z"/><path class="cls-7" d="M743.63,58.39a42.79,42.79,0,0,0-.5,4.88c-.09,1.32-.44,3,0,4.34s1.87,2.14,3,1.13a.38.38,0,0,0-.38-.62c-2.55,1-1.75-3.87-1.71-4.87a41.85,41.85,0,0,0,0-4.81c0-.23-.38-.3-.42,0Z"/><path class="cls-7" d="M745.57,71.54c3.07.29,6.33-2,6.41-5.27a.37.37,0,0,0-.73-.08,5.41,5.41,0,0,1-5.68,5c-.23,0-.21.33,0,.35Z"/><path class="cls-9" d="M753.73,60.82a5.23,5.23,0,0,0-3.31,1.43,1.1,1.1,0,0,0-.44.92c.07.38.46.59.82.72a6,6,0,0,0,4.3-.13c.61-.26,1.26-.74,1.25-1.41a1.35,1.35,0,0,0-.9-1.15,4,4,0,0,0-1.53-.19"/><path class="cls-7" d="M745.83,54.15c1.19-.07,2.22-.94,3.37-1.28a29,29,0,0,1,4.46-.45.41.41,0,0,0,.09-.8,8,8,0,0,0-4.59.21c-1.18.33-2.95.84-3.51,2a.2.2,0,0,0,.17.29Z"/><path class="cls-5" d="M755.21,56.52a4.66,4.66,0,0,0-7.91,1.63,10.26,10.26,0,0,0,3.95.72,3.7,3.7,0,0,0,3.22-2.08"/><path class="cls-7" d="M747.1,58.21c1.35-.68,1.59-2.34,3.3-2.74,1.55-.37,3.42.71,4.69,1.55.47.31,1-.43.58-.79-1.34-1.13-3.53-2.17-5.31-1.83-1.5.28-3.77,1.93-3.54,3.67a.19.19,0,0,0,.28.15Z"/><path class="cls-7" d="M752.53,56a2.31,2.31,0,0,1-.47,2.31,1.53,1.53,0,0,1-2,.14,2.27,2.27,0,0,1-.73-2.23,2.38,2.38,0,0,1,1.75-1.33A1.19,1.19,0,0,1,752.53,56Z"/><path class="cls-5" d="M740.79,58.87a3.87,3.87,0,0,0-3.42-2.39,4.41,4.41,0,0,0-3.71,2.33,7.94,7.94,0,0,0,3.19,1.55A3.24,3.24,0,0,0,740.1,59"/><path class="cls-7" d="M733.5,58.83c1.21-.34,1.71-1.69,3.06-1.94,1.56-.28,3,1.18,3.9,2.32.39.48,1.19,0,.84-.52-.87-1.41-2.6-3-4.37-3-1.46.06-3.63,1.35-3.67,2.93a.18.18,0,0,0,.24.17Z"/><path class="cls-7" d="M738.64,57.77a2.64,2.64,0,0,1-.95,2.19,1.21,1.21,0,0,1-1.75-.28,2.56,2.56,0,0,1-.09-2.36,2.19,2.19,0,0,1,1.81-1C738.87,56.39,738.64,57.77,738.64,57.77Z"/><path class="cls-7" d="M733.51,55.54a9,9,0,0,1,4.19-1.09,13.36,13.36,0,0,1,3.78.94.36.36,0,0,0,.33-.6c-2.33-1.9-6.29-1.37-8.53.36a.22.22,0,0,0,.24.38Z"/><path class="cls-7" d="M763.21,58.92c-1.42.56-2,2.66-1.89,4a.43.43,0,0,0,.84.09c.24-1,1.75-1.38,2-.17.23,1-.67,1.15-1.3,1.35-.27.09-.38.54-.07.66,1.6.64,2.86-1.44,2-2.77a1.92,1.92,0,0,0-3.5.72l.83.21a9.73,9.73,0,0,1,.63-2.2,8.14,8.14,0,0,0,.74-1.64c0-.17-.13-.37-.31-.3Z"/><path class="cls-13" d="M724,154c.38,0-.51-4.92-.15-4.81.88.27-1.4-52.07-25-57.63-15.07-3.55-33.64,2.26-33.64,2.26s-19.72,9.72-19.72,57.75Z"/><path class="cls-14" d="M662.79,48.4c-1.23,10.31-2.68,34,10.28,33.31v8l-7.82,4s3.58,10.28,20.56,8.27,16.54-9.16,16.54-9.16l-10.73-3.35-.22-19.44s5.06.37,4.92-6c-.13-6-5.59-5.36-5.59-5.36l-.32-10.8a4.3,4.3,0,0,0-4.3-4.17h-18A5.31,5.31,0,0,0,662.79,48.4Z"/><path class="cls-15" d="M690.72,58.69l.68,0s.9,14.61.12,16.77-13.13,12.28-20.45,8.79c-8.42-4-8.55-15.43-8.55-15.43a23.73,23.73,0,0,1-.51-3.88c0-.51,4,3.06,5.1,3.65,1.88,1,4.24.58,6.34.38s4.45-.66,6.56-.8a16.25,16.25,0,0,0,4.76-1.37,8,8,0,0,0,3.85-3.48,23.71,23.71,0,0,0,2-4.88"/><path class="cls-15" d="M676,56.32c1.28,0,2.43-.89,3.68-1.2a34.16,34.16,0,0,1,4.86-.34.41.41,0,0,0,.11-.79,9.22,9.22,0,0,0-5,.1c-1.28.3-3.14.74-3.85,1.94a.19.19,0,0,0,.17.29Z"/><path class="cls-5" d="M684.88,57.89a4.66,4.66,0,0,0-7.94,1.45,10.25,10.25,0,0,0,3.93.81c1.34-.07,3.49-1,4-2.26"/><path class="cls-15" d="M682.77,57.29a2.31,2.31,0,0,1-.52,2.3,1.53,1.53,0,0,1-2,.1,2.27,2.27,0,0,1-.68-2.24,2.37,2.37,0,0,1,1.78-1.29A1.19,1.19,0,0,1,682.77,57.29Z"/><path class="cls-5" d="M670.6,59.9a3.87,3.87,0,0,0-3.36-2.47,4.41,4.41,0,0,0-3.76,2.24,7.93,7.93,0,0,0,3.15,1.63c1.16.21,3.38-.34,4.13-1.46"/><path class="cls-15" d="M668.84,58.75a2.64,2.64,0,0,1-1,2.17,1.21,1.21,0,0,1-1.74-.32,2.56,2.56,0,0,1,0-2.36,2.19,2.19,0,0,1,1.83-.91C669.09,57.37,668.84,58.75,668.84,58.75Z"/><path class="cls-15" d="M663,56.92a9,9,0,0,1,4.21-1A13.37,13.37,0,0,1,671,57a.36.36,0,0,0,.35-.59c-2.29-2-6.25-1.51-8.54.17a.22.22,0,0,0,.23.39Z"/><path class="cls-7" d="M693.7,61.59c-.18.49-.5.91-.73,1.39a7.55,7.55,0,0,0-.58,2l-.55-.15a1.59,1.59,0,0,1,2.85-.64c.76,1.08-.2,2.87-1.58,2.41-.21-.07-.25-.41,0-.47.62-.13,1.45-.33,1.25-1.26-.25-1.16-1.72-.86-2,.11a.28.28,0,0,1-.56-.08c0-1.21.48-2.85,1.63-3.45.12-.06.29,0,.24.19Z"/><g class="cls-8"><path class="cls-9" d="M684.34,61.69a6.37,6.37,0,0,0-5.7,1.56,1.12,1.12,0,0,0-.43.74c0,.59.74.84,1.32.88a16.29,16.29,0,0,0,3.74-.14,4,4,0,0,0,1.5-.47,1.63,1.63,0,0,0,.83-1.27,1.23,1.23,0,0,0-1.82-1.12"/></g><path class="cls-7" d="M677,59.61c2-2.9,4.64-3.93,7.71-1.8.42.29.93-.37.55-.71-2.67-2.37-7.9-1.51-8.76,2.3a.28.28,0,0,0,.5.21Z"/><path class="cls-7" d="M663.11,59.66c.24-1.66,2.24-2.71,3.78-2.77a4.69,4.69,0,0,1,4.34,2.69c.3.62-.63,1.17-.93.54a3.59,3.59,0,0,0-3.55-2.25c-1.5.12-2.18,1.11-3.18,2.06a.27.27,0,0,1-.45-.26Z"/><path class="cls-7" d="M679.16,69.94c-1.53,1.72-4.59,3.1-6.7,1.48a.29.29,0,0,1,.22-.52,8.4,8.4,0,0,0,3.28.33,5.25,5.25,0,0,0,3-1.53c.15-.16.39.08.24.24Z"/><path class="cls-7" d="M674,58.18a21.59,21.59,0,0,1,.32,4.66q0,1.15.05,2.31c0,.55,0,3.16,1.07,1.93.3-.35.9.11.64.49-.62.92-1.85,1.51-2.34.18s-.14-3.2-.18-4.52a23.35,23.35,0,0,1,.06-5,.19.19,0,0,1,.37,0Z"/><path class="cls-16" d="M662,56.25c-3-5.4-6.57-11.93-3.91-17.52s10-9.59,16.07-10.65a20.29,20.29,0,0,1,17.36,5.18c4.39,4.37,7,11.13,6,17.24a11.94,11.94,0,0,1-6.76,8.66L675.7,46.52Z"/><path class="cls-17" d="M693.74,54.48c-6.9-8.59-15.17-15.91-23.78-22.71-.65-.51.21-1.65.89-1.16,9,6.52,16.61,14.58,23.54,23.22.37.46-.28,1.12-.65.65Z"/><path class="cls-17" d="M665.36,34.68a.06.06,0,0,1,0-.12.06.06,0,0,1,0,.12Z"/><path class="cls-17" d="M665,34.44a.09.09,0,0,1,0-.18.09.09,0,0,1,0,.18Z"/><path class="cls-17" d="M676.2,47.08c-4.52-4-9.08-8.15-13.21-12.55a.53.53,0,0,1,.74-.74c4.52,4,8.81,8.42,12.94,12.81a.34.34,0,0,1-.48.48Z"/><path class="cls-17" d="M669.17,40.71c-1.75,1.3-3.44,2.76-5.1,4.17-1.33,1.13-2.66,2.77-4.27,3.46a.38.38,0,0,1-.52-.52c.82-1.74,2.92-3.1,4.4-4.27a56.64,56.64,0,0,1,5.12-3.47c.41-.26.74.36.37.64Z"/><path class="cls-17" d="M696.6,47.22c-5.85-6.39-11.27-12.91-18.27-18.13-.77-.58,0-1.89.76-1.3a87.66,87.66,0,0,1,18.34,18.79c.35.5-.43,1.09-.84.65Z"/><path class="cls-18" d="M579.88,155.38c.36.47-2.57-62.06,22.1-67.88,15.07-3.55,36,1.91,36,1.91s17.34,10.07,17.34,58.1Z"/><path class="cls-18" d="M583.92,113c.4.51-.11-19.79,16-24.9s39.34,2.08,39.34,2.08,11.28,2.9,12.86,22.83Z"/><path class="cls-7" d="M610.62,50.61a6.88,6.88,0,0,0-11.72-5.06,5.86,5.86,0,0,0-1.71,5.34,7.31,7.31,0,0,0,2.45,3.68,10.37,10.37,0,0,0,5.27,2.6,7,7,0,0,0,5.58-1.51,5.31,5.31,0,0,0,1.67-5.38"/><path class="cls-19" d="M625.9,32.23c7.62,0,13.23,7.93,13.37,11.65.42,11,2.3,32.1-11.21,32.49l-.12,9,10.41,4S633,101.88,614.48,99.68s-18.55-10.13-18.55-10.13l11.74-3.82.22-19.44s-5.52.41-5.37-6.59c.15-6.58,6.1-5.86,6.1-5.86l.27-9.2c.21-6.29,6.72-12.48,17-12.41"/><path class="cls-7" d="M624.69,51.26c-1.4,0-2.65-1-4-1.31-1.81-.44-3.5-.19-5.3-.38a.44.44,0,0,1-.12-.87,10.07,10.07,0,0,1,5.42.11c1.4.33,3.43.81,4.21,2.12a.21.21,0,0,1-.18.32Z"/><path class="cls-5" d="M615.26,52a6.17,6.17,0,0,1,4.93-.63,5,5,0,0,1,3.49,3,14.21,14.21,0,0,1-4.34.08c-1.45-.26-3.65-1.37-4.08-2.48"/><path class="cls-7" d="M618,51.82a2,2,0,0,0,.56,2.21,1.8,1.8,0,0,0,2.16.09,2,2,0,0,0,.73-2.15,2.5,2.5,0,0,0-1.91-1.24A1.22,1.22,0,0,0,618,51.82Z"/><path class="cls-7" d="M605.76,56.05a8.9,8.9,0,0,0,.84,1.78,10.6,10.6,0,0,1,.74,2.39l.9-.25a2.09,2.09,0,0,0-3.83-.7c-.89,1.48.53,3.71,2.26,3,.33-.14.2-.63-.09-.72-.69-.2-1.69-.35-1.46-1.44.28-1.33,1.94-1,2.23.13a.47.47,0,0,0,.91-.12c.05-1.52-.59-3.79-2.17-4.37-.2-.07-.37.15-.33.33Z"/><g class="cls-8"><path class="cls-9" d="M615.59,57.13a7,7,0,0,1,6.22,1.7,1.22,1.22,0,0,1,.47.81c0,.64-.81.92-1.45,1a17.76,17.76,0,0,1-4.09-.16,4.39,4.39,0,0,1-1.64-.51,1.78,1.78,0,0,1-.91-1.39,1.34,1.34,0,0,1,2-1.22"/></g><path class="cls-7" d="M623.65,54.86c-2.14-3.17-5.07-4.29-8.42-2-.46.32-1-.4-.6-.78,2.92-2.59,8.63-1.65,9.57,2.51a.3.3,0,0,1-.55.23Z"/><path class="cls-7" d="M638.29,50.49c-1.25.42-2.65,0-4,.09-1.74.18-3.17,1-4.83,1.39a.44.44,0,0,1-.37-.78A9.09,9.09,0,0,1,634,49.52c1.35-.15,3.29-.37,4.39.61a.22.22,0,0,1-.06.36Z"/><path class="cls-5" d="M630.13,54.26A5.69,5.69,0,0,1,634.31,52a4.6,4.6,0,0,1,4,1.71,12.87,12.87,0,0,1-3.83,1.51c-1.37.23-3.67-.09-4.39-1"/><path class="cls-7" d="M632.49,53.24a2.06,2.06,0,0,0,1.18,1.9,1.63,1.63,0,0,0,1.95-.62,2.14,2.14,0,0,0,0-2.27,2.26,2.26,0,0,0-2.08-.54A1.23,1.23,0,0,0,632.49,53.24Z"/><path class="cls-7" d="M638.48,54.23c-2.88-2.28-5.83-2.38-8.09.92-.31.45-1,0-.77-.54,1.79-3.4,7.15-4.4,9.28-.78a.29.29,0,0,1-.41.4Z"/><path class="cls-7" d="M627.27,53.3a23.56,23.56,0,0,0-.35,5.09q0,1.26-.06,2.52c0,.6,0,3.45-1.17,2.11-.33-.38-1,.12-.7.54.67,1,2,1.65,2.55.19s.16-3.49.2-4.94a25.5,25.5,0,0,0-.07-5.51.21.21,0,0,0-.41,0Z"/><path class="cls-7" d="M626.32,31.81S606.94,30.2,607.69,49l15.16-1.14V42.9l2,4.83,15,.19S641.08,31.25,626.32,31.81Z"/><g class="cls-8"><path class="cls-9" d="M621.73,65.91a22,22,0,0,0,2.44.91c.73.18,1.47-.83.8-1.37a3.52,3.52,0,0,0-3.24-.6.55.55,0,0,0,0,1.06Z"/></g><g class="cls-8"><path class="cls-9" d="M620.65,66.72a4.64,4.64,0,0,0,2.11,1.52,2.57,2.57,0,0,0,2.48-.27.62.62,0,0,0-.27-1,18,18,0,0,0-1.81-.09,3.2,3.2,0,0,1-1.8-.83c-.43-.47-1.14.23-.71.71Z"/></g><path class="cls-7" d="M620.68,64.27a5,5,0,0,0,2.15,2.43,4.11,4.11,0,0,0,3,.52.32.32,0,0,0,0-.61,12.45,12.45,0,0,1-2.58-.7A6.13,6.13,0,0,1,621,64.07a.2.2,0,0,0-.35.21Z"/><g class="cls-8"><path class="cls-9" d="M632.25,58.88a7,7,0,0,1,6.22,1.7,1.22,1.22,0,0,1,.47.81c0,.64-.81.92-1.45,1a17.77,17.77,0,0,1-4.09-.16,4.39,4.39,0,0,1-1.64-.51,1.78,1.78,0,0,1-.91-1.39,1.34,1.34,0,0,1,2-1.22"/></g><path class="cls-20" d="M606.63,46.07A53.88,53.88,0,0,0,608,39.58a16.17,16.17,0,0,0,.4-5.19.5.5,0,0,0-.9-.12,16.15,16.15,0,0,0-1,5.1,53.88,53.88,0,0,0-.43,6.62.3.3,0,0,0,.58.08Z"/><path class="cls-20" d="M604.28,46.23c-1-3.21-2.4-6.35-3.7-9.46-.29-.68-1.41-.39-1.12.31,1.3,3.16,2.58,6.39,4.15,9.43a.37.37,0,0,0,.68-.29Z"/><path class="cls-18" d="M753.95,179c.39.5.18-35.52,15.94-40.53s35.7,1.27,35.7,1.27,19.16,5.79,19.16,39.25Z"/><path class="cls-19" d="M808.79,92.16c1.32,11,2.86,36.32-11,35.57v8.59l9.38,3.74s-4.84,11.53-23,9.38-15.46-10.63-15.46-10.63l9.19-2.87.3-20.62s-5.4.4-5.25-6.44c.14-6.43,6-5.73,6-5.73l.34-11.54a4.59,4.59,0,0,1,4.59-4.45h19.25A5.68,5.68,0,0,1,808.79,92.16Z"/><path class="cls-12" d="M794.68,100.62c-1.37,0-2.59-1-3.93-1.28-1.77-.43-3.43-.19-5.19-.37a.43.43,0,0,1-.11-.85,9.85,9.85,0,0,1,5.3.11c1.37.32,3.35.79,4.11,2.07a.21.21,0,0,1-.18.31Z"/><path class="cls-5" d="M785.21,102.3a5,5,0,0,1,8.48,1.55,11,11,0,0,1-4.2.87c-1.44-.08-3.72-1.09-4.28-2.41"/><path class="cls-21" d="M787.45,101.66a2.47,2.47,0,0,0,.55,2.46,1.64,1.64,0,0,0,2.15.11,2.42,2.42,0,0,0,.72-2.39,2.53,2.53,0,0,0-1.9-1.38A1.27,1.27,0,0,0,787.45,101.66Z"/><path class="cls-5" d="M800.46,104.44a4.13,4.13,0,0,1,3.59-2.63,4.71,4.71,0,0,1,4,2.39,8.48,8.48,0,0,1-3.37,1.74c-1.24.22-3.61-.36-4.41-1.56"/><path class="cls-21" d="M802.33,103.22a2.82,2.82,0,0,0,1.07,2.32,1.29,1.29,0,0,0,1.86-.34,2.73,2.73,0,0,0,0-2.52,2.34,2.34,0,0,0-2-1C802.06,101.75,802.33,103.22,802.33,103.22Z"/><path class="cls-12" d="M808.58,101.27a9.63,9.63,0,0,0-4.5-1.06,14.26,14.26,0,0,0-4,1.1.38.38,0,0,1-.37-.63c2.45-2.08,6.68-1.62,9.12.18a.24.24,0,0,1-.24.41Z"/><path class="cls-7" d="M776.17,105.31A8.69,8.69,0,0,0,777,107a10.38,10.38,0,0,1,.72,2.34l.88-.24a2,2,0,0,0-3.75-.68c-.87,1.44.52,3.63,2.21,2.91.32-.14.2-.62-.09-.71-.68-.2-1.65-.34-1.43-1.41.27-1.3,1.89-.94,2.18.13a.46.46,0,0,0,.89-.12c.05-1.48-.58-3.71-2.12-4.27-.2-.07-.36.14-.32.32Z"/><path class="cls-12" d="M810.25,98.08a33.62,33.62,0,0,1-20.69-9.74,12.1,12.1,0,0,1-1.17,3.41,4.09,4.09,0,0,1-2.81,2.09,2.5,2.5,0,0,1-2.79-1.75c-.3,3.53-1.53,10.89-4.55,11-.37-4,.18-9.16,0-13.13a3,3,0,0,1,.56-2.32,2.85,2.85,0,0,1,1.33-.61c6.3-1.59,12.88-1.42,19.38-1.24,2.26.06,4.65.16,6.58,1.34A8.8,8.8,0,0,1,809.65,92a26.18,26.18,0,0,1,1,6"/><g class="cls-8"><path class="cls-9" d="M785.78,106.36a6.8,6.8,0,0,1,6.08,1.66,1.2,1.2,0,0,1,.46.79c0,.63-.79.9-1.41.94a17.37,17.37,0,0,1-4-.15,4.3,4.3,0,0,1-1.6-.5,1.74,1.74,0,0,1-.89-1.36,1.31,1.31,0,0,1,1.95-1.19"/></g><path class="cls-7" d="M793.66,104.14c-2.09-3.1-5-4.19-8.24-1.92-.45.31-1-.4-.59-.76,2.85-2.53,8.44-1.61,9.36,2.46a.29.29,0,0,1-.53.23Z"/><path class="cls-7" d="M808.46,104.19c-.26-1.77-2.39-2.9-4-3a5,5,0,0,0-4.63,2.87c-.32.66.67,1.24,1,.58a3.83,3.83,0,0,1,3.8-2.4c1.6.13,2.33,1.19,3.4,2.2a.29.29,0,0,0,.48-.28Z"/><path class="cls-7" d="M790.79,114.21c1.24,2.15,4.18,4.26,6.76,3a.31.31,0,0,0-.15-.57,9.7,9.7,0,0,1-3.25-.26,5.7,5.7,0,0,1-3-2.33.18.18,0,0,0-.32.19Z"/><g class="cls-22"><path class="cls-12" d="M779,102.87a25.33,25.33,0,0,0,2.14,5.21,8.51,8.51,0,0,0,4.12,3.72c1.71.65,3.6.52,5.42.64,2.26.14,4.47.66,6.72.88a11.92,11.92,0,0,0,6.62-.93c1.22-.63,2.62-1.61,3.82-1a2.5,2.5,0,0,1,1.19,2.52c-1.27,7.22-2.34,11.21-7.58,13.51s-12.64,1.71-17.83-.7c-2-.94-4-2.28-4.89-4.35a10.9,10.9,0,0,1-.5-4.41q.2-8.15.41-16.31"/></g><path class="cls-7" d="M796.86,102.61a23,23,0,0,0-.35,5q0,1.23-.06,2.46c0,.59,0,3.37-1.14,2.06-.32-.37-1,.12-.68.53.66,1,2,1.61,2.49.19s.15-3.42.2-4.83a24.93,24.93,0,0,0-.06-5.39.21.21,0,0,0-.4,0Z"/><path class="cls-23" d="M797.85,78.57c3.65,1.17,6.88,4.38,6.89,8.21L778,98.25c-1.31-.93-1.8-2.92-1.75-5.2A15.17,15.17,0,0,1,786.36,79.3C789.66,78.07,793.82,77.28,797.85,78.57Z"/><path class="cls-16" d="M778,98.25s31.75-21.74,37.81-15c4.4,4.89-5.21,13-5.21,13l-.17-.63a7.57,7.57,0,0,0-8.69-5.51,8.79,8.79,0,0,0-1.5.44C794.56,92.83,778,98.25,778,98.25Z"/><path class="cls-24" d="M708.76,179c.36.47-2.92-35.74,14.93-39,15.23-2.76,36,1.91,36,1.91S773,142,773,179Z"/><path class="cls-25" d="M756.95,142.74c4.51-2.89,7.69-8.12,5.94-13.57a9.92,9.92,0,0,0-1.88-3.34c-1.7-2.06-2.73-3.48-2.18-6.27s1.76-5.8-.2-8.37c-.58-.76-2.06-.38-1.69.71,1,2.86-.3,5.36-.61,8.2a7.31,7.31,0,0,0,2.34,6.36c4.94,5.12,2.74,11.42-2.23,15.61-.37.31.11.92.51.66Z"/><path class="cls-25" d="M724.5,141a22,22,0,0,1-5.34-1.46,7.41,7.41,0,0,1-3.88-3.78c-1.37-3.46,1-7.18,1.58-10.85.84-5.05-1.64-10.07-1.76-15.19-.09-3.86,1.16-7.61,2.4-11.27.9-2.66,1.85-5.4,3.76-7.46A15.62,15.62,0,0,1,728.36,87c4.48-1.34,9.64-1.68,13.53.9,1.36.9,2.57,2.15,4.16,2.48,1.41.29,2.89-.2,4.31.05,2.74.49,4.26,3.49,4.7,6.24s.26,5.67,1.48,8.17c1.37,2.79,4.43,5,4.35,8.07-.1,3.76-4.77,6-5.42,9.68-.37,2.08.63,4.14,1.75,5.92s2.44,3.53,2.84,5.6a8.5,8.5,0,0,1-3.34,8,15,15,0,0,1-8.49,2.83"/><path class="cls-4" d="M720.72,97.65C719.49,108,718,131.66,731,131v8l-7.82,4s3.58,10.28,20.56,8.27,16.54-9.16,16.54-9.16l-10.73-3.35-.22-19.44s5.06.37,4.92-6c-.13-6-5.59-5.36-5.59-5.36l-.32-10.8A4.3,4.3,0,0,0,744,93H726A5.32,5.32,0,0,0,720.72,97.65Z"/><path class="cls-25" d="M733.94,105.57c1.28,0,2.43-.89,3.68-1.2a34.16,34.16,0,0,1,4.86-.34.41.41,0,0,0,.11-.79,9.22,9.22,0,0,0-5,.1c-1.28.3-3.14.74-3.85,1.94a.19.19,0,0,0,.17.29Z"/><path class="cls-5" d="M742.82,107.14a4.66,4.66,0,0,0-7.94,1.45,10.25,10.25,0,0,0,3.93.81c1.34-.07,3.49-1,4-2.26"/><path class="cls-26" d="M740.15,106.54a2.31,2.31,0,0,1-.52,2.3,1.53,1.53,0,0,1-2,.1,2.27,2.27,0,0,1-.68-2.24,2.37,2.37,0,0,1,1.78-1.29A1.19,1.19,0,0,1,740.15,106.54Z"/><path class="cls-5" d="M728.53,109.15a3.87,3.87,0,0,0-3.36-2.47,4.41,4.41,0,0,0-3.76,2.24,7.94,7.94,0,0,0,3.15,1.63c1.16.21,3.38-.34,4.13-1.46"/><path class="cls-26" d="M726.41,108a2.64,2.64,0,0,1-1,2.17,1.21,1.21,0,0,1-1.74-.32,2.55,2.55,0,0,1,0-2.36,2.19,2.19,0,0,1,1.83-.91C726.66,106.63,726.41,108,726.41,108Z"/><path class="cls-25" d="M720.92,106.17a9,9,0,0,1,4.21-1,13.36,13.36,0,0,1,3.76,1,.36.36,0,0,0,.34-.59c-2.29-2-6.25-1.51-8.54.17a.22.22,0,0,0,.23.39Z"/><path class="cls-7" d="M749.51,109.66c-1.44.53-2,2.61-2,4a.43.43,0,0,0,.84.11c.27-1,1.78-1.34,2-.12.21,1-.7,1.13-1.34,1.32-.27.08-.39.53-.09.66,1.58.67,2.89-1.37,2.07-2.73a1.92,1.92,0,0,0-3.51.64l.82.23a9.74,9.74,0,0,1,.68-2.19,8.16,8.16,0,0,0,.77-1.63c0-.17-.12-.37-.3-.3Z"/><path class="cls-25" d="M719.36,103.19a31.48,31.48,0,0,0,19.38-9.12,11.32,11.32,0,0,0,1.1,3.19,3.82,3.82,0,0,0,2.63,2,2.34,2.34,0,0,0,2.61-1.64c.29,3.3,1.43,10.19,4.26,10.34.34-3.7-.17-8.58,0-12.3a2.8,2.8,0,0,0-.53-2.17,2.67,2.67,0,0,0-1.25-.57c-5.9-1.49-12.07-1.33-18.14-1.16-2.12.06-4.35.15-6.16,1.25a8.24,8.24,0,0,0-3.32,4.53,24.52,24.52,0,0,0-.93,5.64"/><g class="cls-8"><path class="cls-9" d="M742.28,110.95a6.37,6.37,0,0,0-5.7,1.56,1.12,1.12,0,0,0-.43.74c0,.59.74.84,1.32.88a16.29,16.29,0,0,0,3.74-.14,4,4,0,0,0,1.5-.47,1.63,1.63,0,0,0,.83-1.27,1.23,1.23,0,0,0-1.82-1.12"/></g><path class="cls-7" d="M731.53,107.43a21.51,21.51,0,0,0-.07,4.66c0,1.43-.29,3.56.2,4.91s1.72.75,2.34-.18c.25-.38-.33-.84-.64-.49-1.07,1.23-1.06-1.38-1.07-1.93q0-1.15-.05-2.31a21.53,21.53,0,0,0-.32-4.66.19.19,0,0,0-.37,0Z"/><g class="cls-8"><path class="cls-9" d="M734.56,120.26c.48-.35.5-1,.92-1.41s1.14-.47,1.39-1a.63.63,0,0,0-.09-.72c-.62-.77-1.93,0-2.42.56s-1.21,1.77-.51,2.45a.6.6,0,0,0,.72.09Z"/></g><g class="cls-8"><path class="cls-9" d="M734.36,121.43a6.39,6.39,0,0,0,1.47-.31,5.31,5.31,0,0,0,1.15-.69,3.52,3.52,0,0,0,1.55-2.46c0-.66-.95-1.19-1.43-.59s-.63,1.34-1.1,1.94a4.06,4.06,0,0,1-1.84,1.39c-.47.13-.27.81.2.72Z"/></g><path class="cls-7" d="M732.74,121.2a8.24,8.24,0,0,0,5.75-5.07.35.35,0,0,0-.63-.27,13.89,13.89,0,0,1-2.21,2.91,11.45,11.45,0,0,1-3.16,1.83c-.35.15-.09.67.25.59Z"/><path class="cls-7" d="M734.89,108.86c2-2.9,4.64-3.93,7.71-1.8.42.29.93-.37.55-.71-2.67-2.37-7.9-1.51-8.76,2.3a.28.28,0,0,0,.5.21Z"/><path class="cls-7" d="M721.49,109.17c1-.95,1.69-1.94,3.18-2.06a3.59,3.59,0,0,1,3.56,2.25c.3.62,1.23.08.93-.54a4.69,4.69,0,0,0-4.34-2.69c-1.54.06-3.54,1.11-3.78,2.77a.27.27,0,0,0,.45.26Z"/><path class="cls-25" d="M717.73,100c-1.76,5.28-5.22,9.9-6,15.53a12.14,12.14,0,0,0,.8,6.55,18.22,18.22,0,0,0,1.62,2.63,4.57,4.57,0,0,1,.35,5.23c-1.66,3.54-1.86,7.46.93,10.57a8.14,8.14,0,0,0,11,1c.61-.5,0-1.66-.79-1.36-4.66,1.86-10.69.35-10.69-5.66,0-3.53,3.27-5.9,1.43-9.5-1-1.94-2.46-3.35-2.89-5.59a14.47,14.47,0,0,1,.52-6.6c1.23-4.35,3.53-8.16,4.16-12.71a.23.23,0,0,0-.44-.12Z"/><path class="cls-27" d="M745.79,94a8.1,8.1,0,0,1,7.05,5c.94,2.44.59,5.12,1.17,7.64a7.68,7.68,0,0,0,2.66,4.39c1.24,1,3.17,2,3,4s-1.65,3.64-3,5.15c-.48.55.27,1.33.81.81,2-2,4.1-4.7,2.88-7.67a7.69,7.69,0,0,0-2.35-2.72,8.24,8.24,0,0,1-3-5c-.64-3.09-.33-6.38-2.43-9a8.25,8.25,0,0,0-6.86-3,.18.18,0,0,0,0,.36Z"/><path class="cls-27" d="M747.39,95c3.59,3.15,4.69,6.89,4.77,11.52a.31.31,0,0,0,.62,0c.35-4.31-2.12-8.86-5.28-11.63-.07-.06-.18,0-.11.11Z"/><path class="cls-27" d="M739,90.51c-3.64,5.16-9.13,7.76-14.9,9.86-4.3,1.57-6.55,4.3-5.94,9,.39,3,1.94,5.74,2.16,8.77.25,3.57-1.73,5.72-3.72,8.39-2.55,3.42-3.11,8,.36,11a.35.35,0,0,0,.5-.5,7.58,7.58,0,0,1-1-8.44c1.12-2.07,2.94-3.68,3.95-5.81,2.12-4.48-.72-9-1.2-13.52-.39-3.66,1-6.26,4.44-7.62,2-.78,4-1.41,5.95-2.32,4-1.9,7.63-4.62,9.77-8.6a.21.21,0,0,0-.35-.21Z"/><path class="cls-27" d="M720.51,140.2a.06.06,0,0,0,0-.13.06.06,0,0,0,0,.13Z"/><path class="cls-13" d="M811.08,179c.36.47-2.62-36.18,18.3-39,10.82-1.45,25.56-.73,32.57.31,2.93.43,7.18,5.68,7.18,5.68s.05,29.12,0,33Z"/><path class="cls-7" d="M852.08,106.76c1-2.75,3-6.91,3.52-9.8a15.75,15.75,0,0,0-.73-8.66,14,14,0,0,0-9.77-7.82,21.17,21.17,0,0,0-12.71,1.35,19.77,19.77,0,0,0-6.89,4.48,11,11,0,0,0-3.08,7s8.36-6.79,17.56.16S852.08,106.76,852.08,106.76Z"/><path class="cls-14" d="M822.39,95.82c-1.23,10.31-2.68,34,10.28,33.31v8l-7.82,4s3.58,10.28,20.56,8.27,16.54-9.16,16.54-9.16L851.22,137,851,117.51s5.06.37,4.92-6c-.13-6-5.59-5.36-5.59-5.36l-.45-15h-22.2A5.31,5.31,0,0,0,822.39,95.82Z"/><path class="cls-7" d="M832.61,106.85a42.77,42.77,0,0,0-.61,4.86c-.12,1.32-.51,3-.12,4.34s1.82,2.18,3,1.2a.38.38,0,0,0-.37-.63c-2.58.93-1.66-3.91-1.6-4.9a41.94,41.94,0,0,0,.14-4.81c0-.23-.37-.31-.42-.06Z"/><path class="cls-7" d="M834.24,120c3.06.36,6.37-1.81,6.52-5.12a.37.37,0,0,0-.73-.1,5.41,5.41,0,0,1-5.79,4.87c-.23,0-.22.33,0,.35Z"/><path class="cls-9" d="M842.65,109.51a5.23,5.23,0,0,0-3.34,1.35,1.1,1.1,0,0,0-.46.91c.06.38.45.6.8.74a6,6,0,0,0,4.3,0c.62-.25,1.27-.71,1.28-1.38a1.35,1.35,0,0,0-.87-1.17,4,4,0,0,0-1.52-.23"/><path class="cls-7" d="M834.9,102.66c1.19,0,2.24-.89,3.4-1.2a29,29,0,0,1,4.47-.34.41.41,0,0,0,.11-.79,8,8,0,0,0-4.59.1c-1.19.3-3,.77-3.55,1.94a.2.2,0,0,0,.17.29Z"/><path class="cls-5" d="M844.22,105.25a4.66,4.66,0,0,0-7.94,1.45,10.25,10.25,0,0,0,3.93.81,3.7,3.7,0,0,0,3.26-2"/><path class="cls-7" d="M836.08,106.75c1.36-.65,1.65-2.3,3.36-2.67,1.56-.33,3.41.79,4.65,1.65.46.32,1-.41.6-.78-1.31-1.16-3.48-2.25-5.26-2-1.51.25-3.82,1.85-3.62,3.59a.19.19,0,0,0,.27.16Z"/><path class="cls-7" d="M841.56,104.65a2.31,2.31,0,0,1-.52,2.3,1.53,1.53,0,0,1-2,.1,2.27,2.27,0,0,1-.68-2.24,2.37,2.37,0,0,1,1.78-1.29A1.19,1.19,0,0,1,841.56,104.65Z"/><path class="cls-5" d="M829.76,107.27a3.87,3.87,0,0,0-3.36-2.47,4.41,4.41,0,0,0-3.76,2.24,7.94,7.94,0,0,0,3.15,1.63,3.24,3.24,0,0,0,3.27-1.31"/><path class="cls-7" d="M822.46,107.06c1.22-.31,1.75-1.65,3.1-1.87,1.57-.25,3,1.25,3.85,2.41.38.49,1.19.07.86-.5-.83-1.42-2.53-3.09-4.3-3.07-1.46,0-3.66,1.27-3.74,2.85a.18.18,0,0,0,.23.18Z"/><path class="cls-7" d="M827.63,106.12a2.64,2.64,0,0,1-1,2.17,1.21,1.21,0,0,1-1.74-.32,2.56,2.56,0,0,1,0-2.36,2.19,2.19,0,0,1,1.83-.91C827.88,104.74,827.63,106.12,827.63,106.12Z"/><path class="cls-7" d="M822.55,103.77a9,9,0,0,1,4.21-1,13.36,13.36,0,0,1,3.76,1,.36.36,0,0,0,.34-.59c-2.29-2-6.25-1.51-8.54.17a.22.22,0,0,0,.23.39Z"/><path class="cls-7" d="M852.16,107.83c-1.44.53-2,2.61-2,4a.43.43,0,0,0,.84.11c.27-1,1.78-1.34,2-.12.21,1-.7,1.13-1.34,1.32-.27.08-.39.53-.09.66,1.58.67,2.89-1.37,2.07-2.73a1.92,1.92,0,0,0-3.51.64l.82.23a9.74,9.74,0,0,1,.68-2.19,8.15,8.15,0,0,0,.77-1.63c0-.17-.12-.37-.3-.3Z"/><path class="cls-7" d="M850.32,106.11s-8.81-17.75-24.2-14.74a5.5,5.5,0,0,0-3.73,4.45s-.93-7.38,2.68-8.62,26.11-1.38,27,3.94,0,15.62,0,15.62Z"/><path class="cls-28" d="M852,105.86c.45-4.75-1.52-10-3.83-14.07a29.2,29.2,0,0,0-10.07-10.56c-.48-.29-.87.42-.43.74a32.57,32.57,0,0,1,9.75,10.7c2.37,4.28,3,8.56,3.9,13.28.08.41.64.27.68-.09Z"/><path class="cls-28" d="M834,91.79a18.09,18.09,0,0,1,9.39-4.06c.51-.06.51-.86,0-.8a15.79,15.79,0,0,0-9.68,4.57c-.19.19.09.45.29.29Z"/><path class="cls-28" d="M848.66,94.09A12.69,12.69,0,0,0,850,82.31c-.24-.61-1.22-.38-1,.28a14.53,14.53,0,0,1-.84,11.17.32.32,0,0,0,.55.32Z"/><path class="cls-29" d="M827.28,87.3a14.19,14.19,0,0,0,8.28-1.66,4.92,4.92,0,0,0,2.52-2.71c.53-1.87-1-3.89-2.84-4.43a7.34,7.34,0,0,0-5.59,1,13.64,13.64,0,0,0-3.5,2.87,3.77,3.77,0,0,0-1.08,2.12,3,3,0,0,0,2.21,2.78"/><path class="cls-30" d="M851.81,114.47c-3.69,2.32-2.59,9,2.23,8.59a4.84,4.84,0,0,0,4.18-3.7,4.93,4.93,0,0,0-2.1-5.13c-.44-.32-1,.38-.57.74a4.29,4.29,0,0,1,1.78,3.58,3.84,3.84,0,0,1-3.48,3.49,3.16,3.16,0,0,1-3.33-3.12c-.09-1.67.91-2.73,1.72-4.05a.3.3,0,0,0-.41-.41Z"/><path class="cls-10" d="M541.27,179c.13-.07,1.91-34.05,19.67-39,14.92-4.15,36,1.91,36,1.91s12.23.18,12.23,37.07Z"/><path class="cls-31" d="M553.36,94.85a17.21,17.21,0,0,0-1.59,12c.53,2.23,1.49,4.66.41,6.68-1.29,2.41-5,3.18-5.46,5.87a2.85,2.85,0,0,0,4.81,2.49,4.4,4.4,0,1,0,8.31,2.87,7.31,7.31,0,0,0,14.61-.44,8.13,8.13,0,0,0,3.15,3,4.49,4.49,0,0,0,4.2-.06,3.13,3.13,0,0,0,1.33-3.78,6.22,6.22,0,0,0,8.07.6c2.29-1.88,2.52-5.86.29-7.8,2.09,0,4.33-.24,5.94-1.57s2.1-4.16.45-5.44-4.35-.24-6.31-1.18c-1.67-.8-2.32-2.78-3-4.49a22.8,22.8,0,0,0-34.26-9.89"/><path class="cls-4" d="M555.24,96.65c-1.23,10.31-2.68,34,10.28,33.31v8l-8.17,3.55s3.93,10.75,20.91,8.74,16.54-9.16,16.54-9.16l-10.73-3.35-.22-19.44s5.06.37,4.92-6c-.13-6-5.59-5.36-5.59-5.36l-.32-10.8a4.3,4.3,0,0,0-4.3-4.17h-18A5.31,5.31,0,0,0,555.24,96.65Z"/><path class="cls-31" d="M568.46,104.57c1.28,0,2.43-.89,3.68-1.2A34.15,34.15,0,0,1,577,103a.41.41,0,0,0,.11-.79,9.23,9.23,0,0,0-5,.1c-1.28.3-3.14.74-3.85,1.94a.19.19,0,0,0,.17.29Z"/><path class="cls-5" d="M577.33,106.14a4.66,4.66,0,0,0-7.94,1.45,10.25,10.25,0,0,0,3.93.81c1.34-.07,3.49-1,4-2.26"/><path class="cls-32" d="M575.43,105.32a2.45,2.45,0,0,1-.55,2.43,1.62,1.62,0,0,1-2.13.1,2.4,2.4,0,0,1-.72-2.37,2.51,2.51,0,0,1,1.88-1.37A1.25,1.25,0,0,1,575.43,105.32Z"/><path class="cls-5" d="M563,108.15a3.87,3.87,0,0,0-3.36-2.47,4.41,4.41,0,0,0-3.76,2.24,7.93,7.93,0,0,0,3.15,1.63c1.16.21,3.38-.34,4.13-1.46"/><path class="cls-32" d="M561.25,106.73a2.64,2.64,0,0,1-.59,2.31,1.21,1.21,0,0,1-1.77,0,2.56,2.56,0,0,1-.46-2.32,2.19,2.19,0,0,1,1.64-1.22C561.25,105.34,561.25,106.73,561.25,106.73Z"/><path class="cls-31" d="M555.43,105.18a9,9,0,0,1,4.21-1,13.36,13.36,0,0,1,3.76,1,.36.36,0,0,0,.34-.59c-2.29-2-6.25-1.51-8.54.17a.23.23,0,0,0,.23.39Z"/><path class="cls-7" d="M584,108.66c-1.44.53-2,2.61-2,4a.43.43,0,0,0,.84.11c.27-1,1.78-1.34,2-.12.21,1-.7,1.13-1.34,1.32-.27.08-.39.53-.09.66,1.58.67,2.89-1.37,2.07-2.73a1.92,1.92,0,0,0-3.51.64l.82.23a9.73,9.73,0,0,1,.68-2.19,8.17,8.17,0,0,0,.77-1.63c0-.17-.12-.37-.3-.3Z"/><path class="cls-31" d="M553.88,102.2a31.49,31.49,0,0,0,19.38-9.12,11.32,11.32,0,0,0,1.1,3.19,3.83,3.83,0,0,0,2.63,2,2.34,2.34,0,0,0,2.61-1.64c.28,3.3,1.43,10.19,4.26,10.34.34-3.7-.17-8.58,0-12.3a2.79,2.79,0,0,0-.53-2.17,2.66,2.66,0,0,0-1.25-.57c-5.9-1.49-12.07-1.33-18.14-1.16-2.12.06-4.35.15-6.16,1.25a8.24,8.24,0,0,0-3.32,4.53,24.51,24.51,0,0,0-.93,5.64"/><g class="cls-8"><path class="cls-9" d="M576.79,109.95a6.37,6.37,0,0,0-5.7,1.56,1.12,1.12,0,0,0-.43.74c0,.59.74.84,1.32.88a16.27,16.27,0,0,0,3.74-.14,4,4,0,0,0,1.5-.47,1.63,1.63,0,0,0,.83-1.27,1.23,1.23,0,0,0-1.82-1.12"/></g><path class="cls-7" d="M566,106.44a21.48,21.48,0,0,0-.07,4.66c0,1.43-.29,3.56.2,4.91s1.72.75,2.34-.18c.25-.38-.33-.84-.64-.49-1.07,1.23-1.06-1.38-1.07-1.93q0-1.15-.05-2.31a21.51,21.51,0,0,0-.32-4.66.19.19,0,0,0-.37,0Z"/><g class="cls-8"><path class="cls-9" d="M569.07,119.26c.48-.35.5-1,.92-1.41s1.14-.47,1.39-1a.63.63,0,0,0-.09-.72c-.62-.77-1.93,0-2.42.56s-1.21,1.77-.51,2.45a.61.61,0,0,0,.72.09Z"/></g><g class="cls-8"><path class="cls-9" d="M568.87,120.43a6.37,6.37,0,0,0,1.47-.31,5.32,5.32,0,0,0,1.15-.69A3.52,3.52,0,0,0,573,117c0-.66-.95-1.19-1.43-.59s-.63,1.34-1.1,1.94a4.07,4.07,0,0,1-1.84,1.39c-.47.13-.27.81.2.72Z"/></g><path class="cls-7" d="M567.26,120.2a8.24,8.24,0,0,0,5.74-5.07.35.35,0,0,0-.63-.27,13.91,13.91,0,0,1-2.21,2.91,11.47,11.47,0,0,1-3.16,1.83c-.35.15-.09.67.25.59Z"/><path class="cls-7" d="M569.41,107.86c2-2.9,4.64-3.93,7.71-1.8.42.29.93-.37.55-.71-2.67-2.37-7.9-1.51-8.76,2.3a.28.28,0,0,0,.5.21Z"/><path class="cls-7" d="M556,108.17c1-.95,1.69-1.94,3.18-2.06a3.59,3.59,0,0,1,3.55,2.25c.3.62,1.23.08.93-.54a4.69,4.69,0,0,0-4.34-2.69c-1.54.06-3.54,1.11-3.78,2.77a.27.27,0,0,0,.45.26Z"/><path class="cls-33" d="M552.95,95.54a14.39,14.39,0,0,1,8.44-12.29c2-.86,4.1-1.25,6.1-2,3-1.18,5.62-3.19,8.59-4.46,4.16-1.77,9.16-1.92,13.09.31s6.44,7.07,5.31,11.45c-.73,2.79-2.73,5.06-3.86,7.71-.77,1.79-1.26,5.5-3.09,6.18s-4-2.21-5.57-3.43a31.72,31.72,0,0,0-14-6.22A21.94,21.94,0,0,0,553,95.52"/><path class="cls-33" d="M590.46,79.91a7.22,7.22,0,0,0,1.53,1,2.43,2.43,0,0,0,1.79.13,2.62,2.62,0,0,0,1.46-1.79,3.78,3.78,0,0,0-.22-2.82,2.82,2.82,0,0,0-2.31-1.52,3.51,3.51,0,0,0-2.1.74,4,4,0,0,0-1.83,3.2,2.44,2.44,0,0,0,2.42,2.42"/><path class="cls-34" d="M553.89,91.2c4.94-4.81,13.44-3.94,19.67-2.64s11.87,4.29,15.78,9.36a.23.23,0,1,0,.36-.28C585.44,92.18,579,89.12,572.29,88c-5.75-1-14.22-1.84-18.49,3.12-.06.06,0,.15.09.09Z"/><path class="cls-34" d="M557.39,88.64a7.25,7.25,0,0,0,.34,4.07c.06.17.33.1.27-.07a10.13,10.13,0,0,1-.48-4,.07.07,0,0,0-.13,0Z"/><path class="cls-34" d="M560.75,87.87a19.21,19.21,0,0,0,.15,3.83c0,.15.25.17.25,0a19.28,19.28,0,0,0-.32-3.84c0-.05-.08,0-.09,0Z"/><path class="cls-34" d="M565.25,87.46c-.06,1.39-.12,2.8-.13,4.18,0,.13.21.17.24,0a14,14,0,0,0,0-4.24c0-.09-.15-.06-.16,0Z"/><path class="cls-34" d="M569.27,92.52a8.51,8.51,0,0,0,1.15-4.46.15.15,0,0,0-.31,0,9.45,9.45,0,0,1-.94,4.4c0,.07.07.13.11.06Z"/><path class="cls-34" d="M573,93.66a12.38,12.38,0,0,0,2.51-4.13c.07-.2-.25-.29-.32-.09a15.28,15.28,0,0,1-2.28,4.12c0,.06,0,.15.09.09Z"/><path class="cls-34" d="M577.39,95.74c.93-1.67,1.92-3.36,2.68-5.11.08-.18-.17-.34-.28-.16-1,1.64-1.77,3.44-2.58,5.17-.05.11.11.21.17.1Z"/><path class="cls-34" d="M582.67,98.62c.74-1.47,1.44-3,2-4.49.08-.19-.24-.28-.31-.09a40.89,40.89,0,0,1-1.91,4.47c-.06.11.11.21.17.1Z"/><path class="cls-34" d="M575.53,87.9c1.6-3.81,4.43-5.15,8.24-6a8.81,8.81,0,0,0,2.88-1c.74-.47,2.88-3.27,3.69-2.17.08.11.27,0,.19-.11a1.07,1.07,0,0,0-1.32-.56c-.68.16-.89.76-1.31,1.22a7.49,7.49,0,0,1-4.64,2.49c-3.64.76-6.57,2.44-7.92,6.08,0,.12.14.16.19.05Z"/><path class="cls-34" d="M591.42,80l.08,2.83a5.82,5.82,0,0,1-1.29,1.42c-.39.35-.83.65-1.23,1a5.35,5.35,0,0,0-1.71,2.16c-.88,2.4,1.28,5.1-.92,7.17-.11.1.05.26.17.17a3,3,0,0,0,1.14-2.23,9,9,0,0,0-.16-2.09c-.26-2.14,0-3.54,1.64-5s4.11-3.2,2.38-5.48c0-.06-.16,0-.11.07Z"/><path class="cls-34" d="M567.38,87.16a7.11,7.11,0,0,1,3.25-4.77c1.61-.93,3.45-.77,5.14-1.43,3-1.18,4.59-5.66,8.44-4.22.11,0,.17-.13.08-.18a3.7,3.7,0,0,0-4,.43c-2.15,1.41-3.25,3.51-6,4.08-3.5.73-6.57,2.1-7.08,6.07,0,.11.16.13.18,0Z"/><path class="cls-7" d="M584,116.32a3.73,3.73,0,0,0-1.29,3.74,3,3,0,0,0,2.48,2,3.41,3.41,0,0,0,3.07-5.31.39.39,0,0,0-.68.4,3.07,3.07,0,0,1,.07,2.8,2.49,2.49,0,0,1-2.18,1.24,2.27,2.27,0,0,1-2.05-1.64,3.15,3.15,0,0,1,1-2.78c.29-.31-.16-.77-.47-.47Z"/><path class="cls-10" d="M652.53,179c.35.45-.44-35.74,16.23-37.55,14.76-1.6,34.54,1.83,34.54,1.83s11.44-2,12.37,35.72Z"/><path class="cls-11" d="M705.87,96.88c1.25,10.42,2.71,34.39-10.39,33.68v8.13l8.28,4.55s-4,9.91-21.16,7.88-17.17-8.8-17.17-8.8l11.29-3.85.23-19.66s-5.11.38-5-6.1c.13-6.09,5.65-5.42,5.65-5.42-.9-3.94-1.15-9.32-1-15.69,5.49-1.3,13.67-1.46,23.06-1.1C702.43,90.5,705.55,94.18,705.87,96.88Z"/><path class="cls-9" d="M685.39,110.72a5.29,5.29,0,0,1,3.38,1.37,1.11,1.11,0,0,1,.47.92c-.06.38-.45.61-.81.74a6.08,6.08,0,0,1-4.35,0c-.63-.25-1.29-.72-1.3-1.4a1.37,1.37,0,0,1,.88-1.19,4,4,0,0,1,1.54-.23"/><path class="cls-5" d="M683.8,106.41a4.71,4.71,0,0,1,8,1.46,10.37,10.37,0,0,1-4,.82c-1.36-.07-3.53-1-4.06-2.29"/><path class="cls-7" d="M692.24,107.74a4.53,4.53,0,0,0-3.92-3.44,7.57,7.57,0,0,0-4.86,2c-.27.23.09.7.38.49A7.74,7.74,0,0,1,688,105c2.18,0,2.64,1.64,4.06,2.82a.12.12,0,0,0,.2-.11Z"/><path class="cls-7" d="M685.93,105.81a2.34,2.34,0,0,0,.52,2.33,1.55,1.55,0,0,0,2,.1,2.29,2.29,0,0,0,.68-2.27,2.4,2.4,0,0,0-1.8-1.31A1.2,1.2,0,0,0,685.93,105.81Z"/><path class="cls-5" d="M698.42,108.45a3.81,3.81,0,0,1,3.33-2.48,4.42,4.42,0,0,1,3.75,2.28,7.76,7.76,0,0,1-3.13,1.63c-1.16.21-3,0-3.71-1.18"/><path class="cls-7" d="M705.83,108.07a4.16,4.16,0,0,0-3.9-2.64c-1.6.09-3.1,1.68-3.87,3-.21.35.31.64.54.32.76-1.06,2.17-2.61,3.57-2.61,1.6,0,2.27,1.42,3.49,2.11a.12.12,0,0,0,.17-.13Z"/><path class="cls-7" d="M699.81,107.29a2.67,2.67,0,0,0,1,2.19,1.22,1.22,0,0,0,1.76-.33,2.58,2.58,0,0,0,0-2.39,1.52,1.52,0,0,0-1.85-.92A1.3,1.3,0,0,0,699.81,107.29Z"/><path class="cls-7" d="M675.47,109.32a9.31,9.31,0,0,0,.8,1.63,9.26,9.26,0,0,1,.68,2.22l.79-.22a1.92,1.92,0,0,0-3.43-.76c-.89,1.27.26,3.53,1.9,2.89a.35.35,0,0,0,0-.67c-.66-.17-1.59-.34-1.37-1.36.27-1.25,1.83-.92,2.11.12a.41.41,0,0,0,.8-.11c0-1.41-.55-3.46-2-4-.17-.07-.33.13-.29.29Z"/><g class="cls-35"><path class="cls-7" d="M677.38,107.22a2,2,0,0,0,2.27-.57,5.51,5.51,0,0,0,1.12-2.22,48.42,48.42,0,0,0,2-9.42c6.94-.75,17.13.29,20.92-2.8,0,0-26.37-3.89-27-.62C675.86,95.75,677.38,107.22,677.38,107.22Z"/></g><path class="cls-7" d="M677.35,91.68c9.18-2.6,19.31,3,28.37,0a7.06,7.06,0,0,0,3.62-2.34,3.42,3.42,0,0,0,.1-4.07c-1.3-1.56-3.76-1.14-5.71-.57a2.79,2.79,0,0,0,1.73-3.76,4,4,0,0,0-3.89-2.16,7.23,7.23,0,0,0-4.23,1.95,45.5,45.5,0,0,0-3.25,3.44A10.51,10.51,0,0,1,690.33,87a13.38,13.38,0,0,1-5.6.45,12.07,12.07,0,0,0-5.58.57c-1.73.76-3.13,2.61-2.73,4.45"/><path class="cls-36" d="M674.28,118.49c-.29.57.29,1.23.77,1.5a2,2,0,0,0,1.89.11,2.33,2.33,0,0,0,1.17-1.5c.13-.54.12-1.56-.56-1.71a.37.37,0,0,0-.45.26c-.08.39.18.66.2,1.05a1.14,1.14,0,0,1-.65,1.16,1.38,1.38,0,0,1-1.22-.17c-.34-.21-.48-.6-.82-.79a.24.24,0,0,0-.33.09Z"/><path class="cls-7" d="M695.09,106.22a52.75,52.75,0,0,0,.69,6.09c.16,1.08.36,2.15.51,3.22.33,2.31.48,2.17-1.24,1.54-.61-.22-.9.8-.27,1s1.41.36,2.12.54a.38.38,0,0,0,.46-.46c-.72-4-1-8-2-11.94a.14.14,0,0,0-.27,0Z"/><path class="cls-7" d="M689.69,120.93a30.54,30.54,0,0,0,7.58,2c1.86.19,2.12-2.68.43-3.18a30.59,30.59,0,0,0-7.72-1c-1.31,0-1.4,1.74-.29,2.16Z"/><path class="cls-7" d="M684.13,104a28.4,28.4,0,0,1,4.32.11c1.31.13,2.51.45,3.73-.11.81-.37.59-1.44,0-1.86-2-1.46-6.06,0-8.21.65-.64.2-.56,1.25.16,1.21Z"/><path class="cls-7" d="M697.76,104.61a24.67,24.67,0,0,1,6.23-.19c1.57.14,1.59-2.38,0-2.47a15.23,15.23,0,0,0-6.66,1.11.81.81,0,0,0,.43,1.56Z"/><path class="cls-7" d="M691.34,122.57a2,2,0,0,0,1.23,1c.43.15,1.19.31,1.52-.1A.29.29,0,0,0,694,123c-.31-.22-.81-.11-1.18-.2a6.16,6.16,0,0,1-1.23-.52.21.21,0,0,0-.28.28Z"/><path class="cls-3" d="M600,179c.36.47,1.87-36.94,18-39,15.36-1.94,36,1.91,36,1.91s14.92,1.39,13.18,37.07Z"/><path class="cls-37" d="M618.61,146.26c-6.06-7.18-9.09-16.62-9.4-26-.24-7.26,1.15-14.75,5.1-20.85s10.72-10.6,18-10.72c6.51-.11,12.81,3.32,16.87,8.41a30,30,0,0,1,6.1,18.17c.07,3.75-.42,7.66,1,11.15.77,1.93,2.09,3.63,2.7,5.62a11.81,11.81,0,0,1-.48,7.45c-3,8.16-11.75,13.37-20.43,13.52s-13.18-.69-19.41-6.75"/><path class="cls-14" d="M617.3,100c-1.23,10.31-2.68,34,10.28,33.31v8l-7.82,4s3.58,10.28,20.56,8.27,16.54-9.16,16.54-9.16l-10.73-3.35-.22-19.44s5.06.37,4.92-6c-.13-6-5.59-5.36-5.59-5.36l-.32-10.8a4.3,4.3,0,0,0-4.3-4.17h-18A5.32,5.32,0,0,0,617.3,100Z"/><path class="cls-38" d="M630.52,108c1.28,0,2.43-.89,3.68-1.2a34.1,34.1,0,0,1,4.86-.34.41.41,0,0,0,.11-.79,9.22,9.22,0,0,0-5,.11c-1.28.3-3.14.74-3.85,1.94a.19.19,0,0,0,.17.29Z"/><path class="cls-5" d="M639.39,109.53a4.66,4.66,0,0,0-7.94,1.45,10.26,10.26,0,0,0,3.93.81c1.34-.07,3.49-1,4-2.26"/><path class="cls-38" d="M637.54,108.93a2.31,2.31,0,0,1-.52,2.3,1.53,1.53,0,0,1-2,.1,2.27,2.27,0,0,1-.68-2.24,2.37,2.37,0,0,1,1.78-1.29A1.19,1.19,0,0,1,637.54,108.93Z"/><path class="cls-5" d="M625.11,111.54a3.87,3.87,0,0,0-3.36-2.47,4.41,4.41,0,0,0-3.76,2.24,7.94,7.94,0,0,0,3.15,1.63c1.16.21,3.38-.34,4.13-1.46"/><path class="cls-38" d="M623.85,110.39a2.64,2.64,0,0,1-1,2.17,1.21,1.21,0,0,1-1.74-.32,2.56,2.56,0,0,1,0-2.36,2.19,2.19,0,0,1,1.83-.91C624.1,109,623.85,110.39,623.85,110.39Z"/><path class="cls-38" d="M617.5,108.56a9,9,0,0,1,4.21-1,13.37,13.37,0,0,1,3.76,1,.36.36,0,0,0,.35-.59c-2.29-2-6.25-1.51-8.54.17a.22.22,0,0,0,.23.39Z"/><path class="cls-7" d="M646.09,112c-1.44.53-2,2.61-2,4a.43.43,0,0,0,.84.11c.27-1,1.78-1.34,2-.12.21,1-.7,1.13-1.34,1.32-.27.08-.39.53-.09.66,1.58.67,2.89-1.37,2.07-2.73a1.92,1.92,0,0,0-3.51.64l.82.23a9.74,9.74,0,0,1,.68-2.19,8.15,8.15,0,0,0,.77-1.63c0-.17-.12-.37-.3-.3Z"/><g class="cls-39"><path class="cls-9" d="M640.07,114a6.37,6.37,0,0,0-5.7,1.56,1.12,1.12,0,0,0-.43.74c0,.59.74.84,1.32.88A16.25,16.25,0,0,0,639,117a4,4,0,0,0,1.5-.47,1.63,1.63,0,0,0,.83-1.27,1.23,1.23,0,0,0-1.82-1.12"/></g><path class="cls-7" d="M628.1,109.82a21.49,21.49,0,0,0-.07,4.66c0,1.43-.29,3.56.2,4.91s1.72.75,2.34-.18c.26-.38-.33-.84-.64-.49-1.07,1.23-1.06-1.38-1.07-1.93q0-1.15-.05-2.31a21.53,21.53,0,0,0-.32-4.66.19.19,0,0,0-.37,0Z"/><path class="cls-7" d="M631.47,111.25c2-2.9,4.64-3.93,7.71-1.8.42.29.93-.37.55-.71-2.67-2.37-7.9-1.51-8.76,2.3a.28.28,0,0,0,.5.21Z"/><path class="cls-7" d="M618.07,111.56c1-.95,1.69-1.94,3.18-2.06a3.59,3.59,0,0,1,3.55,2.25c.3.62,1.23.08.93-.54a4.69,4.69,0,0,0-4.34-2.68c-1.54.06-3.54,1.11-3.78,2.77a.27.27,0,0,0,.45.26Z"/><path class="cls-27" d="M617.09,142.59a.06.06,0,0,0,0-.13.06.06,0,0,0,0,.13Z"/><path class="cls-37" d="M627.58,133.35s14.34,1.13,18.32-11.62a4.55,4.55,0,0,0,4.58-3.3s10.57,15.1,7.37,26.42c-2.19,7.75-25.86,14.74-36.32,4l-4.45-7.55Z"/><path class="cls-37" d="M616.53,106.64s4.36-11.28,13.8-11.28,14.42,5.46,14.9,15l5-.62s.39-16.31-9.47-16.4a189.2,189.2,0,0,0-20.37,1.13l-4.87,4.43Z"/><path class="cls-7" d="M629,123.9a7.74,7.74,0,0,0,6.25-3.79c.27-.46-.42-.86-.71-.41a7.85,7.85,0,0,1-5.63,3.53c-.39.06-.3.7.09.68Z"/><path class="cls-40" d="M615.34,122c.56,8.89,4.49,19.63,15,20.07a16.86,16.86,0,0,0,12.06-4.77c3.12-2.94,6.33-7.73,6.68-12.12a.41.41,0,0,0-.75-.2c-2.06,3.69-3,7.46-6,10.65a16,16,0,0,1-11.65,5.32c-10.09-.08-13.45-10.85-14.63-19-.06-.4-.74-.31-.71.1Z"/><path class="cls-40" d="M619,140.54c4.85,4.57,10.84,7,17.6,6,6.08-.92,12.55-4.89,15.11-10.66a.42.42,0,0,0-.72-.42c-3.63,4.8-7.88,8.58-14,9.71a21.62,21.62,0,0,1-17.62-5c-.25-.23-.62.14-.37.37Z"/><path class="cls-40" d="M616.7,106.3a30.16,30.16,0,0,1,6.06-10.62c2.78-3,6.16-4.47,9.57-6.57a.35.35,0,0,0-.27-.63c-3.88.73-7.62,4-10.25,6.78A23,23,0,0,0,616,106.1a.37.37,0,0,0,.71.2Z"/><path class="cls-40" d="M645.93,110.41a17.66,17.66,0,0,0,2.43-6.79c.4-2.06,1-4.53.26-6.53a.59.59,0,0,0-1.12,0c-.63,2.09-.17,4.43-.56,6.6s-1.3,4.23-1.83,6.38a.45.45,0,0,0,.82.35Z"/><text class="cls-41" transform="translate(42.64 60.74)">Nuevamente<tspan class="cls-42" x="102.06" y="0"> </tspan><tspan x="115.96" y="0">se</tspan><tspan class="cls-43" x="134.97" y="0"> </tspan><tspan x="148.87" y="0">reitera</tspan><tspan class="cls-42" x="199.89" y="0"> </tspan><tspan x="213.78" y="0">la</tspan><tspan class="cls-43" x="227.79" y="0"> </tspan><tspan x="241.69" y="0">importancia</tspan><tspan class="cls-42" x="334.73" y="0"> </tspan><tspan x="348.63" y="0">de</tspan><tspan class="cls-43" x="368.65" y="0"> </tspan><tspan x="382.55" y="0">la</tspan><tspan class="cls-42" x="396.56" y="0"> </tspan><tspan x="410.46" y="0">vida </tspan><tspan x="0" y="21.6">colectiva</tspan><tspan class="cls-44" x="70.03" y="21.6"> </tspan><tspan x="83.21" y="21.6">al</tspan><tspan class="cls-45" x="97.22" y="21.6"> </tspan><tspan x="110.41" y="21.6">margen</tspan><tspan class="cls-44" x="171.44" y="21.6"> </tspan><tspan x="184.62" y="21.6">de</tspan><tspan class="cls-44" x="204.64" y="21.6"> </tspan><tspan x="217.82" y="21.6">los</tspan><tspan class="cls-44" x="240.83" y="21.6"> </tspan><tspan x="254.02" y="21.6">fines</tspan><tspan class="cls-45" x="292.04" y="21.6"> </tspan><tspan x="305.22" y="21.6">tradicionales</tspan><tspan class="cls-44" x="406.28" y="21.6"> </tspan><tspan x="419.46" y="21.6">del </tspan><tspan x="0" y="43.2">desarrollo,</tspan><tspan class="cls-46" x="84.04" y="43.2"> </tspan><tspan x="89.36" y="43.2">como</tspan><tspan class="cls-47" x="133.38" y="43.2"> </tspan><tspan x="138.7" y="43.2">única</tspan><tspan class="cls-46" x="181.74" y="43.2"> </tspan><tspan x="187.06" y="43.2">manera</tspan><tspan class="cls-47" x="248.09" y="43.2"> </tspan><tspan x="253.41" y="43.2">de</tspan><tspan class="cls-46" x="273.44" y="43.2"> </tspan><tspan x="278.76" y="43.2">frenar</tspan><tspan class="cls-47" x="325.78" y="43.2"> </tspan><tspan x="331.1" y="43.2">los</tspan><tspan class="cls-46" x="354.11" y="43.2"> </tspan><tspan x="359.44" y="43.2">problemas </tspan><tspan x="0" y="64.8">económicos</tspan><tspan class="cls-48" x="96.05" y="64.8"> </tspan><tspan x="100.33" y="64.8">y</tspan><tspan class="cls-48" x="109.33" y="64.8"> </tspan><tspan x="113.62" y="64.8">sociales</tspan><tspan class="cls-48" x="178.65" y="64.8"> </tspan><tspan x="182.94" y="64.8">y</tspan><tspan class="cls-48" x="191.94" y="64.8"> </tspan><tspan x="196.22" y="64.8">garantizar</tspan><tspan class="cls-48" x="276.27" y="64.8"> </tspan><tspan x="280.55" y="64.8">así,</tspan><tspan class="cls-48" x="309.57" y="64.8"> </tspan><tspan class="cls-49" x="313.85" y="64.8">una</tspan><tspan class="cls-48" x="343.88" y="64.8"> </tspan><tspan x="348.17" y="64.8">mejor</tspan><tspan class="cls-48" x="393.18" y="64.8"> </tspan><tspan x="397.47" y="64.8">forma </tspan><tspan x="0" y="86.4">de vida.</tspan></text></svg>