<svg xmlns="http://www.w3.org/2000/svg" viewBox="0 0 925.79 198.42"><defs><style>.cls-1{isolation:isolate;}.cls-2{fill:#e8e8e8;opacity:0.47;}.cls-3{font-size:18px;fill:#303030;font-family:ArialMT, Arial;}.cls-4{letter-spacing:0.61em;}.cls-5{letter-spacing:-0.01em;}.cls-6{letter-spacing:-0.01em;}.cls-7{letter-spacing:-0.02em;}.cls-8{letter-spacing:-0.04em;}.cls-9{letter-spacing:-0.04em;}.cls-10{fill:#5e190c;}.cls-11,.cls-29,.cls-30{fill:#e3553d;}.cls-12,.cls-33{fill:#bdd8d3;}.cls-13,.cls-17,.cls-25{fill:#febd61;}.cls-14{fill:#fead8f;}.cls-15{fill:#369695;}.cls-16{fill:#e79e6c;}.cls-17,.cls-22,.cls-25,.cls-30,.cls-33{opacity:0.5;}.cls-17,.cls-22{mix-blend-mode:screen;}.cls-18{fill:#040404;}.cls-19{fill:#1a5959;}.cls-20{fill:#fff;}.cls-21{fill:#e9a879;}.cls-23{fill:#e27f5c;}.cls-24{fill:#e6965f;}.cls-25,.cls-29,.cls-30,.cls-33{mix-blend-mode:multiply;}.cls-26{fill:#edba95;}.cls-27{fill:#3b0d0d;}.cls-28{fill:#f1ceb7;}.cls-31{fill:#bb4d3b;}.cls-32{fill:#ae382f;}.cls-34{fill:#006ee9;}.cls-35{fill:#c76b4e;}.cls-36{fill:#256665;}.cls-37{fill:#ce6447;}.cls-38{fill:#c2443d;}.cls-39{fill:#de7457;}</style></defs><title>tarjeta 02</title><g class="cls-1"><g id="Capa_1" data-name="Capa 1"><rect class="cls-2" x="-5.45" y="-4.07" width="936.69" height="206.56"/><text class="cls-3" transform="translate(34.63 71.19)">Alimonada<tspan class="cls-4" x="85.05" y="0"> </tspan><tspan x="101" y="0">sostendrá</tspan><tspan class="cls-4" x="180.04" y="0"> </tspan><tspan x="195.99" y="0">que,</tspan><tspan class="cls-4" x="231.02" y="0"> </tspan><tspan x="246.97" y="0">el</tspan><tspan class="cls-4" x="260.98" y="0"> </tspan><tspan x="276.92" y="0">desarrollo</tspan><tspan class="cls-4" x="355.96" y="0"> </tspan><tspan x="371.91" y="0">auténtico, </tspan><tspan x="0" y="21.6">también</tspan><tspan class="cls-5" x="64.04" y="21.6"> </tspan><tspan x="68.93" y="21.6">es</tspan><tspan class="cls-6" x="87.94" y="21.6"> </tspan><tspan x="92.84" y="21.6">una</tspan><tspan class="cls-5" x="122.87" y="21.6"> </tspan><tspan x="127.76" y="21.6">de</tspan><tspan class="cls-6" x="147.78" y="21.6"> </tspan><tspan x="152.68" y="21.6">las</tspan><tspan class="cls-5" x="175.69" y="21.6"> </tspan><tspan x="180.58" y="21.6">fuentes</tspan><tspan class="cls-6" x="239.63" y="21.6"> </tspan><tspan x="244.52" y="21.6">centrales</tspan><tspan class="cls-5" x="317.56" y="21.6"> </tspan><tspan x="322.45" y="21.6">del</tspan><tspan class="cls-6" x="346.47" y="21.6"> </tspan><tspan x="351.37" y="21.6">“Buen</tspan><tspan class="cls-5" x="399.4" y="21.6"> </tspan><tspan class="cls-7" x="404.29" y="21.6">V</tspan><tspan x="415.97" y="21.6">ivir”, </tspan><tspan x="0" y="43.2">debido</tspan><tspan class="cls-8" x="54.05" y="43.2"> </tspan><tspan x="58.35" y="43.2">a</tspan><tspan class="cls-9" x="68.36" y="43.2"> </tspan><tspan x="72.66" y="43.2">que,</tspan><tspan class="cls-8" x="107.69" y="43.2"> </tspan><tspan x="111.99" y="43.2">esta</tspan><tspan class="cls-9" x="146.01" y="43.2"> </tspan><tspan x="150.31" y="43.2">postura,</tspan><tspan class="cls-8" x="215.35" y="43.2"> </tspan><tspan x="219.65" y="43.2">se</tspan><tspan class="cls-9" x="238.66" y="43.2"> </tspan><tspan x="242.95" y="43.2">centra</tspan><tspan class="cls-8" x="292.98" y="43.2"> </tspan><tspan x="297.28" y="43.2">en</tspan><tspan class="cls-9" x="317.3" y="43.2"> </tspan><tspan x="321.6" y="43.2">las</tspan><tspan class="cls-8" x="344.61" y="43.2"> </tspan><tspan x="348.9" y="43.2">dimensiones </tspan><tspan x="0" y="64.8">culturales del desarrollo. </tspan></text><polygon class="cls-10" points="600.88 180.97 620.05 42.65 623.25 42.65 604.08 180.97 600.88 180.97"/><polygon class="cls-11" points="581.57 175.99 605.31 95.85 608.51 95.85 584.77 175.99 581.57 175.99"/><polygon class="cls-11" points="634.15 175.99 613.59 95.85 610.39 95.85 630.95 175.99 634.15 175.99"/><polygon class="cls-12" points="640.78 48.53 634.28 91.5 630.26 118.11 585.59 118.11 592.51 72.33 596.11 48.53 640.78 48.53"/><path class="cls-13" d="M615.7,54c-2.26,4.8-8.85,5.93-11.87,10.28-.91,1.31-1.44,2.85-2.31,4.18a9,9,0,0,1-6.28,4,8.33,8.33,0,0,1-2.73-.13l3.6-23.8h20A8,8,0,0,1,615.7,54Z"/><path class="cls-14" d="M634.28,91.5l-4,26.61H601.21a6.72,6.72,0,0,1,3.06-6.83,18.76,18.76,0,0,1,4.28-1.26c6.78-1.74,11.72-7.43,16-13,1.52-2,3.09-4,5.33-5.14A6.27,6.27,0,0,1,634.28,91.5Z"/><path class="cls-15" d="M597.37,91c1-2.41,3.4-3.91,5.77-5s4.93-1.89,6.88-3.62c1.74-1.54,3.26-3.88,5.58-3.81A3.77,3.77,0,0,1,619,82.36a5.68,5.68,0,0,1-2.64,4.6,24.82,24.82,0,0,0-2.22,1.44,21.43,21.43,0,0,0-2.52,3.31,11.37,11.37,0,0,1-6.45,3.75c-1.66.38-5.52,1.31-7.12.57S596.79,92.44,597.37,91Z"/><polygon class="cls-15" points="630.26 118.11 626.88 118.11 637.4 48.53 640.78 48.53 630.26 118.11"/><rect class="cls-11" x="583.33" y="116.33" width="48.35" height="3.2"/><polygon class="cls-11" points="630.75 49.95 609.45 49.95 610.77 46.75 632.07 46.75 630.75 49.95"/><path class="cls-16" d="M549.63,141c.29-1.64.13-17.78,0-28.17l-1.66,0c-4.75,0-9.48.11-14.23-.13h-.2c2,11.25,4.3,22,4.3,22a17.78,17.78,0,0,0,1.82,4.2c-.37,2.83-1.13,9.66-.65,14.42.36,3.63,3,11.33,5,16.75,2.14.19,4.28.44,6.43.54l-.7-29.6Z"/><path class="cls-15" d="M550.13,139.18l-5.44.67s-.52,2.31,1,2.76,4.39-.22,4.39-.22Z"/><path class="cls-13" d="M546.76,178.74l-.61-1.75-3.33-9.67s5.83-.54,7.77,0l.07,9.2-1.82,2.38Z"/><path class="cls-17" d="M544.06,168.5a17.72,17.72,0,0,1,3-.22,17.52,17.52,0,0,1,3,.22,17.52,17.52,0,0,1-3,.22A17.72,17.72,0,0,1,544.06,168.5Z"/><path class="cls-18" d="M546.37,177.44s.6,1,1.45,1,1.3-1.19,1.3-1.19.52-1.56.93-1.56,1,.56,1.23.93a47.64,47.64,0,0,0,4.73,2.76s1.6-.37,2,0,.37,1.6.37,1.6H545.1a1.91,1.91,0,0,1,.22-1.53c.48-.63.37-2.76.48-2.79s.48.11.56.78"/><path class="cls-19" d="M550.05,105.33c0,.7,0,3.91-.06,6.83,0,.16,0,.31,0,.47,0,.63,0,1.23,0,1.79,0,.17,0,.33,0,.49,0,1.4,0,2.38,0,2.38s-12.51,1.79-16.65.11l-1.59-10.88-.07-.45-.25-1.68-.06-.44-.76-5.22-.08-.59-.14-1-.08-.59-.76-5.21,19,2S550.05,104,550.05,105.33Z"/><path class="cls-20" d="M545.7,112.52a3.58,3.58,0,0,1,3-.31c.41.11.82.26,1.22.4l.06,0c0-.16,0-.31,0-.47-.38-.13-.77-.28-1.18-.38a3.88,3.88,0,0,0-3.39.38,1.86,1.86,0,0,0-.77,1.33v.13l.1.07c.2.14.38.29.57.44s.39.32.6.46l.14.1.13-.11c.77-.66,2.06-.35,2.75-.11.34.12.69.27,1,.43,0-.16,0-.32,0-.49-.29-.13-.59-.26-.89-.37a5.26,5.26,0,0,0-1.64-.31,2.39,2.39,0,0,0-1.4.4l-.43-.35c-.16-.13-.32-.26-.49-.38A1.45,1.45,0,0,1,545.7,112.52Z"/><path class="cls-20" d="M545.55,109.09a2.5,2.5,0,1,1,2.5-2.5A2.5,2.5,0,0,1,545.55,109.09Zm0-4.54a2,2,0,1,0,2,2A2.05,2.05,0,0,0,545.55,104.55Z"/><path class="cls-21" d="M536.23,112.8c-.84,0-1.67-.05-2.51-.1-4.48-.23-9.06-.39-13.63-.74.94,11.51,2.2,22.76,2.2,22.76a16.19,16.19,0,0,0,1.41,4.2c-.64,2.83-2.07,9.66-2.06,14.42,0,5.48,4.25,20.24,4.88,22.41l1.7.27c.9.07,1.8.1,2.7.12l2.6-35.11,0,0C533.94,139.36,535.36,123.2,536.23,112.8Z"/><path class="cls-13" d="M527.28,178.74l-.61-1.75L524,167.32s5.83-.54,7.77,0l-.58,9.2-1.83,2.38Z"/><path class="cls-17" d="M524.8,168.46a17.72,17.72,0,0,1,3-.22,17.52,17.52,0,0,1,3,.22,17.52,17.52,0,0,1-3,.22A17.71,17.71,0,0,1,524.8,168.46Z"/><path class="cls-18" d="M526.89,177.44s.6,1,1.45,1,1.3-1.19,1.3-1.19.52-1.56.93-1.56,1,.56,1.23.93a47.64,47.64,0,0,0,4.73,2.76s1.6-.37,2,0,.37,1.6.37,1.6H525.62a1.91,1.91,0,0,1,.22-1.53c.48-.63.37-2.76.48-2.79s.48.11.56.78"/><path class="cls-15" d="M548.68,94.53,537.95,98l-.46,5.68,0,.51-.18,2.24,0,.47-1,11.76a30.81,30.81,0,0,1-7.93-1.68c-3.24-1.34-10.06-.67-10.06-.67s0-16.76-.11-20.45a120.67,120.67,0,0,1,.89-12.07l1.12-3.69,26.93-.34,1,9.49.05.49.21,2h0l.05.51Z"/><g class="cls-22"><path class="cls-15" d="M521.9,90.77c-.18,1-.34,2-.45,3.06s-.22,2-.25,3.08,0,2,.06,3.09l.06,3.1c0,2.07,0,4.14,0,6.2l-.07,3.1c0,1-.07,2.07-.12,3.1,0-1-.06-2.07-.1-3.1l-.06-3.1-.07-6.2,0-3.1c0-1-.09-2.07,0-3.11A33,33,0,0,1,521.9,90.77Z"/><path class="cls-15" d="M523.46,90.91c-.16,1-.32,2-.43,3a22.15,22.15,0,0,0-.22,3l.17,6.14c0,2,.07,4.1.07,6.14v3.07c0,1,0,2,0,3.07-.07-1-.11-2-.17-3.07l-.13-3.07c-.08-2-.12-4.09-.18-6.14s-.07-4.09-.07-6.15A30.36,30.36,0,0,1,523.46,90.91Z"/></g><path class="cls-20" d="M532.24,104.36c.42,0,.86.08,1.28.13a10.56,10.56,0,0,0,2.06.14,5.48,5.48,0,0,0,1.86-.45l0-.51a5.1,5.1,0,0,1-1.93.51,10.3,10.3,0,0,1-2-.13c-.43-.06-.87-.12-1.31-.14A3.86,3.86,0,0,0,529,105a1.85,1.85,0,0,0-.48,1.46l0,.13.12,0c.22.09.43.2.65.31s.44.23.68.33l.16.07.11-.13c.62-.81,1.94-.77,2.67-.68.4,0,.81.14,1.21.23A9.18,9.18,0,0,0,536,107a4.67,4.67,0,0,0,1.25-.14l0-.47a4.24,4.24,0,0,1-1.28.17,8.83,8.83,0,0,1-1.74-.27,12.49,12.49,0,0,0-1.26-.24,3.54,3.54,0,0,0-3,.72l-.5-.25c-.18-.09-.37-.19-.56-.28a1.48,1.48,0,0,1,.39-1A3.57,3.57,0,0,1,532.24,104.36Z"/><path class="cls-20" d="M520.58,114.75l-.16-.07c-.23-.1-.46-.22-.68-.33s-.43-.22-.65-.32l-.12,0,0-.12a1.86,1.86,0,0,1,.48-1.46,3.87,3.87,0,0,1,3.24-1.08c.44,0,.89.08,1.31.14a10.28,10.28,0,0,0,2,.14,5.13,5.13,0,0,0,3.45-1.65l.41-.45,0,.61c0,.44,0,.95,0,1.44s0,1,0,1.46v.09l-.07.06a4.83,4.83,0,0,1-3.35,1.28,9.24,9.24,0,0,1-1.82-.28c-.4-.09-.81-.18-1.21-.23-.73-.09-2.05-.13-2.67.68Zm-1.19-1.07.56.28.5.25a3.53,3.53,0,0,1,3-.72c.43.05.85.15,1.26.24a8.76,8.76,0,0,0,1.73.27,4.28,4.28,0,0,0,3-1.1c0-.42,0-.89,0-1.35,0-.3,0-.61,0-.91A5.59,5.59,0,0,1,526,112a10.77,10.77,0,0,1-2.06-.14c-.42-.06-.85-.11-1.28-.14a3.59,3.59,0,0,0-2.87.93A1.48,1.48,0,0,0,519.39,113.68Z"/><path class="cls-20" d="M548.38,91.71h0l-.58-.25a11.5,11.5,0,0,0-1.18-.5,5.13,5.13,0,0,0-1.64-.31,2.39,2.39,0,0,0-1.4.4l-.43-.35-.49-.38a1.48,1.48,0,0,1,.59-.88,3.58,3.58,0,0,1,3-.31c.41.11.82.25,1.22.4l.71.24-.05-.49-.51-.18c-.41-.14-.83-.29-1.26-.41a3.88,3.88,0,0,0-3.39.38,1.87,1.87,0,0,0-.77,1.33v.13l.1.07c.2.14.38.29.57.45s.39.32.6.46l.14.1.13-.12c.77-.66,2.06-.35,2.75-.11.38.13.77.31,1.14.48s.54.25.82.36Z"/><path class="cls-20" d="M527.41,103.06a1.79,1.79,0,1,1,1.79-1.79A1.79,1.79,0,0,1,527.41,103.06Zm0-3.13a1.34,1.34,0,1,0,1.34,1.34A1.34,1.34,0,0,0,527.41,99.93Z"/><path class="cls-20" d="M531.06,98.81a1.27,1.27,0,1,1,1.27-1.27A1.27,1.27,0,0,1,531.06,98.81Zm0-2.09a.82.82,0,1,0,.82.82A.82.82,0,0,0,531.06,96.73Z"/><path class="cls-20" d="M536.79,91.59a1.79,1.79,0,1,1,1.79-1.79A1.79,1.79,0,0,1,536.79,91.59Zm0-3.13a1.34,1.34,0,1,0,1.34,1.34A1.34,1.34,0,0,0,536.79,88.46Z"/><path class="cls-21" d="M532.43,41.16l.06.16,1.15.9.94.72a25.83,25.83,0,0,0,5.07,2.38,18.64,18.64,0,0,0,5.68,1A12.2,12.2,0,0,0,549,44.87c.18-.4.36-.79.54-1.18-2.93-1.82-3.59-2.81-3.59-2.81-1.24-1.69-.93-5.46-.93-5.46l-3.21-.29L539,32.32s-1.77,5.48-3.42,6.8a9.81,9.81,0,0,1-3.3,1.52Z"/><path class="cls-23" d="M545,36.91a5.82,5.82,0,0,1-4.74-1.65,6.9,6.9,0,0,1-1.47-2.3l.11-.32A5.8,5.8,0,0,0,545,35.52C545,35.73,545,36.25,545,36.91Z"/><path class="cls-20" d="M551.33,54.51c-.24-2.41-.35-4.82-.54-7.24-.07-.88-.06-2.11-.13-3.4-1.79-1.1-3.44-2-3.44-2a5.34,5.34,0,0,0-1.49-1.49,3.61,3.61,0,0,1-3.8,3.28c-3.65.15-6.37-4.49-6.37-4.49a2.68,2.68,0,0,0-1.45.84,28.41,28.41,0,0,1-5.69,1.37c-.45,1.91-1,3.8-1.45,5.72s-.62,3.59-.88,5.38c-.27,2.54-.39,5.11-.54,7.64a2.22,2.22,0,0,1-2.42,2.15L519,83.09c11,4.39,28.53,0,28.53,0s2.61-12.89,3.58-16.61c.39-1.5.8-4.06,1.16-6.6C551.91,58.1,551.51,56.33,551.33,54.51Z"/><path class="cls-12" d="M536.16,43.13a12,12,0,0,0,2.16,1.41,7.52,7.52,0,0,0,2.4.76,5.12,5.12,0,0,0,2.47-.26,8.27,8.27,0,0,0,2.24-1.24l-.47.46a3.52,3.52,0,0,1-.5.44l-.55.37a3.56,3.56,0,0,1-.6.3,5.14,5.14,0,0,1-1.3.38l-.68,0a6.73,6.73,0,0,1-.68,0,6.58,6.58,0,0,1-2.51-.9A7.63,7.63,0,0,1,536.16,43.13Z"/><path class="cls-12" d="M541.19,60.11a19.21,19.21,0,0,0,1.43,2.79,19.42,19.42,0,0,0,1.9,2.49,7.06,7.06,0,0,1-3.33-5.28Z"/><path class="cls-12" d="M540.11,61.78a28.45,28.45,0,0,0,4,8.29,13.28,13.28,0,0,1-4-8.29Z"/><path class="cls-16" d="M571.71,75.75c2-3.07,3.37-5.62,3.37-5.62l-2.91-1.79-4.62,3.17C569,72.93,570.3,74.37,571.71,75.75Z"/><path class="cls-24" d="M577.27,65.74s1.39-2.57,1.48-2.93.08-1.16-.06-1.24-.47,1-.47,1l-2,2.92Z"/><path class="cls-16" d="M571.41,69.58s1.83,1.65,2.84,1.25,3.76-3.56,4.09-4.26,2-4.3,1.77-4.63S577,65.13,577,65.13s-.47.58-.87-.14a7.78,7.78,0,0,0-2.69,1.19A16,16,0,0,0,571.41,69.58Z"/><path class="cls-13" d="M574.11,72.52A57.27,57.27,0,0,1,567,82.73c-2.15,2.32-4.51,4.12-6.68,4.09-4.52-.06-8.38-8.3-10.09-12.59-.6-1.52-.93-2.54-.93-2.54l1.47-15.59.62-6.53.14-1.49-1.71-5.14s4.77,2.09,6.7,4.92,6,26.15,6,26.15L571,69.09Z"/><path class="cls-25" d="M567,82.73c-2.15,2.32-4.51,4.12-6.68,4.09-4.52-.06-8.38-8.3-10.09-12.59l.54-18.13.21-6.87.41.34,3.91,3.16s.22,22.12,2.16,21.9A12.86,12.86,0,0,0,562,72.55S562.33,82.73,567,82.73Z"/><path class="cls-11" d="M589.75,65.12a4.58,4.58,0,0,0,1.79-3.41c.06-1.58-.75-3.42-4.46-4.09-6.19-1.12-20.67,2.23-19.64,6.67a2.18,2.18,0,0,0,2.28,1.62c1-.06,2.25,0,2.16.71-.14,1.13-3.49.88-3.84,2.1S576.1,75.82,589.75,65.12ZM573.47,66c-.26-.55.45-1.45,1.6-2s2.3-.55,2.56,0-.45,1.45-1.6,2S573.73,66.52,573.47,66Z"/><path class="cls-16" d="M576.78,63.56a1.33,1.33,0,0,1-.13.24,16.29,16.29,0,0,0-.76,2.07l-.22.25c-.93.36-1.8.34-2.12,0a15.59,15.59,0,0,1,2-2.3,5.18,5.18,0,0,1,1.34-1.12C577.06,62.71,576.95,63.21,576.78,63.56Z"/><path class="cls-18" d="M575.95,68.56c.05.08.12.15.17.24a2,2,0,0,1,.13.42,1,1,0,0,0,1.13.66,8.37,8.37,0,0,0,.84-.37c.34-.12.72-.08,1.07-.19a1.21,1.21,0,0,0,.82-.86,1,1,0,0,0-.45-1.07,2.57,2.57,0,0,1-.26-.14,1.62,1.62,0,0,1-.27-.3,1.65,1.65,0,0,0-1.4-.57,1.72,1.72,0,0,0-1.28.76C576.17,67.54,575.62,68,575.95,68.56Z"/><path class="cls-14" d="M583.92,63.88c-.1,0-.2,0-.29,0a2,2,0,0,1-.41-.16,1,1,0,0,0-1.21.5,8.38,8.38,0,0,0-.21.89c-.11.34-.37.62-.49,1a1.21,1.21,0,0,0,.19,1.17,1,1,0,0,0,1.13.29,2.56,2.56,0,0,1,.27-.12,1.62,1.62,0,0,1,.4,0,1.65,1.65,0,0,0,1.3-.77,1.72,1.72,0,0,0,.17-1.48C584.6,64.67,584.54,63.93,583.92,63.88Z"/><path class="cls-12" d="M588.47,60.81c-.1,0-.2,0-.29,0a2,2,0,0,1-.41-.16,1,1,0,0,0-1.21.5,8.38,8.38,0,0,0-.21.89c-.11.34-.37.62-.49,1a1.21,1.21,0,0,0,.19,1.17,1,1,0,0,0,1.13.29,2.56,2.56,0,0,1,.27-.12,1.62,1.62,0,0,1,.4,0,1.65,1.65,0,0,0,1.3-.77,1.72,1.72,0,0,0,.17-1.48C589.15,61.6,589.09,60.86,588.47,60.81Z"/><path class="cls-20" d="M585.71,60.17c0-.09,0-.17,0-.26a1.74,1.74,0,0,1,.1-.38.88.88,0,0,0-.55-1,7.39,7.39,0,0,0-.8-.1c-.31-.07-.58-.27-.89-.34a1.07,1.07,0,0,0-1,.27.89.89,0,0,0-.15,1,2.27,2.27,0,0,1,.13.22,1.43,1.43,0,0,1,.07.35,1.46,1.46,0,0,0,.79,1.07,1.52,1.52,0,0,0,1.32,0C585.08,60.84,585.72,60.72,585.71,60.17Z"/><path class="cls-13" d="M578.83,59.69c-.06-.07-.13-.12-.18-.18a1.74,1.74,0,0,1-.16-.35.88.88,0,0,0-1.07-.44,7.39,7.39,0,0,0-.69.43c-.28.15-.62.16-.91.3a1.07,1.07,0,0,0-.61.85.89.89,0,0,0,.53.88,2.26,2.26,0,0,1,.24.09,1.42,1.42,0,0,1,.27.23,1.46,1.46,0,0,0,1.29.32,1.52,1.52,0,0,0,1-.82C578.77,60.61,579.19,60.11,578.83,59.69Z"/><path class="cls-13" d="M545.05,38a6.49,6.49,0,0,0,.68,2.49s1.27.79,1.49,1.32c0,0,2.38,11.1,2,15.79s-1.71,25.48-1.71,25.48l.74,7.45s3.8.15,4.77-.22c0,0,4.1-35.31,3.2-41.42,0,0,0-2.68-6.41-6l-3.05-3S545.72,38.1,545.05,38Z"/><g class="cls-22"><path class="cls-13" d="M554,81.12c0-2.4.07-4.79.14-7.19s.17-4.79.26-7.18.22-4.79.36-7.18L555,56c.09-1.19.16-2.39.26-3.58,0,1.2,0,2.4,0,3.59l-.09,3.59c-.07,2.39-.17,4.79-.26,7.18s-.22,4.79-.36,7.18S554.23,78.73,554,81.12Z"/><path class="cls-13" d="M559.62,75.2a12.92,12.92,0,0,1,1.43-.9q.74-.4,1.5-.75l0,.4a14.47,14.47,0,0,1-2.17-.88,14.46,14.46,0,0,1,2.3.46.21.21,0,0,1,0,.4h0q-.75.38-1.52.7A12.93,12.93,0,0,1,559.62,75.2Z"/><path class="cls-13" d="M550.13,43.46a6.92,6.92,0,0,1,1.05,1.73,7.46,7.46,0,0,1,.34,1,3.72,3.72,0,0,1,.17,1,16.11,16.11,0,0,1-.92-1.78A9.85,9.85,0,0,1,550.13,43.46Z"/><path class="cls-13" d="M548.77,45a3.16,3.16,0,0,0,.32,1.54,6.52,6.52,0,0,0,.83,1.33,10,10,0,0,1,1.8,2.73,6.17,6.17,0,0,1,.28,1.64,11.82,11.82,0,0,1,0,1.63,14,14,0,0,1-.22,1.61,11.77,11.77,0,0,1-.45,1.56,18.2,18.2,0,0,0,.33-3.18c0-.53,0-1.06-.06-1.59a6,6,0,0,0-.28-1.52,12.27,12.27,0,0,0-1.65-2.68,6.62,6.62,0,0,1-.76-1.45A3,3,0,0,1,548.77,45Z"/></g><path class="cls-13" d="M535.56,39.12a9.06,9.06,0,0,0-1.45.84s2.53,9.54,1.94,12.51c-.46,2.31-2.14,23.63-2.86,33.07-.21,2.74-.34,4.47-.34,4.47s-10.58,1.86-17.21-1.26c0,0,0-3.91,0-9.09.08-7,.36-16.32,1.17-21.45,1.41-8.94,3.5-16,9.68-17.58,0,0,3.51-3.58,10.74-4l0,.15A4.72,4.72,0,0,1,535.56,39.12Z"/><path class="cls-25" d="M533.19,85.55c-.21,2.74-.34,4.47-.34,4.47s-10.58,1.86-17.21-1.26c0,0,0-3.91,0-9.09C519.33,83.2,525.53,87.39,533.19,85.55Z"/><path class="cls-11" d="M548.64,76.36a1.09,1.09,0,0,0,.33.77c.19.21.43.38.63.58a1.27,1.27,0,0,1,.42.73,1,1,0,0,0,.22-.26,1.33,1.33,0,0,0-.16-1.26,1.7,1.7,0,0,0-1.09-.77C548.85,76.14,548.64,76.23,548.64,76.36Z"/><path class="cls-11" d="M535.9,63.21l11.85,12.41.47-.47L536.1,63a.14.14,0,0,0-.18,0h0A.14.14,0,0,0,535.9,63.21Z"/><polygon class="cls-12" points="547.55 75.43 548.69 76.69 549.29 76.19 548 74.88 547.55 75.43"/><path class="cls-16" d="M539,75.23s3-2.19,3.32-2.34a21.34,21.34,0,0,1,2.54-1.25,1.4,1.4,0,0,1,1.69.59.76.76,0,0,1,.06.73s.41.53.09,1c0,0,.4.56-.28,1.39,0,0,.25.67-.16,1a43,43,0,0,1-5.24,1.55,3.8,3.8,0,0,1-2.22-.08h0C538.35,77.61,539,75.23,539,75.23Z"/><path class="cls-16" d="M519.35,72.88A11.42,11.42,0,0,0,514,74.64a14.35,14.35,0,0,0,.3,5.67l.12.46a.93.93,0,0,0,.67.68h0a22.85,22.85,0,0,0,5.14.8c3.2-.21,21.61-3.14,22.4-5.9S522.38,73,519.35,72.88Z"/><path class="cls-13" d="M526.51,40.63a15.89,15.89,0,0,0-6.78,6.93c-2.16,4.69-8.34,27.78-7.23,32s15,2.91,17.88,2.46,10.21-3.13,10.21-3.13l-1.19-5.07L524.58,72l10.88-21.16Z"/><g class="cls-22"><path class="cls-13" d="M534.48,73.3c-1,0-2-.13-3-.22s-2-.21-3-.34-2-.27-3-.44L524,72c-.49-.1-1-.19-1.48-.3.5,0,1,.06,1.51.09l1.5.13c1,.09,2,.21,3,.34s2,.27,3,.44S533.5,73.08,534.48,73.3Z"/><path class="cls-13" d="M523.31,69.83a4.43,4.43,0,0,1,1.12,1,4.38,4.38,0,0,1,.78,1.26,4.38,4.38,0,0,1-1.12-1A4.43,4.43,0,0,1,523.31,69.83Z"/><path class="cls-13" d="M525.32,70.84c.33-1.22.71-2.43,1.1-3.63s.79-2.4,1.21-3.59.85-2.38,1.31-3.56l.69-1.77c.24-.58.47-1.17.73-1.75-.16.61-.35,1.22-.53,1.82l-.57,1.81c-.38,1.21-.79,2.4-1.21,3.59s-.85,2.38-1.31,3.56S525.83,69.68,525.32,70.84Z"/><path class="cls-13" d="M525.43,41.9a10.14,10.14,0,0,1,3.07,2.49A9.09,9.09,0,0,1,529.62,46a6.38,6.38,0,0,1,.62,1.89,14.06,14.06,0,0,0-.92-1.71,15.62,15.62,0,0,0-1.15-1.55c-.41-.49-.85-1-1.31-1.42S525.93,42.34,525.43,41.9Z"/><path class="cls-13" d="M515.71,82c.73.11,1.47.2,2.2.26s1.47.12,2.21.15c1.47.06,2.94.07,4.41,0,.74,0,1.47-.1,2.2-.15s1.46-.15,2.19-.27l1.09-.17,1.08-.22c.73-.12,1.43-.34,2.16-.49A25.49,25.49,0,0,1,529,82.34c-.73.17-1.47.24-2.2.36s-1.48.15-2.22.17a31.23,31.23,0,0,1-4.46-.1A25.46,25.46,0,0,1,515.71,82Z"/><path class="cls-13" d="M515.94,87.49c.68.13,1.36.27,2.05.37s1.37.23,2.06.32c1.37.18,2.75.34,4.13.43s2.76.14,4.15.13l1,0,1-.06c.7,0,1.38-.13,2.08-.17a23.88,23.88,0,0,1-4.14.6,30.9,30.9,0,0,1-4.19,0,37,37,0,0,1-4.15-.54A30.2,30.2,0,0,1,515.94,87.49Z"/><path class="cls-13" d="M533.47,44a2.23,2.23,0,0,0,.35,1.78,7.4,7.4,0,0,1,.72,1.79,6.36,6.36,0,0,1-.27,3.85A11.44,11.44,0,0,0,533,54.9a5.1,5.1,0,0,0,.16,1.83,5.31,5.31,0,0,0,.78,1.7,4.85,4.85,0,0,1-1-1.64,5.32,5.32,0,0,1-.29-1.92,5.2,5.2,0,0,1,.44-1.9c.25-.6.55-1.15.78-1.73a6.55,6.55,0,0,0,.35-3.61,7.27,7.27,0,0,0-.58-1.77,4.41,4.41,0,0,1-.28-.92A1.43,1.43,0,0,1,533.47,44Z"/></g><path class="cls-21" d="M549.81,25.48v0a7.81,7.81,0,0,0-.27-1.29c-1.12-3.63-4.7-5.75-8-4.74a6.43,6.43,0,0,0-4.24,7,1.2,1.2,0,0,0-1-.08c-.55.27-.78,4.21,1.72,4.17a8,8,0,0,0,1.87,3.42,5.79,5.79,0,0,0,7.32.7,5.26,5.26,0,0,0,1.27-1.24,8,8,0,0,0,1.39-3.48A12.78,12.78,0,0,0,549.81,25.48Z"/><circle class="cls-26" cx="541.18" cy="30.61" r="2.06" transform="translate(427.94 560.69) rotate(-81.18)"/><path class="cls-26" d="M549.83,29.91a8,8,0,0,1-1.39,3.48,2,2,0,0,1-.55-1.74A2.06,2.06,0,0,1,549.83,29.91Z"/><path class="cls-27" d="M536.78,28.22a1.67,1.67,0,0,1-.23-.89.66.66,0,0,1,.23-.5.63.63,0,0,1,.59,0,1.27,1.27,0,0,1,.66.8c.1.3.18.58.25.88a3.4,3.4,0,0,1,.08,1,.63.63,0,0,1-.12.33.4.4,0,0,1-.46.11.85.85,0,0,1-.39-.42,1.58,1.58,0,0,1-.16-1,.88.88,0,0,1,.55-.73.84.84,0,0,0-.31.75,1.29,1.29,0,0,0,.25.74c.07.1.19.21.22.21s-.05,0-.06,0,0,0,0-.09a3.22,3.22,0,0,0-.1-.81c-.15-.54-.22-1.22-.59-1.44S536.66,27.69,536.78,28.22Z"/><ellipse class="cls-28" cx="545.53" cy="29.31" rx="0.1" ry="0.19" transform="translate(489.13 572.71) rotate(-87.15)"/><path class="cls-27" d="M545.9,27.91c.15.41.23.74.37,1.14a.82.82,0,0,1-.13.7.58.58,0,0,1-.63.2.7.7,0,0,0,.38-.36.61.61,0,0,0,0-.45,3.61,3.61,0,0,1-.1-.6A1.53,1.53,0,0,1,545.9,27.91Z"/><path class="cls-27" d="M545.13,29.86a.26.26,0,0,1-.28-.06.26.26,0,0,1,0-.29.3.3,0,0,1,.28.06A.31.31,0,0,1,545.13,29.86Z"/><path class="cls-27" d="M544.38,31.65a6.65,6.65,0,0,1,1.17.18.92.92,0,0,1-.62.13A.82.82,0,0,1,544.38,31.65Z"/><path class="cls-27" d="M543.56,30.26a4.74,4.74,0,0,0,1.55.51,7.53,7.53,0,0,0,1.65,0,2.05,2.05,0,0,1-.79.44,2.14,2.14,0,0,1-.93.08A1.94,1.94,0,0,1,543.56,30.26Z"/><path class="cls-27" d="M547.56,28.53a1.33,1.33,0,0,1-.18.51,2,2,0,0,0-.52,0,1.2,1.2,0,0,1-.07-.68c.07-.44.3-.76.51-.73S547.63,28.1,547.56,28.53Z"/><path class="cls-27" d="M547,26.17a.63.63,0,0,1,.78-.49,2.07,2.07,0,0,1,.82.28,1.73,1.73,0,0,1,.87,1.36.28.28,0,0,1-.4.26l0,0a4.39,4.39,0,0,0-.54-.26,2.63,2.63,0,0,0-.45-.14,3.62,3.62,0,0,0-.43-.06c-.15,0-.27,0-.51-.44L547,26.5A.39.39,0,0,1,547,26.17Z"/><path class="cls-27" d="M547,26a2.11,2.11,0,0,1,.18.29l.07.12a1.37,1.37,0,0,0,.11.14.3.3,0,0,1-.37-.16A.38.38,0,0,1,547,26Z"/><path class="cls-27" d="M544.25,28a1.16,1.16,0,0,1-.27.63,2,2,0,0,0-.48-.21,1.33,1.33,0,0,1,0-.54c.07-.44.3-.76.51-.73S544.31,27.58,544.25,28Z"/><path class="cls-27" d="M544.51,26.26c-.35.33-.48.32-.62.27a3.63,3.63,0,0,0-.43-.07,2.63,2.63,0,0,0-.47,0,4.39,4.39,0,0,0-.59.09h0a.28.28,0,0,1-.32-.23.28.28,0,0,1,0-.15,1.73,1.73,0,0,1,1.24-1,2.07,2.07,0,0,1,.86,0c.28,0,.57.17.6.7a.39.39,0,0,1-.12.3Z"/><path class="cls-27" d="M544.81,25.68a2.11,2.11,0,0,0-.26.22l-.1.1-.15.1a.3.3,0,0,0,.4,0A.38.38,0,0,0,544.81,25.68Z"/><path class="cls-27" d="M534.53,30.19a3.8,3.8,0,0,0,1.48,4.1,5.66,5.66,0,0,0,1.88.91c.38-.88.67-1.7.87-2.24l.11-.32h0A9.85,9.85,0,0,1,538,30.5c-2,0-2.25-2.5-2-3.64-.31.58-.46,1.26-.74,1.86S534.71,29.67,534.53,30.19Z"/><path class="cls-27" d="M550.45,28.48a16.54,16.54,0,0,1-.51-2.86,1.57,1.57,0,0,0-.09-.42,8.51,8.51,0,0,0-2.7-4.88c-1.92-1.6-4.6-1.6-7-.73s-3.63,4.6-3.95,5.23a5.23,5.23,0,0,0-.2,2s.12-1.22,1.32-.64,2.14,3,2.14,3c.71-.67.86-3,.91-3a5.58,5.58,0,0,0,4.25-1.62,13.07,13.07,0,0,0,5.3,1.56,13,13,0,0,1-.08,3.8,8.79,8.79,0,0,1-.85,2.61,3.59,3.59,0,0,1-.21.36,4,4,0,0,1-.25.38l.15,0a3,3,0,0,0,2-2.17A5.84,5.84,0,0,0,550.45,28.48Z"/><path class="cls-11" d="M550.13,25.35a4.6,4.6,0,0,1-.06.69c-6.42-2.63-14.3,1.34-14.3,1.34a2.44,2.44,0,0,1-.17-2.23c-.89-.17-1.2-2.54-.78-2.91h0c.33-.31.43-1.54,1.78-3.54,1.45-2.15,7.37-1.14,9.72.36a9.68,9.68,0,0,1,3,3.71l.19.39c.24.5.35.82.35.82A3.55,3.55,0,0,1,550.13,25.35Z"/><path class="cls-29" d="M550.13,25.35a4.6,4.6,0,0,1-.06.69c-6.42-2.63-14.3,1.34-14.3,1.34a2.44,2.44,0,0,1-.17-2.23c-.89-.17-1.2-2.54-.78-2.91h0a3.21,3.21,0,0,0,.13.4c.23.56.7,1.12,1.3,1.09s.86-.42,1.28-.67c1.11-.7,2.55-.44,3.84-.69.94-.18,1.82-.64,2.77-.8a9,9,0,0,1,3.92.52,3.3,3.3,0,0,1,.93.37,1.44,1.44,0,0,1,.36.32,1,1,0,0,1,.19.39.63.63,0,0,1,0,.09q-4.09.48-8.16,1.1c-.25,0-.57.19-.49.42a.4.4,0,0,0,.25.22,5.37,5.37,0,0,0,3.14-.15,11.38,11.38,0,0,1,3.73-.14A5.2,5.2,0,0,1,550.13,25.35Z"/><g class="cls-22"><path class="cls-11" d="M535.59,25a4.6,4.6,0,0,1,1.51-.94c.55-.22,1.11-.43,1.67-.62a24,24,0,0,1,7-1.22,12.85,12.85,0,0,1,1.79.07,5.29,5.29,0,0,1,1.71.5,6,6,0,0,0-1.73-.29,13,13,0,0,0-1.75.06c-1.17.1-2.33.24-3.49.44s-2.3.46-3.43.76c-.57.15-1.13.32-1.69.5A5.09,5.09,0,0,0,535.59,25Z"/><path class="cls-11" d="M535.48,21.56a1.27,1.27,0,0,0,.9,1c.23.06.48.1.76.18a1.34,1.34,0,0,1,.75.52.84.84,0,0,1,.15.5.9.9,0,0,1-.17.46c-.07.11-.09.17-.08.19s.1.13.2.23a2.82,2.82,0,0,1,.74,1.42,4.39,4.39,0,0,0-1-1.17,1,1,0,0,1-.32-.34.49.49,0,0,1,0-.32,1.09,1.09,0,0,1,.1-.22.53.53,0,0,0,.1-.26.41.41,0,0,0-.08-.23c-.21-.36-.73-.4-1.26-.61A1.26,1.26,0,0,1,535.48,21.56Z"/></g><path class="cls-13" d="M668,115.86l8.72,60.23h4.8s7.26-22.35.67-37l1.68-22.68Z"/><path class="cls-15" d="M682.81,180.89h-2.18l-.56-.56v.56H669s-.06-1.62,2.12-2.07l5-3-.73-6.15a2.3,2.3,0,0,1,2.12.22c.78.73,3.41,1.06,3.41,1.06l.22,1.17.67-1.34,1.56.11-1.51,6.31A6.13,6.13,0,0,1,682.81,180.89Z"/><path class="cls-18" d="M681.19,172.29A27.87,27.87,0,0,1,681,176a27.55,27.55,0,0,1-.67,3.69,27.56,27.56,0,0,1,.23-3.74A27.88,27.88,0,0,1,681.19,172.29Z"/><path class="cls-18" d="M669.4,180.22c1.7-.17,3.39-.2,5.09-.2a50.71,50.71,0,0,1,5.08.25,50.69,50.69,0,0,1-5.09.2C672.79,180.46,671.1,180.41,669.4,180.22Z"/><path class="cls-13" d="M703.87,174,700,175.42S689.59,156,684.85,146.67a51.28,51.28,0,0,1-2.32-4.89c-.34-1.68-.89-29.16-.89-29.16l16.65,2.91-1.4,7.48-3.07,16.32s4.8,7.6,6.15,10.61S703.87,174,703.87,174Z"/><path class="cls-17" d="M681.81,121.06c.14,2,.23,4,.31,6s.12,4,.19,6l0,3,0,1.51v.76c0,.13,0,.24,0,.36l.06.36c.2,1,.48,1.95.76,2.91s.58,1.93.87,2.9a46.55,46.55,0,0,1-2-5.74l-.08-.38c0-.13,0-.27,0-.4l0-.76,0-1.51-.09-3c0-2-.07-4-.08-6.05S681.76,123.08,681.81,121.06Z"/><path class="cls-15" d="M707,175.61l-2,.85-.73-.3.22.51L694.25,181s-.68-1.47,1.15-2.73l3.46-4.73-3.06-5.38s1-1,2-.62,3.55-.35,3.55-.35l.66,1,.1-1.5,1.48-.5,1.06,6.4A6.13,6.13,0,0,1,707,175.61Z"/><path class="cls-18" d="M694.54,179.94a49.85,49.85,0,0,1,4.55-2.11,49.28,49.28,0,0,1,4.72-1.69,49.26,49.26,0,0,1-4.55,2.11A49.84,49.84,0,0,1,694.54,179.94Z"/><path class="cls-18" d="M702.14,168.43a27.64,27.64,0,0,1,1.17,3.55,27.32,27.32,0,0,1,.73,3.66,27.32,27.32,0,0,1-1.17-3.55A27.65,27.65,0,0,1,702.14,168.43Z"/><polygon class="cls-11" points="702.09 120.89 693.26 120.89 692.14 119.22 687.23 119.22 686.44 120.78 677.84 120.78 677.28 119.33 672.03 119.33 671.36 120.56 663.31 120.56 666.18 103.96 668.79 88.82 697.51 90.28 698.93 99.79 702.09 120.89"/><path class="cls-30" d="M702.09,120.89h-8.83l-1.12-1.68h-4.92l-.78,1.56h-8.6l-.56-1.45H672l-.67,1.23h-8l2.86-16.6.79.34-2.52,14.58,6.6.11,2.18-18.49,3.52.12,1.79,19.55,7.37-.33L688,100.22l4.3.39,1.39,19.61,6.09-.22-2.57-20.22,1.73,0Z"/><g class="cls-22"><path class="cls-11" d="M672,119.33c0-1.08.1-2.16.18-3.24s.19-2.15.3-3.23.25-2.15.4-3.22l.24-1.6c.1-.53.18-1.07.29-1.6,0,.54,0,1.08-.07,1.62l-.11,1.62c-.08,1.08-.19,2.15-.3,3.23s-.25,2.15-.41,3.22S672.16,118.26,672,119.33Z"/><path class="cls-11" d="M677.24,119.1c-.18-1-.31-2.06-.43-3.1s-.22-2.07-.31-3.11-.16-2.07-.21-3.11l-.07-1.56c0-.52,0-1,0-1.56.09.51.16,1,.24,1.55l.19,1.55c.13,1,.22,2.07.31,3.11s.16,2.07.21,3.11S677.25,118.06,677.24,119.1Z"/><path class="cls-11" d="M687.22,119.18c0-1,.09-2.08.17-3.11s.18-2.07.28-3.1.23-2.06.39-3.09l.23-1.54c.09-.51.17-1,.28-1.53,0,.52,0,1-.06,1.56l-.11,1.55c-.07,1-.18,2.07-.28,3.1s-.23,2.06-.39,3.09S687.43,118.16,687.22,119.18Z"/><path class="cls-11" d="M692.07,118.88c-.17-1-.3-2-.41-3s-.21-2-.29-3-.15-2-.19-3l-.06-1.52c0-.51,0-1,0-1.53.09.5.15,1,.23,1.51l.18,1.51c.12,1,.21,2,.29,3s.15,2,.19,3S692.08,117.86,692.07,118.88Z"/><path class="cls-11" d="M698.62,105.69c.28,1.23.52,2.47.75,3.72s.43,2.49.63,3.74.37,2.5.53,3.75l.23,1.88c.06.63.13,1.26.18,1.89-.15-.62-.26-1.24-.4-1.85l-.35-1.86c-.23-1.24-.43-2.49-.63-3.74s-.37-2.5-.53-3.75S698.72,107,698.62,105.69Z"/><path class="cls-11" d="M666.89,105.84c-.1,1.24-.25,2.48-.41,3.71s-.34,2.47-.53,3.7-.4,2.46-.63,3.68l-.35,1.83c-.13.61-.25,1.22-.4,1.83,0-.62.12-1.24.18-1.86l.23-1.85c.15-1.24.34-2.47.53-3.7s.4-2.46.63-3.68S666.61,107.06,666.89,105.84Z"/></g><path class="cls-31" d="M671.77,44.89q.46.45.93.87c.57.29,1.14.56,1.75.81a43.2,43.2,0,0,0,5.07,1.77,23.33,23.33,0,0,0,5.5-.2,21,21,0,0,0,7.4-2.71l.36-.41.46-.76c-2-.82-3.59-1.62-4.6-2.14a4.41,4.41,0,0,1-2.35-3.3,13.86,13.86,0,0,1-.08-2.83l-1.64.1h0l-1.63.1-1.63-.1h0l-1.64-.1a14,14,0,0,1-.05,2.67,4.65,4.65,0,0,1-2.52,3.52c-1.21.62-3.17,1.57-5.48,2.49Z"/><path class="cls-32" d="M686.2,36c0,.11,0,.42,0,.85A4.94,4.94,0,0,1,684,38a6.11,6.11,0,0,1-.8.13h-.79a6.49,6.49,0,0,1-.76-.12,4.87,4.87,0,0,1-2-1c0-.37,0-.66,0-.84a4.91,4.91,0,0,0,2,1,6.49,6.49,0,0,0,.76.12h.79a6.12,6.12,0,0,0,.8-.13A5,5,0,0,0,686.2,36Z"/><path class="cls-12" d="M699.89,97.49l1,8.09H664.32l5.47-33.45-1.56-7.76v0h-7.49a39.23,39.23,0,0,1,.14-10.63,10.25,10.25,0,0,1,6.83-7.93l5.65-1.88a1.83,1.83,0,0,1,1.9-1.12,20.07,20.07,0,0,0,15.42,0,5.17,5.17,0,0,1,2.91,1.12s9.16,4.13,10.61,6.15c1.11,1.53,3.39,10.42,4.41,14.54l.51,2.11-12.29,5.36Z"/><path class="cls-33" d="M668.23,64.35h-7.49a39.23,39.23,0,0,1,.14-10.63,10.22,10.22,0,0,1,1.29-3.46c-.23,3.93-.28,10.88,2.11,11.52C667.64,62.67,668.23,64.35,668.23,64.35Z"/><path class="cls-33" d="M700.86,105.58H664.32l5.47-33.45-1.56-7.76c.25.89,8.47,30.12,16.94,28.8l-3.8,3.91s10.4,3.36,18.51.4Z"/><path class="cls-33" d="M709.13,66.7l-12.29,5.36-2.09-14s7.33,8.85,13.87,6.57Z"/><rect class="cls-20" x="674.71" y="59.58" width="17.58" height="19.59"/><g class="cls-22"><path class="cls-12" d="M697,71.28c-.28-1.09-.51-2.19-.73-3.29s-.42-2.2-.61-3.31-.36-2.21-.51-3.32l-.22-1.67c-.06-.56-.13-1.11-.17-1.68.14.54.26,1.09.39,1.64l.34,1.65c.23,1.1.42,2.2.61,3.31s.36,2.21.51,3.32S696.89,70.16,697,71.28Z"/><path class="cls-12" d="M674,44.54a22.62,22.62,0,0,0,2.32.72c.39.11.78.19,1.17.29l1.19.23a27.1,27.1,0,0,0,4.8.4c.8,0,1.6-.06,2.4-.12l1.19-.17.6-.09.59-.13c.39-.09.79-.16,1.18-.27l1.15-.37c.19-.06.39-.11.58-.18l.56-.23,1.13-.45A18,18,0,0,1,688.3,46l-.59.16-.6.11-1.21.2a23.9,23.9,0,0,1-2.45.15,22.16,22.16,0,0,1-4.87-.51A20.17,20.17,0,0,1,674,44.54Z"/><path class="cls-12" d="M666.89,59.44a7,7,0,0,1-.34-1.26c-.09-.42-.14-.85-.2-1.28a13,13,0,0,1-.06-2.6,13.57,13.57,0,0,1,.5,2.55A16.8,16.8,0,0,1,666.89,59.44Z"/></g><path class="cls-18" d="M696.7,75.17c-6.77,0-4.28-5.42-9.88-8.51-5-2.78-10.25,2.75-11.26,3.9s-6,6.92-2.65,11.62c3.69,5.23,8.84,2.16,9.54,8.89.66,6.38,11.24,19.31,22.8,6.1C717.12,84.24,703.12,75.13,696.7,75.17Z"/><path class="cls-14" d="M688.69,76.87a4.07,4.07,0,1,1-3.23-1A4.07,4.07,0,0,1,688.69,76.87Z"/><path class="cls-11" d="M685.46,75.86a4.06,4.06,0,0,0-3.55,4l-26.68-25.2,2.28-2.54Z"/><rect class="cls-31" x="651.86" y="47.43" width="2.71" height="0.57" transform="translate(181.68 502.27) rotate(-48.13)"/><path class="cls-12" d="M653.75,46.73s-.41-.68,0-.94,1.55.87,1.41,1.18-.95.12-.95.12Z"/><rect class="cls-31" x="653.33" y="48.75" width="2.71" height="0.57" transform="translate(181.19 503.81) rotate(-48.13)"/><path class="cls-12" d="M655.22,48s-.41-.68,0-.94,1.55.87,1.41,1.18-.95.12-.95.12Z"/><rect class="cls-31" x="654.8" y="50.07" width="2.71" height="0.57" transform="translate(180.69 505.34) rotate(-48.13)"/><path class="cls-12" d="M656.69,49.36s-.41-.68,0-.94,1.55.87,1.41,1.18-.95.12-.95.12Z"/><rect class="cls-31" x="649.06" y="50.55" width="2.71" height="0.57" transform="translate(1122.42 -399.55) rotate(131.87)"/><path class="cls-12" d="M649.5,51.47s-.72-.33-.94.07,1,1.44,1.33,1.28,0-1,0-1Z"/><rect class="cls-31" x="650.54" y="51.87" width="2.71" height="0.57" transform="translate(1125.85 -398.45) rotate(131.87)"/><path class="cls-12" d="M651,52.79s-.72-.33-.94.07,1,1.44,1.33,1.28,0-1,0-1Z"/><rect class="cls-31" x="652.01" y="53.19" width="2.71" height="0.57" transform="translate(1129.29 -397.34) rotate(131.87)"/><path class="cls-12" d="M652.44,54.11s-.72-.33-.94.07,1,1.44,1.33,1.28,0-1,0-1Z"/><path class="cls-13" d="M650.07,45.77l-1.93,2.15,0,2.1L654,55.19,655.7,55,658,52.51l0-1.75-5.77-5.17Zm5.2,7.72-.7.79-5.23-4.68.7-.79Zm1.82-2-.7.79-5.23-4.68.7-.79Z"/><rect class="cls-20" x="674.8" y="43.92" width="0.15" height="56.66" transform="translate(167.75 523.36) rotate(-47.77)"/><rect class="cls-20" x="674.27" y="41.28" width="0.15" height="59" transform="translate(169.22 523.11) rotate(-47.84)"/><rect class="cls-20" x="674.06" y="39.12" width="0.15" height="60.92" transform="translate(171.97 524.69) rotate(-48.08)"/><rect class="cls-20" x="677.19" y="41.3" width="0.15" height="56.61" transform="translate(174.2 528.37) rotate(-48.23)"/><rect class="cls-20" x="675.74" y="39.75" width="0.15" height="58.97" transform="translate(173.86 527.01) rotate(-48.21)"/><rect class="cls-20" x="674.59" y="38.58" width="0.15" height="61" transform="translate(172.52 524.93) rotate(-48.08)"/><rect class="cls-34" x="693.6" y="89.04" width="6.34" height="0.97" transform="translate(165.03 548.61) rotate(-48.13)"/><rect class="cls-32" x="687.4" y="84.65" width="2.21" height="0.11" transform="translate(53.3 363.5) rotate(-30.71)"/><rect class="cls-32" x="685.63" y="82.16" width="2.51" height="0.11" transform="translate(27.08 290.14) rotate(-24.32)"/><path class="cls-31" d="M710,76.08a22.18,22.18,0,0,0-.91-6.23c-.18-1-.36-1.95-.55-2.9l-10.5,4.58c.8,1.51,1.61,3,2.42,4.44-2.29,1.18-4.68,2.49-6.6,3.73L689.69,79l-1.34.64a23.93,23.93,0,0,0-3.11,2.39c0,.2.5.68.5.68s-.76.06-.77.47a1.22,1.22,0,0,0,.74.94,1.91,1.91,0,0,0,.55-.15,3.28,3.28,0,0,0,.1,1.15c.09.13,1.19.14,1.19.14s0,.25.42.51,2.68-1,2.68-1a17.26,17.26,0,0,0,2.25-.58l.3-.14a91.87,91.87,0,0,0,12.35-2.26A6.09,6.09,0,0,0,710,76.2S710,76.12,710,76.08Zm-22.87,8-.2-.31c.7-.28,1.45-.61,1.45-.61Z"/><path class="cls-32" d="M700.11,75.3a6.83,6.83,0,0,1,1.59-.95,6.75,6.75,0,0,1,1.77-.54,6.75,6.75,0,0,1-1.59.95A6.82,6.82,0,0,1,700.11,75.3Z"/><path class="cls-31" d="M669.2,75.73l.59-3.6h0l-1-4.67-3.28-3.1h-1.31l-2.35-3.29h0l-.12-.17-1.2-1.74a2.87,2.87,0,0,1,.42-.54,1.82,1.82,0,0,0,.61-.92.28.28,0,0,0-.19-.2,2.42,2.42,0,0,0-.17-.62,2.48,2.48,0,0,0-.9-.27,9,9,0,0,0-1.43.81l0-.28.89-.69c.82.27.86-.39.86-.39a8.62,8.62,0,0,0-1.18-.52,1.36,1.36,0,0,0-.51.25,2.41,2.41,0,0,0-1,.11,3.1,3.1,0,0,0-1.08,1.31,12,12,0,0,0,1.26,2.89c.32.48,1.35,2.61,1.72,3.39.58,3.39-.1,7.4.37,10.33v.07c0,.22.08.44.13.66a2.2,2.2,0,0,0,.26.57c1.72,2.88,6.54,5,8.23,2.17l.06,0,0-.1h0A4.18,4.18,0,0,0,669.2,75.73ZM660,58.24c-.05.07-.39.6-.55.86l-.13-.09a9.48,9.48,0,0,1,.49-1,6.88,6.88,0,0,1,.93-.56l.11.19C660.6,57.82,660.1,58.17,660,58.24Z"/><path class="cls-32" d="M661.23,61.28l.09-.07a7.71,7.71,0,0,0-.69-.79,2.27,2.27,0,0,1-.37-.83c.18-.25.76-.95.77-1l-.09-.07s-.62.75-.79,1v0a2.5,2.5,0,0,0,.41.92A7.84,7.84,0,0,1,661.23,61.28Z"/><rect class="cls-32" x="658.07" y="57.8" width="1.14" height="0.11" transform="translate(322.88 627.44) rotate(-64.5)"/><path class="cls-32" d="M657.72,57.88h.11a8,8,0,0,1,.09-1.27,8,8,0,0,1,1-.78l-.07-.09a7.6,7.6,0,0,0-1,.82A8.12,8.12,0,0,0,657.72,57.88Z"/><path class="cls-32" d="M664.28,64.39A41,41,0,0,1,667,68a40.46,40.46,0,0,1,2.33,3.9,40.46,40.46,0,0,1-2.7-3.66A40.94,40.94,0,0,1,664.28,64.39Z"/><path class="cls-31" d="M690.36,28.53a1.38,1.38,0,0,0-1.25.08c0-.22,0-.44,0-.67,0-3.8-2.8-6.88-6.26-6.88s-6.26,3.08-6.26,6.88h0s0,.16,0,.34v0c0,.08,0,.18,0,.28a1.37,1.37,0,0,0-1.24-.08c-.53.33-.59,4.33,2,4A7.89,7.89,0,0,0,679.47,36a5,5,0,0,0,2.21,1.15,6.49,6.49,0,0,0,.76.12h.79a6.11,6.11,0,0,0,.8-.13A5,5,0,0,0,686.25,36a7.91,7.91,0,0,0,2.11-3.51C690.95,32.9,690.88,28.86,690.36,28.53Z"/><path class="cls-27" d="M675.73,30.55a1.67,1.67,0,0,1-.37-.84.66.66,0,0,1,.15-.53.63.63,0,0,1,.58-.14,1.27,1.27,0,0,1,.77.69c.15.28.26.54.39.83a3.4,3.4,0,0,1,.23.93.63.63,0,0,1-.07.35A.4.4,0,0,1,677,32a.85.85,0,0,1-.45-.36,1.58,1.58,0,0,1-.31-.93.88.88,0,0,1,.43-.8.84.84,0,0,0-.19.78,1.29,1.29,0,0,0,.36.7.7.7,0,0,0,.25.18s-.05,0-.05,0,0,0,0-.09a3.22,3.22,0,0,0-.22-.79c-.23-.51-.4-1.17-.8-1.33S675.53,30,675.73,30.55Z"/><path class="cls-27" d="M690.07,30.55c.2-.51.22-1.38-.25-1.15s-.57.82-.8,1.33a3.22,3.22,0,0,0-.22.79s0,.09,0,.09-.06,0-.05,0a.7.7,0,0,0,.25-.18,1.29,1.29,0,0,0,.36-.7.84.84,0,0,0-.19-.78.88.88,0,0,1,.43.8,1.58,1.58,0,0,1-.31.93.85.85,0,0,1-.45.36.4.4,0,0,1-.43-.18.63.63,0,0,1-.07-.35,3.41,3.41,0,0,1,.23-.93c.12-.29.24-.55.39-.83a1.27,1.27,0,0,1,.77-.69.63.63,0,0,1,.58.14.66.66,0,0,1,.15.53A1.67,1.67,0,0,1,690.07,30.55Z"/><ellipse class="cls-28" cx="682.92" cy="31.39" rx="0.19" ry="0.1"/><path class="cls-27" d="M682.62,30a1.54,1.54,0,0,1,.07.63,3.6,3.6,0,0,1-.13.6.61.61,0,0,0,0,.45.7.7,0,0,0,.36.38.58.58,0,0,1-.62-.23.82.82,0,0,1-.1-.71C682.35,30.69,682.45,30.37,682.62,30Z"/><path class="cls-27" d="M683.29,31.95a.31.31,0,0,1,0-.29.3.3,0,0,1,.29,0,.22.22,0,0,1-.28.33Z"/><path class="cls-35" d="M688.37,32.48A7.93,7.93,0,0,1,686.25,36a2.06,2.06,0,0,1,1-3.86A2,2,0,0,1,688.37,32.48Z"/><path class="cls-35" d="M680.54,34.2A2.06,2.06,0,0,1,679.47,36a7.9,7.9,0,0,1-2.12-3.52,2,2,0,0,1,1.14-.34A2.06,2.06,0,0,1,680.54,34.2Z"/><path class="cls-27" d="M682.36,33.82a6.66,6.66,0,0,1,1.19,0A.92.92,0,0,1,683,34,.82.82,0,0,1,682.36,33.82Z"/><path class="cls-32" d="M681.85,32.88a1.65,1.65,0,0,1,1.15-.46,1.54,1.54,0,0,1,1,.43A2.62,2.62,0,0,1,681.85,32.88Z"/><path class="cls-27" d="M681.33,32.57a4.74,4.74,0,0,0,1.61.27,7.53,7.53,0,0,0,1.63-.27,2.05,2.05,0,0,1-.72.55,2.14,2.14,0,0,1-.9.22A1.93,1.93,0,0,1,681.33,32.57Z"/><path class="cls-27" d="M685,30.26a1.33,1.33,0,0,1-.1.53,2,2,0,0,0-.51.13,1.2,1.2,0,0,1-.17-.66c0-.44.18-.8.39-.8s.3.2.36.47A1.49,1.49,0,0,1,685,30.26Z"/><path class="cls-27" d="M684.63,29.46a1.4,1.4,0,0,0,.8-.2s-.08.61-.56.72Z"/><path class="cls-27" d="M684.06,28c.11-.53.42-.62.7-.6a2.07,2.07,0,0,1,.85.15,1.73,1.73,0,0,1,1.07,1.21.28.28,0,0,1-.36.32h0a4.39,4.39,0,0,0-.57-.17,2.63,2.63,0,0,0-.46-.07,3.62,3.62,0,0,0-.43,0c-.15,0-.27,0-.57-.36l-.11-.14A.39.39,0,0,1,684.06,28Z"/><path class="cls-27" d="M684,27.85a2.11,2.11,0,0,1,.22.26l.09.11.13.12a.3.3,0,0,1-.39-.1A.38.38,0,0,1,684,27.85Z"/><path class="cls-27" d="M681.67,30.26a1.16,1.16,0,0,1-.17.66,2,2,0,0,0-.51-.13,1.33,1.33,0,0,1-.1-.53,1.49,1.49,0,0,1,0-.33c.06-.28.2-.47.36-.47S681.67,29.81,681.67,30.26Z"/><path class="cls-27" d="M681.28,29.46a1.4,1.4,0,0,1-.8-.2s.08.61.56.72Z"/><path class="cls-27" d="M681.66,28.48c-.3.38-.42.39-.57.36a3.61,3.61,0,0,0-.43,0,2.63,2.63,0,0,0-.46.07,4.39,4.39,0,0,0-.57.17h0a.28.28,0,0,1-.35-.18.28.28,0,0,1,0-.15,1.73,1.73,0,0,1,1.07-1.21,2.07,2.07,0,0,1,.85-.15c.28,0,.59.08.7.6a.39.39,0,0,1-.07.32Z"/><path class="cls-27" d="M681.87,27.85a2.1,2.1,0,0,0-.22.26l-.09.11-.13.12a.3.3,0,0,0,.39-.1A.38.38,0,0,0,681.87,27.85Z"/><path class="cls-27" d="M689.57,23.9c-3.66-4.52-6.74-4-8-3.48a5,5,0,0,0-1.17.41A7.77,7.77,0,0,0,678,22.67a12.55,12.55,0,0,0-2.26,4.19,32.65,32.65,0,0,0-1.29,16,2.56,2.56,0,0,0,1.16.68,8.29,8.29,0,0,0,4.57.21.33.33,0,0,0,.24-.49,5.42,5.42,0,0,1,0-5.42,7.07,7.07,0,0,0,.6-1.05,2.86,2.86,0,0,0-.1-2.06,12.29,12.29,0,0,0-1.41-2.27,1.54,1.54,0,0,1-.28-.85c0-1.14,1.23-1.33,2.07-1.82a2.5,2.5,0,0,0,1.2-1.64c.24-1.23-.55-2.48-.34-3.71a.9.9,0,0,1,.21-.49,1.12,1.12,0,0,1,.73-.24h0a.91.91,0,0,1,.92.63c.64,1.9,1.87,4.58,3.84,4.72L688,30.2s.72-.86,1.28-1.65a1.25,1.25,0,0,1,1.11,0c.53.33.59,4.37-2,4A7.9,7.9,0,0,1,686.25,36l-.05,0c0,.13,0,.57,0,1.14C689.19,35.68,693.4,28.62,689.57,23.9Z"/><path class="cls-13" d="M689.59,39.65a.73.73,0,0,1-.51.2.89.89,0,0,1-.24,0c-1.84-.49-1-5.33-.55-7.12.06-.29.11-.5.14-.6l.43.11c0,.1-.05.21-.08.32-.61,2.61-1.07,6.54.17,6.87a.3.3,0,0,0,.32-.06c.7-.67.26-4.4-.22-6.83a1.45,1.45,0,0,0,.42-.15C689.76,33.71,690.64,38.65,689.59,39.65Z"/><path class="cls-13" d="M753.17,58.74v-4.8l-7,.82c0,.27,0,.5,0,.74,0,1.68,0,3.37,0,5a2,2,0,0,1-2.84,1.79,1.27,1.27,0,0,1-.53-2,2.22,2.22,0,0,1,2.38-.78l.44.14c0-.86,0-1.66,0-2.47,0-1.9,0-3.8,0-5.7,0-.46.09-.64.6-.69,2.22-.23,4.44-.51,6.66-.77l.9-.07c0,.25,0,.44,0,.63q0,4.45,0,8.9a2,2,0,0,1-2.66,1.92,1.28,1.28,0,0,1-.59-2.17,2.18,2.18,0,0,1,2.27-.65c.08,0,.15.06.22.09Zm-.37-7.08-6.3.73a.36.36,0,0,0-.32.36h0a.36.36,0,0,0,.39.36l.4,0c1.88-.22,3.76-.47,5.64-.65.38,0,.58-.13.6-.4A.36.36,0,0,0,752.79,51.66Z"/><path class="cls-12" d="M824.75,41.66V36.61l-5.46.63v.5c0,1.76-.05,3.52,0,5.27a1.58,1.58,0,0,1-2.14,1.42,1,1,0,0,1-.41-1.61,1.81,1.81,0,0,1,2.12-.44V35.61l6.28-.73v.51c0,2.29,0,4.58,0,6.87a1.59,1.59,0,0,1-2.07,1.48,1,1,0,0,1-.5-1.62,1.6,1.6,0,0,1,1.54-.62A5.13,5.13,0,0,1,824.75,41.66Z"/><path class="cls-14" d="M816.31,82.06c0,.26,0,.51,0,.77q0,4.18,0,8.36a2.36,2.36,0,0,1-3.14,2.28,1.56,1.56,0,0,1-.73-2.65c.74-.84,1.78-1,3.22-.59,0-.26,0-.5,0-.75q0-5,0-10a2.88,2.88,0,0,1,0-.64.4.4,0,0,1,.27-.26.37.37,0,0,1,.29.22c.18,1.45,1.24,2.25,2.24,3.1,1.9,1.64,1.42,3.51.41,5-.13.19-.42.28-.64.42a5,5,0,0,1,.14-.69c.12-.36.33-.69.42-1.05A2.68,2.68,0,0,0,816.31,82.06Z"/><path class="cls-11" d="M735.48,75.3c0-2.38,0-4.69,0-7v0a.19.19,0,0,1,.39,0h0c0,2.52,0,5,0,7.57A1.6,1.6,0,0,1,734,77.43a1.09,1.09,0,0,1-.91-.71,1,1,0,0,1,.31-1.11A1.74,1.74,0,0,1,735.48,75.3Z"/><path class="cls-36" d="M772.35,92.14s-1.58,9-1.88,13.51,7,39.18,7.75,39.93,24.13,25.62,24.13,25.62l3.85-1.48,1.52-2.39s-6.85-20.26-15.35-27.11L790.73,90.6Z"/><g class="cls-22"><path class="cls-36" d="M790,129.93l.34,6.24c.06,1,.12,2.08.21,3.11,0,.26,0,.52.07.77a6.13,6.13,0,0,0,.11.73c.11.4.64.63,1.08.72h0a.19.19,0,0,1,.13.09l3.67,6.28,3.63,6.3c1.22,2.1,2.4,4.21,3.59,6.33s2.37,4.23,3.53,6.36c-1.27-2.07-2.53-4.14-3.77-6.23s-2.49-4.16-3.71-6.26l-3.67-6.28-3.63-6.31.13.09a2.41,2.41,0,0,1-.79-.3,1.18,1.18,0,0,1-.56-.68,2.66,2.66,0,0,1-.07-.42c0-.13,0-.26,0-.39s0-.52-.06-.78c-.06-1-.1-2.08-.14-3.13s-.05-2.08-.07-3.13S790,131,790,129.93Z"/></g><path class="cls-13" d="M800.43,179.32a1.53,1.53,0,0,1-.21-2.55l2.69-5s-2.2-1.5-2.49-2.32c-.18-.53.68-1.27,1.31-1.73a.69.69,0,0,1,1,.2c.4.63,1.11,1.51,2,1.47,1.33-.05,2.41-2,2.41-2l.38-.35,1.58,1.31a3.15,3.15,0,0,1,1.51,2.54Z"/><path class="cls-15" d="M800.56,88.51s2.83,6.85.6,13.86S790,125.16,789.69,128s-8,14.75-8,14.75-1.34,16.83-3,20.56-13.6,13.34-13.6,13.34l-4.72-1.86,12.07-47.82s3.28-25.33,4.17-26.82c0,0-4.14-3.48-4.23-8Z"/><g class="cls-22"><path class="cls-15" d="M788.79,103.41a11.11,11.11,0,0,1,2.35.23,11,11,0,0,1,2.27.67,11,11,0,0,1-2.35-.23A11.11,11.11,0,0,1,788.79,103.41Z"/><path class="cls-15" d="M772.41,94.32c1.37,1.94,2.7,3.9,4,5.87a.16.16,0,0,1,0,.11h0c-.24,1.78-.52,3.55-.78,5.33s-.55,3.55-.83,5.32l-.43,2.66-.46,2.66q-.45,2.66-1,5.3.31-2.68.68-5.35l.36-2.67.39-2.67c.26-1.78.52-3.55.81-5.33s.55-3.55.86-5.32l0,.12C774.88,98.37,773.62,96.36,772.41,94.32Z"/><path class="cls-15" d="M798.63,92.39a56.66,56.66,0,0,1,.58,7,11,11,0,0,1-.1,1.76,12.66,12.66,0,0,1-.54,1.68c-.42,1.09-.89,2.16-1.36,3.23-1.91,4.26-3.94,8.47-6,12.67l-3.06,6.3c-.5,1.05-1,2.11-1.49,3.16-.24.53-.48,1.06-.71,1.59-.11.27-.22.54-.31.8a1.07,1.07,0,0,0-.05.18l0,.09,0,.12,0,.24-.07.22a5.74,5.74,0,0,1-.9,1.57,15,15,0,0,1-1.17,1.34l-.63.62-.32.3a1.19,1.19,0,0,0-.25.29,5.59,5.59,0,0,0-.33.76c-.1.27-.2.54-.29.82-.73,2.21-1.35,4.46-2,6.71v0c-.2,2.86-.43,5.71-.72,8.55-.16,1.42-.33,2.84-.55,4.26-.12.71-.23,1.42-.42,2.12a3.65,3.65,0,0,1-.4,1c-.2.31-.41.6-.62.89-1.72,2.29-3.51,4.52-5.31,6.74L766.15,174l5.31-6.74c1.75-2.26,3.53-4.5,5.21-6.8.21-.29.42-.58.6-.87a3.35,3.35,0,0,0,.35-1c.17-.68.28-1.39.39-2.09.2-1.41.36-2.83.5-4.25.28-2.84.51-5.69.69-8.54v0c.6-2.26,1.22-4.51,1.94-6.74.09-.28.19-.56.29-.83a5.67,5.67,0,0,1,.37-.84,1.63,1.63,0,0,1,.32-.37l.31-.3.61-.61a15,15,0,0,0,1.14-1.3,5.33,5.33,0,0,0,.84-1.45l.06-.19,0-.19a2.84,2.84,0,0,1,.11-.46c.1-.29.21-.56.33-.83q.35-.81.72-1.6c.49-1.06,1-2.11,1.51-3.17l3.08-6.29c2.06-4.19,4.15-8.37,6.1-12.61.48-1.06,1-2.13,1.4-3.2a12.56,12.56,0,0,0,.57-1.64,10.94,10.94,0,0,0,.13-1.73A56.61,56.61,0,0,0,798.63,92.39Z"/><path class="cls-15" d="M791.48,123.37a4.78,4.78,0,0,1-.35,1.14c-.15.37-.3.73-.46,1.09-.32.73-.66,1.44-1,2.15v-.07a2.3,2.3,0,0,1-.12.57c-.05.17-.11.34-.17.51-.12.34-.26.66-.4,1-.27.65-.58,1.29-.9,1.92-.63,1.26-1.3,2.51-2,3.74s-1.4,2.45-2.13,3.66-1.46,2.41-2.21,3.6l0-.06c-.12.94-.23,1.88-.36,2.82s-.25,1.88-.39,2.82c.06-.95.14-1.89.21-2.84s.16-1.89.24-2.84a.14.14,0,0,1,0-.06h0l2.12-3.65c.71-1.21,1.4-2.44,2.09-3.67s1.37-2.45,2-3.7c.32-.62.64-1.25.93-1.88.15-.32.29-.64.42-1,.07-.16.13-.32.18-.49a2.77,2.77,0,0,0,.12-.46v-.07l1.11-2.1c.18-.35.36-.7.52-1.06A5.24,5.24,0,0,0,791.48,123.37Z"/></g><path class="cls-13" d="M751.7,178.54c-.28-2.12,2-1.64,2-1.64l5.7-1.28s-.34-2.74.11-3.52c.29-.5,1.45-.34,2.24-.15a.72.72,0,0,1,.52.91,2.75,2.75,0,0,0,.19,2.54c.95,1,3.21.5,3.21.5l.53.06.06,2.12a3.26,3.26,0,0,1-.95,2.91Z"/><path class="cls-37" d="M790.25,58.57a18.51,18.51,0,0,1,1,1.9,33,33,0,0,0,6-4.74c1.63-1.92,20.66-24.8,17.31-29.48S782.15,49,782.15,49l7.06,6.5C790.4,56.24,789.11,57.74,790.25,58.57Z"/><path class="cls-37" d="M814,30.55s-5,1.59-7.79.54-22.64-8.16-21-10.54,20,.58,23.12,1.38a22.85,22.85,0,0,1,4.64,2.36A4.23,4.23,0,0,1,814,30.55Z"/><path class="cls-37" d="M781.16,19.51s-2.91.06-3.27.16-1,.51-1,.67,1.07-.07,1.07-.07l3.49.25Z"/><path class="cls-37" d="M787.37,22.72s.54-2.42-.31-3.09-4.94-1.52-5.71-1.46-4.72.37-4.89.75S780.75,20,780.75,20s.73.12.31.83a7.74,7.74,0,0,0,2.35,1.76A15.88,15.88,0,0,0,787.37,22.72Z"/><path class="cls-37" d="M782,20.65a16,16,0,0,1-2.17.37c-.37,0-1.18.12-1.08.39a13.37,13.37,0,0,0,4.92,1.15c.86-.2.39-1.49.39-1.49Z"/><path class="cls-38" d="M804.14,30.34a10.59,10.59,0,0,1,1.89.28l.91.22.92.24a2.59,2.59,0,0,1-1,.11,5.53,5.53,0,0,1-1-.13A5.66,5.66,0,0,1,804.14,30.34Z"/><path class="cls-37" d="M775.4,62.11c.21.21,1.44-1.34,1.66-1.22a27,27,0,0,1-2.83,6.17c-1.54,2-19.95,25.55-25,23.06C745,88,758.83,63.7,763.55,55.67a2.6,2.6,0,0,1,3.85-.73L772.58,59C773.48,60.08,774.41,61.12,775.4,62.11Z"/><path class="cls-37" d="M756.51,86.41s-4.09,3.87-7.12,4-24.11,1-23.52-1.82,18.81-7,22-7.43c2.37-.32,9.94,1.32,9.94,1.32Z"/><path class="cls-37" d="M721.74,88.74s-2.86-.57-3.2-.74-.94-.68-.91-.84,1,.26,1,.26l3.49.37Z"/><path class="cls-37" d="M728.44,86.7s.1,2.47-.86,3-5.14.62-5.89.42-4.59-1.2-4.69-1.6,4.42-.34,4.42-.34.75,0,.45-.76a7.78,7.78,0,0,1,2.63-1.31A16,16,0,0,1,728.44,86.7Z"/><path class="cls-37" d="M722.73,87.76a16.13,16.13,0,0,0-2.08-.75c-.37,0-1.14-.32-1-.58a13.49,13.49,0,0,1,5.06-.26c.81.35.12,1.53.12,1.53Z"/><path class="cls-37" d="M795.46,69.92l0-.08c-2.18-5.12-4.64-10.67-4.2-16.45l5.42-1.12s-.7-4-6.61-4.61-7.61-2-7.61-2c-1.73-1.21-3.86-6.55-3.86-6.55l-2.63,3-3.18.51s.55,3.74-.57,5.51c0,0-.87,1.51-5.45,4.43-4.38,2.79-4.07,6.85-4.07,6.85l3.64-.76a52.77,52.77,0,0,1,.29,5.7c0,2.43,3.15,8.14,5.22,13.37a58.08,58.08,0,0,1,2.82,9.49l22.87-5.25s0-.31,0-.78A26.13,26.13,0,0,0,795.46,69.92Z"/><path class="cls-38" d="M772.88,44.08a5.82,5.82,0,0,0,4.62-2,6.9,6.9,0,0,0,1.32-2.39l-.13-.31a5.8,5.8,0,0,1-5.92,3.29C772.79,42.9,772.85,43.42,772.88,44.08Z"/><path class="cls-38" d="M769.65,72.87a44,44,0,0,1-3.35-8.19,38.38,38.38,0,0,1,1.88,4A39,39,0,0,1,769.65,72.87Z"/><path class="cls-14" d="M802.2,91.53a33.93,33.93,0,0,1-6,.5c-.6,0-1.47.09-2.53.21-2.44.29-5.89.82-9.4,1.23-5,.58-10.14.93-12.76,0l.24-1.75.12-.91.49-3.64.12-.91.48-3.58,0-.08-.25-.87-1-3.47-.25-.87-.29-1a7.82,7.82,0,0,0,.38-2.65q0-.42,0-.9a21.07,21.07,0,0,0-.48-3.54c-.06-.28-.13-.58-.2-.88-.22-.88-.5-1.84-.85-2.88l-.2-.58c-.1-.29-.2-.58-.29-.87-.42-1.23-.79-2.39-1.12-3.45-.09-.29-.19-.59-.27-.87-.41-1.32-.76-2.49-1-3.47l-.25-.87c-.46-1.64-.69-2.57-.69-2.57l1.64-1.14,1.6-1.12.68-.47.14.36.34.85c.34.83.83,2,1.42,3.4.13.27.25.56.38.85.48,1.08,1,2.23,1.57,3.37l.42.84c.59,1.17,1.21,2.31,1.83,3.31.17.29.35.56.52.82,1.32,2,2.59,3.22,3.55,2.79.8-.35,1.33-1.81,1.68-3.82,0-.3.1-.62.14-.94.16-1.14.26-2.41.34-3.73,0-.31,0-.61,0-.93.05-1.22.08-2.47.08-3.68,0-.31,0-.62,0-.92,0-1.32,0-2.57-.06-3.66q0-.48,0-.91c-.06-1.9-.14-3.15-.14-3.15l2.29,1.17s.09.51.26,1.39c.05.26.11.55.17.88.19.94.43,2.13.73,3.5l.19.87c.24,1.08.51,2.25.8,3.47l.21.87c.28,1.13.58,2.28.89,3.45.08.29.16.57.24.86.32,1.15.66,2.29,1,3.41.08.29.18.57.27.85.38,1.17.77,2.3,1.18,3.37l.33.84a31.83,31.83,0,0,0,1.52,3.27c.15.28.31.55.46.8,1,1.69,2.13,2.73,3.24,2.74,0,0,1.34-.84.67-3.13l.83,2.68.27.85,1,3.38.27.85,1,3.37.26.85,1,3.38.26.85Z"/><path class="cls-20" d="M770.44,51.4c-.92.14-1.83.27-2.75.38l1.6-1.12.82-.12Z"/><path class="cls-20" d="M784.93,48.48q-1.27.34-2.56.63,0-.48,0-.91c.8-.19,1.61-.39,2.41-.59C784.8,47.86,784.86,48.16,784.93,48.48Z"/><path class="cls-20" d="M772.24,55.65q-2.2.34-4.41.62l-.83.1-.25-.87,1-.12q2.08-.25,4.15-.58C772,55.07,772.11,55.36,772.24,55.65Z"/><path class="cls-20" d="M785.85,52.85c-1.14.29-2.28.57-3.42.84,0-.31,0-.62,0-.92q1.62-.38,3.23-.79Z"/><path class="cls-20" d="M774.23,59.86q-2.81.46-5.63.81l-.3,0c-.09-.29-.19-.59-.27-.87l.46-.06q2.67-.33,5.32-.76Z"/><path class="cls-20" d="M786.86,57.19q-2.27.59-4.56,1.1c0-.31,0-.61,0-.93,1.44-.33,2.88-.67,4.31-1Z"/><path class="cls-20" d="M776.58,64q-3.42.6-6.87,1c-.1-.29-.2-.58-.29-.87q3.33-.41,6.64-1C776.24,63.45,776.41,63.73,776.58,64Z"/><path class="cls-20" d="M788,61.5c-2,.54-4.1,1-6.17,1.47,0-.3.1-.62.14-.94q2.91-.63,5.79-1.38C787.83,60.92,787.91,61.21,788,61.5Z"/><path class="cls-20" d="M789.27,65.76a142.52,142.52,0,0,1-18.3,3.6c-.06-.28-.13-.58-.2-.88A141.45,141.45,0,0,0,789,64.91C789.08,65.2,789.18,65.48,789.27,65.76Z"/><path class="cls-20" d="M771.46,73.8q0-.42,0-.9a141.3,141.3,0,0,0,19-3.77l.33.84A142.25,142.25,0,0,1,771.46,73.8Z"/><path class="cls-20" d="M792.76,74a142.77,142.77,0,0,1-21.07,4.24h-.07l-.25-.87.21,0a142.37,142.37,0,0,0,20.72-4.15C792.45,73.52,792.6,73.79,792.76,74Z"/><path class="cls-20" d="M797.77,77.18a142.49,142.49,0,0,1-24.86,5.43l-.25-.87a142.4,142.4,0,0,0,24.85-5.42Z"/><path class="cls-20" d="M799.08,81.42a142.72,142.72,0,0,1-25.84,5.66l-.91.11.12-.91.68-.08a142.22,142.22,0,0,0,25.68-5.63Z"/><path class="cls-20" d="M800.38,85.64A142.77,142.77,0,0,1,774,91.48c-.74.09-1.51.18-2.3.25l.12-.91,2.06-.23a141.86,141.86,0,0,0,26.22-5.81Z"/><path class="cls-20" d="M801.69,89.87q-4,1.31-8.05,2.37c-2.44.29-5.89.82-9.4,1.23A142,142,0,0,0,801.43,89Z"/><g class="cls-22"><path class="cls-14" d="M784.1,46.43c.38,3,.87,5.93,1.42,8.88s1.24,5.86,2.05,8.74a45.19,45.19,0,0,0,3.19,8.35A15.65,15.65,0,0,0,793.29,76,7.29,7.29,0,0,0,795,77.36a5.17,5.17,0,0,0,2.06.62h0a.18.18,0,0,1,.16.14c1.08,4.31,2.16,8.61,3.18,12.93-1.21-4.27-2.37-8.56-3.53-12.84l.17.14a5.35,5.35,0,0,1-2.22-.64A7.68,7.68,0,0,1,793,76.3a16.05,16.05,0,0,1-2.62-3.71,31.61,31.61,0,0,1-1.82-4.14c-.52-1.41-1-2.85-1.37-4.3a85.91,85.91,0,0,1-1.94-8.8C784.74,52.39,784.35,49.41,784.1,46.43Z"/><path class="cls-14" d="M780.27,73.48c.56.85,1.12,1.69,1.73,2.49s1.24,1.58,1.92,2.33,1.38,1.46,2.11,2.15q.55.52,1.13,1l.58.49.59.48c-.45-.24-.87-.52-1.3-.8s-.82-.6-1.22-.92a19.76,19.76,0,0,1-4.09-4.54A17.09,17.09,0,0,1,780.27,73.48Z"/><path class="cls-14" d="M778.89,76.17a24,24,0,0,0,5.43,8.77,13.71,13.71,0,0,1-5.43-8.77Z"/><path class="cls-14" d="M769.05,51.27c.68,1.68,1.4,3.35,2.19,5s1.59,3.26,2.5,4.82a26.37,26.37,0,0,0,3.1,4.41,7.4,7.4,0,0,0,2.05,1.65,4.16,4.16,0,0,0,.6.23,2.43,2.43,0,0,0,.62.07,1.59,1.59,0,0,0,1.11-.39,4.7,4.7,0,0,0,1.26-2.23,16.33,16.33,0,0,0,.54-2.63,45.39,45.39,0,0,0,.3-5.41c0-1.81-.05-3.63-.16-5.44s-.24-3.62-.41-5.43a86,86,0,0,1,.91,10.87,39.71,39.71,0,0,1-.24,5.47,16.73,16.73,0,0,1-.53,2.7,7.65,7.65,0,0,1-.51,1.3,3.56,3.56,0,0,1-.87,1.15,2,2,0,0,1-1.4.48,2.86,2.86,0,0,1-.73-.09,4.56,4.56,0,0,1-.67-.26,7.79,7.79,0,0,1-2.16-1.76,24.53,24.53,0,0,1-3.1-4.52A65.92,65.92,0,0,1,769.05,51.27Z"/></g><path class="cls-37" d="M780.87,32.94a1.2,1.2,0,0,0-1,.15,6.43,6.43,0,0,0-4.7-6.69c-3.37-.79-6.79,1.57-7.67,5.27A7.81,7.81,0,0,0,767.3,33v0a12.78,12.78,0,0,0,.27,4.42,8,8,0,0,0,1.62,3.38,5.26,5.26,0,0,0,1.35,1.15,5.79,5.79,0,0,0,7.26-1.18,8,8,0,0,0,1.64-3.54C781.93,37.09,781.43,33.18,780.87,32.94Z"/><circle class="cls-39" cx="776.25" cy="37.54" r="2.06" transform="translate(10.63 170.97) rotate(-12.65)"/><path class="cls-39" d="M767.57,37.42a8,8,0,0,0,1.62,3.38,2,2,0,0,0,.43-1.77A2.06,2.06,0,0,0,767.57,37.42Z"/><path class="cls-27" d="M780.48,34.86c.08-.54-.09-1.39-.5-1.06s-.38.92-.49,1.47a3.22,3.22,0,0,0,0,.82s0,.09,0,.09-.07,0-.06,0,.14-.12.2-.23a1.29,1.29,0,0,0,.2-.76.84.84,0,0,0-.35-.72.88.88,0,0,1,.6.69,1.58,1.58,0,0,1-.1,1,.85.85,0,0,1-.36.45.4.4,0,0,1-.46-.08.63.63,0,0,1-.15-.32,3.4,3.4,0,0,1,0-1c.06-.31.11-.59.19-.9a1.27,1.27,0,0,1,.6-.84.63.63,0,0,1,.59,0,.66.66,0,0,1,.26.49A1.67,1.67,0,0,1,780.48,34.86Z"/><ellipse class="cls-28" cx="771.83" cy="36.53" rx="0.19" ry="0.1" transform="translate(0.99 90.05) rotate(-6.68)"/><path class="cls-27" d="M771.36,35.16a1.54,1.54,0,0,1,.14.62,3.61,3.61,0,0,1-.06.61.61.61,0,0,0,0,.45.7.7,0,0,0,.41.34.58.58,0,0,1-.64-.16.82.82,0,0,1-.18-.69C771.18,35.91,771.24,35.58,771.36,35.16Z"/><path class="cls-27" d="M772.26,37.05a.31.31,0,0,1,0-.29.3.3,0,0,1,.28-.07.22.22,0,0,1-.24.36Z"/><path class="cls-27" d="M773.12,38.79a.82.82,0,0,1-.53.35.92.92,0,0,1-.63-.09A6.65,6.65,0,0,1,773.12,38.79Z"/><path class="cls-27" d="M773.85,37.35a1.94,1.94,0,0,1-1.41,1.1,2.14,2.14,0,0,1-.93,0,2.05,2.05,0,0,1-.82-.38,7.53,7.53,0,0,0,1.65-.09A4.74,4.74,0,0,0,773.85,37.35Z"/><path class="cls-27" d="M769.75,35.9a1.33,1.33,0,0,0,.22.5,2,2,0,0,1,.53,0,1.2,1.2,0,0,0,0-.68c-.1-.43-.35-.74-.56-.69S769.65,35.46,769.75,35.9Z"/><path class="cls-27" d="M770.11,34c-.21.43-.33.48-.48.48a3.63,3.63,0,0,0-.42.09,2.63,2.63,0,0,0-.44.17,4.4,4.4,0,0,0-.52.3l0,0a.28.28,0,0,1-.42-.24,1.73,1.73,0,0,1,.78-1.41,2.07,2.07,0,0,1,.8-.33.63.63,0,0,1,.81.44.39.39,0,0,1,0,.33Z"/><path class="cls-27" d="M770.18,33.34a2.1,2.1,0,0,0-.16.3l-.06.13a1.36,1.36,0,0,1-.1.15.3.3,0,0,0,.36-.18A.38.38,0,0,0,770.18,33.34Z"/><path class="cls-27" d="M773,35.16a1.16,1.16,0,0,0,.32.61,2,2,0,0,1,.47-.24,1.33,1.33,0,0,0,0-.54c-.1-.43-.35-.74-.56-.69S772.92,34.73,773,35.16Z"/><path class="cls-27" d="M772.35,33c0-.54.27-.69.55-.74a2.07,2.07,0,0,1,.86,0,1.73,1.73,0,0,1,1.31.94.28.28,0,0,1-.28.39h0a4.4,4.4,0,0,0-.6,0,2.62,2.62,0,0,0-.47,0,3.62,3.62,0,0,0-.42.1c-.14.07-.26.08-.64-.23l-.14-.11A.39.39,0,0,1,772.35,33Z"/><path class="cls-27" d="M772.29,32.86a2.11,2.11,0,0,1,.27.2l.11.09.15.09a.3.3,0,0,1-.4,0A.38.38,0,0,1,772.29,32.86Z"/><path class="cls-27" d="M776.65,26.22c-6.35-1.78-8.24,1.69-8.93,4.43a22.5,22.5,0,0,0-.56,2.95s0,.43.73.07a27.59,27.59,0,0,0,3-2.12l-1,1.27c1.4,0,3.74-2.59,4.6-2.38a2,2,0,0,1,1.15.82c0,.07.16.34.15.41s.24,2.38,1,2.64l.32-.74s.67,2.2,1.36,2.4l1.38-2.87s0-.23.05-.56C780.5,25.59,776.65,26.22,776.65,26.22Z"/><path class="cls-18" d="M767.59,30.59s.06-5.74,5.8-6.12c0,0,1.55.2,2.08.33s5.46.84,4.61,7.31c0,0-1.12.38-4.22-.27Z"/><path class="cls-15" d="M763.28,33a.85.85,0,0,0,.89.89,8,8,0,0,0,2.44-.73,6.08,6.08,0,0,0-2.09-1A1.34,1.34,0,0,0,763.28,33Z"/><path class="cls-13" d="M767.59,30.59a16.78,16.78,0,0,1,4,.1L776.75,32a16.54,16.54,0,0,1-5.1,2.72c-2.51.65-5.69-1.94-6.37-2.19s-1.84-.2-2,.43c0,0-.23-.46,1.46-1A14.88,14.88,0,0,0,767.59,30.59Z"/><path class="cls-20" d="M775.76,25.12a4.9,4.9,0,0,1,.91,1.51,7.22,7.22,0,0,1,.45,1.72,7.65,7.65,0,0,1,0,1.77A7.37,7.37,0,0,1,777,31c-.08.28-.16.57-.26.84,0-.59.06-1.16.05-1.73a13.84,13.84,0,0,0-.11-1.7,12.27,12.27,0,0,0-.33-1.66A10.29,10.29,0,0,0,775.76,25.12Z"/></g></g></svg>