<svg xmlns="http://www.w3.org/2000/svg" viewBox="0 0 925.79 198.42"><defs><style>.cls-1{isolation:isolate;}.cls-2{fill:#e8e8e8;opacity:0.47;}.cls-3{font-size:18px;fill:#303030;font-family:ArialMT, Arial;}.cls-4{letter-spacing:0.34em;}.cls-5{letter-spacing:0.34em;}.cls-6{letter-spacing:0em;}.cls-7{letter-spacing:0.03em;}.cls-8{letter-spacing:0.03em;}.cls-9{letter-spacing:0.26em;}.cls-10{letter-spacing:0.26em;}.cls-11{letter-spacing:-0.01em;}.cls-12{letter-spacing:-0.02em;}.cls-13{letter-spacing:-0.01em;}.cls-14{letter-spacing:0.04em;}.cls-15{fill:#20d480;}.cls-16{fill:#fa9652;}.cls-17{fill:#59172f;}.cls-18{fill:#c41b16;}.cls-19{fill:#2b1819;}.cls-20{fill:#fff;}.cls-21{fill:#fade99;}.cls-22,.cls-24{fill:#e3d7ba;}.cls-22,.cls-23{mix-blend-mode:multiply;}.cls-25{fill:#35ab7a;}</style></defs><title>tarjeta 01</title><g class="cls-1"><g id="Capa_1" data-name="Capa 1"><rect class="cls-2" x="-6.38" y="-5.75" width="936.69" height="206.56"/><text class="cls-3" transform="translate(27.24 47.67)">La<tspan class="cls-4" x="20.02" y="0"> </tspan><tspan x="31.11" y="0">fuerza</tspan><tspan class="cls-4" x="81.14" y="0"> </tspan><tspan x="92.22" y="0">social</tspan><tspan class="cls-5" x="138.24" y="0"> </tspan><tspan x="149.33" y="0">indigenista</tspan><tspan class="cls-4" x="235.39" y="0"> </tspan><tspan x="246.48" y="0">y</tspan><tspan class="cls-4" x="255.48" y="0"> </tspan><tspan x="266.57" y="0">la</tspan><tspan class="cls-5" x="280.58" y="0"> </tspan><tspan class="cls-6" x="291.66" y="0">importancia</tspan><tspan class="cls-4" x="384.71" y="0"> </tspan><tspan x="395.79" y="0">de</tspan><tspan class="cls-4" x="415.81" y="0"> </tspan><tspan x="426.9" y="0">la </tspan><tspan x="0" y="21.6">propiedad</tspan><tspan class="cls-7" x="80.07" y="21.6"> </tspan><tspan x="85.53" y="21.6">colectiva</tspan><tspan class="cls-7" x="155.56" y="21.6"> </tspan><tspan x="161.02" y="21.6">y</tspan><tspan class="cls-7" x="170.02" y="21.6"> </tspan><tspan x="175.48" y="21.6">toda</tspan><tspan class="cls-7" x="210.51" y="21.6"> </tspan><tspan class="cls-6" x="215.97" y="21.6">la</tspan><tspan class="cls-8" x="229.98" y="21.6"> </tspan><tspan x="235.44" y="21.6">lógica</tspan><tspan class="cls-7" x="282.47" y="21.6"> </tspan><tspan x="287.93" y="21.6">social</tspan><tspan class="cls-7" x="333.95" y="21.6"> </tspan><tspan x="339.4" y="21.6">y</tspan><tspan class="cls-7" x="348.4" y="21.6"> </tspan><tspan x="353.86" y="21.6">económica </tspan><tspan x="0" y="43.2">que</tspan><tspan class="cls-9" x="30.03" y="43.2"> </tspan><tspan x="39.7" y="43.2">se</tspan><tspan class="cls-10" x="58.71" y="43.2"> </tspan><tspan x="68.37" y="43.2">desarrolló</tspan><tspan class="cls-9" x="147.41" y="43.2"> </tspan><tspan x="157.07" y="43.2">alrededor</tspan><tspan class="cls-10" x="233.12" y="43.2"> </tspan><tspan x="242.79" y="43.2">de</tspan><tspan class="cls-9" x="262.81" y="43.2"> </tspan><tspan x="272.47" y="43.2">ella,</tspan><tspan class="cls-10" x="305.49" y="43.2"> </tspan><tspan x="315.15" y="43.2">consolidan</tspan><tspan class="cls-9" x="401.21" y="43.2"> </tspan><tspan x="410.88" y="43.2">una </tspan><tspan x="0" y="64.8">influencia</tspan><tspan class="cls-11" x="76.05" y="64.8"> </tspan><tspan x="80.92" y="64.8">del</tspan><tspan class="cls-11" x="104.94" y="64.8"> </tspan><tspan x="109.82" y="64.8">“Buen</tspan><tspan class="cls-11" x="157.85" y="64.8"> </tspan><tspan class="cls-12" x="162.72" y="64.8">V</tspan><tspan x="174.4" y="64.8">ivir”,</tspan><tspan class="cls-13" x="208.39" y="64.8"> </tspan><tspan class="cls-6" x="213.26" y="64.8">porque</tspan><tspan class="cls-13" x="269.31" y="64.8"> </tspan><tspan x="274.18" y="64.8">allí</tspan><tspan class="cls-11" x="297.19" y="64.8"> </tspan><tspan x="302.06" y="64.8">se</tspan><tspan class="cls-11" x="321.07" y="64.8"> </tspan><tspan x="325.95" y="64.8">encuentra</tspan><tspan class="cls-11" x="406.01" y="64.8"> </tspan><tspan x="410.88" y="64.8">una </tspan><tspan x="0" y="86.4">visión</tspan><tspan class="cls-14" x="46.02" y="86.4"> </tspan><tspan x="51.69" y="86.4">de</tspan><tspan class="cls-14" x="71.71" y="86.4"> </tspan><tspan x="77.38" y="86.4">la</tspan><tspan class="cls-14" x="91.39" y="86.4"> </tspan><tspan x="97.06" y="86.4">importancia</tspan><tspan class="cls-14" x="190.1" y="86.4"> </tspan><tspan x="195.77" y="86.4">de</tspan><tspan class="cls-14" x="215.79" y="86.4"> </tspan><tspan x="221.46" y="86.4">salvaguardar</tspan><tspan class="cls-14" x="325.53" y="86.4"> </tspan><tspan x="331.2" y="86.4">las</tspan><tspan class="cls-14" x="354.21" y="86.4"> </tspan><tspan x="359.88" y="86.4">dinámicas </tspan><tspan x="0" y="108">económicas y culturales de los pueblos ancestrales.</tspan></text><path class="cls-15" d="M629.46,161.48c-.51,0-1,0-1.49,0l0-.51c.49,0,1,0,1.47,0H630v.51Zm2.6-.14-.05-.5c.66-.07,1.33-.16,2-.27l.09.5C633.41,161.18,632.73,161.28,632.05,161.34Zm-6.13-.11c-.68-.1-1.36-.23-2-.4l.12-.49c.64.16,1.3.29,2,.39Zm10.16-.58-.12-.49c.65-.16,1.3-.34,1.93-.55l.15.48C637.4,160.3,636.74,160.49,636.08,160.65ZM622,160.23a16.45,16.45,0,0,1-1.88-.84l.24-.45a15.76,15.76,0,0,0,1.82.81Zm18-.83-.19-.47c.63-.25,1.25-.53,1.84-.81l.22.46C641.24,158.86,640.61,159.14,640,159.4Zm-21.65-1.09a13.63,13.63,0,0,1-1.58-1.32l.35-.36a13.28,13.28,0,0,0,1.52,1.27Zm35.17-.42a10,10,0,0,1-1.22-.07l.06-.5a9.92,9.92,0,0,0,2,0l0,.5C654.06,157.88,653.77,157.89,653.49,157.89Zm-9.85-.29-.26-.44c.58-.34,1.14-.71,1.68-1.1l.3.41C644.81,156.87,644.24,157.25,643.64,157.6Zm12.74-.08-.12-.49a15.28,15.28,0,0,0,1.89-.62l.19.47A15.69,15.69,0,0,1,656.38,157.52Zm-6.13-.18a9.83,9.83,0,0,1-1.87-.9l.27-.43a9.4,9.4,0,0,0,1.77.85Zm10-1.32-.23-.45c.56-.29,1.15-.63,1.74-1l.27.43C661.37,155.38,660.78,155.72,660.2,156Zm-44.83-.58a14,14,0,0,1-1.09-1.7l.2-.16.22-.12a13.53,13.53,0,0,0,1.07,1.67Zm31.36-.24a14.7,14.7,0,0,1-1.43-1.48l.39-.33a14.15,14.15,0,0,0,1.15,1.22A15.9,15.9,0,0,0,648,153.4l.38.33a16.7,16.7,0,0,1-1.45,1.46l-.11-.12Zm16.94-1.35-.3-.41c.53-.38,1.06-.8,1.6-1.23l.32.39C664.74,153,664.2,153.46,663.66,153.85Zm-14-1.76-.43-.27a11.12,11.12,0,0,0,.92-1.75l.47.19A11.61,11.61,0,0,1,649.64,152.09Zm-5.57,0c-.41-.6-.77-1.18-1.07-1.75l.45-.24c.3.55.65,1.12,1,1.7Zm-30.7-.22a16.4,16.4,0,0,1-.66-1.95l.49-.13a15.87,15.87,0,0,0,.64,1.89Zm53.46-.59-.34-.38c.51-.45,1-.91,1.48-1.38l.35.36Q667.6,150.58,666.83,151.27Zm-24.69-2.82a8.54,8.54,0,0,1-.49-2l.5-.05a8.07,8.07,0,0,0,.46,1.9Zm27.62,0-.37-.35c.48-.5.94-1,1.38-1.48l.38.34C670.71,147.43,670.25,147.93,669.76,148.44Zm-18.57-.17-.5-.09a6.76,6.76,0,0,0,.11-1.17,5.57,5.57,0,0,0-.05-.77l.5-.07a6.06,6.06,0,0,1,.06.84A7.26,7.26,0,0,1,651.19,148.26Zm-38.88-.37a13.56,13.56,0,0,1-.1-1.62c0-.15,0-.3,0-.44l.51,0c0,.14,0,.28,0,.43a13.14,13.14,0,0,0,.09,1.56Zm60.18-2.48-.39-.33c.47-.55.9-1.07,1.29-1.56l.39.32C673.4,144.33,673,144.86,672.49,145.41Zm-30.16-.93-.48-.16a3.66,3.66,0,0,1,1.23-1.75l.31.4A3.16,3.16,0,0,0,642.33,144.48Zm7.79,0a4.56,4.56,0,0,0-1.32-1.38l.29-.42a5.05,5.05,0,0,1,1.46,1.53ZM578,143.92l-.81,0,0-.51a16.08,16.08,0,0,0,2,0l0,.5C578.89,143.91,578.47,143.92,578,143.92Zm34.9,0-.5-.09a15,15,0,0,1,.52-2l.48.16A14.44,14.44,0,0,0,612.95,143.87Zm-37.75-.19a17.49,17.49,0,0,1-2-.46l.14-.49a16.74,16.74,0,0,0,1.94.45Zm6.13-.08-.1-.5a16.6,16.6,0,0,0,1.93-.51l.16.48A17,17,0,0,1,581.33,143.6Zm-10.07-1.08a19.12,19.12,0,0,1-1.84-.9l.25-.44a18.32,18.32,0,0,0,1.79.88Zm14-.2-.21-.46a17,17,0,0,0,1.75-1l.27.43A17.85,17.85,0,0,1,585.22,142.32Zm61.81,0a5,5,0,0,0-1.92-.06l-.08-.5a5.57,5.57,0,0,1,2.11.07Zm28-.06-.4-.3c.76-1,1.19-1.63,1.19-1.64l.42.28S675.81,141.22,675,142.23Zm-107.37-1.7a12.54,12.54,0,0,1-1.58-1.33l.36-.36a12,12,0,0,0,1.51,1.28Zm21-.37-.31-.4a18,18,0,0,0,1.49-1.33l.36.36A18.46,18.46,0,0,1,588.71,140.16Zm25.49-.06-.46-.22a20,20,0,0,1,1-1.8l.43.27A19.26,19.26,0,0,0,614.2,140.11Zm-49.44-2.48a13.7,13.7,0,0,1-1.07-1.76l.45-.23a13.33,13.33,0,0,0,1,1.7Zm26.86-.35-.39-.32a18.79,18.79,0,0,0,1.17-1.62l.43.28A19.67,19.67,0,0,1,591.62,137.27Zm24.66-.58-.41-.3c.39-.53.82-1.07,1.27-1.6l.38.33C617.09,135.64,616.67,136.17,616.28,136.69ZM562.89,134a17,17,0,0,1-.56-2l.49-.11a16.77,16.77,0,0,0,.54,1.92Zm31-.14-.45-.23c.3-.59.57-1.2.82-1.83l.47.18C594.43,132.6,594.15,133.23,593.85,133.83Zm25-.2-.37-.35c.46-.48.95-1,1.45-1.44l.35.37C619.82,132.68,619.34,133.16,618.89,133.63Zm2.92-2.77-.33-.38q.77-.67,1.55-1.32l.32.39Q622.57,130.19,621.81,130.86ZM595.33,130l-.49-.14c.18-.63.33-1.29.46-1.95l.5.09C595.67,128.69,595.51,129.37,595.33,130ZM562,130c-.07-.66-.11-1.35-.12-2h.51c0,.68,0,1.35.12,2Zm62.92-1.68-.31-.4,1.61-1.23.3.41ZM596.09,126l-.5,0c.06-.66.1-1.33.12-2h.51C596.19,124.64,596.15,125.32,596.09,126Zm-33.63-.09-.51,0c.05-.67.13-1.36.24-2l.5.08C562.59,124.58,562.51,125.24,562.46,125.91Zm65.71-.05-.3-.41,1.64-1.19.3.41Zm3.27-2.42-.32-.39c.49-.4,1-.85,1.49-1.34l.35.36C632.45,122.56,631.93,123,631.43,123.44Zm-68.34-1.49-.49-.12c.16-.66.36-1.32.57-2l.48.16C563.45,120.65,563.26,121.3,563.1,121.95Zm32.56,0c0-.66-.1-1.33-.19-2l.5-.07c.09.68.15,1.36.19,2Zm38.7-1.36-.38-.34c.43-.48.86-1,1.29-1.54l.4.31C635.24,119.57,634.8,120.09,634.36,120.58Zm-60.25-1.86-.11-.49a4.57,4.57,0,0,0,1.72-.81l.3.41A5.07,5.07,0,0,1,574.11,118.72Zm-2.13-.05a5.31,5.31,0,0,1-1.87-1l.31-.4a4.79,4.79,0,0,0,1.69.89Zm-7.6-.52-.46-.2c.28-.64.59-1.25.92-1.84l.44.25C565,116.93,564.66,117.53,564.39,118.16Zm30.76-.2c-.13-.65-.28-1.31-.45-2l.49-.13c.17.66.33,1.33.46,2Zm41.76-.56-.41-.29c.39-.54.77-1.1,1.14-1.66l.42.28C637.69,116.28,637.3,116.84,636.91,117.39Zm-59.44-1.1L577,116a5.08,5.08,0,0,0,.75-1.77l.5.1A5.6,5.6,0,0,1,577.47,116.29Zm-8.75-.17a10.74,10.74,0,0,1-.8-1.91l.48-.16a10.37,10.37,0,0,0,.76,1.82Zm-2.37-1.44-.41-.3a15.18,15.18,0,0,1,1.32-1.59l.37.35A14.61,14.61,0,0,0,566.35,114.68Zm27.88-.67c-.13-.66-.25-1.34-.35-2l.5-.07c.1.66.21,1.33.34,2Zm44.9,0-.44-.26q.51-.86,1-1.75l.45.24Q639.65,113.11,639.14,114Zm-61.46-1.58a2.74,2.74,0,0,0-1.2-1.37l.26-.44a3.23,3.23,0,0,1,1.42,1.62Zm-10.31-.17c-.15-.62-.3-1.29-.44-2l.5-.1q.21,1.06.44,2Zm1.74-.39-.3-.41a9,9,0,0,1,1.81-1l.19.47A8.52,8.52,0,0,0,569.11,111.84Zm5.54-1.41a8.64,8.64,0,0,0-2,0l-.05-.5a8.43,8.43,0,0,1,2.08.05Zm66.42,0-.46-.22q.44-.9.85-1.83l.46.21Q641.52,109.48,641.08,110.39ZM593.65,110c-.06-.67-.1-1.36-.13-2l.51,0c0,.67.07,1.35.13,2Zm-57.49-.52-.51,0v-.2l.51,0Zm30.38-1.22q-.17-1-.35-2l.5-.08q.17,1,.35,2Zm-30.87-1c0-.66-.1-1.33-.19-2l.5-.08a20.25,20.25,0,0,1,.2,2Zm107.06-.56-.47-.19c.25-.63.48-1.26.7-1.89l.48.17C643.21,105.39,643,106,642.72,106.67ZM594,105.9h-.51c0-.67,0-1.36.08-2l.51,0C594,104.56,594,105.24,594,105.9Zm-28.14-1.68-.32-2,.5-.08.32,2Zm-30.78-.95c-.16-.64-.35-1.28-.57-1.92l.48-.17c.23.65.42,1.31.59,2Zm109-.46-.49-.14c.19-.65.37-1.31.53-1.94l.49.12C644.44,101.5,644.26,102.16,644.06,102.82Zm-49.8-.94-.5-.06c.08-.67.17-1.35.28-2l.5.08C594.43,100.54,594.34,101.22,594.26,101.88Zm-29-1.67-.32-2,.5-.08.32,2Zm-31.46-.71c-.27-.6-.57-1.2-.89-1.8l.45-.24c.33.61.63,1.22.91,1.83ZM645,98.86l-.5-.1c.13-.67.24-1.34.33-2l.5.07C645.28,97.5,645.17,98.18,645,98.86Zm-50.13-1-.5-.1c.14-.66.29-1.32.46-2l.49.13C595.19,96.59,595,97.25,594.9,97.9Zm-30.32-1.7q-.16-1-.33-2l.5-.09q.17,1,.33,2ZM531.86,96c-.35-.55-.73-1.11-1.13-1.66l.41-.3c.41.56.8,1.13,1.15,1.68Zm113.73-1.16-.51,0c.05-.68.08-1.35.08-2h.51C645.67,93.44,645.64,94.12,645.59,94.81ZM595.91,94l-.48-.15c.2-.65.42-1.3.65-1.93l.48.17C596.33,92.72,596.11,93.37,595.91,94Zm-66.42-1.28c-.42-.51-.86-1-1.32-1.52l.37-.34c.46.51.91,1,1.34,1.54Zm34.42-.52q-.18-1-.36-2l.5-.09q.19,1,.36,2Zm81.2-1.44c0-.67-.12-1.34-.22-2l.5-.08c.1.66.18,1.35.22,2Zm-47.81-.54-.47-.2c.26-.63.55-1.25.84-1.86l.46.22C597.83,89,597.55,89.6,597.29,90.22Zm-70.51-.48c-.47-.47-1-.94-1.46-1.39l.34-.37c.5.46,1,.94,1.47,1.41Zm36.39-1.53q-.19-1-.4-2l.5-.1q.21,1,.4,2ZM523.81,87l-.5-.42q-.54-.45-1-.91l.34-.37q.49.45,1,.89l.51.43Zm120.68-.22a19.72,19.72,0,0,0-.58-1.91l.48-.17a20.23,20.23,0,0,1,.59,2ZM599,86.6l-.44-.24c.33-.59.67-1.19,1-1.76l.43.27C599.7,85.43,599.36,86,599,86.6Zm-36.7-2.35q-.22-1-.45-2l.49-.12q.23,1,.45,2Zm-41.52,0c-.47-.51-.91-1-1.32-1.57l.4-.31c.4.52.83,1,1.29,1.53Zm80.34-1.06-.41-.29c.39-.56.81-1.11,1.22-1.63l.4.32C602,82.09,601.55,82.63,601.16,83.18Zm42-.13a17.63,17.63,0,0,0-1-1.74l.43-.27a18.24,18.24,0,0,1,1,1.79ZM518.34,81a18.87,18.87,0,0,1-1-1.8l.46-.22a18.42,18.42,0,0,0,1,1.75Zm43.07-.68q-.25-1-.51-2l.49-.13q.27,1,.51,2ZM603.67,80l-.37-.34c.46-.51.94-1,1.42-1.47l.35.37C604.59,79.06,604.12,79.55,603.67,80Zm-90.54-.23,0-.51a13.53,13.53,0,0,0,2-.21l.09.5A14.13,14.13,0,0,1,513.13,79.82ZM641,79.69a17.78,17.78,0,0,0-1.34-1.47l.35-.36a18.55,18.55,0,0,1,1.38,1.52Zm-129.94,0a7.48,7.48,0,0,1-2-.71l.23-.45a7,7,0,0,0,1.83.66Zm6.12-.62-.17-.48a11.85,11.85,0,0,0,1.8-.82l.25.44A12.46,12.46,0,0,1,517.17,79.06Zm-9.8-1.26a11.43,11.43,0,0,1-1.43-1.49l.39-.32a11,11,0,0,0,1.37,1.42Zm9.21-.51a16,16,0,0,1-.53-2l.5-.1a15.63,15.63,0,0,0,.52,1.92Zm90,0-.32-.39c.53-.44,1.07-.86,1.62-1.25l.29.41C607.62,76.42,607.08,76.83,606.57,77.26Zm-85.8-.21-.32-.39a11.82,11.82,0,0,0,1.43-1.37l.38.34A12.22,12.22,0,0,1,520.77,77.05Zm117.38-.15c-.51-.4-1.06-.79-1.63-1.16l.27-.43c.58.37,1.15.77,1.67,1.19Zm-77.79-.51q-.28-1-.58-1.94l.48-.15q.3,1,.59,1.95Zm49.47-1.45-.26-.43c.58-.35,1.19-.68,1.8-1l.22.46C611,74.28,610.4,74.6,609.83,74.94Zm25-.2c-.58-.3-1.19-.59-1.82-.85l.2-.47c.64.27,1.26.56,1.85.87Zm-130-.14a16.61,16.61,0,0,1-.93-1.84l.47-.2a15.74,15.74,0,0,0,.9,1.78ZM523.49,74l-.43-.26a10.43,10.43,0,0,0,.87-1.78l.47.18A11,11,0,0,1,523.49,74Zm-7.7-.71q0-.4,0-.79c0-.43,0-.86.06-1.27l.5,0c0,.4-.06.81-.06,1.22q0,.38,0,.76Zm115.31-.08L630,72.82l-.79-.23.13-.49.8.23,1.15.37Zm-17.67,0-.19-.47c.63-.25,1.29-.47,1.94-.66l.14.49C614.68,72.71,614,72.93,613.42,73.17Zm-54.27-.64q-.32-1-.67-1.91l.48-.17q.35,1,.67,1.92Zm68.07-.4c-.66-.13-1.32-.24-2-.33l.07-.5c.67.09,1.35.2,2,.33Zm-10-.08-.1-.5c.66-.13,1.34-.24,2-.32l.06.5C618.57,71.81,617.91,71.92,617.26,72Zm6-.43c-.68,0-1.35,0-2,0v-.51q1,0,2,0Zm-120.09-.78a19.68,19.68,0,0,1-.49-2l.5-.09a19.27,19.27,0,0,0,.47,1.94Zm21.77-.75-.5-.07a6.78,6.78,0,0,0,.06-.88,5.69,5.69,0,0,0-.1-1.06l.5-.1a6.2,6.2,0,0,1,.1,1.15A7.37,7.37,0,0,1,524.91,70.09Zm-8.22-.79-.49-.14a9.14,9.14,0,0,1,.79-1.92l.44.25A8.61,8.61,0,0,0,516.7,69.3Zm41.07-.56q-.37-.94-.77-1.87l.47-.2q.4.93.77,1.88Zm-55.39-1.92c0-.57-.07-1.15-.07-1.71v-.34h.51v.33c0,.55,0,1.11.07,1.67Zm21.24-.46a3.47,3.47,0,0,0-1.5-1.11l.19-.47A4,4,0,0,1,524,66Zm-5-.39-.34-.38a4.16,4.16,0,0,1,1.88-1l.11.49A3.65,3.65,0,0,0,518.63,66ZM556.18,65q-.43-.92-.89-1.81l.45-.23q.46.9.89,1.83ZM503,62.78l-.5-.06a19.34,19.34,0,0,1,.35-2l.49.11A18.75,18.75,0,0,0,503,62.78Zm51.38-1.34c-.33-.59-.68-1.18-1-1.73l.43-.27c.35.56.7,1.15,1,1.75Zm-50.49-2.54-.48-.17a18.05,18.05,0,0,1,.79-1.9l.46.22A17.73,17.73,0,0,0,503.85,58.89ZM552.21,58c-.39-.56-.79-1.11-1.18-1.63l.4-.31c.4.52.81,1.08,1.2,1.65ZM505.58,55.3l-.43-.27a17.9,17.9,0,0,1,1.2-1.67l.39.32A17.39,17.39,0,0,0,505.58,55.3Zm44.17-.47c-.44-.51-.9-1-1.36-1.48l.36-.35c.47.48.94,1,1.38,1.5ZM508.08,52.2l-.36-.36a19.25,19.25,0,0,1,1.53-1.36l.32.4A18.91,18.91,0,0,0,508.08,52.2ZM546.94,52c-.5-.44-1-.87-1.54-1.27l.31-.4c.53.41,1.06.84,1.57,1.3ZM511.2,49.71l-.27-.43c.56-.36,1.16-.71,1.77-1l.23.45C512.33,49,511.75,49.36,511.2,49.71Zm32.56-.17c-.56-.36-1.14-.71-1.72-1l.24-.45c.59.32,1.18.67,1.75,1Zm-29-1.68-.2-.47c.61-.26,1.25-.49,1.92-.71l.16.48C516,47.38,515.35,47.61,514.75,47.86Zm25.5-.22c-.6-.27-1.23-.51-1.86-.73l.17-.48c.64.22,1.28.47,1.9.75Zm-21.69-1-.13-.49c.64-.17,1.31-.31,2-.44l.1.5C519.85,46.29,519.19,46.44,518.55,46.6Zm17.92-.26c-.63-.17-1.29-.31-2-.43l.09-.5c.68.12,1.35.27,2,.44Zm-14-.5-.07-.5c.65-.09,1.33-.16,2-.22l0,.5C523.82,45.67,523.14,45.75,522.5,45.84Zm10-.22c-.66-.07-1.33-.12-2-.15l0-.51c.68,0,1.36.08,2,.15Zm-6-.14,0-.51q1,0,2,0v.51Q527.49,45.45,526.51,45.49Z"/><path class="cls-15" d="M868.63,154.58c-.68,0-1.36,0-2-.08l0-.5c.67,0,1.34.07,2,.07Zm2-.08,0-.5c.66-.05,1.33-.13,2-.24l.08.5C872,154.37,871.36,154.45,870.68,154.5Zm-6.12-.22c-.67-.1-1.34-.23-2-.37l.11-.49c.65.15,1.32.27,2,.37Zm10.16-.43-.12-.49c.66-.17,1.31-.37,1.91-.58l.17.48C876.05,153.47,875.39,153.67,874.71,153.85Zm-14.15-.46c-.65-.19-1.3-.42-1.93-.66l.18-.47c.62.24,1.26.45,1.9.65Zm-123.34-.79a13.53,13.53,0,0,1-2-.32l.12-.49a13,13,0,0,0,2,.31Zm2.07,0,0-.5a8.61,8.61,0,0,0,1.92-.39l.16.48A9,9,0,0,1,739.3,152.59Zm139.27-.15-.23-.45a8.42,8.42,0,0,0,1.64-1.08l.32.39A8.93,8.93,0,0,1,878.57,152.44Zm-21.82-.5c-.61-.28-1.23-.59-1.83-.92l.24-.45c.59.32,1.19.62,1.79.9Zm-123.51-.28a17.85,17.85,0,0,1-1.87-.85l.23-.45a17.34,17.34,0,0,0,1.82.82Zm10-.42-.29-.41a5.83,5.83,0,0,0,1.36-1.37l.41.29A6.35,6.35,0,0,1,743.21,151.24Zm110-1.26c-.57-.36-1.14-.75-1.69-1.15l.3-.41c.54.4,1.1.78,1.66,1.13Zm28.6-.15-.39-.33a15.3,15.3,0,0,0,1.18-1.6l.43.27A15.36,15.36,0,0,1,881.76,149.83Zm-152.16-.05c-.56-.36-1.12-.76-1.67-1.18l.31-.4c.54.41,1.09.8,1.64,1.16Zm16-1.89-.48-.16a9.08,9.08,0,0,0,.42-1.92l.5.06A9.45,9.45,0,0,1,745.63,147.89Zm104.24-.31c-.51-.42-1-.88-1.53-1.35l.35-.37c.5.46,1,.91,1.51,1.33Zm-123.52-.28c-.5-.44-1-.9-1.5-1.39l.35-.36c.49.48,1,.94,1.48,1.37ZM884,146.38l-.46-.22a18.39,18.39,0,0,0,.78-1.84l.48.17A19.3,19.3,0,0,1,884,146.38Zm-37.1-1.58c-.47-.49-.93-1-1.37-1.51l.38-.33c.44.51.89,1,1.35,1.49Zm-123.47-.34q-.7-.75-1.36-1.52l.38-.33q.66.77,1.35,1.51Zm22.2-.63a14,14,0,0,0-.26-2l.5-.1a14.74,14.74,0,0,1,.27,2Zm140.17-.7c-.24,0-.47,0-.69,0l.05-.5a6.29,6.29,0,0,0,1.94-.1l.1.49A6.73,6.73,0,0,1,885.79,143.12Zm-2.72-.58a7.48,7.48,0,0,1-1.77-1.11l.32-.39a7,7,0,0,0,1.65,1Zm2.31,0-.49-.12a15.79,15.79,0,0,0,.35-2l.5.06A16.33,16.33,0,0,1,885.39,142.52Zm3.77-.25-.23-.45a10,10,0,0,0,1.65-1.08l.31.4A10.36,10.36,0,0,1,889.16,142.27Zm-44.92-.57c-.41-.54-.82-1.09-1.2-1.64l.42-.29c.38.55.78,1.09,1.19,1.62Zm-123.47-.34c-.43-.53-.84-1.07-1.24-1.61l.41-.3q.6.8,1.23,1.6Zm19.78-.11a7.78,7.78,0,0,1-2-.51l.19-.47a7.25,7.25,0,0,0,1.89.47Zm2.1-.1-.11-.49a5,5,0,0,0,1.76-.76l.29.42A5.52,5.52,0,0,1,742.64,141.15Zm2.19-1.22a14.63,14.63,0,0,0-.78-1.83l.45-.23a15.07,15.07,0,0,1,.81,1.9Zm135.06,0a7.07,7.07,0,0,1-.95-1.87l.48-.16a6.53,6.53,0,0,0,.88,1.73Zm12.51-.16-.37-.35,0,0a19,19,0,0,0,1.24-1.48l.4.3a19.22,19.22,0,0,1-1.28,1.52Zm-155.71,0a5.44,5.44,0,0,1-1.42-1.56l.44-.25a4.94,4.94,0,0,0,1.29,1.41Zm9.37-.89-.42-.29a7.41,7.41,0,0,0,.88-1.74l.48.17A8,8,0,0,1,746.06,138.82Zm139.24-.36a6.94,6.94,0,0,0-.38-1.91l.47-.17a7.36,7.36,0,0,1,.41,2.05Zm-43.4-.1c-.36-.56-.71-1.15-1.05-1.74l.44-.25c.34.59.69,1.17,1,1.72Zm-123.59-.26q-.59-.85-1.15-1.68l.42-.28c.37.55.75,1.11,1.14,1.67Zm176.56-1.64-.44-.26a16.86,16.86,0,0,0,.91-1.77l.46.2A17.23,17.23,0,0,1,894.88,136.47ZM743,136.41a8.44,8.44,0,0,0-1.33-1.44l.33-.39a9,9,0,0,1,1.41,1.53Zm-7.63-.26-.49-.12a3.16,3.16,0,0,1,1.25-1.76l.31.4A2.66,2.66,0,0,0,735.39,136.14ZM879.26,136l-.5-.1a2.41,2.41,0,0,1,1.32-1.72l.22.46A1.89,1.89,0,0,0,879.26,136Zm4.62-1a3,3,0,0,0-1.72-.66l0-.5a3.53,3.53,0,0,1,2,.77Zm-136.36,0-.5-.09a16.15,16.15,0,0,0,.2-2l.51,0A16.42,16.42,0,0,1,747.52,135Zm92.36-.13q-.4-.77-.79-1.58L839,133l.46-.22.11.24q.38.8.78,1.57Zm-123.81-.12c-.37-.59-.73-1.17-1.07-1.74l.44-.26q.5.84,1.06,1.73Zm24-.72a3.51,3.51,0,0,0-1.86-.13l-.1-.5a4,4,0,0,1,2.13.15Zm156.5-1.28-.48-.15a16.28,16.28,0,0,0,.46-1.94l.5.09A16.69,16.69,0,0,1,896.53,132.71ZM714,131.21c-.36-.64-.69-1.23-1-1.78l.45-.24c.29.55.62,1.14,1,1.78Zm124.17-.07c-.26-.64-.51-1.28-.73-1.91l.48-.17c.22.62.46,1.25.72,1.88Zm-90.94-.25v-.19c0-.65-.05-1.25-.05-1.81l.51,0c0,.59,0,1.18.05,1.8v.22Zm150-2.23-.51,0c0-.31,0-.61,0-.92s0-.72,0-1.08l.51,0q0,.55,0,1.11T897.22,128.67Zm-185.18-1c-.58-1.14-.9-1.84-.9-1.84l.46-.21s.32.69.89,1.82Zm124.77-.33c-.19-.67-.35-1.34-.48-2l.5-.1c.13.63.29,1.29.47,2Zm-89.08-.44-.5,0c.05-.7.13-1.38.24-2l.5.08C747.85,125.5,747.78,126.16,747.73,126.85Zm148.76-2.19c-.1-.65-.24-1.31-.41-2l.49-.13c.17.67.32,1.34.42,2ZM836,123.28c-.08-.69-.13-1.38-.15-2h.51c0,.65.07,1.32.15,2Zm-87.62-.38-.49-.13a17.4,17.4,0,0,1,.65-2l.47.19A16.9,16.9,0,0,0,748.37,122.91Zm147.11-2.12c-.22-.62-.47-1.24-.75-1.86l.46-.21c.28.63.54,1.27.76,1.9Zm-59.08-1.56-.5,0a18.11,18.11,0,0,1,.27-2l.5.1A17.82,17.82,0,0,0,836.4,119.23Zm-86.54,0-.44-.25a13.28,13.28,0,0,1,1.16-1.71l.4.32A12.73,12.73,0,0,0,749.86,119.22Zm30.12-.3a6,6,0,0,1-1.39-.18l.12-.49a5.51,5.51,0,0,0,1.27.16h0a3.94,3.94,0,0,0,.63,0l.08.5a4.6,4.6,0,0,1-.71.05Zm-3.34-.88c-.44-.2-.9-.45-1.37-.73l-.43-.25.25-.44.44.25c.46.27.9.5,1.33.7Zm6-.13-.35-.37a4.45,4.45,0,0,0,1-1.6l.47.18A4.92,4.92,0,0,1,782.63,117.92Zm60.57-.11a5.5,5.5,0,0,1-2-.58l.23-.45a5,5,0,0,0,1.84.53Zm2.08-.22-.11-.49a15.08,15.08,0,0,0,1.91-.56l.18.47A15.76,15.76,0,0,1,845.28,117.58Zm48.56-.46c-.31-.58-.65-1.16-1-1.73l.43-.27c.37.58.72,1.17,1,1.76Zm-141.5-1-.34-.38a12.06,12.06,0,0,1,1.66-1.23l.27.43A11.38,11.38,0,0,0,752.34,116.15Zm96.79,0-.25-.44a9.21,9.21,0,0,0,1.6-1.14l.34.38A9.85,9.85,0,0,1,849.13,116.13Zm-76.06,0c-.6-.3-1.21-.59-1.82-.85l.2-.47c.62.27,1.24.56,1.85.86Zm66.39-.08a11.7,11.7,0,0,1-1.4-1.52l.4-.31a11.22,11.22,0,0,0,1.34,1.46Zm-2.3-.72-.48-.16a15.66,15.66,0,0,1,.76-1.91l.46.22A15.1,15.1,0,0,0,837.17,115.32Zm-67.79-.79c-.64-.23-1.28-.44-1.91-.61l.14-.49c.64.18,1.3.39,1.95.62Zm14.89-.42-.5-.07a15.28,15.28,0,0,0,.15-2h.51A15.63,15.63,0,0,1,784.27,114.12Zm-28.58,0-.19-.47a13.71,13.71,0,0,1,2-.64l.12.49A13.28,13.28,0,0,0,755.7,114.07Zm136-.33c-.38-.53-.8-1.06-1.24-1.58l.39-.32c.44.53.86,1.07,1.26,1.61Zm-126.18-.29c-.67-.13-1.34-.24-2-.31l.06-.5c.66.07,1.34.18,2,.31Zm86.67-.11-.43-.27a5.32,5.32,0,0,0,.72-1.78l.5.1A5.82,5.82,0,0,1,852.18,113.34Zm-92.63-.22-.05-.5a18,18,0,0,1,1.89-.1h.16V113h-.15A17.21,17.21,0,0,0,759.55,113.12Zm77.37-.31c-.33-.57-.66-1.18-1-1.81l.46-.22c.29.62.61,1.22.94,1.77Zm2-1.07-.42-.28a15,15,0,0,1,1.25-1.64l.38.33A14.73,14.73,0,0,0,838.89,111.74Zm50.24-1.09c-.46-.49-.94-1-1.42-1.42l.35-.37c.49.46,1,.95,1.45,1.44Zm-105.28-.6c0-.63-.12-1.3-.22-2l.5-.07c.1.71.18,1.39.22,2Zm68.63-.68a5.79,5.79,0,0,0-.7-1.8l.44-.26a6.28,6.28,0,0,1,.76,2Zm-17.32-.26c-.24-.61-.46-1.26-.68-1.93L835,107c.21.66.43,1.3.67,1.9Zm6.36-.35-.33-.38a14.24,14.24,0,0,1,1.66-1.23l.27.43A13.87,13.87,0,0,0,841.52,108.77Zm44.68-.87-.09-.07c-.49-.4-1-.83-1.44-1.28l.35-.37c.46.44.93.86,1.41,1.25l.1.08Zm-41.33-1.25-.2-.46a11.4,11.4,0,0,1,2-.66l.12.49A11,11,0,0,0,844.87,106.65Zm5.66-.44a4.09,4.09,0,0,0-1.84-.42v-.51a4.58,4.58,0,0,1,2.07.48Zm-67.24-.13c-.13-.65-.28-1.32-.44-2l.49-.12c.16.66.31,1.33.44,2Zm50.62-.84c-.17-.64-.32-1.31-.47-2l.49-.1c.14.67.3,1.33.46,2Zm49.32-.15c-.45-.49-.89-1-1.32-1.56l.4-.32c.43.53.86,1,1.3,1.53Zm-100.89-2.93q-.27-1-.59-1.93l.48-.16q.32,1,.59,1.95Zm98.35-.26c-.39-.55-.77-1.13-1.13-1.7l.43-.27c.35.57.73,1.13,1.11,1.68Zm-47.63-.64q-.17-1-.3-2l.5-.07q.13,1,.3,2Zm45.47-2.82c-.33-.6-.64-1.21-.93-1.82l.46-.22c.29.6.6,1.2.92,1.79Zm-97.44-.11q-.34-.94-.72-1.89l.47-.19q.38,1,.72,1.9Zm51.44-1.1q-.09-1-.16-2l.51,0q.06,1,.16,2Zm44.25-2.47c-.26-.63-.5-1.27-.72-1.91l.48-.16c.22.63.45,1.26.71,1.88Zm-97.17-.18q-.4-.92-.83-1.84l.46-.22q.44.92.84,1.85Zm52.68-1.41q0-.91,0-1.85v-.19h.51v.19q0,.93,0,1.83Zm-54.41-2.24q-.46-.9-1-1.78l.44-.25q.5.89,1,1.79Zm97.59,0c-.18-.68-.34-1.35-.46-2l.5-.09c.12.63.27,1.29.45,2ZM832.8,89.1l-.51,0q0-1,.1-2l.51,0Q832.84,88.1,832.8,89.1Zm-56.91-1.7c-.36-.59-.72-1.16-1.08-1.7l.42-.28c.37.55.73,1.13,1.1,1.72Zm98.8-.53a19.85,19.85,0,0,1-.11-2h.51a19.21,19.21,0,0,0,.11,2Zm-41.64-1.79-.5,0q0-.48.1-1t.1-1.05l.5,0q0,.52-.1,1.06T833.06,85.07Zm-59.39-1q-.43-.59-.88-1.16l-.35-.45.41-.3.34.44q.45.57.89,1.17Zm101.56-1.22-.5-.07a12.06,12.06,0,0,1,.44-2l.48.15A11.66,11.66,0,0,0,875.22,82.82ZM833.42,81l-.5,0q.07-1,.11-2l.51,0Q833.5,80,833.42,81Zm-62.13-.3a19.46,19.46,0,0,1-1-1.81l.46-.21a18.94,18.94,0,0,0,.94,1.77Zm105.14-1.64-.44-.25a7.87,7.87,0,0,1,1.27-1.65l.36.36A7.34,7.34,0,0,0,876.43,79.09ZM769.56,77a19.13,19.13,0,0,1-.55-2l.49-.11a18.33,18.33,0,0,0,.54,1.93Zm64,0h-.51c0-.21,0-.42,0-.63q0-.7,0-1.38h.51q0,.69,0,1.4C833.59,76.53,833.59,76.75,833.59,77Zm-28.44-3.37a3.72,3.72,0,0,1-.87-.1l.12-.49a3.44,3.44,0,0,0,1.35,0l.53-.11.13.49c-.18,0-.38.09-.58.12A4.46,4.46,0,0,1,805.15,73.59ZM768.68,73a18.79,18.79,0,0,1-.1-2l.51-.05a18.33,18.33,0,0,0,.1,2ZM833,72.93c0-.69-.11-1.36-.19-2l.5-.06c.08.65.14,1.33.19,2Zm-24.7-.54-.35-.36a3.57,3.57,0,0,0,.93-1.62l.49.14A4.08,4.08,0,0,1,808.27,72.39Zm-5.82,0a5.7,5.7,0,0,1-1.06-1.82l.47-.18a5.2,5.2,0,0,0,1,1.66ZM769.19,69l-.5-.06a20.06,20.06,0,0,1,.33-2l.49.11A19.61,19.61,0,0,0,769.19,69Zm63.3,0c-.12-.68-.26-1.34-.42-2l.49-.12c.16.64.31,1.31.43,2Zm-31.6-.4a13.34,13.34,0,0,1-.12-1.81v-.25h.51v.24a12.63,12.63,0,0,0,.12,1.74Zm8.14-.06a10.26,10.26,0,0,0-.3-2l.49-.12a10.73,10.73,0,0,1,.32,2Zm-39-3.42-.48-.16c.21-.65.45-1.29.73-1.92l.47.2C770.48,63.79,770.24,64.42,770,65.06Zm61.47,0c-.22-.65-.47-1.27-.74-1.86l.46-.21c.27.6.53,1.24.75,1.9Zm-23.39-.42a18.58,18.58,0,0,0-.84-1.81l.45-.24a19.28,19.28,0,0,1,.87,1.86Zm-6.67-.14-.5-.07a17.51,17.51,0,0,1,.41-2l.49.13A17.38,17.38,0,0,0,801.44,64.49Zm28.4-3.07a16.6,16.6,0,0,0-1.12-1.65l.4-.31a17.1,17.1,0,0,1,1.15,1.7Zm-58.21,0-.44-.25c.33-.6.7-1.18,1.08-1.74l.42.29C772.31,60.23,772,60.81,771.63,61.39Zm34.62-.3c-.36-.55-.75-1.1-1.17-1.63l.4-.31c.43.54.83,1.1,1.19,1.66Zm-3.77-.45-.47-.19a16.31,16.31,0,0,1,.88-1.86l.44.25A15.78,15.78,0,0,0,802.47,60.64Zm24.94-2.36A15.87,15.87,0,0,0,825.92,57l.31-.4a16.37,16.37,0,0,1,1.54,1.36ZM773.9,58.1l-.39-.33c.44-.52.91-1,1.39-1.5l.35.36C774.78,57.09,774.33,57.59,773.9,58.1Zm29.88-.16c-.45-.49-.93-1-1.42-1.41l.34-.37c.5.46,1,.94,1.45,1.44Zm.62-.77-.41-.3a13.13,13.13,0,0,1,1.36-1.55l.35.36A12.64,12.64,0,0,0,804.4,57.16Zm19.88-1.33a19.24,19.24,0,0,0-1.77-.94l.21-.46a19.43,19.43,0,0,1,1.81,1Zm-47.53-.53-.32-.4c.53-.43,1.09-.83,1.66-1.2l.28.42C777.82,54.49,777.27,54.88,776.75,55.3Zm24.07-.07c-.53-.41-1.09-.8-1.64-1.15l.27-.43c.57.36,1.13.76,1.68,1.18Zm6.42-.81L807,54a10.81,10.81,0,0,1,1.82-1l.2.47A10.18,10.18,0,0,0,807.24,54.43Zm13.42-.28c-.61-.21-1.25-.41-1.91-.59l.13-.49c.68.18,1.33.38,2,.6Zm-40.56-1-.23-.45a20,20,0,0,1,1.87-.84l.18.47A19.22,19.22,0,0,0,780.1,53.12Zm36.69,0c-.59-.11-1.2-.22-1.82-.3l-.16,0,.07-.5.17,0c.63.09,1.25.19,1.85.31Zm-19.35,0a19.21,19.21,0,0,0-1.83-.81l.18-.47a19.42,19.42,0,0,1,1.88.83Zm13.42-.19-.1-.5a11.78,11.78,0,0,1,2.05-.24v.51A11.18,11.18,0,0,0,810.86,52.9ZM793.7,51.68c-.65-.17-1.31-.3-2-.41l.08-.5c.67.1,1.34.25,2,.42Zm-9.88,0-.13-.49a19.64,19.64,0,0,1,2-.43l.08.5A18.81,18.81,0,0,0,783.82,51.68Zm5.94-.61a18.72,18.72,0,0,0-2,0l0-.51a19.74,19.74,0,0,1,2.05,0Z"/><path class="cls-16" d="M542.16,65.61c-.27.27-.53.56-.78.86s-.42.52-.63.79l0-.13c.2-.32.4-.64.62-.94l-.69.54a6.23,6.23,0,0,1-.07-1A16.48,16.48,0,0,1,542.36,64a15.17,15.17,0,0,0,1.35,1.94c0,.41-.13.86-.22,1.32-.22-.23-.42-.46-.63-.7S542.38,65.92,542.16,65.61Z"/><path class="cls-17" d="M543,69.71c-.14.62-.27,1.07-.38,1.1s-.43-.32-.79-.9c.15-.28.31-.54.48-.8C542.49,69.31,542.72,69.51,543,69.71Z"/><path class="cls-17" d="M541.78,69.88a8.42,8.42,0,0,1-.59-1.18c.29-.46.61-.9.93-1.32a15,15,0,0,0,1.1,1.12c-.09.43-.18.83-.26,1.19-.24-.2-.47-.4-.7-.62C542.09,69.32,541.93,69.6,541.78,69.88Z"/><path class="cls-17" d="M542.27,69.1c-.17.26-.32.53-.48.8l0,0c.15-.28.32-.55.48-.82.23.21.47.42.7.62v0C542.72,69.51,542.49,69.31,542.27,69.1Z"/><path class="cls-18" d="M542.91,67.44l.43.53c0,.17-.07.34-.11.5l-.32-.3c-.27-.27-.53-.54-.79-.83q-.36.45-.69.94l-.26.39a8.72,8.72,0,0,1-.31-.92l.35-.6-.41.35c0-.07,0-.15,0-.22q.31-.41.63-.79c.25-.3.51-.59.78-.86q.34.47.7.9c.21.24.42.48.63.7l-.11.53Z"/><path class="cls-19" d="M541.19,68.69v0l.26-.39q.33-.49.69-.94c.26.29.52.56.79.83l.32.3v0a15,15,0,0,1-1.1-1.12C541.8,67.79,541.48,68.23,541.19,68.69Z"/><path class="cls-20" d="M540.58,65.69a3.5,3.5,0,0,1,.18-1.11c.12-.32.24-.68.35-1.05a16.63,16.63,0,0,1,1.6-1.26,15,15,0,0,0,.93,1.72c0,.18,0,.35,0,.52l-.52-.51c.18.39.38.77.58,1.13a4.18,4.18,0,0,1,0,.75A15.17,15.17,0,0,1,542.36,64,16.48,16.48,0,0,0,540.58,65.69Z"/><path class="cls-16" d="M542.73,62.24q-.47.33-.93.69c-.22.18-.45.36-.66.55l.14-.42c.19-.2.39-.4.58-.58l-.46.21a11.7,11.7,0,0,1,.48-1.19c.45-.31.91-.59,1.37-.84a15,15,0,0,0,.58,1.45l-.07.54-.28-.2.26.34c0,.39-.09.79-.1,1.17-.14-.23-.28-.46-.41-.7S542.9,62.59,542.73,62.24Z"/><path class="cls-17" d="M541.8,62.93q.46-.36.93-.69c.16.35.33.69.51,1s.27.47.41.7c0,0,0,0,0,0a15,15,0,0,1-.93-1.72,16.63,16.63,0,0,0-1.6,1.26l0-.05C541.36,63.29,541.58,63.11,541.8,62.93Z"/><path class="cls-21" d="M543.27,60.61c-.33.18-.67.38-1,.59l-.37.24a5.09,5.09,0,0,1,.35-.61l.11,0h-.09c.36-.53.76-.81,1.17-.63s.5,1,.39,1.89l-.17-.38C543.53,61.33,543.4,61,543.27,60.61Z"/><path class="cls-21" d="M541.89,61.5l0-.05.37-.24c.33-.21.66-.41,1-.59.13.36.26.72.41,1.06l.17.38a.48.48,0,0,1,0,0,15,15,0,0,1-.58-1.45C542.8,60.91,542.34,61.19,541.89,61.5Z"/><path class="cls-17" d="M542.5,70.44a17.29,17.29,0,0,1,2.07-12.71l.21.13A17.15,17.15,0,0,0,542.5,70.44Z"/><path class="cls-19" d="M547.79,68.07c-.08.51-.15,1-.2,1.56s-.07.9-.08,1.36l-.14-.13q0-.77,0-1.51c-.12.37-.24.74-.35,1.13a8.64,8.64,0,0,1-.87-1.1,22.15,22.15,0,0,1,.61-3.3,20.47,20.47,0,0,0,3,1.1c.27.48.53,1,.78,1.63q-.62-.12-1.24-.29C548.77,68.39,548.28,68.24,547.79,68.07Z"/><path class="cls-21" d="M551.84,72v0l-.2,0h0l.2,0c-.18-.45-.4-1-.63-1.51-.69-.09-1.38-.22-2.08-.39,0,.71,0,1.44,0,2.18a11.4,11.4,0,0,0,1.56.85l0,0c.84.37,1.46.5,1.57.38S552.17,72.77,551.84,72Z"/><path class="cls-20" d="M550,69.5l.87.25.27.64-.59-.09q-.75-.12-1.51-.3c0,.52,0,1,0,1.57,0,.21,0,.42,0,.63a12.13,12.13,0,0,1-1.05-.78c0-.31-.06-.62-.08-.93-.07.23-.13.47-.19.71l-.23-.21c0-.46,0-.91.08-1.36s.11-1,.2-1.56c.49.17,1,.32,1.47.45s.83.21,1.24.29l.29.67Z"/><path class="cls-20" d="M549.11,72.22l0,0c0-.21,0-.42,0-.63,0-.53,0-1.06,0-1.57q.76.18,1.51.3l.59.09,0,0c-.69-.09-1.38-.22-2.08-.39C549.08,70.75,549.07,71.48,549.11,72.22Z"/><path class="cls-18" d="M546.12,69.37a4.74,4.74,0,0,1-.66-1.36c-.12-.45-.27-.94-.42-1.44a22.83,22.83,0,0,1,.81-2.63,20.21,20.21,0,0,0,2.36,1.18c.13.2.27.39.41.56l-1-.16c.5.29,1,.56,1.52.8a5.55,5.55,0,0,1,.56.85,20.47,20.47,0,0,1-3-1.1A22.15,22.15,0,0,0,546.12,69.37Z"/><path class="cls-19" d="M545.82,63.89c-.18.48-.35,1-.5,1.48s-.21.74-.31,1.13l-.17-.58c.06-.37.12-.73.19-1.1-.12.19-.23.39-.34.59a16,16,0,0,1-.39-1.69c.26-.69.55-1.35.86-2a21,21,0,0,0,1.76,1.15l.34.65h-.46l.55.17c.25.47.51.94.8,1.38-.33-.14-.66-.29-1-.46S546.27,64.15,545.82,63.89Z"/><path class="cls-18" d="M545.32,65.38c.15-.51.32-1,.5-1.48.45.26.89.51,1.35.73s.66.31,1,.46l0,.05a20.21,20.21,0,0,1-2.36-1.18,22.83,22.83,0,0,0-.81,2.63l0-.07C545.11,66.12,545.21,65.75,545.32,65.38Z"/><path class="cls-16" d="M545.16,61.68c-.23.47-.45.94-.65,1.43-.08.18-.15.36-.22.55a7.64,7.64,0,0,1-.09-.95l.09-.14-.09.07c0-.87.22-1.49.81-1.6.8-.16,1.32.7,1.89,1.79l-.48-.29C546,62.27,545.58,62,545.16,61.68Z"/><path class="cls-19" d="M544.31,63.73v-.07c.07-.19.14-.37.22-.55.2-.49.41-1,.65-1.43.42.31.84.59,1.27.86l.48.29,0,.06a21,21,0,0,1-1.76-1.15C544.86,62.37,544.57,63,544.31,63.73Z"/><path class="cls-19" d="M551.9,73.14a23.3,23.3,0,0,1-7.54-15.64l.34,0A23.13,23.13,0,0,0,551.9,73.14Z"/><path class="cls-17" d="M548.27,57.21a3.35,3.35,0,0,0-.46-4.71s-9-7.37-12.64-9.74c-7.3-4.73-11.86-5.15-13-3.72-.49.6.67,1.55,2.09,2.73l19.32,15.91A3.35,3.35,0,0,0,548.27,57.21Z"/><path class="cls-16" d="M546.26,55.56c.77-.94,1.45-1.83,2-2.62a3.45,3.45,0,0,1,.53.35l15.74,13c1.43,1.18.84,2.63-.34,4.06s-2.49,2.29-3.92,1.11l-15.74-13a3.29,3.29,0,0,1-.45-.45C544.74,57.33,545.49,56.5,546.26,55.56Z"/><ellipse class="cls-22" cx="547.98" cy="56.98" rx="2.36" ry="0.33" transform="translate(155.64 443.75) rotate(-50.53)"/><ellipse class="cls-22" cx="549.29" cy="58.05" rx="2.36" ry="0.33" transform="translate(155.28 445.15) rotate(-50.53)"/><ellipse class="cls-22" cx="550.59" cy="59.13" rx="2.36" ry="0.33" transform="translate(155.01 446.63) rotate(-50.54)"/><ellipse class="cls-22" cx="551.9" cy="60.2" rx="2.36" ry="0.33" transform="translate(154.69 448.07) rotate(-50.54)"/><ellipse class="cls-22" cx="553.2" cy="61.28" rx="2.36" ry="0.33" transform="translate(154.19 449.32) rotate(-50.52)"/><ellipse class="cls-22" cx="554.51" cy="62.35" rx="2.36" ry="0.33" transform="translate(153.79 450.67) rotate(-50.52)"/><ellipse class="cls-22" cx="555.82" cy="63.43" rx="2.36" ry="0.33" transform="translate(153.61 452.26) rotate(-50.54)"/><ellipse class="cls-22" cx="557.12" cy="64.5" rx="2.36" ry="0.33" transform="translate(153.26 453.66) rotate(-50.54)"/><ellipse class="cls-22" cx="558.43" cy="65.58" rx="2.36" ry="0.33" transform="translate(152.59 454.73) rotate(-50.5)"/><ellipse class="cls-22" cx="559.73" cy="66.66" rx="2.36" ry="0.33" transform="translate(152.46 456.37) rotate(-50.53)"/><ellipse class="cls-22" cx="561.04" cy="67.73" rx="2.36" ry="0.33" transform="translate(152.06 457.71) rotate(-50.52)"/><ellipse class="cls-22" cx="562.34" cy="68.81" rx="2.36" ry="0.33" transform="translate(151.85 459.27) rotate(-50.54)"/><ellipse class="cls-16" cx="546.05" cy="55.38" rx="5.5" ry="0.6" transform="translate(156.14 441.65) rotate(-50.52)"/><ellipse class="cls-22" cx="546.05" cy="55.38" rx="5.5" ry="0.6" transform="translate(156.14 441.65) rotate(-50.52)"/><path class="cls-16" d="M764.48,58.32c-.38.36-.78.7-1.2,1s-.73.56-1.11.83l.18,0q.67-.39,1.3-.81-.37.47-.76.92a8.56,8.56,0,0,0,1.41.12,22.26,22.26,0,0,0,2.44-2.35,20.67,20.67,0,0,1-2.6-1.91c-.56,0-1.17.14-1.81.25.3.3.61.6.94.89S764.07,58,764.48,58.32Z"/><path class="cls-17" d="M758.93,57.08c-.86.17-1.47.32-1.51.48s.42.6,1.2,1.11c.38-.2.75-.41,1.11-.62Q759.31,57.57,758.93,57.08Z"/><path class="cls-17" d="M758.65,58.69a11.53,11.53,0,0,0,1.59.84q1-.58,1.83-1.23a21.07,21.07,0,0,1-1.49-1.54l-1.62.31c.26.33.53.66.82,1C759.42,58.27,759,58.49,758.65,58.69Z"/><path class="cls-17" d="M759.72,58c-.36.22-.73.42-1.11.62l0,0c.39-.2.77-.41,1.13-.63-.29-.32-.56-.65-.82-1h0Q759.31,57.57,759.72,58Z"/><path class="cls-18" d="M762,57.22l-.7-.6-.69.13.4.45c.35.37.71.74,1.1,1.1q-.63.47-1.31.91l-.54.34a12.13,12.13,0,0,0,1.25.46l.83-.45-.49.55.3.08c.38-.27.75-.54,1.11-.83s.82-.68,1.2-1c-.42-.32-.82-.65-1.2-1s-.64-.58-.94-.89l-.73.13C761.75,56.79,761.88,57,762,57.22Z"/><path class="cls-19" d="M760.25,59.53l0,0,.54-.34q.68-.43,1.31-.91c-.39-.36-.75-.73-1.1-1.1l-.4-.45h0a21.07,21.07,0,0,0,1.49,1.54Q761.21,58.95,760.25,59.53Z"/><path class="cls-20" d="M764.32,60.46a4.61,4.61,0,0,0,1.52-.21c.45-.15.94-.3,1.45-.45a22.94,22.94,0,0,0,1.77-2.15,20.78,20.78,0,0,1-2.32-1.33c-.24,0-.47,0-.7,0,.22.25.44.49.67.73-.53-.26-1-.54-1.52-.84a5.88,5.88,0,0,0-1,0,20.67,20.67,0,0,0,2.6,1.91A22.26,22.26,0,0,1,764.32,60.46Z"/><path class="cls-16" d="M769.11,57.65c-.31.42-.63.84-1,1.25s-.51.6-.78.89l.58-.17c.28-.26.55-.51.82-.78-.1.2-.2.41-.3.62a16.93,16.93,0,0,0,1.64-.61c.43-.61.84-1.22,1.2-1.85a20.59,20.59,0,0,1-2-.85l-.74.08.27.39-.45-.37c-.53.05-1.08.09-1.61.09.31.2.62.39.94.58S768.64,57.41,769.11,57.65Z"/><path class="cls-17" d="M768.14,58.9c.34-.41.66-.83,1-1.25-.47-.23-.93-.48-1.37-.73s-.63-.38-.94-.58h-.07a20.78,20.78,0,0,0,2.32,1.33,22.94,22.94,0,0,1-1.77,2.15l.07,0C767.63,59.49,767.88,59.2,768.14,58.9Z"/><path class="cls-21" d="M771.35,57c-.26.45-.54.9-.84,1.34l-.34.49a7.34,7.34,0,0,0,.85-.46l.06-.15v.12c.74-.48,1.13-1,.9-1.58-.31-.77-1.33-.72-2.57-.6l.51.24C770.38,56.59,770.86,56.79,771.35,57Z"/><path class="cls-21" d="M770.09,58.83l.07,0,.34-.49c.3-.44.58-.89.84-1.34-.49-.18-1-.38-1.43-.59l-.51-.24h-.07a20.59,20.59,0,0,0,2,.85C770.93,57.61,770.53,58.23,770.09,58.83Z"/><path class="cls-17" d="M757.91,57.68a23.59,23.59,0,0,0,17.42-2.37l-.17-.3A23.42,23.42,0,0,1,757.91,57.68Z"/><path class="cls-17" d="M774.76,59.65a3.35,3.35,0,0,1,.34-4.72s8.78-7.59,12.39-10.06c7.18-4.92,11.72-5.45,12.93-4.06.51.58-.63,1.57-2,2.78L779.49,60A3.35,3.35,0,0,1,774.76,59.65Z"/><path class="cls-16" d="M776.73,58c-.79-.92-1.49-1.8-2.05-2.57a3.41,3.41,0,0,0-.52.37l-15.4,13.36c-1.4,1.21-.77,2.65.44,4s2.55,2.22,3.95,1l15.4-13.36a3.34,3.34,0,0,0,.44-.46C778.29,59.68,777.52,58.86,776.73,58Z"/><ellipse class="cls-22" cx="775.04" cy="59.41" rx="0.33" ry="2.36" transform="translate(150.79 522.58) rotate(-40.96)"/><ellipse class="cls-22" cx="773.77" cy="60.52" rx="0.33" ry="2.36" transform="translate(149.75 522.01) rotate(-40.96)"/><ellipse class="cls-22" cx="772.49" cy="61.63" rx="0.33" ry="2.36" transform="translate(148.51 521.18) rotate(-40.93)"/><ellipse class="cls-22" cx="771.21" cy="62.73" rx="0.33" ry="2.36" transform="translate(147.53 520.69) rotate(-40.94)"/><ellipse class="cls-22" cx="769.93" cy="63.84" rx="0.33" ry="2.36" transform="translate(146.34 519.92) rotate(-40.92)"/><ellipse class="cls-22" cx="768.66" cy="64.95" rx="0.33" ry="2.36" transform="translate(145.57 519.72) rotate(-40.95)"/><ellipse class="cls-22" cx="767.38" cy="66.06" rx="0.33" ry="2.36" transform="translate(144.47 519.07) rotate(-40.95)"/><ellipse class="cls-22" cx="766.1" cy="67.17" rx="0.33" ry="2.36" transform="translate(143.57 518.7) rotate(-40.96)"/><ellipse class="cls-22" cx="764.82" cy="68.28" rx="0.33" ry="2.36" transform="translate(142.26 517.76) rotate(-40.93)"/><ellipse class="cls-22" cx="763.54" cy="69.39" rx="0.33" ry="2.36" transform="translate(141.22 517.19) rotate(-40.93)"/><ellipse class="cls-22" cx="762.27" cy="70.49" rx="0.33" ry="2.36" transform="translate(140.38 516.9) rotate(-40.96)"/><ellipse class="cls-22" cx="760.99" cy="71.6" rx="0.33" ry="2.36" transform="translate(139.08 515.96) rotate(-40.92)"/><ellipse class="cls-16" cx="776.94" cy="57.77" rx="0.6" ry="5.5" transform="translate(152.25 523.31) rotate(-40.95)"/><ellipse class="cls-22" cx="776.94" cy="57.77" rx="0.6" ry="5.5" transform="translate(152.25 523.31) rotate(-40.95)"/><path class="cls-18" d="M776.45,53.77l4.38,5.05,1.17-1-4.37-5Z"/><path class="cls-21" d="M778.49,52l4.36,5,.84-.73-4.35-5Z"/><path class="cls-18" d="M782.95,48.35l4.28,4.93,1.17-1-4.24-4.88Z"/><path class="cls-21" d="M781.22,49.76l4.32,5,.84-.73-4.3-5Z"/><path class="cls-18" d="M787.49,44.86l-.92.66,4.12,4.75,1.17-1-4-4.63Z"/><path class="cls-21" d="M788.78,44l3.92,4.52.84-.73-3.8-4.38Z"/><path class="cls-18" d="M798.39,43.59l.39-.33-2.44-2.82a15.82,15.82,0,0,0-1.61.5l2.89,3.33Z"/><path class="cls-21" d="M792.57,41.86l3.35,3.87.84-.73-3.14-3.62Q793.12,41.6,792.57,41.86Z"/><circle class="cls-20" cx="780.88" cy="51.24" r="0.53" transform="translate(157.89 524.82) rotate(-41)"/><circle class="cls-20" cx="781.9" cy="52.41" r="0.53" transform="translate(156.08 524.07) rotate(-40.84)"/><circle class="cls-20" cx="782.92" cy="53.59" r="0.53" transform="translate(155.9 525.49) rotate(-40.88)"/><circle class="cls-20" cx="783.95" cy="54.77" r="0.53" transform="translate(155.73 526.91) rotate(-40.92)"/><circle class="cls-20" cx="786.17" cy="47.38" r="0.68" transform="translate(161.93 527.62) rotate(-41.02)"/><circle class="cls-20" cx="787.47" cy="48.89" r="0.67" transform="translate(159.91 527.09) rotate(-40.86)"/><circle class="cls-20" cx="788.78" cy="50.39" r="0.67" transform="translate(159.58 528.74) rotate(-40.9)"/><circle class="cls-20" cx="798.63" cy="41.33" r="0.67" transform="translate(168.62 533.88) rotate(-40.98)"/><circle class="cls-20" cx="791.78" cy="43.35" r="0.59" transform="translate(165.04 529.14) rotate(-40.91)"/><circle class="cls-20" cx="792.92" cy="44.67" r="0.59" transform="translate(164.76 530.61) rotate(-40.95)"/><circle class="cls-20" cx="794.06" cy="45.99" r="0.59" transform="translate(163.86 531.27) rotate(-40.91)"/><path class="cls-16" d="M661.58,81.33c-3.59-.47-7.06,11.78-7.26,16.88s3.18,6.21,1.22,7.58-2.87,4.72-4.74,9.88c-1.67,4.59,3.14,3.73,4.12,3.73s.19,2-1,3.34,2.77,2.57,2,2.55c-1,0-2,1.75-.62,2.53s2.19,3.16,1.6,5.12,2.55,3.8,7.85,2.16c5.47-1.7,8.44,1.57,7.45,3.73,0,0,9.22,1,14.72-5.1C686.89,133.73,694.15,85.65,661.58,81.33Z"/><path class="cls-18" d="M672.17,138.83s10.11-.69,15.41-8.16l4.05,5.29s-8.26,9.45-20.92,8.86Z"/><path class="cls-18" d="M655.53,105.79c-1.45,1-2.32,3.1-3.43,6.2h0a66.75,66.75,0,0,0,7.82,1.49H685V103.14l0-.1c-.13-.43-.26-.85-.4-1.27l-.09-.25c-.14-.42-.29-.83-.44-1.24l0-.13c-.36-1-.75-1.9-1.18-2.82h0s-2.4-3.89-5.79-8.54a25.78,25.78,0,0,0-15.46-7.43c-3.28-.44-6.46,9.76-7.14,15.41,0,.3-.09,1-.12,1.33v.13C654.12,103.31,657.49,104.41,655.53,105.79Z"/><path class="cls-17" d="M661.91,80.48c-2.3,2,4.08,8.46,14,17.07s2.87,18.62,9.93,25.81,2.25,14.62,16,20.76c10.28,4.6,6.94,12.33,6.94,12.33s9.77-5.56,7.76-14.29c-2.1-9.05-2.2-10.9-.66-16.36s3.08-13.09-1.8-23.87-6.93-18-14.63-25.68C691.5,68.37,674.52,69.32,661.91,80.48Z"/><path class="cls-19" d="M656.18,102.06c.32.38,1,.62,3,0s6.16,1.64,6.16,1.64a8.32,8.32,0,0,0-6.16-3.15C655.35,100.55,656.18,102.06,656.18,102.06Z"/><path class="cls-21" d="M664.44,106.21a22.48,22.48,0,0,0-5.78.18l-.49-2.66A21.59,21.59,0,0,1,664.44,106.21Z"/><path class="cls-19" d="M657.6,104.26s.16,2.31.71,2.38,1.16-1.78.7-2.4S657.6,104.26,657.6,104.26Z"/><path class="cls-17" d="M663.1,106.14a26.66,26.66,0,0,0-4.93.65v-.41A9,9,0,0,1,663.1,106.14Z"/><path class="cls-17" d="M664.79,106.2c.89.93-2.93-2.32-7.2-1.95a.68.68,0,0,1,.28-.85A9.92,9.92,0,0,1,664.79,106.2Z"/><path class="cls-19" d="M661.3,116.43a27.37,27.37,0,0,1,3.83.15,26.81,26.81,0,0,1,3.82.68,16.55,16.55,0,0,1,7,3.44,17,17,0,0,0-6.68-4.29,29.51,29.51,0,0,0-7.92-1.75Z"/><path class="cls-19" d="M664.18,119a16.62,16.62,0,0,1,4.56.39,9.87,9.87,0,0,1,4.21,2,10.25,10.25,0,0,0-4-2.67,16.47,16.47,0,0,0-2.33-.74,16.76,16.76,0,0,0-2.45-.42Z"/><g class="cls-23"><path class="cls-24" d="M672.67,132.41h0a38.08,38.08,0,0,0,7.61-3.73c3.12-2.49,3.46-4.9,3.5-5.28-.22,4.08-2.15,6.58-3.91,7.36a15.49,15.49,0,0,0-3.61,2.52,2.42,2.42,0,0,0-.36.89c-.15,1.54-3.54,3.86-3.73,4.66,1-2.16-2-5.42-7.45-3.73.05,0,3.88-1.11,7.95-2.69Z"/></g><path class="cls-22" d="M661.1,127.62s2-3.48-.67-5.3C660.43,122.32,664.82,124,661.1,127.62Z"/><path class="cls-22" d="M663.74,125.85s.19-2.55-1.49-3.25C662.25,122.6,664.7,122.92,663.74,125.85Z"/><path class="cls-21" d="M718.64,61.13q-.61,1.19-1.21,2.4,1.21-1.25,2.44-2.48c8-.49,15.1.64,15.27,1.5S728.26,67.8,721,71.69c-1-.25-2.08-.48-3.13-.71l2.06,1.27-1.51.77q-2.52-.6-5.08-1.13,1.71,1,3.4,2a34.91,34.91,0,0,1-9.36,3.31,51.2,51.2,0,0,0-7.34,1.71c-1.27-.15-2.55-.29-3.84-.42l2.06,1c-3.36,1.05-6.64,2.21-9.35,2.84l-.52-.19.3.24c-3,.68-5.34.66-6.22-1-1.46-2.78,3.1-6.25,8.89-9.57,0,.51,0,1-.06,1.54l.74-1.92c2.87-1.63,6-3.23,8.71-4.8q-.65,1.62-1.27,3.24,2.13-2.56,4.37-5.09C707.48,62.75,713.14,61.55,718.64,61.13Z"/><path class="cls-19" d="M719.95,72.25,717.89,71c1,.23,2.09.47,3.13.71,1.35-.72,2.69-1.46,4-2.19l.14-.08c2-1.12,3.82-2.22,5.38-3.2l.13-.08c2.76-1.74,4.59-3.11,4.49-3.59s-2.32-1-5.64-1.36l-.24.27h0l.24-.27h-.15a62,62,0,0,0-6.46-.23h-.17c-.93,0-1.88,0-2.84.1q-1.24,1.23-2.44,2.48.6-1.2,1.21-2.4c-1,.08-2,.19-3.05.32q-1.52,1.87-3,3.77-1.71,2.23-3.33,4.48,2.68.75,5.3,1.58,2.23.7,4.42,1.45Z"/><path class="cls-17" d="M676,84.22l.32.93a203.52,203.52,0,0,1,56.91-22.21A203.93,203.93,0,0,0,676,84.22Z"/><path class="cls-21" d="M694.49,60.49l-.06,0,0,.09Z"/><path class="cls-21" d="M731.75,47.76C718,48,704.57,54.23,694.49,60.49l-.08.12,0-.09A117.66,117.66,0,0,0,677.3,73.4a2.62,2.62,0,0,0,.43,2c1.2,1.71,3.69,1.4,6.85.23l-.36-.21.59.12c2.83-1.07,6.19-2.78,9.67-4.39l-2.36-.74c1.4,0,2.8-.08,4.19-.1A55.53,55.53,0,0,1,704,67.46a38.12,38.12,0,0,0,9.61-4.91q-2-.83-3.94-1.63,2.83.21,5.63.5l1.51-1-2.4-1.08,3.47.32C725.1,54.4,732.07,48.75,731.75,47.76Z"/><path class="cls-19" d="M718.86,58.89c1.45-1.06,2.87-2.12,4.21-3.14l.2-.15.2-.16c1.4-1.08,2.7-2.12,3.84-3.07l.13-.11c1-.85,1.9-1.61,2.6-2.28l0,0,.21-.2.17-.17,0,0c.89-.88,1.36-1.52,1.27-1.79a63.38,63.38,0,0,0-23.53,5.51l-.34.58q-1.52,2.64-3,5.3,3,.43,5.93.94,2.51.44,5,.93l.94-.65-2.4-1.08,3.47.32Z"/><path class="cls-17" d="M673.35,77.31a210.86,210.86,0,0,1,54.1-28.84A211.44,211.44,0,0,0,673,76.38Z"/><path class="cls-21" d="M721.26,72.23q-.69,1.17-1.36,2.34,1.28-1.18,2.59-2.35c8,0,15.12,1.52,15.24,2.39S730.53,79.48,723,83l-3.1-.89,2,1.4-1.56.69q-2.5-.75-5-1.43,1.66,1.07,3.29,2.17A35.15,35.15,0,0,1,709,87.67,51.63,51.63,0,0,0,701.58,89c-1.27-.23-2.54-.44-3.83-.64l2,1.09c-3.44.86-6.79,1.83-9.55,2.31l-.52-.22.29.26c-3.07.51-5.39.36-6.18-1.4-1.31-2.88,3.48-6.09,9.48-9.09q-.08.77-.15,1.54.42-.94.85-1.89c3-1.47,6.19-2.9,9-4.31q-.75,1.59-1.46,3.18,2.29-2.45,4.68-4.85C710,73.21,715.72,72.33,721.26,72.23Z"/><path class="cls-19" d="M721.93,83.46l-2-1.4L723,83c1.4-.64,2.79-1.31,4.12-2l.14-.08c2.06-1,4-2,5.6-2.9l.13-.08c2.87-1.59,4.79-2.86,4.71-3.34s-2.27-1.18-5.58-1.69l-.26.25h0l.26-.25-.15,0a63.42,63.42,0,0,0-6.48-.61h-.17c-.93,0-1.88-.06-2.85-.06q-1.31,1.17-2.59,2.35.67-1.17,1.36-2.34c-1,0-2.06.07-3.09.14Q716.55,74.16,715,76q-1.85,2.14-3.61,4.3,2.65.91,5.23,1.89,2.2.83,4.36,1.71Z"/><path class="cls-17" d="M677.6,92.73c.13.29.25.59.37.89a204.73,204.73,0,0,1,57.88-18.73A205.13,205.13,0,0,0,677.6,92.73Z"/><path class="cls-21" d="M722.32,86c-.46.66-.91,1.33-1.36,2,.81-.65,1.63-1.3,2.46-1.94,7.16.47,13.41,2.29,13.46,3.08s-6.74,3.91-13.65,6.56c-.9-.34-1.8-.67-2.72-1l1.7,1.37-1.43.52c-1.45-.55-2.92-1.08-4.41-1.59q1.42,1.06,2.81,2.14a31.52,31.52,0,0,1-8.73,1.89,46.27,46.27,0,0,0-6.74.69c-1.12-.28-2.25-.55-3.38-.81l1.73,1.09c-3.12.56-6.18,1.21-8.67,1.47l-.44-.23.24.25c-2.78.26-4.84,0-5.44-1.64-1-2.65,3.48-5.23,9-7.53-.08.46-.15.91-.23,1.37l.88-1.63c2.75-1.13,5.71-2.2,8.33-3.29-.51.91-1,1.83-1.51,2.75q2.2-2,4.49-4C712.17,86.21,717.37,85.78,722.32,86Z"/><path class="cls-19" d="M722.22,96.11l-1.7-1.37c.91.32,1.82.65,2.72,1,1.29-.49,2.57-1,3.8-1.5l.13-.06c1.9-.78,3.67-1.55,5.17-2.25l.12-.06c2.66-1.24,4.45-2.25,4.42-2.7s-2-1.19-4.89-1.85l-.25.21h0l.25-.21-.13,0a55,55,0,0,0-5.75-.95l-.15,0c-.83-.09-1.68-.17-2.54-.23-.83.64-1.65,1.29-2.46,1.94.45-.67.9-1.34,1.36-2-.92,0-1.84-.06-2.77-.06q-1.56,1.5-3.08,3-1.77,1.79-3.49,3.62,2.3,1,4.55,2,1.91.88,3.79,1.8Z"/><path class="cls-17" d="M681.34,102.87a183.24,183.24,0,0,1,53.85-13.55A183.67,183.67,0,0,0,680.9,102.1C681,102.36,681.2,102.61,681.34,102.87Z"/><path class="cls-21" d="M723.23,100.73l-1.78,1.63q1.41-.67,2.85-1.32c6.86,2.12,12.52,5.33,12.38,6.11s-7.46,2.24-14.79,3.22l-2.41-1.59,1.34,1.73-1.51.17q-1.94-1.31-3.92-2.57c.76.91,1.5,1.82,2.24,2.73a31.52,31.52,0,0,1-8.93-.18,46.32,46.32,0,0,0-6.72-.89q-1.54-.8-3.1-1.57l1.43,1.46c-3.16-.18-6.29-.25-8.77-.58l-.38-.32.18.3c-2.76-.39-4.71-1.13-4.91-2.85-.35-2.8,4.6-4.28,10.53-5.24l-.54,1.28,1.23-1.39c2.94-.47,6.06-.82,8.86-1.28-.71.77-1.41,1.55-2.1,2.33q2.61-1.48,5.3-2.9C713.32,98.56,718.47,99.34,723.23,100.73Z"/><path class="cls-19" d="M720.81,110.52l-1.34-1.73,2.41,1.59c1.37-.18,2.73-.37,4-.58l.14,0c2-.32,3.93-.65,5.55-1l.13,0c2.88-.59,4.85-1.16,4.92-1.6s-1.62-1.61-4.32-2.93l-.29.15h0l.29-.15-.12-.06a56.15,56.15,0,0,0-5.37-2.25l-.14-.05c-.79-.28-1.59-.55-2.42-.81q-1.43.65-2.85,1.32l1.78-1.63c-.88-.26-1.78-.49-2.68-.7q-1.87,1.1-3.7,2.24-2.15,1.33-4.23,2.72,2,1.48,4,3,1.66,1.3,3.27,2.63Z"/><path class="cls-17" d="M681.9,106.4c.06.27.11.55.16.83A183.18,183.18,0,0,1,735,106.9,183.57,183.57,0,0,0,681.9,106.4Z"/><path class="cls-21" d="M719.33,115.42l-1.86,1.12,2.74-.66c5.67,3.07,10.07,6.9,9.82,7.56s-7,.66-13.59.23c-.61-.61-1.22-1.22-1.84-1.83l.87,1.75-1.36-.12q-1.47-1.49-3-2.95.76,1.4,1.49,2.8a28.25,28.25,0,0,1-7.83-1.73,41.47,41.47,0,0,0-5.76-2q-1.21-1-2.45-1.93l1,1.54c-2.75-.72-5.49-1.33-7.62-2.06l-.28-.35.11.29c-2.36-.83-3.95-1.83-3.82-3.37.18-2.53,4.8-3,10.19-2.75l-.7,1,1.33-1c2.66.11,5.48.34,8,.44q-1.14.83-2.26,1.68,2.56-.84,5.17-1.62C711,111.76,715.39,113.35,719.33,115.42Z"/><path class="cls-19" d="M715.47,123.6l-.87-1.75c.62.61,1.23,1.21,1.84,1.83,1.23.08,2.47.15,3.66.2h.13c1.84.08,3.57.11,5.06.11h.12c2.64,0,4.47-.17,4.61-.54s-1.15-1.7-3.29-3.34l-.28.08h0l.28-.08-.1-.08a49.79,49.79,0,0,0-4.33-2.93l-.11-.07q-1-.58-2-1.14l-2.74.66,1.86-1.12c-.73-.38-1.48-.74-2.23-1.09q-1.84.64-3.65,1.31-2.12.8-4.2,1.64,1.51,1.66,3,3.35,1.23,1.44,2.41,2.89Z"/><path class="cls-17" d="M683,113.19c0,.25.06.5.09.74a164.56,164.56,0,0,1,45.47,9A164.86,164.86,0,0,0,683,113.19Z"/><path class="cls-21" d="M709.29,128.83l-1.81.32,2.36.31c3.55,4.16,5.88,8.52,5.47,9s-5.71-1.59-10.82-3.95c-.29-.67-.59-1.33-.9-2q.08.83.15,1.65l-1-.51c-.47-1.08-1-2.17-1.47-3.25.12.89.23,1.78.33,2.67a24,24,0,0,1-5.67-3.75,34.8,34.8,0,0,0-4-3.31q-.66-1.14-1.36-2.27c.11.51.22,1,.32,1.52-2-1.41-3.94-2.72-5.41-3.94l-.11-.36c0,.09,0,.18,0,.26-1.62-1.38-2.57-2.64-2-3.83.92-1.95,4.7-.88,8.9.92l-.87.6,1.35-.39c2.08.9,4.23,1.94,6.22,2.79l-2.3.64q2.28.11,4.59.3A27.77,27.77,0,0,1,709.29,128.83Z"/><path class="cls-19" d="M703.75,134.13q-.08-.82-.15-1.65c.31.67.61,1.34.9,2,1,.44,1.91.87,2.83,1.27l.11,0c1.43.62,2.79,1.18,4,1.62l.1,0c2.09.79,3.59,1.23,3.81,1s-.39-1.69-1.58-3.65l-.25,0h0l.25,0-.06-.09a40.71,40.71,0,0,0-2.54-3.63l-.07-.09c-.39-.5-.8-1-1.23-1.51l-2.36-.31,1.81-.32c-.47-.52-.95-1-1.43-1.54-1.1,0-2.19-.06-3.29-.07-1.28,0-2.56,0-3.82,0q.69,1.77,1.32,3.55.54,1.51,1,3Z"/><path class="cls-17" d="M714.34,137.58a139.62,139.62,0,0,0-33-21.52c0,.14,0,.27-.06.41a.94.94,0,0,1-.06.22A139.29,139.29,0,0,1,714.34,137.58Z"/><path class="cls-21" d="M712.32,56.39c-.37.88-.74,1.75-1.1,2.63q1.18-1.42,2.39-2.82c8.39-1.15,16-.53,16.27.37s-6.85,6.11-14.2,10.8q-1.68-.27-3.37-.5L714.59,68,713,69q-2.71-.43-5.46-.8c1.26.59,2.51,1.2,3.75,1.81a37.14,37.14,0,0,1-9.64,4.25,54.17,54.17,0,0,0-7.62,2.39q-2-.09-4.1-.14l2.26.85c-3.48,1.38-6.85,2.86-9.67,3.75l-.57-.16.34.23c-3.15,1-5.6,1.13-6.67-.61-1.77-2.82,2.79-6.85,8.64-10.83,0,.55,0,1.09.06,1.63q.31-1,.63-2.1c2.91-2,6.07-3.89,8.83-5.77q-.56,1.76-1.08,3.53,2-2.88,4.22-5.73C700.64,59,706.53,57.27,712.32,56.39Z"/><path class="cls-19" d="M714.59,68l-2.29-1.18q1.69.24,3.37.5c1.37-.87,2.73-1.76,4-2.63l.14-.1c2-1.35,3.87-2.66,5.44-3.82l.13-.1c2.78-2.06,4.6-3.66,4.46-4.16s-2.53-.91-6.08-1l-.23.3h0l.23-.3h-.16a65.87,65.87,0,0,0-6.86.26h-.18q-1.47.14-3,.34-1.21,1.4-2.39,2.82c.36-.88.72-1.76,1.1-2.63-1.07.17-2.14.37-3.21.58q-1.45,2.1-2.84,4.22-1.63,2.49-3.17,5,2.89.58,5.73,1.25,2.42.56,4.8,1.18Z"/><path class="cls-17" d="M669.1,84.22l.42,1a215.89,215.89,0,0,1,58.43-28A216.41,216.41,0,0,0,669.1,84.22Z"/><path class="cls-21" d="M686.72,57.64l-.06,0,0,.1Z"/><path class="cls-21" d="M725.12,41.2c-14.54,1.35-28.25,9-38.4,16.44l-.08.14,0-.1a125.16,125.16,0,0,0-17.1,15,2.78,2.78,0,0,0,.62,2.12c1.4,1.71,4,1.18,7.27-.3l-.4-.2.63.09C680.59,73,684,70.94,687.56,69l-2.56-.6q2.22-.24,4.43-.44a58.44,58.44,0,0,1,7.87-3.67c2.89-1,6.29-3.29,9.77-6q-2.14-.72-4.3-1.41,3,0,6,.08l1.52-1.22-2.63-.95,3.7.06C718.61,48.76,725.54,42.22,725.12,41.2Z"/><path class="cls-19" d="M712.37,54c1.45-1.23,2.86-2.46,4.2-3.66l.19-.17L717,50c1.39-1.26,2.69-2.46,3.82-3.55l.13-.12c1-1,1.88-1.86,2.57-2.62l0,0,.2-.23.17-.19,0-.05c.87-1,1.32-1.72,1.2-2-8.63.8-17,3.82-24.45,7.7l-.31.64q-1.4,2.92-2.7,5.84,3.2.22,6.35.53c1.79.17,3.57.37,5.33.58l.95-.76-2.63-.95,3.7.06Z"/><path class="cls-17" d="M665.69,77.11a223.51,223.51,0,0,1,54.94-34.82,224.13,224.13,0,0,0-55.42,33.87Z"/><path class="cls-21" d="M717.05,66.94q-.64,1.29-1.25,2.58,1.26-1.35,2.56-2.69c8.48-.67,16.12.4,16.31,1.32s-7.24,5.73-14.89,10c-1.11-.24-2.23-.47-3.35-.7l2.23,1.32-1.6.85q-2.7-.59-5.44-1.11,1.85,1,3.66,2a37.29,37.29,0,0,1-9.92,3.71,54.54,54.54,0,0,0-7.79,2q-2-.21-4.1-.38l2.22,1c-3.57,1.18-7,2.47-9.92,3.2l-.56-.19.33.25c-3.21.78-5.68.81-6.66-1-1.61-2.94,3.2-6.72,9.31-10.37,0,.55,0,1.09,0,1.64.25-.69.49-1.38.75-2.07,3-1.79,6.31-3.56,9.2-5.28q-.66,1.74-1.29,3.48Q699,73.72,701.37,71C705.18,68.87,711.2,67.49,717.05,66.94Z"/><path class="cls-19" d="M718.65,78.77l-2.23-1.32c1.13.22,2.24.46,3.35.7,1.43-.79,2.84-1.6,4.2-2.4l.15-.09c2.09-1.24,4-2.44,5.68-3.51l.14-.09c2.91-1.9,4.84-3.4,4.72-3.91s-2.49-1.07-6-1.34l-.26.29h0l.26-.29-.16,0a66.2,66.2,0,0,0-6.9-.13h-.18c-1,0-2,.09-3,.17q-1.29,1.34-2.56,2.69.62-1.29,1.25-2.58c-1.09.1-2.17.24-3.25.4q-1.58,2-3.1,4.08-1.78,2.4-3.48,4.84,2.87.75,5.68,1.58,2.39.71,4.75,1.46Z"/><path class="cls-17" d="M672.49,92.1c.16.3.32.61.46.92A217,217,0,0,1,732.7,68.6,217.57,217.57,0,0,0,672.49,92.1Z"/><path class="cls-21" d="M718.34,79.35c-.43.74-.86,1.48-1.28,2.22q1.21-1.13,2.45-2.25c7.62-.08,14.37,1.35,14.48,2.18s-6.82,4.67-13.91,8q-1.47-.43-3-.83L719,90l-1.48.66q-2.37-.7-4.79-1.33,1.59,1,3.14,2a33.33,33.33,0,0,1-9.09,2.7,48.83,48.83,0,0,0-7.08,1.27q-1.81-.31-3.64-.59l1.92,1c-3.26.84-6.44,1.78-9.06,2.24l-.49-.2.28.24c-2.92.5-5.12.37-5.88-1.3-1.26-2.72,3.27-5.81,9-8.69,0,.49-.09,1-.13,1.46l.8-1.8c2.82-1.42,5.86-2.78,8.55-4.15q-.7,1.51-1.37,3,2.15-2.34,4.42-4.63C707.62,80.35,713.08,79.48,718.34,79.35Z"/><path class="cls-19" d="M719,90l-1.91-1.31q1.49.4,3,.83c1.32-.62,2.64-1.26,3.9-1.89l.14-.07c1.95-1,3.76-1.93,5.29-2.79l.13-.07c2.72-1.52,4.53-2.74,4.46-3.2s-2.16-1.1-5.32-1.57l-.24.24h0l.24-.24-.14,0a59.67,59.67,0,0,0-6.16-.54h-.16c-.89,0-1.79,0-2.71,0q-1.24,1.11-2.45,2.25c.42-.74.85-1.49,1.28-2.22-1,0-2,.08-2.93.15q-1.54,1.71-3,3.45-1.74,2-3.4,4.11,2.52.85,5,1.77,2.09.77,4.15,1.6Z"/><path class="cls-17" d="M676.33,100.43A194.37,194.37,0,0,1,732.21,81.8a194.86,194.86,0,0,0-56.42,17.85C676,99.91,676.16,100.16,676.33,100.43Z"/><path class="cls-21" d="M720.88,92.49l-1.57,2q1.36-1,2.73-1.9c7.56.95,14.06,3.27,14.06,4.11s-7.38,3.71-14.86,6.08l-2.81-1.22,1.71,1.56-1.55.45q-2.26-1-4.57-2,1.44,1.21,2.84,2.44a33.34,33.34,0,0,1-9.37,1.45,49.11,49.11,0,0,0-7.18.3q-1.75-.55-3.53-1.07l1.77,1.27c-3.34.39-6.62.9-9.28,1l-.46-.27.24.28c-3,.1-5.13-.32-5.66-2.08-.88-2.87,4-5.31,10-7.41-.11.48-.22,1-.33,1.43.34-.56.68-1.12,1-1.68,3-1,6.18-2,9-3-.6.94-1.19,1.88-1.77,2.82q2.45-2,5-4C710.12,92,715.65,91.91,720.88,92.49Z"/><path class="cls-19" d="M720.14,103.16l-1.71-1.56,2.81,1.22c1.4-.44,2.79-.89,4.11-1.35l.15-.05c2.06-.7,4-1.41,5.62-2.05l.14-.05c2.9-1.14,4.85-2.11,4.84-2.58s-2-1.38-5.05-2.27l-.28.21h0l.28-.21-.14,0a58.74,58.74,0,0,0-6-1.36l-.16,0c-.88-.15-1.77-.28-2.68-.4q-1.38.94-2.73,1.9l1.57-2c-1-.1-1.95-.18-2.92-.24q-1.75,1.49-3.46,3-2,1.79-3.92,3.61,2.37,1.18,4.7,2.42,2,1.05,3.89,2.14Z"/><path class="cls-17" d="M678.73,106c.11.28.22.56.32.84A194.3,194.3,0,0,1,734.3,96.78,194.85,194.85,0,0,0,678.73,106Z"/><path class="cls-21" d="M718.55,108.2l-1.83,1.4,2.81-1c6.33,2.58,11.43,6.1,11.23,6.83s-7.26,1.51-14.3,1.82q-1.06-.86-2.15-1.71l1.12,1.75-1.45,0q-1.73-1.4-3.5-2.76,1,1.38,1.89,2.78a30,30,0,0,1-8.46-.91,43.76,43.76,0,0,0-6.3-1.41q-1.39-.88-2.81-1.75l1.24,1.51c-3-.44-5.95-.76-8.28-1.28l-.33-.34.14.3c-2.59-.6-4.37-1.47-4.42-3.11-.1-2.69,4.72-3.67,10.42-4.09l-.62,1.17,1.28-1.21c2.82-.2,5.82-.28,8.51-.47q-1.1,1-2.18,2,2.6-1.19,5.27-2.3C709.32,105.31,714.15,106.48,718.55,108.2Z"/><path class="cls-19" d="M715.43,117.27l-1.12-1.75q1.09.85,2.15,1.71c1.31-.05,2.62-.13,3.88-.21h.14c1.95-.13,3.78-.3,5.35-.47l.14,0c2.77-.32,4.7-.7,4.8-1.11s-1.4-1.66-3.85-3.14l-.29.12h0l.29-.12-.11-.07a52.91,52.91,0,0,0-4.91-2.58l-.13-.06q-1.09-.5-2.23-1l-2.81,1,1.83-1.4c-.82-.32-1.65-.61-2.48-.89q-1.87.88-3.69,1.81-2.15,1.08-4.24,2.22,1.79,1.58,3.51,3.19,1.46,1.37,2.88,2.76Z"/><path class="cls-17" d="M680,110.08c.06.26.12.51.18.78a174.44,174.44,0,0,1,49,4.18A174.84,174.84,0,0,0,680,110.08Z"/><path class="cls-21" d="M713.31,120.4l-1.75.86,2.5-.38c4.85,3.18,8.51,6.94,8.23,7.52s-6.29.06-12.19-.82c-.5-.6-1-1.19-1.51-1.78.22.55.43,1.09.65,1.64l-1.21-.21c-.8-1-1.63-1.92-2.46-2.87.38.87.76,1.74,1.12,2.62a25.45,25.45,0,0,1-6.89-2.15,37,37,0,0,0-5-2.2c-.67-.64-1.36-1.28-2-1.91l.78,1.46c-2.41-.85-4.82-1.61-6.68-2.42l-.22-.34.07.27c-2.05-.92-3.39-1.94-3.17-3.31.35-2.25,4.52-2.28,9.34-1.7l-.7.87,1.26-.8c2.38.3,4.88.73,7.16,1l-2.15,1.34q2.36-.57,4.76-1.06C706.11,116.48,709.93,118.25,713.31,120.4Z"/><path class="cls-19" d="M709.23,127.44c-.21-.55-.42-1.09-.65-1.64.51.59,1,1.18,1.51,1.78,1.1.17,2.2.33,3.26.46l.12,0c1.64.21,3.19.37,4.52.48h.11c2.36.19,4,.19,4.17-.14s-.9-1.61-2.69-3.25l-.26.05h0l.26-.05-.08-.08a45.52,45.52,0,0,0-3.66-3l-.1-.07c-.55-.39-1.11-.79-1.7-1.17l-2.5.38,1.75-.86c-.63-.4-1.27-.78-1.92-1.14q-1.7.43-3.37.9c-1.31.37-2.61.75-3.89,1.16q1.23,1.6,2.39,3.23,1,1.38,1.95,2.77Z"/><path class="cls-17" d="M721,127.82a148.35,148.35,0,0,0-40-12.16c0,.15,0,.29.06.43a1.14,1.14,0,0,1,0,.24A147.89,147.89,0,0,1,721,127.82Z"/><path class="cls-19" d="M672.3,68.73s19.48,28.39,19.36,52.67l-7.64-.6s-11.95-25.32-25-38.38Z"/><path class="cls-16" d="M668.67,72.48l-6.14,6.35h0l.18-.19c9.6,11,19.55,30.19,23.72,38.62l1.34.1C686.26,100.88,673.73,80.6,668.67,72.48Z"/><path class="cls-20" d="M689.81,118.37c-1.06-17.4-14.59-39.1-19.69-47.28l0-.07-1.41,1.45c5.06,8.12,17.59,28.4,19.1,44.89l-1.34-.1c-4.16-8.43-14.11-27.58-23.72-38.62l-1.37,1.41c9.61,11.1,19.62,30.53,23.57,38.57l.25.5,4.71.37Z"/><path class="cls-21" d="M695,138.73q1.45,1.21,2.84,2.57,1.18,1.15,2.31,2.39c0-.15,0-.3.05-.45q-1.13-1.49-2.33-2.87c.82.49,1.62,1,2.43,1.53a20.89,20.89,0,0,0-.12-3.41,54.35,54.35,0,0,0-6.37-5.13,49.63,49.63,0,0,1-3.78,6.79c.27,1.32.69,2.76,1.14,4.25q.95-1.21,1.83-2.51Q694.07,140.37,695,138.73Z"/><path class="cls-19" d="M693.75,152.39c.67,2,1.22,3.42,1.59,3.47s1.32-1.18,2.29-3.2q-.88-1.28-1.81-2.47Q694.8,151.33,693.75,152.39Z"/><path class="cls-19" d="M697.67,152.56a27.62,27.62,0,0,0,1.53-4.06,53.14,53.14,0,0,0-3.49-4q-1.54,2.12-3.23,4c.44,1.36.85,2.66,1.23,3.79q1.07-1.08,2.1-2.25C696.45,150.86,697.07,151.69,697.67,152.56Z"/><path class="cls-19" d="M695.81,150.19q.93,1.2,1.81,2.47l0-.09c-.6-.87-1.22-1.71-1.85-2.52q-1,1.17-2.1,2.25a.61.61,0,0,0,0,.09Q694.8,151.33,695.81,150.19Z"/><path class="cls-20" d="M693.15,144.95q-.59.95-1.22,1.85l.52,1.61.95-1.1q1.19-1.42,2.3-3,1.32,1.36,2.57,2.85l1,1.19a29,29,0,0,0,.71-3.11c-.43-.63-.88-1.25-1.33-1.85.49.33,1,.66,1.47,1,0-.25.06-.5.09-.74q-1.13-1.25-2.31-2.39-1.39-1.35-2.84-2.57-1,1.64-2,3.17c-.59.86-1.2,1.7-1.83,2.51.17.57.34,1.13.53,1.71Q692.44,145.54,693.15,144.95Z"/><path class="cls-17" d="M699.2,148.5l0-.11-1-1.19q-1.25-1.49-2.57-2.85-1.11,1.54-2.3,3l-.95,1.1,0,.1q1.68-1.89,3.23-4A53.14,53.14,0,0,1,699.2,148.5Z"/><path class="cls-18" d="M700.2,138.49a11.44,11.44,0,0,0-1-3.57c-.5-1-1-2.16-1.5-3.33a54.66,54.66,0,0,0-5.66-3.58,50.67,50.67,0,0,1-2.48,5.94c.07.57.12,1.14.14,1.68q.78-.9,1.53-1.83-.7,2-1.55,3.89a14.19,14.19,0,0,0,.33,2.46,49.63,49.63,0,0,0,3.78-6.79A54.35,54.35,0,0,1,700.2,138.49Z"/><path class="cls-21" d="M692,127.88q1.65.9,3.28,1.94c.79.51,1.58,1,2.35,1.6l-.6-1.34c-.69-.59-1.39-1.16-2.1-1.71l1.57.54a38.67,38.67,0,0,0-2-3.74c-1.58-.86-3.17-1.63-4.77-2.32a50.55,50.55,0,0,1-1.44,4.94c.13.57.27,1.15.41,1.75l.84-.76-.74,1.19c.28,1.25.54,2.55.71,3.82.39-.79.76-1.6,1.11-2.43Q691.41,129.67,692,127.88Z"/><path class="cls-19" d="M695.3,129.82q-1.63-1-3.28-1.94-.61,1.79-1.34,3.49c-.35.83-.72,1.63-1.11,2.43,0,.05,0,.11,0,.15a50.67,50.67,0,0,0,2.48-5.94,54.66,54.66,0,0,1,5.66,3.58l-.07-.17C696.88,130.86,696.1,130.33,695.3,129.82Z"/><path class="cls-16" d="M689.72,122.73q1.74.73,3.46,1.61l1.28.67a17.23,17.23,0,0,0-1.34-1.9l-.38-.1H693c-1.37-1.62-2.77-2.39-4-1.68-1.74,1-1.33,3.39-.66,6.32.15-.43.29-.86.43-1.3C689.11,125.17,689.44,124,689.72,122.73Z"/><path class="cls-16" d="M694.56,125.17l-.09-.16-1.28-.67q-1.72-.88-3.46-1.61c-.28,1.23-.61,2.43-1,3.6-.13.44-.28.87-.43,1.3l0,.16a50.55,50.55,0,0,0,1.44-4.94C691.39,123.54,693,124.31,694.56,125.17Z"/><path class="cls-19" d="M695.49,154.64a56.83,56.83,0,0,0-10.94-40.91l-.65.5A56.39,56.39,0,0,1,695.49,154.64Z"/><path class="cls-20" d="M685.71,147q1.15,1.93,2.18,4c.58,1.17,1.14,2.37,1.67,3.6l.24-.49q-.69-2.12-1.5-4.14,1.09,1.3,2.14,2.67a24.59,24.59,0,0,0,1.21-3.89,65.2,65.2,0,0,0-5.16-8.26,59.83,59.83,0,0,1-6.92,6.15c-.21,1.59-.31,3.38-.38,5.24q1.54-1,3-2.1Q684,148.5,685.71,147Z"/><path class="cls-21" d="M678.91,161.91c0,2.51,0,4.33.43,4.53s1.94-.81,3.83-2.71q-.49-1.78-1.07-3.49Q680.52,161.12,678.91,161.91Z"/><path class="cls-20" d="M683.26,163.64a33.41,33.41,0,0,0,3.31-4,62.48,62.48,0,0,0-2.36-5.88q-2.56,1.78-5.2,3.26c0,1.7-.08,3.33-.1,4.74q1.63-.8,3.25-1.71Q682.76,161.83,683.26,163.64Z"/><path class="cls-25" d="M682.1,160.23q.58,1.71,1.07,3.49l.09-.09q-.5-1.82-1.1-3.56-1.61.91-3.25,1.71v.12Q680.52,161.12,682.1,160.23Z"/><path class="cls-18" d="M681.16,153.3q-1,.83-2.1,1.61c0,.68,0,1.35-.05,2l1.49-.86q1.9-1.14,3.76-2.43.95,2,1.77,4.21.32.85.62,1.71a34.85,34.85,0,0,0,2-3.22q-.36-1.32-.77-2.6c.43.56.84,1.13,1.26,1.71l.39-.8q-.79-1.84-1.67-3.6-1-2.06-2.18-4-1.72,1.47-3.49,2.78-1.51,1.11-3,2.1,0,1.06-.08,2.13C679.78,153.81,680.47,153.56,681.16,153.3Z"/><path class="cls-17" d="M686.58,159.67l.08-.11q-.3-.87-.62-1.71-.82-2.17-1.77-4.21-1.86,1.3-3.76,2.43l-1.49.86s0,.08,0,.12q2.64-1.47,5.2-3.26A62.48,62.48,0,0,1,686.58,159.67Z"/><path class="cls-16" d="M691.63,148.79a13.59,13.59,0,0,0,.32-4.39c-.16-1.35-.27-2.83-.39-4.34a64.79,64.79,0,0,0-5-6.25,59,59,0,0,1-5.12,5.71c-.15.67-.31,1.33-.49,2q1.23-.7,2.44-1.46-1.58,2-3.27,3.77a16.82,16.82,0,0,0-.6,2.89,59.83,59.83,0,0,0,6.92-6.15A65.2,65.2,0,0,1,691.63,148.79Z"/><path class="cls-19" d="M686.58,133.65q1.51,1.67,2.93,3.48,1,1.32,2,2.72c0-.58-.09-1.16-.14-1.74-.55-.94-1.11-1.86-1.7-2.76.52.4,1,.81,1.55,1.22a46.07,46.07,0,0,0-.75-5q-2.15-2.38-4.46-4.48a59.63,59.63,0,0,1-3.55,5c-.08.69-.15,1.4-.23,2.13l1.24-.52-1.3,1.05c-.17,1.52-.39,3.08-.71,4.57q1.13-1.1,2.21-2.29Q685.19,135.42,686.58,133.65Z"/><path class="cls-19" d="M689.52,137.13q-1.42-1.81-2.93-3.48-1.39,1.78-2.87,3.4-1.08,1.19-2.21,2.29l0,.18a59,59,0,0,0,5.12-5.71,64.79,64.79,0,0,1,5,6.25c0-.07,0-.14,0-.22Q690.56,138.44,689.52,137.13Z"/><path class="cls-21" d="M686,127q1.67,1.51,3.27,3.17.59.62,1.17,1.26a20.9,20.9,0,0,0-.76-2.67l-.39-.27.33.1c-.91-2.36-2.17-3.78-3.89-3.48-2.34.41-2.82,3.29-3.23,6.85.33-.42.66-.85,1-1.29Q684.81,128.86,686,127Z"/><path class="cls-21" d="M690.51,131.6l0-.21q-.58-.64-1.17-1.26-1.6-1.66-3.27-3.17-1.21,1.91-2.52,3.67c-.33.44-.66.87-1,1.29,0,.06,0,.13,0,.19a59.8,59.8,0,0,0,3.55-5Q688.35,129.21,690.51,131.6Z"/><path class="cls-19" d="M680,165.12a67.71,67.71,0,0,0,3.74-50.33l-.93.31A67.22,67.22,0,0,1,680,165.12Z"/><circle class="cls-19" cx="686.67" cy="117.77" r="8.5"/><circle class="cls-16" cx="686.67" cy="117.77" r="5.37"/><circle class="cls-18" cx="686.67" cy="117.77" r="3.02"/><path class="cls-19" d="M847.9,68c-.61.12-1.22.26-1.83.43s-1,.31-1.57.48l.09-.21c.57-.25,1.13-.48,1.69-.68-.47,0-.94,0-1.42.07a10.18,10.18,0,0,1,.88-1.47,26,26,0,0,1,4-.69,26.06,26.06,0,0,0,0,3.92c-.44.51-1,1-1.51,1.59-.08-.51-.14-1-.18-1.56S847.91,68.66,847.9,68Z"/><path class="cls-18" d="M845.17,74.35l0,0-.06-.24h0c0,.08,0,.16.06.24L846.65,73c-.18-.83-.32-1.69-.42-2.56q-1.23.38-2.46.91a14.1,14.1,0,0,0-.32,2.17.29.29,0,0,0,0,.05c-.07,1.13,0,1.9.22,2S844.4,75.06,845.17,74.35Z"/><path class="cls-16" d="M847.21,71.22c0,.37,0,.75.07,1.12l-.61.58c-.05-.24-.1-.47-.14-.72q-.17-.92-.28-1.87-.89.28-1.79.62l-.7.29a14.14,14.14,0,0,1,.44-1.55l1-.49-.87.08.14-.35q.79-.27,1.57-.48c.61-.17,1.23-.31,1.83-.43,0,.64,0,1.27.1,1.88s.11,1,.18,1.56l-.64.62Q847.37,71.66,847.21,71.22Z"/><path class="cls-16" d="M843.76,71.29a.23.23,0,0,1,0-.05l.7-.29q.9-.35,1.79-.62.11,1,.28,1.87c0,.24.09.48.14.72l0,0c-.18-.83-.32-1.69-.42-2.56Q845,70.77,843.76,71.29Z"/><path class="cls-21" d="M845.74,66.64A5.66,5.66,0,0,1,847,65.31c.46-.33.95-.71,1.45-1.09a26.53,26.53,0,0,1,3.3-.18,26.21,26.21,0,0,0-.36,3.23c-.17.23-.33.47-.47.7-.08-.39-.15-.79-.22-1.18-.12.7-.21,1.4-.27,2.09a7,7,0,0,1-.73,1,26.06,26.06,0,0,1,0-3.92A26,26,0,0,0,845.74,66.64Z"/><path class="cls-19" d="M851.8,64q-.93,0-1.88,0c-.47,0-.93.07-1.4.13l.58-.44c.44-.09.88-.17,1.32-.24l-.8-.15a18.73,18.73,0,0,1,1.74-1.16c.88,0,1.75.06,2.61.16-.24.85-.42,1.69-.57,2.52l-.6.67-.18-.54c0,.23,0,.47,0,.71-.42.48-.85,1-1.22,1.5,0-.44.06-.89.11-1.34C851.6,65.23,851.69,64.61,851.8,64Z"/><path class="cls-21" d="M849.92,64q.95-.06,1.88,0c-.11.62-.2,1.25-.26,1.87,0,.45-.08.9-.11,1.34l0,.06a26.21,26.21,0,0,1,.36-3.23,26.53,26.53,0,0,0-3.3.18l.07-.05C849,64.1,849.46,64.06,849.92,64Z"/><path class="cls-25" d="M854,62.28c-.62-.07-1.24-.12-1.88-.14l-.71,0a8.45,8.45,0,0,1,1-.51l.19.05-.12-.08c1-.38,1.77-.37,2.14.25.51.86-.24,1.82-1.23,2.94q.06-.34.13-.67C853.7,63.5,853.85,62.89,854,62.28Z"/><path class="cls-19" d="M851.36,62.17l.08,0,.71,0c.63,0,1.26.08,1.88.14-.17.61-.32,1.22-.45,1.83q-.07.34-.13.67l-.05.06c.15-.84.33-1.68.57-2.52C853.11,62.23,852.24,62.18,851.36,62.17Z"/><path class="cls-17" d="M843.87,74.91a28.36,28.36,0,0,1,14.54-15.32l.16.38A28.12,28.12,0,0,0,843.87,74.91Z"/><path class="cls-21" d="M851.93,79.82Q851,80.88,850.11,82q-.74,1-1.45,2l-.08-.34q.68-1.24,1.41-2.39c-.55.45-1.09.92-1.62,1.4a16.11,16.11,0,0,1-.26-2.57,40.28,40.28,0,0,1,4.14-4.52,37.75,37.75,0,0,0,3.47,4.69c-.07,1-.22,2.15-.4,3.31-.55-.54-1.08-1.1-1.6-1.69S852.5,80.57,851.93,79.82Z"/><path class="cls-19" d="M854.27,89.92c-.28,1.57-.54,2.7-.81,2.77s-1.08-.75-2-2.16c.35-.7.7-1.38,1.08-2C853.1,89,853.68,89.47,854.27,89.92Z"/><path class="cls-19" d="M851.41,90.47a20.88,20.88,0,0,1-1.54-2.89q1-1.77,2.14-3.38a37.84,37.84,0,0,0,2.78,2.67c-.18,1.06-.35,2.09-.51,3-.6-.47-1.19-1-1.77-1.47C852.13,89.06,851.76,89.75,851.41,90.47Z"/><path class="cls-19" d="M852.53,88.49c-.38.66-.73,1.34-1.08,2l0-.07c.35-.72.72-1.41,1.1-2.09.58.51,1.17,1,1.77,1.47a.69.69,0,0,1,0,.07C853.68,89.47,853.1,89,852.53,88.49Z"/><path class="cls-20" d="M853.94,84.28q.53.65,1.08,1.26c-.07.42-.14.84-.21,1.26l-.81-.72q-1-.94-2-2-.82,1.16-1.58,2.41-.3.49-.58,1a22.27,22.27,0,0,1-.85-2.26c.26-.52.51-1,.78-1.53l-1,.91-.14-.55q.7-1.05,1.45-2,.88-1.16,1.82-2.22.87,1.12,1.79,2.16.79.88,1.6,1.69c-.07.44-.14.89-.21,1.34C854.72,84.77,854.32,84.53,853.94,84.28Z"/><path class="cls-17" d="M849.87,87.58l0-.08q.28-.5.58-1,.76-1.25,1.58-2.41,1,1,2,2l.81.72a.48.48,0,0,1,0,.08A37.84,37.84,0,0,1,852,84.21Q850.88,85.81,849.87,87.58Z"/><path class="cls-18" d="M848.11,80.18a8.72,8.72,0,0,1,.33-2.78c.26-.82.5-1.73.76-2.66A40.7,40.7,0,0,1,853,71.46a38.13,38.13,0,0,0,2.43,4.19c0,.44,0,.87.07,1.28-.44-.39-.88-.8-1.31-1.21.48,1,1,1.88,1.54,2.76a10.79,10.79,0,0,1,0,1.88,37.75,37.75,0,0,1-3.47-4.69A40.28,40.28,0,0,0,848.11,80.18Z"/><path class="cls-21" d="M853,71.36c-.75.57-1.48,1.17-2.2,1.8-.53.47-1,.95-1.56,1.45.1-.36.19-.71.3-1.07.45-.52.9-1,1.36-1.51l-1.09.57a30.79,30.79,0,0,1,1.05-3q1.61-1.21,3.26-2.24a38.19,38.19,0,0,0,1.56,3.55c0,.44-.08.89-.12,1.36l-.69-.48.66.81c-.08,1-.13,2-.12,2.94-.37-.55-.72-1.12-1.06-1.7C853.87,73,853.42,72.21,853,71.36Z"/><path class="cls-19" d="M850.8,73.17c.72-.64,1.46-1.23,2.2-1.8.42.85.87,1.68,1.34,2.47.34.58.7,1.15,1.06,1.7,0,0,0,.08,0,.12A38.13,38.13,0,0,1,853,71.46a40.7,40.7,0,0,0-3.78,3.28l0-.13C849.75,74.11,850.27,73.63,850.8,73.17Z"/><path class="cls-16" d="M854.15,67.26q-1.2.74-2.37,1.57l-.87.64a13.46,13.46,0,0,1,.79-1.57l.27-.12-.21,0c.84-1.36,1.78-2.09,2.79-1.69,1.37.55,1.32,2.4,1.14,4.67q-.23-.46-.45-.92C854.85,69,854.49,68.15,854.15,67.26Z"/><path class="cls-16" d="M850.86,69.6l.05-.12.87-.64q1.17-.84,2.37-1.57c.34.89.7,1.76,1.09,2.6q.22.47.45.92s0,.09,0,.12a38.19,38.19,0,0,1-1.56-3.55Q852.46,68.38,850.86,69.6Z"/><path class="cls-17" d="M853.23,91.8A43.94,43.94,0,0,1,857,60l.53.31A43.59,43.59,0,0,0,853.23,91.8Z"/><path class="cls-21" d="M859.55,99.79a3.08,3.08,0,0,1-3-3.12V44.14a3,3,0,1,1,6.1,0V96.67A3.08,3.08,0,0,1,859.55,99.79Z"/><path class="cls-21" d="M865.83,96.25a3.08,3.08,0,0,1-3-3.12V44a3,3,0,1,1,6.09,0V93.14A3.08,3.08,0,0,1,865.83,96.25Z"/><path class="cls-21" d="M872.11,92.72a3.09,3.09,0,0,1-3-3.12V43.83a3,3,0,1,1,6.1,0V89.6A3.08,3.08,0,0,1,872.11,92.72Z"/><path class="cls-21" d="M878.39,89.18a3.08,3.08,0,0,1-3-3.12V43.67a3,3,0,1,1,6.09,0V86.06A3.08,3.08,0,0,1,878.39,89.18Z"/><path class="cls-21" d="M884.67,85.64a3.08,3.08,0,0,1-3-3.12v-39a3,3,0,1,1,6.09,0v39A3.08,3.08,0,0,1,884.67,85.64Z"/><path class="cls-21" d="M890.95,82.1a3.08,3.08,0,0,1-3-3.12V43.36a3,3,0,1,1,6.09,0V79A3.08,3.08,0,0,1,890.95,82.1Z"/><path class="cls-16" d="M861.08,41.44a3.17,3.17,0,0,1,.41,1.56V95.54a3.09,3.09,0,0,1-3,3.12,3,3,0,0,1-1.53-.42,3,3,0,0,0,2.63,1.56,3.08,3.08,0,0,0,3-3.12V44.14A3.13,3.13,0,0,0,861.08,41.44Z"/><path class="cls-16" d="M867.36,41.28a3.17,3.17,0,0,1,.41,1.56V92a3.08,3.08,0,0,1-3,3.12,3,3,0,0,1-1.53-.42,3,3,0,0,0,2.63,1.56,3.08,3.08,0,0,0,3-3.12V44A3.13,3.13,0,0,0,867.36,41.28Z"/><path class="cls-16" d="M873.64,41.13a3.15,3.15,0,0,1,.41,1.56V88.46a3.08,3.08,0,0,1-3,3.12,3,3,0,0,1-1.53-.42,3,3,0,0,0,2.64,1.56,3.08,3.08,0,0,0,3-3.12V43.83A3.12,3.12,0,0,0,873.64,41.13Z"/><path class="cls-16" d="M879.92,41a3.16,3.16,0,0,1,.41,1.56V84.92a3.08,3.08,0,0,1-3,3.12,3,3,0,0,1-1.52-.42,3,3,0,0,0,2.63,1.56,3.08,3.08,0,0,0,3-3.12V43.67A3.13,3.13,0,0,0,879.92,41Z"/><path class="cls-16" d="M886.2,40.82a3.16,3.16,0,0,1,.41,1.56v39a3.09,3.09,0,0,1-3,3.12,3,3,0,0,1-1.53-.42,3,3,0,0,0,2.63,1.56,3.08,3.08,0,0,0,3-3.12v-39A3.13,3.13,0,0,0,886.2,40.82Z"/><path class="cls-16" d="M892.48,40.66a3.16,3.16,0,0,1,.41,1.56V77.85a3.08,3.08,0,0,1-3,3.12,3,3,0,0,1-1.53-.42,3,3,0,0,0,2.63,1.56A3.08,3.08,0,0,0,894,79V43.36A3.13,3.13,0,0,0,892.48,40.66Z"/><path class="cls-17" d="M861.94,62.28a.54.54,0,0,1-.37-.15l-5.39-5a.57.57,0,0,1,0-.8.54.54,0,0,1,.78,0l5.39,5a.57.57,0,0,1,0,.8A.54.54,0,0,1,861.94,62.28Z"/><path class="cls-17" d="M856.55,62.28a.54.54,0,0,1-.41-.19.57.57,0,0,1,0-.8l5.39-5a.55.55,0,0,1,.78,0,.57.57,0,0,1,0,.8l-5.39,5A.54.54,0,0,1,856.55,62.28Z"/><path class="cls-17" d="M861.58,56.71h-4.87a.57.57,0,0,1,0-1.13h4.87a.57.57,0,0,1,0,1.13Z"/><path class="cls-17" d="M861.58,62.95h-4.87a.57.57,0,0,1,0-1.13h4.87a.57.57,0,0,1,0,1.13Z"/><path class="cls-17" d="M868.34,62.28a.54.54,0,0,1-.37-.15l-5.39-5a.58.58,0,0,1,0-.8.54.54,0,0,1,.78,0l5.39,5a.57.57,0,0,1,0,.8A.54.54,0,0,1,868.34,62.28Z"/><path class="cls-17" d="M863,62.28a.54.54,0,0,1-.41-.19.58.58,0,0,1,0-.8l5.39-5a.54.54,0,0,1,.78,0,.57.57,0,0,1,0,.8l-5.39,5A.54.54,0,0,1,863,62.28Z"/><path class="cls-17" d="M868,56.71h-4.87a.57.57,0,0,1,0-1.13H868a.57.57,0,0,1,0,1.13Z"/><path class="cls-17" d="M868,62.95h-4.87a.57.57,0,0,1,0-1.13H868a.57.57,0,0,1,0,1.13Z"/><path class="cls-17" d="M874.75,62.28a.54.54,0,0,1-.37-.15l-5.39-5a.57.57,0,0,1,0-.8.54.54,0,0,1,.78,0l5.39,5a.58.58,0,0,1,0,.8A.54.54,0,0,1,874.75,62.28Z"/><path class="cls-17" d="M869.35,62.28a.54.54,0,0,1-.41-.19.58.58,0,0,1,0-.8l5.39-5a.54.54,0,0,1,.78,0,.57.57,0,0,1,0,.8l-5.39,5A.54.54,0,0,1,869.35,62.28Z"/><path class="cls-17" d="M874.39,56.71h-4.87a.57.57,0,0,1,0-1.13h4.87a.57.57,0,0,1,0,1.13Z"/><path class="cls-17" d="M874.39,62.95h-4.87a.57.57,0,0,1,0-1.13h4.87a.57.57,0,0,1,0,1.13Z"/><path class="cls-17" d="M881.15,62.28a.54.54,0,0,1-.37-.15l-5.39-5a.58.58,0,0,1,0-.8.54.54,0,0,1,.78,0l5.39,5a.57.57,0,0,1,0,.8A.54.54,0,0,1,881.15,62.28Z"/><path class="cls-17" d="M875.75,62.28a.54.54,0,0,1-.41-.19.57.57,0,0,1,0-.8l5.39-5a.54.54,0,0,1,.78,0,.57.57,0,0,1,0,.8l-5.39,5A.55.55,0,0,1,875.75,62.28Z"/><path class="cls-17" d="M880.79,56.71h-4.87a.57.57,0,0,1,0-1.13h4.87a.57.57,0,0,1,0,1.13Z"/><path class="cls-17" d="M880.79,62.95h-4.87a.57.57,0,0,1,0-1.13h4.87a.57.57,0,0,1,0,1.13Z"/><path class="cls-17" d="M887.55,62.28a.54.54,0,0,1-.37-.15l-5.39-5a.57.57,0,0,1,0-.8.54.54,0,0,1,.78,0l5.39,5a.58.58,0,0,1,0,.8A.54.54,0,0,1,887.55,62.28Z"/><path class="cls-17" d="M882.16,62.28a.54.54,0,0,1-.41-.19.58.58,0,0,1,0-.8l5.39-5a.54.54,0,0,1,.78,0,.57.57,0,0,1,0,.8l-5.39,5A.54.54,0,0,1,882.16,62.28Z"/><path class="cls-17" d="M887.19,56.71h-4.87a.57.57,0,0,1,0-1.13h4.87a.57.57,0,0,1,0,1.13Z"/><path class="cls-17" d="M887.19,62.95h-4.87a.57.57,0,0,1,0-1.13h4.87a.57.57,0,0,1,0,1.13Z"/><path class="cls-17" d="M893.95,62.28a.54.54,0,0,1-.37-.15l-5.39-5a.58.58,0,0,1,0-.8.54.54,0,0,1,.78,0l5.39,5a.57.57,0,0,1,0,.8A.54.54,0,0,1,893.95,62.28Z"/><path class="cls-17" d="M888.56,62.28a.54.54,0,0,1-.41-.19.58.58,0,0,1,0-.8l5.39-5a.54.54,0,0,1,.78,0,.57.57,0,0,1,0,.8l-5.39,5A.54.54,0,0,1,888.56,62.28Z"/><path class="cls-17" d="M893.59,56.71h-4.87a.57.57,0,0,1,0-1.13h4.87a.57.57,0,0,1,0,1.13Z"/><path class="cls-17" d="M893.59,62.95h-4.87a.57.57,0,0,1,0-1.13h4.87a.57.57,0,0,1,0,1.13Z"/><path class="cls-20" d="M548.24,102.75c-.14.37-.29.75-.44,1.11C547.95,103.5,548.09,103.13,548.24,102.75Z"/><path class="cls-20" d="M552.41,84.15l0,.07Z"/><path class="cls-20" d="M552.33,84.06l.07.06Z"/><path class="cls-20" d="M549,100.83c-.17.49-.35,1-.53,1.45C548.6,101.8,548.78,101.32,549,100.83Z"/><path class="cls-20" d="M551.1,84.51l.06,0Z"/><path class="cls-20" d="M541.95,113.2c-.44.53-.87,1.09-1.31,1.65C541.08,114.28,541.51,113.73,541.95,113.2Z"/><path class="cls-20" d="M552.5,84.4l0,.12Z"/><path class="cls-20" d="M552.53,84.57c0,.05,0,.1,0,.16S552.54,84.62,552.53,84.57Z"/><path class="cls-20" d="M552.46,84.26a.49.49,0,0,1,0,.09A.49.49,0,0,0,552.46,84.26Z"/><path class="cls-20" d="M549.48,99.26c-.15.47-.31.94-.47,1.41C549.17,100.2,549.33,99.73,549.48,99.26Z"/><path class="cls-21" d="M549.56,99l.12-.36-2.4.49L550,97.64c1.64-5.39,2.6-10.57,2.56-12.65a23,23,0,0,1-.44,3.94l-3.63,1.62-.39-3.78a78.88,78.88,0,0,0-7.47,7.3l.89,8.55Z"/><path class="cls-20" d="M548.93,86.08c.5-.4,1-.75,1.37-1C549.89,85.33,549.43,85.68,548.93,86.08Z"/><path class="cls-20" d="M540.49,115.05q-.59.77-1.17,1.57Q539.9,115.82,540.49,115.05Z"/><path class="cls-20" d="M548.58,86.38l.32-.26Z"/><path class="cls-20" d="M548.28,86.62l.22-.19Z"/><path class="cls-20" d="M552.55,84.77c0,.06,0,.13,0,.2S552.56,84.83,552.55,84.77Z"/><path class="cls-20" d="M537.4,109.76l-.53-5.07-.55-5.28q.67-.94,1.41-1.89a27.79,27.79,0,0,0-4.7,8l-.09.28,1,9.92,6.74-3-1.88,1.09,5.2-3a26.68,26.68,0,0,0,3.1-5.35l-5.06,2.26Z"/><path class="cls-17" d="M534.5,120.79l-4.65,2.07-.53-5.07-.27-2.59.71-1.58a78.59,78.59,0,0,0-3.42,8.37l.15.49-.21-.29c-.81,2.74-.85,4.87.71,5.77,2.56,1.48,5.82-2.43,9.31-7.19l-1.42-.12,1.83-.43c.84-1.15,1.68-2.33,2.53-3.49-.7,1-1.39,1.92-2.08,2.87Z"/><path class="cls-20" d="M550.7,84.76l.19-.12Z"/><path class="cls-20" d="M530.45,112.05l.7-1.61Z"/><path class="cls-20" d="M550.31,85l.29-.2Z"/><path class="cls-16" d="M549.56,99h0l-.07.22Z"/><path class="cls-16" d="M549,100.67l-.06.17Z"/><path class="cls-16" d="M540.64,94.07l0,0,0,0Z"/><path class="cls-16" d="M548.42,102.29l-.19.47Z"/><path class="cls-16" d="M547.12,105.43q.35-.76.68-1.56c-.22.53-.45,1.06-.68,1.56Z"/><path class="cls-16" d="M536.32,99.41l.55,5.28.53,5.07,4.65-2.07,5.06-2.26c.23-.51.46-1,.68-1.56.15-.37.29-.74.44-1.11l.19-.47c.18-.48.36-1,.53-1.45l.06-.17c.16-.47.32-.94.47-1.41l.07-.22-8,3.58-.89-8.55,0,0v3L539.85,95l-1,1.21.06,4.84-1.16-3.48Q537,98.47,536.32,99.41Z"/><path class="cls-18" d="M540.64,114.85l-.15.2Z"/><path class="cls-18" d="M539.32,116.62l-.09.12Z"/><path class="cls-18" d="M532.93,105.8c-.48,1.48-1.1,3-1.78,4.64.68-1.6,1.3-3.17,1.78-4.64Z"/><path class="cls-18" d="M534,115.72l-1-9.92c-.48,1.48-1.09,3-1.78,4.64l-.7,1.61v3.59l-.69-2-.71,1.58.27,2.59.53,5.07,4.65-2.07,2.65-1.18c.69-.95,1.38-1.92,2.08-2.87l.09-.12q.58-.8,1.17-1.57l.15-.2c.44-.57.87-1.12,1.31-1.65l-3.13.61,1.88-1.09Z"/><path class="cls-19" d="M552.33,84.06c-.17-.1-.58.05-1.18.41C551.75,84.11,552.16,84,552.33,84.06Z"/><path class="cls-19" d="M548.89,86.11l0,0Z"/><path class="cls-19" d="M550.3,85h0Z"/><path class="cls-19" d="M548.5,86.43l.07-.06Z"/><path class="cls-19" d="M548.1,86.77h0l.18-.15Z"/><path class="cls-19" d="M550.89,84.64l.2-.13Z"/><path class="cls-19" d="M552.53,84.52v0Z"/><path class="cls-19" d="M552.56,85a.08.08,0,0,1,0,0A.08.08,0,0,0,552.56,85Z"/><path class="cls-19" d="M552.49,84.35v0Z"/><path class="cls-19" d="M550.61,84.83l.1-.06Z"/><path class="cls-19" d="M552.55,84.72a.39.39,0,0,1,0,0A.39.39,0,0,0,552.55,84.72Z"/><path class="cls-19" d="M552.45,84.22v0Z"/><path class="cls-19" d="M552.4,84.12l0,0Z"/><path class="cls-19" d="M552.12,88.93a23,23,0,0,0,.44-3.94.08.08,0,0,0,0,0c0-.07,0-.14,0-.2a.39.39,0,0,0,0,0c0-.06,0-.11,0-.16v0l0-.12v0a.49.49,0,0,0,0-.09v0l0-.07,0,0-.07-.06c-.17-.1-.58.05-1.18.41l-.06,0-.2.13-.19.12-.1.06-.29.2h0c-.41.29-.87.64-1.37,1l0,0-.32.26-.07.06-.22.19-.18.15.39,3.78Z"/><polygon class="cls-19" points="551.47 85.54 521.21 138.97 520.34 138.47 551.47 85.54"/><path class="cls-16" d="M508.85,92l-1.44,2.73.61-3.5c-5.44-4.88-11.4-8.53-12.42-7.94s-.81,8.73,1,16.44l3.14,1.22-2.86-.09c.14.52.29,1,.44,1.56l5.15,1.89-4.61-.18c1.17,3.44,2.7,6.45,4.6,8.19a47.33,47.33,0,0,1,4.79,5.35l3.77,1.46-2.68-.09a58.33,58.33,0,0,0,6,7l.64,0-.48.1c2.24,2,4.44,2.86,6.66,1.58,3.64-2.1,2.17-7.12,0-12.72L520,116.52l1-2.1c-1.1-2.77-2.31-5.65-3.15-8.38l-1.9,3.54,1-6.7C515.84,99.4,512.53,95.46,508.85,92Z"/><path class="cls-20" d="M509.13,92.3l-2.76,9.91-9.74-2.51v.07l3.14,1.22-2.86-.09c.14.52.29,1,.44,1.56l5.15,1.89-4.61-.18q.4,1.16.85,2.24l6,1.55,5.77,1.49,1.6-5.74,1.74-6.25A46.21,46.21,0,0,0,509.13,92.3Z"/><path class="cls-17" d="M517.86,106l-1.9,3.54.38-2.42L514,115.47l-11.3-2.91a48.76,48.76,0,0,1,4.58,5.14l3.77,1.46-2.68-.09,1.09,1.38,2.95.76,5.77,1.49,1.6-5.74.91-3.27C519.7,111.14,518.62,108.52,517.86,106Z"/><path class="cls-21" d="M500.56,85.51c-2.49-1.61-4.42-2.5-5-2.18s-.76,2.5-.59,5.55L499.31,90Z"/><polygon class="cls-19" points="496.46 84.83 528.16 138.3 526.92 139.02 496.46 84.83"/><path class="cls-17" d="M626,53.21c-4.75-2-3.91-8.1-2.79-10.05s-13.68-2-13.68-2-14.8,0-13.68,2,2,8.1-2.79,10.05-16.2,5.31-10.33,20.94,12.85,24.3,26.81,24.3,20.94-8.66,26.81-24.3S630.79,55.17,626,53.21Z"/><path class="cls-17" d="M633.59,76.41l1.49,1,.52-1.29-3,.36Z"/><path class="cls-17" d="M622,82.36l-2.71.15Z"/><path class="cls-17" d="M621.22,77.46q-2.86-2.3-5.6-4.68,2.6-2.55,5.06-5.16l.9-.06q-4.53.28-9.06.35,2.57-2.51,5-5.08l.88,0q-4.42.2-8.84.21t-8.84-.21l.88,0q2.44,2.58,5,5.08-4.53-.07-9.06-.35l.9.06q2.47,2.61,5.06,5.16-2.74,2.38-5.6,4.68c2.85.16,5.7.28,8.55.32q-2.76,2.42-5.65,4.77c2.92.12,5.84.2,8.76.2s5.84-.08,8.76-.2q-2.89-2.34-5.66-4.77C615.52,77.74,618.38,77.62,621.22,77.46Zm-17-4.67q2.74-2.4,5.34-4.86,2.61,2.47,5.34,4.86-2.61,2.54-5.34,5Q606.83,75.33,604.23,72.8Z"/><path class="cls-17" d="M629.05,67l2.5-.26Z"/><path class="cls-17" d="M638,65.86a11.68,11.68,0,0,0-1.1-4.77q-2.15,2.77-4.43,5.5Q635.23,66.26,638,65.86Z"/><path class="cls-17" d="M595,67.38l-2.48-.19Z"/><path class="cls-17" d="M636.87,61.05a11.72,11.72,0,0,0-3.63-4.26q-2,2.63-4.22,5.2C631.64,61.73,634.26,61.43,636.87,61.05Z"/><path class="cls-17" d="M590.08,67l-2.5-.26Z"/><path class="cls-17" d="M637.12,71.89a23.78,23.78,0,0,0,.66-2.89c-.58.71-1.16,1.43-1.75,2.14Z"/><path class="cls-17" d="M625.7,62.3l2.43-.21Z"/><path class="cls-17" d="M599.84,82.51l-2.71-.15Z"/><path class="cls-17" d="M624.09,67.38l2.48-.19Z"/><path class="cls-17" d="M630.06,76.78l-1.07.1h0Z"/><path class="cls-17" d="M620.84,62.65l2.43-.15Z"/><path class="cls-17" d="M593.44,62.3,591,62.09Z"/><path class="cls-17" d="M624.83,77.23l-2.64.18Z"/><path class="cls-17" d="M627.41,77l1.55-.14h0Z"/><path class="cls-17" d="M598.29,62.65l-2.44-.15Z"/><path class="cls-17" d="M589.11,81.74l-3.29-.34c.23.47.46.94.69,1.39l1.62-1.13Z"/><path class="cls-17" d="M589.08,76.78l1.08.11h0Z"/><path class="cls-17" d="M581.35,69a24,24,0,0,0,.66,2.89l1.09-.75C582.51,70.43,581.93,69.71,581.35,69Z"/><path class="cls-17" d="M609.57,63q2.54-2.47,5-5,9.25-.24,18.45-1.4A32.45,32.45,0,0,0,626,53.21c-4.75-2-3.91-8.1-2.79-10.05s-13.68-2-13.68-2-14.8,0-13.68,2,2,8.1-2.79,10.05a32.51,32.51,0,0,0-6.92,3.38q9.19,1.15,18.45,1.4Q607,60.52,609.57,63Z"/><path class="cls-17" d="M590.17,76.89l1.55.14-1.54-.15Z"/><path class="cls-17" d="M586.51,76.51l-3-.36q.26.65.52,1.29l1.49-1Z"/><path class="cls-17" d="M630,81.74l1-.09,1.62,1.13c.24-.46.47-.92.7-1.39Z"/><path class="cls-17" d="M597,77.41l-2.65-.18Z"/><path class="cls-17" d="M609.57,82.74q-2.8,2.47-5.73,4.86c-5-.13-10.08-.45-15.11-.93,4.91,7.67,11.22,11.78,20.84,11.78s15.93-4.11,20.84-11.78c-5,.48-10.06.8-15.11.93Q612.37,85.21,609.57,82.74Z"/><path class="cls-17" d="M594.46,82.19,591.78,82Z"/><path class="cls-17" d="M627.36,82l-2.68.21Z"/><path class="cls-17" d="M585.9,56.79a11.71,11.71,0,0,0-3.64,4.26c2.61.37,5.23.68,7.85.94Q587.94,59.42,585.9,56.79Z"/><path class="cls-17" d="M582.24,61.09a11.67,11.67,0,0,0-1.1,4.77q2.76.4,5.53.72Q584.39,63.86,582.24,61.09Z"/><path class="cls-18" d="M591,62.09l2.43.21,2.42.19,2.44.15,2.43.13q4.42.2,8.84.21-2.54-2.47-5-5-9.24-.24-18.45-1.4l-.27.2q2,2.63,4.21,5.2Z"/><path class="cls-21" d="M587.58,66.7l2.5.26,2.48.23,2.48.19,2.5.17q4.53.28,9.06.35-2.57-2.51-5-5.08l-.88,0-2.43-.13-2.44-.15-2.42-.19L591,62.09l-.88-.08h0c-2.62-.27-5.24-.57-7.85-.94l0,0q2.15,2.77,4.43,5.5Z"/><path class="cls-21" d="M590.12,62l.88.08-.9-.09Z"/><path class="cls-21" d="M595.86,62.5l-2.42-.19Z"/><path class="cls-21" d="M600.73,62.78l-2.43-.13Z"/><path class="cls-16" d="M585.33,71.4q2.94-2.12,5.76-4.33,2.36,2.69,4.85,5.32c2.52.17,5,.31,7.57.39q-2.6-2.55-5.06-5.16l-.9-.06-2.5-.17-2.48-.19L590.08,67l-2.5-.26-.9-.09v0q-2.77-.32-5.53-.72a16.78,16.78,0,0,0,.21,3.13c.58.71,1.16,1.43,1.75,2.14C583.84,71.23,584.58,71.31,585.33,71.4Z"/><path class="cls-16" d="M592.56,67.19,590.08,67Z"/><path class="cls-16" d="M586.68,66.6l.9.09-.91-.11Z"/><path class="cls-16" d="M597.55,67.55l-2.5-.17Z"/><path class="cls-18" d="M609.57,82.74c-2.92,0-5.84-.08-8.76-.2h0l-1-.05-2.71-.15-2.66-.17L591.78,82l-2.67-.24-1-.09-1.62,1.13c.71,1.37,1.44,2.67,2.21,3.87,5,.48,10.06.8,15.11.93Q606.77,85.21,609.57,82.74Z"/><path class="cls-21" d="M591.78,82l2.68.21,2.66.17,2.71.15,1,0q2.89-2.34,5.65-4.77c-2.85,0-5.7-.16-8.55-.32h0l-.94-.07-2.65-.18-2.58-.2-1.55-.14h0l-1.08-.11-2.57-.27-1-.1-1.49,1q.86,2.07,1.77,4l3.29.34Z"/><path class="cls-21" d="M597.12,82.36l-2.66-.17Z"/><path class="cls-21" d="M600.79,82.56h0l-1,0Z"/><path class="cls-21" d="M591.78,82l-2.67-.24Z"/><path class="cls-16" d="M589.08,76.78l1.07.1q-2.49-2.71-4.84-5.47h0c-.74-.09-1.48-.16-2.22-.26l-1.09.75c.21.73.45,1.48.75,2.27s.51,1.34.78,2l3,.36Z"/><path class="cls-16" d="M595.94,72.39l0,0q-2.82,2.28-5.77,4.47l1.54.15,2.58.2,2.65.18,1,.05q2.86-2.3,5.6-4.68C601,72.7,598.46,72.56,595.94,72.39Z"/><path class="cls-16" d="M597.89,77.48h0l-1-.05Z"/><path class="cls-16" d="M589.08,76.78l-2.57-.27Z"/><path class="cls-16" d="M594.31,77.23l-2.58-.2Z"/><path class="cls-18" d="M609.57,63q4.42,0,8.84-.21l2.43-.13,2.43-.15,2.42-.19,2.43-.21L629,62q2.17-2.58,4.22-5.2l-.27-.2q-9.19,1.15-18.45,1.4Q612.11,60.52,609.57,63Z"/><path class="cls-21" d="M629,62l-.89.08-2.43.21-2.42.19-2.43.15-2.43.13-.88,0q-2.44,2.58-5,5.08,4.53-.07,9.06-.35l2.5-.17,2.48-.19,2.48-.23,2.5-.26.91-.11q2.28-2.72,4.43-5.5l0,0c-2.61.37-5.23.68-7.85.94Z"/><path class="cls-21" d="M618.41,62.78l2.43-.13Z"/><path class="cls-21" d="M623.28,62.5l2.42-.19Z"/><path class="cls-21" d="M629,62l-.9.09L629,62Z"/><path class="cls-16" d="M632.45,66.6l-.9.09-2.5.26-2.48.23-2.48.19-2.5.17-.9.06q-2.46,2.61-5.06,5.16c2.52-.08,5-.22,7.57-.39q2.49-2.63,4.85-5.32,2.82,2.21,5.76,4.33c.74-.09,1.48-.16,2.23-.26.59-.71,1.17-1.42,1.75-2.14a16.91,16.91,0,0,0,.21-3.13q-2.76.4-5.53.72Z"/><path class="cls-16" d="M632.46,66.59l-.91.11.9-.09Z"/><path class="cls-16" d="M621.59,67.55l2.5-.17Z"/><path class="cls-16" d="M626.57,67.19l2.48-.23Z"/><path class="cls-18" d="M630,81.74l-2.67.24-2.68.21-2.66.17-2.71.15-1,.05h0c-2.92.12-5.84.2-8.76.2q2.8,2.47,5.73,4.86c5-.13,10.08-.45,15.11-.93.77-1.2,1.5-2.5,2.21-3.87L631,81.66Z"/><path class="cls-21" d="M632.63,76.51l-2.57.27-1.08.11h0l-1.55.14-2.58.2-2.64.18-.94.07h0c-2.85.16-5.7.28-8.55.32q2.76,2.42,5.66,4.77l1,0,2.71-.15,2.66-.17,2.68-.21,2.67-.24,3.29-.34c.61-1.25,1.19-2.57,1.77-4l-1.49-1Z"/><path class="cls-21" d="M618.34,82.56l1-.05-1,0Z"/><path class="cls-21" d="M624.67,82.19l-2.66.17Z"/><path class="cls-21" d="M630,81.74l-2.67.24Z"/><path class="cls-16" d="M633.81,71.4h0q-2.35,2.76-4.84,5.47l1.07-.1,2.57-.27,3-.36c.26-.66.52-1.32.77-2s.54-1.54.75-2.27L636,71.13C635.29,71.23,634.55,71.31,633.81,71.4Z"/><path class="cls-16" d="M622.18,77.41l2.64-.18,2.58-.2,1.54-.15q-2.95-2.19-5.77-4.47l0,0c-2.52.17-5,.31-7.57.39q2.73,2.38,5.6,4.68Z"/><path class="cls-16" d="M627.41,77l-2.58.2Z"/><path class="cls-16" d="M621.24,77.48l.94-.07-1,.05Z"/><path class="cls-16" d="M630.06,76.78l2.57-.27Z"/><path class="cls-20" d="M609.57,67.93Q607,70.4,604.23,72.8q2.6,2.54,5.34,5,2.74-2.47,5.34-5Q612.17,70.4,609.57,67.93Z"/><path class="cls-25" d="M590.15,76.88h0Z"/><path class="cls-19" d="M591.09,67.07q-2.82,2.21-5.76,4.33,5.3.64,10.61,1Q593.45,69.76,591.09,67.07Z"/><path class="cls-25" d="M590.17,76.9h0Z"/><path class="cls-19" d="M596,72.41l0,0q-5.32-.36-10.61-1h0q2.35,2.76,4.84,5.47h0Q593.13,74.69,596,72.41Z"/><path class="cls-25" d="M629,76.89h0Z"/><path class="cls-19" d="M628,67.07q-2.36,2.69-4.85,5.32,5.31-.36,10.61-1Q630.87,69.27,628,67.07Z"/><path class="cls-25" d="M629,76.9h0Z"/><path class="cls-19" d="M628.95,76.88h0q2.49-2.71,4.84-5.47h0q-5.3.64-10.61,1l0,0Q626,74.69,628.95,76.88Z"/><path class="cls-20" d="M623.74,51.47A6.24,6.24,0,0,1,622.6,49a138.76,138.76,0,0,1-26.06,0,6.22,6.22,0,0,1-1.14,2.45A141,141,0,0,0,623.74,51.47Z"/><ellipse class="cls-19" cx="609.57" cy="42.93" rx="12.14" ry="0.77"/><path class="cls-20" d="M609.57,94.92a76.39,76.39,0,0,1-15.09-1.54c4,3.33,8.83,5.08,15.09,5.08s11.11-1.75,15.09-5.08A76.37,76.37,0,0,1,609.57,94.92Z"/><rect class="cls-16" x="785.99" y="90.23" width="5.38" height="5.38" transform="translate(165.23 584.81) rotate(-44.99)"/><rect class="cls-16" x="770.97" y="94.28" width="5.38" height="5.38" transform="translate(479.82 819.19) rotate(-75.01)"/><rect class="cls-16" x="759.98" y="105.3" width="5.38" height="5.38" transform="translate(-1.97 201.03) rotate(-15)"/><rect class="cls-16" x="755.98" y="120.33" width="5.38" height="5.38" transform="translate(135.34 572.66) rotate(-45.02)"/><rect class="cls-16" x="760.03" y="135.35" width="5.38" height="5.38" transform="matrix(0.26, -0.97, 0.97, 0.26, 432.04, 839.07)"/><rect class="cls-16" x="771.05" y="146.34" width="5.38" height="5.38" transform="translate(-12.19 205.51) rotate(-15.01)"/><rect class="cls-16" x="786.08" y="150.34" width="5.38" height="5.38" transform="translate(122.76 602.48) rotate(-44.99)"/><rect class="cls-16" x="801.11" y="146.29" width="5.38" height="5.38" transform="translate(451.77 886.79) rotate(-74.99)"/><rect class="cls-16" x="812.09" y="135.27" width="5.38" height="5.38" transform="matrix(0.97, -0.26, 0.26, 0.97, -7.92, 215.82)"/><rect class="cls-16" x="816.09" y="120.24" width="5.38" height="5.38" transform="translate(153.03 615.15) rotate(-45.02)"/><rect class="cls-16" x="812.04" y="105.21" width="5.38" height="5.38" transform="matrix(0.26, -0.97, 0.97, 0.26, 499.76, 867)"/><rect class="cls-16" x="801.02" y="94.23" width="5.38" height="5.38" transform="translate(2.33 211.5) rotate(-15.01)"/><rect class="cls-21" x="778.21" y="91.26" width="5.38" height="5.38" transform="translate(309.2 723.34) rotate(-60.01)"/><rect class="cls-21" x="764.75" y="99.06" width="5.38" height="5.38"/><rect class="cls-21" x="756.99" y="112.55" width="5.38" height="5.38" transform="translate(44.13 395.22) rotate(-29.99)"/><rect class="cls-21" x="757.02" y="128.11" width="5.38" height="5.38" transform="translate(266.64 723.37) rotate(-60.01)"/><rect class="cls-21" x="764.82" y="141.57" width="5.38" height="5.38"/><rect class="cls-21" x="778.3" y="149.33" width="5.38" height="5.38" transform="translate(28.6 410.79) rotate(-29.99)"/><rect class="cls-21" x="793.86" y="149.3" width="5.38" height="5.38" transform="translate(266.7 765.88) rotate(-60.01)"/><rect class="cls-21" x="807.32" y="141.5" width="5.38" height="5.38"/><rect class="cls-21" x="815.08" y="128.02" width="5.38" height="5.38" transform="translate(44.12 426.17) rotate(-29.98)"/><rect class="cls-21" x="815.06" y="112.46" width="5.38" height="5.38" transform="translate(309.17 765.78) rotate(-60)"/><rect class="cls-21" x="807.26" y="99" width="5.38" height="5.38"/><rect class="cls-21" x="793.77" y="91.24" width="5.38" height="5.38" transform="translate(59.74 410.81) rotate(-30)"/><circle class="cls-17" cx="788.68" cy="122.95" r="30.3"/><circle class="cls-18" cx="788.68" cy="122.95" r="27.74"/><circle class="cls-20" cx="788.68" cy="122.95" r="26.46"/><circle class="cls-19" cx="788.68" cy="122.95" r="23.83"/><circle class="cls-17" cx="788.68" cy="122.95" r="21.18"/><polygon class="cls-18" points="787.28 116.66 775.24 116.66 772.1 113.52 784.14 113.52 787.28 116.66"/><polygon class="cls-21" points="785.5 119.81 773.46 119.81 770.31 116.66 782.36 116.66 785.5 119.81"/><polygon class="cls-16" points="783.72 122.95 771.67 122.95 768.53 119.81 780.57 119.81 783.72 122.95"/><polygon class="cls-18" points="787.28 129.24 775.24 129.24 772.1 132.38 784.14 132.38 787.28 129.24"/><polygon class="cls-21" points="785.5 126.09 773.46 126.09 770.31 129.24 782.36 129.24 785.5 126.09"/><polygon class="cls-16" points="783.72 122.95 771.67 122.95 768.53 126.09 780.57 126.09 783.72 122.95"/><polygon class="cls-18" points="790.08 116.66 802.12 116.66 805.26 113.52 793.22 113.52 790.08 116.66"/><polygon class="cls-21" points="791.86 119.81 803.9 119.81 807.04 116.66 795 116.66 791.86 119.81"/><polygon class="cls-16" points="793.64 122.95 805.68 122.95 808.83 119.81 796.78 119.81 793.64 122.95"/><polygon class="cls-18" points="790.08 129.24 802.12 129.24 805.26 132.38 793.22 132.38 790.08 129.24"/><polygon class="cls-21" points="791.86 126.09 803.9 126.09 807.04 129.24 795 129.24 791.86 126.09"/><polygon class="cls-16" points="793.64 122.95 805.68 122.95 808.83 126.09 796.78 126.09 793.64 122.95"/><rect class="cls-17" x="786.46" y="120.73" width="4.44" height="4.44" transform="translate(143.98 593.59) rotate(-44.99)"/><rect class="cls-19" x="773.9" y="120.73" width="4.44" height="4.44" transform="translate(140.31 584.71) rotate(-44.99)"/><rect class="cls-19" x="799.01" y="120.73" width="4.44" height="4.44" transform="translate(147.82 602.68) rotate(-45.01)"/><polygon class="cls-18" points="782.39 124.35 782.39 136.39 779.25 139.53 779.25 127.49 782.39 124.35"/><polygon class="cls-21" points="785.54 126.13 785.54 138.17 782.39 141.31 782.39 129.27 785.54 126.13"/><polygon class="cls-16" points="788.68 127.91 788.68 139.95 785.54 143.1 785.54 131.06 788.68 127.91"/><polygon class="cls-18" points="794.97 124.35 794.97 136.39 798.11 139.53 798.11 127.49 794.97 124.35"/><polygon class="cls-21" points="791.82 126.13 791.82 138.17 794.97 141.31 794.97 129.27 791.82 126.13"/><polygon class="cls-16" points="788.68 127.91 788.68 139.95 791.82 143.1 791.82 131.06 788.68 127.91"/><polygon class="cls-18" points="782.39 121.55 782.39 109.51 779.25 106.37 779.25 118.41 782.39 121.55"/><polygon class="cls-21" points="785.54 119.77 785.54 107.73 782.39 104.59 782.39 116.63 785.54 119.77"/><polygon class="cls-16" points="788.68 117.99 788.68 105.95 785.54 102.81 785.54 114.84 788.68 117.99"/><polygon class="cls-18" points="794.97 121.55 794.97 109.51 798.11 106.37 798.11 118.41 794.97 121.55"/><polygon class="cls-21" points="791.82 119.77 791.82 107.73 794.97 104.59 794.97 116.63 791.82 119.77"/><polygon class="cls-16" points="788.68 117.99 788.68 105.95 791.82 102.81 791.82 114.84 788.68 117.99"/><rect class="cls-20" x="786.46" y="120.73" width="4.44" height="4.44" transform="translate(143.98 593.58) rotate(-44.99)"/><rect class="cls-19" x="786.46" y="133.28" width="4.44" height="4.44" transform="translate(135.17 597.36) rotate(-45)"/><rect class="cls-19" x="786.46" y="108.17" width="4.44" height="4.44" transform="translate(153.01 590.12) rotate(-45.01)"/><path class="cls-21" d="M869,150.66q1.35,1.11,2.82,2.14,1.25.87,2.58,1.69l-.41.12q-1.56-.78-3-1.64c.58.66,1.18,1.3,1.8,1.94a19.9,19.9,0,0,1-3.16.43,49.85,49.85,0,0,1-5.75-4.9,46.47,46.47,0,0,0,5.63-4.49c1.26,0,2.65.18,4.1.35-.64.7-1.31,1.38-2,2.05S869.86,149.92,869,150.66Z"/><path class="cls-19" d="M881.31,147.33c1.94.28,3.35.54,3.45.88s-.87,1.37-2.57,2.57q-1.32-.59-2.57-1.24C880.21,148.81,880.78,148.08,881.31,147.33Z"/><path class="cls-19" d="M882.11,150.83a25.61,25.61,0,0,1-3.49,2q-2.23-1.16-4.25-2.5a47.13,47.13,0,0,0,3.17-3.54l3.69.5c-.55.76-1.13,1.51-1.73,2.25C880.34,150,881.21,150.43,882.11,150.83Z"/><path class="cls-19" d="M879.62,149.54q1.25.65,2.57,1.24l-.08.05c-.9-.4-1.77-.82-2.62-1.26.6-.74,1.18-1.49,1.73-2.25h.09C880.78,148.08,880.21,148.81,879.62,149.54Z"/><path class="cls-20" d="M874.37,148c.52-.46,1-.92,1.51-1.39l1.56.21-.85,1q-1.12,1.29-2.35,2.55,1.47,1,3,1.85l1.25.68a27.43,27.43,0,0,1-2.75,1.14c-.65-.29-1.29-.59-1.92-.9.38.39.77.78,1.16,1.16l-.67.2q-1.33-.82-2.58-1.69-1.47-1-2.82-2.14,1.35-1.12,2.58-2.3,1.05-1,2-2.05l1.66.2C874.94,147,874.66,147.5,874.37,148Z"/><path class="cls-17" d="M878.62,152.85l-.09,0-1.25-.68q-1.57-.88-3-1.85,1.24-1.25,2.35-2.55l.85-1h.09a47.13,47.13,0,0,1-3.17,3.54Q876.39,151.69,878.62,152.85Z"/><path class="cls-18" d="M869.57,155.35a10.77,10.77,0,0,1-3.44-.29c-1-.29-2.15-.54-3.31-.82a50,50,0,0,1-4.21-4.51,47,47,0,0,0,5.06-3.18c.54,0,1.07-.07,1.57-.14-.46.56-.94,1.12-1.44,1.67,1.16-.63,2.27-1.31,3.33-2a13.21,13.21,0,0,1,2.31-.1,46.47,46.47,0,0,1-5.63,4.49A49.85,49.85,0,0,0,869.57,155.35Z"/><path class="cls-21" d="M858.49,149.71c.74.89,1.5,1.77,2.32,2.64.6.63,1.21,1.25,1.85,1.86l-1.33-.32c-.66-.53-1.3-1.06-1.92-1.61.24.44.5.89.75,1.32a38.32,38.32,0,0,1-3.76-1.16q-1.57-1.93-2.9-3.92a47,47,0,0,0,4.31-2.08l1.68.09-.56.87,1-.85c1.2.05,2.43.08,3.63,0-.66.48-1.35.94-2,1.39C860.52,148.56,859.52,149.15,858.49,149.71Z"/><path class="cls-19" d="M860.81,152.34c-.82-.86-1.58-1.74-2.32-2.64,1-.56,2-1.15,3-1.76.7-.45,1.38-.91,2-1.39h.14a47,47,0,0,1-5.06,3.18,50,50,0,0,0,4.21,4.51l-.16,0C862,153.59,861.41,153,860.81,152.34Z"/><path class="cls-16" d="M853.38,148.46q1,1.45,2,2.86c.27.35.55.7.83,1a16.46,16.46,0,0,1-2-.9l-.16-.33c0,.08,0,.17,0,.26-1.72-1-2.65-2.11-2.2-3.37.62-1.72,2.9-1.73,5.7-1.61l-1.12.59C855.52,147.52,854.46,148,853.38,148.46Z"/><path class="cls-16" d="M856.41,152.42l-.16-.06c-.28-.34-.56-.69-.83-1q-1.08-1.41-2-2.86c1.08-.45,2.14-.94,3.16-1.46l1.12-.59h.15a47,47,0,0,1-4.31,2.08Q854.84,150.5,856.41,152.42Z"/><path class="cls-17" d="M883.67,148.54a54.19,54.19,0,0,1-39.41-3.28l.36-.67A53.75,53.75,0,0,0,883.67,148.54Z"/><path class="cls-21" d="M623.15,130.56q1.8-.89,3.59-1.94,1.51-.89,3-1.9c0,.16,0,.32-.07.49q-1.56,1.26-3.15,2.38c1-.29,1.92-.62,2.89-1a23,23,0,0,1-1,3.52,57.58,57.58,0,0,1-7.87,3.7,53.57,53.57,0,0,0-2-8c.64-1.3,1.45-2.7,2.31-4.13.42,1,.82,2,1.19,3.09Q622.62,128.61,623.15,130.56Z"/><path class="cls-19" d="M625.53,116c1.22-1.91,2.16-3.25,2.56-3.2s1,1.57,1.47,3.92q-1.25,1.1-2.52,2.1C626.56,117.88,626.06,116.94,625.53,116Z"/><path class="cls-19" d="M629.58,116.85a29.51,29.51,0,0,1,.47,4.62q-2.28,1.79-4.64,3.28a54.51,54.51,0,0,0-2.21-5c.81-1.3,1.59-2.55,2.28-3.63.53.94,1,1.9,1.53,2.89C627.88,118.31,628.73,117.6,629.58,116.85Z"/><path class="cls-19" d="M627,118.84q1.27-1,2.52-2.1l0,.11c-.85.75-1.7,1.46-2.57,2.15-.49-1-1-1.95-1.53-2.89l.06-.09C626.06,116.94,626.56,117.88,627,118.84Z"/><path class="cls-20" d="M622.92,123.61c-.23-.76-.48-1.51-.74-2.25l1-1.54c.23.45.44.91.67,1.38q.82,1.79,1.55,3.68,1.71-1.08,3.38-2.31.66-.48,1.3-1a31.7,31.7,0,0,1-.11,3.42c-.61.54-1.23,1.07-1.86,1.58.59-.21,1.18-.44,1.77-.67,0,.27-.07.53-.1.8q-1.49,1-3,1.9-1.78,1-3.59,1.94-.53-1.95-1.19-3.8-.56-1.59-1.19-3.09l1-1.64C622.16,122.55,622.55,123.08,622.92,123.61Z"/><path class="cls-17" d="M630,121.47s0,.08,0,.12q-.65.51-1.3,1-1.67,1.23-3.38,2.31-.72-1.89-1.55-3.68c-.23-.47-.44-.93-.67-1.38l.06-.1a54.51,54.51,0,0,1,2.21,5Q627.76,123.26,630,121.47Z"/><path class="cls-18" d="M628.36,132.15a12.43,12.43,0,0,1-1.94,3.47c-.79.94-1.59,2-2.43,3.08a57.66,57.66,0,0,1-6.74,2.27,54,54,0,0,0-.93-6.82c.23-.57.43-1.15.6-1.72.37.76.72,1.52,1.07,2.3-.12-1.51-.29-3-.53-4.45a15.18,15.18,0,0,1,1-2.47,53.57,53.57,0,0,1,2,8A57.58,57.58,0,0,0,628.36,132.15Z"/><path class="cls-21" d="M617.17,141.09c1.29-.35,2.57-.73,3.87-1.18.95-.33,1.89-.68,2.83-1.06l-1,1.24c-.87.44-1.73.85-2.61,1.25l1.74-.16a44.15,44.15,0,0,1-3,3.39q-2.77.73-5.49,1.18a54.48,54.48,0,0,0-.13-5.51l.89-1.72.65,1c-.14-.48-.28-1-.43-1.43.62-1.23,1.24-2.51,1.75-3.79.19.92.34,1.86.48,2.81C616.93,138.41,617.07,139.74,617.17,141.09Z"/><path class="cls-19" d="M621,139.91c-1.29.45-2.58.83-3.87,1.18-.1-1.35-.24-2.67-.43-4-.14-.95-.29-1.88-.48-2.81l.06-.16a54,54,0,0,1,.93,6.82A57.66,57.66,0,0,0,624,138.7l-.12.15C622.93,139.23,622,139.58,621,139.91Z"/><path class="cls-16" d="M613.44,145.86q2-.32,4-.78l1.48-.37a18.62,18.62,0,0,1-1.88,1.63h-.42l.29.09c-1.84,1.34-3.47,1.78-4.58.71-1.51-1.46-.44-3.87,1-6.75,0,.48.06,1,.09,1.45C613.47,143.17,613.48,144.51,613.44,145.86Z"/><path class="cls-16" d="M619,144.57l-.14.13-1.48.37q-2,.47-4,.78c0-1.35,0-2.69,0-4,0-.49-.05-1-.09-1.45l.08-.16a54.48,54.48,0,0,1,.13,5.51Q616.27,145.3,619,144.57Z"/><path class="cls-17" d="M627.92,114.13a62.4,62.4,0,0,1-22.17,39.78l-.53-.69A61.9,61.9,0,0,0,627.92,114.13Z"/><path class="cls-21" d="M861.11,142.52q1.21.34,2.47.6,1.07.22,2.18.38l-.24.19c-.83,0-1.65-.12-2.45-.22.57.27,1.15.52,1.74.76a14.22,14.22,0,0,1-2,1.19,35.67,35.67,0,0,1-5.2-1.58,33.33,33.33,0,0,0,2.42-4.57c.84-.34,1.8-.65,2.8-.95-.22.64-.47,1.28-.74,1.93S861.49,141.77,861.11,142.52Z"/><path class="cls-19" d="M868.3,136.78c1.36-.37,2.36-.6,2.53-.41s-.18,1.15-1,2.43q-1,0-2-.08C868,138.07,868.16,137.42,868.3,136.78Z"/><path class="cls-19" d="M869.83,138.85a18.41,18.41,0,0,1-1.72,2.34q-1.8-.13-3.52-.42a33.56,33.56,0,0,0,1.07-3.25l2.57-.73c-.15.66-.31,1.32-.5,2C868.43,138.82,869.12,138.85,869.83,138.85Z"/><path class="cls-19" d="M867.82,138.71q1,.07,2,.08l0,.06c-.71,0-1.4,0-2.09-.08.19-.66.35-1.32.5-2l.06,0C868.16,137.42,868,138.07,867.82,138.71Z"/><path class="cls-20" d="M863.91,139.2c.21-.45.41-.9.6-1.35l1.09-.31c-.09.3-.18.61-.27.92q-.37,1.17-.82,2.35c.83.14,1.67.26,2.53.34l1,.09a19.45,19.45,0,0,1-1.48,1.54c-.51,0-1,0-1.52,0l1.1.43-.38.32q-1.11-.16-2.18-.38-1.26-.26-2.47-.6.57-1.13,1-2.26.41-1,.74-1.93L864,138C864,138.39,864,138.8,863.91,139.2Z"/><path class="cls-17" d="M868.11,141.19l-.05.06-1-.09c-.86-.09-1.7-.2-2.53-.34q.46-1.18.82-2.35c.09-.31.18-.62.27-.92l.07,0a33.56,33.56,0,0,1-1.07,3.25Q866.3,141.06,868.11,141.19Z"/><path class="cls-18" d="M862.86,145.43a7.74,7.74,0,0,1-2.35.8c-.76.11-1.57.26-2.42.41a36,36,0,0,1-4.07-1.77,34.05,34.05,0,0,0,2.42-3.55c.34-.17.68-.35,1-.54-.14.51-.3,1-.47,1.51.58-.75,1.12-1.51,1.62-2.28a9.6,9.6,0,0,1,1.49-.73,33.33,33.33,0,0,1-2.42,4.57A35.67,35.67,0,0,0,862.86,145.43Z"/><path class="cls-21" d="M853.94,144.9c.74.38,1.5.74,2.29,1.07.57.24,1.16.47,1.75.69l-1,.17c-.59-.16-1.16-.33-1.73-.51l.88.66a27.61,27.61,0,0,1-2.81.31q-1.59-.82-3-1.75a33.87,33.87,0,0,0,2.24-2.61l1.13-.43-.12.74c.14-.28.27-.56.4-.84.81-.31,1.63-.65,2.4-1-.3.51-.62,1-1,1.5C854.94,143.56,854.45,144.23,853.94,144.9Z"/><path class="cls-19" d="M856.22,146c-.79-.33-1.54-.69-2.29-1.07.52-.66,1-1.34,1.47-2,.33-.5.65-1,1-1.5l.09,0a34.05,34.05,0,0,1-2.42,3.55,36,36,0,0,0,4.07,1.77l-.12,0C857.38,146.44,856.8,146.21,856.22,146Z"/><path class="cls-16" d="M850.21,145.55q1,.68,2.17,1.3l.84.45a11.58,11.58,0,0,1-1.56,0l-.2-.17.1.16c-1.41-.15-2.35-.63-2.42-1.59-.09-1.31,1.41-2,3.3-2.7l-.57.71C851.35,144.31,850.8,144.94,850.21,145.55Z"/><path class="cls-16" d="M853.34,147.29h-.12l-.84-.45q-1.12-.62-2.17-1.3c.58-.61,1.14-1.23,1.66-1.87l.57-.71.1,0a33.87,33.87,0,0,1-2.24,2.61Q851.76,146.47,853.34,147.29Z"/><path class="cls-17" d="M870.19,136.9a39,39,0,0,1-26.92,9.16l0-.54A38.64,38.64,0,0,0,870.19,136.9Z"/></g></g></svg>