<?xml version="1.0" encoding="UTF-8"?>
<svg width="718px" height="516px" viewBox="0 0 718 516" version="1.1" xmlns="http://www.w3.org/2000/svg" xmlns:xlink="http://www.w3.org/1999/xlink">
    <!-- Generator: Sketch 60 (88103) - https://sketch.com -->
    <title>Group 2</title>
    <desc>Created with Sketch.</desc>
    <g id="Page-1" stroke="none" stroke-width="1" fill="none" fill-rule="evenodd">
        <g id="AUTO-Copy" transform="translate(-316.000000, -220.000000)">
            <g id="Group-2" transform="translate(315.000000, 194.000000)">
                <path d="M386.273422,25.1661367 C740.868829,2.44821015 747.31864,318.059162 698.303015,413.941499 C649.28739,509.823836 458.427,473.739465 372.571762,482.028637 C286.716524,490.317809 231.28739,551.909434 90.2873901,509.823836 C-50.7126099,467.738238 31.6780151,47.8840633 386.273422,25.1661367 Z" id="Path-2" fill="#CFEDEE" transform="translate(372.571762, 274.200701) rotate(4.000000) translate(-372.571762, -274.200701) "></path>
                <path d="M238,143 C266.166522,143 289,153.521308 289,166.5 C289,167.964236 288.709376,169.397194 288.153256,170.787295 C312.931082,173.124213 331,180.393905 331,189 C331,199.49341 304.137085,208 271,208 C251.999091,208 235.061074,205.203108 224.067543,200.838497 C217.178554,203.434312 208.25198,205 198.5,205 C176.684752,205 159,197.164983 159,187.5 C159,179.478872 171.180571,172.718154 187.793908,170.650418 C187.271847,169.303029 187,167.916143 187,166.5 C187,153.521308 209.833478,143 238,143 Z" id="Combined-Shape" stroke="#FFFFFF" fill="#FFFFFF"></path>
                <path d="M483,78 C501.225397,78 516,84.7157288 516,93 C516,93.8588377 515.841208,94.7008173 515.53624,95.5202037 C531.420536,97.0614935 543,101.8417 543,107.5 C543,114.403559 525.762963,120 504.5,120 C492.185393,120 481.221177,118.122822 474.173782,115.201723 C469.70363,116.944994 463.875008,118 457.5,118 C443.416739,118 432,112.851275 432,106.5 C432,101.253895 439.789225,96.8282452 450.436539,95.4468975 C450.149497,94.6507703 450,93.8333208 450,93 C450,84.7157288 464.774603,78 483,78 Z" id="Combined-Shape" stroke="#FFFFFF" fill="#FFFFFF"></path>
                <g id="Car_5_" transform="translate(0.000000, 242.000000)" fill-rule="nonzero">
                    <g id="Car_1_">
                        <path d="M381.964945,175.191406 L354.933579,175.191406 C334.718819,175.191406 318.5,191.417188 318.5,211.640625 L318.5,250.911719 C318.5,271.135156 334.953875,287.360937 354.933579,287.360937 L381.964945,287.360937 C398.88893,287.360937 412.52214,262.199219 412.52214,231.39375 C412.52214,200.353125 398.88893,175.191406 381.964945,175.191406 Z" id="Path" fill="#4B4F69"></path>
                        <path d="M631.593727,207.407812 L629.243173,207.407812 C626.657565,207.407812 624.542066,205.291406 624.542066,202.704687 L624.542066,151.205469 C624.542066,148.61875 626.657565,146.502344 629.243173,146.502344 L631.593727,146.502344 C634.179336,146.502344 636.294834,148.61875 636.294834,151.205469 L636.294834,202.704687 C636.294834,205.291406 634.179336,207.407812 631.593727,207.407812 Z" id="Path" fill="#272C3B"></path>
                        <path d="M114.471956,127.689844 L96.6077491,127.689844 C87.2055351,127.689844 79.4487085,119.929687 79.4487085,110.523437 C79.4487085,104.644531 84.1498155,99.9414062 90.0261993,99.9414062 L107.890406,99.9414062 C116.352399,99.9414062 123.404059,106.996094 123.404059,115.461719 L123.404059,118.753906 C123.404059,123.692187 119.408118,127.689844 114.471956,127.689844 Z" id="Path" fill="#272C3B"></path>
                        <path d="M408.99631,10.1117187 L324.141328,117.578125 L217.661255,124.867969 L217.661255,120.164844 L204.498155,123.221875 L193.450554,123.221875 L145.264207,124.867969 L108.125461,122.046094 C108.125461,122.046094 176.526568,21.3992187 192.745387,13.6390625 C196.036162,11.9929687 207.318819,11.0523437 222.832472,10.346875 C236.230627,9.64140625 252.684502,9.40625 270.548708,9.17109375 C274.309594,9.17109375 278.07048,9.17109375 281.831365,9.17109375 C286.767528,9.17109375 291.938745,9.17109375 297.109963,9.17109375 C352.34797,8.9359375 408.99631,10.1117187 408.99631,10.1117187 Z" id="Path" fill="#AAEAF0"></path>
                        <polygon id="Rectangle" fill="#6BB5C1" transform="translate(253.705396, 61.838548) rotate(-4.481139) translate(-253.705396, -61.838548) " points="247.478592 4.69840774 259.936019 4.69799122 259.9322 118.978688 247.474772 118.979104"></polygon>
                        <path d="M312.858672,154.2625 L263.967159,154.2625 C255.740221,154.2625 250.098893,147.913281 251.74428,139.917969 L262.321771,84.4210938 C263.732103,76.4257812 271.723985,70.0765625 280.185978,70.0765625 L329.077491,70.0765625 C337.304428,70.0765625 342.945756,76.4257813 341.300369,84.4210938 L330.722878,139.917969 C329.077491,147.678125 321.085609,154.2625 312.858672,154.2625 Z" id="Path" fill="#6BB5C1"></path>
                        <path d="M299.695572,34.5679688 L255.740221,34.5679688 C252.919557,34.5679688 251.039114,31.7460938 251.979336,29.159375 L254.329889,23.0453125 C254.8,21.3992188 256.445387,20.4585938 258.090775,20.4585938 L302.046125,20.4585938 C304.86679,20.4585938 306.747232,23.2804688 305.807011,25.8671875 L303.456458,31.98125 C302.986347,33.3921875 301.340959,34.5679688 299.695572,34.5679688 Z" id="Path" fill="#6BB5C1"></path>
                        <polygon id="Rectangle" fill="#6BB5C1" transform="translate(352.189374, 61.842473) rotate(-4.481023) translate(-352.189374, -61.842473) " points="345.962571 4.70234223 358.419997 4.70192572 358.416177 118.982604 345.958752 118.983021"></polygon>
                        <path d="M418.868635,118.989062 L408.99631,122.28125 L376.323616,22.3398437 C373.973063,15.2851562 367.626568,10.8171875 360.339852,10.8171875 L360.104797,10.8171875 L329.782657,11.2875 L329.782657,0.940625 L360.104797,0.4703125 C372.09262,0.23515625 382.670111,7.76015625 386.430996,19.2828125 L418.868635,118.989062 Z" id="Path" fill="#6BB5C1"></path>
                        <path d="M257.150554,9.17109375 L181.697786,114.75625 L159.837638,145.091406 L128.810332,122.986719 L135.391882,113.580469 L209.199262,10.346875 C223.067528,9.64140625 239.521402,9.17109375 257.150554,9.17109375 Z" id="Path" fill="#C6F4F7"></path>
                        <path d="M283.476753,8.9359375 L207.553875,115.226562 L177.46679,157.554688 L167.35941,150.5 L192.745387,114.991406 L268.43321,9.17109375 C273.369373,8.9359375 278.54059,8.9359375 283.476753,8.9359375 Z" id="Path" fill="#C6F4F7"></path>
                        <polygon id="Path" fill="#0089CE" points="210.374539 2.58671875 210.609594 12.9335937 424.509963 12.9335937 554.965683 0.23515625 339.419926 0.23515625"></polygon>
                        <path d="M339.419926,0.23515625 L339.419926,10.5820312 L210.609594,12.9335937 C200.972325,13.16875 192.275277,17.6367187 186.398893,25.396875 L109.065683,128.160156 L100.838745,122.046094 L178.171956,19.2828125 C185.928782,8.9359375 197.68155,3.05703125 210.374539,2.821875 L339.419926,0.23515625 Z" id="Path" fill="#0089CE"></path>
                        <path d="M609.028413,115.461719 L445.429889,114.285937 L427.095572,119.694531 L416.518081,118.51875 L370.212177,113.815625 L325.08155,116.6375 C325.08155,116.6375 392.30738,17.4015625 412.05203,12.4632812 C419.573801,10.5820312 442.37417,8.70078125 468.230258,7.76015625 C484.449077,7.0546875 501.843173,6.81953125 517.591882,7.0546875 C520.882657,7.0546875 523.938376,7.0546875 526.994096,7.28984375 C533.105535,7.525 538.746863,7.76015625 543.683026,8.23046875 C555.200738,9.17109375 563.662731,10.346875 567.188561,12.4632812 C569.069004,13.6390625 571.184502,15.990625 573.535055,19.5179687 C578.706273,27.5132813 584.112546,40.446875 589.283764,54.3210937 C599.861255,82.775 609.028413,115.461719 609.028413,115.461719 Z" id="Path" fill="#AAEAF0"></path>
                        <path d="M574.005166,174.250781 L526.759041,174.250781 C518.767159,174.250781 513.360886,167.901562 515.006273,159.90625 L525.348708,104.409375 C526.759041,96.4140625 516.416605,90.0648438 524.408487,90.0648438 L595.395203,90.0648438 C603.387085,90.0648438 602.916974,96.4140625 601.506642,104.409375 L591.164207,159.90625 C589.753875,167.666406 581.997048,174.250781 574.005166,174.250781 Z" id="Path" fill="#6BB5C1"></path>
                        <path d="M427.800738,154.2625 L380.789668,154.2625 C372.797786,154.2625 367.391513,147.913281 369.0369,139.917969 L379.379336,84.4210938 C380.789668,76.4257812 388.546494,70.0765625 396.538376,70.0765625 L443.784502,70.0765625 C451.776384,70.0765625 457.182657,76.4257813 455.537269,84.4210938 L445.194834,139.917969 C443.549446,147.678125 436.027675,154.2625 427.800738,154.2625 Z" id="Path" fill="#538CA6"></path>
                        <path d="M522.528044,153.321875 L475.281919,153.321875 C467.290037,153.321875 461.883764,146.972656 463.529151,138.977344 L473.871587,83.4804688 C475.281919,75.4851562 483.038745,69.1359375 491.030627,69.1359375 L538.276753,69.1359375 C546.268635,69.1359375 551.674908,75.4851563 550.02952,83.4804688 L539.687085,138.977344 C538.276753,146.972656 530.519926,153.321875 522.528044,153.321875 Z" id="Path" fill="#6BB5C1"></path>
                        <polygon id="Path" fill="#538CA6" points="418.868635 118.989062 408.99631 122.28125 384.315498 46.5609375 380.554613 34.5679688 388.076384 24.45625 391.837269 36.4492188"></polygon>
                        <polygon id="Path" fill="#C6F4F7" points="576.120664 26.5726562 491.970849 118.51875 476.927306 118.51875 574.710332 10.8171875"></polygon>
                        <path d="M564.367897,11.7578125 L464.704428,117.578125 L456.712546,124.867969 L452.951661,76.8960937 L464.469373,64.1976562 L523.23321,4.93828125 C525.818819,8.9359375 532.635424,9.8765625 538.746863,10.5820312 C548.619188,11.2875 561.782288,4.703125 564.367897,11.7578125 Z" id="Path" fill="#C6F4F7"></path>
                        <polygon id="Path" fill="#538CA6" points="350.467528 119.224219 348.116974 84.8914062 359.634686 70.546875 362.925461 118.283594"></polygon>
                        <g id="Group" transform="translate(322.025830, 79.953125)">
                            <path d="M63.4649446,20.2234375 C63.4649446,20.2234375 47.9512915,48.9125 35.2583026,50.5585937 C30.5571956,51.2640625 7.99188192,15.2851562 7.99188192,15.2851562 L2.11549815,20.69375 C2.11549815,20.69375 28.9118081,67.9601562 39.7243542,64.903125 C50.5369004,61.8460937 66.5206642,49.853125 66.5206642,49.853125 L63.4649446,20.2234375 Z" id="Path" fill="#08BA58"></path>
                            <path d="M64.1701107,72.6632813 C63.7,88.6539063 62.9948339,108.642188 62.9948339,108.642188 C62.9948339,108.642188 63.7,118.283594 83.4446494,121.810938 C103.189299,125.338281 122.463838,120.4 122.463838,120.4 C122.463838,120.4 124.579336,106.760938 124.814391,89.359375 C124.814391,87.7132813 124.814391,86.0671875 124.814391,84.4210938 C124.814391,80.1882813 124.814391,76.4257813 124.814391,72.6632813 C124.814391,47.5015625 124.579336,30.3351563 121.993727,24.45625 C119.173063,17.871875 106.950185,11.9929688 95.902583,11.0523438 C78.9785978,9.64140625 65.5804428,15.7554688 63.4649446,20.4585938 C61.1143911,25.6320313 65.1103321,38.8007813 64.6402214,54.3210938 C64.6402214,56.9078125 64.4051661,64.1976563 64.1701107,72.6632813 Z" id="Path" fill="#08BA58"></path>
                            <path d="M103.65941,12.228125 C103.65941,12.228125 100.133579,24.6914062 89.7911439,23.7507813 C79.6837638,22.8101563 84.3848708,12.228125 84.3848708,12.228125 C84.3848708,12.228125 86.500369,11.7578125 88.1457565,9.17109375 C88.3808118,8.9359375 88.6158672,8.70078125 88.6158672,8.465625 C89.7911439,6.1140625 89.0859779,3.2921875 89.0859779,3.2921875 L98.9583026,1.17578125 C98.9583026,1.17578125 98.0180812,4.46796875 99.1933579,7.9953125 C99.1933579,7.9953125 99.1933579,7.9953125 99.1933579,7.9953125 C100.60369,11.7578125 103.65941,12.228125 103.65941,12.228125 Z" id="Path" fill="#FFB286"></path>
                            <path d="M99.4284133,7.9953125 C97.7830258,8.70078125 95.4324723,9.64140625 93.3169742,9.40625 C91.4365314,9.40625 90.0261993,8.70078125 89.0859779,8.23046875 C90.2612546,5.87890625 89.5560886,3.05703125 89.5560886,3.05703125 L99.4284133,0.940625 C99.1933579,1.17578125 98.2531365,4.46796875 99.4284133,7.9953125 Z" id="Path" fill="#FF9B6C"></path>
                        </g>
                        <polygon id="Rectangle" fill="#0058A0" transform="translate(446.677112, 61.832254) rotate(-4.481023) translate(-446.677112, -61.832254) " points="440.450309 4.69212351 452.907735 4.691707 452.903915 118.972385 440.44649 118.972802"></polygon>
                        <polygon id="Path" fill="#0058A0" points="555.905904 118.283594 543.44797 119.224219 543.212915 117.107812 542.272694 105.585156 538.511808 57.6132812 534.515867 5.40859375 546.973801 4.46796875 550.264576 44.9148437 554.025461 92.8867188 554.730627 104.409375"></polygon>
                        <path d="M613.964576,118.989062 L604.092251,122.28125 L571.419557,22.3398437 C569.069004,15.2851562 562.722509,10.8171875 555.435793,10.8171875 L555.200738,10.8171875 L424.509963,13.16875 C414.872694,13.4039062 406.175646,17.871875 400.299262,25.6320312 L391.837269,36.9195312 L384.315498,47.03125 L322.966052,128.395312 L314.739114,122.28125 L380.319557,35.0382813 L387.841328,24.9265625 L391.837269,19.5179688 C399.594096,9.17109375 411.346863,3.2921875 424.039852,3.05703125 L554.730627,0.70546875 C566.71845,0.4703125 577.295941,7.9953125 581.056827,19.5179688 L613.964576,118.989062 Z" id="Path" fill="#0571AD"></path>
                        <path d="M318.264945,171.428906 C296.639852,171.428906 279.010701,153.792187 279.010701,132.157812 C279.010701,110.523438 296.639852,92.8867188 318.264945,92.8867188 C339.890037,92.8867188 357.519188,110.523438 357.519188,132.157812 C357.519188,153.792187 339.890037,171.428906 318.264945,171.428906 Z M318.264945,100.176562 C300.635793,100.176562 286.297417,114.521094 286.297417,132.157812 C286.297417,149.794531 300.635793,164.139062 318.264945,164.139062 C335.894096,164.139062 350.232472,149.794531 350.232472,132.157812 C349.997417,114.521094 335.659041,100.176562 318.264945,100.176562 Z" id="Shape" fill="#696D6D"></path>
                        <path d="M330.487823,94.7679687 C330.487823,94.7679687 322.730996,86.7726562 313.563838,89.1242187 C308.39262,90.5351562 308.627675,93.3570312 308.862731,96.884375 C309.332841,100.411719 310.508118,101.117187 312.153506,101.352344 C313.093727,101.5875 314.033948,100.882031 314.033948,100.882031 C314.033948,100.882031 314.739114,102.528125 316.619557,102.292969 C318.029889,102.057812 318.735055,101.352344 318.735055,101.352344 C318.735055,101.352344 318.970111,102.763281 320.850554,102.763281 C322.495941,102.763281 323.671218,100.882031 323.671218,100.882031 C323.671218,100.882031 321.55572,99.9414062 322.495941,97.1195312 C323.201107,94.2976562 325.08155,94.2976562 326.491882,94.2976562 C328.137269,94.0625 330.487823,94.7679687 330.487823,94.7679687 Z" id="Path" fill="#FFB286"></path>
                        <path d="M292.408856,252.557812 L44.1904059,252.557812 C26.3261993,252.557812 13.1630996,235.626563 17.3940959,218.225 L26.5612546,181.305469 C31.7324723,160.376563 46.3059041,142.975 65.8154982,134.039063 L98.0180812,119.224219 C102.249077,117.342969 106.950185,116.167188 111.651292,116.167188 C165.008856,116.167188 292.173801,116.167188 292.173801,116.167188 C292.643911,116.167188 292.878967,116.402344 292.878967,116.872656 L292.878967,251.617187 C293.114022,252.0875 292.878967,252.557812 292.408856,252.557812 Z" id="Path" fill="#0089CE"></path>
                        <polygon id="Path" fill="#1D1D1B" points="614.199631 252.557812 100.368635 252.557812 100.368635 145.091406 608.558303 145.091406 617.725461 220.341406"></polygon>
                        <g id="Group" transform="translate(251.509225, 174.015625)">
                            <path d="M64.8752768,113.110156 L37.8439114,113.110156 C17.6291513,113.110156 1.4103321,96.884375 1.4103321,76.6609375 L1.4103321,37.625 C1.4103321,17.4015625 17.6291513,1.17578125 37.8439114,1.17578125 L64.8752768,1.17578125 L64.8752768,113.110156 Z" id="Path" fill="#1D1D1B"></path>
                            <path d="M95.197417,57.1429688 C95.197417,87.9484375 81.5642066,113.110156 64.6402214,113.110156 C47.7162362,113.110156 34.0830258,87.9484375 34.0830258,57.1429688 C34.0830258,26.3375 47.7162362,1.17578125 64.6402214,1.17578125 C81.799262,1.17578125 95.197417,26.3375 95.197417,57.1429688 Z" id="Path" fill="#272C3B"></path>
                            <path d="M86.9704797,57.1429687 C86.9704797,80.1882813 77.098155,99.0007813 64.8752768,99.0007813 C52.6523985,99.0007813 42.7800738,80.1882813 42.7800738,57.1429687 C42.7800738,34.0976562 52.6523985,15.2851562 64.8752768,15.2851562 C77.098155,15.2851562 86.9704797,34.0976562 86.9704797,57.1429687 Z" id="Path" fill="#CCCCCC"></path>
                            <path d="M84.6199262,57.1429687 C84.6199262,79.0125 75.6878229,97.1195312 64.6402214,97.1195312 C64.1701107,97.1195312 63.7,97.1195312 63.2298893,97.1195312 C52.8874539,95.7085937 44.6605166,78.3070312 44.6605166,57.378125 C44.6605166,36.4492187 52.8874539,19.0476562 63.2298893,17.6367187 C63.7,17.6367187 64.1701107,17.6367187 64.6402214,17.6367187 C75.9228782,17.4015625 84.6199262,35.2734375 84.6199262,57.1429687 Z" id="Path" fill="#A0A0A0"></path>
                            <path d="M81.799262,57.1429687 C81.799262,78.071875 73.8073801,95.4734375 63.4649446,96.884375 C53.1225092,95.4734375 44.895572,78.071875 44.895572,57.1429687 C44.895572,36.2140625 53.1225092,18.8125 63.4649446,17.4015625 C73.5723247,19.0476562 81.799262,36.2140625 81.799262,57.1429687 Z" id="Path" fill="#878B8C"></path>
                            <g transform="translate(44.660517, 21.164062)" fill="#272C3B" id="Path">
                                <path d="M18.099262,35.9789063 C18.099262,39.7414062 16.4538745,43.0335938 14.5734317,43.0335938 C12.6929889,43.0335938 11.0476015,39.9765625 11.0476015,35.9789063 C11.0476015,32.2164063 12.6929889,28.9242188 14.5734317,28.9242188 C16.6889299,29.159375 18.099262,32.2164062 18.099262,35.9789063 Z"></path>
                                <path d="M27.9715867,12.6984375 C27.9715867,14.3445312 26.79631,16.93125 25.1509225,19.2828125 C22.5653137,23.0453125 18.804428,26.3375 16.6889299,25.396875 C14.103321,24.2210938 14.5734317,11.0523438 17.1590406,4.703125 C18.099262,2.58671875 19.0394834,1.17578125 20.4498155,1.4109375 C23.9756458,1.88125 27.501476,6.81953125 27.9715867,12.6984375 Z"></path>
                                <path d="M34.0830258,34.3328125 C33.6129151,35.2734375 30.3221402,35.9789062 27.2664207,35.74375 C24.9158672,35.5085937 22.5653137,35.0382812 21.6250923,33.3921875 C20.4498155,31.2757812 23.0354244,26.1023437 25.8560886,22.8101562 C27.501476,20.9289062 29.3819188,19.5179687 30.5571956,20.2234375 C34.3180812,22.1046875 35.4933579,32.2164062 34.0830258,34.3328125 Z"></path>
                                <path d="M10.8125461,29.159375 C8.93210332,31.7460937 6.58154982,29.6296875 4.93616236,25.8671875 C2.82066421,21.1640625 5.87638376,9.17109375 9.16715867,10.346875 C11.7527675,11.5226563 12.6929889,26.5726563 10.8125461,29.159375 Z"></path>
                                <path d="M27.2664207,60.9054688 C27.0313653,66.784375 23.5055351,71.7226562 19.5095941,72.1929688 C18.099262,72.428125 16.9239852,70.546875 15.9837638,68.1953125 C13.6332103,61.6109375 13.398155,49.3828125 15.9837638,48.2070313 C18.099262,47.2664063 21.8601476,50.79375 24.4457565,54.55625 C26.0911439,56.6726562 27.501476,59.259375 27.2664207,60.9054688 Z"></path>
                                <path d="M30.3221402,54.0859375 C29.1468635,54.7914063 27.0313653,53.3804687 25.3859779,51.2640625 C22.800369,47.971875 20.4498155,42.7984375 21.6250923,40.6820313 C22.3302583,39.2710938 24.6808118,38.565625 27.2664207,38.3304688 C30.3221402,38.3304688 33.6129151,39.0359375 34.0830258,39.9765625 C35.4933579,42.328125 34.0830258,52.2046875 30.3221402,54.0859375 Z"></path>
                                <path d="M9.16715867,62.5515625 C5.87638376,63.7273437 2.82066421,51.734375 4.93616236,47.03125 C6.58154982,43.26875 8.93210332,41.1523437 10.8125461,43.7390625 C12.6929889,46.090625 11.9878229,61.3757812 9.16715867,62.5515625 Z"></path>
                                <path d="M8.69704797,39.0359375 C8.22693727,40.2117187 3.76088561,42.328125 2.82066421,41.1523437 C1.8804428,39.9765625 1.4103321,32.6867188 2.58560886,31.040625 C3.52583026,29.8648437 7.99188192,32.4515625 8.46199262,34.3328125 C9.40221402,35.9789063 9.16715867,37.8601562 8.69704797,39.0359375 Z"></path>
                            </g>
                            <path d="M47.7162362,62.08125 C46.7760148,60.9054687 46.3059041,53.615625 47.4811808,51.9695312 C48.4214022,50.79375 52.8874539,53.3804687 53.3575646,55.2617187 C54.0627306,57.1429688 53.8276753,58.7890625 53.3575646,60.2 C52.8874539,61.3757812 48.6564576,63.4921875 47.7162362,62.08125 Z" id="Path" fill="#1D1D1B"></path>
                            <path d="M49.596679,47.03125 C47.4811808,42.328125 50.5369004,30.3351563 53.8276753,31.5109375 C56.6483395,32.4515625 57.3535055,47.7367188 55.4730627,50.3234375 C53.5926199,52.9101562 51.0070111,50.79375 49.596679,47.03125 Z" id="Path" fill="#1D1D1B"></path>
                            <path d="M55.4730627,64.903125 C57.3535055,67.4898437 56.4132841,82.5398437 53.8276753,83.715625 C50.5369004,84.8914062 47.4811808,72.8984375 49.596679,68.1953125 C51.2420664,64.4328125 53.8276753,62.3164062 55.4730627,64.903125 Z" id="Path" fill="#1D1D1B"></path>
                            <path d="M59.4690037,64.1976563 C57.5885609,64.1976563 55.9431734,61.140625 55.9431734,57.1429688 C55.9431734,53.3804688 57.5885609,50.0882813 59.4690037,50.0882813 C61.3494465,50.0882813 62.9948339,53.1453125 62.9948339,57.1429688 C62.7597786,61.140625 61.3494465,64.1976563 59.4690037,64.1976563 Z" id="Path" fill="#1D1D1B"></path>
                            <path d="M61.5845018,64.1976563 C59.704059,64.1976563 58.0586716,61.140625 58.0586716,57.1429688 C58.0586716,53.3804688 59.704059,50.0882813 61.5845018,50.0882813 C63.4649446,50.0882813 65.1103321,53.1453125 65.1103321,57.1429688 C65.1103321,61.140625 63.4649446,64.1976563 61.5845018,64.1976563 Z" id="Path" fill="#CCCCCC"></path>
                            <path d="M69.1062731,75.4851562 C67.2258303,81.5992187 64.1701107,86.3023437 60.6442804,89.1242187 C58.2937269,82.5398437 58.0586716,70.3117187 60.6442804,69.1359375 C62.7597786,68.1953125 66.5206642,71.7226562 69.1062731,75.4851562 Z" id="Path" fill="#1D1D1B"></path>
                            <path d="M61.8195572,26.1023437 C65.1103321,29.159375 67.9309963,34.3328125 69.8114391,40.6820312 C67.2258303,44.4445312 63.4649446,47.7367187 61.3494465,46.7960937 C58.7638376,45.6203125 59.2339483,32.4515625 61.8195572,26.1023437 Z" id="Path" fill="#1D1D1B"></path>
                            <path d="M71.9269373,59.4945313 C71.6918819,63.9625 71.2217712,68.4304688 70.0464945,72.1929688 C67.4608856,68.9007813 65.1103321,63.7273438 66.2856089,61.6109375 C67.2258303,60.2 69.5763838,59.7296875 71.9269373,59.4945313 Z" id="Path" fill="#1D1D1B"></path>
                            <path d="M70.5166052,43.9742187 C71.4568266,47.971875 71.9269373,52.4398437 71.9269373,56.9078125 C69.5763838,56.6726562 67.2258303,56.2023437 66.2856089,54.55625 C65.3453875,52.4398438 67.695941,47.2664062 70.5166052,43.9742187 Z" id="Path" fill="#1D1D1B"></path>
                            <path d="M61.5845018,62.3164062 C60.4092251,62.3164062 59.2339483,59.9648437 59.2339483,57.1429688 C59.2339483,54.3210938 60.1741697,52.2046875 61.5845018,52.2046875 C62.7597786,52.2046875 63.9350554,54.55625 63.9350554,57.1429688 C63.9350554,59.9648437 62.7597786,62.3164062 61.5845018,62.3164062 Z" id="Path" fill="#878B8C"></path>
                        </g>
                        <path d="M384.315498,157.789844 L379.379336,155.438281 C379.849446,154.497656 389.486716,133.56875 409.466421,110.053125 C420.749077,96.884375 432.971956,89.359375 433.442066,89.1242187 L436.262731,93.8273437 C436.027675,93.8273437 424.274908,101.117187 413.462362,113.580469 C394.187823,136.390625 384.550554,157.554687 384.315498,157.789844 Z" id="Path" fill="#538CA6"></path>
                        <path d="M122.463838,175.191406 L95.4324723,175.191406 C75.2177122,175.191406 58.998893,191.417188 58.998893,211.640625 L58.998893,250.911719 C58.998893,271.135156 75.4527675,287.360937 95.4324723,287.360937 L122.463838,287.360937 C139.387823,287.360937 153.021033,262.199219 153.021033,231.39375 C153.021033,200.353125 139.387823,175.191406 122.463838,175.191406 Z" id="Path" fill="#4B4F69"></path>
                        <g id="Group" transform="translate(512.420664, 174.015625)">
                            <path d="M63.4649446,113.110156 L36.4335793,113.110156 C16.2188192,113.110156 0,96.884375 0,76.6609375 L0,37.625 C0,17.4015625 16.2188192,1.17578125 36.4335793,1.17578125 L63.4649446,1.17578125 L63.4649446,113.110156 Z" id="Path" fill="#1D1D1B"></path>
                            <path d="M93.7870849,57.1429688 C93.7870849,87.9484375 80.1538745,113.110156 63.2298893,113.110156 C46.3059041,113.110156 32.6726937,87.9484375 32.6726937,57.1429688 C32.6726937,26.3375 46.3059041,1.17578125 63.2298893,1.17578125 C80.3889299,1.17578125 93.7870849,26.3375 93.7870849,57.1429688 Z" id="Path" fill="#272C3B"></path>
                            <path d="M85.5601476,57.1429687 C85.5601476,80.1882813 75.6878229,99.0007813 63.4649446,99.0007813 C51.2420664,99.0007813 41.3697417,80.1882813 41.3697417,57.1429687 C41.3697417,34.0976562 51.2420664,15.2851562 63.4649446,15.2851562 C75.6878229,15.2851562 85.5601476,34.0976562 85.5601476,57.1429687 Z" id="Path" fill="#CCCCCC"></path>
                            <path d="M83.2095941,57.1429687 C83.2095941,79.0125 74.2774908,97.1195312 63.2298893,97.1195312 C62.7597786,97.1195312 62.2896679,97.1195312 61.8195572,97.1195312 C51.4771218,95.7085937 43.2501845,78.3070312 43.2501845,57.378125 C43.2501845,36.4492187 51.4771218,19.0476562 61.8195572,17.6367187 C62.2896679,17.6367187 62.7597786,17.6367187 63.2298893,17.6367187 C74.5125461,17.4015625 83.2095941,35.2734375 83.2095941,57.1429687 Z" id="Path" fill="#A0A0A0"></path>
                            <path d="M80.3889299,57.1429687 C80.3889299,78.071875 72.397048,95.4734375 62.0546125,96.884375 C51.7121771,95.4734375 43.4852399,78.071875 43.4852399,57.1429687 C43.4852399,36.2140625 51.7121771,18.8125 62.0546125,17.4015625 C72.1619926,19.0476562 80.3889299,36.2140625 80.3889299,57.1429687 Z" id="Path" fill="#878B8C"></path>
                            <g transform="translate(44.660517, 21.164062)" fill="#272C3B" id="Path">
                                <path d="M16.6889299,35.9789063 C16.6889299,39.7414062 15.0435424,43.0335938 13.1630996,43.0335938 C11.2826568,43.0335938 9.63726937,39.9765625 9.63726937,35.9789063 C9.63726937,32.2164063 11.2826568,28.9242188 13.1630996,28.9242188 C15.2785978,29.159375 16.6889299,32.2164062 16.6889299,35.9789063 Z"></path>
                                <path d="M26.5612546,12.6984375 C26.5612546,14.3445312 25.3859779,16.93125 23.7405904,19.2828125 C21.1549815,23.0453125 17.3940959,26.3375 15.2785978,25.396875 C12.6929889,24.2210938 13.1630996,11.0523438 15.7487085,4.703125 C16.6889299,2.58671875 17.6291513,1.17578125 19.0394834,1.4109375 C22.5653137,1.88125 26.0911439,6.81953125 26.5612546,12.6984375 Z"></path>
                                <path d="M32.6726937,34.3328125 C32.202583,35.2734375 28.9118081,35.9789062 25.8560886,35.74375 C23.5055351,35.5085937 21.1549815,35.0382812 20.2147601,33.3921875 C19.0394834,31.2757812 21.6250923,26.1023437 24.4457565,22.8101562 C26.0911439,20.9289062 27.9715867,19.5179687 29.1468635,20.2234375 C32.9077491,22.1046875 34.0830258,32.2164062 32.6726937,34.3328125 Z"></path>
                                <path d="M9.40221402,29.159375 C7.52177122,31.7460937 5.17121771,29.6296875 3.52583026,25.8671875 C1.4103321,21.1640625 4.46605166,9.17109375 7.75682657,10.346875 C10.3424354,11.5226563 11.2826568,26.5726563 9.40221402,29.159375 Z"></path>
                                <path d="M25.8560886,60.9054688 C25.6210332,66.784375 22.095203,71.7226562 18.099262,72.1929688 C16.6889299,72.428125 15.5136531,70.546875 14.5734317,68.1953125 C12.2228782,61.6109375 11.9878229,49.3828125 14.5734317,48.2070313 C16.6889299,47.2664063 20.4498155,50.79375 23.0354244,54.55625 C24.6808118,56.6726562 25.8560886,59.259375 25.8560886,60.9054688 Z"></path>
                                <path d="M28.9118081,54.0859375 C27.7365314,54.7914063 25.6210332,53.3804687 23.9756458,51.2640625 C21.3900369,47.971875 19.0394834,42.7984375 20.2147601,40.6820313 C20.9199262,39.2710938 23.2704797,38.565625 25.8560886,38.3304688 C28.9118081,38.3304688 32.202583,39.0359375 32.6726937,39.9765625 C34.0830258,42.328125 32.6726937,52.2046875 28.9118081,54.0859375 Z"></path>
                                <path d="M7.75682657,62.5515625 C4.46605166,63.7273437 1.4103321,51.734375 3.52583026,47.03125 C5.17121771,43.26875 7.52177122,41.1523437 9.40221402,43.7390625 C11.2826568,46.090625 10.5774908,61.3757812 7.75682657,62.5515625 Z"></path>
                                <path d="M7.28671587,39.0359375 C6.81660517,40.2117187 2.35055351,42.328125 1.4103321,41.1523437 C0.470110701,39.9765625 5.55111512e-17,32.6867188 1.17527675,31.040625 C2.11549815,29.8648437 6.58154982,32.4515625 7.05166052,34.3328125 C7.99188192,35.9789063 7.75682657,37.8601562 7.28671587,39.0359375 Z"></path>
                            </g>
                            <path d="M46.3059041,62.08125 C45.3656827,60.9054687 44.895572,53.615625 46.0708487,51.9695312 C47.0110701,50.79375 51.4771218,53.3804687 51.9472325,55.2617187 C52.6523985,57.1429688 52.4173432,58.7890625 51.9472325,60.2 C51.4771218,61.3757812 47.2461255,63.4921875 46.3059041,62.08125 Z" id="Path" fill="#1D1D1B"></path>
                            <path d="M48.1863469,47.03125 C46.0708487,42.328125 49.1265683,30.3351563 52.4173432,31.5109375 C55.2380074,32.4515625 55.9431734,47.7367188 54.0627306,50.3234375 C52.1822878,52.9101562 49.596679,50.79375 48.1863469,47.03125 Z" id="Path" fill="#1D1D1B"></path>
                            <path d="M54.0627306,64.903125 C55.9431734,67.4898437 55.002952,82.5398437 52.4173432,83.715625 C49.1265683,84.8914062 46.0708487,72.8984375 48.1863469,68.1953125 C49.8317343,64.4328125 52.1822878,62.3164062 54.0627306,64.903125 Z" id="Path" fill="#1D1D1B"></path>
                            <path d="M58.0586716,64.1976563 C56.1782288,64.1976563 54.5328413,61.140625 54.5328413,57.1429688 C54.5328413,53.3804688 56.1782288,50.0882813 58.0586716,50.0882813 C59.9391144,50.0882813 61.5845018,53.1453125 61.5845018,57.1429688 C61.3494465,61.140625 59.9391144,64.1976563 58.0586716,64.1976563 Z" id="Path" fill="#1D1D1B"></path>
                            <path d="M60.1741697,64.1976563 C58.2937269,64.1976563 56.6483395,61.140625 56.6483395,57.1429688 C56.6483395,53.3804688 58.2937269,50.0882813 60.1741697,50.0882813 C62.0546125,50.0882813 63.7,53.1453125 63.7,57.1429688 C63.7,61.140625 62.0546125,64.1976563 60.1741697,64.1976563 Z" id="Path" fill="#CCCCCC"></path>
                            <path d="M67.695941,75.4851562 C65.8154982,81.5992187 62.7597786,86.3023437 59.2339483,89.1242187 C56.8833948,82.5398437 56.6483395,70.3117187 59.2339483,69.1359375 C61.3494465,68.1953125 65.1103321,71.7226562 67.695941,75.4851562 Z" id="Path" fill="#1D1D1B"></path>
                            <path d="M60.4092251,26.1023437 C63.7,29.159375 66.5206642,34.3328125 68.401107,40.6820312 C65.8154982,44.4445312 62.0546125,47.7367187 59.9391144,46.7960937 C57.3535055,45.6203125 57.8236162,32.4515625 60.4092251,26.1023437 Z" id="Path" fill="#1D1D1B"></path>
                            <path d="M70.5166052,59.4945313 C70.2815498,63.9625 69.8114391,68.4304688 68.6361624,72.1929688 C66.0505535,68.9007813 63.7,63.7273438 64.8752768,61.6109375 C65.8154982,60.2 68.1660517,59.7296875 70.5166052,59.4945313 Z" id="Path" fill="#1D1D1B"></path>
                            <path d="M69.1062731,43.9742187 C70.0464945,47.971875 70.5166052,52.4398437 70.5166052,56.9078125 C68.1660517,56.6726562 65.8154982,56.2023437 64.8752768,54.55625 C63.9350554,52.4398438 66.2856089,47.2664062 69.1062731,43.9742187 Z" id="Path" fill="#1D1D1B"></path>
                            <path d="M60.1741697,62.3164062 C58.998893,62.3164062 57.8236162,59.9648437 57.8236162,57.1429688 C57.8236162,54.3210938 58.7638376,52.2046875 60.1741697,52.2046875 C61.3494465,52.2046875 62.5247232,54.55625 62.5247232,57.1429688 C62.5247232,59.9648437 61.3494465,62.3164062 60.1741697,62.3164062 Z" id="Path" fill="#878B8C"></path>
                        </g>
                        <path d="M632.063838,191.8875 L632.063838,227.396094 C632.063838,239.624219 626.657565,248.325 615.139852,250.441406 C615.845018,229.042187 612.789299,150.735156 571.654613,157.789844 C571.184502,157.789844 570.714391,158.025 570.479336,158.025 C527.464207,166.960937 532.87048,234.921094 534.750923,252.322656 L359.164576,252.322656 L359.164576,252.322656 C361.515129,205.996875 354.228413,149.089062 316.619557,149.089062 C265.612546,149.089062 265.612546,236.332031 266.082657,251.852344 C266.082657,252.0875 266.082657,252.0875 266.082657,252.0875 L59.704059,249.500781 C45.8357934,249.500781 34.3180812,240.8 34.3180812,226.925781 L34.3180812,221.517187 C34.3180812,209.524219 36.4335793,197.766406 40.1944649,186.949219 C40.6645756,185.538281 41.1346863,184.127344 41.8398524,182.716406 C48.6564576,165.55 59.704059,150.735156 73.8073801,139.2125 C74.9826568,138.271875 76.3929889,137.33125 77.5682657,136.390625 C95.197417,123.457031 147.61476,115.696875 171.120295,115.696875 L556.846125,115.696875 C598.215867,116.402344 632.063838,150.264844 632.063838,191.8875 Z" id="Path" fill="#0089CE"></path>
                        <path d="M430.856458,116.402344 L430.856458,252.557813 L356.343911,252.557813 C356.343911,252.557813 356.343911,252.322656 356.343911,252.322656 C356.343911,250.911719 356.343911,249.265625 356.343911,247.854688 C356.343911,234.921094 355.40369,222.692969 353.758303,211.640625 C348.587085,179.659375 336.129151,157.554688 315.914391,157.554688 C295.934686,157.554688 283.241697,179.894531 278.07048,211.640625 C276.190037,222.692969 275.484871,234.921094 275.484871,247.854688 L275.484871,247.854688 C275.484871,249.971094 274.309594,251.617188 272.429151,252.322656 C272.194096,252.557813 271.959041,252.557813 271.48893,252.557813 L268.198155,252.557813 C267.022878,252.557813 266.082657,252.557813 264.90738,252.322656 C252.684502,250.676563 243.282288,240.329688 243.282288,227.63125 L243.282288,222.222656 C243.282288,210.229688 245.397786,198.471875 249.158672,187.654688 C249.628782,186.24375 250.098893,184.832813 250.804059,183.421875 C257.620664,166.255469 268.668266,151.440625 282.771587,139.917969 C283.946863,138.977344 285.357196,138.036719 286.532472,137.096094 C304.161624,124.1625 356.578967,116.402344 380.084502,116.402344 L430.856458,116.402344 L430.856458,116.402344 Z" id="Path" fill="#0571AD"></path>
                        <path d="M632.063838,158.025 L632.063838,227.63125 C632.063838,239.859375 626.657565,248.560156 615.139852,250.676562 C615.609963,240.094531 614.904797,215.638281 609.263469,194.239062 C603.387085,172.604687 592.339483,154.497656 571.654613,157.789844 C566.483395,152.38125 584.582657,149.089062 577.060886,149.089062 C525.583764,149.089062 526.053875,237.742969 526.523985,252.322656 L367.861624,252.322656 L367.861624,116.167187 L614.904797,107.701562 C622.426568,107.701562 632.063838,124.1625 632.063838,158.025 Z" id="Path" fill="#0571AD"></path>
                        <path d="M633.47417,194.239062 L633.47417,227.396094 C633.47417,239.624219 626.657565,248.325 614.904797,250.441406 C615.374908,239.859375 614.669742,215.403125 609.028413,194.003906 L633.47417,194.003906 L633.47417,194.239062 Z" id="Path" fill="#272C3B"></path>
                        <path d="M617.960517,236.096875 C617.960517,240.564844 617.725461,245.032813 617.490406,249.265625 C617.255351,251.146875 615.845018,252.557813 613.964576,252.557813 L613.964576,251.382031 C613.964576,200.117969 601.976753,158.730469 575.415498,158.730469 C546.973801,158.730469 537.101476,200.353125 537.101476,251.382031 C537.101476,252.322656 536.39631,253.028125 535.456089,253.028125 L518.767159,252.792969 C518.297048,247.619531 519.70738,241.505469 519.70738,236.096875 C519.70738,185.067969 541.802583,143.915625 568.833948,143.915625 C602.446863,143.915625 617.960517,185.067969 617.960517,236.096875 Z" id="Path" fill="#0089CE"></path>
                        <path d="M452.011439,116.6375 C452.011439,116.402344 451.776384,113.580469 451.776384,113.580469 L450.366052,113.580469 C450.366052,113.815625 450.601107,116.6375 450.601107,116.872656 C451.541328,131.922656 451.776384,147.207812 451.776384,162.492969 C451.776384,183.421875 451.071218,204.350781 449.42583,224.574219 C448.95572,231.158594 443.314391,236.332031 436.732841,236.332031 L384.550554,236.332031 C383.375277,236.332031 382.2,235.861719 381.259779,234.921094 C380.319557,233.980469 379.849446,232.804687 379.849446,231.628906 C379.849446,217.284375 378.439114,181.775781 363.865683,159.90625 C360.104797,154.027344 357.989299,147.442969 357.754244,140.623438 C357.519188,132.628125 357.284133,124.632813 356.814022,116.6375 C356.814022,116.402344 356.814022,116.167188 356.814022,115.932031 L355.40369,115.932031 C355.40369,116.167188 355.40369,116.402344 355.40369,116.6375 C355.873801,124.632813 356.108856,132.628125 356.343911,140.623438 C356.578967,147.678125 358.694465,154.732813 362.690406,160.846875 C377.028782,182.48125 378.439114,217.754687 378.439114,231.864062 C378.439114,233.510156 379.14428,235.15625 380.319557,236.332031 C381.494834,237.507812 383.140221,238.213281 384.785609,238.213281 L436.967897,238.213281 C444.489668,238.213281 450.601107,232.334375 451.306273,225.044531 C452.951661,204.821094 453.656827,183.892188 453.656827,162.728125 C453.421771,146.972656 452.951661,131.6875 452.011439,116.6375 Z" id="Path" fill="#0058A0"></path>
                        <path d="M443.079336,134.039062 C443.079336,135.45 442.37417,136.860937 441.433948,137.801562 C440.493727,138.742187 439.083395,139.447656 437.673063,139.447656 L424.039852,139.447656 C421.219188,139.447656 418.868635,137.096094 418.868635,134.274219 C418.868635,134.274219 418.868635,134.039062 418.868635,134.039062 C418.868635,132.628125 419.573801,131.452344 420.278967,130.511719 C421.219188,129.571094 422.62952,128.865625 424.039852,128.865625 L437.673063,128.865625 C440.728782,128.865625 442.84428,130.982031 443.079336,134.039062 C443.079336,134.039062 443.079336,134.039062 443.079336,134.039062 Z" id="Path" fill="#0058A0"></path>
                        <path d="M443.079336,133.803906 L418.868635,133.803906 C418.868635,132.392969 419.573801,131.217187 420.278967,130.276562 C421.219188,129.335938 422.62952,128.630469 424.039852,128.630469 L437.673063,128.630469 C440.728782,128.865625 442.84428,130.982031 443.079336,133.803906 Z" id="Path" fill="#F45876"></path>
                        <path d="M539.92214,134.039062 C539.92214,135.45 539.216974,136.860937 538.276753,137.801562 C537.336531,138.742187 535.926199,139.447656 534.515867,139.447656 L520.882657,139.447656 C518.061993,139.447656 515.711439,137.096094 515.711439,134.274219 C515.711439,134.274219 515.711439,134.039062 515.711439,134.039062 C515.711439,132.628125 516.416605,131.452344 517.121771,130.511719 C518.061993,129.571094 519.472325,128.865625 520.882657,128.865625 L534.515867,128.865625 C537.571587,128.865625 539.92214,130.982031 539.92214,134.039062 C539.92214,134.039062 539.92214,134.039062 539.92214,134.039062 Z" id="Path" fill="#0058A0"></path>
                        <path d="M539.92214,133.803906 L515.711439,133.803906 C515.711439,132.392969 516.416605,131.217187 517.121771,130.276562 C518.061993,129.335938 519.472325,128.630469 520.882657,128.630469 L534.515867,128.630469 C537.571587,128.865625 539.92214,130.982031 539.92214,133.803906 Z" id="Path" fill="#0089CE"></path>
                        <path d="M340.595203,125.103125 L324.141328,125.103125 C321.320664,125.103125 318.970111,122.751563 318.970111,119.929688 C318.970111,117.107812 321.320664,114.75625 324.141328,114.75625 L340.595203,114.75625 C343.415867,114.75625 345.766421,117.107812 345.766421,119.929688 C345.766421,122.751563 343.415867,125.103125 340.595203,125.103125 Z" id="Path" fill="#272C3B"></path>
                        <path d="M265.377491,252.557812 L15.7487085,252.557812 C7.75682657,252.557812 1.4103321,246.208594 1.4103321,238.213281 L1.4103321,225.985156 C1.4103321,217.989844 7.75682657,211.640625 15.7487085,211.640625 L265.377491,211.640625 L265.377491,252.557812 Z" id="Path" fill="#272C3B"></path>
                        <path d="M278.305535,211.405469 C276.425092,222.457812 275.719926,234.685938 275.719926,247.619531 L275.719926,247.619531 C275.719926,249.735938 274.544649,251.382031 272.664207,252.0875 L244.927675,252.0875 C236.230627,252.0875 229.178967,245.032813 229.178967,236.332031 L229.178967,226.925781 C229.178967,218.225 236.230627,211.170313 244.927675,211.170313 L278.305535,211.405469 Z" id="Path" fill="#1D1D1B"></path>
                        <path d="M342.24059,127.689844 L360.104797,127.689844 C369.507011,127.689844 377.263838,119.929687 377.263838,110.523437 C377.263838,104.644531 372.562731,99.9414062 366.686347,99.9414062 L348.82214,99.9414062 C340.360148,99.9414062 333.308487,106.996094 333.308487,115.461719 L333.308487,118.753906 C333.308487,123.692187 337.304428,127.689844 342.24059,127.689844 Z" id="Path" fill="#272C3B"></path>
                        <path d="M365.51107,231.39375 C365.51107,236.802344 365.276015,242.210938 364.805904,247.384375 C364.570849,249.735938 363.160517,251.617188 361.045018,252.322656 C360.809963,252.557813 360.339852,252.557813 360.104797,252.557813 C359.869742,252.557813 359.399631,252.557813 359.164576,252.557813 L356.578967,252.557813 L356.578967,252.557813 C356.578967,252.557813 356.578967,252.322656 356.578967,252.322656 C356.578967,250.911719 356.578967,249.265625 356.578967,247.854688 C356.578967,234.921094 355.638745,222.692969 353.993358,211.640625 C348.82214,179.659375 336.364207,157.554688 316.149446,157.554688 C296.169742,157.554688 283.476753,179.894531 278.305535,211.640625 C276.425092,222.692969 275.719926,234.921094 275.719926,247.854688 L275.719926,247.854688 C275.719926,249.971094 274.544649,251.617188 272.664207,252.322656 C272.429151,252.557813 272.194096,252.557813 271.723985,252.557813 C271.48893,252.557813 271.018819,252.557813 270.783764,252.557813 L265.142435,252.557813 C265.142435,252.557813 265.142435,252.322656 265.142435,252.322656 L265.142435,252.322656 C264.202214,245.503125 263.732103,238.683594 263.732103,231.39375 C263.732103,224.574219 264.202214,217.989844 264.90738,211.640625 C269.843542,170.017969 290.293358,138.742188 314.504059,138.742188 C338.949815,138.742188 359.164576,170.017969 364.100738,211.640625 C365.276015,217.754687 365.51107,224.574219 365.51107,231.39375 Z" id="Path" fill="#0089CE"></path>
                        <path d="M71.4568266,156.378906 L68.8712177,167.43125 L64.6402214,185.303125 C63.9350554,188.830469 60.6442804,191.417187 57.1184502,191.417187 L50.0667897,191.417187 C46.5409594,191.417187 43.7202952,188.830469 43.0151292,185.538281 C42.7800738,184.597656 42.7800738,183.657031 43.0151292,182.716406 L49.8317343,153.792187 C50.7719557,150.264844 53.8276753,147.678125 57.3535055,147.678125 L64.4051661,147.678125 C69.3413284,147.678125 72.6321033,151.910937 71.4568266,156.378906 Z" id="Path" fill="#FFFFFF"></path>
                        <path d="M180.99262,169.547656 L173.470849,199.177344 C172.530627,202.704687 169.709963,205.291406 166.654244,205.291406 L90.7313653,205.291406 C86.7354244,205.291406 84.1498155,201.058594 85.3250923,196.355469 L92.8468635,166.725781 C93.7870849,163.198437 96.6077491,160.611719 99.6634686,160.611719 L175.586347,160.611719 C179.582288,160.611719 182.167897,165.079687 180.99262,169.547656 Z" id="Path" fill="#878B8C"></path>
                        <path d="M180.99262,169.547656 L173.470849,199.177344 C172.530627,202.704687 169.709963,205.291406 166.654244,205.291406 L97.3129151,205.291406 C93.3169742,205.291406 90.7313653,201.058594 91.9066421,196.355469 L99.4284133,166.725781 C100.368635,163.198437 103.189299,160.611719 106.245018,160.611719 L175.586347,160.611719 C179.582288,160.611719 182.167897,165.079687 180.99262,169.547656 Z" id="Path" fill="#272C3B"></path>
                        <path d="M166.654244,207.172656 L90.7313653,207.172656 C88.6158672,207.172656 86.500369,206.232031 85.0900369,204.350781 C83.4446494,202.234375 82.7394834,198.942187 83.6797048,195.885156 L91.201476,166.255469 C92.3767528,161.7875 95.902583,158.730469 99.898524,158.730469 L175.821402,158.730469 C177.9369,158.730469 180.052399,159.671094 181.462731,161.552344 C183.108118,163.66875 183.813284,166.960938 182.873063,170.017969 L175.351292,199.647656 C174.176015,204.115625 170.415129,207.172656 166.654244,207.172656 Z M99.6634686,162.492969 C97.5479705,162.492969 95.4324723,164.609375 94.7273063,167.196094 L87.2055351,196.825781 C86.7354244,198.707031 86.9704797,200.823437 88.1457565,201.999219 C88.6158672,202.704687 89.5560886,203.410156 90.7313653,203.410156 L166.654244,203.410156 C168.769742,203.410156 170.88524,201.29375 171.590406,198.707031 L179.112177,169.077344 C179.582288,167.196094 179.347232,165.079687 178.171956,163.903906 C177.701845,163.198437 176.761624,162.492969 175.586347,162.492969 L99.6634686,162.492969 Z" id="Shape" fill="#DDDDDD"></path>
                        <path d="M546.738745,135.920312 C546.973801,138.977344 545.563469,141.799219 542.97786,143.680469 C537.101476,147.913281 522.528044,160.611719 514.771218,185.303125 C508.424723,205.526562 506.07417,220.811719 505.133948,229.982813 C504.663838,234.685938 500.902952,238.213281 495.96679,238.213281 L458.357934,238.213281 C455.772325,238.213281 453.421771,237.0375 451.776384,235.15625 C450.130996,233.275 449.190775,230.688281 449.42583,228.336719 L449.895941,224.103906 L451.306273,224.103906 L450.836162,228.571875 C450.601107,230.688281 451.306273,232.804688 452.716605,234.450781 C454.126937,236.096875 456.242435,236.802344 458.357934,236.802344 L496.4369,236.802344 C500.432841,236.802344 503.723616,233.745312 503.958672,229.982812 C504.898893,220.576562 507.249446,205.291406 513.595941,185.067969 C521.352768,160.846875 534.750923,148.148437 542.272694,142.739844 C544.388192,141.328906 545.563469,138.742187 545.328413,136.155469 L543.212915,110.053125 L544.623247,110.053125 L546.738745,135.920312 Z" id="Path" fill="#0058A0"></path>
                        <path d="M68.8712177,167.43125 L64.6402214,185.303125 C63.9350554,188.830469 60.6442804,191.417187 57.1184502,191.417187 L50.0667897,191.417187 C46.5409594,191.417187 43.7202952,188.830469 43.0151292,185.538281 L68.8712177,167.43125 Z" id="Path" fill="#D8D8D8"></path>
                        <path d="M57.3535055,193.063281 L50.301845,193.063281 C47.7162362,193.063281 45.1306273,192.122656 43.4852399,190.241406 C41.3697417,188.125 40.4295203,185.067969 41.1346863,182.010938 L47.9512915,153.086719 C48.8915129,148.853906 53.1225092,145.796875 57.5885609,145.561719 L64.6402214,145.561719 C67.2258303,145.561719 69.8114391,146.502344 71.4568266,148.383594 C73.5723247,150.5 74.5125461,153.557031 73.8073801,156.614062 L66.9907749,185.538281 C65.8154982,190.00625 61.8195572,193.063281 57.3535055,193.063281 Z M57.5885609,149.559375 C55.002952,149.559375 52.6523985,151.675781 51.9472325,154.2625 L45.1306273,183.186719 C44.6605166,185.067969 45.1306273,186.949219 46.5409594,188.360156 C47.2461255,189.065625 48.1863469,189.771094 49.8317343,189.771094 L56.8833948,189.771094 C59.4690037,189.771094 61.8195572,187.654687 62.5247232,185.067969 L69.3413284,156.14375 C69.8114391,154.2625 69.3413284,152.38125 67.9309963,150.970312 C67.2258303,150.264844 66.2856089,149.559375 64.6402214,149.559375 L57.5885609,149.559375 Z" id="Shape" fill="#272C3B"></path>
                        <path d="M237.640959,156.378906 L235.055351,167.43125 L230.824354,185.303125 C230.119188,188.830469 226.828413,191.417187 223.302583,191.417187 L216.250923,191.417187 C212.725092,191.417187 209.904428,188.830469 209.199262,185.538281 C208.964207,184.597656 208.964207,183.657031 209.199262,182.716406 L216.015867,153.792187 C216.956089,150.264844 220.011808,147.678125 223.537638,147.678125 L230.589299,147.678125 C235.525461,147.678125 238.816236,151.910937 237.640959,156.378906 Z" id="Path" fill="#FFFFFF"></path>
                        <path d="M235.055351,167.43125 L230.824354,185.303125 C230.119188,188.830469 226.828413,191.417187 223.302583,191.417187 L216.250923,191.417187 C212.725092,191.417187 209.904428,188.830469 209.199262,185.538281 L235.055351,167.43125 Z" id="Path" fill="#D8D8D8"></path>
                        <path d="M223.302583,193.063281 L216.250923,193.063281 C213.665314,193.063281 211.079705,192.122656 209.434317,190.241406 C207.318819,188.125 206.378598,185.067969 207.083764,182.010938 L213.900369,153.086719 C214.84059,148.853906 219.071587,145.796875 223.537638,145.561719 L230.589299,145.561719 C233.174908,145.561719 235.760517,146.502344 237.405904,148.383594 C239.521402,150.5 240.461624,153.557031 239.756458,156.614062 L232.939852,185.538281 C231.999631,190.00625 228.00369,193.063281 223.302583,193.063281 Z M223.772694,149.559375 C221.187085,149.559375 218.836531,151.675781 218.131365,154.2625 L211.31476,183.186719 C210.844649,185.067969 211.31476,186.949219 212.725092,188.360156 C213.430258,189.065625 214.37048,189.771094 216.015867,189.771094 L223.067528,189.771094 C225.653137,189.771094 228.00369,187.654687 228.708856,185.067969 L235.525461,156.14375 C235.995572,154.2625 235.525461,152.38125 234.115129,150.970312 C233.409963,150.264844 232.469742,149.559375 230.824354,149.559375 L223.772694,149.559375 Z" id="Shape" fill="#272C3B"></path>
                        <path d="M485.85941,252.322656 L507.014391,248.560156 C512.65572,247.619531 516.886716,243.151562 517.826937,237.507812 L521.117712,216.578906 L534.280812,252.792969 L485.85941,252.322656 Z" id="Path" fill="#0089CE"></path>
                        <g id="Group" transform="translate(385.490775, 14.109375)">
                            <path d="M8.22693727,21.634375 C7.99188192,24.45625 7.75682657,38.0953125 6.58154982,44.4445313 C5.40627306,51.0289062 5.87638376,63.9625 13.398155,68.665625 C20.9199262,73.36875 36.198524,72.8984375 42.3099631,67.2546875 C48.4214022,61.6109375 50.5369004,50.79375 51.0070111,39.7414062 C51.4771218,28.4539063 49.3616236,19.2828125 49.3616236,19.2828125 L12.6929889,15.7554688 L8.22693727,21.634375 Z" id="Path" fill="#FFB286"></path>
                            <path d="M14.5734317,56.9078125 L28.2066421,53.8507813 C28.2066421,53.8507813 27.9715867,62.3164062 22.800369,62.5515625 C17.6291513,62.7867188 14.5734317,56.9078125 14.5734317,56.9078125 Z" id="Path" fill="#FFFFFF"></path>
                            <path d="M13.6332103,27.5132813 C14.5734317,28.6890625 14.5734317,30.5703125 13.1630996,30.8054688 C11.7527675,31.040625 10.8125461,30.8054688 9.16715867,32.2164063 C7.75682657,33.6273437 7.52177122,35.74375 6.81660517,34.0976562 C5.87638376,32.4515625 6.34649446,31.040625 8.46199262,29.159375 C10.5774908,27.278125 12.9280443,26.3375 13.6332103,27.5132813 Z" id="Path" fill="#30170A"></path>
                            <path d="M24.6808118,29.3945312 C23.9756458,30.8054687 24.4457565,32.6867188 25.8560886,32.4515625 C27.2664207,32.4515625 28.2066421,31.98125 30.0870849,32.921875 C31.7324723,34.0976562 32.4376384,35.9789062 32.9077491,34.3328125 C33.3778598,32.6867187 32.9077491,31.2757812 30.3221402,29.8648437 C27.501476,28.21875 25.1509225,27.9835938 24.6808118,29.3945312 Z" id="Path" fill="#30170A"></path>
                            <path d="M26.5612546,35.5085937 C29.3819188,35.5085937 29.1468635,41.1523437 26.5612546,41.1523437 C23.9756458,41.1523437 23.7405904,35.5085937 26.5612546,35.5085937 Z" id="Path" fill="#000000"></path>
                            <path d="M12.4579336,35.5085937 C15.2785978,35.5085937 15.0435424,41.1523437 12.4579336,41.1523437 C10.1073801,41.3875 9.63726937,35.74375 12.4579336,35.5085937 Z" id="Path" fill="#000000"></path>
                            <path d="M27.501476,44.6796875 C25.1509225,47.03125 31.7324723,50.79375 34.3180812,47.971875 C37.1387454,45.3851562 29.3819188,42.5632812 27.501476,44.6796875 Z" id="Path" fill="#F9866B"></path>
                            <path d="M11.9878229,43.9742187 C14.8084871,45.3851562 9.40221402,49.3828125 7.28671587,48.2070312 C4.93616236,47.03125 8.46199262,42.328125 11.9878229,43.9742187 Z" id="Path" fill="#F9866B"></path>
                            <path d="M19.9797048,63.4921875 C19.9797048,63.4921875 22.3302583,63.9625 24.6808118,63.7273437 C27.2664207,63.4921875 28.2066421,61.3757812 28.2066421,61.3757812 C28.2066421,61.3757812 28.2066421,64.1976562 25.3859779,65.1382812 C22.3302583,66.0789062 19.9797048,63.4921875 19.9797048,63.4921875 Z" id="Path" fill="#FF9B6C"></path>
                            <path d="M19.7446494,48.2070312 C19.7446494,48.2070312 20.6848708,52.675 18.5693727,53.3804688 C16.4538745,54.0859375 16.2188192,50.79375 16.2188192,50.79375 L19.7446494,48.2070312 Z" id="Path" fill="#FF9B6C"></path>
                            <path d="M18.804428,39.0359375 C18.804428,39.0359375 19.2745387,45.15 17.3940959,46.090625 C15.5136531,47.03125 12.6929889,46.7960937 12.9280443,49.1476562 C13.1630996,51.4992187 14.8084871,53.1453125 17.8642066,51.9695312 C21.6250923,50.5585937 18.804428,39.0359375 18.804428,39.0359375 Z" id="Path" fill="#F9866B"></path>
                            <path d="M48.8915129,44.4445312 L45.1306273,45.3851563 C45.1306273,45.3851563 47.4811808,35.5085938 43.4852399,29.3945313 C39.4892989,23.2804688 32.9077491,20.9289063 32.9077491,20.9289063 C32.9077491,20.9289063 16.4538745,24.6914063 8.46199262,21.634375 C-3.05571956,17.1664063 2.82066421,2.11640625 2.82066421,2.11640625 C2.82066421,2.11640625 6.34649446,7.76015625 19.2745387,6.34921875 C29.1468635,5.1734375 35.9634686,1.64609375 43.2501845,4.93828125 C50.5369004,7.9953125 52.8874539,15.2851563 52.8874539,15.2851563 C52.8874539,15.2851563 54.0627306,15.5203125 55.9431734,23.7507813 C57.8236162,31.98125 51.9472325,42.5632813 51.9472325,42.5632813 L48.8915129,44.4445312 Z" id="Path" fill="#492612"></path>
                            <path d="M48.4214022,41.8578125 C48.4214022,41.8578125 50.301845,37.1546875 54.297786,38.8007812 C58.2937269,40.446875 54.297786,52.675 51.4771218,54.3210937 C48.6564576,55.9671875 46.3059041,53.8507812 46.3059041,53.8507812 L48.4214022,41.8578125 Z" id="Path" fill="#F9866B"></path>
                        </g>
                        <path d="M399.359041,114.75625 C399.359041,114.75625 397.948708,111.699219 393.952768,110.758594 C389.956827,109.817969 385.25572,110.99375 383.375277,112.404687 C381.494834,113.815625 380.319557,116.402344 380.319557,116.402344 C380.319557,116.402344 384.785609,116.872656 386.666052,117.813281 C388.546494,118.989062 389.486716,119.929688 391.132103,120.635156 C392.777491,121.340625 396.068266,121.340625 396.068266,121.340625 L399.359041,114.75625 Z" id="Path" fill="#FFB286"></path>
                        <path d="M440.258672,99.2359375 C447.780443,105.585156 452.011439,133.56875 446.840221,138.977344 C441.669004,144.621094 395.83321,125.808594 395.83321,125.808594 C395.83321,125.808594 395.3631,122.28125 396.538376,118.51875 C397.713653,114.991406 401.004428,112.169531 401.004428,112.169531 C401.004428,112.169531 431.326568,123.927344 433.207011,122.516406 C435.087454,121.105469 429.446125,106.525781 429.21107,102.998438 C428.505904,98.5304688 433.207011,93.121875 440.258672,99.2359375 Z" id="Path" fill="#08BA58"></path>
                    </g>
                    <path d="M633.239114,288.066406 C633.239114,291.358594 632.063838,294.180469 629.948339,296.296875 C627.832841,298.413281 625.012177,299.589062 621.721402,299.589062 L32.4376384,299.589062 C26.0911439,299.589062 20.9199262,294.415625 20.9199262,288.066406 C20.9199262,287.83125 20.9199262,287.596094 20.9199262,287.125781 L633.004059,287.125781 C633.239114,287.360937 633.239114,287.83125 633.239114,288.066406 Z" id="Shadow_1_" fill="#878B8C"></path>
                </g>
            </g>
        </g>
    </g>
</svg>