<svg id="Capa_1" data-name="Capa 1" xmlns="http://www.w3.org/2000/svg" viewBox="0 0 1870.28 642.54"><defs><style>.cls-1{fill:#eaeaea;}.cls-2,.cls-4{fill:none;stroke:#a61768;stroke-miterlimit:10;stroke-width:3px;}.cls-3{fill:#a61768;}.cls-4{stroke-linecap:round;}.cls-5{font-size:25px;fill:#3f3f3f;font-family:ArialMT, Arial;}.cls-6{font-size:115.18px;fill:#ff2389;font-family:Arial-BoldMT, Arial;font-weight:700;}</style></defs><title>Ejemplos</title><path class="cls-1" d="M48.21,114.18s0,399.77,52.52,455.21c0,0,35,32.1,124.5,10.7s130.34-54.47,141-80.73c18.85-46.26,23.53-94.62,28.63-143.91,5.48-52.95,9.14-106.4,12.38-159.36,1.17-19.13-7.33-39.4-18.86-54.17-15.53-19.9-38.39-32.58-62-40.37C268.57,82.47,211,66.83,150.23,60c-24.46-2.75-45.61-4.59-67.81,7.86C64.75,77.77,51.14,93.67,48.21,114.18Z"/><path class="cls-2" d="M280.84,87.67V68.37a21.49,21.49,0,0,0-28-20.49L37.25,116.11a21.49,21.49,0,0,0-15,22l26.26,384.4a21.49,21.49,0,0,0,23.6,19.92l250.26-25.26a21.49,21.49,0,0,0,18.43-15.22l23.95-80a21.49,21.49,0,0,1,21.53-15.31l25,1.1"/><path class="cls-3" d="M429.43,408.52c-8.65,2.78-19.45,7.71-26.24,13.13l5.78-14-4.53-14.48C410.73,399.13,421.05,405,429.43,408.52Z"/><path class="cls-1" d="M498.18,114.18s0,399.77,52.52,455.21c0,0,35,32.1,124.5,10.7s130.34-54.47,141-80.73c18.85-46.26,23.53-94.62,28.63-143.91,5.48-52.95,9.14-106.4,12.38-159.36,1.17-19.13-7.33-39.4-18.86-54.17-15.53-19.9-38.39-32.58-62-40.37C718.55,82.47,661,66.83,600.2,60c-24.46-2.75-45.61-4.59-67.81,7.86C514.72,77.77,501.11,93.67,498.18,114.18Z"/><path class="cls-2" d="M730.82,87.67V68.37a21.49,21.49,0,0,0-28-20.49L487.23,116.11a21.49,21.49,0,0,0-15,22l26.26,384.4a21.49,21.49,0,0,0,23.6,19.92l250.26-25.26a21.49,21.49,0,0,0,18.43-15.22l23.95-80a21.49,21.49,0,0,1,21.53-15.31l25,1.1"/><path class="cls-3" d="M879.4,408.52c-8.65,2.78-19.45,7.71-26.24,13.13l5.78-14-4.53-14.48C860.71,399.13,871,405,879.4,408.52Z"/><path class="cls-1" d="M952.66,114.18s0,399.77,52.52,455.21c0,0,35,32.1,124.5,10.7s130.34-54.47,141-80.73c18.85-46.26,23.53-94.62,28.63-143.91,5.48-52.95,9.14-106.4,12.38-159.36,1.17-19.13-7.33-39.4-18.86-54.17-15.53-19.9-38.39-32.58-62-40.37C1173,82.47,1115.49,66.83,1054.68,60c-24.46-2.75-45.61-4.59-67.81,7.86C969.2,77.77,955.59,93.67,952.66,114.18Z"/><path class="cls-2" d="M1185.29,87.67V68.37a21.49,21.49,0,0,0-28-20.49L941.71,116.11a21.49,21.49,0,0,0-15,22L953,522.46a21.49,21.49,0,0,0,23.6,19.92l250.26-25.26a21.49,21.49,0,0,0,18.43-15.22l23.95-80a21.49,21.49,0,0,1,21.53-15.31l25,1.1"/><path class="cls-3" d="M1333.88,408.52c-8.65,2.78-19.45,7.71-26.24,13.13l5.78-14-4.53-14.48C1315.18,399.13,1325.51,405,1333.88,408.52Z"/><path class="cls-1" d="M1462.64,114.18s0,399.77,52.52,455.21c0,0,35,32.1,124.5,10.7s130.34-54.47,141-80.73c18.85-46.26,23.53-94.62,28.63-143.91,5.48-52.95,9.14-106.4,12.38-159.36,1.17-19.13-7.33-39.4-18.86-54.17-15.53-19.9-38.39-32.58-62-40.37C1683,82.47,1625.46,66.83,1564.65,60c-24.46-2.75-45.61-4.59-67.81,7.86C1479.18,77.77,1465.57,93.67,1462.64,114.18Z"/><path class="cls-4" d="M1695.27,87.67V68.37a21.49,21.49,0,0,0-28-20.49l-215.61,68.23a21.49,21.49,0,0,0-15,22L1463,522.46a21.49,21.49,0,0,0,23.6,19.92l250.26-25.26a21.49,21.49,0,0,0,18.43-15.22l23.95-80a21.49,21.49,0,0,1,21.53-15.31l43.1,1.89"/><text class="cls-5" transform="translate(96.48 306.39)">Identificar los motivos <tspan x="23.61" y="30">por los cuales los </tspan><tspan x="38.87" y="60">estudiantes de </tspan><tspan x="8.33" y="90">UNAULA consumen </tspan><tspan x="-10.43" y="120">sustancias psicoactivas </tspan><tspan x="20.81" y="150">legales e ilegales. </tspan></text><text class="cls-5" transform="translate(529.78 255.39)"><tspan xml:space="preserve"> Nótese que no se dijo: </tspan><tspan x="43.09" y="30">encuestar a los </tspan><tspan x="10.43" y="60">jóvenes…De entrada </tspan><tspan x="23.64" y="90">se van a identificar </tspan><tspan x="5.59" y="120">motivos, no importa lo </tspan><tspan x="-2.11" y="150">que el estudiante tenga </tspan><tspan x="43.77" y="180">que hacer para </tspan><tspan x="49.35" y="210">recolectar esa </tspan><tspan x="59.78" y="240">información. </tspan></text><text class="cls-5" transform="translate(1524.5 270.39)">Analizar la efectividad <tspan x="37.52" y="30">de las medidas </tspan><tspan x="21.51" y="60">adoptadas para la </tspan><tspan x="-6.26" y="90">protección de los niños </tspan><tspan x="-9.06" y="120">indígenas en el entorno </tspan><tspan x="6.26" y="150">del conflicto armado. </tspan></text><text class="cls-5" transform="translate(1002.65 283.89)">Examinar las medidas <tspan x="22.89" y="30">adoptadas para la </tspan><tspan x="-4.89" y="60">protección de los niños </tspan><tspan x="-10.46" y="90">indígenas afectados por </tspan><tspan x="14.58" y="120">el conflicto armado.</tspan></text><text class="cls-6" transform="translate(170.12 247.32)">1</text><text class="cls-6" transform="translate(620.96 206.54)">2</text><text class="cls-6" transform="translate(1087.65 206.54)">3</text><text class="cls-6" transform="translate(1601.93 206.54)">4</text></svg>