<svg id="Capa_1" data-name="Capa 1" xmlns="http://www.w3.org/2000/svg" viewBox="0 0 2820.31 643.84"><defs><style>.cls-1{fill:#efefef;}.cls-2,.cls-3,.cls-33,.cls-4{fill:none;stroke-miterlimit:10;}.cls-2,.cls-3,.cls-4{stroke:#ff2389;stroke-linecap:round;}.cls-2,.cls-3{stroke-width:2px;}.cls-3{stroke-dasharray:8.07 10.08;}.cls-4{stroke-width:9px;}.cls-5{font-size:24px;fill:#3f3f3f;font-family:ArialMT, Arial;}.cls-6{letter-spacing:0.09em;}.cls-7{letter-spacing:0.09em;}.cls-8{letter-spacing:-0.03em;}.cls-9{letter-spacing:0.6em;}.cls-10{letter-spacing:0.6em;}.cls-11{letter-spacing:0.44em;}.cls-12{letter-spacing:0.44em;}.cls-13{letter-spacing:0.07em;}.cls-14{letter-spacing:0.07em;}.cls-15{letter-spacing:0.2em;}.cls-16{letter-spacing:0.2em;}.cls-17{letter-spacing:0.57em;}.cls-18{letter-spacing:0.14em;}.cls-19{letter-spacing:0.14em;}.cls-20,.cls-35{font-family:Arial-BoldMT, Arial;font-weight:700;}.cls-21{letter-spacing:1.01em;}.cls-22{letter-spacing:1.01em;}.cls-23{letter-spacing:1.16em;}.cls-24{letter-spacing:0.34em;}.cls-25{letter-spacing:0.34em;}.cls-26{letter-spacing:0em;}.cls-27{letter-spacing:0.67em;}.cls-28{letter-spacing:0.2em;}.cls-29{letter-spacing:0.2em;}.cls-30{letter-spacing:1.12em;}.cls-31{letter-spacing:0.17em;}.cls-32{letter-spacing:0.28em;}.cls-33{stroke:#ff1e8d;stroke-width:3px;}.cls-34{fill:#ff1e8d;}.cls-35{font-size:47.46px;fill:#ff2389;}.cls-36{fill:#a61768;}</style></defs><title>Obj.específicos-uinidad 4</title><rect class="cls-1" x="61.81" y="186.69" width="388.67" height="401.89" rx="30.87" ry="30.87"/><line class="cls-2" x1="353.23" y1="631.66" x2="349.23" y2="631.66"/><path class="cls-3" d="M339.14,631.66H94.82a73.38,73.38,0,0,1-73.38-73.38V217A73.38,73.38,0,0,1,94.82,143.6H344.48"/><path class="cls-2" d="M349.52,143.6h4"/><path class="cls-4" d="M362.83,143.6h54.64c4.89,0,30.88.49,51.89,21.49A73.15,73.15,0,0,1,490.86,217V558.28a73.38,73.38,0,0,1-73.38,73.38H367.27"/><rect class="cls-1" x="627.81" y="186.69" width="388.67" height="401.89" rx="30.87" ry="30.87"/><line class="cls-2" x1="919.23" y1="631.66" x2="915.23" y2="631.66"/><path class="cls-3" d="M905.14,631.66H660.82a73.38,73.38,0,0,1-73.38-73.38V217a73.38,73.38,0,0,1,73.38-73.38H910.48"/><path class="cls-2" d="M915.52,143.6h4"/><path class="cls-4" d="M928.83,143.6h54.64c4.89,0,30.88.49,51.89,21.49A73.15,73.15,0,0,1,1056.86,217V558.28a73.38,73.38,0,0,1-73.38,73.38H933.27"/><text class="cls-5" transform="translate(103.02 458.58)">Se<tspan class="cls-6" x="29.36" y="0"> </tspan><tspan x="38.28" y="0">desprenden</tspan><tspan class="cls-7" x="165.06" y="0"> </tspan><tspan x="173.99" y="0">del</tspan><tspan class="cls-6" x="206.01" y="0"> </tspan><tspan x="214.94" y="0">objetivo </tspan><tspan x="0" y="28.8">general</tspan><tspan class="cls-8" x="80.06" y="28.8"> </tspan><tspan x="86.1" y="28.8">y</tspan><tspan class="cls-8" x="98.1" y="28.8"> </tspan><tspan x="104.13" y="28.8">se</tspan><tspan class="cls-8" x="129.48" y="28.8"> </tspan><tspan x="135.51" y="28.8">postulan</tspan><tspan class="cls-8" x="226.25" y="28.8"> </tspan><tspan x="232.29" y="28.8">tantos </tspan><tspan x="0" y="57.6">como</tspan><tspan class="cls-9" x="58.69" y="57.6"> </tspan><tspan x="79.64" y="57.6">se</tspan><tspan class="cls-10" x="104.99" y="57.6"> </tspan><tspan x="125.94" y="57.6">necesiten</tspan><tspan class="cls-9" x="228.68" y="57.6"> </tspan><tspan x="249.63" y="57.6">para </tspan><tspan x="0" y="86.4">alcanzarlo. </tspan></text><text class="cls-5" transform="translate(657.92 389.39)">Se<tspan class="cls-11" x="29.36" y="0"> </tspan><tspan x="46.56" y="0">procederá</tspan><tspan class="cls-12" x="154.63" y="0"> </tspan><tspan x="171.83" y="0">de</tspan><tspan class="cls-12" x="198.53" y="0"> </tspan><tspan x="215.73" y="0">la</tspan><tspan class="cls-11" x="234.41" y="0"> </tspan><tspan x="251.61" y="0">misma </tspan><tspan x="0" y="28.8">manera</tspan><tspan class="cls-13" x="81.38" y="28.8"> </tspan><tspan x="89.79" y="28.8">que</tspan><tspan class="cls-13" x="129.83" y="28.8"> </tspan><tspan x="138.24" y="28.8">en</tspan><tspan class="cls-14" x="164.94" y="28.8"> </tspan><tspan x="173.35" y="28.8">el</tspan><tspan class="cls-13" x="192.03" y="28.8"> </tspan><tspan x="200.44" y="28.8">general:</tspan><tspan class="cls-13" x="287.17" y="28.8"> </tspan><tspan x="295.58" y="28.8">un </tspan><tspan x="0" y="57.6">verbo</tspan><tspan class="cls-15" x="60.04" y="57.6"> </tspan><tspan x="71.39" y="57.6">en</tspan><tspan class="cls-16" x="98.09" y="57.6"> </tspan><tspan x="109.45" y="57.6">infinitivo</tspan><tspan class="cls-15" x="196.16" y="57.6"> </tspan><tspan x="207.52" y="57.6">me</tspan><tspan class="cls-16" x="240.86" y="57.6"> </tspan><tspan x="252.22" y="57.6">dirá</tspan><tspan class="cls-15" x="292.24" y="57.6"> </tspan><tspan x="303.6" y="57.6">lo </tspan><tspan x="0" y="86.4">que</tspan><tspan class="cls-17" x="40.04" y="86.4"> </tspan><tspan x="60.42" y="86.4">específicamente</tspan><tspan class="cls-17" x="235.18" y="86.4"> </tspan><tspan x="255.56" y="86.4">quiero </tspan><tspan x="0" y="115.2">hacer</tspan><tspan class="cls-18" x="60.04" y="115.2"> </tspan><tspan x="70.06" y="115.2">o</tspan><tspan class="cls-19" x="83.41" y="115.2"> </tspan><tspan x="93.43" y="115.2">lograr,</tspan><tspan class="cls-18" x="161.46" y="115.2"> </tspan><tspan x="171.48" y="115.2">pero</tspan><tspan class="cls-19" x="219.52" y="115.2"> </tspan><tspan x="229.54" y="115.2">esta</tspan><tspan class="cls-18" x="274.9" y="115.2"> </tspan><tspan x="284.93" y="115.2">vez </tspan><tspan x="0" y="144">no</tspan><tspan class="cls-18" x="26.7" y="144"> </tspan><tspan x="36.72" y="144">se</tspan><tspan class="cls-19" x="62.07" y="144"> </tspan><tspan x="72.09" y="144">requiere</tspan><tspan class="cls-18" x="160.15" y="144"> </tspan><tspan x="170.17" y="144">de</tspan><tspan class="cls-19" x="196.86" y="144"> </tspan><tspan x="206.89" y="144">un</tspan><tspan class="cls-18" x="233.58" y="144"> </tspan><tspan class="cls-20" x="243.61" y="144">¿cómo </tspan><tspan class="cls-20"><tspan x="0" y="172.8">ni un por qué? </tspan></tspan></text><rect class="cls-1" x="1191.78" y="186.69" width="388.67" height="401.89" rx="30.87" ry="30.87"/><line class="cls-2" x1="1483.2" y1="631.66" x2="1479.2" y2="631.66"/><path class="cls-3" d="M1469.11,631.66H1224.79a73.38,73.38,0,0,1-73.38-73.38V217a73.38,73.38,0,0,1,73.38-73.38h249.66"/><path class="cls-2" d="M1479.5,143.6h4"/><path class="cls-4" d="M1492.81,143.6h54.64c4.89,0,30.88.49,51.89,21.49A73.15,73.15,0,0,1,1620.83,217V558.28a73.38,73.38,0,0,1-73.38,73.38h-50.21"/><text class="cls-5" transform="translate(1221.89 433.14)">Se<tspan class="cls-21" x="29.36" y="0"> </tspan><tspan x="60.28" y="0">suelen</tspan><tspan class="cls-22" x="131.01" y="0"> </tspan><tspan x="161.94" y="0">confundir</tspan><tspan class="cls-21" x="260.67" y="0"> </tspan><tspan x="291.6" y="0">los </tspan><tspan x="0" y="28.8">objetivos</tspan><tspan class="cls-23" x="94.72" y="28.8"> </tspan><tspan x="129.12" y="28.8">específicos</tspan><tspan class="cls-23" x="249.18" y="28.8"> </tspan><tspan x="283.58" y="28.8">con </tspan><tspan x="0" y="57.6">acciones</tspan><tspan class="cls-24" x="94.72" y="57.6"> </tspan><tspan x="109.64" y="57.6">concretas</tspan><tspan class="cls-25" x="213.69" y="57.6"> </tspan><tspan x="228.62" y="57.6">que</tspan><tspan class="cls-24" x="268.66" y="57.6"> </tspan><tspan x="283.58" y="57.6">hay </tspan><tspan x="0" y="86.4">que</tspan><tspan class="cls-26" x="40.04" y="86.4"> </tspan><tspan x="46.6" y="86.4">realizar</tspan><tspan class="cls-26" x="125.29" y="86.4"> </tspan><tspan x="131.84" y="86.4">para</tspan><tspan class="cls-26" x="179.88" y="86.4"> </tspan><tspan x="186.43" y="86.4">llevar</tspan><tspan class="cls-26" x="243.78" y="86.4"> </tspan><tspan x="250.33" y="86.4">a</tspan><tspan class="cls-26" x="263.68" y="86.4"> </tspan><tspan x="270.23" y="86.4">cabo </tspan><tspan x="0" y="115.2">nuestra investigación.</tspan></text><rect class="cls-1" x="1761.86" y="186.69" width="388.67" height="401.89" rx="30.87" ry="30.87"/><line class="cls-2" x1="2053.28" y1="631.66" x2="2049.28" y2="631.66"/><path class="cls-3" d="M2039.19,631.66H1794.87a73.38,73.38,0,0,1-73.38-73.38V217a73.38,73.38,0,0,1,73.38-73.38h249.66"/><path class="cls-2" d="M2049.57,143.6h4"/><path class="cls-4" d="M2062.88,143.6h54.64c4.89,0,30.88.49,51.89,21.49A73.15,73.15,0,0,1,2190.91,217V558.28a73.38,73.38,0,0,1-73.38,73.38h-50.21"/><rect class="cls-1" x="2341.34" y="186.69" width="388.67" height="401.89" rx="30.87" ry="30.87"/><line class="cls-2" x1="2632.75" y1="631.66" x2="2628.75" y2="631.66"/><path class="cls-3" d="M2618.67,631.66H2374.34A73.38,73.38,0,0,1,2301,558.28V217a73.38,73.38,0,0,1,73.38-73.38H2624"/><path class="cls-2" d="M2629,143.6h4"/><path class="cls-4" d="M2642.36,143.6H2697c4.89,0,30.88.49,51.89,21.49A73.15,73.15,0,0,1,2770.38,217V558.28A73.38,73.38,0,0,1,2697,631.66h-50.21"/><text class="cls-5" transform="translate(1809.97 431.64)">Lo<tspan class="cls-27" x="26.7" y="0"> </tspan><tspan x="49.46" y="0">aconsejable</tspan><tspan class="cls-27" x="177.56" y="0"> </tspan><tspan x="200.32" y="0">es</tspan><tspan class="cls-27" x="225.67" y="0"> </tspan><tspan x="248.43" y="0">que </tspan><tspan x="0" y="28.8">estas</tspan><tspan class="cls-28" x="57.36" y="28.8"> </tspan><tspan x="68.78" y="28.8">últimas</tspan><tspan class="cls-29" x="144.8" y="28.8"> </tspan><tspan x="156.22" y="28.8">vayan</tspan><tspan class="cls-29" x="220.26" y="28.8"> </tspan><tspan x="231.68" y="28.8">en</tspan><tspan class="cls-28" x="258.38" y="28.8"> </tspan><tspan x="269.79" y="28.8">el </tspan><tspan x="0" y="57.6">plan de acción.</tspan></text><text class="cls-5" transform="translate(2387.94 431.64)">Un<tspan class="cls-30" x="30.68" y="0"> </tspan><tspan x="64.19" y="0">objetivo</tspan><tspan class="cls-30" x="146.91" y="0"> </tspan><tspan x="180.42" y="0">específico </tspan><tspan x="0" y="28.8">denota</tspan><tspan class="cls-31" x="73.41" y="28.8"> </tspan><tspan x="84.17" y="28.8">la</tspan><tspan class="cls-31" x="102.85" y="28.8"> </tspan><tspan x="113.61" y="28.8">acción</tspan><tspan class="cls-31" x="182.99" y="28.8"> </tspan><tspan x="193.75" y="28.8">cognitiva </tspan><tspan x="0" y="57.6">que</tspan><tspan class="cls-32" x="40.04" y="57.6"> </tspan><tspan x="53.49" y="57.6">es</tspan><tspan class="cls-32" x="78.83" y="57.6"> </tspan><tspan x="92.28" y="57.6">necesario</tspan><tspan class="cls-32" x="196.34" y="57.6"> </tspan><tspan x="209.78" y="57.6">realizar </tspan><tspan x="0" y="86.4">con esa acción.</tspan></text><line class="cls-33" x1="494.29" y1="387.19" x2="553.96" y2="387.19"/><path class="cls-34" d="M572.06,387.19c-8.52,3.16-19.09,8.55-25.64,14.27l5.16-14.27-5.16-14.26C553,378.64,563.54,384,572.06,387.19Z"/><line class="cls-33" x1="1061.91" y1="387.19" x2="1121.57" y2="387.19"/><path class="cls-34" d="M1139.68,387.19c-8.52,3.16-19.09,8.55-25.64,14.27l5.16-14.27L1114,372.93C1120.59,378.64,1131.16,384,1139.68,387.19Z"/><line class="cls-33" x1="1625.88" y1="387.19" x2="1685.54" y2="387.19"/><path class="cls-34" d="M1703.65,387.19c-8.52,3.16-19.09,8.55-25.64,14.27l5.16-14.27L1678,372.93C1684.56,378.64,1695.13,384,1703.65,387.19Z"/><line class="cls-33" x1="2188.35" y1="387.19" x2="2248.01" y2="387.19"/><path class="cls-34" d="M2266.12,387.19c-8.52,3.16-19.09,8.55-25.64,14.27l5.16-14.27-5.16-14.26C2247,378.64,2257.6,384,2266.12,387.19Z"/><text class="cls-35" transform="translate(1108.2 80.06)">OBJETIVOS ESPECÍFICOS</text><path class="cls-36" d="M175.58,322q0-4.53,0-9.07a14,14,0,0,0,.27-1.5,68.52,68.52,0,0,1,7.35-26.92c13.12-25.14,33.75-39.42,62.11-42,14.92-1.33,29,2,42.07,9.2.44.24.89.46,1.34.69l.43.25,19.56-19.59c1.06,7.1,2.14,14.29,3.19,21.49.14,1,.38,1.59,1.54,1.73,3,.36,6.08.85,9.12,1.3l12.73,1.93.35.53a8.92,8.92,0,0,0-1.39.95c-5.87,5.84-11.71,11.72-17.6,17.54a1.46,1.46,0,0,0-.31,2.1,74.19,74.19,0,0,1,7.77,53.3c-8,36.89-43.46,62.38-81,58.32a75.29,75.29,0,0,1-66.33-61.52C176.29,327.82,176,324.88,175.58,322Zm106.08-62.39c-22.31-12.91-58.27-11.51-81.33,15.67-22.52,26.54-20,66.49,5.84,90.49A65.54,65.54,0,0,0,297,364.1c24.25-24,23.18-58.08,11.6-77.44a1.51,1.51,0,0,0-.37.29c-2.14,3.23-5,3.74-8.56,2.61a62.19,62.19,0,0,0-7.9-1.43,50.36,50.36,0,0,1-75,66.37C199,338.3,195.25,311.14,208,290.91a49,49,0,0,1,27.51-21.4c15.8-4.89,30.63-2.38,44.49,6.91-.06-.63-.06-1-.14-1.44-.64-3.48-1.34-6.95-1.9-10.44a2.64,2.64,0,0,1,.57-1.88C279.5,261.56,280.6,260.61,281.66,259.56Zm-5.59,25.94c-13.77-11.79-38.65-13.31-54.93,3.77a40.88,40.88,0,1,0,61.19,54.16c14.36-17.57,10.22-40.45.3-51.23-3.76,3.76-7.49,7.54-11.27,11.27-.72.71-.27,1.17.07,1.75a22.84,22.84,0,0,1,3,16.08c-1.88,10.07-7.85,16.77-17.72,19.3s-18.58-.45-24.87-8.6-6.84-17.1-2-26.11a23.8,23.8,0,0,1,33-9.18c1,.58,1.56.57,2.35-.28,1.51-1.65,3.15-3.19,4.73-4.77Zm-28.66,28.22,9.48-9.44c-5.85-3.13-13.68-1.17-17.87,4.51a14.58,14.58,0,0,0,20.38,20.39c5.69-4.22,7.65-12.06,4.43-18l-9.45,9.54Zm54.72-61c-.22.05-.35,0-.41.1-4.43,4.41-8.87,8.81-13.26,13.26a1.8,1.8,0,0,0-.34,1.37c.56,3.28,1.14,6.56,1.82,9.82a1.79,1.79,0,0,0,1.14,1.12q4.74.95,9.53,1.67a2.34,2.34,0,0,0,1.73-.56c4.2-4.12,8.35-8.3,12.51-12.47.24-.24.45-.52.8-.95-3.69-.56-7.16-1.13-10.65-1.59-.91-.12-1.19-.45-1.31-1.33C303.23,259.7,302.67,256.26,302.13,252.72Z"/><path d="M844.15,198.74l1.92,3.37h25c.45,0,.89,0,1.34,0a3.17,3.17,0,0,1,3.05,2.19,3.06,3.06,0,0,1-1,3.49c-1.8,1.63-3.64,3.22-5.45,4.83-.29.26-.56.53-.93.87l5.85,5.15c1.62,1.43,2.07,2.66,1.46,4.14-.7,1.67-2.09,2.07-3.76,2.07q-12.13,0-24.25,0h-1.91c0,1.19-.06,2.23,0,3.25,0,.33.45.62.7.93.53.65,1.36,1.22,1.56,2a13.44,13.44,0,0,1-1.65,10.56,4.07,4.07,0,0,0-.62,1.91q-.05,18.45,0,36.9c0,.29,0,.58.07,1,.52,0,1,.08,1.47.08H858.3c5.15,0,8.26,3.07,8.27,8.22q0,20.61,0,41.21,0,7,0,14v1.76h5c2,0,3,.79,3,2.27s-1,2.19-2.93,2.19H741.93c-2.3,0-3.36-.68-3.4-2.18s1.06-2.28,3.44-2.29h4.15c0-2.31.12-4.48,0-6.65-.38-5.72,3.58-9.28,8.91-9,4.25.22,8.53,0,12.79.06,2.41,0,4.81.14,7.32.22,0-1.77,0-3.75,0-5.73a7.57,7.57,0,0,1,7.72-7.88q2.9-.08,5.8,0a1.66,1.66,0,0,0,1.81-1.11c3-6.37,6-12.7,9-19.07a5.56,5.56,0,0,0,.49-2c.26-4.31.66-8.62.63-12.92,0-5.29,2-10.07,3.2-15.05a18.88,18.88,0,0,1,.53-1.86,2.23,2.23,0,1,1,4.27,1.27c-.63,2.38-1.33,4.75-2.1,7.48,1.7-.69,3.12-1.26,4.54-1.86,1.87-.78,4.18-1.15,5.47-2.5s1.43-3.61,2.06-5.49,1.17-3.56,1.77-5.38a2.6,2.6,0,0,0-.5-.09,2.16,2.16,0,0,1-2.48-1.66,2.29,2.29,0,0,1,1.32-2.7q8.21-5,16.39-9.95c1.52-.93,3.08-1.81,4.54-2.83a9,9,0,0,0,4-7.16c-.61.3-1,.49-1.46.72-8.79,4.77-17.57,9.58-26.39,14.31a6.72,6.72,0,0,0-3.44,4.06c-.43,1.37-.81,2.75-1.24,4.12s-1.49,2.14-2.76,1.81a2.18,2.18,0,0,1-1.5-3c.82-2.63,1.73-5.24,2.67-8.06-2.45-1.92-3.39-5.19-4.91-8.09a6.84,6.84,0,0,1-.18-5.21c.91-3.25,7.15-6.57,10.57-5.37a7.09,7.09,0,0,1,4.19,3.35c1.26,2.4,2.45,4.85,3.73,7.4.22-.1.61-.26,1-.46,5.31-2.88,10.61-5.78,15.94-8.63a1.91,1.91,0,0,0,1.15-2c0-9.22,0-18.45,0-27.67a3.63,3.63,0,0,1,1.4-3.36ZM862,346.58c0-.47.08-.81.08-1.15q0-27.89,0-55.77c0-2.65-1.15-3.74-3.86-3.74H841.89c-3.3,0-4.29,1-4.29,4.22q0,15.69,0,31.38c0,1.73-.85,2.76-2.22,2.77s-2.23-1-2.24-2.74c0-3.27,0-6.54,0-9.82,0-2.9-1.14-4-4.05-4H812.87c-3.25,0-4.28,1-4.28,4.25q0,16.51,0,33v1.58h24.55c0-.55,0-1,0-1.52,0-3.72,0-7.44,0-11.15,0-1.86.82-2.86,2.28-2.83s2.18,1,2.18,2.79c0,3.77,0,7.54,0,11.3,0,.47,0,.95.07,1.45Zm-58.07,0a1.83,1.83,0,0,0,.12-.39c0-6.93,0-13.87,0-20.8,0-2.16-1.26-3.24-3.57-3.26q-8.62,0-17.23,0c-2.58,0-3.69,1.17-3.69,3.76q0,7.73,0,15.45v5.23Zm36.9-65.2V246.72a1.36,1.36,0,0,0-.39.05c-4.53,2.74-9.07,5.47-13.58,8.25a2.5,2.5,0,0,0-.87,1.29c-1.57,4.64-3.07,9.3-4.65,13.93a1.89,1.89,0,0,0,.4,2.13c2.62,3,5.12,6.18,7.78,9.19a10.27,10.27,0,0,1,2.58,9.18c-.73,4.08-1.06,8.23-1.57,12.45l2.57.61c0-4.65,0-9.15,0-13.66C833.14,284.84,835.53,282.09,840.87,281.35Zm4.59-61H869l-4.29-3.82c-2.41-2.14-2.41-3.88,0-6l4.36-3.89H846.8c-.6,0-1.36-.21-1.36.85C845.46,211.68,845.45,215.93,845.45,220.32ZM775.12,346.56c0-2.7,0-5.22,0-7.75a3.11,3.11,0,0,0-3.23-3.32h-.59c-5.69,0-11.39,0-17.08,0-1.93,0-3.36.83-3.45,2.35-.17,2.88,0,5.78,0,8.71ZM795,317.35l.4.43a7.42,7.42,0,0,0,1.42-1.14c4.58-6,9.16-12.08,13.67-18.18a8.8,8.8,0,0,0,1.49-3.33c.81-3.87,1.45-7.78,2.15-11.68l1.43-7.92c-3.41,1.4-6.57,2.66-9.69,4-.37.16-.63.91-.67,1.41-.3,4.8-.46,9.6-.84,14.39a15.17,15.17,0,0,1-1.21,4.69c-1.36,3.18-2.94,6.27-4.42,9.4Zm24.87-40.46c-.42,2.32-.63,4.28-1.15,6.15-.46,1.65-.18,2.68,1.44,3.4,2.24,1,3,2.86,3.2,5.24.26,3.7.72,7.38,1.11,11.07a1.89,1.89,0,0,0,.2.45l1.39-.06c.62-5.17,1.25-10.26,1.82-15.37a2.3,2.3,0,0,0-.47-1.51C825,283.21,822.55,280.2,819.87,276.89ZM813.5,245.8c1.27-.6,2.31-1,3.29-1.58a2.49,2.49,0,0,0,1.13-3.53c-.78-1.65-1.62-3.28-2.5-4.88a2.54,2.54,0,0,0-3.64-1.17,17.22,17.22,0,0,0-1.84.95,2.5,2.5,0,0,0-1.13,3.53,48.22,48.22,0,0,0,2.61,5A8.6,8.6,0,0,0,813.5,245.8ZM817.91,290l-.47.2c-.88,4.51-.95,9.32-5,12.86H820c-.38-3.91-.72-7.7-1.16-11.49C818.76,291.07,818.22,290.57,817.91,290ZM804,315l-.29-.08-2,2.69,2.25.52Z"/><path class="cls-36" d="M1298.18,368c.78-3.27,2.89-5.61,5.21-7.91,9-8.92,17.95-17.91,26.91-26.88a7.92,7.92,0,0,1,1.22-1.11,2.08,2.08,0,0,1,2.76.24,2,2,0,0,1,.39,2.74,7,7,0,0,1-1.08,1.25q-8.32,8.33-16.65,16.65a11.9,11.9,0,0,1-1.21,1l8.76,8.76c.2-.19.57-.51.92-.86q14.14-14.14,28.25-28.31a3.85,3.85,0,0,0,1-2.32c.13-2.45,0-4.91,0-7.27-2.69,0-5.58,0-8.47,0-.32,0-.66.41-.94.68-1.15,1.13-2.26,2.3-3.42,3.4a2.31,2.31,0,0,1-3.36.13,2.23,2.23,0,0,1,.2-3.35c1.47-1.52,2.93-3.06,4.5-4.46a4,4,0,0,1,2.26-.94c3.21-.21,6.44-.22,9.65-.42a3.7,3.7,0,0,0,2.08-.88c1.61-1.44,3.1-3,4.74-4.62-.86-1.05-1.68-2-2.48-3-22.78-28.65-9.26-71.87,25.83-82.39a105.18,105.18,0,0,1,10.33-2c.34-.07.67-.17,1-.25h7.85c2.32.39,4.65.7,7,1.17a52.14,52.14,0,0,1,40.81,43.8c3.63,27.65-13.62,52.58-40.92,58.4-16.7,3.56-31.8-.5-45-11.48l-1.3-1.08c-1.72,1.76-3.43,3.45-5.05,5.23a2.55,2.55,0,0,0-.45,1.51c-.15,3.22-.18,6.44-.41,9.65a4.24,4.24,0,0,1-1.05,2.51q-20.81,20.93-41.73,41.74c-6.09,6-15.76,3.11-17.9-5.22a5.86,5.86,0,0,0-.27-.7Zm102.28-42.2a47.74,47.74,0,1,0-47.69-47.67A47.67,47.67,0,0,0,1400.47,325.8Zm-91.84,35.62,8.4,8.41,3.85-3.69-8.45-8.45Zm4.83,12.26-8.56-8.57a6.08,6.08,0,1,0,8.56,8.57Z"/><path class="cls-36" d="M1400.37,321.42a43.23,43.23,0,0,1-42.6-37.17c-1.93-13.89,2.11-26,11.74-36.29.87-.93,1.84-1.43,3.08-.78a2,2,0,0,1,1.06,2.55,4,4,0,0,1-1,1.48,38.54,38.54,0,0,0-10.81,28.39c.41,17.56,14,33.39,31.31,36.46,21.31,3.77,40.73-9.28,45.22-30.4s-10.2-42.37-31.54-45.72a38.72,38.72,0,0,0-26.14,4.89c-1.56.9-2.7.86-3.53-.15-1-1.16-.61-2.61.89-3.53a41.47,41.47,0,0,1,15.76-5.73,43.16,43.16,0,0,1,13.86,85.2C1405.28,321,1402.82,321.16,1400.37,321.42Z"/><path class="cls-36" d="M1431.26,277.3c.05,2.35-1.69,3.84-3.3,2.69a3.67,3.67,0,0,1-1.17-2.53A26.45,26.45,0,0,0,1419.5,260a25.94,25.94,0,0,0-18.08-8.19l-.75,0c-1.52-.11-2.48-1-2.43-2.32a2.24,2.24,0,0,1,2.58-2.16,51.4,51.4,0,0,1,8.6,1.37A30.65,30.65,0,0,1,1431.26,277.3Z"/><path class="cls-36" d="M1424,297.33c-2,0-3.14-1.71-2.39-3.2q1.75-3.49,3.64-6.9a2,2,0,0,1,2.86-.89,1.92,1.92,0,0,1,1.17,2.6c-1.18,2.53-2.5,5-3.89,7.44C1425.12,296.91,1424.32,297.14,1424,297.33Z"/><path class="cls-36" d="M2459.77,311c1.67-2.51,3.27-5.08,5-7.53a118.17,118.17,0,0,0,10.24-17,2.4,2.4,0,0,0-.59-3.32c-.68-.58-1.33-1.19-2-1.8-3-2.81-3.88-6-2.19-9.72,2.47-5.37,3.94-11,5.61-16.67,3.11-10.45,8.66-19.35,17.82-25.6,6.31-4.31,13.47-6.63,20.91-7.91,8.43-1.44,16.9-2.64,25.39-3.67a60.29,60.29,0,0,1,9.59.11,2.59,2.59,0,0,1,2.72,2.81c-.09,1.62-1.31,2.55-3.17,2.55-3.67,0-7.36-.22-11,.07a154.45,154.45,0,0,0-29.59,5.14c-14.67,4.09-23.36,14.1-27.58,28.29-1.66,5.59-3.07,11.22-5.58,16.51-1,2.1-.76,2.62,1,4.28a26.31,26.31,0,0,1,2.8,2.75,7.31,7.31,0,0,1,.86,8.25,120.79,120.79,0,0,1-12.86,20.71c-2.61,3.38-2.83,3,1.12,5.43.8.5,1.68.87,2.49,1.34,4.43,2.58,5.69,6.61,3.51,11.29-.49,1-1.05,2-1.59,3.08a26.86,26.86,0,0,1,3.84,3.47c1.27,1.68-.37,3.1-1.12,4.56.32.22.52.38.74.51,4.3,2.41,5.8,5.71,4.62,10.56a12.07,12.07,0,0,0,.21,7.12c1,2.84,3.27,4.18,6.2,3.3q12.66-3.78,25.26-7.76c4.1-1.3,8.17-2.71,12.17-4.29a37.14,37.14,0,0,0,6.36-3.4,7.24,7.24,0,0,0,3.52-5.85,2.5,2.5,0,0,1,2.87-2.46,2.59,2.59,0,0,1,2.43,2.78,11.06,11.06,0,0,1-3.38,7.9c-3.21,3.28-7.24,5.15-11.46,6.69-2.76,1-5.55,1.93-8.57,3a44.08,44.08,0,0,1,9.42,17h60.7c0-.3.06-.48,0-.59-4.81-7.7-6.73-16.32-8.16-25.12a51.84,51.84,0,0,1,2.88-28.31,58.14,58.14,0,0,1,8-13.49c4-5.18,7.77-10.47,9.49-16.92.16-.61.29-1.23.5-1.82a2.65,2.65,0,0,1,3.25-1.77,2.62,2.62,0,0,1,1.88,3.19,36.45,36.45,0,0,1-4.83,11.91c-1.89,3-3.88,5.88-6,8.65-6.27,8.06-10.18,17-10.54,27.3-.25,7.1,1.07,14,2.83,20.84a42.52,42.52,0,0,0,6.17,14.05,16.78,16.78,0,0,1,1.78,3.5,2.64,2.64,0,0,1-2.6,3.88c-3.36.07-6.73,0-10.09.07a3.7,3.7,0,0,0-.76.17h-57.41a22,22,0,0,1-1.93-3.06c-1.15-2.69-2-5.51-3.24-8.17a23.34,23.34,0,0,0-6.08-8.33,2.51,2.51,0,0,0-2.69-.48c-7,2.15-14,4.31-21.1,6.24a9.81,9.81,0,0,1-11.69-6.18,16.68,16.68,0,0,1-.71-10.49c.75-2.89.38-3.6-2.19-5.12l-1.35-.81a4,4,0,0,1-2-4.4c.15-.86.42-1.7.63-2.57l-.75-.62c-3.45-2.73-3.68-3.94-1.53-7.85l.31-.55c2.24-4.06,2-4.78-2.08-6.89-2.85-1.46-5.43-3.17-6.66-6.33Z"/><path class="cls-36" d="M2599.15,277.1a6.32,6.32,0,0,1-4.75,3c-2,.33-4,.75-6,1.25-.5.13-.9.69-1.34,1.05,0,0,0,.1-.07.14-1.63,2.48-1.3,4.69.71,6.85a20.82,20.82,0,0,1,2.37,3.52,5.13,5.13,0,0,1-.58,6.54c-1.53,1.66-3.13,3.27-4.79,4.8a5.24,5.24,0,0,1-6.68.5c-1.9-1.21-3.79-2.47-5.62-3.78a2.37,2.37,0,0,0-2.27-.23c-2.87.71-4,2.49-4.18,5.32a23.23,23.23,0,0,1-.8,4,5.27,5.27,0,0,1-5.37,4.4c-2,0-4,0-6,0a5.4,5.4,0,0,1-5.65-4.67c-.44-2.11-.91-4.21-1.25-6.33a2.39,2.39,0,0,0-1.43-1.81c-2.52-1.54-4.61-1.13-6.71.79a22.25,22.25,0,0,1-3.39,2.29,5.34,5.34,0,0,1-6.93-.67c-1.49-1.41-2.94-2.86-4.35-4.34a5.35,5.35,0,0,1-.64-7.05c1.22-1.9,2.56-3.73,3.72-5.66a3.08,3.08,0,0,0,.18-1.95c-.52-3-2.48-4.25-5.43-4.41a20.76,20.76,0,0,1-4.31-.89,5.07,5.07,0,0,1-3.92-4.92q-.11-3.39,0-6.78a5.12,5.12,0,0,1,4.19-5c2.25-.52,4.52-.95,6.79-1.37a2.5,2.5,0,0,0,1.78-1.44c1.57-2.53,1.1-4.6-.76-6.71a24.69,24.69,0,0,1-2.38-3.52,5.31,5.31,0,0,1,.64-6.68c1.47-1.58,3-3.1,4.57-4.57a5.21,5.21,0,0,1,6.79-.64q2.87,1.8,5.63,3.77a2.46,2.46,0,0,0,2.27.27c3-.67,4-2.66,4.25-5.46a27.48,27.48,0,0,1,.7-3.71,5.47,5.47,0,0,1,5.72-4.61c2,0,4,.06,6,0a4.12,4.12,0,0,0,1.91-.73,12,12,0,0,0,1.47-1.42,4.79,4.79,0,0,1,6.33-.64c1.42.9,2.79,1.88,4.2,2.8s3.9-.25,4.22-1.76c.36-1.69.64-3.41,1-5.09a4.75,4.75,0,0,1,4.73-3.86c1.73,0,3.47-.05,5.2,0a4.67,4.67,0,0,1,4.55,3.67c.42,1.68.69,3.39,1,5.09a3.14,3.14,0,0,0,4.37,1.86c1.32-.86,2.61-1.77,3.93-2.62a4.82,4.82,0,0,1,6.47.53q1.79,1.67,3.45,3.46a4.78,4.78,0,0,1,.54,6.34c-.87,1.37-1.82,2.7-2.71,4.06a3.14,3.14,0,0,0,1.79,4.29c1.69.36,3.41.64,5.09,1a4.7,4.7,0,0,1,3.77,4.63c.06,1.73.06,3.47,0,5.2a4.73,4.73,0,0,1-3.76,4.65c-1.68.4-3.4.68-5.09,1a3.16,3.16,0,0,0-1.81,4.3c.92,1.41,1.9,2.78,2.78,4.2a4.76,4.76,0,0,1-.62,6.21q-1.72,1.84-3.57,3.57a4.74,4.74,0,0,1-6.08.59C2601.81,278.92,2600.56,278,2599.15,277.1Zm-45.64,32c1.83,0,3.51,0,5.18,0,.94,0,1.26-.32,1.42-1.21.46-2.63,1.06-5.25,1.54-7.88a3.29,3.29,0,0,1,2.45-2.75,39.17,39.17,0,0,0,5.37-2.22,3.58,3.58,0,0,1,4.1.22c2.44,1.72,4.95,3.34,7.54,5.08,1.26-1.3,2.43-2.57,3.69-3.76a1.11,1.11,0,0,0,.14-1.73c-1.5-2.16-2.89-4.39-4.41-6.52a3.48,3.48,0,0,1-.25-4.08,22.09,22.09,0,0,0,2-4.76,4,4,0,0,1,3.71-3.25c2.78-.44,5.53-1.09,8.38-1.66,0-1.81,0-3.49,0-5.16,0-.93-.32-1.27-1.22-1.43-2.58-.45-5.14-1.05-7.72-1.5a3.49,3.49,0,0,1-3-2.61,37.68,37.68,0,0,0-2.22-5.36,3.43,3.43,0,0,1,.26-3.94c1.72-2.45,3.34-5,4.95-7.37l-4.51-4.57c-2.48,1.66-5,3.32-7.54,5a3.29,3.29,0,0,1-3.67.25,53.82,53.82,0,0,0-5.66-2.34,3.36,3.36,0,0,1-2.43-2.78q-.72-3.95-1.6-7.87c-.1-.45-.56-1.14-.89-1.16-1.87-.11-3.75-.05-5.65-.05-.64,3.14-1.31,6.12-1.85,9.11a3.4,3.4,0,0,1-2.59,2.81,32.87,32.87,0,0,0-5.08,2.09,3.68,3.68,0,0,1-4.36-.25c-2.38-1.7-4.86-3.28-7-4.73l-4.7,4.47c1.6,2.39,3.19,4.86,4.88,7.26a3.57,3.57,0,0,1,.26,4.1,32.62,32.62,0,0,0-2.16,5.22,3.55,3.55,0,0,1-3.09,2.7c-2.58.45-5.15,1-7.71,1.58-.4.09-1,.53-1,.83-.09,1.88,0,3.76,0,5.7,3.07.61,6,1.23,8.92,1.77a3.46,3.46,0,0,1,2.94,2.65,32.72,32.72,0,0,0,2.16,5.22,3.56,3.56,0,0,1-.24,4.09c-1.71,2.44-3.33,4.94-4.8,7.14l4.51,4.66c2.45-1.63,5-3.29,7.51-5a3.27,3.27,0,0,1,3.54-.23c1.9.88,3.83,1.7,5.8,2.41a3.12,3.12,0,0,1,2.27,2.53C2552.21,302.87,2552.85,305.9,2553.51,309.08Zm13.44-78.86c-1.57.92-2.21,2.07-1.56,3.83A9.3,9.3,0,0,1,2566,237a4.83,4.83,0,0,0,4,5.09,2.73,2.73,0,0,0,2.55-.29c3.21-2.09,6.24-4.17,10.29-5,11.65-2.41,22.08,7.57,19.56,19.22a16.84,16.84,0,0,1-4.49,8.16,6.85,6.85,0,0,1,1.89,5.43,2.43,2.43,0,0,0,.57,1.77c1.7,1.29,3.53,2.42,5.33,3.63l3-3c-1.31-2-2.58-3.89-3.89-5.8a3.15,3.15,0,0,1-.21-3.41c.69-1.46,1.32-3,1.87-4.49A3.15,3.15,0,0,1,2609,256c2.26-.41,4.5-.9,6.79-1.37v-4.21c-2.26-.46-4.46-.94-6.68-1.33a3.25,3.25,0,0,1-2.74-2.46,24.61,24.61,0,0,0-1.69-4.06,3.41,3.41,0,0,1,.25-4c1.27-1.79,2.45-3.64,3.65-5.44l-3-3c-1.88,1.26-3.77,2.48-5.61,3.77a3.34,3.34,0,0,1-3.82.17,25.65,25.65,0,0,0-4.06-1.69,3.24,3.24,0,0,1-2.46-2.74c-.39-2.21-.88-4.41-1.33-6.67h-4.2c-.47,2.31-1,4.55-1.37,6.81a3.13,3.13,0,0,1-2.27,2.55,30.94,30.94,0,0,0-4.21,1.73,3.42,3.42,0,0,1-4-.25C2570.58,232.61,2568.73,231.41,2566.94,230.22Zm21.59,12c.24.29.42.53.63.76,2.18,2.42,2.37,4.69.59,7.43a30.56,30.56,0,0,1-2.38,3.51c-1.57,1.81-1.93,3.51-.69,5.74,1.1,2,4,3,6,1.76a10.72,10.72,0,0,0,4-12.79C2595.25,245.1,2591.74,242.28,2588.53,242.25Z"/><path class="cls-36" d="M2489.86,265.16l-5.18-1.14a51.25,51.25,0,0,1,4.9-14.24c5.32-10.14,14.19-15.06,24.93-17.34.67-.14,1.33-.3,2-.41a2.67,2.67,0,1,1,1.11,5.21c-2.07.56-4.17,1-6.24,1.61-11.79,3.23-17.76,11.73-20.7,23C2490.41,262.84,2490.17,263.91,2489.86,265.16Z"/><path class="cls-36" d="M2486.64,274.1a2.68,2.68,0,0,1-2.68,2.7,2.77,2.77,0,0,1-2.66-2.76,2.67,2.67,0,0,1,2.64-2.58A2.58,2.58,0,0,1,2486.64,274.1Z"/><path class="cls-36" d="M2556.67,290.23a18.82,18.82,0,1,1,18.85-18.85A18.87,18.87,0,0,1,2556.67,290.23Zm.06-5.39a13.44,13.44,0,1,0-13.48-13.33A13.45,13.45,0,0,0,2556.72,284.84Z"/><path class="cls-36" d="M2559.36,271.47a2.7,2.7,0,0,1-2.79,2.59,2.59,2.59,0,0,1-2.54-2.79,2.66,2.66,0,0,1,2.67-2.55A2.76,2.76,0,0,1,2559.36,271.47Z"/><path class="cls-36" d="M1928.92,220.43a3.08,3.08,0,0,0,.14-.4c.38-4.53.38-4.53,4.92-4.53h37.44c4.77,0,4.77,0,5.22,4.93h1.9q13,0,26.09,0c6.68,0,10.26,3.58,10.26,10.24,0,45.23-.05,90.46.07,135.7,0,6.14-4.16,10.43-10.42,10.41-34.5-.1-69,0-103.51-.05-5.29,0-8.92-2.57-10-7.1a11.68,11.68,0,0,1-.24-2.69q0-68.36,0-136.71c0-6,3.69-9.76,9.68-9.79,8.81,0,17.62,0,26.43,0ZM1910.42,357h84.76V240.12h-84.76Zm66.17-121.8h20c2.83,0,3.49.66,3.49,3.5q0,59.81,0,119.62c0,2.86-.65,3.51-3.46,3.51H1909c-2.72,0-3.4-.67-3.4-3.39q0-59.89,0-119.79c0-2.81.66-3.44,3.54-3.45h18.13c.59,0,1.18-.05,1.77-.08v-9.89c-.64,0-1.19-.08-1.74-.08H1901c-4.05,0-5.53,1.48-5.53,5.5q0,67.86,0,135.72c0,4,1.57,5.58,5.66,5.58h103.36c4.07,0,5.61-1.55,5.61-5.63q0-67.77,0-135.55c0-4.15-1.45-5.62-5.58-5.63H1978.3c-.55,0-1.09.06-1.7.09Zm-42.62-.1h37.69V220.34H1934Z"/><path class="cls-36" d="M1968.09,255.11h-13.53c-2,0-3.06-.78-3.11-2.29s1-2.45,3.13-2.45h27.23c2,0,3.09.84,3.14,2.3s-1.12,2.44-3.16,2.44Z"/><path class="cls-36" d="M1968.14,281.8h-13.19a7.19,7.19,0,0,1-1.51-.08,2.21,2.21,0,0,1-2-2.52,2.12,2.12,0,0,1,2.22-2.1c1.75-.06,3.49,0,5.24,0h21.81c.45,0,.9,0,1.35,0,1.8.05,2.9,1,2.86,2.39s-1.11,2.33-2.95,2.34C1977.38,281.81,1972.76,281.8,1968.14,281.8Z"/><path class="cls-36" d="M1968.09,308.4c-4.57,0-9.13,0-13.7,0-1.94,0-2.9-.77-2.94-2.26s1-2.46,3-2.47q13.78,0,27.56,0c1.91,0,3,1,3,2.49s-1.13,2.24-3,2.24C1977.33,308.41,1972.71,308.4,1968.09,308.4Z"/><path class="cls-36" d="M1968.25,335.09h-13.7c-2,0-3.06-.78-3.11-2.29s1-2.45,3.13-2.45h27.23c2,0,3.09.84,3.14,2.3s-1.12,2.43-3.17,2.44Z"/><path class="cls-36" d="M1929.38,287.63l8.29-8.3,1.08-1.08c1.39-1.36,2.8-1.55,3.84-.53s1,2.42-.44,3.83q-4.41,4.44-8.85,8.86c-4,4-4,4-7.92.06l-3.35-3.35c-1.55-1.56-1.75-2.8-.66-3.94s2.52-.89,4.08.66l3.48,3.46C1929,287.38,1929.11,287.44,1929.38,287.63Z"/><path class="cls-36" d="M1929.23,314.45l8.92-8.92a16.63,16.63,0,0,1,1.21-1.18,2.22,2.22,0,0,1,3.21,0,2.16,2.16,0,0,1,.18,3.19,29.62,29.62,0,0,1-2.11,2.19q-4.54,4.55-9.1,9.1c-1.68,1.66-2.75,1.64-4.45,0s-3.61-3.57-5.38-5.39c-1.24-1.27-1.33-2.54-.34-3.58s2.39-1,3.7.28S1927.78,312.94,1929.23,314.45Z"/><path class="cls-36" d="M1929.27,261.08c3.23-3.23,6.28-6.31,9.38-9.35.54-.53,1.28-1.25,1.91-1.23a3,3,0,0,1,2.33,1.14,3.11,3.11,0,0,1-.32,2.71,40.85,40.85,0,0,1-3.87,4c-2.43,2.43-4.85,4.88-7.3,7.29-1.52,1.5-2.66,1.47-4.2,0q-2.71-2.67-5.39-5.38c-1.35-1.36-1.47-2.6-.43-3.69s2.43-1,3.82.4S1927.8,259.58,1929.27,261.08Z"/><path class="cls-36" d="M1929.24,341.1l8.89-8.9a15.49,15.49,0,0,1,1.35-1.28,2.33,2.33,0,0,1,3.27,3.29c-.79.95-1.72,1.79-2.59,2.67-2.91,2.91-5.81,5.84-8.74,8.73-1.53,1.51-2.67,1.5-4.2,0q-2.77-2.73-5.5-5.5c-1.25-1.28-1.35-2.5-.36-3.57s2.42-1,3.7.23S1927.78,339.58,1929.24,341.1Z"/><path class="cls-36" d="M1960.95,293.42c-2.25,0-4.5,0-6.75,0-1.73,0-2.71-.88-2.74-2.31s1-2.41,2.81-2.42q6.75,0,13.51,0c1.74,0,2.71.87,2.73,2.31s-1,2.4-2.8,2.42C1965.45,293.44,1963.2,293.42,1960.95,293.42Z"/><path class="cls-36" d="M1960.91,266.74c-2.26,0-4.52,0-6.78,0-1.77,0-2.7-.91-2.69-2.37s1-2.33,2.73-2.34q6.78-.05,13.56,0c1.77,0,2.73.88,2.76,2.31s-.94,2.38-2.81,2.41C1965.43,266.77,1963.17,266.74,1960.91,266.74Z"/><path class="cls-36" d="M1961,320.11c-2.25,0-4.5,0-6.75,0-1.82,0-2.85-1-2.83-2.42s1-2.3,2.89-2.3q6.67,0,13.34,0c1.88,0,2.84.84,2.83,2.36s-1,2.34-2.88,2.37C1965.42,320.14,1963.23,320.11,1961,320.11Z"/><path class="cls-36" d="M1961.12,346.72c-2.32,0-4.63,0-6.95,0-1.78,0-2.72-.88-2.73-2.32s1-2.38,2.69-2.39q6.86-.06,13.72,0c1.71,0,2.68,1,2.64,2.43s-.93,2.24-2.6,2.28C1965.64,346.75,1963.38,346.71,1961.12,346.72Z"/><path class="cls-36" d="M1952.85,230.12c-3.49,0-7,0-10.48,0-1.93,0-3.06-.94-3-2.41s1.12-2.32,3-2.32q10.48,0,21,0c1.91,0,3.06,1,3,2.44s-1.14,2.28-3,2.29C1959.84,230.13,1956.34,230.11,1952.85,230.12Z"/></svg>