<svg id="Capa_1" data-name="Capa 1" xmlns="http://www.w3.org/2000/svg" viewBox="0 0 888.5 974.12"><path d="M147.2,986.12c.06-4.8,4.22-4.1,6.91-4.75,15.63-3.74,28.41-12.11,39.63-23.34q74.63-74.76,149.46-149.3c11.14-11,16.72-22.22,7.93-37-2.56-4.3-1-7.94,2.15-11.14q27.36-27.81,55.14-55.2c5.53-5.49,10.32-2.58,15.21.8a301.44,301.44,0,0,0,67.29,35.17c70.05,25.9,141.09,29.3,212.84,8,84.18-25,148.17-76.32,192.72-151.44,28.67-48.33,42.84-101,44.25-157.57,1.42-57.16-10.42-110.88-36.37-161.55-18.55-36.23-43.76-67.47-73.65-95-7.61-7-15.55-12.36-26.19-5.92-12.93-5.84-24.83-13.19-34.4-23.9-5.58-17.45-9.72-35.31-18.54-51.73-26.43-49.2-66.76-78.63-122.08-86.52-80.36-11.47-155,43-175.52,120.56-1.85,7-2.25,14.42-6.1,20.83-9.36,7.58-20.19,13-29.53,20.67a11.77,11.77,0,0,1-8.86,2.78c-9.42-4.35-16.36-1.21-23.69,5.71-33.37,31.49-60.22,67.5-79.17,109.38-15.71,34.74-24.2,71.15-27.7,109-5.34,57.92,5.81,112.76,28.93,165.61,7.27,16.61,16.64,32.07,26.81,47,4.82,7.06,4.47,12.19-1.67,18.17q-25.54,24.87-50.44,50.4c-5.15,5.26-9.8,6.49-16.7,2.87-10.36-5.45-20.49-3.52-28.83,4.68-24.86,24.43-49.34,49.25-74.05,73.84-6.26,6.23-5.45,12.92-3.11,20.16-5.2,11.18-13.66,19.15-24.47,24.82-9.85-4.05-17.34-1-24.35,6.7-9.82,10.73-20.58,20.58-30.72,31-40,41.14-25.66,112.67,32.67,130.26,3.47,1,8.62.29,9.46,5.91" transform="translate(-54.89 -12)" style="fill:#fefefe"/><path d="M122.46,986.12c-15.3-4.89-30.16-10.35-42.2-21.84C48.4,933.89,46.11,883.91,75.9,851.47c12-13.05,25-25.13,37.36-37.87,7.06-7.3,14.4-8.45,22.73-2.54,7.66,6.3,8.3,14.05,1,21.85-10.81,11.6-22.32,22.53-33.5,33.78-11.75,11.82-18.19,25.4-16.91,42.68.84,11.4,5.15,20.74,12.08,29.3,18.07,19.39,44.77,22.1,66.05,6.66A100.91,100.91,0,0,0,177.08,935q44.26-44.36,88.6-88.65c7.68-7.69,7.64-7.73-.21-15.65-4.24-4.26-8.5-8.51-12.81-12.7-14.15-14.48-28.58-28.69-42.9-43-7.18-7.18-7.49-7.1-15.09.34-5.2,5.09-10,10.63-15.6,15.25-7.07,5.79-14.6,4.8-20.33-2.25-5.83-10.71-5.34-14.64,3.35-23.36q36.27-36.37,72.64-72.65c11.61-11.55,21.66-12.81,35.63-3.91,3.34,2.13,4.66,1.29,6.86-.91,19-19.11,37.94-38.28,57.24-57.09,4.14-4,1.79-6.28-.39-9.46-26-37.75-44.34-78.91-52.25-124.08q-32.64-186.29,106-315.57c7-6.56,14.12-7.82,22.16-2.3,7.57,6.18,8.39,13.48,2,21.18-4.65,5.62-10.11,10.51-15.3,15.64-50.83,50.3-81,111.08-88.26,182-9.7,94.31,18.33,176.37,84.44,245,53,55.06,118.43,84,193.71,90.86a267.57,267.57,0,0,0,95.26-8.14c63.17-15.1,115.37-48,157.84-96.89,37.38-43.07,61.06-92.7,69.1-149,13-91.07-8.54-173-68-244.25a275.85,275.85,0,0,0-33.46-33.69c-10.47-8.89-11.27-16.81-3.76-24.75,10.26-7.19,14.37-7.22,23.48.75,64.9,56.82,104.28,127.63,114,213.58C960.17,559.45,859.3,709.59,696,753.87c-97.26,26.37-189,10-273.26-45.54-6.64-4.36-9.9-4.35-15.4,1.43-17.05,17.92-34.86,35.12-52.29,52.68-2.15,2.18-5.54,3.43-2.42,8.33,9.26,14.57,7.79,23.83-4.6,36.23q-59.17,59.26-118.45,118.44C219,936,208.1,946.19,198,957.14c-13.95,15.12-31,24.29-50.8,29Z" transform="translate(-54.89 -12)"/><path d="M446.37,156.25c5.11-21.19,10.56-42.3,21.93-61.19C503.08,37.29,554.42,7.7,621.63,12.51c70.11,5,124.13,51.28,144.17,117.85,2.37,7.86,4.08,15.91,6.1,23.88,5.6,10.44,6.83,22.16,5.65,33.24-2.41,22.59,5.42,38.06,22.08,54.24,45.33,44,72.21,98.5,77.31,162.07,9,112.62-35.78,198.73-130.52,259.38-8.82,5.64-18.63,9.52-27.84,14.48-27.6,11.73-56.1,19.41-86.2,22-72.53,6.12-137-14.26-192.95-59.73-54-44-87.2-101.12-96.47-170.59-10.77-80.79,10.8-152.64,63.57-214.86a208.5,208.5,0,0,1,27.76-27.34c5.17-4.18,7.27-9,7.39-15.55C442,196,440.2,180.44,443.21,165,443.82,161.92,444,158.69,446.37,156.25Z" transform="translate(-54.89 -12)"/><path d="M446.37,156.25c-2.58,20.18-2.87,40.46-2.42,60.75.1,4.44-1.89,6.9-4.9,9.49q-100.87,86.86-95.89,219.93C347,551,422,650.13,522.44,683.57q97.42,32.45,192-6.81a30.83,30.83,0,0,1,3.59-1c2.68,3.48,3,3.73.38,7.5-11.06,15.63-21.77,31.57-36.15,44.52-48.85,13-98.13,13.37-146.53,0C414.1,694.15,336.19,615.42,310.52,491.93,287.22,379.82,321.57,283,405.08,204.2c10.55-10,11.56-14.08,4.85-25.23,11-2.86,17.64-12.79,27.67-17.29C440.71,160.28,443.46,158.08,446.37,156.25Z" transform="translate(-54.89 -12)" style="fill:#f7f1ef"/><path d="M682.31,727.74c10-13.12,20.27-26.07,29.88-39.48,2.6-3.63,7.82-6.58,5.89-12.54,36.9-17.92,69.42-41.49,96-73.09C907.86,490.93,894,323.18,782.8,228.89c-5.25-4.45-8-8.69-7.61-15.9a287.54,287.54,0,0,0-3.29-58.75L803.57,177c-5.12,8.95-2.66,16,4.87,22.49,57.06,49.39,93.3,111.27,103.07,186,15.87,121.39-25.86,220.25-123.88,294.23A263.77,263.77,0,0,1,682.31,727.74Z" transform="translate(-54.89 -12)" style="fill:#ede0db"/><path d="M158.74,788.3c10.56,6,14.5,5.34,23.4-3,7.07-6.62,13-19,21.19-18.52,7.13.42,13.71,11.85,20.38,18.57,10.21,10.29,20.29,20.72,30.43,31.09.86,4.6-2.73,6.83-5.29,9.4Q200.34,874.52,151.67,923c-10.9,10.83-24.41,16.7-39.39,19.27-5,.85-10.1,1.18-14.69-1.84-19-19.47-19-50.21.46-71,11.25-12,23.24-23.31,34.81-35,8.58-8.68,9.08-12.87,3.13-23.4Q147.38,799.69,158.74,788.3Z" transform="translate(-54.89 -12)" style="fill:#fcb340"/><path d="M97.59,940.47c23,1.06,41.58-7.57,57.59-24,30.36-31.08,61.35-61.54,92-92.29,2.45-2.45,4.62-5.18,6.92-7.78a2.87,2.87,0,0,1,.87.38c6.82,7,18.08,13.44,19.15,21.26,1,7.27-11.41,13.66-18,20.32q-40.83,41.25-82.07,82.09C150.72,963.53,117.51,963.33,97.59,940.47Z" transform="translate(-54.89 -12)" style="fill:#fd9800"/><path d="M275.06,795.63c-16.18-16-32.27-32-48.6-47.82-3.33-3.22-2.15-4.94.51-7.51q11.91-11.55,23.44-23.48c2.85-3,4.77-4.09,8.26-.47,15.33,15.91,30.94,31.54,46.45,47.27,2,2.13,1,4.24-.49,5.85-8.25,9-16.58,17.91-26,25.69A3.52,3.52,0,0,1,275.06,795.63Z" transform="translate(-54.89 -12)" style="fill:#f7f1ef"/><path d="M320.33,737.07c-7.7-7.46-15.28-15.06-23.18-22.31-3.32-3-2.28-4.84.39-7.48,18.2-18,36.39-36.07,54.3-54.39,3.64-3.72,5.36-2.3,8.05.67,6.38,7,13,13.81,19.51,20.7,2.43,3.23,0,5.48-1.88,7.39-18,18.27-35.94,36.69-54.58,54.35A5,5,0,0,1,320.33,737.07Z" transform="translate(-54.89 -12)" style="fill:#6d7fa9"/><path d="M275.06,795.63c10.4-10.31,22.64-18.9,30.06-32,6.58,6.37,13,12.91,19.79,19,3.36,3,2.43,4.86-.34,7.53q-12,11.53-23.53,23.53c-2.88,3-4.94,4.2-8.29.39C287.12,807.72,281,801.77,275.06,795.63Z" transform="translate(-54.89 -12)" style="fill:#ecdfda"/><path d="M320.33,737.07c16.49-19,35.34-35.71,52.7-53.87,2.53-2.65,6.2-4.58,6.37-8.94,12.77,10.67,12.77,10.67,1.12,22.32L339,738.14C329.37,747.72,329.37,747.72,320.33,737.07Z" transform="translate(-54.89 -12)" style="fill:#49669a"/><path d="M783.05,593.84c-32.94,36.37-73.66,60.43-121.41,69.82-100.16,19.71-182-12.06-244.95-92.41a21.09,21.09,0,0,1-4.78-14.83c.65-14.54-.62-29.1,1.47-43.65,3.21-22.32,13.73-39.78,32.58-52.23,13.1-8.65,27.72-13.71,42.48-18.55,4.61-1.52,7.89.78,11.44,2.86,26.76,15.7,53.94,30.73,80.17,47.26,20,12.6,38.37,13,58.43.33,22.19-14,45.34-26.43,68.08-39.54,5.64-1.08,10.49,1.44,15.43,3.44,43.22,17.53,63.63,47.83,63.64,94.41q0,15.63,0,31.27C785.63,586.16,785.56,590.26,783.05,593.84Z" transform="translate(-54.89 -12)" style="fill:#fc4755"/><path d="M590.5,379c-26.66-5.44-48.33-20-67.69-38.16-24.24-22.81-42.54-49.39-49-82.78-2.84-14.75-.87-29.74-1.48-44.61-.15-3.8,2-5,5-5.58,19.21-3.81,34.25-14.68,46.87-28.9,8.25-9.29,17.35-12,28.82-7.67,1.47.56,3.09.73,4.56,1.28,34.65,12.94,69.36,13.07,103.89-.13,14.55-5.57,26.29-3.49,36.12,9.24,5.62,7.28,13.55,12.28,20.93,17.72,4.2,19.81,4.58,39.89-1.82,59-18.55,55.31-55.07,94.56-108.88,117.48C602.31,378.2,596.64,379.94,590.5,379Z" transform="translate(-54.89 -12)" style="fill:#fee4c0"/><path d="M716.52,159.89c-18.13-20.38-40-23.29-64.8-14.45-8.31,3-17.23,4.17-25.67,6.82-16.79,5.26-32.56,0-48.49-4-6.13-1.54-12.26-3.15-18.32-5C538,136.93,520,141.7,504.8,158c-7.57,8.11-15.47,15.9-26.24,20-4.15,1.57-5.9,1.07-5.38-3.79C480.33,106.21,521,57.1,582.11,43.5c34.52-7.7,66.52-1.64,96.3,17.15,18.05,16.31,27.34,37.71,34.5,60.21a162.23,162.23,0,0,1,6.5,31.6C719.71,155.2,721.63,159.05,716.52,159.89Z" transform="translate(-54.89 -12)" style="fill:#6d7fa9"/><path d="M444.86,261.15c11.38,51.43,41,90.29,83.06,120.44,3.49,2.5,4.28,4.5,2.29,8.52-4,8.07-9.18,13.63-18.57,16-15.93,4-31.73,8.69-47.23,14.11-41.89,14.67-72.24,40.29-79.35,87.45C349.85,443.12,385,299.15,444.86,261.15Z" transform="translate(-54.89 -12)" style="fill:#22a5fd"/><path d="M766.18,289.4q4.07-14.07,8.11-28.11c57.92,32.37,95.61,185.11,59.37,245.8-4.38-31.21-20.41-54-44.95-71.19-2.56-3.55-2.7-7.63-2.77-11.79a469.23,469.23,0,0,0-17.35-119.83C767.22,299.4,765.87,294.54,766.18,289.4Z" transform="translate(-54.89 -12)" style="fill:#0181fb"/><path d="M766.18,289.4c9.22,21.27,12.9,44,16.59,66.57,4.32,26.42,6.83,53.08,5.94,79.93C763.06,421,734.8,413.1,706.4,405.66c-4.36-1.14-8.43-2.53-11.59-6-9.15-9.95-8.8-14.05,1.83-22A213,213,0,0,0,766.18,289.4Z" transform="translate(-54.89 -12)" style="fill:#22a5fd"/><path d="M590.5,379c62.77-19.54,103.32-61.62,124.55-123.14,3.55-10.28,3.47-21.05,3.3-31.8-.14-8.21.11-16.43.18-24.65,4.64,2,9.19,4.18,13.92,5.91,14.34,5.23,13.12,5.27,14.58,22,6.34,73-64.83,140.55-118.4,152.26C615.81,382.35,603.14,383.66,590.5,379Z" transform="translate(-54.89 -12)" style="fill:#fdd0a2"/><path d="M668.69,441q-25.25,15-50.47,30c-4.9,2.92-9.87,4.26-15.17,1.16-23.66-13.83-47.3-27.68-72.35-42.34,8.88-4.27,14.39-10.49,19.84-16.78,3.52-2.36,6.71-.26,9.93.78,26.1,8.4,52.44,12,79.39,4.12,2.78-.81,6.41-1.8,8.18.4C654.48,426.31,663.71,431.74,668.69,441Z" transform="translate(-54.89 -12)" style="fill:#fdd0a2"/><path d="M783.05,593.84c-.81-21.42,1.74-42.92-1.53-64.29-5.48-35.93-28.29-57.09-60.08-70.62-4.92-2.1-9.92-4-14.88-6,5.06-3.19,10.14-6.37,15.18-9.59,2.21-1.41,4.48-2.46,7.16-1.64,23.18,7.11,45.8,15.11,61.88,34.92,13.43,16.55,15.67,36.21,16.34,56.38.07,2.22-.33,4.5.06,6.65C811.5,563.23,798.83,579.22,783.05,593.84Z" transform="translate(-54.89 -12)" style="fill:#e31e2b"/><path d="M668.69,441c-6.92-5.82-15.51-9.89-19.32-18.95-1.1-2.62-3.48-3.62-6.34-2.65-31.72,10.78-62.28,4.73-92.49-6.4a3.87,3.87,0,0,1,.22-.92c6.82-13,6.9-13.19,20.3-8.44,27.78,9.85,55.27,8.81,82.4-2.09,5.65-2.27,8.76-2.45,11.48,4,4.39,10.42,12.09,18.3,22.52,24C681.53,434.46,675.07,437.68,668.69,441Z" transform="translate(-54.89 -12)" style="fill:#febb84"/><path d="M716.52,159.89c2.87-5.95-.43-11.52-1.21-17.18-4.28-30.92-18.51-57.44-36.9-82.06,31.77,17.91,50.15,46.06,60.64,80,3.78,12.24,6.62,24.78,6.32,38.6C733.14,175.82,724,169.12,716.52,159.89Z" transform="translate(-54.89 -12)" style="fill:#49669a"/></svg>