<svg id="Capa_1" data-name="Capa 1" xmlns="http://www.w3.org/2000/svg" viewBox="0 0 964.77 964.91"><path d="M242.23,392.05c15.71,40,7.17,65.47-29.2,88.67q39.27,62.91,78.54,125.83C311.29,638.11,330.55,670,351,701c8.37,12.69,9.18,24.89,4.9,38.6-8.54,27.34-27.55,45.74-51.49,59.46-42.75,24.49-89.36,31.21-137.78,27.83-29.94-2.09-58.77-9-85.78-22.48-19.7-9.82-37-22.66-49.69-40.94a85.25,85.25,0,0,1-13.26-31c-2.27-10.43-.74-19.37,5-28.54,45.33-72,90.28-144.25,135.55-216.3,3.27-5.21,4.12-7.47-2.31-11.29-28-16.6-37.77-48.44-25-78.3.72-1.69,2.52-3.13,1.4-6-13.91,0-28.07.06-42.24,0-37.24-.21-65.55-23.29-72.48-59-6.53-33.63,12.08-65.56,46.26-79.35,12.88-5.2,25.84-10.2,38.65-15.55,6.72-2.81,12.8-2.26,18,2.78s5.78,10.93,3.29,17.84c-8.16,22.68,3.82,39.89,27.71,39.9q146.35.11,292.72.16c6.08,0,9.09-1.17,8-7.8a41.55,41.55,0,0,1-.06-6.79c0-15.48,0-15.48-15.44-16.7-9.63-.77-15.47-6.49-15.59-16.35q-.37-30.14,0-60.29c.13-10.78,6.16-16.33,17.16-16.7,17.53-.6,17.53-.6,21.69-17.74a13.31,13.31,0,0,1,.38-1.9c5.05-12.66,4.34-21.84-7.25-33-24.86-24-21.33-64.77,4.61-87.38,26.19-22.82,65.6-20.23,88,5.79,23,26.72,20,66.18-7.33,88.29-5.19,4.19-6.42,7.6-4.53,13.66,2.71,8.63,4.76,17.48,6.66,26.33,1,4.49,2.75,6.49,7.66,6.06,26.23-2.35,29.57,5.72,28.62,29.68-.58,14.56-.07,29.17-.12,43.76s-5.4,20.47-20,19.61c-9.53-.57-11.78,2.2-11.4,11.51.81,19.85.24,19.87,20.27,19.87H842.93c27.87,0,39.12-15.05,30.67-41.27-2-6.24-1-11.62,3.4-16.13,4.67-4.82,10.44-6.25,16.9-3.65C909.78,244,926,249.71,941.45,257c30,14.11,45.23,46.56,38.17,79.34a71,71,0,0,1-67.43,55.61c-15.54.37-31.1.07-46.39.07-1.76,2.51.21,4,.91,5.58,13,30.2,3.09,62.48-25.2,79.06-6.13,3.59-5,5.88-2.13,10.54C883.71,557.9,927.45,629,972.47,699.28c10,15.64,10.24,29.9,4.11,45.77-9.45,24.46-27.44,41.35-49.59,54-42.78,24.44-89.36,31.23-137.78,27.85-29.94-2.08-58.77-9-85.79-22.45-21.22-10.6-39.55-24.6-52.39-45-6-9.44-9.37-19.81-11.39-30.74-1.7-9.17.92-16.94,5.81-24.72q67.62-107.68,135-215.51c3.67-5.83,4.52-8.47-2.51-12.69-27.38-16.43-36.9-48.23-24.31-77.72.72-1.68,2.51-3.12,1.42-6.06h-9.12c-63.54,0-127.07.09-190.61-.13-6.89,0-9.83.77-9.81,9.05q.5,173.61.14,347.22a21.45,21.45,0,0,0,4.22,13.33c15.29,21.53,15.5,48.24.16,69.84-4.07,5.73-4.59,10.75-2.85,17.09,5.59,20.36,19.21,31.79,39.48,35.3,36,6.24,72.13,12.12,108.24,18,23.84,3.84,39.13,21.65,37.46,44.09-1.62,21.75-19.52,37.62-43,37.63q-190.6.09-381.22,0c-22.85,0-40.6-15.77-42.44-37.13-1.91-22.1,13.05-40.57,36-44.37q54.12-9,108.26-17.84c16.29-2.66,29.27-10.2,37-25.22,5.17-10.09,6.91-19.17-.54-30.44-14.64-22.13-12.83-45.39,2.06-67.27a20.59,20.59,0,0,0,3.95-12.43q-.13-174.1-.09-348.19c0-4.22,1.68-8.69-6.12-8.65C378.48,392.18,310.74,392.05,242.23,392.05Z" transform="translate(-16.57 -18.56)"/><path d="M89.63,276.94c5.6,27.9,20.76,46.18,48.86,51.74,6,1.18,12.23,1.07,18.36,1.07q340.8.08,681.59.05c41.26,0,59-13.21,70.38-52.82,6.89,2.87,14,5.24,20.49,8.66,15.75,8.26,24.05,26.76,20.1,43.55-4.23,18-19,30.62-37.17,31.65-2.26.13-4.53.08-6.8.08q-406.43,0-812.85.05c-7.9,0-15.61-.58-22.63-4.37-13.91-7.53-21.85-19.21-22.07-35.17s7-28.13,21-35.78C75.28,282.1,82.46,279.89,89.63,276.94Z" transform="translate(-16.57 -18.56)" style="fill:#f1c251"/><path d="M187.84,499.23c42.91,68.69,84.79,135.71,127.24,203.64H60.54Z" transform="translate(-16.57 -18.56)" style="fill:#fefefe"/><path d="M937.68,703H682.94C725.37,635.13,767.32,568,810.27,499.25Z" transform="translate(-16.57 -18.56)" style="fill:#fefefe"/><path d="M498.3,952.32q-92.85,0-185.71,0c-2.9,0-6,.25-8.68-.54-4.4-1.28-7.26-4.53-7-9.34.31-5.62,3.83-8.66,9.25-9.57q29.2-4.89,58.41-9.76c18.18-3.06,36.41-5.93,54.53-9.34,29.14-5.49,49-22.42,59.25-50.16,2.13-5.78,4.39-7.7,10.36-5.93a38.42,38.42,0,0,0,21.13-.07c4.58-1.23,7.27-1,9.31,4.67,11.21,31.43,34.38,48,66.93,53.07,34.53,5.37,68.94,11.53,103.44,17.13,6.45,1,11.83,3.24,11.53,10.45-.32,7.88-6.25,9.47-13.16,9.46Q593.1,952.25,498.3,952.32Z" transform="translate(-16.57 -18.56)" style="fill:#d7913e"/><path d="M483.49,563.11c0-53.44.17-106.88-.17-160.32-.05-8.07,1.29-11.3,10.39-11,20.89.71,20.91.17,20.91,20.68q0,156.43.09,312.88c0,7.28.23,12.86-9.88,9.46a19.38,19.38,0,0,0-11.53,0c-10.07,3.38-9.94-2.1-9.91-9.44C483.58,671.29,483.49,617.2,483.49,563.11Z" transform="translate(-16.57 -18.56)" style="fill:#8e6128"/><path d="M217,794.5c-43.1,5.68-84.51.28-123.75-19-12.92-6.35-24.37-14.7-33.51-26-3.42-4.22-6.57-8.62-8.24-14.81H275.22c1.48,4-1.12,6.87-3.15,9.62a217.3,217.3,0,0,1-43,44.24A37.19,37.19,0,0,1,217,794.5Z" transform="translate(-16.57 -18.56)" style="fill:#e29754"/><path d="M839.47,794.5c-43.1,5.68-84.51.28-123.75-19-12.92-6.35-24.37-14.7-33.51-26-3.42-4.22-6.57-8.61-8.24-14.81H897.69c1.48,4-1.12,6.87-3.15,9.62a217.3,217.3,0,0,1-43,44.24A37.19,37.19,0,0,1,839.47,794.5Z" transform="translate(-16.57 -18.56)" style="fill:#e29754"/><path d="M217,794.5c23.21-16.21,43.55-35.21,58.22-59.75h50.69C299.72,776.42,260,788.43,217,794.5Z" transform="translate(-16.57 -18.56)" style="fill:#c06b3f"/><path d="M839.47,794.5c23.21-16.21,43.55-35.21,58.22-59.75h50.69C922.19,776.42,882.48,788.43,839.47,794.5Z" transform="translate(-16.57 -18.56)" style="fill:#c06b3f"/><path d="M174.2,450.55c-13.1-7.07-19.46-19.09-17.18-32.45a32.16,32.16,0,0,1,25.7-25.71c13.2-2.29,25.61,4.28,32.44,17.18,1.66,3.3.19,6.37-1.24,9.07-7.23,13.71-18.21,23.8-31.48,31.51A8.22,8.22,0,0,1,174.2,450.55Z" transform="translate(-16.57 -18.56)" style="fill:#f6d780"/><path d="M796.67,450.55c-13.11-7.08-19.48-19.12-17.18-32.47a32.22,32.22,0,0,1,25.74-25.71c13.4-2.28,25.62,4.25,32.37,17.27,1.73,3.3.19,6.35-1.23,9-7.25,13.68-18.21,23.77-31.46,31.47A8.22,8.22,0,0,1,796.67,450.55Z" transform="translate(-16.57 -18.56)" style="fill:#f6d780"/><path d="M506.83,236.11c-16.14.1-32.29.07-48.43.39-4.54.08-5.92-1.28-6.16-6-1.32-25.26-1.47-25.28,23.62-25.24,16.15,0,32.29.18,48.43.28C526.47,215.14,518.1,229.77,506.83,236.11Z" transform="translate(-16.57 -18.56)" style="fill:#d7913e"/><path d="M475.57,816.21c-11-13.66-10-30.91,2.5-42.44s29.68-10.9,42.54,1.22c2.21,3.8.17,6.93-1.79,9.88A98.1,98.1,0,0,1,484.71,816C481.75,817.69,478.66,818.37,475.57,816.21Z" transform="translate(-16.57 -18.56)" style="fill:#d7913e"/><path d="M477.45,102.31c-12.2-12.66-12.74-30.1-1.3-42.51s29-13.54,42.41-2.45c-1.67,15.79-11.7,26.47-22.91,36C490.55,97.72,485.59,103.62,477.45,102.31Z" transform="translate(-16.57 -18.56)" style="fill:#d7913e"/><path d="M477.45,102.31c20.21-9,32.63-25.19,41.11-45,14.17,12.18,15.6,31.07,3.37,44.31S491.19,115.31,477.45,102.31Z" transform="translate(-16.57 -18.56)" style="fill:#bb7e35"/><path d="M475.57,816.21c21.23-6.94,36-21,45-41.22,13,13.59,12.71,32.17-.64,44.53S488.21,830.39,475.57,816.21Z" transform="translate(-16.57 -18.56)" style="fill:#bb7e35"/><path d="M483.49,283.13c0-15.59,0-15.59,18-15.59,13.16,0,13.16,0,13.15,18.46,0,12.68,0,12.8-18.93,12.63C481.35,298.5,483.75,300.92,483.49,283.13Z" transform="translate(-16.57 -18.56)" style="fill:#8e6128"/><path d="M506.83,236.11c7.7-9.11,15.64-18.07,17.46-30.53,21.48-1,21-1,21.69,20.13.3,9.09-2.55,11.6-11.18,10.86C525.53,235.78,516.16,236.21,506.83,236.11Z" transform="translate(-16.57 -18.56)" style="fill:#bb7f35"/><path d="M174.2,450.55c20.06-7.26,33.37-21.27,41-41,6.31,13.37,4.25,26.13-5.77,35.88C199.62,454.94,187.33,456.72,174.2,450.55Z" transform="translate(-16.57 -18.56)" style="fill:#efc150"/><path d="M796.67,450.55c20-7.24,33.33-21.23,40.93-40.91,6.31,13.09,4.39,25.66-5.42,35.48S810,456.77,796.67,450.55Z" transform="translate(-16.57 -18.56)" style="fill:#efc150"/><path d="M497.7,174.17c-8.91,2.15-10.58-2-7.21-10.76,1.94-5.07,2.79-10.57,4.14-15.87.56-2.21,1-4.35,4.06-4.51,3.56-.19,4.23,2.12,4.87,4.74,1.21,5,2.46,10,3.71,15C510.13,174.18,510.13,174.18,497.7,174.17Z" transform="translate(-16.57 -18.56)" style="fill:#8d6027"/></svg>