<svg id="Capa_1" data-name="Capa 1" xmlns="http://www.w3.org/2000/svg" viewBox="0 0 984.71 984.17"><path d="M992.29,926.06c0-25-1.4-26.65-26.23-27.58-7.3-.28-10.31-2.93-10.18-10.29.19-10.86.59-21.75-.25-32.59-1-12.48-7.73-19.08-20.1-20.34a48,48,0,0,0-7.67-.24c-7.29.47-10.46-2.77-10.35-10.14.14-9.26.39-18.54-.19-27.8-1-15.43-5.63-20.78-20.92-23.48-4.95-.88-7.42-3-7.54-8-.09-3.51-.13-7-.13-10.54V463.5c0-4.15.13-8.31-.14-12.46-.72-11.41-5-16-16.82-18.4-10.47,1.5-15.26,8.45-17.17,18-1.07,5.37-.73,10.84-.73,16.28q0,143.06,0,286.12c0,3.52-.14,7,0,10.56.23,6.77-2.67,10-9.67,9.87-7.35-.12-14.72-.27-22.07.2-16.61-.58-33.23-.09-49.84-.25-13.41-.12-14-.58-14-14.1q-.1-58.47,0-116.94,0-145.69,0-291.4c0-14.6.38-14.85,15.12-15,16-.13,31.94.35,47.92-.28,7.37.2,14.74.35,22.08,0,7.82-.38,11,2.76,10.76,10.62-.27,10.55-.66,21.14.28,31.66,1.15,12.94,5.79,18.28,17.17,20.74,12.16-1.78,16.26-5.95,16.73-18,.46-11.83.24-23.68.1-35.51-.08-6.2,2.2-9,8.62-10.07,14.22-2.39,19.56-9,20.12-23.54.38-9.91.29-19.85.05-29.76-.18-7,2.75-9.74,9.69-9.64,14.71.2,29.44.14,44.15,0,16.8-.14,21.22-4.53,21.23-21q0-49.42,0-98.86c0-16-3-19.71-18.84-24.07-20.05-5.54-40.28-10.37-60.39-15.66C782.78,78.41,652.29,45,522,10.71c-14.82-3.9-29.45-3.63-44.45.23C372.23,38.07,267.06,65.85,161.73,93Q93.42,110.67,25.18,128.55c-7.4,1.93-14,4.62-17.08,12.38V260c2.23,9.38,8.63,12.61,17.71,12.59,15-.05,30.09-.16,45.12.06,9.89.14,10.76,1.11,11,11.22.16,8.63-.14,17.28.11,25.91.48,16.43,4.92,22.16,21.12,25.85,5.48,1.25,7.56,4,7.54,9.17,0,2.56.07,5.12.07,7.68V756.63c0,2.56-.1,5.12,0,7.68.12,5.7-2.19,8.54-8.24,9.41-13.89,2-18.68,7.3-20.11,21.15-.89,8.61-.31,17.27-.4,25.91-.15,13.67-.18,13.71-13.93,14.28-17.14.7-24,7.7-24.42,25.17-.25,9.92,0,19.84-.13,29.76-.08,5.44-2.35,8.36-8,8.33-3.19,0-6.4.18-9.6.1C16.73,898.18,10.33,901.6,8.1,911v71a11.92,11.92,0,0,0,9.6,9.6H981.76c8.43-1.93,10.69-7.8,10.59-15.7C992.15,959.31,992.29,942.68,992.29,926.06ZM410.41,776.73c-13.41-.38-18.15,4.88-18.2,18.62,0,12.16-.31,24.33.12,36.47.19,5.6-1.67,6.84-7,6.79q-38.88-.4-77.77,0c-5.38,0-7.27-1.41-7.09-7,.4-12.15.2-24.32.1-36.48-.1-13.79-4.74-19-18.34-18.32-8.45.44-8.95-3.16-8.93-9.86q.26-125.3.1-250.59c0-13.39-2.08-16.18-14.15-19.61-3.41-12.9-5.3-25.75,1.4-38.29,9.39-2,12.88-8,12.83-17.34-.19-33.28.1-66.56-.21-99.85-.06-6.64.84-9.6,8.63-9.38,14.44.42,18.6-4.37,18.68-19,.07-12.16.2-24.32-.08-36.48-.11-4.86,1.19-6.72,6.41-6.67q39.84.36,79.69,0c5-.05,5.73,2,5.66,6.22-.21,12.48-.11,25-.06,37.45.05,13.69,4.68,18.88,18.3,18.53,7.2-.19,8.93,1.69,8.92,8.92q-.36,213.63,0,427.25C419.47,775.65,417.23,776.92,410.41,776.73Zm305.8,0c-12.3-.51-17.18,4.88-17.32,17.44s-.31,25,.09,37.44c.18,5.62-1.78,7-7.12,7q-38.88-.35-77.76,0c-5.34.06-7.16-1.23-7-6.8.42-12.15.17-24.32.12-36.47-.06-13.72-4.84-19.23-18.22-18.54-8.25.43-9-2.9-8.95-9.7.27-40,0-80,.2-120,0-9.94-3.36-16.74-13.74-18.73a7.89,7.89,0,0,1-4-7.18c.44-10.26-3.36-21,3-30.64,12.12-3.54,14.73-6.95,14.73-19.81,0-75.83.11-151.67-.13-227.51,0-7.84.59-12,10.34-11.4,11.65.73,16.71-5.25,16.82-17,.12-12.48.28-25-.08-37.43-.16-5.5.78-7.81,7.15-7.71q38.4.61,76.8,0c6.59-.11,8.09,2.1,7.88,8.17-.42,11.83-.19,23.68-.11,35.52.1,14,4.42,19,18.18,18.52,8.17-.29,9.13,2.9,9.12,9.86q-.27,212.63.08,425.26C726.27,775.25,724,777.09,716.21,776.76Z" transform="translate(-7.65 -7.91)"/><path d="M8.1,982l9.6,9.6Q5.52,994.23,8.1,982Z" transform="translate(-7.65 -7.91)"/><path d="M918.4,240.64c-3.19.13-6.38.37-9.57.37q-430.61,0-861.2.2c-8.47,0-11.27-1.71-11-10.7.74-21.74.45-43.52.08-65.27-.09-5.56,1.64-7.66,6.93-9Q268.91,97.86,494,39.12a23.17,23.17,0,0,1,12.15.15Q710.51,92.43,914.83,145.6a30,30,0,0,1,3.57,1.4c3.15,3.32,3,7.54,3,11.64q.15,35.18,0,70.35C921.41,233.09,921.53,237.31,918.4,240.64Z" transform="translate(-7.65 -7.91)" style="fill:#feefae"/><path d="M822.28,776.22c-20.45.12-40.9-.09-61.33.5-7.63.22-6.09-4.36-6.09-8.56q0-127,0-254.07c0-57.52.13-115-.15-172.57,0-7.2,1.37-9.91,9.24-9.58,19.44.8,38.93.6,58.4.81,3.18,3.72,3.14,8.25,3.14,12.73q.07,209.06,0,418.11C825.45,768,825.85,772.65,822.28,776.22Z" transform="translate(-7.65 -7.91)" style="fill:#feefae"/><path d="M515.08,776.24c-20.45.11-40.89.08-61.33.41-4.79.08-6.3-1.67-5.72-6.09a30.57,30.57,0,0,0,0-3.83q0-212.34-.18-424.68c0-7.82,1.65-10.44,9.82-10.11,19.12.79,38.29.58,57.44.78,3.12,3.75,3.07,8.28,3.08,12.76q.07,209.06,0,418.1C518.18,768,518.61,772.64,515.08,776.24Z" transform="translate(-7.65 -7.91)" style="fill:#feefae"/><path d="M926.07,962.52c-3.19.1-6.38.3-9.57.3q-434.37,0-868.72.26c-9.61,0-11.38-2.64-11.1-11.54.69-21.82.22-21.83,21.71-21.83q428.12,0,856.24,0c3.82,0,7.64.29,11.47.44C930.65,941,930.81,951.74,926.07,962.52Z" transform="translate(-7.65 -7.91)" style="fill:#feefae"/><path d="M207.88,776.26c-20.13.1-40.26,0-60.39.41-4.81.08-6.33-1.57-5.77-6a38.24,38.24,0,0,0,0-4.79q0-211.43-.19-422.84c0-8.53,1.79-11.53,10.84-11.09,18.48.91,37,.59,55.54.77,3.27,4.09,3,9,3,13.75q.06,208.1,0,416.18C210.92,767.33,211.57,772.31,207.88,776.26Z" transform="translate(-7.65 -7.91)" style="fill:#feefae"/><path d="M207.88,776.26l.06-443.58c9.88-.18,19.78,0,29.62-.68,6.43-.45,7.19,2.34,7.16,7.76-.21,33.52-.16,67.05-.08,100.57,0,12.17,4,16.5,16,18.13-2.54,12.69-.08,25.56-1.41,38.29-11.88,3.11-14.63,6.72-14.63,19.76,0,83.2-.19,166.4.22,249.6.05,9.14-2.73,11.32-11.09,10.59C225.19,776,216.51,776.36,207.88,776.26Z" transform="translate(-7.65 -7.91)" style="fill:#fedf7d"/><path d="M515.08,776.24l0-443.52c8.28-.19,16.62.14,24.83-.72,8.95-.95,11.77,1.55,11.7,11.17-.48,67.72-.25,135.45-.25,203.17,0,8.31.37,16.64-.09,24.92-.59,10.57,3.52,17.19,14.15,19.3.43,12.6-1.4,25.27,1.07,37.81-11.76,2.26-15.09,6.08-15.11,18-.06,40.47-.2,80.95.15,121.42.06,7-1.43,9.59-8.81,9C533.59,776,524.31,776.35,515.08,776.24Z" transform="translate(-7.65 -7.91)" style="fill:#fedf7c"/><path d="M822.28,776.22q0-221.73.05-443.47a3.89,3.89,0,0,1,.91-.26c11.07-.32,24.92-4.54,32.36,1.4,6.77,5.41,1.43,19.71,2,30.06.3,5.07-.06,10.18.08,15.27.32,11.36,3.32,14.92,14.59,17.67l0,37.75c-12.46,4-14.58,6.92-14.58,21q0,155,.17,310.05c0,8.33-1.47,12.09-10.69,11C839,775.79,830.59,776.34,822.28,776.22Z" transform="translate(-7.65 -7.91)" style="fill:#fedf7d"/><path d="M499.73,901q-206.34,0-412.68.19c-8.87,0-12.15-1.53-11.8-11.28.79-22.65.23-22.67,23.22-22.67q406.44,0,812.89.07c14.16,0,12.48-1.69,12.53,12,.08,21.68,0,21.68-22,21.68H499.73Z" transform="translate(-7.65 -7.91)" style="fill:#e2a83f"/><path d="M236.62,838q-58.41.24-116.81.53c-4.18,0-5.86-1.61-5.44-5.65a6.15,6.15,0,0,0,0-1c-1.32-26.56-1.32-26.6,25.51-26.55q48.36.11,96.72.32C241.39,816.46,241.25,827.23,236.62,838Z" transform="translate(-7.65 -7.91)" style="fill:#fecf64"/><path d="M542,838c-38.6.16-77.2.25-115.8.54-4.4,0-5.68-1.7-5.2-5.64a17.39,17.39,0,0,0,0-1.91c.23-8.23-2.61-19,1.53-24,4.37-5.25,15.54-1.55,23.72-1.58,31.91-.09,63.81.13,95.72.24C546.73,816.45,546.58,827.23,542,838Z" transform="translate(-7.65 -7.91)" style="fill:#fecf64"/><path d="M849.24,838q-57.9.22-115.8.51c-3.75,0-5.49-.73-5.89-5.14-2.57-28-2.7-28.06,25-28q48.33.09,96.67.31C854,816.46,853.86,827.23,849.24,838Z" transform="translate(-7.65 -7.91)" style="fill:#fecf64"/><path d="M918.4,240.64V147c12.92,3.2,25.83,6.48,38.78,9.55,4.05,1,5.52,2.89,5.48,7.22q-.35,35.8,0,71.63c0,4.84-1.75,5.82-6.1,5.7C943.85,240.75,931.12,240.77,918.4,240.64Z" transform="translate(-7.65 -7.91)" style="fill:#fedf7d"/><path d="M115.84,302.2c-2.8-10.24-1.76-20.54-.48-30.84,7.57-1.72,15.24-.68,22.86-.72,30-.15,60.05-.08,90.07-.05,9.8,0,10.81,1,11.4,10.8,1.28,21.31.84,21.78-20.58,21.78q-47,0-93.9-.05C122.09,303.12,118.81,304,115.84,302.2Z" transform="translate(-7.65 -7.91)" style="fill:#fdce63"/><path d="M421.67,302.23c-1.25-10.24-.8-20.48-.24-30.73,2.67-1.6,5.62-.88,8.43-.89q51.7-.08,103.4,0c10.33,0,11.29,1,11.79,11.37,1,21,.78,21.21-20.18,21.21q-46.9,0-93.82,0C427.92,303.12,424.66,304,421.67,302.23Z" transform="translate(-7.65 -7.91)" style="fill:#fdce63"/><path d="M728.74,302.24c-2-10.23-1.26-20.5-.38-30.76,2-1.33,4.33-.88,6.54-.88,35.49,0,71,.24,106.47-.21,8.27-.11,10.56,3.18,11,10.53,1.26,21.51.73,22.25-20.21,22.25q-47,0-94,0C735,303.12,731.73,303.94,728.74,302.24Z" transform="translate(-7.65 -7.91)" style="fill:#fdce63"/><path d="M421.67,302.23c36.8,0,73.6-.29,110.39.11,8.15.08,10.25-2.49,10.1-10.33-.38-20.47,0-20.48-20.89-20.48l-99.84,0c1.9-3.47,5.15-1.62,7.65-1.62,47-.13,94,.06,141-.21,6.57,0,9.25,1.4,8.55,8.35a112.84,112.84,0,0,0,0,18.2c.31,5.15-.95,7.29-6.74,7.27-48.9-.2-97.81-.08-146.72-.12C424,303.37,422.81,302.62,421.67,302.23Z" transform="translate(-7.65 -7.91)" style="fill:#fcc04f"/><path d="M728.74,302.24c36.42,0,72.84-.29,109.25.07,8.31.08,11.83-1.48,11.5-10.86-.71-19.9-.16-19.91-20.5-19.92l-100.63,0c2-3.29,5.2-1.61,7.76-1.62,46.62-.11,93.24.08,139.86-.2,6.85,0,9.39,1.27,9.33,8.81-.19,24.9.14,24.9-24.78,24.91q-61.31,0-122.61,0C734.87,303.37,731.54,304.59,728.74,302.24Z" transform="translate(-7.65 -7.91)" style="fill:#fbbf4f"/><path d="M115.84,302.2c36.69,0,73.39-.26,110.09.13,8.12.09,11.17-1.64,10.92-10.46-.59-20.33-.11-20.32-20-20.34q-50.73-.06-101.47-.17c2.18-2.9,5.31-1.51,8-1.51,46.64-.09,93.28.08,139.92-.17,6.48,0,8.73,1.43,8.72,8.35,0,25.34.25,25.33-25.24,25.34-40.25,0-80.5.08-120.75,0C122.61,303.35,119,304.64,115.84,302.2Z" transform="translate(-7.65 -7.91)" style="fill:#fcc04f"/><path d="M542,838q0-16.15,0-32.33c10.15-.11,20.31-.06,30.45-.39,4.26-.14,5.93.8,6.18,5.63,1.44,27.58,1.6,27.59-26.18,27.54C548.94,838.45,545.46,838.17,542,838Z" transform="translate(-7.65 -7.91)" style="fill:#fec150"/><path d="M849.24,838q0-16.17,0-32.33c9.86-.1,19.72,0,29.56-.42,5.12-.22,6.27,1.7,6.44,6.56.95,26.68,1.09,26.7-25.53,26.64C856.21,838.46,852.72,838.17,849.24,838Z" transform="translate(-7.65 -7.91)" style="fill:#fdc04f"/><path d="M926.07,962.52l0-32.35c10.15-.15,20.31-.16,30.45-.53,4.34-.16,5.91.85,6.15,5.69,1.36,27.51,1.52,27.51-26.16,27.49C933.05,962.81,929.56,962.62,926.07,962.52Z" transform="translate(-7.65 -7.91)" style="fill:#fedf7d"/><path d="M236.62,838q0-16.15,0-32.31c9.84-.11,19.68,0,29.51-.42,4.84-.21,5.92,1.77,5.74,6.12-.28,7-.25,14,0,21,.15,4.27-.89,6.43-5.74,6.21C256.28,838.13,246.45,838.16,236.62,838Z" transform="translate(-7.65 -7.91)" style="fill:#fec150"/><path d="M567.26,140.34A67.54,67.54,0,1,1,432.19,140c.06-37.37,30.52-67.81,67.7-67.67A67.71,67.71,0,0,1,567.26,140.34Z" transform="translate(-7.65 -7.91)"/><path d="M625.44,200.88c-3.18,0-6.37.19-9.54,0-8.2-.56-14.27-6.29-14.12-13.78.15-8.07,4.58-13.29,12.5-14.43a72.74,72.74,0,0,1,23.74.16c7.94,1.49,12.19,6.82,11.57,15s-5.53,12.53-13.66,13.05C632.45,201.07,628.94,200.88,625.44,200.88Z" transform="translate(-7.65 -7.91)" style="fill:#010101"/><path d="M373.49,200.75c-3.82,0-7.67.36-11.44-.08-7.25-.84-11.43-5.26-12.18-12.45s2.3-12.81,9.31-14.73a57.44,57.44,0,0,1,28.3-.18c7.07,1.65,10.62,7.23,10.1,14.26C397,195,392.74,200,384.93,200.72c-3.78.37-7.63.06-11.44.06Z" transform="translate(-7.65 -7.91)" style="fill:#010101"/><path d="M373.61,142.2c-4.14-.2-8,0-11.73-.64-8-1.37-12.34-6.39-12.05-14.57.27-7.71,4.58-12.66,12.27-13.3a140.34,140.34,0,0,1,22.83,0c8.19.65,12.65,6.12,12.66,14,0,7.49-4.35,12.54-11.95,13.82C381.6,142.19,377.41,142,373.61,142.2Z" transform="translate(-7.65 -7.91)" style="fill:#020101"/><path d="M626.36,113.05c3.81.19,7.67,0,11.4.64,7.64,1.23,11.78,6,11.87,13.72s-3.93,13.07-11.55,13.93a118.56,118.56,0,0,1-23.75.19c-8.07-.74-12.66-6.29-12.46-14.26s4.89-12.93,13-13.76c3.78-.38,7.62-.06,11.43-.06Z" transform="translate(-7.65 -7.91)" style="fill:#020101"/><path d="M482,899.41H89.52c-12.25,0-12.25,0-12.26-12.61,0-18,0-18,18.36-18H874.91c12.74,0,12.74,0,12.74,13.09,0,17.54,0,17.54-17.88,17.54Z" transform="translate(-7.65 -7.91)" style="fill:#e9af44"/><path d="M538.46,140a38.73,38.73,0,1,1-39.16-38.86C520.64,100.81,538.39,118.42,538.46,140Z" transform="translate(-7.65 -7.91)" style="fill:#fec150"/></svg>