<svg id="Capa_1" data-name="Capa 1" xmlns="http://www.w3.org/2000/svg" viewBox="0 0 631.3 991.75"><path d="M806.05,4.13c7.21,5,9.86,11.65,9.58,20.49-.53,16.76-.07,33.56-.18,50.34-.09,13.12-5.17,18.22-18.08,18.32-11.62.09-23.26.42-34.85-.14-6.28-.31-7.34,2-7.31,7.64.25,36.79.58,73.59,0,110.37C753.61,323.56,703.33,406.21,603,457.67c-17.73,9.09-27.81,22.58-27.65,42.76.16,19.79,10.23,33.14,27.64,41.81,86,42.85,135.77,112.16,150.12,206.91,3.44,22.71,2.25,45.73,2.25,68.64,0,26.14.49,52.3-.26,78.42-.27,9.33,2.87,11.19,11.22,10.65,10.61-.68,21.29-.26,31.94-.13,11.76.14,17.07,5.34,17.19,17.21.19,17.75.13,35.5,0,53.25-.07,13.61-5.14,18.65-18.75,18.66q-90.53.06-181.06,0H206.1c-17.49,0-21.56-4.1-21.57-21.67,0-16.46-.09-32.92,0-49.38.09-13,5.17-18,18.25-18.11,11-.07,22-.45,32.91.15,7,.38,9.25-1.23,9.16-8.79-.45-37.43-.93-74.89-.07-112.3C247.34,674.61,297.7,593,397.11,542.3c17.3-8.82,27.43-22.13,27.55-41.93.12-20.18-9.87-33.88-27.69-42.75C311,414.78,261.22,345.44,246.88,250.7c-3.54-23.35-2.19-47-2.2-70.57,0-26.47-.18-52.93.12-79.4.07-5.76-1.15-7.88-7.36-7.59-11.59.55-23.23.23-34.85.14-12.91-.1-18-5.19-18-18.34-.1-16.79.36-33.58-.18-50.35-.29-8.83,2.32-15.54,9.59-20.46H653c8.2,2.43,12.31,7.82,11.85,16.5-3.66,11-8.18,14.67-19.34,15.5-2.89.22-5.8.17-8.7.17H305a68.52,68.52,0,0,1-7.72-.26c-22.8.36-45.62,0-68.42.25-4.2.05-9.92-1.64-11.58,4.15s-2.24,12.31.65,17.88c2,3.93,6.87,2.72,10.6,2.76,22.81.24,45.62-.19,68.44.22,4.84-.44,9.68-.23,14.52-.23H764.63c1.61,0,3.23,0,4.84,0C782.42,60.94,787.29,53.5,783,41c-1.75-5.05-5.86-4.5-9.54-4.56-16.46-.26-32.92-.08-49.39-.12a80.19,80.19,0,0,1-11.6-.38c-9.11-1.33-15.79-5.48-17.29-15.39-.71-9,3.84-14.06,12.13-16.38Z" transform="translate(-184.35 -4.13)"/><path d="M725,233.44c-3.92,66.23-32.39,120.27-81.63,163.86-16.24,14.38-34.56,25.72-54.22,34.92-28.71,13.43-42.58,36.67-42.54,67.76s14.17,53.79,42.56,67.85q121.26,60.07,136,194.88a27.49,27.49,0,0,1-.13,3.84c.92,2.16.66,4.44.66,6.69,0,41.31-.14,82.62.15,123.94.05,6.66-1.62,8.75-8.55,8.74q-176.72-.31-353.42,0c-7.24,0-10.08-2.82-10.12-9.44s-1.23-13.57,1.77-20c4-4.48,9.37-3.57,14.38-3.59q43.8-.21,87.6,0c11.32.07,21.06-2.22,26.66-13.25,11.29-3.87,22.71-2.91,34.14-.85,7.3,14,19.88,14.65,33.72,14.47,38.7-.52,77.42-.18,116.14-.19,4.51,0,9,.13,13.44-1.23,5.46-1.68,9.24-5.14,9.16-11.06-.52-37.05,3.42-74.3-2-111.12C676,663,603.05,592.58,519.54,583a166.52,166.52,0,0,0-41.49.32c-5.74.78-11.37,2.41-17.23,2.31-5.74-.91-7.84-3.9-2.71-7.78,8-6,15.62-13,26-15,3.34.4,4.32,3.47,6.19,5.54,4.12,4.56,9.27,6,14.72,3.4,5.77-2.78,8.13-7.92,7-14.34-.56-3.09-2.45-6-1.26-9.32,8.34-10.49,18.2-19.79,21.51-33.74,4.86-20.51.09-38.1-13.89-53.5-2.59-2.85-5.71-5.23-7.55-8.71-1.17-2.95,0-5.65.94-8.37,2.1-6.32.48-11.59-5.22-14.89-6-3.49-11.71-2.13-16.52,2.83-1.76,1.82-3.08,4.14-5.63,5.11-11-1.43-18.44-9.16-26.82-15.14-3.12-2.23-3.53-5.32,1.23-6.83,11.33-.48,22.25,2.85,33.59,3.21,84.56,2.65,161-55.62,187.69-132.89,7.11-20.56,11.32-41.57,11-63.5-.39-25.46,0-50.94-.12-76.41,0-13.68-4-18-17.86-18.14-44.17-.31-88.35.13-132.52-.27-12.68-.11-17.3,7.55-21.22,17.17-11.68-2.92-24.13,1.09-35.59-3.93-5.29-10-13.81-13.11-24.79-13-29.57.34-59.15.18-88.72.06-5,0-10.42.86-14.6-3.27a12.24,12.24,0,0,1-1.64-4.52c-3.51-22.2-1.06-25.13,21-25.13h336.6c14.06,0,14.06,0,14.06,14.53q0,57.06,0,114.13C725.6,226.41,726.18,230,725,233.44Z" transform="translate(-184.35 -4.13)" style="fill:#dcdcdc"/><path d="M484.57,563.89c-9.25,4-17,10.37-25.47,15.62-2.42,1.49-4,2.92.34,3.83-.15,4.1-3.68,3.93-6.24,4.73-56.84,17.84-98.77,53.33-125,106.75C315.52,720.57,308.6,748,308.9,777c.26,26.13,0,52.25.08,78.38,0,13.09,4,17.08,17.33,17.7,6.77.31,13.55,0,20.32.14,3.5.08,7.18-.34,10,2.48,0,7.43.18,14.86,0,22.28-.14,4.86,1.51,7.36,6.66,6.88,1.6-.15,3.23,0,4.84,0q172.39,0,344.78.2c9.14,0,12-2.09,12-11.61-.41-42.27,0-84.56.14-126.84,2.12,5.61,1.34,11.48,1.36,17.24.1,37.76-.12,75.52.21,113.28.06,7.19-1.22,9.86-9.32,9.84q-217.38-.46-434.77-.3c-4.3,0-9,1.44-8.85-6.18.88-45.81-2.71-91.79,1.55-137.42,8.38-89.74,54.1-155.36,135-194.45,39.72-19.18,53.53-66.34,35.54-103.19-7.86-16.1-20.7-26.65-36.66-34.27-56.38-26.93-95.78-69.86-119-127.71a225.07,225.07,0,0,1-16.16-82.07c-.42-40,0-80-.3-120.06,0-6.28,1.6-8.11,8-8.1q218.34.23,436.7.06c4.07,0,8.25-1.18,8.2,5.82-.34,42.92-.28,85.85-.43,128.78,0,1.87-.72,3.75-1.11,5.62-.12-42.27-.54-84.55-.14-126.82.08-9.47-2.72-11.69-11.91-11.66q-172.36.47-344.74,0c-9.39,0-12.75,2.58-11.65,11.87.68,5.73.13,11.61.13,17.42-2.47,2.69-5.81,2.46-9,2.56-4.84.16-9.68,0-14.52.06-21.89.06-24.19,2.39-24.2,24.51,0,22.59.24,45.18-.05,67.76-.61,47.72,16.47,88.86,46.21,125.29,25.7,31.49,57.76,54,96.32,67.17,2.56.87,6,1.08,6.13,5,.12,6.44,6.44,6.41,9.95,9.08,5.26,4,11.32,7,17,10.37,1.65,1.23,2,3.17,2.72,4.93,4.32,10.62,7.53,12.29,19,9.94,1.59-.33,3.12-.64,4.58.34,34.53,24.37,34.59,72.57.11,97.37a3.65,3.65,0,0,1-2.68.76c-15.58-2.31-15.81-2.19-22,12.18A7,7,0,0,1,484.57,563.89Z" transform="translate(-184.35 -4.13)" style="fill:#cbcbcb"/><path d="M663,18.14a131.71,131.71,0,0,0,34.07-.05c2.23,11.29,6.34,15,17.45,15.06,21.28.11,42.57.25,63.84-.1,6.18-.11,8.22,1.41,8.23,7.93,0,23.26.28,23.26-22.78,23.26H308.24c-3.86,0-7.72-.2-11.58-.3a34.63,34.63,0,0,1,0-30.46c37.69-.09,75.37-.25,113-.28q116.94-.06,233.87,0C656.61,33.17,660.5,30.09,663,18.14Z" transform="translate(-184.35 -4.13)" style="fill:#e4915a"/><path d="M296.66,936.07c2.89-.11,5.79-.3,8.69-.3q235.29,0,470.57-.2c8.2,0,11.08,1.48,10.76,10.4-.73,20.82-.2,20.84-21.4,20.84h-457c-3.86,0-7.73-.18-11.6-.28A34.61,34.61,0,0,1,296.66,936.07Z" transform="translate(-184.35 -4.13)" style="fill:#e4915a"/><path d="M296.66,33.47V63.93c-25.47.1-50.94.12-76.4.39-4.82.05-6.61-1.19-6.84-6.43-1.07-24.72-1.25-24.75,23.29-24.7C256.69,33.23,276.68,33.38,296.66,33.47Z" transform="translate(-184.35 -4.13)" style="fill:#cb7a44"/><path d="M296.66,936.07v30.45c-25.46.1-50.93.1-76.4.37-4.8.05-6.62-1.14-6.84-6.4-1.06-24.74-1.24-24.78,23.28-24.72C256.69,935.81,276.67,936,296.66,936.07Z" transform="translate(-184.35 -4.13)" style="fill:#cb7a44"/><path d="M484.79,139.74c8.39,0,16.79.17,25.17-.12,3.9-.13,6.9.82,9.15,4,9.22,6.48,19.67,6.77,30.45,6.69,33.89-.26,67.79-.2,101.68-.05,14.31.06,16.65,2.11,16.37,16.2-.54,27.4,2.21,54.89-1.89,82.18-2.47,16.42-8.22,31.77-15.33,46.75-4.15,8.75-10.2,12.22-19.79,12.14-34.54-.27-69.08-.11-103.62-.1q-69.74,0-139.46,0c-5.14,0-10.37.5-15.27-1.71-4.24-2.5-5.71-6.8-7.07-11.13-7.36-23.51-11.92-47.46-11.58-72.23.25-18.37-.1-36.75.11-55.12.15-12.68,2.11-14.62,14.68-14.67,30-.12,59.95,0,89.92-.06,4.19,0,8.39.31,12.51-.49C477.75,150.51,479.65,143.27,484.79,139.74Z" transform="translate(-184.35 -4.13)" style="fill:#f1f2ec"/><path d="M356.65,875.65c-11.6-.18-23.21-.16-34.8-.59-10.28-.38-16.09-5-16-14.3.29-36.76-2.87-73.64,2.31-110.23,11.17-78.84,71.52-145.79,148.78-165.81a11.54,11.54,0,0,0,2.52-1.38c30.17-5.77,60.2-6.13,89.88,2.78C635.56,612,693.07,690.25,694.4,783.68c.34,24.18.13,48.37,0,72.56,0,13.9-4.77,18.82-18.51,18.85q-69.18.18-138.36,0c-12.33,0-16-3.12-19-14.75-.74-8.82,2.34-13.48,10.38-15.48,4.11-1,8.34-.78,12.53-.79q54.21,0,108.43,0c11.45,0,11-.74,12.3-12,1.89-16.46-4.11-26.73-18.51-35.26-23.57-14-45.84-30.11-68.67-45.32-47.58-31.71-102.51-31.74-150-.06-22.81,15.23-45.75,30.28-68.41,45.75-1,.78-2.09,1.52-3.16,2.23-14.86,10-18.93,20.91-15,38.53,1.28,5.7,5.3,5.73,9.5,5.88,13.5.47,27,.18,40.52.28,28.3.23,56.6-.54,84.9.38,6.88,3.09,14,6,11.35,15.92-3.17,11.72-6.78,14.73-19,14.77-32.86.11-65.72,0-98.58.06C363.7,875.17,360.18,875.48,356.65,875.65Z" transform="translate(-184.35 -4.13)"/><path d="M484.79,139.74c-.8,6.41-4.46,10.74-10,13.72-15.39,1.73-30.82.51-46.23.7-20,.24-39.93.33-59.89-.08-8.15-.17-15.89,2.14-23.91,2.43-3.72.13-6.27,2.13-6.19,6,.82,39.67-5.53,80,10.91,118.29,4.71,11,9.41,21.14,22.65,23.51,12.26.14,24.51.39,36.77.39,74.89,0,149.79-.08,224.68.2,6.79,0,10.32-2.11,13.21-8.05a181.87,181.87,0,0,0,18.62-82.18c-.14-17.11-.37-34.23.14-51.32.22-7.41-1.59-9.86-9.49-9.78-39.7.43-79.41.08-119.12.3-8.28,0-14.47-2.34-17.86-10.24.13-14.35,4.6-18.87,19.24-18.89q68.22-.11,136.44,0c15,0,19.87,4.66,19.59,19.7-.66,35.11,2.51,70.35-2.53,105.33C677.41,349.85,587.94,424.49,487.21,420.43c-9.92-.4-19.78-2.49-29.66-3.8-53.12-16.84-94.06-49.34-123.11-96.69a192.46,192.46,0,0,1-28.86-101.72q-.1-37.2,0-74.41c.05-14.3,4.82-18.91,19.23-19.11l31.84-.46q54.18.23,108.36.48C478,124.79,481.75,127.72,484.79,139.74Z" transform="translate(-184.35 -4.13)"/><path d="M356.63,794.38c25.62-17.21,50.31-36,77.05-51.26,45-25.64,91.41-25,135.82,1.78C600.62,763.67,630.19,785,660.56,805c3.69,2.43,5.08,5.2,4.93,9.52a206.37,206.37,0,0,0,0,23.2c.54,7.08-2.36,8.49-8.84,8.45-40-.26-79.94-.18-119.91-.1-12,0-15.14,2.65-18.2,14.24l-33.79,0c-.77-6.51-4.33-11-10.08-13.91-19.91-1.6-39.86-.4-59.79-.65-17.07-.22-34.14-.06-51.21,0-3.9,0-8.78.5-9.1-4.68C353.65,825.46,350.78,809.7,356.63,794.38Z" transform="translate(-184.35 -4.13)" style="fill:#fee077"/><path d="M510.88,451.29c-15.76,7.83-25.42,2.25-26.34-15.21,6.8-11.52,15.28-14.72,23.89-9C516.26,432.23,517.08,440.35,510.88,451.29Z" transform="translate(-184.35 -4.13)" style="fill:#030303"/><path d="M484.57,563.89c.71-17.47,10.69-23.22,26.42-15.23,5.92,10.7,5.49,17.71-1.41,23.27C501,578.83,491.72,575.84,484.57,563.89Z" transform="translate(-184.35 -4.13)" style="fill:#030303"/><path d="M499.71,484.61a15.34,15.34,0,1,1-15,15.61A15.62,15.62,0,0,1,499.71,484.61Z" transform="translate(-184.35 -4.13)" style="fill:#030303"/><path d="M372.16,304.3c-10.36,2.54-16.2-1.48-20.67-11.33-11-24.17-17-49.2-16.89-75.72.06-18.38.31-36.78-.16-55.15-.18-7,2.25-8.5,8.8-8.48,43.86.17,87.72-.06,131.58-.16-3.24,3.17-7.32,1.84-11,1.85-32.82.1-65.64.22-98.46-.07-6.67-.06-8.92,1.87-8.82,8.7.37,24.12-.75,48.3.43,72.38A197.61,197.61,0,0,0,372.16,304.3Z" transform="translate(-184.35 -4.13)" style="fill:#dcdcdc"/><path d="M389.66,655.12c55.76-54.06,137.82-66.35,208.07-11.49,38.14,29.79,59.72,69.38,66.54,117.13.49,3.48.38,7,.63,12.18-11.1-7.35-21.13-14.06-31.23-20.67-18.59-12.19-36.38-25.94-56-36.16-58.52-30.51-115.92-26.52-171.18,9.34-15.38,10-30.65,20.14-46,30.22-6.66-1.59-4.69-7.22-4.09-10.9C361.6,712.74,370.24,681.91,389.66,655.12Z" transform="translate(-184.35 -4.13)" style="fill:#f1f2ec"/><path d="M389.66,655.12c-3.66,7.85-7.1,15.8-11,23.52-10.43,20.56-15.3,42.8-19.78,65.12-.75,3.76-1.85,8.37,1.65,11.91l-25.94,18C338.67,725.82,355.59,686.5,389.66,655.12Z" transform="translate(-184.35 -4.13)" style="fill:#dcdcdc"/><path d="M356.63,794.38c0,13.19.5,26.41-.15,39.58-.42,8.32,1.81,11.09,10.6,10.94,32.5-.54,65-.25,97.52-.16,3.4,0,7.14-1.17,10.13,1.68-43.49-.11-87-.38-130.46-.17-7.31,0-11.06-1.5-9.72-9.47a15,15,0,0,0,0-5.78C330,811.55,340.58,801.34,356.63,794.38Z" transform="translate(-184.35 -4.13)" style="fill:#fccf5c"/><path d="M380.16,334h239c-11.62,24.65-67.86,53.91-108.31,57.39C457.6,396,417.69,371,380.16,334Z" transform="translate(-184.35 -4.13)" style="fill:#fee076"/><path d="M515.36,770.53a15.36,15.36,0,0,1-30.71.11,15.36,15.36,0,0,1,30.71-.11Z" transform="translate(-184.35 -4.13)" style="fill:#030201"/><path d="M439.69,815.87a15.17,15.17,0,0,1-15.16-15.27A15.68,15.68,0,0,1,440,785.39c8.18.1,15.35,7.4,15.25,15.5A15.31,15.31,0,0,1,439.69,815.87Z" transform="translate(-184.35 -4.13)" style="fill:#030201"/><path d="M575.48,801a15.35,15.35,0,0,1-30.7-.55c.16-8.14,7.54-15.26,15.65-15.09A15.78,15.78,0,0,1,575.48,801Z" transform="translate(-184.35 -4.13)" style="fill:#030201"/><path d="M499.71,635.2a15.23,15.23,0,0,1,15.66,15,15.36,15.36,0,0,1-30.71.59A15.22,15.22,0,0,1,499.71,635.2Z" transform="translate(-184.35 -4.13)" style="fill:#010101"/></svg>